<svg width="42" height="42" viewBox="0 0 42 42" fill="none" xmlns="http://www.w3.org/2000/svg">
<circle cx="21" cy="21" r="21" fill="#0B419A"/>
<g clip-path="url(#clip0_9_331316)">
<path d="M15.061 20.4106C14.8975 20.7055 14.9287 21.0657 14.8823 21.3839C14.6686 22.8712 13.3887 23.934 11.8701 23.8848C9.9234 23.8205 8.56213 21.9265 9.15294 20.0557C9.50242 18.9483 10.4954 18.1475 11.6431 18.0196C12.4493 17.9294 13.2019 18.1582 13.9018 18.707C13.9911 18.7776 13.9974 18.8545 13.9205 18.9385C13.5818 19.3112 13.3565 19.7402 13.2448 20.2256C13.2359 20.2613 13.2001 20.2828 13.1653 20.2747C13.1492 20.2711 13.1349 20.2604 13.125 20.2461C12.7756 19.7009 12.2875 19.4909 11.6601 19.6169C11.2042 19.708 10.7725 20.1129 10.6536 20.5652C10.4347 21.3947 10.937 22.1508 11.7691 22.3001C12.5396 22.4377 13.2958 21.8076 13.3378 21.0264C13.3485 20.8226 13.3592 20.5965 13.4048 20.4016C13.8159 18.6659 15.5017 17.68 17.2142 18.2064C18.8338 18.7034 19.6972 20.55 19.0376 22.1231C18.5585 23.2645 17.4448 23.9796 16.1908 23.942C15.5035 23.9215 14.876 23.6667 14.3102 23.1796C14.2763 23.151 14.2718 23.1001 14.3004 23.0661C14.3013 23.0652 14.3022 23.0634 14.304 23.0625C14.6409 22.7059 14.8778 22.2778 15.0145 21.7763C15.0512 21.6414 15.1057 21.6333 15.1772 21.754C15.4409 22.1991 16.0263 22.4574 16.5492 22.3555C17.3304 22.2018 17.8569 21.4018 17.6209 20.6206C17.4716 20.1272 17.0131 19.7063 16.4983 19.6517C15.8583 19.5847 15.3792 19.8377 15.061 20.4106Z" fill="white"/>
<path d="M5.63074 19.5535C4.16131 20.1971 4.41962 22.6157 6.14736 22.6166C6.91157 22.6166 7.6284 22.6166 8.29608 22.6166C8.32021 22.6166 8.33987 22.6363 8.33987 22.6604V23.8045C8.33898 23.8367 8.31306 23.8626 8.28088 23.8626C7.54707 23.8644 6.81235 23.8653 6.07585 23.8662C5.54314 23.8671 4.99166 23.8304 4.50722 23.5909C3.64826 23.1672 3.15577 22.4611 3.02975 21.4734C2.85188 20.0702 3.47308 18.7268 4.85491 18.2575C5.19545 18.1413 5.71297 18.0886 6.40746 18.1002C7.12072 18.1118 7.74728 18.1127 8.28714 18.1029C8.31664 18.1029 8.33987 18.1252 8.34077 18.1547C8.34077 18.1547 8.34077 18.1556 8.34077 18.1565L8.33898 19.3828C8.33898 19.4177 8.31038 19.4463 8.27463 19.4472C7.76694 19.4561 7.24317 19.4552 6.70241 19.4445C6.17685 19.4347 5.81933 19.4704 5.63074 19.5535Z" fill="white"/>
<path d="M21.7034 20.6993C21.5229 21.6038 22.0591 22.6013 23.0683 22.612C23.8092 22.6201 24.5493 22.6201 25.2903 22.6129C25.318 22.6129 25.3403 22.6353 25.3403 22.663V23.7865C25.3403 23.8294 25.3055 23.8642 25.2635 23.8642C24.5243 23.8634 23.7869 23.8642 23.0522 23.8678C22.5391 23.8696 22.1333 23.8196 21.8348 23.7186C20.4405 23.2457 19.8452 21.9855 20.0284 20.5554C20.2268 19.0028 21.3879 18.0974 22.9342 18.1045C23.7002 18.1081 24.4814 18.1081 25.2786 18.1054C25.3215 18.1054 25.343 18.1269 25.343 18.1698L25.3394 19.3863C25.3394 19.4229 25.3215 19.4426 25.2849 19.4435C24.8621 19.4569 24.4304 19.4578 23.9907 19.4479C23.407 19.4336 23.0119 19.4497 22.8055 19.4962C22.2602 19.6178 21.8089 20.1683 21.7034 20.6993Z" fill="white"/>
<path d="M28.1716 18.2771C29.8788 17.7819 32.4405 18.2887 32.6997 20.4616C32.8722 21.9158 32.4038 23.1573 30.9916 23.7365C30.6198 23.8894 30.1532 23.9743 29.5919 23.993C28.1931 24.0377 26.6977 23.6731 26.2303 22.1661C25.9139 21.1445 25.9612 19.8949 26.7764 19.0958C27.1759 18.7044 27.6416 18.4317 28.1716 18.2771ZM29.6169 19.33C28.2628 19.1781 27.5066 20.4026 27.8534 21.6128C28.0831 22.4128 28.6015 22.8257 29.4096 22.8534C29.9619 22.8722 30.5072 22.6362 30.761 22.1321C31.0399 21.5815 31.1096 20.6958 30.8102 20.1336C30.5581 19.6589 30.1604 19.3917 29.6169 19.33Z" fill="white"/>
<path d="M35.2174 19.4069C35.1933 19.4069 35.1745 19.4274 35.1745 19.4515L35.1701 23.7937C35.1701 23.8419 35.1459 23.8661 35.0985 23.8661H33.6863C33.6354 23.867 33.6104 23.8419 33.6104 23.791V18.1332C33.6104 18.118 33.6229 18.1055 33.6381 18.1055C34.5864 18.1064 35.6348 18.1073 36.7852 18.1064C37.4519 18.1055 38.1035 18.1689 38.5513 18.7025C38.8427 19.0502 38.9902 19.4578 38.9929 19.9271C39.0027 21.274 39.0018 22.5656 38.9902 23.8008C38.9902 23.8366 38.9616 23.8652 38.9258 23.8652L37.5065 23.867C37.4707 23.867 37.4412 23.8375 37.4412 23.8008C37.4439 22.6898 37.4439 21.4519 37.443 20.087C37.443 19.6804 37.031 19.4086 36.6663 19.4033C36.1988 19.397 35.7162 19.3979 35.2174 19.4069Z" fill="white"/>
</g>
<circle cx="21" cy="21" r="20.5" stroke="black" stroke-opacity="0.05"/>
<defs>
<clipPath id="clip0_9_331316">
<rect width="36" height="5.99657" fill="white" transform="translate(3 18)"/>
</clipPath>
</defs>
</svg>
