<svg width="42" height="42" viewBox="0 0 42 42" fill="none" xmlns="http://www.w3.org/2000/svg">
<circle cx="21" cy="21" r="21" fill="white"/>
<g clip-path="url(#clip0_9_331325)">
<path d="M26.0251 19.8773C26.1009 18.5257 24.5139 18.8348 23.7864 19.1774C23.7175 19.2099 23.6702 19.1902 23.6456 19.1183L23.4222 18.4902C23.3946 18.4144 23.4182 18.3613 23.494 18.3307C24.6645 17.8621 26.3785 17.6977 26.8697 19.2433C26.9455 19.4835 26.983 19.7621 26.98 20.0782C26.9702 21.0754 26.9702 22.0205 26.981 22.9134C26.981 22.9607 26.9436 22.9991 26.8963 23C26.8963 23 26.8963 23 26.8953 23L26.1462 22.9971C26.095 22.9971 26.0526 22.9548 26.0526 22.9036C26.0526 22.8898 26.0556 22.877 26.0615 22.8642C26.0763 22.8337 26.0773 22.8012 26.0664 22.7687C26.0517 22.7264 26.0261 22.7175 25.9896 22.7431C25.5703 23.0306 25.0967 23.1389 24.5681 23.067C23.4162 22.9114 22.8393 21.8335 23.1711 20.7555C23.3877 20.0516 23.9026 19.6657 24.7157 19.5997C25.1873 19.5613 25.5988 19.6667 25.9503 19.9138C25.9719 19.9285 26.0014 19.9246 26.0162 19.9029C26.0211 19.895 26.0251 19.8862 26.0251 19.8773ZM26.0349 21.3422C26.0448 20.8332 25.6165 20.4129 25.079 20.402C24.5415 20.3922 24.0975 20.7958 24.0876 21.3048C24.0778 21.8138 24.506 22.2341 25.0436 22.245C25.5811 22.2548 26.0251 21.8512 26.0349 21.3422Z" fill="#EB991B"/>
<path d="M28.6833 18.4125C28.6784 18.4804 28.701 18.4922 28.7532 18.4479C29.654 17.685 31.1494 17.9035 31.613 19.0475C31.7272 19.33 31.7814 19.7661 31.7745 20.3558C31.7656 21.2093 31.7686 22.0658 31.7843 22.9243C31.7843 22.9636 31.7528 22.9961 31.7125 22.9971L30.8264 22.9991C30.7802 22.9991 30.7418 22.9617 30.7418 22.9154C30.7388 21.9802 30.7408 20.976 30.7467 19.9039C30.7536 18.5414 28.7492 18.5336 28.7561 19.9197C28.761 20.9672 28.762 21.9743 28.7571 22.941C28.7571 22.9705 28.7335 22.9942 28.7039 22.9942H27.8248C27.7835 22.9952 27.75 22.9617 27.75 22.9203L27.752 18.192C27.752 18.126 27.7845 18.0935 27.8504 18.0945H28.5848C28.6656 18.0955 28.703 18.1358 28.6971 18.2166L28.6833 18.4125Z" fill="#92B82C"/>
<path d="M7.91107 19.4344C7.47396 18.509 5.98939 18.7896 6.01007 19.8656C6.01893 20.2722 6.01696 20.6876 6.00613 21.1139C5.99235 21.6534 6.24535 22.0964 6.79862 22.1889C7.17764 22.2529 7.62656 22.1456 7.82443 21.8109C7.852 21.7636 7.88153 21.7174 7.91205 21.6721C7.93666 21.6357 7.96816 21.6268 8.00754 21.6465L8.77739 22.0294C8.81973 22.0501 8.82957 22.0816 8.80693 22.123C8.57853 22.5453 8.24578 22.8259 7.8077 22.9667C6.54365 23.3732 5.03052 22.815 5.00985 21.3019C5.00394 20.9003 5.00001 20.4573 5.00001 19.9749C4.99804 18.9904 5.50897 18.2166 6.52592 18.0532C7.41391 17.9095 8.3147 18.1182 8.79118 18.9412C8.81874 18.9884 8.80201 19.0485 8.75475 19.0761C8.75377 19.0761 8.7518 19.078 8.75081 19.078L8.00164 19.4649C7.96915 19.4816 7.92879 19.4689 7.91205 19.4354C7.91205 19.4354 7.91205 19.4354 7.91205 19.4344H7.91107Z" fill="#540000"/>
<path d="M13.1152 21.2823C13.1152 22.2766 12.3099 23.0819 11.3156 23.0819H10.9021C9.90783 23.0819 9.10254 22.2766 9.10254 21.2823V19.8194C9.10254 18.8261 9.90783 18.0198 10.9021 18.0198H11.3156C12.3099 18.0198 13.1152 18.8251 13.1152 19.8194V21.2823ZM12.1022 19.8125C12.1002 19.2986 11.6828 18.8832 11.1689 18.8851H11.0449C10.531 18.8871 10.1156 19.3055 10.1175 19.8194L10.1224 21.2784C10.1244 21.7922 10.5418 22.2077 11.0557 22.2057H11.1798C11.6936 22.2037 12.1091 21.7853 12.1071 21.2715L12.1022 19.8125Z" fill="#540000"/>
<path d="M19.5648 22.7392L19.5756 24.908C19.5756 24.9848 19.5372 25.0232 19.4605 25.0242L18.6424 25.0291C18.5912 25.0291 18.5488 24.9877 18.5479 24.9365C18.5479 24.9365 18.5479 24.9365 18.5479 24.9355V18.1674C18.5479 18.127 18.5803 18.0945 18.6207 18.0945L19.4349 18.0965C19.4752 18.0965 19.5087 18.13 19.5077 18.1703C19.5077 18.1713 19.5077 18.1733 19.5077 18.1743L19.492 18.4135C19.487 18.4873 19.5126 18.5001 19.5678 18.4519C19.8897 18.1723 20.2756 18.0266 20.7235 18.0148C21.7995 17.9862 22.5202 18.6773 22.5625 19.7445C22.5792 20.1589 22.5812 20.6561 22.5694 21.2359C22.5546 22.0097 22.2169 22.7284 21.4609 22.9794C20.7964 23.199 20.184 23.1084 19.6249 22.7077C19.5845 22.6792 19.5638 22.689 19.5648 22.7392ZM21.5544 19.8232C21.5544 19.3074 21.137 18.89 20.6211 18.89H20.505C19.9891 18.89 19.5717 19.3074 19.5717 19.8232V21.2724C19.5717 21.7882 19.9891 22.2056 20.505 22.2056H20.6211C21.137 22.2056 21.5544 21.7882 21.5544 21.2724V19.8232Z" fill="#D73028"/>
<path d="M33.5757 22.1604C34.0738 22.1357 34.6429 22.117 35.2828 22.1042C35.9985 22.0895 36.4927 22.3799 36.7654 22.9755C37.1434 23.7995 36.7388 24.6865 35.9453 25.1364C35.8921 25.1659 35.8508 25.1541 35.8223 25.1019L35.4462 24.4276C35.4186 24.3784 35.4294 24.34 35.4797 24.3134C35.8331 24.1253 36.1589 23.7119 35.9443 23.3082C35.8331 23.0986 35.6549 22.9932 35.4117 22.9932C34.4607 22.9932 33.4979 22.9932 32.5223 22.9932C32.4839 22.9932 32.4524 22.9627 32.4514 22.9243C32.4318 22.2736 32.4957 21.6622 33.114 21.294C33.1366 21.2802 33.1435 21.2517 33.1297 21.2291C33.1258 21.2231 33.1209 21.2182 33.116 21.2143C32.4593 20.7693 32.2605 19.8479 32.54 19.1243C32.7694 18.5287 33.2252 18.1743 33.9055 18.0601C34.6389 17.937 35.27 18.0561 35.7996 18.4184C35.836 18.443 35.8695 18.4411 35.902 18.4105C36.1717 18.1595 36.4946 18.0345 36.8697 18.0364C36.9554 18.0364 36.9977 18.0798 36.9977 18.1654L36.9997 18.76C36.9997 18.8398 36.9603 18.8791 36.8805 18.8782C36.6984 18.8752 36.5163 18.9146 36.3342 18.9953C36.2977 19.0111 36.28 19.0534 36.2938 19.0908C36.3903 19.3664 36.4651 19.651 36.4326 19.9414C36.2879 21.2113 35.3428 21.6228 34.1949 21.5923C33.999 21.5874 33.8238 21.6465 33.6712 21.7695C33.5993 21.8276 33.5344 21.8985 33.4773 21.9822C33.3896 22.1082 33.4231 22.1672 33.5757 22.1594V22.1604ZM35.4255 19.7986C35.4275 19.2906 34.9805 18.8772 34.4282 18.8752C33.876 18.8732 33.427 19.2838 33.4251 19.7908C33.4231 20.2987 33.8701 20.7122 34.4223 20.7142C34.9746 20.7161 35.4235 20.3056 35.4255 19.7986Z" fill="#4DA3DF"/>
<path d="M16.796 22.6427C16.3687 22.9745 15.9542 23.129 15.397 23.0808C14.1871 22.9774 13.7599 22.0737 13.7707 20.9868C13.7796 20.0526 13.7806 19.1164 13.7727 18.1801C13.7727 18.1388 13.8052 18.1053 13.8465 18.1043C13.8465 18.1043 13.8465 18.1043 13.8475 18.1043L14.704 18.0984C14.7621 18.0984 14.7916 18.127 14.7916 18.186C14.7877 19.1636 14.7867 20.1707 14.7896 21.2083C14.7896 21.4151 14.8398 21.6011 14.9383 21.7675C15.3045 22.3867 16.3549 22.3611 16.6729 21.7075C16.7458 21.5568 16.7812 21.3757 16.7802 21.1621C16.7733 20.1166 16.7733 19.1173 16.7802 18.1654C16.7802 18.126 16.8127 18.0945 16.8521 18.0945H17.7283C17.7676 18.0955 17.7991 18.127 17.7991 18.1663V22.9105C17.7991 22.9656 17.7706 22.9932 17.7164 22.9932H16.9407C16.8708 22.9932 16.8383 22.9597 16.8432 22.8898L16.858 22.6762C16.8619 22.6181 16.8413 22.6063 16.795 22.6427H16.796Z" fill="#540000"/>
</g>
<circle cx="21" cy="21" r="20.5" stroke="black" stroke-opacity="0.05"/>
<defs>
<clipPath id="clip0_9_331325">
<rect width="32" height="7.15213" fill="white" transform="translate(5 18)"/>
</clipPath>
</defs>
</svg>
