<svg width="42" height="42" viewBox="0 0 42 42" fill="none" xmlns="http://www.w3.org/2000/svg">
<circle cx="21" cy="21" r="21" fill="#602D8F"/>
<path d="M29.1672 25.442L27.7005 26.9088C27.6422 26.9671 27.5865 26.9645 27.5333 26.9037L26.6897 25.9892C26.6239 25.9158 26.6213 25.8423 26.6847 25.7688C28.9038 23.1266 28.6403 19.2432 26.1223 16.9379C23.9031 14.9062 20.6352 14.7542 18.1982 16.53C18.1324 16.5782 18.0716 16.5731 18.0133 16.5123L17.3268 15.7777C17.2711 15.7194 17.2432 15.6485 17.2432 15.5649V13.328C17.2432 13.2267 17.2077 13.1279 17.1444 13.0468L15.6625 11.1849C15.5763 11.0759 15.5333 11.0911 15.5333 11.2305V13.6016C15.5333 13.784 15.4801 13.8017 15.3711 13.6548L15.1482 13.3559C15.0646 13.2444 15.0241 13.1203 15.0266 12.9809V12.0512C15.0291 11.9676 15.0063 11.8891 14.9582 11.8182L13.1799 9.12279C13.0608 8.94293 13 8.96066 13 9.17599V13.5687C13 13.6928 13.0481 13.8144 13.1343 13.9056L16.7796 17.7663C16.843 17.8321 16.848 17.9031 16.7974 17.9765C14.6188 21.2596 15.6118 25.404 19.0317 27.2964C20.9468 28.3553 23.394 28.216 25.2686 27.038C25.3547 26.9848 25.4332 26.9949 25.5016 27.0684L29.1445 31H29.2736L29.304 25.5003C29.304 25.3711 29.261 25.3508 29.1672 25.442ZM26.1603 22.1387C25.5827 26.7847 19.2115 27.4129 17.8183 22.8809C17.4687 21.7485 17.6105 20.5984 18.2413 19.4306C18.2413 19.4255 18.2464 19.423 18.2489 19.4205C18.2666 19.4027 18.297 19.4027 18.3173 19.4205L19.3154 20.4414C19.3534 20.4794 19.3635 20.525 19.3458 20.5756C18.9861 21.6421 19.1229 22.582 19.7537 23.3926C20.6986 24.6035 22.4186 24.7961 23.6067 23.8663C26.14 21.8803 23.8018 17.7055 20.7391 19.1292C20.5694 19.2077 20.425 19.1748 20.3008 19.0354L19.6498 18.2957C19.5155 18.1437 19.5358 18.0196 19.7157 17.9259C21.5295 16.9708 23.1964 17.1253 24.7138 18.3894C25.755 19.2558 26.3325 20.7682 26.1603 22.1387Z" fill="white"/>
<circle cx="21" cy="21" r="20.5" stroke="black" stroke-opacity="0.04"/>
</svg>
