<svg width="42" height="42" viewBox="0 0 42 42" fill="none" xmlns="http://www.w3.org/2000/svg">
<circle cx="21" cy="21" r="21" fill="#009BFA"/>
<g clip-path="url(#clip0_9_331262)">
<path d="M13 13.0522C13 12.4228 13.2696 12.0147 13.9361 12.006C14.855 11.9937 15.5116 11.9999 15.9073 12.0221C16.4527 12.0543 16.7272 12.3399 16.7297 12.8803C16.7433 16.9155 16.7532 20.8677 16.7594 24.7372C16.7594 25.264 17.1675 25.5583 17.6522 25.5583C19.9932 25.5595 22.5184 25.5608 25.2291 25.5583C25.8041 25.5583 26.0984 25.9256 26.1083 26.4672C26.1182 27.0287 26.1133 27.5555 26.0935 28.0464C26.0762 28.4854 25.7349 28.8131 25.2946 28.8119C21.9681 28.8069 18.8406 28.8082 15.9123 28.8144C15.3471 28.8144 14.8784 28.6264 14.4679 28.227C14.1365 27.9054 13.8224 27.5876 13.5256 27.2747C13.1385 26.8691 13 26.3176 13.0012 25.7537C13.0074 21.6085 13.0062 17.3743 13 13.0522Z" fill="white"/>
<path d="M30.2699 28.8319C29.8556 29.0384 29.4723 29.0545 29.1198 28.8801C28.7489 28.6958 28.3952 28.5215 28.0576 28.3558C27.9327 28.2939 27.8535 28.1666 27.8535 28.0268V26.0433C27.8523 25.9208 27.9203 25.8095 28.0291 25.7539C28.4335 25.5461 28.8156 25.3582 29.178 25.19C29.4772 25.0502 29.7926 25.054 30.1228 25.2011C30.5197 25.3755 30.9117 25.5672 31.3013 25.7761C31.3631 25.8095 31.4039 25.8726 31.4064 25.9431C31.4323 26.6591 31.4336 27.3627 31.4101 28.0565C31.4064 28.1727 31.3421 28.2779 31.2419 28.336C30.9253 28.5165 30.6013 28.6649 30.2699 28.8319Z" fill="#FFCA00"/>
</g>
<circle cx="21" cy="21" r="20.5" stroke="black" stroke-opacity="0.05"/>
<defs>
<clipPath id="clip0_9_331262">
<rect width="18.4271" height="17" fill="white" transform="translate(13 12)"/>
</clipPath>
</defs>
</svg>
