<svg width="42" height="42" viewBox="0 0 42 42" fill="none" xmlns="http://www.w3.org/2000/svg">
<circle cx="21" cy="21" r="21" fill="#FA2829"/>
<g clip-path="url(#clip0_9_330926)">
<path d="M14.6522 17.6929C14.5157 17.3851 14.338 17.1701 14.0186 17.0632C13.6309 16.9344 13.1712 17.0451 12.9123 17.3529C12.8402 17.4392 12.7565 17.5899 12.6625 17.8024C11.8692 19.6015 11.072 21.4006 10.2736 23.1984C10.025 23.756 10.5221 24.3355 11.1094 24.1823C11.3541 24.1179 11.5279 23.9659 11.6322 23.7264C11.7919 23.3568 11.9529 22.9795 12.1152 22.5944C12.1216 22.5802 12.1345 22.5712 12.1499 22.5712H15.1828C15.1931 22.5712 15.2021 22.5764 15.206 22.5867C15.3605 22.9473 15.5138 23.3066 15.667 23.6646C15.8215 24.0265 16.1306 24.2647 16.5273 24.1965C17.0128 24.1127 17.2819 23.6298 17.0772 23.1675C16.2465 21.2963 15.4391 19.4701 14.6522 17.6916V17.6929ZM14.6136 21.2113H12.714C12.714 21.2113 12.7114 21.2113 12.7101 21.2113C12.705 21.2087 12.7024 21.2035 12.705 21.1971L13.6554 18.9331C13.6554 18.9331 13.6593 18.9279 13.6619 18.9267C13.667 18.9241 13.6734 18.9267 13.6747 18.9331L14.6252 21.1971C14.6252 21.1971 14.6252 21.1997 14.6252 21.201C14.6252 21.2061 14.62 21.2113 14.6148 21.2113H14.6136Z" fill="white"/>
<path d="M28.0069 22.2775C27.5252 22.6549 27.0423 22.8609 26.4022 22.8365C24.4499 22.7631 23.8214 20.2003 25.1183 18.9781C25.8047 18.3303 26.8259 18.284 27.6257 18.7631C27.7622 18.8442 27.9103 18.9627 28.0326 19.018C28.2567 19.1198 28.4782 19.1185 28.6997 19.0155C29.1273 18.8159 29.2432 18.2853 28.9946 17.9079C28.9135 17.7843 28.7963 17.7045 28.6765 17.6233C28.3018 17.3696 27.882 17.1958 27.4183 17.103C26.9225 17.0039 26.4383 16.9575 25.9386 17.0451C25.797 17.0696 25.663 17.0979 25.5355 17.1275C24.0983 17.4701 23.0629 18.6433 22.8594 20.1011C22.5581 22.2608 24.0288 24.1359 26.2207 24.2621H26.6521C26.759 24.2544 26.8659 24.2453 26.9727 24.235C27.6373 24.1655 28.2297 23.9285 28.75 23.5242C28.9277 23.3851 29.0436 23.2627 29.0977 23.1558C29.4454 22.4643 28.6044 21.8088 28.0056 22.2763L28.0069 22.2775Z" fill="white"/>
<path d="M36.9823 20.0457C36.7453 18.557 35.6635 17.4404 34.1941 17.112C33.8335 17.0309 33.5025 16.9871 33.1355 17.0051C32.8895 17.018 32.6114 17.0669 32.3667 17.1262C31.6365 17.3026 31.0286 17.6516 30.5418 18.1732C29.8876 18.8738 29.5657 19.7237 29.5734 20.7244C29.5875 22.3921 30.726 23.7598 32.3177 24.1513C32.5624 24.2118 32.811 24.2492 33.0647 24.2633H33.5051C33.5978 24.2543 33.6906 24.2453 33.7833 24.2337C34.7105 24.123 35.4819 23.7353 36.0962 23.0682C36.5534 22.5724 36.8458 21.9749 36.972 21.2769C36.9887 21.1841 36.9913 21.0927 37.0003 21V20.2466C36.99 20.1796 36.9926 20.1127 36.9823 20.0444V20.0457ZM33.8412 22.7746C32.0241 23.2099 30.717 21.4288 31.3467 19.774C31.9533 18.1809 34.0988 17.9787 35.0338 19.3747C35.8374 20.575 35.3158 22.4204 33.8412 22.7733V22.7746Z" fill="white"/>
<path d="M22.3214 17.1159C21.9054 16.982 21.5641 17.1339 21.3246 17.4739C20.7296 18.32 20.1437 19.1571 19.5667 19.9852C19.5667 19.9852 19.5654 19.9865 19.5641 19.9878C19.559 19.9903 19.5538 19.9903 19.55 19.9852C18.9885 19.179 18.4231 18.3625 17.8513 17.5383C17.6916 17.3078 17.4907 17.1185 17.2023 17.0863C16.973 17.0605 16.7747 17.112 16.6086 17.2395C16.2428 17.5216 16.2441 18.0097 16.5055 18.3664C17.2435 19.3722 17.9904 20.3857 18.7451 21.407C18.7631 21.4327 18.7734 21.4623 18.7734 21.4932C18.776 22.0753 18.7747 22.7012 18.7721 23.3735C18.7708 23.6233 18.8352 23.8435 19.0207 24.0058C19.246 24.2028 19.5036 24.2569 19.7972 24.1681C20.0097 24.1037 20.1913 23.9247 20.2724 23.7147C20.3072 23.6259 20.3227 23.4932 20.3227 23.3181C20.3188 22.7115 20.3175 22.1037 20.3175 21.4958C20.3175 21.4404 20.333 21.3992 20.3652 21.3567C21.1186 20.3445 21.8603 19.3438 22.5905 18.3548C22.7657 18.1178 22.8211 17.8667 22.7567 17.6027C22.7026 17.3812 22.5365 17.1867 22.3214 17.1172V17.1159Z" fill="white"/>
<path d="M9.05409 17.2782C8.68963 17.1481 8.35222 17.0811 8.04185 17.0811C7.27817 17.0786 6.51964 17.0773 5.76626 17.0773C5.36317 17.0773 5.03863 17.3773 5 17.7766V23.5061C5.04507 23.953 5.44173 24.2685 5.87959 24.199C6.29556 24.1333 6.54668 23.8165 6.5454 23.3979C6.54411 22.9292 6.54411 22.463 6.5454 22.0006C6.5454 21.9878 6.55184 21.9813 6.56343 21.9813C6.88925 21.9788 7.24984 21.9788 7.64263 21.9813C7.89762 21.9826 8.11011 21.971 8.2801 21.9466C9.38248 21.7907 10.2994 21.161 10.5042 20.0135C10.7128 18.848 10.2067 17.6916 9.05151 17.2769L9.05409 17.2782ZM8.97939 19.6027C8.97682 20.1578 8.48487 20.6059 7.87959 20.6046L6.55956 20.5995C6.54926 20.5995 6.54024 20.5905 6.54024 20.5802L6.54797 18.4913C6.54797 18.481 6.55699 18.472 6.56729 18.472L7.88731 18.4771C8.49259 18.4797 8.98197 18.9317 8.98068 19.4868V19.6027H8.97939Z" fill="white"/>
</g>
<circle cx="21" cy="21" r="20.5" stroke="black" stroke-opacity="0.05"/>
<defs>
<clipPath id="clip0_9_330926">
<rect width="32" height="7.26336" fill="white" transform="translate(5 17)"/>
</clipPath>
</defs>
</svg>
