<svg width="42" height="42" viewBox="0 0 42 42" fill="none" xmlns="http://www.w3.org/2000/svg">
<circle cx="21" cy="21" r="21" fill="#323743"/>
<path d="M12.4738 14.5282C13.6591 14.8795 15.3317 15.2288 15.739 16.6088C16.0349 17.6091 15.6978 18.5211 14.8844 19.1373C13.4033 20.2601 11.4001 19.8024 10.1213 18.6062C10.1097 18.5959 10.1097 18.5778 10.12 18.5662L10.7994 17.8721C10.8135 17.8579 10.8361 17.8572 10.8516 17.8708C11.4026 18.3722 12.0143 18.6558 12.6865 18.7209C13.4207 18.7925 14.2489 18.5243 14.6511 17.8862C14.945 17.4202 14.8128 16.7648 14.3971 16.4219C14.0948 16.1731 13.6946 15.9784 13.1951 15.8379C12.6562 15.6858 12.1832 15.5389 11.7758 15.3964C10.9321 15.1019 10.2199 14.5482 10.0749 13.6098C9.8564 12.1963 10.7143 11.1013 12.0826 10.8319C13.177 10.6159 14.2276 10.8344 15.2344 11.4861C15.2505 11.4964 15.2537 11.5099 15.244 11.5267L14.7303 12.3819C14.7213 12.3961 14.7033 12.4006 14.6885 12.3923C14.6885 12.3923 14.6872 12.3916 14.6872 12.391C13.9202 11.8476 12.9624 11.6382 12.0568 11.9224C11.4458 12.1138 11.0275 12.6256 11.081 13.2811C11.1403 14.0139 11.8383 14.3407 12.4732 14.5289L12.4738 14.5282Z" fill="white"/>
<path d="M19.3714 14.5283C20.5097 14.8673 22.1751 15.2153 22.6083 16.5257C23.1993 18.3136 21.693 19.6852 20.0321 19.7683C18.937 19.8224 17.9354 19.4396 17.0273 18.6198C17.0047 18.5998 17.0041 18.5791 17.0253 18.5572L17.6976 17.8708C17.7118 17.856 17.735 17.8553 17.7498 17.8695C18.4543 18.525 19.4404 18.8859 20.373 18.6681C21.0923 18.5012 21.8439 17.9333 21.6853 17.0961C21.5558 16.4097 20.8526 16.0693 20.2383 15.8818C18.7159 15.4171 16.8088 15.0961 16.9454 12.9962C17.0311 11.6904 18.0669 10.9195 19.2947 10.7797C20.2963 10.6656 21.2425 10.9021 22.1326 11.488C22.1455 11.4964 22.1494 11.5132 22.1416 11.526L21.6383 12.3639C21.6202 12.3942 21.597 12.3994 21.568 12.3794C20.8635 11.8934 20.1133 11.711 19.3173 11.8316C18.6276 11.9353 18.0418 12.3452 17.978 13.0749C17.9013 13.945 18.6805 14.322 19.3714 14.5283Z" fill="white"/>
<path d="M30.5692 16.3091H28.1567C28.129 16.3091 28.1148 16.2956 28.1148 16.2679V15.3243C28.1148 15.2946 28.1296 15.2798 28.1587 15.2798H31.6166C31.6269 15.2798 31.6353 15.2882 31.6353 15.2985V18.5134C31.6353 18.73 31.2079 19.0168 31.0242 19.1218C30.1354 19.631 29.0088 19.8392 27.9821 19.7612C26.6865 19.6626 25.4955 19.0226 24.7246 17.9855C23.3034 16.0719 23.607 13.3127 25.4909 11.778C26.2637 11.149 27.1461 10.8087 28.1387 10.7571C29.4484 10.6894 30.5015 11.1432 31.4909 12.0011C31.5109 12.0185 31.5122 12.0378 31.4947 12.0584L30.8586 12.7822C30.8386 12.8048 30.8167 12.8061 30.7935 12.7861C30.6401 12.6488 30.4783 12.5199 30.3075 12.3987C29.2305 11.6343 27.7545 11.595 26.6092 12.2685C23.9537 13.8296 24.4494 17.8154 27.4471 18.6152C28.4062 18.8718 29.7184 18.7042 30.5698 18.1718C30.5892 18.1596 30.6014 18.1383 30.6014 18.1151V16.3407C30.6014 16.3233 30.5866 16.3091 30.5692 16.3091Z" fill="white"/>
<path d="M11.7693 28.3283V31.4078C11.7693 31.4265 11.7545 31.4413 11.7358 31.4413H10.7355C10.7026 31.4413 10.6865 31.4252 10.6865 31.393V21.9319C10.6872 21.9158 10.7001 21.9029 10.7155 21.9029C11.692 21.901 12.7013 21.901 13.7435 21.9042C13.9569 21.9042 14.1805 21.9339 14.4138 21.9919C16.3771 22.4798 17.3684 24.6705 16.4918 26.492C15.9485 27.6219 14.8579 28.2967 13.5914 28.2922C12.9997 28.2902 12.4042 28.2902 11.8054 28.2915C11.7854 28.2915 11.7693 28.3083 11.7693 28.3283ZM11.7758 23.0528L11.7616 27.1301C11.7616 27.1584 11.7835 27.181 11.8119 27.1816C11.8119 27.1816 11.8119 27.1816 11.8125 27.1816L13.6172 27.1874C14.778 27.1913 15.7216 26.2638 15.7261 25.1153V25.0959C15.7306 23.9474 14.7928 23.0128 13.632 23.0083L11.8273 23.0025C11.7996 23.0025 11.7771 23.0251 11.7764 23.0528H11.7758Z" fill="#E24F39"/>
<path d="M20.7226 23.7973L17.3833 31.4279C17.3794 31.4356 17.3717 31.4408 17.3633 31.4408H16.1967C16.1845 31.4414 16.1748 31.4317 16.1748 31.4195C16.1748 31.4163 16.1754 31.413 16.1767 31.4105L20.3288 21.9152C20.3327 21.9075 20.3404 21.9023 20.3488 21.9023H21.1371C21.1454 21.9023 21.1532 21.9081 21.157 21.9159L23.4548 27.1669C23.4587 27.1746 23.4664 27.1798 23.4748 27.1798H25.2807C25.293 27.1791 25.3027 27.1888 25.3027 27.201V28.231C25.3027 28.2432 25.293 28.2529 25.2807 28.2529L23.9595 28.249C23.9472 28.249 23.9375 28.2587 23.9375 28.271C23.9375 28.2742 23.9382 28.2774 23.9395 28.28L25.3091 31.4111C25.3143 31.4221 25.3091 31.435 25.2981 31.4401C25.2956 31.4414 25.2923 31.4421 25.2891 31.4421L24.1232 31.4408C24.1148 31.4408 24.1071 31.4356 24.1032 31.4279L22.7187 28.2658C22.7149 28.2581 22.7071 28.2529 22.6988 28.2529H20.682C20.6698 28.2529 20.6601 28.2432 20.6601 28.231V27.2004C20.6601 27.1881 20.6698 27.1785 20.682 27.1785L22.2102 27.1804C22.2224 27.1804 22.2321 27.1707 22.2321 27.1585C22.2321 27.1553 22.2315 27.1521 22.2302 27.1495L20.7626 23.7973C20.7574 23.7863 20.7445 23.7812 20.7336 23.7863C20.7284 23.7882 20.7246 23.7921 20.7226 23.7973Z" fill="#E24F39"/>
<path d="M28.3243 25.7972L31.2988 21.9333C31.3137 21.9139 31.3375 21.9023 31.362 21.9023H32.6704C32.6826 21.9023 32.6923 21.9127 32.6917 21.9249C32.6917 21.9294 32.6897 21.9339 32.6872 21.9378L28.925 26.8253C28.8806 26.8833 28.858 26.949 28.858 27.0219L28.8619 31.3918C28.8619 31.4169 28.8419 31.4369 28.8167 31.4369C28.8167 31.4369 28.8167 31.4369 28.8161 31.4369L27.7836 31.4304C27.7604 31.4304 27.7488 31.4182 27.7488 31.395C27.7488 29.9822 27.7494 28.5681 27.7494 27.1521C27.7494 27.0251 27.7597 26.9232 27.6856 26.8266C26.4333 25.1985 25.1777 23.5665 23.9177 21.9313C23.9119 21.9236 23.9132 21.912 23.9209 21.9062C23.9241 21.9036 23.928 21.9023 23.9318 21.9023H25.2396C25.2692 21.9023 25.2976 21.9159 25.3157 21.9397L28.285 25.7979C28.2934 25.8088 28.3089 25.8101 28.3198 25.8018C28.3218 25.8005 28.323 25.7992 28.3243 25.7972Z" fill="#E24F39"/>
<path d="M11.7759 23.0528C11.7759 23.0251 11.7991 23.0026 11.8268 23.0026L13.6315 23.0084C14.7923 23.0122 15.7301 23.9468 15.7262 25.0954V25.1147C15.7217 26.2632 14.7781 27.1907 13.6173 27.1869L11.8126 27.1811C11.7843 27.1811 11.7617 27.1585 11.7617 27.1301C11.7617 27.1301 11.7617 27.1301 11.7617 27.1295L11.7759 23.0522V23.0528Z" fill="#323743"/>
<path d="M32.0498 31.4472C32.4958 31.4472 32.8574 31.0857 32.8574 30.6396C32.8574 30.1936 32.4958 29.832 32.0498 29.832C31.6038 29.832 31.2422 30.1936 31.2422 30.6396C31.2422 31.0857 31.6038 31.4472 32.0498 31.4472Z" fill="#E24F39"/>
<circle cx="21" cy="21" r="20.5" stroke="black" stroke-opacity="0.05"/>
</svg>
