<svg width="42" height="42" viewBox="0 0 42 42" fill="none" xmlns="http://www.w3.org/2000/svg">
<circle cx="21" cy="21" r="21" fill="#FF4A00"/>
<g clip-path="url(#clip0_9_331358)">
<path d="M20.9674 20.6323C21.0974 18.9281 22.3249 17.5039 23.9871 17.1075C24.4417 16.9995 24.9074 16.973 25.3847 17.0292C26.7623 17.1909 27.9788 18.0931 28.5299 19.3666C29.0609 20.5922 28.9418 22.006 28.1981 23.1197C27.8534 23.6358 27.3793 24.0821 26.8289 24.3834C26.0845 24.7909 25.2845 24.9468 24.4295 24.8504C23.6501 24.7624 22.9128 24.4274 22.323 23.9217C21.9343 23.5879 21.6226 23.1921 21.3878 22.7342C21.0508 22.0771 20.9105 21.3767 20.9674 20.6329V20.6323ZM26.783 20.9097C26.7668 19.8749 25.9131 19.049 24.8764 19.0652C23.8396 19.0814 23.0124 19.9338 23.0286 20.9686C23.0448 22.0034 23.8985 22.8293 24.9352 22.8131C25.972 22.797 26.7992 21.9445 26.783 20.9097Z" fill="white"/>
<path d="M7.95436 19.904C7.95436 19.7436 7.82113 19.6466 7.67173 19.6466C7.06443 19.6466 6.42479 19.6466 5.75152 19.6472C5.65322 19.6472 5.56267 19.5774 5.52581 19.4907C5.50964 19.4525 5.50188 19.4047 5.50188 19.3484C5.50382 19.1414 5.50382 18.9345 5.50188 18.7275C5.49994 18.5425 5.45531 18.3427 5.32984 18.2017C5.28134 18.1474 5.21795 18.1086 5.16104 18.0633C5.04139 17.9676 4.95602 17.8285 5.02199 17.6778C5.07049 17.5672 5.17721 17.5233 5.28974 17.5233C7.64457 17.5233 10.0207 17.5233 12.4176 17.522C12.5786 17.522 12.6983 17.6274 12.6976 17.7917C12.6963 18.3091 12.6963 18.8304 12.6976 19.3549C12.6976 19.4163 12.6905 19.4635 12.6757 19.4965C12.6336 19.5883 12.5444 19.6466 12.4415 19.6466C11.8381 19.6478 11.2069 19.6472 10.5472 19.6459C10.4301 19.6459 10.3551 19.653 10.3221 19.6692C10.251 19.7035 10.2044 19.7526 10.1818 19.8179C10.1708 19.8509 10.165 19.9001 10.165 19.966C10.1643 21.3443 10.1643 22.7244 10.165 24.1066C10.165 24.1337 10.1578 24.1641 10.1436 24.1984C10.1003 24.3038 10.0104 24.3568 9.87521 24.3568C9.33841 24.3568 8.79708 24.3568 8.25057 24.3568C8.20077 24.3568 8.14774 24.3523 8.10247 24.331C7.99575 24.2799 7.95113 24.188 7.95113 24.0677C7.95371 22.7206 7.95371 21.3333 7.95177 19.9046L7.95436 19.904Z" fill="white"/>
<path d="M16.6252 20.6857C16.6763 20.6605 16.7125 20.6333 16.7332 20.6049C17.4498 19.6393 18.1671 18.6737 18.8837 17.7081C18.9458 17.624 18.9904 17.5749 19.0175 17.56C19.1779 17.4714 19.3623 17.5516 19.4101 17.7288C19.9844 19.8689 20.5419 21.9398 21.0839 23.9428C21.1188 24.0721 21.135 24.1776 21.0412 24.2759C20.9908 24.3289 20.9229 24.3561 20.8375 24.3561C19.7975 24.3573 19.2775 24.358 19.2769 24.358C19.1799 24.3561 19.1055 24.3224 19.0538 24.2584C19.0285 24.2267 19.004 24.1659 18.9807 24.0754C18.6237 22.7068 18.4445 22.0213 18.4439 22.0187C18.4361 21.9941 18.4258 21.9773 18.4141 21.9682C18.3824 21.9443 18.3553 21.9488 18.332 21.9812C17.8249 22.6848 17.3185 23.3892 16.8121 24.0935C16.7701 24.1523 16.7358 24.1885 16.7086 24.2034C16.6006 24.2629 16.5056 24.2151 16.4396 24.1239C15.9021 23.3756 15.388 22.6603 14.8977 21.9792C14.8667 21.9359 14.8065 21.9501 14.7936 21.9999C14.6099 22.6952 14.4288 23.3879 14.2503 24.078C14.2277 24.1659 14.2025 24.2267 14.1747 24.261C14.1236 24.3244 14.0498 24.3567 13.9528 24.3567C13.4477 24.3567 12.9284 24.3567 12.3935 24.3567C12.2797 24.3567 12.1963 24.3082 12.1432 24.2112C12.1051 24.1407 12.1148 24.0676 12.1348 23.9919C12.6846 21.9514 13.2336 19.9103 13.7834 17.8698C13.8047 17.7902 13.8215 17.6861 13.8707 17.626C13.9308 17.5522 14.0065 17.5186 14.099 17.5264C14.2219 17.5361 14.2756 17.6098 14.3415 17.699C15.0562 18.6659 15.7728 19.6322 16.4913 20.5978C16.5211 20.6372 16.5605 20.667 16.6097 20.687C16.6142 20.689 16.6194 20.689 16.6239 20.687L16.6252 20.6857Z" fill="white"/>
<path d="M31.6938 21.0001C31.6614 20.96 31.6045 20.9283 31.5619 20.9781C31.5457 20.9969 31.5373 21.0195 31.5373 21.0461V24.0729C31.5373 24.2041 31.4778 24.294 31.3588 24.3425C31.3361 24.3516 31.2967 24.3568 31.2424 24.3568C30.725 24.3568 30.2082 24.3574 29.6908 24.3581C29.5569 24.3581 29.4677 24.3044 29.423 24.197C29.4095 24.164 29.4023 24.1349 29.4023 24.1097C29.4023 22.0181 29.4023 19.9065 29.4023 17.7754C29.4023 17.6183 29.5388 17.5225 29.683 17.5232C30.1429 17.5251 30.6383 17.5245 31.1706 17.5232C31.2831 17.5232 31.3672 17.531 31.4247 17.5478C31.569 17.5905 31.6511 17.6713 31.7475 17.7916C32.5727 18.8258 33.3947 19.856 34.2148 20.8811C34.2698 20.9497 34.3668 20.9283 34.3668 20.8352C34.3681 19.8418 34.3681 18.8639 34.3668 17.9022C34.3668 17.7974 34.3752 17.723 34.3933 17.6791C34.4347 17.5749 34.5304 17.5232 34.6792 17.5238C35.1552 17.5258 35.6519 17.5251 36.17 17.5238C36.2508 17.5238 36.3084 17.531 36.3426 17.5471C36.4435 17.5937 36.4979 17.6804 36.4979 17.7929C36.4979 19.5081 36.4979 21.2246 36.4966 22.943C36.4966 23.2347 36.4966 23.569 36.7611 23.7566C36.8471 23.8174 36.9221 23.8775 36.9719 23.9713C37.0411 24.1026 36.99 24.2772 36.8465 24.3309C36.7986 24.349 36.7443 24.3581 36.6848 24.3581C36.0199 24.3581 35.3492 24.3581 34.6721 24.3581C34.5311 24.3581 34.405 24.3354 34.295 24.2429C34.2329 24.1906 34.1818 24.1246 34.1288 24.058C33.3184 23.0387 32.5074 22.0201 31.6957 21.0008L31.6938 21.0001Z" fill="white"/>
<path d="M24.9072 21.9269C25.453 21.9269 25.8954 21.4845 25.8954 20.9387C25.8954 20.3929 25.453 19.9504 24.9072 19.9504C24.3614 19.9504 23.9189 20.3929 23.9189 20.9387C23.9189 21.4845 24.3614 21.9269 24.9072 21.9269Z" fill="white"/>
</g>
<circle cx="21" cy="21" r="20.5" stroke="black" stroke-opacity="0.04"/>
<defs>
<clipPath id="clip0_9_331358">
<rect width="32" height="7.87744" fill="white" transform="translate(5 17)"/>
</clipPath>
</defs>
</svg>
