<svg width="42" height="42" viewBox="0 0 42 42" fill="none" xmlns="http://www.w3.org/2000/svg">
<circle cx="21" cy="21" r="21" fill="#0064FF"/>
<circle cx="21" cy="21" r="20.5" stroke="black" stroke-opacity="0.04"/>
<path d="M22.4412 14.766L23.3757 10.376C23.4177 10.1556 23.2289 9.95593 23.0082 10.0085C21.6536 10.2501 20.2461 10.67 18.8495 11.2688C12.5693 13.9258 8.76752 19.1348 10.3643 22.9049C11.572 25.73 15.4683 26.9377 19.9946 26.234L19.06 30.624C19.0178 30.8444 19.2069 31.0441 19.4276 30.9915C20.7822 30.7499 22.1894 30.33 23.5863 29.7312C29.8665 27.0742 33.6576 21.8652 32.0614 18.0845C30.8637 15.27 26.9674 14.0623 22.4412 14.766Z" fill="white"/>
</svg>
