<svg width="42" height="42" viewBox="0 0 42 42" fill="none" xmlns="http://www.w3.org/2000/svg">
<circle cx="21" cy="21" r="21" fill="#ED1C24"/>
<path d="M9.81578 18.7448L9.22531 18.7875C9.07769 18.7992 9.00388 18.7293 9 18.5778V18.4107C9 18.2515 9.07769 18.1738 9.23696 18.1776L10.6354 18.2204C10.7947 18.2204 10.8763 18.1427 10.8724 17.9834L10.8646 17.4745C10.8646 17.323 10.9851 17.1987 11.1366 17.1948C11.1366 17.1948 11.1404 17.1948 11.1443 17.1948L11.9329 17.2026C12.0378 17.2026 12.0883 17.2531 12.0844 17.358L12.0611 17.8513C12.0533 18.0456 12.201 18.2087 12.3952 18.2165C12.403 18.2165 12.4146 18.2165 12.4224 18.2165L13.7742 18.1776C13.9102 18.1738 14.0229 18.2786 14.0267 18.4146C14.0267 18.4146 14.0267 18.4185 14.0267 18.4224V18.5778C14.0267 18.7293 13.9491 18.7992 13.7976 18.7875L13.2265 18.737C12.9701 18.7176 12.9235 18.8031 13.0905 18.9973C13.984 20.0345 13.8675 22.2021 12.3486 22.711C10.6393 23.2821 9.31077 22.2021 9.38458 20.4657C9.40789 19.8985 9.59435 19.4168 9.94786 19.0206C10.01 18.9507 10.0022 18.8458 9.9362 18.7836C9.90512 18.7526 9.85851 18.7409 9.81578 18.7448ZM11.5328 22.3498C12.1077 22.3498 12.57 21.5573 12.5661 20.5822C12.5661 19.6072 12.0922 18.8186 11.5173 18.8225C10.9423 18.8225 10.4801 19.615 10.4839 20.59C10.4839 21.5651 10.9579 22.3536 11.5328 22.3498Z" fill="white"/>
<path d="M15.7785 24.8399H14.7685L14.7529 17.3736C14.7529 17.2376 14.819 17.1677 14.9549 17.1677H15.627C15.7552 17.1677 15.8212 17.2299 15.8212 17.362V19.6228C15.8212 19.7704 15.895 19.8404 16.0426 19.8365L16.8079 19.8054C17.006 19.7976 17.1226 19.8948 17.1536 20.0929L17.1692 20.2055C17.1847 20.3104 17.1109 20.4114 17.0099 20.427C17.0021 20.427 16.9944 20.427 16.9827 20.427L16.031 20.4425C15.895 20.4425 15.829 20.5124 15.829 20.6484L15.7785 24.8399Z" fill="white"/>
<path d="M24.1232 24.8399H23.1365L23.0743 22.7927C23.0743 22.6723 23.0122 22.614 22.8918 22.614H18.3584C18.1447 22.614 17.9699 22.4431 17.9699 22.2294V17.6572C17.966 17.5367 18.0282 17.4746 18.1486 17.4746H18.8517C18.9838 17.4746 19.0498 17.5406 19.0498 17.6727V21.7477C19.0498 21.9419 19.1431 22.0391 19.3334 22.0391L22.7946 22.0274C22.9772 22.0274 23.0705 21.9342 23.0705 21.7516L23.051 17.3114C23.051 17.2143 23.0976 17.1638 23.1986 17.1638L24.0805 17.1794C24.2087 17.1794 24.2708 17.2415 24.2669 17.3697L24.2125 19.483C24.2087 19.6422 24.2863 19.7238 24.4495 19.7277L25.2614 19.7355C25.4401 19.7355 25.5333 19.8248 25.5372 20.0035V20.1356C25.545 20.2871 25.4712 20.3648 25.3197 20.3648H24.4689C24.3135 20.3648 24.232 20.4425 24.2281 20.6017L24.1232 24.8399Z" fill="white"/>
<path d="M28.1124 20.9243L32.5915 20.9321C32.6575 20.9321 32.708 20.9826 32.708 21.0486C32.708 21.0486 32.708 21.0486 32.708 21.0525L32.7002 21.4099C32.7002 21.472 32.6458 21.5225 32.5837 21.5225L30.5132 21.5419C30.4471 21.5419 30.3966 21.5924 30.3966 21.6585V22.7501C30.3966 22.8161 30.4471 22.8666 30.5132 22.8666L33.5199 22.8783C33.582 22.8783 33.6325 22.9249 33.6364 22.987L33.6636 23.3561C33.6675 23.4221 33.6209 23.4765 33.5549 23.4804C33.5549 23.4804 33.551 23.4804 33.5471 23.4804H26.1468C26.0808 23.4843 26.0303 23.4338 26.0303 23.3677L26.038 22.9987C26.038 22.9365 26.0885 22.8899 26.1507 22.886L29.1263 22.8627C29.1924 22.8627 29.2429 22.8122 29.2429 22.7462L29.2351 21.6779C29.2351 21.6196 29.1846 21.5691 29.1263 21.5653L27.0519 21.4604C26.9898 21.4604 26.9432 21.4099 26.9393 21.3477L26.8966 19.3277C26.8966 19.2617 26.9432 19.2112 27.0092 19.2073C27.0092 19.2073 27.0092 19.2073 27.0131 19.2073L31.3367 19.1917C31.4028 19.1917 31.4533 19.1412 31.4533 19.0752V18.0652C31.4533 17.9991 31.4028 17.9486 31.3367 17.9486H27.0209C26.9548 17.9486 26.9043 17.8943 26.9043 17.8282C26.9043 17.8282 26.9043 17.8243 26.9043 17.8204L26.9276 17.5136C26.9315 17.4514 26.982 17.4048 27.0442 17.4048L32.4594 17.4242C32.5254 17.4242 32.5759 17.4747 32.5759 17.5407V19.5763C32.5759 19.6423 32.5254 19.6928 32.4594 19.6928L28.1124 19.7278C28.0464 19.7278 27.9959 19.7783 27.9959 19.8443V20.8077C27.9959 20.8738 28.0464 20.9243 28.1124 20.9243Z" fill="white"/>
<path d="M28.326 9.1521H29.3283C29.3904 9.1521 29.4448 9.19871 29.4526 9.26087L29.5108 9.61437C29.5225 9.6843 29.4759 9.75034 29.4098 9.76199C29.4021 9.76199 29.3943 9.76199 29.3865 9.76199L28.326 9.77753C28.2561 9.77753 28.1978 9.8358 28.1978 9.90572C28.1978 9.90572 28.1978 9.90572 28.1978 9.90961L28.2056 12.3142C28.2056 12.3841 28.1473 12.4424 28.0774 12.4424H27.1956C27.1257 12.4424 27.0674 12.3841 27.0674 12.3142V7.12819C27.0674 7.05827 27.1295 7 27.1995 7L28.0813 7.01165C28.1512 7.01165 28.2095 7.06992 28.2095 7.13985L28.1978 9.02391C28.1978 9.09383 28.2561 9.1521 28.326 9.1521Z" fill="white"/>
<path d="M18.7108 8.04895L18.6953 7.4546C18.6914 7.33806 18.7808 7.24095 18.8973 7.23706C18.9012 7.23706 18.9051 7.23706 18.909 7.23706L19.6937 7.24483C19.7986 7.24483 19.8529 7.29922 19.8529 7.4041V10.438C19.8529 10.5934 19.7752 10.6711 19.616 10.6711H14.7951C14.4261 10.675 14.127 10.3759 14.127 10.0068V7.5051C14.127 7.33029 14.2163 7.24483 14.3911 7.24095H15.0632C15.2147 7.23318 15.2885 7.30698 15.2885 7.45849V8.01788C15.2885 8.17715 15.3662 8.25484 15.5254 8.25484H18.5088C18.6448 8.25484 18.7147 8.18492 18.7108 8.04895ZM18.707 9.04731C18.707 8.93854 18.6215 8.85308 18.5127 8.85308H15.4905C15.3817 8.84919 15.2962 8.93466 15.2962 9.04343V9.86697C15.2962 9.97574 15.3817 10.0612 15.4905 10.0612H18.5127C18.6215 10.0651 18.707 9.97963 18.707 9.87086V9.04731Z" fill="white"/>
<path d="M23.676 10.0651C23.2215 10.5934 22.6737 11.0246 22.0328 11.3548C21.8735 11.4403 21.6792 11.4247 21.5277 11.3199L21.4267 11.2499C21.2752 11.145 21.2791 11.0479 21.4423 10.9586C22.7786 10.2244 23.3535 9.08229 23.171 7.52455C23.1554 7.3847 23.2564 7.25651 23.3963 7.24097C23.404 7.24097 23.4157 7.24097 23.4235 7.24097H24.1732C24.3558 7.24874 24.4412 7.33808 24.4218 7.52066C24.2703 8.99683 24.8491 10.1312 26.1583 10.9275C26.2631 10.9897 26.2981 11.1256 26.2321 11.2305C26.2165 11.2577 26.1971 11.2771 26.1738 11.2965L26.0806 11.3626C25.9718 11.4442 25.8203 11.4558 25.6999 11.3898C25.0123 11.0246 24.4374 10.5818 23.9751 10.0612C23.8741 9.94857 23.7731 9.94857 23.676 10.0651Z" fill="white"/>
<path d="M17.5459 14.6723H16.4582L16.3494 12.4463C16.3455 12.3259 16.2795 12.2599 16.159 12.256L13.1484 12.1161V11.6811L20.7546 11.6655C20.8362 11.6655 20.9022 11.7316 20.9022 11.8131C20.9022 11.8209 20.9022 11.8287 20.9022 11.8403L20.875 11.953C20.8362 12.1356 20.7235 12.2288 20.5371 12.2288H17.8333C17.7051 12.2288 17.6352 12.2948 17.6313 12.423L17.5498 14.6723H17.5459Z" fill="white"/>
<path d="M28.256 14.6721H22.9496C22.6582 14.0622 22.5922 13.2231 22.7514 12.1548C22.7631 12.0888 22.798 12.0577 22.8641 12.0616L23.7343 12.0849C23.8081 12.0849 23.8469 12.1238 23.843 12.1976L23.8314 13.8214C23.8314 13.9962 23.9712 14.1399 24.146 14.1399H28.2366C28.3648 14.1399 28.4696 14.2448 28.4658 14.373C28.4658 14.4351 28.4386 14.4934 28.3958 14.5361L28.256 14.6721Z" fill="white"/>
<path d="M23.9104 28.1977C23.7822 28.1977 23.7162 28.2638 23.7162 28.392V30.5285C23.7201 30.6839 23.8444 30.8121 23.9998 30.8121H28.1602C28.3428 30.8121 28.4205 30.9015 28.4011 31.0801L28.3855 31.22C28.37 31.3288 28.2806 31.4103 28.1719 31.4103L23.0325 31.3948C22.7722 31.3948 22.5586 31.1811 22.5586 30.9209L22.5508 27.9258C22.5508 27.7432 22.6401 27.6539 22.8227 27.6539L28.067 27.6228C28.1835 27.6228 28.2806 27.716 28.2845 27.8365C28.2845 27.8403 28.2845 27.8481 28.2845 27.852L28.2768 28.0035C28.2729 28.1356 28.203 28.2016 28.0709 28.2016H23.9104V28.1977Z" fill="white"/>
<path d="M19.769 34.9999H18.8211L18.79 27.5064C18.79 27.3898 18.8444 27.3315 18.961 27.3315H19.7068C19.8156 27.3354 19.87 27.3898 19.8661 27.4986L19.8311 29.6818C19.8311 29.8255 19.9011 29.8993 20.0448 29.8993H20.9111C21.0626 29.8993 21.183 30.0236 21.183 30.1751V30.3383C21.183 30.4665 21.1208 30.5325 20.9926 30.5325H20.0953C19.936 30.5325 19.8583 30.6102 19.8544 30.7695L19.769 34.9999Z" fill="white"/>
<path d="M15.7367 30.2568L13.7905 30.2801C13.5924 30.2801 13.503 30.183 13.5225 29.9849L13.5341 29.8489C13.5458 29.7557 13.6235 29.6896 13.7128 29.6896L15.9659 29.6819C16.1252 29.6819 16.2184 29.6003 16.2378 29.441L16.3583 28.4815C16.3816 28.2989 16.3039 28.2096 16.1213 28.2096H13.705C13.5652 28.2096 13.5069 28.1396 13.5341 28.0037L13.5652 27.8444C13.5885 27.7201 13.6973 27.6308 13.8216 27.6346L17.2906 27.6618C17.4615 27.6618 17.5431 27.7473 17.5392 27.9182C17.4576 30.4627 16.1796 32.2108 13.7128 33.1547C13.6118 33.1936 13.4991 33.1392 13.4603 33.0382C13.4603 33.0304 13.4564 33.0265 13.4564 33.0188L13.4253 32.8828C13.3904 32.7468 13.437 32.6497 13.5613 32.5876C14.4703 32.1408 15.2278 31.4222 15.8377 30.4316C15.8688 30.3772 15.8494 30.3034 15.795 30.2723C15.7756 30.2607 15.7561 30.2568 15.7367 30.2568Z" fill="white"/>
<path d="M29.2478 32.9721V33.5393H21.8359C21.7155 33.5393 21.6572 33.481 21.6572 33.3606V33.143C21.665 33.0226 21.7271 32.9604 21.8476 32.9604L29.2478 32.9721Z" fill="white"/>
<circle cx="21" cy="21" r="20.5" stroke="black" stroke-opacity="0.05"/>
</svg>
