<svg width="42" height="42" viewBox="0 0 42 42" fill="none" xmlns="http://www.w3.org/2000/svg">
<circle cx="21" cy="21" r="21" fill="#4C4C4C"/>
<g clip-path="url(#clip0_9_331245)">
<path d="M20.9278 24.4885C22.8663 24.4885 24.4377 22.917 24.4377 20.9786C24.4377 19.0402 22.8663 17.4688 20.9278 17.4688C18.9894 17.4688 17.418 19.0402 17.418 20.9786C17.418 22.917 18.9894 24.4885 20.9278 24.4885Z" fill="url(#paint0_linear_9_331245)"/>
<path d="M9.5 26.23C9.5 25.3684 9.60883 24.4796 10.9058 23.2824C12.6471 21.6771 12.6471 20.3621 12.6471 20.3621C12.6471 20.3621 13.6629 21.3143 14.5154 22.0852C15.6763 23.1282 16.7646 24.2619 16.7646 26.2209C16.7646 28.1799 15.1412 29.8577 13.1278 29.8577C11.1144 29.8577 9.5 28.2343 9.5 26.23Z" fill="url(#paint1_linear_9_331245)"/>
<path d="M17.009 15.6368C17.009 16.4984 16.9002 17.3872 15.6033 18.5844C13.8619 20.1897 13.8619 21.5047 13.8619 21.5047C13.8619 21.5047 12.8462 20.5524 11.9936 19.7815C10.8327 18.7295 9.73535 17.5958 9.73535 15.6368C9.73535 13.6778 11.3678 12 13.3722 12C15.3765 12 17.009 13.6234 17.009 15.6368Z" fill="url(#paint2_linear_9_331245)"/>
<path d="M24.9905 26.23C24.9905 25.3684 25.0993 24.4796 26.3963 23.2824C28.1376 21.6771 28.1376 20.3621 28.1376 20.3621C28.1376 20.3621 29.1534 21.3143 30.0059 22.0852C31.1668 23.1282 32.2551 24.2619 32.2551 26.2209C32.2551 28.1799 30.6317 29.8577 28.6183 29.8577C26.6049 29.8577 24.9814 28.2343 24.9814 26.2209L24.9905 26.23Z" fill="url(#paint3_linear_9_331245)"/>
<path d="M32.4999 15.6368C32.4999 16.4984 32.3911 17.3872 31.0942 18.5843C29.3529 20.1896 29.3529 21.5047 29.3529 21.5047C29.3529 21.5047 28.3371 20.5524 27.4846 19.7815C26.3237 18.7385 25.2354 17.6049 25.2354 15.6459C25.2354 13.6869 26.8588 12.009 28.8722 12.009C30.8856 12.009 32.509 13.6325 32.509 15.6459L32.4999 15.6368Z" fill="url(#paint4_linear_9_331245)"/>
</g>
<circle cx="21" cy="21" r="20.5" stroke="black" stroke-opacity="0.05"/>
<defs>
<linearGradient id="paint0_linear_9_331245" x1="20.9641" y1="23.9534" x2="20.9006" y2="18.675" gradientUnits="userSpaceOnUse">
<stop stop-color="#C47229"/>
<stop offset="1" stop-color="#F8951D"/>
</linearGradient>
<linearGradient id="paint1_linear_9_331245" x1="13.0371" y1="20.4528" x2="13.1912" y2="29.5131" gradientUnits="userSpaceOnUse">
<stop stop-color="#73767A"/>
<stop offset="1" stop-color="#84868A"/>
</linearGradient>
<linearGradient id="paint2_linear_9_331245" x1="13.3722" y1="21.2417" x2="13.3722" y2="13.17" gradientUnits="userSpaceOnUse">
<stop stop-color="#C47229"/>
<stop offset="1" stop-color="#F8951D"/>
</linearGradient>
<linearGradient id="paint3_linear_9_331245" x1="28.4177" y1="21.4589" x2="28.4176" y2="29.8668" gradientUnits="userSpaceOnUse">
<stop stop-color="#73767A"/>
<stop offset="1" stop-color="#84868A"/>
</linearGradient>
<linearGradient id="paint4_linear_9_331245" x1="28.8631" y1="21.2417" x2="28.8631" y2="13.1699" gradientUnits="userSpaceOnUse">
<stop stop-color="#C47229"/>
<stop offset="1" stop-color="#F8951D"/>
</linearGradient>
<clipPath id="clip0_9_331245">
<rect width="23" height="17.8667" fill="white" transform="translate(9.5 12)"/>
</clipPath>
</defs>
</svg>
