<svg width="42" height="42" viewBox="0 0 42 42" fill="none" xmlns="http://www.w3.org/2000/svg">
<circle cx="21" cy="21" r="21" fill="white"/>
<path d="M19.7365 19.8921L16.7933 19.3732C16.7175 20.4338 16.1152 21.958 17.8278 24.8538C19.7117 28.0392 23.2258 28.3883 24.7787 28.3027C26.5949 28.2634 30.5055 26.5291 31.5635 22.607C32.6214 18.6848 30.0088 15.6631 29.1335 14.953C27.6332 13.7356 26.1972 13.3236 24.1857 13.1277L24.1365 16.1839C24.3996 16.2302 25.1742 16.2469 26.1659 16.6529C28.5505 17.6292 29.0645 20.3877 28.3799 22.3791C27.7904 23.8314 26.3221 25.6364 23.1637 25.0795C20.4298 24.5975 19.2986 21.5559 19.7365 19.8921Z" fill="#FF7A00"/>
<path d="M17.6223 16.1746V13.186C16.5646 13.2955 14.9589 12.9671 12.4045 15.1566C9.59467 17.565 9.86109 21.0862 10.2151 22.6007C10.5691 24.3825 12.9562 27.9325 17.0024 28.2933C21.0487 28.6542 23.5708 25.5565 24.1182 24.5712C25.0565 22.8822 25.2129 21.3965 25.0565 19.3816L22.0382 19.8639C22.0383 20.131 22.1564 20.8967 21.9287 21.9439C21.3813 24.4618 18.754 25.447 16.674 25.1186C15.1414 24.7902 13.1088 23.6577 13.1088 20.4505C13.1088 17.6744 15.9077 16.0323 17.6223 16.1746Z" fill="#EA002C"/>
<circle cx="21" cy="21" r="20.5" stroke="black" stroke-opacity="0.05"/>
</svg>
