<svg width="42" height="42" viewBox="0 0 42 42" fill="none" xmlns="http://www.w3.org/2000/svg">
<circle cx="21" cy="21" r="21" fill="#E40520"/>
<g clip-path="url(#clip0_9_331423)">
<path d="M8.83579 16H9.13979C9.63579 16.032 10.0878 16.188 10.4958 16.46C11.1438 16.896 11.5438 17.5 11.6878 18.26C11.7998 18.844 11.7078 19.448 11.4358 19.976C11.0998 20.632 10.5718 21.088 9.85579 21.344C9.71179 21.396 9.51979 21.436 9.28779 21.468C8.08379 21.624 6.93579 20.912 6.46779 19.82C6.06379 18.872 6.21979 17.792 6.87179 17.004C7.37179 16.4 8.02379 16.064 8.83579 16ZM10.2958 18.744C10.2958 18.02 9.71179 17.436 8.98779 17.436C8.26379 17.436 7.67979 18.02 7.67979 18.744C7.67979 19.468 8.26379 20.052 8.98779 20.052C9.71179 20.052 10.2958 19.468 10.2958 18.744Z" fill="white"/>
<path d="M13.1358 16H14.1878C14.4318 16.06 14.5518 16.18 14.5518 16.356V24.88C14.5518 25.084 14.4718 25.18 14.3318 25.312C14.1278 25.5 13.9318 25.692 13.7438 25.888C13.5998 26.036 13.3518 25.992 13.1638 25.992C13.1398 25.992 13.1318 25.98 13.1318 25.96V16H13.1358Z" fill="white"/>
<path d="M15.9484 16H18.5284C18.6964 16.012 18.8284 16.072 18.9324 16.176C19.3164 16.568 19.7164 16.968 20.1284 17.376C20.2484 17.496 20.3124 17.644 20.3124 17.82C20.3124 18.212 20.3164 18.616 20.3124 19.036C20.3124 19.056 20.3244 19.068 20.3444 19.068H21.3524C21.3524 19.068 21.3804 19.056 21.3804 19.04V16H22.4324C22.6724 16.064 22.7884 16.2 22.7884 16.412C22.7964 18.948 22.7964 21.488 22.7924 24.024C22.7924 24.352 22.7924 24.672 22.7844 24.976C22.7844 25.048 22.7524 25.116 22.7004 25.168L21.9564 25.908C21.9084 25.956 21.8444 25.984 21.7764 25.984H21.4044C21.4044 25.984 21.3764 25.976 21.3764 25.956V20.516C21.3764 20.516 21.3684 20.488 21.3484 20.488H20.3404C20.3404 20.488 20.3124 20.496 20.3124 20.516V23.524C20.3124 23.524 20.2964 23.556 20.2804 23.556C19.4524 23.556 18.6204 23.556 17.7844 23.556C17.6044 23.556 17.4404 23.508 17.3124 23.38C16.8884 22.948 16.4844 22.54 16.1004 22.16C15.9804 22.04 15.9444 21.884 15.9404 21.704C15.9404 19.8 15.9404 17.9 15.9444 16H15.9484ZM18.8964 17.46C18.8964 17.44 18.8804 17.42 18.8564 17.42H17.3964C17.3764 17.42 17.3564 17.436 17.3564 17.46V22.096C17.3564 22.116 17.3724 22.136 17.3964 22.136H18.8564C18.8764 22.136 18.8964 22.12 18.8964 22.096V17.46Z" fill="white"/>
<path d="M23.5196 16H24.5716C24.8116 16.06 24.9316 16.188 24.9316 16.384C24.9316 19.228 24.9316 22.076 24.9316 24.92C24.9316 25.028 24.8956 25.12 24.8236 25.192C24.5796 25.436 24.3396 25.676 24.1036 25.908C23.9836 26.024 23.7036 25.988 23.5516 25.988C23.5276 25.988 23.5156 25.976 23.5156 25.952V16H23.5196Z" fill="white"/>
<path d="M26.332 16H34.684C34.704 16.492 34.704 16.848 34.684 17.064C34.664 17.28 34.496 17.42 34.28 17.42C33.852 17.42 33.436 17.42 33.036 17.42C33.016 17.42 33.004 17.432 33.004 17.452C33.004 18.228 33.004 18.956 33.004 19.644C33.004 19.756 32.96 19.856 32.876 19.944C32.644 20.172 32.416 20.4 32.192 20.628C32.16 20.66 32.124 20.676 32.08 20.684C32.064 20.684 32.06 20.692 32.072 20.708C32.08 20.716 32.084 20.72 32.096 20.72C32.892 20.72 33.748 20.72 34.656 20.72C34.684 20.72 34.696 20.732 34.696 20.76C34.696 21.064 34.696 21.372 34.696 21.68C34.696 21.924 34.568 22.144 34.316 22.144C31.768 22.144 29.232 22.144 26.708 22.144C26.468 22.144 26.34 21.936 26.336 21.708C26.332 21.396 26.332 21.08 26.336 20.76C26.336 20.736 26.348 20.724 26.372 20.724H28.012C28.036 20.724 28.044 20.712 28.044 20.688C28.044 19.904 28.044 19.164 28.044 18.468C28.044 18.388 28.072 18.304 28.128 18.244C28.364 17.992 28.612 17.744 28.868 17.504C28.884 17.488 28.904 17.476 28.924 17.468C28.992 17.444 28.992 17.432 28.916 17.428C28.172 17.424 27.452 17.424 26.752 17.428C26.492 17.428 26.332 17.244 26.332 16.984C26.332 16.66 26.332 16.332 26.332 16.004V16ZM31.596 17.436C31.596 17.436 31.588 17.42 31.58 17.42H29.464C29.464 17.42 29.448 17.428 29.448 17.436V20.7C29.448 20.7 29.456 20.716 29.464 20.716H31.58C31.58 20.716 31.596 20.708 31.596 20.7V17.436Z" fill="white"/>
<path d="M6 22.124H12.376C12.376 22.124 12.404 22.132 12.404 22.152C12.412 22.544 12.408 22.888 12.404 23.184C12.396 23.444 12.216 23.58 11.96 23.58C11.208 23.572 10.448 23.572 9.684 23.58C9.676 23.58 9.668 23.588 9.668 23.596C9.668 24.084 9.668 24.536 9.668 24.952C9.668 25.048 9.628 25.14 9.552 25.224C9.284 25.52 9 25.78 8.704 26.008H8.252V23.596C8.252 23.596 8.248 23.58 8.24 23.58C7.688 23.58 7.08 23.58 6.416 23.58C6.176 23.58 6.036 23.432 6 23.196V22.128V22.124Z" fill="white"/>
<path d="M35.0921 23.5718V24.6438C35.0521 24.8558 34.9241 25.0198 34.7081 25.0198C31.9281 25.0198 29.1321 25.0198 26.3121 25.0198C26.0881 25.0198 25.9521 24.8278 25.9441 24.6118C25.9361 24.3318 25.9361 23.9958 25.9401 23.6078C25.9401 23.5838 25.9521 23.5718 25.9761 23.5718H35.0961H35.0921Z" fill="white"/>
</g>
<circle cx="21" cy="21" r="20.5" stroke="black" stroke-opacity="0.04"/>
<defs>
<clipPath id="clip0_9_331423">
<rect width="29.092" height="10" fill="white" transform="translate(6 16)"/>
</clipPath>
</defs>
</svg>
