<svg width="42" height="42" viewBox="0 0 42 42" fill="none" xmlns="http://www.w3.org/2000/svg">
<circle cx="21" cy="21" r="21" fill="#EC1C2C"/>
<path d="M22.7638 15.0266L14.0531 23.7077C14.0349 23.7275 14.0349 23.7572 14.0531 23.7771L16.7876 26.5017C16.7975 26.5116 16.8024 26.5231 16.8024 26.5364V31.4039C16.8008 31.432 16.7777 31.4535 16.7512 31.4535C16.738 31.4535 16.7264 31.4486 16.7165 31.4386L9.01363 23.7804C8.99546 23.7605 8.99546 23.7308 9.01363 23.711L22.7638 10.0136C22.7837 9.99546 22.8134 9.99546 22.8332 10.0136L33.1484 20.3155C33.1682 20.3354 33.1665 20.3668 33.1484 20.3849C33.1385 20.3949 33.1252 20.3998 33.112 20.3998L28.2279 20.3866C28.2147 20.3866 28.2031 20.3816 28.1932 20.3717L22.8332 15.0266C22.8134 15.0084 22.7837 15.0084 22.7638 15.0266Z" fill="white"/>
<circle cx="21" cy="21" r="20.5" stroke="black" stroke-opacity="0.04"/>
</svg>
