<svg width="42" height="42" viewBox="0 0 42 42" fill="none" xmlns="http://www.w3.org/2000/svg">
<circle cx="21" cy="21" r="21" fill="#282828"/>
<mask id="mask0_9_331388" style="mask-type:luminance" maskUnits="userSpaceOnUse" x="11" y="9" width="16" height="24">
<path d="M25.5483 10.4139C25.5483 10.4139 25.5387 10.3972 25.5315 10.39C24.3542 8.84421 22.1265 8.54032 20.5807 9.7176L12.39 15.9486C10.8442 17.1258 10.5403 19.3536 11.7176 20.8994C12.8949 22.4452 15.1226 22.749 16.6684 21.5718L19.3029 19.5689V29.4658C19.3029 31.4088 20.8918 33 22.8372 33C24.7825 33 26.3714 31.4111 26.3714 29.4658V12.6704C26.3714 11.8137 26.0627 11.0289 25.553 10.4163L25.5483 10.4139Z" fill="white"/>
</mask>
<g mask="url(#mask0_9_331388)">
<path d="M34.952 24.8044C29.9868 24.8044 25.9453 20.7652 25.9453 15.7977C25.9453 10.8301 29.9844 6.79102 34.952 6.79102V7.0303C30.1184 7.0303 26.1846 10.9641 26.1846 15.7977C26.1846 20.6312 30.1184 24.5651 34.952 24.5651V24.8044Z" fill="#CC23B4"/>
<path d="M34.9514 25.5581C29.5699 25.5581 25.1934 21.1815 25.1934 15.8C25.1934 10.4185 29.5699 6.04199 34.9514 6.04199V6.28128C29.7015 6.28128 25.4326 10.5525 25.4326 15.8C25.4326 21.0475 29.7039 25.3188 34.9514 25.3188V25.5581Z" fill="#CC23B4"/>
<path d="M34.8609 26.2403C29.1037 26.2403 24.4209 21.5575 24.4209 15.8003C24.4209 10.0432 29.1037 5.36035 34.8609 5.36035V5.59964C29.2353 5.59964 24.6602 10.1748 24.6602 15.8003C24.6602 21.4259 29.2353 26.0011 34.8609 26.0011V26.2403Z" fill="#CC23B4"/>
<path d="M34.8602 27.1399C28.6077 27.1399 23.5205 22.0527 23.5205 15.8002C23.5205 9.54764 28.6077 4.46045 34.8602 4.46045V4.69973C28.7393 4.69973 23.7598 9.67925 23.7598 15.8002C23.7598 21.9211 28.7393 26.9006 34.8602 26.9006V27.1399Z" fill="#CC23B4"/>
<path d="M34.8604 27.9746C28.146 27.9746 22.6855 22.5117 22.6855 15.7998C22.6855 9.08787 28.1484 3.625 34.8604 3.625V3.86428C28.2776 3.86428 22.9248 9.21948 22.9248 15.7998C22.9248 22.3801 28.28 27.7353 34.8604 27.7353V27.9746Z" fill="#CC23B4"/>
<path d="M34.8605 28.8314C27.6748 28.8314 21.8291 22.9857 21.8291 15.8C21.8291 8.61428 27.6748 2.76855 34.8605 2.76855V3.00784C27.8064 3.00784 22.0684 8.74589 22.0684 15.8C22.0684 22.8541 27.8064 28.5922 34.8605 28.5922V28.8314Z" fill="#CC23B4"/>
<path d="M34.8606 29.693C27.1987 29.693 20.9678 23.4596 20.9678 15.8001C20.9678 8.1406 27.2011 1.90723 34.8606 1.90723V2.14651C27.3327 2.14651 21.2071 8.2722 21.2071 15.8001C21.2071 23.328 27.3327 29.4537 34.8606 29.4537V29.693Z" fill="#CC23B4"/>
<path d="M34.8609 30.5709C26.7156 30.5709 20.0898 23.9451 20.0898 15.7999C20.0898 7.6546 26.7156 1.02881 34.8609 1.02881V1.26809C26.8472 1.26809 20.3291 7.78621 20.3291 15.7999C20.3291 23.8135 26.8472 30.3316 34.8609 30.3316V30.5709Z" fill="#CC23B4"/>
<path d="M34.8607 31.4183C26.2489 31.4183 19.2402 24.412 19.2402 15.7978C19.2402 7.1835 26.2465 0.177246 34.8607 0.177246V0.416531C26.3805 0.416531 19.4795 7.31511 19.4795 15.7978C19.4795 24.2804 26.3781 31.179 34.8607 31.179V31.4183Z" fill="#CC23B4"/>
<path d="M18.8485 39.7742L18.6786 39.6043C22.0955 36.1873 22.0955 30.6239 18.6786 27.2069C15.2616 23.7899 9.69821 23.7875 6.28122 27.2069L6.11133 27.037C9.62163 23.5267 15.3358 23.5267 18.8485 27.037C22.3588 30.5473 22.3588 36.2615 18.8485 39.7742Z" fill="#FFCE00"/>
<path d="M19.3791 40.3079L19.2092 40.138C22.9205 36.4267 22.9205 30.3871 19.2092 26.6758C17.4122 24.8788 15.0217 23.8882 12.4781 23.8882C9.93452 23.8882 7.54407 24.8788 5.74704 26.6758L5.57715 26.5059C7.41964 24.6634 9.86992 23.6465 12.4781 23.6465C15.0863 23.6465 17.5342 24.661 19.3791 26.5059C23.1837 30.3106 23.1837 36.5009 19.3791 40.3055V40.3079Z" fill="#FFCE00"/>
<path d="M19.862 40.7886L19.6921 40.6187C21.6183 38.6925 22.6807 36.1297 22.6807 33.4043C22.6807 30.6788 21.6207 28.1185 19.6921 26.1899C15.7152 22.2129 9.24251 22.2129 5.2656 26.1899L5.0957 26.02C9.16594 21.9497 15.7917 21.9497 19.862 26.02C21.8337 27.9917 22.92 30.6142 22.92 33.4019C22.92 36.1896 21.8337 38.8121 19.862 40.7838V40.7886Z" fill="#FFCE00"/>
<path d="M20.4958 41.4251L20.326 41.2552C24.6546 36.9266 24.6546 29.8844 20.326 25.5582C15.9973 21.2319 8.95514 21.2295 4.62888 25.5582L4.45898 25.3883C8.88097 20.9663 16.0739 20.9663 20.4958 25.3883C24.9178 29.8102 24.9178 37.0031 20.4958 41.4251Z" fill="#FFCE00"/>
<path d="M21.09 42.0158L20.9201 41.8459C25.5742 37.1918 25.5742 29.6184 20.9201 24.9643C16.266 20.3102 8.69268 20.3102 4.04099 24.9643L3.87109 24.7944C8.6185 20.047 16.3426 20.047 21.09 24.7944C25.8374 29.5419 25.8374 37.266 21.09 42.0134V42.0158Z" fill="#FFCE00"/>
<path d="M21.6924 42.6216L21.5225 42.4517C26.5092 37.465 26.5092 29.3484 21.5225 24.3617C16.5358 19.375 8.41928 19.375 3.43259 24.3617L3.2627 24.1918C8.34271 19.1118 16.61 19.1118 21.6924 24.1918C26.7748 29.2719 26.7724 37.5391 21.6924 42.6216Z" fill="#FFCE00"/>
<path d="M22.3024 43.2315L22.1325 43.0616C27.4566 37.7375 27.4566 29.0754 22.1325 23.7514C19.553 21.1719 16.1241 19.7529 12.4774 19.7529C8.83068 19.7529 5.40173 21.1743 2.82224 23.7514L2.65234 23.5815C5.2773 20.9565 8.76607 19.5112 12.4774 19.5112C16.1887 19.5112 19.6775 20.9565 22.3024 23.5815C27.7198 28.9989 27.7198 37.8117 22.3024 43.2291V43.2315Z" fill="#FFCE00"/>
<path d="M22.9251 43.8513L22.7553 43.6814C25.4999 40.9368 27.0121 37.2878 27.0121 33.4066C27.0121 29.5254 25.4999 25.8763 22.7553 23.1317C17.089 17.4654 7.86936 17.4654 2.2031 23.1317L2.0332 22.9618C7.79279 17.2022 17.1632 17.2022 22.9228 22.9618C25.7128 25.7518 27.249 29.4608 27.249 33.4066C27.249 37.3524 25.7128 41.0613 22.9228 43.8513H22.9251Z" fill="#FFCE00"/>
<path d="M23.5234 44.4521L23.3535 44.2822C29.35 38.2857 29.35 28.5277 23.3535 22.5312C17.357 16.5347 7.59898 16.5347 1.60251 22.5312L1.43262 22.3613C7.52241 16.2715 17.4312 16.2715 23.521 22.3613C29.6108 28.4511 29.6108 38.3599 23.521 44.4497L23.5234 44.4521Z" fill="#FFCE00"/>
<path d="M11.413 13.7711C8.64211 13.7711 5.90708 12.5005 4.14355 10.1005L4.33738 9.95929C5.72284 11.8472 7.76154 13.0796 10.0778 13.4337C12.3917 13.7878 14.7056 13.2183 16.5935 11.8329C18.4815 10.4474 19.7138 8.40872 20.068 6.09245C20.4221 3.77856 19.8526 1.46468 18.4671 -0.423275L18.661 -0.564453C20.0847 1.37375 20.6709 3.74985 20.3072 6.12834C19.9435 8.50683 18.6753 10.6006 16.7371 12.0243C15.1339 13.2016 13.2675 13.7687 11.4154 13.7687L11.413 13.7711Z" fill="#26B7EF"/>
<path d="M11.4206 14.5294C10.9252 14.5294 10.4251 14.4911 9.92503 14.4145C7.34794 14.0197 5.07952 12.6462 3.53613 10.5477L3.72995 10.4065C5.23506 12.4548 7.44844 13.7948 9.96332 14.18C12.4758 14.5629 14.9883 13.9455 17.039 12.4404C19.0872 10.9353 20.4272 8.72194 20.8125 6.20706C21.1977 3.69457 20.578 1.18208 19.0729 -0.868588L19.2667 -1.00977C20.8101 1.09115 21.4442 3.66586 21.0494 6.24296C20.6546 8.82005 19.2811 11.0885 17.1801 12.6319C15.486 13.8761 13.4856 14.5294 11.423 14.5294H11.4206Z" fill="#26B7EF"/>
<path d="M11.4738 15.2877C10.9426 15.2877 10.409 15.247 9.87543 15.1656C7.11887 14.7445 4.69013 13.2753 3.03906 11.0284L3.23288 10.8872C4.84566 13.0838 7.21937 14.5196 9.91132 14.9311C12.6057 15.3427 15.2976 14.6799 17.4943 13.0671C19.6909 11.4543 21.1266 9.08061 21.5382 6.38866C21.9497 3.69432 21.2869 1.00236 19.6741 -1.19427L19.868 -1.33545C23.2778 3.30428 22.2776 9.85111 17.6378 13.2609C15.8264 14.5913 13.6848 15.2901 11.4762 15.2901L11.4738 15.2877Z" fill="#26B7EF"/>
<path d="M11.4728 16.1854C10.8961 16.1854 10.317 16.1423 9.73555 16.0538C6.7421 15.5967 4.10518 14.0007 2.31055 11.56L2.50437 11.4188C4.26072 13.8093 6.8402 15.3694 9.77144 15.8193C12.7027 16.2667 15.6315 15.5465 18.022 13.7901C20.4124 12.0338 21.9726 9.4543 22.4224 6.52306C22.8723 3.59183 22.1496 0.66298 20.3933 -1.72747L20.5871 -1.86865C22.3818 0.572052 23.1164 3.5655 22.6593 6.55896C22.2023 9.55241 20.6063 12.1893 18.1656 13.984C16.1986 15.4292 13.8704 16.1878 11.4752 16.1878L11.4728 16.1854Z" fill="#26B7EF"/>
<path d="M11.4757 17.0225C10.8559 17.0225 10.2338 16.9747 9.61164 16.8814C6.39565 16.3908 3.56491 14.6752 1.63867 12.055L1.83249 11.9138C3.72045 14.4837 6.49615 16.1635 9.64753 16.6445C12.7989 17.1254 15.9503 16.3525 18.5202 14.4622C21.0901 12.5742 22.7699 9.79854 23.2509 6.64716C23.7318 3.49578 22.9589 0.344396 21.0686 -2.22552L21.2624 -2.3667C23.1887 0.253468 23.9783 3.46706 23.4878 6.68305C22.9972 9.89903 21.2816 12.7298 18.6614 14.656C16.5485 16.209 14.0504 17.0225 11.4781 17.0225H11.4757Z" fill="#26B7EF"/>
<path d="M11.4658 17.8696C7.45776 17.8696 3.49999 16.0319 0.949219 12.5599L1.14304 12.4187C3.64596 15.8261 7.53194 17.6303 11.4682 17.6303C14.0979 17.6303 16.7492 16.8239 19.0272 15.1513C24.7102 10.9734 25.9377 2.95261 21.7598 -2.7304L21.9536 -2.87158C26.2081 2.91911 24.959 11.0907 19.1707 15.3452C16.8521 17.0489 14.1506 17.8696 11.4706 17.8696H11.4658Z" fill="#26B7EF"/>
<path d="M11.4807 18.7405C10.7748 18.7405 10.0641 18.6879 9.35346 18.5778C5.68523 18.0179 2.45489 16.0605 0.255859 13.0719L0.449681 12.9307C2.61042 15.8691 5.78334 17.7906 9.38936 18.3433C12.9954 18.8937 16.599 18.0083 19.5374 15.8476C25.6033 11.3897 26.9122 2.8257 22.4543 -3.24017L22.6481 -3.38135C27.185 2.7922 25.8521 11.5046 19.6786 16.0414C17.269 17.8121 14.4167 18.7429 11.4807 18.7429V18.7405Z" fill="#26B7EF"/>
<path d="M11.4804 19.6189C10.7291 19.6189 9.97295 19.5614 9.21681 19.4466C5.31647 18.8508 1.88273 16.7714 -0.455078 13.5913L-0.261256 13.4501C2.03827 16.5775 5.41697 18.6234 9.2527 19.2097C13.0884 19.7959 16.9266 18.8531 20.054 16.5536C23.1815 14.2541 25.2274 10.8754 25.8136 7.03966C26.3998 3.20153 25.4571 -0.634203 23.1575 -3.76165L23.3514 -3.90283C25.6868 -0.722738 26.6463 3.17521 26.0505 7.07555C25.4547 10.9759 23.3753 14.4096 20.1952 16.7474C17.6325 18.6306 14.6007 19.6189 11.4781 19.6189H11.4804Z" fill="#26B7EF"/>
<path d="M11.4708 20.4588C6.66592 20.4588 1.9209 18.255 -1.13477 14.0938L-0.940946 13.9527C2.06926 18.0492 6.74249 20.2195 11.4731 20.2195C14.6365 20.2195 17.8238 19.2504 20.5612 17.238C27.3952 12.2154 28.8691 2.56988 23.8466 -4.2641L24.0404 -4.40527C26.5098 -1.04332 27.5244 3.07955 26.895 7.20243C26.2657 11.3253 24.0667 14.9576 20.7048 17.4295C17.9243 19.4729 14.6867 20.4564 11.4755 20.4564L11.4708 20.4588Z" fill="#26B7EF"/>
<path d="M18.2426 39.1708L18.0727 39.0009C19.5682 37.5054 20.389 35.5193 20.389 33.4064C20.389 31.2936 19.5658 29.3051 18.0727 27.812C14.9883 24.7276 9.96814 24.7276 6.88376 27.812L6.71387 27.6421C9.89157 24.4644 15.0625 24.4644 18.2402 27.6421C21.4179 30.8198 21.4179 35.9907 18.2402 39.1684L18.2426 39.1708Z" fill="#FFCE00"/>
</g>
<circle cx="21" cy="21" r="20.5" stroke="black" stroke-opacity="0.04"/>
</svg>
