<svg width="42" height="42" viewBox="0 0 42 42" fill="none" xmlns="http://www.w3.org/2000/svg">
<circle cx="21" cy="21" r="21" fill="white"/>
<circle cx="21" cy="21" r="20.5" stroke="black" stroke-opacity="0.05"/>
<g clip-path="url(#clip0_9_318145)">
<path d="M21.3747 16.2889C19.4673 14.248 16.4537 14.248 14.2221 14.248C13.154 14.248 12.0286 14.248 11.4755 14.248C10.9223 14.248 9.83515 14.248 8.90055 14.248C8.63352 14.248 8.5 14.248 8.5 14.4197C8.5 14.5914 8.61444 14.5723 8.80518 14.5723C9.03986 14.5493 9.27622 14.5493 9.5109 14.5723C10.0831 14.6867 10.2357 14.9728 10.2738 15.5832C10.312 16.1936 10.2738 16.6513 10.2738 19.3979V22.5451C10.2738 24.1854 10.2738 25.5968 10.2738 26.3598C10.2738 27.1227 10.1213 27.2753 9.75886 27.3516C9.54291 27.3653 9.3263 27.3653 9.11035 27.3516C8.90054 27.3516 8.82425 27.3516 8.82425 27.5042C8.82425 27.6568 8.95777 27.6758 9.18665 27.6758H10.4264H11.4373C11.876 27.6758 12.5055 27.6758 13.1921 27.7903C13.8787 27.9047 14.6035 27.9047 15.233 27.9047C16.3223 27.9721 17.414 27.8194 18.443 27.4557C19.472 27.0919 20.4171 26.5246 21.2221 25.7876C22.4878 24.4436 23.1731 22.655 23.1294 20.8094C23.1633 19.1301 22.5326 17.5055 21.3747 16.2889ZM19.2193 25.8257C18.0576 26.7708 16.5716 27.2228 15.0804 27.0846C13.6689 27.0846 12.9632 26.7031 12.7343 26.3598C12.5897 25.9235 12.5251 25.4648 12.5436 25.0055C12.5436 24.6622 12.5436 23.2889 12.5436 21.4006V19.15C12.5436 17.7385 12.5436 16.1745 12.5436 15.5641C12.531 15.4912 12.5453 15.4162 12.5839 15.353C12.6225 15.2898 12.6827 15.2428 12.7534 15.2208C13.1336 15.1249 13.5249 15.08 13.9169 15.0873C15.7788 14.9893 17.6035 15.6341 18.9905 16.8802C19.5641 17.469 20.0121 18.1682 20.3072 18.9355C20.6023 19.7027 20.7383 20.522 20.7071 21.3434C20.7868 22.1472 20.6955 22.9588 20.4391 23.7248C20.1826 24.4908 19.767 25.1938 19.2193 25.7876V25.8257Z" fill="#1D1D1B"/>
<path d="M26.0479 27.5421C25.7618 27.4086 25.7046 27.3323 25.7046 26.9318C25.7046 25.959 25.7046 24.8718 25.7046 24.5857C25.7046 24.2996 25.7046 24.1279 25.9144 24.1279C26.1242 24.1279 26.0861 24.2805 26.0861 24.4331C26.1037 24.7444 26.1614 25.0521 26.2577 25.3487C26.4106 25.897 26.7488 26.3755 27.2149 26.7024C27.6809 27.0293 28.2459 27.1845 28.8136 27.1416C29.1043 27.1731 29.3984 27.1451 29.678 27.0593C29.9576 26.9736 30.2168 26.8318 30.4398 26.6427C30.6629 26.4535 30.8451 26.221 30.9754 25.9592C31.1057 25.6973 31.1814 25.4118 31.1978 25.1198C31.1978 24.2424 30.9307 23.4222 29.4621 22.2587L28.7182 21.5721C27.966 21.1362 27.3324 20.522 26.8734 19.7836C26.4144 19.0452 26.144 18.2053 26.0861 17.3378C26.0861 15.4304 27.7264 13.9617 30.206 13.9617C31.0112 13.9491 31.8141 14.0518 32.5902 14.2669C32.7427 14.2669 32.8381 14.2669 32.8381 14.4767C32.8381 14.6865 32.8381 15.2206 32.8381 16.632C32.8381 17.0135 32.8381 17.1661 32.6474 17.1661C32.4566 17.1661 32.4566 17.0517 32.4566 16.8418C32.4322 16.4093 32.272 15.9955 31.9989 15.6593C31.7762 15.369 31.4861 15.1374 31.1538 14.9846C30.8214 14.8317 30.4568 14.7621 30.0915 14.7819C29.824 14.7523 29.5532 14.7796 29.297 14.8621C29.0408 14.9446 28.805 15.0804 28.605 15.2606C28.405 15.4407 28.2455 15.6612 28.1368 15.9074C28.0281 16.1537 27.9727 16.4201 27.9743 16.6893C27.9743 17.5094 28.3749 18.1198 29.8817 19.2451L30.3395 19.6647C32.4948 21.286 33.2768 22.5258 33.2768 24.2233C33.269 24.8443 33.1018 25.4528 32.7912 25.9905C32.4805 26.5283 32.037 26.9772 31.503 27.2942C30.6451 27.8041 29.6583 28.0557 28.661 28.019C27.7655 28.0538 26.8734 27.891 26.0479 27.5421Z" fill="#1D1D1B"/>
</g>
<defs>
<clipPath id="clip0_9_318145">
<rect width="24.6812" height="14" fill="white" transform="translate(8.5 14)"/>
</clipPath>
</defs>
</svg>
