<svg width="42" height="42" viewBox="0 0 42 42" fill="none" xmlns="http://www.w3.org/2000/svg">
<circle cx="21" cy="21" r="21" fill="#776C61"/>
<circle cx="21" cy="21" r="20.5" stroke="black" stroke-opacity="0.05"/>
<path fill-rule="evenodd" clip-rule="evenodd" d="M32.4049 21.7185C31.697 21.0057 30.7114 20.6972 29.3936 20.7747C28.2964 20.8424 27.426 21.2814 26.7616 21.6891C26.7616 21.6789 26.7607 21.6687 26.7607 21.6588C26.7607 21.3121 26.7994 20.9363 26.8384 20.5709C26.8761 20.1998 26.9158 19.8223 26.9158 19.4653C26.9158 19.1006 26.8752 18.7547 26.7506 18.4592C26.7192 18.3833 26.65 18.3382 26.5623 18.3382C26.2081 18.346 25.5157 18.5909 25.3479 18.7393L25.2565 18.941C25.251 19.3372 25.1642 20.4429 25.0765 20.5774C25.0802 20.5723 25.0304 20.7105 25.0304 20.7105C24.8809 22.2897 24.8782 23.6784 25.0157 24.8707C25.0314 24.9898 25.2593 25.1686 25.4346 25.2339C25.6275 25.3056 26.2301 25.1426 26.578 25.0108C26.5734 25.0122 26.7082 24.9898 26.7082 24.9898C26.8179 24.9778 26.8825 24.8847 26.8779 24.758C26.8761 24.7553 26.8862 24.4149 26.8862 24.4149C27.1373 23.3861 28.1523 22.1579 29.3539 21.9736C30.0331 21.8651 30.5693 22.0412 30.9928 22.5067C31.05 22.5905 31.1737 23.3311 30.7262 24.1816C30.393 24.8115 29.7267 25.3428 28.8499 25.6743C28.0203 25.9927 27.1077 26.1207 25.98 26.0821C25.933 26.0513 24.9244 25.3619 24.9244 25.3619C24.03 24.7287 22.9191 23.9401 21.9123 23.555C21.7351 23.4861 21.4184 23.2208 21.2274 23.0615L21.1232 22.9754C20.5427 22.5056 19.4372 21.7618 18.5494 21.1659C18.5494 21.1659 18.1489 20.8944 18.0714 20.8424C18.0723 20.8088 18.0723 20.7408 18.0723 20.7408C18.0981 20.7124 18.6564 20.3749 18.6564 20.3749C19.4372 19.914 19.7981 19.6882 19.8747 19.5713C19.8589 19.59 19.9779 19.5094 19.9779 19.5094C19.9852 19.5061 21.914 18.4042 21.914 18.4042C23.7725 17.3744 25.8776 16.205 26.9831 15.05C26.985 15.0484 27.0377 14.8731 27.0377 14.8731L27.0615 14.7162C27.1354 14.4689 27.1392 14.2799 27.0773 14.0601C27.0615 13.9973 27.0043 13.9246 26.9278 13.9112C26.064 13.8241 24.9511 14.3465 23.9368 15.306C23.7081 15.522 23.5161 15.6286 23.313 15.7394L23.158 15.8269C22.0404 16.4679 19.523 18.0448 18.2043 18.8953C18.291 17.4652 18.5531 15.4312 18.876 13.7357L18.8402 13.5331C18.8364 13.5262 18.7036 13.2766 18.7036 13.2766L18.6011 13.0932L18.5715 13.0853C18.3084 12.9512 18.0935 13.0056 17.9357 13.0452L17.6727 13.1434L17.3211 13.272C17.2519 13.2859 17.2031 13.3293 17.1762 13.3968C16.547 14.9317 16.0218 17.4568 15.8972 19.4764C14.6394 18.6691 13.4767 18.0885 12.9063 17.8084L12.8907 17.7994L12.8233 17.7846C12.6175 17.758 12.3673 17.6058 12.1274 17.4586C12.1017 17.4433 11.6486 17.1457 11.6486 17.1457L10.9177 16.6733C10.9232 16.678 10.7248 16.6291 10.7248 16.6291C10.411 16.6835 9.80834 17.0922 9.62936 17.3711C9.60632 17.408 9.5961 17.4475 9.5961 17.4894C9.5961 17.5481 9.61464 17.6072 9.62936 17.6644L9.66166 17.8144L9.69574 17.9046C10.0465 18.2669 10.9305 18.8707 11.7971 19.3409L12.8021 19.8781L14.3405 20.7259C14.3405 20.7329 14.6025 20.9363 14.6025 20.9363L14.7834 21.0411C14.7834 21.0411 14.8046 21.0537 14.8166 21.0615C14.4069 21.3386 12.0185 22.9471 12.0185 22.9471L10.5476 23.9308C10.4083 24.0262 9.82783 24.2888 9.69956 24.3405C9.38113 24.4717 9.13931 24.6729 9.03967 24.8912L9 24.9768L9.03967 25.0337L9.15226 25.1197C9.14667 25.1197 9.30275 25.2189 9.30275 25.2189L9.4651 25.3311C9.46878 25.3325 9.61818 25.3558 9.61818 25.3558C9.87663 25.3661 10.2597 25.2171 10.9757 24.9005C11.6338 24.6067 13.4204 23.5187 14.1844 23.0547L14.5102 22.8577C14.6449 22.8688 14.7925 22.7539 14.9255 22.6533C15.0788 22.53 15.4118 22.3232 15.6149 22.2329C15.6213 22.231 15.7366 22.1659 15.8465 22.1044C15.8455 22.1384 15.8446 22.1924 15.8446 22.1924C15.8788 24.5505 16.0125 26.2642 16.2682 27.5853L16.2719 27.6082L16.2969 27.6613C16.4224 27.8475 16.5653 28.4062 16.6927 28.8987L16.9835 29.8829C16.9899 29.8944 17.0655 29.975 17.0655 29.975C17.2316 30.089 17.7382 30.285 18.0759 30.2446L18.1601 30.2343L18.2134 30.1146C18.242 29.9676 18.2523 29.8228 18.2523 29.6635C18.2523 29.4839 18.2393 29.286 18.2236 29.0429L18.2005 28.6882C18.0935 27.0425 17.9865 24.6663 17.9865 23.0863V22.9606C18.2643 23.1357 19.4759 23.9065 19.4759 23.9065C21.5395 25.2571 24.6557 27.2972 26.5392 27.8363C26.637 27.8665 26.7405 27.8432 26.8125 27.7734C26.8152 27.7696 27.1021 27.5858 27.1021 27.5858L27.1567 27.5635C27.2646 27.5112 27.3366 27.3279 27.3495 27.1286C28.9368 27.0481 31.1505 26.4311 32.3356 24.9284C32.7942 24.3456 33 23.6323 33 23.0219C33 22.521 32.8625 22.0896 32.6125 21.852L32.4049 21.7185Z" fill="#FCAF16"/>
</svg>
