<svg width="42" height="42" viewBox="0 0 42 42" fill="none" xmlns="http://www.w3.org/2000/svg">
<circle cx="21" cy="21" r="21" fill="#0853AE"/>
<circle cx="21" cy="21" r="20.5" stroke="black" stroke-opacity="0.05"/>
<g clip-path="url(#clip0_9_318171)">
<path d="M24.5377 21.412V21.5728C24.5377 22.5778 24.5377 23.6633 24.5377 24.7085C24.5414 25.0453 24.5716 25.3814 24.6281 25.7135C24.6652 25.9331 24.7741 26.1342 24.9378 26.2852C25.1015 26.4361 25.3108 26.5285 25.5327 26.5476C25.7035 26.5476 25.8844 26.5476 26.0553 26.5476H26.2261V26.9798H15.8744V26.5577H16.0251C16.2563 26.5577 16.4774 26.5577 16.6985 26.5577C16.8278 26.5423 16.9536 26.5049 17.0703 26.4472C17.1571 26.4005 17.2326 26.3353 17.2915 26.2562C17.3363 26.2108 17.3662 26.1527 17.377 26.0898C17.3878 26.0269 17.3789 25.9622 17.3518 25.9044C17.2965 25.7453 17.2223 25.5935 17.1306 25.4522C16.9095 25.1406 16.6885 24.829 16.4372 24.5376C15.593 23.5326 14.7286 22.5275 13.8744 21.5225L13.7136 21.3416L13.6231 21.422L12.6784 22.4271C12.6276 22.4818 12.599 22.5534 12.598 22.6281V25.5829C12.5841 25.7842 12.6436 25.9837 12.7656 26.1444C12.8876 26.3052 13.0637 26.4164 13.2613 26.4572C13.5565 26.5417 13.8596 26.5955 14.1658 26.618H14.3568V27.0501H9V26.618H9.24121C9.47237 26.618 9.71357 26.618 9.94473 26.5577C10.1413 26.5163 10.3244 26.4265 10.4774 26.2964C10.556 26.2295 10.6192 26.1463 10.6626 26.0526C10.706 25.9589 10.7285 25.8569 10.7286 25.7537V16.9497C10.7271 16.7477 10.7103 16.5461 10.6784 16.3467C10.6399 16.1444 10.5403 15.9588 10.3929 15.815C10.2455 15.6712 10.0575 15.576 9.85428 15.5426C9.65327 15.5426 9.44222 15.5426 9.24121 15.5426H9V15.1406C9.1005 15.1406 14.1759 15.1406 14.3769 15.1406V15.5426H14.0653L13.3116 15.6431C13.2025 15.6683 13.0976 15.7089 13 15.7637C12.9135 15.8057 12.8382 15.8676 12.7805 15.9446C12.7228 16.0215 12.6844 16.1111 12.6684 16.2059C12.634 16.3816 12.6138 16.5597 12.608 16.7386C12.608 18.3969 12.608 20.0652 12.608 21.7637C12.608 21.7637 12.608 21.8241 12.608 21.8743C12.6275 21.8812 12.6488 21.8812 12.6684 21.8743C13.6734 20.7989 14.6784 19.7537 15.6131 18.5979C16.0005 18.1248 16.3628 17.6316 16.6985 17.1205C16.8455 16.9053 16.9354 16.6564 16.9598 16.3969C16.9598 15.9647 16.8693 15.7838 16.4774 15.6833L16.0854 15.623H15.7035V15.2512C15.8141 15.2512 19.5427 15.2512 19.7236 15.2512V15.6532H19.3719C19.0843 15.6411 18.8021 15.7339 18.5779 15.9145C18.4166 16.0324 18.2683 16.1671 18.1357 16.3165L15.0603 20.0954L14.99 20.1959L15.0804 20.3165L19.4322 25.4522C19.6332 25.6934 19.8442 25.9246 20.0653 26.1457C20.208 26.2802 20.3627 26.4013 20.5276 26.5075C20.7589 26.68 21.0436 26.7654 21.3317 26.7487H21.8945C22.0156 26.7373 22.1327 26.6988 22.2371 26.6362C22.3414 26.5736 22.4304 26.4884 22.4975 26.3869C22.6764 26.1496 22.7718 25.8599 22.7688 25.5627C22.7688 25.1708 22.7688 24.7888 22.7688 24.3969V17.0602C22.7707 16.8286 22.7368 16.5981 22.6683 16.3768C22.6026 16.182 22.4788 16.012 22.3134 15.8898C22.1481 15.7676 21.9492 15.699 21.7437 15.6934H21.0804V15.2813H26.99C27.6812 15.279 28.3655 15.4192 29 15.6934C29.4864 15.9074 29.9014 16.2561 30.196 16.6984C30.4312 17.0481 30.5699 17.4537 30.598 17.8743C30.642 18.3446 30.5942 18.8191 30.4573 19.2713C30.2885 19.7685 29.9775 20.2053 29.5628 20.5275C29.0604 20.9175 28.4763 21.1889 27.8543 21.3215L27.3719 21.4422C27.401 21.4917 27.4384 21.5358 27.4824 21.5728C28.7152 23.02 29.9581 24.4606 31.2111 25.8944L31.5729 26.2964C31.8714 26.5811 32.2504 26.7671 32.6583 26.8291H32.9196C32.9454 26.972 32.9454 27.1183 32.9196 27.2612H30.0955C30.0554 27.2609 30.0161 27.2507 29.981 27.2314C29.9459 27.2121 29.9162 27.1844 29.8945 27.1507L26.99 23.5627L25.6131 21.8642C25.5452 21.7755 25.4498 21.7118 25.3417 21.6833C25.0878 21.5554 24.8172 21.4641 24.5377 21.412ZM24.5377 20.8994H25.9246C26.1704 20.8993 26.4158 20.8791 26.6583 20.8391C27.0624 20.8002 27.4435 20.6328 27.7455 20.3615C28.0476 20.0902 28.2548 19.7292 28.3367 19.3316C28.457 18.8319 28.4977 18.3163 28.4573 17.8039C28.4379 17.4584 28.3466 17.1209 28.1891 16.8128C28.0316 16.5047 27.8114 16.233 27.5427 16.015C27.2564 15.7735 26.9083 15.6169 26.5377 15.5627C26.3367 15.5627 26.1256 15.5627 25.9246 15.5627H24.9196C24.838 15.5547 24.7563 15.5755 24.6884 15.6214C24.6205 15.6672 24.5708 15.7353 24.5477 15.814C24.5374 15.8705 24.5374 15.9283 24.5477 15.9848V20.9296L24.5377 20.8994Z" fill="white"/>
</g>
<defs>
<clipPath id="clip0_9_318171">
<rect width="23.8794" height="12" fill="white" transform="translate(9 15)"/>
</clipPath>
</defs>
</svg>
