<svg width="42" height="42" viewBox="0 0 42 42" fill="none" xmlns="http://www.w3.org/2000/svg">
<circle cx="21" cy="21" r="21" fill="#EA002C"/>
<circle cx="21" cy="21" r="20.5" stroke="black" stroke-opacity="0.05"/>
<path d="M15.3876 23.2109C14.7452 22.9121 14.2223 22.6693 14.2223 22.18C14.2223 21.8065 14.5211 21.5339 15.1112 21.5339C15.3057 21.5354 15.4995 21.5554 15.6902 21.5936C15.7836 21.6124 15.8787 21.6224 15.974 21.6235C16.4894 21.6235 16.7808 21.3172 16.975 20.7346L17.0534 20.4955C16.4109 20.2321 15.7235 20.0951 15.0291 20.0922C13.2811 20.0922 12.3586 21.2127 12.3586 22.378C12.3411 22.8705 12.509 23.3516 12.8292 23.7263C13.2247 24.1353 13.6985 24.4604 14.2223 24.6824C14.9432 25.0335 15.593 25.295 15.593 25.8216C15.593 26.2847 15.115 26.5499 14.4726 26.5499C13.8484 26.5148 13.245 26.3136 12.7246 25.9673L12 27.3343C12.7872 27.7881 13.6836 28.018 14.5921 27.9991C16.2243 27.9991 17.4605 27.0616 17.4605 25.6237C17.4605 24.1857 16.3027 23.6591 15.3876 23.2109Z" fill="white"/>
<path d="M21.7664 23.8794L24.7283 20.249H22.618L20.2575 23.3827H20.2239V20.249H18.4834V27.9393H18.588C19.335 27.9393 20.2351 27.592 20.2351 26.3333V24.5704H20.2687L22.6778 27.8348H24.8926L21.7664 23.8794Z" fill="white"/>
<path d="M24.8261 12.0132C24.2173 12.129 23.3097 12.6855 23.3097 13.6678C23.3097 14.5604 24.0567 15.102 24.0567 16.2823C24.0562 16.6445 23.9608 17.0004 23.7799 17.3143C23.599 17.6282 23.3391 17.8892 23.0259 18.0713C23.235 18.0526 23.4703 18.0377 23.7243 18.0377C24.0178 18.0339 24.3111 18.0513 24.602 18.09L27.3472 14.7285C26.6605 13.692 25.8089 12.7748 24.8261 12.0132Z" fill="white"/>
<path d="M27.1342 21.1116C27.4816 20.5738 27.5077 19.7185 27.5525 18.8445C27.5862 18.0303 27.7542 17.4177 28.8448 17.414C29.0876 17.414 29.3154 17.4439 29.7338 17.4439C30.8923 17.4403 32.0281 17.1228 33.0205 16.5251C31.3268 15.4346 29.3744 14.8122 27.3621 14.7211C27.2052 15.1618 25.9913 18.5419 25.8979 18.8295C26.0825 19.0493 26.2462 19.2856 26.3872 19.5354C26.6924 20.0324 26.9428 20.5608 27.1342 21.1116Z" fill="white"/>
<path d="M21.3335 18.3515C21.1953 18.3515 21.1281 18.2618 21.1094 18.1012C21.0907 17.9406 20.411 11.6584 20.3027 10.7097C20.3027 10.5678 20.2504 10.3138 20.2504 10.2241C20.2477 10.1953 20.2512 10.1663 20.2606 10.1389C20.27 10.1115 20.285 10.0864 20.3048 10.0653C20.3245 10.0441 20.3485 10.0274 20.3752 10.0161C20.4018 10.0049 20.4306 9.9994 20.4595 10.0001C20.7845 10.0001 22.5586 10.4146 24.4373 11.7331C24.0169 11.8391 23.642 12.0783 23.3687 12.4148C23.0954 12.7514 22.9383 13.1674 22.9209 13.6006C22.9209 14.6314 23.6679 15.2029 23.6679 16.2375C23.6753 17.9443 21.7369 18.3515 21.3335 18.3515Z" fill="white"/>
<path d="M27.2905 21.5598C27.3143 21.6254 27.343 21.689 27.3764 21.7503C27.3917 21.7821 27.4154 21.8091 27.4451 21.8283C27.4748 21.8474 27.5092 21.8579 27.5445 21.8586C27.599 21.8556 27.6524 21.8416 27.7014 21.8175L34.4467 18.6801C34.57 18.6204 34.8202 18.5158 34.8875 18.471C34.9216 18.4539 34.9505 18.4279 34.9709 18.3956C34.9913 18.3634 35.0025 18.3261 35.0032 18.288C35.0031 18.2487 34.9928 18.2101 34.9734 18.1759C34.5173 17.6287 33.9808 17.1539 33.3823 16.7678C32.2979 17.4296 31.0557 17.7882 29.7855 17.8061C29.3672 17.8061 29.2701 17.78 28.9862 17.78C28.1496 17.78 27.9404 18.1535 27.9105 18.8706C27.9105 19.0088 27.9105 19.1956 27.9105 19.401C27.8807 20.0546 27.791 20.9585 27.2905 21.5598Z" fill="white"/>
</svg>
