<svg width="42" height="42" viewBox="0 0 42 42" fill="none" xmlns="http://www.w3.org/2000/svg">
<circle cx="21" cy="21" r="21" fill="black"/>
<circle cx="21" cy="21" r="20.5" stroke="black" stroke-opacity="0.05"/>
<g clip-path="url(#clip0_9_318183)">
<path d="M21.6137 10C15.2089 10 10 14.9361 10 21.0157C10 27.0954 15.2089 32.0315 21.6137 32.0315C28.0186 32.0315 33.2327 27.0639 33.2327 21C33.2327 14.9361 28.0186 10 21.6137 10ZM19.6781 16.0482C18.7519 16.4979 17.9734 17.2029 17.4344 18.0802C16.8954 18.9575 16.6182 19.9705 16.6357 21C16.631 21.7337 16.7718 22.461 17.0501 23.1399C17.3283 23.8188 17.7384 24.4358 18.2566 24.9552C17.5313 24.5326 16.9264 23.9313 16.4994 23.2087C16.0724 22.486 15.8376 21.666 15.8174 20.8269C15.8174 18.6237 17.433 16.7511 19.6781 16.0482ZM21.6137 16.1531C24.0739 16.1531 26.0725 18.3248 26.0725 21C26.0725 23.6753 24.0739 25.8522 21.6137 25.8522C19.1536 25.8522 17.1602 23.6753 17.1602 21.0052C17.1602 18.3352 19.1588 16.1531 21.6137 16.1531ZM24.9762 24.9499C25.4937 24.4312 25.9034 23.815 26.1816 23.1371C26.4598 22.4591 26.601 21.7328 26.597 21C26.6135 19.9714 26.3359 18.9595 25.7969 18.0832C25.258 17.2069 24.48 16.5027 23.5546 16.0534C25.7997 16.7511 27.4101 18.6237 27.4101 20.8269C27.3915 21.6651 27.1579 22.4844 26.7317 23.2064C26.3055 23.9283 25.701 24.5287 24.9762 24.9499ZM10.5246 21C10.5393 19.3615 10.946 17.7503 11.7107 16.3011C12.4755 14.8519 13.576 13.6069 14.9204 12.67C13.7539 13.6916 12.8119 14.9439 12.1538 16.3478C11.4956 17.7517 11.1355 19.2768 11.0963 20.8269C11.0963 24.1683 12.9008 27.6462 15.6495 29.8178C14.1059 28.9165 12.8223 27.6303 11.9241 26.0848C11.0259 24.5394 10.5437 22.7874 10.5246 21ZM27.578 29.8178C30.3267 27.6462 32.1311 24.1683 32.1311 20.8269C32.093 19.2764 31.734 17.7506 31.0767 16.3458C30.4194 14.941 29.4782 13.6876 28.3124 12.6648C29.6568 13.6028 30.7573 14.8488 31.522 16.2988C32.2867 17.7488 32.6934 19.3608 32.7082 21C32.688 22.7878 32.2048 24.5399 31.3057 26.0853C30.4066 27.6307 29.1222 28.9167 27.578 29.8178Z" fill="white"/>
</g>
<defs>
<clipPath id="clip0_9_318183">
<rect width="23.2327" height="22" fill="white" transform="translate(10 10)"/>
</clipPath>
</defs>
</svg>
