<svg width="42" height="42" viewBox="0 0 42 42" fill="none" xmlns="http://www.w3.org/2000/svg">
<circle cx="21" cy="21" r="21" fill="#EF8200"/>
<circle cx="21" cy="21" r="20.5" stroke="black" stroke-opacity="0.05"/>
<g clip-path="url(#clip0_9_317761)">
<path fill-rule="evenodd" clip-rule="evenodd" d="M13.6358 22.1906C13.6618 22.3304 13.8227 23.2859 14.0079 24.373C13.0427 24.2007 12.3455 23.9911 12.3455 23.9911L11.1447 25.1172C12.1863 25.2375 13.1954 25.3187 14.1737 25.3691C14.8334 25.4049 15.4639 25.426 16.083 25.4341C16.1155 25.4374 16.148 25.4374 16.1757 25.4374H16.4405L16.7005 25.4406H16.7542C17.5179 25.4406 18.2589 25.4211 18.9723 25.387L19.4159 25.3642L19.4354 25.3626L19.8563 25.3366L19.8839 25.3334L20.2885 25.3057L20.3275 25.3025C20.4592 25.2911 20.5892 25.2814 20.7175 25.2684C21.582 25.1952 22.3913 25.0977 23.1632 24.9856C23.1713 24.9856 23.1794 24.9856 23.1892 24.9824C23.3338 24.9612 23.4752 24.9418 23.6165 24.9174C23.6458 24.9109 23.6734 24.9092 23.7027 24.9044C23.8392 24.8816 23.9757 24.8605 24.1089 24.8361C24.1235 24.8361 24.1382 24.8329 24.1512 24.8296C24.8662 24.7077 25.5438 24.5696 26.1792 24.4283L26.2653 24.4087L26.3579 24.3876L26.4489 24.3665L26.8064 24.2804L26.9624 24.243L27.1737 24.1861L27.3102 24.1504L27.5247 24.0967L27.6433 24.0642C27.8919 23.996 28.1275 23.9278 28.3599 23.8595L28.4477 23.8351L28.6589 23.7701L28.7402 23.7441C28.9092 23.6921 29.0733 23.6434 29.2309 23.5881L29.6534 23.4467C31.0217 22.9755 31.9902 22.5237 32.5297 22.2248C32.4777 22.5741 32.3672 23.346 32.3347 23.5897H31.1972L30.5894 27.8147H29.0164L29.1854 26.635L29.2715 26.0337L29.3625 25.4065L29.4487 24.8052L29.5819 23.8693C28.706 24.191 28.0333 24.3941 28.0333 24.3941C28.0333 24.3941 27.8952 24.4461 27.6238 24.5306L27.5588 24.9694L27.497 25.4016L27.4743 25.5609H25.4772L25.3293 26.6009H27.5295L27.3573 27.8147H23.7222L24.078 25.3252C23.8587 25.3626 23.6295 25.3984 23.3874 25.4292C23.4605 25.6762 23.4735 25.9492 23.4215 26.2547C23.3403 26.7991 23.0738 27.2525 22.6513 27.5645C22.1719 27.9204 21.5219 28.0682 20.867 27.9707C20.2187 27.8781 19.606 27.5645 19.0389 27.0477L19.32 26.5895L19.5605 26.1946L19.7669 25.8582C20.074 26.1605 20.4575 26.5245 20.9369 26.6074C21.14 26.6431 21.4325 26.6756 21.6357 26.531C21.7397 26.4595 21.8063 26.3555 21.8307 26.2287C21.8339 26.1946 21.8372 26.1605 21.8372 26.1247C21.8372 25.9411 21.7413 25.7819 21.5577 25.647C20.9922 25.6957 20.1114 25.7607 19.0487 25.8062C19.0568 25.9476 19.0454 26.0955 19.0194 26.2547C18.9382 26.7991 18.6749 27.2525 18.2524 27.5645C17.7714 27.9204 17.1214 28.0682 16.4649 27.9707C15.8165 27.8781 15.2055 27.5645 14.6384 27.0477L15.3664 25.8582C15.6752 26.1605 16.0554 26.5245 16.5364 26.6074C16.7395 26.6431 17.032 26.6756 17.2384 26.531C17.3392 26.4595 17.4042 26.3555 17.4269 26.2287C17.4334 26.1946 17.4367 26.1605 17.4367 26.1247C17.4367 26.0272 17.4107 25.9395 17.3603 25.8566C16.369 25.868 15.3079 25.8582 14.2468 25.7997C14.4158 26.7845 14.5588 27.6327 14.588 27.8147H13.1044C13.0703 27.5921 12.9175 26.4172 12.9175 26.4172H11.3429L10.7579 27.8147H9.24666C9.50016 27.2622 11.6484 22.423 11.7557 22.1906H13.6358ZM16.1708 22.3791C16.6355 22.0265 17.2985 21.8802 17.9859 21.9826C18.5417 22.0801 18.9154 22.2508 19.3005 22.5676C19.19 22.7756 18.8862 23.3639 18.7269 23.6694C18.3905 23.3817 18.085 23.2095 17.8202 23.1672C17.6089 23.1299 17.4107 23.1689 17.2839 23.2745C17.1799 23.3639 17.1214 23.489 17.1214 23.6369C17.1214 23.9375 17.4302 24.1179 17.5618 24.1926L17.6024 24.2137L17.8738 24.347L17.981 24.4022C18.1647 24.4835 18.3239 24.581 18.4604 24.6866C17.3522 24.6769 16.3869 24.633 15.6849 24.581L15.5858 24.5712C15.498 24.3811 15.4558 24.1634 15.4558 23.9131C15.4558 23.8286 15.4574 23.7425 15.4672 23.6499C15.5322 23.1185 15.7775 22.6797 16.1692 22.3791H16.1708ZM20.5713 22.3791C21.036 22.0265 21.699 21.8819 22.3864 21.9826C22.9422 22.0801 23.3159 22.2491 23.7027 22.5676C23.5889 22.7772 23.2867 23.3622 23.1274 23.6694C22.791 23.3834 22.4855 23.2079 22.2174 23.1656C22.0094 23.1299 21.8128 23.1689 21.6844 23.2745C21.5804 23.3622 21.5219 23.4906 21.5219 23.6369C21.5219 23.9375 21.8307 24.1179 21.9639 24.1926L21.9753 24.1975L22.3848 24.4022C22.479 24.4445 22.5635 24.4932 22.648 24.5404C21.7592 24.6135 20.8768 24.6541 20.0383 24.6736C19.9164 24.4607 19.853 24.2072 19.853 23.9131C19.853 23.8286 19.8595 23.7425 19.8693 23.6515C19.9343 23.1201 20.178 22.6781 20.5713 22.3791ZM28.1048 22.1906L27.9309 23.4029H25.7875L25.677 24.1601C25.2009 24.2463 24.7102 24.3177 24.2162 24.3811L24.2552 24.1114L24.3624 23.3606L24.5298 22.1906H28.1048ZM32.099 22.1906C30.8738 22.7838 29.5543 23.2225 28.459 23.528L28.5143 23.1445L28.5793 22.7009L28.6573 22.1906H32.099ZM39.1857 15C38.2805 18.7424 35.0354 20.7834 33.1293 21.8737L33.0464 21.7616C33.828 21.1246 36.5125 19.1454 37.3705 15.8612L39.1857 15ZM14.2663 15.637L14.0063 17.4407L13.9088 18.133L13.457 21.2611H11.9068L12.716 15.637H14.2663ZM28.9725 15.637C28.9303 15.9506 28.8344 16.6022 28.8003 16.8492H26.6553L26.509 17.8746H28.5078C28.4623 18.1818 28.3778 18.7684 28.3453 19.0072H26.3465L26.1987 20.0472H28.3989C28.3534 20.3625 28.2624 21.0141 28.225 21.2611H24.5932L25.3992 15.637H28.9725ZM7.69641 15.637L8.13841 18.8594C8.13841 18.8594 9.43516 15.8937 9.53591 15.637H11.4859C11.4875 15.975 11.2974 19.5744 11.2438 20.8451L11.2308 21.175V21.2611H9.82678L10.0592 17.3237C10.0592 17.3237 8.47803 21.0125 8.37403 21.2611H7.26416L6.76691 17.3237C6.74578 17.4212 6.57516 18.2776 6.37691 19.2136L6.25666 19.7791C6.13478 20.3414 6.01291 20.8841 5.91866 21.2611H4.51953C4.66578 20.7574 5.73341 15.9262 5.81953 15.637H7.69641ZM23.3419 15.637C23.4004 15.9652 24.2129 20.798 24.2958 21.2611H22.8105C22.7732 21.0401 22.674 20.1236 22.674 20.1236L20.9239 20.1252C20.9239 20.1252 20.542 21.0726 20.4624 21.2627H18.9512C19.2079 20.707 21.3545 15.8694 21.4634 15.6354L23.3419 15.637ZM17.2953 15.637C17.7698 15.637 18.41 15.7264 18.7822 16.157C18.9902 16.3943 19.0909 16.7127 19.0909 17.1092C19.0909 17.2295 19.0828 17.3562 19.0633 17.4911C18.9268 18.5587 18.3889 18.7635 17.6999 18.8919L18.8374 21.2611H17.3327L16.1643 18.5279L16.161 18.5604L15.784 21.1945L15.7727 21.2611H14.3638L14.7213 18.7635L14.8237 18.0534L15.1698 15.637H17.2953ZM22.2353 16.8752L21.348 18.9634H22.5245L22.2369 16.8752H22.2353ZM16.772 16.6932H16.4259L16.2423 17.9867L16.2163 18.1704H16.7119C16.98 18.1655 17.1604 18.0745 17.214 18.0452L17.2303 18.0355C17.513 17.9006 17.5585 17.4716 17.5585 17.4716C17.5943 17.2295 17.552 17.041 17.4367 16.9061C17.2709 16.7176 17.0093 16.6932 16.772 16.6932Z" fill="white"/>
</g>
<defs>
<clipPath id="clip0_9_317761">
<rect width="36" height="13.0001" fill="white" transform="translate(4 15)"/>
</clipPath>
</defs>
</svg>
