<svg width="42" height="42" viewBox="0 0 42 42" fill="none" xmlns="http://www.w3.org/2000/svg">
<circle cx="21" cy="21" r="21" fill="#003DE5"/>
<circle cx="21" cy="21" r="20.5" stroke="black" stroke-opacity="0.05"/>
<path d="M7.66713 18.8543C7.48169 19.2626 7.22857 19.6366 6.91847 19.9605C6.57058 20.3294 6.1731 20.6481 5.73744 20.9075L5 20.0466C5.55296 19.7358 6.0329 19.3101 6.4075 18.7982C6.80144 18.2779 7.01736 17.6446 7.02328 16.992V16.1984H8.2511V16.9733C8.25341 17.5945 8.47102 18.1958 8.86688 18.6746C9.22802 19.1335 9.69056 19.5025 10.2182 19.7527L9.55752 20.6511C8.65163 20.1589 8.05457 19.573 7.66713 18.8543ZM7.01579 21.3324H11.9795V24.956H7.01579V21.3324ZM8.1781 22.3244V23.9715H10.8078V22.3244H8.1781ZM11.9795 20.9918H10.8078V16H11.9795V17.984H13.3514V18.9778H11.9795V20.9918Z" fill="white"/>
<path d="M16.675 19.9511C16.377 19.6841 16.1275 19.3674 15.9376 19.0153C15.7584 19.4081 15.512 19.7666 15.2095 20.0746C14.8519 20.4514 14.4481 20.7816 14.0079 21.0573L13.2798 20.1794C13.839 19.8361 14.3296 19.3918 14.7266 18.8693C15.0891 18.3759 15.2858 17.7802 15.2881 17.1679V16.2134H16.5365V17.1492C16.5289 17.766 16.7442 18.3649 17.1429 18.8356C17.5115 19.2806 17.9735 19.6391 18.4961 19.8856L17.8336 20.8027C17.409 20.5752 17.0189 20.2884 16.675 19.9511ZM19.8325 24.6527C19.3589 25.0322 18.7659 25.2311 18.1592 25.2142C17.558 25.233 16.9703 25.0335 16.5047 24.6527C16.2993 24.4612 16.1355 24.2294 16.0235 23.9718C15.9115 23.7142 15.8537 23.4363 15.8537 23.1554C15.8537 22.8745 15.9115 22.5966 16.0235 22.339C16.1355 22.0815 16.2993 21.8497 16.5047 21.6581C16.9631 21.262 17.5537 21.0528 18.1592 21.0722C18.7702 21.0545 19.3661 21.2631 19.8325 21.6581C20.0379 21.8497 20.2017 22.0815 20.3137 22.339C20.4257 22.5966 20.4835 22.8745 20.4835 23.1554C20.4835 23.4363 20.4257 23.7142 20.3137 23.9718C20.2017 24.2294 20.0379 24.4612 19.8325 24.6527ZM18.9996 22.3637C18.7664 22.1626 18.4671 22.0546 18.1592 22.0605C17.4779 22.0605 17.0044 22.4966 17.0044 23.1386C17.0044 23.7805 17.4779 24.226 18.1592 24.226C18.8405 24.226 19.3309 23.7918 19.3309 23.1386C19.3314 22.9936 19.3023 22.8501 19.2453 22.7169C19.1883 22.5836 19.1047 22.4634 18.9996 22.3637ZM19.4544 18.6091H17.7999V17.5685H19.4544V16H20.6261V21.0385H19.4544V18.6091Z" fill="white"/>
<path d="M21.7231 20.1401H29.4588V21.134H21.7231V20.1401ZM27.1884 18.1449C27.657 18.4134 28.1611 18.6144 28.6858 18.742L28.2029 19.6778C27.688 19.5516 27.192 19.3578 26.728 19.1014C26.2932 18.8772 25.9051 18.5723 25.5844 18.203C25.2644 18.5812 24.8757 18.8956 24.4389 19.1294C23.9772 19.3907 23.4806 19.5848 22.9641 19.7059L22.4812 18.742C22.9843 18.6338 23.4645 18.438 23.8999 18.1637C24.3454 17.8998 24.7047 17.5591 24.8451 17.1904H22.8667V16.2078H28.2946V17.1904H26.3144C26.4323 17.5778 26.7636 17.8904 27.1884 18.1449ZM27.2371 24.8399C26.745 25.1502 26.1736 25.3114 25.5919 25.3041C25.0044 25.3162 24.4259 25.1582 23.9261 24.8493C23.6991 24.7009 23.5122 24.4989 23.3819 24.2611C23.2516 24.0232 23.182 23.7569 23.1792 23.4858C23.1764 23.2146 23.2406 22.947 23.366 22.7065C23.4914 22.466 23.6741 22.2602 23.898 22.1073C24.408 21.787 24.9981 21.617 25.6003 21.617C26.2026 21.617 26.7926 21.787 27.3026 22.1073C27.5169 22.2639 27.6912 22.469 27.8113 22.7058C27.9313 22.9426 27.9936 23.2044 27.9933 23.4699C27.9947 23.7438 27.9259 24.0135 27.7936 24.2534C27.6612 24.4932 27.4696 24.6951 27.2371 24.8399ZM26.4884 22.8166C26.2194 22.6502 25.9081 22.5651 25.5919 22.5715C24.8432 22.5715 24.3135 22.9458 24.3135 23.4699C24.3135 23.9939 24.8339 24.3495 25.5919 24.3495C25.9083 24.3552 26.2196 24.2694 26.4884 24.1025C26.6 24.0381 26.693 23.9461 26.7586 23.8353C26.8242 23.7245 26.86 23.5986 26.8628 23.4699C26.859 23.3386 26.8228 23.2102 26.7575 23.0963C26.6922 22.9823 26.5998 22.8863 26.4884 22.8166Z" fill="white"/>
<path d="M33.3389 19.2904C33.4329 18.6805 33.4742 18.0637 33.4624 17.4468H30.245V16.4342H34.6528V16.7374C34.66 17.5635 34.5974 18.3888 34.4656 19.2043C34.8812 19.1669 35.2873 19.1294 35.6935 19.0826V16H36.8576V22.7099H35.6935V21.7254H33.936V20.8383H35.6935V20.0353C34.7295 20.1476 33.7656 20.2431 32.7811 20.3179V21.6712H31.6282V20.3947C30.975 20.4321 30.5314 20.4546 29.8501 20.4789L29.7378 19.4195C30.8177 19.4214 32.0924 19.3746 33.3389 19.2904ZM31.7704 22.2458H32.9234V23.8629H36.9999V24.8661H31.7704V22.2458Z" fill="white"/>
</svg>
