<svg width="42" height="42" viewBox="0 0 42 42" fill="none" xmlns="http://www.w3.org/2000/svg">
<circle cx="21" cy="21" r="21" fill="#0066B2"/>
<circle cx="21" cy="21" r="20.5" stroke="black" stroke-opacity="0.05"/>
<mask id="mask0_9_317858" style="mask-type:luminance" maskUnits="userSpaceOnUse" x="10" y="20" width="7" height="9">
<path fill-rule="evenodd" clip-rule="evenodd" d="M16.0238 20.9568L10.3066 20.9916C10.136 20.9916 10 21.1345 10.006 21.305V21.3086C10.006 21.3086 10 21.3146 10 21.3195C10.1002 24.1043 11.2193 26.6237 12.991 28.5139C12.991 28.5187 13.0005 28.5235 13.0005 28.5259C13.0554 28.5763 13.1318 28.6136 13.2153 28.6136C13.3441 28.6136 13.4515 28.5307 13.4957 28.4226L16.3089 21.3819C16.3256 21.3435 16.3351 21.3014 16.3292 21.2642C16.3292 21.0913 16.1967 20.9568 16.0297 20.9568C16.0273 20.9568 16.0261 20.9568 16.0238 20.9568Z" fill="white"/>
</mask>
<g mask="url(#mask0_9_317858)">
<path fill-rule="evenodd" clip-rule="evenodd" d="M10.3066 20.9916C10.136 20.9916 10 21.1345 10.006 21.305C10.006 21.3086 10 21.3146 10 21.3195C10.1002 24.1043 11.2193 26.6237 12.991 28.5139C12.991 28.5187 13.0005 28.5235 13.0005 28.5259C13.0554 28.5763 13.1318 28.6136 13.2153 28.6136C13.3441 28.6136 13.4515 28.5307 13.4957 28.4226L16.3089 21.3819C16.3256 21.3435 16.3351 21.3014 16.3292 21.2642C16.3292 21.0913 16.1967 20.9568 16.0297 20.9568L10.3066 20.9916Z" fill="white"/>
</g>
<mask id="mask1_9_317858" style="mask-type:luminance" maskUnits="userSpaceOnUse" x="16" y="20" width="11" height="12">
<path fill-rule="evenodd" clip-rule="evenodd" d="M21.0013 20.9231C20.2986 20.9267 19.6937 21.3722 19.4575 21.9931C19.4539 21.9979 19.4539 22.0015 19.4491 22.0051L16.0585 30.4929C16.0585 30.4965 16.0513 30.5013 16.0513 30.5013C16.037 30.5433 16.0322 30.5745 16.0322 30.6165C16.0322 30.733 16.1026 30.8387 16.1993 30.8879H16.2016C17.6333 31.5917 19.232 31.9891 20.9273 32H21.0753C22.8207 31.9831 24.4779 31.5628 25.9358 30.8207C25.9406 30.8171 25.9442 30.8171 25.9489 30.8123C26.0396 30.7594 26.0993 30.6574 26.0993 30.5469C26.0993 30.5037 26.0897 30.4628 26.0766 30.4292V30.4256L22.5093 21.8598C22.2349 21.3038 21.6694 20.9231 21.0132 20.9231C21.0097 20.9231 21.0049 20.9231 21.0013 20.9231Z" fill="white"/>
</mask>
<g mask="url(#mask1_9_317858)">
<path fill-rule="evenodd" clip-rule="evenodd" d="M21.0013 20.9231C20.2986 20.9267 19.6937 21.3722 19.4575 21.9931C19.4539 21.9979 19.4539 22.0015 19.4491 22.0051L16.0585 30.4929C16.0585 30.4965 16.0513 30.5013 16.0513 30.5013C16.037 30.5433 16.0322 30.5745 16.0322 30.6165C16.0322 30.733 16.1026 30.8387 16.1993 30.8879H16.2016C17.6333 31.5917 19.232 31.9891 20.9273 32H21.0753C22.8207 31.9831 24.4779 31.5628 25.9358 30.8207C25.9406 30.8171 25.9442 30.8171 25.9489 30.8123C26.0396 30.7594 26.0993 30.6574 26.0993 30.5469C26.0993 30.5037 26.0897 30.4628 26.0766 30.4292V30.4256L22.5093 21.8598C22.2349 21.3038 21.6694 20.9231 21.0132 20.9231C21.0097 20.9231 21.0049 20.9231 21.0013 20.9231Z" fill="white"/>
</g>
<mask id="mask2_9_317858" style="mask-type:luminance" maskUnits="userSpaceOnUse" x="25" y="20" width="7" height="9">
<path fill-rule="evenodd" clip-rule="evenodd" d="M25.9729 20.8846C25.8035 20.8846 25.6675 21.0263 25.6675 21.198C25.6711 21.2352 25.6758 21.2725 25.6925 21.3085V21.3193L28.6048 28.3144C28.6501 28.4273 28.7611 28.5041 28.8875 28.5041C28.9734 28.5041 29.051 28.4633 29.1095 28.4093C29.1095 28.4093 29.1095 28.4056 29.1142 28.4056C30.8597 26.4855 31.943 23.9444 32.0002 21.156C32.0002 21.156 32.0002 21.1524 31.9955 21.1488C31.9955 20.9819 31.8595 20.8438 31.6912 20.8438L25.9729 20.8846Z" fill="white"/>
</mask>
<g mask="url(#mask2_9_317858)">
<path fill-rule="evenodd" clip-rule="evenodd" d="M25.9729 20.8846C25.8035 20.8846 25.6675 21.0263 25.6675 21.198C25.6711 21.2352 25.6758 21.2725 25.6925 21.3085V21.3193L28.6048 28.3144C28.6501 28.4273 28.7611 28.5041 28.8875 28.5041C28.9734 28.5041 29.051 28.4633 29.1095 28.4093C29.1095 28.4093 29.1095 28.4056 29.1142 28.4056C30.8597 26.4855 31.943 23.9444 32.0002 21.156C32.0002 21.156 32.0002 21.1524 31.9955 21.1488C31.9955 20.9819 31.8595 20.8438 31.6912 20.8438L25.9729 20.8846Z" fill="white"/>
</g>
<mask id="mask3_9_317858" style="mask-type:luminance" maskUnits="userSpaceOnUse" x="22" y="10" width="10" height="8">
<path fill-rule="evenodd" clip-rule="evenodd" d="M22.8006 10C22.6312 10 22.4976 10.1381 22.4976 10.3086L22.5035 10.825C22.4976 12.5026 22.8495 14.3316 23.588 16.2457L24.1249 17.5415C24.1666 17.6448 24.2645 17.7216 24.3802 17.7288H24.4065L31.1031 17.6832C31.2737 17.6832 31.4085 17.5451 31.4085 17.3758C31.4085 17.3409 31.4049 17.3073 31.3942 17.2797L31.3894 17.2749C30.0902 13.5138 26.8355 10.6833 22.8531 10.0036C22.8531 10.0036 22.8459 10.0036 22.8412 10H22.8006Z" fill="white"/>
</mask>
<g mask="url(#mask3_9_317858)">
<path fill-rule="evenodd" clip-rule="evenodd" d="M22.8006 10C22.6312 10 22.4976 10.1381 22.4976 10.3086L22.5035 10.825C22.4976 12.5026 22.8495 14.3316 23.588 16.2457L24.1249 17.5415C24.1666 17.6448 24.2645 17.7216 24.3802 17.7288H24.4065L31.1031 17.6832C31.2737 17.6832 31.4085 17.5451 31.4085 17.3758C31.4085 17.3409 31.4049 17.3073 31.3942 17.2797L31.3894 17.2749C30.0902 13.5138 26.8355 10.6833 22.8531 10.0036C22.8531 10.0036 22.8459 10.0036 22.8412 10H22.8006Z" fill="white"/>
</g>
<mask id="mask4_9_317858" style="mask-type:luminance" maskUnits="userSpaceOnUse" x="10" y="10" width="10" height="8">
<path fill-rule="evenodd" clip-rule="evenodd" d="M19.0028 10.0299H18.9945C15.0216 10.7625 11.8027 13.6494 10.5548 17.4213V17.4261C10.5464 17.4549 10.5381 17.4886 10.5381 17.521C10.5417 17.6915 10.6801 17.8284 10.8531 17.8284L17.5545 17.7804C17.5545 17.7804 17.5664 17.7804 17.5807 17.7744H17.5879H17.6082C17.7072 17.7539 17.7895 17.6795 17.8313 17.587L18.3478 16.2841C19.0577 14.3603 19.3834 12.5289 19.3536 10.8501H19.3584L19.3536 10.3301C19.3536 10.1584 19.2116 10.0239 19.0434 10.0239C19.035 10.0239 19.0195 10.0239 19.0028 10.0299Z" fill="white"/>
</mask>
<g mask="url(#mask4_9_317858)">
<path fill-rule="evenodd" clip-rule="evenodd" d="M19.0028 10.0299H18.9945C15.0216 10.7625 11.8027 13.6494 10.5548 17.4213V17.4261C10.5464 17.4549 10.5381 17.4886 10.5381 17.521C10.5417 17.6915 10.6801 17.8284 10.8531 17.8284L17.5545 17.7804C17.5545 17.7804 17.5664 17.7804 17.5807 17.7744H17.5879H17.6082C17.7072 17.7539 17.7895 17.6795 17.8313 17.587L18.3478 16.2841C19.0577 14.3603 19.3834 12.5289 19.3536 10.8501H19.3584L19.3536 10.3301C19.3536 10.1584 19.2116 10.0239 19.0434 10.0239C19.035 10.0239 19.0195 10.0239 19.0028 10.0299Z" fill="white"/>
</g>
</svg>
