<svg width="42" height="42" viewBox="0 0 42 42" fill="none" xmlns="http://www.w3.org/2000/svg">
<circle cx="21" cy="21" r="21" fill="white"/>
<circle cx="21" cy="21" r="20.5" stroke="black" stroke-opacity="0.05"/>
<g clip-path="url(#clip0_9_318151)">
<path d="M15.6305 25.9781L22.2502 14.5124C23.0834 13.0693 22.5889 11.224 21.1458 10.3908L21.1315 10.3825C19.6884 9.54937 17.8432 10.0439 17.01 11.487L10.3903 22.9526C9.55709 24.3957 10.0515 26.241 11.4946 27.0742L11.5089 27.0824C12.952 27.9156 14.7973 27.4212 15.6305 25.9781Z" fill="#00B837"/>
<path d="M25.1808 31.492L31.8005 20.0263C32.6337 18.5832 32.1393 16.7379 30.6962 15.9048L30.6819 15.8965C29.2388 15.0633 27.3935 15.5578 26.5603 17.0009L19.9406 28.4666C19.1074 29.9097 19.6019 31.755 21.045 32.5881L21.0593 32.5964C22.5024 33.4296 24.3476 32.9351 25.1808 31.492Z" fill="#E5002F"/>
<path d="M25.3991 28.0042C24.9939 28.038 24.5863 27.9798 24.2066 27.8342C23.827 27.6887 23.485 27.4594 23.2063 27.1633C22.2995 26.1081 21.3102 24.4759 19.2163 24.4759C17.6308 24.6281 16.16 25.3694 15.0944 26.5533C14.5334 27.1041 13.7785 27.4127 12.9923 27.4127C12.206 27.4127 11.4512 27.1041 10.8901 26.5533C10.3414 25.9978 10.0337 25.2484 10.0337 24.4676C10.0337 23.6868 10.3414 22.9375 10.8901 22.382C13.2929 19.9511 16.5569 18.5649 19.9747 18.5239C23.0908 18.6229 25.1848 20.354 27.6909 23.058C28.1606 23.6839 28.3817 24.4617 28.3117 25.2412C28.2417 26.0206 27.8854 26.7465 27.3117 27.2788C26.7892 27.7543 26.1055 28.0136 25.3991 28.0042Z" fill="#0080C7"/>
<path d="M13.0337 27.5098C14.7092 27.5098 16.0674 26.1515 16.0674 24.4761C16.0674 22.8006 14.7092 21.4424 13.0337 21.4424C11.3582 21.4424 10 22.8006 10 24.4761C10 26.1515 11.3582 27.5098 13.0337 27.5098Z" fill="#1D3772"/>
<path d="M25.3994 28.1033C27.0749 28.1033 28.4331 26.745 28.4331 25.0696C28.4331 23.3941 27.0749 22.0359 25.3994 22.0359C23.724 22.0359 22.3657 23.3941 22.3657 25.0696C22.3657 26.745 23.724 28.1033 25.3994 28.1033Z" fill="#FFAA15"/>
</g>
<defs>
<clipPath id="clip0_9_318151">
<rect width="22.1921" height="23" fill="white" transform="translate(10 10)"/>
</clipPath>
</defs>
</svg>
