<svg width="42" height="42" viewBox="0 0 42 42" fill="none" xmlns="http://www.w3.org/2000/svg">
<ellipse cx="21" cy="20.9223" rx="21" ry="20.9223" fill="#004280"/>
<g clip-path="url(#clip0_9_330195)">
<path d="M12.5772 18.8351C12.5922 18.7314 12.5772 18.7264 12.5303 18.82L11.9482 19.9559C11.9315 19.9877 11.9181 19.9877 11.9064 19.9525L11.2038 17.9284C11.1804 17.8632 11.1737 17.8649 11.1804 17.9335L11.3962 20.0746C11.3995 20.0997 11.3912 20.1048 11.3711 20.088L10.5029 19.4089C10.4561 19.3721 10.446 19.3804 10.4745 19.4323L10.9813 20.3958C10.9813 20.3958 10.9813 20.4042 10.978 20.4059C10.9763 20.4059 10.9746 20.4059 10.973 20.4059L9.53937 20.1265C9.44234 20.1081 9.439 20.1215 9.52598 20.165L10.7839 20.8006C10.7839 20.8006 10.7906 20.809 10.7873 20.814C10.7873 20.8157 10.7839 20.8174 10.7823 20.819L10.0345 21.09C9.98935 21.1068 9.99102 21.1168 10.0379 21.1218L10.7237 21.1971C10.8358 21.2088 10.8375 21.2289 10.7271 21.2556C9.71835 21.5015 8.70129 21.7909 7.67754 22.1272C7.6491 22.1355 7.64408 22.1272 7.65747 22.1037L10.6484 17.0235C10.6568 17.0084 10.6702 17.0017 10.6869 17.0017H13.1074C13.1275 17.0017 13.1442 17.0101 13.1543 17.0285L15.165 20.3908C15.1734 20.4042 15.17 20.4125 15.1533 20.4142C14.4156 20.5146 13.6779 20.635 12.9402 20.7755C12.9335 20.7755 12.9268 20.7722 12.9251 20.7655C12.9251 20.7655 12.9251 20.7655 12.9251 20.7638V20.7505C12.9251 20.7505 12.9285 20.7404 12.9335 20.7371C13.1961 20.6334 13.4387 20.528 13.6628 20.4226C13.7163 20.3975 13.713 20.3858 13.6545 20.3875L12.7545 20.4209C12.7277 20.4209 12.7227 20.4125 12.7428 20.3941L13.8184 19.4072C13.8686 19.362 13.8636 19.3553 13.8033 19.3854L12.4383 20.1014C12.4183 20.1114 12.4099 20.1048 12.4132 20.0847C12.4617 19.6414 12.517 19.2265 12.5755 18.8368L12.5772 18.8351Z" fill="white"/>
<path d="M16.696 20.2034C16.9386 18.6494 17.8954 17.6926 19.4043 17.2894C20.1018 17.1038 20.8362 17.0084 21.609 17.0051C23.0309 16.9984 24.4076 16.9984 25.7358 17.0017C25.7459 17.0017 25.7542 17.0101 25.7542 17.0201V18.3333C25.7542 18.3517 25.7459 18.3617 25.7258 18.3617C24.3374 18.3617 23.0292 18.3617 21.8014 18.3617C21.4284 18.3617 21.0704 18.4136 20.7275 18.5173C19.9697 18.7448 19.5147 19.2851 19.3257 20.0261C19.3206 20.0445 19.3056 20.0562 19.2872 20.0579C18.4374 20.088 17.5809 20.1449 16.7211 20.2302C16.7077 20.2302 16.6943 20.2218 16.6943 20.2085C16.6943 20.2068 16.6943 20.2034 16.6943 20.2018L16.696 20.2034Z" fill="white"/>
<path d="M28.5793 18.989C28.5542 18.9422 28.5408 18.9438 28.5425 18.999L28.5709 20.6869C28.5709 20.6869 28.5642 20.7019 28.5558 20.7019C28.5558 20.7019 28.5542 20.7019 28.5525 20.7019C27.8014 20.5648 27.0403 20.4494 26.2725 20.3557C26.2524 20.3523 26.2424 20.3423 26.2424 20.3205V17.0368C26.2407 17.0134 26.2507 17.0017 26.2741 17.0017H29.1831C29.2049 17.0017 29.2216 17.0101 29.235 17.0268L32.9302 21.6956C32.957 21.729 32.9486 21.7391 32.9085 21.7274C32.0403 21.4714 31.147 21.2439 30.2337 21.0398C30.2102 21.0348 30.1902 21.0231 30.1751 21.003C29.6465 20.3389 29.1229 19.6815 28.6044 19.0275C28.5943 19.0158 28.586 19.0024 28.5793 18.989Z" fill="white"/>
<path d="M35.975 22.7477C35.244 22.4717 34.508 22.2175 33.7569 21.9816C33.7402 21.9766 33.7301 21.9649 33.7301 21.9465L33.6465 17.0117C33.6465 17.0117 33.6498 17 33.6565 17H35.965C35.9901 17 36.0018 17.0117 36.0018 17.0368V22.7293C36.0018 22.7477 35.9934 22.7528 35.975 22.7461V22.7477Z" fill="white"/>
<path d="M18.2361 24.1947C17.1504 23.5624 16.672 22.532 16.6318 21.2874C16.6318 21.269 16.6402 21.259 16.6586 21.259C17.505 21.1937 18.3364 21.1469 19.1578 21.1201C19.1795 21.1201 19.1912 21.1302 19.1895 21.1519C19.1578 21.8812 19.3117 22.8682 20.0276 23.2513C20.1865 23.3366 20.3572 23.3985 20.5378 23.4369C20.9326 23.5223 21.3458 23.5641 21.7774 23.5641C23.1039 23.5658 24.4288 23.5674 25.7469 23.5674C25.7553 23.5674 25.7637 23.5741 25.7637 23.5842L25.757 24.919C25.757 24.9324 25.7469 24.9425 25.7335 24.9425C24.2782 24.9475 22.8262 24.9458 21.3759 24.9374C20.9209 24.9341 20.3923 24.8756 19.7934 24.7601C19.218 24.6497 18.6994 24.4607 18.2394 24.1931L18.2361 24.1947Z" fill="white"/>
<path d="M14.2335 23.0455H9.4376C9.4376 23.0455 9.42589 23.0488 9.42255 23.0555L8.48244 24.9173C8.47407 24.9341 8.45734 24.9441 8.43727 24.9441H6.01506C6.00669 24.9441 6 24.9374 6 24.9291C6 24.9257 6 24.924 6.00167 24.9224L7.17932 22.9217C7.18769 22.9066 7.20107 22.8966 7.21613 22.8916C7.29307 22.8665 7.40348 22.8347 7.54901 22.7962C10.2389 22.0987 12.9572 21.6136 15.7056 21.3442C15.724 21.3426 15.739 21.3493 15.7474 21.366L17.8685 24.914C17.8802 24.9341 17.8752 24.9441 17.8518 24.9441H15.3175C15.2991 24.9441 15.2807 24.9341 15.2723 24.9173L14.2753 23.0722C14.2653 23.0538 14.2519 23.0455 14.2302 23.0455H14.2335Z" fill="white"/>
<path d="M28.5881 21.6503L28.6417 24.9173C28.6417 24.9324 28.63 24.9441 28.6149 24.9441H26.2713C26.2563 24.9441 26.2446 24.9324 26.2446 24.9173L26.2412 21.3693C26.2412 21.3542 26.2529 21.3425 26.268 21.3425C26.268 21.3425 26.2696 21.3425 26.2713 21.3425L28.5647 21.6236C28.5781 21.6236 28.5881 21.6369 28.5881 21.6503Z" fill="white"/>
<path d="M35.9648 23.2479C35.9865 23.2546 36.0016 23.2747 36.0016 23.2964V24.9324C36.0016 24.9324 35.9965 24.9441 35.9898 24.9441H33.3318C33.3184 24.9441 33.3067 24.9391 33.2983 24.9274L31.0283 22.0753C31.0099 22.0519 31.0149 22.0435 31.0451 22.0485C32.6877 22.3664 34.3271 22.7645 35.9648 23.2462V23.2479Z" fill="white"/>
</g>
<path d="M21 0.5C32.3235 0.5 41.4998 9.64489 41.5 20.9219C41.5 32.199 32.3236 41.3447 21 41.3447C9.67641 41.3447 0.5 32.199 0.5 20.9219C0.500216 9.64489 9.67655 0.5 21 0.5Z" stroke="black" stroke-opacity="0.05"/>
<defs>
<clipPath id="clip0_9_330195">
<rect width="30" height="7.9458" fill="white" transform="translate(6 17)"/>
</clipPath>
</defs>
</svg>
