<svg width="42" height="42" viewBox="0 0 42 42" fill="none" xmlns="http://www.w3.org/2000/svg">
<ellipse cx="21" cy="20.9223" rx="21" ry="20.9223" fill="#212A87"/>
<g clip-path="url(#clip0_9_330311)">
<path d="M11.2994 19.3772C12.4737 18.5078 13.6043 18.5853 14.6894 19.6097C14.7672 19.6815 14.8128 19.6664 14.8298 19.5624L15.1599 17.4796C15.1694 17.4172 15.1447 17.3737 15.0859 17.3492C14.1677 16.9692 13.1623 16.8521 12.0696 16.9976C10.1042 17.2584 8.42148 18.8026 8.07242 20.7324C7.67213 22.9551 8.96025 24.7261 11.2178 24.8924C12.1075 24.9585 13.0143 24.8262 13.9382 24.4974C14.0141 24.4709 14.0577 24.418 14.071 24.3386L14.4125 22.2558C14.4295 22.1556 14.3973 22.1348 14.3157 22.1972C13.4279 22.8606 12.4718 23.352 11.3696 22.9267C10.4324 22.5676 10.1782 21.426 10.4684 20.5604C10.6373 20.0557 10.9143 19.6626 11.2994 19.3772Z" fill="white"/>
<path d="M24.8669 17.145H22.7535C22.6833 17.145 22.634 17.1753 22.6037 17.2376L20.5055 21.5205C20.4239 21.6887 20.3651 21.6793 20.3329 21.4959L19.5721 17.249C19.5588 17.179 19.519 17.145 19.4488 17.145H17.3203C17.2653 17.145 17.2141 17.179 17.197 17.232L14.7118 24.6032C14.7118 24.6032 14.708 24.6202 14.708 24.6278C14.708 24.6712 14.7422 24.7053 14.7858 24.7053H16.8214C16.884 24.7053 16.9238 24.675 16.9428 24.6164L18.3106 20.3317C18.3542 20.1975 18.3865 20.1994 18.4073 20.3392L19.077 24.6013C19.0865 24.6712 19.1263 24.7053 19.1965 24.7053H20.5871C20.6592 24.7053 20.7256 24.6637 20.7578 24.5975L22.7972 20.3676C22.8674 20.222 22.9034 20.2296 22.9034 20.3921V24.6353C22.9034 24.6731 22.9357 24.7053 22.9755 24.7053H25.0054C25.0794 24.7053 25.1173 24.6694 25.1154 24.5956L24.9826 17.2584C24.9826 17.1828 24.9428 17.145 24.8669 17.145Z" fill="white"/>
<path d="M32.2034 20.6965C31.9966 20.653 31.9947 20.602 32.1996 20.5453C33.1576 20.2731 33.6376 19.6286 33.6395 18.6118C33.6414 17.2188 31.9473 17.1451 30.9703 17.1451C29.8149 17.1451 28.7051 17.1451 27.6409 17.1432C27.5726 17.1432 27.5327 17.1772 27.5214 17.2453L26.3604 24.5711C26.3604 24.5711 26.3604 24.5806 26.3604 24.5863C26.3604 24.6486 26.4078 24.6997 26.4704 24.6997C27.7111 24.7148 28.929 24.7129 30.1261 24.6921C31.3193 24.6713 32.7402 24.3387 33.2506 23.2216C33.7419 22.1481 33.5161 20.9743 32.2053 20.6965H32.2034ZM28.9328 23.1366C28.8531 23.1309 28.819 23.0874 28.8323 23.008L29.0523 21.6207C29.0637 21.547 29.1073 21.5073 29.1813 21.5017C29.8225 21.4487 30.3803 21.496 30.8545 21.6434C31.0727 21.7096 31.2188 21.9156 31.2112 22.1424C31.1789 23.2802 29.7675 23.1989 28.9328 23.1366ZM30.7597 20.0425C30.3366 20.1711 29.887 20.1994 29.409 20.1257C29.3293 20.1125 29.2951 20.0671 29.3084 19.9858L29.519 18.7516C29.5304 18.6855 29.5702 18.6515 29.6366 18.6515C30.0046 18.6496 30.4144 18.6722 30.8678 18.7214C31.7044 18.8102 31.3174 19.8724 30.7597 20.0425Z" fill="white"/>
</g>
<path d="M21 0.5C32.3235 0.5 41.4998 9.64489 41.5 20.9219C41.5 32.199 32.3236 41.3447 21 41.3447C9.67641 41.3447 0.5 32.199 0.5 20.9219C0.500216 9.64489 9.67655 0.5 21 0.5Z" stroke="black" stroke-opacity="0.05"/>
<defs>
<clipPath id="clip0_9_330311">
<rect width="25.6391" height="7.97039" fill="white" transform="translate(8 16.9371)"/>
</clipPath>
</defs>
</svg>
