<svg width="42" height="42" viewBox="0 0 42 42" fill="none" xmlns="http://www.w3.org/2000/svg">
<ellipse cx="21" cy="20.9223" rx="21" ry="20.9223" fill="#01B1C9"/>
<g clip-path="url(#clip0_9_330300)">
<path d="M21.2211 15.9408C21.1899 15.9408 21.1748 15.955 21.1748 15.986V17.796C21.1748 17.8245 21.1975 17.8471 21.2261 17.8471H23.0184C23.0461 17.8479 23.0596 17.8337 23.0579 17.806C22.9856 16.7846 22.2732 15.9659 21.2211 15.9408Z" fill="white"/>
<path d="M23.0192 18.3674H21.211C21.191 18.3674 21.1748 18.3836 21.1748 18.4035V24.8706C21.1748 24.8905 21.191 24.9066 21.211 24.9066H23.0192C23.0392 24.9066 23.0554 24.8905 23.0554 24.8706V18.4035C23.0554 18.3836 23.0392 18.3674 23.0192 18.3674Z" fill="white"/>
<path d="M29.8567 18.3884H27.8289C27.8163 18.3884 27.8054 18.3976 27.802 18.4093L26.7061 22.2864C26.7036 22.2965 26.696 22.304 26.6859 22.3065C26.6708 22.3099 26.6557 22.3015 26.6523 22.2864L25.5472 18.4093C25.5438 18.3976 25.5329 18.3892 25.5203 18.3892L23.5001 18.3859C23.5001 18.3859 23.4942 18.3859 23.4908 18.3875C23.4765 18.3926 23.4681 18.4077 23.4732 18.4219L25.5985 24.8874C25.6018 24.8991 25.6128 24.9066 25.6245 24.9066H27.7061C27.7187 24.9075 27.7297 24.8999 27.733 24.8882L29.8836 18.4244C29.8836 18.4244 29.8853 18.4185 29.8853 18.4152C29.8853 18.4001 29.8726 18.3875 29.8567 18.3884Z" fill="white"/>
<path d="M35.3898 23.4922H32.373C32.3519 23.4914 32.3343 23.4738 32.3343 23.4529V22.392C32.3343 22.3711 32.3519 22.3535 32.373 22.3535L35.1484 22.3552C35.1694 22.3552 35.1871 22.3376 35.1871 22.3166V20.9759C35.1871 20.955 35.1694 20.9374 35.1484 20.9374H32.3789C32.3578 20.9366 32.3402 20.919 32.3402 20.898V19.8573C32.3402 19.8364 32.3578 19.8188 32.3789 19.8188H35.3881C35.4091 19.8196 35.4268 19.802 35.4268 19.7811L35.4285 18.4278C35.4285 18.4068 35.4108 18.3892 35.3898 18.3892L30.3385 18.3876C30.3175 18.3876 30.2998 18.4052 30.2998 18.4261V24.8681C30.3006 24.8891 30.3183 24.9067 30.3393 24.9067H35.3856C35.4066 24.9067 35.4243 24.8891 35.4243 24.8681L35.4285 23.5308C35.4285 23.5098 35.4108 23.4922 35.3898 23.4922Z" fill="white"/>
<path d="M10.9169 18.4856C10.5502 18.4295 10.1894 18.3993 9.83364 18.3951C8.92363 18.3859 7.98755 18.3851 7.02539 18.3909C7.01194 18.3909 7.001 18.4018 7.001 18.4152V24.8631C7.00016 24.8866 7.01867 24.905 7.04222 24.905C8.05735 24.9083 9.12296 24.9075 10.239 24.9016C10.6637 24.8991 11.0431 24.843 11.377 24.7332C13.0397 24.1835 13.3719 22.1532 13.0859 20.6684C12.8614 19.502 12.1162 18.67 10.9169 18.4856ZM9.90513 23.4093L9.08343 23.411C9.05988 23.411 9.04137 23.3925 9.04137 23.3691L9.03465 19.947C9.03465 19.9235 9.05315 19.9051 9.0767 19.9051L9.8984 19.9034C10.5695 19.9026 11.1145 20.5679 11.1162 21.389L11.1179 21.9203C11.1188 22.7415 10.5763 23.4085 9.90513 23.4093Z" fill="white"/>
<path d="M15.3276 18.3884H13.5563C13.5235 18.3884 13.5075 18.4052 13.5075 18.4379L13.5059 20.2537C13.5059 20.2537 13.5059 20.2562 13.5059 20.257C13.5075 20.2796 13.5277 20.2964 13.5504 20.2947C14.5664 20.2235 15.3637 19.4719 15.378 18.4395C15.378 18.4052 15.362 18.3884 15.3276 18.3884Z" fill="white"/>
<path d="M20.5827 23.261H17.9477C17.9292 23.2618 17.9141 23.2467 17.9141 23.2283V18.4219C17.9141 18.4035 17.899 18.3884 17.8805 18.3884H15.9175C15.899 18.3884 15.8838 18.4035 15.8838 18.4219V24.8732C15.883 24.8916 15.8981 24.9067 15.9166 24.9067H20.5802C20.5987 24.9075 20.6138 24.8924 20.6138 24.874L20.6164 23.2945C20.6164 23.2761 20.6012 23.261 20.5827 23.261Z" fill="white"/>
</g>
<path d="M21 0.5C32.3235 0.5 41.4998 9.64489 41.5 20.9219C41.5 32.199 32.3236 41.3447 21 41.3447C9.67641 41.3447 0.5 32.199 0.5 20.9219C0.500216 9.64489 9.67655 0.5 21 0.5Z" stroke="black" stroke-opacity="0.05"/>
<defs>
<clipPath id="clip0_9_330300">
<rect width="28.4289" height="8.96669" fill="white" transform="translate(7 15.9408)"/>
</clipPath>
</defs>
</svg>
