<svg width="42" height="42" viewBox="0 0 42 42" fill="none" xmlns="http://www.w3.org/2000/svg">
<ellipse cx="21" cy="20.9223" rx="21" ry="20.9223" fill="white"/>
<g clip-path="url(#clip0_9_330207)">
<path d="M12.6108 22.4525V25.3199C12.6108 25.3647 12.6434 25.4014 12.6922 25.4014H20.2842C20.329 25.4014 20.3535 25.4217 20.3535 25.4706V27.9551C20.3535 27.9795 20.3331 27.9958 20.3127 27.9958H10.0611C10.0204 27.9958 10 27.9755 10 27.9347V14.2903C10 14.2903 10.0122 14.2618 10.0326 14.2618C12.8389 14.2618 15.6248 14.2577 18.3862 14.2537C18.5329 14.2537 18.655 14.2862 18.765 14.3921C19.2456 14.8768 19.7466 15.3737 20.272 15.8828C20.3209 15.9317 20.3494 15.9969 20.3494 16.0661V16.8033C20.3494 16.8318 20.329 16.8522 20.3005 16.8522H12.6434C12.6434 16.8522 12.6067 16.8685 12.6067 16.8889V19.7277C12.6067 19.797 12.6434 19.8295 12.7085 19.8295H18.5491C18.6062 19.8295 18.6387 19.854 18.6387 19.9151V22.367C18.6387 22.4037 18.6184 22.424 18.5777 22.424H12.6311C12.6311 22.424 12.6067 22.4362 12.6067 22.4485L12.6108 22.4525Z" fill="#2D833A"/>
<path d="M23.8036 16.9093V25.3199C23.8036 25.3647 23.8403 25.4014 23.8851 25.4014H28.8989C28.9233 25.4014 28.9437 25.381 28.9437 25.3566V24.2691C28.9437 24.1836 28.9804 24.1021 29.0415 24.041C29.7583 23.3283 30.4874 22.5951 31.2246 21.8498C31.3101 21.7642 31.4119 21.6746 31.5219 21.5891C31.5341 21.581 31.5504 21.581 31.5585 21.5891C31.5585 21.5932 31.5626 21.6013 31.5626 21.6054V27.9266C31.5626 27.9592 31.5382 27.9837 31.5056 27.9837C31.2001 27.9877 30.7888 28.0407 30.5199 27.8859C29.8398 27.503 29.184 27.1283 28.5446 26.7699C28.5079 26.7495 28.4631 26.7577 28.4346 26.7862L27.3756 27.8574C27.2901 27.9429 27.1883 27.9837 27.0701 27.9837H23.0705C22.985 27.9837 22.9076 27.9511 22.8465 27.894C22.3455 27.4134 21.8527 26.9328 21.368 26.4481C21.258 26.3382 21.2051 26.2078 21.2051 26.0571C21.2051 22.9087 21.2051 19.5811 21.2051 16.0621C21.2051 15.9929 21.2336 15.9236 21.2825 15.8747L22.8383 14.3433C22.8994 14.2822 22.985 14.2496 23.0705 14.2496C25.2047 14.2496 27.2331 14.2496 29.1514 14.2415C29.3714 14.2415 29.799 14.217 29.9334 14.3515C30.4792 14.8932 31.0005 15.4186 31.4974 15.9195C31.5341 15.9562 31.5545 16.0091 31.5545 16.058V16.7749C31.5545 16.8197 31.53 16.8441 31.4852 16.8441H23.8525C23.8158 16.8441 23.7955 16.8645 23.7955 16.9011L23.8036 16.9093Z" fill="#2D833A"/>
<path d="M28.9142 18.5887L26.4316 21.0713C26.3998 21.1031 26.3998 21.1547 26.4316 21.1865L28.9113 23.6662C28.9431 23.698 28.9947 23.698 29.0265 23.6662L31.5091 21.1836C31.5409 21.1518 31.5409 21.1002 31.5091 21.0684L29.0294 18.5887C28.9976 18.5569 28.946 18.5569 28.9142 18.5887Z" fill="#C7103C"/>
</g>
<path d="M21 0.5C32.3235 0.5 41.4998 9.64489 41.5 20.9219C41.5 32.199 32.3236 41.3447 21 41.3447C9.67641 41.3447 0.5 32.199 0.5 20.9219C0.500216 9.64489 9.67655 0.5 21 0.5Z" stroke="black" stroke-opacity="0.05"/>
<defs>
<clipPath id="clip0_9_330207">
<rect width="21.875" height="14" fill="white" transform="translate(10 14)"/>
</clipPath>
</defs>
</svg>
