<svg width="42" height="42" viewBox="0 0 42 42" fill="none" xmlns="http://www.w3.org/2000/svg">
<ellipse cx="21" cy="20.9223" rx="21" ry="20.9223" fill="#D82D51"/>
<g clip-path="url(#clip0_9_330288)">
<path d="M5.8064 18.0496C5.69473 18.2751 5.62904 18.4634 5.61152 18.6123C5.58744 18.8138 5.54583 19.0196 5.56554 19.2188C5.59401 19.5101 5.6575 19.7816 5.75603 20.0312C5.83924 20.2436 5.73195 20.4187 5.50642 20.456C5.18674 20.5107 5.10135 19.9677 5.0488 19.7662C4.97654 19.4882 5.0072 19.1816 5.00282 18.8926C4.99187 18.1766 5.35972 17.4453 5.85457 16.9417C6.50049 16.2826 7.32159 15.9695 8.32223 16.0023C8.40105 16.0045 8.48644 16.0418 8.57622 16.114C8.77766 16.2738 8.65504 16.5891 8.40981 16.5826C8.18428 16.576 7.96313 16.576 7.7398 16.6132C6.85521 16.7599 6.21147 17.2395 5.80421 18.0496H5.8064Z" fill="white"/>
<path d="M15.9511 17.0293H15.1585C15.0122 17.0293 14.8936 17.1479 14.8936 17.2942V25.7329C14.8936 25.8792 15.0122 25.9978 15.1585 25.9978H15.9511C16.0974 25.9978 16.2161 25.8792 16.2161 25.7329V17.2942C16.2161 17.1479 16.0974 17.0293 15.9511 17.0293Z" fill="white"/>
<path d="M34.1225 17.0249H33.2729C33.1556 17.0249 33.0605 17.12 33.0605 17.2373V25.781C33.0605 25.8983 33.1556 25.9934 33.2729 25.9934H34.1225C34.2398 25.9934 34.3349 25.8983 34.3349 25.781V17.2373C34.3349 17.12 34.2398 17.0249 34.1225 17.0249Z" fill="white"/>
<path d="M25.0269 20.3552C24.9962 20.3552 24.9809 20.3705 24.9809 20.4012V21.5923C24.9809 21.6186 24.994 21.6317 25.0203 21.6317H26.0604C26.2202 21.6317 26.3494 21.7587 26.3494 21.9185C26.3494 22.1244 26.3494 22.328 26.3538 22.5251C26.3538 22.7374 26.2224 22.8623 26.0209 22.8601C25.6246 22.8557 25.2852 22.8557 25.0072 22.8601C24.9918 22.8601 24.9809 22.8732 24.9809 22.8863V25.8379C24.9809 25.8729 24.9656 25.9036 24.9371 25.9233C24.867 25.9715 24.7816 25.9955 24.6853 25.9977C24.4598 25.9999 24.2321 25.9999 24.0043 25.9977C23.9211 25.9977 23.8423 25.9758 23.7701 25.9364C23.7328 25.9167 23.7109 25.8773 23.7109 25.8357V17.2635C23.7109 17.1584 23.7941 17.073 23.8992 17.073H24.7882C24.8955 17.073 24.9831 17.1606 24.9831 17.2679V19.0874C24.9809 19.1137 24.994 19.1268 25.0181 19.1268L26.0626 19.1312C26.2224 19.1312 26.3516 19.2626 26.3516 19.4202V20.0705C26.3516 20.2282 26.2246 20.3552 26.0669 20.3552L25.0269 20.3508V20.3552Z" fill="white"/>
<path d="M7.83407 18.0869C7.51002 18.2512 7.28449 18.4986 7.15311 18.8336C7.08086 19.0197 7.11808 19.2102 7.10713 19.4029C7.09618 19.6218 7.28668 19.7313 7.16844 19.9656C7.13998 20.0182 7.09181 20.0576 7.02393 20.0795C6.88817 20.1233 6.77651 20.1014 6.69111 20.0116C6.61448 19.9306 6.52908 19.6656 6.52689 19.554C6.52251 19.243 6.48748 18.8971 6.60353 18.6037C6.83343 18.0213 7.2407 17.6403 7.82532 17.4651C8.04646 17.3972 8.28732 17.4169 8.51285 17.4191C8.68363 17.4191 8.77122 17.5045 8.77778 17.6753V17.6994C8.78654 17.8811 8.69896 17.9796 8.51503 17.995C8.27637 18.0125 8.06398 17.9709 7.83407 18.0847V18.0869Z" fill="white"/>
<path d="M14.1642 21.2574C14.151 21.6537 14.0394 21.9909 13.8773 22.3478C13.8664 22.374 13.8642 22.4003 13.873 22.4288C13.9649 22.6872 14.0481 22.9565 14.1269 23.2411C14.2846 23.8148 13.9583 24.1761 13.3693 23.9987C13.0913 23.9133 12.8132 23.8323 12.5373 23.7513C12.5132 23.7447 12.4869 23.7469 12.4629 23.7557C11.9724 23.99 11.5235 24.0447 10.9827 24.0381C10.4025 24.0294 9.88353 23.8323 9.39088 23.5126C9.09966 23.3221 8.84129 23.0616 8.61357 22.7244C8.24572 22.1814 8.07056 21.5902 8.0837 20.9508C8.10121 20.0706 8.53475 19.1444 9.2398 18.6123C10.4441 17.7037 12.0644 17.7365 13.1789 18.7415C13.7481 19.2539 14.0678 19.8713 14.1423 20.5983C14.162 20.7932 14.1664 21.0121 14.1598 21.2552L14.1642 21.2574ZM12.3687 22.628C12.5001 22.5864 12.6687 22.6718 12.8022 22.7003C12.8198 22.7047 12.8373 22.6915 12.8395 22.674C12.8395 22.6696 12.8395 22.6631 12.8395 22.6587C12.7716 22.4529 12.7519 22.1835 12.8592 21.9865C13.2117 21.3362 13.227 20.6333 12.8373 20.0005C12.2943 19.1203 11.2695 18.7809 10.3171 19.2123C9.83098 19.4312 9.48284 19.8122 9.27702 20.3552C8.861 21.4413 9.58137 22.7047 10.7287 22.9411C10.9214 22.9806 11.0637 23.0003 11.1535 22.9981C11.3287 22.9937 11.5192 22.9587 11.725 22.8974C11.9483 22.8295 12.1476 22.6981 12.3709 22.6302L12.3687 22.628Z" fill="white"/>
<path d="M30.4723 19.1292H27.709C27.5536 19.1292 27.4266 19.0044 27.4266 18.8489V18.1373C27.4266 18.0366 27.5076 17.9534 27.6083 17.9534H31.6612C31.8101 17.9534 31.8868 18.0256 31.889 18.1723C31.9152 20.167 31.2124 21.8136 29.7826 23.112C29.2286 23.6156 28.5893 24.0404 27.8689 24.3886C27.7069 24.4674 27.5733 24.428 27.4704 24.2703C27.3456 24.082 27.2186 23.8893 27.0894 23.6945C26.9646 23.504 27.0412 23.331 27.2273 23.2412C28.147 22.8033 28.9002 22.2362 29.4848 21.5377C30.0431 20.8721 30.3869 20.0882 30.5183 19.1861C30.5227 19.1489 30.5073 19.1314 30.4701 19.1314L30.4723 19.1292Z" fill="white"/>
<path d="M22.7622 22.1616C22.7315 22.2339 22.7074 22.3039 22.6899 22.374C22.6833 22.4025 22.6833 22.4287 22.6921 22.4572C22.8103 22.8075 22.8979 23.1075 22.9549 23.3549C23.0315 23.6899 22.9351 23.9067 22.6658 24.0052C22.5388 24.0512 22.3768 24.0468 22.1819 23.9921C21.9236 23.9198 21.6652 23.841 21.4068 23.7578C21.3039 23.725 21.2492 23.7622 21.1594 23.8016C20.8485 23.9352 20.5748 24.0074 20.3317 24.0206C19.9923 24.0381 19.5917 24.06 19.2632 23.979C18.4246 23.7709 17.7896 23.3199 17.3605 22.6236C16.5635 21.3318 16.8109 19.6699 17.967 18.6824C18.6479 18.1021 19.4537 17.8744 20.3887 17.997C20.9558 18.0715 21.4484 18.2839 21.8644 18.6342C22.7118 19.348 23.0775 20.261 22.9636 21.3777C22.9351 21.6514 22.8695 21.912 22.7644 22.1572L22.7622 22.1616ZM21.628 22.0521C21.7506 21.8573 21.8404 21.6317 21.8973 21.3755C21.952 21.1347 21.9498 20.8895 21.8973 20.642C21.5251 18.9867 19.5216 18.4503 18.418 19.7574C18.175 20.0443 18.0327 20.3683 17.9911 20.7296C17.8991 21.5135 18.2166 22.2339 18.8735 22.6674C19.1099 22.825 19.4012 22.928 19.7449 22.9783C20.1872 23.0418 20.6339 22.8864 21.039 22.674C21.1901 22.5951 21.3433 22.5973 21.501 22.6783C21.6367 22.7506 21.6761 22.7134 21.6258 22.5711C21.5601 22.3893 21.5229 22.2251 21.6323 22.0499L21.628 22.0521Z" fill="white"/>
</g>
<path d="M21 0.5C32.3235 0.5 41.4998 9.64489 41.5 20.9219C41.5 32.199 32.3236 41.3447 21 41.3447C9.67641 41.3447 0.5 32.199 0.5 20.9219C0.500216 9.64489 9.67655 0.5 21 0.5Z" stroke="black" stroke-opacity="0.05"/>
<defs>
<clipPath id="clip0_9_330288">
<rect width="30.0002" height="10" fill="white" transform="translate(5 16)"/>
</clipPath>
</defs>
</svg>
