<svg width="42" height="42" viewBox="0 0 42 42" fill="none" xmlns="http://www.w3.org/2000/svg">
<ellipse cx="21" cy="20.9223" rx="21" ry="20.9223" fill="#D42E26"/>
<path fill-rule="evenodd" clip-rule="evenodd" d="M11.3115 23.3664C12.1113 26.4372 14.1566 28.8137 17.0389 30.0659V30.0545C19.5327 31.1388 22.0694 31.1616 24.6489 30.1228C26.3 29.4569 27.694 28.3896 28.8281 26.9182C29.1537 26.497 29.3937 26.1042 29.5536 25.7428C29.8336 25.111 29.6508 24.2116 29.0223 23.7933C28.391 23.3749 27.7626 23.3635 27.1084 23.7591C26.9141 23.8787 26.757 24.0409 26.6342 24.2458C26.26 24.8805 25.8544 25.3984 25.4173 25.7969C24.1861 26.9239 22.7178 27.5016 21.0124 27.5329C20.1783 27.5472 19.4099 27.422 18.7043 27.1573C17.1875 26.5852 16.0477 25.666 15.2907 24.3966C14.5451 23.1472 14.2281 21.8125 14.3366 20.3951C14.5937 17.0653 17.3075 14.4014 20.7011 14.3018C22.2151 14.2591 23.5748 14.6633 24.7803 15.5228C25.6401 16.1347 26.3114 16.9259 26.7913 17.8935C26.8966 18.106 26.9837 18.3218 27.0699 18.5355C27.1616 18.7625 27.2523 18.9871 27.3626 19.2027C27.8682 20.1988 29.1737 20.3297 29.985 19.5812C30.502 19.1031 30.5677 18.3602 30.3135 17.6772C29.8079 16.331 29.1423 15.1983 28.3139 14.2819C26.4799 12.2527 23.8662 11.009 21.0924 10.9606C17.4446 10.898 13.8853 12.9585 12.1913 16.2001C11.0258 18.4342 10.6802 20.9501 11.3115 23.3664ZM24.5346 20.9047C24.5346 22.8773 22.9296 24.4764 20.9496 24.4764C18.9697 24.4764 17.3646 22.8773 17.3646 20.9047C17.3646 18.932 18.9697 17.3329 20.9496 17.3329C22.9296 17.3329 24.5346 18.932 24.5346 20.9047Z" fill="white"/>
<path d="M21 0.5C32.3235 0.5 41.4998 9.64489 41.5 20.9219C41.5 32.199 32.3236 41.3447 21 41.3447C9.67641 41.3447 0.5 32.199 0.5 20.9219C0.500216 9.64489 9.67655 0.5 21 0.5Z" stroke="black" stroke-opacity="0.05"/>
</svg>
