<svg width="42" height="42" viewBox="0 0 42 42" fill="none" xmlns="http://www.w3.org/2000/svg">
<ellipse cx="21" cy="20.9223" rx="21" ry="20.9223" fill="white"/>
<g clip-path="url(#clip0_9_330148)">
<path d="M17.6463 22.7561C18.1911 22.8606 18.706 22.9228 19.1886 22.9402C20.8005 22.9974 22.4448 22.8233 24.1239 22.4203C24.1513 22.4128 24.1662 22.4253 24.1662 22.4526V23.4551C24.1662 23.4825 24.1538 23.4999 24.1264 23.5049C22.512 23.8631 20.8876 24.0148 19.2557 23.9601C17.9771 23.9153 16.7085 23.7661 15.4523 23.5098C15.4299 23.5049 15.4199 23.4924 15.4199 23.47V17.4999C15.4199 17.4775 15.4299 17.4651 15.4523 17.4601C18.3677 16.8457 21.2632 16.8457 24.1388 17.4601C24.1587 17.4651 24.1687 17.4775 24.1687 17.4974V18.5447C24.1687 18.5596 24.1562 18.572 24.1413 18.572H24.1363C22.599 18.2213 21.1015 18.0472 19.6463 18.0496C18.9423 18.0496 18.298 18.1243 17.6264 18.2586C17.6115 18.2611 17.604 18.271 17.604 18.286V22.7039C17.604 22.7337 17.6189 22.7536 17.6488 22.7586L17.6463 22.7561Z" fill="#82BC41"/>
<path d="M27.2509 18.281V23.6666C27.2509 23.694 27.2285 23.7163 27.2012 23.7163H25.1017C25.0843 23.7163 25.0693 23.7014 25.0693 23.684V17.4999C25.0693 17.48 25.0793 17.4676 25.0992 17.4626C25.3081 17.4153 25.5146 17.3755 25.7211 17.3407C28.1987 16.9427 30.7161 16.8954 33.2733 17.2014C33.8853 17.2736 34.44 17.3606 34.9325 17.4601C34.9549 17.4651 34.9649 17.4775 34.9649 17.4999V23.684C34.9649 23.7014 34.9499 23.7163 34.9325 23.7163H32.8156C32.7982 23.7163 32.7833 23.7014 32.7833 23.684V18.2711C32.7833 18.2537 32.7733 18.2437 32.7584 18.2412C32.0892 18.1243 31.3977 18.0621 30.6813 18.0547C29.5445 18.0472 28.4151 18.0273 27.2982 18.2238C27.2683 18.2288 27.2534 18.2487 27.2534 18.2785L27.2509 18.281Z" fill="#009BDF"/>
<path d="M12.1687 22.684V17.5248C12.1687 17.48 12.1911 17.4526 12.2334 17.4452C12.9573 17.3059 13.6513 17.3084 14.3155 17.4526C14.3379 17.4576 14.3503 17.4725 14.3503 17.4949V23.4875C14.3503 23.5123 14.3379 23.5298 14.313 23.5347C12.3627 23.9477 10.3727 24.0845 8.34782 23.9477C7.5717 23.8954 6.79807 23.786 6.02692 23.6218C6.00702 23.6168 5.99707 23.6044 5.99707 23.5845V22.6118C5.99707 22.5944 6.012 22.5795 6.02941 22.5795C6.02941 22.5795 6.03438 22.5795 6.03687 22.5795C8.0518 22.985 10.0866 23.1417 12.1214 22.7412C12.1538 22.7337 12.1687 22.7163 12.1687 22.684Z" fill="#E21838"/>
</g>
<path d="M21 0.5C32.3235 0.5 41.4998 9.64489 41.5 20.9219C41.5 32.199 32.3236 41.3447 21 41.3447C9.67641 41.3447 0.5 32.199 0.5 20.9219C0.500216 9.64489 9.67655 0.5 21 0.5Z" stroke="black" stroke-opacity="0.05"/>
<defs>
<clipPath id="clip0_9_330148">
<rect width="28.9652" height="7" fill="white" transform="translate(6 17)"/>
</clipPath>
</defs>
</svg>
