<svg width="42" height="42" viewBox="0 0 42 42" fill="none" xmlns="http://www.w3.org/2000/svg">
<ellipse cx="21" cy="20.9223" rx="21" ry="20.9223" fill="white"/>
<path d="M16.8666 21.9436L21.0984 16.7362H18.7914C17.7551 16.7362 17.0459 17.0526 16.4157 17.7882L14.1877 20.5277V13H11.9518C11.4271 13 11 13.4271 11 13.9545V28H13.2359C13.7632 28 14.1877 27.5729 14.1877 27.0455V23.3094L15.9991 25.5321L17.5389 27.4278C17.8501 27.8181 18.2587 27.9974 18.678 27.9974H21.7972L19.7801 25.5215L16.8666 21.9409V21.9436ZM26.646 25.3501C26.1767 25.3501 25.7917 24.9652 25.7917 24.4932V13H23.5558C23.0311 13 22.6013 13.4271 22.6013 13.9518V25.0918C22.6013 26.8135 23.7905 28 25.5122 28H27.9696C28.4969 28 28.9241 27.5729 28.9241 27.0455V25.3475H26.646V25.3501Z" fill="#231F20"/>
<path d="M14.4909 20.1454L14.4962 20.1401C14.4962 20.1401 14.4936 20.1428 14.4883 20.1454H14.4909ZM29.3828 18.0202V15.9056L29.1851 16.1139C29.1772 16.1166 28.5786 16.7283 26.8595 16.7283H18.7307C17.4466 16.7283 16.8402 17.2503 16.3814 17.8172L16.1309 18.1257C16.1309 18.1257 16.1151 18.1442 16.1072 18.1521L14.4936 20.1375C15.0815 19.6945 15.8831 19.4282 16.7031 19.4282H26.8569C28.0882 19.4282 29.2721 19.067 29.3696 18.1442C29.3828 18.0677 29.3802 18.0202 29.3802 18.0202H29.3828Z" fill="#ED1C24"/>
<path d="M21 0.5C32.3235 0.5 41.4998 9.64489 41.5 20.9219C41.5 32.199 32.3236 41.3447 21 41.3447C9.67641 41.3447 0.5 32.199 0.5 20.9219C0.500216 9.64489 9.67655 0.5 21 0.5Z" stroke="black" stroke-opacity="0.05"/>
</svg>
