<svg width="42" height="42" viewBox="0 0 42 42" fill="none" xmlns="http://www.w3.org/2000/svg">
<ellipse cx="21" cy="20.9223" rx="21" ry="20.9223" fill="white"/>
<path fill-rule="evenodd" clip-rule="evenodd" d="M26.6657 25.031C25.9153 25.1443 25.7879 26.0838 25.8658 26.6993C25.8675 26.7118 25.8665 26.7245 25.8627 26.7365C25.8589 26.7485 25.8525 26.7596 25.844 26.7689C25.8355 26.7782 25.825 26.7855 25.8133 26.7904C25.8016 26.7952 25.789 26.7974 25.7764 26.7968L25.4764 26.7853C25.3094 26.779 25.2238 26.859 25.2196 27.0254L25.2091 27.5077C25.2077 27.5804 25.2435 27.615 25.3164 27.6115L25.7574 27.5895C25.7692 27.5889 25.7809 27.5908 25.792 27.5949C25.803 27.599 25.8131 27.6054 25.8216 27.6135C25.83 27.6217 25.8367 27.6315 25.8413 27.6423C25.8458 27.6531 25.8481 27.6648 25.8479 27.6765L25.8384 30.8589C25.8377 30.9288 25.8728 30.9634 25.9437 30.9627L26.6046 30.9533C26.6509 30.9527 26.695 30.934 26.7276 30.9012C26.7601 30.8685 26.7783 30.8242 26.7783 30.7782L26.7793 27.6639C26.7794 27.6523 26.7819 27.6408 26.7868 27.6302C26.7916 27.6196 26.7986 27.6102 26.8073 27.6025C26.8161 27.5948 26.8263 27.589 26.8375 27.5855C26.8486 27.582 26.8604 27.5808 26.872 27.5822C27.1133 27.6108 27.3543 27.5993 27.595 27.5476C27.7444 27.5154 27.8213 27.4231 27.8255 27.2707L27.836 26.8209C27.8381 26.7293 27.795 26.6961 27.7065 26.7213C27.4378 26.7982 27.147 26.8192 26.8341 26.7842C26.8196 26.7825 26.8062 26.7758 26.7962 26.7653C26.7862 26.7547 26.7802 26.741 26.7793 26.7265C26.7635 26.4791 26.7436 25.8667 27.1109 25.8342C27.2771 25.8195 27.4564 25.808 27.6487 25.7996C27.708 25.7972 27.7641 25.7724 27.8056 25.7303C27.8471 25.6882 27.8707 25.632 27.8718 25.5731L27.8834 24.9555C27.8848 24.9171 27.8662 24.9017 27.8276 24.9094C27.7824 24.9183 27.7385 24.9296 27.6949 24.9409C27.5996 24.9656 27.5057 24.9899 27.4024 24.987C27.1428 24.9814 26.8972 24.9961 26.6657 25.031ZM14.4293 29.0495C14.4372 29.0492 14.445 29.051 14.452 29.0547C14.4681 29.063 14.4811 29.0749 14.4909 29.0903C14.8487 29.6551 15.2417 30.2406 15.6697 30.8466C15.6931 30.88 15.7242 30.9074 15.7604 30.9264C15.7967 30.9453 15.837 30.9554 15.878 30.9557L16.7084 30.9651C16.8024 30.9665 16.8224 30.9288 16.7684 30.8519L15.3066 28.8009C15.2855 28.7715 15.2859 28.7422 15.3076 28.7128C15.7019 28.1886 16.0963 27.6664 16.4906 27.1463C16.541 27.0796 16.6096 27.0217 16.6769 26.9649L16.6769 26.9649C16.708 26.9387 16.7388 26.9127 16.7674 26.8862C16.8565 26.8045 16.8407 26.7667 16.72 26.773C16.4962 26.7856 16.2818 26.7873 16.077 26.7782C15.7833 26.7657 15.616 26.9596 15.4508 27.1673C15.1238 27.5797 14.8112 27.9974 14.513 28.4203C14.4197 28.5524 14.3751 28.5381 14.3794 28.3773C14.3969 27.6056 14.4015 26.7894 14.393 25.9289C14.3902 25.6451 14.4204 25.3921 14.4835 25.1698C14.5179 25.0481 14.472 24.9884 14.3457 24.9905L13.8721 24.9978C13.6069 25.0013 13.4739 25.1355 13.4732 25.4004L13.469 30.8582C13.469 30.9295 13.5048 30.9648 13.5763 30.9641L14.2699 30.9546C14.3043 30.9541 14.3371 30.9401 14.3612 30.9158C14.3852 30.8914 14.3986 30.8586 14.3983 30.8246L14.3857 29.0956C14.3855 29.0877 14.3874 29.08 14.3911 29.0731C14.3949 29.0662 14.4004 29.0604 14.4071 29.0562C14.4138 29.0521 14.4215 29.0498 14.4293 29.0495ZM22.3285 30.1277C22.4366 30.2626 22.5874 30.2913 22.7811 30.2137C22.7931 30.2088 22.8062 30.2069 22.8191 30.2084C22.8321 30.2098 22.8444 30.2144 22.8551 30.2218C22.8658 30.2292 22.8744 30.2392 22.8802 30.2507C22.8861 30.2623 22.8889 30.2752 22.8884 30.2881L22.8748 30.8019C22.8733 30.8425 22.8579 30.8764 22.8284 30.9036C22.7471 30.9798 22.646 31.0239 22.5253 31.0357C21.6781 31.1175 21.3571 30.6971 21.3592 29.9568C21.3634 28.4615 21.3638 26.8688 21.3603 25.1785C21.3603 25.1308 21.3792 25.0849 21.4129 25.051C21.4465 25.017 21.4923 24.9977 21.5402 24.9971L22.1886 24.9887C22.2629 24.988 22.3001 25.0247 22.3001 25.0988L22.2991 30.0428C22.2991 30.0734 22.3095 30.1033 22.3285 30.1277ZM23.6515 25.3315H24.3671C24.4351 25.3315 24.4903 25.3865 24.4903 25.4542V26.1568C24.4903 26.2245 24.4351 26.2794 24.3671 26.2794H23.6515C23.5835 26.2794 23.5283 26.2245 23.5283 26.1568V25.4542C23.5283 25.3865 23.5835 25.3315 23.6515 25.3315ZM11.3241 29.2916L11.324 29.2915C10.6037 29.0247 9.93909 28.7785 10.0328 27.7953C10.1064 27.0204 10.801 26.7698 11.4746 26.7928C11.7882 26.8033 12.0885 26.7778 12.3755 26.7163C12.4422 26.7016 12.4748 26.7282 12.4734 26.796L12.4671 27.3612C12.4657 27.4667 12.4127 27.5272 12.3081 27.5426C12.0057 27.5873 11.7051 27.6114 11.4062 27.6149C10.9031 27.6202 10.7768 28.1748 11.2704 28.3458C11.5139 28.4296 11.744 28.517 11.9608 28.6079C12.5997 28.8763 12.8691 29.4761 12.7112 30.1346C12.4902 31.0552 11.423 31.1297 10.6348 31.0007C10.4432 30.9682 10.0264 30.8487 10.0191 30.6043C10.0142 30.4268 10.0078 30.2391 10.0001 30.0413C9.99802 29.9846 10.0226 29.9689 10.0738 29.9941C10.4685 30.1923 10.94 30.2615 11.3715 30.2164C11.9124 30.1587 11.9535 29.5285 11.4704 29.3461C11.4217 29.3277 11.3731 29.3097 11.3247 29.2918L11.3247 29.2918L11.3241 29.2916ZM31.7585 28.9987V28.9065C31.7437 28.7673 31.7374 28.5444 31.7395 28.2375C31.7501 26.9855 30.5987 26.5378 29.5357 26.7821C28.3706 27.0516 28.2096 28.2658 28.3012 29.3112C28.3833 30.2497 28.8327 30.9595 29.8725 31.0329C30.4675 31.0742 30.9762 31.0064 31.3985 30.8295C31.4585 30.8043 31.5097 30.7621 31.5459 30.7082C31.582 30.6543 31.6014 30.5912 31.6017 30.5265L31.6038 30.063C31.6045 29.9679 31.562 29.941 31.4764 29.9823C31.0674 30.1766 30.5994 30.2615 30.0725 30.2371C29.923 30.23 29.7776 30.186 29.6494 30.1091C29.5212 30.0323 29.4141 29.9249 29.3378 29.7967L29.2505 29.6488C29.0919 29.3832 29.1677 29.2556 29.4778 29.2661C30.0475 29.2864 30.685 29.2902 31.3901 29.2776C31.609 29.2734 31.7318 29.1805 31.7585 28.9987ZM30.8376 28.507L29.2631 28.509C29.2483 28.509 29.2341 28.5032 29.2237 28.4928C29.2132 28.4824 29.2073 28.4682 29.2073 28.4535V28.3979C29.207 28.1678 29.2867 27.947 29.429 27.784C29.5713 27.621 29.7645 27.5292 29.9662 27.5287H30.1303C30.2303 27.5284 30.3294 27.5506 30.4219 27.5941C30.5144 27.6375 30.5984 27.7013 30.6693 27.7819C30.7402 27.8624 30.7964 27.9581 30.8349 28.0634C30.8733 28.1688 30.8932 28.2817 30.8934 28.3958V28.4514C30.8934 28.4661 30.8875 28.4803 30.877 28.4907C30.8666 28.5011 30.8524 28.507 30.8376 28.507ZM18.0103 32.3797H17.9451L17.8619 32.3482C17.8296 32.3364 17.8191 32.314 17.8303 32.2811L18.2766 30.9704C18.3005 30.9011 18.3005 30.8258 18.2766 30.7565L16.9673 26.965C16.9259 26.8454 16.9687 26.7853 17.0957 26.7846L17.7167 26.7836C17.8051 26.7836 17.8626 26.8255 17.8893 26.9094L18.7702 29.6922C18.7727 29.7005 18.7779 29.7077 18.7849 29.7128C18.7919 29.7179 18.8003 29.7206 18.809 29.7205C18.8177 29.7204 18.8261 29.7175 18.8329 29.7122C18.8398 29.7069 18.8447 29.6995 18.847 29.6912C19.0701 28.9251 19.3434 28.0527 19.6669 27.074C19.7062 26.9552 19.7781 26.8765 19.8826 26.8381C20.0405 26.7808 20.2983 26.7633 20.6562 26.7857C20.7067 26.7891 20.7197 26.8129 20.6951 26.857L20.6781 26.8866C20.6342 26.9632 20.5873 27.0448 20.5594 27.1264C19.9966 28.7762 19.4276 30.4392 18.8523 32.1155C18.7898 32.2986 18.6632 32.3811 18.4723 32.3629C18.3124 32.3482 18.1584 32.3538 18.0103 32.3797ZM23.6236 26.789L24.3772 26.7877C24.426 26.7876 24.4656 26.827 24.4657 26.8756L24.4727 30.8706C24.4728 30.9192 24.4333 30.9587 24.3845 30.9588L23.6309 30.9601C23.5821 30.9602 23.5424 30.9209 23.5423 30.8722L23.5353 26.8772C23.5353 26.8286 23.5748 26.7891 23.6236 26.789Z" fill="#ED1C24"/>
<path d="M18.0844 17.7511L21.752 13.238H19.7525C18.8545 13.238 18.2398 13.5122 17.6936 14.1498L15.7627 16.524V10H13.8249C13.3702 10 13 10.3702 13 10.8272V23H14.9378C15.3948 23 15.7627 22.6298 15.7627 22.1728V18.9348L17.3326 20.8611L18.6671 22.5041C18.9367 22.8423 19.2909 22.9977 19.6542 22.9977H22.3575L20.6094 20.852L18.0844 17.7488V17.7511ZM26.5599 20.7035C26.1531 20.7035 25.8195 20.3698 25.8195 19.9608V10H23.8817C23.427 10 23.0545 10.3702 23.0545 10.8249V20.4795C23.0545 21.9717 24.0851 23 25.5773 23H27.707C28.164 23 28.5342 22.6298 28.5342 22.1728V20.7012H26.5599V20.7035Z" fill="#231F20"/>
<path d="M16.0257 16.1926L16.0303 16.1881C16.0303 16.1881 16.028 16.1904 16.0234 16.1926H16.0257ZM28.932 14.3508V12.5182L28.7607 12.6987C28.7538 12.701 28.2351 13.2311 26.7452 13.2311H19.7002C18.5873 13.2311 18.0618 13.6836 17.6641 14.1749L17.4471 14.4423C17.4471 14.4423 17.4334 14.4582 17.4265 14.4651L16.028 16.1858C16.5376 15.8019 17.2323 15.5711 17.9429 15.5711H26.7429C27.81 15.5711 28.8361 15.258 28.9206 14.4582C28.932 14.392 28.9297 14.3508 28.9297 14.3508H28.932Z" fill="#ED1C24"/>
<path d="M21 0.5C32.3235 0.5 41.4998 9.64489 41.5 20.9219C41.5 32.199 32.3236 41.3447 21 41.3447C9.67641 41.3447 0.5 32.199 0.5 20.9219C0.500216 9.64489 9.67655 0.5 21 0.5Z" stroke="black" stroke-opacity="0.05"/>
</svg>
