<svg width="42" height="42" viewBox="0 0 42 42" fill="none" xmlns="http://www.w3.org/2000/svg">
<ellipse cx="21" cy="20.9223" rx="21" ry="20.9223" fill="#EC0C8D"/>
<g clip-path="url(#clip0_9_329975)">
<path fill-rule="evenodd" clip-rule="evenodd" d="M28.1645 13.3216L31.1448 15.4268V15.4303C32.4076 16.3158 32.6281 16.9842 32.6281 18.2917V23.7976C32.6281 25.0672 32.399 25.7787 31.1448 26.659L26.3608 30.039C25.2703 30.8091 23.3271 31.1967 22.023 30.9004L12.3619 28.716C11.0578 28.4197 10 27.0983 10 25.7615V16.3192C10 14.9824 11.0578 13.6593 12.3619 13.3647L22.0247 11.1855C22.9015 10.9925 24.5381 10.7565 25.7062 11.5886C25.7058 11.5883 25.7274 11.6034 25.7667 11.631C26.5178 12.194 27.0637 13.2162 27.0637 15.0049L27.0602 15.0014V15.3081L24.5605 14.0281C24.2935 13.892 23.8353 13.8196 23.539 13.8679L20.7257 14.3244C20.3967 14.3778 20.1297 14.6913 20.1297 15.0273V22.9294C20.1297 24.5488 19.022 24.945 17.8005 24.8262L16.0623 24.659C14.7306 24.5281 14.2362 23.5513 14.2362 22.404V15.9885C14.2362 15.6543 13.9709 15.4269 13.6401 15.4786L12.088 15.7284C11.7589 15.7801 11.4902 16.0953 11.4902 16.4296V22.6986C11.4902 25.3344 13.1716 26.7815 16.1846 27.2345L18.3656 27.5687C21.5595 28.0477 24.0799 26.5282 24.0799 22.8932V17.5269L27.0637 18.2918V21.4289C27.0637 21.7631 27.3324 22.0095 27.6649 21.9802L28.7416 21.8992C29.0741 21.8699 29.3446 21.5754 29.3446 21.2394V18.8758L30.914 19.279C31.1069 19.3289 31.2654 19.2083 31.2654 19.0068V17.8232C31.2654 17.6234 31.1207 17.3857 30.9433 17.2944L29.3463 16.4778V16.0695C29.3463 14.4536 28.6176 13.7662 28.1404 13.3665C28.107 13.3379 28.1279 13.3063 28.1611 13.3193C28.1634 13.3209 28.1645 13.3216 28.1645 13.3216Z" fill="white"/>
</g>
<path d="M21 0.5C32.3235 0.5 41.4998 9.64489 41.5 20.9219C41.5 32.199 32.3236 41.3447 21 41.3447C9.67641 41.3447 0.5 32.199 0.5 20.9219C0.500216 9.64489 9.67655 0.5 21 0.5Z" stroke="black" stroke-opacity="0.05"/>
<defs>
<clipPath id="clip0_9_329975">
<rect width="22.7273" height="20" fill="white" transform="translate(10 11)"/>
</clipPath>
</defs>
</svg>
