<svg width="42" height="42" viewBox="0 0 42 42" fill="none" xmlns="http://www.w3.org/2000/svg">
<ellipse cx="21" cy="20.9223" rx="21" ry="20.9223" fill="white"/>
<g clip-path="url(#clip0_9_330046)">
<path d="M28.8124 18.5039C27.973 18.3259 27.2187 17.9894 26.5418 17.4943C24.9134 16.3068 24.1088 14.3109 24.8283 12.3691C25.54 10.4505 27.4702 9.2669 29.4313 9.04642C30.5994 8.91491 31.7057 9.0735 32.7462 9.5222C35.303 10.6207 36.7071 13.4212 35.2334 15.9896C34.3244 17.5755 32.5528 18.4536 30.7696 18.6315C30.7503 18.6315 30.7348 18.6431 30.7232 18.6586C30.3403 19.1537 29.7407 19.6063 29.1296 19.7301C28.6499 19.8268 28.1741 19.8113 27.7022 19.6836C27.6558 19.672 27.6558 19.6566 27.7022 19.6372C28.1974 19.4283 28.6499 19.0686 28.8356 18.5542C28.8433 18.531 28.8356 18.5155 28.8124 18.5077V18.5039ZM28.0852 12.0635C28.0388 11.7928 27.9227 11.4176 27.6365 11.3286C27.3541 11.2435 27.0563 11.4137 27.0331 11.7115C27.0253 11.816 27.0447 11.9436 27.0911 12.0867C27.2033 12.4271 27.2187 12.7946 27.1607 13.1543C27.0215 14.0246 26.8822 14.8872 26.743 15.7459C26.712 15.9355 26.7623 16.0786 26.8977 16.183C27.0911 16.3339 27.4083 16.3455 27.5785 16.1482C27.6365 16.0786 27.6713 16.0051 27.6868 15.9239C27.8028 15.2586 27.9111 14.5778 28.0156 13.8815C28.0774 13.456 28.1509 13.1621 28.236 12.9919C28.472 12.52 28.9246 12.0945 29.4816 12.1215C29.9148 12.1448 29.9496 12.6321 29.8993 12.9571C29.7523 13.9125 29.6092 14.8408 29.4661 15.7421C29.4197 16.0438 29.6285 16.2913 29.9225 16.2991C30.2358 16.3107 30.3828 16.1134 30.4292 15.8349C30.5414 15.1386 30.6536 14.4424 30.758 13.7423C30.8044 13.4328 30.8663 13.1969 30.9398 13.0383C31.1564 12.5586 31.6167 12.1138 32.1621 12.1215C32.6224 12.1293 32.6766 12.5935 32.6224 12.9416C32.4948 13.7887 32.3517 14.717 32.1892 15.7189C32.0809 16.3842 33.0363 16.5466 33.1446 15.8542C33.2955 14.9066 33.4386 13.986 33.5817 13.0886C33.6939 12.3691 33.6746 11.5297 32.8197 11.3093C32.0538 11.1081 31.346 11.433 30.8741 12.0403C30.8663 12.0481 30.8547 12.0519 30.847 12.0403C30.847 12.0403 30.8431 12.0326 30.8393 12.0287C30.7271 11.6458 30.4834 11.406 30.1043 11.3093C29.2766 11.0965 28.6577 11.4446 28.12 12.0713C28.1123 12.079 28.1007 12.0829 28.0891 12.0713C28.0852 12.0713 28.0813 12.0635 28.0813 12.0558L28.0852 12.0635Z" fill="#26B5E3"/>
<path d="M16.6832 20.4151C17.6801 20.25 18.3542 19.3064 18.1888 18.3074C18.0234 17.3084 17.0812 16.6323 16.0843 16.7974C15.0874 16.9624 14.4134 17.906 14.5787 18.905C14.7441 19.904 15.6863 20.5801 16.6832 20.4151Z" fill="#584F41"/>
<path d="M21.103 20.4341C22.1135 20.4341 22.9326 19.615 22.9326 18.6045C22.9326 17.594 22.1135 16.7749 21.103 16.7749C20.0926 16.7749 19.2734 17.594 19.2734 18.6045C19.2734 19.615 20.0926 20.4341 21.103 20.4341Z" fill="#584F41"/>
<path d="M9.93593 25.0215C9.93593 25.0215 9.94367 25.0447 9.95527 25.0447C10.756 25.0447 11.5721 25.0447 12.3999 25.0447C12.6049 25.0447 12.7558 25.0679 12.8602 25.1182C13.2779 25.3155 13.3824 25.6559 13.363 26.1278C13.3514 26.4295 13.3514 26.7273 13.363 27.0252C13.3708 27.2031 13.3476 27.3578 13.2934 27.4855C13.1542 27.8104 12.8447 28.0038 12.4927 28.0038C11.0267 28.0038 9.63809 27.9999 8.32294 28.0038C7.55319 28.0038 7.00006 27.3733 7.00393 26.619C7.00779 25.1491 7.00779 23.7876 7.00393 22.5304C7.00393 22.2365 7.02713 22.0392 7.07742 21.9348C7.24762 21.5828 7.54159 21.4242 7.9284 21.4319C8.29973 21.4396 8.6672 21.4396 9.03467 21.4319C9.406 21.4242 9.73092 21.6098 9.87017 21.9464C9.92046 22.0663 9.94367 22.2365 9.94367 22.457C9.94367 23.3659 9.9398 24.2247 9.94367 25.0292L9.93593 25.0215Z" fill="#FCBF24"/>
<path d="M17.0067 21.4282H15.7535C15.292 21.4282 14.918 21.8023 14.918 22.2637V27.1607C14.918 27.6222 15.292 27.9962 15.7535 27.9962H17.0067C17.4682 27.9962 17.8422 27.6222 17.8422 27.1607V22.2637C17.8422 21.8023 17.4682 21.4282 17.0067 21.4282Z" fill="#FCBF24"/>
<path d="M21.7216 21.4282H20.4761C20.0103 21.4282 19.6328 21.8058 19.6328 22.2715V27.153C19.6328 27.6187 20.0103 27.9962 20.4761 27.9962H21.7216C22.1873 27.9962 22.5648 27.6187 22.5648 27.153V22.2715C22.5648 21.8058 22.1873 21.4282 21.7216 21.4282Z" fill="#FCBF24"/>
<path d="M27.919 23.8999C28.2478 23.2268 28.5804 22.5499 28.9247 21.8691C29.0717 21.579 29.3192 21.4321 29.6751 21.4321C30.1509 21.4321 30.6266 21.4321 31.1024 21.4321C31.7948 21.4359 31.9302 22.0742 31.6787 22.5847C30.9902 23.9772 30.2901 25.4046 29.5822 26.8667C29.385 27.2767 29.2419 27.5281 29.1529 27.621C28.739 28.0658 28.2439 27.9923 27.714 28.0001C27.1492 28.0117 26.7044 27.8453 26.4414 27.3077C25.6639 25.7295 24.898 24.1668 24.1399 22.6157C23.9581 22.2405 23.9039 21.6912 24.3758 21.4978C24.4957 21.4514 24.6427 21.4243 24.8206 21.4243C25.2771 21.4243 25.7296 21.4243 26.1783 21.4321C26.5806 21.4321 26.7895 21.6757 26.9636 22.0316C27.273 22.6698 27.5786 23.2926 27.8842 23.8999C27.888 23.9076 27.8996 23.9115 27.9074 23.9076C27.9074 23.9076 27.9112 23.9038 27.9151 23.8999H27.919Z" fill="#FCBF24"/>
</g>
<path d="M21 0.5C32.3235 0.5 41.4998 9.64489 41.5 20.9219C41.5 32.199 32.3236 41.3447 21 41.3447C9.67641 41.3447 0.5 32.199 0.5 20.9219C0.500216 9.64489 9.67655 0.5 21 0.5Z" stroke="black" stroke-opacity="0.05"/>
<defs>
<clipPath id="clip0_9_330046">
<rect width="28.8327" height="19" fill="white" transform="translate(7 9)"/>
</clipPath>
</defs>
</svg>
