<svg width="42" height="42" viewBox="0 0 42 42" fill="none" xmlns="http://www.w3.org/2000/svg">
<ellipse cx="21" cy="20.9223" rx="21" ry="20.9223" fill="white"/>
<path d="M32 20.9222C32 26.9744 27.0747 31.8815 21 31.8815C14.9253 31.8815 10 26.9744 10 20.9222C10 14.87 14.9253 9.96289 21 9.96289C27.0747 9.96289 32 14.87 32 20.9222ZM26.0737 18.3495C26.1888 19.7263 26.1866 21.0656 26.0693 22.3674C25.7481 25.8778 24.2599 29.6706 20.9668 31.3056C20.4264 31.5748 20.453 31.6476 21.0443 31.5262C24.7206 30.7672 27.3382 28.0776 28.7135 24.5716C29.7455 21.9393 29.6414 18.8857 28.1133 16.4895C25.0727 11.728 18.2649 11.1455 14.5245 15.6047C13.55 16.7675 12.9499 18.1002 12.724 19.6072C12.4516 21.4363 12.7284 23.1551 13.5567 24.7658C15.1113 27.7819 18.2229 29.45 21.6644 29.2382C21.7397 29.2338 21.7973 29.1698 21.7928 29.0948V29.0903C21.4208 25.0107 22.7274 20.8913 25.9231 18.2877C25.963 18.2546 26.0205 18.2612 26.0538 18.2987C26.0648 18.312 26.0737 18.3296 26.0737 18.3495Z" fill="#99BE2F"/>
<path d="M26.074 18.3496C26.0696 18.2988 26.0253 18.2635 25.9744 18.268C25.9545 18.268 25.9367 18.2768 25.9235 18.2878C22.7278 20.8914 21.4211 25.0108 21.7932 29.0904C21.7998 29.1655 21.7445 29.2295 21.6692 29.2383H21.6647C18.2232 29.4501 15.1117 27.782 13.557 24.7659C12.7288 23.1552 12.4519 21.4364 12.7243 19.6073C12.9502 18.1003 13.5504 16.7676 14.5248 15.6048C18.2653 11.1456 25.073 11.7281 28.1137 16.4896C29.6418 18.8858 29.7459 21.9394 28.7139 24.5717C27.3386 28.0777 24.7209 30.7673 21.0447 31.5263C20.4534 31.6477 20.4268 31.5749 20.9671 31.3057C24.2603 29.6707 25.7485 25.8779 26.0696 22.3675C26.187 21.0657 26.1892 19.7264 26.074 18.3496Z" fill="#0D1E8E"/>
<path d="M21 0.5C32.3235 0.5 41.4998 9.64489 41.5 20.9219C41.5 32.199 32.3236 41.3447 21 41.3447C9.67641 41.3447 0.5 32.199 0.5 20.9219C0.500216 9.64489 9.67655 0.5 21 0.5Z" stroke="black" stroke-opacity="0.05"/>
</svg>
