<svg width="42" height="42" viewBox="0 0 42 42" fill="none" xmlns="http://www.w3.org/2000/svg">
<ellipse cx="21" cy="20.9223" rx="21" ry="20.9223" fill="white"/>
<path d="M32.3585 21.1844C32.3585 27.4763 27.2576 32.5726 20.9703 32.5726C14.6784 32.5726 9.58203 27.4717 9.58203 21.1844C9.58203 14.8925 14.683 9.79614 20.9703 9.79614C27.2622 9.79614 32.3585 14.8971 32.3585 21.1844ZM31.7907 21.1844C31.7907 15.2064 26.9437 10.3639 20.9703 10.3639C14.9969 10.3639 10.1452 15.2018 10.1452 21.1798C10.1452 27.1578 14.9923 32.0002 20.9657 32.0002C26.9437 32.0002 31.7861 27.1532 31.7861 21.1798L31.7907 21.1844Z" fill="#231815"/>
<path d="M22.7382 30.417C22.8074 30.3662 22.9782 30.2877 23.2506 30.1954C24.9309 29.6045 26.2281 28.4736 27.1513 26.7979C27.2806 26.5624 27.4098 26.2578 27.5437 25.8885C27.5945 25.7407 27.636 25.5976 27.6683 25.4592C27.7006 25.3068 27.7329 25.1637 27.7653 25.0252C28.1438 23.3634 27.8253 21.6277 26.9482 20.1274C25.9742 18.4563 24.497 17.353 22.5074 16.8222C22.3689 16.7852 22.1842 16.7714 21.958 16.776C19.9084 16.3698 17.9188 17.2884 16.9725 19.1257C16.5709 19.9012 16.4093 20.686 16.4832 21.48C16.6586 23.3403 17.628 24.6559 19.396 25.4222C19.3591 25.4222 19.3268 25.4176 19.2945 25.4222C19.2806 25.4222 19.2806 25.4222 19.2945 25.4315C19.2945 25.4315 19.2991 25.4315 19.3037 25.4361C19.3314 25.4453 19.3314 25.4499 19.3037 25.4545C19.2806 25.4545 19.2575 25.4545 19.2391 25.4545C18.1589 25.1591 17.2495 24.6882 16.5016 24.0327C16.3031 23.8573 16.1139 23.6727 15.9246 23.4696C15.6523 23.1787 15.4768 22.9756 15.3938 22.8741C14.6644 21.9277 14.2258 20.8245 14.0781 19.5596V17.7777C14.2166 16.7022 14.5905 15.7281 15.1953 14.8557C15.9108 13.8262 16.8248 13.0415 17.9327 12.4922C18.0573 12.4321 18.2927 12.3398 18.6343 12.2152C18.8698 12.1321 19.1006 12.0351 19.336 11.9244C20.0654 11.7951 20.8086 11.7536 21.5518 11.7997C21.9903 11.8274 22.4243 11.8874 22.8582 11.9751C24.0861 12.229 25.254 12.723 26.2881 13.4339C28.1946 14.7449 29.5517 16.7114 30.1011 18.9641C30.6273 21.1384 30.3642 23.4326 29.3532 25.4268C28.3054 27.4949 26.5327 29.1014 24.3769 29.9415C23.8461 30.1492 23.2967 30.3062 22.7382 30.4124V30.417Z" fill="#E50012"/>
<path d="M19.3449 11.9243C19.1141 12.0351 18.8786 12.132 18.6432 12.2151C18.3016 12.3398 18.0662 12.4321 17.9415 12.4921C16.8336 13.0368 15.9196 13.8262 15.2041 14.8556C14.5948 15.7281 14.2255 16.7067 14.087 17.7777C13.9993 18.3593 13.9993 18.9548 14.087 19.5595C14.2347 20.8198 14.6732 21.9231 15.4026 22.874C15.4811 22.9802 15.6611 23.1787 15.9335 23.4695C16.1181 23.668 16.312 23.8573 16.5105 24.0327C17.2583 24.6882 18.1677 25.159 19.2479 25.4545C19.271 25.4591 19.2895 25.4591 19.3125 25.4545C19.3449 25.4545 19.3449 25.4452 19.3125 25.436C19.3125 25.436 19.3079 25.436 19.3033 25.4314C19.2941 25.4268 19.2941 25.4222 19.3033 25.4222C19.331 25.4222 19.3633 25.4222 19.4049 25.4222C20.7897 25.8515 22.05 25.7453 23.1856 25.0944C25.4383 23.8111 26.14 20.9767 24.7736 18.7748C24.155 17.7777 23.2179 17.1083 21.9669 16.7713C22.1931 16.7667 22.3777 16.7806 22.5162 16.8175C24.5058 17.3484 25.983 18.447 26.957 20.1227C27.8295 21.623 28.148 23.3541 27.7741 25.0205C27.7418 25.159 27.7095 25.3068 27.6772 25.4545C27.6495 25.593 27.6079 25.7361 27.5525 25.8838C27.4187 26.2531 27.2894 26.5531 27.1601 26.7932C26.2415 28.4689 24.9397 29.5998 23.2594 30.1907C22.9871 30.2877 22.8163 30.3615 22.747 30.4123C20.9559 30.7585 19.1048 30.5739 17.4199 29.8814C14.7563 28.792 12.739 26.5439 11.945 23.7788C11.128 20.9352 11.6958 17.87 13.4822 15.5065C14.8717 13.6738 16.8844 12.409 19.1417 11.9612C19.2156 11.9474 19.2849 11.9335 19.3587 11.9197L19.3449 11.9243Z" fill="#003B8F"/>
<path d="M21.9619 16.7807C23.2129 17.1177 24.15 17.787 24.7686 18.7841C26.1396 20.9861 25.4333 23.8158 23.1806 25.1037C22.045 25.7546 20.7848 25.8608 19.3999 25.4315C17.6319 24.6652 16.6579 23.3496 16.4871 21.4892C16.4132 20.6906 16.5748 19.9059 16.9764 19.135C17.9274 17.2977 19.9169 16.3837 21.9619 16.7853V16.7807ZM21.4772 17.8009C21.4772 17.5285 21.2557 17.3069 20.9833 17.3069C20.7109 17.3069 20.4894 17.5285 20.4894 17.8009C20.4894 18.0732 20.7109 18.2948 20.9833 18.2948C21.2557 18.2948 21.4772 18.0732 21.4772 17.8009ZM20.3093 17.847C20.0877 17.847 19.9539 17.9624 19.7461 17.9994C19.7369 17.9994 19.7369 18.004 19.7323 18.0132C19.7277 18.0224 19.7323 18.0271 19.7415 18.0271C19.7415 18.0271 19.7508 18.0271 19.7554 18.0271C19.94 17.967 20.1293 17.9163 20.3139 17.8701C20.3924 17.8516 20.3924 17.8424 20.3139 17.8424L20.3093 17.847ZM19.483 18.4517C19.483 18.184 19.2661 17.967 18.9983 17.967C18.7306 17.967 18.5136 18.184 18.5136 18.4517C18.5136 18.7195 18.7306 18.9365 18.9983 18.9365C19.2661 18.9365 19.483 18.7195 19.483 18.4517ZM23.4668 18.4517C23.4668 18.1794 23.2453 17.9578 22.9729 17.9578C22.7005 17.9578 22.479 18.1794 22.479 18.4517C22.479 18.7241 22.7005 18.9457 22.9729 18.9457C23.2453 18.9457 23.4668 18.7241 23.4668 18.4517ZM23.9423 19.4673C23.8084 19.2457 23.6561 19.0472 23.4945 18.8626C23.4853 18.8534 23.4761 18.8534 23.4714 18.8626C23.4714 18.8626 23.4622 18.8811 23.4714 18.8857C23.6423 19.0703 23.7854 19.2734 23.91 19.4904C23.9192 19.5042 23.9285 19.5042 23.9377 19.4996C23.9377 19.4996 23.9515 19.4812 23.9469 19.4673H23.9423ZM21.3757 19.7166C21.3757 19.4996 21.2003 19.3242 20.9833 19.3242C20.7663 19.3242 20.5909 19.4996 20.5909 19.7166C20.5909 19.9336 20.7663 20.109 20.9833 20.109C21.2003 20.109 21.3757 19.9336 21.3757 19.7166ZM18.2459 20.1413C18.2459 19.8735 18.0289 19.6566 17.7612 19.6566C17.4934 19.6566 17.2765 19.8735 17.2765 20.1413C17.2765 20.409 17.4934 20.626 17.7612 20.626C18.0289 20.626 18.2459 20.409 18.2459 20.1413ZM24.6901 20.1413C24.6901 19.8689 24.4686 19.652 24.2008 19.652C23.9331 19.652 23.7115 19.8735 23.7115 20.1413C23.7115 20.4136 23.9331 20.6306 24.2008 20.6306C24.4686 20.6306 24.6901 20.409 24.6901 20.1413ZM19.9169 21.1846C19.9169 20.963 19.7369 20.7876 19.52 20.7876C19.2984 20.7876 19.123 20.9676 19.123 21.1846C19.123 21.4061 19.303 21.5816 19.52 21.5816C19.7415 21.5816 19.9169 21.4015 19.9169 21.1846ZM21.3757 21.1846C21.3757 20.963 21.1956 20.7876 20.9787 20.7876C20.7617 20.7876 20.5817 20.9676 20.5817 21.1846C20.5817 21.4061 20.7617 21.5816 20.9787 21.5816C21.2003 21.5816 21.3757 21.4015 21.3757 21.1846ZM22.8483 21.1846C22.8483 20.963 22.6682 20.7829 22.4466 20.7829C22.2251 20.7829 22.045 20.963 22.045 21.1846C22.045 21.4061 22.2251 21.5862 22.4466 21.5862C22.6682 21.5862 22.8483 21.4061 22.8483 21.1846ZM18.2413 22.2371C18.2413 21.9693 18.0243 21.757 17.7612 21.757C17.498 21.757 17.2811 21.9739 17.2811 22.2371C17.2811 22.5002 17.498 22.7171 17.7612 22.7171C18.0243 22.7171 18.2413 22.5002 18.2413 22.2371ZM24.644 21.997C24.5147 21.7616 24.2147 21.6831 23.97 21.817C23.7253 21.9509 23.633 22.2509 23.7623 22.4817C23.8915 22.7171 24.1916 22.7956 24.4362 22.6618C24.6809 22.5279 24.7732 22.2278 24.644 21.997ZM21.3757 22.6571C21.3757 22.4402 21.2003 22.2694 20.9879 22.2694C20.7756 22.2694 20.6002 22.4448 20.6002 22.6571C20.6002 22.8695 20.7756 23.0449 20.9879 23.0449C21.2003 23.0449 21.3757 22.8695 21.3757 22.6571ZM19.4784 23.9266C19.4784 23.6589 19.2614 23.4419 18.9937 23.4419C18.726 23.4419 18.509 23.6589 18.509 23.9266C18.509 24.1943 18.726 24.4113 18.9937 24.4113C19.2614 24.4113 19.4784 24.1943 19.4784 23.9266ZM23.453 23.9266C23.453 23.6589 23.236 23.4419 22.9683 23.4419C22.7005 23.4419 22.4836 23.6589 22.4836 23.9266C22.4836 24.1943 22.7005 24.4113 22.9683 24.4113C23.236 24.4113 23.453 24.1943 23.453 23.9266ZM21.4726 24.5729C21.4726 24.3051 21.2557 24.0836 20.9833 24.0836C20.7156 24.0836 20.494 24.3005 20.494 24.5729C20.494 24.8406 20.7109 25.0622 20.9833 25.0622C21.251 25.0622 21.4726 24.8452 21.4726 24.5729ZM20.1847 24.4944C20.1847 24.4944 20.0462 24.4205 19.8662 24.3605C19.6861 24.2959 19.5338 24.259 19.5292 24.2682C19.5292 24.282 19.6677 24.3421 19.8477 24.4021C20.0277 24.4667 20.1801 24.5036 20.1847 24.4944Z" fill="white"/>
<path d="M20.9842 18.2901C21.257 18.2901 21.4781 18.069 21.4781 17.7962C21.4781 17.5234 21.257 17.3022 20.9842 17.3022C20.7114 17.3022 20.4902 17.5234 20.4902 17.7962C20.4902 18.069 20.7114 18.2901 20.9842 18.2901Z" fill="#FFF000"/>
<path d="M19.7421 17.9946C19.9498 17.9623 20.0837 17.8469 20.3053 17.8423C20.3884 17.8423 20.3884 17.8515 20.3053 17.87C20.1206 17.9161 19.9314 17.9669 19.7467 18.0269C19.7467 18.0269 19.7375 18.0269 19.7329 18.0269C19.7282 18.0269 19.7236 18.0177 19.7236 18.0131C19.7236 18.0085 19.7282 18.0039 19.7375 17.9992L19.7421 17.9946Z" fill="#9E9E9F"/>
<path d="M18.9945 18.9318C19.2622 18.9318 19.4792 18.7148 19.4792 18.4471C19.4792 18.1794 19.2622 17.9624 18.9945 17.9624C18.7268 17.9624 18.5098 18.1794 18.5098 18.4471C18.5098 18.7148 18.7268 18.9318 18.9945 18.9318Z" fill="#FFF000"/>
<path d="M22.9734 18.941C23.2462 18.941 23.4674 18.7199 23.4674 18.4471C23.4674 18.1743 23.2462 17.9531 22.9734 17.9531C22.7006 17.9531 22.4795 18.1743 22.4795 18.4471C22.4795 18.7199 22.7006 18.941 22.9734 18.941Z" fill="#FFF000"/>
<path d="M23.9385 19.458C23.9385 19.458 23.9431 19.481 23.9292 19.4903C23.9292 19.4903 23.9061 19.4949 23.9015 19.481C23.7769 19.2641 23.6338 19.0656 23.463 18.8763C23.4537 18.8671 23.4537 18.8578 23.463 18.8532C23.463 18.8532 23.4814 18.844 23.4861 18.8532C23.6522 19.0333 23.8 19.2364 23.9338 19.458H23.9385Z" fill="#9E9E9F"/>
<path d="M20.9793 20.1043C21.196 20.1043 21.3717 19.9287 21.3717 19.712C21.3717 19.4953 21.196 19.3196 20.9793 19.3196C20.7626 19.3196 20.5869 19.4953 20.5869 19.712C20.5869 19.9287 20.7626 20.1043 20.9793 20.1043Z" fill="#FFF000"/>
<path d="M17.762 20.6213C18.0297 20.6213 18.2468 20.4043 18.2468 20.1366C18.2468 19.8689 18.0297 19.6519 17.762 19.6519C17.4944 19.6519 17.2773 19.8689 17.2773 20.1366C17.2773 20.4043 17.4944 20.6213 17.762 20.6213Z" fill="#FFF000"/>
<path d="M24.2012 20.6259C24.4715 20.6259 24.6906 20.4068 24.6906 20.1365C24.6906 19.8663 24.4715 19.6472 24.2012 19.6472C23.931 19.6472 23.7119 19.8663 23.7119 20.1365C23.7119 20.4068 23.931 20.6259 24.2012 20.6259Z" fill="#FFF000"/>
<path d="M19.52 21.577C19.7393 21.577 19.917 21.3992 19.917 21.18C19.917 20.9607 19.7393 20.783 19.52 20.783C19.3008 20.783 19.123 20.9607 19.123 21.18C19.123 21.3992 19.3008 21.577 19.52 21.577Z" fill="#FFF000"/>
<path d="M20.979 21.5816C21.1983 21.5816 21.376 21.4038 21.376 21.1846C21.376 20.9653 21.1983 20.7876 20.979 20.7876C20.7598 20.7876 20.582 20.9653 20.582 21.1846C20.582 21.4038 20.7598 21.5816 20.979 21.5816Z" fill="#FFF000"/>
<path d="M22.4426 21.5815C22.6644 21.5815 22.8442 21.4017 22.8442 21.1799C22.8442 20.9581 22.6644 20.7783 22.4426 20.7783C22.2208 20.7783 22.041 20.9581 22.041 21.1799C22.041 21.4017 22.2208 21.5815 22.4426 21.5815Z" fill="#FFF000"/>
<path d="M17.7574 22.7124C18.0226 22.7124 18.2375 22.4974 18.2375 22.2323C18.2375 21.9671 18.0226 21.7522 17.7574 21.7522C17.4923 21.7522 17.2773 21.9671 17.2773 22.2323C17.2773 22.4974 17.4923 22.7124 17.7574 22.7124Z" fill="#FFF000"/>
<path d="M24.4274 22.6563C24.6711 22.5228 24.7645 22.2243 24.636 21.9895C24.5074 21.7547 24.2056 21.6725 23.9619 21.806C23.7181 21.9394 23.6247 22.238 23.7533 22.4728C23.8818 22.7076 24.1836 22.7897 24.4274 22.6563Z" fill="#FFF000"/>
<path d="M20.9796 23.0355C21.1937 23.0355 21.3673 22.8619 21.3673 22.6478C21.3673 22.4336 21.1937 22.26 20.9796 22.26C20.7654 22.26 20.5918 22.4336 20.5918 22.6478C20.5918 22.8619 20.7654 23.0355 20.9796 23.0355Z" fill="#FFF000"/>
<path d="M18.9896 24.402C19.2573 24.402 19.4743 24.185 19.4743 23.9173C19.4743 23.6496 19.2573 23.4326 18.9896 23.4326C18.7219 23.4326 18.5049 23.6496 18.5049 23.9173C18.5049 24.185 18.7219 24.402 18.9896 24.402Z" fill="#FFF000"/>
<path d="M22.9691 24.402C23.2368 24.402 23.4538 24.185 23.4538 23.9173C23.4538 23.6496 23.2368 23.4326 22.9691 23.4326C22.7014 23.4326 22.4844 23.6496 22.4844 23.9173C22.4844 24.185 22.7014 24.402 22.9691 24.402Z" fill="#FFF000"/>
<path d="M20.9796 25.0529C21.2498 25.0529 21.4689 24.8338 21.4689 24.5635C21.4689 24.2933 21.2498 24.0742 20.9796 24.0742C20.7093 24.0742 20.4902 24.2933 20.4902 24.5635C20.4902 24.8338 20.7093 25.0529 20.9796 25.0529Z" fill="#FFF000"/>
<path d="M20.1769 24.4851C20.181 24.4731 20.0378 24.4128 19.857 24.3506C19.6762 24.2883 19.5263 24.2476 19.5222 24.2597C19.518 24.2717 19.6612 24.332 19.842 24.3942C20.0228 24.4565 20.1727 24.4972 20.1769 24.4851Z" fill="#9E9E9F"/>
<path d="M21 0.5C32.3235 0.5 41.4998 9.64489 41.5 20.9219C41.5 32.199 32.3236 41.3447 21 41.3447C9.67641 41.3447 0.5 32.199 0.5 20.9219C0.500216 9.64489 9.67655 0.5 21 0.5Z" stroke="black" stroke-opacity="0.05"/>
</svg>
