<svg width="42" height="42" viewBox="0 0 42 42" fill="none" xmlns="http://www.w3.org/2000/svg">
<ellipse cx="21" cy="20.9223" rx="21" ry="20.9223" fill="#3B15D6"/>
<path d="M13.7923 18.7404L11.0086 14.0398C10.9911 14.0105 11.0011 13.9739 11.0311 13.9568C11.0411 13.9507 11.0523 13.9483 11.0635 13.9483H30.9363C30.9713 13.9471 30.9988 13.9739 31 14.0068C31 14.0178 30.9975 14.0288 30.9913 14.0385L21.0561 30.8553C21.0386 30.8846 20.9999 30.8943 20.97 30.8761C20.9612 30.8712 20.9537 30.8639 20.9488 30.8553L17.9341 25.7583C17.9229 25.74 17.9229 25.7156 17.9341 25.6973L21.9761 18.8611C21.9936 18.8318 21.9836 18.7952 21.9536 18.7782C21.9436 18.7721 21.9324 18.7696 21.9212 18.7696H13.846C13.8235 18.7696 13.8035 18.7587 13.7923 18.7404Z" fill="white"/>
<path d="M21 0.5C32.3235 0.5 41.4998 9.64489 41.5 20.9219C41.5 32.199 32.3236 41.3447 21 41.3447C9.67641 41.3447 0.5 32.199 0.5 20.9219C0.500216 9.64489 9.67655 0.5 21 0.5Z" stroke="black" stroke-opacity="0.05"/>
</svg>
