<svg width="42" height="42" viewBox="0 0 42 42" fill="none" xmlns="http://www.w3.org/2000/svg">
<ellipse cx="21" cy="20.9223" rx="21" ry="20.9223" fill="#EE2B74"/>
<g clip-path="url(#clip0_9_330100)">
<path d="M22.4825 15.9307C22.4783 15.4158 22.0604 15 21.5454 15C21.0305 15 20.6126 15.4158 20.6084 15.9307V23.4861C20.6126 24.0011 21.0305 24.4168 21.5454 24.4168C22.0604 24.4168 22.4783 24.0011 22.4825 23.4861V15.9307Z" fill="white"/>
<path d="M30.1768 21.2068V18.1551C30.1726 17.6401 29.7547 17.2244 29.2398 17.2244C28.7248 17.2244 28.307 17.6401 28.3027 18.1551V21.211C28.3006 22.0172 27.7034 22.6714 26.9668 22.6714C26.2303 22.6714 25.6309 22.0151 25.6309 21.2068V18.1551C25.6267 17.6401 25.2088 17.2244 24.6939 17.2244C24.1789 17.2244 23.7611 17.6401 23.7568 18.1551V21.2068C23.7568 22.9796 25.1941 24.4168 26.9668 24.4168C28.7396 24.4168 30.1768 22.9796 30.1768 21.2068Z" fill="white"/>
<path d="M15.9275 17.2245C13.9796 17.2245 12.3968 18.8095 12.3968 20.7553V22.5428H10.4657C9.84523 22.5428 9.34295 22.0405 9.34084 21.4201V19.0986H10.6324C11.1136 19.0986 11.504 18.7082 11.504 18.227C11.504 17.7458 11.1136 17.3554 10.6324 17.3554H9.34084V16.4436C9.33662 15.9287 8.91875 15.5129 8.4038 15.5129C7.88885 15.5129 7.47098 15.9287 7.46676 16.4436V17.3554H6.87161C6.39043 17.3554 6 17.7458 6 18.227C6 18.7082 6.39043 19.0986 6.87161 19.0986H7.46676V21.2913C7.46676 22.1419 7.75378 22.8552 8.32782 23.4271C8.90186 24.0012 9.61519 24.2882 10.4657 24.2882H12.3968V26.0715C12.401 26.5865 12.8189 27.0022 13.3338 27.0022C13.8488 27.0022 14.2666 26.5865 14.2708 26.0715V24.2882H15.9297C17.8776 24.2882 19.4604 22.7032 19.4604 20.7574C19.4604 18.8116 17.8755 17.2266 15.9297 17.2266L15.9275 17.2245ZM15.9909 22.5428H14.2687V20.7553C14.2687 19.7697 15.0412 18.9677 15.9909 18.9677C16.9406 18.9677 17.713 19.7697 17.713 20.7553C17.713 21.7409 16.9406 22.5428 15.9909 22.5428Z" fill="white"/>
<path d="M35.158 19.9363H34.1576C32.5072 19.9363 31.1671 21.2743 31.1671 22.9268V23.3383C31.1671 24.3239 30.3947 25.1238 29.445 25.1238H29.0503C28.5691 25.1238 28.1787 25.5142 28.1787 25.9954C28.1787 26.4766 28.5691 26.867 29.0503 26.867H29.5104C31.4583 26.867 33.0412 25.282 33.0412 23.3362V22.7959C33.0412 22.1797 33.5414 21.6795 34.1576 21.6795H35.158C35.6391 21.6795 36.0296 21.2891 36.0296 20.8079C36.0296 20.3267 35.6391 19.9363 35.158 19.9363Z" fill="white"/>
</g>
<path d="M21 0.5C32.3235 0.5 41.4998 9.64489 41.5 20.9219C41.5 32.199 32.3236 41.3447 21 41.3447C9.67641 41.3447 0.5 32.199 0.5 20.9219C0.500216 9.64489 9.67655 0.5 21 0.5Z" stroke="black" stroke-opacity="0.05"/>
<defs>
<clipPath id="clip0_9_330100">
<rect width="30.0296" height="12" fill="white" transform="translate(6 15)"/>
</clipPath>
</defs>
</svg>
