<svg width="42" height="42" viewBox="0 0 42 42" fill="none" xmlns="http://www.w3.org/2000/svg">
<ellipse cx="21" cy="20.9223" rx="21" ry="20.9223" fill="#672485"/>
<path d="M32 21C32 27.0744 27.0744 32 21 32C14.9256 32 10 27.0744 10 21C10 14.9256 14.9256 10 21 10C27.0744 10 32 14.9256 32 21ZM22.251 26.4662C20.7827 27.1511 18.8906 26.5502 18.4084 24.9102C18.2696 24.4408 18.2002 23.9587 18.1984 23.4637C18.1911 20.6055 18.1911 17.813 18.1984 15.0863C18.1984 15.0389 18.1601 15.0005 18.1144 15.0005L16.1456 15.006C16.0744 15.006 16.0397 15.0425 16.0397 15.1137C16.0598 17.4989 16.0598 20.1069 16.036 22.9396C16.0269 24.0116 16.1146 24.8316 16.2972 25.4015C17.0149 27.6369 19.1134 28.9044 21.4639 28.7181C24.0755 28.5117 25.9512 26.4224 25.953 23.8089C25.9548 20.958 25.9548 18.0432 25.953 15.0608C25.953 15.0334 25.9293 15.0096 25.9019 15.0096L23.8619 15.0042C23.829 15.0042 23.8034 15.0315 23.8034 15.0644C23.8107 17.8806 23.8089 20.7078 23.7979 23.5441C23.7925 24.7677 23.4436 25.9092 22.2529 26.4662H22.251Z" fill="white"/>
<path d="M21 0.5C32.3235 0.5 41.4998 9.64489 41.5 20.9219C41.5 32.199 32.3236 41.3447 21 41.3447C9.67641 41.3447 0.5 32.199 0.5 20.9219C0.500216 9.64489 9.67655 0.5 21 0.5Z" stroke="black" stroke-opacity="0.05"/>
</svg>
