<svg width="42" height="42" viewBox="0 0 42 42" fill="none" xmlns="http://www.w3.org/2000/svg">
<ellipse cx="21" cy="20.9223" rx="21" ry="20.9223" fill="white"/>
<g clip-path="url(#clip0_9_330214)">
<path d="M35.3909 24.0191L31.1569 16.6827C30.7983 16.0594 29.987 15.8436 29.3672 16.2022C29.1305 16.3345 28.9529 16.5399 28.838 16.7663L27.5184 19.0469C27.4418 19.1792 27.3025 19.2732 27.1319 19.2732C26.9821 19.2732 26.8498 19.1966 26.7732 19.0852L26.7454 19.0469L26.7175 19.0086L26.5957 18.7997C25.7948 17.1528 24.0957 16.0316 22.1458 16.0316C20.6103 16.0316 19.2314 16.728 18.3192 17.8213V17.8317C18.3018 17.8491 18.2809 17.87 18.2704 17.8979C18.1938 17.9745 18.0824 18.0302 17.9606 18.0302C17.7899 18.0302 17.6507 17.9362 17.5741 17.8039L16.9125 16.6618C16.8185 16.5016 16.6966 16.3589 16.5434 16.2579C16.533 16.2475 16.526 16.2475 16.5156 16.2405C16.4877 16.2231 16.4668 16.2022 16.439 16.1918C16.4285 16.1918 16.4285 16.1813 16.4216 16.1813C16.4216 16.1813 16.3937 16.1709 16.3833 16.1639C16.3659 16.1535 16.345 16.1465 16.3275 16.136C16.2997 16.1256 16.2788 16.1186 16.2509 16.0977C16.2405 16.0977 16.2335 16.0873 16.2126 16.0873C16.1848 16.0769 16.1569 16.0699 16.1186 16.0594C16.1186 16.042 16.1082 16.042 16.1012 16.042C16.0734 16.0316 16.0351 16.0246 16.0072 16.0246C15.9968 16.0246 15.9898 16.0246 15.9794 16.0142C15.9515 16.0142 15.9236 16.0037 15.8958 16.0037H15.6695C15.6416 16.0037 15.6138 16.0142 15.5859 16.0142C15.5755 16.0142 15.5685 16.0142 15.5581 16.0246C15.5302 16.0351 15.4919 16.0351 15.464 16.042C15.4536 16.042 15.4466 16.0525 15.4362 16.0525C15.4083 16.0629 15.37 16.0699 15.3422 16.0803C15.3317 16.0803 15.3248 16.0908 15.3039 16.0908C15.276 16.1012 15.2482 16.1082 15.2273 16.1291C15.2099 16.1395 15.189 16.1465 15.1716 16.1569C15.1611 16.1674 15.1437 16.1674 15.1333 16.1743C15.1333 16.1743 15.1228 16.1848 15.1159 16.1848C15.0775 16.2022 15.0601 16.2126 15.0323 16.2335C15.0218 16.244 15.0149 16.244 15.0044 16.2509C14.8617 16.3554 14.7294 16.4877 14.6353 16.6548L11.9299 21.3484C11.8533 21.4808 11.714 21.5643 11.5539 21.5643C11.3937 21.5643 11.2509 21.4808 11.1778 21.3484L8.44454 16.6548C8.08591 16.0316 7.27462 15.8157 6.65485 16.1743C6.03159 16.533 5.81571 17.3408 6.17435 17.964L10.3596 25.2133C10.471 25.4501 10.6521 25.6486 10.8888 25.7774C11.0664 25.8819 11.2579 25.9376 11.4459 25.948H11.634C11.822 25.9376 12.0204 25.8819 12.1911 25.7774C12.4278 25.6347 12.6054 25.4397 12.7203 25.2133L15.37 20.6207C15.37 20.6207 15.3805 20.6103 15.3805 20.6033C15.3909 20.5859 15.3979 20.5755 15.4083 20.565C15.4849 20.4536 15.6242 20.377 15.767 20.377C15.9376 20.377 16.0873 20.4814 16.1639 20.6207L17.7203 23.3157C17.7865 23.4376 17.8526 23.5594 17.9292 23.6743C18.5594 24.6632 19.5239 25.4188 20.6625 25.767C21.1326 25.9097 21.6235 25.9933 22.1423 25.9933C22.7656 25.9933 23.3679 25.8819 23.9146 25.6625C23.9425 25.6521 23.9808 25.6347 24.0086 25.6242C24.4717 25.4153 24.792 24.9626 24.792 24.4264C24.792 23.6987 24.2071 23.1172 23.4828 23.1172C23.3122 23.1172 23.1451 23.1555 22.9919 23.2113C22.9814 23.2113 22.9745 23.2217 22.964 23.2217C22.7099 23.3157 22.4348 23.3645 22.1423 23.3645C21.3206 23.3645 20.6068 22.9501 20.182 22.3164L20.0323 22.0518C19.8721 21.7419 19.7886 21.3833 19.7886 21.0037C19.7886 19.7015 20.8436 18.6465 22.1458 18.6465C22.9571 18.6465 23.6743 19.0504 24.0991 19.6841C24.1096 19.7015 24.1165 19.7224 24.127 19.7398L24.2872 20.0149L25.8888 22.7969C25.8993 22.8143 25.9167 22.8352 25.9271 22.8631C26.0316 23.1172 26.2196 23.3331 26.4738 23.4863C27.097 23.845 27.9083 23.6291 28.2635 23.0058L29.6388 20.6312C29.7154 20.5093 29.8547 20.4223 30.0149 20.4223C30.175 20.4223 30.3074 20.5058 30.3909 20.6312L33.1068 25.3457C33.4654 25.9689 34.2767 26.1848 34.8965 25.8262C35.5372 25.4501 35.753 24.6493 35.3979 24.0156L35.3909 24.0191Z" fill="url(#paint0_linear_9_330214)"/>
</g>
<path d="M21 0.5C32.3235 0.5 41.4998 9.64489 41.5 20.9219C41.5 32.199 32.3236 41.3447 21 41.3447C9.67641 41.3447 0.5 32.199 0.5 20.9219C0.500216 9.64489 9.67655 0.5 21 0.5Z" stroke="black" stroke-opacity="0.05"/>
<defs>
<linearGradient id="paint0_linear_9_330214" x1="9.8756" y1="21.0003" x2="31.1291" y2="21.0003" gradientUnits="userSpaceOnUse">
<stop stop-color="#7C56F6"/>
<stop offset="1" stop-color="#FF4593"/>
</linearGradient>
<clipPath id="clip0_9_330214">
<rect width="29.5648" height="10" fill="white" transform="translate(6 16)"/>
</clipPath>
</defs>
</svg>
