<svg width="42" height="42" viewBox="0 0 42 42" fill="none" xmlns="http://www.w3.org/2000/svg">
<circle cx="21" cy="21" r="21" fill="#EC5E2A"/>
<circle cx="21" cy="21" r="20.5" stroke="black" stroke-opacity="0.05"/>
<path d="M14.8253 16C11.6114 16 9 18.3571 9 21.3036C9 24.6429 11.4105 27 14.8253 27C18.2904 27 20.6507 24.6429 20.6507 21.3036C20.6507 18.3571 18.0393 16 14.8253 16ZM14.8253 24.5938C13.0175 24.5938 11.6114 23.1205 11.6114 21.3036C11.6114 19.7321 13.1179 18.3571 14.8253 18.3571C16.5328 18.3571 18.0393 19.7321 18.0393 21.3036C17.9891 23.1696 16.583 24.5938 14.8253 24.5938Z" fill="white"/>
<path d="M28.9367 26.6563H32L27.2293 21.2054H27.2795L31.5983 16.3438H28.7358L24.5175 21.0089V16.3438H22.0066V26.6563H24.5175V21.7946L24.5677 21.8437L28.9367 26.6563Z" fill="white"/>
</svg>
