<svg width="42" height="42" viewBox="0 0 42 42" fill="none" xmlns="http://www.w3.org/2000/svg">
<circle cx="21" cy="21" r="21" fill="#FF0018"/>
<circle cx="21" cy="21" r="20.5" stroke="black" stroke-opacity="0.05"/>
<g clip-path="url(#clip0_9_328540)">
<path d="M20.998 32C19.4211 31.9992 17.8798 31.5308 16.5691 30.654C15.2584 29.7773 14.2371 28.5315 13.6344 27.0744C13.0317 25.6172 12.8746 24.014 13.183 22.4675C13.4915 20.9211 14.2516 19.5008 15.3672 18.3863C16.4828 17.2719 17.9038 16.5132 19.4506 16.2064C20.9974 15.8995 22.6004 16.0582 24.057 16.6624C25.5135 17.2666 26.7582 18.2892 27.6337 19.6008C28.5091 20.9124 28.9759 22.4541 28.9751 24.031C28.9729 26.1453 28.1315 28.1722 26.6358 29.6664C25.14 31.1607 23.1123 32 20.998 32ZM20.998 18.0015C19.8055 18.0015 18.6397 18.3551 17.6482 19.0176C16.6566 19.6802 15.8838 20.6219 15.4274 21.7236C14.971 22.8254 14.8516 24.0377 15.0843 25.2074C15.3169 26.377 15.8912 27.4513 16.7345 28.2946C17.5777 29.1378 18.6521 29.7121 19.8217 29.9448C20.9913 30.1774 22.2037 30.058 23.3054 29.6016C24.4072 29.1453 25.3489 28.3724 26.0114 27.3809C26.6739 26.3893 27.0276 25.2236 27.0276 24.031C27.0265 22.4322 26.3909 20.8992 25.2604 19.7687C24.1298 18.6381 22.5968 18.0025 20.998 18.0015Z" fill="white"/>
<path d="M20.9979 31.9999C18.8219 31.9999 16.6948 31.3547 14.8855 30.1457C13.0762 28.9368 11.6661 27.2185 10.8333 25.2082C10.0006 23.1978 9.78274 20.9857 10.2073 18.8515C10.6318 16.7173 11.6796 14.7569 13.2183 13.2183C14.7569 11.6796 16.7173 10.6318 18.8515 10.2073C20.9857 9.78274 23.1978 10.0006 25.2082 10.8333C27.2185 11.6661 28.9368 13.0762 30.1457 14.8855C31.3547 16.6948 31.9999 18.8219 31.9999 20.9979C31.9978 23.9151 30.8379 26.7123 28.7751 28.7751C26.7123 30.8379 23.9151 31.9978 20.9979 31.9999ZM20.9979 11.9434C19.2061 11.9434 17.4546 12.4747 15.9648 13.4703C14.475 14.4658 13.314 15.8808 12.6285 17.5363C11.943 19.1918 11.7638 21.0134 12.1137 22.7707C12.4635 24.528 13.3267 26.1421 14.5939 27.4088C15.8612 28.6755 17.4757 29.5379 19.2331 29.887C20.9906 30.236 22.8121 30.0561 24.4673 29.3698C26.1224 28.6836 27.5369 27.5219 28.5318 26.0317C29.5267 24.5415 30.0573 22.7897 30.0565 20.9979C30.0543 18.5964 29.0991 16.294 27.4007 14.5963C25.7022 12.8986 23.3993 11.9444 20.9979 11.9434Z" fill="white"/>
</g>
<defs>
<clipPath id="clip0_9_328540">
<rect width="22" height="22" fill="white" transform="translate(10 10)"/>
</clipPath>
</defs>
</svg>
