<svg width="42" height="42" viewBox="0 0 42 42" fill="none" xmlns="http://www.w3.org/2000/svg">
<circle cx="21" cy="21" r="21" fill="white"/>
<circle cx="21" cy="21" r="20.5" stroke="black" stroke-opacity="0.05"/>
<g clip-path="url(#clip0_9_328556)">
<path d="M38 21.1578L21.4485 31.3157L4 21.1578L21.4485 11L38 21.1578Z" fill="#008FDC"/>
<path d="M21.5519 13.5835C19.9594 13.6015 18.412 14.1149 17.1247 15.0526C15.8374 15.9902 14.8741 17.3055 14.3685 18.8157H21.1532V19.2489H14.2152C14.0516 19.8747 13.9679 20.5186 13.9661 21.1655C13.9675 21.7531 14.0382 22.3385 14.1769 22.9095H21.1532V23.3312H14.3187C14.7966 24.8823 15.7544 26.2417 17.0543 27.2137C18.3541 28.1857 19.9289 28.72 21.5519 28.7397C22.5465 28.7397 23.5315 28.5438 24.4504 28.1632C25.3694 27.7825 26.2044 27.2246 26.9077 26.5213C27.611 25.8179 28.169 24.983 28.5496 24.064C28.9302 23.1451 29.1262 22.1601 29.1262 21.1655C29.1262 20.1708 28.9302 19.1859 28.5496 18.2669C28.169 17.3479 27.611 16.513 26.9077 15.8096C26.2044 15.1063 25.3694 14.5484 24.4504 14.1677C23.5315 13.7871 22.5465 13.5912 21.5519 13.5912V13.5835Z" fill="#FFDF5A"/>
<path d="M21.552 25.0484C23.7008 25.0484 25.4427 23.3065 25.4427 21.1577C25.4427 19.009 23.7008 17.2671 21.552 17.2671C19.4033 17.2671 17.6614 19.009 17.6614 21.1577C17.6614 23.3065 19.4033 25.0484 21.552 25.0484Z" fill="#008FDC"/>
<path d="M15.511 20.1266V20.0998C15.6878 19.0441 16.14 18.0538 16.8219 17.2288L17.3892 17.6964C16.7932 18.4243 16.3969 19.2949 16.2393 20.2225L15.511 20.1266Z" fill="#008FDC"/>
<path d="M26.8572 20.5791C26.7867 19.6417 26.4634 18.7409 25.9219 17.9725L26.5237 17.5432C27.1412 18.4205 27.5106 19.4481 27.5931 20.5177L26.8572 20.5791Z" fill="#008FDC"/>
<path d="M18.4203 16.7421L17.991 16.1402C18.8637 15.5189 19.8839 15.1369 20.9502 15.0325L21.0192 15.7684C20.0825 15.8595 19.1862 16.1952 18.4203 16.7421Z" fill="#008FDC"/>
<path d="M24.9597 16.9645C24.2114 16.3874 23.3385 15.9936 22.4107 15.8145H22.3608L22.4758 15.4964L22.541 15.113C23.5824 15.3151 24.5619 15.7589 25.4005 16.4086L24.9597 16.9645Z" fill="#008FDC"/>
<path d="M27.5931 22.1045V22.1275C27.4173 23.1847 26.965 24.1765 26.2821 25.0024L25.7148 24.5309C26.3152 23.8057 26.7121 22.9339 26.8648 22.0049L27.5931 22.1045Z" fill="#008FDC"/>
<path d="M16.247 21.6484C16.3191 22.5855 16.6422 23.4858 17.1822 24.255L16.5843 24.6728C15.9635 23.7969 15.5925 22.7687 15.511 21.6983L16.247 21.6484Z" fill="#008FDC"/>
<path d="M24.6836 25.4854L25.1129 26.0872C24.2413 26.7079 23.2224 27.0898 22.1575 27.1949L22.0847 26.459C23.0218 26.3695 23.9184 26.0336 24.6836 25.4854Z" fill="#008FDC"/>
<path d="M18.1443 25.2632C18.8935 25.841 19.768 26.2349 20.6972 26.4131H20.7432L20.632 26.7313L20.563 27.1146H20.5438C19.5027 26.9138 18.5232 26.4713 17.6843 25.8228L18.1443 25.2632Z" fill="#008FDC"/>
<path d="M24.7144 22.9057H14.5949C14.5365 22.9052 14.4788 22.8932 14.425 22.8704C14.3713 22.8476 14.3225 22.8144 14.2816 22.7728C14.2407 22.7311 14.2083 22.6818 14.1864 22.6277C14.1646 22.5735 14.1536 22.5156 14.1541 22.4572V19.6897C14.1536 19.6313 14.1646 19.5734 14.1864 19.5192C14.2083 19.4651 14.2407 19.4158 14.2816 19.3742C14.3225 19.3325 14.3713 19.2993 14.425 19.2765C14.4788 19.2537 14.5365 19.2417 14.5949 19.2412H24.5956C24.9636 19.7776 25.1454 20.4199 25.113 21.0696C25.1345 21.7052 24.9975 22.3362 24.7144 22.9057Z" fill="#FFDF5A"/>
<path d="M25.2624 22.1124H15.5837V20.1958H25.2624C25.3864 20.8286 25.3864 21.4795 25.2624 22.1124Z" fill="#008FDC"/>
</g>
<defs>
<clipPath id="clip0_9_328556">
<rect width="34" height="20.3157" fill="white" transform="translate(4 11)"/>
</clipPath>
</defs>
</svg>
