<svg width="42" height="42" viewBox="0 0 42 42" fill="none" xmlns="http://www.w3.org/2000/svg">
<circle cx="21" cy="21" r="21" fill="white"/>
<g clip-path="url(#clip0_9_328593)">
<path d="M27.477 12.2886C25.1924 10.682 21.8075 10.138 21.0962 10.0083C21.0078 9.99204 20.9169 9.99562 20.8301 10.0188C20.7433 10.0419 20.6627 10.0841 20.5941 10.1422C20.5245 10.2016 20.4686 10.2753 20.4304 10.3584C20.3921 10.4415 20.3723 10.5319 20.3724 10.6234V13.205L18.9581 14.1799L16.9456 12.7991C16.8018 12.7012 16.632 12.6489 16.4581 12.6489C16.2843 12.6489 16.1144 12.7012 15.9707 12.7991L13.8786 14.2259C13.763 14.3051 13.6683 14.4112 13.6027 14.5351C13.5371 14.659 13.5026 14.797 13.5021 14.9372V17.9372C13.5037 17.9965 13.5121 18.0555 13.5272 18.1129L13.4393 18.1548L11.3472 19.5857C11.2319 19.6649 11.1376 19.7711 11.0727 19.8951C11.0078 20.0191 10.9742 20.1571 10.9749 20.297V23.297C11.1161 24.7832 11.6091 26.2145 12.413 27.4725C13.217 28.7304 14.3088 29.7789 15.5983 30.5313C17.2028 31.4699 19.024 31.9746 20.8828 31.9957C23.1506 31.9771 25.3584 31.2646 27.2092 29.9539C28.6838 28.9682 29.8857 27.6261 30.7035 26.0521C31.5212 24.478 31.9283 22.723 31.887 20.9497C31.8744 17.251 30.3933 14.3221 27.477 12.2886ZM20.9247 13.8409L21.3431 14.0669V18.7489L20.8661 18.9999L19.3891 17.9706C19.3891 17.9706 19.3891 17.9497 19.3891 17.9372V14.9372C19.3891 14.9372 19.3891 14.9079 19.3891 14.8911L20.9247 13.8409ZM16.8828 20.2761L18.4477 19.2008L18.8661 19.4225V24.1045L18.3933 24.3556L16.8786 23.3054V20.2761H16.8828ZM14.3724 14.9163L15.9372 13.8409L16.3556 14.0669V18.7489L15.8786 18.9999L14.3514 17.9372L14.3724 14.9163ZM11.8619 20.2761L13.4267 19.2008L13.8452 19.4225V24.1045L13.3514 24.364L11.8284 23.3054L11.8619 20.2761ZM26.7406 29.2635C23.3933 31.5773 19.3054 31.774 16.046 29.8116C13.728 28.4016 12.4058 26.5104 12.0042 24.4393L13.456 25.4351C13.6006 25.5328 13.7711 25.5852 13.9456 25.5857C14.12 25.5847 14.2903 25.5323 14.4351 25.4351L16.4644 24.0418L18.4937 25.4351C18.6368 25.5327 18.8058 25.5852 18.979 25.5857C19.1536 25.5852 19.324 25.5328 19.4686 25.4351L21.5606 24.0041L23.6527 25.4351C23.7973 25.5328 23.9677 25.5852 24.1422 25.5857C24.3154 25.5852 24.4845 25.5327 24.6276 25.4351L26.7196 24.0041C26.8358 23.9267 26.9306 23.8214 26.9957 23.6979C27.0607 23.5744 27.0938 23.4366 27.092 23.297V20.297C27.0927 20.1571 27.0591 20.0191 26.9942 19.8951C26.9293 19.7711 26.835 19.6649 26.7196 19.5857L24.6276 18.1548C24.5527 18.1054 24.4709 18.0673 24.3849 18.0418C24.3872 18.007 24.3872 17.972 24.3849 17.9372V14.9372C24.3842 14.7975 24.35 14.66 24.2852 14.5363C24.2204 14.4125 24.1269 14.3061 24.0125 14.2259L21.9205 12.7991C21.8043 12.7213 21.6706 12.6738 21.5313 12.661V10.9539C23.5062 11.3723 31.0502 13.2719 31.0502 20.9497C31.0992 22.5878 30.729 24.2112 29.9748 25.6662C29.2206 27.1211 28.1074 28.3594 26.7406 29.2635ZM22.0376 23.297V20.2761L23.6025 19.2008L24.0209 19.4225V24.1045L23.5439 24.3556L22.0376 23.297Z" fill="#FF0018"/>
</g>
<circle cx="21" cy="21" r="20.5" stroke="black" stroke-opacity="0.05"/>
<defs>
<clipPath id="clip0_9_328593">
<rect width="20.8745" height="22" fill="white" transform="translate(11 10)"/>
</clipPath>
</defs>
</svg>
