<svg width="42" height="42" viewBox="0 0 42 42" fill="none" xmlns="http://www.w3.org/2000/svg">
<circle cx="21" cy="21" r="21" fill="#0054A5"/>
<g clip-path="url(#clip0_9_328627)">
<path d="M23.7567 13.5212C24.0278 13.5212 24.2879 13.4135 24.4796 13.2218C24.6713 13.03 24.779 12.77 24.779 12.4989C24.779 12.2277 24.6713 11.9677 24.4796 11.776C24.2879 11.5843 24.0278 11.4766 23.7567 11.4766C23.4856 11.4766 23.2255 11.5843 23.0338 11.776C22.8421 11.9677 22.7344 12.2277 22.7344 12.4989C22.7344 12.77 22.8421 13.03 23.0338 13.2218C23.2255 13.4135 23.4856 13.5212 23.7567 13.5212Z" fill="white"/>
<path d="M12 30H21.4686V27.9797H12.9574L12 30Z" fill="white"/>
<path d="M21.4684 26.3651V10L13.72 26.3651H21.4684Z" fill="white"/>
<path d="M28.8358 27.9797H22.7344V30H29.7932L28.8358 27.9797Z" fill="white"/>
<path d="M22.7344 15.0952V26.365H28.0731L22.7344 15.0952Z" fill="white"/>
</g>
<circle cx="21" cy="21" r="20.5" stroke="black" stroke-opacity="0.05"/>
<defs>
<clipPath id="clip0_9_328627">
<rect width="17.7931" height="20" fill="white" transform="translate(12 10)"/>
</clipPath>
</defs>
</svg>
