<svg width="42" height="42" viewBox="0 0 42 42" fill="none" xmlns="http://www.w3.org/2000/svg">
<circle cx="21" cy="21" r="21" fill="#004DAF"/>
<g clip-path="url(#clip0_9_328669)">
<path d="M10.7346 27.2079C10.7346 27.2079 17.3918 29.651 25.7731 25.9563C33.0095 22.7675 34.2344 19.7518 34.2344 19.7518C34.2344 19.7518 31.3585 22.681 22.4845 25.264C18.6687 26.4183 14.7189 27.0718 10.7346 27.2079Z" fill="white"/>
<path d="M13.2445 26.2691C13.2445 26.2691 8.77753 23.3866 16.8793 19.3124C25.5336 14.9519 31.1589 16.9291 31.4718 17.6215C31.7847 18.3138 32.4171 19.2524 31.7913 20.251C31.7913 20.251 36.1717 18.0608 35.9853 15.6776C35.7989 13.2943 28.6624 14.0266 26.0728 14.4127C24.3686 14.6657 14.3163 17.2886 9.42993 21.1897C4.54357 25.0908 8.55118 26.2691 8.55118 26.2691C10.106 26.5148 11.6897 26.5148 13.2445 26.2691Z" fill="white"/>
<path d="M21.679 21.3762L22.6309 21.0766C22.7593 21.0318 22.8944 21.0093 23.0304 21.01C23.1347 21.0135 23.2361 21.0457 23.3233 21.1032C23.4 21.1593 23.4598 21.2352 23.4964 21.3229C23.5386 21.4264 23.559 21.5374 23.5563 21.6491C23.5581 21.7574 23.5423 21.8654 23.5097 21.9687C23.4739 22.0669 23.427 22.1607 23.3699 22.2482C23.3148 22.3311 23.25 22.4072 23.1768 22.4746C23.11 22.5459 23.0364 22.6105 22.9571 22.6677L23.7294 23.6463L23.25 23.7927L22.5843 22.8674L22.105 23.0205V24.1722L21.6989 24.2987L21.679 21.3762ZM22.085 22.6743L22.4379 22.5611C22.5309 22.5344 22.6203 22.4964 22.7042 22.448C22.7817 22.404 22.8533 22.3503 22.9172 22.2882C22.9771 22.2269 23.0245 22.1545 23.057 22.0752C23.095 21.9941 23.1133 21.9051 23.1102 21.8155C23.1102 21.6291 23.0636 21.5027 22.9571 21.4494C22.8854 21.4194 22.8085 21.4039 22.7308 21.4039C22.6531 21.4039 22.5761 21.4194 22.5044 21.4494L22.085 21.5825V22.6743Z" fill="white"/>
<path d="M25.0676 20.3642L23.9026 23.6129C24.0557 23.5596 24.2022 23.4997 24.3553 23.4332L24.6415 22.6077L25.8398 22.2282L26.0728 22.7342L26.4989 22.5544L25.447 20.2444L25.0676 20.3642ZM25.7333 21.9286L24.7747 22.2349L24.9744 21.6624C25.021 21.5092 25.0742 21.3628 25.1208 21.2296C25.1674 21.0965 25.214 20.9567 25.254 20.8102L25.3871 21.1497C25.4271 21.2563 25.4803 21.3694 25.5269 21.4826L25.7333 21.9286Z" fill="white"/>
<path d="M28.9553 20.4641C28.9592 20.2387 28.9277 20.0141 28.8621 19.7984C28.8157 19.6428 28.7283 19.5026 28.6091 19.3923C28.5009 19.299 28.3655 19.243 28.223 19.2326C28.0546 19.2278 27.887 19.2572 27.7303 19.3191C27.5528 19.3882 27.3884 19.4873 27.2444 19.612C27.0878 19.7412 26.9549 19.8966 26.8516 20.0714C26.7346 20.2612 26.647 20.4677 26.592 20.6838C26.5235 20.9218 26.4898 21.1685 26.4921 21.4161C26.4876 21.6415 26.5191 21.8663 26.5853 22.0818C26.6252 22.2141 26.6959 22.3351 26.7917 22.4347L27.3176 22.2083C27.2552 22.1883 27.1982 22.1541 27.1512 22.1085C27.0666 22.0153 27.005 21.9035 26.9714 21.7823C26.9254 21.6085 26.903 21.4294 26.9049 21.2497C26.905 21.0547 26.9273 20.8604 26.9714 20.6705C27.0074 20.5131 27.0633 20.361 27.1379 20.2178C27.2041 20.0925 27.292 19.9798 27.3975 19.885C27.4909 19.8011 27.5993 19.7356 27.717 19.6919C27.818 19.6496 27.9274 19.6314 28.0366 19.6387C28.1374 19.6483 28.2316 19.6931 28.3029 19.7651C28.3867 19.8553 28.4463 19.9652 28.4759 20.0847C28.5226 20.2605 28.545 20.442 28.5425 20.6239C28.5458 20.8191 28.5234 21.0138 28.4759 21.2031C28.4397 21.3634 28.3814 21.518 28.3029 21.6624C28.2618 21.7285 28.215 21.7909 28.1631 21.8488L28.6757 21.6225C28.7498 21.4883 28.8121 21.348 28.8621 21.2031C28.925 20.9619 28.9564 20.7134 28.9553 20.4641Z" fill="white"/>
<path d="M31.5715 18.2805L31.1721 18.407V19.9515C31.1721 20.0513 31.1721 20.1512 31.1721 20.2577C31.1721 20.3642 31.1721 20.4308 31.1721 20.524L31.5582 20.3509L31.5715 18.2805Z" fill="white"/>
<path d="M31.059 20.4042L30.9259 20.2444L29.6543 18.913L29.3015 19.0261V21.3761L29.7009 21.203V20.2444C29.7009 20.1179 29.7009 19.9981 29.7009 19.8716C29.7009 19.7451 29.7009 19.6253 29.7009 19.5054L29.8341 19.6918C29.8756 19.7496 29.92 19.8051 29.9672 19.8583L30.7794 20.7304L31.1655 20.5639C31.1353 20.5073 31.0996 20.4538 31.059 20.4042Z" fill="white"/>
</g>
<circle cx="21" cy="21" r="20.5" stroke="black" stroke-opacity="0.05"/>
<defs>
<clipPath id="clip0_9_328669">
<rect width="28.9919" height="14" fill="white" transform="translate(7 14)"/>
</clipPath>
</defs>
</svg>
