<svg width="42" height="42" viewBox="0 0 42 42" fill="none" xmlns="http://www.w3.org/2000/svg">
<circle cx="21" cy="21" r="21" fill="#ED0022"/>
<g clip-path="url(#clip0_9_328683)">
<path d="M31.1698 19.948C31.0267 19.9159 30.8786 19.9124 30.7341 19.9377C30.5897 19.963 30.4516 20.0166 30.3279 20.0954C30.2041 20.1741 30.0972 20.2766 30.0131 20.3968C29.9291 20.517 29.8696 20.6526 29.8381 20.7958C29.8381 20.7958 29.4608 22.5138 28.4353 22.4161C28.0976 22.3735 27.7818 22.2258 27.5325 21.9941C27.2832 21.7623 27.113 21.4581 27.0459 21.1243V21.0622C27.0469 20.4603 26.9571 19.8617 26.7796 19.2866C27.486 19.2014 28.1516 18.9095 28.6928 18.4476C30.535 16.9072 29.665 14.4524 28.9458 13.3782C28.8651 13.2566 28.7612 13.1522 28.6401 13.0708C28.519 12.9894 28.383 12.9326 28.24 12.9038C28.097 12.8749 27.9497 12.8745 27.8065 12.9026C27.6633 12.9307 27.527 12.9867 27.4055 13.0674C27.2839 13.1482 27.1795 13.252 27.0981 13.3732C27.0167 13.4943 26.9599 13.6302 26.9311 13.7732C26.9022 13.9163 26.9018 14.0636 26.9299 14.2068C26.958 14.35 27.014 14.4862 27.0947 14.6078C27.0947 14.6078 28.0491 16.0904 27.2723 16.743C26.9951 16.9569 26.6573 17.0776 26.3073 17.088C25.9573 17.0984 25.613 16.9978 25.3236 16.8007L25.2703 16.774C24.819 16.3255 24.3008 15.9496 23.7344 15.6598C24.1091 15.1567 24.3463 14.5646 24.4224 13.9419C24.7465 11.5626 22.4515 10.3463 21.1952 10.0311C20.9091 9.95987 20.6065 10.0052 20.3538 10.1571C20.1012 10.3091 19.9192 10.5551 19.848 10.8412C19.7767 11.1273 19.8221 11.43 19.974 11.6826C20.1259 11.9353 20.372 12.1173 20.6581 12.1885C20.6581 12.1885 22.3583 12.6324 22.2251 13.6445C22.1671 13.9869 22.0024 14.3022 21.7544 14.5454C21.5065 14.7886 21.188 14.9471 20.8445 14.9984C20.2627 15.0105 19.6857 15.1062 19.1311 15.2825C19.0592 14.6248 18.8073 13.9996 18.4031 13.4758C16.9515 11.5626 14.4656 12.3172 13.3514 12.9875C13.227 13.0619 13.1185 13.1602 13.0322 13.2766C12.9459 13.393 12.8834 13.5254 12.8483 13.666C12.8133 13.8067 12.8063 13.9528 12.8279 14.0962C12.8495 14.2395 12.8992 14.3772 12.9741 14.5012C13.1247 14.7532 13.3686 14.9356 13.6528 15.0087C13.9371 15.0818 14.2388 15.0399 14.4922 14.8919C14.4922 14.8919 16.0193 14.0041 16.6319 14.8164C17.3377 15.7442 16.5742 16.885 16.5253 16.9516C16.1534 17.3514 15.8369 17.7993 15.5842 18.2833C14.9599 17.831 14.2067 17.5913 13.4357 17.5997H13.3736C10.9765 17.6352 10.1109 20.0856 9.99103 21.3774C9.97696 21.5217 9.99156 21.6674 10.034 21.8061C10.0764 21.9448 10.1458 22.0737 10.2382 22.1855C10.3306 22.2973 10.4442 22.3897 10.5724 22.4575C10.7006 22.5252 10.841 22.567 10.9854 22.5803H11.0964C11.3707 22.5797 11.6352 22.478 11.8391 22.2945C12.0431 22.111 12.1722 21.8587 12.2017 21.586C12.2017 21.586 12.3926 19.8104 13.4091 19.8104H13.4357C13.7624 19.819 14.0788 19.9263 14.3433 20.118C14.6079 20.3097 14.8084 20.5769 14.9184 20.8846C14.9184 20.8846 14.9184 20.9867 14.9184 21.04C14.9205 21.6019 15.0012 22.1607 15.1581 22.7002C14.327 22.7605 13.5426 23.1072 12.9386 23.6812C11.1629 25.3104 12.175 27.7119 12.9386 28.7506C13.1152 28.9861 13.3781 29.1418 13.6694 29.1834C13.9608 29.225 14.2568 29.1492 14.4922 28.9726C14.7277 28.796 14.8834 28.5331 14.925 28.2417C14.9666 27.9504 14.8908 27.6544 14.7142 27.4189C14.7142 27.4189 13.6843 25.9851 14.4301 25.297C14.6921 25.0725 15.0176 24.9351 15.3613 24.9041C15.705 24.8731 16.0498 24.9499 16.3478 25.1239C16.4499 25.1639 16.5165 25.2038 16.623 25.2482C17.019 25.6468 17.467 25.9902 17.9547 26.2692C17.3845 26.9883 17.1113 27.8985 17.1912 28.8128C17.3732 31.2099 19.8546 31.9201 21.1864 31.9645H21.2219C21.5162 31.9698 21.8006 31.858 22.0124 31.6536C22.2243 31.4492 22.3463 31.1691 22.3516 30.8747C22.3569 30.5804 22.2451 30.296 22.0407 30.0842C21.8363 29.8723 21.5561 29.7503 21.2618 29.745C21.2618 29.745 19.4862 29.6562 19.424 28.6441C19.4082 28.3089 19.4961 27.9769 19.6756 27.6934C19.8551 27.4099 20.1175 27.1885 20.4273 27.0594C20.6181 27.0594 20.8179 27.0904 21.0132 27.0904C21.5842 27.089 22.1521 27.0068 22.7001 26.8463C22.7889 27.6997 23.1774 28.494 23.7965 29.088C24.0735 29.3708 24.4044 29.5951 24.7696 29.7476C25.1349 29.9001 25.527 29.9777 25.9228 29.9758C27.0001 29.9288 28.033 29.5331 28.8659 28.8483C29.0937 28.6617 29.2381 28.3922 29.2672 28.0992C29.2964 27.8062 29.2079 27.5136 29.0213 27.2857C28.8347 27.0579 28.5652 26.9136 28.2722 26.8844C27.9792 26.8553 27.6866 26.9438 27.4587 27.1304C27.4587 27.1304 26.0738 28.2268 25.3502 27.5166C25.1112 27.2617 24.9582 26.9382 24.9129 26.5918C24.8675 26.2454 24.9319 25.8934 25.0972 25.5856C25.1194 25.5456 25.1327 25.5012 25.1504 25.4613C25.6434 25.0008 26.0573 24.4624 26.3756 23.8677C26.9202 24.2835 27.571 24.5373 28.2533 24.6001C28.3688 24.6001 28.4797 24.6001 28.5863 24.6001C30.7481 24.6001 31.7913 22.4205 32.0443 21.2131C32.0913 20.93 32.0264 20.6396 31.8632 20.4035C31.7 20.1674 31.4513 20.004 31.1698 19.948ZM20.991 24.9108C20.2298 24.9108 19.4857 24.6851 18.8528 24.2622C18.2199 23.8393 17.7266 23.2382 17.4353 22.535C17.144 21.8317 17.0678 21.0579 17.2163 20.3113C17.3648 19.5648 17.7314 18.879 18.2696 18.3408C18.8079 17.8025 19.4936 17.436 20.2402 17.2875C20.9868 17.139 21.7606 17.2152 22.4639 17.5065C23.1671 17.7978 23.7682 18.2911 24.1911 18.924C24.614 19.5569 24.8397 20.301 24.8397 21.0622C24.8385 22.0826 24.4327 23.0608 23.7112 23.7823C22.9896 24.5038 22.0114 24.9097 20.991 24.9108Z" fill="white"/>
</g>
<circle cx="21" cy="21" r="20.5" stroke="black" stroke-opacity="0.05"/>
<defs>
<clipPath id="clip0_9_328683">
<rect width="22.0488" height="22" fill="white" transform="translate(10 10)"/>
</clipPath>
</defs>
</svg>
