<svg width="42" height="42" viewBox="0 0 42 42" fill="none" xmlns="http://www.w3.org/2000/svg">
<circle cx="21" cy="21" r="21" fill="#022F5E"/>
<g clip-path="url(#clip0_9_328749)">
<path d="M7.29612 16H5L7.47823 18.502L5 20.996H7.39113L9.79018 18.502L7.29612 16Z" fill="white"/>
<path d="M11.8012 20.996H11.8963L14.2874 18.502L11.8012 16H9.50513L11.9754 18.502L9.50513 20.996L11.9754 23.498L9.50513 26H11.8963L14.2874 23.5059L11.8012 20.996Z" fill="white"/>
<path d="M14.0657 20.9961L16.5439 23.4981L14.0657 26.0001H16.4568L18.8559 23.506L16.3618 20.9961H14.0657Z" fill="white"/>
<path d="M23.3532 23.3951C23.3532 23.3951 23.8599 23.205 23.8599 22.7933V22.0015C23.8105 21.7439 23.6694 21.5128 23.4626 21.3512C23.2559 21.1896 22.9976 21.1084 22.7356 21.1227H20.5662V25.8733H22.9969C23.1042 25.873 23.2109 25.857 23.3136 25.8258C23.5177 25.7708 23.6974 25.6488 23.8238 25.4793C23.9501 25.3098 24.0158 25.1028 24.0103 24.8915V24.3293C24.0157 24.0985 23.9493 23.8716 23.8203 23.6801C23.7721 23.5977 23.7041 23.5285 23.6226 23.4788C23.5411 23.429 23.4485 23.4003 23.3532 23.3951ZM21.4609 21.9065H22.696C22.7715 21.9269 22.8384 21.971 22.8869 22.0323C22.9353 22.0936 22.9628 22.1689 22.9652 22.247C22.9652 22.532 22.9652 22.8646 22.9652 22.8646C22.9652 22.8646 22.8781 23.1021 22.696 23.1021H21.4609V21.9065ZM23.1236 24.8282C23.1091 24.9065 23.0682 24.9776 23.0077 25.0295C22.9472 25.0813 22.8707 25.1109 22.791 25.1132H21.4609V23.9335H22.7514C22.7514 23.9335 23.1236 23.9335 23.1236 24.2502V24.8282Z" fill="white"/>
<path d="M26.0134 21.1149L24.4932 25.818H25.372L25.6808 24.8283H27.4623L27.7632 25.818H28.6658L27.1377 21.1149H26.0134ZM25.95 24.0444L26.5993 21.9621L27.2406 24.0444H25.95Z" fill="white"/>
<path d="M32.7673 23.0784V22.1362C32.7338 21.8494 32.5941 21.5854 32.3758 21.3964C32.1575 21.2074 31.8763 21.1069 31.5876 21.1148H29.3311V25.8179H30.202V24.1235H30.9542L31.9122 25.8179H32.9573L31.9835 24.1156C32.1924 24.0249 32.3743 23.8817 32.5117 23.7C32.649 23.5183 32.7371 23.3042 32.7673 23.0784ZM31.8885 22.9992C31.8885 22.9992 31.8172 23.3555 31.4926 23.3555H30.2178V21.8828H31.548C31.548 21.8828 31.8885 21.9778 31.8885 22.2866V22.9992Z" fill="white"/>
<path d="M35.3958 21.0673C34.3982 21.0673 33.5906 21.4473 33.5906 22.5241V24.4243C33.5906 25.6516 34.3823 25.9445 35.3958 25.9445C36.4093 25.9445 37.2248 25.6358 37.2248 24.4402V22.5399C37.2485 21.4235 36.3934 21.0673 35.3958 21.0673ZM36.3459 24.4481C36.3459 24.9073 35.958 25.1607 35.3958 25.1607C34.8337 25.1607 34.4615 24.8836 34.4615 24.4243V22.5241C34.4615 22.0649 34.8337 21.8273 35.3958 21.8273C35.958 21.8273 36.3459 22.0886 36.3459 22.5479V24.4481Z" fill="white"/>
</g>
<circle cx="21" cy="21" r="20.5" stroke="black" stroke-opacity="0.05"/>
<defs>
<clipPath id="clip0_9_328749">
<rect width="32.2169" height="10" fill="white" transform="translate(5 16)"/>
</clipPath>
</defs>
</svg>
