<svg width="42" height="42" viewBox="0 0 42 42" fill="none" xmlns="http://www.w3.org/2000/svg">
<circle cx="21" cy="21" r="21" fill="white"/>
<g clip-path="url(#clip0_9_328780)">
<path d="M21 31.0435C26.5469 31.0435 31.0435 26.5469 31.0435 21C31.0435 15.4532 26.5469 10.9565 21 10.9565C15.4532 10.9565 10.9565 15.4532 10.9565 21C10.9565 26.5469 15.4532 31.0435 21 31.0435Z" fill="#170084"/>
<path d="M21 10.9565C22.9864 10.9565 24.9282 11.5456 26.5799 12.6492C28.2315 13.7528 29.5188 15.3213 30.279 17.1565C31.0391 18.9917 31.238 21.0112 30.8505 22.9594C30.463 24.9076 29.5064 26.6972 28.1018 28.1018C26.6972 29.5064 24.9076 30.463 22.9594 30.8505C21.0111 31.238 18.9917 31.0391 17.1565 30.279C15.3213 29.5188 13.7527 28.2315 12.6492 26.5799C11.5456 24.9282 10.9565 22.9864 10.9565 21C10.9565 18.3363 12.0147 15.7817 13.8982 13.8982C15.7817 12.0147 18.3363 10.9565 21 10.9565ZM21 10C18.8244 10 16.6977 10.6451 14.8887 11.8538C13.0798 13.0625 11.6699 14.7805 10.8373 16.7905C10.0048 18.8005 9.78693 21.0122 10.2114 23.146C10.6358 25.2798 11.6835 27.2398 13.2218 28.7782C14.7602 30.3165 16.7202 31.3642 18.854 31.7886C20.9878 32.2131 23.1995 31.9952 25.2095 31.1627C27.2195 30.3301 28.9375 28.9202 30.1462 27.1113C31.3549 25.3023 32 23.1756 32 21C31.9978 18.0833 30.8382 15.2867 28.7758 13.2242C26.7133 11.1618 23.9167 10.0022 21 10Z" fill="#FBFB00"/>
<path d="M18.8065 14.8651C18.2375 13.7519 17.4954 13.084 16.6956 13.084C14.8485 13.084 13.3972 16.6297 13.3972 21C13.3972 25.3703 14.8897 28.9161 16.6956 28.9161C17.5202 28.9161 18.2375 28.2482 18.8065 27.135C17.9955 25.1913 17.5779 23.1061 17.5779 21C17.5779 18.8939 17.9955 16.8088 18.8065 14.8651Z" fill="#FF0000"/>
<path d="M23.111 15.0218C22.5255 13.8179 21.7587 13.084 20.9258 13.084C20.093 13.084 19.3839 13.7519 18.8066 14.8651C19.6231 16.8074 20.0436 18.8931 20.0436 21C20.0436 23.1069 19.6231 25.1927 18.8066 27.135C19.3839 28.2482 20.1177 28.9161 20.9258 28.9161C21.7339 28.9161 22.5255 28.1822 23.111 26.9783C21.5716 23.1414 21.5716 18.8586 23.111 15.0218Z" fill="#FF0000"/>
<path d="M25.296 13.084C24.4714 13.084 23.6963 13.8179 23.1108 15.0218C24.6503 18.8586 24.6503 23.1414 23.1108 26.9783C23.6963 28.1822 24.4632 28.9161 25.296 28.9161C27.1431 28.9161 28.6438 25.3703 28.6438 21C28.6438 16.6297 27.1431 13.084 25.296 13.084Z" fill="#FF0000"/>
</g>
<circle cx="21" cy="21" r="20.5" stroke="black" stroke-opacity="0.05"/>
<defs>
<clipPath id="clip0_9_328780">
<rect width="22" height="22" fill="white" transform="translate(10 10)"/>
</clipPath>
</defs>
</svg>
