<svg width="42" height="42" viewBox="0 0 42 42" fill="none" xmlns="http://www.w3.org/2000/svg">
<circle cx="21" cy="21" r="21" fill="#00B4AE"/>
<g clip-path="url(#clip0_9_328797)">
<path d="M27.8995 30.4026C30.7165 30.4026 33.0001 28.1189 33.0001 25.3019C33.0001 22.4849 30.7165 20.2013 27.8995 20.2013C25.0825 20.2013 22.7988 22.4849 22.7988 25.3019C22.7988 28.1189 25.0825 30.4026 27.8995 30.4026Z" fill="white"/>
<path d="M26.1013 14.9931C26.0928 14.3014 25.9423 13.6187 25.6593 12.9875C25.3762 12.3562 24.9666 11.7897 24.4558 11.3231C23.945 10.8565 23.3439 10.4997 22.6896 10.2748C22.0354 10.0499 21.3419 9.96171 20.6522 10.0156C18.2025 10.2011 16.0561 12.4602 15.9902 14.9151C15.98 15.2819 16.0096 15.6487 16.0786 16.0091C16.252 16.9263 16.0076 18.1035 15.406 18.816C14.6295 19.6123 13.6601 20.194 12.5921 20.5047C11.4963 20.8366 10.5455 21.5303 9.89488 22.4725C9.24429 23.4147 8.93243 24.5497 9.01024 25.692C9.09837 26.9223 9.63142 28.0784 10.5098 28.9443C11.3882 29.8103 12.5518 30.3268 13.7832 30.3973C14.4746 30.4346 15.1662 30.3296 15.8154 30.0887C16.4645 29.8478 17.0572 29.4762 17.5568 28.9969C18.0565 28.5175 18.4524 27.9407 18.72 27.3022C18.9876 26.6636 19.1213 25.9769 19.1127 25.2846C19.1127 25.1285 19.1005 24.9742 19.0849 24.8217C18.9579 23.7185 19.2527 22.608 19.9102 21.7131C20.5397 20.8548 21.4311 20.2244 22.4501 19.9169C23.5137 19.6089 24.4468 18.9604 25.1064 18.071C25.7659 17.1816 26.1154 16.1003 26.1013 14.9931Z" fill="white"/>
</g>
<circle cx="21" cy="21" r="20.5" stroke="black" stroke-opacity="0.05"/>
<defs>
<clipPath id="clip0_9_328797">
<rect width="24" height="20.4025" fill="white" transform="translate(9 10)"/>
</clipPath>
</defs>
</svg>
