<svg width="43" height="42" viewBox="0 0 43 42" fill="none" xmlns="http://www.w3.org/2000/svg">
<circle cx="22" cy="21" r="21" fill="white"/>
<g clip-path="url(#clip0_9_328820)">
<path d="M8.54025 19.7785C8.18975 19.5873 7.79266 19.498 7.39403 19.521C6.93772 19.5045 6.48686 19.6245 6.09908 19.8656C5.79177 20.0499 5.56612 20.3443 5.46793 20.689C5.42863 20.7942 5.41936 20.9082 5.44114 21.0184C5.46291 21.1286 5.51489 21.2305 5.59126 21.3129C5.84292 21.5039 6.13851 21.6286 6.45093 21.6756C6.7216 21.7118 6.98629 21.7838 7.23805 21.8896C7.28546 21.917 7.32272 21.9591 7.3443 22.0094C7.36587 22.0597 7.37059 22.1157 7.35775 22.1689C7.34536 22.2225 7.32096 22.2725 7.2864 22.3152C7.25184 22.3579 7.20802 22.3923 7.15825 22.4156C7.04122 22.4844 6.90511 22.5137 6.77013 22.499C6.4074 22.499 6.34211 22.4011 6.29858 22.3213C6.24808 22.2074 6.23414 22.0807 6.25868 21.9585H5.03266C4.98558 22.1122 4.98272 22.2761 5.02442 22.4313C5.06612 22.5866 5.15068 22.7269 5.26843 22.8363C5.64306 23.1065 6.10405 23.2291 6.56337 23.1809C7.06207 23.2079 7.55837 23.0948 7.99616 22.8545C8.15361 22.7646 8.29151 22.6442 8.40177 22.5003C8.51202 22.3565 8.59241 22.192 8.63819 22.0166C8.67281 21.9048 8.67728 21.7859 8.65117 21.6719C8.62505 21.5579 8.56927 21.4528 8.48947 21.3673C8.25403 21.1617 7.96442 21.0282 7.65519 20.9828C7.37936 20.95 7.11091 20.8715 6.86081 20.7506C6.81702 20.7244 6.78259 20.6851 6.76241 20.6382C6.74223 20.5913 6.73731 20.5393 6.74837 20.4895C6.75963 20.4446 6.77991 20.4025 6.80797 20.3657C6.83603 20.3289 6.87129 20.2982 6.91159 20.2755C7.00684 20.2096 7.12351 20.1824 7.23805 20.1993C7.51373 20.1993 7.60078 20.261 7.68784 20.3843C7.73425 20.4682 7.75087 20.5654 7.73499 20.66H8.86671C8.90616 20.4972 8.89616 20.3264 8.83801 20.1694C8.77985 20.0124 8.67618 19.8763 8.54025 19.7785Z" fill="#008CDE"/>
<path d="M11.7031 19.5065C11.122 19.4797 10.5525 19.6755 10.1107 20.0542C9.71777 20.393 9.44222 20.8476 9.32362 21.3527C9.2591 21.57 9.24158 21.7985 9.27223 22.023C9.30288 22.2475 9.38099 22.4629 9.50136 22.6549C9.73713 23.0177 10.1833 23.1954 10.8362 23.1954C11.4159 23.2206 11.984 23.0278 12.4286 22.6549C12.8236 22.3157 13.1005 21.8597 13.2193 21.3527C13.2815 21.1358 13.2978 20.9083 13.2672 20.6847C13.2366 20.4612 13.1598 20.2464 13.0416 20.0542C12.8022 19.6878 12.356 19.5065 11.7031 19.5065ZM12.0332 21.3527C11.9887 21.6483 11.8631 21.9258 11.6705 22.1544C11.5903 22.2451 11.4913 22.3174 11.3805 22.3663C11.2697 22.4151 11.1496 22.4394 11.0285 22.4373C10.9222 22.4473 10.8153 22.4258 10.7211 22.3755C10.6269 22.3252 10.5496 22.2483 10.4989 22.1544C10.3952 21.8994 10.3811 21.6168 10.459 21.3527C10.5035 21.0572 10.629 20.7797 10.8217 20.5511C10.9031 20.4611 11.0028 20.3896 11.1142 20.3414C11.2256 20.2932 11.346 20.2695 11.4674 20.2718C11.5733 20.261 11.6801 20.2817 11.7744 20.3314C11.8686 20.3811 11.946 20.4575 11.9969 20.5511C12.0995 20.8065 12.1122 21.0891 12.0332 21.3527Z" fill="#008CDE"/>
<path d="M16.6581 19.8257L16.2337 21.6393C16.1956 21.8214 16.1217 21.994 16.0161 22.1472C15.9295 22.2379 15.8245 22.3091 15.7081 22.356C15.5918 22.4029 15.4668 22.4245 15.3414 22.4192C15.2108 22.4192 15.044 22.343 15.0222 22.2487C14.9896 22.1102 14.9984 21.9651 15.0476 21.8316L15.5192 19.8438H14.2532L13.7853 21.8316C13.6988 22.1086 13.6826 22.4028 13.7382 22.6876C13.8434 23.0504 14.2931 23.2136 14.8264 23.2136C14.999 23.2157 15.1712 23.1937 15.3378 23.1483C15.5001 23.1016 15.6483 23.0157 15.7695 22.898C15.8281 22.8617 15.8818 22.8178 15.9291 22.7674C15.9564 22.7357 15.9855 22.7054 16.0161 22.6767L15.9073 23.141H17.1261L17.9059 19.8438L16.6581 19.8257Z" fill="#008CDE"/>
<path d="M19.2661 17.0037L17.9204 23.0758H19.2661V23.0721V17.0037Z" fill="#008CDE"/>
<path d="M20.5429 17L19.2661 17.0036L20.5429 17Z" fill="#008CDE"/>
<path d="M22.937 20.1703C22.7764 20.0103 22.5839 19.886 22.372 19.8053C22.1602 19.7247 21.9337 19.6896 21.7074 19.7024C21.4566 19.6917 21.2072 19.7441 20.9819 19.8547C20.8154 19.9458 20.6686 20.0691 20.5502 20.2174V17.0145L19.2734 23.0866H20.5502V22.6695C20.6568 22.8054 20.787 22.921 20.9347 23.0104C21.1808 23.1293 21.4525 23.1854 21.7255 23.1737C21.9539 23.1861 22.1823 23.1473 22.3938 23.06C22.6053 22.9728 22.7946 22.8393 22.9479 22.6695C23.2474 22.3144 23.4039 21.8605 23.3868 21.3963C23.3969 21.1723 23.3623 20.9486 23.2851 20.7381C23.2079 20.5276 23.0895 20.3346 22.937 20.1703ZM21.8271 22.1762C21.7782 22.2593 21.7081 22.328 21.624 22.3752C21.5398 22.4223 21.4447 22.4463 21.3483 22.4446C21.2435 22.4503 21.1391 22.4273 21.0464 22.3781C20.9538 22.3289 20.8763 22.2553 20.8223 22.1653C20.6989 21.9532 20.6385 21.7104 20.6482 21.4652C20.6406 21.2671 20.6689 21.0693 20.7316 20.8812C20.7682 20.7534 20.8468 20.6416 20.9547 20.5639C21.0627 20.4863 21.1936 20.4473 21.3265 20.4532C21.4587 20.4489 21.5886 20.4896 21.6947 20.5686C21.8008 20.6477 21.8769 20.7605 21.9105 20.8885C21.9738 21.0752 22.0033 21.2718 21.9975 21.4688C22.0087 21.716 21.9496 21.9612 21.8271 22.1762Z" fill="#747674"/>
<path d="M19.2661 17.0036V23.0721L20.5429 17L19.2661 17.0036Z" fill="#1F0370"/>
<path d="M26.1507 20.7724C25.6791 20.7724 25.5631 20.8739 25.4687 20.9501C25.3952 21.0239 25.3371 21.1116 25.2978 21.2082C25.2586 21.3047 25.239 21.4081 25.2402 21.5123V23.0866H23.8909V19.793H25.1894V20.3661C25.3171 20.1968 25.4729 20.0508 25.6501 19.9345C25.8433 19.7838 26.0837 19.7067 26.3284 19.7168H26.4844V20.7832H26.2885L26.1507 20.7724Z" fill="#747674"/>
<path d="M27.1447 20.1521C27.4204 19.8619 27.8919 19.7168 28.5594 19.7168C28.9568 19.7087 29.3517 19.7815 29.7201 19.9308C29.8928 19.9872 30.0442 20.0948 30.1543 20.2393C30.2644 20.3837 30.3281 20.5583 30.3367 20.7397V22.2668C30.3367 22.372 30.3367 22.4989 30.3367 22.6476C30.335 22.7282 30.3564 22.8075 30.3984 22.8762C30.4383 22.924 30.4912 22.9593 30.5507 22.9777V23.1047H29.1796C29.1493 23.0451 29.1273 22.9817 29.1143 22.9161C29.0998 22.8504 29.0901 22.7837 29.0853 22.7166C28.9536 22.8585 28.8021 22.9807 28.6355 23.0793C28.404 23.1652 28.1557 23.1963 27.9101 23.17C27.6149 23.1938 27.3204 23.1157 27.0758 22.9487C26.9598 22.8674 26.8659 22.7586 26.8026 22.6319C26.7393 22.5052 26.7085 22.3648 26.7131 22.2233C26.7011 22.0228 26.7462 21.823 26.8432 21.6471C26.9401 21.4712 27.0849 21.3264 27.2608 21.2294C27.4127 21.1604 27.5722 21.1092 27.736 21.077C27.9947 21.0226 28.2587 20.9971 28.5231 21.0009C28.6632 21.0103 28.8039 20.9981 28.9402 20.9646C29.0853 20.9138 29.1687 20.8884 29.1687 20.7796C29.173 20.7206 29.1589 20.6617 29.1284 20.6111C29.0978 20.5604 29.0524 20.5205 28.9983 20.4967C28.8563 20.4323 28.7 20.406 28.5448 20.4205C28.4846 20.4189 28.4247 20.43 28.3691 20.4531C28.3135 20.4763 28.2634 20.5109 28.222 20.5547C28.1562 20.6489 28.1173 20.7593 28.1096 20.8739H26.8291C26.8454 20.6035 26.9573 20.3477 27.1447 20.1521ZM28.0769 22.2922C28.1709 22.3486 28.2793 22.3764 28.3889 22.372C28.5776 22.3749 28.7639 22.3286 28.9293 22.2378C29.0135 22.1881 29.0822 22.116 29.1277 22.0295C29.1732 21.943 29.1937 21.8456 29.1869 21.7481V21.4869C29.1307 21.5134 29.0725 21.5353 29.0128 21.5522C28.9333 21.5757 28.852 21.5927 28.7697 21.603L28.5666 21.632C28.4259 21.6442 28.2877 21.6772 28.1567 21.7299C28.0946 21.7519 28.0409 21.7927 28.0032 21.8467C27.9655 21.9007 27.9456 21.9652 27.9463 22.031C27.9442 22.0837 27.9566 22.1359 27.9822 22.182C28.0078 22.2281 28.0456 22.2662 28.0914 22.2922H28.0769Z" fill="#747674"/>
<path d="M32.5094 18.3566V19.2598H31.0947V18.3566H32.5094ZM32.4441 19.8075V23.1011H31.1636V19.8075H32.4441Z" fill="#747674"/>
<path d="M35.1718 20.4967C35.0605 20.4997 34.9518 20.5305 34.8555 20.5862C34.7593 20.642 34.6784 20.7209 34.6204 20.8159C34.5423 20.9721 34.5048 21.1455 34.5116 21.3201V23.1011H33.2275V19.8002H34.508V20.279C34.6108 20.1413 34.733 20.0191 34.8707 19.9163C35.0621 19.771 35.298 19.6966 35.5381 19.7059C35.9083 19.6892 36.2752 19.7813 36.5937 19.9707C36.7346 20.0695 36.847 20.2036 36.9196 20.3596C36.9922 20.5156 37.0224 20.688 37.0072 20.8594V23.0757H35.7086V21.0734C35.7172 20.9349 35.6871 20.7967 35.6216 20.6744C35.5675 20.6094 35.498 20.5591 35.4194 20.5281C35.3408 20.497 35.2556 20.4862 35.1718 20.4967Z" fill="#747674"/>
</g>
<circle cx="21" cy="21" r="20.5" stroke="black" stroke-opacity="0.05"/>
<defs>
<clipPath id="clip0_9_328820">
<rect width="32" height="6.19542" fill="white" transform="translate(5 17)"/>
</clipPath>
</defs>
</svg>
