<svg width="42" height="42" viewBox="0 0 42 42" fill="none" xmlns="http://www.w3.org/2000/svg">
<circle cx="21" cy="21" r="21" fill="white"/>
<path d="M16.1016 19.4561C16.2616 19.2177 16.4757 19.0203 16.7263 18.8801C16.977 18.74 17.2572 18.6609 17.5441 18.6494C18.2158 18.5495 18.9006 18.703 19.4653 19.0801C19.7177 19.2651 19.9229 19.5069 20.0642 19.7861C20.2056 20.0653 20.2791 20.3738 20.2788 20.6867C20.2788 21.8011 20.2788 22.9155 20.2788 24.0299C20.2788 24.1872 20.2105 24.2556 20.0532 24.2487H19.2807C19.1098 24.2487 19.0414 24.1872 19.0482 24.0163C19.0482 23.0455 19.0482 22.0746 19.0482 21.1106C19.0484 20.9356 19.0278 20.7612 18.9867 20.591C18.9366 20.3237 18.7862 20.0856 18.5663 19.9255C18.3465 19.7654 18.0737 19.6953 17.8039 19.7296C17.5417 19.7387 17.2913 19.8407 17.0972 20.0172C16.9032 20.1937 16.7781 20.4334 16.7442 20.6936C16.717 20.8609 16.7033 21.03 16.7032 21.1995V23.9752C16.7032 24.2145 16.7032 24.2487 16.4297 24.2487H15.705C15.4931 24.2487 15.4589 24.2077 15.4589 23.9889V21.0696C15.4752 20.7764 15.4012 20.4854 15.247 20.2355C15.1081 20.0281 14.9061 19.8708 14.671 19.7871C14.4358 19.7034 14.1799 19.6976 13.9412 19.7706C13.7098 19.8262 13.5041 19.9586 13.3576 20.146C13.2111 20.3335 13.1325 20.5651 13.1344 20.803C13.1344 21.4867 13.1344 22.1703 13.1344 22.8198V23.9958C13.1344 24.2077 13.1344 24.2487 12.8951 24.2487H12.0337C11.8901 24.2487 11.8218 24.194 11.8286 24.0436C11.8286 22.9634 11.8286 21.8764 11.8286 20.7961C11.8227 20.5067 11.8762 20.2192 11.9857 19.9513C12.0953 19.6834 12.2585 19.4407 12.4654 19.2383C12.6723 19.0359 12.9185 18.878 13.1888 18.7743C13.459 18.6707 13.7477 18.6235 14.0369 18.6357C14.5765 18.5835 15.118 18.7135 15.5751 19.0049C15.7666 19.1211 15.9307 19.2852 16.1016 19.4561Z" fill="#FE6E03"/>
<path d="M24.422 23.9752C24.1232 24.0982 23.8173 24.2033 23.5059 24.2897C23.0024 24.4063 22.4761 24.3779 21.9881 24.2076C21.6876 24.1078 21.4252 23.9176 21.2368 23.6631C21.0483 23.4086 20.9431 23.1022 20.9353 22.7856C20.906 22.4632 20.9876 22.1404 21.1666 21.8706C21.3456 21.6009 21.6113 21.4003 21.9198 21.302C22.5117 21.0781 23.134 20.9444 23.7657 20.9055L24.2648 20.8576C24.3947 19.962 23.9571 19.586 23.3008 19.5791C22.7858 19.5892 22.2811 19.7254 21.8309 19.9757H21.783C21.5096 20.1192 21.5027 20.1192 21.3797 19.8321C21.325 19.7159 21.2771 19.5928 21.2224 19.4697C21.1677 19.3467 21.1267 19.2441 21.3386 19.1142C21.7156 18.8983 22.1275 18.7502 22.5556 18.6767C23.0366 18.5843 23.5308 18.5843 24.0118 18.6767C24.4457 18.7216 24.846 18.9307 25.1307 19.2612C25.4154 19.5916 25.563 20.0185 25.5433 20.4542C25.5433 21.6507 25.5433 22.8471 25.5433 24.0504C25.5433 24.1666 25.4954 24.2281 25.3723 24.2281H24.5929C24.4152 24.2418 24.4289 24.0846 24.422 23.9752ZM24.2921 21.719C24.046 21.719 23.8341 21.719 23.6085 21.7806C23.2115 21.8051 22.8245 21.9147 22.4736 22.1019C22.3849 22.149 22.3076 22.2151 22.2474 22.2955C22.1871 22.3758 22.1453 22.4684 22.1249 22.5668C22.1027 22.7499 22.1511 22.9346 22.2604 23.0832C22.3696 23.2319 22.5314 23.3332 22.7128 23.3667C22.9609 23.4335 23.2198 23.4503 23.4745 23.4163C23.7292 23.3822 23.9745 23.298 24.1964 23.1684C24.2192 23.1573 24.2391 23.1409 24.2545 23.1208C24.2699 23.1006 24.2805 23.0771 24.2853 23.0522C24.299 22.6147 24.2921 22.1908 24.2921 21.719Z" fill="#FE6E02"/>
<path d="M9.2307 18.6016C9.80215 18.6 10.3662 18.731 10.8784 18.9844C11.0698 19.0801 11.0835 19.1212 10.9946 19.3058C10.9057 19.4904 10.8168 19.6613 10.7348 19.8459C10.6528 20.0305 10.5844 20.0168 10.434 19.9416C9.98452 19.6855 9.46161 19.5891 8.95039 19.6681C8.88513 19.6776 8.82099 19.6936 8.75896 19.716C8.66676 19.7364 8.58312 19.7848 8.51948 19.8545C8.45584 19.9243 8.41532 20.012 8.40345 20.1057C8.39001 20.1967 8.40515 20.2896 8.44679 20.3717C8.48843 20.4537 8.55451 20.5208 8.6359 20.5637C8.86835 20.6936 9.10764 20.7962 9.31958 20.9056C9.68193 21.0628 10.058 21.1995 10.4066 21.3773C10.6399 21.5089 10.834 21.7001 10.9691 21.9313C11.1042 22.1626 11.1754 22.4256 11.1754 22.6934C11.1754 22.9612 11.1042 23.2242 10.9691 23.4555C10.834 23.6867 10.6399 23.8779 10.4066 24.0095C9.87684 24.2925 9.27406 24.4092 8.67692 24.3445C8.14964 24.3263 7.63417 24.1834 7.17283 23.9274C6.96773 23.8044 6.96089 23.7838 7.07028 23.5719C7.17967 23.36 7.22753 23.2369 7.31641 23.066C7.40529 22.8951 7.43947 22.8609 7.6309 22.9703C8.03571 23.2385 8.51274 23.3769 8.99825 23.3668C9.17928 23.3599 9.35759 23.3206 9.52468 23.2506C9.61267 23.2171 9.68991 23.1604 9.74817 23.0865C9.80642 23.0125 9.8435 22.9242 9.85543 22.8308C9.86737 22.7374 9.85371 22.6426 9.81592 22.5563C9.77814 22.4701 9.71765 22.3958 9.64091 22.3413C9.41042 22.1855 9.16264 22.0571 8.90254 21.9584C8.5607 21.808 8.21886 21.6986 7.84967 21.5346C7.65262 21.4288 7.48112 21.2811 7.34724 21.102C7.21336 20.9228 7.12035 20.7165 7.07473 20.4976C7.02912 20.2786 7.03201 20.0523 7.08321 19.8346C7.13441 19.6169 7.23268 19.4131 7.3711 19.2374C7.68763 18.9069 8.11208 18.7007 8.56753 18.6563C8.82049 18.6221 9.03243 18.6221 9.2307 18.6016Z" fill="#FE6E02"/>
<path d="M32.3595 19.7092C32.3595 20.6663 32.3595 21.5893 32.3595 22.5123C32.3595 23.196 32.8586 23.3532 33.4466 23.237C33.6529 23.1755 33.8488 23.0833 34.0277 22.9635C34.1918 22.8746 34.2396 22.8746 34.3217 23.0455L34.5815 23.5993C34.5972 23.6217 34.608 23.6471 34.6131 23.674C34.6182 23.7008 34.6175 23.7285 34.611 23.755C34.6046 23.7816 34.5925 23.8064 34.5756 23.8279C34.5587 23.8494 34.5374 23.8671 34.5131 23.8796C34.1569 24.1166 33.752 24.2704 33.3283 24.3295C32.9046 24.3887 32.473 24.3518 32.0656 24.2215C31.8045 24.1353 31.5755 23.9724 31.4084 23.7541C31.2413 23.5358 31.1439 23.2722 31.1289 22.9977C31.0878 22.7606 31.0672 22.5204 31.0674 22.2798C31.0674 20.9535 31.0674 19.6272 31.0674 18.3077C31.0674 18.0274 31.0674 18 31.3614 18H32.045C32.2775 18 32.3048 18 32.3048 18.2666V18.6632C32.3048 18.6632 32.3048 18.6632 32.3048 18.7179H34.5883C34.8003 18.7179 34.8413 18.7589 34.8413 18.9777V19.4562C34.8413 19.6682 34.8003 19.7092 34.5883 19.7092H32.3322H32.3595Z" fill="#FE6E03"/>
<path d="M26.4867 22.4028C26.4867 21.7875 26.4457 21.1722 26.4867 20.5569C26.5197 20.0653 26.7286 19.6021 27.075 19.2518C27.4215 18.9016 27.8825 18.6877 28.3737 18.6494C28.9771 18.546 29.5976 18.6221 30.1581 18.8682C30.6367 19.0938 30.6435 19.1212 30.411 19.5861C30.3632 19.6955 30.3085 19.8049 30.2606 19.9074C30.2128 20.01 30.1171 20.1125 29.9393 20.0031C29.6368 19.7992 29.2785 19.6941 28.9138 19.7023C28.7574 19.6926 28.6007 19.7159 28.4538 19.7705C28.3069 19.8251 28.1731 19.9099 28.061 20.0194C27.9489 20.1289 27.8611 20.2607 27.803 20.4063C27.745 20.5518 27.7182 20.708 27.7242 20.8645C27.7242 21.8764 27.7242 22.9156 27.7242 23.9069V24.0573C27.7277 24.0806 27.7256 24.1043 27.7183 24.1266C27.7109 24.1489 27.6984 24.1692 27.6818 24.1858C27.6652 24.2024 27.6449 24.2149 27.6226 24.2223C27.6003 24.2297 27.5765 24.2317 27.5533 24.2282H26.644C26.5072 24.2282 26.4799 24.1394 26.4799 24.0163C26.4799 23.483 26.4799 22.9429 26.4799 22.4028H26.4867Z" fill="#FE6F03"/>
<path d="M35.8532 20.7144C35.8615 20.7871 35.8544 20.8609 35.8323 20.9307C35.8102 21.0005 35.7736 21.0649 35.7249 21.1196C35.6761 21.1743 35.6164 21.218 35.5495 21.248C35.4827 21.278 35.4102 21.2935 35.337 21.2935C35.2637 21.2935 35.1913 21.278 35.1244 21.248C35.0576 21.218 34.9978 21.1743 34.9491 21.1196C34.9004 21.0649 34.8637 21.0005 34.8416 20.9307C34.8195 20.8609 34.8124 20.7871 34.8208 20.7144C34.8124 20.6416 34.8195 20.5679 34.8416 20.498C34.8637 20.4282 34.9004 20.3638 34.9491 20.3091C34.9978 20.2545 35.0576 20.2107 35.1244 20.1807C35.1913 20.1508 35.2637 20.1353 35.337 20.1353C35.4102 20.1353 35.4827 20.1508 35.5495 20.1807C35.6164 20.2107 35.6761 20.2545 35.7249 20.3091C35.7736 20.3638 35.8102 20.4282 35.8323 20.498C35.8544 20.5679 35.8615 20.6416 35.8532 20.7144Z" fill="#FE7004"/>
<circle cx="21" cy="21" r="20.5" stroke="black" stroke-opacity="0.05"/>
</svg>
