<svg width="42" height="42" viewBox="0 0 42 42" fill="none" xmlns="http://www.w3.org/2000/svg">
<circle cx="21" cy="21" r="21" fill="white"/>
<circle cx="21" cy="21" r="20.5" stroke="black" stroke-opacity="0.05"/>
<g clip-path="url(#clip0_9_328888)">
<path d="M21.0001 9C18.6271 9.00147 16.3077 9.70652 14.3353 11.026C12.3629 12.3455 10.826 14.2201 9.91888 16.413C9.01177 18.6058 8.7752 21.0184 9.23906 23.3456C9.70292 25.6729 10.8464 27.8104 12.5249 29.4879C14.2035 31.1654 16.3417 32.3075 18.6692 32.77C20.9968 33.2324 23.4092 32.9943 25.6015 32.0858C27.7938 31.1774 29.6675 29.6393 30.9857 27.6661C32.304 25.6928 33.0076 23.373 33.0076 21C33.0036 17.8173 31.7371 14.7662 29.4859 12.5164C27.2347 10.2666 24.1828 9.00197 21.0001 9ZM21.0001 32.6124C18.7016 32.6124 16.4547 31.9307 14.5437 30.6536C12.6326 29.3765 11.1433 27.5612 10.264 25.4375C9.38478 23.3139 9.15511 20.9771 9.60407 18.7229C10.053 16.4686 11.1605 14.3982 12.7863 12.7734C14.4121 11.1486 16.4832 10.0425 18.7378 9.59504C20.9923 9.14752 23.3289 9.37869 25.452 10.2593C27.5751 11.1399 29.3894 12.6304 30.6653 14.5423C31.9412 16.4542 32.6215 18.7015 32.62 21C32.616 24.0799 31.3903 27.0324 29.2118 29.2095C27.0333 31.3866 24.08 32.6104 21.0001 32.6124Z" fill="#00A100"/>
<path d="M31.3602 18.1155L31.3155 17.9739L31.2409 17.7279C30.5391 15.5309 29.1497 13.6177 27.2776 12.2706C25.4055 10.9235 23.1499 10.2139 20.8438 10.2464C18.5376 10.279 16.303 11.0521 14.4697 12.4515C12.6364 13.8509 11.3015 15.8026 10.6621 18.0186L10.6024 18.2571L10.5652 18.4062C10.3542 19.2547 10.2465 20.1256 10.2447 21C10.2408 22.5591 10.5768 24.1003 11.2295 25.5163C11.8821 26.9323 12.8356 28.1889 14.0235 29.1987L14.2024 29.3404L14.3291 29.4447C16.2362 30.96 18.6014 31.7826 21.0372 31.7776C23.4071 31.7844 25.711 30.9972 27.5813 29.5416L27.7155 29.4373L27.8869 29.2956C29.4919 27.9722 30.6781 26.2112 31.3013 24.2265C31.9244 22.2418 31.9579 20.1188 31.3975 18.1155H31.3602ZM20.9999 11.2509C23.3701 11.2509 25.3304 12.123 25.7031 13.2634H16.3043C16.6695 12.123 18.6298 11.2509 20.9999 11.2509ZM16.2745 13.9416H25.7478C25.5763 14.6497 24.7937 15.2609 23.6683 15.641C24.3979 15.9609 25.0222 16.4804 25.4692 17.1398C25.9163 17.7992 26.1679 18.5715 26.195 19.3677H24.913C24.913 17.6981 23.1689 16.3416 21.0223 16.3416C18.8757 16.3416 17.1391 17.6981 17.1391 19.3677H15.8496C15.8776 18.5717 16.1295 17.7998 16.5765 17.1406C17.0234 16.4814 17.6473 15.9616 18.3763 15.641C17.236 15.2609 16.4459 14.6497 16.2745 13.9416ZM27.5664 29.0199L27.4471 28.9304L27.2981 28.8037L27.1043 28.6621L26.9403 28.5578L26.7391 28.4385L26.5751 28.3491L26.3515 28.2447L26.1875 28.1702L25.9565 28.0882L25.7925 28.036L25.5465 27.9689L25.39 27.9317L25.1068 27.8944H24.9726C24.8336 27.887 24.6943 27.887 24.5552 27.8944C23.8382 27.901 23.1327 28.075 22.4948 28.4023C21.8568 28.7297 21.3041 29.2015 20.8807 29.7801C20.4576 29.201 19.905 28.729 19.267 28.4015C18.629 28.0741 17.9233 27.9004 17.2062 27.8944C17.0746 27.887 16.9427 27.887 16.8111 27.8944H16.677L16.4161 27.9317L16.2521 27.9689L16.0583 28.0211L15.8944 28.0733L15.6782 28.1478L15.5142 28.2149L15.313 28.3043L15.149 28.3863L14.9552 28.4981L14.7987 28.595L14.6124 28.7217C14.5595 28.7573 14.5096 28.7972 14.4633 28.841L14.3515 28.923C13.1974 27.9505 12.2698 26.7375 11.6338 25.3689C10.9978 24.0003 10.6687 22.5092 10.6695 21C10.6701 20.1892 10.7651 19.3813 10.9527 18.5925L11.0794 18.6596L11.3254 18.7789L11.5788 18.9056L11.8248 19.0174L12.1006 19.1292L12.354 19.2335L12.6372 19.3453L12.9055 19.4422L13.2037 19.5391L13.472 19.6286L13.7925 19.7255L14.0683 19.8C14.1726 19.8 14.2844 19.8596 14.3962 19.8894L14.672 19.964L15.0148 20.0459L15.2981 20.1056L15.6484 20.1801L15.9391 20.2323L16.3043 20.2994L16.595 20.3515L16.9751 20.4037L17.2658 20.441L17.6534 20.4932H17.9515L18.354 20.5304H18.6372H19.0621H19.3378H19.8223H21.7751H22.2894H22.595H23.0347H23.3627L23.7726 20.4932L24.1006 20.4484L24.4956 20.4037L24.8235 20.3515L25.2037 20.2919L25.5316 20.2323L25.8968 20.1652L26.2248 20.0981L26.5676 20.0236L26.8881 19.9416L27.2235 19.8596L27.5366 19.7702L27.8571 19.6807L28.1627 19.5838L28.4757 19.4795L28.7664 19.3751L29.0645 19.2633L29.3478 19.1515L29.631 19.0323L29.8993 18.913L30.1676 18.7863L30.4211 18.6596C30.5104 18.6169 30.5974 18.5696 30.6819 18.518L30.9204 18.3838L31.0621 18.3093C31.2942 19.1823 31.4119 20.0818 31.4124 20.9851C31.4129 22.5267 31.0677 24.0488 30.4021 25.4394C29.7365 26.8299 28.7675 28.0534 27.5664 29.0199Z" fill="#00A100"/>
</g>
<defs>
<clipPath id="clip0_9_328888">
<rect width="24" height="24" fill="white" transform="translate(9 9)"/>
</clipPath>
</defs>
</svg>
