<svg width="42" height="42" viewBox="0 0 42 42" fill="none" xmlns="http://www.w3.org/2000/svg">
<circle cx="21" cy="21" r="21" fill="white"/>
<g clip-path="url(#clip0_9_328927)">
<path d="M20.6366 22.9945C20.6599 23.3301 20.6019 23.6663 20.4676 23.9747C20.3299 24.2002 20.1391 24.3885 19.9117 24.5231C19.5778 24.7236 19.2054 24.8516 18.8188 24.8987C18.2642 24.98 17.7041 25.0177 17.1437 25.0114C16.5618 25.0188 15.9803 24.9798 15.4047 24.8949C15.0215 24.8481 14.6528 24.72 14.323 24.5194C14.0701 24.3464 13.8678 24.1091 13.7371 23.832C13.5912 23.4503 13.5285 23.0418 13.553 22.6339V22.3297H16.1033V22.8292C16.1033 23.2611 16.1033 23.464 16.2347 23.6067C16.3213 23.6752 16.4208 23.7254 16.5273 23.7545C16.6338 23.7835 16.7451 23.7907 16.8545 23.7757C17.2714 23.7757 17.6507 23.5578 17.6507 23.1259C17.6596 22.9151 17.6329 22.7044 17.5718 22.5025C17.4665 22.3094 17.3019 22.1553 17.1023 22.063C15.8929 21.5447 15.0604 21.1591 14.6047 20.9062C14.2529 20.7367 13.9575 20.4694 13.7536 20.1364C13.5498 19.8033 13.4463 19.4186 13.4554 19.0283C13.4524 18.7752 13.4815 18.5228 13.5418 18.2771C13.6151 18.0443 13.744 17.8329 13.9174 17.6611C14.2229 17.3849 14.603 17.2046 15.0103 17.1428C15.6305 17.0373 16.2593 16.9908 16.8883 17.0039C17.4839 16.9962 18.0796 17.0226 18.6723 17.0827C19.0578 17.1245 19.4288 17.2529 19.7577 17.4583C20.0239 17.6187 20.2238 17.8693 20.3211 18.1644C20.3875 18.4727 20.414 18.7883 20.4 19.1034V19.2048H17.4742V18.848C17.4845 18.723 17.4845 18.5974 17.4742 18.4724C17.4216 18.2959 17.2601 18.2057 16.9859 18.2057C16.6103 18.2057 16.4188 18.4161 16.4188 18.833C16.4068 18.9606 16.4243 19.0893 16.4698 19.2091C16.5154 19.3289 16.5879 19.4367 16.6817 19.524C17.1982 19.8289 17.7444 20.0806 18.3117 20.2752C19.3133 20.6508 19.9706 21.0514 20.2836 21.4771C20.5518 21.9356 20.6749 22.4646 20.6366 22.9945Z" fill="#002D6E"/>
<path d="M28.3248 24.9999H26.1952L23.6675 21.244V24.9999H21.613V17.0337H23.7238L26.2703 20.737V17.0337H28.3248V24.9999Z" fill="#002D6E"/>
<path d="M36.3812 18.9943H34.5032V25.0036H31.2957V18.9943H29.3765V17.0337H36.3887L36.3812 18.9943Z" fill="#002D6E"/>
<path d="M13.0836 20.9287H9.75587L6 25.0001H9.3277L13.0836 20.9287Z" fill="#FC001E"/>
</g>
<circle cx="21" cy="21" r="20.5" stroke="black" stroke-opacity="0.05"/>
<defs>
<clipPath id="clip0_9_328927">
<rect width="30.3812" height="8" fill="white" transform="translate(6 17)"/>
</clipPath>
</defs>
</svg>
