<svg width="42" height="42" viewBox="0 0 42 42" fill="none" xmlns="http://www.w3.org/2000/svg">
<circle cx="21" cy="21" r="21" fill="#70BF54"/>
<circle cx="21" cy="21" r="20.5" stroke="black" stroke-opacity="0.05"/>
<path d="M20.9976 11C15.4774 11 11 15.4785 11 21C11 26.5215 15.4774 31 20.9976 31C22.8775 31 24.4513 30.3541 25.6281 29.5072C24.437 28.4402 23.686 26.89 23.686 25.1675V24.7464C22.9302 25.2919 22.0021 25.6172 20.9928 25.6172C18.4432 25.6172 16.3815 23.5502 16.3815 21.0048C16.3815 18.4545 18.448 16.3923 20.9928 16.3923C23.5425 16.3923 25.6042 18.4593 25.6042 21.0048V25.6172C25.6042 28.5885 28.0151 31 30.9856 31C30.9856 31 30.9856 21.0096 30.9856 21C30.9952 15.4737 26.5178 11 20.9976 11Z" fill="white"/>
<path d="M25.6138 25.6123C25.6138 25.6123 25.6138 22.3061 25.6138 20.9999C25.6138 18.4497 23.5473 16.3875 21.0025 16.3875C18.582 16.3875 16.5969 18.2535 16.4055 20.6267C16.5921 18.7846 18.1467 17.3492 20.041 17.3492C22.0597 17.3492 23.6956 18.9855 23.6956 21.0047V25.1674C23.6956 28.3875 26.3075 30.9999 29.5268 30.9999H31.0001C28.02 30.9951 25.6138 28.5836 25.6138 25.6123Z" fill="url(#paint0_linear_9_328920)"/>
<defs>
<linearGradient id="paint0_linear_9_328920" x1="23.6994" y1="16.2736" x2="23.6994" y2="31.0396" gradientUnits="userSpaceOnUse">
<stop stop-color="#00AB5B"/>
<stop offset="1" stop-color="#70BF54"/>
</linearGradient>
</defs>
</svg>
