<svg width="42" height="42" viewBox="0 0 42 42" fill="none" xmlns="http://www.w3.org/2000/svg">
<circle cx="21" cy="21" r="21" fill="white"/>
<g clip-path="url(#clip0_9_328945)">
<path d="M19.0789 31H22.8999V27.179C22.8996 28.0383 22.6095 28.8725 22.0766 29.5467C21.5437 30.221 20.7991 30.6959 19.9631 30.8947C19.6735 30.9647 19.3767 31 19.0789 31Z" fill="#FF5800"/>
<path d="M19.5368 18.9316C19.5368 18.9316 19.4368 21.3421 22.2526 22.7737C22.2526 22.7737 19.5104 23.2526 17.7315 22.2947C17.6052 22.2263 17.4841 22.1526 17.3631 22.0789C16.616 21.5744 16.0066 20.8914 15.5903 20.0918C15.1739 19.2922 14.9638 18.4014 14.9789 17.5V11H12.5631C12.1443 11 11.7427 11.1663 11.4466 11.4625C11.1505 11.7586 10.9841 12.1602 10.9841 12.5789V29.4579C10.9841 29.8767 11.1505 30.2782 11.4466 30.5744C11.7427 30.8705 12.1443 31.0368 12.5631 31.0368H19.0789C18.3231 31.0368 17.5844 30.8127 16.956 30.3929C16.3276 29.973 15.8379 29.3762 15.5487 28.678C15.2595 27.9798 15.1838 27.2115 15.3312 26.4703C15.4787 25.7291 15.8426 25.0483 16.377 24.5139C16.9114 23.9795 17.5922 23.6156 18.3334 23.4681C19.0746 23.3207 19.8429 23.3964 20.5411 23.6856C21.2393 23.9748 21.8361 24.4646 22.256 25.0929C22.6758 25.7213 22.8999 26.4601 22.8999 27.2158V11H19.5368V18.9316Z" fill="#FF5800"/>
<path d="M29.4421 11H27.4579V26.5947C27.4579 27.1737 27.3438 27.7469 27.1221 28.2818C26.9003 28.8166 26.5754 29.3024 26.1658 29.7116C25.7561 30.1207 25.2699 30.4451 24.7348 30.6662C24.1997 30.8872 23.6263 31.0007 23.0474 31H29.4421C29.8609 31 30.2625 30.8336 30.5586 30.5375C30.8547 30.2414 31.021 29.8398 31.021 29.4211V12.5631C31.0169 12.1471 30.8487 11.7496 30.553 11.4569C30.2574 11.1642 29.8581 11 29.4421 11Z" fill="#FF5800"/>
</g>
<circle cx="21" cy="21" r="20.5" stroke="black" stroke-opacity="0.05"/>
<defs>
<clipPath id="clip0_9_328945">
<rect width="20" height="20" fill="white" transform="translate(11 11)"/>
</clipPath>
</defs>
</svg>
