<svg width="42" height="42" viewBox="0 0 42 42" fill="none" xmlns="http://www.w3.org/2000/svg">
<circle cx="21" cy="21" r="21" fill="#007FE9"/>
<g clip-path="url(#clip0_9_328969)">
<path d="M19 10C17.6858 10 16.3844 10.2591 15.1703 10.7624C13.9563 11.2657 12.8533 12.0034 11.9246 12.9333C10.9958 13.8632 10.2595 14.967 9.75768 16.1817C9.25586 17.3964 8.99839 18.6981 9.00001 20.0123C9.00001 22.6645 10.0536 25.208 11.9289 27.0834C13.8043 28.9588 16.3478 30.0123 19 30.0123H29V20.0123C29.0016 18.6981 28.7442 17.3964 28.2423 16.1817C27.7405 14.967 27.0042 13.8632 26.0754 12.9333C25.1467 12.0034 24.0437 11.2657 22.8297 10.7624C21.6156 10.2591 20.3143 10 19 10ZM19 25.0184C18.0069 25.0184 17.0362 24.7238 16.2106 24.1718C15.3851 23.6199 14.7419 22.8353 14.3624 21.9176C13.9829 20.9999 13.8843 19.9902 14.0789 19.0164C14.2735 18.0426 14.7527 17.1484 15.4558 16.4471C16.1589 15.7457 17.0542 15.2687 18.0285 15.0765C19.0028 14.8842 20.0122 14.9854 20.929 15.3671C21.8458 15.7488 22.6287 16.3939 23.1787 17.2208C23.7286 18.0477 24.0209 19.0192 24.0185 20.0123C24.0185 20.6714 23.8887 21.3239 23.6364 21.9328C23.3842 22.5417 23.0146 23.0949 22.5486 23.5609C22.0826 24.0269 21.5294 24.3965 20.9205 24.6487C20.3116 24.9009 19.659 25.0308 19 25.0308V25.0184Z" fill="white"/>
<path d="M33.1206 25.8425C33.0566 25.7732 32.9784 25.7187 32.8914 25.6826C32.8043 25.6465 32.7105 25.6297 32.6163 25.6333C32.4922 25.6197 32.3669 25.6442 32.257 25.7035C32.1472 25.7629 32.058 25.8542 32.0013 25.9655C31.9273 26.1663 31.8898 26.3787 31.8906 26.5927H30.9312C30.9313 26.2313 31.0111 25.8744 31.1649 25.5473C31.3002 25.2993 31.505 25.0962 31.7541 24.963C32.0031 24.8297 32.2857 24.772 32.5671 24.7969C33.0184 24.7835 33.4579 24.9418 33.7971 25.2398C33.9518 25.3915 34.0732 25.5737 34.1537 25.7749C34.2341 25.976 34.2719 26.1917 34.2645 26.4083C34.2672 26.768 34.1504 27.1184 33.9324 27.4046C33.7251 27.6495 33.485 27.8648 33.219 28.0442L32.8254 28.3148L32.3088 28.6961C32.2215 28.779 32.1469 28.8743 32.0874 28.979H34.2768V29.84H30.8328C30.8447 29.4998 30.9242 29.1653 31.0665 28.856C31.3026 28.4239 31.6457 28.0598 32.0628 27.7982C32.3723 27.5832 32.6681 27.349 32.9484 27.0971C33.0452 27.0025 33.1222 26.8897 33.175 26.7651C33.2278 26.6405 33.2553 26.5067 33.2559 26.3714C33.2703 26.185 33.2227 25.999 33.1206 25.8425Z" fill="white"/>
</g>
<circle cx="21" cy="21" r="20.5" stroke="black" stroke-opacity="0.05"/>
<defs>
<clipPath id="clip0_9_328969">
<rect width="25.3137" height="20" fill="white" transform="translate(9 10)"/>
</clipPath>
</defs>
</svg>
