<svg width="42" height="42" viewBox="0 0 42 42" fill="none" xmlns="http://www.w3.org/2000/svg">
<circle cx="21" cy="21" r="21" fill="white"/>
<g clip-path="url(#clip0_9_329175)">
<path d="M20.9964 31.0632C13.2842 31.0632 7 26.562 7 21.0316C7 15.5012 13.2842 11 20.9964 11C28.7085 11 35 15.5012 35 21.0026C35 26.504 28.7158 31.0632 20.9964 31.0632ZM20.9964 12.5294C14.125 12.5294 8.52938 16.342 8.52938 21.0316C8.52938 25.7212 14.1105 29.5338 20.9964 29.5338C27.8822 29.5338 33.4706 25.7212 33.4706 21.0026C33.4706 16.284 27.8822 12.5294 20.9964 12.5294Z" fill="#004C90"/>
<path d="M18.8799 22.6045V27.7145L20.8659 28.4901L22.8519 27.7652V22.6697C21.5278 22.7241 20.2016 22.7024 18.8799 22.6045Z" fill="#939598"/>
<path d="M14.4658 22.0173V25.9966L16.5243 26.7939V22.358C15.8285 22.2638 15.1472 22.1551 14.4658 22.0173Z" fill="#939598"/>
<path d="M25.2075 22.4884V26.9316L27.266 26.2068V22.2202C26.5847 22.3217 25.8961 22.4522 25.2075 22.4884Z" fill="#939598"/>
<path d="M14.4657 16.9219L12.1028 18.1541V20.1039C12.8856 20.2198 13.6757 20.3286 14.4657 20.4228V16.9219Z" fill="#939598"/>
<path d="M18.8799 20.7779V14.6096L16.5242 15.8418V20.6329C17.307 20.6982 18.097 20.7489 18.8799 20.7779Z" fill="#939598"/>
<path d="M29.629 20.2344V17.6178L27.2661 16.5305V20.5171C28.0562 20.4373 28.839 20.3431 29.629 20.2344Z" fill="#939598"/>
<path d="M25.2077 20.691V15.581L22.8521 14.4792V20.807C23.6349 20.7925 24.4249 20.749 25.2077 20.691Z" fill="#939598"/>
<path d="M34.5434 19.3935C34.3404 19.4298 34.0795 19.5023 33.891 19.5385C32.4849 19.8067 31.057 20.0459 29.6291 20.2633C28.839 20.372 28.0562 20.4663 27.2661 20.546V16.5594L25.2076 15.6099V20.7199C24.4248 20.7779 23.6347 20.8214 22.8519 20.8432V14.4792L20.8659 13.5659L18.8799 14.6024V20.7707C18.0971 20.7707 17.307 20.691 16.5242 20.6257V15.8346L14.4657 16.9146V20.4155C13.6756 20.3213 12.8856 20.2126 12.1028 20.0966C11.0155 19.9299 9.9283 19.7414 8.87005 19.5312L8.04375 19.3863C8.00026 19.5167 8.13073 19.0818 7.94228 19.6907C7.75382 20.2996 7.89154 19.8574 7.8553 19.9951H7.89879H7.94228L8.04375 20.0386L8.2467 20.1183C9.50389 20.6284 10.7918 21.0593 12.1028 21.4085V25.0327L14.4657 25.9532V22.0174C15.147 22.1551 15.8284 22.2638 16.5242 22.3581V26.8012L18.8799 27.7218V22.6117C20.2016 22.7096 21.5278 22.7314 22.8519 22.677V27.787L25.2076 26.939V22.4958C25.8962 22.4233 26.5848 22.3291 27.2661 22.2131V26.1996L29.6291 25.3516V21.7275C31.155 21.362 32.6541 20.8922 34.1157 20.3213C34.3332 20.2343 34.5216 20.0821 34.7318 19.9951L34.5434 19.3935Z" fill="#004C90"/>
</g>
<circle cx="21" cy="21" r="20.5" stroke="black" stroke-opacity="0.05"/>
<defs>
<clipPath id="clip0_9_329175">
<rect width="28" height="20.0632" fill="white" transform="translate(7 11)"/>
</clipPath>
</defs>
</svg>
