<svg width="42" height="42" viewBox="0 0 42 42" fill="none" xmlns="http://www.w3.org/2000/svg">
<circle cx="21" cy="21" r="21" fill="#0066B2"/>
<circle cx="21" cy="21" r="20.5" stroke="black" stroke-opacity="0.05"/>
<mask id="mask0_9_329212" style="mask-type:luminance" maskUnits="userSpaceOnUse" x="10" y="20" width="7" height="9">
<path fill-rule="evenodd" clip-rule="evenodd" d="M16.0238 20.9568L10.3066 20.9916C10.136 20.9916 10 21.1345 10.006 21.305V21.3086C10.006 21.3086 10 21.3146 10 21.3195C10.1002 24.1043 11.2193 26.6237 12.991 28.5139C12.991 28.5187 13.0005 28.5235 13.0005 28.5259C13.0554 28.5763 13.1318 28.6136 13.2153 28.6136C13.3441 28.6136 13.4515 28.5307 13.4957 28.4226L16.3089 21.3819C16.3256 21.3435 16.3351 21.3014 16.3292 21.2642C16.3292 21.0913 16.1967 20.9568 16.0297 20.9568C16.0273 20.9568 16.0261 20.9568 16.0238 20.9568Z" fill="white"/>
</mask>
<g mask="url(#mask0_9_329212)">
<path fill-rule="evenodd" clip-rule="evenodd" d="M10.3066 20.9916C10.136 20.9916 10 21.1345 10.006 21.305C10.006 21.3086 10 21.3146 10 21.3195C10.1002 24.1043 11.2193 26.6237 12.991 28.5139C12.991 28.5187 13.0005 28.5235 13.0005 28.5259C13.0554 28.5763 13.1318 28.6136 13.2153 28.6136C13.3441 28.6136 13.4515 28.5307 13.4957 28.4226L16.3089 21.3819C16.3256 21.3435 16.3351 21.3014 16.3292 21.2642C16.3292 21.0913 16.1967 20.9568 16.0297 20.9568L10.3066 20.9916Z" fill="white"/>
</g>
<mask id="mask1_9_329212" style="mask-type:luminance" maskUnits="userSpaceOnUse" x="16" y="20" width="11" height="12">
<path fill-rule="evenodd" clip-rule="evenodd" d="M21.0011 20.9231C20.2984 20.9267 19.6935 21.3722 19.4573 21.9931C19.4537 21.9979 19.4537 22.0015 19.4489 22.0051L16.0582 30.4929C16.0582 30.4965 16.0511 30.5013 16.0511 30.5013C16.0368 30.5433 16.032 30.5745 16.032 30.6165C16.032 30.733 16.1024 30.8387 16.199 30.8879H16.2014C17.6331 31.5917 19.2318 31.9891 20.9271 32H21.075C22.8205 31.9831 24.4776 31.5628 25.9356 30.8207C25.9403 30.8171 25.9439 30.8171 25.9487 30.8123C26.0394 30.7594 26.099 30.6574 26.099 30.5469C26.099 30.5037 26.0895 30.4628 26.0763 30.4292V30.4256L22.5091 21.8598C22.2347 21.3038 21.6692 20.9231 21.013 20.9231C21.0094 20.9231 21.0047 20.9231 21.0011 20.9231Z" fill="white"/>
</mask>
<g mask="url(#mask1_9_329212)">
<path fill-rule="evenodd" clip-rule="evenodd" d="M21.0011 20.9231C20.2984 20.9267 19.6935 21.3722 19.4573 21.9931C19.4537 21.9979 19.4537 22.0015 19.4489 22.0051L16.0582 30.4929C16.0582 30.4965 16.0511 30.5013 16.0511 30.5013C16.0368 30.5433 16.032 30.5745 16.032 30.6165C16.032 30.733 16.1024 30.8387 16.199 30.8879H16.2014C17.6331 31.5917 19.2318 31.9891 20.9271 32H21.075C22.8205 31.9831 24.4776 31.5628 25.9356 30.8207C25.9403 30.8171 25.9439 30.8171 25.9487 30.8123C26.0394 30.7594 26.099 30.6574 26.099 30.5469C26.099 30.5037 26.0895 30.4628 26.0763 30.4292V30.4256L22.5091 21.8598C22.2347 21.3038 21.6692 20.9231 21.013 20.9231C21.0094 20.9231 21.0047 20.9231 21.0011 20.9231Z" fill="white"/>
</g>
<mask id="mask2_9_329212" style="mask-type:luminance" maskUnits="userSpaceOnUse" x="25" y="20" width="8" height="9">
<path fill-rule="evenodd" clip-rule="evenodd" d="M25.9729 20.8846C25.8035 20.8846 25.6675 21.0263 25.6675 21.198C25.6711 21.2352 25.6758 21.2725 25.6925 21.3085V21.3193L28.6048 28.3144C28.6501 28.4273 28.7611 28.5041 28.8875 28.5041C28.9734 28.5041 29.051 28.4633 29.1095 28.4093C29.1095 28.4093 29.1095 28.4056 29.1142 28.4056C30.8597 26.4855 31.943 23.9444 32.0002 21.156C32.0002 21.156 32.0002 21.1524 31.9955 21.1488C31.9955 20.9819 31.8595 20.8438 31.6912 20.8438L25.9729 20.8846Z" fill="white"/>
</mask>
<g mask="url(#mask2_9_329212)">
<path fill-rule="evenodd" clip-rule="evenodd" d="M25.9729 20.8846C25.8035 20.8846 25.6675 21.0263 25.6675 21.198C25.6711 21.2352 25.6758 21.2725 25.6925 21.3085V21.3193L28.6048 28.3144C28.6501 28.4273 28.7611 28.5041 28.8875 28.5041C28.9734 28.5041 29.051 28.4633 29.1095 28.4093C29.1095 28.4093 29.1095 28.4056 29.1142 28.4056C30.8597 26.4855 31.943 23.9444 32.0002 21.156C32.0002 21.156 32.0002 21.1524 31.9955 21.1488C31.9955 20.9819 31.8595 20.8438 31.6912 20.8438L25.9729 20.8846Z" fill="white"/>
</g>
<mask id="mask3_9_329212" style="mask-type:luminance" maskUnits="userSpaceOnUse" x="22" y="10" width="10" height="8">
<path fill-rule="evenodd" clip-rule="evenodd" d="M22.8004 10C22.6309 10 22.4973 10.1381 22.4973 10.3086L22.5033 10.825C22.4973 12.5026 22.8493 14.3316 23.5878 16.2457L24.1246 17.5415C24.1664 17.6448 24.2642 17.7216 24.38 17.7288H24.4062L31.1028 17.6832C31.2735 17.6832 31.4083 17.5451 31.4083 17.3758C31.4083 17.3409 31.4047 17.3073 31.394 17.2797L31.3892 17.2749C30.0899 13.5138 26.8353 10.6833 22.8528 10.0036C22.8528 10.0036 22.8457 10.0036 22.8409 10H22.8004Z" fill="white"/>
</mask>
<g mask="url(#mask3_9_329212)">
<path fill-rule="evenodd" clip-rule="evenodd" d="M22.8004 10C22.6309 10 22.4973 10.1381 22.4973 10.3086L22.5033 10.825C22.4973 12.5026 22.8493 14.3316 23.5878 16.2457L24.1246 17.5415C24.1664 17.6448 24.2642 17.7216 24.38 17.7288H24.4062L31.1028 17.6832C31.2735 17.6832 31.4083 17.5451 31.4083 17.3758C31.4083 17.3409 31.4047 17.3073 31.394 17.2797L31.3892 17.2749C30.0899 13.5138 26.8353 10.6833 22.8528 10.0036C22.8528 10.0036 22.8457 10.0036 22.8409 10H22.8004Z" fill="white"/>
</g>
<mask id="mask4_9_329212" style="mask-type:luminance" maskUnits="userSpaceOnUse" x="10" y="10" width="10" height="8">
<path fill-rule="evenodd" clip-rule="evenodd" d="M19.0026 10.0299H18.9942C15.0214 10.7625 11.8025 13.6494 10.5545 17.4213V17.4261C10.5462 17.4549 10.5378 17.4886 10.5378 17.521C10.5414 17.6915 10.6798 17.8284 10.8528 17.8284L17.5542 17.7804C17.5542 17.7804 17.5661 17.7804 17.5805 17.7744H17.5876H17.6079C17.7069 17.7539 17.7893 17.6795 17.831 17.587L18.3476 16.2841C19.0575 14.3603 19.3832 12.5289 19.3534 10.8501H19.3581L19.3534 10.3301C19.3534 10.1584 19.2114 10.0239 19.0432 10.0239C19.0348 10.0239 19.0193 10.0239 19.0026 10.0299Z" fill="white"/>
</mask>
<g mask="url(#mask4_9_329212)">
<path fill-rule="evenodd" clip-rule="evenodd" d="M19.0026 10.0299H18.9942C15.0214 10.7625 11.8025 13.6494 10.5545 17.4213V17.4261C10.5462 17.4549 10.5378 17.4886 10.5378 17.521C10.5414 17.6915 10.6798 17.8284 10.8528 17.8284L17.5542 17.7804C17.5542 17.7804 17.5661 17.7804 17.5805 17.7744H17.5876H17.6079C17.7069 17.7539 17.7893 17.6795 17.831 17.587L18.3476 16.2841C19.0575 14.3603 19.3832 12.5289 19.3534 10.8501H19.3581L19.3534 10.3301C19.3534 10.1584 19.2114 10.0239 19.0432 10.0239C19.0348 10.0239 19.0193 10.0239 19.0026 10.0299Z" fill="white"/>
</g>
</svg>
