<svg width="42" height="42" viewBox="0 0 42 42" fill="none" xmlns="http://www.w3.org/2000/svg">
<circle cx="21" cy="21" r="21" fill="white"/>
<g clip-path="url(#clip0_9_329260)">
<path d="M21.3719 29.9929C28.2047 29.9929 33.7438 25.9651 33.7438 20.9965C33.7438 16.0279 28.2047 12 21.3719 12C14.5391 12 9 16.0279 9 20.9965C9 25.9651 14.5391 29.9929 21.3719 29.9929Z" fill="#009736"/>
<path d="M11.7964 17.2044L12.2907 16.5406C12.7764 15.8869 13.434 15.3809 14.1903 15.0789C14.1903 15.0789 16.6053 16.816 16.7254 18.5531C16.7254 18.5531 18.5402 15.8486 23.6599 15.9474C25.1727 15.986 26.6587 16.3549 28.0139 17.0283C29.3691 17.7016 30.5608 18.6631 31.5053 19.8454H28.4123C28.4123 19.8454 24.1118 16.3641 20.2985 19.0404C16.4853 21.7167 21.7109 23.8988 23.8293 23.8988C25.9478 23.8988 28.4194 21.9357 28.4194 21.9357H31.5124C31.5124 21.9357 29.9588 26.102 23.681 26.102C18.3425 26.102 17.1138 23.4963 17.1138 23.4963C17.1138 23.4963 17.3468 26.5539 16.7819 28.1922C15.7263 27.9788 14.7379 27.5137 13.9007 26.8364C14.0559 26.2314 14.1412 25.6107 14.155 24.9863C14.1973 23.1644 13.9784 19.5559 11.7964 17.2044Z" fill="white"/>
</g>
<circle cx="21" cy="21" r="20.5" stroke="black" stroke-opacity="0.05"/>
<defs>
<clipPath id="clip0_9_329260">
<rect width="25" height="18" fill="white" transform="translate(9 12)"/>
</clipPath>
</defs>
</svg>
