<svg width="42" height="42" viewBox="0 0 42 42" fill="none" xmlns="http://www.w3.org/2000/svg">
<circle cx="21" cy="21" r="21" fill="white"/>
<path d="M10.752 11.7201C10.336 11.7201 10 11.3841 10 10.9681C10 10.5521 10.336 10.2161 10.752 10.2161H17.912C18.328 10.2161 18.664 10.5521 18.664 10.9681C18.664 11.3841 18.328 11.7201 17.912 11.7201H10.752Z" fill="#415364"/>
<path d="M20.608 19.928C20.192 19.928 19.856 19.592 19.856 19.176V10.752C19.856 10.336 20.192 10 20.608 10C21.024 10 21.36 10.336 21.36 10.752V19.176C21.36 19.592 21.024 19.928 20.608 19.928Z" fill="#415364"/>
<path d="M20.6081 29.44C18.0801 29.44 16.0161 27.384 16.0161 24.848V21.368C16.0161 20.952 16.3521 20.616 16.7681 20.616C17.1841 20.616 17.5201 20.952 17.5201 21.368V24.848C17.5201 26.552 18.9041 27.936 20.6081 27.936C21.0241 27.936 21.3601 28.272 21.3601 28.688C21.3601 29.104 21.0241 29.44 20.6081 29.44Z" fill="#415364"/>
<path d="M17.9121 19.928C17.7121 19.928 17.5201 19.848 17.3841 19.712L14.3361 16.664L11.2881 19.712C11.1441 19.856 10.9601 19.928 10.7601 19.928C10.5601 19.928 10.3681 19.848 10.2321 19.712C10.0881 19.568 10.0161 19.384 10.0161 19.184C10.0161 18.984 10.0961 18.792 10.2321 18.656L13.5921 15.296V13C13.5921 12.584 13.9281 12.248 14.3441 12.248C14.7601 12.248 15.0961 12.584 15.0961 13V15.288L18.4561 18.648C18.6001 18.792 18.6721 18.976 18.6721 19.176C18.6721 19.376 18.5921 19.568 18.4561 19.704C18.3041 19.856 18.1121 19.928 17.9121 19.928Z" fill="#4CA585"/>
<path d="M30.704 24.1439C30.504 24.1439 30.312 24.0639 30.176 23.9279L27.128 20.8799L24.08 23.9279C23.936 24.0719 23.752 24.1439 23.552 24.1439C23.352 24.1439 23.16 24.0639 23.024 23.9279C22.88 23.7839 22.8 23.5999 22.8 23.3999C22.8 23.1999 22.88 23.0079 23.016 22.8719L26.376 19.5119V17.2239C26.376 16.8079 26.712 16.4719 27.128 16.4719C27.544 16.4719 27.8801 16.8079 27.8801 17.2239V19.5119L31.2401 22.8719C31.3841 23.0159 31.456 23.1999 31.456 23.3999C31.456 23.5999 31.3761 23.7919 31.2401 23.9279C31.0961 24.0639 30.904 24.1439 30.704 24.1439Z" fill="#4CA585"/>
<path d="M23.544 15.9281C23.128 15.9281 22.792 15.5921 22.792 15.1761C22.792 14.7601 23.128 14.4241 23.544 14.4241H30.704C31.12 14.4241 31.456 14.7601 31.456 15.1761C31.456 15.5921 31.12 15.9281 30.704 15.9281H23.544Z" fill="#415364"/>
<path d="M27.128 33.784C26.712 33.784 26.376 33.448 26.376 33.032V26.464H23.544C23.128 26.464 22.792 26.128 22.792 25.712C22.792 25.296 23.128 24.96 23.544 24.96H30.704C31.12 24.96 31.456 25.296 31.456 25.712C31.456 26.128 31.12 26.464 30.704 26.464H27.872V33.032C27.872 33.448 27.536 33.784 27.128 33.784Z" fill="#415364"/>
<circle cx="21" cy="21" r="20.5" stroke="black" stroke-opacity="0.05"/>
</svg>
