<svg width="42" height="42" viewBox="0 0 42 42" fill="none" xmlns="http://www.w3.org/2000/svg">
<circle cx="21" cy="21" r="21" fill="#E10613"/>
<g clip-path="url(#clip0_9_328397)">
<path d="M18.7517 23.3651V25.9207C18.7517 25.9551 18.7517 25.9893 18.7517 26.0236C18.7463 26.1884 18.7076 26.2266 18.5458 26.2139C18.433 26.2076 18.3208 26.1925 18.2102 26.1688C17.669 26.0401 17.3499 25.6148 17.3499 25.0307C17.3499 23.9342 17.3499 22.8376 17.3499 21.7411C17.3499 21.4323 17.5096 21.241 17.8174 21.1906C18.0439 21.1535 18.2617 21.1854 18.4365 21.3398C18.5887 21.4722 18.7283 21.6185 18.8532 21.7769C19.1596 22.1739 19.5641 22.2688 20.0267 22.1728C20.3887 22.0977 20.617 21.8494 20.7521 21.5187C20.9408 21.0563 20.9402 20.5873 20.7372 20.1305C20.4099 19.3934 19.6897 19.3778 19.2285 19.5917C19.1062 19.6485 19.0033 19.7564 18.9053 19.8546C18.7752 19.9853 18.6652 20.1363 18.5347 20.2664C18.3906 20.4105 18.2152 20.5003 18.0048 20.5075C17.5106 20.5241 17.2636 20.2398 17.3783 19.7589C17.5932 18.8651 18.1417 18.294 19.0476 18.0842C19.5089 17.9774 19.9713 17.9648 20.4313 18.0894C21.0329 18.2522 21.498 18.6057 21.8072 19.142C22.3804 20.1363 22.4465 21.1753 21.9902 22.2272C21.6563 22.9972 21.0281 23.3982 20.2073 23.5063C19.7206 23.571 19.238 23.5465 18.7517 23.3651Z" fill="white"/>
<path d="M24.6472 23.3651V23.4952C24.6472 24.3278 24.6472 25.1603 24.6472 25.9927C24.6472 26.19 24.6048 26.2303 24.4094 26.2124C24.3137 26.2053 24.2186 26.1925 24.1245 26.1741C23.6124 26.0633 23.2779 25.6693 23.253 25.1433C23.2439 24.952 23.249 24.7597 23.249 24.568C23.249 23.6395 23.249 22.7111 23.249 21.7829C23.249 21.3738 23.493 21.1527 23.9066 21.1776C24.129 21.1909 24.3079 21.2906 24.4588 21.4421C24.572 21.556 24.6842 21.6746 24.7744 21.8065C25.1419 22.3445 26.2397 22.4126 26.6131 21.5945C26.8409 21.0956 26.8429 20.5922 26.6166 20.0942C26.2387 19.2614 25.1528 19.353 24.7831 19.8626C24.6482 20.0479 24.4759 20.2126 24.3019 20.3645C24.1391 20.5074 23.9287 20.5325 23.7187 20.4984C23.3538 20.4389 23.1914 20.1895 23.2616 19.8107C23.4251 18.9293 24.059 18.2787 24.9399 18.0836C25.4054 17.9806 25.8703 17.964 26.3336 18.0908C26.9269 18.253 27.3879 18.6014 27.6955 19.1295C28.2771 20.1284 28.3426 21.1741 27.8834 22.2321C27.5511 22.9978 26.924 23.3968 26.1081 23.5053C25.6165 23.5709 25.1304 23.5473 24.6472 23.3651Z" fill="white"/>
<path d="M13.1399 21.0602C13.1694 21.7734 13.7491 22.2749 14.4403 22.2021C14.7783 22.1648 15.1036 22.0515 15.3916 21.8708C15.5502 21.7738 15.6097 21.7845 15.7184 21.9326C15.8606 22.1257 16.0031 22.3184 16.1437 22.5125C16.2277 22.6286 16.2129 22.726 16.098 22.8148C15.6684 23.1462 15.1985 23.3956 14.6511 23.453C13.8156 23.5421 13.0425 23.3982 12.422 22.7787C12.0174 22.3748 11.8062 21.8698 11.7206 21.3122C11.6071 20.5729 11.7206 19.8711 12.1233 19.2328C12.5044 18.6269 13.0683 18.2963 13.7679 18.1869C14.1749 18.1233 14.5819 18.1264 14.9807 18.2374C15.7725 18.4577 16.2135 18.9992 16.3753 19.7871C16.4513 20.1564 16.4453 20.5282 16.3959 20.9011C16.3834 20.9972 16.3228 21.0452 16.2325 21.058C16.1983 21.0612 16.1638 21.062 16.1295 21.0602H13.1399ZM15.0466 20.2248C15.0367 20.1373 15.0322 20.0627 15.0196 19.9894C14.9646 19.6707 14.7709 19.4714 14.4685 19.4181C13.9315 19.3238 13.4502 19.5795 13.2282 20.0769C13.2077 20.1214 13.1947 20.1688 13.1749 20.2237L15.0466 20.2248Z" fill="white"/>
<path d="M30.4718 21.0603C30.4862 21.7506 31.0851 22.275 31.7483 22.2056C32.1 22.1677 32.4385 22.0503 32.7382 21.8622C32.8773 21.7765 32.9441 21.7897 33.0421 21.9223C33.1863 22.1181 33.3304 22.3144 33.4744 22.5109C33.5596 22.6289 33.5463 22.7254 33.432 22.8133C33.0021 23.145 32.5327 23.395 31.9848 23.4534C31.1374 23.544 30.3561 23.3952 29.7333 22.7586C29.3627 22.3795 29.1593 21.9112 29.0667 21.395C28.9281 20.6242 29.0393 19.8935 29.4607 19.2252C29.8408 18.6226 30.4041 18.2961 31.0996 18.1874C31.5278 18.1205 31.955 18.1256 32.3719 18.2551C33.1145 18.4843 33.5345 19.006 33.6992 19.7494C33.7793 20.1109 33.7789 20.4768 33.7363 20.8431C33.7157 21.0166 33.6648 21.0603 33.4892 21.0603H30.4718ZM30.5171 20.2225H32.3598C32.4106 19.8231 32.1784 19.4772 31.8039 19.4241C31.6348 19.4017 31.4632 19.4078 31.2962 19.4422C30.9176 19.5192 30.5694 19.8799 30.5171 20.2225Z" fill="white"/>
<path d="M35.8507 18.5416C36.1299 18.366 36.4196 18.2483 36.7346 18.1966C37.1142 18.1348 37.493 18.1616 37.871 18.2116C37.9688 18.2246 38.0215 18.3168 37.9917 18.4122C37.8947 18.7222 37.7957 19.0315 37.6948 19.3401C37.6573 19.4535 37.5871 19.4889 37.4529 19.4821C37.2548 19.4722 37.0562 19.4502 36.8589 19.4595C36.6057 19.4714 36.3873 19.5774 36.2343 19.7868C36.1959 19.8412 36.1744 19.9056 36.1725 19.9721C36.1688 21.0306 36.1698 22.089 36.1698 23.1474C36.1698 23.365 36.1252 23.4089 35.9038 23.4089C35.6022 23.4089 35.3006 23.4089 34.998 23.4089C34.832 23.4089 34.7742 23.3513 34.7742 23.1886C34.7742 21.6062 34.7742 20.0237 34.7742 18.4412C34.7742 18.2765 34.8318 18.2186 34.9957 18.2176C35.1534 18.2176 35.3111 18.2176 35.4692 18.2176C35.6782 18.2176 35.7328 18.2544 35.8098 18.4441C35.8211 18.4735 35.8336 18.5015 35.8507 18.5416Z" fill="white"/>
<path d="M10.5347 22.2661C10.023 23.0876 9.23245 23.0334 8.62798 22.9326C8.02351 22.8317 7.37993 22.2583 7.20184 21.9017C7.02375 21.5451 6.81416 21.3825 6.47322 21.3747C6.28793 21.3705 6.12672 21.4885 6.01905 21.5966C6.01104 21.6401 6.00704 21.6843 6.00711 21.7286C6.00711 22.7596 6.00711 23.7907 6.00711 24.8219C6.00711 24.9315 6.00525 25.0414 6.01123 25.1514C6.04005 25.672 6.37255 26.0642 6.87964 26.1742C6.97701 26.1938 7.07556 26.2071 7.17466 26.2139C7.36222 26.23 7.40381 26.1888 7.40381 25.9959C7.40381 25.1636 7.40381 24.3311 7.40381 23.4985V23.375C7.41722 23.375 7.4306 23.3763 7.44375 23.3789C7.91213 23.5512 8.39595 23.5708 8.88307 23.5024C9.69857 23.3892 10.3212 22.9834 10.6493 22.2165C10.7754 21.926 10.863 21.6203 10.9098 21.3071C10.8346 21.6289 10.7173 21.9727 10.5347 22.2661Z" fill="#005F39"/>
<path d="M6.47339 21.3743C6.81433 21.3821 7.02371 21.5449 7.202 21.9013C7.3803 22.2577 8.02347 22.8315 8.62815 22.9322C9.23282 23.0328 10.0232 23.0872 10.5348 22.2657C10.7174 21.9724 10.8348 21.6285 10.9101 21.3074C11.0176 20.5662 10.8644 19.838 10.4531 19.1334C10.1443 18.6027 9.68 18.2523 9.08253 18.09C8.65779 17.9747 8.22997 17.9795 7.79947 18.0612C6.86003 18.2395 6.21027 18.8631 6.02127 19.7737C5.92554 20.2351 6.15736 20.5149 6.6278 20.5081C6.84624 20.5052 7.02947 20.4184 7.17915 20.2689C7.31609 20.1348 7.44305 19.991 7.559 19.8384C7.90097 19.3791 8.896 19.2804 9.29273 19.964C9.631 20.5466 9.624 21.1457 9.28532 21.73C9.15129 21.9612 8.94397 22.1187 8.67941 22.1721C8.21247 22.2659 7.80483 22.1751 7.49786 21.7726C7.3802 21.6218 7.24906 21.482 7.10606 21.3549C6.93065 21.196 6.71324 21.1554 6.48142 21.1879C6.22036 21.2248 6.06183 21.3669 6.01942 21.5962C6.12689 21.4881 6.28727 21.3701 6.47339 21.3743Z" fill="white"/>
</g>
<circle cx="21" cy="21" r="20.5" stroke="black" stroke-opacity="0.05"/>
<defs>
<clipPath id="clip0_9_328397">
<rect width="32" height="8.21674" fill="white" transform="translate(6 18)"/>
</clipPath>
</defs>
</svg>
