<svg width="42" height="42" viewBox="0 0 42 42" fill="none" xmlns="http://www.w3.org/2000/svg">
<circle cx="21" cy="21" r="21" fill="white"/>
<g clip-path="url(#clip0_9_329351)">
<path d="M26.7692 27.3056H14.6944V14.6944H26.7692V17.1393H29.4636V12H12V30H29.4636V22.0416H26.7692V27.3056Z" fill="#005CB1"/>
<path d="M20.3326 26.7941C20.3326 26.7941 21.7671 19.7089 26.8316 16.8149C29.7907 15.079 33.1229 14.0781 36.5488 13.896C36.5488 13.896 34.1787 19.3097 31.3471 21.792C28.9905 23.8625 25.9986 25.0681 22.8648 25.2099L25.7214 22.3908C26.4698 21.6548 27.2307 20.9563 28.0291 20.2827L32.3201 16.6902L29.2016 18.7983C27.4699 19.9613 25.8828 21.3264 24.474 22.8648C22.5405 24.948 20.6195 27.1933 20.4573 27.1933C20.2952 27.1933 20.3326 26.7941 20.3326 26.7941Z" fill="#00BA32"/>
</g>
<circle cx="21" cy="21" r="20.5" stroke="black" stroke-opacity="0.05"/>
<defs>
<clipPath id="clip0_9_329351">
<rect width="25" height="18" fill="white" transform="translate(12 12)"/>
</clipPath>
</defs>
</svg>
