<svg width="42" height="42" viewBox="0 0 42 42" fill="none" xmlns="http://www.w3.org/2000/svg">
<circle cx="21" cy="21" r="21" fill="#009178"/>
<circle cx="21" cy="21" r="20.5" stroke="black" stroke-opacity="0.04"/>
<path d="M19.4895 13.1537C19.4895 14.2736 20.4311 15.2213 21.544 15.2213C22.6568 15.2213 23.5985 14.2736 23.5985 13.1537C23.5985 12.9814 23.5985 12.8091 23.5128 12.6368C23.3416 12.2922 23.1704 12.1199 23.1704 11.603C23.1704 11 22.4 11 21.972 11C21.544 11 21.0304 11 20.6023 11.2584C20.2599 11.4307 20.0031 11.6892 19.8319 11.9476C19.6607 12.2922 19.4895 12.6368 19.4895 12.9814" fill="white"/>
<path d="M31.8986 15.7388C31.8986 15.7388 31.4706 15.4803 30.8713 15.6526C30.1009 15.8249 27.6184 16.2556 23.8519 16.4279C22.0542 16.4279 20.171 16.4279 18.2021 16.3418C16.5756 16.1695 13.5795 15.7388 12.9803 15.6526C12.6379 15.6526 11.7819 15.5665 11.3538 15.9111C10.8402 16.3418 10.9258 17.031 11.3538 17.634C11.2682 17.5479 12.0387 18.6678 13.7507 19.0124C16.2332 19.4431 19.9998 19.2708 21.1982 19.1847C23.9375 18.9262 26.0776 18.4955 27.7896 18.0648C27.7896 18.0648 30.0153 17.3756 31.1282 16.7725C31.5562 16.5141 32.1554 16.0834 31.8986 15.6526V15.7388Z" fill="white"/>
<path d="M23.6809 20.7346C22.3112 19.9592 20.6847 19.9592 19.3151 20.7346C17.0894 22.0268 16.319 24.7835 17.6886 27.0234C18.7159 28.7463 20.1711 28.3156 20.5991 27.8849C21.1128 27.2818 20.9416 26.7649 20.5991 26.3342C20.0855 25.645 19.9999 25.2143 19.9999 24.8697C19.9999 24.0082 20.6847 23.2329 21.6264 23.2329C22.0544 23.2329 22.568 23.4052 22.8248 23.8359C23.2528 24.3528 23.3384 25.042 23.2528 25.645C23.0816 29.0909 21.6264 32.1061 21.6264 32.2784C21.6264 32.4507 21.4552 32.7953 21.712 32.9676C21.9688 33.0538 22.2256 32.9676 22.4824 32.7092C23.1672 32.1923 24.3657 30.5555 25.0505 29.0909C25.3929 28.2295 26.3345 26.0758 25.9921 23.8359C25.7353 22.1129 24.6225 21.1653 23.6809 20.6484V20.7346Z" fill="white"/>
</svg>
