<svg width="42" height="42" viewBox="0 0 42 42" fill="none" xmlns="http://www.w3.org/2000/svg">
<circle cx="21" cy="21" r="21" fill="#00A0E9"/>
<circle cx="21" cy="21" r="20.5" stroke="black" stroke-opacity="0.05"/>
<g clip-path="url(#clip0_9_324148)">
<path d="M6 13V29.197H36V13H6ZM34.6593 27.8878H7.34065V14.3092H34.6593V27.8878Z" fill="white"/>
<path d="M10.8776 25.6358H9.38135L13.5888 16.6149H13.9629L17.9923 25.6358H16.526L15.5803 23.5321H11.7754L10.8776 25.6358ZM13.6906 19.2184L12.3439 22.1196H15.0492L13.6906 19.2184Z" fill="white"/>
<path d="M19.6294 25.636V16.6061H20.8892V25.636H19.6294Z" fill="white"/>
<path d="M30.4265 18.9926C30.1841 18.5961 29.4165 17.5083 27.621 17.5083C26.7637 17.5083 24.3038 18.1442 24.3038 20.9677C24.3038 23.3692 26.611 24.2789 27.621 24.2789C29.6155 24.2789 30.3143 22.7422 30.3517 21.9687H28.0849V20.7717H31.8105C31.8105 21.6126 31.8105 22.2934 31.5322 22.9996C30.9562 24.4704 29.6185 25.633 27.621 25.633C27.0102 25.6356 26.4052 25.5148 25.8421 25.2781C25.2791 25.0413 24.7696 24.6933 24.3442 24.2549C23.9088 23.8206 23.5635 23.3045 23.3283 22.7362C23.0931 22.1679 22.9726 21.5588 22.9736 20.9437C22.971 19.6944 23.4639 18.495 24.3442 17.6086C25.128 16.8141 26.1736 16.3314 27.2867 16.2502C28.3997 16.1691 29.5043 16.4949 30.3951 17.1672C30.7614 17.448 31.0855 17.7801 31.3572 18.1532L30.4265 18.9926Z" fill="white"/>
</g>
<defs>
<clipPath id="clip0_9_324148">
<rect width="30" height="16.197" fill="white" transform="translate(6 13)"/>
</clipPath>
</defs>
</svg>
