<svg width="42" height="42" viewBox="0 0 42 42" fill="none" xmlns="http://www.w3.org/2000/svg">
<circle cx="21" cy="21" r="21" fill="#153278"/>
<circle cx="21" cy="21" r="20.5" stroke="black" stroke-opacity="0.05"/>
<path d="M34.0001 8H8V34.0001H34.0001V8Z" fill="#153278"/>
<path d="M24.111 20.8398L33.9985 7.99988H32.5385L22.6187 20.8398H24.111Z" fill="#E72929"/>
<path d="M27.8694 26.5782C28.3213 27.8446 29.2549 31.1446 29.6274 31.4078H27.1742C27.1676 31.1165 27.1293 30.8267 27.0599 30.5437C26.9532 30.1663 26.0667 27.3157 26.0667 27.3157H22.1733L21.56 28.1823C21.56 28.1823 22.3049 30.4841 22.3421 30.5983C22.4216 30.8019 22.7717 31.4103 22.7717 31.4103H20.4227C20.4227 31.4103 20.3607 31.0602 20.3383 30.9137C20.316 30.7672 20.1173 30.1464 20.1173 30.1464C19.869 30.4127 19.6423 30.6983 19.4394 31.0006C19.2929 31.2712 19.2259 31.4103 19.2259 31.4103H17.3884L17.304 30.9137C17.2866 30.7945 17.0557 30.0943 17.0557 30.0943C16.8168 30.3794 16.5954 30.6787 16.3927 30.9906C16.2487 31.2613 16.1866 31.4103 16.1866 31.4103H14.3665C14.3665 31.4103 14.8805 30.9137 15.0593 30.7125C15.3623 30.355 16.492 28.88 16.492 28.88L16.0401 27.3157H12.1815C12.1815 27.3157 9.97899 30.211 9.89209 30.2954C9.61615 30.646 9.36713 31.0171 9.14717 31.4053H8V30.6778C8.01346 30.6607 8.02936 30.6456 8.04718 30.6331C8.08194 30.6058 9.71579 28.5771 11.218 26.5758C12.5688 24.8376 13.8352 23.1318 13.9494 22.9704C14.1934 22.5705 14.4123 22.1559 14.6049 21.7288H16.5914C16.6141 22.0519 16.6538 22.3735 16.7106 22.6923C16.7627 22.8611 17.9819 26.8539 18.0092 26.8961L18.6821 26.0369L17.5324 22.4936C17.4302 22.2311 17.3108 21.9756 17.1749 21.7288H19.509C19.5075 21.9421 19.5402 22.1542 19.6058 22.3571C19.7026 22.6501 20.2017 24.4552 20.2017 24.4552C20.2017 24.4552 21.7934 22.4688 21.8877 22.3173C22.0001 22.1383 22.0674 21.9346 22.0839 21.7239H24.0281C23.6616 22.0338 23.3324 22.3855 23.0473 22.7717L20.7852 25.6471C20.7852 25.6471 20.964 26.2579 21.0509 26.5634C21.0758 26.6503 21.0907 26.7098 21.0907 26.7148C21.1346 26.6664 21.176 26.6159 21.2148 26.5634C21.7437 25.8904 24.1548 22.732 24.3013 22.4613C24.4488 22.2223 24.5799 21.9734 24.6936 21.7164H26.5906C26.6068 21.9595 26.6408 22.201 26.6924 22.439L27.8694 26.5782ZM24.9816 23.5862C24.7035 24.1846 23.0622 26.181 23.0622 26.181H25.6595C25.6595 26.181 25.1629 24.6315 25.0685 24.2814C25.0237 24.0584 25.0062 23.8308 25.0164 23.6035C25.0164 23.5638 25.0114 23.5117 24.9816 23.5787V23.5862ZM15.0047 23.5862C14.7241 24.1846 13.0853 26.181 13.0853 26.181H15.6826C15.6826 26.181 15.186 24.6315 15.0916 24.2814C15.0468 24.0584 15.0293 23.8308 15.0395 23.6035C15.0395 23.5638 15.0345 23.5117 15.0047 23.5787V23.5862ZM18.913 29.6399L19.6281 28.6466C19.5611 28.5771 19.1589 27.3554 19.1589 27.3554L18.4686 28.2518L18.913 29.6399Z" fill="white"/>
</svg>
