<svg width="42" height="42" viewBox="0 0 42 42" fill="none" xmlns="http://www.w3.org/2000/svg">
<circle cx="21" cy="21" r="21" fill="#005BAC"/>
<circle cx="21" cy="21" r="20.5" stroke="black" stroke-opacity="0.05"/>
<g clip-path="url(#clip0_9_324122)">
<path d="M25.2472 10L20.9054 12.1781L16.5693 10L20.9054 18.2486L25.2472 10Z" fill="#FFB71B"/>
<path d="M26.7627 16.3731L26.6965 16.3155L29.7908 15.0161V10.6656L24.4147 12.9705C24.4147 12.9705 21.499 18.4907 21.4356 18.6146C22.5814 18.7498 23.6321 19.3177 24.373 20.2021C25.1138 21.0865 25.4887 22.2205 25.421 23.3722C25.3533 24.5239 24.8481 25.6062 24.0087 26.3977C23.1693 27.1892 22.0592 27.63 20.9055 27.63C19.7518 27.63 18.6417 27.1892 17.8023 26.3977C16.9629 25.6062 16.4577 24.5239 16.39 23.3722C16.3223 22.2205 16.6972 21.0865 17.438 20.2021C18.1789 19.3177 19.2296 18.7498 20.3754 18.6146L17.3992 12.9705L12.0289 10.6656V15.0161L15.1203 16.3155L15.054 16.3731C13.6879 17.5649 12.718 19.1453 12.274 20.9031C11.8301 22.6609 11.9332 24.5123 12.5696 26.2099C13.2061 27.9075 14.3454 29.3704 15.8355 30.4032C17.3256 31.4359 19.0954 31.9892 20.9084 31.9892C22.7214 31.9892 24.4912 31.4359 25.9812 30.4032C27.4713 29.3704 28.6107 27.9075 29.2471 26.2099C29.8835 24.5123 29.9867 22.6609 29.5427 20.9031C29.0988 19.1453 28.1289 17.5649 26.7627 16.3731Z" fill="#FFB71B"/>
</g>
<defs>
<clipPath id="clip0_9_324122">
<rect width="17.8138" height="22" fill="white" transform="translate(12 10)"/>
</clipPath>
</defs>
</svg>
