<svg width="42" height="42" viewBox="0 0 42 42" fill="none" xmlns="http://www.w3.org/2000/svg">
<circle cx="21" cy="21" r="21" fill="white"/>
<circle cx="21" cy="21" r="20.5" stroke="black" stroke-opacity="0.05"/>
<g clip-path="url(#clip0_9_324257)">
<path d="M12.355 16.4431H7.74268C7.6453 16.4427 7.5488 16.4615 7.45871 16.4985C7.36862 16.5355 7.28673 16.5899 7.21772 16.6586C7.14871 16.7273 7.09396 16.809 7.05659 16.8989C7.01923 16.9888 7 17.0852 7 17.1826V17.5014H9.1388V23.2388H10.2863V17.7468C10.2846 17.7137 10.2894 17.6806 10.3005 17.6494C10.3116 17.6182 10.3287 17.5895 10.3509 17.5649C10.3731 17.5404 10.4 17.5204 10.4299 17.5062C10.4598 17.492 10.4923 17.4839 10.5254 17.4822H12.3422L12.355 16.4431Z" fill="#002D91"/>
<path d="M17.0691 19.2545C16.9005 18.9475 16.6508 18.6927 16.3473 18.5178C16.0438 18.343 15.6981 18.2549 15.3479 18.2632C14.9233 18.246 14.5024 18.3487 14.1335 18.5596V16.4431H13.8147C13.6025 16.4431 13.399 16.5274 13.249 16.6774C13.0989 16.8275 13.0146 17.031 13.0146 17.2432V23.2197H14.1398V20.0832C14.1398 20.0832 14.1621 19.1844 15.2427 19.1844C15.4775 19.1773 15.7063 19.2591 15.8836 19.4133C16.0608 19.5675 16.1734 19.7828 16.1989 20.0163V23.2197H17.2572V19.9239C17.2534 19.6882 17.1886 19.4576 17.0691 19.2545Z" fill="#002D91"/>
<path d="M20.0049 22.324C18.8988 22.2347 18.8988 21.0649 18.8988 21.0649H21.8249L22.4305 20.5709C22.4305 20.5709 22.1755 18.0942 19.7339 18.3396C17.5282 18.5627 17.7577 21.151 17.9043 21.6036C18.0061 22.0691 18.2665 22.4848 18.641 22.7796C19.0154 23.0744 19.4806 23.2299 19.957 23.2197C21.334 23.2197 21.9588 22.7033 22.2074 22.4547L21.5954 21.9192C21.5954 21.9192 21.13 22.4164 20.0049 22.324ZM20.1483 19.1524C20.3089 19.1464 20.469 19.1728 20.6192 19.2299C20.7693 19.2871 20.9065 19.3739 21.0225 19.4851C21.1384 19.5963 21.2309 19.7297 21.2942 19.8773C21.3576 20.025 21.3907 20.1839 21.3914 20.3445H18.8988C18.9004 20.1836 18.9342 20.0245 18.9983 19.8769C19.0624 19.7292 19.1554 19.5958 19.2719 19.4847C19.3884 19.3736 19.5259 19.2869 19.6764 19.2299C19.827 19.1728 19.9874 19.1465 20.1483 19.1524Z" fill="#002D91"/>
<path d="M24.6554 19.1523H25.7168V21.0425H23.8267V19.9811C23.8267 19.7613 23.914 19.5505 24.0694 19.3951C24.2248 19.2397 24.4356 19.1523 24.6554 19.1523Z" fill="#002D91"/>
<path d="M34.5428 17.3547L33.1849 16L30.7083 18.4767L29.701 19.5604L29.3823 19.3596V16.0287H28.4547C28.3084 16.0287 28.1635 16.0576 28.0283 16.1137C27.8931 16.1698 27.7703 16.252 27.667 16.3556C27.5636 16.4593 27.4818 16.5823 27.4261 16.7176C27.3703 16.8529 27.3419 16.998 27.3423 17.1443V23.65H29.3823V19.8855L30.6955 21.202L33.1722 23.6786L34.5301 22.324L32.4008 20.1947C32.3091 20.1017 32.2577 19.9763 32.2577 19.8457C32.2577 19.7151 32.3091 19.5897 32.4008 19.4967L34.5428 17.3547Z" fill="#002D91"/>
<path d="M31.7922 24.4278C30.3068 26.7961 26.4181 26.5442 24.8148 24.4086C24.7906 24.3748 24.7558 24.3502 24.7159 24.3386C24.676 24.327 24.6333 24.3293 24.5948 24.3449C24.5506 24.3633 24.5152 24.3982 24.4961 24.4422C24.4771 24.4862 24.4759 24.5359 24.4928 24.5808C25.6403 27.6981 31.2089 27.9117 32.1428 24.5808C32.1496 24.5573 32.1517 24.5328 32.1489 24.5085C32.1462 24.4843 32.1387 24.4608 32.1268 24.4394C32.115 24.4181 32.099 24.3993 32.0799 24.3842C32.0607 24.3691 32.0388 24.3579 32.0153 24.3513C31.9751 24.3354 31.9305 24.3344 31.8896 24.3484C31.8487 24.3624 31.8142 24.3905 31.7922 24.4278Z" fill="#F90000"/>
</g>
<defs>
<clipPath id="clip0_9_324257">
<rect width="27.5398" height="11" fill="white" transform="translate(7 16)"/>
</clipPath>
</defs>
</svg>
