<svg width="42" height="42" viewBox="0 0 42 42" fill="none" xmlns="http://www.w3.org/2000/svg">
<circle cx="21" cy="21" r="21" fill="white"/>
<circle cx="21" cy="21" r="20.5" stroke="black" stroke-opacity="0.05"/>
<g clip-path="url(#clip0_9_324138)">
<path d="M17.3932 21.703C17.3369 21.7241 17.3088 21.786 17.3088 21.8451C17.3088 21.9351 17.3819 22.0083 17.472 22.0083H22.465C22.6085 22.0083 22.7239 21.8915 22.7239 21.748C22.7239 19.5449 21.3493 18.3814 20.425 17.9692C19.8299 17.7033 19.2446 17.5879 18.5834 17.5879C17.9222 17.5879 17.3158 17.7173 16.7404 17.9762C16.165 18.2351 15.6585 18.5952 15.2224 19.0567C14.7863 19.5181 14.4444 20.0527 14.1982 20.6591C13.952 21.2655 13.8296 21.9126 13.8296 22.602C13.8296 23.4771 14.0308 24.2593 14.4345 24.9473C14.8383 25.6366 15.387 26.1628 16.0792 26.5286C16.7728 26.8944 17.5226 27.0759 18.3302 27.0759C18.9239 27.0759 19.4951 26.9858 20.0423 26.8071C20.5882 26.6285 21.0891 26.3527 21.5449 25.9799C21.9107 25.6802 22.2357 25.3159 22.5213 24.8825C22.5818 24.7911 22.4847 24.6771 22.3848 24.7207C21.9487 24.9079 21.1003 25.1836 19.9073 25.1836C19.5612 25.1836 19.1968 25.1189 18.817 24.9866C18.4371 24.8558 18.0784 24.6391 17.7421 24.3353C17.4059 24.0328 17.1329 23.6332 16.9219 23.1366C16.7362 22.6963 16.5786 21.9661 16.5786 21.4821C16.5786 20.2919 16.7967 19.5026 17.0795 18.9666C17.3369 18.4784 17.7393 18.2688 18.1656 18.2688C19.2545 18.2688 19.4838 19.8319 19.5134 20.1414C19.5373 20.3904 19.5204 20.4312 19.3459 20.6028C19.2798 20.6689 18.5229 21.2852 17.3904 21.7016" fill="#231815"/>
<path d="M27.4394 15.7083V17.9649H29.5666V18.7809H27.4394V24.2691C27.4394 24.7235 27.4985 25.0626 27.6167 25.2877C27.7334 25.5114 27.9318 25.6394 28.2104 25.6239C28.4903 25.6085 28.8885 25.4607 29.1741 25.3144C29.2768 25.261 29.3865 25.3721 29.3316 25.4748C29.1417 25.8336 28.7745 26.371 28.1639 26.6903C27.6983 26.9351 27.1791 27.0772 26.584 27.0772C25.9889 27.0772 25.5795 26.9605 25.263 26.7255C24.9478 26.492 24.7298 26.1726 24.6088 25.7702C24.4878 25.3665 24.4273 24.8769 24.4273 24.2972V18.7499H23.4425C23.3454 18.7499 23.268 18.6726 23.2666 18.5755C23.2666 18.522 23.2905 18.4714 23.3313 18.4376C23.3313 18.4376 25.2419 17.5414 27.0539 15.5563C27.1904 15.4072 27.438 15.5057 27.438 15.7069L27.4394 15.7083Z" fill="#231815"/>
<path d="M34.7608 19.7958C34.9164 18.8607 34.2846 17.9766 33.3495 17.8209C32.4144 17.6653 31.5302 18.2971 31.3746 19.2322C31.2189 20.1673 31.8508 21.0515 32.7859 21.2071C33.7209 21.3627 34.6051 20.7309 34.7608 19.7958Z" fill="#E53D16"/>
<path d="M34.7848 25.3636C34.7848 26.3118 34.0167 27.08 33.0684 27.08C32.1202 27.08 31.3521 26.3118 31.3521 25.3636C31.3521 24.4154 32.1202 23.6472 33.0684 23.6472C34.0167 23.6472 34.7848 24.4154 34.7848 25.3636Z" fill="#E53D16"/>
<path d="M12.7674 25.8744C12.1005 25.3904 12.1104 24.7714 12.1104 24.2368V13.2378C12.1104 13.0803 11.95 12.9396 11.746 13.0282L8.0614 14.7249C7.94323 14.7713 7.89258 14.8403 7.89258 14.9176C7.89258 14.9739 7.92072 15.0274 7.96855 15.0583L8.5932 15.5156C9.03496 15.7899 9.16721 16.3147 9.16721 16.8071L9.15595 26.6341C9.15595 26.7593 9.25725 26.8606 9.38105 26.8606H13.6509C13.7649 26.8606 13.8549 26.7677 13.8521 26.6538C13.8507 26.5764 13.8015 26.5145 13.7339 26.4751C13.4371 26.3035 13.2851 26.212 12.766 25.8744H12.7674Z" fill="#231815"/>
</g>
<defs>
<clipPath id="clip0_9_324138">
<rect width="26.8924" height="14.08" fill="white" transform="translate(7.89258 13)"/>
</clipPath>
</defs>
</svg>
