<svg width="42" height="42" viewBox="0 0 42 42" fill="none" xmlns="http://www.w3.org/2000/svg">
<circle cx="21" cy="21" r="21" fill="white"/>
<circle cx="21" cy="21" r="20.5" stroke="black" stroke-opacity="0.05"/>
<path d="M18.875 12.2516C18.875 13.4224 19.8594 14.4131 21.0229 14.4131C22.1863 14.4131 23.1707 13.4224 23.1707 12.2516C23.1707 12.0715 23.1707 11.8913 23.0812 11.7112C22.9022 11.351 22.7232 11.1708 22.7232 10.6304C22.7232 10 21.9178 10 21.4703 10C21.0229 10 20.4859 10 20.0384 10.2702C19.6804 10.4503 19.412 10.7205 19.233 10.9907C19.054 11.351 18.875 11.7112 18.875 12.0715" fill="#D80C18"/>
<path d="M31.8485 14.9542C31.8485 14.9542 31.4011 14.684 30.7746 14.8642C29.9691 15.0443 27.3738 15.4946 23.4361 15.6747C21.5567 15.6747 19.5878 15.6747 17.5295 15.5847C15.8291 15.4045 12.6968 14.9542 12.0703 14.8642C11.7123 14.8642 10.8174 14.7741 10.3699 15.1344C9.83296 15.5847 9.92245 16.3052 10.3699 16.9356C10.2804 16.8456 11.0859 18.0164 12.8758 18.3767C15.4711 18.827 19.4088 18.6469 20.6618 18.5568C23.5256 18.2866 25.7629 17.8363 27.5528 17.386C27.5528 17.386 29.8797 16.6654 31.0431 16.035C31.4905 15.7648 32.117 15.3145 31.8485 14.8642V14.9542Z" fill="#008E71"/>
<path d="M23.2572 20.1771C21.8253 19.3666 20.1249 19.3666 18.693 20.1771C16.3661 21.5281 15.5607 24.4102 16.9926 26.7518C18.0665 28.5531 19.5879 28.1028 20.0354 27.6525C20.5723 27.022 20.3934 26.4816 20.0354 26.0313C19.4984 25.3108 19.4089 24.8605 19.4089 24.5002C19.4089 23.5996 20.1249 22.789 21.1093 22.789C21.5568 22.789 22.0937 22.9691 22.3622 23.4194C22.8097 23.9598 22.8992 24.6803 22.8097 25.3108C22.6307 28.9133 21.1093 32.0656 21.1093 32.2457C21.1093 32.4258 20.9303 32.7861 21.1988 32.9662C21.4673 33.0563 21.7358 32.9662 22.0042 32.696C22.7202 32.1556 23.9731 30.4444 24.6891 28.9133C25.047 28.0127 26.0315 25.7611 25.6735 23.4194C25.405 21.6182 24.2416 20.6275 23.2572 20.0871V20.1771Z" fill="#008E71"/>
</svg>
