<svg width="40" height="40" viewBox="0 0 40 40" fill="none" xmlns="http://www.w3.org/2000/svg">
<circle cx="20" cy="20" r="20" fill="white"/>
<circle cx="20" cy="20" r="19.5" stroke="black" stroke-opacity="0.05"/>
<circle cx="20" cy="20" r="20" fill="white"/>
<circle cx="20" cy="20" r="19.5" stroke="black" stroke-opacity="0.05"/>
<circle cx="20" cy="20" r="20" fill="#0096D7"/>
<circle cx="20" cy="20" r="19.5" stroke="black" stroke-opacity="0.05"/>
<path d="M27.3508 12H10V14.6671H26.4835C26.9587 14.6671 27.3448 15.0532 27.3448 15.5284V24.48C27.3448 24.9611 26.9587 25.3413 26.4835 25.3413H13.5224C13.0472 25.3413 12.6611 24.9552 12.6611 24.48V20.8625C12.6611 20.3873 13.0472 20.0012 13.5224 20.0012H24.6659V17.3401H12.6552C11.188 17.3401 10 18.5281 10 19.9952V25.3472C10 26.8144 11.188 28.0024 12.6552 28.0024H27.3448C28.812 28.0024 30 26.8084 30 25.3472V14.6552C30 13.188 28.812 12 27.3448 12" fill="white"/>
</svg>
