<svg width="40" height="40" viewBox="0 0 40 40" fill="none" xmlns="http://www.w3.org/2000/svg">
<circle cx="20" cy="20" r="20" fill="#F6F8FA"/>
<g clip-path="url(#clip0_9_393919)">
<path d="M21.1451 21.6942C21.1451 21.6926 21.1451 21.6903 21.1451 21.6887C21.1451 21.6911 21.1451 21.6934 21.1451 21.6957C21.1513 21.8356 21.1653 21.9429 21.1754 22.0105C21.17 21.9701 21.1521 21.8481 21.1451 21.6942ZM21.1436 21.6258V21.625C21.1436 21.625 21.1436 21.625 21.1436 21.6258C21.1436 21.6468 21.1443 21.6677 21.1451 21.688C21.1443 21.667 21.1436 21.6468 21.1436 21.6258Z" fill="url(#paint0_linear_9_393919)"/>
<path d="M21.2628 22.4023C21.2628 22.4007 21.2621 22.3991 21.2613 22.3984C21.2621 22.3991 21.2621 22.4007 21.2628 22.4023C21.2729 22.4365 21.283 22.4699 21.2947 22.5025C21.283 22.4691 21.2722 22.4357 21.2628 22.4023ZM21.1781 22.0269C21.1773 22.0214 21.1766 22.0152 21.1758 22.0098C21.1766 22.0137 21.1773 22.0191 21.1781 22.023C21.1983 22.1528 21.2247 22.2725 21.2613 22.3976C21.2255 22.274 21.1983 22.152 21.1781 22.0269Z" fill="url(#paint1_linear_9_393919)"/>
<path d="M34.8493 21.6287C34.5221 22.7579 33.4612 23.6129 31.4677 22.6243C28.9262 21.3644 24.3275 20.7675 23.1882 22.7393C22.0464 24.7149 25.9783 27.7981 29.1532 26.6284C29.3716 26.7714 29.7011 26.9867 30.8001 26.5149L30.7713 26.5274C30.4884 26.6447 30.4884 26.6447 30.3423 26.6976C30.0812 26.787 30.0812 26.787 29.949 26.8266C29.6988 26.8965 29.6988 26.8965 29.5721 26.9269C29.3312 26.9805 29.3218 26.9828 29.1951 27.0053C28.9332 27.0489 28.9332 27.0489 28.8003 27.0652C28.5236 27.0947 28.5128 27.0955 28.3643 27.1048C27.7628 27.1289 27.2358 27.1142 26.4718 26.9634C26.0226 26.8546 25.7257 26.7823 25.1607 26.5491C24.64 26.3066 24.5319 26.2561 24.0508 25.9553C23.527 25.5846 23.4602 25.5372 23.0964 25.2069C22.6138 24.7219 22.5742 24.6823 22.2936 24.3209C21.8848 23.7395 21.8607 23.7053 21.6508 23.3113L21.4154 22.8155C19.8431 19.0546 25.3581 19.646 28.7848 20.3331C31.0946 20.7963 33.9687 21.3722 34.5112 19.5862C35.0156 17.923 33.5312 14.6945 30.7496 13.8574C31.6192 14.1108 32.5496 14.4566 33.5203 15.638C33.6695 15.844 33.8669 16.1206 34.0045 16.3351C34.3534 16.9631 34.3744 17.0012 34.5407 17.4139C34.7832 18.1087 34.7972 18.1507 34.8913 18.5929C35.0102 19.3188 35.0226 19.395 35.0374 19.9515C35.0164 20.6875 35.0156 20.7162 34.948 21.1499L34.8975 21.4281C34.8819 21.4872 34.8664 21.5688 34.8493 21.6287Z" fill="#00003B"/>
<path d="M33.369 15.4542C32.3136 14.2534 31.0685 13.8943 30.4196 13.7879L30.4336 13.7902C28.7657 13.6239 27.983 14.3008 26.0913 15.9368C23.4659 18.207 22.9359 18.3462 21.6535 18.6811C21.6465 18.6827 20.9393 18.8537 21.0535 18.3011L21.1779 17.8651C21.4118 17.2208 21.4304 17.1679 21.6387 16.7583C21.7584 16.5461 21.9216 16.2656 22.053 16.0604C22.032 16.107 22.0118 16.1739 22.0102 16.2244C22.3996 16.2073 22.3996 16.2073 26.1395 13.9853C27.6978 13.0596 28.4121 12.8669 29.4605 13.0907C29.9245 13.2057 29.9626 13.2151 30.2478 13.3122C30.7444 13.5011 30.8773 13.5524 31.4245 13.8423C31.953 14.1656 32.0346 14.2153 32.4364 14.534C32.9354 14.9739 32.9874 15.0197 33.2975 15.3695L33.519 15.6368C33.4747 15.5824 33.4165 15.5078 33.369 15.4542Z" fill="#00003B"/>
<path d="M21.6513 23.3115C22.0065 23.9302 22.0275 23.9675 22.2941 24.3211C22.7402 24.8612 22.7666 24.8939 23.0969 25.2071C23.5951 25.6384 23.6472 25.6835 24.0513 25.9555C24.5596 26.2641 24.6513 26.3193 25.1612 26.5493C25.5979 26.7203 25.8871 26.8338 26.4723 26.9636C27.0055 27.0646 27.5161 27.1447 28.3648 27.105C28.657 27.0833 28.657 27.0833 28.8008 27.0654C29.0658 27.0296 29.0658 27.0296 29.1956 27.0055C29.4474 26.9566 29.4474 26.9566 29.5726 26.927C29.8244 26.8641 29.8244 26.8641 29.9495 26.8268C30.2067 26.7467 30.2114 26.7452 30.3428 26.6978C30.6156 26.5944 30.6264 26.5905 30.7718 26.5276L30.8005 26.5151C34.622 24.6631 37.5047 17.5641 28.9026 14.5773C28.6345 14.484 28.3624 14.404 28.0959 14.3076C28.915 14.8975 29.4319 15.482 29.749 15.8698C33.8837 21.7447 29.728 26.8213 25.978 26.3371C24.0941 26.0939 22.3026 24.7112 21.415 22.8156L21.6513 23.3115Z" fill="url(#paint2_linear_9_393919)"/>
<path d="M34.9721 20.7867C34.9675 20.8426 34.9628 20.8994 34.9574 20.9553C34.941 21.0975 34.9232 21.2872 34.8967 21.4279L34.9473 21.1496C35.0335 20.4369 35.039 20.3942 35.0366 19.9512C35.0001 19.2392 34.9954 19.1475 34.8905 18.5926C34.7079 17.8582 34.7009 17.8294 34.54 17.4136C34.2423 16.739 34.2307 16.7133 34.0037 16.3348C33.8631 16.1227 33.6734 15.8413 33.5195 15.6377C34.9675 17.6405 35.0506 19.7234 34.9721 20.7867Z" fill="#170035"/>
<path d="M21.0547 18.3016C22.0806 16.6882 23.6731 15.3242 25.2477 15.4882C27.5482 15.7283 29.2044 17.6177 29.9777 18.9934C31.3612 21.4524 31.1016 24.684 27.929 26.1024C31.3946 24.9584 33.0166 19.9175 29.75 15.8706C29.2495 15.2496 28.5726 14.4421 27.8109 14.1724C26.841 13.8288 25.7669 13.7076 24.6252 14.0682C21.6951 14.9939 21.0547 18.3016 21.0547 18.3016Z" fill="url(#paint3_linear_9_393919)"/>
<path d="M34.9049 19.7017C34.9896 20.3421 34.9686 20.7556 34.9585 20.9546C34.9639 20.8986 34.9686 20.8419 34.9733 20.7859C35.0494 19.7141 34.9624 17.6196 33.5214 15.6369L33.2999 15.3696C32.8336 14.8722 32.7955 14.8318 32.4388 14.5341C31.9305 14.1478 31.8652 14.0981 31.4269 13.8424C30.9365 13.5867 30.8199 13.5261 30.2502 13.3123C29.7738 13.1623 29.7551 13.1561 29.4629 13.0908C32.3222 13.7786 34.3461 16.1748 34.8761 19.4989C34.8847 19.5602 34.8971 19.6411 34.9049 19.7017Z" fill="#00003B"/>
<path d="M19.2493 17.9727C19.8416 17.9727 20.3218 17.5287 20.3218 16.981C20.3218 16.4333 19.8416 15.9893 19.2493 15.9893C18.6569 15.9893 18.1768 16.4333 18.1768 16.981C18.1768 17.5287 18.6569 17.9727 19.2493 17.9727Z" fill="#00003B"/>
<path d="M12.6752 22.2017C12.5376 22.4652 12.3122 22.7302 11.9998 22.9976C11.6874 23.2649 11.3337 23.5051 10.9389 23.7173C10.5441 23.9294 10.1306 24.1012 9.6985 24.2333C9.26638 24.3654 8.87156 24.4307 8.51327 24.4307C8.34773 24.4307 8.21716 24.3864 8.12078 24.297C8.02441 24.2077 7.96223 24.0911 7.93503 23.9465C7.74229 24.0996 7.52389 24.2186 7.28063 24.3033C7.03736 24.388 6.70394 24.4307 6.28192 24.4307C5.90498 24.4307 5.59488 24.3437 5.35161 24.1696C5.10835 23.9955 4.98633 23.7305 4.98633 23.3737C4.98633 23.153 5.04151 22.8771 5.15187 22.546C5.26223 22.2149 5.42312 21.8629 5.63451 21.489C5.91042 20.9799 6.17389 20.5618 6.42726 20.2346C6.67985 19.9082 6.93011 19.6509 7.17804 19.4644C7.42597 19.2779 7.67389 19.1481 7.92182 19.0758C8.16975 19.0035 8.427 18.9678 8.69358 18.9678C9.07053 18.9678 9.33866 19.0167 9.49954 19.1139C9.66042 19.2118 9.79099 19.3323 9.89203 19.4768L10.0296 19.1838H11.6695L10.2223 22.1768C10.1213 22.389 10.0498 22.5398 10.0086 22.6292C9.96742 22.7185 9.94643 22.797 9.94643 22.8647C9.94643 22.9921 10.0242 23.0559 10.1804 23.0559C10.3366 23.0559 10.52 23.0092 10.7314 22.916C10.9428 22.8227 11.1495 22.7077 11.3516 22.5724C11.5537 22.4364 11.7371 22.2903 11.9026 22.1333C12.0682 21.9763 12.1824 21.8341 12.2469 21.7066L12.6752 22.2017ZM9.00913 20.2027C9.02778 20.1771 9.03633 20.1499 9.03633 20.1196C9.03633 20.0901 9.03633 20.0621 9.03633 20.0372C9.03633 19.9945 9.02001 19.954 8.98814 19.916C8.9555 19.8779 8.8941 19.8584 8.80239 19.8584C8.66483 19.8584 8.55679 19.8926 8.4783 19.9603C8.3998 20.0287 8.32907 20.1344 8.26457 20.2789L7.01016 22.8895C6.92778 23.0426 6.88581 23.1872 6.88581 23.3224C6.88581 23.4584 6.95032 23.5261 7.07856 23.5261C7.28996 23.5261 7.49203 23.3395 7.68477 22.9657L9.00913 20.2027Z" fill="#00003B"/>
<path d="M17.598 22.2015C17.5242 22.3632 17.4053 22.5303 17.2397 22.7044C17.0742 22.8785 16.8814 23.0417 16.6607 23.1948C16.1097 23.5857 15.54 23.8888 14.9516 24.1057C14.3633 24.3225 13.7019 24.4305 12.9675 24.4305C12.6185 24.4305 12.3037 24.4181 12.0232 24.3924C11.7426 24.3668 11.504 24.3163 11.3066 24.2393C11.1092 24.1632 10.9576 24.0544 10.8519 23.9145C10.7462 23.7746 10.6934 23.5896 10.6934 23.3603C10.6934 23.0121 10.8356 22.5373 11.1208 21.9342L11.6307 20.8772C11.9618 20.1808 12.3931 19.6888 12.9263 19.3997C13.4586 19.1114 14.1387 18.9668 14.9656 18.9668C15.6084 18.9668 16.0747 19.0181 16.3646 19.1199C16.6537 19.2217 16.7991 19.43 16.7991 19.744C16.7991 19.8373 16.7757 19.9562 16.7299 20.1007L14.3874 20.8779C14.4884 20.759 14.5778 20.6191 14.6563 20.4575C14.734 20.2966 14.7737 20.152 14.7737 20.0246C14.7737 19.9142 14.6866 19.859 14.5118 19.859C14.3004 19.859 14.1488 19.9484 14.0571 20.1264L12.7063 22.8901C12.6418 23.0347 12.6099 23.1746 12.6099 23.3106C12.6099 23.4295 12.6651 23.5018 12.7755 23.5274C12.8858 23.5531 12.9962 23.5655 13.1066 23.5655C13.5294 23.5655 13.9794 23.5064 14.4573 23.3875C14.9353 23.2686 15.3947 23.0906 15.8353 22.8528C16.0926 22.7168 16.3405 22.5536 16.5791 22.3624C16.8177 22.1712 17.0151 21.9528 17.1713 21.7064L17.598 22.2015Z" fill="#00003B"/>
<path d="M20.7604 22.2016C20.6407 22.4479 20.427 22.7028 20.12 22.9655C19.8122 23.229 19.4586 23.4684 19.0591 23.6852C18.6596 23.9021 18.2415 24.08 17.8047 24.2199C17.3679 24.3598 16.9661 24.4298 16.5992 24.4298C16.3055 24.4298 16.0638 24.356 15.8757 24.2067C15.6876 24.0583 15.5928 23.8562 15.5928 23.6021C15.5928 23.3984 15.6526 23.1863 15.7723 22.9655L17.8257 18.7119H19.9358L18.1016 22.6345C18.0557 22.7363 18.0324 22.8124 18.0324 22.8637C18.0324 22.9912 18.1101 23.0549 18.2663 23.0549C18.4226 23.0549 18.606 23.0083 18.8174 22.915C19.0288 22.8218 19.2355 22.7067 19.4376 22.5715C19.6397 22.4355 19.8231 22.2894 19.9886 22.1324C20.1542 21.9754 20.2684 21.8332 20.3329 21.7057L20.7604 22.2016Z" fill="#00003B"/>
</g>
<circle cx="20" cy="20" r="19.5" stroke="black" stroke-opacity="0.05"/>
<defs>
<linearGradient id="paint0_linear_9_393919" x1="21.2925" y1="21.7992" x2="24.0614" y2="21.4246" gradientUnits="userSpaceOnUse">
<stop stop-color="#E3942C"/>
<stop offset="0.1033" stop-color="#E17C23"/>
<stop offset="0.2383" stop-color="#DE601A"/>
<stop offset="0.3781" stop-color="#DD4816"/>
<stop offset="0.5229" stop-color="#DC3314"/>
<stop offset="0.6759" stop-color="#DB2213"/>
<stop offset="0.8506" stop-color="#DB1B13"/>
<stop offset="1" stop-color="#CB140B"/>
</linearGradient>
<linearGradient id="paint1_linear_9_393919" x1="21.3593" y1="22.2393" x2="24.7204" y2="21.7845" gradientUnits="userSpaceOnUse">
<stop stop-color="#E3942C"/>
<stop offset="0.1033" stop-color="#E17C23"/>
<stop offset="0.2383" stop-color="#DE601A"/>
<stop offset="0.3781" stop-color="#DD4816"/>
<stop offset="0.5229" stop-color="#DC3314"/>
<stop offset="0.6759" stop-color="#DB2213"/>
<stop offset="0.8506" stop-color="#DB1B13"/>
<stop offset="1" stop-color="#CB140B"/>
</linearGradient>
<linearGradient id="paint2_linear_9_393919" x1="28.8297" y1="26.3479" x2="27.0795" y2="16.5604" gradientUnits="userSpaceOnUse">
<stop stop-color="#DC2F6E"/>
<stop offset="1" stop-color="#BE0049"/>
</linearGradient>
<linearGradient id="paint3_linear_9_393919" x1="25.8198" y1="17.7046" x2="30.5149" y2="26.2404" gradientUnits="userSpaceOnUse">
<stop stop-color="#DC2F6E"/>
<stop offset="1" stop-color="#BE0049"/>
</linearGradient>
<clipPath id="clip0_9_393919">
<rect width="30" height="14.1451" fill="white" transform="translate(5 13)"/>
</clipPath>
</defs>
</svg>
