<svg width="40" height="40" viewBox="0 0 40 40" fill="none" xmlns="http://www.w3.org/2000/svg">
<circle cx="20" cy="20" r="20" fill="#008767"/>
<g clip-path="url(#clip0_9_409948)">
<path d="M0 0H40V40H0V0ZM21.2316 18.3662C21.3779 18.4462 21.5136 18.5361 21.6387 18.636C21.6423 18.6389 21.6466 18.6408 21.6512 18.6416C21.6559 18.6423 21.6606 18.6419 21.665 18.6403C21.6693 18.6387 21.6732 18.636 21.6763 18.6324C21.6793 18.6289 21.6813 18.6246 21.6822 18.62L22.0044 17.0444C22.0067 17.0337 22.0054 17.0226 22.001 17.0126C21.9965 17.0027 21.989 16.9944 21.9796 16.9889C21.3564 16.628 20.7649 16.4551 20.0804 16.4511C19.8265 16.4496 19.6481 16.4561 19.5453 16.4707C18.6742 16.596 17.9434 16.968 17.3529 17.5867C16.4151 18.5689 16.0622 19.9569 16.4004 21.2738C16.7196 22.5156 17.6893 23.3382 18.9587 23.5187C19.2818 23.5644 19.6516 23.5529 19.9822 23.5364C20.3256 23.5196 20.6698 23.4519 21.0147 23.3333C21.0289 23.3286 21.0381 23.319 21.0422 23.3044C21.0559 23.2582 21.0664 23.2117 21.0738 23.1649C21.1553 22.6484 21.2319 22.1575 21.3036 21.692C21.308 21.6621 21.2963 21.653 21.2684 21.6649C20.7764 21.872 20.1671 21.9218 19.6462 21.8973C18.6333 21.8489 17.9742 21.0889 18.0142 20.0831C18.0382 19.4775 18.2607 18.9898 18.6818 18.62C19.3653 18.02 20.4364 17.9316 21.2316 18.3662ZM27.9569 21.2542C28.2461 20.5796 28.3449 19.8641 28.2533 19.108C28.0796 17.668 27.0418 16.6133 25.5982 16.4729C24.9259 16.4077 24.3101 16.5154 23.7507 16.796C23.0064 17.169 22.4433 17.7369 22.0613 18.4996C21.112 20.3951 21.6804 23.0369 24.064 23.4693C25.7556 23.776 27.2876 22.8169 27.9569 21.2542ZM10.7929 23.292C10.7855 23.3409 10.776 23.3412 10.7644 23.2929L9.18889 16.5884C9.18593 16.576 9.17822 16.5698 9.16578 16.5698L7.33422 16.5729C7.32104 16.5729 7.30811 16.5766 7.29694 16.5837C7.28577 16.5908 7.27682 16.6009 7.27111 16.6129C6.20148 18.847 5.13304 21.0793 4.06578 23.3098C4.05037 23.3418 4.03822 23.3753 4.02933 23.4102C4.02872 23.4125 4.02864 23.415 4.02912 23.4173C4.02959 23.4196 4.0306 23.4218 4.03206 23.4237C4.03352 23.4256 4.0354 23.4272 4.03754 23.4282C4.03969 23.4293 4.04205 23.4298 4.04444 23.4298L5.75689 23.4276C5.7717 23.4276 5.78193 23.4209 5.78756 23.4076L6.33244 22.1293C6.33732 22.1179 6.34548 22.1081 6.35591 22.1012C6.36634 22.0944 6.37858 22.0907 6.39111 22.0907H8.81911C8.82412 22.0907 8.82897 22.0924 8.83286 22.0955C8.83674 22.0987 8.83942 22.1031 8.84044 22.108L9.12089 23.4C9.12261 23.4079 9.12699 23.415 9.13329 23.4201C9.1396 23.4252 9.14745 23.428 9.15556 23.428L15.6333 23.4302C15.6621 23.4302 15.6785 23.4161 15.6827 23.388L15.912 21.8764C15.9176 21.84 15.9019 21.8218 15.8649 21.8218L11.0444 21.8222C11.029 21.8222 11.0201 21.8298 11.0178 21.8449L10.7929 23.292ZM16.4529 18.1782C16.4598 18.1782 16.4664 18.1757 16.4716 18.1712C16.4768 18.1668 16.4803 18.1606 16.4813 18.1538L16.7173 16.604C16.718 16.5999 16.7177 16.5956 16.7166 16.5916C16.7154 16.5875 16.7134 16.5838 16.7106 16.5806C16.7079 16.5775 16.7045 16.5749 16.7006 16.5732C16.6968 16.5715 16.6926 16.5706 16.6884 16.5707L11.8458 16.5711C11.8389 16.5711 11.8323 16.5736 11.827 16.5781C11.8218 16.5826 11.8184 16.5888 11.8173 16.5956L11.5822 18.1453C11.5816 18.1495 11.5818 18.1537 11.583 18.1578C11.5842 18.1618 11.5862 18.1655 11.5889 18.1687C11.5917 18.1719 11.5951 18.1744 11.5989 18.1761C11.6028 18.1779 11.6069 18.1787 11.6111 18.1787L16.4529 18.1782ZM30.6324 19.5084C30.6487 19.5268 30.6593 19.5484 30.664 19.5733C30.9105 20.9188 31.1465 22.1982 31.372 23.4116C31.3728 23.4161 31.3752 23.4203 31.3788 23.4233C31.3824 23.4263 31.3869 23.428 31.3916 23.428L32.2142 23.4298C32.2295 23.4298 32.2445 23.4256 32.2575 23.4177C32.2705 23.4097 32.2811 23.3984 32.288 23.3849L34.2631 19.5044C34.2779 19.4757 34.2855 19.4775 34.2858 19.5098C34.2917 19.983 34.2907 20.4615 34.2827 20.9453C34.2684 21.7707 34.2791 22.5871 34.2622 23.404C34.2622 23.4073 34.2628 23.4106 34.264 23.4137C34.2653 23.4167 34.2671 23.4195 34.2695 23.4219C34.2718 23.4242 34.2747 23.4261 34.2778 23.4274C34.2809 23.4287 34.2842 23.4293 34.2876 23.4293L35.9422 23.4298C35.9473 23.4298 35.9524 23.4288 35.9571 23.4268C35.9618 23.4248 35.9661 23.4219 35.9697 23.4183C35.9733 23.4147 35.9762 23.4103 35.9781 23.4056C35.98 23.4009 35.9809 23.3958 35.9809 23.3907L35.8542 16.632C35.8533 16.5899 35.8319 16.569 35.7898 16.5693C35.3471 16.572 34.9135 16.5719 34.4889 16.5689C34.4287 16.5683 34.3684 16.5714 34.308 16.5782C34.2957 16.5795 34.2839 16.5838 34.2737 16.5907C34.2635 16.5977 34.2551 16.6072 34.2493 16.6182L32.3196 20.3293C32.2793 20.4067 32.2551 20.4019 32.2471 20.3151C32.2441 20.2834 32.2396 20.2523 32.2333 20.2218C31.9788 18.9898 31.7255 17.7812 31.4733 16.596C31.4698 16.5791 31.4594 16.5707 31.4422 16.5707L29.9329 16.5724C29.9211 16.5725 29.9096 16.5762 29.9 16.5832C29.8905 16.5901 29.8835 16.5999 29.88 16.6111L27.736 23.3933C27.7346 23.3975 27.7342 23.402 27.7349 23.4064C27.7356 23.4108 27.7374 23.415 27.74 23.4186C27.7427 23.4222 27.7461 23.4251 27.7501 23.4271C27.7542 23.4292 27.7586 23.4302 27.7631 23.4302L29.4418 23.4276C29.45 23.4276 29.458 23.4249 29.4645 23.4199C29.4711 23.4149 29.4759 23.408 29.4782 23.4C29.8856 22.035 30.2542 20.7714 30.584 19.6093C30.5929 19.5788 30.6012 19.5473 30.6089 19.5147C30.613 19.4978 30.6209 19.4957 30.6324 19.5084ZM15.4751 20.7991C15.4792 20.7992 15.4831 20.7978 15.4862 20.7951C15.4893 20.7925 15.4914 20.7889 15.492 20.7849L15.7333 19.22C15.7337 19.2176 15.7336 19.2152 15.7329 19.2128C15.7323 19.2105 15.7311 19.2083 15.7296 19.2065C15.728 19.2046 15.7261 19.2031 15.7239 19.2021C15.7217 19.201 15.7193 19.2005 15.7169 19.2004H11.4347C11.4306 19.2004 11.4267 19.2018 11.4236 19.2044C11.4205 19.207 11.4184 19.2107 11.4178 19.2147L11.1796 20.7804C11.1792 20.7828 11.1793 20.7853 11.18 20.7876C11.1806 20.79 11.1817 20.7921 11.1833 20.794C11.1849 20.7958 11.1868 20.7973 11.189 20.7984C11.1912 20.7994 11.1936 20.8 11.196 20.8L15.4751 20.7991Z" fill="#008767"/>
<path d="M21.2313 18.3665C20.4362 17.9318 19.365 18.0203 18.6815 18.6203C18.2605 18.99 18.0379 19.4777 18.0139 20.0834C17.9739 21.0892 18.633 21.8492 19.6459 21.8976C20.1668 21.922 20.7762 21.8723 21.2682 21.6652C21.296 21.6533 21.3077 21.6623 21.3033 21.6923C21.2316 22.1577 21.155 22.6487 21.0735 23.1652C21.0661 23.212 21.0556 23.2585 21.0419 23.3047C21.0378 23.3192 21.0286 23.3289 21.0144 23.3336C20.6695 23.4521 20.3253 23.5198 19.9819 23.5367C19.6513 23.5532 19.2815 23.5647 18.9584 23.5189C17.689 23.3385 16.7193 22.5158 16.4002 21.274C16.0619 19.9572 16.4148 18.5692 17.3526 17.5869C17.9431 16.9683 18.6739 16.5963 19.545 16.4709C19.6479 16.4564 19.8262 16.4499 20.0802 16.4514C20.7646 16.4554 21.3562 16.6283 21.9793 16.9892C21.9887 16.9946 21.9962 17.0029 22.0007 17.0129C22.0052 17.0229 22.0064 17.034 22.0042 17.0447L21.6819 18.6203C21.681 18.6248 21.679 18.6291 21.676 18.6327C21.6729 18.6362 21.669 18.6389 21.6647 18.6405C21.6603 18.6422 21.6556 18.6426 21.651 18.6419C21.6464 18.6411 21.642 18.6392 21.6384 18.6363C21.5133 18.5364 21.3776 18.4465 21.2313 18.3665Z" fill="white"/>
<path d="M27.9572 21.2539C27.2879 22.8165 25.7559 23.7756 24.0643 23.469C21.6807 23.0365 21.1123 20.3948 22.0616 18.4992C22.4436 17.7365 23.0067 17.1687 23.751 16.7956C24.3104 16.5151 24.9262 16.4073 25.5985 16.4725C27.0421 16.613 28.0799 17.6676 28.2536 19.1076C28.3452 19.8638 28.2464 20.5792 27.9572 21.2539ZM25.4128 21.881C26.3234 21.4663 26.7354 20.2863 26.6519 19.3703C26.5959 18.7543 26.2545 18.2201 25.6434 18.0432C25.0696 17.877 24.4963 18.0596 24.0794 18.4752C23.5225 19.0299 23.2665 19.9054 23.3505 20.6779C23.3941 21.077 23.5821 21.4859 23.903 21.7312C24.3341 22.0614 24.9163 22.1072 25.4128 21.881Z" fill="white"/>
<path d="M10.7934 23.2916L11.0183 21.8444C11.0206 21.8293 11.0295 21.8218 11.0449 21.8218L15.8654 21.8213C15.9024 21.8213 15.9181 21.8396 15.9125 21.876L15.6832 23.3876C15.679 23.4157 15.6626 23.4298 15.6338 23.4298L9.15604 23.4276C9.14794 23.4275 9.14008 23.4248 9.13378 23.4197C9.12747 23.4146 9.1231 23.4075 9.12138 23.3996L8.84093 22.1076C8.83991 22.1027 8.83723 22.0983 8.83334 22.0951C8.82946 22.0919 8.8246 22.0902 8.8196 22.0902H6.3916C6.37907 22.0902 6.36683 22.0939 6.3564 22.1008C6.34597 22.1077 6.33781 22.1174 6.33293 22.1289L5.78804 23.4071C5.78241 23.4204 5.77219 23.4271 5.75738 23.4271L4.04493 23.4293C4.04254 23.4293 4.04018 23.4288 4.03803 23.4278C4.03588 23.4267 4.03401 23.4252 4.03254 23.4233C4.03108 23.4214 4.03008 23.4192 4.0296 23.4169C4.02913 23.4145 4.02921 23.4121 4.02982 23.4098C4.03871 23.3748 4.05086 23.3413 4.06626 23.3093C5.13352 21.0788 6.20197 18.8465 7.2716 16.6124C7.2773 16.6005 7.28626 16.5904 7.29743 16.5833C7.3086 16.5762 7.32152 16.5724 7.33471 16.5724L9.16626 16.5693C9.17871 16.5693 9.18641 16.5756 9.18938 16.588L10.7649 23.2924C10.7765 23.3407 10.786 23.3404 10.7934 23.2916ZM7.00982 20.5413C7.00834 20.5447 7.00773 20.5484 7.00804 20.5521C7.00836 20.5558 7.00959 20.5593 7.01162 20.5624C7.01365 20.5655 7.01641 20.5681 7.01967 20.5698C7.02293 20.5716 7.02657 20.5725 7.03026 20.5724L8.48138 20.5711C8.48467 20.5711 8.48793 20.5704 8.4909 20.569C8.49388 20.5676 8.49651 20.5655 8.49859 20.5629C8.50068 20.5604 8.50217 20.5574 8.50296 20.5542C8.50374 20.551 8.50381 20.5477 8.50315 20.5444L8.01426 18.2778C8.01328 18.2732 8.01085 18.269 8.00731 18.2658C8.00378 18.2627 7.99933 18.2607 7.99462 18.2603C7.98991 18.2598 7.98518 18.2609 7.98112 18.2633C7.97706 18.2658 7.97388 18.2694 7.97204 18.2738L7.00982 20.5413Z" fill="white"/>
<path d="M16.453 18.1779L11.6113 18.1783C11.6071 18.1784 11.6029 18.1775 11.5991 18.1758C11.5952 18.1741 11.5918 18.1715 11.5891 18.1683C11.5863 18.1652 11.5843 18.1614 11.5832 18.1574C11.582 18.1534 11.5817 18.1491 11.5824 18.145L11.8175 16.5952C11.8185 16.5884 11.822 16.5822 11.8272 16.5777C11.8324 16.5733 11.8391 16.5708 11.8459 16.5708L16.6886 16.5703C16.6928 16.5703 16.697 16.5711 16.7008 16.5729C16.7046 16.5746 16.708 16.5771 16.7108 16.5803C16.7135 16.5835 16.7155 16.5872 16.7167 16.5912C16.7179 16.5953 16.7181 16.5995 16.7175 16.6036L16.4815 18.1534C16.4804 18.1602 16.477 18.1664 16.4718 18.1709C16.4666 18.1754 16.4599 18.1778 16.453 18.1779Z" fill="white"/>
<path d="M30.6087 19.5142C30.601 19.5468 30.5927 19.5784 30.5838 19.6089C30.254 20.7709 29.8854 22.0345 29.478 23.3995C29.4757 23.4075 29.4709 23.4145 29.4643 23.4195C29.4578 23.4244 29.4498 23.4271 29.4416 23.4271L27.7629 23.4298C27.7584 23.4298 27.754 23.4287 27.7499 23.4267C27.7459 23.4246 27.7425 23.4217 27.7398 23.4181C27.7372 23.4145 27.7354 23.4103 27.7347 23.406C27.734 23.4016 27.7344 23.3971 27.7358 23.3929L29.8798 16.6107C29.8833 16.5994 29.8903 16.5897 29.8998 16.5827C29.9093 16.5757 29.9209 16.572 29.9327 16.572L31.442 16.5702C31.4592 16.5702 31.4696 16.5787 31.4731 16.5955C31.7253 17.7807 31.9786 18.9893 32.2331 20.2213C32.2394 20.2518 32.2439 20.2829 32.2469 20.3147C32.2549 20.4015 32.2791 20.4062 32.3194 20.3289L34.2491 16.6178C34.2549 16.6067 34.2633 16.5973 34.2735 16.5903C34.2837 16.5833 34.2955 16.579 34.3078 16.5778C34.3682 16.5709 34.4285 16.5678 34.4887 16.5684C34.9133 16.5714 35.3469 16.5715 35.7896 16.5689C35.8316 16.5686 35.8531 16.5895 35.854 16.6315L35.9807 23.3902C35.9807 23.3953 35.9798 23.4004 35.9779 23.4051C35.976 23.4099 35.9731 23.4142 35.9695 23.4178C35.9659 23.4215 35.9616 23.4244 35.9569 23.4263C35.9522 23.4283 35.9471 23.4293 35.942 23.4293L34.2874 23.4289C34.284 23.4289 34.2807 23.4282 34.2776 23.4269C34.2745 23.4257 34.2716 23.4238 34.2693 23.4214C34.2669 23.4191 34.2651 23.4163 34.2638 23.4132C34.2626 23.4101 34.262 23.4068 34.262 23.4035C34.2789 22.5867 34.2682 21.7702 34.2825 20.9449C34.2905 20.461 34.2915 19.9825 34.2856 19.5093C34.2853 19.477 34.2777 19.4752 34.2629 19.504L32.2878 23.3844C32.2808 23.3979 32.2703 23.4093 32.2573 23.4172C32.2443 23.4251 32.2293 23.4293 32.214 23.4293L31.3914 23.4275C31.3867 23.4275 31.3822 23.4259 31.3786 23.4228C31.375 23.4198 31.3726 23.4157 31.3718 23.4111C31.1463 22.1978 30.9103 20.9184 30.6638 19.5729C30.6591 19.548 30.6485 19.5264 30.6322 19.508C30.6207 19.4952 30.6128 19.4973 30.6087 19.5142Z" fill="white"/>
<path d="M26.6519 19.3706C26.7355 20.2866 26.3235 21.4666 25.4128 21.8813C24.9164 22.1075 24.3342 22.0617 23.903 21.7315C23.5822 21.4862 23.3942 21.0773 23.3506 20.6782C23.2666 19.9057 23.5226 19.0302 24.0795 18.4755C24.4964 18.0599 25.0697 17.8773 25.6435 18.0435C26.2546 18.2204 26.5959 18.7546 26.6519 19.3706Z" fill="#008767"/>
<path d="M7.00967 20.5419L7.97189 18.2744C7.97372 18.27 7.9769 18.2663 7.98097 18.2639C7.98503 18.2615 7.98976 18.2604 7.99447 18.2608C7.99918 18.2613 8.00363 18.2632 8.00716 18.2664C8.01069 18.2695 8.01313 18.2737 8.01411 18.2784L8.503 20.545C8.50366 20.5482 8.50359 20.5516 8.5028 20.5548C8.50201 20.558 8.50052 20.561 8.49844 20.5635C8.49635 20.5661 8.49373 20.5681 8.49075 20.5695C8.48777 20.571 8.48452 20.5717 8.48122 20.5717L7.03011 20.573C7.02642 20.573 7.02277 20.5721 7.01952 20.5704C7.01626 20.5686 7.01349 20.5661 7.01146 20.563C7.00943 20.5599 7.00821 20.5564 7.00789 20.5527C7.00758 20.549 7.00819 20.5453 7.00967 20.5419Z" fill="#008767"/>
<path d="M15.4755 20.7989L11.1963 20.7998C11.1939 20.7997 11.1915 20.7992 11.1893 20.7981C11.1872 20.7971 11.1852 20.7956 11.1837 20.7937C11.1821 20.7919 11.1809 20.7897 11.1803 20.7874C11.1797 20.785 11.1795 20.7826 11.1799 20.7802L11.4181 19.2144C11.4188 19.2104 11.4208 19.2068 11.4239 19.2042C11.427 19.2016 11.431 19.2001 11.435 19.2002H15.7172C15.7197 19.2002 15.722 19.2008 15.7242 19.2018C15.7264 19.2029 15.7284 19.2044 15.7299 19.2062C15.7315 19.2081 15.7326 19.2102 15.7333 19.2126C15.7339 19.2149 15.7341 19.2174 15.7337 19.2198L15.4923 20.7846C15.4917 20.7886 15.4896 20.7923 15.4865 20.7949C15.4834 20.7975 15.4795 20.7989 15.4755 20.7989Z" fill="white"/>
</g>
<circle cx="20" cy="20" r="19.5" stroke="black" stroke-opacity="0.05"/>
<defs>
<clipPath id="clip0_9_409948">
<rect width="40" height="40" rx="20" fill="white"/>
</clipPath>
</defs>
</svg>
