<svg width="40" height="40" viewBox="0 0 40 40" fill="none" xmlns="http://www.w3.org/2000/svg">
<circle cx="20" cy="20" r="20" fill="#D0271D"/>
<g clip-path="url(#clip0_9_385868)">
<path fill-rule="evenodd" clip-rule="evenodd" d="M35 18.3599C35 19.0631 34.8605 19.7605 34.593 20.4102C34.3236 21.0599 33.928 21.6503 33.4312 22.149C32.9344 22.6459 32.342 23.0414 31.6924 23.3108C31.0427 23.5803 30.3471 23.7178 29.642 23.7178V26.6338H25.014V24.3618C24.6968 24.7229 24.3414 25.0478 23.9535 25.3325C23.5675 25.6172 23.151 25.858 22.7115 26.0548C22.2739 26.2497 21.8153 26.3968 21.3452 26.4943C20.8732 26.5917 20.3955 26.6395 19.914 26.6338H15.542V23.7178H12.114L10.4 26.6338H5L12.928 13H19.958C20.4357 13.0038 20.9134 13.0573 21.3815 13.1586C21.8497 13.2599 22.3064 13.4108 22.7439 13.6057C23.1815 13.8006 23.5981 14.0395 23.986 14.3204C24.3758 14.5994 24.7331 14.9185 25.058 15.272V13H29.686C30.3854 13.0038 31.079 13.1471 31.7248 13.4185C32.3688 13.6898 32.9554 14.0854 33.4484 14.5822C33.9414 15.079 34.3331 15.6694 34.5987 16.3172C34.8643 16.965 35.0019 17.6586 35 18.3599ZM19.958 24.9197C20.4395 24.9197 20.9191 24.8529 21.3815 24.721C21.8439 24.5873 22.2854 24.3885 22.6943 24.1325C23.1013 23.8764 23.4701 23.5631 23.7911 23.2019C24.1102 22.8427 24.3777 22.4395 24.586 22.0038H26.772V24.9197H27.972V22.0038H29.686C30.1637 22.0038 30.6376 21.9102 31.0809 21.7268C31.5223 21.5452 31.9236 21.2758 32.2637 20.9376C32.6019 20.5994 32.8694 20.1962 33.0529 19.7548C33.2344 19.3115 33.3299 18.8376 33.328 18.3599C33.3242 17.8783 33.2248 17.4025 33.0376 16.9592C32.8503 16.5178 32.579 16.1146 32.2369 15.7764C31.8949 15.4382 31.4898 15.1707 31.0446 14.9892C30.5994 14.8076 30.1236 14.714 29.642 14.7159H26.728V19.0879H25.014C24.9223 18.486 24.7255 17.907 24.4331 17.3739C24.1389 16.8408 23.7529 16.365 23.2924 15.9675C22.8338 15.5701 22.3064 15.2567 21.7369 15.0427C21.1675 14.8287 20.5656 14.7178 19.958 14.7159H13.958L8 24.9197H9.41401L11.128 22.0038H17.258V24.9197H19.958ZM23.858 19.8178C23.8561 20.328 23.7529 20.8363 23.5561 21.3083C23.3611 21.7803 23.0726 22.2102 22.7115 22.5713C22.3484 22.9344 21.9204 23.221 21.4484 23.4178C20.9745 23.6146 20.4682 23.7159 19.958 23.7178H18.458V22.0038H19.958C20.5369 22.0038 21.093 21.7726 21.5019 21.3637C21.9127 20.9529 22.142 20.3968 22.142 19.8178C22.142 19.2369 21.9127 18.6809 21.5019 18.2701C21.093 17.8611 20.5369 17.6299 19.958 17.6299H18.458V15.9159H19.958C20.4682 15.9178 20.9745 16.0191 21.4484 16.2159C21.9204 16.4127 22.3484 16.6994 22.7115 17.0624C23.0726 17.4236 23.3611 17.8535 23.5561 18.3255C23.7529 18.7994 23.8561 19.3057 23.858 19.8178ZM17.258 15.9159V20.8038H11.858L12.842 19.0879H15.542V15.9159H17.258ZM30.5745 16.1089C30.8707 16.2331 31.1382 16.4127 31.3637 16.6382C31.5911 16.8656 31.7707 17.1331 31.8949 17.4274C32.0191 17.7236 32.0841 18.0389 32.0879 18.3599C32.0879 18.6809 32.0248 18.9981 31.9006 19.2943C31.7783 19.5904 31.5987 19.8599 31.3713 20.0873C31.1459 20.3146 30.8764 20.4943 30.5803 20.6166C30.2822 20.7408 29.965 20.8038 29.6439 20.8038H27.9299V19.0879H29.6439C29.7395 19.086 29.8331 19.065 29.921 19.0268C30.007 18.9904 30.0873 18.935 30.1541 18.8682C30.221 18.8013 30.2745 18.7229 30.3127 18.635C30.349 18.5471 30.3701 18.4535 30.3739 18.3599C30.3739 18.2643 30.3548 18.1688 30.3185 18.079C30.2822 17.9911 30.2287 17.9108 30.1618 17.842C30.093 17.7752 30.0127 17.7217 29.9248 17.6854C29.835 17.649 29.7395 17.6299 29.6439 17.6299H27.9299V15.9159H29.6439C29.965 15.9178 30.2803 15.9847 30.5745 16.1089Z" fill="white"/>
</g>
<circle cx="20" cy="20" r="19.5" stroke="black" stroke-opacity="0.05"/>
<defs>
<clipPath id="clip0_9_385868">
<rect width="30" height="13.6433" fill="white" transform="translate(5 13)"/>
</clipPath>
</defs>
</svg>
