<svg width="40" height="40" viewBox="0 0 40 40" fill="none" xmlns="http://www.w3.org/2000/svg">
<circle cx="20" cy="20" r="20" fill="#0061AA"/>
<g clip-path="url(#clip0_9_405757)">
<path d="M20.5969 25.1431H17.1426V14.8574H20.5969C23.5209 14.8574 25.714 17.0414 25.714 19.9934C25.714 22.9454 23.5209 25.1431 20.5969 25.1431ZM20.5969 17.0997H19.3643V22.8871H20.5969C22.2883 22.8871 23.4923 21.7151 23.4923 19.9934C23.4923 18.2717 22.2877 17.0997 20.5969 17.0997Z" fill="white"/>
<path d="M25.9774 25.1431V17.1454H22.8574V14.8574H31.4289V17.1454H28.2791V25.1431H25.9774Z" fill="white"/>
<path d="M31.3119 14.6798V16.8404H28.2519V24.7547H26.0073V16.8404H22.9724V14.6804H31.313H31.3119V14.6798ZM31.7141 14.2861H22.5713V17.229H25.6061V25.1433H28.6496V17.229H31.7107V14.2861H31.7141Z" fill="#0061AA"/>
<path d="M16.4766 25.1433L15.9297 24.0958H11.5126L10.9514 25.1433H8L13.7217 14.2861L19.4286 25.1433H16.4766ZM14.5954 21.5753L13.7211 19.909L12.832 21.5753H14.5954Z" fill="white"/>
<path d="M13.8471 14.5864L19.1751 24.7459H16.7048L16.162 23.7042H11.5334L10.9763 24.7459H8.50598L13.8471 14.5864ZM12.634 21.5956H15.0483L13.8483 19.3053L12.634 21.5956ZM13.8483 13.7139L13.4848 14.4064L8.14256 24.5653L7.83398 25.1424H11.2163L11.3328 24.9282L11.7763 24.1013H15.906L16.3346 24.9247L16.4517 25.1424H19.834L19.5317 24.5653L14.2117 14.4064L13.8477 13.7139H13.8483ZM13.3037 21.1933L13.8466 20.1733L14.3826 21.1933H13.3037Z" fill="#0061AA"/>
</g>
<circle cx="20" cy="20" r="19.5" stroke="black" stroke-opacity="0.05"/>
<defs>
<clipPath id="clip0_9_405757">
<rect width="25" height="13" fill="white" transform="translate(7 13)"/>
</clipPath>
</defs>
</svg>
