<svg width="40" height="40" viewBox="0 0 40 40" fill="none" xmlns="http://www.w3.org/2000/svg">
<circle cx="20" cy="20" r="20" fill="#F6F8FA"/>
<g clip-path="url(#clip0_9_408976)">
<path d="M23.7627 19.9529L31.7232 16.9521C31.758 17.1081 31.7896 17.2647 31.818 17.4217C31.8465 17.5788 31.8718 17.7363 31.8939 17.8944C31.9161 18.0536 31.935 18.2128 31.9508 18.3719C31.9656 18.5311 31.9777 18.6902 31.9872 18.8494L23.8101 20.0826C23.8112 20.0699 23.8112 20.0578 23.8101 20.0462C23.8091 20.0336 23.807 20.0214 23.8038 20.0099C23.7996 19.9983 23.7943 19.9872 23.788 19.9767C23.7817 19.9661 23.7743 19.9566 23.7659 19.9482L23.7627 19.9529Z" fill="#D2332F"/>
<path d="M17.4577 20.9964H8.07433C8.0543 20.8204 8.03849 20.6439 8.0269 20.4668C8.0153 20.2908 8.00793 20.1142 8.00476 19.9371C8.00055 19.7601 8.00107 19.5835 8.00634 19.4075C8.01056 19.2304 8.01899 19.0539 8.03164 18.8778L17.4577 20.8336V20.9964ZM17.5795 19.9103L8.16603 17.662C8.21241 17.4344 8.26458 17.2083 8.32255 16.9838C8.38052 16.7603 8.44482 16.5379 8.51544 16.3166C8.585 16.0952 8.66089 15.876 8.7431 15.6589C8.82426 15.4417 8.91175 15.2273 9.00555 15.0154L17.6743 19.7411C17.6606 19.7516 17.6485 19.7637 17.638 19.7774C17.6274 19.7901 17.6185 19.8043 17.6111 19.8201C17.6037 19.8349 17.5979 19.8507 17.5937 19.8676C17.5895 19.8844 17.5874 19.9013 17.5874 19.9182L17.5795 19.9103ZM22.7937 18.4099L28.0538 10.9284C28.2171 11.0665 28.3758 11.2104 28.5297 11.3601C28.6836 11.5087 28.8322 11.6626 28.9755 11.8217C29.1199 11.9798 29.259 12.1427 29.3929 12.3103C29.5257 12.4778 29.6533 12.6496 29.7755 12.8257L22.9265 18.5442L22.7937 18.4099ZM18.2467 18.7593L9.80239 13.4707C9.96893 13.2146 10.1449 12.9648 10.3305 12.7213C10.516 12.4778 10.7104 12.2417 10.9139 12.013C11.1173 11.7843 11.3291 11.5635 11.5494 11.3506C11.7697 11.1377 11.9979 10.9337 12.234 10.7387L18.3305 18.6344C18.2862 18.6771 18.2435 18.7197 18.2435 18.7672L18.2467 18.7593ZM21.249 17.7047L21.5131 8.00195C21.8019 8.03884 22.0891 8.08627 22.3747 8.14425C22.6604 8.20116 22.9434 8.26862 23.2237 8.34662C23.5052 8.42356 23.7829 8.51052 24.0569 8.60749C24.332 8.70446 24.6034 8.81091 24.8712 8.92685L21.4229 17.7474C21.3787 17.7047 21.336 17.7047 21.249 17.7047ZM19.5226 17.8818L14.1328 9.45808C14.4601 9.26836 14.7984 9.09286 15.1447 8.93634C15.4909 8.77982 15.8435 8.63911 16.204 8.51737C16.5629 8.39405 16.9281 8.2897 17.298 8.20432C17.668 8.11737 18.0427 8.05096 18.419 8.00195L19.6996 17.7917C19.6838 17.7938 19.668 17.7975 19.6522 17.8027C19.6353 17.808 19.6195 17.8143 19.6048 17.8217C19.59 17.8291 19.5758 17.8375 19.5621 17.847C19.5484 17.8565 19.5352 17.8665 19.5226 17.8771V17.8818ZM8.87117 24.0099C8.87117 24.0099 8.69409 23.5688 8.51702 23.0407C8.33994 22.5142 8.25299 21.9814 8.25299 21.9814C11.3028 21.5877 16.0743 21.5403 19.3455 21.5403C19.3455 21.5403 13.0403 22.1585 8.87117 24.0099ZM15.6332 30.6265C15.4878 30.579 15.3434 30.5274 15.2 30.4715C15.0567 30.4167 14.9149 30.3582 14.7747 30.296C14.6345 30.2338 14.4959 30.1674 14.3589 30.0968C14.2219 30.0273 14.087 29.954 13.9542 29.8771C13.815 29.7938 13.678 29.7068 13.5431 29.6162C13.4071 29.5266 13.2733 29.4338 13.1415 29.3379C13.0108 29.2431 12.8817 29.145 12.7542 29.0439C12.6266 28.9427 12.5012 28.8388 12.3779 28.7324C14.234 26.3925 20.2008 21.8518 25.8119 21.545C25.8119 21.545 20.0237 23.5735 15.6459 30.6296L15.6332 30.6265ZM23.1478 31.0249C22.8907 31.0902 22.6314 31.1482 22.37 31.1988C22.1096 31.2483 21.8477 31.2894 21.5842 31.3221C21.3207 31.3548 21.0561 31.379 20.7905 31.3948C20.526 31.4117 20.2609 31.4196 19.9953 31.4186C19.7876 31.4186 19.58 31.4133 19.3724 31.4027C19.1647 31.3922 18.9576 31.3759 18.751 31.3537C18.5444 31.3316 18.3384 31.3037 18.1328 31.2699C17.9273 31.2373 17.7233 31.1988 17.521 31.1545C17.8751 29.9735 21.8941 22.9948 26.7131 21.5419C26.7131 21.5419 23.0024 25.4802 23.1352 31.0249H23.1478ZM11.0814 27.5387C10.994 27.446 10.9081 27.3516 10.8237 27.2557C10.7394 27.1598 10.6567 27.0628 10.5755 26.9648C10.4944 26.8657 10.4148 26.7656 10.3368 26.6644C10.2588 26.5632 10.1829 26.461 10.1091 26.3577C10.0332 26.2502 9.95944 26.1411 9.88777 26.0304C9.81715 25.9197 9.74864 25.807 9.68223 25.6921C9.61689 25.5782 9.55417 25.4628 9.49409 25.3458C9.43296 25.2288 9.37499 25.1108 9.32018 24.9917C10.8222 24.0225 16.1692 21.5498 23.7281 21.5498C22.5803 21.8059 21.4467 22.1269 20.3352 22.5079C19.2222 22.8905 18.1328 23.3348 17.0704 23.8391C16.0063 24.3419 14.9724 24.9031 13.9731 25.5229C12.9724 26.1411 12.0079 26.813 11.0814 27.5387Z" fill="#218737"/>
</g>
<circle cx="20" cy="20" r="19.5" stroke="black" stroke-opacity="0.05"/>
<defs>
<clipPath id="clip0_9_408976">
<rect width="24" height="23.4308" fill="white" transform="translate(8 8)"/>
</clipPath>
</defs>
</svg>
