<svg width="40" height="40" viewBox="0 0 40 40" fill="none" xmlns="http://www.w3.org/2000/svg">
<circle cx="20" cy="20" r="20" fill="#F6F8FA"/>
<g clip-path="url(#clip0_9_397883)">
<path d="M19.5 8.57129H20.6C23.4214 8.74986 25.8357 9.76415 27.8286 11.6141C29.8388 13.4626 31.1166 15.9726 31.4286 18.6856V21.3856C31.1395 23.6769 30.1747 25.8303 28.6572 27.5713C28.6286 27.607 28.6072 27.5999 28.5857 27.5641C26.4643 23.6856 24.3429 19.957 22.2214 16.0856C21.8143 15.3427 21.3357 14.9999 20.7929 14.9999H15.15C14.8643 14.9999 14.6286 15.0927 14.4357 15.3356C14.2 15.6213 13.9572 15.9856 13.7214 16.4284C12.35 18.9356 10.9143 21.4141 9.40716 24.1427C9.38573 24.1927 9.3643 24.1927 9.34287 24.1427C8.44794 21.8388 8.33006 19.3055 9.00716 16.9284C9.66472 14.6143 11.0302 12.5641 12.9119 11.0653C14.7937 9.56658 17.0975 8.69445 19.5 8.57129Z" fill="#336699"/>
<path d="M22.1569 27.8576C22.1212 27.8576 22.0927 27.8576 22.0784 27.8218L18.2998 21.0861L20.9784 16.1861C21.1069 15.9576 21.2927 15.9218 21.5498 16.0718C21.6927 16.1576 21.8498 16.3361 21.9927 16.5933C24.0641 20.3718 26.1284 23.9933 28.1927 27.7647C28.2069 27.7933 28.2141 27.8361 28.2141 27.8576H22.1569Z" fill="black"/>
<path d="M18.2995 21.0859L22.0781 27.8002C22.0924 27.8288 22.121 27.8574 22.1567 27.8574H28.2281C26.271 29.8074 23.921 31.1217 21.1852 31.4288H18.8352C16.971 31.2145 15.2638 30.5931 13.721 29.5717C13.6924 29.5574 13.6852 29.5288 13.6995 29.5002L18.2995 21.0859Z" fill="#336699"/>
</g>
<circle cx="20" cy="20" r="19.5" stroke="black" stroke-opacity="0.05"/>
<defs>
<clipPath id="clip0_9_397883">
<rect width="24" height="24" fill="white" transform="translate(8 8)"/>
</clipPath>
</defs>
</svg>
