<svg width="40" height="40" viewBox="0 0 40 40" fill="none" xmlns="http://www.w3.org/2000/svg">
<circle cx="20" cy="20" r="20" fill="#0A275F"/>
<path d="M34.3638 16.5207L29.667 16.5259C29.6533 16.5259 29.6465 16.519 29.6465 16.5053L29.6491 16.0321C29.6491 16.0107 29.6593 16 29.6798 16L34.1675 16.0026C34.3883 16.0026 34.6 16.0903 34.7561 16.2464C34.9122 16.4025 34.9999 16.6142 34.9999 16.8349L34.9961 21.2598C34.9961 21.2841 34.9865 21.3074 34.9695 21.3246C34.9524 21.3419 34.9293 21.3518 34.905 21.3521L34.5254 21.3573C34.4843 21.3573 34.4638 21.3372 34.4638 21.297L34.4574 16.6143C34.4574 16.5519 34.4262 16.5207 34.3638 16.5207Z" fill="#FEFFFF"/>
<path d="M20.6496 19.9899C20.1392 19.9937 19.7711 20.2977 19.7634 20.8043C19.7548 21.3977 19.7557 21.959 19.7659 22.4883C19.7749 22.9834 20.1302 23.2848 20.606 23.3002C21.1686 23.319 21.4764 23.0253 21.5295 22.419C21.5312 22.4028 21.5401 22.3947 21.5564 22.3947L22.5004 22.387C22.5234 22.387 22.5346 22.3985 22.5337 22.4216C22.5209 23.0518 22.3016 23.54 21.8757 23.8863C21.3101 24.3467 20.2956 24.3762 19.6633 24.0556C19.093 23.7666 18.792 23.2536 18.7604 22.5165C18.7322 21.8727 18.7343 21.275 18.7668 20.7235C18.8198 19.8129 19.2734 19.2635 20.1276 19.0754C21.4153 18.7907 22.4773 19.4743 22.5375 20.8582C22.5384 20.8872 22.5243 20.9018 22.4952 20.9018L21.5833 20.8941C21.5734 20.8941 21.5638 20.8905 21.5565 20.8838C21.5491 20.8772 21.5445 20.868 21.5436 20.8582C21.476 20.2767 21.178 19.9873 20.6496 19.9899Z" fill="#FEFFFF"/>
<path d="M5.53952 24.207L5.03932 24.2135C5.03304 24.2134 5.02686 24.2118 5.02129 24.2089C5.01572 24.206 5.01093 24.2018 5.0073 24.1967C5.00367 24.1915 5.00131 24.1856 5.00041 24.1794C4.99951 24.1732 5.0001 24.1668 5.00213 24.1609L6.858 19.1012C6.86072 19.0932 6.86591 19.0862 6.87283 19.0814C6.87975 19.0766 6.88803 19.074 6.89647 19.0742L7.74553 19.0909C7.75338 19.0912 7.76098 19.0937 7.76737 19.0983C7.77376 19.1029 7.77866 19.1092 7.78144 19.1166L9.62577 24.1622C9.62783 24.1682 9.62841 24.1747 9.62744 24.181C9.62648 24.1873 9.624 24.1933 9.62022 24.1985C9.61645 24.2036 9.61148 24.2078 9.60575 24.2106C9.60002 24.2135 9.59369 24.2149 9.58729 24.2147L9.08581 24.1994C9.07781 24.199 9.0701 24.1962 9.06369 24.1914C9.05728 24.1866 9.05247 24.18 9.0499 24.1724L8.20982 21.8612C8.20695 21.8537 8.20186 21.8472 8.19522 21.8426C8.18858 21.838 8.18069 21.8356 8.17262 21.8356L6.45527 21.8407C6.4472 21.8407 6.43932 21.8432 6.43268 21.8477C6.42603 21.8523 6.42094 21.8588 6.41808 21.8664L5.57543 24.1814C5.57265 24.1887 5.56775 24.1951 5.56136 24.1997C5.55497 24.2042 5.54737 24.2068 5.53952 24.207Z" fill="#FEFFFF"/>
<path d="M10.9161 21.3518H13.1927C13.2085 21.3518 13.2236 21.358 13.2349 21.369C13.2461 21.38 13.2526 21.395 13.253 21.4108L13.2632 21.7763C13.2634 21.7844 13.262 21.7923 13.259 21.7998C13.2561 21.8073 13.2517 21.8141 13.246 21.8198C13.2404 21.8255 13.2337 21.8301 13.2263 21.8332C13.2189 21.8363 13.211 21.8379 13.203 21.8379L10.9123 21.8366C10.9044 21.8366 10.8965 21.8382 10.8892 21.8412C10.8819 21.8442 10.8753 21.8487 10.8697 21.8543C10.8641 21.8599 10.8596 21.8665 10.8566 21.8738C10.8536 21.8811 10.852 21.889 10.852 21.8969L10.8584 23.6553C10.8584 23.6713 10.8648 23.6866 10.8761 23.6979C10.8874 23.7092 10.9027 23.7156 10.9187 23.7156H13.6403C13.6484 23.7156 13.6565 23.7172 13.664 23.7204C13.6715 23.7236 13.6782 23.7283 13.6839 23.7341C13.6895 23.74 13.6939 23.7469 13.6968 23.7546C13.6996 23.7622 13.7009 23.7703 13.7006 23.7784L13.689 24.1491C13.6884 24.1646 13.6817 24.1793 13.6705 24.1901C13.6593 24.2008 13.6443 24.2068 13.6288 24.2068L10.3967 24.2106C10.3807 24.2106 10.3654 24.2043 10.3541 24.193C10.3428 24.1817 10.3364 24.1663 10.3364 24.1504L10.3377 19.1394C10.3377 19.1234 10.3441 19.1081 10.3554 19.0968C10.3667 19.0855 10.382 19.0791 10.398 19.0791L13.6442 19.0829C13.6522 19.0829 13.6601 19.0845 13.6675 19.0877C13.6749 19.0908 13.6816 19.0953 13.6872 19.1011C13.6929 19.1068 13.6973 19.1136 13.7002 19.121C13.7032 19.1285 13.7046 19.1365 13.7044 19.1445L13.6929 19.519C13.6926 19.5348 13.6861 19.5498 13.6748 19.5608C13.6635 19.5718 13.6484 19.578 13.6326 19.578L10.9161 19.5703C10.9002 19.5703 10.8848 19.5767 10.8735 19.588C10.8622 19.5993 10.8559 19.6146 10.8559 19.6306V21.2915C10.8559 21.3075 10.8622 21.3228 10.8735 21.3341C10.8848 21.3455 10.9002 21.3518 10.9161 21.3518Z" fill="#FEFFFF"/>
<path d="M15.088 21.9416L15.0893 24.1438C15.0893 24.1865 15.0684 24.2079 15.0265 24.2079L14.6404 24.2105C14.6317 24.2106 14.6231 24.2091 14.615 24.2058C14.6069 24.2026 14.5996 24.1978 14.5933 24.1918C14.5871 24.1857 14.5822 24.1784 14.5788 24.1704C14.5755 24.1624 14.5737 24.1537 14.5737 24.145L14.575 19.1495C14.575 19.105 14.5968 19.0823 14.6404 19.0815C15.4972 19.0695 16.1992 19.0746 16.7464 19.0969C16.9892 19.1071 17.2291 19.1824 17.4659 19.3226C18.1803 19.7471 18.2316 20.8771 17.6686 21.435C17.2222 21.8762 16.6066 21.8595 16.0153 21.8377C15.8862 21.8334 15.8674 21.8766 15.9589 21.9672L18.1162 24.1258C18.1803 24.1908 18.167 24.222 18.0764 24.2194L17.6288 24.2079C17.5201 24.2054 17.4168 24.1613 17.3402 24.0848L15.1663 21.9095C15.1598 21.9033 15.1517 21.8991 15.1429 21.8974C15.1341 21.8957 15.125 21.8966 15.1167 21.9C15.1084 21.9034 15.1013 21.9092 15.0962 21.9165C15.0911 21.9239 15.0883 21.9326 15.088 21.9416Z" fill="#FEFFFF"/>
<path d="M24.0827 23.2837L23.7736 24.1686C23.7693 24.1815 23.761 24.1926 23.7499 24.2004C23.7389 24.2083 23.7256 24.2124 23.7121 24.2122L22.8566 24.2032C22.8463 24.2032 22.8361 24.2008 22.827 24.196C22.8179 24.1913 22.81 24.1844 22.8041 24.1759C22.7982 24.1675 22.7944 24.1578 22.793 24.1476C22.7917 24.1374 22.7928 24.127 22.7963 24.1173L24.6304 19.1204C24.6348 19.1081 24.643 19.0973 24.6538 19.0898C24.6646 19.0822 24.6775 19.0781 24.6906 19.0781L25.4961 19.0807C25.5093 19.0807 25.5221 19.0848 25.5329 19.0923C25.5437 19.0999 25.5519 19.1106 25.5564 19.123L27.393 24.1276C27.3965 24.1373 27.3976 24.1476 27.3963 24.1578C27.3949 24.1681 27.3911 24.1778 27.3852 24.1862C27.3793 24.1946 27.3714 24.2015 27.3623 24.2063C27.3532 24.211 27.343 24.2135 27.3327 24.2135L26.4683 24.2045C26.4553 24.2043 26.4427 24.2001 26.4322 24.1925C26.4217 24.185 26.4137 24.1744 26.4093 24.1622L26.1092 23.2849C26.1048 23.2721 26.0965 23.261 26.0855 23.2531C26.0744 23.2453 26.0612 23.2412 26.0476 23.2413L24.1443 23.24C24.1307 23.2399 24.1175 23.244 24.1064 23.2518C24.0953 23.2597 24.087 23.2708 24.0827 23.2837Z" fill="#FEFFFF"/>
<path d="M28.9721 22.4706V24.1469C28.9721 24.1905 28.9507 24.2123 28.908 24.2123L28.0397 24.2072C28.0188 24.2069 27.9989 24.1983 27.9843 24.1835C27.9696 24.1686 27.9614 24.1486 27.9614 24.1277V19.1616C27.9614 19.1405 27.9697 19.1203 27.9843 19.1054C27.999 19.0905 28.0189 19.0821 28.0397 19.0821C28.7647 19.0735 29.4479 19.0761 30.0892 19.0898C31.382 19.118 32.1708 20.4749 31.5064 21.5856C30.9665 22.4911 30.0058 22.4386 29.0747 22.3744C29.0063 22.3701 28.9721 22.4022 28.9721 22.4706Z" fill="#FEFFFF"/>
<path d="M6.63079 21.2856L7.26822 19.5196C7.27154 19.5096 7.27791 19.5009 7.28643 19.4948C7.29495 19.4887 7.30518 19.4854 7.31568 19.4854C7.32618 19.4854 7.33641 19.4887 7.34493 19.4948C7.35345 19.5009 7.35982 19.5096 7.36313 19.5196L8.00057 21.2856C8.00325 21.2932 8.00406 21.3013 8.00295 21.3093C8.00183 21.3172 7.99882 21.3248 7.99417 21.3313C7.98951 21.3379 7.98335 21.3432 7.97621 21.3468C7.96906 21.3505 7.96114 21.3524 7.95311 21.3523H6.67825C6.67022 21.3524 6.6623 21.3505 6.65515 21.3468C6.64801 21.3432 6.64185 21.3379 6.63719 21.3313C6.63254 21.3248 6.62953 21.3172 6.62841 21.3093C6.6273 21.3013 6.62811 21.2932 6.63079 21.2856Z" fill="#0A275F"/>
<path d="M15.0869 19.6335C15.0869 19.6189 15.0927 19.6049 15.1031 19.5945C15.1134 19.5842 15.1274 19.5784 15.1421 19.5784L16.6196 19.5732C16.7363 19.5729 16.852 19.5946 16.9599 19.637C17.0679 19.6795 17.1661 19.742 17.2489 19.8208C17.3316 19.8997 17.3974 19.9934 17.4424 20.0966C17.4873 20.1998 17.5106 20.3105 17.511 20.4223V20.4941C17.5116 20.72 17.4186 20.9368 17.2524 21.097C17.0862 21.2572 16.8604 21.3476 16.6247 21.3483L15.1472 21.3534C15.1326 21.3534 15.1185 21.3476 15.1082 21.3373C15.0979 21.3269 15.092 21.3129 15.092 21.2983L15.0869 19.6335Z" fill="#0A275F"/>
<path d="M28.9707 20.0391C28.9707 20.0231 28.9771 20.0078 28.9884 19.9965C28.9997 19.9852 29.015 19.9788 29.031 19.9788L30.0198 19.9775C30.1169 19.9774 30.213 19.9953 30.3027 20.0304C30.3924 20.0655 30.4739 20.1171 30.5426 20.1821C30.6113 20.2471 30.6659 20.3244 30.7032 20.4094C30.7405 20.4945 30.7597 20.5857 30.7599 20.6778V20.8061C30.7602 20.9921 30.6827 21.1707 30.5444 21.3025C30.4061 21.4343 30.2183 21.5086 30.0224 21.5089L29.0335 21.5102C29.0176 21.5102 29.0022 21.5039 28.9909 21.4925C28.9796 21.4812 28.9733 21.4659 28.9733 21.4499L28.9707 20.0391Z" fill="#0A275F"/>
<path d="M24.4199 22.3268L25.0484 20.5312C25.0517 20.5215 25.0579 20.5131 25.0661 20.5072C25.0744 20.5012 25.0844 20.498 25.0946 20.498C25.1048 20.498 25.1147 20.5012 25.123 20.5072C25.1313 20.5131 25.1375 20.5215 25.1407 20.5312L25.7692 22.3268C25.7719 22.3342 25.7727 22.3421 25.7717 22.3499C25.7707 22.3577 25.7677 22.3651 25.7632 22.3716C25.7587 22.378 25.7526 22.3832 25.7457 22.3868C25.7387 22.3904 25.7309 22.3922 25.723 22.3922H24.4661C24.4582 22.3922 24.4505 22.3904 24.4435 22.3868C24.4365 22.3832 24.4304 22.378 24.4259 22.3716C24.4214 22.3651 24.4185 22.3577 24.4174 22.3499C24.4164 22.3421 24.4172 22.3342 24.4199 22.3268Z" fill="#0A275F"/>
<circle cx="20" cy="20" r="19.5" stroke="black" stroke-opacity="0.05"/>
</svg>
