<svg width="40" height="40" viewBox="0 0 40 40" fill="none" xmlns="http://www.w3.org/2000/svg">
<circle cx="20" cy="20" r="20" fill="#F6F8FA"/>
<g clip-path="url(#clip0_9_410176)">
<path d="M16.5745 11H16.9784C17.4648 11.0097 17.7706 11.0185 17.8958 11.0262C18.2925 11.0507 18.6691 11.0859 19.0253 11.1318C19.3858 11.1781 19.7504 11.2474 20.1191 11.3397C20.308 11.3869 20.4754 11.4423 20.6216 11.506C20.7434 11.5589 20.8625 11.6264 20.9791 11.7085C21.1404 11.8224 21.2604 11.97 21.3392 12.1512C21.396 12.2821 21.4219 12.427 21.417 12.5859C21.4059 12.9465 21.2779 13.2793 21.1137 13.5945C20.9064 13.9921 20.6868 14.3959 20.455 14.806C20.3793 14.94 20.3259 15.0745 20.295 15.2094C20.2726 15.3071 20.2953 15.4404 20.3983 15.4898C20.4784 15.5281 20.5611 15.5502 20.6463 15.5561C20.9169 15.5745 21.254 15.5337 21.5375 15.4961C22.3725 15.3855 23.1942 15.2787 24.0345 15.2205C24.4047 15.1949 24.8831 15.1847 25.4697 15.1897C26.1549 15.1956 26.8286 15.2517 27.4907 15.358C27.583 15.3728 27.6819 15.3945 27.7876 15.4231C28.0247 15.4868 28.2902 15.5836 28.4286 15.7866C28.5367 15.9451 28.6002 16.1072 28.7904 16.1928C28.8939 16.2395 29.008 16.2702 29.1328 16.2848C29.2694 16.3007 29.4234 16.318 29.5949 16.3367C29.8086 16.3599 30.0197 16.4041 30.2284 16.4695C30.3367 16.5034 30.4349 16.5541 30.5229 16.6217C30.6988 16.7566 30.7646 16.9319 30.7202 17.1478C30.7009 17.2422 30.6643 17.3421 30.6104 17.4476C30.5091 17.6453 30.3866 17.8289 30.243 17.9984C30.2356 18.0072 30.2289 18.0067 30.2228 17.9969C30.2037 17.9662 30.1868 17.938 30.1525 17.9206C30.0737 17.8808 29.9915 17.8535 29.9059 17.8389C29.7002 17.8039 29.477 17.7933 29.2659 17.7994C28.8667 17.8105 28.4771 17.8458 28.097 17.9054C27.6632 17.9736 27.2734 18.0561 26.9273 18.1529C26.6653 18.2263 26.4448 18.2963 26.2659 18.3628C26.0709 18.4353 25.8786 18.5208 25.6892 18.6193C25.6744 18.627 25.6588 18.6317 25.6423 18.6334C25.609 18.6364 25.6052 18.6272 25.6307 18.6057C25.8227 18.4431 26.0266 18.3057 26.2425 18.1937C26.4463 18.0876 26.6494 17.9883 26.8601 17.9102C27.5048 17.6707 28.1641 17.5215 28.838 17.4627C29.1236 17.4379 29.4438 17.4365 29.7988 17.4585C29.8722 17.463 29.9651 17.4751 30.0777 17.4947C30.0868 17.4963 30.0942 17.4934 30.0999 17.4862C30.1476 17.4249 30.1788 17.352 30.1936 17.2677C30.2154 17.1437 30.1774 17.0393 30.0795 16.9545C30.0071 16.8918 29.9074 16.8394 29.8124 16.8099C29.5777 16.7367 29.3569 16.691 29.1499 16.6731C28.968 16.6574 28.7785 16.6166 28.6024 16.5751C28.463 16.542 28.3299 16.4925 28.203 16.4266C28.1668 16.4077 28.1338 16.3858 28.1043 16.3611C28.0645 16.3276 28.0209 16.2971 27.9916 16.2528C27.9528 16.1935 27.9119 16.1332 27.8689 16.0719C27.8444 16.0366 27.8115 16.0077 27.7702 15.9852C27.667 15.9291 27.5625 15.8888 27.4565 15.8643C27.2792 15.8231 27.1085 15.7923 26.9442 15.7718C26.5882 15.7277 26.1671 15.704 25.7831 15.701C25.2046 15.6968 24.6001 15.7144 23.9695 15.7539C23.0542 15.8112 22.1719 15.897 21.3228 16.0114C21.0268 16.0514 20.7309 16.093 20.4351 16.1364C20.2723 16.1603 20.0362 16.1762 19.8987 16.0764C19.8516 16.0423 19.8191 15.9946 19.8012 15.9333C19.7753 15.8454 19.7734 15.7546 19.7954 15.6609C19.8516 15.4226 19.9381 15.1966 20.0549 14.9831C20.1728 14.7674 20.2925 14.5519 20.4139 14.3366C20.4627 14.2501 20.5056 14.1643 20.5427 14.0793C20.6316 13.875 20.7166 13.6751 20.7758 13.4587C20.8337 13.2459 20.8475 13.0425 20.8171 12.8487C20.771 12.5567 20.6072 12.3516 20.357 12.1921C20.1973 12.0901 20.0251 12.0132 19.8405 11.9613C19.6885 11.9187 19.5346 11.8751 19.3786 11.8441C19.0809 11.7853 18.7909 11.7433 18.5086 11.7181C17.582 11.6351 16.7223 11.6024 15.9294 11.6198C15.0699 11.6388 14.2219 11.6943 13.3855 11.7864C11.6092 11.9817 9.84992 12.276 8.09571 12.636C7.5245 12.7534 6.9427 12.8721 6.36872 13.0054C5.6533 13.1719 4.93283 13.3432 4.20733 13.5194C4.14199 13.5352 4.0832 13.5428 4.03095 13.5421C3.99853 13.5418 3.99526 13.5318 4.02113 13.5121C4.03641 13.5004 4.05304 13.4908 4.07102 13.4834C4.18188 13.4375 4.29376 13.3907 4.40714 13.3557C5.65111 12.9719 6.91574 12.5997 8.15215 12.2918C8.94283 12.095 9.68446 11.9251 10.377 11.7821C10.8002 11.6948 11.2025 11.6164 11.584 11.547C12.6444 11.3544 13.6964 11.2075 14.7399 11.1066C15.1739 11.0646 15.6191 11.0359 16.0753 11.0207C16.2418 11.0151 16.4082 11.0082 16.5745 11Z" fill="#E31B23"/>
<path d="M26.6566 18.8889C26.6566 18.9759 26.622 19.0594 26.5605 19.121C26.4989 19.1826 26.4154 19.2172 26.3283 19.2172C26.2412 19.2172 26.1577 19.1826 26.0962 19.121C26.0346 19.0594 26 18.9759 26 18.8889C26 18.8018 26.0346 18.7183 26.0962 18.6567C26.1577 18.5951 26.2412 18.5605 26.3283 18.5605C26.4154 18.5605 26.4989 18.5951 26.5605 18.6567C26.622 18.7183 26.6566 18.8018 26.6566 18.8889ZM26.3382 19.1643C26.4096 19.1617 26.477 19.1302 26.5255 19.0767C26.5741 19.0232 26.5999 18.9521 26.5972 18.879C26.5959 18.8428 26.5876 18.8073 26.5729 18.7743C26.5581 18.7414 26.5372 18.7118 26.5113 18.6871C26.4853 18.6624 26.4549 18.6432 26.4217 18.6306C26.3886 18.6179 26.3533 18.6121 26.318 18.6134C26.2466 18.616 26.1792 18.6475 26.1306 18.7011C26.082 18.7546 26.0562 18.8257 26.0589 18.8987C26.0602 18.9349 26.0685 18.9705 26.0832 19.0034C26.098 19.0363 26.1189 19.066 26.1449 19.0906C26.1708 19.1153 26.2012 19.1345 26.2344 19.1471C26.2676 19.1598 26.3028 19.1656 26.3382 19.1643Z" fill="#E31B23"/>
<path d="M4 21.6701V21.5915C4.17083 21.5516 4.30287 21.4667 4.39609 21.3365C4.46715 21.2374 4.53611 21.1072 4.60296 20.9459C4.91876 20.1838 5.23465 19.4217 5.55061 18.6596C5.55397 18.6515 5.56002 18.6475 5.56876 18.6475H5.89531C5.90096 18.6474 5.90649 18.6491 5.9112 18.6522C5.9159 18.6553 5.91958 18.6597 5.92176 18.6648C6.23924 19.4197 6.5563 20.1721 6.87295 20.922C6.92157 21.0371 6.98154 21.1553 7.04 21.2652C7.10022 21.3785 7.21058 21.504 7.33758 21.5464C7.34502 21.5489 7.35296 21.5496 7.36079 21.5485C7.36861 21.5474 7.3761 21.5445 7.38268 21.5401C7.51798 21.4481 7.56409 21.2432 7.5903 21.0842C7.67446 20.5776 7.75383 20.1035 7.82841 19.6619C7.82975 19.6535 7.82707 19.6466 7.82035 19.6412C7.70713 19.552 7.59181 19.5051 7.47439 19.5004C7.46667 19.5 7.46448 19.4963 7.46784 19.4893C7.47423 19.4758 7.47431 19.4624 7.46809 19.449C7.46373 19.4396 7.46675 19.4349 7.47717 19.4349H8.352C8.36074 19.4349 8.36687 19.4389 8.37039 19.447L9.00989 20.9003C9.01024 20.9011 9.01082 20.9018 9.01156 20.9023C9.0123 20.9028 9.01316 20.903 9.01405 20.903C9.01493 20.903 9.01579 20.9028 9.01653 20.9023C9.01727 20.9018 9.01785 20.9011 9.01821 20.9003L9.6708 19.4467C9.67433 19.4388 9.68046 19.4349 9.6892 19.4349H10.5071C10.5115 19.4349 10.5136 19.437 10.5136 19.4414L10.5139 19.4966C10.5139 19.5003 10.512 19.5022 10.5083 19.5024C10.462 19.5059 10.4165 19.5183 10.372 19.5394C10.2324 19.6054 10.2133 19.7211 10.2355 19.8564C10.3141 20.3412 10.3902 20.8119 10.4637 21.2684C10.495 21.4637 10.6341 21.5804 10.8349 21.6041C10.836 21.6042 10.837 21.6045 10.8379 21.6051C10.8388 21.6056 10.8396 21.6063 10.8403 21.6072C10.8409 21.6081 10.8414 21.6091 10.8416 21.6101C10.8419 21.6112 10.8419 21.6123 10.8417 21.6134C10.8385 21.6312 10.8398 21.6482 10.8455 21.6645C10.847 21.6691 10.8454 21.6713 10.8407 21.6713L9.62469 21.6708C9.61109 21.6708 9.60655 21.6644 9.61109 21.6517C9.61411 21.6431 9.61445 21.634 9.61209 21.6245C9.60941 21.6132 9.61369 21.6063 9.62495 21.6038C9.83794 21.5559 9.92714 21.4168 9.89254 21.1865C9.82652 20.7481 9.75672 20.3026 9.68315 19.8501C9.67962 19.8288 9.67358 19.828 9.66501 19.8478L8.87131 21.6522C8.86839 21.6588 8.86343 21.6642 8.85717 21.6678C8.85091 21.6713 8.84367 21.6727 8.83654 21.6718C8.82058 21.6698 8.80496 21.6703 8.78967 21.6734C8.7811 21.675 8.77514 21.6719 8.77178 21.664L7.97531 19.839C7.97501 19.8382 7.97444 19.8375 7.9737 19.8371C7.97297 19.8367 7.9721 19.8365 7.97125 19.8366C7.9704 19.8367 7.96961 19.8371 7.96902 19.8377C7.96843 19.8384 7.96807 19.8392 7.968 19.84C7.89963 20.2665 7.83101 20.6857 7.76214 21.0976C7.72183 21.3397 7.72334 21.5912 8.0325 21.6041C8.03436 21.6041 8.03618 21.6046 8.03784 21.6054C8.03949 21.6063 8.04094 21.6075 8.04209 21.6089C8.04324 21.6103 8.04406 21.612 8.0445 21.6138C8.04493 21.6155 8.04496 21.6174 8.0446 21.6192C8.04158 21.6341 8.04309 21.6494 8.04913 21.665C8.05132 21.6706 8.04939 21.6734 8.04334 21.6734L6.00315 21.6713C5.99878 21.6713 5.99727 21.6692 5.99861 21.665C6.005 21.6442 6.00559 21.6223 6.00038 21.5993C6.00005 21.5979 6 21.5965 6.00025 21.5951C6.00049 21.5937 6.00102 21.5923 6.0018 21.5912C6.00258 21.59 6.00359 21.589 6.00478 21.5882C6.00597 21.5874 6.0073 21.5869 6.00869 21.5867C6.1828 21.5549 6.44611 21.5116 6.35691 21.2563C6.32332 21.1603 6.24706 20.973 6.12813 20.6947C6.1246 20.6863 6.1183 20.6821 6.10923 20.6821H4.97613C4.9637 20.6821 4.95513 20.6878 4.95043 20.6992C4.89886 20.8244 4.84645 20.9494 4.7932 21.0742C4.73398 21.2133 4.68006 21.3914 4.83049 21.4932C4.8913 21.5345 4.96235 21.564 5.04365 21.5816C5.04778 21.5825 5.05148 21.5848 5.05413 21.5881C5.05679 21.5914 5.05825 21.5955 5.05827 21.5998V21.6539C5.05827 21.6647 5.05289 21.6701 5.04214 21.6701H4ZM5.06255 20.4563C5.06205 20.4576 5.06187 20.4589 5.06201 20.4602C5.06215 20.4615 5.06262 20.4628 5.06336 20.4639C5.06411 20.465 5.06512 20.4659 5.0663 20.4665C5.06747 20.4671 5.06878 20.4674 5.07011 20.4674L6.02129 20.4677C6.02262 20.4677 6.02393 20.4674 6.02511 20.4668C6.02628 20.4662 6.02729 20.4653 6.02804 20.4642C6.02879 20.4631 6.02925 20.4618 6.02939 20.4605C6.02953 20.4592 6.02935 20.4578 6.02885 20.4566L5.5418 19.2885C5.54118 19.287 5.54015 19.2858 5.53882 19.2849C5.5375 19.284 5.53595 19.2835 5.53436 19.2835C5.53277 19.2835 5.53122 19.284 5.5299 19.2849C5.52858 19.2858 5.52754 19.287 5.52693 19.2885L5.06255 20.4563Z" fill="#002664"/>
<path d="M26.3832 18.9346L26.4797 19.077C26.4832 19.0823 26.4818 19.0848 26.4754 19.0845L26.4379 19.0825C26.4338 19.0823 26.4299 19.0811 26.4264 19.0791C26.4229 19.0771 26.4199 19.0743 26.4177 19.0709L26.324 18.9283C26.3189 18.9206 26.3118 18.9169 26.3026 18.9172L26.2655 18.9182C26.2576 18.9185 26.2537 18.9227 26.2537 18.9306L26.2557 19.0694C26.2559 19.0783 26.2515 19.0827 26.2426 19.0827H26.2086C26.2017 19.0827 26.1982 19.0793 26.1982 19.0724V18.7118C26.1982 18.7026 26.2029 18.6979 26.2124 18.6977C26.2771 18.6975 26.4353 18.6773 26.4651 18.7577C26.492 18.83 26.4696 18.8913 26.3918 18.9117C26.3781 18.9154 26.3753 18.923 26.3832 18.9346ZM26.2552 18.757V18.8618C26.2552 18.8635 26.2559 18.8652 26.2571 18.8664C26.2583 18.8676 26.26 18.8683 26.2617 18.8683L26.3487 18.8686C26.3669 18.8686 26.3843 18.8628 26.3972 18.8525C26.4101 18.8422 26.4174 18.8282 26.4175 18.8136V18.8061C26.4175 18.7988 26.4157 18.7916 26.4123 18.7849C26.4089 18.7782 26.4038 18.7721 26.3974 18.7669C26.391 18.7618 26.3834 18.7577 26.3751 18.7549C26.3667 18.7521 26.3577 18.7507 26.3487 18.7507L26.2617 18.7504C26.26 18.7504 26.2583 18.7511 26.2571 18.7523C26.2559 18.7535 26.2552 18.7552 26.2552 18.757Z" fill="#E31B23"/>
<path d="M24.0258 20.917C24.0248 20.6181 24.0247 20.3189 24.0256 20.0194C24.0257 19.9276 24.0209 19.8416 24.0112 19.7614C23.9898 19.5881 23.8706 19.5286 23.7159 19.5032C23.7122 19.5025 23.7104 19.5003 23.7104 19.4966L23.7099 19.4409C23.7099 19.4367 23.712 19.4346 23.7164 19.4346H24.5479C24.5496 19.4346 24.5513 19.4353 24.5525 19.4365C24.5538 19.4376 24.5545 19.4393 24.5545 19.4409L24.5542 19.4913C24.5542 19.4938 24.5532 19.4962 24.5515 19.498C24.5497 19.4998 24.5474 19.5008 24.5449 19.5009C24.3292 19.5072 24.1916 19.6228 24.1906 19.8526C24.1879 20.4337 24.1877 21.0355 24.1899 21.6582C24.19 21.6666 24.1859 21.6708 24.1775 21.6708H24.0961C24.087 21.6708 24.0793 21.6677 24.0729 21.6613L22.3341 19.8922C22.3274 19.8853 22.324 19.8867 22.324 19.8962C22.3242 20.3741 22.3243 20.8425 22.3243 21.3015C22.3243 21.5325 22.4954 21.5811 22.6821 21.6046C22.6871 21.6052 22.6896 21.6082 22.6896 21.6134L22.6899 21.6648C22.6899 21.6666 22.6892 21.6683 22.6879 21.6696C22.6866 21.6709 22.6849 21.6716 22.6831 21.6716L20.7701 21.6713C20.7669 21.6713 20.7655 21.6698 20.7659 21.6666L20.7696 21.6086C20.77 21.6049 20.772 21.6029 20.7757 21.6026C20.8588 21.5962 20.9304 21.5748 20.9904 21.5386C21.0561 21.4987 21.0539 21.4133 21.0307 21.3481C20.982 21.2108 20.9257 21.0733 20.8619 20.9356C20.8598 20.9313 20.8566 20.9277 20.8525 20.9251C20.8484 20.9226 20.8437 20.9212 20.8389 20.9212H19.9933C19.9829 20.9212 19.9756 20.9259 19.9714 20.9351C19.8802 21.131 19.8257 21.2713 19.8079 21.3561C19.7759 21.5086 19.9137 21.5837 20.0402 21.6028C20.0471 21.6038 20.0505 21.6078 20.0505 21.6147L20.05 21.6582C20.05 21.6665 20.0459 21.6706 20.0377 21.6706L19.2566 21.6711C19.252 21.6711 19.2498 21.6689 19.25 21.6645L19.2508 21.6094C19.2509 21.6055 19.2529 21.6034 19.2568 21.6031C19.3868 21.5935 19.5128 21.4824 19.5738 21.3773C19.6329 21.2753 19.6836 21.1736 19.7257 21.0722C19.9559 20.5172 20.1874 19.9584 20.4204 19.3958C20.4226 19.3905 20.4264 19.386 20.4312 19.3828C20.436 19.3796 20.4416 19.3779 20.4474 19.3779H20.757C20.7659 19.3779 20.7721 19.382 20.7754 19.39C21.0303 20.0057 21.2807 20.5972 21.5268 21.1646C21.5555 21.231 21.5865 21.295 21.6198 21.3566C21.6825 21.4736 21.8246 21.6391 21.9793 21.5698C22.1587 21.4894 22.155 21.3163 22.1547 21.1498C22.154 20.63 22.1539 20.1578 22.1545 19.733C22.1545 19.7254 22.1517 19.719 22.1461 19.7138C22.0605 19.6329 21.9544 19.5168 21.836 19.5037C21.8299 19.503 21.8268 19.4995 21.8266 19.4933L21.8261 19.4412C21.8261 19.4366 21.8283 19.4344 21.8327 19.4344L22.5571 19.4346C22.5657 19.4346 22.573 19.4377 22.579 19.4439L24.014 20.9217C24.022 20.93 24.026 20.9284 24.0258 20.917ZM20.4055 19.8645L20.0563 20.7423C20.0521 20.7526 20.0556 20.7577 20.0669 20.7577H20.7747C20.7839 20.7577 20.7868 20.7534 20.7832 20.7449L20.4166 19.8642C20.4129 19.8552 20.4092 19.8552 20.4055 19.8645Z" fill="#002664"/>
<path d="M18.9846 19.7636C18.8014 19.5565 18.5172 19.4731 18.2473 19.5177C17.9495 19.5668 17.7401 19.8011 17.6673 20.0874C17.6176 20.2831 17.6069 20.4904 17.6353 20.7095C17.6595 20.8969 17.7371 21.1194 17.8731 21.2595C17.9916 21.3813 18.1398 21.4591 18.3179 21.4929C18.584 21.5432 18.8339 21.496 19.0677 21.351C19.1559 21.2963 19.23 21.2202 19.3126 21.155C19.313 21.1547 19.3133 21.1546 19.3137 21.1545C19.3141 21.1545 19.3145 21.1546 19.3149 21.1548C19.3152 21.1549 19.3155 21.1552 19.3157 21.1556C19.3159 21.1559 19.316 21.1563 19.3159 21.1567L19.3124 21.2691C19.3121 21.2746 19.31 21.2795 19.3063 21.2837C19.2365 21.3585 19.1722 21.4207 19.1136 21.4704C18.8639 21.6826 18.5426 21.737 18.2186 21.7262C17.7497 21.7106 17.2599 21.4619 17.0956 21.0003C16.979 20.6729 17 20.3541 17.1586 20.044C17.2368 19.8908 17.3497 19.7592 17.4972 19.6492C17.6706 19.5199 17.8706 19.4358 18.0974 19.397C18.3507 19.3535 18.6272 19.3809 18.9269 19.4791C19.0246 19.5111 19.1378 19.5406 19.199 19.4265C19.2138 19.3991 19.2393 19.3881 19.2756 19.3935C19.2838 19.3948 19.288 19.3996 19.288 19.4078L19.2882 20.2061C19.2882 20.2178 19.2826 20.2218 19.2713 20.2181C19.2617 20.215 19.2518 20.2143 19.2416 20.2161C19.2307 20.218 19.2229 20.2139 19.2182 20.2038C19.1897 20.1423 19.1801 20.0758 19.1504 20.0133C19.1084 19.9244 19.0531 19.8412 18.9846 19.7636Z" fill="#002664"/>
<path d="M11.7932 20.6234C11.7907 20.8413 11.795 21.0595 11.7927 21.2777C11.792 21.3434 11.8055 21.3982 11.833 21.442C11.867 21.4962 11.9484 21.5304 12.0134 21.5362C12.1644 21.5501 12.3846 21.5677 12.5169 21.4921C12.6519 21.415 12.7432 21.2991 12.7908 21.1444C12.794 21.134 12.801 21.1289 12.8119 21.1291H12.8593C12.8613 21.1291 12.8633 21.1295 12.8651 21.1303C12.8669 21.1312 12.8685 21.1323 12.8699 21.1338C12.8712 21.1353 12.8722 21.137 12.8728 21.1389C12.8734 21.1408 12.8736 21.1427 12.8734 21.1447L12.826 21.6582C12.8252 21.6666 12.8206 21.6708 12.8122 21.6708H10.9413C10.9327 21.6708 10.9285 21.6665 10.9287 21.6579L10.9297 21.6098C10.9297 21.6061 10.9316 21.6039 10.9353 21.6033C10.9806 21.5959 11.0271 21.5848 11.0746 21.57C11.2412 21.5189 11.2429 21.3886 11.2434 21.2447C11.2449 20.752 11.2448 20.2766 11.2429 19.8183C11.2428 19.7693 11.2374 19.7185 11.2268 19.6659C11.2046 19.5563 11.0419 19.523 10.9474 19.5046C10.9422 19.5036 10.9375 19.5007 10.9342 19.4966C10.9308 19.4925 10.929 19.4873 10.929 19.4819V19.4472C10.929 19.4388 10.9332 19.4346 10.9416 19.4346H12.7809C12.7893 19.4346 12.7935 19.4388 12.7935 19.4472V19.9143C12.7935 19.9294 12.7861 19.9357 12.7711 19.933C12.7612 19.9313 12.7513 19.9314 12.7414 19.9332C12.7288 19.9357 12.7211 19.9308 12.7182 19.9184C12.6832 19.7692 12.6154 19.6205 12.4546 19.583C12.3782 19.5652 12.2891 19.5573 12.1873 19.5593C12.0561 19.562 11.9292 19.562 11.8066 19.5593C11.7968 19.5591 11.792 19.5638 11.792 19.5734V20.4802C11.792 20.4856 11.7946 20.4882 11.8 20.4881C11.9188 20.4855 12.034 20.4854 12.1457 20.4875C12.2906 20.4903 12.4549 20.4863 12.5257 20.3384C12.5427 20.3029 12.5566 20.2646 12.5675 20.2232C12.5709 20.2106 12.579 20.2057 12.592 20.2084C12.6094 20.2121 12.6259 20.2111 12.6413 20.2056C12.6506 20.2024 12.6552 20.2057 12.6552 20.2154L12.655 20.8899C12.6548 20.8985 12.6505 20.9027 12.6421 20.9025L12.5809 20.9015C12.5752 20.9015 12.5719 20.8987 12.571 20.893C12.5396 20.6753 12.4012 20.6105 12.2019 20.6123C12.0581 20.6136 11.9266 20.6127 11.8073 20.6095C11.7979 20.6093 11.7932 20.614 11.7932 20.6234Z" fill="#002664"/>
<path d="M13.9808 20.621C13.985 20.8409 13.9857 21.0543 13.9828 21.2612C13.9822 21.3066 13.9876 21.3565 13.9992 21.4109C14.0257 21.5351 14.1748 21.5971 14.288 21.6009C14.2997 21.6014 14.3056 21.6075 14.3056 21.6193L14.3051 21.6586C14.3051 21.6668 14.3009 21.6709 14.2925 21.6709H13.1337C13.1253 21.6709 13.1211 21.6667 13.1211 21.6583V21.615C13.1211 21.6068 13.1252 21.6025 13.1334 21.6021C13.3018 21.5958 13.4338 21.515 13.4348 21.3262C13.4377 20.6881 13.4375 20.1865 13.4343 19.8215C13.4323 19.5806 13.3516 19.5478 13.1365 19.504C13.1262 19.502 13.1211 19.4957 13.1211 19.4851V19.4478C13.1211 19.4394 13.1254 19.4352 13.1339 19.4352C13.444 19.4342 13.8291 19.4344 14.2892 19.4357C14.5699 19.4365 14.9237 19.4685 15.131 19.6733C15.3694 19.9092 15.2817 20.2743 15.0008 20.4307C14.9319 20.469 14.8605 20.4997 14.7866 20.5227C14.758 20.5314 14.7579 20.5408 14.7861 20.5507C14.9227 20.5981 15.0315 20.7434 15.1053 20.8667C15.1999 21.0246 15.2935 21.177 15.386 21.324C15.4324 21.3981 15.4852 21.4635 15.5445 21.5203C15.6655 21.6364 15.8265 21.6044 15.9552 21.5185C16.0384 21.4628 16.0356 21.3482 16.0361 21.2617C16.0381 20.7746 16.0386 20.2959 16.0374 19.8258C16.0372 19.776 16.032 19.7282 16.0218 19.6821C15.9971 19.5715 15.826 19.5164 15.7285 19.5032C15.727 19.5031 15.7256 19.5024 15.7246 19.5012C15.7236 19.5001 15.723 19.4986 15.7229 19.497L15.7224 19.4413C15.7224 19.4369 15.7245 19.4347 15.7287 19.4347H16.8787C16.8891 19.4347 16.8943 19.44 16.8943 19.4506V19.4861C16.8943 19.4962 16.8893 19.5022 16.8792 19.504C16.7721 19.5224 16.6522 19.562 16.6063 19.6693C16.5857 19.7172 16.5879 19.7885 16.5877 19.8437C16.5843 20.2493 16.5842 20.7298 16.5874 21.2852C16.5879 21.3759 16.5904 21.4837 16.6794 21.5344C16.735 21.5659 16.8035 21.5885 16.885 21.6021C16.8912 21.6032 16.8943 21.6068 16.8943 21.613L16.8946 21.6646C16.8946 21.6688 16.8924 21.6709 16.888 21.6709L15.056 21.6712C15.0469 21.6712 15.0397 21.6677 15.0343 21.6606C14.9562 21.5581 14.8748 21.4615 14.808 21.3499C14.7328 21.2241 14.6599 21.0969 14.5896 20.9682C14.5392 20.8765 14.4714 20.7964 14.4044 20.7155C14.3172 20.6096 14.1317 20.5983 13.9939 20.6069C13.985 20.6074 13.9806 20.6121 13.9808 20.621ZM13.9848 19.5662L13.9833 20.4733C13.9833 20.4747 13.9839 20.4759 13.9848 20.4769C13.9858 20.4778 13.987 20.4784 13.9884 20.4784L14.23 20.4786C14.2878 20.4787 14.3451 20.4684 14.3985 20.4482C14.452 20.4279 14.5006 20.3983 14.5415 20.3608C14.5825 20.3233 14.615 20.2788 14.6372 20.2298C14.6594 20.1808 14.6709 20.1283 14.671 20.0752V19.9664C14.6711 19.8592 14.6249 19.7563 14.5425 19.6804C14.4601 19.6045 14.3483 19.5617 14.2315 19.5615L13.9899 19.5612C13.9892 19.5612 13.9886 19.5613 13.988 19.5616C13.9873 19.5618 13.9868 19.5622 13.9863 19.5627C13.9859 19.5631 13.9855 19.5637 13.9852 19.5643C13.985 19.5649 13.9848 19.5656 13.9848 19.5662Z" fill="#002664"/>
<path d="M25.8414 22.8384C25.8413 22.8382 25.8412 22.838 25.841 22.838C25.8408 22.8379 25.8406 22.8379 25.8404 22.8379C25.8402 22.838 25.84 22.8381 25.8398 22.8383C25.8396 22.8384 25.8395 22.8387 25.8394 22.8389C25.7543 23.3022 25.6687 23.766 25.5827 24.2303C25.5684 24.3067 25.5652 24.3745 25.5731 24.4336C25.5892 24.5563 25.7326 24.5906 25.8429 24.6072C25.8581 24.6094 25.8629 24.6176 25.8573 24.6319C25.8526 24.6435 25.8507 24.6553 25.8515 24.6674C25.8524 24.6768 25.848 24.6815 25.8384 24.6815H24.1386C24.1378 24.6815 24.1369 24.6814 24.1361 24.681C24.1353 24.6807 24.1346 24.6802 24.134 24.6795C24.1334 24.6789 24.1329 24.6781 24.1327 24.6773C24.1324 24.6765 24.1323 24.6756 24.1323 24.6747L24.1389 24.6138C24.1392 24.6107 24.1409 24.6091 24.1439 24.6087C24.2331 24.5969 24.3344 24.5762 24.3896 24.5024C24.4145 24.4689 24.4198 24.4094 24.4085 24.3691C24.3667 24.2188 24.3203 24.069 24.2694 23.9198C24.2664 23.9111 24.2602 23.9067 24.251 23.9067H23.4505C23.4413 23.9067 23.4346 23.9109 23.4306 23.9191C23.3333 24.1121 23.2709 24.2613 23.2434 24.3666C23.2076 24.5019 23.3316 24.581 23.4457 24.6072C23.4551 24.6094 23.4593 24.6153 23.4583 24.6248L23.4535 24.6689C23.4525 24.6773 23.4478 24.6815 23.4394 24.6815H22.711C22.6997 24.6815 22.6949 24.6759 22.6966 24.6647L22.7032 24.6223C22.7047 24.6129 22.7101 24.6071 22.7193 24.6049C22.8258 24.5797 22.9139 24.5206 22.9836 24.4276C23.0287 24.3676 23.0794 24.2991 23.1101 24.231C23.3963 23.5951 23.6806 22.9618 23.9628 22.3312C23.9663 22.3233 23.9723 22.3193 23.9809 22.3193H24.2777C24.2816 22.3194 24.2854 22.3206 24.2886 22.3229C24.2917 22.3252 24.2941 22.3285 24.2954 22.3322C24.4917 22.9556 24.6891 23.567 24.8875 24.1665C24.9019 24.21 24.918 24.2567 24.9356 24.3066C24.9636 24.386 25.0848 24.6261 25.2042 24.5699C25.2884 24.5303 25.345 24.4724 25.374 24.3963C25.4058 24.3132 25.4292 24.2227 25.4451 24.1355C25.5303 23.6675 25.6191 23.1843 25.7117 22.6857C25.7134 22.676 25.7111 22.6673 25.7049 22.6597C25.6366 22.5763 25.5668 22.4733 25.4564 22.4483C25.4445 22.4457 25.441 22.4388 25.4458 22.4277C25.4516 22.4142 25.4533 22.4009 25.4511 22.3876C25.4496 22.3797 25.453 22.3758 25.4612 22.3758L26.1506 22.3763C26.1577 22.3763 26.1632 22.3791 26.1672 22.3848L27.2406 23.9055C27.2477 23.9154 27.2523 23.9144 27.2545 23.9025C27.3131 23.5779 27.3789 23.2161 27.452 22.817C27.469 22.7241 27.4665 22.6492 27.4447 22.5922C27.4125 22.5086 27.3405 22.4611 27.2288 22.4499C27.2217 22.4492 27.2199 22.4457 27.2232 22.4395C27.2323 22.4226 27.2369 22.4049 27.2371 22.3866C27.2371 22.3796 27.2406 22.376 27.2477 22.376L28.0258 22.3758C28.0303 22.3758 28.0322 22.378 28.0315 22.3826L28.0235 22.4415C28.0228 22.4462 28.0202 22.4486 28.0157 22.4486C27.7443 22.4526 27.6463 22.6282 27.6029 22.8608C27.4891 23.4709 27.3747 24.0819 27.2598 24.6939C27.2583 24.7025 27.2531 24.7067 27.2444 24.7067H27.1943C27.1855 24.7067 27.1785 24.7031 27.1733 24.6959L25.8414 22.8384ZM23.9076 22.8296L23.5198 23.7281C23.5169 23.7348 23.5192 23.7382 23.5266 23.7382H24.2014C24.2104 23.7382 24.2135 23.7339 24.2107 23.7253C24.1185 23.4456 24.0268 23.1548 23.9355 22.8528C23.9308 22.837 23.9271 22.8214 23.9245 22.8061C23.9223 22.7939 23.9187 22.7935 23.9139 22.8049C23.9127 22.8081 23.9119 22.8113 23.9114 22.8145C23.9109 22.8198 23.9096 22.8249 23.9076 22.8296Z" fill="#002664"/>
<path d="M30.1354 22.4083C30.1532 22.3879 30.1714 22.3685 30.1901 22.3501C30.2067 22.3334 30.2226 22.338 30.244 22.3385C30.2563 22.3386 30.2612 22.3447 30.2589 22.3566L30.1074 23.1695C30.1054 23.18 30.0991 23.1843 30.0885 23.1823C30.0771 23.1803 30.0659 23.1815 30.0548 23.1858C30.0435 23.1902 30.0378 23.1863 30.0376 23.1742C30.0358 23.0795 30.0189 22.9819 29.987 22.8815C29.9101 22.6391 29.7093 22.4748 29.4589 22.4519C29.2049 22.4284 28.9753 22.5302 28.8121 22.7159C28.6923 22.8518 28.6022 23.0127 28.5417 23.1987C28.4614 23.4456 28.432 23.6853 28.4535 23.9178C28.4777 24.1786 28.6239 24.4031 28.8819 24.4754C29.028 24.5164 29.174 24.5233 29.3198 24.4961C29.4652 24.4689 29.631 24.3925 29.7451 24.3081C29.8089 24.2609 29.8718 24.2092 29.9336 24.1531C29.943 24.1447 29.9468 24.1468 29.9449 24.1592L29.9306 24.258C29.9292 24.2672 29.9252 24.275 29.9185 24.2814C29.8262 24.3699 29.7601 24.4296 29.7202 24.4605C29.4075 24.7029 29.0343 24.7765 28.649 24.7196C28.4543 24.6906 28.233 24.5885 28.0947 24.4336C27.748 24.0453 27.8412 23.4421 28.1033 23.0397C28.1615 22.9505 28.2247 22.8575 28.3021 22.7824C28.3716 22.7149 28.4346 22.6606 28.4911 22.6194C28.8208 22.3792 29.1904 22.2846 29.6 22.3357C29.7204 22.3508 29.8673 22.4166 29.9993 22.4513C30.0417 22.4624 30.1069 22.4408 30.1354 22.4083Z" fill="#002664"/>
<path d="M35.9998 24.0851C35.9998 24.0866 35.9998 24.0882 35.9998 24.0899L35.8211 24.6692C35.8186 24.6774 35.8131 24.6815 35.8045 24.6815H33.021C33.0173 24.6815 33.0156 24.6797 33.0157 24.676L33.0188 24.6191C33.0189 24.6147 33.0212 24.6122 33.0256 24.6115C33.1195 24.5966 33.2624 24.5656 33.2906 24.4633C33.3 24.4292 33.2978 24.3887 33.2838 24.3416C33.2363 24.1826 33.1918 24.0416 33.1503 23.9188C33.1474 23.9108 33.1418 23.9067 33.1334 23.9067H32.3276C32.3189 23.9067 32.3127 23.9107 32.3092 23.9186C32.2607 24.0247 32.2141 24.1279 32.1696 24.228C32.1473 24.2784 32.1314 24.3309 32.122 24.3855C32.0998 24.513 32.219 24.5825 32.3276 24.6075C32.337 24.6095 32.3412 24.6153 32.3402 24.6248L32.3359 24.6669C32.3349 24.6767 32.3295 24.6815 32.3198 24.6815H31.5956C31.5807 24.6815 31.5753 24.6744 31.5795 24.6601C31.5827 24.6494 31.5836 24.6385 31.5823 24.6274C31.5809 24.617 31.5853 24.6104 31.5954 24.6077C31.7167 24.5755 31.8106 24.5103 31.8773 24.4122C31.9212 24.3474 31.9675 24.2854 31.9995 24.2139C32.2779 23.5939 32.5595 22.9665 32.8444 22.3317C32.846 22.328 32.8487 22.3249 32.8521 22.3227C32.8555 22.3205 32.8595 22.3193 32.8635 22.3193H33.1588C33.1679 22.3193 33.1738 22.3235 33.1765 22.3319C33.3933 23.0166 33.5921 23.6325 33.7726 24.1796C33.8165 24.3122 33.9034 24.5835 34.0831 24.5888C34.1286 24.5902 34.181 24.5752 34.2403 24.544C34.3489 24.4865 34.3811 24.3731 34.4026 24.258C34.4963 23.7537 34.5879 23.253 34.6775 22.756C34.7148 22.5481 34.647 22.4952 34.4603 22.4519C34.4463 22.4487 34.4414 22.4403 34.4456 22.4267C34.4493 22.4144 34.4507 22.402 34.4497 22.3894C34.4495 22.3877 34.4498 22.386 34.4503 22.3843C34.4509 22.3827 34.4518 22.3812 34.4529 22.38C34.4541 22.3787 34.4555 22.3777 34.4571 22.3771C34.4586 22.3764 34.4603 22.376 34.462 22.376L35.5583 22.3758C35.5641 22.3758 35.5659 22.3785 35.5639 22.3838C35.5562 22.403 35.5542 22.4218 35.5581 22.4403C35.5591 22.4458 35.5568 22.4491 35.5513 22.4501C35.4618 22.4647 35.383 22.4927 35.3149 22.534C35.279 22.5559 35.2528 22.588 35.2363 22.6305C35.2197 22.6734 35.2073 22.7163 35.1993 22.7593C35.1 23.2782 35.0017 23.8056 34.9042 24.3416C34.8856 24.4439 34.942 24.5213 35.0436 24.5344C35.2149 24.5568 35.4341 24.5636 35.5747 24.4699C35.6551 24.4165 35.7244 24.358 35.7828 24.2794C35.8312 24.2144 35.8777 24.1531 35.9222 24.0955C35.9269 24.0894 35.9329 24.0856 35.9403 24.0839C35.961 24.0797 35.9808 24.0801 35.9998 24.0851ZM32.4024 23.7261C32.4019 23.7274 32.4016 23.7289 32.4017 23.7303C32.4019 23.7318 32.4023 23.7332 32.4031 23.7344C32.4039 23.7357 32.405 23.7367 32.4063 23.7374C32.4076 23.7381 32.409 23.7384 32.4105 23.7384L33.0833 23.7389C33.0847 23.739 33.0861 23.7386 33.0873 23.738C33.0886 23.7374 33.0897 23.7365 33.0905 23.7354C33.0914 23.7342 33.0919 23.7329 33.0922 23.7315C33.0924 23.7301 33.0923 23.7287 33.0918 23.7273L32.8061 22.8273C32.8055 22.8256 32.8045 22.8241 32.8031 22.8231C32.8017 22.822 32.8 22.8213 32.7982 22.8212C32.7965 22.8211 32.7947 22.8215 32.7932 22.8224C32.7917 22.8234 32.7905 22.8247 32.7897 22.8263L32.4024 23.7261Z" fill="#002664"/>
<path d="M17.3688 23.9525C17.3682 23.9692 17.3664 23.9853 17.3635 24.0009C17.3041 24.3213 17.2474 24.6355 17.1935 24.9435C17.1549 25.164 17.3013 25.2638 17.4946 25.2885C17.4957 25.2886 17.4969 25.289 17.4979 25.2896C17.499 25.2901 17.4999 25.2909 17.5006 25.2919C17.5013 25.2929 17.5018 25.294 17.502 25.2952C17.5023 25.2964 17.5023 25.2976 17.5021 25.2988L17.4888 25.3739C17.4879 25.3784 17.4852 25.3807 17.4805 25.3807H16.1531C16.144 25.3807 16.1403 25.3762 16.142 25.3673L16.1528 25.3064C16.1536 25.3022 16.1556 25.2983 16.1585 25.2953C16.1615 25.2922 16.1653 25.2901 16.1695 25.2892C16.2715 25.2676 16.3965 25.2373 16.4708 25.166C16.5439 25.0958 16.5901 25.0097 16.6094 24.9078C16.7354 24.2447 16.8617 23.5753 16.9884 22.8993C16.9979 22.8481 17.003 22.7953 17.0035 22.7408C17.0043 22.6456 16.9614 22.578 16.8747 22.538C16.8184 22.5118 16.7599 22.4893 16.6991 22.4705C16.6935 22.4687 16.6888 22.465 16.6858 22.4599C16.6828 22.4548 16.6818 22.4488 16.683 22.443L16.6938 22.3926C16.6962 22.3815 16.7021 22.376 16.7117 22.376H18.7685C18.7746 22.376 18.7773 22.379 18.7768 22.385L18.7348 22.9243C18.7337 22.9367 18.727 22.9429 18.7146 22.9429H18.6639C18.6512 22.9429 18.6434 22.9366 18.6405 22.924C18.5871 22.6902 18.4677 22.5508 18.2147 22.5478C18.0281 22.5458 17.8401 22.5452 17.6508 22.5461C17.6426 22.5461 17.6377 22.5501 17.6362 22.5582L17.4076 23.7618C17.406 23.771 17.4097 23.7756 17.419 23.7754C17.5666 23.7732 17.7193 23.7731 17.877 23.7752C17.9768 23.7765 18.057 23.7652 18.1177 23.7414C18.2684 23.6822 18.3588 23.5413 18.4241 23.4012C18.4284 23.392 18.4357 23.3881 18.4457 23.3894C18.4661 23.3922 18.4859 23.3915 18.5052 23.3871C18.5149 23.3849 18.519 23.3888 18.5173 23.3987L18.351 24.3103C18.3495 24.3186 18.3445 24.3227 18.3359 24.3227L18.2731 24.3224C18.2696 24.3224 18.2661 24.3209 18.2636 24.3185C18.2611 24.316 18.2596 24.3126 18.2595 24.3091C18.2572 24.2177 18.2405 24.1434 18.2094 24.0861C18.1409 23.9606 17.9332 23.9407 17.8015 23.9435C17.6637 23.9463 17.5239 23.9454 17.3819 23.9407C17.3735 23.9404 17.3692 23.9443 17.3688 23.9525Z" fill="#002664"/>
<path d="M20.9733 22.8519C20.8908 23.3062 20.8041 23.7817 20.7132 24.2786C20.6873 24.421 20.713 24.5444 20.87 24.5837C20.9066 24.593 20.9435 24.6009 20.9806 24.6077C20.995 24.6103 20.9996 24.6185 20.9942 24.6321C20.9898 24.6435 20.9881 24.655 20.9892 24.6666C20.9893 24.6685 20.9891 24.6705 20.9885 24.6723C20.9879 24.6741 20.9869 24.6758 20.9856 24.6772C20.9843 24.6787 20.9827 24.6798 20.9809 24.6806C20.9791 24.6814 20.9772 24.6817 20.9753 24.6817H20.1771C20.173 24.6817 20.1713 24.6796 20.172 24.6754L20.1846 24.6109C20.1851 24.6086 20.1865 24.6072 20.1889 24.6069C20.4666 24.5789 20.5323 24.4091 20.5757 24.1718C20.666 23.6759 20.757 23.1802 20.8486 22.6846C20.8502 22.6757 20.8482 22.6678 20.8425 22.6607C20.7727 22.5748 20.7057 22.4763 20.5951 22.4485C20.581 22.4452 20.5772 22.437 20.5837 22.4241C20.5889 22.4135 20.5905 22.4025 20.5885 22.3911C20.5867 22.381 20.5909 22.376 20.6011 22.376L21.286 22.3762C21.2916 22.3762 21.2972 22.3776 21.3023 22.3802C21.3073 22.3829 21.3117 22.3867 21.3149 22.3913L22.3846 23.9153C22.3848 23.9156 22.3851 23.9158 22.3854 23.916C22.3858 23.9161 22.3862 23.9161 22.3866 23.916C22.387 23.9159 22.3874 23.9157 22.3877 23.9154C22.388 23.9151 22.3882 23.9147 22.3883 23.9142C22.4498 23.5862 22.5112 23.249 22.5725 22.9028C22.5889 22.8096 22.6327 22.6267 22.5589 22.5445C22.5057 22.4849 22.4407 22.4536 22.3641 22.4506C22.3591 22.4504 22.3577 22.448 22.3599 22.4435C22.3688 22.4252 22.3736 22.406 22.3742 22.3858C22.3746 22.3794 22.3779 22.3762 22.3843 22.3762L23.1631 22.376C23.1692 22.376 23.1714 22.3789 23.1697 22.3848C23.1638 22.4041 23.1616 22.4228 23.1631 22.4407C23.1635 22.4461 23.161 22.4488 23.1556 22.4488C22.8832 22.4516 22.7824 22.6277 22.7398 22.8615C22.6288 23.4701 22.5164 24.0811 22.4027 24.6946C22.4012 24.7028 22.3962 24.7069 22.3878 24.7069H22.3347C22.3237 24.7069 22.3151 24.7026 22.3087 24.6938L20.9859 22.8492C20.9795 22.8401 20.9753 22.841 20.9733 22.8519Z" fill="#002664"/>
<path d="M19.8671 24.6245C19.8609 24.637 19.8583 24.6499 19.8593 24.6633C19.8603 24.6754 19.8547 24.6815 19.8424 24.6815H18.7547C18.7431 24.6815 18.7385 24.6758 18.7408 24.6644L18.7486 24.6248C18.7505 24.6161 18.7556 24.6105 18.764 24.6082C18.8993 24.5691 19.0276 24.5474 19.0749 24.4134C19.0986 24.3464 19.1188 24.27 19.1324 24.1967C19.2202 23.7212 19.3065 23.2512 19.3912 22.7869C19.3975 22.752 19.4025 22.7161 19.406 22.6791C19.4216 22.5153 19.2984 22.4833 19.1719 22.4513C19.1587 22.448 19.1541 22.4398 19.1581 22.4269C19.1621 22.4144 19.1638 22.4021 19.1631 22.3898C19.1626 22.3806 19.167 22.376 19.1762 22.376H20.2778C20.2787 22.376 20.2795 22.3762 20.2802 22.3766C20.281 22.3769 20.2816 22.3775 20.2821 22.3781C20.2826 22.3788 20.283 22.3795 20.2831 22.3803C20.2833 22.3811 20.2833 22.382 20.2831 22.3828L20.2685 22.4445C20.2677 22.448 20.2654 22.4501 20.2617 22.4508C20.172 22.4644 20.1005 22.4887 20.0473 22.5236C19.949 22.5881 19.9268 22.7 19.9067 22.8063C19.8146 23.2958 19.7231 23.7841 19.632 24.2713C19.626 24.3037 19.6215 24.3376 19.6184 24.3728C19.6038 24.5381 19.7298 24.5779 19.8583 24.6064C19.8602 24.6068 19.862 24.6077 19.8635 24.6089C19.865 24.6101 19.8663 24.6116 19.8671 24.6133C19.868 24.6151 19.8684 24.617 19.8684 24.6189C19.8684 24.6209 19.868 24.6228 19.8671 24.6245Z" fill="#002664"/>
<path d="M30.5173 24.4504C30.5439 24.4014 30.5625 24.3474 30.5733 24.2884C30.6693 23.7658 30.7611 23.2674 30.8487 22.793C30.8564 22.7513 30.8616 22.7099 30.8643 22.6688C30.8751 22.5037 30.7605 22.4896 30.6362 22.4508C30.6262 22.4478 30.6217 22.441 30.6229 22.4304L30.6279 22.3901C30.6289 22.3807 30.6342 22.376 30.6438 22.376H31.7348C31.738 22.376 31.7394 22.3776 31.7389 22.3808L31.729 22.4407C31.7279 22.448 31.7236 22.4521 31.7162 22.4531C31.54 22.4761 31.4338 22.5489 31.3977 22.6715C31.3839 22.7184 31.3715 22.7713 31.3604 22.8303C31.2709 23.305 31.183 23.79 31.0968 24.2854C31.0916 24.315 31.0869 24.3458 31.0827 24.3779C31.0616 24.5384 31.1893 24.5731 31.3105 24.6064C31.3239 24.6101 31.3281 24.6184 31.3231 24.6313C31.3187 24.6419 31.3171 24.6523 31.3181 24.6626C31.3192 24.6752 31.3135 24.6815 31.3007 24.6815H30.2187C30.2071 24.6815 30.2024 24.6758 30.2046 24.6644L30.2129 24.6245C30.215 24.6146 30.2208 24.6083 30.2306 24.6056C30.3299 24.5789 30.4641 24.549 30.5173 24.4504Z" fill="#002664"/>
<path d="M19.0493 27.2576C19.0493 27.2371 19.0443 27.2358 19.0344 27.2538C19.0174 27.2844 18.9994 27.3133 18.9802 27.3407C18.9362 27.4032 18.88 27.4442 18.8117 27.4637C18.693 27.4974 18.5287 27.4909 18.4151 27.4334C18.2961 27.3733 18.2171 27.2685 18.178 27.119C18.1168 26.885 18.0978 26.6274 18.1208 26.3462C18.1325 26.2026 18.1565 26.076 18.1926 25.9665C18.2562 25.7745 18.3814 25.6583 18.568 25.618C18.6565 25.599 18.7483 25.5975 18.8434 25.6135C19.1092 25.6583 19.2405 25.8775 19.2425 26.1396C19.2427 26.1503 19.2374 26.1557 19.2267 26.1557H18.9848C18.9707 26.1557 18.9642 26.1487 18.9654 26.1345C18.9802 25.9569 18.8966 25.8171 18.6993 25.8224C18.596 25.8252 18.5229 25.8732 18.4801 25.9662C18.4493 26.0329 18.4301 26.1003 18.4224 26.1683C18.3948 26.4095 18.3941 26.6502 18.4201 26.8904C18.4287 26.9699 18.4479 27.0469 18.4778 27.1215C18.5156 27.2162 18.5891 27.2639 18.6983 27.2644C18.8479 27.2654 18.9273 27.1817 18.9611 27.0431C18.9878 26.9338 18.998 26.828 18.9916 26.7257C18.9909 26.7152 18.9854 26.71 18.9749 26.71H18.696C18.692 26.71 18.69 26.7079 18.69 26.7037L18.6897 26.5022C18.6897 26.5005 18.6904 26.4989 18.6916 26.4977C18.6927 26.4965 18.6943 26.4959 18.696 26.4959H19.2566C19.265 26.4959 19.2692 26.5001 19.2692 26.5085V27.4405C19.2692 27.4421 19.2686 27.4437 19.2675 27.4449C19.2664 27.446 19.2648 27.4467 19.2632 27.4468L19.0531 27.4478C19.0497 27.4478 19.048 27.4461 19.048 27.4428L19.0493 27.2576Z" fill="#002664"/>
<path d="M21.4245 27.3636C21.2788 27.2361 21.2234 27.0121 21.2045 26.8201C21.1817 26.5903 21.1866 26.3703 21.2194 26.1602C21.2667 25.8543 21.4159 25.6134 21.7629 25.602C22.1766 25.5882 22.329 25.8749 22.3716 26.2403C22.3998 26.4835 22.394 26.7219 22.354 26.9554C22.3122 27.1995 22.1932 27.4165 21.9324 27.4706C21.7616 27.5062 21.56 27.4822 21.4245 27.3636ZM21.7215 27.2567C22.003 27.3248 22.0675 27.0267 22.0851 26.8264C22.1056 26.5939 22.1027 26.3801 22.0763 26.1851C22.0524 26.0057 21.9846 25.7968 21.7566 25.8225C21.6612 25.8333 21.5946 25.8856 21.557 25.9795C21.5164 26.0813 21.4928 26.1983 21.4862 26.3305C21.4744 26.5711 21.4713 26.8233 21.5401 27.0592C21.5724 27.1695 21.6329 27.2354 21.7215 27.2567Z" fill="#002664"/>
<path d="M30.0943 26.1886C30.1013 26.0649 30.0623 25.8696 29.924 25.8333C29.8096 25.8033 29.6707 25.825 29.6125 25.9417C29.5808 26.0048 29.5595 26.0755 29.5488 26.1536C29.516 26.3871 29.5201 26.6313 29.542 26.8669C29.5489 26.9428 29.5651 27.0182 29.5906 27.0929C29.6312 27.2116 29.7383 27.2763 29.861 27.261C30.0835 27.233 30.1084 26.9974 30.1029 26.8125C30.1028 26.8106 30.1031 26.8087 30.1038 26.807C30.1045 26.8053 30.1055 26.8037 30.1068 26.8023C30.1081 26.801 30.1097 26.7999 30.1115 26.7992C30.1132 26.7985 30.1151 26.7981 30.117 26.7981H30.3767C30.3872 26.7981 30.3925 26.8032 30.3926 26.8135C30.3958 26.9252 30.3842 27.0231 30.3578 27.1073C30.2586 27.424 29.9794 27.5313 29.6768 27.4673C29.4331 27.4159 29.3117 27.2267 29.2741 26.9961C29.2375 26.7712 29.2289 26.5363 29.2484 26.2914C29.2578 26.1733 29.2753 26.0692 29.3008 25.9792C29.3301 25.8769 29.385 25.7896 29.4656 25.7172C29.5194 25.6688 29.5858 25.6369 29.6649 25.6217C29.8391 25.5879 29.9928 25.6013 30.126 25.6617C30.2179 25.7034 30.2863 25.7725 30.3311 25.8691C30.3634 25.9381 30.3796 26.0431 30.3798 26.1841C30.3798 26.1945 30.3746 26.1997 30.3644 26.1997L30.1051 26.1999C30.0976 26.1999 30.094 26.1961 30.0943 26.1886Z" fill="#002664"/>
<path d="M19.9807 26.6722V27.4345C19.9807 27.4428 19.9765 27.447 19.9681 27.447H19.7099C19.7065 27.447 19.7033 27.4457 19.701 27.4434C19.6986 27.441 19.6973 27.4378 19.6973 27.4345V25.6525C19.6973 25.644 19.7015 25.6397 19.7101 25.6397C19.9305 25.638 20.1449 25.6384 20.3534 25.6409C20.5056 25.6427 20.656 25.6979 20.7273 25.8322C20.8049 25.9786 20.8087 26.1605 20.7575 26.316C20.7238 26.4181 20.6584 26.4884 20.5615 26.5269C20.5404 26.5354 20.5164 26.5339 20.4963 26.543C20.4808 26.5499 20.4816 26.5541 20.4985 26.5556C20.5875 26.5642 20.6878 26.6077 20.7243 26.6901C20.7557 26.7604 20.7726 26.8406 20.7749 26.9308C20.7781 27.0502 20.7823 27.1743 20.7875 27.3032C20.7897 27.3603 20.8137 27.4054 20.8593 27.4385C20.8676 27.4445 20.8666 27.4476 20.8563 27.4476L20.5524 27.4468C20.5424 27.4468 20.5352 27.4423 20.531 27.4332C20.5117 27.3912 20.5011 27.3479 20.4993 27.3034C20.493 27.1477 20.4958 26.9814 20.4663 26.8282C20.454 26.7652 20.4244 26.7202 20.3776 26.6932C20.2866 26.6408 20.1072 26.6617 19.9966 26.6571C19.986 26.6566 19.9807 26.6617 19.9807 26.6722ZM19.9838 25.8594V26.4359C19.9838 26.4377 19.9845 26.4394 19.9857 26.4407C19.987 26.442 19.9888 26.4427 19.9906 26.4427H20.2463C20.2801 26.4427 20.3135 26.4359 20.3447 26.4227C20.3758 26.4094 20.4042 26.39 20.428 26.3656C20.4519 26.3411 20.4708 26.3121 20.4837 26.2802C20.4967 26.2482 20.5033 26.214 20.5033 26.1794V26.1159C20.5033 26.0461 20.4762 25.9791 20.428 25.9297C20.3798 25.8803 20.3145 25.8526 20.2463 25.8526H19.9906C19.9888 25.8526 19.987 25.8533 19.9857 25.8546C19.9845 25.8559 19.9838 25.8576 19.9838 25.8594Z" fill="#002664"/>
<path d="M23.1884 27.2172C23.2857 27.288 23.4915 27.2825 23.5596 27.1744C23.6004 27.1091 23.617 27.0431 23.617 26.9635C23.6168 26.5207 23.6164 26.084 23.6158 25.6535C23.6158 25.6443 23.6204 25.6396 23.6296 25.6396H23.8876C23.8921 25.6397 23.8964 25.6415 23.8996 25.6447C23.9027 25.6478 23.9045 25.6521 23.9045 25.6565C23.9074 26.0813 23.9074 26.5084 23.9048 26.9378C23.9039 27.0809 23.872 27.2006 23.809 27.2968C23.6583 27.5276 23.233 27.5226 23.0239 27.4125C22.9458 27.3713 22.8866 27.3 22.8465 27.1986C22.8146 27.1181 22.7985 27.0204 22.7981 26.9055C22.7968 26.499 22.7965 26.0814 22.7974 25.6528C22.7974 25.644 22.8016 25.6396 22.8102 25.6396H23.073C23.0826 25.6396 23.0874 25.6444 23.0874 25.654C23.0864 26.1076 23.0865 26.5404 23.0879 26.9527C23.0884 27.0419 23.1138 27.1625 23.1884 27.2172Z" fill="#002664"/>
<path d="M24.6491 26.7163V27.4344C24.6491 27.4428 24.6449 27.447 24.6365 27.447H24.3783C24.3657 27.447 24.3594 27.4407 24.3594 27.4281V25.6532C24.3594 25.643 24.3645 25.6378 24.3747 25.6378C24.5261 25.6402 24.6908 25.6402 24.8689 25.6378C25.0096 25.636 25.1139 25.6516 25.1818 25.6847C25.3882 25.785 25.4577 26.0271 25.4292 26.2416C25.4141 26.3563 25.3803 26.4469 25.3277 26.5134C25.2361 26.6292 25.1111 26.6897 24.9525 26.6951C24.8544 26.6985 24.7601 26.6989 24.6695 26.6964C24.6559 26.6959 24.6491 26.7025 24.6491 26.7163ZM24.6532 25.8583L24.6486 26.4756C24.6486 26.4774 24.6494 26.4792 24.6506 26.4804C24.6519 26.4817 24.6536 26.4824 24.6554 26.4824L24.8646 26.484C24.9012 26.4842 24.9375 26.4774 24.9715 26.4639C25.0054 26.4504 25.0363 26.4305 25.0624 26.4052C25.0885 26.38 25.1093 26.35 25.1235 26.3169C25.1378 26.2838 25.1453 26.2483 25.1455 26.2123L25.146 26.1287C25.1465 26.0561 25.1177 25.9863 25.0657 25.9346C25.0138 25.8829 24.9431 25.8536 24.8691 25.853L24.66 25.8515C24.6582 25.8515 24.6564 25.8522 24.6552 25.8535C24.6539 25.8548 24.6532 25.8565 24.6532 25.8583Z" fill="#002664"/>
<path d="M27.174 25.6377H26.9019C26.8973 25.6377 26.8936 25.6414 26.8936 25.646V27.433C26.8936 27.4376 26.8973 27.4413 26.9019 27.4413H27.174C27.1786 27.4413 27.1823 27.4376 27.1823 27.433V25.646C27.1823 25.6414 27.1786 25.6377 27.174 25.6377Z" fill="#002664"/>
<path d="M28.5296 26.9809L28.5291 25.6555C28.5291 25.6449 28.5344 25.6396 28.545 25.6396H28.7939C28.8023 25.6396 28.8065 25.6438 28.8065 25.6522V27.4349C28.8065 27.4433 28.8023 27.4475 28.7939 27.4475H28.4671C28.458 27.4475 28.4519 27.4432 28.4487 27.4347L27.9312 26.0766C27.9226 26.0542 27.9183 26.055 27.9183 26.0788V27.4349C27.9183 27.4433 27.9141 27.4475 27.9057 27.4475H27.6601C27.6517 27.4475 27.6475 27.4433 27.6475 27.4349V25.6585C27.6475 25.6459 27.6538 25.6396 27.6664 25.6396H27.9838C27.9948 25.6396 28.0022 25.6448 28.0063 25.655L28.5208 26.9826C28.5267 26.9981 28.5296 26.9975 28.5296 26.9809Z" fill="#002664"/>
<path d="M25.5499 27.4469L25.4494 27.4474C25.4408 27.4474 25.4365 27.4432 25.4365 27.4348V27.1259C25.4364 27.1175 25.4406 27.1133 25.4491 27.1133H25.7144C25.7242 27.1133 25.7289 27.1182 25.7286 27.1279C25.7233 27.2793 25.7361 27.4303 25.7127 27.5799C25.6979 27.6743 25.6472 27.7461 25.5605 27.7954C25.5217 27.8178 25.4841 27.8201 25.4479 27.8392C25.4361 27.8456 25.4311 27.8421 25.433 27.8289C25.4382 27.7887 25.4388 27.7509 25.4348 27.7155C25.4322 27.6947 25.4414 27.6826 25.4622 27.6795C25.5434 27.6669 25.5663 27.5268 25.5625 27.4587C25.5622 27.4507 25.558 27.4467 25.5499 27.4469Z" fill="#002664"/>
<path d="M31.0194 27.1138L30.7483 27.1142C30.7433 27.1143 30.7393 27.1183 30.7393 27.1233L30.7398 27.4327C30.7398 27.4378 30.7439 27.4418 30.7489 27.4418L31.02 27.4413C31.025 27.4413 31.0291 27.4373 31.0291 27.4322L31.0285 27.1228C31.0285 27.1178 31.0245 27.1138 31.0194 27.1138Z" fill="#002664"/>
</g>
<circle cx="20" cy="20" r="19.5" stroke="black" stroke-opacity="0.05"/>
<defs>
<clipPath id="clip0_9_410176">
<rect width="32" height="16.8567" fill="white" transform="translate(4 11)"/>
</clipPath>
</defs>
</svg>
