<svg width="40" height="40" viewBox="0 0 40 40" fill="none" xmlns="http://www.w3.org/2000/svg">
<circle cx="20" cy="20" r="20" fill="#4A4AF4"/>
<g clip-path="url(#clip0_9_388683)">
<path d="M11.2501 27.0001C9.14726 23.7868 8.97301 19.6801 10.7992 16.3011C12.6236 12.9222 16.1546 10.8176 19.9948 10.8176C23.8333 10.8176 27.3643 12.9222 29.1905 16.3011C31.0149 19.6801 30.8424 23.7868 28.7378 27.0001H31.6641C33.6406 22.972 33.398 18.2076 31.0252 14.3998C28.6524 10.5904 24.4825 8.27734 19.9965 8.27734C15.5089 8.27734 11.3407 10.5904 8.96618 14.3998C6.59338 18.2076 6.35251 22.972 8.32899 27.0001H11.2501Z" fill="white"/>
<path fill-rule="evenodd" clip-rule="evenodd" d="M20.171 15.1121C22.9845 15.1121 25.1455 16.3676 25.1455 19.475V26.9983H22.0569V25.2029C21.8741 25.5257 21.6503 25.8247 21.3907 26.0877C21.131 26.3525 20.8372 26.5797 20.516 26.7676C20.1966 26.9538 19.8532 27.0973 19.4962 27.1947C19.1375 27.2904 18.7685 27.3399 18.3978 27.3399C15.9225 27.3399 14.4175 26.0775 14.4175 23.99C14.4175 21.3575 17.0824 20.2847 20.5092 19.9704C21.4231 19.8867 21.9083 19.545 21.9083 18.9506C21.9083 18.0588 21.1806 17.6181 19.8583 17.6181C18.4678 17.6181 16.9252 18.3646 15.972 19.2358L14.8873 16.9502C16.0762 16.0021 18.2679 15.1035 20.171 15.1035V15.1121ZM21.8434 21.9759C19.5047 21.9759 17.7196 22.3278 17.7196 23.7952C17.7196 24.4973 18.2782 24.9261 19.269 24.9261C20.8167 24.9261 21.8434 23.51 21.8434 21.9759Z" fill="white"/>
</g>
<circle cx="20" cy="20" r="19.5" stroke="black" stroke-opacity="0.05"/>
<defs>
<clipPath id="clip0_9_388683">
<rect width="26" height="19.0815" fill="white" transform="translate(7 8.26562)"/>
</clipPath>
</defs>
</svg>
