<svg width="40" height="40" viewBox="0 0 40 40" fill="none" xmlns="http://www.w3.org/2000/svg">
<circle cx="20" cy="20" r="20" fill="#F6F8FA"/>
<g clip-path="url(#clip0_9_409840)">
<mask id="mask0_9_409840" style="mask-type:luminance" maskUnits="userSpaceOnUse" x="8" y="9" width="145" height="24">
<path d="M8 9.00879H152.093V32.016H8V9.00879Z" fill="white"/>
</mask>
<g mask="url(#mask0_9_409840)">
<mask id="mask1_9_409840" style="mask-type:luminance" maskUnits="userSpaceOnUse" x="8" y="9" width="145" height="22">
<path d="M8 9.00879H152.093V30.9201H8V9.00879Z" fill="white"/>
</mask>
<g mask="url(#mask1_9_409840)">
<path d="M20.9072 21.6512C20.9057 22.9898 21.4356 24.2745 22.3799 25.2265C24.2007 27.0442 26.6746 27.0411 28.2505 26.1862C30.1837 25.1418 34.5216 22.007 30.0143 9.00879C30.0127 15.1443 20.9072 15.7682 20.9072 21.6512Z" fill="#FF9C1A"/>
<path d="M25.0529 14.3803C24.754 12.7721 24.275 11.1253 23.5586 9.00879C23.5586 15.1443 14.4531 15.7682 14.4531 21.6511C14.4516 22.9898 14.98 24.2745 15.9242 25.2265C17.745 27.0442 20.2375 27.0396 21.7948 26.1862C18.1687 22.3336 19.4488 17.874 25.0529 14.3803Z" fill="#0DA9FF"/>
<path d="M18.5997 14.3803C18.3009 12.7721 17.8203 11.1253 17.1055 9.00879C17.1055 15.1443 8 15.7682 8 21.6511C8 24.6673 10.4478 25.9952 10.4478 25.9952C10.0673 27.6096 9.98716 29.2779 10.2121 30.92L11.3813 30.7259C10.8113 28.7433 11.161 26.5852 11.1964 26.3726C12.6906 26.9703 14.2326 26.7931 15.3386 26.1877C11.7125 22.3336 12.9926 17.8755 18.5997 14.3803Z" fill="#00A443"/>
</g>
</g>
</g>
<circle cx="20" cy="20" r="19.5" stroke="black" stroke-opacity="0.05"/>
<defs>
<clipPath id="clip0_9_409840">
<rect width="24" height="21.9358" fill="white" transform="translate(8 9)"/>
</clipPath>
</defs>
</svg>
