<svg width="40" height="40" viewBox="0 0 40 40" fill="none" xmlns="http://www.w3.org/2000/svg">
<circle cx="20" cy="20" r="20" fill="#47AA42"/>
<g clip-path="url(#clip0_9_396677)">
<path d="M7.28415 16.1429L9.19343 21.2471C9.277 21.485 9.43129 21.7486 9.71415 21.7614V21.9286H7.702V21.7679C8.197 21.7486 8.332 21.5557 8.152 21.0864L6.757 17.1329L6.88557 16.985L5.587 20.5207C5.49057 20.7586 5.43272 20.9643 5.41343 21.125C5.36843 21.6007 5.65772 21.7486 6.09486 21.7679V21.9286H4.57129V21.7679C4.91843 21.6779 5.09843 21.3179 5.21415 21.0093L7.01415 16.1429H7.28415ZM8.107 19.5886V19.7493H5.77986L5.857 19.5886H8.107ZM11.5013 23.8571C11.1799 23.8571 10.8841 23.825 10.6013 23.7671C10.2413 23.69 9.71415 23.5036 9.71415 23.0471C9.71415 22.7 10.0484 22.4236 10.6334 22.2821L10.6977 22.4107C10.4534 22.5071 10.357 22.6357 10.357 22.8929C10.357 23.1243 10.4341 23.4071 10.6656 23.5357C10.9034 23.6643 11.212 23.7221 11.5977 23.7221C12.1763 23.7221 13.1149 23.5486 13.1149 22.8029C13.1149 22.2693 12.5427 22.205 12.1377 22.205H11.5334C11.3341 22.205 11.1477 22.1857 10.9741 22.1536C10.6591 22.0957 10.3956 21.9221 10.3956 21.575C10.3956 20.9836 11.1541 20.6879 11.6041 20.5079L11.707 20.5786C11.4691 20.7071 10.9999 20.855 10.9999 21.1893C10.9999 21.3564 11.1284 21.4464 11.3856 21.4464H12.4141C13.3399 21.4464 14.3941 22.1343 13.597 23.1179C13.1213 23.7286 12.2149 23.8571 11.5013 23.8571ZM11.6299 20.6429C10.8327 20.6429 10.0356 20.2507 10.0356 19.3571C10.0356 18.47 10.8327 18.0714 11.6299 18.0714C12.2599 18.0714 13.2499 18.6114 13.2499 19.3571C13.2499 20.2571 12.427 20.6429 11.6299 20.6429ZM11.6299 20.5014C12.2084 20.5014 12.2856 19.7943 12.2856 19.3571C12.2856 18.9264 12.2084 18.2771 11.6299 18.2771C11.0577 18.2771 10.9999 18.9329 10.9999 19.3571C10.9999 19.7879 10.9999 20.5014 11.6299 20.5014ZM12.8256 18.8171L12.6713 18.7657C12.7484 18.5729 12.8834 18.4186 13.0827 18.2771C13.2756 18.1421 13.4813 18.0714 13.6934 18.0714C13.8477 18.0714 13.9763 18.1164 14.0663 18.2C14.1627 18.2771 14.2141 18.3929 14.2141 18.5407C14.2141 18.7014 14.1627 18.8236 14.0663 18.8879C13.9763 18.9586 13.8734 18.9907 13.777 18.9907C13.6845 18.9912 13.5944 18.9619 13.5199 18.9071C13.4427 18.8429 13.4041 18.7593 13.3913 18.6371C13.3784 18.5086 13.4234 18.3479 13.5199 18.1486L13.6099 18.1807C13.3849 18.2643 13.2177 18.3607 13.1084 18.4507C13.0056 18.5407 12.9091 18.6629 12.8256 18.8171ZM16.1427 17.4286V21.1507C16.1427 21.5364 16.1556 21.755 16.5606 21.755V21.9286H14.6449V21.755C14.9406 21.755 15.1784 21.5364 15.1784 21.1507V18.5214C15.1784 18.1357 15.1784 17.7821 14.857 17.7821V17.525C15.3134 17.57 15.6991 17.5636 16.1427 17.4286ZM19.0356 15.5V21.1636C19.0356 21.5493 19.3184 21.755 19.6399 21.755V21.9286H17.4284V21.755C17.8206 21.755 18.0713 21.5493 18.0713 21.1636V16.4836C18.0713 16.0979 17.9684 15.7636 17.5249 15.7636V15.59C17.9813 15.635 18.592 15.635 19.0356 15.5ZM25.9463 17.4286C26.1906 17.4286 26.3963 17.4671 26.5763 17.5379C26.7563 17.6021 26.8849 17.6664 26.962 17.7179C27.1613 17.8593 27.2834 17.7693 27.3349 17.435H27.5277L27.4956 18.8621H27.3027C27.2523 18.4423 27.0457 18.0567 26.7241 17.7821C26.5634 17.6536 26.3513 17.5893 26.0813 17.5893C25.8884 17.5893 25.7213 17.6471 25.5863 17.75C25.4577 17.8529 25.387 18.0007 25.387 18.2C25.387 18.3607 25.4384 18.5086 25.5477 18.6307C25.657 18.7464 25.7984 18.8621 25.9656 18.965L26.5249 19.3057C26.7499 19.4471 26.9491 19.5821 27.1227 19.7171C27.3091 19.8521 27.4441 20 27.5534 20.1671C27.6627 20.3343 27.7141 20.5271 27.7141 20.7457C27.7141 21.0029 27.637 21.215 27.4891 21.3886C27.3413 21.5686 27.1484 21.7036 26.9106 21.7936C26.4057 21.9752 25.8533 21.9752 25.3484 21.7936L25.1556 21.6971C25.0947 21.6586 25.0325 21.6221 24.9691 21.5879C24.9049 21.5493 24.8534 21.5557 24.8084 21.6071C24.757 21.6586 24.7249 21.8 24.6991 21.9286H24.4999V20H24.7249C24.8084 20.6043 24.9691 21.2986 25.297 21.5621C25.4641 21.6907 25.6956 21.755 25.9849 21.755C26.1006 21.755 26.2163 21.7357 26.332 21.6907C26.4443 21.6415 26.5402 21.5612 26.6084 21.4593C26.6856 21.35 26.7241 21.2086 26.7241 21.035C26.7241 20.7907 26.6341 20.5914 26.4477 20.4371C26.2269 20.25 25.9903 20.0822 25.7406 19.9357L25.1491 19.55C24.9691 19.415 24.8277 19.2671 24.7056 19.1064C24.5906 18.9334 24.5322 18.729 24.5384 18.5214C24.5384 18.2707 24.6027 18.0714 24.7313 17.9107C24.8599 17.75 25.0334 17.6279 25.2456 17.5507C25.4706 17.4671 25.6956 17.4286 25.9527 17.4286H25.9463ZM33.6606 17.4286C33.9049 17.4286 34.1106 17.4671 34.2906 17.5379C34.4706 17.6021 34.5991 17.6664 34.6763 17.7179C34.8756 17.8593 34.9977 17.7693 35.0491 17.435H35.242L35.2099 18.8621H35.017C34.9666 18.4423 34.76 18.0567 34.4384 17.7821C34.2777 17.6536 34.0656 17.5893 33.7956 17.5893C33.6027 17.5893 33.4356 17.6471 33.3006 17.75C33.172 17.8529 33.1013 18.0007 33.1013 18.2C33.1013 18.3607 33.1527 18.5086 33.262 18.6307C33.3713 18.7464 33.5127 18.8621 33.6799 18.965L34.2391 19.3057C34.4641 19.4471 34.6634 19.5821 34.837 19.7171C35.0234 19.8521 35.1584 20 35.2677 20.1671C35.377 20.3343 35.4284 20.5271 35.4284 20.7457C35.4284 21.0029 35.3513 21.215 35.2034 21.3886C35.0556 21.5686 34.8627 21.7036 34.6249 21.7936C34.12 21.9752 33.5676 21.9752 33.0627 21.7936L32.8699 21.6971C32.809 21.6586 32.7468 21.6221 32.6834 21.5879C32.6191 21.5493 32.5677 21.5557 32.5227 21.6071C32.4713 21.6586 32.4391 21.8 32.4134 21.9286H32.2141V20H32.4391C32.5227 20.6043 32.6834 21.2986 33.0113 21.5621C33.1784 21.6907 33.4099 21.755 33.6991 21.755C33.8149 21.755 33.9306 21.7357 34.0463 21.6907C34.1586 21.6415 34.2545 21.5612 34.3227 21.4593C34.3999 21.35 34.4384 21.2086 34.4384 21.035C34.4384 20.7907 34.3484 20.5914 34.162 20.4371C33.9412 20.25 33.7046 20.0822 33.4549 19.9357L32.8634 19.55C32.6834 19.415 32.542 19.2671 32.4199 19.1064C32.3049 18.9334 32.2465 18.729 32.2527 18.5214C32.2527 18.2707 32.317 18.0714 32.4456 17.9107C32.5741 17.75 32.7477 17.6279 32.9599 17.5507C33.1849 17.4671 33.4099 17.4286 33.667 17.4286H33.6606Z" fill="white"/>
<path d="M24.8214 23.2141C24.9989 23.2141 25.1429 23.0702 25.1429 22.8927C25.1429 22.7152 24.9989 22.5713 24.8214 22.5713C24.6439 22.5713 24.5 22.7152 24.5 22.8927C24.5 23.0702 24.6439 23.2141 24.8214 23.2141Z" fill="white"/>
<path d="M23.8571 17.5959V17.4287H22.5714V17.5959C22.9186 17.6151 23.1436 17.7437 23.1693 18.0201C23.1886 18.1487 23.1564 18.3287 23.0793 18.5473L22.34 20.6687L21.4207 18.2194C21.2536 17.7694 21.4721 17.6023 21.9286 17.6023V17.4287H20V17.6023C20.2571 17.6023 20.4114 17.8594 20.5014 18.0587L21.9543 21.7744L21.7357 22.4109C21.6457 22.668 21.5429 22.8801 21.2793 22.9573C21.2882 22.9133 21.2878 22.8679 21.2782 22.824C21.2685 22.7802 21.2497 22.7388 21.2231 22.7027C21.1964 22.6665 21.1625 22.6364 21.1235 22.6141C21.0845 22.5919 21.0413 22.578 20.9966 22.5735C20.9519 22.569 20.9068 22.5739 20.8641 22.5879C20.8214 22.6019 20.7822 22.6247 20.7488 22.6548C20.7155 22.6849 20.6889 22.7216 20.6706 22.7627C20.6524 22.8037 20.6429 22.8481 20.6429 22.893C20.6429 23.1373 20.8357 23.2144 20.9514 23.2144C21.0607 23.2144 21.1764 23.1951 21.2857 23.163C21.62 23.0666 21.7807 22.7259 21.8964 22.4237L22.1664 21.6523L23.3557 18.2194C23.4393 17.9816 23.5679 17.6409 23.8571 17.5959ZM32.2143 17.5959V17.4287H30.9286V17.5959C31.2757 17.6151 31.5007 17.7437 31.5264 18.0201C31.5457 18.1487 31.5136 18.3287 31.4364 18.5473L30.6971 20.6687L29.7779 18.2194C29.6107 17.7694 29.855 17.6023 30.3114 17.6023V17.4287H28.3571V17.6023C28.6143 17.6023 28.7686 17.8594 28.8586 18.0587L30.3114 21.7744L30.0929 22.4109C30.0029 22.668 29.9 22.8801 29.6364 22.9573C29.6454 22.9133 29.645 22.8679 29.6353 22.824C29.6256 22.7802 29.6069 22.7388 29.5802 22.7027C29.5536 22.6665 29.5197 22.6364 29.4807 22.6141C29.4417 22.5919 29.3984 22.578 29.3537 22.5735C29.3091 22.569 29.2639 22.5739 29.2212 22.5879C29.1786 22.6019 29.1393 22.6247 29.106 22.6548C29.0727 22.6849 29.046 22.7216 29.0278 22.7627C29.0095 22.8037 29 22.8481 29 22.893C29 23.1373 29.1929 23.2144 29.3086 23.2144C29.4179 23.2144 29.5336 23.1951 29.6429 23.163C29.9771 23.0666 30.1379 22.7259 30.2536 22.4237L30.5236 21.6523L31.7129 18.2194C31.7964 17.9816 31.925 17.6409 32.2143 17.5959Z" fill="white"/>
<path d="M32.5353 23.2141C32.7128 23.2141 32.8567 23.0702 32.8567 22.8927C32.8567 22.7152 32.7128 22.5713 32.5353 22.5713C32.3578 22.5713 32.2139 22.7152 32.2139 22.8927C32.2139 23.0702 32.3578 23.2141 32.5353 23.2141Z" fill="white"/>
<path d="M35.1076 23.2141C35.2851 23.2141 35.429 23.0702 35.429 22.8927C35.429 22.7152 35.2851 22.5713 35.1076 22.5713C34.93 22.5713 34.7861 22.7152 34.7861 22.8927C34.7861 23.0702 34.93 23.2141 35.1076 23.2141Z" fill="white"/>
<path d="M15.5003 16.7857C15.8553 16.7857 16.1431 16.4979 16.1431 16.1429C16.1431 15.7878 15.8553 15.5 15.5003 15.5C15.1452 15.5 14.8574 15.7878 14.8574 16.1429C14.8574 16.4979 15.1452 16.7857 15.5003 16.7857Z" fill="white"/>
</g>
<circle cx="20" cy="20" r="19.5" stroke="black" stroke-opacity="0.05"/>
<defs>
<clipPath id="clip0_9_396677">
<rect width="32" height="9" fill="white" transform="translate(4 15)"/>
</clipPath>
</defs>
</svg>
