<svg width="40" height="40" viewBox="0 0 40 40" fill="none" xmlns="http://www.w3.org/2000/svg">
<circle cx="20" cy="20" r="20" fill="#F6F8FA"/>
<g clip-path="url(#clip0_9_401862)">
<path d="M10.3136 19.4516C10.3136 19.6301 10.2881 19.8092 10.2881 20.0132C10.2881 21.8261 10.7714 23.5364 11.6359 24.9917C12.2455 22.9493 13.1356 20.7794 14.2539 18.635C12.8557 18.839 11.5339 19.1195 10.3136 19.4516ZM11.9911 14.4985C13.6183 14.1415 15.3978 13.9114 17.2538 13.7839C18.1439 12.5587 19.0595 11.41 19.9999 10.4142L19.8724 10.2861C16.5933 10.3116 13.7203 11.971 11.9911 14.4985ZM25.3143 11.869C24.6021 14.7286 23.3307 17.8432 21.5512 20.9069C21.043 21.7751 20.5342 22.6172 20.0006 23.4083C20.5348 24.2 21.0934 24.9662 21.6532 25.6808C22.4343 25.6561 23.2143 25.605 23.9919 25.5278C24.5103 24.7672 24.9938 23.9833 25.4412 23.1788C26.8649 20.6774 27.9839 18.1747 28.7464 15.8263C27.9584 14.2174 26.7635 12.8392 25.3143 11.869Z" fill="#F89C0E"/>
<path d="M25.3142 11.869C23.7343 10.8359 21.8876 10.2859 19.9999 10.2861H19.8724C21.3217 11.8435 22.7454 13.6819 24.0423 15.7498C24.5462 14.4838 24.9714 13.1877 25.3142 11.869ZM28.747 15.8263C28.2389 17.4091 27.5516 19.0685 26.7374 20.7539C27.3482 22.1321 27.8825 23.5103 28.2892 24.8381C28.3402 24.8126 28.4167 24.8126 28.4677 24.7871C29.2859 23.3291 29.7149 21.685 29.7136 20.0132C29.6887 18.5652 29.3594 17.1387 28.747 15.8263ZM18.425 20.9069C17.9278 20.0601 17.4698 19.191 17.0522 18.3022C16.1254 18.375 15.201 18.4772 14.2806 18.6088C13.9158 19.3024 13.5766 20.0092 13.2637 20.7278C13.6708 21.5495 14.1033 22.3584 14.5605 23.1533C15.8908 25.4934 17.4676 27.6845 19.2641 29.6892C19.5179 29.7147 19.7722 29.7147 20.0266 29.7147C21.6028 29.7147 23.0775 29.3322 24.3999 28.668C22.264 26.6511 20.2045 23.996 18.425 20.9069Z" fill="#40B93C"/>
<path d="M28.4417 24.7869C26.3816 25.2726 24.0684 25.6041 21.6271 25.7061C22.4681 26.7759 23.3769 27.7907 24.3477 28.7442C26.0768 27.825 27.5012 26.4723 28.4417 24.7869ZM16.0031 25.4979C14.5035 25.3449 13.0342 25.119 11.6863 24.8124C11.6608 24.8634 11.6608 24.915 11.6353 24.9915C13.2115 27.6465 16.0286 29.4297 19.2574 29.6847C18.1391 28.4595 17.0456 27.0297 16.0031 25.4979ZM19.975 13.6816C17.1021 13.6816 14.4069 13.9621 11.9662 14.4982C10.9673 15.9662 10.3871 17.6785 10.2881 19.4513C13.1101 18.6596 16.4154 18.2006 19.975 18.2006C20.9665 18.2006 21.9908 18.2443 22.9318 18.3208C23.332 17.4734 23.7049 16.6135 24.0502 15.7423C23.6133 15.071 23.1617 14.4095 22.6957 13.7581C21.8311 13.7326 20.9155 13.6816 19.975 13.6816Z" fill="#1575C5"/>
</g>
<circle cx="20" cy="20" r="19.5" stroke="black" stroke-opacity="0.05"/>
<defs>
<clipPath id="clip0_9_401862">
<rect width="20" height="20" fill="white" transform="translate(10 10)"/>
</clipPath>
</defs>
</svg>
