<svg width="40" height="40" viewBox="0 0 40 40" fill="none" xmlns="http://www.w3.org/2000/svg">
<circle cx="20" cy="20" r="20" fill="#0099CC"/>
<path d="M20.2688 8H21.2317C21.2944 8.04608 21.3654 8.07712 21.4448 8.09312C21.4647 8.09694 21.4833 8.10575 21.4989 8.11872C21.5145 8.13169 21.5266 8.1484 21.5339 8.16728C21.5413 8.18617 21.5438 8.20662 21.5411 8.22672C21.5385 8.24683 21.5308 8.26593 21.5187 8.28224L21.4554 8.36768C21.4355 8.39456 21.4096 8.41312 21.3776 8.42336C19.8272 8.90144 18.415 9.57248 17.1603 10.5661C15.1949 12.1219 13.8413 14.0682 13.0995 16.4048C12.9626 16.8362 12.8483 17.288 12.7568 17.7603C12.6525 18.2973 12.5952 18.7955 12.585 19.255C12.5818 19.4195 12.5725 19.5766 12.5571 19.7264C12.5424 19.88 12.5434 20.0349 12.56 20.191C12.5773 20.3459 12.5853 20.5011 12.584 20.6566C12.5821 20.8602 12.5872 21.0154 12.5994 21.1222C12.9712 24.4368 14.4378 27.1491 16.999 29.2592C17.9462 30.0394 19 30.655 20.1603 31.1062C20.5971 31.2752 20.9792 31.3779 21.3795 31.5728C21.4035 31.5845 21.4245 31.6014 21.4411 31.6223C21.4576 31.6433 21.4691 31.6677 21.4748 31.6938C21.4806 31.7198 21.4803 31.7468 21.4741 31.7727C21.4679 31.7987 21.4559 31.8229 21.439 31.8435C21.384 31.9107 21.3078 31.9446 21.2106 31.9453C20.881 31.9478 20.5558 31.9485 20.2352 31.9472C20.0355 31.9462 19.8666 31.8781 19.665 31.9002C19.6317 31.904 19.5994 31.8995 19.568 31.8867C19.4442 31.8339 19.3174 31.8598 19.183 31.8378C16.4202 31.3718 14.1117 30.1782 12.2576 28.257C10.6403 26.5802 9.59584 24.5802 9.12416 22.257C9.00128 21.6522 8.93216 21.0061 8.9168 20.3187C8.8528 17.5014 9.67456 14.969 11.3821 12.7213C11.7379 12.2534 12.161 11.7869 12.6512 11.3216C14.2608 9.79264 16.1821 8.77536 18.415 8.26976C18.6531 8.21536 18.8995 8.17184 19.1542 8.1392C19.255 8.12576 19.328 8.07872 19.4365 8.09696C19.4762 8.10336 19.5174 8.10368 19.5603 8.09792C19.7952 8.06656 20.0314 8.03392 20.2688 8Z" fill="white"/>
<path d="M13.8799 20.5056C13.6373 18.4391 14.0073 16.5088 14.9897 14.7149C15.3045 14.1389 15.6671 13.6147 16.0773 13.1424C17.6159 11.3696 19.5391 10.2957 21.8469 9.92065C22.8389 9.75937 23.8757 9.76353 24.9573 9.93313C26.8319 10.2282 28.4101 11.0179 29.6921 12.3024C29.7708 12.3818 29.8409 12.4631 29.9023 12.5463C29.9868 12.6586 30.0953 12.7469 30.1797 12.8631C30.4898 13.2941 30.8172 13.728 30.9516 14.2522C30.9823 14.3706 30.9458 14.3975 30.8421 14.3328C30.8044 14.3091 30.7676 14.2832 30.7317 14.2551C30.0514 13.713 29.3599 13.3056 28.6572 13.033C27.6748 12.6503 26.6533 12.4231 25.5929 12.3514C25.5397 12.3475 25.4879 12.3376 25.4373 12.3216C25.4098 12.3127 25.3813 12.3082 25.3519 12.3082C24.7772 12.3088 24.1989 12.3075 23.6172 12.3043C23.5455 12.3043 23.4764 12.3149 23.4098 12.336C23.3013 12.3706 23.2063 12.3495 23.0978 12.3639C21.1996 12.6301 19.5522 13.3571 18.1557 14.545C16.3919 16.0439 15.3039 17.9824 14.8917 20.3607C14.8706 20.4826 14.9042 20.5997 14.8457 20.7159C14.829 20.7485 14.8226 20.7834 14.8265 20.8205C14.8418 20.9498 14.8383 21.0746 14.8159 21.1949C14.7679 21.4483 14.7833 21.7008 14.7823 21.9581C14.7823 22.2519 14.8639 22.5879 14.837 22.8739C14.8127 23.137 14.7205 23.1706 14.5605 22.9747C14.526 22.9325 14.4943 22.8746 14.4655 22.801C14.3362 22.4701 14.2146 22.0925 14.1007 21.6682C14.0002 21.2957 13.9266 20.9082 13.8799 20.5056Z" fill="white"/>
<path d="M22.7091 13.9568C23.0099 13.9056 23.3117 13.8768 23.6144 13.8704C23.7328 13.8678 23.8438 13.8553 23.9475 13.8329C24.129 13.7945 24.2778 13.8723 24.4554 13.8694C24.6832 13.8662 24.9411 13.8845 25.2291 13.9241C27.4378 14.2313 29.2029 15.2448 30.5245 16.9645C30.6307 17.1027 30.7142 17.2393 30.775 17.3744C30.8666 17.5773 30.8198 17.6166 30.6349 17.4925C28.6022 16.1241 26.4032 15.3373 24.0378 15.1318C23.5405 15.0889 23.0096 15.0793 22.4451 15.103C21.1645 15.1568 19.9226 15.4445 18.7194 15.9661C18.6842 15.9814 18.6486 15.983 18.6128 15.9709C18.5853 15.9613 18.5677 15.9421 18.56 15.9133C18.5517 15.8832 18.5578 15.8563 18.5782 15.8326C18.6134 15.7917 18.6522 15.7545 18.6944 15.7213C19.8579 14.8016 21.1962 14.2134 22.7091 13.9568Z" fill="white"/>
<circle cx="20" cy="20" r="19.5" stroke="black" stroke-opacity="0.05"/>
</svg>
