<svg width="40" height="40" viewBox="0 0 40 40" fill="none" xmlns="http://www.w3.org/2000/svg">
<circle cx="20" cy="20" r="20" fill="#0E2841"/>
<g clip-path="url(#clip0_9_398167)">
<path d="M14.5356 27.0718H13.5713L19.9999 12.2861L26.4284 27.0718H25.4641L21.1249 17.114L16.7856 27.0718H15.8213L20.6427 15.9954L19.9999 14.5361L14.5356 27.0718Z" fill="#F0B888"/>
<path fill-rule="evenodd" clip-rule="evenodd" d="M19.9999 30.9284C22.8983 30.9284 25.678 29.777 27.7275 27.7275C29.777 25.678 30.9284 22.8983 30.9284 19.9999C30.9284 17.1014 29.777 14.3217 27.7275 12.2722C25.678 10.2227 22.8983 9.07129 19.9999 9.07129C17.1014 9.07129 14.3217 10.2227 12.2722 12.2722C10.2227 14.3217 9.07129 17.1014 9.07129 19.9999C9.07129 22.8983 10.2227 25.678 12.2722 27.7275C14.3217 29.777 17.1014 30.9284 19.9999 30.9284ZM19.9999 30.2856C22.7278 30.2856 25.344 29.2019 27.273 27.273C29.2019 25.344 30.2856 22.7278 30.2856 19.9999C30.2856 17.2719 29.2019 14.6557 27.273 12.7268C25.344 10.7978 22.7278 9.71415 19.9999 9.71415C17.2719 9.71415 14.6557 10.7978 12.7268 12.7268C10.7978 14.6557 9.71415 17.2719 9.71415 19.9999C9.71415 22.7278 10.7978 25.344 12.7268 27.273C14.6557 29.2019 17.2719 30.2856 19.9999 30.2856Z" fill="#F0B888"/>
<path d="M11.6426 12.9287H12.2854V27.0716H11.6426V12.9287ZM27.714 12.9287H28.3569V27.0716H27.714V12.9287Z" fill="#F0B888"/>
</g>
<circle cx="20" cy="20" r="19.5" stroke="black" stroke-opacity="0.05"/>
<defs>
<clipPath id="clip0_9_398167">
<rect width="22" height="22" fill="white" transform="translate(9 9)"/>
</clipPath>
</defs>
</svg>
