<svg width="40" height="40" viewBox="0 0 40 40" fill="none" xmlns="http://www.w3.org/2000/svg">
<circle cx="20" cy="20" r="20" fill="#003497"/>
<g clip-path="url(#clip0_9_411148)">
<path fill-rule="evenodd" clip-rule="evenodd" d="M8.66454 15.75L5.42847 23.6429H7.57775L8.12418 22.1675H11.1113L11.6638 23.6429H13.8435L10.6195 15.75H8.66454ZM9.66025 18.2696L8.66454 20.6071H10.6074L9.66025 18.2696ZM16.357 15.75H14.5356V23.6429H16.357V15.75ZM29.107 17.5714H30.9285V18.3789C31.1275 18.1101 31.3907 17.8953 31.694 17.7543C31.9973 17.6132 32.3311 17.5504 32.6649 17.5714C34.1524 17.6018 34.5592 19.0286 34.5713 19.7329V23.6429H32.7499V20.4918C32.7499 19.5021 32.1792 19.3746 31.9363 19.3929C31.317 19.3929 31.0195 19.915 30.9285 20.3643V23.6429H29.107V17.5714ZM28.4999 20.6071C28.4999 21.4123 28.1801 22.1844 27.6108 22.7537C27.0414 23.323 26.2693 23.6429 25.4642 23.6429C24.6591 23.6429 23.8869 23.323 23.3176 22.7537C22.7483 22.1844 22.4285 21.4123 22.4285 20.6071C22.4285 19.802 22.7483 19.0299 23.3176 18.4606C23.8869 17.8913 24.6591 17.5714 25.4642 17.5714C26.2693 17.5714 27.0414 17.8913 27.6108 18.4606C28.1801 19.0299 28.4999 19.802 28.4999 20.6071ZM26.6785 20.6071C26.6785 20.9292 26.5505 21.238 26.3228 21.4658C26.0951 21.6935 25.7862 21.8214 25.4642 21.8214C25.1421 21.8214 24.8333 21.6935 24.6056 21.4658C24.3778 21.238 24.2499 20.9292 24.2499 20.6071C24.2499 20.2851 24.3778 19.9762 24.6056 19.7485C24.8333 19.5208 25.1421 19.3929 25.4642 19.3929C25.7862 19.3929 26.0951 19.5208 26.3228 19.7485C26.5505 19.9762 26.6785 20.2851 26.6785 20.6071ZM22.1978 22.6836C21.7808 23.1281 21.2397 23.4368 20.6449 23.5695C20.0501 23.7023 19.4292 23.6529 18.8628 23.4279C18.2964 23.2029 17.8109 22.8126 17.4694 22.3078C17.1279 21.8031 16.9462 21.2072 16.948 20.5978C16.9498 19.9884 17.1349 19.3936 17.4794 18.8908C17.8239 18.3881 18.3117 18.0007 18.8794 17.779C19.447 17.5573 20.0683 17.5116 20.6623 17.6478C21.2563 17.7841 21.7956 18.0959 22.2099 18.5429L20.9835 19.8968C20.8332 19.6893 20.6212 19.5347 20.3778 19.455C20.1343 19.3753 19.8719 19.3747 19.6281 19.4531C19.3843 19.5316 19.1715 19.6851 19.0202 19.8918C18.8689 20.0985 18.7868 20.3478 18.7858 20.6039C18.7847 20.8601 18.8646 21.11 19.0141 21.318C19.1637 21.5259 19.3752 21.6813 19.6183 21.7618C19.8615 21.8423 20.1239 21.8439 20.368 21.7663C20.6121 21.6886 20.8254 21.5358 20.9774 21.3296L22.1917 22.6836H22.1978Z" fill="white"/>
</g>
<circle cx="20" cy="20" r="19.5" stroke="black" stroke-opacity="0.05"/>
<defs>
<clipPath id="clip0_9_411148">
<rect width="30" height="9" fill="white" transform="translate(5 15)"/>
</clipPath>
</defs>
</svg>
