<svg width="40" height="40" viewBox="0 0 40 40" fill="none" xmlns="http://www.w3.org/2000/svg">
<circle cx="20" cy="20" r="20" fill="#F6F8FA"/>
<path d="M19.5554 8.54037L19.5532 9.33386C19.5532 9.36652 19.5368 9.38285 19.5042 9.38285L18.6098 9.3792L17.1157 9.37262C17.0928 9.37262 17.0813 9.36116 17.0813 9.33824L17.0791 7.36513C17.0791 7.34075 17.091 7.32588 17.1149 7.32052C17.8799 7.15817 18.6731 7.05139 19.4947 7.0002C19.5366 6.99776 19.5576 7.01751 19.5576 7.05944L19.5554 8.54037Z" fill="#572E6F"/>
<path d="M22.936 9.26182C22.9413 9.29448 22.9382 9.32447 22.9265 9.35177C22.9167 9.37469 22.8992 9.38614 22.8738 9.38614L20.5094 9.3781C20.4836 9.3781 20.4707 9.36518 20.4707 9.33934L20.4604 8.589L20.4656 7.05322C20.4661 7.02689 20.4792 7.01251 20.5051 7.01007C20.5797 7.00422 20.6557 7.00447 20.7332 7.0108C21.524 7.07662 22.2444 7.17998 22.8943 7.32088C22.9216 7.32673 22.9353 7.3438 22.9353 7.37208L22.936 9.26182Z" fill="#572E6F"/>
<path d="M23.8874 7.59407C24.7058 7.85442 25.5329 8.20985 26.2825 8.61134C26.3093 8.62597 26.3227 8.64889 26.3227 8.68009L26.3213 9.32292C26.3213 9.32964 26.3199 9.3363 26.3174 9.34251C26.3148 9.34872 26.311 9.35437 26.3063 9.35912C26.3015 9.36387 26.2959 9.36765 26.2897 9.37022C26.2834 9.37279 26.2768 9.37412 26.2701 9.37412L23.8903 9.37192C23.8858 9.37192 23.8814 9.37101 23.8772 9.36925C23.873 9.36748 23.8692 9.3649 23.866 9.36164C23.8628 9.35838 23.8603 9.35451 23.8586 9.35025C23.8569 9.34599 23.856 9.34143 23.856 9.33682L23.853 7.61894C23.8529 7.61484 23.8538 7.61078 23.8556 7.6071C23.8575 7.60342 23.8602 7.60022 23.8635 7.59779C23.8669 7.59535 23.8708 7.59374 23.875 7.59309C23.8791 7.59245 23.8834 7.59278 23.8874 7.59407Z" fill="#572E6F"/>
<path d="M16.1569 8.9222L16.1621 9.31199C16.1622 9.31964 16.1607 9.32723 16.1579 9.33433C16.155 9.34142 16.1508 9.34788 16.1454 9.35332C16.14 9.35876 16.1336 9.36308 16.1266 9.36603C16.1195 9.36898 16.1119 9.3705 16.1043 9.3705L13.7282 9.37416C13.7189 9.37416 13.71 9.37046 13.7034 9.36387C13.6968 9.35729 13.6931 9.34836 13.6931 9.33905L13.6924 8.68013C13.6924 8.65136 13.7051 8.63016 13.7304 8.61651C14.4754 8.21671 15.2477 7.88299 16.0472 7.61532C16.0741 7.60752 16.0965 7.60435 16.1145 7.60582C16.1409 7.60777 16.154 7.6219 16.154 7.64823L16.1569 8.9222Z" fill="#572E6F"/>
<path d="M10.3383 11.3007C10.6484 10.9526 10.9819 10.6016 11.3453 10.3076C11.368 10.2891 11.3967 10.279 11.4265 10.2791L12.74 10.2783C12.7716 10.2783 12.7875 10.2942 12.7875 10.3259L12.7868 12.7641C12.7866 12.7702 12.784 12.7759 12.7797 12.7802C12.7753 12.7844 12.7694 12.7868 12.7634 12.7868H10.3083C10.3004 12.7868 10.2927 12.7837 10.2871 12.7782C10.2815 12.7727 10.2783 12.7653 10.2783 12.7575V11.4594C10.2783 11.4005 10.2997 11.344 10.3383 11.3007Z" fill="#03295B"/>
<path d="M16.1257 10.2812H13.7299C13.7016 10.2812 13.6787 10.3042 13.6787 10.3324V12.7356C13.6787 12.7638 13.7016 12.7868 13.7299 12.7868H16.1257C16.154 12.7868 16.1769 12.7638 16.1769 12.7356V10.3324C16.1769 10.3042 16.154 10.2812 16.1257 10.2812Z" fill="#03295B"/>
<path d="M17.2463 10.2744L18.4961 10.2759L19.5258 10.2773C19.5353 10.2773 19.5444 10.2811 19.5512 10.2878C19.5579 10.2946 19.5617 10.3037 19.5617 10.3132L19.5602 12.7565C19.5602 12.7653 19.5567 12.7736 19.5506 12.7798C19.5444 12.786 19.536 12.7894 19.5273 12.7894L17.0891 12.7887C17.0835 12.7887 17.078 12.7876 17.0729 12.7855C17.0678 12.7833 17.0632 12.7802 17.0593 12.7762C17.0554 12.7723 17.0524 12.7676 17.0503 12.7625C17.0483 12.7573 17.0473 12.7518 17.0474 12.7463L17.0488 10.3234C17.0488 10.3125 17.053 10.3021 17.0605 10.2942C17.068 10.2863 17.0782 10.2816 17.0891 10.281L17.2463 10.2744Z" fill="#03295B"/>
<path d="M22.927 10.2783H20.499C20.4763 10.2783 20.458 10.2967 20.458 10.3193V12.7487C20.458 12.7714 20.4763 12.7897 20.499 12.7897H22.927C22.9496 12.7897 22.9679 12.7714 22.9679 12.7487V10.3193C22.9679 10.2967 22.9496 10.2783 22.927 10.2783Z" fill="#03295B"/>
<path d="M26.2942 10.2812H23.8749C23.8539 10.2812 23.8369 10.2983 23.8369 10.3193V12.7473C23.8369 12.7683 23.8539 12.7853 23.8749 12.7853H26.2942C26.3152 12.7853 26.3322 12.7683 26.3322 12.7473V10.3193C26.3322 10.2983 26.3152 10.2812 26.2942 10.2812Z" fill="#03295B"/>
<path d="M28.9079 10.5151C29.1726 10.7447 29.441 11.0124 29.6582 11.2976C29.7075 11.362 29.7328 11.4393 29.7343 11.5295C29.7411 11.9682 29.7409 12.3795 29.7335 12.7632C29.7331 12.7798 29.7245 12.7881 29.7079 12.7881H27.2646C27.2383 12.7881 27.2251 12.7747 27.2251 12.7478L27.2258 10.3242C27.2258 10.2935 27.2412 10.2779 27.2719 10.2774C27.719 10.2711 28.1288 10.2723 28.5013 10.2811C28.6848 10.2855 28.7799 10.4039 28.9079 10.5151Z" fill="#03295B"/>
<path d="M8.55458 13.8191C8.57652 13.7777 8.60382 13.7404 8.63649 13.7072C8.65307 13.6902 8.6733 13.6816 8.69719 13.6816H9.35465C9.36022 13.6816 9.36574 13.6827 9.37088 13.6849C9.37603 13.687 9.3807 13.6901 9.38464 13.6941C9.38858 13.698 9.39171 13.7027 9.39384 13.7078C9.39597 13.713 9.39707 13.7185 9.39707 13.7241L9.38902 16.144C9.38902 16.1527 9.38556 16.1611 9.37938 16.1673C9.37321 16.1735 9.36484 16.1769 9.35611 16.1769L7.64335 16.1747C7.59947 16.1747 7.58387 16.1535 7.59655 16.1111C7.83496 15.3398 8.1543 14.5758 8.55458 13.8191Z" fill="#0F80B2"/>
<path d="M12.747 13.684L10.3205 13.6798C10.3007 13.6797 10.2846 13.6957 10.2846 13.7155L10.2804 16.1406C10.2803 16.1604 10.2964 16.1765 10.3161 16.1765L12.7427 16.1807C12.7625 16.1808 12.7785 16.1647 12.7786 16.1449L12.7828 13.7199C12.7828 13.7001 12.7668 13.684 12.747 13.684Z" fill="#0F80B2"/>
<path d="M16.1569 16.0587C16.1642 16.1323 16.135 16.1694 16.0692 16.1699C15.7922 16.1723 15.5114 16.1747 15.2267 16.1772L13.7406 16.1684C13.7328 16.1684 13.7251 16.1668 13.718 16.1638C13.7108 16.1608 13.7042 16.1564 13.6987 16.1508C13.6932 16.1453 13.6889 16.1386 13.6859 16.1314C13.6829 16.1241 13.6814 16.1163 13.6814 16.1084L13.6777 13.7338C13.6777 13.721 13.6828 13.7087 13.6919 13.6997C13.7009 13.6906 13.7132 13.6855 13.726 13.6855L16.1321 13.6885C16.1371 13.6885 16.1422 13.6895 16.1469 13.6915C16.1516 13.6935 16.1559 13.6964 16.1595 13.7C16.1631 13.7037 16.1659 13.7081 16.1679 13.7129C16.1698 13.7176 16.1708 13.7228 16.1708 13.728L16.1569 16.0587Z" fill="#0F80B2"/>
<path d="M19.5443 13.7387L19.5392 16.1397C19.539 16.1493 19.535 16.1584 19.5282 16.1651C19.5214 16.1718 19.5122 16.1755 19.5026 16.1755L17.1141 16.1704C17.0873 16.1704 17.0692 16.1577 17.06 16.1324C17.0468 16.0953 17.0444 16.0617 17.0527 16.0314L17.0519 13.7241C17.0519 13.714 17.0559 13.7042 17.063 13.697C17.0701 13.6897 17.0798 13.6856 17.09 13.6854C17.8827 13.678 18.6891 13.6778 19.5092 13.6846C19.5194 13.6846 19.5279 13.6883 19.5348 13.6956C19.544 13.7054 19.5472 13.7197 19.5443 13.7387Z" fill="#0F80B2"/>
<path d="M22.9619 14.2267L22.9597 16.1355C22.9597 16.1407 22.9587 16.1458 22.9568 16.1506C22.9548 16.1554 22.9519 16.1597 22.9483 16.1634C22.9447 16.1671 22.9405 16.17 22.9358 16.172C22.9311 16.174 22.926 16.175 22.9209 16.175L20.5127 16.1742C20.5026 16.1742 20.4929 16.1702 20.4858 16.1629C20.4787 16.1556 20.4747 16.1458 20.4747 16.1355V13.7309C20.4742 13.7221 20.4771 13.7128 20.4834 13.7031C20.4912 13.6914 20.5022 13.6855 20.5163 13.6855L22.9239 13.6863C22.9334 13.6863 22.9425 13.69 22.9492 13.6966C22.9559 13.7031 22.9597 13.7121 22.9597 13.7214L22.9619 14.2267Z" fill="#0F80B2"/>
<path d="M25.4314 16.173H23.8818C23.8766 16.173 23.8715 16.172 23.8667 16.17C23.8619 16.168 23.8575 16.1651 23.8538 16.1615C23.8502 16.1578 23.8473 16.1534 23.8453 16.1486C23.8433 16.1439 23.8423 16.1387 23.8423 16.1335L23.8408 14.2277L23.8416 13.7238C23.8416 13.7141 23.8453 13.7048 23.852 13.698C23.8588 13.6911 23.8679 13.6873 23.8774 13.6873L26.2834 13.6865C26.2885 13.6865 26.2936 13.6875 26.2983 13.6895C26.303 13.6914 26.3073 13.6943 26.3109 13.6979C26.3144 13.7015 26.3173 13.7057 26.3193 13.7105C26.3212 13.7152 26.3222 13.7202 26.3222 13.7253L26.3237 16.1401C26.3237 16.1441 26.3229 16.1481 26.3213 16.1519C26.3198 16.1556 26.3175 16.159 26.3147 16.1618C26.3118 16.1647 26.3084 16.1669 26.3047 16.1685C26.301 16.17 26.297 16.1708 26.2929 16.1708L25.4314 16.173Z" fill="#0F80B2"/>
<path d="M29.6958 13.682L27.2722 13.6778C27.2499 13.6778 27.2319 13.6957 27.2319 13.718L27.2276 16.1372C27.2276 16.1594 27.2456 16.1774 27.2678 16.1775L29.6914 16.1817C29.7136 16.1817 29.7317 16.1638 29.7317 16.1415L29.7359 13.7223C29.736 13.7001 29.718 13.6821 29.6958 13.682Z" fill="#0F80B2"/>
<path d="M31.4204 13.7428C31.8278 14.5129 32.1759 15.3027 32.4231 16.1248C32.4343 16.1618 32.4204 16.1801 32.3814 16.1796L30.6599 16.1774C30.6507 16.1772 30.6419 16.1734 30.6355 16.1669C30.6291 16.1603 30.6255 16.1515 30.6255 16.1423L30.6196 13.726C30.6196 13.6977 30.6338 13.6836 30.662 13.6836L31.3232 13.6843C31.3433 13.6844 31.363 13.6898 31.3801 13.7001C31.3973 13.7104 31.4112 13.7252 31.4204 13.7428Z" fill="#0F80B2"/>
<path d="M9.39416 17.8377L9.3905 19.4941C9.3905 19.5009 9.38914 19.5077 9.38649 19.514C9.38385 19.5203 9.37997 19.526 9.37508 19.5308C9.37019 19.5357 9.36438 19.5395 9.358 19.5421C9.35161 19.5447 9.34476 19.5461 9.33785 19.5461L7.0722 19.5497C7.06337 19.5497 7.05463 19.5479 7.0465 19.5445C7.03837 19.5411 7.03101 19.536 7.02487 19.5297C7.01873 19.5233 7.01393 19.5158 7.01075 19.5076C7.00757 19.4993 7.00609 19.4905 7.00638 19.4817C7.03174 18.7567 7.12218 18.0205 7.27771 17.2731L7.33475 17.0851C7.34206 17.0603 7.35839 17.0479 7.38375 17.0479H9.35467C9.37904 17.0479 9.39123 17.06 9.39123 17.0844L9.39416 17.8377Z" fill="#027E66"/>
<path d="M12.7836 17.0535L12.7807 19.5092C12.7807 19.514 12.7797 19.5186 12.7779 19.523C12.7761 19.5273 12.7734 19.5313 12.77 19.5346C12.7666 19.5379 12.7625 19.5406 12.7581 19.5424C12.7537 19.5442 12.7489 19.5451 12.7441 19.5451H10.3285C10.3229 19.5451 10.3173 19.544 10.312 19.5418C10.3068 19.5396 10.302 19.5364 10.298 19.5324C10.294 19.5284 10.2909 19.5237 10.2887 19.5184C10.2865 19.5132 10.2854 19.5076 10.2854 19.5019L10.2847 17.9347L10.2883 17.0834C10.2883 17.0745 10.2919 17.066 10.2982 17.0597C10.3045 17.0533 10.313 17.0498 10.322 17.0498L12.7836 17.0535Z" fill="#027E66"/>
<path d="M22.9075 17.0504L20.519 17.0546C20.4907 17.0546 20.4678 17.0776 20.4679 17.1059L20.472 19.4958C20.4721 19.5241 20.495 19.547 20.5233 19.5469L22.9118 19.5428C22.9401 19.5427 22.963 19.5198 22.9629 19.4915L22.9587 17.1015C22.9587 17.0733 22.9357 17.0504 22.9075 17.0504Z" fill="#027E66"/>
<path d="M26.2498 17.0528C26.2961 17.0479 26.3195 17.0608 26.32 17.0915C26.3229 17.8774 26.3227 18.6782 26.3193 19.4939C26.3193 19.5059 26.3145 19.5175 26.306 19.526C26.2975 19.5345 26.286 19.5393 26.2739 19.5393L23.8803 19.5415C23.8706 19.5415 23.8613 19.5376 23.8545 19.5307C23.8476 19.5239 23.8438 19.5146 23.8438 19.5049V17.0915C23.8438 17.0871 23.8446 17.0827 23.8463 17.0786C23.848 17.0746 23.8505 17.0709 23.8536 17.0677C23.8567 17.0646 23.8604 17.0621 23.8645 17.0604C23.8686 17.0587 23.873 17.0579 23.8774 17.0579L26.1971 17.0542L26.2498 17.0528Z" fill="#027E66"/>
<path d="M29.7272 17.0548L29.7257 19.5252C29.7257 19.5304 29.7237 19.5355 29.72 19.5392C29.7163 19.5429 29.7112 19.5449 29.706 19.5449L27.2736 19.5464C27.2483 19.5464 27.2356 19.534 27.2356 19.5091V17.1074C27.2312 17.0894 27.2334 17.0753 27.2422 17.065C27.2485 17.0567 27.26 17.0526 27.2765 17.0526C28.0888 17.0443 28.9057 17.045 29.7272 17.0548Z" fill="#027E66"/>
<path d="M32.7756 17.4411C32.8716 17.9817 32.9418 18.5115 32.9862 19.0302C33.0003 19.1945 33.0042 19.3554 32.9979 19.5129C32.9975 19.5221 32.9936 19.5309 32.9869 19.5373C32.9802 19.5437 32.9713 19.5473 32.9621 19.5473L30.6628 19.5451C30.6585 19.5451 30.6542 19.5442 30.6502 19.5426C30.6462 19.5409 30.6426 19.5385 30.6395 19.5354C30.6365 19.5324 30.634 19.5288 30.6324 19.5248C30.6307 19.5208 30.6299 19.5165 30.6299 19.5122L30.6445 17.0505L32.6322 17.0439C32.6664 17.0439 32.6873 17.0605 32.6951 17.0937L32.7756 17.4411Z" fill="#027E66"/>
<path d="M14.218 17.0508L16.1194 17.0574C16.1457 17.0574 16.1589 17.0705 16.1589 17.0969L16.1647 19.4963C16.1648 19.5018 16.1638 19.5072 16.1618 19.5122C16.1598 19.5173 16.1568 19.5219 16.153 19.5258C16.1492 19.5296 16.1446 19.5327 16.1396 19.5348C16.1346 19.5369 16.1292 19.538 16.1238 19.538L13.7316 19.5431C13.7208 19.5431 13.7103 19.5389 13.7027 19.5314C13.695 19.5238 13.6907 19.5136 13.6907 19.5029L13.6855 17.0764L14.218 17.0508Z" fill="#027E66"/>
<path d="M19.4932 17.0494L17.1047 17.0536C17.0752 17.0537 17.0513 17.0776 17.0514 17.1071L17.0555 19.4956C17.0556 19.5251 17.0795 19.5489 17.109 19.5489L19.4975 19.5447C19.527 19.5447 19.5509 19.5207 19.5508 19.4912L19.5466 17.1027C19.5466 17.0733 19.5226 17.0494 19.4932 17.0494Z" fill="#027E66"/>
<path d="M9.38447 22.007L9.38666 22.9153C9.38666 22.9283 9.3815 22.9407 9.37231 22.9499C9.36312 22.9591 9.35066 22.9643 9.33766 22.9643L7.41721 22.965C7.39185 22.965 7.36991 22.9565 7.35139 22.9394C7.32262 22.9126 7.30775 22.8826 7.30678 22.8494C7.14589 22.0664 7.04642 21.2959 7.0084 20.5377C7.0079 20.5282 7.00935 20.5187 7.01265 20.5097C7.01596 20.5008 7.02105 20.4926 7.02762 20.4857C7.03419 20.4788 7.0421 20.4733 7.05086 20.4695C7.05963 20.4658 7.06907 20.4639 7.0786 20.4639L9.32377 20.4712C9.33923 20.4714 9.354 20.4776 9.36493 20.4885C9.37586 20.4995 9.38208 20.5142 9.38227 20.5297L9.38447 22.007Z" fill="#EFBE0A"/>
<path d="M11.3739 22.9614L10.3529 22.9592C10.3389 22.9592 10.3254 22.9536 10.3154 22.9436C10.3055 22.9336 10.2997 22.92 10.2996 22.9058L10.2959 22.4728L10.2988 20.5297C10.2988 20.5157 10.3044 20.5023 10.3142 20.4925C10.3241 20.4826 10.3375 20.477 10.3515 20.477L12.7034 20.4727C12.7527 20.4727 12.7773 20.4973 12.7773 20.5465L12.7765 22.9043C12.7765 22.9174 12.7713 22.9299 12.762 22.9392C12.7527 22.9485 12.7401 22.9538 12.7268 22.954L11.3739 22.9614Z" fill="#EFBE0A"/>
<path d="M16.087 20.4824H13.7716C13.73 20.4824 13.6963 20.5161 13.6963 20.5577V22.8804C13.6963 22.922 13.73 22.9558 13.7716 22.9558H16.087C16.1286 22.9558 16.1623 22.922 16.1623 22.8804V20.5577C16.1623 20.5161 16.1286 20.4824 16.087 20.4824Z" fill="#EFBE0A"/>
<path d="M19.4573 20.4812L17.12 20.4852C17.0845 20.4853 17.0557 20.5142 17.0558 20.5497L17.0599 22.8885C17.0599 22.924 17.0888 22.9528 17.1243 22.9527L19.4616 22.9486C19.4972 22.9486 19.5259 22.9197 19.5259 22.8842L19.5218 20.5454C19.5217 20.5099 19.4929 20.4811 19.4573 20.4812Z" fill="#EFBE0A"/>
<path d="M22.909 20.4866L20.5409 20.4825C20.5135 20.4825 20.4912 20.5047 20.4911 20.5322L20.487 22.9016C20.4869 22.9291 20.5092 22.9514 20.5366 22.9515L22.9047 22.9556C22.9321 22.9556 22.9544 22.9334 22.9545 22.9059L22.9586 20.5365C22.9587 20.509 22.9364 20.4867 22.909 20.4866Z" fill="#EFBE0A"/>
<path d="M26.2496 20.4782L23.902 20.4823C23.8685 20.4824 23.8414 20.5096 23.8414 20.5431L23.8455 22.8965C23.8456 22.93 23.8728 22.9572 23.9063 22.9571L26.2539 22.953C26.2874 22.953 26.3145 22.9257 26.3145 22.8922L26.3104 20.5388C26.3103 20.5053 26.2831 20.4782 26.2496 20.4782Z" fill="#EFBE0A"/>
<path d="M29.6492 20.4795H27.3075C27.2704 20.4795 27.2402 20.5096 27.2402 20.5468V22.8914C27.2402 22.9286 27.2704 22.9587 27.3075 22.9587H29.6492C29.6864 22.9587 29.7165 22.9286 29.7165 22.8914V20.5468C29.7165 20.5096 29.6864 20.4795 29.6492 20.4795Z" fill="#EFBE0A"/>
<path d="M32.8331 22.1857C32.7988 22.4299 32.7322 22.6705 32.6869 22.917C32.6815 22.9467 32.6637 22.9616 32.6335 22.9616L30.7094 22.9557C30.6909 22.9557 30.6733 22.9484 30.6602 22.9354C30.6472 22.9224 30.6399 22.9047 30.6399 22.8863L30.6348 20.5263C30.6348 20.5137 30.6396 20.5016 30.6483 20.4927C30.6569 20.4838 30.6686 20.4787 30.6808 20.4787L32.9553 20.4707C32.9653 20.4707 32.9749 20.4746 32.9822 20.4815C32.9894 20.4885 32.9936 20.498 32.994 20.508C32.9984 20.6942 32.9911 20.8771 32.9721 21.0565C32.9316 21.4407 32.8853 21.8171 32.8331 22.1857Z" fill="#EFBE0A"/>
<path d="M8.53406 26.1606C8.14939 25.4273 7.83613 24.6699 7.59431 23.8884C7.59272 23.883 7.59236 23.8774 7.59325 23.872C7.59415 23.8665 7.59627 23.8613 7.59946 23.8569C7.60265 23.8524 7.60682 23.8488 7.61164 23.8462C7.61645 23.8437 7.62179 23.8423 7.62722 23.8423L9.35241 23.8379C9.36056 23.8379 9.36837 23.8411 9.37413 23.8469C9.37989 23.8526 9.38313 23.8605 9.38313 23.8686L9.39264 26.2739C9.39264 26.2889 9.38678 26.3032 9.37636 26.3138C9.36593 26.3243 9.3518 26.3302 9.33706 26.3302L8.69715 26.3324C8.67131 26.3324 8.64961 26.3227 8.63206 26.3032C8.59403 26.2608 8.56136 26.2132 8.53406 26.1606Z" fill="#E26D0C"/>
<path d="M10.8719 23.8379L12.7353 23.8408C12.7474 23.8408 12.7589 23.8456 12.7674 23.8541C12.7759 23.8626 12.7807 23.8741 12.7807 23.8862L12.7792 25.8834L12.7763 26.2951C12.7763 26.3046 12.7724 26.3138 12.7656 26.3205C12.7587 26.3272 12.7494 26.331 12.7397 26.331L10.3461 26.3317C10.3294 26.3317 10.3134 26.3251 10.3016 26.3133C10.2898 26.3015 10.2832 26.2855 10.2832 26.2688L10.2861 23.8913C10.2861 23.8775 10.2917 23.8643 10.3016 23.8546C10.3114 23.8448 10.3248 23.8394 10.3388 23.8394L10.8719 23.8379Z" fill="#E26D0C"/>
<path d="M16.1682 26.2366C16.1716 26.2576 16.1694 26.2774 16.1616 26.2959C16.1533 26.3154 16.1387 26.3251 16.1177 26.3251L13.749 26.3237C13.7241 26.3237 13.7083 26.3117 13.7014 26.2878C13.6878 26.2362 13.6853 26.1825 13.6941 26.1269L13.6963 23.8825C13.6963 23.873 13.7 23.8639 13.7066 23.8572C13.7132 23.8505 13.7221 23.8467 13.7314 23.8467L16.1228 23.8481C16.1355 23.8481 16.1475 23.8532 16.1565 23.8621C16.1654 23.871 16.1704 23.8831 16.1704 23.8957L16.1682 26.2366Z" fill="#E26D0C"/>
<path d="M17.2699 26.3234C17.1261 26.3405 17.0532 26.3237 17.0513 26.273L17.0549 23.8823C17.0549 23.8718 17.059 23.8617 17.0663 23.8543C17.0735 23.8469 17.0834 23.8428 17.0937 23.8428L19.5005 23.8464C19.5111 23.8464 19.5214 23.8507 19.5289 23.8582C19.5365 23.8658 19.5407 23.876 19.5407 23.8867L19.5378 26.2861C19.5378 26.2962 19.5338 26.3059 19.5268 26.313C19.5199 26.3201 19.5104 26.3242 19.5005 26.3242L17.2699 26.3234Z" fill="#E26D0C"/>
<path d="M22.9609 25.604L22.9572 26.2886C22.9572 26.299 22.953 26.3091 22.9456 26.3165C22.9382 26.3239 22.9282 26.3281 22.9177 26.3281L22.3517 26.3303L20.5109 26.3259C20.5006 26.3259 20.4908 26.3218 20.4835 26.3145C20.4763 26.3072 20.4722 26.2974 20.4722 26.2871L20.4751 23.8774C20.4753 23.8684 20.479 23.8598 20.4854 23.8536C20.4918 23.8473 20.5005 23.8437 20.5095 23.8438L22.9228 23.8445C22.9327 23.8445 22.9422 23.8484 22.9492 23.8554C22.9562 23.8624 22.9601 23.8719 22.9601 23.8818L22.9609 25.604Z" fill="#E26D0C"/>
<path d="M26.32 25.8215V26.2969C26.32 26.3052 26.3167 26.3132 26.3108 26.3191C26.3049 26.325 26.2969 26.3283 26.2886 26.3283H23.8767C23.8671 26.3283 23.858 26.3245 23.8513 26.3178C23.8446 26.3111 23.8408 26.302 23.8408 26.2925L23.8394 25.6218V23.8835C23.8394 23.874 23.8431 23.8649 23.8499 23.8582C23.8566 23.8514 23.8657 23.8477 23.8752 23.8477H26.2871C26.2962 23.8477 26.305 23.8513 26.3114 23.8577C26.3178 23.8642 26.3215 23.8729 26.3215 23.882L26.32 25.8215Z" fill="#E26D0C"/>
<path d="M29.7255 26.194L29.7233 26.2891C29.7229 26.3004 29.7182 26.3112 29.7102 26.3191C29.7021 26.327 29.6914 26.3315 29.6802 26.3315H27.2792C27.2544 26.3315 27.2414 26.319 27.2405 26.2942L27.2324 25.9812V23.8837C27.2324 23.8729 27.2367 23.8624 27.2444 23.8548C27.2521 23.8471 27.2625 23.8428 27.2734 23.8428H29.6728C29.687 23.8428 29.7006 23.8483 29.7106 23.8582C29.7206 23.8681 29.7262 23.8815 29.7262 23.8954L29.7255 26.194Z" fill="#E26D0C"/>
<path d="M31.6403 25.8393L31.4239 26.2664C31.4147 26.2846 31.4005 26.2999 31.3829 26.3105C31.3653 26.3211 31.345 26.3266 31.3244 26.3263L30.626 26.3146L30.6377 23.8793C30.6377 23.8754 30.6385 23.8715 30.64 23.8679C30.6415 23.8642 30.6437 23.8609 30.6465 23.8581C30.6492 23.8553 30.6526 23.8531 30.6562 23.8516C30.6598 23.8501 30.6637 23.8493 30.6677 23.8493L32.3563 23.8369C32.3658 23.8368 32.3752 23.839 32.3837 23.8432C32.3922 23.8474 32.3996 23.8536 32.4052 23.8611C32.4108 23.8687 32.4146 23.8775 32.4161 23.8868C32.4177 23.896 32.417 23.9055 32.4141 23.9144C32.2005 24.5912 31.9426 25.2328 31.6403 25.8393Z" fill="#E26D0C"/>
<path d="M12.7889 27.2756L12.7853 29.7109C12.7853 29.7182 12.7824 29.7253 12.7772 29.7305C12.7719 29.7357 12.7649 29.7387 12.7575 29.7387L11.466 29.7372C11.4182 29.7372 11.372 29.7209 11.3351 29.6911C10.9962 29.42 10.6727 29.0997 10.3646 28.7302C10.3066 28.6604 10.2771 28.5744 10.2761 28.472C10.2717 28.0191 10.2739 27.6125 10.2827 27.2522C10.2829 27.2445 10.2861 27.2373 10.2915 27.2319C10.297 27.2266 10.3043 27.2236 10.312 27.2236L12.7407 27.228C12.7729 27.228 12.7889 27.2439 12.7889 27.2756Z" fill="#C3082F"/>
<path d="M16.125 27.2314H13.7292C13.7029 27.2314 13.6816 27.2527 13.6816 27.279V29.6836C13.6816 29.7098 13.7029 29.7311 13.7292 29.7311H16.125C16.1512 29.7311 16.1725 29.7098 16.1725 29.6836V27.279C16.1725 27.2527 16.1512 27.2314 16.125 27.2314Z" fill="#C3082F"/>
<path d="M17.6778 27.2275L19.5178 27.2305C19.5263 27.2305 19.5345 27.2338 19.5405 27.2397C19.5466 27.2456 19.55 27.2536 19.55 27.2619V29.6943C19.55 29.6998 19.5489 29.7052 19.5468 29.7102C19.5447 29.7153 19.5416 29.7199 19.5377 29.7238C19.5339 29.7276 19.5293 29.7307 19.5242 29.7328C19.5192 29.7349 19.5137 29.736 19.5083 29.736H17.6602L17.0781 29.7345C17.074 29.7345 17.0701 29.7337 17.0663 29.7322C17.0626 29.7307 17.0592 29.7285 17.0564 29.7257C17.0535 29.723 17.0512 29.7196 17.0497 29.716C17.0482 29.7124 17.0474 29.7085 17.0474 29.7045V27.2619C17.0474 27.2542 17.0504 27.2467 17.0559 27.2412C17.0614 27.2357 17.0689 27.2327 17.0766 27.2327L17.6778 27.2275Z" fill="#C3082F"/>
<path d="M22.1583 27.2285L22.9343 27.2314C22.9416 27.2314 22.9487 27.2344 22.9539 27.2396C22.9591 27.2448 22.9621 27.2519 22.9621 27.2592L22.9613 29.6887C22.9613 29.7007 22.9566 29.7122 22.9481 29.7208C22.9396 29.7293 22.928 29.734 22.916 29.734H22.298H20.4924C20.4884 29.734 20.4846 29.7333 20.4809 29.7317C20.4773 29.7302 20.474 29.728 20.4712 29.7252C20.4684 29.7225 20.4662 29.7192 20.4647 29.7155C20.4632 29.7119 20.4624 29.708 20.4624 29.704L20.4631 27.2731C20.4631 27.2444 20.4775 27.23 20.5063 27.23L22.1583 27.2285Z" fill="#C3082F"/>
<path d="M26.2876 27.2308L23.8815 27.2266C23.8569 27.2266 23.8369 27.2465 23.8368 27.2712L23.8326 29.6875C23.8326 29.7121 23.8525 29.7321 23.8772 29.7322L26.2832 29.7364C26.3078 29.7364 26.3278 29.7165 26.3279 29.6918L26.3321 27.2755C26.3322 27.2509 26.3122 27.2309 26.2876 27.2308Z" fill="#C3082F"/>
<path d="M29.6675 28.7175C29.4432 28.9817 29.1726 29.2594 28.8557 29.5505C28.7438 29.6536 28.6509 29.7326 28.4878 29.7348C28.0617 29.7411 27.6561 29.7421 27.2709 29.7377C27.2402 29.7377 27.2249 29.7221 27.2249 29.6909L27.2241 27.268C27.2241 27.2397 27.2385 27.2256 27.2673 27.2256H29.7157C29.7188 27.2256 29.7218 27.2262 29.7246 27.2273C29.7274 27.2285 29.7299 27.2302 29.732 27.2323C29.7342 27.2344 29.7358 27.2369 29.7369 27.2396C29.738 27.2424 29.7385 27.2453 29.7384 27.2483L29.7355 28.5317C29.7355 28.5997 29.7114 28.6655 29.6675 28.7175Z" fill="#C3082F"/>
<path d="M16.1291 32.4243C15.2998 32.161 14.4998 31.8166 13.7282 31.3997C13.7014 31.3856 13.688 31.3634 13.688 31.3332V30.6801C13.688 30.6421 13.7068 30.623 13.7443 30.623L16.1182 30.6252C16.1484 30.6252 16.1635 30.6406 16.1635 30.6713L16.1664 32.3965C16.1664 32.4011 16.1653 32.4056 16.1632 32.4097C16.1612 32.4138 16.1582 32.4173 16.1546 32.42C16.151 32.4227 16.1468 32.4245 16.1423 32.4253C16.1379 32.426 16.1334 32.4257 16.1291 32.4243Z" fill="#9F0B2D"/>
<path d="M17.717 30.6211L19.5058 30.6226C19.5171 30.6226 19.5279 30.6269 19.5358 30.6348C19.5438 30.6426 19.5483 30.6532 19.5483 30.6642L19.5475 32.9569C19.5475 32.9645 19.546 32.972 19.5431 32.9789C19.5401 32.9859 19.5358 32.9921 19.5304 32.9973C19.525 33.0025 19.5186 33.0065 19.5116 33.0092C19.5046 33.0118 19.4972 33.0129 19.4897 33.0125C18.8111 32.9735 18.1497 32.896 17.5057 32.78L17.0764 32.6966C17.0692 32.6951 17.0627 32.6912 17.058 32.6856C17.0534 32.68 17.0508 32.6731 17.0508 32.6659L17.0544 30.6723C17.0544 30.643 17.0693 30.6282 17.099 30.6277L17.717 30.6211Z" fill="#9F0B2D"/>
<path d="M22.4109 30.623L22.9148 30.6267C22.9426 30.6272 22.9565 30.6413 22.9565 30.6691L22.9572 32.651C22.9572 32.6729 22.9465 32.6861 22.925 32.6905L22.7444 32.7315C22.016 32.8811 21.2788 32.9743 20.5329 33.0108C20.5237 33.0112 20.5145 33.0097 20.5059 33.0065C20.4973 33.0033 20.4895 32.9983 20.4829 32.992C20.4762 32.9856 20.471 32.978 20.4674 32.9695C20.4638 32.9611 20.4619 32.952 20.4619 32.9428L20.4656 30.6757C20.4656 30.6627 20.4707 30.6502 20.4799 30.6411C20.4891 30.6319 20.5016 30.6267 20.5146 30.6267L22.4109 30.623Z" fill="#9F0B2D"/>
<path d="M26.2854 31.4065C25.5212 31.819 24.7211 32.1583 23.8896 32.426C23.8845 32.4276 23.8791 32.4281 23.8739 32.4272C23.8686 32.4264 23.8636 32.4244 23.8594 32.4213C23.8551 32.4183 23.8516 32.4142 23.8492 32.4096C23.8469 32.4049 23.8456 32.3998 23.8457 32.3946L23.8464 30.6752C23.8464 30.643 23.8628 30.627 23.8954 30.627L26.2708 30.6211C26.3083 30.6206 26.3271 30.6391 26.3271 30.6767V31.3363C26.3271 31.3507 26.3233 31.3648 26.3159 31.3772C26.3086 31.3895 26.298 31.3997 26.2854 31.4065Z" fill="#9F0B2D"/>
<circle cx="20" cy="20" r="19.5" stroke="black" stroke-opacity="0.05"/>
</svg>
