<svg width="40" height="40" viewBox="0 0 40 40" fill="none" xmlns="http://www.w3.org/2000/svg">
<circle cx="20" cy="20" r="20" fill="#009ACE"/>
<g clip-path="url(#clip0_9_387308)">
<path d="M18.2605 15.6241C18.7779 15.6241 19.1973 15.2061 19.1973 14.6905C19.1973 14.1748 18.7779 13.7568 18.2605 13.7568C17.7431 13.7568 17.3237 14.1748 17.3237 14.6905C17.3237 15.2061 17.7431 15.6241 18.2605 15.6241Z" fill="white"/>
<path d="M15.7415 13.9004H14.3497C14.3166 13.9004 14.2898 13.9271 14.2898 13.9601V23.222C14.2898 23.255 14.3166 23.2817 14.3497 23.2817H15.7415C15.7746 23.2817 15.8015 23.255 15.8015 23.222V13.9601C15.8015 13.9271 15.7746 13.9004 15.7415 13.9004Z" fill="white"/>
<path d="M25.2709 17.4107V16.8964C25.2709 16.853 25.2927 16.8317 25.3362 16.8324L26.7151 16.8356C26.7304 16.8359 26.7449 16.8421 26.7557 16.8528C26.7665 16.8635 26.7727 16.878 26.7729 16.8932C26.7779 18.922 26.7754 20.9625 26.7655 23.0148C26.7647 23.2567 26.7005 23.6113 26.5727 24.0786C25.8897 26.5872 22.8867 26.7078 20.9468 25.852C20.9264 25.8429 20.91 25.8267 20.9008 25.8062C20.8915 25.7858 20.89 25.7627 20.8965 25.7411L21.2369 24.5951C21.2395 24.5858 21.2442 24.5773 21.2506 24.5702C21.257 24.5631 21.265 24.5575 21.274 24.5539C21.283 24.5503 21.2927 24.5488 21.3024 24.5494C21.3121 24.5501 21.3216 24.5529 21.3301 24.5577C22.6523 25.3228 25.0097 25.3153 25.2474 23.2976C25.2716 23.0906 25.2805 22.8825 25.2741 22.6733C25.2741 22.6663 25.272 22.6595 25.268 22.6537C25.264 22.648 25.2583 22.6435 25.2516 22.641C25.245 22.6385 25.2376 22.638 25.2306 22.6396C25.2235 22.6412 25.2171 22.6447 25.212 22.6499C24.8338 23.0511 24.3666 23.3022 23.8106 23.4032C20.9725 23.9207 19.5004 20.901 20.4319 18.5856C20.8265 17.6053 21.5224 16.9886 22.5195 16.7353C23.4573 16.4963 24.499 16.7428 25.211 17.4364C25.2509 17.4755 25.2709 17.4669 25.2709 17.4107ZM23.5289 22.1356C24.0189 22.1338 24.4882 21.913 24.8333 21.5216C25.1785 21.1302 25.3713 20.6003 25.3694 20.0484C25.3684 19.7752 25.3197 19.5048 25.2259 19.2527C25.1322 19.0005 24.9953 18.7716 24.823 18.579C24.6508 18.3864 24.4465 18.2339 24.222 18.1301C23.9974 18.0263 23.7569 17.9733 23.5143 17.9742C23.0242 17.9759 22.555 18.1967 22.2098 18.5881C21.8646 18.9795 21.6718 19.5094 21.6737 20.0613C21.6747 20.3345 21.7234 20.6049 21.8172 20.857C21.9109 21.1092 22.0478 21.3381 22.2201 21.5307C22.3924 21.7233 22.5966 21.8758 22.8212 21.9796C23.0457 22.0834 23.2862 22.1364 23.5289 22.1356Z" fill="white"/>
<path d="M11.0834 17.436L11.0898 16.9068C11.0901 16.8858 11.0986 16.8657 11.1134 16.8509C11.1282 16.8361 11.1482 16.8278 11.169 16.8278L12.5394 16.83C12.5533 16.83 12.5666 16.8356 12.5765 16.8456C12.5863 16.8556 12.5919 16.8692 12.5919 16.8833L12.5865 23.2279C12.5865 23.2418 12.5809 23.2551 12.5708 23.2649C12.5608 23.2747 12.5472 23.2802 12.533 23.2802H11.1658C11.1442 23.2802 11.1233 23.2717 11.1079 23.2565C11.0925 23.2413 11.0837 23.2207 11.0834 23.1991L11.0802 22.6912C11.0801 22.6839 11.0779 22.6769 11.0738 22.6708C11.0698 22.6648 11.064 22.6601 11.0573 22.6573C11.0506 22.6545 11.0433 22.6536 11.0361 22.6549C11.0289 22.6562 11.0223 22.6595 11.017 22.6645C10.1552 23.4861 8.90154 23.6814 7.82988 23.1959C4.8879 21.8642 5.54096 16.6923 9.02358 16.6496C9.78299 16.6404 10.4546 16.9089 11.0384 17.4553C11.0422 17.4588 11.047 17.4611 11.0521 17.462C11.0572 17.4629 11.0624 17.4622 11.0672 17.4602C11.0719 17.4582 11.076 17.4548 11.0789 17.4505C11.0818 17.4462 11.0833 17.4412 11.0834 17.436ZM9.3484 22.1353C9.59134 22.1348 9.83181 22.0806 10.0561 21.9756C10.2803 21.8707 10.484 21.7171 10.6555 21.5236C10.8269 21.33 10.9628 21.1004 11.0553 20.8478C11.1478 20.5952 11.1952 20.3246 11.1947 20.0513C11.1938 19.4995 10.9979 18.9706 10.6503 18.581C10.3027 18.1914 9.83176 17.973 9.34112 17.9738C9.09818 17.9743 8.85771 18.0285 8.63344 18.1334C8.40917 18.2384 8.2055 18.392 8.03405 18.5855C7.8626 18.779 7.72674 19.0087 7.63421 19.2613C7.54168 19.5139 7.4943 19.7845 7.49478 20.0578C7.49575 20.6096 7.69158 21.1385 8.0392 21.5281C8.38682 21.9177 8.85776 22.1361 9.3484 22.1353Z" fill="white"/>
<path d="M30.0104 17.3548C30.5414 16.7821 31.2376 16.5591 32.0991 16.6858C33.4705 16.8874 34.0379 17.9118 34.0294 19.1954C34.0208 20.574 34.0201 21.9149 34.0272 23.2181C34.0279 23.2587 34.0076 23.2793 33.9662 23.28L32.6033 23.2843C32.5928 23.2843 32.5828 23.2801 32.5753 23.2727C32.5679 23.2653 32.5637 23.2553 32.5637 23.2448C32.5652 21.9843 32.5669 20.728 32.5691 19.476C32.5702 18.887 32.3796 18.329 31.8025 18.1017C31.0692 17.8136 30.1934 18.1508 30.0382 18.9404C29.9897 19.1887 29.9683 19.5273 29.974 19.9562C29.9883 21.0396 29.9908 22.1305 29.9815 23.2288C29.9808 23.2651 29.9622 23.2832 29.9258 23.2832L28.5116 23.28C28.5025 23.28 28.4938 23.2764 28.4873 23.27C28.4809 23.2636 28.4773 23.2549 28.4773 23.2459L28.4794 16.8853C28.4794 16.8784 28.4808 16.8716 28.4834 16.8653C28.4861 16.8589 28.4899 16.8532 28.4948 16.8483C28.4997 16.8435 28.5055 16.8396 28.5118 16.837C28.5182 16.8344 28.525 16.833 28.5319 16.833H29.8487C29.8679 16.833 29.8863 16.8404 29.9003 16.8537C29.9142 16.867 29.9226 16.8852 29.9237 16.9045L29.944 17.3313C29.9469 17.3911 29.969 17.3989 30.0104 17.3548Z" fill="white"/>
<path d="M18.9523 16.832H17.5605C17.5286 16.832 17.5027 16.8578 17.5027 16.8897V23.2214C17.5027 23.2532 17.5286 23.279 17.5605 23.279H18.9523C18.9842 23.279 19.0101 23.2532 19.0101 23.2214V16.8897C19.0101 16.8578 18.9842 16.832 18.9523 16.832Z" fill="white"/>
</g>
<circle cx="20" cy="20" r="19.5" stroke="black" stroke-opacity="0.05"/>
<defs>
<clipPath id="clip0_9_387308">
<rect width="29.6471" height="14" fill="white" transform="translate(5.17676 13)"/>
</clipPath>
</defs>
</svg>
