<svg width="40" height="40" viewBox="0 0 40 40" fill="none" xmlns="http://www.w3.org/2000/svg">
<circle cx="20" cy="20" r="20" fill="#F6F8FA"/>
<g clip-path="url(#clip0_9_396303)">
<path d="M20.1002 15.4996C20.1002 15.4996 18.146 14.6639 17.831 12.4717C17.516 10.286 16.4424 9.71387 16.4424 9.71387C16.4424 9.71387 18.416 9.98387 18.7695 12.2274C19.1231 14.4774 20.0938 15.4932 20.0938 15.4932L20.1002 15.4996Z" fill="#4A4939"/>
<path d="M15.5996 14.5739C15.5996 14.5739 17.541 14.5032 18.5246 12.8832C19.5082 11.276 20.6139 11.1475 20.6139 11.1475C20.6139 11.1475 18.8396 10.7618 17.8046 12.4139C16.776 14.066 15.606 14.5739 15.606 14.5739H15.5996Z" fill="#B6B76C"/>
<path d="M21.5591 19.5824C21.5591 19.5824 21.2634 17.5831 22.9413 16.1946C24.6127 14.8188 24.5484 13.6553 24.5484 13.6553C24.5484 13.6553 25.3456 15.3846 23.6291 16.8246C21.9191 18.271 21.5591 19.5824 21.5591 19.5824Z" fill="#4A4939"/>
<path d="M20.0166 15.4873C20.0166 15.4873 21.0837 17.0109 22.9545 16.9659C24.8187 16.9273 25.5002 17.7502 25.5002 17.7502C25.5002 17.7502 24.9023 16.1302 22.9737 16.143C21.0452 16.1687 20.0166 15.4873 20.0166 15.4873Z" fill="#B6B76C"/>
<path d="M15.1689 24.0762C15.1689 24.0762 17.3354 24.0762 18.5504 26.0047C19.7525 27.914 20.9932 28.0297 20.9932 28.0297C20.9932 28.0297 19.0389 28.5633 17.7789 26.6026C16.5061 24.6419 15.1689 24.0762 15.1689 24.0762Z" fill="#4A4939"/>
<path d="M19.7529 23.1504C19.7529 23.1504 17.9721 23.9861 17.7279 25.8954C17.4771 27.7918 16.5 28.3575 16.5 28.3575C16.5 28.3575 18.3129 28.004 18.5893 26.0432C18.8657 24.0825 19.7464 23.1504 19.7464 23.1504H19.7529Z" fill="#B6B76C"/>
<path d="M11.7752 22.0312C11.7752 22.0312 13.1895 23.3877 12.7266 25.4062C12.2638 27.4055 13.003 28.2605 13.003 28.2605C13.003 28.2605 11.3702 27.3862 11.8266 25.3098C12.2766 23.2334 11.7752 22.0312 11.7752 22.0312Z" fill="#4A4939"/>
<path d="M15.3817 24.288C15.3817 24.288 13.6653 23.7223 12.2574 24.8151C10.856 25.908 9.84668 25.6637 9.84668 25.6637C9.84668 25.6637 11.261 26.5637 12.7267 25.458C14.1924 24.3523 15.3817 24.288 15.3817 24.288Z" fill="#B6B76C"/>
<path d="M12.7139 17.4928C12.7139 17.4928 11.9746 19.5178 9.67314 19.9999C7.39099 20.4756 6.85742 21.6006 6.85742 21.6006C6.85742 21.6006 6.99885 19.5885 9.35171 19.0678C11.7046 18.5535 12.7139 17.4863 12.7139 17.4863V17.4928Z" fill="#4A4939"/>
<path d="M12.0644 22.0958C12.0644 22.0958 11.8458 20.1416 10.0651 19.2673C8.2844 18.3866 8.06583 17.2744 8.06583 17.2744C8.06583 17.2744 7.79583 19.1001 9.62154 20.0258C11.4473 20.9516 12.0644 22.0958 12.0644 22.0958Z" fill="#B6B76C"/>
<path d="M15.6193 14.5741C15.6193 14.5741 13.8579 15.7569 11.7686 14.8634C9.69857 13.9762 8.625 14.5612 8.625 14.5612C8.625 14.5612 9.90429 13.0569 12.0579 13.9505C14.2114 14.8505 15.6193 14.5741 15.6193 14.5741Z" fill="#4A4939"/>
<path d="M12.4372 17.8402C12.4372 17.8402 13.3951 16.1817 12.5015 14.4974C11.6143 12.8259 12.0836 11.8359 12.0836 11.8359C12.0836 11.8359 10.8172 13.1217 11.7108 14.8574C12.6108 16.5931 12.4372 17.8402 12.4372 17.8402Z" fill="#B6B76C"/>
<path d="M19.0713 21.9289L20.0484 19.3574H20.6656L21.6427 21.9289H20.9934L20.222 19.711H20.4791L19.7013 21.9289H19.0713ZM19.5856 21.286L19.7527 20.6431H20.8327L20.9934 21.286H19.5856ZM22.2856 21.9289V19.3574H22.9284V21.286H24.2141V21.9289H22.2856ZM24.857 21.9289V19.3574H25.8341C26.2841 19.3574 26.7856 19.621 26.7856 20.3089C26.7856 20.9903 26.2584 21.286 25.8213 21.286H25.1784L25.4999 20.9388V21.9289H24.857ZM25.4999 21.016L25.1784 20.6431H25.7827C26.0399 20.6431 26.1684 20.5403 26.1684 20.3089C26.1684 20.071 26.0527 20.0003 25.7956 20.0003H25.1913L25.4999 19.5953V21.016ZM27.4284 21.9289V19.3574H28.0713V21.9289H27.4284ZM28.7141 21.9289V19.3574H29.357L30.8356 21.0674H30.6427V19.3574H31.2856V21.9289H30.6427L29.1641 20.2189H29.357V21.9289H28.7141ZM32.5713 20.3217H33.857V20.9646H32.5713V20.3217ZM32.5713 21.286H33.857V21.9289H31.9284V19.3574H33.857V20.0003H32.5713V21.286Z" fill="#B2AE44"/>
<path d="M22.286 24.4999V22.5713H22.6074V24.4999H22.286ZM25.0246 23.2141C25.346 23.2141 25.5003 23.4713 25.5003 23.7734V24.4999H25.1789V23.812C25.1789 23.587 25.1403 23.4713 24.9731 23.4713C24.7353 23.4713 24.6903 23.6641 24.6903 23.857V24.4999H24.3689V23.812C24.3689 23.587 24.3046 23.4713 24.1439 23.4713C23.9253 23.4713 23.8931 23.6641 23.8931 23.857V24.4999H23.5717V23.2141H23.8931V23.5677L23.7839 23.4649C23.861 23.2977 24.0153 23.2141 24.2081 23.2141C24.4267 23.2141 24.5938 23.3299 24.6453 23.5677L24.5424 23.5291C24.6131 23.3363 24.7996 23.2141 25.0246 23.2141ZM27.596 23.2141C27.9174 23.2141 28.0717 23.4713 28.0717 23.7734V24.4999H27.7503V23.812C27.7503 23.587 27.7117 23.4713 27.5446 23.4713C27.3067 23.4713 27.2617 23.6641 27.2617 23.857V24.4999H26.9403V23.812C26.9403 23.587 26.876 23.4713 26.7153 23.4713C26.4967 23.4713 26.4646 23.6641 26.4646 23.857V24.4999H26.1431V23.2141H26.4646V23.5677L26.3553 23.4649C26.4324 23.2977 26.5867 23.2141 26.7796 23.2141C26.9981 23.2141 27.1653 23.3299 27.2167 23.5677L27.1138 23.5291C27.1846 23.3363 27.371 23.2141 27.596 23.2141ZM29.3574 24.4999C28.7146 24.4999 28.7146 24.1784 28.7146 23.857V23.2141H29.036V23.8441C29.036 24.1784 29.1646 24.2427 29.3574 24.2427C29.5824 24.2427 29.6789 24.1784 29.6789 23.857V23.2141H30.0003V23.857C30.0003 24.1784 30.0003 24.4999 29.3574 24.4999ZM31.3824 23.2141C31.7167 23.2141 31.9289 23.4391 31.9289 23.7734V24.4999H31.6074V23.812C31.6074 23.587 31.511 23.4713 31.3117 23.4713C31.0867 23.4713 30.9646 23.632 30.9646 23.857V24.4999H30.6431V23.2141H30.9646V23.5741L30.881 23.4649C30.9774 23.3041 31.1574 23.2141 31.3824 23.2141ZM33.266 24.4999C32.8867 24.4999 32.5717 24.2427 32.5717 23.857C32.5717 23.4841 32.8546 23.2141 33.221 23.2141C33.3103 23.2117 33.399 23.2285 33.4812 23.2634C33.5634 23.2982 33.6372 23.3503 33.6976 23.4161C33.7579 23.482 33.8034 23.56 33.831 23.6449C33.8586 23.7298 33.8676 23.8197 33.8574 23.9084V23.947H32.8031V23.7541H33.7031L33.581 23.8184C33.581 23.6127 33.4267 23.4713 33.221 23.4713C33.0088 23.4713 32.8931 23.6127 32.8931 23.8249V23.8699C32.8931 24.1077 33.0474 24.2427 33.2788 24.2427C33.4138 24.2427 33.5296 24.2106 33.6131 24.1141L33.7738 24.2941C33.7096 24.3637 33.6307 24.4183 33.5429 24.4538C33.4551 24.4894 33.3606 24.5051 33.266 24.4999ZM21.0131 27.0713C20.8846 27.0713 20.7753 27.052 20.6724 27.007C20.5827 26.9651 20.5052 26.9009 20.4474 26.8206C20.3906 26.7419 20.3592 26.6476 20.3574 26.5506H20.621C20.6274 26.6406 20.666 26.7113 20.7303 26.7756C20.7946 26.8334 20.891 26.8656 21.0131 26.8656C21.1289 26.8656 21.2253 26.8334 21.2896 26.7756C21.3539 26.7113 21.3924 26.647 21.3924 26.5506C21.3949 26.4845 21.3719 26.4201 21.3281 26.3706C21.2895 26.3259 21.2411 26.2907 21.1867 26.2677L20.9424 26.197C20.8139 26.1649 20.7174 26.1327 20.6403 26.1006C20.5641 26.066 20.4978 26.013 20.4474 25.9463C20.3913 25.8631 20.3642 25.7636 20.3703 25.6634C20.3692 25.5675 20.3968 25.4735 20.4495 25.3933C20.5021 25.3131 20.5775 25.2505 20.666 25.2134C20.7624 25.162 20.8717 25.1427 20.9939 25.1427C21.1739 25.1427 21.3153 25.1877 21.431 25.2713C21.5467 25.3613 21.611 25.4834 21.6238 25.6249H21.3538C21.3484 25.5866 21.3354 25.5498 21.3155 25.5167C21.2956 25.4836 21.2693 25.4548 21.2381 25.432C21.1619 25.3764 21.0687 25.3491 20.9746 25.3549C20.8824 25.349 20.7911 25.3763 20.7174 25.432C20.6531 25.4899 20.621 25.5606 20.621 25.657C20.621 25.7213 20.6403 25.7856 20.6789 25.8241C20.7174 25.8691 20.7688 25.9013 20.8203 25.927L21.0646 25.9977L21.3667 26.1006C21.4527 26.1354 21.5256 26.1963 21.5752 26.2747C21.6248 26.3531 21.6486 26.4451 21.6431 26.5377C21.6431 26.6277 21.6174 26.7177 21.5724 26.7949C21.5195 26.8803 21.4438 26.9494 21.3538 26.9941C21.2574 27.0456 21.1417 27.0713 21.0131 27.0713ZM22.286 26.4284C22.286 26.0427 22.5753 25.7856 22.9481 25.7856C23.2824 25.7856 23.501 25.9463 23.5717 26.2034H23.3274C23.2824 26.0556 23.1474 25.9591 22.9417 25.9591C22.6846 25.9591 22.5174 26.1263 22.5174 26.4284C22.5174 26.7241 22.691 26.8977 22.9481 26.8977C23.141 26.8977 23.2824 26.8077 23.3338 26.6534H23.5717C23.501 26.9106 23.276 27.0713 22.9481 27.0713C22.5689 27.0713 22.286 26.8077 22.286 26.4284ZM26.1431 26.3834L26.1367 26.5056H25.0824C25.0953 26.7499 25.2753 26.8913 25.5067 26.8913C25.6996 26.8913 25.8281 26.8013 25.8796 26.6663H26.1174C26.0467 26.9041 25.8281 27.0713 25.5067 27.0713C25.4213 27.0739 25.3362 27.0591 25.2567 27.0279C25.1771 26.9966 25.1048 26.9494 25.044 26.8893C24.9833 26.8291 24.9354 26.7573 24.9033 26.678C24.8713 26.5988 24.8556 26.5139 24.8574 26.4284C24.8574 26.0427 25.1338 25.7856 25.5067 25.7856C25.8538 25.7856 26.1431 26.0234 26.1431 26.3834ZM25.9181 26.3384C25.9181 26.107 25.7253 25.9591 25.5003 25.9591C25.4479 25.9566 25.3956 25.9643 25.3462 25.982C25.2969 25.9996 25.2515 26.0269 25.2127 26.0621C25.1739 26.0973 25.1424 26.1399 25.12 26.1873C25.0977 26.2347 25.0849 26.2861 25.0824 26.3384H25.9181ZM27.4867 25.7856C27.8339 25.7856 28.0717 25.9784 28.0717 26.3256V27.0713H27.8339V26.3577C27.8339 26.1006 27.6796 25.972 27.4353 25.972C27.1846 25.972 27.0238 26.107 27.0238 26.3706V27.0713H26.786V25.7856H27.0238V25.9913C27.1203 25.8627 27.2939 25.7856 27.4867 25.7856ZM28.7146 26.4284C28.7146 26.0427 29.0038 25.7856 29.3767 25.7856C29.711 25.7856 29.9296 25.9463 30.0003 26.2034H29.756C29.711 26.0556 29.576 25.9591 29.3703 25.9591C29.1131 25.9591 28.946 26.1263 28.946 26.4284C28.946 26.7241 29.1196 26.8977 29.3767 26.8977C29.5696 26.8977 29.711 26.8077 29.7624 26.6534H30.0003C29.9296 26.9106 29.7046 27.0713 29.3767 27.0713C28.9974 27.0713 28.7146 26.8077 28.7146 26.4284ZM31.9289 26.3834L31.9224 26.5056H30.8681C30.881 26.7499 31.061 26.8913 31.2924 26.8913C31.4853 26.8913 31.6139 26.8013 31.6653 26.6663H31.9031C31.8324 26.9041 31.6138 27.0713 31.2924 27.0713C31.207 27.0739 31.1219 27.0591 31.0424 27.0279C30.9628 26.9966 30.8905 26.9494 30.8297 26.8893C30.769 26.8291 30.7211 26.7573 30.6891 26.678C30.657 26.5988 30.6414 26.5139 30.6431 26.4284C30.6431 26.0427 30.9196 25.7856 31.2924 25.7856C31.6396 25.7856 31.9289 26.0234 31.9289 26.3834ZM31.7039 26.3384C31.7039 26.107 31.511 25.9591 31.286 25.9591C31.2336 25.9566 31.1813 25.9643 31.1319 25.982C31.0826 25.9996 31.0372 26.0269 30.9984 26.0621C30.9596 26.0973 30.9281 26.1399 30.9057 26.1873C30.8834 26.2347 30.8706 26.2861 30.8681 26.3384H31.7039ZM33.356 27.0713C33.2531 27.0713 33.1631 27.0584 33.0731 27.0263C32.9981 26.9959 32.9319 26.9473 32.8803 26.8849C32.8319 26.829 32.8027 26.7592 32.7967 26.6856H33.0346C33.0346 26.7499 33.0731 26.7949 33.1246 26.8399C33.1889 26.8784 33.2596 26.8977 33.356 26.8977C33.4396 26.8977 33.5103 26.8784 33.5617 26.8463C33.6067 26.8077 33.6324 26.7627 33.6324 26.7177C33.6324 26.6534 33.6067 26.6149 33.5553 26.5891C33.4749 26.5539 33.3908 26.528 33.3046 26.512C33.2218 26.4932 33.1403 26.4696 33.0603 26.4413C32.9969 26.4152 32.9399 26.3757 32.8931 26.3256C32.8485 26.2715 32.8256 26.2027 32.8289 26.1327C32.8289 26.0684 32.8481 26.0106 32.8931 25.9591C32.9385 25.9016 32.9984 25.8572 33.0667 25.8306C33.1439 25.7984 33.2274 25.7856 33.3238 25.7856C33.4781 25.7856 33.6003 25.8177 33.6967 25.8884C33.7867 25.9591 33.8381 26.0556 33.8446 26.1777H33.6196C33.6131 26.1134 33.581 26.062 33.5296 26.017C33.4672 25.9748 33.3926 25.9545 33.3174 25.9591C33.2495 25.9574 33.1826 25.9753 33.1246 26.0106C33.0731 26.0427 33.0539 26.0813 33.0539 26.1391C33.0539 26.1713 33.0667 26.2034 33.0924 26.2356L33.2017 26.2999L33.3946 26.3513L33.6324 26.422C33.6967 26.4477 33.7417 26.4863 33.7867 26.5313C33.8317 26.5763 33.851 26.6341 33.8574 26.7113C33.8574 26.7756 33.8381 26.8399 33.7931 26.8977C33.7475 26.955 33.6877 26.9994 33.6196 27.0263C33.5424 27.0584 33.4524 27.0713 33.3624 27.0713H33.356ZM24.446 25.7856V27.0713H24.2146V25.7856H24.446Z" fill="black"/>
<path d="M24.3296 25.374C24.3935 25.374 24.4453 25.3222 24.4453 25.2583C24.4453 25.1944 24.3935 25.1426 24.3296 25.1426C24.2657 25.1426 24.2139 25.1944 24.2139 25.2583C24.2139 25.3222 24.2657 25.374 24.3296 25.374Z" fill="black"/>
</g>
<circle cx="20" cy="20" r="19.5" stroke="black" stroke-opacity="0.05"/>
<defs>
<clipPath id="clip0_9_396303">
<rect width="28" height="20" fill="white" transform="translate(6 9)"/>
</clipPath>
</defs>
</svg>
