<svg width="40" height="40" viewBox="0 0 40 40" fill="none" xmlns="http://www.w3.org/2000/svg">
<circle cx="20" cy="20" r="20" fill="#E4701E"/>
<g clip-path="url(#clip0_9_393189)">
<path d="M20.717 14.2112C20.3052 13.7994 19.6316 13.7994 19.2217 14.2112L9.45703 24.7159L13.624 23.9588C13.624 23.9588 18.1269 19.2947 19.0851 18.2624C19.4229 17.9152 19.6961 17.8525 19.9694 17.8525C20.2426 17.8525 20.5804 17.9152 20.8536 18.2624C21.81 19.2207 26.3147 23.9588 26.3147 23.9588L30.4817 24.7159L20.717 14.2112Z" fill="white"/>
<path fill-rule="evenodd" clip-rule="evenodd" d="M34.4477 26.0838C33.7646 27.2527 32.5331 28.0098 32.4591 28.0098C32.3225 28.0098 31.9866 28.2109 31.5123 28.4841C29.1878 29.7251 23.7267 32.6739 22.0208 33.2944C21.3377 33.4936 20.6527 33.6303 20.0322 33.6303H19.9696C19.2845 33.6303 18.6754 33.4936 17.9904 33.2944C16.2124 32.6739 10.814 29.7251 8.49897 28.4841C8.0151 28.2109 7.67923 28.0743 7.60523 28.0098C7.60523 27.9358 6.38512 27.2527 5.6261 26.0212C4.94299 24.9149 5.017 23.6094 5.017 23.5468V17.0212C5.017 17.0212 5.017 15.727 5.56348 14.5582C6.24849 13.3893 7.4781 12.6322 7.54261 12.6322C7.67923 12.6322 8.0151 12.431 8.49897 12.1578C10.814 10.9149 16.2864 7.96802 17.9904 7.34753C18.6754 7.14829 19.3586 7.00977 19.9696 7.00977H20.0322C20.7172 7.00977 21.3377 7.14829 22.0208 7.34753C23.7267 7.96802 29.1878 10.9149 31.5123 12.1578C31.9866 12.431 32.3225 12.6322 32.3965 12.6322C32.3965 12.7062 33.628 13.3893 34.3756 14.6208C34.9961 15.727 34.9961 16.9585 34.9961 17.0952V23.6094C34.9961 23.6094 35.0587 24.9149 34.4477 26.0838ZM34.0379 17.0952C34.0379 17.0952 34.0379 16.0629 33.554 15.2413C32.943 14.3475 31.9866 13.6625 31.924 13.6625C31.924 13.6625 31.7855 13.5885 31.6489 13.5259C26.3889 10.6416 22.8424 8.86366 21.6735 8.4424C21.1271 8.24126 20.5806 8.16916 20.0322 8.16916H19.8329C19.2845 8.16916 18.7381 8.24126 18.1916 8.4424C17.0341 8.86366 13.4876 10.6416 8.22572 13.5259C8.0891 13.5885 8.0151 13.6625 7.95248 13.6625C7.81586 13.7991 6.8576 14.4215 6.38512 15.2413C5.90125 16.0003 5.90125 17.0212 5.90125 17.0952V23.6094C5.90125 23.6834 5.90125 24.7156 6.38512 25.4633C6.99422 26.431 7.95248 27.042 8.0151 27.042C8.0151 27.042 8.15172 27.116 8.28834 27.1786C13.5502 30.0629 17.0967 31.8523 18.2656 32.2621C18.8121 32.4633 19.3586 32.5373 19.8956 32.5373H19.9696C20.516 32.5373 21.0644 32.4633 21.6109 32.2621C22.4952 31.9889 24.8842 30.82 31.5768 27.1786C31.7855 27.116 31.85 27.042 31.924 27.042C32.0606 26.9054 33.0075 26.2944 33.4914 25.4633C33.9639 24.7156 33.9639 23.6834 33.9639 23.6094L34.0379 17.0952Z" fill="white"/>
<path d="M27.3455 17.1691C26.4384 17.1691 25.7041 16.4328 25.7041 15.5201C25.7041 14.6093 26.4384 13.873 27.3455 13.873C28.2544 13.873 28.9868 14.6093 28.9868 15.5201C28.9868 16.4328 28.2544 17.1691 27.3455 17.1691Z" fill="white"/>
</g>
<circle cx="20" cy="20" r="19.5" stroke="black" stroke-opacity="0.05"/>
<defs>
<clipPath id="clip0_9_393189">
<rect width="30" height="26.6414" fill="white" transform="translate(5 7)"/>
</clipPath>
</defs>
</svg>
