<svg width="40" height="40" viewBox="0 0 40 40" fill="none" xmlns="http://www.w3.org/2000/svg">
<circle cx="20" cy="20" r="20" fill="#F6F8FA"/>
<g clip-path="url(#clip0_9_405902)">
<path d="M22.2199 19.4613C20.001 16.6727 16.0136 17.0327 14.9038 20.4202C14.9038 20.4807 14.8438 20.5104 14.7838 20.5104C14.6936 20.5104 14.6341 20.4504 14.6341 20.3613C14.5741 13.7944 22.3398 13.1042 24.6787 17.3024C24.7987 17.6019 24.9187 17.8722 24.9187 18.2019C24.9187 19.1013 24.169 19.851 23.2696 19.851C22.8793 19.851 22.4598 19.731 22.2199 19.4613Z" fill="#CC203C"/>
<path d="M17.7819 20.5712C20.0007 23.3586 23.9887 22.9998 25.0979 19.6112C25.0979 19.5512 25.1579 19.5215 25.2179 19.5215C25.3076 19.5215 25.3676 19.5815 25.3676 19.6712C25.4276 26.2375 17.6619 26.9272 15.323 22.7295C15.203 22.4592 15.083 22.1598 15.083 21.8301C15.0823 21.6132 15.1244 21.3984 15.207 21.198C15.2896 20.9975 15.411 20.8154 15.5643 20.6621C15.7176 20.5087 15.8997 20.3872 16.1001 20.3045C16.3006 20.2219 16.5154 20.1797 16.7322 20.1803C17.1219 20.1803 17.5419 20.3009 17.7819 20.5712Z" fill="#3A3B92"/>
<path d="M10.7964 23.1793C10.4364 22.0707 10.2861 21.141 10.2861 20.0307C10.2861 14.6347 14.6341 10.2861 20.001 10.2861C23.6296 10.2861 26.7781 12.265 28.457 15.2038C28.577 15.4736 28.6667 15.7433 28.6667 16.0433C28.6652 16.5199 28.4752 16.9766 28.1382 17.3136C27.8011 17.6506 27.3445 17.8406 26.8678 17.8421C26.3878 17.8421 25.8781 17.6924 25.6084 17.3027C19.9113 9.77699 9.86613 15.1736 11.1261 23.1193C11.1261 23.2096 11.0661 23.2998 10.9758 23.2998C10.8861 23.3296 10.8261 23.269 10.7964 23.1793Z" fill="#3A3B92"/>
<path d="M29.2058 16.8527C29.5658 17.9618 29.7155 18.8915 29.7155 20.0309C29.7155 25.3984 25.367 29.7458 20.0001 29.7458C16.3721 29.7458 13.2241 27.7664 11.5447 24.8281C11.412 24.5676 11.3403 24.2804 11.335 23.9881C11.3363 23.5114 11.5264 23.0546 11.8636 22.7176C12.2008 22.3806 12.6577 22.1909 13.1344 22.1898C13.6138 22.1898 14.0932 22.3389 14.3932 22.7292C20.0904 30.2555 30.135 24.8578 28.8761 16.9121C28.8761 16.8224 28.9361 16.7321 29.0258 16.7321C29.1161 16.7029 29.1761 16.7624 29.2058 16.8521V16.8527Z" fill="#CC203C"/>
</g>
<circle cx="20" cy="20" r="19.5" stroke="black" stroke-opacity="0.05"/>
<defs>
<clipPath id="clip0_9_405902">
<rect width="20" height="20" fill="white" transform="translate(10 10)"/>
</clipPath>
</defs>
</svg>
