<svg width="40" height="40" viewBox="0 0 40 40" fill="none" xmlns="http://www.w3.org/2000/svg">
<circle cx="20" cy="20" r="20" fill="#F6F8FA"/>
<g clip-path="url(#clip0_9_398312)">
<path fill-rule="evenodd" clip-rule="evenodd" d="M19.99 28.7588C24.8148 28.7588 28.7387 24.8348 28.7387 20.01C28.7387 15.1852 24.8348 11.2412 19.99 11.2412C15.1451 11.2412 11.2412 15.1652 11.2412 19.99C11.2412 24.8148 15.1652 28.7387 19.99 28.7387V28.7588ZM19.99 30C25.5155 30 29.98 25.5155 29.98 20.01C29.98 14.5045 25.5155 10 19.99 10C14.4645 10 10 14.4845 10 19.99C10 25.4955 14.4845 29.98 19.99 29.98V30Z" fill="#527FB6"/>
<path d="M20.631 13.1836L25.7561 18.3087L24.8752 19.1896L20.631 14.9454L16.0664 19.5099L15.1855 18.629L20.631 13.1836Z" fill="#58992C"/>
<path d="M14.0645 16.9268L20.3108 23.173L26.557 16.9268L29.8003 20.17L28.9194 21.0509L26.537 18.6685L16.3468 28.8587L15.466 27.9778L19.3899 24.0539L14.0245 18.6885L11.0215 21.6915L10.1406 20.8106L14.0245 16.9268H14.0645Z" fill="#527FB6"/>
</g>
<circle cx="20" cy="20" r="19.5" stroke="black" stroke-opacity="0.05"/>
<defs>
<clipPath id="clip0_9_398312">
<rect width="20" height="20" fill="white" transform="translate(10 10)"/>
</clipPath>
</defs>
</svg>
