<svg width="40" height="40" viewBox="0 0 40 40" fill="none" xmlns="http://www.w3.org/2000/svg">
<circle cx="20" cy="20" r="20" fill="#005395"/>
<g clip-path="url(#clip0_9_405284)">
<path d="M4.82129 23.0361H35.1784V24.8576H4.82129V23.0361Z" fill="white"/>
<path d="M9.19272 21.8218H10.7294L8.6129 15.7273H6.9384L4.82129 21.8218H6.16186L6.5899 20.6076H8.76408L9.19272 21.8218ZM7.01247 19.3915L7.67729 17.4589L8.34211 19.3915H7.01247ZM12.7141 16.9647V19.7952C12.7141 19.7952 12.7141 20.9111 13.4512 20.916C14.232 20.9221 14.5356 20.1838 14.5356 19.389V16.9647H15.7499V21.8218H14.5356V21.1012C14.5356 21.1012 14.161 21.8218 13.0614 21.8218C13.0614 21.8218 11.4999 21.8206 11.4999 20.304V16.7898L12.7141 16.9647ZM18.5075 15.7486L18.482 16.9647H19.6963V17.8754H18.482L18.5075 20.4843C18.5075 20.4843 18.5257 20.783 18.6362 20.9057C18.7461 21.0289 18.7498 21.1085 19.1377 21.1157C19.5251 21.1242 19.6016 21.0684 19.6356 21.055V21.661C19.6356 21.661 19.4134 21.7739 19.1092 21.8115C18.8056 21.8492 18.5269 21.8218 18.3539 21.8218C18.1803 21.8218 17.1596 21.8218 17.1596 20.6367V17.8754H16.357L16.4147 17.3071L18.5075 15.7486ZM22.7502 16.9459H22.7162C21.3981 16.9592 20.3034 17.7595 20.3034 19.3787C20.3034 20.7126 21.1079 21.7957 22.7162 21.8109L22.7502 21.8115C24.3579 21.7963 25.1624 20.7126 25.1624 19.3787C25.1624 17.7595 24.0677 16.9592 22.7502 16.9459ZM22.7332 20.8176C22.0471 20.8176 21.7035 20.1595 21.7035 19.3465C21.7035 18.3593 22.1722 17.8754 22.7332 17.8754C23.2942 17.8754 23.7629 18.3593 23.7629 19.3465C23.7629 20.1595 23.4199 20.8176 22.7332 20.8176ZM26.0713 15.9423V21.8218H27.2856V14.5361L26.0713 15.9423ZM29.7141 16.3576V14.5361L28.4999 15.9423V16.3576H29.7141ZM28.4999 16.9647V21.8218H29.7141V16.9647H28.4999ZM35.1839 16.9647H34.2677L33.0534 20.0004L31.8986 16.9647H30.3213L32.1427 21.8218H33.357L35.1839 16.9647Z" fill="white"/>
</g>
<circle cx="20" cy="20" r="19.5" stroke="black" stroke-opacity="0.05"/>
<defs>
<clipPath id="clip0_9_405284">
<rect width="32" height="11" fill="white" transform="translate(4 14)"/>
</clipPath>
</defs>
</svg>
