<svg width="40" height="40" viewBox="0 0 40 40" fill="none" xmlns="http://www.w3.org/2000/svg">
<circle cx="20" cy="20" r="20" fill="#2D578B"/>
<g clip-path="url(#clip0_9_405851)">
<path opacity="0.2" d="M23.1028 25.642C22.0889 27.8004 19.0446 29.5763 16.2937 29.5763C13.5433 29.5763 12.1451 27.8229 13.1371 25.642C15.6847 20.1777 22.7482 15.6934 22.7482 15.6934C22.7482 15.6934 25.7177 20.0429 23.1028 25.642Z" fill="white"/>
<path d="M26.0711 10.2848C26.0711 10.2848 15.8183 17.5468 12.55 24.5405C11.2647 27.283 12.8882 29.5094 16.1577 29.5543C13.2938 29.5094 11.9241 27.5367 13.0734 25.0857C15.9822 18.8352 24.7002 13.0619 24.7002 13.0619C24.7002 13.0619 26.643 18.6943 23.6668 25.0802C22.5169 27.5531 19.2238 29.5543 16.27 29.5543C19.6299 29.5543 23.3954 27.3054 24.6801 24.5399C28.0401 17.3896 26.0711 10.2848 26.0711 10.2848Z" fill="white"/>
<path opacity="0.6" d="M24.7021 13.0283C24.7021 13.0283 15.9927 18.8296 13.0681 25.0801C12.2132 26.9015 12.7754 28.4752 14.3054 29.1722C12.9333 28.5426 12.4154 27.1936 13.1354 25.6423C15.6782 20.178 22.7441 15.7034 22.7441 15.7034C22.7441 15.7034 25.6918 20.0432 23.0817 25.6423C22.4514 26.9914 21.0338 28.1832 19.369 28.9027C21.259 28.1158 22.9244 26.6987 23.6669 25.0801C26.6602 18.6942 24.7021 13.0283 24.7021 13.0283Z" fill="white"/>
<path d="M21.6377 18.5596C21.6377 18.5596 16.1582 22.0221 13.9488 26.43C13.0691 28.184 13.9938 29.6454 16.0228 29.7128C18.0525 29.7802 20.3973 28.4317 21.2764 26.6771C22.9679 23.3269 20.4204 23.2589 21.6377 18.5596ZM15.5499 28.5653C13.182 28.0935 16.1582 24.6978 16.1582 24.6978C14.5797 27.4864 15.5499 28.5653 15.5499 28.5653Z" fill="#2D578B"/>
</g>
<circle cx="20" cy="20" r="19.5" stroke="black" stroke-opacity="0.05"/>
<defs>
<clipPath id="clip0_9_405851">
<rect width="15" height="20" fill="white" transform="translate(12 10)"/>
</clipPath>
</defs>
</svg>
