<svg width="40" height="40" viewBox="0 0 40 40" fill="none" xmlns="http://www.w3.org/2000/svg">
<circle cx="20" cy="20" r="20" fill="#569BBE"/>
<g clip-path="url(#clip0_9_385744)">
<path d="M22.9331 12.7694L14.1004 12.7619L12.7342 14.1414L22.9331 14.1468C24.4921 14.1468 25.7516 15.3823 25.7516 16.9046V29.8251H27.1657L27.17 16.9046C27.17 14.6204 25.2727 12.7694 22.9331 12.7694ZM29.9975 29.8251L29.9962 16.9046C29.9962 13.0989 26.8335 10.0009 22.9326 10.0009L16.8323 10L15.4665 11.3796L22.9331 11.3813C26.0528 11.3813 28.5819 13.8595 28.5819 16.9046V29.8251H29.9975ZM22.9331 15.5259L11.3702 15.5233L10 16.902H10.0185L10 16.9046L10.0004 22.9237C10.0004 26.434 12.6779 29.3403 16.1587 29.7729L17.4639 28.4486L17.0645 28.4464C13.9434 28.4464 11.4135 25.9674 11.4135 22.9237V16.9024H12.8297L12.8261 22.9237C12.8261 25.2055 14.7235 27.0576 17.0645 27.0576H18.8389L20.2029 25.6792H17.0645C15.5046 25.6792 14.2455 24.4445 14.2455 22.9237V16.9024H15.647L15.6484 22.9237C15.6527 23.6845 16.2834 24.2992 17.064 24.2992H21.566L22.9281 22.925L17.064 22.9237V16.9033L22.9326 16.9046V29.8251H24.3493L24.3488 16.9046C24.3444 16.1423 23.7133 15.5259 22.9331 15.5259Z" fill="white"/>
</g>
<circle cx="20" cy="20" r="19.5" stroke="black" stroke-opacity="0.05"/>
<defs>
<clipPath id="clip0_9_385744">
<rect width="20" height="19.8292" fill="white" transform="translate(10 10)"/>
</clipPath>
</defs>
</svg>
