<svg width="40" height="40" viewBox="0 0 40 40" fill="none" xmlns="http://www.w3.org/2000/svg">
<circle cx="20" cy="20" r="20" fill="#137CAB"/>
<path d="M7.14258 24.5001L9.96794 21.9287L12.7933 24.5001H7.14258ZM13.8373 24.5001L16.6626 21.9287L19.488 24.5001H13.8373ZM20.5114 24.5001L23.3368 21.9287L26.1827 24.5001H20.5114ZM27.2061 24.5001L30.0315 21.9287L32.8569 24.5001H27.2061ZM21.4127 14.0338C21.6988 14.451 22.0877 15.2224 22.0877 15.639C22.0877 16.9941 21.1459 17.8074 19.9791 17.8074C18.8329 17.8074 17.9323 16.9736 17.9323 15.639C17.9323 15.2019 18.3411 14.3469 18.6896 13.8666C19.0991 13.3247 19.4674 12.9287 19.9791 12.9287C20.532 12.9287 20.982 13.4083 21.4127 14.0338ZM23.3574 16.1816C23.7463 16.1816 24.5653 16.953 24.8726 17.3278C25.077 17.5991 25.8144 18.5164 25.8144 18.7665C25.8144 19.6215 24.1969 21.039 23.3574 21.039C22.5384 21.039 20.9415 19.6421 20.9415 18.7665C20.9415 18.4959 21.7399 17.4744 21.9855 17.1819C22.2722 16.8482 22.9684 16.1816 23.3574 16.1816ZM16.6215 16.1816C17.0104 16.1816 17.8301 16.953 18.1367 17.3278C18.3411 17.5991 19.0785 18.5164 19.0785 18.7665C19.0785 19.6215 17.4611 21.039 16.6215 21.039C15.7819 21.039 14.2056 19.6421 14.2056 18.7665C14.2056 18.4959 15.0041 17.4744 15.2503 17.1819C15.5569 16.8482 16.2531 16.1816 16.6215 16.1816ZM26.715 19.2879C26.9194 19.2879 28.0457 20.2888 28.2097 20.4765C28.3119 20.6012 29.3559 21.6227 29.3559 21.7481C29.3559 22.1441 27.1245 24.0411 26.715 24.0411C26.3055 24.0411 24.0947 22.1447 24.0947 21.7481C24.0947 21.6227 25.2409 20.4971 25.3637 20.3511C25.5071 20.184 26.5099 19.2879 26.715 19.2879ZM19.9791 19.2879C20.1842 19.2879 21.3099 20.2888 21.4738 20.4765C21.5766 20.6012 22.62 21.6227 22.62 21.7481C22.62 22.1441 20.3886 24.0411 19.9791 24.0411C19.5696 24.0411 17.3589 22.1447 17.3589 21.7481C17.3589 21.6227 18.5051 20.4971 18.6279 20.3511C18.7918 20.184 19.7947 19.2879 19.9791 19.2879ZM13.305 19.2879C13.5101 19.2879 14.6357 20.2888 14.7996 20.4765C14.9025 20.6012 15.9459 21.6227 15.9459 21.7481C15.9459 22.1441 13.7145 24.0411 13.305 24.0411C12.8955 24.0411 10.6847 22.1447 10.6847 21.7481C10.6847 21.6227 11.8309 20.4971 11.9537 20.3511C12.1176 20.184 13.1205 19.2879 13.305 19.2879Z" fill="white"/>
<circle cx="20" cy="20" r="19.5" stroke="black" stroke-opacity="0.05"/>
</svg>
