<svg width="40" height="40" viewBox="0 0 40 40" fill="none" xmlns="http://www.w3.org/2000/svg">
<circle cx="20" cy="20" r="20" fill="#F6F8FA"/>
<g clip-path="url(#clip0_9_394573)">
<path d="M19.8202 0H20.2047C20.8441 0.0125999 21.3871 0.0403385 21.8337 0.0832158C24.258 0.31622 26.5558 0.964363 28.7271 2.02764C29.8106 2.55825 30.8848 3.19577 31.8645 3.92271C32.8595 4.66121 33.7704 5.47118 34.5973 6.35261C36.0134 7.86196 37.1641 9.54264 38.0495 11.3946C39.1483 13.6933 39.7805 16.1229 39.946 18.6835C39.9779 19.1749 39.9976 19.6719 39.9928 20.1588C39.9654 22.9661 39.3778 25.6464 38.2301 28.1994C38.1543 28.3677 38.0747 28.537 37.9914 28.7072C37.0633 30.6038 35.8749 32.3061 34.4261 33.8141C32.9286 35.3729 31.2203 36.6533 29.3011 37.6553C27.1919 38.7567 24.9661 39.4673 22.6238 39.787C21.9476 39.8794 21.1719 39.9369 20.2969 39.9597C20.104 39.9647 19.9132 39.9647 19.7246 39.9597C18.8157 39.9354 18.0173 39.8751 17.3293 39.7788C15.4347 39.5137 13.6114 38.9903 11.8597 38.2087C11.224 37.9252 10.5506 37.5802 9.83936 37.174C9.67387 37.0796 9.51336 36.9834 9.35784 36.8855C8.13791 36.1159 7.03673 35.2496 6.05431 34.2866C3.81661 32.0931 2.18022 29.5285 1.14514 26.5929C0.476974 24.6983 0.107815 22.7099 0.0376696 20.6279C0.0210264 20.132 0.0156668 19.5949 0.0399263 19.0855C0.157839 16.5958 0.711953 14.2291 1.70227 11.9853C2.54007 10.0867 3.64444 8.3606 5.01538 6.80705C5.9553 5.74208 6.98877 4.79191 8.11581 3.95656C8.43946 3.7166 8.79188 3.47015 9.17307 3.21721C9.32747 3.1149 9.48233 3.01645 9.63767 2.92186C11.6162 1.71603 13.7286 0.880959 15.9748 0.416643C16.7309 0.260367 17.4522 0.150259 18.1387 0.0863188C18.6167 0.0417489 19.1772 0.012976 19.8202 0ZM26.9446 16.7128C26.9446 16.7143 26.9442 16.7157 26.9435 16.7169C26.9427 16.718 26.9416 16.719 26.9403 16.7195C26.9389 16.7201 26.9375 16.7202 26.9361 16.7199C26.9347 16.7196 26.9334 16.7189 26.9324 16.7179C25.1745 14.9566 23.4183 13.197 21.6639 11.4392C21.2417 11.0163 20.7123 10.7735 20.0758 10.7109C19.9095 10.6947 19.7224 10.7042 19.5144 10.7394C19.1031 10.8089 18.7243 10.975 18.3779 11.2375C18.2185 11.3583 18.0684 11.5261 17.9076 11.6866C13.7021 15.885 9.59507 19.9851 5.58661 23.987C5.20053 24.3724 4.86005 24.7142 4.56517 25.0124C4.05488 25.5278 3.5333 26.0375 3.03767 26.5394C3.02507 26.5521 3.0277 26.5585 3.04557 26.5585H6.52568C6.53508 26.5585 6.54317 26.5552 6.54994 26.5487L19.9513 13.1588C19.9561 13.1541 19.9608 13.1541 19.9655 13.1588L33.3429 26.5467C33.3507 26.5543 33.3611 26.5585 33.3719 26.5585H36.7626C36.7635 26.5586 36.7644 26.5584 36.7651 26.5579C36.7658 26.5574 36.7664 26.5568 36.7668 26.556C36.7671 26.5552 36.7672 26.5543 36.767 26.5534C36.7668 26.5526 36.7664 26.5518 36.7657 26.5512L29.4055 19.1831C29.3972 19.1748 29.3931 19.1647 29.3931 19.1529V13.2155C29.3931 13.2063 29.3885 13.2017 29.3793 13.2017H26.9598C26.9497 13.2017 26.9446 13.2068 26.9446 13.2169V16.7128ZM18.7158 26.354H15.4371C15.4273 26.354 15.4224 26.3588 15.4224 26.3684V28.7867C15.4224 28.7963 15.4273 28.8011 15.4371 28.8011H18.7299C18.7316 28.8011 18.7331 28.8018 18.7343 28.8029C18.7355 28.8041 18.7361 28.8057 18.7361 28.8073V32.1007C18.7361 32.1107 18.7411 32.1157 18.7511 32.1157H21.2264C21.2318 32.1157 21.2346 32.1129 21.2346 32.1075C21.2344 29.9093 21.2343 28.8101 21.2343 28.8099C21.2344 28.8075 21.2353 28.8053 21.237 28.8037C21.2387 28.802 21.241 28.8011 21.2433 28.8011C22.3169 28.8011 23.4137 28.8011 24.5336 28.8011C24.5437 28.8011 24.5488 28.7961 24.5488 28.7862V26.3611C24.5488 26.3564 24.5465 26.354 24.5418 26.354H21.2413C21.2395 26.354 21.2378 26.3533 21.2365 26.352C21.2353 26.3506 21.2346 26.3488 21.2346 26.347V23.0536C21.2346 23.0442 21.2298 23.0395 21.2202 23.0395H18.7511C18.7411 23.0395 18.7361 23.0445 18.7361 23.0544V26.3337C18.7361 26.3472 18.7293 26.354 18.7158 26.354Z" fill="#7AAA6C"/>
</g>
<circle cx="20" cy="20" r="19.5" stroke="black" stroke-opacity="0.05"/>
<defs>
<clipPath id="clip0_9_394573">
<rect width="40" height="39.9718" fill="white"/>
</clipPath>
</defs>
</svg>
