<svg width="40" height="40" viewBox="0 0 40 40" fill="none" xmlns="http://www.w3.org/2000/svg">
<circle cx="20" cy="20" r="20" fill="#0C479D"/>
<path d="M11.5327 18.548H10.1242L10.6865 17.2723C11.1086 16.3505 11.4663 16.0574 11.9917 16.0574C12.5171 16.0574 12.8711 16.3579 13.2932 17.2723L15.122 21.1676C15.4711 20.5187 15.6547 19.7937 15.6566 19.0568C15.6566 16.2639 13.0462 14 9.82923 14C6.61228 14 4.00369 16.2639 4 19.0568C4 21.8516 6.61043 24.1154 9.82923 24.1154C10.6476 24.1255 11.4599 23.9735 12.2193 23.6682C12.9787 23.3629 13.6701 22.9102 14.2537 22.3364L12.012 17.4806L11.5327 18.548ZM11.9677 20.7049H10.5298L9.7813 22.3438H8.36916L9.65963 19.5638H11.9677V20.7049Z" fill="white"/>
<path d="M25.5378 22.1543H27.3647L25.4161 20.1411L27.1859 18.4893H25.4511L24.1569 19.7558V16.2236H22.8628V22.1543H24.1569V20.6721L25.5378 22.1543Z" fill="white"/>
<path d="M21.2556 18.3726C20.9787 18.3257 20.6941 18.3657 20.4408 18.4872C20.1876 18.6087 19.9783 18.8057 19.8416 19.051C19.7196 18.8393 19.5431 18.6641 19.3304 18.5438C19.1177 18.4235 18.8766 18.3625 18.6323 18.3671C18.3996 18.3561 18.1679 18.4027 17.9576 18.5027C17.7473 18.6027 17.5649 18.7531 17.4266 18.9404V18.5054H16.1509V22.1463H17.4266V20.006C17.5759 19.3239 17.9797 19.3626 17.9797 19.3626C18.6046 19.3626 18.5954 20.0816 18.5954 20.0816V22.1463H19.8693V19.9507C19.9707 19.322 20.4758 19.3718 20.4758 19.3718C21.1007 19.4345 21.0288 20.0816 21.0288 20.0816V22.1463H22.2917V19.7497C22.3212 18.4242 21.2556 18.3726 21.2556 18.3726Z" fill="white"/>
<path d="M29.2621 18.3457C28.0454 18.3457 27.0591 19.1753 27.0591 20.3091C27.0591 21.3931 28.0454 22.2724 29.2621 22.2724C30.4788 22.2724 31.4743 21.3931 31.4743 20.3091C31.467 19.1753 30.4788 18.3457 29.2621 18.3457ZM29.2732 21.1423C29.108 21.1423 28.9465 21.0934 28.8092 21.0016C28.6719 20.9098 28.5648 20.7794 28.5016 20.6268C28.4384 20.4742 28.4219 20.3063 28.4541 20.1443C28.4863 19.9823 28.5658 19.8335 28.6826 19.7167C28.7994 19.5999 28.9482 19.5204 29.1102 19.4881C29.2722 19.4559 29.4401 19.4725 29.5927 19.5357C29.7453 19.5989 29.8758 19.7059 29.9675 19.8432C30.0593 19.9806 30.1083 20.142 30.1083 20.3072C30.1083 20.5287 30.0203 20.7411 29.8637 20.8977C29.7071 21.0543 29.4946 21.1423 29.2732 21.1423Z" fill="white"/>
<path d="M33.1921 19.0825V18.4244H31.9312V22.1299H33.1921V20.2237C33.2806 19.9471 33.6032 19.2853 34.6209 19.6374V18.4262C34.3441 18.3749 34.0582 18.4104 33.8024 18.5279C33.5466 18.6454 33.3335 18.8391 33.1921 19.0825Z" fill="white"/>
<path d="M17.2533 25.1314H16.6449V23.2786H16.1582V22.7256H17.8008V23.2786H17.2477L17.2533 25.1314Z" fill="white"/>
<path d="M22.8189 25.1142H22.2659V24.2496C22.2659 24.1077 22.2235 23.8662 22.0059 23.8662C21.7884 23.8662 21.6815 24.0192 21.6815 24.3141V25.1142H21.1284V22.4854H21.6815V23.5491V23.6966C21.7284 23.6116 21.7986 23.5418 21.8838 23.4954C21.9691 23.449 22.0658 23.428 22.1626 23.4348C22.5682 23.4348 22.8152 23.6081 22.8152 24.0855L22.8189 25.1142Z" fill="white"/>
<path d="M24.8133 25.1149H24.2602V24.1286C24.252 24.0609 24.2191 23.9985 24.1677 23.9536C24.1163 23.9087 24.0501 23.8843 23.9819 23.8853C23.9419 23.8832 23.902 23.8895 23.8646 23.9037C23.8272 23.9179 23.7932 23.9398 23.7648 23.9679C23.7363 23.996 23.7141 24.0297 23.6994 24.0669C23.6847 24.1041 23.6779 24.144 23.6795 24.1839V25.1057H23.1265V23.4908H23.6592V23.7304C23.7054 23.6345 23.7793 23.5546 23.8713 23.501C23.9633 23.4475 24.0692 23.4227 24.1754 23.4299C24.5441 23.4299 24.8041 23.6346 24.8041 23.983L24.8133 25.1149Z" fill="white"/>
<path d="M27.8922 25.1149H27.3281V22.4805H27.8922V25.1149Z" fill="white"/>
<path d="M30.9138 24.3019C30.9075 24.2515 30.9125 24.2004 30.9287 24.1523C30.9448 24.1042 30.9716 24.0603 31.0071 24.024C31.0425 23.9877 31.0857 23.9598 31.1334 23.9425C31.1811 23.9252 31.232 23.9188 31.2825 23.924C31.3333 23.9189 31.3846 23.9248 31.4329 23.9412C31.4812 23.9577 31.5254 23.9842 31.5626 24.0191C31.5998 24.0541 31.6291 24.0965 31.6485 24.1437C31.6679 24.1909 31.677 24.2417 31.6752 24.2927C31.6752 24.4623 31.5959 24.6503 31.2844 24.6503C31.2361 24.6567 31.187 24.6523 31.1407 24.6374C31.0943 24.6225 31.0518 24.5974 31.0164 24.5641C30.9809 24.5307 30.9533 24.4899 30.9355 24.4445C30.9178 24.3992 30.9104 24.3505 30.9138 24.3019ZM31.6641 23.4741L31.5922 23.6013C31.5314 23.4852 31.2936 23.417 31.148 23.417C30.7313 23.417 30.3331 23.7101 30.3331 24.3111C30.3243 24.4176 30.3384 24.5248 30.3744 24.6255C30.4104 24.7262 30.4675 24.818 30.5418 24.8948C30.6162 24.9716 30.7061 25.0316 30.8056 25.0709C30.905 25.1101 31.0117 25.1276 31.1185 25.1223C31.2179 25.1319 31.318 25.1122 31.4064 25.0657C31.4949 25.0192 31.5678 24.9479 31.6162 24.8605V24.9821V25.1223C31.6175 25.1646 31.6101 25.2068 31.5944 25.2462C31.5787 25.2856 31.5551 25.3214 31.525 25.3513C31.4949 25.3812 31.459 25.4046 31.4196 25.4201C31.3801 25.4355 31.3378 25.4427 31.2954 25.4412C31.2337 25.4488 31.1711 25.4393 31.1145 25.4136C31.0579 25.3879 31.0095 25.347 30.9747 25.2955H30.3755C30.3958 25.6643 30.8382 25.9021 31.2309 25.9021C32.1656 25.9021 32.1914 25.4043 32.1914 25.1038L32.1785 23.4741H31.6641Z" fill="white"/>
<path d="M33.1906 25.8779H32.5804L33.1021 24.8529L32.3315 23.4795H32.9694L33.4155 24.2611L33.8266 23.4795H34.4848L33.1906 25.8779Z" fill="white"/>
<path d="M20.8369 24.5946C20.7968 24.6299 20.75 24.6566 20.6993 24.6731C20.6486 24.6896 20.595 24.6955 20.5419 24.6905C20.4387 24.6905 20.3398 24.6495 20.2668 24.5766C20.1939 24.5036 20.1529 24.4047 20.1529 24.3015C20.1529 24.1984 20.1939 24.0994 20.2668 24.0265C20.3398 23.9535 20.4387 23.9125 20.5419 23.9125C20.595 23.9075 20.6486 23.9135 20.6993 23.93C20.75 23.9465 20.7968 23.9731 20.8369 24.0084V23.5346C20.7281 23.4729 20.606 23.4388 20.4811 23.4351C20.2416 23.4271 20.0087 23.5144 19.8335 23.6779C19.6583 23.8413 19.555 24.0676 19.5464 24.3071C19.5464 24.7864 19.8967 25.1772 20.5032 25.1551C20.623 25.1545 20.7397 25.1164 20.8369 25.0463V24.5946Z" fill="white"/>
<path d="M18.9029 24.4138H19.3601C19.366 24.3766 19.369 24.339 19.3693 24.3013C19.3698 24.1851 19.3471 24.0699 19.3026 23.9625C19.2582 23.8551 19.1928 23.7576 19.1102 23.6758C19.0277 23.5939 18.9297 23.5293 18.8219 23.4857C18.7141 23.4422 18.5988 23.4205 18.4825 23.4219C18.3656 23.4205 18.2495 23.4421 18.1409 23.4855C18.0323 23.5289 17.9334 23.5932 17.8497 23.6749C17.7659 23.7566 17.6991 23.8539 17.6531 23.9614C17.607 24.0689 17.5825 24.1844 17.5811 24.3013C17.583 24.4175 17.6078 24.5322 17.6543 24.6387C17.7007 24.7453 17.7677 24.8416 17.8515 24.9221C17.9353 25.0027 18.0342 25.0658 18.1425 25.108C18.2508 25.1501 18.3664 25.1705 18.4825 25.1678C19.0024 25.1678 19.2458 24.9097 19.3287 24.5907H18.8347C18.8038 24.6455 18.7583 24.6906 18.7033 24.7208C18.6483 24.7511 18.5858 24.7655 18.5231 24.7622C18.4764 24.7665 18.4294 24.7605 18.3853 24.7444C18.3413 24.7284 18.3013 24.7028 18.2683 24.6695C18.2354 24.6362 18.2102 24.5959 18.1946 24.5517C18.1791 24.5075 18.1735 24.4604 18.1784 24.4138H18.9029ZM18.182 24.0782C18.1975 24.0027 18.2383 23.9347 18.2976 23.8854C18.3569 23.8362 18.4313 23.8086 18.5083 23.8072C18.5853 23.8083 18.6596 23.8359 18.7186 23.8852C18.7777 23.9346 18.818 24.0027 18.8328 24.0782H18.182Z" fill="white"/>
<path d="M26.0817 23.4355C25.5434 23.4355 25.1064 23.8208 25.1064 24.2965C25.1064 24.7721 25.5434 25.1574 26.0817 25.1574C26.62 25.1574 27.0551 24.7703 27.0551 24.2965C27.0551 23.8227 26.62 23.4355 26.0817 23.4355ZM26.0817 24.6394C26.0138 24.6354 25.9485 24.6117 25.8939 24.571C25.8394 24.5304 25.7979 24.4747 25.7746 24.4108C25.7513 24.3469 25.7472 24.2776 25.7629 24.2114C25.7785 24.1452 25.8132 24.085 25.8626 24.0383C25.9121 23.9916 25.9741 23.9603 26.0411 23.9485C26.1081 23.9366 26.1771 23.9446 26.2396 23.9714C26.302 23.9983 26.3553 24.0429 26.3928 24.0996C26.4302 24.1564 26.4503 24.2229 26.4504 24.2909C26.4494 24.3381 26.4391 24.3847 26.42 24.4279C26.4009 24.471 26.3733 24.51 26.339 24.5424C26.3047 24.5748 26.2643 24.6001 26.2201 24.6168C26.1759 24.6334 26.1289 24.6411 26.0817 24.6394Z" fill="white"/>
<path d="M29.1124 23.4336C28.5741 23.4336 28.1372 23.8189 28.1372 24.2945C28.1372 24.7702 28.5741 25.1536 29.1124 25.1536C29.6507 25.1536 30.0877 24.7683 30.0877 24.2945C30.0877 23.8207 29.6544 23.4336 29.1124 23.4336ZM29.1124 24.6356C29.0444 24.6316 28.9791 24.6078 28.9245 24.5671C28.8699 24.5264 28.8284 24.4706 28.8052 24.4066C28.782 24.3426 28.778 24.2732 28.7938 24.2069C28.8096 24.1407 28.8445 24.0805 28.8941 24.0339C28.9437 23.9872 29.0059 23.9561 29.073 23.9445C29.1401 23.9328 29.2091 23.941 29.2716 23.9682C29.334 23.9953 29.3872 24.0402 29.4244 24.0972C29.4617 24.1542 29.4814 24.2209 29.4811 24.289C29.4802 24.3361 29.4699 24.3826 29.4507 24.4257C29.4316 24.4687 29.404 24.5075 29.3697 24.5398C29.3353 24.5721 29.2949 24.5972 29.2507 24.6137C29.2065 24.6301 29.1595 24.6375 29.1124 24.6356Z" fill="white"/>
<path d="M35.2625 22.8728C35.3143 22.8684 35.3662 22.8793 35.4118 22.9042C35.4278 22.9151 35.4407 22.93 35.4491 22.9475C35.4575 22.965 35.4612 22.9844 35.4598 23.0037C35.4612 23.0221 35.4576 23.0405 35.4495 23.057C35.4414 23.0735 35.429 23.0876 35.4137 23.0977C35.3701 23.1209 35.3209 23.1312 35.2717 23.1272H35.1556V22.8728H35.2625ZM34.9804 23.5752H35.1556V23.2341H35.2828L35.4432 23.5752H35.6386L35.4542 23.2065C35.5073 23.1984 35.5555 23.1709 35.5895 23.1294C35.6235 23.0878 35.641 23.0352 35.6386 22.9816C35.6397 22.9488 35.6322 22.9164 35.6166 22.8875C35.6011 22.8587 35.5781 22.8345 35.5501 22.8175C35.4715 22.7755 35.3827 22.7564 35.2938 22.7622H34.9804V23.5752ZM35.5132 22.6147C35.589 22.6466 35.6579 22.6929 35.716 22.7511C35.7727 22.8086 35.8172 22.877 35.8469 22.9521C35.8768 23.0284 35.8918 23.1098 35.8911 23.1917C35.891 23.2714 35.8754 23.3503 35.8451 23.424C35.8124 23.4935 35.7667 23.5561 35.7105 23.6084C35.5927 23.7263 35.4329 23.7926 35.2662 23.7927C35.1881 23.793 35.1108 23.7766 35.0394 23.7448C34.9649 23.7126 34.8973 23.6663 34.8403 23.6084C34.782 23.5531 34.7355 23.4865 34.7038 23.4126C34.6721 23.3388 34.6558 23.2592 34.656 23.1788C34.6551 23.0983 34.6715 23.0185 34.7039 22.9447C34.736 22.8685 34.7823 22.799 34.8403 22.7401C34.896 22.6837 34.9625 22.6392 35.0358 22.6092C35.1101 22.5792 35.1897 22.5641 35.2699 22.5649C35.3536 22.5644 35.4365 22.5813 35.5132 22.6147ZM35.0007 22.5115C34.9141 22.546 34.8357 22.5981 34.7703 22.6645C34.7012 22.7328 34.6467 22.8143 34.6099 22.9042C34.5716 22.9919 34.5521 23.0868 34.5528 23.1825C34.5527 23.2764 34.5713 23.3694 34.6073 23.4561C34.6434 23.5428 34.6963 23.6215 34.7629 23.6877C34.8302 23.7566 34.9104 23.8117 34.9989 23.8499C35.0864 23.8866 35.1805 23.9054 35.2754 23.9052C35.3696 23.906 35.4631 23.8878 35.5501 23.8517C35.6391 23.8151 35.7199 23.7613 35.7879 23.6932C35.8562 23.6282 35.9102 23.5497 35.9465 23.4627C35.9819 23.3736 36 23.2785 35.9999 23.1825C36.0011 23.0877 35.9829 22.9936 35.9465 22.906C35.9122 22.8193 35.8601 22.7408 35.7934 22.6756C35.7271 22.6055 35.6467 22.5502 35.5575 22.5133C35.4681 22.4763 35.3722 22.4575 35.2754 22.458C35.1812 22.4576 35.0879 22.4757 35.0007 22.5115Z" fill="white"/>
<circle cx="20" cy="20" r="19.5" stroke="black" stroke-opacity="0.05"/>
</svg>
