<svg width="40" height="40" viewBox="0 0 40 40" fill="none" xmlns="http://www.w3.org/2000/svg">
<circle cx="20" cy="20" r="20" fill="#F6F8FA"/>
<g clip-path="url(#clip0_9_397776)">
<path opacity="0.9" d="M22.5322 35C22.5322 35 22.5084 28.9361 22.5084 27.4476C22.5084 26.3837 27.0002 24.5094 27.0002 19.9449C27.0002 15.3804 22.5322 13.28 22.5322 12.4476V5H19.7812V12.4476C19.7812 14.5976 24.3503 15.4245 24.3443 19.9449C24.3384 24.4598 19.7812 25.0496 19.7812 27.4421V35.0055H22.5322V35Z" fill="#D71F85"/>
<path opacity="0.8" d="M14 19.9945C14 15.43 18.468 13.3297 18.468 12.4972V5H21.2189V12.4972C21.2189 14.6472 16.6499 15.4741 16.6559 19.9945C16.6618 24.5094 21.2189 25.0992 21.2189 27.4917V35H18.468C18.468 35 18.4739 28.9857 18.468 27.4917C18.468 26.4278 14 24.559 14 19.9945Z" fill="#00B3BE"/>
<path opacity="0.84" d="M19.7512 35.0001C19.7512 35.0001 19.8047 24.0409 19.7512 22.5525C19.7512 21.4886 15.2832 19.6198 15.2832 15.0553C15.2832 10.4908 19.7512 8.39045 19.7512 7.55804V5.00015H22.5021C22.5021 5.00015 22.5021 4.934 22.5021 7.55804C22.5021 9.70798 17.9331 10.5349 17.9391 15.0553C17.945 19.5702 22.5021 20.16 22.5021 22.5525V35.0001H19.7512Z" fill="#FF6E00"/>
</g>
<circle cx="20" cy="20" r="19.5" stroke="black" stroke-opacity="0.05"/>
<defs>
<clipPath id="clip0_9_397776">
<rect width="13" height="30" fill="white" transform="translate(14 5)"/>
</clipPath>
</defs>
</svg>
