<svg width="40" height="40" viewBox="0 0 40 40" fill="none" xmlns="http://www.w3.org/2000/svg">
<circle cx="20" cy="20" r="20" fill="#E71D1C"/>
<g clip-path="url(#clip0_9_410641)">
<path d="M20.884 17.251C19.3935 17.2419 18.0244 18.1593 17.4172 19.5722L17.9776 23.6564C18.5025 24.3018 19.2306 24.7504 20.0431 24.929C21.643 25.2787 23.2264 24.5131 24.0369 23.1409L23.7431 24.8573H25.8972L26.5529 21.1252L28.1467 24.8573H30.2577L31.5357 17.5716H29.3864L28.7277 21.1538L27.0963 17.5716H25.0223L24.519 20.3511C24.1851 18.6159 22.6611 17.262 20.884 17.251ZM20.8415 19.1963C22.0661 19.1818 22.6593 20.5964 22.3406 21.6486C22.0346 22.6564 21.0874 23.229 20.2247 22.9272C19.3613 22.6249 18.9102 21.563 19.2156 20.5551C19.4639 19.7361 20.1354 19.2048 20.8415 19.1963Z" fill="white"/>
<path d="M13.9286 15.1426L10.7011 21.214H9.335L8.46436 23.0354H9.83103L8.84746 24.8569H11.1935L12.1758 23.0354H15.0713L14.8066 21.214H13.0993L14.7003 18.0411L15.7482 24.8569H17.7427L16.3572 15.1426H13.9286Z" fill="white"/>
</g>
<circle cx="20" cy="20" r="19.5" stroke="black" stroke-opacity="0.05"/>
<defs>
<clipPath id="clip0_9_410641">
<rect width="24" height="11" fill="white" transform="translate(8 15)"/>
</clipPath>
</defs>
</svg>
