<svg width="40" height="40" viewBox="0 0 40 40" fill="none" xmlns="http://www.w3.org/2000/svg">
<circle cx="20" cy="20" r="20" fill="#F6F8FA"/>
<g clip-path="url(#clip0_9_405183)">
<path d="M29.707 15.7891L27.5984 15.7827C26.5891 15.6862 25.9655 14.8698 26.107 13.8412L26.6213 11.7327C26.9427 10.4148 26.1455 9.34766 24.8341 9.34766H20.8805C20.199 9.38231 19.5459 9.63169 19.0148 10.0601C18.4836 10.4885 18.1016 11.0739 17.9234 11.7327L17.4091 13.8219C17.2274 14.3395 16.9072 14.7972 16.4832 15.1452C16.0592 15.4933 15.5479 15.7182 15.0048 15.7955L12.8963 15.7827C12.2144 15.8156 11.5605 16.0634 11.0282 16.4907C10.4959 16.9179 10.1124 17.5027 9.93268 18.1612L8.95554 22.1277C8.63411 23.4391 9.43768 24.4998 10.7555 24.4998H12.832C13.8413 24.5962 14.4648 25.4191 14.3234 26.4477L13.8091 28.5434C13.4813 29.8612 14.2784 30.9284 15.5898 30.9284H19.5434C20.8548 30.9284 22.1791 29.8612 22.507 28.5434L23.0213 26.4477C23.2114 25.9312 23.5398 25.477 23.9706 25.1346C24.4015 24.7922 24.9181 24.5749 25.4641 24.5062L27.5534 24.4998C28.2349 24.47 28.8895 24.225 29.4231 23.8C29.9568 23.3749 30.3419 22.7917 30.5234 22.1341L31.5005 18.1741C31.822 16.8562 31.0248 15.7955 29.7005 15.7955L29.707 15.7891ZM18.5213 26.2355C15.2105 26.2355 13.1855 23.5484 14.0084 20.2312C14.8248 16.9141 18.1677 14.2141 21.4784 14.2141C24.7891 14.2141 26.8141 16.9077 25.9977 20.2248C25.1813 23.5419 21.832 26.2291 18.5213 26.2291V26.2355Z" fill="black"/>
<path d="M29.2445 15.4999H27.1359C26.1266 15.4099 25.5031 14.5034 25.6509 13.4877L26.1652 11.4177C26.4866 10.1191 25.6895 9.07129 24.3781 9.07129H20.4181C19.7412 9.10246 19.0914 9.34587 18.5606 9.76702C18.0298 10.1882 17.6451 10.7657 17.4609 11.4177L16.9466 13.4749C16.7641 13.9969 16.4446 14.4602 16.0217 14.8165C15.5987 15.1727 15.0878 15.4087 14.5423 15.4999H12.4402C11.7719 15.5067 11.1234 15.7277 10.59 16.1304C10.0566 16.5331 9.66636 17.0962 9.47662 17.737L8.49948 21.6327C8.17805 22.9184 8.98162 23.857 10.2995 23.857H12.3823C13.3916 23.947 14.0152 24.8663 13.8609 25.882L13.3466 27.9391C13.0252 29.2377 13.8288 30.2856 15.1402 30.2856H19.0938C20.4052 30.2856 21.7295 29.2377 22.0509 27.9391L22.5652 25.882C22.9316 24.8663 23.9538 23.9534 25.0081 23.857H27.0973C27.7645 23.8538 28.4131 23.6366 28.9477 23.2374C29.4823 22.8381 29.8747 22.278 30.0673 21.6391L31.0445 17.7434C31.3659 16.4577 30.5623 15.4999 29.2445 15.4999ZM18.0588 25.6763C14.7545 25.6763 12.7295 23.0341 13.5459 19.7684C14.3623 16.5091 17.7052 13.867 21.0159 13.867C24.3266 13.867 26.3516 16.5027 25.5352 19.7684C24.7188 23.0277 21.3759 25.6763 18.0652 25.6763H18.0588Z" fill="#004D96"/>
</g>
<circle cx="20" cy="20" r="19.5" stroke="black" stroke-opacity="0.05"/>
<defs>
<clipPath id="clip0_9_405183">
<rect width="24" height="22" fill="white" transform="translate(8 9)"/>
</clipPath>
</defs>
</svg>
