<svg width="40" height="40" viewBox="0 0 40 40" fill="none" xmlns="http://www.w3.org/2000/svg">
<circle cx="20" cy="20" r="20" fill="#005CB9"/>
<g clip-path="url(#clip0_9_410552)">
<path d="M4.81907 22.0361H3.71436L5.49561 17.2861H6.69532L8.46436 22.0361H7.32436L7.00339 21.0522H5.16378L4.81907 22.0361ZM5.43657 20.2379H6.70686L6.10089 18.3603H6.08936L5.43657 20.2379ZM13.8929 22.0361H13.0006V20.0323C13.0006 19.5444 12.7726 19.3856 12.512 19.3856C12.0669 19.3856 11.9658 19.672 11.9658 20.0642V22.0361H11.1298V20.0425C11.1298 19.767 11.1298 19.3748 10.5869 19.3748C10.1635 19.3748 10.0386 19.6611 10.0386 20.0215V22.0361H9.14293V18.7281H10.0386V19.216C10.1581 19.0036 10.3806 18.6433 10.9778 18.6433C11.4664 18.6433 11.7378 18.8129 11.9658 19.1732C12.0852 19.0145 12.2481 18.6433 12.7909 18.6433C13.4641 18.6433 13.8929 19.0253 13.8929 19.746V22.0361ZM15.4631 19.2153C15.6335 18.9452 15.8988 18.6433 16.5122 18.6433C17.2837 18.6433 17.9644 19.2153 17.9644 20.3709C17.9644 21.2883 17.5328 22.1732 16.4891 22.1732C15.8425 22.1732 15.5765 21.8387 15.4631 21.6555V23.3933H14.5715V18.7295H15.4631V19.2153ZM16.2625 21.4498C16.8529 21.4498 17.0225 20.8351 17.0225 20.4354C17.0225 19.9061 16.8298 19.4101 16.2394 19.4101C15.6043 19.4101 15.4564 19.9495 15.4564 20.489C15.4564 20.9857 15.6837 21.4498 16.2625 21.4498ZM22.0358 22.0361H21.0464V20.0228C21.0464 19.7629 21.0301 19.2085 20.3997 19.2085C19.9634 19.2085 19.6126 19.4915 19.6126 20.0228V22.0361H18.6429V17.2861H19.6119V18.971C19.7341 18.6772 20.1819 18.4173 20.7268 18.4173C21.4665 18.4173 22.0358 18.8245 22.0358 19.5933V22.0361ZM26.0617 21.0074C25.8134 21.7817 25.1009 22.0361 24.4902 22.0361C23.4832 22.0361 22.7144 21.6018 22.7144 20.2759C22.7144 19.8837 22.8616 18.6433 24.4223 18.6433C25.1233 18.6433 26.1072 18.9507 26.1072 20.4143V20.5623H23.6528C23.6759 20.8066 23.7322 21.3467 24.4902 21.3467C24.7501 21.3467 25.0215 21.23 25.0894 20.9972H26.0617V21.0074ZM25.1348 20.0215C25.0778 19.5023 24.7161 19.3429 24.4108 19.3429C23.9697 19.3429 23.7322 19.5973 23.6759 20.0215H25.1348ZM30.1786 22.0361H29.1893V20.0323C29.1893 19.788 29.1777 19.3856 28.5514 19.3856C28.1171 19.3856 27.7799 19.6503 27.7799 20.149V22.0361H26.7858V18.7281H27.7317V19.216H27.7432C27.8762 19.0145 28.1531 18.6433 28.8643 18.6433C29.5991 18.6433 30.1786 19.0253 30.1786 19.746V22.0361ZM32.5536 22.0361C31.6627 22.0361 30.8572 21.5062 30.8572 20.3397C30.8572 19.1732 31.6634 18.6433 32.5536 18.6433C33.4446 18.6433 34.2501 19.1732 34.2501 20.3397C34.2501 21.5062 33.4439 22.0361 32.5536 22.0361ZM32.5536 19.3537C31.8859 19.3537 31.7584 19.9265 31.7584 20.3397C31.7584 20.7536 31.8859 21.3257 32.5536 21.3257C33.2322 21.3257 33.3489 20.753 33.3489 20.3397C33.3489 19.9258 33.2322 19.3537 32.5536 19.3537ZM35.9465 22.0361H34.9286V17.2861H35.9465V22.0361Z" fill="white"/>
</g>
<circle cx="20" cy="20" r="19.5" stroke="black" stroke-opacity="0.05"/>
<defs>
<clipPath id="clip0_9_410552">
<rect width="33" height="7" fill="white" transform="translate(3 17)"/>
</clipPath>
</defs>
</svg>
