<svg width="40" height="40" viewBox="0 0 40 40" fill="none" xmlns="http://www.w3.org/2000/svg">
<circle cx="20" cy="20" r="20" fill="#DD0320"/>
<g clip-path="url(#clip0_9_395775)">
<path d="M19.3216 17.2856V17.8135C19.6235 17.4403 19.8291 17.289 20.3415 17.289C21.4835 17.289 22.0359 17.8963 22.0359 19.1788V22.1319C22.0359 22.5866 21.9965 22.9035 21.8777 23.1939C21.681 23.7598 21.1517 24.0713 20.4066 24.0713C19.9072 24.0713 19.6466 23.9573 19.3216 23.6519V26.107H17.9644V17.2856H19.3216ZM20.0001 22.7141C20.486 22.7141 20.6787 22.3674 20.6787 21.8429V19.552C20.6787 19.0139 20.4989 18.642 20.0001 18.642C19.5014 18.642 19.3216 19.0139 19.3216 19.5513V21.8422C19.3216 22.3674 19.5007 22.7141 20.0001 22.7141ZM14.5716 17.289V17.8162C14.8735 17.443 15.0791 17.2917 15.5915 17.2917C16.7335 17.2917 17.2859 17.899 17.2859 19.1815V22.1346C17.2859 22.5893 17.2465 22.9069 17.1277 23.1973C16.931 23.7625 16.4017 24.0747 15.6566 24.0747C15.1572 24.0747 14.8966 23.96 14.5716 23.6546V26.1104H13.2144V17.289H14.5716ZM15.2501 22.7175C15.736 22.7175 15.9287 22.3701 15.9287 21.8456V19.5554C15.9287 19.018 15.7489 18.6461 15.2501 18.6461C14.7514 18.6461 14.5716 19.018 14.5716 19.5554V21.8456C14.5716 22.3715 14.7507 22.7175 15.2501 22.7175ZM24.0716 17.289H22.7144V24.0713H24.0716V17.289ZM24.7501 19.3213V19.1055C24.7501 17.8929 25.5081 17.2856 26.8388 17.2856C28.1688 17.2856 28.8216 17.8515 28.8216 19.1055V24.0713H27.4644V23.5468C27.229 23.9057 26.9555 24.0713 26.355 24.0713C25.2977 24.0713 24.7501 23.5603 24.7501 22.5811V21.7954C24.7501 20.9682 25.0365 20.5671 25.8074 20.3059L27.4644 19.74V19.4509C27.4644 18.9413 27.2167 18.6576 26.7859 18.6427C26.355 18.6278 26.1073 19.0227 26.1073 19.3213H24.7501ZM26.5382 21.1127C26.1731 21.2376 26.1073 21.4303 26.1073 21.8863V22.0668C26.1073 22.535 26.5171 22.7141 26.7859 22.7141C27.0546 22.7141 27.4644 22.5811 27.4644 22.0356V20.8013L26.5382 21.1134V21.1127ZM29.5001 17.2856H30.8573V17.8596C31.166 17.4803 31.5202 17.2693 31.9966 17.2863C32.4377 17.2863 32.8774 17.4403 33.1441 17.692C33.271 17.8121 33.3714 17.9601 33.4379 18.125C33.558 18.4045 33.5716 18.5579 33.5716 19.1035V24.0713H32.2144V19.4516C32.2144 18.9067 32.0034 18.6407 31.5359 18.6407C31.0683 18.6407 30.8573 18.9067 30.8573 19.4516V24.0713H29.5001V17.2856ZM12.5359 24.0713V14.5713H9.82157L6.42871 24.0713H7.78585L8.51328 21.946C8.70667 21.5334 9.02696 21.4452 9.37643 21.3238L11.1787 20.6771V24.0713H12.5359ZM9.21764 19.9999L10.5001 15.9284H11.1787V19.3226L9.21764 19.9999ZM24.3932 15.5498L23.4296 14.5713H23.3523L22.3928 15.5471V15.6299L23.355 16.607H23.4296L24.3932 15.6278V15.5498Z" fill="white"/>
</g>
<circle cx="20" cy="20" r="19.5" stroke="black" stroke-opacity="0.05"/>
<defs>
<clipPath id="clip0_9_395775">
<rect width="28" height="13" fill="white" transform="translate(6 14)"/>
</clipPath>
</defs>
</svg>
