<svg width="40" height="40" viewBox="0 0 40 40" fill="none" xmlns="http://www.w3.org/2000/svg">
<circle cx="20" cy="20" r="20" fill="#F6F8FA"/>
<g clip-path="url(#clip0_9_408505)">
<path d="M19.5402 8H20.5406C21.0883 8.01935 21.6336 8.06317 22.1765 8.13146C24.7167 8.45073 27.1633 9.38179 29.2107 10.9218C30.9257 12.2117 32.3268 13.9415 33.1418 15.9382C33.8186 17.596 34.0913 19.3262 33.9599 21.129C33.7504 24.0047 32.4569 26.6339 30.3785 28.6432C28.0298 30.9136 24.8935 32.2092 21.6228 32.5179C17.1437 32.9408 12.4736 31.5761 9.30565 28.3011C8.52692 27.4958 7.87274 26.6026 7.34309 25.6215C6.47957 24.0223 6.03187 22.2882 6 20.4193V20.1148C6.02751 18.4513 6.38889 16.8923 7.08415 15.4376C7.56959 14.4222 8.18869 13.4925 8.94142 12.6487C11.524 9.75455 15.318 8.20146 19.1762 8.01907C19.2974 8.01337 19.4188 8.00702 19.5402 8ZM14.1593 26.0219L14.3619 28.1819C14.363 28.1952 14.3694 28.1984 14.3809 28.1916L14.5104 28.1153C14.5172 28.1113 14.5244 28.1108 14.532 28.1136L14.565 28.127C14.5755 28.1312 14.5807 28.1277 14.5807 28.1165C14.5807 28.1055 14.5857 28.0983 14.5958 28.0951C14.6293 28.0843 14.7372 28.1611 14.8274 28.2155C14.8433 28.225 14.8502 28.2205 14.8479 28.2021L14.6564 26.6891C14.6561 26.6872 14.6563 26.6852 14.6569 26.6833C14.6575 26.6814 14.6585 26.6796 14.6598 26.6782C14.6611 26.6767 14.6627 26.6755 14.6646 26.6747C14.6664 26.6739 14.6683 26.6735 14.6703 26.6735H25.3997C25.4015 26.6735 25.4033 26.6739 25.4049 26.6746C25.4066 26.6753 25.4081 26.6764 25.4093 26.6778C25.4105 26.6792 25.4114 26.6808 25.4119 26.6826C25.4125 26.6843 25.4127 26.6862 25.4125 26.688L25.2204 28.2101C25.2202 28.2113 25.2204 28.2126 25.2208 28.2138C25.2213 28.215 25.2221 28.216 25.2232 28.2167C25.2242 28.2175 25.2254 28.2179 25.2267 28.218C25.228 28.2181 25.2292 28.2178 25.2304 28.2172C25.2907 28.1882 25.3466 28.1567 25.398 28.1227C25.4193 28.1085 25.4452 28.1119 25.4654 28.1259C25.4745 28.1323 25.4797 28.1299 25.4811 28.1187C25.482 28.1081 25.4874 28.0994 25.4973 28.0926C25.5011 28.0898 25.5057 28.0882 25.5104 28.088C25.5151 28.0878 25.5198 28.089 25.5237 28.0914L25.6697 28.1802C25.6836 28.1887 25.6912 28.1848 25.6928 28.1685L25.8948 26.013C25.895 26.0109 25.896 26.0088 25.8977 26.0074C25.8993 26.0059 25.9014 26.0051 25.9036 26.0051H27.7196C27.7303 26.0051 27.736 26.0103 27.737 26.0207L27.9416 28.2115C27.9417 28.2128 27.9421 28.2141 27.9429 28.2153C27.9436 28.2164 27.9447 28.2173 27.9459 28.218C27.9471 28.2186 27.9484 28.2189 27.9498 28.219C27.9512 28.219 27.9526 28.2187 27.9538 28.218L28.1843 28.1019C28.1934 28.0972 28.2031 28.0957 28.2133 28.0974C28.2344 28.1012 28.2543 28.1089 28.2731 28.1204C28.5804 28.3101 28.9164 28.4233 29.281 28.4599C29.2871 28.4605 29.2933 28.4597 29.2991 28.4578C29.305 28.4559 29.3104 28.4529 29.3151 28.4488C30.5842 27.3328 31.5446 26.0517 32.1962 24.6056C32.9112 23.0188 33.216 21.3532 33.1105 19.6089C32.9318 16.6496 31.49 13.9679 29.2437 12.0543C27.6277 10.6776 25.6686 9.74289 23.5819 9.25573C22.2992 8.95619 20.9496 8.82615 19.533 8.86561C15.5186 8.97715 11.5075 10.6472 9.03219 13.9039C8.36122 14.7864 7.84276 15.7377 7.47683 16.7577C7.0113 18.0547 6.81211 19.3955 6.87927 20.7801C7.02467 23.7773 8.45654 26.4937 10.721 28.4488C10.7254 28.4526 10.7305 28.4554 10.7361 28.4571C10.7416 28.4588 10.7474 28.4594 10.7532 28.4588C11.1521 28.4204 11.4811 28.2949 11.82 28.1054C11.8589 28.0835 11.9013 28.0928 11.9372 28.1165C11.9913 28.1517 12.0449 28.1831 12.0983 28.2106C12.1079 28.2158 12.1132 28.2129 12.1142 28.2021L12.3188 26.0213C12.3197 26.0105 12.3256 26.0051 12.3364 26.0051H14.1408C14.152 26.0051 14.1581 26.0107 14.1593 26.0219ZM18.5937 29.3597C18.6078 29.3545 18.6211 29.3559 18.6336 29.3637C19.0579 29.6217 19.5166 29.7469 20.0097 29.7395C20.3978 29.7337 20.7591 29.6494 21.0935 29.4869C21.1772 29.4463 21.2607 29.4023 21.3439 29.3548C21.3701 29.34 21.4057 29.344 21.4304 29.3594C21.7343 29.5491 22.0674 29.6664 22.4295 29.7114C23.0204 29.7846 23.5669 29.674 24.0688 29.3796C24.0899 29.3671 24.1129 29.3676 24.1343 29.3787C24.1481 29.3858 24.1547 29.3815 24.1539 29.3659C24.1533 29.357 24.157 29.3504 24.165 29.346C24.1679 29.3444 24.1711 29.3436 24.1744 29.3435C24.1777 29.3435 24.1809 29.3442 24.1838 29.3457C24.2691 29.3898 24.3494 29.4476 24.4348 29.4863C25.1302 29.7987 25.8272 29.8169 26.5256 29.5406C26.6526 29.4906 26.7729 29.4206 26.8973 29.3608C26.9272 29.3466 26.9562 29.3484 26.9841 29.3662C27.1874 29.4967 27.4099 29.5925 27.6516 29.6536C27.663 29.6565 27.6737 29.6548 27.6838 29.6488C28.1749 29.3445 28.641 29.0101 29.0821 28.6457C29.0832 28.6448 29.084 28.6436 29.0844 28.6422C29.0848 28.6408 29.0849 28.6394 29.0845 28.638C29.0842 28.6366 29.0834 28.6353 29.0824 28.6343C29.0814 28.6333 29.0801 28.6326 29.0787 28.6324C28.771 28.5789 28.4842 28.4745 28.2185 28.3193C28.2142 28.3168 28.2094 28.3155 28.2044 28.3155C28.1995 28.3154 28.1946 28.3166 28.1903 28.3191C27.5671 28.6601 26.9007 28.7492 26.191 28.5863C25.9452 28.5297 25.7133 28.4367 25.4956 28.3071C25.4925 28.3052 25.4889 28.3042 25.4853 28.3042C25.4817 28.3042 25.4782 28.3052 25.4751 28.3071C24.8172 28.7049 23.9837 28.7584 23.2584 28.5308C23.0807 28.475 22.9184 28.4009 22.7715 28.3085C22.7676 28.3061 22.7631 28.3048 22.7585 28.3048C22.7538 28.3047 22.7493 28.3059 22.7454 28.3082C21.9202 28.8054 20.8636 28.7883 20.041 28.3193C20.0319 28.3142 20.0228 28.3143 20.0137 28.3196C19.7536 28.4722 19.4782 28.5747 19.1876 28.6272C18.5229 28.7473 17.8968 28.6449 17.3093 28.3199C17.3004 28.315 17.2914 28.315 17.2825 28.3199C16.4639 28.7806 15.4187 28.784 14.5932 28.3094C14.5847 28.3045 14.5762 28.3045 14.5679 28.3097C14.2864 28.477 13.9813 28.5844 13.6528 28.6318C13.0028 28.7257 12.4078 28.6193 11.8675 28.3125C11.8582 28.3074 11.849 28.3075 11.8399 28.3128C11.5728 28.4725 11.278 28.5775 10.9555 28.6278C10.9538 28.628 10.9522 28.6288 10.9509 28.6299C10.9496 28.6311 10.9486 28.6326 10.9482 28.6342C10.9477 28.6359 10.9478 28.6376 10.9483 28.6393C10.9489 28.6409 10.9499 28.6424 10.9512 28.6435C11.3872 29.0007 11.8432 29.3269 12.3193 29.6223C12.3271 29.6271 12.3357 29.6302 12.3447 29.6315C12.3537 29.6327 12.3629 29.6321 12.3717 29.6297C12.5794 29.5719 12.7695 29.4885 12.942 29.3796C12.9653 29.3648 12.9886 29.3649 13.012 29.3799C13.0137 29.381 13.0158 29.3816 13.0179 29.3817C13.02 29.3818 13.022 29.3812 13.0239 29.3802C13.0257 29.3792 13.0272 29.3777 13.0283 29.3759C13.0294 29.3741 13.0299 29.372 13.0299 29.3699C13.0297 29.3593 13.0343 29.3512 13.0438 29.3457C13.0473 29.3437 13.0514 29.3426 13.0555 29.3426C13.0596 29.3427 13.0636 29.3438 13.0672 29.346C13.2882 29.4839 13.5116 29.5825 13.7376 29.6417C14.4406 29.8261 15.1134 29.7346 15.7559 29.3674C15.7935 29.3459 15.8302 29.3467 15.866 29.3696C16.1593 29.5557 16.4939 29.672 16.8699 29.7185C17.4544 29.791 18.001 29.6787 18.5098 29.3816C18.5185 29.3766 18.5278 29.3749 18.5377 29.3765C18.5475 29.378 18.5569 29.3808 18.5659 29.385C18.5808 29.3922 18.5865 29.3877 18.5829 29.3713C18.5818 29.3664 18.5854 29.3625 18.5937 29.3597ZM22.9502 30.5906C22.9531 30.5875 22.957 30.5855 22.9612 30.5849C22.9654 30.5844 22.9697 30.5853 22.9733 30.5875C23.3992 30.8554 23.8708 30.9873 24.3881 30.9833C24.611 30.9816 24.7954 30.9633 24.9413 30.9284C25.0077 30.9125 25.0722 30.8933 25.135 30.8709C25.9269 30.5892 26.6898 30.2342 27.424 29.8059C27.4252 29.8051 27.4263 29.804 27.4269 29.8027C27.4276 29.8014 27.4279 29.7999 27.4278 29.7985C27.4277 29.7971 27.4271 29.7957 27.4263 29.7946C27.4254 29.7935 27.4242 29.7926 27.4228 29.7922C27.2474 29.7334 27.0858 29.6593 26.9382 29.57C26.9288 29.5641 26.9192 29.564 26.9095 29.5697C26.0669 30.0546 24.9948 30.0417 24.165 29.5651C24.1606 29.5626 24.1556 29.5613 24.1505 29.5613C24.1454 29.5614 24.1404 29.5628 24.136 29.5654C23.3014 30.0531 22.213 30.0446 21.3852 29.5648C21.3763 29.5597 21.3674 29.5597 21.3585 29.5648C20.8552 29.8572 20.3062 29.9769 19.7115 29.9239C19.3089 29.8879 18.938 29.771 18.5986 29.5734C18.5904 29.5686 18.5823 29.5686 18.5741 29.5734C17.7381 30.0548 16.6525 30.0637 15.8159 29.5697C15.8068 29.5642 15.7977 29.5641 15.7886 29.5694C14.9577 30.0508 13.8741 30.0443 13.0484 29.5668C13.0362 29.5596 13.0241 29.5596 13.012 29.5668C12.8708 29.6509 12.7298 29.7175 12.5888 29.7669C12.5752 29.7716 12.5746 29.7776 12.5871 29.7848C13.2985 30.2019 14.043 30.5513 14.8206 30.8328C14.971 30.8872 15.1414 30.928 15.3316 30.9552C15.6061 30.9944 15.8721 31.0011 16.1295 30.9751C16.5137 30.9366 16.8674 30.8201 17.1906 30.6256C17.2045 30.6173 17.2212 30.6182 17.2407 30.6282C17.2562 30.6364 17.2652 30.6317 17.2674 30.6143C17.2703 30.5909 17.2817 30.5855 17.3016 30.598C18.0759 31.0866 19.0684 31.1185 19.8848 30.7028C19.9517 30.6686 20.0183 30.6331 20.0845 30.5963C20.096 30.59 20.1091 30.5868 20.1222 30.5872C20.1354 30.5876 20.1482 30.5916 20.1593 30.5986C20.3887 30.7439 20.6342 30.847 20.8958 30.9079C21.5973 31.0716 22.2556 30.9746 22.8706 30.6168C22.8785 30.6123 22.887 30.611 22.8959 30.6131L22.9309 30.6211C22.9394 30.6232 22.9432 30.6198 22.9423 30.6108C22.9415 30.604 22.9442 30.5973 22.9502 30.5906ZM15.938 31.1885C16.745 31.4129 17.5813 31.5679 18.4469 31.6535C19.5536 31.7631 20.6585 31.7584 21.7617 31.6392C22.5768 31.5514 23.3826 31.3972 24.1789 31.1765C24.1894 31.1737 24.1892 31.1719 24.1784 31.1711C23.7379 31.1461 23.3312 31.0254 22.9582 30.8092C22.9495 30.8043 22.9409 30.8043 22.9323 30.8092C22.0849 31.2952 20.9777 31.312 20.1212 30.8069C20.1119 30.8014 20.1025 30.8014 20.093 30.8069C19.5158 31.1442 18.8827 31.2569 18.1939 31.145C17.8667 31.0918 17.5617 30.982 17.2788 30.8154C17.2709 30.8107 17.2628 30.8106 17.2546 30.8152C16.8534 31.0477 16.4134 31.1713 15.9346 31.1859C15.9287 31.1861 15.9287 31.1868 15.9346 31.1879C15.9357 31.1881 15.9369 31.1883 15.938 31.1885Z" fill="#002A5C"/>
<path d="M17.4761 13.0002L14.1552 10.7854C14.1493 10.7815 14.1414 10.7831 14.1374 10.789L14.0421 10.932C14.0381 10.9378 14.0397 10.9458 14.0456 10.9497L17.3665 13.1645C17.3724 13.1684 17.3804 13.1668 17.3843 13.1609L17.4796 13.018C17.4836 13.0121 17.482 13.0041 17.4761 13.0002Z" fill="#002A5C"/>
<path d="M25.9559 10.7845L22.6431 13.0022C22.6361 13.0069 22.6342 13.0165 22.6389 13.0235L22.732 13.1625C22.7367 13.1696 22.7463 13.1715 22.7533 13.1668L26.0661 10.949C26.0732 10.9443 26.075 10.9348 26.0703 10.9277L25.9772 10.7887C25.9725 10.7816 25.963 10.7798 25.9559 10.7845Z" fill="#002A5C"/>
<path d="M19.1848 11.9748L20.0277 10.9157C20.0286 10.9146 20.0298 10.9137 20.0311 10.9131C20.0324 10.9124 20.0339 10.9121 20.0354 10.9121C20.0368 10.9121 20.0383 10.9124 20.0396 10.9131C20.0409 10.9137 20.0421 10.9146 20.043 10.9157L20.8859 11.9748C20.8871 11.9763 20.8878 11.9781 20.888 11.98C20.8883 11.9819 20.8879 11.9838 20.8871 11.9855C20.8862 11.9872 20.8849 11.9886 20.8833 11.9896C20.8817 11.9906 20.8798 11.9911 20.8779 11.9911H19.1928C19.1909 11.9911 19.189 11.9906 19.1874 11.9896C19.1858 11.9886 19.1845 11.9872 19.1836 11.9855C19.1828 11.9838 19.1825 11.9819 19.1827 11.98C19.1829 11.9781 19.1836 11.9763 19.1848 11.9748Z" fill="#002A5C"/>
<path d="M20.6361 12.3535H19.4285C19.4219 12.3535 19.4165 12.3589 19.4165 12.3655V13.416C19.4165 13.4226 19.4219 13.428 19.4285 13.428H20.6361C20.6427 13.428 20.648 13.4226 20.648 13.416V12.3655C20.648 12.3589 20.6427 12.3535 20.6361 12.3535Z" fill="#002A5C"/>
<path d="M21.3739 14.1684L18.6911 14.1672C18.6894 14.1672 18.6878 14.1668 18.6863 14.166C18.6848 14.1652 18.6835 14.1641 18.6826 14.1627L18.4441 13.7982C18.4431 13.7966 18.4425 13.7948 18.4424 13.7929C18.4423 13.791 18.4428 13.7892 18.4437 13.7875C18.4446 13.7859 18.4459 13.7845 18.4476 13.7836C18.4492 13.7826 18.4511 13.7822 18.4529 13.7822L21.612 13.7837C21.6139 13.7836 21.6158 13.7841 21.6174 13.785C21.6191 13.7859 21.6204 13.7873 21.6213 13.7889C21.6222 13.7906 21.6227 13.7924 21.6226 13.7943C21.6225 13.7962 21.6219 13.798 21.6209 13.7996L21.3824 14.1638C21.3815 14.1652 21.3802 14.1664 21.3787 14.1672C21.3772 14.168 21.3756 14.1684 21.3739 14.1684Z" fill="#002A5C"/>
<path d="M31.0982 15.5156L22.6824 14.4226C22.6752 14.4217 22.6687 14.4267 22.6677 14.4339L22.6461 14.6009C22.6451 14.6081 22.6502 14.6147 22.6573 14.6156L31.0732 15.7086C31.0803 15.7096 31.0869 15.7045 31.0878 15.6973L31.1095 15.5303C31.1105 15.5231 31.1054 15.5165 31.0982 15.5156Z" fill="#002A5C"/>
<path d="M17.4035 14.4359L8.99221 15.5284C8.98411 15.5294 8.97839 15.5368 8.97944 15.5449L9.00077 15.7092C9.00183 15.7173 9.00925 15.723 9.01735 15.7219L17.4287 14.6295C17.4368 14.6285 17.4425 14.621 17.4414 14.6129L17.4201 14.4487C17.419 14.4406 17.4116 14.4349 17.4035 14.4359Z" fill="#002A5C"/>
<path d="M21.3697 14.5225H18.7012C18.6955 14.5225 18.6909 14.527 18.6909 14.5327V17.0169C18.6909 17.0225 18.6955 17.0271 18.7012 17.0271H21.3697C21.3754 17.0271 21.3799 17.0225 21.3799 17.0169V14.5327C21.3799 14.527 21.3754 14.5225 21.3697 14.5225Z" fill="#002A5C"/>
<path d="M32.057 23.2715L22.7779 15.8376C22.7727 15.8334 22.7652 15.8343 22.7611 15.8394L22.6518 15.9758C22.6477 15.9809 22.6485 15.9884 22.6537 15.9926L31.9328 23.4265C31.938 23.4307 31.9455 23.4298 31.9496 23.4247L32.0589 23.2883C32.063 23.2832 32.0622 23.2757 32.057 23.2715Z" fill="#002A5C"/>
<path d="M17.328 15.8398L8.04932 23.2734C8.04393 23.2777 8.04306 23.2856 8.04738 23.291L8.15448 23.4247C8.15881 23.4301 8.16669 23.431 8.17208 23.4267L17.4508 15.993C17.4562 15.9887 17.457 15.9808 17.4527 15.9754L17.3456 15.8417C17.3413 15.8363 17.3334 15.8355 17.328 15.8398Z" fill="#002A5C"/>
<path d="M21.6166 17.8737H18.453C18.4515 17.8736 18.45 17.8732 18.4487 17.8725C18.4474 17.8717 18.4464 17.8707 18.4456 17.8694C18.4448 17.8681 18.4444 17.8667 18.4443 17.8652C18.4443 17.8637 18.4446 17.8622 18.4453 17.8609L18.684 17.3877C18.6848 17.3862 18.6859 17.3849 18.6873 17.3841C18.6887 17.3832 18.6903 17.3828 18.692 17.3828H21.3773C21.379 17.3828 21.3806 17.3832 21.382 17.3841C21.3834 17.3849 21.3845 17.3862 21.3853 17.3877L21.6243 17.8609C21.625 17.8622 21.6253 17.8637 21.6253 17.8652C21.6252 17.8667 21.6248 17.8681 21.624 17.8694C21.6232 17.8707 21.6222 17.8717 21.6209 17.8725C21.6196 17.8732 21.6181 17.8736 21.6166 17.8737Z" fill="#002A5C"/>
<path d="M17.7856 18.2369L22.2853 18.2363C22.2869 18.2363 22.2886 18.2367 22.29 18.2376C22.2915 18.2384 22.2926 18.2396 22.2934 18.2411C22.2942 18.2426 22.2946 18.2442 22.2945 18.2459C22.2944 18.2476 22.2939 18.2492 22.2929 18.2506L21.9973 18.6805C21.9964 18.6818 21.9953 18.6828 21.994 18.6835C21.9926 18.6842 21.9911 18.6845 21.9896 18.6845L18.081 18.6851C18.0795 18.6851 18.078 18.6847 18.0766 18.684C18.0753 18.6834 18.0742 18.6823 18.0733 18.6811L17.7779 18.2511C17.777 18.2497 17.7765 18.2481 17.7764 18.2465C17.7763 18.2448 17.7767 18.2431 17.7775 18.2417C17.7783 18.2402 17.7794 18.239 17.7809 18.2381C17.7823 18.2373 17.784 18.2369 17.7856 18.2369Z" fill="#002A5C"/>
<path d="M22.0027 19.0581L22.7172 26.3117C22.7174 26.3129 22.7172 26.3142 22.7168 26.3154C22.7164 26.3166 22.7158 26.3177 22.7149 26.3187C22.714 26.3196 22.713 26.3204 22.7118 26.3209C22.7107 26.3214 22.7094 26.3216 22.7081 26.3216L17.3546 26.3159C17.3533 26.3159 17.3521 26.3156 17.351 26.3151C17.3498 26.3146 17.3488 26.3138 17.348 26.3129C17.3472 26.3119 17.3465 26.3108 17.3462 26.3097C17.3458 26.3085 17.3456 26.3072 17.3457 26.306L18.0751 19.0541C18.0753 19.0519 18.0763 19.0498 18.078 19.0483C18.0797 19.0467 18.0819 19.0459 18.0842 19.0459L21.9936 19.0499C21.9959 19.0499 21.9981 19.0507 21.9998 19.0522C22.0015 19.0538 22.0025 19.0559 22.0027 19.0581Z" fill="#002A5C"/>
<path d="M27.7286 25.642H25.9018C25.9001 25.642 25.8984 25.6415 25.8969 25.6407C25.8954 25.6398 25.8941 25.6386 25.8933 25.6371L25.6551 25.2225C25.6542 25.221 25.6538 25.2194 25.6538 25.2176C25.6538 25.2159 25.6543 25.2143 25.6551 25.2128C25.656 25.2113 25.6573 25.2101 25.6587 25.2092C25.6602 25.2084 25.6619 25.208 25.6636 25.208H27.9665C27.9682 25.208 27.9699 25.2084 27.9714 25.2092C27.9729 25.2101 27.9742 25.2113 27.975 25.2128C27.9759 25.2143 27.9764 25.2159 27.9764 25.2176C27.9764 25.2194 27.9759 25.221 27.9751 25.2225L27.7372 25.6371C27.7363 25.6386 27.7351 25.6398 27.7336 25.6407C27.7321 25.6415 27.7304 25.642 27.7286 25.642Z" fill="#002A5C"/>
<path d="M12.0998 25.2158H14.4036C14.4051 25.2158 14.4066 25.2162 14.4079 25.217C14.4092 25.2178 14.4103 25.2189 14.4111 25.2202C14.4119 25.2215 14.4123 25.223 14.4123 25.2245C14.4124 25.2261 14.412 25.2276 14.4112 25.2289L14.1733 25.6452C14.1726 25.6466 14.1715 25.6477 14.1701 25.6485C14.1688 25.6493 14.1672 25.6498 14.1657 25.6498H12.338C12.3364 25.6498 12.3349 25.6493 12.3335 25.6485C12.3322 25.6477 12.3311 25.6466 12.3303 25.6452L12.0924 25.2289C12.0917 25.2276 12.0913 25.2261 12.0913 25.2246C12.0913 25.2231 12.0917 25.2216 12.0925 25.2203C12.0932 25.219 12.0943 25.2179 12.0955 25.2171C12.0968 25.2163 12.0983 25.2159 12.0998 25.2158Z" fill="#002A5C"/>
</g>
<circle cx="20" cy="20" r="19.5" stroke="black" stroke-opacity="0.05"/>
<defs>
<clipPath id="clip0_9_408505">
<rect width="28" height="24.6138" fill="white" transform="translate(6 8)"/>
</clipPath>
</defs>
</svg>
