<svg width="40" height="40" viewBox="0 0 40 40" fill="none" xmlns="http://www.w3.org/2000/svg">
<circle cx="20" cy="20" r="20" fill="#EC1521"/>
<g clip-path="url(#clip0_9_404149)">
<path d="M23.1241 15.6314C23.6894 15.6314 24.23 15.3446 24.5711 14.8651C24.8073 14.5318 24.9338 14.1298 24.9322 13.7176C24.9322 13.3009 24.8072 12.9034 24.5711 12.5701C24.4053 12.3347 24.188 12.1428 23.9366 12.0096C23.6852 11.8765 23.4069 11.806 23.1241 11.8037C22.1267 11.8037 21.3154 12.6623 21.3154 13.7176C21.3154 14.7729 22.1267 15.6314 23.1241 15.6314Z" fill="white"/>
<path d="M30.0086 15.7461C29.9887 15.7208 29.9488 15.7181 29.9022 15.7331L29.8763 15.7433C28.5198 16.2706 25.5287 16.8444 21.503 16.0869C16.7086 15.1853 14.9877 15.6388 14.1419 15.966L14.1206 15.9749C14.0694 15.9974 14.0375 16.0322 14.0395 16.0684C14.0421 16.1053 14.0794 16.1354 14.1332 16.1511C14.1359 16.1511 14.1379 16.1518 14.1405 16.1531C20.1937 17.5916 16.4473 22.948 8.18377 28.0004C8.16932 28.0073 8.15552 28.0155 8.14255 28.025C8.096 28.0591 8.07073 28.1015 8.08004 28.1377C8.09134 28.1787 8.14654 28.1992 8.21769 28.1957C8.22434 28.1957 8.23099 28.1957 8.23631 28.1944C9.67729 28.0571 11.8005 27.2409 14.35 26.0401L14.3533 26.0387C14.6506 25.8987 14.9538 25.7532 15.2623 25.6023C16.551 25.006 18.014 24.4472 18.9423 24.7567C20.1658 25.1644 20.4012 26.1296 20.5482 27.9587L20.5508 27.9874C20.5568 28.0346 20.5741 28.0694 20.6033 28.0783C20.6346 28.0885 20.6712 28.0646 20.7031 28.0223C20.7067 28.0167 20.7104 28.0112 20.7144 28.0059C21.3095 27.1405 23.5166 23.7574 23.6409 21.0867C26.6067 19.2664 29.0803 17.3997 29.974 15.9079C29.9853 15.8925 29.9951 15.8761 30.0033 15.8588C30.0252 15.8137 30.0286 15.7713 30.0086 15.7461Z" fill="white"/>
</g>
<circle cx="20" cy="20" r="19.5" stroke="black" stroke-opacity="0.05"/>
<defs>
<clipPath id="clip0_9_404149">
<rect width="23" height="18" fill="white" transform="translate(8 11)"/>
</clipPath>
</defs>
</svg>
