<svg width="40" height="40" viewBox="0 0 40 40" fill="none" xmlns="http://www.w3.org/2000/svg">
<circle cx="20" cy="20" r="20" fill="#F9B512"/>
<path fill-rule="evenodd" clip-rule="evenodd" d="M7.78516 25.2141L9.51444 15.5713H11.1409L12.928 25.2141H11.6423L11.3723 23.607H9.34087L9.07087 25.2141H7.78516ZM10.3566 17.4999L9.55301 22.3213H11.1602L10.3566 17.4999ZM24.8209 25.2141H23.5352L25.2709 15.5713H26.8909L28.678 25.2141H27.3923L27.1223 23.607H25.0909L24.8209 25.2141ZM26.1066 17.4999L25.3094 22.3213H26.9166L26.1066 17.4999ZM13.5709 15.5713H15.8209C16.4176 15.5713 16.9899 15.8083 17.4119 16.2303C17.8338 16.6523 18.0709 17.2246 18.0709 17.8213V19.4284C18.0711 19.8274 17.9652 20.2192 17.7641 20.5637C17.5631 20.9082 17.274 21.1931 16.9266 21.3891L18.3923 25.2141H16.9587L15.5959 21.6784H14.8566V25.2141H13.5709V15.5713ZM14.8566 16.857H15.628C16.2709 16.857 16.7852 17.3713 16.7852 18.0141V19.2356C16.7852 19.8784 16.2709 20.3927 15.628 20.3927H14.8566V16.857ZM20.9637 15.5713H18.7137V25.2141H19.9994V21.6784H20.7387L22.1016 25.2141H23.5352L22.0694 21.3891C22.4169 21.1931 22.7059 20.9082 22.907 20.5637C23.1081 20.2192 23.2139 19.8274 23.2137 19.4284V17.8213C23.2137 17.2246 22.9767 16.6523 22.5547 16.2303C22.1328 15.8083 21.5605 15.5713 20.9637 15.5713ZM20.7709 16.857H19.9994V20.3927H20.7709C21.4137 20.3927 21.928 19.8784 21.928 19.2356V18.0141C21.928 17.3713 21.4137 16.857 20.7709 16.857ZM27.7137 15.5713L29.6423 21.9613V25.2141H30.928V21.9613L32.8566 15.5713H31.5709L30.2852 20.0713L28.9994 15.5713H27.7137Z" fill="white"/>
<circle cx="20" cy="20" r="19.5" stroke="black" stroke-opacity="0.05"/>
</svg>
