<svg width="40" height="40" viewBox="0 0 40 40" fill="none" xmlns="http://www.w3.org/2000/svg">
<circle cx="20" cy="20" r="20" fill="#1E1E23"/>
<g clip-path="url(#clip0_9_405864)">
<path d="M22.5948 21.8149C23.0623 21.8149 23.0362 21.5721 23.0362 21.3025V18.9808C23.0362 18.7653 23.1394 18.5224 23.426 18.5224H23.8352C24.1467 18.5224 24.2505 18.792 24.2505 18.9808V22.1987C24.2505 22.6042 23.8352 23.0353 23.4454 23.0353H20.0709C19.6969 23.0353 19.5518 22.9005 19.3958 22.6042L18.1754 20.0129V18.6906C18.1754 18.421 18.0977 18.1782 17.7601 18.1782H17.3539C17.0425 18.1782 16.9387 18.3943 16.9387 18.6639L16.9648 22.1987C16.9387 22.7117 16.4366 23.0353 16.099 23.0353H15.2435C14.8398 23.0353 14.7742 22.9515 14.6182 22.6546L13.3219 20.0403V18.6906C13.3219 18.3937 13.2442 18.1782 12.9327 18.1782H12.6201C12.3086 18.1782 12.1076 18.3943 12.1076 18.6906V22.1719C12.1076 22.6577 11.8041 23.0353 11.3997 23.0353H10.2577C9.67905 23.0353 9.55641 22.6042 9.47869 22.28L8.80355 18.5018C8.77744 18.2862 8.59591 18.1782 8.38827 18.1782H8.33727C8.15512 18.1782 7.97298 18.2862 7.92137 18.5018L7.25048 22.6303C7.19827 22.9278 7.09444 23.0353 6.78298 23.0353H6.80909H6.51887C6.2068 23.0353 5.97305 22.9005 6.05137 22.5496L6.93416 17.7465C7.03737 17.234 7.40166 16.9639 7.86916 16.9639H9.03669C9.34877 16.9906 9.73794 17.3148 9.81566 17.7732L10.5169 21.6049C10.543 21.7403 10.5685 21.821 10.6729 21.821H10.7762C10.8794 21.821 10.8933 21.7785 10.8933 21.671V17.8005C10.8933 17.3949 11.5035 16.9639 11.8405 16.9639H13.892C14.2551 16.9906 14.6188 17.4229 14.6188 17.7732V19.9322L15.5428 21.821H15.7505V17.7726C15.7505 17.4217 16.1761 16.9639 16.5398 16.9639H18.5391C18.9022 16.9639 19.3933 17.3955 19.3933 17.7732V19.9055C19.3933 19.9055 19.9817 21.41 20.0594 21.5721C20.1377 21.7336 20.2931 21.8149 20.4747 21.8149H22.5948Z" fill="white"/>
<path d="M29.2592 18.1782L29.7146 22.334C29.8445 22.7924 30.0181 23.0353 30.5694 23.0353H31.9786C32.4467 23.0353 32.7248 22.5496 32.7503 22.3067L33.3514 17.4496C33.3775 17.2875 33.3259 17.0185 33.066 16.9639H32.5056C32.1692 16.9639 32.1431 17.3688 32.1431 17.4229L31.6683 21.4434C31.6161 21.6862 31.5651 21.821 31.2798 21.821H31.2276C30.9422 21.821 30.8651 21.6322 30.839 21.3893L30.295 17.7465C30.2434 17.2875 29.9319 17.0179 29.5956 16.9639H28.8445C28.4305 16.9639 27.9702 17.3415 27.8931 17.6924L27.4718 21.4434C27.4196 21.6862 27.3941 21.821 27.0832 21.821H27.031H27.0565C26.7724 21.821 26.694 21.6589 26.6679 21.3893L26.1245 17.8005C26.0462 17.2875 25.736 16.9639 25.2697 16.9639H21.5139C21.0737 16.9639 20.6335 17.3688 20.6074 17.8005V21.0105C20.6074 21.3074 20.7367 21.5229 20.9699 21.5229H21.4568C21.69 21.5229 21.8199 21.3347 21.8199 21.0105V18.5558C21.8454 18.2049 22.0263 18.1782 22.3378 18.1782L24.4434 18.1581C24.6765 18.1581 24.8319 18.2656 24.8574 18.4817L25.4646 22.3067C25.5423 22.5763 25.7681 23.0353 26.2156 23.0353H27.8336C28.1967 23.0353 28.4554 22.6303 28.507 22.2254L29.0765 18.1782H29.2592Z" fill="white"/>
</g>
<circle cx="20" cy="20" r="19.5" stroke="black" stroke-opacity="0.05"/>
<defs>
<clipPath id="clip0_9_405864">
<rect width="28" height="8" fill="white" transform="translate(6 16)"/>
</clipPath>
</defs>
</svg>
