<svg width="40" height="40" viewBox="0 0 40 40" fill="none" xmlns="http://www.w3.org/2000/svg">
<circle cx="20" cy="20" r="20" fill="#0977CB"/>
<path d="M18.9416 22.9605C19.3402 22.9668 19.736 22.8938 20.1061 22.7456C20.4761 22.5975 20.813 22.3772 21.0971 22.0975C21.3812 21.8179 21.6068 21.4846 21.7608 21.1169C21.9148 20.7493 21.9941 20.3546 21.9941 19.956C21.9941 19.5574 21.9148 19.1628 21.7608 18.7951C21.6068 18.4275 21.3812 18.0941 21.0971 17.8145C20.813 17.5349 20.4761 17.3146 20.1061 17.1664C19.736 17.0183 19.3402 16.9452 18.9416 16.9515C18.153 16.964 17.401 17.2861 16.8477 17.8482C16.2945 18.4103 15.9844 19.1673 15.9844 19.956C15.9844 20.7447 16.2945 21.5018 16.8477 22.0639C17.401 22.626 18.153 22.948 18.9416 22.9605Z" fill="white"/>
<path d="M34 30.0883V30.9998H24.5538L24.7229 30.8285C26.2796 29.9743 27.7511 27.9173 28.8543 26.1794C30.5522 23.5579 31.2879 20.5387 31.7407 18.6582L31.826 18.5443C31.826 18.5443 31.9671 24.6415 32.1369 28.0878C32.3353 28.7722 33.0658 29.7185 34 30.0883ZM25.9997 9.66632C26.0283 12.2591 25.8834 15.353 25.2888 17.9172C24.7795 20.1108 24.129 21.4216 23.5064 22.3332C22.6296 23.6152 21.752 24.2702 20.8464 24.5842C20.2063 24.8727 19.5111 25.0185 18.809 25.0113C16.0079 25.0113 13.7441 22.7323 13.7441 19.9116C13.7441 17.0909 16.0079 14.812 18.809 14.812C21.4411 14.812 23.5917 16.8343 23.846 19.3985L23.9026 19.4558C24.6383 17.3188 25.0058 14.2989 25.0632 10.9658C23.7041 9.88289 21.0449 9 18.4687 9C15.6389 9 12.9223 10.3108 10.9701 12.3331C9.01872 14.3554 8 17.0343 8 19.9682C8 22.8742 9.15983 25.581 11.1694 27.6607C13.2347 29.7977 15.6683 30.9938 18.5826 30.9938C26.7324 31.2504 31.4577 22.8176 31.7694 10.396V9.66707L25.9997 9.66632Z" fill="white"/>
<circle cx="20" cy="20" r="19.5" stroke="black" stroke-opacity="0.05"/>
</svg>
