<svg width="40" height="40" viewBox="0 0 40 40" fill="none" xmlns="http://www.w3.org/2000/svg">
<circle cx="20" cy="20" r="20" fill="#0F238C"/>
<g clip-path="url(#clip0_9_385538)">
<path d="M25.08 24.2419L26.1199 19.2039L26.5159 24.2419H28.76L27.7199 16.2451H25.3199L24.2 21.0432L23.08 16.2451H20.68L19.6399 24.2419H21.88L22.28 19.2039L23.3199 24.2419H25.08Z" fill="white"/>
<path d="M32.04 16.2451H29.8801V24.2419H34.9998V22.5626H32.04V16.2451Z" fill="white"/>
<path fill-rule="evenodd" clip-rule="evenodd" d="M10.1201 16.2451L12.5201 24.2419H10.1201L9.79999 22.8025H7.72014L7.40018 24.2419H5.00018L7.39999 16.2451H10.1201ZM8.04011 21.2831L9.48003 21.2829L8.76007 18.0042L8.04011 21.2831Z" fill="white"/>
<path d="M18.2801 18.4839C16.2924 16.746 13.1905 17.4526 13.1601 19.0437C12.7091 16.0915 16.2803 15.4752 18.2799 16.4048C18.3154 16.8787 18.3511 17.389 18.2801 18.4839Z" fill="white"/>
<path d="M16.6308 19.4259C16.13 19.2305 15.4014 19.0528 15.4004 18.4837C15.4001 18.2513 15.4956 17.9987 15.9599 17.8447C14.3601 18.0046 13.8265 19.9501 15.596 20.9171C15.9045 21.0856 16.44 21.2645 16.44 21.843C16.44 22.5188 15.6972 22.7632 15.2085 22.7528C14.397 22.7357 13.7442 22.4524 13.0001 21.923V23.8422C13.8809 24.2211 15.3154 24.6584 16.7534 24.2161C17.9158 23.8589 18.92 22.8835 18.92 21.843C18.92 20.1497 17.45 19.7455 16.6308 19.4259Z" fill="white"/>
</g>
<circle cx="20" cy="20" r="19.5" stroke="black" stroke-opacity="0.05"/>
<defs>
<clipPath id="clip0_9_385538">
<rect width="30" height="8.40691" fill="white" transform="translate(5 16)"/>
</clipPath>
</defs>
</svg>
