<svg width="40" height="40" viewBox="0 0 40 40" fill="none" xmlns="http://www.w3.org/2000/svg">
<circle cx="20" cy="20" r="20" fill="#1927A1"/>
<g clip-path="url(#clip0_9_391524)">
<path d="M6.32117 20.0483L6.02107 21.0874L6.00473 21.0997H5.02073L5.00848 21.0956L5.00439 21.0772L6.44162 16.3838L6.45387 16.3716L7.87884 16L7.9013 16.0122L9.45897 21.0793V21.0915L9.44264 21.1017H8.27285L8.26265 21.0895L7.95846 20.0483L7.94213 20.0361H6.34158L6.32525 20.0483H6.32117ZM6.6376 19.1623V19.1684L6.65394 19.1868H7.65223H7.6604L7.67061 19.1643L7.17452 17.3637L7.16431 17.3515H7.14798L7.13777 17.3637L6.63556 19.1623H6.6376Z" fill="white"/>
<path d="M19.9338 17.6802V16.2654L19.942 16.2389L19.9665 16.2246L20.9485 16H20.9587L20.9628 16.0102V21.0834L20.9566 21.0977L20.9423 21.1038H20.0318L20.0175 21.0997L19.9971 21.0691V20.5424L19.993 20.4872L19.9828 20.4668L19.9645 20.4811L19.9379 20.5301L19.8848 20.6342L19.8236 20.7281L19.7522 20.8118L19.6725 20.8853L19.5113 20.9935L19.3296 21.065L19.1315 21.1017H18.9213L18.7926 21.0834L18.6722 21.0527L18.5558 21.0099L18.4476 20.9547L18.3313 20.8751L18.2271 20.7812L18.1312 20.6689L18.0475 20.5464L17.974 20.4035L17.9127 20.2504L17.8617 20.081L17.825 19.9054L17.7801 19.5032L17.7739 19.0868L17.8066 18.6948L17.8801 18.3375L17.9291 18.1824L17.9883 18.0354L18.0536 17.9027L18.1291 17.7802L18.2108 17.674L18.3027 17.5781L18.4007 17.4964L18.5068 17.427L18.662 17.3556L18.8355 17.3086L19.0192 17.2862L19.2214 17.2902L19.4214 17.3311L19.6113 17.4168L19.7746 17.5373L19.844 17.6108L19.9032 17.6904L19.9277 17.7128L19.9359 17.6802H19.9338ZM19.546 18.064L19.4031 18.0497L19.2806 18.0762L19.1683 18.1436L19.0703 18.2538L18.9927 18.4029L18.9315 18.5886L18.8865 18.8214L18.86 19.0868L18.8539 19.3869L18.8682 19.689L18.9029 19.8972L18.9682 20.0728L19.058 20.2035L19.1111 20.2525L19.1724 20.2913L19.2785 20.328L19.4031 20.3362L19.5582 20.3096L19.6868 20.2463L19.7685 20.1708L19.8338 20.0708L19.8746 19.9687L19.9053 19.8442L19.9236 19.6951L19.9318 19.5236V18.7397L19.9093 18.5253L19.8522 18.3375L19.7685 18.1987L19.7154 18.1456L19.6542 18.1028L19.546 18.0619V18.064Z" fill="white"/>
<path d="M33.5279 19.3518L34.1832 17.296L34.1954 17.2776L34.2158 17.2715H34.9814H34.9835L34.9977 17.2817V17.298L34.3343 19.3538L33.683 21.4035L33.6218 21.5607L33.5197 21.773L33.4482 21.8975L33.3686 22.0037L33.2808 22.0976L33.1869 22.1752L33.0849 22.2385L32.9766 22.2895L32.8603 22.3283L32.7276 22.3589L32.4336 22.3875H32.0029L31.8579 22.3814L31.8252 22.3691L31.813 22.3365V21.6771L31.8232 21.6485L31.8518 21.6383H32.5541L32.6051 21.6322L32.6868 21.6056L32.7602 21.5587L32.8276 21.4933L32.895 21.4035L32.9542 21.2953L33.0093 21.1687L33.0583 21.0197L33.0971 20.8645L33.093 20.8115L31.8232 17.296V17.2817L31.8354 17.2735H32.7745L32.8031 17.2817L32.8195 17.3062L33.4952 19.3538L33.5115 19.3763L33.5258 19.3538L33.5279 19.3518Z" fill="white"/>
<path d="M11.2289 20.0118L11.2615 20.0608L11.3126 20.1159L11.3718 20.1608L11.5188 20.2262L11.7005 20.2527L11.8924 20.2384L12.0434 20.1894L12.1067 20.1527L12.1598 20.1057L12.2353 19.9996L12.2803 19.8648L12.2925 19.8403L12.3211 19.8322H13.303L13.3153 19.8362V19.8485L13.2683 20.0874L13.1928 20.3017L13.0907 20.4916L12.9621 20.6549L12.809 20.7917L12.6294 20.904L12.4232 20.9917L12.1925 21.055L12.0189 21.0856L11.8454 21.102L11.68 21.1061L11.5147 21.0959L11.3534 21.0714L11.1962 21.0346L11.0472 20.9836L10.9022 20.9203L10.7205 20.8162L10.5266 20.6692L10.3572 20.5079L10.2102 20.3282L10.0897 20.1363L10.0121 19.9751L9.95089 19.8056L9.90598 19.6301L9.87944 19.4504L9.86719 19.2605L9.87331 19.0686L9.89577 18.8727L9.93456 18.6746L10.0264 18.3806L10.0877 18.2439L10.1591 18.1153L10.2408 17.9928L10.3327 17.8784L10.4327 17.7723L10.5409 17.6763L10.7614 17.5253L11.0064 17.4089L11.2677 17.3293L11.5494 17.2884L11.7862 17.2803L12.0149 17.2925L12.2251 17.3231L12.4252 17.3742L12.6008 17.4436L12.76 17.5314L12.8988 17.6355L13.0193 17.76L13.1275 17.9193L13.2112 18.105L13.2663 18.3092L13.2928 18.5378L13.2888 18.5542L13.2745 18.5583H12.3272L12.3048 18.5501L12.2945 18.5297L12.2721 18.4256L12.2374 18.3337L12.1904 18.2561L12.1312 18.1928L12.0496 18.1377L11.9516 18.101L11.8393 18.0826H11.7107L11.5535 18.1091L11.4147 18.1745L11.2983 18.2786L11.2064 18.4215L11.1411 18.6032L11.1064 18.8175L11.0839 19.2177L11.0962 19.5423L11.1452 19.8097L11.1819 19.9199L11.2309 20.02L11.2289 20.0118Z" fill="white"/>
<path d="M16.2037 20.5142L16.1016 20.6571L15.9853 20.7816L15.8546 20.8878L15.7097 20.9735L15.5953 21.0246L15.4749 21.0634L15.3504 21.0899L15.2197 21.1022H15.0503L14.8931 21.092L14.7399 21.0675L14.6032 21.0307L14.4807 20.9817L14.3664 20.9184L14.2663 20.8449L14.1765 20.7571L14.0948 20.6449L14.0152 20.4836L13.9662 20.3121L13.9458 20.1284L13.954 19.9426L13.9928 19.7548L14.0601 19.5751L14.152 19.4159L14.2663 19.275L14.4215 19.1464L14.6175 19.0341L14.8543 18.9402L15.134 18.8647L15.4116 18.8095L15.677 18.7687L15.9281 18.7442L16.167 18.736L16.1976 18.7258L16.2078 18.6952L16.1935 18.487L16.1629 18.3318L16.1118 18.2114L16.0383 18.1216L15.9383 18.0562L15.8199 18.0195L15.6464 18.0031L15.4851 18.0236L15.3402 18.0766L15.2156 18.1644L15.1503 18.2379L15.0972 18.3237L15.0584 18.4176L15.0319 18.5217L15.0196 18.5441L14.9931 18.5523H14.101L14.0785 18.5421L14.0703 18.5196L14.1091 18.3094L14.1704 18.1236L14.2561 17.9521L14.3602 17.8031L14.4827 17.6765L14.6195 17.5703L14.7787 17.4785L14.9523 17.405L15.1442 17.3478L15.3606 17.307L15.5872 17.2825L15.8342 17.2764L16.1098 17.2947L16.365 17.3437L16.6018 17.4254L16.8182 17.5377L16.8672 17.5683L16.9693 17.6479L17.055 17.7418L17.1428 17.8745L17.2061 18.0276L17.2449 18.2012L17.2592 18.3931L17.2633 21.0634L17.253 21.094L17.2224 21.1042H16.2752L16.2527 21.096L16.2445 21.0736V20.5244L16.2384 20.4917L16.2139 20.5162L16.2037 20.5142ZM15.4912 20.4305L15.6117 20.4121L15.7199 20.3815L15.8179 20.3346L15.9036 20.2774L15.9812 20.2019L16.0445 20.1161L16.0976 20.014L16.1384 19.9018L16.169 19.7752L16.1894 19.6302L16.1935 19.3097L16.1853 19.2873L16.1629 19.2832L15.7587 19.3403L15.6055 19.3771L15.4708 19.424L15.3524 19.4812L15.2565 19.5465L15.1789 19.6221L15.1176 19.7119L15.0645 19.8548L15.0503 20.014L15.0686 20.1324L15.1135 20.2366L15.183 20.3243L15.2748 20.3876L15.3769 20.4223L15.4912 20.4285V20.4305Z" fill="white"/>
<path d="M22.9306 19.3884L22.9183 19.5252L22.9245 19.6538L22.9469 19.7763L22.9877 19.8907L23.0551 20.0091L23.1429 20.1173L23.2572 20.2112L23.3899 20.2806L23.541 20.3235L23.6961 20.3357L23.8472 20.3194L23.9881 20.2724L24.1065 20.1989L24.2024 20.0989L24.2637 19.9886L24.2984 19.8559L24.3086 19.8335L24.3311 19.8253H25.2538L25.2865 19.8294L25.3069 19.8437L25.3151 19.8662L25.311 19.8988L25.2273 20.1356L25.1191 20.3459L24.9823 20.5358L24.8251 20.6971L24.672 20.8155L24.5066 20.9135L24.3229 20.9931L24.1289 21.0502L23.9207 21.087L23.7043 21.1033L23.4797 21.0972L23.2511 21.0706L23.0163 21.0176L22.7979 20.9379L22.5937 20.8297L22.41 20.695L22.3059 20.5991L22.2099 20.4929L22.1242 20.3786L22.0466 20.2561L21.9792 20.1254L21.9221 19.9866L21.8751 19.8396L21.8384 19.6865L21.8037 19.4476L21.7935 19.2006L21.8077 18.9577L21.8445 18.7168L21.9037 18.4922L21.9874 18.2758L22.0895 18.0798L22.214 17.8981L22.3202 17.7777L22.5059 17.6123L22.7121 17.4796L22.9428 17.3776L23.1858 17.3081L23.441 17.2734H23.6982L23.9554 17.3102L24.2065 17.3816L24.3678 17.451L24.5148 17.5348L24.6965 17.6736L24.8618 17.8451L24.9986 18.039L25.115 18.2615L25.2048 18.5086L25.264 18.7678L25.2946 19.0414V19.317L25.2865 19.3415L25.2599 19.3497H22.9775L22.949 19.3578L22.9367 19.3844L22.9306 19.3884ZM22.9387 18.7535L24.2086 18.7311L24.2249 18.7147V18.7025L24.2106 18.5535L24.1739 18.4106L24.1147 18.2799L24.0371 18.1656L23.9432 18.0717L23.835 18.0023L23.7186 17.9614L23.5982 17.9492H23.5185L23.4001 17.9676L23.2858 18.0125L23.1817 18.0839L23.0898 18.1799L23.0163 18.2983L22.9612 18.431L22.9285 18.5759L22.9204 18.725V18.7372L22.9367 18.7535H22.9387Z" fill="white"/>
<path d="M27.0441 17.9049L27.0564 17.96L27.0911 17.9151L27.1809 17.7599L27.283 17.6272L27.3973 17.517L27.5259 17.4292L27.628 17.3802L27.7362 17.3435L27.8505 17.319L27.973 17.3067L28.169 17.3108L28.3548 17.3455L28.5283 17.4088L28.6875 17.4986L28.7916 17.5803L28.8856 17.6762L28.9693 17.7865L29.0407 17.909L29.0591 17.9273L29.0795 17.909L29.1795 17.7477L29.2918 17.6109L29.4163 17.4986L29.5531 17.4129L29.7103 17.3496L29.8818 17.3128L30.0655 17.3026L30.2656 17.319L30.4759 17.3639L30.6576 17.4333L30.8127 17.5272L30.9393 17.6456L31.0434 17.7926L31.1169 17.9661L31.1618 18.1662L31.1761 18.3928V21.0835L31.1557 21.1039H30.1717L30.1452 21.0937L30.137 21.0672L30.1329 18.7807L30.1166 18.5847L30.0737 18.4193L30.0043 18.2948L29.9104 18.2111L29.8471 18.1805L29.7736 18.1621L29.694 18.158L29.6062 18.1662L29.5164 18.1887L29.4368 18.2193L29.3674 18.2601L29.3081 18.3111L29.2469 18.3908L29.202 18.4867L29.1754 18.599L29.1652 18.7276L29.155 19.8974V21.0733L29.1489 21.0917L29.1305 21.0999H28.1159L28.0955 21.0937L28.0873 21.0733V18.7644L28.0792 18.5868L28.0485 18.4398L27.9955 18.3275L27.9199 18.2458L27.8362 18.1989L27.7301 18.1723L27.6219 18.1662L27.528 18.1744L27.4402 18.1989L27.3667 18.2377L27.3075 18.2866L27.2564 18.3459L27.2136 18.4173L27.1789 18.499L27.1319 18.7031L27.1156 18.9563V21.0651L27.1033 21.0917L27.0747 21.1019H26.0907L26.0703 21.0835V17.5599L26.0785 17.5292L26.1071 17.5129L27.0114 17.2822H27.0359L27.0441 17.3088V17.9069V17.9049Z" fill="white"/>
<path d="M7.38468 22.7782V23.3274L7.38263 23.3355H7.37447L6.92738 23.3417L6.91717 23.3376L6.91309 23.3274V21.7799L6.92125 21.7534L6.94779 21.7432L7.59495 21.7472L7.78889 21.7738L7.87668 21.8044L7.9563 21.8452L8.03592 21.9004L8.09104 21.9555L8.13391 22.0208L8.16453 22.0984L8.18291 22.1821V22.2658L8.1727 22.3495L8.14616 22.423L8.10737 22.4904L7.99713 22.6067L7.88485 22.6761L7.74806 22.721L7.59699 22.7394L7.42755 22.7333L7.39284 22.7415L7.38059 22.7762L7.38468 22.7782ZM7.38468 22.1351L7.37855 22.3903L7.38672 22.4128L7.40917 22.423H7.548L7.62557 22.4169L7.6909 22.3883L7.73581 22.3434L7.75215 22.2882V22.2576L7.73786 22.2025L7.69703 22.1555L7.63374 22.1229L7.5582 22.1106H7.41938H7.40713L7.38672 22.1392L7.38468 22.1351Z" fill="white"/>
<path d="M11.1186 22.7375H11.037L11.0063 22.7497L10.9961 22.7803V23.3275L10.9921 23.3377L10.9818 23.3418H10.547L10.5368 23.3377L10.5327 23.3275V21.78L10.5409 21.7555L10.5654 21.7473L11.088 21.7412L11.4351 21.7637L11.5392 21.7861L11.629 21.8188L11.7045 21.8637L11.7658 21.9209L11.8087 21.9842L11.8393 22.0576L11.8597 22.1413L11.8679 22.2332L11.8556 22.3577L11.8127 22.4659L11.7392 22.5578L11.6331 22.6313L11.6147 22.6497V22.6762L11.9046 23.3295L11.8964 23.3438H11.3799L11.3677 23.3397L11.3595 23.3295L11.1737 22.7824L11.1513 22.7497L11.1145 22.7395L11.1186 22.7375ZM10.9961 22.1413V22.3537L11.0063 22.3782L11.0308 22.3884H11.2615L11.3126 22.3802L11.3575 22.3557L11.3861 22.319L11.3963 22.274V22.223L11.3861 22.1781L11.3554 22.1413L11.3105 22.1148L11.2575 22.1066H11.0227L11.0002 22.1189L10.99 22.1413H10.9961Z" fill="white"/>
<path d="M13.0947 22.1534V23.3212V23.3273L13.0742 23.3416H12.668L12.6476 23.3212V22.1534L12.6272 22.133H12.3271L12.3107 22.1269L12.3066 22.1146V21.7574L12.3271 21.7451H13.3744L13.3948 21.7635V22.1146L13.3744 22.135H13.109L13.0947 22.1555V22.1534Z" fill="white"/>
<path d="M19.8888 22.9722L19.9521 22.9518L19.997 22.9171L20.0235 22.8661L20.0317 22.8008L20.0358 21.7616L20.0419 21.7453L20.0562 21.7412H20.3563L20.3746 21.7494L20.3828 21.7678V22.6926L20.3706 22.8498L20.342 22.9845L20.2909 23.0988L20.2215 23.1866L20.1093 23.2642L19.9725 23.3091L19.7887 23.3254L19.6172 23.303L19.4723 23.2438L19.4111 23.1988L19.3559 23.1437L19.309 23.0743L19.2743 22.9927L19.2518 22.9049L19.2437 22.8069V21.7637L19.2457 21.7473L19.262 21.7412H19.6438L19.6601 21.7473L19.6683 21.7637V22.815L19.6805 22.8661L19.7071 22.913L19.7479 22.9477L19.7969 22.9661H19.8949L19.8888 22.9722Z" fill="white"/>
<path d="M21.232 22.1331H20.9359L20.9155 22.1147V21.7636L20.9176 21.7534L20.9339 21.7432H21.971H21.9812L21.9914 21.7595V22.1106L21.9873 22.1229L21.971 22.1311H21.7056L21.6913 22.1372L21.6852 22.1515V23.3192L21.6811 23.3315L21.6648 23.3396H21.2687L21.2544 23.3355L21.2483 23.3213V22.1515L21.2279 22.1311L21.232 22.1331Z" fill="white"/>
<path d="M22.5429 21.7608L22.5511 21.7445L22.5674 21.7363H23.1493L23.2942 21.7547L23.433 21.7976L23.5616 21.867L23.6739 21.9609L23.7658 22.0752L23.8332 22.2059L23.874 22.3467L23.8862 22.4937V22.5917L23.8699 22.7387L23.827 22.8796L23.7576 23.0082L23.6637 23.1205L23.5514 23.2144L23.4228 23.2838L23.284 23.3246L23.139 23.3389H22.5572L22.5409 23.3307L22.5327 23.3124L22.5409 21.7608H22.5429ZM23.0349 22.1099V22.9674L23.0451 22.9755H23.0615L23.1288 22.9674L23.1942 22.9449L23.2534 22.9082L23.3064 22.8592L23.3493 22.8L23.3799 22.7326L23.4004 22.6591L23.4065 22.5836V22.4876L23.3983 22.4121L23.3779 22.3386L23.3452 22.2712L23.3024 22.212L23.2493 22.163L23.1901 22.1263L23.1248 22.1038L23.0574 22.0956H23.0411L23.0308 22.1058L23.0349 22.1099Z" fill="white"/>
<path d="M29.2187 22.674L29.5045 23.3273L29.4963 23.3395H28.9819H28.9696L28.9614 23.3293L28.7797 22.774L28.7634 22.7495L28.7369 22.7414H28.6266L28.6021 22.7495L28.594 22.774V23.3314V23.3395H28.5858L28.1408 23.3436L28.1305 23.3395L28.1265 23.3273V21.7798L28.1346 21.7533L28.1612 21.7451L28.9676 21.7492L29.0554 21.7574L29.1391 21.7778L29.2228 21.8125L29.3024 21.8594L29.3983 21.9534L29.4432 22.033L29.4718 22.1187L29.482 22.2126L29.4739 22.3065L29.4473 22.3984L29.4024 22.4821L29.3452 22.5515L29.2738 22.6087L29.237 22.6291L29.2187 22.6475V22.674ZM28.596 22.131V22.3596L28.6021 22.3759L28.6185 22.3841H28.8675L28.9206 22.3759L28.9655 22.3494L28.9961 22.3086L29.0064 22.2616V22.233L28.9961 22.1861L28.9676 22.1453L28.9247 22.1187L28.8737 22.1085H28.6246H28.6205L28.6001 22.131H28.596Z" fill="white"/>
<path d="M5.52059 22.1801V22.1903L5.53488 22.2332L5.57979 22.2761L5.62674 22.2945L5.84927 22.3435L6.03709 22.4251L6.10854 22.4762L6.16979 22.5354L6.2147 22.5966L6.24736 22.666L6.26574 22.7354L6.26982 22.811L6.2392 22.9702L6.22695 23.0008L6.17999 23.0866L6.11671 23.1601L6.033 23.2233L5.9391 23.2744L5.82681 23.3132L5.7084 23.3336H5.59L5.47771 23.3213L5.30827 23.2642L5.17149 23.1723L5.06533 23.0457L5 22.8804L5.00408 22.86L5.02042 22.8498L5.39197 22.7926H5.40626L5.41647 22.8069L5.47159 22.9049L5.54712 22.9661L5.63899 22.9886L5.74719 22.9743L5.7819 22.96L5.80436 22.9375L5.8166 22.9028V22.8579L5.79415 22.815L5.75536 22.7885L5.65737 22.7538L5.41443 22.6599L5.24702 22.566L5.13474 22.4639L5.09799 22.4088L5.07145 22.3475L5.0592 22.2863V22.2189L5.08778 22.0821L5.14699 21.9678L5.21232 21.8964L5.29194 21.8372L5.38789 21.7902L5.48792 21.7575L5.59 21.7412H5.69207L5.79211 21.7514L5.88806 21.78L5.9738 21.8208L6.05342 21.876L6.1412 21.9637L6.21266 22.0719L6.21878 22.1128L6.18612 22.1373L5.90847 22.2189H5.8656L5.8309 22.1903L5.77373 22.1311L5.70024 22.1005L5.61041 22.0944L5.54712 22.1168L5.51854 22.1781L5.52059 22.1801Z" fill="white"/>
<path d="M10.0712 22.6737L10.061 22.8002L10.0263 22.9207L9.96916 23.033L9.89159 23.133L9.79564 23.2147L9.68539 23.2759L9.56495 23.3147L9.44041 23.329H9.32405L9.19747 23.3208L9.07702 23.2861L8.96474 23.2289L8.86471 23.1514L8.78305 23.0554L8.7218 22.9452L8.68301 22.8247L8.66872 22.7002L8.6626 22.4083L8.67281 22.2817L8.70751 22.1612L8.76467 22.0489L8.84225 21.9489L8.9382 21.8673L9.04844 21.806L9.16889 21.7672L9.29342 21.7529H9.40979L9.53636 21.7611L9.65681 21.7958L9.7691 21.853L9.86913 21.9305L9.95079 22.0265L10.012 22.1367L10.0508 22.2572L10.0651 22.3817L10.0712 22.6737ZM9.35263 22.9983L9.39958 22.9901L9.4445 22.9635L9.48533 22.9207L9.52207 22.8635L9.57515 22.7165L9.59353 22.543L9.57719 22.3674L9.52616 22.2184L9.49145 22.1612L9.45062 22.1184L9.40571 22.0918L9.35875 22.0837L9.3118 22.0918L9.26688 22.1184L9.22605 22.1612L9.18931 22.2184L9.13623 22.3654L9.11785 22.5389L9.13419 22.7145L9.18522 22.8635L9.21993 22.9207L9.26076 22.9635L9.30567 22.9901L9.35263 22.9983Z" fill="white"/>
<path d="M14.6707 22.8943L14.6646 22.8514L14.636 22.8208L14.4359 22.733L14.2216 22.6391L14.0766 22.5534L13.9786 22.4595L13.9235 22.3554L13.9113 22.2839L13.9153 22.2043L13.9562 22.0573L14.0297 21.9389L14.0889 21.8817L14.1583 21.8348L14.2399 21.798L14.3338 21.7694L14.4563 21.749H14.5707L14.6768 21.7613L14.7748 21.7939L14.8626 21.8429L14.9422 21.9083L15.0137 21.9899L15.079 22.0879L15.0851 22.1165L15.0606 22.1328L14.7462 22.2206H14.7136L14.6891 22.1982L14.6523 22.1512L14.6074 22.1185L14.5278 22.094L14.4318 22.1002L14.4012 22.1124L14.3788 22.1349L14.3665 22.1655V22.1982V22.2022L14.3992 22.2574L14.4645 22.288L14.6789 22.3349L14.8483 22.4023L14.9749 22.4901L15.0606 22.6003L15.081 22.6432L15.1137 22.7841L15.1035 22.9147L15.0586 23.0372L14.981 23.1434L14.8748 23.2271L14.7728 23.2781L14.6687 23.3128L14.5625 23.3332L14.4584 23.3394L14.3563 23.3292L14.2583 23.3047L14.1644 23.2659L14.0787 23.2107L14.0072 23.1495L13.9439 23.076L13.8929 22.9964L13.8521 22.9086V22.8657L13.8888 22.8453L14.2073 22.7902L14.2501 22.7963L14.2767 22.8331L14.3032 22.8882L14.34 22.9311L14.3849 22.9596L14.438 22.976H14.5707L14.636 22.9494L14.6646 22.8902L14.6707 22.8943Z" fill="white"/>
<path d="M18.6699 22.6735L18.6597 22.8L18.625 22.9225L18.5678 23.0348L18.4902 23.1328L18.3943 23.2145L18.284 23.2757L18.1636 23.3145L18.039 23.3288H17.9206L17.7941 23.3206L17.6716 23.2859L17.5593 23.2288L17.4613 23.1512L17.3796 23.0552L17.3184 22.945L17.2796 22.8245L17.2653 22.7L17.2612 22.4122L17.2714 22.2856L17.3061 22.1631L17.3633 22.0508L17.4409 21.9528L17.5368 21.8712L17.6471 21.8099L17.7675 21.7711L17.8921 21.7568H18.0105L18.137 21.765L18.2595 21.7997L18.3718 21.8569L18.4698 21.9344L18.5515 22.0304L18.6127 22.1406L18.6515 22.2611L18.6658 22.3856L18.6699 22.6735ZM17.9472 22.996L17.9941 22.9879L18.039 22.9613L18.0799 22.9205L18.1166 22.8633L18.1697 22.7163L18.1881 22.5428L18.1717 22.3693L18.1207 22.2223L18.086 22.1651L18.0452 22.1223L18.0003 22.0957L17.9533 22.0876L17.9063 22.0957L17.8614 22.1223L17.8206 22.1631L17.7839 22.2203L17.7308 22.3672L17.7124 22.5408L17.7287 22.7143L17.7798 22.8613L17.8145 22.9185L17.8553 22.9613L17.9002 22.9879L17.9472 22.996Z" fill="white"/>
<path d="M25.754 22.6675L25.7459 22.7941L25.7132 22.9166L25.656 23.0289L25.5785 23.1289L25.4825 23.2106L25.3723 23.2739L25.2518 23.3126L25.1273 23.329H25.0109L24.8844 23.3229L24.7619 23.2902L24.6496 23.233L24.5495 23.1554L24.4679 23.0595L24.4046 22.9493L24.3658 22.8288L24.3495 22.7043L24.3413 22.4144L24.3495 22.2878L24.3821 22.1653L24.4393 22.053L24.5169 21.953L24.6128 21.8713L24.7231 21.8081L24.8435 21.7693L24.9681 21.7529H25.0844L25.211 21.7591L25.3335 21.7917L25.4458 21.8489L25.5458 21.9265L25.6275 22.0224L25.6907 22.1327L25.7295 22.2531L25.7459 22.3776L25.754 22.6675ZM25.0354 22.9942L25.0824 22.986L25.1273 22.9595L25.1681 22.9186L25.2049 22.8615L25.2559 22.7145L25.2743 22.541L25.2559 22.3674L25.2049 22.2204L25.1681 22.1633L25.1273 22.1204L25.0824 22.0939L25.0354 22.0857L24.9885 22.0939L24.9436 22.1204L24.9027 22.1612L24.866 22.2184L24.8149 22.3654L24.7966 22.5389L24.8149 22.7124L24.866 22.8594L24.9027 22.9166L24.9436 22.9595L24.9885 22.986L25.0354 22.9942Z" fill="white"/>
<path d="M27.6363 22.6674L27.6261 22.794L27.5914 22.9165L27.5342 23.0288L27.4566 23.1288L27.3607 23.2105L27.2504 23.2717L27.13 23.3105L27.0054 23.3248H26.8891L26.7625 23.3187L26.64 23.284L26.5277 23.2268L26.4277 23.1492L26.346 23.0533L26.2848 22.943L26.246 22.8226L26.2317 22.6981L26.2256 22.4122L26.2358 22.2857L26.2705 22.1632L26.3277 22.0509L26.4052 21.9509L26.5012 21.8692L26.6114 21.808L26.7319 21.7692L26.8564 21.7549H26.9728L27.0994 21.761L27.2218 21.7957L27.3341 21.8529L27.4342 21.9305L27.5158 22.0264L27.5771 22.1366L27.6159 22.2571L27.6301 22.3816L27.6363 22.6674ZM26.9115 22.9961L26.9585 22.988L27.0034 22.9635L27.0442 22.9226L27.081 22.8655L27.1341 22.7185L27.1545 22.5449L27.1381 22.3714L27.0871 22.2244L27.0524 22.1673L27.0116 22.1244L26.9667 22.0979L26.9197 22.0897L26.8727 22.0979L26.8278 22.1224L26.787 22.1632L26.7503 22.2203L26.6972 22.3673L26.6768 22.5409L26.6931 22.7144L26.7441 22.8614L26.7788 22.9185L26.8197 22.9614L26.8646 22.988L26.9115 22.9961Z" fill="white"/>
<path d="M30.6864 22.9576L30.6987 22.9494L30.7191 22.9229L30.7252 22.8882L30.717 22.8535L30.6946 22.8269L30.6088 22.7698L30.4986 22.7249L30.2985 22.6514L30.1434 22.5636L30.0372 22.4636L30.0025 22.4084L29.978 22.3492L29.9637 22.2308L29.9882 22.1063L30.0515 21.9797L30.1536 21.8736L30.2924 21.796L30.4578 21.7531L30.6313 21.749L30.7722 21.7756L30.8947 21.8307L31.0192 21.9307L31.1213 22.0695L31.1294 22.1185L31.0886 22.1471L30.813 22.2267H30.7722L30.7415 22.1982L30.6966 22.1471L30.617 22.1083L30.5129 22.1002L30.4802 22.1104L30.4537 22.1328L30.4374 22.1635V22.1982L30.4578 22.2574L30.4884 22.2819L30.5313 22.2961L30.7558 22.3492L30.9314 22.4227L31.058 22.5146L31.1049 22.5677L31.1417 22.6289L31.1764 22.7494V22.88L31.1519 22.9841L31.1151 23.0638L31.0641 23.1332L30.9967 23.1985L30.9192 23.2516L30.8293 23.2965L30.7334 23.3271L30.6354 23.3455L30.5374 23.3496L30.419 23.3373L30.3108 23.3108L30.2128 23.2699L30.127 23.2148L30.0597 23.1536L30.0005 23.0801L29.9515 22.9964L29.9106 22.9004V22.8719L29.9372 22.8576L30.2944 22.8024L30.3189 22.8065L30.3332 22.829L30.3761 22.9147L30.4353 22.9678L30.5088 22.9964L30.5884 23.0005L30.668 22.9801L30.6905 22.9678L30.6864 22.9576Z" fill="white"/>
<path d="M16.4692 22.339H16.8612L16.8796 22.3553V22.7085L16.8612 22.7268H16.4672L16.4488 22.7473V23.1535L16.4304 23.1719H16.0977L16.0854 23.1678L16.0793 23.1556V22.7371L16.0609 22.7187H15.6649L15.6465 22.7003V22.3492L15.6669 22.3308H16.063H16.065L16.0813 22.3124V21.9041L16.0997 21.8857H16.4325L16.4508 21.9041V22.3226V22.3267L16.4692 22.341V22.339Z" fill="white"/>
</g>
<circle cx="20" cy="20" r="19.5" stroke="black" stroke-opacity="0.05"/>
<defs>
<clipPath id="clip0_9_391524">
<rect width="30" height="7.34127" fill="white" transform="translate(5 16)"/>
</clipPath>
</defs>
</svg>
