<svg width="40" height="40" viewBox="0 0 40 40" fill="none" xmlns="http://www.w3.org/2000/svg">
<circle cx="20" cy="20" r="20" fill="#F6F8FA"/>
<g clip-path="url(#clip0_9_396847)">
<path d="M16.5931 10.7433C11.9645 13.829 12.4531 18.1104 13.8674 20.9454C14.2081 21.6333 15.2816 21.254 15.4552 20.5147C15.8152 18.9783 16.7152 17.1719 18.6695 15.7254C20.9002 14.0604 23.7159 14.4397 25.8759 15.2626C26.7566 15.5969 27.7659 14.774 27.3095 13.9576C24.5066 8.91115 19.0552 9.11686 16.5931 10.7433Z" fill="#1C4B8F"/>
<path d="M12.5947 28.5499C17.4611 31.237 21.2347 28.6656 23.1118 26.107C23.5618 25.4963 22.7389 24.7184 21.9997 24.9049C20.4632 25.2906 18.2647 25.4899 16.0854 24.4291C13.5782 23.2077 12.6204 20.5399 12.3568 18.2513C12.2539 17.3191 11.0582 16.7984 10.5375 17.5827C7.32966 22.3784 10.0104 27.1163 12.5947 28.5434V28.5499Z" fill="#4679B8"/>
<path d="M30.2665 22.4241C29.7587 16.8955 25.5094 15.2369 22.3337 15.1276C21.5622 15.0955 21.3887 16.2141 21.9608 16.7219C23.517 18.0343 24.556 19.8571 24.8922 21.8648C25.2908 24.6162 23.6065 26.9048 21.858 28.4091C21.1508 29.0198 21.3887 30.2926 22.3272 30.2862C28.113 30.2348 30.5365 25.3555 30.2665 22.4241Z" fill="#C4DBF3"/>
</g>
<circle cx="20" cy="20" r="19.5" stroke="black" stroke-opacity="0.05"/>
<defs>
<clipPath id="clip0_9_396847">
<rect width="22" height="22" fill="white" transform="translate(9 9)"/>
</clipPath>
</defs>
</svg>
