<svg width="40" height="40" viewBox="0 0 40 40" fill="none" xmlns="http://www.w3.org/2000/svg">
<circle cx="20" cy="20" r="20" fill="#F6F8FA"/>
<g clip-path="url(#clip0_9_398153)">
<path d="M14.6453 19.0357H12.646L12.0674 20H11.0003L13.8353 15.5H15.0053L15.8217 20H14.806L14.6453 19.0357ZM14.5167 18.2643L14.2146 16.4321L13.006 18.2643H14.5103H14.5167ZM16.1431 19.0614L17.0689 18.8879C17.1267 19.0293 17.2296 19.1579 17.371 19.2479C17.5189 19.325 17.6924 19.3571 17.8596 19.3571C18.0717 19.3571 18.4574 19.3379 18.4639 19.0614C18.4639 18.8493 18.1939 18.7914 18.0267 18.7529C17.6632 18.6667 17.3114 18.5372 16.9788 18.3671C16.8794 18.3024 16.7979 18.2138 16.7417 18.1093C16.6855 18.0048 16.6566 17.8879 16.6574 17.7693C16.6574 17.5379 16.7731 17.3064 16.966 17.1457C17.3196 16.8886 17.7631 16.7857 18.2389 16.7857C18.5924 16.7857 18.946 16.85 19.2481 17.0107C19.4731 17.1457 19.6274 17.3579 19.6789 17.5893L18.811 17.795C18.7737 17.6845 18.6955 17.5925 18.5924 17.5379C18.4381 17.4607 18.271 17.4221 18.091 17.4286C17.8981 17.4157 17.6217 17.5186 17.6217 17.7179C17.6217 17.9107 18.0074 17.9621 18.2003 18.0007C18.5217 18.065 18.8303 18.1807 19.1131 18.3479C19.216 18.4121 19.2931 18.5021 19.351 18.605C19.4043 18.7036 19.4309 18.8144 19.4281 18.9264C19.4281 19.0679 19.396 19.2093 19.3253 19.3379C19.2546 19.4664 19.1517 19.5886 19.0231 19.6786C18.6953 19.91 18.271 20 17.8596 20C17.4417 20 17.056 19.9357 16.7024 19.7557C16.4352 19.603 16.2354 19.3551 16.1431 19.0614ZM22.1924 18.7143L23.086 18.9071C22.9574 19.2286 22.7131 19.5114 22.3917 19.7171C22.0703 19.91 21.6974 20 21.3117 19.9936C21.1124 20.0064 20.9131 19.9807 20.7203 19.9164C20.4534 19.84 20.2192 19.6776 20.0542 19.4544C19.8891 19.2312 19.8024 18.9597 19.8074 18.6821C19.8074 17.9943 20.1803 17.3579 20.7974 17.0429C21.1188 16.8693 21.5046 16.7857 21.8903 16.7857C22.2181 16.7857 22.6231 16.8693 22.906 17.0686C23.0346 17.1586 23.1374 17.2743 23.2146 17.4029C23.2853 17.5314 23.3303 17.6664 23.3431 17.8143L22.3789 17.8979C22.3596 17.5636 22.1217 17.4157 21.8196 17.4286C21.1124 17.435 20.7267 18.1679 20.7717 18.7657C20.7717 19.0871 21.0096 19.3636 21.3117 19.3571C21.6524 19.3507 22.0189 19.0871 22.1924 18.7143ZM26.9689 18.7143H24.5003V18.7657C24.481 19.1514 24.8474 19.3636 25.1946 19.3571C25.5031 19.3571 25.8117 19.2414 25.966 18.9521L26.8596 19.1064C26.5317 19.7043 25.8439 20.0064 25.1881 20C24.3781 20.0129 23.536 19.5757 23.536 18.5729C23.536 17.4543 24.571 16.7471 25.5931 16.7857C26.1717 16.76 26.7567 17.0429 26.9817 17.5957C27.1231 17.93 27.0846 18.3671 26.9689 18.7143ZM26.1074 18.2V18.0714C26.1074 17.6664 25.8503 17.4157 25.4581 17.4286C24.9824 17.4286 24.6417 17.7629 24.5581 18.2193L26.101 18.2H26.1074ZM27.9589 16.7857H28.8139L28.7303 17.2679C28.9103 17.1136 29.116 16.9914 29.3281 16.895C29.5146 16.8243 29.7138 16.7857 29.9131 16.7857C30.151 16.7857 30.3889 16.85 30.5624 17.0107C30.7231 17.165 30.7938 17.3707 30.8003 17.5893C30.7874 17.8079 30.7488 18.02 30.6974 18.2257L30.3117 20H29.3988L29.7974 18.2514C29.836 18.0971 29.8681 17.9364 29.8874 17.7757C29.8939 17.5507 29.701 17.4286 29.5017 17.4286C29.161 17.4286 28.8331 17.705 28.6789 18.0007C28.576 18.2386 28.4989 18.4507 28.4539 18.7079L28.1646 20H27.2646L27.9589 16.7857ZM31.2053 17.4286L31.3596 16.7857H31.8481L32.0153 16.1107L33.1724 15.5L32.851 16.7857H33.4553L33.301 17.4286H32.7031L32.4267 18.6564C32.3881 18.7979 32.3753 18.9907 32.3496 19.1321C32.3367 19.3121 32.5617 19.3571 32.6903 19.3571H33.0246L32.851 19.955C32.6774 19.9807 32.4974 20 32.3238 20C31.8931 20 31.2503 19.8393 31.3017 19.2929C31.3274 19.055 31.3724 18.8236 31.4303 18.5921L31.7003 17.4286H31.2053ZM10.3574 23.6257H11.3217C11.2767 24.2621 11.9646 24.3714 12.286 24.3714C12.6974 24.3714 13.2053 24.3843 13.2117 23.87C13.2117 23.7414 13.1474 23.6193 13.0317 23.5421C12.8131 23.4136 12.5817 23.3043 12.3374 23.2271C12.0481 23.1243 11.7717 22.9957 11.5017 22.8543C11.1481 22.6614 10.9874 22.295 11.0003 21.9221C10.981 21.0286 11.9196 20.5979 12.6846 20.6429C13.4624 20.6043 14.5103 21.0286 14.536 21.9286H13.5717C13.5717 21.6264 13.0896 21.4143 12.7103 21.4143C12.4017 21.4143 11.9646 21.485 11.9646 21.8643C11.9581 22.2693 12.4531 22.3529 12.7939 22.4686C13.4239 22.6614 14.2146 22.9829 14.2146 23.7479C14.2146 24.1207 14.0217 24.4871 13.7003 24.7314C13.3017 25.0207 12.7874 25.1686 12.2731 25.1364C11.6624 25.1493 10.8781 24.995 10.5246 24.4421C10.396 24.1979 10.3574 23.9407 10.3574 23.6257ZM14.8574 23.3621C14.8574 23.0921 14.9089 22.8157 14.986 22.5521C15.0804 22.1777 15.2609 21.8305 15.5131 21.5381C15.7654 21.2457 16.0823 21.0162 16.4388 20.8679C16.8053 20.7136 17.2103 20.6364 17.6217 20.6429C17.8981 20.6364 18.1681 20.675 18.4253 20.7586C18.6824 20.8486 18.9074 20.9771 19.1003 21.1443C19.2931 21.3243 19.4474 21.53 19.5503 21.755C19.6467 21.98 19.6917 22.2243 19.6789 22.4686C19.6789 22.925 19.5503 23.3814 19.306 23.7929C19.0792 24.2154 18.7355 24.5635 18.316 24.7957C17.8853 25.0271 17.3903 25.1493 16.8889 25.1429C16.4852 25.1578 16.085 25.0622 15.7317 24.8664C15.4466 24.7122 15.2156 24.4744 15.0696 24.185C14.9342 23.9316 14.8615 23.6494 14.8574 23.3621ZM15.8217 23.3621C15.8024 24.0179 16.3938 24.3714 16.9853 24.3714C17.2746 24.3714 17.551 24.3264 17.776 24.1721C18.0441 23.9825 18.2672 23.7362 18.4294 23.4507C18.5916 23.1651 18.689 22.8474 18.7146 22.52C18.7274 21.5879 18.1231 21.4143 17.5446 21.4143C16.5546 21.4143 15.8281 22.4107 15.8217 23.3429V23.3621ZM19.6789 25.1429L21.0353 20.6429H22.0124L20.9067 24.3714H23.2146L23.0474 25.1429H19.6789ZM27.1681 24.1464H25.2653L24.5967 25.1429H23.536L26.371 20.6429H27.541L28.3574 25.1429H27.3739L27.1681 24.1464ZM27.0396 23.4007L26.7503 21.5879L25.6446 23.4007H27.046H27.0396ZM29.701 25.1429H28.6789L29.7139 20.6429H31.9124C32.2081 20.6429 32.5103 20.6686 32.7996 20.7521C33.0117 20.8164 33.1853 20.9579 33.301 21.1379C33.4424 21.3436 33.5003 21.5879 33.4939 21.8257C33.5003 22.1729 33.3781 22.5136 33.121 22.7707C32.806 23.0407 32.401 23.2079 31.9639 23.2336C32.1117 23.3557 32.2403 23.4907 32.3367 23.6514C32.6324 24.1271 32.8896 24.6286 33.0953 25.1429H32.0024C31.9124 24.8857 31.7453 24.4936 31.4881 23.9536C31.3403 23.5871 31.141 23.2143 30.4981 23.2143H30.1189L29.701 25.1429ZM30.2796 22.5714H31.681C32.266 22.5714 32.536 22.1407 32.536 21.8386C32.536 21.4143 31.9767 21.4143 31.681 21.4143H30.556L30.2731 22.5714H30.2796Z" fill="black"/>
<path d="M11.6429 13.1982H11.5786C10.7865 13.2018 10.0237 13.4978 9.43642 14.0293C8.84916 14.5608 8.47882 15.2904 8.39645 16.0782C7.94869 15.9538 7.54275 15.711 7.22139 15.3753C6.90004 15.0396 6.67514 14.6234 6.5704 14.1707C6.46566 13.7179 6.48494 13.2453 6.62622 12.8025C6.7675 12.3598 7.02555 11.9634 7.37319 11.655C7.72083 11.3466 8.14519 11.1376 8.6016 11.0501C9.05801 10.9626 9.52957 10.9998 9.96661 11.1578C10.4037 11.3157 10.79 11.5886 11.085 11.9477C11.38 12.3068 11.5727 12.7388 11.6429 13.1982Z" fill="url(#paint0_linear_9_398153)"/>
<path d="M7.46387 13.5712C7.46387 14.3233 7.97815 14.9533 8.67244 15.1269L10.6267 13.1726C10.5287 12.7945 10.2963 12.465 9.97302 12.2458C9.64971 12.0265 9.25763 11.9325 8.87007 11.9814C8.4825 12.0302 8.12599 12.2185 7.86719 12.5111C7.60839 12.8037 7.46501 13.1806 7.46387 13.5712Z" fill="#E9AE55"/>
<path d="M9.07171 14.536C9.60427 14.536 10.036 14.1043 10.036 13.5717C10.036 13.0391 9.60427 12.6074 9.07171 12.6074C8.53915 12.6074 8.10742 13.0391 8.10742 13.5717C8.10742 14.1043 8.53915 14.536 9.07171 14.536Z" fill="#E38F10"/>
<path d="M20.6431 16.7861C19.7817 14.2918 16.8503 12.2861 13.8996 12.2861C12.9194 12.2945 11.9505 12.4959 11.0482 12.8788C10.1459 13.2617 9.32786 13.8185 8.64077 14.5175C7.95368 15.2166 7.411 16.0441 7.04373 16.9529C6.67647 17.8616 6.4918 18.8338 6.50028 19.814C6.50028 22.2504 7.63171 24.4104 9.39314 25.7861C8.81456 24.7576 7.14314 23.1311 7.14314 20.129C7.14314 16.1433 10.2931 12.929 14.2081 12.929C17.4481 12.929 19.1903 15.1276 19.576 15.5004C19.9617 15.8733 20.656 16.8183 20.6431 16.7861Z" fill="#103C82"/>
</g>
<circle cx="20" cy="20" r="19.5" stroke="black" stroke-opacity="0.05"/>
<defs>
<linearGradient id="paint0_linear_9_398153" x1="7.44502" y1="10.3375" x2="11.3922" y2="16.451" gradientUnits="userSpaceOnUse">
<stop offset="0.17" stop-color="#F4D6A7" stop-opacity="0.18"/>
<stop offset="0.45" stop-color="#F0C585"/>
</linearGradient>
<clipPath id="clip0_9_398153">
<rect width="28" height="15" fill="white" transform="translate(6 11)"/>
</clipPath>
</defs>
</svg>
