<svg width="40" height="40" viewBox="0 0 40 40" fill="none" xmlns="http://www.w3.org/2000/svg">
<circle cx="20" cy="20" r="20" fill="#137F68"/>
<g clip-path="url(#clip0_9_401771)">
<path d="M10.044 25.7989L27.8084 12.0252C27.8257 12.0118 27.8465 12.0033 27.8685 12.0008C27.8906 11.9983 27.9129 12.0018 27.9329 12.0109C27.953 12.0201 27.9699 12.0345 27.9818 12.0526C27.9936 12.0706 28 12.0915 28 12.1128V18.8208C28 18.8553 27.9892 18.8889 27.9688 18.9173C27.9484 18.9457 27.9195 18.9674 27.886 18.9796L19.3261 22.0771H27.8237C27.8705 22.0771 27.9153 22.095 27.9484 22.1267C27.9814 22.1585 28 22.2016 28 22.2466V25.8305C28 25.8755 27.9814 25.9186 27.9484 25.9504C27.9153 25.9821 27.8705 26 27.8237 26H10.118C10.0936 26.0001 10.0698 25.9929 10.0499 25.9794C10.0299 25.9659 10.0149 25.9468 10.0067 25.9247C9.9986 25.9026 9.99781 25.8786 10.0045 25.8561C10.0112 25.8335 10.025 25.8136 10.044 25.7989Z" fill="white"/>
</g>
<circle cx="20" cy="20" r="19.5" stroke="black" stroke-opacity="0.05"/>
<defs>
<clipPath id="clip0_9_401771">
<rect width="18" height="14" fill="white" transform="translate(10 12)"/>
</clipPath>
</defs>
</svg>
