<svg width="40" height="40" viewBox="0 0 40 40" fill="none" xmlns="http://www.w3.org/2000/svg">
<circle cx="20" cy="20" r="20" fill="#E18C1F"/>
<g clip-path="url(#clip0_9_401914)">
<path d="M30.3211 27.4511H30.2555C30.3988 27.5513 30.581 27.6515 30.581 27.677L28.6053 26.7468C28.5404 26.7717 28.5009 26.7717 28.4881 26.7468L28.4359 26.6716C28.4232 26.6467 28.3582 26.6467 28.2416 26.6964C28.2283 26.7219 28.1506 26.6461 28.02 26.5204C27.9684 26.4955 27.8774 26.5459 27.799 26.5204L27.2405 26.3443L27.1882 26.2945L27.0195 26.3194C26.9934 26.3194 26.9806 26.2441 26.9672 26.2441L26.5514 26.1937L26.4997 26.1184L26.2265 26.1688L25.759 26.1433L25.7457 26.0929H25.6935C25.6546 26.1433 25.5896 26.0687 25.6024 26.1184C26.0705 26.3947 26.5386 26.3698 27.0195 26.4955C28.748 26.7468 29.9441 27.7523 31.6987 28.6326C31.6854 28.6575 31.6337 28.6575 31.5688 28.6575C31.7631 28.7832 32.1796 29.0849 32.1407 29.1098C32.0496 29.1602 31.9847 29.1602 31.9197 29.1353C31.8414 29.1104 31.7503 29.0849 31.6337 29.0346L31.5554 28.9344C31.5166 28.9344 31.4777 28.9089 31.4255 28.884L31.4127 28.8336L31.3605 28.7832H31.2695L31.244 28.8087L31.2695 28.8336L31.2828 28.884C31.2695 28.9089 31.1395 28.7832 30.9319 28.683C30.9058 28.6575 30.9835 28.5822 30.9707 28.5822C30.8924 28.6071 30.8536 28.6071 30.8275 28.6071L30.2689 28.3309C30.2428 28.3309 30.2167 28.3558 30.2039 28.3309L30.1517 28.2556C30.009 28.2052 29.918 28.1797 29.9307 28.1293C29.9568 28.105 29.9829 28.0795 29.9829 28.0291C29.8785 28.0484 29.7709 28.0398 29.6709 28.0042C29.6558 27.9551 29.647 27.9043 29.6447 27.8531L29.5282 27.9034L29.5021 27.8027L29.4887 27.8282V27.8779L29.476 27.9034L29.4499 27.8282L29.4237 27.8027L29.411 27.8282V27.9283C29.3982 28.0036 29.1511 27.8779 28.6958 27.6521L28.7614 27.7274L28.748 27.7778C28.6181 27.7274 28.4626 27.7523 28.4626 27.7025V27.6521L28.4493 27.6017H28.3455L28.2799 27.6521C28.2149 27.6521 28.1372 27.6266 28.0722 27.6017C27.4347 27.1494 26.5119 26.8974 25.8501 26.8974C25.5508 26.7213 25.3814 26.6467 25.3559 26.6716C25.3425 26.6964 25.3298 26.6964 25.2909 26.7219C25.2515 26.7219 25.1604 26.7219 25.005 26.6716L24.9916 26.6467L24.94 26.5963H24.9005L24.8617 26.6212L24.8489 26.6716L24.8878 26.7723H24.6279C23.7178 26.5708 23.0287 26.5963 22.6778 26.5459L22.6911 26.1937L22.795 25.3644C23.2758 25.0122 23.4968 25.3893 24.0687 25.3389H24.277L24.3681 25.3644H24.4591L24.5368 25.3893L24.6018 25.4397C24.6146 25.4397 24.6534 25.4397 24.6929 25.3893L24.7706 25.3644L24.8356 25.3389H24.9527L24.9655 25.3893L26.7724 25.8671L26.8112 25.9673C26.8634 25.9928 26.9023 25.9424 26.9411 25.9424L27.1233 26.0177L27.422 26.0681H27.357L27.3315 26.0929L27.357 26.1184H27.3831C27.4226 26.0936 27.4481 26.0936 27.4742 26.0681C27.5003 26.0681 27.5525 26.0929 27.6302 26.1184L27.6175 26.0681V26.0177H27.6691L27.6952 26.0432L27.7341 26.0681L27.7863 26.1184L27.7341 26.1433H27.7086L27.7341 26.1937C27.8385 26.2186 28.02 26.1184 28.0589 26.1937L28.0467 26.2441L28.0589 26.2945L28.0984 26.3194H28.1633C28.2283 26.269 28.2932 26.2441 28.3455 26.2186C28.4104 26.2186 28.4881 26.2186 28.5009 26.2441L28.527 26.4955H28.592L28.6053 26.4451V26.5963L28.5659 26.5459L28.5531 26.5204L28.527 26.4451L28.5659 26.4202C28.7091 26.4451 28.8779 26.5204 29.0728 26.6212C29.1123 26.6964 29.0212 26.7972 29.0601 26.7972C29.1772 26.7219 29.2422 26.7468 29.3333 26.7468C29.411 26.7717 29.5154 26.8725 29.632 27.0237V27.0735L29.6447 27.1239L29.6709 27.099V27.0486L29.697 27.0237H29.7619L29.7747 27.0735C29.8402 27.0735 29.8791 27.0735 29.8919 27.099L29.8791 27.1494L29.9307 27.0486H29.9568L29.9829 27.0735L29.9957 27.1743V27.2247H30.0479C30.1651 27.2247 30.2689 27.2496 30.2689 27.2751L30.2561 27.3254L30.2816 27.4256L30.3211 27.4511ZM13.3921 27.1743C13.1226 27.4256 12.8645 27.2247 12.629 27.6017L12.584 27.677L12.5391 27.7778L12.5051 27.8779C12.4942 27.9034 12.4152 27.9283 12.2586 27.9538C11.6636 28.2556 11.0795 28.5822 10.6642 28.9344C10.204 29.3108 9.59749 29.7388 9.10389 29.7133C9.02496 29.7133 8.83431 29.2361 8.77785 29.261C8.64306 29.261 8.49735 29.2361 8.34071 29.1602L8.28424 29.1098C8.13853 29.1857 8.03714 29.2106 7.95821 29.2106C7.89142 29.1602 7.85742 29.1353 7.85742 29.0601C8.14885 28.5069 8.55321 28.4311 8.90171 28.1797C9.68735 27.7778 10.541 27.1239 11.3485 26.9478L11.3716 26.8476C11.394 26.7972 11.4614 26.7972 11.5622 26.8221L11.5847 26.7972L11.5962 26.7468C11.6071 26.6964 11.8652 26.7717 11.8652 26.7219C11.8696 26.6785 11.8811 26.636 11.8992 26.5963C12.3594 26.4955 12.7977 26.2192 13.2573 26.0936C13.2464 26.5459 13.2798 26.898 13.3921 27.1743ZM19.6755 26.7723H19.6245L19.0902 26.7468C18.2001 26.7219 17.5134 26.7723 16.6737 26.8476L15.8857 26.9229L15.9361 26.1184L15.7327 25.8167H15.8602L16.318 25.7159C16.9536 25.5902 17.2335 25.5653 17.7423 25.5156C18.2511 25.4646 18.8613 25.4397 19.2942 25.5398V25.5902C19.6245 25.7159 19.803 25.8671 19.9044 26.1433L19.6755 26.7723ZM21.5588 12.6174C21.1004 12.1906 20.6936 12.2155 20.2614 11.9641C20.0064 11.5871 20.1339 10.7571 20.6426 10.456C20.7155 10.3874 20.8026 10.3358 20.8976 10.3048C20.999 10.2799 21.1259 10.2799 21.2534 10.3048C21.9656 10.3048 22.067 10.6569 22.4495 11.0844C23.0597 11.7128 23.8484 11.8384 24.535 12.5676C25.807 13.9252 26.5702 15.7351 24.8149 16.967C24.5605 17.1679 24.3571 17.4697 24.1531 17.8473L24.1027 18.0987C24.1792 18.4004 24.2041 18.7016 24.2041 19.0288C24.1792 19.1794 24.1282 19.2802 24.0766 19.4053L24.0517 19.5571C24.0262 19.6572 23.8739 19.7076 23.8739 19.7829V19.8078L23.8229 19.9086L23.7719 19.9335C23.7209 20.0592 23.6699 20.1351 23.594 20.2607L23.492 20.3111V20.3609L23.4665 20.4113H23.441L23.4161 20.3864L23.3396 20.4368V20.4617L23.3141 20.4866C23.2591 20.5877 23.1806 20.6742 23.0852 20.7386C23.0183 20.7665 22.9502 20.7916 22.8812 20.8138C22.7294 20.9395 22.5764 21.0148 22.373 21.0901L22.0931 21.1654H22.0421L22.0166 21.1405C21.9597 21.1746 21.9081 21.2169 21.8636 21.2662L21.5078 21.3414L21.4823 21.3166H21.3548L21.3293 21.3669L21.3044 21.3414C21.2534 21.2911 21.1769 21.2911 21.1004 21.3414L20.948 21.2662C20.8715 21.1909 21.2534 20.9893 21.5078 20.8387C21.8891 20.4113 21.9401 19.9584 21.9401 19.9584C22.3979 18.9032 21.7112 17.8971 22.0166 17.0678L22.1945 16.6403L22.5764 15.9616L22.7288 15.6598L22.8563 15.3581V15.0824C22.8812 14.7552 22.6274 14.026 22.4495 13.7497C22.3724 13.6241 22.4744 13.5488 22.5764 13.3727L22.7039 13.3223C22.8812 13.1717 23.1107 12.6435 22.5254 12.1912C22.4744 12.1408 22.2965 12.1408 22.169 12.241C22.1435 12.3418 21.8897 12.9198 21.5588 12.6186V12.6174Z" fill="white"/>
<path d="M18.5308 19.5308C18.3274 20.5872 18.226 21.8185 18.4804 22.8999C18.4804 23.1008 18.4549 23.1761 18.5563 23.3771C18.8872 24.3078 19.3195 25.0868 20.0068 25.7911C20.0826 25.7911 20.1343 25.7407 20.1846 25.6399C20.2101 25.3636 20.2866 25.1627 20.3625 25.0619L20.4645 25.0364C20.592 24.5337 20.7189 23.9806 20.6424 23.453C20.6169 23.2769 20.5659 23.0759 20.5404 22.8999L20.5155 22.8246V22.7238L20.5404 22.6989H20.6169L20.9733 23.7547L20.9478 24.2319L20.9988 24.3327L21.0498 24.6345L21.0243 25.0364L21.0498 25.4638V25.5646C21.0498 25.992 20.6679 26.3187 20.541 26.7461L20.3625 27.1486L20.2101 27.5761L20.1336 27.6762L20.0826 28.179L20.1591 28.2797L20.1336 28.4807L20.1591 28.5062C20.2101 28.7825 20.5155 28.9585 20.7444 28.7321C20.8719 28.2797 20.439 28.0284 20.6679 27.8274L20.7699 27.8523L20.8974 27.9027L21.0243 28.0035L21.1002 28.1037L21.2022 28.3046V28.4054L21.1767 28.5311L21.1257 28.6568L21.0498 28.7825L20.8713 28.9336L20.7699 29.0089L20.6679 29.0593V29.0842C20.439 29.0842 20.337 29.0842 20.1336 28.9834C19.8283 28.7831 19.8544 28.6823 19.6759 28.4552C19.5739 28.3301 19.4725 28.1541 19.4725 28.0035V27.6762L19.498 27.5002L19.5994 27.2743L19.7014 26.7212L19.7524 26.57C19.8283 26.394 19.9048 26.0928 19.7524 25.9416C19.3705 25.6654 19.0906 25.4389 18.7597 25.0868C18.0985 24.3582 17.8186 23.629 17.6407 22.6734C17.6114 22.5668 17.5943 22.4572 17.5897 22.3467C17.5897 22.1956 17.5897 22.0954 17.5642 22.0195C17.2849 22.045 17.0809 22.0699 16.9789 22.1203C16.9279 22.1458 16.8775 22.1956 16.8265 22.246C16.801 22.3212 16.801 22.422 16.8265 22.5477L16.8775 22.6485L16.852 22.7487C16.8265 23.0255 16.6735 23.6035 16.5211 23.8294C16.3433 24.207 16.1399 24.4335 15.8594 24.7352L15.6305 24.9356V25.0874L15.6815 25.238L15.707 25.3636C15.86 25.6903 15.9104 25.7401 16.1648 25.992C16.4701 26.2683 16.5211 26.7461 16.4198 27.1231C16.3936 27.2239 15.9869 27.2488 15.7325 27.2488C15.5036 27.2488 15.2492 27.1735 14.9438 27.1486C14.8928 27.1231 14.8673 27.1231 14.9438 27.0982L15.0203 27.0734L15.2237 26.9726L15.2747 26.9222L15.3257 26.8973V26.8718C15.4532 26.6957 15.4271 26.6708 15.4532 26.4699C15.4757 26.4453 15.5032 26.4259 15.5339 26.4129C15.5646 26.3999 15.5978 26.3936 15.6311 26.3946C15.758 26.4699 15.7829 26.6708 15.86 26.6708C15.8849 26.57 15.9104 26.6459 15.8849 26.5202V26.4699C15.8345 25.9167 15.4526 25.7152 15.2492 25.2629C14.8169 24.5088 15.911 23.8045 16.1144 22.7493C16.1648 22.4973 16.0634 22.1707 16.1903 21.8938L16.2668 21.7177L16.4701 21.4166L16.5976 21.2909L16.7251 21.1901L16.8769 21.0894L17.0299 21.0141L17.2078 20.9388L17.7676 20.8635C18.0475 20.2849 17.9965 19.4051 18.3274 18.5254C18.3529 18.5254 18.4039 18.5752 18.4294 18.7264C18.4804 18.9273 18.5308 19.2291 18.5308 19.5308ZM24.4844 19.5308L24.4079 19.7069V21.1646L24.5858 22.2211V22.5975L24.5603 22.7736C24.5348 23.2769 24.3569 23.8804 24.128 24.3072C23.8226 24.9107 23.3904 25.2877 23.187 25.9416C22.9065 26.2434 22.8561 26.6957 23.0085 27.0727H22.983V27.0982L23.0595 27.2239L23.085 27.2743L23.1105 27.2992V27.3241L23.136 27.3496L23.1864 27.4753C23.2629 27.6514 23.2884 27.8274 23.3139 28.0278L23.2629 28.2294L23.2374 28.2549V28.2797L23.2119 28.3301L23.136 28.355L22.983 28.5062L22.932 28.5311L22.881 28.5815V28.6064L22.8306 28.6319V28.6568C22.6272 28.7825 22.4238 28.8832 22.1688 28.9336C22.0929 28.8832 22.0674 28.808 22.0929 28.7072C22.1782 28.6613 22.2556 28.6018 22.3218 28.5311C22.4742 28.355 22.5507 28.2294 22.6011 28.0533C22.6011 27.4 22.3218 25.9161 22.6011 25.3636C22.6776 25.2125 22.932 24.7601 22.9065 24.5841L22.932 24.5337L22.9575 24.3327L23.2629 23.8804L23.3904 23.6284L23.5179 23.4026L23.6193 23.1512C23.8481 22.623 23.975 22.1956 24.026 21.6176C24.0727 21.2674 24.0812 20.9132 24.0515 20.5611L24.026 20.2849L24.0005 20.1088L24.026 19.9582L24.077 19.7573L24.1535 19.5812L24.23 19.43L24.3314 19.3044V19.2795H24.3569C24.4589 19.3044 24.5093 19.4051 24.4844 19.5308Z" fill="white"/>
<path d="M22.1434 28.5061C21.9151 28.6821 21.7621 28.758 21.5078 28.8837V28.9086L21.4058 28.9341L21.3299 28.8837V28.8333L21.4058 28.7325L21.4313 28.6821L21.4823 28.6578L21.6098 28.4818V28.381C21.5843 28.3051 21.5843 28.2547 21.6098 28.2298H21.6608V28.1794V28.0288L21.6856 28.004H21.7111V27.9281V27.7775H21.7621L21.8131 27.8024V27.8279L21.9406 27.9536C21.991 28.0288 22.093 28.0537 22.144 28.2298C22.1695 28.3306 22.195 28.4308 22.144 28.5067L22.1434 28.5061ZM13.9519 25.389C13.9774 25.4394 13.7734 25.59 13.7485 25.6907C13.9009 26.0672 14.0278 26.5456 14.0278 26.797L14.0029 26.8473L13.9009 26.9226C13.8499 27.1485 13.7989 27.2748 13.723 27.3246C13.5639 27.2955 13.4149 27.2264 13.2901 27.1236L13.2142 27.0228L13.1122 26.8225L13.0867 26.7217L13.0612 26.5705V26.2687L13.0867 26.1182L13.1122 26.0927C13.3411 25.8668 13.5445 25.3884 13.7485 25.3137C13.7989 25.3137 13.9009 25.3386 13.9519 25.389ZM14.562 26.1431C14.613 26.0678 14.6385 26.0174 14.715 26.0927L14.7405 26.1431L14.7654 26.2183L14.8419 26.5201L14.8674 26.5456C14.9439 26.6458 14.9184 26.797 14.8929 26.922V26.9724L14.8419 27.0228H14.7909C14.5116 26.9724 14.4096 27.1485 14.2318 27.1236V27.0987L14.3331 26.9979L14.3841 26.9724L14.4096 26.9226L14.4606 26.8722L14.5116 26.7715V26.6713C14.4861 26.5954 14.4861 26.5705 14.5116 26.5201H14.562V26.4199H14.5371L14.5116 26.3191V26.2183H14.562V26.1431ZM19.88 11.31L19.829 11.2851C19.5995 11.2851 19.4981 11.3603 19.3706 11.5613C19.0913 12.1399 18.557 12.4417 18.2261 13.146C18.0986 13.3463 18.0483 13.5224 17.9973 13.6481C17.9718 13.9249 18.0731 14.2012 18.2006 14.4276C18.2516 14.5533 18.2771 14.6541 18.302 14.7543C18.455 15.5338 17.9718 15.9613 18.557 16.7402C19.1417 17.5198 20.0834 18.8021 19.9304 19.657V19.7577L19.8794 19.8579L19.8545 19.9587C19.8545 19.9587 19.8035 19.9836 19.778 20.0589C19.778 20.1597 19.8035 20.2853 19.676 20.5367C19.625 20.5871 19.5746 20.612 19.4981 20.5871C19.4471 20.5118 19.4471 20.411 19.4981 20.2605C19.5491 20.2101 19.5491 20.1846 19.6001 20.1093C19.6505 20.034 19.6001 19.8579 19.6001 19.8579C19.3202 18.5258 17.7684 18.1233 17.5644 16.6905C17.361 16.8914 17.0052 17.1428 16.5213 17.4445C15.3768 18.2994 15.0969 19.7073 14.8935 21.0394C14.8935 21.2908 14.868 21.4668 14.817 21.5925C14.766 21.7182 14.715 21.819 14.6391 21.8943H14.6136L14.5881 21.9198V22.0455C14.5606 22.1273 14.5068 22.1977 14.4351 22.2458C14.3593 22.3217 14.2828 22.3721 14.1808 22.4474C14.1304 22.4978 14.1304 22.5986 14.1049 22.6987L14.0284 22.8244V22.8499L14.0539 22.8748V22.8997L14.0284 22.9252L13.9774 22.9501C13.9264 23.0005 13.876 23.0509 13.876 23.1013L13.6975 23.2015C13.6959 23.2636 13.6784 23.3242 13.6465 23.3775H13.5706L13.4941 23.403L13.3162 23.4783L13.1632 23.5791L13.0357 23.6544H12.9853L12.9598 23.6793L12.9088 23.7048L12.8329 23.7297H12.7819L12.7564 23.7546L12.6289 23.7801C12.451 23.805 12.1966 23.805 11.8153 23.805C11.7643 23.7801 11.7133 23.7546 11.6623 23.7048L11.5858 23.6544L11.5099 23.6289L11.4079 23.5791L11.2045 23.4279C10.7468 22.8997 10.6448 22.0952 11.3569 21.6678V21.5676L11.4079 21.5172H11.4844C11.6878 21.5427 11.9167 21.4923 12.0442 21.6933C12.1201 21.6933 12.1966 21.7182 12.2731 21.7437C12.3745 21.819 12.4255 22.0703 12.2731 22.196C12.0952 22.3466 11.8912 22.4474 11.7133 22.5986C11.5354 22.6987 11.4583 22.6483 11.4079 22.7491C11.3569 22.9501 11.4079 23.0758 11.5354 23.227C11.6629 23.3775 11.8402 23.4783 12.0442 23.4534C12.1201 23.4777 12.1717 23.4777 12.2221 23.4777C12.2471 23.422 12.2816 23.371 12.3241 23.3271C12.3745 23.3022 12.5275 23.2518 12.7309 23.2015C12.8074 23.1766 12.8584 23.1766 12.9088 23.1262C13.0108 23.0758 13.0873 23.026 13.1887 22.9756C13.2652 22.9252 13.3672 22.8499 13.4437 22.7491L13.4686 22.7242H13.4941L13.5961 22.6235L13.6465 22.5482L13.6975 22.4978L13.7485 22.3472V22.2968L13.774 22.2713L13.7995 22.196C14.3083 20.2101 13.5706 19.0286 14.7915 17.5453C15.0969 17.1428 15.8601 16.7153 16.3689 16.5393C16.6482 16.464 16.8777 16.464 17.1576 16.5144C17.361 16.5144 17.3355 16.4889 17.4885 16.4136C17.2335 15.257 17.4885 15.6091 16.7253 14.6541C16.6305 14.5403 16.5532 14.413 16.4958 14.2765C16.1655 13.0446 17.31 12.7683 18.0476 12.0391C18.4295 11.7629 18.9383 11.1588 19.3712 11.0586H19.4981L19.6505 11.0841L19.7525 11.109L19.8545 11.1594L19.9049 11.2098L19.9304 11.2596V11.31H19.88Z" fill="white"/>
<path d="M19.2176 13.0444C19.268 13.1203 18.8612 13.6479 18.8612 13.7238L18.7847 13.7481C18.7343 13.623 18.8357 13.4469 18.8102 13.422C18.7598 13.3462 18.6578 13.422 18.6578 13.3213C18.6068 13.2709 18.5303 13.246 18.5558 13.1707C18.5558 12.9691 19.0901 12.8683 19.2176 13.0444ZM21.3044 13.1203L21.2534 13.1452C21.2789 13.1956 21.2279 13.1956 21.2279 13.2709C21.2024 13.3717 21.05 13.422 20.9729 13.422C20.9225 13.422 20.7695 13.6479 20.4896 13.5477C20.3372 13.5222 20.2862 13.7736 20.1083 13.7736C20.0318 13.7736 20.1587 13.623 20.1587 13.5732C20.2607 13.4214 20.3117 13.2964 20.3882 13.1452L20.4896 13.0948C20.6426 13.0948 20.795 13.0699 20.9735 13.1452L21.05 13.1701L21.1259 13.1458C21.1769 13.045 21.2534 13.0195 21.3044 13.1203ZM19.5989 13.9745C19.7519 14.1506 20.0057 13.8744 20.0318 14.0504C20.0567 14.1257 19.6754 14.3018 19.625 14.3018L19.4465 14.4026C19.2935 14.5028 19.319 14.6788 19.268 14.779C19.268 14.8798 19.421 14.9302 19.4975 14.9806C19.6499 15.0808 19.7768 15.408 20.0063 15.3327C20.2352 15.3072 20.3366 15.2319 20.5151 15.2823C20.5151 15.3825 20.6165 15.2568 20.6426 15.3576L20.7185 15.4329C20.7185 15.5082 20.6165 15.5586 20.5406 15.5841C20.3621 15.6594 20.2352 15.6843 20.0573 15.6339C19.8278 15.6843 19.7009 15.4578 19.523 15.3825C19.472 15.3072 19.37 15.2823 19.319 15.2319C19.2425 15.1815 19.2176 15.207 19.1156 15.2568C18.8867 15.3576 18.7847 15.5586 18.6578 15.4833C18.6833 15.3327 18.7337 15.2319 18.9122 15.031C18.9632 14.9806 19.1156 14.9551 19.1156 14.8045C19.1156 14.7037 18.9881 14.4524 18.9881 14.4275C18.9122 14.3771 18.9377 14.3267 18.8867 14.3018C18.5558 14.0753 18.6317 14 18.7082 13.9752C18.8867 13.9497 19.2935 13.7985 19.5989 13.9745ZM20.1842 16.0868L20.693 15.8603C20.7689 15.8603 20.54 16.0619 20.489 16.1621C20.3615 16.3382 20.1842 16.3885 19.9802 16.5391C19.9553 16.5895 19.8788 16.6399 19.9043 16.7656C19.8788 16.8409 19.8278 16.8913 19.8023 16.9162C19.7258 16.9417 19.421 16.7905 19.37 16.7158C19.1921 16.4887 19.0907 16.4389 18.9632 16.3133C18.886 16.2413 18.8402 16.1419 18.8357 16.0364L18.8612 16.0115L19.0136 16.0868L19.4969 16.1621C19.6754 16.2125 20.0567 16.1621 20.1842 16.0868Z" fill="white"/>
</g>
<circle cx="20" cy="20" r="19.5" stroke="black" stroke-opacity="0.05"/>
<defs>
<clipPath id="clip0_9_401914">
<rect width="26" height="20" fill="white" transform="translate(7 10)"/>
</clipPath>
</defs>
</svg>
