<svg width="40" height="40" viewBox="0 0 40 40" fill="none" xmlns="http://www.w3.org/2000/svg">
<circle cx="20" cy="20" r="20" fill="#495E66"/>
<path d="M24.8712 14H25.1637C25.8301 14.1169 26.3031 14.4323 26.5826 14.9463C26.8392 15.4192 26.8775 15.8772 26.6974 16.3201C26.0922 17.8135 24.1097 17.8787 23.3813 16.4776C23.1658 16.0631 23.1437 15.6217 23.315 15.1535C23.5558 14.4951 24.0745 14.1105 24.8712 14Z" fill="#ABD47D"/>
<path d="M20.6958 19.9267C21.8287 19.9267 22.7471 19.0084 22.7471 17.8755C22.7471 16.7426 21.8287 15.8242 20.6958 15.8242C19.5629 15.8242 18.6445 16.7426 18.6445 17.8755C18.6445 19.0084 19.5629 19.9267 20.6958 19.9267Z" fill="#ABD47D"/>
<path d="M27.6866 20.2658C28.4925 20.2658 29.1457 19.6126 29.1457 18.8068C29.1457 18.0009 28.4925 17.3477 27.6866 17.3477C26.8808 17.3477 26.2275 18.0009 26.2275 18.8068C26.2275 19.6126 26.8808 20.2658 27.6866 20.2658Z" fill="#ABD47D"/>
<path d="M16.8066 23.1844C17.9408 23.1844 18.8602 22.265 18.8602 21.1308C18.8602 19.9966 17.9408 19.0771 16.8066 19.0771C15.6724 19.0771 14.7529 19.9966 14.7529 21.1308C14.7529 22.265 15.6724 23.1844 16.8066 23.1844Z" fill="#ABD47D"/>
<path d="M7.47199 20.7926C7.67279 20.7926 7.83558 20.6298 7.83558 20.429C7.83558 20.2282 7.67279 20.0654 7.47199 20.0654C7.27118 20.0654 7.1084 20.2282 7.1084 20.429C7.1084 20.6298 7.27118 20.7926 7.47199 20.7926Z" fill="#ABD47D"/>
<path d="M29.0813 23.0483C29.7092 23.0483 30.2183 22.5393 30.2183 21.9114C30.2183 21.2834 29.7092 20.7744 29.0813 20.7744C28.4534 20.7744 27.9443 21.2834 27.9443 21.9114C27.9443 22.5393 28.4534 23.0483 29.0813 23.0483Z" fill="#ABD47D"/>
<path d="M6.55094 22.2738C6.87733 22.2738 7.14192 22.0092 7.14192 21.6828C7.14192 21.3564 6.87733 21.0918 6.55094 21.0918C6.22455 21.0918 5.95996 21.3564 5.95996 21.6828C5.95996 22.0092 6.22455 22.2738 6.55094 22.2738Z" fill="#ABD47D"/>
<path d="M13.1573 25.6799C14.0554 25.6799 14.7834 24.9519 14.7834 24.0538C14.7834 23.1558 14.0554 22.4277 13.1573 22.4277C12.2593 22.4277 11.5312 23.1558 11.5312 24.0538C11.5312 24.9519 12.2593 25.6799 13.1573 25.6799Z" fill="#ABD47D"/>
<path d="M7.0605 24.5351C7.53994 24.5351 7.92861 24.1464 7.92861 23.6669C7.92861 23.1875 7.53994 22.7988 7.0605 22.7988C6.58105 22.7988 6.19238 23.1875 6.19238 23.6669C6.19238 24.1464 6.58105 24.5351 7.0605 24.5351Z" fill="#ABD47D"/>
<path d="M30.6401 24.8477C31.066 24.8477 31.4111 24.5025 31.4111 24.0767C31.4111 23.6509 31.066 23.3057 30.6401 23.3057C30.2143 23.3057 29.8691 23.6509 29.8691 24.0767C29.8691 24.5025 30.2143 24.8477 30.6401 24.8477Z" fill="#ABD47D"/>
<path d="M9.61701 26.3453C10.3359 26.3453 10.9186 25.7626 10.9186 25.0438C10.9186 24.3249 10.3359 23.7422 9.61701 23.7422C8.89817 23.7422 8.31543 24.3249 8.31543 25.0438C8.31543 25.7626 8.89817 26.3453 9.61701 26.3453Z" fill="#ABD47D"/>
<path d="M32.1643 25.8149C32.4632 25.8149 32.7055 25.5726 32.7055 25.2737C32.7055 24.9747 32.4632 24.7324 32.1643 24.7324C31.8654 24.7324 31.623 24.9747 31.623 25.2737C31.623 25.5726 31.8654 25.8149 32.1643 25.8149Z" fill="#ABD47D"/>
<path d="M33.596 26.1071C33.7968 26.1071 33.9596 25.9443 33.9596 25.7435C33.9596 25.5427 33.7968 25.3799 33.596 25.3799C33.3952 25.3799 33.2324 25.5427 33.2324 25.7435C33.2324 25.9443 33.3952 26.1071 33.596 26.1071Z" fill="#ABD47D"/>
<circle cx="20" cy="20" r="19.5" stroke="black" stroke-opacity="0.05"/>
</svg>
