<svg width="40" height="40" viewBox="0 0 40 40" fill="none" xmlns="http://www.w3.org/2000/svg">
<circle cx="20" cy="20" r="20" fill="#016FD0"/>
<path d="M16.2496 10.0726L18.0715 14.5211V10.0713H23.1231L24.0822 12.7893L24.9006 10.0713H30.2858V19.7141H31.1157L26.5244 25.1816L31.0707 30.6427H24.9546L23.5293 28.8588L22.1395 30.6427H11.0001V21.0011H7.44763L11.9271 10.0726H16.2496ZM18.7143 29.357V27.5429H14.4284V26.0579H18.7143V24.299H14.4284V22.8693H18.7143V20.9999L15.6993 21.0011V20.9999H12.4246L12.4233 21.0011H12.2858V29.357H18.7143ZM18.7143 20.9999L22.27 25.2299L18.7979 29.357H21.5121L23.5184 26.783L25.5743 29.357H28.3276L24.8478 25.1784L28.3572 20.9999H25.7112L23.5859 23.615L21.4683 20.9999H18.7143ZM18.8088 19.7141L15.3869 11.3583H12.7898L9.36399 19.7154H11.0001V19.7141H11.5947L12.2266 18.4284H15.9012L16.5293 19.7141H18.8088ZM19.3572 19.7141H21.2858V13.6327L23.2143 19.7141H25.1429L27.0715 13.6327V19.7141H29.0001V11.357H25.8565L24.1786 16.9286L22.2134 11.357H19.3572V19.7141ZM14.0575 13.3717L12.9338 16.4999H15.1773L14.0575 13.3717Z" fill="white"/>
<circle cx="20" cy="20" r="19.5" stroke="black" stroke-opacity="0.05"/>
</svg>
