<svg width="40" height="40" viewBox="0 0 40 40" fill="none" xmlns="http://www.w3.org/2000/svg">
<circle cx="20" cy="20" r="20" fill="#005F71"/>
<path d="M12.3633 17.3113C12.3633 17.3113 12.3811 17.3621 12.3833 17.3642L12.8576 17.2985V22.7078L12.7647 22.7206C12.7118 22.7278 12.6061 22.7406 12.5261 22.7492C12.4004 22.7635 12.3833 22.7721 12.3761 22.8135L12.3697 22.8642H14.0354V22.8113C14.0354 22.7628 14.024 22.7585 13.8654 22.7449C13.7877 22.7379 13.7103 22.7284 13.6333 22.7163L13.5718 22.7035V17.0156L12.3633 17.3113ZM5.91613 17.5813C5.91113 17.5949 6.06613 18.0821 6.26042 18.6621C7.21113 21.5042 7.52256 22.4442 7.52256 22.4663C7.52256 22.4792 7.44756 22.5706 7.3547 22.6713L7.18685 22.8549H9.03899C9.02113 22.8356 8.84256 22.6406 8.69042 22.4728C8.58961 22.3637 8.49171 22.252 8.39685 22.1378C8.38113 22.1142 7.78113 20.3542 7.05899 18.2263C6.94783 17.892 6.83234 17.5591 6.71256 17.2278L5.91613 17.5813ZM9.99542 18.4813V19.0485H9.42185V19.1585H9.99399L10.0004 20.7278C10.0068 22.2578 10.009 22.2821 10.0554 22.4228C10.1768 22.7785 10.3818 22.9442 10.7618 22.9856L10.894 23.0013L11.9283 22.3328C11.9283 22.3256 11.9154 22.3042 11.9018 22.2842C11.8754 22.2485 11.8597 22.2528 11.6968 22.3213C11.4326 22.4378 11.0826 22.5213 10.8511 22.3063C10.7147 22.1756 10.7147 22.1713 10.7147 20.5978V19.1585H11.429V19.0478H10.7147V17.9713L9.99542 18.4813ZM23.5718 18.4771V19.0485H22.9976V19.1585H23.5718V20.6942C23.5718 22.3328 23.574 22.3656 23.6911 22.5949C23.7311 22.6735 23.914 22.9692 24.2268 22.9992C24.2268 22.9992 25.2011 22.3821 25.2011 22.3235C25.199 22.2506 25.1633 22.2485 25.0047 22.3149C24.6461 22.4649 24.499 22.4592 24.2926 22.1492L24.2861 20.6642V19.1592H25.1133V19.0492H24.2861V17.9642L23.5718 18.4771ZM15.9097 19.0485L15.1597 19.2985L15.1526 19.6771L15.1483 20.0571H15.8897L16.009 19.5671L16.1304 19.0792L16.2076 19.0463C16.3154 18.9999 16.6468 18.9842 16.7747 19.0221C16.839 19.0399 16.9111 19.0842 16.9711 19.1392C17.119 19.2821 17.1497 19.3749 17.1426 19.9799V20.4856L16.6376 20.6356C16.3711 20.7171 15.969 20.8428 15.744 20.9113C15.3583 21.0306 15.3297 21.0435 15.2254 21.1406C15.009 21.3435 14.9054 21.5956 14.9054 21.9113C14.9076 22.4692 15.2626 22.8335 15.8697 22.8935L16.024 22.9085L16.574 22.5399C16.8761 22.3399 17.1326 22.1713 17.1433 22.1692C17.154 22.1671 17.2054 22.3106 17.2533 22.4892C17.3047 22.6656 17.3504 22.8178 17.3576 22.8271C17.3661 22.8342 17.3918 22.7828 17.7447 22.7128C18.3697 22.5885 18.3876 22.5842 18.3876 22.5335C18.3876 22.4849 18.3804 22.4828 18.3054 22.4935C18.1354 22.5178 17.9676 22.5335 17.9676 22.5249C17.9676 22.5178 17.9461 22.4363 17.919 22.3392C17.8726 22.1735 17.8704 22.1056 17.8576 20.9071V19.5099C17.8576 19.1385 17.3968 18.8206 16.969 18.8099L16.6597 18.8013L15.9097 19.0485ZM17.1433 22.0413L16.9776 22.1513C16.589 22.4256 16.2561 22.4342 16.0597 22.1778C15.9511 22.0392 15.914 21.8828 15.9247 21.6156C15.9318 21.4163 15.9404 21.3728 16.0018 21.2471C16.1283 20.9949 16.214 20.9313 16.6883 20.7478C16.9161 20.6621 17.1433 20.5871 17.1433 20.5871V22.0413ZM20.0004 19.7878V18.9271L18.779 19.2799L18.7897 19.3371L19.2861 19.2671V22.7028L19.2047 22.7171C19.1583 22.7256 19.0476 22.7363 18.9618 22.7456C18.8476 22.7556 18.8004 22.7528 18.8004 22.8642H20.3754C20.3754 22.8406 20.374 22.8178 20.354 22.7971C20.3283 22.7721 20.2754 22.7499 20.1611 22.7321L20.0004 22.7056V19.9178C20.2004 19.7985 20.5061 19.4635 20.7126 19.4635C20.979 19.4635 21.2861 19.4928 21.4218 19.7421L21.4354 22.7078L21.3626 22.7206L21.1904 22.7492C21.1061 22.7635 21.0883 22.7878 21.0776 22.8642H22.6776C22.659 22.7313 22.5333 22.7499 22.4126 22.7363C22.3251 22.7302 22.2381 22.7192 22.1518 22.7035C22.1497 22.6992 22.1433 21.2499 22.1433 21.2499C22.1433 20.4556 22.154 19.7271 22.1433 19.6328C22.0897 19.1778 21.799 18.9242 21.3397 18.8971L21.1633 18.8885C20.5718 19.1871 20.0004 19.7878 20.0004 19.7878ZM30.0697 18.9478C29.3718 19.1478 28.8733 19.5192 28.5954 20.0413C28.2111 20.7656 28.284 21.6921 28.774 22.2699C29.0633 22.6099 29.5311 22.8356 30.0368 22.8785L30.2133 22.8935L30.4204 22.7821C30.6547 22.6549 30.9061 22.4963 31.0718 22.3692C31.3318 22.1671 31.5683 21.9549 31.5683 21.9178C31.5683 21.8678 31.5504 21.8678 31.4683 21.9249C31.339 22.0106 31.1004 22.1178 30.9683 22.1499C30.7484 22.1966 30.5232 22.2124 30.299 22.1971C29.7868 22.1499 29.3968 21.8942 29.2004 21.5013C28.9576 21.0142 29.1004 20.2821 29.2147 19.8742C29.3619 19.3485 29.7004 19.1042 30.1118 19.0721C30.1959 19.0605 30.2815 19.0664 30.3633 19.0892L30.4468 19.1178L30.5904 19.5899C30.6697 19.8506 30.7447 20.0756 30.7583 20.0913L31.429 20.0956V19.3106L31.3033 19.2335C30.9633 19.0228 30.6697 18.8913 30.3983 18.8935C30.3126 18.8935 30.1797 18.9149 30.0697 18.9478ZM33.6811 19.1413L32.8576 19.3906V20.1499L33.659 20.1385L33.7804 19.6528L33.9018 19.1671L34.0211 19.1278C34.1447 19.0878 34.3833 19.0749 34.4997 19.1035C34.7011 19.1521 34.9361 19.2956 34.9783 19.4942C34.9911 19.5628 34.9983 19.8078 34.9961 20.0921L34.989 20.5735L34.3654 20.7392C34.074 20.8292 33.6654 20.9571 33.4583 21.0235L33.0811 21.1428L32.9547 21.2749C32.8765 21.3583 32.8113 21.4529 32.7611 21.5556C32.7011 21.6878 32.6897 21.7342 32.6811 21.9485C32.6747 22.1556 32.679 22.2113 32.7211 22.3321C32.8497 22.7163 33.1668 22.9392 33.6461 22.9878L33.7983 23.0013L34.3568 22.6235C34.664 22.4163 34.9997 22.2421 34.9997 22.2421C34.9997 22.2421 34.9811 22.4228 35.0276 22.5992C35.074 22.7763 35.1154 22.9242 35.1204 22.9278C35.1226 22.9328 35.4183 22.8778 35.7776 22.8063C36.409 22.6813 36.2468 22.6506 36.2468 22.6013C36.2468 22.5535 36.2397 22.5513 36.1647 22.5621C36.1183 22.5692 36.0233 22.5799 35.9554 22.5885L35.8297 22.6013C35.7828 22.5155 35.7443 22.4253 35.7147 22.3321V20.9971C35.7054 20.2685 35.7276 19.6971 35.7147 19.6399C35.5804 19.0656 35.3411 18.9199 34.7404 18.9006L34.4318 18.8913L33.6811 19.1413ZM35.0004 21.4056V22.1313L34.8968 22.2063C34.6254 22.4006 34.3061 22.4849 34.1254 22.4585C33.7361 22.3985 33.549 21.7785 33.7783 21.3213C33.8997 21.0835 33.9833 21.0235 34.4426 20.8428C34.6676 20.7571 34.9854 20.6835 34.9997 20.6813L35.0004 21.4056ZM26.6054 19.0749C26.234 19.1606 25.9276 19.2335 25.9233 19.2363C25.919 19.2406 25.9211 19.2671 25.9304 19.2956L25.9433 19.3485L26.1354 19.3085C26.2426 19.2871 26.3511 19.2692 26.3804 19.2671H26.4283V22.7078L26.3354 22.7206C26.2833 22.7278 26.1768 22.7406 26.0976 22.7492C25.9718 22.7635 25.9547 22.7721 25.9476 22.8135L25.9404 22.8642H27.6376L27.6304 22.8142C27.624 22.7692 27.6068 22.7628 27.3947 22.7385C27.3156 22.7307 27.2369 22.7187 27.159 22.7028C27.1518 22.6992 27.1476 21.8471 27.1433 20.8099C27.1383 18.9428 27.1433 18.9206 27.1433 18.9206C27.119 18.9206 26.9761 18.9885 26.6054 19.0749ZM5.16113 20.8556H6.67899C6.67042 20.8342 6.64328 20.7235 6.64328 20.7235H5.21185L5.16113 20.8556Z" fill="white"/>
<path d="M4.64199 21.8926L5.56842 22.9026H3.71484L4.64199 21.8926Z" fill="#70D549"/>
<circle cx="20" cy="20" r="19.5" stroke="black" stroke-opacity="0.05"/>
</svg>
