<svg width="40" height="40" viewBox="0 0 40 40" fill="none" xmlns="http://www.w3.org/2000/svg">
<circle cx="20" cy="20" r="20" fill="#EFAB00"/>
<path fill-rule="evenodd" clip-rule="evenodd" d="M29.988 20.2981C29.9939 20.3492 29.9972 20.4014 29.9999 20.4525C30.0004 20.5054 29.9988 20.5587 29.9944 20.6116C29.9902 20.6665 29.9858 20.722 29.9743 20.776C29.9493 20.8924 29.9309 21.0116 29.8868 21.122C29.7769 21.3931 29.6474 21.6561 29.5157 21.9172C29.475 21.9968 29.4228 22.0697 29.3712 22.142C29.315 22.2221 29.2558 22.3004 29.1917 22.3739C29.0502 22.5356 28.9115 22.6994 28.7553 22.8469C28.4279 23.1571 28.0933 23.462 27.7419 23.7461C27.3318 24.0776 26.9064 24.39 26.474 24.6922C25.4624 25.3997 24.4321 26.0795 23.4111 26.7724L25.0925 27.7656C25.4938 28.0026 25.891 28.248 26.2896 28.4885C26.3478 28.5239 26.406 28.561 26.4621 28.6006C26.5192 28.6409 26.5758 28.6829 26.6285 28.7296C26.6889 28.783 26.746 28.8423 26.802 28.9011C26.8309 28.9327 26.8575 28.967 26.8825 29.0013C26.9075 29.0356 26.931 29.0721 26.9522 29.1091C26.9735 29.146 26.993 29.1847 27.0076 29.2244C27.0229 29.2642 27.0348 29.3049 27.0436 29.3458C27.0512 29.3877 27.0567 29.4308 27.0567 29.4737C27.0567 29.5177 27.0523 29.5631 27.0425 29.606C27.0321 29.6533 27.0175 29.7001 26.9978 29.7436C26.9755 29.7932 26.9489 29.8412 26.9168 29.8841C26.8799 29.9352 26.838 29.9832 26.7922 30.0262C26.7384 30.0773 26.6785 30.1231 26.6183 30.166C26.5497 30.2151 26.4779 30.2613 26.4049 30.3038C26.3244 30.3512 26.2434 30.399 26.1575 30.4355C25.7751 30.6003 25.3856 30.7506 25 30.9079C24.5105 31.1083 23.9904 31.2274 23.4792 31.3619C22.7557 31.5517 22.0274 31.7212 21.2968 31.8811C20.6774 32.0166 20.0561 32.1484 19.4301 32.2469C18.8936 32.3312 18.353 32.3863 17.8118 32.4287C17.6556 32.4412 17.4974 32.4325 17.3418 32.4113C17.0242 32.3683 16.7092 32.3051 16.3965 32.236C16.3094 32.217 16.2268 32.1805 16.1447 32.1462C16.0619 32.1119 15.9809 32.075 15.9026 32.0325C15.8253 31.99 15.7492 31.9442 15.6784 31.892C15.6078 31.8403 15.5403 31.7836 15.4788 31.7216C15.4174 31.6597 15.3652 31.5893 15.3135 31.5186C15.2869 31.4833 15.2656 31.4435 15.2449 31.4043C15.2243 31.3641 15.2052 31.3227 15.1884 31.2807C15.1716 31.2373 15.1557 31.1926 15.1437 31.1479C15.1307 31.1006 15.1204 31.0528 15.1127 31.0043C15.1045 30.9548 15.0986 30.9036 15.0959 30.8524C15.0926 30.7979 15.0954 30.7435 15.0943 30.6886C15.0943 30.6678 15.0904 30.6472 15.0915 30.6265C15.0948 30.5656 15.097 30.5041 15.1074 30.4448C15.1247 30.3457 15.1448 30.2472 15.1758 30.1514C15.2188 30.0147 15.2678 29.8797 15.3287 29.7502C15.4086 29.5799 15.4978 29.4117 15.5996 29.2527C15.7291 29.0487 15.8678 28.85 16.0201 28.6621C16.2104 28.4276 16.4123 28.2006 16.6265 27.9867C16.8903 27.7238 17.1607 27.4663 17.4517 27.2339C18.2133 26.6259 19.0058 26.0571 19.7835 25.4683L17.5442 24.2094C16.5482 23.6492 15.5403 23.1098 14.5318 22.5721C13.5288 22.0371 12.5171 21.5178 11.5091 20.9908C11.4684 20.9698 11.4281 20.949 11.3878 20.9278C11.384 20.9256 11.3796 20.9223 11.3754 20.9213C11.3726 20.9202 11.3807 20.9251 11.384 20.9262C11.4095 20.9404 11.4874 20.9806 11.4613 20.9676C11.3885 20.9293 11.3128 20.8935 11.2411 20.8516C11.0773 20.7558 10.9124 20.6583 10.7531 20.5538C10.6617 20.4939 10.5747 20.4275 10.4904 20.3578C10.4083 20.2904 10.331 20.2175 10.2554 20.143C10.2206 20.108 10.1896 20.07 10.1591 20.0308C10.1314 19.9949 10.1047 19.9573 10.0818 19.9175C10.0612 19.881 10.0431 19.843 10.0296 19.8033C10.017 19.7668 10.0057 19.7288 10.003 19.6901C9.998 19.6133 9.9991 19.5354 10.0073 19.4587C10.0166 19.3754 10.0345 19.2927 10.0553 19.2117C10.0774 19.1256 10.1053 19.0407 10.1356 18.9568C10.1673 18.8692 10.1998 18.7811 10.2412 18.6978C10.4012 18.3772 10.5649 18.0583 10.7394 17.7453C10.8401 17.5662 10.9489 17.3915 11.0653 17.2222C11.5314 16.5463 11.9845 15.8588 12.4882 15.209C13.6224 13.7443 14.7962 12.311 15.9754 10.8824C16.2719 10.522 16.5891 10.177 16.9164 9.84334C17.5301 9.21726 18.1577 8.60438 18.7969 8.00362C18.9518 7.85764 19.126 7.73305 19.2962 7.60453C19.3936 7.5317 19.4953 7.46421 19.5981 7.3994C19.6954 7.33837 19.7939 7.27969 19.8968 7.22904C19.9887 7.18389 20.0838 7.14409 20.1817 7.11153C20.2726 7.08101 20.3656 7.05757 20.4596 7.03901C20.5473 7.0217 20.6365 7.01085 20.7256 7.00424C20.8089 6.99827 20.8938 6.99984 20.9775 7.00157C21.0264 7.00267 21.076 7.00582 21.1249 7.01289C21.1902 7.02218 21.2561 7.03193 21.3196 7.05002C21.3964 7.07173 21.4714 7.10052 21.5454 7.13103C21.5879 7.14849 21.6281 7.17083 21.6678 7.19364C21.7102 7.21818 21.7521 7.2454 21.7924 7.27481C21.8359 7.3069 21.8782 7.3401 21.918 7.37596C21.9621 7.41576 22.0046 7.45713 22.0442 7.50071C22.0883 7.54806 22.1296 7.59745 22.1688 7.64921C22.2117 7.70631 22.2536 7.76514 22.2912 7.82555C22.333 7.89256 22.3728 7.96115 22.4087 8.03131C22.4483 8.10965 22.4853 8.18909 22.5191 8.26979C22.5566 8.35898 22.5904 8.44991 22.6214 8.5413C22.6561 8.64261 22.6915 8.74439 22.7148 8.84931C22.8177 9.30708 22.9281 9.76438 23.001 10.2281C23.0946 10.8224 23.1663 11.4207 23.2132 12.0205C23.28 12.8821 23.3148 13.7463 23.3404 14.6101C23.3573 15.192 23.3404 15.7743 23.3404 16.3569L26.4012 17.4204C26.8553 17.5782 27.2813 17.8079 27.7219 18.0017C28.0863 18.1623 28.4246 18.3789 28.7641 18.5873C28.9197 18.6825 29.0611 18.798 29.2036 18.9112C29.2667 18.9613 29.3243 19.0184 29.3803 19.0761C29.4305 19.1278 29.4788 19.1823 29.5208 19.2405C29.593 19.3401 29.6615 19.4418 29.7231 19.548C29.778 19.6443 29.8297 19.744 29.8716 19.8467C29.9101 19.9436 29.9379 20.045 29.9641 20.1461C29.9765 20.1957 29.9825 20.2469 29.988 20.2981ZM17.4381 13.4226C17.0056 13.8715 16.5809 14.3282 16.1528 14.7816L16.3045 14.7855L16.7719 14.8214L18.7022 15.1393L20.7708 15.6155L20.5979 13.7578C20.5658 13.4089 20.5375 13.0595 20.4983 12.7111C20.4684 12.4422 20.4304 12.1739 20.389 11.9061C20.3722 11.7962 20.3514 11.6873 20.3248 11.58C20.3063 11.505 20.2812 11.4315 20.2536 11.3596C20.2438 11.3331 20.2274 11.3085 20.2122 11.2846C20.1991 11.2638 20.1839 11.2443 20.1677 11.2258C20.1535 11.2094 20.1376 11.1942 20.1208 11.1806C20.1066 11.1687 20.0904 11.1577 20.0741 11.1485C20.0588 11.1397 20.042 11.1322 20.0256 11.1273C20.0099 11.1218 19.9935 11.1174 19.9772 11.1169C19.9446 11.1153 19.9125 11.1147 19.8809 11.1202C19.8505 11.1251 19.8222 11.1366 19.7939 11.1479C19.7673 11.1588 19.7412 11.1718 19.7167 11.1871C19.6819 11.2089 19.6503 11.2344 19.6182 11.259C19.5764 11.2911 19.5345 11.3238 19.4953 11.3581C19.3822 11.4565 19.2647 11.5519 19.1592 11.6579C18.5793 12.2404 18.0081 12.8309 17.4381 13.4226ZM26.1053 20.9605C26.1108 20.9426 26.1124 20.9229 26.1117 20.9028C26.1128 20.8837 26.1139 20.8647 26.1108 20.8461C26.1037 20.8092 26.0944 20.7716 26.0807 20.7368C26.0661 20.7014 26.0466 20.6671 26.0254 20.635C26.0035 20.6023 25.9791 20.5702 25.9513 20.5419C25.8986 20.4879 25.843 20.4374 25.7855 20.3895C25.7446 20.3558 25.7023 20.3242 25.6565 20.297C25.2676 20.0662 24.8841 19.8246 24.4837 19.6155C24.0736 19.4016 23.6445 19.2241 23.2251 19.0287L23.0412 20.7983C23.0091 21.1041 22.9292 21.403 22.8569 21.7013C22.8031 21.9223 22.7356 22.1394 22.6648 22.3549C22.6307 22.4584 22.5882 22.5591 22.5424 22.6582C22.5017 22.7469 22.4549 22.8334 22.4054 22.9172C22.3646 22.9863 22.3206 23.0538 22.2715 23.1175C22.2334 23.1675 22.1916 23.2155 22.146 23.2589C22.0927 23.3096 22.0338 23.3558 21.9751 23.4005C21.9431 23.425 21.9077 23.4452 21.8729 23.4647C21.8359 23.4854 21.7979 23.5045 21.7592 23.5202C21.7173 23.5381 21.6748 23.5534 21.6314 23.5654C21.5857 23.5784 21.5383 23.5894 21.491 23.5965C21.4398 23.6047 21.3882 23.6096 21.3371 23.6107C21.2811 23.6127 21.2251 23.6118 21.1696 23.6067C21.1087 23.6014 21.0472 23.5915 20.9872 23.579C20.921 23.5654 20.8557 23.5485 20.7916 23.5279C20.7256 23.5067 20.661 23.4821 20.5973 23.4545C20.5304 23.4244 20.4636 23.394 20.4014 23.3558C20.2699 23.277 20.1356 23.1996 20.0159 23.1038C19.7744 22.9095 19.5367 22.7082 19.3196 22.4878C19.0722 22.2363 18.8442 21.9663 18.6238 21.6915C18.3704 21.3752 18.1301 21.0492 17.8994 20.7167C17.4088 20.0063 16.9175 19.2949 16.4601 18.5623C16.0619 17.9249 15.7094 17.2603 15.3342 16.6093L15.3227 16.5843L15.1503 16.1728L15.0828 15.9387L13.6631 17.3882C13.1366 17.9255 12.6046 18.4572 12.0808 18.9966C12.0166 19.0626 11.9563 19.1321 11.8997 19.2051C11.8508 19.2688 11.8078 19.3367 11.7676 19.4053C11.7474 19.4385 11.7311 19.4746 11.718 19.511C11.7056 19.5447 11.6957 19.5796 11.6908 19.6155C11.6859 19.6482 11.6864 19.6814 11.6914 19.714C11.6957 19.7456 11.7061 19.7761 11.7175 19.8049C11.7284 19.8332 11.7441 19.86 11.7599 19.8854C11.7762 19.91 11.7926 19.9334 11.8121 19.9551C11.8442 19.9899 11.8791 20.0226 11.9132 20.0542C11.928 20.0673 11.9453 20.0781 11.9612 20.0901C12.0112 20.1293 12.0597 20.1717 12.1119 20.2087C12.2755 20.3253 12.4366 20.4472 12.6079 20.5523C13.5179 21.1096 14.4393 21.6479 15.3553 22.1955L19.411 24.5152C19.7282 24.6964 20.0453 24.8787 20.3623 25.0606L22.6017 23.6209C22.9868 23.3733 23.3763 23.1317 23.7538 22.873C24.3021 22.498 24.8378 22.1046 25.3796 21.7203C25.5369 21.6088 25.6777 21.4754 25.8202 21.3453C25.8866 21.2838 25.9481 21.2163 26.0063 21.1471C26.0307 21.1183 26.0515 21.0857 26.0694 21.0519C26.084 21.0231 26.096 20.9919 26.1053 20.9605ZM23.4796 27.676C23.2355 27.5207 22.9912 27.3662 22.748 27.2116L20.8177 28.5212C20.3618 28.8303 19.9342 29.1792 19.492 29.508L19.2772 29.698L19.2282 29.7507L19.3343 29.7443L22.7431 29.4764C23.6151 29.4078 24.4886 29.348 25.3612 29.2827C25.3769 29.2816 25.3933 29.2794 25.409 29.2761C25.4205 29.2739 25.4314 29.2712 25.4416 29.2664C25.4493 29.2631 25.4564 29.2576 25.4628 29.2516C25.4672 29.2473 25.4721 29.2418 25.4737 29.2354C25.477 29.2255 25.4781 29.2157 25.4781 29.2053C25.4787 29.2011 25.4781 29.1961 25.4754 29.1923C25.4325 29.1345 25.39 29.077 25.3415 29.0241C25.2818 28.9599 25.2192 28.8989 25.1528 28.8423C25.0027 28.7155 24.8509 28.5914 24.6922 28.4765C24.4713 28.3165 24.2427 28.1674 24.015 28.0172C23.8386 27.9008 23.6587 27.7891 23.4796 27.676ZM16.1407 16.0057L16.1316 16.0389L16.1332 16.1261L16.1528 16.2463L16.1854 16.371L16.3284 16.7906L16.9926 18.1072C17.139 18.3979 17.319 18.6694 17.4947 18.9422C17.789 19.3994 18.0991 19.8458 18.4014 20.2974C18.6207 20.6251 18.8801 20.9251 19.1298 21.2304C19.2679 21.3997 19.4153 21.5619 19.5644 21.7214C19.6324 21.7937 19.7058 21.8612 19.7809 21.9276C19.8494 21.988 19.9201 22.0462 19.9942 22.1007C20.061 22.1497 20.1301 22.196 20.2018 22.2367C20.265 22.2728 20.3319 22.3026 20.3988 22.331C20.4293 22.3435 20.4614 22.3522 20.4939 22.3604C20.5238 22.3679 20.5543 22.3745 20.586 22.3783C20.6152 22.3821 20.6446 22.3827 20.674 22.3821C20.7017 22.381 20.7301 22.3783 20.7577 22.3734C20.7807 22.369 20.8029 22.3626 20.8247 22.3549C20.8443 22.3478 20.8644 22.3396 20.8823 22.3299C20.8998 22.3201 20.9166 22.3086 20.9319 22.2973C20.9465 22.2858 20.9622 22.2732 20.9737 22.2591C20.9972 22.2308 21.0204 22.2015 21.0374 22.1692C21.0554 22.1367 21.0673 22.1007 21.0782 22.0654C21.089 22.0294 21.0961 21.9918 21.1021 21.9544C21.1076 21.9168 21.1114 21.8787 21.1136 21.8411C21.1184 21.7741 21.1238 21.7072 21.1222 21.6397C21.1092 21.1068 21.0977 20.5735 21.0695 20.0412C21.0335 19.3597 20.977 18.6794 20.9308 17.9984L20.854 17.9641L19.9931 17.5961C19.5578 17.41 19.1216 17.2255 18.686 17.0394C18.0283 16.7591 17.3712 16.4777 16.7141 16.1962L16.4596 16.083L16.2724 16.0112L16.2 15.9905L16.175 15.9867L16.1593 15.9883L16.1484 15.9943L16.1407 16.0057Z" fill="white"/>
<circle cx="20" cy="20" r="19.5" stroke="black" stroke-opacity="0.05"/>
</svg>
