<svg width="40" height="40" viewBox="0 0 40 40" fill="none" xmlns="http://www.w3.org/2000/svg">
<circle cx="20" cy="20" r="20" fill="#0033A1"/>
<g clip-path="url(#clip0_9_399672)">
<path d="M23.1547 22.0076C23.8524 20.5097 23.9896 18.8112 23.5414 17.2206C23.0933 15.6301 22.0895 14.2531 20.7124 13.3397C21.8188 12.2027 23.017 11.0758 24.2815 10C22.8068 10.8779 21.4068 11.8756 20.0954 12.9828C18.6727 12.2409 17.0359 12.0178 15.4665 12.3517C13.8971 12.6857 12.493 13.5559 11.4955 14.8128C10.4981 16.0697 9.96963 17.6348 10.0009 19.239C10.0323 20.8433 10.6214 22.3866 11.6671 23.6036C10.3465 26.464 10.1375 28.7584 11.2796 29.5335C12.5288 30.3646 15.2414 28.8553 16.8883 26.4028C16.8883 26.4028 14.3695 28.6718 12.9877 28.1517C12.1362 27.8305 12.1362 26.5252 12.8348 24.659C14.1586 25.629 15.7846 26.096 17.4214 25.9764C19.0582 25.8568 20.599 25.1584 21.7678 24.0064L22.0126 24.4653C25.0209 24.2205 33.9998 23.9809 33.9998 23.9809C33.9794 23.5577 28.0342 23.9656 23.1547 22.0076ZM10.8258 19.0962C10.8269 18.08 11.0828 17.0802 11.5701 16.1884C12.0575 15.2966 12.7606 14.5412 13.6153 13.9913C14.47 13.4415 15.4489 13.1147 16.4625 13.041C17.4761 12.9672 18.492 13.1488 19.4173 13.5692C16.4349 16.1743 13.946 19.2953 12.0699 22.7827C11.2594 21.725 10.822 20.4287 10.8258 19.0962ZM16.8985 25.1689C15.5349 25.1731 14.2101 24.7147 13.1407 23.8687C14.344 21.1561 16.7914 17.5156 20.1311 13.9567C21.3848 14.7474 22.3063 15.9689 22.7223 17.3916C23.1383 18.8142 23.02 20.3398 22.3899 21.6813C21.3354 21.2091 20.3616 20.5742 19.504 19.7999L21.3344 23.2365C20.7677 23.8463 20.0813 24.3328 19.318 24.6653C18.5547 24.9978 17.731 25.1692 16.8985 25.1689Z" fill="white"/>
</g>
<circle cx="20" cy="20" r="19.5" stroke="black" stroke-opacity="0.05"/>
<defs>
<clipPath id="clip0_9_399672">
<rect width="24" height="19.7629" fill="white" transform="translate(10 10)"/>
</clipPath>
</defs>
</svg>
