<svg width="40" height="40" viewBox="0 0 40 40" fill="none" xmlns="http://www.w3.org/2000/svg">
<circle cx="20" cy="20" r="20" fill="#FF6600"/>
<g clip-path="url(#clip0_9_406051)">
<path d="M24.0994 12.0007C21.9818 12.0294 19.8555 12.656 18.4201 13.2082C13.4665 15.0867 10.5403 18.1 8.84867 21.434C7.0282 24.7394 8.067 27.8987 12.6402 28C15.7123 27.8723 17.7621 27.0784 19.7416 26.0338C19.8488 25.9772 19.7888 25.8083 19.6715 25.8386C17.841 26.3078 13.5848 27.2064 11.6092 26.1051C11.3461 25.9599 11.053 25.7539 10.9264 25.1945C10.7898 24.0143 12.5605 22.7922 13.5807 22.3996L13.3693 20.3551C14.1835 20.6703 15.0524 20.8426 15.9422 20.8426C17.6291 20.8426 19.1107 20.2211 20.2096 19.1885C20.2775 19.3545 20.3321 19.5413 20.3622 19.7519H20.8415C20.8477 19.2276 20.5216 18.8109 20.5216 18.8109C20.0184 18.1055 19.2691 18.1178 19.2691 18.1178C19.2691 18.1178 19.6247 18.292 19.9349 18.7046C17.3937 21.0283 14.2149 19.8852 14.2149 19.8852L15.5228 18.3808L14.97 17.2153C17.992 16.0798 20.5388 15.2064 24.7562 14.4356L23.7072 13.6045L24.1763 13.2842C26.841 14.0391 28.593 14.5945 28.654 16.0102C28.6347 16.2456 28.586 16.5187 28.4788 16.8331C27.8853 18.3764 25.9057 20.9541 25.11 22.0314C24.5845 22.7448 24.0703 23.4441 23.7207 24.1144C23.358 24.784 23.1578 25.4089 23.2064 26.0058C23.1794 29.505 29.2275 26.5787 31.9594 24.6954C32.0474 24.6348 31.9794 24.4951 31.8791 24.5294C24.2068 27.166 26.0155 24.2243 26.0155 24.2243C27.6377 21.863 30.4488 18.3337 30.3191 16.0043C30.2003 12.9615 27.1384 11.9703 24.0994 12.0007Z" fill="white"/>
</g>
<circle cx="20" cy="20" r="19.5" stroke="black" stroke-opacity="0.05"/>
<defs>
<clipPath id="clip0_9_406051">
<rect width="24" height="16" fill="white" transform="translate(8 12)"/>
</clipPath>
</defs>
</svg>
