<svg width="40" height="40" viewBox="0 0 40 40" fill="none" xmlns="http://www.w3.org/2000/svg">
<circle cx="20" cy="20" r="20" fill="#02807D"/>
<g clip-path="url(#clip0_9_408927)">
<path fill-rule="evenodd" clip-rule="evenodd" d="M8.91729 11.1953C9.86022 11.1974 10.801 11.1953 11.744 11.1953C12.081 11.1996 12.4245 11.206 12.753 11.2892C13.2992 11.4278 13.7898 11.8054 14.0266 12.3217C14.2933 12.951 14.2186 13.7318 13.7728 14.2609C13.5296 14.5532 13.1754 14.7153 12.8234 14.8326C13.233 14.9649 13.649 15.1462 13.9328 15.4833C14.7178 16.3558 14.545 17.9409 13.5232 18.5574C13.0602 18.8774 12.4821 18.9436 11.936 18.9457C10.929 18.95 9.92209 18.9564 8.91516 18.9436C8.91729 16.3622 8.91089 13.7788 8.91729 11.1953ZM9.84102 11.9292C9.84316 12.7953 9.83889 13.6614 9.84316 14.5276C10.2634 14.5532 10.6837 14.5254 11.104 14.5318C11.5669 14.5233 12.0533 14.5745 12.4906 14.391C13.3077 14.0817 13.5146 12.8401 12.8682 12.2641C12.5866 11.9974 12.1856 11.9292 11.8122 11.927C11.1552 11.9242 10.4981 11.9249 9.84102 11.9292ZM9.84102 15.2486C9.84102 16.2278 9.84316 17.2049 9.83889 18.1841C10.4938 18.2054 11.1509 18.1905 11.808 18.1926C12.2816 18.1905 12.8064 18.0988 13.1392 17.7276C13.6725 17.1046 13.5445 16.0529 12.9066 15.5494C12.6165 15.3233 12.2346 15.2508 11.8741 15.2529C11.1978 15.2465 10.5194 15.2508 9.84102 15.2486ZM17.5893 13.0812C18.1568 13.0236 18.7584 13.1132 19.2341 13.446C19.8698 13.8598 20.2346 14.583 20.3733 15.3126C20.5376 16.2556 20.401 17.2881 19.8229 18.071C19.1082 19.0673 17.6128 19.3532 16.5632 18.7452C16.017 18.4252 15.6586 17.8577 15.4709 17.2668C15.2042 16.3836 15.2128 15.3958 15.5925 14.5468C15.9296 13.7425 16.7168 13.1494 17.5893 13.0812ZM17.5253 13.7916C17.2138 13.8556 16.9365 14.0412 16.7338 14.2801C16.4053 14.6982 16.288 15.2422 16.2624 15.7628C16.2368 16.3665 16.2794 16.9937 16.5461 17.5462C16.7936 18.0668 17.376 18.3974 17.9498 18.3505C18.417 18.3377 18.8608 18.071 19.1018 17.6721C19.4325 17.1622 19.4858 16.535 19.4752 15.942C19.4666 15.4022 19.3877 14.8326 19.0698 14.3825C18.7328 13.9025 18.0949 13.6614 17.5253 13.7916ZM23.4176 13.1089C24.0256 13.0129 24.689 13.0705 25.2117 13.4204C25.8496 13.8214 26.2314 14.534 26.3744 15.2572C26.5322 16.0828 26.4554 16.9702 26.0608 17.719C25.7557 18.295 25.2266 18.7665 24.593 18.9436C23.8741 19.159 23.0442 19.0908 22.4234 18.6428C21.9029 18.2737 21.5872 17.6806 21.4293 17.0726C21.2032 16.166 21.2608 15.1612 21.7109 14.327C22.0586 13.6913 22.7008 13.2241 23.4176 13.1089ZM23.4816 13.8065C23.1402 13.9068 22.833 14.1308 22.6432 14.4316C22.3637 14.8582 22.289 15.3788 22.2698 15.878C22.2613 16.4604 22.3104 17.0662 22.5813 17.591C22.8458 18.1073 23.4496 18.4145 24.0234 18.3462C24.608 18.3142 25.0922 17.862 25.2928 17.3329C25.5061 16.774 25.5082 16.1638 25.4741 15.5772C25.425 15.0865 25.2864 14.5724 24.9386 14.2076C24.5653 13.8342 23.9957 13.6593 23.4816 13.8065ZM27.2405 13.2049C28.5688 13.2063 29.8972 13.2056 31.2256 13.2028C31.2128 13.3969 31.2768 13.6188 31.1594 13.7916C30.1354 15.2828 29.0922 16.7612 28.081 18.2588C29.1285 18.2694 30.176 18.2588 31.2234 18.2652C31.2277 18.4913 31.2277 18.7196 31.2277 18.9478C29.8197 18.9478 28.4117 18.9585 27.0037 18.9436C27.008 18.7217 26.9909 18.4977 27.0165 18.278C27.089 18.1094 27.2106 17.9686 27.313 17.8193C28.224 16.5158 29.1413 15.2188 30.0522 13.9153C29.1157 13.9089 28.1792 13.9132 27.2448 13.9132C27.2405 13.6764 27.2405 13.4396 27.2405 13.2028V13.2049ZM10.9802 21.3734C11.3386 21.3606 11.6949 21.3628 12.0512 21.3734C12.785 23.6177 13.5082 25.8641 14.2421 28.1084C14.3509 28.4668 14.4832 28.8166 14.5749 29.1793C14.272 29.19 13.9669 29.1921 13.664 29.1836C13.393 28.4262 13.1285 27.6689 12.8768 26.9073C11.9082 26.903 10.9376 26.903 9.96902 26.9073C9.73862 27.6668 9.49969 28.422 9.27782 29.1836C9.00689 29.1878 8.73382 29.19 8.46289 29.1836C9.28849 26.5766 10.1482 23.9782 10.9802 21.3734ZM11.456 22.4102C11.1872 23.2401 10.9205 24.07 10.6538 24.902C10.5194 25.3201 10.3637 25.734 10.2592 26.1628C11.0542 26.1642 11.8492 26.1635 12.6442 26.1606C12.2666 24.9062 11.8634 23.6561 11.456 22.4102ZM15.5114 21.3713C15.7994 21.3628 16.0874 21.3628 16.3754 21.3713C16.3776 23.9761 16.3818 26.5809 16.3733 29.1857C16.0874 29.1878 15.7994 29.1921 15.5114 29.1857C15.5114 26.5809 15.5093 23.9761 15.5114 21.3713ZM18.1738 21.3777C18.4597 21.3606 18.7477 21.3628 19.0336 21.3713C19.0357 23.9761 19.0378 26.5809 19.0336 29.1878C18.7456 29.1878 18.4597 29.1878 18.1738 29.1836C18.1781 26.5809 18.1781 23.9782 18.1738 21.3777ZM21.7877 23.4918C22.7306 23.0609 23.9893 23.1782 24.7018 23.9804C25.2885 24.6161 25.4656 25.5121 25.4656 26.3526C24.049 26.359 22.6325 26.3612 21.216 26.3526C21.1797 26.9884 21.2992 27.7201 21.8218 28.1446C22.4064 28.6566 23.3536 28.727 23.9786 28.247C24.2432 28.0508 24.4096 27.7606 24.5504 27.4684C24.8234 27.5046 25.0965 27.5494 25.3674 27.6092C25.1797 28.1276 24.832 28.5926 24.3584 28.8828C23.6032 29.3649 22.6069 29.4332 21.7898 29.0748C21.233 28.8316 20.8021 28.3558 20.5546 27.8097C20.2346 27.0886 20.1749 26.2609 20.3306 25.4929C20.497 24.6609 21.0048 23.8609 21.7877 23.4918ZM22.0437 24.198C21.5488 24.5265 21.2842 25.1174 21.2437 25.6998C22.336 25.702 23.4282 25.6998 24.5226 25.6998C24.5269 25.2518 24.4032 24.7953 24.1109 24.4476C23.6202 23.8545 22.6666 23.767 22.0437 24.198ZM28.5312 23.4534C29.0197 23.2145 29.6042 23.1825 30.1162 23.3638C30.6816 23.5644 31.1253 24.07 31.249 24.6566C31.3514 25.1174 31.3152 25.5932 31.3237 26.0604C31.3109 27.1036 31.3429 28.1446 31.3237 29.1878C31.0314 29.1878 30.737 29.1878 30.4448 29.1878C30.4448 27.91 30.4448 26.6342 30.4448 25.3564C30.4426 25.0236 30.4106 24.6545 30.1781 24.3942C29.8304 23.9932 29.2138 23.9057 28.7381 24.1105C28.4032 24.2598 28.0981 24.503 27.921 24.8316C27.7034 25.2006 27.6416 25.6337 27.6373 26.0561C27.633 27.0993 27.6416 28.1425 27.6352 29.1857C27.3386 29.1878 27.0421 29.1921 26.7434 29.1814C26.7541 27.2529 26.7477 25.3222 26.7477 23.3937C27.0272 23.3894 27.3066 23.3894 27.5882 23.3937C27.5818 23.7073 27.5776 24.0209 27.601 24.3345C27.8485 23.9825 28.128 23.6348 28.5312 23.4534Z" fill="#FCFEFD"/>
<path fill-rule="evenodd" clip-rule="evenodd" d="M4.79147 5.28226C5.42293 4.51852 6.38933 4.00226 7.39413 4.02146C15.8187 4.02146 24.2475 4.01932 32.672 4.02146C33.3952 4.01932 34.0928 4.30946 34.6603 4.74466C35.3963 5.31212 35.8699 6.18039 36 7.09559V32.8663C35.8933 33.8689 35.3408 34.8119 34.5109 35.3879C34.1056 35.6823 33.6235 35.8529 33.1392 35.9788H6.85653C5.90933 35.7719 5.03253 35.2023 4.52267 34.3681C4.24533 33.9351 4.08747 33.4337 4 32.9303V6.97612C4.15147 6.36599 4.37547 5.76226 4.79147 5.28226ZM8.91947 11.1959C8.91093 13.7793 8.91733 16.3628 8.9152 18.9463C9.92213 18.9569 10.9291 18.9505 11.936 18.9463C12.4821 18.9441 13.0603 18.878 13.5232 18.558C14.5451 17.9415 14.7179 16.3564 13.9328 15.4839C13.6491 15.1468 13.2331 14.9655 12.8235 14.8332C13.1755 14.7159 13.5296 14.5537 13.7728 14.2615C14.2187 13.7324 14.2933 12.9516 14.0267 12.3223C13.7899 11.806 13.2992 11.4284 12.7531 11.2897C12.4245 11.2065 12.0811 11.2001 11.744 11.1959C10.8011 11.1959 9.86027 11.198 8.91947 11.1959ZM17.5893 13.0839C16.7168 13.15 15.9296 13.7431 15.5925 14.5473C15.2128 15.3964 15.2043 16.3841 15.4709 17.2673C15.6587 17.8583 16.0171 18.4257 16.5632 18.7457C17.6128 19.3559 19.1083 19.0679 19.8229 18.0716C20.4011 17.2887 20.5376 16.2561 20.3733 15.3132C20.2347 14.5836 19.8699 13.8604 19.2341 13.4465C18.7584 13.1137 18.1568 13.0241 17.5893 13.0839ZM23.4176 13.1095C22.7008 13.2247 22.0587 13.6919 21.7109 14.3276C21.2608 15.1617 21.2032 16.1665 21.4293 17.0732C21.5872 17.6812 21.9029 18.2743 22.4235 18.6433C23.0443 19.0913 23.8741 19.1596 24.5931 18.9463C25.2267 18.7671 25.7557 18.2956 26.0608 17.7196C26.4555 16.9708 26.5323 16.0833 26.3744 15.2599C26.2315 14.5345 25.8496 13.822 25.2117 13.4209C24.6891 13.0711 24.0256 13.0135 23.4176 13.1095ZM27.2405 13.2055C27.2405 13.4401 27.2405 13.6769 27.2448 13.9137C28.1792 13.9137 29.1157 13.9095 30.0523 13.9159C29.1413 15.2193 28.224 16.5164 27.3131 17.8199C27.2107 17.9692 27.0891 18.11 27.0165 18.2785C26.9909 18.4983 27.008 18.7223 27.0037 18.9441C28.4117 18.9591 29.8197 18.9484 31.2277 18.9484C31.2277 18.7201 31.2277 18.4919 31.2235 18.2657C30.176 18.2593 29.1285 18.27 28.0811 18.2615C29.0923 16.7617 30.1355 15.2833 31.1595 13.7921C31.2768 13.6193 31.2128 13.3975 31.2256 13.2033C29.8972 13.2062 28.5689 13.2069 27.2405 13.2055ZM10.9803 21.3719C10.1483 23.9767 9.28853 26.5751 8.46293 29.182C8.73387 29.1884 9.00693 29.1863 9.27787 29.182C9.49973 28.4204 9.73867 27.6652 9.96907 26.9057C10.9376 26.9015 11.9083 26.9015 12.8768 26.9057C13.1285 27.6673 13.3931 28.4247 13.664 29.182C13.9669 29.1905 14.272 29.1884 14.5749 29.1799C14.4832 28.8151 14.3509 28.4652 14.2421 28.1068C13.5083 25.8625 12.7851 23.6161 12.0512 21.3719C11.6949 21.3612 11.3387 21.3591 10.9803 21.3719ZM15.5115 21.3697C15.5093 23.9745 15.5115 26.5793 15.5115 29.1841C15.7995 29.1905 16.0875 29.1863 16.3733 29.1841C16.3819 26.5793 16.3776 23.9745 16.3755 21.3697C16.0875 21.3612 15.7995 21.3612 15.5115 21.3697ZM18.1739 21.3761C18.1781 23.9767 18.1781 26.5793 18.1739 29.182C18.4597 29.1863 18.7456 29.1863 19.0336 29.1863C19.0379 26.5793 19.0357 23.9745 19.0336 21.3697C18.7477 21.3612 18.4597 21.3591 18.1739 21.3761ZM21.7877 23.4903C21.0048 23.8615 20.4971 24.6593 20.3307 25.4913C20.1749 26.2593 20.2347 27.0871 20.5547 27.8081C20.8021 28.3543 21.2331 28.83 21.7899 29.0732C22.6069 29.4316 23.6032 29.3633 24.3584 28.8812C24.832 28.5911 25.1797 28.126 25.3675 27.6076C25.0965 27.5479 24.8235 27.5031 24.5504 27.4668C24.4096 27.7591 24.2432 28.0492 23.9787 28.2455C23.3536 28.7255 22.4064 28.6551 21.8219 28.1431C21.2992 27.7185 21.1797 26.9868 21.216 26.3511C22.6325 26.3596 24.0491 26.3575 25.4656 26.3511C25.4656 25.5105 25.2885 24.6145 24.7019 23.9788C23.9893 23.1767 22.7307 23.0593 21.7877 23.4903ZM28.5312 23.4519C28.128 23.6332 27.8485 23.9809 27.6011 24.3329C27.5776 24.0193 27.5819 23.7057 27.5883 23.3921C27.3067 23.3879 27.0272 23.3879 26.7477 23.3921C26.7477 25.3207 26.7541 27.2513 26.7435 29.1799C27.0421 29.1905 27.3387 29.1863 27.6352 29.1841C27.6416 28.1409 27.6331 27.0977 27.6373 26.0545C27.6416 25.6321 27.7035 25.1991 27.9211 24.83C28.0981 24.5015 28.4032 24.2583 28.7381 24.1089C29.2139 23.9041 29.8304 23.9916 30.1781 24.3927C30.4107 24.6529 30.4427 25.022 30.4448 25.3548C30.4448 26.6327 30.4448 27.9084 30.4448 29.1863C30.7371 29.1863 31.0315 29.1863 31.3237 29.1863C31.3429 28.1431 31.3109 27.102 31.3237 26.0588C31.3152 25.5916 31.3515 25.1159 31.2491 24.6551C31.1253 24.0684 30.6816 23.5628 30.1163 23.3623C29.6043 23.1809 29.0197 23.2129 28.5312 23.4519ZM9.84107 11.9297C10.4981 11.9255 11.1552 11.9247 11.8123 11.9276C12.1856 11.9297 12.5867 11.998 12.8683 12.2647C13.5147 12.8407 13.3077 14.0823 12.4907 14.3916C12.0533 14.5751 11.5669 14.5239 11.104 14.5324C10.6837 14.526 10.2635 14.5537 9.8432 14.5281C9.83893 13.662 9.8432 12.7959 9.84107 11.9297ZM17.5253 13.7943C18.0949 13.662 18.7328 13.9031 19.0699 14.3831C19.3877 14.8332 19.4667 15.4028 19.4752 15.9425C19.4859 16.5356 19.4325 17.1628 19.1019 17.6727C18.8608 18.0716 18.4171 18.3383 17.9499 18.3511C17.376 18.398 16.7936 18.0673 16.5461 17.5468C16.2795 16.9943 16.2368 16.3671 16.2624 15.7633C16.288 15.2428 16.4053 14.6988 16.7339 14.2807C16.9365 14.0417 17.2139 13.8561 17.5253 13.7943ZM23.4816 13.8071C23.9957 13.6599 24.5653 13.8348 24.9387 14.2081C25.2864 14.5729 25.4251 15.0871 25.4741 15.5777C25.5083 16.1644 25.5061 16.7767 25.2928 17.3335C25.0923 17.8625 24.608 18.3148 24.0235 18.3468C23.4496 18.4151 22.8459 18.1079 22.5813 17.5916C22.3104 17.0668 22.2613 16.4609 22.2699 15.8807C22.2891 15.3815 22.3637 14.8588 22.6432 14.4321C22.8331 14.1313 23.1403 13.9073 23.4816 13.8071ZM9.84107 15.2492C10.5195 15.2513 11.1979 15.2471 11.8741 15.2535C12.2347 15.2513 12.6165 15.3239 12.9067 15.55C13.5445 16.0535 13.6725 17.1052 13.1392 17.7303C12.8064 18.0993 12.2816 18.1911 11.808 18.1932C11.1509 18.1911 10.4939 18.206 9.83893 18.1847C9.8432 17.2055 9.84107 16.2284 9.84107 15.2492ZM11.456 22.4087C11.8613 23.6567 12.2667 24.9047 12.6443 26.1591C11.8492 26.1619 11.0542 26.1626 10.2592 26.1612C10.3637 25.7324 10.5195 25.3207 10.6539 24.9004C10.9205 24.0684 11.1872 23.2385 11.456 22.4087ZM22.0437 24.1964C22.6667 23.7655 23.6203 23.8529 24.1109 24.446C24.4032 24.7937 24.5269 25.2503 24.5205 25.6983C23.4283 25.6983 22.336 25.7004 21.2437 25.6983C21.2843 25.1159 21.5488 24.5249 22.0437 24.1964Z" fill="#02807D"/>
</g>
<circle cx="20" cy="20" r="19.5" stroke="black" stroke-opacity="0.05"/>
<defs>
<clipPath id="clip0_9_408927">
<rect x="4" y="4" width="32" height="31.9787" rx="15.9893" fill="white"/>
</clipPath>
</defs>
</svg>
