<svg width="40" height="40" viewBox="0 0 40 40" fill="none" xmlns="http://www.w3.org/2000/svg">
<circle cx="20" cy="20" r="20" fill="#252969"/>
<g clip-path="url(#clip0_9_408553)">
<path fill-rule="evenodd" clip-rule="evenodd" d="M22.9273 17.6269C23.533 17.5242 24.2057 17.5598 24.8344 17.4885C24.8302 17.7484 24.7128 18.0041 24.652 18.2639L24.7107 18.3016L26.2426 18.2912L26.0729 18.9387L24.4844 18.9639C24.2664 19.6093 24.1009 20.2799 23.9165 20.94C23.9186 21.1098 24.0527 21.2083 24.191 21.2816C24.6751 21.2816 25.2409 21.357 25.6663 21.1894L25.4651 21.927L22.8289 21.948C22.4684 21.8914 22.1017 21.5603 22.0304 21.225L22.0451 20.7493C22.3531 19.7183 22.6298 18.6663 22.9273 17.6269ZM19.2076 18.354C19.2558 18.727 19.5241 19.0141 19.719 19.3327C20.1611 19.0121 20.6997 18.7962 21.0518 18.3624L22.4663 18.3163L22.4684 18.354L20.1234 19.9551L21.2781 21.8495C21.32 21.8809 21.3619 21.9417 21.4143 21.9543L19.0379 21.9794C18.9247 21.642 18.7235 21.3403 18.514 21.0448L17.1141 21.9878L15.8777 22.0088V21.969C16.6279 21.466 17.3824 20.9631 18.1242 20.4329C17.7281 19.7246 17.2881 19.0435 16.8082 18.3708L19.2076 18.354ZM33.8916 18.2744C33.9 18.4211 33.8643 18.5825 33.9314 18.704C34.3359 17.9622 35.2852 18.3897 35.9872 18.2807L35.7106 19.3327C35.281 19.0791 34.5873 19.2363 34.12 19.23C33.9985 19.2845 33.8958 19.4081 33.8727 19.5318L33.3216 21.6546L33.3698 21.904H31.1254L31.3308 21.5938L32.1816 18.4546L32.1543 18.2723L33.8916 18.2744ZM10.7833 17.6792C10.7707 18.2157 10.6659 18.7627 10.3222 19.1965C10.163 19.3515 9.9576 19.4249 9.75433 19.4815C9.96179 19.6156 10.1273 19.8189 10.1986 20.0389C10.2573 20.6068 9.99742 21.0846 9.85073 21.5938C9.65164 21.9417 9.27862 22.0779 8.84064 22.0675L4.01025 22.0696L4.32879 21.4849L5.48976 17.3838L5.48137 17.0317L10.0037 17.0107C10.3579 17.0673 10.7057 17.3523 10.7833 17.6792ZM7.10966 19.0498L8.46972 19.0435C8.71071 18.8779 8.70443 18.5489 8.80921 18.3016C8.84693 18.1801 8.9056 17.9496 8.74215 17.8595L7.55603 17.849L7.10966 19.0498ZM6.52708 21.2041L7.89761 21.2062C8.2371 21.0469 8.05479 20.6047 8.21405 20.3197C8.26016 20.1877 8.30416 19.9509 8.13023 19.8754L6.87076 19.8817C6.75551 20.3197 6.58367 20.7661 6.52708 21.2041ZM15.9909 18.8675C16.1774 19.1022 16.0936 19.471 16.0076 19.7329L15.4565 21.7636L15.5173 22.0151L13.6501 22.0067C13.6144 21.8914 13.5704 21.7699 13.5097 21.663C13.4321 21.795 13.3232 21.9585 13.1576 22.0004C12.4388 22.0214 11.588 22.1094 10.9803 21.9291C10.7078 21.772 10.4962 21.4995 10.4731 21.1999C10.5067 20.6864 10.5863 20.1961 10.9572 19.8126L11.412 19.6009L14.021 19.5422C14.1614 19.4794 14.1488 19.3243 14.1886 19.2111C14.1782 19.1273 14.1363 19.0435 14.0524 19.0058C13.0968 19.0309 12.0637 18.9387 11.106 19.077L11.3868 18.4064L15.3517 18.3938C15.6011 18.4819 15.8651 18.6307 15.9909 18.8675ZM13.8806 20.2568L12.7175 20.261L12.5645 20.3553C12.5289 20.6781 12.1349 21.1286 12.5415 21.3508L13.4824 21.3361L13.6019 21.2418L13.8806 20.2568ZM31.4607 18.7983C31.7247 19.3536 31.3664 19.865 31.2784 20.3805L28.0364 20.4308C28.0092 20.6864 27.7514 20.9421 27.9673 21.1915L28.1098 21.2585L30.8027 21.2376L30.9976 21.1559L30.6916 21.9124L26.7623 21.9229C26.3495 21.8369 26.0477 21.4681 25.9848 21.093C26.1252 20.2799 26.3558 19.5024 26.6051 18.7312C26.7707 18.5007 27.0138 18.3436 27.2841 18.2933L30.8634 18.3121C31.1023 18.375 31.3496 18.5783 31.4607 18.7983ZM28.2502 19.6931L29.5285 19.6722C29.5998 19.5024 29.6375 19.3243 29.6438 19.142C29.6144 19.0582 29.5243 18.9827 29.4426 18.9618L28.575 18.9764C28.3215 19.1252 28.3613 19.4542 28.2502 19.6931Z" fill="white"/>
</g>
<circle cx="20" cy="20" r="19.5" stroke="black" stroke-opacity="0.05"/>
<defs>
<clipPath id="clip0_9_408553">
<rect width="32" height="5.07138" fill="white" transform="translate(4 17)"/>
</clipPath>
</defs>
</svg>
