<svg width="40" height="40" viewBox="0 0 40 40" fill="none" xmlns="http://www.w3.org/2000/svg">
<circle cx="20" cy="20" r="20" fill="#F0F3FA"/>
<path d="M22.2044 17.5342C22.2378 17.5353 22.2711 17.5289 22.3019 17.5153C22.3326 17.5018 22.3601 17.4815 22.3822 17.456C23.3369 16.3573 24.6329 15.7724 26.0978 15.7316C27.9514 15.6794 29.4572 16.4036 30.6151 17.904C32.2702 20.048 32.32 23.2213 31.0596 25.5627C29.2942 28.8338 25.2036 29.6676 22.592 26.8551C22.4373 26.688 22.1796 26.6471 22.0053 26.8036C21.9591 26.8439 21.936 26.8948 21.936 26.9564L21.9342 28.4427C21.9342 28.4757 21.9213 28.5073 21.8983 28.5307C21.8753 28.554 21.8441 28.5671 21.8116 28.5671L19.9858 28.5689C19.8732 28.5689 19.8169 28.512 19.8169 28.3982L19.8222 8.70044C19.8222 8.66696 19.8353 8.63486 19.8587 8.61119C19.882 8.58752 19.9137 8.57422 19.9467 8.57422L21.8187 8.576C21.8498 8.576 21.8796 8.58817 21.9016 8.60984C21.9236 8.63151 21.936 8.6609 21.936 8.69155C21.9348 11.555 21.9348 14.4622 21.936 17.4133C21.936 17.488 22.0255 17.5283 22.2044 17.5342ZM26.4213 17.9076C24.6276 17.5982 22.8622 18.688 22.1084 20.3502C21.9662 20.6631 21.904 20.9932 21.9218 21.3404C21.9479 21.8631 21.949 22.3923 21.9253 22.928C21.9076 23.3084 21.9763 23.6598 22.1316 23.9822C23.4542 26.7413 27.0809 27.3813 28.9476 24.7449C29.9336 23.3523 30.0883 21.8773 29.4116 20.32C28.8907 19.1236 27.7245 18.1316 26.4213 17.9076Z" fill="#0E2A5B"/>
<path d="M18.162 10.0298C18.1655 10.0085 18.178 9.99544 18.1993 9.9907L18.2687 9.97648C18.2811 9.97383 18.294 9.974 18.3064 9.97697C18.3187 9.97994 18.3303 9.98563 18.3402 9.99364C18.35 10.0017 18.358 10.0118 18.3635 10.0233C18.369 10.0347 18.3718 10.0473 18.3718 10.06C18.3718 11.948 18.3765 13.906 18.386 15.9338C18.3884 16.4387 18.3196 16.9223 18.1798 17.3845C16.9087 21.5889 13.4171 25.2618 9.67666 27.4751C8.93473 27.9149 8.14896 28.2692 7.31933 28.5383C7.22807 28.5679 7.16525 28.5371 7.13088 28.4458L7.01177 28.1294C6.98333 28.0547 7.00644 28.0026 7.0811 27.9729C9.40466 27.0556 11.3798 25.3294 12.9229 23.2938C15.7513 19.5605 17.4847 14.6911 18.162 10.0298Z" fill="#A3DDF5"/>
<circle cx="20" cy="20" r="19.5" stroke="black" stroke-opacity="0.05"/>
</svg>
