<svg width="40" height="40" viewBox="0 0 40 40" fill="none" xmlns="http://www.w3.org/2000/svg">
<circle cx="20" cy="20" r="20" fill="#F6F8FA"/>
<g clip-path="url(#clip0_9_391849)">
<path d="M17.5271 10.4175C17.9185 10.4175 18.2358 10.1002 18.2358 9.70874C18.2358 9.31731 17.9185 9 17.5271 9C17.1357 9 16.8184 9.31731 16.8184 9.70874C16.8184 10.1002 17.1357 10.4175 17.5271 10.4175Z" fill="#005180"/>
<path d="M22.4792 10.4175C22.8707 10.4175 23.188 10.1002 23.188 9.70874C23.188 9.31731 22.8707 9 22.4792 9C22.0878 9 21.7705 9.31731 21.7705 9.70874C21.7705 10.1002 22.0878 10.4175 22.4792 10.4175Z" fill="#005180"/>
<path d="M20.0043 11.7899C20.2691 11.7899 20.4838 11.5753 20.4838 11.3105C20.4838 11.0457 20.2691 10.8311 20.0043 10.8311C19.7396 10.8311 19.5249 11.0457 19.5249 11.3105C19.5249 11.5753 19.7396 11.7899 20.0043 11.7899Z" fill="#5B8EAC"/>
<path d="M23.0986 13.0263C23.3634 13.0263 23.578 12.8116 23.578 12.5468C23.578 12.282 23.3634 12.0674 23.0986 12.0674C22.8338 12.0674 22.6191 12.282 22.6191 12.5468C22.6191 12.8116 22.8338 13.0263 23.0986 13.0263Z" fill="#5B8EAC"/>
<path d="M16.9194 13.0614C17.1842 13.0614 17.3988 12.8468 17.3988 12.582C17.3988 12.3172 17.1842 12.1025 16.9194 12.1025C16.6546 12.1025 16.4399 12.3172 16.4399 12.582C16.4399 12.8468 16.6546 13.0614 16.9194 13.0614Z" fill="#5B8EAC"/>
<path d="M14.0247 13.9194C14.4161 13.9194 14.7334 13.6021 14.7334 13.2107C14.7334 12.8193 14.4161 12.502 14.0247 12.502C13.6332 12.502 13.3159 12.8193 13.3159 13.2107C13.3159 13.6021 13.6332 13.9194 14.0247 13.9194Z" fill="#005180"/>
<path d="M25.9812 13.9194C26.3726 13.9194 26.6899 13.6021 26.6899 13.2107C26.6899 12.8193 26.3726 12.502 25.9812 12.502C25.5898 12.502 25.2725 12.8193 25.2725 13.2107C25.2725 13.6021 25.5898 13.9194 25.9812 13.9194Z" fill="#005180"/>
<path d="M20.8265 14.0535C21.0222 14.0535 21.1809 13.8948 21.1809 13.6991C21.1809 13.5034 21.0222 13.3447 20.8265 13.3447C20.6308 13.3447 20.4722 13.5034 20.4722 13.6991C20.4722 13.8948 20.6308 14.0535 20.8265 14.0535Z" fill="#8BCCED"/>
<path d="M19.1796 14.0535C19.3753 14.0535 19.5339 13.8948 19.5339 13.6991C19.5339 13.5034 19.3753 13.3447 19.1796 13.3447C18.9839 13.3447 18.8252 13.5034 18.8252 13.6991C18.8252 13.8948 18.9839 14.0535 19.1796 14.0535Z" fill="#8BCCED"/>
<path d="M18.015 15.2175C18.2107 15.2175 18.3694 15.0589 18.3694 14.8632C18.3694 14.6674 18.2107 14.5088 18.015 14.5088C17.8193 14.5088 17.6606 14.6674 17.6606 14.8632C17.6606 15.0589 17.8193 15.2175 18.015 15.2175Z" fill="#8BCCED"/>
<path d="M21.9906 15.2175C22.1863 15.2175 22.345 15.0589 22.345 14.8632C22.345 14.6674 22.1863 14.5088 21.9906 14.5088C21.7949 14.5088 21.6362 14.6674 21.6362 14.8632C21.6362 15.0589 21.7949 15.2175 21.9906 15.2175Z" fill="#8BCCED"/>
<path d="M24.3759 16.1503C24.6407 16.1503 24.8554 15.9356 24.8554 15.6708C24.8554 15.4061 24.6407 15.1914 24.3759 15.1914C24.1111 15.1914 23.8965 15.4061 23.8965 15.6708C23.8965 15.9356 24.1111 16.1503 24.3759 16.1503Z" fill="#5B8EAC"/>
<path d="M15.6269 16.1503C15.8917 16.1503 16.1063 15.9356 16.1063 15.6708C16.1063 15.4061 15.8917 15.1914 15.6269 15.1914C15.3621 15.1914 15.1475 15.4061 15.1475 15.6708C15.1475 15.9356 15.3621 16.1503 15.6269 16.1503Z" fill="#5B8EAC"/>
<path d="M18.0121 16.865C18.2078 16.865 18.3665 16.7063 18.3665 16.5106C18.3665 16.3149 18.2078 16.1562 18.0121 16.1562C17.8164 16.1562 17.6577 16.3149 17.6577 16.5106C17.6577 16.7063 17.8164 16.865 18.0121 16.865Z" fill="#8BCCED"/>
<path d="M21.9906 16.865C22.1863 16.865 22.345 16.7063 22.345 16.5106C22.345 16.3149 22.1863 16.1562 21.9906 16.1562C21.7949 16.1562 21.6362 16.3149 21.6362 16.5106C21.6362 16.7063 21.7949 16.865 21.9906 16.865Z" fill="#8BCCED"/>
<path d="M19.1766 18.032C19.3723 18.032 19.531 17.8733 19.531 17.6776C19.531 17.4819 19.3723 17.3232 19.1766 17.3232C18.9809 17.3232 18.8223 17.4819 18.8223 17.6776C18.8223 17.8733 18.9809 18.032 19.1766 18.032Z" fill="#8BCCED"/>
<path d="M20.8265 18.0291C21.0222 18.0291 21.1809 17.8704 21.1809 17.6747C21.1809 17.479 21.0222 17.3203 20.8265 17.3203C20.6308 17.3203 20.4722 17.479 20.4722 17.6747C20.4722 17.8704 20.6308 18.0291 20.8265 18.0291Z" fill="#8BCCED"/>
<path d="M14.0247 18.8745C14.4161 18.8745 14.7334 18.5572 14.7334 18.1658C14.7334 17.7743 14.4161 17.457 14.0247 17.457C13.6332 17.457 13.3159 17.7743 13.3159 18.1658C13.3159 18.5572 13.6332 18.8745 14.0247 18.8745Z" fill="#005180"/>
<path d="M25.9812 18.8716C26.3726 18.8716 26.6899 18.5543 26.6899 18.1628C26.6899 17.7714 26.3726 17.4541 25.9812 17.4541C25.5898 17.4541 25.2725 17.7714 25.2725 18.1628C25.2725 18.5543 25.5898 18.8716 25.9812 18.8716Z" fill="#005180"/>
<path d="M23.0864 19.2235C23.3512 19.2235 23.5658 19.0089 23.5658 18.7441C23.5658 18.4793 23.3512 18.2646 23.0864 18.2646C22.8216 18.2646 22.6069 18.4793 22.6069 18.7441C22.6069 19.0089 22.8216 19.2235 23.0864 19.2235Z" fill="#5B8EAC"/>
<path d="M16.9042 19.2558C17.169 19.2558 17.3837 19.0411 17.3837 18.7763C17.3837 18.5115 17.169 18.2969 16.9042 18.2969C16.6395 18.2969 16.4248 18.5115 16.4248 18.7763C16.4248 19.0411 16.6395 19.2558 16.9042 19.2558Z" fill="#5B8EAC"/>
<path d="M20.0043 20.5419C20.2691 20.5419 20.4838 20.3272 20.4838 20.0624C20.4838 19.7977 20.2691 19.583 20.0043 19.583C19.7396 19.583 19.5249 19.7977 19.5249 20.0624C19.5249 20.3272 19.7396 20.5419 20.0043 20.5419Z" fill="#5B8EAC"/>
<path d="M17.5271 22.3765C17.9185 22.3765 18.2358 22.0591 18.2358 21.6677C18.2358 21.2763 17.9185 20.959 17.5271 20.959C17.1357 20.959 16.8184 21.2763 16.8184 21.6677C16.8184 22.0591 17.1357 22.3765 17.5271 22.3765Z" fill="#005180"/>
<path d="M22.4792 22.3765C22.8707 22.3765 23.188 22.0591 23.188 21.6677C23.188 21.2763 22.8707 20.959 22.4792 20.959C22.0878 20.959 21.7705 21.2763 21.7705 21.6677C21.7705 22.0591 22.0878 22.3765 22.4792 22.3765Z" fill="#005180"/>
<path d="M21.2192 26.2565L21.2758 26.2238L21.4545 26.1612L21.6451 26.1166L21.8416 26.0928L22.0352 26.0868L22.2258 26.1017L22.4044 26.1374L22.5712 26.191L22.7201 26.2625L22.8362 26.3369L22.9405 26.4263L23.0298 26.5246L23.1072 26.6347L23.1698 26.7568L23.2234 26.8908L23.265 27.0367L23.2948 27.1946L23.3127 27.3643L23.3186 27.546V29.4667V29.4756H23.3097L22.6248 29.4786H22.6129L22.6099 29.4608V27.5579V27.4596L22.601 27.3673L22.5861 27.2809L22.5623 27.2005L22.5325 27.1291L22.4968 27.0636L22.4551 27.004L22.4044 26.9534L22.3508 26.9117L22.2913 26.8759L22.2258 26.8462L22.1543 26.8223L22.0769 26.8075L21.9965 26.7985H21.9101H21.8178L21.6957 26.8164L21.5885 26.8491L21.4902 26.8998L21.4068 26.9623L21.3622 27.0099L21.3235 27.0636L21.2907 27.1201L21.2639 27.1827L21.2431 27.2512L21.2252 27.3226L21.2163 27.4001V27.4805L21.2043 28.4989V29.4667L21.1984 29.4756H21.1895L20.5016 29.4816H20.4956V29.4727V25.3096H20.5045H21.1954H21.2043V25.3185L21.2073 26.2417L21.2133 26.2536H21.2282H21.2341L21.2192 26.2565Z" fill="#041D2C"/>
<path d="M7.7414 26.3875L7.88434 26.2952L8.03323 26.2207L8.19106 26.1612L8.35187 26.1165L8.48587 26.0927L8.61988 26.0807H8.75686L8.89384 26.0867L9.02785 26.1075L9.16186 26.1373L9.29288 26.179L9.42093 26.2296L9.54005 26.2892L9.65321 26.3577L9.76041 26.4351L9.86166 26.5185L9.94504 26.5989L10.0225 26.6823L10.0939 26.7746L10.1594 26.8699L10.219 26.9682L10.2726 27.0724L10.3173 27.1796L10.356 27.2898L10.3858 27.4L10.4096 27.5131L10.4245 27.6293L10.4334 27.7454V27.8615L10.4245 27.9777L10.4096 28.0908L10.3858 28.204L10.35 28.332L10.3024 28.4601L10.2458 28.5822L10.1773 28.7013L10.1029 28.8115L10.0225 28.9127L9.93313 29.008L9.83784 29.0974L9.74552 29.1718L9.65023 29.2373L9.546 29.2969L9.4388 29.3505L9.32862 29.3951L9.21546 29.4339L9.09932 29.4636L8.98318 29.4845L8.86407 29.4994L8.74495 29.5053H8.62583L8.50672 29.4934L8.39058 29.4755L8.27444 29.4487L8.16128 29.416L8.0511 29.3743L7.94092 29.3237L7.83371 29.2641L7.73247 29.1956L7.6342 29.1212L7.52401 29.0229L7.42574 28.9187L7.33641 28.8085L7.25898 28.6894L7.1756 28.5345L7.11009 28.3708L7.05946 28.1951L7.0267 28.0104L7.01182 27.799V27.4476V25.3809V25.3482L7.00586 25.3273L7.00884 25.3184H7.01777L7.71162 25.3154H7.72353L7.72651 25.3303V26.3815L7.73247 26.3964L7.74736 26.3905L7.7414 26.3875ZM9.71574 27.7901L9.70979 27.6918L9.6949 27.5965L9.67108 27.5012L9.63832 27.4089L9.59663 27.3196L9.546 27.2362L9.48645 27.1587L9.42093 27.0873L9.34946 27.0218L9.27204 26.9622L9.18866 26.9116L9.09932 26.8699L9.007 26.8371L8.91171 26.8133L8.81642 26.7984L8.71815 26.7925L8.61988 26.7984L8.52459 26.8133L8.42929 26.8371L8.33698 26.8699L8.24764 26.9116L8.16426 26.9622L8.08684 27.0218L8.01537 27.0873L7.94985 27.1587L7.89029 27.2362L7.83967 27.3196L7.79798 27.4089L7.76522 27.5012L7.7414 27.5965L7.72651 27.6918L7.72055 27.7901L7.72651 27.8883L7.7414 27.9836L7.76522 28.0789L7.79798 28.1712L7.83967 28.2606L7.89029 28.3439L7.94985 28.4214L8.01537 28.4928L8.08684 28.5584L8.16426 28.6179L8.24764 28.6685L8.33698 28.7102L8.42929 28.743L8.52459 28.7668L8.61988 28.7817L8.71815 28.7877L8.81642 28.7817L8.91171 28.7668L9.007 28.743L9.09932 28.7102L9.18866 28.6685L9.27204 28.6179L9.34946 28.5584L9.42093 28.4928L9.48645 28.4214L9.546 28.3439L9.59663 28.2606L9.63832 28.1712L9.67108 28.0789L9.6949 27.9836L9.70979 27.8883L9.71574 27.7901Z" fill="#041D2C"/>
<path d="M15.9781 25.3096H15.2873C15.2823 25.3096 15.2783 25.3136 15.2783 25.3185V29.4727C15.2783 29.4776 15.2823 29.4816 15.2873 29.4816H15.9781C15.9831 29.4816 15.9871 29.4776 15.9871 29.4727V25.3185C15.9871 25.3136 15.9831 25.3096 15.9781 25.3096Z" fill="#041D2C"/>
<path d="M13.6763 29.2046L13.5095 29.3058L13.3368 29.3862L13.1552 29.4488L12.9705 29.4905L12.7799 29.5113H12.5894L12.4047 29.4905L12.2231 29.4488L12.0801 29.4011L11.9402 29.3386L11.8092 29.2641L11.6811 29.1778L11.5769 29.0944L11.4816 29.0051L11.3923 28.9068L11.3118 28.8026L11.2493 28.7073L11.1927 28.609L11.1421 28.5048L11.0974 28.3976L11.0617 28.2904L11.0319 28.1802L11.0111 28.067L10.9962 27.9539L10.9902 27.8407V27.7275L10.9992 27.6144L11.0141 27.5012L11.0379 27.3881L11.0677 27.2779L11.1064 27.1707L11.151 27.0664L11.2106 26.9533L11.2791 26.8431L11.3565 26.7389L11.4429 26.6406L11.5471 26.5364L11.6603 26.4441L11.7794 26.3607L11.9044 26.2862L11.9968 26.2416L12.0921 26.2029L12.1873 26.1701L12.2856 26.1433L12.3869 26.1225L12.4881 26.1076L12.5894 26.0986H12.6906H12.7919L12.8931 26.1076L12.9944 26.1225L13.0956 26.1433L13.1939 26.1701L13.2921 26.2029L13.3874 26.2416L13.4798 26.2862L13.6197 26.3666L13.7537 26.4619L13.8758 26.5691L13.989 26.6883L14.0813 26.8044L14.1617 26.9265L14.2302 27.0516L14.2868 27.1826L14.3404 27.3404L14.3761 27.5042L14.391 27.6144L14.3999 27.7484L14.4059 28.0879V28.7847V29.4815L14.3999 29.4964L14.385 29.5024H13.7091L13.6971 29.4964L13.6912 29.4845V29.2314L13.6882 29.2135L13.6703 29.2195L13.6763 29.2046ZM13.6942 27.802L13.6882 27.7037L13.6733 27.6084L13.6495 27.5131L13.6167 27.4208L13.575 27.3315L13.5244 27.2481L13.4649 27.1707L13.3994 27.0992L13.3279 27.0337L13.2505 26.9741L13.1671 26.9235L13.0777 26.8818L12.9854 26.8491L12.8901 26.8252L12.7948 26.8104L12.6966 26.8044L12.5983 26.8104L12.503 26.8252L12.4077 26.8491L12.3154 26.8818L12.2261 26.9235L12.1427 26.9741L12.0653 27.0337L11.9938 27.0992L11.9283 27.1707L11.8687 27.2481L11.8181 27.3315L11.7764 27.4208L11.7436 27.5131L11.7198 27.6084L11.7049 27.7037L11.699 27.802L11.7049 27.9003L11.7198 27.9956L11.7436 28.0908L11.7764 28.1832L11.8181 28.2725L11.8687 28.3559L11.9283 28.4333L11.9938 28.5048L12.0653 28.5703L12.1427 28.6298L12.2261 28.6805L12.3154 28.7222L12.4077 28.7549L12.503 28.7787L12.5983 28.7936L12.6966 28.7996L12.7948 28.7936L12.8901 28.7787L12.9854 28.7549L13.0777 28.7222L13.1671 28.6805L13.2505 28.6298L13.3279 28.5703L13.3994 28.5048L13.4649 28.4333L13.5244 28.3559L13.575 28.2725L13.6167 28.1832L13.6495 28.0908L13.6733 27.9956L13.6882 27.9003L13.6942 27.802Z" fill="#041D2C"/>
<path d="M19.7247 28.895L19.6264 29.0022L19.5192 29.1035L19.4031 29.1958L19.278 29.2792L19.15 29.3477L19.019 29.4042L18.8849 29.4489L18.7509 29.4817L18.5336 29.5085L18.4263 29.5144H18.3221L18.2209 29.5055L18.1196 29.4936L18.0214 29.4757L17.9231 29.4519L17.7682 29.3983L17.6193 29.3298L17.4734 29.2434L17.3335 29.1422L17.2531 29.0737L17.1786 29.0022L17.1071 28.9248L17.0416 28.8414L16.9672 28.7342L16.9017 28.624L16.8451 28.5049L16.7974 28.3828L16.7587 28.2578L16.7289 28.1297L16.7111 27.9987L16.7021 27.8676V27.7366L16.7141 27.6056L16.7349 27.4746L16.7647 27.3465L16.8034 27.2214L16.854 27.0993L16.9106 26.9832L16.9791 26.8701L17.0952 26.7122L17.2263 26.5723L17.3632 26.4531L17.5092 26.3519L17.664 26.2655L17.8248 26.197L17.9707 26.1494L18.1196 26.1166L18.2745 26.0958L18.4293 26.0898L18.5842 26.0988L18.7361 26.1226L18.8849 26.1583L19.0309 26.209L19.1291 26.2507L19.2244 26.2983L19.3197 26.3519L19.412 26.4144L19.4984 26.4799L19.5818 26.5514L19.6592 26.6288L19.7336 26.7122L19.7396 26.7271L19.7336 26.742L19.2066 27.1798H19.1946H19.1857L19.1083 27.0934L19.0219 27.0189L18.9564 26.9743L18.8849 26.9326L18.7599 26.876L18.6348 26.8373L18.5097 26.8165L18.3876 26.8105L18.2596 26.8224L18.1315 26.8522L18.0035 26.8998L17.8784 26.9653L17.801 27.0189L17.7295 27.0815L17.661 27.153L17.5985 27.2334L17.5449 27.3167L17.5002 27.4061L17.4645 27.4954L17.4407 27.5847L17.4198 27.7068L17.4139 27.826L17.4198 27.9421L17.4407 28.0553L17.4764 28.1684L17.527 28.2756L17.5925 28.3798L17.6729 28.4811L17.7414 28.5526L17.8189 28.6151L17.9052 28.6717L17.9975 28.7193L18.0928 28.758L18.1911 28.7848L18.2923 28.8027L18.3936 28.8087H18.4889L18.5812 28.7938L18.6705 28.7729L18.7569 28.7461L18.873 28.6925L18.9832 28.624L19.0874 28.5377L19.1857 28.4364H19.1946H19.2036L19.7247 28.8682L19.7336 28.8861L19.7277 28.904L19.7247 28.895Z" fill="#041D2C"/>
<path d="M24.7721 28.1445H24.7631V28.1564L24.8167 28.2725L24.8822 28.3797L24.9626 28.478L25.055 28.5674L25.1592 28.6418L25.2694 28.7043L25.3855 28.749L25.5046 28.7788L25.6118 28.7937H25.716L25.8203 28.7907L25.9215 28.7728L26.0317 28.7401L26.1389 28.6924L26.2431 28.6299L26.3444 28.5554L26.3652 28.5435H26.389L27.2288 28.5406L27.2377 28.5465V28.5584L27.1365 28.7133L27.0323 28.8532L26.9251 28.9783L26.8149 29.0885L26.6988 29.1868L26.5796 29.2701L26.4516 29.3416L26.3206 29.4012L26.1508 29.4548L25.9543 29.4935L25.7607 29.5113H25.5731L25.3885 29.4875L25.2634 29.4607L25.1413 29.422L25.0192 29.3744L24.9001 29.3178L24.7304 29.2165L24.5755 29.0974L24.4326 28.9604L24.3075 28.8086L24.2003 28.6418L24.1139 28.4661L24.0484 28.2815L24.0038 28.0909L23.9948 28.0373L23.9829 27.9182V27.7991V27.677L23.9948 27.5578L24.0157 27.4387L24.0454 27.3226L24.0812 27.2094L24.1258 27.0993L24.1765 26.992L24.236 26.8878L24.3015 26.7896L24.376 26.6943L24.4564 26.6049L24.5428 26.5215L24.6321 26.4471L24.7274 26.3786L24.8435 26.3071L24.9686 26.2446L25.0728 26.2029L25.18 26.1672L25.2902 26.1374L25.4004 26.1165L25.5076 26.1017L25.6148 26.0957H25.722L25.8292 26.1017L25.9364 26.1136L26.0436 26.1344L26.1478 26.1612L26.2521 26.194L26.3533 26.2327L26.4516 26.2774L26.5469 26.328L26.6392 26.3846L26.7256 26.4471L26.8089 26.5156L26.8893 26.59L26.9638 26.6675L27.0412 26.7598L27.1127 26.858L27.1752 26.9593L27.2318 27.0665L27.2765 27.1677L27.3152 27.272L27.345 27.3762L27.3688 27.4834L27.3896 27.6412L27.3956 27.802L27.3866 27.9658L27.3628 28.1326L27.3569 28.1415H27.345L24.7572 28.1475L24.7721 28.1445ZM26.6183 27.4298L26.5856 27.3583L26.5469 27.2898L26.5022 27.2243L26.4546 27.1618L26.398 27.0993L26.3384 27.0427L26.2729 26.992L26.2014 26.9474L26.127 26.9087L26.0496 26.8759L25.9692 26.8491L25.8888 26.8283L25.8054 26.8134L25.722 26.8074H25.6386L25.5552 26.8134L25.4719 26.8283L25.3915 26.8491L25.314 26.8759L25.2396 26.9087L25.1592 26.9533L25.0818 27.0069L25.0103 27.0695L24.9448 27.138L24.8852 27.2094L24.8346 27.2869L24.7929 27.3643L24.7572 27.4447L24.7661 27.4566H26.6035L26.6154 27.4477V27.4328L26.6183 27.4298Z" fill="#041D2C"/>
<path d="M30.5195 26.5811L30.579 26.5007L30.6743 26.4025L30.7875 26.3161L30.9125 26.2446L31.0525 26.1851L31.2044 26.1404L31.3682 26.1106L31.5438 26.0928H31.7285L31.8684 26.0987L32.0024 26.1196L32.1275 26.1494L32.2466 26.191L32.3538 26.2417L32.4521 26.2982L32.5444 26.3638L32.6248 26.4382L32.7142 26.5395L32.7916 26.6556L32.8571 26.7807L32.9107 26.9206L32.9524 27.0725L32.9792 27.2363L32.9971 27.415V27.6085V28.4989V29.4697V29.4786H32.9881L32.2943 29.4816H32.2853L32.2824 29.4697V27.6413L32.2734 27.4179L32.2615 27.3286L32.2437 27.2482L32.2198 27.1737L32.19 27.1082L32.1543 27.0487L32.1096 26.9951L32.0352 26.9296L31.9459 26.876L31.8357 26.8372L31.7136 26.8134L31.5855 26.8045L31.4575 26.8104L31.3324 26.8343L31.2193 26.873L31.124 26.9236L31.0674 26.9683L31.0168 27.0219L30.9721 27.0844L30.9364 27.1529L30.9066 27.2303L30.8857 27.3167L30.8738 27.406L30.8679 27.4954V29.4846L30.853 29.4876H30.1681H30.1561V29.4757L30.1502 27.5371V27.4447L30.1353 27.3554L30.1174 27.272L30.0906 27.1916L30.0579 27.1231L30.0192 27.0576L29.9745 27.001L29.9209 26.9504L29.8732 26.9176L29.8226 26.8879L29.769 26.864L29.7095 26.8462L29.5874 26.8224L29.4623 26.8104H29.3372L29.2211 26.8313L29.1169 26.864L29.0245 26.9087L28.9441 26.9683L28.8786 27.0368L28.8369 27.0963L28.8042 27.1618L28.7744 27.2452L28.7536 27.3256L28.7416 27.406V27.4834L28.7357 29.4757L28.7297 29.4876L28.7178 29.4935H28.0329L28.024 29.4906V29.4816L28.021 27.4924L28.0299 27.3167L28.0538 27.144L28.0925 26.9832L28.149 26.8283L28.2175 26.6884L28.3009 26.5633L28.3992 26.4501L28.5064 26.3548L28.6017 26.2893L28.7059 26.2327L28.8161 26.1881L28.9352 26.1523L29.1466 26.1136L29.3581 26.0987L29.5606 26.1047L29.6588 26.1166L29.7541 26.1345L29.8464 26.1583L29.9358 26.1851L30.0192 26.2178L30.0996 26.2566L30.174 26.2982L30.2455 26.3459L30.311 26.3995L30.3735 26.4591L30.4301 26.5216L30.4837 26.5901L30.4986 26.599L30.5135 26.5901L30.5195 26.5811Z" fill="#041D2C"/>
</g>
<circle cx="20" cy="20" r="19.5" stroke="black" stroke-opacity="0.05"/>
<defs>
<clipPath id="clip0_9_391849">
<rect width="26" height="20.5147" fill="white" transform="translate(7 9)"/>
</clipPath>
</defs>
</svg>
