<svg width="40" height="40" viewBox="0 0 40 40" fill="none" xmlns="http://www.w3.org/2000/svg">
<circle cx="20" cy="20" r="20" fill="#F6F8FA"/>
<g clip-path="url(#clip0_9_401169)">
<path fill-rule="evenodd" clip-rule="evenodd" d="M12.5242 8H27.5409C29.0267 8.53144 30.5312 9.34952 31.2935 10.7997C31.9318 11.8766 32.0016 13.1626 31.9892 14.385C31.9551 18.4847 32.0062 22.5844 31.9659 26.681C31.983 29.0236 30.26 31.0905 28.0708 31.7831H11.9587C11.0771 31.4097 10.2048 30.9464 9.54784 30.2337C8.80568 29.4451 8.40904 28.4209 8 27.4386V12.549C8.42918 11.5264 8.85216 10.4527 9.65475 9.65474C10.4403 8.84906 11.5016 8.41369 12.5242 8ZM19.0843 12.9332C17.6294 13.6057 16.5077 14.8018 15.2155 15.7283C14.2301 16.5356 13.1719 17.2529 12.2221 18.1035C11.5605 18.6257 11.8518 19.7862 12.6621 19.969C13.2633 20.1038 13.742 19.6235 14.1929 19.309C15.7547 18.0524 17.3413 16.8284 18.9061 15.5796C19.3617 15.2325 19.9799 14.6639 20.5531 15.138C22.5689 16.6006 24.4529 18.2445 26.464 19.718C26.9707 20.1673 27.8631 20.0496 28.1343 19.3957C28.5402 18.7403 27.9251 18.1113 27.4355 17.7363C25.6584 16.3527 23.8905 14.9552 22.1165 13.57C21.2798 12.8992 20.1255 12.5087 19.0843 12.9332ZM13.993 21.1094C13.4988 21.3464 13.271 21.96 13.474 22.4666C14.213 24.8372 16.3388 26.7119 18.7884 27.1334C22.07 27.8167 25.6429 25.694 26.5973 22.4852C26.8684 21.8019 26.3897 20.9932 25.6429 20.9575C24.6683 21.0195 24.4994 22.1165 24.0702 22.7858C22.7842 25.1719 19.2997 25.7761 17.2003 24.126C16.2939 23.5249 15.8647 22.5069 15.3813 21.585C15.1613 21.066 14.4842 20.8103 13.993 21.1094Z" fill="#0072F5"/>
</g>
<circle cx="20" cy="20" r="19.5" stroke="black" stroke-opacity="0.05"/>
<defs>
<clipPath id="clip0_9_401169">
<rect width="24" height="23.7831" fill="white" transform="translate(8 8)"/>
</clipPath>
</defs>
</svg>
