<svg width="40" height="40" viewBox="0 0 40 40" fill="none" xmlns="http://www.w3.org/2000/svg">
<circle cx="20" cy="20" r="20" fill="#0F3557"/>
<g clip-path="url(#clip0_9_405892)">
<path d="M4.57129 17.4287H6.30957C7.11957 17.4287 8.25679 17.5187 8.25679 18.7504C8.25679 19.4139 7.83765 19.7964 7.29379 19.9288C7.88522 20.0432 8.42843 20.3672 8.42843 21.1374C8.42843 22.362 7.29507 22.5716 6.46579 22.5716H4.57129V17.4287ZM5.85315 18.0889V19.635H6.49215C6.74736 19.6292 7.135 19.4666 7.135 18.906C7.135 18.3229 6.78336 18.0896 6.56479 18.0896L5.85315 18.0889ZM5.85315 20.3634V21.9287H6.42465C6.79943 21.9229 7.29379 21.7834 7.29379 21.1367C7.29379 20.4906 6.84057 20.3691 6.61236 20.3634H5.85315ZM10.0279 19.1709C10.2484 18.9626 10.4843 18.7903 10.9999 18.7369V19.7224L10.6739 19.7816C10.1956 19.8767 10.0356 19.9539 10.0356 20.4347V22.5716H9.07129V18.7369H10.033V19.1702L10.0279 19.1709ZM14.857 20.6539C14.857 21.5642 14.3774 22.5716 13.0943 22.5716C12.1666 22.5716 11.3213 21.9885 11.3213 20.6539C11.3213 19.545 11.9603 18.6675 13.2177 18.7414C14.5632 18.8314 14.857 19.9982 14.857 20.6539ZM12.4604 19.9404C12.3421 20.1499 12.2952 20.3987 12.2952 20.6475C12.2952 21.2196 12.5479 21.7288 13.0891 21.7288C13.615 21.7288 13.8728 21.2646 13.8728 20.6989C13.8728 20.2971 13.7847 19.986 13.5996 19.7938C13.5283 19.7171 13.4394 19.659 13.3406 19.6245C13.2418 19.59 13.1361 19.5801 13.0326 19.5958C12.7594 19.6125 12.5941 19.7147 12.4604 19.941V19.9404ZM18.7141 20.6539C18.7141 21.5642 18.2346 22.5716 16.9514 22.5716C16.0238 22.5716 15.1784 21.9885 15.1784 20.6539C15.1784 19.545 15.8174 18.6675 17.0749 18.7414C18.4204 18.8314 18.7141 19.9982 18.7141 20.6539ZM16.3176 19.9404C16.1993 20.1499 16.1524 20.3987 16.1524 20.6475C16.1524 21.2196 16.405 21.7288 16.9463 21.7288C17.4721 21.7288 17.7299 21.2646 17.7299 20.6989C17.7299 20.2971 17.6419 19.986 17.4567 19.7938C17.3855 19.7171 17.2966 19.659 17.1978 19.6245C17.0989 19.59 16.9932 19.5801 16.8897 19.5958C16.6165 19.6125 16.4513 19.7147 16.3176 19.941V19.9404ZM19.357 17.4287H20.2686V20.0715L21.2766 18.7144H22.3849L21.3241 20.1249L22.552 22.5716H21.4771L20.6646 20.9349L20.2628 21.3868V22.5716H19.357V17.4287ZM23.2141 17.8003C23.3331 17.6177 23.6056 17.4287 24.0582 17.4287C24.2536 17.4287 24.4491 17.4628 24.6394 17.4917V18.2188H24.4079C24.0428 18.2188 24.0171 18.2252 24.0274 18.7112H24.6754V19.3573H24.0325V22.5716H23.0708V19.3573H22.5565V18.7112H23.0811C23.0811 18.3666 23.0187 18.096 23.2141 17.8003ZM25.1427 17.4287H26.107V18.0716H25.1427V17.4287ZM25.1427 18.7144H26.107V22.5716H25.1427V18.7144ZM30.049 21.5076C29.9359 21.6966 29.8227 21.8792 29.653 22.0509C29.3701 22.3427 28.9433 22.5716 28.4136 22.5716C27.4364 22.5716 26.7524 21.8792 26.7524 20.6835C26.7524 19.8028 27.1433 18.6701 28.4393 18.6701C28.6347 18.6701 29.2004 18.6932 29.6221 19.1966C30.049 19.7057 30.0387 20.2316 30.049 20.643H27.7039C27.6987 21.0949 27.9199 21.7018 28.4393 21.7018C28.969 21.7018 29.149 21.318 29.2673 21.0551L30.049 21.5076ZM29.0513 20.0085C29.0307 19.8542 29.041 19.8028 28.9073 19.6369C28.8462 19.5732 28.7727 19.5226 28.6913 19.4882C28.61 19.4538 28.5225 19.4364 28.4341 19.437C28.3399 19.4378 28.2471 19.4597 28.1625 19.5012C28.078 19.5427 28.0038 19.6027 27.9456 19.6768C27.853 19.7912 27.8112 19.8825 27.7816 20.0085H29.0513ZM31.5713 17.4287H30.607V22.5716H31.5713V17.4287ZM35.4284 17.4287V22.5716H34.5361V22.1312C34.3851 22.2971 34.1292 22.5716 33.6387 22.5716C33.3044 22.5716 32.9605 22.4282 32.6995 22.1537C32.2141 21.6446 32.2141 20.9066 32.2141 20.6726C32.2141 19.2936 32.929 18.7273 33.6027 18.7273C34.0405 18.7273 34.3066 18.9504 34.4841 19.0989V17.4287H35.4284ZM34.4944 20.6494C34.4944 20.4836 34.4944 20.0259 34.2861 19.7456C34.2391 19.6826 34.1029 19.5283 33.9049 19.5283C33.2106 19.5283 33.2106 20.4894 33.2106 20.6494C33.2106 21.1586 33.3359 21.7821 33.8367 21.7821C33.9528 21.7806 34.065 21.7403 34.1556 21.6677C34.4944 21.4106 34.4944 20.8494 34.4944 20.6494Z" fill="white"/>
</g>
<circle cx="20" cy="20" r="19.5" stroke="black" stroke-opacity="0.05"/>
<defs>
<clipPath id="clip0_9_405892">
<rect width="32" height="6" fill="white" transform="translate(4 17)"/>
</clipPath>
</defs>
</svg>
