<svg width="40" height="40" viewBox="0 0 40 40" fill="none" xmlns="http://www.w3.org/2000/svg">
<circle cx="20" cy="20" r="20" fill="#F6F8FA"/>
<g clip-path="url(#clip0_9_405785)">
<path d="M18.7139 18.7147V8.70801C18.3134 9.90886 16.8573 12.668 14.9172 14.7123C13.1532 16.5714 9.71387 18.7147 9.71387 18.7147H18.7139Z" fill="#C8DA30"/>
<path d="M18.7139 21.2861V31.2504C18.3134 30.0496 16.8573 27.284 14.9172 25.2397C13.1532 23.3812 9.71387 21.2861 9.71387 21.2861H18.7139Z" fill="#5AA2D0"/>
<path d="M21.2861 18.7147V8.70801C21.6866 9.90886 23.1427 12.668 25.0828 14.7123C26.8468 16.5714 30.2861 18.7147 30.2861 18.7147H21.2861Z" fill="#A2A5A7"/>
<path d="M21.2861 21.2861V31.2504C21.6866 30.0496 23.1427 27.284 25.0828 25.2397C26.8468 23.3812 30.2861 21.2861 30.2861 21.2861H21.2861Z" fill="#EF6B52"/>
</g>
<circle cx="20" cy="20" r="19.5" stroke="black" stroke-opacity="0.05"/>
<defs>
<clipPath id="clip0_9_405785">
<rect width="22" height="24" fill="white" transform="translate(9 8)"/>
</clipPath>
</defs>
</svg>
