<svg width="40" height="40" viewBox="0 0 40 40" fill="none" xmlns="http://www.w3.org/2000/svg">
<circle cx="20" cy="20" r="20" fill="#161616"/>
<g clip-path="url(#clip0_9_397041)">
<path d="M29.5611 17.0123C29.2922 16.1634 28.9316 15.3668 28.4398 14.6159C26.7611 12.0498 24.3414 10.5284 21.1939 10.0518C20.4922 9.99302 19.7972 9.98649 19.1021 10.0257C18.1578 10.0322 17.3513 10.215 16.6824 10.5676C16.0398 10.9072 15.7119 11.423 15.7119 12.1217C15.7119 13.1533 15.7119 14.2111 15.7119 15.295C16.2234 14.5637 16.8332 13.9956 17.5349 13.5843C17.8562 13.4014 18.2103 13.2643 18.6103 13.1729C18.6431 13.1729 18.6693 13.1729 18.7021 13.186C18.7349 13.2056 18.7742 13.2121 18.807 13.2121C18.7939 13.1794 18.807 13.1533 18.8529 13.1468C19.1742 13.0815 19.5021 13.0489 19.8299 13.0423C20.4988 13.0489 21.1349 13.1272 21.7578 13.2774C21.8627 13.1925 22.0726 13.2056 22.3939 13.3231C22.6758 13.3819 22.9644 13.4341 23.266 13.4863C23.6595 13.5516 24.2955 13.754 25.1742 14.0936C26.4267 14.5768 27.5808 15.3407 28.6234 16.3854C28.689 16.4507 28.8529 16.6401 29.1086 16.947C29.266 17.1363 29.4365 17.3126 29.6267 17.4824C29.6201 17.3126 29.5939 17.1559 29.5545 17.0253L29.5611 17.0123ZM20.1513 12.7616C20.1513 12.7616 20.1513 12.7681 20.1513 12.7746C20.1513 12.7681 20.1513 12.7616 20.1513 12.755C20.1513 12.755 20.1513 12.755 20.1513 12.7616ZM20.0398 12.977C20.0398 12.977 20.0529 12.977 20.0595 12.9705C20.0595 12.9705 20.0463 12.9705 20.0398 12.977ZM20.0726 12.964C20.0726 12.964 20.0857 12.9574 20.0857 12.9509C20.0857 12.9509 20.0726 12.9574 20.0726 12.964ZM20.1054 12.9378C20.1054 12.9378 20.1119 12.9313 20.1185 12.9248C20.1185 12.9248 20.1119 12.9313 20.1054 12.9378ZM20.1513 12.866C20.1513 12.866 20.1513 12.8791 20.1447 12.8856C20.1447 12.8856 20.1447 12.8726 20.1513 12.866ZM20.1316 12.8987C20.1316 12.8987 20.1316 12.9117 20.125 12.9117C20.125 12.9117 20.1316 12.9052 20.1316 12.8987ZM20.1513 12.8464C20.1513 12.8464 20.1513 12.8334 20.1513 12.8268C20.1513 12.8268 20.1513 12.8399 20.1513 12.8464ZM20.1578 12.8138C20.1578 12.8138 20.1578 12.8007 20.1578 12.7942C20.1578 12.7942 20.1578 12.8073 20.1578 12.8138Z" fill="url(#paint0_linear_9_397041)"/>
<path d="M23.7313 18.1683C23.1543 17.0844 22.2756 16.3726 21.1018 16.0266C20.3543 15.8241 19.6133 15.798 18.8789 15.9352C18.8789 15.9352 18.8723 15.9352 18.8658 15.9352C18.833 15.9352 18.8068 15.909 18.8068 15.8764V13.2058C18.7674 13.2058 18.7281 13.1993 18.6953 13.1797C18.669 13.1666 18.6363 13.1601 18.6035 13.1666C18.2035 13.258 17.8428 13.3886 17.5281 13.578C16.8264 13.9828 16.2231 14.5509 15.7051 15.2887C15.6986 16.7513 15.6986 18.227 15.7051 19.7288C15.7051 20.323 15.7379 20.7605 15.8035 21.0413C16.1051 22.3537 17.0166 23.4311 18.2494 23.9796C18.8527 24.2473 19.4756 24.3713 20.1182 24.3452C21.3904 24.2799 22.433 23.7641 23.2395 22.8042C24.3346 21.4983 24.5248 19.6766 23.7248 18.1748L23.7313 18.1683ZM20.0002 21.5114C18.9969 21.4787 18.2822 20.532 18.6756 19.5852C19.0428 18.7167 20.1051 18.4686 20.8789 19.0302C21.9149 19.879 21.3051 21.4591 20.0002 21.5114Z" fill="url(#paint1_linear_9_397041)"/>
<path d="M29.8423 18.201C29.7964 17.9267 29.7242 17.6786 29.6324 17.4696C29.4423 17.2999 29.2718 17.1236 29.1144 16.9342C28.8587 16.6273 28.6947 16.438 28.6291 16.3727C27.58 15.3214 26.4324 14.5575 25.18 14.0808C24.3013 13.7413 23.6652 13.5389 23.2718 13.4736C22.9701 13.4213 22.6816 13.3691 22.3996 13.3103C22.0783 13.1928 21.8685 13.1797 21.7636 13.2646C23.9406 13.898 25.5931 15.3345 26.4324 17.3978C27.2783 19.4807 27.1144 21.5441 25.9537 23.5878C24.6554 25.6512 22.4849 26.9179 20.0324 26.9505C19.8029 26.9505 19.4423 26.9179 19.1406 26.931C19.2587 27.0811 19.4029 27.1987 19.5669 27.2966C20.3472 27.7471 21.1669 28.0475 22.0193 28.1977C23.1406 28.3936 24.2882 28.3609 25.4685 28.0997C25.5537 28.0802 25.6455 28.0475 25.7308 28.0083C25.8291 27.9626 25.9144 27.9496 25.9734 27.9757C27.0685 27.153 27.9669 26.1474 28.6685 24.9525C29.8554 22.8369 30.2488 20.5777 29.8357 18.1814L29.8423 18.201Z" fill="url(#paint2_linear_9_397041)"/>
<path d="M25.7376 28.0282C25.6523 28.0673 25.5671 28.1 25.4753 28.1196C24.2949 28.3808 23.1474 28.4199 22.0261 28.2175C21.1736 28.0673 20.354 27.767 19.5736 27.3164C19.4097 27.2185 19.2654 27.101 19.1474 26.9508C19.0228 26.9116 18.7212 26.8398 18.2425 26.7353C17.4228 26.5525 16.6163 26.1738 15.8097 25.5992C13.6195 23.9668 12.6294 21.4007 13.1212 18.7301C13.213 18.3579 13.3179 17.9923 13.4425 17.6266C13.554 17.2936 13.5999 17.0455 13.5867 16.8757C13.5277 16.2162 13.0097 15.6024 12.3605 15.5306C11.5015 15.4327 10.9245 15.7853 10.6359 16.5884C10.0851 18.0445 9.89494 19.5593 10.0523 21.1264C10.1179 21.7076 10.1835 22.1059 10.2359 22.3213C10.7146 24.2867 11.6917 25.9648 13.1736 27.3556C16.6359 30.5616 21.7376 30.8293 25.6326 28.2632C25.7507 28.1849 25.8687 28.1 25.9802 27.9955C25.9212 27.9694 25.8425 27.9759 25.7376 28.0282Z" fill="url(#paint3_linear_9_397041)"/>
</g>
<circle cx="20" cy="20" r="19.5" stroke="black" stroke-opacity="0.05"/>
<defs>
<linearGradient id="paint0_linear_9_397041" x1="15.7185" y1="13.7345" x2="29.6332" y2="13.7345" gradientUnits="userSpaceOnUse">
<stop offset="0.09" stop-color="#01E8FF"/>
<stop offset="0.29" stop-color="#01B1F9"/>
<stop offset="0.57" stop-color="#0167F3"/>
</linearGradient>
<linearGradient id="paint1_linear_9_397041" x1="15.7117" y1="18.7559" x2="24.2231" y2="18.7559" gradientUnits="userSpaceOnUse">
<stop offset="0.28" stop-color="#0171F4"/>
<stop offset="1" stop-color="#00D8FF"/>
</linearGradient>
<linearGradient id="paint2_linear_9_397041" x1="19.3111" y1="26.1866" x2="27.2976" y2="16.7244" gradientUnits="userSpaceOnUse">
<stop offset="0.16" stop-color="#0072FB"/>
<stop offset="0.45" stop-color="#0099FA"/>
<stop offset="1" stop-color="#01E4F9"/>
</linearGradient>
<linearGradient id="paint3_linear_9_397041" x1="10.59" y1="18.9717" x2="21.0842" y2="29.222" gradientUnits="userSpaceOnUse">
<stop stop-color="#00DEFF"/>
<stop offset="0.3" stop-color="#016DF6"/>
<stop offset="1" stop-color="#01E8FF"/>
</linearGradient>
<clipPath id="clip0_9_397041">
<rect width="20" height="20" fill="white" transform="translate(10 10)"/>
</clipPath>
</defs>
</svg>
