<svg width="40" height="40" viewBox="0 0 40 40" fill="none" xmlns="http://www.w3.org/2000/svg">
<circle cx="20" cy="20" r="20" fill="white"/>
<circle cx="20" cy="20" r="19.5" stroke="black" stroke-opacity="0.05"/>
<circle cx="20" cy="20" r="20" fill="white"/>
<circle cx="20" cy="20" r="19.5" stroke="black" stroke-opacity="0.05"/>
<circle cx="20" cy="20" r="20" fill="#43B149"/>
<circle cx="20" cy="20" r="19.5" stroke="black" stroke-opacity="0.05"/>
<g clip-path="url(#clip0_9_336705)">
<path d="M27.8264 21.1336C27.8325 21.0929 27.8366 21.0519 27.8387 21.0107C27.8419 20.9551 27.8419 20.8994 27.8387 20.8438C27.5019 20.926 27.1597 20.9821 26.8149 21.0116C26.7594 21.0116 26.7091 21.0199 26.6615 21.0199C26.3555 21.0199 26.2206 20.8924 26.2762 20.5503C26.2911 20.4586 26.322 20.2807 26.359 20.0605V20.0477H27.3123L27.4199 19.414H26.4657V19.4011C26.5345 18.993 26.5936 18.638 26.5936 18.6371V18.6243H27.8643L27.971 17.9896H25.9896L25.5346 20.675C25.397 21.4904 25.9199 21.6325 26.4084 21.6335C26.4631 21.6335 26.5169 21.6335 26.5689 21.6335C26.8432 21.6213 27.1161 21.5875 27.3855 21.5326C27.687 21.461 27.7911 21.3345 27.8264 21.1336Z" fill="white"/>
<path d="M22.0805 21.0868C21.7508 21.0868 21.5806 20.9419 21.6476 20.5448C21.6776 20.3678 21.6961 20.2577 21.7075 20.1917C21.719 20.1256 21.7225 20.1 21.7225 20.1C21.7314 20.0486 21.734 20.0257 21.734 20.0257V20.0119H22.6749C23.3071 20.0119 23.48 19.645 23.5364 19.325L23.763 17.9868H21.3954L21.2878 18.6233H22.9341L22.8266 19.2589C22.8259 19.2823 22.8205 19.3052 22.8108 19.3262C22.801 19.3472 22.7871 19.3659 22.77 19.3809C22.7529 19.396 22.7329 19.4071 22.7113 19.4136C22.6898 19.4201 22.6671 19.4217 22.6449 19.4185H21.1203L20.8972 20.7355C20.7649 21.5151 21.2896 21.7114 21.8178 21.7123H21.8751C22.4112 21.7078 22.9458 21.6519 23.472 21.5454C23.6107 21.5254 23.7368 21.4513 23.8248 21.3381L23.8468 21.3436L23.711 22.1452C23.6563 22.4827 23.7419 22.6542 24.0532 22.6561H24.3477L25.1651 17.8346H24.4411C24.4147 17.9942 24.1378 19.6258 23.9315 20.8419V20.852H23.9218C23.3335 20.9954 22.7323 21.0741 22.1282 21.0868H22.0805Z" fill="white"/>
<path d="M27.6572 20.0413H28.2286L27.8759 22.1425C27.8212 22.48 27.9068 22.6515 28.2181 22.6534H28.4694L29.2868 17.8319H28.6061C28.5893 17.9319 28.4747 18.6087 28.3415 19.3993V19.4122H27.7692L27.6572 20.0413Z" fill="white"/>
<path d="M29.2762 22.6534H29.5699L30.3873 17.8319H29.6633C29.6228 18.0777 28.9888 21.8123 28.9332 22.1425C28.8777 22.4727 28.9641 22.6515 29.2762 22.6534Z" fill="white"/>
<path d="M31.8899 20.2852C32.7717 20.2852 33.285 19.8046 33.4216 19.0012C33.5583 18.1978 33.2109 17.7172 32.3247 17.7172C31.4543 17.7172 30.9411 18.1978 30.8027 19.0012C30.6642 19.8046 31.0161 20.2843 31.8899 20.2852ZM32.218 18.3472C32.6527 18.3472 32.8158 18.6004 32.7471 19.0021C32.6783 19.4038 32.4296 19.6505 31.9958 19.6514C31.5778 19.6514 31.4138 19.4029 31.4808 19.0021C31.5478 18.6013 31.8 18.3482 32.218 18.3472Z" fill="white"/>
<path d="M31.8484 22.1525L31.8669 22.0443H33.5732C34.172 22.0443 34.3316 21.7985 34.3968 21.4317L34.5441 20.5631H31.4049L31.3043 21.162H33.7302V21.1749L33.7081 21.3088C33.6932 21.3922 33.6641 21.4729 33.5415 21.4738H31.2488L31.1562 22.0186C31.0292 22.778 31.389 22.9981 32.0257 23.0009H33.7769C34.1005 23.0009 34.2857 22.878 34.343 22.5542L34.3686 22.4011H32.1623C31.9269 22.4002 31.8211 22.3167 31.8484 22.1525Z" fill="white"/>
<path d="M34.2955 20.2532H34.5891L35 17.8319H34.2787L33.9542 19.7433C33.8969 20.078 33.9842 20.2514 34.2955 20.2532Z" fill="white"/>
<path fill-rule="evenodd" clip-rule="evenodd" d="M9.90899 17.3053C9.63034 17.1219 9.29613 17.0439 8.73178 17.0439H7.33147C6.35001 17.0439 5.87119 17.5759 5.68954 18.5325C5.41353 19.988 5.05728 21.8415 5.01936 22.0433C4.93118 22.5239 5.17015 22.6853 5.61194 22.6853H7.50254C8.34378 22.6853 8.842 22.5523 9.21765 22.3093C9.89929 21.914 10.036 21.1069 10.036 21.1069C10.2582 19.9531 9.16739 19.7825 9.16739 19.7825C9.45804 19.704 9.72076 19.54 9.92407 19.3102C10.1274 19.0803 10.2627 18.7944 10.3137 18.4866C10.3137 18.4866 10.483 17.674 9.90899 17.3053ZM8.51044 20.8749C8.48046 21.0647 8.33849 21.3059 7.85702 21.3059H6.77504L6.94611 20.4163H7.94256C8.17712 20.4163 8.58099 20.42 8.51044 20.8749ZM8.69562 18.7819C8.65241 19.1011 8.42579 19.1956 7.93198 19.1956H7.17627C7.17627 19.1956 7.22565 18.892 7.25739 18.7242C7.26587 18.6332 7.30871 18.5495 7.3765 18.4914C7.44429 18.4332 7.53148 18.4055 7.61893 18.4142H8.29087C8.35348 18.4142 8.74765 18.3976 8.69562 18.7819ZM14.5799 19.2699H13.7863C13.1179 19.2699 12.983 19.7459 12.9221 20.0687C12.8992 20.1934 12.8339 20.5007 12.8339 20.5007H13.8471C13.6884 21.2234 13.2043 21.3509 12.8824 21.3509C12.6488 21.3509 12.0174 21.4316 12.0447 20.5594C12.05 20.3879 12.147 19.6422 12.3604 19.2176C12.6373 18.6673 13.0041 18.4178 13.7643 18.3848C14.033 18.3759 14.302 18.3866 14.5693 18.4169C14.6984 18.4381 14.8307 18.4209 14.9508 18.3674C15.0709 18.3138 15.174 18.2261 15.2483 18.1142C15.3922 17.8707 15.5063 17.6095 15.5878 17.3365C15.4266 17.2627 15.2604 17.2014 15.0905 17.1531C14.5984 17.0063 13.9195 17.0045 13.9195 17.0045C12.4354 16.9761 11.6021 17.8079 11.6021 17.8079C10.789 18.5416 10.5915 19.7715 10.5915 19.7715C10.155 21.5682 11.0527 22.2478 11.0527 22.2478C11.6603 22.7981 12.7131 22.7404 12.7131 22.7404C13.9159 22.7404 14.5649 22.0672 14.5649 22.0672C15.2325 21.4132 15.3586 20.5236 15.3974 20.2897C15.5023 19.6716 15.2536 19.2699 14.5799 19.2699ZM18.705 17.0366C17.2703 17.0366 16.3753 17.6034 16.0596 19.2689C16.0596 19.2689 15.5146 22.1185 15.512 22.1369C15.49 22.3276 15.5217 22.4579 15.5905 22.5423C15.6013 22.5546 15.6128 22.5662 15.6249 22.5771C15.7284 22.6555 15.8552 22.6932 15.9829 22.6835H16.9802L17.3479 20.8171L17.362 20.7428H18.5904C19.2077 20.7428 19.6962 20.5007 19.8426 19.9082C19.8885 19.7203 19.918 19.5284 19.9307 19.335C19.9307 19.335 18.9934 19.2332 18.3505 19.301C17.9758 19.3405 17.7148 19.4184 17.5569 19.6862L17.6389 19.2699C17.7897 18.5967 18.2456 18.4059 18.7377 18.4059H19.5595C20.0524 18.4059 20.3628 18.2225 20.4545 17.7639C20.5286 17.3897 20.5886 17.0302 20.5886 17.0302L18.705 17.0366Z" fill="white"/>
</g>
<defs>
<clipPath id="clip0_9_336705">
<rect width="30" height="6" fill="white" transform="translate(5 17)"/>
</clipPath>
</defs>
</svg>
