<svg width="40" height="41" viewBox="0 0 40 41" fill="none" xmlns="http://www.w3.org/2000/svg">
<circle cx="20" cy="20.4258" r="20" fill="#F6F8FA"/>
<g clip-path="url(#clip0_9_387003)">
<path d="M18.7915 26.6117L17.1587 22.0345C17.2487 21.0574 17.4673 18.9488 17.6408 18.2674C17.8658 17.4124 19.5694 14.7317 20.2251 14.6352C20.7587 14.5645 20.9644 14.7959 21.003 14.9181L22.8737 19.2059L20.8487 25.0624C20.6237 25.6024 20.0773 26.7209 19.6723 26.8431C19.2673 26.9717 18.9201 26.7402 18.7915 26.6052V26.6117Z" fill="url(#paint0_linear_9_387003)"/>
<path d="M13.655 28.6048H7.14282C10.5178 25.1976 10.5693 21.4305 11.8807 17.9848C12.9414 15.2012 13.6807 14.4876 13.9571 14.4619H20.2057C20.7843 14.4619 21.0092 14.8412 21.0478 15.0276C19.8457 14.0633 18.7657 16.8662 18.38 18.3898C17.5016 21.021 16.5865 23.6398 15.635 26.2455C15.2112 27.2032 14.5247 28.0212 13.655 28.6048Z" fill="url(#paint1_linear_9_387003)"/>
<path d="M15.6736 15.1367H13.9121C13.0507 15.9724 12.3629 17.9267 12.125 18.801H13.4236C13.6807 18.3124 14.2271 17.0396 14.465 16.461H14.6771L15.6736 15.1367Z" fill="#EEEDF2"/>
<path fill-rule="evenodd" clip-rule="evenodd" d="M12.2856 23.4619V18.9619H14.3685C15.0885 18.9619 15.6735 19.6176 15.6735 20.4276C15.6735 21.0705 15.3006 21.6233 14.7799 21.8162L15.6414 23.2048V23.4619H14.5549L13.7321 21.8933H13.1728V23.4619H12.2856ZM13.1856 19.9262H14.0856C14.3685 19.9262 14.5999 20.1833 14.5999 20.4919C14.5999 20.8133 14.3685 21.0641 14.0856 21.0641H13.1856V19.9262Z" fill="url(#paint2_linear_9_387003)"/>
<path d="M18.4765 17.509C17.7629 19.6433 16.2136 24.2397 15.7379 25.609C15.3963 26.5914 14.8729 27.5008 14.1951 28.2897C16.2201 27.2161 17.8851 20.1704 18.9394 17.0654C19.7879 14.5775 20.6622 14.6868 21.0415 15.0211C19.8586 13.7675 18.8686 16.1397 18.4765 17.509Z" fill="black"/>
<path d="M19.6335 27.3196C19.1835 27.3196 18.8556 26.8246 18.7463 26.5739C19.6463 27.731 20.6235 26.156 20.9963 25.2239C21.8899 22.5368 23.7413 16.9439 24.0178 16.076C24.2878 15.2018 25.5413 13.781 26.1328 13.1768H32.8571C32.3428 13.7103 31.1856 14.9896 30.6263 15.7932C29.9321 16.796 27.7592 23.7775 27.1871 25.4103C26.7371 26.7089 26.0685 27.2232 25.7921 27.3196H19.6335Z" fill="url(#paint3_linear_9_387003)"/>
<path d="M20.2057 26.1625C19.6207 27.1525 18.9714 26.7668 18.7207 26.4453C18.7914 26.6189 19.0293 26.966 19.3764 26.966C20.2314 26.9982 20.9578 25.571 21.2214 24.8575C22.07 22.3503 23.8378 17.1432 24.1143 16.3589C24.4036 15.5746 25.6057 13.9096 26.1714 13.1768C25.6186 13.781 24.4357 15.0925 24.1143 15.491C23.8057 15.8832 22.9764 18.5832 22.5971 19.8882C22.0443 21.5596 20.7907 25.166 20.2057 26.1625Z" fill="black"/>
<path d="M25.8372 26.6762H24.2622C24.6479 26.3419 25.7215 24.5612 26.2101 23.7191L27.3865 23.4619L26.7051 25.4483C26.5241 25.9244 26.2255 26.3468 25.8372 26.6762Z" fill="#F2F2F2"/>
<path fill-rule="evenodd" clip-rule="evenodd" d="M23.2144 23.4619H24.0886L24.4486 22.4205H25.8951L26.1844 23.3848H27.0715L25.5736 18.9619H24.8215L23.2144 23.4619ZM25.6186 21.5333L25.2201 20.2155L24.7636 21.5333H25.6186Z" fill="url(#paint4_linear_9_387003)"/>
</g>
<circle cx="20" cy="20.4258" r="19.5" stroke="black" stroke-opacity="0.05"/>
<defs>
<linearGradient id="paint0_linear_9_387003" x1="17.7373" y1="21.9574" x2="22.3273" y2="21.9574" gradientUnits="userSpaceOnUse">
<stop stop-color="#0293CA"/>
<stop offset="0.5" stop-color="#A2E4FE"/>
<stop offset="1" stop-color="#0578A3"/>
</linearGradient>
<linearGradient id="paint1_linear_9_387003" x1="14.0985" y1="14.4619" x2="14.0985" y2="28.6048" gradientUnits="userSpaceOnUse">
<stop stop-color="#4E5164"/>
<stop offset="0.28" stop-color="#FFFEFD"/>
<stop offset="0.72" stop-color="#CBCACF"/>
<stop offset="1" stop-color="#6A677A"/>
</linearGradient>
<linearGradient id="paint2_linear_9_387003" x1="13.9828" y1="18.9619" x2="13.9828" y2="23.4619" gradientUnits="userSpaceOnUse">
<stop stop-color="#681312"/>
<stop offset="0.35" stop-color="#FD0506"/>
<stop offset="0.57" stop-color="#FC0A06"/>
<stop offset="1" stop-color="#780202"/>
</linearGradient>
<linearGradient id="paint3_linear_9_387003" x1="25.7985" y1="13.1768" x2="25.7985" y2="27.3196" gradientUnits="userSpaceOnUse">
<stop stop-color="#47495E"/>
<stop offset="0.16" stop-color="#A3A1AC"/>
<stop offset="0.75" stop-color="#F4F3F8"/>
<stop offset="1" stop-color="#686D80"/>
</linearGradient>
<linearGradient id="paint4_linear_9_387003" x1="25.1429" y1="18.9619" x2="25.1429" y2="23.4619" gradientUnits="userSpaceOnUse">
<stop stop-color="#641F1A"/>
<stop offset="0.4" stop-color="#FC0704"/>
<stop offset="0.63" stop-color="#E70004"/>
<stop offset="1" stop-color="#601510"/>
</linearGradient>
<clipPath id="clip0_9_387003">
<rect width="26" height="16" fill="white" transform="translate(7 12.8906)"/>
</clipPath>
</defs>
</svg>
