<svg width="40" height="40" viewBox="0 0 40 40" fill="none" xmlns="http://www.w3.org/2000/svg">
<circle cx="20" cy="20" r="20" fill="#2830E1"/>
<g clip-path="url(#clip0_9_386360)">
<path d="M16.4806 24.5762H17.8197V27.5993H16.596C16.596 27.5993 15.7158 27.5603 15.4474 26.5661C15.2944 26.1462 15.4474 25.6094 15.5253 25.4174C15.6018 25.1894 15.8687 24.7291 16.4806 24.5762Z" fill="white"/>
<path fill-rule="evenodd" clip-rule="evenodd" d="M21.0722 12.5584C21.2237 11.2958 22.7937 9.30592 24.0173 9.57287C25.241 9.84127 26.3896 11.4863 26.1602 12.9033C25.9293 14.3189 24.8211 16.1934 23.0621 15.9654C21.3001 15.7345 20.9192 14.127 21.0722 12.5584ZM17.3997 15.7345C16.088 15.7345 15.0274 14.2294 15.0274 12.368C15.0274 10.5051 16.088 9 17.3997 9C18.7114 9 19.772 10.5051 19.772 12.368C19.772 14.2294 18.7114 15.7345 17.3997 15.7345ZM10.0534 16.9986C10.0534 16.9986 10.3218 14.2035 12.2352 14.0519C13.7648 13.899 14.8745 15.5815 14.9899 16.5382C15.0664 17.1501 15.3709 19.9841 13 20.4805C10.6652 20.9784 9.785 18.2597 10.0534 16.9986ZM27.6898 21.974C25.0895 22.0115 24.974 20.2121 24.974 18.912C24.974 17.5339 25.241 15.6205 27.3449 15.6205C29.4113 15.6205 29.9856 17.6479 29.9856 18.3377C29.9856 18.9885 30.2525 21.8975 27.6898 21.974ZM28.1111 28.9769C26.8095 32 22.0664 30.43 22.0664 30.43C22.0664 30.43 20.3074 29.8571 18.2799 30.316C16.2511 30.7374 14.4906 30.5844 14.4906 30.5844C14.4906 30.5844 12.1198 30.6219 11.4315 27.6364C10.7807 24.6133 13.8023 22.9683 14.0318 22.6999C14.2626 22.3939 15.8687 21.3218 16.8644 19.6392C17.8571 17.9163 20.9192 16.5772 23.0621 19.9062C24.6292 22.1645 27.3449 24.2684 27.3449 24.2684C27.3449 24.2684 29.3723 25.8384 28.1111 28.9769ZM19.2727 28.824V21.3607L17.8961 21.3218V23.3506H16.2511C16.2511 23.3506 14.6061 23.4646 14.0318 25.3405C13.8023 26.6032 14.1862 27.3304 14.2626 27.4834C14.3001 27.6364 14.8355 28.5556 16.1746 28.824H19.2727ZM24.9351 28.785V23.5426H23.4055V27.4834H21.9509C21.9509 27.4834 21.4921 27.4069 21.4156 27.0245V23.5036L19.9625 23.5426V27.4459C19.9625 27.4459 20.039 28.4401 21.4156 28.785H24.9351Z" fill="white"/>
</g>
<circle cx="20" cy="20" r="19.5" stroke="black" stroke-opacity="0.05"/>
<defs>
<clipPath id="clip0_9_386360">
<rect width="20" height="21.847" fill="white" transform="translate(10 9)"/>
</clipPath>
</defs>
</svg>
