<svg width="40" height="40" viewBox="0 0 40 40" fill="none" xmlns="http://www.w3.org/2000/svg">
<circle cx="20" cy="20" r="20" fill="#059BD8"/>
<g clip-path="url(#clip0_9_391625)">
<path d="M14.3885 22.8986L14.3367 22.7707L14.2607 22.6533L14.1605 22.5428L14.0362 22.4391L13.9671 22.3873L13.7737 22.2595L13.5733 22.1455L13.3626 22.0419L13.145 21.9486L12.5854 21.7552L11.9809 21.5929L11.3315 21.4616L10.6338 21.3649L10.2711 21.3441L9.75986 21.358L9.36953 21.3718L9.34535 21.3649L9.33153 21.3441L9.25899 21.0713L9.20718 20.788L9.15537 20.3804L9.11737 19.9383L9.08974 19.4374L9.06556 18.7431L9.05519 18.377L9.03102 16.8571L9.04483 14.7431L9.05174 14.0661V14.0315L9.03447 14.0108L9.01029 14.0039L8.97575 14.0108L7.04829 14.7431L7.00684 14.7777V14.8295L7.24172 16.0212L7.46279 17.2267L7.67005 18.446L7.86003 19.6758L8.02238 20.8986L8.15019 22.0937L8.25727 23.2854L8.34362 24.4737L8.41271 25.6585L8.43343 25.693L8.45761 25.6999L9.19336 25.655L9.86694 25.5929L10.4922 25.51L11.0828 25.4063L11.6321 25.2785L12.1467 25.13L12.6234 24.9607L13.0656 24.7673L13.3108 24.6395L13.5388 24.4944L13.7426 24.3424L13.9222 24.1835L14.0776 24.0143L14.2055 23.8416L14.3056 23.6585L14.3782 23.4754L14.4162 23.3234L14.43 23.1783L14.4231 23.0402L14.392 22.9089L14.3885 22.8986ZM12.1744 23.3649L12.1605 23.3856L10.6165 24.5462L10.5992 24.5566H10.582V24.56L10.5405 24.5497L10.5198 24.5151L10.2573 22.6671L10.2642 22.6257L10.3056 22.6084H10.3885L10.4749 22.6326L11.0932 22.864L11.9153 23.2129L12.1467 23.3131L12.164 23.3234L12.1744 23.3407V23.3649Z" fill="white"/>
<path d="M27.5183 22.8639L27.463 22.7534L27.3905 22.6463L27.2972 22.5392L27.1867 22.4391L27.0554 22.3423L26.7204 22.1489L26.4682 22.028L26.1988 21.914L25.9224 21.8139L25.6288 21.7206L25.0071 21.5617L24.3093 21.4304L23.9604 21.3855L23.6288 21.3579L23.2903 21.3475H22.938L22.5684 21.3717H22.5235L22.4889 21.3544L22.4648 21.3268L22.4509 21.2854L22.3542 20.7638L22.2851 20.2111L22.2368 19.6031L22.2091 18.8985L22.1712 16.7983V14.7569L22.185 14.4425L22.1953 14.0418L22.185 14.0107H22.1539L20.1953 14.7499L20.1539 14.7879L20.147 14.8432L20.3853 16.0315L20.6064 17.2232L20.8102 18.4183L20.9967 19.617L21.1763 20.9572L21.3283 22.3769L21.4561 23.9106L21.5667 25.648L21.5874 25.693L21.6357 25.7102L22.2748 25.6722L22.8551 25.6204L23.4043 25.5513L23.9259 25.465L24.4233 25.3613L24.9034 25.2404L25.3663 25.1023L25.8119 24.9434L26.1746 24.7845L26.5235 24.5945L26.8275 24.3873L27.0865 24.1662L27.2903 23.9382L27.3732 23.8242L27.4423 23.7033L27.4976 23.5859L27.539 23.465L27.5667 23.3441L27.5805 23.2197V23.0885L27.5667 22.9814L27.5321 22.8639H27.5183ZM25.3249 23.3648H25.3214L23.7428 24.5531L23.6979 24.56L23.6634 24.5289V24.5151L23.4078 22.6774V22.6429L23.4181 22.6187L23.4389 22.6049L23.4699 22.598L23.5494 22.6049L23.6427 22.629L24.0641 22.781L24.4855 22.9468L24.9034 23.1265L25.3145 23.3199L25.3283 23.3372V23.3579L25.3249 23.3648Z" fill="white"/>
<path d="M17.1832 15.4608L17.1763 15.4228L17.1555 15.3917L17.1245 15.3676L17.0899 15.3572L16.8896 15.3365L16.6685 15.333L16.4163 15.3503L16.0709 15.3883L15.836 15.4125L15.7946 15.4366L15.7808 15.485L15.8257 15.751L15.988 16.6767L16.1469 17.6439L16.2954 18.6594L16.4405 19.7164L16.5787 20.8563L16.7065 22.0031L16.8205 23.1499L16.9241 24.3002L16.9448 24.3451L16.9863 24.3693L17.235 24.4038H17.5182L17.8015 24.3658L17.8291 24.352L17.836 24.3209L17.273 16.8667L17.1832 15.4608Z" fill="white"/>
<path d="M30.2956 15.3818L30.2403 15.3576L30.0261 15.3369H29.7947L29.5356 15.3542L29.1799 15.3922L28.9761 15.4164L28.9381 15.4371L28.9312 15.4785L29.1211 16.5839L29.2973 17.6858L29.4596 18.7911L29.6116 19.893L29.7429 20.9984L29.8638 22.1003L29.9674 23.2022L30.0607 24.3076L30.0745 24.3456L30.1125 24.3663L30.3128 24.3939L30.5132 24.4043L30.7204 24.3939L30.9312 24.3663L30.9622 24.349L30.9726 24.3145L30.3163 15.4371L30.2956 15.3818Z" fill="white"/>
<path d="M14.9758 19.3195L15.0069 19.3298L15.5319 19.3402L15.563 19.3298L15.5838 19.3057L15.5872 19.2815L15.4456 17.544L15.4214 17.5026L15.3903 17.4922L14.8238 17.4956L14.7927 17.506L14.772 17.5336L14.7686 17.5544L14.9551 19.2815L14.9758 19.3195Z" fill="white"/>
<path d="M28.1121 19.3126L28.1432 19.3264L28.682 19.3333L28.7062 19.3264L28.7235 19.3091L28.7304 19.2815L28.5888 17.5371L28.568 17.4991L28.5404 17.4922L27.9497 17.4956L27.9221 17.5026L27.9048 17.5233L27.9014 17.5509L28.0948 19.2815L28.1121 19.3126Z" fill="white"/>
<path d="M14.2196 19.4436L14.2748 19.4539L14.6582 19.3917L14.7066 19.3641L14.7204 19.3088L14.4717 17.6266L14.4579 17.5921L14.4303 17.5679L14.3819 17.5645L13.919 17.6854L13.8741 17.7164L13.8638 17.7717L14.1885 19.3952L14.2196 19.4436Z" fill="white"/>
<path d="M27.3695 19.4401L27.4248 19.4539L27.8047 19.3987L27.8565 19.3676L27.8704 19.3088L27.6251 17.6301L27.6044 17.5886L27.5664 17.5645H27.5284L27.069 17.6854L27.0206 17.7164L27.0103 17.7752L27.3384 19.3917L27.3695 19.4401Z" fill="white"/>
<path d="M19.09 19.4815L19.1246 19.4988L19.622 19.5541L19.6738 19.5402L19.6945 19.4919L19.7222 17.7682L19.7049 17.7268L19.66 17.706L19.0935 17.6611L19.0624 17.6646L19.0382 17.6888L19.0244 17.7268L19.0693 19.4366L19.09 19.4815Z" fill="white"/>
<path d="M32.2261 19.4815L32.2572 19.4953L32.7822 19.5541L32.8237 19.5437L32.8409 19.5057L32.8582 17.7509L32.8444 17.7164L32.8133 17.7026L32.2295 17.6611L32.1916 17.6749L32.1777 17.7129L32.2123 19.447L32.2261 19.4815Z" fill="white"/>
<path d="M18.7753 19.5306L18.803 19.5203L18.8237 19.4995L18.8341 19.465L18.7373 17.7413L18.7304 17.7137L18.7132 17.693L18.6683 17.6826L18.1812 17.7552L18.1432 17.7759L18.1294 17.8173V17.8208L18.2987 19.4961L18.3228 19.541L18.3643 19.5548L18.7753 19.5306Z" fill="white"/>
<path d="M31.9121 19.534L31.9432 19.5237L31.9674 19.4995L31.9812 19.4546L31.8845 17.7585L31.8775 17.7274L31.8603 17.7033L31.8326 17.6895H31.8016L31.3249 17.7654L31.28 17.7931L31.2627 17.8449L31.4458 19.4926L31.4734 19.5409L31.5252 19.5582L31.9121 19.534Z" fill="white"/>
<path d="M16.0291 22.4209L15.9082 21.2638L15.8323 20.6627L15.7355 20.0548L15.7183 20.0133L15.6941 19.9823L15.6561 19.9581L15.6181 19.9512H15.3832L15.1276 19.9754L14.8513 20.0203L14.4678 20.0962L14.378 20.117L14.3331 20.1481L14.3228 20.1999L14.7304 22.5315L15.1829 24.87L15.2036 24.9045L15.2416 24.9114L16.1639 24.7767L16.2122 24.7491L16.226 24.6938L16.112 23.3501L16.0291 22.4209Z" fill="white"/>
<path d="M29.0898 21.5886L28.9792 20.5972L28.9585 20.4521L28.8756 20.0583L28.8445 19.9996L28.7892 19.9685L28.6476 19.9443L28.4956 19.9478L28.0017 20.0203L27.5457 20.1205L27.5077 20.1378L27.4801 20.162L27.4697 20.1965V20.2379L27.8808 22.5454L28.3195 24.8493L28.3436 24.8873L28.3886 24.8977L29.3074 24.7595L29.3488 24.7354L29.3626 24.6905L29.1899 22.6006L29.0898 21.5886Z" fill="white"/>
<path d="M19.8013 20.439L19.7667 20.2732L19.7391 20.2248L19.6873 20.1937L19.5353 20.1661L19.4317 20.1592L18.955 20.173L18.4265 20.2248L18.3747 20.2559L18.3574 20.3112L18.5509 22.7049L18.7823 25.0504L18.7927 25.0746L18.8203 25.0815L19.7564 25.0331L19.8117 25.0158L19.8289 24.9606L19.8393 23.1195L19.8462 22.9847L19.8531 22.8535L19.8151 20.591L19.8013 20.439Z" fill="white"/>
<path d="M32.9863 21.6445L32.9552 20.6324L32.9206 20.287L32.9068 20.2455L32.8792 20.2075L32.8412 20.1834L32.7963 20.173L32.4854 20.1592L32.1711 20.1661L31.8533 20.1903L31.5355 20.2283L31.5148 20.2421L31.5044 20.2663L31.6944 22.6497L31.9293 25.0435L31.9431 25.0676L31.9707 25.078L32.9275 25.0296L32.9621 25.0124L32.9793 24.9744L32.9966 23.8172L33.0001 22.7049L32.9863 21.6445Z" fill="white"/>
</g>
<circle cx="20" cy="20" r="19.5" stroke="black" stroke-opacity="0.05"/>
<defs>
<clipPath id="clip0_9_391625">
<rect width="26" height="11.7064" fill="white" transform="translate(7 14)"/>
</clipPath>
</defs>
</svg>
