<svg width="40" height="40" viewBox="0 0 40 40" fill="none" xmlns="http://www.w3.org/2000/svg">
<circle cx="20" cy="20" r="20" fill="#CC0033"/>
<g clip-path="url(#clip0_9_405228)">
<path d="M27.9841 12.2411L29.083 12.2351C30.2851 10.9843 30.9287 10.2861 30.9287 10.2861C30.9287 10.2861 29.5626 11.0451 27.9841 12.2411ZM20.6073 28.5004C21.7062 27.4865 22.4409 25.5983 22.4287 23.7222V13.929H19.393V23.4854C19.4051 25.064 19.2837 25.9929 18.1787 26.679L20.6073 28.5004ZM14.5359 27.2861H9.67871V13.929H14.5662C16.3694 13.9168 17.9176 15.2465 17.9176 17.4504C17.9176 18.3065 17.6019 19.5208 16.3573 20.0004C17.4562 20.3283 18.1787 21.7854 18.1787 23.0543C18.1787 25.2158 17.1223 27.2679 14.5359 27.2861ZM13.9287 16.3576H12.7144V19.3933H13.9287C14.7119 19.3933 15.143 18.5251 15.143 17.8451C15.1369 17.1711 14.6876 16.3515 13.9287 16.3576ZM13.9287 21.2147H12.7144V24.2504H13.9287C14.7484 24.2443 15.1491 23.6008 15.143 22.7933C15.143 22.1376 14.9123 21.2086 13.9287 21.2147ZM27.4194 27.2861C26.3448 27.2983 24.7359 26.7397 23.643 26.0718L24.8573 24.2504C25.5802 24.7352 26.4175 25.022 27.2859 25.0822C27.7412 25.0822 27.893 24.8333 27.893 24.5176C27.893 23.0604 24.2501 23.7526 24.2501 21.2147C24.2501 19.454 25.7437 18.2033 27.638 18.179C28.9555 18.1668 30.0666 18.9258 30.9287 19.3933L29.7144 21.2147C29.2166 20.8322 29.1012 20.4679 28.1966 20.4315C27.7412 20.4133 27.2859 20.814 27.2859 21.2147C27.298 22.5626 30.9226 21.3786 30.9287 24.2504C30.9348 26.1022 29.508 27.2558 27.4194 27.2861Z" fill="white"/>
<path d="M27.8022 12.3802C25.9808 13.7827 24.8576 15.1427 24.8576 15.1427L23.0361 13.3212L24.2504 18.1784C24.2504 18.1784 25.5679 16.1384 27.5411 13.9041C28.039 13.3395 28.5793 12.7505 29.1076 12.2041H28.0268L27.8022 12.3862V12.3802Z" fill="white"/>
</g>
<circle cx="20" cy="20" r="19.5" stroke="black" stroke-opacity="0.05"/>
<defs>
<clipPath id="clip0_9_405228">
<rect width="22" height="19" fill="white" transform="translate(9 10)"/>
</clipPath>
</defs>
</svg>
