<svg width="40" height="40" viewBox="0 0 40 40" fill="none" xmlns="http://www.w3.org/2000/svg">
<circle cx="20" cy="20" r="20" fill="black"/>
<g clip-path="url(#clip0_9_385765)">
<path d="M13.5467 17.9485C13.2464 17.9485 13.0029 17.7094 13.0029 17.4149C13.0029 17.119 13.2464 16.8799 13.5467 16.8799C13.8471 16.8799 14.0891 17.119 14.0891 17.4149C14.0891 17.7094 13.8471 17.9485 13.5467 17.9485Z" fill="white"/>
<path d="M13.5467 15.3728C13.2464 15.3728 13.0029 15.1293 13.0029 14.829C13.0029 14.5286 13.2464 14.2852 13.5467 14.2852C13.8471 14.2852 14.0891 14.5286 14.0891 14.829C14.0891 15.1293 13.8471 15.3728 13.5467 15.3728Z" fill="white"/>
<path d="M13.5467 12.6721C13.2464 12.6721 13.0029 12.4301 13.0029 12.1283C13.0029 11.828 13.2464 11.5859 13.5467 11.5859C13.8471 11.5859 14.0891 11.828 14.0891 12.1283C14.0891 12.4301 13.8471 12.6721 13.5467 12.6721Z" fill="white"/>
<path d="M13.5467 10.0789C13.2464 10.0789 13.0029 9.8398 13.0029 9.54385C13.0029 9.24789 13.2464 9.00879 13.5467 9.00879C13.8471 9.00879 14.0891 9.24789 14.0891 9.54385C14.0891 9.8398 13.8471 10.0789 13.5467 10.0789Z" fill="white"/>
<path d="M15.5965 17.9485C15.2962 17.9485 15.0542 17.7094 15.0542 17.4149C15.0542 17.119 15.2962 16.8799 15.5965 16.8799C15.8969 16.8799 16.1403 17.119 16.1403 17.4149C16.1403 17.7094 15.8969 17.9485 15.5965 17.9485Z" fill="white"/>
<path d="M15.5965 15.3728C15.2962 15.3728 15.0542 15.1293 15.0542 14.829C15.0542 14.5286 15.2962 14.2852 15.5965 14.2852C15.8969 14.2852 16.1403 14.5286 16.1403 14.829C16.1403 15.1293 15.8969 15.3728 15.5965 15.3728Z" fill="white"/>
<path d="M15.5965 12.6721C15.2962 12.6721 15.0542 12.4301 15.0542 12.1283C15.0542 11.828 15.2962 11.5859 15.5965 11.5859C15.8969 11.5859 16.1403 11.828 16.1403 12.1283C16.1403 12.4301 15.8969 12.6721 15.5965 12.6721Z" fill="white"/>
<path d="M15.5965 10.0789C15.2962 10.0789 15.0542 9.8398 15.0542 9.54385C15.0542 9.24789 15.2962 9.00879 15.5965 9.00879C15.8969 9.00879 16.1403 9.24789 16.1403 9.54385C16.1403 9.8398 15.8969 10.0789 15.5965 10.0789Z" fill="white"/>
<path d="M17.6478 17.9485C17.3475 17.9485 17.104 17.7094 17.104 17.4149C17.104 17.119 17.3475 16.8799 17.6478 16.8799C17.9481 16.8799 18.1916 17.119 18.1916 17.4149C18.1916 17.7094 17.9481 17.9485 17.6478 17.9485Z" fill="white"/>
<path d="M17.6478 15.3728C17.3475 15.3728 17.104 15.1293 17.104 14.829C17.104 14.5286 17.3475 14.2852 17.6478 14.2852C17.9481 14.2852 18.1916 14.5286 18.1916 14.829C18.1916 15.1293 17.9481 15.3728 17.6478 15.3728Z" fill="white"/>
<path d="M17.6478 12.6721C17.3475 12.6721 17.104 12.4301 17.104 12.1283C17.104 11.828 17.3475 11.5859 17.6478 11.5859C17.9481 11.5859 18.1916 11.828 18.1916 12.1283C18.1916 12.4301 17.9481 12.6721 17.6478 12.6721Z" fill="white"/>
<path d="M17.6478 10.0789C17.3475 10.0789 17.104 9.8398 17.104 9.54385C17.104 9.24789 17.3475 9.00879 17.6478 9.00879C17.9481 9.00879 18.1916 9.24789 18.1916 9.54385C18.1916 9.8398 17.9481 10.0789 17.6478 10.0789Z" fill="white"/>
<path d="M19.6992 17.9485C19.3989 17.9485 19.1554 17.7094 19.1554 17.4149C19.1554 17.119 19.3989 16.8799 19.6992 16.8799C19.9995 16.8799 20.2415 17.119 20.2415 17.4149C20.2415 17.7094 19.9995 17.9485 19.6992 17.9485Z" fill="white"/>
<path d="M21.644 17.9485C21.3437 17.9485 21.1017 17.7094 21.1017 17.4149C21.1017 17.119 21.3437 16.8799 21.644 16.8799C21.9444 16.8799 22.1878 17.119 22.1878 17.4149C22.1878 17.7094 21.9444 17.9485 21.644 17.9485Z" fill="white"/>
<path d="M21.644 15.3728C21.3437 15.3728 21.1017 15.1293 21.1017 14.829C21.1017 14.5286 21.3437 14.2852 21.644 14.2852C21.9444 14.2852 22.1878 14.5286 22.1878 14.829C22.1878 15.1293 21.9444 15.3728 21.644 15.3728Z" fill="white"/>
<path d="M21.644 12.6721C21.3437 12.6721 21.1017 12.4301 21.1017 12.1283C21.1017 11.828 21.3437 11.5859 21.644 11.5859C21.9444 11.5859 22.1878 11.828 22.1878 12.1283C22.1878 12.4301 21.9444 12.6721 21.644 12.6721Z" fill="white"/>
<path d="M21.644 10.0789C21.3437 10.0789 21.1017 9.8398 21.1017 9.54385C21.1017 9.24789 21.3437 9.00879 21.644 9.00879C21.9444 9.00879 22.1878 9.24789 22.1878 9.54385C22.1878 9.8398 21.9444 10.0789 21.644 10.0789Z" fill="white"/>
<path d="M23.6953 17.9485C23.395 17.9485 23.1515 17.7094 23.1515 17.4149C23.1515 17.119 23.395 16.8799 23.6953 16.8799C23.9956 16.8799 24.2391 17.119 24.2391 17.4149C24.2391 17.7094 23.9956 17.9485 23.6953 17.9485Z" fill="white"/>
<path d="M23.6953 15.3728C23.395 15.3728 23.1515 15.1293 23.1515 14.829C23.1515 14.5286 23.395 14.2852 23.6953 14.2852C23.9956 14.2852 24.2391 14.5286 24.2391 14.829C24.2391 15.1293 23.9956 15.3728 23.6953 15.3728Z" fill="white"/>
<path d="M23.6953 12.6721C23.395 12.6721 23.1515 12.4301 23.1515 12.1283C23.1515 11.828 23.395 11.5859 23.6953 11.5859C23.9956 11.5859 24.2391 11.828 24.2391 12.1283C24.2391 12.4301 23.9956 12.6721 23.6953 12.6721Z" fill="white"/>
<path d="M23.6953 10.0789C23.395 10.0789 23.1515 9.8398 23.1515 9.54385C23.1515 9.24789 23.395 9.00879 23.6953 9.00879C23.9956 9.00879 24.2391 9.24789 24.2391 9.54385C24.2391 9.8398 23.9956 10.0789 23.6953 10.0789Z" fill="white"/>
<path d="M25.7466 17.9485C25.4448 17.9485 25.2028 17.7094 25.2028 17.4149C25.2028 17.119 25.4448 16.8799 25.7466 16.8799C26.0469 16.8799 26.2889 17.119 26.2889 17.4149C26.2889 17.7094 26.0469 17.9485 25.7466 17.9485Z" fill="white"/>
<path d="M25.7466 15.3728C25.4448 15.3728 25.2028 15.1293 25.2028 14.829C25.2028 14.5286 25.4448 14.2852 25.7466 14.2852C26.0469 14.2852 26.2889 14.5286 26.2889 14.829C26.2889 15.1293 26.0469 15.3728 25.7466 15.3728Z" fill="white"/>
<path d="M25.7466 12.6721C25.4448 12.6721 25.2028 12.4301 25.2028 12.1283C25.2028 11.828 25.4448 11.5859 25.7466 11.5859C26.0469 11.5859 26.2889 11.828 26.2889 12.1283C26.2889 12.4301 26.0469 12.6721 25.7466 12.6721Z" fill="white"/>
<path d="M25.7466 10.0789C25.4448 10.0789 25.2028 9.8398 25.2028 9.54385C25.2028 9.24789 25.4448 9.00879 25.7466 9.00879C26.0469 9.00879 26.2889 9.24789 26.2889 9.54385C26.2889 9.8398 26.0469 10.0789 25.7466 10.0789Z" fill="white"/>
<path d="M27.7964 17.9485C27.496 17.9485 27.254 17.7094 27.254 17.4149C27.254 17.119 27.496 16.8799 27.7964 16.8799C28.0967 16.8799 28.3402 17.119 28.3402 17.4149C28.3402 17.7094 28.0967 17.9485 27.7964 17.9485Z" fill="white"/>
<path d="M27.7964 15.3728C27.496 15.3728 27.254 15.1293 27.254 14.829C27.254 14.5286 27.496 14.2852 27.7964 14.2852C28.0967 14.2852 28.3402 14.5286 28.3402 14.829C28.3402 15.1293 28.0967 15.3728 27.7964 15.3728Z" fill="white"/>
<path d="M27.7964 12.6721C27.496 12.6721 27.254 12.4301 27.254 12.1283C27.254 11.828 27.496 11.5859 27.7964 11.5859C28.0967 11.5859 28.3402 11.828 28.3402 12.1283C28.3402 12.4301 28.0967 12.6721 27.7964 12.6721Z" fill="white"/>
<path d="M19.6992 15.3728C19.3989 15.3728 19.1554 15.1293 19.1554 14.829C19.1554 14.5286 19.3989 14.2852 19.6992 14.2852C19.9995 14.2852 20.2415 14.5286 20.2415 14.829C20.2415 15.1293 19.9995 15.3728 19.6992 15.3728Z" fill="white"/>
<path d="M19.6992 12.6721C19.3989 12.6721 19.1554 12.4301 19.1554 12.1283C19.1554 11.828 19.3989 11.5859 19.6992 11.5859C19.9995 11.5859 20.2415 11.828 20.2415 12.1283C20.2415 12.4301 19.9995 12.6721 19.6992 12.6721Z" fill="white"/>
<path d="M19.6992 10.0789C19.3989 10.0789 19.1554 9.8398 19.1554 9.54385C19.1554 9.24789 19.3989 9.00879 19.6992 9.00879C19.9995 9.00879 20.2415 9.24789 20.2415 9.54385C20.2415 9.8398 19.9995 10.0789 19.6992 10.0789Z" fill="white"/>
<path d="M13.5467 20.5437C13.2464 20.5437 13.0029 20.3002 13.0029 19.9999C13.0029 19.6995 13.2464 19.4561 13.5467 19.4561C13.8471 19.4561 14.0891 19.6995 14.0891 19.9999C14.0891 20.3002 13.8471 20.5437 13.5467 20.5437Z" fill="white"/>
<path d="M13.5467 23.1204C13.2464 23.1204 13.0029 22.8813 13.0029 22.5854C13.0029 22.2909 13.2464 22.0518 13.5467 22.0518C13.8471 22.0518 14.0891 22.2909 14.0891 22.5854C14.0891 22.8813 13.8471 23.1204 13.5467 23.1204Z" fill="white"/>
<path d="M13.5467 25.7146C13.2464 25.7146 13.0029 25.4711 13.0029 25.1708C13.0029 24.8704 13.2464 24.627 13.5467 24.627C13.8471 24.627 14.0891 24.8704 14.0891 25.1708C14.0891 25.4711 13.8471 25.7146 13.5467 25.7146Z" fill="white"/>
<path d="M13.5467 28.4133C13.2464 28.4133 13.0029 28.1713 13.0029 27.871C13.0029 27.5692 13.2464 27.3271 13.5467 27.3271C13.8471 27.3271 14.0891 27.5692 14.0891 27.871C14.0891 28.1713 13.8471 28.4133 13.5467 28.4133Z" fill="white"/>
<path d="M13.5467 30.991C13.2464 30.991 13.0029 30.7519 13.0029 30.456C13.0029 30.16 13.2464 29.9209 13.5467 29.9209C13.8471 29.9209 14.0891 30.16 14.0891 30.456C14.0891 30.7519 13.8471 30.991 13.5467 30.991Z" fill="white"/>
<path d="M15.5965 20.5437C15.2962 20.5437 15.0542 20.3002 15.0542 19.9999C15.0542 19.6995 15.2962 19.4561 15.5965 19.4561C15.8969 19.4561 16.1403 19.6995 16.1403 19.9999C16.1403 20.3002 15.8969 20.5437 15.5965 20.5437Z" fill="white"/>
<path d="M15.5965 23.1204C15.2962 23.1204 15.0542 22.8813 15.0542 22.5854C15.0542 22.2909 15.2962 22.0518 15.5965 22.0518C15.8969 22.0518 16.1403 22.2909 16.1403 22.5854C16.1403 22.8813 15.8969 23.1204 15.5965 23.1204Z" fill="white"/>
<path d="M15.5965 25.7146C15.2962 25.7146 15.0542 25.4711 15.0542 25.1708C15.0542 24.8704 15.2962 24.627 15.5965 24.627C15.8969 24.627 16.1403 24.8704 16.1403 25.1708C16.1403 25.4711 15.8969 25.7146 15.5965 25.7146Z" fill="white"/>
<path d="M15.5965 28.4133C15.2962 28.4133 15.0542 28.1713 15.0542 27.871C15.0542 27.5692 15.2962 27.3271 15.5965 27.3271C15.8969 27.3271 16.1403 27.5692 16.1403 27.871C16.1403 28.1713 15.8969 28.4133 15.5965 28.4133Z" fill="white"/>
<path d="M15.5965 30.991C15.2962 30.991 15.0542 30.7519 15.0542 30.456C15.0542 30.16 15.2962 29.9209 15.5965 29.9209C15.8969 29.9209 16.1403 30.16 16.1403 30.456C16.1403 30.7519 15.8969 30.991 15.5965 30.991Z" fill="white"/>
<path d="M17.6478 20.5437C17.3475 20.5437 17.104 20.3002 17.104 19.9999C17.104 19.6995 17.3475 19.4561 17.6478 19.4561C17.9481 19.4561 18.1916 19.6995 18.1916 19.9999C18.1916 20.3002 17.9481 20.5437 17.6478 20.5437Z" fill="white"/>
<path d="M17.6478 23.1204C17.3475 23.1204 17.104 22.8813 17.104 22.5854C17.104 22.2909 17.3475 22.0518 17.6478 22.0518C17.9481 22.0518 18.1916 22.2909 18.1916 22.5854C18.1916 22.8813 17.9481 23.1204 17.6478 23.1204Z" fill="white"/>
<path d="M17.6478 25.7146C17.3475 25.7146 17.104 25.4711 17.104 25.1708C17.104 24.8704 17.3475 24.627 17.6478 24.627C17.9481 24.627 18.1916 24.8704 18.1916 25.1708C18.1916 25.4711 17.9481 25.7146 17.6478 25.7146Z" fill="white"/>
<path d="M17.6478 28.4133C17.3475 28.4133 17.104 28.1713 17.104 27.871C17.104 27.5692 17.3475 27.3271 17.6478 27.3271C17.9481 27.3271 18.1916 27.5692 18.1916 27.871C18.1916 28.1713 17.9481 28.4133 17.6478 28.4133Z" fill="white"/>
<path d="M17.6478 30.991C17.3475 30.991 17.104 30.7519 17.104 30.456C17.104 30.16 17.3475 29.9209 17.6478 29.9209C17.9481 29.9209 18.1916 30.16 18.1916 30.456C18.1916 30.7519 17.9481 30.991 17.6478 30.991Z" fill="white"/>
<path d="M19.6992 20.5437C19.3989 20.5437 19.1554 20.3002 19.1554 19.9999C19.1554 19.6995 19.3989 19.4561 19.6992 19.4561C19.9995 19.4561 20.2415 19.6995 20.2415 19.9999C20.2415 20.3002 19.9995 20.5437 19.6992 20.5437Z" fill="white"/>
<path d="M19.6992 23.1204C19.3989 23.1204 19.1554 22.8813 19.1554 22.5854C19.1554 22.2909 19.3989 22.0518 19.6992 22.0518C19.9995 22.0518 20.2415 22.2909 20.2415 22.5854C20.2415 22.8813 19.9995 23.1204 19.6992 23.1204Z" fill="white"/>
<path d="M21.644 23.1204C21.3437 23.1204 21.1017 22.8813 21.1017 22.5854C21.1017 22.2909 21.3437 22.0518 21.644 22.0518C21.9444 22.0518 22.1878 22.2909 22.1878 22.5854C22.1878 22.8813 21.9444 23.1204 21.644 23.1204Z" fill="white"/>
<path d="M21.644 25.7146C21.3437 25.7146 21.1017 25.4711 21.1017 25.1708C21.1017 24.8704 21.3437 24.627 21.644 24.627C21.9444 24.627 22.1878 24.8704 22.1878 25.1708C22.1878 25.4711 21.9444 25.7146 21.644 25.7146Z" fill="white"/>
<path d="M21.644 28.4133C21.3437 28.4133 21.1017 28.1713 21.1017 27.871C21.1017 27.5692 21.3437 27.3271 21.644 27.3271C21.9444 27.3271 22.1878 27.5692 22.1878 27.871C22.1878 28.1713 21.9444 28.4133 21.644 28.4133Z" fill="white"/>
<path d="M21.644 30.991C21.3437 30.991 21.1017 30.7519 21.1017 30.456C21.1017 30.16 21.3437 29.9209 21.644 29.9209C21.9444 29.9209 22.1878 30.16 22.1878 30.456C22.1878 30.7519 21.9444 30.991 21.644 30.991Z" fill="white"/>
<path d="M23.6953 23.1204C23.395 23.1204 23.1515 22.8813 23.1515 22.5854C23.1515 22.2909 23.395 22.0518 23.6953 22.0518C23.9956 22.0518 24.2391 22.2909 24.2391 22.5854C24.2391 22.8813 23.9956 23.1204 23.6953 23.1204Z" fill="white"/>
<path d="M23.6953 25.7146C23.395 25.7146 23.1515 25.4711 23.1515 25.1708C23.1515 24.8704 23.395 24.627 23.6953 24.627C23.9956 24.627 24.2391 24.8704 24.2391 25.1708C24.2391 25.4711 23.9956 25.7146 23.6953 25.7146Z" fill="white"/>
<path d="M23.6953 28.4133C23.395 28.4133 23.1515 28.1713 23.1515 27.871C23.1515 27.5692 23.395 27.3271 23.6953 27.3271C23.9956 27.3271 24.2391 27.5692 24.2391 27.871C24.2391 28.1713 23.9956 28.4133 23.6953 28.4133Z" fill="white"/>
<path d="M23.6953 30.991C23.395 30.991 23.1515 30.7519 23.1515 30.456C23.1515 30.16 23.395 29.9209 23.6953 29.9209C23.9956 29.9209 24.2391 30.16 24.2391 30.456C24.2391 30.7519 23.9956 30.991 23.6953 30.991Z" fill="white"/>
<path d="M25.7466 23.1204C25.4448 23.1204 25.2028 22.8813 25.2028 22.5854C25.2028 22.2909 25.4448 22.0518 25.7466 22.0518C26.0469 22.0518 26.2889 22.2909 26.2889 22.5854C26.2889 22.8813 26.0469 23.1204 25.7466 23.1204Z" fill="white"/>
<path d="M25.7466 25.7146C25.4448 25.7146 25.2028 25.4711 25.2028 25.1708C25.2028 24.8704 25.4448 24.627 25.7466 24.627C26.0469 24.627 26.2889 24.8704 26.2889 25.1708C26.2889 25.4711 26.0469 25.7146 25.7466 25.7146Z" fill="white"/>
<path d="M25.7466 28.4133C25.4448 28.4133 25.2028 28.1713 25.2028 27.871C25.2028 27.5692 25.4448 27.3271 25.7466 27.3271C26.0469 27.3271 26.2889 27.5692 26.2889 27.871C26.2889 28.1713 26.0469 28.4133 25.7466 28.4133Z" fill="white"/>
<path d="M25.7466 30.991C25.4448 30.991 25.2028 30.7519 25.2028 30.456C25.2028 30.16 25.4448 29.9209 25.7466 29.9209C26.0469 29.9209 26.2889 30.16 26.2889 30.456C26.2889 30.7519 26.0469 30.991 25.7466 30.991Z" fill="white"/>
<path d="M27.7964 23.1204C27.496 23.1204 27.254 22.8813 27.254 22.5854C27.254 22.2909 27.496 22.0518 27.7964 22.0518C28.0967 22.0518 28.3402 22.2909 28.3402 22.5854C28.3402 22.8813 28.0967 23.1204 27.7964 23.1204Z" fill="white"/>
<path d="M27.7964 25.7146C27.496 25.7146 27.254 25.4711 27.254 25.1708C27.254 24.8704 27.496 24.627 27.7964 24.627C28.0967 24.627 28.3402 24.8704 28.3402 25.1708C28.3402 25.4711 28.0967 25.7146 27.7964 25.7146Z" fill="white"/>
<path d="M21.644 20.5437C21.3437 20.5437 21.1017 20.3002 21.1017 19.9999C21.1017 19.6995 21.3437 19.4561 21.644 19.4561C21.9444 19.4561 22.1878 19.6995 22.1878 19.9999C22.1878 20.3002 21.9444 20.5437 21.644 20.5437Z" fill="white"/>
<path d="M23.6953 20.5437C23.395 20.5437 23.1515 20.3002 23.1515 19.9999C23.1515 19.6995 23.395 19.4561 23.6953 19.4561C23.9956 19.4561 24.2391 19.6995 24.2391 19.9999C24.2391 20.3002 23.9956 20.5437 23.6953 20.5437Z" fill="white"/>
<path d="M25.7466 20.5437C25.4448 20.5437 25.2028 20.3002 25.2028 19.9999C25.2028 19.6995 25.4448 19.4561 25.7466 19.4561C26.0469 19.4561 26.2889 19.6995 26.2889 19.9999C26.2889 20.3002 26.0469 20.5437 25.7466 20.5437Z" fill="white"/>
<path d="M27.7964 28.4133C27.496 28.4133 27.254 28.1713 27.254 27.871C27.254 27.5692 27.496 27.3271 27.7964 27.3271C28.0967 27.3271 28.3402 27.5692 28.3402 27.871C28.3402 28.1713 28.0967 28.4133 27.7964 28.4133Z" fill="white"/>
<path d="M19.6992 25.7146C19.3989 25.7146 19.1554 25.4711 19.1554 25.1708C19.1554 24.8704 19.3989 24.627 19.6992 24.627C19.9995 24.627 20.2415 24.8704 20.2415 25.1708C20.2415 25.4711 19.9995 25.7146 19.6992 25.7146Z" fill="white"/>
<path d="M19.6992 28.4133C19.3989 28.4133 19.1554 28.1713 19.1554 27.871C19.1554 27.5692 19.3989 27.3271 19.6992 27.3271C19.9995 27.3271 20.2415 27.5692 20.2415 27.871C20.2415 28.1713 19.9995 28.4133 19.6992 28.4133Z" fill="white"/>
<path d="M19.6992 30.991C19.3989 30.991 19.1554 30.7519 19.1554 30.456C19.1554 30.16 19.3989 29.9209 19.6992 29.9209C19.9995 29.9209 20.2415 30.16 20.2415 30.456C20.2415 30.7519 19.9995 30.991 19.6992 30.991Z" fill="white"/>
</g>
<circle cx="20" cy="20" r="19.5" stroke="black" stroke-opacity="0.05"/>
<defs>
<clipPath id="clip0_9_385765">
<rect width="15.3519" height="22" fill="white" transform="translate(13 9)"/>
</clipPath>
</defs>
</svg>
