<svg width="40" height="40" viewBox="0 0 40 40" fill="none" xmlns="http://www.w3.org/2000/svg">
<circle cx="20" cy="20" r="20" fill="#28509C"/>
<g clip-path="url(#clip0_9_387930)">
<path d="M34.6027 19.849C34.6027 20.6862 34.4378 21.5152 34.1174 22.2887C33.7971 23.0622 33.3275 23.765 32.7354 24.357C32.1434 24.949 31.4406 25.4186 30.6671 25.739C29.8936 26.0594 29.0646 26.2243 28.2274 26.2243C26.5365 26.2243 24.915 25.5526 23.7193 24.357C22.5237 23.1614 21.8521 21.5398 21.8521 19.849C21.8521 18.1581 22.5237 16.5365 23.7193 15.3409C24.915 14.1453 26.5365 13.4736 28.2274 13.4736C29.0646 13.4736 29.8936 13.6385 30.6671 13.9589C31.4406 14.2793 32.1434 14.7489 32.7354 15.3409C33.3275 15.9329 33.7971 16.6357 34.1174 17.4092C34.4378 18.1827 34.6027 19.0118 34.6027 19.849ZM33.5041 19.8563C33.5041 18.4581 32.9487 17.1172 31.96 16.1285C30.9714 15.1398 29.6304 14.5844 28.2323 14.5844C26.8341 14.5844 25.4931 15.1398 24.5045 16.1285C23.5158 17.1172 22.9604 18.4581 22.9604 19.8563C22.9604 21.2545 23.5158 22.5954 24.5045 23.584C25.4931 24.5727 26.8341 25.1281 28.2323 25.1281C29.6304 25.1281 30.9714 24.5727 31.96 23.584C32.9487 22.5954 33.5041 21.2545 33.5041 19.8563Z" fill="white"/>
<path d="M18.07 15.2574C18.8538 15.2738 19.4969 14.9194 19.5064 14.4658C19.5159 14.0121 18.8882 13.6311 18.1044 13.6147C17.3207 13.5983 16.6776 13.9527 16.6681 14.4063C16.6586 14.8599 17.2863 15.241 18.07 15.2574Z" fill="#F9423A"/>
<path d="M12.6403 19.8031C13.3241 20.226 13.7608 20.7899 13.9504 21.4948C14.6042 23.9059 13.1216 25.9792 10.5792 26.0059C8.88109 26.0221 7.18132 26.0237 5.47993 26.0108C5.47131 26.0108 5.46278 26.0091 5.45482 26.0058C5.44686 26.0025 5.43962 25.9976 5.43353 25.9915C5.42743 25.9854 5.4226 25.9782 5.4193 25.9703C5.416 25.9623 5.41431 25.9538 5.41431 25.9451V13.8069C5.41431 13.7818 5.42404 13.7577 5.44136 13.7399C5.45868 13.7221 5.48217 13.7122 5.50667 13.7122C7.03954 13.7105 8.7069 13.7105 10.5088 13.7122C13.7219 13.717 14.9688 17.6278 12.6258 19.633C12.5528 19.6962 12.5577 19.7529 12.6403 19.8031ZM6.47889 14.8861V19.1882C6.47889 19.2198 6.49144 19.2501 6.51377 19.2724C6.53611 19.2947 6.5664 19.3073 6.59799 19.3073H10.5112C10.8083 19.3073 11.1026 19.25 11.3771 19.1387C11.6517 19.0275 11.9011 18.8644 12.1113 18.6588C12.3214 18.4531 12.4881 18.209 12.6018 17.9404C12.7155 17.6718 12.774 17.3838 12.774 17.0931V16.9813C12.774 16.6905 12.7155 16.4025 12.6018 16.1339C12.4881 15.8653 12.3214 15.6212 12.1113 15.4155C11.9011 15.2099 11.6517 15.0468 11.3771 14.9356C11.1026 14.8243 10.8083 14.767 10.5112 14.767H6.59799C6.5664 14.767 6.53611 14.7796 6.51377 14.8019C6.49144 14.8242 6.47889 14.8545 6.47889 14.8861ZM6.46917 20.4375L6.48375 24.8708C6.48375 24.8934 6.49271 24.915 6.50867 24.931C6.52462 24.9469 6.54626 24.9559 6.56882 24.9559L10.7518 24.9413C11.0514 24.9403 11.3478 24.8834 11.6242 24.7739C11.9006 24.6644 12.1515 24.5043 12.3625 24.303C12.5736 24.1016 12.7407 23.8629 12.8542 23.6004C12.9678 23.3379 13.0256 23.0569 13.0244 22.7733V22.4865C13.0219 21.9144 12.7796 21.3667 12.3507 20.9638C11.9219 20.5609 11.3415 20.3358 10.7372 20.3378L6.55424 20.3524C6.53168 20.3524 6.51004 20.3614 6.49408 20.3773C6.47813 20.3933 6.46917 20.4149 6.46917 20.4375Z" fill="white"/>
<path d="M19.0339 17.7482L17.13 17.6684C16.9959 17.6628 16.8827 17.7669 16.877 17.901L16.8738 17.9788C16.8682 18.1129 16.9723 18.2262 17.1064 18.2318L19.0103 18.3116C19.1444 18.3172 19.2577 18.213 19.2633 18.0789L19.2666 18.0012C19.2722 17.8671 19.1681 17.7538 19.0339 17.7482Z" fill="#F9423A"/>
<path d="M19.057 19.5434C18.3959 19.5337 17.7721 19.4453 17.1855 19.2784C17.1503 19.2684 17.1189 19.2479 17.0955 19.2197C17.0721 19.1915 17.0577 19.1569 17.0542 19.1205L17.0445 19.0354C17.0434 19.0229 17.045 19.0102 17.0491 18.9984C17.0533 18.9866 17.0598 18.9758 17.0683 18.9668C17.0769 18.9578 17.0872 18.9508 17.0986 18.9463C17.11 18.9417 17.1222 18.9398 17.1344 18.9406L18.9306 19.0208C19.0392 19.0257 19.1259 19.0727 19.1907 19.1618C19.228 19.2136 19.249 19.2703 19.2539 19.3319C19.2559 19.3592 19.2523 19.3866 19.2433 19.4124C19.2343 19.4382 19.2201 19.4617 19.2015 19.4816C19.183 19.5015 19.1606 19.5173 19.1357 19.5279C19.1108 19.5386 19.084 19.5438 19.057 19.5434Z" fill="#F3007B"/>
<path d="M19.035 19.7442L17.1731 19.6108C17.0419 19.6014 16.9279 19.7001 16.9185 19.8313L16.9137 19.8992C16.9042 20.0304 17.003 20.1444 17.1342 20.1538L18.9961 20.2873C19.1273 20.2967 19.2413 20.198 19.2507 20.0667L19.2556 19.9989C19.265 19.8676 19.1662 19.7536 19.035 19.7442Z" fill="#F3007B"/>
<path d="M18.877 21.6703L17.4356 21.6338C17.3794 21.6323 17.3243 21.6171 17.2752 21.5896C17.2261 21.5621 17.1844 21.523 17.1537 21.4758L16.9641 21.189C16.9292 21.1363 16.9093 21.0751 16.9066 21.012C16.9038 20.9488 16.9184 20.8861 16.9486 20.8306C16.9789 20.7751 17.0237 20.7289 17.0782 20.697C17.1328 20.6651 17.195 20.6486 17.2582 20.6494L18.9815 20.6713C19.0352 20.6721 19.0881 20.6853 19.1359 20.7099C19.1837 20.7345 19.2251 20.7699 19.2569 20.8132C19.2887 20.8566 19.31 20.9067 19.3191 20.9597C19.3283 21.0127 19.325 21.067 19.3096 21.1185L19.2172 21.4224C19.1955 21.4952 19.1504 21.5589 19.0889 21.6037C19.0275 21.6485 18.953 21.6719 18.877 21.6703Z" fill="#A9218E"/>
<path d="M18.164 26.4553C18.8303 26.4005 19.3425 26.0167 19.308 25.5979C19.2736 25.1792 18.7056 24.8841 18.0394 24.9389C17.3731 24.9937 16.8609 25.3775 16.8953 25.7963C16.9298 26.215 17.4978 26.5101 18.164 26.4553Z" fill="#002E56"/>
</g>
<circle cx="20" cy="20" r="19.5" stroke="black" stroke-opacity="0.05"/>
<defs>
<clipPath id="clip0_9_387930">
<rect width="30" height="14" fill="white" transform="translate(5 13)"/>
</clipPath>
</defs>
</svg>
