<svg width="40" height="40" viewBox="0 0 40 40" fill="none" xmlns="http://www.w3.org/2000/svg">
<circle cx="20" cy="20" r="20" fill="#BE2BBB"/>
<g clip-path="url(#clip0_9_399780)">
<path d="M18.2326 31.2738C18.0636 31.6442 17.7044 31.8828 17.3176 31.8828C17.163 31.8828 17.014 31.8464 16.8746 31.774C13.685 30.1322 12 27.2391 12 23.4063V19.0774C12 18.4818 12.4558 17.9978 13.0164 17.9978C13.5768 17.9978 14.033 18.4818 14.033 19.0774V23.4061C14.033 26.3957 15.2872 28.5574 17.7618 29.8321C18.2656 30.0921 18.4772 30.7388 18.2326 31.2738ZM15.2248 21.2408C15.2248 21.8529 15.692 22.3486 16.2678 22.3486C16.844 22.3486 17.3112 21.8529 17.3112 21.2408V12.4071C17.3112 11.7948 16.8442 11.2993 16.2678 11.2993C15.692 11.2993 15.2248 11.7948 15.2248 12.4071V21.2408ZM18.4522 20.984C18.4522 21.5957 18.9192 22.0916 19.495 22.0916C20.0712 22.0916 20.5382 21.5957 20.5382 20.984V9.10697C20.5382 8.49508 20.0712 8 19.495 8C18.9192 8 18.4522 8.49508 18.4522 9.10697V20.984ZM21.6794 21.8013C21.6794 22.4132 22.1464 22.9087 22.7222 22.9087C23.2986 22.9087 23.7656 22.4132 23.7656 21.8013V11.1393C23.7656 10.5274 23.2986 10.0315 22.7222 10.0315C22.1464 10.0315 21.6794 10.5274 21.6794 11.1393V21.8013ZM24.9066 23.2124C24.9066 23.806 25.3596 24.2869 25.9182 24.2869C26.477 24.2869 26.93 23.806 26.93 23.2124V16.0067C26.93 15.413 26.477 14.932 25.9182 14.932C25.3596 14.932 24.9066 15.413 24.9066 16.0067V23.2124Z" fill="white"/>
</g>
<circle cx="20" cy="20" r="19.5" stroke="black" stroke-opacity="0.05"/>
<defs>
<clipPath id="clip0_9_399780">
<rect width="15" height="24" fill="white" transform="translate(12 8)"/>
</clipPath>
</defs>
</svg>
