<svg width="40" height="40" viewBox="0 0 40 40" fill="none" xmlns="http://www.w3.org/2000/svg">
<circle cx="20" cy="20" r="20" fill="#0F3557"/>
<g clip-path="url(#clip0_9_410500)">
<path d="M3.71436 17.2861H5.54921C6.40421 17.2861 7.60461 17.3811 7.60461 18.6813C7.60461 19.3816 7.16218 19.7853 6.58811 19.9251C7.21239 20.0459 7.78578 20.3879 7.78578 21.2008C7.78578 22.4935 6.58946 22.7147 5.71411 22.7147H3.71436V17.2861ZM5.06743 17.983V19.615H5.74193C6.01132 19.6089 6.4205 19.4372 6.4205 18.8455C6.4205 18.23 6.04932 17.9837 5.81861 17.9837L5.06743 17.983ZM5.06743 20.3838V22.0361H5.67068C6.06628 22.03 6.58811 21.8828 6.58811 21.2001C6.58811 20.5182 6.10971 20.3899 5.86882 20.3838H5.06743ZM9.47407 19.1251C9.70682 18.9052 9.95586 18.7233 10.5001 18.667V19.7073L10.156 19.7697C9.65118 19.8701 9.48221 19.9516 9.48221 20.4591V22.7147H8.46436V18.667H9.4795V19.1244L9.47407 19.1251ZM14.5715 20.6905C14.5715 21.6514 14.0653 22.7147 12.7109 22.7147C11.7317 22.7147 10.8394 22.0992 10.8394 20.6905C10.8394 19.52 11.5139 18.5937 12.8411 18.6718C14.2614 18.7668 14.5715 19.9984 14.5715 20.6905ZM12.0418 19.9373C11.9169 20.1585 11.8674 20.4211 11.8674 20.6837C11.8674 21.2877 12.1341 21.8251 12.7054 21.8251C13.2605 21.8251 13.5326 21.3352 13.5326 20.738C13.5326 20.3139 13.4396 19.9855 13.2442 19.7826C13.169 19.7017 13.0752 19.6403 12.9709 19.6039C12.8666 19.5675 12.7549 19.5571 12.6457 19.5736C12.3573 19.5912 12.1829 19.6991 12.0418 19.938V19.9373ZM18.6429 20.6905C18.6429 21.6514 18.1367 22.7147 16.7823 22.7147C15.8031 22.7147 14.9108 22.0992 14.9108 20.6905C14.9108 19.52 15.5853 18.5937 16.9126 18.6718C18.3328 18.7668 18.6429 19.9984 18.6429 20.6905ZM16.1132 19.9373C15.9884 20.1585 15.9388 20.4211 15.9388 20.6837C15.9388 21.2877 16.2055 21.8251 16.7769 21.8251C17.3319 21.8251 17.604 21.3352 17.604 20.738C17.604 20.3139 17.5111 19.9855 17.3156 19.7826C17.2404 19.7017 17.1466 19.6403 17.0423 19.6039C16.938 19.5675 16.8264 19.5571 16.7171 19.5736C16.4287 19.5912 16.2544 19.6991 16.1132 19.938V19.9373ZM19.3215 17.2861H20.2837V20.0757L21.3477 18.6433H22.5176L21.3979 20.1321L22.694 22.7147H21.5594L20.7017 20.9871L20.2776 21.4641V22.7147H19.3215V17.2861ZM23.3929 17.6783C23.5185 17.4856 23.8062 17.2861 24.2839 17.2861C24.4902 17.2861 24.6965 17.3221 24.8973 17.3526V18.1201H24.653C24.2676 18.1201 24.2405 18.1269 24.2513 18.6399H24.9353V19.3218H24.2567V22.7147H23.2416V19.3218H22.6987V18.6399H23.2525C23.2525 18.2762 23.1866 17.9905 23.3929 17.6783ZM25.4286 17.2861H26.4465V17.9647H25.4286V17.2861ZM25.4286 18.6433H26.4465V22.7147H25.4286V18.6433ZM30.6075 21.5917C30.4881 21.7912 30.3686 21.9839 30.1895 22.1651C29.8909 22.4731 29.4404 22.7147 28.8812 22.7147C27.8498 22.7147 27.1278 21.9839 27.1278 20.7217C27.1278 19.7921 27.5404 18.5965 28.9084 18.5965C29.1146 18.5965 29.7118 18.6209 30.1569 19.1522C30.6075 19.6896 30.5966 20.2447 30.6075 20.679H28.1321C28.1266 21.156 28.3601 21.7966 28.9084 21.7966C29.4675 21.7966 29.6575 21.3915 29.7824 21.114L30.6075 21.5917ZM29.5544 20.0092C29.5326 19.8464 29.5435 19.7921 29.4024 19.617C29.3378 19.5497 29.2603 19.4963 29.1744 19.46C29.0885 19.4237 28.9961 19.4053 28.9029 19.406C28.8035 19.4068 28.7055 19.43 28.6162 19.4738C28.527 19.5176 28.4487 19.5809 28.3872 19.6591C28.2895 19.7799 28.2454 19.8762 28.2142 20.0092H29.5544ZM32.2144 17.2861H31.1965V22.7147H32.2144V17.2861ZM36.2858 17.2861V22.7147H35.3439V22.2499C35.1845 22.425 34.9144 22.7147 34.3966 22.7147C34.0438 22.7147 33.6807 22.5634 33.4052 22.2736C32.8929 21.7362 32.8929 20.9572 32.8929 20.7102C32.8929 19.2547 33.6475 18.6568 34.3586 18.6568C34.8207 18.6568 35.1017 18.8923 35.289 19.0491V17.2861H36.2858ZM35.2998 20.6858C35.2998 20.5107 35.2998 20.0276 35.08 19.7317C35.0304 19.6652 34.8866 19.5023 34.6776 19.5023C33.9447 19.5023 33.9447 20.5168 33.9447 20.6858C33.9447 21.2232 34.077 21.8814 34.6056 21.8814C34.7282 21.8798 34.8466 21.8373 34.9422 21.7606C35.2998 21.4892 35.2998 20.8968 35.2998 20.6858Z" fill="white"/>
</g>
<circle cx="20" cy="20" r="19.5" stroke="black" stroke-opacity="0.05"/>
<defs>
<clipPath id="clip0_9_410500">
<rect width="34" height="6" fill="white" transform="translate(3 17)"/>
</clipPath>
</defs>
</svg>
