<svg width="40" height="40" viewBox="0 0 40 40" fill="none" xmlns="http://www.w3.org/2000/svg">
<circle cx="20" cy="20" r="20" fill="#F6F8FA"/>
<g clip-path="url(#clip0_9_397707)">
<path d="M20.0344 8C19.995 8.12051 19.9803 8.23619 19.9852 8.3567C19.9901 8.51095 19.995 8.59771 19.995 8.62181C19.9852 8.90139 19.995 9.2388 19.995 9.45089C19.9901 11.7019 19.995 14.0494 19.995 16.4933C19.995 16.58 19.9753 16.6572 20.0049 16.7439C20.0049 16.7536 20.0049 16.7632 19.9901 16.768H19.9753C19.8817 16.7777 19.7931 16.7777 19.6995 16.7777C16.8423 16.7825 13.9852 16.7825 11.128 16.7777C11.0936 16.7777 11.0492 16.7921 11 16.821C10.9901 16.7777 11 16.7439 11.0197 16.7198C11.197 16.5511 11.3645 16.3872 11.532 16.2233C12.7192 15.0568 13.8916 13.9144 15.0492 12.7913C16.3842 11.4947 17.7192 10.1884 19.064 8.88693C19.2857 8.67001 19.6305 8.31814 19.931 8.04338C19.9458 8.02892 19.9803 8.01928 20.0295 8.00964L20.0344 8Z" fill="#33328C"/>
<path d="M28.9903 16.7487C28.8868 16.7631 28.7785 16.7728 28.6652 16.7728C25.7735 16.7776 22.877 16.7776 19.9854 16.7728V16.7631H20.0001C20.0149 16.7631 20.0149 16.7535 20.0149 16.739C19.9854 16.6523 20.0051 16.5752 20.0051 16.4884C20.0001 14.0445 20.0001 11.6971 20.0051 9.44601C20.0051 9.23392 19.9952 8.89168 20.0051 8.61693C20.0051 8.59765 20.0051 8.50606 19.9952 8.35182C19.9903 8.23131 20.0051 8.11562 20.0445 7.99512C22.9065 10.786 25.7686 13.577 28.6257 16.3727C28.7292 16.4739 28.8326 16.5848 28.9558 16.6764C28.9804 16.6957 28.9952 16.7149 29.0001 16.7487H28.9903Z" fill="#D64088"/>
<path d="M20.0294 31.9425C19.9999 31.8124 19.99 31.6533 19.99 31.4749C19.9949 30.8724 19.9999 30.0481 19.9999 29.0118C19.99 24.9965 19.99 20.9861 19.9999 16.9853C19.9999 16.9515 19.9999 16.913 19.99 16.8744C19.9851 16.8407 19.9851 16.8117 19.99 16.778C22.8816 16.778 25.7782 16.778 28.6698 16.778C28.7782 16.778 28.8866 16.7684 28.9949 16.7539C29.0097 16.8021 29.0097 16.8407 28.9851 16.8744C28.6698 17.3902 28.3496 17.9493 28.0442 18.4603C27.5417 19.3038 27.0442 20.1425 26.5516 20.9861C26.394 21.2512 26.2265 21.5211 26.0688 21.7911C25.793 22.2634 25.4876 22.784 25.1477 23.3528C24.8669 23.8204 24.5713 24.3217 24.2511 24.8519C24.0097 25.252 23.793 25.6232 23.6009 25.9606C23.5565 26.0329 23.5122 26.1148 23.4629 26.1968C23.0294 26.9198 22.6206 27.6091 22.2314 28.2695C22.059 28.5635 21.8915 28.8479 21.724 29.1275C21.6009 29.3347 21.4826 29.5324 21.3693 29.73C21.0048 30.3518 20.6452 30.964 20.2856 31.5713C20.1723 31.7642 20.0885 31.8943 20.0393 31.957L20.0294 31.9425Z" fill="#FBEE4F"/>
<path d="M19.9803 16.7676V16.7772C19.9803 16.8061 19.9803 16.8399 19.9852 16.8736C19.9901 16.9122 19.9951 16.9507 19.9951 16.9845C19.9901 20.9853 19.9901 24.9957 19.9951 29.011C19.9951 30.0474 19.9951 30.8716 19.9852 31.4741C19.9852 31.6525 19.9951 31.8067 20.0246 31.9417C20.0345 31.9755 20.0246 31.9947 20 31.9996C19.9901 31.9996 19.9754 31.9996 19.9704 31.9851C19.9163 31.908 19.8621 31.8357 19.8128 31.7537C19.5419 31.291 19.2808 30.8475 19.0296 30.4282C18.67 29.8208 18.2906 29.1797 17.8966 28.5049C17.8227 28.3844 17.7537 28.2639 17.6798 28.1434C17.5567 27.9457 17.4483 27.7336 17.3251 27.5312C17.0443 27.0733 16.7783 26.5912 16.4975 26.1333C16.2365 25.7091 15.9852 25.285 15.7438 24.8656C15.4089 24.292 15.0591 23.7232 14.734 23.1448C14.6995 23.0869 14.6601 23.0339 14.6256 22.9761C14.4286 22.6242 14.2118 22.2916 14.0197 21.9397C13.8621 21.6601 13.6946 21.395 13.532 21.1154C13.2266 20.59 12.9163 20.0598 12.5911 19.5296C12.4729 19.3319 12.3547 19.1343 12.2463 18.9415C11.9704 18.4547 11.6798 17.9775 11.399 17.5051C11.2808 17.3026 11.1527 17.0954 11.0197 16.8784C11.0099 16.864 11 16.8399 11 16.8158C11.0542 16.7869 11.0985 16.7724 11.1281 16.7724C13.9852 16.7724 16.8424 16.7724 19.6995 16.7724C19.7931 16.7724 19.8818 16.7724 19.9754 16.7676H19.9803Z" fill="#4BA690"/>
</g>
<circle cx="20" cy="20" r="19.5" stroke="black" stroke-opacity="0.05"/>
<defs>
<clipPath id="clip0_9_397707">
<rect width="18" height="24" fill="white" transform="translate(11 8)"/>
</clipPath>
</defs>
</svg>
