<svg width="40" height="40" viewBox="0 0 40 40" fill="none" xmlns="http://www.w3.org/2000/svg">
<circle cx="20" cy="20" r="20" fill="#EE3224"/>
<g clip-path="url(#clip0_9_411287)">
<path d="M25.4812 20.0071C25.544 23.134 22.7189 25.7146 20.3572 25.7146H14.5195L10.8572 29.1431H20.2937C23.3063 29.1431 26.1966 26.4329 26.1966 23.1974C26.1966 22.2471 26.0812 21.0094 25.4812 20.0711V20.0071ZM24.4795 22.286C24.8435 21.6351 25.0223 21.2671 25.0663 20.5717H22.4177C22.4177 21.2169 22.3103 21.5717 22.068 22.286H24.4795ZM21.8955 22.8574C21.5949 23.6226 20.8806 24.6003 20.1857 25.1431C21.5315 25.1431 23.0692 24.5729 24.1932 22.8574H21.8955ZM21.5949 22.286C21.8315 21.6351 21.9395 21.2671 22.0035 20.5717H17.9966C18.0606 21.2671 18.1686 21.6351 18.4046 22.286H21.5949ZM17.9463 22.286C17.7103 21.5717 17.5823 21.2174 17.5823 20.5717H14.9343C14.9977 21.2671 15.1703 21.6351 15.5206 22.286H17.9463ZM20 24.8574C20.5229 24.3849 21.1166 23.5083 21.4166 22.8574H18.5829C18.8835 23.5083 19.464 24.3849 20 24.8574ZM15.7572 22.8574C16.9309 24.5729 18.4686 25.1431 19.8343 25.1431C19.1189 24.5997 18.3606 23.6226 18.1172 22.8574H15.7572ZM22.068 17.7146C22.3103 18.346 22.4177 19.286 22.4177 20.0003H25.0663C25.0223 19.286 24.8435 18.346 24.4795 17.7146H22.068ZM24.1932 17.1431C23.0692 15.4974 21.5315 14.9986 20.1857 14.9986C20.8806 15.522 21.5949 16.3654 21.8955 17.1431H24.1932ZM18.4046 17.7146C18.1686 18.346 18.0606 19.286 17.9966 20.0003H22.0035C21.9395 19.286 21.8309 18.346 21.5949 17.7146H18.4046ZM15.5212 17.7146C15.1709 18.346 14.9983 19.286 14.9349 20.0003H17.5823C17.5823 19.286 17.7103 18.346 17.9469 17.7146H15.5212ZM20.0069 15.4574C19.4709 15.93 18.884 16.4923 18.584 17.1431H21.4172C21.1166 16.4923 20.5297 15.93 20.0069 15.4574ZM18.1177 17.1431C18.3612 16.3649 19.1195 15.5214 19.8349 14.9986C18.4692 14.9986 16.9309 15.4969 15.7577 17.1431H18.1177ZM14.5195 19.9431C13.9332 19.0117 13.7143 17.8083 13.7143 16.8574C13.7143 13.622 16.6955 10.8574 19.7057 10.8574H29.144L25.4812 14.286H19.6429C17.2955 14.286 14.4549 16.9317 14.5195 19.9431Z" fill="white"/>
</g>
<circle cx="20" cy="20" r="19.5" stroke="black" stroke-opacity="0.05"/>
<defs>
<clipPath id="clip0_9_411287">
<rect width="20" height="20" fill="white" transform="translate(10 10)"/>
</clipPath>
</defs>
</svg>
