<svg width="40" height="40" viewBox="0 0 40 40" fill="none" xmlns="http://www.w3.org/2000/svg">
<circle cx="20" cy="20" r="20" fill="#F6F8FA"/>
<g clip-path="url(#clip0_9_400045)">
<path d="M20.0286 8.61057C20.3236 9.04272 21.0014 10.0377 21.555 11.3284C20.9936 11.922 20.4407 12.6234 20.0021 13.4156C19.5593 12.6234 19.0064 11.9227 18.4493 11.3284C19.0029 10.0377 19.6807 9.04272 19.9757 8.61057L20.0021 8.57129L20.0286 8.61057ZM16.0929 9.30272C16.5286 9.61843 17.4943 10.3199 18.4493 11.3284C18.1293 12.0749 17.8514 12.9163 17.7143 13.8113C17.025 13.2177 16.2621 12.7449 15.5314 12.3763C15.49 13.1813 15.5221 14.072 15.705 14.9534C14.8507 14.6249 13.9693 14.4406 13.1521 14.342C12.7229 12.9613 12.595 11.7377 12.545 11.2427L12.62 11.2641C13.1414 11.4156 14.2893 11.7477 15.5314 12.3763C15.6007 11.0027 15.885 9.85772 16.015 9.33486L16.0336 9.25915L16.0929 9.302V9.30272ZM19.9757 31.3891C19.6807 30.957 19.0029 29.962 18.4493 28.6713C19.0064 28.0734 19.5593 27.3763 20.0021 26.5841C20.4407 27.3763 20.9936 28.0734 21.555 28.6713C21.0014 29.962 20.3236 30.957 20.0293 31.3891L20.0021 31.4284L19.9757 31.3891ZM13.1521 25.6577C13.9693 25.5591 14.8507 25.3699 15.705 25.042C15.5221 25.932 15.4907 26.8134 15.5314 27.6234C16.2621 27.2549 17.0243 26.782 17.7143 26.1884C17.8514 27.0791 18.1293 27.9241 18.4493 28.6713C17.495 29.6799 16.5286 30.3813 16.0929 30.697L16.0336 30.7399L16.015 30.6649C15.885 30.142 15.6007 28.997 15.5314 27.6234C14.2464 28.2734 13.0636 28.6063 12.5693 28.7449L12.5443 28.752C12.5943 28.262 12.7236 27.0384 13.1521 25.6577ZM13.1521 25.6577C13.3943 24.8841 13.7364 24.0613 14.2114 23.292C13.2936 23.3149 12.4029 23.1934 11.5993 23.0084C10.75 24.1227 10.215 25.1899 9.97643 25.6649L9.95071 25.7163L10.0114 25.7199C10.5479 25.7541 11.7543 25.8313 13.1521 25.6577ZM23.9021 30.6906C23.4621 30.3713 22.4986 29.6727 21.555 28.6713C21.875 27.9249 22.1486 27.0791 22.2857 26.1884C22.9757 26.782 23.7379 27.2549 24.4686 27.6234C24.5215 26.7593 24.4648 25.8919 24.3 25.042C25.1536 25.3706 26.0357 25.5591 26.8479 25.6577C27.2636 26.9813 27.3943 28.1606 27.4529 28.6877L27.46 28.752L27.4507 28.7499C26.9607 28.6134 25.7664 28.2806 24.4686 27.6234C24.3986 29.0141 24.1114 30.1706 23.985 30.6841L23.9707 30.7406L23.9021 30.6906ZM14.2121 16.7077C13.7633 15.9656 13.4068 15.171 13.1521 14.342C11.755 14.1684 10.5486 14.2456 10.0121 14.2791L9.95143 14.2834L9.97714 14.3349C10.215 14.8091 10.7507 15.877 11.6 16.9863C12.4036 16.8063 13.2943 16.6849 14.2121 16.7077ZM26.8479 25.6577C26.6057 24.8841 26.2686 24.0613 25.7893 23.292C26.7114 23.3149 27.6021 23.1934 28.4014 23.0084C29.2843 24.1599 29.8264 25.2627 30.0471 25.7113L30.05 25.7163L29.9936 25.7199C29.4629 25.7541 28.2529 25.8313 26.8479 25.6577ZM11.6 16.9863C10.1914 17.3056 9.06714 17.7991 8.59286 18.0077L8.57214 18.0163L8.65929 18.097C9.06786 18.477 9.92071 19.2691 11.0614 19.9999C9.92929 20.7213 9.08 21.5113 8.66786 21.8941L8.57214 21.9834L8.65643 22.0191C9.16214 22.2377 10.25 22.7077 11.5993 23.0084C12.0971 22.3656 12.7 21.7084 13.4179 21.142C12.55 20.8541 11.7507 20.4406 11.0607 19.9999C11.7507 19.5591 12.55 19.1456 13.4179 18.857C12.7007 18.2906 12.0979 17.6341 11.6 16.9863ZM26.5879 21.1427C27.4557 20.8549 28.25 20.4413 28.94 20.0006C30.1014 20.7377 30.9629 21.547 31.3607 21.9199L31.4286 21.9841L31.3643 22.012C30.8714 22.2263 29.7714 22.7041 28.4007 23.0091C27.9079 22.3663 27.3007 21.7091 26.5879 21.1427ZM28.94 20.0006C28.25 19.5599 27.4557 19.1456 26.5879 18.857C27.2667 18.3102 27.8755 17.6819 28.4007 16.9863C29.835 17.3106 30.9721 17.8141 31.4286 18.0163L31.37 18.0713C30.9771 18.4399 30.1107 19.2527 28.94 20.0006ZM30.0471 14.2884C29.8257 14.737 29.2829 15.8391 28.4007 16.9863C27.6014 16.8063 26.7107 16.6849 25.7886 16.7077C26.2679 15.9341 26.6057 15.1149 26.8479 14.342C28.2529 14.1684 29.4621 14.2456 29.9929 14.2799L30.05 14.2834L30.0471 14.2884ZM26.8479 14.342C26.035 14.4406 25.1536 14.6249 24.3 14.9534C24.4779 14.0677 24.5143 13.182 24.4686 12.3763C23.7379 12.7449 22.9757 13.217 22.2857 13.8113C22.1486 12.9163 21.875 12.0756 21.555 11.3284C22.4979 10.327 23.4621 9.62843 23.9029 9.30915L23.9707 9.25915L23.985 9.31557C24.1121 9.82915 24.3986 10.9856 24.4686 12.3763C25.7229 11.7413 26.88 11.4091 27.3986 11.2606L27.46 11.2427L27.4529 11.302C27.3957 11.8306 27.2657 13.0134 26.8479 14.342Z" fill="#168A44"/>
<path d="M22.2858 13.811C21.7009 14.3107 21.1985 14.8996 20.7972 15.556C20.6501 14.804 20.3816 14.081 20.0022 13.4153C19.6231 14.081 19.3548 14.804 19.2079 15.556C18.8063 14.8984 18.302 14.3093 17.7143 13.811C17.5919 14.5659 17.5905 15.3356 17.7101 16.091C17.0929 15.5917 16.4079 15.2274 15.7051 14.9531C15.5222 14.0717 15.4908 13.1817 15.5315 12.376C16.2622 12.7446 17.0243 13.2167 17.7143 13.811C17.8515 12.916 18.1301 12.0753 18.4501 11.3281C19.0072 11.9217 19.5593 12.6231 20.0022 13.4153C20.4408 12.6231 20.9936 11.9224 21.5551 11.3281C21.8751 12.0746 22.1486 12.916 22.2858 13.811C22.9751 13.2174 23.7379 12.7446 24.4686 12.376C24.5215 13.2387 24.4649 14.1046 24.3001 14.9531C23.5965 15.2274 22.9072 15.5917 22.2901 16.091C22.4229 15.3174 22.4001 14.5481 22.2858 13.811ZM20.0022 26.5838C20.3809 25.9178 20.6493 25.1949 20.7972 24.4431C21.2036 25.1181 21.7193 25.6931 22.2858 26.1881C22.4001 25.451 22.4229 24.681 22.2901 23.9081C22.8974 24.3876 23.5755 24.77 24.3001 25.0417C24.4779 25.9317 24.5143 26.8131 24.4686 27.6231C23.7379 27.2546 22.9758 26.7817 22.2858 26.1881C22.1486 27.0788 21.8751 27.9238 21.5551 28.671C20.9936 28.0731 20.4408 27.376 20.0022 26.5838ZM19.2079 24.4431C19.3555 25.1948 19.6238 25.9177 20.0022 26.5838C19.5593 27.376 19.0065 28.0731 18.4493 28.671C18.1301 27.9246 17.8515 27.0788 17.7143 26.1881C17.0251 26.7817 16.2622 27.2546 15.5315 27.6231C15.4901 26.8138 15.5222 25.9317 15.7051 25.0417C16.4281 24.7699 17.1045 24.3875 17.7101 23.9081C17.5905 24.6635 17.5919 25.4332 17.7143 26.1881C18.2858 25.6938 18.8015 25.1181 19.2072 24.4431H19.2079ZM16.4951 17.0996C16.1168 16.432 15.85 15.7073 15.7051 14.9538C14.8508 14.6253 13.9693 14.441 13.1522 14.3424C13.3943 15.116 13.7365 15.9346 14.2115 16.7081C14.9651 16.726 15.7415 16.8381 16.4951 17.0996ZM15.6958 18.4574C14.9008 18.4667 14.1336 18.6146 13.4172 18.8574C12.7001 18.291 12.0972 17.6346 11.5993 16.9867C12.4029 16.8067 13.2936 16.6853 14.2115 16.7081C14.6043 17.3424 15.0929 17.9438 15.6958 18.4574ZM15.4215 19.9996C14.6729 19.7253 14.0058 19.3217 13.4172 18.8574C12.5493 19.146 11.7501 19.5588 11.0601 19.9996C11.7501 20.4403 12.5493 20.8538 13.4172 21.1424C14.0058 20.6781 14.6729 20.2738 15.4215 19.9996ZM15.6958 21.5424C15.1109 22.0429 14.6098 22.6337 14.2115 23.2924C13.2936 23.3138 12.4029 23.1924 11.5993 23.0088C12.0972 22.366 12.6993 21.7096 13.4172 21.1424C14.1515 21.3928 14.9201 21.5277 15.6958 21.5424ZM16.4951 22.9003C15.7415 23.1617 14.9651 23.2746 14.2115 23.2924C13.7365 24.0617 13.3943 24.8846 13.1522 25.6574C13.9693 25.5588 14.8508 25.3696 15.7051 25.0417C15.8508 24.2898 16.1176 23.5666 16.4951 22.9003ZM23.5093 22.9003C23.9022 23.5846 24.1493 24.3131 24.3001 25.0417C25.1536 25.3703 26.0358 25.5588 26.8479 25.6574C26.6058 24.8838 26.2679 24.061 25.7886 23.2917C26.7108 23.3146 27.6015 23.1931 28.4008 23.0088C27.9079 22.366 27.3008 21.7088 26.5879 21.1417C25.852 21.3925 25.0817 21.5275 24.3043 21.5417C24.8917 22.0397 25.3932 22.6309 25.7886 23.2917C25.0351 23.2738 24.2629 23.1617 23.5101 22.9003H23.5093ZM26.5879 21.1417C25.9943 20.6788 25.3272 20.2738 24.5829 19.9996C25.3272 19.7253 25.9943 19.321 26.5879 18.8567C27.4558 19.1453 28.2501 19.5588 28.9401 19.9996C28.2501 20.4403 27.4558 20.8531 26.5879 21.1417ZM25.7879 16.7074C25.3904 17.3665 24.8894 17.9573 24.3043 18.4574C25.1036 18.466 25.8708 18.6138 26.5879 18.8567C27.2668 18.3097 27.8756 17.6819 28.4008 16.986C27.6015 16.806 26.7101 16.6846 25.7879 16.7074ZM25.7879 16.7074C25.0351 16.7253 24.2629 16.8374 23.5093 17.0988C23.9022 16.4153 24.1493 15.6867 24.3001 14.9531C25.1536 14.6246 26.0358 14.4403 26.8479 14.3417C26.6058 15.1153 26.2672 15.9338 25.7879 16.7074Z" fill="#5BB046"/>
<path d="M19.2071 17.8592C18.8239 17.1809 18.3159 16.5811 17.71 16.0914C17.8379 16.8557 18.1106 17.5886 18.5135 18.2507C17.9172 17.746 17.2329 17.3556 16.495 17.0992C16.8789 17.7759 17.3888 18.3728 17.9971 18.8578C17.2609 18.5849 16.4808 18.4493 15.6957 18.4578C16.2935 18.9614 16.9793 19.35 17.7185 19.6042C16.9349 19.592 16.1558 19.7262 15.4214 20C16.1564 20.2716 16.935 20.4057 17.7185 20.3957C16.9793 20.6501 16.2935 21.039 15.6957 21.5428C16.4813 21.5517 17.2617 21.4144 17.9971 21.1378C17.3887 21.6244 16.8788 22.2227 16.495 22.9007C17.2331 22.6427 17.9174 22.2509 18.5135 21.745C18.1113 22.4089 17.8386 23.143 17.71 23.9085C18.3162 23.4189 18.8244 22.8191 19.2078 22.1407C19.0616 22.9013 19.0616 23.6829 19.2078 24.4435C19.6061 23.7786 19.8755 23.0446 20.0021 22.28C20.1288 23.0449 20.3985 23.7792 20.7971 24.4442C20.9417 23.683 20.94 22.9012 20.7921 22.1407C21.1769 22.8181 21.6849 23.4177 22.29 23.9085C22.1633 23.1425 21.8905 22.4079 21.4864 21.745C22.0841 22.251 22.7698 22.6427 23.5092 22.9007C23.124 22.2237 22.6143 21.6256 22.0071 21.1378C22.7928 21.4307 23.56 21.5521 24.3042 21.5428C23.7064 21.039 23.0206 20.6501 22.2814 20.3957C23.0663 20.4056 23.8463 20.2715 24.5828 20C23.8469 19.7262 23.0664 19.592 22.2814 19.6042C23.0206 19.3498 23.7064 18.9609 24.3042 18.4571C23.5205 18.4486 22.7419 18.5842 22.0071 18.8571C22.6143 18.3711 23.1242 17.7746 23.51 17.0992C22.7704 17.3555 22.0844 17.7458 21.4864 18.2507C21.8912 17.5896 22.1641 16.8563 22.29 16.0914C21.685 16.5823 21.177 17.1818 20.7921 17.8592C20.94 17.0989 20.9417 16.3174 20.7971 15.5564C20.3978 16.2209 20.1281 16.955 20.0021 17.72C19.8764 16.9548 19.6069 16.2204 19.2078 15.5557C19.0614 16.3165 19.0614 17.0984 19.2078 17.8592H19.2071Z" fill="white"/>
<path d="M20.7971 15.5567C20.65 14.8047 20.3815 14.0817 20.0021 13.416C19.623 14.0818 19.3547 14.8048 19.2078 15.5567C19.5864 16.186 19.865 16.906 20.0021 17.7203C20.128 16.9551 20.3978 16.2215 20.7971 15.5567C20.9417 16.3179 20.94 17.099 20.7921 17.8596C21.177 17.1822 21.685 16.5826 22.29 16.0917C22.4228 15.3182 22.4 14.5489 22.2857 13.8117C21.7008 14.3115 21.1984 14.9004 20.7971 15.5567ZM19.2078 15.5567C19.0615 16.3174 19.0615 17.0989 19.2078 17.8596C18.8244 17.1812 18.3162 16.5814 17.71 16.0917C17.8379 16.8561 18.1106 17.589 18.5135 18.251C17.9172 17.7464 17.2329 17.356 16.495 17.0996C16.879 17.7762 17.3888 18.3731 17.9971 18.8582C17.2609 18.5853 16.4808 18.4497 15.6957 18.4582C15.1128 17.9557 14.612 17.3652 14.2114 16.7082C14.965 16.726 15.7414 16.8382 16.495 17.0996C16.1167 16.4321 15.8499 15.7073 15.705 14.9539C16.4078 15.2282 17.0928 15.5924 17.71 16.0917C17.5814 15.3182 17.6 14.5489 17.7143 13.8117C18.3017 14.3101 18.8057 14.8992 19.2071 15.5567H19.2078ZM20.7971 24.4439C20.9416 23.6829 20.9399 22.9014 20.7921 22.141C21.177 22.8184 21.685 23.418 22.29 23.9089C22.4228 24.6824 22.4 25.4517 22.2857 26.1889C21.7193 25.6946 21.2035 25.1189 20.7971 24.4439C20.6493 25.1959 20.3809 25.919 20.0021 26.5853C19.6236 25.919 19.3554 25.1958 19.2078 24.4439C19.5864 23.8096 19.865 23.0946 20.0021 22.281C20.1289 23.0455 20.3986 23.7792 20.7971 24.4439ZM24.3 25.0424C23.5754 24.7708 22.8973 24.3884 22.29 23.9089C22.1634 23.1428 21.8906 22.4083 21.4864 21.7453C22.0841 22.2513 22.7698 22.6431 23.5093 22.901C23.124 22.2241 22.6143 21.626 22.0071 21.1382C22.7928 21.431 23.56 21.5524 24.3043 21.5432C24.8916 22.0412 25.3931 22.6324 25.7885 23.2932C25.035 23.2746 24.2628 23.1624 23.51 22.901C23.9028 23.5853 24.1493 24.3139 24.3 25.0424ZM17.7185 19.6046C16.9793 19.3502 16.2935 18.9619 15.6957 18.4582C14.9007 18.4674 14.1335 18.6146 13.4171 18.8574C14.0057 19.3217 14.6728 19.726 15.4214 20.0003C14.6728 20.2746 14.0057 20.6789 13.4171 21.1432C14.1514 21.3935 14.92 21.5285 15.6957 21.5432C16.2935 21.0394 16.9793 20.6505 17.7185 20.396C16.935 20.4061 16.1564 20.2719 15.4214 20.0003C16.1558 19.7265 16.9349 19.5923 17.7185 19.6046ZM24.3043 21.5432C23.7062 21.0393 23.0202 20.6504 22.2807 20.396C23.0658 20.4061 23.8461 20.272 24.5828 20.0003C23.8469 19.7266 23.0665 19.5924 22.2814 19.6046C23.0206 19.3502 23.7064 18.9612 24.3043 18.4574C23.5205 18.449 22.7419 18.5846 22.0071 18.8574C22.6143 18.3714 23.1242 17.775 23.51 17.0996C22.7705 17.3559 22.0845 17.7462 21.4864 18.251C21.8912 17.5899 22.1641 16.8566 22.29 16.0917C22.9064 15.5924 23.5964 15.2282 24.3 14.9539C24.1493 15.6874 23.9021 16.416 23.5093 17.0996C24.2628 16.8382 25.035 16.726 25.7878 16.7082C25.3902 17.3672 24.8893 17.9573 24.3043 18.4574C25.1035 18.466 25.8707 18.6153 26.5878 18.8582C25.9943 19.321 25.3271 19.726 24.5828 20.0003C25.3271 20.2746 25.9943 20.6789 26.5878 21.1432C25.852 21.394 25.0816 21.5289 24.3043 21.5432ZM17.71 23.9089C17.1044 24.3883 16.428 24.7707 15.705 25.0424C15.8506 24.2906 16.1174 23.5674 16.495 22.901C17.2331 22.643 17.9174 22.2512 18.5135 21.7453C18.1113 22.4092 17.8386 23.1434 17.71 23.9089C18.3162 23.4192 18.8244 22.8194 19.2078 22.141C19.0616 22.9017 19.0616 23.6832 19.2078 24.4439C18.8007 25.1189 18.285 25.6939 17.7143 26.1889C17.5917 25.4339 17.5903 24.6643 17.71 23.9089ZM16.495 22.901C15.7414 23.1617 14.965 23.2746 14.2114 23.2924C14.6097 22.6337 15.1108 22.0436 15.6957 21.5432C16.4813 21.5523 17.2617 21.4145 17.9971 21.1382C17.3887 21.6248 16.8788 22.2231 16.495 22.901Z" fill="#FEDC00"/>
</g>
<circle cx="20" cy="20" r="19.5" stroke="black" stroke-opacity="0.05"/>
<defs>
<clipPath id="clip0_9_400045">
<rect width="24" height="24" fill="white" transform="translate(8 8)"/>
</clipPath>
</defs>
</svg>
