<svg width="40" height="40" viewBox="0 0 40 40" fill="none" xmlns="http://www.w3.org/2000/svg">
<circle cx="20" cy="20" r="20" fill="#F6F8FA"/>
<g clip-path="url(#clip0_9_404226)">
<path d="M9.82157 23.501C9.82157 24.6682 9.22443 25.4282 8.10478 25.4282C6.99193 25.4282 6.42871 24.6682 6.42871 23.5078V13.2139H7.78585V17.1292C7.89443 16.8578 8.1455 16.5864 8.46443 16.6067C9.31943 16.6067 9.82157 17.3871 9.82157 18.5542V23.5078V23.501ZM7.78585 23.5078C7.78585 23.881 7.7655 24.071 8.10478 24.071C8.44407 24.071 8.47121 23.9353 8.46443 23.5553V18.6017C8.46443 18.2285 8.44407 17.9639 8.10478 17.9639C7.77228 17.9639 7.78585 18.181 7.78585 18.5542V23.5078ZM12.1966 22.0353V23.501C12.1966 23.881 12.1966 24.071 12.5359 24.071C12.8751 24.071 12.8751 23.881 12.8751 23.501V22.7139L14.2323 22.7207V23.5214C14.2323 24.6749 13.6759 25.4282 12.5562 25.4349C11.4366 25.4349 10.8326 24.6885 10.8394 23.5214V18.6424C10.8394 17.4821 11.423 16.6067 12.5359 16.6067C13.6487 16.6067 14.2323 17.4821 14.2323 18.6424V22.0353H12.1966ZM12.1966 20.6782H12.8751L12.8616 18.5542C12.8616 18.181 12.8751 17.9639 12.5359 17.9639C12.1966 17.9639 12.183 18.1742 12.183 18.5542L12.1966 20.6782ZM16.6073 25.4282H15.2501V13.2139H16.6073V25.4282ZM18.9823 25.4282H17.6455V13.2139H18.9823V25.4282ZM20.0001 18.7442C20.0001 17.5771 20.5769 16.7424 22.0359 16.6067V17.9639C21.3573 18.0996 21.3573 18.371 21.3573 18.7442V25.4282H20.0001V18.7442ZM27.1251 25.4282H25.768V18.4117C25.768 17.2107 26.2973 16.6067 27.4644 16.6067C28.6316 16.6067 29.1609 17.2039 29.1609 18.4117V25.4282H27.8037V18.6424C27.8037 18.2557 27.8037 17.9639 27.4644 17.9639C27.1251 17.9639 27.1251 18.2557 27.1251 18.6424V25.4282ZM33.5716 26.3374C33.5716 27.5385 33.0423 28.1424 31.8751 28.1424C30.708 28.1424 29.8394 27.5385 29.8394 26.3374V26.1067H31.1966V26.3374C31.1966 26.7242 31.468 26.7853 31.8209 26.7853C32.1737 26.7853 32.2144 26.7174 32.2144 26.3374V25.2924C32.2144 25.2924 32.0651 25.4282 31.8751 25.4282C30.708 25.4282 30.1787 24.8717 30.1787 23.6639V18.6424C30.1787 17.4414 30.708 16.6067 31.8751 16.6067C33.0423 16.6067 33.5716 17.4414 33.5716 18.6424V26.3374ZM32.2144 23.3924V18.6424C32.2144 18.2557 32.228 17.9639 31.8751 17.9639C31.5223 17.9639 31.5359 18.2557 31.5359 18.6424V23.3924C31.5359 23.7792 31.5359 24.071 31.8751 24.071C32.2144 24.071 32.2144 23.7724 32.2144 23.3924Z" fill="#F04042"/>
<path d="M25.1432 25.0896L23.976 25.2728L22.7139 16.7906L23.881 16.6074L25.1432 25.0896Z" fill="#F68C5F"/>
<path d="M24.7499 27.4646C25.1246 27.4646 25.4284 27.1608 25.4284 26.786C25.4284 26.4112 25.1246 26.1074 24.7499 26.1074C24.3751 26.1074 24.0713 26.4112 24.0713 26.786C24.0713 27.1608 24.3751 27.4646 24.7499 27.4646Z" fill="#F68C5F"/>
</g>
<circle cx="20" cy="20" r="19.5" stroke="black" stroke-opacity="0.05"/>
<defs>
<clipPath id="clip0_9_404226">
<rect width="28" height="16" fill="white" transform="translate(6 13)"/>
</clipPath>
</defs>
</svg>
