<svg width="40" height="40" viewBox="0 0 40 40" fill="none" xmlns="http://www.w3.org/2000/svg">
<circle cx="20" cy="20" r="20" fill="#0069B3"/>
<g clip-path="url(#clip0_9_388661)">
<path fill-rule="evenodd" clip-rule="evenodd" d="M30.4846 18.2227H33.8722C34.3082 18.242 34.4923 18.3622 34.6396 18.494C34.7869 18.6277 34.9245 18.932 34.9129 19.2382C34.9013 19.5444 34.8257 19.8137 34.6202 20.025C34.4148 20.2382 34.0892 20.273 34.0892 20.273L34.9865 21.7459H33.3373L32.5311 20.4068H31.9827V21.7459H30.4846V18.2227ZM33.2016 19.5599C33.2016 19.5599 33.2637 19.5521 33.2927 19.5075C33.3218 19.4649 33.3315 19.4048 33.3315 19.3564C33.3315 19.3099 33.3276 19.2653 33.2927 19.2072C33.2559 19.149 33.19 19.149 33.19 19.149H31.9807V19.5599H33.2016ZM25.5602 18.2227H29.6629V19.1413H27.064V19.523H29.0524V20.3874H27.064V20.7711H29.6629V21.7401H25.5602V18.2227ZM20.5214 18.2227H21.9361V19.3641L23.0679 18.2227H24.973L23.566 19.4785L25.1183 21.7517H23.3392L22.4187 20.3486L21.9361 20.7304V21.7517H20.5214V18.2227ZM16.9439 18.2227V20.3641C16.9439 20.3641 16.9439 20.5618 17.0466 20.6393C17.1513 20.7188 17.2578 20.7944 17.5737 20.7944C17.8916 20.7944 18.035 20.6723 18.0544 20.6451L18.1086 20.5812C18.1299 20.5463 18.1513 20.494 18.1571 20.4068C18.1668 20.2323 18.1571 18.2227 18.1571 18.2227H19.5815V20.4727C19.5815 20.4727 19.5815 20.9843 19.2598 21.2789C19.2598 21.2789 19.0214 21.5269 18.6067 21.6393C18.6067 21.6393 18.0873 21.7982 17.5427 21.7905C17.0854 21.7827 16.7656 21.7556 16.2869 21.5889C15.9071 21.4572 15.7423 21.2827 15.7171 21.2556L15.6609 21.1975C15.6319 21.1645 15.597 21.1141 15.5621 21.0482C15.4923 20.9126 15.4284 20.7072 15.4303 20.4068V18.2227H16.9439ZM10.3199 18.2227H13.7075C14.1435 18.242 14.3276 18.3622 14.4749 18.494C14.6222 18.6258 14.7598 18.932 14.7482 19.2382C14.7365 19.5444 14.6609 19.8118 14.4555 20.025C14.2501 20.2382 13.9245 20.273 13.9245 20.273L14.8199 21.744H13.1726L12.3664 20.4068H11.816V21.744H10.3199V18.2227ZM13.0369 19.5599C13.0369 19.5599 13.097 19.5521 13.128 19.5075C13.1571 19.4649 13.1668 19.4029 13.1668 19.3544C13.1668 19.3041 13.1648 19.2595 13.128 19.1994C13.0931 19.1413 13.0253 19.1413 13.0253 19.1413H11.816V19.5599H13.0369ZM5.01172 18.2246H8.72877C8.72877 18.2246 9.07373 18.2246 9.22102 18.3932C9.36831 18.5599 9.40901 18.7323 9.4187 18.9591C9.42839 19.1839 9.3373 19.4145 9.20939 19.5482C9.20939 19.5482 9.09893 19.6548 8.93226 19.7168C8.93226 19.7168 9.1997 19.8196 9.31792 19.961L9.38381 20.0385C9.40707 20.0676 9.4342 20.1064 9.45746 20.1568C9.5059 20.2595 9.5466 20.4145 9.55629 20.6684C9.56404 20.9203 9.50203 21.1161 9.43226 21.2537C9.39738 21.3234 9.36056 21.3796 9.32955 21.4203L9.26172 21.5017C9.21327 21.5579 8.98459 21.7459 8.59699 21.7459H5.01172V18.2246ZM6.5311 19.1413V19.5696H7.75203C7.77141 19.5696 7.80048 19.5657 7.8373 19.5192C7.878 19.4668 7.87994 19.3893 7.87994 19.3603C7.87994 19.3331 7.87606 19.2575 7.83342 19.1955C7.79273 19.1354 7.72877 19.1413 7.72877 19.1413H6.5311ZM6.5311 20.3525V20.7711H7.98459C7.99621 20.7711 8.0311 20.7634 8.05629 20.7304C8.10087 20.6703 8.10474 20.5851 8.10474 20.5657V20.5037C8.09699 20.4746 8.0873 20.4416 8.06792 20.4087C8.02335 20.3467 7.95552 20.3525 7.95552 20.3525H6.5311Z" fill="white"/>
<path d="M19.6743 15.1802L19.4282 15.3392C18.3526 16.0427 17.1782 16.9089 15.8913 17.9768L16.0909 17.9806H16.5406L17.1975 17.9768C17.7537 17.4361 18.9223 16.5427 20.244 15.719L20.4088 15.6182L20.7382 15.8217C21.8254 16.5078 22.8564 17.2461 23.7499 17.9768L24.1278 17.9826H24.463L24.4882 17.9768C24.1956 17.7849 23.8797 17.5427 23.5095 17.2578L22.9088 16.7985L22.2014 16.2771C21.8157 16.002 21.3797 15.7054 20.8797 15.3915L20.8351 15.3624L21.1452 15.1822C21.9049 14.752 22.682 14.3721 23.3971 14.1124C25.7634 13.0814 28.9475 12.5349 29.8797 13.5969C30.9727 14.8411 29.0716 17.3392 28.5754 17.9768H29.1626C29.7983 17.0058 30.684 15.6337 30.6394 14.3915C30.6278 14.1124 30.5483 12.3876 27.9882 12.3876C26.0406 12.3876 23.684 12.7558 20.3274 14.7733L20.0968 14.9147L19.7925 14.7345C19.2014 14.3954 18.5347 14.0388 17.7828 13.6667C17.3933 13.4806 17.0018 13.3101 16.6103 13.157L16.1181 12.9729L16.12 12.907C16.12 12.407 15.715 12.002 15.213 12.002C14.87 12.002 14.5716 12.1938 14.4165 12.4748V12.4768L14.3235 12.4554C12.4902 12.0582 10.9223 12.1551 10.1762 12.8876C8.67815 14.3915 11.339 17.9768 11.339 17.9768H12.2673C12.2518 17.9361 12.1937 17.8547 12.1064 17.7345L11.7731 17.283C11.5115 16.9244 11.184 16.4613 10.8991 15.9709C10.3274 14.9884 9.92234 13.8895 10.5309 13.2733C11.2828 12.533 12.5968 12.4651 14.1646 12.8275L14.3099 12.8644L14.308 12.907C14.308 13.4089 14.713 13.814 15.213 13.814C15.527 13.814 15.8022 13.6551 15.9669 13.4147L15.9805 13.3915L16.4282 13.5678C17.3739 13.9516 18.3526 14.4341 19.3138 14.9729L19.6743 15.1802ZM20.0968 25.0795L20.3274 25.2209C23.684 27.2384 26.0406 27.6066 27.9882 27.6066C30.5483 27.6066 30.6278 25.8818 30.6394 25.6047C30.684 24.3605 29.7983 22.9884 29.1626 22.0155H28.5754C29.0716 22.6551 30.9727 25.1531 29.8797 26.3973C28.9475 27.4593 25.7634 26.9128 23.3971 25.8818C22.682 25.6221 21.9049 25.2423 21.1452 24.812L20.8351 24.6318L20.8797 24.6047C21.3797 24.2888 21.8157 23.9923 22.2014 23.7171L22.9088 23.1977L23.5095 22.7384C23.8797 22.4516 24.1956 22.2113 24.4882 22.0194L24.463 22.0136H24.1278L23.7499 22.0194C22.8564 22.7481 21.8254 23.4864 20.7382 24.1725L20.4107 24.376L20.246 24.2752C18.9223 23.4496 17.7537 22.5582 17.1975 22.0155H16.0909L15.8913 22.0194C17.1782 23.0853 18.3526 23.9516 19.4282 24.657L19.6743 24.814L19.3138 25.0213C18.3526 25.5601 17.3739 26.0427 16.4282 26.4283L15.9805 26.6027L15.9669 26.5795C15.8022 26.3392 15.527 26.1802 15.215 26.1802C14.713 26.1802 14.308 26.5853 14.308 27.0872L14.3099 27.1299L14.1646 27.1667C12.5968 27.5291 11.2828 27.4613 10.5309 26.7209C9.92234 26.1047 10.3274 25.0078 10.8991 24.0252C11.184 23.5349 11.5115 23.0717 11.7731 22.7132L12.1084 22.2616C12.1937 22.1415 12.2518 22.0582 12.2673 22.0194H11.339C11.339 22.0194 8.67815 25.6047 10.1762 27.1066C10.9223 27.8392 12.4902 27.9361 14.3235 27.5407L14.4165 27.5175L14.4185 27.5194C14.5716 27.8004 14.87 27.9942 15.215 27.9942C15.715 27.9942 16.12 27.5872 16.12 27.0872L16.1181 27.0213L16.6103 26.8372C17.0018 26.6841 17.3933 26.5136 17.7828 26.3275C18.5347 25.9554 19.2014 25.5989 19.7925 25.2597L20.0968 25.0795Z" fill="white"/>
</g>
<circle cx="20" cy="20" r="19.5" stroke="black" stroke-opacity="0.05"/>
<defs>
<clipPath id="clip0_9_388661">
<rect width="30" height="16.0078" fill="white" transform="translate(5 12)"/>
</clipPath>
</defs>
</svg>
