<svg width="40" height="40" viewBox="0 0 40 40" fill="none" xmlns="http://www.w3.org/2000/svg">
<circle cx="20" cy="20" r="20" fill="#EA1D25"/>
<g clip-path="url(#clip0_9_401948)">
<path d="M24.2504 18.1784C24.2061 17.476 24.0367 16.609 23.6815 16L20.6652 10.4289C20.4372 10.0026 20.273 9.54522 20.1777 9.07129L20.0441 9.30565C19.2907 10.6632 19.2907 12.3954 20.0441 13.753L22.4842 18.2003C23.2383 19.5579 23.2383 21.2906 22.4842 22.6476L22.3507 22.882C22.2554 22.4081 22.0911 21.9507 21.8631 21.5244L19.6452 17.4511L18.2257 14.8294C17.9977 14.4032 17.8335 13.9458 17.7382 13.4719L17.6046 13.7062C16.8506 15.0638 16.8506 16.7492 17.6046 18.1535L20.0447 22.6009C20.7982 23.9584 20.7982 25.6912 20.0447 27.0488L19.9112 27.2825C19.8159 26.8086 19.6516 26.3512 19.4236 25.925L16.363 20.3538C15.9629 19.6052 15.7504 19.0211 15.7504 18.1784C12.5125 19.0679 10.2861 20.7284 10.2861 22.9287C10.2861 26.0191 14.6333 28.4999 20.0004 28.4999C25.3676 28.4999 29.7141 26.0185 29.7141 22.9287C29.7584 20.8219 27.5326 19.0679 24.2504 18.1784Z" fill="white"/>
</g>
<circle cx="20" cy="20" r="19.5" stroke="black" stroke-opacity="0.05"/>
<defs>
<clipPath id="clip0_9_401948">
<rect width="20" height="20" fill="white" transform="translate(10 9)"/>
</clipPath>
</defs>
</svg>
