<svg width="40" height="40" viewBox="0 0 40 40" fill="none" xmlns="http://www.w3.org/2000/svg">
<circle cx="20" cy="20" r="20" fill="#14487C"/>
<g clip-path="url(#clip0_9_400334)">
<path d="M26.4285 23.6468H25.7857V23.8557H27.7142V23.6468H27.1035V19.807C26.9364 19.9819 26.7937 19.9992 26.5269 19.9992H25.7857V20.203H26.4285V23.6468ZM13.5733 23.6474H12.9009V23.857H14.8571V23.6474H14.2142L14.1943 19.8076C14.0259 19.9825 13.9185 19.9999 13.6524 19.9999H12.9009V20.2036H13.5534L13.5733 23.6474ZM29.0289 23.6474H28.3571V23.857H30.2857V23.6474H29.6486V20.2011H30.9285V23.6474H30.5692V23.857H32.2207V23.6474H31.5714V19.8057C31.4036 19.9793 31.3046 19.9973 31.032 19.9973H29.6428V19.357C29.6428 18.5721 29.7424 17.7749 30.6354 17.7749C30.9889 17.7749 31.2499 17.9202 31.2499 18.0713C31.2499 18.1703 31.1632 18.205 31.0937 18.2455C30.9832 18.3034 30.879 18.4146 30.879 18.5772C30.879 18.7984 31.0937 18.9494 31.2789 18.9494C31.5514 18.9494 31.7482 18.7341 31.7482 18.4146C31.7482 18.0366 31.3599 17.566 30.5486 17.566C29.1401 17.566 29.0122 18.5914 29.0122 19.6784V20.0031L28.3571 19.9973V20.2011L29.0115 20.2069V23.6474M7.26302 21.0991C8.12702 21.2811 8.51659 21.8159 8.51659 22.3984C8.51659 23.0689 7.99588 23.6101 7.20002 23.6101C6.38745 23.6101 5.60316 22.9274 5.47716 21.5575H5.25409V23.7689H5.4778C5.49452 23.6217 5.55173 23.5099 5.72338 23.5099C6.04416 23.5099 6.38745 23.857 7.21159 23.857C8.41373 23.857 9.07138 23.11 9.07138 21.9689C9.07138 21.0754 8.63616 20.4106 7.4803 20.122L7.03995 20.0166C6.02102 19.7749 5.72338 19.2927 5.72338 18.8041C5.72338 18.1336 6.22738 17.6804 6.83938 17.6804C7.7953 17.6804 8.36166 18.4744 8.47609 19.4689H8.71073V17.6341H8.49859C8.47609 17.746 8.41888 17.8579 8.24788 17.8579C7.95538 17.8579 7.71495 17.4284 6.81688 17.4284C5.9233 17.4284 5.21423 18.0989 5.21423 19.0986C5.21423 20.1696 5.73495 20.734 6.82202 20.9924L7.26302 21.0991ZM23.8571 22.8927C23.8571 23.4861 23.9734 23.8506 24.5064 23.8506C25.1505 23.8506 25.3646 23.497 25.4636 23.2816L25.3009 23.1711C25.1968 23.3511 25.0997 23.5356 24.8214 23.5356C24.6067 23.5356 24.5012 23.3196 24.5012 22.9827L24.4948 20.2036H25.137V19.9999H24.4999L24.5064 19.0356H24.3495C24.2107 19.8726 23.9902 19.9999 23.2078 19.9999V20.2036L23.8507 20.2101L23.8571 22.8927ZM21.3313 23.6474H21.9285V21.1146C21.9285 20.6427 21.3795 20.401 21.0838 20.401C20.5567 20.401 20.1967 20.8137 20.0231 21.058V23.6474H20.6428V23.857H18.7142V23.6474H19.3462V20.2094H18.7142V19.9999H19.3751C19.7749 19.9999 19.8495 19.9999 19.9999 19.8076V20.7031H20.0173C20.1909 20.4949 20.5727 19.9999 21.2857 19.9999C22.0449 19.9999 22.5694 20.4942 22.5694 21.0869V23.6474H23.2014V23.857H21.3307L21.3313 23.6474ZM12.5724 22.5115C12.4792 22.9711 12.1198 23.5349 11.4937 23.5349C10.8855 23.5349 10.5898 23.1749 10.5898 22.372V21.5581C10.5898 20.7732 10.8791 20.2094 11.5406 20.2094C11.9347 20.2094 12.1545 20.401 12.1545 20.5521C12.1545 20.6337 12.1031 20.6806 12.0504 20.7385C11.9852 20.8079 11.948 20.8991 11.9462 20.9944C11.9462 21.1744 12.0851 21.3544 12.3403 21.3544C12.5782 21.3544 12.7691 21.1686 12.7691 20.878C12.7691 20.4473 12.2651 19.9999 11.4769 19.9999C10.4844 19.9999 9.71423 20.7616 9.71423 21.913C9.71423 22.9654 10.2536 23.8255 11.4127 23.8255C12.1957 23.8255 12.6997 23.1916 12.8038 22.5057H12.5724M35.1874 22.5327C35.0974 22.9956 34.7169 23.5639 34.0657 23.5639C33.4324 23.5639 33.1245 23.2006 33.1245 22.3913V21.571C33.1245 20.7796 33.4267 20.2107 34.1139 20.2107C34.524 20.2107 34.7529 20.4042 34.7529 20.5566C34.7529 20.6389 34.6989 20.6851 34.6449 20.7443C34.5902 20.8086 34.5356 20.8851 34.5356 21.0021C34.5356 21.184 34.6809 21.3659 34.9464 21.3659C35.1874 21.3659 35.3925 21.1782 35.3925 20.8851C35.3925 20.4511 34.8679 19.9999 34.0477 19.9999C33.0165 19.9999 32.2142 20.7681 32.2142 21.9284C32.2142 22.9891 32.7748 23.857 33.9814 23.857C34.7953 23.857 35.3199 23.218 35.4285 22.5263H35.1874M18.0489 22.5713C17.9563 23.083 17.5796 23.5664 16.9882 23.5664C16.3909 23.5664 16.1428 23.2 16.1428 22.4614V21.6244H18.2694C18.3214 21.6244 18.3446 21.6012 18.3446 21.5485V21.4206C18.3446 20.8857 17.8637 20.0256 16.7966 20.0256C15.8696 20.0256 15.1856 20.9384 15.1856 21.9381C15.1856 23.1357 15.8812 23.8512 16.8313 23.8512C17.5796 23.8512 18.1241 23.3678 18.2694 22.5713H18.0489ZM17.5507 21.2277C17.5507 21.2624 17.5333 21.2856 17.4928 21.2856H16.1428V21.1358C16.1428 20.572 16.4083 20.2294 16.8435 20.2294C17.2897 20.2294 17.5507 20.5489 17.5507 21.1358V21.2277ZM11.1902 13.7635H11.4049C12.2162 13.7635 12.6514 14.2225 12.6514 14.7921C12.6514 15.6066 12.1005 15.8849 11.4339 15.8849H11.0115V13.7635H11.1902ZM10.3609 18.5541H9.81066V18.7521H12.0478C12.8077 18.7521 13.5714 18.3098 13.5714 17.2928C13.5714 16.4841 12.9877 16.054 12.2805 16.0135V15.9781C12.8771 15.9267 13.3451 15.5365 13.3451 14.7342C13.3451 14.0425 12.8951 13.5713 11.8222 13.5713H9.81066V13.7635H10.3674V18.5541H10.3609ZM10.9999 16.1427H11.5727C12.3956 16.1427 12.8424 16.6236 12.8424 17.2928C12.8424 18.0256 12.402 18.5541 11.6486 18.5541H10.9993V16.0829M14.2142 17.107C14.2142 17.9858 14.7446 18.7141 15.4999 18.7141C16.2502 18.7141 16.7857 17.98 16.7857 17.107C16.7857 16.234 16.2553 15.4999 15.4999 15.4999C14.7446 15.5056 14.2142 16.2282 14.2142 17.107ZM16.1357 17.2902C16.1357 17.9022 16.0734 18.5026 15.4999 18.5026C14.9214 18.5026 14.8642 17.9022 14.8642 17.2902V16.9289C14.8642 16.3176 14.9124 15.7165 15.4999 15.7165C16.1068 15.7165 16.1357 16.3176 16.1357 16.9289V17.2902ZM22.5714 17.107C22.5714 17.9858 23.1017 18.7141 23.8571 18.7141C24.6073 18.7141 25.1428 17.98 25.1428 17.107C25.1428 16.234 24.6124 15.4999 23.8571 15.4999C23.1017 15.4999 22.5714 16.2231 22.5714 17.107ZM24.4929 17.2851C24.4929 17.8964 24.4305 18.4975 23.8571 18.4975C23.2785 18.4975 23.2168 17.8964 23.2168 17.2851V16.9231C23.2168 16.3118 23.2644 15.7114 23.8571 15.7114C24.4594 15.7114 24.4929 16.3118 24.4929 16.9238V17.2851Z" fill="white"/>
<path d="M27.3124 18.5163H27.7142V16.3563C27.7142 15.9841 27.4326 15.8504 27.1774 15.8504C26.847 15.8504 26.6085 16.1589 26.4516 16.5016V18.5163H27.0713V18.7143H25.1428V18.5163H25.7856V15.851H25.1428V15.653H25.7683C26.1045 15.653 26.3012 15.653 26.4285 15.4846V16.0831H26.44C26.73 15.7282 27.0212 15.4962 27.4789 15.4962C28.1925 15.4962 28.357 15.9899 28.357 16.4148V18.5169H28.8244V18.7143H27.3073V18.5163M18.5875 17.3193C19.017 17.3772 19.1963 17.633 19.1963 17.9062C19.1963 18.2958 18.8833 18.4989 18.5355 18.4989C17.8746 18.4989 17.6374 17.912 17.5969 17.5218H17.4285V18.7143H17.5911C17.602 18.5986 17.6663 18.5047 17.7415 18.5047C17.8978 18.5047 18.0778 18.7143 18.547 18.7143C19.2433 18.7143 19.6656 18.2784 19.6656 17.6214C19.6656 17.1502 19.3648 16.8732 18.7733 16.7857L18.4198 16.7279C17.9505 16.652 17.7878 16.4894 17.7878 16.2104C17.7878 15.9372 18.0193 15.7044 18.414 15.7044C18.8717 15.7044 19.1385 15.9892 19.2137 16.4424H19.3763L19.359 15.4949H19.2137C19.2079 15.5649 19.179 15.6749 19.1044 15.6749C18.9707 15.6749 18.7907 15.4949 18.4024 15.4949C17.8515 15.4949 17.4285 15.8787 17.4285 16.4251C17.4285 17.1168 17.9158 17.2261 18.385 17.2897L18.5882 17.3187L18.5875 17.3193ZM22.104 18.1055C22.0288 18.2277 21.8725 18.4199 21.6405 18.4199C21.4431 18.4199 21.2856 18.3267 21.2856 18.0187V15.6858L21.9285 15.6916V15.4936L21.2856 15.4884V14.5293L21.1358 14.5351C21.0143 15.2795 20.6023 15.4994 19.9999 15.4994V15.6916H20.6428V18.0181C20.6428 18.5298 20.887 18.7214 21.391 18.7214C21.8552 18.7214 22.0982 18.4835 22.2261 18.2855L22.104 18.1055Z" fill="white"/>
</g>
<circle cx="20" cy="20" r="19.5" stroke="black" stroke-opacity="0.05"/>
<defs>
<clipPath id="clip0_9_400334">
<rect width="31" height="11" fill="white" transform="translate(5 13)"/>
</clipPath>
</defs>
</svg>
