<svg width="40" height="40" viewBox="0 0 40 40" fill="none" xmlns="http://www.w3.org/2000/svg">
<circle cx="20" cy="20" r="20" fill="#17468B"/>
<g clip-path="url(#clip0_9_410542)">
<path d="M20 15.4606L19.5435 26.8378L17.5481 21.2495L18.5883 26.9002L15.3463 22.2048L17.6323 27.0346L9.60947 20.8972L16.6777 27.2731L12.1655 25.4551L15.7912 27.7147C12.4194 27.7147 8.38354 24.8296 7.14282 18.8446C7.14282 18.8446 14.3499 18.9339 16.7561 22.4008C16.3029 17.5177 19.4195 12.9142 20 12.2861C20.5805 12.9142 23.6964 17.5177 23.2438 22.4008C25.65 18.9339 32.8571 18.8446 32.8571 18.8446C31.6177 24.8296 27.5805 27.7147 24.2088 27.7147L27.8345 25.4551L23.3216 27.2731L30.3905 20.8972L22.3676 27.0346L24.6536 22.2048L21.4123 26.9002L22.4518 21.2495L20.4564 26.8378L20 15.4606Z" fill="#FAB41D"/>
</g>
<circle cx="20" cy="20" r="19.5" stroke="black" stroke-opacity="0.05"/>
<defs>
<clipPath id="clip0_9_410542">
<rect width="26" height="16" fill="white" transform="translate(7 12)"/>
</clipPath>
</defs>
</svg>
