<svg width="40" height="40" viewBox="0 0 40 40" fill="none" xmlns="http://www.w3.org/2000/svg">
<circle cx="20" cy="20" r="20" fill="#AC063B"/>
<g clip-path="url(#clip0_9_405328)">
<path d="M22.6594 12.1459C21.2745 12.3038 17.5959 13.2157 17.7507 13.3736C17.7731 13.396 18.2491 13.2947 18.8144 13.1368C21.6072 12.4052 24.3333 12.5515 26.3162 13.5314C27.0588 13.9024 27.8122 14.6122 28.0782 15.175C28.3216 15.7038 28.2998 16.6048 28.0339 17.1567C27.8566 17.4943 26.6046 19.0479 25.7953 19.904C25.7285 19.9829 25.3108 19.394 24.646 18.6733L23.7414 17.5702H21.7426L22.7948 18.7638C23.3716 19.3831 24.0334 20.309 24.2435 20.5342L24.609 20.9398L23.0911 22.5609L21.5326 24.2499H23.5459L25.6733 21.9756L27.757 24.2499H29.7217L28.2111 22.6058L26.7261 21.0187L27.8675 19.7577C29.6185 17.8324 30.2609 16.807 30.4272 15.7263C30.6379 14.2515 29.4078 13.0129 27.0922 12.4167C26.2167 12.1799 23.7116 12.0336 22.6594 12.1459ZM5.42871 24.2499H8.4541C11.3684 24.2499 11.2567 24.1868 11.7327 23.9415C12.3866 23.5797 12.6416 23.1704 12.6968 22.4237C12.7521 21.6763 12.5086 21.1153 11.9877 20.7419C11.7108 20.5549 11.6659 20.4735 11.7885 20.4146C12.0545 20.3096 12.3981 19.6211 12.3981 19.2003C12.3981 18.558 12.0872 18.0091 11.5779 17.7644C11.168 17.5659 11.0357 17.5714 8.39825 17.5714H5.42871V24.2499ZM10.2081 18.8403C10.5919 18.9532 10.5809 19.8433 10.2081 19.924C9.83535 20.0042 9.4401 19.9999 8.76435 19.9999H7.25014V18.7857H8.79714C8.79714 18.7857 10.0242 18.7857 10.2081 18.8403ZM10.4704 21.5117C10.8031 21.8511 10.8141 22.4971 10.5257 22.8007C10.3265 23.0108 10.1602 23.0344 8.91917 23.0344H7.25014V21.2142H8.86393C10.1383 21.2142 10.2154 21.2324 10.4704 21.5117Z" fill="white"/>
<path d="M13.6421 20.8819L14.5571 24.2503H16.6942L16.792 23.8654C16.8466 23.6559 17.0755 22.724 17.3044 21.7908C17.5333 20.8582 17.7513 20.0659 17.795 20.0192C17.8278 19.9609 18.1004 20.8934 18.3942 22.0822L18.9388 24.2503H21.0784C21.1112 24.2503 21.8282 21.4648 21.8282 21.4648L22.4329 19.0423C22.0626 18.5183 21.0578 17.5693 21.0578 17.5693L20.4221 19.8097C20.4221 19.8097 19.9096 21.9893 19.8769 21.9541C19.8441 21.9189 19.5611 20.9402 19.2667 19.7745L18.7883 17.5693H16.9668L16.781 18.2008C16.6833 18.5389 16.4325 19.5413 16.2036 20.4156C15.9851 21.3014 15.7677 21.9893 15.724 21.9657C15.6803 21.931 15.6147 21.7447 15.5716 21.5346C15.5388 21.3245 15.3318 20.3458 15.1138 19.3671L14.7155 17.573H12.6992L13.6421 20.8819ZM29.6373 18.0836L29.0217 18.7848H30.3197V24.2503H32.143V18.7848H34.5715V17.5718H30.0914L29.6373 18.0836Z" fill="white"/>
</g>
<circle cx="20" cy="20" r="19.5" stroke="black" stroke-opacity="0.05"/>
<defs>
<clipPath id="clip0_9_405328">
<rect width="30" height="13" fill="white" transform="translate(5 12)"/>
</clipPath>
</defs>
</svg>
