<svg width="40" height="40" viewBox="0 0 40 40" fill="none" xmlns="http://www.w3.org/2000/svg">
<circle cx="20" cy="20" r="20" fill="#003A72"/>
<g clip-path="url(#clip0_9_400313)">
<path d="M14.7669 23.024L14.7221 23.0708C13.9974 23.7948 13.1173 23.9475 12.2528 23.9475C10.4478 23.9475 9.17614 22.8496 9.17614 21.0188C9.17614 19.1833 10.4471 17.7834 12.2528 17.7834C13.1173 17.7834 13.9974 18.2367 14.7228 18.9654L14.7669 19.0062L15.9286 17.63L15.9001 17.5947C14.9338 16.4751 13.7741 15.9282 12.3512 15.9282C10.9207 15.9282 9.6145 16.3991 8.66789 17.2514C7.64596 18.1763 7.10718 19.4757 7.10718 21.0181C7.10718 22.5578 7.64596 23.8573 8.66789 24.7808C9.6145 25.6385 10.9207 26.1067 12.3512 26.1067C13.7741 26.1067 14.9331 25.5618 15.9001 24.4395L15.9286 24.4028L14.7669 23.024ZM19.3215 15.9282H17.2857V26.1067H19.3215V15.9282ZM27.1359 23.8647C26.593 24.1803 26.3291 24.3105 25.5073 24.3105C24.8498 24.3105 24.75 23.7609 24.75 23.2683V17.9639H26.7857V15.9377L24.75 15.9282V13.2139L22.7143 14.2317V15.9282H20.6786V17.9639H22.7143V23.5729C22.7143 25.0353 23.7403 26.0796 25.0893 26.1067C26.0054 26.1237 26.4085 25.8353 26.7416 25.6399L26.7634 25.6277L27.2519 23.7935L27.1359 23.8647ZM30.1786 15.9282H28.1429V26.1067H30.1786V15.9282Z" fill="#F0F3FA"/>
<path d="M31.5357 13.8927C29.8692 11.4078 26.7952 9.81926 23.511 9.82129C20.2782 9.82265 17.3896 11.3562 15.6687 13.8927H17.9643C19.5318 12.2865 21.3741 11.6446 23.511 11.6446C25.6077 11.6433 27.9312 12.2865 29.5 13.8927H31.5357Z" fill="#ED1B2E"/>
</g>
<circle cx="20" cy="20" r="19.5" stroke="black" stroke-opacity="0.05"/>
<defs>
<clipPath id="clip0_9_400313">
<rect width="25" height="18" fill="white" transform="translate(7 9)"/>
</clipPath>
</defs>
</svg>
