<svg width="40" height="40" viewBox="0 0 40 40" fill="none" xmlns="http://www.w3.org/2000/svg">
<circle cx="20" cy="20" r="20" fill="#FA6400"/>
<path d="M8.01318 14.9611C10.0147 10.2891 14.4428 7.12837 19.6126 7.00013C19.6633 6.99879 19.7138 7.00762 19.761 7.0261C19.8082 7.04458 19.8513 7.07233 19.8876 7.10772C19.924 7.14312 19.9528 7.18543 19.9725 7.23216C19.9922 7.2789 20.0024 7.3291 20.0024 7.37982L20.0049 11.4483C20.0049 11.5515 19.9648 11.6507 19.893 11.7249C19.8212 11.799 19.7233 11.8423 19.6202 11.8456C16.7788 11.9336 14.2014 13.6083 12.8561 16.0524C11.0231 19.3816 11.707 23.4677 14.5056 26.0124C17.4627 28.7054 21.8631 28.9066 25.0289 26.4272C26.9366 24.9336 27.9859 22.9044 28.177 20.3396C28.184 20.2478 28.2252 20.1621 28.2924 20.0996C28.3596 20.0371 28.4477 20.0024 28.5391 20.0027L32.6177 20.0102C32.671 20.0102 32.7238 20.0209 32.7729 20.0417C32.822 20.0625 32.8663 20.093 32.9032 20.1313C32.9401 20.1696 32.9688 20.2149 32.9876 20.2646C33.0064 20.3142 33.0148 20.3671 33.0124 20.4201C32.7208 26.9955 27.737 32.4294 21.0987 32.9625C11.5436 33.7294 4.19364 23.8826 8.01318 14.9611Z" fill="#2B4361"/>
<path d="M24.8878 12.9602C26.2168 12.9602 27.2942 11.8829 27.2942 10.5538C27.2942 9.22484 26.2168 8.14746 24.8878 8.14746C23.5588 8.14746 22.4814 9.22484 22.4814 10.5538C22.4814 11.8829 23.5588 12.9602 24.8878 12.9602Z" fill="white"/>
<path d="M29.4947 17.6437C30.8223 17.6437 31.8986 16.5674 31.8986 15.2398C31.8986 13.9122 30.8223 12.8359 29.4947 12.8359C28.1671 12.8359 27.0908 13.9122 27.0908 15.2398C27.0908 16.5674 28.1671 17.6437 29.4947 17.6437Z" fill="white"/>
<circle cx="20" cy="20" r="19.5" stroke="black" stroke-opacity="0.05"/>
</svg>
