<svg width="40" height="40" viewBox="0 0 40 40" fill="none" xmlns="http://www.w3.org/2000/svg">
<circle cx="20" cy="20" r="20" fill="black"/>
<g clip-path="url(#clip0_9_399630)">
<path d="M15.7263 24.6007C16.183 24.2128 16.2616 23.7325 16.2616 23.3015V21.4912H13.7791V23.9473C13.7791 24.299 13.4998 24.5841 13.155 24.5841C12.8102 24.5841 12.5535 24.299 12.5535 23.9473V16.9893C12.5535 16.6383 12.8102 16.3532 13.155 16.3532C13.4998 16.3532 13.7791 16.6383 13.7791 16.9893V19.4613H16.2582V16.8969C16.2582 15.4801 15.3487 14.3143 13.1339 14.3115C10.8596 14.3115 10 15.4829 10 16.8996V24.1649C10 25.5691 11.0951 26.6313 12.4955 26.6313H13.2643L15.7263 24.6007Z" fill="white"/>
<path d="M25.5129 24.8856V16.9016H23.7992V14.5498H30V16.9016H28.2781V26.6166H27.5434L25.5129 24.8856Z" fill="white"/>
<path d="M19.9177 20.0947L20.5861 16.616L21.2511 20.0947H19.9177ZM22.308 14.5625H18.8492L16.8344 23.7686L20.5868 20.6842L24.499 24.0224L22.308 14.5625Z" fill="white"/>
<path d="M26.6238 26.6343L20.5855 21.4824L14.3287 26.6343H26.6238Z" fill="#FFC400"/>
</g>
<circle cx="20" cy="20" r="19.5" stroke="black" stroke-opacity="0.05"/>
<defs>
<clipPath id="clip0_9_399630">
<rect width="20" height="13" fill="white" transform="translate(10 14)"/>
</clipPath>
</defs>
</svg>
