<svg width="40" height="40" viewBox="0 0 40 40" fill="none" xmlns="http://www.w3.org/2000/svg">
<circle cx="20" cy="20" r="20" fill="#F6F8FA"/>
<circle cx="20" cy="20" r="19.5" stroke="black" stroke-opacity="0.05"/>
<g clip-path="url(#clip0_9_395179)">
<path d="M19.4311 23.4247C19.4311 24.2035 18.8935 24.6223 18.0127 24.6223H16.2559V20.3947H17.8747C18.7567 20.3947 19.3003 20.7871 19.3003 21.5455C19.3003 22.0003 19.0519 22.3303 18.7423 22.4407C19.1419 22.5715 19.4311 22.9639 19.4311 23.4247ZM17.8195 22.1299C18.2395 22.1299 18.4603 21.9643 18.4603 21.6271C18.4603 21.2899 18.2395 21.1375 17.8195 21.1375H17.1031V22.1287L17.8195 22.1299ZM17.1031 23.8795H17.9359C18.3487 23.8795 18.5695 23.6731 18.5695 23.3491C18.5695 23.0179 18.3499 22.8187 17.9359 22.8187H17.1031V23.8795ZM23.2531 21.5443H24.1075V21.8263C24.2731 21.6331 24.5755 21.4747 24.9343 21.4747C25.6303 21.4747 26.0227 21.9295 26.0227 22.6111V24.6223H25.1683V22.7899C25.1683 22.4659 25.0027 22.2463 24.6655 22.2463C24.4039 22.2463 24.1759 22.4047 24.1075 22.6735V24.6223H23.2531V21.5443ZM27.7327 23.3827L27.4855 23.6515V24.6223H26.6311V20.1463H27.4855V22.6879L28.5391 21.5443H29.5999L28.3531 22.8523L29.6479 24.6223H28.6351L27.7327 23.3827ZM21.8179 24.6223L21.7327 24.3823C21.5503 24.6163 21.2299 24.6907 20.9275 24.6907C20.3563 24.6907 19.8187 24.3247 19.8187 23.7031C19.8187 22.9603 20.5219 22.7263 21.1447 22.7263C21.3163 22.7263 21.5599 22.7491 21.7315 22.7887V22.7659C21.7315 22.4119 21.5755 22.1887 21.1531 22.1887C20.8099 22.1887 20.4763 22.3147 20.2015 22.4515L19.9615 21.8179C20.3779 21.6115 20.8471 21.4927 21.3151 21.4927C22.1551 21.4927 22.5955 21.9895 22.5955 22.7899V24.6235L21.8179 24.6223ZM21.7315 23.3071C21.5995 23.2783 21.4243 23.2555 21.3043 23.2555C21.0235 23.2555 20.7211 23.3755 20.7211 23.7019C20.7211 23.9299 20.9215 24.0727 21.1375 24.0727C21.3547 24.0727 21.5755 23.9923 21.7303 23.8495L21.7315 23.3071ZM17.9971 15.1951C18.9859 15.1951 19.5931 15.7747 19.7503 16.6135H18.8839C18.7399 16.2319 18.4819 15.9727 17.9971 15.9727C17.3287 15.9727 16.9327 16.5595 16.9327 17.3575C16.9327 18.1483 17.3287 18.7423 17.9971 18.7423C18.4819 18.7423 18.7399 18.4831 18.8839 18.0943H19.7503C19.5931 18.9403 18.9859 19.5199 17.9971 19.5199C16.8787 19.5199 16.0459 18.6403 16.0459 17.3575C16.0459 16.0747 16.8775 15.1951 17.9971 15.1951ZM23.5531 17.0839H23.0887V16.4011H23.5531V15.5767H24.3919V16.4023H25.0603V17.0851H24.3919V18.4219C24.3919 18.6607 24.5215 18.7699 24.7399 18.7699C24.8695 18.7699 25.0123 18.7291 25.1083 18.6679V19.4179C24.9919 19.4791 24.7879 19.5139 24.5623 19.5139C23.9419 19.5139 23.5531 19.2067 23.5531 18.5311V17.0839ZM25.6735 15.0283H26.5195V16.6927C26.6827 16.5019 26.9839 16.3447 27.3379 16.3447C28.0267 16.3447 28.4155 16.7947 28.4155 17.4703V19.4623H27.5695V17.6479C27.5695 17.3275 27.4063 17.1091 27.0715 17.1091C26.8123 17.1091 26.5879 17.2663 26.5195 17.5315V19.4623H25.6735V15.0283ZM32.4739 20.7307L32.9623 19.4659L31.7959 16.4023H32.6899L33.3931 18.4279L34.0891 16.4023H34.9411L33.3067 20.7307H32.4739ZM22.0567 19.4635L21.9715 19.2259C21.7903 19.4575 21.4735 19.5319 21.1735 19.5319C20.6071 19.5319 20.0755 19.1695 20.0755 18.5527C20.0755 17.8171 20.7715 17.5855 21.3883 17.5855C21.5587 17.5855 21.7999 17.6083 21.9691 17.6479V17.6251C21.9691 17.2747 21.8155 17.0539 21.3967 17.0539C21.0571 17.0539 20.7259 17.1787 20.4547 17.3143L20.2171 16.6855C20.6299 16.4815 21.0943 16.3627 21.5587 16.3627C22.3903 16.3627 22.8259 16.8547 22.8259 17.6467V19.4635H22.0567ZM21.9703 18.1615C21.8407 18.1327 21.6667 18.1111 21.5479 18.1111C21.2707 18.1111 20.9707 18.2299 20.9707 18.5527C20.9707 18.7795 21.1687 18.9211 21.3835 18.9211C21.5983 18.9211 21.8179 18.8419 21.9703 18.7003V18.1615ZM30.8335 19.4635L30.7483 19.2259C30.5671 19.4575 30.2503 19.5319 29.9503 19.5319C29.3851 19.5319 28.8523 19.1695 28.8523 18.5527C28.8523 17.8171 29.5483 17.5855 30.1651 17.5855C30.3343 17.5855 30.5767 17.6083 30.7459 17.6479V17.6251C30.7459 17.2747 30.5923 17.0539 30.1735 17.0539C29.8339 17.0539 29.5027 17.1787 29.2315 17.3143L28.9939 16.6867C29.4067 16.4827 29.8711 16.3639 30.3343 16.3639C31.1659 16.3639 31.6015 16.8559 31.6015 17.6479V19.4635H30.8335ZM30.7471 18.1627C30.6175 18.1339 30.4435 18.1111 30.3247 18.1111C30.0475 18.1111 29.7475 18.2299 29.7475 18.5527C29.7475 18.7783 29.9455 18.9199 30.1603 18.9199C30.3751 18.9199 30.5947 18.8407 30.7471 18.6991V18.1627Z" fill="black"/>
<path d="M13.0528 15.1826H6.53077C5.71837 15.1826 5.05957 15.8414 5.05957 16.6538V23.1506C5.05957 23.963 5.71837 24.6218 6.53077 24.6218H13.0276C13.8412 24.6218 14.4988 23.963 14.4988 23.1506V16.6286C14.4988 15.8294 13.852 15.1826 13.0528 15.1826ZM13.3192 19.3118H9.18877V20.4914H13.3192V22.8302C13.3192 23.1674 13.0456 23.441 12.7084 23.441H6.84997C6.51277 23.441 6.23917 23.1674 6.23917 22.8302V16.973C6.23917 16.6358 6.51277 16.3622 6.84997 16.3622H12.7084C13.0456 16.3622 13.3192 16.6358 13.3192 16.973V19.3118ZM12.7216 17.255V18.7154H8.59117V21.0902H12.7216V22.5506C12.7216 22.7138 12.5896 22.8458 12.4264 22.8458H7.13197C6.96877 22.8458 6.83677 22.7138 6.83677 22.5506V17.255C6.83677 17.0918 6.96877 16.9598 7.13197 16.9598H12.4276C12.5896 16.9598 12.7216 17.0918 12.7216 17.255Z" fill="#D22630"/>
</g>
<defs>
<clipPath id="clip0_9_395179">
<rect width="30" height="9.72" fill="white" transform="translate(5 15)"/>
</clipPath>
</defs>
</svg>
