<svg width="40" height="40" viewBox="0 0 40 40" fill="none" xmlns="http://www.w3.org/2000/svg">
<circle cx="20" cy="20" r="20" fill="#027C4B"/>
<g clip-path="url(#clip0_9_412380)">
<path d="M19.5155 20.0455C20.2518 19.7923 20.2518 18.6255 20.2518 18.3883C20.2501 17.3986 19.6027 16.4455 17.6913 16.4455L14.1251 16.4443V23.8729H17.6823C19.6049 23.8729 20.312 22.8061 20.312 21.7375C20.312 20.4432 19.5155 20.0455 19.5155 20.0455ZM15.8126 18.1586H18.219C18.4648 18.1586 18.6768 18.418 18.6768 18.7106C18.6768 19.0095 18.4845 19.2581 18.2049 19.2992H15.8126V18.1586ZM18.1031 22.1558H15.8126V21.0158H18.1644C18.4558 21.0518 18.6763 21.2312 18.6763 21.5415C18.6763 21.8815 18.4153 22.1512 18.1031 22.1558ZM28.1876 16.4443H33.8115L33.8126 18.1586H29.8751V19.3015H33.2501V21.0158H29.8751V22.1586H33.8126L33.8115 23.8729H28.1876M24.5645 16.4443H20.8751V23.8729H22.5626V20.7803L24.4351 20.7786C24.9695 20.7872 25.3846 21.254 25.3846 21.83V23.8729H27.0626V21.4683C27.0626 20.3575 26.0349 20.0289 26.0349 20.0289C26.0349 20.0289 27.0626 19.7015 27.0626 18.3889C27.0626 16.7815 25.7694 16.4443 24.5645 16.4443ZM25.4893 18.8346C25.4583 19.0792 25.2305 19.3043 24.9442 19.3043H22.5626V18.1586H24.9453C25.2299 18.1586 25.4527 18.3792 25.4893 18.6729M13.0001 22.1586C13.0001 22.1586 10.3985 22.166 10.1341 22.166C8.93151 22.0329 8.49783 20.9112 8.49783 20.0895C8.49783 19.0638 9.11658 18.3672 10.074 18.2261C10.5307 18.1581 12.9736 18.1586 13.0001 18.1586V16.4443H10.119C9.80451 16.4661 9.2842 16.5078 8.75095 16.7541C8.22876 17.0288 7.78453 17.4349 7.46058 17.9335C7.03332 18.5898 6.80777 19.3603 6.81258 20.1472C6.81258 20.4003 6.83058 20.6512 6.86658 20.8918C7.06908 22.0175 7.7227 22.9501 8.65926 23.4506C8.97539 23.6083 9.46364 23.7963 10.4469 23.8592L10.9768 23.8718L13.0001 23.8729V22.1586Z" fill="white"/>
</g>
<circle cx="20" cy="20" r="19.5" stroke="black" stroke-opacity="0.05"/>
<defs>
<clipPath id="clip0_9_412380">
<rect width="28" height="8" fill="white" transform="translate(6 16)"/>
</clipPath>
</defs>
</svg>
