<svg width="40" height="40" viewBox="0 0 40 40" fill="none" xmlns="http://www.w3.org/2000/svg">
<circle cx="20" cy="20" r="20" fill="#14684D"/>
<path d="M28.0202 11.3318L26.4718 11.9771C26.4377 11.9915 26.3999 11.9946 26.3638 11.986C26.3277 11.9774 26.2952 11.9575 26.2709 11.9291C24.8486 10.2343 23.1983 8.96796 21.3198 8.13003C21.0661 8.01625 21.0768 7.97714 21.3518 8.0127C23.8999 8.33744 26.1334 9.38218 28.0522 11.1469C28.1375 11.2251 28.1269 11.2868 28.0202 11.3318Z" fill="white"/>
<path d="M18.0396 8.08909C20.9712 8.41264 23.3107 10.082 25.2378 12.2722C25.3066 12.3492 25.2918 12.4049 25.1934 12.4393C23.8553 12.9098 22.3857 13.3347 20.7845 13.714C20.7515 13.7219 20.7168 13.7175 20.687 13.7018C20.6572 13.6861 20.6343 13.6601 20.6227 13.6286C19.8761 11.6375 18.9801 9.84849 17.9347 8.26153C17.847 8.12879 17.882 8.07131 18.0396 8.08909Z" fill="white"/>
<path d="M16.9145 8.47825C17.9972 10.1796 18.9074 11.952 19.6523 13.8347C19.6795 13.9023 19.657 13.9426 19.5847 13.9556C17.737 14.2851 15.8401 14.4984 13.894 14.5956C13.7933 14.6003 13.7495 14.5529 13.7625 14.4534C14.0303 12.4824 14.6295 10.6821 15.5598 9.05248C15.8135 8.60685 16.2152 8.38759 16.7652 8.3947C16.8303 8.3947 16.8801 8.42255 16.9145 8.47825Z" fill="white"/>
<path d="M9.30189 14.3957C10.3952 12.3015 12.0468 10.5699 14.1161 9.42502C14.2204 9.36695 14.2465 9.39183 14.1943 9.49969C13.4382 11.0546 12.9641 12.7192 12.7721 14.4935C12.7638 14.5705 12.7211 14.609 12.6441 14.609C11.5051 14.6138 10.4053 14.5687 9.34455 14.4739C9.33596 14.4732 9.3277 14.4703 9.32048 14.4656C9.31327 14.4608 9.3073 14.4543 9.30311 14.4466C9.29892 14.439 9.29662 14.4303 9.2964 14.4214C9.29619 14.4126 9.29807 14.4037 9.30189 14.3957Z" fill="white"/>
<path d="M27.0067 12.9642C26.999 12.9518 26.994 12.9379 26.9921 12.9235C26.9902 12.909 26.9914 12.8944 26.9956 12.8805C26.9998 12.8667 27.007 12.854 27.0166 12.8433C27.0261 12.8325 27.0379 12.8241 27.0511 12.8184L28.8307 12.0504C28.8488 12.0427 28.8689 12.0409 28.8881 12.0454C28.9073 12.0499 28.9245 12.0604 28.9373 12.0753C30.183 13.5367 31.0345 15.2131 31.492 17.1047C31.5133 17.1959 31.4825 17.2617 31.3996 17.302L29.2787 18.3278C29.2639 18.3351 29.2476 18.3389 29.2311 18.3388C29.2145 18.3387 29.1982 18.3347 29.1834 18.3271C29.1686 18.3195 29.1556 18.3086 29.1456 18.2951C29.1357 18.2816 29.1289 18.2661 29.1258 18.2496C28.7975 16.4042 28.0911 14.6424 27.0067 12.9642Z" fill="white"/>
<path d="M26.0397 13.3127C27.1313 14.9073 27.894 16.7687 28.2122 18.6727C28.2158 18.6951 28.2115 18.7182 28.2002 18.7379C28.1889 18.7576 28.1712 18.7729 28.15 18.7811C26.3094 19.4697 24.4593 20.0202 22.5997 20.4327C22.5912 20.4345 22.5824 20.4345 22.5738 20.4327C22.5653 20.431 22.5572 20.4275 22.55 20.4225C22.5428 20.4175 22.5368 20.4111 22.5322 20.4037C22.5276 20.3963 22.5246 20.388 22.5233 20.3793C22.2057 18.3918 21.7227 16.5239 21.0744 14.7758C21.0436 14.6952 21.0703 14.646 21.1544 14.6282C22.8137 14.2561 24.3846 13.7992 25.8673 13.2576C25.9384 13.2315 25.9959 13.2499 26.0397 13.3127Z" fill="white"/>
<path d="M13.6575 15.5704C15.7813 15.5194 17.8845 15.2889 19.9668 14.8788C19.9889 14.8743 20.0119 14.878 20.0318 14.8895C20.0517 14.9009 20.0671 14.9192 20.0753 14.9411C20.7259 16.8006 21.2225 18.6697 21.565 20.5482C21.5697 20.5736 21.5641 20.5999 21.5495 20.6212C21.5348 20.6426 21.5123 20.6572 21.4868 20.662C19.0572 21.1242 16.5784 21.4068 14.0504 21.51C13.9781 21.5135 13.936 21.4791 13.9242 21.4068C13.6101 19.4205 13.5135 17.4821 13.6344 15.5917C13.6348 15.5859 13.6375 15.5805 13.6417 15.5765C13.646 15.5726 13.6517 15.5704 13.6575 15.5704Z" fill="white"/>
<path d="M12.9394 21.4778C12.9412 21.4893 12.9405 21.5011 12.9373 21.5123C12.9341 21.5235 12.9285 21.5338 12.9208 21.5426C12.9132 21.5514 12.9038 21.5585 12.8932 21.5632C12.8825 21.568 12.871 21.5704 12.8594 21.5703L8.22293 21.4671C8.13997 21.4648 8.09375 21.4221 8.08427 21.3391C7.85434 19.2971 8.09493 17.3546 8.80604 15.5116C8.82975 15.45 8.87419 15.4227 8.93938 15.4298C10.0878 15.5483 11.2932 15.6017 12.5554 15.5898C12.5686 15.5898 12.5817 15.5925 12.5938 15.5977C12.606 15.603 12.6169 15.6107 12.6259 15.6204C12.6349 15.6301 12.6418 15.6415 12.6462 15.654C12.6506 15.6665 12.6524 15.6797 12.6514 15.6929C12.5234 17.5466 12.6194 19.4749 12.9394 21.4778Z" fill="white"/>
<path d="M29.414 19.3469L31.6451 18.2962C31.6531 18.2925 31.6618 18.2907 31.6706 18.2911C31.6794 18.2914 31.688 18.2939 31.6957 18.2982C31.7033 18.3026 31.7099 18.3087 31.7147 18.3161C31.7195 18.3235 31.7224 18.3319 31.7233 18.3407C31.9674 20.4894 31.6735 22.5528 30.8415 24.5309C30.7924 24.6498 30.7003 24.7457 30.5837 24.7993L28.9606 25.5496C28.8611 25.5958 28.8279 25.5667 28.8611 25.4624C29.475 23.4725 29.6356 21.4784 29.3429 19.4802C29.3388 19.4535 29.3435 19.4261 29.3563 19.4021C29.3691 19.3781 29.3893 19.3588 29.414 19.3469Z" fill="white"/>
<path d="M23.108 27.2401C23.124 25.3361 23.0013 23.3965 22.7187 21.4908C22.7154 21.4666 22.7213 21.4421 22.7352 21.4223C22.749 21.4024 22.7698 21.3888 22.7933 21.3841C24.6292 21.0084 26.4603 20.4745 28.2867 19.7823C28.298 19.7782 28.3102 19.7766 28.3222 19.7777C28.3343 19.7788 28.3459 19.7826 28.3561 19.7887C28.3664 19.7949 28.3751 19.8033 28.3815 19.8133C28.388 19.8232 28.392 19.8345 28.3933 19.8463C28.6481 22.0638 28.3809 24.1148 27.5915 25.9992C27.5655 26.0608 27.521 26.1029 27.4582 26.1254C26.1521 26.6078 24.7376 27.009 23.2147 27.329C23.1424 27.3432 23.1068 27.3136 23.108 27.2401Z" fill="white"/>
<path d="M14.1643 22.6019C14.1611 22.5894 14.1608 22.5763 14.1632 22.5637C14.1657 22.551 14.171 22.5391 14.1786 22.5287C14.1863 22.5183 14.1961 22.5098 14.2075 22.5037C14.2189 22.4976 14.2314 22.4941 14.2443 22.4934C16.783 22.3737 19.2499 22.0887 21.6452 21.6383C21.6572 21.636 21.6696 21.6362 21.6816 21.6389C21.6936 21.6415 21.7049 21.6465 21.7149 21.6537C21.7249 21.6608 21.7333 21.6699 21.7396 21.6804C21.746 21.6909 21.7501 21.7026 21.7519 21.7147C22.0351 23.6715 22.153 25.5933 22.1056 27.4801C22.1051 27.4961 22.099 27.5115 22.0883 27.5238C22.0777 27.5361 22.0631 27.5445 22.047 27.5476C20.2004 27.8736 18.4126 28.0531 16.6834 28.0863C16.6452 28.0868 16.6074 28.0777 16.5735 28.0596C16.5397 28.0416 16.5108 28.0153 16.4896 27.9832C15.4135 26.3299 14.6384 24.5361 14.1643 22.6019Z" fill="white"/>
<path d="M15.3643 28.048C15.3668 28.0527 15.3682 28.058 15.3682 28.0633C15.3682 28.0686 15.3669 28.0738 15.3643 28.0783C15.3618 28.0828 15.3582 28.0865 15.3538 28.089C15.3494 28.0915 15.3444 28.0927 15.3394 28.0925C13.9989 28.0984 12.6301 28.0131 11.2327 27.8365C11.1309 27.8239 11.0372 27.7739 10.9696 27.696C9.63864 26.1707 8.74975 24.4415 8.30294 22.5085C8.29346 22.467 8.30946 22.448 8.35094 22.4516C9.96516 22.55 11.5284 22.5766 13.0407 22.5316C13.1023 22.5292 13.1403 22.5583 13.1545 22.6187C13.5681 24.4949 14.3047 26.3046 15.3643 28.048Z" fill="white"/>
<path d="M25.1847 30.2155C26.1909 29.2235 27.3056 28.4039 28.0754 27.1915C28.3438 26.7701 28.7776 26.6493 29.1687 26.3755C29.5883 26.0827 29.9877 25.8001 30.3669 25.5275C30.4985 25.4327 30.5228 25.4546 30.4398 25.5933C29.2452 27.6004 27.3038 29.2501 25.27 30.3275C24.9832 30.4792 24.9548 30.4419 25.1847 30.2155Z" fill="white"/>
<path d="M26.822 27.4586C25.8277 29.01 24.5334 30.2693 22.9394 31.2364C22.8659 31.2814 22.8327 31.2613 22.8398 31.176L23.0834 28.4471C23.0893 28.3831 23.1237 28.3452 23.1865 28.3333C24.361 28.1057 25.558 27.7952 26.7776 27.4017C26.8463 27.3792 26.8611 27.3982 26.822 27.4586Z" fill="white"/>
<path d="M17.3838 29.0903L21.9936 28.605C22.0063 28.6036 22.0192 28.6051 22.0313 28.6093C22.0433 28.6135 22.0543 28.6204 22.0634 28.6295C22.0724 28.6385 22.0793 28.6495 22.0835 28.6616C22.0878 28.6736 22.0892 28.6865 22.0878 28.6992L21.7927 31.5526C21.7906 31.5727 21.7814 31.5915 21.7668 31.6055C21.7521 31.6195 21.733 31.6279 21.7127 31.629L19.6861 31.7552C19.6734 31.7558 19.6608 31.7536 19.6491 31.7486C19.6374 31.7437 19.6269 31.7363 19.6185 31.7268L17.3287 29.2326C17.3181 29.2208 17.3109 29.2064 17.3081 29.1908C17.3052 29.1753 17.3067 29.1592 17.3124 29.1445C17.3181 29.1297 17.3278 29.1168 17.3404 29.1073C17.3531 29.0977 17.3681 29.0919 17.3838 29.0903Z" fill="white"/>
<path d="M12.8666 29.4405C12.6947 29.3232 12.5365 29.1969 12.3919 29.0618C12.3042 28.9812 12.3196 28.9463 12.4381 28.9569C13.5806 29.0636 14.7338 29.1033 15.8977 29.0761C15.9401 29.0749 15.9823 29.0838 16.0209 29.102C16.0594 29.1202 16.0934 29.1473 16.1199 29.1809C16.3463 29.4725 16.623 29.7599 16.9501 30.0432C17.5368 30.5552 18.1371 31.0808 18.751 31.6201C18.8648 31.7208 18.847 31.7587 18.6977 31.7338C16.5169 31.3735 14.5732 30.6091 12.8666 29.4405Z" fill="white"/>
<circle cx="20" cy="20" r="19.5" stroke="black" stroke-opacity="0.05"/>
</svg>
