<svg width="40" height="40" viewBox="0 0 40 40" fill="none" xmlns="http://www.w3.org/2000/svg">
<circle cx="20" cy="20" r="20" fill="#968966"/>
<g clip-path="url(#clip0_9_401937)">
<path d="M27.3081 22.9296C25.4908 21.9673 22.4912 21.6021 20.0863 21.6021C18.3785 21.5806 16.6752 21.7816 15.0193 22.2C14.2789 22.3486 13.5634 22.6021 12.8946 22.9528C12.327 20.6829 11.7189 19.3451 9.996 18.0304C10.5926 17.421 11.2817 16.9067 12.0403 16.5069C12.7153 17.9244 13.6513 18.1834 14.0666 18.2297C14.3901 18.2654 14.7171 18.2071 15.0084 18.0619C15.2978 17.9178 15.5387 17.6921 15.7014 17.4126C15.9006 17.0784 16.0022 16.6959 15.9951 16.3076C15.98 15.7437 15.827 15.1922 15.5496 14.7011C16.3619 14.3668 17.2257 14.1748 18.1031 14.1334C18.0786 14.3263 18.0651 14.5204 18.0626 14.7146C18.0626 15.7798 18.4245 16.6232 19.1034 17.0809C19.4017 17.2856 19.755 17.3951 20.1168 17.3951C20.4786 17.3951 20.8319 17.2856 21.1303 17.0809C21.8464 16.6065 22.2315 15.7239 22.2315 14.6117C22.236 14.4297 22.2257 14.2476 22.2006 14.0672C23.0582 14.1392 23.8984 14.3436 24.6904 14.6747C24.3961 15.1723 24.2325 15.7362 24.2147 16.314C24.2076 16.7113 24.3137 17.1021 24.5214 17.4429C24.6988 17.7321 24.9598 17.9616 25.2709 18.1037C25.5821 18.2451 25.9292 18.2927 26.268 18.24C27.1056 18.1236 27.8115 17.4795 28.2409 16.494C28.9973 16.9075 29.6816 17.4409 30.2672 18.0735C28.4402 19.2255 27.9266 20.6964 27.3081 22.9232V22.9296ZM25.3185 25.2105C23.6046 25.6226 21.8456 25.8177 20.0831 25.791C18.3197 25.8174 16.5602 25.6219 14.847 25.2105C13.4957 24.8518 13.1036 24.4731 13.0329 24.3375C13.6695 23.8472 14.4028 23.4975 15.1845 23.3115C16.7938 22.9646 18.4369 22.7985 20.0831 22.8165C21.8464 22.7946 23.6059 22.992 25.3185 23.4047C26.8221 23.8033 27.1429 24.2308 27.1429 24.3144C27.1429 24.3973 26.8054 24.8254 25.3185 25.2272V25.2105ZM31.4732 17.7418C30.5594 16.6775 29.4225 15.8274 28.1432 15.252L27.5518 14.9865L27.3795 15.5844C27.0819 16.6496 26.5213 17.0951 26.0957 17.1542C25.9724 17.1764 25.8453 17.1614 25.7306 17.1111C25.6164 17.0611 25.5201 16.9778 25.4541 16.872C25.2279 16.5101 25.2311 15.7637 25.9401 14.7506L26.3053 14.2562L25.7306 13.9779C24.434 13.3222 23.0048 12.9713 21.552 12.9519L20.8397 12.9287L20.9914 13.6127C21.309 15.063 20.9477 15.8961 20.5016 16.188C20.3897 16.2679 20.2556 16.3109 20.1181 16.3109C19.9806 16.3109 19.8465 16.2679 19.7346 16.188C19.3129 15.9026 18.9819 15.0926 19.3129 13.6654L19.4781 12.9454L18.5293 13.0116C17.178 13.1049 16.1379 13.1775 14.5089 13.9779L13.9245 14.2562L14.2929 14.7705C14.9685 15.7335 14.9685 16.4773 14.7454 16.8521C14.6926 16.9493 14.6121 17.0285 14.514 17.0796C14.4148 17.1313 14.3025 17.1525 14.1913 17.1407C13.7895 17.0976 13.2321 16.6566 12.8574 15.5509L12.6446 14.9209L12.0596 15.252C10.5771 16.062 9.50614 16.7659 8.74628 17.8382L8.42871 18.2863L8.88514 18.618C10.7732 19.8992 11.2933 20.9683 11.9754 23.883C11.9175 24.018 11.8879 24.1639 11.8879 24.3105C11.8879 26.0899 16.1269 26.9031 20.0657 26.9031C24.0045 26.9031 28.2409 26.0899 28.2409 24.3105C28.2409 24.1884 28.2204 24.0675 28.1799 23.9524L28.2441 23.7197C28.9937 21.0049 29.3319 19.7597 31.3993 18.7009L32.0511 18.3692L31.4732 17.7418Z" fill="white"/>
<path d="M20.1329 19.1993C20.0178 19.1979 19.9047 19.23 19.8076 19.2918C19.711 19.3535 19.6349 19.4426 19.589 19.5477C19.5436 19.6521 19.5307 19.7677 19.552 19.8796C19.5734 19.9914 19.6279 20.0942 19.7086 20.1745C19.7899 20.2564 19.8934 20.3125 20.0063 20.336C20.1193 20.3594 20.2366 20.3491 20.3438 20.3063C20.4506 20.2644 20.5428 20.192 20.6086 20.098C20.6739 20.0046 20.7095 19.8937 20.7108 19.7798C20.7107 19.7048 20.6957 19.6307 20.6667 19.5616C20.6376 19.4925 20.5952 19.4299 20.5418 19.3773C20.4327 19.2699 20.286 19.2095 20.1329 19.2089M17.863 19.3413C17.7084 19.3411 17.56 19.4016 17.4496 19.5098C17.3958 19.5628 17.353 19.626 17.3238 19.6957C17.2946 19.7653 17.2795 19.8402 17.2795 19.9157C17.2795 19.9913 17.2946 20.0661 17.3238 20.1358C17.353 20.2055 17.3958 20.2687 17.4496 20.3217C17.5599 20.4301 17.7083 20.4909 17.863 20.4909C18.0176 20.4909 18.1661 20.4301 18.2763 20.3217C18.3303 20.2687 18.3731 20.2056 18.4024 20.1359C18.4316 20.0661 18.4467 19.9913 18.4467 19.9157C18.4467 19.8401 18.4316 19.7653 18.4024 19.6956C18.3731 19.6259 18.3303 19.5627 18.2763 19.5098C18.1659 19.4016 18.0175 19.3411 17.863 19.3413ZM22.3797 19.3908C22.2637 19.3887 22.1497 19.4206 22.0518 19.4828C21.955 19.5442 21.8787 19.633 21.8326 19.738C21.7866 19.8427 21.7734 19.959 21.7949 20.0713C21.8164 20.1837 21.8714 20.2869 21.9528 20.3673C22.0346 20.4492 22.1388 20.5051 22.2523 20.5279C22.3657 20.5508 22.4834 20.5397 22.5905 20.4959C22.6975 20.4533 22.7895 20.3799 22.8548 20.285C22.9302 20.1749 22.9644 20.0416 22.9512 19.9087C22.938 19.7758 22.8784 19.6518 22.7828 19.5586C22.6723 19.4507 22.5238 19.3905 22.3694 19.3908M15.7184 19.7733C15.603 19.7726 15.4899 19.8057 15.3931 19.8685C15.3209 19.9141 15.2599 19.9754 15.2148 20.0479C15.1697 20.1204 15.1415 20.2022 15.1325 20.2871C15.1235 20.372 15.1338 20.4579 15.1626 20.5382C15.1915 20.6186 15.2382 20.6914 15.2993 20.7511C15.3814 20.832 15.4853 20.8872 15.5983 20.9101C15.7114 20.9329 15.8286 20.9223 15.9357 20.8797C16.0423 20.8371 16.134 20.764 16.1993 20.6695C16.275 20.5597 16.3096 20.4268 16.297 20.2941C16.2844 20.1613 16.2254 20.0373 16.1305 19.9437C16.021 19.8347 15.8729 19.7735 15.7184 19.7733ZM13.4555 20.4805C13.341 20.4815 13.2293 20.5159 13.1341 20.5795C13.0631 20.6257 13.0034 20.6875 12.9597 20.7601C12.9159 20.8327 12.8891 20.9142 12.8813 20.9986C12.8735 21.083 12.8849 21.1681 12.9147 21.2475C12.9444 21.3269 12.9917 21.3985 13.0531 21.457C13.1351 21.5369 13.2388 21.5909 13.3512 21.6124C13.4637 21.6339 13.58 21.6219 13.6857 21.5778C13.791 21.5348 13.8814 21.4617 13.9454 21.3676C14.0201 21.2576 14.0534 21.1248 14.0397 20.9926C14.0259 20.8604 13.9659 20.7373 13.8702 20.645C13.8152 20.5916 13.7502 20.5496 13.6789 20.5214C13.6077 20.4931 13.5322 20.4792 13.4555 20.4805ZM24.6091 19.7836C24.4935 19.7828 24.3802 19.8159 24.2832 19.8788C24.2109 19.9245 24.1499 19.986 24.1048 20.0587C24.0597 20.1314 24.0316 20.2133 24.0228 20.2984C24.0139 20.3835 24.0245 20.4695 24.0537 20.5499C24.0829 20.6303 24.1299 20.7031 24.1913 20.7627C24.2734 20.8439 24.3776 20.8991 24.4909 20.9214C24.6042 20.9437 24.7216 20.9321 24.8283 20.888C24.9351 20.8453 25.0268 20.772 25.0919 20.6772C25.1674 20.5672 25.2016 20.4342 25.1887 20.3014C25.1758 20.1687 25.1164 20.0447 25.0212 19.9514C24.9669 19.8977 24.9025 19.8553 24.8318 19.8265C24.7611 19.7977 24.6855 19.7832 24.6091 19.7836ZM26.7749 20.4773C26.6603 20.4778 26.5484 20.5117 26.4528 20.575C26.3582 20.6378 26.2843 20.7273 26.2407 20.8321C26.1971 20.9364 26.1859 21.0514 26.2088 21.1621C26.2316 21.2728 26.2873 21.374 26.3686 21.4525C26.4505 21.5326 26.5541 21.5869 26.6665 21.6086C26.779 21.6303 26.8954 21.6185 27.0012 21.5746C27.1067 21.5319 27.1973 21.459 27.2615 21.365C27.3361 21.2552 27.3695 21.1226 27.3559 20.9905C27.3422 20.8584 27.2824 20.7354 27.187 20.6431C27.0768 20.5354 26.9284 20.4757 26.7743 20.4773H26.7749Z" fill="white"/>
</g>
<circle cx="20" cy="20" r="19.5" stroke="black" stroke-opacity="0.05"/>
<defs>
<clipPath id="clip0_9_401937">
<rect width="25" height="15" fill="white" transform="translate(8 12)"/>
</clipPath>
</defs>
</svg>
