<svg width="40" height="40" viewBox="0 0 40 40" fill="none" xmlns="http://www.w3.org/2000/svg">
<circle cx="20" cy="20" r="20" fill="#E7EBF3"/>
<g clip-path="url(#clip0_9_386763)">
<path d="M9.91461 23.0678C9.85687 23.0959 9.80069 23.124 9.71487 23.1818C9.71487 23.1818 9.37469 23.6359 9.03294 24.2039C8.6912 24.7157 8.35102 25.3399 8.12319 25.7955C8.06701 25.8517 8.00928 25.9937 8.00928 25.9937C8.60694 25.5677 9.34504 25.3399 10.3125 25.1979C11.5047 25.0559 12.8982 25.0855 14.3479 25.1417C15.5978 25.1979 16.9336 25.2837 18.2974 25.3695C20.571 25.4819 23.4985 24.3178 25.0886 22.7277C25.0886 22.7277 25.0324 22.7838 25.0043 22.7838C22.0488 24.516 19.3773 24.1196 16.9617 23.6936C15.1422 23.3518 13.3242 22.6699 11.7045 22.6699C11.0787 22.6699 10.4826 22.7838 9.91461 23.0678Z" fill="url(#paint0_linear_9_386763)"/>
<path fill-rule="evenodd" clip-rule="evenodd" d="M9.97073 23.0399C11.9322 22.102 14.4602 23.238 16.9616 23.6937C19.3772 24.1197 22.0487 24.5161 25.0043 22.7839C25.0324 22.7839 25.0885 22.7278 25.0885 22.7278C25.0885 22.7278 24.4924 22.7839 23.5827 22.812C22.6729 22.812 20.7988 22.7559 19.6612 22.6419C17.2737 22.4438 15.4839 22.3018 14.0342 22.3018C12.3005 22.3018 11.0506 22.4999 9.97073 23.0399Z" fill="url(#paint1_linear_9_386763)"/>
<path d="M29.7217 14.8017C28.528 14.9437 27.136 14.9141 25.6864 14.8579C24.4364 14.8017 23.1007 14.7159 21.7368 14.63C19.4632 14.5177 16.5358 15.6818 14.9441 17.2719C14.9441 17.2719 15.0003 17.2157 15.0299 17.2157C17.9854 15.4836 20.6554 15.88 23.071 16.306C25.6005 16.7616 28.13 17.8977 30.0916 16.9317C30.1758 16.9036 30.2336 16.8756 30.3178 16.8178C30.3178 16.8178 30.6315 16.3637 30.9998 15.7957C31.3415 15.2839 31.6832 14.6597 31.9095 14.204C31.9376 14.1479 32.0234 14.0059 32.0234 14.0059C31.4273 14.4319 30.6877 14.6597 29.7217 14.8017Z" fill="url(#paint2_linear_9_386763)"/>
<path fill-rule="evenodd" clip-rule="evenodd" d="M15.0299 17.2155C15.0003 17.2155 14.9441 17.2717 14.9441 17.2717C14.9441 17.2717 15.5402 17.2155 16.4499 17.1874C17.3597 17.1874 19.2354 17.2436 20.3714 17.3575C25.6583 17.8116 28.0739 17.9255 30.0619 16.9596C28.102 17.8974 25.5724 16.7614 23.071 16.3058C22.0208 16.1076 20.941 15.9375 19.7753 15.9375C18.2975 15.9375 16.7059 16.2496 15.0299 17.2155Z" fill="url(#paint3_linear_9_386763)"/>
<path d="M20.7131 18.7216C18.2694 18.5219 15.768 18.3518 13.4944 18.6639C12.5477 19.6116 11.6671 20.5968 10.8525 21.6194C13.1542 20.7955 16.1659 21.0514 19.2915 21.2777C21.7649 21.4774 24.2648 21.6475 26.5384 21.3354C27.1064 20.7955 28.7558 18.9198 29.1537 18.3799C26.8801 19.2038 23.8388 18.9775 20.7131 18.7216Z" fill="url(#paint4_linear_9_386763)"/>
</g>
<circle cx="20" cy="20" r="19.5" stroke="black" stroke-opacity="0.05"/>
<defs>
<linearGradient id="paint0_linear_9_386763" x1="20.0015" y1="27.8413" x2="12.5284" y2="20.3401" gradientUnits="userSpaceOnUse">
<stop stop-color="#B8C746"/>
<stop offset="1" stop-color="#169244"/>
</linearGradient>
<linearGradient id="paint1_linear_9_386763" x1="25.0885" y1="23.096" x2="9.91455" y2="23.096" gradientUnits="userSpaceOnUse">
<stop stop-color="#B8C746"/>
<stop offset="0.8" stop-color="#169244"/>
<stop offset="1" stop-color="#169244"/>
</linearGradient>
<linearGradient id="paint2_linear_9_386763" x1="20.941" y1="12.8683" x2="26.3402" y2="18.2675" gradientUnits="userSpaceOnUse">
<stop stop-color="#1F9CD7"/>
<stop offset="1" stop-color="#09409C"/>
</linearGradient>
<linearGradient id="paint3_linear_9_386763" x1="14.9441" y1="16.7037" x2="30.0916" y2="16.7037" gradientUnits="userSpaceOnUse">
<stop stop-color="#1F9CD7"/>
<stop offset="0.8" stop-color="#09409C"/>
<stop offset="1" stop-color="#09409C"/>
</linearGradient>
<linearGradient id="paint4_linear_9_386763" x1="17.7857" y1="17.7838" x2="23.1568" y2="23.1534" gradientUnits="userSpaceOnUse">
<stop stop-color="#FF521C"/>
<stop offset="0.9" stop-color="#FF9836"/>
<stop offset="1" stop-color="#FF9836"/>
</linearGradient>
<clipPath id="clip0_9_386763">
<rect width="24.0312" height="12" fill="white" transform="translate(8 14)"/>
</clipPath>
</defs>
</svg>
