<svg width="40" height="40" viewBox="0 0 40 40" fill="none" xmlns="http://www.w3.org/2000/svg">
<circle cx="20" cy="20" r="20" fill="#F6F8FA"/>
<g clip-path="url(#clip0_9_388191)">
<path d="M23.8353 25.5643C23.677 25.6351 23.5157 25.697 23.3515 25.7501C23.1863 25.8033 23.0186 25.848 22.8485 25.8844C22.6793 25.9198 22.5087 25.9463 22.3366 25.964C22.1645 25.9827 21.9914 25.9921 21.8174 25.9921C21.1506 25.9906 20.4913 25.8593 19.8747 25.6026C19.2595 25.3474 18.7005 24.9728 18.2299 24.4993C17.7594 24.0272 17.3847 23.4682 17.131 22.8516C16.8772 22.235 16.746 21.5741 16.7474 20.9074C16.7489 20.4501 16.8123 19.9958 16.9333 19.5547C17.0557 19.1136 17.2342 18.6903 17.4658 18.2964C17.6989 17.9026 17.9821 17.5412 18.3096 17.2211C18.6356 16.9025 19.0044 16.6266 19.4026 16.4039C21.2288 15.4495 22.7157 15.4436 24.5463 15.2725C24.0448 15.2857 22.8957 15.3138 21.6831 15.3049C21.516 15.302 21.3483 15.3015 21.1801 15.3034C21.013 15.3044 20.8453 15.3084 20.6771 15.3152C20.5099 15.3221 20.3428 15.3315 20.1756 15.3433C20.0084 15.3551 19.8412 15.3693 19.6741 15.386C14.3401 15.9023 11.2689 19.8659 11.1155 20.2937C11.1155 20.4058 11.1155 20.5194 11.1155 20.6345C11.1155 26.5379 15.917 31.6226 21.8203 31.6226C22.6066 31.6226 23.3913 31.537 24.1599 31.3659C24.9269 31.1933 25.6748 30.9381 26.3858 30.6018C27.0983 30.2669 27.7709 29.8539 28.3919 29.3701C29.013 28.8862 29.5779 28.336 30.078 27.7283C30.578 27.1205 27.4021 23.9859 23.8353 25.5643Z" fill="url(#paint0_linear_9_388191)"/>
<path d="M30.0765 27.7238C30.0765 27.7238 27.4021 23.9859 23.8353 25.5643C23.677 25.6351 23.5157 25.697 23.3515 25.7501C23.1863 25.8033 23.0186 25.848 22.8485 25.8844C22.6793 25.9198 22.5087 25.9463 22.3366 25.964C22.1645 25.9827 21.9914 25.9921 21.8174 25.9921C21.1506 25.9906 20.4913 25.8593 19.8747 25.6026C19.2595 25.3474 18.7005 24.9728 18.2299 24.4993C17.7594 24.0272 17.3847 23.4682 17.131 22.8516C16.8772 22.235 16.746 21.5741 16.7474 20.9074C16.7489 20.4501 16.8123 19.9958 16.9333 19.5547C17.0557 19.1136 17.2342 18.6903 17.4658 18.2964C17.6989 17.9026 17.9821 17.5412 18.3096 17.2211C18.6356 16.9025 19.0044 16.6266 19.4026 16.4039C21.2288 15.4495 22.7157 15.4436 24.5463 15.2725H24.5257H24.3354C23.7631 15.2872 22.7482 15.3064 21.6831 15.299C21.516 15.2961 21.3483 15.2956 21.1801 15.2975C21.013 15.2995 20.8453 15.3039 20.6771 15.3108C20.5099 15.3177 20.3428 15.327 20.1756 15.3388C20.0084 15.3506 19.8412 15.3649 19.6741 15.3816C14.3401 15.8979 11.2689 19.8615 11.1155 20.2893C11.1155 20.4014 11.1155 20.515 11.1155 20.6301C11.1155 26.5334 15.917 31.6181 21.8203 31.6181C22.6066 31.6181 23.3913 31.5326 24.1584 31.36C24.9269 31.1889 25.6733 30.9322 26.3843 30.5974C27.0968 30.261 27.768 29.848 28.389 29.3656C29.01 28.8818 29.5765 28.3316 30.0765 27.7238Z" fill="url(#paint1_linear_9_388191)"/>
<path fill-rule="evenodd" clip-rule="evenodd" d="M10.6877 9.20356C11.0107 9.33632 11.3028 9.53251 11.5492 9.77886C11.797 10.0267 11.9917 10.3187 12.1259 10.6418C12.2602 10.9634 12.328 11.31 12.3295 11.6581C12.3295 12.7335 11.6819 13.7026 10.6877 14.1142C9.69494 14.5258 8.55173 14.2986 7.79058 13.5374C7.0309 12.7778 6.80373 11.6345 7.21528 10.6418C7.62684 9.64757 8.59599 9 9.67134 9C10.0195 9 10.3646 9.06933 10.6877 9.20356ZM10.0932 12.6789C10.2275 12.6243 10.3499 12.5417 10.4517 12.44C10.5549 12.3367 10.6361 12.2157 10.6921 12.0815C10.7467 11.9473 10.7762 11.8042 10.7762 11.6581C10.7762 11.2112 10.5062 10.8085 10.0932 10.6374C9.68019 10.4663 9.2052 10.5607 8.88953 10.8763C8.57386 11.1935 8.47945 11.6685 8.65056 12.0815C8.8202 12.4945 9.22438 12.763 9.67134 12.763C9.8159 12.763 9.95898 12.735 10.0932 12.6789Z" fill="url(#paint2_linear_9_388191)"/>
<path d="M21.6832 15.3032C23.3279 15.3135 24.567 15.281 24.7293 15.2722C29.3478 14.9329 30.8628 10.0532 30.9999 9.69922C27.5113 10.0459 21.9325 9.87033 21.9325 9.87033C16.1559 9.7538 11.2306 14.4859 11.1125 20.2654V20.3082C11.1583 20.0132 14.2442 15.9124 19.6741 15.3828C19.8413 15.3671 20.0084 15.3533 20.1756 15.3415C20.3428 15.3297 20.51 15.3204 20.6771 15.3135C20.8453 15.3066 21.013 15.3022 21.1802 15.3002C21.3483 15.2982 21.516 15.2992 21.6832 15.3032Z" fill="url(#paint3_linear_9_388191)"/>
</g>
<circle cx="20" cy="20" r="19.5" stroke="black" stroke-opacity="0.05"/>
<defs>
<linearGradient id="paint0_linear_9_388191" x1="10.9945" y1="24.4432" x2="29.957" y2="24.4432" gradientUnits="userSpaceOnUse">
<stop stop-color="#C7C9CB"/>
<stop offset="0.16" stop-color="#B4B5B7"/>
<stop offset="0.36" stop-color="#A1A2A3"/>
<stop offset="0.59" stop-color="#CECFD0"/>
<stop offset="0.7" stop-color="#E0E1E3"/>
</linearGradient>
<linearGradient id="paint1_linear_9_388191" x1="14.8859" y1="14.4848" x2="24.9372" y2="34.0934" gradientUnits="userSpaceOnUse">
<stop stop-color="#464749"/>
<stop offset="0.22" stop-color="#373738" stop-opacity="0.67"/>
<stop offset="0.52" stop-color="#272626" stop-opacity="0.3"/>
<stop offset="0.79" stop-color="#1D1B1B" stop-opacity="0.08"/>
<stop offset="1" stop-color="#1A1818" stop-opacity="0"/>
</linearGradient>
<linearGradient id="paint2_linear_9_388191" x1="7.38492" y1="12.6199" x2="12.7012" y2="12.6199" gradientUnits="userSpaceOnUse">
<stop stop-color="#C7C9CB"/>
<stop offset="0.29" stop-color="#A1A3A5"/>
<stop offset="0.49" stop-color="#8E9091"/>
<stop offset="0.8" stop-color="#B0B2B3"/>
<stop offset="1" stop-color="#C2C4C6"/>
</linearGradient>
<linearGradient id="paint3_linear_9_388191" x1="11.1362" y1="14.7721" x2="31.0221" y2="14.7721" gradientUnits="userSpaceOnUse">
<stop offset="0.13" stop-color="#FFC861"/>
<stop offset="0.26" stop-color="#FCB44C"/>
<stop offset="0.54" stop-color="#F78218"/>
<stop offset="0.59" stop-color="#F6780D"/>
</linearGradient>
<clipPath id="clip0_9_388191">
<rect width="24" height="22.6281" fill="white" transform="translate(7 9)"/>
</clipPath>
</defs>
</svg>
