<svg width="40" height="40" viewBox="0 0 40 40" fill="none" xmlns="http://www.w3.org/2000/svg">
<circle cx="20" cy="20" r="20" fill="#F6F8FA"/>
<circle cx="20" cy="20" r="19.5" stroke="black" stroke-opacity="0.05"/>
<g clip-path="url(#clip0_9_395333)">
<path fill-rule="evenodd" clip-rule="evenodd" d="M33.9918 20.3581C33.9918 24.2876 32.4889 27.9615 29.7709 30.7401C28.5561 31.9548 27.1803 32.9125 25.7096 33.647L24.0146 29.5578C27.3086 27.8655 29.5788 24.3836 29.5788 20.3581C29.5788 15.3111 25.5499 11.1908 20.5608 11.1908C16.1152 11.1908 12.5342 14.8323 12.5342 19.3366C12.5342 19.4963 12.5655 19.6871 12.5655 19.8468H8.15234C8.15234 19.6871 8.15234 19.4963 8.15234 19.3366C8.15234 12.4366 13.749 6.78223 20.5932 6.78223C24.2067 6.78223 27.5969 8.18772 30.1227 10.7755C32.6497 13.3308 34.0242 16.7166 33.9918 20.3581Z" fill="#D52A2F"/>
<path d="M31.8179 19.8471H27.405C27.405 20.0067 27.4361 20.1988 27.4361 20.3584C27.4361 24.8628 23.855 28.5044 19.4097 28.5044C14.5812 28.5044 10.6797 24.6709 10.4238 19.8158H8.18494C8.18494 19.6563 8.18494 19.4642 8.18494 19.3045C8.18494 14.3537 11.0315 10.0724 15.1238 8.02837L14.2931 6.01562C12.79 6.71773 11.4144 7.70918 10.2319 8.92257C7.51268 11.7011 6.00977 15.375 6.00977 19.3045C6.00977 22.9138 7.38541 26.3007 9.91127 28.8885C12.4384 31.4749 15.8286 32.8804 19.4421 32.8804C26.2848 32.8804 31.8815 27.2273 31.8815 20.3271C31.8503 20.1988 31.8179 20.0067 31.8179 19.8471Z" fill="#FDBB30"/>
</g>
<defs>
<clipPath id="clip0_9_395333">
<rect width="28" height="27.6521" fill="white" transform="translate(6 6)"/>
</clipPath>
</defs>
</svg>
