<svg width="40" height="40" viewBox="0 0 40 40" fill="none" xmlns="http://www.w3.org/2000/svg">
<circle cx="20" cy="20" r="20" fill="#00965E"/>
<path d="M29.527 29.527C30.1513 28.9027 30.164 27.8777 29.527 27.2449L25.798 23.5159L28.3881 23.5413C29.4005 23.5666 29.9868 22.8579 29.9868 21.9678C29.9868 21.0567 29.2739 20.3438 28.3881 20.3438H25.1653C24.4566 20.3438 23.8829 20.7825 23.6636 21.3562C23.2586 22.4108 22.4276 23.246 21.3562 23.6636C20.7783 23.8914 20.3438 24.4566 20.3438 25.1653V28.3881C20.3438 29.2739 21.0525 29.9868 21.9678 29.9868C22.8537 29.9868 23.5666 29.4005 23.5413 28.3881L23.5159 25.798L27.2449 29.527C27.8777 30.1598 28.9027 30.1471 29.527 29.527ZM29.527 10.473C28.9069 9.84868 27.8777 9.83603 27.2449 10.473L23.5159 14.202L23.5413 11.6119C23.5666 10.5995 22.8537 10.0132 21.9678 10.0132C21.0567 10.0132 20.3438 10.7261 20.3438 11.6119V14.8347C20.3438 15.5434 20.7825 16.1171 21.3562 16.3364C22.4108 16.7414 23.2418 17.5724 23.6636 18.6438C23.8914 19.2217 24.4566 19.6562 25.1653 19.6562H28.3881C29.2739 19.6562 29.9868 18.9475 29.9868 18.0322C29.9868 17.1463 29.4005 16.4334 28.3881 16.4587L25.798 16.4841L29.527 12.7551C30.1598 12.1223 30.1471 11.0931 29.527 10.473ZM10.473 10.473C9.84868 11.0973 9.84024 12.1223 10.473 12.7551L14.202 16.4841L11.6119 16.4587C10.5995 16.4334 10.0132 17.1421 10.0132 18.0322C10.0132 18.9433 10.7261 19.6562 11.6119 19.6562H14.8347C15.5434 19.6562 16.1171 19.2175 16.3364 18.6438C16.7414 17.5892 17.5724 16.754 18.6438 16.3364C19.2217 16.1086 19.6562 15.5434 19.6562 14.8347V11.6119C19.6562 10.7261 18.9475 10.0132 18.0322 10.0132C17.1463 10.0132 16.4334 10.5995 16.4587 11.6119L16.4841 14.202L12.7551 10.473C12.1223 9.83603 11.0931 9.84868 10.473 10.473ZM10.473 29.527C11.0931 30.1513 12.1223 30.164 12.7551 29.527L16.4841 25.798L16.4587 28.3881C16.4334 29.4005 17.1421 29.9868 18.0322 29.9868C18.9433 29.9868 19.6562 29.2739 19.6562 28.3881V25.1653C19.6562 24.4566 19.2175 23.8829 18.6438 23.6636C17.5892 23.2586 16.7582 22.4276 16.3364 21.3562C16.1086 20.7783 15.5434 20.3438 14.8347 20.3438H11.6119C10.7261 20.3438 10.0132 21.0525 10.0132 21.9678C10.0132 22.8537 10.5995 23.5666 11.6119 23.5413L14.202 23.5159L10.473 27.2449C9.83603 27.8777 9.84868 28.9027 10.473 29.527Z" fill="white"/>
<circle cx="20" cy="20" r="19.5" stroke="black" stroke-opacity="0.05"/>
</svg>
