<svg width="40" height="40" viewBox="0 0 40 40" fill="none" xmlns="http://www.w3.org/2000/svg">
<circle cx="20" cy="20" r="20" fill="#13325A"/>
<path d="M33.0147 20.0073C33.0147 23.4571 31.6443 26.7656 29.2049 29.2049C26.7656 31.6443 23.4571 33.0147 20.0073 33.0147C16.5576 33.0147 13.2491 31.6443 10.8098 29.2049C8.37041 26.7656 7 23.4571 7 20.0073C7 16.5576 8.37041 13.2491 10.8098 10.8098C13.2491 8.37041 16.5576 7 20.0073 7C23.4571 7 26.7656 8.37041 29.2049 10.8098C31.6443 13.2491 33.0147 16.5576 33.0147 20.0073ZM15.7027 9.31933C10.456 11.3487 7.766 16.736 8.726 22.1827C9.324 25.5753 11.4013 28.4873 14.4413 30.1173C17.5807 31.8013 21.5433 31.9333 24.798 30.4967C28.016 29.0767 30.3513 26.25 31.1547 22.8273C32.354 17.7187 30.2367 12.366 25.5187 9.87C22.5307 8.29 18.8253 8.11133 15.7027 9.31933Z" fill="white"/>
<path d="M17.5187 19.0118C17.5925 19.0416 17.6016 19.028 17.5461 18.9712C16.2585 17.6538 14.9918 16.306 13.7461 14.9278C13.7372 14.918 13.7374 14.9087 13.7467 14.8998L14.1334 14.5125C14.1376 14.5085 14.1431 14.5062 14.1488 14.5061C14.1545 14.5059 14.16 14.508 14.1641 14.5118C15.5205 15.7389 16.8654 17.0036 18.1987 18.3058C18.2623 18.3676 18.2774 18.3576 18.2441 18.2758C17.5774 16.6434 16.9272 14.9187 16.2934 13.1018C16.2914 13.0961 16.2915 13.0899 16.2939 13.0842C16.2962 13.0786 16.3005 13.0739 16.3061 13.0712C16.4501 13.0023 16.6118 12.9349 16.7914 12.8692C16.7984 12.8666 16.8061 12.8668 16.813 12.8696C16.8199 12.8724 16.8255 12.8778 16.8287 12.8845C17.3496 13.9614 17.8583 15.066 18.3547 16.1985C18.6161 16.7938 18.9281 17.3505 19.1947 17.9298C19.2267 17.9987 19.2427 17.9952 19.2427 17.9192L19.2447 12.3892C19.2447 12.3846 19.2457 12.3801 19.2474 12.3759C19.2492 12.3717 19.2518 12.3679 19.2551 12.3646C19.2584 12.3614 19.2623 12.3589 19.2665 12.3571C19.2708 12.3554 19.2754 12.3545 19.2801 12.3545L19.9654 12.3572C19.9771 12.3572 19.9883 12.3618 19.9965 12.37C20.0048 12.3783 20.0094 12.3895 20.0094 12.4012L20.0087 19.9772C20.0087 19.9855 20.012 19.9934 20.0179 19.9993C20.0238 20.0052 20.0318 20.0085 20.0401 20.0085L27.6181 20.0098C27.6301 20.0098 27.6416 20.0145 27.6501 20.0229C27.6586 20.0313 27.6634 20.0426 27.6634 20.0545V20.7418C27.6634 20.7515 27.6596 20.7609 27.6529 20.7678C27.6461 20.7746 27.6369 20.7785 27.6274 20.7785L22.0841 20.7792C21.9685 20.7792 21.9643 20.8005 22.0714 20.8432C22.1363 20.8689 22.1961 20.8958 22.2507 20.9238C22.8423 21.2252 23.3778 21.482 23.8574 21.6945C25.0738 22.2327 26.1654 22.7427 27.1321 23.2245C27.1371 23.2269 27.1409 23.2312 27.1427 23.2365C27.1446 23.2417 27.1444 23.2474 27.1421 23.2525L26.9567 23.6912C26.951 23.7045 26.9414 23.7087 26.9281 23.7038C25.177 23.0892 23.4421 22.4398 21.7234 21.7558C21.6323 21.7198 21.6207 21.7372 21.6887 21.8078C22.9807 23.1465 24.3094 24.5492 25.4754 25.8825C25.4821 25.89 25.4821 25.8974 25.4754 25.9045C25.367 26.0214 25.2518 26.1358 25.1301 26.2478C25.1234 26.2536 25.1167 26.2536 25.1101 26.2478C23.7087 25.0029 22.3525 23.738 21.0414 22.4532C20.9672 22.3807 20.9492 22.3925 20.9874 22.4885C21.6683 24.2009 22.3178 25.9387 22.9361 27.7018C22.9396 27.7112 22.9367 27.7178 22.9274 27.7218L22.4741 27.9132C22.4661 27.9167 22.4601 27.9145 22.4561 27.9065C21.9085 26.798 21.3796 25.66 20.8694 24.4925C20.6207 23.9245 20.3181 23.3832 20.0574 22.8098C20.0267 22.7427 20.0114 22.746 20.0114 22.8198L20.0081 28.3878C20.0081 28.4163 19.9938 28.4305 19.9654 28.4305L19.2921 28.4298C19.2852 28.4298 19.2783 28.4285 19.2719 28.4259C19.2655 28.4233 19.2597 28.4194 19.2548 28.4146C19.2499 28.4098 19.2461 28.404 19.2434 28.3977C19.2408 28.3914 19.2394 28.3847 19.2394 28.3778L19.2414 20.8138C19.2414 20.8037 19.2374 20.7941 19.2303 20.787C19.2231 20.7798 19.2135 20.7758 19.2034 20.7758L11.6387 20.7732C11.6258 20.7732 11.6133 20.7681 11.6041 20.7589C11.5949 20.7498 11.5896 20.7375 11.5894 20.7245L11.5874 20.0538C11.5874 20.042 11.5921 20.0306 11.6005 20.0222C11.6089 20.0139 11.6202 20.0092 11.6321 20.0092L17.1514 20.0085C17.2221 20.0085 17.2256 19.9932 17.1621 19.9625C16.5207 19.6545 15.8941 19.3198 15.2427 19.0352C14.2556 18.6036 13.2174 18.124 12.1281 17.5965C12.1176 17.5914 12.1095 17.5825 12.1054 17.5717C12.1013 17.5609 12.1016 17.549 12.1061 17.5385L12.2934 17.0845C12.2975 17.0746 12.3053 17.0666 12.3152 17.0621C12.3251 17.0577 12.3364 17.0571 12.3467 17.0605C14.1116 17.6783 15.8356 18.3287 17.5187 19.0118Z" fill="white"/>
<circle cx="20" cy="20" r="19.5" stroke="black" stroke-opacity="0.05"/>
</svg>
