<svg width="40" height="40" viewBox="0 0 40 40" fill="none" xmlns="http://www.w3.org/2000/svg">
<circle cx="20" cy="20" r="20" fill="#09456A"/>
<g clip-path="url(#clip0_9_405467)">
<path d="M17.6014 8.63275C17.956 8.48278 18.4119 8.43239 18.8685 8.48278C18.9693 8.48278 19.0713 8.53257 19.1721 8.53257C20.3378 8.78271 21.0985 9.88346 20.8454 11.0838L19.9328 15.6361L17.6014 8.63275ZM13.2415 10.5343C13.4947 10.2338 13.8499 10.0334 14.3058 9.88346C14.4072 9.83368 14.5086 9.83368 14.6094 9.83368C15.7757 9.58353 16.9414 10.2836 17.1952 11.4845L18.2092 15.9865L13.2415 10.5343ZM9.99755 14.0357C10.0989 13.6854 10.3521 13.3351 10.7073 13.0351C10.8087 12.935 10.8591 12.8852 10.9605 12.8348C11.9234 12.1347 13.2919 12.3345 14.0023 13.2853L16.8407 16.987L9.99755 14.0357ZM8.47666 18.4879C8.42626 18.0872 8.52766 17.6871 8.73044 17.287C8.78083 17.1874 8.83183 17.137 8.88223 17.0368C9.49058 15.9865 10.8087 15.6361 11.8226 16.2366L15.9281 18.4879H8.47666ZM8.93323 23.1902C8.73044 22.8399 8.62905 22.4398 8.62905 21.9899V21.6894C8.73044 20.489 9.79476 19.6384 11.0115 19.7386L15.6749 20.1885L8.93323 23.1902ZM11.315 27.3425C11.0115 27.1421 10.7577 26.7918 10.5549 26.3419C10.5039 26.2417 10.5039 26.1415 10.4535 26.042C10.0983 24.9412 10.7067 23.6905 11.822 23.3402L16.2827 21.8393L11.315 27.3425ZM15.168 30.1438C14.7584 30.0237 14.3785 29.8191 14.0527 29.5434L13.8499 29.343C13.0387 28.493 13.0897 27.0923 14.0017 26.2915L17.449 23.1404L15.168 30.1438ZM19.8818 31.1444C19.5273 31.2446 19.0713 31.1942 18.6147 31.0442C18.5133 30.9944 18.4119 30.9944 18.3615 30.944C17.2462 30.4941 16.7393 29.193 17.2462 28.1427L19.1223 23.8909L19.8818 31.1444ZM24.5453 30.1936C24.2417 30.394 23.8355 30.5439 23.3286 30.5943H23.025C21.8083 30.5943 20.8454 29.6435 20.8454 28.4426L20.7944 23.7907L24.5453 30.1936ZM28.4486 27.4426C28.2357 27.8104 27.918 28.1064 27.5361 28.2926C27.4347 28.343 27.3843 28.3928 27.2829 28.3928C26.7594 28.6286 26.1645 28.6508 25.6248 28.4546C25.0852 28.2585 24.6434 27.8594 24.3935 27.3425L22.4167 23.1404L28.4486 27.4426ZM30.882 23.3402C30.8324 23.7659 30.6557 24.1668 30.3751 24.4907C30.335 24.5805 30.2626 24.652 30.1723 24.6911C29.3612 25.5915 27.9927 25.6412 27.0801 24.8914L23.532 21.8393L30.882 23.3402ZM31.4394 18.6379C31.5408 18.9882 31.5912 19.4381 31.4394 19.8886C31.4394 19.9887 31.3884 20.0889 31.338 20.1387C30.9828 21.2892 29.7667 21.8897 28.6004 21.5394L24.0893 20.1387L31.4394 18.6379ZM29.9689 14.1359C30.2227 14.4358 30.4255 14.7855 30.5269 15.2864C30.5269 15.386 30.5773 15.4868 30.5773 15.5864C30.729 16.7867 29.8681 17.8376 28.6514 17.9378L23.9879 18.4879L29.9695 14.1359H29.9689ZM26.7759 10.6339C27.1305 10.7839 27.4857 11.034 27.7389 11.4341C27.7899 11.5343 27.8403 11.5841 27.8907 11.6842C28.4996 12.6848 28.1444 14.0357 27.1305 14.6356L23.0754 16.987L26.7759 10.6339ZM22.416 8.68253C22.8216 8.68253 23.2272 8.78271 23.6328 9.03286C23.7342 9.08325 23.7845 9.13303 23.8865 9.18282C24.8495 9.88346 25.1027 11.2344 24.3929 12.1845L21.6559 15.9865L22.416 8.68253Z" fill="white"/>
</g>
<circle cx="20" cy="20" r="19.5" stroke="black" stroke-opacity="0.05"/>
<defs>
<clipPath id="clip0_9_405467">
<rect width="24" height="24" fill="white" transform="translate(8 8)"/>
</clipPath>
</defs>
</svg>
