<svg width="40" height="40" viewBox="0 0 40 40" fill="none" xmlns="http://www.w3.org/2000/svg">
<circle cx="20" cy="20" r="20" fill="#F6F8FA"/>
<circle cx="20" cy="20" r="19.5" stroke="black" stroke-opacity="0.05"/>
<g clip-path="url(#clip0_9_395123)">
<mask id="mask0_9_395123" style="mask-type:luminance" maskUnits="userSpaceOnUse" x="-3" y="-32" width="165" height="93">
<path d="M-2.61133 -31.9121H161.378V60.259H-2.61133V-31.9121Z" fill="white"/>
</mask>
<g mask="url(#mask0_9_395123)">
<path d="M19.0832 13.2347C18.272 12.0987 17.23 11.459 16.1714 11.459C15.8241 11.459 15.5163 11.5101 15.2481 11.6123C14.582 12.7137 14.2061 14.0113 14.2061 15.393C14.2061 16.8094 14.6084 18.1416 15.3091 19.2677C15.5652 19.3535 15.8527 19.3963 16.1714 19.3963C17.2646 19.3963 18.4171 18.7137 19.1772 17.6469C18.6232 17.0567 18.2803 16.2636 18.2803 15.393C18.2803 14.5653 18.5886 13.8151 19.0832 13.2347Z" fill="#F05523"/>
<path d="M21.0651 30.1934C21.0651 29.9708 20.9464 29.8604 20.7485 29.7482L20.1253 29.3476C18.2901 28.3154 17.042 27.1547 17.042 25.4646C17.042 24.2956 17.5202 23.5702 17.9043 23.1695C17.4097 23.2662 16.9062 23.3146 16.394 23.3146C15.8549 23.3146 15.3256 23.2635 14.8128 23.1514C14.6084 23.6378 14.2061 24.7557 14.2061 26.0879C14.2061 31.8142 18.7073 33.1036 20.5787 33.3838C20.8013 33.4185 20.9876 33.2569 20.9975 33.0343L21.0651 30.1934Z" fill="#8A1A9B"/>
<path d="M28.9907 15.3929C28.9907 11.3137 25.6766 8.00293 21.5941 8.00293C20.9709 8.00293 20.3641 8.08702 19.792 8.23211C20.2883 8.46295 20.7664 8.75314 21.21 9.10268C22.5257 10.1019 23.5084 11.5182 23.9783 13.0895C24.5587 13.6864 24.9082 14.4976 24.9082 15.3929C24.9082 16.2799 24.5587 17.0911 23.9783 17.6897C23.4985 19.2593 22.5257 20.6756 21.21 21.6831C21.0506 21.8029 20.8884 21.9194 20.7236 22.0326C21.0083 22.004 21.2984 21.9897 21.5941 21.9897C24.1135 21.9897 26.1547 22.9543 26.1547 25.4638C26.1547 27.3747 24.6444 28.5025 22.961 29.4143L22.4317 29.7474C22.2438 29.8595 22.1333 29.97 22.1333 30.1827L22.2009 33.0417C22.2009 33.2643 22.4053 33.4341 22.6197 33.4011C26.224 32.9065 28.9907 29.8166 28.9907 26.087V24.8059V15.3929Z" fill="#FF5100"/>
<path d="M16.171 19.9341C13.8561 19.9341 13.0185 17.9192 13.0185 15.4279C13.0185 12.9448 13.8561 10.9217 16.171 10.9217C17.6912 10.9217 18.9888 12.005 19.8099 13.3702H23.5082C22.6195 10.2473 19.7324 7.96869 16.3161 8.00332C12.3524 8.04619 9.09926 11.2548 9.00528 15.2135C8.90141 19.3702 12.2501 22.775 16.3936 22.775C19.7753 22.775 22.6277 20.5062 23.5082 17.4163H19.955C19.1768 18.8327 17.7258 19.9341 16.171 19.9341Z" fill="#0071CE"/>
</g>
</g>
<defs>
<clipPath id="clip0_9_395123">
<rect width="20" height="25.4081" fill="white" transform="translate(9 8)"/>
</clipPath>
</defs>
</svg>
