<svg width="40" height="40" viewBox="0 0 40 40" fill="none" xmlns="http://www.w3.org/2000/svg">
<circle cx="20" cy="20" r="20" fill="#028265"/>
<path d="M16.3596 23.9758L20.9335 23.9751C20.9339 23.975 20.9343 23.975 20.9346 23.9751C20.935 23.9753 20.9351 23.9756 20.9351 23.9761C20.9351 23.9765 20.935 23.9769 20.9346 23.9774C20.9343 23.9778 20.9339 23.9781 20.9335 23.9783C20.4024 24.0901 19.906 24.2757 19.4441 24.5352C18.2806 25.1885 17.2318 26.0782 16.2977 27.2042C15.8784 27.7098 15.553 28.2148 15.3214 28.7192C15.306 28.753 15.2964 28.7514 15.2926 28.7142C15.1931 27.7167 14.5692 26.6998 13.9291 25.922C13.2419 25.0859 12.1318 24.0734 11.031 24.1441C10.9914 24.1466 10.9897 24.1401 11.026 24.1247C11.5761 23.8888 12.0016 23.3675 12.302 22.8637C12.7171 22.1695 13.0696 21.4271 13.3596 20.6366C13.9232 19.0992 14.4136 17.4367 14.8308 15.649C15.4441 13.0241 15.9337 10.4777 16.2995 8.01005C16.3004 8.00296 16.3045 7.99962 16.3121 8.00003H16.3127C16.3177 8.00045 16.3202 8.00316 16.3202 8.00817C16.321 13.3215 16.321 18.6307 16.3202 23.9357C16.3202 23.9624 16.3333 23.9758 16.3596 23.9758Z" fill="white"/>
<path d="M25.7533 27.327C26.9606 27.3249 28.1909 27.3237 29.4442 27.3233C29.5149 27.3233 29.5731 27.3445 29.64 27.3564C29.6421 27.3569 29.6442 27.3569 29.6463 27.3564C29.6492 27.3564 29.6501 27.3552 29.6488 27.3527C29.6471 27.3502 29.6451 27.3491 29.6425 27.3496C29.4118 27.375 29.1776 27.4326 28.9398 27.5223C27.6995 27.9904 26.5687 28.8627 25.6575 29.8302C24.9767 30.5532 24.4767 31.2628 24.1575 31.9591C24.1317 32.0158 24.1219 32.0131 24.1281 31.951C24.1531 31.7025 24.0305 31.3271 23.931 31.0705C23.4541 29.8452 22.481 28.5886 21.3796 27.8289C20.9011 27.4989 20.4055 27.322 19.8928 27.2982C19.8461 27.2962 19.845 27.2882 19.8896 27.2745C20.1594 27.1931 20.4472 26.9522 20.6293 26.7532C20.9472 26.4069 21.2345 26.0014 21.491 25.5366C21.9187 24.7623 22.3089 23.8894 22.6619 22.9177C23.0299 21.9035 23.3181 21.037 23.5267 20.3182C24.3941 17.3286 25.1075 14.3033 25.6669 11.2424C25.6936 11.0976 25.707 11.0989 25.707 11.2462L25.7076 27.2813C25.7076 27.3118 25.7228 27.327 25.7533 27.327Z" fill="white"/>
<circle cx="20" cy="20" r="19.5" stroke="black" stroke-opacity="0.05"/>
</svg>
