<svg width="40" height="40" viewBox="0 0 40 40" fill="none" xmlns="http://www.w3.org/2000/svg">
<circle cx="20" cy="20" r="20" fill="#033E6B"/>
<path fill-rule="evenodd" clip-rule="evenodd" d="M4.59932 32.7609C3.41196 31.3295 2.42034 29.7299 1.66553 28.0031C3.94745 28.0029 6.40278 28.0023 8.92997 28.0017C18.0708 27.9995 28.1519 27.9971 34.3691 28.0104C33.3997 29.0079 32.4144 29.9896 31.4294 30.971C30.8333 31.5649 30.2373 32.1588 29.6449 32.7561C26.7142 32.7515 22.5502 32.7544 18.0192 32.7576C13.6278 32.7606 8.8917 32.7639 4.59932 32.7609Z" fill="#8EC73D"/>
<path fill-rule="evenodd" clip-rule="evenodd" d="M18.6632 8.13378C16.7995 8.55855 15.6631 9.18309 14.4437 10.4205C13.4462 11.4446 12.9311 12.2476 12.5086 13.4618C11.4301 16.5728 12.0976 20.0505 14.2199 22.3838C15.9428 24.2807 18.7115 25.2602 21.4434 24.9402C23.4365 24.7055 24.8545 24.0577 26.2495 22.7484L27 22.0424L25.8385 20.8748L24.6674 19.7188L24.0095 20.2619C22.7554 21.2879 21.536 21.6991 20.1064 21.5944C16.7049 21.3345 14.737 17.3972 16.2959 14.0262C16.7416 13.0719 17.6194 12.1758 18.5224 11.7511C19.1205 11.4698 19.3327 11.433 20.4807 11.433C21.9817 11.433 22.5451 11.6347 23.7992 12.5773C24.2101 12.8954 24.5497 13.1418 24.5729 13.1418C24.596 13.1418 25.4874 12.106 26.7183 10.6552C26.8707 10.4787 26.7897 10.3837 26.0508 9.79599C25.1131 9.05314 24.104 8.54497 23.0602 8.25209C22.0531 7.98055 19.626 7.90879 18.6632 8.13378Z" fill="white"/>
<circle cx="20" cy="20" r="19.5" stroke="black" stroke-opacity="0.05"/>
</svg>
