<svg width="40" height="40" viewBox="0 0 40 40" fill="none" xmlns="http://www.w3.org/2000/svg">
<circle cx="20" cy="20" r="20" fill="#1B619A"/>
<g clip-path="url(#clip0_9_386098)">
<mask id="mask0_9_386098" style="mask-type:luminance" maskUnits="userSpaceOnUse" x="10" y="13" width="60" height="19">
<path d="M10.0063 13.0068H69.1017V31.6241H10.0063V13.0068Z" fill="white"/>
</mask>
<g mask="url(#mask0_9_386098)">
<path d="M29.9947 20.8338V26.8906H28.2629V20.9963C28.2629 19.2935 27.3263 18.2776 25.7596 18.2776C24.1519 18.2776 22.9855 19.4811 22.9855 21.1403V26.8906H21.2536V13.0068H22.9855V17.74C23.7437 17.0055 24.7252 16.6171 25.8864 16.6171C28.3434 16.6171 29.9947 18.312 29.9947 20.8338ZM19.432 24.0253L20.6354 25.2274L20.3051 25.526C19.5522 26.209 18.3038 27.1178 16.1651 27.1178C12.6539 27.1178 10.0066 24.1363 10.0066 20.1839C10.0066 16.2089 12.6763 13.2116 16.2166 13.2116C18.3117 13.2116 19.5178 14.024 20.2431 14.6343L20.5958 14.9315L19.317 16.2089L19.0211 15.9738C18.1347 15.2684 17.2642 14.954 16.1995 14.954C13.679 14.954 11.7794 17.1852 11.7794 20.1455C11.7794 23.0782 13.7213 25.3754 16.1995 25.3754C17.3117 25.3754 18.2166 25.0359 19.1347 24.2724L19.432 24.0253Z" fill="white"/>
</g>
</g>
<circle cx="20" cy="20" r="19.5" stroke="black" stroke-opacity="0.05"/>
<defs>
<clipPath id="clip0_9_386098">
<rect width="20" height="14.1215" fill="white" transform="translate(10 13)"/>
</clipPath>
</defs>
</svg>
