<svg width="40" height="40" viewBox="0 0 40 40" fill="none" xmlns="http://www.w3.org/2000/svg">
<circle cx="20" cy="20" r="20" fill="#F6F8FA"/>
<g clip-path="url(#clip0_9_391474)">
<path d="M31.7439 11H7.2561C6.56237 11 6 11.5624 6 12.2561V27.663C6 28.3567 6.56237 28.9191 7.2561 28.9191H31.7439C32.4376 28.9191 33 28.3567 33 27.663V12.2561C33 11.5624 32.4376 11 31.7439 11Z" fill="#2C325C"/>
<path d="M31.9868 11H33.0002V12.0164L32.9486 11.8131L32.8758 11.6311L32.7817 11.4703L32.6664 11.3337L32.5299 11.2185L32.3721 11.1244L32.1931 11.0516L31.9868 11Z" fill="#FCFEFC"/>
<path d="M12.0891 14.2861L12.4046 14.3771L12.6322 14.4682L12.8506 14.5774H12.8749L12.8931 14.5592L12.9568 14.3529L12.975 14.3225L13.0084 14.3134H13.1176L13.1419 14.3256L13.151 14.3498L13.3331 15.8972L13.327 15.9275L13.2997 15.9457L13.1601 15.9852H13.1298L13.1085 15.9579L13.0115 15.7061L12.8901 15.4664L12.7445 15.2449L12.5837 15.0507L12.4046 14.8808L12.2165 14.7443L12.0102 14.635L11.7978 14.5592L11.634 14.5228L11.4641 14.5046H11.2305L11.012 14.5349L10.8057 14.5956L10.6176 14.6836L10.4659 14.7837L10.3294 14.902L10.205 15.0416L10.0957 15.1994L9.99864 15.3784L9.91976 15.5726L9.85604 15.7849L9.81053 16.0064L9.78322 16.2218L9.77412 16.4433L9.78019 16.6648L9.80143 16.8863L9.83784 17.1048L9.88942 17.3202L9.95313 17.5235L10.032 17.7207L10.123 17.9027L10.2262 18.0726L10.3385 18.2274L10.4659 18.3669L10.5994 18.4883L10.742 18.5945L10.8907 18.6825L11.0515 18.7522L11.185 18.7978L11.3245 18.8281L11.4641 18.8463L11.6097 18.8524L11.7584 18.8463L11.9162 18.8281L12.2317 18.7553L12.4289 18.6855L12.617 18.5975L12.7809 18.5004L12.9356 18.3851L13.0812 18.2547L13.2178 18.106H13.2238H13.2299L13.324 18.1758L13.4028 18.2638V18.2729L13.2026 18.5186L12.9872 18.734L12.7536 18.9161L12.5048 19.0678L12.2924 19.1649L12.0709 19.2438L11.8373 19.3014L11.5915 19.3378H11.3306L11.097 19.3317L10.8907 19.3105L10.7116 19.2771L10.3961 19.1831L10.1109 19.0587L9.85301 18.9039L9.62242 18.7189L9.42521 18.5095L9.2553 18.2698L9.10967 18.0028L8.99134 17.7055L8.89121 17.3627L8.8457 16.9895V16.6193L8.88818 16.2583L8.97617 15.9093L9.10663 15.5847L9.18552 15.43L9.27654 15.2813L9.37363 15.1417L9.48285 15.0113L9.60118 14.8869L9.72861 14.7716L9.89245 14.6441L10.0684 14.5319L10.2505 14.4348L10.4477 14.3529L10.478 14.3407L10.6601 14.2831L10.8482 14.2406L11.0424 14.2133L11.2396 14.2012H11.4428L11.6522 14.2163L11.8646 14.2467L12.083 14.2922L12.0891 14.2861Z" fill="#FCFEFC"/>
<path d="M18.2668 14.8559L18.2455 16.8978L18.2607 18.7941L18.2728 18.8729L18.3092 18.9336L18.3699 18.9761L18.4579 18.9943L18.8523 19.0034L19.1648 18.9822L19.2286 18.964L19.2771 18.9306L19.3135 18.8699L19.3256 18.788L19.3347 16.9858L19.3044 15.2958L19.2892 15.1896L19.2528 15.0986L19.1861 15.0106L19.086 14.9378L18.9616 14.8832L18.8099 14.8437L18.7856 14.8316L18.7704 14.8073L18.7643 14.7466L18.7765 14.689L18.7947 14.6617L18.825 14.6435L19.1133 14.5525L19.3863 14.4554L19.6442 14.3522L19.8869 14.24L19.9021 14.2339L20.0235 14.2035H20.0265L20.072 14.2217L20.0902 14.2673L20.066 16.4669L20.072 18.6151L20.0811 18.7516L20.1024 18.8942L20.1357 18.9458L20.2359 18.9852L20.4058 19.0064H20.6485L20.9549 18.9943H20.9792L21.0277 18.9822L21.0611 18.9609L21.0824 18.9245L21.0915 18.876L21.1036 17.987L21.0975 17.1253V17.092L21.0581 17.0009L20.9792 16.919L20.8669 16.8553L20.7365 16.8159L20.7001 16.7977L20.6758 16.7643L20.6667 16.7309L20.6758 16.6581L20.691 16.6338L20.7152 16.6186L21.8409 16.2151L21.8287 18.4482L21.8378 18.6697L21.8621 18.8972L21.8742 18.9306L21.8955 18.9579L21.9258 18.9761L21.9622 18.9822H22.2505L22.296 19.0004L22.3111 19.0459V19.1885L22.2929 19.231L22.2505 19.2431L19.1679 19.237L17.038 19.2431L16.9955 19.2279L16.9803 19.1855V19.0398L16.9955 18.9973L17.038 18.9822H17.3474L17.4112 18.967L17.4658 18.9306L17.5022 18.876L17.5143 18.8123V15.7357L17.49 15.2594L17.4658 15.1441L17.4142 15.047L17.3535 14.9863L17.2686 14.9317L17.1654 14.8862L17.0137 14.8377H16.9985L16.9712 14.8164L16.9561 14.7891V14.7739V14.6799L16.9712 14.6495L17.0016 14.6344L17.2837 14.5494L17.5689 14.4493L17.8541 14.331L18.1424 14.1975L18.1606 14.1914H18.2L18.2364 14.2096L18.2607 14.24L18.2698 14.2794L18.2607 14.8498L18.2668 14.8559Z" fill="#FCFEFC"/>
<path d="M21.3828 15.7753C21.6174 15.7753 21.8075 15.5851 21.8075 15.3505C21.8075 15.116 21.6174 14.9258 21.3828 14.9258C21.1482 14.9258 20.958 15.116 20.958 15.3505C20.958 15.5851 21.1482 15.7753 21.3828 15.7753Z" fill="#FCFEFC"/>
<path d="M25.9579 18.8096V17.3472L25.9458 17.2046L25.8972 17.0832L25.8487 17.0195L25.7789 16.9558L25.5605 16.8253L25.5514 16.8192L25.5241 16.795L25.5089 16.7586V16.7191L25.5332 16.6888L25.5544 16.6736L26.4252 16.261L26.5041 16.2428L26.5526 16.2549L26.5769 16.2974L26.6376 16.7889L26.6527 16.8223L26.68 16.798L26.8894 16.531L26.9895 16.4279L27.0866 16.3459L27.1898 16.2792L27.2868 16.2337L27.3839 16.2064L27.4871 16.1973L27.6145 16.2124L27.7237 16.2579L27.8087 16.3338L27.8451 16.4036L27.8633 16.4794V16.5644L27.8421 16.6524L27.8026 16.7343L27.748 16.8071L27.6813 16.8617L27.6024 16.9012L27.5205 16.9194H27.4294L27.3384 16.9012L27.2413 16.8617L27.1169 16.8192L27.0563 16.8132L26.9986 16.8192L26.9349 16.8405L26.8772 16.8769L26.8226 16.9315L26.7771 16.9952L26.7346 17.0771L26.7043 17.1651L26.6831 17.2622L26.677 17.3563V18.667L26.6861 18.8369L26.7013 18.8885L26.7286 18.9309L26.8014 18.9734L26.9197 18.9886H27.1746L27.2171 19.0038L27.2322 19.0493V19.204L27.2171 19.2435L27.1776 19.2556L26.6133 19.2343H26.0581L25.5028 19.2556L25.4755 19.2435L25.4634 19.2161V19.0371L25.4755 19.0068L25.5059 18.9947H25.6029H25.7971L25.8639 18.9734L25.9063 18.94L25.9337 18.8885L25.9458 18.8157L25.9579 18.8096Z" fill="#FCFEFC"/>
<path d="M16.6525 16.9772L16.7617 17.2078L16.8345 17.4353L16.8709 17.6599V17.8813L16.8345 18.0968L16.7617 18.3091L16.6555 18.5185L16.5129 18.7248L16.4219 18.831L16.3248 18.9281L16.2216 19.013L16.1094 19.0889L15.9455 19.1738L15.7696 19.2376L15.5815 19.2831L15.3812 19.3073H15.1415L14.9079 19.277L14.6925 19.2133L14.4892 19.1132L14.3678 19.0312L14.2556 18.9402L14.1524 18.834L14.0584 18.7187L13.9764 18.5913L13.9067 18.4578L13.852 18.3182L13.8096 18.1726L13.7823 18.0239L13.7671 17.8722V17.7205L13.7823 17.5688L13.8096 17.4202L13.852 17.2745L13.9067 17.138L13.9764 17.0045L14.0826 16.8498L14.2101 16.7041L14.3527 16.5767L14.5165 16.4614L14.6773 16.3765L14.8533 16.3127L15.0414 16.2703L15.2447 16.249H15.4297L15.6057 16.2672L15.7756 16.3036L15.9364 16.3582L16.1397 16.4614L16.3278 16.5979L16.5008 16.7709L16.6616 16.9772H16.6525ZM15.4115 19.01L15.454 18.9979L15.5784 18.9402L15.6876 18.8522L15.7847 18.7309L15.8667 18.5852L15.9334 18.4032L15.9819 18.203L16.0093 17.9875L16.0153 17.766L16.0001 17.5446L15.9668 17.3291L15.9122 17.1319L15.8393 16.9529L15.7544 16.8073L15.6512 16.6859L15.539 16.5979L15.4115 16.5403L15.3751 16.5312L15.2659 16.516L15.1628 16.5251L15.0657 16.5524L14.9777 16.5979L14.8927 16.6647L14.8169 16.7466L14.7441 16.8467L14.6834 16.959L14.6348 17.0834L14.6015 17.2078L14.562 17.4839L14.5468 17.7812L14.562 18.0604L14.6045 18.3152L14.6682 18.5276L14.7562 18.7036L14.8684 18.8401L14.9989 18.9372L15.099 18.9827L15.2022 19.007L15.3023 19.013L15.4055 19.0009L15.4115 19.01Z" fill="#FCFEFC"/>
<path d="M25.2114 18.455V18.4641L25.2175 18.5066L25.1993 18.5551L25.1022 18.7159L24.9929 18.8585L24.8716 18.9799L24.7381 19.083L24.5833 19.171L24.4165 19.2378L24.2344 19.2863L24.0403 19.3136H23.7581L23.5791 19.2924L23.3697 19.2408L23.1755 19.1528L23.0026 19.0254L22.8509 18.8585L22.7265 18.6643L22.6294 18.4368L22.5627 18.1819L22.5293 17.9089V17.6297L22.5657 17.3627L22.596 17.2444L22.6416 17.1261L22.7022 17.0017L22.7751 16.8803L22.9541 16.6558L23.0512 16.5587L23.1543 16.4738L23.3121 16.3827L23.4972 16.3129L23.7095 16.2644L23.931 16.2432L24.1434 16.2492L24.3346 16.2826L24.5075 16.3433L24.644 16.4252L24.7897 16.5587L24.911 16.7074L24.996 16.853L25.0597 17.0108L25.1052 17.1837L25.1325 17.3688L25.1264 17.4113L25.1052 17.4446L25.0718 17.4659L25.0354 17.475H23.2908L23.2635 17.4841L23.2544 17.5084V17.7845L23.2969 18.0363L23.3333 18.1516L23.3819 18.2638L23.4395 18.364L23.5063 18.458L23.6185 18.5794L23.752 18.6856L23.8977 18.7614L24.0676 18.8069L24.2466 18.816L24.4256 18.7918L24.6016 18.7341L24.7624 18.6461L24.8989 18.5369L25.0081 18.4034L25.0324 18.3822H25.0658L25.1416 18.4064L25.2144 18.4611L25.2114 18.455ZM23.9826 16.5102L23.8066 16.5162L23.7247 16.5375L23.6519 16.5678L23.5336 16.6558L23.4334 16.7863L23.3485 16.9622L23.2817 17.1868V17.208L23.306 17.2201H24.2132L24.2678 17.211L24.3072 17.1898L24.3315 17.1534L24.3437 17.1018V17.0108L24.3255 16.9107L24.2981 16.8166L24.2587 16.7256L24.2162 16.6558L24.1616 16.5951L24.104 16.5526L24.0403 16.5253L23.9826 16.5132V16.5102Z" fill="#FCFEFC"/>
<path d="M30.1479 18.549L30.0994 18.6765L30.0417 18.7918L29.9719 18.8949L29.89 18.989L29.7626 19.0952L29.6139 19.1832L29.444 19.2499L29.2559 19.2954L29.0496 19.3136L28.8402 19.3045L28.6248 19.2681L28.4064 19.2074L28.2911 19.1559L28.2213 19.0861L28.1909 18.9981L28.0908 18.3397L28.0969 18.3124L28.1181 18.2942L28.2547 18.2547H28.285L28.3062 18.2729L28.4155 18.458L28.6066 18.7705L28.6855 18.8646L28.7613 18.9283L28.8524 18.9799L28.9525 19.0163L29.0587 19.0345H29.1679L29.2711 19.0224L29.3682 18.992L29.4501 18.9435L29.5229 18.8798L29.532 18.8676L29.5714 18.81L29.6018 18.7463L29.6261 18.6128L29.6048 18.4793L29.5775 18.4155L29.5381 18.3579L29.4774 18.3002L29.356 18.2183L29.1922 18.1516L28.7978 18.0242L28.6552 17.9635L28.5308 17.8998L28.4185 17.8269L28.3275 17.7481L28.2516 17.6631L28.1909 17.566L28.1333 17.4113L28.109 17.2414V17.117L28.1272 17.0017L28.1576 16.8864L28.2031 16.7802L28.2729 16.6649L28.3578 16.5617L28.464 16.4707L28.5823 16.3949L28.7158 16.3312L28.8584 16.2856L29.0071 16.2553L29.1618 16.2432H29.3044L29.441 16.2614L29.5745 16.2887L29.7049 16.3281L29.9264 16.4282L29.975 16.4707L29.9992 16.5284L30.0903 17.0168V17.0472L30.069 17.0715L30.0114 17.1079L29.9446 17.1321H29.9204L29.8991 17.12L29.7565 16.9562L29.5836 16.762L29.444 16.6376L29.3075 16.5587L29.1709 16.5223H29.0951L29.0162 16.5314L28.8554 16.589L28.7887 16.6285L28.7037 16.7195L28.6521 16.8287L28.6369 16.9471L28.6612 17.0624L28.7189 17.1534L28.7704 17.205L28.8342 17.2505L29.001 17.3172L29.3651 17.4325L29.5775 17.5114L29.7383 17.5872L29.8748 17.6783L29.9841 17.7845L30.069 17.9028L30.1297 18.0424L30.1631 18.1971L30.1691 18.367L30.1479 18.5551V18.549Z" fill="#FCFEFC"/>
<path d="M23.7888 22.0653L23.6371 22.0319L23.4945 21.9682L23.367 21.8772L23.2578 21.7649L23.1728 21.6314L23.1152 21.4827L23.0879 21.328V21.1702L23.1243 21.0155L23.185 20.8699L23.273 20.7394L23.3852 20.6271L23.5157 20.5392L23.6613 20.4815L23.8161 20.4512H23.9738L24.1255 20.4845L24.2681 20.5483L24.3956 20.6393L24.5048 20.7515L24.5897 20.885L24.6474 21.0337L24.6747 21.1884V21.3462L24.6383 21.501L24.5776 21.6466L24.4896 21.7771L24.3774 21.8893L24.2469 21.9773L24.1013 22.0349L23.9465 22.0653H23.7888ZM23.898 21.8468L24.0072 21.8317L24.1104 21.7953L24.2044 21.7376L24.2863 21.6618L24.3531 21.5707L24.4016 21.4676L24.4289 21.3553L24.435 21.24L24.4198 21.1247L24.3834 21.0155L24.3288 20.9154L24.256 20.8274L24.168 20.7576L24.0709 20.706L23.9647 20.6757L23.8555 20.6666L23.7463 20.6818L23.6431 20.7182L23.5491 20.7758L23.4671 20.8517L23.4004 20.9427L23.3519 21.0458L23.3245 21.1581L23.3185 21.2734L23.3336 21.3887L23.3701 21.4979L23.4247 21.598L23.4975 21.686L23.5855 21.7558L23.6826 21.8074L23.7888 21.8377L23.898 21.8468Z" fill="#FCFEFC"/>
<path d="M9.33756 20.4785H9.16765C9.14922 20.4785 9.13428 20.4935 9.13428 20.5119V22.0137C9.13428 22.0322 9.14922 22.0471 9.16765 22.0471H9.33756C9.35599 22.0471 9.37093 22.0322 9.37093 22.0137V20.5119C9.37093 20.4935 9.35599 20.4785 9.33756 20.4785Z" fill="#FCFEFC"/>
<path d="M10.3478 20.6757L11.0517 21.5708L11.0759 21.589L11.085 21.5617V20.4998L11.0881 20.4846L11.1032 20.4785H11.3035L11.3156 20.4876V20.4998L11.3187 21.9986L11.3096 22.0259L11.2853 22.0441L11.2246 22.0562L11.17 22.0502L11.1245 22.0259L11.085 21.9864L10.2598 20.9367L10.2264 20.9124L10.2143 20.9518V22.0107L10.2082 22.0319L10.187 22.0411L10.0201 22.0471L9.99581 22.0411L9.98975 22.0259V20.5149L9.99885 20.4876L10.0262 20.4785L10.1597 20.4846L10.19 20.4907L10.2143 20.5089L10.3478 20.6788V20.6757Z" fill="#FCFEFC"/>
<path d="M18.3363 21.389L18.3272 22.0019L18.3181 22.0262L18.2938 22.0353H18.1815H18.1633L18.133 22.0201L18.1057 21.9928L17.2774 20.937L17.2379 20.9097L17.2258 20.9552V22.005L17.2137 22.0292L17.1894 22.0383L17.0195 22.0323L16.9983 22.0232L16.9922 22.0019V20.5031V20.4879L17.0195 20.4728H17.1621L17.1985 20.4819L17.2258 20.5031L18.0571 21.562L18.0844 21.5832L18.0935 21.5498V20.491L18.0996 20.4758L18.1148 20.4697L18.315 20.4758H18.3272L18.3302 20.491V21.383L18.3363 21.389Z" fill="#FCFEFC"/>
<path d="M19.9383 21.6463H19.2344L19.2071 21.6554L19.1889 21.6766L19.0402 22.0073L19.022 22.0316L18.9916 22.0407H18.8157L18.7944 22.0316V22.0073L19.4589 20.5419L19.5014 20.4873L19.5651 20.46H19.6349L19.6955 20.4994L19.7259 20.5419L20.3873 21.9982V22.0316L20.357 22.0437H20.2083L20.1567 22.0255L20.1233 21.9831L19.9929 21.6796L19.9716 21.6523L19.9383 21.6432V21.6463ZM19.3102 21.3975V21.4157L19.3284 21.4248H19.8472L19.8655 21.4157V21.3975L19.6076 20.818L19.5894 20.8058L19.5712 20.818L19.3133 21.3975H19.3102Z" fill="#FCFEFC"/>
<path d="M28.0211 20.7241L28.6128 22.0288V22.0348H28.6067H28.3731L28.3549 22.0227L28.2001 21.6708L28.1819 21.6495L28.1546 21.6434H27.4416L27.4143 21.6526L27.3961 21.6768L27.2565 22.0015L27.2383 22.0227L27.211 22.0318H26.9956L27.6752 20.536L27.7177 20.4814L27.7814 20.4541H27.8482L27.9058 20.4935L27.9362 20.536L28.0241 20.7241H28.0211ZM27.5205 21.4007V21.4189L27.5357 21.428H28.0575L28.0727 21.422V21.4038L27.8148 20.8182L27.7996 20.8061L27.7814 20.8152L27.5205 21.4007Z" fill="#FCFEFC"/>
<path d="M12.5414 20.7274V22.0108L12.5353 22.029L12.5141 22.0381H12.332L12.3138 22.029L12.3047 22.0108V20.7244L12.2986 20.7062L12.2804 20.6971H11.8344L11.8162 20.688L11.8071 20.6698V20.5029L11.8132 20.4847L11.8314 20.4756H13.0207L13.039 20.4847L13.0481 20.5029L13.042 20.6728V20.6849L13.0147 20.7001H12.5656L12.5474 20.7062L12.5383 20.7244L12.5414 20.7274Z" fill="#FCFEFC"/>
<path d="M14.0829 20.4758H14.6502L14.6745 20.4879L14.6836 20.5122V20.6609L14.6745 20.6882L14.6472 20.6973H13.7946L13.7764 20.7064L13.7703 20.7246V21.1129L13.7794 21.1342L13.8007 21.1403H14.5683L14.5835 21.1494L14.5895 21.1645V21.3587L14.5744 21.3617H13.7977L13.7794 21.3708L13.7703 21.389V21.7956L13.7764 21.8138L13.7946 21.8229H14.6684L14.6866 21.829L14.6927 21.8472V22.008L14.6866 22.0292L14.6654 22.0353H13.5671L13.5428 22.0262L13.5337 22.0019V21.3102V20.5122L13.5428 20.491L13.564 20.4819L14.0738 20.4697L14.0829 20.4758Z" fill="#FCFEFC"/>
<path d="M15.4693 21.4585L15.4511 21.4646L15.445 21.4828V22.0198L15.439 22.035L15.4238 22.0411H15.2448L15.2205 22.0319L15.2114 22.0077V20.5149L15.2175 20.4937L15.2387 20.4846L15.6392 20.4785L15.976 20.4907L16.0822 20.5058L16.1763 20.5331L16.2582 20.5756L16.3249 20.6302L16.3735 20.6879L16.4099 20.7576L16.4372 20.8365L16.4554 20.9245V20.9973L16.4493 21.0671L16.4068 21.1794L16.334 21.2765L16.2369 21.3523L16.1186 21.4039L16.1004 21.4191V21.4433L16.1034 21.4464L16.5191 21.9986L16.5282 22.0259L16.5009 22.035H16.3037L16.2642 22.0259L16.2309 21.9986L15.8486 21.4828L15.8243 21.4646L15.794 21.4585H15.4724H15.4693ZM15.442 20.7303V21.2158L15.4511 21.237L15.4724 21.2461H15.9002L16.0246 21.2249L16.1307 21.1672L16.2005 21.0823L16.2187 21.0307L16.2248 20.9791V20.964L16.2187 20.9124L16.2005 20.8608L16.1307 20.7759L16.0246 20.7182L15.9002 20.697H15.4724L15.4511 20.7061L15.442 20.7273V20.7303Z" fill="#FCFEFC"/>
<path d="M21.2948 20.7241V22.0166L21.2796 22.0378H21.2705H21.0854L21.0703 22.0317L21.0642 22.0166V20.7241L21.046 20.7028H20.5727L20.5605 20.6816V20.5056L20.5696 20.4904L20.5848 20.4844H21.7802L21.7954 20.4904L21.8015 20.5086V20.6846L21.7924 20.6998L21.7742 20.7089H21.316L21.2948 20.7271V20.7332V20.7241Z" fill="#FCFEFC"/>
<path d="M22.5358 20.794L22.5297 22.0015L22.5206 22.0258L22.4963 22.0349H22.3052V20.4966V20.4845L22.3203 20.4814H22.5176L22.5358 20.4996V20.797V20.794Z" fill="#FCFEFC"/>
<path d="M26.3099 21.5617V20.4876L26.325 20.4846H26.5192H26.5344V20.4967L26.5374 22.0016L26.5313 22.0228L26.5101 22.035L26.4373 22.0411L26.3766 22.0259L26.3341 22.0016L26.2977 21.9652L25.4816 20.9276L25.4512 20.9063L25.4421 20.9397V22.0016L25.436 22.0228L25.4148 22.0319H25.2388L25.2176 22.0259L25.2085 22.0046V20.5149L25.2176 20.4876L25.2449 20.4785H25.3814L25.4148 20.4876L25.4391 20.5089L26.2765 21.5738L26.3008 21.592L26.3099 21.5617Z" fill="#FCFEFC"/>
<path d="M29.3196 21.8193H30.1236L30.1388 21.8284L30.1449 21.8435V22.0165V22.0256L30.1236 22.0407H29.0829L29.0708 22.0195V20.5085L29.0769 20.4934L29.092 20.4873H29.2741L29.2893 20.4934L29.2953 20.5085V21.801V21.8071L29.3166 21.8253L29.3196 21.8193Z" fill="#FCFEFC"/>
<path d="M6 25.421H7.45938H10.4176H14.9869H19.9445H25.2783H33V26.5982H6V25.418V25.421Z" fill="#FCBC34"/>
<path d="M33 26.6016V27.7545H6V26.6016H33Z" fill="#0485B9"/>
<path d="M33.0001 27.7541V27.8997L32.9425 28.1152L32.8636 28.3063L32.7604 28.4732L32.633 28.6128L32.4691 28.7371L32.275 28.8312L32.1566 28.8706L32.0292 28.898L31.744 28.9192H7.16215L7.00134 28.9071L6.84964 28.8767L6.704 28.8282L6.56747 28.7614L6.46128 28.6916L6.36419 28.6067L6.2762 28.5126L6.20035 28.4064L6.1336 28.2911L6.07596 28.1667L6.03044 28.0332L5.99707 27.8937V27.748H32.9971L33.0001 27.7541Z" fill="#E53B2C"/>
</g>
<circle cx="20" cy="20" r="19.5" stroke="black" stroke-opacity="0.05"/>
<defs>
<clipPath id="clip0_9_391474">
<rect width="27" height="17.9191" fill="white" transform="translate(6 11)"/>
</clipPath>
</defs>
</svg>
