<svg width="40" height="40" viewBox="0 0 40 40" fill="none" xmlns="http://www.w3.org/2000/svg">
<circle cx="20" cy="20" r="20" fill="#F6F8FA"/>
<g clip-path="url(#clip0_9_396129)">
<path d="M23.2144 16.1427C23.9245 16.1427 24.5001 15.5671 24.5001 14.857C24.5001 14.1469 23.9245 13.5713 23.2144 13.5713C22.5043 13.5713 21.9287 14.1469 21.9287 14.857C21.9287 15.5671 22.5043 16.1427 23.2144 16.1427Z" fill="#405B70"/>
<path d="M25.1431 21.9289C25.8532 21.9289 26.4289 21.3532 26.4289 20.6431C26.4289 19.9331 25.8532 19.3574 25.1431 19.3574C24.4331 19.3574 23.8574 19.9331 23.8574 20.6431C23.8574 21.3532 24.4331 21.9289 25.1431 21.9289Z" fill="#405B70"/>
<path d="M22.8933 27.7143C23.7809 27.7143 24.5004 26.9947 24.5004 26.1071C24.5004 25.2195 23.7809 24.5 22.8933 24.5C22.0057 24.5 21.2861 25.2195 21.2861 26.1071C21.2861 26.9947 22.0057 27.7143 22.8933 27.7143Z" fill="#405B70"/>
<path d="M11.9646 16.7856C12.8522 16.7856 13.5717 16.066 13.5717 15.1784C13.5717 14.2908 12.8522 13.5713 11.9646 13.5713C11.077 13.5713 10.3574 14.2908 10.3574 15.1784C10.3574 16.066 11.077 16.7856 11.9646 16.7856Z" fill="#405B70"/>
<path d="M17.4283 14.214C18.1384 14.214 18.714 13.6384 18.714 12.9283C18.714 12.2182 18.1384 11.6426 17.4283 11.6426C16.7182 11.6426 16.1426 12.2182 16.1426 12.9283C16.1426 13.6384 16.7182 14.214 17.4283 14.214Z" fill="#405B70"/>
<path d="M28.0361 11.9639L25.7861 12.9282L28.0361 13.8924L29.0004 16.1424L29.9647 13.8924L32.2147 12.9282L29.9647 11.9639L29.0004 9.71387L28.0361 11.9639Z" fill="#F7622A"/>
<path d="M17.4286 30.2859C18.4937 30.2859 19.3571 29.4224 19.3571 28.3573C19.3571 27.2922 18.4937 26.4287 17.4286 26.4287C16.3635 26.4287 15.5 27.2922 15.5 28.3573C15.5 29.4224 16.3635 30.2859 17.4286 30.2859Z" fill="#405B70"/>
<path d="M12.286 27.7146C13.3511 27.7146 14.2146 26.8511 14.2146 25.786C14.2146 24.7209 13.3511 23.8574 12.286 23.8574C11.2209 23.8574 10.3574 24.7209 10.3574 25.786C10.3574 26.8511 11.2209 27.7146 12.286 27.7146Z" fill="#405B70"/>
<path d="M10.3573 22.571C11.4224 22.571 12.2859 21.7076 12.2859 20.6424C12.2859 19.5773 11.4224 18.7139 10.3573 18.7139C9.29216 18.7139 8.42871 19.5773 8.42871 20.6424C8.42871 21.7076 9.29216 22.571 10.3573 22.571Z" fill="#405B70"/>
</g>
<circle cx="20" cy="20" r="19.5" stroke="black" stroke-opacity="0.05"/>
<defs>
<clipPath id="clip0_9_396129">
<rect width="25" height="22" fill="white" transform="translate(8 9)"/>
</clipPath>
</defs>
</svg>
