<svg width="40" height="40" viewBox="0 0 40 40" fill="none" xmlns="http://www.w3.org/2000/svg">
<circle cx="20" cy="20" r="20" fill="#5D90B5"/>
<circle cx="20" cy="20" r="19.5" stroke="black" stroke-opacity="0.05"/>
<g clip-path="url(#clip0_9_394948)">
<path d="M20.4975 32.0005H19.3262V19.5455C19.3262 19.1658 19.1853 18.8506 18.9035 18.5999L11.5423 12.0017C11.3895 11.8632 11.3883 11.7246 11.5387 11.5861C16.4892 7.0548 23.5853 6.95092 28.3889 11.6936C28.403 11.7079 28.4141 11.725 28.4215 11.7439C28.4288 11.7627 28.4322 11.7829 28.4316 11.8033C28.4309 11.8237 28.4261 11.8438 28.4176 11.8625C28.409 11.8812 28.3968 11.8981 28.3817 11.9121L20.8772 18.6285C20.7623 18.731 20.6703 18.8568 20.6074 18.9976C20.5444 19.1383 20.5119 19.2909 20.5118 19.4452L20.4975 32.0005Z" fill="white"/>
<path d="M25.0863 28.0595H23.4027C23.2833 28.0595 23.2236 27.9998 23.2236 27.8804V19.8458C23.2236 19.7264 23.269 19.6261 23.3598 19.5449L29.8433 13.7383C29.9221 13.6691 29.9878 13.6798 30.0403 13.7706C31.9198 17.0494 32.309 20.3843 31.2081 23.7753C30.2839 26.6338 28.2063 29.0697 25.5412 30.5061C25.3956 30.5849 25.3227 30.5407 25.3227 30.3735L25.3335 28.3103C25.3335 28.1431 25.2511 28.0595 25.0863 28.0595Z" fill="white"/>
<path d="M8 21.1102V18.9503C8.21731 17.0947 8.80716 15.4004 9.76955 13.8673C9.84358 13.7503 9.93194 13.7383 10.0346 13.8314L16.4609 19.5879C16.554 19.6714 16.6006 19.7765 16.6006 19.9031V27.8768C16.6006 27.9986 16.5409 28.0595 16.4215 28.0595H14.7128C14.5934 28.0595 14.5337 28.1204 14.5337 28.2422L14.5373 30.3879C14.5373 30.5837 14.4537 30.6326 14.2866 30.5347C10.6352 28.4046 8.5397 25.2631 8 21.1102Z" fill="white"/>
</g>
<defs>
<clipPath id="clip0_9_394948">
<rect width="24" height="24" fill="white" transform="translate(8 8)"/>
</clipPath>
</defs>
</svg>
