<svg width="40" height="40" viewBox="0 0 40 40" fill="none" xmlns="http://www.w3.org/2000/svg">
<circle cx="20" cy="20" r="20" fill="#CA0032"/>
<g clip-path="url(#clip0_9_410363)">
<path d="M29.1169 15H29.1675C29.2338 15.0052 29.2891 15.036 29.3334 15.0923C29.4352 15.2212 29.5359 15.3612 29.6357 15.5123C29.6491 15.5325 29.6775 15.562 29.7208 15.601C29.8627 15.7285 30.0512 15.8214 30.2337 15.8824C30.6883 16.0341 31.1833 16.0553 31.6612 16.0212C31.806 16.0108 31.9417 16.0165 32.0845 16.0392C32.2212 16.0611 32.3183 16.1755 32.4278 16.2523C33.2885 16.8563 34.2037 17.4819 35.0156 18.0512C35.0399 18.0682 35.0374 18.0749 35.008 18.0712C34.9532 18.0647 34.8973 18.0565 34.8403 18.0466C34.4486 17.979 34.0624 17.9089 33.6817 17.8363C33.585 17.8178 33.4884 17.802 33.392 17.7888C33.2652 17.7715 33.1266 17.7529 33.0155 17.6911C32.9064 17.6303 32.8081 17.5581 32.7208 17.4746C32.5868 17.3462 32.4492 17.2156 32.3081 17.0826C32.1005 16.8869 31.8042 16.7013 31.5197 16.675C31.4165 16.6656 31.2951 16.6634 31.1554 16.6685C30.9275 16.6767 30.7118 16.6997 30.5081 16.7375C30.4884 16.7411 30.4704 16.7489 30.4544 16.7606C30.4493 16.7644 30.4466 16.7694 30.4464 16.7758C30.4442 16.8448 30.4446 16.9156 30.4475 16.9881C30.4493 17.0321 30.4452 17.0747 30.4353 17.1162C30.431 17.134 30.4201 17.1403 30.4023 17.1351C30.3515 17.12 30.3014 17.0951 30.2521 17.0602C30.1887 17.0153 30.1211 16.9686 30.0494 16.92C29.8381 16.777 29.5995 16.6623 29.3336 16.5761C29.2529 16.55 29.164 16.5251 29.067 16.5013C29.0648 16.5007 29.0628 16.4997 29.0611 16.4983C29.0594 16.4969 29.058 16.4952 29.0571 16.4932C29.0562 16.4912 29.0557 16.489 29.0558 16.4868C29.0558 16.4846 29.0563 16.4825 29.0573 16.4805C29.1087 16.3767 29.2161 16.3113 29.3081 16.2403C29.3308 16.2228 29.3411 16.201 29.3389 16.1747C29.3383 16.1682 29.3353 16.1629 29.33 16.1589C29.3202 16.1516 29.3099 16.1455 29.2988 16.1407C29.1775 16.0874 29.0576 16.0435 28.9391 16.0092C28.5707 15.9021 28.1804 15.807 27.7682 15.7238C27.4052 15.6504 27.0198 15.5732 26.612 15.4919C26.2835 15.4264 25.9116 15.3408 25.4965 15.2353C25.4564 15.2251 25.4119 15.2117 25.3628 15.1951C25.3617 15.1947 25.3607 15.194 25.36 15.1931C25.3592 15.1922 25.3587 15.1912 25.3585 15.19C25.3583 15.1889 25.3584 15.1877 25.3588 15.1866C25.3592 15.1855 25.3599 15.1845 25.3608 15.1838C25.3794 15.1693 25.4002 15.1624 25.4233 15.163C25.549 15.1658 25.6658 15.1643 25.7739 15.1585C25.9516 15.1486 26.1267 15.1541 26.3026 15.1455C26.4439 15.1386 26.5651 15.1341 26.6661 15.132C26.8282 15.1286 26.9867 15.1271 27.1521 15.1189C27.4231 15.1057 27.6941 15.0931 27.9653 15.081C28.0167 15.0787 28.1251 15.0719 28.2902 15.0606C28.3774 15.0547 28.4857 15.0485 28.6151 15.0421C28.7087 15.0375 28.876 15.0234 29.1169 15Z" fill="white"/>
<path d="M30.5944 24.8168H30.3804C30.3003 24.8102 30.2203 24.8032 30.1404 24.7959C29.6569 24.7518 29.2046 24.6175 28.7835 24.3928C28.7574 24.3789 28.7304 24.3793 28.7025 24.3941C28.1146 24.7074 27.4904 24.8439 26.83 24.8035C26.8067 24.8021 26.7912 24.8136 26.7659 24.8106C26.5971 24.7909 26.491 24.7777 26.4475 24.7711C26.1628 24.7284 25.8879 24.6523 25.6229 24.5429C25.5765 24.5239 25.5271 24.5005 25.4748 24.473C25.4239 24.4463 25.3758 24.4205 25.3305 24.3958C25.2992 24.3786 25.2684 24.3786 25.238 24.3958C24.9878 24.5365 24.732 24.6369 24.4707 24.697C24.1001 24.7821 23.7128 24.8185 23.3085 24.8061C22.915 24.7939 22.5065 24.6857 22.1553 24.53C22.0846 24.4985 21.9684 24.4176 21.8517 24.3777C21.8053 24.3619 21.7645 24.3723 21.7255 24.3979C21.6377 24.4559 21.5488 24.5112 21.4512 24.5507C21.2097 24.6487 20.9688 24.7177 20.7285 24.7576C20.579 24.7825 20.416 24.8023 20.2393 24.8168H19.8477C19.7695 24.8083 19.6914 24.7995 19.6133 24.7904C19.318 24.7557 19.0368 24.6833 18.7695 24.5732C18.6479 24.523 18.5345 24.4727 18.4295 24.4222C18.3989 24.4074 18.3685 24.3944 18.3383 24.3832C18.3318 24.3808 18.3253 24.3805 18.3186 24.3823C18.2988 24.3875 18.2811 24.3946 18.2654 24.4036C18.16 24.4636 18.0458 24.5166 17.9226 24.5626C17.5256 24.7113 17.1024 24.7913 16.653 24.8025C16.4762 24.8069 16.3177 24.8027 16.1775 24.7897C15.7468 24.7498 15.3153 24.6132 14.8829 24.3799C14.8558 24.3653 14.8294 24.3612 14.8017 24.3759C14.1242 24.7385 13.3334 24.8578 12.5826 24.7708C12.2645 24.7337 11.9522 24.6512 11.6458 24.5232C11.5547 24.4852 11.4571 24.4353 11.3529 24.3734C11.3474 24.3701 11.3412 24.368 11.3347 24.3674C11.3283 24.3668 11.3217 24.3675 11.3156 24.3697C11.2611 24.389 11.2152 24.4218 11.1635 24.4475C10.8501 24.6029 10.5193 24.7109 10.1711 24.7715C10.0804 24.7873 9.97175 24.7981 9.84524 24.8039C9.29545 24.8292 8.76801 24.7501 8.2629 24.5666C8.1444 24.5235 8.03658 24.476 7.93944 24.424C7.90557 24.4059 7.87218 24.3921 7.83927 24.3826C7.83405 24.3812 7.82877 24.3812 7.82343 24.3826C7.73145 24.4078 7.65241 24.4577 7.56553 24.4947C7.31322 24.6022 7.05205 24.6819 6.78201 24.7338C6.63898 24.7612 6.51422 24.7801 6.40774 24.7904C6.12981 24.8174 5.81109 24.8136 5.51404 24.7609C4.94798 24.6609 4.43766 24.3743 4.1987 23.8463C4.07886 23.5815 4.02586 23.2682 4.0204 22.9757C4.01833 22.8725 4.01736 22.7653 4.01748 22.6541C4.01809 21.5525 4.01839 20.5114 4.01839 19.5306C4.01839 19.2591 4.01226 19.0234 4 18.8237V18.2828C4.01475 18.0721 4.01657 17.8648 4.06283 17.6504C4.14734 17.2583 4.38211 16.9281 4.71941 16.7172C4.78412 16.6768 4.85807 16.6433 4.94124 16.6169C5.27441 16.5106 5.61833 16.4931 5.973 16.5644C6.21159 16.6125 6.42425 16.7255 6.611 16.9034C6.83174 17.1133 6.96596 17.4312 7.0104 17.737C7.04282 17.9599 7.04823 18.1634 7.02661 18.3476C7.02635 18.3498 7.02531 18.3517 7.0237 18.3531C7.02209 18.3545 7.02001 18.3553 7.01787 18.3553L5.96644 18.3564C5.95891 18.3564 5.95442 18.3527 5.95297 18.3453C5.94264 18.2905 5.93742 18.2362 5.9373 18.1824C5.93718 18.0781 5.93791 17.9693 5.93949 17.8559C5.94204 17.6856 5.90215 17.4778 5.72949 17.3956C5.56612 17.3181 5.36924 17.3406 5.2392 17.47C5.1536 17.5552 5.12956 17.6921 5.12974 17.8111C5.13059 19.1004 5.13132 20.3512 5.13193 21.5635C5.13205 21.811 5.12974 21.9803 5.12501 22.0712C5.11748 22.2133 5.11493 22.3197 5.11736 22.3905C5.12149 22.5112 5.12732 22.634 5.13484 22.7588C5.14359 22.9036 5.16744 23.0444 5.20642 23.181C5.27363 23.4161 5.43226 23.6166 5.63533 23.7476C5.85625 23.8898 6.16496 23.9166 6.41976 23.8878C6.94575 23.8281 7.41965 23.6692 7.82598 23.333C7.82943 23.3302 7.83375 23.3285 7.83826 23.3283C7.84277 23.3282 7.84722 23.3295 7.85093 23.3321C7.93598 23.3919 8.00956 23.4633 8.09498 23.5204C8.31111 23.6646 8.51697 23.7665 8.71258 23.8262C9.25095 23.9908 9.79491 23.9977 10.3445 23.8472C10.6355 23.7676 10.9196 23.6268 11.1646 23.4452C11.2119 23.4101 11.2582 23.3753 11.3034 23.3407C11.3088 23.3367 11.3146 23.3359 11.3208 23.3383C11.3405 23.346 11.3589 23.3559 11.376 23.368C11.5091 23.4623 11.6507 23.5523 11.8009 23.6377C12.0027 23.7525 12.198 23.8328 12.4251 23.8811C13.0179 24.0067 13.6831 23.9423 14.2354 23.6913C14.304 23.6601 14.3723 23.6269 14.4402 23.5917C14.5744 23.5221 14.6982 23.4267 14.8197 23.3374C14.8247 23.3338 14.8302 23.3323 14.8363 23.333C14.8557 23.3352 14.8731 23.3425 14.8884 23.3549C15.341 23.7165 15.8474 23.9163 16.4075 23.9543C16.5951 23.967 16.802 23.9557 17.0282 23.9204C17.4886 23.8483 17.9172 23.6514 18.2831 23.3602C18.2953 23.3503 18.3086 23.3434 18.323 23.3394C18.3259 23.3386 18.3289 23.3384 18.332 23.3388C18.335 23.3393 18.3379 23.3404 18.3404 23.3421C18.381 23.369 18.4206 23.3962 18.4592 23.4237C18.9353 23.7636 19.5119 23.9754 20.1004 23.959C20.7289 23.9415 21.2847 23.7382 21.7677 23.3491C21.7753 23.343 21.7846 23.3396 21.7943 23.3394C21.804 23.3391 21.8135 23.3421 21.8213 23.3478C22.0219 23.4931 22.2235 23.6139 22.4263 23.71C22.6429 23.8129 22.8821 23.8863 23.1439 23.9302C23.4517 23.9818 23.7576 23.9751 24.0616 23.91C24.1428 23.8925 24.2393 23.8662 24.3514 23.831C24.661 23.7335 24.9557 23.564 25.22 23.3644C25.2265 23.3595 25.2341 23.3564 25.2422 23.3554C25.2502 23.3543 25.2584 23.3554 25.2659 23.3585C25.286 23.3669 25.3056 23.3772 25.3247 23.3893C25.4515 23.4704 25.5671 23.5395 25.6715 23.5966C25.9879 23.7697 26.3195 23.8791 26.6663 23.9246C27.0185 23.9709 27.3491 23.9639 27.6847 23.8838C28.0727 23.7913 28.4165 23.5776 28.7343 23.3451C28.7498 23.3336 28.765 23.3339 28.7801 23.346C29.1296 23.625 29.5088 23.8237 29.9439 23.9111C30.2828 23.9792 30.6469 23.986 30.9895 23.9164C31.3378 23.8457 31.6605 23.7144 31.9577 23.5223C32.0425 23.4674 32.1152 23.405 32.199 23.3511C32.2132 23.342 32.2273 23.3421 32.2414 23.3516C32.3161 23.4013 32.3818 23.464 32.4574 23.5108C32.6794 23.6485 32.8858 23.737 33.1269 23.8062C33.3493 23.87 33.5531 23.8874 33.8004 23.8763C34.0259 23.8662 34.2187 23.8037 34.3789 23.6886C34.6297 23.5082 34.7577 23.1569 34.7923 22.8571C34.8324 22.5102 34.7905 22.1823 34.6666 21.8735C34.5734 21.6412 34.4268 21.477 34.2257 21.3324C34.0099 21.177 33.772 21.0613 33.5638 20.9005C33.2566 20.6632 33.0397 20.3212 32.9572 19.9591C32.882 19.6296 32.981 19.2514 33.1497 18.9638C33.4245 18.4948 33.9174 18.3331 34.4341 18.4604C34.9877 18.597 35.303 19.1004 35.2598 19.6597C35.2593 19.6658 35.2561 19.6693 35.2502 19.6704C35.2292 19.6744 35.2082 19.6766 35.1873 19.6768C34.9361 19.68 34.6967 19.6808 34.4692 19.6792C34.4641 19.6791 34.4593 19.6773 34.4554 19.6741C34.4515 19.6709 34.4489 19.6664 34.4479 19.6615C34.428 19.5621 34.4117 19.4608 34.3459 19.3819C34.2188 19.2293 33.9886 19.2743 33.9124 19.4499C33.7369 19.8549 34.0308 20.144 34.3435 20.3383C34.5666 20.4771 34.8009 20.6113 34.9941 20.767C35.5052 21.1792 35.6907 21.8385 35.7168 22.4821C35.7325 22.8708 35.6694 23.2521 35.5276 23.6261C35.3635 24.059 35.0252 24.4539 34.5841 24.6185C34.2645 24.7378 33.9061 24.8108 33.5801 24.7899C33.1899 24.7649 32.825 24.671 32.4851 24.5083C32.4193 24.4768 32.3441 24.4302 32.2718 24.3954C32.2398 24.38 32.2075 24.3809 32.1751 24.3981C32.0549 24.4617 31.9356 24.5245 31.8107 24.5722C31.5125 24.6861 31.1998 24.7589 30.8727 24.7906C30.7801 24.7996 30.6873 24.8083 30.5944 24.8168Z" fill="white"/>
<path d="M18.0973 20.1558C18.0892 20.1858 18.0848 20.2158 18.0842 20.2457C18.0785 20.5686 18.0762 20.8881 18.0773 21.2041C18.079 21.6785 18.0794 22.154 18.0786 22.6305C18.0786 22.6467 18.0705 22.6558 18.0543 22.6579C18.0457 22.659 18.0372 22.6596 18.0287 22.6597C17.6657 22.6641 17.3068 22.664 16.9519 22.6595C16.9494 22.6595 16.9471 22.6584 16.9453 22.6567C16.9436 22.6549 16.9426 22.6525 16.9426 22.65C16.9419 21.6114 16.9407 20.6317 16.9392 19.711C16.939 19.6201 16.9322 19.5347 16.9315 19.4495C16.9239 18.4786 16.9219 17.6197 16.9257 16.8727C16.9258 16.8478 16.9311 16.8233 16.9415 16.7991C16.9441 16.7931 16.9487 16.79 16.9554 16.79L18.0461 16.7906C18.0528 16.7906 18.0566 16.7939 18.0576 16.8006C18.0649 16.8544 18.0687 16.8991 18.0689 16.9348C18.0729 17.6218 18.0746 18.344 18.0791 19.0717C18.0791 19.0752 18.0804 19.0784 18.0827 19.0809C18.0851 19.0834 18.0883 19.0849 18.0917 19.085C18.3096 19.0984 18.4902 19.1033 18.6333 19.0996C18.6526 19.0991 18.6722 19.0971 18.6922 19.0936C18.6985 19.0925 18.7018 19.0887 18.7022 19.0823C18.7044 19.0381 18.7133 18.9925 18.7133 18.951C18.7135 18.6825 18.7282 18.4084 18.7295 18.1502C18.7317 17.7224 18.7331 17.2741 18.7339 16.8052C18.7339 16.7952 18.7388 16.7902 18.7488 16.7902L19.8354 16.7908C19.8418 16.7908 19.8452 16.794 19.8454 16.8006C19.8482 16.9026 19.8496 16.9686 19.8498 16.9986C19.8499 17.4579 19.8499 17.9218 19.8499 18.3904C19.8499 18.5243 19.8612 18.6827 19.8614 18.8328C19.8642 20.1346 19.8663 21.3971 19.8676 22.6202C19.8677 22.6481 19.8538 22.662 19.8259 22.662L18.7608 22.6619C18.7536 22.6619 18.7467 22.659 18.7416 22.654C18.7365 22.6489 18.7337 22.6421 18.7337 22.6349L18.7333 20.164C18.7333 20.1564 18.7296 20.1526 18.7222 20.1523C18.5234 20.1439 18.3201 20.1413 18.1121 20.1443C18.1043 20.1444 18.0994 20.1482 18.0973 20.1558Z" fill="white"/>
<path d="M26.1724 18.5066C26.2077 18.5038 26.2416 18.4976 26.2743 18.488C26.4506 18.4362 26.6332 18.4179 26.8221 18.4332C27.044 18.4513 27.2222 18.5442 27.3566 18.7119C27.463 18.8447 27.5413 18.9984 27.5914 19.1728C27.661 19.4159 27.7037 19.6671 27.7196 19.9265C27.7401 20.2637 27.7466 20.5989 27.7391 20.9322C27.7315 21.2711 27.6899 21.5847 27.6145 21.8731C27.5969 21.9405 27.5716 22.0126 27.5384 22.0896C27.3747 22.4699 27.0645 22.7145 26.6381 22.7067C26.3622 22.7016 26.1164 22.6118 25.9009 22.4373C25.8833 22.4229 25.8664 22.4237 25.8503 22.4399C25.796 22.4939 25.7494 22.5624 25.7005 22.6247C25.6808 22.65 25.655 22.6625 25.6231 22.6624C25.4697 22.6623 25.3129 22.6622 25.1527 22.6622C25.148 22.6622 25.1434 22.6604 25.1401 22.657C25.1367 22.6537 25.1349 22.6491 25.1349 22.6444C25.1379 21.1453 25.1338 19.5989 25.1225 18.005C25.122 17.9353 25.1215 17.867 25.121 17.8001C25.1188 17.5028 25.1176 17.1956 25.1172 16.8786C25.1172 16.8375 25.1376 16.8169 25.1786 16.8166C25.4705 16.8148 25.7614 16.8151 26.0513 16.8174C26.0788 16.8176 26.1077 16.8187 26.138 16.8206C26.1531 16.8216 26.1606 16.8296 26.1606 16.8447L26.1612 18.496C26.1612 18.5037 26.1649 18.5072 26.1724 18.5066ZM26.1628 21.8916C26.1806 21.9975 26.2112 22.1133 26.3385 22.131C26.4381 22.1449 26.5156 22.1081 26.5711 22.0206C26.6063 21.9652 26.633 21.9088 26.6511 21.8514C26.686 21.7403 26.7103 21.6293 26.7237 21.5185C26.7726 21.1151 26.7651 20.6985 26.7604 20.2973C26.7582 20.1102 26.7398 19.9349 26.7219 19.7505C26.7059 19.5835 26.6726 19.4299 26.6219 19.2899C26.5695 19.1451 26.4515 19.0062 26.2812 19.0552C26.1857 19.0825 26.1389 19.1474 26.1407 19.2499C26.1516 19.8565 26.1534 20.4661 26.1462 21.0786C26.1438 21.2833 26.1442 21.4973 26.1475 21.7206C26.1483 21.7787 26.1534 21.8357 26.1628 21.8916Z" fill="white"/>
<path d="M8.24881 16.8314C8.25172 16.8314 8.25452 16.8325 8.2566 16.8344C8.25868 16.8364 8.25987 16.839 8.25992 16.8418C8.26465 17.1593 8.26702 17.5017 8.26702 17.869C8.26702 17.936 8.27467 18.004 8.27467 18.0697C8.27649 19.6304 8.27692 21.1637 8.27594 22.6694C8.27582 22.6923 8.26435 22.7038 8.24152 22.7038C7.98278 22.7042 7.71335 22.7044 7.43323 22.7045C7.3809 22.7045 7.33112 22.7028 7.28389 22.6992C7.2777 22.6988 7.2746 22.6954 7.2746 22.6892C7.26914 20.6875 7.26738 18.7648 7.26932 16.921C7.26944 16.8937 7.27102 16.8671 7.27405 16.8411C7.27441 16.8383 7.27576 16.8357 7.27784 16.8339C7.27992 16.832 7.28259 16.831 7.28535 16.8311L8.24881 16.8314Z" fill="white"/>
<path d="M35.9998 18.3668V18.4903C35.9692 18.678 35.8581 18.7894 35.6665 18.8246C35.5409 18.8478 35.4106 18.8124 35.3128 18.7274C35.2151 18.6424 35.175 18.5229 35.1925 18.3688C35.2054 18.2551 35.2751 18.1537 35.3711 18.0974C35.5117 18.015 35.6558 18.0119 35.8033 18.0883C35.9142 18.1457 35.9797 18.2385 35.9998 18.3668ZM35.5989 18.7408C35.6778 18.7397 35.753 18.7062 35.8079 18.6478C35.8629 18.5893 35.8931 18.5105 35.892 18.4289C35.8914 18.3885 35.8832 18.3486 35.8677 18.3114C35.8522 18.2743 35.8299 18.2407 35.8018 18.2125C35.7738 18.1843 35.7407 18.1621 35.7044 18.1471C35.6681 18.1322 35.6294 18.1247 35.5903 18.1253C35.5114 18.1264 35.4362 18.1599 35.3813 18.2184C35.3263 18.2769 35.2961 18.3556 35.2972 18.4372C35.2978 18.4776 35.306 18.5175 35.3215 18.5547C35.337 18.5918 35.3593 18.6254 35.3874 18.6536C35.4154 18.6818 35.4485 18.704 35.4848 18.719C35.5211 18.734 35.5598 18.7414 35.5989 18.7408Z" fill="white"/>
<path d="M35.5373 18.4725C35.5305 18.5279 35.5286 18.5827 35.5316 18.637C35.5321 18.6463 35.5277 18.6511 35.5183 18.6512L35.4538 18.6514C35.4501 18.6514 35.4466 18.6499 35.4439 18.6473C35.4413 18.6447 35.4398 18.6412 35.4398 18.6375L35.4395 18.2247C35.4394 18.2216 35.4405 18.2187 35.4426 18.2164C35.4446 18.2142 35.4474 18.2128 35.4504 18.2125C35.5317 18.2033 35.611 18.2057 35.6882 18.2196C35.7733 18.2347 35.7884 18.3055 35.776 18.3824C35.7748 18.3894 35.7715 18.3957 35.7666 18.4004C35.7577 18.4089 35.7522 18.4191 35.7502 18.431C35.749 18.4385 35.7445 18.4423 35.7369 18.4423L35.7157 18.4425C35.71 18.4425 35.7043 18.4441 35.6993 18.447C35.6944 18.4499 35.6903 18.4542 35.6875 18.4592C35.6848 18.4643 35.6834 18.47 35.6836 18.4758C35.6838 18.4815 35.6855 18.4872 35.6886 18.492C35.7148 18.5335 35.7383 18.5773 35.7589 18.6232C35.7676 18.6425 35.7614 18.6519 35.7401 18.6516L35.7188 18.6514C35.6982 18.651 35.6824 18.6421 35.6713 18.6246C35.6414 18.5774 35.603 18.4864 35.5522 18.464C35.5433 18.4601 35.5383 18.4629 35.5373 18.4725ZM35.5305 18.3066V18.3693C35.5305 18.3726 35.5311 18.3759 35.5324 18.379C35.5336 18.382 35.5355 18.3849 35.5378 18.3872C35.5401 18.3896 35.5429 18.3915 35.546 18.3928C35.549 18.3941 35.5523 18.3947 35.5557 18.3948H35.6105C35.6203 18.3948 35.63 18.3935 35.6391 18.3909C35.6481 18.3883 35.6564 18.3845 35.6633 18.3797C35.6703 18.3749 35.6758 18.3692 35.6796 18.3629C35.6834 18.3566 35.6853 18.3499 35.6853 18.343V18.3336C35.6854 18.3198 35.6775 18.3066 35.6636 18.2968C35.6496 18.287 35.6306 18.2815 35.6108 18.2815H35.556C35.5527 18.2815 35.5494 18.2821 35.5463 18.2833C35.5432 18.2846 35.5404 18.2864 35.5381 18.2888C35.5357 18.2911 35.5338 18.2939 35.5325 18.2969C35.5312 18.3 35.5305 18.3033 35.5305 18.3066Z" fill="white"/>
<path d="M12.763 19.9671C12.7713 19.7906 12.7725 19.6088 12.7667 19.4214C12.7623 19.2817 12.6889 19.1309 12.5343 19.1165C12.4022 19.1043 12.3118 19.1506 12.2631 19.2557C12.2314 19.324 12.2268 19.4021 12.2128 19.4757C12.2106 19.4871 12.2038 19.4928 12.1922 19.4928L11.4187 19.4926C11.4073 19.4926 11.4006 19.487 11.3985 19.4757C11.3965 19.4643 11.3958 19.4528 11.3965 19.4414C11.4229 19.0739 11.5832 18.7049 11.8972 18.5009C12.2305 18.2846 12.6634 18.2622 13.0339 18.3947C13.5507 18.5796 13.7513 19.0074 13.7527 19.5323C13.7544 20.1747 13.7535 20.7982 13.75 21.4026C13.7496 21.4656 13.7471 21.5279 13.7425 21.5895C13.7352 21.684 13.7503 21.7787 13.7507 21.8739C13.7513 22.0359 13.7526 22.1967 13.7545 22.3562C13.7558 22.4558 13.7819 22.5511 13.7922 22.6496C13.7939 22.6664 13.7864 22.6748 13.7695 22.6749C13.5011 22.6766 13.2591 22.6774 13.0433 22.6771C13.0159 22.6771 12.9878 22.6751 12.9592 22.6709C12.9531 22.6701 12.9484 22.6671 12.9452 22.6618C12.9374 22.6497 12.9312 22.6368 12.9266 22.623C12.9057 22.5611 12.8837 22.4986 12.8607 22.4354C12.8583 22.429 12.8538 22.426 12.847 22.4263C12.8267 22.4272 12.8103 22.4348 12.7978 22.4493C12.6596 22.6076 12.4888 22.6987 12.2853 22.7225C12.1595 22.7374 11.9997 22.7354 11.8766 22.6966C11.5965 22.6081 11.3918 22.3129 11.3198 22.032C11.2693 21.8351 11.2455 21.6263 11.2483 21.4055C11.2501 21.2675 11.2683 21.1327 11.302 20.997C11.3697 20.7243 11.5204 20.4952 11.7471 20.3242C12.0416 20.102 12.3886 20.0193 12.7463 19.9847C12.757 19.9838 12.7625 19.9779 12.763 19.9671ZM12.2727 21.0249C12.247 21.0766 12.2279 21.1334 12.2156 21.1953C12.1734 21.4049 12.1834 21.607 12.2456 21.8016C12.2944 21.9544 12.4536 21.9849 12.5962 21.9561C12.664 21.9424 12.7556 21.8765 12.7792 21.8102C12.7868 21.7893 12.7899 21.7626 12.7887 21.7301C12.7825 21.5503 12.7891 21.37 12.7894 21.1891C12.7899 21.0376 12.79 20.8829 12.7896 20.7249C12.7896 20.7038 12.7851 20.6841 12.7829 20.6633C12.7824 20.6593 12.7811 20.6554 12.7789 20.6519C12.7768 20.6484 12.7739 20.6455 12.7705 20.6432C12.7671 20.641 12.7633 20.6395 12.7592 20.6389C12.7552 20.6382 12.7511 20.6385 12.7472 20.6397C12.5262 20.7041 12.3681 20.8325 12.2727 21.0249Z" fill="white"/>
<path d="M21.6378 19.9669C21.6432 19.7668 21.6604 19.5626 21.633 19.363C21.6185 19.2564 21.5708 19.1612 21.4618 19.1262C21.317 19.08 21.1668 19.143 21.124 19.2932C21.1082 19.3481 21.0962 19.4097 21.0879 19.4779C21.0868 19.4868 21.0818 19.4912 21.0728 19.4912L20.2886 19.493C20.2758 19.493 20.2698 19.4867 20.2705 19.4739C20.294 19.0446 20.4902 18.6195 20.8969 18.4314C21.0255 18.3719 21.1413 18.3364 21.2444 18.3249C21.3754 18.3103 21.5039 18.311 21.6299 18.327C21.8492 18.3547 22.0991 18.4465 22.2634 18.595C22.5018 18.8106 22.6091 19.0865 22.6205 19.4036C22.6264 19.5669 22.6287 19.7531 22.6275 19.9622C22.6229 20.7311 22.61 21.5474 22.6289 22.3386C22.6305 22.4072 22.6452 22.5136 22.6732 22.6577C22.6745 22.6646 22.6717 22.6687 22.6648 22.6699C22.6317 22.6759 22.5985 22.6786 22.5654 22.6783C22.3995 22.6762 22.2226 22.6759 22.0348 22.6772C21.9801 22.6777 21.9237 22.6762 21.8656 22.6726C21.8336 22.6707 21.8124 22.6545 21.8021 22.624L21.7416 22.4441C21.7398 22.4389 21.7365 22.4344 21.7321 22.4312C21.7278 22.4279 21.7225 22.4261 21.717 22.4259C21.704 22.4254 21.6928 22.4299 21.6833 22.4393C21.6369 22.4858 21.5948 22.5371 21.5403 22.5737C21.4136 22.6591 21.2892 22.7085 21.1672 22.722C21.106 22.7287 21.031 22.7306 20.9422 22.7278C20.737 22.7213 20.555 22.6318 20.4253 22.4717C20.3192 22.3407 20.2455 22.2046 20.2042 22.0632C20.1358 21.8292 20.1234 21.5992 20.1292 21.3502C20.139 20.9244 20.3066 20.5415 20.6536 20.2975C20.8747 20.142 21.1404 20.0527 21.4039 20.013C21.4835 20.0011 21.5564 19.9912 21.6227 19.9833C21.6324 19.9822 21.6374 19.9768 21.6378 19.9669ZM21.6665 20.7583C21.6691 20.721 21.666 20.6862 21.6573 20.6537C21.6564 20.6507 21.655 20.6479 21.653 20.6454C21.6511 20.6429 21.6487 20.6408 21.6459 20.6393C21.6432 20.6378 21.6401 20.6368 21.637 20.6365C21.6339 20.6361 21.6308 20.6364 21.6278 20.6373C21.3379 20.7234 21.159 20.9102 21.0908 21.1976C21.0544 21.3514 21.0541 21.5164 21.0899 21.6926C21.1136 21.8084 21.158 21.9245 21.2799 21.9536C21.3897 21.9801 21.4878 21.9657 21.5742 21.9106C21.627 21.8769 21.6611 21.8332 21.6605 21.7675C21.6587 21.57 21.6543 21.3744 21.6667 21.1777C21.6733 21.0734 21.6742 20.9958 21.6695 20.945C21.6636 20.8806 21.6627 20.8184 21.6665 20.7583Z" fill="white"/>
<path d="M9.54521 20.9018C9.54023 20.9163 9.53744 20.9313 9.53683 20.9466C9.53027 21.1308 9.54229 21.3017 9.57289 21.4594C9.60895 21.6445 9.69328 21.8213 9.8836 21.8778C9.98098 21.9066 10.0804 21.8992 10.1817 21.8556C10.3602 21.7787 10.4407 21.6183 10.4834 21.4347C10.4851 21.4278 10.4894 21.4246 10.4965 21.4252C10.5414 21.4292 10.5818 21.4359 10.6176 21.4454C10.7431 21.4786 10.8764 21.5056 11.0175 21.5266C11.0487 21.5312 11.0756 21.5418 11.1055 21.5511C11.1157 21.5542 11.1196 21.5611 11.1172 21.5716C11.0507 21.8605 10.8873 22.1932 10.6569 22.4014C10.4508 22.5877 10.2021 22.6874 9.91092 22.7006C9.53228 22.7178 9.17694 22.534 8.93289 22.2484C8.68155 21.9547 8.56991 21.5505 8.55479 21.1675C8.54623 20.9522 8.54569 20.7437 8.53603 20.5138C8.53118 20.398 8.53257 20.2602 8.54022 20.1004C8.54508 20.001 8.54975 19.8974 8.55425 19.7897C8.56287 19.589 8.59802 19.3902 8.6597 19.1932C8.74949 18.9076 8.93835 18.6215 9.20026 18.4769C9.46726 18.3294 9.8153 18.2742 10.1155 18.36C10.3167 18.4175 10.5303 18.5239 10.6728 18.6731C10.8645 18.8738 10.9689 19.147 11.0266 19.4169C11.067 19.6059 11.0903 19.7684 11.0966 19.9042C11.1012 20.0014 11.1058 20.0963 11.1104 20.1891C11.1208 20.3971 11.1193 20.6009 11.1155 20.8122C11.1152 20.8336 11.1128 20.8551 11.1086 20.8766C11.1075 20.8827 11.1039 20.8859 11.0977 20.8863C11.0806 20.8871 11.0642 20.8877 11.0485 20.8879C10.5546 20.8921 10.059 20.8928 9.56178 20.8901C9.55352 20.89 9.548 20.8939 9.54521 20.9018ZM9.57417 20.1485H10.1424C10.1516 20.1485 10.1604 20.1448 10.1669 20.1383C10.1734 20.1319 10.177 20.1231 10.177 20.1139V19.685C10.177 19.6291 10.1694 19.5738 10.1545 19.5222C10.1396 19.4706 10.1178 19.4237 10.0904 19.3843C10.0629 19.3448 10.0303 19.3134 9.99442 19.2921C9.95854 19.2707 9.92008 19.2597 9.88123 19.2597H9.83534C9.75689 19.2597 9.68166 19.3045 9.62619 19.3843C9.57072 19.464 9.53956 19.5722 9.53956 19.685V20.1139C9.53956 20.1231 9.54321 20.1319 9.5497 20.1383C9.55619 20.1448 9.56499 20.1485 9.57417 20.1485Z" fill="white"/>
<path d="M14.9426 18.6952C14.9425 18.7143 14.9501 18.7181 14.9654 18.7069C15.1595 18.5637 15.3531 18.4342 15.5859 18.3872C15.6551 18.3733 15.7383 18.3689 15.8356 18.3743C16.0506 18.3861 16.2233 18.4583 16.3537 18.591C16.4467 18.6856 16.4991 18.7874 16.5107 18.8963C16.5114 18.9028 16.5151 18.9066 16.5216 18.9077C16.5235 18.908 16.525 18.9087 16.5264 18.9099C16.53 18.913 16.5318 18.9169 16.5317 18.9218C16.5302 19.0429 16.5488 19.1582 16.5486 19.2751C16.5467 20.4206 16.5461 21.5031 16.547 22.5226C16.547 22.564 16.543 22.6061 16.5349 22.6488C16.5337 22.6552 16.5299 22.6584 16.5235 22.6585C16.1733 22.6637 15.8288 22.6642 15.4901 22.66C15.487 22.66 15.484 22.6587 15.4818 22.6565C15.4796 22.6543 15.4784 22.6513 15.4784 22.6481C15.4783 21.9764 15.4782 21.3104 15.4782 20.65C15.4782 20.5881 15.4765 20.5267 15.4731 20.466C15.4582 20.1994 15.4651 19.9302 15.4638 19.6679C15.4633 19.5395 15.4409 19.4168 15.3276 19.3514C15.2517 19.3076 15.1806 19.3175 15.1142 19.3811C15.0463 19.4461 15.0116 19.5276 15.0102 19.6259C15.0038 20.0528 15.0006 20.4692 15.0005 20.8751C15.0005 20.9714 14.9934 21.0685 14.9938 21.1654C14.9958 21.6185 14.9956 22.0951 14.993 22.5951C14.9929 22.6147 14.9926 22.6285 14.9919 22.6366C14.9906 22.6513 14.9826 22.6587 14.9679 22.6587C14.6883 22.6581 14.4088 22.6564 14.1296 22.6536C14.0953 22.6533 14.0636 22.6496 14.0343 22.6423C14.0284 22.6408 14.0254 22.6371 14.0254 22.631V18.4109C14.0254 18.4045 14.0285 18.4012 14.0349 18.4012L14.9238 18.4011C14.9298 18.4011 14.9334 18.404 14.9346 18.41C14.9535 18.5047 14.9435 18.5979 14.9426 18.6952Z" fill="white"/>
<path d="M28.9494 22.7015C28.6454 22.6343 28.3833 22.4443 28.2418 22.1706C28.0593 21.8174 27.9938 21.4377 27.9768 21.0421C27.9606 20.6599 27.9641 20.2708 27.9874 19.8748C28.0004 19.6562 28.0395 19.439 28.1047 19.2232C28.1861 18.9544 28.3127 18.7269 28.5469 18.5641C28.6381 18.5007 28.7486 18.4545 28.8785 18.4255C29.1011 18.3757 29.3086 18.3719 29.5284 18.4014C30.093 18.477 30.3624 19.0281 30.4598 19.5246C30.5368 19.9167 30.5509 20.2914 30.5452 20.7292C30.5437 20.8449 30.5312 20.9842 30.527 21.0689C30.5138 21.3305 30.4674 21.5948 30.3878 21.8615C30.286 22.2028 30.1128 22.4962 29.7713 22.6325C29.5015 22.7402 29.2276 22.7632 28.9494 22.7015ZM29.0082 19.5009C28.9646 19.6091 28.9406 19.7291 28.9361 19.861C28.9315 19.9947 28.9212 20.1342 28.9215 20.2529C28.922 20.5062 28.9201 20.7607 28.9159 21.0164C28.9145 21.0958 28.915 21.1715 28.9172 21.2434C28.9237 21.4641 28.9292 21.6318 29.0035 21.8178C29.0584 21.9555 29.1559 22.0251 29.2962 22.0267C29.4499 22.0285 29.5184 21.8336 29.5329 21.7089C29.5452 21.6043 29.5566 21.4665 29.567 21.2953C29.575 21.163 29.579 21.0416 29.5788 20.931C29.5787 20.6407 29.5881 20.3404 29.5663 20.0504C29.5629 20.0048 29.5608 19.9315 29.5601 19.8306C29.559 19.6862 29.5413 19.5457 29.4832 19.4184C29.4337 19.3103 29.3575 19.2104 29.2217 19.2478C29.1246 19.2747 29.0443 19.4117 29.0082 19.5009Z" fill="white"/>
<path d="M23.8885 18.8427C23.8897 18.8577 23.8961 18.8604 23.9078 18.8509C23.9647 18.8048 24.0187 18.7624 24.0697 18.7236C24.2786 18.5652 24.5731 18.4382 24.8406 18.4346C24.859 18.4342 24.8681 18.4433 24.8679 18.4617L24.8656 19.3744C24.8656 19.3928 24.8563 19.4024 24.8377 19.4031C24.761 19.4062 24.6819 19.4096 24.6006 19.4135C24.335 19.4263 24.0673 19.5638 23.9394 19.8027C23.9173 19.8439 23.9046 19.886 23.9012 19.9291C23.8881 20.0967 23.8813 20.3053 23.881 20.5551C23.88 21.2471 23.8798 21.9395 23.8804 22.6325C23.8804 22.6489 23.8722 22.6575 23.8559 22.6583C23.8012 22.661 23.7458 22.6618 23.6896 22.6609C23.4253 22.6569 23.1838 22.6703 22.9272 22.6596C22.9065 22.6586 22.896 22.6478 22.8957 22.6272C22.8909 22.2657 22.8884 21.918 22.8882 21.5841C22.8872 20.6464 22.8877 19.6101 22.8895 18.4752C22.8895 18.4726 22.89 18.4701 22.891 18.4677C22.8919 18.4653 22.8934 18.4632 22.8952 18.4614C22.897 18.4595 22.8992 18.4581 22.9015 18.4571C22.9039 18.4562 22.9064 18.4557 22.909 18.4557C23.2273 18.4585 23.5276 18.4616 23.8098 18.465C23.8302 18.4652 23.8493 18.4683 23.8671 18.4741C23.8787 18.4777 23.8843 18.4856 23.8839 18.4978C23.8797 18.6312 23.8812 18.7462 23.8885 18.8427Z" fill="white"/>
<path d="M31.7638 18.8521C31.7638 18.8529 31.7641 18.8538 31.7646 18.8545C31.7651 18.8552 31.7658 18.8557 31.7666 18.8561C31.7674 18.8564 31.7683 18.8565 31.7692 18.8563C31.77 18.8562 31.7708 18.8558 31.7714 18.8552C32.025 18.6155 32.3881 18.4228 32.7413 18.433C32.7498 18.4332 32.754 18.4376 32.754 18.4461L32.7542 19.3739C32.7542 19.3972 32.7425 19.4083 32.7192 19.4072C32.6232 19.4026 32.5272 19.4053 32.4313 19.4152C32.1903 19.4404 31.8922 19.5726 31.796 19.8134C31.7728 19.8713 31.7608 19.9476 31.76 20.0423C31.758 20.2596 31.7754 20.4752 31.7754 20.6901C31.7756 21.2455 31.7757 21.852 31.7758 22.5098C31.7758 22.5473 31.774 22.584 31.7703 22.6198C31.7696 22.6263 31.766 22.6302 31.7594 22.6313C31.7349 22.635 31.7095 22.6368 31.6833 22.6367C31.3817 22.6359 31.0834 22.6355 30.7885 22.6356C30.7732 22.6356 30.7645 22.628 30.7624 22.6129C30.7601 22.5955 30.759 22.5777 30.759 22.5595C30.7581 22.0779 30.7582 21.5492 30.7592 20.9732C30.7595 20.6697 30.7694 20.3574 30.7626 20.049C30.7601 19.9308 30.7587 19.8094 30.7586 19.685C30.7582 19.2886 30.7547 18.8841 30.748 18.4713C30.748 18.4692 30.7484 18.4672 30.7492 18.4653C30.7499 18.4634 30.751 18.4616 30.7525 18.4602C30.7539 18.4587 30.7556 18.4576 30.7575 18.4568C30.7593 18.456 30.7613 18.4556 30.7633 18.4556L31.7308 18.4558C31.7379 18.4558 31.7416 18.4594 31.7421 18.4665L31.7638 18.8521Z" fill="white"/>
</g>
<circle cx="20" cy="20" r="19.5" stroke="black" stroke-opacity="0.05"/>
<defs>
<clipPath id="clip0_9_410363">
<rect width="32" height="9.81673" fill="white" transform="translate(4 15)"/>
</clipPath>
</defs>
</svg>
