<svg width="40" height="40" viewBox="0 0 40 40" fill="none" xmlns="http://www.w3.org/2000/svg">
<circle cx="20" cy="20" r="20" fill="#2FA7FC"/>
<path d="M33.9732 20.0454L24.9848 24.9625C24.976 24.9672 24.9687 24.9745 24.964 24.9834L20.0454 33.9747C20.0411 33.9828 20.0347 33.9896 20.0268 33.9943C20.0189 33.999 20.0099 34.0015 20.0007 34.0015C19.9916 34.0015 19.9826 33.999 19.9747 33.9943C19.9668 33.9896 19.9604 33.9828 19.9561 33.9747L15.0375 24.9834C15.0328 24.9745 15.0255 24.9672 15.0166 24.9625L6.0268 20.0454C6.01871 20.0411 6.01194 20.0347 6.00722 20.0268C6.00249 20.0189 6 20.0099 6 20.0007C6 19.9916 6.00249 19.9826 6.00722 19.9747C6.01194 19.9668 6.01871 19.9604 6.0268 19.9561L15.0181 15.0375C15.027 15.0328 15.0343 15.0255 15.039 15.0166L19.9546 6.0268C19.9589 6.01871 19.9653 6.01194 19.9732 6.00722C19.9811 6.00249 19.9901 6 19.9993 6C20.0084 6 20.0174 6.00249 20.0253 6.00722C20.0332 6.01194 20.0396 6.01871 20.0439 6.0268L24.9625 15.0196C24.9672 15.0285 24.9745 15.0357 24.9834 15.0405L33.9732 19.9561C33.9813 19.9604 33.9881 19.9668 33.9928 19.9747C33.9975 19.9826 34 19.9916 34 20.0007C34 20.0099 33.9975 20.0189 33.9928 20.0268C33.9881 20.0347 33.9813 20.0411 33.9732 20.0454ZM19.9099 13.3875C19.0422 16.8423 16.8671 19.0264 13.3846 19.9397C13.2128 19.9844 13.2128 20.0285 13.3846 20.0722C16.883 20.9568 19.0785 23.1984 19.971 26.7971C19.9898 26.8745 20.0102 26.875 20.032 26.7986C20.1318 26.4457 20.2092 26.0674 20.3313 25.7264C21.4184 22.7035 23.5459 20.8133 26.7137 20.0558C26.7931 20.037 26.7941 20.0146 26.7167 19.9888C26.2402 19.825 25.7622 19.6985 25.2961 19.5123C22.5511 18.4183 20.8069 16.3588 20.0633 13.3339C20.0524 13.2932 20.0355 13.255 20.0127 13.2193C19.9769 13.1647 19.9536 13.1696 19.9427 13.2342C19.9337 13.2848 19.9228 13.3359 19.9099 13.3875Z" fill="white"/>
<circle cx="20" cy="20" r="19.5" stroke="black" stroke-opacity="0.05"/>
</svg>
