<svg width="40" height="40" viewBox="0 0 40 40" fill="none" xmlns="http://www.w3.org/2000/svg">
<circle cx="20" cy="20" r="20" fill="#F6F8FA"/>
<g clip-path="url(#clip0_9_409097)">
<mask id="mask0_9_409097" style="mask-type:luminance" maskUnits="userSpaceOnUse" x="8" y="8" width="209" height="25">
<path d="M8 8H216.699V32.3441H8V8Z" fill="white"/>
</mask>
<g mask="url(#mask0_9_409097)">
<path d="M31.9953 17.5037H26.0916L20.7275 13.1883L15.4536 8.94318C16.8982 8.33631 18.4834 8 20.1466 8C22.1002 8 23.9453 8.46471 25.5795 9.28408C28.7943 10.8999 31.1927 13.8991 31.9953 17.5037Z" fill="#A7E0FF"/>
<path d="M20.7292 13.1885L12.0448 20.1729L8.36229 23.1324C8.12688 22.1846 8 21.1941 8 20.1729C8 19.1518 8.12688 18.1597 8.36382 17.2104C9.29936 13.4682 11.9608 10.4109 15.4538 8.94336L20.7292 13.1885Z" fill="#5DB8FD"/>
<path d="M25.5765 31.0599L20.7261 27.1572L26.0932 22.8418H31.9984C31.1928 26.4479 28.7928 29.4471 25.5765 31.0599Z" fill="#1E3896"/>
<path d="M25.5766 31.0601C23.944 31.8795 22.0989 32.3442 20.1483 32.3442C18.482 32.3442 16.8968 32.0079 15.4507 31.401C11.9577 29.9335 9.29632 26.8762 8.3623 23.1325L12.0449 20.1699L20.7277 27.1574L25.5766 31.0601Z" fill="#196EEF"/>
</g>
</g>
<circle cx="20" cy="20" r="19.5" stroke="black" stroke-opacity="0.05"/>
<defs>
<clipPath id="clip0_9_409097">
<rect width="24" height="24.3516" fill="white" transform="translate(8 8)"/>
</clipPath>
</defs>
</svg>
