<svg width="40" height="40" viewBox="0 0 40 40" fill="none" xmlns="http://www.w3.org/2000/svg">
<circle cx="20" cy="20" r="20" fill="#003B72"/>
<g clip-path="url(#clip0_9_411497)">
<path d="M25.8201 22.7262C25.818 22.7283 25.816 22.7283 25.816 22.7303C24.4283 23.7556 22.7862 24.8339 21.0185 25.9644L20.9486 26.0071C20.9371 26.0159 20.9294 26.0287 20.927 26.0429C20.9247 26.0571 20.9278 26.0717 20.9357 26.0838C20.9395 26.0896 20.9445 26.0946 20.9503 26.0985C20.9561 26.1023 20.9626 26.105 20.9695 26.1062C20.9763 26.1075 20.9833 26.1074 20.9901 26.1058C20.9969 26.1043 21.0033 26.1014 21.009 26.0974L21.068 26.0641C22.7293 25.1548 24.3806 24.2274 26.0216 23.282C26.0311 23.2765 26.0399 23.2704 26.0487 23.267C25.9502 23.0971 25.8733 22.9154 25.8201 22.7262ZM34.9238 15.0278C32.7374 12.5083 18.6693 14.7747 12.687 16.14L12.5479 16.1705C12.534 16.1735 12.5219 16.1817 12.514 16.1935C12.5061 16.2053 12.5032 16.2197 12.5058 16.2336C12.5112 16.2649 12.5391 16.2839 12.5669 16.2778L12.704 16.2493C17.6596 15.3264 27.9671 14.05 30.184 16.347C30.8619 17.0486 30.6997 17.9498 29.9146 19.0158C30.3366 19.2994 30.6379 19.7466 30.7736 20.3051C33.8387 18.1798 35.8969 16.1495 34.9238 15.0278Z" fill="#FF453A"/>
<path d="M26.7042 22.0639C26.732 22.9501 27.2701 23.6769 27.969 23.6769C29.3255 23.6769 29.903 21.9357 29.8629 20.774C29.8338 19.8857 29.2834 19.161 28.5838 19.161C27.4187 19.1596 26.6635 20.8927 26.7042 22.0639ZM25.9883 22.0164C25.9388 20.5032 27.074 18.9561 28.7216 18.9561C29.8229 18.9561 30.5442 19.7229 30.5843 20.8981C30.6379 22.4935 29.5766 23.9585 27.8537 23.9585C26.7483 23.9585 26.0263 23.1938 25.9883 22.0164ZM10.3662 21.384C10.2916 21.4125 10.215 21.4352 10.1369 21.4519C10.0432 21.4749 9.87086 21.5055 9.62114 21.5475C9.44879 21.5767 9.32936 21.6127 9.2615 21.6643C9.23111 21.6858 9.20535 21.7133 9.18577 21.745C9.16619 21.7767 9.15317 21.812 9.1475 21.8488C9.13995 21.8844 9.14306 21.9214 9.15646 21.9552C9.16986 21.989 9.19295 22.0181 9.22282 22.0388C9.28864 22.0863 9.39925 22.1114 9.55532 22.1114C9.67272 22.1114 9.78604 22.0924 9.89665 22.0538C9.99893 22.0213 10.0936 21.9684 10.1749 21.8984C10.2295 21.8476 10.2714 21.7845 10.297 21.7145C10.3285 21.6065 10.3516 21.4955 10.3662 21.384ZM11.798 20.4544C11.7926 20.5928 11.7688 20.7156 11.7335 20.928L11.4913 22.3489C11.4709 22.4758 11.515 22.5729 11.627 22.6428L11.6202 22.714H10.2325L10.219 22.3354C10.0114 22.4638 9.78747 22.5637 9.55329 22.6326C9.3369 22.6929 9.11289 22.7215 8.88829 22.7174C8.44043 22.7174 8.18393 22.6699 8.00614 22.5064C7.82632 22.3394 7.73811 22.2281 7.74693 21.9981C7.76201 21.8445 7.8201 21.6982 7.91454 21.576C8.00954 21.4553 8.14186 21.3772 8.283 21.306C8.42618 21.2347 8.59515 21.1838 8.83943 21.1431C9.08507 21.101 9.42639 21.0603 9.88375 21.021C10.124 20.9993 10.2705 20.9416 10.3384 20.9124C10.4341 20.8744 10.4728 20.831 10.4856 20.7495C10.5114 20.6043 10.4673 20.5202 10.28 20.4815C9.78061 20.3784 8.84282 20.5487 8.35968 20.6735L8.62229 19.9332C9.26014 19.8355 9.85593 19.7738 10.4856 19.7738C11.4899 19.7738 11.8089 20.071 11.798 20.4544ZM15.845 22.714L16.3105 19.999H17.6391L17.1736 22.714H15.845ZM16.3879 19.0769C16.4286 18.8421 16.7814 18.6541 17.1736 18.6541C17.5686 18.6541 17.8563 18.8441 17.8183 19.0762C17.7755 19.3103 17.4247 19.5003 17.0291 19.5003C16.6355 19.5003 16.3499 19.3103 16.3885 19.0762L16.3879 19.0769ZM22.4041 21.3833C22.3282 21.4093 22.2513 21.4317 22.1734 21.4505C22.079 21.4736 21.9067 21.5021 21.657 21.5441C21.486 21.5733 21.3652 21.6093 21.2994 21.6615C21.2391 21.7052 21.1979 21.7703 21.184 21.8434C21.1762 21.8789 21.1791 21.9159 21.1924 21.9498C21.2057 21.9836 21.2288 22.0127 21.2586 22.0334C21.3265 22.0809 21.4364 22.1046 21.5925 22.1046C21.7079 22.1046 21.8219 22.087 21.9338 22.0504C22.0478 22.0103 22.1415 21.9608 22.2148 21.8956C22.2675 21.844 22.3077 21.7808 22.3321 21.7111C22.3505 21.6636 22.3749 21.5543 22.4041 21.3833ZM23.8359 20.4516C23.8304 20.5914 23.806 20.7143 23.7694 20.9253L23.5291 22.3476C23.5088 22.4724 23.5529 22.5715 23.6649 22.6414L23.6581 22.714H22.2697L22.2589 22.3306C22.0573 22.4595 21.811 22.5661 21.5925 22.6278C21.3726 22.6889 21.1942 22.714 20.9248 22.714C20.4769 22.714 20.2218 22.6679 20.0433 22.5036C19.8621 22.334 19.776 22.2254 19.7855 21.9947C19.7902 21.861 19.8567 21.69 19.9517 21.5733C20.0467 21.4505 20.1797 21.3738 20.3229 21.3026C20.4654 21.232 20.635 21.1804 20.8773 21.1377C21.1229 21.0976 21.4663 21.0556 21.923 21.0155C22.0787 21.0046 22.2318 20.9689 22.3763 20.9097C22.474 20.8717 22.5106 20.8276 22.5255 20.7448C22.5486 20.6009 22.5065 20.5168 22.322 20.4768C21.8185 20.3729 20.8841 20.5433 20.4016 20.6681L20.6622 19.9285C21.3007 19.8301 21.8958 19.769 22.5249 19.769C23.5258 19.771 23.8447 20.0696 23.8359 20.4516ZM7.55286 21.6337C7.11925 21.724 6.877 21.7586 6.4495 21.7586C5.81436 21.7586 5.3095 21.4288 5.33732 20.8249C5.35768 20.4218 5.81232 19.5743 6.97064 19.5743C7.33639 19.5743 7.62072 19.6421 8.00411 19.8701L8.17307 18.8842C7.65193 18.6792 7.30654 18.6487 6.85868 18.6521C5.33868 18.6697 3.88179 19.3904 3.69993 20.8574C3.51672 22.3469 5.25861 22.7208 6.03082 22.7167C6.47951 22.7169 6.92792 22.6947 7.37439 22.6502L7.55286 21.6337ZM18.393 19.9997L18.488 19.4351L19.8778 19.1189L19.7291 19.9997H20.4104L20.2815 20.6783H19.6213L19.2189 22.714C19.2189 22.714 17.8807 22.7045 17.8753 22.714L18.2756 20.6783H17.7728L17.8753 19.9997H18.393ZM25.8343 18.6426L25.1883 22.714H23.8359L24.5165 18.6426H25.8343ZM14.0753 20.6986C13.9009 20.6986 13.7428 20.7577 13.6037 20.8751C13.4639 20.9938 13.3757 21.1655 13.3411 21.3935C13.299 21.6581 13.3248 21.8481 13.4184 21.9655C13.5134 22.0823 13.6491 22.142 13.8296 22.142C13.9504 22.142 14.0753 22.1169 14.1669 22.066C14.2809 21.9981 14.3596 21.9282 14.4275 21.8156C14.5008 21.6989 14.5489 21.5679 14.5747 21.4159C14.6127 21.1764 14.5801 20.9979 14.4811 20.8791C14.3834 20.7597 14.2497 20.6986 14.0753 20.6986ZM11.6562 24.0711L12.3042 19.9997H13.4714L13.3818 20.5222C13.4822 20.3661 13.6437 20.2393 13.8676 20.1368C14.1034 20.0238 14.3608 19.963 14.6222 19.9583C14.9276 19.9583 15.1142 19.9766 15.3415 20.1076C15.5675 20.2413 15.7269 20.4333 15.8118 20.6844C15.9 20.93 15.9183 21.2089 15.8701 21.5102C15.7914 22.0124 15.5729 22.4059 15.2133 22.6977C14.857 22.9888 14.536 23.0641 14.0787 23.0669C13.9407 23.0687 13.8031 23.052 13.6695 23.0173C13.5754 22.9924 13.486 22.9523 13.4049 22.8986C13.3231 22.8344 13.2499 22.7601 13.187 22.6774L12.9699 24.0711H11.6562ZM35.7767 21.2245C35.7692 20.9965 35.6593 20.8411 35.4333 20.8411C34.8884 20.8411 34.3083 21.9574 34.2092 22.4059C35.1029 22.408 35.7984 21.8509 35.7767 21.2245ZM35.8941 22.9732L35.9986 23.0479C35.7326 23.6138 35.1911 24.0684 34.5559 24.0684C34.0361 24.0684 33.6086 23.7061 33.5869 23.0268C33.5442 21.8095 34.6367 20.6803 35.5304 20.6803C35.9138 20.6803 36.27 20.8547 36.2849 21.2863C36.3175 22.2546 35.016 22.5498 34.1596 22.5708C34.1325 22.6726 34.121 22.7744 34.1264 22.9278C34.1413 23.3281 34.372 23.6654 34.8531 23.6654C35.2678 23.6654 35.683 23.3166 35.8941 22.9732Z" fill="white"/>
<path d="M30.564 21.1944C30.6556 21.1809 30.8042 21.1639 30.8686 21.1639C30.9657 21.1639 31.058 21.1829 31.0634 21.2847C31.0647 21.3437 30.9623 21.7753 30.9406 21.875L30.7329 22.8298C30.6488 23.2213 30.5585 23.7472 30.4778 24.0716H31.0098L31.309 22.441C32.2217 21.4475 32.5739 21.1232 32.7883 21.1232C32.886 21.1232 32.9519 21.1775 32.958 21.2982C32.9627 21.4726 32.8582 21.8696 32.8236 21.9843L32.5182 23.087C32.449 23.334 32.3975 23.5586 32.4029 23.718C32.4124 23.9596 32.5522 24.0668 32.7612 24.0668C33.15 24.0668 33.433 23.6427 33.6786 23.2267L33.6074 23.091C33.5083 23.2573 33.2769 23.6237 33.095 23.6237C33.038 23.6237 32.9831 23.583 32.981 23.4839C32.9756 23.355 33.0272 23.1616 33.0638 23.0334L33.4031 21.7407C33.4954 21.3844 33.5375 21.1564 33.5354 21.0336C33.5266 20.792 33.3929 20.6787 33.1846 20.6787C32.8345 20.6787 32.3703 20.9474 31.3844 22.1302H31.3694L31.4943 21.5534C31.5621 21.2365 31.6286 20.9067 31.6911 20.6787C31.3497 20.8076 30.8612 20.9508 30.5606 21.0126L30.564 21.1944Z" fill="white"/>
</g>
<circle cx="20" cy="20" r="19.5" stroke="black" stroke-opacity="0.05"/>
<defs>
<clipPath id="clip0_9_411497">
<rect width="34" height="14" fill="white" transform="translate(3 13)"/>
</clipPath>
</defs>
</svg>
