<svg width="40" height="40" viewBox="0 0 40 40" fill="none" xmlns="http://www.w3.org/2000/svg">
<circle cx="20" cy="20" r="20" fill="#E61D2B"/>
<path d="M26.4177 15.2708C26.4177 15.2708 25.8178 15.5096 25.1201 16.2785C24.4225 17.0475 24.0161 17.9121 24.3169 18.1421C24.4323 18.2295 24.6987 18.2461 25.182 17.8091C25.6281 17.4218 25.9782 16.9364 26.2049 16.3909C26.517 15.6297 26.4177 15.2801 26.4177 15.2718M30.2358 16.6541C29.4606 16.2567 28.8941 15.7697 28.3046 15.4685C27.7422 15.1797 27.3786 15.059 26.9239 15.1199C26.8604 15.1312 26.7979 15.1468 26.7366 15.1667C26.7366 15.1667 26.9707 15.9664 26.0389 17.3097C25.0952 18.6717 24.2388 18.6623 23.9953 18.2883C23.7404 17.8934 24.0697 17.0886 24.6196 16.3722C25.1956 15.623 26.2069 15.0018 26.2069 15.0018C26.2069 15.0018 25.8844 14.8046 25.0926 15.2536C24.32 15.6896 22.9902 16.7301 21.7561 18.4849C20.5221 20.2397 20.2776 21.2053 20.1007 21.9654C19.9238 22.7255 20.0846 23.5397 20.9274 23.5397C21.7702 23.5397 22.7514 22.2542 23.0282 21.8073C23.5427 20.9749 23.8783 19.6982 23.178 19.8735C22.8331 19.9599 22.5537 20.3417 22.3773 20.7095C22.266 20.9458 22.1808 21.1935 22.1234 21.4483C21.8787 21.5492 21.6489 21.6829 21.4403 21.8458C21.2083 22.0177 20.9914 22.2091 20.7921 22.4181C20.7921 22.4181 20.7952 21.8104 21.2796 20.8271C21.7639 19.8438 22.6531 19.3949 23.1567 19.3527C23.6103 19.3163 24.2008 19.7013 23.7003 21.1216C23.1999 22.5419 21.7234 24.2686 20.1725 24.29C18.7413 24.3097 17.8048 22.4831 19.7969 19.2955C22.0017 15.7739 24.5879 14.6933 25.4276 14.5731C26.2673 14.4529 26.5404 14.8233 26.5404 14.8233C27.0459 14.616 27.5918 14.526 28.1371 14.5601C29.1625 14.6293 29.9554 15.3551 31.0022 15.8649C30.7301 16.125 30.4705 16.3982 30.2363 16.6541M34.8427 15.4685C34.132 15.9242 33.1487 16.3373 32.204 16.2489C31.9646 16.496 31.7087 16.7821 31.4522 17.0943C33.0905 17.4184 34.5259 16.4034 35.2891 15.5392C35.5673 15.2285 35.8063 14.8848 36.0008 14.5159C35.6533 14.8778 35.2644 15.1975 34.8422 15.4685M32.6607 20.0842C32.6732 20.0626 32.6833 20.0397 32.6909 20.016C32.6861 19.9785 32.6685 19.9438 32.6411 19.9177C32.6138 19.8915 32.5783 19.8756 32.5406 19.8724C32.3845 19.8652 32.1717 19.8948 31.6135 20.5129C31.1504 21.0233 30.7518 21.5887 30.4268 22.1964C30.1073 22.7802 29.9778 23.2151 30.1614 23.3275C30.2211 23.3584 30.2903 23.3655 30.355 23.3472C30.4793 23.3176 30.6203 23.2011 30.8346 22.9529C30.935 22.8364 31.0464 22.6714 31.1796 22.4888C31.549 21.9863 32.4771 20.4042 32.6607 20.0842ZM26.862 20.7564C26.9551 20.5129 27.0737 20.0348 26.8271 19.847C26.5623 19.6477 25.887 20.1154 25.8833 20.5951C25.8787 21.0862 26.3589 21.3084 26.4738 21.3396C26.5394 21.3573 26.5623 21.3547 26.594 21.3021C26.6959 21.1266 26.7854 20.9443 26.862 20.7564ZM26.3511 21.6496C26.1837 21.5724 26.0276 21.4728 25.887 21.3536C25.746 21.2353 25.6281 21.0919 25.5395 20.9307C25.5301 20.915 25.5207 20.927 25.5103 20.9411C25.4999 20.9551 25.4583 20.9931 25.0983 21.5206C24.7383 22.0482 24.1852 23.1412 24.6857 23.3275C25.0062 23.4466 25.5395 22.8853 25.8303 22.5133C26.0284 22.2536 26.208 21.9803 26.3677 21.6954C26.3828 21.6637 26.3677 21.6564 26.3516 21.6496M32.0286 22.9123C31.8928 23.1298 31.7378 23.547 32.1847 23.2874C32.7315 22.9716 33.5103 21.7901 33.5103 21.7901H33.8636C33.5421 22.2844 33.1843 22.7539 32.7929 23.1948C32.2388 23.8087 31.563 24.3664 31.087 24.3113C30.5308 24.2463 30.7051 23.5163 30.7051 23.5163C30.7051 23.5163 29.9096 24.3633 29.3592 24.3024C28.6157 24.2202 28.8426 23.3015 28.8426 23.3015C28.8426 23.3015 28.0018 24.3331 27.429 24.3014C26.5311 24.2494 26.7569 23.1568 27.0066 22.3874C27.1403 21.9759 27.2641 21.6528 27.2641 21.6528C27.2641 21.6528 27.1751 21.6762 26.9837 21.7048C26.8838 21.7188 26.7017 21.7292 26.7017 21.7292C26.7017 21.7292 26.3276 22.3889 26.0285 22.7854C25.7293 23.1818 24.4578 24.5485 23.7097 24.2749C23.0178 24.022 23.2467 22.9628 23.6494 22.121C24.2373 20.8937 25.8906 19.1306 26.8443 19.3636C27.8328 19.6035 26.8666 21.4072 26.8666 21.4072C26.8666 21.4072 26.8666 21.414 26.877 21.4187C26.8968 21.4259 26.9483 21.4317 27.0675 21.4082C27.1909 21.3831 27.3119 21.347 27.429 21.3006C27.429 21.3006 28.4227 19.2195 29.5205 17.858C30.6182 16.4965 32.808 14.1517 33.6674 14.7188C33.8755 14.8582 33.7819 15.3384 33.4989 15.9211C33.3714 15.9625 33.2419 15.9972 33.1108 16.0251C33.3001 15.6813 33.4255 15.3915 33.463 15.1891C33.5925 14.4857 31.9501 15.9695 30.7764 17.5635C30.0694 18.5245 29.4413 19.5411 28.8982 20.6034C29.1103 20.4741 29.3127 20.3296 29.5038 20.1711C30.0273 19.737 30.5249 19.2725 30.9938 18.7799C31.4454 18.3176 31.869 17.8287 32.2622 17.3159C32.3872 17.3099 32.5117 17.297 32.6353 17.2774C32.2065 17.8594 31.7389 18.4118 31.2358 18.9308C30.7675 19.4042 30.2608 19.9135 29.8207 20.2835C29.4275 20.6178 29.0128 20.9259 28.5793 21.2059C28.5793 21.2059 27.5529 23.276 28.1111 23.4086C28.4394 23.4877 29.0876 22.4893 29.0876 22.4893C29.0876 22.4893 29.9336 21.1986 30.4434 20.6164C31.139 19.8256 31.7378 19.3678 32.3361 19.3595C32.6847 19.3532 32.8902 19.7237 32.8902 19.7237L33.0541 19.4698H34.0634C34.0634 19.4698 32.1785 22.6683 32.0276 22.9092M34.8422 15.4685C34.1315 15.9242 33.1482 16.3373 32.2034 16.2489C31.9641 16.496 31.7082 16.7821 31.4517 17.0943C33.09 17.4184 34.5253 16.4034 35.2886 15.5392C35.567 15.2286 35.8062 14.8849 36.0008 14.5159C35.6533 14.8778 35.2644 15.1975 34.8422 15.4685ZM20.6678 17.0376H19.7079L19.1653 17.9142H20.1251L20.6678 17.0376ZM16.1228 20.0733C16.5312 19.5135 17.6581 17.5516 17.6581 17.5516C17.6533 17.5141 17.6358 17.4794 17.6086 17.4533C17.5813 17.4271 17.5459 17.4111 17.5082 17.408C17.3522 17.4007 17.092 17.4533 16.5754 18.0999C16.0588 18.7466 15.6577 19.2611 15.3653 19.7965C15.0448 20.3807 14.9049 20.7928 15.089 20.9046C15.1488 20.9346 15.2175 20.9416 15.2821 20.9244C15.4017 20.8942 15.5583 20.7741 15.7732 20.5269C15.8741 20.4114 15.9886 20.2559 16.1228 20.0733ZM10.9722 17.42C10.7069 17.2197 10.0321 17.6884 10.0285 18.167C10.0243 18.6587 10.6356 18.809 10.7147 18.8127C10.738 18.8146 10.7613 18.8097 10.7818 18.7986C10.7959 18.7904 10.8072 18.7781 10.8141 18.7633C10.886 18.622 10.9506 18.4772 11.0076 18.3294C11.1007 18.0859 11.2188 17.6078 10.9722 17.42ZM10.5722 19.1124C10.3892 19.0552 10.2144 18.9748 10.0519 18.873C9.89449 18.7704 9.76647 18.6286 9.68045 18.4615C9.67108 18.4459 9.66068 18.4579 9.65131 18.4719C9.64195 18.486 9.58784 18.5536 9.22678 19.0832C8.86572 19.6128 8.3309 20.696 8.83191 20.8823C9.15135 21.0035 9.69085 20.4374 9.98376 20.067C10.2029 19.7759 10.4055 19.4727 10.5904 19.1587C10.6023 19.1269 10.5904 19.1196 10.5727 19.1139M18.4119 19.4386H18.7636C18.7636 19.4386 17.0015 21.9878 16.0063 21.8692C15.4506 21.8042 15.6155 21.1185 15.6155 21.1185C15.6155 21.1185 14.8352 22.032 14.1182 21.8468C13.4679 21.6798 13.8878 20.5982 13.8878 20.5982C13.8139 20.6279 12.4066 22.2141 11.4176 21.8338C10.3828 21.4343 10.9202 20.106 11.1169 19.7065C11.2839 19.3699 11.4686 19.0421 11.4686 19.0421C11.4686 19.0421 11.3099 19.0869 11.2084 19.1098C11.107 19.1326 10.9603 19.1618 10.9603 19.1618C10.9603 19.1618 10.4707 19.9573 10.1716 20.3542C9.87242 20.7512 8.60091 22.1153 7.85174 21.8437C7.10257 21.5721 7.2883 20.5238 7.70919 19.6914C8.39177 18.3413 10.0113 16.6822 10.9868 16.934C11.9722 17.1853 11.1564 18.7835 11.1564 18.7835C11.1564 18.7835 11.3526 18.809 11.8223 18.4886C12.4987 18.0271 13.3914 16.7858 14.3581 16.9314C14.8138 17.0001 15.2384 17.4657 14.6578 18.3502C14.4725 18.6342 14.1619 18.8881 13.9242 18.6368C13.7759 18.4808 13.9055 18.1962 14.061 18.0016C14.1216 17.9223 14.2007 17.8591 14.2914 17.8175C14.3821 17.776 14.4817 17.7574 14.5813 17.7633C14.5813 17.7633 14.741 17.3991 14.3347 17.4043C14.0059 17.4106 13.1735 18.1769 12.7037 18.9511C12.2729 19.6617 11.62 20.8724 12.2755 21.1362C12.8764 21.3786 14.0199 20.0212 14.5495 19.3101C15.0792 18.5989 16.2862 16.9871 17.2986 16.9226C17.6472 16.8997 17.8547 17.2176 17.8547 17.2176L17.9718 17.0324H18.9842C18.9842 17.0324 17.0775 20.2143 16.9287 20.4551C16.8116 20.6435 16.6561 21.067 17.0848 20.8297C17.5134 20.5925 18.4119 19.4386 18.4119 19.4386ZM17.861 24.5371C17.1155 24.0211 16.2229 23.7606 15.3169 23.7947C15.0717 23.8014 14.8315 23.8658 14.6158 23.9826C14.4002 24.0995 14.2151 24.2656 14.0756 24.4674C13.6896 23.7936 12.9263 23.38 11.7464 23.3894C9.83965 23.4112 7.94851 24.2905 6.45017 24.2894C5.01426 24.2894 3.96698 23.3868 4.0008 21.7839C4.06375 18.9708 6.4408 16.4377 8.21488 15.2978C9.23771 14.6428 10.093 14.4482 10.6523 14.5112C11.0602 14.5565 11.5508 15.0278 11.2412 15.7224C10.7865 16.7374 10.1586 16.6541 10.182 16.1687C10.195 15.8529 10.4052 15.6542 10.5633 15.5444C10.6637 15.4752 10.8411 15.4555 10.9337 15.4534C11.0238 15.3774 11.0898 14.8218 10.3615 15.0044C9.6331 15.187 8.74867 15.905 7.90897 16.8326C7.06927 17.7602 5.76187 19.5135 5.43879 21.3547C5.28791 22.2084 5.38676 23.7655 7.41108 23.7478C9.12793 23.7338 11.6585 22.6033 13.984 22.6267C14.8867 22.6355 15.6723 22.879 16.2846 23.2567C16.886 23.6271 17.6071 24.1682 17.8631 24.5376" fill="white"/>
<circle cx="20" cy="20" r="19.5" stroke="black" stroke-opacity="0.05"/>
</svg>
