<svg width="40" height="40" viewBox="0 0 40 40" fill="none" xmlns="http://www.w3.org/2000/svg">
<circle cx="20" cy="20" r="20" fill="#48525B"/>
<path d="M29.5074 23.999L31.7487 20.4492V20.4346L29.5221 16.9531H31.2555L32.7545 19.4922H32.8082L34.2975 16.9531H35.943L33.6334 20.459V20.4785L35.9137 23.999H34.234L32.6862 21.5283H32.6373L31.0992 23.999H29.5074Z" fill="white"/>
<path d="M24.451 23.999V16.9531H29.119V18.1689H25.9256V19.8584H28.9383V21.0107H25.9256V22.7832H29.119V23.999H24.451Z" fill="white"/>
<path d="M17.6025 23.999V16.9531H18.8916L22.0752 21.5332H22.1045V16.9531H23.5742V23.999H22.2949L19.1016 19.3848H19.0723V23.999H17.6025Z" fill="white"/>
<path d="M13.5519 24.1221C11.4572 24.1221 10.1535 22.7207 10.1535 20.4795V20.4697C10.1535 18.2285 11.467 16.832 13.5519 16.832C15.6418 16.832 16.9504 18.2334 16.9504 20.4697V20.4795C16.9504 22.7207 15.6467 24.1221 13.5519 24.1221ZM13.5519 22.8721C14.7238 22.8721 15.4465 21.9395 15.4465 20.4795V20.4697C15.4465 19 14.7092 18.082 13.5519 18.082C12.3996 18.082 11.6574 18.9951 11.6574 20.4697V20.4795C11.6574 21.9541 12.3947 22.8721 13.5519 22.8721Z" fill="white"/>
<path d="M4.43301 23.999V16.9531H5.90762V20.1758H5.9418L8.52481 16.9531H10.1654L7.64102 20.0635L10.3461 23.999H8.5834L6.5668 21.0254L5.90762 21.8408V23.999H4.43301Z" fill="white"/>
<circle cx="20" cy="20" r="19.5" stroke="black" stroke-opacity="0.05"/>
</svg>
