<svg width="40" height="40" viewBox="0 0 40 40" fill="none" xmlns="http://www.w3.org/2000/svg">
<circle cx="20" cy="20" r="20" fill="#356395"/>
<g clip-path="url(#clip0_9_395872)">
<path d="M10.3621 18.5762L6.4834 21.4262V25.2262L10.3621 28.0762L14.2415 25.2262V21.4262L10.3621 18.5762Z" fill="url(#paint0_linear_9_395872)"/>
<path d="M10.3291 18.5332L6.42871 21.4002V25.2545L10.3624 28.1431L14.2961 25.2531V21.3995L10.3624 18.5088L10.3291 18.5339V18.5332ZM10.3624 18.6438L14.1868 21.4531V25.1995L10.3624 28.0088L6.53864 25.1995V21.4538L10.3624 18.6438Z" fill="#9D1535"/>
<path d="M17.9694 18.6113L14.1816 21.426V25.226L18.1051 28.076L22.0286 25.226V21.426L17.9694 18.6113Z" fill="url(#paint1_linear_9_395872)"/>
<path d="M17.9337 18.5469L14.127 21.3996V25.2539L18.0783 28.1432L22.0357 25.2532V21.3996L17.9663 18.5225L17.9337 18.5469ZM17.9663 18.6432C18.0308 18.6907 21.8749 21.422 21.9183 21.4532V25.1996L18.0776 28.0089L14.2369 25.1996V21.4539C14.2803 21.422 17.9018 18.6901 17.9663 18.6432Z" fill="#9D1535"/>
<path d="M21.9205 11.9248L18.0234 14.7748V18.5748L22.0392 21.4404L25.8182 18.5748V14.7748L21.9205 11.9248Z" fill="url(#paint2_linear_9_395872)"/>
<path d="M21.8833 11.8818L17.9639 14.7475V18.6017L22.038 21.4769L25.8685 18.6011V14.7468L21.9159 11.8574L21.8833 11.8818ZM21.9159 11.9918L25.7586 14.8011V18.5475C25.7152 18.5793 22.1025 21.3228 22.038 21.3696C21.9735 21.3221 18.1172 18.5793 18.0738 18.5475V14.8011L21.9159 11.9918Z" fill="#9D1535"/>
<path d="M29.6382 11.9248L25.7588 14.7748V18.5748L29.6382 21.4248L33.5176 18.5748V14.7748L29.6382 11.9248Z" fill="url(#paint3_linear_9_395872)"/>
<path d="M29.6042 11.8818L25.7031 14.7475V18.6017L29.6368 21.4911L33.5712 18.6024V14.7481L29.6368 11.8574L29.6042 11.8818ZM29.6368 11.9918L33.4619 14.8011V18.5475L29.6368 21.3574L25.8131 18.5481V14.8017L29.6368 11.9918Z" fill="#9D1535"/>
</g>
<circle cx="20" cy="20" r="19.5" stroke="black" stroke-opacity="0.05"/>
<defs>
<linearGradient id="paint0_linear_9_395872" x1="14.2415" y1="23.3255" x2="6.4834" y2="23.3255" gradientUnits="userSpaceOnUse">
<stop stop-color="#A5273A"/>
<stop offset="0.477" stop-color="#DA8F90"/>
<stop offset="1" stop-color="#FBE7E7"/>
</linearGradient>
<linearGradient id="paint1_linear_9_395872" x1="22.0286" y1="23.3254" x2="14.1816" y2="23.3254" gradientUnits="userSpaceOnUse">
<stop stop-color="#A5273A"/>
<stop offset="0.466" stop-color="#DA8F90"/>
<stop offset="1" stop-color="#FBE7E7"/>
</linearGradient>
<linearGradient id="paint2_linear_9_395872" x1="25.8182" y1="16.6748" x2="18.0234" y2="16.6748" gradientUnits="userSpaceOnUse">
<stop stop-color="#A5273A"/>
<stop offset="0.477" stop-color="#DA8F90"/>
<stop offset="1" stop-color="#FBE7E7"/>
</linearGradient>
<linearGradient id="paint3_linear_9_395872" x1="33.5176" y1="16.6748" x2="25.7588" y2="16.6748" gradientUnits="userSpaceOnUse">
<stop stop-color="#A5273A"/>
<stop offset="0.477" stop-color="#DA8F90"/>
<stop offset="1" stop-color="#FBE7E7"/>
</linearGradient>
<clipPath id="clip0_9_395872">
<rect width="28" height="18" fill="white" transform="translate(6 11)"/>
</clipPath>
</defs>
</svg>
