<svg width="40" height="40" viewBox="0 0 40 40" fill="none" xmlns="http://www.w3.org/2000/svg">
<circle cx="20" cy="20" r="20" fill="#002554"/>
<g clip-path="url(#clip0_9_409565)">
<path d="M20.9893 17.6581H23.2518V23.4723H24.686V17.6581H26.9486V16.4736H20.9893V17.6581Z" fill="white"/>
<path d="M11.5342 17.3221C10.8123 16.6544 9.85806 16.2886 8.86903 16.3021C6.62194 16.3021 5 17.9241 5 19.9737C5 22.0234 6.64129 23.6453 8.89032 23.6453C9.87935 23.6647 10.8413 23.3144 11.5845 22.6679L11.5477 22.6292L10.8026 21.8453L10.6806 21.7157C10.2026 22.1531 9.57548 22.3931 8.92516 22.3853C8.28645 22.3795 7.67484 22.126 7.22194 21.6808C6.76903 21.2337 6.51161 20.6299 6.50387 19.9989C6.49613 19.366 6.73806 18.7563 7.17935 18.2995C7.62065 17.8408 8.22452 17.5718 8.86323 17.5505C9.52129 17.5544 10.1503 17.8137 10.6168 18.2744L11.5342 17.3221Z" fill="white"/>
<path fill-rule="evenodd" clip-rule="evenodd" d="M16.4368 23.645C14.3213 23.645 12.6104 22.0037 12.6104 19.9734C12.6104 17.943 14.3213 16.3018 16.4368 16.3018C18.5523 16.3018 20.2633 17.943 20.2633 19.9734C20.2633 22.0037 18.5523 23.645 16.4368 23.645ZM18.6491 19.056C18.5329 18.7656 18.3587 18.4985 18.1362 18.274C17.9155 18.0495 17.6523 17.8695 17.36 17.7476C17.0697 17.6237 16.7562 17.5579 16.4387 17.556C15.9723 17.556 15.5155 17.6914 15.1245 17.9469C14.7355 18.2024 14.4316 18.5663 14.2497 18.9921C14.0678 19.4179 14.0174 19.8882 14.1045 20.343C14.1897 20.7979 14.4104 21.216 14.7355 21.5469C15.0626 21.8798 15.4787 22.1082 15.9355 22.2069C16.3923 22.3037 16.8684 22.2669 17.3039 22.0985C17.7394 21.9301 18.1149 21.6398 18.3839 21.2624C18.6529 20.883 18.8039 20.436 18.8174 19.9734C18.8233 19.6598 18.7652 19.3482 18.6491 19.056Z" fill="white"/>
<path d="M33.2854 16.4736H35.0003L32.0854 20.7278V23.4723H30.657V20.7452L27.7441 16.4736H29.4783L31.3964 19.3749L33.2854 16.4736Z" fill="white"/>
</g>
<circle cx="20" cy="20" r="19.5" stroke="black" stroke-opacity="0.05"/>
<defs>
<clipPath id="clip0_9_409565">
<rect width="30" height="7.35484" fill="white" transform="translate(5 16.2998)"/>
</clipPath>
</defs>
</svg>
