<svg width="40" height="40" viewBox="0 0 40 40" fill="none" xmlns="http://www.w3.org/2000/svg">
<circle cx="20" cy="20" r="20" fill="#F6F8FA"/>
<g clip-path="url(#clip0_9_406479)">
<path fill-rule="evenodd" clip-rule="evenodd" d="M8.27435 18.4243L9.08823 18.5303C8.95385 18.9165 8.69833 19.2515 8.36142 19.4843C8.03019 19.6982 7.64217 19.8098 7.24659 19.8004C6.83397 19.8231 6.42892 19.6811 6.12041 19.4086C5.82325 19.0906 5.67183 18.6609 5.7059 18.2256C5.69643 17.8092 5.80053 17.3966 6.00684 17.0332C6.18665 16.7114 6.45353 16.4464 6.77719 16.2685C7.0876 16.1019 7.43586 16.0168 7.78792 16.0187C8.15322 16.0054 8.51284 16.1133 8.81 16.3253C9.08634 16.5392 9.26047 16.859 9.28886 17.2073L8.52798 17.2755C8.50337 17.0937 8.41252 16.9272 8.27246 16.8098C8.12861 16.7133 7.95826 16.666 7.78602 16.6736C7.57971 16.6755 7.37719 16.7322 7.19927 16.8401C6.98918 16.9764 6.82262 17.1713 6.72041 17.4004C6.58602 17.6672 6.51788 17.9644 6.52167 18.2635C6.50463 18.5095 6.58792 18.7518 6.75069 18.9392C6.89265 19.0906 7.09517 19.1758 7.30527 19.1739C7.50968 19.1739 7.71031 19.1095 7.87877 18.9884C8.06804 18.8483 8.20621 18.6496 8.27435 18.4243ZM13.5494 16.0736L12.7109 19.7909H11.8876L12.2624 18.1291H10.7311L10.3564 19.7909H9.53303L10.3715 16.0736H11.1949L10.8712 17.5064H12.4024L12.7261 16.0736H13.5494ZM17.422 16.0736L17.2819 16.6944H15.1488L14.9614 17.5329H17.0302L16.8901 18.1537H14.8214L14.5942 19.1701H16.9053L16.769 19.7909H13.6308L14.4655 16.0736H17.422ZM21.463 16.0736L20.6113 19.7909H19.8504L18.7772 17.2925L18.2207 19.7909H17.4523L18.2851 16.0736H19.0497L20.1248 18.5606L20.6945 16.0736H21.463ZM23.1702 16.0736L22.2958 19.7909H21.4725L22.3488 16.0736H23.1702ZM27.0049 16.0736L26.8649 16.6944H24.7318L24.5444 17.5329H26.6132L26.4731 18.1537H24.4043L24.1772 19.1701H26.4882L26.352 19.7909H23.2138L24.0485 16.0736H27.0049ZM27.8851 19.7493H27.0731L27.8983 16.0717H29.6586C29.9027 16.0603 30.1469 16.0925 30.3778 16.1682C30.5349 16.2325 30.6712 16.3423 30.7639 16.4862C30.868 16.6508 30.9191 16.842 30.9116 17.037C30.9248 17.3322 30.8113 17.6199 30.5993 17.8262C30.3456 18.042 30.0296 18.1707 29.6983 18.1915C29.8251 18.3032 29.933 18.4338 30.0201 18.5796C30.2415 18.9543 30.4365 19.3442 30.6031 19.7474H29.7267C29.6914 19.6452 29.5715 19.3644 29.3671 18.9051C29.2933 18.7272 29.1967 18.5587 29.0794 18.4054C29.0283 18.343 28.9639 18.2956 28.8901 18.2635C28.7841 18.2313 28.6744 18.2199 28.5646 18.2256H28.2277L27.8851 19.7493ZM28.3507 17.6767H28.786C29.0605 17.6881 29.333 17.6672 29.6037 17.6161C29.74 17.5802 29.8611 17.5045 29.9557 17.3985C30.0447 17.3057 30.0958 17.1808 30.0977 17.0502C30.1034 16.9234 30.0333 16.8042 29.9198 16.7455C29.7759 16.6944 29.6245 16.6755 29.4712 16.6868H28.5721L28.3507 17.6767ZM34.9223 16.0736L34.7822 16.6944H32.651L32.4617 17.5329H34.5324L34.3904 18.1556H32.3236L32.0945 19.1701H34.4075L34.2712 19.7928H31.133L31.9677 16.0736H34.9223Z" fill="#2B2E34"/>
<path fill-rule="evenodd" clip-rule="evenodd" d="M34.3129 22.6457L34.3054 22.6419V22.6476L28.9356 22.6381C28.7748 22.6495 24.041 23.011 22.0385 24.5838H21.429C21.429 24.5838 21.5823 24.4267 21.6353 24.3775C21.677 24.3359 21.7394 24.2829 21.7754 24.2507L21.7735 24.2469C23.1476 23.1681 25.6328 22.64 27.2795 22.3958H26.0662C25.8713 22.4129 20.106 22.939 18.7167 24.5857L18.7148 24.5819H18.1375C18.1375 24.5819 18.2662 24.4476 18.3136 24.3965C18.3344 24.3737 18.3628 24.3416 18.3912 24.3113C18.4151 24.281 18.441 24.2513 18.4688 24.2223C19.6972 22.9239 23.2044 22.3163 24.9855 22.0873H23.4259C23.2555 22.1006 18.0751 22.5359 15.4347 24.5819L15.4366 24.5857H14.8479C14.8479 24.5857 14.9634 24.4627 15.0145 24.404C15.0562 24.3567 15.1451 24.2715 15.1735 24.245L15.1811 24.2394L15.183 24.2375C17.1438 22.7233 20.3256 22.0703 22.1028 21.8129H20.8688C20.6284 21.8413 14.9161 22.5435 12.077 24.5819L12.0789 24.5857H12.0732L12.0675 24.5895L12.0637 24.5857H11.4524C11.4524 24.5857 11.5943 24.4381 11.6454 24.387C11.6997 24.3353 11.7571 24.2867 11.8177 24.2413L11.8252 24.2356C14.07 22.623 17.9161 21.8375 19.7748 21.5365H18.5899C18.4271 21.5479 11.9653 21.9984 8.84227 24.5876L8.84038 24.5857H8.25174C8.25174 24.5857 8.37666 24.4608 8.42019 24.404C8.4694 24.3485 8.52177 24.2974 8.57729 24.2507C11.5697 21.7769 17.265 21.211 18.3836 21.122C16.436 21.1447 9.64669 21.4608 5.59811 24.5895L5.59432 24.5838H5C5.06309 24.5271 5.12303 24.4671 5.17981 24.404C5.22776 24.3485 5.2795 24.2974 5.33502 24.2507C10.1956 20.4936 18.8454 20.6943 18.9268 20.6943H35L34.3129 22.6457ZM34.9924 20.6961V20.6999L34.9943 20.6961H34.9924Z" fill="#007CC5"/>
</g>
<circle cx="20" cy="20" r="19.5" stroke="black" stroke-opacity="0.05"/>
<defs>
<clipPath id="clip0_9_406479">
<rect width="30" height="8.59306" fill="white" transform="translate(5 16)"/>
</clipPath>
</defs>
</svg>
