<svg width="40" height="40" viewBox="0 0 40 40" fill="none" xmlns="http://www.w3.org/2000/svg">
<circle cx="20" cy="20" r="20" fill="#0E188A"/>
<g clip-path="url(#clip0_9_411363)">
<path d="M29.7142 27.2861H10.2856V28.5004H29.7142V27.2861Z" fill="#0072BC"/>
<path d="M16.3571 18.7861V23.0427C16.3571 23.5843 15.8204 24.2503 15.1185 24.2503H12.1302C11.4277 24.2503 10.8916 23.5424 10.8916 23.0427V13.8822C10.8916 13.3412 11.4277 12.6752 12.1302 12.7164H15.1179C15.8204 12.7164 16.3571 13.3825 16.3571 13.8822V18.1789H13.9285V13.6181C13.9285 13.4517 13.7488 13.3218 13.625 13.3218C13.4598 13.3218 13.3214 13.4517 13.3214 13.6181V23.3141C13.3214 23.5631 13.4598 23.6432 13.625 23.6432C13.7901 23.6432 13.9285 23.5637 13.9285 23.3135V18.7861H16.3571ZM19.3946 18.1789V13.3218H19.7638C19.8864 13.3218 20 13.4207 20 13.5865V17.7594C20 17.9251 19.9326 18.1789 19.6867 18.1789H19.3946ZM19.3946 18.7861H19.7225C19.9277 18.7861 20 18.9579 20 19.2062V24.2503H22.4285V19.7435C22.4285 19.5371 22.3964 18.627 21.2895 18.4618C22.1092 18.4618 22.4285 17.5111 22.4285 17.0976V13.9137C22.4285 13.3764 21.9046 12.6733 21.2082 12.7146H16.9667V24.2503H19.3952L19.3946 18.7861ZM26.069 12.7146V18.1789H25.4642V12.7146H23.0381V24.2503H25.4642V18.7861H26.069V24.2503H28.5V12.7146H26.069Z" fill="white"/>
</g>
<circle cx="20" cy="20" r="19.5" stroke="black" stroke-opacity="0.05"/>
<defs>
<clipPath id="clip0_9_411363">
<rect width="20" height="17" fill="white" transform="translate(10 12)"/>
</clipPath>
</defs>
</svg>
