<svg width="40" height="40" viewBox="0 0 40 40" fill="none" xmlns="http://www.w3.org/2000/svg">
<circle cx="20" cy="20" r="20" fill="#F6F8FA"/>
<g clip-path="url(#clip0_9_397582)">
<path fill-rule="evenodd" clip-rule="evenodd" d="M15.2099 15.2099H16.3457C16.5926 15.2099 16.8395 15.0123 16.8395 14.7654V12.4444C16.8395 12.1975 16.642 12 16.3457 12H13.5309C12.6914 12 12 12.6914 12 13.5309V26.4691C12 27.3086 12.6914 28 13.5309 28H26.4691C27.3086 28 28 27.3086 28 26.4691V23.7037C28 23.4568 27.8025 23.2099 27.5556 23.2099H25.284C25.037 23.2099 24.8395 23.4074 24.7901 23.7037V24.8395H21.5802V18.4198H15.2099V15.2099ZM18.4198 24.7901V21.5802H15.2099V24.7901H18.4198Z" fill="#2C2A25"/>
<path d="M18.4199 12.2469V14.963C18.4199 14.963 18.5187 15.2099 18.6668 15.2099H24.8397V21.3827C24.8397 21.3827 24.9384 21.6296 25.0866 21.6296H27.8026C27.8026 21.6296 28.0496 21.5309 28.0496 21.3827V12.2469C28.0496 12.2469 27.9014 12 27.8026 12H18.6668C18.6668 12 18.4199 12.0988 18.4199 12.2469Z" fill="#00B337"/>
</g>
<circle cx="20" cy="20" r="19.5" stroke="black" stroke-opacity="0.05"/>
<defs>
<clipPath id="clip0_9_397582">
<rect width="16" height="16" fill="white" transform="translate(12 12)"/>
</clipPath>
</defs>
</svg>
