<svg width="40" height="40" viewBox="0 0 40 40" fill="none" xmlns="http://www.w3.org/2000/svg">
<circle cx="20" cy="20" r="20" fill="#75B709"/>
<path d="M7.13636 18.5909C7.56818 18.5909 7.97727 18.8182 8.20455 19.1364L8.22727 19.1591C8.23864 19.1705 8.25 19.1818 8.25 19.1932C8.39773 19.3864 8.63636 19.5 8.89773 19.5C9.35227 19.5 9.72727 19.125 9.72727 18.6705C9.72727 18.4545 9.64773 18.2614 9.51136 18.1136C8.94318 17.4091 8.26136 17 7.125 17C5.34091 17 4 18.2386 4 19.9773C4 21.7386 5.34091 22.9773 7.13636 22.9773C8.28409 22.9773 8.95455 22.5795 9.52273 21.9432C9.64773 21.7955 9.72727 21.6136 9.72727 21.4091C9.72727 20.9545 9.36364 20.5909 8.90909 20.5909C8.65909 20.5909 8.44318 20.7045 8.29545 20.875C8.02273 21.1477 7.71591 21.4091 7.14773 21.4091C6.32955 21.4091 5.86364 20.8182 5.86364 19.9773C5.85227 19.1705 6.30682 18.5909 7.13636 18.5909ZM14.875 17.375C14.5909 17.2273 14.3977 17.1932 13.9773 17.2273C13.2273 17.2955 12.6477 17.8182 12.5455 17.9432C12.5114 17.4659 12.1136 17.0795 11.625 17.0795C11.1136 17.0795 10.7045 17.4886 10.6932 17.9886V22.0455C10.7045 22.5455 11.1136 22.9432 11.625 22.9432C12.1364 22.9432 12.5455 22.5341 12.5568 22.0341V20.9318C12.5568 19.4318 13.4318 19.0455 13.9205 19.0341C14.0455 19.0341 14.375 19.1591 14.6364 19.1136C15.1477 19.0227 15.4773 18.5341 15.3864 18.0341C15.3182 17.7386 15.125 17.5 14.875 17.375ZM18.9432 21.4545C19.75 21.4545 20.2273 20.8636 20.2386 20.0114C20.2386 19.1477 19.75 18.5682 18.9432 18.5682C18.1364 18.5682 17.6364 19.1477 17.6364 20.0114C17.6364 20.8523 18.1364 21.4545 18.9432 21.4545ZM18.9432 17C20.7159 17 22.0909 18.25 22.0909 20C22.0909 21.7386 20.7159 22.9773 18.9432 22.9773C17.1705 22.9773 15.7841 21.7386 15.7841 20C15.7841 18.25 17.1705 17 18.9432 17ZM26.1818 18.5909C26.6136 18.5909 27.0227 18.8182 27.25 19.1364L27.2727 19.1591C27.2841 19.1705 27.2955 19.1818 27.2955 19.1932C27.4432 19.3864 27.6818 19.5 27.9432 19.5C28.3977 19.5 28.7727 19.125 28.7727 18.6705C28.7727 18.4545 28.6932 18.2614 28.5568 18.1136C27.9886 17.4091 27.3068 17 26.1818 17C24.3977 17 23.0455 18.2386 23.0455 19.9773C23.0455 21.7386 24.3864 22.9773 26.1818 22.9773C27.3295 22.9773 28 22.5795 28.5682 21.9432C28.6932 21.7955 28.7727 21.6136 28.7727 21.4091C28.7727 20.9545 28.4091 20.5909 27.9545 20.5909C27.7045 20.5909 27.4886 20.7045 27.3409 20.875C27.0682 21.1477 26.7614 21.4091 26.1818 21.4091C25.3636 21.4091 24.8977 20.8182 24.8977 19.9773C24.9091 19.1705 25.3636 18.5909 26.1818 18.5909ZM32.5568 19.2727C33.3864 19.4659 34.4318 19.8523 34.4318 21.0795C34.4318 22.125 33.8864 22.9886 32.0795 22.9886C30.9773 22.9886 30.2614 22.6477 29.7614 22.2045L29.7273 22.1705C29.7045 22.1591 29.6932 22.1364 29.6818 22.125C29.6705 22.1136 29.6591 22.0909 29.6477 22.0795C29.625 22.0568 29.6136 22.0341 29.6023 22.0114C29.6023 22.0114 29.5909 22 29.5909 21.9886C29.4432 21.7159 29.4773 21.375 29.7045 21.1477C29.9773 20.8636 30.4318 20.8523 30.7159 21.1136L30.7045 21.1023C31.0682 21.3864 31.5 21.5568 31.9659 21.5568C32.5568 21.5568 32.75 21.4432 32.75 21.2045C32.75 20.8864 32.3864 20.8864 31.4545 20.6477C30.6705 20.4432 29.7955 20.0114 29.7955 18.8182C29.7955 17.5227 30.7841 17 32.0114 17C32.9545 17 33.625 17.3068 34.0909 17.7841C34.2386 17.9091 34.3295 18.1023 34.3295 18.3068C34.3295 18.7045 34.0114 19.0227 33.6136 19.0227C33.4205 19.0227 33.25 18.9545 33.125 18.8295C32.8523 18.6023 32.4545 18.3977 32.0227 18.3977C31.6136 18.3977 31.4091 18.5114 31.4091 18.7386C31.4091 19.0568 31.7727 19.1023 32.5568 19.2727ZM35.0455 17.2841V17.1364H34.4432V17.2841H34.6591V17.875H34.8409V17.2841H35.0455ZM35.8295 17.875V17.3523L35.6364 17.875H35.5114L35.3182 17.3523V17.875H35.1477V17.1364H35.3977L35.5795 17.625L35.7614 17.1364H36V17.875H35.8295Z" fill="white"/>
<circle cx="20" cy="20" r="19.5" stroke="black" stroke-opacity="0.05"/>
</svg>
