<svg width="40" height="40" viewBox="0 0 40 40" fill="none" xmlns="http://www.w3.org/2000/svg">
<circle cx="20" cy="20" r="20" fill="#FF3C1A"/>
<g clip-path="url(#clip0_9_386697)">
<path d="M31.7056 26.3863C31.1451 26.3313 30.1521 26.192 28.9096 26.8189C27.6671 27.4458 27.1795 27.4717 26.5688 27.4069C26.7486 27.7358 27.1115 28.1845 28.2536 28.2655C29.3956 28.3465 29.9415 28.3805 29.3405 29.8028C29.3551 29.3735 29.2531 28.5425 28.1207 28.6883C26.9868 28.8341 26.7227 29.8546 27.9377 30.3633C27.5424 30.4427 26.7049 30.4913 26.1071 28.9248C25.6924 29.1046 25.0526 29.4659 23.8927 28.5716C24.1627 28.6688 24.464 28.7207 24.7966 28.7272C23.768 28.2363 22.7846 27.3227 22.1561 26.4592C22.6551 26.8318 23.2058 27.2012 23.7631 27.2708C23.1038 26.469 21.5827 24.862 19.7197 23.2129C20.9169 23.9953 22.3618 25.2297 24.727 24.9527C27.0921 24.6741 28.6812 24.133 31.7056 26.3863Z" fill="white"/>
<path d="M21.5826 25.8288C20.1004 25.1857 19.7829 25.0577 17.8762 24.5734C15.9696 24.089 14.0937 23.0798 12.8398 21.5068C13.7243 22.1548 15.5289 23.4572 17.3838 23.3163C17.1019 22.9032 16.5819 22.5825 15.9615 22.2585C16.6629 22.427 18.7834 22.9696 21.5826 25.8288Z" fill="white"/>
<path d="M13.0958 16.3454C8.19389 13.2821 7.22031 10.9218 7 10.0146C10.0795 13.3825 12.4187 14.7011 14.0111 15.7541C17.2834 17.8406 17.9735 19.2434 18.3558 20.3401C16.786 18.1241 14.7077 17.4453 13.0958 16.3454Z" fill="white"/>
<path d="M13.705 18.7739C9.21936 16.4023 8.17774 14.5037 7.97363 13.6387C10.2189 16.0329 12.7152 17.2933 14.178 18.1113C17.3466 19.8106 18.1549 21.0029 18.5567 21.9311C17.0469 20.099 14.9475 19.4575 13.705 18.7739Z" fill="white"/>
<path fill-rule="evenodd" clip-rule="evenodd" d="M28.2229 21.8452C27.8066 22.835 28.2861 22.9451 28.4805 23.0196C29.467 23.3971 32.0767 23.8814 31.9131 24.9846C32.2177 25.2892 33.3451 26.5025 32.8737 27.3449C32.4688 26.6839 30.6075 24.9684 28.3557 24.6153C26.104 24.2621 24.0516 25.0235 22.3555 23.8976C20.9154 22.8609 20.6837 22.4689 19.2339 20.094C18.5827 19.0281 18.4563 18.0578 16.2451 16.2532C14.0339 14.4485 11.9652 13.4863 11.0969 10.7988C12.9971 13.1348 15.4546 15.3654 21.6314 17.1328C29.3682 19.2905 28.7834 20.478 28.2229 21.8452ZM31.6718 25.2325C31.6588 24.8048 31.7171 24.557 30.5459 24.3788C30.9638 24.585 31.3391 24.8696 31.6718 25.2325Z" fill="white"/>
</g>
<circle cx="20" cy="20" r="19.5" stroke="black" stroke-opacity="0.05"/>
<defs>
<clipPath id="clip0_9_386697">
<rect width="26" height="20.395" fill="white" transform="translate(7 10)"/>
</clipPath>
</defs>
</svg>
