<svg width="40" height="40" viewBox="0 0 40 40" fill="none" xmlns="http://www.w3.org/2000/svg">
<circle cx="20" cy="20" r="20" fill="#F6F8FA"/>
<g clip-path="url(#clip0_9_398214)">
<path d="M17.6405 18.7082C18.0648 18.8111 18.4762 18.9397 18.8812 19.0939C19.0998 19.1904 19.3248 19.2868 19.5434 19.3704C20.6041 19.8011 21.6905 20.1161 22.8348 20.1932C23.7027 20.2704 24.5705 20.1739 25.4062 19.9168C25.7405 19.8139 26.0362 19.6147 26.3705 19.4925C26.7475 19.3327 27.1594 19.2729 27.5662 19.3189C28.0612 19.3897 28.4341 19.6661 28.7555 20.0389C28.8327 20.2254 28.9741 20.3732 29.1541 20.4632L29.4691 20.6625C29.7777 20.9197 30.1762 21.0418 30.5748 21.0161C30.8512 20.9968 31.1277 21.0997 31.3848 21.2089C32.2012 21.5304 32.9598 21.9804 33.7312 22.3982C33.8431 22.4588 33.9387 22.5453 34.0103 22.6504C34.0819 22.7555 34.1273 22.8763 34.1427 23.0025C33.9627 23.0989 33.7634 23.1504 33.5641 23.1504C33.4939 23.1507 33.4251 23.1309 33.3658 23.0933C33.3066 23.0557 33.2594 23.0019 33.2298 22.9382C33.082 22.6361 32.8248 22.4882 32.5227 22.3725C31.8927 22.1475 31.2498 21.9675 30.5941 21.8004C30.4468 21.7715 30.2948 21.7781 30.1505 21.8197C29.8098 21.8968 29.4755 21.9932 29.1348 22.0511C28.7592 22.1308 28.369 22.1051 28.0071 21.9769C27.6452 21.8487 27.3258 21.623 27.0841 21.3247C27.064 21.302 27.0425 21.2805 27.0198 21.2604C26.3384 21.3761 25.657 21.4854 24.9691 21.5625C24.2298 21.6589 23.4905 21.6911 22.7384 21.6654C22.0955 21.6332 21.4977 21.4082 20.932 21.1061C20.523 20.8804 20.126 20.6336 19.7427 20.3668C19.1333 19.9589 18.4032 19.7708 17.6727 19.8332C17.5652 19.8472 17.4655 19.897 17.3898 19.9747C16.8305 20.4375 16.2584 20.8682 15.6734 21.2925C14.7185 22.0151 13.6205 22.5257 12.4527 22.7904C12.0927 22.8611 11.7391 22.9832 11.4112 23.1568C10.9741 23.3818 10.6077 23.7225 10.3505 24.1404C10.2499 24.284 10.1969 24.4556 10.1992 24.631C10.2016 24.8064 10.259 24.9766 10.3634 25.1175C10.4607 25.2652 10.5508 25.4175 10.6334 25.5739C10.6334 25.6189 10.6334 25.6704 10.6205 25.7154C10.492 25.8311 10.3377 25.7861 10.2091 25.7154C9.97124 25.5739 9.7591 25.3939 9.59196 25.1754C9.53388 25.1008 9.49333 25.0141 9.4733 24.9218C9.45327 24.8294 9.45427 24.7337 9.47624 24.6418C9.62726 23.838 9.97637 23.0845 10.492 22.4497C10.6848 22.2439 10.9162 22.0768 11.1734 21.9547C11.6491 21.7039 12.1377 21.4854 12.6327 21.2989L12.8962 21.1832V21.1704C13.1277 21.1189 13.3334 21.0032 13.5005 20.8361L15.172 19.4218C15.5002 19.1224 15.8932 18.9028 16.3203 18.7801C16.7473 18.6575 17.197 18.6351 17.6341 18.7147L17.6405 18.7082Z" fill="#D32C2A"/>
<path d="M32.7284 17.1453C32.7337 17.2155 32.7211 17.2859 32.6919 17.35C32.6627 17.414 32.6178 17.4697 32.5613 17.5117C32.5058 17.5531 32.4406 17.5796 32.3719 17.5886C32.3033 17.5976 32.2335 17.5888 32.1691 17.5632C32.0406 17.5053 31.912 17.4346 31.7963 17.351C31.4035 17.0994 30.9772 16.9047 30.5299 16.7724C29.2634 16.3482 27.8941 16.316 26.6084 16.676C26.062 16.8303 25.5541 17.0939 25.027 17.2996C24.1399 17.6467 23.2399 17.9167 22.2884 17.9682C21.0991 18.026 19.9099 17.7753 18.8491 17.2417C18.618 17.1229 18.3744 17.0302 18.1227 16.9653C16.8049 16.6632 15.6284 17.0167 14.542 17.7496C14.0406 18.0903 13.5713 18.4696 13.0763 18.8232C12.5813 19.1832 12.0799 19.5303 11.5849 19.8839C10.7347 20.436 9.82992 20.8992 8.88486 21.266C7.99129 21.5874 7.03986 21.7096 6.10129 21.6067C5.72843 21.5682 5.362 21.5617 5.00843 21.4139C4.78343 21.3303 4.60986 21.1824 4.57129 20.9189C4.71915 20.6424 4.81557 20.5974 5.20129 20.6424C5.74772 20.7067 6.29415 20.7324 6.84057 20.771C8.152 20.8353 9.322 20.4496 10.402 19.7167C11.1991 19.1832 11.9449 18.5724 12.7099 17.9874C13.147 17.6532 13.597 17.3446 14.0727 17.0617C14.8079 16.6145 15.6432 16.3582 16.5027 16.316C17.1199 16.2774 17.7434 16.2903 18.367 16.3674L18.8363 16.4124C19.5177 16.4767 20.1734 16.6953 20.8484 16.7917C21.5813 16.8882 22.3077 17.0039 23.047 17.0232C23.4199 17.0424 23.7927 16.9589 24.1141 16.7789C24.5256 16.5474 24.9306 16.316 25.3356 16.0974C25.8884 15.7953 26.4606 15.5832 27.097 15.596C27.367 15.596 27.6113 15.4739 27.8556 15.3646C28.0999 15.2617 28.3313 15.146 28.5563 15.0174C28.9959 14.7712 29.4925 14.6448 29.9963 14.651H30.3499C30.3113 14.4903 30.1634 14.381 30.2149 14.2139C31.1081 14.2524 31.9603 14.6001 32.6256 15.1974C32.6127 15.4932 32.8056 15.7117 32.9727 15.9303C33.2427 16.2903 33.262 16.6246 33.037 16.9717C33.0123 17.0234 32.9711 17.0654 32.9199 17.0911C32.8686 17.1167 32.8103 17.1245 32.7541 17.1132C32.7349 17.1003 32.7156 17.0939 32.7091 17.1132C32.7091 17.126 32.722 17.1389 32.7284 17.1453Z" fill="#D32C2A"/>
<path d="M11.5781 19.8841L13.076 18.8234C13.571 18.4698 14.0403 18.0905 14.5417 17.7498C15.6281 17.0169 16.8046 16.6569 18.1224 16.9655C18.3731 17.0298 18.6174 17.1262 18.8488 17.2419C19.916 17.7755 21.0988 18.0262 22.2881 17.9684C23.2396 17.9169 24.1396 17.6469 25.0267 17.2998C25.5538 17.0941 26.0617 16.8305 26.6081 16.6762C27.9361 16.3047 29.3466 16.3541 30.6453 16.8176C30.2338 16.9141 29.8931 17.1455 29.5717 17.3962C29.3017 17.6148 29.0188 17.8076 28.7231 17.9876C28.0738 18.3605 27.3217 18.5019 26.5824 18.3991C25.2841 18.2459 23.9708 18.274 22.6803 18.4826C21.9088 18.5919 21.1503 18.7269 20.3724 18.7141C20.1474 18.7141 19.9224 18.6819 19.7038 18.6305C19.5078 18.5905 19.3224 18.5098 19.1596 18.3935C18.9968 18.2772 18.8602 18.128 18.7588 17.9555C18.6791 17.8211 18.5664 17.7093 18.4314 17.6305C18.2965 17.5518 18.1436 17.5088 17.9874 17.5055C17.5374 17.4798 17.0874 17.5376 16.6567 17.6598C15.5294 17.9855 14.4359 18.4182 13.391 18.9519C12.7803 19.2412 12.1953 19.5819 11.5846 19.8841H11.5781Z" fill="#989795"/>
<path d="M28.7562 20.0384C28.4347 19.6656 28.0619 19.3956 27.5669 19.3184C27.1579 19.2713 26.7437 19.3311 26.3647 19.492C26.0433 19.6206 25.7412 19.8134 25.4069 19.9163C24.5712 20.1734 23.7033 20.2699 22.8355 20.1927C21.6912 20.1156 20.6048 19.807 19.544 19.3699L18.8819 19.0999C19.6019 19.267 20.3155 19.4213 21.0483 19.5306C21.9612 19.6656 22.8869 19.7106 23.8126 19.6591C24.1019 19.6463 24.3912 19.5177 24.6805 19.4406C25.5547 19.2027 26.4483 19.0356 27.3547 18.9456C27.7083 18.9006 28.0619 18.9134 28.4155 18.9841C28.9297 19.1127 29.0712 19.4149 28.8397 19.897L28.7562 20.0384ZM17.6412 18.7077C17.2011 18.6277 16.7484 18.6512 16.3188 18.7761C15.8893 18.9011 15.4947 19.1241 15.1662 19.4277C14.6069 19.8906 14.0605 20.3663 13.5012 20.842C13.334 21.0027 13.1283 21.1184 12.9033 21.1763C13.3483 20.1988 14.0998 19.3931 15.044 18.8813C15.4409 18.6729 15.877 18.5497 16.3243 18.5198C16.7715 18.49 17.2201 18.554 17.6412 18.7077Z" fill="#E4E3E0"/>
</g>
<circle cx="20" cy="20" r="19.5" stroke="black" stroke-opacity="0.05"/>
<defs>
<clipPath id="clip0_9_398214">
<rect width="31" height="12" fill="white" transform="translate(4 14)"/>
</clipPath>
</defs>
</svg>
