<svg width="40" height="40" viewBox="0 0 40 40" fill="none" xmlns="http://www.w3.org/2000/svg">
<circle cx="20" cy="20" r="20" fill="#F6F8FA"/>
<g clip-path="url(#clip0_9_408788)">
<path d="M18.6196 26.3486C19.7787 26.7712 20.9986 27.0032 22.2319 27.0359C23.4654 27.0686 24.6959 26.9016 25.8758 26.541C27.0556 26.1805 28.1691 25.6314 29.1732 24.9151C30.177 24.1986 31.0582 23.3246 31.7821 22.3267C32.0303 21.062 32.0622 19.7642 31.8763 18.489C31.6905 17.2136 31.2895 15.9789 30.6904 14.8373C30.0914 13.6959 29.3029 12.6641 28.3586 11.7856C27.4143 10.9074 26.3278 10.1953 25.1453 9.67969L23.2071 14.1322C24.7391 14.8034 25.9552 16.0356 26.6055 17.5749C27.2557 19.1145 27.2905 20.8443 26.7031 22.4086C26.1155 23.973 24.9501 25.2531 23.4465 25.9854C21.9429 26.7179 20.2156 26.8469 18.6196 26.3462V26.3486Z" fill="url(#paint0_linear_9_408788)"/>
<path d="M31.7821 22.3271C31.0481 23.3391 30.1525 24.2237 29.131 24.9456C28.1096 25.6674 26.9765 26.2167 25.7768 26.5714C24.577 26.9261 23.3271 27.0815 22.0769 27.0313C20.8266 26.981 19.5933 26.726 18.426 26.2761C18.2827 26.2251 18.1352 26.1754 17.9921 26.1139L15.104 32.7478L18.6708 31.3445C20.1228 31.5946 21.6096 31.5608 23.0486 31.2452C24.4878 30.9294 25.8519 30.3379 27.0653 29.5034C28.2789 28.6688 29.3189 27.6068 30.1274 26.3766C30.9361 25.1465 31.498 23.7712 31.7821 22.3271Z" fill="#00999E"/>
<path d="M21.3778 13.3994C20.2188 12.9768 18.9989 12.7447 17.7655 12.7121C16.5322 12.6792 15.3016 12.8464 14.1219 13.2069C12.9419 13.5675 11.8285 14.1166 10.8245 14.8329C9.82047 15.5493 8.93944 16.4234 8.21539 17.4213C7.96746 18.6858 7.93575 19.9833 8.12169 21.2585C8.3078 22.5336 8.70883 23.7681 9.30778 24.9095C9.90689 26.0508 10.6952 27.0824 11.6393 27.9606C12.5835 28.8388 13.6699 29.5507 14.8522 30.0663L16.7903 25.614C15.2574 24.9433 14.0401 23.7113 13.3891 22.1714C12.738 20.6314 12.7029 18.9009 13.2907 17.3358C13.8785 15.7707 15.0446 14.4903 16.549 13.758C18.0533 13.0257 19.7815 12.8974 21.3778 13.3994Z" fill="url(#paint1_linear_9_408788)"/>
<path d="M8.21582 17.4207C8.9499 16.4087 9.84565 15.5241 10.867 14.8022C11.8883 14.0804 13.0215 13.5311 14.2213 13.1764C15.421 12.8217 16.671 12.6663 17.9212 12.7165C19.1713 12.7668 20.4047 13.0218 21.5722 13.4717C21.7152 13.5227 21.8628 13.5724 22.006 13.6339L24.8941 7L21.3271 8.40326C20.0786 8.19078 18.8033 8.18738 17.5536 8.39291C16.3038 8.5986 15.0972 9.01047 13.9828 9.61168C12.8684 10.2129 11.8619 10.9952 11.0045 11.9264C10.1471 12.8576 9.45094 13.9249 8.9444 15.0843C8.86283 15.2718 8.78645 15.4613 8.71524 15.6529C8.64403 15.8444 8.57784 16.0378 8.51716 16.233C8.45631 16.428 8.40063 16.6248 8.35047 16.8228C8.3003 17.0208 8.25531 17.2201 8.21582 17.4207Z" fill="#00999E"/>
</g>
<circle cx="20" cy="20" r="19.5" stroke="black" stroke-opacity="0.05"/>
<defs>
<linearGradient id="paint0_linear_9_408788" x1="30.2242" y1="11.8671" x2="20.5915" y2="34.2792" gradientUnits="userSpaceOnUse">
<stop offset="0.1" stop-color="#00999E"/>
<stop offset="0.75" stop-color="#003946"/>
</linearGradient>
<linearGradient id="paint1_linear_9_408788" x1="19.6067" y1="14.8952" x2="9.97424" y2="37.3048" gradientUnits="userSpaceOnUse">
<stop offset="0.1" stop-color="#00999E"/>
<stop offset="0.75" stop-color="#003946"/>
</linearGradient>
<clipPath id="clip0_9_408788">
<rect width="24" height="25.7478" fill="white" transform="translate(8 7)"/>
</clipPath>
</defs>
</svg>
