<svg width="40" height="40" viewBox="0 0 40 40" fill="none" xmlns="http://www.w3.org/2000/svg">
<circle cx="20" cy="20" r="20" fill="#F3F5F7"/>
<g clip-path="url(#clip0_9_386713)">
<mask id="mask0_9_386713" style="mask-type:luminance" maskUnits="userSpaceOnUse" x="8" y="10" width="24" height="21">
<path d="M8 10H31.9893V30.2883H8V10Z" fill="white"/>
</mask>
<g mask="url(#mask0_9_386713)">
<mask id="mask1_9_386713" style="mask-type:luminance" maskUnits="userSpaceOnUse" x="8" y="20" width="15" height="11">
<path d="M18.222 20.1445L22.3199 25.9083L15.0449 30.2887L8 20.1445H18.222Z" fill="white"/>
</mask>
<g mask="url(#mask1_9_386713)">
<path d="M8 20.1445H22.3198V30.2887H8V20.1445Z" fill="url(#paint0_linear_9_386713)"/>
</g>
<mask id="mask2_9_386713" style="mask-type:luminance" maskUnits="userSpaceOnUse" x="15" y="20" width="17" height="11">
<path d="M31.9893 20.1445L25.0826 30.2887H15.0449L31.9893 20.1445Z" fill="white"/>
</mask>
<g mask="url(#mask2_9_386713)">
<path d="M15.0444 20.1445H31.9891V30.2887H15.0444V20.1445Z" fill="url(#paint1_linear_9_386713)"/>
</g>
<mask id="mask3_9_386713" style="mask-type:luminance" maskUnits="userSpaceOnUse" x="8" y="10" width="15" height="11">
<path d="M22.3199 14.3804L18.222 20.1442H8L15.0449 10L22.3199 14.3804Z" fill="white"/>
</mask>
<g mask="url(#mask3_9_386713)">
<path d="M8 10H22.3198V20.1442H8V10Z" fill="url(#paint2_linear_9_386713)"/>
</g>
<mask id="mask4_9_386713" style="mask-type:luminance" maskUnits="userSpaceOnUse" x="15" y="10" width="17" height="11">
<path d="M25.0826 10L31.9893 20.1442L15.0449 10H25.0826Z" fill="white"/>
</mask>
<g mask="url(#mask4_9_386713)">
<path d="M15.0444 10H31.9891V20.1442H15.0444V10Z" fill="url(#paint3_linear_9_386713)"/>
</g>
</g>
</g>
<circle cx="20" cy="20" r="19.5" stroke="black" stroke-opacity="0.05"/>
<defs>
<linearGradient id="paint0_linear_9_386713" x1="8.00315" y1="25.2056" x2="22.3261" y2="25.2056" gradientUnits="userSpaceOnUse">
<stop stop-color="#3D54CE"/>
<stop offset="1" stop-color="#35CACF"/>
</linearGradient>
<linearGradient id="paint1_linear_9_386713" x1="15.0413" y1="25.2056" x2="32.008" y2="25.2056" gradientUnits="userSpaceOnUse">
<stop stop-color="#13457D"/>
<stop offset="1" stop-color="#279698"/>
</linearGradient>
<linearGradient id="paint2_linear_9_386713" x1="7.99843" y1="15.0642" x2="22.3324" y2="15.0642" gradientUnits="userSpaceOnUse">
<stop stop-color="#090086"/>
<stop offset="1" stop-color="#2F96A9"/>
</linearGradient>
<linearGradient id="paint3_linear_9_386713" x1="15.0413" y1="15.0642" x2="32.008" y2="15.0642" gradientUnits="userSpaceOnUse">
<stop stop-color="#3B62CA"/>
<stop offset="1" stop-color="#93DFE3"/>
</linearGradient>
<clipPath id="clip0_9_386713">
<rect width="24" height="20.2883" fill="white" transform="translate(8 10)"/>
</clipPath>
</defs>
</svg>
