<svg width="40" height="40" viewBox="0 0 40 40" fill="none" xmlns="http://www.w3.org/2000/svg">
<circle cx="20" cy="20" r="20" fill="#CF1E2E"/>
<g clip-path="url(#clip0_9_405218)">
<path fill-rule="evenodd" clip-rule="evenodd" d="M9.71387 12.9282L21.671 9.71387L30.2853 13.9824V27.071L18.5789 30.2853L11.6424 27.071L9.71387 26.2932V12.9282ZM11.6424 24.5767L17.4282 22.9953V17.621L11.6424 14.9017V24.5767ZM17.4282 24.9624L13.571 25.9846L17.4282 27.7846V24.956V24.9624ZM19.3567 28.1639V24.4482L21.5939 23.8567L26.4282 26.2353L19.3567 28.1639ZM19.3567 22.4682V17.9424L20.6424 17.576V22.1146L19.3567 22.4682ZM22.571 22.2946L28.3567 25.2389V15.3839L22.571 17.0296V22.2946ZM26.4282 14.0146L22.571 15.0689V12.1182L26.4282 14.0146ZM13.571 13.7703L20.6424 11.8932V15.596L18.6496 16.1424L13.571 13.7639V13.7703Z" fill="#FEFDFF"/>
</g>
<circle cx="20" cy="20" r="19.5" stroke="black" stroke-opacity="0.05"/>
<defs>
<clipPath id="clip0_9_405218">
<rect width="22" height="22" fill="white" transform="translate(9 9)"/>
</clipPath>
</defs>
</svg>
