<svg width="40" height="40" viewBox="0 0 40 40" fill="none" xmlns="http://www.w3.org/2000/svg">
<circle cx="20" cy="20" r="20" fill="#818286"/>
<g clip-path="url(#clip0_9_396184)">
<path d="M12.5457 24.2556H17.4307C17.5907 24.2121 17.4976 23.9604 17.4307 23.8513C16.8064 22.657 15.53 20.1361 15.418 19.9671C15.3059 19.798 15.1448 19.7352 15.0791 19.7318H13.0334C12.9515 19.7318 12.8718 19.6317 12.8835 19.4321C12.893 19.2727 12.9866 19.1663 13.0334 19.1663H15.3048C15.3048 19.1663 15.5707 19.1663 15.6281 19.3145L18.0918 24.2556H21.9964L24.304 19.319C24.304 19.319 24.3625 19.1663 24.5242 19.1663H29.1144C29.7035 19.1494 30.8819 18.9221 30.8819 17.3042C30.8819 15.6864 29.7035 15.2329 29.1149 15.208H21.7745C21.7745 15.208 21.6408 15.208 21.6029 15.3313L20.2289 18.6009C20.0784 18.7247 19.934 18.6009 19.934 18.6009L18.2652 15.3313C18.1609 15.208 17.9703 15.208 17.9703 15.208H12.3985C10.9226 15.208 8.63778 16.8157 8.61827 19.8935C8.59876 22.9709 11.2286 24.0911 12.5457 24.2556Z" fill="white"/>
<path d="M28.9 19.7324H24.8098C24.6209 19.7324 24.4904 19.9021 24.4492 19.9863L22.5635 24.0023C22.4988 24.2116 22.7017 24.2562 22.7017 24.2562H28.9C29.5522 24.2608 30.8665 23.8191 30.9105 22.0152C30.9551 20.2114 29.5889 19.742 28.9 19.7324Z" fill="white"/>
</g>
<circle cx="20" cy="20" r="19.5" stroke="black" stroke-opacity="0.05"/>
<defs>
<clipPath id="clip0_9_396184">
<rect width="23" height="10" fill="white" transform="translate(8 15)"/>
</clipPath>
</defs>
</svg>
