<svg width="40" height="40" viewBox="0 0 40 40" fill="none" xmlns="http://www.w3.org/2000/svg">
<circle cx="20" cy="20" r="20" fill="#F6F8FA"/>
<circle cx="20" cy="20" r="19.5" stroke="black" stroke-opacity="0.05"/>
<g clip-path="url(#clip0_9_394522)">
<mask id="mask0_9_394522" style="mask-type:luminance" maskUnits="userSpaceOnUse" x="5" y="11" width="30" height="17">
<path d="M5 11H34.9893V27.0397H5V11Z" fill="white"/>
</mask>
<g mask="url(#mask0_9_394522)">
<path fill-rule="evenodd" clip-rule="evenodd" d="M34.3431 20.9893L34.551 21.5683L34.7589 20.9893H34.9882V21.7975H34.8405V21.1447L34.6171 21.7975H34.4869L34.2615 21.1447V21.7975H34.1119V20.9893H34.3431ZM33.2842 21.1233V20.9893H33.9739V21.1233H33.7097V21.7975H33.5504V21.1233H33.2842Z" fill="#2E383D"/>
</g>
<mask id="mask1_9_394522" style="mask-type:luminance" maskUnits="userSpaceOnUse" x="5" y="11" width="30" height="17">
<path d="M5 11H34.9893V27.0397H5V11Z" fill="white"/>
</mask>
<g mask="url(#mask1_9_394522)">
<path fill-rule="evenodd" clip-rule="evenodd" d="M11.4192 16.6444C11.5552 16.5823 11.7145 16.5823 11.8506 16.6444L16.5351 18.7681V17.4974C16.5351 17.3556 16.609 17.2234 16.7333 17.1477L21.3985 14.2662C21.5384 14.1807 21.7171 14.1807 21.857 14.2662L26.5241 17.1477C26.6465 17.2234 26.7223 17.3556 26.7223 17.4974V19.149L30.2178 17.5635C30.3169 17.5207 30.4296 17.5207 30.5267 17.5635L33.416 18.8731V17.9443C33.416 17.5596 33.1867 17.2098 32.8292 17.0486L19.6848 11.0933C19.4127 10.9689 19.098 10.9689 18.8259 11.0933L5.68151 17.0486C5.324 17.2098 5.09473 17.5596 5.09473 17.9443V19.5104L11.4192 16.6444Z" fill="#F6C03C"/>
</g>
<mask id="mask2_9_394522" style="mask-type:luminance" maskUnits="userSpaceOnUse" x="5" y="11" width="30" height="17">
<path d="M5 11H34.9893V27.0397H5V11Z" fill="white"/>
</mask>
<g mask="url(#mask2_9_394522)">
<path fill-rule="evenodd" clip-rule="evenodd" d="M7.8737 20.999H9.6671L9.99352 22.5165H7.8737C7.12953 22.5165 6.51749 23.1927 6.51749 24.0243C6.51749 24.8539 7.12953 25.5223 7.8737 25.5223H9.50583L9.99352 27.0398H7.8737C6.28821 27.0398 5 25.6856 5 24.0243C5 22.3533 6.28821 20.999 7.8737 20.999Z" fill="#2E383D"/>
</g>
<path fill-rule="evenodd" clip-rule="evenodd" d="M12.0419 25.0825C12.0419 25.2827 12.0613 25.5216 12.3392 25.5216H14.1539L14.6416 27.0391H12.3392C11.3463 27.0391 10.5244 26.2192 10.5244 25.2263V25.0825C10.5244 24.0799 11.3463 23.26 12.3392 23.26H14.0762C13.9519 22.8772 13.8178 22.5158 13.3593 22.5158H11.0393L10.7148 20.9983H13.3593C14.2764 20.9983 15.1352 21.7328 15.4305 22.5722L16.9966 27.0391H15.3936L14.6008 24.7775H12.3392C12.176 24.7775 12.0419 24.9213 12.0419 25.0825ZM20.4085 20.9886H22.0212L20.0257 26.2464C19.845 26.7146 19.4817 27.1441 18.9376 27.1441C18.3936 27.1441 18.0302 26.7438 17.8398 26.2658L15.7492 20.9886H17.3813L18.9182 24.8824L20.4085 20.9886ZM24.7861 20.9983H26.5814L26.9059 22.5158H24.7861C24.0419 22.5158 23.4318 23.1939 23.4318 24.0236C23.4318 24.8532 24.0419 25.5216 24.7861 25.5216H26.4182L26.9059 27.0391H24.7861C23.2025 27.0391 21.9143 25.6849 21.9143 24.0236C21.9143 22.3526 23.2025 20.9983 24.7861 20.9983ZM33.5121 24.0527C33.5121 25.7703 32.1578 27.2412 30.4091 27.2412C28.6624 27.2412 27.2984 25.7703 27.2984 24.0527C27.2984 22.3254 28.6624 20.8643 30.4091 20.8643C32.1578 20.8643 33.5121 22.3254 33.5121 24.0527ZM32.014 24.0527C32.014 23.1551 31.3262 22.3623 30.4091 22.3623C29.494 22.3623 28.7964 23.1551 28.7964 24.0527C28.7964 24.9407 29.4843 25.7315 30.4091 25.7315C31.3262 25.7315 32.014 24.9407 32.014 24.0527Z" fill="#2E383D"/>
</g>
<defs>
<clipPath id="clip0_9_394522">
<rect width="30" height="16.2435" fill="white" transform="translate(5 11)"/>
</clipPath>
</defs>
</svg>
