<svg width="40" height="40" viewBox="0 0 40 40" fill="none" xmlns="http://www.w3.org/2000/svg">
<circle cx="20" cy="20" r="20" fill="#3D575F"/>
<g clip-path="url(#clip0_9_411714)">
<path d="M16.5355 22.6406L17.2896 19.5337C17.359 19.2457 17.4284 18.923 17.4284 18.6678C17.4284 17.8449 17.0099 17.429 16.27 17.429H14.0303L12.9284 21.929H13.6999C13.9885 21.929 14.1653 21.6609 14.2399 21.3549L14.7239 19.4231C14.7239 19.4206 14.7252 19.418 14.7265 19.4154L14.9438 18.5154H15.6175C15.9794 18.5154 16.1877 18.7102 16.1877 19.0747C16.1877 19.1859 16.1646 19.3556 16.1337 19.4829L15.226 23.2147H15.9961C16.2841 23.2147 16.4609 22.9473 16.5355 22.6406ZM4.57129 19.9779C4.57129 18.5656 5.6725 17.429 6.97107 17.429C7.86722 17.429 8.36157 17.8642 8.6425 18.3804L7.76115 19.0413C7.55672 18.7115 7.33622 18.4775 6.88043 18.4775C6.27229 18.4775 5.71043 19.1788 5.71043 19.9779C5.71043 20.534 6.0595 20.8882 6.50757 20.8882C6.865 20.8882 7.12343 20.7352 7.42686 20.4613L8.01957 21.2598C7.59465 21.6628 7.16136 21.929 6.47029 21.929C5.36072 21.929 4.57129 21.1543 4.57129 19.9779ZM11.7121 19.3576C11.7374 19.2571 11.7501 19.1539 11.7501 19.0503C11.7501 18.6948 11.5527 18.4132 11.0815 18.4132C10.5569 18.4132 10.1314 18.8092 9.94236 19.3576H11.7121ZM10.7704 20.9454C11.0744 20.9454 11.3399 20.8483 11.6742 20.5983L12.2059 21.3568C11.8414 21.6783 11.3316 21.929 10.6411 21.929C9.47115 21.929 8.75757 21.2026 8.75757 20.0094C8.75693 18.7597 9.71415 17.429 11.1721 17.429C12.2284 17.429 12.8359 18.1548 12.8359 19.1146C12.8359 19.4212 12.76 19.67 12.6301 20.0004H9.84272C9.88065 20.5083 10.1622 20.9454 10.7704 20.9454ZM31.4472 21.1466L32.1158 20.4131C32.5414 20.8644 32.9971 20.9936 33.3616 20.9936C33.6651 20.9936 33.8483 20.8561 33.8483 20.6143C33.8483 20.453 33.6574 20.3405 33.3764 20.2113C32.7387 19.9207 32.1923 19.6385 32.1923 18.9448C32.1923 18.0821 32.8139 17.429 33.8251 17.429C34.4854 17.429 35.0935 17.7356 35.4284 18.05L34.8049 18.8246C34.4101 18.4936 34.0752 18.3643 33.7416 18.3643C33.4606 18.3643 33.2935 18.5013 33.2935 18.7276C33.2935 18.8973 33.4902 19.0181 33.8322 19.1795C34.3639 19.4289 34.9495 19.7272 34.9495 20.4048C34.9495 21.3485 34.2501 21.929 33.2774 21.929C32.6622 21.929 31.9255 21.6783 31.4472 21.1466ZM21.2605 19.4611C21.2605 18.8323 20.9037 18.4775 20.3798 18.4775C19.6726 18.4775 19.2098 19.2836 19.2098 19.8969C19.2098 20.5263 19.5666 20.8805 20.0905 20.8805C20.7976 20.8805 21.2605 20.0737 21.2605 19.4611ZM18.0784 19.9291C18.0784 18.6388 19.1262 17.429 20.4325 17.429C21.6404 17.429 22.3926 18.2756 22.3926 19.4289C22.3926 20.7191 21.3441 21.929 20.0378 21.929C18.8299 21.929 18.0777 21.0823 18.0777 19.9297L18.0784 19.9291ZM30.8693 17.429C30.6764 17.4856 30.5029 17.5993 30.4148 17.7697L30.0297 19.3511L29.6665 20.8548H29.0018C28.645 20.8548 28.4393 20.6619 28.4393 20.3C28.4393 20.1907 28.4624 20.0236 28.492 19.8969L29.0931 17.429H28.3101C28.1172 17.4856 27.9424 17.6 27.8556 17.771L27.3535 19.8474C27.2847 20.1322 27.2159 20.4517 27.2159 20.7037C27.2159 21.5176 27.6711 21.929 28.4007 21.929H30.5665L31.6529 17.429H30.8693ZM27.1304 16.7861H27.0244C26.9107 16.7897 26.8 16.8237 26.7039 16.8845C26.6078 16.9453 26.5298 17.0308 26.4779 17.132L24.4208 20.5256L24.2774 18.0088C24.2498 17.7196 24.0402 17.429 23.7554 17.429H23.0534L23.5478 21.929H24.5956L27.9256 16.7861H27.1304Z" fill="white"/>
</g>
<circle cx="20" cy="20" r="19.5" stroke="black" stroke-opacity="0.05"/>
<defs>
<clipPath id="clip0_9_411714">
<rect width="32" height="8" fill="white" transform="translate(4 16)"/>
</clipPath>
</defs>
</svg>
