<svg width="40" height="40" viewBox="0 0 40 40" fill="none" xmlns="http://www.w3.org/2000/svg">
<circle cx="20" cy="20" r="20" fill="#103657"/>
<path d="M19.9974 8.57129L19.9927 14.2926L15.0007 17.1486C14.9309 17.0842 14.8569 17.0297 14.7787 16.9853C13.244 16.108 11.7074 15.2337 10.1687 14.3626C10.1314 14.3413 10.0918 14.3322 10.05 14.3353C10.0291 14.3371 10.0218 14.3186 10.028 14.28L19.9974 8.57129Z" fill="#4C8ECB"/>
<path d="M19.9973 8.57129L29.9587 14.2653C29.9782 14.2764 29.9785 14.2875 29.9593 14.2986L24.9987 17.1433L19.998 14.2853C19.9962 14.288 19.9945 14.2904 19.9927 14.2926L19.9973 8.57129Z" fill="#2E73AF"/>
<path d="M10.028 14.2793C10.0218 14.318 10.0291 14.3364 10.05 14.3346C10.0918 14.3315 10.1313 14.3406 10.1687 14.362C11.7073 15.2331 13.244 16.1073 14.7787 16.9846C14.8569 17.0291 14.9309 17.0835 15.0007 17.148L15.004 22.8813L10.0753 25.706C10.0651 25.7122 10.0596 25.7211 10.0587 25.7326C10.0587 25.7393 10.0578 25.7462 10.056 25.7533C10.0289 25.752 10.0153 25.734 10.0153 25.6993C10.01 21.9264 10.0049 18.1533 10 14.38C10 14.3747 10.0009 14.3693 10.0027 14.364L10.028 14.2793Z" fill="#2E73AF"/>
<path d="M19.9925 14.2925C19.9943 14.2903 19.996 14.2878 19.9978 14.2852L19.9965 19.9985L15.0158 22.8645C15.0118 22.8703 15.0078 22.876 15.0038 22.8818L15.0005 17.1485L19.9925 14.2925Z" fill="#58595B"/>
<path d="M19.9979 14.2852L24.9986 17.1432V22.8018C25.0066 22.816 25.0024 22.8285 24.9859 22.8392C24.981 22.8427 24.9755 22.8443 24.9692 22.8438C24.9497 22.8438 24.9448 22.8389 24.9546 22.8292L19.9966 19.9985L19.9979 14.2852Z" fill="#808184"/>
<path d="M19.9968 19.998L24.9548 22.8287L20.0014 25.7074L15.0161 22.864L19.9968 19.998Z" fill="#103657"/>
<path d="M20.0148 31.4101L20.0015 25.7074L24.9548 22.8288C24.945 22.8386 24.9499 22.8434 24.9695 22.8434C24.9757 22.8439 24.9812 22.8423 24.9861 22.8388C25.0026 22.8281 25.0068 22.8157 24.9988 22.8014L29.9688 20.0181C29.972 20.0164 29.9757 20.0155 29.9793 20.0156C29.983 20.0157 29.9866 20.0168 29.9897 20.0186C29.9929 20.0205 29.9955 20.0232 29.9973 20.0263C29.9991 20.0295 30.0001 20.0331 30.0001 20.0368L30.0021 25.7501C30.0022 25.7633 29.9987 25.7761 29.9921 25.7874C29.9856 25.7986 29.9761 25.8079 29.9648 25.8141L20.0148 31.4101Z" fill="#2E73AF"/>
<path d="M15.0042 22.8826C15.0082 22.8768 15.0122 22.871 15.0162 22.8652L20.0015 25.7086L20.0148 31.4112L10.0562 25.7546C10.0579 25.7475 10.0588 25.7406 10.0588 25.7339C10.0597 25.7223 10.0653 25.7135 10.0755 25.7072L15.0042 22.8826Z" fill="#4C8ECB"/>
<circle cx="20" cy="20" r="19.5" stroke="black" stroke-opacity="0.05"/>
</svg>
