<svg width="40" height="40" viewBox="0 0 40 40" fill="none" xmlns="http://www.w3.org/2000/svg">
<circle cx="20" cy="20" r="20" fill="#F6F8FA"/>
<path d="M20.2507 11H13C13.5195 11.6575 14.1308 12.2371 14.8151 12.7208C16.8018 14.1831 18.8876 14.9782 21.464 16.409C23.2114 17.3976 24.6567 18.1951 25.7129 19.3988C26.2836 20.0484 26.6176 20.8722 26.6604 21.7359C26.6386 20.7691 26.6604 19.8338 26.6604 18.0477C26.6434 16.9311 27.2428 14.4078 20.2507 11Z" fill="url(#paint0_linear_9_386960)"/>
<path d="M25.7302 20.4795L25.4402 20.8009C25.4402 20.8009 23.9901 22.3695 21.1574 23.8898C20.4324 24.2765 19.0837 24.8952 19.0837 24.8952V29.5526C21.6843 28.245 23.7411 27.1598 25.0148 25.132C25.6708 24.1615 26.0348 23.0233 26.0638 21.8523C26.0638 21.7895 26.0638 21.7242 26.0638 21.6614C26.0314 21.2493 25.9181 20.8477 25.7302 20.4795Z" fill="#123C8A"/>
<path d="M25.2666 19.7858C25.042 19.5336 24.7997 19.2978 24.5415 19.0801H16.2104C16.0252 19.0801 15.8475 19.1537 15.7165 19.2847C15.5856 19.4157 15.512 19.5933 15.512 19.7786C15.512 19.9638 15.5856 20.1415 15.7165 20.2725C15.8475 20.4035 16.0252 20.4771 16.2104 20.4771H25.7307C25.6061 20.2278 25.4501 19.9955 25.2666 19.7858Z" fill="#F69E01"/>
<path d="M21.1748 16.9214C20.2733 16.4211 19.437 16.0006 18.6298 15.5946L18.4968 15.5293H16.2104C16.0252 15.5293 15.8475 15.6029 15.7165 15.7339C15.5856 15.8649 15.512 16.0425 15.512 16.2278C15.512 16.413 15.5856 16.5907 15.7165 16.7217C15.8475 16.8527 16.0252 16.9263 16.2104 16.9263H21.1796L21.1748 16.9214Z" fill="#F69E01"/>
<path d="M23.7391 22.582H16.2104C16.0252 22.582 15.8475 22.6556 15.7165 22.7866C15.5856 22.9176 15.512 23.0953 15.512 23.2805C15.512 23.4658 15.5856 23.6434 15.7165 23.7744C15.8475 23.9054 16.0252 23.979 16.2104 23.979H23.7391C23.8308 23.979 23.9217 23.9609 24.0064 23.9258C24.0912 23.8907 24.1682 23.8393 24.233 23.7744C24.2979 23.7096 24.3493 23.6326 24.3844 23.5478C24.4195 23.4631 24.4376 23.3722 24.4376 23.2805C24.4376 23.1888 24.4195 23.098 24.3844 23.0132C24.3493 22.9285 24.2979 22.8515 24.233 22.7866C24.1682 22.7217 24.0912 22.6703 24.0064 22.6352C23.9217 22.6001 23.8308 22.582 23.7391 22.582Z" fill="#F69E01"/>
<circle cx="20" cy="20" r="19.5" stroke="black" stroke-opacity="0.05"/>
<defs>
<linearGradient id="paint0_linear_9_386960" x1="27.0833" y1="16.368" x2="13.4205" y2="16.368" gradientUnits="userSpaceOnUse">
<stop stop-color="#468DCC"/>
<stop offset="0.5" stop-color="#123C8A"/>
</linearGradient>
</defs>
</svg>
