<svg width="40" height="40" viewBox="0 0 40 40" fill="none" xmlns="http://www.w3.org/2000/svg">
<circle cx="20" cy="20" r="20" fill="#F6F8FA"/>
<path d="M18.3029 6H19.0496L19.7181 6.08501C19.7672 6.19988 19.8246 6.30441 19.8905 6.39861C19.9096 6.42618 19.951 6.50238 20.0145 6.6272C20.049 6.69536 20.1018 6.76811 20.173 6.84546C20.2649 6.94578 20.3323 7.10775 20.3752 7.33137C19.4746 7.07636 18.605 6.95459 17.7665 6.96608L17.5873 6.55713C17.5712 6.5219 17.5486 6.49204 17.5195 6.46753C17.459 6.41775 17.4046 6.35342 17.3564 6.27455C17.3219 6.21787 17.2591 6.17805 17.168 6.15508L18.3029 6Z" fill="#E8AC17"/>
<path d="M19.7178 6.08496L22.1267 6.69838C22.2997 6.96871 22.4705 7.25283 22.639 7.55073C22.6681 7.60204 22.6983 7.67288 22.7297 7.76325C22.7535 7.83217 22.783 7.8988 22.8182 7.96313C22.8358 7.99682 22.8595 8.02516 22.8894 8.04813C22.9423 8.09025 22.9507 8.14501 22.9147 8.2124C22.0976 7.77895 21.2509 7.48526 20.3748 7.33133C20.332 7.10771 20.2646 6.94574 20.1727 6.84542C20.1014 6.76807 20.0486 6.69532 20.0141 6.62716C19.9506 6.50233 19.9092 6.42613 19.8901 6.39856C19.8242 6.30437 19.7668 6.19983 19.7178 6.08496Z" fill="#AE7809"/>
<path d="M17.168 6.1543C17.2592 6.17727 17.322 6.21709 17.3564 6.27376C17.4047 6.35264 17.459 6.41697 17.5195 6.46675C17.5486 6.49126 17.5712 6.52112 17.5873 6.55635L17.7665 6.9653C17.124 6.98827 16.5316 7.10008 15.9894 7.30072C15.9243 7.29843 15.8799 7.2609 15.8562 7.18815C15.8539 7.17973 15.8493 7.17245 15.8424 7.16632C15.8286 7.1556 15.8229 7.16135 15.8252 7.18355C15.8253 7.18631 15.8246 7.18904 15.8231 7.19134C15.8216 7.19364 15.8193 7.19538 15.8167 7.19629C15.8141 7.19721 15.8113 7.19724 15.8087 7.19639C15.806 7.19554 15.8038 7.19386 15.8022 7.1916C15.6881 7.03843 15.6318 6.8577 15.6333 6.6494L17.168 6.1543Z" fill="#F3BD02"/>
<path d="M15.6334 6.65039C15.6319 6.85869 15.6882 7.03943 15.8023 7.19259C15.8038 7.19485 15.8061 7.19654 15.8088 7.19738C15.8114 7.19823 15.8142 7.1982 15.8168 7.19729C15.8194 7.19638 15.8216 7.19464 15.8232 7.19234C15.8247 7.19004 15.8254 7.1873 15.8252 7.18455C15.8229 7.16234 15.8287 7.1566 15.8425 7.16732C15.8494 7.17344 15.854 7.18072 15.8563 7.18914C15.88 7.2619 15.9244 7.29942 15.9895 7.30172L15.2394 7.60039C15.0005 7.49777 14.9036 7.28525 14.9488 6.96284L15.6334 6.65039Z" fill="#E8AC17"/>
<path d="M22.127 6.69824C23.3936 6.96628 24.4979 7.55443 25.4399 8.46268C25.6834 8.91758 25.9135 9.36979 26.1303 9.81933C26.1364 9.83158 26.1525 9.84422 26.1785 9.85724C26.2085 9.87148 26.2341 9.89462 26.252 9.92386C26.3884 10.1437 26.4703 10.3623 26.4979 10.5798C25.3154 9.71824 24.1211 8.92907 22.915 8.21226C22.951 8.14487 22.9426 8.09011 22.8897 8.04799C22.8598 8.02502 22.8361 7.99668 22.8185 7.96299C22.7833 7.89866 22.7538 7.83203 22.73 7.76311C22.6986 7.67274 22.6684 7.60191 22.6393 7.5506C22.4708 7.25269 22.3 6.96858 22.127 6.69824Z" fill="#895407"/>
<path d="M14.9487 6.96289C14.9035 7.2853 15.0004 7.49781 15.2393 7.60043L14.0929 8.24831L13.978 8.2644C13.9344 8.27052 13.9083 8.25176 13.8999 8.20811C13.893 8.17441 13.8735 8.15297 13.8413 8.14378C13.8046 8.13306 13.7804 8.1097 13.7689 8.07371L13.6621 7.74977L14.9487 6.96289Z" fill="#B58005"/>
<path d="M13.6619 7.74902L13.7688 8.07296C13.7803 8.10896 13.8044 8.13231 13.8411 8.14304C13.8733 8.15223 13.8928 8.17367 13.8997 8.20736C13.9081 8.25102 13.9342 8.26978 13.9778 8.26365L14.0927 8.24757C13.2622 8.79666 12.6786 9.34345 11.9377 10.1028C12.0832 9.72292 11.9894 9.55367 11.6562 9.59502C12.2597 8.90196 12.9283 8.28663 13.6619 7.74902Z" fill="#864E0E"/>
<path d="M25.4399 8.46387C25.9393 8.86898 26.4286 9.28099 26.908 9.6999C27.4487 10.1724 27.8944 10.6139 28.2451 11.0244C29.0156 11.9265 29.7787 12.9113 30.5346 13.9789C31.1365 14.8297 31.573 15.6564 31.8441 16.459C32.0754 17.1444 32.294 17.883 32.5 18.6749C32.7543 19.6498 32.9151 20.6446 32.9825 21.6593C32.8715 21.5245 32.7815 21.382 32.7125 21.2319C32.6023 20.9915 32.5433 20.8644 32.5356 20.8506C32.4751 20.7365 32.4131 20.6239 32.3495 20.5128C32.3005 20.4278 32.2615 20.3398 32.2324 20.2486C32.2025 20.1552 32.1631 20.0668 32.1141 19.9833C32.0068 19.801 31.9111 19.6111 31.8269 19.4135C31.6833 19.0769 31.4627 18.7852 31.3111 18.4543C31.2369 18.2945 31.159 18.1402 31.0779 17.9925C31.0595 17.9604 31.0032 17.8394 30.909 17.6295C30.9057 17.6216 30.9006 17.6146 30.8942 17.6088C30.8877 17.6031 30.8801 17.5988 30.8717 17.5962C30.8634 17.5935 30.8545 17.5927 30.8457 17.5937C30.8369 17.5947 30.8283 17.5975 30.8206 17.602C30.8152 17.605 30.808 17.6177 30.7988 17.6399C30.6808 16.5815 30.3975 15.6989 29.9487 14.9921C29.0994 13.6534 28.3282 12.5595 27.6352 11.7102C27.3924 11.413 27.0133 11.0366 26.4979 10.581C26.4704 10.3635 26.3884 10.1448 26.2521 9.92505C26.2341 9.89581 26.2086 9.87266 26.1786 9.85842C26.1525 9.8454 26.1365 9.83276 26.1303 9.82051C25.9136 9.37098 25.6835 8.91876 25.4399 8.46387Z" fill="#66300A"/>
<path d="M11.6563 9.59496C11.9895 9.5536 12.0833 9.72285 11.9378 10.1027L10.8729 11.3215C10.7098 11.0312 10.5635 10.9068 10.4341 10.9482L11.6563 9.59496Z" fill="#9C6413"/>
<path d="M18.8245 10.0186C18.9103 10.0836 18.9942 10.1078 19.0761 10.0909C19.1128 10.0831 19.151 10.0878 19.1846 10.1042C19.2182 10.1207 19.2451 10.148 19.2611 10.1817L19.7699 11.2374L18.102 11.1615L17.5127 10.0783L18.8245 10.0186Z" fill="#F3BD02"/>
<path d="M18.8242 10.0173C19.5096 10.0081 20.161 10.0919 20.7782 10.2689L21.2986 11.2774C21.3124 11.305 21.333 11.3257 21.3606 11.3395C21.379 11.3494 21.3943 11.3644 21.4066 11.3843C21.5145 11.5558 21.5609 11.7189 21.5456 11.8736C21.0432 11.6538 20.6185 11.4854 20.2716 11.3682C20.0955 11.3092 19.9281 11.2652 19.7696 11.2361L19.2607 10.1804C19.2448 10.1467 19.2178 10.1194 19.1843 10.103C19.1507 10.0865 19.1125 10.0818 19.0758 10.0897C18.9938 10.1065 18.91 10.0824 18.8242 10.0173Z" fill="#E8AC17"/>
<path d="M17.5127 10.0781L18.102 11.1614L16.9108 11.2039L16.418 10.301L17.5127 10.0781Z" fill="#E8AC17"/>
<path d="M20.7783 10.2705L21.8524 10.5749C21.8922 10.6423 21.9696 10.6833 22.0844 10.6978C22.0944 10.6994 22.1028 10.7036 22.1097 10.7105C22.125 10.7273 22.1262 10.7407 22.1131 10.7507C22.0886 10.7706 22.086 10.7928 22.1051 10.8173C22.2207 10.9674 22.2946 11.0704 22.3268 11.1263C22.568 11.546 22.7863 12.0093 22.9816 12.5163L21.5457 11.8753C21.561 11.7206 21.5147 11.5575 21.4067 11.3859C21.3944 11.366 21.3791 11.3511 21.3607 11.3411C21.3332 11.3273 21.3125 11.3067 21.2987 11.2791L20.7783 10.2705Z" fill="#C6911E"/>
<path d="M16.4177 10.3008L16.9105 11.2037L15.6181 11.3645C15.3723 11.0834 15.2678 10.8319 15.3045 10.6098L16.4177 10.3008Z" fill="#B58005"/>
<path d="M21.8525 10.5742L24.2706 11.3898C24.243 11.4266 24.2419 11.4572 24.2672 11.4817C24.2787 11.4917 24.2917 11.4978 24.3062 11.5001C24.3292 11.5032 24.3453 11.515 24.3545 11.5357C24.4433 11.7302 24.6099 12.0189 24.8542 12.4018C25.0326 12.6814 25.198 13.0827 25.3504 13.6057L22.9817 12.5156C22.7865 12.0086 22.5682 11.5453 22.327 11.1256C22.2948 11.0697 22.2209 10.9667 22.1053 10.8166C22.0861 10.7921 22.0888 10.7699 22.1133 10.75C22.1263 10.74 22.1252 10.7266 22.1099 10.7098C22.103 10.7029 22.0945 10.6987 22.0846 10.6971C21.9697 10.6826 21.8924 10.6416 21.8525 10.5742Z" fill="#B58005"/>
<path d="M15.3046 10.6094C15.2678 10.8315 15.3724 11.083 15.6182 11.3641L14.3913 11.703L14.203 11.5054C14.1961 11.4985 14.1903 11.4904 14.1857 11.4813L14.0054 11.0953L15.3046 10.6094Z" fill="#895407"/>
<path d="M10.873 11.3225C10.1547 12.2644 9.56613 13.2948 9.10741 14.4137C8.81793 15.119 8.56904 15.8098 8.36073 16.486C8.14937 16.401 8.04483 16.2976 8.04713 16.1758C8.0479 16.1529 8.04062 16.133 8.0253 16.1161C7.99008 16.0748 7.98472 16.0035 8.00922 15.9024C8.29334 14.9796 8.56865 14.187 8.83516 13.5246C9.20045 12.614 9.73346 11.7555 10.4342 10.9491C10.5636 10.9078 10.7099 11.0322 10.873 11.3225Z" fill="#C6911E"/>
<path d="M14.0052 11.0957L14.1856 11.4817C14.1901 11.4908 14.1959 11.4989 14.2028 11.5058L14.3912 11.7034C13.813 11.9461 13.3037 12.2865 12.8634 12.7246C12.8427 12.4926 12.7263 12.3156 12.5142 12.1939C12.9553 11.7497 13.4523 11.3837 14.0052 11.0957Z" fill="#743C10"/>
<path d="M24.2706 11.3887L25.494 11.8034C25.7498 12.2154 25.9834 12.6538 26.1947 13.1187C26.2001 13.1294 26.207 13.1389 26.2154 13.1474C26.2238 13.155 26.2326 13.1615 26.2418 13.1669C26.2725 13.183 26.2958 13.206 26.3119 13.2358C26.5677 13.7145 26.7408 14.0786 26.8311 14.3283C26.8625 14.4148 26.8311 14.4558 26.7369 14.4512L25.3504 13.6046C25.198 13.0815 25.0326 12.6802 24.8542 12.4007C24.6099 12.0178 24.4433 11.7291 24.3545 11.5346C24.3453 11.5139 24.3292 11.502 24.3062 11.4989C24.2917 11.4967 24.2786 11.4905 24.2672 11.4806C24.2419 11.4561 24.243 11.4254 24.2706 11.3887Z" fill="#9C6413"/>
<path d="M25.4937 11.8037C26.1599 12.0082 26.7837 12.3069 27.3649 12.6997C27.6054 13.15 27.8424 13.5892 28.076 14.0173C28.0791 14.0227 28.0944 14.0613 28.1219 14.1333C28.1365 14.1701 28.1587 14.2019 28.1886 14.2287C28.2154 14.2524 28.2368 14.2804 28.2529 14.3125L28.694 15.1924C28.6963 15.1978 28.6978 15.2036 28.6986 15.2097C28.6986 15.2441 28.7074 15.2775 28.725 15.3096C29.1301 16.0624 29.5349 16.8129 29.9392 17.5611C29.9569 17.5948 29.968 17.63 29.9725 17.6668C29.9764 17.7005 29.989 17.7323 30.0105 17.7621C30.1223 17.9207 30.226 18.0853 30.3218 18.2561C30.3945 18.3855 30.4841 18.5192 30.5906 18.657C30.6419 19.2942 30.6377 19.9417 30.5779 20.5995C30.5366 21.0498 30.4137 21.5415 30.331 22.0193L30.3758 21.6448C30.3781 21.6288 30.3735 21.615 30.362 21.6035C30.3535 21.5935 30.3421 21.5886 30.3275 21.5886C30.3091 21.5878 30.2973 21.579 30.2919 21.5621C30.1778 21.2152 30.0231 20.8763 29.8278 20.5455C29.6769 20.2905 29.5284 19.9945 29.3821 19.6575C29.3193 19.512 29.2328 19.3991 29.1225 19.3187C29.1485 18.7596 29.142 18.3212 29.103 18.0034C29.0524 17.5887 28.8652 17.0878 28.6354 16.6973C28.13 15.8388 27.497 15.0902 26.7366 14.4515C26.8308 14.4561 26.8622 14.4151 26.8308 14.3286C26.7404 14.079 26.5673 13.7148 26.3115 13.2362C26.2955 13.2063 26.2721 13.1833 26.2415 13.1672C26.2323 13.1619 26.2235 13.1554 26.2151 13.1477C26.2066 13.1393 26.1997 13.1297 26.1944 13.119C25.983 12.6542 25.7494 12.2157 25.4937 11.8037Z" fill="#895407"/>
<path d="M12.5145 12.1943C12.7266 12.3161 12.843 12.493 12.8637 12.725L11.4783 14.1633C11.3734 14.0606 11.3064 13.9423 11.2773 13.8083C11.2582 13.721 11.1931 13.6812 11.082 13.6888L12.5145 12.1943Z" fill="#B58005"/>
<path d="M27.3652 12.7002C27.8477 13.0578 28.3397 13.4729 28.8414 13.9454C29.2472 14.3276 29.5283 14.779 29.6845 15.2998C29.8829 15.9622 30.087 16.6235 30.2968 17.2836C30.4362 17.7224 30.5342 18.1804 30.5909 18.6575C30.4844 18.5196 30.3948 18.386 30.3221 18.2566C30.2263 18.0858 30.1226 17.9211 30.0108 17.7626C29.9893 17.7328 29.9767 17.701 29.9729 17.6673C29.9683 17.6305 29.9572 17.5953 29.9395 17.5616C29.5352 16.8134 29.1304 16.0629 28.7253 15.3101C28.7077 15.2779 28.6989 15.2446 28.6989 15.2102C28.6981 15.2041 28.6966 15.1983 28.6943 15.1929L28.2532 14.313C28.2371 14.2808 28.2157 14.2529 28.1889 14.2291C28.159 14.2023 28.1368 14.1706 28.1222 14.1338C28.0947 14.0618 28.0794 14.0231 28.0763 14.0178C27.8427 13.5897 27.6057 13.1505 27.3652 12.7002Z" fill="#743C10"/>
<path d="M11.082 13.6884C11.1931 13.6808 11.2581 13.7206 11.2773 13.8079C11.3064 13.9419 11.3734 14.0602 11.4783 14.1628L10.4157 15.5769L10.0677 15.2725C10.0616 15.2672 10.0547 15.2637 10.047 15.2622C10.0355 15.2606 10.0263 15.2645 10.0194 15.2737C9.99569 15.3035 9.97732 15.3016 9.9643 15.2679C9.95817 15.2526 9.95396 15.2304 9.95166 15.2013L11.082 13.6884Z" fill="#E8AC17"/>
<path d="M17.7648 14.2438C17.7587 14.3595 17.7713 14.4575 17.8027 14.5379L17.264 14.0842C17.2599 14.0807 17.255 14.0782 17.2498 14.077C17.2446 14.0758 17.2391 14.0759 17.234 14.0773C17.2288 14.0786 17.224 14.0812 17.22 14.0848C17.216 14.0884 17.213 14.0929 17.2111 14.0979C17.1047 14.3997 17.1445 14.6987 17.3306 14.9951C17.3635 15.0472 17.3494 15.0686 17.2881 15.0594C17.2529 15.0541 17.2211 15.041 17.1927 15.0204C17.13 14.9729 17.1028 14.9886 17.1112 15.0675C17.1479 15.3971 17.3685 15.6223 17.6649 15.7406C17.8969 15.8325 18.2565 15.9853 18.3736 16.2162C18.4112 16.2912 18.3981 16.3016 18.3346 16.2472C18.137 16.078 17.9069 15.9669 17.6442 15.9141C17.5753 15.9003 17.5611 15.9221 17.6017 15.9795C17.7763 16.2219 17.7418 16.5103 17.9842 16.7009C18.3357 16.9766 18.7447 16.9904 19.1778 16.9916C19.1859 16.9917 19.1939 16.9935 19.2013 16.9969C19.2086 17.0003 19.2152 17.0052 19.2204 17.0113C19.2257 17.0174 19.2295 17.0246 19.2316 17.0323C19.2338 17.04 19.2342 17.048 19.2329 17.0559L19.226 17.0927C19.2214 17.1248 19.2026 17.1405 19.1697 17.1398L18.7252 17.1294C18.6677 17.1279 18.657 17.1501 18.693 17.196C18.8462 17.3913 19.043 17.5426 19.2834 17.6498C19.553 17.77 19.8287 17.7742 20.1105 17.6624C20.1281 17.6555 20.1408 17.6601 20.1484 17.6762L20.1771 17.7325C20.1801 17.7378 20.1818 17.7438 20.1819 17.75C20.182 17.7561 20.1805 17.7622 20.1777 17.7677C20.1749 17.7732 20.1708 17.778 20.1657 17.7817C20.1606 17.7854 20.1546 17.7878 20.1484 17.7888C19.8463 17.8347 19.4856 17.8037 19.2559 18.0415C19.2398 18.0584 19.239 18.076 19.2536 18.0944L19.2731 18.1196L19.2088 18.1679C19.1689 18.1985 19.1624 18.2349 19.1892 18.277L19.543 18.818C19.5614 18.8464 19.5748 18.877 19.5833 18.9099C19.5978 18.9666 19.6219 19.0202 19.6556 19.0708C19.7889 19.2672 19.8325 19.4648 19.9968 19.6566C20.0627 19.7324 20.1155 19.8159 20.1553 19.907C20.1913 19.9897 20.2342 20.0679 20.284 20.1414C20.4027 20.3183 20.4953 20.5013 20.562 20.6905C20.6183 20.8524 20.6998 20.9731 20.7619 21.1281C20.7764 21.1657 20.8017 21.1936 20.8377 21.212C20.8637 21.2258 20.8809 21.243 20.8894 21.2637C21.136 21.9001 21.4599 22.4924 21.8612 23.0408C21.5671 23.8632 22.0668 24.3641 22.462 25.0016C22.6634 25.3286 22.6879 25.6101 22.5355 25.8459C22.2698 25.2961 22.0044 24.7665 21.7394 24.2573C21.669 24.1232 21.5889 23.9996 21.4993 23.8862C21.4044 23.766 21.3309 23.6232 21.2788 23.4577C21.2363 23.3199 21.1145 23.2188 21.0582 23.0925C20.8982 22.7371 20.7148 22.4124 20.508 22.1183C20.413 21.9828 20.3326 21.8419 20.2667 21.6956C20.2162 21.5846 20.1603 21.4777 20.099 21.3751C20.0301 21.2618 19.9727 21.1408 19.9267 21.0121C19.9164 20.9834 19.8877 20.9501 19.8601 20.9351C19.8295 20.9175 19.8069 20.893 19.7923 20.8616C19.7249 20.7092 19.6392 20.566 19.535 20.432C19.5105 20.4014 19.4822 20.375 19.45 20.3527C19.4255 20.3359 19.4159 20.3122 19.4213 20.2815C19.4289 20.2402 19.424 20.2003 19.4064 20.1621C19.2869 19.9032 19.1674 19.6842 19.0479 19.505C18.9377 19.338 18.8305 19.1481 18.7263 18.9352C18.7202 18.923 18.7087 18.9168 18.6918 18.9168C18.6735 18.9168 18.6608 18.9084 18.6539 18.8916L18.2668 17.9714C18.2601 17.9551 18.2484 17.9414 18.2335 17.9324C18.2205 17.9232 18.2086 17.9129 18.1979 17.9014C18.1673 17.8671 18.1492 17.8238 18.1462 17.7785C18.1401 17.685 18.1002 17.6127 18.0267 17.5613C17.9923 17.5366 17.9659 17.5018 17.9509 17.4614C17.8728 17.2424 17.7748 17.0406 17.6568 16.856C17.5427 16.6776 17.4393 16.4881 17.3467 16.2874C17.2555 16.0898 17.1568 15.8938 17.0503 15.6993C17.0358 15.6725 17.0158 15.6506 16.9906 15.6338C16.9776 15.6254 16.9672 15.6146 16.9596 15.6016C16.8891 15.4768 16.8378 15.3573 16.8056 15.2432C16.628 15.0012 16.59 14.7906 16.6919 14.6114C16.7141 14.5724 16.7467 14.5467 16.7895 14.5345L16.8803 14.5103C16.9186 14.5004 16.9377 14.4755 16.9377 14.4357C16.937 14.2205 17.0166 14.0194 17.1767 13.8326C17.1832 13.8251 17.1914 13.8193 17.2006 13.8157C17.2098 13.8121 17.2198 13.8108 17.2297 13.8119C17.2395 13.8131 17.2489 13.8166 17.2571 13.8222C17.2653 13.8278 17.272 13.8353 17.2766 13.8441C17.4236 14.1244 17.5864 14.2576 17.7648 14.2438Z" fill="#9C6413"/>
<path d="M19.2712 14.1211C19.3631 14.1969 19.4048 14.2854 19.3964 14.3864C19.3948 14.4048 19.3983 14.4056 19.4067 14.3887C19.409 14.3849 19.4125 14.3826 19.417 14.3819C19.4377 14.3796 19.45 14.3887 19.4538 14.4094C19.4722 14.512 19.5239 14.5871 19.6089 14.6346C19.6464 14.6553 19.6721 14.6863 19.6858 14.7276C19.7632 14.9589 19.8693 15.1683 20.004 15.356C20.1365 15.5413 20.2468 15.745 20.3349 15.9671C20.3655 16.0467 20.4107 16.1176 20.4704 16.1796C20.4988 16.2095 20.5133 16.2451 20.5141 16.2864C20.5148 16.3232 20.529 16.3538 20.5566 16.3783C20.5742 16.3937 20.5891 16.4117 20.6014 16.4323L20.9816 17.0584C20.7496 17.2184 20.655 17.4735 20.6979 17.8234C20.7055 17.887 20.6887 17.8939 20.6473 17.8441C20.5202 17.6902 20.4505 17.5056 20.4383 17.2904C20.4107 16.8194 20.238 16.4549 19.9202 16.1968C19.9141 16.192 19.907 16.1885 19.8994 16.1869C19.8917 16.1852 19.8838 16.1853 19.8763 16.1872C19.8687 16.1891 19.8617 16.1927 19.8558 16.1978C19.8498 16.2028 19.8451 16.2092 19.8421 16.2164C19.6897 16.5801 19.7035 16.9156 19.8834 17.2227C19.8911 17.2364 19.8884 17.2479 19.8754 17.2571C19.8654 17.2648 19.8566 17.2644 19.849 17.256C19.6292 17.0163 19.5411 16.7321 19.5848 16.4036C19.5909 16.3569 19.5756 16.3182 19.5388 16.2876L19.2895 16.0774C19.2775 16.0672 19.2677 16.0547 19.2606 16.0407C19.2535 16.0267 19.2493 16.0114 19.2482 15.9958C19.2045 15.2825 18.5796 15.0722 18.2534 14.5151C18.2466 14.5033 18.2367 14.4935 18.2248 14.4868C18.2129 14.4802 18.1994 14.4768 18.1857 14.4772C18.1721 14.4775 18.1588 14.4816 18.1472 14.4888C18.1357 14.4961 18.1263 14.5064 18.1201 14.5186C18.0826 14.5921 18.0596 14.6698 18.0512 14.7517C18.0451 14.8138 18.0233 14.8203 17.9857 14.7713L17.8031 14.5369C17.7717 14.4565 17.759 14.3585 17.7652 14.2429C17.9482 14.2628 18.1274 14.2743 18.3028 14.2773C18.4406 14.2796 18.6022 14.2593 18.7875 14.2164C18.9468 14.1797 19.108 14.1479 19.2712 14.1211Z" fill="#E8AC17"/>
<path d="M19.271 14.1211C20.1157 14.1272 20.8118 14.3057 21.3594 14.6564C21.8128 14.9474 22.2343 15.2602 22.6241 15.5949C23.0182 15.9338 23.3743 16.3875 23.4202 16.9125C23.4417 17.1606 23.5351 17.3735 23.7005 17.5512C23.7442 17.5971 23.7713 17.6511 23.7821 17.7132C23.8571 18.1305 23.8357 18.5219 23.7177 18.8872C23.6741 19.0181 23.5753 19.1008 23.4903 19.2054C23.442 19.2643 23.4512 19.2758 23.5178 19.2398C23.5339 19.2306 23.5512 19.2268 23.5695 19.2283C23.5829 19.2294 23.5954 19.2352 23.6049 19.2446C23.6144 19.2541 23.6202 19.2667 23.6212 19.28C23.6381 19.5657 23.5994 19.8356 23.5052 20.0899C23.4914 20.1282 23.5048 20.1492 23.5454 20.153L23.6706 20.1657C23.7166 20.1703 23.7323 20.1944 23.7177 20.2381C23.6201 20.5333 23.7292 20.8182 23.4076 21.0123C23.3785 21.0299 23.3478 21.0337 23.3157 21.0238C22.7562 20.8607 23.3157 19.9486 23.0538 19.5247C23.0481 19.5159 23.0402 19.5089 23.0308 19.5044C23.0214 19.4999 23.011 19.4981 23.0006 19.4991C22.9903 19.5002 22.9804 19.5041 22.9721 19.5105C22.9639 19.5168 22.9575 19.5253 22.9538 19.535L22.8056 19.9428C22.8032 19.9491 22.7993 19.9546 22.7942 19.9589C22.7892 19.9631 22.7832 19.9659 22.7769 19.967L22.716 19.9773C22.6785 19.9834 22.6655 19.9681 22.677 19.9313C22.9125 19.2134 22.6 18.8917 22.3932 18.2645C22.3611 18.1681 22.322 18.165 22.2761 18.2554C22.1581 18.4851 22.0869 18.724 22.0624 18.9722C22.0601 19.0036 22.0433 19.0189 22.0119 19.0181L21.982 19.017C21.9766 19.017 21.974 19.0147 21.974 19.0101C21.964 18.6854 21.8698 18.3989 21.6914 18.1508C21.4926 17.8763 21.1182 17.7798 21.0331 17.4306C21.0063 17.3188 20.9891 17.1947 20.9815 17.0584L20.6012 16.4323C20.589 16.4117 20.574 16.3937 20.5564 16.3783C20.5289 16.3538 20.5147 16.3232 20.5139 16.2864C20.5132 16.2451 20.4986 16.2095 20.4703 16.1796C20.4105 16.1176 20.3654 16.0467 20.3347 15.9671C20.2467 15.745 20.1364 15.5413 20.0039 15.356C19.8691 15.1683 19.763 14.9589 19.6857 14.7276C19.6719 14.6863 19.6462 14.6553 19.6087 14.6346C19.5237 14.5871 19.472 14.512 19.4536 14.4094C19.4498 14.3887 19.4376 14.3796 19.4169 14.3819C19.4123 14.3826 19.4088 14.3849 19.4065 14.3887C19.3981 14.4056 19.3947 14.4048 19.3962 14.3864C19.4046 14.2854 19.3629 14.1969 19.271 14.1211Z" fill="#F3BD02"/>
<path d="M16.8061 15.2428C16.8382 15.3569 16.8895 15.4764 16.96 15.6012C16.9676 15.6142 16.978 15.6249 16.991 15.6334C17.0163 15.6502 17.0362 15.672 17.0507 15.6988C17.1572 15.8933 17.256 16.0894 17.3471 16.287C17.4398 16.4876 17.5432 16.6772 17.6573 16.8556C17.7752 17.0402 17.8732 17.242 17.9513 17.461C17.9663 17.5014 17.9927 17.5362 18.0272 17.5609C18.1007 17.6122 18.1405 17.6846 18.1466 17.778C18.1496 17.8234 18.1678 17.8666 18.1983 17.9009C18.209 17.9124 18.2209 17.9228 18.2339 17.932C18.2488 17.9409 18.2605 17.9546 18.2672 17.971L18.6544 18.8911C18.6613 18.908 18.6739 18.9164 18.6923 18.9164C18.7091 18.9164 18.7206 18.9225 18.7267 18.9348C18.8309 19.1477 18.9381 19.3376 19.0484 19.5046C19.1678 19.6838 19.2873 19.9028 19.4068 20.1616C19.4244 20.1999 19.4294 20.2397 19.4217 20.2811C19.4163 20.3117 19.4259 20.3355 19.4504 20.3523C19.4826 20.3745 19.5109 20.4009 19.5354 20.4316C19.6396 20.5656 19.7254 20.7088 19.7928 20.8612C19.8073 20.8926 19.8299 20.9171 19.8605 20.9347C19.8881 20.9497 19.9168 20.983 19.9272 21.0117C19.9731 21.1403 20.0305 21.2613 20.0995 21.3747C20.1607 21.4773 20.2166 21.5841 20.2672 21.6952C20.333 21.8414 20.4134 21.9824 20.5084 22.1179C20.7152 22.412 20.8986 22.7367 21.0587 23.092C21.1149 23.2184 21.2367 23.3195 21.2792 23.4573C21.3313 23.6227 21.4048 23.7656 21.4998 23.8858C21.5894 23.9991 21.6694 24.1228 21.7398 24.2568C22.0048 24.7661 22.2702 25.2957 22.5359 25.8455L21.9581 25.8329C21.8524 25.6874 21.7525 25.53 21.6583 25.3608C21.2202 24.5727 20.7845 23.7836 20.351 22.9932C20.253 22.814 20.196 22.7018 20.1799 22.6567C20.1416 22.5464 20.0922 22.4438 20.0317 22.3488C19.877 22.1076 19.6113 21.6347 19.2345 20.9301C19.1908 20.8482 19.1368 20.7747 19.0725 20.7096C18.9829 20.6184 18.9312 20.5449 18.9174 20.489C18.8846 20.3578 18.836 20.2309 18.7727 20.1111C18.3086 19.2388 17.8303 18.3528 17.3379 17.4529C17.3341 17.4453 17.3283 17.4391 17.3207 17.4346C17.3115 17.43 17.3023 17.4269 17.2931 17.4254C17.2778 17.4223 17.2682 17.4135 17.2644 17.3989C17.1848 17.1217 17.0534 16.8763 16.8704 16.6626C16.8489 16.6381 16.8378 16.6098 16.8371 16.5776C16.8348 16.5125 16.8068 16.4612 16.7532 16.4237C16.729 16.407 16.7086 16.3851 16.6935 16.3593L16.1226 15.3772L16.3305 14.8982C16.3473 14.8583 16.3611 14.8595 16.3718 14.9016C16.4308 15.1436 16.5755 15.2573 16.8061 15.2428Z" fill="#864E0E"/>
<path d="M16.1226 15.3767L16.6935 16.3588C16.7086 16.3845 16.729 16.4065 16.7532 16.4231C16.8069 16.4607 16.8348 16.512 16.8371 16.5771C16.8379 16.6092 16.849 16.6376 16.8704 16.6621C17.0534 16.8757 17.1848 17.1212 17.2644 17.3984C17.2683 17.413 17.2778 17.4218 17.2931 17.4248C17.3023 17.4264 17.3115 17.4294 17.3207 17.434C17.3284 17.4386 17.3341 17.4447 17.3379 17.4524C17.8304 18.3522 18.3086 19.2383 18.7727 20.1105C18.836 20.2303 18.8846 20.3572 18.9175 20.4885C18.9312 20.5444 18.9829 20.6179 19.0725 20.709C19.1369 20.7741 19.1908 20.8476 19.2345 20.9296C19.6113 21.6341 19.877 22.107 20.0317 22.3483C20.0922 22.4432 20.1416 22.5458 20.1799 22.6561C20.196 22.7013 20.253 22.8135 20.3511 22.9927C20.7845 23.783 21.2203 24.5722 21.6583 25.3602C21.7525 25.5295 21.8525 25.6868 21.9581 25.8323L20.9886 25.9047L20.961 25.7623C20.9534 25.7263 20.9411 25.6922 20.9243 25.66L19.9214 23.8221C19.9107 23.8014 19.8962 23.7834 19.8778 23.7681C19.838 23.7344 19.8215 23.6892 19.8284 23.6325C19.833 23.5958 19.8223 23.564 19.7962 23.5372C19.7503 23.4897 19.7128 23.4353 19.6837 23.3741C19.5864 23.1734 19.4792 22.9743 19.362 22.7767C19.2923 22.6588 19.2261 22.537 19.1633 22.4114C19.0974 22.2797 19.0139 22.1576 18.9129 22.045C18.8838 22.0128 18.865 21.9753 18.8566 21.9324C18.842 21.8589 18.811 21.795 18.7635 21.7406C18.7 21.6663 18.6433 21.5767 18.5935 21.4718C18.3193 20.8936 18.0111 20.2867 17.6688 19.6511C17.6244 19.5691 17.5773 19.4964 17.5275 19.4328C17.49 19.3853 17.4674 19.3298 17.4597 19.2662C17.4536 19.2211 17.4379 19.1793 17.4126 19.141C17.202 18.824 16.9995 18.4545 16.8049 18.0325C16.7636 17.9429 16.7134 17.8625 16.6545 17.7913C16.6299 17.7622 16.6173 17.7285 16.6165 17.6902C16.6142 17.622 16.5882 17.5638 16.5384 17.5156C16.504 17.4811 16.4852 17.4401 16.4821 17.3927C16.4775 17.3253 16.4507 17.269 16.4017 17.2238C16.3703 17.1939 16.347 17.1591 16.3317 17.1193C16.2405 16.8865 16.1257 16.6655 15.987 16.4565C15.9564 16.4105 15.9066 16.314 15.8377 16.167C15.7833 16.0506 15.7083 15.9671 15.6126 15.9166C15.5482 15.5788 15.6489 15.3361 15.9147 15.1883C15.9798 15.1515 15.997 15.1672 15.9664 15.2354C15.9365 15.302 15.9258 15.3786 15.9342 15.4651C15.9351 15.4742 15.9382 15.4829 15.943 15.4905C15.9479 15.4982 15.9545 15.5047 15.9623 15.5093C15.9701 15.514 15.9789 15.5168 15.988 15.5175C15.9971 15.5182 16.0062 15.5168 16.0146 15.5134C16.059 15.4942 16.095 15.4486 16.1226 15.3767Z" fill="#743C10"/>
<path d="M9.95185 15.2021C9.95415 15.2312 9.95836 15.2535 9.96449 15.2688C9.97751 15.3025 9.99589 15.3044 10.0196 15.2745C10.0265 15.2653 10.0357 15.2615 10.0472 15.263C10.0549 15.2646 10.0617 15.268 10.0679 15.2734L10.4159 15.5778C9.74508 16.5917 9.20939 17.6807 8.80887 18.8448C8.79355 18.8172 8.77441 18.818 8.75143 18.8471C8.72846 18.8769 8.70204 18.8807 8.67217 18.8585C8.66145 18.8509 8.65532 18.8417 8.65379 18.831C8.6446 18.782 8.6155 18.7613 8.56649 18.7689L8.34593 18.8045C8.30151 18.8114 8.28696 18.7938 8.30228 18.7517C8.3398 18.6437 8.34593 18.5488 8.32066 18.4668C8.75564 17.4146 9.25726 16.4003 9.82549 15.4239C9.86761 15.3526 9.90973 15.2787 9.95185 15.2021Z" fill="#C6911E"/>
<path d="M8.00903 15.9023C7.98452 16.0034 7.98988 16.0747 8.02511 16.116C8.04043 16.1329 8.0477 16.1528 8.04693 16.1757C8.04464 16.2975 8.14917 16.4009 8.36054 16.4859C8.17138 17.0641 7.98835 17.6155 7.81145 18.1401C7.50741 19.0422 7.25469 19.8371 7.05328 20.5248C6.65582 21.8857 6.81358 23.1772 7.52656 24.3995C7.61003 24.5434 7.65062 24.5323 7.64833 24.3661C7.63377 23.5238 7.62459 22.653 7.62076 21.7539C7.61999 21.4645 7.6422 21.1241 7.68738 20.7327C7.75018 20.1867 7.96116 19.4312 8.32033 18.4663C8.3456 18.5482 8.33948 18.6432 8.30195 18.7512C8.28664 18.7933 8.30119 18.8109 8.3456 18.804L8.56616 18.7684C8.61517 18.7608 8.64427 18.7814 8.65346 18.8304C8.655 18.8412 8.66112 18.8504 8.67184 18.858C8.70171 18.8802 8.72813 18.8764 8.75111 18.8465C8.77408 18.8174 8.79323 18.8167 8.80854 18.8442C8.13539 20.8499 8.04655 22.8858 8.54204 24.952C8.69367 25.5876 8.90695 26.1344 9.18188 26.5924C9.33581 26.8497 9.56709 27.0664 9.87571 27.2426C10.0863 27.3636 10.3149 27.5052 10.5615 27.6676C11.6589 28.392 12.3283 28.8048 12.5695 28.9059C12.9555 29.0667 13.2939 29.2069 13.585 29.3263L14.7808 31.587C14.7953 31.6138 14.8018 31.6426 14.8003 31.6732C14.7988 31.6939 14.7923 31.7073 14.7808 31.7134C14.6514 31.7693 14.6736 31.8183 14.8474 31.8604C14.9768 31.8918 15.0546 31.9213 15.0806 31.9489C15.2544 32.4735 15.4972 32.9506 15.8089 33.3802C15.8235 33.4001 15.8414 33.4112 15.8629 33.4135C15.8714 33.4142 15.8797 33.4169 15.8869 33.4213C15.894 33.4257 15.9 33.4317 15.9042 33.4388L16.2087 33.9385C15.279 33.6138 14.3734 33.2163 13.4919 32.7461C12.1433 32.0281 11.021 31.108 9.99288 29.9524C9.53799 29.4401 9.00727 29.0426 8.49149 28.6061C7.67207 27.9138 7.10804 27.0446 6.79941 25.9985C6.60873 25.3506 6.41765 24.6694 6.2262 23.9549C5.8632 22.5994 5.9371 21.3167 6.4479 20.1067C6.7527 19.3845 7.0127 18.7152 7.22789 18.0987C7.48444 17.3666 7.74482 16.6345 8.00903 15.9023Z" fill="#986B24"/>
<path d="M20.9885 25.9042L20.3555 26.0041L19.8834 25.1127C19.8723 25.0913 19.8538 25.0752 19.8317 25.0679C19.8011 25.058 19.7792 25.0392 19.7662 25.0116C19.6751 24.8255 19.5954 24.641 19.5273 24.4579C19.5143 24.4227 19.4928 24.3932 19.463 24.3695C19.332 24.263 19.2512 24.1126 19.2206 23.918C19.2152 23.8828 19.2022 23.851 19.1815 23.8227C18.9372 23.485 18.7247 23.1105 18.544 22.6992C18.4245 22.4281 18.2817 22.1593 18.1155 21.8928C18.0106 21.7244 17.9168 21.544 17.8341 21.3518C17.7552 21.1688 17.6583 20.9842 17.5434 20.7981C17.3918 20.5538 17.2436 20.2992 17.0989 20.0342C17.0859 20.0112 17.0717 19.9886 17.0564 19.9664C16.9515 19.8179 16.8787 19.667 16.8381 19.5138C16.8075 19.3997 16.6918 19.1895 16.4912 18.8832C16.42 18.7744 16.3419 18.637 16.2569 18.4708C16.1864 18.3322 16.1037 18.1955 16.0087 18.0607C15.9015 17.9075 15.7943 17.7092 15.6871 17.4656C15.6728 17.4334 15.6493 17.4059 15.6193 17.3864C15.5435 17.3358 15.5136 17.2049 15.4516 17.1268C15.3704 17.0242 15.2804 16.9192 15.1816 16.812L15.6124 15.916C15.7081 15.9666 15.7832 16.05 15.8376 16.1664C15.9065 16.3135 15.9563 16.41 15.9869 16.4559C16.1255 16.665 16.2404 16.8859 16.3315 17.1187C16.3468 17.1586 16.3702 17.1934 16.4016 17.2233C16.4506 17.2684 16.4774 17.3247 16.482 17.3921C16.4851 17.4396 16.5038 17.4806 16.5383 17.515C16.5881 17.5633 16.6141 17.6215 16.6164 17.6896C16.6172 17.7279 16.6298 17.7616 16.6543 17.7907C16.7133 17.862 16.7634 17.9424 16.8048 18.032C16.9993 18.4539 17.2019 18.8234 17.4125 19.1405C17.4377 19.1788 17.4534 19.2205 17.4596 19.2657C17.4672 19.3293 17.4898 19.3848 17.5273 19.4323C17.5771 19.4958 17.6242 19.5686 17.6686 19.6505C18.011 20.2861 18.3192 20.8931 18.5934 21.4712C18.6431 21.5762 18.6998 21.6658 18.7634 21.7401C18.8109 21.7944 18.8419 21.8584 18.8564 21.9319C18.8649 21.9748 18.8836 22.0123 18.9127 22.0445C19.0138 22.157 19.0973 22.2792 19.1631 22.4109C19.2259 22.5365 19.2922 22.6583 19.3619 22.7762C19.479 22.9738 19.5863 23.1729 19.6835 23.3735C19.7126 23.4348 19.7501 23.4892 19.7961 23.5367C19.8221 23.5635 19.8328 23.5952 19.8283 23.632C19.8214 23.6887 19.8378 23.7339 19.8776 23.7675C19.896 23.7829 19.9106 23.8009 19.9213 23.8215L20.9241 25.6595C20.941 25.6917 20.9532 25.7257 20.9609 25.7617L20.9885 25.9042Z" fill="#864E0E"/>
<path d="M15.1816 16.8125C15.2804 16.9197 15.3703 17.0246 15.4515 17.1273C15.5135 17.2054 15.5434 17.3363 15.6192 17.3869C15.6492 17.4063 15.6728 17.4339 15.687 17.4661C15.7942 17.7097 15.9014 17.908 16.0086 18.0612C16.1036 18.1959 16.1863 18.3326 16.2568 18.4713C16.3418 18.6374 16.4199 18.7749 16.4911 18.8837C16.6918 19.19 16.8074 19.4002 16.838 19.5143C16.8786 19.6675 16.9514 19.8183 17.0563 19.9669C17.0716 19.9891 17.0858 20.0117 17.0988 20.0347C17.2435 20.2996 17.3917 20.5543 17.5434 20.7986C17.6582 20.9847 17.7551 21.1692 17.834 21.3523C17.9167 21.5445 18.0105 21.7248 18.1154 21.8933C18.2816 22.1598 18.4244 22.4286 18.5439 22.6997C18.7246 23.111 18.9371 23.4854 19.1814 23.8232C19.2021 23.8515 19.2151 23.8833 19.2205 23.9185C19.2511 24.113 19.3319 24.2635 19.4629 24.37C19.4927 24.3937 19.5142 24.4232 19.5272 24.4584C19.5954 24.6414 19.675 24.826 19.7661 25.0121C19.7792 25.0397 19.801 25.0584 19.8316 25.0684C19.8537 25.0757 19.8722 25.0918 19.8833 25.1132L20.3554 26.0046L19.6846 26.2171C19.6938 26.0318 19.6256 25.8495 19.4801 25.6703C19.3476 25.508 19.2373 25.3234 19.1493 25.1166C19.062 24.9122 18.9597 24.7226 18.8426 24.548C18.7223 24.3696 18.6278 24.1865 18.5588 23.9989C18.5098 23.8664 18.4443 23.7435 18.3624 23.6302C18.2736 23.5077 18.2073 23.3786 18.1637 23.2431C18.1537 23.2132 18.1365 23.1883 18.112 23.1684C18.0316 23.1018 17.9699 23.0179 17.927 22.9168C17.698 22.3792 17.4139 21.852 17.0747 21.335C17.0218 21.2546 16.9809 21.1711 16.9518 21.0846C16.9234 21.0011 16.8836 20.9246 16.8323 20.8549C16.7534 20.7461 16.6895 20.6282 16.6405 20.5011C16.5723 20.3203 16.4842 20.1472 16.3762 19.9818C16.2238 19.7475 16.1017 19.5086 16.0098 19.265C15.9983 19.2352 15.9784 19.213 15.9501 19.1984C15.9317 19.1892 15.9175 19.1739 15.9076 19.1525C15.7054 18.706 15.4201 18.1626 15.0518 17.5224L15.1816 16.8125Z" fill="#9C6413"/>
<path d="M15.052 17.5234C15.4203 18.1637 15.7056 18.707 15.9078 19.1535C15.9177 19.1749 15.9319 19.1902 15.9503 19.1994C15.9786 19.214 15.9985 19.2362 16.01 19.2661C16.1019 19.5096 16.2241 19.7485 16.3765 19.9829C16.4844 20.1483 16.5725 20.3213 16.6407 20.5021C16.6897 20.6292 16.7536 20.7471 16.8325 20.8559C16.8838 20.9256 16.9236 21.0022 16.952 21.0856C16.9811 21.1722 17.022 21.2556 17.0749 21.3361C17.4141 21.853 17.6983 22.3802 17.9272 22.9179C17.9701 23.0189 18.0318 23.1028 18.1122 23.1694C18.1367 23.1893 18.1539 23.2142 18.1639 23.2441C18.2075 23.3796 18.2738 23.5087 18.3626 23.6312C18.4446 23.7445 18.51 23.8675 18.559 23.9999C18.628 24.1876 18.7225 24.3706 18.8428 24.549C18.9599 24.7236 19.0622 24.9132 19.1495 25.1177C19.2376 25.3244 19.3478 25.509 19.4803 25.6713C19.6258 25.8505 19.694 26.0328 19.6848 26.2181L19.4332 26.3273C19.0603 25.7024 18.7107 25.0717 18.3844 24.4353C18.2841 24.2377 18.1807 24.0612 18.0743 23.9058C17.9533 23.7296 17.8556 23.5516 17.7814 23.3716C17.748 23.2912 17.6722 23.2349 17.6424 23.1579C17.5466 22.9175 17.4417 22.6797 17.3276 22.4446C17.3108 22.4109 17.2843 22.3879 17.2483 22.3757C17.1702 22.3488 17.1339 22.2895 17.1392 22.1976C17.1415 22.1562 17.1258 22.1229 17.0921 22.0977C17.0255 22.0464 16.9807 21.9805 16.9577 21.9001C16.937 21.8273 16.9099 21.7573 16.8762 21.6899C16.5729 21.0833 16.2428 20.4737 15.8859 19.8611C15.8362 19.7761 15.7914 19.6842 15.7515 19.5854C15.7094 19.4797 15.6508 19.3851 15.5758 19.3017C15.5536 19.2756 15.5452 19.2458 15.5505 19.2121C15.5612 19.1523 15.539 19.111 15.4839 19.088C15.4556 19.0757 15.4383 19.0543 15.4322 19.0237C15.4023 18.8674 15.2817 18.8422 15.2128 18.7147C15.1446 18.5898 15.0749 18.426 15.0037 18.223C14.9578 18.0921 14.8724 18.0373 14.7476 18.0587C14.7904 17.8995 14.8919 17.721 15.052 17.5234Z" fill="#AE7809"/>
<path d="M32.9826 21.6578C33.0209 22.1808 32.9963 22.6912 32.909 23.189L32.4312 22.1908C32.4192 22.1654 32.3991 22.1444 32.3737 22.131C32.3485 22.1165 32.3293 22.0958 32.3163 22.069C32.0942 21.6133 31.8564 21.1669 31.6029 20.7296C31.5133 20.5764 31.4387 20.419 31.3789 20.2575C31.3177 20.0913 31.2553 19.9262 31.1917 19.7624C31.1771 19.7241 31.153 19.7168 31.1193 19.7405C31.0703 19.7742 31.0401 19.8255 31.0286 19.8945L30.7988 17.6384C30.808 17.6162 30.8153 17.6035 30.8207 17.6005C30.8284 17.596 30.8369 17.5932 30.8458 17.5922C30.8546 17.5912 30.8634 17.592 30.8718 17.5946C30.8802 17.5972 30.8878 17.6016 30.8942 17.6073C30.9007 17.6131 30.9057 17.6201 30.9091 17.628C31.0033 17.8379 31.0596 17.9589 31.078 17.991C31.159 18.1387 31.237 18.293 31.3112 18.4528C31.4628 18.7836 31.6833 19.0754 31.8269 19.412C31.9112 19.6096 32.0069 19.7995 32.1141 19.9818C32.1631 20.0652 32.2026 20.1537 32.2324 20.2471C32.2615 20.3383 32.3006 20.4263 32.3496 20.5113C32.4132 20.6224 32.4752 20.7349 32.5357 20.8491C32.5434 20.8628 32.6023 20.99 32.7126 21.2304C32.7815 21.3805 32.8715 21.523 32.9826 21.6578Z" fill="#743C10"/>
<path d="M19.4331 26.3277L18.4141 26.8768L16.8909 23.943C16.8725 23.907 16.8476 23.8771 16.8162 23.8534C16.7596 23.809 16.7389 23.7511 16.7542 23.6799C16.7584 23.6612 16.7572 23.6416 16.751 23.6234C16.7447 23.6052 16.7335 23.5889 16.7186 23.5765C16.6489 23.5168 16.598 23.4464 16.5658 23.3652C16.5383 23.2947 16.5019 23.2315 16.4567 23.1756C16.3663 23.0646 16.2993 22.9401 16.2557 22.8023C16.2197 22.689 16.1569 22.5794 16.0673 22.4738C15.9225 22.3045 15.8161 22.1123 15.7479 21.8971C15.7012 21.7508 15.6273 21.6103 15.5262 21.4755C15.4328 21.3515 15.3696 21.2136 15.3367 21.062C15.3293 21.0295 15.3095 21.0011 15.2815 20.9827C15.2417 20.9567 15.2233 20.9195 15.2264 20.8713C15.2295 20.8292 15.2207 20.7897 15.2 20.753L14.3315 19.2137C14.6448 18.9288 14.7834 18.544 14.7474 18.0592C14.8722 18.0378 14.9576 18.0925 15.0035 18.2235C15.0748 18.4264 15.1445 18.5903 15.2126 18.7151C15.2815 18.8426 15.4022 18.8679 15.432 19.0241C15.4382 19.0548 15.4554 19.0762 15.4837 19.0885C15.5389 19.1114 15.5611 19.1528 15.5503 19.2125C15.545 19.2462 15.5534 19.2761 15.5756 19.3021C15.6507 19.3856 15.7093 19.4802 15.7514 19.5859C15.7912 19.6847 15.836 19.7766 15.8858 19.8616C16.2426 20.4742 16.5727 21.0838 16.876 21.6903C16.9097 21.7577 16.9369 21.8278 16.9575 21.9005C16.9805 21.981 17.0253 22.0468 17.0919 22.0981C17.1256 22.1234 17.1413 22.1567 17.139 22.1981C17.1337 22.29 17.1701 22.3493 17.2482 22.3761C17.2842 22.3884 17.3106 22.4113 17.3274 22.445C17.4415 22.6801 17.5465 22.9179 17.6422 23.1584C17.672 23.2354 17.7479 23.2917 17.7812 23.3721C17.8555 23.552 17.9531 23.7301 18.0741 23.9062C18.1806 24.0617 18.2839 24.2382 18.3843 24.4358C18.7105 25.0722 19.0601 25.7028 19.4331 26.3277Z" fill="#C6911E"/>
<path d="M19.2739 18.1191C19.6683 18.0961 19.9715 18.2099 20.1837 18.4603C20.4448 19.0591 20.735 19.6308 21.0544 20.1753C21.1294 20.3032 21.1949 20.4319 21.2508 20.5613C21.3106 20.7014 21.3806 20.8324 21.461 20.9542C21.5843 21.1403 21.6916 21.3256 21.7827 21.5101C21.8761 21.6993 21.9703 21.8873 22.0653 22.0742C22.0852 22.1132 22.112 22.1462 22.1457 22.173C22.171 22.1929 22.1916 22.2151 22.2077 22.2396C22.2307 22.274 22.2621 22.2867 22.3019 22.2775C22.3387 22.2691 22.38 22.2748 22.426 22.2947C22.3134 22.3062 22.2491 22.351 22.233 22.4291C22.2246 22.4728 22.2341 22.5118 22.2617 22.5463L22.2881 22.5808C22.318 22.6183 22.3122 22.6493 22.2709 22.6738C22.1116 22.7657 21.9753 22.8878 21.8619 23.0402C21.4607 22.4919 21.1367 21.8996 20.8901 21.2632C20.8817 21.2425 20.8645 21.2253 20.8384 21.2115C20.8024 21.1931 20.7772 21.1651 20.7626 21.1276C20.7006 20.9725 20.619 20.8519 20.5627 20.69C20.4961 20.5008 20.4034 20.3178 20.2847 20.1409C20.235 20.0673 20.1921 19.9892 20.1561 19.9065C20.1163 19.8154 20.0634 19.7319 19.9976 19.6561C19.8333 19.4643 19.7896 19.2667 19.6564 19.0703C19.6227 19.0197 19.5986 18.9661 19.584 18.9094C19.5756 18.8765 19.5622 18.8459 19.5438 18.8175L19.19 18.2765C19.1632 18.2344 19.1697 18.198 19.2095 18.1674L19.2739 18.1191Z" fill="#AE7809"/>
<path d="M20.1831 18.46C20.422 18.5312 20.6346 18.5695 20.8207 18.5748C21.0504 18.5806 21.1768 18.6162 21.3548 18.7184C21.3717 18.7284 21.3759 18.7418 21.3674 18.7586L21.3548 18.7851C21.3525 18.7889 21.3491 18.79 21.3445 18.7885C21.1515 18.7027 20.9539 18.6794 20.7517 18.7184C20.6943 18.7291 20.6786 18.7605 20.7046 18.8126C20.8126 19.0293 20.9447 19.2116 21.1009 19.3594C21.4639 19.7006 22.0739 19.372 22.3714 19.8396C22.4947 20.0341 22.4695 20.0559 22.2956 19.9051C22.1394 19.7687 21.9701 19.6968 21.7879 19.6891C21.6317 19.6822 21.6194 19.7205 21.7511 19.804C22.4128 20.221 21.8557 21.102 22.9136 21.2766C22.9826 21.2881 23.0312 21.2628 23.0595 21.2008C23.0656 21.1867 23.0758 21.1747 23.089 21.1665C23.1021 21.1583 23.1175 21.1542 23.133 21.1549C23.2433 21.161 23.3482 21.1449 23.4478 21.1066C23.5098 21.0829 23.5259 21.1009 23.496 21.1606C23.4555 21.2418 23.3919 21.3 23.3054 21.3352C23.2765 21.347 23.2521 21.3675 23.2357 21.3939C23.2192 21.4203 23.2114 21.4512 23.2135 21.4823C23.2219 21.5964 23.2089 21.7059 23.1744 21.8108C23.0871 22.0796 22.6736 22.2404 22.4254 22.2944C22.3795 22.2745 22.3381 22.2687 22.3014 22.2772C22.2615 22.2864 22.2301 22.2737 22.2072 22.2393C22.1911 22.2148 22.1704 22.1925 22.1451 22.1726C22.1114 22.1458 22.0846 22.1129 22.0647 22.0738C21.9698 21.887 21.8756 21.699 21.7821 21.5098C21.691 21.3253 21.5838 21.1399 21.4605 20.9538C21.3801 20.8321 21.31 20.7011 21.2503 20.561C21.1944 20.4316 21.1289 20.3029 21.0538 20.175C20.7345 19.6305 20.4442 19.0588 20.1831 18.46Z" fill="#C6911E"/>
<path d="M14.3312 19.2129L15.1996 20.7522C15.2203 20.7889 15.2291 20.8284 15.226 20.8705C15.2229 20.9187 15.2413 20.9559 15.2812 20.9819C15.3091 21.0003 15.3289 21.0287 15.3363 21.0612C15.3692 21.2128 15.4324 21.3507 15.5258 21.4747C15.6269 21.6095 15.7008 21.75 15.7475 21.8963C15.8157 22.1115 15.9221 22.3037 16.0669 22.473C16.1565 22.5787 16.2193 22.6882 16.2553 22.8015C16.2989 22.9394 16.3659 23.0638 16.4563 23.1748C16.5015 23.2307 16.5379 23.2939 16.5654 23.3644C16.5976 23.4456 16.6485 23.516 16.7182 23.5757C16.7331 23.5882 16.7443 23.6044 16.7506 23.6226C16.7569 23.6408 16.758 23.6604 16.7538 23.6791C16.7385 23.7504 16.7592 23.8082 16.8159 23.8526C16.8473 23.8763 16.8721 23.9062 16.8905 23.9422L18.4137 26.876C17.9175 27.1242 17.3963 27.267 16.8503 27.3045C16.831 27.306 16.8116 27.3026 16.7938 27.2946C16.7761 27.2867 16.7606 27.2745 16.7488 27.2592C16.7369 27.2438 16.7291 27.2257 16.726 27.2066C16.7228 27.1874 16.7245 27.1678 16.7308 27.1494C16.9032 26.6409 16.9238 26.1401 16.7929 25.6469C16.727 25.4003 16.6906 25.1499 16.6837 24.8956C16.6596 24.0605 15.8004 23.9066 15.1341 23.8825C14.4391 23.8572 14.5012 23.1817 14.6528 22.7211C14.6584 22.7041 14.6592 22.6859 14.6552 22.6683C14.6511 22.6507 14.6424 22.6344 14.6298 22.6212C14.4774 22.4657 14.4793 22.3007 14.6356 22.1261C14.6731 22.0839 14.6735 22.0414 14.6367 21.9985L14.4345 21.7654C14.4116 21.7378 14.4047 21.7068 14.4139 21.6723L14.4782 21.4449C14.4864 21.4157 14.4879 21.385 14.4824 21.3551C14.477 21.3253 14.4649 21.2971 14.447 21.2726C14.429 21.2481 14.4058 21.2281 14.3789 21.2139C14.3521 21.1998 14.3224 21.192 14.2921 21.191L13.6879 21.1715C13.6528 21.1703 13.6195 21.1557 13.5949 21.1307C13.5704 21.1057 13.5563 21.0721 13.5558 21.0371C13.5535 20.913 13.5929 20.7924 13.6741 20.6752C13.9605 20.2624 14.1795 19.775 14.3312 19.2129Z" fill="#E8AC17"/>
<path d="M30.3312 22.019L30.2118 22.4739C30.0471 21.983 29.7871 21.46 29.4318 20.9047C29.3973 20.8511 29.3667 20.8083 29.3399 20.7761C29.3151 20.7467 29.2984 20.7115 29.2916 20.6739C29.2748 20.5873 29.2361 20.5165 29.1756 20.4613C29.1496 20.4368 29.1316 20.4077 29.1216 20.374C29.1063 20.3197 29.078 20.2653 29.0366 20.2109L29.1228 19.3184C29.2331 19.3988 29.3196 19.5117 29.3824 19.6572C29.5287 19.9942 29.6772 20.2902 29.8281 20.5452C30.0234 20.876 30.1781 21.2149 30.2922 21.5618C30.2975 21.5787 30.3094 21.5875 30.3278 21.5882C30.3423 21.5882 30.3538 21.5932 30.3623 21.6032C30.3737 21.6147 30.3783 21.6284 30.376 21.6445L30.3312 22.019Z" fill="#9C6413"/>
<path d="M32.9088 23.1887C32.7778 24.0701 32.6216 24.9466 32.4401 25.8181C32.4187 25.9199 32.3861 26.0318 32.3425 26.1535C32.2942 26.2898 32.2598 26.4016 32.2391 26.4889C31.9948 25.8242 31.6823 25.1503 31.3017 24.4672C31.2833 24.435 31.2584 24.4101 31.2271 24.3925C31.1918 24.3718 31.17 24.3393 31.1616 24.2949C31.1524 24.2497 31.1252 24.2279 31.08 24.2294C31.3075 22.7874 31.2902 21.3423 31.0283 19.8941C31.0398 19.8252 31.0701 19.7739 31.1191 19.7402C31.1528 19.7165 31.1769 19.7237 31.1914 19.762C31.255 19.9259 31.3174 20.0909 31.3787 20.2571C31.4384 20.4187 31.5131 20.5761 31.6027 20.7292C31.8562 21.1665 32.094 21.613 32.316 22.0687C32.3291 22.0955 32.3482 22.1161 32.3735 22.1307C32.3988 22.1441 32.419 22.165 32.4309 22.1904L32.9088 23.1887Z" fill="#895407"/>
<path d="M29.0368 20.2119C29.0781 20.2663 29.1064 20.3207 29.1218 20.375C29.1317 20.4087 29.1497 20.4378 29.1758 20.4623C29.2363 20.5175 29.2749 20.5883 29.2918 20.6749C29.2986 20.7125 29.3152 20.7477 29.34 20.7771C29.3668 20.8093 29.3975 20.8521 29.4319 20.9057C29.7873 21.461 30.0473 21.984 30.2119 22.4749C29.9745 23.2491 29.6996 23.9583 29.3871 24.6023C29.3634 24.479 29.3201 24.3619 29.2573 24.2508C29.2412 24.2233 29.2198 24.2007 29.193 24.1831C29.1003 24.1226 29.0525 24.0349 29.0494 23.92C29.0494 23.8917 29.0429 23.8652 29.0299 23.8407L28.4233 22.6782C28.7228 21.8864 28.9272 21.0643 29.0368 20.2119Z" fill="#B58005"/>
<path d="M28.4234 22.6787L29.0299 23.8412C29.043 23.8657 29.0495 23.8921 29.0495 23.9205C29.0525 24.0354 29.1004 24.123 29.1931 24.1835C29.2199 24.2012 29.2413 24.2237 29.2574 24.2513C29.3202 24.3624 29.3634 24.4795 29.3872 24.6028L28.7726 25.7125C28.7703 25.5011 28.7213 25.315 28.6256 25.1542C28.4985 24.9421 28.433 24.8314 28.4291 24.8222C28.2714 24.4937 28.088 24.1724 27.8789 23.8585L28.4234 22.6787Z" fill="#C6911E"/>
<path d="M27.8787 23.8584C28.0878 24.1724 28.2712 24.4936 28.4289 24.8222C28.4328 24.8314 28.4982 24.942 28.6254 25.1542C28.7211 25.315 28.7701 25.5011 28.7724 25.7124L27.9051 26.9519C27.886 26.857 27.8408 26.7459 27.7696 26.6188C27.5237 26.1769 27.2576 25.7235 26.9712 25.2587L27.8787 23.8584Z" fill="#E8AC17"/>
<path d="M31.0803 24.2296C31.1255 24.228 31.1527 24.2499 31.1619 24.295C31.1703 24.3395 31.1921 24.372 31.2273 24.3927C31.2587 24.4103 31.2836 24.4352 31.302 24.4674C31.6826 25.1505 31.9951 25.8244 32.2394 26.4891L31.441 28.3064C31.163 27.8607 30.8976 27.3928 30.6449 26.9027C30.6066 26.8276 30.5243 26.7388 30.3979 26.6361C30.6828 25.8864 30.9103 25.0842 31.0803 24.2296Z" fill="#B58005"/>
<path d="M26.9709 25.2578C27.2573 25.7227 27.5235 26.176 27.7693 26.6179C27.8405 26.745 27.8857 26.8561 27.9048 26.951L27.049 27.9091L26.6355 27.2405C26.6179 27.2122 26.5953 27.1888 26.5677 27.1704C26.5034 27.126 26.464 27.0617 26.4494 26.9775C26.4371 26.9078 26.4126 26.8385 26.3759 26.7695C26.284 26.5965 26.2017 26.4253 26.1289 26.2561L26.9709 25.2578Z" fill="#F3BD02"/>
<path d="M26.1289 26.2568C26.2016 26.4261 26.2839 26.5972 26.3758 26.7703C26.4126 26.8392 26.4371 26.9085 26.4493 26.9782C26.4639 27.0625 26.5033 27.1268 26.5677 27.1712C26.5952 27.1896 26.6178 27.213 26.6354 27.2413L27.049 27.9099L25.7199 29.0999L24.7642 27.5308L26.1289 26.2568Z" fill="#C6911E"/>
<path d="M31.4406 28.3079L30.926 29.1637C30.9436 29.0787 30.952 29.0025 30.9512 28.9351C30.9501 28.7916 30.8283 28.6526 30.7674 28.5251C30.7368 28.463 30.6989 28.4029 30.6537 28.3447C30.5197 28.1709 30.401 27.9695 30.2976 27.7405C30.2379 27.6072 30.1353 27.5375 29.9897 27.5314L30.3975 26.6377C30.5239 26.7403 30.6062 26.8292 30.6445 26.9042C30.8972 27.3943 31.1626 27.8622 31.4406 28.3079Z" fill="#C6911E"/>
<path d="M24.7642 27.5312L25.72 29.1004L24.9848 29.6392C24.9763 29.5924 24.9511 29.5538 24.9089 29.5231C24.8776 29.5017 24.8576 29.4722 24.8492 29.4347C24.8278 29.342 24.7822 29.2631 24.7125 29.1981C24.6375 29.1276 24.59 29.0426 24.5701 28.943C24.5548 28.8695 24.5253 28.796 24.4816 28.7225C24.3422 28.4897 24.2224 28.2477 24.1221 27.9965L24.7642 27.5312Z" fill="#AE7809"/>
<path d="M29.9901 27.5312C30.1356 27.5374 30.2383 27.6071 30.298 27.7403C30.4014 27.9693 30.5201 28.1707 30.6541 28.3445C30.6993 28.4027 30.7372 28.4629 30.7678 28.5249C30.8287 28.6524 30.9505 28.7914 30.9516 28.935C30.9524 29.0024 30.944 29.0786 30.9264 29.1636L30.0131 30.4536L29.1274 28.8856L29.9901 27.5312Z" fill="#E8AC17"/>
<path d="M24.1225 27.9961C24.2228 28.2473 24.3426 28.4893 24.482 28.7221C24.5257 28.7956 24.5551 28.8691 24.5705 28.9426C24.5904 29.0422 24.6378 29.1272 24.7129 29.1977C24.7826 29.2628 24.8282 29.3416 24.8496 29.4343C24.858 29.4718 24.8779 29.5013 24.9093 29.5228C24.9514 29.5534 24.9767 29.5921 24.9851 29.6388L24.3085 30.0718L23.9168 29.3677C23.9061 29.3478 23.9015 29.3267 23.903 29.3045C23.9053 29.2723 23.8962 29.2421 23.8755 29.2137C23.6978 28.9649 23.5328 28.7022 23.3804 28.4257L24.1225 27.9961Z" fill="#895407"/>
<path d="M23.38 28.4258C23.5324 28.7022 23.6974 28.9649 23.8751 29.2138C23.8958 29.2421 23.905 29.2724 23.9027 29.3046C23.9011 29.3268 23.9057 29.3478 23.9165 29.3677L24.3082 30.0719L23.2858 30.6382L23.2536 30.482C23.2467 30.446 23.2345 30.4119 23.2169 30.3798L22.4116 28.8864L23.38 28.4258Z" fill="#743C10"/>
<path d="M22.4117 28.8867L23.217 30.3801C23.2346 30.4122 23.2469 30.4463 23.2537 30.4823L23.2859 30.6385L22.3118 31.0681L21.3457 29.2761L22.4117 28.8867Z" fill="#895407"/>
<path d="M29.127 28.8838L30.0127 30.4518L29.196 31.3191C29.0252 31.1338 28.8812 30.932 28.764 30.7137C28.7595 30.7045 28.6875 30.5839 28.5481 30.3519C28.4271 30.1497 28.3723 29.928 28.3838 29.6867L29.127 28.8838Z" fill="#F3BD02"/>
<path d="M21.3457 29.2754L22.3118 31.0674L21.4341 31.3787C21.2687 31.018 21.0826 30.6726 20.8758 30.3426C20.8667 30.3272 20.8621 30.3108 20.8621 30.2932C20.8621 30.2817 20.8621 30.2702 20.8621 30.2587C20.8613 30.2411 20.8575 30.2246 20.8506 30.2093L20.6013 29.6579C20.599 29.6518 20.5944 29.648 20.5875 29.6464C20.5776 29.6441 20.5691 29.6392 20.5622 29.6315C20.5477 29.6169 20.5408 29.5963 20.5416 29.5695L21.3457 29.2754Z" fill="#B58005"/>
<path d="M13.5845 29.3252L15.357 29.8168L15.8957 30.93C15.9103 30.9591 15.9198 30.9897 15.9244 31.0219C15.9298 31.0625 15.947 31.0954 15.9761 31.1207C16.0037 31.1444 16.0259 31.1727 16.0428 31.2057C16.1094 31.3381 16.1756 31.4668 16.2415 31.5916C16.3273 31.7532 16.4632 31.8585 16.6493 31.9075L14.7803 31.7122C14.7918 31.7061 14.7983 31.6927 14.7998 31.672C14.8014 31.6414 14.7949 31.6127 14.7803 31.5859L13.5845 29.3252Z" fill="#AE7809"/>
<path d="M20.5421 29.5693C20.5413 29.5961 20.5482 29.6168 20.5627 29.6314C20.5696 29.639 20.5781 29.644 20.588 29.6463C20.5949 29.6478 20.5995 29.6517 20.6018 29.6578L20.8511 30.2092C20.858 30.2245 20.8618 30.241 20.8626 30.2586C20.8626 30.2701 20.8626 30.2815 20.8626 30.293C20.8626 30.3106 20.8671 30.3271 20.8763 30.3424C21.0831 30.6725 21.2692 31.0179 21.4346 31.3786C20.2553 31.7645 19.0208 31.9518 17.7311 31.9403C17.7487 31.7358 17.7392 31.6033 17.7024 31.5428C17.3853 31.0167 17.1035 30.4807 16.8569 29.9346C17.3968 29.9285 18.1619 29.8956 19.1521 29.8358C19.6706 29.8044 20.1339 29.7156 20.5421 29.5693Z" fill="#E8AC17"/>
<path d="M28.3837 29.6875C28.3722 29.9287 28.4269 30.1504 28.5479 30.3526C28.6873 30.5847 28.7593 30.7053 28.7639 30.7145C28.8811 30.9327 29.025 31.1345 29.1958 31.3198L28.2228 32.1205C28.0926 32.0087 27.9828 31.8747 27.8932 31.7184C27.6772 31.3417 27.475 30.9545 27.2866 30.5571L28.3837 29.6875Z" fill="#E8AC17"/>
<path d="M15.3574 29.8184L16.8565 29.9355C17.1031 30.4816 17.3849 31.0176 17.702 31.5437C17.7387 31.6042 17.7483 31.7367 17.7307 31.9412L16.6497 31.909C16.4636 31.86 16.3277 31.7547 16.2419 31.5931C16.1761 31.4683 16.1098 31.3397 16.0432 31.2072C16.0264 31.1742 16.0042 31.1459 15.9766 31.1222C15.9475 31.0969 15.9303 31.064 15.9249 31.0234C15.9203 30.9912 15.9107 30.9606 15.8962 30.9315L15.3574 29.8184Z" fill="#C6911E"/>
<path d="M27.2871 30.5576C27.4755 30.9551 27.6777 31.3422 27.8936 31.719C27.9832 31.8752 28.0931 32.0092 28.2233 32.121L26.6289 33.0791L25.6973 31.4754L27.2871 30.5576Z" fill="#AE7809"/>
<path d="M25.6969 31.4746L26.6285 33.0782L26.2586 33.2402L26.1346 32.9507C26.12 32.9155 26.0986 32.8849 26.0702 32.8588C25.9937 32.7876 25.9385 32.6984 25.9048 32.5912C25.8956 32.5628 25.8784 32.541 25.8531 32.5257C25.8416 32.5188 25.8302 32.5111 25.8187 32.5027C25.7988 32.4882 25.7831 32.4663 25.7716 32.4372C25.6605 32.1501 25.5311 31.8705 25.3833 31.5987L25.6969 31.4746Z" fill="#895407"/>
<path d="M25.3832 31.5996C25.531 31.8715 25.6604 32.151 25.7715 32.4382C25.783 32.4673 25.7987 32.4891 25.8186 32.5037C25.8301 32.5121 25.8415 32.5197 25.853 32.5266C25.8783 32.5419 25.8955 32.5638 25.9047 32.5921C25.9384 32.6993 25.9936 32.7885 26.0701 32.8598C26.0985 32.8858 26.1199 32.9164 26.1345 32.9517L26.2585 33.2411L24.988 33.7489L24.1426 32.0614L25.3832 31.5996Z" fill="#743C10"/>
<path d="M15.0806 31.9482L16.3189 32.1998C16.2921 32.255 16.2611 32.2787 16.2259 32.271C16.2155 32.2692 16.2048 32.2703 16.195 32.2742C16.1853 32.2781 16.1768 32.2847 16.1706 32.2932C16.1643 32.3017 16.1606 32.3118 16.1598 32.3223C16.159 32.3328 16.1612 32.3433 16.1661 32.3526C16.3943 32.7707 16.6206 33.1697 16.845 33.5496C16.8649 33.5833 16.8891 33.6112 16.9174 33.6334C16.9587 33.6648 16.9848 33.705 16.9955 33.754C17.0185 33.8586 17.1 33.9631 17.169 34.0435C17.1965 34.0749 17.1946 34.1044 17.1632 34.132L17.084 34.2032L16.2086 33.9378L15.9042 33.4381C15.9 33.431 15.894 33.425 15.8868 33.4206C15.8796 33.4162 15.8714 33.4136 15.8629 33.4129C15.8414 33.4106 15.8234 33.3995 15.8089 33.3796C15.4972 32.9499 15.2544 32.4728 15.0806 31.9482Z" fill="#AE7809"/>
<path d="M24.1429 32.0605L24.9883 33.748L24.2129 34.018L23.3996 32.6809C23.3797 32.6487 23.3625 32.6154 23.348 32.5809L23.2319 32.311L24.1429 32.0605Z" fill="#895407"/>
<path d="M16.3189 32.2012L19.7478 32.7445C19.8352 32.9972 19.9542 33.2339 20.1051 33.4544C20.1472 33.5157 20.1775 33.5785 20.1959 33.6428C20.2165 33.714 20.2472 33.7803 20.2878 33.8416C20.3475 33.9304 20.3992 34.0246 20.4428 34.1241C20.5447 34.3554 20.6833 34.5404 20.8587 34.679C19.5966 34.7395 18.3384 34.5813 17.0839 34.2045L17.1632 34.1333C17.1946 34.1058 17.1965 34.0763 17.169 34.0449C17.1 33.9645 17.0185 33.8599 16.9955 33.7554C16.9848 33.7064 16.9587 33.6662 16.9174 33.6348C16.889 33.6126 16.8649 33.5846 16.845 33.5509C16.6206 33.1711 16.3943 32.7721 16.1661 32.354C16.1612 32.3446 16.159 32.3341 16.1598 32.3236C16.1606 32.3131 16.1643 32.303 16.1705 32.2945C16.1768 32.2861 16.1852 32.2795 16.195 32.2756C16.2048 32.2716 16.2155 32.2705 16.2258 32.2724C16.2611 32.2801 16.2921 32.2563 16.3189 32.2012Z" fill="#C6911E"/>
<path d="M23.2323 32.3115L23.3483 32.5815C23.3628 32.6159 23.3801 32.6492 23.4 32.6814L24.2133 34.0185C23.776 34.2008 23.3858 34.3076 23.0427 34.339C22.7793 33.7608 22.5794 33.3649 22.4431 33.1512C22.2562 32.8587 22.1352 32.6573 22.0801 32.547L23.2323 32.3115Z" fill="#B58005"/>
<path d="M22.0796 32.5469C22.1348 32.6572 22.2558 32.8586 22.4426 33.1511C22.5789 33.3648 22.7788 33.7607 23.0423 34.3389L22.3645 34.51L21.3789 32.6755L22.0796 32.5469Z" fill="#C6911E"/>
<path d="M21.3788 32.6748L22.3644 34.5093L20.8584 34.677C20.683 34.5384 20.5444 34.3535 20.4425 34.1222C20.3989 34.0226 20.3472 33.9284 20.2875 33.8396C20.2469 33.7783 20.2162 33.7121 20.1956 33.6409C20.1772 33.5766 20.1469 33.5138 20.1048 33.4525C19.9539 33.2319 19.8349 32.9953 19.7476 32.7426L21.3788 32.6748Z" fill="#E8AC17"/>
<circle cx="20" cy="20" r="19.5" stroke="black" stroke-opacity="0.05"/>
</svg>
