<svg width="40" height="40" viewBox="0 0 40 40" fill="none" xmlns="http://www.w3.org/2000/svg">
<circle cx="20" cy="20" r="20" fill="#2C6CBE"/>
<g clip-path="url(#clip0_9_410842)">
<path d="M25.8388 12.9684C24.8469 12.2661 23.7079 11.7995 22.5085 11.604C21.309 11.4085 20.0808 11.4893 18.9173 11.8403L13.3213 13.5209V16.7266L25.8388 12.9684ZM28.5824 16.4728C28.1909 15.4664 27.5915 14.5539 26.8235 13.7947L13.3213 17.8492V21.0561L28.5824 16.4728ZM28.9686 20.6858C29.1683 19.6567 29.1568 18.5747 28.9018 17.4989L13.3225 22.1793V25.3851L28.9692 20.687L28.9686 20.6858ZM23.5274 26.6491C25.9796 25.9127 27.801 24.107 28.6225 21.9122L13.3213 26.5071V29.714L23.5274 26.6491Z" fill="white"/>
</g>
<circle cx="20" cy="20" r="19.5" stroke="black" stroke-opacity="0.05"/>
<defs>
<clipPath id="clip0_9_410842">
<rect width="17" height="19" fill="white" transform="translate(13 11)"/>
</clipPath>
</defs>
</svg>
