<svg width="40" height="40" viewBox="0 0 40 40" fill="none" xmlns="http://www.w3.org/2000/svg">
<circle cx="20" cy="20" r="20" fill="#007EE5"/>
<path d="M8 13.6096L12.8817 17.5187L20.0001 13.1233L15.06 9L8 13.6096Z" fill="white"/>
<path d="M15.06 26.0385L20.0001 21.9149L12.8817 17.5195L8 21.4289L15.06 26.0385Z" fill="white"/>
<path d="M24.9401 26.0385L31.9999 21.4289L27.1184 17.5195L20 21.9149L24.9401 26.0385Z" fill="white"/>
<path d="M24.9401 9L20 13.1233L27.1184 17.5187L31.9999 13.6096L24.9401 9Z" fill="white"/>
<path d="M27.089 27.0797V25.528L24.9691 26.9122L20.0142 22.8008L15.0599 26.9122L12.9399 25.528V27.0797L20.0142 31.3224L27.089 27.0797Z" fill="white"/>
<circle cx="20" cy="20" r="19.5" stroke="black" stroke-opacity="0.05"/>
</svg>
