<svg width="40" height="40" viewBox="0 0 40 40" fill="none" xmlns="http://www.w3.org/2000/svg">
<circle cx="20" cy="20" r="20" fill="#017FC2"/>
<g clip-path="url(#clip0_9_400545)">
<path d="M35.4285 24.5V22.5714H31.5714V15.5H29.6428V24.5H35.4285Z" fill="white"/>
<path fill-rule="evenodd" clip-rule="evenodd" d="M13.1247 18.8669L18.1808 14.8574H18.184L19.6099 16.0583L14.8129 19.7997L15.8498 20.7351L20.6481 16.8638L22.0739 18.0646L19.6099 20.0678L17.2756 21.9385L18.3126 22.8739L23.2144 18.8644V15.5003H25.1429V22.5717H29.0001V24.5003H23.2144V21.1362L18.1808 25.1431L13.1247 21.1362V21.0591C12.8996 21.9864 12.3858 22.8182 11.6573 23.4345C10.9288 24.0508 10.0233 24.4198 9.0715 24.4881V24.5003H5.21436V15.5003H9.0715V15.5119C10.0235 15.5802 10.9291 15.9494 11.6576 16.5659C12.3861 17.1825 12.8999 18.0146 13.1247 18.9421V18.8669ZM7.14293 17.4289H8.75007C9.43206 17.4289 10.0861 17.6998 10.5683 18.182C11.0506 18.6642 11.3215 19.3183 11.3215 20.0003C11.3215 20.6823 11.0506 21.3363 10.5683 21.8186C10.0861 22.3008 9.43206 22.5717 8.75007 22.5717H7.14293V17.4289Z" fill="white"/>
</g>
<circle cx="20" cy="20" r="19.5" stroke="black" stroke-opacity="0.05"/>
<defs>
<clipPath id="clip0_9_400545">
<rect width="31" height="12" fill="white" transform="translate(5 14)"/>
</clipPath>
</defs>
</svg>
