<svg width="40" height="40" viewBox="0 0 40 40" fill="none" xmlns="http://www.w3.org/2000/svg">
<circle cx="20" cy="20" r="20" fill="#C80651"/>
<g clip-path="url(#clip0_9_400160)">
<path d="M14.159 20.7716C14.1783 20.733 14.2117 20.6687 14.2246 20.6366L15.0307 18.7337L15.824 20.6559C15.8368 20.688 15.8632 20.7395 15.8831 20.7845L15.7841 20.8037C15.5591 20.8616 15.3084 20.9002 15.0513 20.9002C14.7928 20.9002 14.5556 20.868 14.3043 20.8037C14.258 20.7909 14.1918 20.7716 14.159 20.7716ZM5.9587 17.7502C6.85741 17.7502 7.49191 18.0523 7.88855 18.393C8.36427 18.798 8.60213 19.3316 8.60213 20.0002C8.60213 20.6366 8.3707 21.1637 7.91427 21.5752C7.51827 21.9416 6.87091 22.236 5.9587 22.236H5.66813V17.7502H5.9587ZM33.7108 18.4187C34.1602 18.843 34.3781 19.3766 34.3781 20.0002C34.3781 20.6173 34.1531 21.1445 33.7102 21.5816C33.4998 21.7918 33.2492 21.9576 32.9735 22.0692C32.6977 22.1807 32.4024 22.2357 32.105 22.2309C30.8431 22.2309 29.8389 21.2216 29.8389 20.0002C29.8389 19.383 30.0639 18.8495 30.5062 18.4123C30.9421 17.9816 31.4833 17.7695 32.105 17.7695C32.726 17.7695 33.2621 17.988 33.7108 18.4187ZM23.0658 18.7916L23.8655 18.123C23.1776 17.2295 22.2596 16.7859 21.1758 16.7859C19.3327 16.7859 17.8458 18.2195 17.8458 20.013C17.8458 21.768 19.3256 23.2145 21.1301 23.2145C21.5859 23.2145 22.0218 23.118 22.4448 22.9316C22.848 22.7586 23.2087 22.4997 23.5016 22.173C23.7793 21.8709 23.9581 21.5237 24.0635 21.1445C24.164 20.7653 24.202 20.3723 24.176 19.9809L24.1631 19.7945H21.2818V20.643H23.0523C23.0066 21.0287 22.8016 21.498 22.4448 21.7745C22.0552 22.083 21.6123 22.2309 21.1166 22.2309C20.5419 22.2309 20.0263 21.9995 19.5506 21.543C19.1212 21.1187 18.9033 20.6109 18.9033 20.0195C18.9033 19.3959 19.1283 18.8559 19.5905 18.4059C20.0263 17.9752 20.5548 17.7695 21.1629 17.7695C21.9427 17.7695 22.5573 18.1166 23.0658 18.7916ZM16.2933 21.7552L16.8815 23.2145H18.0444L15.3155 16.7859H14.7864L11.9848 23.2145H13.142L13.7559 21.7295C13.7688 21.6909 13.7752 21.6652 13.7823 21.6395C13.8086 21.6523 13.8485 21.6652 13.8941 21.6845C14.5951 21.9331 15.3576 21.9489 16.0683 21.7295C16.1878 21.6909 16.2271 21.6716 16.2598 21.6523C16.2663 21.678 16.2862 21.7359 16.2933 21.7552ZM5.92591 23.2145C7.10234 23.2145 8.00748 22.8609 8.61498 22.3273C9.30927 21.723 9.65963 20.9516 9.65963 20.0066C9.65963 19.023 9.3022 18.2323 8.58862 17.6409C7.98755 17.1395 7.09527 16.7666 5.93877 16.7666H4.57141V23.2145H5.92591ZM11.6428 16.7859H10.5178V23.2145H11.6428V16.7859ZM25.7857 20.2123H28.1533V19.2352H25.7857V17.8723H28.352V16.7859H24.8626V23.2145H28.3584V22.1345H25.7857V20.2123ZM29.7586 17.7309C29.1054 18.3545 28.7814 19.1195 28.7814 20.0066C28.7814 21.8002 30.2683 23.2145 32.105 23.2145C33.9481 23.2145 35.4286 21.8066 35.4286 20.0066C35.4286 19.1259 35.0981 18.3737 34.4572 17.7373C33.8092 17.1009 33.0236 16.7859 32.1043 16.7859C31.1934 16.7859 30.4066 17.1009 29.7586 17.7309Z" fill="white"/>
</g>
<circle cx="20" cy="20" r="19.5" stroke="black" stroke-opacity="0.05"/>
<defs>
<clipPath id="clip0_9_400160">
<rect width="32" height="8" fill="white" transform="translate(4 16)"/>
</clipPath>
</defs>
</svg>
