<svg width="42" height="42" viewBox="0 0 42 42" fill="none" xmlns="http://www.w3.org/2000/svg">
<circle cx="21" cy="21" r="21" fill="#004181"/>
<mask id="mask0_9_337864" style="mask-type:luminance" maskUnits="userSpaceOnUse" x="6" y="11" width="30" height="21">
<path fill-rule="evenodd" clip-rule="evenodd" d="M6 11.0178H35.9721V31.8728H6V11.0178Z" fill="white"/>
</mask>
<g mask="url(#mask0_9_337864)">
<path fill-rule="evenodd" clip-rule="evenodd" d="M20.9862 11.0178C29.2627 11.0178 35.9735 15.6864 35.9735 21.4453C35.9735 27.2042 29.2627 31.8728 20.9862 31.8728C12.7097 31.8728 6 27.2042 6 21.4453C6 15.6864 12.7097 11.0178 20.9862 11.0178Z" fill="white"/>
</g>
<path fill-rule="evenodd" clip-rule="evenodd" d="M21.078 27.4599C17.1158 27.9565 15.2983 29.2362 14.1304 30.7899C16.1488 31.4814 18.4714 31.8703 21.0207 31.8703C29.8564 31.8703 36 27.2025 36 21.4438C36 20.9322 35.9504 20.4312 35.8568 19.9402C35.5631 26.7026 25.4113 26.9213 21.078 27.4599Z" fill="#007DC4"/>
<mask id="mask1_9_337864" style="mask-type:luminance" maskUnits="userSpaceOnUse" x="14" y="19" width="22" height="13">
<path fill-rule="evenodd" clip-rule="evenodd" d="M21.0473 27.4472C17.0844 27.9416 15.2673 29.2221 14.0999 30.7751C16.1177 31.4671 18.4399 31.8559 20.9892 31.8559C29.8246 31.8559 35.9691 27.1884 35.9691 21.4295C35.9691 20.9181 35.9194 20.4174 35.8254 19.925C35.5317 26.6887 25.3799 26.9074 21.0473 27.4472Z" fill="white"/>
</mask>
<g mask="url(#mask1_9_337864)">
<path fill-rule="evenodd" clip-rule="evenodd" d="M35.0575 31.8558H35.9682V19.926H35.0575V31.8558Z" fill="#69BD4B"/>
<path fill-rule="evenodd" clip-rule="evenodd" d="M34.1454 31.8558H35.0571V19.926H34.1454V31.8558Z" fill="#64BA50"/>
<path fill-rule="evenodd" clip-rule="evenodd" d="M33.234 31.8558H34.1447V19.926H33.234V31.8558Z" fill="#60B756"/>
<path fill-rule="evenodd" clip-rule="evenodd" d="M32.3236 31.8558H33.2343V19.926H32.3236V31.8558Z" fill="#5BB55B"/>
<path fill-rule="evenodd" clip-rule="evenodd" d="M31.4127 31.8558H32.3234V19.926H31.4127V31.8558Z" fill="#57B260"/>
<path fill-rule="evenodd" clip-rule="evenodd" d="M30.5001 31.8558H31.4118V19.926H30.5001V31.8558Z" fill="#52AF65"/>
<path fill-rule="evenodd" clip-rule="evenodd" d="M29.59 31.8558H30.5007V19.926H29.59V31.8558Z" fill="#4EAC6B"/>
<path fill-rule="evenodd" clip-rule="evenodd" d="M28.6784 31.8558H29.5891V19.926H28.6784V31.8558Z" fill="#49AA70"/>
<path fill-rule="evenodd" clip-rule="evenodd" d="M27.7675 31.8558H28.6782V19.926H27.7675V31.8558Z" fill="#44A775"/>
<path fill-rule="evenodd" clip-rule="evenodd" d="M26.8571 31.8558H27.7678V19.926H26.8571V31.8558Z" fill="#40A47A"/>
<path fill-rule="evenodd" clip-rule="evenodd" d="M25.9447 31.8558H26.8564V19.926H25.9447V31.8558Z" fill="#3BA180"/>
<path fill-rule="evenodd" clip-rule="evenodd" d="M25.0336 31.8558H25.9443V19.926H25.0336V31.8558Z" fill="#379E85"/>
<path fill-rule="evenodd" clip-rule="evenodd" d="M24.122 31.8558H25.0327V19.926H24.122V31.8558Z" fill="#329C8A"/>
<path fill-rule="evenodd" clip-rule="evenodd" d="M23.2118 31.8558H24.1225V19.926H23.2118V31.8558Z" fill="#2E998F"/>
<path fill-rule="evenodd" clip-rule="evenodd" d="M22.2982 31.8558H23.2099V19.926H22.2982V31.8558Z" fill="#299695"/>
<path fill-rule="evenodd" clip-rule="evenodd" d="M21.3883 31.8558H22.299V19.926H21.3883V31.8558Z" fill="#25939A"/>
<path fill-rule="evenodd" clip-rule="evenodd" d="M20.4779 31.8558H21.3886V19.926H20.4779V31.8558Z" fill="#20909F"/>
<path fill-rule="evenodd" clip-rule="evenodd" d="M19.5663 31.8558H20.477V19.926H19.5663V31.8558Z" fill="#1B8EA4"/>
<path fill-rule="evenodd" clip-rule="evenodd" d="M18.6554 31.8558H19.5661V19.926H18.6554V31.8558Z" fill="#178BAA"/>
<path fill-rule="evenodd" clip-rule="evenodd" d="M17.7425 31.8558H18.6543V19.926H17.7425V31.8558Z" fill="#1288AF"/>
<path fill-rule="evenodd" clip-rule="evenodd" d="M16.8327 31.8558H17.7434V19.926H16.8327V31.8558Z" fill="#0E85B4"/>
<path fill-rule="evenodd" clip-rule="evenodd" d="M15.9215 31.8558H16.8322V19.926H15.9215V31.8558Z" fill="#0983B9"/>
<path fill-rule="evenodd" clip-rule="evenodd" d="M15.0099 31.8558H15.9206V19.926H15.0099V31.8558Z" fill="#0580BF"/>
<path fill-rule="evenodd" clip-rule="evenodd" d="M14.0998 31.8558H15.0104V19.926H14.0998V31.8558Z" fill="#007DC4"/>
</g>
<path fill-rule="evenodd" clip-rule="evenodd" d="M28.2257 16.6386C29.5294 16.6386 30.0852 17.0327 30.0852 17.9571C30.0852 19.0083 29.4005 19.4985 27.9342 19.4985H27.3943L27.3985 16.6386H28.2257ZM28.0472 20.1523C29.559 20.1523 30.3218 20.7449 30.3218 21.9145C30.3218 23.1474 29.6636 23.7475 28.3071 23.7475C27.65 23.7475 27.3943 23.5087 27.3943 22.9012V20.1523H28.0472ZM11.9871 16.6788C14.249 16.6788 15.3045 17.7754 15.3045 20.1303C15.3045 22.5634 14.3673 23.7477 12.4414 23.7477C11.031 23.7477 10.9158 23.6801 10.9158 22.8444V16.7306C11.087 16.7168 11.6089 16.6788 11.9871 16.6788ZM12.4642 15.9836H9.50072L9.53664 16.0681C9.6687 16.3882 9.66025 16.9704 9.65179 17.487C9.64862 17.5905 9.64651 22.5412 9.64651 23.9537L9.64546 24.3267L9.70568 24.3288C9.71624 24.3298 10.7886 24.3679 11.9201 24.3753L12.3205 24.3774C14.968 24.3774 16.7461 22.5835 16.7461 19.9148C16.7461 17.5261 15.0663 15.9836 12.4642 15.9836ZM22.6053 15.9073C19.3894 15.9073 17.4687 17.5998 17.4687 20.4344C17.4687 23.4538 19.8141 24.5283 22.0084 24.5283C22.9392 24.5283 23.9016 24.4596 24.6475 24.337L24.7046 24.3275L24.6993 24.2715C24.656 23.7813 24.637 23.4485 24.637 23.1601V20.2389H23.2297L23.2752 20.3287C23.2773 20.3308 23.4178 20.6108 23.4178 21.2236C23.4178 21.2447 23.4231 23.2541 23.3671 23.7296C23.0269 23.8172 22.5715 23.85 22.2778 23.85C20.0444 23.85 18.9108 22.5664 18.9108 20.0403C18.9108 18.1112 20.1871 16.6722 22.0116 16.5391C22.973 16.4705 23.8964 16.7314 24.4795 17.2385L24.582 17.3262V16.1461L24.5334 16.1366C23.9524 16.0236 23.273 15.9073 22.6053 15.9073ZM20.9892 11C24.1755 11 27.0122 11.6075 29.3364 12.6534C32.2428 14.086 34.1709 16.1472 34.5755 18.0214C35.0848 20.3805 33.4948 22.0561 31.3501 23.2309C31.6185 22.8516 31.7621 22.3857 31.7621 21.8395C31.7621 20.8422 30.936 20.0065 29.7231 19.7456C30.5271 19.5322 31.2983 18.8233 31.2983 17.7858C31.2983 16.6575 30.2788 15.9834 28.5726 15.9834H26.0381L26.055 16.0584C26.0571 16.0616 26.13 16.3944 26.13 17.1635V24.3983L26.1923 24.3962C26.2008 24.3962 26.9699 24.3814 27.9894 24.3783L28.4099 24.3772C28.5208 24.3772 28.6286 24.373 28.7342 24.3677C26.785 25.046 24.858 25.421 23.8396 25.5974C18.8582 26.4616 14.8077 27.9883 13.7892 30.6664C8.99385 28.9232 6.01245 25.4411 6.01245 21.4296C6.01245 15.6697 12.1548 11 20.9892 11Z" fill="#007DC4"/>
<circle cx="20" cy="20" r="19.5" stroke="black" stroke-opacity="0.05"/>
</svg>
