<svg width="40" height="40" viewBox="0 0 40 40" fill="none" xmlns="http://www.w3.org/2000/svg">
<circle cx="20" cy="20" r="20" fill="white"/>
<circle cx="20" cy="20" r="19.5" stroke="black" stroke-opacity="0.05"/>
<circle cx="20" cy="20" r="20" fill="white"/>
<circle cx="20" cy="20" r="19.5" stroke="black" stroke-opacity="0.05"/>
<circle cx="20" cy="20" r="20" fill="#013C81"/>
<circle cx="20" cy="20" r="19.5" stroke="black" stroke-opacity="0.05"/>
<path d="M33.8761 15.173C32.9026 11.955 26.4662 11.0271 19.4934 13.1198C19.1557 13.2185 18.8379 13.3172 18.52 13.4357C24.7578 11.9945 30.1811 12.9421 31.0353 15.785C31.9888 18.9043 27.0821 23.1094 20.1093 25.2021C19.9503 25.2416 19.7914 25.3008 19.6325 25.3403L22.8706 14.1662H22.8507L21.9965 14.2254C20.293 14.4028 18.6101 14.7399 16.9705 15.2322C10.0176 17.3052 5.15053 21.609 6.12394 24.827C7.09735 28.045 13.5338 28.9729 20.5264 26.8802C20.8641 26.7815 21.182 26.6828 21.4998 26.5643C15.2621 28.0055 9.83879 27.0579 8.98458 24.215C8.0509 21.0957 12.9378 16.8906 19.9106 14.7979L20.3476 14.6795L17.1493 25.8338L18.0035 25.7746C19.707 25.5972 21.3899 25.2601 23.0295 24.7678C29.9824 22.6948 34.8495 18.391 33.8761 15.173Z" fill="white"/>
</svg>
