<svg width="40" height="40" viewBox="0 0 40 40" fill="none" xmlns="http://www.w3.org/2000/svg">
<circle cx="20" cy="20" r="20" fill="#1E1E23"/>
<g clip-path="url(#clip0_9_399473)">
<path d="M26.1984 15.2561C21.9417 11.507 17.0087 10.4233 13.9681 10.2988C10.5899 10.1737 10.2858 11.0067 10.2858 11.3401C10.2858 11.7566 10.7927 12.1737 10.9615 12.2569C11.1643 12.3819 11.7387 12.507 11.7387 12.2987C11.7387 11.9235 11.0289 11.7153 11.0289 11.6321C11.0289 11.507 10.9615 11.215 13.4951 11.4239C21.7389 12.0486 27.9208 17.5062 27.8874 21.9226C27.8541 24.4635 25.7928 26.9218 21.5361 26.8386C20.6576 26.7967 19.7791 26.6716 18.9679 26.4221C19.0019 25.2139 19.0019 23.7555 19.0019 22.214V20.9639H19.0699C22.3133 20.9226 23.2252 21.2553 23.3606 21.2978C23.5294 21.3391 23.462 21.4223 23.428 21.4642C23.3606 21.5055 22.7522 22.047 22.7522 22.1721C22.7522 22.2559 22.6848 22.5473 23.2592 22.4635C23.8336 22.3804 24.6441 21.5474 24.6441 20.9226C24.6107 20.2972 22.8536 19.0059 18.9685 19.089C18.8671 16.7564 18.5629 15.5069 18.3602 15.5069C18.0226 15.5069 17.8198 17.2148 17.6844 19.1728C14.1375 19.5893 13.1916 21.3391 13.0902 22.1308C12.9888 24.5054 15.1168 26.2132 17.4816 27.2132C17.5496 28.5884 17.7184 29.6715 18.1574 29.7128C18.5969 29.7547 18.7997 28.963 18.9011 27.7548C19.9484 28.0887 20.9958 28.2551 21.8063 28.2551C25.7928 28.3801 29.6445 26.5885 29.7119 22.2972C29.7793 19.2141 28.3944 17.131 26.1984 15.2561ZM13.8333 22.6305C13.9007 21.7137 15.2522 21.1721 17.583 21.0058C17.5496 21.7975 17.5162 22.5473 17.5162 23.1721C17.4822 24.0057 17.4822 24.9631 17.4822 25.8799C15.2856 24.8806 13.7653 23.4222 13.8333 22.6305Z" fill="white"/>
</g>
<circle cx="20" cy="20" r="19.5" stroke="black" stroke-opacity="0.05"/>
<defs>
<clipPath id="clip0_9_399473">
<rect width="20" height="20" fill="white" transform="translate(10 10)"/>
</clipPath>
</defs>
</svg>
