<svg width="40" height="40" viewBox="0 0 40 40" fill="none" xmlns="http://www.w3.org/2000/svg">
<circle cx="20" cy="20" r="20" fill="#F6F8FA"/>
<g clip-path="url(#clip0_9_387138)">
<path d="M18.7143 23.2542V28.7519C18.6783 30.1128 18.6661 30.143 18.6449 30.1867C18.5163 30.5499 17.9481 30.7402 17.9583 30.7505H22.0829C21.8266 30.6049 21.6069 30.4026 21.4407 30.1591C21.4086 30.1122 21.2864 30.0697 21.2864 27.9605V17.6748L17.8503 21.2767C18.0805 21.1739 18.4135 21.2317 18.5723 21.4297C18.7311 21.6065 18.7143 21.7023 18.7143 23.2542Z" fill="black"/>
<path d="M9.71436 20.5835C9.71436 20.2216 9.73236 19.8635 9.769 19.5119L18.9233 10.2348C19.7613 10.1472 20.6069 10.1641 21.4407 10.285L9.81786 22.064C9.74877 21.5736 9.71418 21.0788 9.71436 20.5835ZM13.2694 28.4566C12.8098 28.0536 12.3863 27.6114 12.0036 27.1349L17.2171 21.8853C17.4479 21.7844 17.7803 21.8384 17.9384 22.0357C18.0522 22.1939 18.0561 22.3257 18.0715 23.5368L13.2694 28.4566ZM26.446 12.4996C26.9178 12.8873 27.3545 13.3158 27.751 13.7802L21.9286 19.5119V16.9077L26.446 12.4996ZM24.4583 11.2184C25.024 11.4961 25.5601 11.824 26.0616 12.1981L11.7066 26.744C11.336 26.2329 11.0122 25.6894 10.7391 25.1202L24.4583 11.2184ZM22.0238 10.3852C22.7052 10.5247 23.3641 10.7324 23.9896 11.0024L10.5263 24.6451C10.2575 24.0034 10.0536 23.3364 9.9175 22.6542L22.0238 10.3852ZM9.88086 18.7064C10.6426 14.4655 13.9424 11.122 18.1281 10.3492L9.88086 18.7064Z" fill="#6FBE4A"/>
<path d="M28.0054 26.9729C27.6255 27.4551 27.2044 27.9025 26.748 28.3101L21.9285 23.5825V20.9725L28.0054 26.9729ZM29.2911 25.0283C29.023 25.5972 28.7633 26.0903 28.4014 26.5968L22.095 20.2068L23.3132 18.9726L29.2911 25.0283ZM30.0966 22.5526C29.9654 23.2365 29.7662 23.9057 29.502 24.55L23.6539 18.6273L24.9383 17.3249L30.0966 22.5526ZM26.9061 15.3314L28.0652 14.1582C29.0539 15.4323 29.7835 16.9161 30.0992 18.5708L26.9061 15.3314ZM26.5654 15.6773L30.222 19.3866C30.3159 20.2422 30.306 21.106 30.1924 21.9593L25.281 16.9791L26.5654 15.6773Z" fill="#00954C"/>
</g>
<circle cx="20" cy="20" r="19.5" stroke="black" stroke-opacity="0.05"/>
<defs>
<clipPath id="clip0_9_387138">
<rect width="22" height="22" fill="white" transform="translate(9 9.46484)"/>
</clipPath>
</defs>
</svg>
