<svg width="40" height="40" viewBox="0 0 40 40" fill="none" xmlns="http://www.w3.org/2000/svg">
<circle cx="20" cy="20" r="20" fill="black"/>
<g clip-path="url(#clip0_9_409931)">
<path d="M20.0057 6H20.048C20.0698 6.01604 20.0955 6.04025 20.125 6.07261C21.6677 7.77317 23.2084 9.47158 24.747 11.1678C24.7524 11.1738 24.759 11.1785 24.7663 11.1818C24.7737 11.185 24.7816 11.1867 24.7897 11.1867L30.0003 11.1869V12.4778L24.7853 12.4774C24.7668 12.4774 24.7487 12.4712 24.7341 12.4598L20.0779 8.8529C20.043 8.82593 20.0082 8.82586 19.9733 8.8527L15.2926 12.4546C15.2721 12.4703 15.249 12.4782 15.2231 12.4782H10.0262C10.0194 12.4782 10.016 12.4748 10.016 12.4678L10.0156 11.1971C10.0156 11.1902 10.0192 11.1867 10.0262 11.1867H15.2245C15.2345 11.1867 15.2444 11.1847 15.2535 11.1807C15.2626 11.1767 15.2708 11.1708 15.2775 11.1635C16.8373 9.45491 18.4003 7.74315 19.9662 6.02822C19.9741 6.0195 19.9873 6.0101 20.0057 6Z" fill="white"/>
<path d="M30.0001 13.6196V14.9107L24.7924 14.9109C24.772 14.9109 24.7518 14.9068 24.7331 14.8989C23.1964 14.2535 21.6537 13.605 20.105 12.9532C20.0548 12.9321 20.0129 12.9257 19.9609 12.9474C18.4178 13.5909 16.8654 14.2384 15.3036 14.89C15.2716 14.9032 15.2379 14.9099 15.2023 14.9099C13.4766 14.9104 11.7514 14.9107 10.0268 14.9107C10.0194 14.9107 10.0156 14.907 10.0156 14.8995V13.625C10.0156 13.6212 10.0176 13.6192 10.0214 13.6192C11.7541 13.6192 13.4833 13.6192 15.2092 13.6192C15.2536 13.6192 15.2847 13.5987 15.3221 13.5769C16.8707 12.6656 18.4197 11.7546 19.9689 10.8441C20.0063 10.8221 20.0447 10.8228 20.0843 10.8462C21.6355 11.7647 23.1873 12.684 24.7397 13.6041C24.7574 13.6145 24.7775 13.62 24.798 13.62L30.0001 13.6196Z" fill="white"/>
<path d="M29.9998 16.0468V17.3379L24.7935 17.3381C24.7697 17.3381 24.7461 17.336 24.7226 17.3317C23.2523 17.0668 21.7866 16.8015 20.3253 16.5358C20.2347 16.5194 20.1476 16.5079 20.0641 16.5014C19.9956 16.496 19.9179 16.5012 19.8309 16.5169C18.3476 16.7846 16.8464 17.0542 15.3271 17.3259C15.2863 17.3332 15.2473 17.3369 15.2101 17.3369C13.4834 17.3382 11.7555 17.3385 10.0263 17.3377C10.0248 17.3377 10.0233 17.3371 10.0222 17.336C10.0211 17.3349 10.0205 17.3334 10.0205 17.3319V16.0522C10.0205 16.0505 10.0212 16.0488 10.0225 16.0475C10.0237 16.0463 10.0254 16.0456 10.0271 16.0456C12.0509 16.0483 13.7644 16.0477 15.1674 16.0435C15.1959 16.0434 15.2271 16.0418 15.261 16.0389C15.2821 16.0371 15.3028 16.0333 15.323 16.0275C16.8466 15.5909 18.365 15.1566 19.8782 14.7246C19.9375 14.7077 19.9997 14.7018 20.0647 14.7068C20.1073 14.7102 20.1634 14.7219 20.233 14.7418C21.6905 15.1616 23.148 15.5813 24.6056 16.001C24.6954 16.0269 24.7624 16.0474 24.8564 16.0474C26.5709 16.0463 28.2854 16.0461 29.9998 16.0468Z" fill="white"/>
<path d="M29.9998 18.4736V19.7703H10.0354C10.0255 19.7703 10.0205 19.7654 10.0205 19.7556V18.4842C10.0205 18.4772 10.024 18.4736 10.0311 18.4736H29.9998Z" fill="white"/>
<path d="M30.0003 20.9014V22.198H10.0362C10.0225 22.198 10.0156 22.1912 10.0156 22.1775L10.0158 20.9072C10.0158 20.9056 10.0165 20.9042 10.0176 20.9031C10.0187 20.902 10.0203 20.9014 10.0218 20.9014H30.0003Z" fill="white"/>
<path d="M29.9998 23.3342V24.6302C28.2692 24.6307 26.5386 24.6308 24.8079 24.6307C24.7782 24.6307 24.7379 24.634 24.7045 24.6421C23.2509 24.9865 21.7787 25.3349 20.2879 25.6873C20.168 25.7157 20.1014 25.7305 20.0881 25.7319C20.0215 25.7385 19.9532 25.7336 19.8834 25.7172C18.2812 25.3389 16.7617 24.9818 15.3249 24.646C15.282 24.6361 15.2399 24.6311 15.1987 24.6311C13.4818 24.6305 11.7594 24.6305 10.0313 24.6309C10.0242 24.6309 10.0207 24.6273 10.0207 24.6203L10.0205 23.34C10.0205 23.3384 10.0211 23.3369 10.0223 23.3357C10.0234 23.3346 10.0249 23.334 10.0265 23.334C11.7426 23.334 13.4591 23.334 15.1761 23.334C15.2157 23.334 15.2676 23.3379 15.311 23.3483C16.8601 23.7216 18.4092 24.0946 19.9583 24.4672C20.0028 24.4778 20.0428 24.4789 20.0784 24.4703C21.6271 24.0953 23.1773 23.7197 24.729 23.3435C24.7529 23.3377 24.7773 23.3348 24.8018 23.3348L29.9998 23.3342Z" fill="white"/>
<path d="M30.0003 25.767V27.0581C28.2697 27.0584 26.5391 27.0584 24.8084 27.0581C24.7786 27.0581 24.751 27.0658 24.7256 27.0811C23.2044 27.9984 21.6752 28.9198 20.138 29.8452C20.0708 29.8857 20.026 29.9129 19.9501 29.8674C18.3954 28.9376 16.8412 28.0076 15.2874 27.0776C15.2662 27.065 15.2421 27.0583 15.2175 27.0583H10.021C10.0196 27.0583 10.0182 27.0578 10.0172 27.0568C10.0162 27.0558 10.0156 27.0545 10.0156 27.0531L10.0158 25.7776C10.0158 25.7703 10.0195 25.7666 10.0268 25.7666C11.747 25.767 13.4781 25.767 15.2202 25.7666C15.2476 25.7666 15.272 25.7734 15.2934 25.7869C16.7854 26.7358 18.3403 27.725 19.9582 28.7546C19.9764 28.766 19.995 28.7762 20.014 28.7851C20.0193 28.7875 20.0252 28.7887 20.0311 28.7883C20.037 28.7879 20.0426 28.7861 20.0476 28.783L24.7347 25.7822C24.7498 25.7725 24.7672 25.7674 24.7849 25.7674L30.0003 25.767Z" fill="white"/>
<path d="M29.9998 28.1946V29.4909C28.2674 29.491 26.535 29.491 24.8027 29.4909C24.7749 29.4909 24.7509 29.5008 24.7307 29.5205C22.3907 31.8306 20.8402 33.3609 20.0792 34.1112C20.064 34.1261 20.046 34.1362 20.0253 34.1413C20.0185 34.1429 20.0121 34.142 20.0062 34.1384C19.9926 34.1302 19.9807 34.121 19.9703 34.1108C18.5204 32.6916 16.9784 31.1794 15.3444 29.5743C15.2944 29.5251 15.2603 29.4907 15.189 29.4907C13.4603 29.4905 11.7396 29.4907 10.0267 29.4913C10.0226 29.4913 10.0205 29.4892 10.0205 29.4851V28.205C10.0205 28.1974 10.0243 28.1936 10.0319 28.1936C11.7398 28.1947 13.4502 28.1946 15.1632 28.1934C15.2527 28.1932 15.2946 28.2263 15.362 28.2985C15.3916 28.3304 15.4215 28.3618 15.4516 28.3927C16.9652 29.9546 18.4731 31.5097 19.9755 33.0583C20.0087 33.0925 20.0419 33.0924 20.0751 33.0581C21.6417 31.431 23.196 29.8178 24.7377 28.2185C24.7639 28.1915 24.7913 28.1948 24.8253 28.1948C26.5502 28.1937 28.275 28.1936 29.9998 28.1946Z" fill="white"/>
</g>
<circle cx="20" cy="20" r="19.5" stroke="black" stroke-opacity="0.05"/>
<defs>
<clipPath id="clip0_9_409931">
<rect width="20" height="28.1535" fill="white" transform="translate(10 6)"/>
</clipPath>
</defs>
</svg>
