<svg width="40" height="40" viewBox="0 0 40 40" fill="none" xmlns="http://www.w3.org/2000/svg">
<circle cx="20" cy="20" r="20" fill="#017DC3"/>
<path d="M20.3558 22.42C20.4316 22.3931 20.5056 22.358 20.5776 22.3148C20.5969 22.3035 20.619 22.2975 20.6417 22.2975H21.1905C21.2111 22.2975 21.2217 22.3076 21.2222 22.3278L21.2286 22.4985C21.2296 22.5191 21.2198 22.5294 21.1991 22.5294L20.2622 22.533C20.2367 22.533 20.2264 22.5205 20.2312 22.4956C20.2345 22.4773 20.2237 22.4711 20.1988 22.4769C20.1867 22.4792 20.1755 22.4855 20.1671 22.4949C20.1292 22.5366 20.0845 22.5695 20.0331 22.5935C19.482 22.8475 19.0006 23.0391 18.5892 23.1682C18.3021 23.2585 18.009 23.3005 17.7098 23.2943C17.5255 23.2904 17.4518 23.1956 17.4888 23.0098C17.4936 22.9858 17.5058 22.9666 17.5255 22.9522C17.6503 22.8619 17.7773 22.7928 17.9065 22.7448C18.2248 22.6266 18.528 22.504 18.816 22.3767C18.8181 22.3758 18.82 22.3745 18.8216 22.3728C18.8231 22.3711 18.8243 22.3691 18.8251 22.367C18.8258 22.3648 18.8261 22.3625 18.8259 22.3602C18.8257 22.3579 18.8251 22.3557 18.824 22.3537L18.8146 22.3371C18.8142 22.3365 18.8137 22.3359 18.8131 22.3354C18.8125 22.3349 18.8118 22.3346 18.8111 22.3344C18.8104 22.3342 18.8096 22.3341 18.8088 22.3342C18.8081 22.3343 18.8073 22.3346 18.8067 22.335C18.4704 22.559 18.1448 22.5359 17.743 22.5265C17.7219 22.5261 17.7118 22.5155 17.7127 22.4949L17.7192 22.3379C17.7196 22.3276 17.7239 22.3179 17.7313 22.3108C17.7387 22.3037 17.7486 22.2997 17.7588 22.2997L18.8074 22.2961C18.828 22.2956 18.8465 22.3018 18.8629 22.3148C18.8941 22.3398 18.9257 22.3383 18.9579 22.3105C19.0868 22.1981 19.2546 22.1557 19.4059 22.08C19.8236 21.8705 21.0068 21.2886 20.906 20.7038C20.8801 20.5549 20.7855 20.4395 20.6222 20.3574C20.4076 20.2498 20.1652 20.1648 19.8949 20.1024C19.494 20.0098 19.0741 19.9037 18.6353 19.7841C18.3486 19.7063 18.0066 19.5825 17.8042 19.3599C17.6292 19.1676 17.7235 18.8111 17.8553 18.6347C18.4581 17.8267 19.4397 17.2556 20.3903 16.9084C21.0207 16.678 21.6648 16.592 22.3226 16.6506C22.4085 16.6583 22.5024 16.6746 22.6042 16.6996C22.9556 16.7855 23.2187 16.9517 23.3935 17.198C23.4713 17.3074 23.5195 17.4178 23.5382 17.5292C23.5579 17.6454 23.5675 17.771 23.567 17.9059C23.567 18.2897 23.3517 18.5072 22.9585 18.3675C22.8476 18.3286 22.8735 18.2105 22.8829 18.1205C22.8844 18.1061 22.8895 18.0923 22.8975 18.0804C22.9055 18.0685 22.9163 18.0588 22.929 18.0521C23.0053 18.0113 23.0704 17.9558 23.1241 17.8857C23.1378 17.868 23.145 17.8461 23.1445 17.8236C23.144 17.8012 23.1358 17.7797 23.1213 17.7626C22.885 17.4803 22.5991 17.4954 22.2743 17.3989C22.245 17.3902 22.2167 17.3922 22.1894 17.4046C22.1605 17.4181 22.1351 17.4135 22.113 17.391C22.0943 17.3718 22.0712 17.3619 22.0439 17.3614C21.9301 17.3595 21.8187 17.3588 21.7097 17.3593C21.5964 17.3598 21.4857 17.3696 21.3777 17.3888C20.405 17.5612 19.5233 17.9208 18.7325 18.4676C18.546 18.5965 18.232 18.8925 18.3018 19.1331C18.3095 19.1609 18.3251 19.183 18.3486 19.1993C18.5496 19.3405 18.8139 19.4039 19.0523 19.4377C19.5036 19.5006 19.9844 19.5714 20.4948 19.6502C20.8736 19.7085 21.7781 19.9325 21.7976 20.4287C21.8081 20.7019 21.7596 20.929 21.6521 21.11C21.6079 21.1839 21.6245 21.2019 21.7018 21.164C22.011 21.0113 22.3262 20.8166 22.6474 20.5799C22.9475 20.3586 23.2259 20.1735 23.4828 20.0246C23.6895 19.9051 23.8393 20.0218 23.9703 20.1701C24.015 20.2201 24.0397 20.2767 24.0445 20.3401C24.0599 20.5489 24.0436 20.7107 23.9956 20.8255C23.9197 21.006 23.8436 21.1817 23.7673 21.3527C23.7226 21.453 23.7032 21.5598 23.7089 21.6731C23.7098 21.6932 23.7159 21.7127 23.7267 21.7297C23.7374 21.7466 23.7524 21.7605 23.7702 21.7699C23.7879 21.7793 23.8079 21.7839 23.8279 21.7832C23.848 21.7825 23.8676 21.7766 23.8846 21.766C24.0265 21.6796 24.1785 21.5968 24.3081 21.4931C24.7642 21.1282 25.2515 20.7647 25.7701 20.4027C26.0056 20.2385 26.2663 20.1075 26.5176 19.985C26.6943 19.8991 26.8962 19.8504 27.1233 19.8388C27.36 19.8268 27.5371 19.8607 27.6548 19.9404C27.8819 20.094 27.9431 20.3214 27.8384 20.6224C27.6901 21.0487 27.5095 21.4916 27.2968 21.9511C27.2407 22.0716 27.1732 22.1854 27.0945 22.2925C27.0893 22.2995 27.0869 22.3082 27.0875 22.3169C27.0882 22.3256 27.0919 22.3338 27.0981 22.34C27.1043 22.3463 27.1113 22.3511 27.119 22.3544C27.1225 22.3561 27.1265 22.3568 27.1304 22.3564C27.1343 22.3561 27.1381 22.3547 27.1413 22.3524C27.1445 22.3502 27.1471 22.3471 27.1487 22.3435C27.1503 22.34 27.151 22.336 27.1507 22.3321C27.1497 22.3244 27.1509 22.3172 27.1543 22.3105C27.1586 22.3018 27.1655 22.2975 27.1751 22.2975H27.5021C27.529 22.2975 27.5422 22.311 27.5417 22.3379L27.5395 22.492C27.5395 22.4997 27.5371 22.5073 27.5328 22.5137C27.5284 22.5201 27.5222 22.525 27.515 22.5279C27.5078 22.5307 27.5 22.5314 27.4924 22.5297C27.4848 22.5281 27.4779 22.5242 27.4726 22.5186C27.3972 22.4418 27.3112 22.3875 27.2147 22.3559C27.2047 22.3525 27.1975 22.3559 27.1931 22.3659V22.3667C27.1888 22.3767 27.1915 22.3842 27.2011 22.389C27.3057 22.4408 27.3977 22.497 27.4769 22.5575C27.5383 22.605 27.5537 22.6701 27.523 22.7527C27.5129 22.78 27.493 22.7937 27.4632 22.7937C27.2942 22.7932 27.1283 22.7635 26.9656 22.7044C26.9358 22.6939 26.9142 22.7027 26.9008 22.7311C26.8107 22.914 26.7193 23.1041 26.6076 23.2734C26.3004 23.74 25.8939 24.1861 25.3884 24.6115C25.1886 24.7795 24.9906 24.9154 24.7942 25.0191C24.6896 25.0743 24.5655 25.0916 24.4219 25.0709C24.2426 25.045 24.0834 24.7195 24.1079 24.5574C24.1209 24.4689 24.0921 24.381 24.1173 24.2982C24.2133 23.9861 24.3866 23.6745 24.6372 23.3634C25.0314 22.8741 25.4289 22.5066 25.8298 22.2608C25.9962 22.1593 26.267 22.1232 26.4571 22.2075C26.5315 22.2406 26.5928 22.2106 26.6408 22.1175C26.6547 22.0906 26.6693 22.0639 26.6847 22.0375C26.8532 21.7495 26.9893 21.4247 27.093 21.0631C27.1094 21.007 27.0947 20.9969 27.0491 21.0329C26.6588 21.3431 26.2581 21.6342 25.8471 21.9065C25.717 21.9929 25.5622 22.0798 25.3826 22.1672C25.0528 22.3278 24.7561 22.183 24.7273 21.8128C24.7268 21.8076 24.7249 21.8025 24.7219 21.7981C24.7188 21.7937 24.7147 21.7902 24.71 21.788C24.7052 21.7857 24.7 21.7847 24.6948 21.7852C24.6896 21.7856 24.6847 21.7875 24.6804 21.7905C24.3813 21.9951 24.0863 22.1953 23.7953 22.3912C23.6969 22.4579 23.5803 22.4896 23.4453 22.4862C23.4218 22.4857 23.4026 22.4769 23.3877 22.4596C23.3006 22.3566 23.1652 22.3026 23.1133 22.1729C23.0557 22.0313 23.0401 21.9122 23.0665 21.8157C23.163 21.4604 23.2362 21.1073 23.2862 20.7563C23.2982 20.6728 23.2711 20.6574 23.2048 20.7103C23.0502 20.8336 22.8807 20.9542 22.6964 21.0718C22.0511 21.4837 21.4267 21.8525 20.8232 22.178C20.6633 22.2644 20.4998 22.3054 20.3479 22.4041C20.3056 22.4315 20.3082 22.4368 20.3558 22.42ZM27.0469 20.5012C27.033 20.4816 26.9958 20.4789 26.9374 20.4931C26.8791 20.5074 26.8007 20.5383 26.7068 20.5842C26.6129 20.6301 26.5053 20.69 26.3902 20.7606C26.275 20.8311 26.1546 20.9109 26.0357 20.9954C25.7956 21.166 25.5766 21.3454 25.4267 21.494C25.2768 21.6426 25.2084 21.7483 25.2365 21.7878C25.2504 21.8074 25.2876 21.8102 25.3459 21.7959C25.4043 21.7817 25.4826 21.7507 25.5765 21.7048C25.6704 21.659 25.778 21.599 25.8932 21.5285C26.0083 21.4579 26.1288 21.3781 26.2476 21.2936C26.4877 21.123 26.7068 20.9437 26.8567 20.7951C27.0066 20.6465 27.075 20.5408 27.0469 20.5012ZM25.4525 23.0371C25.0643 23.3245 24.7719 23.5737 24.5695 24.0101C24.5256 24.1052 24.5335 24.2103 24.5371 24.3119C24.5379 24.3305 24.5431 24.3487 24.5522 24.3649C24.5613 24.3812 24.5742 24.395 24.5897 24.4054C24.6053 24.4157 24.623 24.4222 24.6415 24.4243C24.66 24.4265 24.6788 24.4242 24.6963 24.4177C24.7702 24.3904 24.8377 24.351 24.8987 24.2996C25.4791 23.8113 25.9554 23.2729 26.3275 22.6843C26.3707 22.6161 26.3537 22.5942 26.2764 22.6187C25.9768 22.7128 25.7021 22.8523 25.4525 23.0371Z" fill="white"/>
<path d="M24.4929 18.9177C24.3359 18.9081 24.2427 18.814 24.2134 18.6354C24.1846 18.4587 24.235 18.3234 24.3647 18.2292C24.3872 18.2124 24.4127 18.2036 24.441 18.2026L24.6599 18.1954C24.6675 18.1949 24.6751 18.1963 24.6821 18.1995C24.6891 18.2026 24.6954 18.2074 24.7003 18.2134L24.9026 18.4511C24.9271 18.48 24.9407 18.5165 24.9409 18.5543C24.9412 18.5921 24.9281 18.6287 24.9041 18.6578L24.7175 18.8853C24.7007 18.9055 24.6794 18.9163 24.6535 18.9177C24.5992 18.9211 24.5457 18.9211 24.4929 18.9177Z" fill="white"/>
<path d="M4.02063 18.2621C4.02063 18.2566 4.02283 18.2512 4.02675 18.2473C4.03066 18.2434 4.03597 18.2412 4.04151 18.2412L5.74185 18.2499C6.02731 18.2513 6.30972 18.3038 6.57294 18.4042C6.83616 18.5046 7.07504 18.6511 7.27594 18.8352C7.47684 19.0193 7.63582 19.2375 7.7438 19.4772C7.85178 19.717 7.90664 19.9736 7.90526 20.2325L7.90382 20.5105C7.90105 21.0332 7.66945 21.5333 7.25996 21.9008C6.85047 22.2683 6.29663 22.4731 5.72025 22.4701L4.01991 22.4614C4.01717 22.4614 4.01445 22.4609 4.01192 22.4599C4.00938 22.4588 4.00708 22.4573 4.00514 22.4553C4.0032 22.4534 4.00166 22.4511 4.00061 22.4486C3.99956 22.446 3.99902 22.4433 3.99902 22.4406L4.02063 18.2621ZM4.89564 19.1342L4.90429 21.5972C4.90429 21.6156 4.91157 21.6332 4.92454 21.6461C4.9375 21.6591 4.95509 21.6664 4.97342 21.6664L5.62518 21.6642C5.80367 21.6636 5.9803 21.6313 6.14498 21.5691C6.30966 21.507 6.45917 21.4162 6.58496 21.3019C6.71076 21.1877 6.81037 21.0523 6.87813 20.9034C6.94588 20.7545 6.98044 20.595 6.97984 20.4342V20.2829C6.97862 19.9581 6.83431 19.647 6.57865 19.4183C6.32299 19.1895 5.97691 19.0617 5.61654 19.0629L4.96478 19.0651C4.94644 19.0651 4.92886 19.0724 4.91589 19.0853C4.90293 19.0983 4.89564 19.1159 4.89564 19.1342Z" fill="white"/>
<path d="M4.89551 19.1348C4.89551 19.1164 4.90279 19.0989 4.91576 19.0859C4.92872 19.0729 4.94631 19.0656 4.96465 19.0656L5.6164 19.0635C5.97678 19.0622 6.32285 19.19 6.57851 19.4188C6.83417 19.6476 6.97848 19.9586 6.9797 20.2835V20.4347C6.98031 20.5956 6.94575 20.755 6.87799 20.9039C6.81024 21.0528 6.71062 21.1883 6.58483 21.3025C6.45903 21.4167 6.30952 21.5075 6.14484 21.5697C5.98016 21.6318 5.80353 21.6641 5.62505 21.6648L4.97329 21.6669C4.95495 21.6669 4.93737 21.6596 4.9244 21.6467C4.91143 21.6337 4.90415 21.6161 4.90415 21.5978L4.89551 19.1348Z" fill="#017DC3"/>
<path d="M12.5871 20.8044C12.5165 21.0286 12.5436 21.2487 12.6685 21.4648C12.814 21.7173 13.047 21.829 13.3678 21.7997C13.5113 21.7867 13.6302 21.7289 13.7243 21.6261C13.7283 21.6219 13.7331 21.6185 13.7384 21.6162C13.7438 21.6138 13.7495 21.6126 13.7553 21.6125C13.7611 21.6125 13.7668 21.6136 13.7721 21.6158C13.7774 21.618 13.7822 21.6213 13.7862 21.6254L14.309 22.1677C14.3121 22.1709 14.3145 22.1747 14.3161 22.1789C14.3176 22.183 14.3183 22.1874 14.3181 22.1918C14.3179 22.1962 14.3168 22.2005 14.3149 22.2044C14.3129 22.2083 14.3102 22.2117 14.3069 22.2145C13.64 22.7633 12.5021 22.6459 11.9793 21.9401C11.7358 21.6112 11.6557 21.1969 11.7387 20.6971C11.931 19.5354 13.4621 19.189 14.3047 19.8566C14.3087 19.8597 14.312 19.8636 14.3144 19.8681C14.3168 19.8726 14.3182 19.8775 14.3186 19.8826C14.3189 19.8877 14.3182 19.8928 14.3164 19.8977C14.3146 19.9025 14.3119 19.9069 14.3083 19.9107L13.7905 20.4457C13.782 20.4546 13.7704 20.4599 13.7581 20.4605C13.7459 20.461 13.734 20.4568 13.725 20.4486C13.6688 20.3997 13.5903 20.3204 13.5183 20.3046C13.0348 20.1999 12.7244 20.3665 12.5871 20.8044Z" fill="white"/>
<path d="M11.4035 21.052C11.3993 21.4588 11.2236 21.8472 10.9153 22.1316C10.6069 22.4161 10.1911 22.5734 9.75923 22.5689C9.5454 22.5666 9.33409 22.5247 9.13735 22.4456C8.94061 22.3664 8.7623 22.2515 8.61259 22.1075C8.46289 21.9635 8.34472 21.7932 8.26485 21.6062C8.18497 21.4192 8.14494 21.2193 8.14705 21.0179C8.15131 20.6111 8.32695 20.2227 8.63531 19.9383C8.94367 19.6538 9.35951 19.4965 9.79135 19.5011C10.0052 19.5033 10.2165 19.5452 10.4132 19.6244C10.61 19.7035 10.7883 19.8184 10.938 19.9624C11.0877 20.1064 11.2058 20.2768 11.2857 20.4637C11.3656 20.6507 11.4056 20.8506 11.4035 21.052ZM10.5202 20.9547C10.5206 20.8661 10.5034 20.7783 10.4698 20.6963C10.4362 20.6143 10.3867 20.5398 10.3243 20.4769C10.2618 20.414 10.1876 20.364 10.1059 20.3298C10.0241 20.2956 9.93642 20.2779 9.8478 20.2776L9.71385 20.2771C9.62523 20.2768 9.53742 20.2939 9.45543 20.3276C9.37344 20.3612 9.29888 20.4106 9.236 20.4731C9.17312 20.5355 9.12316 20.6097 9.08896 20.6915C9.05476 20.7733 9.037 20.8609 9.03669 20.9496L9.03609 21.1224C9.03578 21.211 9.05293 21.2988 9.08655 21.3808C9.12018 21.4628 9.16962 21.5374 9.23207 21.6002C9.29451 21.6631 9.36872 21.7131 9.45048 21.7473C9.53223 21.7815 9.61992 21.7992 9.70853 21.7996L9.84249 21.8C9.9311 21.8003 10.0189 21.7832 10.1009 21.7496C10.1829 21.7159 10.2575 21.6665 10.3203 21.604C10.3832 21.5416 10.4332 21.4674 10.4674 21.3856C10.5016 21.3039 10.5193 21.2162 10.5196 21.1276L10.5202 20.9547Z" fill="white"/>
<path d="M16.6121 22.2119C16.614 22.089 16.5783 22.0768 16.5048 22.1752C16.2405 22.5281 15.812 22.6145 15.3857 22.5245C14.8895 22.42 14.677 22.0131 14.6698 21.545C14.6607 20.8925 14.6588 20.2492 14.664 19.615C14.6642 19.6067 14.6676 19.5988 14.6736 19.593C14.6795 19.5872 14.6874 19.584 14.6957 19.584L15.4584 19.5847C15.4641 19.5848 15.4697 19.586 15.4749 19.5883C15.4801 19.5905 15.4848 19.5938 15.4887 19.5979C15.4927 19.6019 15.4958 19.6068 15.4979 19.612C15.5 19.6173 15.501 19.623 15.5009 19.6286C15.4903 20.1769 15.4932 20.7195 15.5095 21.2562C15.521 21.6286 15.7436 21.8705 16.149 21.7949C16.4638 21.7366 16.5768 21.4125 16.579 21.1316C16.5833 20.6438 16.5833 20.1438 16.579 19.6315C16.579 19.5998 16.5948 19.584 16.6265 19.584L17.4216 19.5854C17.4456 19.5854 17.4576 19.5974 17.4576 19.6214V22.4229C17.4576 22.4589 17.4396 22.4769 17.4036 22.4769L16.6596 22.4762C16.6256 22.4762 16.6088 22.4589 16.6092 22.4244L16.6121 22.2119Z" fill="white"/>
<path d="M29.4129 20.918C29.7478 20.6408 30.2015 20.3174 30.6387 20.2274C30.7333 20.2082 30.831 20.2058 30.9318 20.2202C31.0081 20.2317 31.0729 20.2718 31.1262 20.3405C31.2079 20.4451 31.2508 20.5188 31.2552 20.5616C31.295 20.9447 31.2636 21.3117 31.1608 21.6627C31.1378 21.741 31.1406 21.8168 31.1695 21.8903C31.1747 21.9037 31.1826 21.916 31.1926 21.9263C31.2026 21.9367 31.2146 21.9449 31.2278 21.9505C31.2411 21.9562 31.2553 21.9591 31.2696 21.9592C31.2839 21.9592 31.2981 21.9563 31.3113 21.9508C31.3901 21.9181 31.4633 21.8759 31.531 21.824C31.82 21.6032 32.093 21.3473 32.3498 21.0563C32.4247 20.9709 32.5049 20.9658 32.5904 21.0412C32.6 21.0498 32.6084 21.0594 32.6156 21.07C32.6489 21.1189 32.6671 21.1766 32.6678 21.2358C32.6686 21.2951 32.6519 21.3534 32.6199 21.4034C32.327 21.861 31.8964 22.1889 31.3279 22.3872C31.0816 22.4732 30.8751 22.4299 30.7085 22.2576C30.6658 22.2129 30.6375 22.1642 30.6236 22.1114C30.5357 21.7772 30.5854 21.3674 30.5825 21.0095C30.5823 20.9774 30.571 20.9463 30.5503 20.9217C30.5297 20.8971 30.501 20.8806 30.4694 20.8748C30.293 20.8417 29.9343 21.0909 29.8011 21.1946C29.465 21.4567 29.152 21.7206 28.862 21.9861C28.7127 22.1224 28.519 22.2525 28.2808 22.3764C28.1339 22.4535 27.9827 22.3714 27.9373 22.2259C27.8922 22.0819 27.9133 21.9414 28.0007 21.8046C28.1567 21.5612 28.3236 21.3401 28.5012 21.1413C28.5053 21.1367 28.5083 21.1311 28.5097 21.1251C28.5112 21.1191 28.5111 21.1128 28.5096 21.1068C28.508 21.1008 28.505 21.0953 28.5007 21.0907C28.4965 21.0862 28.4912 21.0828 28.4854 21.0808C28.4652 21.0736 28.4455 21.075 28.4263 21.0851C28.2554 21.1754 28.0885 21.2745 27.9258 21.3826C27.8806 21.4128 27.8326 21.4219 27.7817 21.4099C27.7681 21.4068 27.7562 21.3985 27.7486 21.3869C27.7411 21.3753 27.7385 21.3613 27.7414 21.348C27.7861 21.1399 27.8811 20.9317 28.0295 20.7776C28.2575 20.5409 28.5149 20.3693 28.8015 20.2627C28.9465 20.2089 29.0769 20.2344 29.1926 20.339C29.302 20.4379 29.3765 20.5452 29.4158 20.6609C29.4249 20.6878 29.424 20.7145 29.4129 20.7409L29.3575 20.877C29.321 20.9653 29.3395 20.979 29.4129 20.918Z" fill="white"/>
<path d="M9.84782 20.2772L9.71386 20.2768C9.34118 20.2755 9.03801 20.5765 9.03671 20.9492L9.0361 21.1221C9.0348 21.4947 9.33587 21.7979 9.70855 21.7992L9.8425 21.7997C10.2152 21.801 10.5184 21.4999 10.5197 21.1272L10.5203 20.9544C10.5216 20.5817 10.2205 20.2785 9.84782 20.2772Z" fill="#017DC3"/>
<path d="M26.2485 21.2965C26.7484 20.9412 27.1063 20.5865 27.0477 20.5041C26.9892 20.4218 26.5365 20.643 26.0366 20.9983C25.5366 21.3536 25.1788 21.7084 25.2373 21.7907C25.2958 21.8731 25.7486 21.6518 26.2485 21.2965Z" fill="#017DC3"/>
<path d="M25.4052 22.2984L24.1003 22.3007C24.0824 22.3008 24.0679 22.3153 24.0679 22.3332L24.0682 22.5017C24.0683 22.5196 24.0828 22.5341 24.1007 22.5341L25.4056 22.5318C25.4235 22.5318 25.438 22.5172 25.438 22.4993L25.4377 22.3308C25.4377 22.3129 25.4231 22.2984 25.4052 22.2984Z" fill="white"/>
<path d="M30.9889 22.4392C31.0215 22.4392 31.0429 22.4548 31.0529 22.486C31.0551 22.4924 31.0557 22.4992 31.0548 22.5059C31.0538 22.5126 31.0512 22.519 31.0472 22.5245C31.0433 22.53 31.0381 22.5344 31.0321 22.5375C31.0261 22.5406 31.0194 22.5422 31.0126 22.5422L30.425 22.5393C30.4184 22.5392 30.412 22.5378 30.406 22.5352C30.4 22.5326 30.3946 22.5289 30.39 22.5242C30.3855 22.5195 30.3819 22.514 30.3795 22.5079C30.3771 22.5019 30.3759 22.4954 30.376 22.4889L30.3789 22.3376C30.3793 22.3108 30.3928 22.2971 30.4192 22.2966L30.6612 22.293C30.6895 22.2925 30.7142 22.3016 30.7353 22.3204C30.8038 22.3816 30.8952 22.4385 30.9889 22.4392Z" fill="white"/>
<path d="M23.2929 22.5329H21.998C21.9856 22.5329 21.9737 22.528 21.9649 22.5192C21.9561 22.5104 21.9512 22.4985 21.9512 22.4861V22.3456C21.9512 22.3395 21.9524 22.3334 21.9547 22.3277C21.9571 22.322 21.9605 22.3169 21.9649 22.3125C21.9692 22.3082 21.9744 22.3047 21.9801 22.3024C21.9858 22.3 21.9918 22.2988 21.998 22.2988L23.1359 22.301C23.1472 22.3009 23.1583 22.305 23.1668 22.3125L23.3238 22.4508C23.331 22.4571 23.3361 22.4654 23.3385 22.4746C23.3408 22.4839 23.3402 22.4937 23.3369 22.5026C23.3335 22.5115 23.3275 22.5192 23.3196 22.5246C23.3117 22.53 23.3024 22.5329 23.2929 22.5329Z" fill="white"/>
<path d="M28.2774 22.4465C28.2913 22.4196 28.3105 22.3973 28.335 22.3795C28.4051 22.3267 28.4819 22.3003 28.5654 22.3003C28.9077 22.3007 29.2621 22.3003 29.6284 22.2988C29.6433 22.2988 29.651 22.3065 29.6515 22.3219L29.6529 22.5084C29.6529 22.5118 29.6522 22.5152 29.6509 22.5183C29.6496 22.5215 29.6477 22.5243 29.6453 22.5267C29.6429 22.5291 29.64 22.531 29.6369 22.5324C29.6337 22.5337 29.6304 22.5343 29.627 22.5343L28.3292 22.5314C28.2663 22.531 28.249 22.5026 28.2774 22.4465Z" fill="white"/>
<path d="M31.7568 22.544L31.2087 22.5325C31.2003 22.5329 31.1919 22.5302 31.1853 22.525C31.1787 22.5197 31.1743 22.5121 31.1729 22.5038C31.1714 22.4954 31.1731 22.4868 31.1776 22.4796C31.1821 22.4725 31.1891 22.4672 31.1972 22.4648L31.7121 22.2775C31.7169 22.2758 31.722 22.2751 31.7271 22.2755C31.7321 22.2759 31.7371 22.2775 31.7415 22.28C31.7459 22.2826 31.7496 22.2861 31.7525 22.2902C31.7554 22.2944 31.7574 22.2992 31.7582 22.3042L31.7914 22.5037C31.7922 22.5087 31.7919 22.5138 31.7906 22.5187C31.7892 22.5236 31.7868 22.5281 31.7835 22.5319C31.7802 22.5358 31.7761 22.5389 31.7715 22.541C31.7669 22.543 31.7619 22.5441 31.7568 22.544Z" fill="white"/>
<path d="M33.8495 22.3058L32.5302 22.3104C32.5111 22.3105 32.4957 22.326 32.4957 22.3451L32.4962 22.4935C32.4963 22.5126 32.5118 22.528 32.5309 22.5279L33.8503 22.5233C33.8694 22.5232 33.8848 22.5077 33.8847 22.4886L33.8842 22.3403C33.8842 22.3212 33.8686 22.3058 33.8495 22.3058Z" fill="white"/>
<path d="M35.9571 22.3101L34.6392 22.3124C34.6157 22.3125 34.5967 22.3315 34.5968 22.355L34.597 22.4846C34.597 22.5081 34.6161 22.5271 34.6395 22.527L35.9575 22.5247C35.9809 22.5247 35.9999 22.5056 35.9999 22.4822L35.9997 22.3525C35.9996 22.3291 35.9806 22.3101 35.9571 22.3101Z" fill="white"/>
<path d="M25.453 23.0395C25.7026 22.8546 25.9773 22.7151 26.2769 22.621C26.3542 22.5965 26.3712 22.6184 26.328 22.6866C25.9559 23.2752 25.4796 23.8136 24.8992 24.3019C24.8382 24.3533 24.7707 24.3927 24.6968 24.42C24.6793 24.4265 24.6605 24.4288 24.642 24.4266C24.6235 24.4245 24.6058 24.418 24.5902 24.4077C24.5747 24.3973 24.5618 24.3835 24.5527 24.3672C24.5436 24.351 24.5384 24.3328 24.5376 24.3142C24.534 24.2126 24.5261 24.1075 24.57 24.0124C24.7724 23.576 25.0648 23.3268 25.453 23.0395Z" fill="#017DC3"/>
<circle cx="20" cy="20" r="19.5" stroke="black" stroke-opacity="0.05"/>
</svg>
