<svg width="40" height="40" viewBox="0 0 40 40" fill="none" xmlns="http://www.w3.org/2000/svg">
<circle cx="20" cy="20" r="20" fill="#FB6317"/>
<circle cx="20" cy="20" r="19.5" stroke="black" stroke-opacity="0.05"/>
<path d="M15.8233 17.1716C15.819 17.1543 15.808 17.1456 15.7902 17.1456H10.6459C10.6327 17.1456 10.6197 17.1419 10.6085 17.135C10.5973 17.128 10.5884 17.118 10.5826 17.1062L9.7599 15.4177C9.75891 15.4158 9.75841 15.4136 9.75847 15.4115C9.75852 15.4093 9.75912 15.4072 9.76021 15.4053C9.7613 15.4034 9.76285 15.4018 9.76471 15.4006C9.76658 15.3994 9.76871 15.3987 9.77092 15.3985C9.8534 15.3926 9.93139 15.3895 10.0049 15.3893C11.8909 15.3855 13.8205 15.385 15.7938 15.3878C15.7987 15.3878 15.8036 15.3868 15.808 15.3847C15.8125 15.3827 15.8165 15.3798 15.8198 15.3761C15.8231 15.3725 15.8255 15.3682 15.8269 15.3635C15.8284 15.3588 15.8288 15.3539 15.8282 15.3491C15.8228 15.3036 15.8199 15.2638 15.8197 15.2296C15.8166 14.9767 15.8157 14.7125 15.8169 14.4371C15.8169 14.4248 15.812 14.4129 15.8032 14.4042C15.7945 14.3955 15.7826 14.3905 15.7703 14.3905L9.31014 14.3913C9.29177 14.3913 9.27373 14.3862 9.25795 14.3767C9.24216 14.3672 9.22924 14.3535 9.22055 14.3372L8.0078 12.0483C7.99145 12.0174 8.00081 12.0018 8.03589 12.0013C8.5788 11.9963 9.11922 12.007 9.66426 12.007C13.555 12.0075 17.4451 12.0084 21.3345 12.0099C21.9626 12.0101 22.7568 12.0507 23.7169 12.1318C23.8829 12.146 24.1972 12.1872 24.6598 12.2552C25.5185 12.3814 26.3433 12.5926 27.1454 12.9325C27.3701 13.0278 27.5892 13.137 27.8028 13.2603C28.4342 13.6251 28.9674 14.0067 29.4024 14.4051C30.5358 15.444 31.3383 16.7759 31.7144 18.267C31.7635 18.4618 31.8165 18.6577 31.8503 18.854C31.9519 19.4489 32.0018 20.009 31.9999 20.5343C31.9973 21.2392 31.9107 21.9333 31.74 22.6167C31.5504 23.3742 31.2527 24.094 30.8469 24.7762C30.4293 25.4788 29.9144 26.0961 29.3021 26.6282C28.9416 26.9414 28.5533 27.2536 28.1455 27.5C27.4492 27.9207 26.7079 28.2383 25.9216 28.4528C25.76 28.4969 25.5343 28.5493 25.2447 28.61C25.007 28.6598 24.7801 28.699 24.5642 28.7277C24.2446 28.77 23.9399 28.8158 23.6138 28.8439C22.4925 28.9414 21.4493 28.9559 20.3671 28.9584C18.7994 28.9617 17.3684 28.9603 16.0743 28.9542C16.0044 28.9539 15.929 28.9518 15.8482 28.9478C15.8377 28.9473 15.8279 28.9427 15.8208 28.9351C15.8136 28.9274 15.8098 28.9173 15.8101 28.9069C15.813 28.7857 15.8144 28.6691 15.8144 28.557C15.817 24.7719 15.8179 21.027 15.8172 17.3223C15.8172 17.2765 15.8332 17.2121 15.8233 17.1716ZM23.0848 23.6797C23.6764 23.5866 24.2602 23.4052 24.7405 23.055C25.7556 22.3141 25.9184 20.9958 25.7641 19.8051C25.7026 19.3311 25.5558 18.8668 25.2877 18.4753C24.8995 17.9086 24.2851 17.5499 23.601 17.3824C23.2526 17.2973 22.9101 17.2467 22.5735 17.2306C22.3325 17.2192 22.1019 17.2129 21.8817 17.2118C21.8757 17.2118 21.87 17.2141 21.8658 17.2182C21.8616 17.2223 21.8593 17.228 21.8593 17.2338L21.8603 23.7619C21.8603 23.765 21.8609 23.768 21.8621 23.7709C21.8633 23.7738 21.865 23.7764 21.8672 23.7786C21.8694 23.7808 21.872 23.7825 21.8748 23.7836C21.8777 23.7848 21.8807 23.7854 21.8838 23.7853C22.2829 23.7782 22.6833 23.743 23.0848 23.6797Z" fill="white"/>
</svg>
