<svg width="40" height="40" viewBox="0 0 40 40" fill="none" xmlns="http://www.w3.org/2000/svg">
<circle cx="20" cy="20" r="20" fill="#1E1E23"/>
<g clip-path="url(#clip0_9_396452)">
<path fill-rule="evenodd" clip-rule="evenodd" d="M20.9006 16.6074C21.7264 16.6074 22.0325 16.9467 22.0325 17.8071C22.0325 17.8248 22.0325 17.8465 22.0338 17.8716C22.0352 17.9279 22.0372 18.0012 22.0338 18.082C22.0257 18.3452 21.9728 18.5705 21.74 18.7096C22.0189 18.9017 22.025 19.2267 22.0318 19.545L22.0332 19.5843C22.0359 19.716 22.0359 19.8639 22.0359 20.0274C22.0359 20.6789 21.9463 21.3574 21.018 21.3574H19.6514V16.6074H20.9006ZM20.6821 17.4509V18.2849H20.9006C21.1605 18.2849 21.1449 17.4509 20.9142 17.4509H20.6821ZM20.6821 19.0957V20.3782H20.9006C21.2467 20.3782 21.265 19.0957 20.9006 19.0957H20.6821ZM32.893 21.3574V16.6074H31.9512V17.5201C31.7639 17.3966 31.5847 17.284 31.3506 17.286C31.0833 17.288 30.8268 17.4224 30.706 17.6606C30.592 17.8845 30.5723 18.0881 30.5723 19.2349C30.5723 19.9406 30.5818 20.345 30.6245 20.6395C30.6897 21.086 30.9469 21.354 31.4083 21.3574C31.6505 21.3595 31.793 21.3255 31.9647 21.1688V21.3574H32.893ZM31.5359 18.1478C31.5359 18.0385 31.6397 17.9646 31.7435 17.9646C31.8473 17.9646 31.9512 18.0379 31.9512 18.1478L31.9593 19.1894V20.4413C31.9593 20.6246 31.8541 20.6782 31.7489 20.6789C31.6424 20.6795 31.5359 20.6273 31.5359 20.4413V18.1478ZM24.153 17.286C23.8938 17.286 23.5559 17.4332 23.393 17.6151V17.286H22.4322L22.4403 21.3574H23.393V18.1715C23.393 18.0324 23.5538 17.9598 23.642 17.9646C23.7527 17.9646 23.8904 18.0487 23.8904 18.1715V19.072H24.7502V17.837C24.7366 17.4604 24.4509 17.286 24.153 17.286ZM26.3102 17.286C26.6759 17.2914 27.0654 17.3477 27.2894 17.6748C27.461 17.9259 27.4644 18.0887 27.4644 19.8055V21.3574H26.511V21.1661C26.511 21.1661 26.3285 21.3574 25.8922 21.3574C25.6228 21.3574 25.3548 21.2183 25.2428 20.9598C25.1783 20.8119 25.1661 20.5981 25.1661 20.1428C25.1661 19.5097 25.1817 19.4724 25.3269 19.2667C25.485 19.0408 25.7612 18.8983 26.034 18.7571C26.2009 18.6703 26.3665 18.5848 26.5036 18.481V18.2821C26.5036 18.0134 26.4181 17.9646 26.3102 17.9646C26.2016 17.9646 26.0998 18.048 26.0998 18.331V18.4966H25.2007C25.2034 18.4355 25.2048 18.3744 25.2055 18.3134C25.2075 18.1322 25.2102 17.9537 25.2638 17.7786C25.388 17.3749 25.9424 17.2806 26.3102 17.286ZM26.511 19.9575L26.5036 19.3149C26.2607 19.4635 26.0964 19.659 26.091 19.9575C26.089 20.081 26.0897 20.2039 26.0897 20.3274V20.48C26.0897 20.6544 26.2308 20.6789 26.2993 20.6789C26.3672 20.6789 26.511 20.649 26.511 20.48V19.9575ZM29.418 17.286C28.9967 17.286 28.8216 17.5445 28.8216 17.5445V17.286H27.8716V21.3574H28.8216V18.1546C28.8216 18.0277 28.9261 17.9673 29.0333 17.9646C29.1439 17.9619 29.2572 18.0216 29.2572 18.1546V21.3574H30.1787V17.8316C30.1787 17.514 29.8394 17.286 29.418 17.286ZM34.7265 17.303C34.6322 17.2907 34.5372 17.285 34.4422 17.286C34.3452 17.2874 34.2522 17.2969 34.164 17.3145C33.6761 17.4129 33.3443 17.759 33.3443 18.2916C33.3443 18.863 33.7256 19.1867 34.1633 19.5212C34.5094 19.7859 34.6797 20.02 34.6498 20.4576C34.6383 20.6219 34.5555 20.6789 34.4422 20.6789C34.318 20.6789 34.2658 20.6022 34.2502 20.4583C34.2454 20.4156 34.2468 20.3613 34.2481 20.2853C34.2488 20.2385 34.2502 20.1835 34.2502 20.1184V19.7221H33.2961V20.4583C33.2961 21.0656 33.9027 21.354 34.4429 21.3574C35.0088 21.3615 35.5422 21.05 35.5985 20.4583C35.6066 20.3701 35.6093 20.2751 35.6053 20.1774C35.5835 19.5389 35.285 19.1935 34.7788 18.8216C34.3105 18.4762 34.2502 18.3737 34.2502 18.1804C34.2502 18.0277 34.3452 17.9639 34.4422 17.9646C34.5406 17.9646 34.639 18.0317 34.6397 18.181V18.5556H35.6073C35.6073 17.9646 35.4377 17.3952 34.7265 17.303Z" fill="white"/>
<path d="M3.71387 22.6233C9.45051 22.1483 14.7529 22.0642 19.321 22.0357C24.7564 22.0357 30.208 21.9549 35.6067 22.7143C35.6067 22.7143 19.3 21.9122 5.42387 24.0714H3.71387V22.6233Z" fill="#E31937"/>
<path d="M11.7455 16.6074L10.803 16.6108L10.7012 17.0817H11.6281L11.7455 16.6074Z" fill="#FFC424"/>
<path fill-rule="evenodd" clip-rule="evenodd" d="M7.49123 16.9182C7.38334 16.7601 7.23813 16.678 6.99927 16.64C6.9002 16.6244 6.48016 16.6074 6.06691 16.6074H5.31438C5.16509 17.3498 5.0158 18.1342 4.86652 18.9186C4.70977 19.7465 4.55166 20.5744 4.39355 21.3574H5.07145C5.52405 21.3622 5.94409 21.3615 6.0547 21.3432C6.44691 21.2774 6.81809 21.012 6.97077 20.6972C7.06713 20.4997 7.13973 20.136 7.28291 19.4147L7.39148 18.8671C7.68666 17.4068 7.69684 17.2181 7.49123 16.9182ZM5.58038 20.4461C5.58038 20.4108 5.92645 18.4952 6.1117 17.6002L6.14088 17.457H6.32002C6.54395 17.457 6.61045 17.5086 6.61045 17.6823C6.61045 17.8506 6.1748 20.1475 6.1117 20.2873C6.0452 20.4346 5.95359 20.4461 5.74798 20.4461H5.58038Z" fill="#FFC424"/>
<path d="M9.70651 17.2852C9.86801 17.2832 10.0465 17.3286 10.1455 17.4657C10.2561 17.6184 10.2494 17.7656 10.1048 18.4802C10.0343 18.8256 9.97726 19.1146 9.97726 19.1146H9.08493C9.08493 19.1146 9.18061 18.6403 9.1969 18.5548C9.29461 18.0527 9.27697 17.9624 9.13108 17.9624H8.98858L8.32358 21.3573H7.39258C7.58258 20.3144 7.78886 19.2707 7.99583 18.2291L8.18244 17.2859H9.12361L9.06661 17.5254C9.06661 17.5254 9.44458 17.2879 9.70651 17.2852Z" fill="#FFC424"/>
<path fill-rule="evenodd" clip-rule="evenodd" d="M16.4577 17.7034C16.3722 17.5405 16.2379 17.432 16.0777 17.3655C15.9244 17.3056 15.7604 17.2779 15.5959 17.284C15.4194 17.2888 15.2447 17.3201 15.0775 17.377C14.9323 17.424 14.7957 17.4944 14.6731 17.5853C14.3949 17.8011 14.2551 18.1078 14.0508 19.0938C13.926 19.6991 13.8642 20.1524 13.8493 20.3946C13.8099 21.023 14.2184 21.3602 14.8163 21.3568C15.3666 21.3534 15.8904 21.082 16.0689 20.5391C16.1008 20.4407 16.1612 20.1863 16.2039 19.9997H15.2729C15.2295 20.2026 15.1691 20.4801 15.1555 20.5154C15.0673 20.7427 14.7233 20.7658 14.7423 20.4882C14.7491 20.398 14.7728 20.2541 14.8156 20.0065L14.935 19.3177H16.303L16.4095 18.8515C16.5493 18.1892 16.5636 17.9042 16.457 17.7034H16.4577ZM15.2716 18.0467C15.2945 18.0173 15.3245 17.9941 15.3588 17.9793C15.3931 17.9644 15.4305 17.9585 15.4677 17.9619C15.522 17.968 15.5817 17.9938 15.6061 18.0467C15.6407 18.1214 15.6149 18.2503 15.5247 18.6398H15.0775C15.0775 18.6398 15.1338 18.2218 15.2716 18.0467Z" fill="#FFC424"/>
<path d="M18.0456 17.5785C18.2403 17.4109 18.4466 17.2799 18.716 17.2853C19.0594 17.2921 19.3064 17.4787 19.3199 17.8363C19.3281 18.0406 19.3003 18.1851 19.1028 19.1622C18.9664 19.8354 18.6943 21.3574 18.6943 21.3574H17.7626C17.7626 21.3574 17.899 20.5024 18.0612 19.7004C18.2227 18.8983 18.3557 18.2204 18.3564 18.1614C18.3584 18.0175 18.2851 17.9612 18.2084 17.9625C18.0809 17.9659 18.0157 18.0345 17.9628 18.1362C17.939 18.181 17.8685 18.4701 17.7701 18.9241C17.595 19.7295 17.289 21.3574 17.289 21.3574H16.3566L17.1573 17.2853H18.0802L18.0456 17.5785ZM12.731 17.2853H11.8115L11.6134 21.3574H12.7615L14.2334 17.2853H13.3078L12.5729 19.3807L12.731 17.2853ZM10.6668 17.2853H11.5849L10.7577 21.3574H9.82129L10.6668 17.2853Z" fill="#FFC424"/>
</g>
<circle cx="20" cy="20" r="19.5" stroke="black" stroke-opacity="0.05"/>
<defs>
<clipPath id="clip0_9_396452">
<rect width="33" height="9" fill="white" transform="translate(3 16)"/>
</clipPath>
</defs>
</svg>
