<svg width="40" height="40" viewBox="0 0 40 40" fill="none" xmlns="http://www.w3.org/2000/svg">
<circle cx="20" cy="20" r="20" fill="#1E1E23"/>
<g clip-path="url(#clip0_9_410420)">
<path d="M22.5606 26.7801C22.1437 27.2033 21.5987 27.477 21.0102 27.5585C20.1113 27.6104 19.2349 27.0785 18.9697 25.1456L15.3381 24.116C16.9249 29.5529 21.3156 29.3622 22.8263 26.9965C22.9292 26.8411 22.8976 26.7629 22.8263 26.7244C22.754 26.6852 22.6645 26.6852 22.5606 26.7801ZM22.5606 12.5076C21.1002 9.69668 15.9231 12.4733 15.0242 19.7306C14.9492 20.0633 15.1126 20.4035 15.4238 20.5652C15.8856 20.8068 16.3859 20.9663 16.9024 21.0367C17.2993 21.1261 17.7086 21.1594 18.1158 21.1363C18.4811 21.1208 18.7838 20.8577 18.8347 20.509C19.6077 12.724 21.4554 10.9594 22.3136 12.6329C22.4122 12.8274 22.6645 12.724 22.5563 12.5076H22.5606Z" fill="#0070A6"/>
<path d="M21.6665 14.9639C21.4902 14.936 21.3096 14.958 21.1452 15.0277C20.9808 15.0973 20.8392 15.2116 20.7365 15.3577C20.5223 15.7289 20.3819 16.1345 20.3224 16.5555C20.2264 16.9809 20.1974 17.4187 20.2367 17.853C20.3069 18.0845 20.526 18.2446 20.7767 18.2468C22.4305 18.3459 27.284 19.0123 27.9676 20.3703C28.4176 21.3046 27.0687 21.5425 26.0712 21.7889C25.9116 21.8145 25.7637 21.8883 25.6472 22.0003C25.5306 22.1123 25.4511 22.2573 25.4192 22.4157C25.3632 22.6552 25.3583 22.9039 25.4048 23.1455C25.4513 23.387 25.5482 23.6161 25.6892 23.8177C25.8156 24.0223 26.091 24.0903 26.3048 23.9687L26.3637 23.9296C26.8774 23.6039 27.3333 23.1994 27.7115 22.7318C30.9564 18.3764 24.1523 15.0111 21.6665 14.9639Z" fill="#54B948"/>
<path d="M23.3343 22.0964C15.1952 22.9611 8.77253 19.3803 13.6352 18.5109C13.6352 18.5109 14.2556 18.3727 14.3724 18.0352C14.4891 17.6977 14.525 17.6028 14.66 17.1052C14.7457 16.7982 14.8218 16.6252 14.9032 16.3873C15.0329 16.0198 14.7907 15.7991 14.2513 16.0546C9.80646 18.1434 11.1056 22.0444 14.7324 23.9993C17.1072 25.3353 19.9084 25.7864 22.6063 25.2662C22.8253 25.2274 23.0338 25.1436 23.2187 25.02C23.4036 24.8965 23.5608 24.7359 23.6804 24.5484C24.0463 24.0202 24.2054 23.3843 24.1299 22.7537C24.1327 22.6565 24.113 22.5599 24.0722 22.4716C24.0314 22.3833 23.9706 22.3056 23.8947 22.2448C23.8171 22.182 23.7268 22.137 23.63 22.1128C23.5332 22.0887 23.4323 22.086 23.3343 22.105V22.0964Z" fill="#26BCD7"/>
</g>
<circle cx="20" cy="20" r="19.5" stroke="black" stroke-opacity="0.05"/>
<defs>
<clipPath id="clip0_9_410420">
<rect width="18" height="18" fill="white" transform="translate(11 11)"/>
</clipPath>
</defs>
</svg>
