<svg width="40" height="40" viewBox="0 0 40 40" fill="none" xmlns="http://www.w3.org/2000/svg">
<circle cx="20" cy="20" r="20" fill="#50C800"/>
<path fill-rule="evenodd" clip-rule="evenodd" d="M33.6772 28.2082C36.4324 26.5471 36.8 22.9194 36.8 19.7022V17.8364C36.8 15.8686 36.5477 13.787 35.1629 12.3889C35.2252 11.3456 34.9922 10.2891 34.4509 9.34741C34.0965 8.73056 33.2401 8.64197 32.7611 9.1735L31.6751 10.3777C31.6685 10.3744 31.6619 10.3744 31.6554 10.3711C31.7965 9.27193 31.6094 8.13669 31.0713 7.12284C30.7367 6.49287 30.0116 6.38133 29.5129 6.89318L24.2959 12.179C24.2369 12.2347 24.1745 12.2938 24.1156 12.3528C24.1122 12.3561 24.1056 12.3594 24.1024 12.3627C21.8352 14.4166 18.3015 14.502 16.1425 12.6153C16.008 12.4677 15.8669 12.3266 15.7193 12.1888L10.4925 6.89645C9.9938 6.38461 9.26869 6.49617 8.93403 7.12613C8.39921 8.13669 8.20891 9.26537 8.34672 10.358C8.33687 10.3612 8.32703 10.3612 8.31718 10.3645L7.24427 9.1735C6.76525 8.64197 5.90889 8.73056 5.55125 9.34741C5.01972 10.2694 4.78676 11.3029 4.83598 12.3266C3.47156 13.6714 3.19873 15.6946 3.19873 17.6104V19.7236C3.19873 23.0247 3.62455 26.7662 6.5167 28.3575C7.60408 28.9558 8.85294 29.2963 10.1808 29.2963H10.5155C13.6095 29.2963 16.2738 27.449 17.4647 24.7979C18.6099 24.7913 19.4399 24.7881 19.9552 24.7881C21.0706 24.7849 21.9401 24.7849 22.5636 24.7849C23.7513 27.4425 26.4221 29.2963 29.5193 29.2963H29.7556C31.1901 29.2963 32.5318 28.8988 33.6772 28.2082Z" fill="#8EE000"/>
<path fill-rule="evenodd" clip-rule="evenodd" d="M10.6533 12.8447C13.58 12.8447 15.9555 15.2169 15.9555 18.147V21.2869C15.9555 24.2136 13.5833 26.5891 10.6533 26.5891C7.72656 26.5891 5.35107 24.2169 5.35107 21.2869V18.147C5.35107 15.2169 7.72656 12.8447 10.6533 12.8447Z" fill="white"/>
<path fill-rule="evenodd" clip-rule="evenodd" d="M29.2798 12.8447C32.2065 12.8447 34.582 15.2169 34.582 18.147V21.2869C34.582 24.2136 32.2097 26.5891 29.2798 26.5891C26.3531 26.5891 23.9775 24.2169 23.9775 21.2869V18.147C23.9775 15.2169 26.3498 12.8447 29.2798 12.8447Z" fill="white"/>
<path fill-rule="evenodd" clip-rule="evenodd" d="M11.4702 15.8896C12.8581 15.8896 13.9868 17.015 13.9868 18.4063V21.0934C13.9868 22.4813 12.8613 23.6099 11.4702 23.6099C10.0823 23.6099 8.95361 22.4845 8.95361 21.0934V18.4063C8.95361 17.015 10.0823 15.8896 11.4702 15.8896Z" fill="#4B4B4B"/>
<path fill-rule="evenodd" clip-rule="evenodd" d="M20.0014 21.9902C21.5926 21.9902 22.8821 23.2797 22.8821 24.8709V25.8717C22.8821 27.4631 21.5926 28.7524 20.0014 28.7524C18.4101 28.7524 17.1206 27.4631 17.1206 25.8717V24.8709C17.1206 23.2797 18.4101 21.9902 20.0014 21.9902Z" fill="#F48000"/>
<path d="M16.0244 25.1463C16.3689 23.309 18.0718 21.9834 20.1093 21.9834C21.9631 21.9834 23.6398 23.3418 23.9777 25.1463V25.294C23.9777 25.4089 23.9383 25.4548 23.8333 25.4417L20.1127 26.1044C20.0109 26.1044 19.9978 26.1044 19.8928 26.1044L16.1688 25.4384C16.0638 25.4515 16.0244 25.4056 16.0244 25.2908V25.1463Z" fill="#FFC200"/>
<path fill-rule="evenodd" clip-rule="evenodd" d="M19.3909 22.62C19.5846 22.5742 19.7847 22.5479 19.9848 22.5479C20.1981 22.5479 20.4147 22.5742 20.628 22.63C21.061 22.7415 21.3629 23.1319 21.3629 23.5781C21.3629 23.9391 21.0708 24.2278 20.7132 24.2278H19.2893C18.9283 24.2278 18.6397 23.9357 18.6397 23.5781C18.6363 23.1253 18.9481 22.7283 19.3909 22.62Z" fill="#FFE747"/>
<path fill-rule="evenodd" clip-rule="evenodd" d="M28.4628 15.8896C29.8508 15.8896 30.9794 17.015 30.9794 18.4063V21.0934C30.9794 22.4813 29.854 23.6099 28.4628 23.6099C27.0749 23.6099 25.9463 22.4845 25.9463 21.0934V18.4063C25.9495 17.015 27.0749 15.8896 28.4628 15.8896Z" fill="#4B4B4B"/>
<path d="M9.34433 18.9412C10.2413 18.9412 10.9685 18.2169 10.9685 17.3236C10.9685 16.4303 10.2413 15.7061 9.34433 15.7061C8.44736 15.7061 7.72021 16.4303 7.72021 17.3236C7.72021 18.2169 8.44736 18.9412 9.34433 18.9412Z" fill="white"/>
<path d="M26.0909 18.9412C26.9879 18.9412 27.7151 18.2169 27.7151 17.3236C27.7151 16.4303 26.9879 15.7061 26.0909 15.7061C25.1939 15.7061 24.4668 16.4303 24.4668 17.3236C24.4668 18.2169 25.1939 18.9412 26.0909 18.9412Z" fill="white"/>
<circle cx="20" cy="20" r="19.5" stroke="black" stroke-opacity="0.05"/>
</svg>
