<svg width="40" height="40" viewBox="0 0 40 40" fill="none" xmlns="http://www.w3.org/2000/svg">
<circle cx="20" cy="20" r="20" fill="#F6F8FA"/>
<path d="M22.8307 15.8328C22.8307 15.8328 22.052 16.9622 20.6366 18.0895C20.6366 18.0895 21.8495 16.3254 21.9936 15.1981C21.9936 15.1981 20.8099 14.7346 20.29 14.2148C20.29 14.2148 21.2712 14.7346 22.2525 14.0707C22.2525 14.0707 22.4842 13.3755 22.3986 12.3651C22.3986 12.3651 22.9748 13.1167 23.0333 13.9267C23.0333 13.9267 24.1606 13.4925 24.4779 12.0186C24.4779 12.0186 24.9101 13.4925 23.5531 14.7639C23.5531 14.7639 24.7076 15.1396 25.0834 16.7305C25.0834 16.7868 24.5928 15.6595 22.8307 15.8328Z" fill="#FFA81E"/>
<path fill-rule="evenodd" clip-rule="evenodd" d="M11.248 20.4006C11.248 22.5112 9.91811 23.8995 7.52145 23.8995H5.03711V17.0478C5.52771 16.9893 6.106 16.933 7.23335 16.933C9.86174 16.9037 11.248 18.1751 11.248 20.4006ZM9.60078 20.4006C9.60078 18.8682 8.87845 18.0311 7.34817 18.0311C7.11644 18.0311 6.8868 18.0311 6.65506 18.0603V22.8014H7.28972C8.50475 22.8014 9.60078 22.3087 9.60078 20.4006ZM25.7761 22.1062V16.8745C25.8931 16.8453 26.0956 16.816 26.3252 16.816C26.845 16.816 27.3649 16.9893 27.3649 17.7137V18.4925H29.0121V19.6219H27.3649V22.0206C27.3649 22.5405 27.6843 22.8014 28.0872 22.8014C28.5507 22.8014 28.8972 22.5405 28.9828 22.482C29.0705 22.5989 29.3002 22.9163 29.3002 23.1772C29.3002 23.2628 29.273 23.3797 29.1853 23.4653C29.0977 23.553 28.6655 23.9851 27.6258 23.9851C26.0956 23.958 25.7761 23.0603 25.7761 22.1062ZM22.5987 18.3192L21.5027 21.4716L20.6634 23.8995H18.9014L18.1227 21.6449C16.5048 17.1062 14.6843 14.4465 11.5945 14.4465C9.89097 14.4465 8.70517 15.1689 7.75318 15.9789C7.72396 16.0081 7.69473 16.0081 7.6655 16.0081C7.60844 16.0081 7.57991 15.9789 7.57991 15.9204C7.57991 15.8912 7.57991 15.862 7.63627 15.8056C8.56112 14.7931 9.94734 13.8975 11.9995 13.8975C14.4839 13.8975 17.6321 15.2273 19.4212 20.5467L19.9139 21.9622C19.9139 21.9622 20.2605 20.7764 20.463 20.0833C20.7511 19.0144 21.3565 18.4069 22.5987 18.3192ZM23.0622 18.3776C24.0141 18.6094 24.6509 19.2169 24.6509 20.1125V23.8703H23.9578C23.3795 23.8703 23.0622 23.5822 23.0622 22.9747V18.3776ZM16.678 22.5405C16.678 23.1188 16.7657 23.553 16.939 23.8119C16.7929 23.8703 16.5632 23.9559 16.1582 23.9559C15.4066 23.9559 15.2918 23.553 15.2334 23.3505C15.0601 23.5238 14.5987 23.9559 13.5298 23.9559C12.6634 23.9559 11.7386 23.4361 11.7386 22.2503C11.7386 20.8933 13.1248 20.4298 14.8576 20.4298H15.1185V20.315C15.1185 19.7367 14.6572 19.4465 13.964 19.4465C13.2125 19.4465 12.5194 19.8223 12.3753 19.91C12.2584 19.7367 12.1144 19.505 12.1144 19.244C12.1144 18.7534 13.01 18.3776 14.1937 18.3776C15.7824 18.3776 16.6488 18.9267 16.6488 20.4298V22.5405H16.678ZM15.0329 21.2398C14.1665 21.2398 13.2709 21.4716 13.2709 22.1939C13.2709 22.6553 13.5883 22.9747 14.1373 22.9747C14.7135 22.9747 15.0329 22.6553 15.0893 22.5697C15.1478 22.5112 15.177 22.3957 15.177 22.2231V21.2398H15.0329ZM34.7323 22.5405C34.7323 23.1188 34.8179 23.553 34.9912 23.8119C34.8471 23.8703 34.6154 23.9559 34.2125 23.9559C33.4609 23.9559 33.3461 23.553 33.2876 23.3505C33.1144 23.5238 32.653 23.9559 31.5841 23.9559C30.7177 23.9559 29.7928 23.4361 29.7928 22.2503C29.7928 20.8933 31.1791 20.4298 32.9118 20.4298H33.1728V20.315C33.1728 19.7367 32.7093 19.4465 32.0162 19.4465C31.2668 19.4465 30.5716 19.8223 30.4275 19.91C30.3127 19.7367 30.1686 19.505 30.1686 19.244C30.1686 18.7534 31.0642 18.3776 32.248 18.3776C33.8367 18.3776 34.7031 18.9267 34.7031 20.4298V22.5405H34.7323ZM33.058 21.2398C32.1895 21.2398 31.296 21.4716 31.296 22.1939C31.296 22.6553 31.6133 22.9747 32.1624 22.9747C32.7386 22.9747 33.058 22.6553 33.1144 22.5697C33.1728 22.5112 33.202 22.3957 33.202 22.2231V21.2398H33.058Z" fill="#0069B1"/>
<circle cx="20" cy="20" r="19.5" stroke="black" stroke-opacity="0.05"/>
</svg>
