<svg width="40" height="40" viewBox="0 0 40 40" fill="none" xmlns="http://www.w3.org/2000/svg">
<circle cx="20" cy="20" r="20" fill="#F1471D"/>
<g clip-path="url(#clip0_9_412316)">
<path d="M7.38057 22.8913C6.52172 22.8913 6.00486 22.1751 6.00486 21.0649C6.00486 20.1096 6.39572 19.2392 7.47507 19.2392C8.51522 19.2392 8.96457 20.0569 8.96457 21.0116C8.96457 22.107 8.56215 22.8913 7.38057 22.8913ZM10.357 16.1426H8.06972V17.0715H9.07129V19.2617H9.0475C8.77622 18.6838 7.97586 18.2717 7.09707 18.2717C5.59986 18.2724 4.57129 19.2771 4.57129 21.1183C4.57129 22.5936 5.36329 23.8569 7.03343 23.8569C7.9675 23.8569 8.62257 23.5104 9.0475 22.7884H9.07129V23.8569H11.1001V22.7839H10.357V16.1426Z" fill="white"/>
<path d="M12.4039 20.8128C12.4039 20.0767 12.9709 19.5689 13.8099 19.5689C14.7047 19.5689 15.1695 20.0529 15.1888 20.8128H12.4039ZM16.4713 20.5518C16.2289 19.4043 15.2602 18.7139 13.8806 18.7139C12.132 18.7139 10.9697 19.691 10.9697 21.2435C10.9697 22.8584 12.0298 23.8567 13.9044 23.8567C15.1258 23.8567 16.3119 23.3945 16.497 22.2097H15.1811C14.9902 22.6932 14.5337 22.9677 13.8632 22.994H13.8221C12.9176 22.9574 12.4039 22.4701 12.4039 21.6324H16.56C16.56 21.2814 16.5472 20.9144 16.4713 20.5518ZM23.0638 18.7139H20.2378V19.6158H21.1172L19.7852 22.7703L18.4931 19.6158H19.3712V18.7139H16.425V19.6158H17.0389L18.8994 23.8567H20.5534L22.4479 19.6158H23.0638V18.7139ZM25.749 22.967C24.6729 22.967 24.2557 22.1332 24.2557 21.2853C24.2557 20.4374 24.6735 19.6042 25.749 19.6042C26.8245 19.6042 27.2257 20.4367 27.2257 21.2853C27.2257 22.1332 26.8245 22.967 25.749 22.967ZM25.749 18.7139C24.0069 18.7139 22.8214 19.6704 22.8214 21.2853C22.8214 22.9002 24.0075 23.8567 25.7484 23.8567C27.4899 23.8567 28.6605 22.9002 28.6605 21.2853C28.6605 19.6704 27.4905 18.7139 25.749 18.7139ZM34.605 22.9792V20.6341C34.605 19.3934 34.0766 18.7139 32.6514 18.7139C31.8542 18.7139 31.1342 19.0777 30.7954 19.7174H30.7717V18.7139H28.6714V19.592H29.4956V22.9792H28.6714V23.8567H31.6504V22.9792H30.9285V21.0487C30.9285 20.3255 31.2602 19.628 32.1737 19.628C32.9143 19.628 33.2344 20.1243 33.2344 20.7318V22.9792H32.4502V23.8567H35.4285V22.9792H34.605Z" fill="white"/>
</g>
<circle cx="20" cy="20" r="19.5" stroke="black" stroke-opacity="0.05"/>
<defs>
<clipPath id="clip0_9_412316">
<rect width="32" height="8" fill="white" transform="translate(4 16)"/>
</clipPath>
</defs>
</svg>
