<svg width="40" height="40" viewBox="0 0 40 40" fill="none" xmlns="http://www.w3.org/2000/svg">
<circle cx="20" cy="20" r="20" fill="#0098CC"/>
<g clip-path="url(#clip0_9_410593)">
<path d="M28.1688 16.7861H25.4643L23.8572 22.5718H25.8025C25.8025 22.5718 25.9182 22.1739 26.0005 21.929H27.8236C27.8943 22.1623 27.9779 22.3353 28.0357 22.5718H29.9785C29.3787 20.642 28.7545 18.7211 28.1688 16.7861ZM27.4758 20.6433H26.4286L26.9223 18.4254L27.4758 20.6433Z" fill="white"/>
<path d="M4.57153 16.7857C6.07132 16.7999 7.57175 16.7819 9.07153 16.7857V18.3986H6.5001V18.9277H8.42868V20.3214H6.5001V20.9675H9.07153V22.5714H4.57153V16.7857Z" fill="white"/>
<path d="M13.5715 18.4453V16.7861C11.0001 16.7861 9.96314 17.0638 9.36721 18.3637C8.9455 19.2817 8.98535 20.5828 9.5305 21.4366C10.2094 22.4998 11.6429 22.5718 13.5715 22.5718V20.9647C13.0251 20.9737 12.2594 21.056 11.7619 20.7815C11.3646 20.561 11.0001 20.3218 11.0001 19.679C11.0001 18.3637 12.7377 18.3991 13.5715 18.4453ZM20.0001 16.7861H21.9286V20.966C22.6165 20.9698 23.8572 20.9647 23.8572 20.9647L23.4149 22.5718H23.8572H20.0001V16.7861Z" fill="white"/>
<path fill-rule="evenodd" clip-rule="evenodd" d="M30.6072 16.7858H30.2858V22.5715C30.7358 22.5484 31.2295 22.5619 31.7258 22.5754C33.5843 22.6262 35.5302 22.7515 35.4242 20.8834C35.385 20.1807 34.9195 19.8387 34.4001 19.6131C34.7035 19.5038 34.9163 19.3579 35.0558 19.1219C35.5174 18.3364 35.0417 17.4396 34.4644 17.1072C33.7405 16.6907 32.1186 16.7954 30.6072 16.7858ZM33.3555 20.4424C33.5033 20.6249 33.5355 20.9901 33.3555 21.1701C33.2031 21.3224 32.602 21.2858 32.602 21.2858H32.2144V20.2907H32.602C32.602 20.2907 33.2102 20.263 33.3555 20.4424ZM33.1504 18.1583C33.3754 18.2824 33.4332 18.7022 33.2121 18.8957C33.0578 19.0307 32.775 19.0056 32.4715 19.0056C32.3886 19.0024 32.2922 19.0056 32.2144 19.0056V18.0715C32.5358 18.0715 32.9652 18.0561 33.1504 18.1583ZM16.6251 22.7644C17.435 22.7644 18.2116 22.4427 18.7843 21.87C19.357 21.2973 19.6787 20.5207 19.6787 19.7108C19.6787 18.9009 19.357 18.1243 18.7843 17.5516C18.2116 16.9789 17.435 16.6572 16.6251 16.6572C15.8152 16.6572 15.0386 16.9789 14.4659 17.5516C13.8932 18.1243 13.5715 18.9009 13.5715 19.7108C13.5715 20.5207 13.8932 21.2973 14.4659 21.87C15.0386 22.4427 15.8152 22.7644 16.6251 22.7644ZM17.0095 19.0789L17.9822 17.2512L16.6592 18.9722C16.5603 18.9679 16.4615 18.9832 16.3686 19.0172L14.2845 17.9217L16.0407 19.2576C16.0116 19.2953 15.9862 19.3358 15.9649 19.3784L14.0511 18.3724L15.8884 19.7699C15.8916 19.8124 15.8987 19.8548 15.909 19.8953L14.8977 21.82L16.1031 20.2341C16.1462 20.2772 16.1931 20.3144 16.2458 20.3453L15.3484 22.0534L16.5685 20.4482C16.6528 20.4545 16.7376 20.4465 16.8192 20.4244L18.7433 21.4491L17.1542 20.227C17.194 20.1859 17.2294 20.1409 17.259 20.092L19.0551 21.0486L17.3637 19.7474C17.3669 19.6717 17.3589 19.5959 17.34 19.5224L18.3827 17.563L17.1394 19.1798C17.1 19.1415 17.0564 19.1076 17.0095 19.0789Z" fill="white"/>
</g>
<circle cx="20" cy="20" r="19.5" stroke="black" stroke-opacity="0.05"/>
<defs>
<clipPath id="clip0_9_410593">
<rect width="32" height="7" fill="white" transform="translate(4 16)"/>
</clipPath>
</defs>
</svg>
