<svg width="40" height="40" viewBox="0 0 40 40" fill="none" xmlns="http://www.w3.org/2000/svg">
<circle cx="20" cy="20" r="20" fill="#F6F8FA"/>
<g clip-path="url(#clip0_9_401134)">
<path d="M7.68979 14.737L7.81891 14.0361C7.81963 14.0322 7.82172 14.0287 7.8248 14.0261C7.82788 14.0236 7.83176 14.0222 7.83576 14.0222C7.87401 14.0222 7.92033 14.0252 7.95843 14.0164C7.9747 14.0126 7.9939 14.0197 8.0109 14.0194C8.41715 14.0113 8.83229 14.0118 9.25633 14.0208C9.27988 14.0212 9.30577 14.0235 9.334 14.0275C9.33473 14.0276 9.33544 14.0278 9.33607 14.0282C9.33671 14.0286 9.33726 14.0291 9.3377 14.0296C9.33814 14.0302 9.33845 14.0309 9.33862 14.0316C9.33879 14.0323 9.33882 14.0331 9.33869 14.0338L9.21412 14.7212C9.21385 14.7227 9.21391 14.7243 9.2143 14.7259C9.21469 14.7274 9.21539 14.7289 9.21637 14.7301C9.21735 14.7314 9.21858 14.7324 9.21999 14.7332C9.22139 14.7339 9.22294 14.7344 9.22453 14.7345C9.28852 14.7389 9.34617 14.7414 9.39746 14.7421C9.83215 14.748 10.3786 14.7493 11.0368 14.7462C11.0426 14.7461 11.045 14.7489 11.044 14.7546L10.9139 15.5284C10.9127 15.535 10.9088 15.5383 10.9022 15.5383C9.4744 15.5385 8.04695 15.5386 6.61979 15.5385C6.5789 15.5385 6.52731 15.5315 6.48276 15.5316C6.20127 15.5321 5.93894 15.5319 5.69575 15.5312C5.6947 15.5312 5.69365 15.5309 5.6927 15.5305C5.69174 15.53 5.69089 15.5294 5.69021 15.5286C5.68952 15.5278 5.68903 15.5268 5.68874 15.5258C5.68846 15.5248 5.6884 15.5237 5.68857 15.5227L5.81651 14.7563C5.81696 14.7537 5.81831 14.7514 5.82032 14.7497C5.82234 14.748 5.82488 14.7471 5.82751 14.7471H7.67748C7.68442 14.7471 7.68852 14.7437 7.68979 14.737Z" fill="#006960"/>
<path d="M6.28002 16.7824C6.25642 16.5036 6.22813 16.2325 6.21656 15.9564C6.21626 15.9513 6.21871 15.9488 6.22388 15.9488L7.57938 15.957C7.58387 15.957 7.58632 15.9592 7.58671 15.9637L7.63522 16.4979C7.6361 16.508 7.64157 16.5131 7.65163 16.5133C7.88798 16.5183 8.15832 16.5187 8.46267 16.5146C8.5553 16.5134 8.64001 16.5127 8.7168 16.5127C8.72149 16.5127 8.72476 16.5106 8.72662 16.5063L8.96155 15.956C8.9636 15.9511 8.96726 15.9486 8.97254 15.9486L10.4144 15.9505C10.4154 15.9506 10.4165 15.9508 10.4174 15.9513C10.4184 15.9519 10.4192 15.9526 10.4198 15.9535C10.4204 15.9544 10.4207 15.9554 10.4208 15.9565C10.4209 15.9576 10.4208 15.9586 10.4204 15.9596L10.0754 16.7825C10.0729 16.7882 10.0748 16.7911 10.0809 16.7912C10.4611 16.796 10.8298 16.7972 11.187 16.795C11.1882 16.795 11.1894 16.7946 11.1904 16.7938C11.1913 16.793 11.1919 16.7919 11.1921 16.7907C11.2305 16.5879 11.2619 16.4135 11.2864 16.2675C11.3669 15.7859 11.4428 15.3512 11.5143 14.9636C11.5702 14.6591 11.6812 14.3617 11.9857 14.2265C12.0439 14.2005 12.1061 14.1897 12.1679 14.1733C12.1911 14.167 12.2154 14.1634 12.241 14.1624C12.33 14.159 12.4197 14.1567 12.5101 14.1557C12.7383 14.153 12.9761 14.1509 13.2234 14.1492C13.3044 14.1486 13.4021 14.1489 13.5167 14.15C13.7617 14.1522 14.0057 14.1469 14.248 14.1469C14.776 14.1465 15.2982 14.1464 15.8147 14.1466C15.8196 14.1466 15.8217 14.149 15.8208 14.1539L15.6851 14.974C15.6843 14.9788 15.6815 14.9812 15.6767 14.9812C15.1358 14.9841 14.5947 14.9855 14.0536 14.9878C13.8433 14.9887 13.6267 14.9896 13.3938 14.9947C13.346 14.9958 13.2997 14.998 13.2549 15.0013C13.1097 15.012 12.9921 15.1742 12.9593 15.3001C12.9262 15.4271 12.897 15.5764 12.8718 15.748C12.871 15.7535 12.8734 15.7562 12.8788 15.7562L16.8958 15.7518C16.9009 15.7518 16.9044 15.7495 16.9065 15.7449L17.1973 15.0777C17.1994 15.0729 17.2031 15.0704 17.2083 15.0703C17.689 15.0684 18.1444 15.0686 18.5746 15.0709C18.671 15.0715 18.7712 15.073 18.8752 15.0753C18.9108 15.0761 18.9461 15.0785 18.9808 15.0825C18.9822 15.0826 18.9835 15.0831 18.9846 15.0838C18.9857 15.0845 18.9866 15.0855 18.9873 15.0867C18.988 15.0879 18.9884 15.0892 18.9885 15.0905C18.9886 15.0919 18.9884 15.0932 18.9879 15.0945L18.7178 15.7335C18.7153 15.7392 18.7172 15.7425 18.7233 15.7435C18.738 15.7456 18.752 15.7467 18.7654 15.7468C19.1521 15.7508 19.5466 15.7527 19.9488 15.7525C20.0083 15.7525 20.0682 15.7526 20.1284 15.7528C21.4451 15.7572 23.0695 15.7571 25.0014 15.7524C25.943 15.7501 26.8969 15.7515 27.8737 15.7511C27.8789 15.7511 27.8819 15.7485 27.8827 15.7435L27.9932 15.0766C27.9938 15.0726 27.9959 15.0689 27.9991 15.0663C28.0022 15.0637 28.0062 15.0624 28.0103 15.0626C28.0437 15.0639 28.0793 15.0633 28.117 15.0607C28.1544 15.058 28.1902 15.0572 28.2244 15.0582C28.3295 15.0612 28.4375 15.0563 28.5429 15.0558C28.8817 15.0545 29.2128 15.0547 29.5361 15.0564C29.6213 15.0568 29.713 15.0591 29.8113 15.0634C29.8272 15.0641 29.8338 15.0723 29.8313 15.0879L29.7243 15.7547C29.7242 15.7552 29.7242 15.7557 29.7243 15.7562C29.7245 15.7567 29.7247 15.7571 29.725 15.7575C29.7253 15.7579 29.7258 15.7582 29.7262 15.7584C29.7267 15.7586 29.7271 15.7587 29.7276 15.7587H33.3218C33.3264 15.7587 33.3283 15.761 33.3276 15.7656L33.1691 16.7043C33.1683 16.709 33.1655 16.7113 33.1607 16.7113H27.2843C27.2796 16.7113 27.2766 16.7136 27.2753 16.7181C27.2659 16.7518 27.2576 16.7849 27.2503 16.8176C27.1892 17.0881 27.1274 17.3599 27.0647 17.6329C27.0643 17.6346 27.0643 17.6364 27.0646 17.6382C27.065 17.6399 27.0657 17.6416 27.0667 17.6431C27.0678 17.6446 27.0691 17.6458 27.0707 17.6467C27.0722 17.6476 27.0739 17.6482 27.0757 17.6484C27.1045 17.6516 27.1316 17.6537 27.1568 17.6545C27.328 17.6605 27.4973 17.6621 27.6646 17.6592C27.7039 17.6586 27.7563 17.6639 27.8023 17.6639C28.9687 17.6641 30.1348 17.664 31.3005 17.6636C31.3314 17.6636 31.3623 17.6674 31.393 17.6673C31.7018 17.667 31.9909 17.6683 32.2601 17.6711C32.3285 17.6718 32.393 17.6737 32.4536 17.677C32.4551 17.6771 32.4566 17.6775 32.4579 17.6781C32.4592 17.6788 32.4604 17.6798 32.4614 17.6809C32.4623 17.6821 32.463 17.6834 32.4634 17.6849C32.4637 17.6863 32.4638 17.6878 32.4636 17.6893C32.2355 19.0399 32.0214 20.3726 31.778 21.7566C31.7674 21.8163 31.7513 21.8696 31.7296 21.9165C31.6375 22.1153 31.4983 22.2656 31.3122 22.3675C31.2144 22.421 31.0968 22.4598 30.9593 22.4839C30.8763 22.4983 30.7785 22.5062 30.666 22.5075C30.3753 22.5106 30.1102 22.5119 29.8708 22.5114C29.8159 22.5112 29.756 22.5114 29.6912 22.5118C29.0367 22.5162 28.4345 22.5169 27.8844 22.5138C27.8804 22.5138 27.8783 22.5118 27.878 22.5077C27.8764 22.4856 27.8766 22.4684 27.8785 22.4563C27.926 22.1652 27.974 21.88 28.0223 21.6007C28.0232 21.5955 28.026 21.5908 28.0302 21.5876C28.0344 21.5844 28.0396 21.5829 28.0449 21.5834C28.0678 21.5856 28.0909 21.5854 28.1144 21.5828C28.1371 21.5803 28.1603 21.5792 28.1838 21.5795C28.2464 21.5802 28.3081 21.5796 28.3689 21.5776C28.4223 21.5757 28.4841 21.5753 28.5545 21.5762C28.6414 21.5776 28.7296 21.5754 28.8191 21.5696C28.8452 21.568 28.871 21.5737 28.897 21.5736C29.1033 21.5718 29.3053 21.5705 29.5028 21.5695C29.5299 21.5694 29.5566 21.5639 29.5828 21.5531C29.6207 21.5374 29.6572 21.52 29.6923 21.5008C29.8361 21.4222 29.8887 21.288 29.9199 21.1335C29.9426 21.0212 29.964 20.9008 29.9843 20.7721C30.0964 20.0608 30.2092 19.3446 30.3227 18.6234C30.3233 18.6188 30.3214 18.6165 30.3168 18.6165H26.8461C26.8431 18.6165 26.8413 18.618 26.8406 18.6208L25.9524 22.5094C25.952 22.5109 25.9512 22.5122 25.95 22.5132C25.9488 22.5141 25.9473 22.5146 25.9458 22.5146C24.8483 22.5161 23.8517 22.5156 22.956 22.5132C22.9148 22.513 22.8753 22.5079 22.8351 22.508C22.6511 22.5084 22.4671 22.5083 22.2829 22.5077C22.28 22.5077 22.2782 22.5063 22.2776 22.5033L21.7639 19.7381C21.7637 19.737 21.7638 19.7358 21.7641 19.7347C21.7644 19.7336 21.765 19.7325 21.7658 19.7315C21.7666 19.7306 21.7676 19.7298 21.7687 19.7292C21.7699 19.7287 21.7712 19.7283 21.7724 19.7282C21.8172 19.7235 21.861 19.7208 21.9038 19.7203C22.2845 19.715 22.7187 19.7137 23.2062 19.7163C23.3071 19.7169 23.4 19.7193 23.4848 19.7236C23.4971 19.7243 23.5089 19.7268 23.5203 19.7311C23.5234 19.7323 23.5262 19.7343 23.5283 19.7369C23.5305 19.7395 23.532 19.7426 23.5326 19.7459C23.6869 20.5855 23.8455 21.4254 24.0086 22.2656C24.0199 22.3241 24.0327 22.3823 24.047 22.4403C24.0515 22.4586 24.0559 22.4586 24.0603 22.4403C24.1019 22.2703 24.1432 22.0948 24.1843 21.9139C24.5761 20.1921 24.9687 18.4679 25.362 16.7415C25.3624 16.74 25.3624 16.7384 25.3621 16.7368C25.3618 16.7353 25.3611 16.7338 25.3602 16.7325C25.3593 16.7313 25.3581 16.7302 25.3568 16.7294C25.3554 16.7286 25.3539 16.7282 25.3524 16.728C25.3135 16.724 25.2759 16.7216 25.2397 16.7207C25.0652 16.7163 24.888 16.7144 24.7081 16.715C24.6901 16.715 24.6722 16.7159 24.6545 16.7176C24.6298 16.72 24.6042 16.715 24.5794 16.715C23.1323 16.715 21.6854 16.7139 20.2383 16.7166C19.5907 16.7178 18.9431 16.7185 18.2956 16.7188C18.2932 16.7188 18.2908 16.7195 18.2888 16.7209C18.2868 16.7222 18.2852 16.7241 18.2843 16.7264L17.6945 18.0963C17.6892 18.1088 17.6934 18.115 17.707 18.115L19.1355 18.1194C19.141 18.1195 19.1443 18.1168 19.1451 18.1112L19.2729 17.3499C19.2733 17.3475 19.2745 17.3454 19.2763 17.3439C19.2781 17.3423 19.2804 17.3415 19.2828 17.3415H21.1976C21.1996 17.3415 21.2004 17.3425 21.2001 17.3444L21.0779 18.0958C21.0764 18.1046 21.0802 18.1091 21.0892 18.1093C21.3379 18.1142 21.583 18.1167 21.8248 18.1168C22.3861 18.1172 22.95 18.1185 23.5175 18.1191C23.5541 18.1191 23.5908 18.1192 23.6274 18.1193C23.8694 18.1197 24.1143 18.1223 24.3621 18.1272C24.3713 18.1273 24.3748 18.1318 24.3728 18.1408L24.1635 19.037C24.1605 19.05 24.1523 19.0568 24.139 19.0575C24.0001 19.0646 23.8466 19.0684 23.6787 19.069C23.482 19.0695 23.2849 19.0698 23.0887 19.0722C22.9813 19.0735 22.8836 19.0741 22.7955 19.0741C22.1693 19.0741 21.5431 19.0758 20.917 19.0792C20.912 19.0792 20.9091 19.0817 20.9083 19.0867L20.328 22.5073C20.3271 22.5124 20.3241 22.5149 20.3189 22.5149H18.4028C18.3981 22.5149 18.3962 22.5126 18.397 22.5079L18.9789 19.0779C18.9797 19.0734 18.9778 19.0711 18.9731 19.071C17.973 19.0704 17.0287 19.0706 16.1403 19.0716C16.0935 19.0716 16.0446 19.0643 16.0027 19.0643C15.8325 19.064 15.661 19.0638 15.4881 19.0638C15.4867 19.0638 15.4853 19.0635 15.484 19.0628C15.4827 19.0621 15.4817 19.0611 15.4809 19.0599C15.4801 19.0587 15.4796 19.0574 15.4795 19.0559C15.4794 19.0545 15.4796 19.0531 15.4802 19.0518L16.4846 16.7229C16.4848 16.7223 16.4849 16.7217 16.4849 16.7211C16.4848 16.7205 16.4846 16.7199 16.4843 16.7194C16.4839 16.7189 16.4835 16.7185 16.4829 16.7182C16.4824 16.7179 16.4818 16.7178 16.4812 16.7178L14.9557 16.7139C14.9421 16.7139 14.9341 16.7205 14.9317 16.734C14.8747 17.0522 14.8209 17.3622 14.7701 17.6638C14.5471 18.9903 14.324 20.3168 14.101 21.6434C14.093 21.6909 14.085 21.7383 14.0771 21.7855C13.8772 22.9716 13.6765 24.1576 13.475 25.3433C13.4742 25.348 13.4714 25.3503 13.4667 25.3503L12.0164 25.3586C12.0099 25.3586 12.0072 25.3554 12.0083 25.349L13.457 16.7384C13.4588 16.7282 13.4545 16.7224 13.4443 16.7211C13.4007 16.7157 13.3585 16.7128 13.3178 16.7125C13.1295 16.711 12.9286 16.7107 12.715 16.7115C12.7095 16.7115 12.7063 16.7142 12.7053 16.7197L11.725 22.4927C11.7245 22.4956 11.723 22.4982 11.7208 22.5002C11.7186 22.5021 11.7157 22.5033 11.7127 22.5035C11.5799 22.5104 11.4528 22.5131 11.3314 22.5116C11.3004 22.5112 11.2686 22.5112 11.236 22.5117C10.9211 22.5164 10.5873 22.5171 10.2344 22.5138C10.2341 22.5137 10.2338 22.5137 10.2336 22.5135C10.2333 22.5134 10.2331 22.5132 10.2329 22.513C10.2327 22.5128 10.2326 22.5125 10.2325 22.5122C10.2325 22.512 10.2324 22.5117 10.2325 22.5114L11.0637 17.5962C11.0643 17.5925 11.0627 17.5906 11.0589 17.5906H8.72252C8.71734 17.5906 8.71431 17.5932 8.71343 17.5983L8.61201 18.2018C8.61193 18.2023 8.61196 18.2029 8.61212 18.2034C8.61227 18.204 8.61254 18.2044 8.6129 18.2049C8.61326 18.2053 8.61371 18.2056 8.61422 18.2058C8.61472 18.2061 8.61527 18.2062 8.61582 18.2062H10.4382C10.4515 18.2062 10.4571 18.2127 10.4548 18.2258L10.3285 18.9825C10.3276 18.9875 10.3247 18.9899 10.3197 18.9898C10.1147 18.9884 9.89291 18.9935 9.70459 18.9935C9.30635 18.9934 8.90161 18.9962 8.49037 19.002C8.48555 19.0021 8.4809 19.0038 8.47724 19.007C8.47357 19.0102 8.47111 19.0146 8.47029 19.0194L7.87279 22.5064C7.87181 22.5121 7.86844 22.5149 7.86267 22.5149C7.45368 22.515 7.04514 22.515 6.63703 22.5148C6.55393 22.5148 6.47244 22.5076 6.39023 22.505C6.36746 22.5043 6.35803 22.4927 6.36194 22.4702L6.94904 19.0336C6.95178 19.0172 6.94489 19.0083 6.92838 19.0068C6.86731 19.0014 6.81465 18.9987 6.77039 18.9986C6.33102 18.9969 5.8957 18.9966 5.46443 18.9976C5.40581 18.9977 5.34851 18.9892 5.28974 18.9901C5.22838 18.991 5.16917 18.9911 5.11211 18.9904C5.11073 18.9904 5.10937 18.9901 5.10813 18.9895C5.10689 18.9889 5.10578 18.988 5.10489 18.987C5.10401 18.9859 5.10335 18.9847 5.10298 18.9833C5.10261 18.982 5.10252 18.9806 5.10273 18.9793L5.23038 18.2154C5.2308 18.2128 5.23212 18.2105 5.23411 18.2088C5.23609 18.2071 5.23862 18.2062 5.24123 18.2062H7.0805C7.08235 18.2062 7.08413 18.2055 7.08555 18.2043C7.08697 18.2031 7.08793 18.2014 7.08827 18.1996L7.18998 17.6238C7.19262 17.6088 7.18641 17.6006 7.17137 17.5991C7.12672 17.5948 7.08949 17.5927 7.05969 17.5927C6.48519 17.592 5.92496 17.5904 5.37899 17.5877C5.35964 17.5876 5.33844 17.5872 5.31538 17.5865C5.2254 17.5837 5.12769 17.5828 5.02227 17.5838C5.01602 17.5839 5.01338 17.5808 5.01436 17.5747L5.14259 16.8077C5.14347 16.8023 5.1467 16.7995 5.15227 16.7995L6.27195 16.7913C6.27782 16.7912 6.2805 16.7883 6.28002 16.7824Z" fill="#006960"/>
<path d="M33.6078 14.2722V15.032C33.6078 15.0342 33.6069 15.0364 33.6053 15.038C33.6037 15.0396 33.6016 15.0405 33.5993 15.0405L33.4993 15.0403C33.4971 15.0403 33.4949 15.0394 33.4933 15.0378C33.4917 15.0362 33.4908 15.0341 33.4908 15.0318L33.4907 14.2722C33.4907 14.27 33.4898 14.2678 33.4882 14.2662C33.4866 14.2646 33.4845 14.2637 33.4822 14.2637L33.1472 14.2639C33.1449 14.2639 33.1428 14.263 33.1412 14.2614C33.1396 14.2598 33.1387 14.2576 33.1387 14.2554L33.1396 14.1553C33.1396 14.153 33.1404 14.1509 33.142 14.1493C33.1436 14.1477 33.1458 14.1468 33.1481 14.1468L33.9512 14.1465C33.9534 14.1465 33.9556 14.1474 33.9572 14.149C33.9588 14.1506 33.9597 14.1527 33.9597 14.155L33.9598 14.2555C33.9598 14.2578 33.9589 14.2599 33.9573 14.2615C33.9557 14.2631 33.9536 14.264 33.9513 14.264L33.6163 14.2637C33.614 14.2637 33.6119 14.2646 33.6103 14.2662C33.6087 14.2678 33.6078 14.27 33.6078 14.2722Z" fill="#006960"/>
<path d="M34.191 14.3241C34.1862 14.3111 34.1833 14.3115 34.1825 14.3252L34.136 15.0371C34.1359 15.0381 34.1354 15.0391 34.1347 15.0399C34.1339 15.0406 34.1328 15.041 34.1318 15.041H34.0363C34.0353 15.041 34.0343 15.0406 34.0335 15.0399C34.0328 15.0391 34.0324 15.0381 34.0324 15.0371C34.0317 14.9831 34.0332 14.9323 34.0368 14.8845C34.0527 14.6704 34.0713 14.4328 34.0926 14.1716C34.093 14.167 34.0949 14.1626 34.0981 14.1592C34.1013 14.1558 34.1056 14.1536 34.1102 14.1529C34.1501 14.1468 34.1924 14.1451 34.2373 14.1476C34.2431 14.1479 34.247 14.1508 34.2489 14.1564C34.3293 14.3945 34.4108 14.6277 34.4936 14.8561C34.4987 14.8701 34.5039 14.8702 34.5091 14.8562C34.5978 14.6218 34.6808 14.3905 34.7581 14.1621C34.76 14.1566 34.7639 14.1537 34.7697 14.1536L34.888 14.1497C34.8953 14.1494 34.9024 14.152 34.9078 14.1568C34.9133 14.1616 34.9167 14.1683 34.9173 14.1756C34.9331 14.3562 34.9474 14.5358 34.9602 14.7146C34.9679 14.8205 34.9783 14.9263 34.9916 15.0319C34.9925 15.0393 34.9893 15.0427 34.9819 15.0423L34.8872 15.0376C34.8839 15.0375 34.8807 15.0361 34.8783 15.0337C34.8759 15.0314 34.8745 15.0282 34.8742 15.0249L34.8295 14.3565C34.829 14.35 34.8265 14.349 34.8219 14.3535C34.8122 14.3631 34.8049 14.3743 34.8 14.3872C34.7148 14.6111 34.6374 14.8238 34.5679 15.0255C34.566 15.031 34.5621 15.0339 34.5563 15.0344L34.4589 15.0422C34.4533 15.0427 34.4495 15.0402 34.4476 15.0349L34.191 14.3241Z" fill="#006960"/>
<path d="M15.9818 19.7167C15.9818 19.7164 15.982 19.7162 15.9822 19.7161C15.9824 19.7159 15.9827 19.7158 15.9829 19.7158C16.4265 19.7158 16.8704 19.7158 17.3145 19.7158C17.3348 19.7158 17.3555 19.7161 17.3768 19.7166C17.5019 19.7194 17.633 19.7217 17.7702 19.7236C17.7717 19.7236 17.7732 19.724 17.7745 19.7247C17.7758 19.7255 17.7769 19.7265 17.7777 19.7278C17.7785 19.729 17.779 19.7305 17.7791 19.732C17.7792 19.7335 17.779 19.735 17.7784 19.7363L16.6046 22.4994C16.6026 22.5042 16.5989 22.5067 16.5936 22.5067C16.0841 22.5111 15.5725 22.5126 15.0587 22.5112C15.0185 22.5111 14.9787 22.5096 14.9393 22.5067C14.8986 22.5038 14.8587 22.5025 14.8199 22.5029C14.8054 22.503 14.801 22.4964 14.8065 22.4831C14.9881 22.0531 15.1726 21.6203 15.3601 21.1846C15.3907 21.1132 15.4222 21.0391 15.4544 20.9624C15.63 20.5451 15.8058 20.1299 15.9818 19.7167Z" fill="#006960"/>
<path d="M26.1644 24.1136C26.1311 24.1789 26.1254 24.2453 26.1203 24.3176C26.118 24.3489 26.1187 24.3788 26.1225 24.4073C26.1363 24.5127 26.1794 24.6014 26.2517 24.6734C26.346 24.7674 26.4605 24.8271 26.5952 24.8525C26.6637 24.8655 26.7388 24.8721 26.8204 24.8723C26.9672 24.8728 27.112 24.8435 27.2549 24.7844C27.3337 24.7517 27.4098 24.6985 27.4813 24.6497C27.4859 24.6466 27.4901 24.647 27.4938 24.6511C27.6265 24.7959 27.7517 24.9384 27.8694 25.0787C27.8784 25.0893 27.8773 25.0988 27.866 25.1072C27.823 25.1392 27.7766 25.1684 27.7267 25.195C27.323 25.4091 26.8699 25.4922 26.4054 25.4503C26.0493 25.4182 25.6366 25.2687 25.4099 24.9827C25.2984 24.842 25.2313 24.6907 25.2085 24.5288C25.1997 24.467 25.1957 24.3995 25.1964 24.3262C25.1986 24.075 25.3124 23.8259 25.4819 23.6443C25.6344 23.4809 25.8485 23.3638 26.0624 23.2891C26.1862 23.2458 26.3141 23.212 26.4463 23.1878C26.5326 23.1721 26.6281 23.1645 26.7329 23.1651C26.9174 23.166 27.045 23.1695 27.1155 23.1753C27.4903 23.2067 27.8264 23.3397 28.1237 23.5744C28.1241 23.5748 28.1245 23.5753 28.1247 23.5758C28.125 23.5763 28.1251 23.5769 28.125 23.5775C28.125 23.5781 28.1248 23.5787 28.1245 23.5792C28.1242 23.5797 28.1237 23.5801 28.1232 23.5804L27.5618 23.932C27.5568 23.935 27.5521 23.9348 27.5476 23.9313C27.4894 23.886 27.4258 23.8342 27.3607 23.8039C27.2621 23.758 27.1702 23.7294 27.085 23.7182C27.0059 23.7078 26.9133 23.7064 26.8073 23.7138C26.6914 23.7218 26.574 23.7559 26.455 23.8162C26.3298 23.8796 26.233 23.9787 26.1644 24.1136Z" fill="#F39800"/>
<path d="M16.1667 23.8216C16.1705 23.827 16.1749 23.8275 16.1799 23.823L16.8058 23.2676C16.8103 23.2637 16.8155 23.2617 16.8215 23.2617L17.8053 23.2699C17.813 23.2699 17.8141 23.2725 17.8084 23.2777C17.4399 23.6108 17.0605 23.9527 16.691 24.2971C16.6883 24.2997 16.6881 24.3024 16.6905 24.3052C16.9694 24.6456 17.243 24.9824 17.5239 25.3391C17.525 25.3405 17.5257 25.3421 17.5259 25.3439C17.5261 25.3456 17.5258 25.3474 17.525 25.3489C17.5243 25.3505 17.5231 25.3518 17.5216 25.3528C17.5201 25.3537 17.5184 25.3542 17.5166 25.3542L16.5052 25.3591C16.5001 25.3591 16.4961 25.3571 16.4931 25.3531L16.0355 24.7588C16.0348 24.7578 16.0339 24.7571 16.0328 24.7565C16.0318 24.7559 16.0306 24.7556 16.0295 24.7555C16.0283 24.7553 16.0271 24.7555 16.026 24.7559C16.0248 24.7562 16.0238 24.7568 16.0229 24.7576L15.3335 25.3531C15.3297 25.3563 15.3253 25.3579 15.3203 25.3579H14.3098C14.301 25.3579 14.2999 25.355 14.3064 25.3491C14.6814 25.0129 15.0567 24.6754 15.4323 24.3367C15.4548 24.3166 15.4765 24.2957 15.4975 24.2741C15.5008 24.2706 15.5011 24.2668 15.4984 24.2627C15.426 24.1563 15.3552 24.0566 15.286 23.9636C15.1176 23.7374 14.9433 23.5051 14.7633 23.2666C14.763 23.2661 14.7628 23.2657 14.7627 23.2652C14.7627 23.2647 14.7628 23.2641 14.763 23.2637C14.7633 23.2632 14.7636 23.2629 14.764 23.2626C14.7645 23.2623 14.7649 23.2622 14.7654 23.2622H15.773C15.7771 23.2622 15.7803 23.2639 15.7827 23.2673L16.1667 23.8216Z" fill="#F39800"/>
<path d="M22.3753 24.2731L23.5873 24.2744C23.5945 24.2744 23.5975 24.278 23.5963 24.2851L23.5255 24.6847C23.5244 24.6903 23.521 24.6933 23.5154 24.6936C23.4561 24.6959 23.4073 24.6971 23.3692 24.697C23.029 24.6964 22.7021 24.6984 22.3883 24.7031C22.3631 24.7035 22.3334 24.7061 22.2992 24.7109C22.2958 24.7114 22.2926 24.7129 22.29 24.7153C22.2875 24.7177 22.2858 24.7208 22.2852 24.7242L22.1684 25.3506C22.1675 25.3555 22.1646 25.3579 22.1596 25.3579C21.9069 25.3581 21.6547 25.3582 21.403 25.3581C21.3548 25.3581 21.3085 25.3502 21.2597 25.349C21.2576 25.3489 21.2554 25.3484 21.2535 25.3475C21.2516 25.3465 21.2499 25.3452 21.2485 25.3435C21.2471 25.3418 21.2461 25.3399 21.2456 25.3378C21.2451 25.3357 21.245 25.3335 21.2454 25.3314C21.3531 24.7268 21.4574 24.1386 21.5581 23.5667C21.5746 23.4725 21.5923 23.3787 21.6112 23.2853C21.6121 23.2806 21.6151 23.2779 21.62 23.2773C21.6828 23.2706 21.7462 23.267 21.8102 23.2663C22.5037 23.2592 23.1926 23.2604 23.8771 23.2699C23.8789 23.27 23.8807 23.2704 23.8824 23.2712C23.8841 23.272 23.8856 23.2731 23.8868 23.2745C23.8879 23.276 23.8888 23.2776 23.8893 23.2794C23.8898 23.2812 23.8898 23.2831 23.8895 23.2849L23.8184 23.6881C23.8175 23.6939 23.814 23.697 23.8082 23.6972C23.6505 23.7045 23.4893 23.7043 23.3303 23.704C23.0476 23.7036 22.7614 23.7059 22.4716 23.7109C22.4658 23.711 22.4625 23.714 22.4615 23.7197L22.3675 24.2639C22.3665 24.27 22.369 24.2731 22.3753 24.2731Z" fill="#F39800"/>
<path d="M30.4543 24.4021L30.6709 23.2775C30.6718 23.2727 30.6748 23.2702 30.6798 23.2701L31.5165 23.2617C31.5225 23.2616 31.5249 23.2645 31.5238 23.2704L31.173 25.3443C31.1726 25.3462 31.1717 25.3479 31.1702 25.3491C31.1688 25.3504 31.167 25.3511 31.1651 25.3512C30.9468 25.3585 30.7405 25.3605 30.5461 25.3573C30.5416 25.3572 30.5376 25.3555 30.5344 25.3522L29.4547 24.2388C29.4538 24.2378 29.4526 24.2371 29.4512 24.2367C29.4499 24.2363 29.4485 24.2363 29.4471 24.2366C29.4458 24.237 29.4445 24.2377 29.4435 24.2387C29.4426 24.2397 29.4419 24.241 29.4416 24.2423C29.4124 24.3628 29.3848 24.4909 29.3586 24.6266C29.3107 24.8751 29.2622 25.1162 29.2129 25.35C29.2124 25.3523 29.2111 25.3544 29.2093 25.3559C29.2074 25.3574 29.2051 25.3582 29.2027 25.3582C29.0291 25.3583 28.8458 25.3582 28.6525 25.3579C28.6035 25.3578 28.5528 25.3561 28.5005 25.3528C28.4513 25.3498 28.4018 25.3487 28.3522 25.3496C28.3512 25.3496 28.3502 25.3494 28.3493 25.3489C28.3483 25.3485 28.3475 25.3479 28.3469 25.3471C28.3462 25.3464 28.3457 25.3455 28.3455 25.3445C28.3452 25.3435 28.3451 25.3425 28.3453 25.3415C28.463 24.6626 28.5808 23.9908 28.6985 23.3261C28.7008 23.3132 28.7039 23.2997 28.708 23.2856C28.7094 23.2806 28.7126 23.2775 28.7176 23.2762C28.7314 23.2727 28.7449 23.2706 28.7579 23.2699C28.9015 23.2632 29.0958 23.2608 29.3407 23.2627C29.3465 23.2627 29.3513 23.2648 29.3552 23.269C29.6428 23.5711 29.9279 23.872 30.2107 24.1715C30.2851 24.2504 30.3628 24.3284 30.4436 24.4056C30.4444 24.4064 30.4454 24.4069 30.4466 24.4071C30.4477 24.4074 30.4488 24.4073 30.4499 24.407C30.451 24.4066 30.452 24.406 30.4528 24.4051C30.4535 24.4042 30.454 24.4032 30.4543 24.4021Z" fill="#F39800"/>
<path d="M20.392 23.3769C20.4582 23.403 20.5122 23.4279 20.5541 23.4518C20.8059 23.595 20.935 23.8146 20.9413 24.1107C20.9468 24.371 20.8833 24.603 20.7506 24.8067C20.6976 24.8881 20.6359 24.9562 20.5655 25.011C20.4178 25.126 20.2406 25.2132 20.0566 25.2629C19.9785 25.284 19.8985 25.3023 19.8166 25.3179C19.7411 25.3321 19.6602 25.3403 19.574 25.3423C19.0511 25.3545 18.536 25.3588 18.0066 25.3582C18.001 25.3582 17.9988 25.3554 17.9997 25.35L18.3633 23.2838C18.3652 23.2732 18.3715 23.2678 18.3824 23.2677C18.8115 23.264 19.2122 23.2653 19.5846 23.2715C19.6903 23.2734 19.7966 23.2761 19.9033 23.2796C19.9693 23.2818 20.0318 23.289 20.0908 23.3013C20.1631 23.3163 20.2342 23.3322 20.304 23.3489C20.3328 23.3557 20.3621 23.3651 20.392 23.3769ZM19.6217 23.7488C19.5007 23.7375 19.3831 23.7319 19.2688 23.732C19.2532 23.732 19.2379 23.734 19.2227 23.738C19.2191 23.7389 19.2158 23.7409 19.2132 23.7436C19.2107 23.7464 19.2089 23.7498 19.2082 23.7535C19.1354 24.1409 19.0694 24.5139 19.0101 24.8723C19.0098 24.8741 19.0098 24.8759 19.0102 24.8777C19.0106 24.8794 19.0114 24.8811 19.0124 24.8825C19.0135 24.884 19.0148 24.8852 19.0164 24.8861C19.0179 24.887 19.0196 24.8876 19.0214 24.8879C19.0389 24.8903 19.0569 24.8913 19.0756 24.8908C19.2211 24.8868 19.3497 24.8745 19.4613 24.854C19.6633 24.8171 19.834 24.711 19.93 24.5291C19.9851 24.4249 20.0135 24.3004 20.015 24.1558C20.0161 24.0667 19.9947 23.9884 19.951 23.9209C19.8856 23.8199 19.7414 23.76 19.6217 23.7488Z" fill="#F39800"/>
<path d="M23.8322 25.3386L23.9241 24.8135C23.9283 24.7893 23.9427 24.7769 23.9673 24.7763C24.217 24.77 24.4549 24.7699 24.6809 24.7758C24.6967 24.7762 24.7034 24.7842 24.7008 24.7999L24.6111 25.3499C24.6104 25.3548 24.6075 25.3573 24.6025 25.3574C24.3461 25.3609 24.0931 25.3591 23.8433 25.3521C23.8417 25.3521 23.84 25.3517 23.8385 25.3509C23.8371 25.3502 23.8357 25.3492 23.8347 25.3479C23.8336 25.3466 23.8329 25.3451 23.8324 25.3435C23.832 25.3419 23.8319 25.3403 23.8322 25.3386Z" fill="#F39800"/>
</g>
<circle cx="20" cy="20" r="19.5" stroke="black" stroke-opacity="0.05"/>
<defs>
<clipPath id="clip0_9_401134">
<rect width="30" height="11.4753" fill="white" transform="translate(5 14)"/>
</clipPath>
</defs>
</svg>
