<svg width="40" height="40" viewBox="0 0 40 40" fill="none" xmlns="http://www.w3.org/2000/svg">
<circle cx="20" cy="20" r="20" fill="#004AA2"/>
<g clip-path="url(#clip0_9_391889)">
<path d="M19.8898 26.1935L5.01664 18.6175L5 18.5926L5.01248 18.5676L19.7982 11H19.8232L34.9626 18.5718L34.975 18.6009L34.9626 18.6217L19.9147 26.1935H19.8898ZM11.4734 18.5385L11.8187 18.5218L12.2348 18.5343L12.3388 18.5551L12.4178 18.5967L12.4678 18.6467L12.5094 18.7215L12.5718 18.9379L12.5842 19.0003L12.6009 19.0419L12.6258 19.071L12.6633 19.0876H12.7091H12.759L12.8006 19.0793L12.8297 19.0585L12.8463 19.0294V18.9878L12.8297 18.447L12.8505 17.9103L12.863 17.773L12.8505 17.7023L12.7881 17.6648L12.6966 17.6399H12.6591H12.63L12.605 17.6607L12.5926 17.6981L12.5801 17.7563L12.5426 17.902L12.501 18.006L12.447 18.085L12.3846 18.1349L12.2972 18.1599L11.8687 18.189L11.4277 18.1807L11.4069 18.1682L11.3986 18.1474V16.7079L11.4152 16.6539L11.4443 16.6081L11.4901 16.5748L11.5442 16.5623H11.5691L12.0268 16.5457L12.1973 16.5582L12.3513 16.579L12.4927 16.6164L12.6175 16.6663L12.7257 16.7287L12.8255 16.8078L12.9296 16.9326L13.0044 17.0741L13.0336 17.1531L13.1043 17.3112L13.1417 17.357L13.1917 17.3861L13.2374 17.3986H13.2915L13.3456 17.3611L13.3664 17.2987L13.2915 16.267L13.2749 16.2545H9.94661L9.90917 16.2794L9.86756 16.3377V16.346L9.85924 16.3918L9.87588 16.4375L9.90917 16.4708L9.95077 16.4874H9.97573L10.2045 16.5499L10.2836 16.5915L10.3377 16.6414L10.3834 16.7204L10.4084 16.8286L10.4334 17.3694V17.5525L10.425 19.9114V19.9197L10.4167 20.1152L10.3918 20.2567L10.346 20.3649L10.2753 20.4356L10.2045 20.4647L9.79268 20.5396L9.7594 20.5521L9.73443 20.5729L9.71779 20.602V20.6353V20.6769L9.72611 20.7143L9.74275 20.7434L9.77188 20.7601H9.81348H13.3622L13.4205 20.7434L13.4579 20.6935L13.5744 20.3773L13.6493 20.1277L13.6909 19.9114V19.7283V19.6992L13.6659 19.6784L13.5994 19.6618L13.5411 19.6701L13.4829 19.7034L13.4371 19.7699L13.279 20.0362L13.1251 20.2276L13.046 20.2983L12.9587 20.3565L12.8713 20.3981L12.7756 20.4273H12.759L12.5343 20.4605L12.293 20.473L12.0351 20.4647L11.7605 20.4356L11.6815 20.4148L11.6149 20.3815L11.54 20.3108L11.4818 20.2068L11.4443 20.0778L11.4277 19.928L11.4152 19.2749L11.4277 18.6009L11.4443 18.551L11.4942 18.5302L11.4734 18.5385ZM29.4169 18.006V17.5067L29.4002 17.4277L29.3586 17.3819L29.3253 17.3736H29.2837L29.2088 17.411L29.1464 17.4693L29.0591 17.5733L28.8843 17.7522L28.6846 17.9103L28.4642 18.0476L28.2187 18.1641L28.1313 18.2181L28.1064 18.2514L28.0939 18.2889L28.1147 18.3596L28.1521 18.3929L28.1979 18.4054H28.4433L28.4766 18.4178L28.4974 18.4386L28.5058 18.4678V19.8531L28.5099 20.0986L28.5474 20.3025L28.6139 20.4647L28.7096 20.5854L28.7928 20.6478L28.8927 20.6977L29.0008 20.731L29.1298 20.7518L29.2962 20.7601L29.4585 20.7518L29.6124 20.7268L29.7622 20.6852L29.9951 20.5854L30.2156 20.4397L30.2531 20.3981L30.2697 20.3482V20.3025L30.2406 20.265L30.199 20.24H30.1532L30.1241 20.2484L29.9827 20.3025L29.8454 20.3191L29.7122 20.2941L29.5958 20.2317L29.5209 20.161L29.4626 20.0695L29.4252 19.9655L29.4127 19.849L29.4044 19.15V18.4594L29.4252 18.422L29.4626 18.4054H30.0451H30.1033L30.1491 18.3804L30.1782 18.3388L30.1948 18.2847L30.2115 18.1932V18.1349L30.1948 18.0933L30.1574 18.0684L30.0992 18.06H29.4585L29.4293 18.0434L29.4169 18.0143V18.006ZM15.5838 20.4938L15.5755 20.7518L15.6005 20.8017L15.6504 20.8142L16.212 20.7434L16.7321 20.7018H16.807L16.8985 20.7351L16.9859 20.7601L17.0566 20.7684L17.8595 20.7767L18.6417 20.7684L18.6791 20.7601L18.7041 20.7434L18.7165 20.7143V20.6727L18.7082 20.6561L18.6957 20.6186L18.6708 20.5895L18.6375 20.5729H18.6001L18.5044 20.5646L18.4253 20.5521L18.3546 20.523L18.3005 20.4855L18.2506 20.4189L18.2215 20.3357L18.2048 20.2276V20.082V18.7756V18.7049L18.2339 18.5926L18.2548 18.551L18.2922 18.5218L18.338 18.5094L18.3837 18.5177H18.392L18.5626 18.6258L18.625 18.6716L18.7457 18.7423L18.8788 18.7673L18.9537 18.759L19.0244 18.7382L19.0951 18.7007L19.1575 18.6467L19.2116 18.5842L19.2532 18.5094L19.2782 18.4345L19.2865 18.3554L19.274 18.2514L19.2366 18.1474L19.17 18.0517L19.091 17.9893L19.0161 17.9602L18.937 17.9519L18.8414 17.9602L18.7457 17.9852L18.521 18.0892L18.2714 18.2639L18.2215 18.2764L18.184 18.2431V18.2223V17.9311V17.9144L18.1715 17.8853L18.1466 17.8645L18.1175 17.8562L18.0883 17.8645L17.5933 18.0767L17.1107 18.2431L17.0691 18.2681L17.0441 18.3055V18.3513L17.0566 18.397L17.0774 18.4178L17.2396 18.5551L17.2896 18.6217L17.3062 18.7007V19.1667L17.302 20.1028L17.2937 20.2442L17.2729 20.3524L17.2313 20.4397L17.1772 20.5021L17.1231 20.5354L17.0566 20.5562L17.0108 20.5438L16.99 20.5021L16.9775 20.3649L16.9567 20.3274L16.9151 20.3149L16.8194 20.3316L16.6738 20.3524L16.6239 20.3441L16.5823 20.3233L16.5407 20.2775L16.5116 20.2026L16.4866 20.0736L16.4783 19.9696V18.967L16.4908 18.006V17.9976L16.47 17.9602L16.4284 17.9519L16.1538 18.0101L15.8709 18.0559L15.5755 18.0892L15.2676 18.11L15.2219 18.1225L15.1761 18.1724L15.1636 18.2556L15.1844 18.3097L15.2344 18.3388L15.3176 18.3554L15.4507 18.3887L15.5297 18.4386L15.5672 18.5094L15.5838 18.6134L15.5922 19.2333V19.8739L15.588 19.9072V19.9571L15.5838 20.0196L15.5381 20.1111L15.4549 20.1818L15.3384 20.2359L15.2052 20.2609H15.068L14.939 20.2234L14.8308 20.161L14.7518 20.0778L14.6977 19.9696L14.6769 19.849L14.6644 18.9836L14.6852 18.0309V17.9852L14.6602 17.956L14.627 17.9436L14.5812 17.9519L14.5188 17.9685L14.2858 18.0226L14.0487 18.0642L13.8074 18.0892L13.5619 18.1017L13.4954 18.1225L13.4662 18.1516L13.4496 18.1932V18.2389V18.2847L13.4829 18.3305L13.5328 18.3554L13.6326 18.3887L13.7075 18.447L13.7533 18.5302L13.7699 18.6425L13.7783 20.0071L13.7949 20.1776L13.8323 20.3233L13.8947 20.4522L13.978 20.5562L14.082 20.6394L14.1984 20.7018L14.3357 20.7434L14.4813 20.7642H14.6436L14.81 20.7351L14.9847 20.6894L15.1512 20.6228L15.3966 20.498L15.5048 20.4356H15.5505L15.5838 20.4647V20.4813V20.4938ZM23.4884 18.2306V18.1391L23.4967 17.9644L23.4843 17.9103L23.4468 17.8812L23.4052 17.8728L23.3636 17.8812L22.8935 18.0725L22.3859 18.2431L22.3443 18.2681L22.3194 18.3055V18.3513L22.3277 18.3929L22.3485 18.4137L22.5024 18.5468L22.5565 18.6217L22.5773 18.7091L22.5898 20.0154V20.1901L22.5648 20.3233L22.5232 20.4273L22.4608 20.498L22.3651 20.5438L22.2528 20.5604L22.1946 20.5812L22.1613 20.6311L22.153 20.681L22.1613 20.7143L22.1821 20.7434L22.2112 20.7642L22.2486 20.7726H23.7588L23.7838 20.7642L23.8046 20.7476L23.8337 20.6852L23.8212 20.627L23.8004 20.602L23.7713 20.5854L23.6091 20.5354L23.5591 20.498L23.5092 20.3981L23.4843 20.2941V20.2609L23.4718 19.5245L23.4843 18.7507L23.5092 18.6383L23.5716 18.551L23.6632 18.4886L23.7838 18.447L23.9169 18.4345L24.0459 18.4511L24.1707 18.4969L24.2664 18.5634L24.3413 18.655L24.3746 18.7423L24.387 18.8422L24.3954 19.5536L24.387 20.24L24.3787 20.3274L24.3579 20.4023L24.3288 20.4647L24.2872 20.5105L24.2165 20.5521L24.1249 20.5687L24.075 20.5895L24.0501 20.6394V20.6727L24.0417 20.7185L24.0542 20.7518L24.0833 20.7726L24.1291 20.7809H25.6393L25.6934 20.7684L25.7183 20.7185V20.7018V20.681L25.7017 20.6394L25.6767 20.6103L25.6019 20.5812L25.4812 20.5521L25.3897 20.4938L25.3439 20.4397L25.3106 20.369L25.2898 20.2858L25.2815 20.1901V18.7756L25.269 18.6425L25.2441 18.5218L25.2025 18.4095L25.1442 18.3097L25.0652 18.214L24.9653 18.1308L24.8197 18.0476L24.6616 17.9935L24.5451 17.9727H24.4287L24.3122 17.9768L24.1832 18.0018L23.9086 18.0933L23.53 18.2681H23.4967L23.4759 18.2431V18.2348L23.4884 18.2306ZM21.5331 20.5978L21.6995 20.5063L21.8493 20.4023L21.9741 20.2858L22.0822 20.1527L22.1779 19.9863L22.2486 19.7991L22.2903 19.6077L22.3111 19.4121V19.2166L22.2778 19.0252L22.2237 18.8463L22.1488 18.6758L22.0531 18.526L21.9325 18.3887L21.8243 18.293L21.7036 18.2098L21.558 18.1349L21.4083 18.0725L21.246 18.0226L21.0754 17.9893L20.9007 17.9685H20.726L20.5512 17.9768L20.3807 18.0018L20.2184 18.0434L20.0603 18.0975L19.9147 18.1641L19.7774 18.2431L19.6526 18.3346L19.5403 18.4386L19.4446 18.551L19.3614 18.6758L19.2948 18.8089L19.2449 18.9504L19.2116 19.096L19.1908 19.2541V19.4995L19.2199 19.7242L19.2823 19.9322L19.378 20.1152L19.4571 20.2234L19.5486 20.3233L19.6526 20.4148L19.7691 20.498L19.9563 20.5937L20.1602 20.6686L20.389 20.7185L20.6261 20.7434H20.8674L21.1046 20.7143L21.3251 20.6602L21.5248 20.5854L21.5331 20.5978ZM26.4214 19.1917L26.4464 19.1334L26.5046 19.1084H28.0148L28.0648 19.0918L28.1105 19.0627L28.1396 19.0211L28.1521 18.9712V18.8131L28.1272 18.6716L28.0856 18.5343L28.0232 18.4137L27.915 18.2764L27.7819 18.1641L27.6196 18.0725L27.4366 18.006L27.2285 17.9685L27.0164 17.9602L26.8042 17.981L26.5962 18.0309L26.4339 18.0933L26.2841 18.1682L26.1427 18.2639L26.0179 18.3721L25.9264 18.4719L25.8432 18.5801L25.7683 18.6966L25.7059 18.8214L25.6559 18.9504L25.6185 19.0835L25.5811 19.3581L25.5935 19.6285L25.6185 19.7616L25.6601 19.8906L25.71 20.0154L25.7724 20.1319L25.8473 20.2359L25.9305 20.3357L26.0928 20.4772L26.2841 20.5937L26.5005 20.681L26.7335 20.731L26.9706 20.7518L27.1953 20.7393L27.4033 20.6977L27.5946 20.6228L27.7569 20.5271L27.9067 20.4023L28.044 20.2525L28.1688 20.0736L28.1896 20.0154L28.1813 19.9405L28.1521 19.8906L28.1313 19.8739L28.0897 19.8573H28.0523L28.019 19.8739L27.9899 19.9031L27.9025 20.0029L27.8027 20.082L27.707 20.1319L27.603 20.1652L27.4906 20.186H27.37L27.1869 20.1735L27.0205 20.1277L26.8666 20.057L26.7335 19.9613L26.5962 19.8074L26.4963 19.6243L26.4339 19.4163L26.4131 19.1833L26.4214 19.1917Z" fill="white"/>
<path d="M11.4735 18.5381L11.4235 18.5589L11.4069 18.6089L11.3944 19.2828L11.4069 19.936L11.4235 20.0858L11.461 20.2147L11.5192 20.3187L11.5941 20.3895L11.6607 20.4228L11.7397 20.4436L12.0143 20.4727L12.2722 20.481L12.5135 20.4685L12.7382 20.4394H12.7548L12.8505 20.4061L12.9379 20.3645L13.0253 20.3063L13.1043 20.2355L13.2582 20.0442L13.4163 19.7779L13.4621 19.7113L13.5203 19.6781L13.5786 19.6697L13.6451 19.6864L13.6701 19.7072L13.6784 19.7363V19.9194L13.6327 20.1357L13.5578 20.3853L13.4413 20.7015L13.4038 20.7514L13.3456 20.7681H9.79686H9.75526L9.72613 20.7514L9.70949 20.7223L9.70117 20.6849V20.6432V20.61L9.71781 20.5808L9.74277 20.56L9.77606 20.5476L10.1879 20.4727L10.2587 20.4436L10.3294 20.3728L10.3751 20.2647L10.4001 20.1232L10.4084 19.9277V19.9194L10.4167 17.5605V17.3774L10.3918 16.8366L10.3668 16.7284L10.3211 16.6494L10.267 16.5994L10.1879 16.5578L9.95911 16.4996H9.93415L9.89255 16.4788L9.85926 16.4455L9.84262 16.3997V16.354L9.85094 16.3456L9.89255 16.2874L9.92999 16.2708H9.97575L13.2624 16.2666L13.279 16.2791L13.3539 17.3108L13.3331 17.3732L13.279 17.4065H13.225L13.1792 17.3982L13.1293 17.3691L13.0918 17.3233L13.0211 17.1652L12.992 17.0862L12.9171 16.9447L12.8131 16.8199L12.7132 16.7409L12.6051 16.6785L12.4803 16.6285L12.3388 16.5911L12.1849 16.5703L12.0143 16.5578L11.5567 16.5745H11.5317L11.4776 16.5911L11.4319 16.6244L11.4027 16.6702L11.3903 16.7242V18.1637V18.1845L11.4111 18.197L11.8521 18.2053L12.2806 18.1762L12.3679 18.1512L12.4303 18.1013L12.4844 18.0223L12.526 17.9182L12.5635 17.7726L12.5759 17.7144L12.5884 17.6769L12.6134 17.6561L12.6425 17.6478H12.68L12.7715 17.6769L12.8339 17.7144L12.8464 17.7851L12.8339 17.9224L12.8131 18.4591L12.8339 18.9999V19.0415L12.8172 19.0707L12.7881 19.0915L12.7465 19.0998H12.6966H12.6508L12.6134 19.0831L12.5884 19.054L12.5718 19.0124L12.5593 18.95L12.4969 18.7337L12.4553 18.6588L12.4054 18.6089L12.3263 18.5673L12.2223 18.5465L11.8063 18.534L11.461 18.5506L11.4735 18.5381Z" fill="#004AA2"/>
<path d="M29.4167 18.0064L29.4292 18.0355L29.4583 18.048H30.099L30.1573 18.0605L30.1947 18.0854L30.2113 18.127V18.1853L30.1947 18.2768L30.1781 18.3309L30.1489 18.3725L30.1032 18.3975L30.0449 18.4058H29.4625L29.425 18.4183L29.4084 18.4557V19.1463L29.4126 19.8452L29.425 19.9617L29.4625 20.0657L29.5207 20.1573L29.5956 20.228L29.7121 20.2904L29.8452 20.3154L29.9825 20.2987L30.124 20.2446L30.1531 20.2322H30.1989L30.2405 20.2571L30.2654 20.2946V20.3403L30.253 20.3902L30.2155 20.4319L29.995 20.5775L29.762 20.6773L29.6123 20.7189L29.4583 20.7439L29.2961 20.7522L29.1297 20.7439L29.0007 20.7231L28.8925 20.6898L28.7927 20.6399L28.7095 20.5775L28.6138 20.4568L28.5472 20.2946L28.5098 20.0907L28.5015 19.8452V18.4599L28.4848 18.4183L28.4432 18.4016H28.1978L28.152 18.3891L28.1146 18.3559L28.0938 18.2851L28.1062 18.2477L28.1312 18.2144L28.2186 18.1603L28.464 18.0438L28.6845 17.9065L28.8842 17.7485L29.0589 17.5696L29.1463 17.4656L29.2087 17.4073L29.2836 17.374H29.3252L29.3585 17.3782L29.4001 17.4239L29.4167 17.503V18.0022V18.0064Z" fill="#004AA2"/>
<path d="M15.584 20.4943V20.4777L15.5507 20.4444H15.5049L15.3968 20.5109L15.1513 20.6357L14.9849 20.7023L14.8101 20.7481L14.6437 20.773H14.4815L14.3359 20.7564L14.1986 20.7148L14.0821 20.6524L13.9781 20.5692L13.8949 20.4652L13.8325 20.3362L13.795 20.1906L13.7784 20.02L13.7701 18.6554L13.7534 18.5431L13.7077 18.4599L13.6328 18.4017L13.5329 18.3684L13.483 18.3434L13.4497 18.2977L13.4414 18.2519V18.2061L13.4622 18.1645L13.4913 18.1354L13.5579 18.1146L13.8034 18.1021L14.0447 18.0772L14.2818 18.0356L14.5148 17.9815L14.5772 17.9648L14.6229 17.9565L14.6562 17.969L14.677 17.9981V18.0439L14.6604 18.9966L14.6729 19.8619L14.6937 19.9826L14.7477 20.0907L14.8268 20.174L14.935 20.2364L15.0639 20.2696H15.2012L15.3343 20.2488L15.4508 20.1948L15.534 20.124L15.5798 20.0325L15.5881 19.9701V19.9202V19.8869V19.2462V18.6263L15.5715 18.5223L15.534 18.4516L15.455 18.4017L15.3219 18.3684L15.2387 18.3517L15.1887 18.3226L15.1679 18.2685L15.1804 18.1853L15.2262 18.1354L15.2719 18.1229L15.5798 18.1021L15.8752 18.0688L16.1581 18.0231L16.4327 17.9648L16.4743 17.9731L16.4951 18.0106V18.0189L16.4784 18.9799V19.9826L16.4909 20.0866L16.5159 20.2156L16.545 20.2904L16.5866 20.3362L16.6282 20.357L16.6781 20.3653L16.8237 20.3445L16.9194 20.3279L16.961 20.3404L16.9818 20.3778L16.9943 20.5151L17.0151 20.5567L17.0609 20.5692L17.1274 20.5484L17.1815 20.5151L17.2356 20.4527L17.2772 20.3653L17.298 20.2572L17.3063 20.1157V19.1796L17.3105 18.7137L17.2939 18.6346L17.2439 18.5681L17.0817 18.4308L17.0609 18.41L17.0442 18.3642V18.3185L17.0775 18.281L17.1191 18.256L17.6017 18.0896L18.0968 17.8775L18.1259 17.8691L18.155 17.8775L18.18 17.8983L18.1925 17.9274V17.944L18.1883 18.2352V18.256L18.2299 18.2893L18.2798 18.2769L18.5295 18.1021L18.7541 17.9981L18.8498 17.9731L18.9455 17.9648L19.0245 17.9731L19.0994 18.0023L19.1785 18.0647L19.245 18.1604L19.2825 18.2644L19.295 18.3684L19.2866 18.4474L19.2617 18.5223L19.2201 18.5972L19.166 18.6596L19.1036 18.7137L19.0329 18.7511L18.9621 18.7719L18.8873 18.7802L18.7541 18.7553L18.6335 18.6846L18.5711 18.6388L18.4005 18.5348H18.3922L18.3464 18.5223L18.3006 18.5348L18.2632 18.5639L18.2424 18.6055L18.2174 18.7178V18.7886L18.205 20.0949V20.2405L18.2258 20.3487L18.2549 20.4319L18.3048 20.4985L18.3589 20.5359L18.4296 20.565L18.5087 20.5775H18.6044L18.6418 20.5858L18.6751 20.6025L18.7 20.6316L18.7125 20.669V20.6857L18.7208 20.7273L18.7084 20.7564L18.6834 20.773L18.646 20.7814L17.8638 20.7897L17.0609 20.7814L16.9902 20.773L16.9028 20.7481L16.8113 20.7231H16.7364L16.2163 20.7564L15.6547 20.8271L15.6048 20.8146L15.5798 20.7689L15.5881 20.5068L15.584 20.4943Z" fill="#004AA2"/>
<path d="M23.4885 18.2311V18.2394L23.5093 18.2644H23.5426L23.9212 18.0855L24.1958 17.9939L24.3247 17.969L24.4412 17.9607H24.5577L24.6742 17.9856L24.8323 18.0397L24.9779 18.1229L25.0777 18.2061L25.1568 18.3018L25.215 18.4017L25.2566 18.514L25.2816 18.6346L25.2899 18.7678V20.1823L25.3024 20.278L25.3232 20.3612L25.3565 20.4319L25.4023 20.486L25.4938 20.5442L25.6144 20.5733L25.6893 20.6025L25.7143 20.6316L25.7309 20.6732V20.694V20.7106L25.706 20.7606L25.6519 20.7772H24.1417L24.0959 20.7689L24.0668 20.7481L24.0543 20.7148V20.669L24.0626 20.6357L24.0876 20.5858L24.1375 20.565L24.229 20.5484L24.2998 20.5068L24.3414 20.461L24.3705 20.3986L24.3913 20.3237L24.3996 20.2364L24.4079 19.5499L24.3996 18.8385L24.3871 18.7386L24.3539 18.6513L24.279 18.5598L24.1833 18.4932L24.0585 18.4474L23.9295 18.4308L23.7964 18.4433L23.6757 18.4849L23.5842 18.5473L23.5218 18.6346L23.4968 18.747L23.4843 19.5208L23.4968 20.2572V20.2904L23.5218 20.3944L23.5717 20.4943L23.6216 20.5317L23.7839 20.5817L23.813 20.5983L23.8338 20.6233L23.8463 20.6815L23.8172 20.7439L23.7964 20.7606H23.7714L22.2612 20.7689L22.2238 20.7606L22.1947 20.7398L22.1738 20.7106L22.1655 20.6774L22.1738 20.6274L22.2071 20.5775L22.2654 20.5567L22.3777 20.5401L22.4734 20.4943L22.5358 20.4236L22.5774 20.3196L22.5982 20.1864V20.0117L22.5899 18.7054L22.5691 18.618L22.515 18.5431L22.3611 18.41L22.3403 18.3892L22.3236 18.3476V18.3018L22.3569 18.2644L22.3985 18.2394L22.9061 18.0688L23.3762 17.8775L23.4178 17.8691L23.4594 17.8775L23.4968 17.9066L23.5093 17.9607L23.501 18.1354V18.2269L23.4885 18.2311Z" fill="#004AA2"/>
<path d="M21.5329 20.5976L21.3332 20.6724L21.1127 20.7265L20.8756 20.7557H20.6343L20.3972 20.7307L20.1683 20.6808L19.9645 20.6059L19.7773 20.5102L19.6608 20.427L19.5568 20.3355L19.4652 20.2356L19.3862 20.1274L19.2905 19.9444L19.2281 19.7364L19.1948 19.5117V19.2663L19.2156 19.1082L19.2489 18.9626L19.2988 18.8211L19.3654 18.688L19.4486 18.5632L19.5443 18.4508L19.6566 18.3468L19.7814 18.2553L19.9187 18.1763L20.0643 18.1097L20.2224 18.0556L20.3847 18.014L20.5552 17.989L20.73 17.9766H20.9047L21.0794 17.9974L21.25 18.0306L21.4123 18.0806L21.562 18.143L21.7077 18.2179L21.8283 18.3011L21.9365 18.3968L22.0571 18.534L22.1528 18.6838L22.2277 18.8544L22.2818 19.0333L22.3109 19.2247V19.4202L22.2984 19.6157L22.2568 19.8071L22.1861 19.9943L22.0904 20.1607L21.9822 20.2939L21.8574 20.4103L21.7077 20.5144L21.5412 20.6059L21.5329 20.5976ZM20.8132 20.4811L20.9255 20.4519L21.0295 20.3812L21.1252 20.2731L21.2043 20.1274L21.2667 19.9527L21.3083 19.7572L21.3291 19.545V19.3245L21.3041 19.1082L21.2583 18.9002L21.1959 18.7088L21.1169 18.5424L21.0212 18.4092L20.9172 18.3094L20.8049 18.2511L20.6925 18.2345L20.5802 18.2636L20.4762 18.3343L20.3805 18.4425L20.3015 18.5881L20.2391 18.7629L20.1975 18.9584L20.1767 19.1706V19.3911L20.2016 19.6074L20.2474 19.8154L20.3098 20.0068L20.3888 20.1732L20.4845 20.3063L20.5885 20.4062L20.7009 20.4644L20.8132 20.4811Z" fill="#004AA2"/>
<path d="M26.4214 19.1919L26.4422 19.4249L26.5046 19.6329L26.6045 19.8159L26.7418 19.9699L26.8749 20.0655L27.0288 20.1363L27.1952 20.182L27.3783 20.1987H27.4989L27.6113 20.1737L27.7153 20.1404L27.811 20.0905L27.9108 20.0115L27.9982 19.9116L28.0273 19.8825L28.0606 19.8659H28.098L28.1396 19.8825L28.1604 19.8991L28.1895 19.9491L28.1979 20.0239L28.1771 20.0822L28.0523 20.2611L27.915 20.4109L27.7652 20.5357L27.6029 20.6313L27.4116 20.7062L27.2036 20.7478L26.9789 20.7603L26.7418 20.7395L26.5088 20.6896L26.2924 20.6022L26.1011 20.4857L25.9388 20.3443L25.8556 20.2444L25.7807 20.1404L25.7183 20.0239L25.6684 19.8991L25.6268 19.7702L25.6018 19.637L25.5894 19.3666L25.6268 19.092L25.6642 18.9589L25.7142 18.8299L25.7766 18.7051L25.8515 18.5886L25.9347 18.4805L26.0262 18.3806L26.151 18.2725L26.2924 18.1768L26.4422 18.1019L26.6045 18.0395L26.8125 17.9896L27.0247 17.9688L27.2368 17.9771L27.4449 18.0145L27.6279 18.0811L27.7902 18.1726L27.9233 18.2849L28.0315 18.4222L28.0939 18.5429L28.1355 18.6802L28.1563 18.8216V18.9797L28.1438 19.0296L28.1147 19.0712L28.0689 19.1004L28.019 19.1087H26.5088L26.4505 19.1378L26.4256 19.196L26.4214 19.1919ZM26.5753 18.651L26.5587 18.7218L26.5712 18.7717L26.6128 18.805L26.6835 18.8216L26.9623 18.8341L27.2576 18.8216L27.37 18.7967L27.4407 18.7426L27.474 18.6594L27.4657 18.547L27.4324 18.4513L27.3741 18.3723L27.3034 18.3141L27.2202 18.2808L27.1245 18.2683L26.9831 18.2808L26.8582 18.3224L26.7709 18.3765L26.696 18.4513L26.6294 18.547L26.5753 18.6594V18.651Z" fill="#004AA2"/>
<path d="M20.8162 20.4762C21.1351 20.4589 21.3665 19.9446 21.3331 19.3274C21.2996 18.7102 21.014 18.2239 20.6951 18.2412C20.3762 18.2585 20.1448 18.7728 20.1782 19.3899C20.2116 20.0071 20.4972 20.4934 20.8162 20.4762Z" fill="white"/>
<path d="M26.5752 18.6508L26.6293 18.5385L26.6959 18.4428L26.7708 18.3679L26.8581 18.3138L26.9829 18.2722L27.1244 18.2598L27.2201 18.2722L27.3033 18.3055L27.374 18.3638L27.4323 18.4428L27.4655 18.5385L27.4739 18.6508L27.4406 18.734L27.3699 18.7881L27.2575 18.8131L26.9621 18.8256L26.6834 18.8131L26.6127 18.7964L26.5711 18.7632L26.5586 18.7132L26.5752 18.6425V18.6508Z" fill="white"/>
<path d="M14.369 24.7375L5.0208 24.7542L5 24.7334V22.3911L5.0208 22.3828H9.75107H9.7594L14.3773 24.6959L14.3898 24.7167L14.369 24.7375Z" fill="white"/>
<path d="M30.2574 22.3828H34.9794L35.0002 22.4078V24.7334L34.9835 24.7542L25.6395 24.7375L25.6187 24.7251L25.627 24.7001L30.2491 22.387H30.2574V22.3828Z" fill="white"/>
</g>
<circle cx="20" cy="20" r="19.5" stroke="black" stroke-opacity="0.05"/>
<defs>
<clipPath id="clip0_9_391889">
<rect width="30" height="15.1935" fill="white" transform="translate(5 11)"/>
</clipPath>
</defs>
</svg>
