<svg width="40" height="40" viewBox="0 0 40 40" fill="none" xmlns="http://www.w3.org/2000/svg">
<circle cx="20" cy="20" r="20" fill="#F6F8FA"/>
<path d="M10.6172 22.8304V19.1533H12.1156V19.5006H11.0073V20.8087H12.0347V21.156H11.0073V22.4879H12.1822V22.8351H10.6172V22.8304Z" fill="#015B8D"/>
<path d="M13.633 22.8309H13.2049L12.4771 20.2051H12.8719L13.3666 22.1744C13.3951 22.2886 13.4142 22.4028 13.4237 22.5122H13.4284C13.4522 22.3552 13.476 22.241 13.4998 22.1744L14.0706 20.2051H14.4512L13.633 22.8309Z" fill="#015B8D"/>
<path d="M15.0505 21.6081C15.0505 22.2407 15.2788 22.5594 15.7402 22.5594C15.94 22.5594 16.1398 22.4881 16.3491 22.3501V22.7022C16.1446 22.8211 15.9257 22.8782 15.6926 22.8782C15.3597 22.8782 15.1028 22.764 14.9315 22.5309C14.7555 22.2978 14.6699 21.9553 14.6699 21.5034C14.6699 21.1086 14.7603 20.7851 14.9363 20.533C15.1123 20.2809 15.3502 20.1572 15.6546 20.1572C16.2207 20.1572 16.5061 20.5568 16.5061 21.356V21.6081H15.0505ZM16.1303 21.3084C16.1303 20.7471 15.9638 20.4664 15.6308 20.4664C15.4643 20.4664 15.3311 20.5378 15.2265 20.6805C15.1218 20.8232 15.0647 21.0325 15.0505 21.3084H16.1303Z" fill="#015B8D"/>
<path d="M18.1713 20.5712C18.0857 20.5379 18.0048 20.5189 17.9287 20.5189C17.5481 20.5189 17.3579 20.8423 17.3579 21.494V22.8355H16.9868V20.2049H17.3579V20.6663H17.3721C17.4625 20.3286 17.6575 20.1621 17.962 20.1621C18.0476 20.1621 18.119 20.1716 18.1713 20.1907V20.5712Z" fill="#015B8D"/>
<path d="M18.6467 21.6081C18.6467 22.2407 18.875 22.5594 19.3364 22.5594C19.5362 22.5594 19.736 22.4881 19.9453 22.3501V22.7022C19.7407 22.8211 19.5219 22.8782 19.2888 22.8782C18.9559 22.8782 18.699 22.764 18.5277 22.5309C18.3517 22.2978 18.2661 21.9553 18.2661 21.5034C18.2661 21.1086 18.3565 20.7851 18.5325 20.533C18.7085 20.2809 18.9463 20.1572 19.2508 20.1572C19.8169 20.1572 20.1023 20.5568 20.1023 21.356V21.6081H18.6467ZM19.7265 21.3084C19.7265 20.7471 19.56 20.4664 19.227 20.4664C19.0605 20.4664 18.9273 20.5378 18.8227 20.6805C18.718 20.8232 18.6609 21.0325 18.6467 21.3084H19.7265Z" fill="#015B8D"/>
<path d="M20.4736 22.7451V22.3693C20.6687 22.4977 20.8589 22.5643 21.0445 22.5643C21.3537 22.5643 21.5106 22.4264 21.5106 22.1552C21.5106 22.0696 21.4821 21.9887 21.4203 21.9174C21.3584 21.846 21.2442 21.7604 21.0778 21.6653C20.8209 21.5226 20.6592 21.3941 20.5878 21.2752C20.5164 21.1563 20.4784 21.0279 20.4784 20.8899C20.4784 20.6759 20.5545 20.4998 20.7067 20.3667C20.8589 20.2287 21.054 20.1621 21.2966 20.1621C21.4868 20.1621 21.6581 20.1954 21.8056 20.2668V20.6235C21.6343 20.5236 21.4678 20.4761 21.3061 20.4761C21.1681 20.4761 21.0635 20.5141 20.9826 20.5855C20.9018 20.6568 20.8637 20.7567 20.8637 20.8756C20.8637 20.9565 20.8875 21.0374 20.9398 21.1087C20.9921 21.1801 21.1111 21.2705 21.3061 21.3799C21.5582 21.5226 21.7152 21.6463 21.7865 21.7652C21.8579 21.8793 21.8912 22.0125 21.8912 22.1552C21.8912 22.3645 21.8151 22.5405 21.6676 22.6785C21.5201 22.8164 21.3108 22.883 21.0492 22.883C20.8304 22.8783 20.6401 22.8355 20.4736 22.7451Z" fill="#015B8D"/>
<path d="M23.3896 22.8118C23.2849 22.8546 23.1708 22.8784 23.0471 22.8784C22.6665 22.8784 22.4763 22.6548 22.4763 22.2029V20.5238H22.1147V20.2098H22.4763V19.5534C22.4905 19.5486 22.5143 19.5439 22.5524 19.5296C22.6951 19.482 22.795 19.4487 22.8521 19.4297V20.2003H23.3943V20.5143H22.8473V22.1601C22.8473 22.417 22.9472 22.5454 23.147 22.5454C23.2326 22.5454 23.3135 22.5264 23.3896 22.4884V22.8118Z" fill="#015B8D"/>
<path d="M27.2376 22.5833C26.9617 22.7926 26.643 22.8973 26.291 22.8973C25.8771 22.8973 25.5394 22.7308 25.2778 22.3931C25.0161 22.0553 24.8877 21.6082 24.8877 21.0516C24.8877 20.4665 25.0256 19.9956 25.3063 19.6341C25.587 19.2726 25.9485 19.0918 26.4051 19.0918C26.6715 19.0918 26.9236 19.1489 27.1615 19.2678V19.6816C26.9094 19.5199 26.6573 19.439 26.4004 19.439C26.0769 19.439 25.8153 19.5865 25.6107 19.8814C25.4062 20.1764 25.3063 20.5569 25.3063 21.0136C25.3063 21.4797 25.4014 21.8508 25.587 22.1267C25.7772 22.4026 26.0246 22.5405 26.329 22.5405C26.5241 22.5405 26.7001 22.4882 26.857 22.3836V21.2752H26.2386V20.928H27.2471V22.5833H27.2376Z" fill="#015B8D"/>
<path d="M29.0834 20.5712C28.9978 20.5379 28.9169 20.5189 28.8408 20.5189C28.4602 20.5189 28.27 20.8423 28.27 21.494V22.8355H27.8989V20.2049H28.27V20.6663H28.2842C28.3746 20.3286 28.5696 20.1621 28.8741 20.1621C28.9597 20.1621 29.0311 20.1716 29.0834 20.1907V20.5712Z" fill="#015B8D"/>
<path d="M30.1585 22.8782C29.8445 22.8782 29.6019 22.7592 29.4307 22.5214C29.2595 22.2835 29.1738 21.9553 29.1738 21.5367C29.1738 21.0991 29.2642 20.7613 29.4402 20.5187C29.6162 20.2761 29.8636 20.1572 30.1775 20.1572C30.4867 20.1572 30.7246 20.2761 30.9006 20.514C31.0766 20.7518 31.1622 21.0753 31.1622 21.4892C31.1622 21.9268 31.0766 22.2693 30.9053 22.5119C30.7341 22.7545 30.482 22.8782 30.1585 22.8782ZM30.1728 20.4855C29.9777 20.4855 29.8303 20.5758 29.7209 20.7566C29.6162 20.9374 29.5591 21.1942 29.5591 21.5272C29.5591 22.2122 29.7637 22.5547 30.168 22.5547C30.5628 22.5547 30.7626 22.2074 30.7626 21.5082C30.7626 21.18 30.7103 20.9278 30.6104 20.7518C30.5105 20.5711 30.363 20.4855 30.1728 20.4855Z" fill="#015B8D"/>
<path d="M33.0601 22.8307V22.4359H33.0506C32.9079 22.7309 32.6844 22.8783 32.3799 22.8783C31.8995 22.8783 31.6616 22.5977 31.6616 22.0411V20.205H32.0327V21.9507C32.0327 22.3551 32.1896 22.5548 32.5083 22.5548C32.6701 22.5548 32.8033 22.4978 32.9079 22.3741C33.0126 22.2552 33.0601 22.0934 33.0601 21.8936V20.2002H33.4312V22.8307H33.0601Z" fill="#015B8D"/>
<path d="M34.4874 22.4977H34.4731V24.0437H34.1021V20.2049H34.4731V20.6378H34.4826C34.6205 20.3191 34.8536 20.1621 35.1771 20.1621C35.4435 20.1621 35.648 20.2715 35.786 20.4856C35.9287 20.7044 36 21.0041 36 21.3941C36 21.8508 35.9239 22.2171 35.767 22.4835C35.61 22.7498 35.3864 22.883 35.0962 22.883C34.8108 22.8783 34.6063 22.7498 34.4874 22.4977ZM34.4683 21.3751V21.7224C34.4683 21.9745 34.5159 22.1743 34.611 22.3265C34.7062 22.4787 34.8441 22.5548 35.0201 22.5548C35.415 22.5548 35.61 22.1743 35.61 21.4179C35.61 21.1182 35.5624 20.8852 35.4673 20.7234C35.3721 20.5617 35.2389 20.4808 35.0629 20.4808C34.8774 20.4808 34.7347 20.5617 34.6301 20.7234C34.5207 20.8852 34.4683 21.104 34.4683 21.3751Z" fill="#015B8D"/>
<path d="M15.0835 18.7627L10.8261 16.6269L4 21.8547V21.8451L10.8071 15L15.0835 18.7579V18.7627Z" fill="#595C60"/>
<circle cx="20" cy="20" r="19.5" stroke="black" stroke-opacity="0.05"/>
</svg>
