<svg width="40" height="40" viewBox="0 0 40 40" fill="none" xmlns="http://www.w3.org/2000/svg">
<circle cx="20" cy="20" r="20" fill="url(#paint0_linear_9_405395)"/>
<g clip-path="url(#clip0_9_405395)">
<path d="M21.2195 12.2324H28.2122C28.3291 12.2324 28.4446 12.2579 28.5507 12.307C28.6568 12.3561 28.751 12.4277 28.8266 12.5169C28.9023 12.606 28.9576 12.7106 28.9888 12.8232C29.02 12.9359 29.0262 13.054 29.0072 13.1694C28.8574 14.1776 28.37 15.1051 27.6245 15.8003C27.0084 16.3772 26.2193 16.786 25.5363 16.786H19.6413V18.3931H23.9265V20.0003H19.6408V21.3396H23.9265C24.5163 21.3396 24.8211 21.1885 24.9572 21.0717C25.082 20.9651 25.1179 20.8489 25.1083 20.7337C25.0901 20.4996 24.8034 20.0003 23.9265 20.0003V18.3931C25.4597 18.3931 26.6126 19.3671 26.7106 20.6062C26.7599 21.2276 26.5231 21.848 26.0013 22.2937C25.4918 22.7292 24.7751 22.9467 23.9265 22.9467H19.6408V24.286H22.3188V25.8931H19.6402V26.161C19.6402 26.6731 19.7238 26.9163 19.7886 27.0251C19.8331 27.1001 19.8904 27.1537 20.0431 27.1976C20.2295 27.2512 20.499 27.2721 20.9115 27.2662C21.0454 27.2646 21.2163 27.2587 21.4033 27.2528C21.7085 27.2412 22.0139 27.2344 22.3193 27.2324C22.7549 27.2324 23.0024 27.1022 23.132 26.9833C23.2649 26.8617 23.3238 26.7096 23.3238 26.5628C23.3238 26.4165 23.2649 26.2639 23.132 26.1422C23.0024 26.0233 22.7549 25.8931 22.3193 25.8931V25.0896V24.286C23.0892 24.286 23.7459 24.5244 24.219 24.9578C24.4429 25.161 24.622 25.4087 24.7446 25.6851C24.8673 25.9614 24.931 26.2604 24.9315 26.5628C24.931 26.8652 24.8673 27.1641 24.7446 27.4405C24.622 27.7169 24.4429 27.9646 24.219 28.1678C23.7459 28.6017 23.0897 28.8396 22.3199 28.8396C22.0204 28.8396 21.7756 28.8481 21.5281 28.8567C21.3301 28.8645 21.1321 28.87 20.934 28.8733C20.5043 28.8792 20.0292 28.8664 19.5979 28.7421C19.1324 28.6081 18.6984 28.3376 18.4059 27.8437C18.1333 27.383 18.0342 26.8103 18.0342 26.161V25.8931H14.2842C13.584 25.8931 13.0065 25.6087 12.6165 25.149C12.2415 24.7071 12.0743 24.1462 12.0743 23.6164C12.0743 23.0865 12.2415 22.5256 12.6165 22.0837C13.0065 21.624 13.584 21.3396 14.2842 21.3396H18.0342V20.0003H12.6781C11.8906 20.0003 11.2279 19.7308 10.7618 19.2588C10.3248 18.8121 10.0828 18.2102 10.089 17.5853C10.0902 16.9619 10.3356 16.3638 10.7726 15.9192C11.237 15.4499 11.8954 15.1789 12.6781 15.1789H18.0347V14.3753C18.0347 13.898 18.1622 13.4672 18.4343 13.1158C18.7001 12.7724 19.052 12.5721 19.3852 12.4526C20.0018 12.2324 20.7352 12.2324 21.2195 12.2324ZM19.6418 15.1789H25.5358C25.6563 15.1789 26.0704 15.053 26.5252 14.6271C26.7518 14.4155 26.9618 14.1514 27.1242 13.8396H21.249C20.6993 13.8396 20.2445 13.8524 19.9268 13.966C19.7865 14.0164 19.7292 14.0678 19.7045 14.0999C19.6863 14.1235 19.6418 14.191 19.6418 14.3753V15.1789ZM18.0347 16.786H12.6786C12.2795 16.786 12.047 16.9167 11.9152 17.0496C11.7739 17.1954 11.6952 17.3908 11.6961 17.5939C11.6951 17.7996 11.7701 17.9919 11.9067 18.1301C12.0352 18.2608 12.2672 18.3931 12.6781 18.3931H18.0342V16.786H18.0347ZM18.0347 22.9467H14.2836C14.0463 22.9467 13.9204 23.0308 13.8417 23.1235C13.7479 23.2339 13.6809 23.4096 13.6809 23.6164C13.6809 23.8231 13.7479 23.9988 13.8417 24.1092C13.9204 24.2019 14.0463 24.286 14.2836 24.286H18.0336V22.9467H18.0347ZM29.0018 13.1972C28.9992 13.208 29.0002 13.2058 29.0018 13.1972V13.1972Z" fill="white"/>
</g>
<circle cx="20" cy="20" r="19.5" stroke="black" stroke-opacity="0.05"/>
<defs>
<linearGradient id="paint0_linear_9_405395" x1="5.5" y1="20" x2="34" y2="20" gradientUnits="userSpaceOnUse">
<stop stop-color="#602FB8"/>
<stop offset="1" stop-color="#0BA6EC"/>
</linearGradient>
<clipPath id="clip0_9_405395">
<rect width="20" height="17" fill="white" transform="translate(10 12)"/>
</clipPath>
</defs>
</svg>
