<svg width="40" height="40" viewBox="0 0 40 40" fill="none" xmlns="http://www.w3.org/2000/svg">
<circle cx="20" cy="20" r="20" fill="#F6F8FA"/>
<g clip-path="url(#clip0_9_402455)">
<path d="M10.6812 18.3198L12.5917 16.4082H23.5718C23.5908 16.4082 23.6088 16.4106 23.6259 16.4153C23.644 16.4211 23.6606 16.4287 23.6758 16.4382C23.692 16.4477 23.7063 16.4591 23.7186 16.4724C23.731 16.4858 23.7414 16.501 23.75 16.5181L24.0522 17.1292C24.0618 17.1472 24.0736 17.1644 24.0879 17.1806C24.1021 17.1958 24.1183 17.2091 24.1364 17.2205C24.1535 17.231 24.1725 17.2391 24.1934 17.2448C24.2134 17.2505 24.2338 17.2534 24.2547 17.2534H28.2498L28.8443 17.8501H15.6843C15.6691 17.8501 15.6538 17.8525 15.6386 17.8573C15.6225 17.8611 15.6077 17.8673 15.5944 17.8758C15.5811 17.8844 15.5692 17.8944 15.5588 17.9058C15.5483 17.9172 15.5393 17.9301 15.5317 17.9443L15.4062 18.1956C15.3967 18.2137 15.3848 18.2308 15.3706 18.247C15.3573 18.2622 15.3416 18.2751 15.3235 18.2856C15.3055 18.297 15.2865 18.3055 15.2665 18.3113C15.2465 18.317 15.2256 18.3198 15.2038 18.3198H10.6812Z" fill="#177377"/>
<path d="M16.4129 15.9302C16.4328 15.9283 16.4518 15.9245 16.4699 15.9187C16.4889 15.9121 16.5065 15.9035 16.5226 15.8931C16.5388 15.8826 16.5535 15.8702 16.5668 15.8559C16.5802 15.8407 16.5911 15.8245 16.5996 15.8074L16.8477 15.3091C16.8553 15.2949 16.8644 15.282 16.8748 15.2706C16.8853 15.2592 16.8976 15.2492 16.9119 15.2406C16.9252 15.2321 16.9395 15.2259 16.9547 15.2221C16.9699 15.2173 16.9856 15.2149 17.0017 15.2149H26.2095L25.6135 14.6167L22.9359 14.6153C22.915 14.6153 22.8945 14.6125 22.8746 14.6067C22.8546 14.601 22.8356 14.5925 22.8175 14.581C22.7995 14.5706 22.7833 14.5577 22.7691 14.5425C22.7548 14.5263 22.7429 14.5092 22.7334 14.4911L22.5566 14.1285C22.5481 14.1114 22.5376 14.0961 22.5252 14.0828C22.5129 14.0695 22.4991 14.0581 22.4839 14.0485C22.4677 14.039 22.4511 14.0314 22.434 14.0257C22.4159 14.0209 22.3979 14.0186 22.3798 14.0186H14.9814L13.0708 15.9302H16.4129Z" fill="#177377"/>
<path d="M17.6034 13.5386C17.6233 13.5377 17.6424 13.5344 17.6604 13.5287C17.6794 13.5229 17.6975 13.5148 17.7146 13.5044C17.7307 13.493 17.7455 13.4801 17.7588 13.4658C17.7721 13.4506 17.7835 13.4344 17.793 13.4173L18.0411 12.919C18.0478 12.9048 18.0568 12.8919 18.0682 12.8805C18.0786 12.8691 18.0905 12.8591 18.1038 12.8505C18.1171 12.842 18.1314 12.8358 18.1466 12.832C18.1618 12.8272 18.1775 12.8248 18.1937 12.8248H23.8213L23.2253 12.2281L21.751 12.2252C21.7301 12.2252 21.7097 12.2224 21.6897 12.2166C21.6697 12.2109 21.6507 12.2028 21.6327 12.1924C21.6146 12.181 21.5985 12.1676 21.5842 12.1524C21.5699 12.1362 21.5581 12.1191 21.5485 12.101L21.3646 11.7398C21.3561 11.7227 21.3456 11.7075 21.3333 11.6941C21.3209 11.6808 21.3071 11.6694 21.2919 11.6599C21.2757 11.6503 21.2591 11.6427 21.242 11.637C21.2239 11.6323 21.2059 11.6299 21.1878 11.6299H17.3681L15.459 13.5386H17.6034Z" fill="#177377"/>
<path d="M19.9973 9L17.8472 11.15H18.7839C18.8048 11.15 18.8257 11.1472 18.8466 11.1415C18.8666 11.1358 18.8851 11.1277 18.9023 11.1172C18.9203 11.1058 18.9365 11.0925 18.9507 11.0772C18.965 11.062 18.9769 11.0449 18.9864 11.0258L19.2345 10.5276C19.2411 10.5133 19.2501 10.5005 19.2616 10.489C19.272 10.4776 19.2839 10.4676 19.2972 10.4591C19.3105 10.4505 19.3248 10.4443 19.34 10.4405C19.3552 10.4357 19.3709 10.4334 19.387 10.4334H21.433L19.9973 9Z" fill="#177377"/>
<path d="M30.692 19.6958L25.4865 19.6944C25.4655 19.6944 25.4446 19.6916 25.4237 19.6858C25.4038 19.6801 25.3847 19.6716 25.3667 19.6601C25.3496 19.6497 25.3339 19.6364 25.3196 19.6202C25.3054 19.6049 25.2935 19.5878 25.284 19.5688L25.1885 19.386C25.1799 19.3689 25.1695 19.3537 25.1571 19.3404C25.1447 19.327 25.131 19.3156 25.1157 19.3061C25.0996 19.2966 25.083 19.289 25.0658 19.2833C25.0478 19.2785 25.0297 19.2761 25.0117 19.2761H14.9584C14.9498 19.2761 14.9399 19.2733 14.9313 19.269C14.9227 19.2647 14.9156 19.2576 14.9113 19.249C14.9056 19.2418 14.9028 19.2319 14.9028 19.2219C14.9028 19.2133 14.9042 19.2033 14.9085 19.1947L15.0454 18.9192C15.0511 18.9064 15.0539 18.8921 15.0539 18.8778C15.0525 18.8635 15.0482 18.8492 15.0411 18.8378C15.034 18.825 15.0226 18.815 15.0097 18.8078C14.9983 18.8007 14.9841 18.7979 14.9698 18.7979H10.2019L9 20.0014L10.2019 21.2034H14.9698C14.9841 21.2034 14.9983 21.1991 15.0097 21.192C15.0226 21.1849 15.034 21.1749 15.0411 21.1635C15.0482 21.1506 15.0525 21.1363 15.0539 21.1221C15.0539 21.1078 15.0511 21.0935 15.0454 21.0807L14.9085 20.808C14.9042 20.7994 14.9028 20.7894 14.9028 20.7794C14.9028 20.7694 14.9056 20.7609 14.9113 20.7523C14.9156 20.7437 14.9227 20.738 14.9313 20.7323C14.9399 20.728 14.9498 20.7252 14.9584 20.7252H25.0102C25.0293 20.7252 25.0473 20.7228 25.0644 20.718C25.0825 20.7133 25.0996 20.7061 25.1157 20.6966C25.131 20.6871 25.1447 20.6752 25.1571 20.6609C25.1695 20.6476 25.1799 20.6329 25.1885 20.6167L25.2883 20.4296C25.2968 20.4116 25.3082 20.3944 25.3225 20.3783C25.3367 20.363 25.3529 20.3502 25.371 20.3397C25.389 20.3283 25.408 20.3197 25.428 20.314C25.448 20.3083 25.4684 20.3054 25.4893 20.3054H30.702L30.9943 19.9999C30.9943 19.9999 30.692 19.6944 30.692 19.6958Z" fill="#177377"/>
<path d="M10.6812 21.6807L12.5917 23.5923H23.5718C23.5908 23.5923 23.6088 23.5894 23.6259 23.5837C23.644 23.579 23.6606 23.5718 23.6758 23.5623C23.692 23.5528 23.7063 23.5414 23.7186 23.528C23.731 23.5147 23.7414 23.4995 23.75 23.4824L24.0522 22.8713C24.0618 22.8532 24.0736 22.8361 24.0879 22.8199C24.1021 22.8047 24.1183 22.7914 24.1364 22.78C24.1535 22.7695 24.1725 22.7614 24.1934 22.7557C24.2134 22.75 24.2338 22.7471 24.2547 22.7471H28.2498L28.8443 22.1504H15.6843C15.6691 22.1504 15.6538 22.148 15.6386 22.1432C15.6234 22.1394 15.6087 22.1332 15.5944 22.1247C15.5811 22.117 15.5692 22.1071 15.5588 22.0947C15.5483 22.0833 15.5393 22.0704 15.5317 22.0561L15.4062 21.8049C15.3967 21.7868 15.3853 21.7701 15.372 21.7549C15.3578 21.7387 15.3416 21.7254 15.3235 21.7149C15.3064 21.7035 15.2874 21.6949 15.2665 21.6892C15.2465 21.6835 15.2261 21.6807 15.2052 21.6807H10.6812Z" fill="#177377"/>
<path d="M16.4129 24.0703C16.4328 24.0713 16.4518 24.0751 16.4699 24.0817C16.4889 24.0874 16.5065 24.096 16.5226 24.1074C16.5388 24.1179 16.5535 24.1303 16.5668 24.1446C16.5802 24.1598 16.5911 24.176 16.5996 24.1931L16.8477 24.6913C16.8553 24.7047 16.8644 24.7175 16.8748 24.7299C16.8853 24.7413 16.8976 24.7513 16.9119 24.7599C16.9252 24.7675 16.9395 24.7737 16.9547 24.7784C16.9699 24.7822 16.9856 24.7841 17.0017 24.7841H26.2095L25.6135 25.3823L22.9359 25.3852C22.915 25.3852 22.8945 25.388 22.8746 25.3937C22.8546 25.3995 22.8356 25.4075 22.8175 25.418C22.7995 25.4294 22.7833 25.4428 22.7691 25.458C22.7548 25.4732 22.7429 25.4903 22.7334 25.5094L22.5566 25.8734C22.5481 25.8896 22.5376 25.9048 22.5252 25.9191C22.5129 25.9324 22.4991 25.9439 22.4839 25.9534C22.4677 25.9629 22.4511 25.97 22.434 25.9748C22.4159 25.9805 22.3979 25.9834 22.3798 25.9834H14.9814L13.0708 24.0703H16.4129Z" fill="#177377"/>
<path d="M17.6034 26.46C17.6233 26.4609 17.6424 26.4647 17.6604 26.4714C17.6794 26.4771 17.6975 26.4852 17.7146 26.4957C17.7307 26.5071 17.7455 26.5199 17.7588 26.5342C17.7721 26.5485 17.7835 26.5647 17.793 26.5827L18.0411 27.0796C18.0478 27.0938 18.0568 27.1067 18.0682 27.1181C18.0786 27.1295 18.0905 27.1395 18.1038 27.1481C18.1171 27.1567 18.1314 27.1628 18.1466 27.1666C18.1618 27.1714 18.1775 27.1738 18.1937 27.1738H23.8213L23.2253 27.772L21.751 27.7748C21.7301 27.7748 21.7097 27.7777 21.6897 27.7834C21.6697 27.7891 21.6507 27.7972 21.6327 27.8077C21.6146 27.8191 21.5985 27.8324 21.5842 27.8476C21.5699 27.8638 21.5581 27.8809 21.5485 27.899L21.3632 28.2616C21.3546 28.2778 21.3442 28.2926 21.3318 28.3059C21.3195 28.3192 21.3057 28.3307 21.2905 28.3402C21.2743 28.3506 21.2577 28.3583 21.2406 28.363C21.2225 28.3678 21.2045 28.3701 21.1864 28.3701H17.3681L15.459 26.46H17.6034Z" fill="#177377"/>
<path d="M19.9973 31.0001L17.8472 28.8486H18.7839C18.8048 28.8496 18.8257 28.8529 18.8466 28.8586C18.8666 28.8643 18.8851 28.8724 18.9023 28.8829C18.9203 28.8943 18.9365 28.9076 18.9507 28.9229C18.965 28.9381 18.9769 28.9552 18.9864 28.9743L19.2345 29.4725C19.2411 29.4868 19.2501 29.4996 19.2616 29.5111C19.272 29.5225 19.2839 29.5325 19.2972 29.541C19.3105 29.5487 19.3248 29.5548 19.34 29.5596C19.3552 29.5634 19.3709 29.5653 19.387 29.5653H21.433L19.9973 31.0001Z" fill="#177377"/>
</g>
<circle cx="20" cy="20" r="19.5" stroke="black" stroke-opacity="0.05"/>
<defs>
<clipPath id="clip0_9_402455">
<rect width="22" height="22" fill="white" transform="translate(9 9)"/>
</clipPath>
</defs>
</svg>
