<svg width="40" height="40" viewBox="0 0 40 40" fill="none" xmlns="http://www.w3.org/2000/svg">
<circle cx="20" cy="20" r="20" fill="#231F20"/>
<g clip-path="url(#clip0_9_410350)">
<path d="M31.6952 18.0596H33.9524L34.6774 20.4668H34.6898V18.0596H35.9858V21.4752H33.7676L33.0015 18.9982H32.9891V21.4752H31.6952V18.0596ZM28.0946 21.4711L28.643 20.1772V18.8729H29.3024V20.1772L29.8959 21.4711H31.4569L30.0541 18.0596H27.9776L26.5973 21.4711H28.0946ZM20.7211 18.0596H22.9496L23.4631 19.9286H23.4733L23.9807 18.0596H26.203V21.4752H24.8412V18.7928H24.8187L24.0484 21.4752H22.7914L22.0233 18.7928H22.0212L22.0233 21.4752H20.7211V18.0596ZM20.4438 19.066H19.1478V21.4732H17.6382V19.066H16.3401V18.0596H20.4438V19.066ZM16.0546 18.9941C15.7157 18.8914 15.3152 18.8236 14.888 18.8236C14.6518 18.8236 14.241 18.8277 14.241 19.0475C14.241 19.4932 16.3072 19.0721 16.3072 20.3887C16.3072 21.3027 15.2659 21.5327 14.393 21.5327C13.8138 21.5327 13.3352 21.4834 12.7724 21.3725V20.4852C13.1771 20.6331 13.6721 20.7112 14.1219 20.7112C14.4772 20.7112 14.7976 20.6475 14.7976 20.477C14.7976 20.0169 12.7314 20.4318 12.7314 19.1071C12.7314 18.1664 13.859 18 14.7524 18C15.1755 18 15.6418 18.0452 16.0546 18.1191V18.9941ZM4.0166 18.0596H7.42199V18.8811H5.49131V19.3659H7.33778V20.1874H5.49131V20.6516H7.46102V21.4752H4.0166V18.0596Z" fill="white"/>
<path d="M9.21703 21.479L9.76543 20.1851V18.8808H10.4247V20.1851L11.0183 21.479H12.5793L11.1765 18.0654H9.09996L7.71973 21.479H9.21703Z" fill="white"/>
</g>
<circle cx="20" cy="20" r="19.5" stroke="black" stroke-opacity="0.05"/>
<defs>
<clipPath id="clip0_9_410350">
<rect width="32" height="3.55327" fill="white" transform="translate(4 18)"/>
</clipPath>
</defs>
</svg>
