<svg width="40" height="40" viewBox="0 0 40 40" fill="none" xmlns="http://www.w3.org/2000/svg">
<circle cx="20" cy="20" r="20" fill="#A0ACBC"/>
<g clip-path="url(#clip0_9_410652)">
<path d="M19.6451 8.42871C19.6001 8.61707 20.0283 9.09214 20.0283 9.09214L27.4597 17.8305C27.4597 17.8305 27.7451 18.1629 27.6988 18.2574L26.7365 19.977L26.3868 20.1454L18.6211 10.9204C18.6211 10.9204 18.3896 10.6826 18.4828 10.5411C18.4957 10.5225 19.6451 8.42871 19.6451 8.42871ZM18.1357 11.3569C18.0907 11.5453 18.5188 12.0204 18.5188 12.0204L25.9503 20.7587C25.9503 20.7587 26.2363 21.0917 26.1901 21.1856L25.2541 22.8666L24.8908 23.0891L17.1123 13.848C17.1123 13.848 16.8808 13.6101 16.9741 13.47C16.9869 13.4507 18.1357 11.3569 18.1357 11.3569ZM16.7285 14.3379L24.4743 23.4381C24.4743 23.4381 24.7597 23.7705 24.7134 23.8644L23.7292 25.6329L23.4296 25.7865L15.6356 16.5274C15.6356 16.5274 15.3875 16.2658 15.4807 16.125C15.4897 16.1115 16.0689 15.0681 16.3807 14.5063C16.4964 14.298 16.7285 14.3379 16.7285 14.3379ZM14.9896 17.0681C14.9446 17.2564 15.5167 17.4506 15.5167 17.4506L22.9481 26.1889C22.9481 26.1889 23.2342 26.5213 23.1879 26.6151L21.9768 28.8561C21.962 28.6202 21.5094 28.0686 21.5094 28.0686L14.1101 19.2782C14.1101 19.2782 13.8787 19.0404 13.9719 18.9002C13.9848 18.8809 14.9896 17.0681 14.9896 17.0681ZM13.3483 19.7687C13.3027 19.9571 13.853 20.139 13.853 20.139L21.2844 28.8774C21.2844 28.8774 21.5698 29.2097 21.5236 29.3036C21.5236 29.3036 20.2841 31.5941 20.2861 31.5716C20.3105 31.2694 19.9402 30.8689 19.9402 30.8689L12.4451 21.9673C12.4451 21.9673 12.2137 21.7294 12.3076 21.5886C12.3204 21.5694 13.3477 19.7694 13.3477 19.7694L13.3483 19.7687Z" fill="white"/>
<path d="M17.1116 14.1398L26.7519 18.0136C26.7519 18.0136 27.6519 18.3981 27.7143 18.2348L26.7358 19.9769C26.5404 20.326 26.1155 20.1852 26.1155 20.1852L16.0785 16.1821C16.0785 16.1821 15.5514 15.952 15.4434 16.1551C15.4434 16.1551 16.0496 14.9999 16.4617 14.3121C16.6648 13.9726 17.1116 14.1398 17.1116 14.1398ZM15.6157 16.9407L25.2457 20.9476C25.2457 20.9476 26.1457 21.3321 26.208 21.1681L25.229 22.9103C25.0335 23.26 24.6093 23.1192 24.6093 23.1192L14.582 18.9831C14.582 18.9831 14.0548 18.7529 13.9475 18.9561C13.9475 18.9561 14.5537 17.8009 14.9658 17.113C15.1689 16.7736 15.6157 16.9407 15.6157 16.9407ZM13.97 19.5854L23.7639 23.6406C23.7639 23.6406 24.6633 24.025 24.7256 23.8617L23.7472 25.6039C23.5518 25.9536 23.1275 25.8128 23.1275 25.8128L12.9363 21.6278C12.9363 21.6278 12.4091 21.397 12.3018 21.6001C12.3018 21.6001 12.908 20.4449 13.32 19.7571C13.5232 19.4176 13.97 19.5854 13.97 19.5854Z" fill="#184680"/>
</g>
<circle cx="20" cy="20" r="19.5" stroke="black" stroke-opacity="0.05"/>
<defs>
<clipPath id="clip0_9_410652">
<rect width="16" height="24" fill="white" transform="translate(12 8)"/>
</clipPath>
</defs>
</svg>
