<svg width="40" height="40" viewBox="0 0 40 40" fill="none" xmlns="http://www.w3.org/2000/svg">
<circle cx="20" cy="20" r="20" fill="#353535"/>
<g clip-path="url(#clip0_9_410410)">
<path d="M24.4104 11.4287C18.2369 11.4287 12.2283 16.9198 12.2283 17.8482C12.2283 17.9859 12.3103 18.0416 12.4051 18.0416C12.5663 18.0416 12.7597 17.7389 13.2028 17.2803C16.3319 14.0344 20.939 12.1246 24.1378 12.1246C26.4494 12.1246 27.4394 13.4446 27.4394 15.0555C27.4394 19.6857 18.9751 26.5562 14.6036 26.5562C13.4658 26.5562 12.7099 25.968 12.7099 24.9609C12.7099 24.3973 12.9285 23.8037 13.2917 23.2214C13.5628 23.486 14.0878 23.7089 14.7579 23.7089C17.5972 23.7089 20.7413 21.2537 20.7349 19.5609C20.7333 19.0717 20.3428 18.5435 19.4845 18.5435C18.0633 18.5435 15.5449 19.8169 13.7245 21.6084C13.5086 21.0276 13.8751 20.0976 14.5613 19.2941C15.9804 17.6323 18.6879 16.0734 20.1322 16.0734C20.2742 16.0734 20.3347 16.1526 20.3347 16.2421C20.3347 16.3835 20.1488 16.4569 20.1488 16.6412C20.1484 16.6652 20.153 16.689 20.1621 16.7112C20.1712 16.7334 20.1847 16.7535 20.2019 16.7703C20.219 16.7871 20.2394 16.8002 20.2618 16.8089C20.2842 16.8175 20.3081 16.8216 20.332 16.8207C20.5844 16.8207 20.9438 16.376 20.9438 15.9892C20.9438 15.6946 20.7226 15.4857 20.3138 15.4857C18.8122 15.4857 15.7956 16.9557 14.0122 18.8767C12.9435 20.0269 12.3183 21.483 12.8251 22.6005C11.9845 23.6644 11.4285 24.8473 11.4285 26.0376C11.4285 27.5248 12.449 28.5716 14.2753 28.5716C17.3915 28.5716 20.8292 26.7217 23.5528 24.1948L23.9995 23.7667C26.684 21.1251 28.5713 17.8509 28.5713 15.1739C28.5713 13.2742 27.4538 11.4287 24.4104 11.4287ZM19.2853 19.1671C19.7101 19.1671 19.8499 19.4135 19.8499 19.6369C19.8499 20.6044 17.2303 22.5437 15.0279 22.5437C14.5624 22.5437 14.1794 22.3492 14.0754 22.2051C15.5974 20.523 18.0108 19.1671 19.2853 19.1671Z" fill="#FDBF57"/>
</g>
<circle cx="20" cy="20" r="19.5" stroke="black" stroke-opacity="0.05"/>
<defs>
<clipPath id="clip0_9_410410">
<rect width="18" height="18" fill="white" transform="translate(11 11)"/>
</clipPath>
</defs>
</svg>
