<svg width="40" height="40" viewBox="0 0 40 40" fill="none" xmlns="http://www.w3.org/2000/svg">
<circle cx="20" cy="20" r="20" fill="#F6F8FA"/>
<g clip-path="url(#clip0_9_397125)">
<path d="M10.9418 22.4703C11.635 21.8009 12.058 20.9 12.1303 19.9391C12.2025 18.9782 11.9191 18.0242 11.3339 17.2586C10.7487 16.493 9.90246 15.9692 8.95622 15.7868C8.00998 15.6045 7.02971 15.7762 6.20187 16.2695C5.37402 16.7627 4.75635 17.5431 4.46633 18.462C4.1763 19.381 4.23416 20.3745 4.6289 21.2536C5.02363 22.1327 5.72771 22.8361 6.60721 23.2299C7.48672 23.6237 8.4803 23.6806 9.39897 23.3896C9.3204 23.3953 9.24111 23.3982 9.1604 23.3982C7.59754 23.3982 6.42897 22.241 6.42897 20.7139C6.42897 19.3175 7.14326 17.8567 8.92897 17.8567C10.7147 17.8567 11.429 19.2853 11.4168 21.4282H7.14326C7.2054 21.9475 8.03611 22.8567 8.92897 22.8567C9.82183 22.8567 10.394 22.3625 10.7147 22.1425L10.9418 22.4703Z" fill="#ED812D"/>
<path d="M8.92829 18.5713C10.174 18.5713 10.714 19.6427 10.714 20.7141H7.14258C7.14258 19.6427 7.62544 18.5713 8.92829 18.5713Z" fill="#ED812D"/>
<path d="M15.3574 17.8574C16.3374 17.8574 17.1431 18.6667 17.1431 19.4903V23.5717H16.4289V19.4903C16.4289 19.2631 16.286 18.5717 15.4289 18.5717C14.5717 18.5717 13.846 19.0103 13.5717 19.4903V23.5717H12.8574V17.8574H13.5717V18.6739C13.8917 18.2539 14.7967 17.8574 15.3574 17.8574Z" fill="#F18233"/>
<path d="M17.8574 22.4996V16.4282L18.5717 15.7139V21.4282C18.5717 22.0939 18.4353 22.8482 19.286 22.8482V23.5624C18.8374 23.5624 17.8574 23.5696 17.8574 22.4996ZM21.4289 17.8567V23.551L20.7146 23.5582V17.8639L21.4289 17.8567ZM30.3574 17.8567C31.3303 17.8567 32.1431 18.571 32.1431 19.6424V23.571H31.4289V19.6424C31.4289 18.9282 30.8931 18.571 30.0003 18.571C29.1496 18.571 28.5717 19.6424 28.5717 19.6424V23.571H27.8574V16.4282L28.5717 15.7139V18.9282C28.5717 18.9282 29.5067 17.8567 30.3574 17.8567ZM35.7146 23.571H35.3574C34.7146 23.571 34.286 23.2139 34.286 22.1424V18.571H33.5846V17.8567H34.286V16.4282L35.0003 15.7139V17.8567H35.7146V18.571H35.0003V22.1424C35.0003 22.8567 35.2889 22.8567 35.7146 22.8567V23.571ZM27.1431 18.571C26.8224 18.6732 26.3267 18.6932 25.6553 18.6932C26.2817 18.9453 26.4289 19.4239 26.4289 19.9996C26.4289 21.1167 25.596 21.4282 24.6431 21.4282H23.8096C23.601 21.5482 23.5753 21.701 23.5753 21.8867C23.5753 22.1689 23.7939 22.1424 24.286 22.1424H25.0003C26.2503 22.1424 27.1431 22.7367 27.1431 23.5782C27.1431 24.711 25.5739 24.9996 24.5031 24.9996C23.351 24.9996 22.1431 24.7353 22.1431 23.571H22.8574C22.8574 24.291 23.8003 24.2853 24.5031 24.2853C25.1081 24.2853 26.4289 24.2489 26.4289 23.5782C26.4289 23.1689 25.8339 22.8567 25.0003 22.8567H24.286C23.6239 22.8567 22.8574 22.8567 22.8574 22.1424C22.8574 21.8367 22.896 21.4789 23.3067 21.2389C22.741 20.9796 22.5003 20.6382 22.5003 19.9996C22.5003 18.8617 23.4974 18.2617 24.4924 18.2617C25.081 18.2617 25.536 18.2289 25.8567 18.1624C26.1853 18.0967 26.521 17.9946 26.8639 17.8567L27.1431 18.571ZM24.5031 18.8282C23.7853 18.8282 23.2146 19.291 23.2146 19.9996C23.2146 20.6696 23.8481 20.9696 24.5031 20.9696C25.2417 20.9696 25.7146 20.7196 25.7146 19.9996C25.7146 19.3039 25.2339 18.8282 24.5031 18.8282ZM21.786 16.5239C21.786 16.7133 21.7107 16.895 21.5768 17.0289C21.4428 17.1629 21.2611 17.2382 21.0717 17.2382C20.8823 17.2382 20.7006 17.1629 20.5666 17.0289C20.4327 16.895 20.3574 16.7133 20.3574 16.5239C20.3574 16.3344 20.4327 16.1527 20.5666 16.0188C20.7006 15.8848 20.8823 15.8096 21.0717 15.8096C21.2611 15.8096 21.4428 15.8848 21.5768 16.0188C21.7107 16.1527 21.786 16.3344 21.786 16.5239Z" fill="#CD3027"/>
</g>
<circle cx="20" cy="20" r="19.5" stroke="black" stroke-opacity="0.05"/>
<defs>
<clipPath id="clip0_9_397125">
<rect width="32" height="10" fill="white" transform="translate(4 15)"/>
</clipPath>
</defs>
</svg>
