<svg width="40" height="40" viewBox="0 0 40 40" fill="none" xmlns="http://www.w3.org/2000/svg">
<circle cx="20" cy="20" r="20" fill="#4F6F18"/>
<path d="M14.9447 22.5658L13.5461 22.4161L12.1459 22.0524L11.0595 21.7386L10.0762 21.2187L9.24249 20.7037L8.52146 20.0277L8 19.297L9.40021 19.4532L10.7473 19.5063L12.0429 19.4017L13.39 19.2455L14.6856 18.9929L15.9362 18.7321L17.2302 18.4714L18.5258 18.1576L19.8214 17.8984L21.0655 17.6377L22.3594 17.5331L23.7082 17.4365H25.0021L26.4024 17.6377L27.8541 17.9499L28.8954 18.3153L29.8788 18.7836L30.7575 19.3502L31.4351 20.0277L32 20.7488L30.5483 20.6007L29.2012 20.5476L27.9056 20.6007L26.61 20.8019L25.316 21.0095L24.0204 21.2702L22.7763 21.5824L21.4823 21.8432L20.1867 22.1039L18.883 22.3646L17.5891 22.5127L16.2935 22.5658H14.9447Z" fill="white"/>
<path d="M23.7082 17.4277H25.0021L26.4024 17.637L27.8541 17.9492L28.8954 18.3145L29.8788 18.7829L30.7575 19.3494L31.4351 20.027L32 20.748L30.5483 20.5999L29.2012 20.5468L27.9056 20.5999L26.61 20.8011L25.316 21.0087L24.0204 21.2695L22.7763 21.5817L21.4823 21.8424L20.1867 22.1032L18.883 22.3639L17.5891 22.512L16.2935 22.5651H14.9447L13.5461 22.409L12.1459 22.0517L11.0595 21.7378L10.0762 21.218L9.24249 20.7029L8.52146 20.027L8 19.2963L9.40021 19.4524L10.7473 19.5055L12.0429 19.4009L13.39 19.2448L14.6856 18.9921L15.9362 18.7314L17.2302 18.4707L18.5258 18.1568L19.8214 17.8977L21.0655 17.637L22.3594 17.5323L23.7082 17.4277Z" fill="white"/>
<path d="M16.4497 16.4464L15.2587 16.3417L14.0146 16.081L13.1809 15.7752L12.4599 15.4115L11.8338 14.9946L11.2689 14.4732L10.8521 13.9598L12.0945 14.0628H13.2855L14.4314 13.9598L15.6224 13.8036L16.7619 13.5429L17.9014 13.3337L18.9878 13.073L20.1337 12.8122L21.2217 12.6561L22.3596 12.5H23.499L24.7415 12.6561L25.9937 12.9168L26.7678 13.2291L27.4969 13.5429L28.1664 13.9598L28.7394 14.4732L29.0967 15.0461L27.9057 14.89H26.6632L25.5237 14.9946L24.3842 15.2023L23.2383 15.4115L22.0988 15.6722L20.961 15.9249L19.873 16.1856L18.7351 16.3417L17.5892 16.4464H16.4497Z" fill="white"/>
<path d="M23.499 12.5L24.7415 12.6561L25.9937 12.9168L26.7678 13.2291L27.4969 13.5429L28.1664 13.9598L28.7394 14.4732L29.0967 15.0461L27.9057 14.89H26.6632L25.5237 14.9946L24.3842 15.2023L23.2383 15.4115L22.0988 15.6722L20.961 15.9249L19.873 16.1856L18.7351 16.3417L17.5892 16.4464H16.4497L15.2587 16.3417L14.0146 16.081L13.1809 15.7752L12.4599 15.4115L11.8338 14.9946L11.2689 14.4732L10.8521 13.9598L12.0945 14.0628H13.2855L14.4314 13.9598L15.6224 13.8036L16.7619 13.5429L17.9014 13.3337L18.9878 13.073L20.1337 12.8122L21.2217 12.6561L22.3596 12.5H23.499Z" fill="white"/>
<path d="M16.4497 27.494L15.2587 27.3974L14.0146 27.0852L13.1809 26.8244L12.4599 26.4591L11.8338 26.0423L11.2689 25.5288L10.8521 25.0074L12.0945 25.112H13.2855L14.4314 25.0074L15.6224 24.8513L16.7619 24.5905L17.9014 24.3298L18.9878 24.1222L20.1337 23.8679L21.2217 23.7118L22.3596 23.6072L23.499 23.5557L24.7415 23.7118L25.9937 23.9725L26.7678 24.2252L27.4969 24.5905L28.1664 25.0074L28.7394 25.5288L29.0967 26.0938L27.9057 25.9376H26.6632L25.5237 26.0423L24.3842 26.2499L23.2383 26.4591L22.0988 26.7198L20.961 26.9806L19.873 27.1882L18.7351 27.3894L17.5892 27.494H16.4497Z" fill="white"/>
<path d="M23.499 23.5557L24.7415 23.7118L25.9937 23.9725L26.7678 24.2252L27.4969 24.5905L28.1664 25.0074L28.7394 25.5288L29.0967 26.0938L27.9057 25.9376H26.6632L25.5237 26.0423L24.3842 26.2499L23.2383 26.4591L22.0988 26.7198L20.961 26.9806L19.873 27.1882L18.7351 27.3894L17.5892 27.494H16.4497L15.2587 27.3894L14.0146 27.0852L13.1809 26.8244L12.4599 26.4591L11.8338 26.0423L11.2689 25.5288L10.8521 25.0074L12.0945 25.112H13.2855L14.4314 25.0074L15.6224 24.8513L16.7619 24.5905L17.9014 24.3298L18.9878 24.1222L20.1337 23.8679L21.2217 23.7118L22.3596 23.6072L23.499 23.5557Z" fill="white"/>
<circle cx="20" cy="20" r="19.5" stroke="black" stroke-opacity="0.05"/>
</svg>
