<svg width="40" height="40" viewBox="0 0 40 40" fill="none" xmlns="http://www.w3.org/2000/svg">
<circle cx="20" cy="20" r="20" fill="#F6F8FA"/>
<g clip-path="url(#clip0_9_410510)">
<path d="M23.7999 15.9911C23.2589 14.7701 23.0929 13.4158 23.3229 12.1002C23.7232 9.77543 24.9942 7.74718 26.7856 6.42871C23.312 6.84468 20.2544 9.89214 19.6715 13.5863C19.4523 14.9835 19.3417 17.1515 21.5919 19.4105C22.949 20.7724 24.3251 22.2605 23.9295 24.9116C23.5231 27.6259 21.1087 29.8184 18.5274 29.8089C15.9441 29.7967 14.23 27.594 14.5781 24.8716C15.026 21.3824 18.7717 20.3082 19.1246 18.1517C19.2582 17.3272 19.0581 16.4756 18.8633 15.7631C18.5661 14.7969 18.0192 13.2144 18.695 11.2825C18.695 11.2825 16.6919 12.8331 16.2026 16.0936C16.0981 16.8014 15.9027 17.8138 14.9262 18.8242C13.9505 19.8359 12.8912 21.5622 12.6076 23.6488C12.0688 27.6225 14.6019 30.8403 18.3713 30.8573C22.1415 30.8729 25.6517 27.67 26.2584 23.7085C26.7856 20.2763 24.6033 17.7697 23.7999 15.9911Z" fill="#E43539"/>
<path d="M18.5397 28.4546H18.5532C20.4417 28.4546 22.2922 26.7446 22.5962 24.7116C22.8846 22.7851 22.0282 21.7191 20.6378 20.3647C19.2393 19.0021 19.2786 18.352 19.1707 17.4502C19.2013 19.4024 19.2909 20.6164 18.2106 21.6383C17.1479 22.6426 16.1192 23.5655 15.9292 25.0434C15.8003 26.0565 16.0385 26.9685 16.6024 27.6098C17.0828 28.1587 17.7525 28.4505 18.5397 28.4546Z" fill="#373535"/>
</g>
<circle cx="20" cy="20" r="19.5" stroke="black" stroke-opacity="0.05"/>
<defs>
<clipPath id="clip0_9_410510">
<rect width="15" height="25" fill="white" transform="translate(12 6)"/>
</clipPath>
</defs>
</svg>
