<svg width="40" height="40" viewBox="0 0 40 40" fill="none" xmlns="http://www.w3.org/2000/svg">
<circle cx="20" cy="20" r="20" fill="#002677"/>
<g clip-path="url(#clip0_9_410023)">
<path fill-rule="evenodd" clip-rule="evenodd" d="M19.9999 34.9823C11.7076 34.9823 5.00586 28.2825 5.00586 19.9921C5.00586 11.7017 11.7076 5 19.9999 5C28.2923 5 34.994 11.7017 34.994 19.9921C34.994 28.2825 28.2923 34.9823 19.9999 34.9823ZM19.9999 5.6544C12.1373 5.6544 5.72925 12.0565 5.66026 19.9192C5.66026 22.6846 6.46052 25.3791 7.98812 27.707C8.71742 25.523 9.80941 22.7595 10.1721 21.8095C10.4658 21.1551 11.0453 20.6445 11.7766 20.4258C12.2122 21.2989 13.0854 21.8844 14.1024 21.9534C13.7417 22.4658 13.448 22.9763 13.2292 23.5578C12.7936 24.5749 12.2122 25.5979 11.6268 26.5401C11.408 26.8338 11.1202 27.0526 10.7536 27.0526C9.9533 26.615 10.0972 25.3042 9.8784 24.8686C9.8784 24.7937 9.73648 24.7247 9.66158 24.7247C9.59259 24.7247 9.59259 24.7247 9.59259 24.7937C9.44278 24.9435 9.59259 25.7418 9.59259 26.3962C9.44278 27.1945 9.155 27.9947 8.78641 28.7989C9.9533 30.2536 11.339 31.4895 12.9375 32.3627C13.2292 30.6143 13.5919 28.9428 14.1024 27.2694C14.1024 27.2694 14.1024 27.1945 14.0295 27.1945C13.448 28.5053 12.7187 29.6721 11.9934 30.8331C11.9204 30.908 11.7017 30.8331 11.5578 30.4704C11.4829 30.1097 11.408 29.9599 11.1892 29.9599C10.6846 29.9599 10.247 29.5972 10.1721 29.1616C10.0972 28.9428 10.247 28.6491 10.4658 28.5802C10.6097 28.5802 10.7536 28.5053 10.9014 28.5053C11.8455 28.2135 12.2122 27.776 12.7187 26.9028C13.2292 26.0335 13.7417 24.5749 14.4651 23.2641C15.2693 21.8844 16.0696 20.6445 16.9428 20.2819C18.5453 19.6255 19.3455 20.3568 19.5624 20.5756C17.8909 20.5007 16.9428 21.6675 16.1445 22.9763C16.1445 23.0453 16.1445 23.0453 16.1445 23.1202C16.1445 23.1202 16.2135 23.1202 16.2864 23.1202C16.9428 22.4658 18.3285 21.4488 20.6543 21.5177C16.4303 26.684 18.3974 32.6544 19.0519 34.3279C19.3455 34.3279 19.7063 34.3279 19.9999 34.3279C20.5105 34.3279 21.017 34.3279 21.5295 34.253C16.2864 22.3219 27.6438 15.6261 33.6833 24.2871C33.8331 23.9205 33.902 23.4829 33.9769 23.1202C29.2463 15.9139 22.04 20.2819 21.6714 20.6445C21.7463 20.2129 21.9651 19.7753 22.4027 19.5565C24.224 18.5335 26.2582 18.1728 28.2982 18.4665C30.4073 18.7523 32.5223 20.0631 34.1208 22.3909C35.5065 14.6032 30.2634 7.25887 22.4776 5.87319C21.6714 5.7293 20.7982 5.6544 19.9999 5.6544ZM23.4947 14.8968C23.6386 15.1156 23.6386 15.4763 23.4947 15.6951C23.5696 15.8449 23.5696 15.9139 23.5696 16.0637C23.5696 16.2076 23.4947 16.4244 23.3508 16.5683V16.6432C23.5696 17.0808 23.4198 17.6603 22.9822 17.954C22.6215 18.1728 22.109 18.3167 21.6714 18.3167C21.2358 18.3167 20.5794 18.2477 20.5794 18.2477C20.5105 18.6833 20.5105 19.1209 20.6543 19.5565C20.3626 18.9711 20.2187 18.3167 20.2187 17.7352C20.6543 17.8101 21.2358 17.8101 21.6024 17.8791C21.9651 17.954 22.3278 17.8101 22.6944 17.5913C22.9132 17.4435 22.9822 17.1557 22.9132 16.9369C22.7634 16.7181 22.7634 16.4993 22.9822 16.2825C23.132 16.2076 23.0571 15.9888 22.9132 15.9139C22.7634 15.8449 22.7634 15.77 22.9132 15.6261C23.132 15.4074 23.132 15.3325 22.9822 15.1156C22.9132 15.0407 22.9132 14.9717 22.9132 14.8968C22.9132 14.753 22.9132 14.6781 23.0571 14.6781C23.3508 14.6032 23.5696 14.3844 23.5696 14.0986C23.5696 14.0237 23.4947 13.8798 23.4198 13.8049C23.132 13.4422 22.8383 13.0795 22.4776 12.7129C22.3278 12.569 22.3278 12.3502 22.4027 12.1314C22.475 11.9869 22.475 11.8417 22.4027 11.6958C22.2588 11.1833 22.04 10.7477 21.7463 10.3101C21.7463 10.2411 21.6714 10.1662 21.6714 10.1662C21.8902 9.65572 21.2358 8.63863 20.2936 8.63863C20.1438 8.63863 19.9999 8.63863 19.8561 8.56373C19.4894 8.34494 18.9829 8.12615 17.7411 8.12615C17.1616 8.12615 16.5801 8.20105 15.9947 8.41984C15.0525 8.78252 14.2463 9.73062 14.6149 10.6038C14.6149 10.4599 15.1215 8.85545 16.6491 8.99934C16.3613 9.21813 16.2135 9.58673 16.2135 9.94744C16.2135 10.0913 16.3613 10.2411 16.5052 10.2411C16.6491 10.2411 16.724 10.1662 16.7989 10.0223C17.2365 8.99934 17.7411 9.36794 17.816 9.36794C17.816 9.36794 17.2365 9.58673 17.4533 10.385C17.4533 10.4599 17.4533 10.6038 17.3055 10.6038H17.2365C16.8679 10.6038 17.0177 10.385 16.2864 11.1143C15.8508 11.477 15.2693 11.4021 14.9027 10.9665L14.8337 10.8975C14.6839 11.0394 14.6149 11.1833 14.54 11.3331C14.1773 12.3502 15.2693 12.2753 15.2693 12.2753C15.1248 12.4934 14.9796 12.7122 14.8337 12.9317C14.2463 13.0066 13.6668 12.4941 13.6668 11.9146C13.6668 11.7707 13.6668 11.5519 13.7417 11.4021C13.3731 11.6209 13.1543 12.1314 13.3042 12.569C11.5578 13.4422 12.6497 14.9717 13.8107 15.0407C13.8107 15.1097 13.793 16.4993 14.8337 16.4993C15.2693 16.4993 15.1944 16.2825 15.8508 16.3515C15.5571 16.7181 15.1215 16.9369 14.6839 16.9369C13.8856 16.9369 13.2292 16.2825 13.2292 15.4763C12.8685 15.3325 12.4999 15.1156 12.2122 14.8219C12.0624 14.6781 11.1202 13.3673 12.7187 12.3502C12.7187 10.2411 14.1024 9.73062 14.1773 9.65572C15.1215 6.82129 19.2017 7.18397 20.2936 7.90736C22.5466 8.20105 22.3278 9.87451 22.3278 9.94744C22.6215 10.385 22.8383 10.8975 22.9822 11.4021C23.0571 11.6958 22.9822 11.9146 22.9132 12.2063C23.8554 13.3673 24.0742 13.5171 24.0742 13.8798C24.0052 14.3154 23.7864 14.6781 23.4947 14.8968ZM14.6149 13.661C13.8856 14.8219 12.7187 13.5171 13.6668 13.1485C13.8856 13.4422 14.2463 13.5861 14.6149 13.661ZM18.7641 19.6255C18.6892 19.6255 16.6491 18.9021 14.6149 21.3738C13.3731 21.23 12.9375 20.5007 12.7936 20.138C13.1543 19.9941 15.4132 19.2648 15.9947 18.6084C16.724 17.7352 17.0867 15.8449 17.0867 15.8449C17.0867 15.6951 17.2365 15.6261 17.3055 15.6261C17.5972 15.6261 17.816 15.8449 17.9599 16.0637C18.6143 16.862 17.9599 17.5913 18.7641 19.6255ZM21.8902 14.0237C21.8902 13.9547 21.8212 13.5861 21.7463 13.2234C21.7463 13.0795 21.7463 12.8627 21.8902 12.8627C22.1839 13.2234 22.5466 13.5171 22.6944 13.7359C22.8383 13.8798 22.8383 14.0237 22.6215 14.1675C22.4776 14.2405 22.3278 14.3154 22.1839 14.3154C21.9651 14.2405 21.8902 14.1675 21.8902 14.0237ZM21.0919 16.5683C20.6543 16.6432 19.0519 16.4244 18.7641 15.1905C18.7641 15.0407 18.6892 14.8968 18.6143 14.753C18.6143 14.753 18.5453 14.753 18.5453 14.8968C18.5453 15.0407 18.5453 15.1156 18.3974 15.1905C18.2536 15.2595 17.816 15.1905 17.3784 14.5342C17.0177 13.8798 17.3055 13.7359 17.3784 13.7359C17.5972 13.661 17.816 13.8049 17.8909 14.0237C17.8909 14.0237 17.8909 14.0237 17.8909 14.0986C17.9599 14.3844 18.3974 14.5342 18.3285 13.8049C18.2536 13.4422 18.3285 13.0795 18.6143 12.8627C18.9829 12.569 19.4204 12.4251 19.2706 12.3502C18.9829 12.2063 18.6143 12.1314 18.3285 12.1314C17.3784 12.2063 16.5801 12.6439 16.0696 13.4422C15.9947 13.5861 15.7759 13.661 15.632 13.661C17.2365 11.2582 18.9829 10.2411 20.0748 10.2411C20.3626 10.2411 20.5794 10.3101 20.7292 10.5289C20.2187 10.6038 19.7812 10.6787 19.2706 10.8975C18.8331 11.0394 18.3974 11.3331 18.0348 11.6209C18.1097 11.7707 18.2536 11.7707 18.3974 11.7707C18.5453 11.7707 18.6892 11.6958 18.8331 11.6958C20.5105 10.9665 20.6543 10.8975 20.7982 11.2582C21.0919 11.7707 21.2358 11.9146 20.8731 12.2063C20.4375 12.4941 19.6373 12.6439 20.4375 13.2983C20.7982 13.661 21.3107 13.7359 21.2358 14.5342C21.2358 15.1156 20.0748 15.4074 21.0919 16.5683ZM23.0571 33.9652C24.0052 33.7464 24.9474 33.4547 25.8225 33.092C21.9651 26.5401 28.517 20.4258 32.7411 26.5401C33.0289 25.9606 33.2476 25.3791 33.4664 24.7937C26.8455 15.9139 18.1097 24.0683 23.0571 33.9652ZM18.4704 22.9014V22.8285H18.3974C16.9428 23.7766 15.2693 26.9028 14.4651 33.161C14.9776 33.3798 15.4132 33.5296 15.9257 33.6715C15.9947 27.0526 17.5223 24.431 18.4704 22.9014ZM26.9145 32.5105C29.2463 31.2017 31.1386 29.3055 32.4474 27.0526C28.5919 21.2989 23.201 26.8338 26.9145 32.5105ZM15.1215 14.2405C15.1944 14.5342 15.4881 14.8219 15.8508 14.8219C16.2135 14.8219 16.3613 14.6781 16.6491 14.6781C16.4303 15.1905 15.8508 15.4763 15.3383 15.2595C15.1215 15.1905 14.9027 14.9717 14.7588 14.753C14.8337 14.5342 14.9776 14.3844 15.1215 14.2405Z" fill="white"/>
</g>
<circle cx="20" cy="20" r="19.5" stroke="black" stroke-opacity="0.05"/>
<defs>
<clipPath id="clip0_9_410023">
<rect width="30" height="30" fill="white" transform="translate(5 5)"/>
</clipPath>
</defs>
</svg>
