<svg width="40" height="40" viewBox="0 0 40 40" fill="none" xmlns="http://www.w3.org/2000/svg">
<circle cx="20" cy="20" r="20" fill="#EC1E27"/>
<g clip-path="url(#clip0_9_385971)">
<path d="M35.566 15.3386V25.0089L29.4488 27.136V15.3803L27.4091 14.6593V27.8589L21.3118 29.984V12.5302L20.2929 12.1688L19.272 12.5302V29.984L13.1549 27.8589V14.6593L11.1151 15.3803V27.136L5.01782 25.0089V15.3386L7.05754 14.6375V23.565L9.09528 24.2661V13.9364L15.1926 11.7894V26.413L17.2323 27.1141V11.0883L20.2909 10.0039L23.3495 11.0883V27.1141L25.3694 26.413V11.7894L31.4865 13.9364V24.2661L33.5263 23.565V14.6375L35.566 15.3386Z" fill="white"/>
</g>
<circle cx="20" cy="20" r="19.5" stroke="black" stroke-opacity="0.05"/>
<defs>
<clipPath id="clip0_9_385971">
<rect width="30.566" height="20" fill="white" transform="translate(5 10)"/>
</clipPath>
</defs>
</svg>
