<svg width="40" height="40" viewBox="0 0 40 40" fill="none" xmlns="http://www.w3.org/2000/svg">
<circle cx="20" cy="20" r="20" fill="#FF033E"/>
<g clip-path="url(#clip0_9_400190)">
<path d="M28.9583 9.09209C28.955 8.46531 28.6034 8.27695 28.183 8.55145L21.701 12.7872C21.3494 13.0167 21.2851 13.1087 21.2864 13.5857L21.3108 22.0142C21.3128 22.4931 21.6593 22.72 22.045 22.4661L28.5095 18.2104L28.5475 18.1853C28.7744 18.0362 28.8882 17.9603 28.946 17.8549C29.0033 17.7475 29.002 17.6093 29 17.331L28.9994 17.2365L28.9589 9.09145L28.9583 9.09209ZM11.1633 25.7292C10.9448 25.5859 10.9544 25.3847 11.1395 25.2574L13.9983 23.298C14.1533 23.1919 14.1995 23.1835 14.3654 23.2922L17.3013 25.2182C17.4685 25.3275 17.4736 25.5357 17.3026 25.6515L14.4406 27.5987L14.4239 27.6096C14.321 27.6803 14.2696 27.7144 14.2195 27.7144C14.1713 27.7144 14.123 27.6822 14.0292 27.6199L13.9964 27.598L11.1633 25.7292ZM23.2979 24.7328C23.1867 24.7875 23.1815 24.8736 23.312 24.9353L25.0124 25.7357L25.0317 25.7453C25.0883 25.7723 25.1172 25.7858 25.1461 25.7858C25.1763 25.7858 25.2065 25.771 25.2683 25.7408L25.2785 25.7363L26.9963 24.9019C27.0985 24.8517 27.0953 24.763 26.995 24.7155L25.2335 23.8907C25.1339 23.8437 25.1063 23.8476 25.0137 23.8932L23.2979 24.7328ZM21.2858 27.8674C21.2845 27.724 21.3713 27.6797 21.476 27.7414L23.0909 28.6896C23.1783 28.741 23.1944 28.7616 23.1957 28.8709L23.2143 30.7994C23.2156 30.9087 23.1308 30.9627 23.0343 30.9055L21.4233 29.9528L21.4143 29.947C21.3565 29.9129 21.3275 29.8962 21.314 29.8712C21.2999 29.8474 21.2999 29.8159 21.2999 29.7535V29.7317L21.2858 27.8674ZM18.524 27.7465C18.6288 27.6732 18.7156 27.726 18.7143 27.8982L18.7008 30.1354V30.1611C18.7002 30.2395 18.7002 30.2775 18.6841 30.307C18.6693 30.3347 18.641 30.3552 18.5858 30.3938L18.5768 30.4002L16.9658 31.5439C16.8693 31.612 16.7845 31.5484 16.7858 31.4166L16.8044 29.1023C16.8057 28.9712 16.8218 28.9461 16.9092 28.8844L18.524 27.7465ZM12.9286 12.7455C12.9254 12.3147 13.1845 12.1823 13.4988 12.3662L18.344 15.2108C18.607 15.3651 18.6552 15.4281 18.659 15.7553L18.7143 21.5417C18.7175 21.8708 18.4623 22.0302 18.1743 21.8592L13.342 19.0017C13.1491 18.8873 13.0572 18.8352 13.0128 18.7568C12.9678 18.6765 12.9717 18.5678 12.9698 18.3377L12.9286 12.7455Z" fill="white"/>
</g>
<circle cx="20" cy="20" r="19.5" stroke="black" stroke-opacity="0.05"/>
<defs>
<clipPath id="clip0_9_400190">
<rect width="18.0007" height="24" fill="white" transform="translate(11 8)"/>
</clipPath>
</defs>
</svg>
