<svg width="40" height="40" viewBox="0 0 40 40" fill="none" xmlns="http://www.w3.org/2000/svg">
<circle cx="20" cy="20" r="20" fill="#F6F8FA"/>
<g clip-path="url(#clip0_9_406467)">
<path d="M23.0936 17.235H29.8245V21.7561H23.0936V17.235ZM23.0936 11.0055C23.0936 11.0055 28.9406 11.0055 29.3218 11.0055C29.8456 11.0055 29.8245 11.2878 29.8245 11.7654C29.8245 12.2403 29.8245 15.5292 29.8245 15.5292H23.0936V11.0055ZM26.4604 28.0081C24.5079 28.0081 22.9313 26.9606 22.9313 25.6651C22.9313 24.3683 24.5079 23.3208 26.4604 23.3208C28.4116 23.3208 29.9894 24.3683 29.9894 25.6651C29.9894 26.9606 28.4116 28.0081 26.4604 28.0081ZM10.0131 17.235H21.8825V21.7548H10.0131V17.235ZM10.0131 11.3749C10.0131 11.1783 10.1411 11.0055 10.405 11.0055C10.5105 11.0041 21.8825 11.0055 21.8825 11.0055V15.5253H10.0131C10.0131 15.5253 10.0131 11.4949 10.0131 11.3749ZM21.8746 27.9276C21.8746 27.9276 10.9234 27.9276 10.5422 27.9276C10.0171 27.9276 10.0039 27.7944 10.0039 27.3181C10.0039 26.8432 10.0039 23.4039 10.0039 23.4039H21.8746V27.9276Z" fill="#9C9C9C"/>
</g>
<circle cx="20" cy="20" r="19.5" stroke="black" stroke-opacity="0.05"/>
<defs>
<clipPath id="clip0_9_406467">
<rect width="20" height="17.0185" fill="white" transform="translate(10 11)"/>
</clipPath>
</defs>
</svg>
