<svg width="40" height="40" viewBox="0 0 40 40" fill="none" xmlns="http://www.w3.org/2000/svg">
<circle cx="20" cy="20" r="20" fill="#0E397D"/>
<g clip-path="url(#clip0_9_387962)">
<path d="M25.4957 8.76928L12.9287 13.418C11.7798 13.843 11.1929 15.1189 11.6179 16.2678L11.6521 16.3602C12.0771 17.5092 13.353 18.096 14.502 17.671L27.069 13.0223C28.2179 12.5973 28.8048 11.3214 28.3798 10.1725L28.3456 10.0801C27.9206 8.93114 26.6447 8.34428 25.4957 8.76928Z" fill="white"/>
<path d="M25.5031 15.558L12.9312 20.2085C11.7829 20.6332 11.1964 21.9084 11.6211 23.0566L11.6544 23.1466C12.0792 24.2949 13.3543 24.8814 14.5026 24.4566L27.0745 19.8062C28.2228 19.3814 28.8093 18.1062 28.3845 16.958L28.3512 16.868C27.9265 15.7197 26.6513 15.1332 25.5031 15.558Z" fill="white"/>
<path d="M25.5134 22.3548L12.9237 26.9869C11.7754 27.4094 11.187 28.6829 11.6095 29.8312L11.6426 29.9212C12.0651 31.0695 13.3385 31.6579 14.4868 31.2354L27.0766 26.6033C28.2249 26.1808 28.8133 24.9074 28.3908 23.7591L28.3577 23.669C27.9352 22.5207 26.6618 21.9323 25.5134 22.3548Z" fill="white"/>
</g>
<circle cx="20" cy="20" r="19.5" stroke="black" stroke-opacity="0.05"/>
<defs>
<clipPath id="clip0_9_387962">
<rect width="18.3113" height="24" fill="white" transform="translate(10.8445 8)"/>
</clipPath>
</defs>
</svg>
