<svg width="40" height="40" viewBox="0 0 40 40" fill="none" xmlns="http://www.w3.org/2000/svg">
<circle cx="20" cy="20" r="20" fill="#F6F8FA"/>
<g clip-path="url(#clip0_9_410110)">
<path d="M31.9969 20.5317C31.9969 18.5256 30.749 16.7614 28.8717 16.0817C28.9533 15.6563 28.9941 15.2309 28.9941 14.7946C28.9941 11.0541 25.9521 8.01367 22.2195 8.01367C20.0283 8.01367 18.0003 9.05749 16.7226 10.8218C16.0931 10.3352 15.3224 10.0715 14.5219 10.0715C12.5332 10.0715 10.9211 11.6835 10.9211 13.6691C10.9211 14.1055 11.0027 14.5309 11.144 14.9264C9.2777 15.5951 8 17.3892 8 19.3874C8 21.4044 9.25729 23.1671 11.1346 23.8468C11.053 24.2627 11.0122 24.6975 11.0122 25.1339C11.0122 28.8649 14.0447 31.896 17.7774 31.896C19.967 31.896 21.9966 30.8411 23.2633 29.0769C23.8927 29.5744 24.6634 29.8476 25.464 29.8476C27.4527 29.8476 29.0648 28.2355 29.0648 26.2499C29.0648 25.8135 28.9847 25.3882 28.8419 24.9926C30.7082 24.3239 31.9969 22.5283 31.9969 20.5317Z" fill="white"/>
<path d="M17.4322 18.3031L22.6858 20.6952L27.9803 16.0522C28.0603 15.6676 28.0917 15.2925 28.0917 14.886C28.0917 11.6227 25.4343 8.9668 22.1679 8.9668C20.2105 8.9668 18.396 9.92899 17.2894 11.541L16.4072 16.1134L17.4322 18.3031Z" fill="#FED10A"/>
<path d="M11.9962 23.8562C11.9146 24.2423 11.8848 24.6379 11.8848 25.0429C11.8848 28.3172 14.5516 30.973 17.8275 30.973C19.7958 30.973 21.6307 29.9998 22.7358 28.3784L23.6085 23.8264L22.4423 21.5959L17.1682 19.1943L11.9962 23.8562Z" fill="#24BBB1"/>
<path d="M11.9647 14.774L15.5654 15.6263L16.3565 11.5405C15.87 11.1654 15.2609 10.9629 14.6331 10.9629C13.0713 10.9629 11.792 12.2296 11.792 13.8008C11.792 14.1352 11.8532 14.4711 11.9647 14.774Z" fill="#EF5098"/>
<path d="M11.6509 15.6357C10.0483 16.1631 8.92285 17.7045 8.92285 19.3966C8.92285 21.0495 9.94784 22.5187 11.4782 23.1073L16.5294 18.5459L15.6064 16.5681L11.6509 15.6357Z" fill="#1BA9F5"/>
<path d="M23.6494 28.3785C24.147 28.7537 24.745 28.9656 25.3635 28.9656C26.9253 28.9656 28.203 27.6989 28.203 26.1276C28.203 25.7823 28.1418 25.448 28.0303 25.145L24.4405 24.3037L23.6494 28.3785Z" fill="#93C83E"/>
<path d="M24.3794 23.3601L28.3349 24.2831C29.9469 23.7557 31.063 22.2143 31.063 20.5112C31.063 18.8693 30.038 17.3892 28.5076 16.8115L23.334 21.3431L24.3794 23.3601Z" fill="#0077CC"/>
</g>
<circle cx="20" cy="20" r="19.5" stroke="black" stroke-opacity="0.05"/>
<defs>
<clipPath id="clip0_9_410110">
<rect width="24" height="23.9058" fill="white" transform="translate(8 8)"/>
</clipPath>
</defs>
</svg>
