<svg width="40" height="40" viewBox="0 0 40 40" fill="none" xmlns="http://www.w3.org/2000/svg">
<circle cx="20" cy="20" r="20" fill="#004C81"/>
<g clip-path="url(#clip0_9_405375)">
<path d="M8.74358 21.9992C8.74358 22.0175 8.73136 22.0263 8.70626 22.0263H4.4299C4.40479 22.0263 4.39258 22.0155 4.39258 21.9924V21.8343C4.39258 21.8112 4.40479 21.8004 4.4299 21.8004L4.75019 21.7936C4.86852 21.7925 4.98621 21.7761 5.10033 21.7447C5.19533 21.7128 5.28354 21.649 5.29372 21.5249C5.3039 21.4149 5.30865 21.3118 5.30865 21.2161C5.31408 21.1198 5.31611 21.0078 5.31611 20.8795V18.4462C5.31668 18.3385 5.31442 18.2308 5.30933 18.1232C5.3084 18.0154 5.30342 17.9076 5.2944 17.8002C5.29015 17.7585 5.28267 17.7172 5.27201 17.6767C5.26273 17.641 5.2417 17.6094 5.21229 17.5871C5.17444 17.5613 5.13091 17.545 5.0854 17.5396C5.03111 17.526 4.95647 17.5193 4.86147 17.5193L4.57851 17.5125C4.55408 17.5125 4.54186 17.5003 4.54186 17.4772V17.3198C4.54186 17.2967 4.55408 17.2852 4.57851 17.2852H8.44093C8.46604 17.2852 8.47826 17.2967 8.47826 17.3191L8.55765 18.2609C8.55765 18.284 8.54476 18.2949 8.52033 18.2949L8.35611 18.3084C8.33576 18.3084 8.32422 18.2996 8.31879 18.2813C8.28416 18.151 8.23163 18.026 8.16272 17.9101C8.11701 17.8285 8.05912 17.7544 7.99104 17.6903C7.95644 17.6536 7.87433 17.6312 7.7454 17.6224C7.6212 17.6132 7.49672 17.6085 7.37218 17.6082H6.09172C6.06729 17.6082 6.0544 17.6197 6.0544 17.6421V19.3399C6.0544 19.3623 6.06729 19.3738 6.09172 19.3738H6.90329C7.04715 19.3738 7.17472 19.365 7.28329 19.3467C7.39729 19.3283 7.47465 19.289 7.51401 19.2299C7.56013 19.166 7.59311 19.0936 7.61104 19.0169C7.6409 18.9253 7.66533 18.8038 7.68568 18.6525C7.68568 18.6342 7.6979 18.6253 7.72301 18.6253H7.89401C7.91911 18.6253 7.93133 18.6362 7.93133 18.6593V20.4045C7.93133 20.4276 7.91911 20.4385 7.89401 20.4385H7.72301C7.6979 20.4385 7.68568 20.4297 7.68568 20.4113C7.66798 20.279 7.64077 20.1482 7.60426 20.0198C7.57915 19.9187 7.54183 19.8481 7.49229 19.8067C7.423 19.7554 7.33964 19.7265 7.25343 19.7239C7.13728 19.7096 7.02032 19.7028 6.90329 19.7036H6.09104C6.06661 19.7036 6.05372 19.7151 6.05372 19.7375V21.1327C6.05372 21.2378 6.0639 21.3274 6.08358 21.4007C6.10394 21.474 6.14126 21.5364 6.19554 21.5859C6.26313 21.6382 6.34223 21.6736 6.42626 21.6891C6.53076 21.7074 6.66511 21.7162 6.82865 21.7162H7.4699C7.69315 21.7162 7.86211 21.6938 7.97611 21.6484C8.07807 21.6059 8.17142 21.5452 8.25161 21.4692C8.33943 21.3808 8.41251 21.2788 8.46808 21.1673C8.53254 21.0383 8.60719 20.8605 8.69201 20.6312C8.69676 20.6176 8.71101 20.6108 8.73611 20.6108L8.89218 20.6312C8.91254 20.6359 8.92272 20.6495 8.92272 20.6719L8.74358 21.9992ZM12.9127 18.9945C12.9127 19.0094 12.9039 19.0175 12.8876 19.0175L12.7634 19.0216C12.7213 19.0205 12.6798 19.0319 12.644 19.0542C12.6029 19.0802 12.5676 19.1144 12.5402 19.1546C12.5063 19.2008 12.4621 19.2415 12.4228 19.3243C12.3828 19.4037 12.3346 19.5061 12.2789 19.631L11.5535 21.2711C11.5315 21.3165 11.51 21.3622 11.4891 21.4082C11.4693 21.4534 11.4512 21.4993 11.4348 21.5459L11.2706 22.0039C11.2638 22.0128 11.2556 22.0175 11.2455 22.0175H11.1165C11.103 22.0175 11.0948 22.0128 11.0914 22.0039L10.0831 19.5027C10.0517 19.4214 10.0155 19.3421 9.97451 19.2652C9.95098 19.2121 9.92259 19.1612 9.88969 19.1132C9.86322 19.0766 9.82726 19.0603 9.7974 19.0454C9.76676 19.0296 9.73278 19.0215 9.69833 19.0216L9.57415 19.0175C9.55786 19.0175 9.54972 19.0094 9.54972 18.9945V18.8893C9.54972 18.8737 9.55786 18.8662 9.57415 18.8662H10.8363C10.8526 18.8662 10.8607 18.8737 10.8607 18.8893V18.9945C10.8607 19.0094 10.8526 19.0175 10.8356 19.0175L10.7216 19.0216C10.6748 19.0234 10.6282 19.0295 10.5825 19.0399C10.5522 19.0472 10.5257 19.0653 10.5079 19.0908C10.4943 19.1119 10.4977 19.1349 10.5011 19.1777C10.5079 19.217 10.5241 19.2693 10.5506 19.3338L11.3201 21.2799C11.3235 21.2894 11.3283 21.2955 11.335 21.2982C11.3418 21.2982 11.3466 21.2942 11.35 21.2847C11.3701 21.2292 11.3916 21.1742 11.4144 21.1198C11.4416 21.0553 11.464 20.999 11.4836 20.9501L12.0455 19.5808C12.0854 19.4834 12.12 19.3839 12.1493 19.2829C12.173 19.2362 12.1827 19.1836 12.1771 19.1315C12.1704 19.0888 12.1493 19.0617 12.1127 19.0494C12.0684 19.0319 12.0212 19.0227 11.9736 19.0223L11.8345 19.0175C11.8182 19.0175 11.81 19.0094 11.81 18.9945V18.8893C11.81 18.8737 11.8182 18.8662 11.8345 18.8662H12.8876C12.9039 18.8662 12.9127 18.8737 12.9127 18.8893V18.9945ZM16.1068 22.008C16.1068 22.0202 16.0979 22.0263 16.0816 22.0263C15.1398 22.0263 13.33 22.0311 13.2656 22.0311C13.2493 22.0311 13.2405 22.0236 13.2405 22.008V21.9028C13.2405 21.8879 13.2486 21.8798 13.2656 21.8798H13.4691C13.5648 21.877 13.6429 21.8662 13.7026 21.8479C13.7657 21.8268 13.8003 21.7746 13.8071 21.6918C13.8139 21.6192 13.8166 21.5507 13.8166 21.4862C13.82 21.4217 13.822 21.3471 13.822 21.2623V19.6174C13.822 19.5319 13.82 19.4735 13.8166 19.4159C13.8161 19.3441 13.8129 19.2723 13.8071 19.2008C13.8043 19.1728 13.7993 19.1451 13.7921 19.118C13.7859 19.0941 13.7718 19.0731 13.7521 19.0583C13.727 19.041 13.6982 19.0301 13.668 19.0264C13.5675 19.0013 13.4488 19.0196 13.3463 19.0175C13.33 19.0175 13.3219 19.0094 13.3219 18.9945V18.8893C13.3219 18.8737 13.33 18.8662 13.3463 18.8662H15.9127C15.9296 18.8662 15.9378 18.8737 15.9378 18.8893L15.9826 19.5068C15.9826 19.5224 15.9744 19.5305 15.9575 19.5305L15.8489 19.5394C15.8353 19.5394 15.8265 19.5333 15.8238 19.521C15.7966 19.426 15.7627 19.3446 15.7193 19.274C15.6888 19.2196 15.6501 19.1702 15.6046 19.1275C15.5815 19.103 15.5273 19.0874 15.4411 19.0813C15.3584 19.0755 15.2756 19.0725 15.1927 19.0725H14.3377C14.3221 19.0725 14.3133 19.0793 14.3133 19.0949V20.2125C14.3133 20.2281 14.3214 20.2356 14.3384 20.2356H14.8799C14.9756 20.2356 15.0604 20.2295 15.133 20.2173C15.209 20.205 15.2606 20.1793 15.287 20.1392C15.3175 20.0965 15.3393 20.0484 15.3515 19.9974C15.3719 19.9363 15.3881 19.8549 15.401 19.7545C15.401 19.7423 15.4092 19.7362 15.4261 19.7362H15.5401C15.5571 19.7362 15.5653 19.7443 15.5653 19.7592V20.923C15.5653 20.9379 15.5571 20.9454 15.5401 20.9454H15.4261C15.4092 20.9454 15.401 20.9393 15.401 20.927C15.3892 20.839 15.3711 20.7519 15.3468 20.6665C15.3375 20.6123 15.3114 20.5624 15.2721 20.524C15.2259 20.4902 15.1705 20.4712 15.1133 20.4697C15.0359 20.4601 14.9579 20.4556 14.8799 20.4561H14.3384C14.3221 20.4561 14.3133 20.4629 14.3133 20.4785V21.4312C14.3133 21.5011 14.3201 21.5608 14.3336 21.6097C14.3472 21.6585 14.3716 21.6999 14.4083 21.7339C14.4535 21.768 14.506 21.7913 14.5616 21.8017C14.6315 21.8146 14.7211 21.8207 14.8297 21.8207H15.2572C15.4065 21.8207 15.5191 21.8051 15.5951 21.7746C15.6629 21.7464 15.7249 21.7062 15.7783 21.6558C15.8319 21.6036 15.8801 21.5364 15.9229 21.4543C15.979 21.3378 16.0288 21.2185 16.0721 21.0967C16.0749 21.0879 16.085 21.0831 16.1013 21.0831L16.2058 21.0967C16.2194 21.1001 16.2262 21.1089 16.2262 21.1238L16.1068 22.008ZM20.4225 21.9944C20.4225 22.01 20.4136 22.0175 20.3974 22.0175L20.2779 22.027C20.1286 22.0352 19.9789 22.0291 19.8308 22.0087C19.7189 21.9926 19.6101 21.9602 19.5078 21.9123C19.4332 21.8741 19.3661 21.8229 19.3096 21.761C19.23 21.677 19.1537 21.5898 19.0809 21.4998C19.0015 21.402 18.9221 21.2541 18.8421 21.1469C18.7701 21.0472 18.6972 20.9482 18.6236 20.8497C18.5717 20.7729 18.5172 20.698 18.46 20.6251C18.4132 20.5667 18.384 20.5382 18.3705 20.5382L17.9633 20.5423C17.947 20.5423 17.9382 20.5504 17.9382 20.5654V21.4814C17.9416 21.5425 17.9464 21.6117 17.9531 21.6877C17.9599 21.7488 17.9783 21.7963 18.0074 21.8302C18.038 21.8601 18.1079 21.8682 18.2334 21.8709L18.4071 21.8757C18.4241 21.8757 18.4322 21.8832 18.4322 21.8988V22.0039C18.4322 22.0189 18.4241 22.027 18.4071 22.027H16.9875C16.9713 22.027 16.9624 22.0189 16.9624 22.0039V21.8988C16.9624 21.8832 16.9713 21.8757 16.9875 21.8757L17.1518 21.8709C17.2142 21.8675 17.2563 21.8723 17.2929 21.8662C17.3219 21.8606 17.3492 21.848 17.3723 21.8295C17.3905 21.8167 17.4029 21.7972 17.4069 21.7753C17.4137 21.7535 17.4205 21.7257 17.4273 21.6925C17.4364 21.6241 17.4412 21.5552 17.4415 21.4862C17.4449 21.4217 17.4469 21.3471 17.4469 21.2623V19.631C17.4469 19.5455 17.4449 19.4735 17.4415 19.4159C17.441 19.3441 17.4379 19.2723 17.432 19.2008C17.4295 19.1743 17.4245 19.1482 17.4171 19.1227C17.4109 19.0989 17.3967 19.0778 17.377 19.063C17.3477 19.0458 17.3151 19.035 17.2814 19.0311C17.2447 19.0216 17.1952 19.0203 17.1321 19.0175L16.9685 19.0128C16.9516 19.0128 16.9434 19.0053 16.9434 18.9897V18.8845C16.9434 18.8689 16.9516 18.8615 16.9685 18.8615H18.4797C18.6358 18.8615 18.7796 18.8737 18.912 18.9076C19.0477 18.9415 19.163 18.9884 19.2594 19.0494C19.3591 19.1105 19.4365 19.1852 19.4928 19.2734C19.5491 19.3623 19.5776 19.4634 19.5776 19.576C19.5803 19.6655 19.5649 19.7546 19.5325 19.838C19.5001 19.9215 19.4513 19.9976 19.389 20.0619C19.2628 20.1928 19.104 20.2939 18.912 20.3638C18.8984 20.3706 18.8957 20.3808 18.9018 20.3957C19.0176 20.5702 19.1403 20.7399 19.2696 20.9047C19.3456 21.0024 19.4284 21.1476 19.5179 21.248C19.6075 21.3491 19.6998 21.4421 19.7961 21.5276C19.8918 21.6131 19.9916 21.6877 20.0947 21.7515C20.1965 21.816 20.2996 21.8601 20.4021 21.8845C20.4157 21.8879 20.4225 21.8954 20.4225 21.9076V21.9944ZM19.0653 19.6812C19.0694 19.5698 19.0439 19.4592 18.9914 19.3609C18.9421 19.2725 18.8677 19.2007 18.7776 19.1546C18.671 19.0984 18.5547 19.0627 18.4349 19.0494C18.2785 19.0303 18.1208 19.0241 17.9633 19.0311C17.947 19.0311 17.9382 19.0386 17.9382 19.0542V20.3319C17.9382 20.3469 17.9464 20.355 17.9633 20.355L18.306 20.3686C18.4051 20.3713 18.4994 20.3591 18.589 20.3319C18.6779 20.3035 18.7606 20.2584 18.8326 20.1989C18.9018 20.1379 18.9581 20.0632 19.0015 19.975C19.0463 19.8837 19.0684 19.7829 19.066 19.6812H19.0653ZM23.7746 21.6965C23.6234 21.7913 23.4617 21.8683 23.2928 21.9259C23.1008 21.9931 22.8606 22.0263 22.5729 22.0263C22.2614 22.0263 21.9879 21.9836 21.7531 21.8981C21.5368 21.822 21.3375 21.7039 21.1669 21.5507C21.0133 21.4071 20.8929 21.2318 20.814 21.037C20.7342 20.836 20.6939 20.6215 20.6953 20.4052C20.6953 20.182 20.74 19.973 20.8296 19.7775C20.9185 19.5794 21.0481 19.4064 21.2164 19.2598C21.386 19.1132 21.5896 18.9972 21.8271 18.9117C22.0895 18.8228 22.3651 18.7795 22.6421 18.7834C22.8972 18.7834 23.1157 18.8106 23.2976 18.8662C23.4835 18.9178 23.6457 18.9748 23.7848 19.0359C23.7943 19.042 23.7997 19.0494 23.7997 19.0583L23.8242 19.635C23.8242 19.6507 23.8174 19.6588 23.8045 19.6588L23.7149 19.6676C23.6986 19.6676 23.6884 19.6629 23.685 19.654C23.6493 19.5608 23.6062 19.4705 23.5561 19.384C23.5057 19.2977 23.438 19.2229 23.3573 19.1641C23.2664 19.0958 23.1638 19.0445 23.0546 19.0128C22.9107 18.9729 22.7616 18.9544 22.6122 18.9578C22.4304 18.9578 22.258 18.9897 22.0958 19.0542C21.937 19.1153 21.7973 19.2048 21.6785 19.3243C21.5558 19.4487 21.4596 19.5966 21.3955 19.7592C21.3236 19.9398 21.2881 20.1328 21.291 20.3272C21.291 20.5627 21.3229 20.775 21.386 20.9637C21.4485 21.1503 21.536 21.3104 21.6486 21.4455C21.7647 21.5764 21.9038 21.6769 22.066 21.7474C22.2288 21.8173 22.4073 21.8526 22.602 21.8526C22.7744 21.8526 22.925 21.8268 23.0546 21.7746C23.187 21.723 23.301 21.6572 23.3973 21.5778C23.4888 21.5006 23.5676 21.4095 23.6308 21.3077C23.6892 21.2187 23.7375 21.1233 23.7746 21.0234C23.778 21.0146 23.7861 21.0098 23.7997 21.0098L23.8988 21.0187C23.9219 21.0187 23.93 21.0282 23.9239 21.0458L23.7746 21.6965ZM28.1514 20.3598C28.1514 20.5823 28.1107 20.794 28.0272 20.9963C27.9462 21.1951 27.8262 21.3758 27.6744 21.5276C27.5161 21.6842 27.329 21.8087 27.1234 21.894C26.8944 21.9849 26.6497 22.0298 26.4034 22.0263C26.1388 22.0263 25.8985 21.987 25.6828 21.9076C25.4794 21.8322 25.2924 21.7187 25.1318 21.573C24.9814 21.4323 24.8613 21.2624 24.7789 21.0736C24.6952 20.8767 24.6529 20.6647 24.6547 20.4507C24.6547 20.2281 24.6961 20.0164 24.7789 19.8142C24.8612 19.6119 24.9838 19.4284 25.1392 19.2749C25.2945 19.1214 25.4795 19.0011 25.6828 18.9212C25.9111 18.8269 26.1563 18.78 26.4034 18.7834C26.668 18.7834 26.9083 18.8248 27.1234 18.9076C27.3385 18.987 27.5224 19.0976 27.675 19.2415C27.827 19.3819 27.9444 19.5489 28.0279 19.7409C28.11 19.9309 28.1514 20.1365 28.1514 20.3591V20.3598ZM27.5658 20.5565C27.5658 20.3245 27.5359 20.1087 27.4762 19.9105C27.4237 19.7265 27.3397 19.5529 27.2279 19.3975C27.1255 19.2571 26.9932 19.1412 26.8404 19.0583C26.6861 18.9753 26.5134 18.9329 26.3383 18.9348C26.1008 18.9348 25.8972 18.9911 25.7275 19.1044C25.5645 19.2163 25.4384 19.374 25.3652 19.5577C25.2808 19.7768 25.2402 20.0103 25.2458 20.2451C25.2458 20.4955 25.2756 20.7214 25.3353 20.923C25.395 21.1245 25.4778 21.2955 25.5837 21.436C25.6929 21.5764 25.8205 21.685 25.9664 21.761C26.1116 21.8343 26.2711 21.8709 26.4428 21.8709C26.744 21.8709 26.9897 21.7868 27.1783 21.6192C27.3073 21.5059 27.4029 21.3593 27.466 21.1795C27.5325 20.999 27.5658 20.7913 27.5658 20.5565ZM32.4237 21.9904C32.4237 22.0053 32.4155 22.0128 32.3986 22.0128C32.3626 22.0162 32.3226 22.0195 32.2798 22.0223C32.1305 22.0305 31.9808 22.0243 31.8326 22.0039C31.7208 21.9879 31.612 21.9554 31.5096 21.9076C31.4348 21.8695 31.3675 21.8182 31.3108 21.7563C31.2195 21.6586 31.1314 21.5579 31.0469 21.4543C30.9653 21.3536 30.8858 21.2511 30.8087 21.1469C30.7367 21.0472 30.6638 20.9482 30.5902 20.8497C30.5381 20.7729 30.4833 20.698 30.426 20.6251C30.3798 20.5667 30.35 20.5382 30.3371 20.5382L29.9299 20.5423C29.913 20.5423 29.9048 20.5504 29.9048 20.5654V21.4814C29.9082 21.5425 29.913 21.6117 29.9198 21.6877C29.9265 21.7488 29.9442 21.7963 29.974 21.8302C30.0039 21.8601 30.0819 21.877 30.2075 21.8798L30.3819 21.8845C30.3981 21.8845 30.4063 21.892 30.4063 21.9076V22.0128C30.4063 22.0284 30.3981 22.0358 30.3819 22.0358C30.2774 22.032 30.1729 22.0289 30.0684 22.0263H29.269L28.946 22.0358C28.9297 22.0358 28.9216 22.0284 28.9216 22.0128V21.9076C28.9216 21.892 28.9297 21.8845 28.946 21.8845L29.1102 21.8798C29.1726 21.877 29.2229 21.873 29.2595 21.8662C29.2883 21.8605 29.3153 21.8479 29.3382 21.8295C29.3567 21.8168 29.3694 21.7973 29.3735 21.7753C29.3803 21.7535 29.3871 21.7257 29.3932 21.6925C29.4025 21.6241 29.4075 21.5552 29.4081 21.4862C29.4115 21.4217 29.4129 21.3471 29.4129 21.2623V19.6174C29.4133 19.5502 29.4117 19.483 29.4081 19.4159C29.4075 19.3441 29.4041 19.2723 29.3979 19.2008C29.3954 19.1743 29.3904 19.1482 29.383 19.1227C29.377 19.099 29.3631 19.0779 29.3436 19.063C29.3184 19.0456 29.2893 19.0347 29.2588 19.0311C29.2229 19.0216 29.1726 19.0243 29.1095 19.0216L28.9467 19.0175C28.9297 19.0175 28.9209 19.0094 28.9209 18.9945V18.8893C28.9209 18.8737 28.9297 18.8662 28.946 18.8662C29.0322 18.8689 29.1394 18.8628 29.269 18.8662C29.6694 18.8662 30.0555 18.8628 30.4463 18.8628C30.6017 18.8628 30.7456 18.8798 30.8779 18.913C31.0136 18.947 31.1296 18.9877 31.226 19.0488C31.3251 19.1098 31.4024 19.1852 31.4594 19.274C31.5162 19.3644 31.5454 19.4693 31.5436 19.576C31.5462 19.6655 31.5309 19.7546 31.4985 19.838C31.4661 19.9215 31.4173 19.9976 31.3549 20.0619C31.2294 20.1928 31.0699 20.2939 30.8779 20.3638C30.865 20.3706 30.8616 20.3808 30.8684 20.3957C30.9842 20.5702 31.1069 20.74 31.2362 20.9047C31.3122 21.0024 31.395 21.1014 31.4845 21.2025C31.5734 21.303 31.7017 21.4373 31.798 21.5228C31.8937 21.6083 31.9928 21.683 32.0959 21.7468C32.1984 21.8112 32.3009 21.8553 32.4033 21.8798C32.4169 21.8832 32.4237 21.8906 32.4237 21.9028V21.9904ZM31.0326 19.6676C31.0367 19.5604 31.0109 19.4542 30.958 19.3609C30.9087 19.2725 30.8343 19.2007 30.7442 19.1546C30.6376 19.0984 30.5213 19.0627 30.4015 19.0494C30.2449 19.0303 30.0869 19.0241 29.9293 19.0311C29.913 19.0311 29.9048 19.0386 29.9048 19.0542V20.3319C29.9048 20.3469 29.913 20.355 29.9293 20.355L30.2719 20.3686C30.3717 20.3713 30.466 20.3591 30.5556 20.3319C30.6443 20.3035 30.7267 20.2583 30.7985 20.1989C30.8684 20.1379 30.9247 20.0632 30.9681 19.975C31.0109 19.8861 31.0326 19.7837 31.0326 19.6676ZM35.4874 22.0087C35.4874 22.0202 35.4793 22.0263 35.463 22.0263H33.014C32.9446 22.0294 32.8752 22.031 32.8057 22.0311C32.7392 22.0345 32.6836 22.0358 32.6361 22.0358C32.6198 22.0358 32.6116 22.0284 32.6116 22.0128V21.9076C32.6116 21.892 32.6198 21.8845 32.6368 21.8845L32.8505 21.8798C32.9462 21.877 33.0242 21.8662 33.0833 21.8479C33.1464 21.8268 33.1817 21.7746 33.1878 21.6918C33.1945 21.6192 33.1979 21.5507 33.1979 21.4862C33.2013 21.4217 33.2027 21.3471 33.2027 21.2623V19.6174C33.2031 19.5502 33.2016 19.483 33.1979 19.4159C33.1972 19.3441 33.1939 19.2723 33.1878 19.2008C33.185 19.1728 33.18 19.1451 33.1728 19.118C33.1668 19.0942 33.1529 19.0732 33.1335 19.0583C33.1131 19.0433 33.0853 19.042 33.0486 19.0359C32.9996 19.0255 32.9495 19.0209 32.8994 19.0223L32.7114 19.0175C32.6944 19.0175 32.6863 19.0094 32.6863 18.9945V18.8893C32.6863 18.8737 32.6944 18.8662 32.7114 18.8662C32.9584 18.875 33.204 18.8662 33.451 18.8662H35.294C35.3103 18.8662 35.3185 18.8737 35.3185 18.8893L35.3633 19.5068C35.3633 19.5224 35.3551 19.5305 35.3388 19.5305L35.2296 19.5394C35.216 19.5394 35.2079 19.5333 35.2045 19.521C35.1812 19.4343 35.146 19.3512 35.1 19.274C35.0696 19.2197 35.0312 19.1703 34.986 19.1275C34.9629 19.103 34.9079 19.0874 34.8218 19.0813C34.7391 19.0755 34.6563 19.0725 34.5734 19.0725H33.7204C33.7035 19.0725 33.6953 19.0793 33.6953 19.0949V20.2125C33.6953 20.2281 33.7035 20.2356 33.7198 20.2356H34.2613C34.3576 20.2356 34.4418 20.2295 34.515 20.2173C34.591 20.205 34.6426 20.1793 34.6691 20.1392C34.6995 20.0965 34.7214 20.0484 34.7335 19.9974C34.7532 19.9363 34.7695 19.8549 34.7831 19.7545C34.7831 19.7423 34.7912 19.7362 34.8082 19.7362H34.9222C34.9385 19.7362 34.9466 19.7443 34.9466 19.7592V20.923C34.9466 20.9379 34.9385 20.9454 34.9222 20.9454H34.8075C34.7912 20.9454 34.7831 20.9393 34.7831 20.927C34.7713 20.839 34.7531 20.7519 34.7288 20.6665C34.7195 20.6123 34.6934 20.5624 34.6541 20.524C34.6078 20.49 34.5521 20.4711 34.4947 20.4697C34.4173 20.4601 34.3393 20.4556 34.2613 20.4561H33.7204C33.7035 20.4561 33.6953 20.4629 33.6953 20.4785V21.4312C33.6953 21.5011 33.7021 21.5608 33.7157 21.6097C33.7278 21.6574 33.7535 21.7005 33.7896 21.7339C33.8352 21.7679 33.8878 21.7911 33.9437 21.8017C34.0129 21.8146 34.1025 21.8207 34.2117 21.8207H34.6392C34.7885 21.8207 34.9005 21.8051 34.9765 21.7746C35.0445 21.7465 35.1068 21.7062 35.1604 21.6558C35.2133 21.6036 35.2621 21.5364 35.3042 21.4543C35.3603 21.3378 35.4102 21.2185 35.4535 21.0967C35.4569 21.0879 35.4671 21.0831 35.4834 21.0831L35.5879 21.0967C35.6014 21.1001 35.6075 21.1089 35.6075 21.1238L35.4881 22.008L35.4874 22.0087Z" fill="white"/>
</g>
<circle cx="20" cy="20" r="19.5" stroke="black" stroke-opacity="0.05"/>
<defs>
<clipPath id="clip0_9_405375">
<rect width="32" height="6" fill="white" transform="translate(4 17)"/>
</clipPath>
</defs>
</svg>
