<svg width="40" height="40" viewBox="0 0 40 40" fill="none" xmlns="http://www.w3.org/2000/svg">
<circle cx="20" cy="20" r="20" fill="#F6F8FA"/>
<g clip-path="url(#clip0_9_388694)">
<path d="M8.38936 11.1226C8.66282 11.01 8.96362 11.0068 9.25478 11.002C10.7701 11.0052 12.2853 11.0003 13.8006 11.0036C14.8961 11.0406 16.0478 11.4749 16.7138 12.3821C18.2081 14.2223 19.7105 16.0561 21.2065 17.8931C21.3835 18.1054 21.5041 18.44 21.3207 18.6845C21.0698 18.9869 20.6387 19.0095 20.2752 19.0159C18.6569 19.0095 17.0387 19.0239 15.4205 19.0079C14.428 18.9258 13.392 18.5317 12.7711 17.7194C11.3379 15.958 9.89982 14.1998 8.46336 12.44C8.27837 12.2068 8.03708 11.9816 8.00813 11.6663C7.97756 11.4186 8.16738 11.203 8.38936 11.1226Z" fill="#76BB40"/>
<path d="M19.7942 11.1001C20.1079 10.9972 20.4424 11.002 20.7706 11.002C22.2553 11.0068 23.74 10.9972 25.2247 11.0068C26.2655 11.0599 27.3545 11.4669 28.0044 12.313C29.5148 14.1709 31.0349 16.0224 32.5454 17.8803C32.7288 18.0974 32.8574 18.4449 32.6612 18.6942C32.428 18.9677 32.0371 19.0063 31.6993 19.0143C30.2483 19.0159 28.799 19.0143 27.3481 19.0159C26.2317 19.0658 25.0285 18.728 24.2564 17.8835C22.7684 16.0642 21.2853 14.2401 19.7974 12.4224C19.6156 12.1956 19.384 11.9736 19.3566 11.6679C19.3213 11.3961 19.5513 11.1725 19.7942 11.1001Z" fill="#317CC0"/>
<path d="M26.7625 20.9926C28.3711 20.9749 29.9813 20.9926 31.5898 20.9845C31.9598 20.991 32.3893 21.0071 32.6563 21.3014C32.859 21.5491 32.7287 21.9014 32.5469 22.1218C31.0349 23.9749 29.5196 25.8296 28.0075 27.6843C27.3593 28.5336 26.2703 28.9422 25.2311 28.9953C23.6451 29.0033 22.059 28.9953 20.4713 28.9985C20.1142 28.984 19.6815 28.9711 19.4451 28.6575C19.2552 28.4065 19.3952 28.0671 19.577 27.8532C21.0874 25.9953 22.6059 24.1422 24.1196 22.2843C24.7389 21.4719 25.7716 21.0794 26.7625 20.9926Z" fill="#003353"/>
<path d="M15.4379 20.9924C17.0497 20.9779 18.6599 20.9908 20.2685 20.9844C20.6577 20.9924 21.1403 21.0165 21.3655 21.3881C21.4894 21.6568 21.343 21.9576 21.1644 22.1635C19.6636 24.0005 18.1644 25.8391 16.6653 27.6761C16.0009 28.5511 14.8717 28.9645 13.802 28.9967C12.2159 28.9983 10.6299 28.9983 9.04381 28.9967C8.71566 28.979 8.32799 28.9501 8.106 28.6734C7.8985 28.4128 8.04809 28.0541 8.24112 27.8337C9.74193 25.9967 11.2427 24.1597 12.7403 22.3211C13.3661 21.4814 14.4229 21.068 15.4379 20.9924Z" fill="#72808A"/>
</g>
<circle cx="20" cy="20" r="19.5" stroke="black" stroke-opacity="0.05"/>
<defs>
<clipPath id="clip0_9_388694">
<rect width="24.7721" height="18" fill="white" transform="translate(8 11)"/>
</clipPath>
</defs>
</svg>
