<svg width="40" height="40" viewBox="0 0 40 40" fill="none" xmlns="http://www.w3.org/2000/svg">
<circle cx="20" cy="20" r="20" fill="#C62018"/>
<path d="M10.0015 11.3113C10.0015 10.5839 10.513 9.99768 11.262 10C11.6987 10.0016 12.099 10.0016 12.463 10C12.4882 9.99962 12.5009 10.0123 12.5009 10.0379V20.056C12.5009 20.0727 12.4927 20.0829 12.4764 20.0864L10.026 20.6195C10.023 20.6201 10.02 20.62 10.017 20.6193C10.0141 20.6186 10.0114 20.6172 10.009 20.6153C10.0067 20.6135 10.0048 20.6111 10.0035 20.6083C10.0022 20.6056 10.0015 20.6027 10.0015 20.5996C10.0019 17.4794 10.0019 14.3833 10.0015 11.3113Z" fill="white"/>
<path d="M13.126 19.9316V10.0231C13.126 10.0203 13.1265 10.0175 13.1276 10.0149C13.1287 10.0123 13.1303 10.0099 13.1323 10.0079C13.1343 10.0059 13.1367 10.0043 13.1393 10.0032C13.1419 10.0021 13.1447 10.0016 13.1476 10.0016L15.6044 10.001C15.6101 10.001 15.6156 10.0033 15.6197 10.0073C15.6237 10.0113 15.626 10.0168 15.626 10.0226V19.3984C15.626 19.4033 15.6243 19.4081 15.6212 19.4119C15.6181 19.4157 15.6138 19.4184 15.6091 19.4194L13.1522 19.9526C13.1491 19.9533 13.1458 19.9533 13.1427 19.9525C13.1395 19.9518 13.1366 19.9504 13.1341 19.9484C13.1316 19.9463 13.1295 19.9438 13.1281 19.9409C13.1267 19.938 13.126 19.9348 13.126 19.9316Z" fill="white"/>
<path d="M16.2511 19.2672L16.2505 10.022C16.2505 10.0192 16.251 10.0165 16.2521 10.0139C16.2531 10.0114 16.2547 10.0091 16.2566 10.0071C16.2586 10.0052 16.2609 10.0036 16.2635 10.0026C16.266 10.0015 16.2687 10.001 16.2715 10.001H18.7301C18.7328 10.001 18.7356 10.0015 18.7381 10.0026C18.7407 10.0036 18.743 10.0052 18.7449 10.0071C18.7469 10.0091 18.7484 10.0114 18.7495 10.0139C18.7505 10.0165 18.7511 10.0192 18.7511 10.022V18.7335C18.7511 18.7382 18.7494 18.7428 18.7465 18.7465C18.7435 18.7503 18.7394 18.7528 18.7347 18.7539L16.2767 19.2882C16.2736 19.2889 16.2704 19.2889 16.2673 19.2882C16.2641 19.2874 16.2612 19.286 16.2588 19.284C16.2563 19.282 16.2543 19.2794 16.253 19.2765C16.2516 19.2736 16.251 19.2704 16.2511 19.2672Z" fill="white"/>
<path d="M28.7934 10.0014C29.4548 10.0014 29.9839 10.5783 29.9961 11.2339C30.002 11.5579 30.0027 11.9675 29.9985 12.4629C29.9985 12.4855 29.987 12.4968 29.964 12.4968H19.9378C19.9325 12.4968 19.9274 12.495 19.9233 12.4917C19.9191 12.4884 19.9162 12.4838 19.915 12.4787L19.3837 10.037C19.3786 10.0137 19.3879 10.002 19.4117 10.002C22.5537 10.0009 25.6809 10.0007 28.7934 10.0014Z" fill="white"/>
<path d="M20.0666 13.123H29.9797C29.9851 13.123 29.9903 13.1252 29.9942 13.129C29.998 13.1329 30.0001 13.138 30.0001 13.1435V15.6026C30.0001 15.608 29.998 15.6132 29.9942 15.6171C29.9903 15.6209 29.9851 15.623 29.9797 15.623H20.6021C20.5974 15.623 20.5929 15.6214 20.5893 15.6184C20.5857 15.6154 20.5832 15.6113 20.5823 15.6067L20.0468 13.1475C20.0462 13.1446 20.0463 13.1415 20.047 13.1386C20.0477 13.1357 20.049 13.133 20.0509 13.1306C20.0528 13.1283 20.0552 13.1264 20.0579 13.1251C20.0606 13.1238 20.0636 13.1231 20.0666 13.123Z" fill="white"/>
<path d="M20.7304 16.249H29.982C29.9868 16.249 29.9914 16.2509 29.9948 16.2543C29.9982 16.2577 30.0001 16.2623 30.0001 16.2671L30.0007 18.7321C30.0007 18.7369 29.9988 18.7415 29.9954 18.7449C29.992 18.7483 29.9874 18.7502 29.9826 18.7502H21.2664C21.2624 18.7502 21.2584 18.7488 21.2552 18.7462C21.2521 18.7437 21.2498 18.7402 21.2489 18.7362L20.7129 16.2712C20.7123 16.2685 20.7122 16.2658 20.7128 16.2632C20.7134 16.2605 20.7146 16.258 20.7163 16.2559C20.718 16.2538 20.7201 16.252 20.7225 16.2509C20.725 16.2497 20.7277 16.249 20.7304 16.249Z" fill="white"/>
<path d="M30.0005 28.7137C30.0011 29.2614 29.6838 29.7461 29.1664 29.9246C29.0069 29.9794 28.8073 30.0045 28.5673 29.9998C28.2131 29.9924 27.8707 29.9923 27.5402 29.9993C27.5141 30 27.5011 29.9872 27.5011 29.9608L27.5005 19.9502C27.5005 19.9292 27.5108 19.9166 27.5314 19.9123L29.969 19.3821C29.99 19.3774 30.0005 19.3858 30.0005 19.4072C29.9997 22.5177 29.9997 25.6199 30.0005 28.7137Z" fill="white"/>
<path d="M26.8755 20.0631L26.8749 29.9762C26.8749 29.9811 26.8729 29.9859 26.8694 29.9894C26.8659 29.9929 26.8612 29.9948 26.8562 29.9948H24.3942C24.3892 29.9948 24.3845 29.9929 24.381 29.9894C24.3775 29.9859 24.3755 29.9811 24.3755 29.9762V20.5997C24.3755 20.5955 24.377 20.5914 24.3796 20.5881C24.3823 20.5848 24.386 20.5825 24.3901 20.5816L26.8527 20.0444C26.8555 20.0438 26.8584 20.0438 26.8611 20.0445C26.8639 20.0451 26.8665 20.0464 26.8687 20.0482C26.8709 20.05 26.8726 20.0523 26.8738 20.0548C26.875 20.0574 26.8756 20.0602 26.8755 20.0631Z" fill="white"/>
<path d="M23.7511 20.7282V29.9787C23.7511 29.9833 23.7492 29.9878 23.7459 29.9911C23.7427 29.9943 23.7382 29.9962 23.7336 29.9962L21.268 29.9956C21.2633 29.9956 21.2589 29.9938 21.2556 29.9905C21.2523 29.9872 21.2505 29.9827 21.2505 29.9781L21.2511 21.2643C21.2511 21.2603 21.2525 21.2564 21.2551 21.2533C21.2576 21.2503 21.2612 21.2481 21.2651 21.2473L23.7301 20.7113C23.7326 20.7108 23.7352 20.7108 23.7377 20.7114C23.7402 20.712 23.7425 20.7132 23.7446 20.7148C23.7466 20.7164 23.7482 20.7185 23.7493 20.7208C23.7504 20.7231 23.751 20.7256 23.7511 20.7282Z" fill="white"/>
<path d="M19.2724 23.7477H10.0195C10.0149 23.7477 10.0105 23.7458 10.0072 23.7425C10.0039 23.7392 10.002 23.7348 10.002 23.7302L10.0015 21.2652C10.0015 21.2605 10.0033 21.2561 10.0066 21.2528C10.0099 21.2495 10.0143 21.2477 10.019 21.2477L18.7363 21.2471C18.7403 21.2471 18.7442 21.2485 18.7472 21.2511C18.7503 21.2536 18.7524 21.2572 18.7532 21.2611L19.2893 23.7267C19.2898 23.7292 19.2897 23.7318 19.2891 23.7343C19.2885 23.7368 19.2874 23.7391 19.2858 23.7411C19.2841 23.7431 19.2821 23.7448 19.2798 23.7459C19.2775 23.747 19.2749 23.7476 19.2724 23.7477Z" fill="white"/>
<path d="M19.9326 26.8729H10.0242C10.0183 26.8729 10.0127 26.8705 10.0085 26.8664C10.0044 26.8622 10.002 26.8566 10.002 26.8507L10.0015 24.3933C10.0015 24.3874 10.0038 24.3817 10.008 24.3776C10.0121 24.3734 10.0178 24.3711 10.0236 24.3711H19.3978C19.4029 24.371 19.408 24.3727 19.412 24.3759C19.416 24.3791 19.4188 24.3836 19.4199 24.3886L19.9542 26.846C19.9549 26.8492 19.9549 26.8526 19.9541 26.8558C19.9534 26.859 19.9519 26.862 19.9498 26.8646C19.9478 26.8672 19.9451 26.8692 19.9422 26.8707C19.9392 26.8721 19.9359 26.8728 19.9326 26.8729Z" fill="white"/>
<path d="M11.257 29.9984C10.5559 29.9996 10 29.4286 10.0012 28.735C10.0019 28.3294 10.0016 27.9274 10 27.5288C10 27.5089 10.0099 27.499 10.0297 27.499H20.0438C20.0694 27.499 20.085 27.5117 20.0904 27.5369L20.6171 29.9594C20.623 29.9858 20.6123 29.999 20.5851 29.999C17.6651 29.9912 14.5557 29.9911 11.257 29.9984Z" fill="white"/>
<circle cx="20" cy="20" r="19.5" stroke="black" stroke-opacity="0.05"/>
</svg>
