<svg width="40" height="40" viewBox="0 0 40 40" fill="none" xmlns="http://www.w3.org/2000/svg">
<circle cx="20" cy="20" r="20" fill="#FB4E0A"/>
<g clip-path="url(#clip0_9_391837)">
<path d="M9.60927 17.5499V19.6363L9.6139 19.6471L9.62471 19.6518H15.3884L15.3992 19.6564L15.4039 19.6672V21.1792L15.4023 21.1869L15.3946 21.19H9.62626L9.6139 21.1962L9.60927 21.2085V23.3043L9.6139 23.312L9.62162 23.3151H15.39L15.4008 23.3197L15.4054 23.3305V24.8363L15.4008 24.8487L15.3884 24.8533H9.59073L9.28185 24.8456L9.16602 24.8348L9.07645 24.8194L8.91429 24.7699L8.76139 24.7035L8.61776 24.6186L8.48649 24.5182L8.40772 24.4441L8.33514 24.3653L8.26873 24.2804L8.20849 24.1908L8.15598 24.0966L8.10965 23.9977L8.07104 23.8943L8.04015 23.7877L8.02317 23.6981L8.01081 23.5869L8.00309 23.4541L8 23.3012V17.3661L8.00309 17.2981L8.01699 17.1699L8.04479 17.0417L8.08649 16.9151L8.14208 16.7885L8.21158 16.6634L8.29035 16.5475L8.37838 16.4425L8.47568 16.3483L8.60849 16.2464L8.75521 16.1599L8.91583 16.0904L9.09035 16.0363L9.21081 16.0132L9.33282 16.0039H9.34981H15.3931L15.4008 16.007L15.4039 16.0147V17.5159L15.4008 17.5282L15.3884 17.5329H9.6278L9.6139 17.5375L9.60927 17.5514V17.5499Z" fill="white"/>
<path d="M20.3381 21.7344L18.1281 24.8216L18.1034 24.8432L18.071 24.851H16.1482L16.1343 24.8479L16.1389 24.834L19.3003 20.4556L19.3096 20.4278L19.3003 20.4L16.1358 16.0154V16.0077L16.1405 16.0015H16.1435L18.0787 16L18.1049 16.0062L18.125 16.0247L20.3443 19.1228L20.3505 19.1259L20.3567 19.1228L22.5852 16.0124L22.5961 16.0031L22.61 16H24.5544L24.5652 16.0077V16.0185V16.0216L24.4354 16.1931L21.3961 20.4031L21.3899 20.4216L21.3961 20.4402L24.5667 24.8324V24.8355V24.8432L24.559 24.8463L22.6161 24.8494L22.5976 24.8448L22.5822 24.8309L20.3628 21.7313L20.352 21.7251L20.3397 21.7297H20.3381V21.7344Z" fill="white"/>
<path d="M27.14 23.2L27.1462 23.217L27.1631 23.2232H31.9832L31.9956 23.2293L32.0002 23.2417V24.8386L31.9971 24.8479L31.9879 24.851H26.7045L26.5778 24.8463L26.4543 24.8309L26.3307 24.8031L26.2118 24.766L26.0713 24.7058L25.9384 24.6317L25.8149 24.5436L25.7021 24.4432L25.6002 24.3305L25.5106 24.2085L25.4365 24.0788L25.3763 23.9398L25.3423 23.8332L25.316 23.7236L25.3021 23.6324L25.2929 23.5181L25.2852 23.217V16.0108H25.2867L25.2898 16.0031L25.2975 16H27.1214L27.1307 16.0031L27.1384 16.017V23.2H27.14Z" fill="white"/>
</g>
<circle cx="20" cy="20" r="19.5" stroke="black" stroke-opacity="0.05"/>
<defs>
<clipPath id="clip0_9_391837">
<rect width="24" height="8.85251" fill="white" transform="translate(8 16)"/>
</clipPath>
</defs>
</svg>
