<svg width="40" height="40" viewBox="0 0 40 40" fill="none" xmlns="http://www.w3.org/2000/svg">
<circle cx="20" cy="20" r="20" fill="#F6F8FA"/>
<g clip-path="url(#clip0_9_401264)">
<path d="M9.71401 14.2178H18.0737L17.328 17.4153H13.4323L13.0864 18.7146H16.9834L16.347 21.5901H12.8839L12.4461 23.1342C13.3423 23.4466 16.1683 23.0056 17.6623 22.6154L16.9815 25.786H7.14258L9.71401 14.2178Z" fill="#00214A"/>
<path d="M24.5005 14.2139H19.6604L17.6483 22.6597L16.9443 25.7853H21.2862L22.5719 22.571L23.5748 25.7853L26.429 22.571L25.7881 25.7853H30.2862L32.8576 14.2139H27.7148L25.5869 16.7853L24.5005 14.2139Z" fill="#BB000D"/>
<path d="M18.0692 14.2168H19.9997L19.3569 17.4285H23.5387C24.3146 17.4285 24.5319 18.027 24.4965 18.4307C26.7144 18.2372 27.4794 19.0189 27.5951 19.5146L27.7172 20.6415C27.7172 20.6415 27.5989 20.4853 27.5089 20.3992C27.2788 20.178 25.0809 20.5084 25.0809 20.5084C21.6172 21.1654 21.3028 21.4599 17.7696 22.6016C14.9437 23.5144 12.0894 23.4514 11.6426 23.2142L12.2854 21.2857H16.1426L16.7854 18.7142H12.9283L13.5711 16.7857H17.4283L18.0692 14.2168Z" fill="#F0F3FA"/>
<path d="M24.1776 18.3096H22.71L23.8189 18.9274L24.1776 18.3096Z" fill="#BB000D"/>
</g>
<circle cx="20" cy="20" r="19.5" stroke="black" stroke-opacity="0.05"/>
<defs>
<clipPath id="clip0_9_401264">
<rect width="26" height="12" fill="white" transform="translate(7 14)"/>
</clipPath>
</defs>
</svg>
