<svg width="40" height="40" viewBox="0 0 40 40" fill="none" xmlns="http://www.w3.org/2000/svg">
<circle cx="20" cy="20" r="20" fill="#F6F8FA"/>
<g clip-path="url(#clip0_9_407898)">
<mask id="mask0_9_407898" style="mask-type:luminance" maskUnits="userSpaceOnUse" x="3" y="15" width="34" height="10">
<path d="M3.00195 15.002H36.9841V24.9803H3.00195V15.002Z" fill="white"/>
</mask>
<g mask="url(#mask0_9_407898)">
<path fill-rule="evenodd" clip-rule="evenodd" d="M36.0591 19.3538C36.0591 19.0929 36.2687 18.8789 36.5206 18.8789C36.777 18.8789 36.9843 19.0929 36.9843 19.3538C36.9843 19.6124 36.777 19.8242 36.5206 19.8242C36.2687 19.8242 36.0591 19.6124 36.0591 19.3538ZM36.9197 19.3538C36.9197 19.1308 36.7413 18.9302 36.5206 18.9302C36.3043 18.9302 36.1237 19.1308 36.1237 19.3538C36.1237 19.5723 36.3066 19.7752 36.5206 19.7752C36.7391 19.7752 36.9197 19.5723 36.9197 19.3538ZM36.3043 19.0929H36.534C36.6165 19.0929 36.6967 19.1308 36.6967 19.2178C36.6967 19.2914 36.6454 19.3426 36.5852 19.3627L36.6633 19.472C36.7034 19.5255 36.748 19.5723 36.7748 19.5879V19.599H36.7012C36.6544 19.599 36.6254 19.5188 36.525 19.3739H36.4492V19.5099C36.4492 19.5745 36.4492 19.5723 36.5184 19.5812V19.599H36.3043V19.5812C36.3712 19.5723 36.3712 19.5745 36.3712 19.5099V19.1843C36.3712 19.1152 36.3712 19.1197 36.3043 19.113V19.0929ZM36.4492 19.3493H36.5161C36.5852 19.3493 36.6209 19.3047 36.6209 19.2223C36.6209 19.1442 36.5696 19.1175 36.5094 19.1175H36.4492V19.3493Z" fill="#100F0D"/>
<path d="M25.0986 15.002L31.1271 15.0042L28.3893 17.742H25.0094L25.8856 16.8681H24.675L25.6604 15.8804H24.209L25.0986 15.002Z" fill="#EF2C30"/>
<path d="M24.2071 15.8828L24.216 18.4958L23.1748 19.5459V16.9151L24.2071 15.8828Z" fill="#EF2C30"/>
<path fill-rule="evenodd" clip-rule="evenodd" d="M11.9021 20.5759C11.9021 20.4243 11.8687 20.373 11.8174 20.3373C11.6993 20.2548 11.4183 20.3039 11.4183 20.1768C11.4183 20.0497 11.8263 20.0074 12.0627 19.8892C12.3012 19.7688 12.3525 19.6172 12.4618 19.6172C12.5309 19.6172 12.5554 19.6774 12.5554 19.7354C12.5554 19.8379 12.513 19.965 12.513 20.1166C12.513 20.1857 12.513 20.2704 12.5643 20.2704C12.6825 20.2704 12.9879 19.9895 13.6322 19.9895C15.1193 19.9895 15.1951 21.2559 15.1951 21.4588C15.1951 22.4353 14.4304 23.1911 13.4472 23.1911C12.843 23.1911 12.658 22.986 12.5888 22.986C12.5309 22.986 12.5041 23.0194 12.5041 23.0707V24.5399C12.5041 24.7094 12.6245 24.7428 13.0392 24.7763C13.1484 24.7852 13.2265 24.7941 13.2265 24.8788C13.2265 24.9725 13.1239 24.9814 12.9366 24.9814C12.7248 24.9814 12.5465 24.9546 12.2254 24.9546C11.9445 24.9546 11.6725 24.9814 11.3938 24.9814C11.3158 24.9814 11.2065 24.9725 11.2065 24.8699C11.2065 24.8097 11.2489 24.7852 11.3247 24.7763C11.6391 24.7428 11.9021 24.725 11.9021 24.3861V20.5759ZM12.4796 22.4018C12.4796 22.7742 13.1328 22.986 13.3959 22.986C14.067 22.986 14.669 22.52 14.669 21.6795C14.669 21.111 14.2521 20.3128 13.1418 20.3128C13.066 20.3128 12.4796 20.3641 12.4796 20.6093V22.4018Z" fill="#100F0D"/>
<path fill-rule="evenodd" clip-rule="evenodd" d="M16.2857 21.1441C16.2679 21.1954 16.2679 21.3069 16.2679 21.4407C16.2679 22.1541 16.4641 22.8586 17.4985 22.8586C18.1518 22.8586 18.1696 22.5197 18.3056 22.5197C18.348 22.5197 18.3814 22.5443 18.3814 22.5866C18.3814 22.6468 18.0247 23.2644 17.1418 23.2644C16.2099 23.2644 15.6748 22.6045 15.6748 21.5432C15.6748 20.7451 16.1675 19.7529 17.2176 19.7529C18.1941 19.7529 18.5263 20.5845 18.5263 20.9502C18.5263 21.1018 18.4996 21.1441 18.3569 21.1441H16.2857ZM17.9645 20.4731C17.9645 20.1855 17.6947 19.9558 17.338 19.9558C16.7271 19.9558 16.3615 20.5511 16.3615 20.8142C16.3615 20.8721 16.3771 20.89 17.0995 20.89C17.8463 20.89 17.9645 20.7785 17.9645 20.4731Z" fill="#100F0D"/>
<path fill-rule="evenodd" clip-rule="evenodd" d="M22.1847 22.756C22.1847 22.9187 22.2182 22.9433 22.3207 22.9433C22.4656 22.9433 22.5593 22.9009 22.6351 22.9009C22.6774 22.9009 22.7109 22.9343 22.7109 22.9856C22.7109 23.1707 21.8035 23.2665 21.7522 23.2665C21.6675 23.2665 21.5984 23.2242 21.5984 23.1551C21.5984 23.0369 21.6496 22.8831 21.5738 22.8831C21.5047 22.8831 21.1904 23.164 20.497 23.164C19.681 23.164 18.8828 22.6467 18.8828 21.6368C18.8828 20.6781 19.7144 19.9736 20.6307 19.9736C21.1658 19.9736 21.4044 20.1675 21.5047 20.1675C21.5894 20.1675 21.6073 20.1006 21.6073 19.9981V18.2078C21.6073 17.8845 21.1056 18.0116 21.1056 17.8087C21.1056 17.6905 21.226 17.666 21.3286 17.666H22.1245C22.1669 17.666 22.2092 17.6995 22.2092 17.7842C22.2092 18.1141 22.1847 18.5221 22.1847 18.8945V22.756ZM20.7088 20.1764C19.9195 20.1764 19.4937 20.8141 19.4937 21.5186C19.4937 22.0604 19.7657 22.8407 20.9384 22.8407C21.1993 22.8407 21.4802 22.7649 21.5738 22.6467C21.6496 22.5531 21.6496 22.2231 21.6496 21.7973C21.6496 20.8899 21.6162 20.1764 20.7088 20.1764Z" fill="#100F0D"/>
<path fill-rule="evenodd" clip-rule="evenodd" d="M29.134 23.2666C28.2132 23.2666 27.4663 22.4796 27.4663 21.5098C27.4663 20.5377 28.2132 19.7529 29.134 19.7529C30.057 19.7529 30.8017 20.5377 30.8017 21.5098C30.8017 22.4796 30.057 23.2666 29.134 23.2666ZM30.1573 21.5098C30.1573 20.6492 29.7003 19.9558 29.134 19.9558C28.5699 19.9558 28.1129 20.6492 28.1129 21.5098C28.1129 22.3681 28.5699 23.0615 29.134 23.0615C29.7003 23.0615 30.1573 22.3681 30.1573 21.5098Z" fill="#100F0D"/>
<path d="M3.83356 18.5229C3.83356 18.3021 3.74884 18.2598 3.43448 18.1929C3.1714 18.1416 3.06215 18.1238 3.06215 18.0212C3.06215 17.9454 3.18031 17.9209 3.3074 17.9209C3.62176 17.9209 4.31736 17.9543 4.52917 17.9543C4.78333 17.9543 5.98058 17.9209 6.70294 17.9209C6.83002 17.9209 6.83002 18.0145 6.83002 18.1929V19.0067C6.83002 19.0401 6.79435 19.0579 6.7609 19.0579C6.65166 19.0579 6.66726 18.9643 6.53126 18.6745C6.40418 18.3779 6.36182 18.2419 4.91933 18.2419C4.61389 18.2419 4.56261 18.3534 4.56261 18.641V20.1103C4.56261 20.2797 4.68969 20.2953 4.98845 20.2953H5.72641C6.3529 20.2953 6.15894 19.5663 6.37074 19.5663C6.48222 19.5663 6.4889 19.6421 6.4889 19.7357C6.4889 19.9319 6.45546 20.0501 6.45546 20.4492C6.45546 20.8059 6.4889 21.0355 6.4889 21.2718C6.4889 21.3477 6.48222 21.4168 6.39749 21.4168C6.27041 21.4168 6.26149 21.2808 6.21913 21.0355C6.1411 20.5918 6.0653 20.5339 5.02189 20.5339C4.62281 20.5339 4.56261 20.5852 4.56261 20.7546V22.4C4.56261 22.7835 4.59605 22.8258 5.58149 22.8258C6.15894 22.8258 6.3529 22.7411 6.53126 22.536C6.93926 22.07 6.8969 21.8493 7.04182 21.8493C7.11763 21.8493 7.12654 21.8917 7.12654 21.934C7.12654 21.9675 7.09979 22.0098 7.0931 22.07L6.93035 22.9351C6.90582 23.0711 6.85454 23.1134 6.73638 23.1134H4.31736C3.37651 23.1134 3.29179 23.1469 3.20484 23.1469C3.13795 23.1469 3.00195 23.1469 3.00195 23.0465C3.00195 22.9195 3.15356 22.9351 3.36759 22.8771C3.58831 22.808 3.83356 22.8503 3.83356 22.4936V18.5229Z" fill="#100F0D"/>
<path d="M7.91581 20.2375C7.83109 20.126 7.75529 20.1104 7.67057 20.0925C7.56801 20.0747 7.50781 20.0591 7.50781 19.9833C7.50781 19.8896 7.62821 19.8896 7.69509 19.8896C7.91581 19.8896 8.12762 19.9075 8.33942 19.9075C8.53562 19.9075 8.7987 19.8896 8.90794 19.8896C8.96814 19.8896 9.09522 19.8986 9.09522 19.9833C9.09522 20.0591 9.00158 20.068 8.91686 20.0925C8.83214 20.1171 8.72958 20.1527 8.72958 20.262C8.72958 20.3556 9.30703 21.127 9.40958 21.127C9.47647 21.127 9.54558 21.0423 9.59686 20.9576L9.87555 20.4738C9.91791 20.4069 9.97811 20.3043 9.97811 20.204C9.97811 20.1171 9.87555 20.1104 9.79083 20.0925C9.67267 20.068 9.60355 20.0591 9.60355 19.9833C9.60355 19.9142 9.63922 19.8896 9.78191 19.8896C9.97811 19.8896 10.1654 19.9075 10.3594 19.9075C10.5288 19.9075 10.7072 19.8896 10.8788 19.8896C10.9792 19.8896 11.1241 19.8986 11.1241 19.99C11.1241 20.0836 11.0215 20.068 10.919 20.0925C10.6737 20.1527 10.4708 20.2196 10.317 20.4158L9.6303 21.2809C9.62139 21.2987 9.59686 21.3321 9.59686 21.3656C9.59686 21.4927 10.2836 22.2997 10.3861 22.4357C10.5712 22.681 10.6559 22.817 10.9546 22.9441C11.0728 22.9954 11.1397 23.0199 11.1397 23.0957C11.1397 23.147 11.0215 23.147 10.9368 23.147C10.8097 23.147 10.5288 23.1135 10.2501 23.1135C10.045 23.1135 9.84211 23.147 9.73063 23.147C9.6905 23.147 9.54558 23.147 9.54558 23.0622C9.54558 23.0043 9.6303 22.9708 9.68158 22.9441C9.80867 22.8861 9.89339 22.8348 9.89339 22.7657C9.89339 22.7234 9.75739 22.5695 9.67266 22.4424L9.28919 21.9007C9.27358 21.8828 9.24683 21.8672 9.23122 21.8672C9.0863 21.8672 8.66939 22.4937 8.66939 22.6899C8.66939 22.7902 8.74742 22.8928 8.88342 22.9441C8.96814 22.9775 9.06178 23.0132 9.06178 23.0712C9.06178 23.147 8.96814 23.147 8.89234 23.147C8.75634 23.147 8.57798 23.1135 8.32381 23.1135C8.06742 23.1135 7.89129 23.147 7.76198 23.147C7.68617 23.147 7.52565 23.1403 7.52565 23.0622C7.52565 22.9954 7.61037 22.9619 7.66165 22.9441C7.84001 22.8861 7.9827 22.817 8.09417 22.7323C8.16998 22.6721 9.01942 21.6889 9.01942 21.6287C9.01942 21.5863 8.98598 21.535 8.9503 21.4927L7.91581 20.2375Z" fill="#100F0D"/>
<path d="M24.2182 22.629C24.2182 22.8832 24.3453 22.8676 24.5594 22.9434C24.6262 22.9679 24.7533 22.9679 24.7533 23.0548C24.7533 23.1462 24.6173 23.1462 24.5415 23.1462C24.3208 23.1462 24.109 23.1128 23.8883 23.1128C23.6497 23.1128 23.4201 23.1462 23.1837 23.1462C23.1146 23.1462 23.021 23.1462 23.021 23.0548C23.021 23.0192 23.0478 22.9679 23.1748 22.9434C23.5159 22.8765 23.6408 22.7984 23.6408 22.4685V20.6514C23.6408 20.3549 23.235 20.4909 23.235 20.3215C23.235 20.21 23.4647 20.2367 23.6854 20.0918C24.1001 19.8198 24.1335 19.7529 24.1937 19.7529C24.2272 19.7529 24.2539 19.7618 24.2539 19.8131C24.2539 19.9558 24.2182 20.1007 24.2182 20.2457V22.629Z" fill="#100F0D"/>
<path d="M26.265 20.279C26.0287 20.279 26.0019 20.3459 26.0019 20.6179C26.0019 21.0772 25.9774 21.7795 25.9774 22.2566C25.9774 22.6044 26.1134 22.8073 26.5637 22.8073C26.9182 22.8073 26.9182 22.7136 27.0899 22.7136C27.1479 22.7136 27.1835 22.7404 27.1835 22.7983C27.1835 22.8831 26.9361 23.1818 26.3185 23.1818C25.6809 23.1818 25.3843 22.9433 25.3843 22.3079C25.3843 21.7215 25.3999 21.1351 25.3999 20.473C25.3999 20.3548 25.3576 20.3303 25.2127 20.3303H25.0276C25.0009 20.3303 24.9585 20.3124 24.9585 20.2612C24.9585 20.1252 25.3665 20.0583 25.5783 19.8197C25.9016 19.4652 25.8325 19.3203 25.9595 19.3203C26.0621 19.3203 26.0621 19.3872 26.0621 19.4808V19.7952C26.0621 19.871 26.0799 19.9067 26.1981 19.9067H27.1144C27.1992 19.9067 27.2683 19.9223 27.2683 20.0917C27.2683 20.2032 27.2593 20.279 27.1233 20.279H26.265Z" fill="#100F0D"/>
<path d="M32.0167 22.5356C32.0167 22.8076 32.117 22.9436 32.7457 22.9436C32.7881 22.9436 32.855 22.9614 32.855 23.0551C32.855 23.1398 32.7547 23.1465 32.661 23.1465C32.4069 23.1465 32.1438 23.1131 31.8896 23.1131C31.6265 23.1131 31.3634 23.1465 31.1004 23.1465C31.0402 23.1465 30.9131 23.1309 30.9131 23.0462C30.9131 23.0038 30.9465 22.9525 30.9733 22.9436C31.2943 22.8678 31.4392 22.8678 31.4392 22.248V20.9326C31.4392 20.3975 31.1071 20.4644 31.1071 20.3128C31.1071 20.237 31.2943 20.1946 31.4482 20.0586C31.6778 19.8535 31.796 19.6172 31.9074 19.6172C31.9743 19.6172 32.0078 19.6595 32.0078 19.7197V19.965C32.0078 20.101 32.0078 20.1857 32.0747 20.1857C32.1772 20.1857 32.4916 19.7532 32.9152 19.7532C33.0935 19.7532 33.4079 19.8201 33.4079 20.1344C33.4079 20.4399 33.1359 20.5157 32.9754 20.5157C32.7792 20.5157 32.5763 20.3217 32.4069 20.3217C32.1259 20.3217 32.0167 20.6026 32.0167 20.8568V22.5356Z" fill="#100F0D"/>
<path d="M33.7334 22.5019C33.7334 22.3414 33.7423 22.2388 33.836 22.2388C33.9028 22.2388 33.9363 22.3837 33.972 22.4596C33.9965 22.5197 34.2261 23.0281 34.7099 23.0281C35.0488 23.0281 35.3899 22.8586 35.3899 22.4596C35.3899 21.7037 33.7847 21.7216 33.7847 20.7272C33.7847 20.2523 34.0723 19.7529 34.837 19.7529C35.7355 19.7529 35.7444 19.8889 35.7444 20.2702C35.7444 20.6024 35.7355 20.6603 35.6686 20.6603C35.4234 20.6603 35.4992 19.9893 34.8281 19.9893C34.507 19.9893 34.2774 20.1855 34.2774 20.5087C34.2774 21.1441 35.9651 21.4005 35.9651 22.2723C35.9651 22.6959 35.6931 23.2666 34.7768 23.2666C34.5316 23.2666 33.7334 23.231 33.7334 22.9255V22.5019Z" fill="#100F0D"/>
</g>
</g>
<circle cx="20" cy="20" r="19.5" stroke="black" stroke-opacity="0.05"/>
<defs>
<clipPath id="clip0_9_407898">
<rect width="34" height="9.9882" fill="white" transform="translate(3 15)"/>
</clipPath>
</defs>
</svg>
