<svg width="40" height="40" viewBox="0 0 40 40" fill="none" xmlns="http://www.w3.org/2000/svg">
<circle cx="20" cy="20" r="20" fill="#FEC501"/>
<path d="M30.7328 14.9975C30.0499 15.0321 29.6239 15.0733 29.4549 15.121C28.0553 15.5092 26.6591 15.9062 25.2663 16.3118C25.2117 16.3274 25.1628 16.3165 25.1194 16.2793L18.2853 10.3747C18.229 10.3261 18.1649 10.311 18.0929 10.3292L17.5794 10.4553C17.511 10.4726 17.498 10.5094 17.5404 10.5658L21.3741 15.6865C21.4715 15.8166 21.5486 15.9603 21.6029 16.1129L21.9825 17.1724C21.9861 17.1821 21.9875 17.1926 21.9868 17.203C21.9861 17.2133 21.9832 17.2235 21.9783 17.2328C21.9734 17.2421 21.9667 17.2503 21.9584 17.2569C21.9502 17.2635 21.9407 17.2683 21.9305 17.2712C19.9493 17.8016 18.0721 18.3554 16.0428 19.0652C13.4602 19.9691 10.8701 20.8696 8.27273 21.7666C8.05532 20.3255 8.10512 18.8563 8.41963 17.4324C8.97723 14.9144 10.3415 12.6468 12.3053 10.974C14.1041 9.44209 16.3201 8.48279 18.6688 8.21928C21.1915 7.93644 23.7385 8.47145 25.9345 9.74548C28.034 10.9632 29.7089 12.7965 30.7328 14.9975Z" fill="#0D345E"/>
<path d="M30.7328 14.998C30.8973 15.352 31.0445 15.7152 31.1735 16.0848C30.5807 16.4505 30.1396 16.675 29.8501 16.7582C28.4782 17.1508 27.1054 17.5412 25.7317 17.9295C25.7029 17.9379 25.6766 17.9534 25.6553 17.9745C25.634 17.9956 25.6182 18.0217 25.6095 18.0504L22.9484 26.6044C22.912 26.7214 22.8357 26.7981 22.7196 26.8345L22.2841 26.9684C22.2165 26.9892 22.1857 26.9645 22.1918 26.8943C22.3565 24.9157 22.5315 22.8977 22.717 20.8402C22.7781 20.159 22.6208 19.5558 22.4362 18.9292C22.4258 18.8945 22.4033 18.8824 22.3686 18.8928C20.5889 19.4076 18.8703 19.9133 17.0217 20.3462C14.1444 21.0205 11.2644 21.6973 8.38191 22.3768C8.34036 22.1743 8.30387 21.9705 8.27271 21.7671C10.8701 20.8701 13.4601 19.9696 16.0428 19.0657C18.0721 18.3559 19.9493 17.8021 21.9305 17.2717C21.9407 17.2689 21.9502 17.264 21.9584 17.2574C21.9666 17.2508 21.9734 17.2426 21.9783 17.2333C21.9832 17.224 21.9861 17.2139 21.9868 17.2035C21.9875 17.1931 21.9861 17.1827 21.9825 17.1729L21.6029 16.1134C21.5486 15.9609 21.4715 15.8171 21.3741 15.687L17.5404 10.5663C17.4979 10.51 17.5109 10.4731 17.5794 10.4558L18.0929 10.3297C18.1648 10.3115 18.229 10.3267 18.2853 10.3752L25.1194 16.2798C25.1627 16.3171 25.2117 16.3279 25.2663 16.3123C26.659 15.9067 28.0552 15.5098 29.4549 15.1215C29.6239 15.0738 30.0499 15.0327 30.7328 14.998Z" fill="white"/>
<path d="M31.1734 16.084C31.7074 17.6099 31.9233 19.2292 31.8077 20.8421C31.6921 22.455 31.2475 24.0273 30.5013 25.4622C29.3955 27.5875 27.6714 29.328 25.5561 30.4542C23.3371 31.6351 20.7994 32.0795 18.3099 31.723C15.692 31.349 13.2742 30.1088 11.442 28.2C9.89215 26.5864 8.83112 24.5671 8.38184 22.376C11.2644 21.6965 14.1443 21.0197 17.0216 20.3454C18.8702 19.9125 20.5888 19.4068 22.3685 18.892C22.4032 18.8816 22.4257 18.8937 22.4361 18.9284C22.6207 19.555 22.778 20.1582 22.7169 20.8394C22.5315 22.8969 22.3564 24.9149 22.1917 26.8935C22.1857 26.9637 22.2164 26.9884 22.284 26.9676L22.7195 26.8337C22.8357 26.7973 22.9119 26.7206 22.9483 26.6036L25.6094 18.0496C25.6182 18.0209 25.6339 17.9948 25.6552 17.9737C25.6766 17.9526 25.7028 17.9371 25.7316 17.9287C27.1053 17.5404 28.4781 17.15 29.85 16.7574C30.1395 16.6742 30.5806 16.4497 31.1734 16.084Z" fill="#0D345E"/>
<circle cx="20" cy="20" r="19.5" stroke="black" stroke-opacity="0.05"/>
</svg>
