<svg width="40" height="40" viewBox="0 0 40 40" fill="none" xmlns="http://www.w3.org/2000/svg">
<circle cx="20" cy="20" r="20" fill="#FFE701"/>
<g clip-path="url(#clip0_9_399912)">
<path d="M35.4131 16.5381C34.9246 16.5381 34.5295 16.9252 34.5295 17.4037C34.5295 17.8823 34.9246 18.2715 35.4131 18.2715C35.9015 18.2715 36.2988 17.8823 36.2988 17.4037C36.2988 16.9252 35.9015 16.5381 35.4131 16.5381ZM35.4174 16.7108C35.8078 16.7108 36.1247 17.0213 36.1247 17.4037C36.1247 17.7862 35.8078 18.0946 35.4174 18.0946C35.027 18.0946 34.7123 17.7862 34.7123 17.4037C34.7123 17.0213 35.027 16.7108 35.4174 16.7108Z" fill="black"/>
<path fill-rule="evenodd" clip-rule="evenodd" d="M8.57417 16.5675C8.5545 16.5678 8.53384 16.5701 8.51324 16.5718C8.51032 16.5717 8.50744 16.5718 8.50453 16.5718C8.49578 16.5716 8.48724 16.5718 8.47842 16.5718C8.43279 16.5715 8.38752 16.5718 8.34132 16.5739C8.19656 16.5805 8.06123 16.599 7.93655 16.6272C7.9336 16.6279 7.9308 16.6287 7.92784 16.6293C7.60175 16.6834 7.3184 16.7817 7.09872 16.9065C6.88826 17.0018 6.70522 17.1129 6.55467 17.2327C6.55261 17.2344 6.5502 17.2354 6.54814 17.237C5.93948 17.6764 5.47888 18.3276 5.25766 19.092C5.25641 19.0963 5.25454 19.1005 5.25332 19.1048C5.14101 19.4667 5.07922 19.8554 5.07922 20.2625C5.07922 21.3777 5.53909 22.3674 6.25001 22.9896C6.34541 23.0852 6.45827 23.1801 6.58732 23.2689C6.7424 23.3757 6.90084 23.4589 7.04867 23.5184C7.05395 23.5205 7.05866 23.5227 7.0639 23.5248C7.42838 23.6981 7.97096 23.8084 8.57635 23.8084C8.6758 23.8084 8.77264 23.8037 8.86796 23.7977C8.86865 23.7977 8.86941 23.7977 8.87013 23.7977C8.95818 23.8026 9.05412 23.8019 9.15303 23.7913C9.18352 23.7881 9.21299 23.7831 9.24226 23.7785C10.6437 23.6905 11.7821 22.6759 12.0104 21.3628C12.0106 21.3621 12.0102 21.3613 12.0104 21.3606C12.0175 21.3389 12.0233 21.3152 12.0299 21.2924H10.1323C9.98826 21.7187 9.57046 22.0471 9.04858 22.1346C9.04702 22.1349 9.04581 22.1364 9.04423 22.1367C9.03873 22.1377 9.03234 22.138 9.02682 22.1389C8.93464 22.1568 8.81446 22.1687 8.68081 22.1687C8.48862 22.1687 8.32053 22.1468 8.23034 22.1133C7.81875 22.0055 7.49345 21.6976 7.37075 21.3073C7.3686 21.3014 7.36629 21.2945 7.36422 21.2881C7.35957 21.2724 7.35514 21.2572 7.35117 21.2412C7.34408 21.2144 7.33757 21.1855 7.33158 21.1538C7.31246 21.0527 7.29929 20.9285 7.29459 20.7913V20.7849V20.7807H7.3207H7.38163H7.42298H7.45562H12.1257C12.1355 20.6778 12.1409 20.571 12.1409 20.4608C12.1409 20.3563 12.1345 20.2556 12.1257 20.1581C12.1254 20.1553 12.126 20.1523 12.1257 20.1496C12.1169 19.9122 12.0897 19.6961 12.0474 19.5184C11.9503 18.8519 11.7297 18.2869 11.4337 17.9236C11.4321 17.9216 11.431 17.9191 11.4293 17.9172C10.8498 17.1056 9.86812 16.5718 8.75481 16.5718C8.73144 16.5718 8.70838 16.5731 8.68517 16.5739C8.65049 16.5689 8.61351 16.5669 8.57417 16.5675ZM8.66339 18.2391C8.83852 18.2391 8.99033 18.2624 9.07252 18.2967C9.52408 18.4294 9.86379 18.8554 9.90164 19.3713H8.68733H8.67863H7.29457C7.34021 18.8233 7.76927 18.3783 8.32826 18.2733C8.32968 18.273 8.33117 18.2715 8.33261 18.2711C8.33762 18.2702 8.34281 18.2699 8.34784 18.269C8.43184 18.2507 8.54161 18.2391 8.66339 18.2391Z" fill="black"/>
<path d="M11.5229 16.7276L12.7002 18.3821V18.3757L13.8253 20.0111L12.4739 21.977V21.9791L12.0103 22.6529L11.3248 23.6507H13.8013L15.1114 21.7296L16.3866 23.5996L16.4084 23.6315H17.7163H18.0405H18.9219L17.7163 21.9279V21.9322L16.3605 19.9599L17.5074 18.3651V18.3821L18.0144 17.6593L18.6694 16.7275H16.1755L15.1266 18.2798L14.0538 16.7275L11.5229 16.7276ZM14.0211 16.7382L13.9145 16.8171L13.9123 16.8128L14.0211 16.7382Z" fill="black"/>
<path d="M19.0764 16.7275L19.4747 23.6294H19.4942H19.5312H21.1938H21.5159H21.5355L21.9337 16.7275H21.5159H21.1938H19.5312H19.4942H19.0764Z" fill="black"/>
<path d="M21.8323 25.2699C21.8323 25.6157 21.6921 25.9474 21.4425 26.192C21.1929 26.4365 20.8544 26.5739 20.5014 26.5739C20.1484 26.5739 19.8098 26.4365 19.5602 26.192C19.3106 25.9474 19.1704 25.6157 19.1704 25.2699C19.1704 24.924 19.3106 24.5923 19.5602 24.3478C19.8098 24.1032 20.1484 23.9658 20.5014 23.9658C20.8544 23.9658 21.1929 24.1032 21.4425 24.3478C21.6921 24.5923 21.8323 24.924 21.8323 25.2699Z" fill="#EC1B23"/>
<path d="M23.4701 14.7598V16.7214H22.3494V18.2651H23.4701V21.5337V21.5401V22.0561V22.0667V22.1009V22.103C23.4642 22.1479 23.4614 22.2028 23.4636 22.2629C23.4667 22.3503 23.4802 22.4249 23.4962 22.4676C23.4966 22.4687 23.498 22.4687 23.4984 22.4697C23.5697 22.9208 23.9098 23.3027 24.3841 23.5123C24.408 23.5229 24.4314 23.5347 24.4559 23.5443C24.4761 23.5523 24.4962 23.5605 24.5168 23.5678C24.5256 23.5708 24.5339 23.5734 24.543 23.5763C24.7014 23.63 24.8716 23.6652 25.05 23.6787C25.0515 23.6789 25.0529 23.6784 25.0544 23.6787C25.2359 23.7008 25.4381 23.7128 25.6506 23.7128C25.8134 23.7128 25.9686 23.7067 26.1142 23.6936C26.2194 23.6939 26.3307 23.6896 26.4471 23.6808C26.6567 23.665 26.8442 23.6361 26.9933 23.5998V23.1925C26.9916 23.1913 26.9907 23.1895 26.989 23.1883V22.7362V21.8493H26.915C26.8961 21.8609 26.876 21.8699 26.8541 21.877V21.8812C26.595 21.9657 26.2364 21.9787 25.8378 21.9004C25.8364 21.9002 25.8348 21.9007 25.8334 21.9004C25.7387 21.9004 25.6615 21.8222 25.6615 21.7256C25.6615 21.7112 25.6626 21.6984 25.6659 21.6851V21.5401V20.9473V18.2651H26.9977V16.7214H25.6659V14.7598L23.4701 14.7598Z" fill="black"/>
<path d="M30.9018 16.5273C29.8809 16.5273 28.9651 16.8848 28.3383 17.4506C28.3126 17.4738 28.2868 17.4971 28.2621 17.5209C28.1974 17.5824 28.1347 17.6467 28.075 17.7171C28.0731 17.7193 28.0703 17.7212 28.0685 17.7235C28.0601 17.7333 28.0527 17.7435 28.0445 17.7533C28.0271 17.7747 28.0093 17.7974 27.9923 17.8194C27.9869 17.8264 27.9824 17.8338 27.9771 17.8408C27.9561 17.8685 27.9363 17.8951 27.9161 17.9239C27.9088 17.9344 27.9015 17.9454 27.8944 17.9559C27.8685 17.9939 27.8427 18.0334 27.8182 18.0732C27.4706 18.6369 27.2589 19.3757 27.2589 20.1862C27.2589 20.9964 27.4707 21.7354 27.8182 22.2991C27.8426 22.3388 27.8686 22.3786 27.8944 22.4164C27.9213 22.4561 27.9487 22.4939 27.9771 22.5316C28.0034 22.5665 28.03 22.6008 28.0576 22.6339C28.0612 22.6382 28.0648 22.6424 28.0685 22.6467C28.0707 22.6494 28.0727 22.6525 28.075 22.6552C28.1579 22.753 28.246 22.8437 28.3383 22.9239C28.341 22.9262 28.3442 22.9279 28.347 22.9303C28.9736 23.4913 29.8858 23.845 30.9018 23.845C31.9178 23.845 32.8301 23.4913 33.4567 22.9303C33.4593 22.9279 33.4627 22.9263 33.4654 22.9239C33.5577 22.8437 33.6458 22.753 33.7287 22.6552C33.731 22.6525 33.7329 22.6494 33.7352 22.6467C33.7365 22.6452 33.7383 22.644 33.7396 22.6424C33.7419 22.6397 33.7438 22.6367 33.7461 22.6339C33.7736 22.6008 33.8002 22.5665 33.8266 22.5316C33.855 22.4939 33.8823 22.4561 33.9093 22.4164C33.935 22.3786 33.9611 22.3388 33.9855 22.2992C34.3329 21.7354 34.5448 20.9964 34.5448 20.1862C34.5448 19.3757 34.3331 18.637 33.9855 18.0732C33.9609 18.0334 33.9352 17.9939 33.9093 17.9559C33.8623 17.8869 33.8131 17.8186 33.7592 17.7534C33.7528 17.7456 33.746 17.7375 33.7396 17.7299C33.736 17.7256 33.7323 17.7213 33.7287 17.7171C33.669 17.6467 33.6062 17.5824 33.5415 17.521C33.5299 17.5097 33.5186 17.4979 33.5067 17.4868C33.4932 17.4745 33.4791 17.4625 33.4654 17.4506C32.8386 16.8848 31.9228 16.5273 30.9018 16.5273ZM30.8931 18.2352C31.3482 18.2352 31.7516 18.4523 32.0095 18.7875C32.0276 18.8089 32.0446 18.8329 32.0617 18.8578C32.0863 18.8937 32.1112 18.9303 32.1336 18.973C32.1453 18.9945 32.1534 19.0169 32.164 19.039C32.1697 19.0513 32.176 19.0627 32.1814 19.0753C32.1975 19.1115 32.2119 19.1485 32.2249 19.1862C32.2365 19.2195 32.2486 19.2541 32.2576 19.2885C32.2581 19.2906 32.2592 19.2928 32.2598 19.2949C32.3354 19.5482 32.3795 19.8551 32.3795 20.1862C32.3795 20.5353 32.33 20.8571 32.2467 21.1179C32.2445 21.1256 32.2425 21.1338 32.2402 21.1414C32.2383 21.1471 32.2356 21.1528 32.2336 21.1584C32.2212 21.1966 32.2078 21.2348 32.1923 21.2714C32.191 21.2743 32.1891 21.2771 32.188 21.28C32.1855 21.2856 32.1839 21.2914 32.1814 21.297C32.1266 21.4239 32.063 21.5285 31.9921 21.6062C31.9886 21.6105 31.9848 21.6147 31.9812 21.619C31.9764 21.624 31.9709 21.6291 31.966 21.6339C31.7073 21.9382 31.3234 22.1328 30.8931 22.1328C30.4363 22.1328 30.0323 21.9136 29.7746 21.5763C29.7583 21.5566 29.7421 21.535 29.7267 21.5124C29.7261 21.5115 29.7251 21.511 29.7245 21.5102C29.7042 21.4803 29.6845 21.4489 29.6658 21.4143C29.6629 21.4093 29.6598 21.4044 29.6571 21.3994C29.6559 21.3972 29.6538 21.3952 29.6527 21.393C29.5903 21.278 29.5442 21.1534 29.5156 21.022C29.5141 21.0164 29.5127 21.0105 29.5113 21.0049C29.448 20.7662 29.4112 20.4867 29.4112 20.1862C29.4112 19.8856 29.448 19.6061 29.5113 19.3674C29.5115 19.366 29.511 19.3645 29.5113 19.3631C29.5468 19.1894 29.6163 19.0275 29.7093 18.8834C29.7269 18.8562 29.7465 18.8304 29.7659 18.8045C30.0231 18.4602 30.4308 18.2352 30.8931 18.2352Z" fill="black"/>
<path d="M8.97679 14.7598L7.85388 16.1563H9.24882L11.1138 14.7598H8.97679Z" fill="black"/>
<path d="M35.1867 16.9385V16.9406H35.054V17.8617H35.2672V17.4609H35.3891L35.5893 17.8617H35.8243L35.6198 17.4523C35.6355 17.4479 35.6515 17.4413 35.6676 17.431C35.7046 17.4076 35.7327 17.3721 35.7503 17.3351C35.7506 17.3341 35.7521 17.3338 35.7525 17.3329C35.782 17.2929 35.7955 17.2289 35.7873 17.1602C35.7776 17.0778 35.7382 17.012 35.6894 16.9875C35.6805 16.9803 35.6713 16.9752 35.6611 16.9705C35.6581 16.9687 35.6554 16.9678 35.6524 16.9662C35.6489 16.9648 35.6451 16.963 35.6415 16.9619C35.6167 16.9497 35.5925 16.9426 35.5719 16.9406C35.5717 16.9406 35.572 16.9385 35.5719 16.9385H35.5654L35.1867 16.9385ZM35.2672 17.1304H35.5153C35.5159 17.1312 35.5168 17.1317 35.5175 17.1325C35.5458 17.14 35.5675 17.178 35.5675 17.2242C35.5675 17.2694 35.5472 17.3071 35.5197 17.3159H35.5001H35.2672V17.1304Z" fill="black"/>
</g>
<circle cx="20" cy="20" r="19.5" stroke="black" stroke-opacity="0.05"/>
<defs>
<clipPath id="clip0_9_399912">
<rect width="32" height="13" fill="white" transform="translate(5 14)"/>
</clipPath>
</defs>
</svg>
