<svg width="40" height="40" viewBox="0 0 40 40" fill="none" xmlns="http://www.w3.org/2000/svg">
<circle cx="20" cy="20" r="20" fill="#002660"/>
<g clip-path="url(#clip0_9_412007)">
<path d="M4.57153 19.9932C4.57153 23.1894 11.4842 25.7853 20.0001 25.7853C28.527 25.7853 35.4287 23.1888 35.4287 19.9932C35.4396 16.7982 28.5372 14.2139 20.011 14.2139C11.4842 14.2139 4.57153 16.7982 4.57153 19.9932ZM5.11668 19.9932C5.11668 17.0682 11.7786 14.7069 20.011 14.7069C28.2325 14.7069 34.9054 17.0688 34.9054 19.9938C34.9054 22.9188 28.2435 25.28 20.011 25.28C11.7895 25.28 5.11668 22.9182 5.11668 19.9932Z" fill="white"/>
<path d="M15.3225 15.6835C15.5513 15.659 15.7802 15.6475 16.009 15.6475C17.0215 15.6475 18.0103 15.8326 19.0131 16.021C19.5223 16.1167 20.0353 16.2132 20.556 16.2858C21.9079 16.4665 23.2058 16.4787 24.5578 16.129C24.721 16.093 24.8303 16.2016 24.8194 16.3822C24.8085 16.6355 24.6227 16.8882 24.1759 17.1537C23.6745 17.4667 23.1403 17.5632 22.5842 17.5632C21.6617 17.5715 20.7861 17.3009 19.9067 17.029C19.5081 16.9049 19.1076 16.7815 18.7026 16.6837V16.7197C18.7045 16.7795 18.7058 16.8342 18.6698 16.8644C17.9498 17.4552 17.307 18.0453 16.8705 18.8765C16.8595 18.901 16.8705 18.9132 16.8923 18.9132C17.0389 18.9042 17.1797 18.8984 17.3166 18.8926C17.5352 18.8836 17.746 18.8752 17.9608 18.8527C18.0154 18.8527 18.0154 18.829 18.0154 18.7807C17.9833 18.4915 18.0591 18.1662 18.288 17.9367C18.5168 17.6956 18.8113 17.6718 19.008 17.8402C19.2259 18.0215 19.204 18.3706 19.0838 18.6239C19.0321 18.733 18.9592 18.8308 18.8694 18.9114C18.7796 18.9921 18.6746 19.0541 18.5605 19.0938C18.5605 19.0938 18.5168 19.106 18.5284 19.142C18.5342 19.1761 18.619 19.2404 18.6968 19.2982C18.7573 19.3439 18.8125 19.3863 18.8222 19.4075C18.844 19.4557 18.8331 19.5155 18.79 19.5637C18.7566 19.5997 18.7129 19.6364 18.6589 19.6364C18.6152 19.6364 18.5818 19.6242 18.5278 19.5882C18.3857 19.503 18.2602 19.3928 18.1575 19.2629C18.1247 19.2147 18.1138 19.2147 18.0263 19.2147C17.6445 19.2385 17.0556 19.2982 16.6525 19.3593C16.558 19.3709 16.5445 19.3934 16.524 19.4275L16.5214 19.4313C15.8895 20.6007 15.2023 21.8536 14.4501 22.697C13.6536 23.6015 12.978 23.8304 12.2689 23.8426C11.3753 23.8426 10.5898 23.2396 10.503 22.1789C10.4593 21.6003 10.6123 21.0822 10.906 20.6489C11.1786 20.2632 11.626 19.9372 12.0073 19.8652C12.1275 19.8408 12.3017 19.853 12.3673 19.9495C12.4765 20.0819 12.4438 20.2387 12.3351 20.2992C12.04 20.4676 11.691 20.7453 11.5168 21.1304C11.3753 21.4441 11.3425 21.8176 11.5605 22.1789C11.9205 22.7819 12.9233 22.7935 13.8503 21.842C14.0795 21.6146 14.2942 21.3731 14.4932 21.1188C14.9078 20.6007 15.039 20.4078 15.5841 19.576V19.5522C15.5732 19.5393 15.5623 19.5393 15.5513 19.5393C15.1804 19.5522 14.8641 19.6724 14.5588 19.925C14.472 19.9977 14.3408 19.9861 14.2862 19.889C14.2322 19.781 14.2753 19.6364 14.3736 19.5637C14.8159 19.223 15.2845 19.1369 15.7705 19.0462L15.9653 19.0096C15.9653 19.0096 15.9981 19.0096 16.0309 18.9614C16.128 18.8232 16.2154 18.6914 16.3022 18.5615C16.4198 18.3841 16.5362 18.2086 16.6744 18.0215C16.9123 17.6975 17.2273 17.398 17.4664 17.1697L17.4703 17.1659C17.7563 16.9004 17.9569 16.7815 18.144 16.6709C18.178 16.6516 18.2108 16.6317 18.2443 16.6111C18.3098 16.5751 18.2443 16.5391 18.2224 16.5391L17.9653 16.4851C16.8229 16.244 15.6407 15.9952 14.515 16.4542C13.6755 16.804 13.3052 17.5394 13.48 18.0331C13.5996 18.3828 14.0136 18.4317 14.4058 18.226C14.7495 18.0308 15.0356 17.7483 15.235 17.407C15.3443 17.2012 15.595 17.3465 15.4639 17.6962C15.1039 18.6239 14.4283 19.3471 13.5996 19.3831C12.9015 19.4075 12.4438 18.8412 12.4438 18.1295C12.4547 16.732 13.8503 15.8159 15.3225 15.6835ZM18.5278 18.1295C18.4576 18.1947 18.4041 18.2758 18.3719 18.366C18.3397 18.4562 18.3296 18.5528 18.3426 18.6477C18.3535 18.7081 18.3748 18.7203 18.3863 18.7081H18.3973C18.5168 18.6843 18.6589 18.5757 18.7348 18.4432C18.8003 18.3346 18.844 18.1662 18.7675 18.0935C18.7135 18.0331 18.6043 18.0575 18.5278 18.1295Z" fill="white"/>
<path d="M28.6163 18.1369C28.6491 18.0764 28.671 18.0713 28.7365 18.0713H29.5652C29.6089 18.0713 29.6307 18.1124 29.6089 18.1484C29.5703 18.2256 29.3048 18.7231 28.9467 19.3364C28.1882 20.6324 27.049 22.5803 26.9455 22.8664C26.9018 22.9988 26.9018 23.0952 26.9455 23.1679C27.0657 23.3479 27.3492 23.2399 27.5241 23.1074C27.895 22.8246 28.1792 22.5057 28.4562 22.1939C28.57 22.0666 28.6825 21.94 28.7989 21.8179C28.8207 21.8056 28.8645 21.7941 28.8863 21.8179L28.9287 21.8564C28.9866 21.9079 29.0502 21.9657 29.0933 22.0229C29.1152 22.0589 29.1042 22.0827 29.0933 22.1065C28.7012 22.6375 28.2756 23.1312 27.8616 23.4809C27.229 24.0357 26.5855 24.1681 26.2692 23.8184C26.162 23.6791 26.0977 23.5116 26.0841 23.3363C26.0841 23.2521 26.0404 23.2521 26.0082 23.2881C25.6264 23.6982 24.972 24.1559 24.3722 23.8306C23.8707 23.5651 23.7505 22.9024 23.8489 22.3482C23.8598 22.336 23.8489 22.2518 23.7833 22.3C23.674 22.3842 23.5435 22.4684 23.3693 22.5411C23.1623 22.6375 23.064 22.6613 22.8679 22.6613C22.6281 22.6497 22.4095 22.5411 22.2572 22.2756C22.1697 22.1309 22.137 21.9143 22.126 21.7574C22.126 21.7336 22.1042 21.7092 22.083 21.7452C21.6835 22.4266 21.2871 23.1098 20.8937 23.7946C20.8834 23.8306 20.8615 23.8544 20.8178 23.8544H20.022C19.9782 23.8544 19.9564 23.8062 19.9782 23.758C20.0316 23.6449 20.1743 23.3967 20.3595 23.0746C20.6667 22.5411 21.091 21.8044 21.4176 21.1429C21.559 20.8536 21.5269 20.6967 21.4395 20.6369C21.3302 20.5643 21.1013 20.6851 20.9162 20.842C20.4816 21.2097 20.1017 21.751 19.8632 22.0904C19.8207 22.1515 19.7822 22.2061 19.7494 22.2511C19.7044 22.3157 19.6615 22.3817 19.6208 22.4491C19.5199 22.6099 19.3907 22.8156 19.1605 23.0952C18.6263 23.7342 17.9172 24.0955 17.2416 23.8429C16.8707 23.6982 16.5981 23.3723 16.4997 22.9628C16.4779 22.8901 16.4348 22.8664 16.402 22.9146C16.2927 23.0714 16.0639 23.2881 15.8787 23.4327L15.8723 23.4366C15.8466 23.4507 15.7984 23.479 15.7585 23.4571C15.7148 23.4327 15.5843 23.2161 15.5515 23.155C15.5297 23.1074 15.5515 23.0592 15.5734 23.0348C15.846 22.7821 15.9874 22.6375 16.107 22.4691C16.1944 22.3482 16.26 22.2158 16.3365 21.9985C16.4997 21.5408 16.8707 20.6851 17.6119 20.2512C17.9063 20.0821 18.1905 19.9619 18.5061 19.9259C18.6475 19.9137 18.7568 19.9259 18.8005 20.0461C18.8057 20.0693 18.8179 20.1046 18.832 20.1458C18.8475 20.1908 18.8655 20.2422 18.877 20.2872C18.8989 20.3354 18.888 20.3714 18.8333 20.3959C18.3975 20.5765 17.961 20.8658 17.6556 21.3119C17.3065 21.8301 17.2197 22.4446 17.4486 22.7937C17.6119 23.047 17.8845 23.0959 18.1461 22.9994C18.5389 22.8541 18.877 22.4569 19.0512 21.9985C19.237 21.5048 19.2698 20.9262 19.1277 20.4081C19.1059 20.3232 19.1277 20.2512 19.1824 20.2024C19.2801 20.1169 19.4035 20.0494 19.4601 20.0191L19.4768 20.0101C19.5636 19.9619 19.6729 19.9979 19.7275 20.0821C19.869 20.3232 19.9461 20.6485 19.9564 20.9982C19.9564 21.0709 19.9885 21.0709 20.022 21.0342C20.0978 20.9474 20.1717 20.8581 20.245 20.7694C20.425 20.5521 20.6025 20.3386 20.796 20.167C21.0467 19.9375 21.363 19.7569 21.6683 19.7691C22.0502 19.7813 22.2462 20.0706 22.2353 20.5887C22.2244 20.6485 22.2675 20.6485 22.3009 20.6009C22.4205 20.4196 22.497 20.3232 22.6275 20.2024C22.8897 19.9497 23.1732 19.8411 23.4567 19.8655C23.8052 19.9015 24.0887 20.2512 24.034 20.6607C24.0019 20.9262 23.8707 21.1551 23.6528 21.2753C23.5644 21.3236 23.463 21.3427 23.3631 21.3298C23.2632 21.3168 23.1699 21.2726 23.0967 21.2033C22.9765 21.0824 22.9328 20.9018 22.9656 20.7211C22.9656 20.6729 22.9219 20.6485 22.8897 20.6851C22.5516 21.0824 22.5188 21.6012 22.7483 21.8294C22.999 22.0949 23.3693 21.9143 23.6419 21.7214C23.9209 21.5157 24.1684 21.2676 24.412 21.0226C24.5965 20.8369 24.7791 20.653 24.972 20.4923C25.2664 20.239 25.6045 20.0224 25.9864 19.9619C26.1934 19.9381 26.4004 19.9497 26.6074 20.0461C26.88 20.167 27.0548 20.4196 27.0767 20.6369C27.0876 20.6967 27.1307 20.7089 27.1635 20.6485C27.256 20.4814 27.5382 20.0089 27.8307 19.5184C28.1037 19.0641 28.3657 18.6039 28.6163 18.1369ZM24.7759 22.6369C24.7759 22.7821 24.8305 22.975 24.9501 23.047C25.0087 23.0848 25.0765 23.1057 25.1462 23.1074C25.3757 23.1074 25.6155 22.9268 25.8006 22.7577C25.9627 22.6147 26.1024 22.4483 26.2152 22.264L26.2487 22.2113C26.3631 22.0332 26.4525 21.8931 26.5425 21.6732C26.5534 21.6372 26.5425 21.625 26.5315 21.625C26.4987 21.6128 26.4544 21.589 26.4544 21.553C26.4441 21.5401 26.4441 21.5164 26.4544 21.4926C26.5855 21.1911 26.6839 20.8176 26.3901 20.6607C26.106 20.5161 25.6701 20.7938 25.278 21.3235C24.961 21.7574 24.7868 22.2029 24.7759 22.6369Z" fill="white"/>
</g>
<circle cx="20" cy="20" r="19.5" stroke="black" stroke-opacity="0.05"/>
<defs>
<clipPath id="clip0_9_412007">
<rect width="32" height="12" fill="white" transform="translate(4 14)"/>
</clipPath>
</defs>
</svg>
