<svg width="40" height="40" viewBox="0 0 40 40" fill="none" xmlns="http://www.w3.org/2000/svg">
<circle cx="20" cy="20" r="20" fill="#F6F8FA"/>
<g clip-path="url(#clip0_9_395933)">
<path d="M18.9068 20.4307C18.9655 20.3155 19.0671 20.2278 19.1896 20.1864C19.3096 20.1398 19.4426 20.1398 19.5625 20.1864C19.6782 20.2379 19.7746 20.3343 19.8261 20.4436C19.8775 20.5593 19.8839 20.6943 19.8389 20.81C19.4404 21.7229 19.3568 22.7386 19.6011 23.7029C19.8523 24.6691 20.4121 25.5268 21.1954 26.1457C21.2483 26.1857 21.2926 26.2359 21.3257 26.2933C21.3588 26.3507 21.3801 26.4142 21.3882 26.48C21.3963 26.5453 21.3908 26.6116 21.372 26.6747C21.3532 26.7378 21.3215 26.7963 21.2789 26.8464C21.2361 26.8982 21.1833 26.9408 21.1236 26.9717C21.064 27.0026 20.9988 27.0212 20.9318 27.0264C20.7962 27.0366 20.6622 26.9927 20.5589 26.9043C19.6092 26.1512 18.932 25.1082 18.6304 23.9343C18.3338 22.7695 18.4333 21.5391 18.9132 20.4372L18.9068 20.4307ZM26.2225 27.8172C26.0974 27.8573 25.9617 27.8481 25.8432 27.7914C25.7256 27.7384 25.6333 27.6415 25.5861 27.5214C25.5639 27.4626 25.5536 27.3998 25.5558 27.3369C25.558 27.274 25.5727 27.2122 25.5989 27.155C25.652 27.0374 25.7489 26.9451 25.8689 26.8979C26.442 26.6917 26.9701 26.3775 27.4246 25.9722C27.5233 25.8841 27.6525 25.8379 27.7846 25.8436C27.9158 25.8488 28.04 25.904 28.1318 25.9979C28.1758 26.0452 28.2099 26.1009 28.232 26.1616C28.2541 26.2223 28.2637 26.2869 28.2604 26.3514C28.2581 26.4146 28.2434 26.4767 28.2169 26.5341C28.1904 26.5915 28.1527 26.6431 28.1061 26.6857C27.5552 27.18 26.9132 27.5621 26.2161 27.8107L26.2225 27.8172ZM30.8575 20.3536C30.8492 20.4168 30.8285 20.4778 30.7965 20.533C30.7645 20.5882 30.7219 20.6364 30.6711 20.675C30.566 20.7558 30.4338 20.7928 30.302 20.7784C30.1703 20.7641 30.0492 20.6994 29.9639 20.5979C29.9233 20.5479 29.8933 20.4903 29.8756 20.4284C29.8579 20.3665 29.853 20.3017 29.8611 20.2379L29.8996 19.955L29.9254 19.6786C29.9446 19.55 30.0089 19.4407 30.1118 19.3572C30.2144 19.2787 30.3428 19.2418 30.4715 19.2537C30.6001 19.2656 30.7196 19.3255 30.8061 19.4214C30.8896 19.5114 30.9346 19.64 30.9282 19.7622C30.9078 19.9616 30.8864 20.1608 30.8639 20.36V20.3536H30.8575ZM22.7575 14.8122C22.7291 14.7558 22.7123 14.6944 22.7079 14.6315C22.7034 14.5686 22.7116 14.5055 22.7318 14.4457C22.7768 14.33 22.8604 14.2272 22.9761 14.1693C23.0911 14.11 23.2242 14.0962 23.3489 14.1307C23.4775 14.1629 23.5804 14.2464 23.6511 14.3557L23.7475 14.5422L23.8439 14.7286C23.8889 14.8443 23.8954 14.9729 23.8439 15.0886C23.7967 15.2087 23.7044 15.3055 23.5868 15.3586C23.4712 15.4099 23.3407 15.4167 23.2204 15.3779C23.0979 15.3405 22.9944 15.2577 22.9311 15.1464L22.8539 14.9793L22.7575 14.8122ZM23.5418 16.9207C23.5161 16.7922 23.5418 16.6636 23.6189 16.5607C23.6896 16.4514 23.8118 16.3743 23.9404 16.355C24.0683 16.3283 24.2016 16.3513 24.3132 16.4193C24.4225 16.4964 24.5061 16.6122 24.5254 16.7407C24.9176 18.6487 24.6311 20.6337 23.7154 22.3529C23.6649 22.4452 23.6441 22.5509 23.6556 22.6555C23.6671 22.7601 23.7104 22.8587 23.7796 22.9379C23.8568 23.015 23.9468 23.0729 24.0496 23.105C24.1364 23.1296 24.2277 23.133 24.316 23.1152C24.4044 23.0973 24.4872 23.0585 24.5575 23.0022C24.6106 22.9577 24.6543 22.903 24.6861 22.8414C25.0313 22.1938 25.2989 21.5076 25.4832 20.7972C25.5282 20.6814 25.6118 20.585 25.7211 20.5272C25.8314 20.4704 25.9585 20.4553 26.079 20.4849C26.1995 20.5144 26.3053 20.5865 26.3768 20.6879C26.4475 20.7907 26.4732 20.9129 26.4539 21.035C26.2498 21.814 25.9564 22.5669 25.5796 23.2786C25.3753 23.6088 25.0539 23.8499 24.6796 23.9536C24.2939 24.0629 23.8889 24.0179 23.5418 23.8507C23.1933 23.6788 22.9241 23.3796 22.7896 23.015C22.6546 22.6614 22.6611 22.2629 22.8218 21.9157C23.6387 20.3886 23.8935 18.623 23.5418 16.9272V16.9207ZM14.2525 27.2064C14.3011 27.3236 14.3028 27.455 14.2574 27.5734C14.2119 27.6918 14.1227 27.7883 14.0082 27.8429C13.8897 27.8996 13.754 27.9088 13.6289 27.8686C13.5078 27.8282 13.4066 27.7431 13.3461 27.6307C12.8961 26.7114 12.5682 25.7407 12.3754 24.7379C12.3568 24.6732 12.3523 24.6053 12.3623 24.5387C12.3723 24.4722 12.3965 24.4085 12.4332 24.3522C12.4693 24.294 12.5171 24.244 12.5736 24.2053C12.63 24.1666 12.6938 24.14 12.7611 24.1272C12.8301 24.1141 12.9011 24.1154 12.9697 24.1309C13.0382 24.1464 13.1029 24.1757 13.1596 24.2172C13.2136 24.2576 13.2585 24.3087 13.2917 24.3674C13.3249 24.426 13.3456 24.4909 13.3525 24.5579C13.5325 25.4772 13.8346 26.3707 14.2525 27.2129V27.2064ZM13.1661 22.5972C13.1661 22.7257 13.1146 22.8543 13.0246 22.9379C12.9291 23.0283 12.8026 23.0787 12.6711 23.0787C12.5395 23.0787 12.413 23.0283 12.3175 22.9379C12.2713 22.8939 12.2344 22.8411 12.209 22.7825C12.1836 22.724 12.1702 22.661 12.1696 22.5972C12.1696 21.3757 12.3625 20.1543 12.7546 18.9907C12.7996 18.8622 12.8896 18.7657 13.0118 18.7079C13.1301 18.6501 13.266 18.64 13.3916 18.6794C13.5171 18.7189 13.6228 18.805 13.6868 18.92C13.716 18.9772 13.7334 19.0397 13.7378 19.1038C13.7422 19.1679 13.7336 19.2322 13.7125 19.2929C13.3503 20.3569 13.1657 21.4732 13.1661 22.5972ZM24.0304 29.225C24.1651 29.2252 24.2944 29.2783 24.3904 29.3729C24.4348 29.4189 24.4696 29.4733 24.4927 29.5329C24.5159 29.5925 24.527 29.6561 24.5254 29.72C24.524 29.7843 24.5096 29.8476 24.4831 29.9062C24.4566 29.9647 24.4185 30.0173 24.3711 30.0607C24.2754 30.1502 24.1485 30.1986 24.0175 30.1957L23.7475 30.1893C23.6511 30.1893 23.5611 30.1764 23.4775 30.17C23.3516 30.1524 23.2369 30.0881 23.1561 29.99C23.0761 29.8928 23.038 29.7678 23.0501 29.6425C23.0621 29.5171 23.1234 29.4017 23.2204 29.3214C23.317 29.2393 23.4407 29.1958 23.5675 29.1993L23.8054 29.2186L24.0368 29.225H24.0304ZM27.8104 17.1007C27.7975 16.9722 27.8296 16.8436 27.9132 16.7407C27.9975 16.6383 28.1182 16.5723 28.25 16.5568C28.3818 16.5412 28.5145 16.5772 28.6204 16.6572C28.7232 16.7407 28.7939 16.85 28.8132 16.9786C29.0274 18.7992 28.8297 20.6447 28.2346 22.3786C28.1903 22.4999 28.1004 22.5991 27.9839 22.655C27.8654 22.7117 27.7297 22.7209 27.6046 22.6807C27.4835 22.6404 27.3824 22.5553 27.3218 22.4429C27.2913 22.3874 27.2722 22.3265 27.2656 22.2635C27.259 22.2006 27.265 22.137 27.2832 22.0764C27.8296 20.4693 28.0096 18.7786 27.8104 17.1007ZM22.3654 12.6007C22.4071 12.6479 22.439 12.7028 22.4593 12.7623C22.4796 12.8219 22.4879 12.8848 22.4838 12.9476C22.4796 13.0104 22.463 13.0717 22.4349 13.128C22.4069 13.1844 22.3679 13.2346 22.3204 13.2757C22.2232 13.3599 22.098 13.4046 21.9695 13.401C21.841 13.3974 21.7185 13.3459 21.6261 13.2564C20.7905 12.3659 19.7547 11.6871 18.6046 11.2764C18.3346 11.1736 18.0582 11.0836 17.7754 11.0193C17.6492 10.9864 17.5409 10.9057 17.4732 10.7943C17.4395 10.7402 17.417 10.6799 17.4071 10.617C17.3972 10.554 17.4 10.4897 17.4154 10.4279C17.4475 10.2993 17.5311 10.1964 17.6468 10.1257C17.7637 10.0587 17.9022 10.0403 18.0325 10.0743C19.1815 10.3537 20.2618 10.8633 21.2082 11.5722C21.6261 11.8807 22.0118 12.2279 22.3654 12.6007ZM14.6189 14.015C14.7475 13.9957 14.8761 14.015 14.9854 14.0793C15.0946 14.1436 15.1718 14.2529 15.2039 14.375C15.2361 14.4972 15.2168 14.6193 15.1589 14.7286C15.0946 14.8379 14.9918 14.9214 14.8696 14.96C14.1894 15.1315 13.5719 15.4926 13.0889 16.0014C13.0448 16.0527 12.9907 16.0946 12.9299 16.1244C12.8691 16.1542 12.803 16.1715 12.7354 16.175C12.6678 16.1792 12.6001 16.17 12.5361 16.1479C12.4721 16.1258 12.4131 16.0914 12.3625 16.0464C12.3137 16.0024 12.2744 15.9489 12.2468 15.8893C12.2191 15.8296 12.2039 15.765 12.2018 15.6993C12.2006 15.6333 12.2131 15.5678 12.2385 15.507C12.264 15.4461 12.3018 15.3912 12.3496 15.3457C12.9598 14.69 13.7487 14.2273 14.6189 14.015ZM10.6975 26.6214C10.6644 26.5002 10.6805 26.3708 10.7425 26.2614C10.8068 26.1522 10.9096 26.0686 11.0318 26.03C11.1577 25.9918 11.2934 26.0033 11.4111 26.0622C11.5268 26.1264 11.6104 26.2164 11.6554 26.3386L11.7196 26.5507L11.8032 26.7629C11.8362 26.8856 11.8213 27.0162 11.7616 27.1284C11.702 27.2406 11.602 27.3259 11.4818 27.3672C11.3595 27.4077 11.2264 27.4008 11.1089 27.3479C10.9925 27.2964 10.9004 27.202 10.8518 27.0843L10.7682 26.8529C10.7361 26.7436 10.7039 26.6664 10.6975 26.6214Z" fill="#243A83"/>
<path d="M15.7632 29.27C15.8052 29.3181 15.837 29.3741 15.8569 29.4348C15.8767 29.4954 15.8842 29.5594 15.8788 29.623C15.8734 29.6866 15.8552 29.7484 15.8254 29.8048C15.7957 29.8613 15.7548 29.9111 15.7054 29.9514C15.6026 30.0344 15.4719 30.0747 15.3402 30.064C15.2086 30.0532 15.0861 29.9922 14.9982 29.8936L14.7089 29.5529L14.4389 29.1993C14.4 29.1476 14.3721 29.0885 14.3568 29.0256C14.3416 28.9628 14.3393 28.8974 14.3501 28.8337C14.3609 28.7699 14.3847 28.709 14.4198 28.6547C14.455 28.6004 14.5009 28.5538 14.5547 28.5179C14.6639 28.4433 14.7977 28.4138 14.9282 28.4353C15.0587 28.4569 15.1759 28.5279 15.2554 28.6336C15.4148 28.8552 15.5865 29.0676 15.7697 29.27H15.7632ZM26.7818 19.0421C26.7754 19.1707 26.7175 19.2993 26.6147 19.3829C26.5143 19.4683 26.385 19.5119 26.2534 19.5047C26.1218 19.4975 25.998 19.4401 25.9075 19.3443C25.8632 19.2972 25.8289 19.2415 25.8068 19.1808C25.7847 19.12 25.7752 19.0553 25.7789 18.9907C25.8561 17.5957 25.6182 16.2007 25.0847 14.9021C24.5475 13.5952 23.7313 12.4214 22.6932 11.4629C22.6429 11.4207 22.6015 11.3687 22.5717 11.3102C22.5419 11.2516 22.5242 11.1877 22.5197 11.1221C22.5167 11.0556 22.5278 10.9891 22.5521 10.9271C22.5765 10.8651 22.6136 10.8089 22.6611 10.7621C22.7082 10.7148 22.7643 10.6773 22.8262 10.6519C22.888 10.6265 22.9543 10.6137 23.0211 10.6143C23.1549 10.6128 23.2841 10.6635 23.3811 10.7557C24.5259 11.81 25.4256 13.1025 26.0168 14.5421C26.6031 15.9666 26.8644 17.5039 26.7818 19.0421ZM22.2497 27.9329C22.1259 27.89 22.0242 27.7998 21.9668 27.6821C21.9382 27.6246 21.9218 27.5619 21.9185 27.4977C21.9152 27.4336 21.925 27.3694 21.9475 27.3093C21.9948 27.1892 22.087 27.0923 22.2047 27.0393C22.3258 26.983 22.4642 26.9761 22.5904 27.02C23.0404 27.1807 23.5225 27.2771 24.0047 27.29C24.1461 27.29 24.2682 27.3543 24.3582 27.4443C24.4031 27.4904 24.4381 27.5452 24.4612 27.6052C24.4843 27.6653 24.495 27.7294 24.4926 27.7937C24.4902 27.858 24.4747 27.9212 24.4472 27.9793C24.4197 28.0375 24.3807 28.0895 24.3325 28.1321C24.2335 28.2197 24.1046 28.2657 23.9725 28.2607C23.3856 28.238 22.8052 28.1298 22.2497 27.9393V27.9329ZM14.3939 17.8914C14.3634 17.9498 14.3215 18.0014 14.2707 18.0434C14.2199 18.0853 14.1613 18.1167 14.0982 18.1357C13.9704 18.1756 13.832 18.1641 13.7125 18.1036C13.5968 18.0454 13.509 17.9437 13.4682 17.8207C13.4481 17.7596 13.4406 17.6951 13.4461 17.631C13.4516 17.5669 13.4701 17.5046 13.5004 17.4479C13.8218 16.8629 14.3618 16.4193 15.0175 16.22C15.6689 16.0188 16.3726 16.074 16.9847 16.3743C17.285 16.5218 17.5531 16.7273 17.7738 16.9788C17.9944 17.2304 18.1632 17.523 18.2704 17.84C18.3756 18.1518 18.4167 18.4816 18.3913 18.8097C18.3659 19.1378 18.2745 19.4574 18.1225 19.7493C17.7353 20.4876 17.491 21.2924 17.4025 22.1214C17.3942 22.1847 17.3735 22.2457 17.3415 22.3008C17.3095 22.356 17.2669 22.4043 17.2161 22.4429C17.113 22.5232 16.9832 22.5613 16.853 22.5493C16.7229 22.5374 16.6021 22.4763 16.5154 22.3786C16.4733 22.3304 16.4414 22.2743 16.4215 22.2136C16.4016 22.1528 16.3942 22.0887 16.3997 22.025C16.4956 21.0731 16.7774 20.1492 17.2289 19.3057C17.3332 19.1245 17.3987 18.9236 17.4213 18.7158C17.444 18.5079 17.4232 18.2976 17.3603 18.0982C17.2975 17.8988 17.194 17.7146 17.0563 17.5573C16.9186 17.4 16.7497 17.273 16.5604 17.1843C16.1783 16.9965 15.7381 16.9653 15.3334 17.0974C14.9287 17.2295 14.5916 17.5144 14.3939 17.8914Z" fill="#03B8E6"/>
<path d="M21.8067 9.32232C21.8651 9.35499 21.9164 9.39918 21.9573 9.45222C21.9981 9.50526 22.0278 9.56604 22.0445 9.63089C22.0603 9.6941 22.0627 9.75989 22.0516 9.82409C22.0406 9.88828 22.0163 9.94946 21.9803 10.0037C21.9435 10.0607 21.8954 10.1095 21.839 10.1471C21.7826 10.1847 21.7191 10.2103 21.6524 10.2223C21.5858 10.2345 21.5174 10.2333 21.4512 10.219C21.385 10.2047 21.3223 10.1774 21.2667 10.1387L21.1253 10.0487L20.9774 9.96518C20.9242 9.93231 20.8779 9.88926 20.8413 9.83849C20.8048 9.78773 20.7785 9.73024 20.7642 9.66933C20.7499 9.60842 20.7477 9.54528 20.7578 9.48353C20.7679 9.42178 20.7901 9.36262 20.8231 9.30946C20.8874 9.20018 21.0031 9.1166 21.1253 9.09089C21.25 9.05638 21.3831 9.07016 21.4981 9.12946C21.6031 9.1902 21.7061 9.25453 21.8067 9.32232ZM20.6303 23.1245C20.6107 23.0602 20.6052 22.9926 20.6141 22.926C20.623 22.8595 20.646 22.7956 20.6817 22.7387C20.7178 22.6806 20.7656 22.6306 20.822 22.5919C20.8785 22.5532 20.9423 22.5265 21.0095 22.5137C21.0782 22.4998 21.1489 22.5 21.2175 22.5144C21.286 22.5288 21.3509 22.557 21.4081 22.5973C21.4625 22.6364 21.5082 22.6863 21.5425 22.7438C21.5768 22.8013 21.5989 22.8652 21.6074 22.9316C21.691 23.3388 21.8739 23.719 22.1396 24.0386C22.4054 24.3582 22.7459 24.6073 23.131 24.7637C23.5407 24.9386 23.9872 25.0102 24.4311 24.9721C24.875 24.934 25.3027 24.7874 25.6767 24.5452C26.0446 24.3052 26.3455 23.9756 26.551 23.5873C26.5812 23.5306 26.6223 23.4804 26.6719 23.4396C26.7216 23.3988 26.7788 23.3681 26.8403 23.3495C26.9349 23.3193 27.0363 23.3172 27.1321 23.3435C27.228 23.3697 27.3142 23.4231 27.3803 23.4973C27.422 23.5457 27.4537 23.6018 27.4736 23.6625C27.4935 23.7232 27.5011 23.7872 27.496 23.8509C27.496 23.9152 27.4703 23.9795 27.4445 24.0309C27.161 24.568 26.745 25.0238 26.236 25.3552C25.4603 25.8643 24.5223 26.0648 23.6063 25.9173C22.6903 25.7698 21.8626 25.2849 21.286 24.558C20.9592 24.1367 20.7328 23.6464 20.6238 23.1245H20.6303ZM10.6595 15.6737C10.5993 15.7903 10.4953 15.8782 10.3703 15.918C10.2424 15.958 10.104 15.9464 9.98454 15.8859C9.86885 15.8277 9.78098 15.726 9.74026 15.603C9.71975 15.542 9.71202 15.4774 9.71755 15.4133C9.72308 15.3491 9.74175 15.2868 9.7724 15.2302C9.9109 14.9667 10.0677 14.7132 10.2417 14.4716C10.3203 14.3649 10.437 14.2926 10.5675 14.2699C10.6981 14.2471 10.8324 14.2756 10.9424 14.3495C11.0517 14.4266 11.1224 14.5423 11.1481 14.6645C11.1738 14.793 11.1481 14.9216 11.0645 15.0309C10.915 15.2357 10.7797 15.4505 10.6595 15.6737ZM10.1774 20.7073C10.1967 20.5787 10.261 20.463 10.3703 20.3859C10.4754 20.3052 10.6076 20.2681 10.7393 20.2825C10.8711 20.2969 10.9922 20.3615 11.0774 20.463C11.1545 20.5659 11.1931 20.6945 11.1738 20.823C11.0299 21.9181 11.0364 23.0276 11.1931 24.1209C11.2124 24.2495 11.1803 24.378 11.0967 24.4809C11.0142 24.5853 10.8944 24.6537 10.7626 24.6717C10.6307 24.6897 10.497 24.6559 10.3895 24.5773C10.3376 24.5393 10.2937 24.4913 10.2606 24.4361C10.2275 24.3809 10.2057 24.3196 10.1967 24.2559C10.0323 23.0792 10.0258 21.8858 10.1774 20.7073ZM21.8388 28.6402C21.9674 28.6852 22.0703 28.7687 22.1217 28.8973C22.1795 29.0066 22.186 29.1416 22.1345 29.2637C22.0873 29.3838 21.995 29.4807 21.8774 29.5337C21.7562 29.59 21.6179 29.597 21.4917 29.553C21.1916 29.4501 20.8994 29.3255 20.6174 29.1802C19.6514 28.7015 18.7954 28.0272 18.1038 27.2002C17.2626 26.1952 16.6996 24.9871 16.471 23.6966C16.4561 23.6315 16.4553 23.564 16.4686 23.4986C16.4819 23.4332 16.509 23.3714 16.5481 23.3173C16.5861 23.2628 16.6348 23.2164 16.6911 23.1811C16.7474 23.1457 16.8103 23.1221 16.876 23.1116C16.943 23.1004 17.0116 23.1025 17.0778 23.118C17.144 23.1334 17.2065 23.1619 17.2617 23.2016C17.3151 23.2402 17.3602 23.2891 17.3944 23.3454C17.4286 23.4017 17.4512 23.4643 17.461 23.5295C17.4977 23.7374 17.5449 23.9434 17.6024 24.1466C17.8522 25.0431 18.2906 25.876 18.8881 26.5895C19.672 27.5245 20.6936 28.2307 21.8453 28.6337L21.8388 28.6402ZM18.9203 13.5073C18.8643 13.4745 18.8157 13.4306 18.7774 13.3782C18.7391 13.3259 18.7119 13.2663 18.6974 13.2031C18.683 13.1399 18.6816 13.0744 18.6934 13.0106C18.7052 12.9469 18.7299 12.8862 18.766 12.8323C18.8405 12.7232 18.9542 12.6469 19.0835 12.6194C19.2128 12.5919 19.3477 12.6152 19.4603 12.6845C20.8756 13.5514 21.9129 14.9192 22.366 16.5159C22.8095 18.1037 22.6231 19.788 21.8517 21.2473C21.7914 21.3639 21.6874 21.4517 21.5624 21.4916C21.4346 21.5315 21.2962 21.52 21.1767 21.4595C21.1182 21.4313 21.0659 21.3918 21.0229 21.3433C20.9798 21.2947 20.9469 21.238 20.926 21.1766C20.9058 21.1155 20.8983 21.051 20.9038 20.9869C20.9094 20.9228 20.9278 20.8605 20.9581 20.8037C21.616 19.5661 21.7725 18.1229 21.3953 16.773C21.0102 15.412 20.1265 14.246 18.9203 13.5073Z" fill="#1F72B5"/>
<path d="M12.5429 13.9637C12.4321 14.0368 12.2973 14.0643 12.1667 14.0404C12.0361 14.0164 11.9198 13.9428 11.8422 13.8351C11.8049 13.7828 11.7787 13.7235 11.765 13.6608C11.7512 13.5981 11.7504 13.5332 11.7624 13.4701C11.7744 13.4071 11.799 13.3471 11.8349 13.2938C11.8707 13.2405 11.9169 13.195 11.9707 13.1601C12.8002 12.6161 13.7368 12.2566 14.7172 12.1058C15.6976 11.9549 16.699 12.0163 17.6536 12.2858C17.7086 12.3225 17.7558 12.3698 17.7922 12.425C17.8287 12.4802 17.8537 12.5422 17.8657 12.6072C17.877 12.6727 17.8742 12.7397 17.8575 12.804C17.8409 12.8683 17.8109 12.9283 17.7693 12.9801C17.7279 13.0345 17.6757 13.0797 17.6159 13.1129C17.5562 13.146 17.4902 13.1665 17.4222 13.1729C17.3551 13.1796 17.2874 13.1731 17.2229 13.1537C16.4299 12.9623 15.606 12.9355 14.8022 13.0748C13.9984 13.2141 13.2317 13.5166 12.5493 13.9637H12.5429ZM26.1007 12.4722C26.0651 12.4178 26.041 12.3566 26.0299 12.2925C26.0189 12.2283 26.0211 12.1626 26.0365 12.0994C26.0642 12.0059 26.1179 11.9223 26.1914 11.8582C26.2648 11.7941 26.3549 11.7522 26.4513 11.7374C26.5476 11.7226 26.6462 11.7354 26.7355 11.7745C26.8248 11.8135 26.9012 11.8772 26.9557 11.9579C27.5463 12.8959 28.011 13.9074 28.3379 14.9665C28.3708 15.0595 28.3736 15.1604 28.3459 15.255C28.3182 15.3496 28.2614 15.4331 28.1836 15.4937C28.1048 15.5568 28.0091 15.5954 27.9085 15.6046C27.8079 15.6137 27.7068 15.593 27.6179 15.5451C27.5603 15.5129 27.5097 15.4696 27.4688 15.4177C27.428 15.3659 27.3978 15.3065 27.38 15.2429C27.0759 14.2666 26.6436 13.3349 26.0943 12.4722H26.1007ZM11.2572 17.2808C11.2825 17.2194 11.32 17.1637 11.3676 17.1173C11.4151 17.0709 11.4716 17.0346 11.5336 17.0108C11.6278 16.9727 11.7312 16.9633 11.8308 16.9839C11.9303 17.0045 12.0215 17.0541 12.0929 17.1265C12.1374 17.1748 12.1718 17.2316 12.1938 17.2934C12.2159 17.3553 12.2253 17.421 12.2215 17.4865C12.2215 17.5508 12.2086 17.6151 12.1765 17.6794C11.9869 18.1092 11.8153 18.5467 11.6622 18.9908C11.6498 19.059 11.6227 19.1237 11.5827 19.1803C11.5427 19.237 11.4909 19.2842 11.4307 19.3187C11.3701 19.3543 11.3028 19.3771 11.2329 19.3857C11.1631 19.3943 11.0923 19.3885 11.0248 19.3686C10.9573 19.3487 10.8946 19.3152 10.8406 19.2701C10.7866 19.225 10.7424 19.1694 10.7107 19.1065C10.6819 19.044 10.667 18.976 10.667 18.9072C10.667 18.8384 10.6819 18.7704 10.7107 18.7079C10.8717 18.2265 11.054 17.7525 11.2572 17.2872V17.2808ZM16.0915 9.98438C16.2249 9.98798 16.3517 10.0433 16.445 10.1387C16.4894 10.1847 16.5242 10.2391 16.5474 10.2987C16.5706 10.3583 16.5817 10.4219 16.58 10.4858C16.5787 10.5501 16.5643 10.6134 16.5378 10.672C16.5113 10.7305 16.4732 10.7831 16.4257 10.8265C16.3271 10.9146 16.1979 10.9608 16.0657 10.9551H15.7507C15.6178 10.9583 15.4888 10.9099 15.3907 10.8201C15.3446 10.7756 15.3079 10.7225 15.2825 10.6636C15.2572 10.6048 15.2439 10.5415 15.2433 10.4775C15.2427 10.4135 15.2548 10.35 15.2791 10.2907C15.3033 10.2314 15.3391 10.1775 15.3843 10.1322C15.4787 10.0392 15.6054 9.98627 15.7379 9.98438H16.0915ZM29.4179 25.1044C29.3884 25.1623 29.3475 25.2137 29.2979 25.2557C29.2482 25.2976 29.1907 25.3292 29.1286 25.3487C29.0354 25.3782 28.9357 25.3806 28.8412 25.3556C28.7467 25.3305 28.6613 25.2791 28.595 25.2072C28.5518 25.1607 28.5182 25.1061 28.4961 25.0465C28.474 24.9869 28.464 24.9236 28.4665 24.8601C28.4729 24.7958 28.4922 24.7315 28.5243 24.6737C28.9028 23.9298 29.2126 23.153 29.45 22.3529C29.4676 22.2901 29.4978 22.2315 29.5386 22.1807C29.5795 22.1299 29.6303 22.0879 29.6879 22.0572C29.8052 21.994 29.9425 21.9788 30.0708 22.0147C30.1991 22.0507 30.3084 22.1351 30.3757 22.2501C30.4073 22.3051 30.4275 22.3658 30.4352 22.4288C30.443 22.4917 30.438 22.5555 30.4207 22.6165C30.2922 23.0344 30.1443 23.4522 29.9707 23.8829C29.8069 24.299 29.6224 24.7067 29.4179 25.1044ZM16.49 15.0822C16.3602 15.0581 16.2449 14.9843 16.1686 14.8765C16.1303 14.824 16.1032 14.7642 16.0889 14.7009C16.0746 14.6375 16.0734 14.5718 16.0855 14.508C16.0975 14.4441 16.1225 14.3834 16.1589 14.3296C16.1953 14.2758 16.2424 14.23 16.2972 14.1951C16.407 14.1226 16.5405 14.095 16.67 14.1179C17.1164 14.1982 17.5493 14.341 17.9557 14.5422C18.7657 14.9472 19.4343 15.5708 19.8843 16.3422C20.3343 17.1072 20.5529 17.9815 20.495 18.8622C20.4816 18.988 20.4192 19.1034 20.3215 19.1837C20.2219 19.2653 20.0954 19.3066 19.9668 19.2995C19.8383 19.2924 19.7171 19.2373 19.6272 19.1451C19.5844 19.0995 19.5511 19.046 19.529 18.9875C19.5069 18.9291 19.4966 18.8668 19.4986 18.8044C19.5448 18.0201 19.3251 17.2433 18.875 16.5994C18.5972 16.2017 18.2435 15.8629 17.8341 15.6025C17.4248 15.3421 16.968 15.1653 16.49 15.0822ZM15.365 18.3737C15.4293 18.2644 15.5322 18.1808 15.6607 18.1358C15.7886 18.0959 15.927 18.1074 16.0465 18.1679C16.1622 18.2322 16.2457 18.3287 16.2907 18.4508C16.3293 18.5794 16.3165 18.7079 16.2586 18.8237C15.3329 20.5628 15.0463 22.5714 15.4486 24.5001C15.8472 26.4287 16.9143 28.1644 18.47 29.4244C18.5729 29.5079 18.6372 29.6237 18.65 29.7522C18.6629 29.8808 18.6179 30.0094 18.5343 30.1122C18.4473 30.2118 18.3253 30.274 18.1936 30.286C18.0619 30.298 17.9307 30.2588 17.8272 30.1765C16.1083 28.7905 14.9207 26.8535 14.465 24.6929C14.015 22.5458 14.3365 20.3215 15.365 18.3737Z" fill="#F08A1E"/>
</g>
<circle cx="20" cy="20" r="19.5" stroke="black" stroke-opacity="0.05"/>
<defs>
<clipPath id="clip0_9_395933">
<rect width="22" height="22" fill="white" transform="translate(9 9)"/>
</clipPath>
</defs>
</svg>
