<svg width="40" height="40" viewBox="0 0 40 40" fill="none" xmlns="http://www.w3.org/2000/svg">
<circle cx="20" cy="20" r="20" fill="#F6F8FA"/>
<path fill-rule="evenodd" clip-rule="evenodd" d="M1.5293 22.0299C10.5773 21.2649 27.1725 20.5442 32.6893 23.0747L32.5128 24.0457C26.6135 20.7502 2.76531 21.9713 1.5293 22.0299Z" fill="#2360A5"/>
<path fill-rule="evenodd" clip-rule="evenodd" d="M7.14941 21.0003H8.06157L8.56173 17.4254H7.64957L7.14941 21.0003ZM8.37048 21.0003H9.28264L9.51815 19.2643C9.63581 18.4846 10.2243 18.2198 10.8421 18.2198L10.9744 17.3369C10.4449 17.3369 10.0034 17.4988 9.72396 17.9107H9.70921L9.78298 17.4251H8.88539L8.37048 21.0003Z" fill="black"/>
<path fill-rule="evenodd" clip-rule="evenodd" d="M14.0348 17.9108C13.8876 17.7048 13.4756 17.2635 12.5782 17.2635C11.6365 17.2635 10.8568 17.6167 10.7391 18.4257C10.5479 19.7794 12.9459 19.2791 12.8576 19.8969C12.8428 20.0883 12.5044 20.3091 12.0778 20.3091C11.5922 20.3091 11.2245 20.1472 11.048 19.8676L10.2976 20.3677C10.5772 20.7209 11.1509 21.0152 12.0336 21.0152C12.8869 21.0152 13.755 20.6326 13.8726 19.7645C14.0639 18.411 11.6218 18.9407 11.7099 18.3227C11.7394 18.1019 12.0336 17.9695 12.4456 17.9695C12.99 17.9695 13.2399 18.2491 13.3284 18.4844L14.0348 17.9108ZM13.9318 20.1472C13.8583 20.6914 14.0643 21.0003 14.7997 21.0003C15.0793 21.0003 15.3147 20.9562 15.5352 20.9265L15.6383 20.2058C15.4911 20.2207 15.3587 20.2499 15.2263 20.2499C14.8733 20.2499 14.8438 20.1029 14.8733 19.8086L15.1382 17.999H15.9474L16.0358 17.3812H15.2265L15.3737 16.3218H14.4615L13.9318 20.1472ZM3.39795 21.0003H4.39826L4.70736 18.8084H7.23783L7.35549 17.9844H4.82502L4.98676 16.8369H7.73799L7.8704 15.9541H4.11886L3.39795 21.0003ZM15.7855 21.0003H19.7137L19.8461 20.1176H16.9036L17.0801 18.823H19.6104L19.7283 17.9844H17.1978L17.3597 16.8369H20.111L20.2284 15.9689H16.4916L15.7855 21.0003ZM19.9195 21.0003H20.8319L21.0967 19.1171C21.185 18.4551 21.5823 18.1755 22.0236 18.1755C22.4943 18.1755 22.6119 18.4846 22.5533 18.8082L22.2589 21.0003H23.1563L23.5095 18.5582C23.6128 17.7639 23.2742 17.3371 22.377 17.3371C22.0238 17.3371 21.6116 17.4695 21.2881 17.7784H21.2736L21.3322 17.4252H20.4202L19.9195 21.0003ZM27.2609 19.3527C27.4374 18.0728 27.0106 17.2635 25.7456 17.2635C24.5244 17.2635 23.7153 18.0728 23.5534 19.1467C23.4064 20.2058 24.0097 21.0152 25.216 21.0152C26.2458 21.0152 26.849 20.5444 27.2022 20.1472L26.4961 19.7204C26.3782 19.8381 26.0398 20.2207 25.3338 20.2207C24.8482 20.2207 24.4215 19.8823 24.4803 19.3527H27.2609ZM24.5834 18.7494C24.7304 18.3669 25.1276 18.0433 25.6424 18.0433C26.2604 18.0433 26.4369 18.5582 26.4077 18.7494H24.5834ZM27.2314 21.0003H28.1437L28.379 19.2643C28.4969 18.4846 29.0852 18.2197 29.7032 18.2197L29.821 17.3369C29.2914 17.3369 28.8646 17.4988 28.5852 17.9106H28.5706L28.644 17.4251H27.7321L27.2314 21.0003Z" fill="black"/>
<path fill-rule="evenodd" clip-rule="evenodd" d="M33.1458 17.4253H32.2334L32.1893 17.7637H32.1748C31.9837 17.5136 31.7189 17.3369 31.1743 17.3369C30.2328 17.3369 29.4529 17.9988 29.2913 19.0729C29.144 20.1468 29.7472 20.8236 30.6887 20.8236C31.0125 20.8236 31.4832 20.7207 31.8067 20.4264L31.763 20.8091C31.7039 21.2354 31.3948 21.5298 30.8065 21.5298C30.3506 21.5298 30.1299 21.324 30.0858 21.0739H29.144C29.0853 21.5298 29.3204 22.1919 30.5122 22.1919C31.6599 22.1919 32.4984 21.9416 32.6454 20.9265L33.1458 17.4253ZM32.0278 19.0731C31.9688 19.4556 31.6894 20.0293 31.0125 20.0293C30.3209 20.0293 30.2031 19.4556 30.2472 19.0731C30.3062 18.6906 30.5856 18.1314 31.2774 18.1314C31.954 18.1314 32.0715 18.6904 32.0278 19.0731Z" fill="black"/>
<path fill-rule="evenodd" clip-rule="evenodd" d="M36.4708 17.4258H35.5293L34.455 20.0297H34.4405L33.9992 17.4258H33.0282L33.8522 21.089C33.7198 21.3247 33.6019 21.3979 33.3076 21.3979H32.9544L32.8369 22.1924H33.3811C34.0432 22.1924 34.3816 21.9716 34.6758 21.3247L36.4708 17.4258ZM35.235 21.3247C35.1321 21.413 35.088 21.5305 35.088 21.6629C35.088 21.7953 35.1321 21.9132 35.235 22.0161C35.3233 22.1044 35.4408 22.1485 35.5732 22.1485C35.7206 22.1485 35.8235 22.1044 35.9264 22.0161C36.0147 21.9132 36.0588 21.7953 36.0588 21.6629C36.0588 21.5305 36.0147 21.413 35.9264 21.3247C35.8235 21.2214 35.7056 21.1773 35.5732 21.1773C35.4408 21.1773 35.3231 21.2214 35.235 21.3247ZM35.9852 22.06C35.8674 22.1778 35.7349 22.2365 35.573 22.2365C35.426 22.2365 35.2936 22.1778 35.1761 22.06C35.0729 21.9571 35.0142 21.8246 35.0142 21.6627C35.0142 21.5008 35.0729 21.3684 35.1761 21.2655C35.2936 21.148 35.426 21.1039 35.573 21.1039C35.7349 21.1039 35.8674 21.148 35.9852 21.2655C36.0881 21.3684 36.1468 21.5008 36.1468 21.6627C36.1468 21.8246 36.0881 21.9571 35.9852 22.06ZM35.6909 21.4422C35.6617 21.4276 35.6171 21.4276 35.5584 21.4276H35.4555V21.6483H35.5584C35.6025 21.6483 35.6322 21.6483 35.6617 21.6334C35.7054 21.6188 35.7204 21.5897 35.7204 21.5451C35.7204 21.5008 35.7054 21.4717 35.6909 21.4422ZM35.573 21.3538C35.6468 21.3538 35.7054 21.3538 35.7349 21.3684C35.7656 21.383 35.7915 21.4059 35.8098 21.4346C35.828 21.4632 35.8379 21.4964 35.8382 21.5303C35.8382 21.5893 35.8087 21.6332 35.7792 21.6482C35.7497 21.6627 35.7206 21.6773 35.6763 21.6773C35.7349 21.6922 35.7646 21.7068 35.7941 21.7511C35.8087 21.7806 35.8233 21.8097 35.8233 21.8394V21.9716H35.8382H35.7349V21.9571L35.7204 21.9421V21.8835C35.7204 21.8248 35.7054 21.7656 35.6617 21.7511C35.6468 21.7365 35.6027 21.7219 35.5439 21.7219H35.4555V21.9718H35.3526V21.3538H35.573Z" fill="black"/>
<circle cx="20" cy="20" r="19.5" stroke="black" stroke-opacity="0.05"/>
</svg>
