<svg width="40" height="40" viewBox="0 0 40 40" fill="none" xmlns="http://www.w3.org/2000/svg">
<circle cx="20" cy="20" r="20" fill="#01436A"/>
<g clip-path="url(#clip0_9_410714)">
<path d="M20.0002 10.8926V15.3794C19.2931 15.3785 18.5953 15.54 17.9605 15.8513C17.3256 16.1627 16.7707 16.6155 16.3385 17.175C15.9062 17.7346 15.6081 18.3859 15.4672 19.0787C15.3262 19.7716 15.3462 20.4876 15.5255 21.1715C16.8906 20.4005 18.4324 19.9968 20.0002 19.9997V24.4865C17.4502 24.4865 15.3798 26.5508 15.3798 29.1069H10.893C10.8926 27.5066 11.3138 25.9346 12.1143 24.5489C12.9148 23.1633 14.0662 22.0131 15.4527 21.214H10.9719C10.7988 19.9269 10.9029 18.6176 11.2774 17.374C11.6518 16.1304 12.2879 14.9813 13.1429 14.0038C13.998 13.0262 15.0523 12.2429 16.2349 11.7063C17.4176 11.1697 18.7014 10.8922 20.0002 10.8926ZM20.0002 19.9997C21.6273 19.9997 23.1512 19.5747 24.4748 18.8279C24.6529 19.5118 24.6719 20.2274 24.5304 20.9197C24.389 21.6121 24.0908 22.2628 23.6588 22.822C23.2268 23.3812 22.6724 23.8341 22.0382 24.1458C21.404 24.4574 20.7068 24.6197 20.0002 24.6201V29.1069C21.2989 29.1072 22.5827 28.8298 23.7654 28.2932C24.9481 27.7566 26.0023 26.9732 26.8574 25.9957C27.7124 25.0181 28.3485 23.869 28.723 22.6254C29.0974 21.3819 29.2015 20.0726 29.0284 18.7854H24.5477C25.9341 17.9864 27.0855 16.8361 27.886 15.4505C28.6865 14.0649 29.1077 12.4928 29.1073 10.8926H24.6205C24.6205 13.4426 22.5562 15.5129 20.0002 15.5129V19.9997Z" fill="white"/>
</g>
<circle cx="20" cy="20" r="19.5" stroke="black" stroke-opacity="0.05"/>
<defs>
<clipPath id="clip0_9_410714">
<rect width="20" height="20" fill="white" transform="translate(10 10)"/>
</clipPath>
</defs>
</svg>
