<svg width="40" height="40" viewBox="0 0 40 40" fill="none" xmlns="http://www.w3.org/2000/svg">
<circle cx="20" cy="20" r="20" fill="#F6F8FA"/>
<circle cx="20" cy="20" r="19.5" stroke="black" stroke-opacity="0.05"/>
<g clip-path="url(#clip0_9_392596)">
<path d="M14.9878 13.3366L14.4918 13.2526H14.4834V13.2442L14.5843 13.1937L16.9885 12V12.0588V14.2781V16.5815V16.5983L16.9717 16.6067L15.9882 17.0943L14.9962 17.5819V13.345L14.9878 13.3282V13.3366Z" fill="#D90000"/>
<path d="M23.9825 15.6145L23.9152 15.5724L23.8312 15.5388L23.7387 15.5136L23.621 15.4884L23.1082 15.3791L22.9233 15.3371L22.7552 15.2866L22.6038 15.2278L22.5366 15.1942L22.4693 15.1605L22.4105 15.1185L22.3516 15.0765L22.3012 15.0344L22.2508 14.9924L22.2087 14.942L22.1667 14.8915L22.1247 14.8411L22.091 14.7907L22.049 14.715L22.0154 14.6309L21.9902 14.5469L21.9734 14.4544V14.3871L21.9565 14.3115V14.2358V14.1602V14.0929L21.9649 14.0257V13.9584L21.9902 13.8912L22.007 13.8239L22.0322 13.7567L22.0574 13.6978L22.0826 13.639L22.1163 13.5801L22.1499 13.5297L22.1835 13.4792L22.2256 13.4288L22.2676 13.3868L22.318 13.3447L22.3685 13.3027L22.4273 13.2607L22.4861 13.2271L22.6122 13.1598L22.7552 13.101L22.9065 13.0505L23.0746 13.0085L23.2511 12.9749L23.4361 12.9496L23.663 12.9328H23.8984L24.1422 12.916H24.386L24.6382 12.9412L24.8904 12.9665L25.1426 13.0001L25.3948 13.0421V14.0509L25.2266 14.0004L25.0585 13.9584L24.882 13.9248L24.7054 13.8996L24.5289 13.8828H24.3524L24.1758 13.8659H23.9993L23.9068 13.8743H23.8228L23.7471 13.8996L23.6799 13.9248L23.6294 13.95L23.5874 13.9836L23.5538 14.0173L23.537 14.0593V14.0761L23.5201 14.1265V14.1686L23.537 14.1938L23.5538 14.219L23.5706 14.2442L23.5958 14.261L23.621 14.2779L23.6546 14.2947L23.7303 14.3283L23.89 14.3787L24.0497 14.4124L24.3524 14.4712L24.6298 14.5301L24.7811 14.5721L24.924 14.6225L25.0585 14.6814L25.1762 14.7486L25.2771 14.8159L25.3611 14.8915L25.4368 14.9756L25.5041 15.0597L25.5545 15.1521L25.5965 15.253L25.6302 15.3623L25.6554 15.48V15.5893L25.6722 15.6985V15.7994L25.6554 15.9003L25.6386 16.0012L25.6133 16.0936L25.5797 16.1861L25.5377 16.2702L25.4957 16.3374L25.4452 16.4047L25.3948 16.4719L25.3359 16.5308L25.2687 16.5896L25.2014 16.6401L25.1258 16.6905L25.0501 16.7325L24.924 16.7914L24.7895 16.8418L24.6466 16.8923L24.4953 16.9343L24.3272 16.9679L24.159 16.9931L23.9825 17.0099H23.7976H23.579H23.3604L23.1418 16.9931L22.9233 16.9763L22.7047 16.9511L22.4861 16.9175L22.2676 16.8754L22.049 16.825H22.0406V16.8082V15.8078L22.1835 15.8583L22.3348 15.9087L22.4609 15.9423L22.587 15.976L22.7131 16.0012L22.8392 16.0264L22.9653 16.0432L23.0914 16.06H23.2259L23.3604 16.0768H23.6294L23.7471 16.06L23.848 16.0432L23.9321 16.018L23.9993 15.9844L24.0582 15.9423L24.0834 15.9171L24.1002 15.8919L24.117 15.8667V15.8415L24.1254 15.8162V15.791V15.7658V15.7406L24.1002 15.7154L24.0834 15.6901L24.0666 15.6733L24.0413 15.6565L23.9825 15.6145Z" fill="#00347B"/>
<path d="M12.3145 15.5227V16.9182H10.7593V12.9756H14.2395V13.9171H12.3313V14.5476H14.1807V15.4891H12.3313L12.3145 15.5227Z" fill="#00347B"/>
<path d="M20.6955 15.0768L20.7964 15.102L20.9057 15.1357L21.0066 15.1777L21.099 15.2281L21.1831 15.287L21.2419 15.3374L21.2924 15.3963L21.3428 15.4551L21.3848 15.5224L21.4101 15.5644L21.4353 15.6232L21.4941 15.783L21.5278 15.8838L21.553 15.9931L21.6118 16.2957L21.6538 16.5059L21.6875 16.6572L21.7211 16.7917L21.7631 16.9094V16.9178H20.1575H20.1407V16.901L20.1071 16.7245L20.0734 16.4807L20.0314 16.1612L20.0062 16.0436L19.981 15.9343L19.9557 15.8502L19.9221 15.7745L19.8801 15.7157L19.8549 15.6905L19.8297 15.6653L19.7792 15.6316L19.7204 15.6064L19.6531 15.5896H19.5775L19.3757 15.5812H19.1571V16.9178V16.9262H17.6104V12.9752V12.9668H20.0987H20.2836H20.4433L20.5862 12.992L20.7207 13.0088L20.8468 13.034L20.9645 13.0677L21.0738 13.1097L21.1831 13.1601L21.2419 13.1854L21.2924 13.219L21.3428 13.2526L21.3932 13.2862L21.4353 13.3283L21.4773 13.3703L21.5109 13.4123L21.5446 13.4544L21.5782 13.5048L21.6118 13.5637L21.637 13.6225L21.6623 13.6813L21.6791 13.7486L21.6959 13.8158V13.8831L21.7127 13.9588V14.0344V14.1101V14.1857L21.6959 14.253L21.6791 14.3286L21.6538 14.4043L21.6202 14.4715L21.5866 14.5388L21.553 14.5892L21.5193 14.6313L21.4857 14.6733L21.4437 14.7153L21.3596 14.791L21.2587 14.8582L21.1495 14.9171L21.0234 14.9759L20.8889 15.0264L20.746 15.0684H20.7375L20.746 15.0768H20.6955ZM19.5438 14.6985H19.6279L19.7036 14.6901H19.7708L19.8297 14.6649L19.8801 14.6397L19.9305 14.6145L19.9726 14.5808L20.0062 14.5472L20.0314 14.5136L20.0566 14.4715L20.0734 14.4211V14.3707L20.0902 14.3202V14.2698V14.2194V14.1773L20.0734 14.1353L20.0566 14.0933L20.0398 14.0596L20.0146 14.026L19.981 13.984L19.9389 13.9503L19.8885 13.9251L19.8297 13.9083L19.7708 13.8915H19.7036L19.6363 13.8747H19.5691H19.0647V13.8831V14.6733V14.6985L19.0815 14.7153H19.5522L19.5438 14.6985Z" fill="#00347B"/>
<path d="M28.7323 14.1519V16.926H27.1855V16.9176V14.1519H25.832V14.1435V12.9918V12.9834H30.1445V12.9918V14.1435H28.7827L28.7323 14.1519Z" fill="#00347B"/>
<path d="M25.3021 19.0444L25.2349 19.1032L25.176 19.1705L25.1424 19.2209L25.1088 19.2714L25.0836 19.3218L25.0583 19.3722L25.0331 19.4311L25.0163 19.4899L24.9995 19.5488V19.6076L24.9827 19.6665V19.7253V19.7926V19.8598V19.9271V19.9943L25.0163 20.1204L25.0499 20.2129L25.092 20.3053L25.1424 20.3894L25.2013 20.4651L25.2433 20.5071L25.2853 20.5491L25.3358 20.5912L25.3862 20.6248L25.445 20.6584L25.5039 20.692L25.5627 20.7173L25.63 20.7425L25.6972 20.7677L25.7645 20.7845L25.8401 20.8013H25.9158L25.9915 20.8181H26.0671H26.1428H26.2268L26.395 20.8013L26.5715 20.7677L26.7564 20.7257L26.9414 20.6668V21.7008L26.8153 21.7428L26.6892 21.7681L26.5631 21.7933L26.437 21.8185L26.3109 21.8353L26.1848 21.8521H26.0587L25.9326 21.8689H25.7561H25.5795L25.4114 21.8521L25.2433 21.8269L25.0752 21.7933L24.9154 21.7513L24.7641 21.7008L24.6212 21.642L24.4783 21.5831L24.3438 21.5159L24.2177 21.4402L24.1 21.3561L23.9907 21.2637L23.8899 21.1712L23.7974 21.0703L23.7133 20.961L23.6629 20.877L23.6124 20.7929L23.5704 20.7089L23.5284 20.6164L23.4947 20.5239L23.4611 20.423L23.4359 20.3222L23.4107 20.2213L23.3855 20.0616L23.3687 19.8934V19.7253L23.3771 19.5488V19.4647L23.4023 19.3806L23.4191 19.2966L23.4359 19.2125L23.4611 19.1368L23.4863 19.0612L23.52 18.9855L23.5536 18.9099L23.604 18.8174L23.6629 18.7249L23.7217 18.6409L23.789 18.5568L23.8646 18.4727L23.9487 18.3887L24.0412 18.313L24.1336 18.2374L24.2345 18.1701L24.3438 18.1029L24.4531 18.044L24.5708 17.9936L24.6969 17.9431L24.823 17.9011L24.9491 17.8675L25.0836 17.8339L25.2181 17.8086L25.361 17.7918L25.5039 17.775H25.6468L25.8654 17.7666H26.0755L26.2857 17.7918L26.4958 17.817L26.9078 17.8843V17.8927V18.9183L26.7312 18.8678L26.5631 18.8258L26.4034 18.8006L26.2437 18.7838H26.0923H25.9494L25.8065 18.809L25.672 18.8426L25.5627 18.8763L25.4619 18.9183L25.3694 18.9687L25.2853 19.0276L25.3021 19.0444Z" fill="#00347B"/>
<path d="M6.43819 19.423V20.3645H4.58878V20.3729V21.7684V21.7768H3.04199V21.7684V17.8258V17.8174H6.52226V17.8258V18.7673H4.614V18.7757V19.3894H6.46341L6.43819 19.423Z" fill="#00347B"/>
<path d="M8.50636 17.8252H6.95958C6.95494 17.8252 6.95117 17.829 6.95117 17.8336V21.7762C6.95117 21.7809 6.95494 21.7846 6.95958 21.7846H8.50636C8.511 21.7846 8.51477 21.7809 8.51477 21.7762V17.8336C8.51477 17.829 8.511 17.8252 8.50636 17.8252Z" fill="#00347B"/>
<path d="M10.423 18.9517V21.7762H9.09483H9.08643V21.7594V17.8252H11.415V17.8336L12.1632 20.5993V17.8336H13.4914H13.4998V17.8504V21.7846H11.2217H11.2133V21.7678L10.4315 18.9433V18.918L10.4146 18.9433L10.423 18.9517Z" fill="#00347B"/>
<path d="M18.6105 21.7258V21.709V17.8252H20.9307H20.9475V17.842L21.6873 20.6077V20.6161V17.842H23.0155V17.8504V21.793V21.8014H20.7374H20.7206L19.9304 18.9433V21.793V21.8014H19.9219H16.9713H16.9545V21.7846L16.6939 20.9608V20.944H16.6687H15.3741L15.1303 21.7846V21.793H13.5919H13.5835V21.7762L15.0042 17.842V17.8336H17.1394H17.1478L18.5769 21.7342L18.6105 21.7258ZM15.6094 19.9604H16.4921L16.055 18.6827L15.6094 19.9604Z" fill="#00347B"/>
<path d="M28.9004 17.8252H27.3536C27.349 17.8252 27.3452 17.829 27.3452 17.8336V21.7762C27.3452 21.7809 27.349 21.7846 27.3536 21.7846H28.9004C28.905 21.7846 28.9088 21.7809 28.9088 21.7762V17.8336C28.9088 17.829 28.905 17.8252 28.9004 17.8252Z" fill="#00347B"/>
<path d="M30.7497 20.9356L30.5059 21.7762H28.9507V21.7678L30.3798 17.8252H32.5318L33.9777 21.7678V21.7762H32.3469L32.0863 20.9272H32.0779H30.7749L30.7497 20.9356ZM30.9766 19.9604H31.8593L31.4222 18.6827L30.9766 19.952V19.9604Z" fill="#00347B"/>
<path d="M35.5832 20.6083H35.6505H37.4831V20.6167V21.7684H34.0196H34.0112V21.7516V17.8174H35.5664V17.8258V20.5999L35.5832 20.6083Z" fill="#00347B"/>
<path d="M14.0122 24.6265L14.0795 24.6433L14.1383 24.6601L14.1972 24.6769L14.256 24.6937L14.3149 24.7189L14.3737 24.7441L14.4326 24.7778L14.483 24.8114L14.5334 24.845L14.5839 24.8871L14.6259 24.9291L14.6679 24.9711L14.71 25.0132L14.7436 25.0636L14.7772 25.114L14.8108 25.1645L14.8529 25.2485L14.8865 25.3242L14.9033 25.3998V25.4755L14.9201 25.5596V25.6436V25.7193V25.795L14.8949 25.8706L14.8781 25.9379L14.8529 26.0051L14.8277 26.0724L14.794 26.1312L14.7604 26.1901L14.71 26.2489L14.6595 26.2993L14.6007 26.3498L14.5334 26.3918L14.4662 26.4338L14.3905 26.4675L14.3149 26.5011L14.2308 26.5347L14.1383 26.5599L14.0459 26.5852L13.945 26.602L13.8357 26.6188H13.718L13.5919 26.6356H13.3061H10.9019V26.6272V22.6846H13.3733H13.6003L13.7937 22.7014H13.8861L13.9702 22.7266L14.0543 22.7434L14.1383 22.7686L14.2392 22.8023L14.3317 22.8443L14.4157 22.8863L14.4998 22.9368L14.5755 22.9956L14.6427 23.0629L14.7016 23.1301L14.752 23.2058L14.7856 23.2646L14.8108 23.3319L14.8361 23.3991L14.8529 23.4748V23.5336L14.8697 23.6261V23.7186L14.8613 23.811L14.8445 23.9035L14.8277 23.9792L14.8024 24.0464L14.7772 24.1137L14.7436 24.1725L14.6848 24.2482L14.6175 24.3238L14.5418 24.3911L14.4578 24.4499L14.3653 24.5004L14.2644 24.5508L14.1551 24.5928L14.0375 24.6265H14.0122ZM12.3562 23.4411V24.1893H12.8437H12.9362L13.0203 24.1641L13.0623 24.1473L13.1043 24.1305L13.138 24.1137L13.1716 24.0884L13.2052 24.0632L13.2304 24.038L13.2557 24.0044L13.2725 23.9708L13.2893 23.9371V23.9035L13.3061 23.8699V23.8363V23.7438L13.2977 23.7102V23.6765L13.2725 23.6429L13.2557 23.6093L13.2304 23.5757L13.2052 23.5504L13.1716 23.5252L13.138 23.5L13.1043 23.4832L13.0623 23.4664L13.0203 23.4496L12.9362 23.4327H12.8437H12.3562V23.4411ZM13.3481 25.341V25.3074L13.3313 25.2738L13.3145 25.2401L13.2977 25.2065L13.2641 25.1645L13.222 25.1308L13.18 25.0972L13.1296 25.072L13.0707 25.0468L13.0035 25.03H12.9278L12.8521 25.0132H12.3562V25.8118H12.8017L12.9026 25.8034L12.9951 25.7865L13.0791 25.7613L13.1548 25.7193L13.1968 25.6857L13.2388 25.652L13.2725 25.6184L13.2977 25.5764L13.3229 25.5259L13.3397 25.4671V25.3998V25.3326L13.3481 25.341Z" fill="#00347B"/>
<path d="M18.056 25.795L18.0476 25.7865H16.753L16.5092 26.6272L16.5008 26.6356H14.9624V26.602L16.3747 22.693L16.3831 22.6846H18.5099H18.5267H18.5351L19.981 26.6272H18.3586H18.3502V26.6104L18.0896 25.7781L18.056 25.795ZM17.4087 23.5336L16.9631 24.8114H17.8374L17.602 24.1221L17.4003 23.5252L17.4087 23.5336Z" fill="#00347B"/>
<path d="M23.2933 25.4587V22.693V22.6846H23.3017H24.6299V22.693V26.6272V26.6356H24.6215H22.3433H22.3349V26.6188L21.5531 23.7942V23.769L21.5363 23.7942V26.6188V26.6272H21.5279H20.1997V22.693H20.2081H22.5283H22.5367V22.7098L23.2765 25.4503V25.4755L23.2933 25.4587Z" fill="#00347B"/>
<path d="M26.8237 24.9629V24.9713V26.619L26.8153 26.6274H25.2686V26.619V22.6848L25.277 22.668H26.8237V24.2063L27.7821 22.6848L27.7989 22.668H27.8157H29.5642L28.2108 24.5006V24.5174L29.6987 26.6022V26.6106H27.8577H27.8409L27.8241 26.5938L26.8153 24.9377L26.8237 24.9629Z" fill="#00347B"/>
</g>
<defs>
<clipPath id="clip0_9_392596">
<rect width="34.5" height="14.644" fill="white" transform="translate(3 12)"/>
</clipPath>
</defs>
</svg>
