<svg width="40" height="40" viewBox="0 0 40 40" fill="none" xmlns="http://www.w3.org/2000/svg">
<circle cx="20" cy="20" r="20" fill="#EA1539"/>
<path d="M19.8293 21.2121C21.2444 21.3001 22.6418 21.5308 24.0213 21.9041C25.0133 22.1726 25.8418 22.5486 26.5067 23.0321C27.6573 23.8695 28.2187 25.3415 27.3787 26.5961C26.5733 27.7961 25.1613 28.1588 23.7653 27.8295C23.0747 27.6668 22.5333 27.2846 22.1413 26.6828C21.7031 26.0126 21.2138 25.2624 20.6733 24.4321C20.6539 24.4023 20.6284 24.377 20.5985 24.3578C20.5685 24.3386 20.5348 24.326 20.4997 24.3209C20.4645 24.3157 20.4286 24.3181 20.3944 24.3278C20.3602 24.3376 20.3285 24.3545 20.3013 24.3775C19.8613 24.7499 19.452 25.1548 19.0733 25.5921C19.0259 25.6468 18.9951 25.7138 18.9844 25.7854C18.9738 25.857 18.9838 25.9301 19.0133 25.9961L19.984 28.2001C19.997 28.2306 20.0188 28.2566 20.0467 28.2748C20.1284 28.3299 20.2151 28.3704 20.3067 28.3961C21.4044 28.7117 22.612 28.8761 23.9293 28.8895C26.388 28.9135 29.2733 27.7295 30.4467 25.4535C31.6107 23.1961 31.408 20.4855 29.484 18.7215C27.82 17.1948 25.1813 16.6815 22.904 16.5508C22.8489 16.5473 22.8298 16.5193 22.8467 16.4668L23.392 14.7935C23.3984 14.7728 23.4115 14.7548 23.4294 14.7423C23.4472 14.7298 23.4687 14.7234 23.4907 14.7241C25.5529 14.7899 27.5929 14.9424 29.6107 15.1815C29.6356 15.1843 29.6607 15.1776 29.6808 15.1627C29.7009 15.1478 29.7144 15.1259 29.7187 15.1015L29.988 13.5361C30.0031 13.4464 30.0355 13.4401 30.0853 13.5175C31.0653 15.0521 31.712 16.8295 31.9093 18.6561C32.7107 26.0708 26.7733 32.3295 19.344 31.9681C16.268 31.8188 13.3987 30.4388 11.264 28.2081C11.1947 28.1353 11.2093 28.1077 11.308 28.1255C13.5773 28.537 15.9271 28.7615 18.3573 28.7988C18.3679 28.7988 18.3781 28.7947 18.3856 28.7875C18.3931 28.7802 18.3973 28.7704 18.3973 28.7601L18.4067 28.0361C18.4067 28.0041 18.3907 27.9873 18.3587 27.9855C17.2671 27.9233 16.5147 27.7797 16.1013 27.5548C15.9627 27.4793 15.8822 27.3548 15.86 27.1815C15.7987 26.689 15.7547 26.233 15.728 25.8135C15.5787 23.4686 15.5022 21.0784 15.4987 18.6428C15.4987 18.5539 15.5427 18.5104 15.6307 18.5121C16.3764 18.5326 17.1524 18.5366 17.9587 18.5241C18.2147 18.5206 18.4578 18.473 18.688 18.3815C19.0871 18.2233 19.4733 18.0744 19.8467 17.9348C19.9258 17.9055 19.9658 17.8486 19.9667 17.7641L19.9707 17.1081C19.9715 17.0441 19.9395 17.0117 19.8747 17.0108L15.5627 17.0028C15.5191 17.0028 15.4987 16.9815 15.5013 16.9388C15.5635 16.0144 15.5991 15.0393 15.608 14.0135C15.6115 13.5833 15.6809 13.2557 15.816 13.0308C16.3747 12.1015 17.4653 12.3428 18.292 12.7001C18.8982 12.9615 19.4938 13.2366 20.0787 13.5255C20.1744 13.5727 20.2831 13.5867 20.3877 13.5652C20.4922 13.5437 20.5866 13.488 20.656 13.4068L21.264 12.6921C21.2841 12.6685 21.2992 12.641 21.3084 12.6114C21.3176 12.5818 21.3208 12.5506 21.3176 12.5197C21.3145 12.4889 21.3052 12.4589 21.2903 12.4317C21.2753 12.4045 21.255 12.3807 21.2307 12.3615C20.796 12.0228 20.3489 11.6784 19.8893 11.3281C19.7275 11.2046 19.5449 11.133 19.3413 11.1135C16.9893 10.8815 14.1427 11.7775 12.42 13.4721C11.704 14.1761 11.2893 15.0255 11.168 16.0401C11.1227 16.4135 11.072 16.7908 11.016 17.1721C11.0129 17.1939 11.0026 17.2141 10.9869 17.2293C10.9712 17.2445 10.9509 17.254 10.9293 17.2561L9.42932 17.4255C9.40925 17.4276 9.39061 17.4367 9.3767 17.4511C9.36278 17.4655 9.3545 17.4843 9.35332 17.5041L9.27065 18.7695C9.27007 18.7784 9.27137 18.7873 9.27445 18.7957C9.27753 18.8041 9.28232 18.8117 9.28851 18.818C9.2947 18.8243 9.30213 18.8292 9.31032 18.8323C9.31851 18.8354 9.32726 18.8368 9.33598 18.8361L10.9267 18.7428C10.9384 18.7422 10.9501 18.7441 10.961 18.7483C10.9719 18.7526 10.9819 18.759 10.9901 18.7673C10.9984 18.7756 11.0049 18.7855 11.0091 18.7965C11.0133 18.8074 11.0152 18.8191 11.0147 18.8308C10.988 19.3499 10.9831 19.8566 11 20.3508C11.0791 22.6353 11.1618 24.7868 11.248 26.8055C11.2653 27.1895 10.8227 27.2188 10.5493 27.2428C10.488 27.2481 10.4391 27.2259 10.4027 27.1761C7.89065 23.7641 7.32398 19.3521 8.91998 15.4721C10.8213 10.8441 15.3213 7.92281 20.344 8.02815C23.848 8.10281 27.0987 9.77748 29.3147 12.4588C29.3884 12.5477 29.3684 12.5815 29.2547 12.5601C27.172 12.1681 25.0387 11.9161 22.9467 11.8348C22.8853 11.8321 22.8449 11.8601 22.8253 11.9188L19.7507 21.0948C19.7258 21.1677 19.752 21.2068 19.8293 21.2121Z" fill="white"/>
<circle cx="20" cy="20" r="19.5" stroke="black" stroke-opacity="0.05"/>
</svg>
