<svg width="40" height="40" viewBox="0 0 40 40" fill="none" xmlns="http://www.w3.org/2000/svg">
<circle cx="20" cy="20" r="20" fill="#00968F"/>
<path d="M31.039 25.4211C31.0244 25.4212 31.01 25.4179 30.9968 25.4114C30.9837 25.405 30.9722 25.3956 30.9633 25.384C30.9012 25.3125 24.9233 18.0961 22.7405 15.9104C20.7497 13.9176 14.1305 8.52184 14.0562 8.45827C14.0359 8.44163 14.023 8.41765 14.0204 8.39156C14.0177 8.36547 14.0255 8.33939 14.042 8.31901C14.0585 8.29863 14.0824 8.28562 14.1085 8.2828C14.1346 8.27998 14.1607 8.2876 14.1812 8.30398C14.249 8.3597 20.8826 13.7697 22.8797 15.7683C25.0712 17.9626 31.0555 25.1854 31.1147 25.259C31.1313 25.2792 31.1393 25.3051 31.1371 25.3311C31.1348 25.3571 31.1224 25.3812 31.1026 25.3983C31.0843 25.4129 31.0624 25.4209 31.039 25.4211ZM25.8383 31.7547C25.8149 31.7545 25.7923 31.7464 25.774 31.7318C25.7026 31.6726 18.4883 25.6797 16.2969 23.4876C14.2983 21.4868 8.89475 14.8554 8.84118 14.7797C8.82556 14.7649 8.81506 14.7455 8.81121 14.7243C8.80735 14.7031 8.81035 14.6812 8.81975 14.6618C8.82946 14.6427 8.845 14.6271 8.86412 14.6174C8.88325 14.6076 8.90498 14.6042 8.92618 14.6076C8.94005 14.6098 8.95331 14.6149 8.96512 14.6225C8.97692 14.6301 8.98701 14.6401 8.99475 14.6518C9.04832 14.7197 14.4462 21.3533 16.4383 23.3461C18.6219 25.5276 25.8298 31.519 25.8976 31.5783C25.9133 31.5915 25.9245 31.6092 25.9298 31.629C25.935 31.6488 25.9341 31.6697 25.9271 31.6889C25.9201 31.7082 25.9073 31.7248 25.8905 31.7366C25.8738 31.7483 25.8538 31.7547 25.8333 31.7547H25.8383Z" fill="#F6F8FD"/>
<path d="M14.6817 31.1908C14.6673 31.1908 14.653 31.1876 14.64 31.1816C14.6269 31.1755 14.6153 31.1667 14.6059 31.1558C14.5894 31.1356 14.5814 31.1097 14.5836 31.0837C14.5859 31.0576 14.5983 31.0335 14.6181 31.0165C14.6917 30.9551 21.8981 24.9701 24.0831 22.7844C26.0738 20.7894 31.4631 14.1644 31.5245 14.0901C31.5327 14.0799 31.5428 14.0715 31.5542 14.0653C31.5657 14.0591 31.5782 14.0552 31.5912 14.0539C31.6041 14.0526 31.6172 14.0538 31.6297 14.0576C31.6421 14.0613 31.6537 14.0675 31.6638 14.0758C31.6839 14.0925 31.6967 14.1165 31.6994 14.1425C31.7021 14.1686 31.6944 14.1946 31.6781 14.2151C31.6252 14.2808 26.2209 20.9244 24.2224 22.9237C22.0331 25.1179 14.8274 31.1094 14.7452 31.1679C14.7275 31.1835 14.7045 31.1917 14.6809 31.1908H14.6817ZM8.35523 25.9837C8.33176 25.9847 8.30876 25.9768 8.29094 25.9615C8.28051 25.9534 8.27187 25.9433 8.26556 25.9317C8.25925 25.9201 8.2554 25.9073 8.25426 25.8942C8.25312 25.881 8.25471 25.8678 8.25894 25.8553C8.26316 25.8428 8.26992 25.8313 8.2788 25.8215C8.3388 25.7501 14.3224 18.5258 16.5145 16.3337C18.5109 14.3322 25.1445 8.92222 25.2124 8.86937C25.2329 8.85506 25.2581 8.84904 25.2829 8.85253C25.3077 8.85602 25.3303 8.86875 25.3461 8.88817C25.3619 8.9076 25.3698 8.93228 25.3682 8.95727C25.3666 8.98226 25.3556 9.00572 25.3374 9.02294C25.2717 9.07651 18.6445 14.4801 16.6531 16.4729C14.4702 18.6608 8.49023 25.8772 8.43094 25.9487C8.42193 25.9602 8.4103 25.9695 8.39702 25.9757C8.38373 25.9819 8.36917 25.9849 8.35451 25.9844L8.35523 25.9837Z" fill="#F6F8FD"/>
<path d="M24.1475 29.6063C24.1278 29.6041 24.1097 29.5943 24.0972 29.579C24.0846 29.5636 24.0786 29.5439 24.0804 29.5242C24.0804 29.4542 24.7425 22.5113 24.7425 19.4177C24.7425 16.5977 24.1132 10.5456 24.1068 10.4863C24.1056 10.4766 24.1064 10.4667 24.1091 10.4573C24.1117 10.4479 24.1163 10.4391 24.1224 10.4314C24.1285 10.4237 24.1361 10.4174 24.1447 10.4127C24.1533 10.408 24.1628 10.4051 24.1725 10.4042C24.1823 10.4026 24.1923 10.4032 24.2018 10.4057C24.2114 10.4083 24.2203 10.4128 24.228 10.419C24.2358 10.4252 24.2421 10.4329 24.2467 10.4416C24.2513 10.4504 24.254 10.46 24.2547 10.4699C24.2547 10.5313 24.8918 16.5899 24.8918 19.4177C24.8918 22.5177 24.2361 29.4749 24.2275 29.5384C24.2267 29.5532 24.2214 29.5673 24.2124 29.5789C24.2033 29.5905 24.1909 29.5991 24.1768 29.6034C24.1676 29.6063 24.1572 29.6073 24.1475 29.6063Z" fill="#F6F8FD"/>
<path d="M29.5302 15.8332C29.4602 15.8332 22.5252 15.1703 19.4352 15.1703C16.6188 15.1703 10.8538 15.7732 10.7966 15.7853C10.782 15.7871 10.7671 15.7845 10.754 15.7777C10.7409 15.771 10.7301 15.7604 10.7231 15.7475C10.7184 15.7391 10.7155 15.7298 10.7145 15.7203C10.7133 15.7106 10.7141 15.7007 10.7167 15.6913C10.7194 15.6819 10.7239 15.6731 10.7301 15.6654C10.7362 15.6578 10.7438 15.6514 10.7524 15.6467C10.761 15.6421 10.7704 15.6391 10.7802 15.6382C10.8395 15.6382 16.6109 15.0225 19.4352 15.0225C22.5309 15.0225 29.4809 15.6796 29.5445 15.6853C29.5639 15.6871 29.5819 15.6965 29.5945 15.7115C29.6071 15.7265 29.6132 15.7458 29.6116 15.7653C29.6096 15.785 29.6 15.8032 29.5848 15.8159C29.5695 15.8286 29.5499 15.8348 29.5302 15.8332ZM19.4273 24.8817C16.6023 24.8817 10.8316 24.2846 10.7716 24.2782C10.752 24.276 10.7341 24.2663 10.7216 24.251C10.7096 24.2354 10.7042 24.2156 10.7066 24.196C10.7074 24.1812 10.7128 24.1669 10.7222 24.1554C10.7316 24.1438 10.7444 24.1355 10.7588 24.1317C10.7684 24.1294 10.7784 24.1292 10.7881 24.131C10.8452 24.131 16.6102 24.7339 19.4273 24.7339C22.5166 24.7339 28.7695 24.1367 28.8309 24.131C28.8406 24.1295 28.8506 24.13 28.8601 24.1326C28.8696 24.1351 28.8785 24.1395 28.8862 24.1456C28.8939 24.1517 28.9002 24.1593 28.9049 24.168C28.9095 24.1767 28.9123 24.1862 28.9131 24.196C28.9147 24.2159 28.9085 24.2355 28.8958 24.2509C28.8831 24.2662 28.865 24.276 28.8452 24.2782C28.7838 24.2853 22.5231 24.8817 19.4273 24.8817Z" fill="#F6F8FD"/>
<path d="M15.8067 29.6064C15.7882 29.6062 15.7704 29.5991 15.7567 29.5866C15.743 29.5741 15.7344 29.557 15.7325 29.5386C15.7325 29.4686 15.0703 22.5172 15.0703 19.4179C15.0703 16.5893 15.6989 10.5314 15.706 10.47C15.7082 10.4505 15.718 10.4327 15.7332 10.4204C15.7485 10.4081 15.768 10.4023 15.7875 10.4043C15.7973 10.405 15.8068 10.4077 15.8155 10.4122C15.8242 10.4168 15.8319 10.4231 15.8381 10.4307C15.8442 10.4383 15.8487 10.4472 15.8513 10.4566C15.8539 10.4661 15.8546 10.476 15.8532 10.4857C15.8532 10.5457 15.2196 16.5979 15.2196 19.4179C15.2196 22.5107 15.8739 29.4543 15.8803 29.5243C15.8815 29.534 15.8807 29.5439 15.8781 29.5533C15.8754 29.5627 15.8709 29.5715 15.8647 29.5792C15.8586 29.5868 15.851 29.5932 15.8424 29.5979C15.8338 29.6026 15.8243 29.6055 15.8146 29.6064H15.8067ZM27.6139 27.17C27.5826 27.17 27.552 27.16 27.5268 27.1415C27.5015 27.123 27.4827 27.097 27.4732 27.0672C27.4503 26.9979 25.2567 20.2372 24.0332 17.4007C22.9182 14.815 20.0275 9.6443 19.9946 9.58716C19.9847 9.56998 19.9784 9.55102 19.9759 9.53137C19.9734 9.51171 19.9749 9.49177 19.9802 9.47269C19.9855 9.45361 19.9946 9.43578 20.0069 9.42023C20.0192 9.40469 20.0344 9.39175 20.0517 9.38216C20.0689 9.37229 20.0879 9.36593 20.1075 9.36347C20.1272 9.361 20.1471 9.36247 20.1662 9.36779C20.1853 9.37311 20.2031 9.38217 20.2187 9.39444C20.2342 9.40672 20.2471 9.42197 20.2567 9.4393C20.2896 9.49644 23.1867 14.6793 24.3082 17.2793C25.5382 20.1286 27.7353 26.9036 27.7582 26.9729C27.7652 26.9955 27.7668 27.0194 27.7629 27.0428C27.759 27.0662 27.7498 27.0883 27.7358 27.1074C27.7219 27.1266 27.7037 27.1422 27.6826 27.1531C27.6616 27.1639 27.6376 27.1697 27.6139 27.17Z" fill="#F6F8FD"/>
<path d="M9.43299 20.0047C9.40999 20.0044 9.38736 19.9988 9.36682 19.9884C9.34628 19.9781 9.32836 19.9632 9.3144 19.9449C9.30044 19.9266 9.29081 19.9054 9.28624 19.8828C9.28167 19.8603 9.28227 19.837 9.28799 19.8147C9.29308 19.7954 9.30204 19.7774 9.31432 19.7617C9.32659 19.7459 9.34194 19.7329 9.35942 19.7233C9.41656 19.6904 14.6894 16.729 17.2951 15.6069C20.1401 14.3747 27.008 12.144 27.0794 12.1176C27.1074 12.1085 27.1375 12.108 27.1657 12.1161C27.194 12.1243 27.2192 12.1407 27.238 12.1633C27.2534 12.182 27.264 12.2042 27.2689 12.228C27.2738 12.2517 27.2729 12.2763 27.2662 12.2996C27.2595 12.323 27.2473 12.3443 27.2306 12.3619C27.2138 12.3794 27.1931 12.3926 27.1701 12.4004C27.1001 12.4233 20.2473 14.6583 17.4137 15.8754C14.8266 16.9983 9.56228 19.954 9.49656 19.9861C9.47732 19.9977 9.45543 20.0041 9.43299 20.0047ZM13.0251 27.7297C12.9989 27.7291 12.9733 27.7216 12.9509 27.708C12.9284 27.6943 12.91 27.6751 12.8973 27.6521C12.8847 27.6291 12.8783 27.6032 12.8788 27.577C12.8793 27.5507 12.8866 27.5251 12.9001 27.5026C12.9182 27.4725 12.9463 27.4498 12.9794 27.4383C13.0394 27.4183 18.9659 25.5569 21.5466 24.4404C24.3801 23.209 30.3109 19.964 30.3744 19.9247C30.4089 19.9092 30.448 19.9072 30.4839 19.9193C30.5198 19.9314 30.5498 19.9566 30.5678 19.9898C30.5859 20.0231 30.5907 20.062 30.5814 20.0986C30.572 20.1353 30.5491 20.1671 30.5173 20.1876C30.4523 20.2226 24.5116 23.4819 21.6659 24.7133C19.068 25.834 13.1294 27.7011 13.0701 27.7204C13.0556 27.7256 13.0405 27.729 13.0251 27.7304V27.7297Z" fill="#F6F8FD"/>
<path d="M19.7639 30.7784C19.7362 30.7782 19.7091 30.7703 19.6855 30.7557C19.662 30.7411 19.6429 30.7203 19.6304 30.6956C19.5996 30.6342 16.4675 24.4792 15.2375 21.6284C14.1161 19.0299 12.2275 13.0084 12.2075 12.9506C12.2007 12.923 12.2019 12.8941 12.2108 12.8672C12.2198 12.8402 12.2363 12.8164 12.2583 12.7984C12.2803 12.7805 12.3069 12.7692 12.3351 12.7657C12.3633 12.7623 12.3919 12.767 12.4175 12.7792C12.4517 12.7959 12.4783 12.825 12.4918 12.8606C12.5132 12.9249 14.3968 18.9249 15.5118 21.5113C16.7418 24.3499 19.8596 30.4949 19.8904 30.5563C19.9048 30.5829 19.9109 30.6133 19.9077 30.6434C19.9045 30.6735 19.8922 30.7019 19.8725 30.7249C19.8594 30.74 19.8433 30.7524 19.8254 30.7613C19.8061 30.7707 19.7853 30.777 19.7639 30.7784Z" fill="#F6F8FD"/>
<path d="M11.9752 29.7289C11.957 29.7318 11.9384 29.7318 11.9202 29.7289C11.8704 29.7129 11.8286 29.6784 11.8034 29.6326C11.7781 29.5868 11.7714 29.5331 11.7845 29.4824C11.8109 29.3924 14.4495 20.3824 15.5916 17.4946C16.6345 14.8617 20.5852 7.25744 20.6266 7.17958C20.6367 7.13319 20.6628 7.0918 20.7002 7.06258C20.7377 7.03336 20.7841 7.01815 20.8316 7.01958C20.8711 7.02048 20.9094 7.03275 20.9421 7.05494C20.9748 7.07712 21.0003 7.10826 21.0157 7.14463C21.0311 7.18099 21.0357 7.22102 21.0289 7.25992C21.0221 7.29881 21.0041 7.33491 20.9773 7.36387C20.938 7.43958 16.9959 15.0253 15.9609 17.6424C14.8266 20.5032 12.1923 29.4974 12.1616 29.5874C12.1487 29.6271 12.124 29.6619 12.0908 29.6872C12.0577 29.7124 12.0176 29.727 11.9759 29.7289H11.9752ZM21.1287 6.88387C21.193 6.88387 21.2546 6.85836 21.3 6.81295C21.3454 6.76753 21.3709 6.70594 21.3709 6.64172C21.3709 6.5775 21.3454 6.51591 21.3 6.4705C21.2546 6.42509 21.193 6.39958 21.1287 6.39958C21.0645 6.39958 21.0029 6.42509 20.9575 6.4705C20.9121 6.51591 20.8866 6.5775 20.8866 6.64172C20.8866 6.70594 20.9121 6.76753 20.9575 6.81295C21.0029 6.85836 21.0645 6.88387 21.1287 6.88387ZM21.4895 6.19815C21.5537 6.19815 21.6153 6.17264 21.6607 6.12723C21.7061 6.08182 21.7316 6.02023 21.7316 5.95601C21.7316 5.89179 21.7061 5.8302 21.6607 5.78479C21.6153 5.73938 21.5537 5.71387 21.4895 5.71387C21.4252 5.71387 21.3636 5.73938 21.3182 5.78479C21.2728 5.8302 21.2473 5.89179 21.2473 5.95601C21.2473 6.02023 21.2728 6.08182 21.3182 6.12723C21.3636 6.17264 21.4252 6.19815 21.4895 6.19815ZM11.7573 30.5046C11.8215 30.5046 11.8831 30.4791 11.9285 30.4337C11.9739 30.3882 11.9995 30.3267 11.9995 30.2624C11.9995 30.1982 11.9739 30.1366 11.9285 30.0912C11.8831 30.0458 11.8215 30.0203 11.7573 30.0203C11.6931 30.0203 11.6315 30.0458 11.5861 30.0912C11.5407 30.1366 11.5152 30.1982 11.5152 30.2624C11.5152 30.3267 11.5407 30.3882 11.5861 30.4337C11.6315 30.4791 11.6931 30.5046 11.7573 30.5046ZM11.5552 31.2353C11.588 31.2371 11.6209 31.2322 11.6518 31.2208C11.6827 31.2095 11.7109 31.1919 11.7348 31.1693C11.7587 31.1467 11.7777 31.1194 11.7907 31.0892C11.8038 31.059 11.8105 31.0264 11.8105 30.9935C11.8105 30.9606 11.8038 30.928 11.7907 30.8978C11.7777 30.8676 11.7587 30.8403 11.7348 30.8177C11.7109 30.7951 11.6827 30.7776 11.6518 30.7662C11.6209 30.7549 11.588 30.7499 11.5552 30.7517C11.4933 30.7551 11.4351 30.782 11.3925 30.827C11.3499 30.872 11.3262 30.9316 11.3262 30.9935C11.3262 31.0555 11.3499 31.115 11.3925 31.16C11.4351 31.205 11.4933 31.2319 11.5552 31.2353ZM19.2245 32.9424C19.1904 32.9413 19.1572 32.9318 19.1278 32.9147C19.0984 32.8975 19.0737 32.8733 19.056 32.8443C19.0383 32.8152 19.0281 32.7822 19.0263 32.7482C19.0246 32.7142 19.0313 32.6803 19.0459 32.6496C19.0887 32.5653 23.3345 24.2139 24.4702 21.3453C25.5073 18.7282 27.8345 10.5024 27.8587 10.4182C27.8818 10.3791 27.9171 10.3489 27.9592 10.3321C28.0013 10.3153 28.0478 10.3129 28.0913 10.3253C28.1349 10.3377 28.1732 10.3642 28.2001 10.4006C28.227 10.4371 28.2411 10.4814 28.2402 10.5267C28.218 10.611 25.8852 18.8574 24.8416 21.491C23.6952 24.3782 19.4416 32.746 19.4009 32.8303C19.3843 32.8632 19.3592 32.8911 19.3282 32.911C19.2971 32.9308 19.2613 32.9412 19.2245 32.9424ZM28.218 10.0382C28.2498 10.0381 28.2813 10.0318 28.3107 10.0196C28.34 10.0074 28.3667 9.9895 28.3891 9.96698C28.4116 9.94446 28.4294 9.91774 28.4415 9.88834C28.4536 9.85895 28.4599 9.82745 28.4598 9.79565C28.4598 9.76385 28.4535 9.73238 28.4412 9.70302C28.429 9.67366 28.4112 9.64699 28.3886 9.62454C28.3661 9.60209 28.3394 9.58429 28.31 9.57216C28.2806 9.56004 28.2491 9.55382 28.2173 9.55387C28.1531 9.55387 28.0915 9.57938 28.0461 9.62479C28.0007 9.6702 27.9752 9.73179 27.9752 9.79601C27.9752 9.86023 28.0007 9.92182 28.0461 9.96723C28.0915 10.0126 28.1538 10.0382 28.218 10.0382ZM28.4109 9.30387C28.4751 9.30377 28.5367 9.27817 28.582 9.23269C28.6273 9.18721 28.6528 9.12559 28.6527 9.06137C28.6526 8.99715 28.627 8.93559 28.5815 8.89025C28.536 8.84491 28.4744 8.81949 28.4102 8.81958C28.3459 8.81958 28.2844 8.84509 28.2389 8.8905C28.1935 8.93591 28.168 8.9975 28.168 9.06172C28.168 9.12594 28.1935 9.18753 28.2389 9.23295C28.2844 9.27836 28.3459 9.30387 28.4102 9.30387H28.4109ZM18.9166 33.5996C18.9808 33.5996 19.0424 33.5741 19.0878 33.5287C19.1332 33.4832 19.1587 33.4217 19.1587 33.3574C19.1587 33.2932 19.1332 33.2316 19.0878 33.1862C19.0424 33.1408 18.9808 33.1153 18.9166 33.1153C18.8524 33.1153 18.7908 33.1408 18.7454 33.1862C18.7 33.2316 18.6745 33.2932 18.6745 33.3574C18.6745 33.4217 18.7 33.4832 18.7454 33.5287C18.7908 33.5741 18.8524 33.5996 18.9166 33.5996ZM18.5802 34.2853C18.6444 34.2853 18.706 34.2598 18.7514 34.2144C18.7968 34.169 18.8223 34.1074 18.8223 34.0432C18.8223 33.9789 18.7968 33.9173 18.7514 33.8719C18.706 33.8265 18.6444 33.801 18.5802 33.801C18.5159 33.801 18.4544 33.8265 18.4089 33.8719C18.3635 33.9173 18.338 33.9789 18.338 34.0432C18.338 34.1074 18.3635 34.169 18.4089 34.2144C18.4544 34.2598 18.5159 34.2853 18.5802 34.2853Z" fill="#F6F8FD"/>
<path d="M29.5296 28.2517C29.5106 28.2535 29.4914 28.2535 29.4724 28.2517C29.3817 28.2252 20.3817 25.5838 17.4974 24.4409C14.8674 23.3881 7.27172 19.4309 7.19601 19.3917C7.16256 19.3611 7.14012 19.3204 7.13217 19.2758C7.12422 19.2312 7.1312 19.1853 7.15204 19.1451C7.17288 19.1049 7.20641 19.0726 7.24742 19.0534C7.28843 19.0342 7.33464 19.0291 7.37887 19.0388C7.45458 19.0795 15.0332 23.0245 17.6453 24.0631C20.5153 25.2024 29.4946 27.8352 29.5846 27.8617C29.6251 27.8798 29.6587 27.9107 29.6801 27.9496C29.7016 27.9885 29.7099 28.0333 29.7037 28.0773C29.6975 28.1213 29.6771 28.1621 29.6457 28.1936C29.6143 28.225 29.5736 28.2454 29.5296 28.2517ZM6.63672 19.0324C6.70094 19.0324 6.76253 19.0069 6.80795 18.9615C6.85336 18.916 6.87887 18.8544 6.87887 18.7902C6.87887 18.726 6.85336 18.6644 6.80795 18.619C6.76253 18.5736 6.70094 18.5481 6.63672 18.5481C6.5725 18.5481 6.51091 18.5736 6.4655 18.619C6.42009 18.6644 6.39458 18.726 6.39458 18.7902C6.39458 18.8544 6.42009 18.916 6.4655 18.9615C6.51091 19.0069 6.5725 19.0324 6.63672 19.0324ZM5.95601 18.6059C6.02023 18.6059 6.08182 18.5804 6.12723 18.535C6.17264 18.4896 6.19815 18.428 6.19815 18.3638C6.19815 18.2996 6.17264 18.238 6.12723 18.1926C6.08182 18.1472 6.02023 18.1217 5.95601 18.1217C5.89179 18.1217 5.8302 18.1472 5.78479 18.1926C5.73938 18.238 5.71387 18.2996 5.71387 18.3638C5.71387 18.428 5.73938 18.4896 5.78479 18.535C5.8302 18.5804 5.89179 18.6059 5.95601 18.6059ZM30.2017 28.4674C30.2335 28.4674 30.265 28.4611 30.2944 28.4489C30.3238 28.4368 30.3505 28.4189 30.3729 28.3965C30.3954 28.374 30.4133 28.3473 30.4254 28.3179C30.4376 28.2885 30.4439 28.257 30.4439 28.2252C30.4439 28.1934 30.4376 28.1619 30.4254 28.1326C30.4133 28.1032 30.3954 28.0765 30.3729 28.054C30.3505 28.0315 30.3238 28.0137 30.2944 28.0015C30.265 27.9894 30.2335 27.9831 30.2017 27.9831C30.1375 27.9831 30.0759 28.0086 30.0305 28.054C29.9851 28.0994 29.9596 28.161 29.9596 28.2252C29.9596 28.2894 29.9851 28.351 30.0305 28.3965C30.0759 28.4419 30.1375 28.4674 30.2017 28.4674ZM30.9374 28.6559C30.9703 28.6577 31.0032 28.6528 31.0341 28.6415C31.065 28.6301 31.0932 28.6126 31.1171 28.59C31.141 28.5673 31.16 28.5401 31.173 28.5099C31.186 28.4796 31.1927 28.4471 31.1927 28.4142C31.1927 28.3813 31.186 28.3487 31.173 28.3185C31.16 28.2882 31.141 28.261 31.1171 28.2384C31.0932 28.2157 31.065 28.1982 31.0341 28.1869C31.0032 28.1755 30.9703 28.1706 30.9374 28.1724C30.8756 28.1757 30.8174 28.2027 30.7748 28.2477C30.7322 28.2926 30.7084 28.3522 30.7084 28.4142C30.7084 28.4761 30.7322 28.5357 30.7748 28.5807C30.8174 28.6256 30.8756 28.6526 30.9374 28.6559ZM32.7374 20.9931C32.7062 20.9929 32.6754 20.9856 32.6474 20.9717C32.5632 20.9288 24.2217 16.6788 21.356 15.5395C18.7439 14.5002 10.521 12.1717 10.4424 12.1488C10.4024 12.1263 10.3711 12.091 10.3536 12.0486C10.336 12.0062 10.3331 11.9592 10.3455 11.915C10.3578 11.8708 10.3847 11.832 10.4217 11.8048C10.4587 11.7777 10.5037 11.7637 10.5496 11.7652C10.6332 11.7895 18.871 14.1252 21.5003 15.1702C24.3853 16.3152 32.7432 20.5738 32.8267 20.6167C32.8622 20.6397 32.8897 20.6732 32.9054 20.7126C32.9211 20.7519 32.9242 20.7951 32.9143 20.8363C32.9045 20.8775 32.8821 20.9146 32.8503 20.9425C32.8185 20.9705 32.7788 20.9879 32.7367 20.9924L32.7374 20.9931ZM9.81172 12.0031C9.87595 12.0031 9.93753 11.9776 9.98295 11.9322C10.0284 11.8868 10.0539 11.8252 10.0539 11.7609C10.0539 11.6967 10.0284 11.6351 9.98295 11.5897C9.93753 11.5443 9.87595 11.5188 9.81172 11.5188C9.7475 11.5188 9.68591 11.5443 9.6405 11.5897C9.59509 11.6351 9.56958 11.6967 9.56958 11.7609C9.56958 11.8252 9.59509 11.8868 9.6405 11.9322C9.68591 11.9776 9.7475 12.0031 9.81172 12.0031ZM9.06815 11.8345C9.10101 11.8363 9.13389 11.8314 9.16478 11.82C9.19566 11.8087 9.22392 11.7912 9.24781 11.7685C9.2717 11.7459 9.29073 11.7186 9.30373 11.6884C9.31674 11.6582 9.32344 11.6256 9.32344 11.5927C9.32344 11.5598 9.31674 11.5273 9.30373 11.497C9.29073 11.4668 9.2717 11.4395 9.24781 11.4169C9.22392 11.3943 9.19566 11.3768 9.16478 11.3654C9.13389 11.3541 9.10101 11.3492 9.06815 11.3509C9.0063 11.3543 8.94809 11.3812 8.90549 11.4262C8.8629 11.4712 8.83916 11.5308 8.83916 11.5927C8.83916 11.6547 8.8629 11.7143 8.90549 11.7592C8.94809 11.8042 9.0063 11.8312 9.06815 11.8345ZM33.361 21.3252C33.4252 21.3252 33.4868 21.2997 33.5322 21.2543C33.5776 21.2089 33.6032 21.1473 33.6032 21.0831C33.6032 21.0189 33.5776 20.9573 33.5322 20.9119C33.4868 20.8665 33.4252 20.8409 33.361 20.8409C33.2968 20.8409 33.2352 20.8665 33.1898 20.9119C33.1444 20.9573 33.1189 21.0189 33.1189 21.0831C33.1189 21.1473 33.1444 21.2089 33.1898 21.2543C33.2352 21.2997 33.2968 21.3252 33.361 21.3252ZM34.0432 21.6595C34.1074 21.6595 34.169 21.634 34.2144 21.5886C34.2598 21.5432 34.2853 21.4816 34.2853 21.4174C34.2853 21.3532 34.2598 21.2916 34.2144 21.2462C34.169 21.2007 34.1074 21.1752 34.0432 21.1752C33.9789 21.1752 33.9173 21.2007 33.8719 21.2462C33.8265 21.2916 33.801 21.3532 33.801 21.4174C33.801 21.4816 33.8265 21.5432 33.8719 21.5886C33.9173 21.634 33.9789 21.6595 34.0432 21.6595Z" fill="#F6F8FD"/>
<circle cx="20" cy="20" r="19.5" stroke="black" stroke-opacity="0.05"/>
</svg>
