<svg width="40" height="40" viewBox="0 0 40 40" fill="none" xmlns="http://www.w3.org/2000/svg">
<circle cx="20" cy="20" r="20" fill="#F6F8FA"/>
<g clip-path="url(#clip0_9_395443)">
<path d="M22.6154 16.3574C18.0181 16.3574 14.5361 20.1496 14.5361 24.8574H19.3933C19.3933 21.866 21.6027 19.1381 25.169 19.1381C28.2412 19.1381 30.3194 21.69 30.3194 24.8574H30.932C30.9102 20.1496 27.2127 16.3574 22.6154 16.3574Z" fill="#FCB126"/>
<path d="M19.9893 12.7139C13.2835 12.7139 7.85742 18.1478 7.85742 24.8567H13.9289C13.9289 19.7974 17.7174 15.6834 22.7907 15.6834C27.864 15.6834 31.536 19.7974 31.536 24.8567H32.1431C32.1213 18.1478 26.6946 12.7139 19.9893 12.7139Z" fill="#B31F29"/>
<path d="M24.8571 20C22.1857 20 20 22.0412 20 24.8571H20.6059C20.6059 23.4935 21.3485 22.3934 22.6131 22.3934C23.8778 22.3934 24.8571 23.4935 24.8571 24.8571H29.7119C29.7119 22.0412 27.5292 20 24.8571 20Z" fill="#7F2427"/>
</g>
<circle cx="20" cy="20" r="19.5" stroke="black" stroke-opacity="0.05"/>
<defs>
<clipPath id="clip0_9_395443">
<rect width="26" height="13" fill="white" transform="translate(7 12)"/>
</clipPath>
</defs>
</svg>
