<svg width="40" height="40" viewBox="0 0 40 40" fill="none" xmlns="http://www.w3.org/2000/svg">
<circle cx="20" cy="20" r="20" fill="#FF6600"/>
<g clip-path="url(#clip0_9_400474)">
<path d="M34.1428 23.2147H32.8571V24.5004H34.1428V23.2147ZM28.9903 16.1645L30.465 22.9916L31.8221 16.1645H33.2145L31.3811 24.4895H29.6145L27.7143 16.1651H28.991L28.9903 16.1645ZM8.42854 16.1433H7.14282V17.429H8.42854V24.5004H9.71425V17.429H11V16.1433H9.71425V14.2147C9.71425 13.9678 9.76568 13.6991 9.90711 13.5699C10.0485 13.4413 10.2645 13.3321 10.5583 13.3321H11V12.2861H10.2613C9.53554 12.2861 9.21475 12.4552 8.88239 12.7233C8.55004 12.9907 8.42854 13.4053 8.42854 13.9974V16.1433ZM11.6428 24.5004H12.9285V16.1433H11.6428V24.5004ZM20 20.6433H23.2143V18.1175C23.211 16.5798 22.4338 15.9691 20.9623 15.9691C19.4323 15.9691 18.7143 16.5785 18.7143 18.1278V22.3513C18.7188 23.7611 19.6155 24.6187 20.9617 24.6187C22.3072 24.6187 23.211 23.8897 23.2143 22.352V21.929H21.9285V22.4754C21.9285 23.0398 21.557 23.4301 20.9617 23.4301C20.3651 23.4301 20 23.0366 20 22.4748V20.6433ZM20 17.978C20 17.5074 20.2809 17.0201 20.9623 17.0201C21.6431 17.0201 21.9285 17.4997 21.9285 17.9773V19.3608H20V17.978ZM16.4649 19.7536C15.2962 18.8407 15.0217 18.7083 15.0217 18.0275C15.0217 17.4476 15.3457 17.0953 15.9249 17.0953C16.5035 17.0953 16.7857 17.4431 16.7857 18.0339V18.7147H18.0714V17.5479C18.0663 16.5611 17.1303 15.9472 15.806 15.9472C14.5029 15.9472 13.5791 16.4506 13.5714 18.0275C13.5701 18.2956 13.572 18.2956 13.5714 18.1921C13.574 18.6877 13.6511 19.4739 15.0127 20.5256L15.4029 20.8258C16.407 21.5876 16.652 21.6796 16.6475 22.5853C16.6475 23.144 16.3826 23.5599 15.7314 23.5599C15.0808 23.5599 14.8571 23.1408 14.8571 22.8772V21.929H13.5714V22.9113C13.5714 24.2664 14.5511 24.6901 15.8201 24.6901C17.0904 24.6901 18.0714 24.2626 18.0714 22.5198V22.3745C18.0682 21.1569 17.8232 20.8297 16.4649 19.7536ZM25.1428 17.0131V16.1645H23.8565V24.494H25.1428V18.6819C25.1428 18.2326 25.6372 17.7858 25.938 17.6116C26.2222 17.4451 26.6252 17.3563 27.0714 17.3512V16.0584C26.217 16.0738 25.5761 16.2159 25.1428 16.9822V17.0131Z" fill="white"/>
</g>
<circle cx="20" cy="20" r="19.5" stroke="black" stroke-opacity="0.05"/>
<defs>
<clipPath id="clip0_9_400474">
<rect width="28" height="13" fill="white" transform="translate(7 12)"/>
</clipPath>
</defs>
</svg>
