<svg width="40" height="40" viewBox="0 0 40 40" fill="none" xmlns="http://www.w3.org/2000/svg">
<circle cx="20" cy="20" r="20" fill="#003B66"/>
<g clip-path="url(#clip0_9_412186)">
<path d="M23.222 21.7413C22.7544 22.1529 22.1328 22.3823 21.4866 22.3819C21.0755 22.3821 20.6706 22.2896 20.3071 22.1123C19.9436 21.9351 19.6325 21.6785 19.401 21.3649C19.1694 21.0514 19.0244 20.6903 18.9785 20.3132C18.9327 19.9361 18.9873 19.5543 19.1378 19.2012C19.2883 18.848 19.53 18.5342 19.8418 18.2869C20.1537 18.0397 20.5263 17.8666 20.9272 17.7826C21.3282 17.6986 21.7452 17.7064 22.1422 17.8052C22.5391 17.904 22.9038 18.0909 23.2047 18.3495L24.0987 16.9628C23.4699 16.5099 22.7158 16.2295 21.9225 16.1537C21.1292 16.0779 20.3288 16.2099 19.613 16.5344C18.8971 16.8589 18.2947 17.3629 17.8747 17.9887C17.4547 18.6146 17.2341 19.3369 17.238 20.073C17.242 20.8092 17.4704 21.5295 17.8971 22.1514C18.3239 22.7733 18.9317 23.2718 19.651 23.5897C20.3703 23.9077 21.172 24.0323 21.9645 23.9492C22.7569 23.8662 23.508 23.5789 24.1318 23.1202L23.222 21.7413ZM13.1597 18.0571V16.1143H7.37158V23.8862H9.47634V21.4576H12.6335V19.5147H9.47634V18.0576L13.1597 18.0571ZM16.3105 23.8857H14.2121V16.1143H16.3105V23.8857ZM28.4518 22.3848C28.1175 22.3893 27.7856 22.3324 27.4753 22.2174C27.1651 22.1025 26.8827 21.9317 26.6445 21.7151C26.4064 21.4985 26.2173 21.2403 26.0882 20.9556C25.9591 20.6709 25.8926 20.3654 25.8926 20.0568C25.8925 19.7482 25.959 19.4426 26.088 19.1579C26.217 18.8732 26.4061 18.615 26.6442 18.3984C26.8822 18.1817 27.1646 18.0109 27.4748 17.8959C27.7851 17.7808 28.117 17.7239 28.4513 17.7283C29.1203 17.7283 29.7619 17.9736 30.235 18.4103C30.7081 18.847 30.9739 19.4392 30.9739 20.0568C30.9739 20.6744 30.7081 21.2666 30.235 21.7033C29.7619 22.14 29.1203 22.3853 28.4513 22.3853L28.4518 22.3848ZM28.4518 16.1366C27.894 16.1365 27.3416 16.2378 26.8262 16.4348C26.3108 16.6318 25.8424 16.9205 25.448 17.2846C25.0535 17.6487 24.7406 18.081 24.5271 18.5567C24.3137 19.0325 24.2038 19.5424 24.2039 20.0573C24.2038 20.5723 24.3135 21.0822 24.527 21.558C24.7404 22.0338 25.0533 22.4661 25.4478 22.8303C25.8423 23.1944 26.3106 23.4832 26.826 23.6802C27.3415 23.8772 27.8939 23.9786 28.4518 23.9785C29.5784 23.9785 30.6589 23.5653 31.4556 22.83C32.2522 22.0946 32.6998 21.0972 32.6998 20.0573C32.6998 19.0173 32.2522 18.02 31.4556 17.2846C30.6589 16.5492 29.5784 16.1366 28.4518 16.1366Z" fill="white"/>
</g>
<circle cx="20" cy="20" r="19.5" stroke="black" stroke-opacity="0.05"/>
<defs>
<clipPath id="clip0_9_412186">
<rect width="26" height="8" fill="white" transform="translate(7 16)"/>
</clipPath>
</defs>
</svg>
