<svg width="40" height="40" viewBox="0 0 40 40" fill="none" xmlns="http://www.w3.org/2000/svg">
<circle cx="20" cy="20" r="20" fill="#00205C"/>
<g clip-path="url(#clip0_9_387350)">
<path d="M9.59564 27.1321C10.4841 28.6452 12.0864 29.6533 13.8459 29.7725C13.9943 29.7827 14.1456 29.7878 14.3 29.7878C19.8339 29.7873 25.4491 29.7872 31.1454 29.7875C31.1464 29.7875 31.1474 29.7873 31.1484 29.787C31.1493 29.7866 31.1502 29.786 31.1509 29.7853C31.1516 29.7846 31.1522 29.7837 31.1526 29.7828C31.1529 29.7818 31.1531 29.7808 31.1531 29.7798C31.1534 25.0381 31.1528 20.2974 31.1511 15.5578C31.1508 14.7155 30.9668 13.9251 30.5992 13.1868C30.2632 12.5121 29.8128 11.9372 29.248 11.462C28.2435 10.6168 27.0378 10.1843 25.7216 10.1846C20.1557 10.1859 14.5367 10.1862 8.86466 10.1853C8.86207 10.1853 8.85958 10.1863 8.85774 10.1882C8.85591 10.1901 8.85488 10.1926 8.85488 10.1953C8.85397 14.9295 8.85404 19.6662 8.85511 24.4052C8.85526 25.3825 9.1021 26.2915 9.59564 27.1321Z" stroke="#8090AE" stroke-width="2"/>
<path d="M30.3684 15.234C30.2621 13.8572 29.5302 12.5836 28.407 11.7968C27.6502 11.2666 26.8099 10.9852 25.8862 10.9526C25.8071 10.9497 25.6791 10.9482 25.5022 10.9482C20.1892 10.9487 14.8975 10.9493 9.62741 10.9501C9.62529 10.9501 9.62327 10.9509 9.62178 10.9525C9.62028 10.954 9.61944 10.9561 9.61944 10.9583C9.61914 15.4518 9.61906 19.9459 9.61922 24.4404C9.61922 24.6111 9.62953 24.7766 9.65016 24.9368C9.77058 25.8768 10.1407 26.7049 10.7604 27.4209C10.9075 27.591 11.066 27.7484 11.2359 27.8932C11.961 28.5119 12.7938 28.8774 13.7341 28.9896C13.79 28.9963 13.8483 29.001 13.9091 29.0037C14.0533 29.0101 14.2035 29.024 14.3389 29.024C19.682 29.0241 25.0251 29.0242 30.3682 29.0242C30.3697 29.0242 30.3712 29.0239 30.3727 29.0233C30.3741 29.0227 30.3754 29.0218 30.3765 29.0207C30.3776 29.0196 30.3785 29.0183 30.3791 29.0169C30.3797 29.0155 30.38 29.0139 30.38 29.0124C30.38 24.5258 30.3799 20.0845 30.3798 15.6886C30.3798 15.4831 30.376 15.3316 30.3684 15.234Z" stroke="#8090AE" stroke-width="2"/>
<path d="M17.8618 26.8629C17.8615 26.8639 17.8615 26.8651 17.8617 26.8662C17.8619 26.8672 17.8624 26.8683 17.8631 26.8691C17.8638 26.87 17.8647 26.8707 17.8656 26.8712C17.8666 26.8717 17.8677 26.872 17.8689 26.872L18.7175 26.8713C18.7191 26.8713 18.7206 26.8707 18.7219 26.8698C18.7232 26.8688 18.7241 26.8674 18.7245 26.8658L22.4247 12.8675C22.425 12.8664 22.425 12.8653 22.4248 12.8643C22.4246 12.8632 22.4241 12.8622 22.4235 12.8613C22.4228 12.8604 22.422 12.8597 22.421 12.8592C22.42 12.8587 22.419 12.8584 22.4179 12.8584L21.569 12.8281C21.5673 12.828 21.5657 12.8285 21.5643 12.8295C21.5629 12.8305 21.562 12.832 21.5615 12.8336L17.8618 26.8629Z" stroke="#8090AE" stroke-width="2"/>
<path d="M17.6477 16.3482C17.6496 16.3482 17.6514 16.3475 17.6528 16.3462C17.6541 16.3448 17.6549 16.343 17.655 16.3412L17.7066 13.2259C17.7066 13.224 17.7059 13.2222 17.7046 13.2208C17.7033 13.2195 17.7015 13.2187 17.6996 13.2186L11.6943 13.21C11.6924 13.21 11.6905 13.2107 11.6891 13.2121C11.6878 13.2135 11.687 13.2153 11.687 13.2172V16.3425C11.687 16.3444 11.6878 16.3463 11.6891 16.3477C11.6905 16.349 11.6924 16.3498 11.6943 16.3498L17.6477 16.3482Z" stroke="#8090AE" stroke-width="2"/>
<path d="M11.7546 17.2952C12.5012 17.5622 13.091 18.0198 13.5242 18.668C13.6788 18.8995 13.7918 19.1262 13.8634 19.3483C13.9033 19.472 13.9259 19.6066 13.9312 19.7521C13.9337 19.8203 13.9531 19.8856 13.9446 19.9575C13.9314 20.0681 13.9301 20.1782 13.9082 20.2876C13.7943 20.8582 13.4316 21.2837 12.9393 21.5769C12.6434 21.753 12.3232 21.8806 11.9787 21.9596C11.9548 21.9651 11.9551 21.9686 11.9797 21.9701C12.0147 21.9719 12.0503 21.9728 12.0866 21.9728C13.5578 21.9717 14.995 21.9721 16.3983 21.9739C16.5324 21.9741 16.6524 21.9644 16.7582 21.9448C17.2911 21.8461 17.7432 21.5976 18.1146 21.1993C18.2344 21.0708 18.3234 20.9156 18.3815 20.7338C18.4667 20.4667 18.5028 20.1983 18.4898 19.9286C18.4579 19.2686 18.1551 18.6205 17.666 18.1509C17.2107 17.7139 16.6454 17.4069 16.0345 17.3109C15.9387 17.2959 15.8222 17.2885 15.6851 17.2886C14.43 17.2899 13.1765 17.2899 11.9246 17.2889C11.8695 17.2889 11.8133 17.2834 11.7572 17.2814C11.7267 17.2805 11.7258 17.2851 11.7546 17.2952Z" stroke="#8090AE" stroke-width="2"/>
<path d="M26.319 22.051C26.3912 22.0336 26.4619 22.0157 26.531 21.9973C26.8424 21.9144 27.1262 21.7873 27.3824 21.616C27.5294 21.5177 27.6772 21.3903 27.826 21.2338C28.0408 21.0081 28.1666 20.7335 28.2374 20.4343C28.319 20.0885 28.3108 19.753 28.1996 19.4128C28.0815 19.0516 27.9041 18.7335 27.6413 18.4639C27.2197 18.0314 26.7567 17.752 26.1582 17.6517C26.0483 17.6332 25.8971 17.624 25.7045 17.6242C24.4869 17.6249 23.248 17.6233 21.9877 17.6192C21.9876 17.6191 21.9874 17.6191 21.9873 17.6192C21.9871 17.6192 21.987 17.6193 21.9868 17.6193C21.9867 17.6194 21.9866 17.6195 21.9865 17.6197C21.9864 17.6198 21.9864 17.6199 21.9864 17.6201C21.9863 17.6202 21.9863 17.6204 21.9864 17.6205C21.9864 17.6207 21.9864 17.6208 21.9865 17.6209C21.9866 17.6211 21.9867 17.6212 21.9868 17.6213C21.987 17.6213 21.9871 17.6214 21.9873 17.6214C22.804 17.9054 23.4583 18.4821 23.8219 19.2688C24.172 20.0262 24.0398 20.9041 23.3933 21.4554C23.0265 21.768 22.5221 21.9591 22.0391 22.0515C22.0226 22.0547 22.0221 22.0596 22.0375 22.0663C22.4847 22.2598 22.8888 22.5287 23.2499 22.873C23.5559 23.1644 23.7448 23.5037 23.8774 23.9123C23.9503 24.1369 23.9814 24.3785 23.9707 24.6371C23.9418 25.3285 23.5068 25.8636 22.9155 26.203C22.6278 26.3682 22.3358 26.4893 22.0396 26.5664C21.9862 26.5803 21.9871 26.5874 22.0423 26.5875C22.7641 26.589 23.4919 26.5872 24.2257 26.5821C24.2454 26.5819 24.2701 26.5818 24.2997 26.5816C24.7994 26.581 25.2992 26.5805 25.7992 26.5802C25.8277 26.5802 25.8669 26.578 25.9168 26.5736C25.9558 26.5702 25.9944 26.567 26.0328 26.5643C26.7331 26.5152 27.3787 26.2105 27.8347 25.6754C28.052 25.4202 28.1994 25.1208 28.2769 24.7772C28.3243 24.5672 28.3332 24.3675 28.3038 24.1782C28.2232 23.6609 27.9863 23.2192 27.5931 22.8532C27.2422 22.527 26.7654 22.2849 26.3158 22.0892C26.2791 22.0732 26.2802 22.0604 26.319 22.051Z" stroke="#8090AE" stroke-width="2"/>
<path d="M7.65428 9H25.9721C26.0687 9.00713 26.1653 9.01411 26.2619 9.02093C26.9904 9.07265 27.6804 9.23919 28.332 9.52054C28.4186 9.55785 28.5073 9.59736 28.5982 9.63907C28.732 9.70027 28.8596 9.77353 28.9886 9.84565C29.2442 9.98852 29.4948 10.153 29.7405 10.3391C29.7846 10.3723 29.821 10.411 29.8672 10.4388C29.9054 10.4615 29.9318 10.5118 29.9737 10.5236C29.981 10.5257 29.9873 10.5295 29.9926 10.5348C30.0367 10.5784 30.0812 10.6232 30.1261 10.669C30.1304 10.6734 30.1354 10.6765 30.1411 10.6783C30.1449 10.6795 30.149 10.6804 30.1532 10.6811C30.1597 10.6818 30.1653 10.6845 30.17 10.6892C30.3477 10.8676 30.5363 11.0464 30.6965 11.2303C31.0171 11.5984 31.2964 11.9965 31.5342 12.4247C31.5854 12.5172 31.6535 12.6521 31.7383 12.8294C31.7524 12.859 31.7656 12.8885 31.7781 12.9179C31.7904 12.9466 31.8031 12.9765 31.8163 13.0078C32.0882 13.6541 32.2512 14.2974 32.3052 14.938C32.314 15.0426 32.324 15.2114 32.3352 15.4444C32.3422 15.5924 32.3457 15.744 32.3457 15.8992C32.3457 20.9274 32.3457 25.9515 32.3457 30.9713C32.3457 30.9731 32.345 30.9748 32.3438 30.976C32.3425 30.9772 32.3409 30.9779 32.3391 30.9779C26.3142 30.9779 20.2901 30.9779 14.2668 30.9779C14.0203 30.9779 13.7365 30.9586 13.4155 30.9199C13.2644 30.9019 13.1146 30.8781 12.9661 30.8485C11.9844 30.6528 11.0968 30.257 10.3034 29.6609C10.1921 29.5773 10.0834 29.4903 9.97736 29.3997C9.97114 29.3946 9.96424 29.3902 9.95666 29.3867C9.9515 29.3845 9.94695 29.3814 9.94301 29.3776C9.8875 29.3236 9.83343 29.2695 9.78079 29.2152C9.77533 29.2096 9.76866 29.2068 9.76077 29.2068H9.75349C9.75001 29.2068 9.74705 29.2056 9.74462 29.2031C9.64331 29.1017 9.54108 28.9996 9.43794 28.8969C9.43233 28.8913 9.42793 28.8849 9.42475 28.8776C9.40723 28.8357 9.35809 28.7982 9.32806 28.7645C9.02911 28.4298 8.76202 28.0604 8.52677 27.6565C8.5022 27.6144 8.47733 27.5674 8.45215 27.5157C8.441 27.4932 8.42599 27.482 8.41484 27.4591C8.37389 27.374 8.33112 27.2883 8.28653 27.202C8.28243 27.1941 8.28038 27.1857 8.28038 27.1767C8.28023 27.169 8.27833 27.1617 8.27469 27.1549C8.25012 27.1103 8.22692 27.063 8.20508 27.0129C7.9213 26.3613 7.75006 25.6888 7.69136 24.9954C7.68257 24.89 7.67301 24.7034 7.6627 24.4357C7.65693 24.2875 7.65405 24.1343 7.65405 23.9759C7.65405 18.9839 7.65413 13.992 7.65428 9ZM9.59583 27.1321C10.4842 28.6453 12.0866 29.6534 13.8461 29.7726C13.9945 29.7828 14.1458 29.7878 14.3002 29.7878C19.8341 29.7874 25.4493 29.7873 31.1456 29.7876C31.1466 29.7876 31.1476 29.7874 31.1486 29.787C31.1495 29.7866 31.1503 29.7861 31.1511 29.7853C31.1518 29.7846 31.1524 29.7838 31.1527 29.7828C31.1531 29.7819 31.1533 29.7809 31.1533 29.7799C31.1536 25.0382 31.1529 20.2975 31.1513 15.5579C31.151 14.7155 30.967 13.9252 30.5993 13.1868C30.2634 12.5122 29.813 11.9373 29.2482 11.4621C28.2437 10.6169 27.0379 10.1844 25.7218 10.1846C20.1559 10.186 14.5369 10.1862 8.86485 10.1853C8.86226 10.1853 8.85977 10.1864 8.85793 10.1882C8.8561 10.1901 8.85507 10.1927 8.85507 10.1953C8.85416 14.9296 8.85423 19.6662 8.85529 24.4052C8.85545 25.3826 9.10229 26.2916 9.59583 27.1321Z" fill="#00205C"/>
<path d="M13.8459 29.7725C12.0864 29.6533 10.4841 28.6452 9.59564 27.1321C9.1021 26.2915 8.85526 25.3825 8.85511 24.4052C8.85404 19.6662 8.85397 14.9295 8.85488 10.1953C8.85488 10.1926 8.85591 10.1901 8.85774 10.1882C8.85958 10.1863 8.86207 10.1853 8.86466 10.1853C14.5367 10.1862 20.1557 10.1859 25.7216 10.1846C27.0378 10.1843 28.2435 10.6168 29.248 11.462C29.8128 11.9372 30.2632 12.5121 30.5992 13.1868C30.9668 13.9251 31.1508 14.7155 31.1511 15.5578C31.1528 20.2974 31.1534 25.0381 31.1531 29.7798C31.1531 29.7808 31.1529 29.7818 31.1526 29.7828C31.1522 29.7837 31.1516 29.7846 31.1509 29.7853C31.1502 29.786 31.1493 29.7866 31.1484 29.787C31.1474 29.7873 31.1464 29.7875 31.1454 29.7875C25.4491 29.7872 19.8339 29.7873 14.3 29.7878C14.1456 29.7878 13.9943 29.7827 13.8459 29.7725ZM30.3685 15.2341C30.2622 13.8572 29.5303 12.5836 28.4071 11.7969C27.6503 11.2667 26.81 10.9852 25.8863 10.9526C25.8072 10.9498 25.6792 10.9483 25.5023 10.9483C20.1892 10.9488 14.8976 10.9494 9.62749 10.9501C9.62538 10.9501 9.62336 10.951 9.62186 10.9525C9.62037 10.9541 9.61953 10.9562 9.61953 10.9583C9.61923 15.4519 9.61915 19.9459 9.6193 24.4404C9.6193 24.6112 9.62962 24.7767 9.65024 24.9369C9.77067 25.8769 10.1408 26.705 10.7605 27.421C10.9076 27.591 11.0661 27.7485 11.236 27.8933C11.9611 28.512 12.7939 28.8774 13.7342 28.9897C13.7901 28.9964 13.8484 29.0011 13.9092 29.0038C14.0534 29.0102 14.2036 29.024 14.339 29.024C19.682 29.0242 25.0251 29.0243 30.3682 29.0243C30.3698 29.0243 30.3713 29.024 30.3728 29.0234C30.3742 29.0228 30.3755 29.0219 30.3766 29.0208C30.3777 29.0197 30.3786 29.0184 30.3792 29.017C30.3798 29.0155 30.3801 29.014 30.3801 29.0124C30.3801 24.5258 30.38 20.0846 30.3798 15.6887C30.3798 15.4832 30.376 15.3316 30.3685 15.2341Z" fill="white"/>
<path d="M28.4073 11.7968C29.5305 12.5836 30.2624 13.8572 30.3686 15.234C30.3762 15.3316 30.38 15.4831 30.38 15.6886C30.3802 20.0845 30.3802 24.5258 30.3802 29.0124C30.3802 29.0139 30.3799 29.0155 30.3793 29.0169C30.3787 29.0183 30.3779 29.0196 30.3768 29.0207C30.3757 29.0218 30.3744 29.0227 30.3729 29.0233C30.3715 29.0239 30.37 29.0242 30.3684 29.0242C25.0253 29.0242 19.6822 29.0241 14.3391 29.024C14.2037 29.024 14.0536 29.0101 13.9093 29.0037C13.8485 29.001 13.7902 28.9963 13.7344 28.9896C12.794 28.8774 11.9613 28.5119 11.2361 27.8932C11.0663 27.7484 10.9078 27.591 10.7606 27.4209C10.1409 26.7049 9.77083 25.8768 9.6504 24.9368C9.62977 24.7766 9.61946 24.6111 9.61946 24.4404C9.61931 19.9459 9.61938 15.4518 9.61969 10.9583C9.61969 10.9561 9.62053 10.954 9.62202 10.9525C9.62351 10.9509 9.62554 10.9501 9.62765 10.9501C14.8978 10.9493 20.1894 10.9487 25.5025 10.9482C25.6793 10.9482 25.8073 10.9497 25.8865 10.9526C26.8102 10.9852 27.6504 11.2666 28.4073 11.7968ZM17.8621 26.8631C17.8618 26.8642 17.8618 26.8653 17.862 26.8664C17.8622 26.8675 17.8627 26.8685 17.8634 26.8694C17.864 26.8703 17.8649 26.871 17.8659 26.8715C17.8669 26.8719 17.868 26.8722 17.8691 26.8722L18.7177 26.8715C18.7193 26.8715 18.7209 26.871 18.7222 26.87C18.7235 26.869 18.7244 26.8676 18.7248 26.8661L22.425 12.8677C22.4252 12.8667 22.4253 12.8656 22.4251 12.8645C22.4248 12.8634 22.4244 12.8624 22.4237 12.8615C22.4231 12.8607 22.4222 12.8599 22.4213 12.8594C22.4203 12.8589 22.4192 12.8587 22.4181 12.8586L21.5693 12.8284C21.5676 12.8283 21.5659 12.8287 21.5646 12.8297C21.5632 12.8307 21.5622 12.8322 21.5618 12.8338L17.8621 26.8631ZM17.6478 16.3479C17.6496 16.3479 17.6515 16.3472 17.6528 16.3459C17.6542 16.3445 17.655 16.3428 17.655 16.3409L17.7067 13.2256C17.7067 13.2237 17.7059 13.2219 17.7046 13.2205C17.7033 13.2192 17.7015 13.2184 17.6996 13.2183L11.6943 13.2097C11.6924 13.2097 11.6905 13.2104 11.6892 13.2118C11.6878 13.2132 11.6871 13.215 11.6871 13.2169V16.3422C11.6871 16.3442 11.6878 16.346 11.6892 16.3474C11.6905 16.3487 11.6924 16.3495 11.6943 16.3495L17.6478 16.3479ZM11.7548 17.2948C12.5014 17.5617 13.0912 18.0193 13.5244 18.6676C13.679 18.899 13.792 19.1258 13.8636 19.3478C13.9035 19.4716 13.9261 19.6062 13.9314 19.7517C13.9339 19.8199 13.9533 19.8852 13.9448 19.9571C13.9316 20.0677 13.9303 20.1778 13.9084 20.2872C13.7945 20.8578 13.4318 21.2832 12.9395 21.5765C12.6436 21.7526 12.3234 21.8801 11.9789 21.9592C11.955 21.9646 11.9553 21.9681 11.9799 21.9696C12.0149 21.9714 12.0505 21.9724 12.0868 21.9724C13.558 21.9713 14.9952 21.9717 16.3985 21.9735C16.5326 21.9736 16.6526 21.9639 16.7584 21.9444C17.2913 21.8456 17.7434 21.5971 18.1148 21.1988C18.2346 21.0704 18.3236 20.9152 18.3817 20.7334C18.4669 20.4663 18.503 20.1979 18.49 19.9282C18.4581 19.2682 18.1553 18.62 17.6662 18.1505C17.2109 17.7134 16.6456 17.4065 16.0347 17.3105C15.9389 17.2955 15.8224 17.288 15.6853 17.2882C14.4302 17.2894 13.1767 17.2895 11.9248 17.2884C11.8697 17.2884 11.8135 17.283 11.7574 17.2809C11.7269 17.28 11.726 17.2846 11.7548 17.2948ZM26.3192 22.0506C26.3914 22.0332 26.4621 22.0153 26.5312 21.9969C26.8426 21.914 27.1264 21.7869 27.3826 21.6156C27.5296 21.5173 27.6774 21.3899 27.8262 21.2334C28.041 21.0077 28.1668 20.7331 28.2376 20.434C28.3192 20.0881 28.311 19.7526 28.1998 19.4124C28.0817 19.0512 27.9043 18.7331 27.6415 18.4635C27.2199 18.031 26.7569 17.7516 26.1584 17.6513C26.0486 17.6328 25.8973 17.6236 25.7047 17.6238C24.4871 17.6245 23.2482 17.6229 21.9879 17.6188C21.9878 17.6187 21.9876 17.6187 21.9875 17.6188C21.9873 17.6188 21.9872 17.6189 21.987 17.6189C21.9869 17.619 21.9868 17.6191 21.9867 17.6193C21.9866 17.6194 21.9866 17.6195 21.9866 17.6197C21.9865 17.6198 21.9865 17.62 21.9866 17.6201C21.9866 17.6203 21.9866 17.6204 21.9867 17.6206C21.9868 17.6207 21.9869 17.6208 21.987 17.6209C21.9872 17.621 21.9873 17.621 21.9875 17.621C22.8042 17.905 23.4585 18.4817 23.8221 19.2684C24.1722 20.0258 24.04 20.9038 23.3935 21.455C23.0267 21.7676 22.5223 21.9587 22.0393 22.0511C22.0228 22.0543 22.0223 22.0592 22.0377 22.0659C22.4849 22.2594 22.889 22.5283 23.2501 22.8726C23.5561 23.164 23.745 23.5033 23.8776 23.9119C23.9506 24.1365 23.9816 24.3781 23.9709 24.6367C23.942 25.3281 23.507 25.8632 22.9157 26.2026C22.628 26.3678 22.336 26.4889 22.0398 26.566C21.9864 26.5799 21.9873 26.587 22.0425 26.5871C22.7643 26.5886 23.4921 26.5868 24.2259 26.5817C24.2456 26.5815 24.2703 26.5814 24.2999 26.5812C24.7996 26.5806 25.2994 26.5801 25.7994 26.5798C25.8279 26.5798 25.8671 26.5776 25.917 26.5732C25.956 26.5698 25.9946 26.5667 26.033 26.5639C26.7333 26.5148 27.3789 26.2101 27.8349 25.675C28.0522 25.4198 28.1996 25.1204 28.2771 24.7768C28.3245 24.5668 28.3334 24.3671 28.304 24.1778C28.2235 23.6605 27.9865 23.2188 27.5933 22.8528C27.2424 22.5266 26.7656 22.2845 26.316 22.0888C26.2793 22.0728 26.2804 22.06 26.3192 22.0506Z" fill="#00205C"/>
<path d="M17.862 26.8629L21.5618 12.8336C21.5622 12.832 21.5632 12.8305 21.5645 12.8295C21.5659 12.8285 21.5676 12.828 21.5693 12.8281L22.4181 12.8584C22.4192 12.8584 22.4203 12.8587 22.4213 12.8592C22.4222 12.8597 22.4231 12.8604 22.4237 12.8613C22.4244 12.8622 22.4248 12.8632 22.425 12.8643C22.4252 12.8653 22.4252 12.8664 22.4249 12.8675L18.7248 26.8658C18.7244 26.8674 18.7234 26.8688 18.7222 26.8698C18.7209 26.8707 18.7193 26.8713 18.7177 26.8713L17.8691 26.872C17.868 26.872 17.8669 26.8717 17.8659 26.8712C17.8649 26.8707 17.864 26.87 17.8633 26.8691C17.8627 26.8683 17.8622 26.8672 17.862 26.8662C17.8617 26.8651 17.8618 26.8639 17.862 26.8629Z" fill="white"/>
<path d="M17.6477 16.3482L11.6943 16.3498C11.6924 16.3498 11.6905 16.349 11.6891 16.3477C11.6878 16.3463 11.687 16.3444 11.687 16.3425V13.2172C11.687 13.2153 11.6878 13.2135 11.6891 13.2121C11.6905 13.2107 11.6924 13.21 11.6943 13.21L17.6996 13.2186C17.7015 13.2187 17.7033 13.2195 17.7046 13.2208C17.7059 13.2222 17.7066 13.224 17.7066 13.2259L17.655 16.3412C17.6549 16.343 17.6541 16.3448 17.6528 16.3462C17.6514 16.3475 17.6496 16.3482 17.6477 16.3482Z" fill="white"/>
<path d="M11.7574 17.2814C11.8136 17.2834 11.8698 17.2889 11.9248 17.2889C13.1767 17.2899 14.4302 17.2899 15.6853 17.2886C15.8224 17.2885 15.9389 17.2959 16.0348 17.3109C16.6456 17.4069 17.211 17.7139 17.6662 18.1509C18.1554 18.6205 18.4582 19.2686 18.49 19.9286C18.5031 20.1983 18.467 20.4667 18.3817 20.7338C18.3236 20.9156 18.2347 21.0708 18.1149 21.1993C17.7434 21.5976 17.2913 21.8461 16.7585 21.9448C16.6526 21.9644 16.5326 21.9741 16.3986 21.9739C14.9953 21.9721 13.558 21.9717 12.0868 21.9728C12.0506 21.9728 12.0149 21.9719 11.9799 21.9701C11.9553 21.9686 11.955 21.9651 11.979 21.9596C12.3234 21.8806 12.6436 21.753 12.9395 21.5769C13.4319 21.2837 13.7945 20.8582 13.9085 20.2876C13.9303 20.1782 13.9317 20.0681 13.9449 19.9575C13.9533 19.8856 13.934 19.8203 13.9315 19.7521C13.9262 19.6066 13.9036 19.472 13.8637 19.3483C13.7921 19.1262 13.679 18.8995 13.5244 18.668C13.0913 18.0198 12.5014 17.5622 11.7549 17.2952C11.7261 17.2851 11.7269 17.2805 11.7574 17.2814Z" fill="white"/>
<path d="M26.3193 22.051C26.2804 22.0604 26.2794 22.0732 26.3161 22.0892C26.7656 22.2849 27.2425 22.527 27.5933 22.8532C27.9866 23.2192 28.2235 23.6609 28.304 24.1782C28.3335 24.3675 28.3245 24.5672 28.2772 24.7772C28.1997 25.1208 28.0523 25.4202 27.8349 25.6754C27.379 26.2105 26.7333 26.5152 26.033 26.5643C25.9947 26.567 25.956 26.5702 25.917 26.5736C25.8671 26.578 25.8279 26.5802 25.7994 26.5802C25.2995 26.5805 24.7997 26.581 24.2999 26.5816C24.2703 26.5818 24.2457 26.5819 24.226 26.5821C23.4922 26.5872 22.7644 26.589 22.0426 26.5875C21.9874 26.5874 21.9864 26.5803 22.0398 26.5664C22.336 26.4893 22.628 26.3682 22.9157 26.203C23.507 25.8636 23.942 25.3285 23.9709 24.6371C23.9817 24.3785 23.9506 24.1369 23.8776 23.9123C23.745 23.5037 23.5562 23.1644 23.2502 22.873C22.889 22.5287 22.4849 22.2598 22.0378 22.0663C22.0223 22.0596 22.0228 22.0547 22.0394 22.0515C22.5224 21.9591 23.0268 21.768 23.3935 21.4554C24.0401 20.9041 24.1723 20.0262 23.8221 19.2688C23.4586 18.4821 22.8043 17.9054 21.9875 17.6214C21.9874 17.6214 21.9872 17.6213 21.9871 17.6213C21.987 17.6212 21.9869 17.6211 21.9868 17.6209C21.9867 17.6208 21.9866 17.6207 21.9866 17.6205C21.9866 17.6204 21.9866 17.6202 21.9866 17.6201C21.9866 17.6199 21.9867 17.6198 21.9868 17.6197C21.9869 17.6195 21.987 17.6194 21.9871 17.6193C21.9872 17.6193 21.9874 17.6192 21.9875 17.6192C21.9877 17.6191 21.9878 17.6191 21.988 17.6192C23.2482 17.6233 24.4871 17.6249 25.7048 17.6242C25.8974 17.624 26.0486 17.6332 26.1584 17.6517C26.757 17.752 27.22 18.0314 27.6415 18.4639C27.9043 18.7335 28.0818 19.0516 28.1998 19.4128C28.3111 19.753 28.3193 20.0885 28.2376 20.4343C28.1668 20.7335 28.041 21.0081 27.8263 21.2338C27.6775 21.3903 27.5296 21.5177 27.3826 21.616C27.1265 21.7873 26.8427 21.9144 26.5313 21.9973C26.4621 22.0157 26.3914 22.0336 26.3193 22.051Z" fill="white"/>
</g>
<circle cx="20" cy="20" r="19.5" stroke="black" stroke-opacity="0.05"/>
<defs>
<clipPath id="clip0_9_387350">
<rect width="24.7073" height="22" fill="white" transform="translate(7.64624 9)"/>
</clipPath>
</defs>
</svg>
