<svg width="40" height="40" viewBox="0 0 40 40" fill="none" xmlns="http://www.w3.org/2000/svg">
<circle cx="20" cy="20" r="20" fill="#F6F8FA"/>
<g clip-path="url(#clip0_9_409590)">
<path d="M11.6633 25.0865L10.4679 24.637L13.6078 22.2431L14.5052 26.1336L13.3082 25.6857C13.346 27.4698 14.0436 28.1674 16.2999 27.9314C17.459 27.8058 19.1584 27.1505 20.484 26.1336C22.3241 24.7248 23.9312 22.1372 23.627 20.4454C23.229 18.2315 19.3294 18.9185 17.347 20.1472C19.5216 18.2512 28.5859 15.5879 28.71 20.8948C28.8295 25.9399 20.0194 31.5964 14.9546 31.9702C13.4217 32.0837 11.4333 31.828 10.6177 30.7732C9.30417 29.0708 10.2999 26.8373 11.6633 25.0865Z" fill="#F90E34"/>
<path d="M11.2366 19.1006C11.117 14.0555 19.9271 8.39901 24.9919 8.02373C26.5248 7.91023 28.5132 8.16748 29.3289 9.2207C30.6439 10.9246 29.6466 13.1566 28.2832 14.909L29.4787 15.3584C29.4787 15.3584 27.342 16.911 26.3372 17.7539C26.3372 17.7539 25.797 15.1042 25.4398 13.8618L26.6383 14.3112C26.6005 12.5271 25.9029 11.8295 23.6466 12.0656C22.4875 12.1897 20.7881 12.8449 19.4625 13.8618C17.6224 15.2706 16.0154 17.8598 16.321 19.5501C16.719 21.764 20.6186 21.0785 22.601 19.8497C20.4265 21.7458 11.3622 24.4076 11.2366 19.1006Z" fill="#0673B1"/>
</g>
<circle cx="20" cy="20" r="19.5" stroke="black" stroke-opacity="0.05"/>
<defs>
<clipPath id="clip0_9_409590">
<rect width="19.9596" height="24" fill="white" transform="translate(10 8)"/>
</clipPath>
</defs>
</svg>
