<svg width="40" height="40" viewBox="0 0 40 40" fill="none" xmlns="http://www.w3.org/2000/svg">
<circle cx="20" cy="20" r="20" fill="#009ADD"/>
<path d="M13.8895 10.6641L16.9242 13.6949C18.0684 14.8352 18.0684 16.682 16.9242 17.8223L15.7801 18.9664L14.8805 19.866C14.793 19.9497 14.6617 19.9497 14.5781 19.866C14.5214 19.8042 14.5034 19.7296 14.5214 19.655C14.8329 18.247 13.9861 17.2032 13.7891 16.9845L10.6721 13.8751C9.78148 12.9845 9.78148 11.5495 10.6721 10.6641C11.5614 9.77864 13.0002 9.77864 13.8895 10.6641ZM26.1146 29.2906L23.076 26.261C21.9358 25.1246 21.9358 23.274 23.076 22.1337L24.2253 20.9883L25.1198 20.0938C25.2073 20.0102 25.3385 20.0102 25.4222 20.0938C25.4827 20.1504 25.4968 20.2302 25.4788 20.2997C25.1674 21.7128 26.0142 22.7514 26.215 22.9754L29.3282 26.0847C30.2188 26.9715 30.2188 28.4052 29.3282 29.2906C28.4389 30.1773 27 30.1773 26.1146 29.2906ZM10.6631 26.0937L26.1275 10.6679C26.5792 10.2214 27.1712 10.0013 27.7594 10.0064C28.3334 10.0154 28.9035 10.2342 29.3372 10.6679C29.7761 11.1068 29.9949 11.6898 30 12.2651C30 12.8481 29.7799 13.4311 29.3372 13.87L13.8728 29.2958C13.4301 29.7346 12.8509 29.9534 12.2679 29.9534C11.6849 29.9534 11.1006 29.7346 10.6579 29.2958C10.2281 28.8659 10.0093 28.3048 10.0003 27.7346C9.99126 27.1413 10.2113 26.5455 10.6631 26.0937Z" fill="white"/>
<circle cx="20" cy="20" r="19.5" stroke="black" stroke-opacity="0.05"/>
</svg>
