<svg width="40" height="40" viewBox="0 0 40 40" fill="none" xmlns="http://www.w3.org/2000/svg">
<circle cx="20" cy="20" r="20" fill="#EE2E30"/>
<g clip-path="url(#clip0_9_405405)">
<path d="M34.5716 24.25H31.4272C29.715 24.25 27.896 23.0812 27.893 19.9229C27.8906 17.3365 29.5444 15.75 31.4272 15.75H34.5716V18.7857H32.143C31.8209 18.7857 31.5121 18.9136 31.2844 19.1414C31.0566 19.3691 30.9287 19.678 30.9287 20C30.9287 20.322 31.0566 20.6309 31.2844 20.8586C31.5121 21.0864 31.8209 21.2143 32.143 21.2143H34.5716V24.25ZM5.42871 20C5.42871 19.678 5.55664 19.3691 5.78437 19.1414C6.01209 18.9136 6.32095 18.7857 6.643 18.7857H8.46443V15.75H15.143V18.1786H11.5001V18.7857H13.9287C14.2508 18.7857 14.5596 18.9136 14.7873 19.1414C15.0151 19.3691 15.143 19.678 15.143 20C15.143 20.322 15.0151 20.6309 14.7873 20.8586C14.5596 21.0864 14.2508 21.2143 13.9287 21.2143H11.5001V24.25H8.46443V21.2143H6.643C6.32095 21.2143 6.01209 21.0864 5.78437 20.8586C5.55664 20.6309 5.42871 20.322 5.42871 20ZM23.0359 24.25L24.2501 18.1276V24.25H27.2859V15.75H24.3388C22.609 15.75 22.4172 16.583 22.184 17.5963L22.1713 17.6546L21.518 20.6071L21.0122 17.6546L20.9989 17.5981C20.767 16.5842 20.5757 15.75 18.8441 15.75H15.7501V24.25H18.7859V18.1276L20.0001 24.25H23.0359Z" fill="white"/>
</g>
<circle cx="20" cy="20" r="19.5" stroke="black" stroke-opacity="0.05"/>
<defs>
<clipPath id="clip0_9_405405">
<rect width="30" height="10" fill="white" transform="translate(5 15)"/>
</clipPath>
</defs>
</svg>
