<svg width="40" height="40" viewBox="0 0 40 40" fill="none" xmlns="http://www.w3.org/2000/svg">
<circle cx="20" cy="20" r="20" fill="#9B2C39"/>
<g clip-path="url(#clip0_9_406753)">
<path fill-rule="evenodd" clip-rule="evenodd" d="M34.1827 22.9887C34.4482 23.5631 34.9943 23.5217 34.9943 23.5217V23.7062H32.4181C31.646 23.7062 31.5461 23.0716 31.5461 23.0716C31.5461 23.0716 30.5913 21.0188 30.2053 21.0395C29.8192 21.0603 29.597 21.6347 29.597 21.6347H29.435C29.435 21.6347 30.9567 17.1431 31.1808 17.1431C31.3635 17.1431 33.919 22.4143 34.1827 22.9887ZM27.2825 18.0866C27.0188 18.0866 26.7363 18.0264 26.7363 18.4972C26.7363 19.3992 29.354 19.4407 29.354 21.4915C29.354 23.2147 27.9736 23.8701 26.8776 23.8701C25.7815 23.8701 24.9096 23.1111 24.9096 23.1111V21.3277C24.9096 21.3277 25.7608 22.6403 26.6347 22.6403C26.8983 22.6403 27.2825 22.5989 27.2825 22.1281C27.2825 21.2241 24.7269 20.8964 24.7269 19.2561C24.7269 17.533 26.0659 17 27.162 17C28.258 17 29.049 17.5951 29.049 17.5951V19.2354C29.049 19.2354 28.1563 18.0866 27.2825 18.0866ZM19.6535 17.8399C20.0829 18.7345 20.484 19.9944 21.1544 19.9944C21.7024 19.9944 22.1488 17.2053 22.1488 17.2053H24.3616V22.9887C24.3616 23.4802 24.9284 23.6045 24.9284 23.6045H22.0264V19.5028C22.0264 19.5028 20.3427 23.9115 20.1808 23.9115C20.0188 23.9115 17.725 19.5028 17.725 19.5028V23.0508C17.725 23.3785 18.2316 23.6252 18.2316 23.6252H16.9322V17.8211C16.9322 17.4313 16.3032 17.1638 16.3032 17.1638H18.5574C18.5574 17.1638 19.307 17.1224 19.6535 17.8399ZM13.5235 23.3164C13.5235 23.3164 15.29 23.4802 16.1412 22.2298L15.7966 23.6252H11.2109V17.8211C11.2109 17.4313 10.58 17.1638 10.58 17.1638H15.7966L16.1412 18.5593C15.29 17.307 13.5235 17.4708 13.5235 17.4708V20.1789H14.9642C15.4105 20.1789 15.6554 19.42 15.6554 19.42C15.6554 19.42 16.1205 21.5744 16.1017 21.5537C15.7363 20.8757 14.6196 20.5273 14.6196 20.5273H13.5235V23.3164ZM10.5612 18.5574C9.7081 17.307 7.9435 17.4708 7.9435 17.4708V20.1789H9.38418C9.83051 20.1789 10.0734 19.42 10.0734 19.42C10.0734 19.42 10.5405 21.5725 10.5198 21.5518C10.1544 20.8757 9.03955 20.5273 9.03955 20.5273H7.9435V22.9473C7.9435 23.42 8.55179 23.6234 8.55179 23.6234H5.629V17.8192C5.629 17.4294 5 17.1638 5 17.1638H10.2166L10.5612 18.5574Z" fill="white"/>
</g>
<circle cx="20" cy="20" r="19.5" stroke="black" stroke-opacity="0.05"/>
<defs>
<clipPath id="clip0_9_406753">
<rect width="30" height="6.91149" fill="white" transform="translate(5 17)"/>
</clipPath>
</defs>
</svg>
