<svg width="40" height="40" viewBox="0 0 40 40" fill="none" xmlns="http://www.w3.org/2000/svg">
<circle cx="20" cy="20" r="20" fill="#4B6C41"/>
<g clip-path="url(#clip0_9_404183)">
<path d="M32.2139 18.7144H32.8567V17.4287H34.1424V18.7144H35.4243V19.6787H34.1424V21.8053C34.1424 22.4147 34.9049 22.3607 35.2989 22.2572L35.4243 23.1096C35.4584 23.1264 35.2719 23.2125 34.2556 23.2125C33.2064 23.2125 32.8567 22.5754 32.8567 22.1852V19.6787H32.2139V18.7144ZM31.5704 20.0098V21.2859H28.9996C28.9617 21.6651 29.0787 22.0894 29.4965 22.2726C29.8302 22.4192 30.6511 22.3337 31.0895 22.2726L31.4058 22.9528C31.3132 23.001 30.8857 23.2144 29.762 23.2144C28.2931 23.2144 27.7132 22.1968 27.7132 20.886C27.7132 19.5309 28.2468 18.7144 29.762 18.7144C31.0902 18.7144 31.5704 19.4743 31.5704 20.0098ZM23.2139 23.2144V19.3573C23.3617 19.2306 24.0014 18.7273 25.2665 18.7273C26.5599 18.7273 27.0054 19.5135 27.071 19.9873V23.2144H25.7853V20.1776C25.5449 19.3856 24.8962 19.6215 24.4996 19.8388V23.2144H23.2139Z" fill="#BEBEBE"/>
<path d="M30.4093 20.4258H29.0086C28.9828 20.1436 29.0793 19.5322 29.7048 19.5322C30.3251 19.5322 30.4325 20.1121 30.4093 20.4258Z" fill="#4B6C41"/>
<path d="M21.2856 23.2139V18.7139H22.5713V23.2139H21.2856ZM21.2856 18.0711V16.7854H22.5713V18.0711H21.2856ZM17.4297 23.2139V19.3568C19.204 18.3494 20.2969 18.7583 20.644 19.0707L20.0699 19.7618C19.3943 19.5072 18.8749 19.702 18.7141 19.8306V23.2139H17.4297ZM10.4869 18.7139C9.72572 18.7223 8.94272 18.9383 8.64572 19.045L8.97357 19.7894C9.23265 19.7104 9.75465 19.5516 10.3435 19.5349C10.933 19.5182 10.9992 19.882 10.9992 20.5133C10.6521 20.4998 9.9835 20.4805 9.64857 20.5133C9.22879 20.5551 8.431 20.6059 8.431 21.7958C8.431 22.9761 9.29372 23.2127 10.3435 23.2127C11.1702 23.2127 11.9764 22.9607 12.2766 22.8192C12.283 22.2162 12.2766 20.8444 12.2766 20.1822C12.2766 19.5014 11.9487 19.1485 11.7957 19.045C11.6768 18.9312 11.248 18.7062 10.4869 18.7139ZM5.21415 19.6782V23.2139H6.49986V19.6782H7.78557V18.7139H6.49986C6.49343 18.6715 6.48379 18.5243 6.49986 18.1849C6.51593 17.8454 6.69722 17.7567 6.82643 17.7497H7.78557V16.7854C7.65636 16.7783 7.17357 16.7854 6.27486 16.7854C5.36715 16.7854 5.21415 17.6404 5.21415 18.0711V18.7139H4.57129V19.6782H5.21415ZM12.9297 22.8797V16.7854H14.2141V18.6889C14.4205 18.6053 14.605 18.5269 15.1141 18.4915C16.3748 18.4034 16.7753 19.7753 16.7869 20.7904C16.801 22.0272 16.2154 23.2448 14.7959 23.2139C13.8946 23.1934 13.1759 22.9825 12.9297 22.8797Z" fill="white"/>
<path d="M14.214 22.0803V19.8065C14.7154 19.5751 15.069 19.7101 15.1828 19.8065C15.2696 19.8746 15.4528 20.1819 15.4914 20.8711C15.5312 21.5596 15.4161 21.8354 15.3538 21.8868C15.2959 21.9806 15.1044 22.1709 14.7919 22.1864C14.4795 22.2024 14.2764 22.1221 14.214 22.0803ZM11.001 22.3657V21.2857H10.0946C9.92101 21.2857 9.73136 21.4368 9.71529 21.9742C9.69986 22.5116 10.0869 22.5804 10.3871 22.5708C10.6269 22.5631 10.8962 22.4313 11.001 22.3657Z" fill="#4B6C41"/>
</g>
<circle cx="20" cy="20" r="19.5" stroke="black" stroke-opacity="0.05"/>
<defs>
<clipPath id="clip0_9_404183">
<rect width="32" height="8" fill="white" transform="translate(4 16)"/>
</clipPath>
</defs>
</svg>
