<svg width="40" height="40" viewBox="0 0 40 40" fill="none" xmlns="http://www.w3.org/2000/svg">
<circle cx="20" cy="20" r="20" fill="#F6F8FA"/>
<g clip-path="url(#clip0_9_404024)">
<path d="M23.9132 8.01074V11.2331H28.0765V21.3153C28.0765 21.3153 22.6945 17.2955 22.3434 17.0318C22.0188 17.2862 16.0625 21.9364 14.9062 22.8383H14.9078C14.9078 22.8383 14.9062 28.5137 14.9062 29.0708H16.6071C16.6071 28.52 16.6071 23.4765 16.6071 23.4765H19.4503V29.0677H20.9218V22.495H23.7681V29.0677H25.2412C25.2412 28.5169 25.2412 23.4687 25.2412 23.4687H28.0812V29.0708H30.3923V31.9951H9.01074V26.9439C9.01074 26.9439 10.178 26.947 10.5759 26.947V13.7892H13.5283V17.8245H15.0888V15.6087H17.2141C17.2141 15.0407 17.2141 8.01074 17.2141 8.01074H23.9132Z" fill="#0C2F59"/>
<path d="M23.297 8.62891V11.8513H27.4604V20.0843C26.6443 19.4742 22.3358 16.2549 22.3358 16.2549L13.1134 23.4565C13.1134 23.4565 14.1511 23.4549 14.2916 23.4549C14.2916 24.0136 14.29 29.689 14.29 29.689H17.2253C17.2253 29.689 17.2253 24.644 17.2253 24.0931H18.8341V29.6859H21.54V23.1116H23.1504V29.6859H25.8593C25.8593 29.6859 25.8593 24.6378 25.8593 24.0853H27.4651V29.689H29.7761V31.3774H9.62891V27.5621C10.0268 27.5636 11.1941 27.5652 11.1941 27.5652C11.1941 27.5652 11.1941 14.9956 11.1941 14.4073H12.9106V18.4427H15.7069V16.2268H17.8323C17.8323 16.2268 17.8323 9.19692 17.8323 8.62891H23.297Z" fill="#6399BB"/>
</g>
<circle cx="20" cy="20" r="19.5" stroke="black" stroke-opacity="0.05"/>
<defs>
<clipPath id="clip0_9_404024">
<rect width="21.394" height="24" fill="white" transform="translate(9 8)"/>
</clipPath>
</defs>
</svg>
