<svg width="40" height="40" viewBox="0 0 40 40" fill="none" xmlns="http://www.w3.org/2000/svg">
<circle cx="20" cy="20" r="20" fill="#F0F3FA"/>
<path d="M9.40367 22.2654V26.2704C9.40367 26.2778 9.40221 26.2851 9.39939 26.2919C9.39656 26.2987 9.39242 26.3049 9.3872 26.3101C9.38198 26.3154 9.37578 26.3195 9.36896 26.3223C9.36214 26.3252 9.35483 26.3266 9.34745 26.3266L6.05622 26.3249C6.04883 26.3249 6.04152 26.3234 6.0347 26.3206C6.02788 26.3178 6.02169 26.3137 6.01647 26.3084C6.01125 26.3032 6.0071 26.297 6.00428 26.2902C6.00145 26.2834 6 26.2761 6 26.2687V14.0748C6 14.0674 6.00145 14.0601 6.00428 14.0533C6.0071 14.0464 6.01125 14.0402 6.01647 14.035C6.02169 14.0298 6.02788 14.0257 6.0347 14.0228C6.04152 14.02 6.04883 14.0186 6.05622 14.0186L13.2264 14.0203C13.2407 14.0202 13.2545 14.0257 13.265 14.0355C13.2754 14.0453 13.2818 14.0588 13.2826 14.0731L13.5058 17.3609C13.5062 17.3686 13.5051 17.3762 13.5025 17.3835C13.4999 17.3907 13.4958 17.3973 13.4906 17.4029C13.4853 17.4085 13.4789 17.4129 13.4719 17.4159C13.4648 17.419 13.4572 17.4205 13.4496 17.4205L9.45818 17.4188C9.44327 17.4188 9.42897 17.4247 9.41843 17.4353C9.40789 17.4458 9.40196 17.4601 9.40196 17.475V18.7629C9.40196 18.7778 9.40789 18.7921 9.41843 18.8027C9.42897 18.8132 9.44327 18.8191 9.45818 18.8191H12.763C12.778 18.8191 12.7923 18.825 12.8028 18.8356C12.8133 18.8461 12.8193 18.8604 12.8193 18.8753V22.1563C12.8193 22.1713 12.8133 22.1856 12.8028 22.1961C12.7923 22.2066 12.778 22.2126 12.763 22.2126L9.45988 22.2092C9.44497 22.2092 9.43068 22.2151 9.42013 22.2256C9.40959 22.2362 9.40367 22.2505 9.40367 22.2654Z" fill="#004C97"/>
<path d="M28.8479 23.2996L27.3471 26.2995C27.3426 26.3083 27.3358 26.3157 27.3274 26.3208C27.3189 26.3259 27.3093 26.3286 27.2994 26.3285L23.8548 26.3336C23.8457 26.3336 23.8367 26.3311 23.8287 26.3266C23.8208 26.322 23.8142 26.3154 23.8095 26.3075C23.8049 26.2996 23.8024 26.2906 23.8023 26.2815C23.8021 26.2723 23.8044 26.2633 23.8088 26.2552L27.1273 19.9624C27.1314 19.9548 27.1335 19.9463 27.1335 19.9377C27.1335 19.9291 27.1314 19.9206 27.1273 19.913L24.0388 14.0937C24.0343 14.0855 24.032 14.0763 24.0322 14.067C24.0324 14.0577 24.0351 14.0486 24.0399 14.0407C24.0448 14.0327 24.0516 14.0262 24.0598 14.0217C24.068 14.0173 24.0772 14.0151 24.0865 14.0153L27.5208 14.0136C27.5307 14.0135 27.5404 14.0162 27.5488 14.0213C27.5573 14.0264 27.5641 14.0338 27.5685 14.0426L28.8377 16.5757C28.842 16.5848 28.8487 16.5924 28.8572 16.5977C28.8656 16.6031 28.8754 16.6059 28.8854 16.6059C28.8954 16.6059 28.9052 16.6031 28.9136 16.5977C28.922 16.5924 28.9288 16.5848 28.9331 16.5757L30.1903 14.0375C30.1947 14.0287 30.2016 14.0213 30.21 14.0162C30.2184 14.0111 30.2281 14.0084 30.238 14.0085L33.674 14C33.6832 14 33.6922 14.0025 33.7001 14.007C33.7081 14.0116 33.7147 14.0182 33.7193 14.0261C33.724 14.034 33.7265 14.043 33.7266 14.0521C33.7267 14.0613 33.7245 14.0703 33.72 14.0784L30.6537 19.9045C30.6496 19.9121 30.6475 19.9205 30.6475 19.9292C30.6475 19.9378 30.6496 19.9462 30.6537 19.9539L33.9943 26.2416C33.9983 26.2496 34.0003 26.2584 34 26.2674C33.9996 26.2763 33.9971 26.285 33.9925 26.2926C33.9879 26.3003 33.9814 26.3067 33.9737 26.3112C33.966 26.3156 33.9572 26.3181 33.9483 26.3183L30.5003 26.3234C30.4905 26.3235 30.4808 26.3208 30.4723 26.3157C30.4639 26.3106 30.4571 26.3032 30.4526 26.2944L28.9433 23.2996C28.939 23.2906 28.9323 23.283 28.9238 23.2776C28.9154 23.2723 28.9056 23.2695 28.8956 23.2695C28.8856 23.2695 28.8758 23.2723 28.8674 23.2776C28.8589 23.283 28.8522 23.2906 28.8479 23.2996Z" fill="#004C97"/>
<path d="M19.3313 26.3268C17.792 26.3241 16.3169 25.6733 15.2304 24.5174C14.144 23.3616 13.5352 21.7955 13.5381 20.1635C13.5409 18.5316 14.1552 16.9676 15.2456 15.8156C16.3361 14.6635 17.8135 14.0178 19.3528 14.0205C20.8921 14.0232 22.3672 14.6741 23.4536 15.8299C24.5401 16.9857 25.1488 18.5519 25.146 20.1838C25.1431 21.8157 24.5289 23.3797 23.4384 24.5318C22.348 25.6838 20.8706 26.3295 19.3313 26.3268ZM20.3676 17.5741C20.3676 17.3102 20.2627 17.0572 20.0762 16.8706C19.8896 16.684 19.6365 16.5792 19.3727 16.5792H19.3114C19.0475 16.5792 18.7945 16.684 18.6079 16.8706C18.4213 17.0572 18.3165 17.3102 18.3165 17.5741V22.729C18.3165 22.9928 18.4213 23.2459 18.6079 23.4325C18.7945 23.619 19.0475 23.7238 19.3114 23.7238H19.3727C19.6365 23.7238 19.8896 23.619 20.0762 23.4325C20.2627 23.2459 20.3676 22.9928 20.3676 22.729V17.5741Z" fill="#004C97"/>
<circle cx="20" cy="20" r="19.5" stroke="black" stroke-opacity="0.05"/>
</svg>
