<svg width="40" height="40" viewBox="0 0 40 40" fill="none" xmlns="http://www.w3.org/2000/svg">
<circle cx="20" cy="20" r="20" fill="#F6F8FA"/>
<g clip-path="url(#clip0_9_397917)">
<path fill-rule="evenodd" clip-rule="evenodd" d="M19.9999 23.5718C22.2141 23.5718 24.2141 22.6575 25.6356 21.1932C26.1728 22.1721 26.4457 23.2741 26.4276 24.3906C26.4094 25.507 26.1007 26.5995 25.532 27.5605C24.9632 28.5214 24.154 29.3176 23.1839 29.8706C22.2139 30.4237 21.1165 30.7146 19.9999 30.7146C18.8832 30.7146 17.7859 30.4237 16.8158 29.8706C15.8458 29.3176 15.0365 28.5214 14.4677 27.5605C13.899 26.5995 13.5903 25.507 13.5721 24.3906C13.554 23.2741 13.8269 22.1721 14.3641 21.1932C15.7927 22.6575 17.7927 23.5718 19.9999 23.5718ZM19.9999 22.1432C20.9035 22.1433 21.797 21.9524 22.6217 21.5831C23.4464 21.2139 24.1838 20.6745 24.7856 20.0003C24.1839 19.3261 23.4465 18.7866 22.6218 18.4172C21.797 18.0478 20.9035 17.8569 19.9999 17.8569C19.0962 17.8569 18.2027 18.0478 17.378 18.4172C16.5532 18.7866 15.8158 19.3261 15.2141 20.0003C15.8159 20.6745 16.5533 21.2139 17.378 21.5831C18.2028 21.9524 19.0962 22.1433 19.9999 22.1432ZM19.9999 16.4289C22.2141 16.4289 24.2141 17.3432 25.6356 18.8075C26.1728 17.8286 26.4457 16.7266 26.4276 15.6101C26.4094 14.4937 26.1007 13.4012 25.532 12.4402C24.9632 11.4793 24.154 10.6831 23.1839 10.1301C22.2139 9.577 21.1165 9.28615 19.9999 9.28615C18.8832 9.28615 17.7859 9.577 16.8158 10.1301C15.8458 10.6831 15.0365 11.4793 14.4677 12.4402C13.899 13.4012 13.5903 14.4937 13.5721 15.6101C13.554 16.7266 13.8269 17.8286 14.3641 18.8075C15.7927 17.3432 17.7927 16.4289 19.9999 16.4289ZM26.9999 19.2861C27.6105 18.0882 27.9036 16.7538 27.851 15.4103C27.7984 14.0668 27.402 12.7593 26.6996 11.6129C25.9972 10.4664 25.0124 9.51939 23.8394 8.86237C22.6664 8.20536 21.3444 7.86035 19.9999 7.86035C18.6554 7.86035 17.3334 8.20536 16.1603 8.86237C14.9873 9.51939 14.0025 10.4664 13.3001 11.6129C12.5977 12.7593 12.2013 14.0668 12.1487 15.4103C12.0962 16.7538 12.3892 18.0882 12.9999 19.2861H9.28557C8.84272 19.2861 8.57129 19.6075 8.57129 20.0003C8.57129 20.3932 8.84272 20.7146 9.28557 20.7146H12.9999C12.3892 21.9125 12.0962 23.2469 12.1487 24.5904C12.2013 25.9339 12.5977 27.2414 13.3001 28.3878C14.0025 29.5343 14.9873 30.4813 16.1603 31.1383C17.3334 31.7953 18.6554 32.1403 19.9999 32.1403C21.3444 32.1403 22.6664 31.7953 23.8394 31.1383C25.0124 30.4813 25.9972 29.5343 26.6996 28.3878C27.402 27.2414 27.7984 25.9339 27.851 24.5904C27.9036 23.2469 27.6105 21.9125 26.9999 20.7146H30.7499C31.1927 20.7146 31.4284 20.3932 31.4284 20.0003C31.4284 19.6075 31.1927 19.2861 30.7499 19.2861H26.9999Z" fill="#1A303B"/>
</g>
<circle cx="20" cy="20" r="19.5" stroke="black" stroke-opacity="0.05"/>
<defs>
<clipPath id="clip0_9_397917">
<rect width="24" height="26" fill="white" transform="translate(8 7)"/>
</clipPath>
</defs>
</svg>
