<svg width="40" height="40" viewBox="0 0 40 40" fill="none" xmlns="http://www.w3.org/2000/svg">
<circle cx="20" cy="20" r="20" fill="#F6F8FA"/>
<g clip-path="url(#clip0_9_392467)">
<path d="M4.00008 16H12.2404L12.2291 16.8144L12.1952 17.0802L12.133 17.3234L12.0368 17.5384L11.9124 17.7306L11.7201 17.9343L11.5052 18.0813L11.2337 18.2001L10.9453 18.2793L10.6625 18.3075H7.24646L7.21252 18.3188L7.20121 18.3528V20.1569L7.21252 20.1909L7.24646 20.2022H10.4815L10.5041 20.2248V20.2814L10.5098 20.9544L10.4872 21.2089L10.4476 21.4351L10.3854 21.6444L10.3062 21.8254L10.2044 21.9894L10.0856 22.1251L9.93292 22.2439L9.74628 22.34L9.66145 22.374L9.45218 22.4419L9.23161 22.4871L9.00538 22.5154H8.76784H7.65932H7.25211L7.21252 22.5323L7.19556 22.5719L7.18425 25.0095L6.90146 24.8229L6.63564 24.625L6.21712 24.263L5.82687 23.8558L5.47057 23.4146L5.15385 22.9452L4.87106 22.4362L4.62786 21.9046L4.42426 21.339L4.2659 20.7565L4.15279 20.1852L4.06795 19.5914L4.01139 18.9692L3.98877 18.3245V16H4.00008Z" fill="#50B84E"/>
<path d="M12.2289 16.8145L12.2515 17.5667V18.2793L12.2232 18.9523L12.1723 19.5914L12.1441 19.8289L12.0366 20.4285L11.8839 21.0223L11.6859 21.6105L11.4371 22.193L11.1769 22.702L10.8828 23.1771L10.5548 23.6239L10.1928 24.0368L9.78563 24.427L9.34448 24.7833L8.8694 25.1057L8.36039 25.3942L8.23596 25.4451L8.12285 25.4564L8.0267 25.4338L7.58556 25.2415L7.19531 25.0096L7.20662 22.572L7.22359 22.5324L7.26318 22.5154H7.67039H8.77891H9.01645L9.24268 22.4871L9.46325 22.4419L9.67251 22.374L9.75735 22.3401L9.94399 22.2439L10.0967 22.1252L10.2155 21.9894L10.3173 21.8254L10.3964 21.6444L10.4587 21.4352L10.4982 21.2089L10.5209 20.9544V20.2814L10.5152 20.2248L10.4926 20.2022H7.25753L7.22359 20.1966L7.21228 20.1626V18.3585L7.22359 18.3245L7.25753 18.3132H10.6736L10.9564 18.2849L11.2448 18.2058L11.5163 18.087L11.7312 17.9399L11.9235 17.7363L12.0479 17.544L12.1441 17.3291L12.2063 17.0859L12.2402 16.8201L12.2289 16.8145Z" fill="#095534"/>
<path d="M31.7641 18.9918L31.7528 19.1559L31.7245 19.3199L31.6849 19.4782L31.6283 19.6309L31.5548 19.778L31.4643 19.9194L31.3625 20.0495L31.2494 20.1682L31.125 20.2757L30.9892 20.3718L30.8422 20.4567L30.6895 20.5245L30.5311 20.5811L30.3671 20.6207L30.2031 20.6433H30.0334H29.8638L29.6997 20.615L29.5357 20.5754L29.3774 20.5189L29.2247 20.4454L29.0833 20.3605L28.9475 20.2587L28.8231 20.1456L28.71 20.0212L28.6082 19.8854L28.5233 19.744L28.4555 19.597L28.3989 19.4386L28.3593 19.2803L28.3367 19.1163V18.9522H28.3311L28.3424 18.7882L28.3706 18.6242L28.4102 18.4659L28.4668 18.3132L28.5403 18.1661L28.6308 18.0247L28.7326 17.8946L28.8457 17.7759L28.9702 17.6684L29.1059 17.5723L29.2529 17.4874L29.4056 17.4196L29.564 17.363L29.728 17.3234L29.892 17.3008H30.0617H30.2314L30.3954 17.3291L30.5594 17.3686L30.7178 17.4252L30.8705 17.4987L31.0119 17.5836L31.1476 17.6854L31.272 17.7985L31.3851 17.9229L31.4869 18.0586L31.5718 18.2L31.6396 18.3471L31.6962 18.5054L31.7358 18.6638L31.7584 18.8278V18.9918H31.7641ZM29.9542 19.9194H30.1296L30.2992 19.8798L30.4633 19.8063L30.6103 19.6988L30.7347 19.5631L30.8309 19.4047L30.8987 19.2294L30.9327 19.0484V18.8618L30.8987 18.6808L30.8309 18.5111L30.7347 18.3584L30.6103 18.2283L30.4633 18.1265L30.3049 18.0586L30.1352 18.0247H29.9599L29.7902 18.0643L29.6262 18.1378L29.4792 18.2453L29.3547 18.381L29.2586 18.5394L29.1907 18.7147L29.1568 18.8957V19.0823L29.1907 19.2633L29.2586 19.433L29.3547 19.5857L29.4792 19.7158L29.6262 19.8176L29.7846 19.8854L29.9542 19.9194Z" fill="#010101"/>
<path d="M32.9629 18.6182L32.9912 18.901V19.0311L32.8894 20.5129L32.8668 20.5638L32.8102 20.5808H32.1654L32.1089 20.5638V20.5072L32.1428 20.2697L32.3804 17.374L32.4086 17.3457H33.1891L33.2344 17.3627L33.2627 17.4023L33.8508 19.1668L33.8848 19.2234L33.9131 19.1612L33.93 19.0933V19.0707L34.2128 18.2223L34.5126 17.374L34.5239 17.357H34.5408H35.3213L35.3553 17.3683L35.3666 17.4023L35.6267 20.5468V20.5808L35.5871 20.5921H34.8745L34.8462 20.5808L34.8349 20.5525L34.8067 20.1L34.7558 19.3761L34.7331 19.0537V18.72L34.7218 18.6126L34.6766 18.7087L34.456 19.3478L34.2015 20.0209L34.1789 20.0491L34.1449 20.0604H33.5511L33.5172 20.0491L33.4945 20.0209L32.9912 18.6239L32.9799 18.6126H32.9686H32.9516H32.9459V18.6239L32.9629 18.6182Z" fill="#010101"/>
<path d="M15.3343 18.0535V18.6926L15.3569 18.7152H16.2731L16.3014 18.7265L16.3127 18.7548V18.9471L16.2901 19.1054L16.2618 19.1846L16.2166 19.2468L16.1148 19.326L15.9734 19.3769L15.798 19.3939H15.5549L15.3852 19.3826L15.3512 19.3939L15.3399 19.4278V20.5307L15.3286 20.5703L15.289 20.5816H14.5877L14.5538 20.5703L14.5425 20.542V17.4144L14.5538 17.3805L14.5877 17.3691H16.4711L16.505 17.3805L16.522 17.4144L16.5333 17.5614L16.5163 17.6915L16.4711 17.8046L16.4032 17.8951L16.324 17.9573L16.2279 18.0026L16.1148 18.0252H15.9847L15.6623 18.0195L15.3569 18.0309H15.3399V18.0535H15.3343Z" fill="#010101"/>
<path d="M17.7718 19.5402V20.5582L17.7605 20.5865L17.7322 20.5978L17.0252 20.5865L16.9913 20.5752L16.98 20.5412V17.4136L16.9913 17.3853L17.0196 17.374H18.3656L18.5296 17.3853L18.6823 17.4193L18.8181 17.4702L18.9369 17.5437L19.033 17.6229L19.1178 17.719L19.1914 17.8321L19.2536 17.9622L19.3045 18.1375L19.3271 18.3242L19.3158 18.5165L19.2762 18.7031L19.2083 18.8671L19.1178 19.0198L19.0047 19.1386L18.869 19.2348L18.8464 19.2574V19.2913L19.576 20.5638V20.5865L19.559 20.5978H18.7446L18.7163 20.5921L18.6993 20.5695L18.1564 19.5345L18.1281 19.5006L18.0885 19.4893H17.8057L17.7718 19.5006L17.7605 19.5345L17.7718 19.5402ZM17.7661 18.0584V18.7936L17.7774 18.8162L17.8001 18.8275H18.1281L18.2864 18.7993L18.4222 18.7201L18.5127 18.6013L18.5353 18.5334V18.4599H18.541V18.3242L18.507 18.2563L18.4165 18.1375L18.2864 18.0584L18.1281 18.0301H17.8001H17.7944L17.7718 18.0584H17.7661Z" fill="#010101"/>
<path d="M20.7524 19.309V19.8916L20.775 19.9142H22.0306H22.0419L22.0532 19.9368V20.5759L22.0306 20.5816H20.0002L19.9775 20.559V17.3918L20.0002 17.3691H21.9683L21.991 17.3918V17.9969L21.9683 18.0195H20.775L20.7524 18.0422V18.6134L20.775 18.636H21.7082H21.7195L21.7308 18.6586V19.2638L21.7082 19.2864H20.775L20.7524 19.2977V19.309Z" fill="#010101"/>
<path d="M23.3482 19.3147V19.8972L23.3708 19.9199H24.615L24.6377 19.9425V20.5646L24.615 20.5872H22.5733L22.562 20.5646V17.3805L22.5846 17.3691H24.5698L24.5924 17.3918V17.9969L24.5698 18.0195H23.3764L23.3538 18.0365V18.6077L23.3764 18.6304H24.3209H24.3322L24.3436 18.653V19.2695L24.3209 19.2808H23.3764L23.3538 19.309L23.3482 19.3147Z" fill="#010101"/>
<path d="M25.1863 17.3861L25.2033 17.3691H26.4645L26.7643 17.3974L27.0527 17.4823L27.3185 17.618L27.5504 17.8046L27.7427 18.0309L27.8841 18.2854L27.9746 18.5625L28.0029 18.8509V19.0941L27.9746 19.3826L27.8841 19.6597L27.7427 19.9142L27.5504 20.1404L27.3185 20.3271L27.0527 20.4628L26.7643 20.5476L26.4645 20.5759H25.2033H25.192L25.1807 20.559V17.3861H25.1863ZM25.9781 18.0422V19.9029L25.9951 19.9199H26.3514L26.5211 19.9029L26.6794 19.852L26.8265 19.7728L26.9566 19.6654L27.064 19.5353L27.1432 19.3882L27.1941 19.2242L27.2111 19.0545V18.8905L27.1941 18.7209L27.1432 18.5568L27.064 18.4041L26.9566 18.2741L26.8265 18.1666L26.6794 18.0874L26.5211 18.0365L26.3514 18.0195H25.9951L25.9781 18.0309V18.0422Z" fill="#010101"/>
<path d="M18.5693 23.0811L18.5523 23.2791L18.4957 23.4657L18.3996 23.6411L18.2695 23.7938L18.1168 23.9182L17.9415 24.0087L17.7492 24.0652L17.5512 24.0822L17.3533 24.0652L17.161 24.0087L16.9857 23.9182L16.833 23.7938L16.7029 23.6411L16.6067 23.4657L16.5502 23.2791L16.5332 23.0811L16.5502 22.8832L16.6067 22.6966L16.7029 22.5212L16.833 22.3685L16.9857 22.2441L17.161 22.1536L17.3533 22.097L17.5512 22.0801L17.7492 22.097L17.9415 22.1536L18.1168 22.2441L18.2695 22.3685L18.3996 22.5212L18.4957 22.6966L18.5523 22.8832L18.5693 23.0811ZM17.5512 23.6467L17.653 23.6354L17.7548 23.6015L17.8453 23.5506L17.9245 23.477L17.9924 23.3922L18.0433 23.2961L18.0716 23.1886L18.0829 23.0755L18.0716 22.9624L18.0433 22.8549L17.9924 22.7588L17.9245 22.6739L17.8453 22.6004L17.7548 22.5495L17.653 22.5156L17.5512 22.5043L17.4494 22.5156L17.3476 22.5495L17.2571 22.6004L17.178 22.6739L17.1101 22.7588L17.0592 22.8549L17.0309 22.9624L17.0196 23.0755L17.0309 23.1886L17.0592 23.2961L17.1101 23.3922L17.178 23.477L17.2571 23.5506L17.3476 23.6015L17.4494 23.6354L17.5512 23.6467Z" fill="#010101"/>
<path d="M26.6341 23.9578L26.4757 24.0256L26.3174 24.0709L26.1647 24.0879H26.0176L25.8253 24.0313L25.6387 23.9408L25.4747 23.8107L25.3503 23.6467L25.2541 23.4544L25.2032 23.2452L25.1919 23.0246L25.2258 22.8097L25.2994 22.6174L25.4125 22.442L25.5821 22.278L25.7292 22.1875L25.8875 22.1253L26.0629 22.0914L26.2382 22.0801L26.4192 22.097L26.5945 22.1423L26.7642 22.2158L26.9225 22.312L26.9395 22.3402V22.3685L26.7359 22.6626L26.7189 22.6739H26.6963L26.5832 22.5891L26.4588 22.5382L26.3174 22.5099H26.176L26.0403 22.5325L25.9158 22.5834L25.814 22.657L25.7348 22.7531L25.6953 22.8379L25.6726 22.9284V23.0246V23.132L25.7348 23.3243L25.7914 23.4148L25.8593 23.4883L25.9328 23.5506L26.0176 23.6015L26.1081 23.6354L26.2043 23.6524H26.3061L26.4079 23.6241L26.504 23.5845L26.6002 23.5223L26.6284 23.4883L26.6398 23.4488V23.4092L26.6284 23.3865L26.6115 23.3639H26.5832L26.4022 23.3526L26.3626 23.3356L26.3513 23.2961V23.0302L26.3683 22.9906L26.4079 22.9793H26.9904L27.03 22.9906L27.0413 23.0302V23.9861L27.03 24.02L27.0017 24.0313H26.6963H26.668L26.6511 24.003V23.9578H26.6171H26.6341Z" fill="#010101"/>
<path d="M28.851 22.5493H28.834L28.7548 22.5945L28.6869 22.6454L28.6247 22.719L28.5738 22.8038L28.5342 22.9L28.5116 23.0018V23.1036L28.5229 23.1997L28.5625 23.3241L28.6191 23.4259L28.6926 23.5108L28.7774 23.5786L28.8623 23.6182L28.9584 23.6409H29.0546H29.1564L29.2638 23.6126L29.3713 23.5673L29.4731 23.5051L29.5692 23.4316L29.5919 23.4203L29.6088 23.4316L29.8124 23.7313V23.754L29.8068 23.7766L29.671 23.8784L29.5353 23.9576L29.3939 24.0141L29.2469 24.0537L29.1055 24.0707H28.9584L28.8057 24.0424L28.653 23.9972L28.5229 23.9349L28.3985 23.8501L28.2854 23.7427L28.1892 23.6182L28.1214 23.4938L28.0705 23.3637L28.0479 23.2336V23.1036L28.0648 22.9791L28.0874 22.8038L28.127 22.6794L28.2062 22.5267L28.3024 22.3966L28.4098 22.2891L28.5286 22.2043L28.67 22.1364L28.8283 22.0912L29.0037 22.0742H29.1903L29.3939 22.1195L29.5749 22.193L29.7502 22.3118L29.7728 22.3457V22.3853L29.5919 22.6624L29.5636 22.685L29.5296 22.6737L29.4052 22.5832L29.2751 22.5267L29.0828 22.5041L28.8736 22.538L28.851 22.5493Z" fill="#010101"/>
<path d="M31.9619 23.0981L31.9393 23.2961L31.8771 23.4827L31.7809 23.6524L31.6509 23.8051L31.4925 23.9295L31.3115 24.02L31.1192 24.0765L30.9213 24.0935L30.7233 24.0709L30.531 24.0087L30.3557 23.9125L30.203 23.7881L30.0786 23.6354L29.9881 23.4601L29.9315 23.2734L29.9146 23.0755L29.9372 22.8775L29.9994 22.6909L30.0955 22.5212L30.2256 22.3685L30.384 22.2441L30.565 22.1536L30.7573 22.097L30.9552 22.0801L31.1532 22.1027L31.3454 22.1649L31.5208 22.2611L31.6735 22.3855L31.7979 22.5382L31.8884 22.7135L31.945 22.9002L31.9619 23.0981ZM30.9495 23.6467L31.0513 23.6354L31.1475 23.6015L31.238 23.5449L31.3172 23.4714L31.3794 23.3809L31.4246 23.2791L31.4529 23.1716V23.0585V22.9454L31.419 22.8379L31.3681 22.7418L31.3002 22.657L31.221 22.5891L31.1305 22.5382L31.0287 22.5099L30.9269 22.4986L30.8251 22.5099L30.729 22.5438L30.6385 22.6004L30.5593 22.6739L30.4971 22.7644L30.4518 22.8662L30.4236 22.9737V23.0868V23.1999L30.4575 23.3074L30.5084 23.4035L30.5763 23.4883L30.6554 23.5562L30.7459 23.6071L30.8477 23.6354L30.9495 23.6467Z" fill="#010101"/>
<path d="M15.7696 22.8716V22.1476V22.1307H15.7866L16.1994 22.125H16.2108L16.2221 22.1476V24.0366L16.1994 24.0479H15.7866L15.7696 24.0423L15.7583 24.0253V23.3353L15.7357 23.3127H15.0626L15.04 23.3353V24.0253L15.0174 24.0479H14.5876L14.5649 24.0197V22.1533L14.5876 22.1307H15.0174L15.04 22.1533V22.8772V22.8829L15.0626 22.8998H15.7357L15.7583 22.8772L15.7696 22.8716Z" fill="#010101"/>
<path d="M19.3608 23.6526H20.113L20.1413 23.6752V24.0033L20.1243 24.0259H20.113H18.8857H18.8687L18.8574 23.9976V22.1425L18.8631 22.1256L18.88 22.1143H19.3042L19.3325 22.1425V23.6243L19.3551 23.6526H19.3608Z" fill="#010101"/>
<path d="M20.3677 22.1646L20.379 22.1363L20.4073 22.125H21.1312H21.2613L21.3857 22.1533L21.5045 22.1985L21.6176 22.2607L21.7929 22.4078L21.9287 22.5888L22.0135 22.798L22.0418 23.0243V23.1317L22.0248 23.307L21.9739 23.4767L21.8891 23.6351L21.7759 23.7708L21.6402 23.8839L21.4819 23.9688L21.3122 24.0197L21.1369 24.0366H20.4129L20.3846 24.0253L20.3733 23.997V22.1589L20.3677 22.1646ZM20.8484 22.5435L20.8371 23.6238L20.8654 23.652H21.0803L21.1764 23.6464L21.2669 23.6181L21.3518 23.5729L21.4253 23.5106L21.4875 23.4371L21.5328 23.3523L21.561 23.2561L21.5723 23.16V23.0356L21.5667 22.9394L21.5384 22.8433L21.4932 22.7528L21.4366 22.6736L21.3631 22.6114L21.2782 22.5661L21.1878 22.5379L21.0916 22.5266H20.8767L20.8484 22.5492V22.5435Z" fill="#010101"/>
<path d="M22.8223 22.125H22.3981C22.3856 22.125 22.3755 22.1351 22.3755 22.1476V24.0253C22.3755 24.0378 22.3856 24.0479 22.3981 24.0479H22.8223C22.8348 24.0479 22.8449 24.0378 22.8449 24.0253V22.1476C22.8449 22.1351 22.8348 22.125 22.8223 22.125Z" fill="#010101"/>
<path d="M23.7044 22.9117L23.7157 24.0202L23.6931 24.0429L23.2633 24.0315H23.252V24.0146V22.1708L23.2633 22.1312L23.3029 22.1199H23.6592L23.7214 22.1369L23.7666 22.1821L24.3831 23.2567L24.4001 23.2737V23.2511V22.1425V22.1199L24.4283 22.1143H24.8412L24.8638 22.1256L24.8751 22.1482V23.9863L24.8638 24.0202L24.8299 24.0315H24.451L24.4057 24.0202L24.3718 23.9863L24.0438 23.4433L23.7327 22.8947L23.7157 22.8778V22.9004L23.7044 22.9117Z" fill="#010101"/>
<path d="M32.7535 23.4375V24.0257L32.7365 24.0483H32.2784L32.2671 24.0427V24.0314V22.182L32.2784 22.148L32.3123 22.1367L33.1324 22.148L33.2568 22.165L33.37 22.2046L33.4661 22.2611L33.5453 22.3347L33.5962 22.4082L33.6358 22.493L33.6697 22.6118L33.6867 22.7249V22.8324L33.6641 22.9342L33.5792 23.1038L33.4378 23.2565L33.4209 23.2792V23.3075L33.845 24.037L33.8337 24.054H33.3473L33.3304 24.0427L33.3191 24.0314L33.0193 23.4545L32.9967 23.4262L32.9627 23.4149H32.8157L32.7818 23.4206L32.7704 23.4545L32.7535 23.4375ZM32.7365 22.5552V22.9568L32.7478 22.9794L32.7704 22.9907H32.9854L33.0702 22.9738L33.1381 22.9229L33.1833 22.8493L33.2003 22.7645V22.7362L33.1833 22.6514L33.1381 22.5779L33.0702 22.5326L32.9854 22.5157H32.7704L32.7478 22.527L32.7365 22.5496V22.5552Z" fill="#010101"/>
<path d="M34.5183 23.4771V24.0144V24.0257H34.5069H34.0601H34.0488V24.0087V22.1593L34.0601 22.1197L34.1054 22.1084H34.6936L34.8859 22.1197L35.0386 22.148L35.1517 22.1932L35.2987 22.3007L35.4005 22.4308L35.4458 22.5439L35.4684 22.6683V22.8041L35.4458 22.9568L35.4005 23.0925L35.3327 23.2056L35.2139 23.3131L35.0555 23.3922L34.8859 23.4262H34.5692L34.5352 23.4318L34.5239 23.4658L34.5183 23.4771ZM34.5183 22.5495V23.0303L34.5465 23.0529H34.7614L34.8519 23.0303L34.9311 22.9737L34.982 22.8889L34.999 22.7927V22.7701L34.982 22.674L34.9311 22.5891L34.8519 22.5326L34.7614 22.5156H34.5465L34.5183 22.5439V22.5495Z" fill="#010101"/>
<path d="M35.9998 23.8159L35.9489 23.9403L35.8754 24.0082L35.8132 24.0308H35.7453L35.6831 24.0195L35.6322 23.9912L35.5643 23.9064L35.5474 23.8441V23.7876L35.5756 23.7141L35.6379 23.6462L35.7227 23.5953L35.8019 23.584L35.8584 23.6066L35.9093 23.6519L35.9998 23.8102V23.8159Z" fill="#010101"/>
</g>
<circle cx="20" cy="20" r="19.5" stroke="black" stroke-opacity="0.05"/>
<defs>
<clipPath id="clip0_9_392467">
<rect width="32" height="9.45069" fill="white" transform="translate(4 16)"/>
</clipPath>
</defs>
</svg>
