<svg width="40" height="40" viewBox="0 0 40 40" fill="none" xmlns="http://www.w3.org/2000/svg">
<circle cx="20" cy="20" r="20" fill="#40BE46"/>
<g clip-path="url(#clip0_9_392353)">
<path d="M6.00107 13.6905V13.5179L6.05464 13.3631L6.12607 13.2381L6.2094 13.1369L6.31059 13.0655L6.44155 13.0179L6.59036 13L6.75702 13.0179L6.94155 13.0714L7.19155 13.1964L7.37607 13.369L7.50107 13.5952L7.55464 13.875L7.53678 14.0714L7.46536 14.2381L7.34036 14.369L7.17964 14.4464L7.07845 14.4583L6.97131 14.4464L6.77488 14.3631L6.70345 14.3155L6.42369 14.1369L6.22131 13.9821L6.07845 13.8333L5.99512 13.6905H6.00107Z" fill="white"/>
<path d="M21.476 13.2973L21.6665 13.2676L21.8272 13.3152L21.9105 13.3926L21.9641 13.4997L21.9879 13.6366L21.976 13.7795L21.9343 13.9104L21.8689 14.0295L21.7855 14.1188L21.6784 14.1783H21.6665L21.5653 14.1902L21.4641 14.1604L21.3808 14.095L21.3331 14.0057L21.2796 13.7973L21.2617 13.6307L21.2796 13.4878L21.3331 13.3866L21.3986 13.3331L21.4879 13.2914L21.476 13.2973Z" fill="white"/>
<path d="M11.8275 14.1246L11.6965 14.0293L11.6132 13.8984L11.5894 13.7555L11.631 13.6186L11.7025 13.5412L11.8155 13.4877L11.9941 13.4639L12.1786 13.4817L12.3334 13.5472L12.4405 13.6484L12.4644 13.6841L12.512 13.8091L12.5239 13.9282L12.4882 14.0651L12.4048 14.202L12.3394 14.2555L12.262 14.2853H12.1786L12.1013 14.2555L11.8334 14.1186L11.8275 14.1246Z" fill="white"/>
<path d="M30.9667 14.5101C31.2754 14.2645 31.3764 13.8777 31.1922 13.6462C31.008 13.4146 30.6085 13.426 30.2997 13.6716C29.991 13.9171 29.89 14.3039 30.0742 14.5355C30.2584 14.767 30.658 14.7556 30.9667 14.5101Z" fill="white"/>
<path d="M12.0534 17.5592L12.3808 17.3568L12.4582 17.3389L12.5237 17.3865L13.0177 18.2675L13.5832 19.1068L14.2201 19.9103L14.9344 20.6782L15.1427 20.8627L15.3987 21.0353L15.7082 21.202L16.0951 21.3806L16.5951 21.5532L17.107 21.6484L17.5058 21.6663L17.9165 21.6365L18.3272 21.5592L18.7499 21.4342L19.1903 21.2556L19.6487 21.0294L20.1368 20.7496L20.7022 20.3865L20.9582 20.2675L21.2201 20.2318L21.4761 20.2794L21.7201 20.4103L21.988 20.5949L22.2439 20.7318L22.488 20.827L22.7439 20.8865L23.0475 20.9103L23.3808 20.8806L23.9344 20.7556L24.4641 20.5711L24.6903 20.4758L26.5118 19.6425L26.5772 19.6127L26.9106 19.3984L27.2082 19.1127L27.6844 18.5353L28.1427 17.9163L28.2677 17.7853L28.4225 17.708L28.5594 17.6901L28.6963 17.7139L28.8391 17.7794L28.9641 17.8746L29.0653 17.9996L29.1308 18.1425L29.1546 18.2794L29.1308 18.4103L29.0296 18.5651L28.857 18.6782L28.5058 18.7913L28.2618 18.8627L28.0832 18.9401L27.8391 19.083L27.613 19.2437L27.4106 19.4222L27.226 19.6187L27.0296 19.8865L26.863 20.1782L26.7261 20.4996L26.6189 20.8449L26.3213 22.077L26.1903 22.4639L25.9999 22.7853L25.8153 22.9937L25.5951 23.1722L25.3332 23.333L25.0118 23.4818L24.3927 23.708L23.7796 23.8806L23.2261 23.9996L22.6606 24.1008L21.482 24.2437L20.2439 24.3032L18.9463 24.2794L18.1427 24.2139L17.3749 24.0949L16.6427 23.9163L15.9463 23.6842L15.4284 23.452L14.9701 23.1722L14.5713 22.8508L14.232 22.4818L14.113 22.3211L13.4403 21.3151L12.8987 20.4937L12.482 19.8984L12.0772 19.3746L11.6725 18.8984L10.8987 18.083L10.0534 17.2794L9.13677 16.4937L8.14867 15.7199L7.982 15.5711L7.87486 15.4282L7.82129 15.2794V15.1425L7.86296 15.0353L7.93438 14.9461L8.04153 14.8627L8.17248 14.8032L8.30938 14.7734H8.45819L8.5951 14.7972L8.732 14.8508L8.85105 14.9282L8.96415 15.0353L9.05343 15.1603L9.12486 15.3151L9.24391 15.577L9.39272 15.833L9.57724 16.083L9.79153 16.3211L10.1606 16.6842L10.4939 16.9818L10.8034 17.2258L11.0951 17.4103L11.363 17.5353L11.6011 17.6068L11.8153 17.6187L12.0177 17.5711L12.0594 17.5532L12.0534 17.5592Z" fill="white"/>
<path d="M25.0417 17.9281L25.0833 18.0769L25.1429 18.196L25.2202 18.2972L25.3095 18.3686L25.5 18.4281L25.744 18.4043L26.0238 18.3031L26.3452 18.1245L26.7262 17.8507L27.1369 17.5055L27.5774 17.0888L27.9583 16.6841L28.1429 16.4222L28.3631 16.0531L28.506 15.8031L28.6964 15.5531L28.9167 15.3626L29.1369 15.2614L29.3452 15.2495L29.4583 15.2793L29.5714 15.3388L29.756 15.5055L29.8095 15.6007L29.8333 15.696L29.8155 15.8745L29.7083 16.065L29.5119 16.2555L29.256 16.4222L28.7679 16.7019L28.3452 16.9876L27.9881 17.2852L27.6964 17.5888L27.0476 18.3269L26.5298 18.821L26.2679 19.0233L26.0119 19.19L25.75 19.3329L25.4702 19.4519L25.2738 19.5174L25.0774 19.5531L24.8512 19.5412L24.6131 19.4817L24.3631 19.3805L23.744 19.1126L23.125 18.9043L22.5119 18.7614L21.8988 18.6781H21.6786L21.4405 18.7317L21.2202 18.821L20.994 18.9579L20.8571 19.0591L20.5476 19.2733L20.3036 19.4043L20.0833 19.4698L19.875 19.4817L19.619 19.4222L19.1429 19.2376L18.6905 19.0948L18.244 18.9876L17.8214 18.9222L17.4167 18.8924L17.0179 18.9043L16.6369 18.9519L16.2619 19.0412L15.9286 19.1602L15.5952 19.315L15.2798 19.4995L14.9702 19.7257L14.8452 19.7674L14.7202 19.7257L14.4464 19.4817L14.1964 19.2019L13.9643 18.8924L13.756 18.5472L13.7381 18.4698L13.7619 18.3924L13.9167 18.1126L14 17.821L14.0179 17.5948L14 17.3626L13.8988 16.9757L13.744 16.6424L13.5476 16.3924L13.4345 16.2972L13.3036 16.2198L12.9702 16.0412L12.7381 15.8745L12.5893 15.7019L12.5119 15.5233L12.5 15.3805L12.5298 15.2198L12.5952 15.0531L12.7024 14.8686L12.7976 14.7972L12.9107 14.7793L13.0119 14.7912L13.1488 14.8686L13.2679 15.0174L13.5417 15.4638L13.8274 15.8745L14.131 16.2555L14.4524 16.6007L14.6726 16.7972L14.8929 16.9579L15.125 17.0829L15.3571 17.1722L15.756 17.2495H16.1905L16.6786 17.1662L17.381 16.9876L17.5595 16.94L17.9464 16.8567L18.375 16.8091L18.8512 16.7972L19.506 16.815L19.875 16.8031L20.2024 16.7436L20.4881 16.6364L20.7321 16.4817L20.9464 16.2614L21.1131 15.9876L21.2381 15.6543L21.3214 15.2674L21.3631 15.0948L21.4286 14.94L21.4524 14.9043L21.494 14.8626L21.5536 14.8388H21.6131L21.6667 14.8686L21.6786 14.8805L21.7679 15.0055L21.8036 15.1602L21.8452 15.6305L21.9226 16.0888L22.0238 16.4936L22.1548 16.8507L22.3095 17.1364L22.4821 17.3686L22.6845 17.5412L22.8988 17.6483L23.0833 17.69L23.3869 17.7079L23.6726 17.69L23.9405 17.6305L24.1905 17.5352L24.4524 17.3745L24.6905 17.1602L24.7321 17.1305H24.7857L24.8333 17.1424L24.869 17.1781L24.881 17.2079L25.0476 17.9222L25.0417 17.9281Z" fill="white"/>
<path d="M11.4972 16.2849C11.5859 16.1087 11.491 15.882 11.2855 15.7786C11.0799 15.6752 10.8414 15.7342 10.7528 15.9104C10.6641 16.0866 10.7589 16.3133 10.9645 16.4167C11.1701 16.5201 11.4086 16.4611 11.4972 16.2849Z" fill="white"/>
<path d="M30.2264 17.8454C30.4631 17.8454 30.655 17.6535 30.655 17.4169C30.655 17.1802 30.4631 16.9883 30.2264 16.9883C29.9897 16.9883 29.7979 17.1802 29.7979 17.4169C29.7979 17.6535 29.9897 17.8454 30.2264 17.8454Z" fill="white"/>
<path d="M11.613 20.3512L11.1546 20.6488L10.738 20.9762L10.3808 21.3155L10.0832 21.6726L9.85107 22.0357L9.68441 22.4048L9.58322 22.7857L9.55346 23.1607L9.57131 23.4345L9.63084 23.7202L9.72607 23.994L9.86298 24.2738L9.87488 24.3274L9.82726 24.3095L9.54155 24.125L9.29155 23.9286L9.07726 23.7202L8.89869 23.5L8.76774 23.2917L8.67846 23.0893L8.61893 22.881L8.60107 22.6726L8.62488 22.4048L8.70822 22.1488L8.83917 21.8988L9.02965 21.6429L9.26774 21.4048L9.55346 21.1726L9.88084 20.9583L10.232 20.7738L10.8689 20.5119L11.5594 20.2798L11.7142 20.25L11.5892 20.3452L11.613 20.3512Z" fill="white"/>
<path d="M26.0776 24.4706L26.774 24.167L27.3574 23.8218L27.6133 23.6313L27.8336 23.4349L28.024 23.2325L28.1907 23.0123L28.3098 22.8039L28.3931 22.5897L28.4348 22.3694V22.1492L28.4109 21.9528L28.3514 21.7623L28.2621 21.5778L28.1431 21.3992L28.1193 21.3516L28.1669 21.3694L28.6014 21.6254L28.9705 21.8992L29.2681 22.1849L29.5002 22.4885L29.6133 22.6908L29.6907 22.8873L29.7383 23.0897L29.7502 23.2861L29.7086 23.5837L29.5895 23.8873L29.399 24.1789L29.1371 24.4647L28.7919 24.7504L28.3871 25.0242L27.9169 25.2801L27.4228 25.5004L26.5181 25.8278L25.5776 26.0956L24.6014 26.3099L23.5836 26.4647L22.6848 26.5599L21.7919 26.6254L20.905 26.6611H20.024L19.149 26.6492L18.28 26.5956L17.4169 26.5123L16.5598 26.3992L15.4764 26.2028L14.4229 25.9468L13.4824 25.6432L12.6788 25.3099L12.3276 25.1313L12.0181 24.9468L11.7383 24.7563L11.4883 24.5539L11.2859 24.3516L11.1133 24.1373L10.9764 23.917L10.8752 23.6849L10.8217 23.4885L10.7979 23.298L10.8098 23.0778L10.8574 22.8635L10.9407 22.6492L11.0598 22.4408L11.2205 22.2266L11.405 22.0301L11.6252 21.8397L11.8574 21.673L11.9109 21.6551V21.7087L11.8098 21.9944L11.7859 22.292L11.8038 22.4766L11.8455 22.6551L11.9169 22.8397L12.0121 23.0123L12.1371 23.1908L12.2859 23.3575L12.6431 23.667L13.0538 23.9408L13.5062 24.1908L14.0062 24.423L14.5419 24.6254L15.1252 24.8099L15.7502 24.9706L16.4229 25.1075L17.1431 25.2266L18.4824 25.3754L19.8455 25.4349L21.2264 25.4051L22.6312 25.2861L23.5419 25.1551L24.4228 24.9766L25.2681 24.7504L26.0836 24.4766L26.0776 24.4706Z" fill="white"/>
<path d="M31.9998 24.1968V24.5122L31.8808 24.9527L31.6843 25.3456L31.5117 25.5837L31.3034 25.7979L30.8272 26.1908L30.3153 26.5182L29.9224 26.7146L29.5117 26.8813L28.7736 27.1194L28.0355 27.3039L27.2915 27.4408L26.5415 27.5241L26.0296 27.5539H25.5117L24.9939 27.536L24.476 27.4884L24.3867 27.4646L24.476 27.4348L25.1784 27.2979L25.8629 27.1313L26.5117 26.9408L27.1367 26.7265L27.732 26.4884L28.2855 26.2265L28.8153 25.9408L29.3034 25.6313L29.6724 25.3575L30.0058 25.0658L30.2974 24.7503L30.5355 24.4289L30.7201 24.0956L30.851 23.7682L30.9284 23.4289L30.9522 23.0956L30.9343 22.8396L30.8808 22.5837V22.542L30.9224 22.5539L31.1367 22.7087L31.3272 22.8813L31.4939 23.0658L31.6427 23.2682L31.7617 23.4765L31.8629 23.7027L31.9403 23.9408L31.9939 24.1968H31.9998Z" fill="white"/>
</g>
<circle cx="20" cy="20" r="19.5" stroke="black" stroke-opacity="0.05"/>
<defs>
<clipPath id="clip0_9_392353">
<rect width="26" height="14.5536" fill="white" transform="translate(6 13)"/>
</clipPath>
</defs>
</svg>
