<svg width="40" height="40" viewBox="0 0 40 40" fill="none" xmlns="http://www.w3.org/2000/svg">
<circle cx="20" cy="20" r="20" fill="#1E1E23"/>
<g clip-path="url(#clip0_9_401377)">
<path d="M3.71387 15.25H4.39244V15.9286H3.71387V15.25Z" fill="#F5472C"/>
<path fill-rule="evenodd" clip-rule="evenodd" d="M36.2853 15.25V24.0714H35.6067V15.9286H5.07101V15.25H36.2853ZM3.71387 16.6071H4.39244V23.3929H24.071V24.0714H3.71387V16.6071ZM5.74958 17.9643H7.7853V18.6429H6.42815V19.3214H7.7853V20H6.42815V21.3571H5.74958V17.9643ZM9.82101 17.9643H11.8567V18.6429H10.4996V19.3214H11.5174V20H10.4996V20.6786H11.8567V21.3571H9.82101V17.9643ZM19.321 17.9643H18.6424V21.3571H20.6782V20.6786H19.321V20H20.3389V19.3214H19.321V18.6429H20.6782V17.9643H19.321ZM13.8924 17.9643H14.9103C15.3602 17.9643 15.7917 18.143 16.1099 18.4612C16.428 18.7793 16.6067 19.2108 16.6067 19.6607C16.6067 20.1106 16.428 20.5421 16.1099 20.8603C15.7917 21.1784 15.3602 21.3571 14.9103 21.3571H13.8924V17.9643ZM14.571 18.6429H14.9103C15.1802 18.6429 15.4391 18.7501 15.63 18.941C15.8209 19.1319 15.9282 19.3908 15.9282 19.6607C15.9282 19.9307 15.8209 20.1896 15.63 20.3804C15.4391 20.5713 15.1802 20.6786 14.9103 20.6786H14.571V18.6429ZM22.7139 17.9643H23.5621C23.8207 17.964 24.0724 18.0481 24.2789 18.2039C24.4853 18.3597 24.6353 18.5786 24.7059 18.8274C24.7765 19.0762 24.764 19.3413 24.6703 19.5823C24.5765 19.8234 24.4066 20.0272 24.1864 20.1629L25.3399 21.3571H24.3764L23.406 20.3393H23.3924V21.3571H22.7139V17.9643ZM23.3924 19.6607V18.6429H23.5621C23.6971 18.6429 23.8265 18.6965 23.9219 18.7919C24.0174 18.8874 24.071 19.0168 24.071 19.1518C24.071 19.2868 24.0174 19.4162 23.9219 19.5117C23.8265 19.6071 23.6971 19.6607 23.5621 19.6607H23.3924ZM27.0296 21.3571H27.7828L28.1085 20.6786H29.3435L29.6692 21.3571H30.4292L28.7328 17.9643L27.0364 21.3571H27.0296ZM28.726 19.4029L29.0178 20H28.441L28.726 19.4029ZM32.8924 17.9643H32.2139V21.3571H34.2496V20.6786H32.8924V17.9643ZM31.8746 23.8746C31.8758 23.7079 31.8156 23.5466 31.7054 23.4215C31.5953 23.2963 31.4429 23.2161 31.2774 23.1961L31.6642 22.8704L31.5353 22.7143L31.1349 23.0536L30.7753 23.3657C30.6958 23.4247 30.6311 23.5014 30.5863 23.5897C30.5415 23.6781 30.518 23.7756 30.5174 23.8746C30.5174 24.0546 30.5889 24.2272 30.7162 24.3545C30.8434 24.4817 31.016 24.5532 31.196 24.5532C31.376 24.5532 31.5486 24.4817 31.6758 24.3545C31.8031 24.2272 31.8746 24.0546 31.8746 23.8746ZM31.671 23.8746C31.671 23.8123 31.6587 23.7505 31.6349 23.6929C31.611 23.6352 31.576 23.5829 31.5319 23.5388C31.4878 23.4947 31.4354 23.4597 31.3778 23.4358C31.3202 23.4119 31.2584 23.3996 31.196 23.3996C30.9449 23.3996 30.721 23.6304 30.721 23.8746C30.721 24.0006 30.7711 24.1214 30.8601 24.2105C30.9492 24.2996 31.07 24.3496 31.196 24.3496C31.322 24.3496 31.4428 24.2996 31.5319 24.2105C31.621 24.1214 31.671 24.0006 31.671 23.8746ZM26.256 22.8907V24.4107H26.0524V23.2164L25.5164 23.4879L25.4282 23.3046L26.256 22.8907ZM28.4003 24.2614C28.2707 24.2458 28.1484 24.1931 28.048 24.1096C27.9476 24.0262 27.8734 23.9156 27.8343 23.7911C27.7952 23.6665 27.7929 23.5334 27.8275 23.4075C27.8622 23.2817 27.9324 23.1685 28.0298 23.0816C28.1272 22.9947 28.2475 22.9377 28.3765 22.9174C28.5054 22.8972 28.6375 22.9145 28.7568 22.9674C28.8761 23.0203 28.9776 23.1065 29.0492 23.2157C29.1208 23.3249 29.1594 23.4523 29.1603 23.5829C29.1603 23.8068 29.0653 23.9629 28.9024 24.0986L28.5428 24.4107L28.1424 24.75L28.0067 24.5939L28.4003 24.2614ZM28.4817 24.0579C28.3878 24.0579 28.2959 24.03 28.2178 23.9778C28.1397 23.9256 28.0788 23.8514 28.0429 23.7646C28.0069 23.6778 27.9975 23.5823 28.0159 23.4902C28.0342 23.398 28.0794 23.3134 28.1458 23.247C28.2123 23.1806 28.2969 23.1353 28.3891 23.117C28.4812 23.0987 28.5767 23.1081 28.6635 23.144C28.7503 23.18 28.8245 23.2408 28.8767 23.319C28.9289 23.3971 28.9567 23.4889 28.9567 23.5829C28.9567 23.8339 28.7328 24.0579 28.4817 24.0579ZM33.6932 23.3589C33.5982 23.2843 33.4082 23.2232 33.096 23.2232V23.0196C33.4285 23.0196 33.666 23.0807 33.8153 23.1961C33.9782 23.3182 34.0189 23.4879 33.9849 23.6575C33.951 23.8271 33.8424 23.9968 33.6932 24.1325C33.6253 24.2004 33.5574 24.2546 33.4896 24.3089H34.2496V24.5125H33.096L33.0553 24.3157C33.2453 24.2343 33.4217 24.1189 33.5507 23.9968C33.6864 23.8611 33.761 23.7254 33.7882 23.6168C33.8085 23.5082 33.7882 23.4268 33.6932 23.3589Z" fill="white"/>
</g>
<circle cx="20" cy="20" r="19.5" stroke="black" stroke-opacity="0.05"/>
<defs>
<clipPath id="clip0_9_401377">
<rect width="34" height="10" fill="white" transform="translate(3 15)"/>
</clipPath>
</defs>
</svg>
