<svg width="40" height="40" viewBox="0 0 40 40" fill="none" xmlns="http://www.w3.org/2000/svg">
<circle cx="20" cy="20" r="20" fill="#F34113"/>
<g clip-path="url(#clip0_9_395946)">
<path d="M3.71387 18.9908V22.7141H4.39244V20.9783C4.39244 20.2333 5.28544 19.9876 5.74958 19.9876V19.3097C4.94072 19.3097 4.54512 19.5995 4.39244 19.6904C4.39244 18.5803 4.88644 17.9628 5.74958 17.9628V17.2842C3.98258 17.2923 3.71387 18.3251 3.71387 18.9908ZM6.42815 20.4667V22.7141H7.10672C7.10333 22.4033 7.10672 21.5755 7.10672 20.753C7.10672 19.7488 7.90608 19.3213 8.46387 19.3213V18.6427C6.85226 18.7533 6.43494 19.9048 6.42815 20.4667Z" fill="white"/>
<path d="M34.25 20.4666V22.714H34.9286C34.9252 22.4032 34.9286 21.5754 34.9286 20.7529C34.9286 19.7486 35.7279 19.3211 36.2857 19.3211V18.6426C34.6734 18.7532 34.2568 19.9047 34.25 20.4666Z" fill="#CECECE"/>
<path d="M10.8179 22.714C11.9422 22.714 12.8537 21.8026 12.8537 20.6783C12.8537 19.554 11.9422 18.6426 10.8179 18.6426C9.69365 18.6426 8.78223 19.554 8.78223 20.6783C8.78223 21.8026 9.69365 22.714 10.8179 22.714Z" fill="white"/>
<path d="M24.7457 20.5295C24.7801 21.0008 24.6494 21.4693 24.3762 21.8547C24.103 22.2402 23.7042 22.5186 23.2482 22.6422C22.7922 22.7659 22.3074 22.7271 21.8769 22.5325C21.4463 22.3379 21.0969 21.9996 20.8885 21.5755C20.6801 21.1515 20.6256 20.6682 20.7345 20.2085C20.8433 19.7487 21.1087 19.3411 21.4851 19.0556C21.8615 18.7701 22.3255 18.6243 22.7976 18.6434C23.2697 18.6625 23.7204 18.8452 24.0726 19.1602V17.9639H24.7512V20.5832C24.7496 20.5653 24.7478 20.5474 24.7457 20.5295Z" fill="#CECECE"/>
<path d="M27.1802 22.714C28.3045 22.714 29.216 21.8026 29.216 20.6783C29.216 19.554 28.3045 18.6426 27.1802 18.6426C26.056 18.6426 25.1445 19.554 25.1445 20.6783C25.1445 21.8026 26.056 22.714 27.1802 22.714Z" fill="#CECECE"/>
<path d="M31.7867 22.714C32.911 22.714 33.8224 21.8026 33.8224 20.6783C33.8224 19.554 32.911 18.6426 31.7867 18.6426C30.6624 18.6426 29.751 19.554 29.751 20.6783C29.751 21.8026 30.6624 22.714 31.7867 22.714Z" fill="#CECECE"/>
<path d="M10.8181 22.0356C11.5676 22.0356 12.1752 21.428 12.1752 20.6784C12.1752 19.9289 11.5676 19.3213 10.8181 19.3213C10.0686 19.3213 9.46094 19.9289 9.46094 20.6784C9.46094 21.428 10.0686 22.0356 10.8181 22.0356Z" fill="#F34113"/>
<path d="M22.7146 22.0356C23.4641 22.0356 24.0717 21.428 24.0717 20.6784C24.0717 19.9289 23.4641 19.3213 22.7146 19.3213C21.965 19.3213 21.3574 19.9289 21.3574 20.6784C21.3574 21.428 21.965 22.0356 22.7146 22.0356Z" fill="#F34113"/>
<path d="M27.1804 22.0375C27.9299 22.0375 28.5375 21.4299 28.5375 20.6804C28.5375 19.9309 27.9299 19.3232 27.1804 19.3232C26.4309 19.3232 25.8232 19.9309 25.8232 20.6804C25.8232 21.4299 26.4309 22.0375 27.1804 22.0375Z" fill="#F34113"/>
<path d="M31.7868 22.0375C32.5364 22.0375 33.144 21.4299 33.144 20.6804C33.144 19.9309 32.5364 19.3232 31.7868 19.3232C31.0373 19.3232 30.4297 19.9309 30.4297 20.6804C30.4297 21.4299 31.0373 22.0375 31.7868 22.0375Z" fill="#F34113"/>
<path d="M13.2139 20.3879V22.714H13.8924V20.5996C13.8924 20.2909 14.1116 19.2968 15.2496 19.3212C16.3875 19.3449 16.6047 20.2535 16.6047 20.5996V22.714H17.2853V20.3879C17.2554 19.8091 16.815 18.6501 15.295 18.6426C13.775 18.6358 13.2743 19.803 13.2139 20.3879Z" fill="white"/>
<path d="M15.5893 21.3573C15.7767 21.3573 15.9286 21.2054 15.9286 21.018C15.9286 20.8306 15.7767 20.6787 15.5893 20.6787C15.4019 20.6787 15.25 20.8306 15.25 21.018C15.25 21.2054 15.4019 21.3573 15.5893 21.3573Z" fill="#CECECE"/>
<path d="M17.9645 21.2007V17.9639H18.6424V19.321H19.9996V19.9996H18.6424C18.6343 20.1584 18.6424 20.5153 18.6424 21.0256C18.6424 21.8433 19.4364 22.0339 19.9996 22.0339V22.7139C18.4423 22.7139 17.9645 21.8494 17.9645 21.2007Z" fill="white"/>
</g>
<circle cx="20" cy="20" r="19.5" stroke="black" stroke-opacity="0.05"/>
<defs>
<clipPath id="clip0_9_395946">
<rect width="34" height="6" fill="white" transform="translate(3 17)"/>
</clipPath>
</defs>
</svg>
