<svg width="40" height="40" viewBox="0 0 40 40" fill="none" xmlns="http://www.w3.org/2000/svg">
<circle cx="20" cy="20" r="20" fill="black"/>
<g clip-path="url(#clip0_9_394090)">
<path d="M14.5068 20.4341C14.5068 19.2685 15.3778 18.415 16.5874 18.415C17.797 18.415 18.6753 19.2685 18.6753 20.4341C18.6753 21.5997 17.8044 22.4531 16.5874 22.4531C15.3705 22.4531 14.5068 21.6144 14.5068 20.4341ZM17.6643 20.4341C17.6643 19.8108 17.2069 19.3652 16.5874 19.3652C15.9679 19.3652 15.5252 19.8108 15.5252 20.4341C15.5252 21.0574 15.9753 21.503 16.5874 21.503C17.1996 21.503 17.6643 21.05 17.6643 20.4341Z" fill="#F9F5F1"/>
<path d="M20.171 18.9945C20.3704 18.6382 20.7172 18.4154 21.3293 18.4899L21.322 19.3959C20.5992 19.3066 20.193 19.5515 20.193 20.1609V21.9301C20.193 22.2209 19.9585 22.4576 19.6687 22.4576C19.3798 22.4576 19.1445 22.2217 19.1445 21.9301V18.4973H20.0001L20.1694 18.9945H20.171Z" fill="#F9F5F1"/>
<path d="M24.4149 18.4972V19.3286H23.5219V21.9292C23.5219 22.22 23.2875 22.4567 22.9977 22.4567C22.7087 22.4567 22.4735 22.2208 22.4735 21.9292V19.3286H21.8467V18.4972H22.4735V17.5209L23.5211 17.1113V18.4972H24.414H24.4149Z" fill="#F9F5F1"/>
<path d="M25.9835 18.9945C26.1829 18.6382 26.5297 18.4154 27.1418 18.4899L27.1345 19.3959C26.4117 19.3066 26.0054 19.5515 26.0054 20.1609V21.9301C26.0054 22.2209 25.771 22.4576 25.4812 22.4576C25.1922 22.4576 24.957 22.2217 24.957 21.9301V18.4973H25.8125L25.9818 18.9945H25.9835Z" fill="#F9F5F1"/>
<path d="M31.2806 20.7684H28.3518C28.4031 21.2435 28.824 21.5851 29.3628 21.5851C29.8129 21.5851 30.1377 21.3696 30.2924 21.0658L31.2073 21.1624C31.0006 21.8971 30.2558 22.4541 29.3555 22.4541C28.1605 22.4541 27.2969 21.6522 27.2969 20.4498C27.2969 19.2474 28.1231 18.416 29.2887 18.416C30.4544 18.416 31.3254 19.2105 31.2806 20.7693V20.7684ZM28.3445 20.0337H30.2183C30.189 19.5808 29.8203 19.2613 29.2887 19.2613C28.7572 19.2613 28.3811 19.5808 28.3445 20.0337Z" fill="#F9F5F1"/>
<path d="M35.6287 18.4969H35.9999V22.3794H35.6018C35.2347 22.3794 34.9376 22.0805 34.9376 21.711C34.7529 22.1714 34.2441 22.4531 33.6018 22.4531C32.4289 22.4531 31.7354 21.5325 31.7354 20.4267C31.7354 19.3209 32.4655 18.415 33.6539 18.415C34.148 18.415 34.6503 18.6378 34.9376 19.0687V19.0908L34.9669 18.9925C35.0548 18.6984 35.3234 18.4969 35.6287 18.4969ZM34.9376 20.4308C34.9359 19.8059 34.4061 19.3341 33.7866 19.3758C33.2006 19.4151 32.7984 19.8403 32.7984 20.4349C32.7984 21.0656 33.2412 21.5112 33.8753 21.5112C34.5095 21.5112 34.9392 21.0566 34.9376 20.4308Z" fill="#F9F5F1"/>
<path d="M11.4355 17.1084V22.3792H11.7302C12.1584 22.3792 12.5051 22.0303 12.5051 21.5995V20.334H13.6399C13.9321 20.334 14.1689 20.0956 14.1689 19.8016C14.1689 19.5075 13.9321 19.2692 13.6399 19.2692H12.5051V18.088H13.9549C14.3562 18.088 14.6818 17.7604 14.6818 17.3566V17.1084H11.4355Z" fill="#F9F5F1"/>
<path d="M5.59848 23.0554L9.79172 18.8433C10.0795 18.5543 10.0783 18.0844 9.78904 17.7939C9.49978 17.5034 9.032 17.5021 8.74423 17.7912L4.55099 22.0033C4.26321 22.2924 4.26441 22.7622 4.55367 23.0527C4.84293 23.3433 5.31071 23.3445 5.59848 23.0554Z" fill="url(#paint0_linear_9_394090)"/>
<path d="M8.33374 20.3074C8.01811 20.6244 7.56898 20.586 7.29643 20.3122C6.98691 20.0013 7.02226 19.5204 7.28624 19.2553C7.59383 18.9463 8.051 18.9767 8.33164 19.2585C8.61228 19.5404 8.65052 19.9915 8.3349 20.3085L8.33374 20.3074Z" fill="#0BC11C"/>
<path d="M5.8747 17.8471L4.51213 19.2156C4.22925 19.4998 4.229 19.9602 4.51157 20.244C4.79415 20.5278 5.25254 20.5275 5.53542 20.2434L6.89799 18.8749C7.18088 18.5907 7.18112 18.1303 6.89855 17.8465C6.61597 17.5627 6.15759 17.5629 5.8747 17.8471Z" fill="url(#paint1_linear_9_394090)"/>
<path d="M5.5757 17.5356C5.26639 17.8449 4.82878 17.8078 4.5645 17.5412C4.26439 17.2385 4.30134 16.7696 4.56003 16.5109C4.86147 16.2095 5.30696 16.2386 5.57908 16.5132C5.85119 16.7877 5.88614 17.2274 5.57683 17.5367L5.5757 17.5356Z" fill="url(#paint2_linear_9_394090)"/>
</g>
<circle cx="20" cy="20" r="19.5" stroke="black" stroke-opacity="0.05"/>
<defs>
<linearGradient id="paint0_linear_9_394090" x1="7.46858" y1="20.1364" x2="4.44276" y2="23.1357" gradientUnits="userSpaceOnUse">
<stop offset="0.139568" stop-color="#0BC11C" stop-opacity="0"/>
<stop offset="0.639235" stop-color="#0BC11C" stop-opacity="0.8"/>
<stop offset="1" stop-color="#0BC11C"/>
</linearGradient>
<linearGradient id="paint1_linear_9_394090" x1="4.18805" y1="20.5701" x2="6.87151" y2="17.8173" gradientUnits="userSpaceOnUse">
<stop stop-color="#0BC11C" stop-opacity="0"/>
<stop offset="0.868915" stop-color="#0BC11C"/>
</linearGradient>
<linearGradient id="paint2_linear_9_394090" x1="3.85006" y1="18.2433" x2="5.47933" y2="16.6075" gradientUnits="userSpaceOnUse">
<stop stop-color="#0BC11C" stop-opacity="0"/>
<stop offset="0.0001" stop-color="#0BC11C" stop-opacity="0"/>
<stop offset="0.868915" stop-color="#0BC11C"/>
</linearGradient>
<clipPath id="clip0_9_394090">
<rect width="32" height="7.58763" fill="white" transform="translate(4 16)"/>
</clipPath>
</defs>
</svg>
