<svg width="40" height="40" viewBox="0 0 40 40" fill="none" xmlns="http://www.w3.org/2000/svg">
<circle cx="20" cy="20" r="20" fill="#F6F8FA"/>
<g clip-path="url(#clip0_9_409000)">
<path fill-rule="evenodd" clip-rule="evenodd" d="M12.3988 17H12.7256C13.3431 17.0203 13.9696 17.1375 14.5081 17.4507C14.8236 17.6355 15.1031 17.8879 15.3059 18.1944C15.5425 18.5459 15.6755 18.9583 15.7205 19.3797C15.7949 20.0468 15.6665 20.7544 15.2743 21.3087C15.2112 21.3989 15.1414 21.4823 15.0693 21.5656C15.0573 21.5777 15.0452 21.5897 15.0332 21.6017C14.596 22.0501 13.9966 22.3093 13.3859 22.4107C13.1853 22.4468 12.9803 22.4625 12.7774 22.4761H12.3448C11.8535 22.449 11.36 22.3634 10.9115 22.1515C10.4315 21.933 10.0146 21.5656 9.75997 21.0992C9.41744 20.4817 9.35209 19.7335 9.50082 19.0462C9.62251 18.4783 9.94476 17.9532 10.4157 17.6062C10.9814 17.1803 11.7025 17.0225 12.3988 17ZM11.6732 17.7617C11.4141 17.8969 11.2 18.111 11.0603 18.3679C10.9791 18.5076 10.9228 18.6608 10.8777 18.8141C10.8507 18.9132 10.8281 19.0146 10.8101 19.1161C10.7831 19.2783 10.7673 19.4428 10.7583 19.6051C10.756 19.7087 10.7515 19.8101 10.7538 19.9115C10.756 20.0761 10.7628 20.2383 10.7808 20.4006C10.8124 20.6732 10.8732 20.9437 10.9859 21.1938C11.1234 21.5025 11.3577 21.7707 11.6574 21.9285C12.0338 22.1335 12.4732 22.1808 12.8946 22.1628C13.289 22.1448 13.6946 22.0389 14.0056 21.7842C14.2986 21.5499 14.4788 21.2006 14.5712 20.8423C14.6005 20.7228 14.6231 20.6034 14.6411 20.4839C14.6524 20.3915 14.6636 20.2992 14.6681 20.2045C14.6772 20.0468 14.6862 19.8868 14.6749 19.7268C14.6749 19.6163 14.6704 19.5037 14.6569 19.3932C14.6366 19.1499 14.5938 18.9042 14.5104 18.6721C14.3955 18.3228 14.1701 18.0006 13.8546 17.8045C13.4918 17.5792 13.0524 17.5206 12.6332 17.5318C12.3019 17.5431 11.9662 17.6039 11.6732 17.7617Z" fill="#0A5F88"/>
<path d="M33.6722 17H34.0395C34.6141 17.0135 35.191 17.1104 35.7319 17.3065C35.7319 17.661 35.7319 18.0148 35.7319 18.3679C35.6282 18.3694 35.5253 18.3694 35.4232 18.3679C35.4119 18.1673 35.3578 17.969 35.2654 17.7887C35.2068 17.6828 35.1392 17.5769 35.0288 17.5183C34.8102 17.3966 34.5533 17.3763 34.3077 17.3606C33.9313 17.3493 33.5505 17.3448 33.1832 17.4349C32.9894 17.4845 32.7933 17.5656 32.6626 17.7234C32.5409 17.8654 32.5003 18.0592 32.5116 18.2439C32.5184 18.4107 32.5725 18.5797 32.6874 18.7037C32.8271 18.8592 33.0254 18.9403 33.2237 18.9944C33.6226 19.1003 34.0395 19.1206 34.4474 19.1882C34.7967 19.2445 35.1572 19.3211 35.4592 19.5172C35.6846 19.6637 35.8536 19.8913 35.9279 20.1482C36.0339 20.5087 36.0158 20.9031 35.8919 21.2569C35.7702 21.6062 35.5268 21.9037 35.2158 22.0997C34.8215 22.3566 34.346 22.458 33.8795 22.4761H33.6136C33.2733 22.458 32.9353 22.413 32.6017 22.3454C32.2998 22.2823 31.9933 22.2169 31.7139 22.0817C31.6838 21.5949 31.6545 21.1074 31.626 20.6192C31.7296 20.6056 31.8333 20.5899 31.937 20.5763C31.9617 20.7386 31.9933 20.9008 32.0384 21.0586C32.1285 21.3583 32.2818 21.6535 32.5409 21.8383C32.8248 22.0456 33.1832 22.1042 33.5257 22.1177C33.9426 22.1358 34.3775 22.0975 34.7471 21.8924C34.9995 21.7527 35.1978 21.5138 35.2609 21.2321C35.297 21.0563 35.3105 20.8603 35.2248 20.6958C35.1505 20.5561 35.013 20.4659 34.871 20.4073C34.6457 20.3172 34.4046 20.2811 34.1679 20.2473C33.7015 20.1842 33.226 20.1504 32.7753 20.0017C32.4936 19.9093 32.2187 19.7583 32.0339 19.5172C31.8401 19.2715 31.7657 18.9538 31.7589 18.6451C31.7522 18.3566 31.7905 18.0592 31.9212 17.8C32.0429 17.5566 32.2525 17.3673 32.4936 17.2479C32.8587 17.0654 33.271 17.0158 33.6722 17Z" fill="#0A5F88"/>
<path d="M4.04282 17.0879C5.76451 17.0879 7.4862 17.0879 9.20789 17.0879C9.23718 17.471 9.27099 17.8563 9.29577 18.2394C9.17634 18.2507 9.05916 18.2687 8.94197 18.2823C8.89991 18.0885 8.85859 17.8947 8.81803 17.7008C8.80451 17.6423 8.79324 17.5814 8.75493 17.5341C8.71437 17.4845 8.64451 17.489 8.58817 17.4868C7.72131 17.4868 6.85446 17.4868 5.98761 17.4868C5.98761 18.0892 5.98761 18.6916 5.98761 19.2941C6.59455 19.2941 7.20075 19.2941 7.8062 19.2941C7.86479 19.2963 7.93014 19.2806 7.96394 19.2265C8.0293 19.1296 8.03155 19.0079 8.05859 18.8975C8.13371 18.9125 8.20808 18.9275 8.28169 18.9425C8.28169 19.3692 8.28169 19.7966 8.28169 20.2248C8.20808 20.2398 8.13371 20.2548 8.05859 20.2699C8.02704 20.1504 8.00225 20.031 7.96845 19.9116C7.93916 19.8282 7.85352 19.7786 7.76563 19.7831C7.17296 19.7831 6.58028 19.7831 5.98761 19.7831C5.98761 20.4802 5.98761 21.1773 5.98761 21.8744C5.98986 21.9307 5.99211 21.9961 6.03944 22.0366C6.09352 22.0749 6.16113 22.0749 6.22423 22.0772C6.45408 22.0772 6.68394 22.0772 6.9138 22.0772C6.9138 22.1808 6.9138 22.2845 6.9138 22.3882C5.94254 22.3882 4.97127 22.3882 4 22.3882V22.0772C4.21333 22.0772 4.42667 22.0772 4.64 22.0772C4.7031 22.0749 4.77296 22.0749 4.82479 22.0389C4.88113 21.9961 4.87887 21.9172 4.88113 21.8541C4.88113 20.4434 4.88113 19.0327 4.88113 17.622C4.87887 17.5589 4.88113 17.48 4.82479 17.4372C4.7707 17.4011 4.7031 17.4011 4.64 17.3989C4.44169 17.3989 4.24113 17.3989 4.04282 17.3989C4.04282 17.2952 4.04282 17.1916 4.04282 17.0879Z" fill="#0A5F88"/>
<path fill-rule="evenodd" clip-rule="evenodd" d="M15.8267 17.0876C16.9925 17.0876 18.1583 17.0876 19.3241 17.0876C19.6329 17.0898 19.9438 17.0718 20.2458 17.1372C20.6064 17.2093 20.9624 17.3828 21.1833 17.6848C21.4199 18.0025 21.474 18.4239 21.4086 18.807C21.3658 19.0527 21.2284 19.2803 21.03 19.4312C20.8092 19.6093 20.5365 19.6904 20.2706 19.776C20.2458 19.7896 20.2007 19.7941 20.1962 19.8301C20.2098 19.8752 20.2593 19.8932 20.2976 19.9158C20.3991 19.9698 20.4937 20.0397 20.5636 20.1321C21.0007 20.736 21.4379 21.3422 21.8774 21.9462C22.0441 22.1332 22.3168 22.0634 22.5376 22.0769C22.5376 22.1805 22.5354 22.2842 22.5376 22.3879C21.9773 22.3879 21.4169 22.3879 20.8565 22.3879C20.4284 21.6983 20.0002 21.0087 19.572 20.3214C19.4458 20.1163 19.225 19.9698 18.9816 19.9631C18.5782 19.9586 18.1748 19.9631 17.7714 19.9608C17.7714 20.5648 17.7714 21.1687 17.7714 21.7727C17.7737 21.8493 17.7602 21.9327 17.7962 22.0025C17.8323 22.0679 17.9157 22.0724 17.981 22.0769C18.2064 22.0791 18.4295 22.0769 18.6526 22.0769C18.6526 22.1805 18.6526 22.2842 18.6526 22.3879C17.7106 22.3879 16.7686 22.3879 15.8267 22.3879C15.8267 22.2842 15.8267 22.1805 15.8267 22.0769C16.0295 22.0769 16.2345 22.0769 16.4396 22.0769C16.5005 22.0724 16.5681 22.0724 16.6176 22.0318C16.6605 21.9912 16.6627 21.9281 16.665 21.8741C16.665 20.4566 16.665 19.0391 16.665 17.6217C16.6627 17.5608 16.665 17.4887 16.6176 17.4436C16.5681 17.4031 16.5005 17.4031 16.4396 17.3986C16.2345 17.3986 16.0295 17.3986 15.8267 17.3986C15.8267 17.2949 15.8267 17.1912 15.8267 17.0876ZM17.7714 17.4436C17.7737 18.149 17.7714 18.8543 17.7714 19.5597C18.283 19.5755 18.7945 19.6386 19.3061 19.58C19.563 19.5484 19.8379 19.4808 20.016 19.2803C20.194 19.0797 20.23 18.8003 20.2391 18.5434C20.2481 18.3067 20.2143 18.0521 20.07 17.856C19.9281 17.6622 19.7005 17.5541 19.4751 17.4932C19.0943 17.3941 18.6954 17.3963 18.3033 17.3986C18.1253 17.4053 17.945 17.4031 17.7714 17.4436Z" fill="#0A5F88"/>
<path d="M22.3571 17.0879C24.0352 17.0879 25.7133 17.0879 27.3914 17.0879C27.4651 17.6032 27.5387 18.1193 27.6123 18.6361C27.4786 18.6511 27.3456 18.6654 27.2134 18.6789C27.1143 18.3529 27.0151 18.0276 26.9159 17.7031C26.8979 17.6468 26.9047 17.5792 26.8551 17.5386C26.783 17.4823 26.6816 17.489 26.5937 17.4868C26.1993 17.4868 25.8027 17.4868 25.4083 17.4845C25.4038 18.9223 25.4083 20.3577 25.4061 21.7932C25.4016 21.8676 25.4219 21.942 25.4647 22.0051C25.512 22.0682 25.5999 22.0749 25.6743 22.0772C25.8771 22.0772 26.0821 22.0772 26.2872 22.0772C26.2872 22.1808 26.2872 22.2845 26.2872 22.3882C25.3302 22.3882 24.374 22.3882 23.4185 22.3882C23.4185 22.2845 23.4185 22.1808 23.4185 22.0772C23.6348 22.0772 23.8534 22.0772 24.0698 22.0772C24.1306 22.0749 24.2005 22.0727 24.25 22.0321C24.2906 21.9983 24.2951 21.942 24.2996 21.8924C24.3019 20.4254 24.2974 18.9561 24.3019 17.489C23.885 17.4845 23.4681 17.4868 23.0512 17.489C22.9475 17.4845 22.8348 17.5296 22.81 17.64C22.7154 17.9848 22.6275 18.3341 22.5374 18.6789C22.4036 18.6654 22.2699 18.6511 22.1362 18.6361C22.2106 18.12 22.285 17.6039 22.3571 17.0879Z" fill="#0A5F88"/>
<path d="M28.0498 17.0879C29.0076 17.0879 29.9653 17.0879 30.9208 17.0879C30.9223 17.1916 30.923 17.2952 30.923 17.3989C30.7022 17.3989 30.4814 17.3989 30.2628 17.3989C30.1974 17.4034 30.1208 17.4034 30.0757 17.4575C30.0329 17.5161 30.0419 17.5927 30.0397 17.6625C30.0412 19.0657 30.0412 20.4689 30.0397 21.8721C30.0419 21.9285 30.0442 21.9893 30.0847 22.0299C30.1343 22.0727 30.2019 22.0749 30.2628 22.0772C30.4836 22.0772 30.7022 22.0772 30.923 22.0772C30.923 22.1808 30.923 22.2845 30.9208 22.3882C29.9653 22.3882 29.0076 22.3904 28.0498 22.3882C28.0498 22.2845 28.0498 22.1808 28.0498 22.0772C28.2661 22.0772 28.4825 22.0772 28.6988 22.0772C28.7642 22.0749 28.8385 22.0749 28.8904 22.0276C28.9332 21.9825 28.9309 21.9127 28.9354 21.8541C28.9339 20.6101 28.9332 19.367 28.9332 18.1245C28.9309 17.9262 28.9422 17.7279 28.9287 17.5296C28.9219 17.4349 28.8205 17.3989 28.7394 17.4011C28.5095 17.3966 28.2797 17.3989 28.0498 17.3989C28.0498 17.2952 28.0498 17.1916 28.0498 17.0879Z" fill="#0A5F88"/>
<path d="M13.5889 18.499C13.7084 18.3818 13.8796 18.2984 14.0509 18.33C14.2492 18.3638 14.3957 18.5193 14.5106 18.6725C14.594 18.9046 14.6368 19.1502 14.6571 19.3936C14.5489 19.2088 14.425 19.0195 14.2447 18.8979C14.123 18.8145 13.963 18.7874 13.8233 18.8393C13.6723 18.8933 13.5574 19.0105 13.4582 19.13C13.2622 19.3688 13.1134 19.646 12.8836 19.8556C12.7506 19.9773 12.5748 20.0629 12.3923 20.0471C12.2345 20.0359 12.1016 19.9367 11.9957 19.8263C11.7523 19.5717 11.5855 19.2517 11.3174 19.0195C11.1934 18.9136 11.0402 18.837 10.8779 18.8145C10.923 18.6612 10.9793 18.508 11.0605 18.3683C11.1484 18.4111 11.2362 18.4607 11.3129 18.526C11.5945 18.7626 11.7613 19.1007 12.0205 19.3598C12.1264 19.4657 12.2593 19.5559 12.4126 19.5604C12.5861 19.5671 12.7506 19.4838 12.8768 19.3688C13.1585 19.1164 13.3185 18.7604 13.5889 18.499Z" fill="#FBCA27"/>
<path d="M10.8101 19.1162C10.9769 19.123 11.1414 19.1861 11.2721 19.2897C11.6191 19.5534 11.7882 19.9838 12.1329 20.252C12.32 20.4007 12.5949 20.3782 12.782 20.2407C13.0614 20.0402 13.2214 19.7269 13.4332 19.4655C13.5437 19.3303 13.6698 19.1906 13.8434 19.1365C13.9921 19.0914 14.1544 19.132 14.2783 19.2244C14.4496 19.3551 14.569 19.5421 14.6749 19.7269C14.6862 19.8869 14.6772 20.0469 14.6682 20.2047C14.5555 20.0154 14.4338 19.8216 14.249 19.6954C14.1296 19.6142 13.9741 19.5827 13.8344 19.63C13.6879 19.6773 13.5729 19.79 13.4738 19.9072C13.2687 20.1506 13.1155 20.439 12.8789 20.6554C12.7391 20.7816 12.5521 20.8672 12.3628 20.8379C12.2028 20.8154 12.0744 20.7072 11.9684 20.5945C11.7296 20.3309 11.5583 20.0064 11.2766 19.7833C11.1324 19.6661 10.9476 19.5985 10.7583 19.6052C10.7673 19.443 10.7831 19.2785 10.8101 19.1162Z" fill="#FBCA27"/>
<path d="M10.7539 19.9122C10.9905 19.8987 11.2181 20.0136 11.3826 20.1804C11.608 20.399 11.7657 20.6762 11.9776 20.9083C12.0835 21.0209 12.2119 21.1269 12.3697 21.1471C12.559 21.1719 12.7438 21.084 12.879 20.9578C13.1133 20.746 13.2643 20.4621 13.4671 20.2209C13.5618 20.1083 13.67 19.9978 13.8097 19.9438C13.9381 19.8942 14.0891 19.9077 14.2086 19.9753C14.364 20.0632 14.4767 20.2074 14.5736 20.3539C14.5984 20.3945 14.6322 20.435 14.6412 20.4846C14.6232 20.604 14.6007 20.7235 14.5714 20.8429C14.47 20.6919 14.355 20.5409 14.1905 20.4553C14.0666 20.39 13.9133 20.3832 13.7871 20.4418C13.6452 20.5071 13.5393 20.6221 13.4424 20.7415C13.2553 20.9736 13.1066 21.2395 12.8857 21.4424C12.7528 21.5663 12.577 21.6519 12.3945 21.6384C12.2345 21.6271 12.0993 21.5257 11.9933 21.4153C11.75 21.1584 11.5832 20.8384 11.315 20.6086C11.1686 20.4801 10.9793 20.3967 10.7809 20.4012C10.7629 20.239 10.7562 20.0767 10.7539 19.9122Z" fill="#FBCA27"/>
<path d="M15.0332 21.6025C15.0452 21.5904 15.0572 21.5784 15.0693 21.5664C15.0715 21.5822 15.0738 21.6115 15.076 21.6273C15.0648 21.6205 15.0445 21.6092 15.0332 21.6025Z" fill="#FBCA27"/>
</g>
<circle cx="20" cy="20" r="19.5" stroke="black" stroke-opacity="0.05"/>
<defs>
<clipPath id="clip0_9_409000">
<rect width="32" height="5.47606" fill="white" transform="translate(4 17)"/>
</clipPath>
</defs>
</svg>
