<svg width="40" height="40" viewBox="0 0 40 40" fill="none" xmlns="http://www.w3.org/2000/svg">
<circle cx="20" cy="20" r="20" fill="#64BE49"/>
<g clip-path="url(#clip0_9_412286)">
<path d="M21.9286 19.7617L16.1429 23.2139V26.4667L21.9286 22.9632V19.7617ZM20.0001 9.71387C14.3191 9.71387 9.71436 14.3187 9.71436 19.9996C9.71436 23.2248 11.1994 26.1035 13.5226 27.9903L16.1429 26.4667C15.0234 25.7998 14.0969 24.8526 13.4549 23.7186C12.8129 22.5845 12.4776 21.3027 12.4819 19.9996C12.4819 15.8467 15.8479 12.4807 20.0007 12.4807C21.4021 12.4807 22.7136 12.8652 23.8373 13.5337L16.1429 18.071V21.2853L23.8572 16.7853V13.5344C24.9767 14.2009 25.9031 15.1476 26.5452 16.2812C27.1873 17.4148 27.5229 18.6961 27.5189 19.9989C27.5189 24.1518 24.1529 27.5191 20.0001 27.5191C18.5974 27.5191 17.2666 27.1347 16.1429 26.4667V29.5447C17.3696 30.0355 18.6789 30.2869 20.0001 30.2853C25.681 30.2853 30.2858 25.6805 30.2858 19.9996C30.2858 14.3187 25.681 9.71387 20.0001 9.71387Z" fill="white"/>
</g>
<circle cx="20" cy="20" r="19.5" stroke="black" stroke-opacity="0.05"/>
<defs>
<clipPath id="clip0_9_412286">
<rect width="22" height="22" fill="white" transform="translate(9 9)"/>
</clipPath>
</defs>
</svg>
