<svg width="40" height="40" viewBox="0 0 40 40" fill="none" xmlns="http://www.w3.org/2000/svg">
<circle cx="20" cy="20" r="20" fill="#0052D9"/>
<path d="M24.3285 19.9775H20.6706C20.2989 19.9775 19.9976 20.2789 19.9976 20.6506V24.3084C19.9976 24.6802 20.2989 24.9815 20.6706 24.9815H24.3285C24.7002 24.9815 25.0015 24.6802 25.0015 24.3084V20.6506C25.0015 20.2789 24.7002 19.9775 24.3285 19.9775Z" fill="white"/>
<path d="M29.9947 14.3327C29.9947 14.5102 29.9242 14.6805 29.7986 14.8061C29.673 14.9317 29.5027 15.0022 29.3252 15.0022H18.7323C18.2421 15.0022 17.7567 15.0989 17.3039 15.2867C16.8511 15.4745 16.4398 15.7497 16.0935 16.0967C15.7472 16.4436 15.4727 16.8555 15.2857 17.3086C15.0988 17.7618 15.003 18.2474 15.004 18.7376V29.3305C15.004 29.4184 14.9866 29.5054 14.953 29.5867C14.9194 29.6679 14.87 29.7417 14.8079 29.8039C14.7457 29.8661 14.6719 29.9154 14.5906 29.949C14.5094 29.9827 14.4223 30 14.3344 30H10.6695C10.5816 30 10.4946 29.9827 10.4133 29.949C10.3321 29.9154 10.2583 29.8661 10.1961 29.8039C10.1339 29.7417 10.0846 29.6679 10.051 29.5867C10.0173 29.5054 10 29.4184 10 29.3305V17.4725C10 15.4906 10.7873 13.59 12.1886 12.1886C13.59 10.7873 15.4906 10 17.4725 10H29.3322C29.5098 10 29.6801 10.0705 29.8057 10.1961C29.9312 10.3217 30.0018 10.492 30.0018 10.6695L29.9947 14.3327Z" fill="white"/>
<circle cx="20" cy="20" r="19.5" stroke="black" stroke-opacity="0.05"/>
</svg>
