<svg width="40" height="40" viewBox="0 0 40 40" fill="none" xmlns="http://www.w3.org/2000/svg">
<circle cx="20" cy="20" r="20" fill="#F6F8FA"/>
<mask id="mask0_9_388285" style="mask-type:luminance" maskUnits="userSpaceOnUse" x="7" y="7" width="26" height="26">
<path d="M7 7H33V33H7V7Z" fill="white"/>
</mask>
<g mask="url(#mask0_9_388285)">
<path d="M20.0158 32.9897C12.8453 32.9897 7.05029 27.1946 7.05029 20.0241C7.05029 12.8536 12.8453 7.05859 20.0158 7.05859C27.1863 7.05859 32.9814 12.8536 32.9814 20.0241C32.9814 27.1946 27.1863 32.9897 20.0158 32.9897Z" fill="black"/>
<path d="M15.6735 9.09601C21.7403 6.7184 28.5882 9.70843 30.9675 15.7753C33.3451 21.8421 30.3551 28.69 24.2882 31.0677C18.2214 33.4469 11.3735 30.4569 8.99584 24.39C6.61659 18.3232 9.60662 11.4753 15.6735 9.09601Z" fill="black"/>
</g>
<path d="M10.4287 20.7284V20.7251C10.3883 20.7284 10.3474 20.73 10.3059 20.73C9.65417 20.7333 9.12035 20.414 9.1138 20.0161C9.10889 19.6198 9.63288 19.294 10.2846 19.2891C10.3261 19.2891 10.367 19.2902 10.4074 19.2923V19.2907L19.908 20.0046L10.4287 20.7284Z" fill="white"/>
<path d="M10.7381 22.574V22.5707C10.6988 22.5816 10.659 22.5909 10.6186 22.5986C9.97835 22.7296 9.39377 22.52 9.31026 22.1319C9.22675 21.7438 9.67706 21.3213 10.3157 21.1903C10.3561 21.1827 10.3965 21.1761 10.4368 21.1707V21.1674L19.9096 20.0195L10.7381 22.574Z" fill="white"/>
<path d="M11.4322 24.308L11.4306 24.3031C11.3946 24.3216 11.3575 24.3391 11.3193 24.3555C10.7183 24.6076 10.1026 24.5176 9.94541 24.1524C9.78821 23.7873 10.1468 23.2862 10.7478 23.0324C10.786 23.0171 10.8242 23.0029 10.8624 22.9898V22.9865L19.9144 20.0342L11.4322 24.308Z" fill="white"/>
<path d="M12.456 25.8819L12.4544 25.8786C12.4227 25.9037 12.3894 25.9277 12.3545 25.9506C11.8141 26.3158 11.1935 26.3469 10.9676 26.021C10.7416 25.6936 10.997 25.1319 11.5358 24.7667C11.5707 24.7427 11.6056 24.7209 11.6406 24.7012L11.6389 24.698L19.9213 20.0459L12.456 25.8819Z" fill="white"/>
<path d="M13.7344 27.2487L13.7328 27.2455C13.7055 27.276 13.6776 27.3061 13.6493 27.3355C13.1908 27.8006 12.5865 27.9512 12.3016 27.6745C12.0167 27.3978 12.1559 26.7968 12.6144 26.3334C12.6438 26.3039 12.6739 26.2755 12.7044 26.2483L12.7028 26.2466L19.9306 20.0586L13.7344 27.2487Z" fill="white"/>
<path d="M15.2771 28.2957L15.2738 28.2941C15.2541 28.329 15.2329 28.3639 15.2099 28.3989C14.8497 28.9425 14.288 29.2094 13.954 28.9933C13.6199 28.7771 13.6412 28.1614 13.9998 27.6178C14.0228 27.5828 14.0462 27.549 14.0702 27.5163L14.0686 27.5146L19.9422 20.0674L15.2771 28.2957Z" fill="white"/>
<path d="M16.9869 29.0646H16.9836C16.9705 29.1028 16.9563 29.141 16.9411 29.1792C16.6954 29.7835 16.196 30.1535 15.8259 30.0078C15.4559 29.8604 15.356 29.2529 15.6016 28.6487C15.618 28.6105 15.6349 28.5728 15.6524 28.5357H15.6491L19.9556 20.0732L16.9869 29.0646Z" fill="white"/>
<path d="M18.814 29.4559H18.8107C18.8052 29.4963 18.7987 29.5367 18.791 29.5771C18.6666 30.2174 18.249 30.6791 17.8593 30.6071C17.468 30.535 17.2502 29.9587 17.3746 29.3184C17.3823 29.2769 17.391 29.2365 17.4008 29.1972H17.3992L19.9684 20.0781L18.814 29.4559Z" fill="white"/>
<path d="M20.6383 29.6528C20.6416 30.3045 20.3223 30.8383 19.926 30.8448C19.5281 30.8498 19.2022 30.3274 19.199 29.674C19.199 29.6326 19.2001 29.5916 19.2022 29.5512H19.199L19.9817 20.0801L20.6383 29.53H20.6334C20.6367 29.5703 20.6383 29.6113 20.6383 29.6528Z" fill="white"/>
<path d="M22.0399 30.648C21.6518 30.7315 21.231 30.2812 21.1 29.6426C21.0913 29.6022 21.0842 29.5618 21.0787 29.5214L21.0754 29.5231L19.9963 20.0781L22.482 29.2202L22.4788 29.2218C22.4897 29.26 22.4995 29.2993 22.5082 29.3397C22.6376 29.9799 22.4296 30.5645 22.0399 30.648Z" fill="white"/>
<path d="M24.0607 30.0127C23.6956 30.1699 23.1945 29.8113 22.9423 29.2104C22.9259 29.1721 22.9112 29.1339 22.8981 29.0957H22.8948L20.0112 20.0732L24.2163 28.5259L24.213 28.5275C24.2305 28.5636 24.2474 28.6007 24.2638 28.6389C24.5176 29.2398 24.4259 29.8555 24.0607 30.0127Z" fill="white"/>
<path d="M25.9289 28.9916C25.6014 29.2176 25.0398 28.9638 24.6746 28.4234C24.6517 28.3885 24.6298 28.3536 24.6091 28.3186L24.6075 28.3203L20.0242 20.0674L25.7914 27.5032L25.7881 27.5048C25.8121 27.5375 25.8361 27.5708 25.8601 27.6047C26.2253 28.145 26.2564 28.7657 25.9289 28.9916Z" fill="white"/>
<path d="M27.5828 27.6562C27.306 27.9411 26.7067 27.8019 26.2417 27.3434C26.2122 27.3139 26.1844 27.2839 26.1582 27.2533L26.1565 27.2566L20.0356 20.0566L27.157 26.2234L27.1554 26.225C27.186 26.2523 27.216 26.2801 27.2454 26.3085C27.7089 26.7687 27.8595 27.3712 27.5828 27.6562Z" fill="white"/>
<path d="M28.9024 26.0047C28.6863 26.3387 28.069 26.3191 27.5253 25.9588C27.4904 25.9359 27.4571 25.9124 27.4254 25.8884L27.4238 25.89L20.0437 20.0459L28.2049 24.6816L28.2016 24.6849C28.2376 24.7056 28.2726 24.7274 28.3064 24.7504C28.8517 25.109 29.117 25.6706 28.9024 26.0047Z" fill="white"/>
<path d="M29.9161 24.1325C29.7687 24.5025 29.1612 24.6024 28.557 24.3568C28.5188 24.3404 28.4817 24.3235 28.4456 24.306L28.444 24.3093L20.0503 20.0322L28.9745 22.9715L28.9729 22.9748C29.0111 22.9879 29.0493 23.0021 29.0875 23.0173C29.6917 23.2646 30.0635 23.7624 29.9161 24.1325Z" fill="white"/>
<path d="M30.5154 22.1008C30.4433 22.4921 29.8669 22.7083 29.2267 22.5855C29.1863 22.5767 29.1464 22.5674 29.1071 22.5576L29.1055 22.5609L20.0552 20.0195L29.3659 21.1445L29.3642 21.1494C29.4046 21.1538 29.445 21.1598 29.4854 21.1674C30.1256 21.2918 30.5874 21.7094 30.5154 22.1008Z" fill="white"/>
<path d="M30.8529 20.0099C30.8595 20.4078 30.3355 20.732 29.6837 20.7369C29.6423 20.7369 29.6013 20.7358 29.5609 20.7336V20.7353L20.0603 20.005L29.538 19.2976L29.5396 19.3008C29.5789 19.2976 29.6193 19.2959 29.6608 19.2959C30.3142 19.2926 30.848 19.612 30.8529 20.0099Z" fill="white"/>
<path d="M29.6526 18.8359C29.6122 18.8436 29.5718 18.8501 29.5314 18.8556V18.8589L20.0586 19.9903L29.2301 17.4523V17.4555C29.2694 17.4446 29.3092 17.4353 29.3496 17.4277C29.9882 17.2967 30.5745 17.5063 30.658 17.8944C30.7415 18.2825 30.2912 18.7049 29.6526 18.8359Z" fill="white"/>
<path d="M29.2184 16.9933C29.1802 17.0086 29.142 17.0234 29.1038 17.0375L29.1054 17.0392L20.0535 19.9768L28.534 15.7177L28.5356 15.7227C28.5716 15.7041 28.6087 15.6866 28.6469 15.6703C29.2495 15.4181 29.8636 15.5081 30.0224 15.8733C30.1796 16.2385 29.8194 16.7395 29.2184 16.9933Z" fill="white"/>
<path d="M28.431 15.2587C28.3972 15.2827 28.3628 15.3045 28.3278 15.3242L28.3295 15.3274L20.0471 19.9631L27.5107 14.1436L27.514 14.1468C27.5457 14.1217 27.579 14.0977 27.6139 14.0748C28.1526 13.7096 28.7749 13.6785 29.0008 14.006C29.2268 14.3319 28.9714 14.8935 28.431 15.2587Z" fill="white"/>
<path d="M27.352 13.6925C27.3236 13.722 27.2941 13.7503 27.2635 13.7776L27.2652 13.7793L20.0374 19.9525L26.2319 12.7771L26.2352 12.7804C26.2614 12.7498 26.2892 12.7198 26.3187 12.6903C26.7772 12.2253 27.3798 12.0747 27.6664 12.3514C27.9513 12.6281 27.8105 13.2291 27.352 13.6925Z" fill="white"/>
<path d="M25.9683 12.4085C25.9454 12.4435 25.9213 12.4773 25.8962 12.51L25.8995 12.5117L20.0259 19.9425L24.691 11.7306L24.6943 11.7322C24.714 11.6973 24.7353 11.6624 24.7582 11.6274C25.1168 11.0838 25.6801 10.8169 26.0141 11.033C26.3465 11.2492 26.3269 11.8649 25.9683 12.4085Z" fill="white"/>
<path d="M24.3651 11.3772C24.3498 11.4154 24.3334 11.453 24.316 11.4901H24.3176L20.0127 19.9362L22.9798 10.9612H22.9847C22.9967 10.923 23.0109 10.8848 23.0273 10.8466C23.2729 10.2424 23.7723 9.87232 24.1424 10.0181C24.5125 10.1654 24.6124 10.7729 24.3651 11.3772Z" fill="white"/>
<path d="M22.5934 10.7072C22.5858 10.7487 22.5771 10.7891 22.5672 10.8284H22.5689L19.998 19.9328L21.1541 10.5697H21.1574C21.1628 10.5293 21.1694 10.4889 21.177 10.4485C21.3015 9.80826 21.7174 9.34649 22.1088 9.41854C22.5001 9.49059 22.7179 10.067 22.5934 10.7072Z" fill="white"/>
<path d="M20.6448 10.4577H20.6464L19.9816 19.9289L19.2087 10.479H19.212C19.2087 10.4386 19.2071 10.3977 19.2071 10.3562C19.2038 9.70449 19.5231 9.17067 19.921 9.16412C20.3189 9.15757 20.6431 9.68157 20.6464 10.3349C20.6475 10.3764 20.6469 10.4173 20.6448 10.4577Z" fill="white"/>
<path d="M17.3634 10.7884L17.3667 10.7868C17.3558 10.7486 17.3465 10.7093 17.3388 10.6689C17.2078 10.0286 17.4174 9.44407 17.8055 9.36056C18.1936 9.27705 18.6161 9.72735 18.7471 10.366C18.7547 10.4064 18.7613 10.4467 18.7667 10.4871L18.77 10.4855L19.967 19.9305L17.3634 10.7884Z" fill="white"/>
<path d="M15.6291 11.4838L15.634 11.4821C15.6155 11.4461 15.598 11.409 15.5816 11.3708C15.3295 10.7698 15.4195 10.1541 15.7847 9.99692C16.1498 9.83973 16.6509 10.1983 16.9047 10.7993C16.92 10.8375 16.9347 10.8757 16.9489 10.9139H16.9506L19.9537 19.9364L15.6291 11.4838Z" fill="white"/>
<path d="M14.0554 12.5066L14.0587 12.5049C14.0336 12.4722 14.0096 12.4389 13.9866 12.405C13.6215 11.8647 13.5904 11.2441 13.9179 11.0181C14.2437 10.7921 14.8054 11.0459 15.1705 11.5863C15.1946 11.6212 15.2169 11.6562 15.2377 11.6911L15.2393 11.6895L19.9405 19.9423L14.0554 12.5066Z" fill="white"/>
<path d="M12.6884 13.7857L12.6917 13.784C12.6611 13.7567 12.6311 13.7289 12.6016 13.7005C12.1382 13.242 11.9859 12.6378 12.2626 12.3529C12.5394 12.068 13.1403 12.2071 13.6037 12.6656C13.6332 12.6951 13.6616 12.7251 13.6889 12.7557L13.6905 12.7524L19.9293 19.9524L12.6884 13.7857Z" fill="white"/>
<path d="M11.642 15.3281L11.6436 15.3248C11.6087 15.3041 11.5738 15.2828 11.5388 15.261C10.9952 14.9007 10.7283 14.3391 10.9444 14.005C11.1606 13.671 11.7763 13.6922 12.3199 14.0509C12.3548 14.0738 12.3887 14.0973 12.4214 14.1213L12.4231 14.1196L19.9211 19.9638L11.642 15.3281Z" fill="white"/>
<path d="M10.8721 17.0374V17.0342C10.8339 17.0211 10.7957 17.0069 10.7575 16.9916C10.1533 16.7443 9.78321 16.2465 9.92894 15.8765C10.0763 15.5064 10.6838 15.4065 11.288 15.6521C11.3263 15.6685 11.3639 15.6854 11.401 15.7029V15.6996L19.9126 19.9767L10.8721 17.0374Z" fill="white"/>
<path d="M10.4811 18.865V18.8601C10.4407 18.8558 10.4003 18.8498 10.3599 18.8421C9.71964 18.7177 9.25787 18.3001 9.32992 17.9088C9.40197 17.5174 9.97836 17.3013 10.6186 17.4241C10.6601 17.4328 10.7005 17.4421 10.7398 17.4519V17.4486L19.9096 19.99L10.4811 18.865Z" fill="white"/>
<path d="M18.9778 23.7149C16.9211 23.1533 15.7044 21.0442 16.2628 19.0072C16.8196 16.9702 18.9385 15.7732 20.9951 16.3365C23.0518 16.8981 24.2668 19.0072 23.7101 21.0442C23.1517 23.0829 21.0328 24.2782 18.9778 23.7149Z" fill="black"/>
<path d="M23.5708 20.0067C23.5692 20.1393 23.3907 20.2474 23.1746 20.2458C23.1615 20.2458 23.1478 20.2452 23.1336 20.2441V20.2458L19.988 20.0034L23.1418 19.7627V19.7643C23.1549 19.7632 23.1686 19.7627 23.1828 19.7627C23.3989 19.7643 23.5725 19.8724 23.5708 20.0067Z" fill="white"/>
<path d="M23.5053 20.7168C23.4775 20.8478 23.2843 20.9166 23.0714 20.874C23.0583 20.8708 23.0452 20.8675 23.0321 20.8642V20.8659L19.988 20.0078L23.132 20.3926V20.3943C23.1451 20.3953 23.1582 20.3975 23.1713 20.4008C23.3842 20.445 23.5332 20.5858 23.5053 20.7168Z" fill="white"/>
<path d="M23.2943 21.3944C23.2419 21.5172 23.0388 21.5483 22.8391 21.4632C22.826 21.4577 22.8134 21.4517 22.8014 21.4452V21.4468L19.9866 20.0107L22.9913 21.0031L22.9897 21.0047C23.0028 21.0091 23.0159 21.014 23.029 21.0194C23.2288 21.1046 23.3467 21.2716 23.2943 21.3944Z" fill="white"/>
<path d="M22.9552 22.0241C22.8799 22.1339 22.6752 22.1224 22.4951 21.9996C22.4842 21.9919 22.4733 21.9843 22.4624 21.9767L19.9849 20.0166L22.7325 21.5788V21.5804C22.7435 21.5869 22.7549 21.594 22.7669 21.6017C22.9454 21.7245 23.0306 21.9128 22.9552 22.0241Z" fill="white"/>
<path d="M22.5132 22.5789C22.4183 22.6722 22.2185 22.6215 22.0662 22.4643C22.0564 22.4545 22.0471 22.4446 22.0384 22.4348L22.0367 22.4364L19.9817 20.0195L22.3806 22.0991H22.379C22.3888 22.109 22.3986 22.1188 22.4084 22.1286C22.5607 22.2842 22.6082 22.4856 22.5132 22.5789Z" fill="white"/>
<path d="M21.9645 23.0207C21.8531 23.0944 21.6664 23.0043 21.5469 22.8209C21.5404 22.81 21.5333 22.7985 21.5256 22.7865L19.9766 20.0225L21.9268 22.5245H21.9252C21.9339 22.5354 21.9421 22.5469 21.9497 22.5589C22.0676 22.7423 22.0758 22.9486 21.9645 23.0207Z" fill="white"/>
<path d="M21.344 23.3626C21.2211 23.4117 21.0558 23.2872 20.9739 23.0842C20.9684 23.0711 20.9635 23.058 20.9591 23.0449H20.9575L19.9734 20.0254L21.4013 22.868C21.4067 22.8801 21.4122 22.8926 21.4176 22.9057C21.4995 23.1088 21.4668 23.3118 21.344 23.3626Z" fill="white"/>
<path d="M20.6696 23.5623C20.5386 23.5869 20.401 23.433 20.3601 23.2168C20.3568 23.2037 20.3546 23.1901 20.3536 23.1759H20.3519L19.9688 20.0254L20.8219 23.0891H20.8202C20.8235 23.1022 20.8268 23.1159 20.8301 23.13C20.871 23.3446 20.7989 23.5394 20.6696 23.5623Z" fill="white"/>
<path d="M20.2238 23.2499C20.2221 23.4693 20.1141 23.6445 19.9831 23.6429C19.8504 23.6413 19.744 23.4628 19.7456 23.2433C19.7456 23.2292 19.7462 23.215 19.7473 23.2008H19.7456L19.9634 20.0273L20.2238 23.209H20.2221C20.2232 23.2221 20.2238 23.2357 20.2238 23.2499Z" fill="white"/>
<path d="M19.6015 23.1991H19.5999C19.5977 23.2122 19.5955 23.2259 19.5934 23.2401C19.5491 23.4546 19.41 23.6052 19.2806 23.5774C19.1512 23.5496 19.0825 23.3531 19.1267 23.1385C19.1289 23.1244 19.1316 23.1107 19.1349 23.0976L19.9585 20.0273L19.6015 23.1991Z" fill="white"/>
<path d="M18.9973 23.0564L18.9957 23.0547C18.9913 23.0678 18.9864 23.0809 18.981 23.094C18.8974 23.2954 18.7321 23.4166 18.6109 23.3642C18.4897 23.3102 18.4586 23.1038 18.5438 22.9024C18.5481 22.8893 18.5536 22.8768 18.5601 22.8648H18.5585L19.9536 20.0254L18.9973 23.0564Z" fill="white"/>
<path d="M18.4293 22.7947C18.4217 22.8067 18.414 22.8182 18.4064 22.8291C18.2852 23.0109 18.0985 23.096 17.9905 23.0207C17.8824 22.9454 17.8922 22.7358 18.0134 22.5556C18.021 22.5436 18.0292 22.5322 18.038 22.5212H18.0363L19.9505 20.0225L18.4293 22.7947Z" fill="white"/>
<path d="M17.9153 22.4381C17.9066 22.4479 17.8973 22.4577 17.8875 22.4676C17.7336 22.6215 17.5338 22.669 17.4421 22.5724C17.3504 22.4774 17.3995 22.2743 17.5535 22.1204C17.5633 22.1106 17.5737 22.1013 17.5846 22.0926L17.5829 22.0909L19.9458 20.0195L17.9153 22.4381Z" fill="white"/>
<path d="M17.4944 21.9799V21.9783C17.4835 21.987 17.4721 21.9952 17.4601 22.0029C17.2799 22.124 17.0752 22.1306 17.0048 22.0176C16.9328 21.9062 17.0212 21.7163 17.2013 21.5968C17.2133 21.5891 17.2248 21.582 17.2357 21.5755V21.5738L19.9441 20.0166L17.4944 21.9799Z" fill="white"/>
<path d="M17.155 21.4484V21.4468C17.143 21.4523 17.1305 21.4577 17.1174 21.4632C16.9176 21.5467 16.7162 21.5123 16.6671 21.3879C16.6179 21.265 16.7408 21.0964 16.9422 21.0145C16.9553 21.0091 16.9678 21.0041 16.9798 20.9998V20.9981L19.9404 20.0107L17.155 21.4484Z" fill="white"/>
<path d="M16.9357 20.8606V20.859C16.9226 20.8623 16.9095 20.8655 16.8964 20.8688C16.6835 20.9097 16.4919 20.8377 16.4674 20.7051C16.4444 20.5741 16.5967 20.4349 16.8096 20.3923C16.8238 20.3901 16.8374 20.3879 16.8505 20.3858V20.3841L19.9405 20.0059L16.9357 20.8606Z" fill="white"/>
<path d="M16.785 20.2467C16.7719 20.2478 16.7582 20.2478 16.7441 20.2467C16.5279 20.2467 16.3543 20.137 16.356 20.0028C16.3576 19.8701 16.5345 19.7621 16.7522 19.7637C16.7653 19.7637 16.7784 19.7642 16.7915 19.7653V19.7637L19.9371 20.0011L16.785 20.2467Z" fill="white"/>
<path d="M16.7951 19.617C16.782 19.6148 16.7684 19.6127 16.7542 19.6105C16.543 19.5663 16.394 19.4238 16.4218 19.2928C16.4496 19.1634 16.6429 19.093 16.8557 19.1372C16.8688 19.1394 16.8819 19.1427 16.895 19.1471V19.1454L19.9391 19.9969L16.7951 19.617Z" fill="white"/>
<path d="M16.936 19.0062C16.924 19.0019 16.9114 18.997 16.8983 18.9915C16.6985 18.9063 16.5806 18.7377 16.633 18.6149C16.6854 18.4921 16.8885 18.461 17.0883 18.5461C17.1014 18.5516 17.1139 18.5576 17.1259 18.5641V18.5625L19.9407 19.9936L16.936 19.0062Z" fill="white"/>
<path d="M17.1947 18.4311C17.1827 18.4234 17.1712 18.4158 17.1603 18.4081C16.9802 18.2853 16.8967 18.097 16.972 17.9873C17.0457 17.8776 17.252 17.8874 17.4321 18.0102C17.4431 18.0179 17.454 18.0261 17.4649 18.0348V18.0331L19.9424 19.9883L17.1947 18.4311Z" fill="white"/>
<path d="M17.5466 17.9102H17.5482C17.5373 17.9014 17.5275 17.8916 17.5188 17.8807C17.3665 17.7251 17.319 17.5237 17.414 17.4304C17.5089 17.3387 17.7087 17.3894 17.861 17.545C17.8708 17.5548 17.8801 17.5646 17.8888 17.5745H17.8905L19.9455 19.9848L17.5466 17.9102Z" fill="white"/>
<path d="M18.0001 17.4851H18.0018C17.993 17.4742 17.9848 17.4627 17.9772 17.4507C17.8577 17.2689 17.8511 17.061 17.9625 16.9889C18.0738 16.9169 18.2605 17.0053 18.3784 17.1887C18.386 17.2007 18.3931 17.2122 18.3997 17.2231H18.4013L19.9487 19.9822L18.0001 17.4851Z" fill="white"/>
<path d="M18.5241 17.142H18.5258C18.5203 17.1289 18.5149 17.1163 18.5094 17.1043C18.4275 16.9012 18.4603 16.6966 18.5831 16.6474C18.7059 16.5983 18.8713 16.7228 18.9532 16.9258C18.9586 16.9389 18.9635 16.9515 18.9679 16.9635H18.9695L19.9537 19.9781L18.5241 17.142Z" fill="white"/>
<path d="M19.1056 16.9191H19.1072C19.1029 16.906 19.0996 16.8924 19.0974 16.8782C19.0565 16.6637 19.1285 16.4688 19.2579 16.4459C19.3873 16.4213 19.5264 16.5769 19.5674 16.7914C19.5706 16.8056 19.5728 16.8193 19.5739 16.8324H19.5756L19.9587 19.9779L19.1056 16.9191Z" fill="white"/>
<path d="M20.2189 16.8018H20.2206L19.9635 19.9769L19.7441 16.7953C19.743 16.7811 19.7424 16.7674 19.7424 16.7543C19.7441 16.5349 19.8521 16.3597 19.9848 16.3613C20.1158 16.363 20.2222 16.5415 20.2206 16.7609C20.2206 16.7751 20.22 16.7887 20.2189 16.8018Z" fill="white"/>
<path d="M20.8415 16.866C20.8393 16.8802 20.8361 16.8938 20.8317 16.9069H20.8333L19.9688 19.9772L20.3667 16.8054C20.3688 16.7923 20.3716 16.7787 20.3748 16.7645C20.4174 16.55 20.5582 16.3993 20.686 16.4271C20.8153 16.455 20.8841 16.6515 20.8415 16.866Z" fill="white"/>
<path d="M21.4242 17.1009C21.4187 17.114 21.4133 17.1266 21.4078 17.1386L19.9734 19.978L20.9706 16.947C20.975 16.935 20.9799 16.9224 20.9853 16.9093C21.0689 16.7079 21.2359 16.5868 21.3571 16.6392C21.4782 16.6932 21.5077 16.8995 21.4242 17.1009Z" fill="white"/>
<path d="M21.9531 17.4482C21.9454 17.4602 21.9378 17.4717 21.9301 17.4826L19.9783 19.9814L21.5388 17.2091C21.5453 17.1971 21.5524 17.1857 21.5601 17.1748C21.6812 16.993 21.8679 16.9062 21.976 16.9832C22.0857 17.0585 22.0742 17.2681 21.9531 17.4482Z" fill="white"/>
<path d="M22.4133 17.8839C22.4035 17.8937 22.3937 17.903 22.3839 17.9117V17.9134L19.9817 19.9848L22.0515 17.5662H22.0531C22.0618 17.5564 22.0711 17.5466 22.0809 17.5367C22.2349 17.3828 22.4346 17.3353 22.5263 17.4319C22.618 17.5269 22.5673 17.73 22.4133 17.8839Z" fill="white"/>
<path d="M22.7653 18.4077C22.7544 18.4153 22.7429 18.4224 22.7309 18.429L22.7325 18.4306L19.9849 19.9879L22.4722 18.0245L22.4738 18.0262C22.4837 18.0174 22.4946 18.0093 22.5066 18.0016C22.6867 17.8804 22.8914 17.8739 22.9634 17.9869C23.0355 18.0982 22.9471 18.2865 22.7653 18.4077Z" fill="white"/>
<path d="M23.0257 18.9895C23.0126 18.9949 22.9995 18.9998 22.9864 19.0042L22.9881 19.0058L19.9866 19.9932L22.8112 18.5555V18.5572C22.8232 18.5506 22.8358 18.5452 22.8489 18.5408C23.0487 18.4573 23.2517 18.4917 23.3008 18.6161C23.3483 18.7389 23.2255 18.9076 23.0257 18.9895Z" fill="white"/>
<path d="M23.1566 19.612C23.1435 19.6142 23.1304 19.6164 23.1173 19.6185V19.6202L19.988 19.9984L23.0305 19.1437V19.1453C23.0436 19.142 23.0572 19.1388 23.0714 19.1355C23.2843 19.0945 23.4759 19.1666 23.4988 19.2992C23.5233 19.4302 23.3694 19.5694 23.1566 19.612Z" fill="white"/>
<path d="M8.94678 17.8672H30.9037V22.1459H8.94678V17.8672Z" fill="black"/>
<path d="M9.36255 21.5442V21.3968H9.78338V18.582H9.36255V18.4297H11.0131V18.582H10.5497V21.3919H10.8445C11.2047 21.3968 11.3062 21.369 11.47 21.215C11.6583 21.0365 11.7696 20.8401 11.8826 20.4896H12.0218L11.976 21.5442H9.36255Z" fill="white"/>
<path d="M13.6198 21.3919H14.0407V21.5442H12.4507V21.3968H12.8568V18.582H12.4556V18.4297H14.0456V18.582H13.6198V21.3919Z" fill="white"/>
<path fill-rule="evenodd" clip-rule="evenodd" d="M17.1157 20.2325C17.232 20.3586 17.2877 20.5076 17.2877 20.6894C17.2877 21.2298 16.8341 21.5442 16.053 21.5442H14.4548V21.3935H14.8478V18.582H14.4548V18.4297H16.1054C16.5295 18.4297 16.8013 18.5148 16.988 18.713C17.1059 18.8391 17.1763 19.0028 17.1763 19.1616C17.1763 19.3958 17.0355 19.625 16.821 19.7429C16.6703 19.8265 16.5868 19.851 16.315 19.9067C16.7686 19.9755 16.9471 20.0508 17.1157 20.2325ZM15.7877 19.8314C16.2675 19.8314 16.3658 19.7331 16.3658 19.2599C16.3658 18.6982 16.2773 18.582 15.8582 18.582H15.6093V19.8314H15.7877ZM15.6109 21.3935H15.7927C16.0874 21.3935 16.2184 21.3608 16.3068 21.2674C16.4149 21.1544 16.4427 21.0202 16.4427 20.6337C16.4427 20.1441 16.3019 19.9902 15.8451 19.9902H15.6109V21.3935Z" fill="white"/>
<path d="M18.963 19.892H19.0613C19.379 19.8969 19.5705 19.7102 19.6229 19.3467H19.7769V20.6223H19.6279C19.5804 20.2096 19.4215 20.0442 19.0613 20.0442H18.963V21.3919H19.4919C19.7769 21.3968 19.9586 21.3166 20.1175 21.125C20.2681 20.9465 20.3516 20.768 20.4122 20.524H20.571L20.5055 21.5442H17.8037V21.3968H18.1967V18.582H17.8037V18.4297H20.4122L20.4548 19.2992H20.3009C20.1977 18.9913 20.0945 18.8341 19.921 18.7113C19.7769 18.6147 19.641 18.582 19.3609 18.582H18.963V19.892Z" fill="white"/>
<path fill-rule="evenodd" clip-rule="evenodd" d="M22.2135 21.3979H22.6229V21.5469H21.0657V21.3979H21.4587V18.5699H21.0657V18.416H22.6229C22.9291 18.416 23.1338 18.4406 23.3074 18.4864C23.6758 18.588 23.9182 18.8499 23.9182 19.1414C23.9182 19.5442 23.5546 19.8161 22.916 19.9012C23.3123 20.0011 23.5546 20.155 23.6758 20.3843C23.7544 20.5333 23.7691 20.6217 23.7741 21.0327C23.7773 21.2849 23.815 21.3471 23.9656 21.3471C24.0492 21.3471 24.1048 21.3324 24.2276 21.2669V21.4404C24.059 21.5338 23.928 21.5567 23.7217 21.5567C23.4891 21.5567 23.2845 21.501 23.1535 21.3929C22.9799 21.2488 22.9242 21.0802 22.9111 20.697C22.8865 20.1075 22.7785 19.9585 22.3838 19.9585H22.2135V21.3979ZM22.5099 19.8079C22.934 19.8079 23.0552 19.667 23.0552 19.1889C23.0552 18.6813 22.9668 18.5699 22.5525 18.5699H22.2135V19.8079H22.5099Z" fill="white"/>
<path d="M27.2304 18.4297L27.2501 19.4515H27.1093C27.0487 19.0208 26.8849 18.7359 26.6508 18.6278C26.582 18.6 26.4919 18.582 26.3855 18.582H26.3331V21.3919H26.8113V21.5442H25.1083V21.3968H25.5717V18.582H25.5013C25.123 18.582 24.9216 18.8194 24.7775 19.4515H24.6416L24.6547 18.4297H27.2304Z" fill="white"/>
<path d="M29.1335 18.4297V18.582H28.7782L29.4741 19.8985L30.0145 18.8423L30.062 18.7261C30.0767 18.6982 30.0849 18.6753 30.0849 18.6557C30.0849 18.6 30.0472 18.582 29.9408 18.582H29.818V18.4297H30.6105V18.582C30.3518 18.5852 30.324 18.6 30.2028 18.8423L29.5429 20.095V21.3935H30.0341V21.5442H28.3115V21.3935H28.788V20.1327L27.8989 18.582H27.6794V18.4297H29.1335Z" fill="white"/>
<path d="M19.6458 8.03998L19.9896 8.04489L20.1141 7.72559L20.2156 8.05308L20.5578 8.07273L20.2778 8.26923L20.3646 8.60164L20.0895 8.39531L19.8013 8.58199L19.9127 8.25777L19.6458 8.03998Z" fill="white"/>
<path d="M29.1449 12.2822L29.3545 12.554L29.6836 12.4509L29.4887 12.7342L29.6885 13.0142L29.3577 12.9176L29.1531 13.1943L29.1432 12.8504L28.8174 12.7407L29.1416 12.6245L29.1449 12.2822Z" fill="white"/>
<path d="M31.9596 22.8567L31.619 22.8927L31.5338 23.2251L31.393 22.9107L31.0508 22.9336L31.3062 22.7027L31.1801 22.3834L31.4765 22.5554L31.7418 22.3359L31.6697 22.6733L31.9596 22.8567Z" fill="white"/>
<path d="M24.7974 30.5138L25.1412 30.5351L25.2788 30.2207L25.3656 30.5531L25.7078 30.5875L25.418 30.7725L25.49 31.1082L25.2247 30.8904L24.9284 31.0624L25.0544 30.7431L24.7974 30.5138Z" fill="white"/>
<path d="M14.437 30.7385L14.7792 30.7058L14.8677 30.375L15.0036 30.6894L15.3458 30.6714L15.0887 30.8974L15.2115 31.2183L14.9168 31.0431L14.6499 31.2609L14.7252 30.9252L14.437 30.7385Z" fill="white"/>
<path d="M7.91479 22.7774L8.221 22.6235L8.1817 22.2812L8.42405 22.5252L8.73681 22.3828L8.57961 22.689L8.81213 22.9428L8.47154 22.8871L8.30288 23.1851L8.25048 22.8462L7.91479 22.7774Z" fill="white"/>
<path d="M10.3465 12.3558L10.674 12.4574L10.8836 12.1855L10.8885 12.5294L11.2128 12.644L10.8869 12.7538L10.8771 13.0976L10.6724 12.8225L10.3433 12.9191L10.5414 12.6391L10.3465 12.3558Z" fill="white"/>
<mask id="mask1_9_388285" style="mask-type:luminance" maskUnits="userSpaceOnUse" x="7" y="7" width="26" height="26">
<path d="M7 7H33V33H7V7Z" fill="white"/>
</mask>
<g mask="url(#mask1_9_388285)">
<path d="M16.3972 31.3655C18.1198 32.0565 21.8533 32.0074 23.851 31.246M8.88608 24.1786C9.38551 25.9667 11.696 28.8995 13.5152 30.0211M9.91278 13.8298C8.8124 15.3248 7.92325 18.9502 8.15904 21.074M11.8401 11.5193C13.0895 10.1455 16.4676 8.56038 18.598 8.37207M21.5225 8.38026C23.3745 8.48833 26.7313 10.1193 28.2165 11.6585M30.0898 13.9591C31.1688 15.4705 32.004 19.1074 31.7354 21.2295M31.0362 24.1066C30.5532 25.898 28.2689 28.852 26.4595 29.9917" stroke="white" stroke-width="0.85451" stroke-linecap="round"/>
</g>
<circle cx="20" cy="20" r="19.5" stroke="black" stroke-opacity="0.05"/>
</svg>
