<svg width="40" height="40" viewBox="0 0 40 40" fill="none" xmlns="http://www.w3.org/2000/svg">
<circle cx="20" cy="20" r="20" fill="#1E1E23"/>
<g clip-path="url(#clip0_9_395495)">
<path fill-rule="evenodd" clip-rule="evenodd" d="M11.1789 15.2497C11.1781 15.7597 10.9859 16.2508 10.6404 16.6259C10.2948 17.001 9.82107 17.2328 9.31283 17.2753C8.8046 17.3178 8.29892 17.168 7.89585 16.8555C7.49279 16.543 7.2217 16.0906 7.13622 15.5878C7.05075 15.085 7.15711 14.5685 7.43428 14.1403C7.71144 13.7122 8.13921 13.4037 8.63294 13.2759C9.12667 13.1481 9.6504 13.2103 10.1005 13.4501C10.5506 13.6899 10.8943 14.09 11.0635 14.5711H10.0728C9.92951 14.3741 9.72758 14.2276 9.49592 14.1524C9.26425 14.0772 9.01474 14.0773 8.78312 14.1527C8.55151 14.228 8.34968 14.3747 8.20655 14.5718C8.06342 14.7688 7.98633 15.0061 7.98633 15.2497C7.98633 15.4932 8.06342 15.7305 8.20655 15.9276C8.34968 16.1247 8.55151 16.2714 8.78312 16.3467C9.01474 16.422 9.26425 16.4221 9.49592 16.3469C9.72758 16.2718 9.92951 16.1252 10.0728 15.9282H9.14314V15.0461H11.1721L11.1789 15.2497ZM13.8931 17.2854C14.433 17.2854 14.9508 17.0709 15.3326 16.6891C15.7144 16.3074 15.9289 15.7896 15.9289 15.2497C15.9289 14.7098 15.7144 14.192 15.3326 13.8102C14.9508 13.4284 14.433 13.214 13.8931 13.214C13.3532 13.214 12.8354 13.4284 12.4537 13.8102C12.0719 14.192 11.8574 14.7098 11.8574 15.2497C11.8574 15.7896 12.0719 16.3074 12.4537 16.6891C12.8354 17.0709 13.3532 17.2854 13.8931 17.2854ZM13.8931 16.4032C14.1991 16.4032 14.4925 16.2817 14.7088 16.0654C14.9252 15.849 15.0467 15.5556 15.0467 15.2497C15.0467 14.9437 14.9252 14.6503 14.7088 14.434C14.4925 14.2176 14.1991 14.0961 13.8931 14.0961C13.5872 14.0961 13.2938 14.2176 13.0774 14.434C12.8611 14.6503 12.7396 14.9437 12.7396 15.2497C12.7396 15.5556 12.8611 15.849 13.0774 16.0654C13.2938 16.2817 13.5872 16.4032 13.8931 16.4032ZM17.286 13.214H18.1681V16.4032H20.0003V17.2854H17.286V13.214ZM20.6789 15.9622V13.2411H21.561V15.7382C21.561 16.1522 21.8731 16.4032 22.3006 16.4032H22.416C22.8435 16.4032 23.1896 16.1522 23.1896 15.7382V13.2411H24.0717V15.9554C24.0717 16.7018 23.4542 17.2854 22.6874 17.2854H22.0631C21.885 17.2908 21.7076 17.2607 21.5412 17.1969C21.3748 17.1331 21.2227 17.0368 21.0939 16.9137C20.9651 16.7905 20.862 16.643 20.7908 16.4796C20.7195 16.3163 20.6815 16.1404 20.6789 15.9622ZM27.356 13.214H25.4289V17.2854H27.5528C28.2517 17.2854 28.8217 16.7697 28.8217 16.1318V16.0504C28.8217 15.6907 28.6385 15.3718 28.3535 15.1547C28.5231 14.9647 28.6249 14.7136 28.6249 14.449V14.3675C28.6249 13.7297 28.0549 13.214 27.356 13.214ZM27.2814 14.0961H26.311V14.9104H27.2814C27.5392 14.9104 27.7428 14.7272 27.7428 14.5032C27.7428 14.2793 27.5392 14.0961 27.2814 14.0961ZM27.3899 15.5211H26.311V16.4032H27.3967C27.6546 16.4032 27.8717 16.1997 27.8717 15.9622C27.8717 15.7179 27.6546 15.5211 27.3967 15.5211H27.3899ZM11.0635 22.0354C10.9034 22.4881 10.5885 22.8697 10.1742 23.1127C9.76004 23.3557 9.27326 23.4444 8.79996 23.3632C8.32666 23.282 7.89731 23.0361 7.58778 22.6689C7.27826 22.3018 7.10849 21.837 7.10849 21.3568C7.10849 20.8766 7.27826 20.4118 7.58778 20.0447C7.89731 19.6775 8.32666 19.4316 8.79996 19.3504C9.27326 19.2692 9.76004 19.3579 10.1742 19.6009C10.5885 19.8439 10.9034 20.2255 11.0635 20.6782H10.0728C9.92951 20.4813 9.72758 20.3347 9.49592 20.2596C9.26425 20.1844 9.01474 20.1845 8.78312 20.2598C8.55151 20.3351 8.34968 20.4818 8.20655 20.6789C8.06342 20.876 7.98633 21.1133 7.98633 21.3568C7.98633 21.6004 8.06342 21.8377 8.20655 22.0347C8.34968 22.2318 8.55151 22.3785 8.78312 22.4538C9.01474 22.5292 9.26425 22.5292 9.49592 22.4541C9.72758 22.3789 9.92951 22.2324 10.0728 22.0354H11.0635ZM30.8574 19.3211H31.7396V22.5104H33.5717V23.3925H30.8574V19.3211ZM12.3596 23.3925H11.5656V22.965L13.3978 19.3211H13.9067L15.7049 23.1143V23.3925H14.8499L14.5649 22.714H12.6649L12.3596 23.3925ZM13.6421 20.5086L14.1917 21.8318H13.0517L13.6421 20.5086ZM25.9378 23.3925H26.7317L27.0371 22.714H28.9371L29.2221 23.3925H30.0771V23.1143L28.2789 19.3211H27.7767L25.9378 22.965V23.3925ZM28.5639 21.8318L28.0142 20.5086L27.4239 21.8318H28.5639ZM18.4396 19.3211H16.6074V23.3925H17.5439V22.239H18.4396C19.3014 22.239 20.0003 21.669 20.0003 20.8818C20.0003 19.9725 19.3014 19.3211 18.4396 19.3211ZM18.3717 20.2032H17.4896V21.3568H18.3717C18.7789 21.3568 19.1181 21.1397 19.1181 20.7665C19.1181 20.3932 18.7789 20.2032 18.3717 20.2032ZM20.6789 19.3211H21.561V23.3925H20.6789V19.3211ZM22.7146 19.9997V19.3211H25.9039V19.9997H24.7503V23.3925H23.8681V19.9997H22.7146ZM33.5717 25.4282H7.10743V28.1425H33.5717V25.4282Z" fill="white"/>
</g>
<circle cx="20" cy="20" r="19.5" stroke="black" stroke-opacity="0.05"/>
<defs>
<clipPath id="clip0_9_395495">
<rect width="27" height="16" fill="white" transform="translate(7 13)"/>
</clipPath>
</defs>
</svg>
