<svg width="40" height="40" viewBox="0 0 40 40" fill="none" xmlns="http://www.w3.org/2000/svg">
<circle cx="20" cy="20" r="20" fill="#F9E548"/>
<g clip-path="url(#clip0_9_395515)">
<path d="M7.10672 17.2859C7.86672 17.2859 8.53851 17.6251 8.71494 18.3919H10.1332C9.94994 16.8448 8.57244 15.9287 7.09315 15.9287C4.94887 15.9287 3.71387 17.7201 3.71387 19.7287C3.71387 21.6287 4.85387 23.393 6.88958 23.393C7.81922 23.393 8.47744 23.0062 9.06101 22.3209L9.19672 23.393H10.1603V19.3216H7.10672V20.6787H8.8778C8.74208 21.588 8.03637 22.0359 7.10672 22.0359C5.75637 22.0359 5.07101 20.9366 5.07101 19.7559C5.07101 18.5548 5.68851 17.2859 7.10672 17.2859ZM33.2317 18.4734C33.2317 19.4505 32.4174 19.6609 31.5692 19.6609H29.4996V17.2859H31.6032C32.4649 17.2859 33.2317 17.5234 33.2317 18.4734ZM29.4996 23.393V20.3394H31.6032C32.0374 20.3394 32.5124 20.4751 32.811 20.8348C32.8449 20.8891 33.191 21.5473 33.5574 22.2734C32.9942 23.1894 32.3699 24.2073 32.3496 24.2616C32.2546 24.4651 32.0442 24.628 31.9764 24.6755V24.7501H32.7228C32.8246 24.6348 32.9264 24.4448 33.0282 24.2616L33.0417 24.2412L33.8764 22.8976C34.2157 23.5762 34.5142 24.1666 34.5482 24.2548C34.6567 24.4651 34.7517 24.6619 34.8671 24.7501H35.6067C35.4542 24.616 35.3277 24.455 35.2335 24.2751L34.7042 23.1894L34.2632 22.2937C34.5963 21.7583 34.9356 21.2267 35.281 20.6991C35.376 20.5837 35.4846 20.4955 35.6067 20.4276V20.3394H35.5321C35.281 20.3394 34.8332 20.3326 34.7314 20.4548L34.6228 20.5905L34.4803 20.8009L33.951 21.6491L33.6117 20.9366C33.5541 20.7566 33.4554 20.5924 33.3235 20.457C33.1917 20.3216 33.0301 20.2186 32.8517 20.1562C33.1784 20.0072 33.4535 19.7644 33.642 19.4587C33.8305 19.1531 33.9239 18.7983 33.9103 18.4394C33.9103 17.0348 32.811 16.6073 31.5896 16.6073H28.821V23.393H29.4996ZM26.7853 20.7466C26.7853 20.0205 26.351 19.1451 25.4417 19.1587C24.5392 19.1587 24.071 19.973 24.071 20.7059C24.071 21.4523 24.5257 22.2666 25.4417 22.2666C26.3374 22.2666 26.7853 21.4794 26.7853 20.7466ZM26.7853 18.7516V16.6073H28.1424V23.393H26.7853V22.5244C26.5891 22.8054 26.3252 23.0324 26.018 23.1842C25.7108 23.336 25.3702 23.4079 25.0278 23.393C23.5417 23.393 22.7139 22.063 22.7139 20.7941C22.7139 19.403 23.4603 17.9644 25.1296 17.9644C25.7267 17.9644 26.4664 18.2834 26.7853 18.7516ZM13.7839 19.0909C14.6728 19.0909 15.0053 19.9051 15.0053 20.6787C15.0053 21.4591 14.6796 22.2801 13.7839 22.2801C12.8746 22.2801 12.5353 21.4659 12.5353 20.6787C12.5353 19.8984 12.8814 19.0909 13.7839 19.0909ZM11.1782 20.6787C11.1782 22.2394 12.2028 23.393 13.7907 23.393C15.3785 23.393 16.4032 22.2394 16.4032 20.6787C16.4032 19.1248 15.3649 17.9644 13.7907 17.9644C12.2096 17.9644 11.1782 19.118 11.1782 20.6787ZM20.6442 20.6787C20.6442 19.9051 20.3049 19.0909 19.4092 19.0909C18.5135 19.0909 18.1674 19.8984 18.1674 20.6787C18.1674 21.4726 18.5067 22.2801 19.4092 22.2801C20.3117 22.2801 20.6442 21.4659 20.6442 20.6787ZM19.4228 23.393C17.8349 23.393 16.8103 22.2394 16.8103 20.6787C16.8103 19.118 17.8417 17.9644 19.4228 17.9644C20.9971 17.9644 22.0353 19.1248 22.0353 20.6787C22.0353 22.2394 21.0039 23.393 19.4228 23.393Z" fill="black"/>
</g>
<circle cx="20" cy="20" r="19.5" stroke="black" stroke-opacity="0.05"/>
<defs>
<clipPath id="clip0_9_395515">
<rect width="33" height="10" fill="white" transform="translate(3 15)"/>
</clipPath>
</defs>
</svg>
