<svg width="40" height="40" viewBox="0 0 40 40" fill="none" xmlns="http://www.w3.org/2000/svg">
<circle cx="20" cy="20" r="20" fill="#640ACD"/>
<g clip-path="url(#clip0_9_386826)">
<path d="M19.999 32.7398C27.0366 32.7398 32.74 27.0364 32.74 20.0008C32.74 12.9652 27.0366 7.25977 19.999 7.25977C12.9634 7.25977 7.26001 12.9652 7.26001 20.0008C7.26001 27.0364 12.9634 32.7398 19.999 32.7398Z" fill="white"/>
<path d="M22.8579 16.6827C22.8579 15.234 23.8386 13.8289 24.3737 14.0936C24.9837 14.3994 23.9167 15.7638 22.8579 16.6827ZM16.1889 17.2105C16.1889 16.0457 17.3381 13.8326 18.0401 14.0666C18.8701 14.3432 17.3527 16.5756 16.1889 17.2105ZM15.0236 25.5409C14.4953 25.5648 14.1417 25.2268 14.1417 24.6626C14.1417 23.1468 16.2451 21.6986 17.8337 20.9212C17.5518 23.0376 16.8369 25.4592 15.0236 25.5409ZM24.7278 20.6014C23.5282 20.6014 22.6114 21.4838 22.6114 22.542C22.6114 23.4245 23.1418 24.1301 23.8454 24.1301C24.0945 24.1301 24.341 23.9882 24.341 23.673C24.341 23.2118 23.7326 23.101 23.7783 22.4152C23.809 21.9628 24.2354 21.6601 24.6587 21.6601C25.5047 21.6601 25.9004 22.4802 25.9004 23.3262C25.8661 24.633 24.9041 25.5404 23.7768 25.5404C22.2937 25.5404 21.3411 24.1301 21.3411 22.6122C21.3411 20.3523 22.8241 19.4704 23.601 19.2598C23.6083 19.2598 25.6301 19.6191 25.5671 18.7278C25.538 18.3358 24.9551 18.185 24.5339 18.1688C24.0654 18.1506 23.5922 18.3191 23.5922 18.3191C23.3467 18.1943 23.1762 17.9504 23.0706 17.6696C24.5178 16.5745 25.5411 15.5168 25.5411 14.3167C25.5411 13.6818 25.1168 13.117 24.3051 13.117C22.8579 13.117 21.7638 14.9521 21.7638 16.6109C21.7638 16.8922 21.7638 17.1756 21.8366 17.4221C20.9183 18.0919 20.2356 18.5094 19.0016 19.2504C19.0016 19.096 19.0338 18.6972 19.1378 18.1813C19.5606 17.7222 20.1414 17.0342 20.1414 16.5043C20.1414 16.2578 20.0016 16.0452 19.7166 16.0452C19.012 16.0452 18.4837 17.1049 18.3422 17.8459C18.0245 18.2359 17.3891 18.7299 16.8587 18.7299C16.4359 18.7299 16.294 18.3415 16.2581 18.1995C17.5997 17.7404 19.2585 15.9053 19.2585 14.2465C19.2585 13.8944 19.117 13.117 18.0588 13.117C16.4708 13.117 15.1312 15.4825 15.1312 17.3155C14.565 17.3155 14.3544 16.7165 14.3544 16.2573C14.3544 15.7976 14.5306 15.3406 14.5306 15.1986C14.5306 15.0572 14.4599 14.8814 14.2472 14.8814C13.7189 14.8814 13.4012 15.587 13.4012 16.3988C13.4376 17.5282 14.1781 18.2359 15.1656 18.3051C15.307 18.9764 15.906 19.6118 16.6465 19.6118C17.1062 19.6118 17.6704 19.4704 18.0588 19.1184C18.0245 19.3648 17.9902 19.5775 17.9538 19.7881C16.4001 20.6014 15.2706 21.1656 14.2472 22.0829C13.4376 22.8249 12.9784 23.8124 12.9784 24.5877C12.9784 25.648 13.6482 26.6355 15.0241 26.6355C16.6465 26.6355 17.8831 25.3303 18.4837 23.5295C18.765 22.6835 18.8779 21.4511 18.9501 20.3201C20.5715 19.4012 21.3411 18.8719 22.1887 18.2708C22.2942 18.447 22.4009 18.588 22.5407 18.6935C21.8003 19.082 20.0359 20.1766 20.0359 22.7521C20.0359 24.5872 21.2698 26.635 23.7066 26.635C25.7179 26.635 27.0938 24.9756 27.0938 23.387C27.0933 21.9414 26.2816 20.6014 24.7278 20.6014ZM30.7957 23.633C30.7905 23.6439 30.7708 23.6585 30.7307 23.6455C30.6995 23.6346 30.6928 23.62 30.6928 23.5997C30.6943 23.58 31.1192 22.3236 31.1155 20.8843C31.1119 19.3284 30.4806 18.3753 29.671 18.3753C29.1754 18.3753 28.8229 18.7294 28.8229 19.2598C28.8229 20.2124 29.9866 20.2837 29.9866 22.3652C29.9866 23.2113 29.8103 24.023 29.5295 24.9049C28.2222 29.3156 24.0581 31.3633 20.0016 31.3633C18.1301 31.3633 16.801 30.9785 16.4058 30.8012C16.3897 30.7918 16.3746 30.7612 16.3876 30.73C16.3964 30.7066 16.424 30.6884 16.4401 30.6956C16.6003 30.7575 17.7416 31.1168 19.154 31.1168C20.7062 31.1168 21.6245 30.4819 21.6245 29.7045C21.6245 29.211 21.236 28.8226 20.7426 28.8226C19.7894 28.8226 19.7171 30.0222 17.6709 30.0222C16.789 30.0222 16.0121 29.846 15.0954 29.5626C10.718 28.222 8.63437 24.0942 8.63593 20.0008C8.63749 18.0061 9.19701 16.4175 9.20585 16.4029C9.21313 16.3925 9.23809 16.3811 9.26877 16.3925C9.29997 16.4029 9.30673 16.4284 9.30517 16.4378C9.25473 16.6031 8.88397 17.7414 8.88397 19.1537C8.88397 20.7075 9.51889 21.6242 10.3306 21.6242C10.7882 21.6242 11.1766 21.2722 11.1766 20.7782C11.1766 19.824 10.0113 19.7184 10.0113 17.6712C10.0113 16.7888 10.1892 16.0119 10.4705 15.0951C11.8121 10.7188 15.9419 8.66793 20.0005 8.63621C21.8866 8.62165 23.5365 9.18637 23.6 9.23681C23.6109 9.24617 23.6218 9.27009 23.6109 9.29869C23.5958 9.33301 23.574 9.33665 23.5636 9.33457C23.5438 9.33301 22.4705 8.88425 20.846 8.88425C19.3287 8.88269 18.3755 9.51813 18.3755 10.3309C18.3755 10.7885 18.7296 11.1769 19.2574 11.1769C20.2106 11.1769 20.2813 10.0132 22.3291 10.0132C23.2089 10.0132 23.9863 10.1874 24.9031 10.4708C29.3158 11.8118 31.3235 15.976 31.3615 20.0003C31.3823 22.061 30.8015 23.62 30.7957 23.633ZM20.001 7.86037C13.2956 7.86037 7.86113 13.2933 7.86113 20.0003C7.86113 26.7057 13.2956 32.1386 20.001 32.1386C26.7049 32.1386 32.1394 26.7057 32.1394 20.0003C32.1394 13.3297 26.7049 7.86037 20.001 7.86037ZM20.001 32.7398C12.9779 32.7398 7.26001 27.0582 7.26001 20.0008C7.26001 12.9756 12.9779 7.25977 20.001 7.25977C27.0221 7.25977 32.74 12.9756 32.74 20.0008C32.74 27.0582 27.0221 32.7398 20.001 32.7398Z" fill="#640ACD"/>
</g>
<circle cx="20" cy="20" r="19.5" stroke="black" stroke-opacity="0.05"/>
<defs>
<clipPath id="clip0_9_386826">
<rect width="26" height="26" fill="white" transform="translate(7 7)"/>
</clipPath>
</defs>
</svg>
