<svg width="40" height="40" viewBox="0 0 40 40" fill="none" xmlns="http://www.w3.org/2000/svg">
<circle cx="20" cy="20" r="20" fill="#72D800"/>
<path d="M26.387 8.04649C28.7587 10.0342 28.8887 13.7475 26.3561 15.6835C26.2914 15.7331 26.2267 15.7317 26.1621 15.6794C24.8562 14.5937 24.2466 13.2479 24.3333 11.6421C24.4097 10.2262 25.0516 8.92579 26.1352 8.04443C26.1705 8.01534 26.215 7.99963 26.261 8.00001C26.307 8.00038 26.3516 8.01683 26.387 8.04649Z" fill="black"/>
<path d="M25.2989 16.8165C25.5975 17.3311 25.7723 17.9187 25.8232 18.5792C25.8273 18.6384 25.8025 18.679 25.7489 18.701C22.661 20.0426 19.3131 17.8774 18.8549 14.6657C18.8506 14.6356 18.8564 14.6049 18.8713 14.5785C18.8862 14.552 18.9095 14.5311 18.9374 14.5192C19.4658 14.2949 20.0231 14.182 20.6093 14.1807C22.7133 14.1779 24.2765 15.0565 25.2989 16.8165Z" fill="black"/>
<path d="M28.6655 29.95L31.9701 29.9479C32.416 29.9479 32.6416 30.1708 32.6471 30.6167L32.6554 31.2957C32.6595 31.7636 32.4283 31.9975 31.9619 31.9975L26.6097 31.9955C26.5327 31.9955 26.4941 31.9569 26.4941 31.8799C26.4983 27.8095 26.5003 23.6938 26.5003 19.5326C26.5003 18.1745 26.8925 16.9567 27.7801 15.9515C29.2566 14.2796 31.1197 13.8028 33.3696 14.5211C33.4549 14.5486 33.492 14.6064 33.481 14.6944C33.1941 16.9216 31.8628 18.255 29.8586 19.0971C28.9442 19.481 28.5231 20.3706 28.5231 21.2788C28.5217 24.3391 28.5217 27.1821 28.5231 29.8075C28.5231 29.9025 28.5706 29.95 28.6655 29.95Z" fill="black"/>
<path d="M14.5867 28.2455H12.7373C12.2309 28.2442 11.9805 27.9903 11.986 27.4839L11.9922 27.0257C11.9977 26.4904 12.2688 26.2228 12.8054 26.2228L16.7932 26.2269C16.8703 26.2269 16.9088 26.2647 16.9088 26.3404C16.948 28.7905 16.3164 31.3293 13.6187 31.8453C11.7858 32.1975 10.2886 31.8852 9.12724 30.9082C6.09926 28.3591 6.28296 23.0792 9.81252 21.0151C10.4551 20.6394 11.1576 20.4392 11.9199 20.4145C13.4184 20.3649 15.0945 20.7365 16.1224 21.8428C16.153 21.8759 16.1753 21.9158 16.1875 21.9592C16.1997 22.0026 16.2015 22.0483 16.1925 22.0926C16.0687 22.7118 15.2493 23.6179 14.5496 23.1473C12.4112 21.7086 9.47194 22.5632 9.10454 25.3146C8.7908 27.6759 9.69486 30.0475 12.4793 29.9319C13.5003 29.8892 14.2386 29.3835 14.694 28.4148C14.7477 28.302 14.7119 28.2455 14.5867 28.2455Z" fill="black"/>
<path d="M20.6514 22.5156L20.6473 25.2629C20.6473 25.3551 20.6934 25.4012 20.7855 25.4012H23.056C23.5129 25.4012 23.7406 25.6303 23.7392 26.0885L23.7351 26.7408C23.7337 27.1949 23.5053 27.4219 23.0498 27.4219L20.7608 27.4198C20.6851 27.4198 20.6473 27.4577 20.6473 27.5334L20.6534 31.9525C20.6534 31.9842 20.6376 32 20.606 32L18.6575 31.9979C18.6313 31.9979 18.6183 31.9849 18.6183 31.9587L18.6162 20.5279C18.6162 20.4481 18.6561 20.4082 18.7359 20.4082L24.3543 20.4103C24.8786 20.4103 25.1311 20.6717 25.1118 21.1946L25.0933 21.6859C25.074 22.1936 24.8098 22.4475 24.3007 22.4475L20.7216 22.4434C20.7029 22.4434 20.6851 22.451 20.6719 22.4645C20.6588 22.4781 20.6514 22.4965 20.6514 22.5156Z" fill="black"/>
<circle cx="20" cy="20" r="19.5" stroke="black" stroke-opacity="0.05"/>
</svg>
