<svg width="40" height="40" viewBox="0 0 40 40" fill="none" xmlns="http://www.w3.org/2000/svg">
<circle cx="20" cy="20" r="20" fill="#F6F8FA"/>
<g clip-path="url(#clip0_9_396368)">
<path d="M16.1133 22.2221C16.1133 19.033 18.5106 17.1715 19.9996 14.4482C21.6697 17.101 23.886 20.3 23.886 22.2221C23.886 24.5556 21.5048 25.5532 19.9985 25.5532C16.875 25.5532 16.1133 23.0254 16.1133 22.2221Z" fill="#EC1C2D"/>
<path fill-rule="evenodd" clip-rule="evenodd" d="M19.9992 27.7703C24.2914 27.7703 27.7708 24.2908 27.7708 19.9992C27.7708 15.707 24.292 12.2276 19.9992 12.2276C15.7075 12.2276 12.2276 15.707 12.2276 19.9992C12.2276 24.2908 15.707 27.7703 19.9992 27.7703ZM19.9992 28.8806C24.9043 28.8806 28.8812 24.9043 28.8812 19.9992C28.8812 15.0935 24.9043 11.1172 19.9992 11.1172C15.094 11.1172 11.1172 15.0935 11.1172 19.9992C11.1172 24.9043 15.094 28.8806 19.9992 28.8806Z" fill="#0063A8"/>
</g>
<circle cx="20" cy="20" r="19.5" stroke="black" stroke-opacity="0.05"/>
<defs>
<clipPath id="clip0_9_396368">
<rect width="18" height="18" fill="white" transform="translate(11 11)"/>
</clipPath>
</defs>
</svg>
