<svg width="40" height="40" viewBox="0 0 40 40" fill="none" xmlns="http://www.w3.org/2000/svg">
<circle cx="20" cy="20" r="20" fill="#F6F8FA"/>
<path d="M12.5814 25.7714C14.0807 27.6569 15.9721 28.8291 18.2557 29.2877C21.0012 29.8384 23.8911 29.0963 26.0304 27.3444C27.8478 25.8546 28.9711 23.9223 29.4002 21.5476C29.415 21.4643 29.4608 21.4038 29.5376 21.3659L32.9352 19.6999C32.9417 19.6967 32.9488 19.6952 32.956 19.6955C32.9633 19.6959 32.9703 19.6981 32.9765 19.7019C32.9827 19.7058 32.9879 19.7112 32.9916 19.7176C32.9953 19.7241 32.9974 19.7313 32.9976 19.7388C33.1364 27.1724 27.1208 33.1148 19.7831 32.9983C11.2912 32.8624 5.22011 24.7241 7.47317 16.5581C8.25009 13.7441 9.78496 11.4585 12.0778 9.7015C19.1838 4.2584 29.4946 7.39886 32.3373 15.9103C32.3462 15.9354 32.3453 15.9629 32.3348 15.9878C32.3243 16.0126 32.3049 16.0329 32.2804 16.0448L12.6105 25.6465C12.5495 25.6761 12.5398 25.7177 12.5814 25.7714ZM11.0373 22.4187L27.5454 14.3733C27.554 14.3692 27.5615 14.3631 27.5675 14.3557C27.5734 14.3482 27.5776 14.3394 27.5798 14.3301C27.5819 14.3208 27.5819 14.3111 27.5798 14.3018C27.5777 14.2925 27.5735 14.2837 27.5676 14.2762C25.9666 12.1997 23.5831 10.8389 20.9665 10.6115C14.4044 10.0427 9.34054 15.9852 10.9318 22.3729C10.9344 22.3834 10.9394 22.3932 10.9465 22.4015C10.9535 22.4098 10.9625 22.4163 10.9726 22.4207C10.9827 22.4251 10.9938 22.4272 11.005 22.4269C11.0162 22.4265 11.0272 22.4237 11.0373 22.4187Z" fill="#F05A2C"/>
<circle cx="20" cy="20" r="19.5" stroke="black" stroke-opacity="0.05"/>
</svg>
