<svg width="40" height="40" viewBox="0 0 40 40" fill="none" xmlns="http://www.w3.org/2000/svg">
<circle cx="20" cy="20" r="20" fill="#F6F8FA"/>
<g clip-path="url(#clip0_9_396083)">
<path d="M31.5056 13.3643H8.4043V26.4986H31.5056V13.3643Z" fill="#F58800"/>
<path d="M8.13184 13.252V26.7497H31.8681V13.252H8.13184ZM31.2747 26.185H22.967V23.2403C22.4531 23.2121 21.5873 23.1165 21.0129 23.0327C19.0778 22.6693 18.6547 22.5855 18.4126 22.5017C18.1705 22.4179 17.0217 21.9988 16.8703 21.915C16.719 21.8312 15.7518 22.2227 14.9952 22.4179C14.4749 22.553 13.9507 22.6741 13.4232 22.7813C13.1515 22.8094 12.2441 23.0327 11.9112 22.977C11.5789 22.9208 11.6395 22.6693 11.7303 22.5855C11.8513 22.5017 11.8816 22.5855 11.8816 22.6418C11.8816 22.698 11.821 22.7537 11.8816 22.7813C11.9415 22.8094 12.1836 22.8094 12.2744 22.7813C12.3652 22.7531 14.4214 22.5298 16.3262 21.7474C16.3262 21.7474 14.8445 20.965 14.1187 20.7416C13.393 20.5178 13.4541 20.6016 13.393 20.5735C13.3325 20.5453 12.1836 19.9586 11.9718 19.903C11.7908 19.8191 11.9718 19.5958 12.2441 19.7072C12.5165 19.8473 12.9396 20.0987 13.0304 20.1263C13.1212 20.1544 13.514 20.322 13.7259 20.3783C13.9674 20.434 14.1187 20.4621 14.905 20.7973C15.6912 21.1607 15.2675 21.0206 15.8426 21.2445C16.417 21.4678 16.5683 21.6355 16.7493 21.6636C16.7493 21.6636 17.3842 21.3565 17.8079 21.2721C18.231 21.1883 18.5034 20.9931 18.5942 20.965C18.6844 20.9087 19.3496 20.6297 19.9549 20.5178C20.5595 20.4058 20.2266 20.3783 20.2266 20.3783C20.2266 20.3783 19.5009 20.2939 19.1686 20.0706C18.8363 19.8473 16.3867 17.3875 16.2959 17.3042C16.2051 17.2198 16.0841 17.0246 16.2051 16.9408C16.3262 16.8565 16.6282 16.969 16.6585 16.9971C16.6888 17.0246 19.3199 18.0866 19.8943 18.3938C20.4688 18.6733 22.071 19.5677 22.192 19.5958C22.3131 19.6515 22.8762 19.791 22.967 19.8191L22.9729 17.2485C22.8821 17.0528 22.8216 16.857 22.7611 16.6894C22.5795 16.1021 22.6365 15.9677 22.6365 15.8558C22.6365 15.7444 22.7006 15.5155 22.9124 15.6831L22.9729 15.7393L22.967 13.8122H31.2747V26.185ZM22.2828 20.2945C22.4039 20.2945 22.8465 20.3501 22.967 20.3501V20.1544C22.8498 20.1462 22.7327 20.1368 22.6157 20.1263C22.5249 20.0981 21.9802 20.2663 22.2828 20.2945ZM20.8919 20.1263C21.7386 20.1544 22.0407 19.9311 22.0407 19.9311C22.1617 19.8748 22.071 19.7635 21.8597 19.6796C21.6479 19.5953 20.9826 19.2043 20.8011 19.1205C20.6201 19.0361 19.4101 18.3938 19.1989 18.2824C19.0173 18.1699 18.9568 18.2261 18.5337 18.0304C18.11 17.8071 16.8703 17.3599 16.8703 17.3599C16.8098 17.4443 16.9611 17.5838 17.0519 17.6676C17.1125 17.7514 17.7474 18.31 18.1705 18.7571C18.6239 19.2043 19.4404 19.8191 19.4404 19.8191C19.9549 20.1544 20.9221 20.1263 20.8919 20.1263ZM21.5268 20.5459C21.1642 20.4615 20.9221 20.4896 20.8011 20.5178C20.68 20.5459 19.9549 20.7416 19.6825 20.7973C19.3799 20.8536 18.7752 21.1326 18.5034 21.3002C18.231 21.4678 17.2335 21.7193 17.2335 21.7193C17.7777 22.027 19.2291 22.3903 19.5614 22.4741C19.8937 22.558 20.3477 22.6418 21.0129 22.7256C21.4057 22.7818 22.2413 22.8932 22.967 22.9213V20.56C22.4834 20.6162 21.7386 20.6016 21.5268 20.5459ZM24.7923 23.1446C25.972 23.0884 26.8182 22.6418 26.8182 22.6418C27.1814 22.5574 27.2722 22.446 27.3327 22.446C27.9973 22.1389 28.8441 21.1045 28.9652 20.9368C29.0257 20.853 29.0257 20.5735 28.9652 20.4896C28.9046 20.4058 28.7236 20.043 28.5723 19.8748C28.421 19.7072 28.2697 19.6796 28.1492 19.6234C28.0282 19.5671 27.8466 19.512 27.6347 19.4558C27.4532 19.3995 27.4532 19.372 26.607 19.26C25.7299 19.1205 24.7567 19.512 24.7567 19.512C24.5751 19.5401 24.4843 19.512 24.4843 19.512C24.2428 19.2881 24.2731 18.4219 24.2731 18.4219C24.2428 17.7233 23.8191 16.8846 23.8191 16.8846C23.5165 16.1027 23.1183 15.8456 22.967 15.7337L22.9729 17.0449C23.1842 17.5483 23.5474 18.2261 23.5474 18.2261C23.9099 18.8691 24.0612 19.6234 24.0612 19.6234C23.7586 19.6796 23.0275 19.8191 22.967 19.8191V20.1544C23.0275 20.1825 23.2993 20.2663 23.3598 20.2945C23.4204 20.3226 23.1486 20.3501 22.967 20.3501V20.56C23.3598 20.56 23.5224 20.5735 23.6435 20.5735C23.9159 20.6016 24.0666 20.7973 24.1876 20.853C24.3087 20.9093 24.5811 20.9093 24.4903 20.7692C24.3995 20.6297 24.3995 20.5735 24.46 20.5459C24.5508 20.5178 24.7324 20.2945 24.5205 20.2945H24.0369C24.0369 20.2945 24.0369 19.9868 24.0666 19.9311C24.0666 19.9311 25.3365 19.6234 25.8812 19.5958C25.8812 19.5958 25.851 19.903 25.8812 19.9586C25.9109 20.0149 26.8787 22.1108 26.8485 22.2784C26.8188 22.446 26.9393 22.3903 26.728 22.4741C26.5162 22.558 25.972 22.8094 24.3692 22.9213C23.7343 22.977 23.4204 22.9495 22.967 22.9213V23.2403C24.1158 23.2684 24.7923 23.1446 24.7923 23.1446ZM23.7895 18.4219C23.7895 18.4219 22.646 16.8289 22.7967 16.2698C22.7967 16.2698 23.9099 17.4718 23.9402 18.3662C23.9705 18.3943 23.9105 18.5338 23.7889 18.4219H23.7895ZM23.6737 20.2106C23.6441 20.2945 23.5224 20.2106 23.2809 20.0149C23.2809 20.0149 23.5224 19.9868 23.6132 19.9868C23.704 19.9586 23.704 20.1263 23.6737 20.2106ZM26.1227 19.8748C26.1227 19.8748 26.1227 19.6796 26.153 19.5677C26.153 19.5677 27.4532 19.5677 28.2092 20.043C28.2092 20.043 28.9652 20.5178 28.6631 20.9093C28.3605 21.3002 27.6045 21.9988 27.4537 22.0826C27.3024 22.167 27.2722 22.1108 27.1808 22.0264C27.0603 21.9431 26.3643 20.7135 26.1227 19.8748ZM27.2722 21.1607C27.363 21.217 27.5439 21.2445 27.6347 21.1326C27.7255 21.0206 27.7558 20.7416 27.6953 20.6573C27.6347 20.5735 27.4834 20.5735 27.4229 20.6291C27.3327 20.7135 27.4834 20.853 27.363 20.8811C27.2722 20.9093 27.2419 20.7968 27.2722 20.6854C27.2722 20.6854 27.1814 20.4621 27.0603 20.6016C27.0228 20.6555 27.0028 20.7187 27.0028 20.7833C27.0028 20.8479 27.0228 20.911 27.0603 20.965C27.1208 21.0488 27.1814 21.1045 27.2722 21.1607Z" fill="#00463E"/>
</g>
<circle cx="20" cy="20" r="19.5" stroke="black" stroke-opacity="0.05"/>
<defs>
<clipPath id="clip0_9_396083">
<rect width="24" height="14" fill="white" transform="translate(8 13)"/>
</clipPath>
</defs>
</svg>
