<svg width="40" height="40" viewBox="0 0 40 40" fill="none" xmlns="http://www.w3.org/2000/svg">
<circle cx="20" cy="20" r="20" fill="#F6F8FA"/>
<path fill-rule="evenodd" clip-rule="evenodd" d="M29.9929 9H10V21.6913C14.25 21.6913 22.9286 23.5164 28.1214 31H30V27.5111C29.1143 27.5697 28.0643 27.687 26.9286 27.8702C26.6714 27.577 26.3929 27.2839 26.1071 27.0127C27.55 26.7488 28.9071 26.5949 30 26.5216V25.8766C28.7857 25.9499 27.1929 26.1331 25.5143 26.4629C25.1929 26.1844 24.8714 25.9132 24.55 25.6567C26.3452 25.2625 28.1672 25.0101 30 24.9017V24.2494C28.4643 24.3227 26.1571 24.5646 23.8286 25.1363C23.45 24.8724 23.0857 24.6232 22.7286 24.4033C25.4429 23.641 28.2286 23.3478 30 23.2672V22.7981C28.2929 22.8347 25.0929 23.1279 22.0857 24.0222C21.6714 23.7803 21.3 23.5824 20.9571 23.4138L20.7143 23.3405V13.2109L21.4286 13.8339V23.1866L22.1429 22.974V14.0685L22.8571 14.6988V22.7908C23.0929 22.7248 23.3357 22.6735 23.5714 22.6149V15.0726L24.2857 15.7176V22.4609C26.5714 21.9992 28.7 21.8306 30 21.8013V9.01099L29.9929 9ZM26.9 31C21.9071 24.33 13.9286 22.6735 10 22.6735V23.2892C13.7429 23.2452 21.1286 24.6818 25.6714 31H26.9ZM24.4286 31C20.1071 25.5027 13.4071 24.2274 10 24.2714V24.8724C13.4143 24.9677 19.25 26.287 23.3357 31H24.4286ZM21.9857 31C18.1857 27.086 13.0571 25.9425 10 25.8619V26.6682C12.8571 26.8001 17.2786 27.8189 20.8286 31H21.9857ZM19.2714 31C16.557 28.996 13.3392 27.8334 10 27.6503V31H19.2714ZM15 21.1929C16.0714 21.3615 18.7429 21.9185 20 22.8054V12.6905L15 15.7323V21.1929Z" fill="url(#paint0_linear_9_388609)"/>
<circle cx="20" cy="20" r="19.5" stroke="black" stroke-opacity="0.05"/>
<defs>
<linearGradient id="paint0_linear_9_388609" x1="20" y1="9.01099" x2="20" y2="31" gradientUnits="userSpaceOnUse">
<stop stop-color="#C7B36B"/>
<stop offset="0.79" stop-color="#685303"/>
</linearGradient>
</defs>
</svg>
