<svg width="40" height="40" viewBox="0 0 40 40" fill="none" xmlns="http://www.w3.org/2000/svg">
<circle cx="20" cy="20" r="20" fill="#F0F3FA"/>
<path d="M29.4432 16.9971C30.6112 16.4574 31.2159 15.2793 30.7938 14.3657C30.3716 13.4521 29.0825 13.1491 27.9145 13.6888C26.7465 14.2285 26.1418 15.4066 26.5639 16.3202C26.986 17.2337 28.2751 17.5368 29.4432 16.9971Z" fill="#636569"/>
<path d="M10.5554 16.9963C11.7237 17.5386 13.0141 17.2388 13.4375 16.3265C13.8609 15.4143 13.2571 14.2352 12.0888 13.6929C10.9205 13.1506 9.63012 13.4504 9.20668 14.3627C8.78324 15.2749 9.38708 16.454 10.5554 16.9963Z" fill="#3D8175"/>
<path d="M15.5296 19.5637C16.6982 20.1086 17.9899 19.8117 18.4148 18.9005C18.8397 17.9893 18.2368 16.8089 17.0683 16.264C15.8997 15.7191 14.6079 16.016 14.1831 16.9272C13.7582 17.8384 14.361 19.0188 15.5296 19.5637Z" fill="#636569"/>
<path d="M24.5162 19.5665C25.6857 19.0236 26.2906 17.8443 25.8673 16.9324C25.444 16.0204 24.1528 15.7213 22.9833 16.2641C21.8138 16.807 21.2089 17.9863 21.6322 18.8983C22.0555 19.8102 23.3467 20.1094 24.5162 19.5665Z" fill="#636569"/>
<path d="M18.0707 21.4528C18.0729 22.6948 18.9377 23.7001 20.0024 23.6982C21.0671 23.6964 21.9285 22.688 21.9263 21.4461C21.9241 20.2041 21.0593 19.1988 19.9946 19.2006C18.9299 19.2025 18.0685 20.2108 18.0707 21.4528Z" fill="#636569"/>
<path d="M18.0738 26.5929C18.0738 27.8346 18.9367 28.8411 20.001 28.8411C21.0654 28.8411 21.9282 27.8346 21.9282 26.5929C21.9282 25.3513 21.0654 24.3447 20.001 24.3447C18.9367 24.3447 18.0738 25.3513 18.0738 26.5929Z" fill="#636569"/>
<circle cx="20" cy="20" r="19.5" stroke="black" stroke-opacity="0.05"/>
</svg>
