<svg width="40" height="40" viewBox="0 0 40 40" fill="none" xmlns="http://www.w3.org/2000/svg">
<circle cx="20" cy="20" r="20" fill="#002A65"/>
<g clip-path="url(#clip0_9_405487)">
<path d="M25.7141 11.9999C25.7141 11.9999 18.0644 12.2776 17.1427 19.4314H8.57129C8.57129 19.4314 11.6239 11.4182 25.7141 11.9999ZM25.7164 27.9982C25.7164 27.9982 18.3507 27.7456 17.1427 21.1428H8.57129C8.57129 21.1428 11.6256 28.5582 25.7164 27.9982Z" fill="#E02235"/>
<path d="M28.149 15.1699C28.5718 15.5414 29.0461 15.9642 29.0461 15.9642C29.0461 17.0602 27.4267 17.6556 25.4193 17.4396C23.4107 17.2225 21.8164 16.2659 21.8164 15.1705" stroke="white" stroke-width="0.75"/>
<path d="M30.4294 18.0381C30.4294 19.8404 28.2208 20.9776 25.2728 20.5901C22.0488 20.1661 19.8482 18.6273 19.9197 16.7861" stroke="white" stroke-width="0.75"/>
<path d="M30.8087 20.3601C30.3464 22.6275 27.8624 24.0241 24.5893 23.5041C21.0642 22.9441 19.079 21.0378 19.0527 18.7327M25.5082 14.2041C25.3596 15.7727 24.5767 21.9744 24.1082 25.9167" stroke="white" stroke-width="0.75"/>
<path d="M26.0781 14.4282C24.9884 14.2705 23.865 16.1391 22.6655 19.2139C21.8724 21.2482 21.4461 23.5139 21.8553 25.2562" stroke="white" stroke-width="0.75"/>
<path d="M26.8194 14.5485C25.2634 14.3474 23.7828 15.0422 22.0223 17.3708C20.7211 19.0919 19.4874 21.7765 20.328 24.0959" stroke="white" stroke-width="0.75"/>
<path d="M19.1379 21.7463C19.0562 20.272 19.195 18.3355 21.943 15.9537C23.4722 14.656 26.339 13.996 28.5099 15.4977M19.7156 17.144C20.6219 15.9806 22.5699 14.0675 25.6024 14.288M25.5636 14.2772C25.5636 14.2772 21.8264 15.0743 21.4356 15.3252" stroke="white" stroke-width="0.75"/>
<path d="M25.6123 14.2695C26.7523 14.8467 29.3752 18.8267 29.2294 22.3438C29.1877 23.3507 28.966 24.2867 28.33 25.0375" stroke="white" stroke-width="0.75"/>
<path d="M26.1784 25.9167C26.9819 24.6435 27.1104 22.8412 27.0213 21.0087C26.8596 17.6904 25.8116 14.3361 25.5527 14.2881C25.5527 14.2881 27.8876 14.5921 29.7527 16.7229" stroke="white" stroke-width="0.75"/>
<path d="M30.0317 23.2669C31.078 18.3109 26.4512 14.3447 25.6123 14.2881C25.6123 14.2881 29.2752 14.3144 30.7323 18.9978" stroke="white" stroke-width="0.75"/>
<path d="M24.8664 26.1088C28.1419 26.1088 30.7973 23.4534 30.7973 20.1779C30.7973 16.9024 28.1419 14.2471 24.8664 14.2471C21.5909 14.2471 18.9355 16.9024 18.9355 20.1779C18.9355 23.4534 21.5909 26.1088 24.8664 26.1088Z" stroke="white"/>
</g>
<circle cx="20" cy="20" r="19.5" stroke="black" stroke-opacity="0.05"/>
<defs>
<clipPath id="clip0_9_405487">
<rect width="24" height="18" fill="white" transform="translate(8 11)"/>
</clipPath>
</defs>
</svg>
