<svg width="40" height="40" viewBox="0 0 40 40" fill="none" xmlns="http://www.w3.org/2000/svg">
<circle cx="20" cy="20" r="20" fill="#B61F36"/>
<path d="M9.54113 14.3941C9.95899 14.3941 9.99756 14.7156 10.0297 15.2299H11.0004C11.0004 14.2527 10.6211 13.5713 9.52185 13.5713C8.1397 13.5713 7.78613 14.722 7.78613 15.892C7.78613 17.1777 8.23613 18.0713 9.39328 18.0713C9.72756 18.0713 10.1454 17.9363 10.3961 17.6534L10.6147 18.0713H11.0004V15.7956H9.54756V16.5413H10.1133C10.1133 16.8177 9.92042 17.2484 9.5347 17.2484C9.01399 17.2484 9.07185 16.5413 9.07185 15.7956C9.07185 15.1077 9.07185 14.3941 9.54113 14.3941ZM12.8197 15.4999H12.5947V14.3941H12.7876C13.1604 14.3941 13.514 14.4263 13.514 14.8891C13.514 15.2427 13.2376 15.4999 12.8133 15.4999H12.8197ZM13.8933 15.9049C14.1108 15.8193 14.2979 15.6709 14.4307 15.4785C14.5636 15.2862 14.6361 15.0586 14.639 14.8249C14.639 13.957 13.9897 13.5713 13.1476 13.5713H11.4761V18.0713H12.5947V16.1427H12.974L13.5268 18.0713H14.639L13.8933 15.9049ZM16.4647 14.3941C16.979 14.3941 16.979 14.9984 16.979 15.8727C16.979 16.7406 16.979 17.2549 16.4647 17.2549C15.9504 17.2549 15.9504 16.7406 15.9504 15.8663C15.9504 14.9984 15.9504 14.3877 16.4647 14.3877V14.3941ZM16.4647 18.0713C17.7633 18.0713 18.2004 16.9977 18.2004 15.8663C18.2004 14.7413 17.789 13.5713 16.4647 13.5713C15.1404 13.5713 14.7354 14.7413 14.7354 15.8663C14.7354 16.9206 15.269 18.0713 16.4647 18.0713ZM20.084 18.0713C21.0547 18.0713 21.6397 17.4284 21.6397 16.4641L20.6626 16.3741C20.6368 16.9206 20.5404 17.2613 20.129 17.2613C19.6083 17.2613 19.5633 16.7791 19.5633 15.8727C19.5633 15.0563 19.6276 14.3941 20.1033 14.3941C20.5147 14.3941 20.5854 14.9084 20.5854 15.2041H21.6397C21.6397 14.2913 21.1576 13.5713 20.084 13.5713C18.7147 13.5713 18.3483 14.8056 18.3483 15.8663C18.3483 17.017 18.7211 18.0713 20.084 18.0713ZM24.7768 17.1777H23.054V16.2649H24.224V15.4099H23.054V14.4263H24.7768V13.5713H21.929V18.0713H24.7768V17.1777ZM26.4483 15.4999H26.2233V14.3877H26.4161C26.789 14.3877 27.1426 14.4263 27.1426 14.8891C27.1426 15.2427 26.8661 15.4999 26.4418 15.4999H26.4483ZM28.2676 18.0713L27.5218 15.9049C27.7394 15.8193 27.9265 15.6709 28.0593 15.4785C28.1921 15.2862 28.2646 15.0586 28.2676 14.8249C28.2676 13.957 27.6183 13.5713 26.7761 13.5713H25.1433V18.0713H26.2233V16.1427H26.5961L27.1554 18.0713H28.2676ZM30.5754 13.5713L29.9133 15.397L29.2768 13.5713H28.1068L29.264 16.3613V18.0713H30.389V16.297L31.5718 13.5713H30.5754ZM12.254 19.6077C12.4083 19.3184 12.6268 19.1449 13.0061 19.1449C13.4176 19.1449 13.6104 19.3377 13.7518 19.6141C13.9383 19.9484 14.009 20.4177 14.009 20.9127C14.009 21.3627 13.9447 21.9606 13.7518 22.327C13.604 22.597 13.3983 22.777 13.019 22.777C12.6461 22.777 12.4211 22.6356 12.2476 22.3141C12.0659 21.8701 11.9826 21.392 12.0033 20.9127C12.0033 20.4563 12.0676 19.9677 12.254 19.6077ZM13.019 23.2141C14.3176 23.2141 14.549 21.8641 14.549 20.9127C14.549 19.9484 14.3111 18.7141 13.019 18.7141C11.6883 18.7141 11.4568 20.0063 11.4568 20.9127C11.4568 21.7741 11.669 23.2141 13.019 23.2141ZM16.2654 23.2141C17.609 23.2141 17.609 22.2499 17.609 21.607V18.7141H17.1076V21.6327C17.1076 22.1984 17.1076 22.7706 16.2847 22.7706C15.494 22.7706 15.5004 22.2306 15.5004 21.6584V18.7141H14.9733V21.6584C14.9733 22.3013 14.999 23.2141 16.2654 23.2141ZM18.8368 23.2141H19.3576V19.1513H20.3283V18.7141H17.8597V19.1513H18.824V23.2141H18.8368ZM22.7711 22.7834H21.1704V18.7141H20.6433V23.2141H22.7711V22.7834ZM23.549 21.0799H24.8604V20.6427H23.549V19.1449H25.2526V18.7141H23.0218V23.2141H25.304V22.7834H23.549V21.0799ZM25.4647 19.1513H26.429V23.2141H26.969V19.1513H27.9397V18.7141H25.4647V19.1513Z" fill="white"/>
<path d="M11.7396 25.8759C11.5403 25.8952 11.2768 26.1202 11.2961 26.3517C11.4182 26.4417 11.5853 26.3774 11.7268 26.3259L11.8553 26.2809V26.1974C11.8425 26.0688 11.8361 25.8888 11.7396 25.8759ZM12.3632 26.1138L12.3953 26.1009C12.5432 26.0302 12.6139 26.1909 12.6139 26.2552C12.6525 26.4802 12.4211 26.5381 12.2218 26.5959L12.1189 26.6217L11.9903 26.6667C11.7332 26.7502 11.3861 26.8724 11.1546 26.7181C10.9682 26.6152 10.8718 26.2038 10.9939 26.0109C11.1096 25.8374 11.4246 25.5417 11.6818 25.5224C11.7911 25.5159 11.9068 25.5417 11.9839 25.7024C12.0675 25.6574 12.0868 25.3167 12.0739 25.2395C11.9775 25.0917 11.7396 25.2009 11.6368 25.2395L11.6239 25.2524C11.6111 25.2524 11.5789 25.2845 11.5339 25.3167C11.4568 25.3809 11.3411 25.4645 11.2446 25.4902C11.1868 25.5031 11.1418 25.4902 11.1161 25.4259C10.9746 25.0531 11.4761 24.8345 11.7911 24.7959H11.9196C12.5946 24.7959 12.3503 25.7602 12.2411 26.1459C12.2796 26.1588 12.3246 26.1395 12.3696 26.1138H12.3632ZM14.1825 25.1817C14.1953 25.2652 14.1825 25.3617 14.0989 25.3681L13.9896 25.3809L13.9703 25.3874C13.5589 25.4838 13.3146 25.8052 13.2375 26.1395C13.2118 26.2359 13.2182 26.3645 13.2182 26.4931C13.2182 26.6474 13.2182 26.7952 13.1861 26.8981C13.1411 26.9624 13.0253 26.9238 12.9611 26.8852C12.9274 26.8653 12.8985 26.8383 12.8763 26.8061C12.8541 26.774 12.8391 26.7373 12.8325 26.6988C12.7521 26.2361 12.7348 25.7647 12.7811 25.2974C12.7875 25.2267 12.8261 25.1559 12.8839 25.1431C12.9482 25.1367 12.9868 25.1367 13.0575 25.2074C13.1282 25.2845 13.1153 25.4002 13.0961 25.5095L13.0832 25.6445C13.0961 25.5867 13.3918 25.2395 13.5011 25.1624C13.6168 25.0852 13.7582 25.0338 13.8032 25.0274C13.9318 25.0081 14.1118 25.0595 14.1825 25.1817ZM26.3903 25.1302C26.5189 25.0338 26.6218 24.9952 26.6668 24.9824C26.7375 24.9567 26.8339 24.9759 26.8789 25.0402C27.0203 25.2974 26.8339 25.3424 26.7053 25.3617C26.5446 25.4581 26.3582 25.6188 26.2618 25.7859C26.1461 25.9788 26.1396 26.1717 26.1332 26.3709C26.1332 26.5124 26.1268 26.6474 26.0882 26.7824C26.0047 26.8126 25.9129 26.8103 25.8311 26.7759C25.7346 26.7117 25.7218 26.3902 25.7089 26.1845V26.0688L25.6961 25.9274C25.6768 25.6638 25.6575 25.4259 25.6961 25.1624C25.7089 25.0981 25.7796 25.0338 25.8053 25.0338C26.0303 25.0017 26.0175 25.3552 26.0111 25.5159V25.5224C26.0303 25.4581 26.3261 25.1752 26.3903 25.1302ZM10.3382 25.8374C10.4796 25.7217 10.5632 25.5352 10.3061 25.4388C10.0103 25.3102 9.72749 25.3359 9.35463 25.4002C9.3482 25.7024 9.33534 26.0238 9.36749 26.3259L9.49606 26.2745C9.80215 26.1872 10.0882 26.0409 10.3382 25.8438V25.8374ZM9.45749 23.6517L9.44463 23.7674L9.4382 23.8317L9.40606 24.1145V24.2624C9.38677 24.5067 9.38034 24.7317 9.38034 24.9824C9.72903 24.923 10.087 24.9517 10.4218 25.0659C10.6596 25.1881 10.8268 25.3359 10.8461 25.5545C10.8461 25.7345 10.8461 25.8181 10.7432 25.9981C10.6789 26.0945 10.5889 26.1781 10.4989 26.2359C10.178 26.46 9.8246 26.6334 9.45106 26.7502C9.47035 26.8467 9.45106 26.9174 9.35463 26.9817C9.2132 27.0331 9.13606 26.9688 9.08463 26.8981L9.02034 26.9174L8.92392 26.9495C8.79535 26.9817 8.7182 26.9752 8.66677 26.9495C8.61534 26.9238 8.5382 26.7245 8.57035 26.6152C8.60892 26.5252 8.80177 26.4931 8.93677 26.4738L9.00106 26.4609C8.96249 26.1009 8.96249 25.8631 8.96892 25.4774L8.84677 25.5224C8.75677 25.5481 8.64106 25.5867 8.5382 25.6381L8.45463 25.6831C8.37106 25.7345 8.27463 25.7924 8.19106 25.7988C8.06249 25.8117 7.98535 25.6959 7.98535 25.6895L7.97249 25.6702C7.9532 25.6317 7.92749 25.5738 7.9532 25.4967C8.10749 25.2267 8.73106 25.0917 9.00106 25.0467C9.00241 24.738 9.00884 24.4294 9.02034 24.1209C9.02677 23.9409 9.03963 23.7352 9.05892 23.5488L9.09749 23.3238C9.11034 23.2595 9.15534 23.1631 9.25177 23.1631C9.31606 23.1631 9.41892 23.1952 9.44463 23.2531C9.50249 23.3752 9.4832 23.4845 9.46392 23.5745L9.45749 23.6517ZM29.4246 25.8052C29.4889 25.7152 29.4439 25.6895 29.4182 25.6767C29.1739 25.6124 28.6982 25.8502 28.7882 26.1588C28.9811 26.1588 29.2832 26.0302 29.4311 25.8052H29.4246ZM29.5082 26.4609C29.6432 26.4095 29.7782 26.3324 29.9068 26.2424C29.9582 26.2102 30.0032 26.2359 30.0353 26.2552L30.0482 26.2617C30.1382 26.3517 30.1125 26.4417 30.0482 26.5445C29.9968 26.6088 29.9196 26.6474 29.8425 26.6859L29.8232 26.6924C29.6946 26.7567 29.5468 26.7759 29.3989 26.7888H29.3603C29.1675 26.7952 28.9296 26.8081 28.7496 26.6924L28.7239 26.6795C28.6789 26.6474 28.6211 26.6152 28.5632 26.5381C28.2418 26.6152 27.9268 26.4995 27.7275 26.2809C27.6746 26.3171 27.627 26.3603 27.5861 26.4095C27.4976 26.5122 27.4377 26.6364 27.4125 26.7695C27.2968 26.7888 27.1939 26.7502 27.1618 26.7052C27.0598 26.2542 27.0208 25.7912 27.0461 25.3295V25.2074C27.0461 24.8731 27.0589 24.4231 27.1875 24.1145C27.2132 24.0502 27.2968 24.0374 27.3482 24.0695C27.5025 24.1531 27.4575 24.4488 27.4125 24.6802L27.3868 24.8731C27.3611 25.2524 27.3611 25.6702 27.4125 26.0431C27.4391 26.0059 27.4717 25.9733 27.5089 25.9467C27.5089 25.8567 27.5411 25.8181 27.5668 25.7859C27.5989 25.7538 27.6311 25.7474 27.6761 25.7409H27.7018C27.7661 25.6959 27.8303 25.6124 27.8946 25.5352C27.9139 25.5031 27.9332 25.4709 27.9589 25.4517L27.9653 25.4388L28.1453 25.2652C28.2611 25.1495 28.3639 25.2138 28.3961 25.2459C28.5503 25.4002 28.2225 25.7217 28.0361 25.9017L27.9525 25.9788C28.0875 26.1588 28.2546 26.2295 28.4475 26.1974C28.4282 26.0045 28.4603 25.8245 28.6275 25.6381C28.6934 25.5595 28.7771 25.4977 28.8718 25.4581H28.8782C29.1032 25.3424 29.4311 25.2781 29.6561 25.4131C29.8618 25.5481 29.7975 25.7795 29.7589 25.8631C29.6432 26.1588 29.3668 26.3774 29.0518 26.4417C29.1868 26.5252 29.3925 26.4867 29.5082 26.4609ZM31.2439 25.0917C31.2825 25.0917 31.3082 25.0917 31.3661 25.1109C31.4111 25.1431 31.4432 25.2009 31.4496 25.2588C31.4561 25.3231 31.4303 25.4002 31.3596 25.4388C31.3275 25.4645 31.2761 25.4581 31.2311 25.4581H31.0961C30.9161 25.4581 30.7618 25.4581 30.6268 25.5095C30.5882 25.7538 30.6268 26.1138 30.6718 26.3581C30.6989 26.5087 30.7032 26.6626 30.6846 26.8145C30.6782 26.8595 30.6653 26.9174 30.5818 26.9431C30.4853 26.9624 30.3761 26.8402 30.3632 26.7245C30.2814 26.4361 30.2424 26.1372 30.2475 25.8374V25.5545C30.2218 25.5352 30.1832 25.5352 30.1446 25.5417C30.0932 25.5417 30.0353 25.5417 30.0032 25.4902C29.9646 25.3488 29.9582 25.1881 30.1639 25.1688C30.2668 25.1624 30.2668 25.1367 30.2732 25.0081V24.9117C30.2925 24.6931 30.3182 24.5002 30.4146 24.3009C30.4596 24.2624 30.5303 24.2559 30.5753 24.2559C30.6782 24.2559 30.7232 24.3652 30.6846 24.5131C30.6846 24.6031 30.6653 24.7317 30.6461 24.8602L30.6075 25.1238C30.8199 25.1186 31.0321 25.1079 31.2439 25.0917ZM23.6903 25.0788V25.0917C23.7289 25.2845 23.7161 25.4967 23.7032 25.7024C23.6903 25.9209 23.6711 26.1331 23.7161 26.3452L23.7353 26.4288C23.7611 26.5445 23.7996 26.7052 23.7161 26.7695C23.3946 26.9174 23.3625 26.1909 23.3625 26.0367V25.8759C23.3599 25.7538 23.362 25.6315 23.3689 25.5095C23.3818 25.4195 23.3882 25.3295 23.3689 25.2717C23.3561 25.2331 23.2853 25.2717 23.2661 25.2909C23.0603 25.4324 22.9446 25.7731 22.8611 25.9981L22.8353 26.0688C22.7582 26.2745 22.7132 26.4417 22.6682 26.6474C22.6039 26.6859 22.5525 26.6667 22.5075 26.6474C22.4046 26.5831 22.3596 26.4738 22.3532 26.3517C22.3339 26.1588 22.3468 25.9017 22.3853 25.6574C22.4175 25.4131 22.4239 25.1945 22.3082 25.1302C22.1089 25.1945 21.9546 25.6059 21.9289 25.7152C21.8409 26.0768 21.8105 26.4499 21.8389 26.8209C21.6461 26.9752 21.4982 26.6731 21.4918 26.5381C21.472 26.0852 21.4398 25.6328 21.3953 25.1817C21.3568 24.9695 21.3182 24.7638 21.3182 24.5581C21.3182 24.4809 21.3568 24.4552 21.3761 24.4552C21.4496 24.4372 21.5272 24.4464 21.5946 24.4809C21.6461 24.5067 21.6589 24.5774 21.6589 24.6095C21.6975 24.8024 21.7232 24.9695 21.7425 25.1752C21.7939 25.0724 21.8775 24.9631 21.9225 24.9181C21.9996 24.8345 22.1539 24.7509 22.2632 24.7638C22.6103 24.7959 22.6746 25.2267 22.7132 25.4902C22.8032 25.3359 23.0089 24.9824 23.2339 24.8345C23.4011 24.7317 23.5939 24.7252 23.6839 25.0209L23.6903 25.0788ZM18.1039 24.4874L18.1232 24.5067C18.1232 24.5067 18.1811 24.5581 18.1746 24.6352C18.1746 24.7317 18.1553 24.7767 18.0846 24.8152C17.9625 24.8667 17.8661 24.7702 17.7825 24.6674C17.7547 24.6206 17.7392 24.5675 17.7375 24.5131C17.7375 24.4359 17.7696 24.3974 17.8211 24.3652C17.9368 24.3459 18.0203 24.4231 18.1039 24.4938V24.4874ZM24.2239 26.0881C24.3396 26.3452 24.6803 26.2938 24.9246 26.2424L25.0596 26.2038C25.0275 25.9209 24.7382 25.7409 24.4682 25.7795C24.3332 25.7988 24.1725 25.9338 24.2239 26.0881ZM25.4261 26.0752H25.4711C25.4839 26.0817 25.4968 26.0881 25.5161 26.1138C25.5932 26.2167 25.5739 26.3067 25.5353 26.4288C25.3939 26.6088 24.7639 26.6602 24.5518 26.6217H24.5261C24.3525 26.5895 24.1789 26.5574 24.0118 26.3902C23.5746 25.8117 24.1532 25.3874 24.6161 25.4259C24.8089 25.4388 25.0146 25.5674 25.0661 25.6767C25.0764 25.6368 25.0808 25.5956 25.0789 25.5545C25.0661 25.4259 25.0018 25.2974 24.8989 25.2717C24.7537 25.2268 24.5977 25.2313 24.4553 25.2845C24.3911 25.3102 24.3332 25.3295 24.2368 25.2717C24.1789 25.2395 24.1211 25.0531 24.2882 24.9567C24.3589 24.9181 24.4425 24.8988 24.5518 24.8859C24.6868 24.8667 24.8539 24.8667 24.9825 24.9181C25.3296 25.0531 25.4453 25.6252 25.3553 26.0495C25.3553 26.0945 25.3939 26.0817 25.4261 26.0752ZM15.9889 26.5252C16.0339 26.5574 16.0725 26.5638 16.2461 26.5381C16.4261 26.5124 16.7603 26.4095 16.8246 26.3452C16.7089 26.2167 16.5096 26.1845 16.3232 26.2295C16.2525 26.2488 16.1175 26.3067 16.0532 26.3645C16.0146 26.4031 15.9825 26.4738 15.9889 26.5188V26.5252ZM17.3132 26.2102L17.3518 26.1974C17.4161 26.1781 17.4868 26.2488 17.5125 26.2874C17.5318 26.3324 17.5382 26.4159 17.5061 26.5381C17.4868 26.5959 17.4032 26.6409 17.2618 26.6667C17.0709 26.7004 16.8837 26.7521 16.7025 26.8209C16.5482 26.8788 16.4068 26.9238 16.2653 26.9367C16.0082 26.9752 15.6546 26.8724 15.6096 26.5702C15.5325 25.9917 16.4453 25.7024 16.8568 26.0045C16.9275 25.8502 16.9468 25.5995 16.8568 25.4581C16.8311 25.4259 16.8118 25.3938 16.7732 25.3809C16.5482 25.3488 16.1882 25.5095 16.0211 25.7088C15.9825 25.7602 15.8925 25.8631 15.7639 25.7924C15.6996 25.7024 15.6675 25.6445 15.8025 25.4131C15.9234 25.2723 16.0749 25.1609 16.2453 25.0874C16.4157 25.0139 16.6007 24.9801 16.7861 24.9888C17.1911 25.1688 17.3132 25.7795 17.1525 26.2552L17.3132 26.2102ZM17.8918 25.2074H17.9046C17.9625 25.2074 18.0203 25.2074 18.0525 25.2267C18.1168 25.2781 18.1489 25.3552 18.1296 25.4195C18.0332 25.7409 18.0653 26.0431 18.0911 26.3517C18.1103 26.5059 18.1232 26.6667 18.1232 26.8274C18.1232 26.9817 17.9946 27.0524 17.8918 26.9559C17.8333 26.8673 17.7898 26.7695 17.7632 26.6667C17.6649 26.2215 17.6693 25.7598 17.7761 25.3167C17.8018 25.2138 17.8596 25.2074 17.8982 25.2074H17.8918ZM19.0103 25.9209C19.1903 25.6574 19.3768 25.3809 19.7175 25.2909C20.1482 25.1624 20.1675 25.7731 20.1868 26.1909C20.1868 26.3259 20.1868 26.4417 20.2061 26.5124C20.2511 26.6602 20.2703 26.7502 20.2189 26.8724C20.2033 26.8932 20.1829 26.91 20.1593 26.9212C20.1358 26.9324 20.1099 26.9377 20.0839 26.9367C19.9553 26.9109 19.9232 26.8402 19.8911 26.7438C19.8653 26.6602 19.8525 26.5509 19.8461 26.4417V26.1974C19.8525 26.0174 19.8653 25.8374 19.8203 25.6638C19.5761 25.6702 19.3832 25.9595 19.2546 26.1524L19.2289 26.1909C19.1325 26.3259 19.0361 26.5124 18.9461 26.6924L18.8753 26.8402L18.8368 26.8531C18.7532 26.8852 18.6696 26.9174 18.6053 26.7759C18.5153 26.6345 18.4768 26.3902 18.4511 26.1845L18.4318 26.0367C18.3996 25.9081 18.4061 25.7795 18.4061 25.6381V25.3874C18.3932 25.2909 18.4382 25.2459 18.4961 25.2524C18.7146 25.2588 18.7403 25.5095 18.7596 25.7024L18.7725 25.7731C18.7789 25.8631 18.7853 26.1331 18.7725 26.2359C18.8625 26.1459 18.9332 26.0302 19.0103 25.9209ZM14.5361 26.3517C14.6775 26.2231 14.7932 26.1202 14.8961 25.9467C14.9153 25.9081 14.9539 25.8245 14.9411 25.7795C14.7353 25.6702 14.4589 25.9274 14.3303 26.0495C14.2789 26.1009 13.9575 26.4545 14.0989 26.5509C14.1761 26.5959 14.4203 26.4545 14.5361 26.3517ZM14.9153 25.3617C15.0246 25.2459 15.3203 25.2524 15.2946 25.4517C15.2946 25.5802 15.3718 25.9852 15.4103 26.2102L15.4361 26.3452C15.5453 27.0331 15.6161 27.7659 15.0696 28.2288C14.9411 28.3445 14.6389 28.3959 14.4782 28.3252C14.1889 28.2095 13.9832 27.8817 14.1825 27.6631C14.2339 27.6245 14.3496 27.6374 14.3689 27.6952L14.3882 27.7402C14.4525 27.8817 14.5168 28.0167 14.6903 27.9781C14.8768 27.9138 14.9603 27.7917 15.0503 27.6374C15.2046 27.3545 15.2046 27.0138 15.1661 26.7117C15.1596 26.6345 15.1403 26.4417 15.1146 26.3452L15.0246 26.4545L15.0053 26.4738C14.7418 26.7309 14.0218 27.2259 13.7646 26.6988C13.7437 26.6356 13.7265 26.5712 13.7132 26.5059C13.6811 26.0559 14.2211 25.5545 14.5746 25.4131C14.7096 25.3617 14.7675 25.3617 14.8575 25.3617H14.9153Z" fill="#F1AF1D"/>
<circle cx="20" cy="20" r="19.5" stroke="black" stroke-opacity="0.05"/>
</svg>
