<svg width="40" height="40" viewBox="0 0 40 40" fill="none" xmlns="http://www.w3.org/2000/svg">
<circle cx="20" cy="20" r="20" fill="#005581"/>
<g clip-path="url(#clip0_9_412443)">
<path d="M10.4139 17.9644H11.1942L13.3772 22.0324H12.3444L11.961 21.3573H9.57653L9.21757 22.0324H8.21057L10.4139 17.9644ZM11.6489 20.6787L10.779 18.8343L9.89139 20.6787H11.6489ZM19.3215 17.9644H21.0417C21.9917 17.9644 22.62 18.3566 22.62 19.2673C22.62 19.8508 22.388 20.4276 21.7379 20.6027L22.8623 22.0358H21.9198L20.9636 20.6787H20.0001V22.0358H19.3215V17.9644ZM20.8856 20.0001C21.381 20.0001 21.8315 19.7925 21.8315 19.2673C21.8315 18.7875 21.4176 18.643 20.9636 18.643H20.0001V20.0001H20.8856ZM14.5715 17.9644H16.2917C17.2417 17.9644 17.87 18.3566 17.87 19.2673C17.87 19.8508 17.638 20.4276 16.9879 20.6027L18.1123 22.0358H17.1697L16.2136 20.6787H15.2501V22.0358H14.5715V17.9644ZM16.1356 20.0001C16.631 20.0001 17.0815 19.7925 17.0815 19.2673C17.0815 18.7875 16.6676 18.643 16.2136 18.643H15.2501V20.0001H16.1356ZM24.0715 17.9644H24.7501V22.0358H24.0715V17.9644ZM30.0389 18.928C29.6527 18.6145 29.2972 18.529 28.9375 18.529C27.8579 18.529 27.0253 19.1682 27.0253 19.9757C27.0253 20.8415 27.8579 21.4855 28.9375 21.4855C29.3582 21.4855 29.7654 21.3369 30.1128 20.9915L30.8796 21.4177C30.4073 21.9198 29.6962 22.1403 28.9287 22.1403C27.3158 22.1403 26.1622 21.2921 26.1622 20.0273C26.1622 18.7264 27.3158 17.8789 28.9287 17.8789C29.6399 17.8789 30.2472 18.058 30.7629 18.5202L30.0389 18.928ZM32.2144 17.9644H32.8929V19.6954L35.0644 17.9644H36.1175L33.7439 19.8522L36.2776 22.0324H35.1743L32.8929 20.0408V22.0324H32.2144V17.9644ZM3.71436 17.9644H5.72089C6.52975 17.9644 7.21578 18.2732 7.21578 19.0087C7.21578 19.4661 6.98778 19.7714 6.43203 19.897V19.9105C7.10789 19.9682 7.44311 20.3679 7.44311 20.8877C7.44311 21.7719 6.57453 22.0358 5.56143 22.0358H3.71436V17.9644ZM4.39293 19.6364H5.45896C6.09478 19.6364 6.41439 19.4301 6.41439 19.1254C6.41439 18.7753 6.09478 18.643 5.37482 18.643H4.39293V19.6364ZM4.39293 21.3573H5.46778C5.96111 21.3573 6.64103 21.364 6.64103 20.83C6.64103 20.4039 6.27664 20.2804 5.50375 20.2804H4.39293V21.3573Z" fill="white"/>
<path d="M34.9155 23.3884C35.2046 23.2697 35.9469 22.8096 36.2774 22.7119C25.446 22.7119 3.69238 22.737 3.69238 22.737C3.69238 22.737 24.5401 23.3294 34.9155 23.3884Z" fill="#A39161"/>
</g>
<circle cx="20" cy="20" r="19.5" stroke="black" stroke-opacity="0.05"/>
<defs>
<clipPath id="clip0_9_412443">
<rect width="34" height="7" fill="white" transform="translate(3 17)"/>
</clipPath>
</defs>
</svg>
