<svg width="40" height="40" viewBox="0 0 40 40" fill="none" xmlns="http://www.w3.org/2000/svg">
<circle cx="20" cy="20" r="20" fill="#F6F8FA"/>
<g clip-path="url(#clip0_9_408627)">
<path d="M8.50624 13.501L7.79541 14.85H9.1349L9.14445 25.7112H7.79541L8.57503 27.0659H31.4476L32.212 25.7112H30.8629L30.8725 14.85H32.212L31.4591 13.501H8.50624Z" fill="white"/>
<path fill-rule="evenodd" clip-rule="evenodd" d="M30.8668 14.8565H32.2082L34.4802 18.7163C35.1662 19.8724 35.0401 20.7953 34.4133 21.8979L32.212 25.7119H30.863C30.863 25.7119 30.863 14.8507 30.8668 14.8565ZM31.4477 27.0667L29.1012 31.1386C28.6101 31.9087 27.7082 32.3998 26.7948 32.4208H13.2184C12.3624 32.4208 11.4509 31.9775 10.9598 31.238L8.57509 27.0609H31.4477V27.0667ZM31.4592 13.5017L31.4553 13.496H31.4592V13.5017ZM31.4553 13.496H8.50248L10.8222 9.48895C11.3706 8.53927 12.1999 8.06348 13.1764 8.06348H26.7796C27.6662 8.06348 28.505 8.50106 28.9942 9.27112L31.4553 13.496ZM9.14643 25.7119H7.79547L5.59611 21.8979C4.96363 20.7972 4.8356 19.8686 5.52159 18.7125L7.79547 14.8526H9.13496C9.14643 14.8526 9.14643 25.7119 9.14643 25.7119Z" fill="#FFCA38"/>
<path d="M31.4553 13.496L31.4592 13.5017V13.496H31.4553ZM31.4553 13.496H8.50248L10.8222 9.48895C11.3706 8.53927 12.1999 8.06348 13.1764 8.06348H26.7796C27.6662 8.06348 28.505 8.50106 28.9942 9.27112L31.4553 13.496ZM30.8668 14.8565H32.2082L34.4802 18.7163C35.1662 19.8724 35.0401 20.7953 34.4133 21.8979L32.212 25.7119H30.863C30.863 25.7119 30.863 14.8507 30.8668 14.8565ZM31.4477 27.0667L29.1012 31.1386C28.6101 31.9087 27.7082 32.3998 26.7948 32.4208H13.2184C12.3624 32.4208 11.4509 31.9775 10.9598 31.238L8.57509 27.0609H31.4477V27.0667ZM9.14643 25.7119H7.79547L5.59611 21.8979C4.96363 20.7972 4.8356 19.8686 5.52159 18.7125L7.79547 14.8526H9.13496C9.14643 14.8526 9.14643 25.7119 9.14643 25.7119Z" stroke="#FFCA38" stroke-width="1.1"/>
<path fill-rule="evenodd" clip-rule="evenodd" d="M22.8756 16.9979C22.8756 15.4042 21.8266 14.8654 19.7591 14.8654H17.6744V25.7838H19.6635V21.5972H20.4909C22.031 21.5972 22.8756 20.8577 22.8756 19.3539V16.9979ZM20.0228 16.1705C20.6973 16.1705 20.8865 16.4609 20.8865 17.2157V19.8049C20.8865 20.296 20.2482 20.296 19.6693 20.296V16.1705H20.0228ZM28.847 18.8552V16.4915C28.847 15.0679 27.475 14.6514 26.2368 14.6514C25.0177 14.6514 23.6457 15.0679 23.6457 16.4915V24.1616C23.6457 25.5851 25.0177 26.0017 26.2368 26.0017C27.475 26.0017 28.847 25.5851 28.847 24.1616V21.6622H26.8578V24.024C26.8578 24.5781 26.6533 24.6985 26.2578 24.6985C25.8451 24.6985 25.6406 24.5781 25.6406 24.024V16.6291C25.6406 16.0749 25.8451 15.9546 26.2578 15.9546C26.6533 15.9546 26.8578 16.0749 26.8578 16.6291V18.8552H28.847ZM16.6731 20.3418H13.8986V21.645H14.6839L14.6896 24.024C14.6896 24.5781 14.4833 24.6985 14.0877 24.6985C13.6769 24.6985 13.4705 24.5781 13.4705 24.024V16.6291C13.4705 16.0749 13.6769 15.9546 14.0877 15.9546C14.4833 15.9546 14.6896 16.0749 14.6896 16.6291V18.8552H16.6788V16.4915C16.6788 15.0679 15.3068 14.6514 14.0667 14.6514C12.8495 14.6514 11.4775 15.0679 11.4775 16.4915V24.1616C11.4775 25.5851 12.8495 26.0017 14.0667 26.0017C15.3068 26.0017 16.6788 25.5851 16.6788 24.1616L16.6731 20.3418Z" fill="#1C3A8E"/>
</g>
<circle cx="20" cy="20" r="19.5" stroke="black" stroke-opacity="0.05"/>
<defs>
<clipPath id="clip0_9_408627">
<rect width="30" height="24.4777" fill="white" transform="translate(5 8)"/>
</clipPath>
</defs>
</svg>
