<svg width="40" height="40" viewBox="0 0 40 40" fill="none" xmlns="http://www.w3.org/2000/svg">
<circle cx="20" cy="20" r="20" fill="#F6F8FA"/>
<g clip-path="url(#clip0_9_397788)">
<path d="M24.3646 13.8342C24.3646 14.3523 24.1508 14.8705 23.7766 15.2332C23.4558 15.544 23.1351 15.7513 22.7074 15.8549C22.4936 15.8549 22.2263 15.9067 22.0124 15.8549C21.5847 15.8031 21.2105 15.5959 20.8898 15.3368C20.6759 15.1295 20.4621 14.9223 20.3552 14.6632C20.1414 14.1969 20.0879 13.6788 20.1414 13.2124C20.1948 12.7979 20.3552 12.4352 20.6759 12.1244C20.8363 11.9689 20.9967 11.8653 21.2105 11.8653L20.8363 12.2798C20.8363 12.2798 20.8363 12.2798 20.8363 12.3316C21.1571 12.1762 21.4244 12.0725 21.7451 11.9689C22.0124 11.8653 22.2797 11.7617 22.547 11.9171C22.547 11.9171 22.547 11.9171 22.6005 11.9171C22.6539 11.9171 22.6005 11.9171 22.6539 11.9171H22.4401V11.8135H22.4936C22.4936 11.8135 22.7074 11.8135 22.8678 11.8135C22.9747 11.8135 23.1351 11.9171 23.2954 11.9689C23.7766 12.1762 24.0439 12.6425 24.2577 13.1088C24.3646 13.3161 24.3646 13.6269 24.3646 13.8342Z" fill="#BA2332"/>
<path d="M28.0003 24.5598C28.0003 27.9276 24.3651 30.0002 21.211 30.0002C20.516 30.0002 19.8745 29.9484 19.2865 29.7929C19.1261 29.2748 19.1795 28.7048 19.3934 28.2385C19.9814 28.394 20.6229 28.2385 21.2644 28.2385C23.6166 28.2385 26.1827 26.995 26.1827 24.4561C26.1827 19.6893 16.4531 20.2074 16.4531 14.3007C16.4531 11.6064 19.6072 10.5183 21.8525 10.5701C19.9814 10.5701 17.6292 11.71 17.6827 13.7307C17.7896 19.3266 28.0003 18.3421 28.0003 24.5598Z" fill="#BA2332"/>
<path d="M24.8459 10.829C23.6164 10.5181 22.4937 10.1036 21.1572 10.2073C15.9717 10.5699 12.0692 14.9741 12.4434 20.0518C12.4434 20.4145 12.4969 20.7772 12.6038 21.1399C12.7642 21.8653 12.978 22.5389 13.2453 23.1606C12.6572 23.1606 12.1226 23.5233 11.8553 24.0415C11.2673 22.7461 11 21.399 11 20.0518C11 19.6373 11 19.1192 11.1069 18.7047C11.7484 13.8342 16.1855 10 21.1572 10C22.4937 10 23.6698 10.2591 24.8459 10.829Z" fill="#20BEC3"/>
<path d="M19.2326 29.8441C15.9181 29.2223 13.1382 27.0462 11.8018 24.041C12.0691 23.5229 12.6036 23.212 13.1917 23.1602C14.3143 25.699 16.5596 27.6161 19.3395 28.2379C19.0722 28.756 19.0722 29.326 19.2326 29.8441Z" fill="#3050A3"/>
<path d="M13.1921 23.1603C12.7109 23.1603 12.1764 23.4194 11.8021 24.0411C11.4814 23.2639 11.2141 22.4349 11.0537 21.6059C11.4814 21.1914 12.016 21.1914 12.5506 21.1914C12.7109 21.9168 12.8713 22.5386 13.1921 23.1603Z" fill="#218DBE"/>
<path d="M22.0662 30C21.7989 30 21.4782 30 21.2109 30C20.5159 30 19.8744 29.9482 19.2329 29.7927C19.0725 29.2746 19.126 28.7047 19.3398 28.1865C20.0882 28.1865 20.5694 28.1865 21.2643 28.1865C21.4247 28.1865 21.5851 28.1865 21.7455 28.1865C21.6386 28.6528 21.6386 29.43 22.0662 29.9482V30Z" fill="#742F68"/>
</g>
<circle cx="20" cy="20" r="19.5" stroke="black" stroke-opacity="0.05"/>
<defs>
<clipPath id="clip0_9_397788">
<rect width="17" height="20" fill="white" transform="translate(11 10)"/>
</clipPath>
</defs>
</svg>
