<svg width="40" height="40" viewBox="0 0 40 40" fill="none" xmlns="http://www.w3.org/2000/svg">
<circle cx="20" cy="20" r="20" fill="#00467F"/>
<g clip-path="url(#clip0_9_411556)">
<path d="M25.341 11.8847C25.268 12.1431 25.1413 12.3831 24.9693 12.5892C24.7972 12.7953 24.5836 12.9628 24.3425 13.0808C24.1013 13.1987 23.838 13.2645 23.5697 13.2738C23.3014 13.2832 23.0342 13.2358 22.7854 13.1348C22.5366 13.0339 22.312 12.8816 22.126 12.688C21.9401 12.4943 21.7971 12.2636 21.7064 12.0109C21.6156 11.7583 21.5792 11.4893 21.5994 11.2216C21.6196 10.9539 21.6961 10.6935 21.8238 10.4573C21.2225 10.3433 20.6119 10.2859 19.9999 10.2861C14.6346 10.2861 10.2856 14.6351 10.2856 20.0004C10.2856 25.3657 14.6346 29.7147 19.9999 29.7147C25.3653 29.7147 29.7142 25.3657 29.7142 20.0004C29.7142 16.6083 27.9754 13.6224 25.341 11.8847ZM15.8046 20.8875C15.8046 20.1619 16.3358 19.4467 17.3376 18.9355C16.3971 18.3733 15.9066 17.4437 15.9066 16.2483C15.9066 14.1433 17.4803 12.6613 19.8202 12.6613C20.7807 12.6613 21.7412 12.9679 22.4771 13.6017C22.9683 14.0173 23.3389 14.5573 23.5499 15.1651C23.6932 15.5737 23.7339 16.0133 23.7339 16.4426C23.7442 18.4346 22.2828 19.7327 19.8815 19.7327C19.4523 19.7327 19.074 19.6914 18.7577 19.61C18.3084 19.7837 18.0935 20.0186 18.0935 20.2943C18.0935 20.8832 18.7887 20.9281 20.1129 21.0131C20.3296 21.0271 20.5621 21.0423 20.8111 21.0611C23.4685 21.2554 24.5924 21.7654 24.5924 23.7386C24.5924 25.7616 22.9166 26.9261 19.7492 26.9261C16.8574 26.9261 15.3753 26.0166 15.3753 24.3512C15.3753 23.3907 15.9479 22.8595 17.1634 22.4606C16.2441 22.0113 15.8046 21.6027 15.8046 20.8875ZM17.6952 24.0652C17.6952 24.7392 18.4408 25.2097 19.7079 25.2097C21.4249 25.2097 22.3854 24.6572 22.3854 23.9323C22.3854 23.3597 21.9361 23.1454 21.006 23.1047L18.7371 22.9821C18.0322 23.3087 17.6952 23.6257 17.6952 24.0652ZM19.8815 17.8827C20.8833 17.8827 21.5573 17.2288 21.5573 16.2276C21.5573 15.2258 20.873 14.5313 19.8208 14.5313C18.8798 14.5313 18.2058 15.2058 18.2058 16.2683C18.2058 17.2901 18.8397 17.8833 19.8815 17.8833V17.8827Z" fill="white"/>
<path d="M23.5051 12.6477C23.6762 12.6514 23.8464 12.6209 24.0057 12.558C24.1649 12.4951 24.31 12.401 24.4324 12.2812C24.5547 12.1615 24.652 12.0185 24.7183 11.8607C24.7847 11.7028 24.8189 11.5333 24.8189 11.3621C24.8189 11.1909 24.7847 11.0214 24.7183 10.8636C24.652 10.7057 24.5547 10.5627 24.4324 10.443C24.31 10.3232 24.1649 10.2291 24.0057 10.1662C23.8464 10.1033 23.6762 10.0728 23.5051 10.0765C23.1689 10.0838 22.849 10.2224 22.6139 10.4627C22.3787 10.7031 22.2471 11.0259 22.2471 11.3621C22.2471 11.6983 22.3787 12.0212 22.6139 12.2615C22.849 12.5018 23.1689 12.6404 23.5051 12.6477Z" fill="#24DE7A"/>
</g>
<circle cx="20" cy="20" r="19.5" stroke="black" stroke-opacity="0.05"/>
<defs>
<clipPath id="clip0_9_411556">
<rect width="20" height="20" fill="white" transform="translate(10 10)"/>
</clipPath>
</defs>
</svg>
