<svg width="40" height="40" viewBox="0 0 40 40" fill="none" xmlns="http://www.w3.org/2000/svg">
<circle cx="20" cy="20" r="20" fill="#A7BAC8"/>
<g clip-path="url(#clip0_9_405425)">
<path d="M34.9338 21.5429C35.0624 21.5429 35.1717 21.5879 35.2681 21.6908C35.3183 21.7377 35.3583 21.7944 35.3857 21.8575C35.4131 21.9205 35.4272 21.9885 35.4272 22.0572C35.4272 22.1259 35.4131 22.1939 35.3857 22.257C35.3583 22.32 35.3183 22.3767 35.2681 22.4236C35.2222 22.4708 35.1672 22.5083 35.1064 22.5337C35.0456 22.5591 34.9804 22.572 34.9145 22.5715C34.8487 22.572 34.7834 22.5591 34.7226 22.5337C34.6619 22.5083 34.6069 22.4708 34.5609 22.4236C34.4684 22.3243 34.4177 22.193 34.4195 22.0572C34.4195 21.9094 34.4709 21.7872 34.5674 21.6844C34.615 21.6359 34.6722 21.5977 34.7352 21.5723C34.7982 21.5468 34.8658 21.5347 34.9338 21.5365V21.5429ZM33.6352 21.0801C33.483 21.394 33.309 21.6969 33.1145 21.9865L32.9345 22.1729C32.714 22.3789 32.4362 22.5131 32.1377 22.5579C31.8393 22.6027 31.5343 22.5558 31.2631 22.4236C31.0638 22.3144 30.8902 22.1665 30.7424 21.9736C30.6009 21.7872 30.4852 21.5686 30.4081 21.3115C30.2232 20.6761 30.2457 19.9982 30.4724 19.3765C30.5945 19.0422 30.7745 18.7658 31.0059 18.5536C31.328 18.2577 31.7453 18.0866 32.1824 18.0715C32.7159 18.0715 33.1081 18.5215 33.3074 18.2001H33.5131V19.6786H33.3074C33.1659 19.1001 32.7288 18.3544 32.1309 18.3544C31.7838 18.3544 31.4881 18.5151 31.2759 18.8236C31.17 18.9884 31.0898 19.1683 31.0381 19.3572C30.913 19.8253 30.9175 20.3186 31.0509 20.7844C31.1152 21.0158 31.2052 21.2086 31.3274 21.3694C31.4431 21.5301 31.5845 21.6586 31.7388 21.7551C31.9059 21.8451 32.0924 21.8836 32.2852 21.8836C32.5359 21.8836 32.7481 21.8194 32.9281 21.6908C33.1145 21.5622 33.3138 21.3244 33.5131 20.9965L33.6417 21.0801H33.6352ZM25.1881 18.5086C25.4452 18.4315 25.6702 18.3672 25.8567 18.3029C26.0495 18.2386 26.2038 18.1615 26.4288 18.0715V18.8686C26.5895 18.7144 26.7631 18.5858 26.8788 18.4829C27.0074 18.3801 27.1167 18.3029 27.2195 18.2451C27.4043 18.1293 27.6186 18.069 27.8367 18.0715C28.1774 18.0715 28.4538 18.2001 28.6531 18.4572C28.8459 18.7144 29.0002 19.0744 29.0002 19.5372V21.7872C29.0002 22.2051 29.0709 22.3786 29.5209 22.4301V22.5715H27.7531V22.4365C27.8688 22.4236 27.9652 22.4044 28.0424 22.3722C28.3445 22.2629 28.3574 21.8708 28.3574 21.6008V19.5565C28.3574 18.9265 27.9267 18.6115 27.4638 18.6115C27.3361 18.6108 27.2096 18.6354 27.0915 18.6839C26.9734 18.7325 26.8662 18.804 26.7759 18.8944C26.6924 18.9715 26.5445 19.0615 26.4288 19.1708V21.9222C26.4288 22.0958 26.5252 22.2244 26.6088 22.2951C26.6988 22.3658 26.8659 22.4108 27.1102 22.4365V22.5715H25.2009V22.4365C25.3295 22.4236 25.4195 22.4044 25.4902 22.3851C25.5635 22.3611 25.6283 22.3165 25.6767 22.2565C25.7217 22.1922 25.7474 22.1279 25.7667 22.0379C25.7859 21.9479 25.7859 21.8322 25.7859 21.6972V19.2608C25.7859 19.0229 25.7667 18.8622 25.7217 18.7722C25.6702 18.6822 25.5738 18.6372 25.4452 18.6372C25.3424 18.6372 25.2524 18.6501 25.1881 18.6822V18.5086ZM23.0345 17.2036C23.0345 17.0236 23.0217 16.8822 23.0024 16.7729C22.9955 16.6786 22.9596 16.5888 22.8995 16.5158C22.8338 16.448 22.7483 16.403 22.6552 16.3872C22.5195 16.3603 22.382 16.3431 22.2438 16.3358V16.1429H24.6481V16.3358C24.4809 16.3422 24.3395 16.3615 24.2367 16.3872C24.1459 16.4043 24.0628 16.4492 23.9988 16.5158C23.9356 16.5906 23.8954 16.6822 23.8831 16.7794C23.8638 16.8886 23.8574 17.0301 23.8574 17.2036V21.5236C23.8574 21.7036 23.8638 21.8451 23.8831 21.9608C23.9088 22.0701 23.9474 22.1536 24.0052 22.2179C24.0631 22.2822 24.1402 22.3208 24.2431 22.3465C24.3459 22.3722 24.4809 22.3851 24.6481 22.3915V22.5715H22.2502V22.3915C22.4238 22.3915 22.5588 22.3722 22.6617 22.3529C22.7538 22.3319 22.8371 22.2825 22.8995 22.2115C22.9574 22.1472 22.9895 22.0701 23.0088 21.9544C23.0281 21.8515 23.0409 21.7101 23.0409 21.5236V17.2036H23.0345ZM16.1752 18.2451L17.4288 18.0715V18.8558C17.6217 18.5858 17.8788 18.3608 18.0717 18.2451C18.2774 18.1294 18.5024 18.0715 18.7531 18.0715C18.9588 18.0715 19.1517 18.1229 19.3317 18.2194C19.5117 18.3222 19.6659 18.4636 19.7945 18.6436C20.0714 19.0753 20.2186 19.5773 20.2188 20.0901C20.2188 20.4372 20.1674 20.7586 20.0709 21.0544C19.9745 21.3501 19.8459 21.6072 19.6788 21.8258C19.5117 22.0444 19.3188 22.2179 19.1002 22.3401C18.8009 22.506 18.454 22.565 18.1167 22.5072C17.9688 22.4756 17.8288 22.4144 17.7052 22.3272C17.6345 22.2629 17.5059 22.1986 17.4288 22.1215V23.6194C17.4288 24.1658 17.7695 24.3329 18.2645 24.3329V24.5001H16.1367V24.3394C16.5545 24.2879 16.7859 24.1465 16.7859 23.6836V19.2479C16.7859 18.8301 16.7217 18.3222 16.1752 18.3929V18.2451ZM17.4288 21.6072C17.4288 21.9608 18.1231 22.2308 18.3931 22.2308C18.5538 22.2308 18.7017 22.1858 18.8238 22.1022C18.9588 22.0186 19.0745 21.8965 19.1645 21.7486C19.2545 21.5944 19.3252 21.4079 19.3767 21.1894C19.4823 20.7043 19.4823 20.2022 19.3767 19.7172C19.3252 19.4922 19.2481 19.2994 19.1581 19.1386C19.0762 18.9922 18.9591 18.8685 18.8174 18.7786C18.6888 18.6886 18.5409 18.6501 18.3738 18.6501C18.2709 18.6501 18.1681 18.6629 18.0588 18.7015C17.8659 18.7722 17.4288 19.0229 17.4288 19.2672V21.6072ZM14.8574 21.4786C14.8574 21.6908 14.9217 21.8386 14.9602 21.9222C14.9988 21.9994 15.0695 22.0379 15.1724 22.0379C15.2945 22.0379 15.4295 21.9736 15.5709 21.8644V22.1022C15.4167 22.2822 15.2817 22.4044 15.1659 22.4686C15.0502 22.5329 14.9152 22.5715 14.7609 22.5715C14.5809 22.5715 14.4395 22.5201 14.3559 22.4108C14.2544 22.2463 14.1989 22.0576 14.1952 21.8644C13.9252 22.1151 13.6809 22.2951 13.4752 22.4044C13.2695 22.5136 13.0702 22.5715 12.8774 22.5715C12.5945 22.5715 12.3631 22.4751 12.1831 22.2886C12.0095 22.0958 11.9259 21.8515 11.9259 21.5558C11.9259 21.4015 11.9517 21.2536 12.0031 21.1058C12.0609 20.9451 12.1445 20.8229 12.2474 20.7265C12.412 20.5501 12.6082 20.4062 12.8259 20.3022C12.9609 20.2251 13.1345 20.1479 13.3402 20.0579C13.5524 19.9679 13.8674 19.8522 14.2145 19.6979V19.0872C14.2145 18.6629 13.9381 18.2965 13.4945 18.2965C13.3081 18.2965 13.1538 18.3415 13.0252 18.4379C12.9095 18.5279 12.8452 18.6308 12.8452 18.7594L12.8645 18.9522L12.8838 19.1451C12.8838 19.2608 12.8452 19.3572 12.7552 19.4344C12.684 19.507 12.587 19.5486 12.4852 19.5501C12.4338 19.5502 12.3828 19.54 12.3353 19.5202C12.2878 19.5003 12.2448 19.4711 12.2088 19.4344C12.1363 19.3531 12.0973 19.2475 12.0995 19.1386C12.0995 19.0165 12.1317 18.8944 12.1895 18.7658C12.269 18.62 12.3772 18.4919 12.5075 18.3891C12.6379 18.2864 12.7878 18.2111 12.9481 18.1679C13.1538 18.1036 13.3724 18.0715 13.6102 18.0715C13.8867 18.0715 14.1117 18.1229 14.2981 18.2194C14.8831 18.5151 14.8574 19.0422 14.8574 19.6079V21.4722V21.4786ZM14.2145 19.9358C13.9381 20.0386 13.6745 20.1415 13.4752 20.2444C13.2824 20.3344 13.1345 20.4372 13.0124 20.5401C12.8967 20.6429 12.8131 20.7522 12.7552 20.8679C12.7102 20.9836 12.6781 21.1122 12.6781 21.2536V21.2858C12.6781 21.3886 12.6974 21.4851 12.7295 21.5815C12.7822 21.7487 12.8973 21.8891 13.0509 21.9736C13.1281 22.0122 13.1988 22.0315 13.2824 22.0315C13.3724 22.0315 13.4752 22.0122 13.5974 21.9672C13.9188 21.8515 14.2145 21.6908 14.2145 21.3051V19.9358ZM11.1738 19.8522C11.0452 19.8651 10.9359 19.8844 10.8524 19.9101C10.7822 19.9299 10.7195 19.9702 10.6724 20.0258C10.6262 20.0879 10.5974 20.1611 10.5888 20.2379C10.5695 20.3215 10.5631 20.4308 10.5631 20.5722V21.9222C10.4731 21.9994 10.3445 22.0829 10.1774 22.1601C9.78888 22.3286 9.38065 22.4474 8.96237 22.5136C8.30171 22.6388 7.61902 22.5718 6.99523 22.3208C6.62361 22.1677 6.28841 21.938 6.0115 21.6467C5.73459 21.3554 5.52217 21.009 5.38809 20.6301C5.26556 20.2392 5.20695 19.8311 5.21452 19.4215C5.21452 18.9394 5.29166 18.5022 5.43952 18.1036C5.63657 17.5245 6.01215 17.0227 6.5123 16.6704C7.01244 16.3181 7.6114 16.1334 8.22309 16.1429C8.62809 16.1429 9.02666 16.2136 9.42523 16.3551C9.5988 16.4194 9.72737 16.4515 9.8238 16.4515C9.9138 16.4515 9.99737 16.4258 10.0681 16.3615C10.1381 16.3051 10.1896 16.2289 10.2159 16.1429H10.4024L10.4795 18.0715H10.2738C10.1393 17.6835 9.92714 17.3269 9.65023 17.0236C9.30309 16.6829 8.8788 16.5094 8.37737 16.5094C8.07382 16.5038 7.7732 16.5696 7.49966 16.7013C7.22613 16.8331 6.9873 17.0271 6.80237 17.2679C6.62237 17.5058 6.48094 17.8144 6.37166 18.2001C6.15248 18.9778 6.15248 19.8009 6.37166 20.5786C6.48094 20.9194 6.6288 21.2151 6.83452 21.4529C7.0338 21.6908 7.27809 21.8772 7.56094 22.0058C7.8438 22.1304 8.14866 22.1974 8.45771 22.203C8.76676 22.2085 9.07381 22.1524 9.36094 22.0379C9.4638 21.9929 9.5538 21.9351 9.61809 21.8708C9.67594 21.8001 9.71452 21.7229 9.71452 21.6458V20.6815C9.71452 20.5079 9.69523 20.3729 9.68237 20.2701C9.67347 20.1808 9.63519 20.097 9.57352 20.0319C9.51185 19.9667 9.4303 19.9239 9.34166 19.9101C9.2045 19.8777 9.0646 19.8583 8.9238 19.8522V19.6786H11.1738V19.8522Z" fill="white"/>
</g>
<circle cx="20" cy="20" r="19.5" stroke="black" stroke-opacity="0.05"/>
<defs>
<clipPath id="clip0_9_405425">
<rect width="31" height="9" fill="white" transform="translate(5 16)"/>
</clipPath>
</defs>
</svg>
