<svg width="40" height="40" viewBox="0 0 40 40" fill="none" xmlns="http://www.w3.org/2000/svg">
<circle cx="20" cy="20" r="20" fill="#6E93BE"/>
<g clip-path="url(#clip0_9_400010)">
<path d="M18.3836 19.2322L18.4786 19.9997H19.8324V19.7632L19.6757 19.4977V13.8926L18.1502 13.9981V14.1308L18.3186 14.3963V15.9534C18.2052 15.5909 18.0635 15.3953 17.6033 15.3953C16.6663 15.3953 15.9286 16.1916 15.9286 17.7147C15.9286 19.2549 16.6313 19.9997 17.6116 19.9997C18.1051 20.0031 18.2535 19.7819 18.3836 19.2322ZM17.8801 15.7084C18.3403 15.7084 18.3219 16.372 18.3219 17.7182C18.3219 19.117 18.3485 19.6849 17.8801 19.6849C17.4816 19.6849 17.2857 19.3127 17.2857 17.7369C17.2857 16.1866 17.4816 15.7084 17.8801 15.7084ZM21.3571 23.5518C21.3571 22.6567 20.9325 22.1972 20.2039 22.1972C19.7354 22.1972 19.4978 22.3911 19.3245 22.7809V20.6783L17.7931 20.8135V20.9463L17.9664 21.2117V26.4193L17.7931 26.6847V26.7854H19.4978V26.6847L19.3245 26.4193V23.4276C19.3245 22.9221 19.4236 22.6312 19.7437 22.6312C20.0121 22.6312 19.9998 22.8524 19.9998 23.2149V26.4193L19.8265 26.6847V26.7854H21.521V26.6847L21.3571 26.4193V23.5518ZM24.2881 23.9331L23.5329 23.4991C23.1077 23.2591 22.9427 23.1453 22.9427 22.8526C22.9427 22.5072 23.1511 22.3132 23.5146 22.3132C23.8613 22.3132 24.043 22.4901 24.2515 23.0126L24.4332 23.3926H24.75V22.1906C24.3332 22.1021 23.9897 22.0354 23.6946 22.0354C22.6626 22.0354 22.0457 22.5446 22.0457 23.3597C22.0457 23.8737 22.2841 24.3162 22.7693 24.5816L23.5329 24.9969C23.9664 25.2368 24.0714 25.4478 24.0714 25.8205C24.0714 26.2629 23.9014 26.5285 23.4846 26.5285C23.0427 26.5285 22.7993 26.2272 22.5125 25.3423L22.3909 24.9969H22.0357V26.634C22.6693 26.7497 23.0861 26.7854 23.3795 26.7854C24.5766 26.7854 25.0534 26.1472 25.0534 25.3509C25.0601 24.7127 24.79 24.2257 24.2881 23.9331ZM26.1071 16.5932C26.1071 15.6981 25.8838 15.2497 25.1885 15.2497C24.66 15.2497 24.2432 15.5296 24.0948 15.9822C23.9298 15.5126 23.5913 15.2497 23.0711 15.2497C22.5776 15.2497 22.1908 15.4683 22.0357 15.8665V15.3392L20.4933 15.5126V15.6453L20.6786 15.858V19.6207L20.4933 19.8862V19.9997H22.2208V19.8862L22.0357 19.6207V16.5374C22.0357 16.0422 22.1639 15.858 22.3776 15.858C22.5914 15.858 22.7143 16.0194 22.7143 16.3291V19.6224L22.5566 19.8879V19.9997H24.2639V19.8862L24.0714 19.6207V16.4877C24.0714 15.9924 24.2436 15.858 24.4099 15.858C24.5761 15.858 24.75 15.9856 24.75 16.2954V19.6224L24.5599 19.8862V19.998L26.2688 19.9997V19.8862L26.1071 19.6207V16.5932ZM7.32983 16.8583L7.7857 17.2651V19.6547C7.7857 19.6761 7.78739 19.716 7.66565 19.716C6.72033 19.716 6.42855 18.8396 6.42855 16.9541C6.42855 15.1042 6.92039 14.1921 7.67566 14.1921C8.10083 14.1921 8.19012 14.5018 8.4169 15.1842L8.66031 15.9283H9.14284V14.0168C8.55764 13.9096 8.01505 13.8926 7.77165 13.8926C5.85598 13.8926 5.07141 14.9357 5.07141 16.9728C5.07141 18.8668 5.79167 19.9997 7.699 19.9997C8.16753 19.9997 8.53525 19.9576 9.14209 19.842V16.6069H7.32983V16.8583ZM15.4286 19.8862L15.25 19.6207V13.8926L13.7368 13.9981V14.1308L13.8928 14.3963V19.619L13.7368 19.8845V19.9997H15.4286V19.8862ZM8.1775 23.2607L7.30053 22.757C6.84037 22.4916 6.60695 22.1734 6.60695 21.7649C6.60695 21.2952 6.91039 20.9856 7.42223 20.9856C7.89074 20.9856 8.13414 21.2595 8.36757 21.9947L8.601 22.714H9.14284V20.7983C8.56096 20.7183 8.07246 20.6783 7.76069 20.6783C6.37354 20.6783 5.53991 21.3208 5.53991 22.3657C5.53991 23.0566 5.90504 23.5143 6.57194 23.8768L7.43891 24.355C7.94245 24.629 8.17581 24.9829 8.17581 25.4713C8.17581 26.0738 7.80239 26.5247 7.28218 26.5247C6.78869 26.5247 6.50191 26.118 6.12011 24.8689L5.94671 24.3295H5.52991V26.6575C6.06843 26.7545 6.6403 26.7854 7.03043 26.7854C8.4526 26.7854 9.25955 26.1265 9.25955 24.9234C9.26118 24.1423 8.91443 23.6845 8.1775 23.2607ZM15.9837 26.3392C15.4551 26.3392 15.2467 25.8338 15.2467 24.4537C15.2467 22.7451 15.5235 22.2839 15.8803 22.2839C16.1054 22.2839 16.2354 22.4694 16.4438 23.1773L16.6172 23.744H17.0257V22.2396C16.6605 22.0899 16.2271 22.0354 15.907 22.0354C14.7015 22.0354 13.8928 22.8761 13.8928 24.4077C13.8928 25.895 14.5965 26.7854 15.7168 26.7854C16.4188 26.7854 16.7922 26.4345 17.0607 25.6568L16.8523 25.5411C16.6172 26.1265 16.3404 26.3392 15.9837 26.3392ZM11.6549 15.2497C10.6396 15.2497 9.82141 16.1214 9.82141 17.636C9.82141 19.1506 10.6413 19.9997 11.6549 19.9997C12.6787 19.9997 13.4994 19.1489 13.4994 17.6343C13.5011 16.1214 12.6787 15.2497 11.6549 15.2497ZM11.6549 19.7632C11.2649 19.7632 11.1757 19.3105 11.1757 17.6377C11.1757 15.9649 11.2649 15.5411 11.6549 15.5411C12.0534 15.5411 12.1423 15.9632 12.1423 17.636C12.1423 19.3088 12.0551 19.7632 11.6549 19.7632ZM13.2143 23.4007C13.2143 22.5328 12.5824 22.0354 11.5937 22.0354C11.1418 22.0354 10.3316 22.1601 9.82141 22.3201V23.7631H10.2288L10.5167 23.074C10.7418 22.4903 11.1869 22.3031 11.4653 22.3031C11.7871 22.3031 11.8571 22.5328 11.8571 23.074V23.7291L11.3869 23.9419C10.1899 24.4286 9.64539 25.0323 9.64539 25.7573C9.64539 26.5009 10.0872 26.7838 10.7642 26.7838C11.2493 26.7838 11.7171 26.5439 11.8571 26.1456V26.7838L13.296 26.7854V26.5439L13.2143 26.2597V23.4007ZM11.8571 25.5075C11.8571 25.9686 11.6198 26.201 11.3869 26.201C10.9542 26.201 10.898 25.9837 10.898 25.4713C10.898 24.726 11.0842 24.3026 11.7338 24.0814L11.8571 24.0116V25.5075ZM34.9286 16.6044C34.9286 15.7092 34.5029 15.2497 33.7743 15.2497C33.2891 15.2497 32.8806 15.4539 32.7339 15.8878L32.6989 15.3569H32.5956L31.3634 15.5067V15.6394L31.5368 15.8522V19.6032L31.3634 19.8687V19.9997H33.0678V19.867L32.8944 19.6015V16.4801C32.8944 15.9746 32.945 15.6833 33.2734 15.6833C33.5335 15.6833 33.5714 15.9049 33.5714 16.2674V19.6015L33.4087 19.867V19.9997H35.0643V19.867L34.9286 19.6015V16.6044ZM30.5178 16.6358C30.5178 15.7679 29.9051 15.2497 28.9081 15.2497C28.4663 15.2497 27.6524 15.3953 27.1406 15.5552V16.9983H27.5307L27.8075 16.2819C28.0326 15.6981 28.1977 15.5382 28.4761 15.5382C28.8061 15.5382 29.1607 15.7679 29.1607 16.3091V16.9558L28.3993 17.177C27.2023 17.6637 26.7857 18.1249 26.7857 18.8498C26.7857 19.5935 27.2557 19.9997 27.9309 19.9997C28.416 19.9997 29.1515 19.7926 29.2916 19.3944V19.9997H30.6187V19.779L30.5178 19.4965V16.6358ZM29.1607 18.7443C29.1607 19.2055 28.9132 19.4965 28.6181 19.4965C28.3313 19.4965 28.1428 19.2038 28.1428 18.6728C28.1428 17.9819 28.6488 17.468 29.1607 17.2468V18.7443Z" fill="white"/>
</g>
<circle cx="20" cy="20" r="19.5" stroke="black" stroke-opacity="0.05"/>
<defs>
<clipPath id="clip0_9_400010">
<rect width="31" height="14" fill="white" transform="translate(5 13)"/>
</clipPath>
</defs>
</svg>
