<svg width="40" height="40" viewBox="0 0 40 40" fill="none" xmlns="http://www.w3.org/2000/svg">
<circle cx="20" cy="20" r="20" fill="#ED1C24"/>
<g clip-path="url(#clip0_9_396410)">
<path d="M14.5353 20.8073C14.0314 20.8194 13.0539 20.8801 13.0539 21.5966C13.0539 21.973 13.3089 22.228 13.7825 22.228C14.1893 22.228 14.3836 22.0762 14.5353 21.9426V20.8073ZM14.7903 23.0355L14.6264 22.6408C14.465 22.8024 14.2726 22.9297 14.0608 23.0152C13.8491 23.1008 13.6223 23.1428 13.3939 23.1387C12.5621 23.1387 11.9125 22.568 11.9125 21.6816C11.9125 20.7526 12.6471 20.0787 13.7946 20.0423L14.5353 19.9998C14.5353 19.3926 14.1711 19.1437 13.6853 19.0891C13.3959 19.0733 13.1063 19.1175 12.8346 19.2188C12.563 19.3202 12.3152 19.4765 12.1068 19.678V18.6033C12.6561 18.2427 13.3016 18.0565 13.9586 18.0691C15.0757 18.0691 15.7496 18.8705 15.7496 20.0605V21.8394C15.7496 22.4951 15.7678 22.8291 15.8346 23.0355H14.7903ZM26.405 18.998C25.8282 18.998 25.4761 19.5323 25.4761 19.9998H27.3096C27.3096 19.5566 27.0121 18.998 26.3989 18.998H26.405ZM25.5004 20.9651C25.5186 21.6937 26.1075 22.2158 26.8361 22.2158C27.2793 22.2158 27.8439 21.973 28.2568 21.7483V22.6773C27.7286 23.0658 27.1943 23.2176 26.6357 23.2176C24.9903 23.2176 24.2496 21.9608 24.2496 20.6373C24.2496 19.2287 25.0875 18.0569 26.4353 18.0569C27.7103 18.0569 28.5421 19.0648 28.5421 20.6069V20.9712H25.5064L25.5004 20.9651ZM19.9996 18.1783C19.35 17.978 18.6821 18.2148 18.1782 18.6641V18.1783H16.9639V23.0355H18.1782V19.6962C18.6336 19.1862 19.4289 19.0101 19.9996 19.1862V18.1783ZM23.6425 18.1783C22.9928 17.978 22.325 18.2148 21.8211 18.6641V18.1783H20.6068V23.0355H21.8211V19.6962C22.2764 19.1862 23.0718 19.0101 23.6425 19.1862V18.1783ZM34.5711 19.1194V18.1783H33.9639V16.9641H32.7496V18.1783H30.9282V16.9641L29.7139 16.9458V18.1783H29.1068V19.1194H29.7139V21.9123C29.7139 22.7926 30.4425 23.2662 31.5353 23.2662V22.2766C31.0618 22.2766 30.9282 22.0337 30.9282 21.6876V19.1194H32.7496V21.9123C32.7496 22.7926 33.4782 23.2662 34.5711 23.2662V22.2766C34.0975 22.2766 33.9639 22.0337 33.9639 21.6876V19.1194H34.5711ZM10.8986 19.3926H8.46392L9.67821 20.3398V21.9912C9.43514 22.0803 9.17817 22.1255 8.91928 22.1248C5.87749 22.1248 6.04749 17.3587 9.07106 17.3587C9.73285 17.3587 10.4068 17.4983 10.8925 17.7473V16.6908C10.2703 16.4712 9.61551 16.3583 8.95571 16.3569C8.48618 16.3433 8.01886 16.4262 7.58271 16.6006C7.14655 16.775 6.75086 17.0371 6.42014 17.3706C6.08942 17.7042 5.83074 18.1021 5.66011 18.5397C5.48948 18.9774 5.41055 19.4454 5.42821 19.9148C5.41164 20.3377 5.48336 20.7595 5.63878 21.1532C5.79421 21.5469 6.02993 21.9039 6.33094 22.2015C6.63195 22.4991 6.99164 22.7307 7.3871 22.8816C7.78256 23.0325 8.20512 23.0994 8.62785 23.078C9.51428 23.078 10.3339 22.8716 10.8925 22.6044V22.5983L10.8986 19.3926Z" fill="white"/>
</g>
<circle cx="20" cy="20" r="19.5" stroke="black" stroke-opacity="0.05"/>
<defs>
<clipPath id="clip0_9_396410">
<rect width="30" height="8" fill="white" transform="translate(5 16)"/>
</clipPath>
</defs>
</svg>
