<svg width="40" height="40" viewBox="0 0 40 40" fill="none" xmlns="http://www.w3.org/2000/svg">
<circle cx="20" cy="20" r="20" fill="#F6F8FA"/>
<g clip-path="url(#clip0_9_397738)">
<path d="M19.9866 20.39C20.5124 22.0129 20.7061 23.6634 20.5677 25.3689C20.291 25.2864 20.0143 25.1764 19.7375 25.0939C18.7136 24.7362 17.6897 24.7362 16.8596 25.5065C16.8596 25.5065 16.8319 25.534 16.8042 25.5615C16.8042 25.589 16.8042 25.589 16.8319 25.5615C18.0772 24.6262 19.2948 25.2864 20.5677 25.644C20.5401 25.754 20.5124 25.8366 20.5124 25.9466C19.4055 25.5615 18.1048 25.0663 17.1086 26.1117V26.1392C18.2432 25.3139 19.3225 25.8366 20.457 26.2217C20.4294 26.3042 20.4017 26.3867 20.4294 26.4968C19.4331 26.1392 18.4369 25.8366 17.5514 26.6343V26.6618C18.5199 26.0841 19.4055 26.3592 20.374 26.7443C20.374 26.7718 20.3464 26.7994 20.3187 26.8269C20.208 27.2945 20.0973 27.7621 19.9589 28.2298C19.5715 28.0922 19.1841 27.9272 18.8243 27.7071C18.2155 27.377 17.6621 26.9094 17.1916 26.3867C15.6973 24.6262 16.5828 22.6181 17.8004 21.1052C17.8004 21.1052 17.8004 21.1052 17.8004 21.0777C17.8004 21.0502 17.8004 21.0777 17.7728 21.0777C16.3614 22.068 15.8633 23.7184 15.808 25.3964C15.808 25.4239 15.808 25.4239 15.7803 25.3964C13.8155 23.3883 12.8747 20.5 14.9225 18.1343V18.1068C14.1476 18.767 13.5941 19.6748 13.3451 20.665C12.4042 19.0146 11.7954 17.199 11.574 15.301C11.574 16.4563 11.7401 17.5566 12.1275 18.6295C12.1275 18.6845 12.1275 18.6845 12.1275 18.6295C11.7677 18.2443 11.2696 17.9968 10.7438 17.9142C10.6885 17.9142 10.6885 17.9142 10.7438 17.9142C11.7124 18.5194 12.4319 19.1246 12.9023 20.2249C12.9853 20.4175 13.096 20.7751 13.2344 21.2977C13.4281 21.9579 13.6218 22.6181 13.8986 23.2783C13.3728 23.1958 12.847 23.1683 12.3212 23.1683C11.9061 23.1683 11.491 23.2508 11.1313 23.4159C11.0482 23.4434 11.0759 23.4709 11.1313 23.4434C12.0721 23.3333 13.1237 23.3333 13.9816 23.746C13.9816 23.746 14.0092 23.746 14.0369 23.801C15.1162 26.0841 16.9426 27.7621 19.1011 28.945C19.1564 28.945 19.1287 28.9725 19.1011 28.9725C18.7967 28.9725 18.3816 28.89 18.1602 28.8625C16.1124 28.6699 14.1476 27.9272 12.4872 26.6893C7.61679 23.2783 8.53 16.4288 11.1313 12C14.9501 13.568 18.4923 16.2638 19.9313 20.39H19.9866Z" fill="#43914D"/>
<path d="M20.4568 26.5243C20.4568 26.5243 20.4568 26.3317 20.4844 26.2492C21.4253 26.4968 22.3662 26.4417 23.0857 25.7816C23.0857 25.7816 23.0857 25.7816 23.0857 25.754C23.0857 25.754 23.0857 25.754 23.058 25.754C22.2832 26.2767 21.37 26.1942 20.5121 25.9741C20.5121 25.8641 20.5121 25.7816 20.5675 25.6715C21.5083 25.9191 22.6429 25.8641 23.3624 25.0939C23.3624 25.0939 23.3624 25.0388 23.3348 25.0388C22.5599 25.644 21.4807 25.6165 20.5675 25.3414C20.7058 23.6359 20.5121 21.9854 19.9863 20.3625C20.1247 20.0324 20.2631 19.7023 20.4014 19.3722C22.0065 15.8236 25.3272 13.4304 28.7863 12C28.7863 12 28.814 12 28.8417 12C29.9209 13.8155 30.6127 15.8236 30.8895 17.9142C31.3599 21.1877 30.3914 24.6262 27.7071 26.6618C25.687 28.1748 23.4178 28.835 20.9549 29C20.9272 29 20.9272 29 20.9549 29L21.7297 28.5049C23.5008 27.4045 25.1335 25.8091 25.9914 23.8835C25.9914 23.8285 26.0744 23.7735 26.1851 23.7184C27.0706 23.4159 28.0115 23.3333 28.9524 23.4984V23.4434C28.1222 23.0583 27.0429 23.1683 26.1851 23.3058C26.1851 23.3058 26.1574 23.3058 26.1851 23.2783C26.3234 22.9207 26.4895 22.5631 26.6002 22.2055C26.7939 21.5178 26.9876 20.7201 27.292 20.1149C27.7348 19.1796 28.4819 18.4094 29.3951 17.9417C28.8417 18.0243 28.3712 18.2718 27.9838 18.6845C27.9561 18.6845 27.9561 18.712 27.9838 18.6845C28.3712 17.6117 28.5649 16.4838 28.5373 15.356C28.2882 17.2265 27.6794 19.0421 26.7385 20.6926C26.3788 19.6748 26.019 18.877 25.1888 18.1618C25.1888 18.1618 25.1888 18.1618 25.1612 18.1618C25.1612 18.1618 25.1612 18.1618 25.1612 18.1893L25.4656 18.6019C27.126 20.8851 26.0744 23.6359 24.2756 25.4515C24.2203 23.801 23.6945 22.123 22.2832 21.1052C22.2832 21.1052 22.2555 21.1052 22.2278 21.1052C22.2278 21.1052 22.2278 21.1327 22.2278 21.1602C23.4731 22.6731 24.3587 24.7087 22.8643 26.4693C22.4492 26.9644 21.1209 26.7168 20.5951 26.5518L20.4568 26.5243Z" fill="#98C455"/>
<path d="M20.4014 26.7715C21.0379 26.9915 21.7297 26.9915 22.3662 26.7715C21.6744 27.4317 20.8719 27.9268 19.9863 28.2569C20.1247 27.7893 20.2354 27.3216 20.3461 26.854C20.3461 26.799 20.3737 26.799 20.4014 26.7715Z" fill="#98C455"/>
</g>
<circle cx="20" cy="20" r="19.5" stroke="black" stroke-opacity="0.05"/>
<defs>
<clipPath id="clip0_9_397738">
<rect width="22" height="17" fill="white" transform="translate(9 12)"/>
</clipPath>
</defs>
</svg>
