<svg width="40" height="40" viewBox="0 0 40 40" fill="none" xmlns="http://www.w3.org/2000/svg">
<circle cx="20" cy="20" r="20" fill="#1E1E23"/>
<g clip-path="url(#clip0_9_412054)">
<path d="M10.8258 22.0361L10.5001 24.0718H35.958L36.2858 22.0361H10.8258ZM5.75889 22.0361H5.309L4.98464 24.0718H5.43453L5.75889 22.0361ZM7.21239 22.0361H6.57793L6.25425 24.0718H6.88736L7.21239 22.0361ZM4.30471 22.0361H4.03871L3.71436 24.0718H3.98103L4.30471 22.0361ZM10.1357 22.0361H9.13614L8.81178 24.0718H9.812L10.1357 22.0361ZM8.68218 22.0361H7.86518L7.5415 24.0718H8.35782L8.68218 22.0361Z" fill="#ED1B2D"/>
<path d="M29.019 16.6071L28.865 17.625H29.1975L28.7815 20.3019H28.4443L28.2814 21.3571H31.8371L32.0929 19.7041H30.9482L30.86 20.3013H29.9724L30.1047 19.4578H31.0819L31.2569 18.3192H30.2778L30.3829 17.625H31.2189L31.1457 17.9643H32.2585L32.4865 16.6071M22.5644 16.6071L22.4118 17.625H22.7436L22.5346 18.9753L21.3708 16.6071H19.8644L19.7131 17.625H20.0463L19.6317 20.3019H19.2992L19.139 21.3571H21.0214L21.1829 20.3019H20.849L21.0913 18.7073L22.3649 21.3571H23.3699L23.9453 17.625H24.2799L24.4332 16.6071M13.8835 16.6071L13.7308 17.625H14.0653L12.7659 20.3019H12.4361L12.2712 21.3571H14.1515L14.3171 20.3019H13.9798L14.1468 20H15.3112L15.3587 20.3019H15.0262L14.8633 21.3571L16.7973 21.3564L16.9601 20.3019H16.6249L16.0318 16.6071H13.8835ZM15.1069 17.8014L15.2006 18.9143H14.6503M11.0599 18.5003C10.8435 18.7107 10.5062 18.6286 10.2117 18.6428L10.361 17.6847C10.6949 17.6928 11.1536 17.5856 11.2771 17.9867C11.3063 18.2147 11.2411 18.3517 11.0599 18.5003ZM11.347 19.4551C11.5695 19.3994 11.7623 19.2576 11.9441 19.0907C12.354 18.6964 12.582 18.1224 12.4178 17.53C12.2603 16.9749 11.7039 16.6444 11.1889 16.6071H8.95637L8.80505 17.625H9.13755L8.7243 20.3019H8.3884L8.22623 21.3571H10.0475L10.2117 20.3019H9.95862L10.0543 19.6709L10.9493 21.3571H12.0697L12.2339 20.3019H11.8152M18.9348 21.3551L19.0956 20.3006H18.7624L19.1777 17.6236H19.5102L19.6608 16.6071H17.7289L17.5749 17.6236H17.9074L17.4962 20.3006H17.161L17.0008 21.3571M34.8744 18.5003C34.6573 18.7107 34.3207 18.6293 34.0262 18.6428L34.1755 17.6833C34.5093 17.6922 34.968 17.5849 35.0915 17.986C35.1207 18.214 35.0556 18.3517 34.8744 18.5003ZM35.1614 19.4544C35.3847 19.3981 35.5767 19.2569 35.7586 19.09C36.1684 18.6951 36.3964 18.121 36.2322 17.5293C36.0741 16.9742 35.519 16.6444 35.0033 16.6071H32.7708L32.6195 17.625H32.952L32.5388 20.3013H32.2029L32.0414 21.3571H33.862L34.0262 20.3019H33.7731L33.8694 19.6709L34.7638 21.3571H35.8841L36.0483 20.3019H35.6297M7.60805 16.6071H8.53565L8.28933 18.2255H7.23415C7.1758 17.9663 6.92405 17.7227 6.67772 17.6664C6.456 17.6144 6.22389 17.6289 6.01032 17.7079C5.79675 17.7869 5.61115 17.9271 5.47665 18.1108C5.15976 18.5743 5.0193 19.354 5.31787 19.8609C5.52348 20.2002 5.9184 20.3257 6.28823 20.2646C6.57526 20.209 6.86501 19.9409 6.98783 19.6566L5.81255 19.6553L5.95912 18.6428H8.4359L8.02537 21.3585H7.0713L7.12965 21.0572C7.01701 21.2146 6.71437 21.4827 5.9693 21.4827C5.02744 21.4827 3.99805 20.6433 3.99805 19.1626C3.99805 17.9439 4.8734 16.4646 6.42598 16.4707C6.82158 16.4721 7.26537 16.5766 7.5524 16.865" fill="white"/>
<path d="M27.6618 16.6071H28.5901L28.3438 18.2255H27.2879C27.2296 17.9663 26.9771 17.7227 26.7315 17.6664C26.5098 17.6144 26.2777 17.6289 26.0641 17.7079C25.8505 17.7869 25.6649 17.9271 25.5304 18.1108C25.2135 18.5743 25.0724 19.354 25.371 19.8609C25.5766 20.2002 25.9722 20.3257 26.3413 20.2646C26.629 20.209 26.9181 19.9409 27.0416 19.6566L25.8656 19.6553L26.0129 18.6428H28.4897L28.0791 21.3585H27.1251L27.1834 21.0572C27.0715 21.2146 26.7695 21.4827 26.0231 21.4827C25.0819 21.4827 24.0525 20.6433 24.0525 19.1626C24.0525 17.9439 24.9278 16.4646 26.4804 16.4707C26.876 16.4721 27.3198 16.5766 27.6068 16.865" fill="white"/>
</g>
<circle cx="20" cy="20" r="19.5" stroke="black" stroke-opacity="0.05"/>
<defs>
<clipPath id="clip0_9_412054">
<rect width="34" height="9" fill="white" transform="translate(3 16)"/>
</clipPath>
</defs>
</svg>
