<svg width="40" height="40" viewBox="0 0 40 40" fill="none" xmlns="http://www.w3.org/2000/svg">
<circle cx="20" cy="20" r="20" fill="#F6F8FA"/>
<path fill-rule="evenodd" clip-rule="evenodd" d="M33.1786 22.3156H32.425V16.7369H30.6026V16.118H35V16.7369H33.1786V22.3156ZM26.8699 21.4538C28.6661 21.9758 30.3517 22.7339 32.0536 23.733V23.9019C29.4035 22.7043 26.4235 21.8168 22.9215 21.5175L23.9877 24.2091H23.162L22.1096 21.4592C21.0765 21.3995 20.041 21.3909 19.0071 21.4335L17.9443 24.2091H17.1185L18.2001 21.478C14.4852 21.7318 11.3215 22.6465 8.54251 23.9009V23.7315C10.397 22.6554 12.2317 21.8528 14.2111 21.3278V19.6759L11.9813 16.118H12.8095L14.5796 19.0743L16.3491 16.118H17.1763L14.947 19.6759V21.1471C16.1263 20.8834 17.3248 20.7145 18.531 20.6419L20.3687 16H20.7376L22.5896 20.6789C23.8327 20.7826 24.9982 20.9723 26.1158 21.2503V16.7364H24.2934V16.1185H28.6913V16.7373H26.8699V21.4538ZM20.5534 17.3932L19.3241 20.6033C20.146 20.5757 20.9687 20.5829 21.79 20.6251L20.5534 17.3932ZM9.00527 19.258H5.75414V22.3156H5V16.1175H5.75414V18.6397H9.00527V16.118H9.75891V22.3161L9.00527 22.3166V19.258Z" fill="#151F6D"/>
<circle cx="20" cy="20" r="19.5" stroke="black" stroke-opacity="0.05"/>
</svg>
