<svg width="40" height="40" viewBox="0 0 40 40" fill="none" xmlns="http://www.w3.org/2000/svg">
<circle cx="20" cy="20" r="20" fill="#F6F8FA"/>
<g clip-path="url(#clip0_9_391789)">
<path d="M19.8072 10H20.2899L20.6392 10.0919L20.9517 10.2206L21.2263 10.3861L21.4642 10.5895L21.694 10.8733L21.8733 11.2088L21.9951 11.5995L22.0364 11.9959L22.0249 12.2177L21.9893 12.4372L21.9307 12.6497L21.8491 12.8531L21.7457 13.0473L21.6216 13.2289L21.4757 13.3966L21.3114 13.5483L21.0425 13.7333L20.7357 13.8746L20.4404 13.9585L20.1474 13.9976L19.8498 13.9919L19.5625 13.9436L19.3177 13.8643L19.0856 13.754L18.8708 13.615L18.6731 13.4472L18.4973 13.2542L18.3456 13.0358L18.2238 12.806L18.1285 12.5567L18.0469 12.1637L18.0492 11.7592L18.1135 11.4432L18.2296 11.1456L18.3996 10.8606L18.6157 10.6056L18.8696 10.3895L19.1592 10.2126L19.4706 10.0839L19.8072 10Z" fill="#39B54A"/>
<path d="M23.3244 17.2107L23.9277 17.236L24.516 17.3302L25.0009 17.4646L25.4754 17.6485L25.765 17.8048L26.0086 17.9944L26.212 18.2219L26.3671 18.4747L26.4418 18.6551L26.4947 18.8435L26.5245 19.0377L26.5326 19.2388L26.4786 19.649L26.3326 20.0638L26.1132 20.4648L25.8282 20.8624L25.4915 21.2405L25.0974 21.6047L24.6527 21.9494L24.1655 22.2689L23.6427 22.5561L23.098 22.8032H23.0636L23.0394 22.7814L23.0233 22.7503V22.7423L23.0279 22.7354L23.6703 22.2781L24.239 21.769L24.4849 21.5047L24.6964 21.2439L24.8791 20.9796L25.0365 20.7061L25.2043 20.2856L25.2514 20.0765L25.2744 19.8685L25.2709 19.6708L25.2433 19.4789L25.1905 19.2939L25.1112 19.1193L24.9836 18.9285L24.8182 18.755L24.6251 18.6103L24.3953 18.4862L24.1529 18.3862L23.6461 18.2357L23.1118 18.1518L22.5407 18.1357L21.9386 18.1862L21.3124 18.3L20.6402 18.4781L19.8933 18.7252L18.8982 19.1009L18.8626 19.1147L18.6787 19.1733L18.6006 19.1675L18.6293 19.0952L18.7661 18.9573L19.1901 18.5252L19.575 18.0277L19.9347 17.4497L20.2713 16.7855L20.5115 16.2926L20.7574 15.841L21.0079 15.4319L21.263 15.0631L21.6881 14.5345L22.1523 14.0393L22.6614 13.5728L23.2037 13.1453L23.776 12.7604L24.3746 12.4191L24.9974 12.1238L25.6386 11.8767L26.2821 11.6848L26.9371 11.5435L27.5886 11.4562L28.2458 11.4229L28.8847 11.4435L29.5224 11.5182L30.1418 11.6458L30.7531 11.8285L31.3678 12.0732L31.9688 12.38L31.9975 12.4087L31.9998 12.449L31.9941 12.4639L31.97 12.4811L31.9355 12.488L31.9148 12.4857L31.2104 12.3593L30.5003 12.3214L30.0372 12.3444L29.5833 12.4053L29.1226 12.5053L28.6721 12.6386L28.2102 12.8155L27.7598 13.0246L27.3116 13.2694L26.8566 13.5567L26.405 13.8796L25.95 14.2438L25.5042 14.6391L25.0595 15.0723L24.6159 15.5422L24.177 16.0455L23.7369 16.5902L23.3026 17.167L23.3152 17.2095H23.3244V17.2107Z" fill="#39B54A"/>
<path d="M10 19.5614V18.9317L10.0758 18.5341L10.1816 18.1492L10.3229 17.7654L10.4918 17.3966L10.6963 17.03L10.9273 16.6807L11.1916 16.3406L11.48 16.0188L11.796 15.7143L12.1327 15.4305L12.4981 15.1651L12.8796 14.9238L13.276 14.71L13.6851 14.5228L14.1033 14.3653L14.5296 14.2366L14.8939 14.1573L15.2455 14.1125L15.5845 14.1045L15.9085 14.1321L16.2095 14.193L16.4911 14.2883L16.7531 14.4193L16.9932 14.5837L17.1598 14.733L17.3115 14.9031L17.4482 15.0927L17.5677 15.303L17.7481 15.766L17.8585 16.3061L17.8998 16.7807L17.9044 17.2587L17.8412 17.9493L17.6976 18.6582L17.4666 19.4212L17.1081 20.383L15.1271 25.3527L13.1174 30.3086L13.0887 30.3408L13.0462 30.3316L13.0255 30.2833L14.3975 23.5912L14.9444 20.761L15.4006 18.2767L15.442 17.9665L15.4546 17.6586L15.4397 17.3747L15.3972 17.1196L15.3259 16.8864L15.2328 16.691L15.1133 16.5244L14.9617 16.3831L14.7031 16.2429L14.5158 16.1889L14.3228 16.159L14.1125 16.1544L13.8999 16.1717L13.4311 16.2808L12.9565 16.4785L12.5279 16.7244L12.1177 17.0162L11.7477 17.3426L11.4306 17.6907L11.1663 18.0596L10.9629 18.4342L10.8135 18.8317L10.7274 19.227L10.7101 19.489L10.7354 19.7292L10.802 19.9567L10.9078 20.1578L11.1146 20.391L11.3823 20.568L11.7018 20.684L12.066 20.7357H12.3395L12.6199 20.7116L13.23 20.5921L13.8942 20.3749L14.5687 20.0773L14.6032 20.0911V20.0957L14.61 20.1463L14.5928 20.1876L14.2355 20.4393L13.8264 20.6645L13.3794 20.8552L12.9106 21.0046L12.4544 21.0989L12.0281 21.1402L11.6225 21.1264L11.2663 21.0598L11.0227 20.9759L10.8043 20.8679L10.6113 20.7369L10.4447 20.5818L10.2827 20.3738L10.154 20.1348L10.0609 19.8636L10 19.5614Z" fill="#0081C9"/>
<path d="M14.4343 32.233L14.2998 32.4548L14.2722 32.4835L14.2286 32.5008H14.2263L14.1953 32.4939L14.1826 32.4801V32.4617L16.0602 27.2702L18.0481 22.0018L18.2652 21.5341L18.5318 21.1285L18.9076 20.6861L19.3224 20.2678L19.7648 19.8863L20.2359 19.5416L20.7116 19.2497L21.2069 19.0015L21.7101 18.8051L22.2008 18.666L22.2548 18.6706L22.241 18.7235L21.516 19.9357L20.5484 21.6237L19.8544 22.8383L14.4343 32.233Z" fill="#39B54A"/>
</g>
<circle cx="20" cy="20" r="19.5" stroke="black" stroke-opacity="0.05"/>
<defs>
<clipPath id="clip0_9_391789">
<rect width="22" height="22.501" fill="white" transform="translate(10 10)"/>
</clipPath>
</defs>
</svg>
