<svg width="40" height="40" viewBox="0 0 40 40" fill="none" xmlns="http://www.w3.org/2000/svg">
<circle cx="20" cy="20" r="20" fill="#E05929"/>
<path d="M18.6428 9.14258C16.9769 9.14258 16.6071 10.5303 16.6071 12.1961V14.9104C16.6071 15.743 15.706 16.6069 14.8727 16.6069H12.1584C10.4932 16.6069 9.14282 16.9767 9.14282 18.6426H15.7779C17.7763 18.6426 18.6428 17.776 18.6428 15.7776V9.14258ZM9.14282 21.3569C9.14282 23.0228 10.4552 23.3926 12.1211 23.3926H14.8354C15.668 23.3926 16.6071 24.2937 16.6071 25.127V27.8413C16.6071 29.5065 16.9769 30.8569 18.6428 30.8569V24.2218C18.6428 22.2234 17.7763 21.3569 15.7779 21.3569H9.14282ZM30.8571 18.6426C30.8571 16.9767 29.4694 16.6069 27.8035 16.6069H25.0893C24.2566 16.6069 23.3928 15.743 23.3928 14.9104V12.1961C23.3928 10.5303 23.023 9.14258 21.3571 9.14258V15.7776C21.3571 17.776 22.2236 18.6426 24.222 18.6426H30.8571ZM21.3571 30.8569C23.023 30.8569 23.3928 29.5065 23.3928 27.8413V25.127C23.3928 24.2937 24.2566 23.3926 25.0893 23.3926H27.8035C29.4694 23.3926 30.8571 23.0228 30.8571 21.3569H24.222C22.2236 21.3569 21.3571 22.2234 21.3571 24.2218V30.8569ZM18.2615 20.054C18.2533 20.0475 18.2467 20.0393 18.2421 20.0299C18.2376 20.0205 18.2352 20.0102 18.2352 19.9997C18.2352 19.9893 18.2376 19.979 18.2421 19.9696C18.2467 19.9602 18.2533 19.9519 18.2615 19.9454C18.5193 19.7439 19.4164 19.0185 19.9423 18.2741C19.9488 18.2649 19.9574 18.2573 19.9675 18.2521C19.9775 18.2469 19.9887 18.2442 20 18.2442C20.0113 18.2442 20.0224 18.2469 20.0325 18.2521C20.0425 18.2573 20.0511 18.2649 20.0576 18.2741C20.5835 19.0185 21.4806 19.7439 21.7385 19.9448C21.7469 19.9512 21.7537 19.9595 21.7585 19.9691C21.7632 19.9786 21.7656 19.9891 21.7656 19.9997C21.7656 20.0104 21.7632 20.0208 21.7585 20.0304C21.7537 20.0399 21.7469 20.0482 21.7385 20.0547C21.4806 20.2555 20.5835 20.9809 20.0576 21.7253C20.0511 21.7346 20.0425 21.7421 20.0325 21.7473C20.0224 21.7525 20.0113 21.7552 20 21.7552C19.9887 21.7552 19.9775 21.7525 19.9675 21.7473C19.9574 21.7421 19.9488 21.7346 19.9423 21.7253C19.4164 20.9809 18.5193 20.2549 18.2615 20.054Z" fill="white"/>
<circle cx="20" cy="20" r="19.5" stroke="black" stroke-opacity="0.05"/>
</svg>
