<svg width="40" height="40" viewBox="0 0 40 40" fill="none" xmlns="http://www.w3.org/2000/svg">
<circle cx="20" cy="20" r="20" fill="#F6F8FA"/>
<g clip-path="url(#clip0_9_395465)">
<path d="M29.7628 14.6851C29.7628 14.4351 29.5601 14.2324 29.3101 14.2324C29.0601 14.2324 28.8574 14.4351 28.8574 14.6851V17.2619C28.8574 17.5119 29.0601 17.7146 29.3101 17.7146C29.5601 17.7146 29.7628 17.5119 29.7628 17.2619V14.6851Z" fill="#97036D"/>
<path d="M30.9386 16.0777C30.9386 15.8277 30.7359 15.625 30.4859 15.625C30.2359 15.625 30.0332 15.8277 30.0332 16.0777V17.2616C30.0332 17.5116 30.2359 17.7143 30.4859 17.7143C30.7359 17.7143 30.9386 17.5116 30.9386 17.2616V16.0777Z" fill="#97036D"/>
<path d="M32.1153 16.0777C32.1153 15.8277 31.9126 15.625 31.6626 15.625C31.4126 15.625 31.21 15.8277 31.21 16.0777V17.2616C31.21 17.5116 31.4126 17.7143 31.6626 17.7143C31.9126 17.7143 32.1153 17.5116 32.1153 17.2616V16.0777Z" fill="#CE0171"/>
<path d="M34.4288 16.0777C34.4288 15.8277 34.2261 15.625 33.9761 15.625C33.7261 15.625 33.5234 15.8277 33.5234 16.0777V17.2616C33.5234 17.5116 33.7261 17.7143 33.9761 17.7143C34.2261 17.7143 34.4288 17.5116 34.4288 17.2616V16.0777Z" fill="#CE0171"/>
<path d="M35.585 16.0777C35.585 15.8277 35.3824 15.625 35.1324 15.625C34.8824 15.625 34.6797 15.8277 34.6797 16.0777V18.6545C34.6797 18.9045 34.8824 19.1071 35.1324 19.1071C35.3824 19.1071 35.585 18.9045 35.585 18.6545V16.0777Z" fill="#EF0278"/>
<path d="M33.2716 16.774C33.2716 16.524 33.0689 16.3213 32.8189 16.3213C32.5689 16.3213 32.3662 16.524 32.3662 16.774V17.2615C32.3662 17.5115 32.5689 17.7141 32.8189 17.7141C33.0689 17.7141 33.2716 17.5115 33.2716 17.2615V16.774Z" fill="#CE0171"/>
<path d="M36.7266 16.774C36.7266 16.524 36.524 16.3213 36.274 16.3213C36.024 16.3213 35.8213 16.524 35.8213 16.774V17.2615C35.8213 17.5115 36.024 17.7141 36.274 17.7141C36.524 17.7141 36.7266 17.5115 36.7266 17.2615V16.774Z" fill="#EF0278"/>
<path d="M30.2504 23.167V19.2252C30.2504 19.1459 30.2922 19.1069 30.3757 19.1069H31.6941C32.3501 19.1069 32.8 19.2155 33.0988 19.5024C33.5912 19.9816 33.5354 20.7421 33.5354 21.3758C33.5354 21.7094 33.5048 21.9929 33.4428 22.2269C33.2318 23.0291 32.5375 23.2854 31.77 23.2854H30.3757C30.2922 23.2854 30.2504 23.2464 30.2504 23.167ZM31.1516 22.589H31.6432C32.105 22.589 32.5194 22.5207 32.5918 22.0068C32.6614 21.513 32.6754 20.8897 32.5806 20.3959C32.4887 19.8917 32.114 19.8033 31.6488 19.8033H31.1509L31.1516 22.589ZM26.7682 19.8033C26.7682 19.6186 26.8416 19.4414 26.9722 19.3108C27.1028 19.1802 27.28 19.1069 27.4647 19.1069H29.593C29.6696 19.1069 29.7023 19.1382 29.6905 19.2009L29.632 19.696C29.6264 19.7573 29.5902 19.8033 29.5233 19.8033H27.6694V20.8382H29.4084C29.4794 20.8382 29.5122 20.8688 29.5059 20.9301L29.4446 21.4225C29.439 21.4803 29.4007 21.5095 29.3297 21.5095H27.6694V22.589H29.6097C29.6821 22.589 29.7114 22.6294 29.7072 22.7011L29.719 23.1935C29.712 23.2583 29.687 23.2854 29.6097 23.2854H27.4647C27.28 23.2854 27.1028 23.2121 26.9722 23.0814C26.8416 22.9508 26.7682 22.7737 26.7682 22.589V19.8033ZM22.3982 23.1935V19.2071C22.4037 19.1445 22.4344 19.1124 22.4922 19.1124L23.2387 19.1069C23.2791 19.1069 23.3077 19.111 23.3244 19.1201C23.3432 19.1284 23.3606 19.1507 23.3773 19.1856L24.3523 21.2421H24.3718L25.2855 19.1856C25.3023 19.1507 25.319 19.1284 25.3364 19.1201C25.3644 19.1095 25.3943 19.105 25.4241 19.1069H26.1958C26.2501 19.1069 26.2794 19.1382 26.2842 19.2009V23.1935C26.2842 23.2548 26.2536 23.2854 26.1909 23.2854H25.5523C25.4868 23.2854 25.4534 23.2548 25.4534 23.1935L25.4548 20.3827H25.4193L24.6323 22.1482C24.5933 22.2199 24.5425 22.2561 24.4805 22.2561H24.227C24.1664 22.2561 24.1169 22.2199 24.0779 22.1482L23.2422 20.3827H23.2074L23.2422 23.1935C23.2422 23.2548 23.2102 23.2854 23.1447 23.2854H22.4915C22.4288 23.2854 22.3982 23.2548 22.3982 23.1935Z" fill="#F0017F"/>
<path d="M14.8098 21.855V20.5214C14.8098 20.0429 14.9456 19.6877 15.2158 19.4572C15.4881 19.2246 15.9087 19.1083 16.4777 19.1083C16.8656 19.1083 17.1964 19.148 17.4687 19.2281C17.5098 19.2399 17.537 19.256 17.5495 19.2768C17.5648 19.297 17.5718 19.327 17.5718 19.3674L17.4499 19.7462C17.4499 19.7943 17.4374 19.8235 17.413 19.8354C17.3907 19.8472 17.3482 19.8458 17.2849 19.8305C16.897 19.7448 16.2298 19.687 15.9185 19.9816C15.7806 20.1126 15.7116 20.3236 15.7116 20.6154V21.7944C15.7116 22.0904 15.7757 22.2986 15.9045 22.4212C16.0438 22.5487 16.2792 22.612 16.6093 22.612C16.9213 22.612 17.2215 22.5605 17.5105 22.4567C17.526 22.4508 17.5426 22.4485 17.5591 22.4498C17.5756 22.4511 17.5916 22.4561 17.6059 22.4644C17.6296 22.4762 17.6421 22.495 17.6421 22.5201C17.6418 22.5305 17.64 22.5409 17.6366 22.5508L17.5439 23.0146C17.54 23.0495 17.5254 23.0823 17.5022 23.1086C17.4769 23.1328 17.446 23.1503 17.4123 23.1594C17.1532 23.2444 16.8343 23.2869 16.4554 23.2869C15.8788 23.2869 15.4567 23.1755 15.1879 22.9505C15.0534 22.8372 14.9535 22.6883 14.8996 22.5208C14.8404 22.3425 14.8105 22.1204 14.8105 21.8557L14.8098 21.855ZM11.7573 19.7121V19.1968C11.7573 19.1376 11.7921 19.1076 11.8611 19.1076H14.7095C14.7506 19.1062 14.7791 19.1125 14.793 19.1264C14.8049 19.1369 14.8105 19.1522 14.8105 19.1731C14.8105 19.18 14.8091 19.1884 14.8077 19.1968L14.7262 19.7121C14.7157 19.7804 14.69 19.804 14.6057 19.804H13.7352V23.1943C13.7352 23.2555 13.701 23.2862 13.6321 23.2862H12.9329C12.8674 23.2862 12.8389 23.2555 12.8389 23.1943V19.804H11.8611C11.8026 19.804 11.7573 19.7734 11.7573 19.7121ZM7.96387 21.8787V19.1954C7.96387 19.1369 8.00217 19.1076 8.07808 19.1076H8.84415C8.92076 19.1076 8.95906 19.1369 8.95906 19.1954V21.8035C8.95906 22.0709 9.01199 22.2701 9.11924 22.4003C9.22649 22.5313 9.42149 22.5967 9.70355 22.5967C9.97933 22.5967 10.1764 22.534 10.2934 22.4087C10.3986 22.2993 10.4508 22.0981 10.4508 21.8035V19.1954C10.4508 19.1369 10.4912 19.1076 10.572 19.1076H11.3311C11.4077 19.1076 11.446 19.1369 11.446 19.1954V21.8787C11.446 22.3571 11.3018 22.7123 11.0135 22.9428C10.7252 23.172 10.2885 23.2862 9.70355 23.2862C9.10601 23.2862 8.66587 23.1727 8.38381 22.9449C8.10385 22.7165 7.96387 22.3606 7.96387 21.8787Z" fill="#9E006E"/>
<path fill-rule="evenodd" clip-rule="evenodd" d="M3.78613 19.2098V23.1941C3.78613 23.2275 3.79449 23.2512 3.81051 23.2651C3.82931 23.279 3.85926 23.286 3.90035 23.286H4.65249C4.73328 23.286 4.77297 23.2554 4.77297 23.1941V21.5101H5.97849L6.28144 20.8812V23.1941C6.28144 23.2554 6.31695 23.286 6.38938 23.286H7.15406C7.23067 23.286 7.26828 23.2554 7.26828 23.1941V19.1966C7.26828 19.1631 7.25922 19.1409 7.24042 19.1283C7.2244 19.1144 7.19515 19.1074 7.15406 19.1074H6.38938C6.31695 19.1074 6.28144 19.1374 6.28144 19.1966V20.8387H4.77297V19.1966C4.77297 19.1631 4.76461 19.1409 4.7486 19.1283C4.73188 19.1144 4.70403 19.1074 4.66503 19.1074H3.90035C3.85508 19.1074 3.82374 19.1144 3.80772 19.1283C3.79379 19.1409 3.78613 19.1673 3.78613 19.2098ZM18.2795 19.2098V23.1941C18.2795 23.2275 18.2879 23.2512 18.3039 23.2651C18.3227 23.279 18.3526 23.286 18.3937 23.286H19.1459C19.2267 23.286 19.2663 23.2554 19.2663 23.1941V21.5101H20.4719L20.7748 20.8812V23.1941C20.7748 23.2554 20.811 23.286 20.8828 23.286H21.6474C21.724 23.286 21.7617 23.2554 21.7617 23.1941V19.1966C21.7617 19.1631 21.7526 19.1409 21.7338 19.1283C21.7178 19.1144 21.6885 19.1074 21.6474 19.1074H20.8835C20.811 19.1074 20.7755 19.1374 20.7755 19.1966V20.8387H19.267V19.1966C19.267 19.1631 19.2587 19.1409 19.2427 19.1283C19.226 19.1144 19.1981 19.1074 19.1591 19.1074H18.3944C18.3492 19.1074 18.3178 19.1144 18.3018 19.1283C18.2879 19.1409 18.2809 19.1673 18.2809 19.2098H18.2795Z" fill="#9E006E"/>
</g>
<circle cx="20" cy="20" r="19.5" stroke="black" stroke-opacity="0.05"/>
<defs>
<clipPath id="clip0_9_395465">
<rect width="34" height="10" fill="white" transform="translate(3 14)"/>
</clipPath>
</defs>
</svg>
