<svg width="40" height="40" viewBox="0 0 40 40" fill="none" xmlns="http://www.w3.org/2000/svg">
<circle cx="20" cy="20" r="20" fill="#F96302"/>
<g clip-path="url(#clip0_9_399155)">
<path d="M7.50183 7.50195H32.4994V32.3899H7.50183V7.50195Z" fill="white"/>
<path d="M7.50118 7.50104H23.1854C24.448 7.50104 25.7107 7.4984 26.9707 7.50357C26.6215 7.85635 26.2644 8.20661 25.9128 8.5595C26.0518 8.70576 26.1988 8.84168 26.338 8.98541C26.6583 8.76591 27.0205 8.59084 27.4142 8.56203C27.7686 8.52541 28.1257 8.6169 28.4511 8.7581C28.5744 8.81034 28.69 8.89392 28.829 8.907C28.9656 8.89919 29.068 8.779 29.1152 8.65869C29.1545 8.57522 29.1178 8.47581 29.0523 8.41566C28.7477 8.10994 28.4406 7.8094 28.1387 7.50357C29.5929 7.49576 31.0472 7.50357 32.4989 7.50104C32.4989 8.91228 32.5014 10.3262 32.4989 11.74C32.1997 11.4474 31.9082 11.1494 31.6115 10.8568C31.5327 10.7756 31.4043 10.7338 31.2966 10.7835C31.2257 10.8175 31.1574 10.8724 31.1259 10.9481C31.0865 11.0998 31.1549 11.2487 31.2152 11.3845C31.399 11.7714 31.4804 12.2078 31.4253 12.6339C31.3885 12.924 31.2834 13.2088 31.1259 13.4571C31.084 13.5171 31.0446 13.5798 31.0079 13.6427C31.1601 13.7733 31.2887 13.9301 31.4436 14.0582C31.7901 13.7028 32.1471 13.3552 32.4989 13.0023C32.4989 15.3622 32.5014 17.7223 32.4989 20.0822C32.4305 20.1057 32.3544 20.1528 32.2835 20.1187C32.189 20.0587 32.1181 19.9698 32.0394 19.894C31.1889 19.0524 30.3462 18.203 29.4932 17.3642C29.1545 17.7014 28.8213 18.0411 28.4772 18.3704C28.6585 18.5742 28.8606 18.7545 29.0496 18.9505C29.7321 19.6301 30.4145 20.3096 31.0998 20.989C31.1574 21.0492 31.2257 21.1015 31.2571 21.1799C31.2676 21.2661 31.2073 21.3393 31.1837 21.4177C31.1496 21.5092 31.2231 21.6189 31.3202 21.6214C31.4068 21.6373 31.4804 21.5797 31.5355 21.5223C31.8557 21.2007 32.1786 20.8819 32.4989 20.563V32.389H20.6181C20.9226 32.0859 21.2272 31.7853 21.5317 31.4821C20.4953 30.4528 19.4601 29.4222 18.4263 28.3904C18.0877 28.7145 17.7622 29.0516 17.4262 29.3782C17.3553 29.4515 17.2766 29.522 17.2425 29.6213C17.2267 29.7179 17.316 29.8094 17.4104 29.8147C17.4945 29.8043 17.5653 29.7493 17.6493 29.731C17.7228 29.726 17.7807 29.7834 17.833 29.8304C18.4474 30.4471 19.0643 31.0588 19.6811 31.673C19.8359 31.8349 20.004 31.9812 20.1483 32.1486C20.214 32.2217 20.1694 32.3157 20.1326 32.389H13.0269L14.7041 30.719C14.809 30.6197 14.9167 30.5048 14.9324 30.3531C14.956 30.1781 14.7777 30.0029 14.6017 30.0395C14.4547 30.0682 14.3341 30.1832 14.1818 30.1832C14.0847 30.1754 14.0111 30.1048 13.9455 30.0421C12.6093 28.7145 11.2759 27.3843 9.94243 26.0565C9.85318 25.9678 9.7456 25.8815 9.71401 25.7533C9.70882 25.6019 9.8164 25.479 9.85583 25.3405C9.90565 25.1654 9.7403 24.9745 9.56169 24.9877C9.43843 24.9955 9.3282 25.066 9.24425 25.1523C8.66669 25.7352 8.07874 26.3101 7.50118 26.8929C7.49853 20.4297 7.50118 13.9642 7.50118 7.50104Z" fill="#F96302"/>
<path d="M25.5321 8.93557C25.5558 8.90951 25.5977 8.88586 25.6214 8.92512C27.4514 10.7445 29.2802 12.5652 31.1076 14.3872C30.4656 15.026 29.8242 15.6654 29.1835 16.3055C29.0995 16.3839 28.9971 16.4492 28.8816 16.457C28.7215 16.4702 28.5613 16.3264 28.5745 16.1643C28.5798 16.005 28.7162 15.8821 28.7188 15.72C28.7241 15.6181 28.6454 15.5424 28.5798 15.4717C27.2226 14.1233 25.8681 12.7722 24.511 11.4209C24.4349 11.3477 24.3509 11.2563 24.2354 11.2642C24.0647 11.2667 23.9362 11.4235 23.763 11.4053C23.6631 11.4078 23.5817 11.3294 23.5319 11.2484C23.4637 11.1074 23.5266 10.9375 23.6291 10.833C24.2643 10.2004 24.8996 9.568 25.5321 8.93557ZM28.1677 9.46606C28.2201 9.3694 28.3199 9.28054 28.4379 9.29616C28.5692 9.30672 28.6637 9.41372 28.7503 9.50004C29.2747 10.0242 29.7997 10.5478 30.3254 11.0707C30.4251 11.1675 30.5432 11.2615 30.5668 11.4053C30.58 11.5542 30.4435 11.6874 30.2991 11.7032C30.1784 11.7058 30.0681 11.6405 29.9632 11.583C29.74 11.4523 29.488 11.3477 29.2228 11.3608C29.0863 11.3582 28.9552 11.4131 28.8317 11.4679C28.6873 11.3138 28.522 11.1753 28.3855 11.0159C28.4275 10.8983 28.4826 10.7859 28.4905 10.6603C28.509 10.3756 28.3934 10.1038 28.249 9.86591C28.1755 9.74835 28.1177 9.60187 28.1677 9.46606ZM16.5993 10.8512C16.8829 10.5533 17.1821 10.2737 17.4656 9.9783C17.736 10.2396 17.9984 10.5036 18.2636 10.7675C18.3502 10.8512 18.2714 10.9923 18.1744 11.0263C18.0929 11.0368 18.022 10.9819 17.9486 10.9557C17.6652 10.8173 17.3134 10.8016 17.0299 10.9532C16.9564 10.9845 16.896 11.0472 16.8172 11.0603C16.7385 10.9976 16.6728 10.9192 16.5993 10.8512ZM16.4209 11.0184C16.8067 11.3895 17.1795 11.7738 17.5601 12.1474C18.156 12.7381 18.7492 13.334 19.3477 13.9247C19.0067 14.2681 18.6637 14.6096 18.3187 14.9491C18.2478 15.0274 18.1061 15.0615 18.0378 14.9647C17.9539 14.8759 18.0457 14.7661 18.072 14.6747C18.1034 14.6067 18.0484 14.5466 18.0037 14.4997C17.3164 13.8179 16.6304 13.1349 15.9457 12.4506C15.8828 12.3931 15.8302 12.3226 15.7541 12.2834C15.6492 12.2598 15.5678 12.354 15.4654 12.3592C15.3866 12.3513 15.3132 12.273 15.3237 12.1919C15.3288 12.1292 15.3656 12.0743 15.4102 12.0299C15.7462 11.6927 16.0875 11.3608 16.4209 11.0184ZM17.7911 11.4366C17.7571 11.3504 17.8174 11.2459 17.9093 11.2328C17.9775 11.2224 18.0326 11.2745 18.0799 11.319C18.3633 11.6012 18.6468 11.8862 18.933 12.1658C18.9828 12.2207 19.0537 12.2703 19.059 12.3513C19.0695 12.4324 18.9907 12.5108 18.9068 12.5029C18.7964 12.5029 18.7125 12.4166 18.6127 12.38C18.4657 12.3122 18.2872 12.3069 18.1429 12.3853C18.0668 12.3095 17.9906 12.2311 17.9118 12.1605C17.946 12.0455 17.9775 11.9228 17.9486 11.8025C17.9276 11.6667 17.8331 11.5621 17.7911 11.4366ZM22.8179 11.6405C22.8889 11.5699 22.978 11.5177 23.0778 11.5046C23.2536 11.4785 23.4374 11.6483 23.4033 11.826C23.3797 11.9828 23.2485 12.1082 23.2589 12.273C23.2852 12.3878 23.3797 12.4662 23.4557 12.5474C24.7972 13.8802 26.1385 15.2104 27.4746 16.5459C27.5481 16.6113 27.6216 16.6975 27.7266 16.6975C27.8841 16.6975 28.0049 16.58 28.1545 16.5537C28.3277 16.5251 28.4984 16.6949 28.4773 16.8674C28.4669 16.985 28.396 17.0869 28.3147 17.1679C27.6399 17.8369 26.9679 18.5113 26.2934 19.1803C26.2068 19.2665 26.0965 19.3449 25.968 19.3449C25.826 19.3527 25.6896 19.2327 25.6713 19.0941C25.6529 18.9111 25.8235 18.7752 25.8182 18.5922C25.8104 18.506 25.7501 18.4355 25.6923 18.3727C24.5136 17.202 23.3376 16.0285 22.1591 14.8576C23.133 16.6583 24.1147 18.4539 25.0885 20.2545C25.1042 20.2806 25.1174 20.3094 25.1305 20.3407C25.0597 20.4059 24.9915 20.4765 24.9232 20.5471C22.9728 19.5907 21.0251 18.6235 19.0773 17.6645C18.7703 17.513 18.4657 17.3352 18.1192 17.2935C18.0037 17.2776 17.9249 17.3719 17.841 17.4319C17.7543 17.4999 17.6388 17.5417 17.5313 17.5077C17.4026 17.4503 17.3134 17.2986 17.3528 17.1601C17.379 17.066 17.4446 16.9876 17.5128 16.9196C18.1429 16.295 18.7703 15.6679 19.4003 15.0458C20.3819 15.5241 21.3662 15.9919 22.3507 16.4702C22.3822 16.4937 22.4162 16.5172 22.4452 16.5485C22.461 16.5302 22.4741 16.5119 22.4898 16.4937L22.453 16.4988C21.936 15.5188 21.3926 14.5518 20.8754 13.5718C21.5264 12.9289 22.1696 12.2834 22.8179 11.6405ZM19.3713 12.0821C19.4186 11.9959 19.5525 11.9855 19.6154 12.0586C19.8805 12.3252 20.151 12.5917 20.4187 12.8584C20.1196 13.1591 19.8187 13.4579 19.5158 13.7548C19.4476 13.6763 19.3555 13.6137 19.3031 13.5222C19.3897 13.3758 19.4816 13.2268 19.5052 13.0544C19.5498 12.8165 19.5105 12.5657 19.4081 12.3462C19.3792 12.2625 19.3162 12.1658 19.3713 12.0821ZM14.964 12.4742C15.0165 12.4193 15.0742 12.3618 15.1503 12.3435C15.2266 12.3279 15.321 12.3749 15.3315 12.4584C15.3499 12.5499 15.2817 12.6258 15.2633 12.7146C15.2527 12.7852 15.3105 12.8349 15.3525 12.8819C16.0534 13.5796 16.7516 14.2774 17.4525 14.9726C17.4998 15.0171 17.5496 15.072 17.6179 15.0876C17.7018 15.0798 17.7726 15.0249 17.8541 15.0066C17.9539 14.9961 18.0457 15.1033 18.0142 15.1973C18.0012 15.2679 17.946 15.3203 17.8988 15.3699C17.5575 15.7097 17.2162 16.0494 16.875 16.3865C16.8147 16.4467 16.7359 16.5094 16.6466 16.4885C16.5967 16.4675 16.5548 16.4283 16.5363 16.3787C16.5101 16.2637 16.6335 16.1696 16.6046 16.0545C16.5784 16.0102 16.5416 15.9761 16.5075 15.9396C16.1873 15.6234 15.8696 15.3019 15.5468 14.9858C15.4343 15.1003 15.3205 15.2135 15.2055 15.3254C15.1267 15.2497 15.048 15.1738 14.9745 15.0929C15.0899 14.9805 15.2029 14.8656 15.3185 14.7531C15.0348 14.4762 14.7539 14.1938 14.4732 13.9141C14.4127 13.8567 14.3603 13.794 14.2894 13.7522C14.1608 13.7103 14.0374 13.8907 13.914 13.7914C13.8142 13.7209 13.8458 13.5796 13.9272 13.5064C14.271 13.1588 14.6201 12.8191 14.964 12.4742Z" fill="white"/>
<path d="M13.62 13.8313C13.6988 13.7814 13.8169 13.8129 13.8536 13.9017C13.8904 14.0089 13.7933 14.1004 13.7906 14.2049C13.788 14.2598 13.8326 14.299 13.8667 14.3356C14.5938 15.0596 15.3184 15.7834 16.0455 16.5047C16.1766 16.6458 16.3447 16.4028 16.4865 16.5074C16.5784 16.5806 16.5469 16.7242 16.4681 16.7922C16.1268 17.1346 15.783 17.4717 15.4443 17.814C15.3892 17.8664 15.3341 17.929 15.258 17.9526C15.1739 17.9761 15.0715 17.9238 15.0612 17.835C15.0454 17.7306 15.1399 17.6494 15.1346 17.5475C15.1214 17.503 15.0926 17.4665 15.0612 17.4325C14.3729 16.75 13.686 16.0662 13.0004 15.3809C12.9349 15.3209 12.8798 15.245 12.7931 15.2137C12.6987 15.2085 12.6199 15.2791 12.528 15.2895C12.4493 15.2921 12.381 15.2215 12.3784 15.1458C12.3705 15.0647 12.4283 14.9995 12.4834 14.9446C12.8246 14.6048 13.1658 14.265 13.5045 13.9253C13.5412 13.8913 13.5753 13.8573 13.62 13.8313ZM11.7221 15.6999C11.8797 15.5482 12.0319 15.3914 12.1894 15.2372C12.4651 15.5039 12.7353 15.7808 13.011 16.05C13.0583 16.1022 13.116 16.1493 13.1421 16.2173C13.1737 16.3454 13.0268 16.4865 12.8981 16.429C12.7695 16.3714 12.6672 16.2695 12.5437 16.2015C12.3364 16.0735 12.0948 15.9925 11.8482 16.0213C11.7773 15.9482 11.6985 15.8801 11.6356 15.8018C11.6564 15.7599 11.6907 15.7312 11.7221 15.6999ZM10.5776 16.8393C10.8717 16.5518 11.1604 16.2617 11.4518 15.9716C12.0034 16.5235 12.5564 17.074 13.1107 17.6233C13.4152 17.9238 13.7119 18.2297 14.0189 18.525C14.1056 18.6216 14.2211 18.5407 14.3156 18.5066C14.41 18.4648 14.5204 18.5485 14.5177 18.6477C14.5177 18.7157 14.4783 18.7732 14.4338 18.8203C14.0768 19.1731 13.725 19.5259 13.3707 19.8788C13.3207 19.9284 13.2577 19.978 13.1842 19.9728C13.1028 19.9807 13.0241 19.9023 13.0319 19.8238C13.0372 19.7402 13.1028 19.6723 13.1028 19.5886C13.1081 19.518 13.0477 19.4736 13.0057 19.4265C12.1684 18.5981 11.3389 17.7619 10.4989 16.9359C10.5252 16.9019 10.5488 16.8706 10.5776 16.8393ZM30.2781 16.5831C30.6035 16.902 30.9264 17.2234 31.2467 17.5475C31.349 17.6442 31.2756 17.8376 31.139 17.8586C31.013 17.8768 30.9159 17.7775 30.8188 17.7122C30.5589 17.5344 30.2518 17.3672 29.9264 17.4221C29.8397 17.3437 29.7557 17.2626 29.6848 17.1712C29.8869 16.9778 30.0812 16.7791 30.2781 16.5831ZM10.3099 17.1136C10.4071 17.1502 10.4674 17.26 10.5461 17.328C10.5042 17.6311 10.6484 17.916 10.8191 18.1538C10.869 18.2297 10.9293 18.3002 10.9608 18.3864C10.995 18.5014 10.8821 18.6216 10.7666 18.6085C10.701 18.6085 10.6564 18.5537 10.6144 18.5145C10.3282 18.227 10.0396 17.9448 9.75342 17.6573C9.9424 17.4795 10.1184 17.2888 10.3099 17.1136ZM16.1505 18.5878C16.6728 18.4204 17.2398 18.4021 17.7779 18.5119C18.6915 18.7053 19.4999 19.2385 20.1457 19.8996C20.7783 20.5373 21.2823 21.3371 21.4529 22.2282C21.5473 22.7169 21.5264 23.2291 21.3848 23.7074C21.2456 24.1805 20.9934 24.6169 20.6759 24.9933C20.5393 24.8495 20.3898 24.7162 20.2585 24.5699C20.2585 24.4993 20.3031 24.4391 20.3163 24.3713C20.3871 24.1413 20.3163 23.8826 20.1404 23.7152C18.8438 22.4216 17.5417 21.1279 16.2449 19.8343C16.1268 19.7141 15.9773 19.6174 15.8066 19.6043C15.6674 19.5861 15.5309 19.6357 15.3997 19.6826C15.3471 19.7114 15.3131 19.6462 15.279 19.6199C15.1739 19.5077 15.0584 19.4057 14.9535 19.2907C14.9535 19.2829 14.9508 19.2672 14.9508 19.2593C15.3 18.9614 15.7095 18.7289 16.1505 18.5878ZM19.689 18.4439C19.8097 18.4831 19.9199 18.5432 20.0328 18.6007C20.4555 18.8046 20.8753 19.0163 21.3007 19.2227C21.3374 19.2411 21.3715 19.2698 21.4031 19.2985C21.76 19.6592 22.1197 20.0146 22.4792 20.3727C22.675 20.5792 22.9156 20.7383 23.1827 20.8378C23.3691 20.9084 23.5791 20.9084 23.7655 20.843C23.86 20.8117 23.9624 20.7752 24.0622 20.8065C24.1121 20.827 24.1553 20.8607 24.1873 20.9041C24.2192 20.9474 24.2385 20.9986 24.2432 21.0522C24.2353 21.1959 24.1435 21.3161 24.0464 21.4154C23.7252 21.7395 23.4015 22.061 23.0751 22.3798C22.9885 22.4582 22.8888 22.5392 22.768 22.5523C22.5948 22.5783 22.4241 22.3956 22.4766 22.2282C22.5265 22.0583 22.5948 21.8859 22.566 21.7081C22.5239 21.4101 22.3532 21.1462 22.1642 20.9189C21.4529 20.2081 20.7389 19.4997 20.025 18.7863C19.9146 18.6712 19.7939 18.5668 19.689 18.4439ZM27.695 19.1548C27.892 18.9588 28.0914 18.7627 28.2883 18.5642C28.3749 18.6347 28.451 18.7184 28.5324 18.7968C28.4983 19.0581 28.5877 19.3168 28.7241 19.5364C28.7949 19.6618 28.8973 19.7689 28.9603 19.8996C28.9945 19.9624 28.9708 20.0329 28.9472 20.0956C29.2785 20.3184 29.5673 20.598 29.8003 20.9214C30.0654 21.2952 30.2518 21.7395 30.2413 22.2047C30.2439 22.6464 30.0523 23.0697 29.7714 23.4042C29.6953 23.3258 29.6061 23.2553 29.5403 23.1664C29.5536 23.0697 29.6008 22.9757 29.5771 22.879C29.5509 22.7535 29.4537 22.6647 29.3671 22.5783C28.6743 21.891 27.9838 21.2038 27.2935 20.5164C27.2252 20.4484 27.1438 20.3858 27.0466 20.378C26.9548 20.3674 26.8629 20.3936 26.779 20.4223C26.6976 20.3466 26.6163 20.2655 26.5375 20.187C26.8866 19.8891 27.3406 19.6983 27.8053 19.7219C27.9838 19.7167 28.1571 19.7585 28.3303 19.7976C28.1203 19.5808 27.8971 19.3769 27.695 19.1548ZM13.9586 20.6888C14.103 20.289 14.3313 19.9231 14.6017 19.5964C14.7355 19.7324 14.8774 19.863 15.0086 20.0015C15.0348 20.0852 14.9666 20.1636 14.9535 20.2472C14.8852 20.472 14.9745 20.7176 15.1399 20.8796C16.4156 22.1524 17.6939 23.4226 18.9723 24.6952C19.0957 24.8286 19.2453 24.954 19.4343 24.9828C19.6023 25.009 19.7677 24.9515 19.9226 24.894C20.0643 25.035 20.2061 25.1736 20.3478 25.3147C20.038 25.5839 19.6784 25.7956 19.2952 25.9446C18.7176 26.1666 18.0719 26.2033 17.4655 26.0701C16.5441 25.8687 15.7331 25.3173 15.0847 24.6456C14.4863 24.0211 14.0031 23.2553 13.8326 22.4006C13.7172 21.8336 13.7539 21.2325 13.9586 20.6888ZM25.8891 21.4442C25.9207 21.047 26.0965 20.6681 26.359 20.37C26.435 20.4484 26.5166 20.5269 26.5952 20.6053C26.5664 20.6994 26.5216 20.7987 26.548 20.8979C26.5637 20.9869 26.624 21.0575 26.6871 21.1201C27.3801 21.8074 28.0678 22.4974 28.7609 23.1847C28.8422 23.2631 28.9209 23.3572 29.0364 23.3886C29.1415 23.4174 29.2491 23.3807 29.3514 23.3493C29.4302 23.4278 29.5116 23.5063 29.5877 23.5898C29.2569 23.8616 28.8448 24.0525 28.4091 24.0525C27.9865 24.0707 27.5717 23.9217 27.22 23.7022C26.9653 23.5402 26.7317 23.3442 26.5375 23.1167C26.6293 23.4226 26.6084 23.765 26.464 24.0525C26.3223 24.3347 26.1018 24.5647 25.8839 24.7868C25.8051 24.7084 25.7237 24.6273 25.6423 24.549C25.7107 24.4391 25.7553 24.3085 25.7132 24.1805C25.6634 24.0497 25.5557 23.9557 25.4613 23.8564C25.266 23.6597 25.0699 23.4637 24.8732 23.2684C24.7578 23.1612 24.6343 23.0383 24.469 23.0279C24.3719 23.0175 24.2853 23.0671 24.2039 23.1142C24.1226 23.0358 24.0438 22.9548 23.9624 22.8765C24.2773 22.5602 24.637 22.2335 25.099 22.176C25.477 22.1132 25.8576 22.2753 26.1253 22.534C25.9573 22.1995 25.8524 21.8231 25.8891 21.4442ZM12.0528 22.3563C12.1316 22.2805 12.234 22.223 12.3442 22.2152C12.5254 22.2047 12.6908 22.3928 12.6408 22.568C12.6015 22.7013 12.5044 22.8188 12.4991 22.9627C12.5096 23.088 12.6146 23.1769 12.6987 23.2606L16.7411 27.2852C16.8041 27.3454 16.8749 27.4054 16.9642 27.4132C17.1164 27.4132 17.2346 27.301 17.3789 27.267C17.5521 27.233 17.7254 27.3898 17.7176 27.5623C17.7123 27.6799 17.6467 27.787 17.5653 27.8706L15.5309 29.8961C15.4417 29.9823 15.3314 30.0581 15.2029 30.0581C15.0454 30.0634 14.8984 29.9145 14.9114 29.7549C14.9273 29.5982 15.0584 29.4728 15.0612 29.3107C15.0559 29.214 14.9797 29.1408 14.9193 29.0729C14.3156 28.4692 13.7092 27.8706 13.1081 27.2696C13.0845 27.2514 13.053 27.199 13.0189 27.2355C12.8089 27.4368 12.6068 27.6486 12.3967 27.8497C12.255 27.7086 12.1133 27.5675 11.9714 27.4238C12.175 27.2119 12.3833 27.0045 12.5962 26.8018C12.5962 26.7913 12.5989 26.7678 12.5989 26.7573C12.0292 26.2007 11.4701 25.6361 10.9031 25.0743C10.8165 24.9933 10.735 24.8914 10.6144 24.8626C10.4491 24.8521 10.3204 24.9802 10.1655 25.009C9.96604 25.043 9.7849 24.8182 9.85316 24.6326C9.88729 24.5019 9.99222 24.4078 10.0841 24.319C10.7403 23.6631 11.3992 23.0123 12.0528 22.3563ZM23.7733 23.062C24.0883 23.3546 24.385 23.6682 24.6947 23.9688C25.2828 24.5568 25.8734 25.1448 26.464 25.7328C26.5059 25.7669 26.5453 25.8139 26.6004 25.8243C26.7134 25.8349 26.8025 25.725 26.9155 25.7459C26.9838 25.7694 27.0466 25.8349 27.0389 25.9105C27.0389 26.0125 26.9522 26.0831 26.8891 26.151C26.5191 26.5144 26.1542 26.8828 25.7841 27.2461C25.7027 27.3349 25.5504 27.2905 25.5006 27.1912C25.4271 27.0684 25.6266 26.9376 25.5217 26.8253C24.7599 26.0696 23.9995 25.3126 23.2405 24.5542C23.1854 24.5046 23.1382 24.4419 23.0725 24.4078C22.9596 24.3764 22.8704 24.4706 22.7654 24.4837C22.684 24.4759 22.6053 24.4053 22.6105 24.3216C22.6026 24.2301 22.6709 24.1597 22.7285 24.0995C23.0778 23.7545 23.4269 23.4069 23.7733 23.062ZM21.4319 25.3906C21.7442 25.0848 22.0487 24.7686 22.3664 24.4679C22.6472 24.7502 22.9308 25.0299 23.2117 25.3121C23.3061 25.4036 23.2064 25.5421 23.1093 25.5839C23.041 25.5917 22.9779 25.5499 22.9175 25.5239C22.6762 25.4061 22.3978 25.3487 22.1328 25.4166C21.9648 25.4506 21.8177 25.5446 21.6707 25.6309C21.592 25.5499 21.5133 25.469 21.4319 25.3906ZM20.1561 26.6633C20.5185 26.2974 20.8859 25.9393 21.2481 25.576C21.8361 26.1537 22.4162 26.7417 23.0069 27.3192C23.4584 27.7661 23.9047 28.2183 24.3587 28.6626C24.007 29.0232 23.6449 29.3734 23.293 29.7314C23.2431 29.7864 23.1722 29.8177 23.1066 29.8464C23.041 29.823 22.9596 29.7995 22.9386 29.7263C22.8993 29.6034 23.0279 29.5067 23.0122 29.3865C22.9596 29.2846 22.8677 29.2114 22.789 29.1304L20.8753 27.2251C20.7626 27.1206 20.668 26.9953 20.5342 26.9168C20.4003 26.8906 20.2796 27.0605 20.151 26.969C20.0408 26.8985 20.0722 26.7417 20.1561 26.6633ZM22.7024 26.0152C22.6604 25.908 22.7601 25.7825 22.873 25.8008C22.9255 25.8139 22.9648 25.8478 23.0016 25.8844C23.2772 26.1616 23.5555 26.4333 23.8285 26.7103C23.9177 26.8018 24.0332 26.8802 24.07 27.0109C24.0359 27.0684 23.9991 27.1468 23.9204 27.1546C23.7917 27.1677 23.6972 27.0657 23.5817 27.0238C23.5029 26.9849 23.416 26.9649 23.3281 26.9654C23.2401 26.9659 23.1535 26.9868 23.0751 27.0266C22.9912 26.9429 22.9098 26.8592 22.8257 26.7783C22.8835 26.6554 22.9098 26.5144 22.8677 26.3836C22.8362 26.2503 22.747 26.1406 22.7024 26.0152ZM24.3902 26.6972C24.4453 26.6137 24.5792 26.6006 24.6448 26.679C24.9283 26.9639 25.2172 27.2461 25.4979 27.5336C25.1751 27.8472 24.8654 28.1764 24.5346 28.4823C24.4586 28.4012 24.3771 28.3228 24.2983 28.2418C24.5792 27.8969 24.6186 27.3976 24.4296 27.0004C24.3954 26.9063 24.3219 26.7913 24.3902 26.6972Z" fill="white"/>
<path d="M7.50118 27.7375C7.60611 27.6957 7.70596 27.6303 7.82149 27.6329C7.96056 27.6591 8.04726 27.7819 8.14424 27.8733C9.46472 29.1827 10.7798 30.4946 12.0975 31.8039C12.1709 31.8851 12.2655 31.966 12.2786 32.081C12.2733 32.1933 12.2129 32.2927 12.1659 32.392C10.6091 32.3894 9.05526 32.3894 7.50118 32.3894C7.50118 30.8396 7.49853 29.2872 7.50118 27.7375Z" fill="#F96302"/>
<path d="M19.7204 27.6668C20.1877 27.6277 20.6523 27.7948 21.0382 28.0484C21.34 28.2496 21.6209 28.4822 21.8361 28.7723C22.0934 29.1147 22.2508 29.5329 22.2536 29.9641C22.2613 30.4554 22.0671 30.9519 21.7155 31.2994C21.6344 31.2216 21.5548 31.1423 21.4765 31.0617C21.5237 30.9729 21.5788 30.8788 21.5631 30.7742C21.537 30.6174 21.4293 30.4893 21.3216 30.3822L19.5498 28.618C19.4291 28.5005 19.2925 28.3724 19.1141 28.3594C19.017 28.349 18.9303 28.3985 18.849 28.4456C18.7727 28.3619 18.6678 28.2992 18.6205 28.1948C18.9093 27.8994 19.303 27.6929 19.7204 27.6668Z" fill="white"/>
</g>
<circle cx="20" cy="20" r="19.5" stroke="black" stroke-opacity="0.05"/>
<defs>
<clipPath id="clip0_9_399155">
<rect width="26" height="26" fill="white" transform="translate(7 7)"/>
</clipPath>
</defs>
</svg>
