<svg width="40" height="40" viewBox="0 0 40 40" fill="none" xmlns="http://www.w3.org/2000/svg">
<circle cx="20" cy="20" r="20" fill="#1E1E23"/>
<path d="M8.42871 12.9287H14.2144V17.4287H15.5001V12.9287H20.2316C18.6437 13.7194 18.1873 14.7994 18.1873 16.0016C18.1873 16.8887 18.5023 17.9237 19.293 18.9137C17.2551 20.328 16.6444 21.4401 16.6444 23.0987C16.6444 24.7573 17.3259 26.1523 19.4087 27.0716H15.5001V21.9287H14.2144V27.0716H8.42871V12.9287Z" fill="#F18B21"/>
<path d="M24.0692 25.6316C24.0692 25.6509 25.1621 27.1037 25.1428 27.0716H21.6714C22.6077 26.8694 23.4508 26.3631 24.0692 25.6316ZM24.6028 16.0273C24.6028 17.2937 23.9599 18.2773 22.5521 19.4344L24.3006 21.7873C24.7121 21.0223 24.8471 20.0709 24.9821 19.3573H27.0971V19.9616C27.0971 20.8487 26.2485 23.0151 25.7085 23.7094L28.2156 27.0716H31.5714V23.2144H28.3571V21.2859H31.5714V18.0716H28.3571V16.143H31.5714V12.9287H22.5521C24.1335 13.4687 24.6092 14.883 24.6092 16.0273H24.6028ZM19.0742 22.893C19.0742 23.8701 19.6849 24.8087 20.8871 24.8087C21.2728 24.8216 21.6392 24.738 21.9799 24.558C22.3206 24.3844 22.6099 24.1209 22.8285 23.7994L20.5464 20.6944C19.5114 21.4273 19.0742 22.0509 19.0742 22.8994V22.893ZM20.4049 15.9823C20.4049 16.5994 20.9128 17.2294 21.3692 17.7244C22.1792 17.0751 22.4428 16.6573 22.4428 16.008C22.4428 15.468 22.1921 14.8766 21.4464 14.8766C21.3076 14.8761 21.1703 14.9044 21.043 14.9597C20.9157 15.0151 20.8014 15.0962 20.7071 15.198C20.5061 15.4114 20.3975 15.6956 20.4049 15.9887V15.9823Z" fill="white"/>
<circle cx="20" cy="20" r="19.5" stroke="black" stroke-opacity="0.05"/>
</svg>
