<svg width="40" height="40" viewBox="0 0 40 40" fill="none" xmlns="http://www.w3.org/2000/svg">
<circle cx="20" cy="20" r="20" fill="#F6F8FA"/>
<circle cx="20" cy="20" r="19.5" stroke="black" stroke-opacity="0.05"/>
<g clip-path="url(#clip0_9_394638)">
<path d="M5 13H6.11214L6.1165 14.9883C6.11663 14.9921 6.11817 14.9957 6.1208 14.9983C6.12342 15.001 6.12693 15.0024 6.13058 15.0024H8.14126C8.15809 15.0024 8.1665 14.994 8.1665 14.9772L8.16748 13H9.28398V18.1442C9.28398 18.1613 9.2754 18.1699 9.25825 18.1699H8.19175C8.18531 18.1699 8.17914 18.1673 8.17458 18.1628C8.17003 18.1582 8.16748 18.1521 8.16748 18.1456V16.1553C8.16748 16.1489 8.16492 16.1427 8.16037 16.1382C8.15581 16.1336 8.14964 16.1311 8.1432 16.1311H6.14078C6.13434 16.1311 6.12817 16.1336 6.12361 16.1382C6.11906 16.1427 6.1165 16.1489 6.1165 16.1553V18.1476C6.1165 18.153 6.11436 18.1582 6.11053 18.162C6.10671 18.1658 6.10152 18.168 6.09612 18.168L5 18.1675V13Z" fill="black"/>
<path d="M13.9932 13H15.1199L15.1189 18.1393C15.1189 18.1597 15.1085 18.1699 15.0878 18.1699H14.0072C14.0038 18.1699 14.0004 18.1685 13.998 18.1661C13.9955 18.1636 13.9941 18.1603 13.9941 18.1568L13.9932 13Z" fill="black"/>
<path d="M24.3791 13H34.9874V28H5V19.284L6.0835 19.2631C6.08778 19.263 6.09205 19.2637 6.09605 19.2653C6.10005 19.2669 6.1037 19.2692 6.10678 19.2723C6.10985 19.2753 6.1123 19.2789 6.11397 19.283C6.11564 19.287 6.11651 19.2913 6.1165 19.2956V26.8592C6.1165 26.8754 6.1246 26.8835 6.14078 26.8835H33.8471C33.8633 26.8835 33.8714 26.8754 33.8714 26.8592V14.1408C33.8714 14.1246 33.8633 14.1165 33.8471 14.1165H24.3951C24.3806 14.1165 24.3733 14.1092 24.3733 14.0947L24.3791 13Z" fill="#A3A5A8"/>
<path d="M10.8227 16.785C10.9389 17.0883 11.1541 17.2658 11.4683 17.3176C11.8738 17.3842 12.1868 17.2721 12.4072 16.9812C12.4214 16.9621 12.4389 16.9587 12.4596 16.971L13.3057 17.4622C13.3232 17.4726 13.3259 17.486 13.314 17.5025C12.9965 17.9278 12.5695 18.1745 12.0329 18.2428C11.5193 18.3079 10.9902 18.2462 10.5596 17.9724C10.0936 17.676 9.82157 17.2383 9.74358 16.6593C9.57999 15.4486 10.4945 14.4413 11.7145 14.4816C12.631 14.5117 13.3504 15.0928 13.5062 16.0045C13.5363 16.1808 13.5483 16.4213 13.5421 16.7258C13.5418 16.742 13.5335 16.7501 13.5174 16.7501H10.847C10.8221 16.7501 10.814 16.7617 10.8227 16.785ZM12.4276 15.9049C12.2683 15.5132 11.8979 15.3637 11.5013 15.4234C11.2068 15.4674 10.9913 15.6255 10.8547 15.8977C10.8533 15.9005 10.8527 15.9037 10.8529 15.9069C10.853 15.9101 10.854 15.9132 10.8557 15.9159C10.8574 15.9187 10.8598 15.9209 10.8626 15.9225C10.8654 15.924 10.8685 15.9248 10.8717 15.9248H12.4145C12.4287 15.9248 12.4331 15.9182 12.4276 15.9049Z" fill="black"/>
<path d="M16.6765 16.7854C16.8556 17.2805 17.3712 17.4232 17.844 17.2868C18.0183 17.2363 18.1595 17.1252 18.2605 16.9761C18.2718 16.959 18.2864 16.9556 18.3042 16.9659L19.1634 17.4645C19.1661 17.466 19.1684 17.4681 19.1703 17.4706C19.1721 17.4731 19.1734 17.4759 19.174 17.479C19.1747 17.482 19.1747 17.4851 19.174 17.4882C19.1733 17.4912 19.172 17.494 19.1702 17.4965C18.8822 17.8829 18.5097 18.1219 18.0527 18.2135C17.2061 18.3829 16.3406 18.1669 15.8639 17.4261C15.5542 16.9441 15.4974 16.2606 15.692 15.7223C16.3401 13.9334 19.0983 14.1023 19.3697 16.0572C19.3956 16.2459 19.4026 16.4692 19.3906 16.7271C19.3899 16.7423 19.382 16.7499 19.3668 16.7499H16.7013C16.676 16.7499 16.6678 16.7617 16.6765 16.7854ZM17.6877 15.4266C17.2644 15.3591 16.8911 15.5198 16.7022 15.9067C16.7013 15.9086 16.7009 15.9108 16.701 15.9129C16.7011 15.915 16.7017 15.917 16.7028 15.9188C16.7038 15.9206 16.7053 15.9221 16.7071 15.9231C16.7089 15.9241 16.7109 15.9247 16.7129 15.9247H18.2615C18.2825 15.9247 18.2886 15.9151 18.2799 15.896C18.1608 15.6271 17.9634 15.4706 17.6877 15.4266Z" fill="black"/>
<path d="M21.0236 14.9276C21.3231 14.5757 21.7158 14.433 22.1867 14.5024C22.8823 14.6053 23.2643 15.1509 23.2643 15.8412C23.265 16.5963 23.2652 17.3641 23.2648 18.1446C23.2648 18.1618 23.2563 18.1704 23.2391 18.1704H22.1211C22.1157 18.1704 22.1104 18.1682 22.1065 18.1644C22.1026 18.1606 22.1004 18.1554 22.1003 18.15C22.0977 17.5166 22.0985 16.8573 22.1027 16.1718C22.1051 15.8179 21.9935 15.5034 21.5935 15.4869C21.1842 15.4699 21.0041 15.8 21.0056 16.1626C21.0092 16.8276 21.0093 17.4929 21.0061 18.1582C21.0061 18.1614 21.0048 18.1645 21.0025 18.1668C21.0003 18.1691 20.9972 18.1704 20.994 18.1704H19.9032C19.8967 18.1704 19.8906 18.1678 19.886 18.1633C19.8815 18.1587 19.8789 18.1525 19.8789 18.1461V14.5781C19.8789 14.5749 19.8802 14.5718 19.8825 14.5695C19.8847 14.5673 19.8878 14.566 19.891 14.566H20.9711C20.9876 14.566 20.9959 14.5741 20.9959 14.5903L20.9949 14.9174C20.9949 14.9469 21.0045 14.9503 21.0236 14.9276Z" fill="black"/>
<path d="M15.1551 20.8277H15.8255C15.8417 20.8277 15.8498 20.8358 15.8498 20.8519V21.7864C15.8498 21.7928 15.8472 21.799 15.8427 21.8036C15.8381 21.8081 15.8319 21.8107 15.8255 21.8107L15.1459 21.8102C15.1297 21.8102 15.1216 21.8184 15.1216 21.8349V24.4078C15.1216 24.4239 15.1135 24.432 15.0973 24.432H14.0172C14.0108 24.432 14.0046 24.4295 14.0001 24.4249C13.9955 24.4204 13.993 24.4142 13.993 24.4078V21.8349C13.993 21.8188 13.9849 21.8107 13.9687 21.8107H13.4896C13.4692 21.8107 13.459 21.8006 13.459 21.7806V20.8519C13.459 20.8358 13.4671 20.8277 13.4833 20.8277H13.9672C13.9873 20.8277 13.9968 20.8176 13.9959 20.7976C13.9629 20.0097 14.2046 19.4039 15.0449 19.2364C15.3239 19.1811 15.5878 19.1859 15.8367 19.251C15.8439 19.2528 15.8503 19.257 15.8549 19.2629C15.8594 19.2688 15.8619 19.276 15.8619 19.2835V20.1471C15.8619 20.1688 15.8511 20.1781 15.8294 20.1752C15.7685 20.1665 15.7046 20.16 15.6376 20.1558C15.3716 20.1387 15.2057 20.2388 15.1401 20.4563C15.1075 20.5636 15.1303 20.6762 15.1192 20.7874C15.1166 20.8142 15.1286 20.8277 15.1551 20.8277Z" fill="black"/>
<path d="M19.2187 20.3782H17.8925C17.8881 20.3782 17.8839 20.3765 17.8808 20.3734C17.8777 20.3703 17.876 20.3661 17.876 20.3617V19.2782C17.876 19.2738 17.8777 19.2696 17.8808 19.2666C17.8839 19.2635 17.8881 19.2617 17.8925 19.2617H21.6823C21.6867 19.2617 21.6909 19.2635 21.694 19.2666C21.6971 19.2696 21.6988 19.2738 21.6988 19.2782V20.3617C21.6988 20.3661 21.6971 20.3703 21.694 20.3734C21.6909 20.3765 21.6867 20.3782 21.6823 20.3782H20.3682C20.3638 20.3782 20.3596 20.38 20.3565 20.3831C20.3534 20.3862 20.3517 20.3904 20.3517 20.3947V24.4151C20.3517 24.4195 20.35 24.4237 20.3469 24.4268C20.3438 24.4299 20.3396 24.4316 20.3352 24.4316H19.2517C19.2473 24.4316 19.2431 24.4299 19.24 24.4268C19.2369 24.4237 19.2352 24.4195 19.2352 24.4151V20.3947C19.2352 20.3904 19.2335 20.3862 19.2304 20.3831C19.2273 20.38 19.2231 20.3782 19.2187 20.3782Z" fill="black"/>
<path d="M13.2811 22.6916C13.2688 23.1958 13.0503 23.6742 12.6738 24.0217C12.2974 24.3692 11.7937 24.5573 11.2736 24.5446C10.7534 24.5319 10.2595 24.3194 9.90048 23.9539C9.54142 23.5884 9.34663 23.0999 9.35895 22.5958C9.37127 22.0916 9.5897 21.6132 9.96618 21.2657C10.3427 20.9182 10.8464 20.7301 11.3665 20.7428C11.8866 20.7555 12.3805 20.968 12.7395 21.3334C13.0986 21.6989 13.2934 22.1875 13.2811 22.6916ZM12.1365 22.6379C12.1365 22.4225 12.051 22.2159 11.8986 22.0636C11.7463 21.9113 11.5398 21.8257 11.3244 21.8257C11.109 21.8257 10.9024 21.9113 10.7501 22.0636C10.5978 22.2159 10.5122 22.4225 10.5122 22.6379C10.5122 22.8532 10.5978 23.0598 10.7501 23.2121C10.9024 23.3644 11.109 23.45 11.3244 23.45C11.5398 23.45 11.7463 23.3644 11.8986 23.2121C12.051 23.0598 12.1365 22.8532 12.1365 22.6379Z" fill="black"/>
<path d="M27.8407 22.6911C27.8283 23.1954 27.6099 23.674 27.2336 24.0215C26.8572 24.3691 26.3536 24.5573 25.8336 24.5446C25.3136 24.5319 24.8198 24.3193 24.4609 23.9538C24.1019 23.5882 23.9072 23.0995 23.9195 22.5953C23.9318 22.091 24.1502 21.6124 24.5266 21.2648C24.903 20.9172 25.4066 20.7291 25.9265 20.7418C26.4465 20.7545 26.9403 20.967 27.2993 21.3326C27.6582 21.6982 27.853 22.1868 27.8407 22.6911ZM26.698 22.6374C26.698 22.4218 26.6124 22.2151 26.46 22.0628C26.3076 21.9104 26.1009 21.8247 25.8854 21.8247C25.6699 21.8247 25.4632 21.9104 25.3108 22.0628C25.1584 22.2151 25.0728 22.4218 25.0728 22.6374C25.0728 22.8529 25.1584 23.0596 25.3108 23.212C25.4632 23.3644 25.6699 23.45 25.8854 23.45C26.1009 23.45 26.3076 23.3644 26.46 23.212C26.6124 23.0596 26.698 22.8529 26.698 22.6374Z" fill="black"/>
<path d="M22.4437 21.2123C22.4898 21.156 22.535 21.0958 22.5937 21.0507C22.8775 20.8293 23.2131 20.7562 23.6005 20.8313C23.6193 20.8348 23.6287 20.8463 23.6287 20.8657V21.9288C23.6287 21.9427 23.6219 21.9481 23.6083 21.9449C22.949 21.7832 22.4524 22.1143 22.4524 22.8104C22.4524 23.3706 22.4521 23.9 22.4515 24.3987C22.4515 24.4075 22.4479 24.4159 22.4417 24.4221C22.4354 24.4283 22.4269 24.4317 22.418 24.4317H21.3592C21.3528 24.4317 21.3466 24.4292 21.3421 24.4246C21.3375 24.4201 21.335 24.4139 21.335 24.4075V20.8395C21.335 20.8363 21.3362 20.8332 21.3385 20.8309C21.3408 20.8287 21.3439 20.8274 21.3471 20.8274H22.3908C22.407 20.8274 22.4151 20.8355 22.4151 20.8516V21.2016C22.4151 21.2321 22.4246 21.2356 22.4437 21.2123Z" fill="black"/>
<path d="M29.7701 22.8529C29.7766 22.8636 29.7819 22.8631 29.7861 22.8514L30.5094 20.8378C30.5104 20.835 30.5123 20.8325 30.5149 20.8308C30.5174 20.8291 30.5204 20.8281 30.5235 20.8281H31.6522C31.6539 20.8281 31.6555 20.8285 31.6571 20.8293C31.6586 20.83 31.6599 20.8312 31.6609 20.8326C31.6619 20.834 31.6625 20.8357 31.6628 20.8375C31.663 20.8392 31.6629 20.841 31.6624 20.8427L29.8672 25.7762C29.8636 25.7865 29.8564 25.7917 29.8454 25.7917H28.7497C28.7306 25.7917 28.7243 25.7827 28.7308 25.7645L29.2313 24.3835C29.235 24.3735 29.2349 24.3625 29.2308 24.3529L27.8031 20.8505C27.7973 20.8356 27.8023 20.8281 27.8182 20.8281H28.9565C28.9638 20.8281 28.971 20.8303 28.977 20.8345C28.9831 20.8387 28.9878 20.8446 28.9905 20.8514C29.2268 21.4634 29.4737 22.1042 29.7313 22.7738C29.7423 22.8019 29.7552 22.8283 29.7701 22.8529Z" fill="black"/>
</g>
<defs>
<clipPath id="clip0_9_394638">
<rect width="30" height="15" fill="white" transform="translate(5 13)"/>
</clipPath>
</defs>
</svg>
