<svg width="40" height="40" viewBox="0 0 40 40" fill="none" xmlns="http://www.w3.org/2000/svg">
<circle cx="20" cy="20" r="20" fill="#38C6F4"/>
<g clip-path="url(#clip0_9_412348)">
<path d="M26.2422 7.86082C26.3399 8.09418 26.7179 8.90225 26.6723 9.13175C26.6549 9.22046 26.6144 9.45253 26.5823 9.50911C26.572 9.53161 26.5077 9.64282 26.4396 9.63639C26.2981 9.62482 26.2879 9.20182 26.2429 9.07068C26.1818 8.89968 26.0693 8.76918 25.9311 8.61361C25.8886 8.56603 25.7851 8.48953 25.7356 8.44839C25.4251 8.17453 25.0349 7.60946 24.5862 7.50532C24.5843 7.50403 24.5811 7.50339 24.5779 7.50918C24.5759 7.51368 24.5811 7.52653 24.5888 7.53489C24.6049 7.55096 24.7109 7.63068 24.9263 7.85182C25.0484 7.97911 25.2169 8.14175 25.3165 8.28382C25.4348 8.45225 25.7299 8.71646 25.8321 8.86689C25.9021 8.96975 26.0005 9.13882 26.0179 9.29503C26.0294 9.39725 26.0294 9.42811 25.9696 9.44096C25.9324 9.45253 25.6771 9.35546 25.2876 9.32525C25.2529 9.32525 24.9256 9.29632 24.8896 9.29632C24.3966 9.24103 24.4274 9.26225 24.0083 9.13111C23.728 9.04239 23.386 8.92089 23.0813 8.85853C23.044 8.85211 22.6409 8.71261 22.6152 8.74282C22.5972 8.76211 22.7329 8.84568 22.7611 8.85853C22.8801 8.91125 23.2246 9.03853 23.3571 9.10153C23.5242 9.18382 23.6746 9.24939 23.8244 9.30725C24.0559 9.39789 24.2751 9.48082 24.5541 9.54511C24.5284 9.87939 24.4628 10.4374 24.3291 10.6778C24.0567 11.1647 23.7116 11.6072 23.3056 11.9899C23.2227 12.0683 23.1436 12.1827 23.0311 12.2837C22.9354 12.3717 22.8094 12.5151 22.7181 12.537C22.6609 12.5492 22.5818 12.5318 22.5149 12.546C22.423 12.5652 22.3504 12.6167 22.2706 12.6051C22.1916 12.5916 22.1646 12.5215 22.0958 12.4868C21.9823 12.443 21.8637 12.4136 21.7429 12.3994C21.6567 12.3897 21.6214 12.3994 21.6361 12.3216C21.6361 12.3184 21.6426 12.3139 21.6451 12.2644C21.6644 12.0098 21.6676 11.772 21.6657 11.592C21.6548 10.8565 21.1913 10.2722 20.9155 9.77461C20.848 9.65246 20.7059 9.37603 20.5947 9.24939C20.4713 9.11118 20.5452 9.34903 20.5645 9.42618C20.5876 9.51425 20.6654 9.61389 20.6911 9.68782C20.7104 9.72961 20.7259 9.79132 20.7406 9.83311C20.8866 10.267 21.2594 10.8533 21.3147 11.3779C21.3173 11.4107 21.325 11.4531 21.3231 11.4762C21.289 11.8195 21.2389 12.2515 20.9142 12.3216C20.8923 12.3282 20.8696 12.3319 20.8467 12.3325C20.335 12.3293 19.8927 11.6299 19.6664 11.2635C19.4323 10.8936 19.2483 10.4944 19.1194 10.0761C19.0506 9.85561 19.0229 9.21211 19.0004 8.97939C18.9972 8.94082 18.9934 8.70039 18.9914 8.66889C18.9914 8.65539 18.9863 8.63739 18.9766 8.63739C18.9503 8.63739 18.9098 8.85596 18.8956 8.91189C18.8487 9.09703 18.8359 9.50203 18.8359 9.66725C18.8359 10.1269 18.9721 10.5878 19.1592 10.9902C19.2711 11.2345 19.5166 11.7205 19.6542 11.9532C19.6954 12.022 19.7982 12.1551 19.7911 12.2059C19.7764 12.3242 19.5514 12.3216 19.4794 12.3428C19.1258 12.3949 18.6539 12.3492 18.2393 12.2348C17.8394 12.1236 17.4679 11.9937 17.1374 11.788C17.1021 11.7597 17.0629 11.7366 17.0397 11.7025C16.5994 11.3554 16.3345 10.5647 16.2394 9.96039C16.2286 9.87545 16.2215 9.79008 16.2181 9.70453C16.2586 9.69425 16.2927 9.68396 16.3287 9.67625C16.7935 9.55861 17.4196 9.15425 17.7687 8.93696C17.8883 8.86432 18.0059 8.78782 18.1133 8.69782C18.1261 8.68689 18.13 8.68111 18.1261 8.67661C18.1249 8.67339 18.1152 8.67468 18.1024 8.67982C17.5977 8.83732 16.9246 9.25325 16.4541 9.37411C16.42 9.38311 16.2889 9.41782 16.2027 9.43261C16.2027 9.38696 16.2053 9.29761 16.2059 9.27703C16.2072 9.22239 16.2046 9.17161 16.2046 9.12532C16.258 9.08932 16.312 9.03275 16.3866 8.97553C16.7896 8.65861 17.0584 7.75025 17.3348 7.30218C17.338 7.29832 17.347 7.28289 17.3438 7.28032C17.3399 7.27711 17.3329 7.28161 17.3219 7.28675C16.8366 7.51561 16.6064 8.51461 16.1731 8.80003C15.8196 9.03339 15.376 9.21146 15.1369 9.54061C15.1099 9.57918 15.0494 9.72253 15.0006 9.73603C14.9813 9.74053 14.9106 9.80353 14.8739 9.78296C14.7447 9.70518 14.6284 9.45768 14.5396 9.31818C14.4124 9.11503 14.4471 8.52296 14.4734 8.30311C14.5146 7.96432 14.7949 7.52653 14.9588 7.24689C14.962 7.24046 14.9646 7.23789 14.962 7.23532C14.9601 7.23275 14.9556 7.23596 14.9491 7.23853C14.8836 7.26425 14.7241 7.40825 14.6978 7.43718C14.4696 7.69753 14.1758 8.13146 14.152 8.49146C14.1282 8.83153 14.2214 9.58753 14.4439 9.81061C14.4824 9.85882 14.5236 9.89996 14.5724 9.93596C14.8437 10.179 14.9697 10.5402 15.1086 10.8912C15.1523 11.007 15.1999 11.097 15.2757 11.2017C15.5232 11.5733 15.9944 11.7739 16.4155 11.9828C16.8154 12.1802 17.284 12.3846 17.7334 12.5267C18.0162 12.6167 18.3904 12.708 18.7285 12.7697C18.8571 12.7947 18.9702 12.8185 19.0345 12.8725C19.0801 12.9111 19.1091 13.0718 19.1354 13.1509C19.1676 13.2531 19.2061 13.3521 19.2338 13.4292C19.3084 13.6369 19.354 13.8362 19.4318 13.9872C19.5411 14.1885 19.8008 14.2752 20.0399 14.364C20.0708 14.3691 20.2174 14.4135 20.389 14.4038C20.4983 14.4 20.5131 14.5305 20.5073 14.5928C20.5021 14.6815 20.515 14.7407 20.5131 14.8287C20.5086 15.057 20.5279 15.0576 20.4989 15.253C20.4925 15.2974 20.4398 15.4343 20.4038 15.5468C20.3961 15.5642 20.3858 15.5815 20.3826 15.5976C20.3588 15.7069 20.3459 15.9107 20.3099 16.0219C20.2778 16.1376 20.1351 16.4931 20.0991 17.0344C20.0843 17.253 20.0033 17.46 19.9043 17.6695C19.8574 17.7685 19.8657 17.8225 19.8297 17.9331C19.7918 18.0495 19.7706 18.1388 19.7314 18.1999C19.6969 18.2543 19.6566 18.3047 19.6111 18.3503C19.4199 18.493 19.24 18.6504 19.0731 18.8209C19.0011 18.8922 18.9252 19.0729 18.8577 19.1102C18.8127 19.1352 18.5556 19.2972 18.4945 19.3159C18.1107 19.4303 18.0214 19.494 17.7154 19.6836C17.0551 20.0918 12.4838 20.0719 12.5686 23.2669C12.5686 23.3029 12.559 23.3768 12.5494 23.454C12.5278 23.6337 12.5326 23.8156 12.5635 23.994C12.6355 24.4472 12.7615 24.8644 12.9286 25.2115C13.2141 25.8017 13.4796 26.1437 13.9013 26.5236C14.008 26.62 14.1308 26.6991 14.2356 26.8013C14.4458 27.007 14.5564 27.4017 14.7164 27.6717C14.7338 27.6897 14.71 28.2336 14.71 28.2394C14.7061 28.2548 14.6997 28.3487 14.6881 28.456C13.0161 28.7325 11.2855 28.8803 9.71436 28.9999V30.2856H24.5001V25.7856C24.3998 25.8094 23.6425 26.008 23.2253 26.1636C23.2542 26.1009 23.2804 26.037 23.3037 25.972C23.3924 25.7033 23.4484 25.4127 23.5461 25.2051C23.6104 25.0701 23.7711 24.6503 23.7711 24.6503C23.9125 24.1997 23.971 23.9046 24.0218 23.6089C24.0301 23.5446 24.2468 23.2752 24.2468 23.2752C24.3111 23.1917 24.3625 23.0785 24.4339 22.9757C24.4339 22.9757 24.7829 22.2512 24.7746 21.6237C24.7707 21.508 24.8067 20.9892 24.8029 20.5386C24.8054 20.5129 24.8093 20.4897 24.8093 20.4602C24.809 20.3713 24.8026 20.2826 24.79 20.1947C24.7874 20.1773 24.7881 20.1587 24.7868 20.142C24.7688 20.0262 24.7945 19.798 24.7887 19.6952C24.781 19.5589 24.7334 19.5737 24.7231 19.4335C24.7161 19.3384 24.6846 19.2651 24.6608 19.1757C24.6428 19.1102 24.6055 19.0517 24.5746 18.9932C24.5702 18.9676 24.5672 18.9419 24.5656 18.916C24.583 18.4307 24.2584 17.8527 24.2506 17.8322C24.0964 17.4786 24.1137 17.4657 24.1394 17.0325C24.1221 16.5027 24.034 16.216 23.9806 16.081C23.9588 16.0688 23.7942 15.7165 23.7409 15.6015C23.7199 15.5556 23.7149 15.504 23.7267 15.4549C23.7627 15.3038 24.0263 15.2595 24.133 15.1875C24.2011 15.1425 24.277 15.0261 24.3085 14.9419C24.3119 14.9335 24.3136 14.9246 24.3136 14.9155V14.7535C24.3136 14.7407 24.3046 14.7317 24.3027 14.7201C24.2982 14.6957 24.3059 14.6584 24.304 14.6314C24.304 14.6224 24.304 14.6147 24.3059 14.6076C24.3991 14.3215 24.4949 14.0695 24.2224 13.9262C24.1105 13.8664 23.9588 13.8413 23.9652 13.7282C23.9691 13.6427 24.079 13.6112 24.1439 13.5694C24.3169 13.4569 24.4345 13.3521 24.5322 13.1927C24.5734 13.122 24.5734 12.9362 24.6235 12.888C24.6576 12.8539 24.7534 12.8243 24.8176 12.7909C25.0246 12.6842 25.2284 12.6147 25.4129 12.508C25.9131 12.2232 26.4524 11.6762 26.8369 11.2821C27.0265 11.0886 27.3312 10.7389 27.4707 10.4862C27.5826 10.2825 27.6822 9.78361 27.6957 9.51425C27.6989 9.44996 27.7144 9.23525 27.7144 9.22496C27.7137 9.21468 27.7131 9.20311 27.7079 9.20311C27.7034 9.20182 27.6976 9.20696 27.6957 9.21275C27.5626 9.53611 27.4354 10.125 27.2277 10.3982C27.0734 10.5987 26.608 11.1162 26.3791 11.2628L26.3483 11.2821C26.3547 11.2647 26.3656 11.2403 26.3708 11.2242C26.3802 11.1987 26.3866 11.1722 26.3901 11.1452C26.4428 10.8186 26.5951 10.5878 26.5951 10.035C26.5951 9.98161 26.6954 9.88518 26.7211 9.84146C26.8973 9.54318 26.9179 9.13753 26.8677 8.83218C26.8349 8.63096 26.5399 8.11089 26.4306 7.98746C26.4209 7.97525 26.2506 7.76825 26.2261 7.79396C26.2152 7.80168 26.2332 7.84411 26.2422 7.86082ZM15.4879 9.58818C15.5991 9.45061 15.8556 9.30018 15.9565 9.23782C15.968 9.23067 15.9792 9.22294 15.9899 9.21468C15.9764 9.33232 15.9687 9.43968 15.9604 9.49046C15.9044 9.51168 15.8067 9.54511 15.7064 9.58175C15.646 9.60296 15.5676 9.65118 15.4782 9.67561C15.4094 9.69296 15.4589 9.62482 15.4879 9.58818ZM15.7816 11.1934C15.7422 11.1617 15.7062 11.126 15.6743 11.0867C15.5547 10.978 15.4621 10.7826 15.4107 10.5891C15.3111 10.2124 15.2082 10.2882 15.4403 10.0555C15.4975 9.99511 15.5894 9.93468 15.6936 9.87939C15.7585 9.84725 15.8491 9.80096 15.9102 9.78489C15.9289 9.77975 15.9366 9.77653 15.9681 9.77011C15.9713 9.81061 15.9758 9.86911 15.9771 9.93725C16.0156 10.5576 16.1179 11.0378 16.3763 11.4955C16.1722 11.4068 15.9737 11.3059 15.7816 11.1934ZM20.4089 13.0223C20.3819 12.9998 20.2707 12.9812 20.299 12.8925C20.3086 12.8648 20.371 12.8449 20.389 12.8436C20.5729 12.8089 20.8763 12.897 20.7766 13.0718C20.7766 13.0718 20.6166 13.1805 20.6082 13.1811C20.6082 13.1811 20.5343 13.1509 20.5189 13.1419C20.4739 13.1123 20.4372 13.0429 20.4089 13.0223ZM16.1494 28.1963C16.1969 28.0485 16.2779 27.8916 16.4316 27.7386C16.4714 27.6994 16.8121 27.3465 16.8526 27.2925C16.9857 27.1189 17.0089 27.0816 17.1651 26.73C17.2049 26.6406 17.2617 26.5599 17.3322 26.4921C17.7674 26.2864 18.2001 26.46 18.4154 26.4027C18.5761 26.3603 18.5479 26.2375 18.58 26.0897C18.6443 26.0858 18.7124 26.0833 18.7844 26.0826C18.9387 26.0813 19.1026 26.0389 19.2473 26.019L19.5449 25.9778C19.921 25.9245 20.0219 25.8473 20.0219 25.8473C20.2887 25.7785 20.56 25.6885 20.6764 25.5992C20.7985 25.6146 20.8641 25.8949 20.9515 26.0415C21.0383 26.1893 21.0479 26.2433 21.1276 26.3462C21.1354 26.3558 21.2389 26.577 21.3462 26.8238C20.1531 27.3098 18.2586 27.7945 16.1494 28.1963ZM22.5143 25.0907C22.504 25.1942 22.4899 26.1231 22.4757 26.4387C22.3381 26.4876 22.2443 26.5185 22.1736 26.539C22.1003 26.269 22.0071 25.5985 21.982 25.5407C21.8965 25.3452 21.8933 25.1935 21.8689 24.9319C22.0874 24.928 22.3092 24.9113 22.5066 24.8689C22.5149 24.9332 22.522 24.9897 22.5207 25.0058C22.5207 25.0219 22.5162 25.074 22.5143 25.0907ZM26.0127 11.4107C25.8584 11.7945 25.3268 12.1133 24.8858 12.2637C24.763 12.3049 24.4975 12.4579 24.4165 12.4013C24.3844 12.3769 24.5541 12.2361 24.5926 12.2046C24.9758 11.8973 25.4772 11.6659 25.8591 11.3753C25.9516 11.3027 26.0339 11.239 26.0519 11.2204C26.0481 11.259 26.0468 11.3277 26.0127 11.4107ZM26.0076 10.7755C25.6283 11.2448 24.8311 11.4859 24.3991 11.788C24.2879 11.8645 24.1979 11.9667 24.0385 12.0696C23.9903 12.0985 23.8321 12.1969 23.7248 12.2457C23.7139 12.2502 23.6605 12.2952 23.6476 12.2727C23.6219 12.2387 23.7955 12.0432 23.8135 12.0207C24.2526 11.4576 24.6537 10.908 24.7392 10.0562C24.7575 9.89357 24.7631 9.72979 24.7559 9.56632C24.7932 9.56632 24.8395 9.56825 24.8858 9.57018C25.4251 9.59525 26.1406 9.64732 26.2133 10.1809C26.2474 10.4322 26.1169 10.6392 26.0076 10.7755Z" fill="#95013D"/>
<path d="M20.7432 15.7495C20.814 15.6981 20.769 15.3252 20.769 15.3143C20.769 15.3066 20.7182 15.3664 20.6963 15.4004C20.6738 15.4352 20.695 15.5875 20.695 15.592C20.695 15.5978 20.6963 15.6139 20.6976 15.6203C20.6995 15.6248 20.695 15.6306 20.6886 15.6332C20.6828 15.6351 20.6597 15.6653 20.6108 15.7039C20.6108 15.7039 20.553 15.8903 20.7432 15.7495ZM24.1581 14.9003C24.0713 14.8193 24.106 14.9292 24.0424 14.9582C23.9524 15.0096 23.872 14.9839 23.7306 14.9582C23.5082 14.7621 23.197 15.0887 22.9129 14.9357C22.8872 14.8971 22.9283 14.8669 22.9502 14.8386C23.2028 14.818 23.0337 14.8952 23.2986 14.8399C23.2986 14.8399 23.4143 14.827 23.404 14.7949C23.395 14.7659 23.2047 14.8457 22.9907 14.7422C22.7644 14.7171 22.9135 14.935 22.7483 14.9871C22.6853 15.007 22.7374 15.1112 22.7901 15.0842C22.8422 15.0572 22.8987 14.9819 23.1115 15.0353C23.2247 15.1542 23.2787 14.8874 23.3622 15.1343C23.3796 15.1844 23.4117 15.1292 23.4117 15.1292C23.404 15.0764 23.4272 15.0565 23.4503 15.0295C23.4773 15.0597 23.4979 15.1131 23.5525 15.1144L23.5911 14.9916C23.6464 15.0623 23.7505 15.0989 23.8527 15.0983C23.973 15.0392 24.1703 15.0668 24.1581 14.9003ZM22.9296 13.6204C22.9842 13.675 23.0922 13.6724 23.1495 13.6345C23.2099 13.5934 23.2395 13.6397 23.3037 13.6294C23.3693 13.6184 23.1758 13.4815 23.1623 13.5394C23.154 13.5882 23.1186 13.5529 23.0723 13.5741C23.0093 13.5831 22.981 13.5085 22.9373 13.4809C22.9354 13.4455 22.9553 13.4224 22.981 13.3973L23.0055 13.3761C23.0582 13.3272 23.0659 13.2925 23.0215 13.2314C22.9733 13.2912 22.9328 13.2777 22.8666 13.2777C22.7862 13.2803 22.7522 13.3124 22.7509 13.3947C22.7747 13.4372 22.8447 13.4577 22.8248 13.5085C22.7907 13.5812 22.6872 13.5535 22.6435 13.5278C22.5085 13.5599 22.369 13.5792 22.2957 13.7149C22.3446 13.7342 22.3716 13.7297 22.4082 13.693L22.4404 13.6634C22.452 13.6519 22.4629 13.6461 22.477 13.6461C22.6403 13.5882 22.8087 13.7567 22.9296 13.6204ZM21.4478 13.7747C21.3938 13.7657 21.3707 13.7464 21.3237 13.7483C21.271 13.7502 21.4157 13.882 21.4317 13.8878C21.4703 13.9013 21.6072 13.9219 21.6272 13.9219C21.7416 13.9077 21.7641 13.8055 21.8091 13.7483C21.7384 13.7984 21.57 13.7939 21.4478 13.7747ZM21.5892 13.4969C21.5018 13.3748 21.3482 13.5047 21.2524 13.5535C21.3102 13.7489 21.462 13.4873 21.5892 13.4969ZM23.1951 14.0826C23.1771 14.1874 23.145 14.2774 23.208 14.3757C23.244 14.3989 23.404 14.5339 23.6477 14.4876C23.9003 14.5204 23.7531 14.1488 24.0964 14.2317C24.1954 14.2562 24.1272 14.1649 24.2076 14.1122C24.2076 14.1122 24.241 14.0787 24.2037 14.0684C24.1665 14.0582 24.1395 14.0498 24.0829 14.1289C23.8765 14.1327 23.6457 13.9334 23.4953 14.1552C23.575 14.2015 23.6837 14.0575 23.7705 14.1681C23.7731 14.1933 23.7707 14.2189 23.7634 14.2432C23.7561 14.2675 23.744 14.2901 23.7278 14.3096C23.7116 14.3292 23.6917 14.3454 23.6693 14.3572C23.6468 14.3689 23.6222 14.3761 23.5969 14.3783C23.5141 14.3859 23.4309 14.3703 23.3565 14.3333C23.2118 14.2832 23.296 14.1829 23.2857 14.1019C23.3532 13.9752 23.5005 14.0196 23.5969 13.9457C23.4516 13.9135 23.2549 13.9302 23.1951 14.0826ZM21.3475 15.0964C21.3572 15.0919 21.3694 15.0899 21.381 15.0854C21.3636 15.0634 21.3422 15.0448 21.318 15.0308L21.0737 14.9202C21.0724 14.9183 21.0717 14.9183 21.0717 14.9151C21.0552 14.9071 21.0397 14.8972 21.0255 14.8855C21.0224 14.87 21.0177 14.8549 21.0113 14.8405C21.0049 14.8277 20.9959 14.818 20.9875 14.8052C20.9862 14.7987 20.9856 14.7942 20.9837 14.7891C20.9811 14.7884 20.9779 14.7884 20.9766 14.7872C20.9727 14.7827 20.9715 14.7775 20.9663 14.773L20.9644 14.7287C21.0222 14.746 21.1302 14.7994 21.1752 14.8399L21.2074 14.8379C21.1752 14.7614 21.0769 14.7242 21.0255 14.6605C20.9901 14.6155 20.9727 14.5589 20.9335 14.5152L20.931 14.494C20.9808 14.5063 21.027 14.5301 21.066 14.5634L21.0987 14.5615C21.0565 14.4909 21.0074 14.4245 20.9522 14.3635C20.9586 14.3494 20.9689 14.3365 20.9715 14.3224C20.9779 14.2684 20.9329 14.1527 20.9007 14.1038C20.8453 14.1467 20.7945 14.1952 20.749 14.2484L20.7522 14.2542C20.7715 14.3249 20.7683 14.4066 20.7432 14.4805C20.7542 14.8624 21.0595 15.0649 21.2935 15.1594C21.3385 15.1703 21.3835 15.1819 21.4285 15.187C21.4452 15.187 21.462 15.1915 21.4793 15.1947C21.4665 15.178 21.4549 15.1639 21.442 15.1459C21.4099 15.1317 21.3887 15.1112 21.3475 15.0964Z" fill="white"/>
<path d="M22.0206 13.2607L21.9229 13.1887C21.831 13.1232 21.7538 13.1026 21.6265 13.0737C21.3482 13.037 21.1868 13.1373 21.0255 13.3276L21.057 13.345C21.1219 13.2408 21.19 13.2292 21.2987 13.1804C21.361 13.1727 21.5372 13.129 21.588 13.2112C21.4787 13.235 21.3006 13.2607 21.255 13.3835C21.3192 13.3327 21.4497 13.3064 21.532 13.3289C21.5847 13.3546 21.642 13.3977 21.6998 13.4375C21.7133 13.4478 21.7294 13.4542 21.7442 13.4639C21.7345 13.4677 21.7204 13.4735 21.7172 13.4793C21.6593 13.6085 21.8554 13.6105 21.8509 13.5102C21.883 13.5219 21.9174 13.5263 21.9514 13.5229C21.9855 13.5196 22.0184 13.5086 22.0476 13.4909C22.1376 13.4125 22.0579 13.3096 22.0206 13.2607ZM20.5073 13.4195C20.497 13.4092 20.499 13.3745 20.4893 13.3591C20.4244 13.2787 20.3402 13.2543 20.2605 13.2016C20.1975 13.1611 20.1402 13.0942 20.0695 13.0422C19.8805 12.893 19.6677 12.7021 19.4228 12.6442C19.3746 12.634 19.2576 12.6295 19.2435 12.6442C19.2036 12.6944 19.3122 12.9355 19.3225 12.9824C19.3335 13.0197 19.3225 13.0595 19.3335 13.102C19.3759 13.282 19.5135 13.559 19.572 13.7281C19.6125 13.8425 19.6105 13.9229 19.6613 13.975C19.7352 14.0495 19.986 14.1145 20.1402 14.1357C20.1782 14.1382 20.2913 14.1537 20.3087 14.1434C20.3331 14.1337 20.4077 13.9666 20.3794 13.9261C20.3318 13.8586 20.1197 13.9415 20.0187 13.9357C19.8696 13.9293 19.9172 13.8637 19.8709 13.7281C19.8182 13.5738 19.6851 13.4639 19.6221 13.3C19.6054 13.2543 19.6047 13.1894 19.5835 13.1212C19.5758 13.1039 19.5051 13.0042 19.5514 12.9727C19.5771 12.9535 19.6915 13.0859 19.7121 13.1283C19.7224 13.1508 19.7558 13.3758 19.7918 13.37C19.8304 13.3623 19.8227 13.118 19.8805 13.1502C19.905 13.1643 19.8612 13.3732 19.9088 13.4092C19.9377 13.4311 19.9924 13.3996 20.0117 13.3488C20.0348 13.3334 20.0072 13.2659 20.04 13.2607C20.1062 13.2691 20.0708 13.559 20.1814 13.5179C20.2283 13.5012 20.1801 13.381 20.2193 13.37C20.2579 13.3591 20.3067 13.5404 20.3093 13.559C20.3106 13.5719 20.3055 13.6362 20.3093 13.6381C20.3852 13.6908 20.3742 13.4812 20.4006 13.4677C20.4077 13.4645 20.5697 13.6053 20.5677 13.5989C20.5742 13.6477 20.4527 13.6927 20.4495 13.7069C20.4225 13.7885 20.5362 13.8695 20.5587 13.8657C20.6115 13.8592 20.6352 13.7204 20.6667 13.7069C20.6899 13.696 20.715 13.6362 20.6886 13.6079C20.6597 13.4793 20.5755 13.4857 20.5073 13.4195ZM15.9855 24.2735C15.9218 24.2459 15.927 24.325 15.8678 24.3442L15.8312 24.3513C15.7605 24.3706 15.763 24.3777 15.8022 24.476C15.934 24.5448 15.997 24.4773 16.0382 24.3391C16.0382 24.3391 16.0497 24.2986 15.9855 24.2735ZM15.5316 24.514C15.4647 24.5448 15.4609 24.595 15.466 24.6573L15.4692 24.7023C15.5097 24.7396 15.5393 24.7473 15.5805 24.7248L15.6036 24.7075L15.6255 24.694C15.6589 24.667 15.6235 24.6901 15.6885 24.6528C15.754 24.6162 15.7225 24.5872 15.6499 24.5525C15.6158 24.5358 15.5715 24.5287 15.5316 24.514ZM16.546 24.3732L16.5216 24.404L16.4959 24.4336C16.4791 24.4564 16.4606 24.4779 16.4406 24.4979L16.5197 24.5673C16.6328 24.5101 16.6907 24.4278 16.6965 24.3134L16.6862 24.314C16.6337 24.3157 16.5838 24.3368 16.546 24.3732ZM17.9931 23.9187C17.8671 23.938 17.7591 23.8885 17.6807 24.0112L17.727 24.0505C17.8388 24.1128 17.9391 24.0492 18.0355 24.0119C18.0503 23.9656 18.0355 23.9515 17.9931 23.9187ZM17.5476 24.2806C17.5238 24.3243 17.5341 24.3513 17.5572 24.397L17.5797 24.3777C17.6434 24.3288 17.7855 24.3944 17.7932 24.2395C17.725 24.2195 17.6768 24.1822 17.5977 24.2073C17.5773 24.229 17.5604 24.2537 17.5476 24.2806ZM17.5245 24.5339C17.4505 24.5287 17.367 24.5744 17.403 24.6316C17.457 24.7216 17.5521 24.676 17.6357 24.6702L17.6479 24.638C17.6215 24.622 17.6119 24.62 17.5855 24.6052C17.5584 24.5886 17.537 24.5632 17.5245 24.5339ZM17.1188 24.0325C17.1065 24.0608 17.0883 24.0862 17.0653 24.107C17.0424 24.1277 17.0152 24.1433 16.9857 24.1527L16.9446 24.1739C16.8932 24.1996 16.8739 24.2086 16.8758 24.2459C16.8758 24.2542 16.8765 24.2613 16.879 24.2742L16.908 24.2915L16.9324 24.3082C16.94 24.2975 16.9502 24.2888 16.9619 24.2828C16.9737 24.2769 16.9867 24.2739 16.9999 24.2742H17.0436C17.0475 24.2742 17.0513 24.2742 17.0552 24.2755L17.0918 24.2703C17.1323 24.1912 17.2422 24.1784 17.2332 24.1141C17.232 24.1012 17.2288 24.0887 17.2236 24.0768C17.212 24.0472 17.1497 24.0344 17.1188 24.0325ZM14.3828 24.487C14.4651 24.4889 14.5133 24.3301 14.602 24.2967C14.6985 24.2703 14.7846 24.2234 14.8701 24.1822C14.8814 24.1599 14.8988 24.1412 14.9203 24.1285C14.9419 24.1157 14.9666 24.1094 14.9916 24.1102C15.063 24.1102 15.142 24.1456 15.223 24.1443C15.2513 24.1443 15.2796 24.1379 15.3143 24.125C15.3771 24.1265 15.4398 24.1196 15.5007 24.1045L15.5297 24.0948L15.5162 24.1244C15.4939 24.1794 15.4526 24.2246 15.3998 24.2517C15.3746 24.2708 15.3434 24.2804 15.3117 24.2787C15.2552 24.2787 15.1896 24.2594 15.1407 24.2594C15.0842 24.3385 14.9337 24.3397 14.9421 24.4432C14.9434 24.4561 14.946 24.4702 14.9498 24.4831C14.9627 24.5101 14.9871 24.5197 15.0192 24.5197C15.0321 24.5197 15.0456 24.5185 15.0591 24.5133C15.1523 24.3089 15.5046 24.5172 15.63 24.2542C15.7103 24.0241 16.0176 23.8576 16.1057 23.8261C16.1095 23.8229 16.1095 23.8197 16.1095 23.8145C16.1102 23.7952 16.0665 23.7586 16.062 23.7142C16.0616 23.7041 16.0637 23.694 16.068 23.6848C16.0724 23.6756 16.0789 23.6676 16.087 23.6615L16.1295 23.6281L16.1372 23.632C16.2105 23.6705 16.2683 23.72 16.339 23.7412C16.3642 23.7463 16.3898 23.7489 16.4155 23.749C16.5197 23.747 16.5602 23.6943 16.5595 23.6564C16.5576 23.6262 16.5312 23.5972 16.4637 23.5972C16.4586 23.5972 16.4509 23.5972 16.4374 23.5992C16.3982 23.5857 16.3455 23.5837 16.3024 23.5709C16.2863 23.5645 16.2735 23.5683 16.267 23.5452C16.2657 23.533 16.2715 23.5297 16.2818 23.5195C16.3339 23.4982 16.3866 23.4835 16.4412 23.4603C16.7376 23.3446 16.5807 23.2675 16.6823 23.1775C16.7109 23.1558 16.7462 23.1448 16.782 23.1466C16.8282 23.1466 16.879 23.155 16.9272 23.155C16.9851 23.1524 17.0404 23.1408 17.0854 23.0842C17.106 23.0585 17.1265 23.0328 17.124 23.0045C17.1235 22.988 17.1179 22.972 17.1079 22.9589C17.0989 22.9525 17.0918 22.9441 17.0841 22.9351L17.0802 22.9287V22.9229C17.1015 22.7898 17.1452 22.7461 17.1407 22.649C17.1387 22.6169 17.0905 22.6053 17.0751 22.5558C16.9748 22.6072 16.9677 22.6375 16.8912 22.7017C16.8977 22.786 16.9131 22.8046 16.9375 22.883L16.9427 22.901L16.9247 22.8997H16.9112C16.888 22.9023 16.8861 22.9023 16.861 22.9261L16.8829 23.0097L16.8591 23.0039C16.8325 22.9944 16.8044 22.9901 16.7762 22.991C16.6701 22.991 16.6039 23.0656 16.5428 23.1408C16.4702 23.2347 16.411 23.3285 16.2657 23.3298H16.2458C16.2252 23.3806 16.2002 23.4031 16.1494 23.4288L16.107 23.4494C16.0555 23.4712 15.9996 23.4989 15.9822 23.5606L15.9797 23.5696H15.9707C15.7971 23.5876 15.8575 23.722 15.8048 23.837L15.801 23.8435L15.7926 23.8454C15.7733 23.8467 15.754 23.8505 15.7386 23.8525L15.6634 23.9071C15.54 23.9328 15.3767 23.9875 15.2282 23.9907C15.1773 23.9909 15.1268 23.9831 15.0784 23.9675C15.072 23.9785 15.0565 24.0042 15.0282 24.0061C15.0216 24.0062 15.0149 24.0046 15.009 24.0016L14.9768 23.9875C14.9608 23.9793 14.9433 23.9743 14.9254 23.9727C14.9082 23.974 14.8915 23.979 14.8765 23.9875C14.7621 23.9932 14.7737 24.071 14.7113 24.1437C14.674 24.1842 14.647 24.2047 14.6187 24.2047C14.5744 24.2035 14.55 24.1636 14.5114 24.1244C14.467 24.0865 14.4336 24.0697 14.3912 24.0697C14.3696 24.0702 14.3483 24.0735 14.3275 24.0794C14.2613 24.1887 14.1585 24.1867 14.0967 24.2613C14.0967 24.2626 14.0742 24.3082 14.0775 24.3359C14.0794 24.3513 14.0794 24.3545 14.0974 24.3552C14.1148 24.3536 14.1318 24.3497 14.1482 24.3436C14.1991 24.3053 14.258 24.2789 14.3205 24.2665L14.3269 24.2652L14.332 24.2684C14.3455 24.2787 14.3539 24.2922 14.3539 24.3057C14.3526 24.3539 14.3044 24.4079 14.3044 24.4516C14.3365 24.478 14.3622 24.487 14.3828 24.487ZM15.2237 22.0004C15.1157 22.0036 15.0353 22.0492 15.0392 22.1238C15.0403 22.1446 15.0456 22.1649 15.0546 22.1836L15.088 22.1662L15.0912 22.165C15.116 22.1658 15.1408 22.1625 15.1645 22.1553C15.2494 22.0447 15.484 21.9663 15.522 21.9085C15.5181 21.8872 15.5155 21.8596 15.5085 21.8442L15.5072 21.8422C15.4956 21.8101 15.4853 21.8024 15.4532 21.7998C15.4371 21.8384 15.3291 22.0017 15.27 22.0075C15.2604 22.0065 15.2511 22.0042 15.2423 22.0004H15.2237ZM15.1035 21.7432C15.0604 21.7754 15.036 21.8017 14.9877 21.8307L14.989 21.8332C15.0019 21.8602 15.0597 21.8737 15.0842 21.8718H15.0855C15.144 21.8667 15.2275 21.751 15.234 21.7195C15.2179 21.7134 15.201 21.7102 15.1838 21.7098C15.1581 21.7098 15.135 21.7195 15.1035 21.7432Z" fill="white"/>
<path d="M13.9836 23.8216C13.9836 23.8267 13.9855 23.8318 13.9836 23.8344C14.0099 23.8582 14.0286 23.8743 14.0543 23.873C14.0678 23.873 14.0864 23.8685 14.107 23.8582C14.1153 23.8531 14.1243 23.8466 14.1346 23.8466C14.1475 23.8466 14.1571 23.8531 14.1693 23.8595C14.2085 23.8881 14.2559 23.9033 14.3043 23.9026C14.3526 23.9026 14.3963 23.8871 14.4368 23.8801C14.4798 23.8653 14.5686 23.8621 14.6811 23.8466L14.7441 23.8306C14.7761 23.8294 14.8076 23.8217 14.8366 23.8082C14.8656 23.7946 14.8917 23.7753 14.9131 23.7515C14.9518 23.7279 14.9964 23.7157 15.0417 23.7161C15.1323 23.7161 15.2178 23.7489 15.3033 23.7573C15.4107 23.7316 15.5733 23.6371 15.565 23.513C15.5629 23.4952 15.5586 23.4777 15.5521 23.4609L15.5489 23.4519L15.5553 23.4455C15.5811 23.4185 15.6036 23.3786 15.6286 23.3478L15.6531 23.3169C15.6775 23.2899 15.7045 23.2726 15.7392 23.2719C15.7598 23.2724 15.7804 23.2754 15.8003 23.2809C15.9051 23.2822 16.0683 23.0791 16.1686 23.0591C16.2593 23.0411 16.267 22.9981 16.2946 22.9447L16.3178 22.9196C16.339 22.8733 16.3801 22.8643 16.4322 22.8618C16.4489 22.7788 16.4811 22.7621 16.5633 22.7274C16.654 22.6837 16.6906 22.6676 16.7176 22.577C16.7003 22.5146 16.6688 22.3835 16.6122 22.3899C16.6013 22.3899 16.5897 22.3944 16.5801 22.3963C16.5595 22.4433 16.5621 22.4915 16.5524 22.5371C16.5267 22.6207 16.4958 22.6689 16.4013 22.6766C16.2355 22.8245 16.0889 22.9048 15.9481 23.0662L15.9417 23.072L15.9346 23.0701C15.9182 23.0678 15.9017 23.0665 15.8851 23.0662C15.709 23.0662 15.5688 23.2745 15.412 23.3176L15.4068 23.3195L15.4023 23.3169C15.3876 23.3073 15.3876 23.2944 15.3856 23.2783C15.3876 23.2745 15.3856 23.2693 15.3843 23.2655V23.2526C15.3843 23.2397 15.3835 23.2268 15.3818 23.2141C15.3946 23.1781 15.4178 23.1511 15.4525 23.1421L15.484 23.1234C15.5489 23.0977 15.5663 23.072 15.5701 23.0051C15.565 22.9948 15.5656 22.9936 15.5496 22.9936C15.5103 22.9916 15.3882 23.0463 15.0636 23.2475L15.0565 23.252L15.0501 23.2475C15.0263 23.2295 15.0237 23.2038 15.0108 23.1748C15.0032 23.1607 14.9916 23.1491 14.9774 23.1414C14.9369 23.1549 14.9009 23.1607 14.8791 23.1838L14.8726 23.189L14.8656 23.1858C14.8312 23.1697 14.7941 23.1603 14.7563 23.1581C14.6136 23.1523 14.6406 23.3793 14.4593 23.3889C14.437 23.3893 14.4149 23.386 14.3937 23.3793C14.3545 23.3613 14.3391 23.3323 14.3371 23.3053C14.3358 23.2623 14.3583 23.2211 14.3564 23.198C14.3558 23.1838 14.3506 23.1742 14.2851 23.1742L14.2542 23.1748C14.2298 23.1761 14.2311 23.1806 14.2047 23.1941L14.152 23.2205C14.1123 23.2426 14.0825 23.2789 14.0684 23.3221C14.0009 23.3876 13.8595 23.36 13.8678 23.4718C13.8678 23.4796 13.8698 23.4898 13.8711 23.4982C13.8826 23.5226 13.9013 23.5278 13.9341 23.5278H13.9591C13.9848 23.5136 14.0253 23.4808 14.0684 23.4796C14.0941 23.4796 14.1224 23.4943 14.1308 23.5201L14.1758 23.5342L14.2388 23.5278C14.2518 23.5116 14.2682 23.4985 14.2869 23.4894C14.3056 23.4803 14.326 23.4754 14.3468 23.4751C14.422 23.4751 14.4946 23.5201 14.5589 23.5201C14.6001 23.5188 14.638 23.5033 14.6746 23.4436L14.6823 23.432L14.6933 23.441C14.7158 23.4571 14.7338 23.4609 14.7486 23.4609C14.7903 23.4622 14.8257 23.4095 14.8553 23.3683C14.8676 23.3485 14.8861 23.3334 14.908 23.3253C15.0719 23.3529 15.259 23.3073 15.4101 23.4371L15.4152 23.441V23.45C15.4152 23.5548 15.2468 23.5683 15.1844 23.6004L15.1748 23.6049L15.1671 23.5946C15.142 23.5541 15.1156 23.5445 15.0873 23.5445C15.0689 23.5453 15.0508 23.5496 15.034 23.5573L14.9973 23.5734C14.9806 23.5766 14.9665 23.5798 14.9543 23.5798C14.9318 23.5798 14.9138 23.5721 14.8913 23.5541C14.7691 23.5753 14.7781 23.6313 14.6894 23.7071C14.6711 23.7115 14.6523 23.7136 14.6335 23.7136C14.5197 23.7148 14.4696 23.6409 14.3583 23.6428C14.3346 23.6428 14.3088 23.6467 14.2851 23.6493C14.2433 23.7013 14.1963 23.7193 14.1346 23.7457L14.1269 23.7476C14.0504 23.7721 13.9765 23.7759 13.9836 23.8216ZM13.8492 24.4143C13.8473 24.3693 13.8171 24.2947 13.8016 24.2465L13.6422 24.3519C13.6223 24.4258 13.5663 24.4618 13.6525 24.53L13.684 24.5017C13.6994 24.5011 13.7155 24.5146 13.7258 24.5203C13.7971 24.5107 13.8511 24.4837 13.8492 24.4143ZM13.6853 24.0478L13.7181 24.0697C13.7663 24.1057 13.8055 24.1121 13.8582 24.0742C13.8582 24.0241 13.8363 23.9971 13.7952 23.9649L13.7656 23.9418C13.7084 23.9077 13.693 23.8903 13.7091 23.8306C13.6191 23.8132 13.5998 23.8479 13.54 23.8903C13.5252 23.8999 13.5092 23.9075 13.4924 23.9128C13.4706 24.0138 13.4403 24.0639 13.4751 24.1668L13.5869 24.0633C13.6191 24.0138 13.6403 24.0189 13.6853 24.0478ZM13.5953 23.5837C13.6531 23.5837 13.6814 23.6261 13.7097 23.63C13.7309 23.5998 13.7528 23.5818 13.7528 23.5856C13.7521 23.5696 13.7354 23.5747 13.7264 23.5477C13.7136 23.5111 13.7052 23.4879 13.7052 23.4622C13.7039 23.4461 13.8171 23.3304 13.6795 23.3851C13.6641 23.3915 13.5792 23.4127 13.5792 23.4127C13.4358 23.4519 13.4281 23.4969 13.3381 23.603L13.3362 23.6049C13.3285 23.6133 13.3259 23.6191 13.3259 23.6191C13.3259 23.6216 13.3323 23.6319 13.3581 23.6428H13.3896C13.4043 23.6428 13.4153 23.6422 13.4262 23.6364L13.441 23.6319C13.441 23.6319 13.5888 23.5824 13.5953 23.5837ZM13.6647 23.0411L13.6608 23.0463L13.6506 23.0476C13.5823 23.057 13.5187 23.0876 13.4686 23.135L13.4146 23.1858C13.4275 23.2205 13.4313 23.2353 13.4429 23.2629L13.4442 23.2636C13.4538 23.3015 13.4571 23.324 13.5188 23.2893C13.5606 23.2655 13.5554 23.2475 13.5554 23.2475C13.5554 23.2475 13.6261 23.1973 13.6878 23.1973C13.711 23.1973 13.7586 23.1768 13.7586 23.1768C13.7868 23.1466 13.7933 23.1671 13.8036 23.1189L13.8138 23.072C13.8158 23.0546 13.8473 22.9961 13.819 22.9961L13.7418 22.9993C13.7097 22.9993 13.6814 23.0103 13.6647 23.0411ZM13.8132 22.6734L13.7952 22.6419C13.7631 22.5937 13.7361 22.5744 13.6968 22.5731C13.684 22.5731 13.5278 22.7486 13.4474 22.8271H13.4442C13.4144 22.8494 13.3885 22.8765 13.3677 22.9074C13.3582 22.9162 13.3473 22.9233 13.3356 22.9286L13.297 22.9447C13.2488 22.973 13.2456 22.9865 13.2417 23.0263L13.3806 22.9993C13.5258 22.8676 13.7534 22.8688 13.8132 22.6734ZM15.4409 22.1013C15.3599 22.154 15.3156 22.2993 15.1902 22.3436L15.2738 22.4047C15.4377 22.3687 15.6293 22.3681 15.6974 22.2106L15.781 22.1013L15.7906 22.0993C15.7932 22.0993 15.8022 22.0974 15.8118 22.0974L15.817 22.0961C15.8382 22.0961 15.8363 22.1026 15.8427 22.1141L15.8658 22.1206C15.8993 22.1045 15.8916 22.0936 15.8916 22.0756C15.8916 22.064 15.8883 22.0498 15.8838 22.0261V22.0016C15.8456 21.9717 15.7987 21.955 15.7501 21.9541C15.6678 21.9541 15.5341 22.1083 15.52 22.2106L15.5181 22.2208L15.5071 22.2241C15.4989 22.2272 15.4902 22.2287 15.4814 22.2286C15.4525 22.2286 15.4833 22.19 15.4647 22.181L15.4615 22.1778L15.4602 22.1006L15.4409 22.1013ZM14.9536 21.5728L14.9601 21.5677C15.0417 21.5201 15.1728 21.4925 15.1767 21.4378C15.1525 21.4164 15.121 21.4049 15.0886 21.4057C15.016 21.4057 14.9421 21.4623 14.9453 21.5356C14.9453 21.5452 14.9472 21.5548 14.9498 21.5632L14.9536 21.5728ZM13.4886 22.4002C13.4884 22.4125 13.4862 22.4246 13.4821 22.4362C13.4596 22.4934 13.4339 22.5526 13.4333 22.5796C13.4654 22.568 13.5625 22.4998 13.5734 22.4683L13.5895 22.4336C13.5961 22.4151 13.6072 22.3985 13.6218 22.3852C13.6363 22.372 13.654 22.3626 13.6731 22.3578H13.6808L13.7065 22.3584C13.7524 22.3564 13.7969 22.3417 13.8351 22.316L13.8762 22.2871C13.9276 22.2498 13.9758 22.2208 14.0382 22.2202H14.0626L14.0658 22.2241C14.0941 22.2472 14.1198 22.2568 14.1417 22.2562C14.1623 22.2562 14.1828 22.2472 14.206 22.2266L14.2413 22.1887C14.2709 22.1553 14.2966 22.1296 14.3358 22.1296C14.3596 22.1296 14.3828 22.1386 14.413 22.1585C14.4855 22.1341 14.5484 22.0876 14.593 22.0254L14.6283 21.9631L14.6361 21.9618C14.6418 21.9592 14.647 21.9592 14.6528 21.9592C14.6875 21.9579 14.6958 21.9939 14.6971 22.0126V22.0447C14.7003 22.0768 14.7036 22.1013 14.7331 22.1173C14.7447 22.1212 14.7543 22.1231 14.7633 22.1231C14.7826 22.1231 14.7987 22.1141 14.8148 22.0923C14.8398 22.064 14.8431 22.0601 14.8701 22.0383C14.8585 22.0267 14.8443 22.0138 14.8418 21.9901C14.8418 21.9708 14.8521 21.9502 14.872 21.929C14.8971 21.9078 14.9022 21.8917 14.9016 21.8698C14.9015 21.8616 14.9002 21.8533 14.8977 21.8454C14.8509 21.8266 14.801 21.8166 14.7505 21.8158C14.7074 21.8171 14.6701 21.8287 14.6502 21.8608L14.647 21.866L14.6412 21.8673C14.4998 21.9078 14.4014 22.0781 14.2298 22.0897L14.2272 22.0916L14.2208 22.0897C14.165 22.0561 14.1014 22.0377 14.0363 22.0363C13.9501 22.0363 13.8839 22.0801 13.819 22.1315L13.7418 22.1964C13.7165 22.2187 13.6889 22.2383 13.6596 22.2549C13.6133 22.2858 13.558 22.2883 13.5098 22.2916C13.4937 22.2916 13.4783 22.289 13.4648 22.2903H13.4583C13.4262 22.2916 13.4146 22.2986 13.414 22.3006V22.3025C13.4043 22.3134 13.4783 22.3314 13.4886 22.4002ZM13.6043 22.0614L13.6628 22.0318C13.7849 21.8956 13.9527 21.8602 14.0986 21.7895L14.107 21.7863L14.1147 21.7901C14.1362 21.8022 14.1609 21.8074 14.1854 21.8049C14.2433 21.8017 14.2863 21.7599 14.3493 21.7509C14.3763 21.7471 14.4059 21.7573 14.4342 21.7811C14.4567 21.7876 14.4779 21.7888 14.4972 21.7863C14.5711 21.7786 14.6174 21.7297 14.6708 21.6641L14.6939 21.6307C14.7068 21.6159 14.7241 21.6063 14.7209 21.5793L14.7203 21.5767C14.701 21.5767 14.6534 21.6095 14.6174 21.6153C14.6118 21.6159 14.6062 21.6153 14.6008 21.6135C14.5955 21.6118 14.5906 21.6088 14.5866 21.605C14.5824 21.6015 14.579 21.5971 14.5766 21.5923C14.5742 21.5874 14.5728 21.5821 14.5724 21.5767C14.5705 21.5394 14.602 21.5169 14.6496 21.4951C14.7421 21.4597 14.8527 21.3973 14.8398 21.3684C14.8386 21.362 14.8283 21.3568 14.7955 21.3607C14.7601 21.3658 14.7145 21.3967 14.6701 21.3999C14.6489 21.4031 14.638 21.4398 14.6174 21.4346L14.5866 21.4456H14.5814C14.5669 21.441 14.5516 21.4395 14.5364 21.4411C14.449 21.4436 14.4676 21.5343 14.4246 21.6127L14.4175 21.6249L14.4066 21.6204L14.3808 21.6127H14.3789C14.3616 21.614 14.3403 21.6146 14.332 21.6159C14.0331 21.8358 13.7496 21.5581 13.522 21.9913C13.5181 21.9952 13.5181 21.9991 13.5181 22.0036C13.5181 22.0216 13.5631 22.0537 13.6043 22.0614ZM14.8559 22.2498C14.8458 22.2453 14.8348 22.2433 14.8238 22.244C14.8109 22.243 14.7981 22.2466 14.7878 22.2543L14.7813 22.2575L14.7775 22.2601L14.7678 22.2652C14.7595 22.2703 14.7537 22.2748 14.7389 22.2768L14.7325 22.2748C14.726 22.2731 14.72 22.2701 14.7147 22.266C14.7094 22.2619 14.705 22.2569 14.7016 22.2511L14.5795 22.3706H14.5737C14.5062 22.3783 14.4246 22.4246 14.3436 22.4278C14.3059 22.4289 14.2692 22.4158 14.2407 22.3912C14.2177 22.3859 14.1942 22.3831 14.1706 22.3828C14.0601 22.3828 14.0028 22.4741 13.8846 22.5172C13.8923 22.5609 13.9006 22.5718 13.9296 22.5718C13.9424 22.5731 13.9578 22.568 13.9797 22.5628L14.0324 22.5436L14.0388 22.5545C14.0482 22.5662 14.0544 22.5802 14.0568 22.595C14.0568 22.6265 14.0382 22.6477 14.0163 22.6753L13.9868 22.703C13.9585 22.7338 13.9418 22.7615 13.9431 22.7943C13.9431 22.7975 13.945 22.8039 13.945 22.8097C13.9539 22.816 13.9643 22.8198 13.9752 22.8206C13.9951 22.8206 14.0221 22.7949 14.0485 22.7673L14.0871 22.7306C14.0913 22.7241 14.097 22.7186 14.1037 22.7146C14.1104 22.7106 14.1179 22.7082 14.1256 22.7075C14.2452 22.6856 14.3076 22.6284 14.422 22.5898C14.4199 22.5775 14.4186 22.5651 14.4181 22.5526C14.4168 22.5256 14.4201 22.5024 14.4348 22.4851C14.4503 22.469 14.4747 22.4632 14.5043 22.4619C14.5197 22.4619 14.5364 22.4632 14.557 22.4658L14.6328 22.4761C14.6572 22.4809 14.682 22.483 14.7068 22.4825C14.7465 22.4848 14.7855 22.472 14.8161 22.4465L14.827 22.4368L14.8386 22.4478C14.8633 22.4676 14.8943 22.4781 14.926 22.4773C14.9491 22.4773 14.971 22.4716 14.9941 22.4619C15.048 22.4396 15.1065 22.4308 15.1645 22.4362C15.1349 22.3893 15.1028 22.3687 15.0256 22.3661C15.0083 22.3783 14.9941 22.3854 14.9806 22.3854C14.9395 22.3822 14.9311 22.3468 14.9163 22.3211C14.9035 22.2909 14.8881 22.2633 14.8559 22.2498ZM17.4672 23.5393C17.4492 23.5503 17.4286 23.5689 17.4106 23.5837C17.3766 23.6056 17.3663 23.5998 17.3283 23.594C17.338 23.6583 17.3534 23.6968 17.428 23.7033C17.4717 23.7103 17.5006 23.7071 17.5463 23.7213C17.5606 23.6968 17.5799 23.6756 17.6028 23.6589C17.6151 23.6377 17.635 23.6178 17.6311 23.5856C17.581 23.5098 17.5321 23.4931 17.4672 23.5393ZM17.7385 22.7821V22.7795C17.7211 22.7088 17.7051 22.7036 17.6401 22.7023L17.5649 22.7139C17.5501 22.7139 17.4453 22.7795 17.4299 22.7821L17.3913 22.8418C17.3672 22.8778 17.353 22.9195 17.3502 22.9627C17.3521 22.9794 17.3566 22.9955 17.3669 23.0141L17.3721 23.0206L17.3676 23.0328C17.3322 23.0746 17.2808 23.0521 17.2518 23.0926C17.2505 23.1002 17.2499 23.1079 17.2499 23.1157C17.2512 23.1388 17.2628 23.1523 17.2898 23.1748L17.3367 23.2121L17.3238 23.225C17.2846 23.27 17.2274 23.27 17.1843 23.2758C17.1535 23.2867 17.1516 23.2951 17.1516 23.3034C17.1496 23.3246 17.1869 23.3651 17.2101 23.3876C17.2403 23.3663 17.276 23.354 17.3129 23.3523C17.3322 23.3523 17.3534 23.3548 17.3727 23.3664C17.4768 23.3439 17.5186 23.3118 17.5141 23.27C17.5141 23.2494 17.5038 23.2243 17.4801 23.1903C17.4524 23.1491 17.4203 23.1118 17.4183 23.0649C17.4158 23.036 17.4293 23.0051 17.4601 22.9749C17.4614 22.9537 17.4762 22.928 17.509 22.928L17.5559 22.8926C17.5926 22.8836 17.7385 22.8168 17.7385 22.7821Z" fill="white"/>
<path d="M15.0231 22.7713L15.0102 22.7809L14.9073 22.6626C14.8887 22.6601 14.8701 22.6388 14.8521 22.6395C14.7466 22.6414 14.656 22.6845 14.6129 22.7642L14.6065 22.7771L14.5956 22.7706C14.585 22.767 14.5739 22.7648 14.5628 22.7642C14.5242 22.7642 14.4914 22.7957 14.4477 22.815L14.4406 22.8163L14.4342 22.8124C14.4156 22.7985 14.3931 22.7908 14.3699 22.7906C14.3307 22.7906 14.296 22.8246 14.2606 22.8638C14.2375 22.8896 14.2195 22.8998 14.1983 22.8998C14.1817 22.8996 14.1652 22.8968 14.1494 22.8915C14.1828 22.9879 14.2452 22.9918 14.3828 23.0136C14.4689 22.9988 14.5956 22.9686 14.6418 22.9011L14.6444 22.8973L14.6508 22.896C14.656 22.8947 14.6598 22.8947 14.665 22.8947C14.7408 22.8947 14.8161 22.9513 14.8836 22.95C14.8991 22.9498 14.9145 22.9464 14.9288 22.9401C14.943 22.9338 14.9558 22.9247 14.9665 22.9133L14.9716 22.9076H14.9781C14.9879 22.9101 14.9981 22.9116 15.0083 22.9121C15.0487 22.9088 15.0879 22.897 15.1233 22.8773L15.1651 22.8503C15.1879 22.835 15.2138 22.8249 15.241 22.8208C15.2706 22.8201 15.2988 22.8362 15.3284 22.8638C15.3561 22.8735 15.3853 22.8779 15.4146 22.8767C15.4884 22.8716 15.5603 22.8515 15.6261 22.8176L15.6601 22.7931C15.6974 22.7481 15.7289 22.7031 15.7546 22.6511L15.7578 22.6466L15.7643 22.644L15.7893 22.6421C15.8427 22.6414 15.9423 22.6157 15.9983 22.6131C16.0097 22.6132 16.0211 22.6121 16.0323 22.6099C16.1558 22.5713 16.2998 22.4286 16.3268 22.3528C16.3268 22.3528 16.2464 22.3598 16.1976 22.3592C16.1493 22.3605 15.7392 22.4621 15.4904 22.6858C15.4504 22.7142 15.4025 22.7292 15.3535 22.7288C15.2918 22.7308 15.232 22.7153 15.1741 22.7173C15.1187 22.7155 15.0647 22.7348 15.0231 22.7713ZM17.7867 23.0567L17.7385 23.0471C17.6845 23.0355 17.6973 23.0374 17.6408 23.0779C17.6329 23.0948 17.6293 23.1133 17.6305 23.1319C17.6318 23.1602 17.6478 23.1808 17.7038 23.2052L17.7102 23.2084L17.7141 23.2148C17.7141 23.2168 17.7192 23.229 17.7192 23.2444C17.7202 23.2636 17.7159 23.2828 17.7069 23.2998C17.6978 23.3167 17.6843 23.3309 17.6678 23.3408C17.6858 23.4064 17.7108 23.4212 17.7436 23.4212C17.7726 23.4225 17.7893 23.4051 17.8298 23.3801C17.8484 23.3646 17.8272 23.3543 17.8471 23.3434C17.8523 23.3113 17.8651 23.2868 17.8645 23.2669C17.8606 23.1743 17.8921 23.0753 17.7867 23.0567ZM16.3396 22.1869C16.4553 22.1271 16.6566 22.1966 16.6443 21.987C16.4952 21.8841 16.3345 21.9806 16.2708 22.1008C16.2458 22.1458 16.2696 22.1837 16.3081 22.2004L16.3396 22.1869ZM16.0883 22.0133C16.2111 21.9761 16.2567 21.8038 16.2175 21.7607C16.1185 21.7588 16.1114 21.7691 16.0446 21.8321L16.0201 21.8533C15.988 21.8745 15.9918 21.8488 15.9616 21.8899L15.9443 21.9413L15.9616 21.9748C15.9854 22.0204 16.0259 22.0423 16.0883 22.0133ZM15.5521 21.6829C15.5541 21.7408 15.5958 21.7356 15.6768 21.7613C15.6986 21.7668 15.7173 21.7807 15.7289 21.7999C15.7694 21.7262 15.8289 21.6648 15.9012 21.6218L15.898 21.6199C15.872 21.6024 15.8413 21.5932 15.8099 21.5936C15.7289 21.5961 15.6325 21.6411 15.5528 21.6546V21.6829H15.5521ZM15.6672 21.384V21.3737C15.6659 21.3608 15.6595 21.3512 15.6415 21.3383L15.6158 21.3191C15.6132 21.3171 15.6061 21.3139 15.5965 21.3049C15.592 21.3043 15.5868 21.3043 15.5836 21.3023C15.5759 21.3023 15.5708 21.3049 15.5598 21.3139L15.5451 21.3203L15.5386 21.3242L15.5316 21.321C15.5206 21.3171 15.5097 21.3165 15.5013 21.3152C15.4351 21.3126 15.3162 21.5177 15.2898 21.5871L15.34 21.5891C15.4358 21.5878 15.6003 21.4489 15.6672 21.384ZM16.0773 21.5145C16.0979 21.5177 16.1223 21.5222 16.1455 21.5273C16.2014 21.4991 16.2066 21.4502 16.2046 21.3962L16.204 21.3634C16.2111 21.3287 16.1616 21.2901 16.1243 21.3056C16.0638 21.3242 16.0246 21.3904 16.006 21.4418L15.9912 21.4888L15.9828 21.5196C16.0201 21.5119 16.0362 21.5081 16.0773 21.5145ZM18.0406 23.4713C18.0336 23.5163 18.004 23.5343 17.9757 23.5459C18.0098 23.5697 18.0464 23.5896 18.0708 23.5941C18.1036 23.5967 18.1171 23.5909 18.13 23.5305C18.1308 23.5228 18.1312 23.5151 18.1313 23.5073C18.1358 23.4713 18.1332 23.4341 18.1371 23.4C18.1397 23.3787 18.147 23.3583 18.1586 23.3403C18.1702 23.3223 18.1857 23.3071 18.2039 23.2958L18.1512 23.2322C18.0651 23.2418 18.04 23.2624 18.0329 23.3055C18.0303 23.3278 18.0312 23.3503 18.0355 23.3723L18.0374 23.4173C18.0419 23.4328 18.0445 23.4469 18.0419 23.4598L18.04 23.4681C18.0413 23.4694 18.0406 23.4713 18.0406 23.4713ZM17.7636 23.6738L17.7456 23.6931L17.7256 23.7253C17.7012 23.769 17.6993 23.7973 17.6536 23.8069C17.6671 23.8288 17.6742 23.8301 17.7083 23.8313H17.7192L17.7385 23.8301C17.8208 23.7947 17.9159 23.7677 17.9088 23.6989C17.9087 23.6856 17.9059 23.6725 17.9005 23.6603C17.8816 23.6495 17.8605 23.6431 17.8388 23.6417C17.8105 23.6423 17.788 23.6359 17.7636 23.6738ZM16.4624 21.6752C16.5068 21.6463 16.5453 21.618 16.5421 21.5595C16.4933 21.4952 16.4303 21.4978 16.3724 21.5415C16.3209 21.5763 16.2801 21.6248 16.2548 21.6816L16.3364 21.7247C16.3801 21.7086 16.4193 21.7003 16.4624 21.6752ZM16.7356 21.8861C16.7433 21.9716 16.7691 22.0371 16.8771 22.0532C16.9028 21.9773 16.8931 21.9934 16.9671 21.9645L17.0166 21.9581C17.0411 21.9525 17.0649 21.9438 17.0873 21.9323C17.1246 21.9047 17.1432 21.8366 17.1432 21.7941C16.9896 21.7305 16.8391 21.7568 16.7356 21.8861ZM16.8173 22.491L16.8668 22.4511C16.9221 22.3939 17.0648 22.4383 17.0828 22.2853C16.9671 22.1644 16.8018 22.2641 16.7697 22.3721C16.8398 22.4267 16.7787 22.4576 16.8173 22.491ZM17.5251 23.8551C17.4312 23.7311 17.2898 23.8198 17.2403 23.9046C17.2454 23.9644 17.2641 24.0023 17.3354 24.0056C17.3811 23.9413 17.4871 23.9869 17.5251 23.8551ZM17.2306 23.5851V23.5838C17.2306 23.5768 17.2236 23.5581 17.2165 23.5305C17.1696 23.4713 17.0783 23.5112 17.0018 23.4836C16.9638 23.5067 16.7363 23.6211 16.7466 23.7786C16.7485 23.8056 16.726 23.8056 16.744 23.8313L16.7485 23.841L16.7433 23.8474C16.6977 23.9143 16.6244 23.931 16.5556 23.9554H16.5498L16.5447 23.9522C16.513 23.9351 16.4778 23.9255 16.4418 23.9239C16.3679 23.9239 16.3236 23.9843 16.2824 24.0403L16.2631 24.0692L16.2477 24.0956C16.2188 24.1264 16.2014 24.1412 16.1789 24.1412C16.1384 24.138 16.1596 24.1078 16.1178 24.0769C16.1011 24.0833 16.0381 24.1097 16.0413 24.1457V24.1521L16.0786 24.174C16.0915 24.2036 16.123 24.2852 16.1828 24.282C16.1879 24.2826 16.1956 24.282 16.2085 24.2807C16.2278 24.2871 16.2451 24.2884 16.2593 24.2884C16.3493 24.291 16.3557 24.1778 16.4161 24.1097L16.4219 24.1052L16.4271 24.1071H16.4637C16.6501 24.1052 16.7016 23.9831 16.8996 23.9464L16.9497 23.9014C16.9323 23.8416 16.9413 23.8159 16.9073 23.778L16.9047 23.7728L16.906 23.7677C16.9176 23.6944 16.9998 23.6925 17.0397 23.6732H17.0416C17.0615 23.6651 17.0787 23.6515 17.0911 23.634C17.0911 23.6031 17.1085 23.5832 17.1336 23.5832H17.1464L17.1786 23.5826L17.2236 23.5845L17.2306 23.5851ZM17.7295 20.6119C17.7295 20.6119 17.7308 20.6119 17.7314 20.6106C17.7544 20.5843 17.7815 20.5619 17.8118 20.5444L17.8169 20.5431C17.8311 20.5399 17.8446 20.5341 17.8626 20.529C17.968 20.5001 18.0168 20.4776 18.0522 20.3683C18.0355 20.34 18.0393 20.34 18.0348 20.3419L18.0297 20.3426C18.0258 20.3426 18.0239 20.3406 18.0233 20.3419C18.0149 20.3406 18.0059 20.3406 17.995 20.3406C17.8902 20.403 17.734 20.4911 17.7134 20.5991C17.7134 20.6036 17.7179 20.6042 17.7179 20.6048C17.7243 20.6087 17.7288 20.6138 17.7295 20.6119ZM18.2361 21.2104C18.2701 21.15 18.2688 21.1371 18.2811 21.0709L18.2791 21.0259C18.2566 21.0092 18.2367 21.0015 18.2251 21.0015C18.2181 21.0015 18.2155 21.0015 18.211 21.0066C18.1735 21.0424 18.144 21.0859 18.1246 21.134C18.1052 21.1821 18.0963 21.2338 18.0985 21.2856C18.1011 21.3583 18.1004 21.3422 18.1197 21.3994L18.1563 21.3621C18.1621 21.2689 18.1949 21.2914 18.2361 21.2104ZM17.4743 22.5649C17.491 22.5431 17.4781 22.5283 17.5161 22.5064C17.5501 22.4852 17.5623 22.4614 17.6009 22.4486C17.5881 22.4389 17.5771 22.4293 17.563 22.4196L17.5386 22.3971C17.5167 22.3823 17.5 22.3695 17.4743 22.3695C17.4055 22.3875 17.3676 22.4254 17.3264 22.4801C17.3007 22.5103 17.302 22.5161 17.2968 22.5283C17.2891 22.5398 17.2808 22.5476 17.2596 22.5585C17.3103 22.599 17.3534 22.626 17.3868 22.626C17.4126 22.626 17.4383 22.6118 17.4743 22.5649ZM17.1593 22.1959L17.1843 22.23C17.1946 22.2428 17.2049 22.2576 17.2178 22.2731C17.2731 22.329 17.2718 22.2949 17.3418 22.2988C17.3418 22.2988 17.3213 22.2538 17.3496 22.2049C17.3727 22.1663 17.3862 22.1342 17.4126 22.1008L17.3926 22.0751C17.3483 22.0095 17.3123 21.9857 17.2448 22.0185C17.2113 22.0847 17.1226 22.0976 17.1593 22.1959ZM16.6893 21.5492C16.6656 21.5852 16.6861 21.6103 16.7189 21.6251L16.7485 21.6122C16.8513 21.5685 17.0294 21.618 17.0211 21.4598C16.8899 21.3827 16.7453 21.4592 16.6893 21.5492ZM16.8488 21.1616C16.9008 21.1307 16.9433 21.1011 16.9413 21.0375C16.8848 20.9687 16.8141 20.9719 16.7485 21.0182C16.6911 21.0566 16.6448 21.1094 16.6141 21.1712L16.708 21.2162C16.7575 21.1976 16.7999 21.1879 16.8494 21.1616H16.8488ZM17.2936 21.4631C17.3097 21.4168 17.302 21.4271 17.3502 21.4091L17.3817 21.4052C17.3913 21.4026 17.4177 21.3962 17.4248 21.3898C17.4492 21.3737 17.4614 21.3338 17.4614 21.3075C17.365 21.2689 17.2705 21.285 17.2043 21.3621C17.2088 21.4136 17.2248 21.4534 17.293 21.4631H17.2936ZM18.1737 21.8115C18.202 21.7903 18.2155 21.7388 18.2161 21.7061C18.0985 21.6578 17.9834 21.6784 17.9037 21.7755C17.9101 21.8417 17.9301 21.8912 18.013 21.9047C18.0329 21.8456 18.0239 21.8591 18.0811 21.8372L18.1197 21.8308C18.1387 21.8277 18.157 21.8212 18.1737 21.8115ZM17.3823 21.5916C17.3534 21.6418 17.2769 21.6546 17.3071 21.7305L17.329 21.7575C17.338 21.7678 17.3463 21.7787 17.3586 21.7896C17.4055 21.834 17.4055 21.8076 17.4653 21.8102C17.4653 21.8102 17.4466 21.7736 17.4704 21.7388C17.491 21.7067 17.5026 21.6823 17.5251 21.6559L17.5083 21.636C17.4704 21.5846 17.4402 21.5653 17.3823 21.5916ZM17.7558 22.0185L17.743 21.9208C17.7462 21.8681 17.6922 21.8693 17.6626 21.8803C17.6626 21.9221 17.6543 21.9285 17.6067 21.9349L17.581 21.9401C17.572 21.9433 17.5617 21.9433 17.5514 21.9478C17.5263 21.9619 17.5161 21.9799 17.5116 22.0076C17.581 22.0699 17.6819 22.0442 17.7558 22.0185ZM17.6858 22.3309L17.7108 22.329C17.7404 22.2949 17.9288 22.3457 17.878 22.2293C17.8278 22.1657 17.7468 22.212 17.6755 22.2178C17.6459 22.2435 17.653 22.3052 17.6858 22.3309ZM18.913 20.2384C18.8969 20.2628 18.8873 20.2834 18.859 20.2873C18.6906 20.3837 18.6205 20.4075 18.6205 20.4075C18.6211 20.4203 18.5961 20.4866 18.5928 20.4994L18.5395 20.5483C18.5269 20.573 18.5199 20.6002 18.5189 20.628C18.5196 20.6421 18.4919 20.6267 18.4983 20.6473V20.6524C18.4945 20.7019 18.4398 20.7096 18.4186 20.7296L18.3556 20.7675C18.3132 20.8035 18.2811 20.8382 18.2811 20.8382L18.3209 20.8716C18.3209 20.8716 18.4868 20.8048 18.6096 20.7688C18.652 20.7636 18.6693 20.7045 18.7227 20.6743L18.7278 20.6711H18.7343C18.7542 20.6813 18.7484 20.6878 18.7523 20.6936L18.7606 20.7154L18.7703 20.754L18.7728 20.7598L18.7709 20.7636C18.7761 20.8118 18.9541 20.8768 19.0023 20.8813C19.0323 20.8877 19.063 20.8907 19.0936 20.8903C19.2145 20.889 19.2955 20.8279 19.3456 20.7096C19.3217 20.7011 19.2965 20.6968 19.2711 20.6968C19.2446 20.6971 19.2186 20.7037 19.1952 20.7161C19.1598 20.7321 19.1341 20.7527 19.0956 20.7527C19.0687 20.7522 19.0426 20.7439 19.0203 20.7289L19.0043 20.7212L19.012 20.7051C19.0866 20.556 19.1213 20.5528 19.2916 20.5091C19.3816 20.4988 19.3836 20.4268 19.3855 20.3471C19.3615 20.3386 19.3363 20.334 19.3109 20.3336C19.1836 20.3336 19.1161 20.4686 18.9933 20.5393C18.9872 20.5418 18.9807 20.5432 18.9741 20.5431C18.9381 20.5399 18.8648 20.5226 18.8538 20.4647C18.8538 20.4583 18.8538 20.4531 18.8558 20.4486C18.8686 20.4094 18.9329 20.3663 18.9959 20.3111C19.0602 20.2596 19.12 20.1986 19.1174 20.1806V20.1773C19.1174 20.1709 19.1116 20.1645 19.0994 20.1581C19.0885 20.1542 19.0756 20.1516 19.0737 20.1503C19.0612 20.1481 19.0485 20.1468 19.0358 20.1465C18.9985 20.1465 18.9721 20.1703 18.9426 20.2031L18.913 20.2384Z" fill="white"/>
<path d="M18.0315 20.1239L18.0354 20.1206H18.0881C18.0945 20.1206 18.0881 20.1206 18.101 20.1181C18.119 20.1206 18.0926 20.1554 18.1241 20.1759C18.1273 20.1798 18.1318 20.1817 18.1382 20.1798C18.1749 20.1836 18.2495 20.1071 18.3137 20.0589C18.3262 20.0499 18.3409 20.0445 18.3562 20.0435C18.3947 20.0435 18.414 20.0731 18.425 20.0801L18.4359 20.0879L18.432 20.1014C18.3999 20.2029 18.396 20.2685 18.2732 20.309L18.2315 20.3534C18.2308 20.3759 18.2244 20.4151 18.2025 20.4562C18.2025 20.4562 18.1614 20.4903 18.0945 20.5642C18.0277 20.6336 17.9608 20.7217 17.966 20.7449L17.9672 20.7494H17.9724C18.011 20.7526 18.1138 20.6896 18.2025 20.6401L18.2051 20.6369H18.209C18.3999 20.6073 18.3523 20.3919 18.4622 20.2775L18.4725 20.2653L18.6673 20.0917C18.6703 20.0768 18.6779 20.0633 18.6892 20.0531C18.7194 20.0268 18.749 20.0094 18.7682 19.9657C18.7703 19.9604 18.771 19.9546 18.7702 19.949C18.7702 19.9027 18.776 19.8082 18.7232 19.7221L18.7194 19.7176L18.7213 19.7099C18.7297 19.6822 18.756 19.6745 18.7792 19.6745L18.837 19.6424C18.8532 19.6425 18.8692 19.6382 18.8831 19.6299C18.8971 19.6217 18.9085 19.6097 18.9161 19.5954C18.9418 19.5633 18.9572 19.5581 18.9547 19.5331C18.9527 19.4958 18.9264 19.4649 18.8287 19.4604H18.776C18.7676 19.4701 18.7581 19.4787 18.7477 19.4861C18.7305 19.5191 18.705 19.547 18.6737 19.5671L18.6699 19.5697H18.6647C18.6602 19.5697 18.6545 19.5684 18.6512 19.5697C18.6133 19.5697 18.6255 19.6276 18.6101 19.634C18.5702 19.6597 18.5702 19.6488 18.5683 19.6745C18.5702 19.7176 18.5522 19.7426 18.5477 19.7465L18.5908 19.8461C18.5831 19.8667 18.5683 19.8976 18.533 19.9066C18.5085 19.9072 18.4031 19.8269 18.3941 19.8616C18.3452 20.0126 18.1839 20.0056 18.0508 20.0216C17.9171 20.0435 17.8387 20.0409 17.8477 20.2589V20.2608H17.8502C17.9672 20.2589 17.955 20.201 18.0315 20.1239ZM18.4648 23.594C18.4256 23.5638 18.3626 23.6178 18.3626 23.6178C18.245 23.6859 18.126 23.6216 18.1498 23.8126C18.263 23.8679 18.3137 23.7592 18.3999 23.7206L18.4262 23.7425C18.461 23.7663 18.4873 23.7592 18.524 23.7457L18.5175 23.6872C18.5175 23.6872 18.5053 23.6216 18.4648 23.594ZM17.9904 24.2073L17.9602 24.2092C17.9846 24.2671 18.0045 24.2915 18.0759 24.2941C18.126 24.3005 18.1344 24.296 18.164 24.3288L18.182 24.3166C18.2308 24.2793 18.2398 24.206 18.2353 24.1559C18.126 24.1147 18.0823 24.2034 17.9904 24.2073ZM14.69 24.6727C14.7202 24.6168 14.7317 24.6084 14.8025 24.6361C14.9169 24.5744 14.8539 24.5075 14.8815 24.4368L14.8327 24.4143C14.7517 24.6033 14.4913 24.4734 14.3782 24.6682C14.3463 24.7778 14.3588 24.8956 14.4129 24.9961L14.4971 25.0218C14.5787 24.9196 14.4778 24.8013 14.5421 24.7434C14.634 24.7717 14.6694 24.7132 14.69 24.6727ZM13.8787 24.6933L13.8555 24.7151C13.8388 24.737 13.8189 24.7524 13.7964 24.773C13.8388 24.8051 13.8665 24.8186 13.9057 24.7852C13.9237 24.7724 13.9442 24.7518 13.9706 24.7531C14.0143 24.7325 14.0503 24.7312 14.0297 24.6676C13.961 24.6219 13.9205 24.6483 13.8787 24.6933ZM14.9837 24.8225L15.0159 24.818L15.048 24.8289C15.0879 24.8579 15.075 24.8759 15.0686 24.8951L15.1663 24.89C15.2042 24.8694 15.2113 24.8386 15.2081 24.8045L15.2062 24.7672L15.1997 24.7434L15.2017 24.7254C15.1766 24.718 15.152 24.7094 15.1277 24.6997L15.0744 24.6804C15.0268 24.661 14.976 24.6508 14.9246 24.6502L14.9015 24.7801C14.9182 24.8135 14.9452 24.8251 14.9837 24.8225ZM14.8005 24.8778C14.6475 24.9729 14.6951 25.0886 14.6578 25.2326C14.751 25.2796 14.7896 25.2667 14.8057 25.1748L14.8121 25.1304C14.8153 25.1195 14.8205 25.1099 14.825 25.0983C14.841 25.0629 14.861 25.0565 14.8925 25.0469C14.8809 24.9813 14.8719 24.9151 14.8005 24.8778ZM21.8057 17.0799C21.8122 17.0864 21.8141 17.0889 21.8199 17.0928C21.8241 17.0939 21.8284 17.0946 21.8327 17.0947H21.843L21.8475 17.0941C21.8649 17.0889 21.8552 17.0889 21.8585 17.0857C21.8597 17.0831 21.8597 17.0799 21.8649 17.0684C21.8649 17.0574 21.8668 17.0433 21.8687 17.0298C21.8726 17.0015 21.9305 16.9314 21.9305 16.9109C21.9305 16.9083 21.9337 16.9083 21.9253 16.9012C21.9134 16.889 21.8997 16.8786 21.8848 16.8704C21.8545 16.8737 21.8252 16.8831 21.7987 16.898C21.7749 16.9173 21.7742 16.9983 21.773 16.9989V17.0015L21.7672 17.0176V17.0201C21.7691 17.0356 21.7922 17.0561 21.7935 17.0613C21.7987 17.0684 21.8019 17.0767 21.8057 17.0799ZM20.6081 16.5971C20.5824 16.5984 20.5695 16.6106 20.5502 16.6267C20.529 16.6473 20.5265 16.7334 20.5258 16.7347L20.5213 16.754V16.7553C20.5226 16.7726 20.5464 16.7939 20.547 16.7996C20.5502 16.808 20.5567 16.8157 20.5586 16.8189L20.574 16.8344C20.583 16.8363 20.583 16.8363 20.5882 16.8363H20.601C20.6197 16.8299 20.61 16.8279 20.6139 16.8273L20.6177 16.808C20.6197 16.7964 20.6203 16.781 20.6222 16.7643C20.6274 16.736 20.684 16.6614 20.684 16.6396C20.684 16.6376 20.6544 16.637 20.6486 16.6286C20.646 16.6267 20.6152 16.5971 20.6087 16.5971H20.6081ZM22.7822 17.258C22.7874 17.2895 22.7861 17.3686 22.7919 17.3891C22.7932 17.3917 22.7919 17.3917 22.7983 17.3994C22.819 17.4098 22.8405 17.4184 22.8626 17.4251C22.8793 17.4187 22.8851 17.4052 22.8935 17.3879C22.9044 17.3615 22.8851 17.2754 22.8851 17.2754V17.2734L22.8838 17.2541V17.2516C22.8793 17.2355 22.8285 17.2169 22.826 17.2117C22.8226 17.2051 22.8185 17.1988 22.8137 17.1931C22.8097 17.1894 22.8051 17.1864 22.8002 17.1841L22.7912 17.1828L22.7887 17.1841H22.7842L22.7816 17.1854C22.77 17.1931 22.7765 17.1918 22.7752 17.195V17.2156C22.7784 17.2271 22.7816 17.2426 22.7822 17.258ZM21.5544 16.8106C21.5595 16.8196 21.5672 16.8273 21.5737 16.8331C21.582 16.8389 21.5859 16.8363 21.5891 16.8389H21.609C21.6219 16.8337 21.6187 16.8324 21.6219 16.8318C21.6232 16.8266 21.6219 16.8273 21.6219 16.8266C21.6238 16.8196 21.6219 16.7656 21.6309 16.6994C21.6463 16.6074 21.7055 16.4744 21.7067 16.4345C21.7055 16.4319 21.7067 16.4294 21.7022 16.4242C21.6997 16.4212 21.6964 16.4189 21.6927 16.4175C21.6889 16.4161 21.6849 16.4158 21.681 16.4165C21.6617 16.4165 21.6508 16.4236 21.6373 16.4332C21.622 16.4425 21.6085 16.4545 21.5975 16.4686C21.575 16.4985 21.5569 16.5314 21.5435 16.5663C21.5351 16.5849 21.5287 16.6004 21.5216 16.6132C21.5197 16.6209 21.5177 16.6248 21.5158 16.6286C21.5139 16.6299 21.5139 16.6312 21.5139 16.6331C21.5139 16.6331 21.5139 16.6344 21.5126 16.6344H21.5113C21.5102 16.6478 21.5083 16.6611 21.5055 16.6743V16.6781C21.5055 16.7064 21.5377 16.7553 21.5402 16.7681C21.5447 16.7849 21.5518 16.8022 21.5544 16.8106ZM20.9687 16.8729C20.9791 16.8619 20.9887 16.8503 20.9977 16.8382C20.9996 16.8344 21.0041 16.7868 21.008 16.7315C21.0105 16.6788 20.9938 16.5206 20.9945 16.5084C20.9945 16.4969 20.9835 16.475 20.9655 16.4891C20.9462 16.502 20.9141 16.5708 20.9109 16.5759C20.9096 16.5824 20.9032 16.6087 20.9006 16.6248L20.8865 16.7096C20.8832 16.7225 20.8556 16.7964 20.8337 16.8427C20.8112 16.8877 20.6897 16.9816 20.7032 16.997C20.7148 17.0137 20.7624 17.0227 20.7894 17.0099C20.819 16.997 20.9263 16.9179 20.9398 16.907C20.9509 16.8969 20.9606 16.8855 20.9687 16.8729ZM20.7534 16.2076C20.7727 16.1883 20.7887 16.1414 20.8029 16.1285C20.8061 16.1221 20.8132 16.0874 20.8157 16.0848C20.8183 16.0835 20.819 16.0829 20.819 16.0803C20.8254 16.0829 20.8331 16.0829 20.8415 16.0829H20.8543C20.8717 16.0803 20.8993 16.0584 20.916 16.0526C20.9456 16.0436 20.9482 16.016 20.9482 15.9948C20.9462 15.9813 20.9482 15.9434 20.9482 15.9131C20.9482 15.9035 20.9327 15.9112 20.9417 15.8887C20.9662 15.8373 20.8453 15.8861 20.8453 15.8861C20.8292 15.9363 20.8164 15.9639 20.747 16.0469C20.7103 16.0899 20.6518 16.1291 20.6267 16.1581C20.6168 16.1711 20.6061 16.1836 20.5946 16.1954C20.5882 16.2063 20.585 16.2101 20.5843 16.2211C20.5824 16.2243 20.583 16.2301 20.5843 16.2339C20.5843 16.2596 20.5895 16.2956 20.5933 16.3265C20.5965 16.3458 20.6062 16.3747 20.6139 16.3985C20.6165 16.4094 20.6203 16.4197 20.6235 16.43C20.6274 16.4332 20.628 16.4377 20.63 16.4384C20.6306 16.4403 20.6319 16.4435 20.6338 16.4441C20.6351 16.4454 20.6383 16.4506 20.6505 16.4506C20.6525 16.4506 20.6537 16.4486 20.6557 16.4486L20.6608 16.4454C20.673 16.4351 20.673 16.4242 20.673 16.4094V16.403C20.673 16.4024 20.6711 16.4024 20.6711 16.4011C20.6705 16.3805 20.6756 16.3651 20.684 16.3111C20.6996 16.2721 20.7232 16.2368 20.7534 16.2076ZM21.1526 17.2079C21.1612 17.1837 21.1734 17.161 21.1886 17.1404C21.1899 17.1333 21.204 17.1391 21.2156 17.15C21.2272 17.1616 21.2413 17.1564 21.2413 17.1365C21.2509 17.098 21.2625 17.06 21.276 17.0227C21.2863 16.9983 21.3197 16.925 21.3005 16.8916C21.2834 16.8584 21.2734 16.8221 21.2709 16.7849C21.2735 16.7675 21.2947 16.7186 21.2947 16.7174C21.2947 16.7154 21.2979 16.7135 21.3005 16.7122C21.3005 16.7122 21.321 16.6955 21.3422 16.6736C21.3654 16.655 21.3577 16.5618 21.3512 16.5271C21.349 16.4664 21.3534 16.4056 21.3641 16.3458C21.3692 16.3188 21.4155 16.2455 21.4091 16.2269C21.4027 16.2082 21.3789 16.2063 21.3512 16.2236C21.3236 16.2391 21.2407 16.3304 21.2323 16.3689C21.2252 16.4075 21.1963 16.4461 21.2015 16.4493C21.2047 16.4493 21.2207 16.5239 21.2252 16.5264C21.2304 16.5316 21.2304 16.5393 21.2252 16.5438C21.2214 16.5496 21.1989 16.5194 21.1764 16.5515C21.1536 16.6018 21.1418 16.6564 21.1417 16.7116C21.1436 16.7366 21.1674 16.8305 21.1738 16.8569C21.1802 16.8826 21.2156 17.0021 21.2072 17.0381C21.1963 17.0754 21.062 17.1301 21.0587 17.1326H21.0523C21.0504 17.1326 21.0472 17.1301 21.044 17.1301C21.0368 17.1312 21.0297 17.1327 21.0227 17.1346C21.0061 17.1509 20.9924 17.1701 20.9822 17.1911C20.9771 17.2072 20.9585 17.2554 20.954 17.2741C20.9475 17.2908 20.9141 17.3474 20.9038 17.3609C20.9038 17.3609 20.8061 17.6591 20.9038 17.5974C20.9308 17.5781 20.9945 17.4997 20.997 17.4984L21.0028 17.4971H21.0054L21.0247 17.4926C21.0343 17.4894 21.0491 17.4483 21.0555 17.4316C21.0721 17.3969 21.0854 17.3607 21.0954 17.3236C21.1031 17.3017 21.1462 17.2265 21.1526 17.2079ZM21.575 18.2531C21.6058 18.2384 21.5975 18.2017 21.6238 18.1657C21.6476 18.1284 21.7685 18.1561 21.7697 18.1593C21.7697 18.1593 21.8115 18.1143 21.8295 18.0789C21.8501 18.0442 21.8951 17.9182 21.9221 17.8681C21.9504 17.816 21.9542 17.7845 21.9478 17.7781C21.9337 17.7569 21.9099 17.7652 21.9002 17.7794C21.8906 17.7954 21.8315 17.9131 21.8128 17.9324C21.7987 17.9516 21.7382 18.0146 21.7273 18.0256C21.7138 18.0365 21.7067 18.0307 21.7093 18.0146C21.7153 17.978 21.7248 17.9421 21.7376 17.9073C21.7569 17.8655 21.8167 17.7569 21.8366 17.7286C21.8543 17.6831 21.863 17.6346 21.8623 17.5859C21.8617 17.5653 21.8533 17.4014 21.8559 17.3891C21.8591 17.3756 21.8559 17.3287 21.8668 17.3236C21.8745 17.3184 21.89 17.2972 21.89 17.2972C21.89 17.2972 21.9002 17.2869 21.9015 17.2869C21.9015 17.2869 21.9041 17.2863 21.9041 17.285L21.8977 17.2702C21.8932 17.2638 21.8758 17.249 21.8617 17.2586C21.8368 17.2899 21.8161 17.3243 21.8 17.3609C21.791 17.3898 21.7646 17.4682 21.7569 17.5016C21.7466 17.5325 21.7202 17.6302 21.7132 17.6553C21.7051 17.6818 21.6943 17.7074 21.681 17.7318C21.681 17.7337 21.6791 17.7337 21.6785 17.7337C21.6746 17.7363 21.6553 17.7569 21.6335 17.7768C21.611 17.8012 21.5473 17.8578 21.5255 17.8771C21.5017 17.8989 21.4155 17.9073 21.4059 17.9073C21.3921 17.9064 21.3785 17.9038 21.3654 17.8996C21.3532 17.8996 21.3731 17.8507 21.4245 17.7993C21.4669 17.7592 21.4983 17.709 21.5158 17.6534C21.5139 17.6437 21.5165 17.6026 21.5177 17.5788C21.5203 17.5582 21.5505 17.4888 21.5537 17.4779C21.5548 17.4564 21.5548 17.435 21.5537 17.4136C21.5537 17.402 21.5383 17.3756 21.5364 17.375C21.5364 17.3705 21.5338 17.3673 21.5345 17.3634C21.5345 17.3634 21.5409 17.3454 21.546 17.3255C21.5537 17.3069 21.6065 17.2741 21.6167 17.258C21.6264 17.24 21.6103 17.1776 21.6103 17.1764C21.6096 17.1713 21.6078 17.1665 21.6052 17.1622C21.6039 17.1603 21.6039 17.1532 21.6052 17.1526C21.6058 17.1494 21.6129 17.1217 21.6238 17.0896C21.6315 17.06 21.6386 16.9784 21.6386 16.9751C21.6386 16.9713 21.5987 16.9546 21.5743 16.9957C21.5525 17.0362 21.4843 17.1532 21.4882 17.1564C21.4972 17.1584 21.5158 17.1699 21.5216 17.1719C21.5267 17.1764 21.5216 17.1911 21.512 17.2046C21.4952 17.2285 21.48 17.2534 21.4663 17.2792C21.454 17.3165 21.446 17.3551 21.4425 17.3943V17.4149C21.4425 17.4226 21.4361 17.4271 21.431 17.4271C21.4239 17.4271 21.431 17.456 21.4052 17.4656C21.3795 17.4746 21.3905 17.5569 21.3808 17.5859C21.3731 17.618 21.3326 17.6771 21.3326 17.6868C21.3326 17.6971 21.3358 17.7189 21.3365 17.7221C21.337 17.7246 21.3369 17.7272 21.3362 17.7297C21.3356 17.7321 21.3343 17.7344 21.3326 17.7363L21.2407 17.8301C21.2407 17.8301 21.1655 17.9163 21.1892 17.9394C21.2124 17.9594 21.3095 17.9684 21.323 17.9722C21.3358 17.9774 21.2863 18.0185 21.2137 18.0622C21.1391 18.1072 21.089 18.1586 21.0954 18.1599C21.1031 18.1619 21.1449 18.1953 21.1622 18.1921C21.179 18.1901 21.2381 18.1599 21.251 18.1567C21.2632 18.1548 21.3024 18.1124 21.323 18.0963C21.3461 18.0821 21.4277 18.005 21.4535 17.9819C21.4881 17.9591 21.527 17.9437 21.5679 17.9369C21.573 17.9369 21.5904 17.9414 21.5987 17.9426C21.6071 17.9446 21.611 17.9542 21.6071 17.96C21.5609 18.0238 21.5124 18.086 21.4618 18.1464C21.4052 18.2183 21.3529 18.2935 21.305 18.3714C21.305 18.3727 21.2747 18.4203 21.2805 18.4235C21.2985 18.4409 21.3191 18.4235 21.3397 18.4222C21.3628 18.4203 21.431 18.347 21.4618 18.3515C21.4933 18.3509 21.5454 18.2692 21.575 18.2531ZM22.9275 17.6013C22.9211 17.5679 22.8504 17.5781 22.8478 17.5949L22.835 17.6463C22.8337 17.6514 22.8369 17.7376 22.835 17.7581C22.8317 17.7819 22.8382 17.8777 22.8298 17.9118C22.8234 17.9465 22.7842 18.0584 22.7765 18.0809C22.7707 18.0918 22.7675 18.1046 22.7462 18.1066C22.7257 18.1046 22.7225 18.0899 22.7186 18.0783C22.7135 18.0564 22.7064 18.0153 22.6993 17.987C22.6941 17.9217 22.695 17.8561 22.7019 17.7909C22.7082 17.7264 22.712 17.6616 22.7135 17.5968V17.5936C22.7089 17.561 22.7013 17.529 22.691 17.4978C22.6724 17.4521 22.6505 17.4078 22.6254 17.3654C22.6254 17.3654 22.6106 17.24 22.6055 17.2291C22.5977 17.2188 22.5521 17.204 22.5489 17.2368C22.5527 17.2824 22.5605 17.3891 22.5656 17.4258C22.572 17.4689 22.5913 17.5968 22.5926 17.6264C22.5958 17.6521 22.599 17.7112 22.5997 17.7215V17.7228L22.6003 17.7247C22.5988 17.7321 22.5977 17.7397 22.5971 17.7472L22.5958 17.7556H22.5945C22.5926 17.7569 22.5926 17.7575 22.5926 17.7601C22.5923 17.7658 22.591 17.7715 22.5887 17.7768C22.5818 17.7949 22.5764 17.8136 22.5727 17.8327C22.5605 17.8751 22.5097 17.9221 22.4955 17.9677C22.4698 18.0269 22.3515 18.0918 22.3297 18.1008L22.2969 18.1394C22.2789 18.1361 22.3065 18.0892 22.3065 18.0854C22.3065 18.0815 22.3194 18.0468 22.322 18.0404C22.3271 18.0339 22.3265 18.0622 22.3477 17.9722C22.3657 17.8848 22.3104 17.8263 22.3104 17.7691C22.3115 17.7518 22.3097 17.7344 22.3052 17.7176C22.2917 17.6778 22.2892 17.5248 22.2795 17.4888C22.2737 17.465 22.2692 17.4052 22.2622 17.4007C22.2596 17.3962 22.2532 17.3936 22.2519 17.3853C22.2519 17.3821 22.2493 17.3724 22.2467 17.3615V17.3294C22.2467 17.3094 22.2467 17.2844 22.2493 17.2651C22.2506 17.2496 22.2506 17.2162 22.2506 17.1847C22.2506 17.1641 22.2506 17.1423 22.2493 17.1365C22.2476 17.1236 22.2425 17.1114 22.2345 17.1011C22.2305 17.0964 22.2281 17.0906 22.2275 17.0844L22.2146 16.997C22.212 16.9767 22.2077 16.9568 22.2017 16.9372C22.1799 16.9199 22.1522 16.9372 22.151 16.9501C22.1465 16.9989 22.0944 17.1018 22.0802 17.141H22.0873C22.0937 17.1436 22.1002 17.1461 22.1066 17.1474C22.1195 17.1494 22.122 17.1596 22.1246 17.1641C22.1246 17.1706 22.1272 17.1764 22.1272 17.1828C22.1272 17.1905 22.1252 17.1956 22.1246 17.204C22.122 17.2233 22.1162 17.2503 22.1137 17.2644V17.2869C22.1137 17.3126 22.1143 17.3467 22.1175 17.3673C22.1271 17.4113 22.1387 17.4548 22.1522 17.4978C22.1522 17.5094 22.1439 17.6714 22.1439 17.7356C22.1439 17.7659 22.1458 17.7961 22.1497 17.8128C22.1606 17.8732 22.1542 17.9639 22.1574 17.9703C22.1606 17.9754 22.1606 17.9799 22.1606 17.9844C22.1606 17.9857 22.1606 17.9909 22.158 17.9941L22.1522 18.0011C22.1522 18.0037 22.149 18.0069 22.1458 18.0089C22.1381 18.0172 22.1304 18.0269 22.1182 18.0391C22.097 18.0616 22.1079 18.0969 22.0764 18.1316C22.0185 18.1914 21.8848 18.4441 21.8848 18.5431C21.8848 18.5431 21.8687 18.6273 21.8687 18.5996C21.8732 18.6659 21.9118 18.7404 21.9118 18.7964C21.9118 18.7944 21.9684 18.8478 21.9697 18.7822C21.9697 18.7346 21.9607 18.6806 21.987 18.5996C22.041 18.4402 22.1342 18.2718 22.3123 18.2531C22.3226 18.2474 22.3239 18.2467 22.3335 18.2435H22.3387C22.3528 18.2448 22.356 18.2551 22.356 18.2596C22.3586 18.2641 22.3586 18.2692 22.3586 18.2724C22.3586 18.3168 22.3155 18.4331 22.2815 18.572C22.2532 18.6974 22.2326 18.7597 22.221 18.8111C22.2262 18.8079 22.25 18.8504 22.2532 18.8484C22.3303 18.8677 22.3445 18.7745 22.3528 18.7636C22.3528 18.7636 22.356 18.761 22.356 18.7597C22.3586 18.7559 22.3599 18.7507 22.3625 18.743C22.3832 18.677 22.3961 18.6088 22.401 18.5399C22.4081 18.4254 22.448 18.2146 22.4634 18.167C22.4762 18.1239 22.5328 18.0821 22.5662 18.0596C22.5778 18.0526 22.583 18.0487 22.592 18.0468C22.5926 18.0455 22.5971 18.0449 22.5997 18.0449C22.617 18.0449 22.6292 18.0584 22.6292 18.0719V18.0757C22.6292 18.0911 22.6768 18.3059 22.7083 18.5514V18.5579C22.7083 18.5579 22.689 18.7109 22.689 18.8857C22.689 18.9044 22.689 18.9217 22.6916 18.9404C22.6993 19.0998 22.6607 19.2804 22.7135 19.2907C22.7199 19.2862 22.7405 19.2971 22.7411 19.2779C22.7738 19.2285 22.7923 19.1711 22.7945 19.112V19.0991C22.7927 19.0928 22.7917 19.0864 22.7912 19.0799C22.7925 19.0162 22.8298 18.9352 22.8298 18.9037C22.8311 18.8587 22.8491 18.8073 22.8491 18.7912C22.8504 18.7706 22.8504 18.7494 22.8504 18.7353V18.7269C22.8504 18.7179 22.8767 18.5624 22.8716 18.5109C22.8671 18.4595 22.8395 18.3798 22.8395 18.3329H22.8144C22.8184 18.2886 22.8286 18.2451 22.8446 18.2036V18.1998C22.8446 18.1824 22.8767 18.1291 22.8767 18.1046C22.878 18.0744 22.9153 17.9086 22.9295 17.807C22.9404 17.7331 22.9192 17.7247 22.923 17.6951C22.923 17.6951 22.9436 17.6463 22.9423 17.6463L22.9275 17.6013ZM23.6334 18.1381C23.6366 18.1329 23.6167 18.0378 23.6289 17.9741C23.6392 17.9111 23.6308 17.7594 23.6109 17.7311C23.589 17.7054 23.6424 17.6791 23.6417 17.6765C23.6353 17.6733 23.6334 17.6669 23.6353 17.6604C23.6366 17.6566 23.6192 17.5968 23.625 17.5653C23.6263 17.5331 23.6218 17.5209 23.6212 17.5055C23.6192 17.4926 23.6237 17.4914 23.6192 17.4727C23.6147 17.4509 23.6212 17.447 23.6257 17.4341C23.6347 17.4168 23.6372 17.4033 23.6392 17.4033C23.6424 17.4033 23.652 17.3814 23.6649 17.3602C23.6675 17.3538 23.6488 17.2336 23.6424 17.1731C23.6372 17.1121 23.6019 17.1127 23.6019 17.1089C23.6019 17.105 23.5685 17.1153 23.5633 17.2368C23.5614 17.2837 23.5505 17.3461 23.5505 17.3486L23.5479 17.3564C23.5453 17.3583 23.5312 17.3615 23.5299 17.3801C23.5254 17.4174 23.5299 17.4804 23.5312 17.4875C23.5331 17.5184 23.5331 17.5704 23.5312 17.5807C23.5299 17.591 23.5273 17.5595 23.5273 17.5614C23.526 17.5646 23.5228 17.5666 23.5209 17.5691C23.5196 17.5704 23.5151 17.5981 23.508 17.6341C23.4895 17.703 23.4696 17.7716 23.4482 17.8398C23.4341 17.8784 23.4482 18.0095 23.474 18.1329C23.5022 18.2551 23.5048 18.2885 23.4817 18.2975C23.4489 18.3149 23.3531 18.2191 23.337 18.1728C23.3222 18.1278 23.2592 18.0288 23.247 17.9864C23.2392 17.9599 23.2317 17.9333 23.2245 17.9066L23.2232 17.9034L23.2213 17.8822C23.2213 17.8758 23.2245 17.8141 23.2277 17.7858L23.2554 17.5852C23.2612 17.5409 23.2715 17.4785 23.2747 17.4425C23.2768 17.3858 23.2725 17.3291 23.2618 17.2734C23.2554 17.2477 23.2406 17.2496 23.2387 17.2529C23.1551 17.2496 23.186 17.3801 23.1789 17.3962C23.1667 17.4116 23.2072 17.4914 23.2001 17.5016C23.1937 17.5139 23.193 17.5428 23.1911 17.5466C23.1888 17.5496 23.1875 17.5532 23.1872 17.5569C23.1872 17.5589 23.186 17.5634 23.184 17.564C23.1821 17.5653 23.1069 17.6206 23.0972 17.6527C23.0868 17.6855 23.0787 17.7191 23.0728 17.753C23.0728 17.7639 23.0786 17.8989 23.0844 17.951C23.0908 18.0024 23.1242 18.1136 23.121 18.1413C23.1159 18.1696 23.1069 18.2101 23.1017 18.2326C23.0998 18.2351 23.0998 18.2384 23.0998 18.2384C23.0998 18.2384 23.0722 18.3753 23.0696 18.5309C23.069 18.5977 23.1313 18.608 23.1416 18.6749C23.1622 18.8086 23.2187 19.0413 23.2387 19.0799C23.2612 19.1197 23.2702 19.1441 23.2785 19.1441C23.2869 19.1435 23.3094 19.1673 23.3203 19.1911C23.3486 19.2483 23.3627 19.247 23.3891 19.2656C23.4142 19.2811 23.4142 19.238 23.4148 19.2329C23.4167 19.2264 23.3094 18.9134 23.2676 18.6774C23.2271 18.4415 23.2483 18.3071 23.2483 18.2975C23.2483 18.2898 23.2528 18.2641 23.2612 18.2666C23.2702 18.2692 23.3447 18.284 23.3608 18.329C23.3737 18.3753 23.4315 18.5861 23.4598 18.698C23.4868 18.8086 23.4778 18.8645 23.4875 18.8735C23.4984 18.8831 23.5704 18.9487 23.5929 18.9609C23.6147 18.9731 23.6366 18.9841 23.6379 18.9841C23.6392 18.9841 23.6501 18.9005 23.589 18.7269C23.526 18.5566 23.5138 18.3952 23.5273 18.392C23.5813 18.3759 23.7305 18.5161 23.8102 18.6903C23.8892 18.8639 23.9201 18.9333 23.9323 18.9191C23.9638 18.8838 23.9182 18.8054 23.9021 18.7051C23.886 18.6048 23.7755 18.4119 23.7112 18.3431C23.645 18.2737 23.6353 18.1503 23.634 18.1484C23.6326 18.1451 23.6324 18.1415 23.6334 18.1381ZM23.8925 17.9446C23.8925 17.9446 23.9156 17.9401 23.9124 17.9317C23.8989 17.8861 23.942 17.9021 23.9471 17.9021C23.951 17.9021 23.96 17.9066 23.9625 17.9092C23.9638 17.9131 24.0461 18.0404 24.1027 18.113C24.149 18.1709 24.1682 18.1786 24.1753 18.1734C24.183 18.1696 24.1284 18.0899 24.1355 18.0352C24.1451 17.9831 24.0975 17.9266 24.0815 17.9208C24.0667 17.9137 23.9857 17.8334 23.9754 17.7935C23.9645 17.753 23.9175 17.5653 23.8963 17.5151C23.8732 17.4624 23.9047 17.4329 23.9008 17.429C23.8963 17.4258 23.8957 17.4174 23.8995 17.4142C23.9034 17.4097 23.8905 17.3827 23.8931 17.3801C23.9006 17.3431 23.9037 17.3054 23.9021 17.2676C23.9021 17.2297 23.8886 17.2201 23.8835 17.2252C23.879 17.2329 23.814 17.4084 23.7832 17.4824C23.7523 17.5563 23.7992 17.7974 23.841 17.861C23.8815 17.9221 23.8905 17.9446 23.8925 17.9446ZM19.6914 24.0954C19.7229 24.0961 19.748 24.0903 19.764 24.0723C19.7743 24.0389 19.7827 24.0389 19.7814 24.017C19.7808 24.0043 19.7768 23.9919 19.77 23.9812C19.7631 23.9705 19.7535 23.9618 19.7422 23.9559C19.7216 24.0138 19.6862 24.0472 19.6393 24.0472C19.602 24.0472 19.5602 24.0273 19.5146 23.9945C19.5013 24.0029 19.4864 24.0086 19.4709 24.0112C19.4304 24.0331 19.3989 24.0517 19.4015 24.0935V24.0961L19.4027 24.1051L19.3989 24.1096C19.387 24.1208 19.3801 24.1363 19.3796 24.1526C19.3796 24.1906 19.4439 24.2362 19.4889 24.2555L19.4966 24.1758C19.5133 24.1321 19.557 24.1205 19.5956 24.1205C19.6297 24.1205 19.6605 24.098 19.6914 24.0954ZM19.6239 24.3783C19.6078 24.4156 19.6136 24.4136 19.6316 24.4529L19.6502 24.4342C19.6952 24.3944 19.8065 24.5075 19.8129 24.3731C19.7595 24.3539 19.7229 24.323 19.665 24.3423C19.6502 24.3629 19.6322 24.3545 19.6239 24.3783ZM19.2131 20.0821C19.2369 20.0223 19.2266 20.0326 19.2902 20.0094L19.3352 20.0043C19.3561 19.9997 19.3764 19.9928 19.3957 19.9837C19.4278 19.9612 19.4439 19.9072 19.4452 19.8725C19.3121 19.8217 19.1835 19.8436 19.0916 19.9471C19.098 20.0159 19.1199 20.0692 19.2131 20.0821ZM21.0973 16.2275C21.1117 16.2167 21.1243 16.2036 21.1346 16.1889C21.152 16.1632 21.1442 16.1195 21.1327 16.097C21.0125 16.1163 20.9205 16.1838 20.8877 16.2892C20.9173 16.3329 20.9565 16.358 21.0317 16.3291C21.0266 16.2789 21.0247 16.2918 21.0652 16.25L21.0973 16.2275ZM19.6483 20.4761C19.584 20.4929 19.5493 20.5276 19.5114 20.5784C19.487 20.6073 19.4889 20.6092 19.4825 20.6221C19.4767 20.633 19.469 20.6401 19.4497 20.6504C19.4966 20.6864 19.5352 20.7114 19.5673 20.7108C19.5905 20.7108 19.6149 20.6979 19.6477 20.6549C19.6631 20.6356 19.6509 20.6221 19.6862 20.6002C19.7158 20.5809 19.7287 20.5616 19.766 20.5481C19.7518 20.5391 19.7422 20.5289 19.7293 20.5211L19.7068 20.5006C19.6862 20.4871 19.6702 20.4749 19.6483 20.4761ZM19.532 21.3344C19.5082 21.3626 19.5101 21.3678 19.5037 21.3794C19.4972 21.3903 19.4895 21.3967 19.4715 21.4064C19.5165 21.4424 19.5557 21.4713 19.5872 21.4694C19.6117 21.4694 19.6355 21.4546 19.6676 21.4128C19.6843 21.3935 19.6721 21.3794 19.7062 21.3575C19.7383 21.3376 19.7499 21.3176 19.7865 21.3054L19.7499 21.2784L19.728 21.2572C19.7068 21.2444 19.692 21.2315 19.6682 21.2328C19.6059 21.2476 19.5712 21.2855 19.532 21.3344ZM19.458 20.2499L19.4876 20.2595C19.5005 20.2614 19.5127 20.2659 19.5255 20.2691C19.5872 20.2781 19.5834 20.2608 19.6528 20.2409C19.6528 20.2409 19.6258 20.2248 19.649 20.192C19.6682 20.1644 19.6779 20.1464 19.7004 20.1213L19.6779 20.1136C19.6245 20.0962 19.5879 20.0962 19.5249 20.1348C19.4972 20.1779 19.4111 20.2132 19.458 20.2499ZM18.6943 22.1244C18.6934 22.1088 18.6921 22.0931 18.6905 22.0775C18.6892 22.0542 18.6909 22.0309 18.6956 22.0081L18.6969 21.9991L18.7065 21.9952C18.7136 21.9933 18.7232 21.9862 18.7348 21.9798L18.7682 21.9605C18.785 21.9399 18.8113 21.929 18.8454 21.929C18.9264 21.8994 19.0453 21.8467 19.0382 21.7811C19.0341 21.7563 19.0234 21.733 19.0074 21.7136L19.0003 21.7072L19.0022 21.6989C19.0389 21.5561 19.2086 21.4469 19.3172 21.3607C19.3054 21.3373 19.2986 21.3117 19.2973 21.2855C19.2941 21.2328 19.323 21.1929 19.3603 21.1447L19.3963 21.1229C19.4214 21.092 19.4362 21.0611 19.4349 21.0296C19.4336 21.0124 19.4279 20.9958 19.4182 20.9814C19.3957 20.9596 19.3745 20.9493 19.3635 20.9493C19.3507 20.9493 19.3417 20.9538 19.3295 20.9827L19.3172 21.0007C19.3082 21.0264 19.2935 21.0155 19.2742 21.02C19.237 21.0547 19.1887 21.075 19.1379 21.0772C19.0434 21.0753 18.9746 21.0097 18.9045 21.0136C18.8949 21.0155 18.8833 21.0155 18.8737 21.0187L18.8647 21.02L18.8582 21.0161C18.8338 20.9969 18.819 20.9924 18.8107 20.9924C18.785 20.9859 18.7708 21.0579 18.7194 21.092C18.54 21.1807 18.4462 21.4822 18.4526 21.569C18.4526 21.5722 18.4532 21.5754 18.4545 21.5761C18.5111 21.5748 18.7644 21.3716 18.765 21.3479C18.7682 21.3434 18.7682 21.3414 18.7682 21.3369C18.7702 21.3241 18.7419 21.3144 18.7342 21.2791C18.7342 21.2591 18.7502 21.2495 18.7676 21.2444L18.8036 21.2315C18.8402 21.2186 18.873 21.2013 18.8872 21.1698L18.8936 21.1595L18.9084 21.1621C18.9727 21.1807 19.0929 21.2444 19.145 21.2829L19.1578 21.2919L19.1514 21.3067C19.1344 21.3392 19.1099 21.3671 19.08 21.3884C18.9695 21.4655 18.839 21.5137 18.8467 21.6281C18.848 21.6487 18.8531 21.6731 18.8647 21.7014L18.8666 21.7066L18.8653 21.713C18.846 21.803 18.7914 21.8351 18.7245 21.8351C18.7001 21.8351 18.675 21.8319 18.6474 21.83L18.5645 21.8171C18.5409 21.8135 18.517 21.812 18.4931 21.8126C18.4623 21.8116 18.4317 21.8176 18.4035 21.83C18.3754 21.8425 18.3504 21.8612 18.3305 21.8846C18.351 21.9052 18.3626 21.9245 18.3626 21.9457C18.3639 21.9586 18.3626 21.9701 18.3581 21.983L18.4989 21.9046L18.5085 21.911C18.5657 21.9496 18.5747 21.9984 18.576 22.0428V22.1328C18.578 22.1662 18.5837 22.19 18.6095 22.2356C18.6956 22.1971 18.6956 22.1694 18.6943 22.1244ZM19.7897 22.5339C19.7737 22.6998 19.6078 22.6381 19.5345 22.7396C19.4996 22.7821 19.4811 22.8357 19.4825 22.8907C19.4826 22.9049 19.4848 22.9189 19.4889 22.9325L19.4972 22.9261C19.5667 22.8779 19.6168 22.7994 19.6901 22.7429L19.6927 22.739H19.6946L19.7184 22.7377H19.7229C19.7287 22.7377 19.7312 22.7377 19.739 22.7364H19.7422C19.7615 22.7358 19.7467 22.7763 19.7531 22.7872C19.8045 22.7705 19.8418 22.7339 19.8392 22.6824C19.839 22.6785 19.8383 22.6746 19.8373 22.6709L19.8437 22.6606L19.8444 22.6541C19.8806 22.6353 19.9108 22.6068 19.9318 22.5719L19.9524 22.5384C19.9794 22.4934 19.9517 22.5063 19.9922 22.5063C20.0077 22.5063 20.0218 22.4786 20.0411 22.4838C20.0707 22.4542 20.1028 22.4529 20.0964 22.4343C20.0964 22.4291 20.0366 22.4214 20.0295 22.4086C19.8688 22.4189 19.9254 22.4619 19.7897 22.5339ZM19.2992 22.9511C19.2854 22.9517 19.2716 22.9537 19.2581 22.9569C19.163 23.0148 19.1218 23.0559 19.0202 23.0572C18.9977 23.0572 18.972 23.0559 18.945 23.0534C18.8036 23.1858 18.7972 23.2809 18.7972 23.3825L18.9142 23.4011L18.9052 23.3336C18.8987 23.2154 19.0691 23.1781 19.0691 23.1781C19.2247 23.1138 19.2992 23.1048 19.3944 22.9878C19.382 22.9753 19.3671 22.9656 19.3507 22.9592C19.3343 22.9528 19.3168 22.9504 19.2992 22.9511ZM19.73 23.0321C19.6785 23.0315 19.7165 23.0739 19.6708 23.1099L19.6644 23.1157L19.6541 23.1138C19.6374 23.1106 19.6239 23.1389 19.6097 23.1389C19.512 23.1324 19.3243 23.2674 19.3217 23.2726C19.253 23.3754 19.2292 23.4641 19.1115 23.5535C19.1372 23.5715 19.1552 23.5818 19.1739 23.5824C19.1919 23.5831 19.2144 23.576 19.2452 23.5509C19.2722 23.5278 19.2915 23.4918 19.3462 23.4892C19.3841 23.3439 19.4837 23.2989 19.6438 23.2649V23.2636L19.7113 23.1427C19.8592 23.1074 19.8521 23.1099 19.9112 23.0122C19.8799 23.0216 19.8475 23.0274 19.8148 23.0296L19.73 23.0321ZM19.6014 23.7251C19.607 23.6836 19.6257 23.6448 19.6547 23.6146C19.6691 23.5995 19.6848 23.5857 19.7017 23.5734L19.7364 23.5477L19.7145 23.4719L19.7087 23.4731C19.6245 23.4886 19.602 23.531 19.5718 23.5715L19.5538 23.6043C19.527 23.6419 19.4918 23.6727 19.451 23.6943C19.4268 23.7081 19.399 23.7141 19.3712 23.7116C19.3179 23.7149 19.262 23.6981 19.2189 23.6891C19.197 23.7039 19.1951 23.7174 19.1951 23.7393C19.1951 23.747 19.1964 23.756 19.1996 23.765L19.206 23.81C19.206 23.8254 19.206 23.8338 19.2047 23.8473C19.2117 23.8505 19.219 23.8527 19.2266 23.8537C19.2373 23.8514 19.247 23.8458 19.2542 23.8376L19.2761 23.8068L19.2838 23.8081L19.307 23.8068C19.316 23.8081 19.3256 23.8081 19.3333 23.8081C19.3571 23.8068 19.3693 23.8203 19.3783 23.8306C19.46 23.8081 19.5628 23.7926 19.6014 23.7251ZM19.2735 22.5834C19.2851 22.5301 19.3391 22.5011 19.3931 22.4999C19.4169 22.4999 19.4387 22.5063 19.4593 22.5159L19.4747 22.4999L19.4876 22.4118L19.4927 22.4086C19.586 22.3327 19.586 22.3867 19.7049 22.3706C19.6987 22.352 19.6954 22.3325 19.6952 22.3128C19.6888 22.1302 19.8129 22.0801 19.8187 21.9078C19.791 21.8814 19.7692 21.8654 19.7422 21.8654C19.7383 21.8673 19.7332 21.8673 19.7293 21.8673C19.7049 21.9181 19.6779 21.9669 19.6811 22.0177V22.0261L19.6843 22.0389L19.6721 22.0434C19.5223 22.1058 19.6412 22.1032 19.5615 22.2273L19.5551 22.2369L19.5435 22.2331C19.5278 22.2287 19.5116 22.2265 19.4953 22.2266C19.4349 22.2266 19.4027 22.2678 19.3706 22.3102L19.341 22.3488C19.2941 22.4066 19.2144 22.4324 19.2086 22.4619C19.1906 22.5841 19.1385 22.577 19.0415 22.6689C19.0195 22.6919 18.9896 22.7056 18.9579 22.7075C18.9212 22.7075 18.8994 22.6869 18.891 22.6799C18.8884 22.6751 18.8866 22.6698 18.8859 22.6644C18.8872 22.6451 18.8994 22.6342 18.9013 22.631C18.9296 22.5899 18.963 22.5442 18.9592 22.5024C18.9592 22.4914 18.957 22.4805 18.9527 22.4703L18.9482 22.4606L18.9547 22.4529C19.0395 22.3571 19.1025 22.2543 19.1411 22.1379C19.1606 22.0976 19.1901 22.063 19.2268 22.0374C19.2635 22.0117 19.3061 21.9959 19.3507 21.9914L19.3597 21.9901L19.3661 21.9991C19.3777 22.0119 19.3918 22.0184 19.4047 22.0248L19.4272 22.0364C19.4391 22.0406 19.4498 22.0479 19.458 22.0576C19.4876 22.0428 19.4908 22.0383 19.4908 22.0081V21.9824C19.4739 21.9693 19.46 21.9528 19.45 21.934C19.44 21.9151 19.4342 21.8944 19.433 21.8731C19.4291 21.7914 19.4889 21.713 19.523 21.6455C19.4953 21.6276 19.4642 21.6158 19.4317 21.6108C19.4015 21.6108 19.3835 21.6339 19.3725 21.7046L19.3661 21.7638C19.3597 21.8075 19.35 21.875 19.2922 21.8988H19.2864C19.2804 21.8982 19.2744 21.898 19.2684 21.8981C19.107 21.8956 19.0736 22.0807 18.9399 22.1611L18.9444 22.2716L18.9412 22.2768C18.911 22.3154 18.8647 22.3385 18.8267 22.3668C18.8126 22.3745 18.801 22.3886 18.785 22.4054C18.8042 22.4266 18.8171 22.4478 18.819 22.4735C18.8203 22.4999 18.8094 22.523 18.7869 22.5519C18.7329 22.6143 18.659 22.6291 18.6641 22.6824C18.665 22.6873 18.6654 22.6923 18.6654 22.6972L18.7117 22.7268C18.7952 22.739 18.9007 22.8367 19.001 22.8457C19.1173 22.7789 19.2305 22.7107 19.2735 22.5834ZM23.9227 18.1175C23.9066 18.113 23.9336 18.2332 23.9169 18.2294C23.9561 18.3026 23.9934 18.3939 24.1065 18.3811C24.0911 18.2969 24.003 18.2416 23.9561 18.158L23.9227 18.1175ZM15.4852 25.0019L15.5109 24.9954C15.5456 24.9761 15.572 24.9581 15.5675 24.9151C15.5096 24.8746 15.4749 24.8238 15.417 24.7994C15.381 24.7839 15.3585 24.7897 15.3251 24.8058C15.3669 24.9048 15.3489 24.9472 15.2801 25.025L15.2402 25.07C15.176 25.1375 15.1612 25.1761 15.1747 25.2719C15.297 25.2368 15.4052 25.1642 15.4839 25.0642C15.4665 25.0346 15.4453 25.0166 15.4852 25.0019ZM15.905 25.6736C15.878 25.6736 15.851 25.6904 15.8259 25.7077L15.8111 25.7141L15.8072 25.7193L15.8053 25.7257L15.8008 25.7617L15.7982 25.7778H15.8124L15.815 25.7746C15.8381 25.7746 15.8735 25.8003 15.9107 25.8022H15.9127C15.9371 25.8022 15.9602 25.7868 15.977 25.7482L15.9795 25.7418L15.9763 25.7373C15.957 25.6923 15.932 25.6736 15.9056 25.6736H15.905ZM15.5707 25.61C15.4839 25.5894 15.3952 25.5869 15.3077 25.5843L15.3643 25.7778L15.4543 25.7746C15.4556 25.7276 15.4479 25.7071 15.5122 25.7039C15.5803 25.7039 15.6163 25.7129 15.6652 25.6601L15.6311 25.619L15.5707 25.61ZM15.0647 25.2584C14.9715 25.2706 14.9683 25.3188 14.9747 25.3991C14.9786 25.4274 14.9844 25.457 14.9825 25.4859C14.9844 25.5155 14.996 25.5149 14.9857 25.5354C14.9857 25.5354 14.9927 25.5669 15.0101 25.5791C15.0262 25.5939 15.1014 25.5341 15.1014 25.5341C15.1477 25.4891 15.1374 25.4339 15.0988 25.3612L15.0647 25.2584ZM15.8008 25.1722C15.5392 25.0931 15.6356 25.3927 15.5687 25.4679L15.5919 25.4911C15.6318 25.4745 15.6678 25.4498 15.6977 25.4186C15.7276 25.3874 15.7506 25.3504 15.7655 25.3098C15.8497 25.2294 15.9557 25.2551 16.0419 25.1407C15.9416 25.0539 15.869 25.0874 15.8008 25.1729V25.1722ZM24.2428 13.1122C24.1387 13.2003 24.0075 13.3732 23.8648 13.4002C23.7864 13.4137 23.5691 13.3919 23.555 13.3494C23.5421 13.3102 23.8063 13.1219 23.8648 13.0923C23.9297 13.0569 23.987 13.0537 24.075 13.0229C24.1213 13.0055 24.2345 12.9393 24.2615 12.9425C24.3129 12.9496 24.3392 12.9817 24.3219 13.0421C24.3129 13.0769 24.2801 13.0794 24.2428 13.1122Z" fill="white"/>
</g>
<circle cx="20" cy="20" r="19.5" stroke="black" stroke-opacity="0.05"/>
<defs>
<clipPath id="clip0_9_412348">
<rect width="19" height="24" fill="white" transform="translate(9 7)"/>
</clipPath>
</defs>
</svg>
