<svg width="40" height="40" viewBox="0 0 40 40" fill="none" xmlns="http://www.w3.org/2000/svg">
<circle cx="20" cy="20" r="20" fill="#15394B"/>
<g clip-path="url(#clip0_9_409432)">
<rect x="6" y="6" width="28" height="27.5864" rx="10" fill="white"/>
<path fill-rule="evenodd" clip-rule="evenodd" d="M6 6H34V33.5864H6V6ZM11.1324 9.92036C11.1342 16.4969 11.1324 23.0751 11.1324 29.6516C12.3541 29.6516 13.5752 29.6516 14.7956 29.6516C14.7956 27.1987 14.7956 24.744 14.7956 22.2911C15.5701 22.2911 16.344 22.2911 17.1173 22.2911C17.1173 20.5773 17.1191 18.8653 17.1155 17.1514C16.3422 17.1514 15.5689 17.1514 14.7956 17.1514C14.7956 14.7405 14.7956 12.3301 14.7956 9.92036C13.5752 9.92036 12.3541 9.92036 11.1324 9.92036ZM17.9229 9.92036C17.9229 16.4975 17.9229 23.0745 17.9229 29.6516C19.3076 29.6516 20.6924 29.6516 22.0771 29.6516C22.0771 23.0745 22.0771 16.4975 22.0771 9.92036C20.6924 9.92036 19.3076 9.92036 17.9229 9.92036ZM25.2026 9.92036C25.2026 12.3301 25.2026 14.7405 25.2026 17.1514C24.4293 17.1514 23.656 17.1514 22.8827 17.1514C22.8827 18.8647 22.8827 20.5779 22.8827 22.2911C23.656 22.2911 24.4293 22.2911 25.2026 22.2911C25.2026 24.744 25.2026 27.1987 25.2026 29.6516C26.423 29.6516 27.6441 29.6516 28.8658 29.6516C28.8694 23.0751 28.864 16.4987 28.8676 9.92036C27.6465 9.91856 26.4236 9.92036 25.2026 9.92036Z" fill="#15394B"/>
</g>
<circle cx="20" cy="20" r="19.5" stroke="black" stroke-opacity="0.05"/>
<defs>
<clipPath id="clip0_9_409432">
<rect x="6" y="6" width="28" height="27.5864" rx="10" fill="white"/>
</clipPath>
</defs>
</svg>
