<svg width="40" height="40" viewBox="0 0 40 40" fill="none" xmlns="http://www.w3.org/2000/svg">
<circle cx="20" cy="20" r="20" fill="#F6F8FA"/>
<path d="M3.71387 17.9639H5.07101V19.321H7.10672V17.9639H8.46387V21.3567H7.10672V20.3253H5.07101V21.3567H3.71387V17.9639ZM9.14244 17.9639H10.4996V21.3567H9.14244V17.9639ZM11.1782 17.9639H12.5353V20.3253H14.571L14.001 21.3567H11.1782V17.9639ZM16.6067 17.9639H15.2496V21.3567H18.0724L18.6424 20.3253H16.6067V17.9639ZM19.321 21.3567V17.9639H21.1192L22.0692 19.3142L23.0328 17.9639H24.7496V21.3567H23.3924V19.511L22.0217 21.3567L20.6782 19.511V21.3567H19.321ZM27.0432 17.9639L25.4282 21.3567H26.8192L28.061 18.7782L28.916 20.3999H27.966L27.5453 21.3567H30.8567L29.1467 17.9639H27.0432ZM31.5353 21.3567V17.9639H33.1639L34.9282 19.8367V17.9639H36.2853V21.3567H34.8128L32.8924 19.3482V21.3567H31.5353Z" fill="black"/>
<circle cx="20" cy="20" r="19.5" stroke="black" stroke-opacity="0.05"/>
</svg>
