<svg width="40" height="40" viewBox="0 0 40 40" fill="none" xmlns="http://www.w3.org/2000/svg">
<circle cx="20" cy="20" r="20" fill="#07487A"/>
<path d="M25.5603 8.80911L28.1448 12.5218C28.1566 12.539 28.161 12.5601 28.1572 12.5806C28.1534 12.6011 28.1417 12.6193 28.1246 12.6312L25.3355 14.5412C25.3186 14.5531 25.2976 14.5579 25.2771 14.5545C25.2566 14.551 25.2383 14.5397 25.2262 14.5229L22.2386 10.3424C22.2315 10.3329 22.2265 10.322 22.2242 10.3104C22.2219 10.2988 22.2222 10.2868 22.2251 10.2753C22.228 10.2639 22.2335 10.2532 22.2411 10.2441C22.2487 10.235 22.2582 10.2278 22.269 10.2229L25.4611 8.78075C25.4783 8.77279 25.4978 8.77127 25.516 8.77648C25.5342 8.78168 25.55 8.79326 25.5603 8.80911Z" fill="white"/>
<path d="M31.0573 16.7684L29.4673 13.1591C29.4617 13.146 29.4601 13.1315 29.4626 13.1175C29.4651 13.1034 29.4717 13.0904 29.4815 13.0801L30.8426 11.7048C30.851 11.6962 30.8614 11.6897 30.8728 11.6861C30.8843 11.6824 30.8965 11.6816 30.9083 11.6839C30.9202 11.6861 30.9313 11.6912 30.9407 11.6987C30.95 11.7062 30.9574 11.716 30.9621 11.7271L32.4326 15.1319C32.4379 15.1441 32.4398 15.1575 32.438 15.1708C32.4362 15.184 32.4309 15.1964 32.4225 15.2068L31.1809 16.7846C31.173 16.7944 31.1628 16.802 31.1512 16.8067C31.1396 16.8113 31.1269 16.8129 31.1145 16.8113C31.1021 16.8097 31.0903 16.8049 31.0803 16.7974C31.0703 16.7899 31.0624 16.7799 31.0573 16.7684Z" fill="white"/>
<path d="M28.0074 19.4042L25.8766 15.8131C25.8625 15.7895 25.8577 15.7616 25.8629 15.7347C25.8681 15.7078 25.8831 15.6838 25.9049 15.6672L28.5927 13.6377C28.6063 13.6274 28.6221 13.6204 28.6388 13.6172C28.6555 13.614 28.6728 13.6147 28.6892 13.6192C28.7057 13.6237 28.7208 13.6319 28.7336 13.6432C28.7464 13.6545 28.7564 13.6685 28.7628 13.6843L30.3549 17.4354C30.3642 17.457 30.3665 17.4809 30.3614 17.5038C30.3563 17.5268 30.3441 17.5475 30.3265 17.5631L28.1775 19.4326C28.1651 19.4434 28.1504 19.4514 28.1345 19.456C28.1187 19.4605 28.102 19.4614 28.0857 19.4587C28.0694 19.456 28.0539 19.4497 28.0404 19.4403C28.0268 19.4308 28.0156 19.4185 28.0074 19.4042Z" fill="white"/>
<path d="M9.69897 16.803L15.2183 13.7122C15.2375 13.7017 15.2598 13.6985 15.2811 13.7034C15.3024 13.7083 15.3211 13.7208 15.3338 13.7385L18.7811 18.5834C18.7884 18.5937 18.7933 18.6054 18.7957 18.6177C18.7981 18.6301 18.7979 18.6428 18.795 18.655C18.7921 18.6673 18.7867 18.6788 18.7791 18.6888C18.7715 18.6988 18.7618 18.707 18.7507 18.713L13.2314 21.8019C13.2122 21.8124 13.1899 21.8155 13.1686 21.8107C13.1474 21.8058 13.1286 21.7933 13.1159 21.7755L9.66859 16.9327C9.66135 16.9224 9.65637 16.9107 9.65397 16.8983C9.65158 16.886 9.65183 16.8733 9.6547 16.861C9.65756 16.8488 9.66299 16.8373 9.67062 16.8273C9.67825 16.8173 9.68791 16.809 9.69897 16.803Z" fill="white"/>
<path d="M33.1866 15.2361L33.616 14.5738C33.693 14.4536 33.7456 14.4631 33.774 14.6022C33.9671 15.5595 34.0366 16.5459 33.9826 17.5613C33.9678 17.8274 33.9185 17.8341 33.8348 17.5816L33.1481 15.5521C33.1103 15.44 33.1231 15.3347 33.1866 15.2361Z" fill="white"/>
<path d="M31.3331 17.7637L32.6841 16.0725C32.6929 16.0616 32.7044 16.0532 32.7174 16.0482C32.7305 16.0432 32.7447 16.0417 32.7585 16.044C32.7723 16.0463 32.7852 16.0522 32.796 16.0611C32.8068 16.07 32.815 16.0816 32.8198 16.0947L33.6665 18.4341C33.6709 18.4466 33.6721 18.4601 33.67 18.4732C33.6679 18.4863 33.6625 18.4986 33.6543 18.5091L32.1757 20.4252C32.1668 20.4365 32.1549 20.4452 32.1413 20.4503C32.1277 20.4553 32.1131 20.4566 32.0989 20.4538C32.0846 20.4511 32.0715 20.4446 32.0607 20.4349C32.05 20.4252 32.0421 20.4127 32.038 20.3988L31.319 17.8346C31.3155 17.8225 31.315 17.8098 31.3175 17.7974C31.3199 17.7851 31.3253 17.7735 31.3331 17.7637Z" fill="white"/>
<path d="M27.0392 20.2892L23.1098 23.0418C23.0972 23.0506 23.0829 23.0568 23.0679 23.0598C23.0528 23.0629 23.0373 23.0628 23.0222 23.0596C23.0072 23.0563 22.993 23.05 22.9805 23.041C22.9681 23.032 22.9576 23.0206 22.9498 23.0073L20.5233 19.0516C20.5154 19.0393 20.5101 19.0255 20.5075 19.011C20.505 18.9966 20.5053 18.9818 20.5085 18.9675C20.5117 18.9532 20.5177 18.9397 20.5262 18.9277C20.5346 18.9157 20.5453 18.9055 20.5577 18.8977L24.7848 16.2686C24.7976 16.2607 24.8119 16.2555 24.8268 16.2532C24.8417 16.251 24.8569 16.2517 24.8715 16.2555C24.8861 16.2593 24.8997 16.266 24.9116 16.2752C24.9235 16.2845 24.9335 16.296 24.9408 16.3091L27.0736 20.1454C27.0864 20.1694 27.09 20.1973 27.0837 20.2238C27.0773 20.2503 27.0615 20.2736 27.0392 20.2892Z" fill="white"/>
<path d="M28.3247 20.6037L30.6094 18.4648C30.6185 18.4564 30.6295 18.4504 30.6416 18.4474C30.6536 18.4445 30.6662 18.4446 30.6781 18.4479C30.6901 18.4511 30.701 18.4573 30.7099 18.466C30.7188 18.4746 30.7253 18.4854 30.7289 18.4973L31.5796 21.2154C31.5831 21.2278 31.5832 21.2409 31.58 21.2533C31.5768 21.2658 31.5704 21.2771 31.5614 21.2863L29.4427 23.492C29.4342 23.5011 29.4236 23.5078 29.4118 23.5116C29.4 23.5154 29.3874 23.5161 29.3752 23.5137C29.363 23.5113 29.3517 23.5058 29.3422 23.4977C29.3328 23.4897 29.3255 23.4794 29.3212 23.4677L28.3064 20.6807C28.3017 20.6675 28.301 20.6532 28.3042 20.6395C28.3074 20.6259 28.3145 20.6134 28.3247 20.6037Z" fill="white"/>
<path d="M33.9152 19.3615C33.7046 20.6861 33.3603 21.9986 32.9066 23.2605C32.8147 23.5157 32.7378 23.5116 32.6757 23.2483L32.2868 21.6036C32.2665 21.5213 32.2807 21.445 32.3293 21.3748L33.7795 19.3068C33.9038 19.1312 33.949 19.1495 33.9152 19.3615Z" fill="white"/>
<path d="M28.5521 24.3121L25.1372 26.9938C25.1279 27.0011 25.117 27.0063 25.1054 27.0089C25.0939 27.0115 25.0819 27.0116 25.0703 27.0091C25.0587 27.0066 25.0478 27.0015 25.0384 26.9944C25.0289 26.9872 25.0212 26.978 25.0157 26.9675L23.5918 24.1764C23.5827 24.1592 23.5802 24.1392 23.5847 24.1202C23.5891 24.1013 23.6003 24.0845 23.6161 24.0731L27.4928 21.2922C27.5031 21.2849 27.515 21.2801 27.5275 21.2782C27.54 21.2764 27.5528 21.2774 27.5648 21.2814C27.5768 21.2853 27.5877 21.292 27.5967 21.3009C27.6056 21.3098 27.6124 21.3207 27.6164 21.3327L28.5785 24.223C28.5838 24.2388 28.5841 24.2558 28.5794 24.2717C28.5746 24.2877 28.5651 24.3018 28.5521 24.3121Z" fill="white"/>
<path d="M29.6174 24.5207L31.7198 22.2259C31.7281 22.2172 31.7386 22.2108 31.7501 22.2076C31.7617 22.2043 31.7739 22.2042 31.7855 22.2074C31.7971 22.2105 31.8077 22.2166 31.8161 22.2253C31.8245 22.2339 31.8304 22.2446 31.8332 22.2563L32.2019 23.9617C32.2043 23.9724 32.2042 23.9835 32.2013 23.9941C32.1985 24.0047 32.1931 24.0144 32.1856 24.0225L29.9982 26.3315C29.9896 26.3408 29.9785 26.3475 29.9662 26.3508C29.9539 26.3541 29.941 26.3538 29.9288 26.35C29.9167 26.3461 29.9059 26.3389 29.8978 26.3292C29.8896 26.3195 29.8844 26.3076 29.8827 26.295L29.6012 24.5774C29.5993 24.5674 29.5999 24.557 29.6027 24.5472C29.6055 24.5374 29.6105 24.5283 29.6174 24.5207Z" fill="white"/>
<path d="M12.8101 23.358L16.0205 27.1152C16.0286 27.1249 16.0345 27.1362 16.0377 27.1484C16.041 27.1606 16.0414 27.1734 16.0391 27.1858C16.0368 27.1982 16.0317 27.21 16.0243 27.2202C16.0168 27.2304 16.0072 27.2388 15.9961 27.2449L11.5948 29.4911C11.578 29.5 11.5588 29.5031 11.54 29.4998C11.5213 29.4965 11.5042 29.487 11.4915 29.4729L8.02192 25.667C8.01305 25.6572 8.0066 25.6455 8.00308 25.6327C7.99955 25.62 7.99905 25.6066 8.0016 25.5936C8.00416 25.5806 8.00971 25.5684 8.0178 25.558C8.0259 25.5475 8.03632 25.5391 8.04825 25.5334L12.7088 23.3378C12.7256 23.3296 12.7446 23.3271 12.7629 23.3308C12.7812 23.3344 12.7978 23.344 12.8101 23.358Z" fill="white"/>
<path d="M17.8131 27.4251L22.5911 24.6907C22.6009 24.6851 22.6117 24.6815 22.6229 24.6802C22.6341 24.6789 22.6454 24.6799 22.6562 24.6832C22.667 24.6864 22.6771 24.6918 22.6857 24.699C22.6944 24.7062 22.7015 24.7151 22.7066 24.7252L24.1122 27.4109C24.1218 27.4289 24.1244 27.4498 24.1195 27.4696C24.1147 27.4894 24.1027 27.5067 24.0859 27.5183L20.039 30.2385C20.0218 30.2503 20.0008 30.2551 19.9802 30.2521C19.9595 30.2491 19.9408 30.2385 19.9276 30.2223L17.7888 27.5487C17.7814 27.5393 17.7761 27.5284 17.7733 27.5168C17.7705 27.5051 17.7703 27.493 17.7726 27.4813C17.7749 27.4696 17.7797 27.4585 17.7867 27.4488C17.7937 27.4391 17.8027 27.431 17.8131 27.4251Z" fill="white"/>
<path d="M31.9629 24.9264C32.0142 24.8697 32.0466 24.8373 32.0601 24.8292C32.1695 24.7684 32.1945 24.7934 32.1351 24.9041C31.5369 26.0195 30.8442 27.0484 30.0569 27.9909C29.9962 28.0638 29.9665 28.053 29.9678 27.9585L29.9759 27.3306C29.9773 27.2023 30.0212 27.0903 30.1076 26.9944C30.726 26.3017 31.3445 25.6123 31.9629 24.9264Z" fill="white"/>
<path d="M29.1437 27.0768L26.2088 29.3798C26.2004 29.3866 26.1905 29.3913 26.1799 29.3935C26.1694 29.3958 26.1584 29.3955 26.148 29.3928C26.1375 29.39 26.1279 29.3848 26.1198 29.3776C26.1117 29.3705 26.1054 29.3615 26.1015 29.3514L25.4817 27.8019C25.4759 27.7879 25.475 27.7723 25.479 27.7576C25.4831 27.743 25.4918 27.7301 25.504 27.7209L28.7974 25.1202C28.8069 25.1131 28.8181 25.1085 28.8299 25.107C28.8417 25.1055 28.8536 25.107 28.8647 25.1115C28.8757 25.116 28.8853 25.1233 28.8927 25.1326C28.9001 25.1419 28.9049 25.153 28.9067 25.1648L29.168 27.014C29.1697 27.0257 29.1683 27.0376 29.1641 27.0486C29.1598 27.0596 29.1528 27.0693 29.1437 27.0768Z" fill="white"/>
<path d="M29.253 28.8504L26.8265 30.9386C26.819 30.9452 26.8102 30.9499 26.8005 30.9524C26.7909 30.9549 26.7809 30.955 26.7712 30.9528C26.7615 30.9507 26.7525 30.9462 26.7448 30.9399C26.7372 30.9335 26.7312 30.9255 26.7272 30.9164L26.3708 30.0738C26.365 30.061 26.3637 30.0467 26.367 30.0332C26.3703 30.0196 26.378 30.0075 26.389 29.9988L29.1902 27.7485C29.1996 27.7413 29.2108 27.7368 29.2225 27.7357C29.2343 27.7345 29.2462 27.7367 29.2568 27.742C29.2674 27.7473 29.2762 27.7555 29.2824 27.7656C29.2885 27.7757 29.2917 27.7873 29.2915 27.7992L29.2753 28.8038C29.2751 28.8127 29.273 28.8215 29.2691 28.8295C29.2653 28.8375 29.2598 28.8446 29.253 28.8504Z" fill="white"/>
<path d="M22.2462 32.3391L25.5761 30.419C25.5841 30.4141 25.593 30.4109 25.6023 30.4097C25.6116 30.4085 25.621 30.4093 25.63 30.412C25.6389 30.4146 25.6473 30.4192 25.6544 30.4253C25.6615 30.4313 25.6672 30.4389 25.6713 30.4473L26.131 31.3811C26.1385 31.3962 26.1399 31.4136 26.135 31.4298C26.1301 31.4459 26.1193 31.4596 26.1047 31.4682L23.1111 33.1817C23.0988 33.189 23.0845 33.1921 23.0702 33.1907C23.056 33.1892 23.0427 33.1832 23.0321 33.1736L22.234 32.4465C22.2263 32.4393 22.2203 32.4305 22.2166 32.4206C22.2129 32.4108 22.2116 32.4002 22.2128 32.3897C22.214 32.3792 22.2177 32.3692 22.2235 32.3604C22.2293 32.3516 22.237 32.3443 22.2462 32.3391Z" fill="white"/>
<circle cx="20" cy="20" r="19.5" stroke="black" stroke-opacity="0.05"/>
</svg>
