<svg width="40" height="40" viewBox="0 0 40 40" fill="none" xmlns="http://www.w3.org/2000/svg">
<circle cx="20" cy="20" r="20" fill="#00A651"/>
<g clip-path="url(#clip0_9_409059)">
<path d="M9.53582 14C5.72773 13.9979 3 16.4184 3 19.9108C3 23.91 6.20455 26.1223 9.8988 26.1223H30.3353C34.1112 26.1223 36.9914 23.4246 36.985 19.9409C36.9785 17.0671 34.7706 14.0021 30.5802 14.0021L9.53582 14Z" fill="white"/>
<path d="M8.74973 19.3483L8.38245 20.7058C8.36097 20.7895 8.29869 20.9098 8.44259 21L8.42111 21.189C7.92282 21.1418 7.37298 21.1203 7.11953 21.1804L6.78662 21.1396L7.98081 16.8869C7.99083 16.8583 7.99942 16.8289 8.00658 16.7989C8.01374 16.7688 8.01947 16.7387 8.02377 16.7087C8.02663 16.6772 8.02949 16.6464 8.03236 16.6163C8.03379 16.5848 8.03379 16.554 8.03236 16.5239C8.02806 16.5139 8.02305 16.5039 8.01732 16.4939C8.01159 16.4853 8.00515 16.4767 7.99799 16.4681C7.99226 16.4595 7.9851 16.4516 7.97651 16.4445C7.96792 16.4373 7.95861 16.4309 7.94859 16.4251L7.97437 16.2598C8.21922 16.2812 8.74114 16.3543 9.2201 16.2641L9.611 16.3027C9.611 16.3027 9.52509 16.6206 9.4714 16.8118L8.87645 18.9424C9.27165 18.646 10.032 18.2723 10.4787 18.2143L10.831 16.9041C10.841 16.8697 10.8503 16.8361 10.8589 16.8032C10.866 16.7688 10.8725 16.7344 10.8782 16.7001C10.8839 16.6657 10.8875 16.6313 10.889 16.597C10.8918 16.5612 10.8933 16.5261 10.8933 16.4917C10.8861 16.486 10.8789 16.4803 10.8718 16.4745C10.8646 16.4688 10.8567 16.4638 10.8481 16.4595C10.841 16.4538 10.8338 16.4488 10.8267 16.4445C10.8181 16.4402 10.8095 16.4366 10.8009 16.4337L10.8396 16.2598C11.05 16.2877 11.7245 16.3371 12.1325 16.2641L12.4719 16.3027C12.4719 16.3027 12.386 16.6206 12.3323 16.8118L11.7438 18.908L11.2519 20.7058C11.2412 20.7938 11.151 20.9076 11.3164 21.0086L11.2842 21.1912C10.803 21.131 10.236 21.1203 9.98043 21.1804L9.65396 21.1439L10.3005 18.82C9.89881 18.82 9.20936 19.0176 8.74973 19.3483Z" fill="#ED1C24"/>
<path fill-rule="evenodd" clip-rule="evenodd" d="M30.3031 18.2203C30.5092 18.5339 30.4384 18.9205 30.3567 19.219L27.8889 19.2147C27.7686 19.6228 27.6612 20.2006 28.0543 20.5722C28.4366 20.8707 28.9736 20.7354 29.2979 20.5722C29.3466 20.5493 29.3945 20.5249 29.4418 20.4991C29.489 20.4748 29.5348 20.4476 29.5792 20.4175C29.6251 20.3889 29.6694 20.3588 29.7124 20.3273C29.7554 20.2958 29.7976 20.2629 29.8391 20.2285C29.9079 20.2951 30.0668 20.4884 30.0668 20.4884C29.4375 20.9846 28.5998 21.4377 27.6011 21.238C27.1092 21.1736 26.6367 20.7848 26.5036 20.4154C26.2501 19.4682 26.8171 18.5554 27.7085 18.07C28.3829 17.7091 29.7682 17.5072 30.3031 18.2203ZM28.6986 18.1387C28.2326 18.2225 28.0457 18.6284 27.9641 18.9076C28.3421 18.9119 28.7888 18.9098 29.0015 18.9098C29.0809 18.753 29.1626 18.5017 29.0788 18.3234C29.0036 18.1774 28.8898 18.1215 28.6986 18.1387Z" fill="#ED1C24"/>
<path fill-rule="evenodd" clip-rule="evenodd" d="M16.1705 18.3473C16.6365 19.0346 16.2564 20.1944 15.4338 20.7937C14.9269 21.1653 14.3405 21.3199 13.6317 21.2963C13.5301 21.2963 13.4298 21.2877 13.331 21.2705C13.2322 21.2547 13.1349 21.2311 13.0389 21.1996C12.943 21.1681 12.8506 21.1287 12.7619 21.0815C12.6717 21.0357 12.5865 20.9827 12.5063 20.9226C12.139 20.6476 11.9994 20.0763 12.0531 19.8293C12.197 18.8521 13.0755 17.9672 14.2739 17.8018C14.9269 17.7137 15.786 17.834 16.1705 18.3473ZM14.4651 18.1111C14.2224 18.1948 13.9861 18.4118 13.81 18.7683C13.5265 19.3439 13.2902 20.1171 13.4213 20.7228C13.4363 20.7658 13.4599 20.8044 13.49 20.8388C13.52 20.8732 13.5544 20.9011 13.5952 20.9226C13.6339 20.944 13.679 20.9569 13.7241 20.9634C13.7692 20.9698 13.8143 20.9655 13.8573 20.9548C14.2825 20.8581 14.6971 20.1536 14.871 19.6725C14.9612 19.3847 15.1846 18.6695 14.9333 18.2335C14.8281 18.1089 14.6971 18.0552 14.4651 18.1111Z" fill="#ED1C24"/>
<path d="M20.6424 17.5333C20.7219 17.3786 20.4427 17.2004 20.2236 17.2047C19.3838 17.1789 18.864 18.053 18.4023 18.6394L18.3808 18.648C18.3808 18.648 18.4796 18.27 18.5333 18.0853L18.2691 18.0445C17.7429 18.154 17.1673 18.0509 17.0491 18.0402L17.0234 18.1927C17.2016 18.2807 17.1136 18.4074 17.0921 18.5513L16.3833 21.1438L16.7162 21.1824C16.815 21.133 17.2467 21.1373 17.3713 21.1373L18.0199 21.191L18.0393 21.0213C17.9125 20.944 17.9619 20.8216 17.9856 20.697C17.9856 20.697 18.3614 19.1807 18.5225 18.9401C18.8855 18.139 19.9444 17.718 19.7403 18.4504C19.7554 18.4611 19.794 18.4955 19.794 18.4955C19.8263 18.4676 20.4964 17.8039 20.6424 17.5333Z" fill="#ED1C24"/>
<path d="M32.3544 18.9313L32.8763 17.0563C32.93 16.8651 33.0181 16.5387 33.0181 16.5387L32.6723 16.5043C32.1181 16.6009 31.7143 16.5107 31.3793 16.4893L31.3535 16.6718C31.3707 16.6718 31.4029 16.7019 31.4394 16.7448C31.4802 16.7921 31.4072 17.037 31.375 17.1486L30.2603 21.1457L30.6232 21.178C30.8767 21.1178 31.4093 21.1264 31.8905 21.1887L31.9227 21.0255C31.9012 21.0111 31.8833 20.9947 31.869 20.9761C31.8547 20.9574 31.8432 20.9367 31.8346 20.9138C31.8274 20.8909 31.8239 20.8672 31.8239 20.8429C31.8253 20.8186 31.8303 20.7949 31.8389 20.772L32.3544 18.9313Z" fill="#ED1C24"/>
<path d="M20.9856 18.0769C20.7537 18.2186 19.8774 18.7019 19.7786 18.7427C19.77 18.7706 19.7614 18.8694 19.7614 18.8694C19.8215 18.8931 19.8602 18.9575 19.828 19.0584C19.6475 19.72 19.248 21.1418 19.248 21.1418L19.581 21.1848C19.6926 21.1332 20.2232 21.1203 20.8804 21.1912L20.9083 21.0194L20.8568 20.9764C20.788 20.9163 20.8203 20.8239 20.8546 20.6715L21.1639 19.5503C21.2606 19.2797 21.3035 18.6783 21.8641 18.3346C21.8827 18.3246 21.9028 18.3167 21.9242 18.311C21.9443 18.3038 21.965 18.2988 21.9865 18.296C22.008 18.2917 22.0295 18.2895 22.051 18.2895C22.0724 18.2895 22.0939 18.2909 22.1154 18.2938C22.4762 18.3346 22.298 18.8157 22.2571 18.9962L21.7223 20.9292L21.6622 21.144L21.9908 21.1848C22.2915 21.1096 22.8607 21.1483 23.2924 21.1912L23.3182 21.0215L23.2859 20.9915C23.2151 20.9442 23.2065 20.8755 23.2774 20.6672C23.2774 20.6672 23.606 19.4257 23.7305 19.0133C23.81 18.7234 24.1558 18.1929 24.6197 18.3003C24.7508 18.3432 24.8431 18.4893 24.7594 18.7964L24.115 21.1418L24.4522 21.1783C24.8152 21.0924 25.3736 21.1569 25.7516 21.1869L25.7753 21.0194C25.7695 21.0151 25.7638 21.0101 25.7581 21.0044C25.7509 21.0001 25.7445 20.9951 25.7388 20.9893C25.733 20.985 25.728 20.98 25.7237 20.9743C25.718 20.9686 25.7123 20.9628 25.7065 20.9571C25.655 20.8776 25.713 20.7337 25.7431 20.5963C25.7431 20.5963 26.2027 19.0112 26.1877 18.6095C26.1862 18.5551 26.1791 18.5007 26.1662 18.4463C26.1547 18.3933 26.1383 18.3418 26.1168 18.2917C26.0953 18.2415 26.0688 18.1936 26.0373 18.1478C26.0072 18.1019 25.9729 18.0597 25.9342 18.021C25.7388 17.8106 25.4595 17.774 25.2985 17.7483C24.5618 17.6624 23.9281 18.1284 23.6769 18.4613C23.6697 18.4327 23.6618 18.4041 23.6532 18.3754C23.6446 18.3468 23.6346 18.3189 23.6232 18.2917C23.6131 18.2645 23.6017 18.2373 23.5888 18.21C23.5759 18.1828 23.5623 18.1564 23.548 18.1306C23.5165 18.0905 23.4821 18.0525 23.4449 18.0167C23.4077 17.9809 23.3676 17.9487 23.3246 17.9201C23.2817 17.89 23.2373 17.8642 23.1914 17.8428C23.1442 17.8199 23.0955 17.8012 23.0454 17.7869C22.2464 17.5743 21.834 18.0103 21.4045 18.4592L21.5033 18.1499C21.5849 17.8707 21.441 17.7998 20.9856 18.0769Z" fill="#ED1C24"/>
<path d="M20.8376 17.8747C21.454 17.2862 22.0876 16.6505 22.3217 16.0384C22.3475 15.9725 22.3683 15.9052 22.384 15.8365C22.4012 15.7692 22.4134 15.7004 22.4205 15.6303C22.4277 15.5601 22.4306 15.4899 22.4291 15.4198C22.4277 15.3496 22.4212 15.2802 22.4098 15.2114C22.326 14.7131 22.0941 14.6723 21.9545 14.6938C21.923 14.701 21.8929 14.7131 21.8642 14.7303C21.837 14.7461 21.812 14.7661 21.7891 14.7905C21.7676 14.8148 21.7504 14.8413 21.7375 14.8699C21.7232 14.9 21.7139 14.9308 21.7096 14.9623C21.6838 14.9193 21.6473 14.8807 21.6065 14.8528C21.5635 14.8227 21.5163 14.8034 21.4669 14.7969C21.4153 14.7883 21.3638 14.7905 21.3144 14.8055C21.265 14.8184 21.2199 14.842 21.1812 14.8764C21.1426 14.9107 21.0159 15.016 21.1039 15.3016C21.0567 15.2866 21.0073 15.2823 20.9579 15.2888C20.9085 15.2952 20.8591 15.3102 20.8161 15.3339C20.7732 15.3575 20.7366 15.3919 20.7044 15.4305C20.6744 15.4692 20.6529 15.5143 20.64 15.5615C20.6314 15.6109 20.6314 15.6603 20.6421 15.7076C20.6529 15.757 20.6722 15.8021 20.7023 15.8429C20.7302 15.8837 20.7667 15.9159 20.8097 15.9417C20.8505 15.9675 20.8977 15.9847 20.9471 15.9932C21.2392 16.0641 21.628 16.4421 21.2607 17.1767C21.1662 17.3829 20.8247 17.7545 20.786 17.8039C20.7581 17.8339 20.7903 17.9177 20.8376 17.8747Z" fill="#00A651"/>
<path fill-rule="evenodd" clip-rule="evenodd" d="M24.1368 22.4408L24.2914 21.8952C24.3065 21.8437 24.3408 21.7298 24.3215 21.7062C24.3043 21.6869 24.2893 21.6719 24.2807 21.6719L24.2936 21.5859C24.3423 21.5931 24.391 21.5988 24.4396 21.6031C24.4898 21.6074 24.5392 21.6103 24.5878 21.6117C24.6365 21.6117 24.6859 21.6103 24.736 21.6074C24.7847 21.6046 24.8334 21.5995 24.8821 21.5924L25.041 21.6096C25.041 21.6096 25.0024 21.7621 24.9766 21.8523L24.7081 22.8467L24.4697 23.7144C24.4668 23.7245 24.4647 23.7352 24.4633 23.7466C24.4633 23.7581 24.4654 23.7688 24.4697 23.7789C24.4726 23.7903 24.4776 23.8003 24.4847 23.8089C24.4919 23.8175 24.4998 23.8254 24.5084 23.8326L24.4955 23.9099C24.4468 23.9027 24.3988 23.897 24.3516 23.8927C24.3029 23.8884 24.2542 23.8863 24.2055 23.8863C24.1583 23.8848 24.1103 23.8863 24.0616 23.8905C24.0129 23.8934 23.965 23.8977 23.9177 23.9034H23.7888L23.8876 23.5211C23.7717 23.7724 23.5096 23.9335 23.3206 23.9335C23.2791 23.9364 23.2383 23.9342 23.1982 23.9271C23.1567 23.9213 23.1166 23.9106 23.0779 23.8948C23.0393 23.8805 23.0027 23.8619 22.9684 23.839C22.934 23.8161 22.9025 23.7903 22.8739 23.7617C22.7579 23.6393 22.6956 23.345 22.7171 23.1925C22.7858 22.7135 23.0951 22.3098 23.6707 22.2281C23.8146 22.2088 24.0702 22.2539 24.1368 22.4408ZM23.98 23.0443C24.1046 22.5868 23.9499 22.4193 23.7803 22.4515C23.7459 22.4601 23.7137 22.473 23.6836 22.4902C23.6521 22.5074 23.6235 22.5281 23.5977 22.5525C23.5705 22.5754 23.5469 22.6019 23.5268 22.6319C23.5068 22.6606 23.4903 22.6913 23.4774 22.7243C23.34 23.0056 23.1896 23.3493 23.297 23.592C23.355 23.7209 23.544 23.6908 23.6278 23.6178C23.6679 23.5877 23.7051 23.5541 23.7394 23.5168C23.7738 23.481 23.8046 23.4424 23.8318 23.4008C23.859 23.3593 23.8834 23.3156 23.9048 23.2698C23.9249 23.2254 23.9413 23.1789 23.9542 23.1302L23.98 23.0443Z" fill="#ED1C24"/>
<path d="M25.0235 23.5494C25.0679 23.578 25.1137 23.6031 25.161 23.6245C25.2068 23.6474 25.2548 23.6661 25.3049 23.6804C25.355 23.6961 25.4058 23.7076 25.4574 23.7147C25.5089 23.7219 25.5605 23.7262 25.612 23.7276C25.8869 23.7405 26.0609 23.6675 26.1017 23.5107C26.164 23.2723 25.1008 23.2315 25.2426 22.7547C25.2569 22.706 25.2762 22.6609 25.3006 22.6194C25.3249 22.5764 25.3543 22.537 25.3886 22.5012C25.423 22.464 25.461 22.4325 25.5025 22.4067C25.544 22.3795 25.5884 22.3573 25.6356 22.3401C25.6858 22.3187 25.7373 22.3008 25.7903 22.2864C25.8418 22.2707 25.8948 22.2578 25.9492 22.2478C26.0036 22.2392 26.058 22.2327 26.1125 22.2284C26.1669 22.2256 26.2213 22.2249 26.2757 22.2263C26.3258 22.2263 26.3759 22.2277 26.426 22.2306C26.4776 22.2335 26.5284 22.2378 26.5785 22.2435C26.6287 22.2492 26.678 22.2564 26.7267 22.265C26.7768 22.2736 26.8262 22.2836 26.8749 22.295L26.7826 22.5828C26.7482 22.5599 26.7124 22.5392 26.6752 22.5206C26.638 22.5019 26.6 22.4869 26.5614 22.4754C26.5213 22.464 26.4812 22.4554 26.4411 22.4497C26.3995 22.4439 26.3587 22.4411 26.3186 22.4411C26.2392 22.4411 25.9299 22.4518 25.8891 22.6215C25.8633 22.7332 26.0845 22.7912 26.1704 22.8191C26.2048 22.8291 26.2385 22.8399 26.2714 22.8513C26.3043 22.8628 26.3365 22.8757 26.368 22.89C26.3995 22.9043 26.4311 22.9193 26.4626 22.9351C26.4941 22.9508 26.5248 22.968 26.5549 22.9866C26.6945 23.0811 26.7955 23.2057 26.7418 23.3861C26.6022 23.8608 26.0265 23.9596 25.6034 23.9596C25.5476 23.9567 25.4917 23.9531 25.4359 23.9489C25.38 23.9431 25.3242 23.9367 25.2684 23.9295C25.214 23.9209 25.1595 23.9116 25.1051 23.9016C25.0493 23.8901 24.9949 23.878 24.9419 23.8651L25.0235 23.5494Z" fill="#ED1C24"/>
<path fill-rule="evenodd" clip-rule="evenodd" d="M22.2318 22.4951C22.4552 22.8323 22.2726 23.4015 21.8774 23.6936C21.8159 23.7394 21.7507 23.7788 21.682 23.8117C21.6118 23.8461 21.5402 23.8733 21.4672 23.8933C21.3927 23.9148 21.3176 23.9298 21.2417 23.9384C21.1658 23.9456 21.0892 23.9463 21.0119 23.9406C20.9632 23.9406 20.9152 23.9363 20.868 23.9277C20.8207 23.9205 20.7735 23.9091 20.7262 23.8933C20.6804 23.8776 20.6367 23.8582 20.5952 23.8353C20.5522 23.8124 20.5114 23.7866 20.4728 23.758C20.4341 23.7251 20.4005 23.6878 20.3718 23.6463C20.3417 23.6062 20.3174 23.5625 20.2988 23.5153C20.2802 23.4695 20.2673 23.4215 20.2601 23.3714C20.253 23.3213 20.2515 23.2712 20.2558 23.221C20.3246 22.7421 20.7455 22.3104 21.3212 22.2287C21.6347 22.1858 22.0471 22.2438 22.2318 22.4951ZM21.4135 22.3812C21.3777 22.397 21.3441 22.4156 21.3126 22.4371C21.2796 22.4586 21.2503 22.4829 21.2245 22.5101C21.1973 22.5388 21.173 22.5688 21.1515 22.6003C21.13 22.6333 21.1121 22.6676 21.0978 22.7034C20.9625 22.9848 20.8486 23.3628 20.9109 23.6592C20.9181 23.6807 20.9288 23.7 20.9431 23.7172C20.9575 23.7329 20.9746 23.7465 20.9947 23.758C21.0133 23.768 21.0341 23.7745 21.057 23.7773C21.0784 23.7802 21.0999 23.7788 21.1214 23.773C21.3254 23.7258 21.5252 23.38 21.6068 23.1459C21.6519 23.0041 21.7572 22.654 21.639 22.4414C21.6247 22.4242 21.609 22.4099 21.5918 22.3984C21.5746 22.387 21.556 22.3784 21.5359 22.3727C21.5159 22.3684 21.4951 22.3669 21.4736 22.3684C21.4522 22.3684 21.4321 22.3727 21.4135 22.3812Z" fill="#ED1C24"/>
<path d="M17.5945 22.4628C17.5945 22.4628 17.1714 22.4671 16.7762 22.4628L16.9351 21.898C16.9351 21.898 17.5794 21.898 17.6933 21.898C17.7176 21.8994 17.742 21.9044 17.7663 21.913C17.7906 21.9216 17.8128 21.9338 17.8329 21.9495C17.8544 21.9638 17.8723 21.981 17.8866 22.0011C17.9023 22.0225 17.9145 22.0447 17.9231 22.0676H18.0219L18.1379 21.6123C18.1379 21.6123 16.5829 21.6166 16.2542 21.6016L16.2371 21.6832C16.2399 21.6846 16.2435 21.6868 16.2478 21.6896C16.2521 21.6911 16.2557 21.6932 16.2585 21.6961C16.2614 21.6975 16.265 21.6996 16.2693 21.7025C16.2721 21.7054 16.275 21.7082 16.2779 21.7111C16.2779 21.7269 16.2779 21.7433 16.2779 21.7605C16.2764 21.7763 16.2743 21.7927 16.2714 21.8099C16.27 21.8257 16.2671 21.8414 16.2628 21.8572C16.26 21.8729 16.2557 21.8887 16.2499 21.9044L15.7065 23.8997L15.8569 23.9169C15.907 23.9112 15.9571 23.9062 16.0072 23.9019C16.0574 23.899 16.1082 23.8983 16.1597 23.8997C16.2098 23.8997 16.26 23.9019 16.3101 23.9062C16.3602 23.9105 16.4096 23.9162 16.4583 23.9234L16.4755 23.8374C16.3981 23.788 16.439 23.7365 16.4454 23.6935L16.7053 22.7506H17.1499C17.1742 22.7521 17.1986 22.7571 17.2229 22.7657C17.2472 22.7743 17.2694 22.7857 17.2895 22.8C17.311 22.8158 17.3289 22.8337 17.3432 22.8537C17.3589 22.8738 17.3711 22.896 17.3797 22.9203H17.4785L17.5945 22.4628Z" fill="#ED1C24"/>
<path fill-rule="evenodd" clip-rule="evenodd" d="M19.7874 22.4951C20.0108 22.8323 19.8282 23.4015 19.433 23.6936C19.3715 23.7394 19.3063 23.7788 19.2376 23.8117C19.1674 23.8461 19.0958 23.8733 19.0228 23.8933C18.9483 23.9148 18.8732 23.9291 18.7973 23.9363C18.72 23.9449 18.6433 23.9463 18.5675 23.9406C18.5188 23.9406 18.4708 23.9363 18.4236 23.9277C18.3749 23.9205 18.3276 23.9091 18.2818 23.8933C18.236 23.8776 18.1916 23.8582 18.1486 23.8353C18.1057 23.8124 18.0649 23.7866 18.0262 23.758C17.989 23.7251 17.956 23.6878 17.9274 23.6463C17.8973 23.6062 17.873 23.5625 17.8544 23.5153C17.8358 23.4695 17.8229 23.4215 17.8157 23.3714C17.8071 23.3213 17.805 23.2712 17.8093 23.221C17.878 22.7421 18.3011 22.3104 18.8767 22.2287C19.1903 22.1858 19.6027 22.2438 19.7874 22.4951ZM18.9691 22.3812C18.9333 22.397 18.8989 22.4156 18.866 22.4371C18.8345 22.4586 18.8051 22.4829 18.7779 22.5101C18.7522 22.5388 18.7285 22.5688 18.7071 22.6003C18.6856 22.6333 18.6677 22.6676 18.6534 22.7034C18.5181 22.9848 18.4042 23.3628 18.4665 23.6592C18.4737 23.6807 18.4844 23.7 18.4987 23.7172C18.513 23.7329 18.5302 23.7465 18.5503 23.758C18.5689 23.768 18.5889 23.7745 18.6104 23.7773C18.6333 23.7802 18.6555 23.7788 18.677 23.773C18.881 23.7258 19.0786 23.38 19.1624 23.1459C19.2054 23.0041 19.3128 22.654 19.1925 22.4414C19.1796 22.4242 19.1646 22.4099 19.1474 22.3984C19.1302 22.387 19.1116 22.3784 19.0915 22.3727C19.07 22.3684 19.0493 22.3669 19.0292 22.3684C19.0078 22.3684 18.9877 22.3727 18.9691 22.3812Z" fill="#ED1C24"/>
<path d="M12.2679 25.3903H30.2795C33.5742 25.3903 36.2612 23.1587 36.2612 19.967C36.2612 17.1964 34.1155 14.7371 30.6962 14.7285H24.7875C24.9636 14.7521 25.0689 15.0464 24.9658 15.1323H30.316C33.8041 15.1323 35.5331 17.205 35.5331 19.9434C35.5331 22.4736 33.3509 24.3722 30.2387 24.3722H14.4243C13.6876 24.8211 13.4341 25.0209 12.2679 25.328C12.2614 25.328 12.2528 25.3323 12.2464 25.3387C12.2421 25.343 12.2378 25.3516 12.2378 25.3602C12.2378 25.3667 12.2421 25.3753 12.2464 25.3817C12.2528 25.386 12.2614 25.3903 12.2679 25.3903Z" fill="#00A651"/>
<path d="M11.7504 24.3207C11.0245 24.4002 10.902 24.3873 9.57039 24.3851C6.97152 24.383 4.44783 22.7356 4.44783 19.9842V19.9585C4.44783 16.7002 6.79755 15.1323 9.53817 15.1323H20.7176C20.7047 15.0936 20.7004 15.055 20.7047 15.0142C20.7068 14.9734 20.7176 14.9347 20.7326 14.8982C20.7498 14.8617 20.7713 14.8295 20.7992 14.7994C20.8271 14.7715 20.8593 14.7478 20.8958 14.7285H9.42219C5.9556 14.7285 3.70898 17.0095 3.70898 19.9649C3.70898 23.5969 6.77607 25.3946 9.70785 25.3946C9.93265 25.396 10.1567 25.3874 10.3801 25.3688C10.6049 25.3516 10.8283 25.3244 11.0502 25.2872C11.2722 25.2514 11.492 25.2056 11.7096 25.1497C11.9273 25.0953 12.1428 25.0316 12.3561 24.9586C13.4386 24.5999 14.4846 23.8245 15.4447 22.9676C15.5263 22.8902 15.4662 22.8301 15.3781 22.8988C14.2548 23.7129 12.7814 24.209 11.7504 24.3207Z" fill="#00A651"/>
<path d="M23.3998 14.1635C23.359 14.1656 23.3181 14.1742 23.2795 14.1893C23.243 14.2064 23.2086 14.2301 23.1807 14.2601C23.1506 14.2881 23.1291 14.3246 23.1141 14.3611C23.0991 14.3998 23.0905 14.4406 23.0926 14.4814C23.0926 14.5222 22.8156 14.2365 22.5943 14.462C22.5814 14.4807 22.5714 14.5 22.5643 14.52C22.5571 14.5415 22.5528 14.563 22.5514 14.5845C22.5499 14.6059 22.5514 14.6281 22.5557 14.651C22.56 14.6725 22.5664 14.6926 22.575 14.7112C22.5857 14.7327 23.069 15.508 22.4633 16.4187L22.4504 16.4402C22.3774 16.5454 22.3667 16.5905 22.5149 16.4788C22.6244 16.3972 22.7275 16.3113 22.7275 16.3113C23.883 15.3835 24.4264 15.2417 24.4264 15.2417C24.4422 15.2388 24.4579 15.2345 24.4737 15.2288C24.488 15.2231 24.5016 15.2159 24.5145 15.2073C24.5288 15.1987 24.5417 15.1887 24.5531 15.1773C24.5646 15.1658 24.5746 15.1536 24.5832 15.1408C24.624 15.057 24.5553 14.9668 24.4951 14.9281C24.4765 14.9167 24.4565 14.9074 24.435 14.9002C24.415 14.8916 24.3942 14.8852 24.3727 14.8809C24.3498 14.8766 24.3276 14.8744 24.3061 14.8744C24.2832 14.873 24.261 14.8737 24.2396 14.8766C24.2181 14.8787 24.4479 14.6231 24.2202 14.4191C24.1859 14.3976 24.1494 14.3804 24.1085 14.3697C24.0699 14.3611 24.0291 14.3568 23.9883 14.3589C23.9475 14.3611 23.9066 14.3718 23.8701 14.3869C23.8315 14.4019 23.7971 14.4212 23.7649 14.4492C23.7584 14.4062 23.7413 14.3675 23.7198 14.331C23.6962 14.2967 23.6682 14.2644 23.636 14.2387C23.6017 14.2129 23.5651 14.1936 23.5243 14.1807C23.4835 14.1678 23.4406 14.1613 23.3998 14.1635Z" fill="#00A651"/>
<path d="M22.18 17.1684C22.2917 17.0997 22.4013 17.0374 22.4936 16.988C23.3678 16.5585 23.7179 16.9043 23.7179 16.9043C23.7587 16.93 23.7973 16.9601 23.8296 16.9966C23.8618 17.0331 23.8876 17.0739 23.909 17.1169C23.9284 17.162 23.9412 17.2092 23.9477 17.2565C23.952 17.3037 23.9498 17.3531 23.9412 17.4004C23.9885 17.4176 24.0358 17.4262 24.0852 17.4262C24.1346 17.4283 24.184 17.4197 24.2291 17.4025C24.2763 17.3854 24.3171 17.3617 24.3558 17.3295C24.3944 17.2995 24.4245 17.2608 24.4503 17.22C24.4603 17.1971 24.4696 17.1742 24.4782 17.1513C24.4854 17.1283 24.4904 17.1047 24.4932 17.0804C24.4975 17.056 24.4997 17.0317 24.4997 17.0073C24.4997 16.983 24.4982 16.9587 24.4954 16.9343C24.9142 16.9794 24.9915 16.6422 24.9915 16.6422C25.0023 16.595 25.0044 16.5477 24.998 16.5026C24.9915 16.4554 24.9765 16.4103 24.9529 16.3694C24.9314 16.3286 24.9013 16.2921 24.8648 16.2599C24.8283 16.2298 24.7875 16.2062 24.7445 16.1912C25.1634 15.9785 25.0173 15.6306 24.7553 15.6005C24.4954 15.5705 24.2527 15.6864 24.0336 15.7981C23.705 15.9678 22.7836 16.6121 22.1521 17.1276C22.0791 17.1899 22.0898 17.22 22.18 17.1684Z" fill="#00A651"/>
</g>
<circle cx="20" cy="20" r="19.5" stroke="black" stroke-opacity="0.05"/>
<defs>
<clipPath id="clip0_9_409059">
<rect width="34" height="12.1352" fill="white" transform="translate(3 14)"/>
</clipPath>
</defs>
</svg>
