<svg width="40" height="40" viewBox="0 0 40 40" fill="none" xmlns="http://www.w3.org/2000/svg">
<circle cx="20" cy="20" r="20" fill="#3E000F"/>
<g clip-path="url(#clip0_9_410916)">
<path d="M16.0088 22.3814C17.8891 20.954 18.5187 18.7306 18.7859 17.6942C19.4045 19.4489 19.7512 20.6437 21.827 22.3814C25.768 25.2744 24.1245 28.4996 22.7456 28.4996C20.1076 28.5153 14.8309 28.5372 14.8309 28.4996C13.9105 28.4996 11.7224 25.6369 16.0088 22.3814ZM18.7859 14.5444V16.979C19.1149 15.9699 20.6012 14.6537 22.1367 14.6537C26.3369 14.5444 27.5572 13.1042 28.4995 12.4904C28.4929 11.4522 28.4825 9.56155 28.4995 9.54395C27.25 10.9477 25.4134 11.6592 22.1367 12.0442C19.5096 12.3526 18.801 13.9445 18.7859 14.5444Z" fill="white"/>
</g>
<circle cx="20" cy="20" r="19.5" stroke="black" stroke-opacity="0.05"/>
<defs>
<clipPath id="clip0_9_410916">
<rect width="16" height="20" fill="white" transform="translate(13 9)"/>
</clipPath>
</defs>
</svg>
