<svg width="40" height="40" viewBox="0 0 40 40" fill="none" xmlns="http://www.w3.org/2000/svg">
<circle cx="20" cy="20" r="20" fill="#F6F8FA"/>
<circle cx="20" cy="20" r="19.5" stroke="black" stroke-opacity="0.05"/>
<g clip-path="url(#clip0_9_395263)">
<path d="M30.2946 13.9532C30.2945 13.9506 30.2939 13.9481 30.2926 13.9458C30.2913 13.9436 30.2894 13.9418 30.2872 13.9405L20.0077 7.96291C20.0054 7.96162 20.0029 7.96094 20.0003 7.96094C19.9977 7.96094 19.9952 7.96162 19.9929 7.96291L9.71341 13.9407C9.71118 13.9419 9.70933 13.9438 9.70804 13.946C9.70675 13.9482 9.70606 13.9508 9.70605 13.9533V25.7431C9.70606 25.7457 9.70675 25.7482 9.70804 25.7505C9.70933 25.7527 9.71118 25.7545 9.71341 25.7558L19.9929 31.7334C19.9952 31.7347 19.9977 31.7354 20.0003 31.7354C20.0029 31.7354 20.0054 31.7347 20.0077 31.7334L30.2872 25.7558C30.2894 25.7545 30.2913 25.7527 30.2926 25.7505C30.2939 25.7482 30.2945 25.7457 30.2946 25.7431V13.9532Z" stroke="#E0E0E0" stroke-width="2"/>
<path d="M15.6173 13.2555C15.6173 13.2533 15.6164 13.2511 15.6148 13.2495C15.6133 13.248 15.6111 13.2471 15.6089 13.2471H13.7477C13.7455 13.2471 13.7433 13.248 13.7417 13.2495C13.7401 13.2511 13.7393 13.2533 13.7393 13.2555V19.4812C13.7393 19.4834 13.7401 19.4856 13.7417 19.4872C13.7433 19.4888 13.7455 19.4896 13.7477 19.4896H15.6089C15.6111 19.4896 15.6133 19.4888 15.6148 19.4872C15.6164 19.4856 15.6173 19.4834 15.6173 19.4812V13.2555Z" stroke="#E99D9C" stroke-width="2"/>
<path d="M21.7296 13.2461C21.727 13.2461 21.7245 13.2471 21.7226 13.249C21.7208 13.2509 21.7197 13.2534 21.7197 13.256V17.5994C21.7197 17.602 21.7187 17.6045 21.7168 17.6064C21.7149 17.6083 21.7124 17.6093 21.7098 17.6093H18.2547C18.2521 17.6093 18.2495 17.6083 18.2477 17.6064C18.2458 17.6045 18.2448 17.602 18.2448 17.5994L18.2449 13.256C18.2449 13.2534 18.2439 13.2509 18.242 13.249C18.2402 13.2471 18.2376 13.2461 18.235 13.2461H16.3781C16.3755 13.2461 16.3729 13.2471 16.3711 13.249C16.3692 13.2509 16.3682 13.2534 16.3682 13.256V19.4798C16.3682 19.4825 16.3692 19.485 16.3711 19.4869C16.3729 19.4887 16.3755 19.4898 16.3781 19.4898H23.5866C23.5892 19.4898 23.5917 19.4887 23.5936 19.4869C23.5954 19.485 23.5965 19.4825 23.5965 19.4798V13.256C23.5965 13.2534 23.5954 13.2509 23.5936 13.249C23.5917 13.2471 23.5892 13.2461 23.5866 13.2461H21.7296Z" stroke="#E99D9C" stroke-width="2"/>
<path d="M26.226 13.2542C26.226 13.2523 26.2252 13.2505 26.2239 13.2492C26.2225 13.2478 26.2207 13.2471 26.2188 13.2471H24.3558C24.3539 13.2471 24.3521 13.2478 24.3507 13.2492C24.3494 13.2505 24.3486 13.2523 24.3486 13.2542V19.4795C24.3486 19.4814 24.3494 19.4833 24.3507 19.4846C24.3521 19.4859 24.3539 19.4867 24.3558 19.4867H26.2188C26.2207 19.4867 26.2225 19.4859 26.2239 19.4846C26.2252 19.4833 26.226 19.4814 26.226 19.4795V13.2542Z" stroke="#E99D9C" stroke-width="2"/>
<path d="M15.6206 26.4827C15.6193 26.4814 15.6183 26.48 15.6176 26.4784C15.6169 26.4768 15.6165 26.475 15.6165 26.4733V20.2579C15.6165 20.2507 15.6129 20.2471 15.6057 20.2471H13.7477C13.7414 20.2471 13.7383 20.2501 13.7383 20.2563L13.7385 26.4862C13.7385 26.4928 13.7418 26.4961 13.7484 26.4961C14.3653 26.4958 14.9811 26.4959 15.5958 26.4963C15.6057 26.4963 15.6118 26.4987 15.6206 26.5023C15.6314 26.5066 15.6341 26.5036 15.6287 26.4933C15.6266 26.4895 15.6239 26.486 15.6206 26.4827Z" stroke="#E99D9C" stroke-width="2"/>
<path d="M18.2448 22.13C18.2448 22.1284 18.2454 22.1268 18.2465 22.1257C18.2477 22.1245 18.2492 22.1239 18.2508 22.1239H21.7136C21.7152 22.1239 21.7168 22.1245 21.7179 22.1257C21.7191 22.1268 21.7197 22.1284 21.7197 22.13V26.4857C21.7197 26.4873 21.7203 26.4888 21.7215 26.4899C21.7226 26.4911 21.7242 26.4917 21.7258 26.4917H23.5904C23.592 26.4917 23.5936 26.4911 23.5947 26.4899C23.5958 26.4888 23.5965 26.4873 23.5965 26.4857V20.2541C23.5965 20.2525 23.5958 20.251 23.5947 20.2498C23.5936 20.2487 23.592 20.248 23.5904 20.248H16.3742C16.3726 20.248 16.3711 20.2487 16.3699 20.2498C16.3688 20.251 16.3682 20.2525 16.3682 20.2541V26.4857C16.3682 26.4873 16.3688 26.4888 16.3699 26.4899C16.3711 26.4911 16.3726 26.4917 16.3742 26.4917H18.2389C18.2405 26.4917 18.242 26.4911 18.2432 26.4899C18.2443 26.4888 18.2449 26.4873 18.2449 26.4857L18.2448 22.13Z" stroke="#E99D9C" stroke-width="2"/>
<path d="M26.226 20.2519C26.226 20.2506 26.2255 20.2494 26.2246 20.2485C26.2237 20.2476 26.2225 20.2471 26.2212 20.2471H24.3534C24.3521 20.2471 24.3509 20.2476 24.35 20.2485C24.3491 20.2494 24.3486 20.2506 24.3486 20.2519V26.4885C24.3486 26.4898 24.3491 26.491 24.35 26.4919C24.3509 26.4928 24.3521 26.4933 24.3534 26.4933H26.2212C26.2225 26.4933 26.2237 26.4928 26.2246 26.4919C26.2255 26.491 26.226 26.4898 26.226 26.4885V20.2519Z" stroke="#E99D9C" stroke-width="2"/>
<path d="M19.9983 6H20.0029L31.9782 12.9681C31.9829 12.9708 31.9852 12.9748 31.9852 12.9802V26.7213C31.9852 26.7224 31.985 26.7234 31.9844 26.7243C31.9839 26.7253 31.9832 26.7261 31.9823 26.7266L20.0018 33.6966H19.9952L8.02458 26.7336C8.02156 26.7318 8.01906 26.7293 8.01731 26.7262C8.01557 26.7231 8.01465 26.7197 8.01465 26.7161V12.9804C8.01465 12.9748 8.01704 12.9706 8.02182 12.9679L19.9983 6ZM30.294 13.9535C30.294 13.9509 30.2933 13.9484 30.292 13.9461C30.2907 13.9439 30.2889 13.9421 30.2866 13.9408L20.0071 7.96322C20.0049 7.96193 20.0023 7.96125 19.9998 7.96125C19.9972 7.96125 19.9946 7.96193 19.9924 7.96322L9.71286 13.941C9.71063 13.9423 9.70877 13.9441 9.70748 13.9463C9.70619 13.9486 9.70551 13.9511 9.7055 13.9537V25.7435C9.70551 25.746 9.70619 25.7486 9.70748 25.7508C9.70877 25.753 9.71063 25.7549 9.71286 25.7561L19.9924 31.7337C19.9946 31.735 19.9972 31.7357 19.9998 31.7357C20.0023 31.7357 20.0049 31.735 20.0071 31.7337L30.2866 25.7561C30.2889 25.7549 30.2907 25.753 30.292 25.7508C30.2933 25.7486 30.294 25.746 30.294 25.7435V13.9535Z" fill="#C1C0C1"/>
<path d="M30.2946 13.9532V25.7431C30.2945 25.7457 30.2939 25.7482 30.2926 25.7505C30.2913 25.7527 30.2894 25.7545 30.2872 25.7558L20.0077 31.7334C20.0054 31.7347 20.0029 31.7354 20.0003 31.7354C19.9977 31.7354 19.9952 31.7347 19.9929 31.7334L9.71341 25.7558C9.71118 25.7545 9.70933 25.7527 9.70804 25.7505C9.70675 25.7482 9.70606 25.7457 9.70605 25.7431V13.9533C9.70606 13.9508 9.70675 13.9482 9.70804 13.946C9.70933 13.9438 9.71118 13.9419 9.71341 13.9407L19.9929 7.96291C19.9952 7.96162 19.9977 7.96094 20.0003 7.96094C20.0029 7.96094 20.0054 7.96162 20.0077 7.96291L30.2872 13.9405C30.2894 13.9418 30.2913 13.9436 30.2926 13.9458C30.2939 13.9481 30.2945 13.9506 30.2946 13.9532ZM15.6169 13.2552C15.6169 13.253 15.616 13.2508 15.6144 13.2492C15.6128 13.2477 15.6106 13.2468 15.6084 13.2468H13.7472C13.745 13.2468 13.7429 13.2477 13.7413 13.2492C13.7397 13.2508 13.7388 13.253 13.7388 13.2552V19.4809C13.7388 19.4831 13.7397 19.4853 13.7413 19.4869C13.7429 19.4885 13.745 19.4893 13.7472 19.4893H15.6084C15.6106 19.4893 15.6128 19.4885 15.6144 19.4869C15.616 19.4853 15.6169 19.4831 15.6169 19.4809V13.2552ZM21.7296 13.2457C21.727 13.2457 21.7244 13.2467 21.7226 13.2486C21.7207 13.2504 21.7197 13.253 21.7197 13.2556V17.599C21.7197 17.6016 21.7186 17.6041 21.7168 17.606C21.7149 17.6078 21.7124 17.6089 21.7097 17.6089H18.2547C18.252 17.6089 18.2495 17.6078 18.2476 17.606C18.2458 17.6041 18.2447 17.6016 18.2447 17.599L18.2449 13.2556C18.2449 13.253 18.2439 13.2504 18.242 13.2486C18.2401 13.2467 18.2376 13.2457 18.235 13.2457H16.3781C16.3754 13.2457 16.3729 13.2467 16.371 13.2486C16.3692 13.2504 16.3681 13.253 16.3681 13.2556V19.4794C16.3681 19.482 16.3692 19.4846 16.371 19.4864C16.3729 19.4883 16.3754 19.4893 16.3781 19.4893H23.5865C23.5891 19.4893 23.5917 19.4883 23.5935 19.4864C23.5954 19.4846 23.5964 19.482 23.5964 19.4794V13.2556C23.5964 13.253 23.5954 13.2504 23.5935 13.2486C23.5917 13.2467 23.5891 13.2457 23.5865 13.2457H21.7296ZM26.2256 13.2539C26.2256 13.252 26.2248 13.2502 26.2235 13.2489C26.2221 13.2475 26.2203 13.2468 26.2184 13.2468H24.3554C24.3535 13.2468 24.3517 13.2475 24.3504 13.2489C24.349 13.2502 24.3483 13.252 24.3483 13.2539V19.4792C24.3483 19.4811 24.349 19.483 24.3504 19.4843C24.3517 19.4856 24.3535 19.4864 24.3554 19.4864H26.2184C26.2203 19.4864 26.2221 19.4856 26.2235 19.4843C26.2248 19.483 26.2256 19.4811 26.2256 19.4792V13.2539ZM15.6209 26.483C15.6196 26.4818 15.6186 26.4803 15.6179 26.4787C15.6172 26.4771 15.6169 26.4754 15.6169 26.4736V20.2583C15.6169 20.251 15.6132 20.2474 15.606 20.2474H13.748C13.7417 20.2474 13.7386 20.2505 13.7386 20.2566L13.7388 26.4865C13.7388 26.4931 13.7421 26.4964 13.7487 26.4964C14.3657 26.4962 14.9815 26.4962 15.5961 26.4966C15.606 26.4966 15.6121 26.499 15.6209 26.5027C15.6317 26.507 15.6344 26.504 15.629 26.4937C15.6269 26.4899 15.6242 26.4863 15.6209 26.483ZM18.2447 22.1299C18.2447 22.1283 18.2454 22.1267 18.2465 22.1256C18.2476 22.1245 18.2492 22.1238 18.2508 22.1238H21.7136C21.7152 22.1238 21.7167 22.1245 21.7179 22.1256C21.719 22.1267 21.7197 22.1283 21.7197 22.1299V26.4856C21.7197 26.4872 21.7203 26.4887 21.7214 26.4899C21.7226 26.491 21.7241 26.4916 21.7257 26.4916H23.5904C23.592 26.4916 23.5935 26.491 23.5947 26.4899C23.5958 26.4887 23.5964 26.4872 23.5964 26.4856V20.254C23.5964 20.2524 23.5958 20.2509 23.5947 20.2497C23.5935 20.2486 23.592 20.248 23.5904 20.248H16.3742C16.3726 20.248 16.371 20.2486 16.3699 20.2497C16.3688 20.2509 16.3681 20.2524 16.3681 20.254V26.4856C16.3681 26.4872 16.3688 26.4887 16.3699 26.4899C16.371 26.491 16.3726 26.4916 16.3742 26.4916H18.2388C18.2404 26.4916 18.242 26.491 18.2431 26.4899C18.2443 26.4887 18.2449 26.4872 18.2449 26.4856L18.2447 22.1299ZM26.2256 20.2522C26.2256 20.2509 26.2251 20.2497 26.2242 20.2488C26.2233 20.2479 26.2221 20.2474 26.2208 20.2474H24.353C24.3518 20.2474 24.3506 20.2479 24.3497 20.2488C24.3488 20.2497 24.3483 20.2509 24.3483 20.2522V26.4889C24.3483 26.4902 24.3488 26.4914 24.3497 26.4923C24.3506 26.4932 24.3518 26.4937 24.353 26.4937H26.2208C26.2221 26.4937 26.2233 26.4932 26.2242 26.4923C26.2251 26.4914 26.2256 26.4902 26.2256 26.4889V20.2522Z" fill="white"/>
<path d="M15.6079 13.2471H13.7467C13.7421 13.2471 13.7383 13.2509 13.7383 13.2555V19.4812C13.7383 19.4859 13.7421 19.4896 13.7467 19.4896H15.6079C15.6126 19.4896 15.6164 19.4859 15.6164 19.4812V13.2555C15.6164 13.2509 15.6126 13.2471 15.6079 13.2471Z" fill="#D33B38"/>
<path d="M21.7296 13.2461H23.5866C23.5892 13.2461 23.5917 13.2471 23.5936 13.249C23.5954 13.2509 23.5965 13.2534 23.5965 13.256V19.4798C23.5965 19.4825 23.5954 19.485 23.5936 19.4869C23.5917 19.4887 23.5892 19.4898 23.5866 19.4898H16.3781C16.3755 19.4898 16.3729 19.4887 16.3711 19.4869C16.3692 19.485 16.3682 19.4825 16.3682 19.4798V13.256C16.3682 13.2534 16.3692 13.2509 16.3711 13.249C16.3729 13.2471 16.3755 13.2461 16.3781 13.2461H18.235C18.2376 13.2461 18.2402 13.2471 18.242 13.249C18.2439 13.2509 18.2449 13.2534 18.2449 13.256L18.2448 17.5994C18.2448 17.602 18.2458 17.6045 18.2477 17.6064C18.2495 17.6083 18.2521 17.6093 18.2547 17.6093H21.7098C21.7124 17.6093 21.7149 17.6083 21.7168 17.6064C21.7187 17.6045 21.7197 17.602 21.7197 17.5994V13.256C21.7197 13.2534 21.7208 13.2509 21.7226 13.249C21.7245 13.2471 21.727 13.2461 21.7296 13.2461Z" fill="#D33B38"/>
<path d="M26.2178 13.2471H24.3548C24.3509 13.2471 24.3477 13.2503 24.3477 13.2542V19.4795C24.3477 19.4835 24.3509 19.4867 24.3548 19.4867H26.2178C26.2218 19.4867 26.225 19.4835 26.225 19.4795V13.2542C26.225 13.2503 26.2218 13.2471 26.2178 13.2471Z" fill="#D33B38"/>
<path d="M15.6206 26.4836C15.6239 26.4869 15.6266 26.4905 15.6287 26.4943C15.6341 26.5046 15.6314 26.5076 15.6206 26.5033C15.6118 26.4996 15.6057 26.4972 15.5958 26.4972C14.9811 26.4969 14.3653 26.4968 13.7484 26.4971C13.7418 26.4971 13.7385 26.4938 13.7385 26.4871L13.7383 20.2572C13.7383 20.2511 13.7414 20.248 13.7477 20.248H15.6057C15.6129 20.248 15.6165 20.2517 15.6165 20.2589V26.4743C15.6165 26.476 15.6169 26.4777 15.6176 26.4793C15.6183 26.481 15.6193 26.4824 15.6206 26.4836Z" fill="#D33B38"/>
<path d="M18.2448 22.13L18.2449 26.4857C18.2449 26.4873 18.2443 26.4888 18.2432 26.4899C18.242 26.4911 18.2405 26.4917 18.2389 26.4917H16.3742C16.3726 26.4917 16.3711 26.4911 16.3699 26.4899C16.3688 26.4888 16.3682 26.4873 16.3682 26.4857V20.2541C16.3682 20.2525 16.3688 20.251 16.3699 20.2498C16.3711 20.2487 16.3726 20.248 16.3742 20.248H23.5904C23.592 20.248 23.5936 20.2487 23.5947 20.2498C23.5958 20.251 23.5965 20.2525 23.5965 20.2541V26.4857C23.5965 26.4873 23.5958 26.4888 23.5947 26.4899C23.5936 26.4911 23.592 26.4917 23.5904 26.4917H21.7258C21.7242 26.4917 21.7226 26.4911 21.7215 26.4899C21.7203 26.4888 21.7197 26.4873 21.7197 26.4857V22.13C21.7197 22.1284 21.7191 22.1268 21.7179 22.1257C21.7168 22.1245 21.7152 22.1239 21.7136 22.1239H18.2508C18.2492 22.1239 18.2477 22.1245 18.2465 22.1257C18.2454 22.1268 18.2448 22.1284 18.2448 22.13Z" fill="#D33B38"/>
<path d="M26.2202 20.248H24.3524C24.3498 20.248 24.3477 20.2502 24.3477 20.2528V26.4895C24.3477 26.4922 24.3498 26.4943 24.3524 26.4943H26.2202C26.2228 26.4943 26.225 26.4922 26.225 26.4895V20.2528C26.225 20.2502 26.2228 20.248 26.2202 20.248Z" fill="#D33B38"/>
</g>
<defs>
<clipPath id="clip0_9_395263">
<rect width="24" height="27.6966" fill="white" transform="translate(8 6)"/>
</clipPath>
</defs>
</svg>
