<svg width="40" height="40" viewBox="0 0 40 40" fill="none" xmlns="http://www.w3.org/2000/svg">
<circle cx="20" cy="20" r="20" fill="#FF7A59"/>
<g clip-path="url(#clip0_9_412231)">
<path d="M25.0171 17.1304V14.6811C25.3449 14.5294 25.6233 14.2889 25.8187 13.9881C26.0136 13.6881 26.1183 13.3385 26.1202 12.9807V12.9242C26.1202 12.4234 25.9184 11.9438 25.5596 11.5902C25.1988 11.2355 24.713 11.037 24.2071 11.0374H24.1492C23.642 11.0374 23.1554 11.2367 22.7966 11.5902C22.6194 11.7643 22.4786 11.9719 22.3824 12.2009C22.2861 12.4299 22.2364 12.6757 22.2361 12.9242V12.9807C22.238 13.3382 22.3428 13.6879 22.5382 13.9881C22.733 14.2896 23.0114 14.5294 23.3399 14.6811V17.1304C22.3981 17.272 21.5098 17.6576 20.7633 18.2489L13.949 13.0161C13.9972 12.8432 14.0229 12.6651 14.0261 12.4864C14.0265 12.0652 13.9004 11.6535 13.6642 11.3048C13.4267 10.9539 13.0908 10.681 12.6986 10.5205C12.3042 10.3589 11.8712 10.3162 11.4528 10.3977C11.0349 10.4787 10.6499 10.6806 10.3484 10.9776C10.0462 11.2746 9.84051 11.6526 9.75694 12.0647C9.67305 12.477 9.71516 12.9051 9.87779 13.2932C10.0414 13.6831 10.3173 14.0157 10.6704 14.2484C11.024 14.4824 11.4412 14.6072 11.8674 14.6084C12.2399 14.6068 12.6056 14.5087 12.9288 14.3237L19.6396 19.471C19.0374 20.3658 18.7223 21.423 18.7364 22.5014C18.7519 23.5804 19.0959 24.629 19.7225 25.5074L17.6814 27.5196C17.5162 27.4674 17.3443 27.4397 17.171 27.4373C16.8213 27.4373 16.4793 27.5402 16.1881 27.7324C15.8979 27.9232 15.671 28.1959 15.5362 28.516C15.4025 28.8344 15.3676 29.1856 15.4359 29.524C15.5047 29.8628 15.6731 30.1733 15.9206 30.4176C16.1704 30.6615 16.4859 30.8273 16.8285 30.8946C17.171 30.9618 17.5258 30.9277 17.8492 30.7962C18.1717 30.6649 18.4481 30.4413 18.6438 30.1534C18.8386 29.8667 18.9427 29.5298 18.9427 29.1846C18.9405 29.0136 18.9126 28.8439 18.8598 28.6812L20.879 26.6909C21.5395 27.1912 22.3048 27.5352 23.1174 27.697C23.9317 27.8598 24.7722 27.8367 25.5764 27.6295C26.3784 27.4234 27.1231 27.0378 27.7544 26.5019C28.3821 25.9691 28.879 25.2992 29.2066 24.5438C29.5325 23.7913 29.6794 22.9734 29.6357 22.1545C29.5919 21.3357 29.3588 20.5381 28.9546 19.8246C28.5484 19.1071 27.9833 18.4922 27.3024 18.0272C26.6182 17.5595 25.8368 17.2529 25.0171 17.1304ZM24.1801 25.1867C23.6286 25.1864 23.0894 25.0246 22.6289 24.7212C22.1715 24.4201 21.8139 23.9898 21.6016 23.485C21.3905 22.9825 21.3354 22.4282 21.4434 21.8939C21.5523 21.3585 21.8187 20.8678 22.2084 20.4848C22.6008 20.0989 23.098 19.8369 23.6381 19.7314C24.1798 19.6252 24.7407 19.6797 25.2517 19.8882C25.7604 20.0952 26.1965 20.4479 26.5053 20.902C26.8119 21.3546 26.9759 21.8869 26.9759 22.4314C26.9755 22.794 26.9031 23.153 26.7627 23.4874C26.6223 23.8218 26.4168 24.125 26.1581 24.3792C25.631 24.8969 24.9214 25.1864 24.1826 25.1854" fill="white"/>
</g>
<circle cx="20" cy="20" r="19.5" stroke="black" stroke-opacity="0.05"/>
<defs>
<clipPath id="clip0_9_412231">
<rect width="21" height="21" fill="white" transform="translate(9 10)"/>
</clipPath>
</defs>
</svg>
