<svg width="40" height="40" viewBox="0 0 40 40" fill="none" xmlns="http://www.w3.org/2000/svg">
<circle cx="20" cy="20" r="20" fill="#71B010"/>
<g clip-path="url(#clip0_9_410724)">
<path d="M19.4312 18.0693C18.8976 18.0693 18.3917 18.2788 18.1686 18.4383C17.8253 18.1741 17.3573 18.0693 16.7749 18.0693C15.8935 18.0693 14.9607 18.3451 14.8572 18.3888V23.2083H15.9822C16.0742 23.2083 16.143 23.1311 16.143 23.0263V19.1158C16.3442 19.0612 16.5627 19.0336 16.726 19.0336C17.3792 19.0336 17.4287 19.3473 17.4287 20.0081V23.0263C17.4287 23.1093 17.4942 23.2083 17.5977 23.2083H18.546C18.6546 23.2083 18.7144 23.1253 18.7144 23.0263V19.265C18.8886 19.1107 19.0885 19.0387 19.3174 19.0387C19.8233 19.0387 20.0001 19.3145 20.0001 19.9426V23.0263C20.0001 23.1035 20.0547 23.2083 20.1692 23.2083H21.2858V19.7439C21.2858 18.4993 20.3839 18.0693 19.4312 18.0693ZM5.21631 23.2083H6.33359C6.40945 23.2083 6.50202 23.1427 6.50202 23.0431V20.6491H7.89188C8.20238 20.6491 8.42545 20.9023 8.42545 21.1608L8.43059 23.0443C8.43059 23.1376 8.50709 23.2147 8.59967 23.2147H9.71631L9.71117 16.7861H8.59902C8.51224 16.7861 8.43059 16.8723 8.43059 16.9546V19.346H6.96488C6.84419 19.3454 6.72846 19.2979 6.6421 19.2136C6.55575 19.1293 6.50552 19.0147 6.50202 18.8941V16.9546C6.50202 16.8941 6.44224 16.7861 6.33359 16.7861H5.21631V23.2083ZM33.5001 21.9637C33.5001 22.1617 33.3072 22.2504 32.8662 22.2665C32.2401 22.2665 32.2144 21.8808 32.2144 21.0547V20.219C32.2144 19.2721 32.316 19.0078 32.8662 19.0078C33.3291 19.0078 33.4075 19.0464 33.5001 19.0683V21.9637ZM32.8662 18.0551C31.6358 18.0551 30.9428 18.7706 30.9428 20.2196V21.11C30.9428 22.766 31.9572 23.2083 32.8662 23.2083C33.3124 23.2083 33.3477 22.8785 33.5001 22.6747V23.027C33.5001 23.1041 33.5792 23.2083 33.6769 23.2083H34.7858V18.3303C34.7858 18.3303 33.8562 18.0551 32.8662 18.0551ZM24.4911 21.9733C24.4911 22.1604 24.3735 22.2607 23.9331 22.2774C23.307 22.2774 23.2144 21.9084 23.2144 21.0817V20.2524C23.2144 19.3048 23.3828 19.1364 23.9331 19.1364C24.1787 19.1364 24.3985 19.1673 24.4911 19.1891V21.9733ZM23.9331 18.0712C22.7027 18.0712 21.9242 18.7481 21.9242 20.1971V21.0823C21.9242 22.685 22.7682 23.2083 23.6772 23.2083C24.1285 23.2083 24.3471 22.8856 24.5001 22.6818V23.0373C24.5001 23.1144 24.5644 23.2083 24.6685 23.2083H25.7858V18.3682C25.7807 18.3682 24.918 18.0712 23.9331 18.0712ZM27.5614 23.2083C27.654 23.2083 27.717 23.1311 27.717 23.0263V19.1203C27.9947 19.0541 28.1097 19.0188 28.3926 19.0188C29.0187 19.0188 29.0027 19.2997 29.0027 19.9882V23.0135C29.0027 23.1292 29.0997 23.2083 29.1814 23.2083H30.2884V19.9876C30.2884 18.5726 29.623 18.0545 28.4254 18.0545C27.4675 18.0545 26.5071 18.3354 26.4312 18.3579V23.2083H27.5614ZM13.1035 18.0738C13.0801 18.0742 13.057 18.0792 13.0355 18.0886C13.014 18.098 12.9946 18.1115 12.9783 18.1284C12.9621 18.1453 12.9493 18.1653 12.9408 18.1871C12.9323 18.209 12.9282 18.2323 12.9287 18.2557V22.1167C12.651 22.1829 12.6015 22.2466 12.318 22.2466C11.6925 22.2466 11.6526 22.01 11.6526 21.3208V18.2544C11.6526 18.1387 11.5652 18.0725 11.4835 18.0725H10.3482V21.3266C10.3482 22.7422 11.0882 23.2083 12.2858 23.2083C13.2437 23.2083 14.1385 22.9273 14.2144 22.9055V18.0699L13.1029 18.068L13.1035 18.0738Z" fill="white"/>
</g>
<circle cx="20" cy="20" r="19.5" stroke="black" stroke-opacity="0.05"/>
<defs>
<clipPath id="clip0_9_410724">
<rect width="30" height="8" fill="white" transform="translate(5 16)"/>
</clipPath>
</defs>
</svg>
