<svg width="40" height="40" viewBox="0 0 40 40" fill="none" xmlns="http://www.w3.org/2000/svg">
<circle cx="20" cy="20" r="20" fill="#F6F8FA"/>
<g clip-path="url(#clip0_9_392051)">
<path d="M18.7531 21.3297L17.0216 21.3335L17.0102 21.3374L17.0063 21.3488L16.991 21.5915V21.5973L16.9987 21.5992H18.7359H18.7455L18.7608 21.603L18.8219 24.2767L18.8257 24.2862L18.8353 24.2901H19.6666L19.6762 24.2939V24.3034L19.5864 24.5442L19.5787 24.5557L19.5673 24.5595H15.659L15.6533 24.5538L15.745 24.3053L15.7507 24.2958H15.7603L16.97 24.2939H16.9758L16.9777 24.2862L16.9853 21.6145L16.9815 21.6068L16.9738 21.603H13.8625L13.853 21.6087L11.8749 24.2881L11.8788 24.2958H13.0962V24.3034L13.0063 24.5481L12.9987 24.5595L12.9872 24.5633H10.3613V24.5538L10.4512 24.3073L10.4569 24.2977H10.4664L11.5749 24.2958L11.5883 24.292L11.5978 24.2824L13.5663 21.603L13.7555 21.3374L18.411 15.0134L18.4225 15.0039H18.4359L18.5888 15.002L18.6021 15.0058L18.6079 15.0192L18.7531 21.3316V21.3297ZM17.0446 17.2858L17.0407 17.2781H17.0331V17.28L14.0613 21.324V21.3297L14.067 21.3354H16.9987L17.0044 21.3278L17.0446 17.2838V17.2858Z" fill="#244479"/>
<path d="M21.6523 21.3351H20.2075L20.2438 21.0886L20.2878 20.8497L20.3413 20.6184L20.4025 20.3929L20.4904 20.1177L20.5878 19.8463L20.6968 19.5769L20.8153 19.3112L20.9452 19.0475L21.0847 18.7876L21.2338 18.5315L21.3924 18.2792L21.5606 18.0327L21.7383 17.7919L21.9237 17.5568L22.1167 17.3294L22.3193 17.1096L22.5276 16.8955L22.7436 16.691L22.9672 16.4942L23.1163 16.37L23.2672 16.2515L23.4201 16.1368L23.5768 16.0279L23.7355 15.9228L23.896 15.8234L24.0604 15.7278L24.2266 15.638L24.4541 15.5253L24.6853 15.4201L24.907 15.3303L25.1344 15.252L25.3657 15.1851L25.595 15.1297L25.8262 15.0857L26.0537 15.0551L26.283 15.036L26.5085 15.0303L26.692 15.036L26.8506 15.0513L27.0092 15.0761L27.1679 15.1105L27.3246 15.1545L27.5252 15.2195L27.7966 15.3055L28.0011 15.3609L28.1865 15.3991L28.3623 15.4221L28.433 15.4259H28.498L28.5592 15.4182L28.6165 15.4068L28.6891 15.3838L28.7637 15.3533L28.8363 15.315L28.9051 15.2711L28.9682 15.2233L29.0255 15.1717L29.0733 15.1182L29.1134 15.0628L29.123 15.0532L29.1344 15.0494H29.3829V15.0589L28.305 17.9677L28.2993 17.9772L28.2878 17.9811H28.047L28.0374 17.9772V17.9658L28.1177 17.7211L28.1502 17.6007L28.1769 17.4803L28.198 17.3638L28.2133 17.2472L28.2228 17.1344L28.2285 17.0217V16.8841L28.2152 16.7503L28.1941 16.6203L28.1655 16.4942L28.1273 16.3738L28.0795 16.2572L28.0221 16.1464L27.9572 16.0413L27.8903 15.9495L27.8157 15.8635L27.7355 15.7813L27.6476 15.7049L27.5539 15.6342L27.4526 15.5692L27.3456 15.51L27.2328 15.4565L27.0972 15.4049L26.9557 15.3628L26.8105 15.3303L26.6595 15.3074L26.5009 15.294L26.3365 15.2902L26.1626 15.2959L25.9791 15.3112L25.7938 15.3361L25.6122 15.3743L25.4345 15.4221L25.2606 15.4813L25.1344 15.5329L25.0102 15.5902L24.8898 15.6533L24.7713 15.7221L24.6566 15.7985L24.5439 15.8807L24.4349 15.9686L24.3298 16.0623L24.2075 16.1789L24.0852 16.305L23.9648 16.4388L23.8463 16.5802L23.7297 16.7293L23.6132 16.8879L23.4966 17.0561L23.3819 17.2338L23.2061 17.5224L23.0379 17.8186L22.8774 18.1225L22.7245 18.434L22.5353 18.8468L22.3575 19.2634L22.1894 19.6839L22.0327 20.1082L21.9275 20.4101L21.8282 20.714L21.7345 21.0198L21.6466 21.3275L21.6523 21.3351Z" fill="#244479"/>
<path d="M9.86224 21.3358H8.39258L10.5502 15.5164V15.5107L10.5445 15.5069H9.36152H9.35579V15.4992L9.44752 15.2527L9.45517 15.2431H9.46472L13.3137 15.2412L13.3252 15.245V15.2565L13.2354 15.4954L13.2297 15.5049H13.2201L12.0428 15.5069L12.0314 15.5107L12.0237 15.5202L9.86606 21.3377L9.86224 21.3358Z" fill="#244479"/>
<path d="M32.5971 17.9354L30.8771 18.4762L30.8542 18.4896L30.8389 18.5126L28.6315 24.4313L28.6277 24.4485L28.6315 24.46L28.6373 24.4638L28.6239 24.4906L28.6048 24.5116H28.5971L28.5952 24.5078V20.2632L28.599 20.2498L28.6067 20.2383L33.9942 15.621L33.9999 15.6172V15.6248V15.6306V15.6344L33.998 15.6382L32.7099 17.7615L32.599 17.9354H32.5971Z" fill="#244479"/>
<path d="M32.5973 17.9355L28.6355 24.464L28.6298 24.4602L28.626 24.4487L28.6298 24.4315L30.8372 18.5127L30.8524 18.4898L30.8754 18.4764L32.5954 17.9355H32.5973Z" fill="#CD232D"/>
<path d="M8.39284 21.3339H9.8625L13.7574 21.3359L13.5682 21.6015H9.76312H8.29346L8.39284 21.332V21.3339Z" fill="#CD232D"/>
<path d="M18.7529 21.3301L18.7586 21.3339H18.7605H20.2072H21.6521L21.5871 21.6015H20.2072H20.1996H20.1958L20.1862 21.6053H20.1843L20.1824 21.6034L18.7643 21.6072L18.749 21.6034H18.7395H17.0023H16.9965L16.9946 21.5938L17.0099 21.3511L17.0137 21.3396L17.0252 21.3358L18.7567 21.332L18.7529 21.3301Z" fill="#CD232D"/>
<path d="M20.1844 21.6045H20.194L20.1978 21.6007H20.2055H21.5853L21.5318 21.832L21.4878 22.0556L21.4515 22.2677L21.4248 22.4741L21.4057 22.6729L21.3942 22.8659V23.0494L21.3961 23.2271L21.4076 23.3609L21.4248 23.4851L21.4496 23.5998L21.4821 23.7068L21.5222 23.8081L21.5681 23.8998L21.6235 23.9877L21.6847 24.0661L21.7592 24.1444L21.8452 24.2171L21.935 24.2782L22.0344 24.3317L22.1395 24.3776L22.2542 24.4158L22.3765 24.4464L22.5065 24.4712L22.646 24.4884L22.795 24.498H23.0607L23.3225 24.4846L23.4773 24.4674L23.6302 24.4445L23.785 24.4139L23.9379 24.3776L24.0889 24.3356L24.238 24.2878L24.3851 24.2343L24.5304 24.175L24.6756 24.11L24.8189 24.0393L24.9585 23.9629L25.0961 23.8807L25.2317 23.7928L25.3655 23.6991L25.4955 23.5998L25.6216 23.4966L25.7993 23.3379L25.9675 23.1717L26.1262 22.9997L26.2752 22.82L26.3822 22.6786L26.4835 22.5334L26.5791 22.3843L26.6689 22.2314L26.753 22.0728L26.8333 21.9103L26.9078 21.7441L26.9766 21.574L26.9823 21.5644H26.9919L27.2327 21.5625L27.2423 21.5663V21.5759L26.0726 24.7312L26.065 24.7407L26.0535 24.7445H25.8185L25.807 24.7407V24.7292V24.6834L25.8032 24.6394L25.7955 24.5974L25.7821 24.5592L25.7554 24.5133L25.721 24.4712L25.677 24.433L25.6235 24.3986L25.5585 24.368L25.4859 24.3451L25.4095 24.3317L25.3273 24.326H25.2375L25.1419 24.3413L25.0387 24.3623L24.9279 24.391L24.4864 24.5171L24.0851 24.6222L23.808 24.6853L23.5327 24.7331L23.2652 24.7636L23.0034 24.7789H22.7511L22.5065 24.7598L22.2733 24.7254L22.0516 24.6757L21.9102 24.6337L21.7745 24.5859L21.6445 24.5324L21.5184 24.4732L21.398 24.4082L21.2833 24.3356L21.1744 24.2572L21.0712 24.1731L20.9757 24.0852L20.8858 23.9915L20.7998 23.8922L20.7196 23.789L20.6431 23.68L20.5724 23.5654L20.5074 23.445L20.4463 23.3169L20.3717 23.1335L20.3087 22.9385L20.2571 22.734L20.2188 22.52L20.1921 22.3002L20.1787 22.0747V21.8453L20.1883 21.6141L20.1844 21.6045Z" fill="#244479"/>
<path d="M9.76302 21.6025L8.76732 24.2838L8.77305 24.2915H9.95031L9.96178 24.2953V24.3067L9.87387 24.5437L9.86622 24.5533L9.85475 24.5571H6.01147L6 24.5533V24.5399L6.08791 24.3048L6.09556 24.2934L6.10893 24.2895H7.28428L7.29384 24.2857L7.29957 24.2781L8.29145 21.6006H9.76111L9.76302 21.6025Z" fill="#244479"/>
</g>
<circle cx="20" cy="20" r="19.5" stroke="black" stroke-opacity="0.05"/>
<defs>
<clipPath id="clip0_9_392051">
<rect width="28" height="9.76971" fill="white" transform="translate(6 15)"/>
</clipPath>
</defs>
</svg>
