<svg width="40" height="40" viewBox="0 0 40 40" fill="none" xmlns="http://www.w3.org/2000/svg">
<circle cx="20" cy="20" r="20" fill="#F6F8FA"/>
<g clip-path="url(#clip0_9_393871)">
<path d="M24.6213 6H24.7931L26.2658 15.9769C26.2685 15.9961 26.2603 16.0071 26.241 16.0099L14.5058 17.7832C14.4896 17.7856 14.4803 17.7787 14.4779 17.7626C14.4504 17.5797 14.4226 17.393 14.3944 17.2026C13.9427 14.1472 13.4904 11.0919 13.0377 8.03683C13.0253 7.9533 13.016 7.86409 13.0099 7.76921C13.0088 7.75305 13.0166 7.74377 13.0331 7.74136L24.6213 6Z" fill="#4DB748"/>
<path d="M27.1289 17.6982V20.3611C27.1175 20.3614 27.1093 20.365 27.1041 20.3719C27.0911 20.3894 27.0809 20.3886 27.0737 20.3693C27.0706 20.36 27.0588 20.3552 27.0381 20.3549C27.0292 20.3545 27.0201 20.3551 27.0108 20.3564C26.7251 20.3956 26.4621 20.374 26.1873 20.3822C26.0137 20.3877 25.8473 20.3906 25.6881 20.391C24.0051 20.393 22.3539 20.3932 20.7348 20.3915C20.5385 20.3912 20.3338 20.387 20.1206 20.3791C19.9075 20.3716 19.704 20.3686 19.5101 20.3704C19.4039 20.3714 19.3006 20.3698 19.2002 20.3657C19.0558 20.3599 18.9394 20.3664 18.8511 20.3853C18.8471 20.3861 18.8429 20.3858 18.839 20.3845C18.8351 20.3831 18.8317 20.3807 18.8291 20.3775C18.8266 20.3744 18.8249 20.3706 18.8244 20.3666C18.8239 20.3626 18.8246 20.3585 18.8263 20.3549C18.8408 20.3236 18.8217 20.3038 18.7691 20.2956C18.7344 20.2901 18.7217 20.3042 18.7309 20.3379C18.7444 20.3881 18.7322 20.4477 18.6943 20.5168L18.7 17.724C18.7 17.7068 18.7086 17.6982 18.7258 17.6982H27.1289Z" fill="#4DB748"/>
<path d="M27.1289 20.3606V25.1422L18.7464 25.1428C18.7375 25.1428 18.729 25.1392 18.7227 25.1329C18.7164 25.1267 18.7129 25.1181 18.7129 25.1092L18.6943 20.5163C18.7322 20.4472 18.7444 20.3876 18.7309 20.3374C18.7217 20.3037 18.7344 20.2896 18.7691 20.2951C18.8217 20.3034 18.8408 20.3231 18.8263 20.3544C18.8246 20.358 18.8239 20.3621 18.8244 20.3661C18.8249 20.3701 18.8266 20.3739 18.8291 20.3771C18.8317 20.3802 18.8351 20.3826 18.839 20.384C18.8429 20.3854 18.8471 20.3857 18.8511 20.3848C18.9394 20.3659 19.0558 20.3594 19.2002 20.3652C19.3006 20.3694 19.4039 20.3709 19.5101 20.3699C19.704 20.3682 19.9075 20.3711 20.1206 20.3786C20.3338 20.3865 20.5385 20.3907 20.7348 20.391C22.3539 20.3927 24.0051 20.3926 25.6881 20.3905C25.8473 20.3902 26.0137 20.3872 26.1873 20.3817C26.4621 20.3735 26.7251 20.3951 27.0108 20.356C27.0201 20.3546 27.0292 20.3541 27.0381 20.3544C27.0588 20.3547 27.0706 20.3596 27.0737 20.3688C27.0809 20.3881 27.0911 20.389 27.1041 20.3714C27.1093 20.3645 27.1175 20.3609 27.1289 20.3606Z" fill="#4DB748"/>
<path d="M21.4445 25.6006H16.0425C16.032 25.6006 16.0234 25.6091 16.0234 25.6197V30.3915C16.0234 30.4021 16.032 30.4106 16.0425 30.4106H21.4445C21.455 30.4106 21.4636 30.4021 21.4636 30.3915V25.6197C21.4636 25.6091 21.455 25.6006 21.4445 25.6006Z" fill="#4DB748"/>
<path d="M22.4424 33.9996H18.8462L18.8457 30.8639C18.8457 30.8471 18.8541 30.8387 18.871 30.8387L22.4161 30.833C22.4343 30.833 22.4434 30.8419 22.4434 30.8598L22.4424 33.9996Z" fill="#4DB748"/>
</g>
<circle cx="20" cy="20" r="19.5" stroke="black" stroke-opacity="0.05"/>
<defs>
<clipPath id="clip0_9_393871">
<rect width="14.1289" height="28" fill="white" transform="translate(13 6)"/>
</clipPath>
</defs>
</svg>
