<svg width="40" height="40" viewBox="0 0 40 40" fill="none" xmlns="http://www.w3.org/2000/svg">
<circle cx="20" cy="20" r="20" fill="#0E61FE"/>
<path d="M29.6071 15.0004H34.2857V14.2861H29.8714L29.6142 15.0004H29.6071ZM26.0357 15.0004L25.7571 14.2861H21.4285V15.0004H26.0285H26.0357ZM21.4285 15.7147H26.2999L26.5714 16.429H21.4285V15.7147ZM19.8571 15.0004C19.2912 14.5416 18.5856 14.2896 17.8571 14.2861H12.1428V15.0004H19.8571ZM12.1428 15.7147H20.5071C20.6499 15.929 20.7785 16.1718 20.8642 16.429H12.1428V15.7147ZM11.4285 15.0004V14.2861H5.71423V15.0004H11.4285ZM5.71423 15.7147H11.4285V16.429H5.71423V15.7147ZM7.1428 17.1433H9.99995V17.8576H7.1428V17.1433ZM7.1428 19.2861V18.5718H9.99995V19.2861H7.1428ZM7.1428 20.7147V20.0004H9.99995V20.7147H7.1428ZM7.1428 22.1433V21.429H9.99995V22.1433H7.1428ZM7.1428 23.5718V22.8576H9.99995V23.5718H7.1428ZM7.1428 24.2861H5.71423V25.0004H11.4285V24.2861H7.1428ZM12.1428 24.2861V25.0004H20.5714C20.7428 24.7861 20.8785 24.5433 20.9928 24.2861H12.1428ZM17.8571 23.5718H21.2142C21.2642 23.3433 21.2857 23.1004 21.2857 22.8576H17.8571V23.5718ZM15.7142 23.5718V22.8576H13.5714V23.5718H15.7142ZM13.5714 22.1433H21.2142C21.1658 21.898 21.0916 21.6586 20.9928 21.429H13.5714V22.1433ZM13.5714 20.7147H20.5714C20.3681 20.4442 20.1276 20.2037 19.8571 20.0004H13.5714V20.7147ZM13.5714 19.2861H20.5071C20.6499 19.0718 20.7785 18.829 20.8642 18.5718H13.5714V19.2861ZM13.5714 17.8576V17.1433H15.7142V17.8576H13.5714ZM17.8571 17.1433H21.0285C21.0548 17.3806 21.0548 17.6202 21.0285 17.8576H17.8571V17.1433ZM22.8571 18.5718V19.2861H27.6571L27.3857 18.5718H22.8571ZM27.1142 17.8576H22.8571V17.1433H26.8428L27.1142 17.8576ZM28.3071 18.5718L28.0499 19.2861H32.8571V18.5718H28.3071ZM32.8571 17.8576H28.5714L28.8285 17.1433H32.8571V17.8576ZM32.8571 16.429H34.2857V15.7147H29.3499L29.0928 16.429H32.8571ZM32.8571 20.0004H27.8571V20.7147H32.8571V20.0004ZM32.8571 21.429H29.9999V22.1433H32.8571V21.429ZM32.8571 22.8576H29.9999V23.5718H32.8571V22.8576ZM32.8571 24.2861H29.9999V25.0004H34.2857V24.2861H32.8571ZM34.2857 25.7147H29.9999V26.429H34.2857V25.7147ZM27.8571 26.429L28.1357 25.7147H27.8571V26.429ZM27.8571 25.0004H28.4071L28.6785 24.2861H27.8571V25.0004ZM27.8571 24.2861V25.0004H27.3142L27.0428 24.2861H27.8571ZM27.8571 23.5718H28.9571L29.2285 22.8576H27.8571V23.5718ZM27.8571 22.8576V23.5718H26.7785L26.5071 22.8576H27.8499H27.8571ZM27.8571 22.1433H29.4999L29.7857 21.429H27.8571V22.1433ZM27.8571 21.429V22.1433H26.2357L25.9642 21.429H27.8571ZM27.8571 20.7147V20.0004H22.8571V20.7147H27.8571ZM22.8571 21.429V22.1433H25.7142V21.429H22.8571ZM25.7142 22.8576H22.8571V23.5718H25.7142V22.8576ZM25.7142 24.2861H21.4285V25.0004H25.7142V24.2861ZM25.7142 25.7147H21.4285V26.429H25.7142V25.7147ZM17.8571 26.429C18.581 26.4006 19.2789 26.1513 19.8571 25.7147H12.1428V26.429H17.8571ZM11.4285 26.429V25.7147H5.71423V26.429H11.4285ZM27.5857 25.7147H27.8499V26.429L27.5857 25.7147Z" fill="white"/>
<circle cx="20" cy="20" r="19.5" stroke="black" stroke-opacity="0.05"/>
</svg>
