<svg width="40" height="40" viewBox="0 0 40 40" fill="none" xmlns="http://www.w3.org/2000/svg">
<circle cx="20" cy="20" r="20" fill="#F0F3FA"/>
<path d="M15.4511 15.1889C19.9029 10.8174 25.3029 9.68344 27.4636 12.6624C29.6249 15.6421 27.7252 21.6644 23.2741 26.0358C18.8229 30.4394 13.4229 31.5727 11.2289 28.5609C9.10229 25.5504 11.0019 19.5584 15.4511 15.1889Z" fill="#F06321"/>
<path d="M18.3979 12.8576C17.9068 13.2137 17.4163 13.6342 16.9258 14.0893C13.0301 17.9085 11.3927 23.1536 13.3245 25.7777C15.3206 28.3993 20.0989 27.4286 24.0924 23.5747C26.253 21.5034 27.6924 19.1068 28.2819 16.8729C28.4452 15.222 28.2163 13.764 27.4635 12.6635C25.7625 10.3325 22.0963 10.5253 18.3979 12.8576Z" fill="#AE282E"/>
<path d="M24.0269 13.3424V13.4388C23.9947 13.9897 23.6669 14.6692 23.078 15.2517C22.1947 16.0938 21.017 16.4172 20.5246 15.9331C19.9685 15.4156 20.297 14.281 21.1803 13.3745C22.0964 12.5002 23.2741 12.2097 23.7646 12.7272C23.9285 12.8892 24.0269 13.0833 24.0269 13.3424ZM20.6242 28.2052C18.5285 29.7584 16.3692 30.5369 14.2734 30.2129C15.1567 30.245 15.8787 29.273 16.4675 27.9783C17.0564 26.6508 17.3836 25.421 17.678 24.2542C18.1029 22.4092 18.1357 21.1139 17.9069 20.8227C17.5469 20.3682 16.7619 20.4665 15.8439 20.9847C15.3862 21.2437 14.7974 21.0817 15.4859 20.2402C16.2059 19.3981 18.9869 17.3898 19.9685 17.0665C21.0819 16.7752 22.3252 17.1957 21.9003 18.3933C21.6046 19.2676 17.7436 29.2409 20.6242 28.2052Z" fill="white"/>
<circle cx="20" cy="20" r="19.5" stroke="black" stroke-opacity="0.05"/>
</svg>
