<svg width="40" height="40" viewBox="0 0 40 40" fill="none" xmlns="http://www.w3.org/2000/svg">
<circle cx="20" cy="20" r="20" fill="#F6F8FA"/>
<circle cx="20" cy="20" r="19.5" stroke="black" stroke-opacity="0.05"/>
<g clip-path="url(#clip0_9_394562)">
<path d="M17.4097 23.5978C18.7928 25.3705 18.7661 27.8613 17.3455 29.6041C15.9248 31.3476 13.4863 31.8824 11.4637 30.8952C9.44059 29.9074 8.36864 27.6584 8.87761 25.4702C9.38657 23.2823 11.3424 21.7334 13.5945 21.7354" stroke="#1B4686" stroke-width="1.5" stroke-linecap="round"/>
<path d="M12.9431 27.2878L12.6924 27.5479C12.7057 27.4812 12.721 27.415 12.7388 27.3488C12.756 27.2826 12.775 27.2178 12.796 27.1529C12.817 27.088 12.84 27.0237 12.864 26.9602C12.8888 26.8966 12.915 26.8336 12.943 26.772L13.6861 25.1501L14.7543 22.9474L16.1679 20.22L17.6152 17.459L19.1594 14.6387C19.1594 14.6387 20.2422 12.8176 20.6067 12.2548C20.7582 12.0322 20.9128 11.8127 21.0711 11.5952C21.2296 11.3776 21.3918 11.1627 21.5571 10.9508C21.7226 10.7383 21.8911 10.5291 22.0634 10.3224C22.2359 10.1158 22.4115 9.9116 22.5903 9.71049C24.413 7.39526 28.8456 5.96795 31.9853 7.91675C31.9853 7.91675 29.9927 8.22656 28.5721 8.99618C28.5721 8.99618 26.8028 9.79819 25.0754 12.4932C25.0754 12.4932 24.6816 13.1139 24.3533 13.5713C24.2661 13.6846 24.1681 13.7895 24.0606 13.8836C23.953 13.9778 23.8367 14.0611 23.7125 14.1322C23.5885 14.2035 23.4581 14.2625 23.3225 14.3084C23.187 14.3541 23.047 14.3867 22.9052 14.4051C22.7633 14.4234 21.1568 14.641 20.8864 14.8636C20.8864 14.8636 22.1734 14.8216 23.1111 15.321C23.1111 15.321 20.0051 15.7058 19.9588 16.1083C19.9588 16.1083 21.389 15.8405 22.1975 16.4562C19.6914 17.0706 18.6927 17.762 18.0043 18.5418C17.9234 18.6232 17.8458 18.7078 17.7708 18.7944C17.6958 18.8809 17.6239 18.9706 17.5545 19.0615C17.4852 19.1531 17.419 19.2467 17.356 19.3427C17.2931 19.4387 17.2332 19.536 17.1759 19.6359C16.992 19.9285 16.8119 20.2236 16.6357 20.5212C16.4595 20.8188 16.2877 21.1185 16.1204 21.4212C15.9531 21.7233 15.7896 22.0279 15.6298 22.3345C15.4707 22.641 15.3155 22.9502 15.1648 23.2613C14.4134 24.8012 13.7415 26.1489 13.6399 26.364C13.6208 26.4054 13.6005 26.4467 13.58 26.4874C13.5596 26.5281 13.5386 26.5687 13.5164 26.6089C13.4947 26.649 13.4724 26.6891 13.4495 26.7285C13.4265 26.7679 13.4031 26.8074 13.3789 26.8462C13.3642 26.8659 13.3496 26.8855 13.3336 26.9047C13.3177 26.9238 13.3017 26.9423 13.2847 26.9601C13.2674 26.9778 13.2503 26.995 13.2318 27.0116C13.2134 27.0282 13.1948 27.044 13.1758 27.0593C13.0778 27.1509 13.0536 27.1859 12.9379 27.2985" fill="#788691"/>
</g>
<defs>
<clipPath id="clip0_9_394562">
<rect width="24" height="25.139" fill="white" transform="translate(8 7)"/>
</clipPath>
</defs>
</svg>
