<svg width="40" height="40" viewBox="0 0 40 40" fill="none" xmlns="http://www.w3.org/2000/svg">
<circle cx="20" cy="20" r="20" fill="#008579"/>
<g clip-path="url(#clip0_9_387236)">
<path fill-rule="evenodd" clip-rule="evenodd" d="M32.2315 16C30.4986 16 29.0018 17.0129 28.2725 18.4839C27.5432 17.0129 26.0464 16 24.3135 16C22.5807 16 21.0541 17.0344 20.3333 18.529C19.6126 17.0344 18.103 16 16.3531 16C14.6033 16 13.1213 17.0129 12.392 18.4839C11.6649 17.0129 10.1681 16 8.43309 16C5.98585 16 4 18.0151 4 20.5011C4 22.9871 5.98585 25 8.43309 25C10.1681 25 11.6649 23.9871 12.392 22.5161C13.1213 23.9871 14.6182 25 16.3531 25C18.0881 25 19.6126 23.9677 20.3333 22.471C21.0541 23.9677 22.5637 25 24.3135 25C26.0634 25 27.5432 23.9892 28.2725 22.5183C29.0018 23.9892 30.4986 25 32.2315 25C34.6808 25 36.6667 22.9849 36.6667 20.5011C36.6667 18.0172 34.6808 16 32.2315 16Z" fill="white"/>
<path fill-rule="evenodd" clip-rule="evenodd" d="M24.3306 23.0884C22.9039 23.0884 21.7494 21.9185 21.7494 20.469C21.7494 19.0196 22.9039 17.8497 24.3306 17.8497C25.7573 17.8497 26.9118 19.0217 26.9118 20.469C26.9118 21.9164 25.7573 23.0884 24.3306 23.0884ZM25.8168 20.469C25.8168 19.6346 25.1534 18.9594 24.3306 18.9594C23.5078 18.9594 22.8444 19.6346 22.8444 20.469C22.8444 21.3035 23.5078 21.9787 24.3306 21.9787C25.1534 21.9787 25.8168 21.3035 25.8168 20.469ZM30.1606 23.1078V18.4454C30.1606 18.0669 30.4115 17.8432 30.7325 17.8432C30.8877 17.8454 31.1067 17.9529 31.2109 18.097L33.3711 21.0196V18.4454C33.3711 18.0669 33.6199 17.8432 33.9431 17.8432C34.2662 17.8432 34.515 18.0669 34.515 18.4454V22.4949C34.515 22.8712 34.2662 23.0949 33.9431 23.097C33.7878 23.0927 33.5752 22.9852 33.4647 22.8432L31.3045 19.9529V23.1078H30.1606ZM18.1455 21.7744C18.2051 21.8647 18.2327 21.968 18.2327 22.069C18.2327 22.2475 18.1455 22.4217 17.9988 22.5207C17.5523 22.8863 16.9846 23.1035 16.3702 23.1035C14.9456 23.1035 13.789 21.9314 13.789 20.4841C13.789 19.0368 14.9456 17.8647 16.3702 17.8647C17.2291 17.8647 17.9882 18.2906 18.4581 18.9422L18.5112 19.0174L17.7501 19.8153L17.6778 19.6884C17.4226 19.2411 16.9208 18.9443 16.3702 18.9443C15.5495 18.9465 14.8861 19.6217 14.884 20.454C14.8861 21.2884 15.5495 21.9615 16.3702 21.9637C16.7529 21.9637 17.1037 21.8174 17.3673 21.5766L17.4396 21.6583L17.3822 21.5658C17.4694 21.5078 17.5672 21.4798 17.665 21.4798C17.8436 21.4798 18.018 21.5723 18.1221 21.7357L18.1455 21.7744ZM8.96041 18.3078V23.1701H7.84204V18.3078C7.84204 18.0067 8.08017 17.7637 8.37784 17.7637H8.42462C8.72015 17.7637 8.96041 18.0067 8.96041 18.3078Z" fill="#008579"/>
</g>
<circle cx="20" cy="20" r="19.5" stroke="black" stroke-opacity="0.05"/>
<defs>
<clipPath id="clip0_9_387236">
<rect width="32.6667" height="9" fill="white" transform="translate(4 16)"/>
</clipPath>
</defs>
</svg>
