<svg width="40" height="40" viewBox="0 0 40 40" fill="none" xmlns="http://www.w3.org/2000/svg">
<circle cx="20" cy="20" r="20" fill="#0065BD"/>
<circle cx="20" cy="20" r="19.5" stroke="black" stroke-opacity="0.05"/>
<g clip-path="url(#clip0_9_395323)">
<path fill-rule="evenodd" clip-rule="evenodd" d="M12.3641 26.4515C12.3641 26.4515 11.9445 26.5315 11.4404 26.5315C9.72413 26.5315 8.36413 25.6515 8.36413 23.7119V16.3685H11.5445V23.2696C11.5445 23.6515 11.7241 23.8719 12.3641 23.8719V26.4515ZM18.8562 24.1436C19.7362 24.1436 20.4185 23.9655 21.0841 23.6817V26.3972C20.4185 26.7172 19.6366 26.8953 18.5362 26.8953C14.8185 26.8953 13.4524 25.0236 13.4524 21.6319C13.4524 18.2402 14.8185 16.3685 18.5362 16.3685C19.6366 16.3685 20.4185 16.5481 21.0841 16.8681V19.576C20.4185 19.2998 19.7362 19.1202 18.8562 19.1202C17.5264 19.1202 16.6283 19.736 16.6283 21.6319C16.6283 23.5277 17.5264 24.1436 18.8562 24.1436ZM30.0366 26.6175L29.6305 25.9036C28.4924 26.5813 27.2124 26.8953 26.0924 26.8953C23.3302 26.8953 22.5362 25.4734 22.5362 23.5715V16.7323H25.7905V23.0975C25.7905 23.8296 26.0562 24.3217 26.9302 24.3217C27.7166 24.3217 28.4305 24.0077 28.7324 23.8115V16.7323H31.9883V26.6175H30.0366ZM9.82073 15.6424C8.81696 15.6424 8.00488 14.8304 8.00488 13.8266C8.00488 12.8228 8.81696 12.0107 9.82073 12.0107C10.8245 12.0107 11.6366 12.8228 11.6366 13.8266C11.6366 14.8304 10.8245 15.6424 9.82073 15.6424Z" fill="white"/>
</g>
<defs>
<clipPath id="clip0_9_395323">
<rect width="24" height="14.8981" fill="white" transform="translate(8 12)"/>
</clipPath>
</defs>
</svg>
