<svg width="40" height="40" viewBox="0 0 40 40" fill="none" xmlns="http://www.w3.org/2000/svg">
<circle cx="20" cy="20" r="20" fill="#2E294E"/>
<path d="M6.17815 16.7861V23.2147H5.21387V16.7861H6.17815ZM9.19958 16.7861C11.276 16.7861 12.2853 18.1361 12.2853 20.0004C12.2853 21.8647 11.276 23.2147 9.19958 23.2147H7.14244V16.7861H9.19958ZM9.18672 17.7504H8.10672V22.2504H9.18672C10.5817 22.2504 11.321 21.4404 11.321 20.0004C11.321 18.5604 10.5817 17.7504 9.18672 17.7504ZM17.4282 16.7861V17.7504H13.8924V19.3576H17.4282V20.3218H13.8924V22.2504H17.4282V23.2147H12.9282V16.7861H17.4282ZM18.071 23.2147L20.6424 16.7861H21.9282L24.4996 23.2147H23.5353L22.976 21.929H19.5946L19.0353 23.2147H18.071ZM19.9996 20.9068H22.571L21.2853 17.7504L19.9996 20.9068ZM28.3567 23.2147L30.9282 16.7861H32.2139L34.7853 23.2147H33.821L33.2617 21.929H29.8803L29.321 23.2147H28.3567ZM30.2853 20.9068H32.8567L31.571 17.7504L30.2853 20.9068ZM27.071 23.8576C27.071 23.8576 28.0546 23.9733 28.5882 25.1497C29.366 26.8726 28.9482 28.4154 28.3567 29.0004V28.5697C28.3439 26.0176 27.611 24.809 27.071 23.8576Z" fill="white"/>
<path d="M27.393 11.6426C27.5858 12.0411 27.753 12.4976 27.888 13.0119C28.6015 15.8147 27.7208 17.9233 26.6344 20.7326C25.593 23.4326 24.4873 25.7147 24.5001 27.579C24.5001 27.8169 24.5194 28.0483 24.5644 28.2733C24.783 29.5076 25.188 30.1826 25.7858 30.2854C25.4451 29.7133 25.3101 29.0383 25.3101 27.9776C25.3101 26.1262 26.5958 23.3747 27.3865 21.3562C27.978 19.8454 28.9808 17.5633 29.0001 15.2876C29.013 14.1497 28.6787 11.964 27.393 11.6426Z" fill="white"/>
<path d="M25.4647 21.2853C23.9861 17.2482 23.4654 15.6282 24.1726 14.2139C24.314 16.4639 25.2526 18.1289 25.6383 19.2474C25.7596 19.5792 25.807 19.9336 25.777 20.2856C25.747 20.6376 25.6404 20.9788 25.4647 21.2853Z" fill="white"/>
<path d="M26.8336 14.2142H27.3351C27.4315 14.2142 27.5279 14.317 27.5279 14.4199C27.5279 14.5292 27.4315 14.6256 27.3351 14.632H26.8336C26.7244 14.632 26.6279 14.5356 26.6279 14.4199C26.6279 14.3106 26.7179 14.2077 26.8336 14.2142Z" fill="#E82C26"/>
<path d="M26.0874 14.8574H27.4181C27.521 14.8574 27.611 14.9603 27.611 15.0631C27.611 15.1724 27.521 15.2689 27.4181 15.2753H26.0874C25.9845 15.2689 25.8945 15.1724 25.8945 15.0631C25.8945 14.9603 25.9845 14.8639 26.0874 14.8574Z" fill="#EC4D24"/>
<path d="M25.3483 15.5003H27.5083C27.624 15.5003 27.714 15.5967 27.714 15.706C27.714 15.8217 27.624 15.9181 27.5083 15.9181H25.3483C25.2326 15.9181 25.1426 15.8217 25.1426 15.706C25.1426 15.5967 25.2326 15.4939 25.3483 15.5003Z" fill="#F17224"/>
<path d="M25.3354 16.1426H27.5212C27.624 16.1426 27.714 16.2454 27.714 16.3483C27.714 16.4576 27.624 16.554 27.5212 16.5604H25.3354C25.2326 16.554 25.1426 16.4576 25.1426 16.3483C25.1426 16.2454 25.2326 16.149 25.3354 16.1426Z" fill="#F49823"/>
<path d="M25.2461 16.9918C25.2461 16.8826 25.3361 16.7861 25.439 16.7861H27.1168C27.2197 16.7861 27.3097 16.889 27.3097 16.9918C27.3097 17.1011 27.2197 17.1976 27.1168 17.204H25.4454C25.3361 17.204 25.2461 17.1011 25.2461 16.9918Z" fill="#F7BA1E"/>
<path d="M25.6768 17.6344C25.6768 17.5251 25.7668 17.4287 25.8696 17.4287H26.8789C26.9818 17.4287 27.0718 17.5316 27.0718 17.6344C27.0718 17.7437 26.9818 17.8401 26.8789 17.8466H25.8696C25.7668 17.8466 25.6768 17.7437 25.6768 17.6344Z" fill="#F8C725"/>
<path d="M26.0176 18.277C26.0176 18.1677 26.1076 18.0713 26.2104 18.0713H26.4676C26.5704 18.0713 26.6604 18.1741 26.6604 18.277C26.6604 18.3863 26.5704 18.4827 26.4676 18.4891H26.2104C26.1076 18.4891 26.0176 18.3863 26.0176 18.277Z" fill="#F8D126"/>
<path d="M25.8632 27.9648H26.2425C26.3389 27.9648 26.4289 28.0548 26.4289 28.1577C26.4289 28.267 26.3389 28.357 26.236 28.357H25.8632C25.7668 28.357 25.6768 28.267 25.6768 28.1641C25.6768 28.0548 25.7668 27.9648 25.8696 27.9648H25.8632Z" fill="#3F92CF"/>
<path d="M25.7856 27.3223H26.8785C26.9813 27.3223 27.0713 27.4123 27.0713 27.5151C27.0713 27.6244 26.9813 27.7144 26.8785 27.7144H25.7856C25.6828 27.7144 25.5928 27.6244 25.5928 27.5216C25.5928 27.4123 25.6828 27.3223 25.7856 27.3223Z" fill="#38B0CD"/>
<path d="M27.7147 26.8783C27.7147 26.9812 27.6247 27.0712 27.5218 27.0712H25.9018C25.7926 27.0712 25.709 26.9812 25.709 26.8783C25.709 26.769 25.7926 26.6726 25.9018 26.679H27.5283C27.6247 26.679 27.7147 26.769 27.7147 26.8719V26.8783Z" fill="#71C08E"/>
<path d="M27.4897 26.2357C27.4897 26.3386 27.4061 26.4286 27.3033 26.4286H26.0561C25.9469 26.4286 25.8633 26.3386 25.8633 26.2357C25.8633 26.1264 25.9469 26.03 26.0561 26.0364H27.3033C27.4061 26.0364 27.4961 26.1264 27.4961 26.2293L27.4897 26.2357Z" fill="#A6CC50"/>
<path d="M27.0905 25.786H26.3384C26.2291 25.786 26.1455 25.696 26.1455 25.5931C26.1455 25.4839 26.2291 25.3874 26.3384 25.3939H27.0905C27.1869 25.3939 27.2705 25.4839 27.2705 25.5867C27.2705 25.6896 27.1869 25.7796 27.0905 25.786Z" fill="#CBD93D"/>
<path d="M26.7114 24.751H26.8336C26.93 24.751 27.02 24.841 27.02 24.9438C27.02 25.0531 26.93 25.1431 26.8271 25.1431H26.7114C26.615 25.1431 26.5186 25.0531 26.5186 24.9503C26.5186 24.841 26.615 24.751 26.7114 24.751Z" fill="#E8E52C"/>
<circle cx="20" cy="20" r="19.5" stroke="black" stroke-opacity="0.05"/>
</svg>
