<svg width="40" height="40" viewBox="0 0 40 40" fill="none" xmlns="http://www.w3.org/2000/svg">
<circle cx="20" cy="20" r="20" fill="#33689B"/>
<path d="M21.7062 15.4804C22.0841 16.217 22.9799 16.4433 23.6771 16.0092C23.7352 15.9734 23.7855 15.9821 23.828 16.0352L23.9101 16.1366C23.9783 16.2221 23.9646 16.2908 23.869 16.3427C22.8618 16.8891 21.6576 16.6402 21.1514 15.5718C20.7257 14.6751 20.9637 13.2899 21.9308 12.7578C22.5827 12.3991 23.2439 12.4147 23.9143 12.8047C23.9869 12.8466 24.0065 12.9058 23.973 12.9823C23.9484 13.0388 23.9182 13.0938 23.8825 13.1474C23.8389 13.2128 23.7847 13.2231 23.7199 13.1784C23.2925 12.8846 22.8411 12.8254 22.3657 13.0008C21.4129 13.3519 21.3173 14.7229 21.7062 15.4804Z" fill="#FEFFFF"/>
<path d="M26.3643 15.4275C26.3613 15.4177 26.3553 15.4091 26.3472 15.403C26.3391 15.3968 26.3292 15.3934 26.319 15.3931L25.0453 15.3897C25.0192 15.3897 24.9938 15.398 24.9727 15.4134C24.9516 15.4287 24.936 15.4504 24.928 15.4752L24.607 16.4632C24.5982 16.49 24.5811 16.5134 24.5583 16.5299C24.5354 16.5465 24.5079 16.5554 24.4796 16.5554L24.214 16.5537C24.1553 16.5537 24.1363 16.5261 24.157 16.4708C24.5922 15.3076 25.0377 14.0925 25.4936 12.8255C25.5255 12.7372 25.5665 12.6562 25.6168 12.5824C25.6288 12.5647 25.6444 12.5497 25.6626 12.5384C25.6807 12.5271 25.7011 12.5198 25.7223 12.517C25.7435 12.5141 25.7651 12.5158 25.7856 12.5219C25.8062 12.528 25.8252 12.5383 25.8414 12.5523C25.9079 12.6093 25.9562 12.6833 25.9864 12.7743C26.4015 14.0235 26.8193 15.2766 27.24 16.5336C27.2405 16.5355 27.2406 16.5374 27.2403 16.5393C27.2399 16.5411 27.2391 16.5429 27.238 16.5444C27.2369 16.546 27.2354 16.5472 27.2337 16.5481C27.232 16.549 27.2302 16.5495 27.2283 16.5495L26.7288 16.5554C26.7165 16.556 26.7087 16.5504 26.7054 16.5386L26.3643 15.4275ZM25.1048 14.9523C25.1025 14.9589 25.1019 14.9659 25.1029 14.9728C25.1039 14.9798 25.1065 14.9863 25.1105 14.992C25.1145 14.9977 25.1197 15.0024 25.1259 15.0057C25.132 15.009 25.1389 15.0108 25.1458 15.011L26.1833 15.0202C26.1903 15.0202 26.1973 15.0185 26.2035 15.0152C26.2098 15.012 26.2152 15.0073 26.2193 15.0016C26.2234 14.9959 26.226 14.9892 26.2271 14.9823C26.2281 14.9753 26.2274 14.9682 26.2252 14.9615L25.7207 13.3928C25.7178 13.3841 25.7122 13.3765 25.7047 13.3711C25.6973 13.3657 25.6883 13.3628 25.6791 13.3627C25.6699 13.3626 25.6609 13.3654 25.6534 13.3706C25.6458 13.3758 25.6401 13.3833 25.6369 13.392L25.1048 14.9523Z" fill="#FEFFFF"/>
<path d="M33.3582 15.5353L33.3473 12.6592C33.3473 12.5861 33.3842 12.5489 33.458 12.5478L33.6616 12.5461C33.732 12.5455 33.7672 12.5805 33.7672 12.6509L33.7663 16.4763C33.7663 16.5311 33.739 16.5593 33.6842 16.561L33.4865 16.566C33.4446 16.5671 33.4119 16.5504 33.3884 16.5157L31.3764 13.5534C31.3557 13.5227 31.3347 13.5227 31.3135 13.5534C31.3057 13.5657 31.3018 13.5791 31.3018 13.5936C31.3096 14.4931 31.3088 15.4643 31.2993 16.5073C31.2993 16.5425 31.2817 16.5604 31.2465 16.561L30.9616 16.5668C30.9213 16.5674 30.9009 16.5476 30.9004 16.5073C30.8898 15.3263 30.8878 14.0676 30.8945 12.7313C30.8951 12.6911 30.899 12.6517 30.9063 12.6131C30.918 12.5539 30.954 12.5257 31.0144 12.5285C31.1339 12.5341 31.2278 12.5863 31.2959 12.6852C31.9758 13.6763 32.6297 14.6366 33.2577 15.5663C33.3253 15.6663 33.3588 15.6559 33.3582 15.5353Z" fill="#FEFFFF"/>
<path d="M20.2881 12.5618L19.9261 12.5624C19.8914 12.5625 19.8633 12.5906 19.8634 12.6253L19.8702 16.5036C19.8702 16.5383 19.8984 16.5664 19.9331 16.5664L20.2951 16.5657C20.3298 16.5657 20.3579 16.5375 20.3579 16.5028L20.3511 12.6245C20.351 12.5898 20.3229 12.5617 20.2881 12.5618Z" fill="#FEFFFF"/>
<path d="M29.7931 14.1289L29.7947 12.6071C29.7947 12.5945 29.7996 12.5825 29.8084 12.5736C29.8172 12.5647 29.8291 12.5595 29.8417 12.5593L30.2372 12.5518C30.2435 12.5517 30.2498 12.5528 30.2557 12.5552C30.2616 12.5575 30.267 12.561 30.2715 12.5655C30.276 12.5699 30.2796 12.5752 30.2821 12.5811C30.2845 12.5869 30.2858 12.5932 30.2858 12.5995L30.2816 16.5038C30.2816 16.5163 30.2767 16.5283 30.2679 16.5373C30.2591 16.5462 30.2472 16.5513 30.2347 16.5515L29.8417 16.5566C29.8353 16.5567 29.829 16.5555 29.8231 16.5532C29.8172 16.5508 29.8119 16.5473 29.8073 16.5429C29.8028 16.5384 29.7992 16.5331 29.7968 16.5273C29.7943 16.5214 29.7931 16.5151 29.7931 16.5088L29.7956 14.6392C29.7956 14.6266 29.7905 14.6144 29.7816 14.6054C29.7726 14.5965 29.7605 14.5915 29.7478 14.5915L28.0986 14.5923C28.0923 14.5923 28.0861 14.5935 28.0803 14.5959C28.0745 14.5983 28.0693 14.6019 28.0648 14.6063C28.0604 14.6107 28.0569 14.616 28.0545 14.6218C28.0521 14.6276 28.0508 14.6338 28.0508 14.6401L28.055 16.5096C28.055 16.516 28.0538 16.5223 28.0513 16.5281C28.0489 16.534 28.0453 16.5393 28.0408 16.5437C28.0362 16.5482 28.0309 16.5517 28.025 16.554C28.0191 16.5564 28.0128 16.5575 28.0064 16.5574L27.6134 16.5532C27.6009 16.553 27.589 16.5479 27.5802 16.5389C27.5714 16.53 27.5665 16.518 27.5665 16.5055L27.5581 12.6012C27.5581 12.5949 27.5594 12.5886 27.5618 12.5827C27.5643 12.5769 27.5679 12.5716 27.5724 12.5671C27.5769 12.5627 27.5823 12.5592 27.5882 12.5568C27.5941 12.5545 27.6004 12.5533 27.6067 12.5534L28.0022 12.561C28.0148 12.5612 28.0267 12.5663 28.0355 12.5753C28.0443 12.5842 28.0492 12.5962 28.0492 12.6087L28.0525 14.1297C28.0525 14.1424 28.0576 14.1545 28.0665 14.1635C28.0755 14.1725 28.0876 14.1775 28.1003 14.1775L29.7453 14.1766C29.7516 14.1766 29.7578 14.1754 29.7636 14.173C29.7694 14.1706 29.7746 14.1671 29.7791 14.1627C29.7835 14.1582 29.787 14.153 29.7894 14.1472C29.7918 14.1414 29.7931 14.1352 29.7931 14.1289Z" fill="#FEFFFF"/>
<path d="M25.8281 21.7129L26.0108 21.4389C26.0382 21.3981 26.0717 21.3917 26.1114 21.4196C26.2812 21.5403 26.4639 21.6314 26.6594 21.6928C26.9846 21.7942 27.4614 21.7247 27.6206 21.3786C27.805 20.978 27.5754 20.6269 27.2594 20.3847C26.9857 20.1758 26.7147 19.9621 26.4466 19.7436C26.0913 19.4548 25.9424 19.1302 25.9999 18.7699C26.0502 18.4554 26.2245 18.2277 26.5228 18.0869C27.0837 17.8221 27.6268 17.8668 28.1519 18.221C28.2044 18.2562 28.21 18.2975 28.1687 18.345L27.991 18.5478C27.9508 18.5942 27.9047 18.6006 27.8528 18.5671C27.412 18.2777 27.0569 18.2408 26.7877 18.4565C26.4223 18.7473 26.6025 19.1864 26.9167 19.4227C27.2379 19.6646 27.529 19.8886 27.7899 20.0948C28.4938 20.6504 28.4394 21.7331 27.5343 22.0414C26.9801 22.2303 26.4184 22.1521 25.8491 21.8068C25.8094 21.7828 25.8024 21.7515 25.8281 21.7129Z" fill="#FEFFFF"/>
<path d="M32.534 18.435C32.12 18.7149 32.3161 19.1808 32.6387 19.4264C33.2337 19.8814 34.241 20.4135 33.9477 21.3429C33.8309 21.7122 33.5644 21.9552 33.1482 22.0719C32.6231 22.2194 32.0988 22.132 31.5753 21.8096C31.5189 21.775 31.5108 21.7314 31.551 21.6789L31.7387 21.4376C31.7661 21.4018 31.7976 21.3974 31.8334 21.4242C32.1577 21.6613 32.5222 21.7921 32.9077 21.7032C33.5597 21.5532 33.5027 20.8359 33.0736 20.4789C32.7775 20.232 32.4823 19.9951 32.1879 19.7683C31.5133 19.2479 31.5233 18.3328 32.389 18.0202C32.9007 17.8353 33.3985 17.9012 33.8823 18.218C33.9415 18.2565 33.9463 18.3009 33.8966 18.3512L33.7072 18.5456C33.6524 18.6015 33.5946 18.6049 33.5337 18.5557C33.2521 18.3303 32.8348 18.2322 32.534 18.435Z" fill="#FEFFFF"/>
<path d="M19.2827 18.3877C19.2725 18.3885 19.263 18.3932 19.2561 18.4008C19.2491 18.4084 19.2451 18.4183 19.245 18.4287L19.2416 22.028C19.2416 22.0325 19.2407 22.0371 19.239 22.0413C19.2372 22.0455 19.2347 22.0493 19.2315 22.0525C19.2283 22.0557 19.2245 22.0583 19.2203 22.0599C19.2162 22.0616 19.2117 22.0624 19.2073 22.0623L18.733 22.0573C18.7241 22.0573 18.7155 22.0538 18.7093 22.0475C18.703 22.0412 18.6994 22.0327 18.6994 22.0238L18.6919 18.0055C18.6919 17.9715 18.7089 17.955 18.743 17.9561C19.0341 17.965 19.3422 17.9726 19.6673 17.9787C20.064 17.986 20.3687 18.0511 20.5816 18.174C21.3257 18.6047 21.1933 19.8307 20.4559 20.2263C20.2062 20.3603 19.9302 20.4405 19.6279 20.4668C19.5883 20.4701 19.5615 20.4533 19.5475 20.4165C19.5151 20.3321 19.5089 20.25 19.5291 20.1701C19.5369 20.1377 19.557 20.1173 19.5894 20.1089C19.7059 20.0779 19.8324 20.0779 19.9439 20.036C20.3835 19.8673 20.5604 19.5092 20.4743 18.9617C20.3863 18.4036 19.7478 18.3449 19.2827 18.3877Z" fill="#FEFFFF"/>
<path d="M7.01026 19.0146C6.99797 19.0269 6.99182 19.0417 6.99182 19.059C6.99685 20.0579 6.99852 21.0476 6.99685 22.0281C6.99685 22.0437 6.98875 22.0518 6.97255 22.0524L6.59545 22.0658C6.5826 22.0663 6.57617 22.0602 6.57617 22.0473L6.58371 18.0677C6.58375 18.054 6.58666 18.0405 6.59226 18.0281C6.59787 18.0156 6.60603 18.0044 6.61624 17.9954C6.62644 17.9863 6.63844 17.9794 6.65146 17.9753C6.66449 17.9711 6.67824 17.9698 6.69182 17.9713C6.83037 17.9864 6.94796 18.0641 7.04461 18.2043C7.66418 19.1054 8.30804 20.0451 8.9762 21.0233C9.05945 21.1451 9.10107 21.1323 9.10107 20.9848L9.09772 18.0434C9.09772 18.0037 9.11755 17.985 9.15721 17.9872L9.41783 17.999C9.44495 18.0003 9.47052 18.0119 9.48925 18.0314C9.50798 18.0509 9.51841 18.0768 9.51839 18.1037L9.52174 22.0038C9.52174 22.0379 9.50526 22.0574 9.4723 22.0624C9.33571 22.0834 9.18068 22.1027 9.09101 21.9703C8.43402 21.0054 7.76082 20.0219 7.07143 19.0197C7.06803 19.0149 7.06364 19.0109 7.05856 19.0081C7.05348 19.0052 7.04783 19.0034 7.04201 19.003C7.03619 19.0025 7.03033 19.0033 7.02485 19.0053C7.01936 19.0073 7.01438 19.0105 7.01026 19.0146Z" fill="#FEFFFF"/>
<path d="M22.1226 20.3731C22.069 20.3731 22.0422 20.4002 22.0422 20.4544L22.0455 22.0148C22.0455 22.0218 22.0442 22.0287 22.0415 22.0352C22.0388 22.0416 22.0349 22.0475 22.03 22.0524C22.0251 22.0573 22.0193 22.0612 22.0129 22.0638C22.0065 22.0664 21.9996 22.0677 21.9927 22.0676L21.5578 22.0617C21.5232 22.0617 21.5059 22.0444 21.5059 22.0098L21.51 18.0058C21.51 17.9987 21.5115 17.9916 21.5142 17.9851C21.517 17.9785 21.521 17.9726 21.5261 17.9676C21.5311 17.9626 21.5371 17.9586 21.5437 17.956C21.5503 17.9533 21.5574 17.952 21.5645 17.9522C21.8885 17.96 22.2291 17.9689 22.586 17.979C23.2816 17.9991 23.8011 18.2496 23.8162 18.998C23.828 19.5846 23.6226 19.8427 23.212 20.177C23.1956 20.1905 23.1845 20.2093 23.1807 20.2302C23.1768 20.2511 23.1805 20.2726 23.1911 20.291L24.1078 21.8933C24.1138 21.9037 24.1173 21.9153 24.1181 21.9272C24.1189 21.9392 24.117 21.9511 24.1125 21.9622C24.1079 21.9732 24.1009 21.983 24.092 21.9908C24.083 21.9986 24.0724 22.0043 24.0609 22.0072L23.6545 22.1145C23.602 22.1285 23.5632 22.1114 23.538 22.0634L22.6874 20.4326C22.6773 20.413 22.6619 20.3965 22.643 20.3851C22.624 20.3737 22.6023 20.3678 22.5802 20.3681L22.1226 20.3731ZM22.0405 18.4323L22.0455 19.8888C22.0455 19.8975 22.0472 19.9061 22.0506 19.9141C22.0539 19.9221 22.0588 19.9294 22.0649 19.9356C22.0711 19.9417 22.0784 19.9466 22.0864 19.9499C22.0944 19.9533 22.103 19.955 22.1117 19.955L22.4897 19.9541C22.6884 19.9535 22.8786 19.8751 23.0187 19.7364C23.1587 19.5976 23.237 19.4098 23.2363 19.2142V19.1002C23.236 19.0034 23.2163 18.9075 23.1784 18.8182C23.1404 18.7288 23.0849 18.6477 23.0151 18.5795C22.9453 18.5112 22.8626 18.4572 22.7715 18.4204C22.6805 18.3837 22.583 18.365 22.4846 18.3653L22.1067 18.3661C22.0891 18.3661 22.0723 18.3731 22.0599 18.3855C22.0475 18.3979 22.0405 18.4148 22.0405 18.4323Z" fill="#FEFFFF"/>
<path d="M25.0939 17.9609H24.685C24.6489 17.9609 24.6196 17.9902 24.6196 18.0263V22.0068C24.6196 22.0429 24.6489 22.0722 24.685 22.0722H25.0939C25.13 22.0722 25.1593 22.0429 25.1593 22.0068V18.0263C25.1593 17.9902 25.13 17.9609 25.0939 17.9609Z" fill="#FEFFFF"/>
<path d="M29.4685 21.662H31.1076C31.1142 21.662 31.1208 21.6633 31.1269 21.6658C31.133 21.6683 31.1385 21.672 31.1432 21.6767C31.1479 21.6814 31.1516 21.6869 31.1541 21.693C31.1566 21.6991 31.1579 21.7056 31.1579 21.7123L31.1571 22.0164C31.1571 22.0298 31.1518 22.0426 31.1423 22.052C31.1329 22.0614 31.1201 22.0667 31.1068 22.0667L28.938 22.065C28.9314 22.065 28.9249 22.0637 28.9188 22.0612C28.9127 22.0587 28.9072 22.055 28.9025 22.0503C28.8978 22.0457 28.8941 22.0401 28.8916 22.034C28.8891 22.0279 28.8878 22.0214 28.8878 22.0148L28.8853 18.0125C28.8853 18.0059 28.8866 17.9993 28.8891 17.9932C28.8916 17.9871 28.8953 17.9816 28.9 17.9769C28.9046 17.9723 28.9102 17.9686 28.9163 17.966C28.9224 17.9635 28.9289 17.9622 28.9355 17.9622L30.8386 17.958C30.8453 17.958 30.8519 17.9593 30.8581 17.9619C30.8642 17.9645 30.8698 17.9683 30.8745 17.973C30.8792 17.9778 30.8829 17.9834 30.8853 17.9896C30.8878 17.9958 30.889 18.0025 30.8889 18.0091L30.883 18.3426C30.8828 18.3558 30.8774 18.3684 30.868 18.3777C30.8586 18.3869 30.846 18.3921 30.8328 18.3921L29.4794 18.3854C29.4661 18.3854 29.4533 18.3907 29.4438 18.4001C29.4344 18.4095 29.4291 18.4223 29.4291 18.4357L29.4232 19.6617C29.4231 19.6684 29.4244 19.6751 29.4269 19.6814C29.4294 19.6876 29.4332 19.6933 29.438 19.6981C29.4427 19.7028 29.4484 19.7066 29.4547 19.7091C29.4609 19.7116 29.4676 19.7129 29.4744 19.7128L30.8093 19.7044C30.8159 19.7043 30.8225 19.7055 30.8286 19.7079C30.8348 19.7103 30.8404 19.7139 30.8451 19.7185C30.8499 19.7231 30.8536 19.7286 30.8563 19.7347C30.8589 19.7407 30.8603 19.7472 30.8604 19.7538L30.8696 20.0714C30.8699 20.0782 30.8687 20.0849 30.8663 20.0912C30.8639 20.0975 30.8602 20.1032 30.8555 20.1081C30.8508 20.1129 30.8452 20.1168 30.839 20.1194C30.8328 20.1221 30.8261 20.1234 30.8194 20.1234L29.4827 20.1209C29.4761 20.1208 29.4694 20.122 29.4632 20.1245C29.4571 20.1269 29.4514 20.1306 29.4467 20.1353C29.4419 20.14 29.4381 20.1456 29.4355 20.1517C29.433 20.1579 29.4316 20.1645 29.4316 20.1712L29.4182 21.6109C29.4181 21.6175 29.4193 21.6242 29.4218 21.6304C29.4243 21.6365 29.428 21.6422 29.4326 21.6469C29.4373 21.6517 29.4429 21.6555 29.4491 21.6581C29.4552 21.6606 29.4618 21.662 29.4685 21.662Z" fill="#FEFFFF"/>
<path d="M4.54721 20.2162L4.53883 21.5881C4.53883 21.6052 4.5456 21.6217 4.55768 21.634C4.56976 21.6462 4.58617 21.6532 4.60336 21.6534L6.13942 21.6635C6.14814 21.6635 6.15678 21.6652 6.16482 21.6686C6.17286 21.672 6.18015 21.677 6.18624 21.6832C6.19233 21.6895 6.19711 21.6969 6.20029 21.705C6.20348 21.7131 6.205 21.7218 6.20478 21.7305L6.19724 22.0045C6.1968 22.0216 6.18972 22.0378 6.17751 22.0497C6.1653 22.0616 6.14892 22.0682 6.13187 22.0682L4.07207 22.0691C4.05473 22.0691 4.03811 22.0622 4.02585 22.0499C4.01359 22.0377 4.0067 22.021 4.0067 22.0037L4 18.0634C4 18.0461 4.00689 18.0295 4.01915 18.0172C4.0314 18.0049 4.04803 17.9981 4.06536 17.9981L5.86707 17.9863C5.87572 17.9863 5.88429 17.988 5.89227 17.9914C5.90026 17.9947 5.9075 17.9996 5.91358 18.0058C5.91966 18.0119 5.92446 18.0192 5.9277 18.0273C5.93093 18.0353 5.93254 18.0439 5.93243 18.0525L5.92908 18.3483C5.92886 18.3655 5.92187 18.3819 5.90964 18.394C5.8974 18.4061 5.8809 18.4129 5.86371 18.4129L4.61342 18.4087C4.59608 18.4087 4.57946 18.4156 4.5672 18.4278C4.55494 18.4401 4.54805 18.4567 4.54805 18.474L4.54973 19.6707C4.54973 19.688 4.55662 19.7047 4.56887 19.7169C4.58113 19.7292 4.59776 19.7361 4.61509 19.7361L5.84109 19.7277C5.85828 19.7277 5.87478 19.7345 5.88701 19.7465C5.89925 19.7586 5.90623 19.775 5.90645 19.7922L5.91148 20.0847C5.91159 20.0933 5.90998 20.1019 5.90675 20.11C5.90351 20.118 5.89871 20.1253 5.89263 20.1314C5.88655 20.1376 5.87931 20.1425 5.87132 20.1458C5.86334 20.1492 5.85477 20.1509 5.84612 20.1509L4.61258 20.1517C4.59539 20.1517 4.57889 20.1585 4.56665 20.1706C4.55442 20.1826 4.54744 20.1991 4.54721 20.2162Z" fill="#FEFFFF"/>
<path d="M10.9795 18.4105L9.89767 18.4038C9.87787 18.4038 9.85885 18.3961 9.84461 18.3823C9.83038 18.3686 9.82206 18.3498 9.82141 18.33L9.81303 18.0778C9.81269 18.0676 9.81442 18.0574 9.8181 18.0478C9.82178 18.0383 9.82734 18.0296 9.83446 18.0222C9.84157 18.0149 9.85009 18.0091 9.85951 18.0051C9.86893 18.0011 9.87906 17.999 9.88929 17.999L12.762 17.9932C12.7723 17.9932 12.7825 17.9952 12.7919 17.9993C12.8014 18.0033 12.81 18.0092 12.8171 18.0167C12.8242 18.0241 12.8298 18.0329 12.8334 18.0426C12.837 18.0522 12.8387 18.0625 12.8382 18.0728L12.829 18.3259C12.8283 18.3455 12.8201 18.3641 12.8061 18.3779C12.792 18.3916 12.7732 18.3994 12.7536 18.3996L11.6717 18.408C11.6516 18.4082 11.6325 18.4163 11.6183 18.4306C11.6042 18.4449 11.5963 18.4642 11.5963 18.4842L11.6047 21.9904C11.6047 22.0107 11.5966 22.03 11.5823 22.0443C11.568 22.0587 11.5486 22.0667 11.5284 22.0667L11.1362 22.0675C11.116 22.0675 11.0966 22.0595 11.0823 22.0452C11.068 22.0309 11.06 22.0115 11.06 21.9913L11.0549 18.4859C11.0547 18.466 11.0467 18.4469 11.0326 18.4328C11.0185 18.4187 10.9995 18.4107 10.9795 18.4105Z" fill="#FEFFFF"/>
<path d="M13.7064 18.4701L13.7022 19.6693C13.7022 19.6855 13.7087 19.7011 13.7201 19.7126C13.7316 19.724 13.7472 19.7305 13.7634 19.7305H14.9894C15.0053 19.7305 15.0206 19.7367 15.0321 19.7478C15.0435 19.7589 15.0501 19.774 15.0506 19.79L15.0606 20.0824C15.0609 20.0907 15.0596 20.0989 15.0567 20.1066C15.0538 20.1143 15.0493 20.1214 15.0436 20.1273C15.0379 20.1333 15.031 20.138 15.0234 20.1412C15.0159 20.1445 15.0077 20.1461 14.9994 20.1461L13.7693 20.1545C13.753 20.1545 13.7375 20.161 13.726 20.1724C13.7145 20.1839 13.7081 20.1995 13.7081 20.2157L13.6963 21.5917C13.6962 21.5997 13.6977 21.6077 13.7007 21.6152C13.7037 21.6226 13.7081 21.6294 13.7137 21.6352C13.7193 21.6409 13.726 21.6455 13.7333 21.6487C13.7407 21.6519 13.7486 21.6536 13.7567 21.6537L15.2852 21.6646C15.3013 21.6646 15.3167 21.6709 15.3282 21.6822C15.3396 21.6935 15.3461 21.7088 15.3464 21.7249L15.3531 22.0023C15.3533 22.0105 15.3519 22.0186 15.3489 22.0262C15.3459 22.0338 15.3415 22.0408 15.3358 22.0466C15.3301 22.0525 15.3232 22.0572 15.3157 22.0603C15.3082 22.0635 15.3001 22.0651 15.2919 22.0651L13.2145 22.0693C13.1983 22.0693 13.1827 22.0629 13.1712 22.0514C13.1598 22.0399 13.1533 22.0244 13.1533 22.0082L13.1542 18.0553C13.1542 18.0391 13.1606 18.0235 13.1721 18.0121C13.1835 18.0006 13.1991 17.9941 13.2153 17.9941H15.017C15.0252 17.9941 15.0333 17.9958 15.0408 17.999C15.0484 18.0021 15.0552 18.0068 15.0609 18.0126C15.0666 18.0185 15.0711 18.0254 15.074 18.0331C15.077 18.0407 15.0784 18.0488 15.0782 18.057L15.0715 18.3511C15.0711 18.3671 15.0644 18.3822 15.053 18.3933C15.0416 18.4044 15.0263 18.4106 15.0103 18.4106L13.7676 18.409C13.7514 18.409 13.7358 18.4154 13.7243 18.4269C13.7128 18.4383 13.7064 18.4539 13.7064 18.4701Z" fill="#FEFFFF"/>
<path d="M16.3879 20.4362L16.3896 22.0292C16.3896 22.051 16.3787 22.0619 16.3569 22.0619L15.8868 22.0694C15.8656 22.0694 15.855 22.0588 15.855 22.0376L15.8634 18.0462C15.8634 18.039 15.8648 18.0319 15.8676 18.0253C15.8704 18.0187 15.8745 18.0127 15.8797 18.0077C15.8848 18.0027 15.8909 17.9987 15.8976 17.9962C15.9043 17.9936 15.9115 17.9923 15.9187 17.9926C16.1974 17.997 16.4804 17.9968 16.7676 17.9917C17.2486 17.9833 17.7145 18.0738 17.9341 18.5565C18.2156 19.1775 17.9458 19.7959 17.4581 20.2082C17.4268 20.2345 17.4209 20.2655 17.4405 20.3013L18.3153 21.9077C18.3366 21.9468 18.3262 21.9739 18.2843 21.989L17.898 22.1289C17.8781 22.1359 17.8564 22.1354 17.8369 22.1275C17.8175 22.1196 17.8017 22.1049 17.7924 22.0862L16.9838 20.4613C16.9695 20.4326 16.9472 20.4085 16.9196 20.392C16.892 20.3755 16.8601 20.3673 16.8279 20.3683L16.4416 20.3809C16.4058 20.382 16.3879 20.4004 16.3879 20.4362ZM16.3846 18.4451L16.393 19.9082C16.393 19.9225 16.3986 19.9361 16.4087 19.9462C16.4187 19.9562 16.4324 19.9619 16.4466 19.9619L16.7818 19.9602C16.9676 19.9593 17.1454 19.8855 17.2762 19.7551C17.4069 19.6246 17.4799 19.4482 17.479 19.2646L17.4773 19.0786C17.4769 18.9877 17.4584 18.8978 17.4228 18.814C17.3871 18.7301 17.3352 18.6541 17.2698 18.5901C17.2044 18.5262 17.127 18.4755 17.0418 18.4412C16.9566 18.4068 16.8654 18.3893 16.7734 18.3898L16.4382 18.3914C16.424 18.3914 16.4104 18.3971 16.4003 18.4072C16.3902 18.4172 16.3846 18.4309 16.3846 18.4451Z" fill="#FEFFFF"/>
<path d="M27.3745 27.0948L29.0966 27.0915C29.1104 27.0915 29.1237 27.0969 29.1336 27.1066C29.1435 27.1163 29.1491 27.1296 29.1494 27.1434L29.1535 27.425C29.1537 27.432 29.1524 27.4389 29.1498 27.4454C29.1472 27.4519 29.1433 27.4579 29.1384 27.4629C29.1335 27.4678 29.1276 27.4718 29.1212 27.4745C29.1147 27.4772 29.1078 27.4786 29.1008 27.4786L26.7812 27.482C26.7672 27.482 26.7537 27.4764 26.7438 27.4665C26.7339 27.4566 26.7284 27.4432 26.7284 27.4292L26.7275 23.6221C26.7275 23.6151 26.7289 23.6082 26.7316 23.6017C26.7343 23.5953 26.7383 23.5894 26.7433 23.5845C26.7483 23.5796 26.7542 23.5757 26.7607 23.5731C26.7672 23.5705 26.7742 23.5692 26.7812 23.5693L27.2605 23.5752C27.2744 23.5754 27.2876 23.5811 27.2973 23.591C27.307 23.6008 27.3125 23.6141 27.3125 23.628L27.3217 27.042C27.3217 27.056 27.3272 27.0694 27.3371 27.0793C27.347 27.0892 27.3605 27.0948 27.3745 27.0948Z" fill="#FEFFFF"/>
<path d="M31.4939 23.9983C31.4542 24.0005 31.4344 24.0215 31.4344 24.0612L31.4352 27.3964C31.4352 27.4183 31.4267 27.4392 31.4115 27.4548C31.3963 27.4703 31.3756 27.4791 31.3539 27.4794L30.9961 27.4836C30.943 27.4841 30.9165 27.4581 30.9165 27.4056L30.9207 23.6774C30.9207 23.6349 30.9419 23.6131 30.9844 23.612C31.3525 23.6047 31.7059 23.6061 32.0445 23.6162C32.5551 23.6318 32.8936 23.8539 33.0601 24.2824C33.1433 24.4952 33.1601 24.7112 33.1104 24.9302C32.9612 25.5863 32.419 25.945 31.7503 25.9475C31.7056 25.9475 31.6836 25.9252 31.6841 25.8805L31.685 25.7229C31.6852 25.6867 31.6994 25.6521 31.7245 25.6263C31.7497 25.6004 31.7839 25.5855 31.8199 25.5846C32.4651 25.567 32.6822 25.0014 32.5364 24.4458C32.4098 23.9648 31.8886 23.9774 31.4939 23.9983Z" fill="#FEFFFF"/>
<path d="M29.6447 27.169C29.6486 27.3694 29.8062 27.5288 29.9969 27.5252C30.1875 27.5215 30.3389 27.3561 30.3351 27.1558C30.3312 26.9554 30.1736 26.7959 29.9829 26.7996C29.7923 26.8033 29.6409 26.9687 29.6447 27.169Z" fill="#FEFFFF"/>
<path d="M33.0715 27.1436C33.062 27.3452 33.2102 27.516 33.4025 27.525C33.5948 27.5341 33.7584 27.378 33.7679 27.1765C33.7775 26.9749 33.6293 26.8042 33.4369 26.7951C33.2446 26.786 33.081 26.9421 33.0715 27.1436Z" fill="#FEFFFF"/>
<circle cx="20" cy="20" r="19.5" stroke="black" stroke-opacity="0.05"/>
</svg>
