<svg width="40" height="40" viewBox="0 0 40 40" fill="none" xmlns="http://www.w3.org/2000/svg">
<circle cx="20" cy="20" r="20" fill="#007FC7"/>
<g clip-path="url(#clip0_9_408902)">
<mask id="mask0_9_408902" style="mask-type:luminance" maskUnits="userSpaceOnUse" x="7" y="6" width="26" height="27">
<path d="M7.28467 6.93066H32.7151V32.3611H7.28467V6.93066Z" fill="white"/>
</mask>
<g mask="url(#mask0_9_408902)">
<path fill-rule="evenodd" clip-rule="evenodd" d="M8.94411 18.0045H11.9687V28.28H8V11.6993H11.9687V14.9814C10.2983 14.9814 8.94411 16.3356 8.94411 18.0045ZM14.9918 18.0045C14.9918 14.1438 18.1229 11.0127 21.9836 11.0127V14.9814C20.3147 14.9814 18.9605 16.3356 18.9605 18.0045H21.9836V21.9732H18.9605V28.28H14.9918V18.0045ZM25.0082 18.0061C25.0082 14.1438 28.1377 11.0143 32 11.0143V14.9814C30.3295 14.9814 28.977 16.3356 28.977 18.0061H32V21.9748H28.977V28.28H25.0082V18.0061Z" fill="white"/>
</g>
</g>
<circle cx="20" cy="20" r="19.5" stroke="black" stroke-opacity="0.05"/>
<defs>
<clipPath id="clip0_9_408902">
<rect width="24" height="17.2927" fill="white" transform="translate(8 11)"/>
</clipPath>
</defs>
</svg>
