<svg width="40" height="40" viewBox="0 0 40 40" fill="none" xmlns="http://www.w3.org/2000/svg">
<circle cx="20" cy="20" r="20" fill="#2A7CC9"/>
<g clip-path="url(#clip0_9_400597)">
<path d="M15.6704 14.2139C14.5357 14.2139 13.6885 14.7462 13.5721 16.1424H12.9286V16.7853H13.5721L13.5715 23.8567H14.8572V16.7853H17.1123C16.2946 17.4809 15.7205 18.746 15.7205 20.015C15.7205 22.121 17.2165 23.7198 19.003 23.7436C20.8075 23.7436 22.3111 22.0008 22.3111 19.88C22.3111 19.6312 22.3471 19.6383 22.3066 19.3979C22.6325 19.9443 23.3313 20.105 24.1619 20.4862C25.1493 20.9234 25.6951 21.3014 25.6951 21.9552C25.6951 22.7407 24.9687 23.066 24.1786 23.0615C23.4059 23.0615 22.9199 22.85 22.25 22.2104V23.3862C22.6615 23.6639 23.2015 23.8554 23.8893 23.8554C24.4165 23.8509 25.2882 23.7063 25.8867 23.1747C26.266 22.841 26.534 22.3377 26.534 21.5997C26.5295 20.9934 26.275 20.5749 25.8867 20.2458C25.5473 19.9597 25.1101 19.7379 24.655 19.5354C23.4663 18.9144 23.0176 18.7859 23.0311 18.0762C23.0311 17.1305 23.7743 16.7853 24.3862 16.7853C24.6498 16.7853 24.8748 16.8412 25.0889 16.9216C25.4907 17.0765 25.652 17.4352 25.7954 17.7779L25.8867 17.9894C25.895 18.0035 25.9002 18.0183 25.9047 18.0279C25.9111 18.0459 25.9085 18.0472 25.9047 18.0376L27.6095 22.436C27.1962 23.4241 26.7134 24.8352 26.2338 25.7853H27.5002C28.3922 23.6627 29.2688 21.5337 30.1302 19.3985C30.3809 20.1037 30.8283 20.078 31.7708 20.5055C32.7537 20.9427 33.313 21.3213 33.313 21.9744C33.313 22.7549 32.5885 23.0654 31.7978 23.0557C30.9987 23.0557 30.3487 22.7587 29.6429 22.0722V23.3212C30.0357 23.6684 30.7242 23.8567 31.4969 23.8567C32.359 23.8567 34.1429 23.5289 34.1429 21.6286C34.1384 20.4907 33.2371 19.9919 32.2638 19.5547C31.0752 18.9344 30.7435 18.7807 30.757 18.0762C30.757 17.1312 31.342 16.7853 31.9501 16.7853C32.771 16.7853 32.8887 17.2636 33.5 17.7342V16.4099C33.005 16.226 32.717 16.1424 32.1539 16.1424C31.0289 16.1424 30.0813 16.6921 29.7483 17.6049L28.2035 21.1992L26.3997 16.4099C26.2209 16.359 26.0409 16.3129 25.8597 16.2717C25.5106 16.1913 24.9629 16.1489 24.655 16.1534C24.61 16.1489 24.7038 16.1534 24.655 16.1534C23.3506 16.1534 21.9916 16.9299 21.9916 18.2934C21.9916 18.3732 21.9961 18.4535 22.0006 18.5236C21.5384 16.8869 20.459 16.1424 19.1502 16.1424H19.1135C18.9657 16.1476 18.823 16.1424 18.6847 16.1424H14.8572C14.8572 15.2997 15.1567 14.8567 15.8086 14.8567C16.6263 14.8567 16.7202 15.1531 17.0731 15.4964H17.1097C17.1097 15.4964 17.1078 15.4514 17.1117 15.3813V14.4402C16.8751 14.327 16.411 14.2139 15.6704 14.2139ZM5.85718 14.2139V23.8567H7.14289V14.2139H5.85718ZM10.9627 16.1424C9.77025 16.1424 9.46875 16.6407 9.07146 17.0919C9.05346 17.1112 9.08496 17.0547 9.07146 17.0919V16.1424H7.78575V23.8567H9.07146V18.3153C9.07146 17.6602 9.73618 16.9962 10.415 16.9962C11.2327 16.9962 11.6429 17.6133 11.6429 18.413V23.8683H12.9286V17.9424C12.9286 17.261 12.1064 16.1424 10.9627 16.1424ZM19.0049 16.9364C20.333 16.9364 20.9527 18.2394 20.9785 19.9366C21.0061 21.662 20.236 23.0384 19.003 23.0615C17.7925 23.0474 17.0667 21.7173 17.0358 20.015C17.0082 18.2941 17.7192 16.9364 19.0049 16.9364Z" fill="white"/>
</g>
<circle cx="20" cy="20" r="19.5" stroke="black" stroke-opacity="0.05"/>
<defs>
<clipPath id="clip0_9_400597">
<rect width="30" height="12" fill="white" transform="translate(5 14)"/>
</clipPath>
</defs>
</svg>
