<svg width="40" height="40" viewBox="0 0 40 40" fill="none" xmlns="http://www.w3.org/2000/svg">
<circle cx="20" cy="20" r="20" fill="#FF6600"/>
<g clip-path="url(#clip0_9_412085)">
<path fill-rule="evenodd" clip-rule="evenodd" d="M30.8868 19.3445C30.9766 19.554 31.0586 19.7719 31.1321 19.999C31.5255 21.2206 31.6651 22.6559 31.3992 23.9382C31.3427 24.2114 31.2681 24.4755 31.1739 24.7311C31.0471 25.1439 30.8509 25.4882 30.6032 25.8573C30.3169 26.2789 29.975 26.66 29.5869 26.9903C29.2155 27.2651 28.7929 27.463 28.3439 27.5722C27.895 27.6815 27.4287 27.7 26.9725 27.6265C26.794 27.8014 26.5669 27.8293 26.3399 27.8573C26.2873 27.8636 26.2349 27.8709 26.1826 27.8791H23.6903C23.6721 27.7832 23.7 27.717 23.7286 27.649C23.7607 27.5851 23.7766 27.5141 23.7747 27.4426C23.8069 27.2568 23.8579 27.0273 24.0509 26.972C24.0525 26.9701 24.0541 26.9683 24.0558 26.9666C24.0607 26.9623 24.0643 26.9587 24.0619 26.9532C24.1238 27.1275 24.2015 27.3157 24.295 27.4869C24.4213 27.4122 24.4911 27.2677 24.5051 27.1202C24.4796 26.9569 24.3691 26.8275 24.2525 26.7049L24.2179 26.694C24.2768 26.6484 24.3151 26.5847 24.3533 26.5185C24.3812 26.4718 24.4086 26.4244 24.445 26.3825L24.4881 26.4329C24.5701 26.53 24.6666 26.6448 24.7917 26.598L24.7996 26.5944C24.8481 26.5725 24.9137 26.5422 24.9167 26.4718C24.9107 26.4627 24.9088 26.4505 24.9064 26.439C24.9028 26.4189 24.8997 26.3989 24.8748 26.394C24.8062 26.3479 24.7401 26.2769 24.6727 26.204C24.5087 26.0267 24.3381 25.8434 24.1098 26.0085C23.8129 26.3534 23.561 26.731 23.4984 27.1827L23.4383 27.8797C23.3792 27.878 23.32 27.88 23.2611 27.8858C23.1726 27.8978 23.0829 27.8958 22.9951 27.8797C23.0133 27.7304 23.0048 27.581 22.9957 27.4317C22.9848 27.2513 22.9739 27.0704 23.0127 26.8901C23.0662 26.8707 23.1123 26.9144 23.1584 26.9581C23.1815 26.9799 23.2052 27.0018 23.2295 27.017C23.2398 27.0382 23.272 27.0382 23.2823 27.017C23.2947 26.9787 23.3131 26.9426 23.3369 26.9101C23.3813 26.8433 23.4256 26.7753 23.3734 26.6946C23.343 26.6157 23.2732 26.5489 23.2064 26.4857C23.1852 26.4663 23.1645 26.4469 23.1457 26.4274C23.1633 26.3382 23.2137 26.2611 23.2647 26.1846C23.2855 26.1539 23.3054 26.1225 23.3242 26.0905C23.3418 26.0929 23.3442 26.1026 23.3467 26.1142C23.3481 26.1215 23.351 26.1285 23.3552 26.1348C23.3815 26.1632 23.4145 26.1846 23.4512 26.1969C23.4879 26.2092 23.5271 26.2121 23.5652 26.2052C23.5725 26.2022 23.5828 26.201 23.5938 26.1992C23.6308 26.1931 23.6769 26.1858 23.6423 26.1348C23.6369 26.1103 23.6279 26.0868 23.6156 26.065C23.5938 26.0207 23.5731 25.9769 23.6071 25.9387C23.6581 25.9193 23.7164 25.9363 23.7741 25.9533C23.8591 25.9782 23.9429 26.0024 23.9975 25.9095C24.0061 25.8939 24.0137 25.8777 24.02 25.861C23.7996 25.7207 23.5756 25.5799 23.2823 25.6643C23.1761 25.6491 23.1244 25.7225 23.0716 25.7978C23.0431 25.8391 23.0133 25.881 22.9745 25.9095C22.9623 25.9178 22.9495 25.9251 22.9362 25.9314C22.7723 25.901 22.6035 25.9272 22.4408 25.9514C22.3406 25.9666 22.2429 25.9818 22.15 25.983L21.7025 26.7055C21.7056 26.768 21.7049 26.836 21.7043 26.9059C21.7025 27.0977 21.7007 27.3054 21.7723 27.4687C21.8598 27.6089 21.9332 27.7273 21.9964 27.8797H17.2084C17.2783 27.717 17.4149 27.55 17.526 27.4244C17.5351 27.4578 17.5661 27.4699 17.597 27.4814C17.6143 27.4872 17.6306 27.4954 17.6456 27.5057L17.9807 27.5762L18.0354 27.5561C18.1343 27.5191 18.2357 27.4814 18.3159 27.4055C18.2192 27.3531 18.1199 27.3056 18.0184 27.2635C17.9071 27.2177 17.7988 27.165 17.6942 27.1056C17.6984 27.051 17.7063 26.9939 17.7136 26.9344C17.7446 26.6928 17.7804 26.4226 17.6031 26.2495C17.5132 26.1767 17.4009 26.1573 17.2892 26.1372C17.254 26.1312 17.2182 26.1251 17.1836 26.1166C17.019 26.1761 16.8338 26.2574 16.7464 26.4384C16.6171 26.2981 16.4732 26.1682 16.3032 26.1166C16.3081 26.0498 16.3202 25.9806 16.3336 25.9102L16.339 25.8816C16.3499 25.8239 16.3609 25.7663 16.3694 25.7092C16.5728 25.5853 16.8059 25.6655 17.0239 25.7395C17.087 25.7614 17.1489 25.782 17.2084 25.7984C17.2327 25.7984 17.2558 25.8045 17.2783 25.8106C17.3111 25.8191 17.3432 25.8276 17.376 25.8173C17.3851 25.7924 17.3687 25.7802 17.3505 25.7669C17.3341 25.7547 17.3165 25.742 17.3165 25.7171C17.0718 25.3285 16.6426 25.2836 16.2091 25.3431C16.1296 25.351 16.084 25.4311 16.0427 25.5034C15.9881 25.5993 15.9407 25.6819 15.8308 25.5653C15.7501 25.5422 15.6742 25.5695 15.5965 25.5969C15.5377 25.6216 15.475 25.636 15.4113 25.6394L15.1284 25.7547C15.098 25.8057 15.0689 25.8579 15.0397 25.9108C14.8964 26.1737 14.7683 26.445 14.6427 26.7134C14.6469 26.7911 14.6408 26.8749 14.6348 26.9587C14.6214 27.1396 14.6081 27.3254 14.6985 27.4693C14.7617 27.6065 14.8461 27.7662 14.9365 27.8803H8.76066C8.54391 27.5725 8.41155 27.1566 8.48502 26.7565C8.53662 26.5786 8.62102 26.4007 8.77827 26.286C8.7722 26.1585 8.79162 26.0419 8.83291 25.9338C8.89362 25.7796 9.00048 25.6473 9.1377 25.5374C9.33016 25.4008 9.58212 25.3564 9.82741 25.4044C10.1024 25.0972 10.5396 25.0122 10.9178 25.1452C11.0089 25.1858 11.0951 25.2302 11.1759 25.2903C11.2906 25.0523 11.3556 24.7924 11.4206 24.5325C11.4685 24.3401 11.5165 24.1476 11.5845 23.9637C11.6045 23.912 11.6252 23.8617 11.6476 23.8119C11.7114 23.671 11.7666 23.5223 11.8225 23.3729C11.9075 23.1446 11.9925 22.9139 12.1097 22.7063C11.8261 21.8805 11.5784 21.0142 11.4218 20.1362C11.4314 20.0844 11.4559 20.0366 11.4922 19.9984C11.5244 19.9639 11.5602 19.9329 11.5991 19.9061C11.6699 19.7291 11.7282 19.5473 11.7733 19.3621C11.7308 19.3682 11.6889 19.3913 11.6458 19.4155C11.6088 19.4368 11.5705 19.4587 11.5292 19.4696C11.5122 19.4981 11.4916 19.5242 11.4716 19.5515C11.4308 19.5977 11.3998 19.6516 11.3805 19.71C11.3447 19.6979 11.3319 19.6335 11.3204 19.5758C11.3179 19.5631 11.3155 19.5503 11.3125 19.5394C11.3148 19.4553 11.3066 19.3713 11.2882 19.2893C11.2578 19.1217 11.2275 18.9541 11.3617 18.8284L11.5644 18.6512C11.5675 18.5085 11.5821 18.3688 11.5966 18.2298L11.6063 18.1363H11.5711C11.5408 18.1667 11.5043 18.1958 11.4667 18.2255C11.3738 18.2996 11.2761 18.3773 11.253 18.4915H11.236L11.2287 17.7362C11.2554 17.7137 11.2864 17.6931 11.3186 17.6712C11.3653 17.6397 11.4139 17.6069 11.4558 17.5656C11.4242 16.721 11.4801 15.8953 11.6968 15.151C11.7411 15.0295 11.8164 14.9251 11.8911 14.8213C11.9293 14.7691 11.967 14.7169 12.0004 14.6622C12.0034 14.61 12.0046 14.5572 12.0064 14.5044C12.0113 14.3441 12.0156 14.185 12.0496 14.0399C12.1151 13.9986 12.1771 13.9415 12.239 13.8845C12.2997 13.828 12.3616 13.7709 12.4272 13.729C12.3835 13.6902 12.3161 13.6823 12.2511 13.6744C12.2287 13.672 12.2068 13.6695 12.1862 13.6653C12.3015 13.3326 12.5462 13.0539 12.7872 12.8032L12.8224 12.7734C12.9184 12.6945 13.0131 12.6155 13.1224 12.573C13.1564 12.5694 13.1764 12.5913 13.1971 12.6143L13.2068 12.6247C13.3045 12.635 13.3992 12.6574 13.4927 12.6805C13.6324 12.7145 13.7708 12.7479 13.9189 12.7388C13.8388 12.6022 13.6986 12.4656 13.5346 12.4656L13.565 12.4474C13.786 12.3466 13.9378 12.2798 14.1758 12.2318C14.1952 12.3484 14.2674 12.4431 14.3397 12.5372C14.3956 12.6101 14.4514 12.6829 14.4818 12.7655L14.6257 12.8912C14.6205 12.8223 14.6193 12.7532 14.622 12.6842C14.6257 12.4826 14.6293 12.2713 14.4617 12.1426C14.4514 12.0946 14.5042 12.1062 14.5285 12.1171C14.7938 12.2318 15.0555 12.3836 15.3038 12.536C15.3372 12.5178 15.3712 12.5008 15.4058 12.4826C15.5273 12.4194 15.6517 12.3551 15.7744 12.3065C15.7568 12.3863 15.7363 12.4655 15.7131 12.5439C15.6645 12.7175 15.6123 12.9009 15.6141 13.0946C15.6809 13.0436 15.7355 12.9665 15.792 12.8869C15.8296 12.8335 15.8679 12.7795 15.911 12.7315C15.9049 12.6234 15.9626 12.5312 16.0191 12.4419C16.0518 12.3909 16.0834 12.3399 16.1028 12.2877C16.2886 12.2318 16.5892 12.1948 16.7707 12.2877C16.6007 12.3168 16.6068 12.4522 16.6128 12.5761L16.6147 12.6174L16.6317 12.6313C16.7749 12.5979 16.9765 12.5397 17.0882 12.4207C17.2813 12.454 17.4076 12.4838 17.5618 12.6058C17.5413 12.6162 17.5206 12.6263 17.4999 12.6362C17.3797 12.6939 17.2467 12.7576 17.1666 12.8839C17.3852 12.8785 17.6034 12.8598 17.8198 12.828L17.9146 12.7655C18.413 13.0952 18.6055 13.6477 18.7888 14.1741L18.8447 14.3319C18.8093 14.323 18.7752 14.3096 18.7433 14.2919C18.7014 14.2706 18.6583 14.2494 18.6097 14.2433L18.6201 14.2913C18.6401 14.3945 18.6644 14.522 18.7846 14.5542C18.9091 14.5675 18.9631 14.6604 19.0196 14.7569C19.0408 14.7934 19.0627 14.831 19.0888 14.865C19.1713 14.9512 19.2673 15.0271 19.362 15.1024C19.5496 15.2499 19.736 15.3981 19.8264 15.6282C19.994 15.9214 20.059 16.2608 20.1239 16.5996C20.1622 16.8036 20.2017 17.0088 20.2636 17.2025C20.215 17.1339 20.1337 17.1127 20.0511 17.0902C19.9728 17.0695 19.8926 17.0483 19.8337 16.987C19.8538 17.1467 19.9412 17.3209 20.0778 17.4174C20.1592 17.4636 20.2442 17.4988 20.3304 17.534C20.3698 17.5504 20.4093 17.5668 20.4488 17.5844C20.5848 17.8358 20.637 18.1211 20.6825 18.4101C20.586 18.3444 20.4818 18.2908 20.3723 18.2504L20.3541 18.2687C20.3686 18.5091 20.5289 18.7137 20.7244 18.8212C20.7281 18.9329 20.7329 19.0379 20.7378 19.1423C20.7414 19.2273 20.7457 19.3123 20.7487 19.3985C21.0887 19.6882 21.5368 19.9401 21.98 19.9984C22.0644 20.0099 22.1512 20.0142 22.2411 20.0099C22.2945 20.0099 22.3479 19.9984 22.4007 19.9875C22.4396 19.979 22.4778 19.9711 22.5161 19.9674C22.8757 19.9407 23.2223 19.8219 23.5227 19.6226C23.4948 19.3597 23.5749 19.1193 23.7674 18.9414C24.0364 18.6269 24.4772 18.6445 24.8336 18.7447C25.4152 18.9742 25.8687 19.435 26.2336 19.9674C26.5396 20.4143 26.7825 20.9115 26.9865 21.3681C27.3058 22.1623 27.4783 22.9892 27.5147 23.9084L27.5159 23.9412L27.5183 23.9898C27.5499 24.7228 27.4837 25.4568 27.3216 26.1724C27.3113 26.2301 27.355 26.2489 27.3951 26.2672C27.4086 26.2726 27.4216 26.2794 27.4339 26.2872C28.1006 26.4815 28.7472 26.2908 29.2718 25.8579C29.4381 25.7213 29.5917 25.5604 29.7302 25.3801C30.0969 24.9545 30.3252 24.4621 30.5328 23.9394C30.9232 22.6838 30.8491 21.2024 30.4599 19.9984C30.4387 19.9334 30.4174 19.8697 30.3944 19.8059C29.9293 18.4878 28.8601 17.0981 27.6076 16.4909C27.3659 16.4466 27.1346 16.4837 26.9015 16.5207C26.6434 16.562 26.3836 16.6033 26.1061 16.5353C25.7388 16.4199 25.3794 16.2268 25.1171 15.9008L25.1268 15.868C25.3332 15.8947 25.5287 15.9451 25.7145 16.0277C25.7182 15.9761 25.6933 15.9305 25.6672 15.8844C25.6471 15.8468 25.6259 15.8091 25.6198 15.7678C25.8369 15.7064 26.0593 15.6656 26.284 15.6458C26.2069 15.4679 26.0533 15.4558 25.9003 15.4436C25.8044 15.4357 25.7084 15.4278 25.6307 15.3799C25.609 15.3783 25.5873 15.3757 25.5658 15.372C25.5117 15.3641 25.4571 15.3556 25.4103 15.3799C25.4164 15.4133 25.4286 15.4448 25.4401 15.4764C25.4589 15.5298 25.4783 15.5833 25.4765 15.6458C25.4122 15.6634 25.3496 15.6409 25.2859 15.6179C25.2416 15.6021 25.1972 15.5857 25.1517 15.5827C25.1253 15.5842 25.0988 15.5825 25.0728 15.5778C25.0181 15.5693 24.9623 15.5614 24.9246 15.6094C24.8517 15.5036 24.7877 15.3919 24.7334 15.2754C24.6144 15.0387 24.4936 14.797 24.2361 14.6756L24.2471 14.6392C24.428 14.5906 24.6053 14.5274 24.7826 14.4643C25.2185 14.3089 25.6568 14.1528 26.1583 14.2129L26.1851 14.219C26.2537 14.2348 26.3235 14.2506 26.3854 14.2834L26.2002 14.4607C26.3678 14.6276 26.5603 14.7648 26.8049 14.7575L26.8189 14.7387C26.8031 14.6246 26.7473 14.5274 26.6914 14.4303L26.6683 14.3908C26.8523 14.4236 26.9986 14.5736 27.1413 14.7199C27.1771 14.7569 27.2129 14.794 27.2488 14.828C27.5766 15.4424 28.1109 16.0368 28.6932 16.4211C29.7253 17.1035 30.3944 18.2668 30.8868 19.3445ZM15.0932 26.8731C15.1314 26.847 15.1757 26.8269 15.2213 26.8063C15.3378 26.7529 15.4581 26.6982 15.4805 26.5434L15.4423 26.5112C15.4065 26.4737 15.3621 26.4453 15.3129 26.4287L15.1697 26.4724C15.1763 26.4135 15.1994 26.3491 15.2219 26.2842C15.2334 26.252 15.2449 26.2198 15.2541 26.1876L15.7155 26.0285C15.6517 26.2508 15.6274 26.5282 15.6062 26.7838C15.6487 27.1621 15.7009 27.5658 15.8824 27.8803H15.3858C15.3646 27.7449 15.299 27.6241 15.234 27.5027C15.1308 27.3127 15.0282 27.122 15.0932 26.8731ZM16.166 26.4287H16.1933L16.5284 26.7504L16.577 26.7395C16.5487 27.1194 16.5326 27.5 16.5284 27.8809H16.1654C16.147 27.7916 16.1273 27.7026 16.1065 27.6138C16.0409 27.3284 15.9729 27.0334 15.9832 26.7328C16.0063 26.6964 16.0257 26.6569 16.0458 26.6175C16.081 26.5477 16.1162 26.4778 16.166 26.4287ZM16.9656 26.6928C16.9492 26.7255 16.9328 26.7577 16.9134 26.7844L16.7877 27.8809H17.1411C17.2176 27.6472 17.3019 27.3885 17.3511 27.1402C17.3602 27.1068 17.373 27.071 17.3857 27.034C17.4343 26.8931 17.4896 26.7359 17.393 26.6072C17.3226 26.5361 17.2352 26.5209 17.1404 26.5185C17.0463 26.5307 17.0051 26.6132 16.9656 26.6928ZM22.2156 26.6691C22.2447 26.7092 22.2666 26.7541 22.2884 26.7996C22.3242 26.8737 22.3607 26.949 22.4323 27.006C22.5337 26.8585 22.558 26.6284 22.5088 26.4396L22.408 26.3321C22.4856 26.3139 22.564 26.2996 22.643 26.289C22.697 26.2805 22.7504 26.2726 22.8027 26.2623C22.7869 26.3175 22.7674 26.3716 22.7474 26.4262C22.697 26.5634 22.6466 26.7013 22.6594 26.8658C22.6618 27.0844 22.6849 27.3029 22.7086 27.5252C22.7207 27.6423 22.7334 27.7607 22.7432 27.8803H22.3588L22.3431 27.8439C22.2089 27.5306 22.0796 27.2295 22.0893 26.8658C22.1032 26.8445 22.1148 26.8221 22.1269 26.799C22.1489 26.751 22.1789 26.7071 22.2156 26.6691ZM17.5193 16.2954C17.6031 16.2772 17.7045 16.2548 17.7713 16.1619C17.7913 16.2226 17.7755 16.2906 17.7573 16.3543C17.7498 16.3764 17.743 16.3987 17.7367 16.4211C17.7792 16.6452 17.6304 16.817 17.4962 16.9718C17.4756 16.9961 17.4549 17.0192 17.4355 17.0428C17.3687 17.31 17.1702 17.6172 16.8903 17.6652C16.8859 17.7052 16.8944 17.7456 16.9146 17.7805C17.4914 17.7872 18.019 17.9687 18.5011 18.2425L18.5083 18.5091C18.0441 18.2172 17.5146 18.0455 16.9674 18.0094C16.9644 18.0999 16.9492 18.1824 16.934 18.2656L16.9249 18.3136C17.3936 18.5243 17.8441 18.7944 18.2497 19.1757L18.2333 19.4878L18.1835 19.4435C17.7713 19.0749 17.3396 18.6882 16.8411 18.5085V18.5097C16.7713 18.6172 16.6954 18.7355 16.5971 18.8388C16.3068 18.6427 16.013 18.4617 15.6809 18.3755C15.5582 18.4047 15.5352 18.2917 15.5157 18.1982C15.5128 18.1834 15.5096 18.1686 15.506 18.1539L15.4823 17.939C15.6742 17.8795 15.7689 17.6761 15.8242 17.4945L15.8393 17.5012C15.9061 17.534 15.9869 17.5735 16.0585 17.5316C16.1192 17.4891 16.1253 17.4241 16.1314 17.3585L16.1362 17.3173C16.0731 17.089 15.8387 17.0641 15.6396 17.0434C15.6056 17.0398 15.5728 17.0362 15.5412 17.0313C15.2547 17.0094 14.9608 17.0173 14.7337 17.1655C14.6791 17.2086 14.6888 17.2863 14.6973 17.3531C14.6997 17.3713 14.7022 17.3895 14.7028 17.4053C14.7271 17.4648 14.7799 17.48 14.8351 17.4945C14.8999 17.4914 14.9631 17.474 15.0203 17.4435C15.0148 17.5393 15.0361 17.6346 15.0818 17.7189C15.1275 17.8032 15.1958 17.8731 15.2789 17.9208C15.2917 17.9177 15.2996 17.9256 15.3063 17.9329C15.3086 17.9351 15.311 17.9371 15.3136 17.939L15.2547 18.2765C15.2043 18.3749 15.1089 18.387 15.0124 18.3986C14.9505 18.4017 14.89 18.4183 14.8351 18.4472C14.5895 18.5142 14.3568 18.6217 14.1466 18.7653C14.027 18.6955 13.9323 18.5771 13.8418 18.4648L13.8279 18.4465C13.4757 18.5838 13.1539 18.795 12.8467 19.0434L12.528 19.3166C12.5106 19.2445 12.5049 19.1701 12.511 19.0962C12.5126 19.0551 12.5126 19.014 12.511 18.9729C12.766 18.7028 13.0714 18.5577 13.3768 18.4125C13.4982 18.3549 13.619 18.2972 13.7368 18.2322L13.7198 17.9129C13.6081 17.8801 13.4812 17.8947 13.3592 17.908C13.3167 17.9129 13.2742 17.9177 13.2335 17.9202C12.8668 17.9912 12.5353 18.1503 12.2274 18.3652C12.2299 18.3348 12.2287 18.3002 12.2274 18.265C12.2232 18.1703 12.2189 18.0713 12.3003 18.0282C12.7374 17.7653 13.2232 17.6214 13.769 17.6397C13.7802 17.5944 13.7737 17.5466 13.7508 17.5061C13.738 17.4806 13.7319 17.4502 13.7259 17.4199C13.7137 17.3628 13.7028 17.3057 13.6427 17.2839C13.394 17.0313 13.2327 16.7058 13.1825 16.3549L13.1819 16.3531V16.3513L13.1843 16.3531L13.1855 16.3543H13.1867C13.208 16.3683 13.2353 16.3665 13.262 16.3659C13.2691 16.3655 13.2762 16.3653 13.2833 16.3653C13.2833 16.3653 13.2948 16.3555 13.2948 16.3543C13.2948 16.3555 13.3003 16.3501 13.3003 16.3501C13.1991 15.9656 13.1991 15.5615 13.3003 15.1771C13.0878 15.0799 12.8358 14.8911 12.7551 14.6507C12.664 14.4904 12.5875 14.3247 12.5626 14.1358C12.6439 13.9063 12.7629 13.695 12.888 13.4874C12.9305 13.4607 12.9773 13.4461 13.024 13.4309C13.055 13.4212 13.0859 13.4115 13.1151 13.3988L13.1843 13.3502C13.3324 13.2427 13.4915 13.128 13.6846 13.2209C13.7514 13.236 13.8157 13.2597 13.8801 13.2834C13.9566 13.3119 14.0331 13.3399 14.1144 13.3544C14.1144 13.4358 14.1314 13.5287 14.2116 13.5584C14.3609 13.5852 14.4247 13.7187 14.4884 13.8529C14.5218 13.9227 14.5552 13.9925 14.6008 14.0472C14.6566 14.0927 14.7331 14.0915 14.8133 14.0909C14.8618 14.0897 14.9122 14.0891 14.9602 14.0994C15.0009 14.1115 15.0422 14.1225 15.0834 14.1328C15.2146 14.1668 15.3445 14.2002 15.4568 14.2882C15.7325 14.0806 16.1065 14.0393 16.4526 14.0915C16.4805 13.9701 16.5236 13.8517 16.5655 13.7394L16.5958 13.6544C16.6414 13.6562 16.6505 13.6277 16.659 13.5973C16.6675 13.5694 16.676 13.5396 16.7142 13.5323L16.7938 13.4765C16.9577 13.3593 17.1356 13.2312 17.3584 13.3107C17.4276 13.3447 17.5053 13.3642 17.5831 13.383C17.7227 13.4176 17.8636 13.4528 17.9558 13.5773L17.9455 13.5845C18.0591 13.6932 18.1167 13.8323 18.1744 13.9719C18.209 14.0557 18.2442 14.1395 18.291 14.2178C18.2582 14.3101 18.2485 14.4139 18.2394 14.5177C18.2218 14.7078 18.2048 14.8978 18.0396 15.0174L17.8478 15.1953L17.8544 15.2032C17.8059 15.2323 17.7524 15.2487 17.7002 15.2651C17.6736 15.2732 17.6473 15.2821 17.6213 15.2918C17.7367 15.6136 17.6662 16.0107 17.5193 16.2954ZM12.1018 15.4879L12.378 15.3179V14.8844C12.3021 14.933 12.2487 15.004 12.1959 15.0751C12.1679 15.1121 12.14 15.1498 12.1084 15.1844L12.1018 15.4879ZM12.1686 17.3106L11.9658 16.6439C11.9724 16.4399 12.0423 16.2693 12.1261 16.0993L12.4442 15.9955L12.2942 16.2323C12.3137 16.4412 12.2736 16.6288 12.2335 16.8176C12.2001 16.9773 12.1673 17.1375 12.1686 17.3106ZM23.8512 19.6523C23.8605 19.62 23.8666 19.5869 23.8694 19.5534C23.9258 19.4456 24.0057 19.3518 24.1032 19.2789C24.1287 19.2771 24.1566 19.2723 24.1869 19.2668C24.278 19.2498 24.3824 19.2304 24.4565 19.2972C24.4753 19.4726 24.5992 19.469 24.7267 19.4653C24.7811 19.4609 24.836 19.4644 24.8894 19.4757C24.9368 19.5412 24.9732 19.6153 25.0102 19.69C25.0357 19.7428 25.0618 19.7956 25.0922 19.846C25.0436 19.8339 24.9951 19.8205 24.9465 19.8072C24.7024 19.7404 24.4535 19.673 24.1942 19.6979C24.159 19.7118 24.1202 19.7209 24.0819 19.7307C23.9993 19.7501 23.9162 19.7707 23.8585 19.8387C23.819 19.7841 23.8354 19.7179 23.8518 19.6517L23.8512 19.6523ZM14.4575 19.6475L14.6669 19.4332C14.6852 19.4332 14.6991 19.4368 14.7094 19.4514L14.6918 19.8624C14.7932 19.962 14.9183 19.9948 15.0513 20.0033C15.0586 19.9298 15.0956 19.8703 15.1338 19.8114C15.1533 19.781 15.1727 19.7507 15.1879 19.7179C15.2013 19.686 15.2099 19.6522 15.2134 19.6177C15.2225 19.5607 15.2316 19.5042 15.2783 19.4702L15.3032 19.4957C15.3105 19.5345 15.3154 19.5746 15.3196 19.6147C15.3293 19.7021 15.3391 19.7889 15.3803 19.8624L15.3986 20.0099L15.404 20.0476C15.5576 20.0549 15.6979 20.0105 15.8169 19.9504C15.8153 19.8629 15.8264 19.7756 15.8497 19.6912C15.8594 19.6499 15.8685 19.6092 15.8752 19.5667C15.8885 19.5485 15.8849 19.5242 15.8812 19.5024C15.8764 19.4702 15.8721 19.4417 15.9243 19.4441C15.9474 19.4957 15.979 19.5491 16.0112 19.6025C16.047 19.6633 16.084 19.7252 16.1101 19.7883C16.3123 19.5698 16.3973 19.285 16.4453 18.9881C16.4088 18.9371 16.3621 18.9171 16.3147 18.897C16.2827 18.8848 16.2525 18.8682 16.2249 18.8479C15.6305 18.6445 14.8691 18.6038 14.296 18.9183C14.2577 19.169 14.3063 19.4465 14.4575 19.6475ZM8.91366 27.3467C8.89787 27.0959 8.8827 26.8549 8.90152 26.5987L9.28584 26.1415C9.50623 26.2896 9.56634 26.5756 9.52445 26.8197C9.43576 26.7664 9.34225 26.7217 9.24516 26.6861C9.16016 26.8215 9.17534 26.9775 9.19052 27.1378C9.20145 27.2416 9.21177 27.3473 9.19537 27.4505L9.17837 27.6399C9.07698 27.6332 8.97498 27.5258 8.91912 27.4335L8.91366 27.3467ZM9.76487 26.1979C9.62887 26.6314 9.52748 27.1651 9.69202 27.6223L9.73209 27.5938C9.81345 27.5361 9.89602 27.4784 9.96766 27.3995L9.96159 27.2914C9.94337 26.9757 9.92516 26.6503 10.1006 26.3898C10.2712 26.4457 10.3872 26.6205 10.4528 26.7899C10.5693 26.6345 10.607 26.4195 10.5621 26.2131C10.5669 26.105 10.4922 26.0844 10.4163 26.0644C10.3781 26.0534 10.3386 26.0431 10.3101 26.02C10.3156 25.9945 10.3192 25.9684 10.3234 25.9423C10.3417 25.827 10.3599 25.7098 10.471 25.646L10.0521 25.6904L10.0017 25.765C9.90877 25.9029 9.81587 26.0407 9.76487 26.1979ZM10.6379 27.5239C10.6367 27.5075 10.6349 27.4905 10.6282 27.4778C10.6422 26.9739 10.6768 26.5052 10.8893 26.0911C10.9678 25.9955 11.0644 25.9165 11.1736 25.8586C11.2829 25.8006 11.4025 25.7649 11.5256 25.7535L11.7357 25.8312L11.5851 26.0358C11.7539 26.139 12.0119 26.3024 11.9797 26.5543L11.9561 26.765L11.9403 26.7917C11.8103 27.0188 11.6871 27.2337 11.5092 27.4335H11.4849C11.474 27.272 11.5049 27.1311 11.5365 26.9866C11.5553 26.898 11.5754 26.8087 11.5851 26.7134C11.5869 26.6994 11.5972 26.6861 11.6063 26.6739C11.6221 26.6533 11.6367 26.6339 11.6106 26.6132C11.5499 26.6046 11.4913 26.5851 11.4376 26.5555C11.3768 26.527 11.3155 26.4979 11.2433 26.4979C11.1813 26.541 11.1583 26.6072 11.1358 26.6721C11.1212 26.7134 11.1073 26.7547 11.083 26.7899C11.0344 26.8931 10.9694 26.9866 10.9057 27.0789C10.8001 27.2319 10.6962 27.3837 10.6634 27.578C10.6422 27.5731 10.6398 27.5494 10.6379 27.5239ZM11.5687 25.2793C11.6069 25.2915 11.6428 25.2824 11.6792 25.2733C11.7199 25.2629 11.7599 25.2526 11.8024 25.272L11.8128 25.2757C12.1315 25.4008 12.4624 25.5307 12.701 25.8124L12.9876 26.5865L13.1309 26.1081L13.0368 25.85C12.9645 25.6849 12.7818 25.6788 12.6361 25.674C12.6191 25.674 12.6021 25.6728 12.5857 25.6722C12.5371 25.6151 12.565 25.5525 12.5899 25.4943C12.5978 25.476 12.6051 25.459 12.6099 25.4427C12.6603 25.2617 12.5322 25.2119 12.4078 25.1634C12.3537 25.1464 12.3028 25.1205 12.2572 25.0869C12.2627 24.9667 12.1601 24.9691 12.0653 24.9709C12.037 24.9723 12.0086 24.9715 11.9803 24.9685L11.9463 24.9242C11.9251 24.8902 11.8735 24.8902 11.8443 24.9163C11.8431 24.9132 11.8407 24.9102 11.8383 24.9084C11.8322 24.9005 11.8261 24.8932 11.831 24.8798L11.7545 24.898C11.699 24.9455 11.6539 25.0038 11.6219 25.0694C11.59 25.135 11.5719 25.2064 11.5687 25.2793ZM11.8443 24.5532C11.8079 24.5196 11.7825 24.4758 11.7715 24.4275C11.8279 24.385 11.8668 24.3182 11.9051 24.2514C11.97 24.1391 12.0326 24.0298 12.1813 24.0541C12.307 24.0827 12.4254 24.116 12.5341 24.1792C12.6373 24.2035 12.7041 24.2812 12.7727 24.3607C12.8091 24.402 12.8449 24.4439 12.8868 24.4791C12.9633 24.5544 13.0489 24.6078 13.1339 24.6613C13.2165 24.7123 13.2984 24.7639 13.3719 24.8349C13.3707 24.879 13.382 24.9225 13.4044 24.9604C13.4269 24.9983 13.4596 25.0291 13.4988 25.0492C13.6615 25.0602 13.6779 25.1962 13.6943 25.3297C13.701 25.3856 13.7077 25.4408 13.7247 25.4864L13.4739 25.8415C13.4326 25.779 13.4199 25.7043 13.4071 25.629C13.3901 25.5264 13.3725 25.4238 13.2821 25.3528C13.2939 25.3254 13.3092 25.2997 13.3276 25.2763C13.3628 25.2277 13.398 25.1792 13.3719 25.1124C13.3385 25.0529 13.2875 25.0389 13.2365 25.0243C13.2238 25.0207 13.2104 25.017 13.1977 25.0122L13.0963 25.0304C12.817 24.9138 12.5753 24.6892 12.3434 24.473L12.3337 24.4645C12.2019 24.4129 12.086 24.4603 11.9718 24.507C11.9293 24.524 11.8868 24.5417 11.8443 24.5532ZM12.1072 23.6977L12.1485 23.7694C12.2287 23.7633 12.3052 23.7439 12.3804 23.7244C12.4703 23.7008 12.5589 23.6777 12.6518 23.6795C12.7132 23.7196 12.7854 23.7366 12.8571 23.7536C12.919 23.7688 12.9809 23.7839 13.0362 23.8131L13.0526 23.8368C13.1424 23.9679 13.2402 24.11 13.3713 24.198C13.6548 24.2423 13.8115 24.5653 13.9092 24.8015V24.6874C13.9511 24.5277 13.9056 24.3419 13.8509 24.198C13.8115 24.1567 13.7629 24.1233 13.7143 24.0905C13.6763 24.0662 13.64 24.0392 13.6057 24.0098C13.5929 23.9655 13.6002 23.943 13.6123 23.9054L13.616 23.8944C13.5456 23.8149 13.4521 23.7584 13.3598 23.7026C13.31 23.6722 13.2602 23.6425 13.2141 23.6091C13.0847 23.4093 12.8722 23.3881 12.6591 23.3662C12.5668 23.3565 12.4752 23.3474 12.3896 23.3237L12.1072 23.6977ZM12.1916 21.3633C12.1669 21.2345 12.1368 21.1069 12.1012 20.9808C12.1218 20.8976 12.1941 20.8302 12.2621 20.7683C12.2839 20.7476 12.3058 20.7276 12.3246 20.7075V20.7148C12.4327 20.7367 12.5547 20.7707 12.6524 20.8411C12.5966 20.903 12.5377 20.9565 12.4806 21.0075C12.3653 21.1119 12.2566 21.209 12.1916 21.3627V21.3633ZM12.7356 22.1999L12.8923 22.0299C13.0501 21.8587 13.1801 21.662 13.2037 21.444C13.092 21.3742 12.9451 21.4222 12.837 21.4628C12.8273 21.5266 12.8158 21.5897 12.8036 21.6535C12.7714 21.8295 12.7381 22.0087 12.7356 22.1999ZM12.97 22.7318C12.9305 22.7281 12.8911 22.7245 12.851 22.7227C13.1454 22.5703 13.4035 22.2697 13.5328 21.9668C13.5723 21.951 13.6136 21.9595 13.6548 21.968C13.6761 21.9722 13.6973 21.9765 13.7186 21.9777L13.5225 22.6437C13.3586 22.7652 13.1685 22.7482 12.97 22.7318ZM12.9226 20.359C13.0799 20.6037 13.3422 20.8769 13.6105 20.9553C13.5905 20.7543 13.4788 20.5934 13.3664 20.4331C13.3057 20.3451 13.2444 20.257 13.1983 20.1629L13.1916 20.0743C13.0947 19.9807 12.9837 19.9031 12.8625 19.8442C12.8492 19.9899 12.8771 20.1302 12.905 20.2686L12.9226 20.359ZM14.3294 22.6959C14.1582 22.7518 13.959 22.7852 13.7738 22.7518L13.8133 22.7184C13.9208 22.6273 14.0337 22.532 14.1515 22.4664L14.4866 22.1185H14.7975C14.7143 22.3438 14.5771 22.6328 14.3294 22.6959ZM13.7368 20.0221C13.7896 20.3117 13.905 20.5746 14.0622 20.8223L14.1035 20.2698L13.7368 20.0221ZM14.8436 21.0785C14.8697 21.2084 14.8958 21.342 14.8819 21.4628C14.6724 21.274 14.4569 21.0257 14.4496 20.7343C14.503 20.7701 14.5662 20.7865 14.6287 20.8029C14.6924 20.8199 14.7562 20.8363 14.8096 20.8739C14.8163 20.9395 14.8303 21.0093 14.8436 21.0785ZM14.5643 23.3444C14.7851 23.2748 14.9981 23.1829 15.2 23.0699C15.2364 23.0153 15.2783 22.9607 15.3196 22.9072C15.4259 22.7694 15.5327 22.6316 15.5534 22.4664C15.4878 22.4837 15.4202 22.4916 15.3524 22.4901C15.268 22.4913 15.1873 22.4932 15.1023 22.5369C15.081 22.5769 15.0622 22.6182 15.0428 22.6595C14.979 22.7979 14.9153 22.937 14.7805 23.0335C14.7629 23.1112 14.7064 23.1738 14.6518 23.2339C14.6184 23.2703 14.5862 23.3067 14.5637 23.3438L14.5643 23.3444ZM15.1691 24.1628L14.9068 23.7997C15.1059 23.8337 15.3263 23.855 15.5121 23.7815L15.6056 24.1112C15.5413 24.152 15.4685 24.1778 15.3928 24.1867C15.3172 24.1955 15.2405 24.1871 15.1684 24.1622L15.1691 24.1628ZM15.3427 21.1775L15.4441 21.6662C15.6888 21.4555 15.7392 21.1483 15.7319 20.8223L15.7167 20.8411C15.5862 21.0002 15.5048 21.0992 15.3427 21.1775ZM16.0907 22.2327C16.0535 22.1753 16.0331 22.1086 16.0318 22.0402L16.6608 22.1993C16.6566 22.2958 16.7306 22.3438 16.8041 22.3772C16.8612 22.4513 16.9231 22.5114 16.985 22.5715C17.0372 22.6225 17.0894 22.6729 17.1392 22.7324L17.1326 22.7354C16.9905 22.8058 16.8047 22.8987 16.6438 22.821C16.5242 22.7579 16.455 22.6455 16.3858 22.5338C16.3099 22.4106 16.234 22.2873 16.0907 22.2327ZM16.2486 23.7888C16.3676 23.9327 16.5278 24.0074 16.6954 24.0474C16.6808 24.0262 16.6869 24.0274 16.6966 24.0292C16.7051 24.031 16.7173 24.0341 16.7203 24.0219L16.5102 23.5326C16.4692 23.5346 16.4283 23.5381 16.3876 23.5429C16.3252 23.5515 16.2623 23.5545 16.1994 23.552C16.2073 23.6334 16.2237 23.7147 16.2492 23.7888H16.2486ZM16.4526 20.7075C16.4811 20.9735 16.5218 21.2667 16.6201 21.5072C16.5724 21.478 16.5225 21.4526 16.4708 21.4313C16.3044 21.356 16.1077 21.2667 16.1417 21.0627C16.1945 20.9893 16.251 20.9304 16.3074 20.8709C16.356 20.8205 16.4046 20.7689 16.4526 20.7075ZM17.0451 21.2546C17.172 21.43 17.4477 21.3699 17.6013 21.3183C17.5679 21.2576 17.5005 21.2078 17.4325 21.1587C17.3523 21.0998 17.2722 21.0409 17.2491 20.9632C17.227 20.7126 17.1765 20.4653 17.0986 20.2261L17.0961 20.2322C16.9747 20.5454 16.8302 20.917 17.0451 21.2546ZM17.3536 22.1088L17.2655 22.0402C17.4689 22.0147 17.6711 21.988 17.8605 21.9218H17.937L18.1046 22.1805C18.1623 22.2157 18.2212 22.2485 18.2807 22.2813C18.3705 22.3317 18.461 22.382 18.5478 22.4403C18.5436 22.4707 18.5168 22.481 18.4889 22.4907C18.4739 22.4952 18.4596 22.5017 18.4464 22.5102C17.9989 22.6158 17.6741 22.3602 17.3536 22.1094V22.1088ZM17.2728 25.0438H17.2983C17.4871 24.8835 17.7081 24.8191 17.9316 24.7542L18.0038 24.7329C18.0384 24.7463 18.0439 24.7736 18.0493 24.8009C18.0542 24.8264 18.0591 24.8519 18.0882 24.8659C18.1683 24.8307 18.2582 24.8185 18.3474 24.8058C18.4246 24.7954 18.5023 24.7845 18.5733 24.759H18.5885C18.767 24.7663 18.9133 24.7718 19.0596 24.8543C19.1301 24.9533 19.2357 24.9867 19.3432 25.0207C19.4178 25.045 19.4931 25.0687 19.5557 25.1142L19.5314 24.8549C19.2066 24.4512 18.6996 24.4214 18.2315 24.4293L18.2212 24.3771C18.1094 24.3771 17.9832 24.4026 17.8787 24.4548C17.7719 24.4603 17.6687 24.501 17.5667 24.541C17.5254 24.5577 17.4837 24.5733 17.4416 24.5878C17.3869 24.7032 17.342 24.8379 17.3007 24.9618C17.291 24.9897 17.2825 25.0177 17.2728 25.0438ZM18.1228 20.778C17.8921 20.8265 17.6893 20.6814 17.5533 20.4926C17.4738 20.3615 17.4501 20.2079 17.4276 20.0543C17.4172 19.9773 17.403 19.9009 17.3851 19.8254C17.4392 19.88 17.5102 19.9195 17.5818 19.9589C17.7336 20.0439 17.8842 20.1277 17.8605 20.3518C17.8666 20.5139 17.9862 20.6371 18.0985 20.7531L18.1228 20.778ZM17.5175 25.6989H17.5594C17.6504 25.6394 17.7609 25.6315 17.8721 25.623C17.9874 25.6151 18.1028 25.6066 18.1957 25.5404C18.2594 25.5052 18.2855 25.5513 18.3141 25.5999C18.3304 25.629 18.3474 25.6588 18.3736 25.674C18.4385 25.7159 18.4816 25.7893 18.5241 25.861C18.5927 25.9782 18.6577 26.0887 18.8071 26.0401C19.0426 26.17 19.0378 26.442 19.0341 26.6867C19.0329 26.7419 19.0323 26.796 19.0341 26.847L19.3037 26.6697C19.2967 26.612 19.2971 26.5536 19.3049 26.496C19.314 26.3995 19.3231 26.303 19.2685 26.2253C19.2321 26.1372 19.1592 26.0935 19.0869 26.0498C19.0293 26.0146 18.9716 25.98 18.9327 25.9223C19.0013 25.799 18.9242 25.7183 18.8483 25.6388C18.8075 25.6018 18.7745 25.557 18.7512 25.507L18.7652 25.4888L19.1355 25.5404C19.2618 25.6218 19.3073 25.7699 19.3456 25.9071C19.5787 25.9496 19.6698 26.1834 19.7493 26.3886C19.7682 26.4384 19.787 26.4857 19.8064 26.5288C19.8368 26.4542 19.8574 26.3758 19.8781 26.2981C19.8993 26.2192 19.9206 26.1403 19.9503 26.0662C19.9527 25.9824 19.8817 25.9563 19.8119 25.9302C19.7807 25.9201 19.7509 25.906 19.7232 25.8883C19.7026 25.6989 19.6218 25.5216 19.4646 25.4074C19.3526 25.3752 19.2425 25.3364 19.1349 25.2915C18.9352 25.2125 18.736 25.1336 18.5071 25.1336L18.2139 25.2289C18.1574 25.2416 18.0999 25.2485 18.0421 25.2496C17.9382 25.2544 17.8381 25.2599 17.7591 25.3364C17.611 25.3485 17.5746 25.4894 17.5418 25.6151C17.5339 25.6442 17.526 25.6728 17.5175 25.6989ZM17.7694 24.2071L17.7027 24.1737C17.7233 24.0395 17.8156 23.9369 17.9054 23.8368L17.9613 23.7742C18.0955 23.8386 18.2054 23.7536 18.3098 23.6722C18.4349 23.5757 18.5533 23.484 18.6996 23.6552C18.7542 23.691 18.8162 23.705 18.8781 23.7196C18.9254 23.7305 18.9734 23.7414 19.0177 23.7621C19.263 23.7949 19.3565 24.0638 19.4288 24.2721L19.4373 24.2952C19.3993 24.2847 19.3608 24.2762 19.3219 24.2697C19.2005 24.2466 19.0742 24.2223 19.0098 24.0997L18.9813 24.0754C18.9327 24.0317 18.8793 23.9831 18.8186 24.0292C18.7093 24.1282 18.6049 24.0851 18.4932 24.0395C18.4039 24.0031 18.3104 23.9649 18.2066 23.9958C18.1016 24.0371 18.0002 24.0893 17.9 24.1415C17.8563 24.1634 17.8132 24.1859 17.7694 24.2071ZM17.7694 25.9775C17.7931 25.9982 17.8162 26.0219 17.8405 26.0468C17.9316 26.1403 18.0336 26.2435 18.172 26.2253C18.3001 26.289 18.3207 26.422 18.3408 26.5531C18.3541 26.6424 18.3675 26.7316 18.4161 26.796L18.5417 26.6776L18.5314 26.6697L18.549 26.6515L18.5563 26.6618C18.5909 26.5513 18.5423 26.3552 18.4822 26.2247C18.4422 26.1943 18.3972 26.1961 18.3541 26.1979C18.3116 26.1992 18.2691 26.2004 18.2309 26.173C18.2212 26.0589 18.1568 26.0006 18.0815 25.9314L18.0706 25.9217C18.0354 25.8938 17.9941 25.9059 17.9522 25.918C17.9283 25.9269 17.903 25.9316 17.8775 25.932L17.7694 25.9775ZM18.5939 21.8368C18.447 21.73 18.2946 21.6189 18.206 21.4628C18.3013 21.3754 18.4306 21.3566 18.5599 21.3378C18.6006 21.3323 18.6411 21.3256 18.6814 21.3177C18.7202 21.3566 18.7403 21.4052 18.7603 21.4531C18.7737 21.4871 18.787 21.5205 18.8077 21.5515C18.9327 21.7063 19.0687 21.855 19.2199 21.9844C19.0621 22.022 18.8708 22.0032 18.7233 21.9328C18.682 21.9006 18.6383 21.869 18.5939 21.8368ZM18.3997 20.1368C18.5211 20.2977 18.6947 20.2868 18.8702 20.2759C18.9254 20.2722 18.9813 20.2692 19.0353 20.2704V20.2443L18.6856 19.9334C18.5879 19.9662 18.4834 20.0591 18.3991 20.1374L18.3997 20.1368ZM18.2564 17.1151L18.5423 17.0179L18.5745 16.8485C18.6352 16.6615 18.5527 16.5098 18.4725 16.3628C18.4464 16.3143 18.4203 16.2669 18.3997 16.2183L18.2564 17.1151ZM19.0511 18.3779C19.0268 18.3476 19.0026 18.316 18.9795 18.2881C18.9807 18.2456 18.9795 18.1982 18.9789 18.1509C18.9764 18.0477 18.9746 17.9384 18.9928 17.8443C19.0135 17.874 19.0293 17.9068 19.0457 17.939C19.0772 18.0027 19.1088 18.0665 19.1719 18.1108C19.2588 18.0562 19.2958 18.1472 19.331 18.2334C19.3434 18.2687 19.3603 18.3022 19.3814 18.333C19.3936 18.3664 19.4081 18.3986 19.4227 18.432C19.4506 18.4927 19.4779 18.5552 19.4895 18.6257C19.2909 18.6894 19.1653 18.5267 19.0511 18.3785V18.3779ZM19.0281 19.3737C19.0542 19.4119 19.0706 19.4556 19.0869 19.4981C19.1039 19.5424 19.1203 19.5862 19.1471 19.622C19.2412 19.6882 19.3814 19.6766 19.4974 19.6663C19.5435 19.6548 19.5824 19.6724 19.62 19.6894C19.6668 19.7106 19.7111 19.7313 19.7657 19.6924C19.6958 19.6396 19.6348 19.5761 19.5848 19.5042C19.5456 19.4512 19.5024 19.4012 19.4555 19.3548C19.3511 19.268 19.2418 19.305 19.1313 19.3427C19.0973 19.3542 19.0627 19.3658 19.0281 19.373V19.3737ZM20.0833 21.3444C19.7615 21.396 19.4549 21.2473 19.2138 21.0961C19.209 21.0858 19.2005 21.0749 19.1914 21.0633C19.175 21.0421 19.1562 21.0178 19.1543 20.9893C19.2102 20.9947 19.2667 20.9638 19.3213 20.934C19.4106 20.8854 19.4956 20.8387 19.5666 20.9559C19.6844 20.9802 19.8016 21.0579 19.9175 21.1344C20.008 21.1939 20.0972 21.2528 20.1847 21.2855C20.1798 21.3159 20.1507 21.3238 20.1209 21.3317C20.1076 21.3353 20.0942 21.3384 20.0833 21.3438V21.3444ZM19.9394 24.3662L19.9916 24.4846C20.0098 24.6121 20.0462 24.7365 20.0833 24.861C20.1579 25.1124 20.2332 25.3649 20.1488 25.6473C20.2199 25.7001 20.2569 25.776 20.2946 25.8513C20.3128 25.8883 20.3304 25.9247 20.3522 25.9587H20.3692C20.4427 25.6643 20.4026 25.3595 20.3632 25.0626L20.3522 24.9806C20.3783 24.7384 20.1901 24.5799 20.0317 24.4463C20.0003 24.4203 19.9695 24.3936 19.9394 24.3662ZM20.6813 20.6626C20.4718 20.7367 20.1816 20.7221 20.0001 20.574L20.2933 20.3961C20.402 20.4993 20.5483 20.5855 20.6819 20.6632L20.6813 20.6626ZM20.8622 21.7105C20.8452 21.8666 20.9424 21.9959 21.0474 22.0742C21.0596 22.0451 21.0741 22.0178 21.0881 21.9904C21.1197 21.9303 21.1506 21.8708 21.1555 21.7998C21.1239 21.6407 21.0401 21.4962 20.9035 21.3882L20.8956 21.4222C20.8683 21.5157 20.857 21.6132 20.8622 21.7105ZM21.0061 23.6127C20.9314 23.5642 20.8562 23.5156 20.8726 23.4002C20.8665 23.2812 20.9278 23.1938 20.9903 23.107C21.0249 23.0584 21.0596 23.0098 21.0826 22.9558C21.1099 22.9406 21.1421 22.9922 21.1555 23.0177C21.1634 23.0481 21.1731 23.0784 21.1828 23.11C21.2259 23.2509 21.2721 23.4002 21.215 23.552C21.1943 23.6492 21.2544 23.6844 21.3176 23.7214C21.3722 23.7536 21.4287 23.787 21.4354 23.8629C21.4172 24.0134 21.3771 24.1561 21.337 24.2988C21.3152 24.3777 21.2927 24.4567 21.2745 24.5362C21.2745 24.2952 21.1974 24.0887 21.0644 23.9072C21.0673 23.8769 21.0782 23.848 21.096 23.8234C21.1203 23.7821 21.1446 23.742 21.1063 23.6923C21.0808 23.6607 21.0438 23.6364 21.0061 23.6127ZM21.3522 22.518L21.5331 22.892C21.5938 22.8835 21.6382 22.8356 21.6831 22.787C21.6977 22.7709 21.7129 22.7553 21.7286 22.7403C21.7608 22.637 21.7147 22.5581 21.6691 22.4798C21.6461 22.4403 21.623 22.4009 21.6102 22.3584C21.5969 22.3219 21.5951 22.2807 21.592 22.2388C21.589 22.1793 21.5859 22.1192 21.5501 22.0736L21.5258 22.0566C21.4864 22.0287 21.4439 21.9977 21.4008 22.0105L21.3522 22.518ZM21.9703 21.9218C21.8932 21.7579 21.7292 21.6255 21.5853 21.5333C21.7572 21.5369 21.9599 21.577 22.0966 21.7002C22.1069 21.8034 22.1312 21.9145 22.2326 21.9589C22.4129 21.9959 22.4772 22.1392 22.5434 22.2879C22.5841 22.3778 22.6254 22.4701 22.6934 22.5423C22.7237 22.5909 22.6812 22.6243 22.6448 22.6528C22.6308 22.6632 22.6181 22.6729 22.6096 22.6832C22.5367 22.671 22.4876 22.7463 22.473 22.8089V22.835C22.4985 22.852 22.524 22.8678 22.5495 22.8835C22.6339 22.9364 22.7171 22.9886 22.7844 23.0827C22.7788 23.2697 22.7622 23.4562 22.7347 23.6413C22.7225 23.7366 22.7104 23.8313 22.7007 23.9266C22.629 23.9351 22.6169 23.8677 22.6066 23.8052C22.6023 23.7821 22.5987 23.7597 22.5914 23.742C22.5398 23.5441 22.5027 23.3608 22.4639 23.1671L22.4311 23.0062C22.3716 22.8538 22.3024 22.7057 22.2338 22.5569C22.1378 22.3499 22.0413 22.1422 21.9703 21.9218ZM21.7535 23.5405C21.9023 23.685 21.8834 23.8847 21.8646 24.082C21.861 24.1215 21.8573 24.161 21.8549 24.1998C21.8385 24.283 21.8901 24.2885 21.946 24.2939C21.9848 24.2982 22.0255 24.3024 22.0474 24.3328C22.1482 24.4913 22.1008 24.7177 22.0632 24.8974L22.0547 24.9363C22.085 24.8889 22.1154 24.8428 22.1463 24.7967C22.2137 24.6971 22.2799 24.5987 22.3303 24.484C22.3291 24.4548 22.3455 24.4324 22.3625 24.4087C22.3819 24.3826 22.4026 24.3547 22.4007 24.3134C22.4232 24.2357 22.3667 24.2399 22.3157 24.2435C22.2986 24.2458 22.2812 24.2458 22.2641 24.2435C22.2216 24.2326 22.1767 24.2029 22.1913 24.1434C22.2641 23.994 22.2234 23.8216 22.187 23.6625C22.1779 23.6243 22.1694 23.5872 22.1627 23.5508C22.1445 23.484 22.1457 23.4051 22.1469 23.3286C22.1488 23.2314 22.1506 23.1361 22.1136 23.0614C22.0747 23.1185 22.0097 23.1598 21.9448 23.2011C21.8215 23.28 21.6983 23.3589 21.7535 23.5405ZM22.4396 21.3305C22.3242 21.1908 22.2089 21.0512 22.0783 20.9115C22.2222 20.8806 22.3261 20.9735 22.4317 21.0676C22.5179 21.1447 22.6059 21.223 22.7177 21.2345L22.7602 21.2746C22.8257 21.3365 22.8949 21.4009 22.935 21.4835L22.9435 21.6122C22.9502 21.7075 22.9575 21.8016 22.9526 21.9018C22.7571 21.7148 22.5993 21.5235 22.4396 21.3305ZM22.8925 22.6759C22.8986 22.7044 22.9101 22.7305 22.9217 22.7573L22.9283 22.7718C23.0643 23.0092 23.1937 23.2539 23.2884 23.5089C23.2787 23.4178 23.292 23.3189 23.3054 23.2205C23.3315 23.0226 23.3576 22.824 23.2034 22.6832C23.1767 22.6061 23.0959 22.6176 23.0309 22.6267L23.0146 22.6292L23.0012 22.631L22.8925 22.6759ZM24.0358 25.2939C23.9435 25.3522 23.8251 25.4275 23.7322 25.3807C23.819 25.3352 23.8633 25.2629 23.9107 25.1864C23.9544 25.116 24.0006 25.0413 24.0843 24.9812C24.122 24.9266 24.1614 24.9448 24.2052 24.9648C24.2185 24.9709 24.2319 24.977 24.2458 24.9812C24.3393 25.0395 24.4134 25.0772 24.5288 25.0772C24.5324 25.1439 24.5324 25.2332 24.4972 25.2921C24.5276 25.3334 24.5767 25.3413 24.6271 25.3498C24.6636 25.3558 24.7 25.3619 24.7309 25.3807C24.8433 25.47 24.9617 25.5853 24.9477 25.7444L24.8888 25.8069C24.7044 25.6841 24.5015 25.5919 24.2877 25.5337C24.2845 25.511 24.2845 25.4879 24.2877 25.4651C24.294 25.4306 24.2904 25.3951 24.2774 25.3625C24.2106 25.3152 24.1378 25.2623 24.0503 25.2848L24.0358 25.2939ZM23.9769 20.7209L23.9884 20.7173C24.0716 20.6918 24.1584 20.6657 24.2282 20.6019C24.3958 20.4404 24.6156 20.4714 24.8275 20.5011C24.9125 20.5133 24.9963 20.5254 25.0746 20.5242C25.0187 20.4238 24.9543 20.3283 24.8821 20.2388L24.8372 20.2194C24.7552 20.1842 24.6757 20.1502 24.5816 20.1502C24.4007 20.0373 24.2647 20.1538 24.1293 20.2704C24.0868 20.3068 24.0443 20.3433 24.0012 20.3718C23.952 20.472 23.9283 20.6201 23.9769 20.7209ZM23.9939 21.4574C23.9836 21.4604 23.9836 21.4719 23.9836 21.4835C23.9483 21.3888 23.9562 21.2661 23.9629 21.1556L23.9659 21.101C24.0661 21.1113 24.1426 21.0585 24.2209 21.005C24.2653 20.9747 24.3108 20.9443 24.3606 20.9237C24.5858 20.9455 24.7953 20.8763 24.9981 20.8095L25.0327 20.7986C25.1043 20.8017 25.1213 20.8763 25.1371 20.9468C25.1578 21.0366 25.1766 21.1198 25.3083 21.0318C25.3885 20.965 25.4753 20.9018 25.5876 20.9425C25.7868 21.05 25.9829 21.2692 26.0066 21.509C25.672 21.3098 25.2913 21.2279 24.9058 21.1538C24.7917 21.1538 24.6994 21.2133 24.6065 21.2734C24.513 21.3341 24.4195 21.3948 24.3017 21.3948L24.2707 21.4179C24.199 21.4752 24.1229 21.5268 24.0431 21.5721C24.0133 21.5642 24.0121 21.5381 24.0103 21.5114C24.0091 21.4908 24.0078 21.4701 23.9939 21.4574ZM24.1444 22.3086C24.2003 22.3717 24.2841 22.3778 24.3685 22.3839C24.394 22.3857 24.4201 22.3875 24.445 22.3912L24.7486 22.2643C24.7504 22.2375 24.7316 22.2199 24.7127 22.2023C24.6903 22.1811 24.6678 22.1598 24.6793 22.124C24.7297 22.0633 24.7917 22.0657 24.856 22.0675C24.8985 22.0688 24.941 22.07 24.9835 22.0542C25.0309 22.0463 25.0794 22.025 25.128 22.0032C25.2276 21.9589 25.3284 21.9139 25.4267 21.991C25.4249 21.9977 25.4255 22.0062 25.4267 22.0147C25.4267 22.0281 25.4279 22.042 25.4194 22.0542C25.3739 22.1689 25.4504 22.2394 25.5348 22.2837C25.5967 22.2958 25.6562 22.325 25.7169 22.3541C25.8232 22.4057 25.9282 22.4573 26.0381 22.4088C26.0236 22.28 25.9938 22.1604 25.9641 22.0384L25.9477 21.9716C25.8651 21.957 25.7959 21.9091 25.7273 21.8611C25.6769 21.8259 25.6259 21.7907 25.5694 21.7682C25.5111 21.8277 25.4334 21.8714 25.3599 21.8642C25.3023 21.8502 25.2422 21.8308 25.1802 21.8107C24.955 21.7379 24.7103 21.6589 24.4966 21.8016C24.4341 21.8824 24.3399 21.8963 24.2458 21.9103C24.1924 21.9182 24.139 21.9261 24.091 21.9461C24.0989 22.0718 24.1129 22.1944 24.1444 22.3086ZM24.2489 24.5392L24.2537 24.5271C24.2559 24.5217 24.2579 24.5162 24.2598 24.5107C24.2762 24.4882 24.2914 24.4645 24.3059 24.4415C24.3266 24.4056 24.3508 24.3718 24.3782 24.3407C24.4268 24.3407 24.4723 24.32 24.5178 24.3C24.5743 24.2751 24.6296 24.2502 24.6891 24.2642C24.7989 24.2484 24.8821 24.3085 24.9647 24.3686C25.0376 24.4214 25.1098 24.4737 25.2003 24.4737C25.2944 24.5531 25.3576 24.6632 25.3788 24.7845C25.3763 24.8938 25.3521 24.9922 25.3284 25.0911C25.3153 25.143 25.3037 25.1952 25.2938 25.2478L25.0005 24.9885C25.0013 24.9747 25.0025 24.9609 25.0042 24.9472C25.0114 24.8877 25.0206 24.8161 24.9732 24.7772C24.8493 24.6461 24.6696 24.6692 24.496 24.691C24.4243 24.7001 24.3533 24.7092 24.2877 24.7068C24.1948 24.6813 24.2252 24.6012 24.2489 24.5392ZM24.3436 22.7645L24.3661 22.8162C24.4067 22.9127 24.4559 23.0287 24.5288 23.0384C24.7352 22.943 25.0357 22.8829 25.2664 22.9874C25.3429 23.0013 25.3429 23.0942 25.3266 23.1531C25.3818 23.1883 25.4437 23.2199 25.5063 23.2521C25.5761 23.2885 25.6477 23.3249 25.7139 23.3674L25.6787 23.1452C25.6751 23.0238 25.5998 22.9576 25.5245 22.8914C25.4504 22.8271 25.3763 22.7627 25.3678 22.6455C25.1293 22.5587 24.8706 22.5433 24.6235 22.6012C24.5652 22.6577 24.4875 22.668 24.4122 22.6771C24.3847 22.6803 24.3573 22.6848 24.3302 22.6905C24.3271 22.7069 24.3292 22.7239 24.3363 22.739C24.3393 22.7469 24.3424 22.7554 24.3436 22.7645ZM24.567 23.861C24.5154 23.9035 24.4638 23.946 24.4025 23.9643C24.4007 23.9242 24.4195 23.8944 24.4389 23.8641C24.4474 23.8501 24.4559 23.8362 24.4626 23.821C24.4687 23.7833 24.4699 23.742 24.4717 23.6995C24.4766 23.5654 24.482 23.4239 24.6235 23.3869L24.8815 23.3687C24.9532 23.5271 25.0861 23.5484 25.2185 23.569C25.3387 23.5884 25.4583 23.6073 25.5281 23.7311C25.5306 23.8094 25.5221 23.8841 25.5142 23.9582C25.4982 24.0597 25.4972 24.163 25.5111 24.2648C25.4486 24.2648 25.4279 24.2144 25.4055 24.1604C25.3891 24.1209 25.3715 24.079 25.3363 24.0541C25.2751 23.9607 25.1916 23.8839 25.0933 23.8308C24.9951 23.7777 24.8851 23.7499 24.7734 23.7499C24.6927 23.7578 24.6296 23.8088 24.567 23.861ZM25.6854 25.5853C25.7267 25.6722 25.7862 25.7511 25.8463 25.83C25.9434 25.9593 26.0406 26.088 26.0557 26.2514C26.1092 26.1846 26.1468 26.1063 26.1832 26.0316L26.1881 26.0219C26.1863 25.9794 26.1589 25.9612 26.1298 25.9423C26.1066 25.9296 26.0871 25.911 26.0733 25.8883C26.0503 25.8203 26.0685 25.7578 26.0855 25.697C26.0928 25.6715 26.1001 25.6467 26.1037 25.6218C26.051 25.4794 25.9545 25.3574 25.8281 25.2733L25.6854 25.5853ZM26.3672 25.3625L26.1158 24.9994C26.1492 24.9478 26.1705 24.8889 26.1923 24.8294C26.2197 24.7529 26.2476 24.677 26.3016 24.6182C26.3636 24.5878 26.4097 24.6546 26.4334 24.6959C26.4753 24.9144 26.4753 25.1816 26.3672 25.3625ZM25.091 14.862C25.1821 14.9105 25.2695 14.9549 25.3782 14.9622C25.451 14.9215 25.5463 14.8911 25.6368 14.9178C25.7176 14.9737 25.8098 14.9524 25.9039 14.93C25.9604 14.9172 26.0175 14.9039 26.0739 14.9069C25.9404 14.7733 25.7898 14.6914 25.6368 14.6137C25.5336 14.6373 25.4407 14.6895 25.3478 14.7424C25.2646 14.7891 25.1821 14.8359 25.091 14.862ZM26.8699 15.5092C26.7533 15.3738 26.6271 15.2263 26.4583 15.2093C26.604 15.14 26.7691 15.1243 26.9367 15.1127L26.9385 15.1152C27.0563 15.27 27.1717 15.4212 27.2129 15.6173L27.2718 15.8128C27.1777 15.6913 27.0593 15.5723 26.9015 15.5468L26.8699 15.5092ZM13.415 13.5852L13.5164 13.5973C13.5747 13.6277 13.6403 13.6556 13.7083 13.6841C13.9572 13.7885 14.2341 13.9045 14.2541 14.2336C13.9772 14.3489 13.7119 14.5038 13.4915 14.7412C13.4247 14.6683 13.3306 14.641 13.2383 14.6137C13.0987 14.573 12.9627 14.5329 12.9287 14.341C12.9815 14.0405 13.0829 13.6623 13.415 13.5852ZM14.1144 15.4048C14.2717 15.4096 14.4302 15.4139 14.5941 15.3993C14.6736 15.4357 14.758 15.5098 14.7963 15.5954C14.7908 15.7994 14.758 15.9992 14.7252 16.2007C14.6937 16.3932 14.6615 16.5869 14.6536 16.7878C14.5097 16.8504 14.3701 16.9773 14.3348 17.1436C14.2486 17.1703 14.1685 17.2159 14.0871 17.2614C14.0466 17.2847 14.0055 17.307 13.9639 17.3282C13.9092 17.2025 13.9189 17.0137 14.0167 16.9093C14.0701 16.8303 14.1563 16.7884 14.2407 16.749C14.3713 16.6864 14.4957 16.6275 14.4787 16.4314C14.5394 16.3276 14.5206 16.2032 14.5018 16.0835C14.4915 16.0274 14.4858 15.9706 14.4848 15.9135C14.4642 15.8407 14.4435 15.8686 14.418 15.9026C14.401 15.9257 14.3816 15.9518 14.3591 15.95C14.2474 15.9755 14.1327 15.9834 14.0343 15.9239C14.0185 15.9057 14.0015 15.8887 13.9851 15.8723C13.925 15.8115 13.8661 15.7508 13.8491 15.6646C13.7508 15.613 13.6366 15.5317 13.5868 15.4242L13.6397 15.4108C13.7993 15.3957 13.956 15.4005 14.1144 15.4048ZM14.2383 17.8758C14.1799 17.8833 14.1208 17.8837 14.0622 17.877C14.0634 17.8934 14.061 17.9159 14.058 17.9396C14.0495 18.0088 14.0398 18.0944 14.1041 18.1108L14.3385 17.996C14.398 17.9815 14.4721 17.9596 14.4994 17.9074C14.4204 17.8594 14.3306 17.8673 14.2383 17.8758ZM14.673 14.7855C14.7094 14.7733 14.7459 14.7569 14.7835 14.7412C14.9007 14.6914 15.0233 14.6392 15.1448 14.6774C15.0361 14.7934 14.9493 14.9415 14.8667 15.0824L14.8515 15.1073L14.3731 15.0963C14.4259 14.9628 14.5583 14.8523 14.673 14.7855ZM16.2753 14.7818C16.2273 14.712 16.1812 14.644 16.0749 14.6634C15.9954 14.6519 15.8934 14.641 15.8163 14.6701C15.7823 14.6847 15.809 14.7284 15.8229 14.7509C15.9681 14.7405 15.9942 14.834 16.0215 14.9318C16.0409 15.0022 16.0616 15.0757 16.1277 15.1145C16.1787 15.1024 16.237 15.0988 16.2947 15.0963C16.37 15.0921 16.4453 15.0878 16.5054 15.0629C16.5199 15.0065 16.4908 14.9688 16.4617 14.9318C16.4561 14.9248 16.4506 14.9177 16.4453 14.9105C16.3603 14.9057 16.3172 14.8432 16.2753 14.7818ZM15.9492 15.6549C16.0269 15.5395 16.1399 15.5189 16.2528 15.497L16.2953 15.4892L17.2006 15.5068C17.223 15.5286 17.2072 15.5493 17.1902 15.5711C17.1781 15.5869 17.1659 15.6033 17.1659 15.6221C17.1373 15.6481 17.1047 15.6694 17.0694 15.6853C17.0366 15.6998 17.0064 15.7197 16.9802 15.7442C16.9097 15.746 16.8848 15.7994 16.8587 15.8559C16.8405 15.8941 16.8223 15.9336 16.7883 15.9591C16.679 16.075 16.5272 16.0477 16.3918 16.0234C16.3678 16.0189 16.3437 16.0149 16.3196 16.0113C16.2615 15.9702 16.2146 15.9154 16.183 15.8516L16.1411 15.8959C16.1708 16.0119 16.1793 16.1345 16.1878 16.2572C16.1945 16.3543 16.2018 16.4515 16.2188 16.5444L16.4356 16.6962C16.4374 16.905 16.5801 16.9512 16.7276 16.9985C16.8211 17.0289 16.917 17.0598 16.9802 17.1333C16.9419 17.2559 16.8648 17.3592 16.781 17.463C16.6568 17.3355 16.5052 17.238 16.3378 17.1776C16.3257 17.0155 16.1872 16.9062 16.0743 16.8176C16.0499 16.7988 16.026 16.7793 16.0027 16.7593C15.9923 16.6353 15.9833 16.5113 15.9759 16.3871C15.9602 16.1467 15.945 15.9063 15.9079 15.6743L15.9492 15.6549ZM16.6972 17.9408H16.2777C16.2534 17.9372 16.2146 17.9481 16.2243 17.9851L16.6444 18.1733L16.6972 17.9408ZM17.0324 13.7448L17.3438 13.6416C17.5223 13.7297 17.6899 13.8408 17.8538 13.967C17.9832 14.2184 17.9625 14.559 17.9024 14.8407C17.8617 14.8893 17.7992 14.8954 17.7354 14.9014C17.6529 14.9099 17.5685 14.9178 17.5254 15.0186H17.5108C17.3954 14.6707 17.0676 14.3587 16.7634 14.2002C16.812 14.0223 16.8648 13.848 17.0324 13.7448Z" fill="white"/>
</g>
<circle cx="20" cy="20" r="19.5" stroke="black" stroke-opacity="0.05"/>
<defs>
<clipPath id="clip0_9_412085">
<rect width="24" height="16" fill="white" transform="translate(8 12)"/>
</clipPath>
</defs>
</svg>
