<svg width="40" height="40" viewBox="0 0 40 40" fill="none" xmlns="http://www.w3.org/2000/svg">
<circle cx="20" cy="20" r="20" fill="#F6F8FA"/>
<circle cx="20" cy="20" r="19.5" stroke="black" stroke-opacity="0.05"/>
<g clip-path="url(#clip0_9_395190)">
<path d="M15.1436 18.8339V21.4748V22.217H16.0153V21.4748V18.8339V18.0918H15.1436V18.8339Z" fill="#003D84"/>
<path d="M19.7472 20.8737L17.7558 18.2912C17.6846 18.2043 17.6134 18.1416 17.5407 18.1003C17.4681 18.059 17.3926 18.0391 17.3143 18.0391C17.1761 18.0391 17.0636 18.0846 16.9752 18.1744C16.8869 18.2641 16.8428 18.3966 16.8428 18.569V22.2169H17.7202V19.5475L19.6062 21.9933L19.6119 22.0047C19.686 22.0916 19.7686 22.1571 19.8569 22.2027C19.9452 22.2483 20.0364 22.2711 20.1304 22.2711C20.2757 22.2711 20.3939 22.2255 20.4865 22.1329C20.5791 22.0403 20.6247 21.9121 20.6247 21.7469V18.0918H19.7472V20.8737Z" fill="#003D84"/>
<path d="M24.2744 18.0918H21.1221V18.8752H22.2659V22.217H23.1377V18.8752H24.2744V18.0918Z" fill="#003D84"/>
<path d="M26.5975 18.2627C26.5291 18.1758 26.4508 18.1174 26.3653 18.0861C26.2784 18.0547 26.1745 18.0391 26.0534 18.0391C25.9323 18.0391 25.8212 18.0547 25.7357 18.0861C25.6488 18.1174 25.5705 18.1758 25.5007 18.2627C25.4295 18.3496 25.3668 18.4735 25.3127 18.6345L24.0107 22.2169H24.9295L25.2272 21.3267H26.8739L27.1687 22.2169H28.0875L26.7912 18.6345C26.7328 18.4735 26.6687 18.3496 26.6004 18.2627H26.5975ZM25.4736 20.5845L26.0534 18.8524L26.6274 20.5845H25.4751H25.4736Z" fill="#003D84"/>
<path d="M31.5659 18.4664C31.2796 18.2171 30.8865 18.0918 30.3879 18.0918H28.502V22.217H29.3794V20.9977H30.3865C30.885 20.9977 31.2782 20.8723 31.5645 20.623C31.8508 20.3737 31.9947 20.0148 31.9947 19.5476C31.9947 19.0804 31.8508 18.7157 31.5645 18.4664H31.5659ZM30.8622 20.0817C30.707 20.1943 30.4962 20.2498 30.2284 20.2498H29.3794V18.8411H30.2284C30.4962 18.8411 30.707 18.898 30.8622 19.012C31.0175 19.1259 31.0944 19.304 31.0944 19.5476C31.0944 19.7912 31.0175 19.9692 30.8622 20.0803V20.0817Z" fill="#003D84"/>
<path d="M35.5698 18.4664C35.2835 18.2171 34.8904 18.0918 34.3918 18.0918H32.5059V22.217H33.3833V20.9977H34.3904C34.8889 20.9977 35.2821 20.8723 35.5684 20.623C35.8547 20.3737 35.9986 20.0148 35.9986 19.5476C35.9986 19.0804 35.8547 18.7157 35.5684 18.4664H35.5698ZM34.8662 20.0817C34.7109 20.1943 34.5001 20.2498 34.2323 20.2498H33.3833V18.8411H34.2323C34.5001 18.8411 34.7109 18.898 34.8662 19.012C35.0214 19.1259 35.0983 19.304 35.0983 19.5476C35.0983 19.7912 35.0214 19.9692 34.8662 20.0803V20.0817Z" fill="#003D84"/>
<path d="M8.78215 21.4499L9.11689 21.7847L10.0898 20.8118C10.2593 20.6423 10.3533 20.4172 10.3533 20.1765C10.3533 19.9357 10.2593 19.7107 10.0898 19.5412L9.11404 18.5654L8.7793 18.9016L9.75361 19.8759C9.83338 19.9557 9.87754 20.0625 9.87754 20.175C9.87754 20.2876 9.83338 20.3944 9.75361 20.4742L8.78072 21.4471L8.78215 21.4499Z" fill="#207CEC"/>
<path d="M7.17792 17.4743C7.2933 17.4743 7.39728 17.5171 7.47848 17.5983L7.63802 17.7578L5.9002 19.5412C5.72927 19.7121 5.63668 19.9372 5.63668 20.1779C5.63668 20.4187 5.73069 20.6451 5.89593 20.8104L7.63659 22.5966L7.47848 22.7562C7.39728 22.8373 7.2933 22.8801 7.17792 22.8801C7.06254 22.8801 6.95856 22.8373 6.87736 22.7562L4.59826 20.4785C4.51707 20.3973 4.47434 20.2933 4.47434 20.1779C4.47434 20.0625 4.51707 19.9586 4.59826 19.8774L6.87736 17.5983C6.95856 17.5171 7.06254 17.4743 7.17792 17.4743ZM7.17792 17C6.93862 17 6.71213 17.094 6.54262 17.2635L4.26352 19.5426C4.09401 19.7121 4 19.9372 4 20.1779C4 20.4187 4.09401 20.6437 4.26352 20.8132L6.54262 23.0923C6.71213 23.2618 6.93719 23.3558 7.17792 23.3558C7.41865 23.3558 7.64371 23.2618 7.81322 23.0923L8.29895 22.5995L6.23352 20.4799C6.15233 20.3987 6.10817 20.2919 6.10817 20.1779C6.10817 20.064 6.15233 19.9557 6.23352 19.8759L8.3018 17.7535H8.29895L7.81037 17.2649C7.64086 17.0954 7.4158 17.0014 7.17507 17.0014L7.17792 17Z" fill="#207CEC"/>
<path d="M10.386 17.4748C10.4145 17.4748 10.443 17.4776 10.4715 17.4833C10.5527 17.499 10.6267 17.5389 10.6866 17.5987L12.9657 19.8778C13.0454 19.9576 13.0896 20.0601 13.0896 20.1741V20.1826C13.0896 20.2966 13.0454 20.3992 12.9657 20.4789L10.6866 22.758C10.6054 22.8392 10.5014 22.882 10.386 22.882C10.2706 22.882 10.1666 22.8392 10.0883 22.7595L9.92877 22.5971L9.93304 22.5914L11.6652 20.8137C11.8361 20.6427 11.9287 20.4177 11.9287 20.1769C11.9287 19.9362 11.8347 19.7097 11.6694 19.5445L9.93161 17.7625L9.92592 17.7568L10.0855 17.5973C10.1666 17.5161 10.2706 17.4734 10.386 17.4734M10.386 16.999C10.1467 16.999 9.92022 17.093 9.75071 17.2625L9.26213 17.7511V17.7526L7.47446 19.5402C7.30495 19.7097 7.21094 19.9348 7.21094 20.1755C7.21094 20.4163 7.30495 20.6413 7.47446 20.8108L9.5342 22.8706L9.75214 23.0913C9.92164 23.2609 10.1467 23.3549 10.3874 23.3549C10.6282 23.3549 10.8532 23.2609 11.0227 23.0913L13.3018 20.8122C13.4713 20.6427 13.5654 20.4177 13.5654 20.1769C13.5654 19.9376 13.4713 19.7112 13.3018 19.5416L11.0227 17.264C10.896 17.1372 10.7364 17.0517 10.5641 17.0175C10.5057 17.0061 10.4473 17.0004 10.3874 17.0004L10.386 16.999ZM9.59402 22.2609L9.55129 22.2182L7.8092 20.4761C7.72943 20.3963 7.68528 20.2895 7.68528 20.1769C7.68528 20.0644 7.72943 19.9576 7.8092 19.8778L9.5926 18.0944L11.3304 19.875C11.4116 19.9562 11.4558 20.063 11.4558 20.1769C11.4558 20.2909 11.4116 20.3992 11.3304 20.4789L9.59402 22.2609Z" fill="url(#paint0_linear_9_395190)"/>
</g>
<defs>
<linearGradient id="paint0_linear_9_395190" x1="7.21094" y1="20.1784" x2="13.5639" y2="20.1784" gradientUnits="userSpaceOnUse">
<stop stop-color="#207CEC"/>
<stop offset="0.15" stop-color="#2095E5"/>
<stop offset="0.4" stop-color="#21BADB"/>
<stop offset="0.63" stop-color="#21D5D4"/>
<stop offset="0.84" stop-color="#21E6D0"/>
<stop offset="1" stop-color="#22ECCF"/>
</linearGradient>
<clipPath id="clip0_9_395190">
<rect width="32" height="6.35584" fill="white" transform="translate(4 17)"/>
</clipPath>
</defs>
</svg>
