<svg width="40" height="40" viewBox="0 0 40 40" fill="none" xmlns="http://www.w3.org/2000/svg">
<circle cx="20" cy="20" r="20" fill="#F6F8FA"/>
<g clip-path="url(#clip0_9_386903)">
<path d="M20 12.52L26.84 16.48L29 15.22L20 10L11 15.22L13.16 16.48L20 12.52Z" fill="#D4D4D5"/>
<path d="M13.1599 16.4795V24.3395L13.8799 23.9195L15.3799 23.0795V17.7395L19.9999 15.0395V13.2995V12.5195L13.1599 16.4795Z" fill="#ED7C37"/>
<path d="M26.8401 16.4797V24.3397L26.1201 23.9197L29.0001 25.5997V15.2197L26.8401 16.4797Z" fill="#B7B7B8"/>
<path d="M26.84 16.4795L20 12.5195V13.2995V15.0395L24.62 17.7395V23.0795L26.12 23.9195L26.84 24.3395V16.4795Z" fill="#DE5126"/>
<path d="M24.6201 25.5996V28.1196L26.8401 29.3796V26.8596L24.6201 25.5996Z" fill="#929293"/>
<path d="M13.88 23.9197L13.16 24.3397V16.4797L11 15.2197V25.5997L20 30.8197V28.2997L13.16 24.3397L13.88 23.9197Z" fill="#929293"/>
<path d="M20 30.8196L24.62 28.1196V25.5996L20 28.2996V30.8196Z" fill="#B7B7B8"/>
<path d="M26.8399 24.3401L26.1799 23.9801L24.6199 23.0801L19.9999 25.7801L15.3799 23.0801L13.8799 23.9201L13.1599 24.3401L19.9999 28.3001L24.6199 25.6001L26.8399 26.8601L28.9999 25.6001L26.8399 24.3401Z" fill="#F89B33"/>
<path d="M29.0001 25.5996L26.8401 26.8596V29.3796L29.0001 28.1196V25.5996Z" fill="#B7B7B8"/>
</g>
<circle cx="20" cy="20" r="19.5" stroke="black" stroke-opacity="0.05"/>
<defs>
<clipPath id="clip0_9_386903">
<rect width="18" height="21" fill="white" transform="translate(11 10)"/>
</clipPath>
</defs>
</svg>
