<svg width="40" height="40" viewBox="0 0 40 40" fill="none" xmlns="http://www.w3.org/2000/svg">
<circle cx="20" cy="20" r="20" fill="#F6F8FA"/>
<circle cx="20" cy="20" r="19.5" stroke="black" stroke-opacity="0.05"/>
<path d="M21.6408 13.0471C17.6129 12.0042 13.7607 14.3284 12.6047 18.2715C12.598 18.2933 12.5834 18.3118 12.5638 18.3231C12.5442 18.3344 12.5213 18.3376 12.4996 18.3321C12.4686 18.324 12.4531 18.3045 12.4531 18.2735C12.4639 14.9118 12.4646 11.3891 12.4551 7.70541C12.4551 7.6084 12.4969 7.58415 12.5805 7.63265L21.9561 13.0309C22.1178 13.1239 22.107 13.1515 21.9238 13.1137C21.8295 13.0949 21.7351 13.0727 21.6408 13.0471Z" fill="#EF3026"/>
<path d="M19.761 26.5434C23.2792 26.5434 26.1313 23.6913 26.1313 20.1731C26.1313 16.6548 23.2792 13.8027 19.761 13.8027C16.2427 13.8027 13.3906 16.6548 13.3906 20.1731C13.3906 23.6913 16.2427 26.5434 19.761 26.5434Z" fill="#B1BB1E"/>
<path d="M24.986 14.763L34.2606 20.0946C34.2732 20.1015 34.2837 20.1118 34.2911 20.1242C34.2984 20.1367 34.3023 20.1508 34.3023 20.1653C34.3023 20.1797 34.2984 20.1939 34.2911 20.2063C34.2837 20.2188 34.2732 20.229 34.2606 20.236L24.6707 25.7515C24.665 25.7545 24.6585 25.7554 24.6522 25.754C24.646 25.7526 24.6405 25.7489 24.6367 25.7437C24.633 25.7385 24.6313 25.732 24.632 25.7257C24.6326 25.7193 24.6356 25.7134 24.6404 25.709C27.8579 22.7058 28.0438 18.0169 24.893 14.8843C24.6154 14.6067 24.6464 14.5663 24.986 14.763Z" fill="#0176C3"/>
<path d="M12.5506 21.8684C13.3941 24.7652 15.2177 26.5835 18.0216 27.3232C19.2935 27.6601 20.6604 27.5988 22.1223 27.1393C22.1371 27.1339 22.1479 27.1386 22.1547 27.1535C22.1587 27.1602 22.1607 27.1669 22.1607 27.1737C22.1621 27.1871 22.1567 27.1972 22.1445 27.204C19.055 28.9839 15.8624 30.8203 12.5668 32.7134C12.5551 32.7201 12.5418 32.7237 12.5283 32.7237C12.5148 32.7237 12.5016 32.7201 12.4899 32.7133C12.4782 32.7066 12.4685 32.6968 12.4618 32.6851C12.4551 32.6734 12.4515 32.6602 12.4516 32.6467C12.4718 28.8471 12.4677 25.1991 12.4395 21.7027C12.4395 21.6852 12.4448 21.669 12.4556 21.6542C12.4772 21.6245 12.4913 21.6272 12.4981 21.6623C12.5129 21.7283 12.5304 21.797 12.5506 21.8684Z" fill="#974399"/>
</svg>
