<svg width="40" height="40" viewBox="0 0 40 40" fill="none" xmlns="http://www.w3.org/2000/svg">
<circle cx="20" cy="20" r="20" fill="#1C1C1B"/>
<g clip-path="url(#clip0_9_391961)">
<path d="M21.1664 22.4771V26.6214L21.1629 26.6231H18.6586L18.6577 26.6179V14.0018L18.6629 14.001H23.2137L23.4004 14.0036L23.6211 14.0123L23.8112 14.0237L23.9979 14.0402L24.1811 14.0612L24.3608 14.0865L24.5352 14.1161L24.7071 14.151L24.8763 14.1911L25.0429 14.2374L25.2078 14.2888L25.37 14.3455L25.5297 14.4075L25.6875 14.4746L25.8524 14.5514L25.9859 14.6194L26.1176 14.6927L26.2484 14.7712L26.3775 14.855L26.4482 14.9038L26.5188 14.9553L26.5895 15.0102L26.6602 15.0678L26.7299 15.128L26.7997 15.1908L26.8695 15.2562L26.9393 15.3242L27.0126 15.4001L27.0789 15.4743L27.1617 15.5737L27.2411 15.6749L27.3161 15.7787L27.3868 15.8843L27.4531 15.9916L27.5159 16.1006L27.5743 16.2114L27.6284 16.3248L27.693 16.4757L27.7505 16.6292L27.7933 16.7609L27.8325 16.8953L27.8674 17.0322L27.8979 17.1718L27.925 17.314L27.9477 17.4588L27.966 17.6062L27.9799 17.7562L27.9895 17.8949L27.9956 18.0319L27.9991 18.1688V18.304L27.9965 18.4383L27.9904 18.5701L27.9808 18.7018L27.9677 18.8309L27.952 18.9591L27.9328 19.0847L27.911 19.2103L27.8857 19.3324L27.857 19.4537L27.8255 19.5723L27.7907 19.6901L27.7531 19.8052L27.713 19.916L27.6703 20.0242L27.624 20.1306L27.5752 20.2344L27.5229 20.3365L27.4679 20.4368L27.4095 20.5345L27.3484 20.6304L27.2708 20.7421L27.1888 20.8511L27.1024 20.9575L27.0117 21.0605L26.8966 21.1817L26.7814 21.2925L26.6671 21.3937L26.5529 21.4844L26.4403 21.5664L26.3296 21.6432L26.2205 21.7138L26.1124 21.7784L25.9527 21.8656L25.7852 21.9485L25.609 22.027L25.425 22.1002L25.2985 22.1465L25.1712 22.1892L25.0421 22.2285L24.9121 22.2642L24.7812 22.2974L24.6486 22.327L24.5152 22.3532L24.38 22.3759L24.2012 22.4021L24.0232 22.4239L23.8051 22.4439L23.5827 22.4579L23.3515 22.4657L23.1047 22.4684H21.1699L21.1647 22.4701L21.1629 22.4753L21.1664 22.4771ZM23.1125 20.1079V20.1114V20.1175L23.1186 20.1193H23.219L23.3193 20.1158L23.4327 20.1097L23.5461 20.1001L23.6595 20.087L23.7729 20.0704L23.8688 20.0538L23.963 20.0338L24.0555 20.0102L24.1462 19.9832L24.2352 19.9527L24.3224 19.9186L24.4079 19.882L24.4916 19.8419L24.5544 19.8079L24.6164 19.7712L24.6774 19.7311L24.7367 19.6883L24.7943 19.643L24.8501 19.595L24.9042 19.5444L24.9557 19.4921L25.0045 19.4371L25.0508 19.3804L25.0953 19.322L25.1363 19.2618L25.1746 19.1999L25.2104 19.1371L25.2427 19.0734L25.2715 19.0088L25.2959 18.9478L25.3177 18.8858L25.3378 18.8222L25.3552 18.7585L25.3709 18.6922L25.3849 18.6259L25.3962 18.5579L25.4058 18.4898L25.4128 18.42L25.418 18.3494L25.4206 18.2778V18.2063L25.4198 18.133L25.4163 18.0598L25.4102 17.9848L25.4023 17.9097L25.3918 17.8382L25.3788 17.7667L25.3639 17.6969L25.3456 17.628L25.3255 17.5608L25.3029 17.4954L25.2776 17.4317L25.2497 17.3689L25.22 17.3087L25.1877 17.2503L25.1537 17.1936L25.1171 17.1386L25.0787 17.0863L25.0377 17.0357L24.9949 16.9877L24.9496 16.9415L24.8676 16.8665L24.7812 16.7967L24.6896 16.7313L24.5946 16.6711L24.4951 16.6152L24.3922 16.5647L24.2858 16.5193L24.1767 16.48L24.0616 16.4451L23.9421 16.4146L23.8182 16.3885L23.6909 16.3666L23.56 16.3501L23.4266 16.3379L23.2896 16.33L23.1509 16.3274H22.2027H21.176H21.1725L21.1717 16.3326V20.0957L21.1734 20.1001H21.1769L23.109 20.1009H23.1134L23.116 20.1062L23.1125 20.1079Z" fill="white"/>
<path d="M13 14.1221H15.5035L15.507 14.1256V26.7634H15.5052H13V14.1221Z" fill="white"/>
</g>
<circle cx="20" cy="20" r="19.5" stroke="black" stroke-opacity="0.05"/>
<defs>
<clipPath id="clip0_9_391961">
<rect width="15" height="12.7634" fill="white" transform="translate(13 14)"/>
</clipPath>
</defs>
</svg>
