<svg width="40" height="40" viewBox="0 0 40 40" fill="none" xmlns="http://www.w3.org/2000/svg">
<circle cx="20" cy="20" r="20" fill="#052147"/>
<g clip-path="url(#clip0_9_409966)">
<path fill-rule="evenodd" clip-rule="evenodd" d="M21.435 17.1228C21.0938 17.7202 20.8552 18.372 20.7287 19.0479C20.6022 19.7253 20.5893 20.4188 20.6934 21.0994C20.7959 21.7817 21.0105 22.4399 21.3325 23.0501C21.1648 23.1291 20.994 23.1985 20.82 23.2583C20.6449 23.3181 20.4676 23.3677 20.2882 23.4072C20.1078 23.4478 19.9258 23.4777 19.7421 23.4969C19.5596 23.5172 19.3759 23.5268 19.1912 23.5258L16.7344 23.529V26.1186H16.7312V26.1202H13.3984V14.0879H19.1207C19.1346 14.0879 19.1485 14.0879 19.1624 14.0879C19.1762 14.0879 19.1907 14.0879 19.2056 14.0879C19.2195 14.089 19.2334 14.0895 19.2473 14.0895C19.2611 14.0906 19.275 14.0916 19.2889 14.0927C20.1697 14.1247 20.9689 14.3553 21.6496 14.7429C21.7489 14.7942 21.8465 14.8497 21.9426 14.9095C22.0377 14.9682 22.1306 15.0307 22.2213 15.0969C22.3131 15.1631 22.4017 15.233 22.4872 15.3067C22.5726 15.3793 22.6553 15.4551 22.7354 15.5341C22.2165 15.9873 21.7777 16.5238 21.435 17.1228ZM20.7223 18.7964C20.7223 17.4543 19.7726 16.8874 18.8517 16.8874V16.8842H16.7344V20.7279H18.9221C18.9718 20.7279 19.0182 20.7263 19.0647 20.7247C19.9679 20.6526 20.7223 20.1081 20.7223 18.7964Z" fill="#83BAD8"/>
<path d="M32.9746 19.8039C32.9714 19.7634 32.9687 19.7228 32.9666 19.6822C32.9634 19.6416 32.9596 19.6016 32.9554 19.5621C32.9511 19.5215 32.9468 19.481 32.9426 19.4404C32.9372 19.3998 32.9319 19.3598 32.9265 19.3203C32.9153 19.2258 32.9073 19.1665 32.9073 19.1665V19.1649H28.7305H27.4124H27.0297V21.9692H29.1437C28.4166 22.9205 27.185 23.3385 26.0287 23.023C24.8724 22.7091 24.022 21.7258 23.8779 20.5358C23.7337 19.3459 24.3247 18.188 25.3721 17.605C26.4179 17.0237 27.7135 17.1342 28.6472 17.8853L28.66 17.8917L31.1248 15.7665C28.8202 13.5035 25.1607 13.4026 22.736 15.5342C23.4118 16.2117 23.9179 17.1934 23.9579 18.614C23.9611 18.6684 23.9611 18.7245 23.9627 18.7806L23.9643 18.7966V18.7998C23.9643 18.8318 23.9659 18.8622 23.9659 18.8959C23.9659 20.7408 22.9057 22.3007 21.333 23.0503C22.3676 25.0185 24.432 26.3638 26.8055 26.3638C29.1757 26.3638 31.2369 25.0217 32.2731 23.0599C32.2731 23.0599 32.2731 23.0604 32.2731 23.0615C32.2731 23.0615 32.2731 23.062 32.2731 23.0631C32.2731 23.0631 32.2736 23.0636 32.2747 23.0647C32.2747 23.0657 32.2747 23.0663 32.2747 23.0663C32.358 22.9136 32.4317 22.7566 32.4957 22.5954C32.5694 22.4214 32.6351 22.2447 32.6927 22.0653C32.7504 21.8849 32.7995 21.7023 32.8401 21.5176C32.8806 21.3329 32.9127 21.1471 32.9361 20.9602C32.9596 20.7723 32.9746 20.5839 32.981 20.3949C32.9821 20.3768 32.9831 20.3586 32.9842 20.3405C32.9853 20.3223 32.9858 20.3041 32.9858 20.286C32.9869 20.2678 32.9879 20.2492 32.989 20.2299C32.989 20.2118 32.989 20.1936 32.989 20.1755C32.989 20.057 32.9826 19.9289 32.9746 19.8039Z" fill="#095AA5"/>
<path d="M23.9658 18.8958C23.9658 18.8622 23.9642 18.8301 23.9642 18.7997V18.7965L23.9626 18.7805C23.9626 18.7244 23.961 18.6684 23.9578 18.6139C23.9177 17.1934 23.4116 16.21 22.7358 15.5342C22.2169 15.9874 21.7781 16.5239 21.4353 17.1229C21.0942 17.7203 20.8556 18.3721 20.7291 19.048C20.6025 19.7254 20.5897 20.4189 20.6938 21.0995C20.7963 21.7818 21.0109 22.44 21.3328 23.0502C22.9056 22.3007 23.9658 20.7408 23.9658 18.8958Z" fill="#052147"/>
<path d="M8 14.1172L8.01441 26.1207H11.3248L11.312 14.1172H8Z" fill="#83BAD8"/>
</g>
<circle cx="20" cy="20" r="19.5" stroke="black" stroke-opacity="0.05"/>
<defs>
<clipPath id="clip0_9_409966">
<rect width="25" height="12.3639" fill="white" transform="translate(8 14)"/>
</clipPath>
</defs>
</svg>
