<svg width="40" height="40" viewBox="0 0 40 40" fill="none" xmlns="http://www.w3.org/2000/svg">
<circle cx="20" cy="20" r="20" fill="#F6F8FA"/>
<g clip-path="url(#clip0_9_393735)">
<path fill-rule="evenodd" clip-rule="evenodd" d="M19.9076 16.3145C19.9076 16.2755 19.9431 16.2435 19.9858 16.2435H21.8548C21.8975 16.2435 21.933 16.2755 21.933 16.3145V24.7305C21.933 24.7714 21.8975 24.8034 21.8548 24.8034H19.9858C19.9431 24.8034 19.9076 24.7714 19.9076 24.7305V16.3145ZM6.17411 19.4326C6.17411 19.3917 6.20964 19.3597 6.25228 19.3597H8.11954C8.16396 19.3597 8.19949 19.3917 8.19949 19.4326V24.7305C8.19949 24.7696 8.16396 24.8034 8.11954 24.8034H6.25228C6.20964 24.8034 6.17411 24.7696 6.17411 24.7305V19.4326ZM18.6853 23.4691L17.6406 24.7785C17.6122 24.8123 17.5624 24.8194 17.5287 24.7909L16.5373 23.9914C16.5018 23.963 16.452 23.9612 16.4129 23.9879C15.9048 24.3557 15.3079 24.6186 14.6505 24.7376C12.284 25.1676 10.0188 23.5935 9.59239 21.2199C9.16421 18.848 10.7383 16.5739 13.1048 16.144C15.4713 15.714 17.7348 17.2881 18.1629 19.6618C18.3424 20.6638 18.1665 21.648 17.7241 22.4831C17.7135 22.5044 17.7099 22.5293 17.7152 22.5506C17.7188 22.5737 17.7312 22.595 17.7508 22.611L18.6746 23.3572C18.7084 23.3838 18.7137 23.4336 18.6853 23.4691ZM16.3312 19.994C16.0825 18.6064 14.7784 17.6772 13.4246 17.9242C12.0708 18.1694 11.1736 19.4983 11.4223 20.8876C11.6728 22.2752 12.9769 23.2044 14.3307 22.9574C15.6827 22.7123 16.5817 21.3833 16.3312 19.994ZM34 16.3145V24.7305C34 24.7696 33.9645 24.8034 33.9218 24.8034H32.0528C32.0102 24.8034 31.9746 24.7696 31.9746 24.7305V16.3145C31.9746 16.2737 32.0102 16.2417 32.0528 16.2417H33.9218C33.9645 16.2417 34 16.2737 34 16.3145ZM7.1868 18.459C6.52944 18.459 6 17.926 6 17.2668C6 16.6077 6.52944 16.0747 7.1868 16.0747C7.84239 16.0747 8.37183 16.6077 8.37183 17.2668C8.37183 17.926 7.84239 18.459 7.1868 18.459ZM31.0561 16.3803L28.098 21.3851C28.0695 21.4331 28.0553 21.4881 28.0553 21.545V24.7145C28.0553 24.7643 28.0162 24.8034 27.9683 24.8034H26.0957C26.0477 24.8034 26.0086 24.7643 26.0086 24.7145V21.545C26.0086 21.4881 25.9944 21.4331 25.966 21.3851L23.0079 16.3803C22.9635 16.2968 23.0239 16.2417 23.0772 16.2417H25.0688C25.1025 16.2417 25.1345 16.2595 25.1505 16.2879L27 19.5942L27.0018 19.5978C27.0071 19.6049 27.0178 19.6191 27.032 19.6191L27.0391 19.6173C27.0533 19.6138 27.064 19.5942 27.064 19.5942L28.9135 16.2879C28.9294 16.2595 28.9614 16.2417 28.9952 16.2417H30.9868C31.0383 16.2417 31.1005 16.2968 31.0561 16.3803Z" fill="#00DC5A"/>
</g>
<circle cx="20" cy="20" r="19.5" stroke="black" stroke-opacity="0.05"/>
<defs>
<clipPath id="clip0_9_393735">
<rect width="28" height="8.88325" fill="white" transform="translate(6 16)"/>
</clipPath>
</defs>
</svg>
