<svg width="40" height="40" viewBox="0 0 40 40" fill="none" xmlns="http://www.w3.org/2000/svg">
<circle cx="20" cy="20" r="20" fill="#F6F8FA"/>
<path d="M7.46833 14.5734C8.27899 14.5734 8.93725 13.9151 8.93725 13.1051C8.93725 12.2938 8.27899 11.6367 7.46833 11.6367C6.6571 11.6367 6 12.2932 6 13.1051C6 13.9151 6.6571 14.5734 7.46833 14.5734Z" fill="#F2B207"/>
<path d="M13.5099 13.9372C14.3212 13.9372 14.9789 13.2801 14.9789 12.4683C14.9789 11.6577 14.3212 11 13.5099 11C12.6998 11 12.041 11.6577 12.041 12.4683C12.041 13.2807 12.6998 13.9372 13.5099 13.9372Z" fill="#F2B207"/>
<path d="M17.8584 18.1025C18.6702 18.1025 19.3273 17.4431 19.3273 16.6324C19.3273 15.8217 18.6702 15.1641 17.8584 15.1641C17.0483 15.1641 16.3906 15.8217 16.3906 16.6324C16.3906 17.4431 17.0478 18.1025 17.8584 18.1025Z" fill="#F2B207"/>
<path d="M23.4035 21.2894C24.2147 21.2894 24.8736 20.63 24.8736 19.8211C24.8736 19.0087 24.2147 18.3516 23.4035 18.3516C22.5923 18.3516 21.9346 19.0087 21.9346 19.8211C21.9346 20.63 22.5923 21.2894 23.4035 21.2894Z" fill="#F2B207"/>
<path d="M23.4035 26.5642C24.2147 26.5642 24.8736 25.9088 24.8736 25.0964C24.8736 24.2846 24.2147 23.627 23.4035 23.627C22.5923 23.627 21.9346 24.2846 21.9346 25.0964C21.9346 25.9094 22.5923 26.5642 23.4035 26.5642Z" fill="#F2B207"/>
<path d="M29.5256 28.7498C30.3362 28.7498 30.9939 28.0926 30.9939 27.2809C30.9939 26.4702 30.3362 25.8125 29.5256 25.8125C28.7149 25.8125 28.0566 26.4702 28.0566 27.2809C28.0561 28.0926 28.7143 28.7498 29.5256 28.7498Z" fill="#F2B207"/>
<path d="M32.5318 23.6665C33.3431 23.6665 34.0001 23.0082 34.0001 22.1976C34.0001 21.3869 33.3431 20.7305 32.5318 20.7305C31.7211 20.7305 31.0635 21.3869 31.0635 22.1976C31.0635 23.0082 31.7211 23.6665 32.5318 23.6665Z" fill="#F2B207"/>
<circle cx="20" cy="20" r="19.5" stroke="black" stroke-opacity="0.05"/>
</svg>
