<svg width="40" height="40" viewBox="0 0 40 40" fill="none" xmlns="http://www.w3.org/2000/svg">
<circle cx="20" cy="20" r="20" fill="#99C03C"/>
<g clip-path="url(#clip0_9_396106)">
<path d="M14.6609 10.3906L15.372 10.9981C17.7836 13.0569 19.6472 15.7269 20.7054 18.9128C21.7632 22.0756 21.8983 25.4196 21.2577 28.681L21.0762 29.6088L20.3641 29.0013C19.9181 28.6207 19.4905 28.2182 19.0828 27.7954C19.0854 27.9106 19.087 28.0258 19.087 28.1404V29.086L18.2717 28.6328C16.2751 27.5212 14.5741 25.9087 13.3844 23.8183C12.1973 21.7322 11.6182 19.3896 11.6182 16.9837V16.0344L12.4345 16.4924C13.0729 16.8494 13.6815 17.259 14.2543 17.7171C13.9735 15.5978 14.0618 13.4404 14.4784 11.3185L14.6609 10.3906ZM14.582 19.5085C14.0246 18.9448 13.4132 18.4394 12.7569 17.9999C12.8963 19.8572 13.4196 21.6433 14.3375 23.2558C15.2463 24.8533 16.4855 26.1476 17.9456 27.1253C17.9262 26.8788 17.8993 26.634 17.8652 26.3929C16.6262 24.8047 15.6673 23.0095 15.0312 21.0872C14.8577 20.5683 14.7075 20.0415 14.582 19.5085ZM15.392 12.5158C14.9897 15.2854 15.1885 18.0787 16.0742 20.7256V20.7272C16.9279 23.3044 18.3952 25.6259 20.3451 27.4842C20.747 24.7146 20.5482 21.9208 19.6624 19.2738V19.2722C18.8087 16.6953 17.3419 14.374 15.392 12.5158ZM27.784 13.4158L27.9996 14.3372C28.5903 16.8416 28.4941 19.4631 27.7214 21.9154V21.9171C26.9319 24.4231 25.4718 26.6142 23.5583 28.3751L22.8688 29.0099L22.6531 28.0885C22.0745 25.6146 22.1198 23.0378 22.9324 20.5071C23.7214 18.0015 25.182 15.811 27.0944 14.0506L27.784 13.4158ZM27.1207 15.5838C25.6911 17.0881 24.6055 18.8678 23.9807 20.8515L23.9796 20.8542C23.3411 22.8438 23.2169 24.8662 23.5315 26.8429C24.9611 25.3387 26.0472 23.559 26.6715 21.5753C27.2814 19.6418 27.4353 17.5892 27.1207 15.5838Z" fill="white"/>
</g>
<circle cx="20" cy="20" r="19.5" stroke="black" stroke-opacity="0.05"/>
<defs>
<clipPath id="clip0_9_396106">
<rect width="18" height="20" fill="white" transform="translate(11 10)"/>
</clipPath>
</defs>
</svg>
