<svg width="40" height="40" viewBox="0 0 40 40" fill="none" xmlns="http://www.w3.org/2000/svg">
<circle cx="20" cy="20" r="20" fill="#122B82"/>
<g clip-path="url(#clip0_9_411588)">
<path d="M35.4284 18.4408L35.3391 19.5157H34.9013C34.2025 19.5157 33.8393 20.0769 33.8393 20.615V23.2147H32.5999V18.4408H33.7737L33.8001 19.0149C34.0463 18.6215 34.477 18.4408 35.0086 18.4408H35.4284ZM26.8392 23.2147H25.5991V20.6098C25.5991 20.1007 25.5554 19.4591 24.8406 19.4591C24.1521 19.4591 23.8776 19.9573 23.8776 20.5372V23.2147H22.5713V18.4408H23.8313L23.857 19.0291C24.1032 18.635 24.5191 18.3283 25.1954 18.3283C26.4451 18.3283 26.8392 19.2226 26.8392 20.1534V23.2147ZM22.0975 21.9676L22.0107 23.0154C21.7137 23.0951 21.4495 23.2147 21.13 23.2147C19.9619 23.2147 19.6225 22.5866 19.6225 21.5073V17.1423H20.8632V18.4408H22.0962L22.0107 19.5151H20.8626V21.4134C20.8626 21.8467 20.9815 22.0807 21.4244 22.0807C21.6173 22.0807 21.8314 22.0576 22.0975 21.9682V21.9676ZM19.2156 18.4408L19.1191 19.5157H18.7829C18.0854 19.5157 17.7383 20.0763 17.7383 20.615V23.2147H16.4982V18.4408H17.6721L17.6965 19.0149C17.944 18.6215 18.3754 18.4408 18.907 18.4408H19.2156ZM10.9999 22.5333C10.1157 23.0148 9.11821 23.2493 8.11215 23.2121C6.055 23.1491 4.57129 21.8686 4.57129 19.7047C4.57129 17.5511 6.06915 16.1754 8.11343 16.1433C9.14908 16.1272 10.0761 16.3908 10.8006 17.0317L9.92822 17.9169C9.4795 17.5338 8.81993 17.3101 8.03179 17.3461C6.74543 17.4058 5.97015 18.3425 5.95343 19.6314C5.93672 21.0264 6.79043 21.9888 8.125 22.0241C8.75307 22.0396 9.20307 21.9553 9.592 21.7798V20.3527H8.20472L8.29857 19.1827H10.9999V22.532V22.5333ZM32.0464 21.2861H28.6469C28.7434 21.8743 29.2049 22.1212 29.779 22.1373C30.3376 22.1521 30.6494 21.983 31.0583 21.5683L31.867 22.1874C31.2923 22.8971 30.6025 23.2147 29.8163 23.2147C28.4341 23.2147 27.3979 22.1861 27.3979 20.7416C27.3979 19.2984 28.4284 18.3283 29.7642 18.3283C31.2364 18.3283 32.0464 19.2226 32.0464 20.8098V21.2861ZM30.8044 20.2171C30.7658 19.6359 30.3319 19.2682 29.7334 19.2913C29.131 19.3145 28.7305 19.7073 28.6469 20.2171H30.8044ZM15.7178 20.0293V23.2147H14.6249L14.5973 22.5892C14.2617 23.0058 13.7172 23.2147 13.1573 23.2147C12.3126 23.2147 11.5148 22.7383 11.4987 21.7663C11.473 20.2383 13.2132 20.1296 14.3061 20.1296H14.5246V20.0698C14.5246 19.5646 14.191 19.292 13.5636 19.292C13.1129 19.292 12.6681 19.4726 12.3389 19.7818L11.6234 19.0535C12.2727 18.5251 12.949 18.3283 13.669 18.3283C15.091 18.3283 15.7178 18.9873 15.7178 20.0293ZM14.5246 21.0361H14.3524C13.7654 21.0373 12.7343 21.0663 12.7381 21.6815C12.7439 22.5487 14.5253 22.2729 14.5253 21.2276L14.5246 21.0361Z" fill="white"/>
</g>
<circle cx="20" cy="20" r="19.5" stroke="black" stroke-opacity="0.05"/>
<defs>
<clipPath id="clip0_9_411588">
<rect width="32" height="8" fill="white" transform="translate(4 16)"/>
</clipPath>
</defs>
</svg>
