<svg width="40" height="40" viewBox="0 0 40 40" fill="none" xmlns="http://www.w3.org/2000/svg">
<circle cx="20" cy="20" r="20" fill="#01207B"/>
<g clip-path="url(#clip0_9_411693)">
<path d="M30.3212 14.5361H28.5004L27.5964 16.3563H29.1069L30.3212 14.5361ZM32.1426 16.9647H29.711V22.2408C29.711 23.4314 29.1009 23.7125 28.4105 23.7125C27.753 23.7125 27.274 23.4654 27.2855 22.2414L27.2825 16.9647H24.8539V22.5443C24.8539 24.5661 26.0712 25.4647 27.6528 25.4647C28.756 25.4756 29.8422 25.1041 30.3212 24.2504H30.3334L30.3212 25.4647H32.1426V16.9647ZM23.6426 19.4218C23.6426 17.4565 21.137 16.9659 19.9998 16.9659C18.3629 16.9659 16.6131 17.5743 16.3569 20.0004H18.1784C18.2451 19.5402 18.9531 18.5591 19.9998 18.5591C20.5462 18.5591 21.534 18.8383 21.534 19.7138C21.534 20.1631 20.8237 20.287 20.4898 20.3319L18.5961 20.6124C17.2482 20.8037 16.3569 21.5857 16.3569 23.1357C16.3569 24.7756 17.4935 25.4647 18.6853 25.4647C20.1334 25.4647 21.3531 24.7331 21.8212 24.2504V25.4647H23.6426V19.4218ZM14.5355 14.5361H12.1069V16.9665H10.8926V18.7861H12.1094V23.7422C12.1094 24.7641 12.5137 25.4647 14.3406 25.4647H14.6193C14.9532 25.4647 15.4268 25.4756 15.7498 25.4647V23.6433C15.6047 23.6548 15.4444 23.6846 15.3108 23.6846C14.4529 23.6846 14.5355 23.5085 14.5355 23.0361V18.7861H15.7498V16.9659H14.5355V14.5361ZM10.2879 14.5361H7.85693V25.4647H10.2879V14.5361Z" fill="#F9E806"/>
<path d="M21.5191 22.3091V21.2217C21.2951 21.4008 20.918 21.5441 20 21.6758C19.164 21.8191 18.481 22.034 18.481 22.9545C18.481 23.7195 19.0936 23.9702 19.5174 23.9702C20.5064 23.9702 21.5191 23.337 21.5191 22.3091Z" fill="#01207B"/>
</g>
<circle cx="20" cy="20" r="19.5" stroke="black" stroke-opacity="0.05"/>
<defs>
<clipPath id="clip0_9_411693">
<rect width="26" height="12" fill="white" transform="translate(7 14)"/>
</clipPath>
</defs>
</svg>
