<svg width="40" height="40" viewBox="0 0 40 40" fill="none" xmlns="http://www.w3.org/2000/svg">
<circle cx="20" cy="20" r="20" fill="#BF2519"/>
<g clip-path="url(#clip0_9_400650)">
<path d="M5.719 25.1431L8.97507 14.8587H8.47043L5.21436 25.1431H5.719ZM6.54571 25.1431L9.80178 14.8587H9.29714L6.04107 25.1431H6.54571ZM7.37243 25.1431L10.6285 14.8587H10.1239L6.86778 25.1431H7.37243ZM8.19914 25.1431L11.4552 14.8587H10.9506L7.6945 25.1431H8.19914ZM14.9376 25.1431L17.5315 16.786H20.1769L20.8422 14.8574L11.9579 14.8606L11.2932 16.7899L14.5017 16.7918L11.9084 25.1431H14.9376ZM32.1874 14.8606C31.2051 16.8998 29.5947 20.6464 29.5947 20.6464L29.9444 14.8639L26.8549 14.8613L23.7601 20.647L24.4763 14.8632L21.4099 14.8639L21.0094 25.1457H23.971L27.3254 18.7178L27.2721 25.1406L30.1167 25.1425L35.4286 14.8639L32.1874 14.8606ZM29.8448 24.499L27.7799 24.5035L27.9136 17.1074C27.9136 16.9101 27.7234 16.9654 27.6501 17.1106C26.3322 19.7014 25.0401 21.9417 23.6682 24.5035H21.4915L21.8155 15.5035H23.8913L23.2587 22.4052C23.2587 22.4618 23.3519 22.5241 23.4111 22.4039C24.5862 20.017 25.8488 17.8474 27.1043 15.5016L29.4064 15.5035C29.3517 17.1659 29.1859 22.4624 29.1859 22.4624C29.1859 22.5222 29.2701 22.5749 29.3318 22.3956C29.3318 22.3956 31.4179 17.8506 32.548 15.4984L34.456 15.5035L29.8448 24.499Z" fill="white"/>
</g>
<circle cx="20" cy="20" r="19.5" stroke="black" stroke-opacity="0.05"/>
<defs>
<clipPath id="clip0_9_400650">
<rect width="31" height="12" fill="white" transform="translate(5 14)"/>
</clipPath>
</defs>
</svg>
