<svg width="40" height="40" viewBox="0 0 40 40" fill="none" xmlns="http://www.w3.org/2000/svg">
<circle cx="20" cy="20" r="20" fill="#000AD2"/>
<g clip-path="url(#clip0_9_405615)">
<path d="M23.7884 25.1541L22.9427 25.9999L22.1141 25.1599L21.6741 23.857L20.417 23.4227L20.4113 22.6113H19.5884L19.1541 24.6741L19.5999 26.0113L17.6684 26.857L17.0799 26.017L17.4856 25.177V24.2741L16.2284 24.2799L14.5599 26.0284L13.3027 25.6284L13.2913 23.8856L11.097 23.5427L9.51415 24.3884L8.577 23.9884L8.57129 22.217L9.417 21.8056L12.7884 20.1427L13.2799 20.5427L14.537 19.297V18.4799L16.1999 16.8227L17.0456 15.0513L18.297 12.9884L20.377 12.577L21.2284 12.5713V13.3827L22.9027 15.0341L22.9084 16.8056L25.5256 19.2627L28.0513 20.9313L29.3084 21.3313L29.7541 22.5827L31.4284 23.3884L30.5827 24.2341H29.7599V23.3941L28.497 22.9941L26.3827 20.937L24.7084 20.1027L22.9141 17.617L22.0913 16.8056L22.4913 15.4684L21.2341 14.2227L20.3827 15.0399L20.3884 16.8113L19.5713 17.6227L21.2456 19.2741L20.3999 20.1141L22.1084 21.7656V22.6056L22.937 24.2627L23.7827 24.257L24.7199 23.4113L24.2799 23.0113L23.777 21.7599H24.7141L25.537 23.4056L26.3941 24.2456L23.7884 25.1541Z" fill="white"/>
</g>
<circle cx="20" cy="20" r="19.5" stroke="black" stroke-opacity="0.05"/>
<defs>
<clipPath id="clip0_9_405615">
<rect width="24" height="15" fill="white" transform="translate(8 12)"/>
</clipPath>
</defs>
</svg>
