<svg width="40" height="40" viewBox="0 0 40 40" fill="none" xmlns="http://www.w3.org/2000/svg">
<circle cx="20" cy="20" r="20" fill="black"/>
<g clip-path="url(#clip0_9_409115)">
<path fill-rule="evenodd" clip-rule="evenodd" d="M30.7224 22.3056L31.1359 21.3298C31.6355 21.657 32.2273 21.8726 32.6329 21.8726C33.1208 21.8726 33.3932 21.7315 33.3932 21.4885C33.3932 21.2632 33.2619 21.1495 32.8759 21.0653L32.3037 20.9438C31.324 20.7459 30.8635 20.2952 30.8635 19.5251C30.8635 18.5571 31.6532 17.9359 32.8681 17.9359C33.5343 17.9359 34.1378 18.1142 34.5787 18.4336L34.1555 19.4016C33.6656 19.1195 33.2521 18.998 32.821 18.998C32.435 18.998 32.1999 19.1489 32.1999 19.3918C32.1999 19.5702 32.3684 19.7132 32.678 19.7779L33.2992 19.9091C34.2867 20.1149 34.757 20.5871 34.757 21.3847C34.757 22.3154 33.8929 22.9542 32.6506 22.9542C31.8805 22.9444 31.1457 22.7014 30.7224 22.3056ZM26.7446 22.2214C26.7348 22.4369 26.7152 22.6348 26.6976 22.8229H25.4749C25.5121 22.3428 25.5317 21.949 25.5317 21.4963V16.0195H26.8289V18.6609C27.1306 18.2103 27.6186 17.9359 28.2593 17.9359C29.4428 17.9359 30.3638 18.9039 30.3638 20.446C30.3638 22.0332 29.3488 22.9542 28.2123 22.9542C27.6283 22.9542 27.0934 22.7093 26.7446 22.2214ZM29.0294 20.446C29.0294 19.6093 28.5885 19.1097 27.9007 19.1097C27.2149 19.1097 26.774 19.6093 26.774 20.446C26.774 21.2808 27.2149 21.7785 27.9007 21.7785C28.5885 21.7785 29.0294 21.2808 29.0294 20.446ZM22.4376 22.9542C21.0738 22.9542 19.9726 21.8334 19.9726 20.446C19.9726 19.0587 21.0738 17.9359 22.4376 17.9359C23.7995 17.9359 24.9007 19.0587 24.9007 20.446C24.9007 21.8334 23.7995 22.9542 22.4376 22.9542ZM23.5663 20.446C23.5663 19.6093 23.1234 19.1097 22.4376 19.1097C21.7498 19.1097 21.3089 19.6093 21.3089 20.446C21.3089 21.2808 21.7498 21.7785 22.4376 21.7785C23.1234 21.7785 23.5663 21.2808 23.5663 20.446ZM15.6558 20.446C15.6558 19.092 16.6061 17.9359 18.2325 17.9359C18.8635 17.9359 19.4278 18.124 19.8413 18.4807L19.324 19.5055C18.9948 19.2899 18.6009 19.1391 18.26 19.1391C17.4526 19.1391 16.9922 19.6662 16.9922 20.446C16.9922 21.2534 17.4605 21.7511 18.1953 21.7511C18.5539 21.7511 19.0144 21.6002 19.371 21.3749L19.8413 22.3624C19.4376 22.7289 18.7694 22.9542 18.1208 22.9542C16.5963 22.9542 15.6558 21.9862 15.6558 20.446ZM13.8981 22.3056C13.663 22.5976 13.1927 22.9542 12.4579 22.9542C11.4703 22.9542 10.8217 22.4095 10.8217 21.4963C10.8217 20.6518 11.3292 20.0228 12.5813 19.9562L13.7649 19.9013V19.7034C13.7649 19.2331 13.4651 18.998 13.0026 18.998C12.5343 18.998 12.2619 19.1959 12.1855 19.5055H10.9628C11.0568 18.8099 11.6584 17.9359 13.0418 17.9359C14.3194 17.9359 15.0444 18.6511 15.0444 19.8151V21.3298C15.0444 21.7785 15.111 22.4291 15.2051 22.8229H13.9824C13.953 22.6897 13.9157 22.5035 13.8981 22.3056ZM13.7649 20.8027L12.8439 20.8497C12.3089 20.8771 12.1091 21.1025 12.1091 21.4121C12.1091 21.7707 12.354 21.9392 12.7969 21.9392C13.2299 21.9392 13.7649 21.7315 13.7649 21.1025V20.8027ZM8.8759 17.3167H7.56891V16.0215H10.2476V18.6237H8.8759V17.3167ZM5 20.5303H6.36381C6.43828 21.1789 6.86153 21.6394 7.59634 21.6394C8.37622 21.6394 8.8759 21.1142 8.8759 20.305V19.4879H10.2476V20.305C10.2476 21.8471 9.1757 22.9542 7.59634 22.9542C6.10124 22.9542 5.07446 21.949 5 20.5303Z" fill="white"/>
<path fill-rule="evenodd" clip-rule="evenodd" d="M34.606 22.6344C34.606 22.5952 34.6138 22.5639 34.6295 22.5345C34.6432 22.507 34.6667 22.4855 34.6941 22.4718C34.7235 22.4541 34.7549 22.4482 34.7941 22.4482C34.8313 22.4482 34.8646 22.4541 34.892 22.4718C34.9195 22.4861 34.9417 22.507 34.9587 22.5345C34.973 22.5632 34.9802 22.5965 34.9802 22.6344C34.9802 22.6723 34.973 22.7056 34.9587 22.7343C34.9417 22.7618 34.9195 22.7827 34.892 22.797C34.8646 22.8127 34.8313 22.8205 34.7941 22.8205C34.7549 22.8205 34.7235 22.8127 34.6941 22.797C34.6667 22.7833 34.6432 22.7618 34.6295 22.7343C34.6138 22.7049 34.606 22.6716 34.606 22.6344ZM34.7941 22.7872C34.8411 22.7872 34.8783 22.7735 34.9038 22.748C34.9312 22.7206 34.943 22.6814 34.943 22.6344C34.943 22.5854 34.9312 22.5482 34.9038 22.5207C34.8783 22.4953 34.8411 22.4816 34.7941 22.4816C34.7451 22.4816 34.7079 22.4953 34.6824 22.5207C34.6549 22.5482 34.6432 22.5854 34.6432 22.6344C34.6432 22.6814 34.6549 22.7206 34.6824 22.7461C34.7079 22.7735 34.7451 22.7872 34.7941 22.7872ZM34.7333 22.7265V22.5423C34.7451 22.5403 34.7549 22.5403 34.7647 22.5403C34.7745 22.5384 34.7823 22.5384 34.7902 22.5384C34.8411 22.5384 34.8666 22.558 34.8666 22.5972C34.8666 22.6226 34.8548 22.6403 34.8313 22.6501L34.8705 22.7265H34.8411L34.8058 22.6559C34.8006 22.6573 34.7947 22.6573 34.7882 22.6559C34.7777 22.6559 34.7686 22.6559 34.7608 22.6559V22.7265H34.7333ZM34.7882 22.5639C34.7777 22.5639 34.7679 22.5639 34.7588 22.5639V22.6305C34.7679 22.6318 34.7771 22.6324 34.7862 22.6324C34.8215 22.6324 34.8391 22.6207 34.8391 22.5972C34.8391 22.5834 34.8352 22.5756 34.8274 22.5717C34.8195 22.5665 34.8065 22.5639 34.7882 22.5639Z" fill="white"/>
<path fill-rule="evenodd" clip-rule="evenodd" d="M34.606 22.6344C34.606 22.5952 34.6138 22.5639 34.6295 22.5345C34.6432 22.507 34.6667 22.4855 34.6941 22.4718C34.7235 22.4541 34.7549 22.4482 34.7941 22.4482C34.8313 22.4482 34.8646 22.4541 34.892 22.4718C34.9195 22.4861 34.9417 22.507 34.9587 22.5345C34.973 22.5632 34.9802 22.5965 34.9802 22.6344C34.9802 22.6723 34.973 22.7056 34.9587 22.7343C34.9417 22.7618 34.9195 22.7827 34.892 22.797C34.8646 22.8127 34.8313 22.8205 34.7941 22.8205C34.7549 22.8205 34.7235 22.8127 34.6941 22.797C34.6667 22.7833 34.6432 22.7618 34.6295 22.7343C34.6138 22.7049 34.606 22.6716 34.606 22.6344ZM34.7941 22.7872C34.8411 22.7872 34.8783 22.7735 34.9038 22.748C34.9312 22.7206 34.943 22.6814 34.943 22.6344C34.943 22.5854 34.9312 22.5482 34.9038 22.5207C34.8783 22.4953 34.8411 22.4816 34.7941 22.4816C34.7451 22.4816 34.7079 22.4953 34.6824 22.5207C34.6549 22.5482 34.6432 22.5854 34.6432 22.6344C34.6432 22.6814 34.6549 22.7206 34.6824 22.7461C34.7079 22.7735 34.7451 22.7872 34.7941 22.7872ZM34.7333 22.7265V22.5423C34.7451 22.5403 34.7549 22.5403 34.7647 22.5403C34.7745 22.5384 34.7823 22.5384 34.7902 22.5384C34.8411 22.5384 34.8666 22.558 34.8666 22.5972C34.8666 22.6226 34.8548 22.6403 34.8313 22.6501L34.8705 22.7265H34.8411L34.8058 22.6559C34.8006 22.6573 34.7947 22.6573 34.7882 22.6559C34.7777 22.6559 34.7686 22.6559 34.7608 22.6559V22.7265H34.7333ZM34.7882 22.5639C34.7777 22.5639 34.7679 22.5639 34.7588 22.5639V22.6305C34.7679 22.6318 34.7771 22.6324 34.7862 22.6324C34.8215 22.6324 34.8391 22.6207 34.8391 22.5972C34.8391 22.5834 34.8352 22.5756 34.8274 22.5717C34.8195 22.5665 34.8065 22.5639 34.7882 22.5639Z" fill="white"/>
</g>
<circle cx="20" cy="20" r="19.5" stroke="black" stroke-opacity="0.05"/>
<defs>
<clipPath id="clip0_9_409115">
<rect width="30" height="6.95624" fill="white" transform="translate(5 16)"/>
</clipPath>
</defs>
</svg>
