<svg width="40" height="40" viewBox="0 0 40 40" fill="none" xmlns="http://www.w3.org/2000/svg">
<circle cx="20" cy="20" r="20" fill="#F6F8FA"/>
<path d="M19.165 0H20.827C22.197 0.0693333 23.5557 0.270667 24.903 0.604C24.9244 0.609339 24.9434 0.621582 24.9569 0.638789C24.9705 0.655997 24.9779 0.677185 24.978 0.699V15.104C24.9779 15.1112 24.9759 15.1182 24.9722 15.1244C24.9685 15.1305 24.9631 15.1355 24.9568 15.1389C24.9505 15.1423 24.9433 15.1439 24.9361 15.1436C24.929 15.1432 24.922 15.141 24.916 15.137C21.623 12.996 16.64 13.232 13.844 16.105C13.0607 16.9097 12.553 17.804 12.321 18.788C12.2257 19.1933 12.179 19.7857 12.181 20.565C12.1943 26.5923 12.1967 32.5183 12.188 38.343C12.188 38.3511 12.186 38.359 12.1821 38.3661C12.1783 38.3732 12.1728 38.3792 12.166 38.3837C12.1593 38.3881 12.1516 38.3909 12.1436 38.3916C12.1355 38.3924 12.1274 38.3911 12.12 38.388C9.401 37.208 6.963 35.465 5.015 33.248C1.93567 29.7433 0.264 25.6107 0 20.85V19.149C0.220667 14.8683 1.61667 11.065 4.188 7.739C7.774 3.102 13.245 0.282 19.165 0Z" fill="#880064"/>
<path d="M40 19.1809V20.8119C39.522 31.2609 31.337 39.4299 20.922 39.9999H19.063C17.757 39.9246 16.4516 39.7302 15.147 39.4169C15.1066 39.4072 15.0706 39.3843 15.0448 39.3519C15.019 39.3194 15.005 39.2792 15.005 39.2379C15.0056 32.8699 15.0043 26.4792 15.001 20.0659C15.001 19.3406 15.1466 18.7472 15.438 18.2859C16.623 16.4069 18.956 15.7369 21.054 16.1069C22.709 16.3999 24.392 17.4599 24.858 19.1349C25.471 21.3399 23.691 23.1349 21.729 23.6799C19.971 24.1679 18.016 23.9119 16.559 22.8139C16.391 22.6879 16.2253 22.5522 16.062 22.4069C16.0541 22.3997 16.0442 22.395 16.0337 22.3933C16.0232 22.3916 16.0123 22.393 16.0026 22.3974C15.9928 22.4017 15.9846 22.4088 15.9788 22.4178C15.973 22.4268 15.9699 22.4372 15.97 22.4479L15.976 25.1719C15.976 25.2087 15.9868 25.2448 16.007 25.2757C16.0273 25.3066 16.0561 25.331 16.09 25.3459C18.2066 26.2692 20.3843 26.4206 22.623 25.7999C25.328 25.0509 27.768 22.8489 27.768 19.8859C27.7686 13.8339 27.769 7.76924 27.769 1.6919C27.769 1.67754 27.7725 1.66338 27.7793 1.65072C27.7861 1.63807 27.7959 1.62732 27.8078 1.61946C27.8198 1.61161 27.8335 1.60689 27.8476 1.60574C27.8618 1.6046 27.876 1.60706 27.889 1.6129C31.5976 3.2609 34.5486 5.74024 36.742 9.0509C38.733 12.0579 39.831 15.5679 40 19.1809Z" fill="#FECE00"/>
<circle cx="20" cy="20" r="19.5" stroke="black" stroke-opacity="0.05"/>
</svg>
