<svg width="40" height="40" viewBox="0 0 40 40" fill="none" xmlns="http://www.w3.org/2000/svg">
<circle cx="20" cy="20" r="20" fill="#0C347D"/>
<g clip-path="url(#clip0_9_396568)">
<path d="M7.16479 17.5016H8.33029V23.4071C8.33556 23.6242 8.29801 23.84 8.22011 24.0405C8.14221 24.241 8.02571 24.4217 7.87821 24.5707C7.73063 24.7207 7.55563 24.8363 7.36371 24.91C7.17121 24.9838 6.99329 25 6.76288 25H6.58496V23.7489H6.65146C7.02013 23.7489 7.16654 23.7427 7.16654 23.3165V17.5016H7.16479ZM7.16654 15.005L8.33029 15V16.2523H7.16654V15.005ZM9.76238 19.9981C9.74488 19.8294 9.76121 19.5588 9.81021 19.3976C9.8594 19.2355 9.94009 19.0864 10.047 18.9602C10.1539 18.8339 10.2845 18.7334 10.4303 18.6652C10.6504 18.5611 10.8954 18.5338 11.1308 18.5869C11.3662 18.6401 11.58 18.771 11.7422 18.9614C11.849 19.0876 11.9295 19.2363 11.9785 19.3976C12.0275 19.5588 12.0444 19.8294 12.0269 19.9975L9.76238 19.9981ZM12.9975 20.9411V19.9975C13.0092 19.6838 12.9608 19.2707 12.8546 18.977C12.7479 18.6831 12.5861 18.4158 12.3792 18.1915C12.1721 17.9665 12.0327 17.789 11.7591 17.669C11.4844 17.5507 11.1901 17.4931 10.894 17.4997C9.85979 17.4997 8.68146 18.1934 8.68146 20.4218C8.68146 22.7547 9.97238 23.1215 11.0784 23.1215C11.4443 23.1347 11.8083 23.0613 12.1447 22.9065C12.4801 22.7523 12.7793 22.5203 13.0209 22.2272L12.2375 21.5292C11.9287 21.8698 11.508 22.0678 11.065 22.081C10.8905 22.0935 10.7465 22.0597 10.5516 21.9998C10.3644 21.9429 10.2471 21.9166 10.0925 21.7885C9.81663 21.5598 9.73438 21.3448 9.76763 20.9761L12.9975 20.9411ZM13.5984 15.6237H14.7475V16.876H15.3361V18.1246H14.7475V21.4479C14.7475 21.7623 14.7242 21.8741 14.8391 21.8741H15.332V23.1221H14.681C14.681 23.1221 14.5282 23.1084 14.3625 23.0427C14.2037 22.9773 14.0605 22.8748 13.9431 22.7428C13.8188 22.6107 13.7224 22.4515 13.6607 22.2759C13.599 22.1003 13.5734 21.9126 13.5855 21.7254V18.1246L12.9975 18.1271V16.8748L13.5855 16.876L13.599 15.6237H13.5984ZM18.8291 19.3745C18.9225 19.3551 19.1535 19.4101 19.3057 19.4619C19.4574 19.5144 19.5945 19.6307 19.714 19.7444C19.8324 19.8575 19.9272 19.996 19.9922 20.1509C20.0573 20.3059 20.0911 20.4738 20.0915 20.6437C20.0917 20.8137 20.0581 20.9819 19.9929 21.1369C19.9277 21.292 19.8325 21.4304 19.7135 21.5429C19.5942 21.6561 19.4541 21.7412 19.3022 21.7929C19.1505 21.8454 18.9884 21.8929 18.8297 21.8741H17.0832V19.3745H18.8291ZM15.9165 23.124H19.1424C19.4224 23.1302 19.7012 23.0702 19.9608 22.9578C20.2204 22.8453 20.459 22.6647 20.6795 22.4041C20.9 22.1429 21.0318 21.9854 21.1321 21.7079C21.2325 21.4298 21.268 21.1455 21.268 20.7162C21.2185 20.1512 21.1193 19.9038 20.8965 19.5676C20.6724 19.231 20.3472 18.987 19.9754 18.8764C20.3097 18.7557 20.5989 18.523 20.8002 18.2127C21.0004 17.9041 21.1015 17.5341 21.0884 17.1585C21.0884 15.9011 20.3015 15 18.8332 15H15.9189L15.9165 23.124ZM18.7311 16.2498H19.1995C19.3302 16.2498 19.6417 16.3486 19.7461 16.4473C19.8505 16.5461 19.9485 16.661 19.9754 16.866C20.0022 17.0697 19.9754 17.3241 19.9754 17.3241C19.966 17.3991 19.9736 17.4816 19.8902 17.6265C19.8068 17.7715 19.7205 17.8703 19.6522 17.914C19.3897 18.079 19.2865 18.0846 19.1995 18.1052C19.1482 18.1177 18.9464 18.1271 18.8332 18.1271H17.0832V16.2498H18.7311ZM21.7499 15H22.899V21.5236C22.899 21.7817 23.0373 21.8741 23.3004 21.8741H23.6696V23.124H23.1954C22.412 23.124 21.7499 22.634 21.7499 21.5929V15ZM24.0832 17.4997H25.2499L25.2493 20.7262C25.2376 20.8811 25.2405 21.0649 25.289 21.2123C25.3374 21.3598 25.384 21.4686 25.4838 21.5829C25.5835 21.6973 25.7049 21.7892 25.8396 21.8516C25.9744 21.9141 26.3075 21.9191 26.4235 21.9191C26.5705 21.9191 26.8109 21.9141 26.9456 21.8516C27.0798 21.7892 27.1574 21.7342 27.2571 21.6204C27.3636 21.5002 27.4463 21.3582 27.5004 21.203C27.5572 21.0515 27.5854 20.8894 27.5832 20.7262V17.5016H28.7499V23.124L27.5832 23.1215V22.4991C27.5004 22.7053 27.3038 22.8678 27.1049 22.9678C26.8634 23.089 26.3891 23.1284 26.1225 23.1215C25.881 23.1209 25.461 23.0684 25.2388 22.9684C25.0171 22.868 24.8164 22.7212 24.6485 22.5366C24.4805 22.3522 24.2926 22.1341 24.2063 21.8948C24.1184 21.6563 24.0766 21.4012 24.0832 21.1449V17.4997ZM30.1989 20.0013C30.1814 19.8331 30.1977 19.5613 30.2467 19.4001C30.2958 19.2384 30.3767 19.0898 30.4838 18.9643C30.591 18.8389 30.722 18.7394 30.868 18.6727C31.0138 18.6046 31.1719 18.5502 31.3317 18.5521C31.9903 18.5521 32.3969 19.1376 32.4295 20.0037L30.1989 20.0013ZM33.4148 20.9468V20.0037C33.4265 19.69 33.3775 19.2751 33.2713 18.9814C33.1647 18.6876 33.0031 18.4202 32.7965 18.1959C32.5889 17.9706 32.3409 17.7929 32.0673 17.6734C31.7931 17.5541 31.628 17.4922 31.3317 17.4972C30.298 17.4972 29.1191 18.1959 29.1191 20.4237C29.1191 22.7565 30.3931 23.1215 31.4933 23.1215C31.8596 23.1302 32.0947 23.054 32.4295 22.8946C32.7638 22.7357 33.0609 22.4992 33.2993 22.2022L32.5159 21.5036C32.2085 21.8435 31.9168 22.0391 31.4729 22.0535C31.2991 22.0651 31.125 22.0367 30.9624 21.97C30.7998 21.9034 30.6524 21.8002 30.5302 21.6673C30.3435 21.4629 30.1726 21.2461 30.1989 20.9511L33.4148 20.9468Z" fill="white"/>
</g>
<circle cx="20" cy="20" r="19.5" stroke="black" stroke-opacity="0.05"/>
<defs>
<clipPath id="clip0_9_396568">
<rect width="28" height="10" fill="white" transform="translate(6 15)"/>
</clipPath>
</defs>
</svg>
