<svg width="40" height="40" viewBox="0 0 40 40" fill="none" xmlns="http://www.w3.org/2000/svg">
<circle cx="20" cy="20" r="20" fill="#F6F8FA"/>
<g clip-path="url(#clip0_9_410696)">
<path d="M26.5429 13.5998L26.4457 13.5084L26.3486 13.4169L26.2514 13.3141L26.1486 13.2227L25.88 13.3484L25.6229 13.4855L25.3657 13.6227L25.1143 13.7655L24.8743 13.9084L24.6343 14.0569L24.4057 14.2112L24.1829 14.3655L23.9657 14.5312L23.7543 14.6969L23.5486 14.8627L23.3486 15.0341L23.1543 15.2055L22.9714 15.3884L22.7886 15.5712L22.6172 15.7598L22.6629 16.0512L22.6972 16.3484L22.7314 16.6512L22.7657 16.9541L22.7943 17.2512L22.8114 17.5541L22.84 17.8627L22.8514 18.1655L22.8629 18.4341V18.6969L22.8743 18.9598V19.2169L22.8686 19.4741V19.7255L22.8572 19.9712L22.8457 20.2227L22.8343 20.4684L22.8114 20.7084L22.7943 20.9484L22.7714 21.1827L22.7429 21.4169L22.7143 21.6512L22.68 21.8798L22.6457 22.1027L22.6114 22.3312L22.5714 22.5484L22.5314 22.7655L22.4857 22.9769L22.4343 23.1941L22.3886 23.3998L22.3314 23.6112L22.2743 23.8112L22.2172 24.0169L22.1543 24.2169L22.0914 24.4112L22.0229 24.5998L21.9543 24.7998L21.88 24.9827L21.8114 25.1712L21.7314 25.3484L21.8514 25.5484L21.9714 25.7369L22.1086 25.9255L22.2343 26.1141L22.3772 26.2912L22.52 26.4741L22.6743 26.6512L22.8286 26.8341L22.9943 26.9998L23.16 27.1712L23.3314 27.3369L23.5143 27.4969L23.7029 27.6569L23.8972 27.8055L24.0914 27.9598L24.2914 28.1084L24.4114 28.0455L24.5257 27.9769L24.64 27.9141L24.7543 27.8455L24.8686 27.7712L24.9772 27.6969L25.0914 27.6284L25.1943 27.5541L25.04 27.3655L24.8914 27.1827L24.7429 26.9941L24.6114 26.7998L24.4743 26.6112L24.3429 26.4112L24.2286 26.2112L24.1086 26.0112L23.9943 25.8055L23.88 25.5998L23.7772 25.3941L23.68 25.1827L23.5886 24.9712L23.5029 24.7541L23.4229 24.5369L23.3429 24.3198L23.2743 24.1027L23.2057 23.8741L23.1486 23.6569L23.0914 23.4284L23.04 23.2055L22.9943 22.9769L22.9543 22.7484L22.9257 22.5198L22.8972 22.2798L22.8743 22.0512L22.8572 21.8169L22.84 21.5769V20.8627L22.8514 20.6169L22.8686 20.3598L22.8972 20.1027L22.9314 19.8455L22.9714 19.5941L23.0114 19.3427L23.0686 19.0912L23.1257 18.8398L23.1886 18.5998L23.2629 18.3598L23.3372 18.1198L23.4286 17.8798L23.52 17.6512L23.6172 17.4169L23.72 17.1884L23.8343 16.9598L23.9486 16.7312L24.0686 16.5198L24.1943 16.2969L24.3257 16.0855L24.4686 15.8741L24.6172 15.6684L24.7657 15.4627L24.92 15.2627L25.08 15.0627L25.2457 14.8684L25.4172 14.6798L25.5943 14.4855L25.7714 14.3141L25.96 14.1255L26.1486 13.9541L26.3486 13.7827L26.5429 13.6055V13.5998Z" fill="#29B582"/>
<path d="M24.4173 11.9769L24.2973 11.914L24.1716 11.8454L24.0459 11.7883L23.9259 11.7197L23.663 11.8454L23.4059 11.9712L23.1602 12.1026L22.9145 12.234L22.6745 12.3769L22.4345 12.5254L22.2059 12.674L21.9716 12.8283L22.0173 12.9826L22.063 13.1426L22.103 13.2969L22.1487 13.4569L22.1887 13.6169L22.223 13.7769L22.263 13.9369L22.303 14.1026L22.5545 13.8169L22.8116 13.5426L23.0802 13.2683L23.3373 12.9997L23.6059 12.7369L23.8802 12.4797L24.143 12.2283L24.4173 11.9769ZM21.7659 29.0112L21.9087 28.9769L22.0573 28.9483L22.1945 28.9197L22.3373 28.874L22.4745 28.8397L22.6173 28.794L22.7545 28.754L22.8916 28.7083L22.663 28.4512L22.4459 28.194L22.2173 27.9197L22.0059 27.6454L21.7887 27.3654L21.5773 27.0797L21.3773 26.7826L21.1773 26.4912L21.0745 26.6626L20.9716 26.834L20.8687 26.9997L20.7602 27.1654L20.6516 27.3254L20.5373 27.4797L20.4287 27.634L20.3145 27.7883L20.4802 27.9483L20.6516 28.1083L20.8287 28.2683L21.0116 28.4226L21.1887 28.5712L21.383 28.7197L21.5716 28.8683L21.7659 29.0112Z" fill="#00B5C2"/>
<path d="M28.9028 17.9082L28.7256 18.0568L28.5542 18.2168L28.4056 18.3882L28.2513 18.5539L28.1828 18.6396L28.1085 18.7253L28.0456 18.8168L27.977 18.9025L27.9142 18.9996L27.8456 19.0911L27.7885 19.1825L27.7313 19.2739L27.6742 19.3711L27.6228 19.4739L27.5713 19.5653L27.5199 19.6625L27.4685 19.7653L27.4285 19.8625L27.3885 19.9711L27.3485 20.0796L27.3085 20.1768L27.2742 20.2853L27.2399 20.3882L27.2056 20.5025L27.177 20.6053L27.1485 20.7196L27.1313 20.8282L27.1028 20.9311L27.0856 21.0568L27.0685 21.1711L27.057 21.2911L27.0456 21.4168L27.0399 21.5311L27.0342 21.6511V22.0053L27.0456 22.1311L27.057 22.2453L27.0685 22.3653L27.0799 22.4796L27.1028 22.5939L27.1199 22.7139L27.1485 22.8282L27.177 22.9425L27.2113 23.0625L27.2399 23.1768L27.2799 23.2911L27.3142 23.4053L27.3542 23.5196L27.3999 23.6339L27.4456 23.7482L27.497 23.8511L27.5428 23.9653L27.5999 24.0796L27.6513 24.1825L27.7085 24.2968L27.7713 24.3996L27.8285 24.5139L27.9028 24.6168L28.0456 24.3596L28.1828 24.0968L28.2456 23.9653L28.3085 23.8339L28.3656 23.7025L28.4285 23.5596L28.4856 23.4282L28.537 23.2853L28.5942 23.1539L28.6399 23.0111L28.6856 22.8682L28.7313 22.7196L28.777 22.5825L28.817 22.4396L28.8513 22.2911L28.8856 22.1368L28.9256 21.9996L28.9599 21.8453L28.9828 21.6968L29.0113 21.5482L29.0342 21.3996L29.057 21.2453L29.0742 21.0968L29.0913 20.9425L29.1085 20.7882L29.1199 20.6339L29.1256 20.4796L29.137 20.3196V20.1653L29.1428 20.0053V19.7368L29.1256 19.4739L29.1085 19.2053L29.0799 18.9425L29.0456 18.6796L28.9999 18.4168L28.9542 18.1653L28.897 17.9082H28.9028Z" fill="#7DBA00"/>
<path d="M26.0857 20.7711L26.1085 20.6054L26.1257 20.434L26.1485 20.274L26.1771 20.1026L26.2057 19.9425L26.2399 19.7711L26.2742 19.6111L26.3142 19.4397L26.3542 19.2797L26.3999 19.114L26.4457 18.954L26.4914 18.7826L26.5485 18.6226L26.6057 18.4625L26.6628 18.3026L26.7257 18.1425L26.7885 17.9825L26.8571 17.8226L26.9199 17.6625L26.9942 17.5083L27.0742 17.354L27.1485 17.1997L27.2399 17.0511L27.3199 16.9025L27.4114 16.7483L27.5028 16.6054L27.5942 16.4625L27.6857 16.3197L27.7885 16.1768L27.8971 16.0397L27.9942 15.9083L28.1085 15.7768L28.0342 15.6397L27.9714 15.5083L27.8971 15.3825L27.8228 15.2568L27.6114 15.3711L27.4114 15.4968L27.2057 15.6225L27.0114 15.7597L26.8228 15.8911L26.6342 16.0283L26.4571 16.1711L26.2857 16.3197L26.1142 16.4683L25.9485 16.6225L25.7885 16.7826L25.6399 16.9425L25.4914 17.1026L25.3485 17.274L25.2114 17.4454L25.0857 17.6226L24.9599 17.8054L24.8399 17.9825L24.7257 18.1711L24.6285 18.3597L24.5257 18.554L24.4342 18.7483L24.3428 18.9425L24.2685 19.1483L24.1942 19.354L24.1257 19.554L24.0685 19.7711L24.0171 19.9883L23.9771 20.194L23.9371 20.4225L23.9085 20.634L23.8799 20.8626L23.8685 21.0683L23.8628 21.2568V21.6568L23.8742 21.8568L23.8971 22.0568L23.9199 22.2568L23.9542 22.4454L23.9885 22.6454L24.0342 22.8397L24.0857 23.0283L24.1428 23.2283L24.1999 23.4168L24.2685 23.6111L24.3371 23.794L24.4171 23.9768L24.4971 24.1654L24.5885 24.3483L24.6742 24.5254L24.7771 24.7083L24.8799 24.8797L24.9942 25.0511L25.0971 25.2225L25.2171 25.394L25.3428 25.5597L25.4685 25.7254L25.5999 25.8854L25.7314 26.0454L25.8742 26.194L26.0171 26.3425L26.1657 26.4911L26.3142 26.634L26.4057 26.5426L26.4971 26.4511L26.5885 26.3597L26.6799 26.2625L26.7714 26.1711L26.8571 26.074L26.9428 25.9711L27.0285 25.874L26.9542 25.7311L26.8857 25.5883L26.8171 25.4397L26.7542 25.2968L26.6971 25.1483L26.6285 24.9997L26.5714 24.8511L26.5199 24.6968L26.4628 24.5483L26.4171 24.3997L26.3714 24.2397L26.3314 24.0911L26.2914 23.9311L26.2571 23.7768L26.2171 23.6168L26.1885 23.4568L26.1599 23.2968L26.1314 23.1368L26.1085 22.9711L26.0914 22.8054L26.0742 22.6454L26.0571 22.4797L26.0457 22.3083L26.0399 22.1483L26.0342 21.9768V21.4625L26.0457 21.2911L26.0571 21.1197L26.0685 20.9425L26.0857 20.7711Z" fill="#54B840"/>
<path d="M13.6341 13.4053L13.4855 13.5481L13.3426 13.6967L13.1998 13.8453L13.0684 14.0053L12.9312 14.1538L12.7998 14.3253L12.6741 14.4853L12.5598 14.651L12.4341 14.8224L12.3198 14.9938L12.2055 15.171L12.1026 15.3424L11.9998 15.5253L11.8969 15.7081L11.7998 15.8967L11.7141 16.0853L11.6226 16.2738L11.5369 16.4624L11.4626 16.6624L11.3884 16.8567L11.3198 17.0567L11.2512 17.2567L11.1941 17.4567L11.1369 17.6624L11.0798 17.8738L11.0398 18.0796L10.9941 18.291L10.9541 18.5024L10.9255 18.7138L10.8969 18.931L10.8741 19.1481L10.8569 19.3653L10.9941 19.2281L11.1369 19.0853L11.2684 18.931L11.3998 18.7824L11.5255 18.6224L11.6512 18.4567L11.7769 18.291L11.8912 18.1196L12.0055 17.9481L12.1198 17.7767L12.2226 17.5938L12.3255 17.4053L12.4226 17.2224L12.5255 17.0281L12.6112 16.8396L12.7026 16.6453L12.7884 16.451L12.8741 16.251L12.9484 16.051L13.0226 15.851L13.0912 15.651L13.1655 15.451L13.2226 15.2453L13.2912 15.0396L13.3484 14.8338L13.3998 14.6281L13.4398 14.4224L13.4855 14.2167L13.5312 14.011L13.5655 13.8053L13.5998 13.6053L13.6341 13.4053Z" fill="#00B8E0"/>
<path d="M15.4283 12.0459L15.3312 12.103L15.2283 12.1716L15.1198 12.2288L15.0226 12.303L14.9312 12.6859L14.8455 13.0573L14.7541 13.423L14.6626 13.7888L14.5655 14.1316L14.4741 14.4802L14.3655 14.8173L14.2626 15.1488L14.1483 15.4688L14.0398 15.7888L13.9255 16.0973L13.8112 16.4002L13.6912 16.6973L13.5655 16.983L13.4398 17.2688L13.3083 17.543L13.1769 17.8173L13.0398 18.0802L12.9083 18.343L12.7655 18.5945L12.6283 18.8402L12.4798 19.0916L12.3369 19.3259L12.1883 19.5659L12.0341 19.7945L11.8855 20.0116L11.7255 20.2345L11.5712 20.4459L11.4112 20.663L11.2512 20.8688L11.0855 21.0688L10.9141 21.2688L10.9483 21.4402L10.9712 21.6116L11.0055 21.783L11.0398 21.9545L11.0798 22.1259L11.1198 22.2973L11.1598 22.4573L11.2112 22.623L11.5541 22.3945L11.8798 22.1602L12.1883 21.8973L12.4741 21.6345L12.7598 21.3488L13.0169 21.0573L13.2569 20.7545L13.4912 20.4345L13.7083 20.1145L13.9083 19.7716L14.0969 19.4345L14.2683 19.0916L14.4398 18.7316L14.5826 18.3716L14.7141 18.0116L14.8398 17.6402L14.9541 17.2745L15.0512 16.903L15.1426 16.5316L15.2169 16.1602L15.2855 15.7888L15.3426 15.4173L15.3883 15.0516L15.4283 14.6973L15.4569 14.3373L15.4798 13.9888L15.4855 13.6402L15.4969 13.3088L15.4855 12.9773V12.6573L15.4626 12.343L15.4341 12.0459H15.4283Z" fill="#0399CC"/>
<path d="M23.0456 18.171L23.0284 17.9196L23.017 17.6796L22.9999 17.4339L22.9827 17.1882L22.9542 16.9539L22.937 16.7082L22.9084 16.4682L22.8742 16.2339L22.8456 15.9996L22.817 15.7596L22.777 15.5253L22.737 15.2967L22.697 15.0624L22.657 14.8339L22.5999 14.5939L22.5599 14.371L22.5084 14.1424L22.4513 13.9196L22.3999 13.691L22.3427 13.4739L22.2856 13.251L22.2284 13.0339L22.1656 12.8167L22.097 12.5996L22.0342 12.3882L21.9599 12.171L21.8913 11.9596L21.8227 11.7482L21.7427 11.5482L21.6684 11.3367L21.5942 11.131L21.5084 10.931L21.377 10.9082L21.2456 10.8967L21.1084 10.8796L20.977 10.8682L21.0456 11.5196L21.1084 12.171L21.1656 12.8167L21.2056 13.4624L21.2342 14.1024L21.257 14.7367L21.2627 15.3767V15.9996L21.2456 16.6224L21.217 17.2396L21.1827 17.8567L21.1256 18.4567L21.0684 19.0567L20.9884 19.651L20.8913 20.2396L20.7884 20.811L20.6684 21.3824L20.5313 21.9424L20.377 22.491L20.217 23.0339L20.0342 23.5596L19.8399 24.0853L19.6284 24.5939L19.3999 25.0853L19.1542 25.571L18.8913 26.0453L18.6056 26.5024L18.3084 26.9539L17.9999 27.3824L17.6627 27.8053L17.3084 28.2053L16.937 28.5939L17.0799 28.6453L17.2113 28.6967L17.3542 28.7424L17.4913 28.7882L17.6342 28.8282L17.777 28.8682L17.9199 28.9024L18.0627 28.9424L18.2056 28.971L18.3484 28.9996L18.497 29.0339L18.6456 29.0567L18.7942 29.0796L18.9427 29.1024L19.097 29.1196L19.2456 29.1367L19.4742 28.9196L19.7027 28.7024L19.9199 28.4739L20.1313 28.2453L20.337 27.9996L20.537 27.7424L20.737 27.4853L20.9199 27.211L21.1027 26.9367L21.2742 26.651L21.4399 26.3539L21.5999 26.0453L21.7542 25.7367L21.897 25.4167L22.0342 25.0796L22.1599 24.7482L22.2856 24.4053L22.3999 24.0453L22.497 23.6796L22.5999 23.3024L22.6799 22.9253L22.7656 22.531L22.8342 22.131L22.8913 21.731L22.9484 21.3139L22.9884 20.891L23.0227 20.4567L23.0456 20.0167L23.057 19.5596V18.6339L23.0456 18.1596V18.171Z" fill="#08338F"/>
<path d="M19.3144 10.8574L19.1887 10.8631L19.0573 10.8803L18.9202 10.8917L18.7944 10.9089L18.8116 11.3431V12.7374L18.7887 13.2231L18.7716 13.726L18.743 14.2403L18.6973 14.7603L18.6516 15.286L18.5944 15.8231L18.5259 16.366L18.4459 16.9089L18.3544 17.4517L18.2459 18.0003L18.1316 18.5546L18.0002 19.0974L17.8573 19.646L17.6973 20.1889L17.5259 20.726L17.343 21.2574L17.143 21.7774L16.9202 22.2917L16.6916 22.8003L16.4344 23.2917L16.1602 23.7774L15.8744 24.2403L15.5659 24.6974L15.2402 25.1374L14.8973 25.5603L14.5316 25.9603L14.1487 26.3431L13.7373 26.7089L13.8916 26.8574L14.0573 26.9946L14.2173 27.1317L14.3887 27.2631L14.5544 27.3889L14.7259 27.5146L14.8973 27.6346L15.0802 27.7489L15.6059 27.3774L16.0973 26.9717L16.5544 26.5546L16.983 26.1146L17.383 25.6574L17.7487 25.1831L18.0916 24.6917L18.3944 24.1889L18.6802 23.6746L18.9316 23.1489L19.1602 22.606L19.3602 22.0574L19.5373 21.5089L19.6973 20.9374L19.8287 20.3774L19.9373 19.7946L20.0287 19.2231L20.0916 18.6403L20.1373 18.0517L20.1659 17.4746L20.1773 16.8917L20.1716 16.3089L20.1487 15.7374L20.103 15.1603L20.0516 14.5889L19.983 14.0289L19.903 13.4746L19.8116 12.926L19.6973 12.3946L19.583 11.8689L19.4516 11.3546L19.3202 10.8574H19.3144Z" fill="#0554A3"/>
<path d="M17.2916 11.2344L17.1773 11.2744L17.063 11.3087L16.9488 11.3487L16.8345 11.3887L16.8116 11.8229L16.7773 12.2629L16.7373 12.7029L16.6916 13.1487L16.6345 13.5887L16.5773 14.0287L16.5088 14.4687L16.4345 14.9087L16.3545 15.3429L16.263 15.7829L16.1659 16.2172L16.063 16.6458L15.943 17.0801L15.8173 17.5029L15.6859 17.9258L15.5488 18.3429L15.3945 18.7601L15.2345 19.1658L15.063 19.5658L14.8802 19.9715L14.6916 20.3601L14.4916 20.7487L14.2745 21.1258L14.0573 21.4972L13.8173 21.8687L13.5716 22.2229L13.3088 22.5715L13.0402 22.9144L12.7545 23.2458L12.4688 23.5658L12.1602 23.8801L11.8345 24.1829L11.9202 24.3544L12.0116 24.5144L12.103 24.6801L12.2059 24.8401L12.3088 25.0001L12.4116 25.1544L12.5145 25.3029L12.623 25.4572L13.0573 25.1772L13.463 24.8744L13.8573 24.5487L14.2288 24.2115L14.5716 23.8515L14.903 23.4687L15.2116 23.0801L15.4973 22.6687L15.7602 22.2458L16.0116 21.8058L16.2402 21.3601L16.4573 20.9029L16.6459 20.4344L16.8173 19.9544L16.983 19.4744L17.1202 18.9829L17.2402 18.4915L17.3545 17.9887L17.4402 17.4915L17.5202 16.9887L17.5773 16.4801L17.6173 15.9772L17.6516 15.4801L17.663 14.9772V14.4858L17.6516 14.0001L17.623 13.5144L17.583 13.0401L17.5259 12.5715L17.463 12.1144L17.383 11.6687L17.2916 11.2344Z" fill="#0575B8"/>
</g>
<circle cx="20" cy="20" r="19.5" stroke="black" stroke-opacity="0.05"/>
<defs>
<clipPath id="clip0_9_410696">
<rect width="20" height="20" fill="white" transform="translate(10 10)"/>
</clipPath>
</defs>
</svg>
