<svg width="40" height="40" viewBox="0 0 40 40" fill="none" xmlns="http://www.w3.org/2000/svg">
<circle cx="20" cy="20" r="20" fill="#1E1E23"/>
<g clip-path="url(#clip0_9_401927)">
<path d="M20.3456 22.4851C19.7188 22.4851 19.3505 22.1758 19.3061 21.3247V21.2861H22.037V21.0547C22.037 19.5279 21.4147 18.527 20.2846 18.527C19.4071 18.527 18.3875 19.1396 18.3875 20.8702C18.3875 22.3372 19.1011 23.2134 20.3013 23.2134C20.6427 23.2102 20.9782 23.1235 21.2784 22.9608C21.5747 22.8005 21.826 22.5684 22.0093 22.2858L21.4301 21.8808C21.1473 22.2427 20.8516 22.4851 20.3456 22.4851ZM20.2743 19.3576C20.957 19.3576 21.1672 20.0994 21.1672 20.6433H19.3119C19.3505 20.1245 19.6083 19.3576 20.2743 19.3576ZM29.7648 22.4851C29.0319 22.4851 28.7298 21.9258 28.7298 21.2861H31.4574V21.0547C31.4574 19.5279 30.8351 18.527 29.705 18.527C28.8307 18.527 27.8105 19.1396 27.8105 20.8702C27.8105 22.3372 28.5247 23.2134 29.7236 23.2134C30.0645 23.2096 30.3992 23.1226 30.6988 22.9601C30.995 22.7996 31.2463 22.5676 31.4298 22.2851L30.8551 21.8782C30.5677 22.2427 30.2707 22.4851 29.7648 22.4851ZM29.6928 19.3788C30.3581 19.3788 30.587 20.0737 30.587 20.6433H28.7343C28.7773 20.0801 29.03 19.3788 29.6928 19.3788ZM10.5388 22.4851C9.91527 22.4851 9.5482 22.1758 9.50384 21.3247V21.2861H12.2296V21.0547C12.2296 19.5279 11.6073 18.6871 10.4778 18.6871C9.60349 18.6871 8.58134 19.1396 8.58134 20.8702C8.58134 22.3372 9.29749 23.2134 10.4945 23.2134C10.8355 23.21 11.1705 23.1233 11.4703 22.9608C11.7664 22.8004 12.0175 22.5683 12.2006 22.2858L11.6214 21.8808C11.3418 22.2427 11.0467 22.4851 10.5388 22.4851ZM10.4681 19.4315C11.1341 19.4315 11.3617 20.1013 11.3617 20.6703H9.50834C9.5707 20.1084 9.79313 19.4315 10.4681 19.4315ZM6.81284 21.5574C6.81284 22.2517 6.40013 22.397 6.04784 22.397C5.67135 22.379 5.30687 22.2588 4.99356 22.0492L4.58984 22.7268C5.0527 23.0315 5.59977 23.1948 6.1597 23.1948C7.21077 23.1948 7.78549 22.6355 7.78549 21.6185V16.79H6.81284V21.5574ZM16.2178 18.0236V18.7147H14.288V18.0911C14.288 17.5794 14.6506 17.5203 14.9225 17.5203C14.9668 17.5203 15.1089 17.5203 15.1873 17.5331V16.8086C15.1134 16.8086 14.8691 16.7861 14.7084 16.7861C13.7801 16.7861 13.3475 17.1783 13.3475 18.0178V18.7147H12.6718V19.3203H13.3475V23.2147H14.288V19.3318H16.2178V23.2147H17.1577V19.3318H18.0712V18.7147H17.1583V18.0911C17.1583 17.5794 17.5222 17.5203 17.7961 17.5203C17.8411 17.5203 17.9825 17.5203 18.0609 17.5331V16.8086C17.9876 16.8086 17.7414 16.7861 17.582 16.7861C16.6498 16.7926 16.2178 17.1847 16.2178 18.0236ZM23.9347 19.3286H23.8569V18.7147H22.9164V23.2147H23.8569V20.0917C23.9855 19.8693 24.1719 19.6841 24.3988 19.5543C24.6946 19.3846 24.8103 19.3511 25.1426 19.3511C25.1426 19.2868 25.1638 18.5893 25.1671 18.5225C25.0321 18.5225 24.7794 18.5861 24.5197 18.7353C24.2741 18.8767 24.0723 19.0818 23.9347 19.3286ZM26.123 17.8359H27.0712V16.9854H26.123V17.8359ZM26.1326 23.2147H27.0712V18.7147H26.1326V23.2147ZM33.7209 23.2134C34.5418 23.2134 35.429 22.8065 35.429 21.9136C35.429 20.975 34.664 20.7294 34.0018 20.5121C33.4946 20.3476 33.0131 20.1907 33.0131 19.7407C33.0131 19.4109 33.2574 19.2283 33.7029 19.2283C33.9086 19.238 34.1105 19.2888 34.295 19.3788C34.4795 19.4688 34.6421 19.5948 34.7726 19.7497L35.3248 19.2643C35.1284 19.0312 34.8827 18.8446 34.6055 18.7179C34.3256 18.5894 34.0212 18.5232 33.7132 18.5238C32.765 18.5238 32.1292 19.0316 32.1292 19.7883C32.1292 20.7133 32.8942 20.9634 33.5525 21.1826C34.0668 21.353 34.5528 21.5124 34.5528 21.9714C34.5528 22.3282 34.2635 22.5249 33.7396 22.5249C33.488 22.5183 33.2405 22.4592 33.0131 22.3513C32.7881 22.2445 32.5884 22.0909 32.4275 21.9007L31.8618 22.3623C32.0791 22.6374 32.3613 22.8579 32.6846 23.0064C33.0094 23.1546 33.3641 23.2255 33.7209 23.2134Z" fill="white"/>
</g>
<circle cx="20" cy="20" r="19.5" stroke="black" stroke-opacity="0.05"/>
<defs>
<clipPath id="clip0_9_401927">
<rect width="32" height="8" fill="white" transform="translate(4 16)"/>
</clipPath>
</defs>
</svg>
