<svg width="40" height="40" viewBox="0 0 40 40" fill="none" xmlns="http://www.w3.org/2000/svg">
<circle cx="20" cy="20" r="20" fill="#F6F8FA"/>
<circle cx="20" cy="20" r="19.5" stroke="black" stroke-opacity="0.05"/>
<g clip-path="url(#clip0_9_395082)">
<path d="M15.5492 11C15.5547 11 15.5601 11 15.5654 11L19.9168 11.0076C19.9274 11.0076 19.9327 11.0129 19.9327 11.0235V15.8318C19.9327 15.8379 19.9313 15.844 19.9288 15.8496C19.9262 15.8553 19.9224 15.8603 19.9177 15.8644C19.2719 16.4269 18.8701 17.1209 18.7834 17.9686C18.7416 18.3753 18.7608 18.7738 18.8408 19.1643C18.989 19.8863 19.3479 20.4755 19.9174 20.9319C19.9272 20.9398 19.9322 20.9501 19.9324 20.9627C19.9344 21.4507 19.9335 21.9069 19.9296 22.3313C19.9282 22.4838 19.9194 22.6398 19.9031 22.7994C19.9021 22.8104 19.8966 22.8182 19.8866 22.8229L17.2631 24.0504C17.2607 24.0515 17.2589 24.0534 17.2579 24.0558C17.257 24.0581 17.2569 24.0608 17.2579 24.0632C17.5681 24.9167 17.9907 25.7079 18.5257 26.4366C18.5279 26.4397 18.5291 26.4434 18.529 26.4472C18.5289 26.451 18.5275 26.4546 18.5251 26.4574C17.2008 28.0583 15.1376 28.6809 13.1125 28.6412C11.4646 28.6089 9.95101 28.0125 8.74795 26.9173C7.99101 26.2284 7.40383 25.3505 7.00841 24.3905C7.00495 24.3826 7.00719 24.3768 7.01513 24.3731L10.6857 22.6556C10.6897 22.6537 10.6943 22.6535 10.6984 22.655C10.7026 22.6564 10.706 22.6595 10.708 22.6635C10.9373 23.1325 11.1776 23.6131 11.5052 23.9994C11.9284 24.4981 12.4589 24.7648 13.0967 24.7994C13.6704 24.8302 14.3113 24.7344 14.7788 24.3811C15.4035 23.909 15.5455 23.0873 15.5461 22.3435C15.5482 18.5623 15.5492 14.7812 15.5492 11Z" fill="#0071BA"/>
<path d="M29.2224 26.8752C27.9919 28.0825 26.2957 28.6004 24.5461 28.6407C23.2951 28.6697 22.0979 28.3946 21.0249 27.7882C19.6863 27.0318 18.6789 25.8236 18.0908 24.3949C18.0864 24.3839 18.0895 24.3758 18.1003 24.3707L21.7632 22.6572C21.7744 22.6519 21.7828 22.6547 21.7885 22.6657C22.0383 23.1646 22.2743 23.6596 22.6463 24.0682C23.022 24.481 23.473 24.7189 23.9992 24.782C24.3604 24.8252 24.7228 24.8065 25.0866 24.7259C25.7021 24.5893 26.132 24.256 26.376 23.7262C26.5452 23.3595 26.6124 22.9198 26.6231 22.5188C26.6302 22.2455 26.6318 21.9714 26.6279 21.6965C26.6279 21.6945 26.6283 21.6925 26.629 21.6907C26.6298 21.6888 26.6309 21.6871 26.6323 21.6857C26.6337 21.6842 26.6354 21.6831 26.6373 21.6824C26.6392 21.6816 26.6412 21.6812 26.6432 21.6813C26.7515 21.6833 26.8597 21.6691 26.9678 21.6385C27.4484 21.503 27.7934 21.2183 28.0029 20.7845C28.2841 20.2025 28.1504 19.5164 27.7043 19.0624C27.5779 18.9335 27.4148 18.8346 27.2737 18.7234C27.2713 18.7215 27.2696 18.7187 27.2689 18.7156C27.2683 18.7126 27.2688 18.7094 27.2704 18.7066C27.5776 18.1837 27.8608 17.6813 28.1202 17.1994C28.2038 17.0439 28.2643 16.8691 28.3015 16.6749C28.482 15.7332 27.5714 14.8852 26.6527 15.0422C26.637 15.0448 26.6292 15.0382 26.6292 15.0223V11.0165C26.6292 11.0138 26.6303 11.0112 26.6322 11.0092C26.6341 11.0073 26.6368 11.0062 26.6395 11.0062L31.0011 11.0059C31.004 11.0059 31.0068 11.007 31.0088 11.0091C31.0109 11.0111 31.0121 11.0139 31.0121 11.0169C31.0131 14.8719 31.0128 18.6387 31.0111 22.3173C31.0109 22.7145 30.9629 23.1736 30.867 23.6947C30.6469 24.8941 30.093 26.0211 29.2224 26.8752Z" fill="#0071BA"/>
<path d="M21.1573 15.0864C20.9765 14.6616 20.8401 14.2002 20.8379 13.7557C20.833 12.7786 21.4752 12.0076 22.3753 11.694C23.0864 11.4463 23.802 11.4394 24.5222 11.6735C25.263 11.9144 25.8376 12.5053 25.9002 13.2967C25.9543 13.9773 25.7182 14.5795 25.2285 15.0381C24.913 15.3334 24.5317 15.5654 24.1454 15.7563C24.1344 15.7616 24.1252 15.7593 24.1179 15.7496C23.8759 15.4306 23.6641 15.1065 23.4825 14.7773C23.4799 14.7727 23.4793 14.7671 23.4808 14.7619C23.4822 14.7567 23.4857 14.7523 23.4904 14.7496C23.8437 14.5535 24.1991 14.2702 24.3292 13.8867C24.5042 13.3694 24.2547 12.8601 23.692 12.7926C23.2077 12.7346 22.772 13.0094 22.6376 13.4821C22.553 13.7807 22.6208 14.1053 22.7262 14.3978C22.8485 14.7378 22.9944 15.0455 23.1637 15.3212C23.3982 15.7035 23.6662 16.0728 23.9677 16.4293C24.2663 16.7822 24.5628 17.1369 24.8572 17.4934C24.8639 17.5015 24.8644 17.51 24.8587 17.5187C24.6376 17.8636 24.3819 18.1825 24.0917 18.4757C23.9915 18.5766 23.8868 18.669 23.7775 18.7526C23.7689 18.7591 23.7608 18.7586 23.753 18.7511C23.4856 18.4881 23.2721 18.2612 23.1127 18.0705C22.9033 17.8197 22.6776 17.5312 22.4358 17.2051C22.0877 16.7364 21.7836 16.2338 21.4797 15.7319C21.3723 15.5541 21.2648 15.339 21.1573 15.0864Z" fill="#FDB713"/>
<path d="M20.9767 15.9725C20.9873 15.9662 20.9958 15.9682 21.0023 15.9786L21.7288 17.1368C21.7318 17.1416 21.7333 17.1473 21.7328 17.1531C21.7324 17.1588 21.7301 17.1642 21.7263 17.1685C21.1342 17.836 21.2121 18.9533 21.9913 19.444C22.7553 19.9249 23.7098 19.5374 24.3156 18.9942C24.5652 18.7703 24.8023 18.509 25.0271 18.2104C25.128 18.0764 25.2397 17.9063 25.362 17.6998C25.6592 17.1979 25.909 16.7341 26.1113 16.3087C26.2003 16.1216 26.2782 15.997 26.3449 15.935C26.697 15.6067 27.2915 15.6934 27.5214 16.135C27.6427 16.3672 27.6343 16.6117 27.4961 16.8684C27.1837 17.4495 26.8216 18.0672 26.4515 18.6308C26.3469 18.79 26.2253 18.9544 26.0869 19.124C25.7889 19.4883 25.514 19.781 25.2622 20.0018C24.482 20.6852 23.4848 21.0647 22.4381 21.047C21.5535 21.0321 20.6136 20.7652 20.0295 20.0608C19.5987 19.5408 19.439 18.8885 19.472 18.2122C19.5214 17.1899 20.1275 16.4769 20.9767 15.9725Z" fill="#FDB713"/>
<path d="M26.7237 19.207C26.8411 19.2966 26.9632 19.3872 27.0898 19.4788C27.3896 19.6959 27.5124 20.095 27.375 20.4422C27.2009 20.8825 26.7301 21.0733 26.2904 20.9347C26.1967 20.9052 26.0868 20.8395 25.9606 20.7377C25.8279 20.6307 25.7083 20.5342 25.6018 20.4483C25.5925 20.4405 25.5924 20.4328 25.6015 20.4251C26.0143 20.0648 26.3814 19.6443 26.7093 19.2092C26.7109 19.207 26.7134 19.2056 26.716 19.2052C26.7187 19.2048 26.7215 19.2055 26.7237 19.207Z" fill="#FDB713"/>
</g>
<defs>
<clipPath id="clip0_9_395082">
<rect width="24" height="17.6489" fill="white" transform="translate(7 11)"/>
</clipPath>
</defs>
</svg>
