<svg width="40" height="40" viewBox="0 0 40 40" fill="none" xmlns="http://www.w3.org/2000/svg">
<circle cx="20" cy="20" r="20" fill="#F6F8FA"/>
<g clip-path="url(#clip0_9_406154)">
<path d="M31.6011 14.6239C31.1889 14.1339 30.2092 13.6184 28.1754 14.4075C26.5065 15.063 23.7024 17.0802 22.6416 17.7802C21.4795 18.5821 20.2362 19.2757 18.9254 19.8357C17.8241 20.3193 16.6214 20.5612 15.4051 20.5357C15.3038 20.523 15.2903 20.5166 15.243 20.4275C13.8443 17.5639 13.0268 16.2402 11.3511 15.0821C9.05379 13.593 6.72947 13.5293 7.02677 15.6675C7.10785 16.2402 8.14163 19.123 12.2362 20.8475C13.047 21.1657 13.8984 21.3821 14.7768 21.4711C14.8714 21.4711 14.8646 21.503 14.8984 21.5602C17.3578 27.3257 19.2835 27.9048 20.8308 27.9939C23.6281 28.1593 27.0741 24.5893 27.8511 23.7493C30.3308 21.0448 31.3376 18.8239 31.6349 17.9202C32.3578 15.7248 31.8376 14.9166 31.5943 14.6239H31.6011ZM10.4119 17.4684C9.52001 16.0048 10.3781 15.1584 11.4051 16.0557C11.8984 16.4948 12.5065 17.1439 13.2497 18.3402C13.6551 18.9957 14.02 19.6766 14.3376 20.3766C13.3173 20.1221 11.716 19.613 10.4119 17.4684ZM27.7024 20.1284C27.0268 21.2166 26.1822 22.1902 25.3106 23.1511C23.7903 24.8184 21.966 25.8875 21.243 26.1357C19.5133 26.7148 18.1349 26.823 15.7497 21.5093C19.7565 21.5093 23.6349 18.3021 25.6416 17.0039C28.2633 15.3048 28.7227 16.2721 28.8173 16.6475C28.9254 17.0548 28.9322 18.1557 27.7024 20.1284Z" fill="#0069CB"/>
</g>
<circle cx="20" cy="20" r="19.5" stroke="black" stroke-opacity="0.05"/>
<defs>
<clipPath id="clip0_9_406154">
<rect width="25" height="14" fill="white" transform="translate(7 14)"/>
</clipPath>
</defs>
</svg>
