<svg width="40" height="40" viewBox="0 0 40 40" fill="none" xmlns="http://www.w3.org/2000/svg">
<circle cx="20" cy="20" r="20" fill="#F60B45"/>
<g clip-path="url(#clip0_9_406246)">
<mask id="mask0_9_406246" style="mask-type:luminance" maskUnits="userSpaceOnUse" x="3" y="16" width="34" height="8">
<path d="M37 16H3V24H37V16Z" fill="white"/>
</mask>
<g mask="url(#mask0_9_406246)">
<path d="M26.7706 22.2611C26.6235 22.2647 26.4771 22.2401 26.3407 22.1886C26.2043 22.1371 26.0808 22.06 25.9779 21.9621C25.875 21.8641 25.795 21.7475 25.7428 21.6194C25.6907 21.4913 25.6675 21.3546 25.6748 21.2179C25.672 21.0818 25.6983 20.9466 25.7523 20.8201C25.8064 20.6936 25.8869 20.5784 25.9894 20.4812C26.0918 20.3841 26.2141 20.3069 26.3489 20.2542C26.4838 20.2015 26.6286 20.1744 26.7749 20.1744C26.9212 20.1744 27.0661 20.2015 27.2009 20.2542C27.3358 20.3069 27.4581 20.3841 27.5605 20.4812C27.6629 20.5784 27.7435 20.6936 27.7976 20.8201C27.8516 20.9466 27.8779 21.0818 27.8751 21.2179C27.8814 21.3551 27.8573 21.4921 27.8043 21.6203C27.7513 21.7485 27.6704 21.8651 27.5668 21.963C27.4632 22.0609 27.339 22.1379 27.202 22.1891C27.0651 22.2404 26.9182 22.2649 26.7706 22.2611ZM34.8245 22.2849C34.6743 22.2888 34.5249 22.2636 34.3857 22.2109C34.2465 22.1583 34.1206 22.0793 34.016 21.9789C33.9114 21.8786 33.8303 21.7592 33.7779 21.6281C33.7256 21.4971 33.703 21.3574 33.7118 21.2179C33.7046 21.079 33.7283 20.9403 33.7813 20.8104C33.8344 20.6805 33.9157 20.5621 34.0201 20.4627C34.1245 20.3633 34.2498 20.285 34.3882 20.2327C34.5266 20.1804 34.6751 20.1552 34.8245 20.1587C34.9747 20.1549 35.1242 20.1797 35.2637 20.2317C35.4033 20.2837 35.5299 20.3617 35.6357 20.4609C35.7416 20.5601 35.8245 20.6785 35.8793 20.8087C35.9342 20.9389 35.9598 21.0781 35.9545 21.2179C35.9614 21.3583 35.937 21.4986 35.8828 21.6299C35.8287 21.7612 35.746 21.8807 35.6399 21.9809C35.5338 22.0811 35.4066 22.1598 35.2663 22.2121C35.126 22.2644 34.9756 22.2892 34.8245 22.2849ZM17.816 22.2849C17.6655 22.2888 17.5156 22.2637 17.3759 22.2112C17.2363 22.1586 17.1098 22.0798 17.0045 21.9796C16.8992 21.8793 16.8173 21.7599 16.764 21.6289C16.7106 21.4978 16.687 21.3578 16.6947 21.2179C16.6926 21.0797 16.7202 20.9425 16.7756 20.8142C16.8311 20.686 16.9134 20.5693 17.0177 20.4709C17.122 20.3725 17.2464 20.2944 17.3834 20.2411C17.5205 20.1877 17.6676 20.1603 17.8161 20.1603C17.9647 20.1603 18.1118 20.1877 18.2489 20.2411C18.3859 20.2944 18.5102 20.3725 18.6146 20.4709C18.7189 20.5693 18.8012 20.686 18.8567 20.8142C18.9121 20.9425 18.9396 21.0797 18.9376 21.2179C18.9453 21.3579 18.9216 21.4979 18.8683 21.6291C18.8149 21.7602 18.7329 21.8797 18.6275 21.9799C18.522 22.0802 18.3954 22.159 18.2556 22.2115C18.1159 22.264 17.9659 22.289 17.8152 22.2849M9.32882 20.8693C9.37318 20.6422 9.50612 20.4384 9.70212 20.2969C9.89812 20.1554 10.1434 20.0861 10.3909 20.1025C10.6302 20.0929 10.8649 20.1658 11.0499 20.3074C11.2349 20.4489 11.3572 20.649 11.3933 20.8693H9.32882ZM10.4673 23.2081C10.7805 23.2239 11.0934 23.1715 11.381 23.055C11.6686 22.9385 11.923 22.7612 12.124 22.5372L11.3933 21.9523C11.2858 22.0789 11.1469 22.1794 10.9887 22.2455C10.8304 22.3115 10.6574 22.3411 10.4842 22.3317C9.86396 22.3317 9.48172 22.0945 9.34572 21.6202H12.3958C12.4217 21.4874 12.4359 21.3527 12.4383 21.2177C12.4383 20.0952 11.5802 19.2337 10.3909 19.2337C10.1079 19.2251 9.826 19.2704 9.56257 19.3669C9.29915 19.4635 9.05977 19.6092 8.85918 19.7951C8.65859 19.981 8.50105 20.2031 8.39626 20.4478C8.29147 20.6925 8.24166 20.9546 8.24989 21.2179C8.24989 22.356 9.10792 23.2097 10.4673 23.2097M34.6291 23.2097C34.8815 23.2223 35.1334 23.1787 35.3639 23.0824C35.5944 22.9862 35.7969 22.8401 35.9545 22.6564V23.1069H36.9995V19.3369H35.9545V19.7795C35.7952 19.5983 35.5922 19.4545 35.3621 19.3598C35.1319 19.2651 34.8811 19.222 34.6298 19.2341C33.5677 19.2341 32.6672 20.1035 32.6672 21.2181C32.6672 22.3491 33.5677 23.2099 34.6298 23.2099M17.6213 23.2099C17.8724 23.2225 18.1231 23.1788 18.3522 23.0825C18.5814 22.9862 18.7824 22.8402 18.9383 22.6566V23.1071H19.9832V19.3369H18.9374V19.7795C18.7797 19.5984 18.5782 19.4546 18.3493 19.3598C18.1204 19.265 17.8707 19.2219 17.6205 19.2341C16.55 19.2341 15.658 20.1113 15.658 21.2181C15.658 22.3405 16.55 23.2099 17.6205 23.2099M20.5259 23.1071H21.5709V21.0678C21.5709 20.4434 21.9278 20.1351 22.4629 20.1351C22.5724 20.1293 22.6819 20.1456 22.784 20.1829C22.886 20.2202 22.9782 20.2776 23.0541 20.3513C23.13 20.4249 23.1879 20.5129 23.2237 20.6094C23.2595 20.7058 23.2724 20.8083 23.2616 20.9098V23.1069H24.3061V20.7911C24.3061 19.8269 23.6605 19.2341 22.777 19.2341C22.2247 19.2341 21.8254 19.408 21.5705 19.7636V19.3369H20.5262L20.5259 23.1071ZM26.7696 23.2099C27.1918 23.2091 27.6043 23.0919 27.955 22.8732C28.3057 22.6545 28.5789 22.344 28.7401 21.9809C28.9013 21.6179 28.9432 21.2185 28.8606 20.8333C28.778 20.4481 28.5746 20.0943 28.2761 19.8165C27.9775 19.5388 27.5972 19.3495 27.1832 19.2727C26.7691 19.1959 26.3398 19.2349 25.9496 19.3848C25.5594 19.5348 25.2256 19.789 24.9905 20.1152C24.7554 20.4415 24.6295 20.8253 24.6286 21.2181C24.626 21.4803 24.6796 21.7404 24.7863 21.9832C24.8929 22.2259 25.0505 22.4465 25.2499 22.6319C25.4492 22.8173 25.6863 22.964 25.9472 23.0632C26.2081 23.1624 26.4877 23.2123 26.7696 23.2099ZM30.1679 23.1071H31.4169C31.7567 21.2575 32.5127 19.9377 33.4049 19.2422L32.6742 18.6573C31.6068 19.5123 30.9293 20.7134 30.7797 22.0165L29.7772 19.3371H28.6303L30.1679 23.1071ZM13.8061 17.6058H12.761V23.1077H13.8059L13.8061 17.6058ZM15.3103 17.6058H14.2739V23.1077H15.3103V17.6058ZM7.71516 23.5103C7.46026 23.4945 7.34137 23.2179 7.34137 22.8776C7.34137 22.5061 7.60471 21.7082 7.70671 21.3285C7.80871 20.9412 7.85095 20.3247 7.47737 19.9691C8.89547 19.4396 10.9946 17.6295 11.2658 17.2344C11.5291 16.8392 11.5887 16.3413 11.2149 16.0882C10.8411 15.8352 10.2378 16.1594 9.88189 16.6415C8.8963 17.9614 8.30161 18.6095 7.63047 19.1549C7.10378 19.5738 6.84888 19.5817 6.59398 19.6133C6.63643 19.55 7.56247 18.1431 7.92781 17.7005C8.36054 17.171 7.82581 16.9733 7.30757 17.3054C6.69393 17.703 6.05248 18.0621 5.3875 18.3803C3.6197 19.2261 3.19481 19.6214 3.19481 20.1273C3.19303 20.1927 3.20528 20.2579 3.23086 20.3189C3.25643 20.3799 3.29482 20.4356 3.34377 20.4827C3.39272 20.5298 3.45126 20.5673 3.51597 20.5931C3.58068 20.6189 3.65027 20.6325 3.72067 20.633C4.41737 20.633 5.09695 19.487 5.43675 19.1952C5.5643 19.0846 5.86947 18.8396 5.98054 18.8396C6.02299 18.8396 6.04854 18.8634 6.04854 18.9345C6.04854 19.1557 5.58985 19.7803 4.87606 20.4915C3.84905 21.534 2.99946 21.945 2.99946 22.6091C2.99604 22.6988 3.01267 22.7882 3.04831 22.8716C3.08395 22.9551 3.13781 23.0307 3.20649 23.0938C3.27517 23.1568 3.35718 23.2059 3.44731 23.238C3.53745 23.2701 3.63376 23.2844 3.73015 23.28C4.52019 23.28 5.05553 22.292 5.36978 21.802C5.49733 21.6043 6.20247 20.3872 6.34671 20.1263C6.50806 20.1974 6.60161 20.3563 6.55071 20.6796C6.45716 21.2644 5.89647 21.9678 5.89647 22.948C5.89647 23.7462 6.69495 23.9991 7.01785 23.9991C7.30633 23.9991 7.70568 23.8988 7.79944 23.6197C7.80406 23.6071 7.80539 23.5937 7.80332 23.5806C7.80125 23.5674 7.79584 23.5549 7.78754 23.5441C7.77924 23.5333 7.76829 23.5245 7.75559 23.5184C7.7429 23.5123 7.72882 23.5091 7.71454 23.5091" fill="white"/>
</g>
</g>
<circle cx="20" cy="20" r="19.5" stroke="black" stroke-opacity="0.05"/>
<defs>
<clipPath id="clip0_9_406246">
<rect width="34" height="8" fill="white" transform="translate(3 16)"/>
</clipPath>
</defs>
</svg>
