<svg width="40" height="40" viewBox="0 0 40 40" fill="none" xmlns="http://www.w3.org/2000/svg">
<circle cx="20" cy="20" r="20" fill="#12347D"/>
<g clip-path="url(#clip0_9_401678)">
<path d="M16.1441 18.4424C16.707 15.4658 18.3584 13.4944 19.855 12.5333C18.3144 12.8567 16.1847 14.9767 15.6624 17.8304C15.2504 20.0801 15.3687 22.3693 16.0315 23.7333C15.759 22.2761 15.7847 20.3441 16.1441 18.4424ZM11.6344 12.0464L12.411 14.2407L12.883 11.959L12.8258 14.2893L14.0784 12.335L13.1961 14.4876L15.0595 13.1236L13.471 14.8076L15.6938 14.219L13.6121 15.207L15.8944 15.4733L13.603 15.6316L15.6361 16.7161L13.4424 16.0236L14.9521 17.7807L13.1532 16.3304L13.9361 18.5224L12.775 16.511L12.7235 18.8418L12.3578 16.5401L11.4801 18.695L11.9578 16.415L10.3732 18.1024L11.6304 16.151L9.55152 17.1441L11.4184 15.7853L9.12695 15.9493L11.3515 15.3664L9.1561 14.679L11.4378 14.951L9.63552 13.5053L11.6664 14.595L10.5007 12.5864L12.0058 14.347L11.6344 12.0464Z" fill="white"/>
<path d="M11.2675 12.6519L12.2543 14.4124L12.3235 12.3867L12.6172 14.3913L13.4023 12.5273L12.9623 14.5044L14.3578 13.0541L13.2446 14.7376L15.0612 13.8964L13.4246 15.0576L15.4172 14.9393L13.4783 15.4227L15.3778 16.0433L13.3989 15.7827L14.9486 17.0581L13.1966 16.0896L14.1875 17.8479L12.8989 16.301L13.1972 18.305L12.5458 16.3896L12.1115 18.3679L12.1858 16.3427L11.0772 18.0284L11.8669 16.1667L10.2326 17.3324L11.6315 15.8856L9.69435 16.3736L11.5126 15.537L9.5332 15.281L11.5258 15.1679L9.77149 14.2033L11.6686 14.829L10.3772 13.2856L11.9235 14.5656L11.2675 12.6513V12.6519Z" fill="white"/>
<path d="M13.9333 15.2212C15.1893 13.3149 17.4796 11.6537 20.0116 11.3583C17.2687 11.2869 14.4356 12.5709 12.7173 14.8234C13.0813 14.892 13.5665 14.9549 13.9333 15.2212ZM13.7882 24.948C12.959 24.7417 12.1527 24.2143 11.5425 23.748C13.0493 27.0812 16.3453 29.1269 19.6202 29.1366C19.891 29.1372 20.3167 29.1537 20.5767 29.1297C18.0676 28.9309 15.4225 27.5623 13.7882 24.948ZM20.7785 25.1617C17.291 25.1617 14.1785 24.0932 12.7682 22.6114C12.075 20.0423 12.5773 17.6372 13.5019 15.9554C13.0705 15.736 12.7345 15.4766 12.4019 15.216C10.7739 17.5863 10.4579 20.2926 11.1813 22.7389C12.547 24.2777 15.783 25.4389 19.3527 25.4389C20.7413 25.4389 22.0242 25.3669 23.1916 25.0777C22.4156 25.1909 21.6265 25.1617 20.7785 25.1617ZM28.571 22.8863C28.571 22.8863 27.9882 23.508 27.5767 23.804C27.5767 23.804 26.4716 27.076 23.1465 28.564C23.1465 28.564 27.2047 27.2697 28.571 22.8863Z" fill="white"/>
<path d="M12.7188 14.8226C13.8256 15.734 15.2227 16.2534 16.6102 16.5391L16.785 16.0363C14.9405 15.45 14.1508 14.6957 14.1508 14.6957L12.7188 14.8226ZM17.3593 16.2032C17.3013 16.3486 17.2535 16.4979 17.2165 16.65C19.9387 17.086 22.4542 16.6992 22.4542 16.6992C20.3033 16.7757 18.6256 16.5386 17.3593 16.2032ZM24.0005 19.9997H21.1433V17.1426H24.0005V19.9997ZM27.429 19.4283H25.1433V17.1426H27.429V19.4283ZM28.5719 17.1426H28.0005V16.5711H28.5719V17.1426ZM27.429 16.5711H26.2879V15.4283H27.429V16.5711ZM25.1433 13.714H24.573V13.1426H25.1433V13.714ZM25.0176 16.5551H24.197V15.7209H25.0182L25.0176 16.5551ZM23.629 16.9437H22.5616V15.8597H23.629V16.9437ZM26.8593 14.8569H26.2879V14.2854H26.8593V14.8569ZM25.7159 15.4283H24.573V14.2854H25.7159V15.4283ZM24.0005 15.4283H22.2862V13.714H24.0005V15.4283Z" fill="white"/>
</g>
<circle cx="20" cy="20" r="19.5" stroke="black" stroke-opacity="0.05"/>
<defs>
<clipPath id="clip0_9_401678">
<rect width="20" height="19" fill="white" transform="translate(9 11)"/>
</clipPath>
</defs>
</svg>
