<svg width="40" height="40" viewBox="0 0 40 40" fill="none" xmlns="http://www.w3.org/2000/svg">
<circle cx="20" cy="20" r="20" fill="black"/>
<g clip-path="url(#clip0_9_406679)">
<path d="M30.0192 20.5556C28.6772 20.5556 28.5942 20.9748 28.1397 22.455C27.4196 24.8581 26.9466 25.847 26.119 25.847C25.2929 25.847 24.9443 25.0239 24.1996 22.8282C23.8449 21.8163 23.1708 20.5556 22.2203 20.5556C21.2683 20.5556 20.4422 21.8807 20.0107 23.5974C19.0188 27.5928 18.7931 29.5168 17.2868 29.5168C15.7804 29.5168 15.5731 27.5637 14.6457 23.5974C14.1681 21.5905 13.7781 20.5556 12.909 20.5556C12.3301 20.5556 11.8403 21.1468 11.5455 22.4381C11.137 24.1072 10.8883 25.1253 10.1866 25.1253C9.4833 25.1253 9.24069 23.8815 8.92745 21.8992C8.91363 21.7579 8.87985 21.6182 8.83071 21.4846C8.78157 21.351 8.71555 21.2251 8.6357 21.1084C8.55432 20.9917 8.45912 20.8842 8.35317 20.7921C8.24568 20.6984 8.12745 20.6186 8 20.5556H10.0023C10.9543 20.5556 11.4441 19.7909 11.7758 18.4013C12.3301 16.0274 12.7447 13.8715 14.0023 13.8715C15.2614 13.8715 15.7574 16.5003 16.1935 18.2769C16.4837 19.4608 16.9735 20.5556 17.9255 20.5556C18.876 20.5556 19.6146 18.9863 19.9155 17.6658C20.1643 16.5894 20.737 11.0078 22.658 11.0078C24.5774 11.0078 24.9551 15.275 25.5463 17.6427C26.2081 20.3545 26.6211 20.5617 27.0772 20.5617C27.5317 20.5617 27.8203 20.2715 28.0875 19.2351C28.5528 17.4769 28.9259 15.9859 29.6875 15.9859C30.4507 15.9859 30.681 17.4539 31.1294 19.2289C31.4073 20.3237 31.8142 20.5556 31.9985 20.5556H30.0192Z" fill="#E90029"/>
</g>
<circle cx="20" cy="20" r="19.5" stroke="black" stroke-opacity="0.05"/>
<defs>
<clipPath id="clip0_9_406679">
<rect width="24" height="18.5182" fill="white" transform="translate(8 11)"/>
</clipPath>
</defs>
</svg>
