<svg width="40" height="40" viewBox="0 0 40 40" fill="none" xmlns="http://www.w3.org/2000/svg">
<circle cx="20" cy="20" r="20" fill="#00386D"/>
<g clip-path="url(#clip0_9_386509)">
<path d="M14.5852 14.0527C15.5661 14.0583 16.547 14.0543 17.528 14.0543C16.091 15.9906 14.6862 17.9519 13.2403 19.8811C14.5278 21.809 15.7948 23.7481 17.0924 25.6682C16.0751 25.6758 15.0573 25.6655 14.041 25.6743C12.9077 23.9509 11.7714 22.2291 10.6435 20.5026C10.6408 22.2261 10.6408 23.9493 10.6451 25.6728C9.76818 25.6682 8.89129 25.6713 8.0144 25.6713C8.01745 21.7999 8.01745 17.9283 8.0144 14.0568C8.89129 14.0527 9.76699 14.0568 10.6435 14.0527C10.642 15.8804 10.6393 17.708 10.6451 19.5356C11.953 17.7039 13.2742 15.8819 14.5852 14.0527Z" fill="white"/>
<path d="M30.6767 23.5196L32.1293 17.9062C33.0973 14.5103 33.6507 14.3717 33.9967 14.0251H31.7143C30.8845 14.0251 30.2615 15.2032 30.1233 15.9657L29.155 19.5001H27.0802C27.0802 19.5001 28.3252 14.9955 28.4634 14.5103C28.5325 14.3026 28.5325 14.0251 28.1178 14.0251C28.0482 14.0251 23.6912 13.8866 22.3077 14.3717C21.6853 14.5795 20.7864 15.1339 20.5094 15.9657C20.3021 16.451 20.0253 17.3516 20.6481 19.0149C20.7172 19.2228 20.8555 19.3617 20.9246 19.4309C21.1319 19.5693 22.9302 19.2924 22.8611 19.2924C22.9997 19.2924 23.0688 19.2228 22.9302 18.9457C22.792 18.5991 22.3772 17.9753 22.3077 17.3516C22.0313 14.9263 23.7603 14.5795 24.0368 14.5103C24.4519 14.441 24.7978 14.441 25.2126 14.5103C25.3512 14.5103 25.6967 14.5795 25.7658 14.7184C25.9045 14.9955 25.6967 15.4806 25.5585 16.035C25.4203 16.451 24.2446 20.7475 23.8986 21.9256C23.6912 22.8267 22.792 24.767 21.8929 25.0444C21.6853 25.1137 21.4088 25.1137 21.1319 25.0444C20.8555 24.9751 20.5787 24.8362 20.3712 24.6977C19.818 24.1433 19.472 23.0345 19.4028 22.203C19.3337 21.1634 19.5414 20.4012 19.3337 20.4012C18.973 20.4012 17.7675 20.8785 17.2788 21.2299C17.278 21.2308 17.2773 21.2308 17.2764 21.2315C17.0783 21.3734 17.0654 21.4008 17.0654 21.4008C17.0556 21.4107 17.0474 21.4207 17.0422 21.4298C16.9146 21.6478 16.9233 22.4229 16.9822 22.896C17.1899 23.9355 17.7433 25.1137 18.5731 25.6681C20.7864 27.1925 24.6596 24.4207 25.0744 24.1433C25.6967 23.5889 26.1119 22.8267 26.2501 22.2723C26.4579 21.5794 26.8034 20.4012 26.8034 20.4012H28.8785C28.8785 20.4012 28.0482 23.5196 27.8409 24.2819C27.6336 24.9055 27.495 25.9452 28.0482 25.8759C30.1233 25.8759 30.9536 25.1137 31.0227 25.0444C31.0918 24.9751 31.0918 24.8362 31.0227 24.767C30.8845 24.6977 30.4003 24.2126 30.6767 23.5196Z" fill="#E32726"/>
</g>
<circle cx="20" cy="20" r="19.5" stroke="black" stroke-opacity="0.05"/>
<defs>
<clipPath id="clip0_9_386509">
<rect width="26" height="12.1277" fill="white" transform="translate(8 14)"/>
</clipPath>
</defs>
</svg>
