<svg width="40" height="40" viewBox="0 0 40 40" fill="none" xmlns="http://www.w3.org/2000/svg">
<circle cx="20" cy="20" r="20" fill="#128AD8"/>
<g clip-path="url(#clip0_9_411191)">
<path d="M20.0044 28.821C14.4387 28.821 9.94764 24.88 9.94764 19.9992C9.94764 15.1172 14.4387 11.1762 20.0044 11.1762C25.5688 11.1762 30.0605 15.1172 30.0605 19.9992C30.0605 24.88 25.5688 28.821 20.0044 28.821ZM9.07153 20.0004C9.07153 25.3657 13.9639 29.7147 20.0001 29.7147C26.0351 29.7147 30.9287 25.3657 30.9287 20.0004C30.9287 14.6357 26.0351 10.2861 20.0001 10.2861C13.9517 10.2861 9.07153 14.6357 9.07153 20.0004Z" fill="white"/>
<path d="M21.411 25.2809V20.9909C22.1954 22.785 23.5827 23.1802 24.7077 23.1802H27.8285V21.258H25.644C24.5177 21.258 24.165 20.4044 24.165 19.9132C24.165 18.725 25.1091 17.8198 26.5146 16.5496H24.0253C22.9482 17.2709 21.8961 18.4136 21.4134 19.6958V13.7562H18.5859V19.6958C18.1026 18.4129 17.0511 17.2709 15.974 16.5496H13.4847C14.8909 17.8198 15.8344 18.7244 15.8344 19.9132C15.8344 20.4038 15.4816 21.2574 14.3554 21.2574H12.1715V23.1796H15.2922C16.4166 23.1796 17.8027 22.785 18.589 20.9909V25.2809H21.411ZM17.6813 26.2044V23.5008C17.4585 23.655 16.9035 24.1007 15.7603 24.1007H11.2705V20.3309H14.0409C14.7348 20.3309 14.7785 19.9089 14.7785 19.7814C14.7785 18.6922 12.9474 17.1853 10.9153 15.6225L16.3614 15.6122C16.6941 15.8623 17.2174 16.2418 17.6849 16.7779V12.8193H22.3144V16.7779C22.7813 16.2418 23.3052 15.8623 23.638 15.6122L29.0846 15.6225C27.0513 17.1859 25.2208 18.6922 25.2208 19.7814C25.2208 19.9089 25.2645 20.3309 25.9585 20.3309H28.7289V24.1013H24.2384C23.0958 24.1013 22.5409 23.655 22.318 23.5014V26.2044H17.6813Z" fill="white"/>
</g>
<circle cx="20" cy="20" r="19.5" stroke="black" stroke-opacity="0.05"/>
<defs>
<clipPath id="clip0_9_411191">
<rect width="22" height="20" fill="white" transform="translate(9 10)"/>
</clipPath>
</defs>
</svg>
