<svg width="40" height="40" viewBox="0 0 40 40" fill="none" xmlns="http://www.w3.org/2000/svg">
<circle cx="20" cy="20" r="20" fill="#053361"/>
<g clip-path="url(#clip0_9_409694)">
<path d="M23.0689 14H23.2943C23.8527 14.0076 24.4262 14.1846 24.8288 14.5841C25.0739 14.8187 25.2404 15.1168 25.3841 15.4194C25.6126 14.917 25.9834 14.457 26.4873 14.2103C26.7369 14.0893 27.0093 14.0182 27.2863 14H27.5057C27.6812 14.0061 27.8567 14.0272 28.0308 14.0575C28.6028 14.1604 29.1173 14.5417 29.3745 15.0638C29.6757 15.6419 29.7317 16.3047 29.7392 16.9448C29.7392 18.6532 29.7392 20.3632 29.7392 22.0731C28.6789 22.0742 27.6187 22.0742 26.5584 22.0731C26.5599 20.4434 26.5599 18.8151 26.5584 17.1869C26.5554 16.916 26.513 16.6119 26.3011 16.4212C26.1105 16.2381 25.773 16.2926 25.6217 16.4999C25.4356 16.7405 25.431 17.0613 25.4401 17.3518C25.4401 18.9256 25.4401 20.4994 25.4401 22.0731C24.3808 22.0731 23.3201 22.0731 22.2608 22.0731C22.2608 20.4721 22.2608 18.8711 22.2608 17.2701C22.2608 16.9841 22.2381 16.6618 22.0277 16.4454C21.8507 16.2502 21.5132 16.2729 21.3438 16.4681C21.1909 16.6406 21.1425 16.8812 21.1364 17.1067C21.138 18.7622 21.138 20.4177 21.1364 22.0731C20.0787 22.0747 19.0194 22.0731 17.9602 22.0731C17.9602 19.4603 17.9602 16.8479 17.9602 14.2361C18.9922 14.2346 20.0227 14.2346 21.0547 14.2361C21.082 14.6401 21.0971 15.0441 21.1364 15.4482C21.3226 15.0926 21.5344 14.7385 21.8507 14.4827C22.1866 14.1892 22.627 14.0288 23.0689 14ZM10.3985 14.2663C11.3095 13.9607 12.3021 13.9425 13.2404 14.1241C14.0091 14.2754 14.7718 14.6598 15.2166 15.3256C15.5798 15.8522 15.6918 16.5014 15.716 17.1279C14.7657 17.1264 13.8139 17.1294 12.8636 17.1248C12.8272 16.8192 12.8076 16.4817 12.5927 16.2396C12.3808 16.0262 12.0373 16.0293 11.7725 16.1306C11.5137 16.2502 11.3776 16.5271 11.3231 16.7934C11.2005 17.3654 11.2293 17.9541 11.2323 18.5352C11.2444 18.9453 11.2535 19.3675 11.4003 19.7579C11.4699 19.9546 11.6151 20.1332 11.8179 20.2028C12.0449 20.2754 12.3233 20.2648 12.5049 20.0938C12.7425 19.8517 12.7697 19.4916 12.7985 19.1707C13.771 19.1707 14.743 19.1707 15.7145 19.1707C15.716 19.8502 15.5284 20.5523 15.082 21.0774C14.5675 21.7175 13.7715 22.0625 12.9801 22.2063C12.2023 22.3228 11.4003 22.3077 10.6376 22.1049C10.117 21.9763 9.63279 21.7145 9.22421 21.368C8.65069 20.858 8.29054 20.1407 8.13468 19.3947C8.00605 18.8333 8 18.2537 8 17.6802C8.03329 16.9538 8.22093 16.2184 8.62951 15.6086C9.0396 14.9715 9.68424 14.5069 10.3985 14.2663ZM17.9314 24.3839C19.9834 24.3823 22.0338 24.3823 24.0842 24.3839C24.0842 24.9831 24.0842 25.5823 24.0842 26.1816H17.9314C17.9314 25.5823 17.9314 24.9831 17.9314 24.3839ZM25.8381 24.3823C27.89 24.3839 29.942 24.3823 31.9939 24.3839V26.1816H25.8381C25.8381 25.5823 25.8381 24.9831 25.8381 24.3823Z" fill="white"/>
</g>
<circle cx="20" cy="20" r="19.5" stroke="black" stroke-opacity="0.05"/>
<defs>
<clipPath id="clip0_9_409694">
<rect width="24" height="12.1816" fill="white" transform="translate(8 14)"/>
</clipPath>
</defs>
</svg>
