<svg width="40" height="40" viewBox="0 0 40 40" fill="none" xmlns="http://www.w3.org/2000/svg">
<circle cx="20" cy="20" r="20" fill="#001E54"/>
<path d="M19.2195 7C20.2242 7.57321 21.1452 8.30744 21.931 9.1576C23.1354 10.4522 23.9598 12.0688 24.3977 13.7755C24.7713 15.1667 24.9001 16.6158 24.9903 18.0521C25.0547 18.7734 25.074 19.5141 25.3187 20.2032C25.9113 21.9873 26.6326 23.7198 27.3604 25.4459C25.9177 24.5893 24.6038 23.4879 23.5862 22.1483C22.8327 21.1564 22.2594 20.0358 21.8923 18.8507C21.5639 17.7944 21.39 16.6931 21.3191 15.5982C21.2612 14.806 21.274 14.0203 21.2032 13.2345C21.1517 12.7965 21.0615 12.3715 20.9713 11.9464C20.7845 11.0254 20.4174 10.1559 20.089 9.28641C19.7991 8.52642 19.4835 7.77287 19.2195 7ZM19.4449 11.9721C19.5608 11.8176 19.651 11.6501 19.7863 11.5149C19.8378 13.0155 19.6381 14.5291 19.1808 15.9589C18.6849 17.4917 17.8348 18.9087 16.7205 20.068C15.8961 20.9503 14.93 21.6846 13.9317 22.3608C13.4873 22.67 13.0236 22.9598 12.605 23.3076C11.9416 23.9001 11.2911 24.5184 10.763 25.2333C10.003 26.2123 9.28808 27.2299 8.52809 28.2025C8.50232 28.0286 8.49588 27.8482 8.50232 27.6743C8.52809 26.3991 8.72774 25.1238 9.1657 23.9195C9.784 22.2191 10.8789 20.7185 12.1992 19.4948C13.0494 18.6961 13.9962 18.007 14.9365 17.3178C15.4582 16.9185 16.0185 16.545 16.4243 16.0168C17.4998 14.7223 18.4788 13.3504 19.4449 11.9721ZM12.7724 24.9113C14.4921 24.1191 16.3792 23.6103 18.2856 23.6425C20.1662 23.649 22.0083 24.2157 23.6635 25.0981C24.5587 25.5554 25.3831 26.1286 26.2719 26.5987C27.1028 26.9659 27.9529 27.3072 28.8417 27.5004C30.059 27.7774 31.2827 28.0221 32.5 28.2862C30.6322 29.2523 28.4875 29.6902 26.3943 29.4584C24.9323 29.3102 23.5218 28.8336 22.2015 28.2089C21.1066 27.7001 20.0825 27.056 19.0005 26.515C18.4724 26.2445 17.8863 26.1221 17.3195 25.9804C15.748 25.6069 14.1701 25.2913 12.5792 25.0208C12.6436 24.9822 12.708 24.9435 12.7724 24.9113Z" fill="#FFA300"/>
<circle cx="20" cy="20" r="19.5" stroke="black" stroke-opacity="0.05"/>
</svg>
