<svg width="40" height="40" viewBox="0 0 40 40" fill="none" xmlns="http://www.w3.org/2000/svg">
<circle cx="20" cy="20" r="20" fill="#F40000"/>
<g clip-path="url(#clip0_9_399226)">
<path d="M26.3321 15.763C26.3321 15.763 25.7395 15.9991 25.0506 16.7584C24.3589 17.5204 23.9598 18.3722 24.2571 18.5982C24.371 18.6843 24.6339 18.6991 25.1117 18.2695C25.4848 17.9352 25.8645 17.4963 26.1219 16.8685C26.4302 16.1167 26.3321 15.7713 26.3321 15.763ZM30.1034 17.1297C29.3376 16.7371 28.7784 16.2574 28.196 15.9584C27.6404 15.6732 27.2811 15.5537 26.8321 15.6139C26.758 15.6241 26.6469 15.6602 26.6469 15.6602C26.6469 15.6602 26.8784 16.45 25.958 17.7778C25.0256 19.1222 24.1802 19.1148 23.9395 18.7435C23.6876 18.3537 24.0126 17.5584 24.5552 16.8509C25.1237 16.1111 26.1228 15.4972 26.1228 15.4972C26.1228 15.4972 25.8043 15.3028 25.0219 15.7463C24.2598 16.1769 22.9441 17.2047 21.7274 18.938C20.5117 20.6713 20.2673 21.625 20.0923 22.3759C19.9163 23.1269 20.0765 23.9306 20.9089 23.9306C21.7423 23.9315 22.7108 22.6611 22.9839 22.2195C23.4923 21.3972 23.8237 20.1361 23.1321 20.3093C22.7913 20.3945 22.5154 20.7722 22.3413 21.1352C22.1626 21.5084 22.0904 21.8648 22.0904 21.8648C22.0904 21.8648 21.8024 21.9676 21.4154 22.2574C21.0284 22.5463 20.7756 22.8232 20.7756 22.8232C20.7756 22.8232 20.7784 22.2232 21.2571 21.2519C21.7358 20.2806 22.6136 19.8371 23.1108 19.7954C23.5589 19.7593 24.1423 20.1398 23.6478 21.5445C23.1543 22.9491 21.696 24.6528 20.1636 24.6741C18.7497 24.6935 17.8247 22.8889 19.7923 19.7417C21.9691 16.2602 24.5247 15.1926 25.3543 15.0741C26.1839 14.9556 26.4534 15.3213 26.4534 15.3213C26.4534 15.3213 27.1487 15.0009 28.0302 15.0611C29.0432 15.1297 29.8265 15.8463 30.8598 16.35C30.5913 16.6084 30.3348 16.8769 30.1034 17.1297ZM34.6534 15.9584C33.9515 16.4084 32.9802 16.8167 32.0469 16.7269C31.8108 16.9713 31.558 17.2537 31.3043 17.5621C32.9228 17.8824 34.3404 16.8797 35.0941 16.0259C35.5654 15.4935 35.7978 15.0176 35.7978 15.0176C35.7978 15.0176 35.3478 15.5121 34.6534 15.9584ZM32.4987 20.5176C32.5191 20.4815 32.5284 20.45 32.5284 20.45C32.5284 20.45 32.5098 20.3139 32.3802 20.3084C32.2265 20.3009 32.0154 20.3306 31.4645 20.9408C30.9154 21.5482 30.5821 22.0759 30.2923 22.6037C29.9765 23.1806 29.8487 23.6102 30.0302 23.7213C30.0811 23.7528 30.158 23.7565 30.221 23.7408C30.3441 23.7111 30.483 23.5963 30.695 23.3509C30.7941 23.2361 30.9043 23.0732 31.0358 22.8926C31.4006 22.3963 32.3173 20.8334 32.4987 20.5176ZM26.771 21.1815C26.8626 20.9408 26.9802 20.4685 26.7367 20.2834C26.4747 20.0861 25.808 20.5482 25.8043 21.0222C25.7997 21.5074 26.2737 21.7269 26.3876 21.7574C26.4524 21.775 26.4747 21.7722 26.5061 21.7204C26.5256 21.6861 26.6784 21.4232 26.771 21.1815ZM26.2663 22.0639C26.2487 22.0584 26.033 21.9593 25.808 21.7713C25.5839 21.5843 25.471 21.3704 25.4626 21.3537C25.4534 21.338 25.4441 21.35 25.4339 21.3639C25.4237 21.3778 25.3839 21.413 25.0265 21.9361C24.67 22.4593 24.1247 23.5371 24.6191 23.7213C24.9358 23.8389 25.4626 23.2843 25.7515 22.9167C26.0182 22.575 26.2682 22.1408 26.2821 22.1093C26.2969 22.0778 26.2839 22.0704 26.2663 22.0639ZM31.8737 23.3111C31.7395 23.5259 31.5867 23.938 32.0302 23.6815C32.57 23.3695 33.3395 22.2028 33.3395 22.2028H33.6876C33.6876 22.2028 33.2284 22.9278 32.6302 23.5898C32.083 24.1963 31.4154 24.7472 30.945 24.6926C30.396 24.6287 30.5682 23.9074 30.5682 23.9074C30.5682 23.9074 29.7793 24.7445 29.2376 24.6843C28.5034 24.6028 28.7274 23.6954 28.7274 23.6954C28.7274 23.6954 27.8969 24.7167 27.3311 24.6834C26.4441 24.6324 26.6673 23.55 26.9136 22.7926C27.046 22.3861 27.1682 22.0667 27.1682 22.0667C27.1682 22.0667 27.0802 22.0898 26.8913 22.1176C26.7923 22.1315 26.6126 22.1417 26.6126 22.1417C26.6126 22.1417 26.2432 22.7935 25.9478 23.1852C25.6524 23.5778 24.396 24.9269 23.6571 24.6565C22.9737 24.4065 23.1997 23.3602 23.5978 22.5287C24.1784 21.3167 25.8117 19.575 26.7534 19.8037C27.7302 20.0408 26.7756 21.8222 26.7756 21.8222C26.7756 21.8222 26.7756 21.8287 26.7858 21.8334C26.8052 21.8408 26.8561 21.8463 26.9737 21.8232C27.1617 21.7871 27.3311 21.7167 27.3311 21.7167C27.3311 21.7167 28.3126 19.6611 29.3969 18.3167C30.4811 16.9722 32.6441 14.6574 33.4932 15.2176C33.7006 15.3556 33.6061 15.8297 33.3265 16.4056C33.2024 16.4445 33.0747 16.4787 32.9432 16.5056C33.1302 16.1658 33.2543 15.8797 33.2913 15.6797C33.4191 14.9852 31.7969 16.4491 30.6376 18.025C29.4784 19.6009 28.7821 21.0278 28.7821 21.0278C28.7821 21.0278 29.0154 20.8954 29.3802 20.6019C29.7608 20.2954 30.2848 19.8148 30.8524 19.2278C31.2348 18.8324 31.6848 18.3361 32.1052 17.7815C32.2311 17.775 32.3543 17.763 32.4737 17.7435C32.0043 18.375 31.5108 18.9519 31.0913 19.3769C30.6302 19.8445 30.1284 20.3472 29.6932 20.7139C29.0006 21.2954 28.4673 21.625 28.4673 21.625C28.4673 21.625 27.4534 23.6695 28.0052 23.8009C28.3293 23.8787 28.97 22.8926 28.97 22.8926C28.97 22.8926 29.8052 21.6176 30.3089 21.0445C30.996 20.263 31.5876 19.8121 32.1784 19.8028C32.5228 19.7963 32.7256 20.1639 32.7256 20.1639L32.8876 19.913L33.8848 19.9139C33.8848 19.9139 32.0228 23.0732 31.8737 23.3111ZM34.6534 15.9584C33.9515 16.4084 32.9802 16.8167 32.0469 16.7269C31.8108 16.9713 31.558 17.2537 31.3043 17.5621C32.9228 17.8824 34.3404 16.8797 35.0941 16.0259C35.5654 15.4935 35.7978 15.0176 35.7978 15.0176C35.7978 15.0176 35.3478 15.5121 34.6534 15.9584ZM20.6524 17.5084L19.7043 17.5074L19.1682 18.3741L20.1163 18.375L20.6524 17.5084ZM16.1626 20.5065C16.5663 19.9537 17.6793 18.0158 17.6793 18.0158C17.6793 18.0158 17.6608 17.8797 17.5311 17.8741C17.3774 17.8667 17.1219 17.9185 16.6098 18.5574C16.0978 19.1954 15.7034 19.7047 15.4145 20.2334C15.0978 20.8102 14.9598 21.2176 15.1413 21.3278C15.1923 21.3584 15.2691 21.363 15.3321 21.3472C15.4506 21.3176 15.6052 21.1991 15.8173 20.9547C15.9173 20.8408 16.0302 20.6871 16.1626 20.5065ZM11.0747 17.8861C10.8126 17.688 10.146 18.1509 10.1423 18.6241C10.1385 19.1093 10.7441 19.2482 10.8228 19.2519C10.8228 19.2519 10.8913 19.2704 10.9182 19.213C10.9348 19.1769 11.0173 19.025 11.1098 18.7843C11.2015 18.5435 11.3182 18.0713 11.0747 17.8861ZM10.6793 19.5574C10.6617 19.5509 10.4108 19.4787 10.1654 19.3213C9.92003 19.1648 9.80707 18.9315 9.79874 18.9148C9.78948 18.8991 9.77929 18.9111 9.77003 18.925C9.75985 18.9389 9.70707 19.0056 9.35059 19.5287C8.99411 20.0509 8.4654 21.1222 8.96077 21.3056C9.27744 21.4232 9.80985 20.8667 10.0978 20.4991C10.3645 20.1574 10.683 19.6324 10.6969 19.6019C10.7089 19.5704 10.696 19.563 10.6793 19.5574ZM18.4265 19.8797H18.7737C18.7737 19.8797 17.033 22.3954 16.0487 22.2806C15.4997 22.2167 15.6626 21.5389 15.6626 21.5389C15.6626 21.5389 14.8895 22.4417 14.1839 22.2611C13.5413 22.0963 13.9561 21.0287 13.9561 21.0287C13.883 21.0584 12.4932 22.625 11.5163 22.2491C10.4941 21.8547 11.0247 20.5426 11.2191 20.1482C11.3839 19.8158 11.5663 19.4917 11.5663 19.4917C11.5663 19.4917 11.4098 19.5361 11.3117 19.5584C11.2145 19.5806 11.0663 19.6093 11.0663 19.6093C11.0663 19.6093 10.583 20.3954 10.2876 20.7871C9.99225 21.1797 8.73577 22.5269 7.99596 22.2584C7.25614 21.9889 7.43948 20.9547 7.85522 20.1324C8.52929 18.7991 10.1293 17.1602 11.0923 17.4065C12.0654 17.6547 11.2598 19.2334 11.2598 19.2334C11.2598 19.2334 11.4534 19.2584 11.9173 18.9417C12.5867 18.4861 13.4673 17.2602 14.4219 17.4037C14.87 17.4713 15.2876 17.9315 14.7163 18.8047C14.533 19.0852 14.2265 19.3361 13.9913 19.088C13.845 18.9352 13.9728 18.6528 14.1265 18.4602C14.3432 18.1871 14.6423 18.225 14.6423 18.225C14.6423 18.225 14.7997 17.863 14.3987 17.8704C14.0737 17.8769 13.2515 18.6334 12.7876 19.3982C12.3617 20.1 11.7173 21.2963 12.3645 21.5574C12.958 21.7972 14.0876 20.4565 14.6108 19.7537C15.1339 19.0519 16.3247 17.4584 17.3247 17.3945C17.6691 17.3722 17.8737 17.6861 17.8737 17.6861L17.9895 17.5028L18.9876 17.5037C18.9876 17.5037 17.1043 20.6463 16.9571 20.8843C16.8413 21.0704 16.6876 21.4889 17.1136 21.2547C17.5413 21.0195 18.4265 19.8797 18.4265 19.8797ZM17.8821 24.9167C17.1265 24.3843 16.2052 24.15 15.3691 24.1834C14.5228 24.2167 14.1432 24.8482 14.1432 24.8482C13.7617 24.1824 13.008 23.7741 11.8423 23.7834C9.95892 23.8047 8.08948 24.6732 6.61077 24.6722C5.1904 24.6713 4.15614 23.7797 4.1904 22.1954C4.25151 19.4176 6.59966 16.9158 8.35429 15.7898C9.36262 15.1426 10.2071 14.9509 10.7598 15.013C11.1626 15.0574 11.6469 15.5232 11.3413 16.2093C10.8923 17.2139 10.2719 17.1297 10.295 16.65C10.308 16.338 10.5154 16.1417 10.6719 16.0343C10.771 15.9658 10.946 15.9463 11.0376 15.9445C11.1265 15.8695 11.1941 15.3204 10.4719 15.5009C9.74874 15.6815 8.87929 16.3908 8.04966 17.3056C7.22003 18.2195 5.92929 19.9537 5.60985 21.7722C5.46077 22.6158 5.55985 24.1537 7.55799 24.1371C9.25151 24.1232 11.7534 23.0084 14.0506 23.0297C14.9423 23.038 15.7182 23.2787 16.3228 23.6519C16.9173 24.0176 17.6293 24.5519 17.8821 24.9167Z" fill="white"/>
</g>
<circle cx="20" cy="20" r="19.5" stroke="black" stroke-opacity="0.05"/>
<defs>
<clipPath id="clip0_9_399226">
<rect width="32" height="10" fill="white" transform="translate(3.99988 15)"/>
</clipPath>
</defs>
</svg>
