<svg width="40" height="40" viewBox="0 0 40 40" fill="none" xmlns="http://www.w3.org/2000/svg">
<circle cx="20" cy="20" r="20" fill="#E94433"/>
<g clip-path="url(#clip0_9_387608)">
<path d="M17.474 13.0164C17.7367 12.6498 18.2067 11.7011 17.5887 11.4298C16.85 11.1051 15.844 11.8718 15.4513 12.4378C15.056 13.0064 15.1327 13.5051 15.2713 14.1564C15.344 14.4984 15.2093 14.8064 14.9733 15.0544C14.7982 15.2384 14.6256 15.4186 14.4553 15.5951C14.0713 15.9924 13.9413 16.5184 13.8847 17.0551C13.8093 17.7731 13.83 18.5591 13.6973 19.2544C13.6369 19.57 13.5365 19.9478 13.396 20.3878C13.2351 20.8913 13.1825 21.4509 13.238 22.0664C13.262 22.3362 13.3362 22.6918 13.4607 23.1331C13.6598 23.842 13.7798 24.6815 13.8207 25.6518C13.8647 26.6869 13.7593 27.698 13.5047 28.6851C13.4722 28.8104 13.4296 28.936 13.3767 29.0618C13.3642 29.0924 13.3445 29.098 13.3173 29.0784C7.49201 24.8738 6.92068 16.4644 12.242 11.5818C14.814 9.22175 18.3653 8.15842 21.828 8.71575C25.054 9.23442 27.8793 11.0898 29.6573 13.8404C32.3387 17.9898 31.9267 23.4264 28.736 27.1878C28.7325 27.1919 28.7281 27.1953 28.7232 27.1978C28.7184 27.2003 28.7131 27.2017 28.7077 27.2021C28.7022 27.2025 28.6968 27.2018 28.6917 27.2C28.6866 27.1982 28.682 27.1954 28.678 27.1918C28.382 26.9264 28.1367 26.4778 27.9253 26.0924C26.9767 24.3638 26.37 22.5164 26.344 20.5858C26.34 20.2731 26.506 19.9631 26.6773 19.7098C27.2047 18.9311 27.894 18.2411 28.5387 17.5344C28.9827 17.0478 29.8393 16.0884 29.3967 15.3851C29.2313 15.1224 28.894 15.0658 28.636 15.2251C28.4667 15.3295 28.34 15.4631 28.256 15.6258C27.9933 16.1342 27.6638 16.5578 27.2673 16.8964C26.892 17.2178 25.9933 17.9151 25.4967 17.8238C25.018 17.7358 25.4733 16.8918 25.602 16.6664C25.9189 16.1086 26.1133 15.7429 26.1853 15.5691C26.292 15.3109 26.274 15.0849 26.1313 14.8911C25.8047 14.4471 25.0007 14.6604 24.63 14.9324C24.0945 15.3262 23.7389 15.8504 23.5633 16.5051C23.4093 17.0784 24.0433 17.6278 23.6873 18.1964C23.3093 18.7991 22.3627 19.1618 21.7007 19.2491C21.1585 19.3202 20.6147 19.2882 20.0693 19.1531C19.4967 19.0111 19.1967 18.6604 19.014 18.0931C18.7733 17.3458 18.5173 16.6004 18.152 15.9504C17.9327 15.5598 17.5427 15.2671 17.202 14.9778C17.0536 14.852 16.944 14.71 16.8733 14.5518C16.67 14.0978 17.2087 13.3871 17.474 13.0164Z" fill="white"/>
<path d="M20.4147 20.8055C21.7741 20.9782 22.7134 21.6175 22.9401 23.0089C23.1472 24.284 23.3465 25.6258 23.5381 27.0342C23.6687 27.9987 23.7467 28.886 23.7721 29.6962C23.7805 29.9762 23.7527 30.2262 23.6887 30.4462C23.6201 30.6842 23.3361 30.8762 23.1261 31.0002C23.0248 31.0602 22.9134 31.1038 22.7921 31.1309C21.9841 31.3122 21.1334 31.4129 20.2401 31.4329C19.9761 31.4391 19.7443 31.3967 19.5448 31.3055C19.2079 31.1513 18.9783 30.8838 18.8561 30.5029C18.5941 29.6862 18.5527 28.7542 18.5434 27.8975C18.5267 26.4069 18.4807 24.8722 18.5487 23.3829C18.5754 22.7889 18.6447 22.1535 18.8774 21.5995C19.1614 20.9235 19.7167 20.7169 20.4147 20.8055Z" fill="white"/>
<path d="M15.854 30.5581C15.61 29.8761 15.5586 29.1314 15.5413 28.3967C15.5273 27.8207 15.5286 25.7341 16.0093 25.4081C16.0331 25.3919 16.0617 25.3841 16.0905 25.386C16.1194 25.388 16.1469 25.3995 16.1686 25.4187C16.44 25.6607 16.552 26.3267 16.6086 26.6727C16.7695 27.6465 16.8549 28.6374 16.8646 29.6454C16.868 30.0407 16.864 30.6007 16.634 30.9387C16.6086 30.9756 16.5749 30.9863 16.5326 30.9707L15.9893 30.7707C15.9706 30.7636 15.9558 30.7518 15.9446 30.7354C15.9073 30.6812 15.8771 30.6221 15.854 30.5581Z" fill="white"/>
<path d="M25.5354 29.6851C25.447 29.506 25.3763 29.3169 25.3234 29.1178C25.1403 28.4235 25.0428 27.6809 25.0308 26.8898C25.0254 26.5144 25.0348 25.9051 25.2334 25.5844C25.5794 25.0258 26.2928 26.2238 26.4181 26.4558C26.7972 27.1584 27.0472 27.7904 27.1681 28.3518C27.2028 28.5127 27.1897 28.6849 27.1288 28.8684C27.0954 28.968 27.0341 29.0511 26.9448 29.1178C26.5026 29.4471 26.1626 29.6773 25.9248 29.8084C25.7523 29.9035 25.6226 29.8624 25.5354 29.6851Z" fill="white"/>
</g>
<circle cx="20" cy="20" r="19.5" stroke="black" stroke-opacity="0.05"/>
<defs>
<clipPath id="clip0_9_387608">
<rect width="24" height="24" fill="white" transform="translate(8 8)"/>
</clipPath>
</defs>
</svg>
