<svg width="40" height="40" viewBox="0 0 40 40" fill="none" xmlns="http://www.w3.org/2000/svg">
<circle cx="20" cy="20" r="20" fill="#50ACC2"/>
<g clip-path="url(#clip0_9_405435)">
<path d="M14.286 11.4287H11.7717C11.7717 11.4287 11.3654 11.7573 11.162 12.2756C11.162 12.2756 10.8574 12.8973 10.8574 13.5196V28.0001H12.9231C12.9231 28.0001 13.6809 27.8619 13.7146 27.3087C13.7489 26.7561 13.7146 22.5024 13.7146 22.5024L17.874 27.5161C17.874 27.5161 18.2123 27.9653 18.6529 28.0001C19.0929 28.0344 21.6323 28.0001 21.6323 28.0001L16.3769 21.6733L18.6306 18.8573H22.8574V25.0596C22.8574 25.0596 22.9426 28.0001 25.4289 28.0001H28.206C28.206 28.0001 28.8174 27.6504 28.8517 26.683C28.8849 25.7156 28.8574 25.7144 28.8574 25.7144H26.8574C26.8574 25.7144 25.7146 25.7464 25.7146 24.5716V18.8573C25.7146 18.8573 28.6289 18.9441 29.1431 17.631V15.631C29.1431 15.631 28.4803 16.3264 26.606 16.3264L25.7146 16.3156V12.5853H23.5209C23.5209 12.5853 23.01 12.6396 22.85 13.227L22.8574 16.3259L18.4906 16.3373C18.4906 16.3373 17.298 16.2716 16.382 17.4344C15.466 18.5979 13.7146 20.9121 13.7146 20.9121V13.4516C13.7146 13.4516 13.6963 12.1659 14.286 11.4287Z" fill="white"/>
<path d="M29.1427 15.3086V17.708C29.1427 17.708 28.889 18.696 26.857 18.8566H16.5713C16.5713 18.8566 15.4513 18.9537 14.5713 19.7137L16.4553 17.0595C16.4553 17.0595 17.3141 16 18.6227 16H27.2913C27.2913 16 28.533 16.0229 29.1427 15.3086Z" fill="white"/>
</g>
<circle cx="20" cy="20" r="19.5" stroke="black" stroke-opacity="0.05"/>
<defs>
<clipPath id="clip0_9_405435">
<rect width="20" height="18" fill="white" transform="translate(10 11)"/>
</clipPath>
</defs>
</svg>
