<svg width="40" height="40" viewBox="0 0 40 40" fill="none" xmlns="http://www.w3.org/2000/svg">
<circle cx="20" cy="20" r="20" fill="#782F40"/>
<g clip-path="url(#clip0_9_395400)">
<path d="M17.0347 16.8629C16.7929 17.1343 16.5887 17.437 16.4279 17.7629C16.2132 18.1988 16.1084 18.5929 16.0917 19.0294L16.0852 19.2017L15.9618 19.0274C15.9227 18.9676 15.8791 18.9109 15.8313 18.8577C15.8184 18.8661 15.7837 19.0294 15.7728 19.1342C15.7278 19.5424 15.8371 20.0342 16.0634 20.4359L16.1097 20.5176L16.0524 20.4854C15.9687 20.436 15.8851 20.3863 15.8017 20.3363C15.6854 20.2656 15.6063 20.2238 15.6044 20.2315C15.6037 20.2379 15.6224 20.3042 15.6481 20.3781C15.8255 20.8879 16.0852 21.298 16.3623 21.5044C16.4234 21.5494 16.4362 21.5622 16.4169 21.5622C16.3514 21.5622 16.0409 21.586 16.0409 21.5912C16.0409 21.595 16.1097 21.6426 16.1932 21.6985C16.739 22.0604 17.3439 22.3234 17.8904 22.4346L18.0215 22.4616L18.0067 22.4976C17.8865 22.7837 17.8537 22.8704 17.8589 22.8872C17.8634 22.9019 17.9154 22.9232 18.1006 22.9817L18.3957 23.0774C18.4278 23.0871 18.4683 23.0967 18.4837 23.0967C18.5262 23.0967 19.0912 22.9379 19.1009 22.9238C19.1144 22.9019 19.1092 22.8872 19.0147 22.6679L18.9222 22.4507L18.9659 22.4442C19.1157 22.4217 19.4551 22.3195 19.7013 22.2224C19.8774 22.153 20.2169 21.9884 20.4046 21.8811C20.5614 21.7911 20.8514 21.6047 20.8514 21.5918C20.8189 21.5828 20.7854 21.5783 20.7517 21.5783L20.5524 21.5661L20.4541 21.5597L20.5107 21.5192C20.7517 21.3514 20.987 21.0164 21.1683 20.5806C21.2268 20.4404 21.2898 20.2637 21.2898 20.2373C21.2898 20.2225 21.2358 20.2514 21.041 20.3672C20.9591 20.4174 20.8759 20.4657 20.7916 20.5118C20.7916 20.5105 20.8224 20.4507 20.8617 20.3807C21.0159 20.0959 21.1098 19.8394 21.1561 19.5707C21.1798 19.4114 21.1785 19.2493 21.1522 19.0904C21.1342 19.0017 21.077 18.8526 21.0622 18.8526C21.059 18.8539 20.9979 18.9362 20.9272 19.0352C20.8006 19.2139 20.7987 19.2152 20.8051 19.1702C20.8076 19.0175 20.7981 18.8649 20.7768 18.7137C20.6881 18.1223 20.3904 17.4955 19.9443 16.9607C19.9035 16.9107 19.8606 16.8624 19.8157 16.816C19.7772 16.7807 19.7739 16.7781 19.7797 16.8012C19.8016 16.8899 19.8472 17.1272 19.8646 17.2493C20.0369 18.4405 19.871 19.6259 19.3985 20.6114C19.2809 20.8551 19.0295 21.28 19.0167 21.2575C18.9597 21.09 18.8929 20.926 18.8167 20.7664C18.7332 20.5844 18.7319 20.5864 18.8662 20.5864C18.9672 20.5864 18.9678 20.5844 18.9035 20.4719C18.8482 20.3768 18.8283 20.3569 18.7839 20.3569C18.7325 20.3569 18.7042 20.3389 18.6592 20.2797C18.6007 20.2026 18.5544 20.1833 18.4265 20.1833C18.3327 20.1833 18.3217 20.1846 18.2594 20.2154C18.1912 20.2482 18.1367 20.3036 18.1051 20.3723C18.0569 20.4674 17.9553 20.8454 17.9142 21.0839C17.8775 21.2922 17.8891 21.2845 17.8068 21.1579C17.3963 20.517 17.1304 19.7944 17.0277 19.0403C16.9569 18.5389 16.9479 17.9545 17.0032 17.4685C17.0238 17.2776 17.0611 17.0404 17.0913 16.9047C17.1067 16.8411 17.1157 16.7871 17.1138 16.7852C17.0847 16.8081 17.0582 16.8342 17.0347 16.8629ZM28.2217 17.428C26.9694 17.5077 26.1427 18.1994 25.9074 19.3643C25.856 19.6182 25.847 19.7288 25.847 20.0914C25.847 20.6249 25.8528 20.9753 25.8927 21.2016C25.9711 21.6542 26.1485 22.063 26.4018 22.3748C26.783 22.8479 27.3809 23.1417 28.0996 23.2137C28.7341 23.2767 29.3596 23.1809 29.8308 22.9508C30.5341 22.6062 30.9635 21.9749 31.0902 21.0974C31.1763 20.5009 31.1139 19.3829 30.9269 18.9059C30.8134 18.6014 30.6341 18.3257 30.4017 18.0985C30.2309 17.929 30.0316 17.7911 29.8128 17.6909C29.3795 17.4827 28.8196 17.3901 28.2217 17.428ZM28.6557 18.4939C29.0401 18.5408 29.3178 18.7549 29.4734 19.1239C29.5942 19.4099 29.6527 20.2964 29.6277 20.7278C29.6148 20.9547 29.5968 21.0839 29.5563 21.2517C29.4155 21.8239 29.0838 22.1164 28.5464 22.144C28.2134 22.162 27.9363 22.0669 27.7344 21.8689C27.5968 21.7326 27.4959 21.5636 27.4413 21.3777C27.3249 21.0235 27.2941 20.011 27.3661 19.5687C27.4722 18.9194 27.7872 18.5614 28.3117 18.4939C28.4082 18.4817 28.5541 18.4817 28.6557 18.4939ZM33.3421 17.4441C32.2878 17.5566 31.6089 18.1564 31.6089 18.976C31.6089 20.0869 32.6709 20.83 33.6706 21.082C34.001 21.1656 34.5384 21.2363 34.5642 21.6619C34.5918 22.0919 34.1868 22.234 33.8249 22.2533C33.3106 22.2816 33.0084 21.9698 32.9802 21.4607H31.5389C31.5389 21.8194 31.6077 22.1774 31.8089 22.4815C32.1309 22.9688 32.7397 23.1584 33.2913 23.2137C33.5851 23.2427 34.0042 23.2349 34.3276 23.1932C35.4706 23.0466 36.0723 22.4905 36.071 21.5822C36.0697 21.0679 35.882 20.4443 35.486 20.1801C35.2482 20.0207 34.9846 19.9165 34.532 19.8066C34.2151 19.7294 33.2521 19.3939 33.1164 19.0268C32.975 18.6404 33.4012 18.3782 33.7304 18.3621C34.1823 18.3409 34.4015 18.616 34.4311 19.0371H35.8717C35.8717 18.2213 35.4237 17.6781 34.6227 17.5019C34.2014 17.4161 33.7693 17.3966 33.3421 17.4441ZM5.21387 23.2137H6.49958V20.0451L8.38637 23.2137L10.0842 23.2099L7.7853 19.9994L9.93501 17.4357L8.32787 17.4312L6.49958 19.678V17.4261H5.21387V23.2137ZM10.9996 23.2137H12.2853V21.2852H13.0104C13.2213 21.2852 13.2695 21.397 13.3357 21.5732C13.5363 22.0964 13.571 23.2137 13.571 23.2137H15.1409L15.1036 23.0672C15.0174 22.7438 14.9737 22.5027 14.894 21.9441C14.8297 21.4864 14.7937 21.3372 14.7031 21.1572C14.3174 20.3909 13.7645 20.3909 13.7645 20.3909C13.7645 20.3909 14.9757 19.9994 14.9757 18.9709C14.9757 17.9436 14.5385 17.6228 13.7645 17.4839C13.4739 17.4312 13.4797 17.4312 12.0545 17.4274L10.9996 17.4242V23.2137ZM12.9539 18.4212C13.3222 18.4592 13.5003 18.5852 13.5562 18.85C13.6134 19.1117 13.553 19.4363 13.2965 19.5642C12.9603 19.7307 12.2853 19.678 12.2853 19.678V18.4116C12.5534 18.4116 12.6871 18.3974 12.9539 18.4212Z" fill="white"/>
<path d="M17.1743 19.0359C17.1666 19.1021 17.182 19.149 17.202 19.257C17.2656 19.608 17.398 20.0509 17.5298 20.3576C17.6044 20.5311 17.7645 20.8481 17.7786 20.85C17.7837 20.8506 17.9406 20.3897 18.127 19.8259L18.4671 18.7999L18.8007 19.8227C18.984 20.3859 19.1382 20.8436 19.144 20.8429C19.1588 20.8378 19.3176 20.5189 19.387 20.3544C19.5799 19.9005 19.713 19.383 19.7708 18.8719L19.7843 18.7453C19.6557 18.4161 19.5265 17.7572 19.396 17.4287H17.6475L17.1743 19.0359ZM21.286 18.7144H22.8932V23.2144H24.1789V18.7144H25.786V17.4287H21.286V18.7144ZM20.8122 21.7783C20.4789 22.0015 20.1235 22.1898 19.7515 22.3401C19.6917 22.3639 19.641 22.3839 19.6403 22.3851C19.639 22.3851 19.8222 23.2112 19.8222 23.2112H21.4352C21.4352 23.2112 20.9517 21.7101 20.9427 21.7005C20.8966 21.7214 20.8528 21.7473 20.8122 21.7776V21.7783ZM16.0975 21.7911C16.0885 21.8053 15.6533 23.199 15.6533 23.2074C15.6533 23.2125 15.9709 23.2157 16.372 23.2138L17.0914 23.2112C17.1062 23.1257 17.3022 22.4224 17.2675 22.3877C17.2182 22.3645 17.168 22.343 17.1171 22.3234C16.7992 22.1899 16.4929 22.0306 16.201 21.8471C16.1464 21.8117 16.0995 21.786 16.0975 21.7911Z" fill="white"/>
</g>
<circle cx="20" cy="20" r="19.5" stroke="black" stroke-opacity="0.05"/>
<defs>
<clipPath id="clip0_9_395400">
<rect width="32" height="8" fill="white" transform="translate(4 16)"/>
</clipPath>
</defs>
</svg>
