<svg width="40" height="40" viewBox="0 0 40 40" fill="none" xmlns="http://www.w3.org/2000/svg">
<circle cx="20" cy="20" r="20" fill="#1E1E23"/>
<g clip-path="url(#clip0_9_395484)">
<path d="M29.8214 19.3214H28.4643V17.9642H29.8214C30.5 17.9642 30.5 18.3035 30.5 18.6428C30.5 18.9821 30.5 19.3214 29.8214 19.3214ZM27.7857 22.0356H28.4643V19.9999H29.8214L30.5 22.0356H31.1786L30.6696 20.5021L30.6221 20.3664L30.5 19.9999C30.8393 19.9999 31.1786 19.6606 31.1786 18.6428C31.1786 17.2585 30.6357 17.2653 28.6068 17.2856H27.7857V22.0356ZM16.25 22.0356H16.9286V18.6428L18.2857 22.0356L18.9643 22.0424L19.6429 20.346L20.3214 18.6428V22.0356L21 22.0424V17.2856H20.3214L18.625 21.3571L16.9286 17.2856H16.25V22.0356ZM35.25 19.9999L34.9107 17.9642H34.2321L33.8929 19.9999H35.25ZM33.2143 22.0356H32.5357L33.8929 17.2856H35.25L36.6071 22.0356H35.9286L35.3586 20.6785H33.7571L33.2143 22.0356ZM23.0357 22.0356H26.4286V21.3571H23.7143V19.9999H25.75V19.3214H23.7143V17.9642H26.4286V17.2856H23.0357V22.0356ZM12.8911 22.0356V20.6785L11.5 17.2856H12.1786L13.1082 19.6606H13.3186L14.2143 17.2856H14.8929L14.2143 18.9821L13.5561 20.6785C13.5289 20.9092 13.5357 21.201 13.5357 21.6149V22.0356H12.8911Z" fill="white"/>
<path d="M5.39244 17.9644H4.71387V15.9287C4.82242 15.9315 4.93103 15.9315 5.03958 15.9287L5.39244 17.9644ZM6.07101 22.0359H6.40351L6.48494 21.5609C6.63422 20.733 6.6478 20.6448 6.74958 20.0001H8.10672L9.46387 22.0359H10.1424L8.61565 19.6609C9.38244 18.4734 9.38244 18.4666 9.38244 18.4598L10.1424 17.2859H9.46387L8.10672 19.3216H6.74958L6.5053 17.8423L6.45101 17.4894L6.42387 17.3741L6.4103 17.2859H6.07101V22.0359ZM4.71387 23.393H5.05315L5.14137 22.8841L5.39244 21.3573H4.71387V23.393Z" fill="#F48F21"/>
</g>
<circle cx="20" cy="20" r="19.5" stroke="black" stroke-opacity="0.05"/>
<defs>
<clipPath id="clip0_9_395484">
<rect width="33" height="9" fill="white" transform="translate(4 15)"/>
</clipPath>
</defs>
</svg>
