<svg width="40" height="40" viewBox="0 0 40 40" fill="none" xmlns="http://www.w3.org/2000/svg">
<circle cx="20" cy="20" r="20" fill="#F6F8FA"/>
<g clip-path="url(#clip0_9_400940)">
<path d="M31.9999 23.6086H18.4409V10.7373H18.8315V23.2182H31.9999V23.6086Z" fill="#2E65B0"/>
<path d="M30.6316 22.2434H19.8062V9.36914H20.1965V21.853H30.6316V22.2434Z" fill="#2E65B0"/>
<path d="M29.2626 20.8775H21.1738V8H21.5644V20.4869H29.2626V20.8775Z" fill="#2E65B0"/>
<path d="M17.5794 23.2188H8V23.6093H17.5794V23.2188Z" fill="#2E65B0"/>
<path d="M17.5793 21.8525H9.36865V22.243H17.5793V21.8525Z" fill="#2E65B0"/>
<path d="M17.5794 20.4863H10.7373V20.8769H17.5794V20.4863Z" fill="#2E65B0"/>
<path d="M26.2138 31.8321C25.8207 31.8321 25.5241 31.5279 25.5241 31.1249V31.1211C25.5241 30.7716 25.7837 30.4102 26.2178 30.4102C26.6099 30.4102 26.906 30.7124 26.9077 31.1138C26.9097 31.1179 26.9093 31.1216 26.9077 31.1247C26.9057 31.473 26.6467 31.8321 26.2138 31.8321ZM19.2583 31.8321C18.8652 31.8321 18.5687 31.5279 18.5687 31.1249V31.1211C18.5687 30.7716 18.8281 30.4102 19.2622 30.4102C19.6543 30.4102 19.9504 30.7124 19.9519 31.1137C19.9541 31.118 19.9534 31.1218 19.9519 31.1246C19.9501 31.473 19.691 31.8321 19.2583 31.8321ZM14.4387 31.8321C14.0455 31.8321 13.749 31.5279 13.749 31.1249V31.1211C13.749 30.7716 14.0084 30.4102 14.4427 30.4102C14.8348 30.4102 15.1309 30.7124 15.1323 31.1138C15.1345 31.1179 15.134 31.1216 15.1323 31.1247C15.1306 31.473 14.8713 31.8321 14.4387 31.8321ZM12.8451 31.8321C12.4552 31.8321 12.1611 31.5279 12.1611 31.1249V31.1211C12.1611 30.7224 12.4633 30.4102 12.849 30.4102C13.0931 30.4102 13.2387 30.498 13.3823 30.6296L13.3907 30.6374L13.3034 30.727L13.2955 30.7193C13.1952 30.6224 13.0636 30.5233 12.8468 30.5233C12.5282 30.5233 12.2878 30.7785 12.2878 31.1172V31.1211C12.2878 31.4564 12.5341 31.7189 12.8489 31.7189C13.0247 31.7189 13.1574 31.6589 13.3069 31.5114L13.3147 31.5038L13.3984 31.5852L13.3902 31.5931C13.2705 31.7111 13.112 31.8321 12.8451 31.8321ZM28.5373 31.8088H28.4453L28.442 31.8045L27.5088 30.6271V31.8088H27.3896V30.4331H27.501L27.5045 30.4374L28.4182 31.5896V30.4331H28.5372L28.5373 31.8088ZM25.0285 31.8088H24.9052V30.4331H25.0285V31.8088ZM23.9746 31.8088H23.852V30.5484H23.3803V30.4332H24.4464V30.5484H23.9747L23.9746 31.8088ZM23.2641 31.8088H23.1292L23.1261 31.8022L22.9573 31.4299H22.1732L22.0012 31.8089H21.8721L21.8794 31.7931L22.5127 30.4237H22.6235L22.6264 30.4302L23.2641 31.8088ZM21.5361 31.8088H21.3803L21.377 31.8044L20.9491 31.2482H20.5232V31.8088H20.4004V30.4331H20.9797C21.1426 30.4331 21.2803 30.4817 21.3685 30.5698C21.4357 30.6369 21.4742 30.7315 21.4742 30.829V30.8329C21.4742 31.042 21.3298 31.1886 21.0871 31.2279L21.5361 31.8088ZM17.2976 31.8088H17.1746V30.4331H17.6769C17.9892 30.4331 18.1907 30.6 18.1907 30.858V30.8619C18.1907 31.1674 17.92 31.3042 17.6518 31.3042H17.2977L17.2976 31.8088ZM16.6756 31.8088H16.5199L16.5165 31.8044L16.0887 31.2482H15.6626V31.8088H15.54V30.4331H16.1193C16.2819 30.4331 16.4199 30.4817 16.5081 30.5698C16.5754 30.6372 16.6138 30.7316 16.6138 30.829V30.8329C16.6138 31.042 16.4697 31.1886 16.2268 31.2279L16.6756 31.8088ZM26.2138 30.5233C25.8929 30.5233 25.6511 30.7785 25.6511 31.1171V31.121C25.6511 31.4563 25.8997 31.7188 26.2177 31.7188C26.5387 31.7188 26.7806 31.4636 26.7806 31.1249V31.1211C26.7808 30.7857 26.5318 30.5233 26.2138 30.5233ZM19.2583 30.5233C18.9374 30.5233 18.6953 30.7785 18.6953 31.1171V31.121C18.6953 31.4563 18.9442 31.7188 19.2621 31.7188C19.5831 31.7188 19.8252 31.4636 19.8252 31.1249V31.1211C19.8252 30.7857 19.5761 30.5233 19.2583 30.5233ZM14.4387 30.5233C14.1178 30.5233 13.8757 30.7785 13.8757 31.1171V31.121C13.8757 31.4563 14.1247 31.7188 14.4426 31.7188C14.7635 31.7188 15.0054 31.4636 15.0054 31.1249V31.1211C15.0055 30.7857 14.7565 30.5233 14.4387 30.5233ZM22.2259 31.3168H22.9044L22.566 30.572L22.2259 31.3168ZM17.2976 31.1891H17.6575C17.903 31.1891 18.0679 31.0601 18.0679 30.8679V30.864C18.0679 30.6664 17.9188 30.5485 17.6691 30.5485H17.2976V31.1891ZM20.5232 31.135H20.9682C21.2012 31.135 21.3516 31.0179 21.3516 30.8367V30.8331C21.3516 30.6549 21.2104 30.5485 20.974 30.5485H20.5232V31.135ZM15.6626 31.135H16.1078C16.3407 31.135 16.4909 31.0179 16.4909 30.8367V30.8331C16.4909 30.6549 16.3499 30.5485 16.1136 30.5485H15.6627L15.6626 31.135Z" fill="#2E65B0"/>
<path d="M10.7271 29.3831H13.3167V28.9835H11.1596V25.5508H10.7271V29.3831ZM17.0776 27.478C17.0776 28.3484 16.4535 29.0492 15.5774 29.0492C14.7014 29.0492 14.0664 28.3375 14.0664 27.4669V27.4561C14.0664 26.5857 14.6905 25.8849 15.5665 25.8849C16.4425 25.8849 17.0776 26.5967 17.0776 27.4669V27.478ZM17.5263 27.4669C17.5319 27.4616 17.5319 27.4616 17.5263 27.4562C17.5263 26.3995 16.7435 25.4854 15.5774 25.4854C14.4114 25.4854 13.6175 26.4105 13.6175 27.467V27.4781C13.6175 28.5348 14.4003 29.449 15.5664 29.449C16.7326 29.4489 17.5263 28.5237 17.5263 27.4669ZM18.3647 29.3831H21.1623V28.9891H18.7972V27.6476H20.8886V27.2533H18.7972V25.9449H21.1348V25.5507H18.3648L18.3647 29.3831ZM25.684 29.4104L26.7537 25.5508H26.299L25.4868 28.6731L24.4521 25.5398H24.0963L23.0611 28.6731L22.2494 25.5508H21.7787L22.8482 29.4104H23.2096L24.2663 26.301L25.3172 29.4104H25.684ZM27.6831 26.5145V26.5034C27.6831 26.1586 28.0006 25.8849 28.499 25.8849C28.8933 25.8849 29.2491 26.0109 29.6047 26.3011L29.8567 25.9671C29.4678 25.655 29.0683 25.4964 28.5098 25.4964C27.7817 25.4964 27.2507 25.9398 27.2507 26.5419V26.553C27.2507 27.1826 27.6556 27.467 28.5371 27.6587C29.342 27.8285 29.5335 28.0311 29.5335 28.3869V28.3978C29.5335 28.7756 29.194 29.0493 28.6794 29.0493C28.1484 29.0493 27.7653 28.8686 27.3653 28.5074L27.0973 28.825C27.5571 29.2356 28.0553 29.438 28.6631 29.438C29.4242 29.438 29.9715 29.011 29.9715 28.354V28.3431C29.9715 27.7573 29.5774 27.4451 28.7234 27.2592C27.8804 27.0783 27.6831 26.8758 27.6831 26.5145Z" fill="#2E65B0"/>
</g>
<circle cx="20" cy="20" r="19.5" stroke="black" stroke-opacity="0.05"/>
<defs>
<clipPath id="clip0_9_400940">
<rect width="24" height="23.8326" fill="white" transform="translate(8 8)"/>
</clipPath>
</defs>
</svg>
