<svg width="40" height="40" viewBox="0 0 40 40" fill="none" xmlns="http://www.w3.org/2000/svg">
<circle cx="20" cy="20" r="20" fill="#6450EF"/>
<g clip-path="url(#clip0_9_398362)">
<path d="M13.0283 21.7461V24.5189C13.0283 25.2189 13.3794 25.866 13.9498 26.2163L16.9822 28.0784L20.0474 26.0674L13.0283 21.7461Z" fill="white"/>
<path d="M27.7635 24.5039V21.6563L20.3922 17.125L17.6042 18.954L25.0365 23.4055L20.459 26.1989L17.2988 28.2722L19.5932 29.6811C20.0826 29.9815 20.6858 29.9815 21.1759 29.6811L26.8426 26.2014C27.413 25.851 27.7641 25.2046 27.7641 24.5039H27.7635Z" fill="white"/>
<path d="M20.3768 15.9957L20.3833 15.9995L23.4695 13.9748L20.385 12.0928L13.0283 16.6098V20.6256L20.3621 25.1401L23.1923 23.4133L15.8098 18.9923L20.3768 15.9957Z" fill="white"/>
<path d="M23.7877 14.1689L20.7002 16.1943L27.7644 20.5368V16.5958L23.7877 14.1689Z" fill="white"/>
<path d="M22.0957 12.0928L27.7407 15.5588V13.304C27.7407 12.6351 27.2307 12.0928 26.6017 12.0928H22.0957Z" fill="white"/>
<path d="M18.6733 12.0928L13.0283 15.5588V13.304C13.0283 12.6351 13.5383 12.0928 14.1673 12.0928H18.6733Z" fill="white"/>
</g>
<circle cx="20" cy="20" r="19.5" stroke="black" stroke-opacity="0.05"/>
<defs>
<clipPath id="clip0_9_398362">
<rect width="15" height="18" fill="white" transform="translate(13 12)"/>
</clipPath>
</defs>
</svg>
