<svg width="40" height="40" viewBox="0 0 40 40" fill="none" xmlns="http://www.w3.org/2000/svg">
<circle cx="20" cy="20" r="20" fill="#004B8D"/>
<path d="M34.0792 19.9808C34.3605 19.9929 34.8093 20.011 34.9828 20.6034C35.0334 20.7863 35.0576 20.9756 35.0546 21.1655C35.0555 21.2957 35.0413 21.4255 35.0127 21.5524C34.8691 22.1629 34.4622 22.1931 34.0733 22.1991H33.7083V19.9808H34.0792ZM32.8167 19.0923V23.0816H33.7682C34.3845 23.0816 34.7494 23.0816 35.0725 22.9426C35.6828 22.6888 35.8504 22.1085 35.9163 21.8486C35.9742 21.6093 36.0023 21.3635 36 21.1172C36 20.4039 35.7786 19.8962 35.5153 19.6061C35.0546 19.1104 34.4324 19.1043 33.5527 19.0923H32.8167ZM31.2131 19.0923V21.4738L29.9207 19.0923H29.0532V23.0816H29.9028V20.6941L31.1833 23.0816H32.0688V19.0923H31.2131ZM26.9469 20.4039L27.3718 21.8123H26.5161L26.9469 20.4039ZM26.5041 19.0923L25.2237 23.0816H26.1212L26.2827 22.5497H27.6051L27.7727 23.0816H28.736L27.3897 19.0923H26.5041ZM23.6799 21.4255C23.7996 21.4255 23.9492 21.4315 24.0689 21.5222C24.1167 21.5598 24.1548 21.6086 24.1797 21.6644C24.2048 21.7202 24.216 21.7814 24.2125 21.8425C24.2148 21.9562 24.1742 22.0664 24.0988 22.1508C23.9911 22.2596 23.8295 22.2656 23.7038 22.2656H22.9259V21.4255H23.6799ZM23.638 19.9264C23.7996 19.9264 24.1107 19.9324 24.1107 20.2951C24.1107 20.6215 23.8115 20.6276 23.656 20.6336H22.914V19.9264H23.638ZM22.0225 19.0923V23.0816H23.8714C24.2244 23.0756 24.7869 23.0696 25.0263 22.4772C25.0839 22.3248 25.1123 22.1628 25.11 21.9997C25.11 21.776 25.0621 21.3529 24.703 21.099C24.6001 21.0187 24.4742 20.9742 24.3441 20.9721C24.4488 20.9658 24.5505 20.9345 24.6409 20.8809C24.7313 20.8274 24.8081 20.753 24.8646 20.6638C24.9599 20.5076 25.0096 20.3275 25.0083 20.144C25.0083 19.8418 24.9125 19.5758 24.745 19.4005C24.4578 19.0983 24.039 19.0923 23.5782 19.0923H22.0225ZM19.6051 19.9808C19.8863 19.9929 20.3352 20.011 20.5087 20.6034C20.5593 20.7863 20.5835 20.9756 20.5805 21.1655C20.5813 21.2957 20.5672 21.4255 20.5386 21.5524C20.395 22.1629 19.9881 22.1931 19.5992 22.1991H19.2282V19.9808H19.6051ZM18.3367 19.0923V23.0816H19.288C19.9043 23.0816 20.2693 23.0816 20.5924 22.9426C21.2028 22.6888 21.3702 22.1085 21.4361 21.8486C21.4941 21.6093 21.5223 21.3635 21.5199 21.1172C21.5199 20.4039 21.2985 19.8962 21.0352 19.6061C20.5744 19.1104 19.9522 19.1043 19.0725 19.0923H18.3367ZM16.2484 20.4039L16.6732 21.8123H15.8176L16.2484 20.4039ZM15.8056 19.0923L14.5251 23.0816H15.4227L15.5842 22.5497H16.9066L17.074 23.0816H18.0375L16.6912 19.0923H15.8056ZM12.7241 19.8962C13.2925 19.8841 13.5378 20.4281 13.5378 21.093C13.5378 21.4255 13.484 21.77 13.2805 22.0118C13.2143 22.0963 13.1296 22.1643 13.0331 22.2104C12.9366 22.2565 12.8308 22.2796 12.7241 22.2777C12.1676 22.2777 11.9043 21.7458 11.9043 21.0507C11.9043 20.3979 12.1796 19.9083 12.7241 19.8962ZM12.7241 19.0258C12.2949 19.0164 11.8796 19.1794 11.5693 19.4791C11.0128 20.011 10.953 20.7062 10.953 21.0749C10.953 21.6189 11.1085 22.1508 11.4436 22.5558C11.5932 22.7294 11.7757 22.8711 11.9804 22.9723C12.185 23.0736 12.4077 23.1324 12.6352 23.1454C12.8628 23.1583 13.0905 23.1252 13.3052 23.0478C13.5198 22.9704 13.7169 22.8504 13.8849 22.6948C14.4414 22.1568 14.5012 21.4557 14.5012 21.099C14.4952 19.9808 13.843 19.0258 12.7241 19.0258ZM8.84677 19.9264C9.07414 19.9264 9.33741 19.9324 9.47503 20.0352C9.53486 20.0775 9.64855 20.1924 9.64855 20.4281C9.64855 20.5853 9.59471 20.7787 9.40922 20.8694C9.28357 20.9358 9.13397 20.9358 8.79889 20.9358L8.49374 20.9298V19.9264H8.84677ZM7.59023 19.0923V23.0816H8.49374V21.7398H8.95446L9.60069 23.0816H10.588L9.86397 21.5705C10.3486 21.3952 10.582 20.9238 10.582 20.416C10.582 19.9808 10.4204 19.6423 10.211 19.4308C9.852 19.0862 9.37332 19.0862 8.98439 19.0862L7.59023 19.0923ZM5.6755 21.4255C5.79517 21.4255 5.94475 21.4315 6.06443 21.5222C6.11228 21.5598 6.15037 21.6086 6.17539 21.6644C6.20041 21.7202 6.21161 21.7814 6.20803 21.8425C6.2104 21.9562 6.16973 22.0664 6.09435 22.1508C5.98664 22.2596 5.82509 22.2656 5.69943 22.2656H4.92158V21.4255H5.6755ZM5.63361 19.9264C5.79517 19.9264 6.10632 19.9324 6.10632 20.2951C6.10632 20.6215 5.80714 20.6276 5.65157 20.6336H4.91559V19.9264H5.63361ZM4.01807 19.0923V23.0816H5.86697C6.22 23.0756 6.78246 23.0696 7.0218 22.4772C7.0795 22.3248 7.10792 22.1628 7.10557 21.9997C7.10557 21.776 7.05769 21.3529 6.69869 21.099C6.59572 21.0187 6.46977 20.9742 6.33967 20.9721C6.44434 20.9658 6.54604 20.9345 6.6365 20.8809C6.72696 20.8274 6.80361 20.753 6.86023 20.6638C6.95545 20.5076 7.00521 20.3275 7.00384 20.144C7.00384 19.8418 6.90811 19.5758 6.74057 19.4005C6.45335 19.0983 6.03451 19.0923 5.57378 19.0923H4.01807Z" fill="white"/>
<path d="M17.9415 15.8765H17.2174L16.7568 17.3211L16.302 15.8765H15.578L16.3139 17.986C16.336 18.0337 16.3502 18.0847 16.3558 18.1371C16.3558 18.252 16.2242 18.258 16.1285 18.264H16.0626L15.8771 18.8141H16.3558C16.5354 18.808 16.7746 18.808 16.9422 18.5663C17.0179 18.4681 17.0765 18.3578 17.1157 18.2399L17.9415 15.8765ZM15.1412 16.3661H15.4822V15.955H15.1352V15.1572H14.4172V15.955H14.1359V16.3661H14.4172V17.5508C14.4232 17.9316 14.4232 18.2157 15.0754 18.2157C15.2097 18.2137 15.3437 18.2016 15.4763 18.1794V17.6415C15.4351 17.6518 15.393 17.6578 15.3506 17.6596C15.1591 17.6596 15.1412 17.5266 15.1352 17.4178V16.3661H15.1412ZM14.0641 15.8765C13.9896 15.848 13.9105 15.8337 13.8308 15.8341C13.7103 15.8313 13.5913 15.8619 13.4869 15.9226C13.3824 15.9834 13.2965 16.072 13.2384 16.1787V15.8704H12.6161V18.1734H13.2863V16.6683C13.4247 16.5404 13.6075 16.4731 13.7949 16.4809C13.8859 16.4803 13.9765 16.4925 14.0641 16.5172V15.8765ZM10.7732 16.7287C10.7912 16.36 11.0724 16.3238 11.1801 16.3238C11.3596 16.3238 11.587 16.4205 11.5929 16.7287H10.7732ZM12.305 17.176C12.3216 16.946 12.289 16.7151 12.2093 16.499C12.1181 16.2961 11.9707 16.1241 11.7849 16.0039C11.5991 15.8838 11.3828 15.8206 11.1621 15.8221C10.5877 15.8221 10.0492 16.2512 10.0492 17.0068C10.0492 17.6415 10.4621 18.2338 11.2339 18.2338C11.4274 18.2382 11.619 18.1948 11.7921 18.1073C11.9652 18.0199 12.1146 17.8911 12.2272 17.7321C12.2511 17.6898 12.2811 17.6475 12.305 17.6052L11.7725 17.2607C11.7272 17.372 11.65 17.4671 11.5509 17.5339C11.4518 17.6007 11.3351 17.636 11.216 17.6354C11.1403 17.6403 11.0646 17.6244 10.9972 17.5892C10.9297 17.5541 10.873 17.5011 10.833 17.4359C10.7879 17.3546 10.7632 17.2632 10.7612 17.17L12.305 17.176ZM9.10381 17.037C9.10381 17.2063 9.09783 17.6838 8.70889 17.6838C8.31997 17.6838 8.31997 17.17 8.31997 17.037C8.31997 16.765 8.36186 16.3963 8.72086 16.3963C9.09184 16.4023 9.10381 16.8678 9.10381 17.037ZM7.61989 15.006V18.1794H8.27809C8.28407 18.1432 8.30201 17.992 8.308 17.9618C8.4157 18.0827 8.54735 18.2338 8.8884 18.2338C9.11188 18.236 9.32863 18.1566 9.49872 18.0102C9.762 17.7744 9.82781 17.3997 9.82781 17.037C9.82781 16.7469 9.78593 16.3479 9.54658 16.082C9.46888 15.9991 9.37514 15.9333 9.27117 15.8885C9.1672 15.8438 9.05525 15.8212 8.94226 15.8221C8.82349 15.8179 8.70573 15.8453 8.60073 15.9015C8.49574 15.9577 8.40718 16.0408 8.3439 16.1424V15.006H7.61989ZM6.44115 18.1734H7.15917V15.8765H6.44115V18.1734ZM6.44115 15.6347H7.15917V15.0484H6.44115V15.6347ZM4.83158 17.4662V15H4.02979V18.1794H6.11204V17.4662H4.83158Z" fill="white"/>
<path d="M17.7562 17.46L17.5049 18.1732H35.3777L35.5152 18.0342C35.5152 17.7682 34.6177 17.46 34.4023 17.46H17.7562Z" fill="white"/>
<path d="M4 24.5502V23.8369H35.5092V23.9759C35.5092 24.2419 34.6117 24.5502 34.3963 24.5502H4Z" fill="white"/>
<circle cx="20" cy="20" r="19.5" stroke="black" stroke-opacity="0.05"/>
</svg>
