<svg width="40" height="40" viewBox="0 0 40 40" fill="none" xmlns="http://www.w3.org/2000/svg">
<circle cx="20" cy="20" r="20" fill="#EE742B"/>
<path d="M21.8847 13.1386C22.1035 13.7082 22.2814 14.321 22.4184 14.977C22.5445 15.5812 22.6526 16.1885 22.7427 16.7988C22.748 16.8351 22.7444 16.8683 22.7316 16.8985C22.6714 17.0423 22.6137 17.1864 22.5584 17.3306C22.0723 18.5988 21.6667 19.9808 21.3391 21.3469C21.3351 21.3634 21.3278 21.365 21.3173 21.3516C21.2701 21.2915 21.2171 21.2348 21.1582 21.1814C20.6869 20.7551 20.0924 20.5364 19.4819 20.7679C19.1499 20.8938 18.8705 21.0894 18.6438 21.3546C18.6426 21.356 18.6411 21.357 18.6394 21.3575C18.6377 21.3581 18.6358 21.3582 18.6341 21.3578C18.6323 21.3574 18.6307 21.3565 18.6294 21.3553C18.6281 21.354 18.6272 21.3525 18.6267 21.3507C18.2579 19.8366 17.8187 18.3416 17.2347 16.8977C17.2129 16.8435 17.2258 16.7891 17.2339 16.733C17.3525 15.8942 17.5071 15.0998 17.6977 14.3499C17.8437 13.7749 18.0285 13.2291 18.2521 12.7123C18.4151 12.3361 18.602 12.006 18.8129 11.722C19.0482 11.4051 19.3529 11.1319 19.7308 11.0328C20.1272 10.9284 20.5225 11.0839 20.8231 11.3516C21.0201 11.5274 21.2017 11.754 21.3678 12.0311C21.5623 12.3552 21.7311 12.711 21.8742 13.0985C21.8794 13.1132 21.8797 13.1259 21.8847 13.1386Z" fill="white"/>
<path d="M25.5905 12.771C25.6841 12.9841 25.7607 13.1749 25.8204 13.3436C26.2248 14.4888 26.4613 15.6509 26.53 16.8301C26.5499 17.1725 26.5497 17.5416 26.5295 17.9376C26.4801 18.9013 26.3252 19.8567 26.0646 20.8039C26.0559 20.8354 26.0493 20.8677 26.0447 20.9008C26.0427 20.9156 26.0404 20.9156 26.038 20.9008C26.0362 20.8892 26.0364 20.8776 26.0386 20.866C26.2334 19.8141 26.2479 18.7682 26.082 17.7284C26.0265 17.3809 25.9404 17.0476 25.8237 16.7284C25.624 16.1831 25.2969 15.645 24.7563 15.4304C24.7452 15.426 24.7403 15.4178 24.7414 15.4058C24.7587 15.2229 24.7706 15.0425 24.777 14.8646C24.7998 14.2331 24.7972 13.5197 24.769 12.7243C24.7607 12.4928 24.7496 12.2323 24.7941 12.0052C24.8008 11.9721 24.8119 11.9382 24.8275 11.9036C24.877 11.7947 24.9941 11.8022 25.0704 11.8842C25.298 12.1282 25.4505 12.4525 25.5905 12.771Z" fill="white"/>
<path d="M15.0033 11.8307C15.0287 11.8269 15.0547 11.8298 15.0812 11.8396C15.1081 11.8493 15.1274 11.8658 15.1392 11.889C15.2127 12.0316 15.2157 12.257 15.2116 12.4095C15.1837 13.4396 15.1563 14.3968 15.2312 15.4158C15.2314 15.4185 15.2308 15.4212 15.2293 15.4235C15.2279 15.4258 15.2257 15.4276 15.2232 15.4285C14.4793 15.7222 14.1295 16.6241 13.9646 17.3628C13.7199 18.4584 13.7246 19.641 13.9149 20.754C13.9226 20.7993 13.9384 20.8415 13.9329 20.8962C13.9325 20.8988 13.9309 20.9001 13.9282 20.9001C13.9254 20.8999 13.924 20.8984 13.924 20.8957C13.9232 20.8426 13.9069 20.799 13.8939 20.749C13.7663 20.2575 13.6717 19.8297 13.6102 19.4658C13.5708 19.2329 13.5338 18.955 13.4992 18.6321C13.4159 17.8572 13.4085 17.1151 13.4771 16.4059C13.5782 15.3567 13.7992 14.3487 14.1403 13.3819C14.2425 13.092 14.3591 12.8108 14.49 12.5382C14.5649 12.3821 14.8262 11.8573 15.0033 11.8307Z" fill="white"/>
<path d="M17.7124 12.8641C17.5541 13.2658 17.4254 13.6796 17.3215 14.0705C17.1359 14.7692 16.9866 15.4768 16.8737 16.1931C16.8684 16.2267 16.8561 16.2294 16.8367 16.2014C16.6507 15.9324 16.4303 15.7008 16.1754 15.5067C16.1729 15.5049 16.171 15.5024 16.17 15.4995C16.1689 15.4966 16.1687 15.4934 16.1693 15.4904C16.264 15.0506 16.4021 14.6269 16.5837 14.2194C16.7248 13.9024 16.8795 13.6249 17.0481 13.3868C17.2141 13.1523 17.4188 12.9296 17.6923 12.8426C17.6952 12.8416 17.6984 12.8415 17.7014 12.8423C17.7044 12.8431 17.7071 12.8447 17.7092 12.847C17.7113 12.8492 17.7127 12.852 17.7133 12.8551C17.7139 12.8581 17.7136 12.8613 17.7124 12.8641Z" fill="white"/>
<path d="M22.7127 13.1373C22.7298 13.1567 22.7533 13.1669 22.769 13.1876C22.8679 13.3191 22.9621 13.4498 23.0516 13.5796C23.0739 13.612 23.0956 13.6464 23.1168 13.6826C23.1369 13.7174 23.1537 13.7542 23.1674 13.7929C23.179 13.826 23.1951 13.8588 23.2157 13.8912C23.2352 13.9218 23.2531 13.9531 23.2693 13.9851C23.5126 14.4643 23.6889 14.9669 23.7983 15.4929C23.7993 15.4974 23.7988 15.5021 23.7971 15.5064C23.7953 15.5107 23.7922 15.5144 23.7884 15.5169C23.7327 15.553 23.6791 15.5944 23.6276 15.6412C23.4338 15.8169 23.2663 16.0069 23.1251 16.2114C23.1105 16.2325 23.1012 16.2303 23.0969 16.2047C22.9879 15.5222 22.8462 14.8399 22.6718 14.1578C22.5602 13.7208 22.4143 13.2937 22.2577 12.8614C22.2568 12.8588 22.2566 12.856 22.2572 12.8533C22.2578 12.8506 22.2591 12.8481 22.261 12.8462C22.263 12.8442 22.2654 12.8428 22.2681 12.8422C22.2708 12.8416 22.2736 12.8417 22.2762 12.8426C22.4465 12.9008 22.592 12.999 22.7127 13.1373Z" fill="white"/>
<path d="M25.9257 24.2565C25.8475 24.3372 25.7587 24.4152 25.6594 24.4905C25.6377 24.5069 25.6186 24.5263 25.6022 24.5488C25.5962 24.5572 25.5982 24.562 25.6083 24.5631C25.6208 24.5646 25.6324 24.5622 25.6428 24.5559C25.7753 24.4764 25.9148 24.3793 26.0614 24.2648C26.3021 24.0764 26.5235 23.9052 26.7257 23.7512C26.8333 23.6695 26.951 23.5959 27.0788 23.5305C27.1754 23.4811 27.3694 23.4427 27.3437 23.625C27.3278 23.7373 27.2902 23.8387 27.2307 23.9291C27.0508 24.2026 26.8305 24.4603 26.5699 24.7021C25.9207 25.3045 25.1759 25.7875 24.3354 26.1512C24.1724 26.2218 23.9915 26.294 23.7926 26.3678C23.7753 26.3743 23.7607 26.3849 23.7489 26.3996C23.7475 26.4014 23.7466 26.4036 23.7463 26.4059C23.746 26.4083 23.7464 26.4106 23.7474 26.4127C23.7485 26.4148 23.75 26.4166 23.752 26.4178C23.754 26.4191 23.7563 26.4197 23.7586 26.4198C23.7952 26.4203 23.8315 26.4143 23.8674 26.4018C24.3125 26.2452 24.7763 26.0725 25.2415 25.9695C25.4033 25.9336 25.7509 25.9452 25.5069 26.2214C25.3355 26.4155 25.1098 26.587 24.8299 26.7358C23.9835 27.1857 23.0806 27.4475 22.1213 27.5211C22.1125 27.5219 22.106 27.5262 22.102 27.5341C22.0508 27.6343 21.9656 27.7206 21.8464 27.793C21.471 28.0206 21.0511 28.1311 20.5992 28.1789C20.1828 28.2231 19.7654 28.2211 19.347 28.1731C18.9122 28.1228 18.4625 28.0026 18.1069 27.7631C18.0149 27.7013 17.9446 27.6257 17.8962 27.5363C17.8938 27.5319 17.8903 27.5281 17.8861 27.5253C17.8818 27.5226 17.8769 27.5209 17.8719 27.5206C17.15 27.4623 16.4498 27.2993 15.7779 27.0236C15.3984 26.8678 15.0819 26.701 14.8285 26.5231C14.694 26.4286 14.4152 26.2015 14.4114 26.0548C14.4086 25.9391 14.6464 25.9485 14.71 25.9617C15.2161 26.0662 15.6959 26.2537 16.179 26.4131C16.1975 26.4192 16.2176 26.4201 16.2395 26.4159C16.2476 26.4144 16.2511 26.4089 16.25 26.3993C16.2497 26.3961 16.2485 26.393 16.2465 26.3904C16.2445 26.3878 16.2418 26.3858 16.2387 26.3847C16.066 26.3162 15.8898 26.2444 15.7103 26.1695C15.1673 25.9428 14.6473 25.6504 14.15 25.2924C13.65 24.9322 13.1801 24.517 12.8365 24.028C12.7553 23.9126 12.6801 23.7769 12.6525 23.6396C12.6138 23.4488 12.8185 23.4783 12.9185 23.5294C13.0521 23.5978 13.1834 23.6813 13.3125 23.78C13.6619 24.0468 13.9992 24.3291 14.3746 24.5648C14.3769 24.5662 14.3796 24.5669 14.3823 24.5669C14.385 24.5669 14.3876 24.5661 14.3898 24.5646C14.3921 24.5632 14.3938 24.5611 14.3949 24.5587C14.396 24.5563 14.3963 24.5536 14.3959 24.551C14.3944 24.5412 14.3886 24.5323 14.3785 24.5242C13.4721 23.8106 12.8219 22.7968 12.4221 21.6999C12.3105 21.3932 12.2349 21.0979 12.1953 20.814C12.179 20.6968 12.1649 20.5004 12.2299 20.3988C12.2373 20.3872 12.2489 20.379 12.2623 20.3759C12.2756 20.3728 12.2897 20.375 12.3014 20.3822C12.3513 20.4126 12.395 20.4548 12.4324 20.509C12.5171 20.6315 12.5881 20.7476 12.6453 20.8573C12.824 21.2001 12.997 21.5254 13.1644 21.8333C13.2944 22.0727 13.4734 22.3458 13.7014 22.6526C13.7029 22.6547 13.7049 22.6562 13.7072 22.657C13.7095 22.6579 13.712 22.658 13.7144 22.6573L13.7241 22.6551C13.7281 22.654 13.7292 22.6515 13.7274 22.6477C12.8395 20.814 12.281 18.8822 12.3174 16.8769C12.3176 16.8731 12.3166 16.8695 12.3144 16.8662C12.3129 16.8638 12.3117 16.8613 12.3108 16.8587C12.3101 16.8569 12.3097 16.855 12.3097 16.8532C12.3106 16.6075 12.3285 16.3818 12.3633 16.1761C12.3771 16.0943 12.4075 15.9747 12.4655 15.9123C12.4716 15.9057 12.4789 15.9005 12.4871 15.8968C12.4952 15.8931 12.5041 15.8911 12.513 15.891C12.522 15.8908 12.5309 15.8924 12.5392 15.8957C12.5475 15.8991 12.555 15.904 12.5614 15.9104C12.6633 16.0123 12.6879 16.1943 12.7183 16.3291C12.889 17.0916 13.0359 17.8546 13.155 18.6225C13.2579 19.2851 13.402 19.9353 13.587 20.5731C13.6045 20.633 13.6103 20.6957 13.629 20.7562C13.7379 21.1065 13.8501 21.437 13.9658 21.7477C13.9844 21.7981 14.0015 21.8493 14.0172 21.9012C14.0326 21.953 14.05 22.0042 14.0694 22.0548C14.2327 22.4804 14.4085 22.8989 14.5967 23.3104C14.8208 23.8006 15.0614 24.2594 15.3185 24.6866C15.3757 24.7814 15.4451 24.9126 15.5522 24.9537C15.6069 24.9747 15.6586 24.9396 15.6404 24.8803C15.6332 24.8574 15.6248 24.8371 15.6152 24.8192C15.4114 24.4443 15.2266 24.0621 15.0611 23.6728C14.53 22.4227 14.23 21.1321 14.1614 19.801C14.1365 19.3175 14.1582 18.815 14.2266 18.2932C14.2737 17.9341 14.3525 17.5849 14.463 17.2454C14.6216 16.7579 14.9702 16.0269 15.5362 15.9471C15.9984 15.8819 16.3824 16.4145 16.5917 16.7606C16.8142 17.129 17.0213 17.5522 17.213 18.0303C17.3679 18.4164 17.5017 18.779 17.6144 19.1178C17.9059 19.9939 18.1561 20.8638 18.3649 21.7275C18.3669 21.7353 18.3658 21.7436 18.3619 21.7507C18.1496 22.1242 17.9741 22.5124 17.8354 22.9153C17.5389 23.7768 17.3637 24.6527 17.3097 25.543C17.3031 25.6527 17.3044 25.7767 17.3136 25.9148C17.3184 25.9866 17.3497 26.0248 17.4075 26.0294C17.4495 26.033 17.4923 25.996 17.4964 25.9559C17.5067 25.8557 17.5039 25.7568 17.5144 25.6571C17.6078 24.7664 17.8161 23.9115 18.1395 23.0921C18.2279 22.8682 18.3329 22.6456 18.4545 22.4245C18.7103 21.9584 19.0724 21.4905 19.5572 21.3037C20.1937 21.0584 20.7674 21.3711 21.1721 21.867C21.6196 22.4153 21.9072 23.1267 22.1147 23.8214C22.2859 24.3943 22.4035 24.9549 22.4674 25.5032C22.4835 25.6406 22.4941 25.7871 22.4995 25.9427C22.501 25.9832 22.5242 26.0117 22.5694 26.0283C22.5766 26.0309 22.584 26.0316 22.5917 26.0305C22.6455 26.023 22.6753 25.9923 22.681 25.9385C22.6913 25.8413 22.6949 25.7461 22.6917 25.6529C22.6809 25.329 22.6507 25.0085 22.6011 24.6916C22.4393 23.6551 22.15 22.6568 21.6393 21.7532C21.6345 21.7447 21.6331 21.7346 21.6354 21.725C21.8575 20.8099 22.1237 19.8945 22.434 18.9789C22.5526 18.6288 22.6856 18.2761 22.8329 17.9209C23.0379 17.4264 23.268 16.9441 23.5779 16.509C23.7451 16.2747 23.9915 16.0084 24.2691 15.9529C24.5909 15.8883 24.8964 16.1073 25.0893 16.3587C25.2581 16.5791 25.3957 16.8392 25.502 17.1388C25.8312 18.0673 25.8975 19.133 25.8172 20.1399C25.728 21.2539 25.4688 22.3504 25.0395 23.4294C24.8561 23.8902 24.632 24.366 24.3672 24.8568C24.3395 24.908 24.3528 24.9426 24.4069 24.9606C24.4099 24.9616 24.4129 24.9617 24.4161 24.9612C24.4803 24.9479 24.5252 24.9222 24.5506 24.8841C24.8926 24.3709 25.1663 23.8239 25.4252 23.2709C25.4716 23.1718 25.5189 23.0624 25.5672 22.9427C25.5959 22.8712 25.6275 22.7971 25.6619 22.7203C25.6949 22.6474 25.7263 22.5737 25.7561 22.4993C25.9782 21.9468 26.1781 21.3791 26.3558 20.796C26.3997 20.6525 26.4434 20.494 26.487 20.3203C26.6111 19.8256 26.7337 19.3256 26.81 18.8319C26.9396 17.9927 27.1018 17.1378 27.2964 16.2673C27.3243 16.1419 27.35 16.0018 27.4412 15.9095C27.4471 15.9035 27.4541 15.8988 27.4619 15.8955C27.4697 15.8923 27.478 15.8906 27.4865 15.8906C27.4949 15.8907 27.5033 15.8924 27.511 15.8957C27.5188 15.899 27.5259 15.9038 27.5318 15.9098C27.6122 15.9927 27.6417 16.1761 27.6553 16.2866C27.6785 16.48 27.6905 16.6745 27.6915 16.8703C27.695 17.7946 27.5951 18.6906 27.3917 19.5582C27.2324 20.2379 27.0161 20.9138 26.7426 21.5858C26.6114 21.9077 26.4609 22.2468 26.2909 22.6032C26.2532 22.6824 26.2632 22.689 26.321 22.6231C26.3719 22.5652 26.4175 22.5059 26.458 22.4449C26.6317 22.1836 26.7844 21.9294 26.9161 21.6825C27.0658 21.4014 27.2133 21.1233 27.3586 20.8482C27.4389 20.6959 27.5249 20.5629 27.6166 20.449C27.6413 20.4185 27.6715 20.3954 27.7072 20.38C27.714 20.377 27.7213 20.3755 27.7286 20.3755C27.736 20.3755 27.7433 20.377 27.7501 20.3799C27.7568 20.3828 27.763 20.387 27.768 20.3923C27.7731 20.3977 27.777 20.404 27.7796 20.4109C27.8113 20.4971 27.8234 20.5892 27.8161 20.6872C27.7951 20.961 27.7308 21.2535 27.6232 21.5645C27.505 21.9072 27.3842 22.2026 27.2608 22.4507C27.1781 22.6168 27.0576 22.8242 26.8992 23.0728C26.8959 23.0776 26.8942 23.0829 26.8942 23.0888C26.8942 23.0932 26.893 23.0973 26.8906 23.101C26.6639 23.454 26.4119 23.7746 26.1346 24.0629C26.068 24.1322 25.9928 24.1874 25.9257 24.2565Z" fill="white"/>
<circle cx="20" cy="20" r="19.5" stroke="black" stroke-opacity="0.05"/>
</svg>
