<svg width="40" height="40" viewBox="0 0 40 40" fill="none" xmlns="http://www.w3.org/2000/svg">
<circle cx="20" cy="20" r="20" fill="#005DAA"/>
<g clip-path="url(#clip0_9_410809)">
<path d="M3.71436 18.6426V22.0354H7.78578V21.3569H5.0715V18.6426H3.71436ZM8.46436 18.648V22.0409H12.5358V21.3569H9.8215V20.6783H12.5358V19.9997H9.8215V19.3211H12.5358V18.648H8.46436ZM17.2858 18.6426V20.966L14.8443 18.6426H13.2144V22.0354H14.5715V19.8314L16.8786 22.0354H18.6429V18.6426H17.2858ZM23.3929 18.6426V20.966L20.9514 18.6426H19.3215V22.0354H20.6786V19.8314L22.9858 22.0354H24.7501V18.6426H23.3929ZM27.3314 18.6426L25.4286 22.0354H26.8469L28.1911 19.7215L28.6797 20.6783H28.0459L27.693 21.3569H29.0929L29.4499 22.0354H30.8572L28.9206 18.6426H27.3314ZM36.9644 22.0354H35.1702L33.2716 20.0018H34.3519C34.5181 20.0018 35.0657 19.9753 35.0657 19.6937C35.0657 19.351 34.5968 19.3211 34.3519 19.3211H32.8929V22.0354H31.5358V18.6426H34.3519C34.9293 18.6426 36.6101 18.6419 36.6101 19.5586C36.6101 20.1558 35.9838 20.4428 35.4837 20.5677L36.9644 22.0354Z" fill="white"/>
</g>
<circle cx="20" cy="20" r="19.5" stroke="black" stroke-opacity="0.05"/>
<defs>
<clipPath id="clip0_9_410809">
<rect width="34" height="5" fill="white" transform="translate(3 18)"/>
</clipPath>
</defs>
</svg>
