<svg width="40" height="40" viewBox="0 0 40 40" fill="none" xmlns="http://www.w3.org/2000/svg">
<circle cx="20" cy="20" r="20" fill="#064157"/>
<g clip-path="url(#clip0_9_395558)">
<path d="M18.0833 14.573H23.4176C23.4176 15.0453 23.5404 15.8474 23.6014 16.0917C23.3449 15.9702 22.9453 15.9335 22.7777 15.9295C21.7836 15.9261 20.7894 15.9261 19.7953 15.9295C19.3095 15.9342 19.3169 16.3651 19.3217 16.5605C19.3285 17.5743 19.338 19.0326 19.3217 19.4295C19.3054 19.8258 19.5144 19.9738 19.6807 19.9995L20.9055 19.9982C21.2991 19.9751 21.3737 19.6094 21.3574 19.4282V18.641C21.1059 18.6374 20.8543 18.6379 20.6028 18.6424C20.4142 18.6478 20.1238 18.7523 19.9989 18.8019V17.2853H23.7277C23.5119 17.5655 23.3918 18.1552 23.3931 18.3533C23.3867 19.9484 23.3867 21.5435 23.3931 23.1386C23.4019 23.6889 23.632 23.9895 23.7277 24.071H21.6363C21.9315 23.9047 22.0136 23.5749 22.036 23.1393V20.7392C21.7958 21.2094 20.9978 21.3648 20.7759 21.356C20.4108 21.358 19.3692 21.3614 18.1274 21.356C16.8856 21.3506 16.6033 20.4467 16.6183 19.9975C16.6101 19.0027 16.5986 16.9657 16.6183 15.867C16.6373 14.7691 17.6029 14.5459 18.084 14.5723L18.0833 14.573Z" fill="#DBBD5B"/>
<path d="M18.5876 9.86865L9.14258 14.5711H11.8569C11.6492 14.5277 11.7476 14.3974 11.8161 14.3377L19.3978 10.6164C19.5132 10.5757 19.7819 10.5045 19.9997 10.4997C20.2169 10.495 20.4679 10.5716 20.5575 10.6164C22.9854 11.8446 28.0435 14.2312 28.1982 14.3377C28.3523 14.4443 28.2199 14.5433 28.1426 14.5711H30.8569L21.4722 9.86865C21.2327 9.75669 20.8683 9.55379 20.8629 9.39908C20.8588 9.2749 21.0054 9.17651 21.08 9.14258H18.9412C19.0012 9.15321 19.0554 9.18486 19.0942 9.23186C19.133 9.27886 19.1538 9.33814 19.1529 9.39908C19.1569 9.57822 18.7769 9.78654 18.5869 9.86865H18.5876Z" fill="white"/>
<path d="M13.2147 15.4935C13.2079 14.9187 12.6678 14.7111 12.5361 14.5713H16.6076C16.3056 14.7525 15.9358 15.199 15.929 15.4935V22.7141C16.6374 22.7114 17.9084 22.708 18.9941 22.7141C20.0798 22.7203 21.0223 22.1509 21.3576 22.0356C21.306 22.8431 21.1289 23.7795 21.0468 24.0713H12.5802C12.9487 23.8277 13.2066 23.4911 13.2147 23.2658C13.2181 21.0788 13.2215 16.0682 13.2147 15.4935ZM24.0718 15.5471C24.08 15.0707 23.8438 14.6982 23.7285 14.5713H27.175C26.913 14.7498 26.7983 15.296 26.7861 15.5471C26.7766 17.9004 26.7631 22.7121 26.7861 23.1281C26.8092 23.5447 27.0732 23.9308 27.175 24.0713H23.7366C23.9334 23.9715 24.0447 23.4009 24.0718 23.1281C24.0685 20.7992 24.0637 16.0228 24.0718 15.5471Z" fill="#DBBD5B"/>
<path d="M27.4647 24.75H12.5361V25.4286H27.4647V24.75ZM27.4647 28.8214H12.5361V29.5H27.4647V28.8214ZM12.8822 28.1429V26.1071H13.2446V26.9669H14.5915V26.1071H14.9539V28.1429H14.5915V27.2159H13.2446V28.1429H12.8822Z" fill="white"/>
<path d="M16.9462 28.1431C17.6414 28.1431 18.205 27.6874 18.205 27.1253C18.205 26.5631 17.6414 26.1074 16.9462 26.1074C16.2511 26.1074 15.6875 26.5631 15.6875 27.1253C15.6875 27.6874 16.2511 28.1431 16.9462 28.1431Z" fill="white"/>
<path d="M16.9466 27.9388C17.4645 27.9388 17.8844 27.5776 17.8844 27.132C17.8844 26.6864 17.4645 26.3252 16.9466 26.3252C16.4287 26.3252 16.0088 26.6864 16.0088 27.132C16.0088 27.5776 16.4287 27.9388 16.9466 27.9388Z" fill="#064157"/>
<path d="M19.0527 26.1074V28.1431H19.3995V26.4521L20.2307 28.1431H20.5144L21.3375 26.4521V28.1431H21.6774V26.1074H21.1943L20.3746 27.7903L19.5467 26.1074H19.0527ZM22.6349 28.1431V26.1074H24.463V26.3463H22.9735V26.997H24.463V27.2176H22.9735V27.9219H24.463V28.1431H22.6349ZM26.1655 26.1074C26.8929 26.1074 27.0863 26.5098 27.0924 26.727H26.7606C26.7606 26.5227 26.5889 26.3415 26.1655 26.3415C25.8181 26.3415 25.6288 26.4447 25.5616 26.5227C25.4774 26.6625 25.4788 26.9183 26.2157 26.9855C26.9527 27.0533 27.1705 27.318 27.1861 27.4598C27.2553 27.677 27.1576 28.1167 26.2157 28.1425C25.2725 28.1676 25.0622 27.698 25.0751 27.4598H25.4198C25.4259 27.6301 25.5758 27.9145 26.2151 27.9145C26.8549 27.9145 26.8169 27.6362 26.8298 27.5609C26.8421 27.4849 26.7918 27.2895 26.0651 27.2067C25.3383 27.1253 25.1626 26.8532 25.1626 26.6822C25.1626 26.5119 25.2576 26.1074 26.1655 26.1074Z" fill="white"/>
</g>
<circle cx="20" cy="20" r="19.5" stroke="black" stroke-opacity="0.05"/>
<defs>
<clipPath id="clip0_9_395558">
<rect width="22" height="21" fill="white" transform="translate(9 9)"/>
</clipPath>
</defs>
</svg>
