<svg width="40" height="40" viewBox="0 0 40 40" fill="none" xmlns="http://www.w3.org/2000/svg">
<circle cx="20" cy="20" r="20" fill="#ED1C24"/>
<g clip-path="url(#clip0_9_410734)">
<path fill-rule="evenodd" clip-rule="evenodd" d="M13.4318 14.4483L16.9324 11.7969C16.6638 12.8637 16.4129 14.4386 16.2781 16.3786C15.3029 15.775 14.3533 15.131 13.4318 14.4483ZM13.0444 14.8826L11.6524 19.3146C12.6924 18.5529 14.1346 17.6409 15.8518 16.7997C14.8902 16.1995 13.9536 15.5595 13.0444 14.8826ZM16.7844 17.3643C16.7101 18.9717 16.7169 20.7986 16.8575 22.7729C18.5335 21.9043 20.5146 21.0723 22.6552 20.5043C21.8053 19.8691 20.8783 19.3444 19.8964 18.9426C18.8718 18.522 17.7952 17.9574 16.7844 17.3643ZM23.7444 21.4174C23.6476 23.7217 23.3865 26.016 22.9632 28.2831L26.7386 25.426C25.9592 23.946 24.9786 22.5746 23.7444 21.418V21.4174ZM27.0529 24.81C26.2352 23.3317 25.2106 21.9603 23.9295 20.8037C25.3929 20.4923 26.9158 20.3197 28.4518 20.358L27.0524 24.8094L27.0529 24.81ZM23.2175 20.2043C22.2671 19.4598 21.2183 18.8504 20.1009 18.3934C19.1124 17.9877 18.0712 17.442 17.0884 16.8666C18.8598 16.0809 20.8729 15.4037 23.0026 15.0494C23.1586 16.5037 23.2501 18.2517 23.2175 20.2043ZM16.8455 16.3346C16.9946 14.2523 17.2792 12.618 17.5638 11.6203C18.6249 12.154 20.4032 13.0854 22.4249 14.554C20.4169 14.9369 18.5238 15.5883 16.8455 16.3346ZM11.6821 20.0157C12.7409 19.21 14.3158 18.1911 16.2266 17.2671C16.1452 19.0151 16.1618 20.7662 16.2764 22.5123C14.5335 21.3026 12.9295 20.5049 11.6821 20.0157ZM11.6535 20.6357C12.8878 21.1346 14.4609 21.9369 16.1649 23.1431C14.8832 23.8494 13.8135 24.5586 13.0318 25.1511L11.6535 20.6357ZM16.3678 23.6974C15.1929 24.3489 14.2021 25.0003 13.4598 25.5546L17.0038 28.3054C16.7178 26.7806 16.5055 25.2428 16.3678 23.6974ZM23.1992 20.9717C21.0106 21.5123 18.9752 22.346 17.2552 23.2254C18.9375 24.51 20.7078 26.1769 22.3849 28.3117C22.8448 25.8897 23.1174 23.4357 23.1992 20.9717ZM23.6095 15.4574C25.2147 16.739 26.6845 18.1816 27.9958 19.7626C26.5615 19.7654 25.1444 19.9409 23.7804 20.2334C23.811 18.6395 23.754 17.0451 23.6095 15.4574ZM23.4912 14.3786C23.3546 13.2917 23.1838 12.386 23.0061 11.7026L26.2141 14.1946C25.2941 14.1889 24.3832 14.2557 23.4912 14.3786ZM22.3484 11.4471C22.5426 12.0757 22.7398 13.0071 22.8986 14.1814C21.506 13.1601 20.0378 12.246 18.5066 11.4471H22.3484ZM16.9335 23.7094C17.0806 25.3349 17.3114 26.9517 17.6249 28.5534H21.8455C20.2346 26.5271 18.5421 24.9386 16.9335 23.7094ZM23.8695 14.9237C25.4905 16.2097 26.9775 17.6561 28.3078 19.2409L26.9535 14.8049C25.924 14.7563 24.8922 14.796 23.8695 14.9237ZM17.2112 10.8574H22.8615L27.4186 14.3974L29.1426 20.0431L27.3735 25.6728L22.7878 29.1431H17.1369L12.5798 25.606L10.8569 19.9603L12.6261 14.3306L17.2112 10.8574Z" fill="white"/>
</g>
<circle cx="20" cy="20" r="19.5" stroke="black" stroke-opacity="0.05"/>
<defs>
<clipPath id="clip0_9_410734">
<rect width="20" height="20" fill="white" transform="translate(10 10)"/>
</clipPath>
</defs>
</svg>
