<svg width="40" height="40" viewBox="0 0 40 40" fill="none" xmlns="http://www.w3.org/2000/svg">
<circle cx="20" cy="20" r="20" fill="#F6F8FA"/>
<g clip-path="url(#clip0_9_400900)">
<path d="M29.8895 23.8646C25.1281 24.9104 18.8515 23.8442 18.8515 23.8442C18.8515 23.8442 33.4865 24.64 33.1203 19.7934C32.7375 14.7266 12.0625 16.6328 12.0625 16.6328C24.1009 14.5286 30.3917 16.52 30.8503 16.604C33.2387 17.24 34.7891 18.4112 34.9311 19.6958C35.3127 22.0544 32.0539 23.3888 29.8895 23.8646Z" fill="#C9202F"/>
<path d="M21.6342 22.7202C21.151 22.7202 20.8226 22.6096 20.6488 22.389C20.475 22.1684 20.4444 21.8344 20.5886 21.3836L21.4222 18.838C21.5944 18.3012 21.8162 17.9424 22.087 17.7616C22.3576 17.5808 22.7808 17.4902 23.357 17.4902H23.9482C24.5236 17.4902 24.7772 17.5504 24.9944 17.7972C25.1812 18.0092 25.1888 18.3014 25.016 18.8382L24.1862 21.3818C24.0416 21.8326 23.8848 22.2052 23.5692 22.4264C23.2536 22.6476 22.7806 22.7202 22.2976 22.7202H21.6342ZM24.3204 18.76C24.3808 18.5542 24.432 18.3642 24.343 18.2286C24.2776 18.1282 24.1822 18.0966 24.0008 18.0824C23.835 18.059 23.5436 18.07 23.5436 18.07C23.292 18.0774 23.1394 18.1234 23.0136 18.2244C22.8878 18.3256 22.8226 18.432 22.7178 18.7582L21.838 21.4572C21.7568 21.7092 21.747 21.8858 21.8078 21.9872C21.8682 22.0884 22.0566 22.1516 22.3572 22.1516C22.6408 22.1508 22.9076 22.1398 23.1442 21.9606C23.2806 21.8746 23.348 21.709 23.436 21.459L24.3204 18.76Z" fill="#C9202F"/>
<path d="M7.96669 22.6364C7.96669 22.6364 5.03749 22.6392 5.03809 22.6368L6.70089 17.5654H7.94109C7.94109 17.5654 6.43949 22.0688 6.45149 22.0688H8.15569L7.96669 22.6364Z" fill="#C9202F"/>
<path d="M12.8016 18.1404C12.8004 18.1404 12.9906 17.5684 12.9906 17.5684H10.0834C10.083 17.5684 10.0824 17.5684 10.0824 17.5684L8.42041 22.6362H11.322L11.5122 22.0686C11.5122 22.0686 9.96321 22.0686 9.83521 22.0686C9.82981 22.0686 10.1384 21.1342 10.4754 20.117C11.1428 20.117 11.935 20.117 11.9342 20.117C11.9326 20.117 12.1218 19.5452 12.1218 19.5452C12.1218 19.5452 11.3576 19.5452 10.6654 19.545C10.8406 19.017 11.0094 18.509 11.132 18.1404C11.9194 18.1404 12.8026 18.1404 12.8016 18.1404Z" fill="#C9202F"/>
<path d="M20.45 17.5647L19.3484 20.9587L18.8862 17.5653L17.6716 17.5659L16.021 22.6371H17.2358L18.3432 19.2413C18.3432 19.2413 18.7962 22.5863 18.8042 22.6355L18.8038 22.6367L19.5088 22.6371L21.1572 17.5645L20.45 17.5647Z" fill="#C9202F"/>
<path d="M29.2312 17.5645H28.3458L27.291 18.8949L27.0292 17.5645L25.73 17.5659L26.2086 19.8699L24.1006 22.6371H24.972L26.3944 20.7659L26.7824 22.6363L28.0276 22.6367L27.4722 19.8147L29.2312 17.5645Z" fill="#C9202F"/>
<path d="M16.2661 17.5645L15.1639 20.9587L14.7023 17.5657L13.4873 17.5663L11.8369 22.6377H13.0517L14.1587 19.2415C14.1587 19.2415 14.6123 22.5893 14.6197 22.6355L14.6193 22.6379H15.3247L16.9729 17.5649H16.2661V17.5645Z" fill="#C9202F"/>
<path d="M32.7374 23.8545C32.7374 24.1155 32.5234 24.3295 32.2622 24.3295C32.0012 24.3295 31.7876 24.1155 31.7876 23.8545C31.7876 23.5935 32.0012 23.3799 32.2622 23.3799C32.5232 23.3799 32.7374 23.5937 32.7374 23.8545ZM31.8662 23.8545C31.8662 24.0697 32.0468 24.2495 32.262 24.2509C32.477 24.2493 32.6582 24.0697 32.6582 23.8545C32.6582 23.6397 32.477 23.4585 32.262 23.4585C32.0468 23.4585 31.8662 23.6397 31.8662 23.8545ZM32.1376 23.5963H32.342C32.4538 23.5963 32.4956 23.6553 32.4956 23.7103C32.4956 23.8169 32.4288 23.8493 32.3724 23.8771L32.4564 24.0931L32.3202 24.1115L32.2568 23.9033H32.1992L32.157 24.1041H32.0328L32.1376 23.5963ZM32.219 23.8273H32.2636C32.3278 23.8273 32.3684 23.7895 32.3684 23.7313C32.3684 23.7001 32.3436 23.6723 32.303 23.6723H32.2506L32.219 23.8273Z" fill="#C9202F"/>
</g>
<circle cx="20" cy="20" r="19.5" stroke="black" stroke-opacity="0.05"/>
<defs>
<clipPath id="clip0_9_400900">
<rect width="30" height="10" fill="white" transform="translate(5 15)"/>
</clipPath>
</defs>
</svg>
