<svg width="40" height="40" viewBox="0 0 40 40" fill="none" xmlns="http://www.w3.org/2000/svg">
<circle cx="20" cy="20" r="20" fill="white"/>
<circle cx="20" cy="20" r="19.5" stroke="black" stroke-opacity="0.05"/>
<circle cx="20" cy="20" r="20" fill="white"/>
<circle cx="20" cy="20" r="19.5" stroke="black" stroke-opacity="0.05"/>
<circle cx="20" cy="20" r="20" fill="#052147"/>
<circle cx="20" cy="20" r="19.5" stroke="black" stroke-opacity="0.05"/>
<path fill-rule="evenodd" clip-rule="evenodd" d="M8.98883 25.1707C6.53803 25.1707 5 24.4452 5 23.3819C5 21.8654 7.42573 21.0726 10.2814 21.0726C11.4638 21.0726 12.751 21.2222 14.1018 21.4461C14.6384 20.9042 15.1615 20.3345 15.6658 19.7747C16.6709 18.6576 18.1516 17.0497 19.3949 16.0967C21.7382 14.3024 24.7444 13 27.9118 13C31.8442 13 35 14.3311 35 16.3161C35 17.4564 33.8785 18.4418 31.8765 18.517L31.8138 18.1506C32.2366 17.9572 32.7507 17.6114 32.7507 16.5284C32.7507 15.1194 31.1661 13.7112 28.254 13.7112C25.3419 13.7112 23.8433 15.0298 22.041 16.9002C21.0987 17.8792 20.082 19.1019 19.1584 20.0479C18.4687 20.7546 17.7279 21.4049 16.9584 21.9863C20.1169 22.625 23.459 23.3658 26.553 23.3658C29.6469 23.3658 31.1832 22.5417 31.9248 21.851L32.1228 22.1475C31.3292 23.785 28.9169 25.1734 25.8337 25.1734C21.8789 25.1734 18.3576 24.0654 15.2654 23.1311C13.1102 24.4255 10.8681 25.1734 8.98883 25.1734M13.0135 22.4808C11.643 22.1162 10.3692 21.8654 9.19307 21.8654C7.94706 21.8654 6.96351 22.4001 6.96351 23.2216C6.96351 24.043 7.69714 24.4622 9.00137 24.4622C10.3056 24.4622 11.7075 23.6273 13.0135 22.4808Z" fill="white"/>
</svg>
