<svg width="40" height="40" viewBox="0 0 40 40" fill="none" xmlns="http://www.w3.org/2000/svg">
<circle cx="20" cy="20" r="20" fill="#085CF0"/>
<path fill-rule="evenodd" clip-rule="evenodd" d="M5 23.1338V16.2918H8.32632V20.8137H12.3866V23.1338H5ZM23.932 23.1338H19.8224L16.7112 19.7424V23.1338H13.3848V16.2918H16.7112V19.3577L19.7159 16.2918H23.7663L20.1164 19.5471L23.932 23.1338ZM35 23.7099H31.2613L30.4465 22.9582C29.9474 23.2206 28.9984 23.4081 28.0692 23.4081C24.9579 23.4081 23.1093 22.0073 23.1093 19.6497C23.1113 17.3749 25.1453 16.0195 28.5802 16.0195C31.9755 16.0195 33.9918 17.3749 33.9918 19.6595C33.9918 19.8687 33.9741 20.0758 33.9346 20.281C33.8952 20.4862 33.836 20.6874 33.7571 20.8808C33.6782 21.0741 33.5795 21.2596 33.4651 21.4332C33.3507 21.6088 33.2185 21.7706 33.0725 21.9205L35 23.7099ZM28.5111 21.2675C29.8902 21.2675 30.6142 20.7249 30.6142 19.701C30.6142 18.677 29.902 18.1463 28.5407 18.1463C27.1814 18.1463 26.477 18.6889 26.477 19.7306C26.477 20.7446 27.1814 21.2714 28.5111 21.2714V21.2675Z" fill="white"/>
<circle cx="20" cy="20" r="19.5" stroke="black" stroke-opacity="0.05"/>
</svg>
