<svg width="40" height="40" viewBox="0 0 40 40" fill="none" xmlns="http://www.w3.org/2000/svg">
<circle cx="20" cy="20" r="20" fill="#ED1D24"/>
<g clip-path="url(#clip0_9_398655)">
<path d="M24.9449 21.2735C25.0957 21.1664 25.259 21.0406 25.4108 20.921C26.5809 19.9849 27.4753 18.9584 27.6521 18.3905C27.6573 18.3718 27.6729 18.3188 27.6729 18.2782C27.6729 18.22 27.6448 18.1784 27.5918 18.1784C27.0541 18.1784 25.3307 19.8944 24.9137 21.285V21.2902L24.9449 21.2735ZM20.6235 21.0759C22.2533 19.8445 23.9652 18.0525 24.1482 17.3172C24.1534 17.2933 24.1586 17.2694 24.1586 17.2475C24.1565 17.1986 24.1295 17.156 24.0681 17.156C23.5523 17.155 21.1643 19.3578 20.6235 21.0759ZM10.6183 22.1576C10.1877 21.8591 9.52314 21.598 8.92824 21.598C8.35205 21.598 7.98284 21.8248 7.98284 22.1108C7.98284 22.4384 8.43006 22.5819 8.93136 22.5819C9.53874 22.5819 10.09 22.4186 10.6183 22.1576ZM15.6095 18.2969C16.7774 17.9225 17.8861 17.1394 18.7129 16.3219C19.4763 15.5647 20.0879 14.6672 20.0879 14.222C20.0879 14.1201 20.0151 14.0598 19.9225 14.0598C19.5689 14.0598 18.8981 14.5289 17.9953 15.4337C17.2923 16.1368 16.4737 17.0988 15.6095 18.2969ZM33 21.1206C31.9964 22.1191 28.87 24.8638 28.0432 27.1726L27.0187 26.9085C27.3536 25.9516 28.3625 24.4644 29.4867 23.3172C29.2475 23.4067 28.9979 23.441 28.7982 23.441C28.4945 23.441 28.2585 23.3495 28.116 23.1768C28.014 23.053 27.9631 22.8908 27.9631 22.6984C27.9631 22.6568 27.9662 22.6141 27.9714 22.5673C26.9844 23.1685 26.1908 23.4399 25.4129 23.4399C24.8076 23.4399 24.298 23.1758 24.0619 22.714C23.0822 23.1997 22.142 23.4399 21.3567 23.4399C20.6256 23.4399 20.0359 23.1498 19.7655 22.6225C18.7754 23.1789 17.9319 23.4399 17.2611 23.4399C16.8752 23.4399 16.5684 23.3328 16.3729 23.13C16.2283 22.9802 16.1524 22.7795 16.1409 22.5476C15.5055 22.9667 14.5777 23.4399 13.6271 23.4399C12.6537 23.4399 12.0016 23.1061 11.4951 22.7743C10.6869 23.2215 9.79771 23.4399 8.85856 23.4399C8.14613 23.4399 7 23.1446 7 22.1264C6.99896 21.3047 7.85596 20.7473 9.00416 20.7473C9.97972 20.7473 10.921 21.1581 11.5107 21.5855C12.0702 21.1394 12.6578 20.5153 13.3515 19.6344C13.1986 19.6427 13.0499 19.6469 12.9033 19.6469C11.5762 19.6469 10.4675 19.2559 9.8622 18.5705C9.5481 18.222 9.3765 17.7676 9.38066 17.2985C9.38066 15.4524 11.7135 14.0192 13.753 13.8081C13.8882 14.1139 14.0078 14.3489 14.1326 14.6297C12.118 14.8638 10.4384 16.0567 10.4384 17.2226C10.4384 17.9891 11.2995 18.7587 13.1279 18.7587C13.441 18.7587 13.7561 18.7285 14.065 18.6859C15.6802 16.4592 18.1524 13 20.2803 13C20.9095 13 21.2392 13.3827 21.2392 13.8944C21.2392 14.948 20.3333 16.0816 19.7426 16.6724C18.8159 17.6043 17.1383 18.9906 14.7962 19.4493C13.8851 20.7181 13.1362 21.5585 12.3874 22.1659C12.8409 22.4103 13.2673 22.5611 13.7748 22.5611C15.0354 22.5611 16.2585 21.4077 17.2132 20.429L17.2465 20.3968L17.9912 20.9792L17.9568 21.0198C17.5346 21.5034 17.1456 22.0161 17.1456 22.3021C17.1456 22.5195 17.3297 22.5621 17.4878 22.5621C17.9704 22.5621 18.715 22.2491 19.5907 21.7114V21.7041C19.6875 19.5398 22.6412 16.2304 24.4332 16.2304C24.9397 16.2304 25.2299 16.4821 25.2299 16.9241C25.2299 18.0088 23.3588 20.3344 20.636 22.1149V22.116C20.7764 22.4186 21.1009 22.5653 21.6511 22.5653C22.0806 22.5653 22.921 22.3739 23.9194 21.8518C24.0348 20.7306 24.6703 19.5263 25.4763 18.6682C26.2845 17.8092 27.1914 17.2507 27.9745 17.2507C28.4581 17.2507 28.7431 17.5159 28.7431 17.934C28.7431 18.8804 27.6448 20.4977 24.9979 22.1919C25.1154 22.4186 25.3422 22.5621 25.6958 22.5621C26.4841 22.5621 27.8726 21.7207 28.9542 20.6869L29.7312 21.2902C29.3994 21.6927 29.0634 22.1347 29.0749 22.3895C29.078 22.4717 29.1331 22.5278 29.2642 22.5278C30.0619 22.5278 31.3162 21.4753 32.2574 20.5465L33 21.1206ZM18.5694 18.9511C18.922 18.9511 19.2059 19.2371 19.2059 19.5887C19.2059 19.9412 18.921 20.2262 18.5684 20.2262C18.2158 20.2262 17.9308 19.9412 17.9308 19.5887C17.9308 19.2361 18.2169 18.9511 18.5694 18.9511Z" fill="white"/>
</g>
<circle cx="20" cy="20" r="19.5" stroke="black" stroke-opacity="0.05"/>
<defs>
<clipPath id="clip0_9_398655">
<rect width="26" height="14.1726" fill="white" transform="translate(7 13)"/>
</clipPath>
</defs>
</svg>
