<svg width="40" height="40" viewBox="0 0 40 40" fill="none" xmlns="http://www.w3.org/2000/svg">
<circle cx="20" cy="20" r="20" fill="#1E1E23"/>
<g clip-path="url(#clip0_9_395918)">
<path d="M19.825 19.8973L11.9069 19.3059V19.3078C11.8729 19.3059 11.8388 19.3051 11.8047 19.3052C11.2615 19.3085 10.825 19.5778 10.8301 19.9076C10.8353 20.2374 11.2801 20.5022 11.8233 20.499C11.8581 20.499 11.8921 20.4977 11.9256 20.4952V20.4984L19.8243 19.898L19.825 19.8973ZM19.8256 19.9102L11.9326 20.8616V20.8635C11.899 20.8683 11.8656 20.8741 11.8323 20.8809C11.3001 20.9889 10.9246 21.3386 10.9947 21.6607C11.0641 21.9834 11.5521 22.157 12.0843 22.0483C12.1184 22.0412 12.1512 22.0335 12.184 22.0245L12.1846 22.0277L19.8263 19.9095L19.8256 19.9102ZM19.8295 19.9211L12.2868 22.3704L12.2875 22.3717C12.2553 22.3826 12.2238 22.3955 12.1923 22.4083C11.6909 22.6179 11.392 23.0338 11.5238 23.3366C11.6549 23.6387 12.1673 23.7146 12.6681 23.5044C12.7002 23.4915 12.7311 23.4767 12.7613 23.462L12.7626 23.4652L19.8295 19.9211ZM19.8359 19.9314L12.9342 23.7885L12.9355 23.7911C12.9066 23.8078 12.8776 23.8258 12.8487 23.8451C12.3987 24.1479 12.1866 24.614 12.3749 24.8852C12.5633 25.1565 13.0808 25.1308 13.5308 24.8274C13.5597 24.8081 13.5873 24.7888 13.6143 24.7682L13.6156 24.7708L19.8359 19.9314ZM19.8436 19.9417L13.8207 25.0736L13.8226 25.0749C13.7969 25.0974 13.7725 25.1205 13.7481 25.1456C13.3662 25.53 13.2492 26.0276 13.4871 26.2577C13.7249 26.4866 14.2276 26.3606 14.6095 25.9768C14.6339 25.9524 14.6571 25.9273 14.6789 25.9016L14.6815 25.9042L19.8436 19.9417ZM19.8526 19.9487L14.9592 26.1247L14.9605 26.126C14.9401 26.1532 14.9206 26.1811 14.902 26.2095C14.6024 26.6602 14.5851 27.1712 14.8634 27.3506C15.1418 27.5293 15.6104 27.3082 15.9093 26.8569C15.9286 26.8286 15.9466 26.799 15.9633 26.7701L15.9659 26.772L19.8526 19.9487ZM19.8642 19.9552L16.2771 26.9707L16.2783 26.972C16.2634 27.0026 16.2495 27.0337 16.2366 27.0652C16.0315 27.566 16.1151 28.07 16.423 28.1915C16.7316 28.3136 17.1475 28.0057 17.3526 27.5049C17.3654 27.4727 17.3776 27.4406 17.3879 27.4097L17.3911 27.4104L19.8642 19.9552ZM19.8758 19.9577L17.7344 27.5203H17.7363C17.7278 27.5533 17.7203 27.5865 17.7138 27.62C17.611 28.151 17.791 28.6292 18.1176 28.689C18.4435 28.7482 18.7913 28.3657 18.8941 27.8347C18.9006 27.8012 18.9063 27.7678 18.9102 27.7344H18.9134L19.8758 19.9577ZM20.4306 27.7955H20.4338L19.8873 19.959L19.2348 27.8135H19.2368C19.2347 27.8475 19.2339 27.8816 19.2342 27.9157C19.2374 28.4563 19.5087 28.8909 19.8398 28.8857C20.1708 28.8806 20.4376 28.4377 20.4344 27.897C20.4342 27.8631 20.4329 27.8293 20.4306 27.7955ZM21.9914 27.6386C21.9846 27.6053 21.9766 27.5723 21.9676 27.5396L21.9708 27.539L19.8996 19.9584L20.7983 27.7897H20.8008C20.8053 27.8218 20.8111 27.8559 20.8182 27.8893C20.9275 28.4197 21.2785 28.7925 21.6025 28.7231C21.9265 28.6543 22.1007 28.1683 21.9914 27.6386ZM23.4546 27.0568C23.4415 27.0255 23.4274 26.9946 23.4121 26.9642L23.4153 26.963L19.9111 19.9545L22.3148 27.4361L22.3167 27.4355C22.3276 27.4676 22.3398 27.4991 22.3533 27.5306C22.5642 28.0295 22.9821 28.3271 23.2855 28.196C23.5902 28.0655 23.6654 27.555 23.4546 27.0568ZM24.7846 26.1986C24.7653 26.1706 24.7451 26.1431 24.7242 26.1163L24.7268 26.1144L19.9214 19.9481L23.74 26.7926L23.7426 26.7913C23.7593 26.8202 23.7773 26.8492 23.7972 26.8775C24.1013 27.3255 24.5693 27.5364 24.8418 27.3487C25.1144 27.1622 25.0893 26.6467 24.7846 26.1986ZM25.9386 25.1257C25.9142 25.1017 25.8891 25.0786 25.8633 25.0562L25.8659 25.0537L19.9311 19.941L25.0315 25.9106L25.0328 25.9087C25.0553 25.9337 25.0784 25.9582 25.1035 25.9826C25.4892 26.3625 25.9906 26.4789 26.2208 26.2423C26.4516 26.0057 26.3249 25.5056 25.9386 25.1257ZM26.8238 23.8316C26.7952 23.8128 26.7661 23.795 26.7363 23.7782L26.7383 23.775L19.9381 19.9307L26.0877 24.7779L26.089 24.7753C26.116 24.7959 26.1436 24.8152 26.1726 24.8345C26.6264 25.1321 27.1394 25.1495 27.3194 24.8724C27.4994 24.5953 27.2776 24.1292 26.8244 23.831L26.8238 23.8316ZM27.4743 22.3961C27.4422 22.3832 27.4101 22.371 27.3786 22.3607L27.3798 22.3575L19.9446 19.9211L26.9382 23.4665L26.9388 23.4645C26.9691 23.4793 27.0006 23.4928 27.0321 23.5057C27.5354 23.7101 28.0426 23.6272 28.1648 23.3205C28.2869 23.0139 27.9783 22.6005 27.4743 22.3961ZM27.8061 20.8616C27.7726 20.8551 27.7389 20.8498 27.7051 20.8455L27.7058 20.8423L19.9478 19.9089L27.4904 22.0162V22.0142C27.5226 22.0226 27.5566 22.0303 27.5907 22.0367C28.1243 22.1396 28.6051 21.9596 28.6643 21.635C28.7241 21.3103 28.3403 20.9645 27.8067 20.8616H27.8061ZM27.9526 19.3097C27.9179 19.3097 27.8838 19.311 27.8498 19.3136V19.3104L19.9516 19.8973L27.8684 20.5029V20.501C27.9025 20.5029 27.9366 20.5035 27.9713 20.5035C28.5145 20.5003 28.9503 20.2303 28.9452 19.9012C28.9407 19.5714 28.4952 19.3065 27.9526 19.3097ZM28.7826 18.1468C28.7131 17.8247 28.2252 17.6512 27.6923 17.7598C27.6588 17.7662 27.6254 17.7746 27.5933 17.7836L27.5926 17.7804L19.9503 19.8851L27.8446 18.9465L27.844 18.9446C27.8774 18.9401 27.9108 18.9343 27.9449 18.9272C28.4772 18.8186 28.852 18.4695 28.7826 18.1468ZM28.2528 16.4715C28.1217 16.1694 27.6087 16.0935 27.1086 16.3037C27.0764 16.3166 27.0449 16.3307 27.0147 16.3462L27.0134 16.343L19.9471 19.8735L27.4898 17.4384L27.4885 17.4365C27.5206 17.4249 27.5528 17.4127 27.5843 17.3998C28.0851 17.1896 28.3846 16.7743 28.2528 16.4715ZM27.4017 14.9229C27.2133 14.6516 26.6958 14.6773 26.2458 14.9801C26.2169 14.9994 26.1893 15.0193 26.1623 15.0399L26.161 15.0373L19.9407 19.8632L26.8424 16.019L26.8411 16.017C26.8701 16.0003 26.899 15.9823 26.9279 15.963C27.3779 15.6596 27.5901 15.1942 27.4017 14.9229ZM26.2896 13.551C26.0517 13.3215 25.549 13.4469 25.1671 13.8313C25.1432 13.8555 25.1201 13.8803 25.0977 13.9059L25.0951 13.904L19.933 19.8536L25.9559 14.7345L25.954 14.7326C25.9797 14.7107 26.0041 14.6876 26.0286 14.6625C26.4104 14.2781 26.5274 13.7805 26.2896 13.5504V13.551ZM24.9119 12.4575C24.6342 12.2782 24.1662 12.4993 23.8666 12.9506C23.8477 12.979 23.8297 13.0079 23.8126 13.0374L23.8101 13.0355L19.9227 19.8459L24.8168 13.6828L24.8155 13.6822C24.8354 13.6552 24.8553 13.6275 24.874 13.5986C25.1736 13.1473 25.1896 12.6362 24.9119 12.4575ZM23.353 11.616C23.0451 11.4945 22.6291 11.8025 22.4241 12.3032C22.4112 12.3354 22.399 12.3669 22.3887 12.3984L22.3855 12.3971L19.9124 19.8401L23.4996 12.8368L23.4983 12.8362C23.5131 12.806 23.5266 12.7751 23.5401 12.743C23.7451 12.2422 23.6609 11.7375 23.353 11.616ZM21.6591 11.1191C21.3331 11.06 20.9853 11.4418 20.8825 11.9728C20.8761 12.0069 20.8703 12.0403 20.8664 12.0737L20.8632 12.0731L19.9008 19.8369L22.0422 12.2878H22.0403C22.0486 12.255 22.0563 12.2216 22.0628 12.1882C22.1656 11.6572 21.9856 11.1789 21.6591 11.1191ZM20.4415 11.879C20.4383 11.3377 20.167 10.9037 19.8359 10.9082C19.5042 10.914 19.2381 11.3563 19.2413 11.897C19.2413 11.9317 19.2432 11.9657 19.2451 11.9992H19.2419L19.8867 19.835L20.4408 11.9805H20.4389C20.4408 11.9471 20.4415 11.913 20.4415 11.879ZM19.8745 19.8356L18.8768 12.005H18.8748C18.8702 11.9713 18.8644 11.9379 18.8575 11.9047C18.7482 11.375 18.3972 11.0015 18.0732 11.0709C17.7492 11.1403 17.575 11.6257 17.6843 12.1554C17.6907 12.1895 17.6991 12.2222 17.7081 12.2544L17.7048 12.255L19.8745 19.8356ZM19.8629 19.8395L17.3603 12.3579L17.3583 12.3592C17.3471 12.3269 17.3349 12.2949 17.3217 12.2634C17.1108 11.7652 16.6936 11.4675 16.3896 11.598C16.0855 11.7292 16.0096 12.239 16.2205 12.7378C16.2333 12.7693 16.2481 12.8002 16.2629 12.8304L16.2603 12.8317L19.8629 19.8395ZM19.8526 19.8459L15.9344 13.002L15.9325 13.0033C15.9151 12.9741 15.8969 12.9453 15.8778 12.9172C15.5738 12.4691 15.1058 12.2576 14.8332 12.4453C14.56 12.6324 14.5863 13.1473 14.8911 13.596C14.9103 13.6237 14.9296 13.6513 14.9508 13.6783L14.9476 13.6796L19.8526 19.8459ZM19.843 19.8536L14.6436 13.884L14.6423 13.886C14.6195 13.8606 14.5959 13.8359 14.5716 13.812C14.1858 13.4315 13.6844 13.3151 13.4543 13.5517C13.2235 13.7889 13.3501 14.289 13.7365 14.669C13.7606 14.6928 13.7855 14.716 13.8111 14.7384L13.8091 14.7403L19.843 19.8536ZM19.8359 19.8632L13.5873 15.0167L13.5861 15.0187C13.5589 14.9982 13.531 14.9787 13.5025 14.9602C13.0493 14.6619 12.5356 14.6452 12.3556 14.9216C12.1756 15.1987 12.3981 15.6647 12.8513 15.963C12.8802 15.9823 12.9091 15.9997 12.9387 16.0164L12.9368 16.019L19.8359 19.8632ZM19.8295 19.8735L12.7362 16.3282L12.7356 16.3307C12.7047 16.3158 12.6734 16.3019 12.6417 16.289C12.1383 16.0852 11.6318 16.1681 11.5096 16.4747C11.3875 16.7814 11.6961 17.1947 12.2001 17.3992C12.2322 17.412 12.2637 17.4242 12.2958 17.4345L12.2946 17.4377L19.8288 19.8742L19.8295 19.8735ZM19.8263 19.8857L12.1853 17.7778V17.7804C12.1521 17.7719 12.1186 17.7644 12.085 17.7579C11.5514 17.655 11.0706 17.835 11.0108 18.1597C10.951 18.4837 11.3354 18.8302 11.869 18.9324C11.9024 18.9388 11.9365 18.9446 11.9699 18.9485L11.9693 18.9517L19.8263 19.8857Z" fill="white"/>
<path d="M22.9922 20.7596C23.4564 19.0702 22.4439 17.3216 20.73 16.8556C19.0168 16.3888 17.2509 17.3808 16.7867 19.0702C16.3219 20.7603 17.3344 22.5082 19.0483 22.9749C20.7622 23.441 22.5274 22.4497 22.9922 20.7596Z" fill="url(#paint0_linear_9_395918)"/>
<path d="M22.5539 19.6962L22.5198 19.6969L19.8925 19.8955L22.5134 20.0967C22.5247 20.0975 22.5361 20.0973 22.5475 20.0974C22.7275 20.098 22.8753 20.0093 22.8773 19.8981C22.8785 19.7875 22.7339 19.6969 22.5539 19.6962ZM22.5449 20.2253C22.5338 20.2232 22.5227 20.2215 22.5115 20.2201V20.2189L19.8918 19.8994L22.4279 20.611V20.6097C22.439 20.6128 22.4501 20.6156 22.4613 20.6181C22.6375 20.6541 22.7995 20.5962 22.8226 20.4876C22.8458 20.3796 22.7217 20.2619 22.5449 20.2253ZM22.4253 20.7389C22.4147 20.7343 22.404 20.7301 22.3932 20.7261L19.8905 19.9032L22.2357 21.0938V21.0925C22.246 21.0976 22.2565 21.1023 22.2672 21.1066C22.4337 21.1774 22.6034 21.1516 22.6471 21.0507C22.6908 20.9485 22.5918 20.809 22.4253 20.7389ZM22.2074 21.2217C22.198 21.2152 22.1883 21.2089 22.1785 21.2031L19.8886 19.9071L21.9522 21.5322L21.9535 21.5316L21.9811 21.5509C22.1303 21.6537 22.3025 21.6621 22.3643 21.5708C22.4273 21.4795 22.3565 21.3233 22.2074 21.2217ZM21.9091 21.6582C21.9012 21.65 21.8931 21.6421 21.8847 21.6344L19.886 19.9103L21.5993 21.9128H21.5999C21.6074 21.9212 21.6151 21.9293 21.623 21.9372C21.7497 22.0664 21.9168 22.1089 21.9959 22.0317C22.075 21.9546 22.0358 21.7874 21.9091 21.6582ZM21.526 22.0156C21.5198 22.006 21.5134 21.9966 21.5067 21.9874L19.8828 19.9122L21.173 22.2046H21.1737L21.1917 22.2329C21.2913 22.3846 21.4463 22.4592 21.5388 22.3988C21.6314 22.339 21.6256 22.1674 21.526 22.0156ZM21.083 22.303C21.0787 22.2923 21.074 22.2818 21.0689 22.2715H21.0702L19.879 19.9141L20.6999 22.4187H20.7012C20.7044 22.4296 20.7083 22.4399 20.7128 22.4509C20.7809 22.6193 20.9185 22.7221 21.0213 22.6816C21.1235 22.6405 21.1512 22.4708 21.083 22.3024V22.303ZM20.5932 22.4894C20.5909 22.4782 20.5883 22.4671 20.5855 22.456L19.8758 19.9154L20.1946 22.528H20.1959C20.1975 22.5392 20.1994 22.5503 20.2017 22.5614C20.2358 22.7401 20.3508 22.8681 20.4588 22.8481C20.5675 22.8289 20.6273 22.6681 20.5932 22.4894ZM20.0873 22.5544L19.8719 19.9167L19.6906 22.5492H19.6919C19.6911 22.5606 19.6907 22.5719 19.6906 22.5833C19.6893 22.7652 19.778 22.9137 19.888 22.915C19.9973 22.9169 20.0873 22.771 20.0892 22.5891C20.0891 22.5777 20.0887 22.5663 20.0879 22.555L20.0873 22.5544ZM19.8674 19.9161L19.1795 22.4618H19.1808C19.1779 22.4731 19.1754 22.4844 19.1731 22.4959C19.1371 22.6739 19.195 22.8366 19.3017 22.8604C19.4097 22.8835 19.5267 22.7575 19.5627 22.5801C19.5649 22.569 19.5669 22.5578 19.5685 22.5466L19.8674 19.9161ZM19.8635 19.9141L18.7006 22.2689H18.7019C18.6968 22.2793 18.6921 22.2898 18.6878 22.3004C18.617 22.4676 18.6428 22.6392 18.7437 22.6829C18.8446 22.7266 18.9828 22.627 19.0529 22.4592C19.0575 22.4486 19.0618 22.4379 19.0658 22.4271L19.8635 19.9141ZM19.8603 19.9122L18.266 21.9835V21.9841C18.2593 21.9931 18.2528 22.0023 18.2468 22.0118C18.1458 22.1622 18.1375 22.3358 18.2275 22.3981C18.3175 22.4611 18.473 22.3904 18.5746 22.24L18.5926 22.2111L19.8603 19.9122ZM19.8571 19.9103L17.8874 21.6274L17.888 21.6286C17.8794 21.6361 17.8711 21.6438 17.863 21.6518C17.7344 21.7791 17.6933 21.9475 17.7698 22.0266C17.8463 22.1063 18.0121 22.0671 18.14 21.9398C18.1483 21.9315 18.1562 21.9229 18.1638 21.9141V21.9154L19.8571 19.9096V19.9103ZM19.8545 19.9064L17.5981 21.1979C17.5885 21.2036 17.579 21.2102 17.5698 21.2166C17.4194 21.3169 17.3455 21.4737 17.4053 21.5663C17.465 21.6595 17.6354 21.6537 17.7858 21.5534L17.8135 21.5341L19.8545 19.9064ZM19.8526 19.9032L17.3853 20.7216V20.7229C17.3745 20.7264 17.3638 20.7303 17.3532 20.7344C17.186 20.8032 17.0838 20.9421 17.1243 21.0449C17.1655 21.1478 17.3333 21.1761 17.5004 21.1073C17.5108 21.1031 17.5211 21.0986 17.5313 21.0938L19.8526 19.9032ZM19.8513 19.8994L17.2767 20.2131V20.2137C17.2655 20.2153 17.2543 20.2172 17.2433 20.2195C17.0665 20.2536 16.9392 20.3699 16.9585 20.4792C16.9784 20.5879 17.1385 20.6483 17.3153 20.6142C17.3265 20.612 17.3376 20.6095 17.3487 20.6065L19.8513 19.8994ZM19.85 19.8955L17.2291 19.6981C17.2178 19.6973 17.2064 19.6976 17.195 19.6975C17.015 19.6969 16.8672 19.7856 16.8653 19.8968C16.8633 20.0074 17.0086 20.098 17.1886 20.0986L17.2227 20.098L19.85 19.8955ZM19.8507 19.891L17.3146 19.1839V19.1851C17.3036 19.1822 17.2924 19.1796 17.2812 19.1774C17.1044 19.1408 16.9424 19.1986 16.9193 19.3073C16.8968 19.4153 17.0208 19.5323 17.1976 19.5696C17.2087 19.5718 17.2198 19.5738 17.231 19.5754L19.8507 19.891ZM19.852 19.8871L17.5062 18.7017L17.5055 18.703C17.4954 18.698 17.4851 18.6933 17.4747 18.6889C17.3082 18.6181 17.1385 18.6439 17.0948 18.7454C17.051 18.847 17.15 18.9865 17.3165 19.0566C17.3271 19.0612 17.3378 19.0655 17.3487 19.0694L19.8513 19.8878L19.852 19.8871ZM19.8539 19.8839L17.7897 18.2626L17.789 18.2633C17.78 18.2564 17.7708 18.2497 17.7614 18.2434C17.6123 18.1418 17.44 18.1328 17.3776 18.2241C17.3153 18.3154 17.386 18.4716 17.5351 18.5738C17.5448 18.5802 17.5544 18.5866 17.564 18.5918L19.8539 19.8839ZM19.8565 19.8807L18.1433 17.8814V17.8827C18.1356 17.8739 18.1277 17.8653 18.1195 17.857C17.9928 17.7284 17.8257 17.686 17.7466 17.7631C17.6682 17.8403 17.7068 18.0074 17.834 18.1366C17.8419 18.1448 17.8501 18.1528 17.8585 18.1604L19.8565 19.8807ZM19.859 19.8781L18.5695 17.5902L18.5688 17.5909C18.5631 17.581 18.5571 17.5714 18.5508 17.5619C18.4518 17.4102 18.2963 17.3356 18.2037 17.3961C18.1118 17.4559 18.1175 17.6275 18.2165 17.7792L18.2358 17.8075L19.8597 19.8775L19.859 19.8781ZM19.8635 19.8762L19.0426 17.3755L19.042 17.3761C19.0382 17.3653 19.0341 17.3546 19.0298 17.344C18.9623 17.1762 18.824 17.0727 18.7212 17.1132C18.6196 17.1544 18.5913 17.3234 18.6595 17.4925C18.6639 17.5029 18.6686 17.5132 18.6736 17.5234H18.673L19.8635 19.8762ZM19.8674 19.8749L19.5479 17.2669H19.5466C19.5454 17.2556 19.5437 17.2445 19.5415 17.2334C19.5074 17.0547 19.3917 16.9261 19.2837 16.9461C19.1757 16.966 19.1153 17.1274 19.15 17.3054C19.1519 17.3167 19.1543 17.3278 19.157 17.3389L19.8674 19.8749ZM20.086 17.2077C20.0873 17.0264 19.9985 16.8773 19.8886 16.876C19.7793 16.8741 19.6893 17.02 19.688 17.2013L19.6887 17.236L19.8719 19.8743L20.086 17.2418H20.0847C20.0855 17.2304 20.0859 17.2191 20.086 17.2077ZM20.4736 16.93C20.3663 16.9069 20.2499 17.0329 20.2139 17.2103C20.2114 17.2216 20.2093 17.2329 20.2075 17.2444L19.8764 19.8743L20.5964 17.3286H20.5951C20.5981 17.3173 20.6006 17.3059 20.6028 17.2945C20.6395 17.1164 20.581 16.9538 20.4736 16.93ZM21.0323 17.1074C20.9313 17.0631 20.7931 17.1634 20.723 17.3311C20.7185 17.3418 20.7142 17.3525 20.7102 17.3633V17.3626L19.8796 19.8762L21.0753 17.5214H21.074C21.0791 17.5111 21.0839 17.5006 21.0882 17.4899C21.1589 17.3228 21.1332 17.1511 21.0323 17.1074ZM21.5491 17.3922C21.4591 17.3292 21.3035 17.3999 21.202 17.5504C21.1956 17.5598 21.1896 17.5694 21.184 17.5793L19.8835 19.8781L21.5112 17.8069L21.5099 17.8062C21.5168 17.7972 21.5235 17.788 21.5298 17.7786C21.6308 17.6281 21.6391 17.4552 21.5491 17.3922ZM22.0062 17.7631C21.9297 17.6841 21.7638 17.7233 21.6353 17.8512C21.6273 17.8591 21.6196 17.8673 21.6121 17.8756L19.886 19.8807L21.8885 18.163L21.8879 18.1624C21.8963 18.1549 21.9044 18.1472 21.9123 18.1392C22.0409 18.0106 22.0827 17.8429 22.0062 17.7631ZM22.3707 18.2241C22.3109 18.1309 22.1412 18.1366 21.9901 18.2369C21.9807 18.2431 21.9715 18.2495 21.9625 18.2562L19.8886 19.8839L22.1778 18.5918C22.1877 18.5861 22.1973 18.5801 22.2068 18.5738C22.3572 18.4735 22.4305 18.3166 22.3707 18.2241ZM22.6516 18.7454C22.6111 18.6426 22.4427 18.6143 22.2762 18.6831C22.2655 18.6872 22.255 18.6917 22.2447 18.6966L19.8912 19.8871L22.3913 19.0688V19.0675C22.4019 19.064 22.4124 19.0601 22.4228 19.0559C22.5899 18.9871 22.6928 18.8483 22.6516 18.7454ZM22.8175 19.3111C22.7982 19.2025 22.6375 19.1421 22.4613 19.1761C22.4501 19.1784 22.439 19.1809 22.4279 19.1839L19.8918 19.891L22.4993 19.5779V19.5766C22.5105 19.5751 22.5216 19.5731 22.5327 19.5709C22.7095 19.5368 22.8374 19.4204 22.8175 19.3111Z" fill="white"/>
<path d="M10.6904 21.6723H28.9874V18.125H10.6904V21.6723Z" fill="url(#paint1_linear_9_395918)"/>
<path d="M11.0367 21.1734V21.0507H11.3877V18.7158H11.0367V18.5904H12.4124V18.7158H12.0267V21.0468H12.2723C12.5719 21.0507 12.658 21.0275 12.7936 20.8989C12.9499 20.7524 13.0431 20.5891 13.1369 20.2985H13.2533L13.2147 21.1728L11.0367 21.1734ZM14.5846 21.0474H14.935V21.1734H13.6107V21.0507H13.9495V18.7158H13.6152V18.5904H14.9395V18.7158H14.5846V21.0474ZM16.2432 19.8839H16.438C16.8192 19.8839 16.9362 20.0118 16.9362 20.4174C16.9362 20.7382 16.9124 20.8501 16.8231 20.9433C16.7491 21.0204 16.6399 21.0474 16.3949 21.0474H16.2432V19.8839ZM16.2432 19.7527V18.7158H16.4489C16.7999 18.7158 16.8732 18.8129 16.8732 19.2789C16.8732 19.6711 16.7916 19.7527 16.3911 19.7527H16.2432ZM16.8308 19.8144C17.0571 19.7682 17.1265 19.7489 17.2519 19.6794C17.3395 19.6325 17.4132 19.5632 17.4653 19.4785C17.5173 19.3937 17.546 19.2967 17.5482 19.1973C17.5445 19.058 17.489 18.9251 17.3926 18.8244C17.2364 18.6612 17.0101 18.5904 16.6559 18.5904H15.2809V18.7158H15.6087V21.0474H15.2809V21.1728H16.6129C17.2634 21.1728 17.6414 20.9118 17.6414 20.4637C17.6435 20.3942 17.6318 20.325 17.6071 20.2601C17.5824 20.1951 17.5451 20.1356 17.4974 20.0851C17.3573 19.9347 17.2088 19.8723 16.8308 19.8144ZM19.0377 19.8035H19.1194C19.3842 19.8074 19.5436 19.6524 19.5874 19.3509H19.7159V20.4084H19.5906C19.552 20.0658 19.4196 19.9295 19.1194 19.9295H19.0377V21.0468H19.4781C19.7159 21.0507 19.8676 20.9844 20.0001 20.825C20.1248 20.6772 20.1949 20.5293 20.2456 20.3268H20.3781L20.3234 21.1734H18.0715V21.0507H18.3987V18.7158H18.0715V18.5904H20.2456L20.2804 19.3117H20.1518C20.0663 19.0565 19.9808 18.9247 19.8368 18.8244C19.7159 18.7434 19.6028 18.7158 19.3688 18.7158H19.0377V19.8035ZM21.7461 19.7328V18.7062H22.0289C22.3735 18.7062 22.4468 18.8 22.4468 19.2198C22.4468 19.6164 22.3459 19.7328 21.9929 19.7328H21.7461ZM21.7461 19.8582H21.8875C22.2167 19.8582 22.3066 19.9822 22.3266 20.4708C22.3381 20.7884 22.3844 20.9279 22.5284 21.0481C22.6377 21.1368 22.8087 21.1831 23.0029 21.1831C23.1739 21.1831 23.2831 21.1638 23.4233 21.0867V20.9433C23.3224 20.9973 23.2754 21.0095 23.2047 21.0095C23.0806 21.0095 23.0491 20.9587 23.0453 20.7498C23.0414 20.4091 23.0299 20.3352 22.9636 20.2111C22.8627 20.0214 22.6609 19.8935 22.3304 19.8112C22.8627 19.7405 23.1661 19.5155 23.1661 19.1812C23.1661 18.9395 22.9636 18.7222 22.657 18.6374C22.513 18.5988 22.342 18.5795 22.0874 18.5795H20.7889V18.7062H21.1167V21.0519H20.7889V21.1754H22.0874V21.0519H21.7467L21.7461 19.8582ZM25.9272 18.5904L25.9433 19.4371H25.8263C25.7755 19.0809 25.6392 18.8444 25.4444 18.755C25.3736 18.7283 25.2984 18.7152 25.2226 18.7164H25.1796V21.0468H25.5769V21.1734H24.1587V21.0507H24.5444V18.7158H24.4866C24.1703 18.7158 24.0031 18.9138 23.8823 19.4371H23.7691L23.7807 18.5904H25.9272ZM27.5119 18.5904V18.7158H27.2161L27.7954 19.8087L28.2473 18.9331L28.2859 18.8367C28.2964 18.8188 28.303 18.7988 28.3051 18.7782C28.3051 18.7312 28.2743 18.7158 28.1843 18.7158H28.0834V18.5904H28.7429V18.7158C28.5282 18.7197 28.5051 18.7312 28.4029 18.9331L27.8539 19.9707V21.0474H28.2627V21.1728H26.8272V21.0474H27.2239V20.0015L26.4846 18.7158H26.3001V18.5904H27.5112H27.5119ZM19.6066 9.97551L19.8927 9.97937L19.9956 9.71387L20.0804 9.9858L20.3659 10.0019L20.1325 10.1658L20.2051 10.4409L19.9763 10.2706L19.7359 10.4249L19.8284 10.1549L19.6066 9.97551ZM27.5222 13.4926L27.697 13.7176L27.9702 13.6334L27.8095 13.868L27.9747 14.1007L27.6996 14.0204L27.5286 14.2492L27.5209 13.9644L27.2496 13.8732L27.5189 13.7774L27.5222 13.4926ZM29.8679 22.2618L29.5832 22.2914L29.5124 22.5672L29.3961 22.3068L29.11 22.3254L29.3228 22.1345L29.2174 21.8697L29.4655 22.0124L29.6854 21.8304L29.6262 22.1094L29.8679 22.2618ZM23.899 28.6113L24.1851 28.6287L24.3008 28.3677L24.3721 28.6441L24.6569 28.6724L24.4159 28.8254L24.4763 29.1037L24.2551 28.9224L24.0077 29.0658L24.1124 28.8009L23.899 28.6113ZM15.2661 28.7971L15.5509 28.7701L15.6248 28.4949L15.7379 28.7566L16.024 28.7412L15.8093 28.9295L15.9121 29.195L15.6659 29.0504L15.4435 29.2297L15.5059 28.952L15.2661 28.7971ZM9.83008 22.1956L10.0859 22.067L10.0538 21.7842L10.255 21.9867L10.5154 21.869L10.3849 22.1217L10.5777 22.3319L10.2949 22.2869L10.1541 22.5344L10.1104 22.2528L9.83008 22.1956ZM11.8576 13.5543L12.1309 13.6385L12.3051 13.4135L12.3089 13.6977L12.5789 13.7928L12.3076 13.8847L12.2999 14.1695L12.1289 13.9413L11.8544 14.0217L12.019 13.7896L11.8576 13.5543Z" fill="white"/>
<path d="M19.2154 10.1975C19.2191 10.2863 19.1873 10.3729 19.1272 10.4383C19.0671 10.5038 18.9834 10.5427 18.8946 10.5465C16.2345 10.6648 14.1041 12.3851 13.1571 13.3269C13.0939 13.3897 13.0084 13.425 12.9193 13.425C12.8301 13.425 12.7446 13.3897 12.6814 13.3269C12.6502 13.2959 12.6255 13.259 12.6086 13.2184C12.5917 13.1778 12.583 13.1343 12.583 13.0903C12.583 13.0464 12.5917 13.0028 12.6086 12.9622C12.6255 12.9216 12.6502 12.8848 12.6814 12.8538C13.665 11.8747 15.9484 10.0078 18.8651 9.87732C18.9091 9.87525 18.9532 9.88189 18.9947 9.89687C19.0362 9.91184 19.0744 9.93486 19.107 9.96459C19.1396 9.99433 19.166 10.0302 19.1847 10.0702C19.2034 10.1101 19.2134 10.1534 19.2154 10.1975ZM11.8823 14.4358C12.0302 14.5477 12.0598 14.7573 11.9479 14.9051C10.3395 17.0169 10.3073 19.7465 10.4308 21.074C10.4348 21.1179 10.4302 21.1623 10.4171 21.2045C10.404 21.2467 10.3827 21.2859 10.3545 21.3198C10.2975 21.3884 10.2155 21.4316 10.1267 21.4398C10.0827 21.4438 10.0384 21.4392 9.99617 21.4261C9.95399 21.413 9.91479 21.3917 9.88083 21.3635C9.81223 21.3064 9.76909 21.2245 9.76091 21.1357C9.63234 19.7574 9.64841 16.8157 11.4111 14.5008C11.4653 14.43 11.5452 14.3836 11.6335 14.3715C11.7218 14.3595 11.8112 14.3828 11.8823 14.4365V14.4358ZM20.784 10.1975C20.775 10.382 20.919 10.5382 21.1048 10.5465C23.7649 10.6648 25.8953 12.3851 26.8423 13.3269C26.9055 13.3897 26.991 13.425 27.0801 13.425C27.1692 13.425 27.2547 13.3897 27.318 13.3269C27.3492 13.2959 27.3739 13.259 27.3908 13.2184C27.4077 13.1778 27.4164 13.1343 27.4164 13.0903C27.4164 13.0464 27.4077 13.0028 27.3908 12.9622C27.3739 12.9216 27.3492 12.8848 27.318 12.8538C26.3344 11.8747 24.051 10.0078 21.1343 9.87732C21.0903 9.87525 21.0462 9.88189 21.0047 9.89687C20.9632 9.91184 20.925 9.93486 20.8924 9.96459C20.8598 9.99433 20.8334 10.0302 20.8147 10.0702C20.796 10.1101 20.786 10.1534 20.784 10.1975ZM28.1171 14.4358C28.0818 14.4622 28.0521 14.4953 28.0297 14.5333C28.0073 14.5712 27.9926 14.6132 27.9865 14.6568C27.9804 14.7004 27.983 14.7448 27.9942 14.7875C28.0053 14.8301 28.0248 14.8701 28.0515 14.9051C29.6599 17.0169 29.692 19.7465 29.5686 21.074C29.5604 21.1628 29.5879 21.2512 29.6449 21.3198C29.7019 21.3884 29.7839 21.4316 29.8727 21.4398C29.9615 21.4479 30.05 21.4205 30.1186 21.3635C30.1872 21.3064 30.2303 21.2245 30.2385 21.1357C30.367 19.7574 30.351 16.8157 28.5883 14.5008C28.5341 14.43 28.4542 14.3836 28.3659 14.3715C28.2776 14.3595 28.1882 14.3828 28.1171 14.4365V14.4358ZM10.5786 22.7679C10.6651 22.7465 10.7566 22.7604 10.8329 22.8065C10.9092 22.8525 10.9641 22.927 10.9855 23.0135C11.6188 25.5875 13.7267 27.3335 14.8401 28.0753C14.8767 28.0997 14.908 28.1311 14.9324 28.1677C14.9568 28.2042 14.9738 28.2452 14.9823 28.2883C14.9909 28.3314 14.9908 28.3758 14.9822 28.4189C14.9736 28.462 14.9565 28.503 14.9321 28.5395C14.8822 28.6133 14.8051 28.6644 14.7176 28.6816C14.6302 28.6989 14.5395 28.6808 14.4653 28.6314C13.3095 27.8612 11.0261 25.9944 10.3318 23.1723C10.3212 23.1294 10.3193 23.085 10.326 23.0414C10.3327 22.9978 10.348 22.956 10.3709 22.9184C10.3939 22.8807 10.424 22.848 10.4597 22.8221C10.4953 22.7961 10.5357 22.7781 10.5786 22.7679ZM16.2814 29.2395C16.3164 29.1575 16.3825 29.0928 16.4651 29.0594C16.5478 29.026 16.6403 29.0268 16.7224 29.0615C19.1756 30.0926 21.8421 29.4517 23.104 29.0062C23.1455 28.9914 23.1895 28.9849 23.2334 28.9872C23.2774 28.9894 23.3204 29.0002 23.3602 29.0191C23.4 29.0379 23.4356 29.0645 23.4651 29.0971C23.4946 29.1297 23.5174 29.1679 23.5322 29.2093C23.547 29.2508 23.5534 29.2947 23.5512 29.3387C23.549 29.3826 23.5382 29.4257 23.5193 29.4655C23.5004 29.5052 23.4739 29.5409 23.4413 29.5704C23.4086 29.5999 23.3705 29.6227 23.3291 29.6375C22.0176 30.1003 19.1498 30.8088 16.4608 29.678C16.4201 29.661 16.3833 29.6362 16.3523 29.605C16.3212 29.5738 16.2967 29.5367 16.28 29.496C16.2634 29.4553 16.2549 29.4116 16.2551 29.3676C16.2554 29.3236 16.2643 29.2801 16.2814 29.2395ZM29.4581 22.7679C29.3715 22.7465 29.2801 22.7604 29.2038 22.8065C29.1275 22.8525 29.0726 22.927 29.0511 23.0135C28.4186 25.5875 26.31 27.3335 25.1972 28.0753C25.1606 28.0997 25.1292 28.131 25.1047 28.1676C25.0802 28.2041 25.0632 28.2451 25.0546 28.2882C25.046 28.3313 25.046 28.3757 25.0546 28.4188C25.0632 28.4619 25.0802 28.5029 25.1046 28.5395C25.2081 28.6938 25.417 28.7343 25.5713 28.6314C26.7272 27.8612 29.0106 25.9944 29.7049 23.1723C29.7154 23.1294 29.7174 23.085 29.7107 23.0414C29.704 22.9978 29.6887 22.956 29.6657 22.9184C29.6428 22.8807 29.6126 22.848 29.577 22.8221C29.5413 22.7961 29.5009 22.7781 29.4581 22.7679Z" fill="white"/>
</g>
<circle cx="20" cy="20" r="19.5" stroke="black" stroke-opacity="0.05"/>
<defs>
<linearGradient id="paint0_linear_9_395918" x1="17.8699" y1="21.9888" x2="24.4039" y2="14.3883" gradientUnits="userSpaceOnUse">
<stop stop-color="#1A1E21"/>
<stop offset="1" stop-color="#06060A"/>
</linearGradient>
<linearGradient id="paint1_linear_9_395918" x1="14.0944" y1="21.0571" x2="15.3061" y2="13.8776" gradientUnits="userSpaceOnUse">
<stop stop-color="#1A1E21"/>
<stop offset="1" stop-color="#06060A"/>
</linearGradient>
<clipPath id="clip0_9_395918">
<rect width="22" height="22" fill="white" transform="translate(9 9)"/>
</clipPath>
</defs>
</svg>
