<svg width="40" height="40" viewBox="0 0 40 40" fill="none" xmlns="http://www.w3.org/2000/svg">
<circle cx="20" cy="20" r="20" fill="#F6F8FA"/>
<g clip-path="url(#clip0_9_411577)">
<path d="M4.81457 25.7861C6.55414 24.5769 11.4334 21.9058 16.9061 21.9058H17.5746C12.9499 22.3918 8.8935 24.3493 7.08321 25.7861H7.96071C9.67585 24.755 14.451 22.4548 19.842 22.3983C15.0514 22.9396 11.9394 24.6708 10.5129 25.7861H11.4887C12.966 25.0166 15.7245 23.3626 20.6571 22.9376C19.8124 23.0829 19.0886 23.2713 18.4599 23.4815C17.1259 23.927 16.2741 24.4413 15.5117 24.9009C15.4796 24.9202 15.2514 25.0732 15.0231 25.2268C14.7917 25.3811 14.3526 25.7861 14.3211 25.8054L15.3555 25.7861C15.3555 25.7861 15.756 25.4782 15.8216 25.439C16.5711 24.9871 17.3824 24.4972 18.6501 24.0736C19.599 23.7566 20.787 23.4886 22.3247 23.3503C22.1858 23.3918 22.0476 23.4355 21.9101 23.4815C20.5768 23.927 19.6755 24.4708 18.9626 24.9009C18.9298 24.9208 18.7106 25.0751 18.492 25.2288C18.2734 25.3831 17.9713 25.7675 17.9391 25.7861H18.8584C19.0018 25.6183 19.2069 25.4776 19.2724 25.439C19.9828 25.0102 20.8326 24.4972 22.101 24.0736C22.8256 23.835 23.5681 23.6544 24.3214 23.5336C23.0711 23.9688 22.2116 24.4876 21.5263 24.9009C21.4935 24.9208 21.2891 25.0764 21.0866 25.2307C20.8854 25.3837 20.6359 25.7128 20.5871 25.7861H21.4395C21.552 25.6267 21.7706 25.4782 21.8355 25.439C22.5459 25.0108 23.3964 24.4972 24.6641 24.0736C26.0507 23.6107 27.9459 23.2147 30.6934 23.2147H33.8666L34.5531 21.2861H16.9067C11.2791 21.2861 5.85278 23.9932 3.92871 25.7861H4.81457Z" fill="#0B79BF"/>
<path d="M12.4258 18.2795H10.9665L10.6129 19.9978H9.83636L10.6264 16.1433H11.4011L11.097 17.6373H12.5563L12.8636 16.1433H13.6389L12.8507 19.9978H12.0735L12.4258 18.2795ZM13.6858 19.9978L14.4733 16.1433H17.2716L17.1399 16.7861H15.1194L14.9394 17.6688H16.893L16.7619 18.3116H14.8076L14.571 19.355H16.767L16.6326 19.9978H13.6858ZM20.2712 19.9978H19.548L18.5291 17.4136L17.9987 19.9978H17.2755L18.063 16.1433H18.7888L19.8109 18.7256L20.3381 16.1433H21.0594L20.2712 19.9978ZM21.0838 19.9978L21.8739 16.1433H22.6485L21.861 19.9978H21.0838ZM22.6369 19.9978L23.4244 16.1433H26.2228L26.0916 16.7861H24.0705L23.8905 17.6688H25.8448L25.713 18.3116H23.7587L23.5228 19.355H25.7181L25.5844 19.9978H22.6369ZM26.9987 19.9978H26.2209L27.0122 16.1433H28.6881C28.9761 16.1433 29.2005 16.1831 29.3599 16.2442C29.5206 16.3033 29.6511 16.4139 29.7489 16.5746C29.8479 16.7353 29.898 16.9308 29.898 17.1596C29.898 17.4868 29.8016 17.7568 29.6094 17.9696C29.4171 18.1818 29.1266 18.3129 28.737 18.3637C28.8366 18.4543 28.9299 18.5746 29.0173 18.7231C29.1909 19.0239 29.3837 19.4488 29.5965 19.9978H28.7621C28.6952 19.7812 28.5641 19.4424 28.368 18.9821C28.2619 18.7346 28.1488 18.5675 28.0286 18.482C27.9546 18.4306 27.8261 18.4055 27.6429 18.4055H27.3259L26.9987 19.9978ZM27.4442 17.8288H27.8556C28.2735 17.8288 28.5493 17.8031 28.6849 17.7523C28.8225 17.7016 28.9292 17.6218 29.0064 17.5138C29.0802 17.4155 29.1207 17.2961 29.1221 17.1731C29.1253 17.1104 29.1115 17.048 29.082 16.9925C29.0526 16.9371 29.0087 16.8906 28.9549 16.8581C28.8868 16.8157 28.7383 16.7861 28.5101 16.7861H27.6551L27.4442 17.8288ZM30.0684 19.9978L30.8559 16.1433H33.6542L33.5231 16.7861H31.5019L31.3219 17.6688H33.2762L33.1444 18.3116H31.1901L30.9542 19.355H33.1496L33.0159 19.9978H30.0684ZM8.85536 18.7147H9.63771C9.51267 19.0929 9.27236 19.4224 8.9505 19.6571C8.64514 19.8841 8.28707 19.9978 7.87693 19.9978C7.41536 19.9978 7.05407 19.8564 6.79307 19.5736C6.534 19.2894 6.40479 18.8793 6.40479 18.3399C6.40479 17.9028 6.49157 17.5029 6.6645 17.141C6.84 16.7778 7.08171 16.4994 7.39093 16.3072C7.6995 16.1143 8.03571 16.0186 8.40021 16.0186C8.80779 16.0186 9.13821 16.1304 9.39021 16.3541C9.64286 16.5766 9.77593 17.0426 9.82093 17.4277H9.0765C9.00064 17.0131 8.85021 16.7006 8.38414 16.7006C8.16943 16.7006 7.96886 16.7668 7.78179 16.8999C7.59664 17.033 7.4475 17.2406 7.33628 17.5241C7.22507 17.8057 7.16914 18.0873 7.16914 18.3688C7.16914 18.6768 7.24114 18.9146 7.38514 19.0824C7.53107 19.2502 7.71236 19.3344 7.92836 19.3344C8.27871 19.3344 8.74607 19.0593 8.85536 18.7147Z" fill="#08090D"/>
</g>
<circle cx="20" cy="20" r="19.5" stroke="black" stroke-opacity="0.05"/>
<defs>
<clipPath id="clip0_9_411577">
<rect width="32" height="10" fill="white" transform="translate(3 16)"/>
</clipPath>
</defs>
</svg>
