<svg width="40" height="40" viewBox="0 0 40 40" fill="none" xmlns="http://www.w3.org/2000/svg">
<circle cx="20" cy="20" r="20" fill="#F6F8FA"/>
<path d="M22.6919 14.2075L23.8081 16.8991L26.4997 18.0141L29.1925 11.5146L22.6919 14.2075Z" fill="#6EBE45"/>
<path d="M10.8076 11.5146L13.5004 18.0141L16.1921 16.8991L17.307 14.2075L10.8076 11.5146Z" fill="#F7A81B"/>
<path d="M29.1921 19.1296L26.4992 18.0146L25.3843 20.7075L26.4992 23.3991L29.1921 22.2841L32.9998 20.7075L29.1921 19.1296Z" fill="#F7E802"/>
<path d="M27.6158 26.0915L26.5009 23.3987L25.3847 20.707L23.8081 24.5148L22.6919 27.2064L25.3847 28.3226L29.1925 29.9004L27.6146 26.0927" fill="#53AEE1"/>
<path d="M13.5006 18.0146L10.8078 19.1296L7 20.7075L10.8078 22.2841L13.5006 23.3991L14.6156 20.7075L13.5006 18.0146Z" fill="#F7E802"/>
<path d="M13.5005 18.0144L14.6155 20.7072L16.1921 16.8994L13.5005 18.0144Z" fill="#FACC11"/>
<path d="M23.8076 16.8994L25.3843 20.7072L26.4992 18.0144L23.8076 16.8994Z" fill="#B8D433"/>
<path d="M16.1921 24.5148L14.6154 20.707L13.5004 23.3987L12.3843 26.0915L10.8076 29.8993L14.6154 28.3214L17.307 27.2064L16.1921 24.5148Z" fill="#53AEE1"/>
<path d="M17.3073 27.2064L20.0002 20.707L22.6918 27.2064L23.8079 24.5148L25.3846 20.707L23.8079 16.8993L22.6918 14.2076L20.0002 7.70703L17.3073 14.2076L16.1924 16.8993L14.6157 20.707L16.1924 24.5148L17.3073 27.2064Z" fill="#4185C6"/>
<circle cx="20" cy="20" r="19.5" stroke="black" stroke-opacity="0.05"/>
</svg>
