<svg width="40" height="40" viewBox="0 0 40 40" fill="none" xmlns="http://www.w3.org/2000/svg">
<circle cx="20" cy="20" r="20" fill="#F6F8FA"/>
<g clip-path="url(#clip0_9_392391)">
<path d="M20.0939 21.3852H20.1192L13.7302 25.065L13.266 25.2929L13.0803 25.352L12.9284 25.3689L12.7343 25.3435L12.5655 25.2845L12.4051 25.1916L12.2532 25.065L12.1097 24.8962L12.0422 24.6937L12.0169 24.508V17.756L12 13.266L12.0253 12.7765L12.0591 12.5908L12.1097 12.4558L12.2532 12.2532L12.3967 12.1435L12.5655 12.0675L12.768 12.0169L13.0044 12H19.8154L19.9251 12.0253L20.0179 12.0844L20.077 12.1772L20.1023 12.287V21.3937L20.0939 21.3852Z" fill="#74DD48"/>
<path d="M21.132 30.0359H20.9379L20.7606 30.019L20.6003 29.9684L20.4652 29.8924L20.3555 29.7996L20.2627 29.6814L20.1952 29.5464L20.1445 29.3691L20.1108 29.1497V28.8965V21.3849H20.0854L26.9809 17.3928L27.3607 17.1987L27.5042 17.1565L27.6139 17.1396L27.808 17.1734L27.9684 17.2578L28.0781 17.3591L28.154 17.4857L28.2047 17.6292L28.2215 17.7895V24.474L28.2047 24.9044L28.1372 25.3011L28.019 25.6555L27.8502 25.9763L27.6898 26.1873L27.5042 26.3814L27.2847 26.5586L27.0315 26.719L21.4696 29.9262L21.3346 29.9852L21.1404 30.0274L21.132 30.0359Z" fill="#058348"/>
<path d="M20.1107 21.377V28.8885V29.1417L20.1445 29.3611L20.1951 29.5384L20.2626 29.6734L20.3555 29.7916L20.4652 29.8844L20.6002 29.9604L20.7606 30.011L20.9378 30.0363H21.1319L20.8619 30.1038L20.5918 30.1376H20.2373L19.8744 30.0616L19.5115 29.9351L19.1486 29.7494L13.1478 26.289L12.8355 26.078L12.5738 25.8248L12.4219 25.6222L12.2869 25.4028L12.1772 25.1665L12.0928 24.9048L12.2363 25.0736L12.3882 25.2002L12.5485 25.2931L12.7173 25.3522L12.9114 25.3775L13.0634 25.3606L13.249 25.3015L13.7132 25.0736L20.1023 21.3854L20.1107 21.377Z" fill="#002D05"/>
</g>
<circle cx="20" cy="20" r="19.5" stroke="black" stroke-opacity="0.05"/>
<defs>
<clipPath id="clip0_9_392391">
<rect width="16.23" height="18.1374" fill="white" transform="translate(12 12)"/>
</clipPath>
</defs>
</svg>
