<svg width="40" height="40" viewBox="0 0 40 40" fill="none" xmlns="http://www.w3.org/2000/svg">
<circle cx="20" cy="20" r="20" fill="#01B3EB"/>
<path fill-rule="evenodd" clip-rule="evenodd" d="M8.45508 13.2317H10.3869V24.2227H8.45508V13.2317ZM19.5044 20.3268C19.5044 22.7942 17.5741 24.4391 15.3492 24.4391C13.0046 24.4391 11.1403 22.7635 11.1403 20.333C11.1403 18.1541 12.8527 16.2499 15.3293 16.2499C17.904 16.2499 19.5044 18.2523 19.5044 20.3268ZM13.1028 20.3437C13.1028 21.4838 13.9667 22.5732 15.3415 22.5732C16.5046 22.5732 17.5557 21.6311 17.5557 20.3391C17.5557 19.1208 16.6028 18.1127 15.3063 18.1127C14.0787 18.1127 13.1028 19.0916 13.1028 20.3437ZM25.6943 16.4785H28.4378V18.0452L27.9023 18.2293C27.9023 18.2293 28.5314 18.8738 28.5314 20.3268C28.5314 22.7942 26.6011 24.4391 24.3762 24.4391C22.0316 24.4391 20.1673 22.7635 20.1673 20.333C20.1673 18.1541 21.8797 16.2499 24.3563 16.2499C25.1004 16.2499 25.6943 16.4785 25.6943 16.4785ZM22.1298 20.3437C22.1298 21.4838 22.9937 22.5732 24.3685 22.5732C25.5316 22.5732 26.5827 21.6311 26.5827 20.3391C26.5827 19.1208 25.6298 18.1127 24.3332 18.1127C23.1057 18.1127 22.1298 19.0916 22.1298 20.3437ZM28.5176 24.7628C28.5176 27.2302 26.5873 28.869 24.3624 28.869C22.0178 28.869 20.1535 27.1934 20.1535 24.7628H22.1129C22.1129 25.9029 22.9814 27.0031 24.3547 27.0031C25.5178 27.0031 26.5689 26.0533 26.5689 24.7628H28.5176ZM29.3048 16.4785H31.2366V24.2243H29.3048V16.4785ZM30.2668 15.5579C29.5595 15.5579 28.9887 14.9855 28.9887 14.2797C28.9887 13.5723 29.5595 13 30.2668 13C30.9742 13 31.545 13.5723 31.545 14.2797C31.545 14.9855 30.9742 15.5579 30.2668 15.5579Z" fill="white"/>
<circle cx="20" cy="20" r="19.5" stroke="black" stroke-opacity="0.05"/>
</svg>
