<svg width="40" height="40" viewBox="0 0 40 40" fill="none" xmlns="http://www.w3.org/2000/svg">
<circle cx="20" cy="20" r="20" fill="#F6F8FA"/>
<path d="M10.7643 21.0978H11.7184C11.783 21.0978 11.8164 21.13 11.8188 21.1946C11.8434 21.8019 11.9226 23.0694 11.479 23.506C11.3687 23.614 11.2202 23.6803 11.0336 23.7049C10.0707 23.8352 9.90171 23.1997 9.90171 22.4321C9.90289 20.1835 9.90817 18.1409 9.91756 16.3042C9.91932 15.8113 10.2327 15.2832 10.7977 15.3255C11.81 15.4029 11.8117 16.607 11.8223 17.4238C11.8223 17.4966 11.8593 17.533 11.9332 17.533H13.7094C13.7763 17.533 13.8115 17.4995 13.8151 17.4327C13.9172 15.718 13.4665 14.1126 11.5987 13.6285C10.918 13.4524 10.1916 13.5064 9.41937 13.7904C9.32196 13.8268 9.29145 13.7963 9.32783 13.6989L9.54964 13.1091C9.57663 13.0364 9.62885 13 9.70631 13H17.3904C17.4502 13 17.4696 13.0282 17.4485 13.0845L14.0069 22.1417C13.9436 22.3083 13.9119 22.3025 13.9119 22.1241L13.9136 19.531C13.9136 19.4606 13.8778 19.4254 13.8062 19.4254H10.7643C10.6258 19.4254 10.5566 19.4947 10.5566 19.6331L10.5548 20.89C10.5548 21.0285 10.6246 21.0978 10.7643 21.0978Z" fill="#623493"/>
<path d="M22.7152 17.5471C22.7451 16.0437 22.5128 14.3185 20.858 13.7323C19.891 13.3908 18.9157 13.4706 17.9322 13.9717C17.856 14.0116 17.8325 13.9911 17.8618 13.9101L18.1646 13.0845C18.1857 13.0282 18.2256 13 18.2843 13H25.9719C26.0459 13 26.0699 13.034 26.0441 13.1021L22.7821 21.6699C22.734 21.7966 22.7099 21.792 22.7099 21.6558L22.7117 21.2245C22.7117 21.1694 22.6841 21.1418 22.629 21.1418H20.7049C20.6922 21.1418 20.6797 21.1443 20.6681 21.1492C20.6564 21.1541 20.6459 21.1612 20.637 21.1702C20.6282 21.1793 20.6212 21.1899 20.6165 21.2017C20.6118 21.2134 20.6096 21.226 20.6098 21.2386C20.6204 21.762 20.6198 22.2755 20.608 22.7789C20.601 23.1205 20.4866 23.4972 20.1327 23.631C19.4444 23.8897 18.7191 23.6028 18.7156 22.7877C18.7039 20.6905 18.7021 18.5364 18.7103 16.3254C18.7121 15.8765 18.9427 15.4628 19.4163 15.3554C20.1363 15.1917 20.5587 15.8201 20.601 16.4732C20.6233 16.823 20.6262 17.1768 20.6098 17.5348C20.6063 17.6216 20.6474 17.665 20.733 17.665H22.5955C22.6741 17.665 22.714 17.6257 22.7152 17.5471Z" fill="#623493"/>
<path d="M29.5035 20.0838L29.5053 18.459C29.5053 18.3991 29.4747 18.3692 29.4137 18.3692H27.0337C27.0103 18.3692 26.9879 18.3597 26.9714 18.3429C26.9549 18.326 26.9457 18.3032 26.9457 18.2794L26.9439 15.5983C26.9439 15.5865 26.9462 15.5749 26.9507 15.564C26.9552 15.5531 26.9619 15.5432 26.9702 15.5348C26.9785 15.5265 26.9884 15.5199 26.9993 15.5154C27.0102 15.5109 27.0219 15.5086 27.0337 15.5086H30.22C30.2358 15.5086 30.2511 15.5022 30.2623 15.491C30.2735 15.4798 30.2798 15.4646 30.2798 15.4487V13.7429C30.2798 13.6877 30.2528 13.6601 30.1988 13.6601H26.6041C26.5748 13.6601 26.5654 13.6466 26.576 13.6197L26.7749 13.0528C26.7807 13.0373 26.7908 13.0238 26.8041 13.0144C26.8173 13.0049 26.8329 12.9999 26.8488 13H34.6174C34.6249 13 34.6324 13.0019 34.639 13.0054C34.6457 13.009 34.6513 13.0141 34.6555 13.0204C34.6597 13.0267 34.6622 13.0339 34.663 13.0414C34.6637 13.0489 34.6626 13.0564 34.6597 13.0634L30.565 23.8105C30.5333 23.8927 30.5157 23.8897 30.5122 23.8017L30.5069 23.6679C30.5046 23.5975 30.4682 23.5623 30.3978 23.5623H26.9897C26.9591 23.5623 26.9439 23.5471 26.9439 23.5165L26.9457 20.3074C26.9457 20.2475 26.975 20.2176 27.0337 20.2176H29.3697C29.4589 20.2176 29.5035 20.173 29.5035 20.0838Z" fill="#623493"/>
<path d="M16.5611 17.3114C16.5987 17.2105 16.6175 17.214 16.6175 17.322C16.6081 18.9357 16.6028 20.5318 16.6016 22.1102C16.5999 23.0028 16.702 23.934 17.3146 24.6082C18.0627 25.4268 19.1524 25.6204 20.2298 25.5254C20.6523 25.4884 20.992 25.2913 21.3617 25.124C21.4438 25.0865 21.4691 25.1099 21.4374 25.1944L21.1593 25.9444C21.1506 25.9685 21.1348 25.9895 21.114 26.0043C21.0932 26.0191 21.0684 26.027 21.0431 26.0271H13.3555C13.2827 26.0271 13.2592 25.9931 13.285 25.925L16.5611 17.3114Z" fill="#D1D3D3"/>
<path d="M4.66611 25.9566L7.76087 17.8359C7.79842 17.7362 7.81661 17.7397 7.81544 17.8465C7.80605 19.2959 7.8037 20.7758 7.8084 22.2862C7.81368 24.1892 8.66394 25.6697 10.8063 25.5429C11.4612 25.5042 11.9975 25.2166 12.4153 24.6803C12.4728 24.6064 12.5204 24.6122 12.5579 24.6979L12.7639 25.1715C12.7944 25.2407 12.7967 25.3105 12.7709 25.381L12.572 25.9196C12.5462 25.9912 12.4951 26.027 12.4188 26.027H4.7154C4.70699 26.0269 4.69873 26.0248 4.69129 26.0209C4.68385 26.017 4.67745 26.0114 4.67263 26.0045C4.66781 25.9976 4.6647 25.9897 4.66357 25.9813C4.66243 25.973 4.6633 25.9645 4.66611 25.9566Z" fill="#D1D3D3"/>
<path d="M24.8576 25.2677C24.8576 25.2939 24.8679 25.319 24.8864 25.3374C24.9049 25.3559 24.93 25.3663 24.9561 25.3663H29.9451C29.9638 25.3663 29.9697 25.3757 29.9627 25.3945L29.7444 25.9913C29.7408 26.0015 29.7341 26.0103 29.7253 26.0166C29.7165 26.0229 29.7059 26.0264 29.6951 26.0265H21.9582C21.8843 26.0265 21.8608 25.9918 21.8878 25.9226L24.8012 18.2755C24.8388 18.1769 24.8576 18.1804 24.8576 18.2861V25.2677Z" fill="#D1D3D3"/>
<circle cx="20" cy="20" r="19.5" stroke="black" stroke-opacity="0.05"/>
</svg>
