<svg width="40" height="40" viewBox="0 0 40 40" fill="none" xmlns="http://www.w3.org/2000/svg">
<circle cx="20" cy="20" r="20" fill="#FFF200"/>
<path d="M16.0037 19.9725C16.0037 20.8404 15.6589 21.6728 15.0452 22.2864C14.4315 22.9001 13.5992 23.2449 12.7313 23.2449C11.8635 23.2449 11.0311 22.9001 10.4174 22.2864C9.80375 21.6728 9.45898 20.8404 9.45898 19.9725C9.45898 19.1047 9.80375 18.2723 10.4174 17.6586C11.0311 17.045 11.8635 16.7002 12.7313 16.7002C13.5992 16.7002 14.4315 17.045 15.0452 17.6586C15.6589 18.2723 16.0037 19.1047 16.0037 19.9725ZM14.6984 19.967C14.6984 19.4453 14.4912 18.9449 14.1223 18.576C13.7534 18.2071 13.253 17.9999 12.7313 17.9999C12.2096 17.9999 11.7093 18.2071 11.3404 18.576C10.9715 18.9449 10.7642 19.4453 10.7642 19.967C10.7642 20.4887 10.9715 20.989 11.3404 21.3579C11.7093 21.7268 12.2096 21.9341 12.7313 21.9341C13.253 21.9341 13.7534 21.7268 14.1223 21.3579C14.4912 20.989 14.6984 20.4887 14.6984 19.967Z" fill="black"/>
<path d="M32.4705 18.5817C32.4543 18.9922 32.843 19.1397 33.1759 19.2352C33.7819 19.4094 34.4108 19.5334 35.0073 19.7792C35.6518 20.0445 36.0266 20.6242 35.9987 21.3212C35.9512 22.4891 35.0207 23.0973 33.9433 23.2135C32.9748 23.3185 32.0265 23.1437 31.1591 22.6656C31.1338 22.6518 31.123 22.6306 31.1267 22.6019L31.2803 21.3162C31.2805 21.3141 31.2813 21.3122 31.2826 21.3105C31.2839 21.3088 31.2856 21.3075 31.2875 21.3067C31.2894 21.3059 31.2916 21.3056 31.2936 21.3059C31.2957 21.3062 31.2977 21.3071 31.2993 21.3084C32.0455 21.8919 32.8851 22.1378 33.8182 22.0462C33.9887 22.0294 34.1505 21.9764 34.3036 21.887C34.6308 21.696 34.723 21.2632 34.413 21.0074C34.2954 20.9106 34.1695 20.8405 34.0355 20.7974C33.3881 20.5907 32.6219 20.46 31.9974 20.1746C31.5043 19.949 31.1351 19.4753 31.0859 18.9202C31.0212 18.1889 31.2632 17.6203 31.812 17.2145C32.4973 16.7079 33.4652 16.6453 34.3231 16.7671C34.8005 16.8349 35.2633 16.9959 35.7116 17.2502C35.7328 17.2625 35.7389 17.28 35.73 17.3027L35.3161 18.3572C35.3068 18.381 35.2914 18.3862 35.2698 18.3728C34.618 17.969 33.8232 17.7992 33.1139 17.9394C32.7905 18.0037 32.4845 18.2299 32.4705 18.5817Z" fill="black"/>
<path d="M8.78369 21.8361L8.62563 23.1307C8.6251 23.135 8.62306 23.1389 8.61988 23.1418C8.6167 23.1446 8.6126 23.1463 8.60832 23.1464H4.01787C4.01313 23.1464 4.00859 23.1445 4.00523 23.1411C4.00188 23.1378 4 23.1332 4 23.1285V16.8251C4 16.8203 4.00188 16.8158 4.00523 16.8124C4.00859 16.8091 4.01313 16.8072 4.01787 16.8072L5.36613 16.8066C5.37087 16.8066 5.37542 16.8085 5.37877 16.8119C5.38212 16.8152 5.384 16.8198 5.384 16.8245L5.38345 21.797C5.38345 21.8017 5.38533 21.8063 5.38868 21.8096C5.39203 21.813 5.39658 21.8149 5.40132 21.8149L8.76582 21.816C8.76837 21.816 8.77089 21.8165 8.77322 21.8175C8.77555 21.8186 8.77763 21.8201 8.77932 21.822C8.78101 21.8239 8.78228 21.8261 8.78303 21.8286C8.78379 21.831 8.78401 21.8336 8.78369 21.8361Z" fill="black"/>
<path d="M18.9239 18.1383L16.916 18.1388C16.9134 18.1388 16.9108 18.1382 16.9084 18.137C16.906 18.1359 16.9038 18.1343 16.9021 18.1323C16.9004 18.1303 16.8991 18.128 16.8983 18.1254C16.8975 18.1229 16.8973 18.1202 16.8976 18.1176L17.0557 16.8224C17.0562 16.8178 17.0584 16.8135 17.0619 16.8104C17.0655 16.8073 17.07 16.8056 17.0746 16.8057L22.1884 16.8079C22.1931 16.8079 22.1976 16.8096 22.2011 16.8126C22.2046 16.8157 22.2069 16.82 22.2074 16.8247L22.3644 18.1199C22.3647 18.1225 22.3644 18.1251 22.3636 18.1277C22.3629 18.1302 22.3616 18.1325 22.3598 18.1345C22.3581 18.1365 22.356 18.1382 22.3536 18.1393C22.3512 18.1404 22.3486 18.141 22.3459 18.1411L20.3381 18.1388C20.3356 18.1388 20.3331 18.1393 20.3308 18.1403C20.3285 18.1412 20.3264 18.1426 20.3246 18.1444C20.3229 18.1462 20.3215 18.1483 20.3205 18.1506C20.3196 18.1529 20.3191 18.1553 20.3191 18.1578L20.3174 23.1281C20.3174 23.1331 20.3154 23.1379 20.3118 23.1415C20.3083 23.1451 20.3034 23.1471 20.2984 23.1471L18.9596 23.1465C18.9546 23.1465 18.9498 23.1445 18.9462 23.1409C18.9426 23.1374 18.9406 23.1326 18.9406 23.1275L18.9429 18.1573C18.9429 18.1522 18.9409 18.1474 18.9373 18.1438C18.9338 18.1403 18.9289 18.1383 18.9239 18.1383Z" fill="black"/>
<path d="M25.5773 21.4194C26.3296 22.1913 27.6315 21.94 27.9979 20.8978C28.0515 20.7455 28.0781 20.5405 28.0777 20.2828C28.0751 19.0813 28.0742 17.9289 28.0749 16.8256C28.0749 16.8207 28.0769 16.8161 28.0803 16.8126C28.0838 16.8091 28.0885 16.8072 28.0934 16.8072L29.4299 16.8066C29.4414 16.8066 29.4472 16.8126 29.4472 16.8245C29.4513 18.1162 29.4493 19.3669 29.4411 20.5766C29.4385 20.9296 29.3389 21.3025 29.1423 21.6953C28.6971 22.5839 27.7901 23.1916 26.7892 23.2385C25.4142 23.3027 24.2324 22.4303 23.8911 21.1095C23.83 20.8745 23.8006 20.5507 23.8029 20.1382C23.8096 18.9772 23.8099 17.8773 23.804 16.8385C23.804 16.8176 23.8144 16.8072 23.8352 16.8072H25.1438C25.1669 16.8072 25.1785 16.8189 25.1785 16.8424C25.1815 18.0551 25.1807 19.2161 25.1762 20.3253C25.1746 20.747 25.2846 21.1189 25.5773 21.4194Z" fill="black"/>
<circle cx="20" cy="20" r="19.5" stroke="black" stroke-opacity="0.05"/>
</svg>
