<svg width="40" height="40" viewBox="0 0 40 40" fill="none" xmlns="http://www.w3.org/2000/svg">
<circle cx="20" cy="20" r="20" fill="#004990"/>
<path d="M20.249 12L12.3733 15.3736H7.46076V16.7498H5V26H35.4945V16.7498H33.035V15.3736H28.1242L20.249 12Z" fill="white"/>
<path d="M27.521 17.834L27.5206 19.3294L28.4881 19.3311L28.6897 17.8344L27.521 17.834Z" fill="#004990"/>
<path d="M32.7522 19.1292C32.8145 19.1292 32.8709 19.1245 32.8709 19.0484C32.8709 18.9886 32.8154 18.9775 32.7641 18.9775H32.6633V19.1292H32.7522ZM32.6633 19.4034H32.5894V18.9147H32.7756C32.8905 18.9147 32.9478 18.9575 32.9478 19.054C32.9478 19.1416 32.8935 19.1796 32.8218 19.1886L32.9606 19.4034H32.8777L32.7487 19.1915H32.6633V19.4034ZM32.753 19.5127C32.9448 19.5127 33.096 19.3628 33.096 19.1582C33.096 18.9575 32.9448 18.8063 32.753 18.8063C32.5587 18.8063 32.4074 18.9575 32.4074 19.1582C32.4074 19.3628 32.5587 19.5127 32.753 19.5127ZM32.322 19.1582C32.322 18.9148 32.5194 18.7354 32.753 18.7354C32.9841 18.7354 33.1819 18.9148 33.1819 19.1582C33.1819 19.4034 32.9841 19.5837 32.753 19.5837C32.5194 19.5837 32.322 19.4034 32.322 19.1582Z" fill="#004990"/>
<path d="M9.86434 22.9302V17.834H8.47058V24.1437H12.021V22.9302H9.86434Z" fill="#004990"/>
<path d="M23.8954 24.1438H27.213V22.9286H25.296V22.1367H27.213V20.9667H25.296V20.1705H27.213V18.9502H23.8954V18.9562V24.1438Z" fill="#004990"/>
<path d="M15.2067 20.1705H13.9808V22.9235H15.2067V20.1705ZM16.603 23.4805C16.603 23.8465 16.3062 24.1438 15.9397 24.1438H13.2474C12.8813 24.1438 12.5845 23.8465 12.5845 23.4805V19.6135C12.5845 19.2471 12.8813 18.9502 13.2474 18.9502H15.9397C16.3062 18.9502 16.603 19.2471 16.603 19.6135V23.4805Z" fill="#004990"/>
<path d="M21.702 18.9502V22.9299H20.8605V18.9502H19.6346V22.9299H18.7932V18.9502H17.3969V23.48C17.3969 23.8465 17.6937 24.1438 18.0602 24.1438H19.7107C19.9887 24.1438 20.2476 23.9516 20.2476 23.6735C20.2476 23.9516 20.5064 24.1438 20.7845 24.1438H22.4354C22.8015 24.1438 23.0983 23.8465 23.0983 23.48V18.9502H21.702Z" fill="#004990"/>
<path d="M32.1072 22.1806L32.1076 22.1809L32.099 22.163C32.0935 22.1519 32.0879 22.1412 32.0824 22.1301L32.0738 22.113C31.853 21.6701 31.3584 21.3002 30.5622 20.9815L30.534 20.9709C30.3764 20.9089 29.8967 20.7214 29.8433 20.4164C29.8288 20.331 29.8634 20.1969 29.9586 20.1153C30.059 20.0132 30.2128 19.9607 30.4157 19.9607C30.7403 19.9607 31.1093 20.0935 31.3007 20.1725C31.7035 20.3395 32.0567 20.4886 32.0602 20.4908L32.0952 20.5053V19.3716L32.0837 19.3644C32.076 19.3592 31.3144 18.8791 30.5451 18.7689C30.4567 18.7612 30.3691 18.7578 30.285 18.7578C29.5768 18.7578 29.0403 19.015 28.6909 19.5224C28.3974 19.9393 28.365 20.5992 28.6144 21.0917C28.9352 21.6483 29.4495 21.8807 29.9471 22.1058C30.1521 22.198 30.3644 22.2945 30.563 22.4124L30.5651 22.4138C30.7898 22.5488 30.9042 22.7551 30.8568 22.9383C30.8077 23.1284 30.5903 23.2561 30.3156 23.2561C30.2781 23.2561 30.24 23.2541 30.2029 23.2489L30.1896 23.2472C29.6612 23.1737 28.59 22.7748 28.5793 22.7705L28.5451 22.7577V24.0007L28.5627 24.0066C28.5725 24.0101 29.6096 24.3535 30.5301 24.3535C31.0324 24.3535 31.412 24.2522 31.6572 24.0532C31.6632 24.0489 32.2257 23.5966 32.2505 22.8273C32.2573 22.6146 32.2093 22.3967 32.1072 22.1806Z" fill="#004990"/>
<circle cx="20" cy="20" r="19.5" stroke="black" stroke-opacity="0.05"/>
</svg>
