<svg width="40" height="40" viewBox="0 0 40 40" fill="none" xmlns="http://www.w3.org/2000/svg">
<circle cx="20" cy="20" r="20" fill="#10111A"/>
<path d="M12.5228 11.73C12.629 11.5485 12.8139 11.4574 13.0775 11.4565C14.2922 11.4514 15.7286 11.4544 17.3866 11.4654C17.8359 11.4686 17.9851 11.7592 17.8867 12.1724C17.5855 13.4349 17.2692 14.7509 16.9379 16.1204C16.8815 16.3559 16.6892 16.5056 16.441 16.5063C14.8451 16.5135 13.3379 16.5137 11.9193 16.5069C11.6506 16.5056 11.4981 16.4034 11.4617 16.2004C11.4448 16.1073 11.4628 15.9535 11.5157 15.739C11.7991 14.5933 12.0883 13.4281 12.3832 12.2434C12.4627 11.9244 12.5093 11.7533 12.5228 11.73Z" fill="#FDC123"/>
<path d="M18.3823 15.9478L19.4098 11.822C19.4344 11.723 19.4915 11.635 19.5719 11.5721C19.6522 11.5092 19.7513 11.475 19.8534 11.4749L24.3955 11.4736C24.4646 11.4736 24.5329 11.4893 24.5951 11.5195C24.6573 11.5497 24.7118 11.5936 24.7547 11.6479C24.7975 11.7022 24.8274 11.7655 24.8423 11.833C24.8571 11.9006 24.8564 11.9706 24.8403 12.0378L23.8541 16.1534C23.8301 16.253 23.7733 16.3417 23.6929 16.4052C23.6124 16.4688 23.513 16.5034 23.4105 16.5037L18.8278 16.5164C18.7582 16.5167 18.6894 16.501 18.6266 16.4706C18.5639 16.4402 18.509 16.3959 18.466 16.341C18.4231 16.2862 18.3932 16.2222 18.3787 16.1541C18.3642 16.0859 18.3654 16.0154 18.3823 15.9478Z" fill="white"/>
<path d="M31.3959 12.7628C31.126 13.8768 30.8569 14.9937 30.5887 16.1137C30.5303 16.3569 30.3689 16.4828 30.1045 16.4913C29.6509 16.5048 29.1974 16.512 28.7438 16.5128C27.7597 16.5099 26.776 16.5094 25.7928 16.5116C25.5525 16.5124 25.3959 16.4961 25.3232 16.4627C25.0401 16.3326 25.0845 16.0362 25.1474 15.7868C25.477 14.471 25.801 13.1635 26.1196 11.8642C26.1799 11.6173 26.3843 11.4739 26.6375 11.4732C27.9351 11.4703 29.4294 11.4715 31.1205 11.477C31.4397 11.4777 31.606 11.741 31.5552 12.0672C31.537 12.1819 31.4839 12.4138 31.3959 12.7628Z" fill="white"/>
<path d="M16.5341 18.5074L15.5505 22.616C15.5264 22.7165 15.4693 22.806 15.3883 22.8701C15.3072 22.9342 15.207 22.9692 15.1037 22.9695L10.5274 22.9816C10.4572 22.9818 10.3879 22.9661 10.3248 22.9355C10.2617 22.9049 10.2063 22.8603 10.1631 22.8051C10.1198 22.7499 10.0897 22.6855 10.0751 22.6169C10.0604 22.5483 10.0617 22.4772 10.0787 22.4092L11.1068 18.2885C11.1317 18.1888 11.1892 18.1004 11.2701 18.0371C11.3511 17.9739 11.4508 17.9395 11.5536 17.9395H16.0861C16.1557 17.9395 16.2244 17.9552 16.2871 17.9856C16.3497 18.016 16.4047 18.0602 16.4478 18.1148C16.4909 18.1695 16.5211 18.2332 16.536 18.3012C16.551 18.3692 16.5504 18.4397 16.5341 18.5074Z" fill="#FDC123"/>
<path d="M22.9018 20.3791C22.7355 21.0675 22.5699 21.7573 22.4048 22.4486C22.3608 22.6318 22.3056 22.7564 22.2392 22.8224C22.1372 22.9236 21.9985 22.9743 21.8229 22.9747C20.4542 22.9764 19.0851 22.9767 17.7156 22.9754C17.5886 22.9733 17.4613 22.9703 17.3335 22.9665C17.0041 22.9582 16.8163 22.7406 16.8931 22.4315C17.2341 21.0501 17.5723 19.6789 17.9079 18.3178C17.9681 18.0748 18.1858 17.944 18.4333 17.9434C19.9065 17.9371 21.3882 17.9368 22.8783 17.9428C23.1 17.9436 23.2438 18.0274 23.3098 18.1941C23.35 18.2956 23.3507 18.4338 23.3117 18.6085C23.1797 19.1995 23.0431 19.7898 22.9018 20.3791Z" fill="white"/>
<path d="M29.5134 17.9335C29.983 17.8998 30.2013 18.1721 30.1042 18.5916C29.8026 19.89 29.4848 21.2215 29.151 22.5859C29.0895 22.8353 28.8864 22.9712 28.6255 22.9724C27.1938 22.9767 25.6925 22.9771 24.1216 22.9737C23.8956 22.9731 23.6837 22.8576 23.6627 22.6126C23.656 22.5326 23.6708 22.4205 23.7072 22.2762C23.851 21.7051 23.9906 21.1377 24.126 20.5742C24.3058 19.871 24.4795 19.1697 24.647 18.4704C24.6906 18.2867 24.7465 18.1613 24.8146 18.094C24.9182 17.9916 25.0581 17.9407 25.2341 17.9411C26.1238 17.9432 27.5503 17.9407 29.5134 17.9335Z" fill="white"/>
<path d="M14.0584 29.0938C13.9954 29.2859 13.8295 29.406 13.5609 29.4543C12.1245 29.4403 10.6889 29.4354 9.25426 29.4397C9.03087 29.4405 8.88173 29.4242 8.80684 29.3908C8.55363 29.2785 8.55363 29.0272 8.61138 28.7942C8.93292 27.4971 9.26483 26.155 9.60711 24.7681C9.67692 24.4838 9.946 24.4007 10.2094 24.402C11.6652 24.4079 13.1073 24.407 14.5357 24.3994C15.051 24.3969 15.1005 24.7986 15.0008 25.2016C14.6814 26.492 14.3673 27.7894 14.0584 29.0938Z" fill="#FDC123"/>
<path d="M21.4886 24.4055C21.7399 24.5417 21.8326 24.7545 21.7666 25.0439C21.6282 25.6489 21.3173 26.9444 20.8337 28.9304C20.7859 29.1263 20.7273 29.2522 20.6579 29.308C20.5462 29.3969 20.408 29.4409 20.2435 29.44C18.7349 29.4286 17.2252 29.4425 15.716 29.4362C15.477 29.4349 15.3433 29.3038 15.3149 29.0427C15.3086 28.9848 15.3232 28.89 15.3587 28.7584C15.6769 27.4947 15.9891 26.2277 16.2954 24.9576C16.3407 24.7698 16.3913 24.6428 16.4471 24.5768C16.5444 24.463 16.6811 24.4061 16.8571 24.4061C18.4026 24.4053 19.9465 24.4051 21.4886 24.4055Z" fill="#FDC123"/>
<path d="M22.2378 28.8765L23.2621 24.7565C23.2867 24.6571 23.3439 24.5688 23.4245 24.5057C23.5051 24.4426 23.6045 24.4082 23.7069 24.4081L28.2458 24.4043C28.3152 24.4042 28.3837 24.4199 28.4461 24.4501C28.5085 24.4803 28.5633 24.5242 28.6063 24.5787C28.6493 24.6331 28.6794 24.6966 28.6944 24.7643C28.7093 24.832 28.7087 24.9023 28.6926 24.9698L27.7076 29.0834C27.6836 29.1834 27.6267 29.2724 27.546 29.3362C27.4653 29.3999 27.3656 29.4347 27.2628 29.435L22.6839 29.4464C22.6141 29.4466 22.5452 29.4308 22.4824 29.4003C22.4197 29.3698 22.3647 29.3254 22.3217 29.2704C22.2786 29.2155 22.2487 29.1514 22.2342 29.0832C22.2196 29.0149 22.2209 28.9443 22.2378 28.8765Z" fill="#FDC123"/>
<circle cx="20" cy="20" r="19.5" stroke="black" stroke-opacity="0.05"/>
</svg>
