<svg width="40" height="41" viewBox="0 0 40 41" fill="none" xmlns="http://www.w3.org/2000/svg">
<circle cx="20" cy="20" r="20" fill="white"/>
<g clip-path="url(#clip0_9_386429)">
<path d="M27.6504 1.5231C30.0774 2.52684 32.2822 4.0025 34.1398 5.86267C35.9975 7.72035 37.4707 9.92759 38.4769 12.3596C39.4832 14.789 40 17.3933 40 20.0225C40 28.1199 35.1286 35.4207 27.6579 38.5194C20.1873 41.6205 11.5855 39.9076 5.86767 34.1823C0.147325 28.4569 -1.56553 19.8477 1.5281 12.3645C4.61924 4.8839 11.9101 0.00249688 19.995 0C22.6217 0 25.2235 0.516854 27.6504 1.5231Z" fill="#CF0A2C"/>
<path d="M30.8562 27.9249C29.5881 29.8311 27.9595 30.8373 26.1656 30.8373C25.9516 30.8308 25.7383 30.813 25.5256 30.7842C25.3142 30.7566 25.1042 30.7172 24.8955 30.666C24.688 30.6161 24.4832 30.5551 24.2811 30.4829C24.0789 30.412 23.8813 30.3299 23.6883 30.2367C23.454 30.1284 23.2295 30.0024 23.0149 29.8567C22.8002 29.7129 22.5974 29.5534 22.4064 29.3762C22.2173 29.2009 22.0421 29.0119 21.8826 28.809C21.7211 28.6062 21.5773 28.3896 21.4513 28.1651C21.3213 27.9544 21.2111 27.7339 21.1185 27.5054C21.0279 27.275 20.9551 27.0387 20.9058 26.7965C20.8546 26.5563 20.8251 26.3101 20.8153 26.064C20.8074 25.8178 20.8192 25.5697 20.8527 25.3255C20.9275 25.0603 21.0056 24.7965 21.087 24.5339C21.1697 24.27 21.2564 24.0081 21.3469 23.7482C21.4375 23.4882 21.532 23.2296 21.6305 22.9723C21.7277 22.715 21.8294 22.459 21.9357 22.2043C23.1921 18.9512 24.9092 14.5008 23.4245 12.3268C22.8022 11.4091 21.6719 10.9483 19.9842 10.9542C18.2986 10.9601 17.1427 11.4091 16.546 12.3268C15.0435 14.5008 16.7784 18.9512 18.0347 22.2102C18.1384 22.4623 18.2389 22.7163 18.336 22.9723C18.4332 23.227 18.5257 23.4836 18.6137 23.7423C18.7029 24.0009 18.7883 24.2608 18.8697 24.5221C18.9498 24.782 19.0266 25.0439 19.1001 25.3078C19.1335 25.552 19.1454 25.7981 19.1355 26.0443C19.1276 26.2904 19.0961 26.5346 19.0449 26.7768C18.9957 27.0171 18.9228 27.2534 18.8323 27.4818C18.7417 27.7102 18.6294 27.9308 18.5014 28.1415C18.3754 28.366 18.2297 28.5806 18.0702 28.7834C17.9107 28.9863 17.7334 29.1753 17.5444 29.3506C17.3554 29.5258 17.1525 29.6853 16.9379 29.8291C16.7232 29.9728 16.4987 30.0989 16.2644 30.2072C16.0714 30.3004 15.8739 30.3824 15.6717 30.4533C15.4695 30.5255 15.2647 30.5866 15.0573 30.6365C14.8485 30.6877 14.6385 30.7271 14.4271 30.7546C14.2145 30.7835 14.0011 30.8006 13.7871 30.8058C11.9932 30.8058 10.3824 29.7996 9.14966 27.9071L9 27.6433C9.21005 27.7562 9.42535 27.8586 9.6459 27.9505C9.86645 28.041 10.0909 28.1198 10.3194 28.1868C10.5491 28.255 10.7808 28.3108 11.0145 28.3542C11.2495 28.3975 11.4858 28.4283 11.7234 28.4467C11.8494 28.4454 11.9755 28.4349 12.1015 28.4152C12.2262 28.3955 12.349 28.3666 12.4697 28.3286C12.5905 28.2892 12.7074 28.2413 12.8203 28.1848C12.9345 28.1284 13.0434 28.064 13.1472 27.9918C15.7012 26.2904 14.8289 24.2464 13.0881 21.0897C12.8898 20.7668 12.7021 20.4373 12.5249 20.1012C12.349 19.7664 12.1842 19.4258 12.0306 19.0792C11.877 18.7326 11.7352 18.3808 11.6053 18.0237C11.4753 17.6679 11.3571 17.3082 11.2508 16.9446C10.8786 15.4105 10.5498 13.1775 11.879 11.4879C12.0641 11.2732 12.263 11.0724 12.4776 10.8873C12.6903 10.7022 12.9168 10.5328 13.155 10.3812C13.3933 10.2296 13.6434 10.0957 13.9014 9.97947C14.1593 9.86328 14.4252 9.76679 14.6969 9.68999C15.0986 9.57184 15.505 9.46813 15.9159 9.37886C16.3255 9.2909 16.7383 9.21804 17.1545 9.16028C17.5693 9.10251 17.9862 9.0605 18.4049 9.03425C18.8237 9.00799 19.2425 8.99683 19.6613 9.00077H20.3269C20.7457 8.99683 21.1645 9.00799 21.5832 9.03425C22.002 9.0605 22.4195 9.10251 22.8357 9.16028C23.2505 9.21804 23.6627 9.2909 24.0723 9.37886C24.4832 9.46813 24.8895 9.57184 25.2913 9.68999C25.563 9.76679 25.8289 9.86328 26.0868 9.97947C26.3448 10.0957 26.5949 10.2296 26.8332 10.3812C27.0714 10.5328 27.2979 10.7022 27.5106 10.8873C27.7252 11.0724 27.9241 11.2732 28.1092 11.4879C29.4384 13.1775 29.1096 15.4105 28.7433 16.9446C28.6356 17.3082 28.5155 17.6686 28.3829 18.0257C28.2516 18.3814 28.1085 18.7326 27.9536 19.0792C27.7987 19.4258 27.632 19.7664 27.4535 20.1012C27.2762 20.4373 27.0878 20.7668 26.8883 21.0897C25.1475 24.2523 24.2752 26.2904 26.8292 27.9918C26.9329 28.064 27.0419 28.1284 27.1561 28.1848C27.269 28.2413 27.3858 28.2885 27.5066 28.3266C27.6274 28.366 27.7501 28.3955 27.8749 28.4152C28.0009 28.4349 28.1269 28.4454 28.253 28.4467C28.4932 28.4283 28.7315 28.3981 28.9678 28.3561C29.2041 28.3128 29.4378 28.2577 29.6688 28.1907C29.8999 28.1224 30.1263 28.043 30.3482 27.9524C30.5701 27.8605 30.7873 27.7575 31 27.6433L30.8562 27.9249Z" fill="white"/>
</g>
<circle cx="20" cy="20" r="19.5" stroke="black" stroke-opacity="0.05"/>
<defs>
<clipPath id="clip0_9_386429">
<rect width="40" height="40.0499" fill="white"/>
</clipPath>
</defs>
</svg>
