<svg width="40" height="40" viewBox="0 0 40 40" fill="none" xmlns="http://www.w3.org/2000/svg">
<circle cx="20" cy="20" r="20" fill="#F6F8FA"/>
<g clip-path="url(#clip0_9_402570)">
<path fill-rule="evenodd" clip-rule="evenodd" d="M9.14641 22.8269C9.05055 22.7935 8.9675 22.7645 8.9675 22.6836C8.9675 22.6148 9.02264 22.567 9.10145 22.567C9.16717 22.567 9.19772 22.5865 9.22496 22.6036C9.2444 22.6162 9.26291 22.6278 9.28883 22.6278C9.32704 22.6278 9.35706 22.5977 9.35706 22.559C9.35706 22.4831 9.22694 22.4321 9.10542 22.4321C8.92704 22.4321 8.80724 22.5662 8.80724 22.6917C8.80724 22.8706 8.94807 22.9187 9.07223 22.9609C9.17273 22.9953 9.2596 23.0249 9.2596 23.1157C9.2596 23.2189 9.18622 23.2909 9.08162 23.2909C9.00982 23.2909 8.96155 23.2629 8.92625 23.2424C8.90271 23.2288 8.88393 23.2179 8.86463 23.2179C8.82469 23.2179 8.79785 23.2489 8.79785 23.2946C8.79785 23.3801 8.96169 23.4257 9.08003 23.4257C9.30324 23.4257 9.41987 23.2673 9.41987 23.1104C9.41987 22.9224 9.26846 22.8695 9.14641 22.8269ZM10.024 22.5828C10.0702 22.5828 10.0989 22.5555 10.0989 22.5114C10.0989 22.4674 10.07 22.44 10.024 22.44H9.68552C9.63593 22.44 9.60526 22.4708 9.60526 22.5207V23.3371C9.60526 23.3869 9.63593 23.4178 9.68539 23.4178H10.0239C10.0702 23.4178 10.0989 23.3904 10.0989 23.3463C10.0989 23.3023 10.07 23.2749 10.024 23.2749H9.75745V23.0002H9.99838C10.0445 23.0002 10.0732 22.9729 10.0732 22.9289C10.0732 22.8847 10.0444 22.8575 9.99838 22.8575H9.75745V22.5828H10.024ZM10.7323 22.5828C10.7784 22.5828 10.8071 22.5555 10.8071 22.5114C10.8071 22.4674 10.7784 22.44 10.7323 22.44H10.3938C10.3442 22.44 10.3135 22.4708 10.3135 22.5207V23.3371C10.3135 23.3869 10.3442 23.4178 10.3936 23.4178H10.7321C10.7784 23.4178 10.8071 23.3904 10.8071 23.3463C10.8071 23.3023 10.7784 23.2749 10.7323 23.2749H10.4658V23.0002H10.7067C10.7529 23.0002 10.7816 22.9729 10.7816 22.9289C10.7816 22.8847 10.7529 22.8575 10.7067 22.8575H10.4658V22.5828H10.7323ZM11.0979 22.4321C11.0523 22.4321 11.0217 22.4641 11.0217 22.5114V23.3463C11.0217 23.3937 11.0521 23.4257 11.0979 23.4257C11.1435 23.4257 11.174 23.3938 11.174 23.3463V22.5114C11.174 22.4641 11.1435 22.4321 11.0979 22.4321ZM12.1056 22.4321C12.0601 22.4321 12.0296 22.4641 12.0296 22.5114V23.1446L11.5767 22.5006C11.5432 22.4522 11.5225 22.4321 11.4794 22.4321C11.4326 22.4321 11.4086 22.4611 11.4086 22.518V23.3463C11.4086 23.3937 11.4393 23.4257 11.4849 23.4257C11.5304 23.4257 11.561 23.3938 11.561 23.3463V22.7131L12.0137 23.3573C12.047 23.4056 12.0679 23.4258 12.111 23.4258C12.158 23.4258 12.1819 23.3967 12.1819 23.3397V22.5114C12.1819 22.4641 12.1512 22.4321 12.1056 22.4321ZM13.1366 22.8428H12.9385C12.8925 22.8428 12.8637 22.8702 12.8637 22.9142C12.8637 22.9584 12.8925 22.9858 12.9385 22.9858H13.0873V23.0241C13.0873 23.1272 13.0175 23.2909 12.8302 23.2909C12.6168 23.2909 12.5409 23.0959 12.5409 22.9289C12.5409 22.7487 12.6287 22.567 12.8248 22.567C12.9273 22.567 12.9817 22.6059 13.0254 22.6371C13.0525 22.6562 13.0759 22.673 13.1032 22.673C13.1128 22.6733 13.1225 22.6716 13.1314 22.6681C13.1404 22.6645 13.1486 22.6592 13.1555 22.6524C13.1623 22.6456 13.1678 22.6375 13.1714 22.6285C13.1751 22.6196 13.1769 22.61 13.1767 22.6003C13.1767 22.5342 13.029 22.4321 12.8328 22.4321C12.5204 22.4321 12.3805 22.6816 12.3805 22.9289C12.3805 23.1682 12.5167 23.4257 12.8154 23.4257C13.093 23.4257 13.2395 23.263 13.2395 22.9555C13.2395 22.8765 13.2088 22.8428 13.1366 22.8428ZM14.3592 22.7539C14.3592 22.8562 14.2844 22.9303 14.1811 22.9303H14.0246V22.5749H14.176C14.3112 22.5749 14.3592 22.6675 14.3592 22.7539ZM14.1852 22.44H13.9524C13.9029 22.44 13.8721 22.4708 13.8721 22.5207V23.3463C13.8721 23.3938 13.9028 23.4257 13.9483 23.4257C13.9939 23.4257 14.0244 23.3938 14.0244 23.3463V23.0652H14.1892C14.37 23.0652 14.5116 22.9285 14.5116 22.7539C14.5116 22.5691 14.3774 22.44 14.1852 22.44ZM15.0861 23.2909C14.8838 23.2909 14.8119 23.1038 14.8119 22.9289C14.8119 22.7539 14.8838 22.567 15.0861 22.567C15.2886 22.567 15.3606 22.7539 15.3606 22.9289C15.3606 23.1038 15.2886 23.2909 15.0861 23.2909ZM15.0861 22.4321C14.8008 22.4321 14.6515 22.6821 14.6515 22.9289C14.6515 23.1758 14.8008 23.4258 15.0861 23.4258C15.3716 23.4258 15.5209 23.1758 15.5209 22.9289C15.5209 22.6821 15.3716 22.4321 15.0861 22.4321ZM16.0189 22.8269C15.9229 22.7935 15.8398 22.7645 15.8398 22.6836C15.8398 22.6148 15.895 22.567 15.9738 22.567C16.0394 22.567 16.0703 22.5865 16.0973 22.6036C16.1169 22.6162 16.1354 22.6278 16.1613 22.6278C16.1703 22.6279 16.1792 22.6261 16.1876 22.6227C16.1959 22.6192 16.2035 22.6141 16.2098 22.6077C16.2161 22.6013 16.2211 22.5937 16.2245 22.5854C16.2279 22.577 16.2295 22.5681 16.2294 22.559C16.2294 22.4831 16.0994 22.4321 15.9778 22.4321C15.7994 22.4321 15.6796 22.5662 15.6796 22.6917C15.6796 22.8706 15.8204 22.9187 15.9446 22.9609C16.0452 22.9953 16.1321 23.0249 16.1321 23.1157C16.1321 23.2189 16.0588 23.2909 15.9538 23.2909C15.8821 23.2909 15.8339 23.2629 15.7986 23.2424C15.775 23.2288 15.7563 23.2179 15.737 23.2179C15.697 23.2179 15.6702 23.2489 15.6702 23.2946C15.6702 23.3801 15.8341 23.4257 15.9525 23.4257C16.1756 23.4257 16.2923 23.2673 16.2923 23.1104C16.2923 22.9224 16.1407 22.8695 16.0189 22.8269ZM16.7767 22.8269C16.6807 22.7935 16.5978 22.7645 16.5978 22.6836C16.5978 22.6148 16.6528 22.567 16.7316 22.567C16.7972 22.567 16.8281 22.5865 16.8552 22.6036C16.8745 22.6162 16.8931 22.6278 16.919 22.6278C16.9573 22.6278 16.9871 22.5977 16.9871 22.559C16.9871 22.4831 16.8572 22.4321 16.7358 22.4321C16.5573 22.4321 16.4375 22.5662 16.4375 22.6917C16.4375 22.8706 16.5781 22.9187 16.7022 22.9609C16.8029 22.9953 16.8898 23.0249 16.8898 23.1157C16.8898 23.2189 16.8165 23.2909 16.7116 23.2909C16.6398 23.2909 16.5917 23.2629 16.5564 23.2424C16.5327 23.2288 16.5142 23.2179 16.4948 23.2179C16.4548 23.2179 16.428 23.2489 16.428 23.2946C16.428 23.3801 16.592 23.4257 16.7103 23.4257C16.9334 23.4257 17.0501 23.2673 17.0501 23.1104C17.0501 22.9224 16.8986 22.8695 16.7767 22.8269ZM17.3196 22.4321C17.2739 22.4321 17.2432 22.4641 17.2432 22.5114V23.3463C17.2432 23.3937 17.2739 23.4257 17.3196 23.4257C17.3651 23.4257 17.3957 23.3938 17.3957 23.3463V22.5114C17.3957 22.4641 17.3651 22.4321 17.3196 22.4321ZM17.7826 22.839V22.5749H17.9032C17.9914 22.5749 18.0398 22.6207 18.0398 22.7036C18.0398 22.7858 17.9845 22.839 17.8992 22.839H17.7826ZM18.1133 23.125C18.1133 23.2179 18.0384 23.2829 17.9313 23.2829H17.7826V22.9687H17.9365C18.0423 22.9687 18.1133 23.0315 18.1133 23.1251V23.125ZM18.0924 22.8846C18.1543 22.8456 18.1921 22.771 18.1921 22.6823C18.1921 22.5649 18.0961 22.44 17.9179 22.44H17.7102C17.6608 22.44 17.6301 22.4708 17.6301 22.5207V23.3371C17.6301 23.3869 17.6608 23.4178 17.7102 23.4178H17.9365C18.1305 23.4178 18.2656 23.2973 18.2656 23.125C18.2656 23.0126 18.1939 22.9167 18.0924 22.8846ZM18.5392 22.4321C18.4936 22.4321 18.4629 22.4641 18.4629 22.5114V23.3463C18.4629 23.3937 18.4936 23.4257 18.5392 23.4257C18.5848 23.4257 18.6154 23.3938 18.6154 23.3463V22.5114C18.6154 22.4641 18.5848 22.4321 18.5392 22.4321ZM19.2367 23.2749H19.0021V22.5114C19.0021 22.4641 18.9717 22.4321 18.9261 22.4321C18.8805 22.4321 18.8499 22.4641 18.8499 22.5114V23.3371C18.8499 23.3869 18.8806 23.4178 18.9301 23.4178H19.2367C19.2827 23.4178 19.3114 23.3904 19.3114 23.3463C19.3114 23.3023 19.2827 23.2749 19.2367 23.2749ZM19.5607 22.4321C19.5152 22.4321 19.4845 22.4641 19.4845 22.5114V23.3463C19.4845 23.3937 19.5152 23.4257 19.5607 23.4257C19.6063 23.4257 19.6369 23.3938 19.6369 23.3463V22.5114C19.6369 22.4641 19.6063 22.4321 19.5607 22.4321ZM20.3719 22.44H19.8981C19.8519 22.44 19.8233 22.4673 19.8233 22.5114C19.8233 22.5555 19.8519 22.5828 19.8981 22.5828H20.0588V23.3463C20.0588 23.3938 20.0895 23.4257 20.135 23.4257C20.1805 23.4257 20.2111 23.3938 20.2111 23.3463V22.583H20.3719C20.4181 22.583 20.4466 22.5555 20.4466 22.5114C20.4466 22.4673 20.4181 22.44 20.3719 22.44ZM20.7095 22.4321C20.6638 22.4321 20.6334 22.4641 20.6334 22.5114V23.3463C20.6334 23.3937 20.6638 23.4257 20.7095 23.4257C20.755 23.4257 20.7856 23.3938 20.7856 23.3463V22.5114C20.7856 22.4641 20.755 22.4321 20.7095 22.4321ZM21.4323 22.5828C21.4784 22.5828 21.507 22.5555 21.507 22.5114C21.507 22.4674 21.4784 22.44 21.4323 22.44H21.0938C21.0442 22.44 21.0135 22.4708 21.0135 22.5207V23.3371C21.0135 23.3869 21.0442 23.4178 21.0938 23.4178H21.4323C21.4784 23.4178 21.507 23.3904 21.507 23.3463C21.507 23.3023 21.4784 23.2749 21.4323 23.2749H21.1657V23.0002H21.4068C21.4531 23.0002 21.4816 22.9729 21.4816 22.9289C21.4816 22.8847 21.4531 22.8575 21.4068 22.8575H21.1657V22.5828H21.4323ZM22.0207 22.8269C21.925 22.7935 21.8419 22.7645 21.8419 22.6836C21.8419 22.6148 21.897 22.567 21.9758 22.567C22.0415 22.567 22.0723 22.5865 22.0994 22.6036C22.1188 22.6162 22.1372 22.6278 22.1633 22.6278C22.1723 22.6279 22.1812 22.6261 22.1895 22.6227C22.1979 22.6192 22.2054 22.6141 22.2118 22.6077C22.2181 22.6013 22.2231 22.5937 22.2265 22.5854C22.2299 22.577 22.2315 22.5681 22.2314 22.559C22.2314 22.4831 22.1013 22.4321 21.9799 22.4321C21.8015 22.4321 21.6817 22.5662 21.6817 22.6917C21.6817 22.8706 21.8224 22.9187 21.9465 22.9609C22.0472 22.9953 22.134 23.0249 22.134 23.1157C22.134 23.2189 22.0607 23.2909 21.9558 23.2909C21.884 23.2909 21.836 23.2629 21.8006 23.2424C21.777 23.2288 21.7584 23.2179 21.7389 23.2179C21.6991 23.2179 21.6723 23.2489 21.6723 23.2946C21.6723 23.3801 21.836 23.4257 21.9543 23.4257C22.1776 23.4257 22.2943 23.2673 22.2943 23.1104C22.2943 22.9224 22.1426 22.8695 22.0207 22.8269ZM23.0043 22.4321C22.9586 22.4321 22.9281 22.4641 22.9281 22.5114V23.3463C22.9281 23.3937 22.9586 23.4257 23.0043 23.4257C23.0499 23.4257 23.0804 23.3938 23.0804 23.3463V22.5114C23.0804 22.4641 23.0499 22.4321 23.0043 22.4321ZM24.0121 22.4321C23.9666 22.4321 23.9358 22.4641 23.9358 22.5114V23.1444L23.4829 22.5006C23.4498 22.4522 23.4289 22.4321 23.3858 22.4321C23.3388 22.4321 23.3149 22.4611 23.3149 22.518V23.3463C23.3149 23.3937 23.3457 23.4257 23.3912 23.4257C23.4367 23.4257 23.4673 23.3938 23.4673 23.3463V22.713L23.9202 23.3573C23.9536 23.4056 23.9744 23.4258 24.0176 23.4258C24.0645 23.4258 24.0883 23.3967 24.0883 23.3397V22.5114C24.0883 22.4641 24.0576 22.4321 24.0121 22.4321ZM25.2588 22.7539C25.2588 22.8562 25.1838 22.9303 25.0807 22.9303H24.924V22.5749H25.0753C25.2105 22.5749 25.2588 22.6675 25.2588 22.7539ZM25.0845 22.44H24.8518C24.8023 22.44 24.7715 22.4708 24.7715 22.5207V23.3463C24.7715 23.3938 24.8023 23.4257 24.8477 23.4257C24.8933 23.4257 24.924 23.3938 24.924 23.3463V23.0652H25.0886C25.2694 23.0652 25.4111 22.9285 25.4111 22.7539C25.4111 22.5691 25.2769 22.44 25.0845 22.44ZM25.9789 23.2909C25.7765 23.2909 25.7044 23.1038 25.7044 22.9289C25.7044 22.7539 25.7765 22.567 25.9789 22.567C26.1813 22.567 26.2532 22.7539 26.2532 22.9289C26.2532 23.1038 26.1813 23.2909 25.9789 23.2909ZM25.9789 22.4321C25.6933 22.4321 25.544 22.6821 25.544 22.9289C25.544 23.1758 25.6933 23.4258 25.9789 23.4258C26.2644 23.4258 26.4139 23.1758 26.4139 22.9289C26.4139 22.6821 26.2644 22.4321 25.9789 22.4321ZM27.0556 22.44H26.5819C26.5356 22.44 26.5069 22.4673 26.5069 22.5114C26.5069 22.5555 26.5356 22.5828 26.5819 22.5828H26.7426V23.3463C26.7426 23.3938 26.7733 23.4257 26.8187 23.4257C26.8642 23.4257 26.8949 23.3938 26.8949 23.3463V22.583H27.0556C27.1018 22.583 27.1304 22.5555 27.1304 22.5114C27.1304 22.4673 27.1018 22.44 27.0556 22.44ZM27.766 23.0774H27.4457L27.6059 22.6316L27.766 23.0773V23.0774ZM27.7064 22.5149C27.6868 22.46 27.653 22.4321 27.6059 22.4321C27.5583 22.4321 27.5254 22.4592 27.5054 22.5147L27.2095 23.2958L27.2071 23.3032C27.1997 23.3236 27.1926 23.3449 27.1926 23.3597C27.1926 23.3979 27.2235 23.4258 27.2659 23.4258C27.3015 23.4258 27.3262 23.4073 27.34 23.3708L27.3973 23.2125H27.8146L27.8721 23.3711C27.8856 23.4074 27.9106 23.4258 27.946 23.4258C27.9883 23.4258 28.0194 23.3979 28.0194 23.3597C28.0194 23.3449 28.0123 23.3236 28.0049 23.3032L27.7064 22.5149ZM28.6302 22.44H28.1564C28.1101 22.44 28.0814 22.4673 28.0814 22.5114C28.0814 22.5555 28.1101 22.5828 28.1564 22.5828H28.3171V23.3463C28.3171 23.3938 28.3476 23.4257 28.3932 23.4257C28.4387 23.4257 28.4694 23.3938 28.4694 23.3463V22.583H28.6302C28.6763 22.583 28.7049 22.5555 28.7049 22.5114C28.7049 22.4673 28.6763 22.44 28.6302 22.44ZM29.2232 23.2909C29.0209 23.2909 28.9489 23.1038 28.9489 22.9289C28.9489 22.7539 29.0209 22.567 29.2232 22.567C29.4254 22.567 29.4976 22.7539 29.4976 22.9289C29.4976 23.1038 29.4254 23.2909 29.2232 23.2909ZM29.2232 22.4321C28.9378 22.4321 28.7883 22.6821 28.7883 22.9289C28.7883 23.1758 28.9378 23.4258 29.2232 23.4258C29.5089 23.4258 29.658 23.1758 29.658 22.9289C29.658 22.6821 29.5089 22.4321 29.2232 22.4321ZM30.2691 22.5828C30.3151 22.5828 30.3436 22.5555 30.3436 22.5114C30.3436 22.4674 30.3151 22.44 30.2691 22.44H29.9304C29.8808 22.44 29.8503 22.4708 29.8503 22.5207V23.3371C29.8503 23.3869 29.8808 23.4178 29.9304 23.4178H30.2691C30.3151 23.4178 30.3436 23.3904 30.3436 23.3463C30.3436 23.3023 30.3151 23.2749 30.2691 23.2749H30.0025V23.0002H30.2435C30.2897 23.0002 30.3184 22.9729 30.3184 22.9289C30.3184 22.8847 30.2897 22.8575 30.2435 22.8575H30.0025V22.5828H30.2691ZM30.8784 22.8243C30.7828 22.7907 30.6997 22.7616 30.6997 22.6803C30.6997 22.6114 30.7546 22.5631 30.8334 22.5631C30.899 22.5631 30.9297 22.5828 30.9567 22.6002C30.9764 22.6127 30.9946 22.6244 31.0207 22.6244C31.0297 22.6244 31.0386 22.6226 31.0469 22.6191C31.0553 22.6157 31.0628 22.6105 31.0691 22.6041C31.0755 22.5977 31.0805 22.5901 31.0838 22.5817C31.0871 22.5733 31.0888 22.5644 31.0886 22.5553C31.0886 22.479 30.9588 22.4277 30.8374 22.4277C30.6593 22.4277 30.5396 22.5625 30.5396 22.6884C30.5396 22.8682 30.6802 22.9163 30.8043 22.9588C30.9046 22.9934 30.9913 23.023 30.9913 23.1143C30.9913 23.2177 30.9182 23.2901 30.8136 23.2901C30.7419 23.2901 30.6938 23.262 30.6585 23.2415C30.6349 23.2277 30.6164 23.2169 30.5969 23.2169C30.5571 23.2169 30.5302 23.248 30.5302 23.2939C30.5302 23.3798 30.6939 23.4254 30.812 23.4254C31.0349 23.4254 31.1514 23.2663 31.1514 23.109C31.1514 22.92 31.0002 22.867 30.8784 22.8243Z" fill="#F06323"/>
<path fill-rule="evenodd" clip-rule="evenodd" d="M27.6062 20.722C27.3223 20.722 27.6062 19.2922 27.2434 19.2922C27.1171 19.2922 26.8091 19.3563 26.6594 19.4963C26.5051 19.6414 26.3126 19.9364 26.139 20.1404C26.3283 19.4335 26.4544 18.9781 26.1863 18.9781C26.06 18.9781 25.8233 19.0409 25.6813 19.1195C25.5453 19.197 25.2652 19.3759 25.0445 19.5016C24.9472 19.2204 24.7334 19.1508 24.5457 19.1508C24.5457 18.9937 24.4664 18.8994 24.3246 18.8994C23.9878 18.8994 23.595 19.3134 23.3965 19.8072C23.1576 20.2285 22.8725 20.5962 22.747 20.5962C22.5785 20.5962 22.8672 19.5449 23.1155 18.7013C23.2885 18.7158 23.4498 18.7266 23.5673 18.7266C24.0406 18.7266 24.1666 18.3652 24.1666 18.1453C24.1666 17.9569 23.9775 18.2239 23.3781 18.2239H23.2573C23.3191 18.016 23.3691 17.8482 23.3939 17.7526C23.4256 17.6583 23.3939 17.6111 23.3149 17.6111C23.0941 17.6111 22.7311 17.7995 22.6526 18.051C22.6371 18.1021 22.6192 18.1608 22.6003 18.2239H22.3209C21.9738 18.2239 21.8003 18.4124 21.8003 18.601C21.8003 18.7266 21.8949 18.6325 22.1949 18.6325C22.2672 18.6325 22.3643 18.6377 22.4751 18.6462C22.4114 18.861 22.3495 19.0763 22.2893 19.2922C22.203 19.57 21.8875 20.0344 21.515 20.4046C21.5155 20.3901 21.5162 20.3755 21.5162 20.3606C21.5006 19.9835 21.4218 18.8837 21.2009 18.8837C21.0432 18.8837 20.6487 19.1037 20.5858 19.2608C20.3806 19.7792 19.6075 20.8476 19.1186 20.8476C18.9976 20.8476 18.9509 20.7459 18.9357 20.5924C19.4129 20.5443 19.9861 20.0184 19.9861 19.4492C19.9861 19.1665 19.8284 18.915 19.4498 18.915C18.7556 18.915 18.2192 19.8262 18.2192 20.5649C18.2192 21.0519 18.4874 21.3659 18.9764 21.3659C19.9704 21.3659 20.5541 20.2034 20.7906 19.8262C21.0747 21.0362 20.1753 20.8476 20.1753 21.0046C20.1753 21.1775 20.3647 21.3659 20.6173 21.3659C20.6268 21.3659 20.6378 21.3651 20.6493 21.3644L20.6487 21.3659C21.0588 21.3659 21.6426 21.0046 22.0529 20.3921C21.9581 21.0046 21.9898 21.3659 22.3843 21.3659C22.7101 21.3659 23.0638 21.0623 23.2965 20.7084C23.3773 21.0887 23.6233 21.3659 23.9933 21.3659C24.633 21.3659 25.0481 20.6118 25.0934 19.9854C25.2579 19.9327 25.463 19.8532 25.6025 19.7792C25.4289 20.722 25.1607 21.3659 25.4448 21.3659C25.5552 21.3659 25.8077 21.2718 25.9499 21.1303C26.1232 20.9576 26.6594 20.0777 26.7544 20.0777C26.9121 20.0777 26.5965 21.3659 27.1959 21.3659C27.5905 21.3659 27.9691 20.9104 27.9691 20.659C27.9691 20.4547 27.7324 20.722 27.6062 20.722ZM19.4339 19.4335C19.7133 19.4335 19.382 20.1782 18.9505 20.2023C19.0298 19.7554 19.3125 19.4335 19.4339 19.4335ZM24.1666 20.7849C23.7251 20.7849 24.009 19.7478 24.3089 19.5278C24.2301 19.8108 24.3721 20.0464 24.6244 20.0464C24.6244 20.2819 24.4037 20.7849 24.1666 20.7849ZM14.1646 18.9778C13.7547 18.9778 13.4546 19.3392 13.6598 19.3392C14.0385 19.3392 13.849 20.6905 13.439 20.6905C12.9656 20.6905 13.6755 18.2709 13.9437 17.6267C14.0226 17.4381 13.991 17.3596 13.8333 17.3596C13.644 17.3596 13.3125 17.5011 13.2021 17.7367C13.0719 18.0828 12.8444 18.7862 12.7151 19.468C12.7146 19.467 12.7139 19.4658 12.7131 19.4649C12.6185 19.8889 12.1924 20.5648 12.0189 20.5648C11.8613 20.5648 12.2084 19.1979 11.8613 19.1979C11.7193 19.1979 11.5143 19.3706 11.4352 19.4332C11.3247 19.5277 11.1196 19.842 10.8832 20.2346C10.962 19.7162 11.0409 18.9778 10.82 18.9778C10.6938 18.9778 10.5045 19.0879 10.3782 19.1664C10.1256 19.3234 9.77865 19.9833 9.57343 20.2347C9.65264 19.4806 9.69984 19.0249 9.52622 19.0249C9.3686 19.0249 9.06884 19.1979 8.99003 19.3548C8.69012 19.9205 8.2326 20.6117 8.07498 20.6117C7.9171 20.6117 8.1694 20.109 8.1694 19.8105C8.1694 19.6533 7.77508 19.3863 7.69641 19.5434C7.50692 19.952 7.20728 20.6589 6.90751 20.6589C6.59188 20.6589 7.09687 19.3234 7.64907 19.3234C7.86989 19.3234 8.01178 19.449 8.01178 19.3548C8.01178 19.0408 7.77508 18.868 7.47531 18.868C6.63922 18.868 6.08715 19.8889 6.08715 20.7062C6.08715 21.1302 6.30798 21.3658 6.63922 21.3658C6.98632 21.3658 7.33343 20.9416 7.45958 20.6589C7.3493 21.1772 7.53826 21.3658 7.80682 21.3658C8.2326 21.3658 8.57971 20.8947 8.92682 20.3447C8.80067 21.1616 8.73746 21.3658 8.94242 21.3658C9.06884 21.3658 9.27393 21.3186 9.3686 21.2243C9.65264 20.9416 10.0311 20.4075 10.2206 20.0619C10.0153 21.0203 9.93654 21.3657 10.1418 21.3657C10.252 21.3657 10.5202 21.3186 10.6465 21.193C10.9304 20.9103 11.1671 20.5646 11.3564 20.266C11.2144 21.1459 11.3406 21.3658 11.6403 21.3658C11.9303 21.3658 12.3856 21.036 12.6277 20.5707C12.6797 21.1881 12.9504 21.3658 13.2339 21.3658C13.8018 21.3658 14.6536 20.7061 14.6536 19.4962C14.6536 19.2448 14.5431 18.9778 14.1646 18.9778ZM5.69284 20.5488C5.51908 20.5488 5.17224 20.5646 4.96702 20.5646C4.76166 20.5646 4.80913 20.3131 4.87221 20.0619C5.09303 19.0723 5.45614 17.8781 5.56642 17.2968C5.59816 17.1397 5.55055 17.0926 5.3928 17.0926C5.23505 17.0926 4.80913 17.2812 4.76166 17.4383C4.41482 18.6481 4.22546 19.6534 4.08331 20.5962C4.02024 21.0674 4.03611 21.3658 4.44616 21.3658C4.74593 21.3658 5.9606 21.1304 5.9606 20.8632C5.9606 20.7064 5.81872 20.549 5.6927 20.549L5.69284 20.5488ZM18.724 17.3285C18.5345 17.3285 18.1718 17.5956 18.1402 17.8313C18.0299 18.538 17.3988 20.345 17.2094 20.345C17.1307 20.345 17.099 20.282 17.099 19.9364C17.099 18.9624 17.462 17.8783 17.462 17.6898C17.462 17.5955 17.3988 17.5642 17.3041 17.5642C17.0518 17.5642 16.7363 17.7685 16.6888 17.9255C16.5943 18.2241 16.5784 18.3653 16.4994 18.8053C16.4209 19.0724 15.979 20.3607 15.8052 20.3607C15.6317 20.3607 15.6476 19.748 15.6476 19.1039C15.6476 18.538 15.7263 17.8783 15.8528 17.2342C15.8686 17.1242 15.837 17.0771 15.7108 17.0771C15.4265 17.0771 15.0797 17.2342 15.0322 17.4384C14.9691 17.6898 14.9062 18.2084 14.9062 18.8053C14.9062 20.1879 15.0638 21.3661 15.5213 21.3661C15.8686 21.3661 16.2788 20.7534 16.4209 20.282C16.4209 21.2247 16.6259 21.3661 16.8623 21.3661C17.525 21.3661 18.8345 18.6638 18.8345 17.4543C18.8345 17.3756 18.8031 17.3285 18.724 17.3285ZM27.9216 19.3596H27.8251V19.4633H27.9216C27.9551 19.4633 27.98 19.4477 27.98 19.4116C27.98 19.3773 27.9551 19.3596 27.9216 19.3596ZM27.9654 19.517L28.0405 19.6641H27.9672L27.8958 19.5234H27.8251V19.6641H27.7628V19.2996H27.9236C27.9885 19.2996 28.0434 19.3337 28.0434 19.4098C28.0434 19.4671 28.0127 19.5032 27.9654 19.517ZM27.89 19.2079C27.7301 19.2079 27.6083 19.329 27.6083 19.4883C27.6083 19.6476 27.7301 19.7687 27.89 19.7687C28.0499 19.7687 28.1718 19.6476 28.1718 19.4884C28.1718 19.329 28.0499 19.2079 27.89 19.2079ZM27.89 19.8225C27.6996 19.8225 27.5545 19.6781 27.5545 19.4884C27.5545 19.2986 27.6996 19.1541 27.89 19.1541C28.0805 19.1541 28.2255 19.2986 28.2255 19.4883C28.2255 19.6781 28.0805 19.8225 27.89 19.8225Z" fill="#163B64"/>
<path fill-rule="evenodd" clip-rule="evenodd" d="M35.919 21.0705C35.9165 21.0563 35.9144 21.0211 35.9124 20.9958C35.9053 20.9218 35.9005 20.8438 35.8903 20.7694C35.8853 20.7538 35.8853 20.7327 35.8831 20.7139C35.8682 20.6367 35.8525 20.5597 35.836 20.4829C35.8273 20.4592 35.821 20.4346 35.8172 20.4096C35.7938 20.3168 35.7603 20.242 35.724 20.1641C35.7207 20.1567 35.7129 20.1342 35.7094 20.1273C35.7037 20.1175 35.6974 20.1079 35.6907 20.0988C35.6618 20.0464 35.6304 19.9956 35.5965 19.9463C35.5871 19.9326 35.5785 19.9257 35.5687 19.9136C35.5653 19.9088 35.5509 19.89 35.5494 19.888L35.5439 19.8807C35.5373 19.8725 35.5348 19.8678 35.528 19.8551C35.5059 19.8373 35.5017 19.8326 35.4883 19.8206C35.4712 19.8098 35.4591 19.7938 35.4426 19.7819C35.4168 19.7641 35.3886 19.7444 35.3622 19.7277C35.3576 19.725 35.3531 19.7211 35.3487 19.7185C35.3434 19.7156 35.3208 19.7025 35.3137 19.6989C35.3004 19.6923 35.2925 19.6879 35.2807 19.682C35.2704 19.6768 35.2637 19.6742 35.2534 19.6688C35.2481 19.6664 35.2442 19.6621 35.2396 19.6598C35.2259 19.652 35.2125 19.6463 35.1988 19.6399C35.196 19.6386 35.1944 19.635 35.1911 19.6334C35.1668 19.621 35.1406 19.6184 35.1084 19.6094C34.983 19.5733 34.8203 19.5594 34.6733 19.5742C34.6068 19.5864 34.5389 19.597 34.4749 19.6114C34.451 19.6206 34.4048 19.6418 34.4048 19.6418C34.4048 19.6418 34.3805 19.6532 34.3707 19.6588C34.334 19.6726 34.3014 19.6895 34.2668 19.7049C34.2317 19.7203 34.1999 19.7371 34.1639 19.7548C34.1385 19.7731 34.1131 19.7912 34.0884 19.81C34.0638 19.8285 34.0424 19.8463 34.0145 19.8663C34.0092 19.8712 33.9679 19.9133 33.9449 19.9333C33.9408 19.9402 33.9145 19.9651 33.9088 19.9724C33.8969 19.9899 33.8823 20.0049 33.8688 20.021C33.8276 20.0698 33.7931 20.1224 33.7573 20.1751C33.7068 20.2564 33.6708 20.3509 33.6363 20.4456C33.6089 20.5193 33.5893 20.5956 33.5777 20.6733C33.5657 20.7546 33.5607 20.8375 33.548 20.9197C33.5461 20.9316 33.541 20.9436 33.5402 20.9554C33.5374 20.988 33.5406 21.0206 33.5415 21.0524C33.542 21.0715 33.5411 21.0902 33.543 21.1027C33.5396 21.122 33.5481 21.2098 33.5496 21.2664C33.5521 21.2941 33.5558 21.3092 33.5608 21.3261C33.6647 21.3261 33.7757 21.3252 33.8774 21.3313C33.9798 21.3375 34.0753 21.3283 34.1749 21.3339C34.2123 21.3365 34.2541 21.3324 34.2952 21.3316C34.3781 21.3293 34.4557 21.3268 34.533 21.3273C34.575 21.3276 34.6188 21.3197 34.655 21.3247C34.6622 21.3256 34.663 21.324 34.6682 21.3244C34.7952 21.3316 34.9077 21.3158 35.0246 21.3242C35.0332 21.3234 35.0419 21.3233 35.0505 21.3236C35.0812 21.3263 35.1154 21.3215 35.1472 21.323C35.196 21.3253 35.2858 21.3209 35.3408 21.3267C35.3904 21.332 35.4436 21.3183 35.4955 21.3246C35.5342 21.3293 35.5829 21.3244 35.6249 21.3271C35.7213 21.3335 35.8349 21.3271 35.927 21.3271C35.9443 21.2471 35.9185 21.1601 35.919 21.0705Z" fill="#FCB717"/>
<path fill-rule="evenodd" clip-rule="evenodd" d="M33.3804 21.2005C33.379 21.1746 33.3749 21.1238 33.3761 21.0831C33.3716 21.0617 33.3732 21.0203 33.3718 20.988C33.366 20.9014 33.3557 20.8272 33.3451 20.7443C33.3266 20.6869 33.3191 20.6249 33.3027 20.5654C33.2928 20.5288 33.2802 20.4946 33.2749 20.4563C33.2608 20.4184 33.249 20.3796 33.2397 20.3402C33.2166 20.2892 33.2001 20.2315 33.1794 20.1779C33.1498 20.1335 33.1301 20.096 33.099 20.0527C33.0976 20.0478 33.0899 20.0388 33.0886 20.0324C33.0685 20.0108 33.0547 19.9832 33.0358 19.9611C33.0238 19.9317 33.0007 19.9134 32.9841 19.8884C32.9594 19.8712 32.9438 19.8447 32.9197 19.8267C32.8759 19.7854 32.8282 19.7485 32.7772 19.7163C32.7542 19.6974 32.7265 19.6825 32.6996 19.6674C32.6524 19.6445 32.6156 19.623 32.5482 19.6001C32.5427 19.5981 32.5314 19.5922 32.5263 19.5903C32.515 19.5858 32.5021 19.5833 32.4897 19.5791C32.4782 19.5754 32.4675 19.5689 32.456 19.5653C32.4269 19.5561 32.3909 19.5454 32.3649 19.5373C32.3433 19.5307 32.3213 19.526 32.2989 19.5231C32.2818 19.5209 32.2628 19.5234 32.2432 19.5205C32.2242 19.5177 32.1967 19.5197 32.1741 19.5161C32.1507 19.5127 32.1271 19.5119 32.1036 19.5135C32.0367 19.5197 31.9724 19.5247 31.91 19.5373C31.8525 19.5545 31.7918 19.569 31.7381 19.5903C31.6969 19.6146 31.6571 19.6411 31.6165 19.6659C31.5753 19.6909 31.5335 19.712 31.4947 19.7429C31.4344 19.8094 31.3776 19.879 31.3245 19.9513C31.3197 19.9578 31.3068 19.9731 31.3052 19.9751C31.304 19.977 31.2992 19.9859 31.2979 19.9877C31.2557 20.051 31.2133 20.1155 31.1731 20.1793C31.1616 20.1978 31.1555 20.2163 31.1469 20.2367C31.1223 20.2942 31.092 20.353 31.0763 20.417C31.0711 20.4388 31.0658 20.4612 31.0602 20.4842C31.0529 20.5173 31.0394 20.552 31.0311 20.5807C31.0271 20.5926 31.0279 20.6051 31.025 20.6172C31.0235 20.6232 31.0189 20.6293 31.0177 20.6355C31.0159 20.6434 31.0167 20.6509 31.0147 20.659C31.0132 20.666 31.0089 20.6722 31.0074 20.6786C31.0053 20.6869 31.0061 20.6951 31.0044 20.7037C31.0017 20.7186 30.9955 20.7335 30.9926 20.7487C30.987 20.7801 30.9814 20.8125 30.9766 20.8452C30.9704 20.8859 30.9648 20.9204 30.9648 20.9655C30.9648 20.9801 30.9619 20.9939 30.9619 21.0074C30.9622 21.0266 30.9654 21.0474 30.9661 21.0676C30.9697 21.1487 30.9751 21.2226 30.9766 21.3056C31.0461 21.3141 31.1082 21.3056 31.1835 21.3109L31.1982 21.3124C31.2381 21.315 31.2791 21.315 31.3168 21.315C31.3628 21.315 31.4112 21.3126 31.455 21.3163C31.5185 21.3221 31.5847 21.3198 31.6518 21.3235C31.7209 21.3274 31.7933 21.3258 31.86 21.3264C31.8838 21.3265 31.9092 21.3231 31.9306 21.3264C31.9386 21.3277 31.944 21.3264 31.9497 21.3264C31.9519 21.3264 31.9562 21.329 31.9585 21.329C32.0815 21.3314 32.1824 21.3309 32.3047 21.3388C32.3445 21.3415 32.3853 21.3344 32.4235 21.3405C32.4598 21.3458 32.511 21.3445 32.5516 21.3445C32.5623 21.3445 32.5738 21.3462 32.5852 21.3445C32.6108 21.3499 32.6485 21.3467 32.6818 21.3475C32.8432 21.3502 33.0249 21.3539 33.1912 21.3486C33.219 21.3479 33.2458 21.3459 33.272 21.3475C33.3027 21.3412 33.345 21.3462 33.3804 21.3445C33.3786 21.2944 33.3829 21.2436 33.3804 21.2006V21.2005Z" fill="#F06323"/>
<path fill-rule="evenodd" clip-rule="evenodd" d="M30.7507 21.083C30.748 21.0584 30.7459 21.0336 30.7445 21.0088C30.7384 20.966 30.7331 20.8965 30.7261 20.8445C30.7142 20.7867 30.7031 20.7288 30.6882 20.6742C30.6818 20.6284 30.6662 20.5922 30.657 20.5489C30.64 20.5056 30.623 20.4623 30.6078 20.417C30.5864 20.3718 30.564 20.3273 30.5431 20.2812C30.53 20.2626 30.519 20.2426 30.5102 20.2217C30.4967 20.2008 30.4831 20.1798 30.473 20.1553C30.4453 20.1168 30.4238 20.076 30.3967 20.038C30.3703 20.0003 30.3342 19.9688 30.3088 19.9309C30.2891 19.9104 30.2348 19.8644 30.2137 19.8473C30.1701 19.8121 30.1231 19.7812 30.0736 19.7549C30.0478 19.7411 30.0225 19.7315 29.9944 19.7162C29.9593 19.7002 29.9233 19.6865 29.8866 19.675C29.8504 19.6639 29.8106 19.6563 29.775 19.6479C29.727 19.6366 29.6775 19.6236 29.6295 19.6172C29.6188 19.6159 29.6076 19.6175 29.5967 19.6166C29.5171 19.6097 29.433 19.6024 29.3435 19.609C29.274 19.6223 29.2135 19.6399 29.1518 19.6565C29.0724 19.692 29.0178 19.7073 28.927 19.7745C28.836 19.8416 28.8384 19.8439 28.8041 19.8735C28.792 19.8838 28.7632 19.9222 28.7564 19.9293C28.7494 19.937 28.7371 19.9441 28.7302 19.9518C28.7033 19.982 28.6778 20.0134 28.6538 20.0459C28.64 20.0654 28.6237 20.0869 28.6116 20.1054C28.6049 20.1155 28.5919 20.1259 28.5821 20.1389C28.5491 20.1836 28.5185 20.2338 28.4918 20.283C28.4613 20.3392 28.4422 20.3895 28.4356 20.4043C28.4071 20.4648 28.379 20.5292 28.3657 20.6016C28.3449 20.6594 28.3362 20.7247 28.3243 20.79C28.3125 20.8611 28.304 20.9327 28.2986 21.0046C28.2935 21.0599 28.2912 21.1148 28.2853 21.1699C28.2797 21.2216 28.2683 21.274 28.275 21.327C28.5277 21.3208 28.7989 21.3176 29.065 21.3119C29.1412 21.3106 29.2184 21.3043 29.2935 21.3073C29.3913 21.3117 29.4878 21.3047 29.5827 21.3099C29.6269 21.3122 29.6729 21.3029 29.7168 21.3084C29.745 21.3119 29.779 21.3093 29.8115 21.3093C29.9179 21.3093 30.0171 21.3097 30.1142 21.3128C30.1169 21.3131 30.1198 21.3127 30.123 21.3127C30.1603 21.3132 30.192 21.3127 30.2255 21.3135C30.2439 21.3138 30.2668 21.3155 30.272 21.3154C30.2947 21.3134 30.3248 21.3163 30.3503 21.3177C30.3974 21.3208 30.4414 21.3163 30.4889 21.3191C30.5801 21.325 30.6619 21.3146 30.751 21.3193C30.7558 21.2409 30.7547 21.1691 30.7507 21.083Z" fill="#163B64"/>
</g>
<circle cx="20" cy="20" r="19.5" stroke="black" stroke-opacity="0.05"/>
<defs>
<clipPath id="clip0_9_402570">
<rect width="32" height="6.47934" fill="white" transform="translate(4 17)"/>
</clipPath>
</defs>
</svg>
