<svg width="40" height="40" viewBox="0 0 40 40" fill="none" xmlns="http://www.w3.org/2000/svg">
<circle cx="20" cy="20" r="20" fill="#FF08E1"/>
<path d="M31.0893 19.0865C31.0857 19.5602 31.0867 19.9794 31.0923 20.3441C31.1019 21.0037 31.6891 21.5544 32.3361 21.5981C32.3585 21.5993 32.3696 21.611 32.3696 21.6334V25.1026C32.3696 25.1301 32.3559 25.1435 32.3283 25.1427C29.9222 25.0816 27.7027 23.5709 27.2993 21.0917C27.2526 20.8052 27.2313 20.4103 27.2353 19.9072C27.242 19.0181 27.2422 18.0876 27.2359 17.1155C27.2323 16.5571 27.0012 15.9262 26.3919 15.849C25.7371 15.7658 25.378 16.3374 25.3325 16.9066C25.3105 17.1808 25.3055 17.4591 25.3175 17.7416C25.3178 17.7461 25.3198 17.7504 25.323 17.7535C25.3262 17.7566 25.3305 17.7584 25.3349 17.7584L26.5763 17.7644C26.5918 17.7644 26.5996 17.7721 26.5996 17.7877V20.9606C26.5996 20.9686 26.5956 20.9726 26.5876 20.9726L25.3355 20.972C25.3319 20.972 25.3284 20.9727 25.3252 20.9741C25.3219 20.9754 25.319 20.9775 25.3166 20.98C25.3142 20.9825 25.3123 20.9855 25.3111 20.9888C25.31 20.992 25.3095 20.9955 25.3097 20.9989C25.3905 22.2044 25.1278 23.2692 24.3018 24.1485C24.0145 24.455 23.6298 24.7032 23.1478 24.8931C22.6621 25.0846 22.1226 25.172 21.5293 25.1553C21.4866 25.1541 21.4654 25.1321 21.4658 25.0894C21.4726 22.4654 21.4718 19.8581 21.4634 17.2676C21.4622 16.7731 21.481 16.3931 21.5197 16.1273C22.05 12.518 26.7139 10.7104 29.5187 13.0502C30.3723 13.7616 30.8946 14.6808 31.0857 15.8077C31.0897 15.8296 31.1029 15.8406 31.1252 15.8406H32.3373C32.3416 15.8406 32.3458 15.8414 32.3497 15.8431C32.3536 15.8447 32.3572 15.8471 32.3602 15.8501C32.3632 15.8531 32.3656 15.8566 32.3672 15.8606C32.3688 15.8645 32.3696 15.8687 32.3696 15.8729V19.0297C32.3696 19.0351 32.3675 19.0403 32.3637 19.0441C32.3599 19.0479 32.3547 19.05 32.3493 19.05H31.1264C31.1021 19.05 31.0897 19.0622 31.0893 19.0865Z" fill="white"/>
<path d="M11.8495 21.9205C11.8501 22.9375 12.2002 24.0089 13.0149 24.6529C13.0596 24.6884 13.058 24.7216 13.0101 24.7523C12.2391 25.2467 11.1318 25.355 10.2663 25.1389C8.73103 24.7553 8.00439 23.363 8.00319 21.8619C8 18.9445 7.9992 15.874 8.0008 12.6502C8.0008 12.6456 8.00269 12.6412 8.00606 12.6379C8.00942 12.6346 8.01399 12.6328 8.01875 12.6328H11.8297C11.8345 12.6328 11.8391 12.6347 11.8424 12.6381C11.8458 12.6414 11.8477 12.646 11.8477 12.6508C11.8477 15.7497 11.8483 18.8396 11.8495 21.9205Z" fill="white"/>
<path d="M16.7095 24.3337C15.9242 25.1849 14.5392 24.9323 13.6731 24.3852C12.8184 23.8441 12.4903 22.835 12.4903 21.83C12.4903 19.7786 12.4901 17.7888 12.4897 15.8606C12.4897 15.8549 12.492 15.8494 12.4959 15.8454C12.4998 15.8414 12.5051 15.8391 12.5107 15.8391L16.2917 15.8385C16.304 15.8385 16.3157 15.8434 16.3243 15.8522C16.333 15.8609 16.3378 15.8728 16.3378 15.8852C16.3366 17.6892 16.3372 19.413 16.3396 21.0567C16.3396 21.2308 16.3863 21.5636 16.5994 21.6043C16.9083 21.663 16.9765 21.3482 16.9765 21.1123C16.9789 19.3614 16.9799 17.6144 16.9795 15.8714C16.9795 15.8633 16.9827 15.8555 16.9884 15.8498C16.9941 15.8441 17.0019 15.8409 17.01 15.8409L20.8084 15.8379C20.8127 15.8379 20.8168 15.8396 20.8198 15.8426C20.8229 15.8457 20.8246 15.8498 20.8246 15.8541C20.8298 18.1445 20.83 20.6191 20.8252 23.2779C20.824 23.9199 20.8156 24.3186 20.8 24.4738C20.5726 26.7567 19.0098 28.432 16.6844 28.6259C15.5643 28.7189 14.4987 28.6291 13.4875 28.3566C13.464 28.3502 13.4522 28.3346 13.4522 28.3099L13.4516 25.1777C13.4516 25.1549 13.4626 25.1474 13.4845 25.1549C14.0647 25.3636 14.6794 25.4644 15.3287 25.4572C16.1271 25.4482 16.6293 25.1795 16.7371 24.3463C16.7411 24.3136 16.7319 24.3094 16.7095 24.3337Z" fill="white"/>
<circle cx="20" cy="20" r="19.5" stroke="black" stroke-opacity="0.05"/>
</svg>
