<svg width="40" height="40" viewBox="0 0 40 40" fill="none" xmlns="http://www.w3.org/2000/svg">
<circle cx="20" cy="20" r="20" fill="#F6F8FA"/>
<path d="M31.2042 20.3265C31.6416 20.6561 32.0947 20.8957 32.0947 21.4202C32.0947 21.5718 31.9049 21.7219 31.4811 21.7219C31.1606 21.7219 30.811 21.6311 30.6498 21.3902C30.5185 21.21 30.7083 20.9711 30.5913 20.7909C30.5028 20.6408 30.3001 20.7155 30.1681 20.6408C30.0083 20.5514 29.9933 20.4759 29.8906 20.2518C29.7749 19.9822 29.3804 19.5324 28.913 19.0533C28.5198 18.6489 28.0967 18.4387 27.9069 18.454C27.7736 18.4687 27.7307 18.4687 27.5987 18.4687C27.2634 18.4687 26.9708 18.7991 26.4899 19.0086C26.1545 19.1573 25.9647 19.2481 25.7464 19.2782L25.6729 19.3683L26.1103 19.3536C26.5185 19.3536 27.0586 19.2928 27.4674 19.2928C27.8919 19.2928 28.0967 19.6825 28.2566 20.0869C28.579 20.9111 29.0593 22.0956 29.6294 23.0838C29.9055 23.549 30.1396 23.8486 30.1396 24.4199C30.1396 24.6001 30.1246 24.8403 29.8906 24.8403C29.5708 24.8403 28.7532 24.4953 28.7532 24.1196C28.7532 23.8332 28.9715 23.7145 28.9715 23.4295C28.9715 23.2493 28.7089 23.2794 28.6511 23.1152C28.447 22.2311 28.1987 21.3601 27.7157 20.8356C27.4674 20.566 27.4382 20.4459 27.1906 20.4459C27.0586 20.4459 26.9273 20.4759 26.811 20.5213C26.1402 20.7763 25.2498 21.5417 24.1409 21.886C23.7178 22.0208 23.6443 21.7666 23.2076 21.856H23.2368C22.8845 21.9307 22.6076 22.1403 22.1259 22.2758C21.4545 22.4713 20.3015 22.56 19.3831 22.4413C18.7266 22.3505 17.8783 22.2164 17.5137 22.2318C17.2368 23.0545 16.6382 24.1342 15.7634 24.5554C15.2967 24.7649 15.1504 25.0638 15.2967 25.603C15.4715 26.2756 16.0552 26.7714 16.3613 27.3406C16.6382 27.8337 17.0906 28.6139 17.5722 28.8688C18.0538 29.123 18.347 29.4973 18.347 29.8109C18.347 29.9611 18.2865 30.0512 18.1409 30.0512H17.179C17.1278 30.0533 17.077 30.0402 17.0329 30.0134C16.9887 29.9866 16.953 29.9474 16.93 29.9003C16.7987 29.6468 16.8865 29.4072 16.7117 29.1831C16.5797 29.0182 16.4777 29.0629 16.3171 28.9288C16.0259 28.6439 16.2443 28.4791 16.0259 28.1187C15.413 27.1311 15.1504 26.8916 14.6396 26.1862C14.3484 25.8125 13.9974 25.6316 13.9974 25.1385C13.9974 24.5407 14.5811 24.4352 14.5668 23.8332C14.1872 24.1196 13.7491 24.3438 13.077 24.4352C12.9892 24.4499 12.7552 24.6301 12.6532 24.7495C12.4198 24.9898 12.3334 25.2286 12.3028 25.5876C12.2307 26.3978 12.0708 27.2219 12.1715 28.0279C12.3028 28.5545 12.3919 28.7333 12.8137 29.0182C13.077 29.1977 13.3831 29.4526 13.4123 29.8263C13.4123 29.9311 13.3831 30.0512 13.2368 30.0512H12.2008C12.1562 30.0495 12.1127 30.0361 12.0745 30.0124C12.0363 29.9887 12.0046 29.9554 11.9824 29.9157C11.8654 29.7069 11.9389 29.5574 11.8953 29.3172C11.7933 28.8234 11.2532 28.8534 11.2532 28.345C11.2532 28.1941 11.3402 27.9992 11.3552 27.6843C11.3845 26.9963 11.5885 25.8865 11.3845 24.54C11.2967 23.7585 12.0851 23.7299 12.4933 23.0398C12.7409 22.6494 12.6681 22.8149 12.8137 22.5307C12.96 22.2311 12.9307 22.0208 12.9164 21.842C12.9164 21.6165 12.6974 21.1352 12.8436 20.1617C12.9021 19.7272 13.1055 19.2928 13.3831 18.9185C13.3831 18.9038 13.3831 18.8438 13.2947 18.8438C12.8865 18.8738 12.8865 18.769 12.6096 18.769C12.3477 18.769 12.143 18.9939 12.0994 19.1126C12.0446 19.085 11.9981 19.0427 11.9647 18.9902C11.9313 18.9378 11.9123 18.877 11.9096 18.8144C11.9096 18.6643 11.9389 18.5295 12.0845 18.3793C12.143 18.3192 12.0845 18.2899 12.0117 18.2899C11.6906 18.2899 11.3845 18.6943 11.311 18.9785C11.1212 18.9485 11.1069 18.6943 11.0191 18.6943C10.9321 18.6943 10.8736 18.8291 10.8736 18.9646C10.8736 19.9228 12.3919 20.1323 12.3919 21.3902C12.3919 22.845 10.6838 22.5446 10.6838 23.0692C10.6838 23.1739 10.7566 23.264 10.8885 23.3241C10.83 23.4596 10.6838 23.5196 10.5239 23.5196C10.1443 23.5196 9.86609 23.2347 9.86609 22.845C9.86609 22.0509 10.9021 22.0348 10.9021 21.4349C10.9021 21.1506 10.728 21.0612 10.5668 20.9257C9.57561 20.2064 9.02051 19.4877 9.02051 18.3046C9.02051 17.0314 9.88173 16.0557 11.0049 16.0557C12.6389 16.0557 12.6831 17.9896 14.1729 18.1544C14.7273 17.7654 15.3838 17.5405 16.0253 17.5405C16.9885 17.5405 17.411 17.7954 18.4341 17.7954C18.8436 17.7954 19.5294 17.676 20.3457 17.1068C20.6518 16.8973 20.7831 16.8519 21.06 16.597C21.7028 16.0257 22.3008 14.9173 22.3008 14.1246V14.1686C22.3008 13.9144 22.2423 13.7635 22.1259 13.7635C21.7756 13.7635 21.4695 14.0945 21.1191 14.4389C20.9001 14.6777 21.2348 14.7825 20.7396 15.0674C20.5647 15.1575 20.3606 14.992 20.1708 14.992C19.7763 14.992 19.6021 14.5136 19.6021 14.0945C19.6021 13.8836 19.7627 13.8236 19.8498 13.6294C20.0545 13.2243 20.0402 13.0756 20.2287 12.6705C20.3457 12.4002 20.5504 12.2214 20.5362 12.0265C20.5362 11.9525 20.4783 11.9071 20.4783 11.8324C20.4783 11.4252 21.0021 11.1563 21.0021 10.7519C21.0021 10.5271 20.7545 10.4223 20.696 10.2421C20.6375 10.0626 20.6817 10.0179 20.6817 10.0179C20.6886 10.0042 20.6991 9.99271 20.7119 9.9847C20.7247 9.97669 20.7395 9.97247 20.7545 9.97252C20.9586 9.97252 21.047 10.1974 21.2355 10.3168C21.2504 10.0479 21.1634 9.98788 21.1634 9.79302C21.1634 9.68826 21.1484 9.52344 21.2504 9.52344C21.3817 9.52344 21.3668 9.70363 21.4845 9.79302C21.6307 9.91245 21.7613 9.89779 21.9219 10.0025C22.1259 10.138 22.2423 10.3622 22.3157 10.3776C22.5198 10.4069 22.5783 10.152 22.4763 10.0025C22.7096 9.98788 22.943 10.1827 23.2511 10.1827C23.7328 10.1827 23.8933 10.3168 23.9811 10.3923C24.2872 10.6625 24.345 10.8714 24.6804 10.8714C24.8559 10.8714 24.9436 10.7212 24.9879 10.6619C25.2212 10.8406 25.2355 11.2904 24.9879 11.6655C25.0899 11.9818 25.5273 12.0112 25.7314 12.1613C25.9355 12.3108 25.9062 12.3862 26.0525 12.4756C26.1695 12.5511 26.2715 12.5364 26.3586 12.4756C26.4606 12.8947 26.1103 13.2697 25.6879 13.3298C25.7021 13.869 26.2572 14.1993 26.5042 14.3334C26.3586 14.6631 26.096 14.7671 25.8627 14.8279C25.9355 15.1575 26.2865 15.6366 26.1103 16.0711C25.9498 15.9956 25.7171 16.0711 25.7171 16.3106C25.7171 16.5802 26.0525 16.7178 25.7021 16.9112C25.5416 17.0013 25.5123 17.2409 25.8042 17.4658C26.1838 17.361 26.5484 17.3764 26.9708 17.3764C27.2341 17.3764 27.5845 17.301 27.8178 17.301C28.2572 17.301 28.5198 17.4805 28.8409 17.8401C29.6436 18.739 30.3729 19.6825 31.2042 20.3265Z" fill="#231F20"/>
<path d="M9.54634 17.9311C9.72185 17.9311 10.0429 16.9421 10.6987 16.9421C10.8885 16.9421 10.9321 17.0169 10.9321 17.0916C10.9321 17.2271 10.7137 17.3472 10.7137 17.5267C10.7137 17.5567 10.7273 17.6014 10.7865 17.6014C10.947 17.6014 11.064 17.2418 11.7198 17.2418C11.8953 17.2418 12.0409 17.2564 12.2008 17.3018C12.2742 17.3165 12.4198 17.3926 12.362 17.1824C12.2008 16.7186 11.7055 16.2814 11.0048 16.2814C10.3042 16.2814 9.5756 16.9282 9.48784 17.7062C9.47288 17.841 9.47288 17.9311 9.54634 17.9311ZM21.6599 11.7578C21.4695 11.681 21.4402 11.5762 21.4994 11.3367C21.5423 11.0825 21.5565 10.977 21.4402 10.947C21.3382 10.9169 21.2069 10.977 21.0756 11.1272C20.9586 11.2913 20.7688 11.4868 20.7103 11.651C20.6518 11.8626 20.9001 11.8325 20.7253 12.1769C20.4191 12.7461 20.3457 12.8662 20.2001 13.2706C20.0688 13.6903 19.9668 13.7504 19.894 13.8852C19.8055 14.0046 20.011 14.02 20.2436 13.9452C20.4926 13.8545 20.5062 14.1548 20.4191 14.3643C20.3457 14.5145 20.4042 14.5738 20.6082 14.409C20.798 14.2595 20.5062 14.1394 20.579 13.6603C20.6518 13.2252 20.7395 12.9863 21.0028 12.5519C21.2219 12.1769 21.411 11.9073 21.7899 12.0421C21.9361 12.1175 21.864 11.8479 21.6599 11.7578ZM29.7742 24.4808C29.847 24.4808 29.862 24.376 29.862 24.2845C29.862 24.075 29.7457 23.7593 29.5851 23.6245C29.5409 23.9402 29.3946 24.1498 29.3946 24.2845C29.3946 24.3914 29.6729 24.4808 29.7742 24.4808ZM31.5831 21.4672C31.7001 21.4672 31.8756 21.4211 31.8756 21.331C31.8756 21.1515 31.6123 20.8365 31.379 20.7618C31.5395 21.076 31.379 21.4672 31.5831 21.4672ZM23.5722 17.3772C25.2205 18.1553 25.1185 19.5786 25.2647 19.2183C25.3232 19.0688 25.5416 18.3655 24.9579 17.6915C24.5055 17.1517 24.3307 17.2865 24.5055 16.8381C25.2205 15.0536 25.6736 12.3564 23.5287 11.4114C23.2804 11.3066 23.0742 11.3066 23.0742 11.352C23.0742 11.3967 23.3096 11.4722 23.5872 11.6663C25.0164 12.6413 24.5783 15.2925 23.2661 16.5811C22.8259 17.0176 23.0307 17.1223 23.5722 17.3772ZM17.9368 29.7978C18.0538 29.7978 17.9946 29.6176 17.9511 29.5429C17.8491 29.3634 17.6599 29.244 17.4987 29.1685C17.5423 29.3487 17.5572 29.7971 17.7334 29.7971L17.9368 29.7978ZM12.96 29.7978C13.077 29.7978 12.9892 29.6176 12.9457 29.5429C12.8436 29.3634 12.6395 29.2586 12.4783 29.1832C12.5225 29.3634 12.5518 29.7978 12.7266 29.7978H12.96ZM18.9892 19.6534C19.894 19.5486 20.0395 19.3391 20.2001 18.6351C20.2729 18.3054 20.5062 17.9604 20.7103 17.7362C20.8423 17.5861 20.9736 17.4666 21.1048 17.2418C21.1484 17.1517 21.1776 17.0769 21.1048 17.1077C21.0028 17.1824 20.6967 17.3919 20.564 17.4967C19.9225 17.9604 18.945 18.1853 18.5511 18.1853C17.7178 18.1853 17.0028 17.9311 16.245 17.9311C13.9688 17.9311 13.1205 19.7588 13.2368 20.8225C13.2511 20.9866 13.2804 21.002 13.3389 21.002C13.5001 21.002 13.6327 20.3727 14.2021 19.8189C15.0334 19.0087 15.9382 18.545 17.2225 18.545C18.1565 18.545 18.5368 18.8593 18.5368 18.9794C18.5368 19.2183 18.1409 19.2343 18.1695 19.4739C18.1695 19.5486 18.3906 19.7281 18.9885 19.6541L18.9892 19.6534Z" fill="#656263"/>
<circle cx="20" cy="20" r="19.5" stroke="black" stroke-opacity="0.05"/>
</svg>
