<svg width="40" height="40" viewBox="0 0 40 40" fill="none" xmlns="http://www.w3.org/2000/svg">
<circle cx="20" cy="20" r="20" fill="#F6F8FA"/>
<g clip-path="url(#clip0_9_406599)">
<path d="M5.00391 15.333H8.07947V21.9111H12.3962V24.5446H5.00391V15.333Z" fill="#E1213A"/>
<path d="M16.5732 15.333H20.0172L21.8025 20.4999L23.5896 15.333H26.9731L23.242 24.605H20.3044L16.5732 15.333Z" fill="#E1213A"/>
<path d="M27.092 15.333H34.9301V17.8569H30.109V18.7921H34.6033V21.0175H30.109V22.0207H34.9906V24.5446H27.0825V15.333H27.092Z" fill="#E1213A"/>
<path d="M17.6441 13.5763C17.6157 13.6349 17.5364 13.8333 17.5364 13.8333C17.5364 13.8333 17.4967 13.9126 17.4363 13.9825L17.3475 14.0732L17.1586 14.2905L16.0874 15.3238L15.9873 15.424L15.651 15.7508C15.651 15.7508 15.6302 15.8018 15.6302 15.8604V16.1891C15.6302 16.1891 15.6397 16.2476 15.6 16.2873C15.5603 16.327 15.1447 16.6349 15.1447 16.6349C15.1447 16.6349 15.105 16.6651 15.0654 16.9939L14.6781 19.9353L14.8065 24.6242C15.0257 25.8371 15.0049 26.026 14.9652 26.0656C14.9161 26.1053 14.6478 26.1242 14.4986 26.1337C14.3796 26.145 14.1113 26.1337 14.0225 26.1053C13.9432 26.0751 13.9923 25.8767 13.9923 25.8767L14.032 25.7672L14.1812 25.3685H12.6642C12.6642 25.3685 12.634 25.3591 12.634 25.3194C12.634 25.3005 12.6926 25.1815 12.6926 25.1815C12.7133 25.1418 12.753 25.1211 12.753 25.1211L13.7751 24.6242L13.1308 22.6368L12.7927 19.6368L12.6434 19.5763C12.6038 19.5763 12.6038 19.5367 12.6038 19.5367L12.5244 16.7955C12.5244 16.735 12.4942 16.7048 12.4942 16.7048C12.4942 16.7048 12.0389 16.3383 12.0087 16.3081C11.9879 16.2779 11.9879 16.2382 11.9879 16.2382C11.9879 16.2382 11.9879 16.0984 11.9879 16.0493C11.9879 16.0001 11.969 15.9699 11.969 15.9699L11.7215 15.7319L10.8676 14.9668H10.8582L10.3424 14.5001L10.2518 14.4095C10.1837 14.3415 10.1422 14.2602 10.1422 14.2602L10.0439 13.8635C10.0439 13.8635 10.2423 13.5159 10.282 13.446C10.3217 13.3761 10.3916 13.4365 10.3916 13.4365C10.3916 13.4365 10.5899 13.5858 10.6995 13.6557C10.8072 13.7237 10.7977 13.8049 10.7977 13.8541C10.7977 13.9032 10.828 14.1714 10.828 14.1714C10.8374 14.281 10.8978 14.3207 10.8978 14.3207L12.2958 15.3635C12.6132 15.5524 12.991 15.781 12.991 15.781L13.4973 15.7413L13.5162 15.3144C13.5162 15.3144 13.3084 15.2653 13.2593 15.235C13.18 15.1859 13.1705 15.0858 13.1705 15.0858C13.1705 15.0858 13.1195 14.57 13.2782 14.043C13.3783 13.7237 13.6258 13.4063 13.8638 13.4554C13.8638 13.4554 14.3399 13.5253 14.5496 13.8049C14.5496 13.8049 14.6176 13.8729 14.6384 14.0335C14.6573 14.1015 14.6573 14.1412 14.6686 14.1714C14.6875 14.2206 14.697 14.2602 14.7177 14.3301C14.7366 14.3811 14.7669 14.4208 14.7971 14.4605C14.8273 14.4888 14.8764 14.519 14.8764 14.519C14.8764 14.519 14.816 14.5587 14.7574 14.5587C14.6875 14.5587 14.6573 14.519 14.6573 14.519C14.6573 14.519 14.6686 14.5587 14.6875 14.6097C14.7083 14.6588 14.7272 14.6891 14.7763 14.7287C14.8273 14.7684 14.8764 14.7967 14.8764 14.7967C14.8764 14.7967 14.7971 14.8666 14.748 14.8666C14.7272 14.8666 14.7669 14.9063 14.7876 14.9365C14.8273 14.9762 14.9256 15.0367 14.9256 15.0367C14.9256 15.0367 14.8953 15.0763 14.867 15.0952C14.8368 15.116 14.7876 15.1349 14.7366 15.1349C14.6686 15.1349 14.5893 15.0858 14.5893 15.0858C14.5893 15.0858 14.578 15.1557 14.578 15.1954C14.578 15.235 14.6082 15.3049 14.6082 15.3049C14.6082 15.3049 14.5288 15.3238 14.4797 15.3144C14.44 15.3049 14.3796 15.2445 14.3399 15.2256L14.3116 15.5921L14.8557 15.3238L15.0748 15.2747L16.8412 13.9032C16.8601 13.8729 16.8903 13.8238 16.8997 13.7653C16.8997 13.7653 16.93 13.497 16.93 13.446C16.93 13.4063 16.9205 13.3175 17.0301 13.2476C17.1397 13.1777 17.338 13.0285 17.338 13.0285C17.338 13.0285 17.3966 12.9794 17.4363 13.0493C17.4759 13.1192 17.6743 13.4668 17.6743 13.4668C17.6743 13.4668 17.7045 13.5367 17.6441 13.5763Z" fill="#010101"/>
</g>
<circle cx="20" cy="20" r="19.5" stroke="black" stroke-opacity="0.05"/>
<defs>
<clipPath id="clip0_9_406599">
<rect width="30" height="13.1486" fill="white" transform="translate(5 13)"/>
</clipPath>
</defs>
</svg>
