<svg width="40" height="40" viewBox="0 0 40 40" fill="none" xmlns="http://www.w3.org/2000/svg">
<circle cx="20" cy="20" r="20" fill="#F6F8FA"/>
<path d="M7.01025 24.353V15.6484H11.9656L16.8985 20.0111L11.9656 24.353H7.01025Z" fill="url(#paint0_linear_9_402515)"/>
<path d="M17.0347 32.9885L9.5 28.6483L11.9656 24.3529L18.2097 22.2715L19.5003 28.7155L17.0347 32.9885Z" fill="url(#paint1_linear_9_402515)"/>
<path d="M29.5249 28.6483L21.9902 32.9885L19.5005 28.7155L20.8134 22.2715L27.0575 24.3529L29.5249 28.6483Z" fill="url(#paint2_linear_9_402515)"/>
<path d="M31.9904 15.6484V24.353H27.0574L22.1245 20.0111L27.0574 15.6484H31.9904Z" fill="url(#paint3_linear_9_402515)"/>
<path d="M21.9902 7.01074L29.5249 11.3751L27.0575 15.6481L20.8134 17.7502L19.5005 11.3062L21.9902 7.01074Z" fill="url(#paint4_linear_9_402515)"/>
<path d="M9.5 11.3751L17.0347 7.01074L19.5003 11.3062L18.2097 17.7502L11.9656 15.6481L9.5 11.3751Z" fill="url(#paint5_linear_9_402515)"/>
<circle cx="20" cy="20" r="19.5" stroke="black" stroke-opacity="0.05"/>
<defs>
<linearGradient id="paint0_linear_9_402515" x1="7.01542" y1="20.0042" x2="16.8934" y2="20.0042" gradientUnits="userSpaceOnUse">
<stop stop-color="#F08B1D"/>
<stop offset="0.1" stop-color="#F18D21"/>
<stop offset="0.2" stop-color="#F1922D"/>
<stop offset="0.4" stop-color="#F39C42"/>
<stop offset="0.5" stop-color="#F5AA5F"/>
<stop offset="0.7" stop-color="#F8BD81"/>
<stop offset="0.9" stop-color="#FBD5AD"/>
<stop offset="1" stop-color="#FEEFE0"/>
</linearGradient>
<linearGradient id="paint1_linear_9_402515" x1="13.2665" y1="30.821" x2="18.2046" y2="22.2698" gradientUnits="userSpaceOnUse">
<stop stop-color="#F08B1D"/>
<stop offset="0.1" stop-color="#F18D21"/>
<stop offset="0.2" stop-color="#F1922D"/>
<stop offset="0.4" stop-color="#F39C42"/>
<stop offset="0.5" stop-color="#F5AA5F"/>
<stop offset="0.7" stop-color="#F8BD81"/>
<stop offset="0.9" stop-color="#FBD5AD"/>
<stop offset="1" stop-color="#FEEFE0"/>
</linearGradient>
<linearGradient id="paint2_linear_9_402515" x1="25.755" y1="30.8158" x2="20.8186" y2="22.2663" gradientUnits="userSpaceOnUse">
<stop stop-color="#F08B1D"/>
<stop offset="0.1" stop-color="#F18D21"/>
<stop offset="0.2" stop-color="#F1922D"/>
<stop offset="0.4" stop-color="#F39C42"/>
<stop offset="0.5" stop-color="#F5AA5F"/>
<stop offset="0.7" stop-color="#F8BD81"/>
<stop offset="0.9" stop-color="#FBD5AD"/>
<stop offset="1" stop-color="#FEEFE0"/>
</linearGradient>
<linearGradient id="paint3_linear_9_402515" x1="31.9956" y1="20.0042" x2="22.1176" y2="20.0042" gradientUnits="userSpaceOnUse">
<stop stop-color="#F08B1D"/>
<stop offset="0.1" stop-color="#F18D21"/>
<stop offset="0.2" stop-color="#F1922D"/>
<stop offset="0.4" stop-color="#F39C42"/>
<stop offset="0.5" stop-color="#F5AA5F"/>
<stop offset="0.7" stop-color="#F8BD81"/>
<stop offset="0.9" stop-color="#FBD5AD"/>
<stop offset="1" stop-color="#FEEFE0"/>
</linearGradient>
<linearGradient id="paint4_linear_9_402515" x1="25.755" y1="9.20067" x2="20.8203" y2="17.7485" gradientUnits="userSpaceOnUse">
<stop stop-color="#F08B1D"/>
<stop offset="0.1" stop-color="#F18D21"/>
<stop offset="0.2" stop-color="#F1922D"/>
<stop offset="0.4" stop-color="#F39C42"/>
<stop offset="0.5" stop-color="#F5AA5F"/>
<stop offset="0.7" stop-color="#F8BD81"/>
<stop offset="0.9" stop-color="#FBD5AD"/>
<stop offset="1" stop-color="#FEEFE0"/>
</linearGradient>
<linearGradient id="paint5_linear_9_402515" x1="13.2699" y1="9.19033" x2="18.2046" y2="17.7381" gradientUnits="userSpaceOnUse">
<stop stop-color="#F08B1D"/>
<stop offset="0.1" stop-color="#F18D21"/>
<stop offset="0.2" stop-color="#F1922D"/>
<stop offset="0.4" stop-color="#F39C42"/>
<stop offset="0.5" stop-color="#F5AA5F"/>
<stop offset="0.7" stop-color="#F8BD81"/>
<stop offset="0.9" stop-color="#FBD5AD"/>
<stop offset="1" stop-color="#FEEFE0"/>
</linearGradient>
</defs>
</svg>
