<svg width="40" height="40" viewBox="0 0 40 40" fill="none" xmlns="http://www.w3.org/2000/svg">
<circle cx="20" cy="20" r="20" fill="#CF202E"/>
<path d="M19.1191 20.6936L20.5218 13.6668H24.5736C23.6185 9.69036 21.7666 7 19.6541 7C16.818 7 14.4757 11.8303 14.0693 18.1198H18.0629L19.1191 20.6936Z" fill="white"/>
<path d="M22.4032 15.9795L19.8431 28.5602L16.544 20.4617H14.0269C14.128 27.432 16.6161 32.9996 19.6545 32.9996C22.765 32.9996 25.2976 27.1713 25.2976 20.0005C25.2976 18.5978 25.1964 17.2518 25.0215 15.9795H22.4032Z" fill="white"/>
<path d="M20.522 13.667L19.1193 20.6938L18.0768 18.1355H14.0695C14.0695 18.1355 14.0404 18.4819 14.013 19.2055C13.9838 19.9274 14.013 20.4778 14.013 20.4778H16.5301L19.8275 28.5763L22.3893 15.9956H25.0076C25.0076 15.9956 24.9064 15.2291 24.819 14.737C24.7333 14.2311 24.5738 13.667 24.5738 13.667H20.522Z" fill="#CF202E"/>
<circle cx="20" cy="20" r="19.5" stroke="black" stroke-opacity="0.05"/>
</svg>
