<svg width="40" height="40" viewBox="0 0 40 40" fill="none" xmlns="http://www.w3.org/2000/svg">
<circle cx="20" cy="20" r="20" fill="#FF0028"/>
<path d="M16.4231 19.4888L16.3047 21.4934L17.5516 21.1592L16.4466 19.4824L16.4231 19.4888Z" fill="white"/>
<path d="M30.5069 20.6935L32.0003 19.8009L31.4437 19.4913L28.7562 20.2113L27.5234 15.6132L28.344 15.3934L29.3773 19.2503L30.4802 18.9548L31.8069 17.8292L30.169 17.2425L31.2949 15.9158L29.5826 15.6057L30.4736 14.111L28.7338 14.0889L29.3645 12.4675L27.645 12.7342L28.0002 11.0294L26.3469 11.5734L26.4181 9.83495L24.877 10.643L24.6637 8.91628L23.277 9.96589L22.7791 8.29814L21.5839 9.56268L20.8185 8L19.8497 9.44508L18.8364 8.03173L18.118 9.61548L16.8878 8.3848L16.4369 10.0648L15.0217 9.05335L14.8547 10.7851L13.2913 10.0219L13.4139 11.7576L11.7456 11.263L12.1523 12.9547L10.4256 12.7414L11.104 14.3438L9.36535 14.4155L10.2971 15.8849L8.59387 16.2401L9.75495 17.5364L8.13333 18.1692L9.49335 19.2551L8 20.1476L9.52002 20.9935L8.19387 22.1194L9.83175 22.706L8.70614 24.0332L10.4182 24.3434L9.52722 25.8367L11.2672 25.8586L10.6363 27.4816L12.3558 27.2149L12 28.9192L13.6534 28.3736L13.5822 30.112L15.123 29.3069L15.3363 31.0336L16.723 29.984L17.2188 31.6517L18.414 30.3872L19.1793 31.9499L20.1481 30.5045L21.1615 31.9179L21.8799 30.333L23.11 31.5637L23.561 29.8837L24.9765 30.8957L25.1431 29.1637L26.7066 29.9272L26.5869 28.1909L28.2552 28.6856L27.8485 26.9935L29.5752 27.2069L28.8968 25.6045L30.6355 25.5327L29.7037 24.0634L31.4061 23.7068L30.2453 22.4108L31.8669 21.7794L30.5069 20.6935ZM14.2497 24.0983L13.3011 20.5585L13.1977 24.3802L12.4859 24.5709L10.4859 21.3129L11.4342 24.8535L10.6134 25.0727L9.38135 20.4743L10.6259 20.1409L12.4958 23.1842L12.5934 19.6137L13.8379 19.2801L15.0702 23.8786L14.2497 24.0983ZM18.7031 22.9052L18.0001 21.8402L16.2572 22.3074L16.182 23.5818L15.3601 23.801L15.7212 18.7759L16.6996 18.5135L19.5263 22.685L18.7031 22.9052ZM22.477 17.7657L23.509 21.6175L22.6884 21.8372L21.6564 17.9854L19.9764 18.4356L21.0084 22.2874L20.1881 22.5068L19.1561 18.6553L17.8401 19.0084L17.6401 18.2617L23.594 16.6668L23.7943 17.4134L22.477 17.7657ZM25.2383 21.154L24.006 16.5556L26.9551 15.7654L27.1551 16.5121L25.0266 17.0825L25.3199 18.1777L27.2751 17.6534L27.4738 18.395L25.5202 18.9193L25.8586 20.1868L28.0269 19.6063L28.2269 20.3529L25.2383 21.154Z" fill="white"/>
<path d="M23.5939 16.666L17.6387 18.2618L17.8387 19.0084L19.156 18.6554L20.188 22.5071L21.0086 22.2874L19.9766 18.4356L21.6563 17.9855L22.6883 21.8373L23.5089 21.6173L22.4769 17.7658L23.7942 17.4127L23.5939 16.666Z" fill="#FF0028"/>
<path d="M12.5934 19.6139L12.4958 23.1843L10.6259 20.1411L9.38135 20.4744L10.6134 25.0729L11.4342 24.8529L10.4856 21.3131L12.4859 24.571L13.1977 24.3803L13.3011 20.5587L14.2497 24.0985L15.0702 23.8787L13.8382 19.2803L12.5934 19.6139Z" fill="#FF0028"/>
<path d="M28.0278 19.6065L25.8584 20.1875L25.5187 18.9195L27.4736 18.3958L27.275 17.6542L25.32 18.1782L25.0267 17.0827L27.155 16.5123L26.955 15.7656L24.0059 16.5558L25.2381 21.1542L28.2278 20.3531L28.0278 19.6065Z" fill="#FF0028"/>
<path d="M16.6993 18.5137L15.7209 18.7761L15.3604 23.8012L16.1825 23.5809L16.2577 22.3065L18.0004 21.8404L18.7028 22.9071L19.5249 22.6868L16.6993 18.5137ZM16.3052 21.4937L16.4236 19.4891L16.447 19.4827L17.5521 21.1596L16.3052 21.4937Z" fill="#FF0028"/>
<path d="M29.3773 19.2504L28.344 15.3936L27.5234 15.6133L28.7557 20.2117L31.4435 19.4915L30.4795 18.9552V18.9549L29.3773 19.2504Z" fill="#FF0028"/>
<path d="M29.0811 28.3605H29.0024V27.8824H29.1838C29.2295 27.8792 29.2752 27.8905 29.3142 27.9146C29.3295 27.9272 29.3415 27.9434 29.3492 27.9617C29.3569 27.98 29.36 27.9999 29.3582 28.0197C29.3597 28.0371 29.3573 28.0547 29.3511 28.0711C29.3449 28.0875 29.3351 28.1022 29.3224 28.1144C29.297 28.135 29.266 28.1475 29.2334 28.1504L29.3667 28.3605H29.2776L29.1542 28.156H29.0803L29.0811 28.3605ZM29.1688 28.089C29.1835 28.089 29.1974 28.089 29.211 28.0874C29.2232 28.0864 29.2352 28.0831 29.2462 28.0776C29.2561 28.0723 29.2645 28.0645 29.2704 28.0549C29.2772 28.0424 29.2804 28.0283 29.2795 28.0141C29.2802 28.0018 29.2768 27.9896 29.2699 27.9794C29.2633 27.971 29.2548 27.9643 29.2451 27.9597C29.2345 27.955 29.2231 27.9521 29.2115 27.9511C29.1996 27.9499 29.1877 27.9493 29.1758 27.9493H29.0811V28.089H29.1688Z" fill="white"/>
<path d="M29.1674 28.5575C29.0813 28.5575 28.9971 28.5319 28.9255 28.4841C28.8539 28.4362 28.798 28.3682 28.7651 28.2886C28.7321 28.2091 28.7235 28.1215 28.7403 28.037C28.7571 27.9526 28.7986 27.875 28.8595 27.8141C28.9204 27.7532 28.998 27.7117 29.0824 27.6949C29.1669 27.6781 29.2545 27.6867 29.3341 27.7197C29.4136 27.7526 29.4816 27.8084 29.5295 27.8801C29.5773 27.9517 29.6029 28.0359 29.6029 28.122C29.6027 28.2374 29.5568 28.3481 29.4752 28.4298C29.3935 28.5114 29.2829 28.5573 29.1674 28.5575ZM29.1674 27.7628C29.0963 27.7628 29.0268 27.7839 28.9677 27.8234C28.9085 27.8629 28.8625 27.9191 28.8353 27.9848C28.8081 28.0505 28.801 28.1228 28.8149 28.1925C28.8288 28.2622 28.863 28.3263 28.9133 28.3765C28.9636 28.4268 29.0277 28.461 29.0974 28.4749C29.1672 28.4887 29.2395 28.4815 29.3052 28.4543C29.3708 28.427 29.427 28.3809 29.4664 28.3218C29.5059 28.2626 29.5269 28.1931 29.5269 28.122C29.5268 28.0267 29.4889 27.9353 29.4215 27.868C29.3541 27.8006 29.2627 27.7628 29.1674 27.7628Z" fill="white"/>
<circle cx="20" cy="20" r="19.5" stroke="black" stroke-opacity="0.05"/>
</svg>
