<svg width="40" height="40" viewBox="0 0 40 40" fill="none" xmlns="http://www.w3.org/2000/svg">
<circle cx="20" cy="20" r="20" fill="#0977C2"/>
<path d="M10.357 22.8571H9.28557V20.1785C9.28557 19.6357 9.157 18.8785 8.44272 18.8785C7.657 18.8785 7.49986 19.7428 7.49986 20.3499V22.8571H6.42843V20.1785C6.42843 19.6357 6.33557 18.8785 5.62129 18.8785C4.83557 18.8785 4.64272 19.7428 4.64272 20.3499V22.8571H3.57129V17.8571H4.357L4.71415 18.4285C5.11415 17.9714 5.56415 17.8571 5.94272 17.8571C6.46415 17.8571 6.94272 18.1 7.23557 18.5785C7.40134 18.347 7.62174 18.1599 7.8772 18.0341C8.13265 17.9082 8.41525 17.8474 8.69986 17.8571C9.307 17.8571 9.82843 18.1357 10.0927 18.6214C10.1856 18.7857 10.357 19.1428 10.357 19.8428V22.8571ZM36.4284 19.8642V22.8571H35.357V20.1428C35.357 19.1 34.7999 18.8785 34.357 18.8785C33.8284 18.8785 33.2141 19.1714 33.2141 20.5214V22.8571H32.1427V17.8571H32.9427L33.2999 18.4285C33.7927 17.8928 34.3641 17.8571 34.6427 17.8571C35.5713 17.8571 35.9713 18.3 36.1284 18.5071C36.3141 18.7928 36.4284 19.1214 36.4284 19.8642ZM30.357 20.3571C30.357 21.2714 29.7856 21.8714 28.9284 21.8714C28.0713 21.8714 27.4999 21.2714 27.4999 20.3571C27.4999 19.2785 28.257 18.8428 28.9284 18.8428C29.5999 18.8428 30.357 19.2714 30.357 20.3571ZM31.4284 20.3571C31.4383 20.0261 31.3804 19.6966 31.2583 19.3888C31.1361 19.081 30.9524 18.8015 30.7182 18.5673C30.4841 18.3332 30.2045 18.1494 29.8967 18.0272C29.5889 17.9051 29.2594 17.8472 28.9284 17.8571C28.5972 17.8462 28.2672 17.9033 27.9589 18.0251C27.6507 18.1469 27.3707 18.3306 27.1363 18.565C26.902 18.7994 26.7182 19.0793 26.5965 19.3876C26.4747 19.6959 26.4175 20.0258 26.4284 20.3571C26.4185 20.6881 26.4764 21.0176 26.5986 21.3254C26.7207 21.6332 26.9045 21.9127 27.1387 22.1469C27.3728 22.381 27.6524 22.5648 27.9601 22.6869C28.2679 22.8091 28.5974 22.867 28.9284 22.8571C30.3284 22.8571 31.4284 21.7928 31.4284 20.3571ZM23.757 18.7714C22.9499 18.7714 22.6427 19.4 22.5856 19.8214H24.8427C24.8427 19.3357 24.4856 18.7714 23.757 18.7714ZM25.9499 20.7142H22.507C22.507 21.3142 23.0641 21.8714 23.8141 21.8714C24.357 21.8714 24.7641 21.5928 25.0284 21.15L25.6784 21.9785C25.445 22.2694 25.1458 22.5006 24.8056 22.6534C24.4654 22.8061 24.0938 22.8759 23.7213 22.8571C22.3641 22.8571 21.4284 21.7857 21.4284 20.4499C21.4284 19.1071 22.357 17.8571 23.757 17.8571C25.2284 17.8571 25.9499 19.1714 25.9499 20.6V20.7142ZM21.4356 22.8571L19.4784 20.3642L21.4284 17.8571H20.0499L18.7713 19.4714L17.4999 17.8571H16.1284L18.0927 20.3642L16.1427 22.8571H17.5356L18.7999 21.2571L20.0427 22.8571H21.4284H21.4356ZM13.2499 21.8714C13.9999 21.8714 14.6427 21.3642 14.6427 20.3714C14.6427 19.3285 13.9784 18.8428 13.2499 18.8428C12.4641 18.8428 11.9641 19.4928 11.9641 20.3428C11.9641 21.1642 12.4499 21.8714 13.2499 21.8714ZM15.7141 22.8571H14.6427V22.2142C14.157 22.7857 13.5213 22.8571 13.1784 22.8571C11.6999 22.8571 10.8784 21.6357 10.8784 20.3357C10.8784 18.9499 11.857 17.8571 13.2499 17.8571C13.578 17.845 13.905 17.9009 14.2104 18.0213C14.5158 18.1418 14.793 18.3242 15.0245 18.557C15.256 18.7898 15.4368 19.0681 15.5555 19.3742C15.6741 19.6803 15.7282 20.0076 15.7141 20.3357V22.8571Z" fill="white"/>
<circle cx="20" cy="20" r="19.5" stroke="black" stroke-opacity="0.05"/>
</svg>
