<svg width="40" height="40" viewBox="0 0 40 40" fill="none" xmlns="http://www.w3.org/2000/svg">
<circle cx="20" cy="20" r="20" fill="#002496"/>
<g clip-path="url(#clip0_9_397369)">
<path d="M14.5824 13.7139H20.571V18.1139L22.2853 13.7139H28.571V26.2853H24.3139C24.7996 25.8853 25.3767 25.0282 25.5824 23.7596C24.3552 24.8461 22.8698 25.5996 21.2682 25.9482L21.1424 26.2853H17.011V18.1139L13.971 26.2853H9.71387L14.5824 13.7139ZM21.7539 24.9882C23.1139 24.771 24.691 23.7139 25.6567 22.931C25.6682 22.3767 25.611 21.771 25.4624 21.1024C24.7484 21.9093 23.7527 22.4123 22.6796 22.5082L21.7539 24.9882ZM23.051 21.5082C23.6796 21.3824 24.5482 21.051 25.2567 20.3196C25.0135 19.556 24.6977 18.8174 24.3139 18.1139L23.051 21.5082Z" fill="#FFFFFD"/>
</g>
<circle cx="20" cy="20" r="19.5" stroke="black" stroke-opacity="0.05"/>
<defs>
<clipPath id="clip0_9_397369">
<rect width="20" height="14" fill="white" transform="translate(9 13)"/>
</clipPath>
</defs>
</svg>
