<svg width="40" height="40" viewBox="0 0 40 40" fill="none" xmlns="http://www.w3.org/2000/svg">
<circle cx="20" cy="20" r="20" fill="white"/>
<g clip-path="url(#clip0_9_386462)">
<mask id="mask0_9_386462" style="mask-type:luminance" maskUnits="userSpaceOnUse" x="4" y="5" width="124" height="30">
<path d="M4.99316 5.87402H127.794V34.4751H4.99316V5.87402Z" fill="white"/>
</mask>
<g mask="url(#mask0_9_386462)">
<path d="M34.7516 22.0614C33.7863 28.9622 27.5341 34.289 19.9583 34.289C11.7149 34.289 5.03223 27.9818 5.03223 20.2011C5.03223 12.4205 11.7149 6.11328 19.9583 6.11328C21.4753 6.11328 22.9374 6.32946 24.316 6.7258L34.7516 22.0614Z" fill="white"/>
<path fill-rule="evenodd" clip-rule="evenodd" d="M34.9886 21.328C34.9336 23.0215 34.6719 23.378 34.1618 24.5537L34.1599 24.5992C34.1599 24.5992 29.1744 16.6915 26.5177 12.5215C26.1479 11.9431 25.0404 10.7199 23.8097 12.4703C22.6909 14.0613 21.2629 16.0695 21.2629 16.0695L30.3236 30.3887C27.572 32.9545 23.8552 34.4753 19.6928 34.4014C15.4013 34.3274 11.639 32.615 8.96329 29.8084C8.96329 29.8084 12.8356 24.4532 12.8773 24.3925C13.5354 23.3969 12.6687 22.4127 12.6687 22.4127L9.78251 17.8938L5.52334 23.871C5.17063 22.6213 4.99237 21.3053 5.01702 19.9494C5.15356 12.1118 11.9462 5.87481 20.1877 6.01703C22.4728 6.05686 24.2496 6.50818 26.1706 7.41463L34.9886 21.328ZM16.3799 12.4816C16.0101 11.9033 14.9026 10.6801 13.6719 12.4323C12.5531 14.0234 11.1251 16.0297 11.1251 16.0297L18.7996 28.1074C18.7996 28.1074 19.8862 30.4247 21.3615 28.4184C21.608 28.0828 24.0202 24.5613 24.0202 24.5613C24.0202 24.5613 19.0366 16.6517 16.3799 12.4816Z" fill="#EE2223"/>
</g>
</g>
<circle cx="20" cy="20" r="19.5" stroke="black" stroke-opacity="0.05"/>
<defs>
<clipPath id="clip0_9_386462">
<rect width="30" height="28.4071" fill="white" transform="translate(5 6)"/>
</clipPath>
</defs>
</svg>
