<svg width="40" height="40" viewBox="0 0 40 40" fill="none" xmlns="http://www.w3.org/2000/svg">
<circle cx="20" cy="20" r="20" fill="#0027A0"/>
<g clip-path="url(#clip0_9_410456)">
<path d="M15.6436 22.503C14.4962 22.6102 13.9357 21.4614 13.8481 20.3553C13.7287 18.8434 14.4677 18.2456 15.1822 18.1798C16.2733 18.078 16.8718 19.1895 16.9621 20.3363C17.0774 21.8068 16.3955 22.4324 15.6436 22.503ZM12.9687 20.3845C12.9687 21.7416 13.8827 22.8273 15.4231 22.8273C16.8243 22.8273 17.8395 21.7728 17.8395 20.3207C17.8395 19.0043 17.0238 17.8554 15.4238 17.8554C13.9811 17.8554 12.9687 18.9541 12.9687 20.3845ZM34.4638 16.6014C34.4638 16.0423 34.1082 15.5693 33.697 15.5693C33.3116 15.5693 33.2213 15.8476 33.2213 16.0118C33.2213 16.2133 33.3523 16.3015 33.4887 16.3124C33.6787 16.3246 33.9861 16.5058 33.9861 16.9163C33.9861 17.3553 33.5993 17.658 33.2308 17.8398C33.182 17.9145 33.2207 18.0244 33.3007 18.0658C33.9257 17.8629 34.4638 17.3438 34.4638 16.6014ZM36.1568 20.0934L35.5414 19.7487C35.1437 19.5227 34.8784 19.2852 34.8784 18.9018C34.8784 18.5354 35.0956 18.1662 35.6812 18.1662C36.2681 18.1662 36.526 18.7159 36.6088 19.0925C36.6556 19.1671 36.8341 19.1563 36.868 19.0721C36.8734 18.6093 36.8049 18.1988 36.7255 18.0163C36.6244 17.9967 36.524 17.9743 36.4242 17.9491C36.2233 17.9009 36.0367 17.8554 35.7999 17.8554C34.799 17.8554 34.2372 18.4037 34.2372 19.1895C34.2372 19.7928 34.647 20.2121 35.1247 20.4795L35.5712 20.7292C36.1392 21.0413 36.2681 21.3962 36.2681 21.7409C36.2681 22.2349 35.9404 22.5166 35.4335 22.5166C34.7671 22.5166 34.3308 21.7525 34.25 21.3643C34.1795 21.2659 34.0309 21.2761 33.9922 21.3874C33.9922 21.9561 34.1103 22.3442 34.2005 22.4935C34.3396 22.6 34.7386 22.8273 35.3432 22.8273C36.3278 22.8273 36.9643 22.3001 36.9643 21.4614C36.9643 20.7401 36.5158 20.2874 36.1568 20.0934ZM25.6994 22.4182C24.9394 22.4182 24.75 22.0734 24.75 21.3867V18.8238C24.75 18.5849 24.7582 18.4485 24.8152 18.4031C24.8966 18.3304 25.1701 18.2863 25.4992 18.2863C26.6209 18.2863 27.4759 18.9758 27.4759 20.299C27.4759 21.61 26.8903 22.4182 25.6994 22.4182ZM26.9893 18.211C26.5225 18.038 26.0346 17.9647 25.4782 17.9647H23.5592C23.4709 17.9966 23.4587 18.2422 23.5483 18.2748L23.8462 18.3176C24.0715 18.3488 24.0715 18.5571 24.0715 19.2248V21.5489C24.0715 22.2892 24.0457 22.332 23.6182 22.4073L23.4282 22.4392C23.3603 22.4935 23.3705 22.6781 23.4479 22.7079C23.4479 22.7079 24.917 22.7147 25.6587 22.7147C26.154 22.7147 26.7104 22.6475 27.1583 22.3958C27.9556 21.9561 28.3614 21.1703 28.3614 20.3207C28.3614 19.33 27.8939 18.5435 26.9893 18.211ZM20.984 22.503C19.8365 22.6102 19.2753 21.4614 19.1885 20.3553C19.069 18.8434 19.8087 18.2456 20.5219 18.1798C21.6137 18.078 22.2115 19.1895 22.3011 20.3363C22.4178 21.8068 21.7365 22.4324 20.984 22.503ZM20.7634 17.8548C19.3228 17.8548 18.309 18.9541 18.309 20.3845C18.309 21.7416 19.2224 22.8273 20.7634 22.8273C22.164 22.8273 23.1798 21.7728 23.1798 20.3207C23.1798 19.0043 22.3655 17.8554 20.7634 17.8554V17.8548ZM12.0268 21.6032L12.0316 21.6772C12.0574 22.1359 12.0709 22.3788 12.5141 22.4263L12.8337 22.4562C12.892 22.5179 12.8825 22.6706 12.814 22.7106H10.4376C10.3671 22.6624 10.3576 22.5179 10.4186 22.4562L10.705 22.4263C11.1793 22.3774 11.1793 22.2214 11.1786 21.61V17.3153H11.1413C11.1006 17.3784 10.9622 17.6702 10.8122 17.983C10.6996 18.2192 10.5808 18.4675 10.4953 18.6378L9.60976 20.4198C9.16462 21.3182 8.71541 22.2736 8.53559 22.7418C8.51726 22.7737 8.47791 22.7832 8.43719 22.7832C8.41819 22.7832 8.36798 22.7737 8.34898 22.7418C8.20241 22.2818 7.83191 21.4831 7.58491 20.9504L7.47159 20.7061L6.57927 18.7389C6.48698 18.5354 6.39605 18.3196 6.30376 18.1018C6.18501 17.8208 6.06491 17.5372 5.94141 17.2732H5.92105C5.89187 17.753 5.86812 18.2097 5.84437 18.6609L5.82266 19.0864C5.78105 19.8835 5.75797 20.6815 5.75344 21.4797C5.75344 22.2329 5.81112 22.3964 6.20062 22.4263L6.57927 22.4562C6.6478 22.5179 6.63762 22.6821 6.56773 22.7106H4.45059C4.38951 22.6624 4.36848 22.5077 4.43023 22.4562L4.64873 22.4263C5.06605 22.3761 5.20516 22.3042 5.26555 21.5923C5.32594 20.9185 5.3748 20.3594 5.43316 19.3497C5.47794 18.5937 5.51459 17.8364 5.54309 17.0798C5.5648 16.4379 5.48337 16.3063 4.87605 16.2038L4.71862 16.1834C4.66773 16.1224 4.67791 15.9704 4.75798 15.9297H6.42862C6.38791 16.3259 6.57926 16.9591 6.88598 17.6098L8.01919 19.9631L8.13455 20.2047C8.32251 20.5982 8.50641 20.9843 8.70659 21.3562H8.72559C8.97462 20.9151 9.20737 20.4252 9.43809 19.9414L9.49101 19.8287L10.4261 17.8839L10.5482 17.6376C10.933 16.8647 11.163 16.4026 11.1813 15.9297H12.814C12.8737 15.9704 12.8737 16.1427 12.8228 16.1841L12.6124 16.2031C11.9868 16.2771 11.8477 16.461 11.8572 17.1721C11.8776 18.2524 11.9468 20.1354 12.0268 21.6032ZM31.2759 17.9661C31.1754 18.0068 31.1659 18.19 31.2542 18.2429L31.4638 18.2762C31.7047 18.3087 31.683 18.4044 31.5337 18.7057L31.1361 19.4928C31.0085 19.7527 30.8918 19.9638 30.7731 20.1782L30.6584 20.3852C30.5016 20.0927 30.353 19.7948 30.2125 19.4928L29.8434 18.7281C29.6826 18.3922 29.7158 18.3311 29.9323 18.2762L30.0728 18.2422C30.1712 18.19 30.1427 18.0068 30.0612 17.9654H28.3017C28.2237 17.9959 28.204 18.1784 28.2718 18.2429L28.531 18.2958C28.7882 18.3508 28.89 18.4492 29.097 18.8781L29.8231 20.3309C29.8841 20.4544 29.9384 20.5521 29.9832 20.6342C30.1196 20.8839 30.18 20.9952 30.18 21.2476V21.6534C30.18 22.2899 30.0612 22.3551 29.6344 22.408L29.3867 22.4399C29.3155 22.4942 29.325 22.6787 29.4064 22.7086H31.5527C31.6342 22.6787 31.6437 22.4942 31.5731 22.4399L31.3247 22.408C30.8972 22.3551 30.8565 22.2899 30.8565 21.6534V21.0726C30.8565 20.7618 30.8769 20.6546 31.2358 20.0411L31.852 18.9636C32.16 18.4275 32.2096 18.3617 32.519 18.2958L32.7565 18.2429C32.8379 18.19 32.8162 17.9959 32.7389 17.9654H31.2759V17.9661Z" fill="white"/>
</g>
<circle cx="20" cy="20" r="19.5" stroke="black" stroke-opacity="0.05"/>
<defs>
<clipPath id="clip0_9_410456">
<rect width="33" height="8" fill="white" transform="translate(4 15)"/>
</clipPath>
</defs>
</svg>
