<svg width="40" height="40" viewBox="0 0 40 40" fill="none" xmlns="http://www.w3.org/2000/svg">
<circle cx="20" cy="20" r="20" fill="#283C4A"/>
<g clip-path="url(#clip0_9_387105)">
<path d="M25.8921 17.6883C24.459 11.3843 21.4705 9.70555 20.7085 8.51941C20.3943 7.99691 20.1161 7.45405 19.8752 6.89355C19.8345 7.45338 19.7612 7.80623 19.2835 8.23102C18.3247 9.0833 14.2526 12.3907 13.9092 19.5537C13.5903 26.2322 18.835 30.3497 19.5278 30.7759C20.0605 31.0371 20.7092 30.7813 21.0261 30.5411C23.5544 28.8121 27.0084 24.2012 25.8948 17.6883" fill="#10AA50"/>
<path d="M20.0924 27.2197C19.9601 28.8727 19.8657 29.8336 19.5305 30.7775C19.5305 30.7775 19.7504 32.3518 19.9051 34.0183H20.452C20.5823 32.8444 20.7811 31.6793 21.0478 30.5284C20.3401 30.1817 20.1195 28.6705 20.0924 27.2197Z" fill="#B8C4C2"/>
<path d="M21.0477 30.5287C20.3318 30.1996 20.093 27.2193 20.093 27.2193C20.0679 20.84 20 7.03516 20 7.03516C20.2226 7.54612 20.4194 8.04148 20.7084 8.51851C21.4705 9.70601 24.4596 11.3834 25.8927 17.6874C27.0083 24.1894 23.5727 28.7888 21.0477 30.5287Z" fill="#12924F"/>
</g>
<circle cx="20" cy="20" r="19.5" stroke="black" stroke-opacity="0.05"/>
<defs>
<clipPath id="clip0_9_387105">
<rect width="14" height="28" fill="white" transform="translate(13 6.46484)"/>
</clipPath>
</defs>
</svg>
