<svg width="40" height="40" viewBox="0 0 40 40" fill="none" xmlns="http://www.w3.org/2000/svg">
<circle cx="20" cy="20" r="20" fill="#F36F3F"/>
<g clip-path="url(#clip0_9_392338)">
<path d="M12.328 22.552L12.8532 21.5794L13.3698 20.581L13.8822 19.5481L14.3816 18.4894L14.8724 17.4049L15.3503 16.2989L15.8195 15.1628L16.2759 14.0094L16.4223 13.6264L16.8184 12.5462L17.1886 11.4574L17.533 10.3556L17.8516 9.24531L17.8689 9.21518L17.899 9.20227L18.2908 9.13341L18.6826 9.07746L19.0786 9.03873L19.4747 9.01291L20.1205 9L20.7663 9.02582L21.4164 9.09038L22.0665 9.19366L22.0794 9.21518L21.7738 9.72731L21.481 10.2825L21.1839 10.9022L20.8524 11.651L20.4348 12.5849L19.9784 13.5231L19.479 14.4613L18.9409 15.3995L18.3123 16.4409L17.6665 17.4738L17.0078 18.498L16.3319 19.5094L15.6516 20.5035L14.9542 21.4847L14.2438 22.4574L13.5162 23.4214L12.6595 24.5059L11.7597 25.5775L11.4152 25.9605L11.0493 26.3392L11.0321 26.3435L11.0148 26.3349L10.7006 25.8615L10.4121 25.3795V25.3494L10.4207 25.3236L10.6833 25.0395L10.9287 24.7469L11.1569 24.4456L11.3722 24.1358L11.8845 23.3224L12.3366 22.5477L12.328 22.552Z" fill="white"/>
<path d="M22.4885 11.5957L23.0008 10.5973L23.5304 9.59885L23.5605 9.58594L23.9265 9.71935L24.2881 9.86567L24.6411 10.0206L24.9856 10.1884L25.3214 10.3649L25.6486 10.5542L25.9715 10.7522L26.2858 10.9631L26.2987 10.9803V11.0018H26.2944L25.7175 11.8367L25.1578 12.7276L24.357 14.0488L23.7241 15.0515L23.1171 15.9639L22.5143 16.816L21.8599 17.6939L21.1883 18.5589L20.4951 19.4154L19.7848 20.2589L19.0529 21.0895L18.3038 21.9114L17.5374 22.7205L16.7495 23.5167L16.0435 24.201L15.3159 24.8723L14.5668 25.5308L13.7918 26.1763L13.3957 26.4905L12.8533 26.8993L12.031 27.5276L12.0008 27.5406L11.975 27.5233L11.3938 26.852L11.3809 26.8219L11.3981 26.7917L11.7813 26.456L12.1515 26.1118L12.5088 25.7589L12.8533 25.3931L13.6497 24.5022L14.4462 23.5726L15.2427 22.6L16.0349 21.593L16.827 20.5429L17.6149 19.4627L18.4028 18.3438L19.182 17.199L20.1249 15.7444L20.9816 14.3371L21.7695 12.9557L22.1398 12.2671L22.4928 11.5871L22.4885 11.5957Z" fill="white"/>
<path d="M14.5753 15.2577L14.1319 16.4024L13.6583 17.5601L13.146 18.735L12.6035 19.9228L12.0266 21.1235L11.4196 22.3328L10.7781 23.555L10.1108 24.7815H10.0892L9.83523 24.2048L9.61566 23.6196L9.42622 23.0257L9.27554 22.4275L9.15499 21.8163L9.06888 21.2052L9.01722 20.5855L9 19.9701L9.01722 19.4149L9.06027 18.8641L9.13346 18.3089L9.23249 17.7624L9.36164 17.2201L9.51663 16.6865L9.69746 16.1614L9.90411 15.645L10.1366 15.1415L10.3949 14.6509L10.6791 14.1732L10.9847 13.7084L11.3119 13.2608L11.665 12.8304L12.0352 12.4216L12.427 12.03L12.8274 11.6685L13.2493 11.3242L13.6885 11.0014L14.1448 10.7002L14.6141 10.4247L15.1006 10.1708L15.5957 9.93842L16.108 9.72754H16.1382L16.1425 9.75336L16.0133 10.4118L15.8669 11.0789L15.699 11.7545L15.5139 12.4388L15.3072 13.1317L15.0834 13.8375L14.838 14.5519L14.5753 15.2749V15.2577Z" fill="white"/>
<path d="M12.4014 27.9362L12.9266 27.6048L13.4562 27.2562L13.9814 26.8947L14.5067 26.516L15.0276 26.1244L15.5528 25.7112L16.5904 24.8462L17.628 23.9123L18.6569 22.9225L19.6773 21.8724L20.6976 20.7578L21.5372 19.7938L22.3681 18.7996L23.1947 17.7711L24.017 16.7038L24.8393 15.5978L25.6746 14.4358L26.5184 13.2179L27.3924 11.9225L27.4182 11.9053L27.4483 11.9139L27.7325 12.1893L28.008 12.4733L28.2706 12.7617L28.5247 13.0629L28.826 13.446L29.1102 13.8462L29.1188 13.8763L29.1059 13.9064L28.5892 14.4874L28.0425 15.1416L27.4526 15.8732L26.6605 16.8888L25.9027 17.8572L25.3861 18.4984L24.8609 19.131L24.3227 19.7507L23.7759 20.3618L23.1818 21.0031L22.5748 21.6314L21.9548 22.2511L21.3262 22.8579L20.6847 23.4561L20.0303 24.0414L19.363 24.6181L18.6871 25.1819L18.0241 25.7155L17.3654 26.2233L16.711 26.7097L16.0609 27.1744L15.4108 27.6177L14.765 28.0395L14.1192 28.444L13.4777 28.8227L13.4476 28.8313L13.4174 28.8184L12.8922 28.401L12.4014 27.9577V27.9448V27.9362Z" fill="white"/>
<path d="M29.8977 15.1885L29.9236 15.2402L30.1474 15.7437L30.3498 16.2601L30.5263 16.7894L30.677 17.3274V17.3575L30.6598 17.3833L30.0054 18.0504L29.8676 18.201L27.8398 20.4088L26.9745 21.3254L26.1091 22.1991L25.2523 23.0254L24.3956 23.8129L23.5431 24.5574L22.6907 25.2675L21.8382 25.9389L20.9815 26.5715L20.2539 27.0751L19.522 27.5484L18.7858 27.9917L18.041 28.4092L17.2919 28.7965L16.5341 29.1537L15.7721 29.4808L15.0015 29.7777H14.9455L14.1146 29.2957L14.106 29.2828V29.2656H14.1146L15.1866 28.6803L15.9013 28.2628L16.6073 27.8282L17.3005 27.3763L17.985 26.9115L18.6609 26.4295L19.3283 25.9303L19.987 25.4139L20.6371 24.8802L21.6574 23.998L22.6692 23.077L23.6809 22.1087L24.6883 21.093L25.7001 20.0258L26.7247 18.8982L27.7666 17.7061L28.8343 16.4366L29.8719 15.1756L29.8848 15.167L29.8977 15.1799V15.1885Z" fill="white"/>
<path d="M30.1089 24.3427L29.8635 24.8678L29.5966 25.3713L29.3038 25.8619L28.9895 26.3353L28.6494 26.7958L28.2878 27.2348L27.9003 27.6565L27.4956 28.0524L27.134 28.3752L26.7594 28.6808L26.3719 28.9691L25.9715 29.2402L25.5582 29.4941L25.1363 29.7308L24.7015 29.946L24.258 30.144L23.8103 30.3204L23.3539 30.4797L22.8889 30.6174L22.4197 30.7336L21.9461 30.8283L21.4682 30.9014L20.986 30.9574L20.4995 30.9918L19.9398 31.0047L19.3758 30.9875L18.8161 30.9402L18.2565 30.8627L17.7054 30.7594L17.1543 30.626L16.6118 30.4668L16.0737 30.2774L16.0479 30.2602L16.0737 30.243L16.5817 30.0665L17.094 29.8556L17.5848 29.6319L18.0799 29.3909L19.0831 28.8572L20.1034 28.259L21.141 27.592L22.1657 26.8862L23.1903 26.1416L24.215 25.3541L25.231 24.5321L26.2428 23.6714L27.2459 22.7805L28.2404 21.8553L29.2177 20.8999L30.0615 20.0434L30.9355 19.1354L30.9657 19.1182L30.9786 19.1483L31.0044 19.6475V20.1424L30.9915 20.6287L30.957 21.1107L30.9011 21.5841L30.8236 22.0532L30.7246 22.518L30.6083 22.9785L30.3888 23.6714L30.1218 24.347L30.1089 24.3427Z" fill="white"/>
</g>
<circle cx="20" cy="20" r="19.5" stroke="black" stroke-opacity="0.05"/>
<defs>
<clipPath id="clip0_9_392338">
<rect width="22" height="22" fill="white" transform="translate(9 9)"/>
</clipPath>
</defs>
</svg>
