<svg width="40" height="40" viewBox="0 0 40 40" fill="none" xmlns="http://www.w3.org/2000/svg">
<circle cx="20" cy="20" r="20" fill="#F6F8FA"/>
<g clip-path="url(#clip0_9_411916)">
<path d="M17.0073 29.1076C16.8717 28.2511 16.8035 27.3853 16.8033 26.5181C16.8033 22.8668 17.9945 19.6684 19.9999 16.9648C17.8962 14.1294 14.8939 11.8556 11.4265 10.9243C10.8497 10.7695 10.2856 11.2194 10.2856 11.8283V28.1744C10.2856 28.6893 10.6955 29.107 11.2006 29.107L17.0073 29.1076Z" fill="#239DE0"/>
<path d="M20 16.9644C22.006 19.668 23.196 22.8658 23.196 26.5184C23.196 27.3993 23.1262 28.2639 22.9926 29.1072H28.7999C29.3051 29.1072 29.7143 28.6895 29.7143 28.1734V11.8279C29.7143 11.219 29.1509 10.7685 28.5735 10.9233C25.1061 11.8565 22.1037 14.129 20 16.9644Z" fill="#99D538"/>
<path d="M20 16.9639C17.994 19.6675 16.804 22.8653 16.804 26.5179C16.804 27.3988 16.8301 28.2634 16.9642 29.1067H23.0357C23.1692 28.2628 23.196 27.3988 23.196 26.5179C23.196 22.8659 22.006 19.6675 20 16.9639Z" fill="#1563A9"/>
</g>
<circle cx="20" cy="20" r="19.5" stroke="black" stroke-opacity="0.05"/>
<defs>
<clipPath id="clip0_9_411916">
<rect width="20" height="20" fill="white" transform="translate(10 10)"/>
</clipPath>
</defs>
</svg>
