<svg width="40" height="40" viewBox="0 0 40 40" fill="none" xmlns="http://www.w3.org/2000/svg">
<circle cx="20" cy="20" r="20" fill="#006E51"/>
<path d="M26.0057 23.9997H30.8571V22.2854H26.9554C26.4126 22.2854 26.2954 21.6357 26.2857 21.4209C26.2714 21.0209 26.2857 20.0917 26.2857 19.5751C26.2857 19.0037 26.6846 18.8569 26.9554 18.8569H28.8274C29.0583 18.8569 29.14 19.1351 29.14 19.4283C29.14 19.7214 29.0851 19.9997 28.8274 19.9997H26.8571V21.714H29.4897C30.6331 21.714 30.8571 21.01 30.8571 20.5294V18.6369C30.8571 17.4997 29.9406 17.1671 29.4897 17.1426H25.9189C24.8017 17.1426 24.552 18.1974 24.5714 18.7254V22.5786C24.5829 23.7271 25.5354 24.0043 26.0057 23.9997ZM18.7257 17.1454H24V18.8569C22.8457 18.8477 20.132 18.8351 19.5806 18.8569C19.0291 18.8786 18.852 19.4957 18.8571 19.7334V21.5134C18.8571 22.1266 19.3554 22.2854 19.5806 22.2854H21.9983C22.2034 22.2854 22.2737 22.23 22.2857 21.9997C22.2971 21.7694 22.1846 21.714 21.9983 21.714H20.5714V19.9997C20.7714 19.9951 21.3749 19.9883 22.4663 19.9997C23.5577 20.0111 24 20.6123 24 21.1163V22.6363C24 23.5231 23.1726 23.9997 22.4663 23.9997H18.7257C17.5211 23.954 17.1429 23.098 17.1429 22.6363V18.6106C17.1663 17.4494 18.212 17.15 18.7257 17.1454ZM8 18.6294V23.9997H9.71429V19.4163C9.71429 19.1277 10.104 18.8569 10.5714 18.8569C11.0389 18.8569 11.4286 19.1711 11.4286 19.4163V23.9997H13.1429V19.4163C13.1429 19.1277 13.5189 18.8569 14 18.8569C14.4811 18.8569 14.8571 19.1174 14.8571 19.4163V23.9997H16.5714V18.6294C16.5577 17.5049 15.7429 17.1649 15.2674 17.1426H9.39143C8.324 17.1426 8 18.1043 8 18.6294Z" fill="white"/>
<circle cx="20" cy="20" r="19.5" stroke="black" stroke-opacity="0.05"/>
</svg>
