<svg width="40" height="40" viewBox="0 0 40 40" fill="none" xmlns="http://www.w3.org/2000/svg">
<circle cx="20" cy="20" r="20" fill="#F6F8FA"/>
<path d="M9.16211 17.8359C9.16211 19.9595 9.48264 21.9428 10.5644 23.5655V22.1631C10.5644 20.4002 11.9668 19.1381 13.4092 18.3768C11.9668 18.8376 10.3841 18.5171 9.16211 17.8359Z" fill="#A97C2B"/>
<path d="M15.3321 16.4538L14.9915 15.7526C14.0499 15.6925 13.2486 15.352 12.4473 14.9112C12.287 14.8311 12.1267 14.791 11.9665 14.791H11.8863C11.3855 14.811 10.9848 15.1316 10.5641 15.4722C10.0633 15.8929 9.54244 16.2935 8.90137 16.1132C9.30203 16.4137 9.84294 16.5139 10.4439 16.4538L10.5641 16.5139H10.8446C11.2853 16.4137 11.8062 15.8528 12.3271 15.8528C13.3287 15.7126 14.6309 15.5723 15.3321 16.4538ZM10.4439 16.3536H10.0032C9.90304 16.1132 10.6843 15.6124 10.8847 15.953L10.4439 16.3536Z" fill="#A97C2B"/>
<path d="M10.3444 10.6242C9.78345 9.76272 8.92201 9.26189 8.02051 9.02148V12.6676C8.50131 12.7878 9.00214 12.8879 9.50298 12.9681C10.4846 12.5073 10.745 11.706 10.3444 10.6242Z" fill="#A97C2B"/>
<path d="M12.8678 22.4844C13.0081 21.1221 13.7293 20.1205 14.6708 18.9986L14.5907 18.8984C13.7493 19.6998 13.4087 20.2607 12.9079 21.1221C11.2651 24.4677 13.569 29.0754 11.2451 31.9802H14.8912C15.0515 31.82 15.2117 31.6397 15.352 31.4594C18.0565 27.9535 12.7877 25.8701 12.8678 22.4844Z" fill="#A97C2B"/>
<path d="M25.9299 20C25.9299 24.7078 23.7262 29.1352 20 31.98H32V8H20C23.7262 10.8648 25.9299 15.2922 25.9299 20Z" fill="#A97C2B"/>
<path d="M10.5643 31.5598C13.3689 27.7734 10.0234 25.109 8 22.124V32.0005H10.0634L10.5643 31.5598Z" fill="#A97C2B"/>
<path d="M11.5659 12.0272L14.1302 11.8068C14.4708 10.9654 14.611 9.66325 14.2905 9.00214C14.1502 8.64154 13.9299 8.32101 13.6895 8.02051H8V8.40114C8.56093 8.48128 9.10184 8.64154 9.60267 8.88194C10.7446 9.54304 11.6461 10.6649 11.5659 12.0272Z" fill="#A97C2B"/>
<path d="M19.018 9.62271C18.1165 8.94157 17.5356 8.40067 16.4538 8H14.8311C15.3519 8.7212 15.372 9.66277 15.4521 10.4841C16.4337 9.72287 17.6958 9.2621 19.018 9.62271Z" fill="#A97C2B"/>
<path d="M22.0834 25.3287C22.3638 23.0649 22.1835 20.721 20.5408 19.1383C20.4206 19.1383 20.3204 19.1383 20.2002 19.1383C19.9198 19.1584 19.6393 19.1584 19.459 18.918C18.7378 19.5991 17.7962 19.8595 17.075 20.6408C16.3137 20.8612 15.5925 20.3604 14.8112 20.2402C14.8112 20.14 14.7912 20.0198 14.8313 19.9597C13.7294 20.6408 14.0299 21.963 13.8096 23.0248C14.07 24.2068 15.3521 24.6475 16.1935 25.3287C17.4556 25.549 18.6376 24.9681 19.7595 24.5674C19.9398 24.7477 20.2002 24.928 20.08 25.2085C19.2186 26.4305 17.9164 26.9714 16.4139 26.8312C17.3154 28.534 16.6944 30.4973 15.7528 31.9998H16.6543C19.3388 30.7577 21.9031 28.9146 22.0834 25.3287ZM17.1952 25.1083C16.8346 24.8278 17.0149 24.3871 16.9748 24.0265L17.1952 23.8061C17.4156 24.4872 17.8363 24.2268 18.297 23.9664C18.5775 23.8061 18.858 23.6659 19.1385 23.7059C19.459 23.5657 19.3188 23.0649 19.6794 23.165C20.1802 24.928 18.1167 24.6074 17.1952 25.1083ZM19.9198 20.2402L19.6994 20.7811L19.439 20.0799C18.7979 20.2201 18.2169 20.4405 17.8964 21.0816C17.8563 21.2619 17.9365 21.6425 17.7562 21.7627C17.3555 21.6625 17.5758 20.9814 17.5358 20.6208C17.9966 20.12 19.3388 19.1183 19.7795 19.4989C19.8797 19.6191 19.9398 19.9397 19.9198 20.2402Z" fill="#A97C2B"/>
<path d="M18.0572 16.754C17.7367 16.714 17.3961 16.714 17.0756 16.754C17.7567 17.0145 18.518 17.1146 19.1591 17.5153C19.8001 17.916 19.9604 16.9744 20.2409 16.6539C21.3227 16.9143 20.7417 18.0562 21.1824 18.6772C23.4863 21.0813 23.0255 25.2682 21.8636 28.0128C25.0288 25.128 24.7684 18.6973 24.0272 16.0929C23.306 13.5888 21.1424 10.2632 18.1774 10.2031H18.0372H17.8769C16.6949 10.2632 15.553 11.1447 15.1123 11.8459C16.0138 12.3667 16.8352 12.9878 17.5964 13.6889C17.5564 13.9494 17.7367 14.33 17.3761 14.4502C16.9754 14.1297 16.6148 13.3283 16.114 13.5888C16.5146 14.4502 17.5964 14.5303 18.4579 14.7707C18.7784 15.0913 18.6783 15.6322 19.3594 15.4118C19.6799 15.512 19.8201 15.8726 19.9003 16.1731C19.5597 16.8742 18.7784 16.8141 18.0572 16.754Z" fill="#A97C2B"/>
<circle cx="20" cy="20" r="19.5" stroke="black" stroke-opacity="0.05"/>
</svg>
