<svg width="40" height="40" viewBox="0 0 40 40" fill="none" xmlns="http://www.w3.org/2000/svg">
<circle cx="20" cy="20" r="20" fill="#E41D38"/>
<g clip-path="url(#clip0_9_404387)">
<path d="M32.8572 18.071L25.8307 25.1604C25.6524 25.3522 25.4373 25.5063 25.1984 25.6137C24.9595 25.721 24.7015 25.7793 24.4396 25.7853C24.1914 25.784 23.946 25.7331 23.7177 25.6355C23.4895 25.5379 23.2832 25.3956 23.1108 25.217C22.7602 24.8541 22.5664 24.3678 22.5715 23.8632V20.0292C22.5648 20.5359 22.7576 21.0249 23.1082 21.3907C23.2812 21.5699 23.4878 21.7131 23.7163 21.812C23.9448 21.911 24.1906 21.9638 24.4396 21.9674C24.7011 21.9602 24.9587 21.9013 25.1973 21.794C25.436 21.6868 25.6511 21.5333 25.8301 21.3425L32.8572 14.2139V18.071Z" fill="white"/>
<path d="M26.4282 19.9167C26.4322 19.6674 26.3876 19.4198 26.297 19.1877C26.2064 18.9556 26.0714 18.7441 25.8997 18.566C25.7292 18.3881 25.5248 18.246 25.2987 18.1482C25.0737 18.0509 24.8314 17.9999 24.5864 17.9984C24.3305 18.0048 24.0785 18.0627 23.8439 18.1687C23.6105 18.2748 23.399 18.4259 23.2229 18.6155L16.811 25.1733C16.6337 25.3645 16.4194 25.5176 16.181 25.6233C15.9432 25.7287 15.6867 25.784 15.4276 25.7853C15.1831 25.7842 14.9413 25.7346 14.7161 25.6392C14.491 25.5439 14.287 25.4047 14.1162 25.2299C13.7667 24.8724 13.5709 24.3926 13.5704 23.8927V20.6424C13.5684 20.8932 13.6154 20.6071 13.7073 20.8392C13.7992 21.0706 13.9355 21.2821 14.1084 21.4602C14.2807 21.6382 14.4858 21.7803 14.7127 21.8774C14.939 21.9744 15.182 22.0252 15.4276 22.0265C15.6834 22.0201 15.9354 21.9629 16.1701 21.8574C16.4041 21.7514 16.6149 21.599 16.7911 21.4094L23.2332 14.831C23.4066 14.6436 23.6155 14.4926 23.8478 14.3866C24.0801 14.2807 24.3312 14.222 24.5864 14.2139C24.83 14.2164 25.0704 14.2685 25.2948 14.3656C25.5185 14.4633 25.7217 14.6054 25.8914 14.7834C26.0617 14.9609 26.1961 15.1711 26.2861 15.4019C26.3761 15.632 26.4211 15.8789 26.4179 16.127L26.4282 19.9167Z" fill="white"/>
<path d="M17.4283 19.9996C17.4322 19.4988 17.2412 18.9344 16.8967 18.5757C16.727 18.3987 16.524 18.257 16.2994 18.1588C16.0748 18.0606 15.8329 18.0078 15.5878 18.0035C15.3306 18.008 15.0761 18.0646 14.8408 18.1707C14.6047 18.277 14.3926 18.4301 14.2172 18.6207L7.14258 25.7853V21.9282L14.2127 14.831C14.3889 14.6394 14.6017 14.4858 14.8382 14.3797C15.0741 14.2738 15.3292 14.2174 15.5878 14.2139C16.0815 14.2222 16.5521 14.4279 16.8967 14.786C17.2412 15.1441 17.4322 15.6262 17.4283 16.127V19.9996Z" fill="white"/>
</g>
<circle cx="20" cy="20" r="19.5" stroke="black" stroke-opacity="0.05"/>
<defs>
<clipPath id="clip0_9_404387">
<rect width="26" height="12" fill="white" transform="translate(7 14)"/>
</clipPath>
</defs>
</svg>
