<svg width="40" height="40" viewBox="0 0 40 40" fill="none" xmlns="http://www.w3.org/2000/svg">
<circle cx="20" cy="20" r="20" fill="#F6F8FA"/>
<g clip-path="url(#clip0_9_407818)">
<mask id="mask0_9_407818" style="mask-type:luminance" maskUnits="userSpaceOnUse" x="-13" y="-348" width="313" height="405">
<path d="M-12.6626 -347.224H299.11V56.3314H-12.6626V-347.224Z" fill="white"/>
</mask>
<g mask="url(#mask0_9_407818)">
<path d="M31.9924 26.5228L26.7342 30.6386L22.5396 27.3526V22.5238L28.9264 17.5205L31.9484 19.8871C31.5494 21.0067 30.4829 21.8108 29.2253 21.8108C28.0313 21.8108 27.0103 21.0841 26.5689 20.051V24.7144C26.5689 26.1814 27.7583 27.3708 29.2253 27.3708C30.2599 27.3708 31.3613 26.5471 31.7299 26.2603L31.9924 26.5228Z" fill="#E41D37"/>
<path d="M26.5686 12.2699V18.2532L22.5393 21.4087V14.5576C22.5393 13.5867 21.752 12.8008 20.7825 12.8008V30.4474H16.7517V14.5576C16.7517 13.5867 15.9674 12.8008 14.9965 12.8008V30.4474H10.9732V14.952C10.9732 13.9826 10.1873 13.1968 9.21794 13.1968C8.88722 13.1968 8.49279 13.3 8.26978 13.4744L8.00732 13.212L12.1034 10.0049L14.9965 12.2699L17.8895 10.0049L20.7825 12.2699L23.6756 10.0049L26.5686 12.2699Z" fill="#00539B"/>
</g>
</g>
<circle cx="20" cy="20" r="19.5" stroke="black" stroke-opacity="0.05"/>
<defs>
<clipPath id="clip0_9_407818">
<rect width="24" height="20.6473" fill="white" transform="translate(8 10)"/>
</clipPath>
</defs>
</svg>
