<svg width="40" height="40" viewBox="0 0 40 40" fill="none" xmlns="http://www.w3.org/2000/svg">
<circle cx="20" cy="20" r="20" fill="#2F59D8"/>
<path d="M12.5869 17.6787C13.8789 17.6787 14.9262 16.6313 14.9262 15.3393C14.9262 14.0474 13.8789 13 12.5869 13C11.2949 13 10.2476 14.0474 10.2476 15.3393C10.2476 16.6313 11.2949 17.6787 12.5869 17.6787Z" fill="#F6F8FD"/>
<path d="M27.3395 20.6381C28.1894 20.6723 29.0328 20.815 29.7575 21.2214C30.0682 21.3953 30.2649 21.6686 30.3474 22.0415C30.4766 22.6217 30.5375 23.233 30.5302 23.8754C30.5297 23.9065 30.5142 23.922 30.4836 23.922L29.0197 23.9213C28.9843 23.9213 28.9668 23.9036 28.9673 23.8681C28.9726 23.4214 28.933 22.9815 28.8486 22.5484C28.7524 22.0551 28.4434 21.7648 27.9214 21.6774C27.548 21.6147 27.131 21.5853 26.6702 21.5892C26.6454 21.5892 26.633 21.6016 26.633 21.6264L26.6338 23.879C26.6338 23.9101 26.618 23.9257 26.5864 23.9257L25.0985 23.9264C25.0915 23.9264 25.0849 23.9236 25.0799 23.9187C25.075 23.9138 25.0723 23.9071 25.0723 23.9002V16.1437C25.0723 16.1369 25.075 16.1304 25.0799 16.1256C25.0849 16.1209 25.0915 16.1182 25.0985 16.1182H26.5864C26.618 16.1182 26.6338 16.1337 26.6338 16.1648L26.633 19.9768C26.6331 19.9812 26.6344 19.9856 26.6367 19.9894C26.639 19.9933 26.6423 19.9964 26.6462 19.9985C26.6501 20.0006 26.6544 20.0016 26.6588 20.0013C26.6631 20.0011 26.6673 19.9996 26.6709 19.9971L28.9411 18.483C28.9605 18.4704 28.9818 18.4641 29.0051 18.4641H30.461C30.5072 18.4641 30.511 18.4767 30.4727 18.5019L27.3286 20.6002C27.2941 20.6235 27.2977 20.6361 27.3395 20.6381Z" fill="#F6F8FD"/>
<path d="M20.0868 19.1155C20.3631 18.8242 20.7489 18.6302 21.2441 18.5336C22.1021 18.3668 23.9578 18.4287 24.2397 19.527C24.279 19.68 24.2982 19.8589 24.2972 20.0638C24.2899 21.4743 24.2892 22.7457 24.295 23.8779C24.295 23.9105 24.279 23.9267 24.247 23.9267H22.775C22.7454 23.9267 22.7306 23.9119 22.7306 23.8823C22.7321 22.548 22.7323 21.249 22.7313 19.9851C22.7306 19.2969 22.1378 19.1905 21.5835 19.2553C20.9572 19.3282 20.7751 19.7244 20.7773 20.2961C20.7826 21.574 20.7834 22.775 20.7795 23.8991C20.7793 23.9063 20.7763 23.9131 20.7711 23.9182C20.7659 23.9232 20.759 23.926 20.7518 23.926H19.2464C19.2279 23.926 19.2187 23.9168 19.2187 23.8983C19.2216 22.8578 19.2219 21.7369 19.2194 20.5357C19.218 19.9028 19.2369 19.3952 18.5756 19.2728C18.1576 19.1949 17.4649 19.2116 17.3171 19.704C17.2831 19.8171 17.2661 19.94 17.2661 20.0725C17.2705 21.3762 17.2705 22.6512 17.2661 23.8976C17.2661 23.9047 17.2633 23.9116 17.2584 23.9167C17.2535 23.9217 17.2468 23.9245 17.2399 23.9245L15.7519 23.9275C15.7404 23.9275 15.7292 23.9229 15.721 23.9149C15.7129 23.9068 15.7082 23.8959 15.7082 23.8845L15.7075 19.291C15.7075 19.2619 15.7214 19.2425 15.749 19.2328C16.0447 19.1294 16.3341 19.0109 16.6172 18.8774C17.6099 18.4098 19.2413 18.1432 20.0206 19.1126C20.0415 19.1388 20.0635 19.1398 20.0868 19.1155Z" fill="#F6F8FD"/>
<path d="M32.1275 20.2068C32.2499 20.6729 33.252 20.7763 33.6373 20.8011C34.0388 20.8273 34.4253 20.8562 34.7968 20.8877C35.7341 20.9671 36.1274 21.584 35.9643 22.4776C35.6576 24.1564 32.9891 24.0209 31.791 23.809C31.0511 23.6786 30.5478 23.2132 30.5391 22.4084C30.5386 22.3783 30.5536 22.3633 30.5842 22.3633L32.0481 22.3626C32.0807 22.3626 32.0974 22.3786 32.0984 22.4106C32.1137 22.8738 32.3635 23.0974 32.8085 23.1418C33.3613 23.1972 34.6118 23.2139 34.5827 22.3473C34.5666 21.852 34.161 21.7093 33.7538 21.6692C33.211 21.6163 32.6735 21.5592 32.1414 21.498C31.4983 21.4245 30.8457 21.2366 30.7335 20.4981C30.5056 18.9897 31.5951 18.5389 32.8391 18.4763C33.6057 18.4374 34.2578 18.4831 34.7953 18.6132C35.4967 18.7829 35.9679 19.1835 35.9963 19.9686C35.9973 20.0045 35.98 20.0225 35.9446 20.0225H34.4814C34.4465 20.023 34.4295 20.0055 34.4304 19.9701C34.4479 19.4755 34.1449 19.3 33.7152 19.2527C33.3329 19.2104 32.9141 19.2031 32.5543 19.324C32.1749 19.4515 32.0277 19.8273 32.1275 20.2068Z" fill="#F6F8FD"/>
<path d="M6.34006 23.9213C7.63244 23.9213 8.68012 22.8737 8.68012 21.5813C8.68012 20.2889 7.63244 19.2412 6.34006 19.2412C5.04768 19.2412 4 20.2889 4 21.5813C4 22.8737 5.04768 23.9213 6.34006 23.9213Z" fill="#F6F8FD"/>
<path d="M12.5874 23.9199C13.8794 23.9199 14.9267 22.8725 14.9267 21.5805C14.9267 20.2886 13.8794 19.2412 12.5874 19.2412C11.2954 19.2412 10.248 20.2886 10.248 21.5805C10.248 22.8725 11.2954 23.9199 12.5874 23.9199Z" fill="#F6F8FD"/>
<circle cx="20" cy="20" r="19.5" stroke="black" stroke-opacity="0.05"/>
</svg>
