<svg width="40" height="40" viewBox="0 0 40 40" fill="none" xmlns="http://www.w3.org/2000/svg">
<circle cx="20" cy="20" r="20" fill="#111921"/>
<path d="M21.7871 12.6125L20.0908 14.6807L15.0989 8.11159C15.0468 8.0372 14.9575 8 14.8683 8H12.7703C12.5322 8 12.3983 8.26782 12.5397 8.45381L20.0908 18.5121L24.3463 12.9547C24.4876 12.7688 24.3537 12.5009 24.1156 12.5009H22.0177C21.9284 12.5009 21.8391 12.5381 21.7871 12.6125Z" fill="white"/>
<path d="M29.3231 27.045L24.041 19.9997L31.1012 10.7152C31.2425 10.5292 31.1086 10.2539 30.878 10.2539H28.7949C28.7056 10.2539 28.6238 10.2985 28.5717 10.3655L21.2065 19.9997L26.749 27.3946C26.8011 27.469 26.8904 27.5062 26.9796 27.5062H29.0925C29.3305 27.5062 29.4645 27.2384 29.3231 27.045Z" fill="white"/>
<path d="M10.8434 12.9548L16.1255 19.9926L9.05792 29.2921C8.91657 29.478 9.05048 29.7533 9.2811 29.7533H11.3642C11.4535 29.7533 11.5353 29.7087 11.5874 29.6417L18.96 20.0001L13.4101 12.6126C13.358 12.5382 13.2687 12.501 13.1794 12.501H11.0666C10.836 12.501 10.7021 12.7688 10.8434 12.9548Z" fill="white"/>
<path d="M18.3797 27.3879L20.0759 25.3197L25.0678 31.8888C25.1199 31.9632 25.2092 32.0004 25.2984 32.0004H27.3964C27.6345 32.0004 27.7684 31.7326 27.627 31.5466L20.0759 21.4883L15.8204 27.0456C15.6791 27.2316 15.813 27.4994 16.0511 27.4994H18.1565C18.2457 27.4994 18.3276 27.4622 18.3797 27.3879Z" fill="white"/>
<circle cx="20" cy="20" r="19.5" stroke="black" stroke-opacity="0.05"/>
</svg>
