<svg width="40" height="40" viewBox="0 0 40 40" fill="none" xmlns="http://www.w3.org/2000/svg">
<circle cx="20" cy="20" r="20" fill="#1E1E23"/>
<g clip-path="url(#clip0_9_397454)">
<path d="M16.2395 15.0238C16.2395 15.6646 16.0362 16.2453 15.6907 16.7459C15.3858 17.1865 15.3858 17.8473 15.6907 18.2879C16.4427 19.3091 16.4427 20.7109 15.6907 21.7322C15.3858 22.1727 15.3858 22.8335 15.6907 23.2741C16.0362 23.7747 16.2395 24.3554 16.2395 24.9962C16.2395 26.6583 14.837 28.02 13.1094 28.02C11.3817 28.02 9.99962 26.6383 9.99962 24.9762C9.99962 24.3354 10.2029 23.7547 10.5484 23.2541C10.8533 22.8135 10.8533 22.1527 10.5484 21.7121C9.79637 20.6909 9.79637 19.2891 10.5484 18.2678C10.8533 17.8273 10.8533 17.1665 10.5484 16.7259C10.2029 16.2253 9.99962 15.6245 9.99962 15.0238C9.99962 13.3617 11.4021 12 13.1297 12C14.8573 12 16.2598 13.3617 16.2598 15.0238H16.2395ZM22.5606 18.3079C22.2557 17.8273 22.2557 17.2265 22.5606 16.766C22.9061 16.2653 23.1094 15.6846 23.1094 15.0438C23.1094 13.3417 21.7069 12 19.9996 12C18.272 12 16.8695 13.3617 16.8695 15.0238C16.8695 15.6646 17.0728 16.2653 17.4183 16.7459C17.7232 17.1865 17.7232 17.8473 17.4183 18.2879C17.0728 18.7885 16.8695 19.3692 16.8695 20.01C16.8695 21.6921 18.272 23.0538 19.9996 23.0538C21.7273 23.0538 23.1297 21.6921 23.1297 20.03C23.1297 19.3892 22.9264 18.7885 22.5809 18.3079H22.5606ZM29.9996 15.0238C29.9996 15.6646 29.7964 16.2453 29.4508 16.7459C29.146 17.1865 29.146 17.8473 29.4508 18.2879C30.2029 19.3091 30.2029 20.7109 29.4508 21.7322C29.146 22.1727 29.146 22.8335 29.4508 23.2741C29.7964 23.7747 29.9996 24.3554 29.9996 24.9962C29.9996 26.6583 28.5972 28.02 26.8695 28.02C25.1419 28.02 23.7395 26.6583 23.7395 24.9962C23.7395 24.3554 23.9427 23.7747 24.2882 23.2741C24.5931 22.8335 24.5931 22.1727 24.2882 21.7322C23.5362 20.7109 23.5362 19.3091 24.2882 18.2879C24.5931 17.8473 24.5931 17.1865 24.2882 16.7459C23.9224 16.2453 23.7395 15.6446 23.7395 15.0238C23.7395 13.3617 25.1419 12 26.8695 12C28.5972 12 29.9996 13.3617 29.9996 15.0238Z" fill="white"/>
</g>
<circle cx="20" cy="20" r="19.5" stroke="black" stroke-opacity="0.05"/>
<defs>
<clipPath id="clip0_9_397454">
<rect width="20" height="16" fill="white" transform="translate(10 12)"/>
</clipPath>
</defs>
</svg>
