<svg width="40" height="40" viewBox="0 0 40 40" fill="none" xmlns="http://www.w3.org/2000/svg">
<circle cx="20" cy="20" r="20" fill="#080A52"/>
<g clip-path="url(#clip0_9_397821)">
<path d="M11.2958 20.8783C11.2958 20.7867 11.2699 20.7788 11.2181 20.8546L9.16847 23.8434C9.16321 23.8514 9.15604 23.858 9.14759 23.8625C9.13913 23.867 9.12965 23.8694 9.11998 23.8694C9.11031 23.8694 9.10074 23.867 9.09212 23.8625C9.08349 23.858 9.07607 23.8514 9.0705 23.8434L7.02881 20.8647C6.9725 20.7822 6.94435 20.7912 6.94435 20.8918V23.9785C6.94435 24.0168 6.9252 24.036 6.88691 24.036L5.49726 24.0348C5.48853 24.0348 5.47989 24.0331 5.47183 24.0298C5.46377 24.0264 5.45644 24.0215 5.45027 24.0154C5.4441 24.0092 5.43921 24.0019 5.43587 23.9938C5.43253 23.9858 5.43081 23.9771 5.43081 23.9684L5.42969 16.3208C5.42974 16.3143 5.43145 16.3079 5.43463 16.3023C5.43781 16.2967 5.44236 16.292 5.44783 16.2887C5.45329 16.2853 5.45948 16.2836 5.46578 16.2835C5.47208 16.2834 5.47828 16.285 5.48374 16.2881C5.51377 16.3039 5.53855 16.3253 5.55807 16.3523C6.70823 17.9424 7.87904 19.5644 9.0705 21.2184C9.07603 21.226 9.0833 21.2323 9.09172 21.2366C9.10014 21.2409 9.10947 21.2431 9.11892 21.2431C9.12838 21.2431 9.13771 21.2409 9.14612 21.2366C9.15454 21.2323 9.16182 21.226 9.16735 21.2184L12.6719 16.3624C12.7642 16.2356 12.81 16.2506 12.8093 16.4075L12.8082 23.974C12.8082 23.9901 12.8016 24.0056 12.79 24.017C12.7784 24.0284 12.7626 24.0348 12.7462 24.0348L11.3577 24.036C11.3413 24.036 11.3255 24.0294 11.3139 24.0178C11.3023 24.0062 11.2958 23.9904 11.2958 23.974V20.8783Z" fill="white"/>
<path d="M24.8828 21.2555C24.8833 21.25 24.8826 21.2445 24.8809 21.2393C24.8791 21.2342 24.8763 21.2294 24.8725 21.2254C24.8688 21.2214 24.8643 21.2182 24.8593 21.216C24.8543 21.2138 24.8489 21.2127 24.8434 21.2127L22.992 21.2161C22.9785 21.2161 22.9655 21.2108 22.9558 21.2013C22.9461 21.1918 22.9405 21.1789 22.9402 21.1654V19.8805C22.9402 19.8369 22.962 19.8151 23.0055 19.8151L26.4189 19.8106C26.4587 19.8106 26.4804 19.8301 26.4842 19.8692C26.643 21.2926 26.2196 22.7465 25.0146 23.5674C23.5934 24.5359 21.6463 24.358 20.3501 23.2713C18.2194 21.4863 18.6035 18.109 21.0652 16.814C22.6024 16.0043 24.3333 16.3432 25.5799 17.4987C25.6092 17.5264 25.6126 17.5572 25.59 17.591L24.8085 18.7509C24.805 18.7562 24.8003 18.7607 24.7948 18.764C24.7893 18.7673 24.7831 18.7693 24.7767 18.7699C24.7702 18.7706 24.7637 18.7698 24.7575 18.7677C24.7514 18.7656 24.7457 18.7622 24.7409 18.7577C24.1058 18.1383 23.2578 17.7577 22.3884 17.9559C21.3186 18.2002 20.5506 19.0865 20.5033 20.1834C20.4436 21.5798 21.4695 22.5888 22.8569 22.6665C23.8051 22.7206 24.7927 22.2926 24.8828 21.2555Z" fill="white"/>
<path d="M35.0001 20.2798C35.0001 21.3183 34.5876 22.3143 33.8533 23.0486C33.119 23.7829 32.123 24.1954 31.0845 24.1954C30.0461 24.1954 29.0501 23.7829 28.3158 23.0486C27.5815 22.3143 27.1689 21.3183 27.1689 20.2798C27.1689 19.2414 27.5815 18.2454 28.3158 17.5111C29.0501 16.7768 30.0461 16.3643 31.0845 16.3643C32.123 16.3643 33.119 16.7768 33.8533 17.5111C34.5876 18.2454 35.0001 19.2414 35.0001 20.2798ZM33.4742 20.2697C33.4742 19.9563 33.4125 19.646 33.2926 19.3565C33.1726 19.067 32.9969 18.8039 32.7753 18.5824C32.5537 18.3608 32.2906 18.185 32.0011 18.0651C31.7116 17.9451 31.4013 17.8834 31.0879 17.8834C30.455 17.8834 29.8481 18.1348 29.4006 18.5824C28.953 19.0299 28.7016 19.6368 28.7016 20.2697C28.7016 20.9026 28.953 21.5096 29.4006 21.9571C29.8481 22.4046 30.455 22.656 31.0879 22.656C31.4013 22.656 31.7116 22.5943 32.0011 22.4744C32.2906 22.3544 32.5537 22.1787 32.7753 21.9571C32.9969 21.7355 33.1726 21.4724 33.2926 21.1829C33.4125 20.8934 33.4742 20.5831 33.4742 20.2697Z" fill="white"/>
<path d="M15.6645 22.5272H18.5947C18.6079 22.5272 18.6205 22.5325 18.6298 22.5418C18.639 22.5511 18.6443 22.5637 18.6443 22.5768L18.642 23.9833C18.642 23.9965 18.6368 24.0091 18.6275 24.0184C18.6182 24.0277 18.6056 24.0329 18.5925 24.0329L14.1521 24.0318C14.1389 24.0318 14.1263 24.0265 14.1171 24.0173C14.1078 24.008 14.1025 23.9954 14.1025 23.9822V16.5339C14.1025 16.5208 14.1078 16.5082 14.1171 16.4989C14.1263 16.4896 14.1389 16.4844 14.1521 16.4844L15.5643 16.4889C15.5774 16.4889 15.59 16.4941 15.5993 16.5034C15.6086 16.5127 15.6138 16.5253 15.6138 16.5384L15.6149 22.4777C15.6149 22.4908 15.6202 22.5034 15.6295 22.5127C15.6388 22.522 15.6514 22.5272 15.6645 22.5272Z" fill="white"/>
<path d="M31.0875 22.6564C32.4054 22.6564 33.4738 21.588 33.4738 20.2701C33.4738 18.9522 32.4054 17.8838 31.0875 17.8838C29.7696 17.8838 28.7012 18.9522 28.7012 20.2701C28.7012 21.588 29.7696 22.6564 31.0875 22.6564Z" fill="#080A52"/>
</g>
<circle cx="20" cy="20" r="19.5" stroke="black" stroke-opacity="0.05"/>
<defs>
<clipPath id="clip0_9_397821">
<rect width="30" height="9" fill="white" transform="translate(5 16)"/>
</clipPath>
</defs>
</svg>
