<svg width="40" height="40" viewBox="0 0 40 40" fill="none" xmlns="http://www.w3.org/2000/svg">
<circle cx="20" cy="20" r="20" fill="#E22D00"/>
<g clip-path="url(#clip0_9_396558)">
<path d="M19.9562 11.4287C15.2334 11.4287 11.4287 15.2773 11.4287 20.0001C11.4287 24.723 15.2773 28.5716 20.0001 28.5716C24.723 28.5716 28.5716 24.723 28.5716 20.0001C28.5716 15.2773 24.6796 11.4287 19.9562 11.4287ZM24.8216 24.2859C24.8216 24.2859 22.8866 23.7501 20.0001 23.7501C17.1137 23.7501 15.1787 24.2859 15.1787 24.2859V15.7144H15.3646C15.3646 15.7144 16.1955 23.2144 20.0001 23.2144C23.8048 23.2144 24.6501 15.7144 24.6501 15.7144H24.8216V24.2859Z" fill="white"/>
</g>
<circle cx="20" cy="20" r="19.5" stroke="black" stroke-opacity="0.05"/>
<defs>
<clipPath id="clip0_9_396558">
<rect width="18" height="18" fill="white" transform="translate(11 11)"/>
</clipPath>
</defs>
</svg>
