<svg width="40" height="40" viewBox="0 0 40 40" fill="none" xmlns="http://www.w3.org/2000/svg">
<circle cx="20" cy="20" r="20" fill="#002C77"/>
<g clip-path="url(#clip0_9_400140)">
<path d="M31.323 16.0241L26.0363 13.1517C25.6639 12.9494 25.0547 12.9494 24.6823 13.1517L10.0974 21.076L18.1684 15.244L14.3174 13.1517C13.9451 12.9494 13.3358 12.9494 12.9635 13.1517L7.6767 16.0241C7.30437 16.2264 6.99974 16.7235 7 17.1284V22.8708C6.99974 23.2765 7.30437 23.7736 7.6767 23.9759L12.9635 26.8483C13.3358 27.0506 13.9451 27.0506 14.3174 26.8483L28.9023 18.924L20.8314 24.756L24.6823 26.8483C25.0547 27.0506 25.6639 27.0506 26.0363 26.8483L31.323 23.9759C31.6954 23.7736 32 23.2765 32 22.8712V17.1288C32 16.7235 31.6954 16.2264 31.323 16.0241Z" fill="white"/>
</g>
<circle cx="20" cy="20" r="19.5" stroke="black" stroke-opacity="0.05"/>
<defs>
<clipPath id="clip0_9_400140">
<rect width="24" height="14" fill="white" transform="translate(8 13)"/>
</clipPath>
</defs>
</svg>
