<svg width="40" height="40" viewBox="0 0 40 40" fill="none" xmlns="http://www.w3.org/2000/svg">
<circle cx="20" cy="20" r="20" fill="#EE1B2D"/>
<g clip-path="url(#clip0_9_411906)">
<path d="M26.8503 13.7157L25.2051 21.0129L23.4229 13.7157L18.28 13.7317L18.2709 16.6015C17.6651 14.3329 15.7023 13.7477 13.7143 13.7157C11.2909 13.6837 8.66457 14.4997 8.57143 17.71H11.9989C11.9989 16.7403 12.7131 16.5712 13.5491 16.5855C14.576 16.5769 15.0406 16.8666 15.0634 17.55C15.0286 18.1432 14.6789 18.5557 13.5491 18.5557H12.5697V20.8855H13.4451C14.0263 20.8855 14.8354 21.2026 14.8674 22.0317C14.9063 23.0203 14.22 23.4546 13.376 23.4632C11.868 23.4072 11.4789 22.1317 11.4789 21.1335H8C8.01486 21.806 7.97543 26.3186 13.4286 26.286C16.0411 26.31 17.7429 25.21 18.28 23.6929L18.2703 26.286L21.7086 26.2695V18.2803L23.6977 26.2695H26.696L28.5669 18.2803L28.5583 26.2763H31.9823L32 13.7157H26.8503ZM18.2823 21.0129C17.8549 20.1272 17.4691 19.7237 17.1309 19.6015C17.8411 19.2849 17.9971 18.8723 18.2823 18.0163V21.0129Z" fill="white"/>
</g>
<circle cx="20" cy="20" r="19.5" stroke="black" stroke-opacity="0.05"/>
<defs>
<clipPath id="clip0_9_411906">
<rect width="24" height="14" fill="white" transform="translate(8 13)"/>
</clipPath>
</defs>
</svg>
