<svg width="40" height="40" viewBox="0 0 40 40" fill="none" xmlns="http://www.w3.org/2000/svg">
<circle cx="20" cy="20" r="20" fill="#E31E25"/>
<path d="M25.3148 22.8874C25.3573 22.795 25.3297 22.7661 25.232 22.8008C24.7817 22.9625 24.3572 22.9914 23.9584 22.8874C22.5166 22.5129 22.3634 20.6363 22.693 19.5101C22.7201 19.4168 22.7043 19.4088 22.6455 19.4861C21.8471 20.523 21.1006 21.5088 20.4062 22.4436C19.9382 23.0727 19.431 23.4992 18.6077 23.4152C17.5918 23.3112 17.6297 22.2783 17.6609 21.5226C17.7161 20.236 17.8323 19.0752 18.0095 18.04C18.0692 17.6935 18.0072 17.6713 17.8237 17.9734C17.0384 19.2649 16.1283 20.4604 15.1639 21.6799C14.7122 22.249 14.2334 23.3512 13.3695 23.3912C12.7021 23.4219 12.3007 22.962 12.3956 22.305C12.5945 20.9357 12.8066 19.5181 13.0317 18.052C13.0328 18.0452 13.0323 18.0382 13.0302 18.0316C13.0281 18.025 13.0244 18.019 13.0196 18.0139C13.0148 18.0089 13.0088 18.0051 13.0022 18.0026C12.9956 18.0002 12.9885 17.9993 12.9815 18C12.9074 18.0054 12.845 18.0382 12.7944 18.0987C11.5397 19.6047 10.5686 21.1961 9.5405 22.8261C9.20593 23.3565 8.77235 23.5227 8.23976 23.3246C7.64433 23.102 7.57651 22.4969 7.70808 21.9571C8.30848 19.4968 8.88403 17.1217 9.4347 14.832C9.43793 14.8186 9.43815 14.8047 9.43534 14.7912C9.43254 14.7778 9.42679 14.7651 9.41849 14.7542C9.4102 14.7432 9.39957 14.7342 9.38736 14.7279C9.37516 14.7215 9.36168 14.7179 9.3479 14.7174C8.64531 14.6827 8.62768 16.6672 7.40425 16.0448C6.24322 15.4544 7.90475 13.2539 8.3754 12.7581C8.8474 12.2583 9.76836 11.7999 10.4791 12.1024C11.1681 12.397 11.1545 13.4085 11.0528 14.0123C10.8711 15.0901 10.6739 16.2008 10.4615 17.3443C10.4361 17.4811 10.4248 17.6251 10.4275 17.7761C10.4277 17.7881 10.4309 17.7998 10.4367 17.8103C10.4426 17.8208 10.451 17.8297 10.4611 17.8363C10.4713 17.8428 10.4829 17.8469 10.4951 17.848C10.5072 17.8491 10.5194 17.8473 10.5306 17.8428C10.6391 17.7974 10.7291 17.7273 10.8005 17.6322C12.0267 15.9902 13.2026 14.4206 14.3284 12.9234C14.7968 12.3014 15.3551 12.1722 16.0035 12.5356C16.4416 12.7821 16.268 13.4259 16.135 13.8217C15.8249 14.7422 15.4736 15.8302 15.0812 17.0857C14.8696 17.7646 14.7046 18.3812 14.5861 18.9357C14.5689 19.0156 14.6001 19.0672 14.6797 19.0903C14.7005 19.0961 14.7228 19.0952 14.7432 19.0878C14.7637 19.0804 14.7813 19.0668 14.7936 19.0489C15.9289 17.3843 17.0519 15.6623 18.3269 14.1096C18.4689 13.9363 18.628 13.7653 18.8043 13.5965C19.6629 12.7741 20.988 13.3846 20.6449 14.5947C20.0779 16.5904 19.6746 18.5762 19.435 20.5523C19.4287 20.6101 19.445 20.6607 19.4839 20.7043C19.5589 20.7878 19.6389 20.794 19.7239 20.7229C19.8162 20.6465 19.9003 20.5568 19.9762 20.4537C21.3339 18.6145 22.5533 16.8165 23.4905 14.8733C23.7455 14.3464 24.0317 13.7733 24.3491 13.154C24.7261 12.4209 25.3663 11.5959 26.3158 12.221C26.823 12.5542 26.5721 13.2873 26.3551 13.7031C25.5856 15.1692 24.9933 16.7263 24.5783 18.3745C24.4549 18.8624 24.1524 20.4057 24.9336 20.5377C25.7041 20.667 26.2479 19.8699 26.5857 19.2742C27.8028 17.1337 28.9792 15.0732 30.1149 13.0927C30.7103 12.0544 32.6146 12.2797 31.8008 13.7178C30.3314 16.3176 29.0488 18.7633 27.9529 21.0548C27.177 22.679 26.5518 24.4725 26.077 26.4353C25.8709 27.291 25.8275 28.2426 25.9862 29.0876C26.0477 29.4154 26.1132 29.7478 26.1828 30.0845C26.4094 31.1734 24.9431 31.1521 24.4304 30.7349C23.9268 30.3244 23.6668 29.7455 23.6505 28.9983C23.6044 26.9578 24.4399 24.7906 25.3148 22.8874Z" fill="white"/>
<circle cx="20" cy="20" r="19.5" stroke="black" stroke-opacity="0.05"/>
</svg>
