<svg width="40" height="40" viewBox="0 0 40 40" fill="none" xmlns="http://www.w3.org/2000/svg">
<circle cx="20" cy="20" r="20" fill="#F6F8FA"/>
<g clip-path="url(#clip0_9_398262)">
<path d="M29.8006 18.8332V18.5388C29.8006 18.2332 29.8006 17.911 29.7784 17.5944C29.6339 16.1444 28.3951 14.8444 26.9562 14.6555C26.6839 14.6221 26.3895 14.6055 26.0228 14.6055C25.8451 14.6055 25.6562 14.6055 25.4784 14.6166H25.1728C25.1728 14.6999 25.1839 14.7721 25.1839 14.8555V14.8666C25.1951 15.2888 25.1951 15.9277 25.1728 16.5444V16.5666C25.1728 16.6388 25.1728 16.7055 25.1617 16.7888C25.9173 16.7999 26.4728 16.8499 26.5451 16.8499C26.5951 16.8499 26.6284 16.861 26.6617 16.8721C27.2284 17.011 27.5728 17.461 27.5728 18.0777V21.6888C27.5728 22.4444 27.0784 22.9277 26.3173 22.9277H23.5062C23.1173 22.9277 22.9617 23.0832 22.9506 23.4721V26.3555C22.9506 26.9944 22.4562 27.5221 21.8506 27.5221C21.1895 27.5332 20.5284 27.5332 19.8895 27.5332C19.2506 27.5332 18.5895 27.5332 17.9617 27.5221C17.3617 27.511 16.8617 27.0055 16.8617 26.3777V25.7388C16.8617 25.7388 16.8506 25.4555 16.8395 25.0555V24.8444C16.8395 24.4055 16.8395 23.761 16.8895 23.1777L16.8562 23.1444H16.8895V23.061C16.9006 22.9888 16.9006 22.9221 16.9117 22.8388C16.9117 22.7944 16.9228 22.7444 16.9339 22.6888L16.9451 22.6166L16.9562 22.5666C16.9562 22.5666 16.9673 22.5166 16.9673 22.4832C16.9895 22.3499 17.0284 22.2221 17.0617 22.0944C17.3951 20.8166 18.0284 19.711 18.9617 18.7999C19.7173 18.0666 20.5895 17.5277 21.5728 17.1832C21.5839 17.1832 21.6062 17.1721 21.6339 17.1721L21.6951 17.161C21.6951 17.161 21.7562 17.1388 21.7673 17.1388L21.8506 17.1166C22.1951 17.011 22.5451 16.9388 22.8895 16.8944C22.9006 16.811 22.9006 16.7444 22.9117 16.6721V16.5888H22.9451L22.9117 16.5555C22.9562 15.9777 22.9562 15.3277 22.9562 14.8888V14.6777C22.5784 14.6999 22.2117 14.7388 21.9173 14.7832H21.9062C21.1284 14.9499 20.3728 15.2221 19.6728 15.5721C17.8784 16.4832 16.4951 17.8721 15.5617 19.7055C15.0895 20.6277 14.7951 21.6388 14.6617 22.7277V22.7388C14.6617 22.811 14.6506 22.8888 14.6506 22.9777C14.6506 23.0499 14.6395 23.1277 14.6395 23.1999V23.2221C14.6173 23.8332 14.6173 24.4721 14.6284 24.8999V24.911C14.6395 24.9944 14.6395 25.0666 14.6395 25.1499V25.7388C14.6395 25.9888 14.6395 26.2444 14.6506 26.5055C14.7228 27.911 15.4173 28.9277 16.7284 29.5166C16.9673 29.6221 17.2006 29.6832 17.4395 29.7166C17.5117 29.7277 17.5784 29.7499 17.6506 29.7666L17.7117 29.7777H22.1562L22.2728 29.7555C22.2728 29.7555 22.2839 29.7444 22.2951 29.7444C24.0451 29.461 25.2006 28.0888 25.2117 26.3221V25.1777H26.3339C26.5728 25.1777 26.8173 25.1666 27.0673 25.1166C28.7117 24.7721 29.8062 23.4166 29.8228 21.7499C29.8006 20.5832 29.8006 19.6832 29.8006 18.8444V18.8332Z" fill="#18BECE"/>
<path d="M25.1836 14.8667V14.8556C25.1836 14.7833 25.1725 14.7 25.1725 14.6167V14.0278C25.1725 13.7778 25.1725 13.5222 25.1614 13.2611C25.0892 11.8556 24.3947 10.8389 23.0836 10.25C22.8447 10.1444 22.6114 10.1 22.3725 10.05C22.3003 10.0389 22.2336 10.0167 22.1614 10H17.6614L17.5447 10.0222C17.5447 10.0222 17.5336 10.0333 17.5225 10.0333C15.7836 10.3167 14.6059 11.6889 14.6059 13.4556V13.75C14.6059 14.0333 14.6059 14.3167 14.6059 14.6H13.4836C13.2447 14.6 13.0003 14.6111 12.7503 14.6611C11.1059 15.0056 10.0059 16.3611 10.0059 18.0278V21.2278C10.0059 21.5333 10.0059 21.8556 10.0281 22.1722C10.167 23.6389 11.4114 24.9222 12.8503 25.1111C13.1225 25.1444 13.417 25.1611 13.7725 25.1611C13.9614 25.1611 14.1392 25.1611 14.317 25.15H14.6225C14.6225 25.0667 14.6114 25 14.6114 24.9167V24.9056C14.6114 24.4833 14.6003 23.8444 14.6225 23.2278V23.2056C14.6225 23.1333 14.6225 23.0611 14.6336 22.9833C13.867 22.9722 13.3114 22.9222 13.2503 22.9222C13.2059 22.9222 13.167 22.9111 13.1336 22.9C12.567 22.7611 12.2225 22.3111 12.2225 21.6944C12.2114 20.6111 12.2114 19.4167 12.2225 18.0833C12.2225 17.3278 12.717 16.8444 13.4725 16.8444H16.2725C16.6614 16.8444 16.817 16.6944 16.8281 16.3V13.4222C16.8281 12.7833 17.3225 12.2556 17.9281 12.2556C18.5892 12.2444 19.2503 12.2444 19.8892 12.2444C20.5281 12.2444 21.1892 12.2444 21.817 12.2556C22.417 12.2667 22.917 12.7778 22.917 13.4V14.0389C22.917 14.0389 22.9281 14.3222 22.9392 14.7222V14.9333C22.9392 15.3722 22.9392 16.0167 22.8892 16.6L22.9225 16.6333H22.8892V16.7167C22.8781 16.7889 22.8781 16.8611 22.867 16.9389C22.8559 16.9889 22.8559 17.0333 22.8447 17.0944L22.8336 17.1667L22.8225 17.2167C22.8225 17.2167 22.8225 17.2611 22.8114 17.2889C22.7892 17.4167 22.7503 17.5611 22.717 17.6778C22.3892 18.9556 21.7503 20.0667 20.817 20.9722C20.0725 21.7056 19.1892 22.2444 18.2059 22.5889C18.1836 22.6 18.1725 22.6 18.1447 22.6111L18.0836 22.6222C18.0836 22.6222 18.0225 22.6444 18.0114 22.6444L17.9281 22.6667C17.5836 22.7722 17.2336 22.8444 16.8892 22.8889C16.8781 22.9722 16.8781 23.0444 16.867 23.1111L16.8559 23.1444V23.1889H16.8225L16.8559 23.2222C16.8114 23.8 16.8114 24.45 16.8114 24.8889V25.1C17.1892 25.0778 17.5559 25.0389 17.8503 24.9944H17.8614C18.6392 24.8278 19.3947 24.5556 20.0947 24.2056C21.8892 23.2944 23.2725 21.9056 24.2059 20.0722C24.667 19.15 24.9725 18.1333 25.1059 17.05V17.0389C25.117 16.9556 25.117 16.8833 25.117 16.8C25.117 16.7278 25.117 16.6556 25.1281 16.5778V16.5556C25.2003 15.9278 25.2003 15.2889 25.1892 14.8667H25.1836Z" fill="#1593CE"/>
</g>
<circle cx="20" cy="20" r="19.5" stroke="black" stroke-opacity="0.05"/>
<defs>
<clipPath id="clip0_9_398262">
<rect width="20" height="20" fill="white" transform="translate(10 10)"/>
</clipPath>
</defs>
</svg>
