<svg width="40" height="40" viewBox="0 0 40 40" fill="none" xmlns="http://www.w3.org/2000/svg">
<circle cx="20" cy="20" r="20" fill="#1C4EFF"/>
<g clip-path="url(#clip0_9_387073)">
<path d="M29.1046 18.423V19.5141C29.1046 19.7205 29.2637 19.8717 29.458 19.8717H32.8786C33.3461 19.8717 33.7693 20.0902 34.0753 20.4157C34.3971 20.7607 34.5746 21.2158 34.5713 21.6876V22.9128C34.5713 23.9073 33.8118 24.7148 32.8756 24.7148H21.8213V22.9007H31.7973C31.9916 22.9007 32.1434 22.7441 32.1434 22.5376L32.1428 22.0628C32.1428 21.8564 31.9922 21.6876 31.7973 21.6876H28.3688C27.4404 21.6876 26.6809 21.1455 26.6809 20.1595V18.009C26.6809 17.0223 27.4398 16.2148 28.3688 16.2148L33.011 16.2416C33.8974 16.2416 34.5689 16.9981 34.5689 17.8827V18.0484H29.458C29.2637 18.0484 29.1046 18.2172 29.1046 18.423ZM16.9642 17.8566V24.7148H14.5356V18.6598L12.7142 18.6604L12.7081 24.7148H10.2874V18.6604L7.85704 18.6598L7.84429 24.7148H5.42847V18.046C5.42847 17.1577 6.137 16.2416 7.00279 16.2416H15.4063C16.2726 16.2416 16.9642 16.9683 16.9642 17.8566Z" fill="white"/>
<path d="M23.0357 19.4906C23.0357 19.6971 22.8718 19.8713 22.6648 19.8713H20.6053V18.0541H22.6648C22.8712 18.0541 23.0357 18.1871 23.0357 18.3929V19.4906ZM24.0897 16.2412H18.9885C18.3911 16.2412 18.178 16.7245 18.178 17.3201V24.7145H20.6053V21.6873H24.0897C25.0854 21.6873 25.4643 20.8689 25.4643 19.8737V18.0547C25.4643 17.0602 25.0854 16.2412 24.0897 16.2412Z" fill="white"/>
</g>
<circle cx="20" cy="20" r="19.5" stroke="black" stroke-opacity="0.05"/>
<defs>
<clipPath id="clip0_9_387073">
<rect width="30" height="10" fill="white" transform="translate(5 15.4648)"/>
</clipPath>
</defs>
</svg>
