<svg width="40" height="40" viewBox="0 0 40 40" fill="none" xmlns="http://www.w3.org/2000/svg">
<circle cx="20" cy="20" r="20" fill="#00A94E"/>
<g clip-path="url(#clip0_9_405521)">
<path d="M27.1433 20.5713L28.025 17.7141H29.8981C29.8981 17.7141 30.1633 17.689 30.2764 17.9153L31.1056 20.5713H27.1433ZM31.2964 16.5713H25.1433V17.7141H26.5061L24.4913 23.4233L26.2861 23.4284L26.8576 21.7141H31.429L32.0004 23.4284L33.7147 23.4233L31.2964 16.5713ZM24.0044 16.5713H18.4358C17.3478 16.5713 17.1433 17.6113 17.1433 17.6113V19.397C17.1433 19.397 17.0907 19.8267 17.4873 20.1993C17.9021 20.5879 18.4044 20.5713 18.4044 20.5713H22.6353C22.6353 20.5713 22.7358 20.5987 22.8113 20.669C22.8536 20.7096 22.8576 20.7913 22.8576 20.8244V22.0701C22.8576 22.0701 22.8536 22.1741 22.8061 22.2233C22.7598 22.2713 22.649 22.2856 22.649 22.2856H17.7147V23.4233L22.8393 23.4279C22.8393 23.4279 23.317 23.4496 23.6576 23.1536C23.9856 22.8679 24.0004 22.437 24.0004 22.437V20.3999C24.0004 20.3999 24.017 20.1599 23.661 19.8153C23.2176 19.3856 22.8518 19.4284 22.8518 19.4284H18.4873C18.2701 19.3964 18.2861 19.2141 18.2861 19.2141V17.9296C18.2861 17.9296 18.2936 17.8216 18.3416 17.7741C18.413 17.701 18.4981 17.7141 18.4981 17.7141H24.0004L24.0044 16.5713ZM17.1433 22.0341L16.4758 22.0273C16.3404 22.0273 16.2747 21.9839 16.2576 21.8444C16.237 21.6879 15.6164 16.5713 15.6164 16.5713H12.9318L11.8404 20.5639L11.4158 22.0067L11.0273 20.5976L9.92613 16.5713H7.2347L6.28613 23.4233H7.87413L8.59756 17.7141H8.88328L10.5484 23.4233H12.1907L13.9393 17.7141H14.2118L14.7444 22.417C14.7444 22.417 14.7747 22.7673 15.1238 23.1124C15.4193 23.4027 15.8301 23.4233 15.8301 23.4233L17.1433 23.4341V22.0341Z" fill="white"/>
</g>
<circle cx="20" cy="20" r="19.5" stroke="black" stroke-opacity="0.05"/>
<defs>
<clipPath id="clip0_9_405521">
<rect width="28" height="8" fill="white" transform="translate(6 16)"/>
</clipPath>
</defs>
</svg>
