<svg width="40" height="40" viewBox="0 0 40 40" fill="none" xmlns="http://www.w3.org/2000/svg">
<circle cx="20" cy="20" r="20" fill="#00367E"/>
<g clip-path="url(#clip0_9_405365)">
<path d="M24.3942 25.8155C24.7362 25.3282 25.0659 24.6924 25.1881 24.4353C26.5079 24.6789 27.7197 24.0901 28.1607 23.7654H28.7714V25.6734L28.2828 25.4504C26.9469 26.0997 25.1347 25.9647 24.3942 25.8155ZM25.9685 23.4029C26.1723 22.8436 26.3247 22.1442 26.3761 21.8639C27.7132 21.7572 28.7302 20.8745 29.0716 20.447L29.6611 20.2882L30.1587 22.1313L29.6283 22.0419C28.5084 23.0159 26.7219 23.3547 25.9685 23.4029ZM26.5741 20.5865C26.5882 19.9919 26.5092 19.2802 26.4674 18.9987C27.701 18.4715 28.3824 17.3118 28.5689 16.7982L29.0767 16.46L30.1374 18.0479L29.6071 18.1327C28.8569 19.412 27.2722 20.3011 26.5741 20.5865ZM21.8285 27.1822C22.3859 26.8704 22.8879 26.3857 23.0692 26.1826C24.5112 26.9412 26.1742 26.7361 26.8261 26.5381L25.8914 28.7244L25.5346 28.3008C23.7121 28.3419 22.3049 27.5724 21.8285 27.1822ZM21.9307 29.7755C20.4483 29.2606 19.3188 27.9337 18.9389 27.3352C19.2519 27.3352 20.0896 27.0074 20.4689 26.8434C21.6929 28.2674 23.2229 28.6113 23.8342 28.6062L22.1345 30.2499L21.9307 29.7755ZM18.0099 29.7202C16.7724 28.565 16.2742 26.9559 16.1797 26.2957C16.4632 26.4314 17.3857 26.522 17.8113 26.5503C18.2883 28.1009 19.6094 29.1114 20.2098 29.4226L18.0099 30.2859V29.7202ZM14.4492 28.2339C13.7562 26.6943 13.9143 24.9984 14.0802 24.3427C14.4318 24.6706 15.1344 25.0267 15.4424 25.1637C15.3395 27.2015 16.1469 28.3805 16.5629 28.7154H14.2074L14.4492 28.2339ZM11.7241 25.4889C11.6103 23.6889 12.4055 22.2579 12.8169 21.7668C12.9642 22.1634 13.5498 22.7529 13.8237 22.9985C12.995 24.5382 13.2419 26.1774 13.4694 26.8049L11.3409 25.8708L11.7241 25.4889ZM10.2185 21.9031C10.7521 20.3474 12.095 19.2339 12.6993 18.8714C12.7649 19.4808 13.0265 20.1674 13.1493 20.4348C11.8623 21.4679 11.4316 23.0859 11.3769 23.7648L9.74151 22.1069L10.2185 21.9031ZM10.2455 18.0286C11.456 16.7017 13.0407 16.2524 13.6816 16.1932C13.5402 16.6497 13.5222 17.4532 13.5312 17.7978C11.8732 18.2433 10.8864 19.5875 10.5997 20.204L9.71387 18.0286H10.2455ZM13.2387 13.4752L14.1605 11.3409L14.5141 11.7267C16.3623 11.6907 17.7882 12.4685 18.2697 12.8619C17.9058 12.9892 17.2681 13.5729 16.9949 13.8494C15.5382 13.0683 13.8834 13.2747 13.2387 13.4752ZM25.8387 11.2728H23.4826C24.5568 12.5347 24.6661 14.1978 24.5864 14.8709C25.1328 15.0522 25.7628 15.461 26.009 15.6423C26.4012 13.6816 25.9062 12.2377 25.6104 11.7607L25.8387 11.2728ZM28.3323 14.5501C28.3452 15.6262 28.1176 16.4169 28.0025 16.6779H26.3716C27.0048 15.2932 26.7477 13.7838 26.5284 13.2052L28.7714 14.1438L28.3323 14.5501ZM22.0426 9.71451L19.8524 10.6197C21.2982 11.3442 22.0767 12.8607 22.2849 13.5279C22.8018 13.4874 23.5501 13.6186 23.8599 13.6887C23.6337 12.0468 22.5543 10.7174 22.0426 10.2577V9.71387V9.71451ZM17.9045 9.74408L16.2427 11.3814C18.197 11.6026 19.2931 12.6575 19.5965 13.157C19.9758 12.9282 20.8032 12.7527 21.1696 12.6935C20.1796 11.2021 18.6927 10.4345 18.0729 10.2378L17.9045 9.74408ZM11.2715 16.5802V14.2229L11.7305 14.4588C13.2663 13.76 14.9763 13.8995 15.6391 14.0564C15.2829 14.4562 14.9898 15.1659 14.8882 15.4707C12.9738 15.3164 11.6797 16.145 11.2715 16.5802ZM14.8567 23.2171L16.784 16.7885C19.1214 16.7885 23.9519 16.7885 24.5754 16.7956C25.199 16.802 25.1849 17.3934 25.1007 17.6879L23.2139 23.2171H21.7848C21.1889 23.2171 21.2487 22.6179 21.3528 22.3177C21.7514 20.9979 22.6623 18.2825 22.7459 17.9791C22.8294 17.6757 22.7459 17.4288 22.6012 17.4288H21.7224L19.9996 23.2171H18.071C18.5564 21.617 19.511 18.3288 19.5959 17.9791C19.6807 17.6294 19.5567 17.4288 19.4082 17.4288H18.5596L16.7847 23.2171H14.8567Z" fill="white"/>
</g>
<circle cx="20" cy="20" r="19.5" stroke="black" stroke-opacity="0.05"/>
<defs>
<clipPath id="clip0_9_405365">
<rect width="22" height="22" fill="white" transform="translate(9 9)"/>
</clipPath>
</defs>
</svg>
