<svg width="40" height="40" viewBox="0 0 40 40" fill="none" xmlns="http://www.w3.org/2000/svg">
<circle cx="20" cy="20" r="20" fill="#E60001"/>
<g clip-path="url(#clip0_9_400150)">
<path d="M20.1607 28.145C24.6414 28.0679 28.3571 24.4486 28.3571 20.0129C28.3571 15.5771 24.6414 11.9386 20.1607 11.8486V11.8743L20.1157 11.8679C20.1013 11.8616 20.0862 11.8572 20.0707 11.855H19.9421C19.9293 11.855 19.91 11.855 19.8971 11.8679C19.8825 11.872 19.8673 11.8741 19.8521 11.8743V11.855C15.3714 11.9321 11.6428 15.5643 11.6428 20C11.6428 24.4357 15.3714 28.055 19.8521 28.145H20.1607ZM20 11.7843C21.1755 11.2687 22.4449 11.0017 23.7285 11C28.7685 11 32.8571 15.05 32.8571 20C32.8571 24.9629 28.7685 29 23.735 29C22.4107 29 21.1507 28.7171 20.0064 28.2157C18.8296 28.7345 17.5574 29.0016 16.2714 29C15.081 29.0085 13.9007 28.7824 12.7977 28.3347C11.6947 27.887 10.6908 27.2264 9.84308 26.3907C8.99541 25.5549 8.32065 24.5604 7.85734 23.4639C7.39403 22.3674 7.15123 21.1903 7.14282 20C7.14282 15.05 11.2314 11 16.2714 11C17.6021 11 18.8621 11.2829 20 11.7843ZM16.1428 20C16.1428 19.4935 16.2426 18.9919 16.4364 18.5239C16.6303 18.056 16.9144 17.6308 17.2726 17.2726C17.6307 16.9144 18.0559 16.6303 18.5239 16.4365C18.9919 16.2426 19.4934 16.1429 20 16.1429C20.5065 16.1429 21.0081 16.2426 21.476 16.4365C21.944 16.6303 22.3692 16.9144 22.7274 17.2726C23.0855 17.6308 23.3697 18.056 23.5635 18.5239C23.7573 18.9919 23.8571 19.4935 23.8571 20C23.8571 21.023 23.4507 22.0041 22.7274 22.7274C22.004 23.4508 21.0229 23.8571 20 23.8571C18.977 23.8571 17.9959 23.4508 17.2726 22.7274C16.5492 22.0041 16.1428 21.023 16.1428 20Z" fill="white"/>
</g>
<circle cx="20" cy="20" r="19.5" stroke="black" stroke-opacity="0.05"/>
<defs>
<clipPath id="clip0_9_400150">
<rect width="26" height="18.0002" fill="white" transform="translate(7 11)"/>
</clipPath>
</defs>
</svg>
