<svg width="40" height="40" viewBox="0 0 40 40" fill="none" xmlns="http://www.w3.org/2000/svg">
<circle cx="20" cy="20" r="20" fill="#F6F8FA"/>
<g clip-path="url(#clip0_9_394012)">
<path d="M19.6461 12H20.6138C20.7585 12.0152 20.9052 12.0286 21.0499 12.0476C22.0957 12.1752 23.1128 12.5257 24.0099 13.08C23.9433 13.0762 23.8747 13.0667 23.8157 13.0343C23.4938 12.8743 23.1566 12.7505 22.8138 12.6495C21.6842 12.3276 20.4899 12.2133 19.3242 12.3714C18.4976 12.4838 17.6957 12.7562 16.9642 13.1581C16.1852 13.579 15.4766 14.1352 14.8976 14.8057C14.2557 15.5467 13.7699 16.419 13.448 17.3429C13.0957 17.4705 12.7509 17.619 12.4233 17.8C12.608 17.1048 12.8995 16.44 13.2804 15.8286C13.7242 15.1219 14.2633 14.4724 14.8938 13.9238C16.2061 12.779 17.9128 12.1105 19.6461 12ZM16.8842 13.7314C18.2842 12.9029 19.9738 12.5943 21.5795 12.8419C22.568 12.9943 23.5147 13.3771 24.3547 13.9143C25.0233 14.3352 25.6309 14.8533 26.1204 15.4724C26.7452 16.2552 27.1985 17.1695 27.4995 18.1219C27.5642 18.4114 27.6442 18.6971 27.7223 18.9829C27.7814 19.2952 27.8176 19.6114 27.8404 19.9276C27.8423 20.1162 27.8404 20.3029 27.8328 20.4914C27.8157 20.7162 27.7947 20.941 27.7699 21.1657C27.7547 21.2698 27.7382 21.3733 27.7204 21.4762C27.6309 21.8971 27.5261 22.3162 27.3661 22.7181C27.0309 23.6076 26.5604 24.4495 25.9528 25.181C25.349 25.9086 24.6119 26.5219 23.7966 26.9981C22.9623 27.499 22.0271 27.8362 21.0595 27.9467C20.2652 28.0324 19.4576 28.0171 18.669 27.88C17.6442 27.7048 16.6595 27.3105 15.789 26.739C15.0385 26.2438 14.3566 25.6362 13.7985 24.9314C13.0461 23.9829 12.5376 22.8533 12.2861 21.6724C12.648 21.7219 13.0042 21.8076 13.3604 21.8857C13.5357 22.5162 13.8347 23.1067 14.2004 23.6457C14.6995 24.3886 15.3319 25.0476 16.0842 25.5371C17.029 26.1581 18.1433 26.499 19.2652 26.5981C20.469 26.6971 21.6861 26.3981 22.7452 25.8324C23.5928 25.379 24.3299 24.7276 24.8938 23.9505C25.429 23.2095 25.8385 22.3695 26.0347 21.4743C26.2938 20.3067 26.1642 19.0629 25.709 17.96C25.3585 17.1124 24.7871 16.3657 24.0842 15.779C23.4176 15.2133 22.6176 14.8019 21.7623 14.6133C21.1223 14.4705 20.4576 14.4419 19.808 14.5162C18.9585 14.6133 18.1376 14.9276 17.4347 15.4133C16.8957 15.7829 16.4233 16.2514 16.0709 16.8019C15.3738 16.8781 14.6842 17.0038 14.0042 17.1733C14.2061 16.6133 14.5014 16.0914 14.8499 15.6114C15.3947 14.8571 16.0842 14.2038 16.8842 13.7314ZM19.5528 15.0229C20.2633 14.899 20.9966 14.9086 21.6995 15.0705C22.5414 15.2629 23.3185 15.6952 23.9547 16.2762C24.6119 16.8648 25.1204 17.621 25.4004 18.4571C25.7547 19.5029 25.8099 20.6571 25.5014 21.7219C25.2385 22.6305 24.7471 23.4667 24.1242 24.1752C23.4823 24.9048 22.6499 25.4667 21.7319 25.7848C20.6652 26.1524 19.4976 26.2686 18.389 26.0229C17.3909 25.8076 16.4709 25.3029 15.6919 24.6495C14.8576 23.9619 14.2404 23.0248 13.8919 22.0038C14.5414 22.1238 15.1871 22.2686 15.8347 22.4019C15.9223 22.419 16.0099 22.4419 16.0957 22.4648C16.3852 22.9105 16.7604 23.2952 17.1795 23.621C17.8595 24.1543 18.6899 24.4952 19.5509 24.5829C20.1852 24.6514 20.8366 24.6076 21.4499 24.421C21.9642 24.2667 22.4461 24.0152 22.8747 23.6933C23.2366 23.4267 23.5604 23.1067 23.8176 22.7371C23.9109 22.6571 23.968 22.5448 24.0366 22.4438C24.1261 22.3086 24.2023 22.1638 24.2633 22.0133C24.4157 21.6895 24.5509 21.3543 24.6119 20.9981C24.6804 20.701 24.7166 20.3981 24.7204 20.0914C24.749 19.7162 24.6899 19.341 24.6119 18.9733C24.5223 18.5276 24.3585 18.0952 24.1166 17.7086C23.8728 17.2952 23.5757 16.9067 23.2099 16.5924C22.9109 16.3352 22.5928 16.0971 22.2423 15.9143C21.7585 15.659 21.2252 15.499 20.6823 15.421C19.8099 15.3048 18.9052 15.4571 18.1147 15.8438C17.6499 16.0781 17.2023 16.3695 16.8519 16.76C16.7909 16.7619 16.728 16.7619 16.6671 16.7619C16.8099 16.5714 16.968 16.3943 17.1433 16.2324C17.8119 15.6133 18.6557 15.1829 19.5528 15.0229ZM13.8195 17.6629C14.4252 17.5143 15.0538 17.4571 15.6766 17.4629C15.5719 17.72 15.4614 17.9752 15.3814 18.2419C15.3299 18.4057 15.2957 18.5752 15.2557 18.7429C14.6957 18.7124 14.1357 18.7105 13.5776 18.7581C13.6252 18.3867 13.7223 18.0248 13.8195 17.6629ZM12.3109 18.1886C12.6252 18.0267 12.9547 17.8971 13.2957 17.8076C13.2252 18.1371 13.1414 18.4667 13.1071 18.8019C12.7985 18.8457 12.4919 18.8895 12.1833 18.9333C12.2119 18.6819 12.2671 18.4362 12.3109 18.1886ZM12.1242 19.4724C12.429 19.4438 12.7357 19.4419 13.0423 19.4495C13.0252 19.8857 13.0499 20.3219 13.1033 20.7543C12.7833 20.741 12.4633 20.7124 12.1433 20.7029C12.0976 20.2933 12.1128 19.8819 12.1242 19.4724ZM13.5147 19.4724C14.069 19.501 14.6157 19.6019 15.1604 19.7067C15.1528 20.1543 15.2442 20.6 15.3738 21.0267C15.1833 21.019 15.0004 20.9695 14.8119 20.9486C14.4004 20.899 13.9909 20.8438 13.5795 20.7924C13.5242 20.3543 13.4842 19.9143 13.5147 19.4724Z" fill="#5A2D83"/>
<path d="M34.821 16.465C34.8724 16.4345 34.9277 16.4117 34.9867 16.3945C34.9804 16.4263 34.967 16.4536 34.9467 16.4764C33.8896 17.3088 32.6553 17.8974 31.3753 18.2993C30.1905 18.6726 28.9581 18.8802 27.722 18.9831C27.6439 18.6974 27.5639 18.4117 27.4991 18.1222C29.0572 18.1812 30.6343 18.0612 32.1391 17.6326C33.0781 17.366 33.9867 16.9774 34.821 16.465ZM16.0705 16.8022C16.2686 16.7869 16.4674 16.7736 16.6667 16.7622C16.7277 16.7622 16.7905 16.7622 16.8515 16.7602C17.7353 16.7279 18.621 16.7831 19.4991 16.8764C19.8858 16.9336 20.2743 16.966 20.6591 17.0307C21.5048 17.166 22.3353 17.3717 23.1734 17.5374C23.4896 17.5869 23.7962 17.6841 24.1162 17.7088C24.3581 18.0955 24.522 18.5279 24.6115 18.9736C22.7086 18.7869 20.8496 18.3336 18.9829 17.9393C17.8934 17.7069 16.7962 17.4707 15.6762 17.4631C15.0534 17.4574 14.4248 17.5145 13.8191 17.6631C13.642 17.7069 13.4667 17.7507 13.2953 17.8079C12.9543 17.8974 12.6248 18.0269 12.3105 18.1888C11.8667 18.3926 11.4648 18.6822 11.1181 19.0231C11.0591 19.0783 11.0039 19.1393 10.9658 19.2098C11.0972 19.1983 11.2191 19.1488 11.3467 19.1183C11.6229 19.046 11.9029 18.9869 12.1829 18.9336C12.4915 18.8898 12.7981 18.846 13.1067 18.8022C13.2629 18.785 13.4191 18.7717 13.5772 18.7583C14.1353 18.7107 14.6953 18.7126 15.2553 18.7431C16.6991 18.8041 18.1353 19.0136 19.5467 19.3317C21.2496 19.7069 22.9734 20.025 24.7201 20.0917C24.7162 20.3983 24.68 20.7012 24.6115 20.9983C23.8115 21.0212 23.0115 21.0402 22.2153 20.9831C20.3562 20.8479 18.5372 20.4136 16.72 20.0269C16.2 19.9183 15.6839 19.7926 15.16 19.7069C14.6153 19.6022 14.0686 19.5012 13.5143 19.4726C13.3562 19.4631 13.2 19.4517 13.042 19.4498C12.7353 19.4422 12.4286 19.4441 12.1239 19.4726C11.1067 19.5679 10.0839 19.8155 9.19814 20.3393C8.861 20.5393 8.55052 20.7831 8.27433 21.0612C8.23814 21.1012 8.20957 21.1469 8.18291 21.1926C8.25719 21.1793 8.33148 21.1602 8.40386 21.1393C9.61719 20.7945 10.8858 20.6993 12.1429 20.7031C12.4629 20.7126 12.7829 20.7412 13.1029 20.7545C13.261 20.766 13.421 20.7774 13.5791 20.7926C13.9905 20.8441 14.4 20.8993 14.8115 20.9488C15 20.9698 15.1829 21.0193 15.3734 21.0269C16.0324 21.1393 16.6839 21.2955 17.3391 21.4307C18.6115 21.7031 19.8953 21.9241 21.1924 22.0269C21.8724 22.086 22.5562 22.0917 23.2381 22.0783C23.581 22.0707 23.922 22.0498 24.2629 22.0136C24.202 22.1641 24.1258 22.3088 24.0362 22.4441C23.9677 22.545 23.9105 22.6574 23.8172 22.7374C23.0991 22.8517 22.3753 22.9412 21.6496 22.9717C20.9962 22.9964 20.3429 23.006 19.6915 22.9736C18.9677 22.9412 18.2515 22.8345 17.5372 22.7241C17.0553 22.6441 16.5734 22.5622 16.0953 22.465C16.0096 22.4422 15.922 22.4193 15.8343 22.4021C15.1867 22.2688 14.541 22.1241 13.8915 22.0041C13.7124 21.9717 13.5372 21.9222 13.36 21.886C13.0039 21.8079 12.6477 21.7221 12.2858 21.6726C11.3372 21.4726 10.362 21.3507 9.39243 21.4402C8.661 21.5012 7.93529 21.6441 7.25148 21.9145C6.47814 22.2212 5.7391 22.6764 5.23243 23.3507C5.15624 23.4364 5.11624 23.5622 5.00195 23.6079C5.00767 23.4879 5.08195 23.3888 5.141 23.2898C5.421 22.8345 5.82672 22.4764 6.24957 22.1564C6.72957 21.7945 7.26672 21.5031 7.84005 21.3145C7.93148 21.2917 7.98862 21.2155 8.04195 21.1431C8.65148 20.3431 9.51052 19.7545 10.4496 19.4022C10.5467 19.366 10.6496 19.3317 10.7296 19.2612C10.8096 19.1907 10.8667 19.0974 10.9353 19.0155C11.3429 18.5145 11.8705 18.126 12.4229 17.8002C12.7505 17.6193 13.0953 17.4707 13.4477 17.3431C13.6324 17.2841 13.8172 17.2269 14.0039 17.1736C14.6839 17.0041 15.3734 16.8783 16.0705 16.8022ZM31.9639 18.4879C32.0439 18.4402 32.122 18.3812 32.2191 18.3736C32.1981 18.4079 32.1791 18.446 32.1467 18.4726C30.88 19.4536 29.381 20.1031 27.8324 20.4917C27.84 20.3031 27.842 20.1164 27.84 19.9279C28.3143 19.8802 28.7791 19.7602 29.24 19.6402C30.1943 19.3831 31.1181 19.0002 31.9639 18.4879ZM29.1258 20.5012C29.2248 20.4441 29.3181 20.3793 29.4248 20.3374C29.4153 20.3736 29.4172 20.4193 29.3791 20.4402C29.0172 20.7183 28.6381 20.9774 28.24 21.2022C28.0686 21.2974 27.9029 21.4041 27.7201 21.4764C27.7378 21.3736 27.7543 21.2701 27.7696 21.166C28.24 20.985 28.6915 20.7545 29.1258 20.5012Z" fill="#FDB71C"/>
</g>
<circle cx="20" cy="20" r="19.5" stroke="black" stroke-opacity="0.05"/>
<defs>
<clipPath id="clip0_9_394012">
<rect width="30" height="16" fill="white" transform="translate(5 12)"/>
</clipPath>
</defs>
</svg>
