<svg width="40" height="40" viewBox="0 0 40 40" fill="none" xmlns="http://www.w3.org/2000/svg">
<circle cx="20" cy="20" r="20" fill="#F6F8FA"/>
<g clip-path="url(#clip0_9_388442)">
<path d="M22.487 30.7193C30.1422 29.3246 35.0013 18.2208 26.5553 14.3424C23.4681 12.9505 18.3823 13.9536 17.6294 17.6646C28.1732 15.0052 27.6316 27.6476 20.3122 30.3152C20.1601 30.3706 20.0071 30.4209 19.8532 30.4661C19.6983 30.5122 19.542 30.5532 19.3844 30.5892C19.2276 30.6261 19.0695 30.6579 18.9099 30.6847C18.7513 30.7114 18.5918 30.7336 18.4313 30.7511C18.2727 30.7677 18.1122 30.7802 17.9499 30.7885C18.3235 30.859 18.7014 30.9116 19.0807 30.9448C19.4599 30.978 19.8406 30.9919 20.2213 30.9863C20.6019 30.9808 20.9826 30.9545 21.3604 30.9102C21.7397 30.8659 22.1148 30.8023 22.487 30.7193Z" fill="url(#paint0_linear_9_388442)"/>
<path d="M26.0931 13.1621C26.527 13.2949 26.9482 13.4623 27.3541 13.663C27.7599 13.8622 28.149 14.096 28.517 14.3576C28.8851 14.6205 29.2308 14.9124 29.5513 15.2306C29.8703 15.5489 30.1642 15.892 30.4287 16.2573C30.4698 16.3154 30.5108 16.374 30.5519 16.433C28.489 9.31693 16.9824 5.80108 12.7462 12.8134C9.9108 17.0723 13.7356 24.7764 19.2146 23.2544C13.2248 17.522 19.0271 11.1752 26.0931 13.1621Z" fill="url(#paint1_linear_9_388442)"/>
<path d="M24.7299 21.6559C24.7019 21.4082 24.6501 21.1633 24.5731 20.9267C24.4975 20.6887 24.3982 20.459 24.2764 20.2404C24.1547 20.0218 24.0119 19.817 23.8496 19.6261C23.6872 19.4351 23.5067 19.2608 23.3094 19.1044C20.1339 30.2622 7.81281 21.541 11.4543 13.253C11.5205 13.1036 11.5919 12.9541 11.6684 12.8047C6.48329 18.1234 9.10733 29.6506 17.3279 29.8651C21.6566 29.9647 25.3092 25.8871 24.7299 21.6559Z" fill="url(#paint2_linear_9_388442)"/>
</g>
<circle cx="20" cy="20" r="19.5" stroke="black" stroke-opacity="0.05"/>
<defs>
<linearGradient id="paint0_linear_9_388442" x1="18.3767" y1="16.2602" x2="27.2792" y2="28.8242" gradientUnits="userSpaceOnUse">
<stop offset="0.1" stop-color="#0BBAB4"/>
<stop offset="0.4" stop-color="#528BA6"/>
<stop offset="0.5" stop-color="#7C719E"/>
<stop offset="0.7" stop-color="#A05998"/>
<stop offset="0.9" stop-color="#C24392"/>
<stop offset="1" stop-color="#CF3B91"/>
</linearGradient>
<linearGradient id="paint1_linear_9_388442" x1="14.2604" y1="21.8735" x2="26.2843" y2="9.52873" gradientUnits="userSpaceOnUse">
<stop offset="0.5" stop-color="#0BBAB4"/>
<stop offset="0.6" stop-color="#0FACA5"/>
<stop offset="1" stop-color="#1B8880"/>
</linearGradient>
<linearGradient id="paint2_linear_9_388442" x1="24.2848" y1="25.7349" x2="1.42322" y2="15.9286" gradientUnits="userSpaceOnUse">
<stop offset="0.4" stop-color="#CF3B91"/>
<stop offset="0.9" stop-color="#993366"/>
</linearGradient>
<clipPath id="clip0_9_388442">
<rect width="22" height="22" fill="white" transform="translate(9 9)"/>
</clipPath>
</defs>
</svg>
