<svg width="40" height="40" viewBox="0 0 40 40" fill="none" xmlns="http://www.w3.org/2000/svg">
<circle cx="20" cy="20" r="20" fill="#F6F8FA"/>
<g clip-path="url(#clip0_9_393897)">
<path d="M14.3094 16H12.498V23.3281H14.3094V16Z" fill="#CF1012"/>
<path d="M11.8099 19.0117H9.99902V23.3285H11.8099V19.0117Z" fill="#FCBC00"/>
<path d="M9.3109 17.9229H7.5V23.3283H9.3109V17.9229Z" fill="#5CB74D"/>
<path d="M6.8109 19.7725H5V23.3277H6.8109V19.7725Z" fill="#17A9DC"/>
<path d="M24.5518 23.3543V19.0479H25.0952C25.2346 19.0479 25.3562 19.0984 25.4559 19.1976C25.556 19.2972 25.6069 19.4179 25.6069 19.5564V23.3543H24.5522H24.5518Z" fill="#0D253A"/>
<path d="M25.6065 18.7996C25.5372 18.7281 25.3996 18.6356 25.1524 18.6356H24.5518V18.4573C24.5518 18.3192 24.6023 18.1981 24.7019 18.098C24.8038 17.9974 24.9223 17.9482 25.0635 17.9482H25.6069V18.7992L25.6065 18.7996Z" fill="#0D253A"/>
<path d="M34.9995 22.9545C34.9995 23.1677 34.8275 23.3371 34.608 23.3371C34.3886 23.3371 34.2139 23.1677 34.2139 22.9545C34.2139 22.7414 34.3886 22.5742 34.6103 22.5742C34.8319 22.5742 34.9991 22.7409 34.9991 22.9545H34.9995ZM34.3126 22.9545C34.3126 23.1239 34.4405 23.258 34.6107 23.258C34.7761 23.2602 34.9021 23.1235 34.9021 22.9568C34.9021 22.7901 34.7761 22.6506 34.6058 22.6506C34.4355 22.6506 34.3131 22.7874 34.3131 22.9541L34.3126 22.9545ZM34.5473 23.1516H34.4592V22.7713C34.4945 22.7664 34.5432 22.7597 34.6058 22.7597C34.6787 22.7597 34.7113 22.7713 34.7368 22.7896C34.76 22.8057 34.7761 22.8339 34.7761 22.8705C34.7761 22.917 34.7408 22.9469 34.6965 22.9608V22.9657C34.7341 22.9773 34.7533 23.0077 34.764 23.0587C34.7761 23.1163 34.7855 23.1373 34.7922 23.1512H34.6988C34.6867 23.1373 34.68 23.1047 34.6688 23.0587C34.6612 23.0193 34.638 23.0006 34.5893 23.0006H34.5473V23.1512V23.1516ZM34.5499 22.9385H34.592C34.6407 22.9385 34.6809 22.9219 34.6809 22.883C34.6809 22.8482 34.655 22.8249 34.5996 22.8249C34.5754 22.8249 34.5593 22.8272 34.5499 22.8299V22.9389V22.9385Z" fill="#0D253A"/>
<path d="M19.9873 20.9017V23.3553H18.9317V20.9442C18.9317 20.2791 18.6475 19.956 18.062 19.956C17.4766 19.956 17.1923 20.2791 17.1923 20.9442V23.3553H16.1367V20.9017C16.1367 19.7107 16.8384 19.0273 18.062 19.0273C19.2857 19.0273 19.9873 19.7107 19.9873 20.9017Z" fill="#0D253A"/>
<path d="M29.8643 20.9017V23.3553H28.8087V20.9442C28.8087 20.2791 28.5244 19.956 27.939 19.956C27.3535 19.956 27.0693 20.2791 27.0693 20.9442V23.3553H26.0137V20.9017C26.0137 19.7107 26.7153 19.0273 27.939 19.0273C29.1626 19.0273 29.8643 19.7107 29.8643 20.9017Z" fill="#0D253A"/>
<path d="M24.2924 21.8728L24.2611 22.0302C24.0824 22.9222 23.323 23.5215 22.3716 23.5215C21.1323 23.5215 20.2666 22.5973 20.2666 21.2744C20.2666 19.9516 21.1452 19.0273 22.3555 19.0273C23.3213 19.0273 24.0569 19.6097 24.2294 20.5115L24.2593 20.6675H23.2355L23.214 20.5665C23.1349 20.1902 22.806 19.956 22.3555 19.956C21.5671 19.956 21.2874 20.6662 21.2874 21.2744C21.2874 21.8827 21.5711 22.5928 22.3716 22.5928C22.8305 22.5928 23.1577 22.3609 23.2466 21.9716L23.269 21.8728H24.2924Z" fill="#0D253A"/>
<path d="M32.2815 19.0273C31.048 19.0273 30.1533 19.9685 30.1533 21.2659C30.1533 22.5633 31.0682 23.5215 32.2815 23.5215C33.4949 23.5215 34.4178 22.5517 34.4178 21.2659C34.4178 19.9802 33.5195 19.0273 32.2815 19.0273ZM32.2815 22.5928C31.7403 22.5928 31.158 22.1776 31.158 21.2659C31.158 20.6309 31.5097 19.9475 32.2815 19.9475C33.0533 19.9475 33.4051 20.6309 33.4051 21.2659C33.4051 21.901 33.0533 22.5928 32.2815 22.5928Z" fill="#0D253A"/>
</g>
<circle cx="20" cy="20" r="19.5" stroke="black" stroke-opacity="0.05"/>
<defs>
<clipPath id="clip0_9_393897">
<rect width="30" height="7.52112" fill="white" transform="translate(5 16)"/>
</clipPath>
</defs>
</svg>
