<svg width="40" height="40" viewBox="0 0 40 40" fill="none" xmlns="http://www.w3.org/2000/svg">
<circle cx="20" cy="20" r="20" fill="#0090BA"/>
<path d="M25.3549 11.3574L20.7419 24.7085C20.6848 24.8724 20.5846 25.0163 20.4535 25.1238C20.3242 25.2306 20.1666 25.2972 19.9999 25.3156V25.3217H24.8765C25.2584 25.3217 25.585 25.0661 25.7065 24.7085L30.3214 11.3574H25.3549ZM19.6897 24.7146C19.9325 24.7146 20.145 24.5731 20.275 24.3582C20.2883 24.3363 20.3357 24.258 20.3697 24.1517L21.8214 19.467L20.972 16.7312C20.9255 16.5971 20.8457 16.477 20.74 16.3821C20.6419 16.2941 20.5197 16.2375 20.3891 16.2194C20.2607 16.2032 20.1304 16.2274 20.0163 16.2886C19.8955 16.354 19.7948 16.4509 19.7249 16.5691C19.6857 16.6342 19.6539 16.7034 19.6302 16.7756L18.1785 21.4597L19.0315 24.2064C19.0868 24.3576 19.1791 24.4857 19.2956 24.5767C19.4128 24.6666 19.5494 24.7146 19.6897 24.7146ZM19.9999 15.6074H15.3838C15.0262 15.6074 14.7202 15.8624 14.6049 16.2206L10.2856 29.5717H14.9364L19.2556 16.2218C19.3085 16.0525 19.4088 15.9019 19.5446 15.7877C19.6775 15.6785 19.836 15.6165 19.9999 15.6092V15.6074Z" fill="white"/>
<circle cx="20" cy="20" r="19.5" stroke="black" stroke-opacity="0.05"/>
</svg>
