<svg width="40" height="40" viewBox="0 0 40 40" fill="none" xmlns="http://www.w3.org/2000/svg">
<circle cx="20" cy="20" r="20" fill="#F6F8FA"/>
<g clip-path="url(#clip0_9_397870)">
<path fill-rule="evenodd" clip-rule="evenodd" d="M17.3356 10.1784L15.7142 8.57129L14.0927 10.1784C12.7948 11.4636 11.7645 12.9933 11.0613 14.6791C10.3581 16.3649 9.99609 18.1733 9.99609 19.9999C9.99609 21.8264 10.3581 23.6349 11.0613 25.3206C11.7645 27.0064 12.7948 28.5361 14.0927 29.8213L15.7142 31.4284L17.3356 29.8213C18.6335 28.5361 19.6639 27.0064 20.367 25.3206C21.0702 23.6349 21.4322 21.8264 21.4322 19.9999C21.4322 18.1733 21.0702 16.3649 20.367 14.6791C19.6639 12.9933 18.6335 11.4636 17.3356 10.1784ZM16.5856 10.8499L15.7285 9.99986L14.8427 10.8784C13.6407 12.0728 12.6883 13.4944 12.0408 15.0603C11.3933 16.6263 11.0638 18.3054 11.0713 19.9999C11.0713 23.307 12.2856 26.607 14.8427 29.1427L15.6999 29.9999L16.5856 29.1213C17.7876 27.9269 18.7401 26.5054 19.3875 24.9394C20.035 23.3735 20.3646 21.6944 20.357 19.9999C20.357 16.6927 19.1427 13.3927 16.5856 10.857V10.8499Z" fill="#D1CF26"/>
<path fill-rule="evenodd" clip-rule="evenodd" d="M20.193 10.1784L18.5716 8.57129L16.9502 10.1784C15.6522 11.4636 14.6219 12.9933 13.9187 14.6791C13.2156 16.3649 12.8535 18.1733 12.8535 19.9999C12.8535 21.8264 13.2156 23.6349 13.9187 25.3206C14.6219 27.0064 15.6522 28.5361 16.9502 29.8213L18.5716 31.4284L20.193 29.8213C21.491 28.5361 22.5213 27.0064 23.2245 25.3206C23.9276 23.6349 24.2897 21.8264 24.2897 19.9999C24.2897 18.1733 23.9276 16.3649 23.2245 14.6791C22.5213 12.9933 21.491 11.4636 20.193 10.1784ZM19.4287 10.8499L18.5716 9.99986L17.693 10.8784C16.4907 12.0722 15.5385 13.4938 14.8921 15.06C14.2458 16.6262 13.9183 18.3056 13.9287 19.9999C13.9287 23.307 15.1573 26.607 17.7144 29.1427L18.5716 29.9999L19.4502 29.1213C20.6525 27.9275 21.6047 26.5059 22.251 24.9397C22.8974 23.3735 23.2249 21.6942 23.2144 19.9999C23.2144 16.6927 21.9859 13.3927 19.4287 10.857V10.8499Z" fill="url(#paint0_linear_9_397870)"/>
<path fill-rule="evenodd" clip-rule="evenodd" d="M23.0504 10.1784L21.429 8.57129L19.8076 10.1784C18.5096 11.4636 17.4793 12.9933 16.7761 14.6791C16.073 16.3649 15.7109 18.1733 15.7109 19.9999C15.7109 21.8264 16.073 23.6349 16.7761 25.3206C17.4793 27.0064 18.5096 28.5361 19.8076 29.8213L21.429 31.4284L23.0504 29.8213C24.3484 28.5361 25.3787 27.0064 26.0819 25.3206C26.785 23.6349 27.1471 21.8264 27.1471 19.9999C27.1471 18.1733 26.785 16.3649 26.0819 14.6791C25.3787 12.9933 24.3484 11.4636 23.0504 10.1784ZM22.2862 10.8499L21.429 9.99986L20.5504 10.8784C19.3475 12.0717 18.3948 13.4932 17.7484 15.0595C17.102 16.6258 16.7749 18.3054 16.7862 19.9999C16.7862 23.3284 18.0147 26.607 20.5719 29.1427L21.429 29.9999L22.3076 29.1213C23.5106 27.928 24.4632 26.5065 25.1096 24.9402C25.756 23.3739 26.0831 21.6943 26.0719 19.9999C26.0719 16.6713 24.8433 13.3927 22.2862 10.857V10.8499Z" fill="url(#paint1_linear_9_397870)"/>
<path fill-rule="evenodd" clip-rule="evenodd" d="M25.9069 10.1784L24.2855 8.57129L22.664 10.1784C21.3661 11.4636 20.3358 12.9933 19.6326 14.6791C18.9294 16.3649 18.5674 18.1733 18.5674 19.9999C18.5674 21.8264 18.9294 23.6349 19.6326 25.3206C20.3358 27.0064 21.3661 28.5361 22.664 29.8213L24.2855 31.4284L25.9069 29.8213C27.2048 28.5361 28.2352 27.0064 28.9383 25.3206C29.6415 23.6349 30.0035 21.8264 30.0035 19.9999C30.0035 18.1733 29.6415 16.3649 28.9383 14.6791C28.2352 12.9933 27.2048 11.4636 25.9069 10.1784ZM25.1426 10.8499L24.2855 9.99986L23.4069 10.8784C22.2039 12.0717 21.2513 13.4932 20.6049 15.0595C19.9585 16.6258 19.6313 18.3054 19.6426 19.9999C19.6426 23.3284 20.8712 26.607 23.4283 29.1427L24.2855 29.9999L25.164 29.1213C26.367 27.928 27.3196 26.5065 27.966 24.9402C28.6124 23.3739 28.9396 21.6943 28.9283 19.9999C28.9283 16.6713 27.6997 13.3927 25.1426 10.857V10.8499Z" fill="url(#paint2_linear_9_397870)"/>
</g>
<circle cx="20" cy="20" r="19.5" stroke="black" stroke-opacity="0.05"/>
<defs>
<linearGradient id="paint0_linear_9_397870" x1="12.8573" y1="19.9927" x2="24.293" y2="19.9927" gradientUnits="userSpaceOnUse">
<stop stop-color="#10B3AA"/>
<stop offset="1" stop-color="#86C449"/>
</linearGradient>
<linearGradient id="paint1_linear_9_397870" x1="15.7147" y1="19.9927" x2="27.1504" y2="19.9927" gradientUnits="userSpaceOnUse">
<stop stop-color="#1AA3DA"/>
<stop offset="1" stop-color="#21B064"/>
</linearGradient>
<linearGradient id="paint2_linear_9_397870" x1="18.5712" y1="19.9927" x2="30.0069" y2="19.9927" gradientUnits="userSpaceOnUse">
<stop stop-color="#046AAE"/>
<stop offset="1" stop-color="#008A62"/>
</linearGradient>
<clipPath id="clip0_9_397870">
<rect width="22" height="24" fill="white" transform="translate(9 8)"/>
</clipPath>
</defs>
</svg>
