<svg width="40" height="40" viewBox="0 0 40 40" fill="none" xmlns="http://www.w3.org/2000/svg">
<circle cx="20" cy="20" r="20" fill="#F6F8FA"/>
<g clip-path="url(#clip0_9_397160)">
<path d="M18.4471 8.57129H14.8574C14.8574 8.57129 20.718 10.0364 22.55 17.1427C24.6917 25.4536 18.0323 30.3781 14.8574 31.4284H18.4471C24.5277 26.7399 24.7837 19.5164 22.9894 14.7256C21.9048 11.8296 20.1306 9.78557 18.4471 8.57129Z" fill="#B4D500"/>
<path d="M22.0552 31.4284H25.6449C25.6449 31.4284 19.7844 29.9633 17.9529 22.857C15.8107 14.5461 22.4707 9.62157 25.6449 8.57129H22.0552C15.9752 13.2599 15.7187 20.4833 17.5129 25.2741C18.5975 28.1701 20.3712 30.2141 22.0552 31.4284Z" fill="#014A97"/>
</g>
<circle cx="20" cy="20" r="19.5" stroke="black" stroke-opacity="0.05"/>
<defs>
<clipPath id="clip0_9_397160">
<rect width="12" height="24" fill="white" transform="translate(14 8)"/>
</clipPath>
</defs>
</svg>
