<svg width="40" height="40" viewBox="0 0 40 40" fill="none" xmlns="http://www.w3.org/2000/svg">
<circle cx="20" cy="20" r="20" fill="#F6F8FA"/>
<g clip-path="url(#clip0_9_411744)">
<path d="M24.695 21.7342C24.4282 21.416 24.0547 21.3395 23.5745 21.2861H14.2916C13.6597 21.2861 13.9046 20.6433 14.345 20.6433H23.6812C24.8017 20.5899 25.9756 19.6115 26.4024 18.5495L26.936 17.1693C26.936 14.36 23.5031 12.2861 21.014 12.2861C18.3461 12.2861 16.0524 13.9846 15.2521 16.3734C14.6939 15.977 14.0144 15.7891 13.3319 15.8424C12.0513 15.9485 11.0375 17.0105 10.8774 18.284C10.8241 18.6028 10.8774 18.9211 10.9308 19.2399C8.8505 19.2926 7.14307 20.9904 7.14307 23.1138C7.14307 23.3259 7.14307 23.4853 7.19642 23.6975C7.19642 23.8036 7.30314 23.8569 7.35649 23.8569H24.4816C24.8435 23.2494 25.2273 22.3693 24.695 21.7336V21.7342Z" fill="#F48120"/>
<path d="M27.7893 17.2754H27.5225C27.4692 17.2754 27.4158 17.3281 27.3618 17.3815L26.989 18.655C26.8283 19.186 26.8823 19.717 27.149 20.0352C27.4158 20.3534 27.7893 20.5893 28.2689 20.6427H30.2431C30.8558 20.6427 30.706 21.2855 30.1898 21.2855H28.1622C26.78 21.3511 25.6255 22.3977 25.3349 23.6975C25.2815 23.7509 25.3349 23.857 25.4416 23.857H32.4841C32.5915 23.857 32.6448 23.8036 32.6448 23.6975C32.7515 23.2732 32.8576 22.7956 32.8576 22.3173C32.8576 19.5575 30.5633 17.2754 27.7893 17.2754Z" fill="#F8AD3F"/>
</g>
<circle cx="20" cy="20" r="19.5" stroke="black" stroke-opacity="0.05"/>
<defs>
<clipPath id="clip0_9_411744">
<rect width="26" height="12" fill="white" transform="translate(7 12)"/>
</clipPath>
</defs>
</svg>
