<svg width="40" height="40" viewBox="0 0 40 40" fill="none" xmlns="http://www.w3.org/2000/svg">
<circle cx="20" cy="20" r="20" fill="#020202"/>
<g clip-path="url(#clip0_9_388132)">
<mask id="mask0_9_388132" style="mask-type:luminance" maskUnits="userSpaceOnUse" x="-7" y="3" width="253" height="142">
<path d="M-6.3894 3.15332H245.151V144.604H-6.3894V3.15332Z" fill="white"/>
</mask>
<g mask="url(#mask0_9_388132)">
<path d="M27.5431 14.6001H33.989V17.2458H30.0977V18.8968H33.2807V21.5015H30.0977V23.2046H33.989V25.8112H27.5431V14.6001ZM23.9659 18.9358C23.8618 18.2814 23.6517 17.7701 23.4416 17.547C23.1404 17.2848 22.8262 17.1416 22.5511 17.1416C22.0528 17.1416 21.6735 17.4689 21.4634 18.0192C21.2273 18.6867 21.1232 19.4601 21.1232 20.3767C21.1232 22.3661 21.6084 23.3887 22.5771 23.3887C23.3505 23.3887 23.8358 22.6952 23.9659 21.4365C26.4424 21.4365 26.4424 21.4365 26.4424 21.4365C26.3364 22.8383 25.9832 23.978 25.3548 24.8296C24.7003 25.6811 23.7558 26.0734 22.7221 26.0734C21.8836 26.0734 21.1232 25.8633 20.4947 25.4189C19.8384 24.9727 19.3811 24.3183 19.0669 23.4277C18.7248 22.6152 18.5165 21.5164 18.5165 20.3767C18.5165 19.092 18.7248 17.9523 19.0669 17.0227C19.4852 16.1451 20.0095 15.4516 20.5989 15.0463C21.1882 14.6782 21.8445 14.416 22.4469 14.416C23.7949 14.4569 24.8435 14.9663 25.3938 15.7788C25.9441 16.6564 26.2974 17.731 26.3643 18.9358H23.9659ZM14.9654 14.6001H17.572V25.8242H14.9654V14.6001ZM6.00391 14.6001H8.30935L11.035 20.808V18.3464V14.6001H13.5096V25.8242H11.074L8.41347 19.7743V22.381V25.8242H6.00391V14.6001Z" fill="white"/>
<path d="M26.4426 18.9619H28.8262V21.4496H26.4426V18.9619ZM17.5722 18.9619H19.8647V21.4384H17.5722V18.9619ZM12.6602 18.9619H14.9656V21.4496H12.6602V18.9619Z" fill="#23C9FF"/>
</g>
</g>
<circle cx="20" cy="20" r="19.5" stroke="black" stroke-opacity="0.05"/>
<defs>
<clipPath id="clip0_9_388132">
<rect width="28" height="11.6574" fill="white" transform="translate(6 14.416)"/>
</clipPath>
</defs>
</svg>
