<svg width="40" height="40" viewBox="0 0 40 40" fill="none" xmlns="http://www.w3.org/2000/svg">
<circle cx="20" cy="20" r="20" fill="#EE3229"/>
<g clip-path="url(#clip0_9_405456)">
<path d="M25.4643 20.607C25.4642 21.6056 25.1565 22.5798 24.5828 23.3971C24.0092 24.2144 23.1977 24.8351 22.2586 25.1746C21.3196 25.5141 20.2988 25.5559 19.3351 25.2944C18.3715 25.0329 17.5118 24.4808 16.8732 23.7132C17.535 23.7951 18.4785 23.7174 19.8209 23.31C21.7984 22.709 23.4741 21.2603 24.4467 19.9714C24.4326 19.8738 24.4149 19.7768 24.3939 19.6805C23.2774 20.8123 21.5476 22.001 19.8142 22.4315C17.0001 23.1315 16.1677 22.3004 15.9443 21.9245L15.9176 21.8729C15.7375 21.2051 15.7021 20.5065 15.8137 19.8239C15.9254 19.1413 16.1816 18.4904 16.5651 17.9148C16.9486 17.3392 17.4507 16.8522 18.0377 16.4863C18.6246 16.1204 19.283 15.884 19.9687 15.7931C20.6544 15.7022 21.3515 15.7588 22.0136 15.9591C22.6756 16.1593 23.2873 16.4987 23.8076 16.9545C24.3279 17.4102 24.7448 17.9719 25.0305 18.6018C25.3163 19.2317 25.4641 19.9154 25.4643 20.607Z" fill="white"/>
<path d="M24.2506 25.4643C25.0051 24.8992 25.6174 24.1659 26.0388 23.3228C26.4603 22.4796 26.6793 21.5498 26.6786 20.6071C26.6793 19.6645 26.4603 18.7347 26.0388 17.8915C25.6174 17.0484 25.0051 16.3151 24.2506 15.75H28.5V19.3698L30.3615 15.75H33.9643L28.5 25.4643H24.2506ZM16.9637 15.75C16.2092 16.3151 15.5969 17.0484 15.1755 17.8915C14.754 18.7347 14.5349 19.6645 14.5357 20.6071C14.5349 21.5498 14.754 22.4796 15.1755 23.3228C15.5969 24.1659 16.2092 24.8992 16.9637 25.4643H12.7143L10.817 21.8445V25.4643H7.25V15.75H10.8473L12.7143 19.3698V15.75H16.9637Z" fill="white"/>
</g>
<circle cx="20" cy="20" r="19.5" stroke="black" stroke-opacity="0.05"/>
<defs>
<clipPath id="clip0_9_405456">
<rect width="27" height="11" fill="white" transform="translate(7 15)"/>
</clipPath>
</defs>
</svg>
