<svg width="40" height="40" viewBox="0 0 40 40" fill="none" xmlns="http://www.w3.org/2000/svg">
<circle cx="20" cy="20" r="20" fill="#F6F8FA"/>
<g clip-path="url(#clip0_9_409753)">
<path d="M28.6115 9.01758H27.4569C27.4532 9.01758 27.4502 9.02059 27.4502 9.0243V10.858C27.4502 10.8618 27.4532 10.8648 27.4569 10.8648H28.6115C28.6152 10.8648 28.6182 10.8618 28.6182 10.858V9.0243C28.6182 9.02059 28.6152 9.01758 28.6115 9.01758Z" fill="#EC008B"/>
<path d="M27.2805 11.0342H25.4313C25.4277 11.0342 25.4248 11.0371 25.4248 11.0407V12.1942C25.4248 12.1978 25.4277 12.2007 25.4313 12.2007H27.2805C27.2841 12.2007 27.287 12.1978 27.287 12.1942V11.0407C27.287 11.0371 27.2841 11.0342 27.2805 11.0342Z" fill="#EC008B"/>
<path d="M30.6424 12.1842L30.6562 12.1993C30.657 12.2002 30.6575 12.2012 30.6576 12.2023C30.6578 12.2034 30.6577 12.2045 30.6572 12.2055C30.6568 12.2065 30.656 12.2074 30.6551 12.208C30.6542 12.2086 30.6531 12.2089 30.652 12.2089L28.7821 12.2091C28.7814 12.2091 28.7806 12.209 28.7799 12.2087C28.7792 12.2084 28.7786 12.208 28.7781 12.2075C28.7775 12.2069 28.7771 12.2063 28.7768 12.2056C28.7765 12.2049 28.7764 12.2041 28.7764 12.2034L28.7769 11.0399C28.7769 11.0384 28.7775 11.0369 28.7786 11.0359C28.7797 11.0348 28.7812 11.0342 28.7827 11.0342H30.6351C30.6366 11.0342 30.6381 11.0348 30.6392 11.0359C30.6402 11.0369 30.6409 11.0384 30.6409 11.0399V12.1801C30.6408 12.1816 30.6414 12.1831 30.6424 12.1842Z" fill="#EC008B"/>
<path d="M28.6127 12.3643H27.4558C27.4527 12.3643 27.4502 12.3668 27.4502 12.3698V14.2213C27.4502 14.2243 27.4527 14.2268 27.4558 14.2268H28.6127C28.6157 14.2268 28.6182 14.2243 28.6182 14.2213V12.3698C28.6182 12.3668 28.6157 12.3643 28.6127 12.3643Z" fill="#333091"/>
<path d="M30.8001 14.2222C30.7995 14.2226 30.7988 14.2227 30.7981 14.2226C30.7974 14.2226 30.7967 14.2223 30.7962 14.2219C30.7957 14.2215 30.7953 14.2209 30.7951 14.2202C30.7949 14.2195 30.7949 14.2188 30.7951 14.2182C30.7985 14.2079 30.8003 14.1964 30.8003 14.1836C30.8009 13.586 30.801 12.983 30.8005 12.3744C30.8005 12.3677 30.8039 12.3643 30.8106 12.3643H31.9629C31.9644 12.3643 31.9657 12.3648 31.9667 12.3658C31.9677 12.3668 31.9683 12.3682 31.9683 12.3696C31.9681 12.9797 31.9681 13.5881 31.9685 14.1947C31.9685 14.2014 31.9703 14.2077 31.9739 14.2136C31.9772 14.2191 31.9758 14.2209 31.9697 14.2189C31.9611 14.2161 31.9524 14.2147 31.9437 14.2147C31.5811 14.2138 31.2099 14.2137 30.8301 14.2143C30.8192 14.2143 30.8092 14.217 30.8001 14.2222Z" fill="#FFD200"/>
<path d="M27.2805 14.3848H25.4313C25.4277 14.3848 25.4248 14.3877 25.4248 14.3913V15.5578C25.4248 15.5614 25.4277 15.5643 25.4313 15.5643H27.2805C27.2841 15.5643 27.287 15.5614 27.287 15.5578V14.3913C27.287 14.3877 27.2841 14.3848 27.2805 14.3848Z" fill="#00ADEF"/>
<path d="M30.6314 14.3848H28.7808C28.7778 14.3848 28.7754 14.3872 28.7754 14.3901V15.5666C28.7754 15.5696 28.7778 15.572 28.7808 15.572H30.6314C30.6344 15.572 30.6368 15.5696 30.6368 15.5666V14.3901C30.6368 14.3872 30.6344 14.3848 30.6314 14.3848Z" fill="#429538"/>
<path d="M33.9805 14.3848H32.1325C32.1294 14.3848 32.127 14.3873 32.127 14.3903V15.5549C32.127 15.558 32.1294 15.5605 32.1325 15.5605H33.9805C33.9836 15.5605 33.9861 15.558 33.9861 15.5549V14.3903C33.9861 14.3873 33.9836 14.3848 33.9805 14.3848Z" fill="#FFD200"/>
<path d="M28.613 15.7129H27.4554C27.4525 15.7129 27.4502 15.7152 27.4502 15.7181V17.566C27.4502 17.5689 27.4525 17.5712 27.4554 17.5712H28.613C28.6159 17.5712 28.6182 17.5689 28.6182 17.566V15.7181C28.6182 15.7152 28.6159 15.7129 28.613 15.7129Z" fill="#00ADEF"/>
<path d="M30.8012 17.5708L30.8008 15.7208C30.8008 15.7187 30.8016 15.7167 30.8031 15.7152C30.8046 15.7137 30.8066 15.7129 30.8087 15.7129H31.9604C31.9625 15.7129 31.9645 15.7137 31.9659 15.7152C31.9674 15.7167 31.9682 15.7187 31.9682 15.7208V17.5712C31.9682 17.5733 31.9674 17.5753 31.9659 17.5768C31.9645 17.5783 31.9625 17.5791 31.9604 17.5791L30.809 17.5787C30.807 17.5787 30.8049 17.5779 30.8035 17.5764C30.802 17.5749 30.8012 17.5729 30.8012 17.5708Z" fill="#FFD200"/>
<path d="M23.6817 24.2005C23.2898 24.4113 22.865 24.5433 22.4074 24.5966C21.6533 24.6844 20.845 24.6214 20.1508 24.302C19.8103 24.1453 19.5067 23.9309 19.2399 23.6586C19.1408 23.5573 19.0677 23.4727 19.0208 23.4047C18.9797 23.345 18.9392 23.2859 18.8994 23.2272C18.8175 23.1067 18.7468 22.9741 18.6865 22.8469C18.569 22.5982 18.4803 22.3265 18.4205 22.0318C18.3364 21.6183 18.3123 21.1942 18.348 20.7595C18.397 20.1624 18.594 19.566 18.9171 19.0745C19.0285 18.905 19.1399 18.7579 19.2511 18.6332C19.5628 18.284 19.9521 18.0019 20.3674 17.8071C20.5518 17.7206 20.7401 17.6493 20.9324 17.5932C21.2554 17.4987 21.5903 17.4439 21.9371 17.4287C22.7585 17.3923 23.6054 17.5261 24.3727 17.8355C24.7338 17.981 25.0814 18.1607 25.4157 18.3746C25.4208 18.3778 25.4234 18.3824 25.4234 18.3884C25.424 20.2251 25.424 22.0618 25.4234 23.8984C25.4231 24.2234 25.4075 24.5214 25.3765 24.7925C25.3157 25.3205 25.1524 25.8248 24.881 26.2668C24.8302 26.3497 24.7671 26.4393 24.6919 26.5357C24.6213 26.626 24.5491 26.708 24.4752 26.7817C24.3148 26.9414 24.1616 27.0707 24.0157 27.1695C23.8923 27.2529 23.7294 27.343 23.527 27.4399C23.282 27.557 23.0062 27.6489 22.6995 27.7156C21.9604 27.8762 21.2143 27.8917 20.4614 27.7621C20.3397 27.7411 20.2157 27.7168 20.0895 27.6891C19.746 27.6139 19.4133 27.5052 19.0912 27.363C19.09 27.3624 19.0891 27.3615 19.0887 27.3604C19.0882 27.3592 19.0881 27.358 19.0885 27.3568L19.5733 25.8494C19.5758 25.8419 19.5806 25.8396 19.5879 25.8425C19.856 25.9482 20.1061 26.0427 20.3972 26.119C20.9127 26.2545 21.4302 26.2965 21.9496 26.2451C22.3443 26.2061 22.7565 26.0631 23.0569 25.8335C23.254 25.6827 23.4029 25.5037 23.5037 25.2965C23.5974 25.1041 23.6553 24.8928 23.6774 24.6627C23.6921 24.51 23.6976 24.3584 23.694 24.2079C23.6938 24.1986 23.6897 24.1962 23.6817 24.2005ZM22.877 18.9407C22.5519 18.8672 22.2239 18.8514 21.8931 18.8934C21.7964 18.9057 21.7005 18.9253 21.6054 18.9522C21.4777 18.9885 21.3816 19.0219 21.3171 19.0524C21.1629 19.1256 21.0478 19.1903 20.972 19.2463C20.5573 19.5526 20.2891 19.9599 20.1674 20.4683C19.9323 21.4509 20.2062 22.6983 21.2889 23.0613C21.4147 23.1035 21.5216 23.1319 21.6096 23.1465C22.057 23.22 22.525 23.1919 23.0137 23.0621C23.2581 22.9973 23.481 22.8882 23.6824 22.735C23.686 22.7323 23.6889 22.7287 23.6909 22.7247C23.6929 22.7206 23.694 22.7161 23.694 22.7116V19.3005C23.694 19.2953 23.6919 19.2912 23.6878 19.2882C23.4451 19.1106 23.1734 19.008 22.877 18.9407Z" fill="black"/>
<path d="M7.71912 18.2997C7.77984 18.2364 7.84666 18.175 7.91956 18.1154C8.2501 17.8454 8.60972 17.6601 8.99843 17.5594C9.1195 17.5279 9.24019 17.4941 9.36087 17.4778C9.55612 17.4512 9.72421 17.4385 9.86514 17.4395C10.0596 17.441 10.2411 17.4543 10.4096 17.4793C10.5777 17.5041 10.7549 17.5483 10.9411 17.6117C11.2239 17.7079 11.4795 17.8581 11.7079 18.0624C11.7767 18.1238 11.8305 18.1905 11.8924 18.2561C11.9169 18.2819 11.9411 18.311 11.965 18.3431C12.1098 18.5384 12.2217 18.7411 12.3008 18.9512C12.3637 19.1185 12.4135 19.3129 12.4501 19.5344C12.4828 19.7309 12.4992 19.9502 12.4993 20.192C12.5006 21.5796 12.5008 22.9976 12.4999 24.4462C12.4999 24.4476 12.4993 24.4488 12.4984 24.4498C12.4975 24.4507 12.4962 24.4512 12.4949 24.4512H10.7761C10.7746 24.4512 10.7732 24.4506 10.7721 24.4496C10.7711 24.4486 10.7705 24.4471 10.7705 24.4457C10.7707 23.0821 10.7707 21.7163 10.7705 20.3483C10.7705 20.142 10.7473 19.9578 10.7009 19.7956C10.6598 19.6521 10.6092 19.5357 10.5491 19.4464C10.4342 19.276 10.2941 19.1505 10.129 19.0699C9.98333 18.9988 9.79865 18.9558 9.62915 18.9425C9.24083 18.9122 8.8716 18.9959 8.52145 19.1937C8.36835 19.2802 8.22665 19.3886 8.09636 19.519C7.97862 19.6368 7.87914 19.776 7.79791 19.9368C7.78382 19.9645 7.77133 19.9933 7.76044 20.0233C7.74942 20.0534 7.74391 20.0839 7.74391 20.1148C7.74391 21.5419 7.74391 22.9845 7.74391 24.4426C7.74391 24.4437 7.74368 24.4448 7.74325 24.4459C7.74282 24.4469 7.74218 24.4479 7.74138 24.4487C7.74057 24.4495 7.73962 24.4501 7.73857 24.4506C7.73752 24.451 7.7364 24.4512 7.73526 24.4512H6.02836C6.02576 24.4512 6.02326 24.4502 6.02143 24.4483C6.01959 24.4464 6.01855 24.4439 6.01855 24.4412V17.5957C6.01855 17.5891 6.02182 17.5858 6.02836 17.5858H7.65743C7.66383 17.5858 7.66723 17.589 7.66761 17.5954L7.70912 18.2958C7.70964 18.3048 7.71297 18.3061 7.71912 18.2997Z" fill="black"/>
<path d="M15.6032 18.4615C15.7661 18.257 15.9452 18.085 16.1405 17.9455C16.4177 17.7472 16.7198 17.6121 17.0466 17.5402C17.4425 17.4532 17.8355 17.449 18.2258 17.5277C18.3782 17.5585 18.53 17.6044 18.681 17.6655C18.6866 17.6677 18.6883 17.6715 18.6864 17.677L18.1451 19.2144C18.1425 19.2216 18.1376 19.224 18.1305 19.2215C17.9096 19.1466 17.6708 19.1016 17.414 19.0866C17.1363 19.0705 16.8986 19.0882 16.6436 19.1845C16.3729 19.2867 16.1436 19.4408 15.9556 19.6466C15.837 19.7766 15.7411 19.9273 15.6681 20.0988C15.6544 20.131 15.6476 20.1639 15.6476 20.1974C15.6476 21.6143 15.6476 23.0293 15.6476 24.4424C15.6476 24.4447 15.6466 24.447 15.645 24.4486C15.6433 24.4503 15.6411 24.4512 15.6387 24.4512H13.9228C13.9215 24.4512 13.9203 24.4507 13.9194 24.4498C13.9185 24.4489 13.918 24.4477 13.918 24.4464V17.5954C13.918 17.589 13.9212 17.5857 13.9276 17.5857H15.5474C15.5537 17.5857 15.557 17.5889 15.5574 17.5952C15.5716 17.8883 15.5841 18.1705 15.5949 18.4417C15.5952 18.4482 15.5953 18.454 15.5955 18.459C15.5957 18.4668 15.5983 18.4676 15.6032 18.4615Z" fill="black"/>
</g>
<circle cx="20" cy="20" r="19.5" stroke="black" stroke-opacity="0.05"/>
<defs>
<clipPath id="clip0_9_409753">
<rect width="28" height="18.8524" fill="white" transform="translate(6 9)"/>
</clipPath>
</defs>
</svg>
