<svg width="40" height="40" viewBox="0 0 40 40" fill="none" xmlns="http://www.w3.org/2000/svg">
<circle cx="20" cy="20" r="20" fill="#D30C55"/>
<path d="M24.7281 13.2413C25.6232 13.2413 26.3488 12.5157 26.3488 11.6207C26.3488 10.7256 25.6232 10 24.7281 10C23.833 10 23.1074 10.7256 23.1074 11.6207C23.1074 12.5157 23.833 13.2413 24.7281 13.2413Z" fill="white"/>
<path d="M17.1239 10.7148H15.0159C15.0063 10.7148 14.9985 10.7226 14.9985 10.7322V21.4095C14.9985 21.4191 15.0063 21.4268 15.0159 21.4268H17.1239C17.1334 21.4268 17.1412 21.4191 17.1412 21.4095V10.7322C17.1412 10.7226 17.1334 10.7148 17.1239 10.7148Z" fill="white"/>
<path d="M11.6207 17.6027C12.5157 17.6027 13.2413 16.8771 13.2413 15.982C13.2413 15.0869 12.5157 14.3613 11.6207 14.3613C10.7256 14.3613 10 15.0869 10 15.982C10 16.8771 10.7256 17.6027 11.6207 17.6027Z" fill="white"/>
<path d="M29.9734 17.1408L19.2987 17.1401C19.2925 17.1401 19.2866 17.1376 19.2822 17.1333C19.2778 17.1289 19.2754 17.1229 19.2754 17.1168L19.2761 15.0194C19.2761 15.0132 19.2785 15.0073 19.2829 15.0029C19.2873 14.9986 19.2932 14.9961 19.2994 14.9961H29.9734C29.9796 14.9961 29.9855 14.9986 29.9899 15.0029C29.9943 15.0073 29.9967 15.0132 29.9967 15.0194V17.1174C29.9967 17.1236 29.9943 17.1295 29.9899 17.1339C29.9855 17.1383 29.9796 17.1408 29.9734 17.1408Z" fill="white"/>
<path d="M25.6787 19.2832H23.604C23.5849 19.2832 23.5693 19.2987 23.5693 19.3179V29.9632C23.5693 29.9823 23.5849 29.9979 23.604 29.9979H25.6787C25.6978 29.9979 25.7133 29.9823 25.7133 29.9632V19.3179C25.7133 19.2987 25.6978 19.2832 25.6787 19.2832Z" fill="white"/>
<path d="M29.0899 26.337C29.985 26.337 30.7106 25.6114 30.7106 24.7164C30.7106 23.8213 29.985 23.0957 29.0899 23.0957C28.1948 23.0957 27.4692 23.8213 27.4692 24.7164C27.4692 25.6114 28.1948 26.337 29.0899 26.337Z" fill="white"/>
<path d="M21.4032 23.5723H10.7379C10.7246 23.5723 10.7139 23.583 10.7139 23.5963V25.6883C10.7139 25.7015 10.7246 25.7123 10.7379 25.7123H21.4032C21.4165 25.7123 21.4272 25.7015 21.4272 25.6883V23.5963C21.4272 23.583 21.4165 23.5723 21.4032 23.5723Z" fill="white"/>
<path d="M15.9918 30.712C16.8868 30.712 17.6124 29.9864 17.6124 29.0914C17.6124 28.1963 16.8868 27.4707 15.9918 27.4707C15.0967 27.4707 14.3711 28.1963 14.3711 29.0914C14.3711 29.9864 15.0967 30.712 15.9918 30.712Z" fill="white"/>
<circle cx="20" cy="20" r="19.5" stroke="black" stroke-opacity="0.05"/>
</svg>
