<svg width="40" height="40" viewBox="0 0 40 40" fill="none" xmlns="http://www.w3.org/2000/svg">
<circle cx="20" cy="20" r="20" fill="#F6F8FA"/>
<path d="M20.0104 9.80557C20.0054 9.81462 20.0082 9.82173 20.0187 9.8269C20.0109 9.82991 20.0033 9.83207 19.996 9.83336C19.9802 9.8363 19.9658 9.8435 19.9546 9.85404C17.797 11.8418 17.0711 14.7343 17.981 17.4168C18.1037 17.7774 18.2657 18.1257 18.4257 18.4753C18.416 18.4745 18.4064 18.4813 18.3967 18.496C18.3724 18.4757 18.3446 18.4587 18.3133 18.4449C18.1152 18.3601 17.9238 18.2827 17.7391 18.213C16.8078 17.8608 15.7662 17.7037 14.7736 17.7709C12.8917 17.8993 11.3009 18.6209 10.0013 19.9358C9.99072 19.9461 9.97877 19.9545 9.96545 19.961C9.94982 19.9683 9.93879 19.9756 9.93236 19.983C8.65571 18.5927 8.01164 16.9918 8.00015 15.1802C7.97464 11.2286 11.2428 7.79064 15.6208 8.01424C17.2359 8.09695 18.7786 8.7561 19.9581 9.77908C19.9677 9.78726 19.9852 9.79609 20.0104 9.80557Z" fill="#109ADD"/>
<path d="M30.0537 19.9915C29.9259 19.8761 29.7954 19.757 29.6621 19.6342C28.8124 18.8527 27.8435 18.3148 26.7552 18.0206C25.0277 17.5533 23.2479 17.7123 21.6383 18.4697C21.6286 18.474 21.6142 18.4861 21.5948 18.5059C21.5953 18.4805 21.5836 18.4725 21.5597 18.482C22.0533 17.5023 22.3517 16.4929 22.3834 15.4066C22.4478 13.2137 21.6596 11.3537 20.019 9.82643C20.0085 9.82126 20.0057 9.81415 20.0108 9.80511C22.409 7.70811 25.9501 7.38564 28.6661 9.11429C31.016 10.609 32.2127 13.1765 31.9632 15.8266C31.8161 17.3866 31.1796 18.7749 30.0537 19.9915Z" fill="#98C83B"/>
<path d="M20.019 9.82715C21.6596 11.3544 22.4477 13.2144 22.3834 15.4073C22.3517 16.4936 22.0532 17.503 21.5596 18.4827C21.527 18.5223 21.4985 18.5482 21.4742 18.5602C20.964 18.814 20.4944 19.1143 20.0652 19.4611C20.0462 19.4765 20.022 19.485 19.9969 19.485C19.9718 19.485 19.9476 19.4765 19.9287 19.4611C19.5082 19.1194 19.0461 18.8232 18.5424 18.5725C18.5194 18.5613 18.4806 18.529 18.4259 18.4756C18.266 18.126 18.104 17.7776 17.9813 17.4171C17.0714 14.7346 17.7972 11.8421 19.9549 9.85429C19.9661 9.84375 19.9805 9.83655 19.9962 9.83361C20.0036 9.83232 20.0112 9.83016 20.019 9.82715Z" fill="#035C7D"/>
<path d="M30.0532 19.9917C30.0555 19.9982 30.0575 20.0046 30.0594 20.0111C29.5539 20.5061 29.123 20.863 28.7669 21.0819C28.3036 21.3667 27.9121 21.5722 27.5923 21.6984C25.8459 22.3877 24.0819 22.4258 22.3002 21.8128C22.1077 21.7469 21.8728 21.643 21.5957 21.5013C21.3103 20.9382 20.9482 20.4324 20.5093 19.984C20.4987 19.9732 20.4928 19.9591 20.4927 19.9445C20.4926 19.9299 20.4982 19.9159 20.5086 19.9051C20.9209 19.4765 21.2828 19.0101 21.5943 18.506C21.6136 18.4862 21.6281 18.4742 21.6378 18.4699C23.2474 17.7125 25.0272 17.5535 26.7547 18.0207C27.8429 18.315 28.8119 18.8529 29.6616 19.6344C29.7949 19.7571 29.9254 19.8763 30.0532 19.9917Z" fill="#035C7D"/>
<path d="M18.397 18.4961C18.6971 18.9886 19.0578 19.4545 19.4792 19.8939C19.4922 19.9076 19.4994 19.9253 19.4994 19.9435C19.4994 19.9618 19.4922 19.9793 19.4792 19.9928C19.0436 20.4395 18.6847 20.9406 18.4025 21.4959C18.3758 21.5136 18.3487 21.5289 18.3211 21.5418C16.9967 22.1617 15.5974 22.3709 14.1231 22.1693C12.8676 21.9969 11.715 21.4985 10.6654 20.6739C10.528 20.5658 10.2865 20.3443 9.94089 20.0096L9.93262 19.9831C9.93905 19.9758 9.95008 19.9684 9.96571 19.9611C9.97903 19.9547 9.99098 19.9463 10.0016 19.9359C11.3012 18.6211 12.8919 17.8994 14.7738 17.7711C15.7665 17.7039 16.8081 17.8609 17.7393 18.2131C17.9241 18.2829 18.1155 18.3602 18.3136 18.4451C18.3448 18.4589 18.3726 18.4759 18.397 18.4961Z" fill="#035C7D"/>
<path d="M18.4259 18.4757C18.4806 18.5291 18.5194 18.5614 18.5424 18.5726C19.0461 18.8233 19.5082 19.1195 19.9287 19.4611C19.9476 19.4766 19.9718 19.4851 19.9969 19.4851C20.022 19.4851 20.0462 19.4766 20.0652 19.4611C20.4944 19.1143 20.9641 18.8141 21.4742 18.5603C21.4985 18.5483 21.527 18.5224 21.5596 18.4828C21.5835 18.4733 21.5953 18.4813 21.5948 18.5067C21.2832 19.0107 20.9213 19.4771 20.5091 19.9058C20.4987 19.9165 20.493 19.9305 20.4931 19.9451C20.4933 19.9597 20.4992 19.9738 20.5098 19.9846C20.9487 20.4331 21.3108 20.9389 21.5962 21.5019C21.5966 21.5114 21.5833 21.5133 21.5562 21.5077C21.3393 21.3591 21.1155 21.21 20.8848 21.0606C20.5649 20.8525 20.2791 20.6379 20.0273 20.4169C20.008 20.4001 19.9884 20.3999 19.9687 20.4163C19.4813 20.8279 18.9602 21.1601 18.4245 21.5129C18.4117 21.5172 18.4043 21.5116 18.4025 21.4961C18.6847 20.9408 19.0436 20.4397 19.4792 19.993C19.4922 19.9795 19.4994 19.962 19.4994 19.9437C19.4994 19.9255 19.4922 19.9078 19.4792 19.8941C19.0578 19.4547 18.6971 18.9888 18.397 18.4963C18.4066 18.4817 18.4163 18.4748 18.4259 18.4757Z" fill="white"/>
<path d="M9.94095 20.0098C10.2865 20.3445 10.528 20.5659 10.6654 20.6741C11.7151 21.4987 12.8676 21.9971 14.1232 22.1694C15.5974 22.3711 16.9968 22.1619 18.3212 21.542C18.3488 21.529 18.3759 21.5137 18.4026 21.4961C18.4044 21.5116 18.4117 21.5172 18.4246 21.5129C16.9108 24.4558 17.4671 27.9021 19.9894 30.1949C19.9857 30.1721 19.9843 30.1729 19.9853 30.1975C19.8552 30.3069 19.7215 30.414 19.5841 30.5187C17.2665 32.2848 14.0218 32.5077 11.5016 30.993C9.0007 29.4899 7.73852 26.8126 8.04597 24.0493C8.21371 22.5406 8.84537 21.1941 9.94095 20.0098Z" fill="#98C83B"/>
<path d="M30.0598 20.0107C31.5083 21.6022 32.1457 23.4222 31.972 25.4707C31.8534 26.8665 31.3619 28.1194 30.4975 29.2291C27.9725 32.4699 23.2154 32.9456 20.0492 30.2269C20.0368 30.2161 20.0226 30.2086 20.0065 30.2043C20.0001 30.2026 19.993 30.2 19.9851 30.1965C19.9842 30.172 19.9856 30.1711 19.9893 30.1939C21.5173 28.7994 22.3153 27.1011 22.3833 25.0991C22.4265 23.8381 22.1508 22.6407 21.5561 21.5068C21.5833 21.5124 21.5966 21.5104 21.5961 21.5009C21.8732 21.6427 22.1081 21.7465 22.3006 21.8124C24.0823 22.4255 25.8463 22.3873 27.5927 21.698C27.9125 21.5718 28.304 21.3663 28.7673 21.0815C29.1234 20.8627 29.5543 20.5058 30.0598 20.0107Z" fill="#109ADD"/>
<path d="M21.5564 21.5069C22.1511 22.6408 22.4268 23.8383 22.3836 25.0993C22.3156 27.1013 21.5176 28.7996 19.9895 30.1941C17.4673 27.9013 16.911 24.455 18.4248 21.5121C18.9604 21.1592 19.4815 20.8271 19.9689 20.4154C19.9886 20.3991 20.0082 20.3993 20.0275 20.4161C20.2793 20.6371 20.5651 20.8516 20.885 21.0597C21.1157 21.2092 21.3395 21.3583 21.5564 21.5069Z" fill="#035C7D"/>
<circle cx="20" cy="20" r="19.5" stroke="black" stroke-opacity="0.05"/>
</svg>
