<svg width="40" height="40" viewBox="0 0 40 40" fill="none" xmlns="http://www.w3.org/2000/svg">
<circle cx="20" cy="20" r="20" fill="#115840"/>
<g clip-path="url(#clip0_9_387947)">
<path d="M22.0388 11.6097C22.028 11.629 22.0336 11.6386 22.0557 11.6386L26.4541 11.638C26.4847 11.638 26.5 11.6535 26.5 11.6845L26.4993 13.0621C26.4993 13.0689 26.4966 13.0754 26.4918 13.0802C26.487 13.085 26.4805 13.0877 26.4737 13.0877L20.7623 13.0884C20.7349 13.0884 20.7212 13.1019 20.7212 13.1288L20.7218 17.5846C20.7218 17.6201 20.7101 17.6244 20.6868 17.5974L19.3004 16.0007C19.2856 15.9841 19.2781 15.9648 19.2781 15.9428L19.2788 13.1288C19.2788 13.1014 19.2651 13.0877 19.2377 13.0877H13.5768C13.5256 13.0877 13.5 13.0623 13.5 13.0116L13.5013 11.673C13.5013 11.6465 13.5144 11.6332 13.5404 11.6332H18.0811C18.0859 11.6332 18.0906 11.632 18.0948 11.6295C18.0989 11.6271 18.1023 11.6236 18.1046 11.6194C18.107 11.6152 18.1082 11.6105 18.1081 11.6057C18.1079 11.6009 18.1066 11.5962 18.104 11.5921C17.3175 10.3223 17.9639 8.57265 19.3988 8.1386C20.5661 7.7861 21.8528 8.40415 22.2464 9.59307C22.4778 10.2909 22.4086 10.9631 22.0388 11.6097ZM19.6719 11.5707C19.9897 11.6746 20.3362 11.6463 20.6353 11.492C20.9343 11.3378 21.1615 11.0702 21.2667 10.7483C21.372 10.4263 21.3467 10.0763 21.1964 9.77515C21.0462 9.47404 20.7833 9.24654 20.4655 9.14269C20.1478 9.03884 19.8013 9.06715 19.5022 9.22139C19.2031 9.37563 18.976 9.64317 18.8707 9.96514C18.7655 10.2871 18.7908 10.6372 18.941 10.9383C19.0913 11.2394 19.3542 11.4669 19.6719 11.5707Z" fill="white"/>
<path d="M18.8708 9.96506C18.6516 10.6355 19.0103 11.3544 19.672 11.5706C20.3336 11.7869 21.0476 11.4187 21.2668 10.7482C21.4859 10.0777 21.1272 9.35887 20.4656 9.14261C19.8039 8.92636 19.0899 9.29458 18.8708 9.96506Z" fill="#115840"/>
<path d="M17.1194 17.5559C17.1172 17.5569 17.1153 17.5585 17.114 17.5606C17.1127 17.5626 17.112 17.5649 17.112 17.5674L17.1126 23.1588C17.1126 23.1853 17.1259 23.1986 17.1524 23.1986L17.8082 23.1992C17.8248 23.1992 17.8331 23.2078 17.8331 23.2248V24.6045C17.8331 24.6143 17.8292 24.6238 17.8223 24.6307C17.8153 24.6377 17.8059 24.6416 17.7961 24.6416H14.9619C14.9574 24.6416 14.9532 24.6398 14.95 24.6366C14.9468 24.6335 14.9451 24.6292 14.9451 24.6247V23.2377C14.9451 23.212 14.9581 23.1992 14.9842 23.1992L15.644 23.1999C15.6501 23.1999 15.6559 23.1975 15.6602 23.1932C15.6645 23.1889 15.6669 23.1831 15.6669 23.177V16.7255C15.6669 16.718 15.664 16.7108 15.6588 16.7055C15.6536 16.7002 15.6466 16.6972 15.6393 16.6972H14.9828C14.9576 16.6972 14.9451 16.6844 14.9451 16.6588V15.3061C14.9451 15.272 14.9621 15.2549 14.9963 15.2549H16.9462C16.9745 15.2549 16.9976 15.2657 17.0156 15.2872L24.6485 24.6106C24.6509 24.6132 24.6523 24.6165 24.6528 24.6199C24.6532 24.6234 24.6526 24.627 24.6511 24.6302C24.6495 24.6334 24.647 24.6361 24.644 24.638C24.6409 24.6399 24.6373 24.6409 24.6337 24.6409L22.9811 24.6423C22.9678 24.6422 22.9548 24.6393 22.9429 24.6337C22.931 24.6281 22.9206 24.62 22.9123 24.6099C20.9852 22.2536 19.0627 19.9041 17.145 17.5613C17.1387 17.5532 17.1302 17.5514 17.1194 17.5559Z" fill="white"/>
<path d="M23.5877 16.6972L22.1892 16.6979C22.1862 16.6979 22.1832 16.6973 22.1804 16.6962C22.1776 16.695 22.1751 16.6933 22.173 16.6912C22.1708 16.6891 22.1692 16.6865 22.168 16.6838C22.1669 16.681 22.1663 16.678 22.1663 16.675L22.1669 15.2778C22.1669 15.2748 22.1675 15.2718 22.1687 15.269C22.1698 15.2662 22.1715 15.2637 22.1736 15.2616C22.1758 15.2595 22.1783 15.2578 22.1811 15.2566C22.1839 15.2555 22.1868 15.2549 22.1898 15.2549H26.4764C26.4795 15.2549 26.4824 15.2555 26.4852 15.2566C26.488 15.2578 26.4905 15.2595 26.4926 15.2616C26.4948 15.2637 26.4965 15.2662 26.4976 15.269C26.4988 15.2718 26.4994 15.2748 26.4994 15.2778L26.5 16.675C26.5 16.6811 26.4976 16.6869 26.4933 16.6912C26.489 16.6955 26.4832 16.6979 26.4771 16.6979L25.0786 16.6972C25.0725 16.6972 25.0667 16.6996 25.0624 16.7039C25.0581 16.7082 25.0557 16.7141 25.0557 16.7201V20.4844C25.0557 20.4874 25.0551 20.4904 25.0539 20.4932C25.0528 20.4959 25.0511 20.4985 25.049 20.5006C25.0468 20.5027 25.0443 20.5044 25.0415 20.5056C25.0387 20.5067 25.0358 20.5073 25.0328 20.5073H23.6335C23.6305 20.5073 23.6276 20.5067 23.6248 20.5056C23.622 20.5044 23.6195 20.5027 23.6173 20.5006C23.6152 20.4985 23.6135 20.4959 23.6124 20.4932C23.6112 20.4904 23.6106 20.4874 23.6106 20.4844V16.7201C23.6106 16.7141 23.6082 16.7082 23.6039 16.7039C23.5996 16.6996 23.5938 16.6972 23.5877 16.6972Z" fill="white"/>
<path d="M19.2788 27.9952L19.2782 22.2528C19.2782 22.2186 19.2898 22.2141 19.3132 22.2393L20.6989 23.7261C20.7142 23.7423 20.7219 23.7616 20.7219 23.7841V27.9965C20.7219 28.0262 20.7365 28.0397 20.7657 28.037C24.3479 27.735 26.9556 25.1658 27.362 21.5909C27.3652 21.5644 27.3762 21.5419 27.3951 21.5235L28.6258 20.3076C28.6532 20.2807 28.6667 20.2865 28.6662 20.3252C28.6103 23.5576 27.0466 26.5151 24.2421 28.134C24.0822 28.2266 23.9393 28.329 23.8135 28.4414C22.5275 29.5962 21.264 30.7303 20.0229 31.8437C20.017 31.8489 20.0093 31.8517 20.0015 31.8517C19.9937 31.8517 19.9862 31.8489 19.9805 31.8437C18.7075 30.7033 17.4433 29.569 16.1879 28.4407C16.0594 28.3252 15.9125 28.2212 15.7471 28.1286C12.9413 26.5562 11.3864 23.5691 11.3345 20.3521C11.334 20.3184 11.3468 20.3121 11.3729 20.3332L12.5975 21.3072C12.6187 21.3238 12.6308 21.3456 12.6339 21.3725C13.0255 24.8888 15.6784 27.7209 19.2303 28.0397C19.2627 28.0424 19.2788 28.0275 19.2788 27.9952ZM20.0964 30.4162L21.3204 29.2151C21.3581 29.1783 21.3509 29.1639 21.2988 29.172C20.4554 29.3068 19.6136 29.3068 18.7733 29.172C18.7239 29.1639 18.7174 29.1769 18.7538 29.2111L20.0539 30.4169C20.0598 30.4222 20.0674 30.425 20.0753 30.4249C20.0832 30.4248 20.0907 30.4217 20.0964 30.4162Z" fill="white"/>
<path d="M20.0965 30.4164C20.0908 30.4219 20.0833 30.4251 20.0754 30.4252C20.0675 30.4253 20.0598 30.4224 20.054 30.4171L18.7539 29.2113C18.7175 29.1772 18.724 29.1642 18.7734 29.1722C19.6137 29.307 20.4555 29.307 21.2989 29.1722C21.351 29.1642 21.3582 29.1785 21.3204 29.2154L20.0965 30.4164Z" fill="#115840"/>
</g>
<circle cx="20" cy="20" r="19.5" stroke="black" stroke-opacity="0.05"/>
<defs>
<clipPath id="clip0_9_387947">
<rect width="18" height="24" fill="white" transform="translate(11 8)"/>
</clipPath>
</defs>
</svg>
