<svg width="40" height="40" viewBox="0 0 40 40" fill="none" xmlns="http://www.w3.org/2000/svg">
<circle cx="20" cy="20" r="20" fill="#F6F8FA"/>
<g clip-path="url(#clip0_9_393608)">
<path d="M33.7171 15H33.8852C34.5019 15.0615 34.9536 15.5149 34.9996 16.131V16.2736C34.9556 16.7408 34.7374 17.075 34.345 17.2761C33.9499 17.4784 33.4436 17.4376 33.0772 17.1641C32.5766 16.7905 32.4465 16.0842 32.789 15.5494C32.9951 15.228 33.3045 15.0448 33.7171 15Z" fill="#E40946"/>
<path d="M5 24.8339V18.2383L7.08448 18.2385C7.09732 18.2385 7.10374 18.2451 7.10374 18.2581C7.10182 18.4144 7.10192 18.5815 7.10402 18.7595C7.10441 18.7974 7.09444 18.8349 7.07414 18.8719C7.00287 19.0021 6.93381 19.13 6.86695 19.2555C6.85642 19.2754 6.85891 19.2772 6.87443 19.261C7.2819 18.8368 7.76006 18.5145 8.30891 18.294C8.93621 18.0423 9.60977 18.0026 10.256 18.1966C10.6459 18.3136 10.9563 18.5291 11.1874 18.8429C11.477 19.2365 11.5658 19.7285 11.5658 20.2066C11.5658 21.7457 11.5659 23.2834 11.5661 24.8196C11.5661 24.8299 11.5609 24.8351 11.5506 24.8351H9.47414C9.47139 24.8351 9.46876 24.834 9.46682 24.8321C9.46488 24.8301 9.46379 24.8275 9.46379 24.8247C9.46207 23.5801 9.46226 22.3398 9.46437 21.1038C9.46494 20.6966 9.40115 20.2641 8.99655 20.0569C8.84674 19.9801 8.66485 19.9387 8.45086 19.9328C7.90374 19.9179 7.44943 20.1474 7.11092 20.5661C7.10552 20.5726 7.10257 20.5808 7.10259 20.5891V24.819C7.10259 24.8278 7.09818 24.8322 7.08937 24.8322L5 24.8339Z" fill="#081F2C"/>
<path d="M29.2217 25.0005H28.891C28.2168 24.9769 27.5082 24.793 26.9421 24.424C26.1293 23.8945 25.6448 23.1347 25.4887 22.1444C25.2234 20.4617 26.0887 18.8347 27.722 18.2757C28.5053 18.0076 29.4479 17.9907 30.2367 18.3076C31.0635 18.64 31.6546 19.2312 32.0099 20.0812C32.1707 20.4657 32.268 20.8807 32.3019 21.3263C32.3211 21.5784 32.3266 21.8648 32.3186 22.1855C32.3184 22.1947 32.3137 22.1993 32.3045 22.1993H27.7967C27.7868 22.1993 27.7788 22.1953 27.7729 22.1872L27.6168 21.9801C27.6057 21.9651 27.6006 21.9669 27.6013 21.9855C27.6295 22.6131 28.0651 23.0884 28.6571 23.2789C29.3786 23.5114 30.3226 23.3059 30.9082 22.8229C30.9093 22.822 30.9105 22.8213 30.9119 22.821C30.9132 22.8206 30.9146 22.8205 30.916 22.8207C30.9174 22.8209 30.9187 22.8213 30.9199 22.8221C30.9211 22.8228 30.9221 22.8237 30.9229 22.8249L31.793 24.1111C31.8008 24.1228 31.7993 24.1331 31.7884 24.1421C31.4796 24.3967 31.1347 24.5889 30.7536 24.7186C30.2588 24.887 29.7482 24.9809 29.2217 25.0005ZM28.3076 19.837C27.92 20.0223 27.6737 20.4062 27.601 20.8255C27.6001 20.831 27.6025 20.8338 27.6082 20.8338H30.3071C30.3081 20.8338 30.3091 20.8336 30.31 20.8332C30.311 20.8327 30.3118 20.8321 30.3125 20.8313C30.3132 20.8305 30.3137 20.8296 30.314 20.8286C30.3143 20.8276 30.3144 20.8265 30.3143 20.8255C30.2464 20.3559 29.9769 19.9717 29.5361 19.801C29.1565 19.6539 28.6657 19.666 28.3076 19.837Z" fill="#081F2C"/>
<path d="M14.2634 25.0001H14.0126C13.7112 24.984 13.4604 24.9411 13.26 24.8713C12.5749 24.6334 12.1704 24.1543 12.0465 23.434C12.0166 23.2602 12.0018 23.0725 12.002 22.8708C12.0035 21.3217 12.0036 19.7832 12.0022 18.2552C12.0022 18.2439 12.0079 18.2383 12.0192 18.2383H14.0864C14.0983 18.2383 14.1043 18.2442 14.1043 18.2561C14.1037 19.5475 14.1037 20.82 14.1043 22.0736C14.1045 22.5774 14.2787 23.0035 14.8261 23.1067C15.479 23.2295 16.0175 23.0318 16.4416 22.5136C16.4483 22.5053 16.4517 22.4958 16.4517 22.4851L16.4511 18.257C16.4511 18.2445 16.4573 18.2383 16.4698 18.2383L18.5367 18.2386C18.5488 18.2386 18.5548 18.2447 18.5548 18.257L18.5551 24.8173C18.5551 24.8292 18.5492 24.8351 18.5373 24.8351H16.4706C16.4572 24.8351 16.4506 24.8284 16.4508 24.815C16.4529 24.6828 16.4525 24.5518 16.4497 24.4219C16.4487 24.3769 16.4593 24.3285 16.4816 24.2768C16.5358 24.1515 16.5915 24.0239 16.6488 23.894C16.6559 23.8779 16.6533 23.8762 16.641 23.8889C16.0178 24.5285 15.162 24.9541 14.2634 25.0001Z" fill="#081F2C"/>
<path d="M22.3603 22.7127C22.376 22.7681 22.3821 22.767 22.3787 22.7095C22.3699 22.559 22.3567 22.4004 22.339 22.234C22.3348 22.1935 22.3394 22.1547 22.3528 22.1173C22.8281 20.8033 23.2944 19.5132 23.7517 18.2469C23.7526 18.2444 23.7543 18.2422 23.7565 18.2407C23.7587 18.2391 23.7613 18.2383 23.764 18.2383H25.9701C25.9766 18.2383 25.9787 18.2414 25.9764 18.2478L23.3905 24.8268C23.3894 24.8293 23.3877 24.8314 23.3855 24.8329C23.3833 24.8343 23.3807 24.8351 23.3781 24.8351H21.1635C21.1533 24.8351 21.1463 24.8303 21.1425 24.8208C20.4274 23.0031 19.7142 21.189 19.0031 19.3785C18.9828 19.3268 18.9727 19.279 18.9727 19.2351C18.9734 18.9056 18.9735 18.5799 18.9729 18.2581C18.9729 18.2556 18.9734 18.253 18.9743 18.2507C18.9753 18.2483 18.9767 18.2461 18.9785 18.2443C18.9803 18.2425 18.9824 18.241 18.9848 18.2401C18.9871 18.2391 18.9896 18.2386 18.9922 18.2386L20.7479 18.2383C20.7598 18.2383 20.7678 18.2438 20.7718 18.2549C21.3116 19.7653 21.8363 21.2358 22.3456 22.6664C22.3512 22.6822 22.3561 22.6976 22.3603 22.7127Z" fill="#081F2C"/>
<path d="M34.8383 18.2383H32.7595C32.7532 18.2383 32.748 18.2434 32.748 18.2498V24.8245C32.748 24.8308 32.7532 24.836 32.7595 24.836H34.8383C34.8446 24.836 34.8498 24.8308 34.8498 24.8245V18.2498C34.8498 18.2434 34.8446 18.2383 34.8383 18.2383Z" fill="#081F2C"/>
</g>
<circle cx="20" cy="20" r="19.5" stroke="black" stroke-opacity="0.05"/>
<defs>
<clipPath id="clip0_9_393608">
<rect width="30" height="10" fill="white" transform="translate(5 15)"/>
</clipPath>
</defs>
</svg>
