<svg width="40" height="40" viewBox="0 0 40 40" fill="none" xmlns="http://www.w3.org/2000/svg">
<circle cx="20" cy="20" r="20" fill="#00AAD9"/>
<g clip-path="url(#clip0_9_399131)">
<path d="M17.0216 14.2517C17.1489 14.1673 17.2419 14.0924 17.2922 14.0518C17.535 13.8539 17.6184 13.9673 17.3991 14.3223C17.1125 14.7865 16.6527 15.0784 16.103 15.3522C15.9928 15.4078 15.8645 15.4591 16.1158 15.5778C16.3276 15.6773 16.8473 15.889 17.3061 16.0184C17.5703 16.0933 19.3562 16.7157 21.0555 16.7093C22.2886 16.705 23.3944 16.5457 24.0296 16.4922C24.5066 16.4526 25.5439 16.3607 26.0594 17.2879C26.4904 18.0621 26.3995 20.4833 26.4219 21.0341C26.438 21.4319 26.4219 24.6637 26.4187 24.9471C26.4166 25.1385 26.4027 25.284 26.2594 25.3C26.1289 25.3139 25.7567 25.3086 25.6883 25.3086C25.6487 25.3086 25.5086 25.3054 25.3889 25.3054C25.1793 25.3054 25.1835 25.4038 25.1835 25.4604C25.1835 25.5802 25.2284 25.7139 24.959 25.7235C24.7729 25.7289 24.1761 25.7235 24.0981 25.7235C23.9676 25.7235 23.8959 25.5631 24.0104 25.3567C25.1065 23.3772 25.0274 21.8704 24.3804 21.0287C24.3355 21.1838 24.2948 21.311 24.2628 21.4854C24.1783 21.9442 24.0842 22.1463 23.9836 22.2276C22.8329 23.158 22.28 24.5343 22.0127 25.2508C21.956 25.4006 21.8458 25.3449 21.7956 25.4102C21.7122 25.5171 21.8908 25.7118 21.5507 25.7225C21.4138 25.7267 20.7497 25.7246 20.6171 25.7257C20.4609 25.7267 20.3732 25.5342 20.5294 25.3428C20.8833 24.9108 22.8982 23.0061 22.7976 21.0234C22.7934 20.9389 22.7367 20.5175 22.6522 20.4384C22.634 20.4202 22.2982 20.1293 21.5721 20.7271C21.4897 20.7956 21.479 20.7699 21.3753 20.7111C21.263 20.648 20.3839 20.3315 19.7423 20.5229C19.3348 20.6437 18.8557 21.1474 19.0386 21.9442C19.2963 23.0703 19.8727 24.036 20.0962 25.1728C20.1241 25.377 19.9818 25.3257 19.9219 25.4027C19.8396 25.5096 20.015 25.7225 19.6599 25.7225C19.5487 25.7235 18.7648 25.7225 18.7648 25.7225C18.598 25.7289 18.5081 25.654 18.6183 25.3043C18.6514 25.2006 18.6825 25.0295 18.7231 24.6659C18.7605 24.3301 18.7231 23.9793 18.66 23.5857C18.4525 22.2971 17.7521 21.664 17.1681 21.2822C16.7735 21.5335 16.1361 23.4745 15.9554 24.7792C15.9394 24.884 15.9265 24.9888 15.918 25.0936C15.8934 25.4198 15.6987 25.3032 15.6442 25.3952C15.5683 25.5235 15.7201 25.7246 15.3662 25.7246C14.9437 25.7246 14.717 25.7267 14.5224 25.7246C14.3513 25.7225 14.3245 25.5353 14.4529 25.3064C14.9886 24.344 15.8314 22.8564 15.8164 21.2512C15.8153 21.0651 15.8164 20.5133 15.5597 20.2074C14.9844 19.5198 14.6614 18.6931 14.3662 18.1626C14.162 17.7969 13.8636 17.7124 13.6668 17.6504C13.4701 17.5894 13.3022 17.6761 13.0819 17.5509C13.0209 17.5167 12.8615 17.3039 12.714 17.1413C12.591 17.0066 12.5022 16.8109 12.6477 16.6269C12.9033 16.305 13.1139 16.0944 13.1439 15.888C13.1514 15.8388 13.1417 15.734 13.1599 15.6837C13.2198 15.5222 13.4369 15.2623 13.5952 15.0699C13.6711 14.9779 13.6069 14.8185 13.469 14.6581C13.3321 14.4977 12.9182 13.932 12.9182 13.0005C12.9182 12.6305 13.0487 12.6497 13.1407 12.901C13.2326 13.1534 13.6251 14.2528 14.8004 14.5672C15.8987 14.8602 16.6238 14.5416 17.0216 14.2517ZM25.5814 17.9819C25.576 18.0429 25.5974 18.4172 25.5343 19.0706C25.4937 19.4759 25.391 19.7871 25.453 20.1005C25.514 20.4138 25.6776 21.4148 25.7514 21.5078C25.8166 21.587 25.9107 21.5292 25.9086 21.4522C25.9086 21.3966 26.0091 18.723 25.7728 18.0578C25.6926 17.8365 25.5963 17.8226 25.5814 17.9819ZM20.3166 29.4612V27.6517C20.3166 27.3437 20.3112 26.7876 19.2589 26.7876C18.86 26.7876 18.5873 26.8657 18.4408 26.9138C18.2632 26.9705 18.2044 27.0389 18.2044 27.1288V29.4665C18.2044 29.5564 18.2312 29.566 18.305 29.566H18.5616C18.6343 29.566 18.6718 29.5564 18.6718 29.4612V27.3127C18.6718 27.1908 18.8696 27.0721 19.2386 27.0721C19.8503 27.0721 19.8503 27.4646 19.8503 27.7105V29.4612C19.8503 29.5553 19.8813 29.566 19.9658 29.566H20.2545C20.3112 29.5553 20.3166 29.5082 20.3166 29.4612ZM23.0917 28.2196C23.0917 27.5907 22.8917 27.1865 22.588 26.9833C22.3987 26.8518 22.1474 26.7887 21.9057 26.7887C21.6662 26.7887 21.4138 26.8518 21.2256 26.9833C20.9218 27.1876 20.7229 27.5907 20.7229 28.2196C20.7229 28.8431 20.9218 29.2462 21.2256 29.4505C21.4149 29.581 21.6662 29.6451 21.9057 29.6451C22.1474 29.6451 22.3998 29.581 22.588 29.4505C22.8907 29.2462 23.0917 28.8431 23.0917 28.2196ZM22.6073 28.2196C22.6073 28.7126 22.5078 29.0313 22.3613 29.1682C22.2191 29.305 22.0886 29.3414 21.9047 29.3414C21.7218 29.3414 21.5902 29.305 21.4501 29.1682C21.3026 29.0313 21.2031 28.7126 21.2031 28.2196C21.2031 27.7212 21.3026 27.4025 21.4501 27.2646C21.5902 27.1298 21.7229 27.0924 21.9047 27.0924C22.0886 27.0924 22.2191 27.1288 22.3613 27.2646C22.5078 27.4025 22.6073 27.7201 22.6073 28.2196ZM24.959 27.0603C24.959 26.871 24.6392 26.7876 24.2777 26.7876C23.9943 26.7876 23.8168 26.8347 23.6799 26.871C23.5013 26.9191 23.4382 26.9972 23.4382 27.086V29.4762C23.4382 29.5606 23.4703 29.5649 23.5441 29.5649H23.8115C23.8745 29.5649 23.9066 29.5606 23.9066 29.4762V27.286C23.9066 27.1437 24.0168 27.0496 24.174 27.0496C24.5098 27.0496 24.5611 27.2967 24.7408 27.2967C24.8595 27.2967 24.959 27.2122 24.959 27.0603ZM27.2646 29.2772V25.9866C27.2646 25.8925 27.2379 25.8807 27.1598 25.8807H26.9021C26.8144 25.8807 26.8026 25.9128 26.8026 25.9973V26.948C26.6283 26.8507 26.4305 26.8015 26.2305 26.8047C25.4188 26.8047 24.9996 27.5747 24.9996 28.2196C24.9996 29.1746 25.5279 29.6462 26.3257 29.6462C26.7192 29.6451 27.2646 29.4505 27.2646 29.2772ZM26.8037 29.1254C26.8037 29.2623 26.5834 29.335 26.3417 29.335C25.8337 29.335 25.4723 28.9104 25.4723 28.1832C25.4723 27.548 25.8177 27.1234 26.3 27.1234C26.5738 27.1234 26.7032 27.2068 26.8037 27.2913V29.1254ZM28.4014 26.0957C28.3972 25.947 28.2731 25.8294 28.1245 25.8326C27.9566 25.8326 27.8346 25.9492 27.8346 26.1117C27.8346 26.2582 27.9405 26.3834 28.117 26.3834C28.2699 26.3876 28.3972 26.2679 28.4014 26.116C28.4025 26.1096 28.4014 26.1032 28.4014 26.0957ZM28.3501 29.4719V26.9502C28.3501 26.8667 28.3287 26.8507 28.2453 26.8507H27.9726C27.8838 26.8507 27.8838 26.8817 27.8838 26.9502V29.4719C27.8838 29.5446 27.8838 29.566 27.9619 29.566H28.2453C28.3234 29.566 28.3501 29.5617 28.3501 29.4719ZM33 29.5082C33 29.4826 32.984 29.4665 32.9626 29.4398L31.968 28.1255L31.9627 28.1201C32.3519 27.825 32.6717 27.4474 32.8963 27.0143C32.9155 26.9822 32.9251 26.9459 32.9251 26.9095C32.9251 26.8625 32.8984 26.8518 32.831 26.8518H32.584C32.491 26.8518 32.4492 26.8475 32.4214 26.9309C32.2749 27.3811 31.8878 27.8645 31.4942 28.0944C31.4793 28.1062 31.4739 28.1212 31.4739 28.1265C31.4739 28.1372 31.4793 28.1469 31.4846 28.1533L32.4182 29.4901C32.4706 29.5681 32.492 29.5681 32.5744 29.5681H32.9305C32.9487 29.566 33 29.5617 33 29.5082ZM31.4001 29.4879V25.9395C31.4001 25.8647 31.3638 25.8647 31.3007 25.8647H31.0237C30.9659 25.8647 30.9339 25.8754 30.9339 25.9492V29.4826C30.9339 29.5564 30.9499 29.566 31.0237 29.566H31.3007C31.3745 29.566 31.4001 29.566 31.4001 29.4879ZM30.567 28.8324C30.567 27.9511 29.2773 28.088 29.2773 27.5063C29.2773 27.3073 29.4345 27.102 29.7275 27.102C30.0323 27.102 30.1125 27.302 30.2676 27.302C30.3467 27.302 30.4569 27.2549 30.4569 27.1181C30.4569 26.9202 30.1168 26.8036 29.7553 26.8036C29.2784 26.8036 28.8602 27.0603 28.8602 27.548C28.8602 27.9982 29.18 28.1928 29.5618 28.3554C29.8666 28.4827 30.1489 28.5971 30.1489 28.8858C30.1489 29.1008 29.9756 29.3468 29.6099 29.3468C29.242 29.3468 29.1372 29.074 28.9597 29.074C28.8709 29.074 28.7597 29.1104 28.7597 29.2473C28.7597 29.4623 29.18 29.6462 29.6046 29.6462C30.074 29.6451 30.567 29.3938 30.567 28.8324ZM9.11106 29.4612V27.6517C9.11106 27.3437 9.10571 26.7876 8.05232 26.7876C7.65449 26.7876 7.38179 26.8657 7.23421 26.9138C7.05668 26.9705 7 27.0389 7 27.1288V29.4665C7 29.5564 7.02567 29.566 7.09946 29.566H7.35612C7.42991 29.566 7.46734 29.5564 7.46734 29.4612V27.3127C7.46734 27.1908 7.66626 27.0721 8.032 27.0721C8.64372 27.0721 8.64372 27.4646 8.64372 27.7105V29.4612C8.64372 29.5553 8.67687 29.566 8.76028 29.566H9.04903C9.10571 29.5553 9.11106 29.5082 9.11106 29.4612ZM11.8852 28.2196C11.8852 27.5907 11.6852 27.1865 11.3825 26.9833C11.1932 26.8518 10.9419 26.7887 10.7002 26.7887C10.4596 26.7887 10.2083 26.8518 10.0201 26.9833C9.71635 27.1876 9.51744 27.5907 9.51744 28.2196C9.51744 28.8431 9.71528 29.2462 10.0201 29.4505C10.2094 29.581 10.4607 29.6451 10.7002 29.6451C10.943 29.6451 11.1943 29.581 11.3825 29.4505C11.6852 29.2462 11.8852 28.8431 11.8852 28.2196ZM11.4028 28.2196C11.4028 28.7126 11.3034 29.0313 11.1569 29.1682C11.0146 29.305 10.8842 29.3414 10.7002 29.3414C10.5184 29.3414 10.3869 29.305 10.2447 29.1682C10.0981 29.0313 9.99975 28.7126 9.99975 28.2196C9.99975 27.7212 10.0992 27.4025 10.2447 27.2646C10.3869 27.1298 10.5184 27.0924 10.7002 27.0924C10.8842 27.0924 11.0146 27.1288 11.1569 27.2646C11.3034 27.4025 11.4028 27.7201 11.4028 28.2196ZM16.6719 28.2196C16.6719 27.5907 16.473 27.1865 16.1682 26.9833C15.98 26.8518 15.7287 26.7887 15.487 26.7887C15.2464 26.7887 14.994 26.8518 14.8058 26.9833C14.5031 27.1876 14.3031 27.5907 14.3031 28.2196C14.3031 28.8431 14.5031 29.2462 14.8058 29.4505C14.9951 29.581 15.2464 29.6451 15.487 29.6451C15.7298 29.6451 15.98 29.581 16.1682 29.4505C16.473 29.2462 16.6719 28.8431 16.6719 28.2196ZM16.1907 28.2196C16.1907 28.7126 16.0912 29.0313 15.9436 29.1682C15.8014 29.305 15.6709 29.3414 15.487 29.3414C15.3041 29.3414 15.1726 29.305 15.0304 29.1682C14.8838 29.0313 14.7844 28.7126 14.7844 28.2196C14.7844 27.7212 14.8838 27.4025 15.0304 27.2646C15.1726 27.1298 15.3041 27.0924 15.487 27.0924C15.6709 27.0924 15.8014 27.1288 15.9436 27.2646C16.0912 27.4025 16.1907 27.7201 16.1907 28.2196ZM14.2604 26.9042C14.2604 26.8507 14.2187 26.8507 14.1919 26.8507H13.931C13.8936 26.855 13.8839 26.871 13.8679 26.9245L13.1867 28.9211L12.4776 26.9352C12.452 26.8614 12.4413 26.8507 12.3632 26.8507H12.0434C12.022 26.8507 11.9696 26.8507 11.9696 26.9138C11.9718 26.9395 11.9793 26.9641 11.99 26.9876L12.9385 29.4826C12.9653 29.5457 12.976 29.5617 13.0166 29.566H13.2219C13.285 29.566 13.2957 29.5617 13.3214 29.4879L14.2379 26.9876C14.2604 26.9245 14.2604 26.9138 14.2604 26.9042Z" fill="#004F93"/>
<path d="M13.5064 12.1196C13.5064 10.9497 14.4561 10 15.6271 10C16.7981 10 17.7467 10.9497 17.7467 12.1196C17.7467 13.2896 16.797 14.2392 15.6271 14.2392C14.4561 14.2403 13.5064 13.2906 13.5064 12.1196Z" fill="#004F93"/>
<path d="M14.2818 11.8705C14.2679 11.0823 14.8956 10.4321 15.6849 10.4182C16.4741 10.4043 17.1233 11.032 17.1372 11.8213V11.8705C17.1233 12.6587 16.473 13.2864 15.6849 13.2725C14.916 13.2597 14.2957 12.6394 14.2818 11.8705ZM19.83 17.3139C19.8054 17.1214 19.7712 16.9813 20.0899 16.9963C20.5187 17.0166 20.7283 17.039 20.9903 17.0358C21.309 17.0326 21.679 17.0241 21.8191 17.0112C22.0726 16.9888 22.2351 17.0647 22.3175 17.2636C22.3977 17.4561 22.6843 18.2496 22.2116 18.471C21.6052 18.7544 20.7251 18.7908 20.2888 18.6624C20.1262 18.6154 19.8653 18.5534 19.8685 18.2282C19.8696 18.117 19.8792 17.6946 19.83 17.3139ZM23.5324 17.115C23.7762 17.3845 23.9206 17.8283 23.9505 18.0208C23.9815 18.2111 24.2393 18.1373 24.2713 17.9588C24.3184 17.6935 24.235 17.2551 24.0393 17.0198C23.9494 16.9107 23.7954 16.8626 23.6168 16.8968C23.4479 16.9289 23.4019 16.9695 23.5324 17.115Z" fill="white"/>
<path d="M19.9209 19.9406C19.7904 19.9834 18.691 20.2946 18.6707 21.425C18.6643 21.7597 18.5702 21.7276 18.4141 21.6089C17.8237 21.1533 17.2067 20.7352 16.5639 20.3577C16.2067 20.1449 15.8955 19.8465 15.7833 19.6465C15.6014 19.3278 15.3533 18.838 15.6325 18.083C15.7704 17.7098 16.056 17.1237 16.2731 16.8029C16.6281 16.2789 16.5917 16.2725 17.2783 16.4938C17.8932 16.6927 17.8612 16.7676 17.8697 17.0703C17.8804 17.4659 17.8301 17.8253 17.7478 18.19C17.704 18.3814 17.828 18.5995 18.0643 18.6038C19.0311 18.6306 19.0514 17.2906 19.0514 17.2874C19.0718 16.9751 18.953 16.9131 19.2632 16.9419C19.4942 16.9644 19.5359 17.1601 19.5701 17.5151C19.5819 17.6445 19.5733 18.1504 19.5733 18.2883C19.5733 18.4263 19.5883 18.7856 20.0631 18.915C20.847 19.13 21.9389 18.9589 22.387 18.6937C22.6501 18.5386 22.818 18.3611 22.7848 17.9825C22.7592 17.7023 22.6811 17.3504 22.6276 17.22C22.5688 17.0735 22.5795 16.9729 22.7014 16.9558C23.2917 16.8767 23.5569 17.4905 23.7591 18.2402C23.8232 18.483 24.1601 18.4669 24.3312 18.3012C24.498 18.1397 24.5932 17.882 24.4745 17.4018C24.4446 17.2756 24.3975 17.1547 24.3344 17.0425C24.2916 16.9708 24.2799 16.9077 24.4414 16.9066C25.5183 16.9002 25.2466 18.8947 25.2349 19.0647C25.2188 19.2776 25.1301 19.7363 25.082 19.9481C24.8916 20.825 24.4371 20.4743 24.2938 20.3834C23.7986 20.0647 23.2329 19.8732 22.6458 19.8262C21.1828 19.6946 20.3572 19.793 19.9209 19.9406ZM16.1404 16.0596C15.9586 15.9484 15.5779 15.7538 15.2026 15.5335C14.5213 15.1357 14.1759 14.926 13.9203 15.1325C13.6529 15.3485 13.4498 15.6426 13.4134 15.7463C13.376 15.85 13.3931 16.0992 13.3011 16.2115C13.2337 16.2949 13.1332 16.4553 12.992 16.6275C12.7974 16.8649 12.9386 16.9409 13.146 17.1911C13.3417 17.4253 13.7856 17.1825 14.2818 17.575C14.532 17.7729 14.6219 17.9269 14.947 18.437C15.055 18.6081 15.1213 18.5076 15.21 18.2744C15.3352 17.9504 15.7608 17.0457 16.0838 16.5505C16.1939 16.3848 16.3447 16.1848 16.1404 16.0596ZM13.8091 15.9634C13.6059 15.618 14.3491 15.5207 14.3844 15.6276C14.4197 15.7335 14.0123 16.3088 13.8091 15.9634Z" fill="white"/>
<path d="M18.1777 16.9517C18.2301 17.5698 18.0611 18.0596 18.0633 18.1537C18.0665 18.2799 18.2226 18.313 18.3456 18.2457C18.568 18.1227 18.7359 17.7003 18.7231 17.0511C18.7199 16.8928 18.7274 16.8223 18.4589 16.7784C18.2012 16.7367 18.1606 16.7474 18.1777 16.9517Z" fill="white"/>
</g>
<circle cx="20" cy="20" r="19.5" stroke="black" stroke-opacity="0.05"/>
<defs>
<clipPath id="clip0_9_399131">
<rect width="26" height="19.6454" fill="white" transform="translate(7 10)"/>
</clipPath>
</defs>
</svg>
