<svg width="40" height="40" viewBox="0 0 40 40" fill="none" xmlns="http://www.w3.org/2000/svg">
<circle cx="20" cy="20" r="20" fill="#F6F8FA"/>
<g clip-path="url(#clip0_9_397905)">
<path fill-rule="evenodd" clip-rule="evenodd" d="M19.7145 8.57129H18.2573C18.4287 8.88557 18.5645 9.21415 18.6573 9.54272C18.7859 10.007 18.8573 11.157 18.1287 11.2141C18.027 11.2247 17.9242 11.2077 17.8312 11.165C17.7383 11.1223 17.6585 11.0554 17.6002 10.9713C17.1073 10.3141 17.0859 9.57843 17.1859 8.77129C17.1859 8.74986 17.1787 8.74272 17.1573 8.74272L16.9502 8.78557C16.5645 8.89986 16.2002 9.01415 15.8502 9.14272C15.8359 9.14272 15.8287 9.157 15.8359 9.17129C16.9787 11.8856 17.9145 14.6427 18.593 17.5141C18.6073 17.5784 18.6002 17.5856 18.5716 17.5284C17.4409 14.835 16.4397 12.089 15.5716 9.29986C15.5573 9.27129 15.543 9.26415 15.5216 9.27129C15.0502 9.47129 14.5787 9.69986 14.1216 9.96415C14.093 9.98557 14.0859 10.007 14.1216 10.0356C14.643 10.4927 15.1002 11.107 15.1645 11.7999C15.2145 12.307 14.7716 12.6856 14.293 12.4427C13.6716 12.107 13.3073 11.3499 13.1359 10.6641C13.1353 10.6597 13.1338 10.6555 13.1313 10.6517C13.1288 10.648 13.1255 10.6449 13.1216 10.6427C13.1165 10.6387 13.1102 10.6364 13.1037 10.6364C13.0972 10.6364 13.0909 10.6387 13.0859 10.6427C12.7637 10.8843 12.4538 11.1417 12.1573 11.4141C12.1359 11.4284 12.1359 11.4499 12.1573 11.4641C14.1268 13.571 15.9141 15.8411 17.5002 18.2499H17.4859C15.5239 16.1505 13.6646 13.9575 11.9145 11.6784C11.9073 11.657 11.893 11.657 11.8787 11.6713C11.5573 11.9856 11.2573 12.3141 10.9716 12.657C10.9573 12.6784 10.9573 12.6927 10.9859 12.707L11.293 12.8641C11.7359 13.0999 12.3502 13.6499 12.4216 14.1784C12.4645 14.507 12.2502 14.8213 11.893 14.8427C11.8002 14.8427 11.7073 14.8356 11.6216 14.8141C11.0645 14.6713 10.5716 14.2427 10.2216 13.7641C10.2073 13.7427 10.193 13.7427 10.1787 13.7641C9.9716 14.0784 9.77874 14.4213 9.60731 14.7713C9.59302 14.7927 9.59302 14.807 9.61445 14.8141C12.0868 16.0978 14.4516 17.5788 16.6859 19.2427V19.2499C14.2039 17.9951 11.7822 16.6245 9.42874 15.1427H9.40731V15.1641L8.97874 16.2213C8.97531 16.23 8.97485 16.2397 8.97743 16.2487C8.98001 16.2577 8.98549 16.2657 8.99302 16.2713L9.01445 16.2784C9.48588 16.3427 9.90731 16.5213 10.2716 16.8141C10.6216 17.0927 10.7645 17.557 10.3573 17.8641C10.1859 17.9927 9.92874 18.007 9.71445 17.9927C9.33508 17.9694 8.9661 17.8595 8.63588 17.6713C8.61445 17.657 8.60731 17.6641 8.60017 17.6856L8.56445 17.7784V18.7213C11.1383 19.0979 13.6809 19.6637 16.1716 20.4141C16.2573 20.4356 16.2573 20.4499 16.1716 20.4427H16.1359C16.0162 20.4378 15.897 20.4259 15.7787 20.407C15.5716 20.3641 15.3502 20.3356 15.1359 20.307L14.7645 20.257C12.693 19.9499 10.6216 19.5641 8.56445 19.1141V19.7213C8.93588 19.7356 9.27874 19.8213 9.59302 19.9641C9.91445 20.1141 10.1645 20.4499 10.0002 20.807C9.7716 21.2927 9.00017 21.307 8.56445 21.2713V21.8141C10.0502 21.9284 11.3073 22.0499 12.3359 22.1713C12.7145 22.2213 13.2859 22.3141 14.0502 22.457C14.8002 22.5999 15.5502 22.7427 16.3145 22.907C16.3249 22.9089 16.3348 22.913 16.3435 22.9192C16.3521 22.9254 16.3593 22.9334 16.3645 22.9427C16.815 23.6387 17.444 24.2011 18.1859 24.5713C18.6859 24.8356 19.2573 25.1427 19.4145 25.7141C19.4859 25.9641 19.5216 26.2284 19.543 26.4999C19.652 27.9458 19.529 29.3999 19.1787 30.807C19.1359 30.9713 19.0645 31.1784 18.9573 31.4356H19.1502C19.3287 31.0284 19.4573 30.5999 19.5216 30.1499C19.6359 29.4141 19.7145 28.6784 19.743 27.9356C19.7716 27.2784 19.743 26.6284 19.6716 25.9784C19.6414 25.8204 19.5984 25.6652 19.543 25.5141C19.3787 24.9784 18.8287 24.6784 18.3359 24.4141L18.0216 24.2356C17.4929 23.9251 17.0315 23.5123 16.6645 23.0213C16.643 22.9927 16.6502 22.9784 16.693 22.9856L19.9573 23.6856C19.9762 23.6894 19.9956 23.6894 20.0145 23.6856L23.0502 23.1141C23.0859 23.0999 23.093 23.1141 23.0787 23.1499C22.6216 23.9499 21.6787 24.4499 20.8787 24.8713L20.8573 24.8856C20.5216 25.0641 20.3002 25.307 20.193 25.6713C20.093 26.0141 20.043 26.3856 20.0359 26.7856C20.0285 27.7414 20.0929 28.6965 20.2287 29.6427C20.3145 30.2713 20.4573 30.8856 20.7573 31.4356H21.0145C20.8162 31.1185 20.6714 30.771 20.5859 30.407L20.5359 30.2213C20.4859 30.0284 20.443 29.8356 20.4145 29.6499C20.3182 29.0515 20.2562 28.4481 20.2287 27.8427C20.2145 27.3856 20.2216 26.9141 20.2573 26.457C20.293 26.0784 20.4002 25.6499 20.5859 25.3499C20.6645 25.2141 20.8073 25.0999 21.0073 24.9927C21.8145 24.5641 22.9073 23.957 23.2645 23.0999C23.2689 23.0921 23.275 23.0854 23.2825 23.0805C23.2899 23.0755 23.2984 23.0724 23.3073 23.0713L23.5216 23.0213C25.0359 22.7356 26.5502 22.457 28.0645 22.1927C29.1521 22.0047 30.2488 21.8735 31.3502 21.7999L31.4145 21.2641C31.4145 21.257 31.4145 21.2499 31.4002 21.2499C30.9716 21.3213 30.5859 21.2856 30.2359 21.1499C30.1371 21.1206 30.0469 21.0676 29.9734 20.9953C29.9 20.9231 29.8454 20.8339 29.8145 20.7356C29.7073 20.3641 29.9859 20.0784 30.3002 19.9427C30.6573 19.7856 31.0359 19.7141 31.4216 19.7284V19.0999C28.8309 19.6919 26.1999 20.0906 23.5502 20.2927V20.2641L23.5573 20.257C26.1572 19.6256 28.7835 19.1084 31.4287 18.707V18.657L31.2716 17.6713C31.2687 17.6649 31.2637 17.6599 31.2573 17.657H31.2359C30.7859 17.8999 30.243 18.0499 29.7645 17.9641C29.6664 17.9535 29.5727 17.9176 29.4926 17.8601C29.4125 17.8025 29.3487 17.7251 29.3073 17.6356C29.1502 17.2927 29.3645 16.9641 29.6359 16.757C29.9962 16.4851 30.423 16.3148 30.8716 16.2641C30.8777 16.259 30.8823 16.2523 30.8848 16.2448C30.8874 16.2372 30.8877 16.2291 30.8859 16.2213L30.4716 15.1784C30.4699 15.171 30.4663 15.1642 30.4611 15.1587C30.4559 15.1531 30.4494 15.1491 30.4421 15.1469C30.4349 15.1447 30.4272 15.1445 30.4198 15.1463C30.4124 15.1481 30.4056 15.1518 30.4002 15.157C28.0826 16.6668 25.646 17.9855 23.1145 19.0999L23.1002 19.0856V19.0713C25.3859 17.5713 27.7716 16.157 30.243 14.8499C30.2787 14.8284 30.2859 14.7999 30.2645 14.7641C30.093 14.4284 29.9073 14.0927 29.693 13.7784C29.6787 13.7427 29.6573 13.7427 29.6359 13.7784C29.2978 14.2732 28.8016 14.6384 28.2287 14.8141C27.6145 14.9713 27.2502 14.4284 27.5287 13.8999C27.8285 13.3548 28.3082 12.9306 28.8859 12.6999L28.9002 12.6856C28.9011 12.6806 28.9009 12.6754 28.8997 12.6705C28.8984 12.6656 28.8962 12.661 28.893 12.657C28.6287 12.3356 28.343 12.0141 28.0216 11.6999C28.0073 11.6856 27.993 11.6856 27.9787 11.6999C26.2589 14.0002 24.3473 16.1507 22.2645 18.1284C23.9856 15.8187 25.8187 13.5946 27.7573 11.4641C27.7571 11.4569 27.755 11.4498 27.7512 11.4435C27.7475 11.4373 27.7422 11.4321 27.7359 11.4284C27.4181 11.1481 27.0868 10.8834 26.743 10.6356H26.7359L26.7287 10.6499C26.5995 11.3156 26.2405 11.9148 25.7145 12.3427C25.5716 12.4499 25.4145 12.5284 25.2287 12.5141C24.8287 12.4784 24.6359 12.1284 24.6859 11.7499C24.8188 11.0578 25.1998 10.4381 25.7573 10.007C25.7593 10.0025 25.7603 9.99763 25.7603 9.99272C25.7603 9.9878 25.7593 9.98294 25.7573 9.97843L25.743 9.97129C25.3059 9.72004 24.8525 9.49812 24.3859 9.307C24.3814 9.30754 24.3772 9.30911 24.3735 9.3116C24.3697 9.31408 24.3667 9.3174 24.3645 9.32129C23.5367 12.1109 22.4684 14.8235 21.1716 17.4284C21.1073 17.5499 21.1002 17.5499 21.143 17.4141C21.9905 14.6245 22.9751 11.8783 24.093 9.18557C24.0912 9.18065 24.0884 9.17618 24.0847 9.17248C24.081 9.16877 24.0765 9.16593 24.0716 9.16415C23.6287 8.99986 23.1645 8.857 22.693 8.73557C22.6716 8.73557 22.6645 8.73558 22.6645 8.76415C22.8164 9.48621 22.6968 10.2389 22.3287 10.8784C22.1359 11.1713 21.8859 11.2713 21.5787 11.1856C21.0287 11.0284 21.0787 10.007 21.1716 9.62843C21.2573 9.29272 21.393 8.94272 21.6002 8.57129H20.0145C20.191 11.4837 20.1241 14.4057 19.8145 17.307L19.8073 17.2927L19.7573 16.3856L19.6859 14.9427C19.6359 12.8213 19.6359 10.6927 19.7002 8.57129H19.7145ZM20.8787 12.9999C21.0644 12.6186 21.2768 12.251 21.5145 11.8999V11.907C21.6002 12.207 21.6645 12.5284 21.7216 12.8641C21.8073 13.3641 21.793 13.8856 21.4787 14.3213C21.4216 14.407 21.3359 14.4641 21.243 14.4856C20.9859 14.5356 20.8073 14.3856 20.743 14.1427C20.6522 13.7577 20.7002 13.3529 20.8787 12.9999ZM18.9502 12.9141C19.1502 13.3141 19.2073 13.7213 19.1145 14.1284C19.0859 14.2784 19.0002 14.4356 18.843 14.4784C18.6573 14.5284 18.4859 14.4784 18.3716 14.3141C18.1205 13.9173 18.031 13.4393 18.1216 12.9784C18.1716 12.6284 18.243 12.2784 18.3359 11.9356C18.343 11.8999 18.3573 11.8927 18.3787 11.9284C18.5859 12.2427 18.7716 12.5713 18.9502 12.9141ZM15.4502 14.1284C15.5502 14.557 15.7359 14.9427 16.0716 15.2141C16.4002 15.4856 16.8287 15.3141 16.7859 14.857C16.729 14.4597 16.5374 14.0941 16.243 13.8213C15.9511 13.5343 15.6384 13.2692 15.3073 13.0284C15.2859 13.007 15.2716 13.0141 15.2787 13.0427C15.3145 13.3999 15.3716 13.7713 15.4502 14.1284ZM23.0787 14.8427C23.1145 14.4141 23.3859 14.0213 23.7002 13.7356C23.978 13.4824 24.2689 13.244 24.5716 13.0213L24.5787 13.0356V13.0499C24.543 13.4356 24.4859 13.8141 24.4002 14.1784C24.3151 14.604 24.0792 14.9845 23.7359 15.2499C23.5645 15.3784 23.3073 15.3856 23.1716 15.2213C23.1325 15.1685 23.1041 15.1085 23.0882 15.0448C23.0723 14.9811 23.0691 14.9148 23.0787 14.8499V14.8427ZM14.8787 16.2713C14.6287 15.807 14.2287 15.557 13.7502 15.3641C13.4787 15.257 13.2002 15.157 12.9287 15.0713C12.8716 15.0499 12.8573 15.0713 12.8787 15.1213C13.0359 15.4427 13.2002 15.7427 13.3787 16.0356C13.6287 16.4427 14.093 16.9141 14.5787 16.9141C14.9216 16.907 15.0145 16.5356 14.8787 16.2713ZM25.8359 15.4856C26.1859 15.3284 26.5502 15.1856 26.9502 15.0641C26.993 15.057 27.0073 15.0641 26.9859 15.107C26.8287 15.4356 26.6573 15.7499 26.4787 16.0356C26.2359 16.4284 25.7502 16.9427 25.2573 16.907C24.9287 16.8856 24.8502 16.5356 24.9787 16.2784C25.1573 15.9356 25.443 15.6784 25.8359 15.4927V15.4856ZM19.4287 16.6641C19.4911 16.4318 19.4735 16.1853 19.3787 15.9641C19.2495 15.6925 19.094 15.4341 18.9145 15.1927C18.9116 15.1924 18.9088 15.1928 18.9062 15.1941C18.9037 15.1954 18.9016 15.1974 18.9002 15.1999C18.843 15.4641 18.8002 15.7284 18.7787 15.9856C18.7645 16.2141 18.8073 16.4284 18.9145 16.6427C18.993 16.807 19.1573 16.907 19.3359 16.7927C19.3859 16.7641 19.4216 16.7213 19.4287 16.6641ZM20.9573 15.2141C21.0287 15.507 21.0716 15.7927 21.0787 16.0713C21.0859 16.2856 21.0359 16.4999 20.9287 16.6856C20.8002 16.8999 20.4716 16.8999 20.4216 16.6141C20.3716 16.3284 20.4145 16.0641 20.5502 15.8213C20.6716 15.5999 20.793 15.3927 20.9216 15.207C20.9359 15.1784 20.9502 15.1856 20.9573 15.2141ZM17.9573 17.1141C17.9787 16.5999 17.3502 16.1499 16.9787 15.8999C16.9769 15.8986 16.9749 15.8979 16.9727 15.8976C16.9705 15.8973 16.9683 15.8975 16.9663 15.8982C16.9642 15.8989 16.9623 15.9 16.9608 15.9016C16.9592 15.9031 16.958 15.9049 16.9573 15.907V15.9141L16.9645 15.9713C17.0359 16.457 17.143 17.1641 17.6287 17.357C17.8002 17.4284 17.9573 17.2784 17.9645 17.1141H17.9573ZM22.043 17.3499C21.6859 17.1427 22.0716 16.5784 22.2573 16.3999C22.4551 16.2233 22.6652 16.061 22.8859 15.9141C22.8636 16.221 22.8012 16.5236 22.7002 16.8141C22.6287 17.007 22.3073 17.4999 22.043 17.3499ZM16.7073 17.957C16.5716 17.7427 16.3859 17.5856 16.143 17.4784C15.9115 17.3793 15.6727 17.2981 15.4287 17.2356C15.4073 17.2284 15.393 17.2356 15.4073 17.257C15.5287 17.5141 15.6716 17.757 15.8359 17.9713C15.9859 18.1641 16.1645 18.2927 16.3716 18.3641C16.6502 18.4499 16.8645 18.2213 16.7073 17.957ZM23.6145 17.5284C23.8645 17.3999 24.1502 17.307 24.4216 17.2356C24.4573 17.2213 24.4645 17.2356 24.4502 17.2641C24.2359 17.707 23.9573 18.207 23.4859 18.3641C23.3145 18.4213 23.093 18.3499 23.1073 18.1356C23.1216 17.8856 23.4002 17.6356 23.6145 17.5284ZM13.7359 18.5713C13.7287 18.2713 13.2787 17.9999 13.043 17.9284C12.4625 17.7662 11.8562 17.7177 11.2573 17.7856C11.2558 17.7869 11.2546 17.7886 11.2537 17.7904C11.2529 17.7923 11.2525 17.7943 11.2525 17.7963C11.2525 17.7983 11.2529 17.8003 11.2537 17.8022C11.2546 17.804 11.2558 17.8057 11.2573 17.807C11.647 18.2391 12.1116 18.5973 12.6287 18.8641C12.9216 18.9927 13.743 19.1499 13.7359 18.5784V18.5713ZM26.2502 18.2927C26.8216 17.6927 27.8216 17.7356 28.5859 17.7784C28.6073 17.7784 28.6145 17.7856 28.6002 17.7999C28.2502 18.157 27.9145 18.4427 27.5859 18.6713C27.3002 18.8641 26.993 18.9713 26.6645 18.9856C26.5525 18.9961 26.4396 18.9789 26.3359 18.9356C26.0787 18.8141 26.0645 18.4927 26.2502 18.2927ZM15.9645 19.4999C16.0573 19.1427 15.4502 18.9641 15.2145 18.9499C14.9383 18.9329 14.6613 18.9377 14.3859 18.9641V18.9784L14.393 18.9856L14.4002 18.9927C14.7645 19.3284 15.243 19.7784 15.7787 19.6784C15.8787 19.6641 15.9359 19.607 15.9645 19.4999ZM24.6859 19.5713C24.5216 19.6641 24.1502 19.7641 23.9716 19.6284C23.8073 19.4856 23.8859 19.2784 24.0359 19.1713C24.2145 19.0427 24.4073 18.9713 24.6216 18.9499C24.905 18.9295 25.1896 18.9367 25.4716 18.9713C25.2287 19.2213 24.9716 19.4213 24.6859 19.5784V19.5713ZM11.9145 20.3427C11.543 20.4141 11.1645 20.507 10.7859 20.6356C10.7573 20.6427 10.7573 20.657 10.7859 20.6713C11.093 20.8427 11.4073 21.007 11.7287 21.1499C12.1502 21.3356 12.6645 21.4213 13.1145 21.257C13.3216 21.1856 13.4573 20.9141 13.3359 20.7213C13.2695 20.6064 13.1699 20.5142 13.0502 20.457C12.7073 20.307 12.3359 20.2641 11.9145 20.3427ZM29.0573 20.6784C28.5837 20.9862 28.0587 21.2064 27.5073 21.3284C27.2573 21.3713 26.8787 21.3499 26.6502 21.1999C26.6072 21.1713 26.5706 21.1343 26.5425 21.091C26.5143 21.0478 26.4953 20.9993 26.4867 20.9485C26.478 20.8976 26.4797 20.8456 26.4919 20.7954C26.504 20.7453 26.5263 20.6982 26.5573 20.657C26.8573 20.2999 27.5073 20.2641 27.9502 20.3427C28.2787 20.3999 28.6502 20.4999 29.0502 20.6284C29.093 20.6356 29.093 20.657 29.0502 20.6784H29.0573ZM14.093 20.9999L14.5573 21.2213C14.843 21.357 15.4573 21.5284 15.693 21.2499C15.8002 21.1213 15.7859 20.9999 15.6502 20.8927C15.2716 20.5784 14.6002 20.7999 14.1645 20.9356L14.093 20.9641C14.0645 20.9641 14.0645 20.9856 14.093 20.9999ZM25.3073 21.2141C25.0002 21.3713 24.5002 21.4999 24.2073 21.2856C24.0359 21.1641 24.0787 20.9713 24.2359 20.8713C24.6573 20.5856 25.3073 20.807 25.7502 20.957C25.793 20.9713 25.793 20.9927 25.7502 21.007L25.3145 21.2213L25.3073 21.2141Z" fill="#2A376C"/>
<path d="M8.57129 22.0361L9.98557 22.1718C11.3999 22.3076 12.7999 22.5433 14.1856 22.879C14.9499 23.0647 15.6641 23.3076 16.3284 23.6218C16.8999 23.8861 17.4284 24.279 17.9141 24.7933C18.2499 25.1504 18.4713 25.579 18.5927 26.0718C18.7641 26.7718 18.8284 27.4433 18.7927 28.0718L18.707 29.029C18.6784 29.2433 18.6284 29.4861 18.5713 29.7004C18.5356 29.8861 18.4499 30.0933 18.3284 30.329C18.1284 30.7076 17.8141 31.0076 17.3927 31.2361C17.3652 31.2473 17.3345 31.2473 17.307 31.2361L17.1499 31.2004H17.1427L17.1356 31.1861V31.1718H17.1427C17.8999 30.8647 18.2713 30.3004 18.4284 29.5504C18.657 28.4576 18.6713 27.3933 18.4641 26.3576C18.3867 25.8754 18.1793 25.4235 17.8641 25.0504C17.6019 24.764 17.3151 24.5011 17.007 24.2647C16.3342 23.8053 15.5877 23.4647 14.7999 23.2576C13.4007 22.8637 11.9723 22.5819 10.5284 22.4147C10.1927 22.3718 9.86415 22.3576 9.54272 22.3147C9.23557 22.2718 8.93558 22.2433 8.64272 22.2433C8.63445 22.243 8.62633 22.241 8.61893 22.2373C8.61154 22.2336 8.60503 22.2283 8.59986 22.2218C8.58372 22.1986 8.57388 22.1715 8.57129 22.1433V22.0361ZM22.057 24.5718C22.9716 23.9238 23.9949 23.4448 25.0784 23.1576C25.9856 22.8933 26.907 22.6861 27.8499 22.5218C28.9825 22.3256 30.1245 22.1874 31.2713 22.1076C31.2784 22.1076 31.2856 22.1147 31.2856 22.129C31.2856 22.179 31.2784 22.2218 31.2641 22.2647C31.2641 22.279 31.2499 22.2861 31.2356 22.2861C30.7499 22.3576 30.2499 22.3647 29.7713 22.429C29.4713 22.479 29.1641 22.5004 28.8641 22.5433C27.9927 22.6647 27.1427 22.829 26.307 23.0147C25.5213 23.1933 24.7141 23.4433 23.8927 23.7433C23.2912 23.9623 22.7236 24.2653 22.207 24.6433C21.8547 24.896 21.5616 25.2225 21.3482 25.5999C21.1348 25.9774 21.0062 26.3968 20.9713 26.829C20.8423 27.7804 20.9578 28.7489 21.307 29.6433C21.557 30.2861 21.9784 30.8076 22.5641 31.2004C22.5927 31.2218 22.5927 31.229 22.557 31.2361L22.357 31.279C22.3213 31.279 22.2927 31.279 22.2641 31.2576C21.6768 30.8687 21.2426 30.288 21.0356 29.6147C20.7369 28.6612 20.6635 27.6514 20.8213 26.6647C20.874 26.2501 21.0109 25.8507 21.2233 25.4908C21.4358 25.131 21.7195 24.8183 22.057 24.5718Z" fill="#2A376C"/>
<path d="M17.9284 29.6933C17.6927 30.2862 17.2856 30.7147 16.6998 30.979C16.6057 31.0233 16.4978 31.0285 16.3998 30.9933C14.5188 30.3812 12.8247 29.2998 11.4775 27.8514C10.1303 26.4029 9.17434 24.6351 8.69984 22.7147C8.6927 22.6862 8.69984 22.6719 8.72841 22.6719C9.80698 22.7004 10.857 22.7719 11.8713 22.879C12.7284 22.9719 13.5784 23.1504 14.407 23.4004C15.4641 23.7219 16.4213 24.2219 17.2641 24.8862C17.807 25.3147 18.1213 25.8862 18.207 26.6004C18.2427 26.9362 18.2784 27.2433 18.2927 27.5433C18.3427 28.2076 18.2213 28.9219 17.9213 29.6862L17.9284 29.6933ZM30.3998 24.8862C29.7219 26.3295 28.7536 27.6174 27.5552 28.6695C26.3569 29.7215 24.9545 30.5151 23.4356 31.0004C23.4165 31.0057 23.3966 31.0072 23.377 31.0047C23.3574 31.0023 23.3384 30.996 23.3213 30.9862C22.8306 30.7606 22.4071 30.411 22.0927 29.9719C21.7483 29.4877 21.521 28.9302 21.4284 28.3433C21.2951 27.5583 21.3841 26.7517 21.6856 26.0147C21.907 25.4862 22.207 25.1433 22.6856 24.7933C23.4027 24.2735 24.2018 23.8776 25.0498 23.6219C26.0732 23.305 27.1306 23.1108 28.1998 23.0433C29.1799 22.9482 30.1609 22.8624 31.1427 22.7862C31.1446 22.7894 31.1456 22.7931 31.1456 22.7969C31.1456 22.8006 31.1446 22.8043 31.1427 22.8076C30.9641 23.5219 30.7141 24.2219 30.3998 24.879V24.8862Z" fill="#A52440"/>
</g>
<circle cx="20" cy="20" r="19.5" stroke="black" stroke-opacity="0.05"/>
<defs>
<clipPath id="clip0_9_397905">
<rect width="24" height="24" fill="white" transform="translate(8 8)"/>
</clipPath>
</defs>
</svg>
