<svg width="40" height="40" viewBox="0 0 40 40" fill="none" xmlns="http://www.w3.org/2000/svg">
<circle cx="20" cy="20" r="20" fill="#F6F8FA"/>
<circle cx="20" cy="20" r="19.5" stroke="black" stroke-opacity="0.05"/>
<g clip-path="url(#clip0_9_394843)">
<path d="M6.71637 13.9093H5.00586V13.5166H9.31423L13.3149 19.2617C14.9838 21.7331 14.9631 21.6727 15.622 22.7507V13.9093H13.8907V13.5166H17.8101V13.9093H16.0959V26.5965H15.622L7.19025 14.2812V26.2038H8.92153V26.5965H5.00586V26.2038H6.71637V13.9093Z" fill="#CE0E2D"/>
<path fill-rule="evenodd" clip-rule="evenodd" d="M29.5708 26.7891H29.0969L26.9333 20.9666L24.7697 26.7891H24.2939L19.5947 13.9093H18.4619V13.5166H30.7866V13.9093H29.567L28.0812 17.9288L30.1428 23.6381L33.3392 13.9131H31.4852V13.5166H34.9912V13.9093H33.898L29.5708 26.7891ZM26.601 13.9074L27.7961 17.1434L28.9912 13.9074H26.601ZM21.8999 13.9074L25.4059 23.6343L26.6822 20.2L24.309 13.9074H21.8999Z" fill="#003DA6"/>
</g>
<defs>
<clipPath id="clip0_9_394843">
<rect width="30" height="13.2914" fill="white" transform="translate(5 13.5)"/>
</clipPath>
</defs>
</svg>
