<svg width="40" height="40" viewBox="0 0 40 40" fill="none" xmlns="http://www.w3.org/2000/svg">
<circle cx="20" cy="20" r="20" fill="#F6F8FA"/>
<g clip-path="url(#clip0_9_391566)">
<path d="M9.51933 17H9.69103L9.81289 17.0637L9.89043 17.1523L9.92089 17.2382L9.92643 17.3379L9.91258 17.4126L9.87935 17.4902L9.76027 17.6508L9.49718 17.9527L9.2424 18.2767L8.99592 18.6256L8.75776 18.9967L8.32574 19.7306L7.92972 20.47L7.56693 21.2122L7.24015 21.9599L7.18476 22.0596L7.11276 22.1233L7.05183 22.151L6.9826 22.1649L6.79982 22.1482L6.71951 22.1233L6.65027 22.0873L6.59766 22.043L6.55888 21.9849L6.5395 21.9267L6.53396 21.8602V21.683L6.50627 21.4919L6.38995 20.9879L6.32626 20.7386L6.26256 20.4257L6.21548 20.0768L6.18225 19.6835L6.1601 19.1933L6.15179 19.1601L6.12963 19.1878L5.49268 20.3952L4.88619 21.5888L4.84188 21.6968L4.81419 21.8076L4.80311 21.9904V22.0181L4.77818 22.0984L4.72557 22.1676L4.64525 22.2286L4.55663 22.2646L4.45417 22.2812H4.34616L4.23262 22.2618L4.11354 22.223L4.0443 22.1732L4.01938 22.1316L4.0083 22.0818L4.01938 21.9516L4.07753 21.7855L4.17723 21.5999L4.73664 20.6639L5.14928 19.9355L5.50653 19.2598L5.81116 18.6284L5.87208 18.4595L5.89701 18.3265L5.90531 18.1881L5.91362 18.1465L5.93578 18.1105L5.96901 18.0828L6.01055 18.069L6.20718 18.0634L6.38995 18.1022L6.52842 18.177L6.57827 18.2241L6.61704 18.2822L6.64197 18.3459L6.65304 18.4179L6.74443 19.7527L6.78597 20.1377L6.84967 20.5171L6.9189 20.8217L7.00475 21.1236L7.03245 21.1651L7.06568 21.1291L7.46447 20.29L7.89095 19.4592L8.34512 18.6367L8.82699 17.8225L8.90177 17.7006L9.07347 17.4265L9.22024 17.2382L9.36979 17.1025L9.53041 17.0111L9.51933 17Z" fill="#0E0D0C"/>
<path d="M32.3583 20.5502L32.6574 20.4283L32.9288 20.3646L33.0479 20.3535L33.167 20.3591L33.275 20.3785L33.3802 20.4145L33.5214 20.4975L33.5741 20.5529L33.6073 20.6139L33.6294 20.7025V20.7939L33.6017 20.8936L33.5519 21.0071L33.4771 21.1262L33.3802 21.248L33.2722 21.3588L33.1614 21.4502L33.0839 21.5111L33.0645 21.5471L33.1033 21.5554L33.2002 21.5388L33.563 21.4364L33.9147 21.3117L34.2525 21.165L34.5793 20.9988L34.931 20.7856L35.2661 20.5446L35.3963 20.4255L35.4877 20.2981L35.5098 20.2732L35.5431 20.2649L35.6317 20.2732L35.7175 20.2954L35.8034 20.3369L35.8782 20.3923L35.9363 20.456L35.9779 20.528L36 20.5972V20.6692L35.9834 20.7357L35.9446 20.7994L35.8892 20.8576L35.8145 20.9129L35.4351 21.1345L35.0529 21.3339L34.6707 21.5139L34.2886 21.6718L33.9036 21.8075L33.5187 21.921L33.1337 22.0124L32.746 22.0816L32.5245 22.1038L32.3389 22.0899L32.2004 22.0428L32.1506 22.0068L32.1091 21.9625L32.0731 21.885L32.0647 21.8047L32.0841 21.7327L32.1229 21.669L32.1866 21.6081L32.2614 21.561L32.458 21.4391L32.6325 21.2951L32.7792 21.129L32.9039 20.9406V20.9323L32.9011 20.9074L32.8789 20.8991L32.7128 20.9185L32.5688 20.949L32.4358 20.9933L32.3085 21.0514L32.1866 21.129L32.0703 21.2259L31.8875 21.417L31.7213 21.6274L31.5718 21.8573L31.4389 22.1065L31.1869 22.6604L30.9598 23.2198L30.7576 23.7875L30.5831 24.3636L30.5278 24.563L30.4834 24.671L30.417 24.7568L30.3505 24.8094L30.273 24.8454L30.1871 24.8676L30.0957 24.8731L29.9794 24.851L29.8908 24.7928L29.8382 24.6987L29.8243 24.5713L29.852 24.4051L29.9157 24.2279L31.2949 21.2813L31.3004 21.248L31.2672 21.2563L30.6053 21.6108L30.104 21.8407L29.6443 21.9985L29.42 22.0539L29.2095 22.0899H29.0378L28.8828 22.0567L28.7581 21.9875L28.6667 21.885L28.6307 21.8075L28.6114 21.7188V21.6274L28.6252 21.5277L28.7027 21.3007L28.8301 21.0736V21.0486L28.8163 21.032H28.808L28.5227 20.9933L28.2569 20.9074L28.0935 20.8243L27.9384 20.7191L27.9052 20.7108L27.8775 20.7274L27.7639 20.8769L27.6393 21.0071L27.5064 21.1207L27.3624 21.2148L27.1768 21.3034L26.9747 21.3671L26.7586 21.4059L26.5288 21.417L26.2823 21.3893L26.0663 21.3145L26.0331 21.309L26.0082 21.3311L25.8586 21.5499L25.6952 21.7354L25.5124 21.8905L25.3158 22.0096L25.3047 22.0152L25.1053 22.0927L24.9115 22.1232L24.737 22.1038L24.6013 22.0345L24.5293 21.9625L24.4739 21.8684L24.4352 21.7576L24.4158 21.6219L24.4047 21.5942L24.3742 21.5998L23.7982 21.8767L23.5434 21.9792L23.2997 22.0622L23.0671 22.1232L22.8511 22.1647L22.6378 22.1869H22.4384L22.2889 22.173L22.1532 22.1425L22.0313 22.0955L21.9206 22.0318L21.8015 21.9321L21.7073 21.8213L21.6492 21.7244L21.6049 21.6191L21.5716 21.5028L21.5522 21.381V21.104L21.6076 20.7939L21.7129 20.4477L21.868 20.0738L22.0757 19.6695L22.3387 19.2236L22.5049 18.9716L22.6794 18.7335L22.8622 18.5091L23.056 18.2987L23.2194 18.1464L23.3966 18.0079L23.5739 17.8971L23.7456 17.814L23.9117 17.7614L24.0641 17.7393L24.2053 17.7448L24.341 17.7836L24.4767 17.8639L24.5764 17.9553L24.6567 18.0577L24.737 18.2156L24.7841 18.3984L24.7979 18.5978L24.7786 18.8165L24.7232 19.0575L24.6345 19.3095L24.5127 19.5698L24.3659 19.8191L24.2745 19.9298L24.1693 20.0157L24.0585 20.06H23.9561L23.8896 20.0406L23.8259 19.9963L23.7567 19.9187L23.7096 19.8329L23.6819 19.7083L23.6902 19.5698L23.7013 19.5421L23.7234 19.5172L23.8508 19.4036L23.9754 19.2679L24.0779 19.1295L24.1582 18.991L24.2108 18.8581L24.2358 18.7418V18.631L24.2081 18.5258L24.1471 18.4261L24.0807 18.3734L24.0059 18.3596L23.9256 18.3707L23.8342 18.4094L23.729 18.4759L23.4853 18.6891L23.2332 18.9772L22.8871 19.4756L22.5603 20.0268L22.4357 20.276L22.3304 20.528L22.2529 20.7579L22.203 20.9656L22.1837 21.14L22.192 21.284L22.228 21.4004L22.2944 21.4917L22.3304 21.5222L22.4301 21.5693L22.5548 21.5998L22.6905 21.6053L22.8317 21.5914L23.0449 21.5471L23.416 21.4419L23.7788 21.309L24.1361 21.1456L24.4878 20.9517L24.5985 20.8659L24.7204 20.7329L24.8367 20.6083L24.9392 20.528L25.0555 20.4615L25.1773 20.4117L25.3795 20.3646L25.5955 20.3535L25.7174 20.3729L25.8254 20.4172L25.9029 20.4726L25.9694 20.5474L26.0275 20.6388L26.0746 20.7496L26.094 20.7828L26.1245 20.8049L26.3017 20.8631L26.4706 20.8936L26.634 20.8991L26.7919 20.8769L26.922 20.8354L27.0467 20.7745L27.1657 20.6942L27.2821 20.5945L27.3873 20.4671L27.4538 20.3258L27.4787 20.1763L27.4648 20.0157V19.988L27.487 19.9714L27.6365 19.9187L27.7805 19.9077L27.8719 19.9243L27.8886 19.9298L28.0049 19.9991L28.1267 20.1403L28.2043 20.2345L28.2901 20.3203L28.3815 20.3923L28.4784 20.4477L28.5781 20.4892L28.6889 20.5169L28.8052 20.528L28.9271 20.5225L29.0545 20.5003L29.2234 20.4726H29.3674L29.4837 20.5059L29.564 20.5668L29.6083 20.6471L29.6249 20.7579L29.6166 20.8382L29.5834 20.9268L29.4339 21.1345L29.2982 21.3173L29.2372 21.4668V21.4779L29.2566 21.5333L29.312 21.5527L29.5474 21.5084L29.7828 21.4281L30.2896 21.1982L30.7604 20.9434L31.1924 20.6637L31.5857 20.3563L31.6438 20.2954L31.6881 20.2289L31.7269 20.1043V19.9603L31.738 19.9187L31.774 19.8966L31.9734 19.8717L32.1534 19.8911L32.2918 19.9547L32.3445 20.0018L32.386 20.06L32.4165 20.1514V20.2594L32.3832 20.3757L32.3195 20.5086L32.3057 20.5529L32.35 20.5446L32.3583 20.5502ZM25.1469 21.525L25.2798 21.4281L25.4017 21.3007L25.4764 21.1816L25.5069 21.0736L25.4903 21.0348L25.4515 21.0237L25.4404 21.0293L25.1413 21.212L25.0167 21.3117L24.9115 21.417L24.8838 21.4751L24.8949 21.5361L24.9115 21.5554L24.9309 21.5637L25.0139 21.5693L25.0915 21.5554L25.1441 21.5333L25.1469 21.525Z" fill="#0E0D0C"/>
<path d="M9.65206 21.1071L9.59944 21.1458V21.2123L9.6576 21.3314L9.73514 21.4338L9.84869 21.5252L9.98716 21.5917L10.1921 21.6415L10.4192 21.6554L10.6573 21.6305L10.9121 21.5695L11.1891 21.4698L11.4771 21.3342L11.7789 21.1597L12.0836 20.9575L12.2331 20.8384L12.3577 20.711L12.4547 20.5781L12.5239 20.4369L12.5433 20.4064L12.5737 20.387L12.7011 20.3538H12.823L12.9393 20.3953L13.0335 20.4701L13.0778 20.5283L13.111 20.5947L13.1332 20.7387L13.1387 20.8883L13.1692 21.1071L13.2273 21.3231V21.3286L13.2605 21.3785L13.3076 21.4117L13.3658 21.4228L13.4239 21.4117L13.4932 21.3674L13.579 21.2815L13.615 21.2428L13.9446 20.8578L14.2049 20.4784L14.288 20.3898L14.3434 20.3593L14.4015 20.3455L14.4763 20.351L14.5483 20.3787L14.6065 20.4258L14.6508 20.4895L14.6785 20.556L14.6978 20.6861V20.7L14.7117 21.1348L14.7394 21.2898L14.7809 21.4228L14.8114 21.4671L14.8585 21.4948L14.9111 21.5003L14.9609 21.4809L14.9803 21.4671L15.3265 21.0988L15.6616 20.6667L15.7862 20.5283L15.9164 20.4535L16.0078 20.4341H16.1047L16.2155 20.4535L16.3484 20.4923L16.5644 20.5421H16.7749L16.9687 20.495L17.157 20.4009L17.3177 20.3261L17.3952 20.3123H17.47L17.6084 20.3621L17.7386 20.4646L17.7912 20.5532L17.7968 20.6307L17.7829 20.6917L17.7331 20.7747L17.65 20.8467L17.5364 20.9049L17.3924 20.952L17.1903 20.9963L16.9909 21.024L16.7915 21.0351L16.5921 21.0295L16.2847 20.988H16.2404L16.1988 21.0046L16.077 21.0932L15.9524 21.2095L15.8416 21.3425L15.6727 21.5557L15.4899 21.744L15.2933 21.9074L15.0828 22.0486L14.9139 22.1179L14.828 22.1317H14.7449L14.6535 22.104L14.5705 22.0625L14.4874 21.9988L14.4126 21.9213L14.3434 21.8216L14.288 21.7136L14.2409 21.5917L14.2104 21.4671L14.1883 21.4255L14.1495 21.456L13.9529 21.6997L13.7286 21.9019L13.5015 22.0431L13.3907 22.0902L13.2744 22.1234H13.147L13.0639 22.0985L12.9891 22.0514L12.9227 21.9822L12.8562 21.8853L12.7953 21.7689L12.7399 21.6305L12.6541 21.3009V21.2926L12.6236 21.2677L12.5876 21.2732L12.1251 21.5585L11.6709 21.7883L11.2223 21.9628L10.782 22.0819L10.5327 22.1179H10.2752L10.0093 22.0902L9.73237 22.0265L9.59944 21.9822L9.48036 21.924L9.37513 21.852L9.28374 21.7689L9.20066 21.6637L9.13419 21.5446L9.08157 21.4089L9.04557 21.2594L9.02896 21.2289L8.99572 21.2178H8.76033L8.56647 21.1791L8.42523 21.1126L8.37539 21.0683L8.33662 21.0129L8.30615 20.9243V20.7664L8.34769 20.639L8.40308 20.5726L8.48062 20.52L8.51109 20.5116L8.54155 20.5227L8.71048 20.6003L8.88218 20.6224L9.06773 20.5975L9.10927 20.5587L9.18404 20.3815L9.26989 20.2153L9.36682 20.0602L9.47482 19.9162L9.59114 19.7888L9.71853 19.6753L9.857 19.5756L10.0038 19.4898L10.1893 19.4067L10.3887 19.3457L10.5936 19.3097L10.8097 19.2959L10.9675 19.307L11.0977 19.343L11.2084 19.4067L11.2888 19.4898L11.3358 19.5756L11.3635 19.6725L11.3691 19.775L11.3525 19.8802L11.3165 19.991L11.2583 20.099L11.1863 20.1959L11.0977 20.2846L10.7847 20.5338L10.4579 20.747L10.1201 20.9271L9.76838 21.0738L9.67976 21.1043L9.65206 21.1071ZM9.75453 20.459L10.109 20.3178L10.3859 20.1766L10.5798 20.0381L10.6435 19.9716L10.6878 19.9052L10.6961 19.8719L10.6878 19.8387L10.6657 19.8138L10.6352 19.8027H10.613L10.4496 19.847L10.2973 19.9079L10.1367 19.9993L9.98716 20.1129L9.84869 20.2486L9.71853 20.4064L9.69637 20.4618L9.7573 20.4563L9.75453 20.459Z" fill="#0E0D0C"/>
<path d="M18.6723 21.5278L18.7055 21.5112L18.6889 21.478L18.4203 21.1789L18.1627 20.8577L18.0215 20.6333L17.9357 20.4035L17.9163 20.2899L17.9107 20.1792L17.9218 20.0739L17.9467 19.9715L17.9938 19.8579L18.0575 19.7527L18.1406 19.6558L18.2403 19.5671L18.3538 19.4924L18.4812 19.4287L18.6225 19.376L18.7775 19.3373L19.1293 19.293L19.409 19.304L19.517 19.329L19.6139 19.3677L19.6887 19.4176L19.7468 19.4841L19.7801 19.5505L19.7994 19.6308L19.7939 19.7388L19.7717 19.8053L19.733 19.869L19.6665 19.9355L19.5834 19.977L19.4754 19.9964L19.3536 19.9908L19.2123 19.9604L18.9991 19.9327L18.7859 19.9465L18.6335 20.0019L18.5809 20.0435L18.5421 20.0961L18.5228 20.1515L18.5117 20.2318L18.52 20.3952L18.5726 20.5641L18.6695 20.7441L18.8135 20.9352L19.3093 21.4946L19.3868 21.6109L19.42 21.7466L19.409 21.8768L19.3536 21.9959L19.3286 22.0263L19.2566 22.09L19.1763 22.1371L19.0545 22.1703H18.9188L17.3513 21.9959L17.2627 21.9793L17.1796 21.9488L17.1048 21.9072L17.0799 21.8796L17.0688 21.8436V21.7771L17.0938 21.6386L17.1713 21.5057L17.2932 21.3921L17.4372 21.3118L17.4676 21.3063L17.4926 21.3201L17.5175 21.3395L17.6283 21.3977L17.847 21.4614L18.0658 21.5029L18.2846 21.5251H18.5006L18.6751 21.5112L18.6723 21.5278Z" fill="#0E0D0C"/>
</g>
<circle cx="20" cy="20" r="19.5" stroke="black" stroke-opacity="0.05"/>
<defs>
<clipPath id="clip0_9_391566">
<rect width="32" height="7.86499" fill="white" transform="translate(4 17)"/>
</clipPath>
</defs>
</svg>
