<svg width="40" height="40" viewBox="0 0 40 40" fill="none" xmlns="http://www.w3.org/2000/svg">
<circle cx="20" cy="20" r="20" fill="white"/>
<g clip-path="url(#clip0_9_386318)">
<path d="M22.5919 15V24.4095L22.5967 24.4177H22.064L20.1206 21.2882L18.1754 24.4177H17.6476L17.646 15H18.1754L20.1206 18.1311L22.064 15H22.5919Z" fill="#7BB1DB"/>
<path d="M17.646 15L17.6476 24.4177H14.7642L17.6427 19.7096L14.7642 15H17.646Z" fill="#958437"/>
<path d="M25.477 15L22.5968 19.7096L25.4754 24.4177H22.5968L22.5919 24.4095V15H25.477Z" fill="#739833"/>
<path fill-rule="evenodd" clip-rule="evenodd" d="M29.5903 15C32.3304 15 32.9935 16.3749 32.9935 18.219V19.3236C32.9935 20.7262 32.3826 22.3357 30.3413 22.3357H25.4753V24.4242L22.5951 19.7162L25.4753 15H29.5903ZM30.299 18.3363C30.299 17.6994 29.9927 17.3377 29.1212 17.3377H25.4786V19.9996H29.3623C30.0383 19.9996 30.299 19.3578 30.299 18.799V18.3363Z" fill="#C9D200"/>
<path d="M17.6427 19.7096L14.7642 24.4177L9.88509 18.7273L9.88672 24.4177H7V15H9.88346L14.7625 20.6904V15H14.7642L17.6427 19.7096Z" fill="#FFB500"/>
</g>
<circle cx="20" cy="20" r="19.5" stroke="black" stroke-opacity="0.05"/>
<defs>
<clipPath id="clip0_9_386318">
<rect width="26" height="9.43233" fill="white" transform="translate(7 15)"/>
</clipPath>
</defs>
</svg>
