<svg width="40" height="40" viewBox="0 0 40 40" fill="none" xmlns="http://www.w3.org/2000/svg">
<circle cx="20" cy="20" r="20" fill="#F6F8FA"/>
<g clip-path="url(#clip0_9_404959)">
<path d="M19.6273 31.9753L8.68106 31.9637V31.3967C8.68106 30.5831 8.7639 29.0703 8.84336 28.4328C8.97624 27.3668 9.44197 25.2804 9.78412 24.2184C10.5086 21.9695 11.655 19.7748 13.1395 17.795C14.3409 16.1927 16.0099 14.4794 17.3606 13.462C19.5799 11.7902 21.3494 10.82 23.6709 10.0019C26.0852 9.15113 28.1744 8.77039 30.8355 8.69618L31.872 8.66727V19.9784C31.872 30.3381 31.8658 31.3026 31.7978 31.4459C31.6327 31.7938 31.2056 32.0232 30.7698 31.9981C30.6618 31.9919 25.6477 31.9816 19.6273 31.9753ZM13.1461 28.2828L13.3056 28.2471L13.3339 27.9299C13.3495 27.7555 13.356 27.6055 13.3484 27.5968C13.3407 27.588 13.2036 27.6136 13.0437 27.6537C12.6799 27.7449 12.1394 27.7475 11.8425 27.6593C11.3305 27.5072 11.0059 27.0439 11.0052 26.464C11.0043 25.824 11.3101 25.355 11.8288 25.201C12.1261 25.1127 12.7245 25.1094 13.0436 25.1943L13.2828 25.258V24.9237V24.5894L13.0208 24.552C12.8767 24.5314 12.5026 24.5145 12.1893 24.5145C11.4433 24.5145 11.0688 24.6261 10.7081 24.9557C10.2461 25.3779 10.0722 25.8314 10.1017 26.5369C10.1167 26.8934 10.1435 27.0257 10.2458 27.2482C10.5054 27.8128 11.029 28.1952 11.7122 28.3191C11.9585 28.3638 12.8893 28.3402 13.1461 28.2828ZM30.2318 28.2148L30.528 28.1588L30.5403 27.2821L30.5527 26.4053L30.1758 26.4053L29.799 26.4053L29.8149 27.0249C29.8255 27.4326 29.8139 27.6616 29.7812 27.6943C29.7538 27.7217 29.5518 27.7523 29.3323 27.7624C28.9622 27.7793 28.9152 27.7711 28.6834 27.6491C28.3348 27.4656 28.1675 27.1913 28.1433 26.7635C28.1282 26.4955 28.143 26.4145 28.2458 26.2045C28.3717 25.9471 28.5664 25.7675 28.8536 25.6435C29.0876 25.5424 29.7183 25.5448 30.0659 25.648C30.2126 25.6916 30.3443 25.7157 30.3584 25.7016C30.3888 25.6712 30.383 25.2201 30.3518 25.1888C30.3006 25.1376 29.946 25.0837 29.48 25.0562C28.7133 25.0109 28.2556 25.1574 27.8282 25.5848C27.5096 25.9034 27.4298 26.1225 27.4298 26.6787C27.4298 27.0691 27.4474 27.1952 27.5257 27.3644C27.7568 27.8638 28.2265 28.1942 28.8422 28.2902C29.0536 28.3232 29.9021 28.2772 30.2318 28.2148ZM15.8254 28.1468C16.1316 28.0272 16.4401 27.7757 16.5816 27.5301C16.8037 27.1449 16.8399 26.5576 16.6758 26.0048C16.5843 25.6967 16.2867 25.3943 15.8901 25.2064C15.595 25.0666 15.5627 25.0613 15.0142 25.0641C14.2791 25.0679 14.0152 25.1585 13.6456 25.5339C13.3072 25.8777 13.2193 26.1476 13.2462 26.7614C13.261 27.1003 13.2887 27.2473 13.3655 27.395C13.5806 27.8084 13.9149 28.0857 14.3431 28.2059C14.6914 28.3037 15.5067 28.2712 15.8254 28.1468ZM14.7636 27.7313C14.374 27.6316 14.0929 27.3562 14.0163 26.999C13.9098 26.5021 14.0023 26.0968 14.2795 25.8464C14.5113 25.6369 14.7253 25.5715 15.1075 25.5931C15.498 25.6151 15.7503 25.7729 15.9189 26.1006C16.1354 26.5212 16.0461 27.2018 15.7373 27.4852C15.5195 27.6851 15.0485 27.8042 14.7636 27.7313ZM17.6567 26.9065V25.5852H18.0607C18.3964 25.5852 18.4842 25.6007 18.5811 25.6769C18.732 25.7955 18.7732 25.9888 18.6901 26.1877C18.6059 26.3892 18.3832 26.4964 18.049 26.4964H17.7944L18.2999 27.3279C18.5778 27.7853 18.8204 28.1757 18.8389 28.1955C18.8573 28.2153 19.0501 28.2256 19.2672 28.2183L19.6619 28.205L19.1611 27.5216C18.8856 27.1457 18.66 26.8252 18.6597 26.8094C18.6593 26.7936 18.7467 26.7586 18.8537 26.7316C19.2788 26.6246 19.5475 26.0754 19.3853 25.6451C19.303 25.4268 19.0667 25.2225 18.8101 25.1479C18.6275 25.0949 18.3844 25.0821 17.7591 25.0928L16.9457 25.1068L16.9463 26.6673L16.9469 28.2278H17.3018H17.6567L17.6567 26.9065ZM20.3995 27.101L20.3858 25.974L20.6546 26.3617C20.8024 26.575 21.145 27.0821 21.4158 27.4886L21.9084 28.2278H22.3568H22.8052V26.6559V25.084H22.4359C22.1026 25.084 22.0695 25.0918 22.0976 25.1638C22.147 25.2904 22.1839 26.7151 22.1467 27.0619L22.113 27.3768L21.8188 26.9252C21.657 26.6769 21.319 26.161 21.0678 25.7788L20.611 25.084L20.1704 25.0841L19.7298 25.0841V26.656V28.2278L20.0715 28.2279L20.4132 28.2279L20.3995 27.101ZM23.8861 26.6559L23.8759 25.0841L23.5034 25.084L23.1308 25.084L23.1312 26.6559L23.1316 28.2278H23.514H23.8964L23.8862 26.6559H23.8861ZM24.8647 27.1002L24.8511 25.9725L25.6053 27.1001L26.3596 28.2278H26.8074H27.2551V26.6559V25.084L26.9096 25.084L26.5641 25.084L26.5794 26.2345C26.5891 26.9637 26.5789 27.3682 26.5514 27.3393C26.5275 27.3143 26.1855 26.7966 25.7914 26.1889L25.0748 25.084H24.6334H24.1921L24.193 26.6559L24.1939 28.2278L24.5361 28.2278L24.8783 28.2279L24.8647 27.1002ZM16.4105 23.9936C17.0412 23.874 17.5794 23.5002 17.8137 23.0191C18.0665 22.5001 18.0705 21.6847 17.8229 21.1453C17.6131 20.6882 17.0372 20.2681 16.4773 20.1636C15.8566 20.0478 15.1247 20.1417 14.6417 20.3991C13.9226 20.7823 13.5861 21.6756 13.8072 22.6137C13.8963 22.9914 14.0059 23.1968 14.2463 23.4364C14.723 23.9116 15.6222 24.1431 16.4105 23.9936ZM15.5609 23.3556C15.0055 23.2435 14.6964 22.8261 14.6589 22.1375C14.6245 21.5064 14.8155 21.1354 15.2992 20.8937C15.9847 20.5511 16.8174 20.8551 17.0415 21.5297C17.1498 21.8558 17.1207 22.4783 16.9848 22.7407C16.7277 23.2371 16.1692 23.4783 15.5609 23.3556ZM29.8727 23.9442C30.2885 23.8288 30.5749 23.46 30.5364 23.0897C30.5079 22.8158 30.3276 22.5807 29.8601 22.2079C29.6389 22.0315 29.4168 21.8349 29.3665 21.7709C29.0817 21.4089 29.5081 21.118 30.0951 21.2739C30.2329 21.3105 30.3497 21.3364 30.3548 21.3313C30.3598 21.3263 30.352 21.2061 30.3373 21.0642C30.319 20.8868 30.2877 20.7972 30.2371 20.7773C30.1966 20.7613 29.9789 20.7372 29.7534 20.7237C29.239 20.693 29.0036 20.7536 28.7617 20.9793C28.5987 21.1313 28.5751 21.1797 28.5568 21.401C28.5286 21.7414 28.6413 21.9485 29.0529 22.3121C29.8454 23.0123 29.9071 23.1005 29.7448 23.3009C29.6146 23.4617 29.3335 23.5022 28.9281 23.4185C28.7378 23.3792 28.5772 23.3534 28.5713 23.3612C28.5654 23.3691 28.5727 23.4882 28.5875 23.626L28.6144 23.8766L28.8877 23.9286C29.24 23.9956 29.6636 24.0023 29.8727 23.9442ZM19.7254 23.4516C19.7942 23.2053 19.9587 22.6602 20.0911 22.2403L20.3317 21.4768L20.4579 21.8794C20.7176 22.7074 20.9834 23.6081 21.0105 23.7513L21.0385 23.8994H21.5082H21.9779L22.009 23.7513C22.1721 22.9765 22.6354 21.0419 22.688 20.916L22.755 20.7556H22.3482C21.9631 20.7556 21.9401 20.7611 21.9194 20.8582C21.9074 20.9145 21.8143 21.3956 21.7127 21.9271C21.611 22.4587 21.5117 22.9372 21.4919 22.9906C21.4645 23.0648 21.4117 22.9321 21.2683 22.4288C21.165 22.0664 21.0249 21.541 20.957 21.2613L20.8335 20.7528L20.3317 20.7656L19.8298 20.7784L19.6354 21.5302C19.5285 21.9437 19.3817 22.4665 19.3092 22.692L19.1773 23.1021L18.9884 22.1225C18.8845 21.5837 18.7866 21.0558 18.7708 20.9493L18.7422 20.7556H18.3331C17.9644 20.7556 17.9264 20.7635 17.9488 20.8354C18.0432 21.1388 18.5685 23.3018 18.6127 23.5691L18.6673 23.8994H19.1338H19.6003L19.7254 23.4516ZM25.1012 23.8273C25.1164 23.7877 25.1289 23.6693 25.1289 23.5643V23.3732L24.3543 23.391L23.5798 23.4088V23V22.5913L23.9215 22.5654C24.1094 22.5512 24.417 22.5512 24.6049 22.5654L24.9466 22.5913V22.3184V22.0455L24.2632 22.0674L23.5798 22.0893V21.6725V21.2557L24.3543 21.2862L25.1289 21.3166V21.1082C25.1289 20.7315 25.2097 20.7557 23.9508 20.7556H22.828V22.3275V23.8994L23.9508 23.8994C24.9326 23.8994 25.077 23.8904 25.1012 23.8273ZM26.0051 22.7992L26.0173 21.6989L26.7463 22.7981L27.4753 23.8972L27.9309 23.8981L28.3866 23.899L28.3939 22.3273L28.4013 20.7556H28.0408H27.6804V21.8781C27.6804 22.978 27.6787 22.9983 27.5963 22.8918C27.55 22.832 27.2197 22.327 26.8622 21.7694L26.2123 20.7556L25.7503 20.7556L25.2884 20.7556V22.3275V23.8994L25.6406 23.8994L25.9929 23.8994L26.0051 22.7992ZM8.00009 19.0357C8.00143 13.7044 8.01934 9.1823 8.03986 8.98661C8.07074 8.69222 8.1005 8.60179 8.21233 8.46265C8.42683 8.19576 8.66584 8.08824 9.14836 8.04155C9.64339 7.99365 25.7642 7.98371 27.8893 8.03L29.3434 8.06167L28.7738 8.11919C26.0515 8.39416 23.2194 9.23832 20.6229 10.5488C15.078 13.3472 11.0319 18.0827 8.98225 24.1728C8.56155 25.4228 8.32878 26.5019 8.14928 28.0342C8.10451 28.4163 8.05207 28.729 8.03276 28.729C8.01343 28.729 7.99873 24.367 8.00009 19.0357Z" fill="#DE222C"/>
</g>
<circle cx="20" cy="20" r="19.5" stroke="black" stroke-opacity="0.05"/>
<defs>
<clipPath id="clip0_9_404959">
<rect width="23.872" height="24" fill="white" transform="translate(8 8)"/>
</clipPath>
</defs>
</svg>
