<svg width="40" height="40" viewBox="0 0 40 40" fill="none" xmlns="http://www.w3.org/2000/svg">
<circle cx="20" cy="20" r="20" fill="#E31E30"/>
<g clip-path="url(#clip0_9_338430)">
<path d="M11.7077 14.926C8.56162 14.926 6 17.4982 6 20.6611C6.00539 21.7888 6.34472 22.8896 6.97517 23.8246C7.60561 24.7597 8.49891 25.487 9.54233 25.9148C10.5857 26.3427 11.7325 26.4518 12.8379 26.2285C13.9433 26.0052 14.9578 25.4594 15.7533 24.6601C16.5488 23.8608 17.0897 22.8437 17.3077 21.7373C17.5258 20.6309 17.4112 19.4846 16.9784 18.4433C16.5456 17.4019 15.814 16.5121 14.8759 15.8861C13.9379 15.2601 12.8355 14.926 11.7077 14.926ZM11.7077 23.6047C10.1338 23.6047 8.80282 22.2376 8.80282 20.6197C8.80282 19.0017 10.1056 17.676 11.7077 17.676C13.3099 17.676 14.6127 18.9964 14.6127 20.6197C14.6127 22.2429 13.2817 23.6047 11.7077 23.6047Z" fill="white"/>
<path d="M26.366 21.9876C25.8756 22.9392 24.8959 23.6047 23.7982 23.6047C22.2242 23.6047 20.8932 22.2376 20.8932 20.6197C20.8932 19.0017 22.1952 17.676 23.7982 17.676C24.3361 17.679 24.8626 17.8312 25.3191 18.1158C25.7756 18.4004 26.1441 18.8061 26.3836 19.2878L28.5781 17.5334C28.0618 16.7341 27.3535 16.0768 26.518 15.6213C25.6825 15.1659 24.7462 14.9269 23.7947 14.926C20.6485 14.926 18.0869 17.4982 18.0869 20.6611C18.09 21.8911 18.4902 23.0873 19.2281 24.0714C19.966 25.0556 21.002 25.7751 22.1819 26.1227C23.3618 26.4704 24.6225 26.4277 25.7761 26.001C26.9298 25.5742 27.9147 24.7862 28.5843 23.7544L26.366 21.9876Z" fill="white"/>
<path d="M29.1812 24.2148V18.0334L31.9998 15.7834V26.4569L29.1812 24.2148Z" fill="white"/>
<path d="M29.1812 15.2077V17.0616L31.9998 14.8011V13L29.1812 15.2077Z" fill="white"/>
</g>
<circle cx="20" cy="20" r="19.5" stroke="black" stroke-opacity="0.05"/>
<defs>
<clipPath id="clip0_9_338430">
<rect width="26" height="13.4569" fill="white" transform="translate(6 13)"/>
</clipPath>
</defs>
</svg>
