<svg width="40" height="40" viewBox="0 0 40 40" fill="none" xmlns="http://www.w3.org/2000/svg">
<circle cx="20" cy="20" r="20" fill="#F6F8FA"/>
<g clip-path="url(#clip0_9_396205)">
<path d="M7.11714 24.4997L6.5 23.6961V16.914L7.11714 16.1426H10.1771L11 16.9397V19.5947C11 19.7876 10.91 19.9804 10.7557 20.0897L9.94571 20.5719C9.86934 20.6289 9.80826 20.704 9.76788 20.7903C9.72751 20.8767 9.7091 20.9717 9.71429 21.0669V23.6961L8.95571 24.4997H7.11714ZM7.78571 17.4283V23.214H8.42857V22.1404C8.42857 21.7933 8.705 21.4654 8.94286 21.2533L9.335 20.8933C9.57286 20.6747 9.71429 20.3469 9.71429 19.9997V17.4283H7.78571ZM11 23.1947V24.4997H14.1179L14.8571 23.6769V21.144C14.8571 20.9061 15.0114 20.6811 15.2043 20.559L15.8343 20.1347C16.0271 20.0061 16.1429 19.7812 16.1429 19.5433V16.9526L15.3714 16.1426H12.2857V21.4911C12.2857 21.6969 12.1379 21.9026 11.9771 22.0311L11.2443 22.6483C11.09 22.7769 11 22.9826 11 23.1947ZM13.5714 23.214H12.2857V22.4297C12.2857 22.1469 12.4014 21.8897 12.6329 21.7419L13.1343 21.4204C13.3657 21.279 13.5714 21.0219 13.5714 20.739V17.4283H14.6129L14.8571 17.7047V20.1347C14.8571 20.4561 14.7286 20.7519 14.4714 20.9319L14.0214 21.2404C13.7643 21.4204 13.5714 21.7161 13.5714 22.0376V23.214ZM16.1429 24.4997V23.1947C16.1429 22.9826 16.2329 22.7833 16.3871 22.6483L17.12 22.0311C17.2807 21.9026 17.4286 21.6969 17.4286 21.4911V16.1426H20.5143L21.2857 16.9526V19.5433C21.2857 19.7876 21.17 20.0061 20.9771 20.1347L20.3471 20.559C20.1543 20.6876 20 20.9061 20 21.144V23.6769L19.2607 24.4997H16.1429ZM17.4286 23.214H18.7143V22.0376C18.7143 21.7161 18.9071 21.4204 19.1643 21.2404L19.6143 20.9319C19.8714 20.7519 20 20.4561 20 20.1347V17.7047L19.7557 17.4283H18.7143V20.739C18.7143 21.0219 18.5086 21.279 18.2771 21.4269L17.7757 21.7483C17.5443 21.8897 17.4286 22.1469 17.4286 22.4297V23.214ZM23.8571 16.1426H22.5714V24.4997H23.8571V16.1426ZM25.7857 16.1426H24.5V17.4283H25.7857V24.4997H27.0714V17.4283H28.3571V16.1426H25.7857ZM29.3214 16.1426H30.7229L31.5714 19.1704L32.7864 16.149H34.1429L32.2143 20.7583V24.4997H30.9286V20.7583L29.3214 16.1426Z" fill="black"/>
<path d="M23.6256 12.2861L22.5713 14.2147H22.9441L22.7899 15.5004L23.857 13.5783H23.4906L23.6191 12.2861H23.6256Z" fill="#4538F8"/>
</g>
<circle cx="20" cy="20" r="19.5" stroke="black" stroke-opacity="0.05"/>
<defs>
<clipPath id="clip0_9_396205">
<rect width="29" height="13" fill="white" transform="translate(6 12)"/>
</clipPath>
</defs>
</svg>
