<svg width="40" height="40" viewBox="0 0 40 40" fill="none" xmlns="http://www.w3.org/2000/svg">
<circle cx="20" cy="20" r="20" fill="#EF4638"/>
<g clip-path="url(#clip0_9_405604)">
<path d="M9.73275 23.5803C9.47046 23.7534 9.15232 23.8208 8.75525 23.7685C7.93439 23.6708 7.77896 23.046 7.80689 22.5876C7.88521 21.0151 8.40857 18.4506 9.074 17.1719C9.244 16.8404 9.47046 16.6073 9.73275 16.4567V15.8411C9.00357 15.9837 8.31689 16.3074 7.67271 16.6911C6.53978 17.3601 5.47121 19.0146 5.42871 20.6393V20.8955C5.521 23.3466 7.31146 24.25 8.86878 24.25C9.15232 24.25 9.44982 24.2124 9.73275 24.1523V23.5803ZM10.6951 16.2242C11.6015 16.2388 11.6865 17.1792 11.6507 17.6006C11.5797 18.473 11.1978 20.2556 10.8651 21.4292C10.5821 22.4444 10.2846 23.2264 9.73275 23.5803V24.1523C10.253 24.0428 10.7588 23.8737 11.2403 23.6483C13.1589 22.7157 14.0507 20.6994 14.0507 18.8865C14.0501 16.7579 12.5991 15.75 10.5749 15.75C10.2919 15.75 10.0084 15.781 9.73275 15.8411V16.4567C10.0084 16.2916 10.3338 16.2242 10.6951 16.2242Z" fill="white"/>
<path d="M22.6078 15.75L22.0274 18.1786H21.702C21.7305 15.8101 19.798 16.2345 19.543 16.2418C17.0161 16.3911 16.2936 22.2829 16.3786 22.7674C16.6269 24.1377 18.5096 24.1304 18.9771 22.7819C19.1817 22.2009 19.3305 21.1615 19.6207 20H18.6189L18.7853 19.3929H23.3935L23.2733 20H21.957L21.2138 23.0357C19.4932 24.5184 14.5031 25.1583 14.1285 21.4189C13.8237 18.3498 16.8886 15.9516 19.3523 15.75C20.1234 15.75 21.2205 15.9066 21.6874 16.5101L22.2266 15.75H22.6091H22.6078ZM23.5914 20.6071H24.0868L23.2235 24.25H22.7281L23.5914 20.6071ZM25.2271 15.75H24.6891L23.8464 19.3929H24.3777L25.2271 15.75ZM24.8567 19.3929L24.7104 20H27.5488L26.4875 23.6429H25.5743L25.4535 24.25H32.6737L33.4878 21.2143H33.2043C32.2207 22.9726 31.1594 23.6508 30.1042 23.6429H28.8869L29.9694 20C31.3428 20.0225 31.5092 20.0698 31.4491 21.2143H31.7107L32.5316 17.9624H32.2207C31.8522 19.3334 30.8261 19.3929 30.4509 19.3929H30.1042L30.8401 16.3571H31.6974C31.7532 16.3571 33.707 16.413 33.7283 18.1786H34.0683L34.571 15.75H27.6483L27.5275 16.3571H28.4261L27.6763 19.3929H24.8567Z" fill="white"/>
</g>
<circle cx="20" cy="20" r="19.5" stroke="black" stroke-opacity="0.05"/>
<defs>
<clipPath id="clip0_9_405604">
<rect width="30" height="10" fill="white" transform="translate(5 15)"/>
</clipPath>
</defs>
</svg>
