<svg width="40" height="40" viewBox="0 0 40 40" fill="none" xmlns="http://www.w3.org/2000/svg">
<circle cx="20" cy="20" r="20" fill="#00AEEF"/>
<g clip-path="url(#clip0_9_411011)">
<path d="M29.7801 18.1989L30.2955 18.7377L23.4315 18.9257L21.2298 18.1989H29.7801ZM28.679 17.048L29.0927 17.4806L23.3144 17.6406L21.3395 17.0486L28.679 17.048ZM27.2572 15.5634L27.671 15.9954L23.0824 16.0783L21.283 15.564L27.2572 15.5634ZM25.9258 14.1726L26.2761 14.5383L22.539 14.6354L21.283 14.1726H25.9258ZM24.2744 12.4469L24.6418 12.8309L22.2932 12.9463L21.2292 12.4469H24.2744ZM23.1732 11.2966L23.491 11.628H21.8052L20.9938 11.2966H23.1732ZM21.5218 9.57086L21.9858 10.0554H21.1001L20.691 9.57086H21.5218ZM20.3201 8.31257L20.4224 8.42H20.0001V8L20.3201 8.31257ZM17.135 11.2966L18.1281 10.296L18.8144 10.2389L20.6921 11.296H17.135V11.2966ZM15.9932 12.4469L16.6572 11.7783L16.659 11.7766H18.5258L20.8115 12.4469H15.9927H15.9932ZM14.2795 14.1726L15.1155 13.3309L17.8972 13.1811L20.8001 14.1726H14.2795ZM13.1378 15.3229L13.7801 14.6754L17.4218 14.5954L20.5715 15.3234H13.1372L13.1378 15.3229ZM11.4241 17.0486L12.239 16.228L17.0047 16.0783L20.7892 17.0486H11.423H11.4241ZM10.271 18.2103L10.9332 17.5434L16.8904 17.4109L20.639 18.2109H10.2704L10.271 18.2103ZM8.66982 19.8234L9.26239 19.2263L16.7938 18.9257L20.6384 19.9251H8.57153L8.66868 19.8234H8.66982ZM9.72068 21.0749L9.21839 20.5691L16.9247 20.3131L20.615 21.0749H9.72068ZM11.4338 22.8006L10.7012 22.0629L17.1515 21.8126L20.411 22.8006H11.4338ZM13.147 24.5263L12.399 23.7726L17.2481 23.504L20.563 24.5263H13.147ZM14.2892 25.6766L13.543 24.9257L17.5172 24.816L20.5075 25.6766H14.2887H14.2892ZM16.0024 27.4023L15.0064 26.3994L17.9047 26.3343L20.3561 27.4023H16.0024ZM17.1372 28.5451L16.3144 27.7166H18.1658L20.1298 28.556L17.1372 28.5457V28.5451ZM18.8572 30.2789L17.8858 29.3006H18.7247L19.8407 30.2789H18.8572ZM19.9601 31.3897L19.0858 30.5086H20.0001V31.4286L19.9601 31.3897ZM31.4207 19.9343L31.4172 19.9309L31.0744 20.2766L23.5915 20.5109L21.2841 19.9257H31.4287L31.4207 19.9343ZM21.143 30.2777L20.7732 30.6503L20.355 30.2783H21.1435L21.143 30.2777ZM22.8527 28.556L22.4241 28.9874H21.5104L20.5292 28.556H22.8527ZM23.9984 27.4017L23.427 27.9771H22.0498L20.9058 27.4023L23.9984 27.4017ZM25.7115 25.676L25.3367 26.0531L22.1681 26.1069L21.0681 25.6766L25.7115 25.676ZM26.8532 24.5257L26.5264 24.8554L22.5904 25.0097L21.0784 24.5257H26.8532ZM28.5664 22.8L28.2235 23.1457L23.0744 23.3606L21.0687 22.8006H28.567L28.5664 22.8ZM30.2801 21.0743L29.8115 21.5469L23.0744 21.8126L21.283 21.0749H30.2801V21.0743ZM18.8572 9.71429H19.3841L19.1327 9.49257L18.8572 9.71429Z" fill="white"/>
</g>
<circle cx="20" cy="20" r="19.5" stroke="black" stroke-opacity="0.05"/>
<defs>
<clipPath id="clip0_9_411011">
<rect width="24" height="24" fill="white" transform="translate(8 8)"/>
</clipPath>
</defs>
</svg>
