<svg width="40" height="40" viewBox="0 0 40 40" fill="none" xmlns="http://www.w3.org/2000/svg">
<circle cx="20" cy="20" r="20" fill="#808080"/>
<g clip-path="url(#clip0_9_406122)">
<path fill-rule="evenodd" clip-rule="evenodd" d="M21.5036 10.0088C24.7989 10.5214 27.5732 12.6565 28.9787 15.5757H24.0994C23.3802 14.8869 22.4865 14.3889 21.5036 14.128V10.0088ZM29.4249 16.6287C29.6033 17.128 29.7451 17.6498 29.8382 18.181H25.7306C25.5522 17.626 25.3067 17.1042 24.9879 16.6287H29.4249ZM29.9655 19.2393C29.9892 19.4856 29.9892 19.7465 29.9892 19.9982C29.9892 20.2684 29.9787 20.5306 29.955 20.7916H25.9406C25.9734 20.5306 25.9879 20.2684 25.9879 19.9982C25.9879 19.7373 25.9734 19.4856 25.9406 19.2393H29.9655ZM29.8251 21.8353C29.7306 22.3571 29.5902 22.8697 29.4249 23.3677H24.9879C25.2936 22.9028 25.5522 22.381 25.7109 21.8353H29.8251ZM28.9931 24.422C27.5837 27.3545 24.8146 29.4896 21.5141 29.9876V25.8684C22.501 25.6075 23.3947 25.1095 24.1099 24.422H28.9931ZM11.0062 24.422H15.8907C16.606 25.1095 17.4984 25.6075 18.4852 25.8684V29.9876C15.186 29.475 12.417 27.3399 11.0062 24.422ZM10.5745 23.3677C10.396 22.8697 10.2687 22.3571 10.1742 21.8353H14.2923C14.4708 22.381 14.7162 22.8936 15.0207 23.3677H10.5745ZM10.0338 20.7916C10.0102 20.5306 10.001 20.2591 10.001 19.9982C10.001 19.7373 10.0102 19.4856 10.0246 19.2393H14.039C14.0023 19.4856 13.9931 19.7465 13.9931 19.9982C13.9931 20.2684 14.0023 20.5306 14.039 20.7916H10.0338ZM10.1611 18.181C10.2556 17.6498 10.396 17.128 10.5745 16.6287H15.0128C14.6926 17.1042 14.4485 17.626 14.2753 18.181H10.1611ZM11.0023 15.5704C12.4117 12.6432 15.1808 10.5068 18.4813 10.0088V14.124C17.4944 14.3849 16.606 14.883 15.8868 15.5704H11.0023Z" fill="white"/>
</g>
<circle cx="20" cy="20" r="19.5" stroke="black" stroke-opacity="0.05"/>
<defs>
<clipPath id="clip0_9_406122">
<rect width="20" height="20" fill="white" transform="translate(10 10)"/>
</clipPath>
</defs>
</svg>
