<svg width="40" height="40" viewBox="0 0 40 40" fill="none" xmlns="http://www.w3.org/2000/svg">
<circle cx="20" cy="20" r="20" fill="#007DC1"/>
<path fill-rule="evenodd" clip-rule="evenodd" d="M21.3028 7.1811L20.7677 13.7694C20.5148 13.74 20.2619 13.7254 20.0024 13.7254C19.6778 13.7254 19.3596 13.7466 19.048 13.7971L18.7445 10.6058C18.738 10.5046 18.8179 10.4165 18.9191 10.4165H19.4608L19.1997 7.18926C19.1932 7.08811 19.2731 7 19.3661 7H21.1364C21.2375 7 21.3175 7.08811 21.3028 7.1811ZM18.5928 13.8771C18.0217 14.0076 17.48 14.2165 16.9808 14.4906L15.6005 11.5945C15.558 11.508 15.6005 11.4004 15.6951 11.3628L16.2074 11.1752L14.8565 8.22858C14.814 8.1421 14.8565 8.03442 14.9511 7.99689L16.6137 7.38995C16.7067 7.35405 16.8078 7.41279 16.8372 7.50579C16.8437 7.50579 18.5928 13.8771 18.5928 13.8771ZM12.7615 9.34131L16.5843 14.7288C16.0997 15.0469 15.6592 15.4222 15.2839 15.8562L12.9916 13.603C12.9198 13.5312 12.9279 13.4154 12.9997 13.3501L13.419 13.0026L11.1414 10.6988C11.0696 10.627 11.0777 10.5111 11.156 10.4459L12.5086 9.31194C12.5869 9.24668 12.6963 9.26136 12.7534 9.34131H12.7615ZM14.9951 16.2168C14.6476 16.672 14.367 17.1778 14.1565 17.7194L11.2376 16.3832C11.143 16.3473 11.1071 16.2315 11.1577 16.145L11.4318 15.6751L8.49821 14.2882C8.41174 14.2458 8.37584 14.1365 8.42642 14.05L9.30747 12.5196C9.35805 12.4331 9.47389 12.4038 9.55384 12.4609L14.9951 16.2168ZM7.392 16.6214C7.40669 16.5202 7.50785 16.4631 7.60085 16.4843L13.9966 18.1534C13.8302 18.6951 13.7372 19.2662 13.7225 19.8584L10.5214 19.5974C10.4202 19.5909 10.3468 19.4962 10.3696 19.3951L10.4626 18.8615L7.23211 18.5581C7.13095 18.5499 7.06732 18.4569 7.08037 18.3558L7.38385 16.6149L7.392 16.6214ZM7.14727 20.9402L13.7307 20.3332C13.76 20.919 13.8759 21.49 14.0554 22.0235L10.9635 22.8769C10.8689 22.8981 10.7677 22.841 10.753 22.7398L10.66 22.2046L7.52253 23.0204C7.42953 23.0433 7.32837 22.9845 7.31369 22.8834L7.00206 21.1425C6.98737 21.0413 7.05264 20.9483 7.15379 20.9402H7.14727ZM8.18169 25.52C8.13111 25.4335 8.167 25.3258 8.25348 25.2818L14.2234 22.451C14.4469 22.9845 14.7504 23.4838 15.111 23.9309L12.4956 25.7941C12.4156 25.8528 12.2998 25.83 12.2492 25.7435L11.9751 25.2671L9.30911 27.1092C9.22916 27.1663 9.11332 27.1385 9.06274 27.0521C9.06274 27.0521 8.17353 25.52 8.18169 25.52ZM16.7589 25.3683L14.938 28.0114C14.8809 28.0995 14.7651 28.1126 14.6851 28.0489L14.2658 27.6949L12.3879 30.338C12.3292 30.418 12.2215 30.4327 12.1415 30.3674L10.7824 29.2335C10.7041 29.1682 10.6959 29.0524 10.7677 28.9806L15.4145 24.2784C15.8126 24.6961 16.2678 25.0648 16.7589 25.3683ZM14.4975 31.826C14.4029 31.7901 14.3605 31.6808 14.4029 31.5944L17.157 25.5853C17.6628 25.8447 18.2126 26.0405 18.7837 26.1482L17.9728 29.2547C17.9516 29.3477 17.8439 29.4064 17.7492 29.3705L17.2369 29.1829L16.3771 32.3106C16.3477 32.4036 16.2466 32.4624 16.1519 32.4248L14.491 31.8195L14.4975 31.826ZM20.0041 26.2787C20.3288 26.2787 20.6469 26.2558 20.9569 26.2053L21.2604 29.3983C21.2685 29.4994 21.1886 29.5859 21.0874 29.5859H20.5458L20.8052 32.8148C20.8199 32.9159 20.7416 33.0024 20.6404 33.0024H18.8685C18.7755 33.0024 18.6956 32.9159 18.7021 32.8148L19.2372 26.2281C19.4901 26.264 19.743 26.2787 20.0041 26.2787ZM22.8512 14.3959C22.3454 14.143 21.8037 13.9472 21.2245 13.833L22.0338 10.7265C22.0631 10.6319 22.1643 10.5748 22.2589 10.6107L22.7712 10.7983L23.6311 7.67058C23.6604 7.57758 23.7616 7.51884 23.8562 7.55474L25.5172 8.16168C25.6118 8.19758 25.6559 8.29873 25.6118 8.39337L22.8512 14.3959ZM29.2404 11.0153L24.5921 15.7175C24.2021 15.2982 23.7551 14.9311 23.2558 14.6276L25.0766 11.9828C25.1354 11.9045 25.2512 11.8817 25.3295 11.9469L25.7489 12.301L27.6284 9.65784C27.6855 9.57789 27.8014 9.5632 27.8732 9.62847L29.2323 10.7624C29.3122 10.8277 29.3122 10.9435 29.2404 11.0153ZM31.7482 14.7206L25.7782 17.553C25.5465 17.0179 25.2512 16.5186 24.889 16.0716L27.5044 14.2083C27.5844 14.143 27.7002 14.1724 27.7508 14.2589L28.0249 14.7288L30.6925 12.8867C30.7725 12.8361 30.8867 12.8574 30.9373 12.9438L31.8265 14.4759C31.877 14.5623 31.8493 14.67 31.7547 14.7141L31.7482 14.7206ZM32.6945 17.1109L32.9979 18.8518C33.0126 18.9529 32.9474 19.0394 32.8462 19.0541L26.2628 19.6675C26.2334 19.0753 26.1176 18.5124 25.9381 17.9772L29.0316 17.1256C29.1246 17.0962 29.2257 17.1614 29.2404 17.2626L29.3351 17.7978L32.4709 16.9803C32.5656 16.9591 32.6667 17.0179 32.6798 17.119L32.6945 17.1109ZM32.391 23.4952L25.9952 21.8261C26.1616 21.2844 26.2563 20.715 26.271 20.1228L29.4721 20.3822C29.5733 20.3969 29.6385 20.4833 29.6238 20.5845L29.5292 21.1196L32.7597 21.4231C32.8609 21.4362 32.9262 21.5226 32.9115 21.6238L32.608 23.3647C32.5933 23.4659 32.4922 23.5246 32.3992 23.5034L32.391 23.4952ZM30.6925 27.4746C30.6419 27.5611 30.5261 27.5823 30.4462 27.5317L25.0049 23.7759C25.3524 23.3206 25.633 22.8149 25.8435 22.2732L28.7624 23.6094C28.857 23.6535 28.8929 23.7612 28.8423 23.8476L28.5682 24.3175L31.5018 25.7044C31.5883 25.7484 31.6242 25.8561 31.5736 25.9426L30.6925 27.4746ZM23.4075 25.2573C23.8921 24.9473 24.3261 24.5639 24.7095 24.1315L27.0003 26.3847C27.0721 26.4565 27.0721 26.5724 26.9921 26.6376L26.5728 26.9835L28.8505 29.2889C28.9157 29.3607 28.9157 29.4766 28.8358 29.5402L27.4848 30.6758C27.4114 30.7394 27.2956 30.7264 27.2385 30.6464L23.4157 25.2573H23.4075ZM23.3782 32.5961C23.2852 32.632 23.184 32.5749 23.1546 32.4803L21.4056 26.1106C21.9767 25.9801 22.5183 25.7713 23.0176 25.4955L24.3979 28.3932C24.4403 28.4862 24.3979 28.5955 24.3033 28.6233L23.791 28.8109L25.1419 31.7591C25.1843 31.8521 25.1419 31.9533 25.0473 31.9892L23.3863 32.5961H23.3782Z" fill="white"/>
<circle cx="20" cy="20" r="19.5" stroke="black" stroke-opacity="0.05"/>
</svg>
