<svg width="40" height="40" viewBox="0 0 40 40" fill="none" xmlns="http://www.w3.org/2000/svg">
<circle cx="20" cy="20" r="20" fill="#F6F8FA"/>
<path d="M8.50922 15.697C8.58197 15.7207 8.64259 15.6851 8.63047 15.6138C8.62009 15.5724 8.59904 15.5343 8.56932 15.5031C8.5396 15.4719 8.50221 15.4487 8.46073 15.4357C8.38798 15.412 8.33948 15.4595 8.33948 15.5307C8.35161 15.5901 8.42435 15.6732 8.50922 15.697ZM9.0912 17.3118C9.20032 17.3356 9.27306 17.2881 9.26094 17.1931C9.24785 17.1387 9.221 17.0885 9.18286 17.047C9.14471 17.0055 9.09651 16.9741 9.0427 16.9556C8.93358 16.92 8.86083 16.9793 8.87296 17.0743C8.88508 17.1693 8.9942 17.2762 9.0912 17.3118ZM9.89141 18.9386C10.0369 18.9742 10.1339 18.9029 10.1096 18.7842C10.0975 18.6536 9.96415 18.5111 9.81866 18.4636C9.68529 18.428 9.57617 18.4992 9.60042 18.6298C9.62467 18.7486 9.75804 18.8911 9.89141 18.9386ZM10.8856 20.5653C11.0796 20.6247 11.213 20.5297 11.1766 20.3516C11.1523 20.1734 10.9705 19.9953 10.7886 19.936C10.5946 19.8766 10.4734 19.9716 10.4976 20.1378C10.534 20.3159 10.7037 20.5059 10.8856 20.5653ZM12.0496 22.0852C12.2557 22.1445 12.4133 22.0377 12.3769 21.8477C12.3405 21.6577 12.1465 21.444 11.9404 21.3846C11.7343 21.3252 11.5767 21.4202 11.6131 21.6221C11.6494 21.8121 11.8434 22.0258 12.0496 22.0852ZM13.359 23.5219C13.5894 23.5932 13.747 23.4744 13.7227 23.2726C13.6964 23.1512 13.6376 23.0389 13.5524 22.9471C13.4671 22.8553 13.3586 22.7873 13.2377 22.7501C13.0074 22.6907 12.8498 22.7976 12.874 23.0113C12.9104 23.2251 13.1165 23.4507 13.359 23.5219ZM14.7897 24.8518C15.0322 24.923 15.214 24.7924 15.1776 24.5668C15.1485 24.4344 15.0853 24.3114 14.9941 24.2096C14.9029 24.1078 14.7866 24.0305 14.6563 23.985C14.3896 23.9138 14.2198 24.0444 14.2562 24.2818C14.2926 24.5193 14.5351 24.7687 14.7897 24.8518ZM16.3052 26.0392C16.5841 26.1223 16.7902 25.9798 16.7417 25.7186C16.7053 25.4455 16.4507 25.1724 16.1597 25.0774C15.8809 24.9943 15.6747 25.1368 15.7232 25.398C15.7596 25.6711 16.0142 25.9561 16.3052 26.0392ZM17.8814 27.0604C18.1966 27.1554 18.4149 26.9891 18.3664 26.7041C18.33 26.4192 18.039 26.1104 17.7359 26.0155C17.4207 25.9205 17.2146 26.0748 17.2509 26.3717C17.2994 26.6566 17.5783 26.9654 17.8935 27.0604H17.8814ZM19.4939 27.8678C19.8092 27.9509 20.0395 27.7965 19.991 27.5116C19.9539 27.3476 19.8741 27.1958 19.7594 27.071C19.6447 26.9462 19.4989 26.8525 19.3363 26.7991C19.0211 26.6923 18.8028 26.8585 18.8513 27.1554C18.8877 27.4403 19.1787 27.7609 19.4939 27.8678ZM21.0944 28.4615C21.4217 28.5565 21.6521 28.3902 21.6036 28.0934C21.5665 27.9294 21.4867 27.7777 21.3719 27.6528C21.2572 27.528 21.1115 27.4343 20.9489 27.381C20.6215 27.2741 20.4033 27.4403 20.4396 27.7372C20.4881 28.034 20.7791 28.3546 21.0944 28.4496V28.4615ZM22.6705 28.8296C22.3553 28.7346 22.0643 28.414 22.0158 28.1171C21.9794 27.8203 22.2098 27.6422 22.525 27.7609C22.8524 27.8559 23.1313 28.1646 23.1798 28.4734C23.2283 28.7702 22.9979 28.9246 22.6705 28.8296ZM24.1861 28.9721C23.883 28.8771 23.592 28.5684 23.5556 28.2834C23.5192 27.9865 23.7375 27.844 24.0406 27.9272C24.3558 28.0222 24.6468 28.3309 24.6832 28.6159C24.7196 28.9127 24.5013 29.0671 24.1982 28.9721H24.1861ZM25.6168 28.8533C25.3379 28.7702 25.0712 28.4971 25.0469 28.2359C25.0105 27.9628 25.2045 27.8322 25.4955 27.9153C25.7744 27.9984 26.0411 28.2834 26.0654 28.5446C26.1017 28.8058 25.8956 28.9483 25.6168 28.8652V28.8533ZM26.9141 28.5327C26.6716 28.4615 26.4291 28.2003 26.4049 27.9628C26.3685 27.7253 26.5503 27.6066 26.805 27.6778C27.0717 27.7609 27.2899 28.0103 27.3263 28.2478C27.3627 28.4852 27.1808 28.604 26.9141 28.5327ZM28.0901 27.9865C27.8477 27.9153 27.6415 27.6897 27.6173 27.476C27.593 27.2622 27.7628 27.1554 27.981 27.2266C28.2235 27.286 28.4296 27.5234 28.4539 27.7372C28.4781 27.939 28.3205 28.0578 28.0901 27.9865ZM29.0843 27.2503C28.8782 27.191 28.6964 26.9772 28.6721 26.7873C28.6479 26.5973 28.7934 26.5023 28.9995 26.5617C29.2056 26.621 29.3996 26.8348 29.4238 27.0247C29.436 27.2147 29.3026 27.3097 29.0843 27.2503ZM29.9331 26.2648C30.0907 26.2886 30.1755 26.1936 30.1392 26.0511C30.1151 25.9738 30.0713 25.9037 30.0119 25.8476C29.9525 25.7915 29.8794 25.7512 29.7997 25.7305C29.6421 25.7067 29.5572 25.8017 29.5936 25.9442C29.6187 26.0229 29.6643 26.0939 29.726 26.1501C29.7876 26.2064 29.8632 26.2459 29.9452 26.2648H29.9331ZM30.5756 25.113C30.6726 25.113 30.7211 25.0299 30.6726 24.923C30.6514 24.8742 30.6182 24.8313 30.5759 24.7981C30.5335 24.7649 30.4835 24.7426 30.4302 24.7331C30.321 24.7331 30.2725 24.8043 30.3089 24.9112C30.3574 25.018 30.4665 25.1012 30.5756 25.113ZM30.8788 23.8781C30.9515 23.9019 31 23.8781 31 23.795C31 23.7238 30.9273 23.6525 30.8545 23.6288C30.7818 23.605 30.7333 23.6407 30.7333 23.7119C30.7421 23.749 30.76 23.7835 30.7853 23.8124C30.8106 23.8413 30.8427 23.8639 30.8788 23.8781ZM15.2383 16.6944C15.2019 16.7062 15.2019 16.7537 15.2383 16.7775C15.2746 16.8131 15.311 16.825 15.3353 16.8131C15.3595 16.8012 15.3595 16.7656 15.3353 16.73C15.2989 16.6944 15.2504 16.6825 15.2261 16.6944H15.2383ZM15.117 16.1007C15.1655 16.1007 15.2019 16.1482 15.2261 16.1838C15.2383 16.2194 15.2261 16.255 15.1898 16.255C15.1534 16.255 15.1049 16.2194 15.0928 16.1838C15.0685 16.1363 15.0928 16.1007 15.1292 16.1125L15.117 16.1007ZM15.0807 15.5307C15.1292 15.5307 15.1898 15.5782 15.2019 15.6257C15.2261 15.6851 15.2019 15.7207 15.1534 15.7207C15.1049 15.7207 15.0443 15.6732 15.0322 15.6138C15.0079 15.5663 15.0322 15.5307 15.0807 15.5307ZM15.117 14.9845C15.1547 14.989 15.1908 15.0021 15.2224 15.0227C15.254 15.0433 15.2802 15.0709 15.2989 15.1033C15.3353 15.1864 15.2989 15.2339 15.2261 15.2339C15.1906 15.2277 15.1569 15.2138 15.1276 15.1933C15.0982 15.1727 15.0739 15.146 15.0564 15.1151C15.02 15.032 15.0564 14.9845 15.117 14.9845ZM15.2504 14.5096C15.3353 14.5096 15.4201 14.5808 15.4565 14.652C15.4808 14.7352 15.4565 14.7945 15.3838 14.7945C15.311 14.7945 15.214 14.7233 15.1776 14.6402C15.1413 14.5689 15.1776 14.5096 15.2504 14.5096ZM15.4808 14.094C15.5656 14.094 15.6505 14.1652 15.6869 14.2483C15.7232 14.3314 15.6869 14.4027 15.602 14.3908C15.5293 14.3908 15.4323 14.3196 15.3959 14.2365C15.3595 14.1533 15.3959 14.0821 15.4808 14.094ZM15.7839 13.7377C15.8687 13.7377 15.9779 13.8209 16.0264 13.9159C16.0627 14.0108 16.0264 14.094 15.9294 14.0821C15.8765 14.0759 15.8263 14.0561 15.7838 14.0249C15.7412 13.9936 15.7078 13.9519 15.6869 13.904C15.6505 13.809 15.6869 13.7259 15.7839 13.7377ZM16.1597 13.4528C16.2688 13.4528 16.378 13.5478 16.4265 13.6428C16.475 13.7615 16.4265 13.8327 16.3295 13.8327C16.2203 13.8327 16.0991 13.7377 16.0506 13.6309C16.0021 13.5359 16.0506 13.4528 16.1597 13.4528ZM16.6083 13.239C16.7296 13.239 16.8508 13.3578 16.8993 13.4765C16.9599 13.5834 16.8993 13.6784 16.7781 13.6665C16.669 13.6665 16.5356 13.5715 16.4871 13.4528C16.4386 13.334 16.4871 13.239 16.6083 13.239ZM17.1176 13.1203C17.2388 13.1322 17.3722 13.239 17.4207 13.3578C17.4813 13.4884 17.4207 13.5834 17.2994 13.5834C17.1782 13.5834 17.0448 13.4646 16.9963 13.3459C16.9357 13.2272 16.9963 13.1203 17.1176 13.1322V13.1203ZM17.6632 13.1084C17.5419 13.1084 17.4813 13.2034 17.5419 13.334C17.5904 13.4528 17.7359 13.5715 17.8693 13.5715C17.9905 13.5715 18.0511 13.4765 17.9905 13.3459C17.942 13.2272 17.7965 13.1084 17.6632 13.1084ZM18.2694 13.1797C18.1481 13.1797 18.0875 13.2747 18.1481 13.3934C18.1966 13.5121 18.33 13.6309 18.4512 13.6309C18.5725 13.6309 18.6331 13.5478 18.5725 13.4171C18.524 13.2984 18.3906 13.1797 18.2694 13.1797ZM18.8998 13.3459C18.7786 13.3459 18.7301 13.429 18.7786 13.5596C18.8271 13.6784 18.9605 13.7734 19.0696 13.7734C19.1908 13.7734 19.2393 13.6903 19.1908 13.5715C19.1423 13.4528 19.009 13.3578 18.8998 13.3459ZM19.5424 13.6071C19.4333 13.5953 19.3848 13.6784 19.4333 13.7852C19.4818 13.8921 19.6031 13.9752 19.7001 13.9871C19.8092 13.9871 19.8577 13.904 19.8092 13.7971C19.7607 13.6903 19.6394 13.6071 19.5424 13.6071ZM20.1729 13.9277C20.0759 13.9277 20.0395 13.999 20.0759 14.094C20.1123 14.189 20.2214 14.2721 20.3184 14.2721C20.4033 14.284 20.4396 14.2127 20.4154 14.1177C20.379 14.0227 20.2578 13.9396 20.1729 13.9277ZM20.7791 14.3196C20.7064 14.3196 20.6579 14.3908 20.7064 14.4739C20.7428 14.5571 20.8276 14.6283 20.9125 14.6283C20.9974 14.6283 21.0337 14.5689 20.9974 14.4858C20.981 14.4428 20.9533 14.4048 20.9171 14.3756C20.8809 14.3464 20.8375 14.3271 20.7913 14.3196H20.7791ZM21.3853 14.7945C21.3126 14.7827 21.2641 14.842 21.3005 14.9133C21.3368 14.9964 21.4217 15.0558 21.4945 15.0676C21.5672 15.0676 21.6157 15.0083 21.5793 14.9251C21.543 14.8539 21.4581 14.7827 21.3853 14.7827V14.7945ZM21.9431 15.3051C21.8824 15.3051 21.8582 15.3526 21.8824 15.4239C21.9067 15.4714 21.9794 15.5307 22.0401 15.5307C22.1007 15.5307 22.1249 15.4832 22.1007 15.412C22.0643 15.3645 22.0037 15.3051 21.9431 15.3051ZM22.4523 15.8988C22.428 15.9226 22.428 15.9582 22.4523 15.9938C22.4887 16.0294 22.525 16.0532 22.5614 16.0413C22.5857 16.0294 22.5857 15.9819 22.5614 15.9463C22.525 15.9107 22.4765 15.8869 22.4402 15.9107L22.4523 15.8988ZM22.8888 16.4925C22.8645 16.4925 22.8645 16.54 22.8888 16.5638C22.9251 16.5994 22.9615 16.6113 22.9858 16.5994C23.01 16.5994 23.01 16.5519 22.9858 16.5163C22.9615 16.4806 22.913 16.4688 22.8888 16.4806V16.4925ZM15.4444 17.2881C15.4201 17.2999 15.4201 17.3356 15.4444 17.3712C15.4808 17.4068 15.5171 17.4187 15.5414 17.4068C15.5656 17.4068 15.5656 17.3593 15.5414 17.3237C15.5171 17.2881 15.4686 17.2762 15.4444 17.2881ZM20.9852 13.9159C20.9246 13.9277 20.9125 14.0109 20.961 14.0821C21.0216 14.1652 21.1186 14.2008 21.1792 14.189C21.252 14.1771 21.252 14.094 21.2035 14.0227C21.155 13.9396 21.0459 13.904 20.9852 13.904V13.9159ZM21.7248 14.6283C21.7976 14.6639 21.8461 14.652 21.8461 14.5927C21.8582 14.5333 21.7976 14.4739 21.737 14.4383C21.6763 14.4146 21.6157 14.4383 21.6157 14.4858C21.6157 14.5452 21.6642 14.6045 21.737 14.6402L21.7248 14.6283ZM22.3432 15.1745C22.3917 15.1982 22.4402 15.1864 22.4402 15.1508C22.4402 15.1151 22.428 15.0676 22.3795 15.032C22.331 15.0201 22.2826 15.032 22.2826 15.0558C22.2826 15.0914 22.3068 15.1389 22.3432 15.1745ZM22.9009 15.7801C22.9494 15.8038 22.9858 15.8038 22.9979 15.7682C22.9979 15.7326 22.9736 15.6851 22.9373 15.6495C22.8888 15.6376 22.8524 15.6495 22.8403 15.6732C22.8403 15.7088 22.8645 15.7563 22.9009 15.7919V15.7801ZM16.7174 12.491C16.5962 12.5266 16.5841 12.6572 16.6811 12.7997C16.7781 12.9422 16.9478 13.0253 17.0691 12.9897C17.1903 12.9541 17.1903 12.8235 17.1054 12.681C17.0084 12.5385 16.8266 12.4435 16.7174 12.491ZM17.3722 12.491C17.2509 12.5147 17.2509 12.6453 17.3358 12.776C17.4207 12.9066 17.5783 12.9897 17.6995 12.9659C17.8086 12.9303 17.8208 12.7997 17.7359 12.6691C17.6389 12.5385 17.4813 12.4554 17.3722 12.4791V12.491ZM18.0754 12.5978C17.9784 12.6216 17.9541 12.7403 18.039 12.8591C18.1239 12.9778 18.2694 13.0491 18.3664 13.0253C18.4634 12.9897 18.4876 12.8828 18.4027 12.7641C18.3179 12.6453 18.1603 12.5622 18.0754 12.5978ZM18.8028 12.7997C18.7059 12.8235 18.6937 12.9303 18.7665 13.0372C18.8392 13.144 18.9726 13.2034 19.0575 13.1797C19.1545 13.1559 19.1666 13.0491 19.0938 12.9422C19.0211 12.8353 18.8877 12.7641 18.8028 12.7997ZM15.602 12.7997C15.7232 12.776 15.8809 12.8591 15.9779 12.9897C16.0749 13.1322 16.0627 13.2747 15.9415 13.3103C15.8202 13.3459 15.6626 13.2509 15.5656 13.1203C15.4686 12.9778 15.4808 12.8472 15.602 12.8116V12.7997ZM15.1655 13.1203C15.2746 13.0847 15.4444 13.1678 15.5293 13.2984C15.6263 13.429 15.602 13.5715 15.505 13.5953C15.3838 13.619 15.2261 13.5478 15.1413 13.4171C15.0322 13.2865 15.0564 13.1559 15.1655 13.1203ZM14.8139 13.5359C14.9109 13.5003 15.0564 13.5834 15.1413 13.6903C15.2261 13.809 15.214 13.9277 15.117 13.9634C15.02 13.9871 14.8745 13.9159 14.7897 13.7971C14.7048 13.6784 14.7169 13.5596 14.8139 13.5359ZM14.5714 14.0108C14.6563 13.9871 14.7897 14.0583 14.8624 14.1652C14.9352 14.2602 14.923 14.3671 14.8382 14.4027C14.7412 14.4264 14.6199 14.3552 14.5472 14.2483C14.4744 14.1415 14.4866 14.0346 14.5714 14.0108ZM14.4138 14.5571C14.4987 14.5333 14.6199 14.5927 14.6805 14.6877C14.7533 14.7827 14.7412 14.8895 14.6563 14.9133C14.5836 14.9251 14.4623 14.8777 14.3896 14.7827C14.3289 14.6758 14.3289 14.5808 14.4138 14.5571ZM14.3653 15.1626C14.4381 15.1389 14.5472 15.1982 14.6078 15.2814C14.6684 15.3764 14.6563 15.4595 14.5836 15.4832C14.5108 15.507 14.4017 15.4476 14.3411 15.3645C14.2804 15.2695 14.2926 15.1864 14.3653 15.1626ZM14.4138 15.8157C14.4866 15.7919 14.5714 15.8394 14.6321 15.9226C14.6805 15.9938 14.6684 16.0769 14.6078 16.1007C14.5472 16.1125 14.4502 16.0651 14.3896 15.9819C14.3411 15.9107 14.3532 15.8276 14.4138 15.8157ZM14.5836 16.5044C14.6321 16.5044 14.7048 16.5281 14.7412 16.5875C14.7775 16.6469 14.7654 16.7062 14.729 16.7181C14.6805 16.73 14.6078 16.6944 14.5714 16.635C14.5229 16.5875 14.5351 16.5163 14.5714 16.5163L14.5836 16.5044ZM14.826 17.2168C14.8745 17.2168 14.923 17.2406 14.9473 17.2762C14.9837 17.3237 14.9837 17.3712 14.9473 17.3831C14.9109 17.3831 14.8503 17.3593 14.826 17.3237C14.8018 17.2762 14.8018 17.2287 14.826 17.2168ZM15.6263 18.7248C15.6747 18.7486 15.7111 18.7367 15.7111 18.7011C15.7111 18.6773 15.699 18.6298 15.6505 18.6061C15.6141 18.5823 15.5778 18.5823 15.5656 18.618C15.5656 18.6536 15.5899 18.7011 15.6263 18.7248ZM15.2019 18.048C15.2504 18.0718 15.2989 18.0599 15.2989 18.0243C15.2989 17.9886 15.2868 17.9411 15.2383 17.9174C15.1898 17.8936 15.1534 17.9055 15.1413 17.9411C15.1413 17.9768 15.1655 18.0243 15.2019 18.048ZM16.1234 12.586C16.0021 12.6216 15.9779 12.7641 16.0749 12.9184C16.184 13.0491 16.3537 13.144 16.475 13.1084C16.5962 13.0728 16.6083 12.9422 16.5113 12.7878C16.4143 12.6453 16.2446 12.5503 16.1234 12.586ZM19.5424 13.0847C19.4576 13.1084 19.4454 13.2034 19.5182 13.2984C19.5788 13.3934 19.7001 13.4528 19.7728 13.4171C19.8577 13.4053 19.8698 13.2984 19.797 13.2034C19.7364 13.1203 19.6273 13.0609 19.5424 13.0847ZM20.2699 13.4646C20.1972 13.4884 20.185 13.5715 20.2457 13.6546C20.3184 13.7377 20.4154 13.7971 20.4881 13.7734C20.5609 13.7496 20.573 13.6665 20.5124 13.5834C20.4518 13.5003 20.3548 13.4409 20.2699 13.4646ZM16.6083 20.589C16.6205 20.5653 16.669 20.5653 16.7053 20.589C16.7417 20.6247 16.7538 20.6722 16.7417 20.6959C16.7417 20.7197 16.6932 20.7197 16.6568 20.6959C16.6205 20.6603 16.5962 20.6247 16.6083 20.589ZM15.9051 19.9003C15.9172 19.8647 15.9779 19.8647 16.0264 19.9003C16.0749 19.936 16.0991 19.9953 16.087 20.031C16.0627 20.0666 16.0142 20.0666 15.9657 20.031C15.9051 19.9953 15.8809 19.936 15.9051 19.9003ZM15.2625 19.1404C15.2868 19.0929 15.3716 19.0929 15.4323 19.1404C15.505 19.1998 15.5293 19.271 15.505 19.3185C15.4808 19.366 15.408 19.366 15.3353 19.3185C15.2746 19.2592 15.2383 19.176 15.2625 19.1404ZM14.6927 18.3449C14.729 18.2736 14.8139 18.2855 14.9109 18.3449C15.0079 18.4161 15.0443 18.523 15.0079 18.5823C14.9715 18.6536 14.8867 18.6536 14.7897 18.5823C14.7048 18.5111 14.6684 18.4042 14.6927 18.3449ZM14.2319 17.5374C14.2683 17.4781 14.3896 17.4781 14.4866 17.5493C14.5836 17.6324 14.6321 17.7512 14.6078 17.8105C14.5593 17.8818 14.4502 17.8818 14.3411 17.8105C14.2441 17.7274 14.1956 17.6087 14.2319 17.5374ZM13.6378 15.9463C13.6863 15.8632 13.8197 15.8751 13.9531 15.9582C14.0743 16.0532 14.135 16.1957 14.0743 16.2788C14.038 16.3619 13.9046 16.3619 13.7712 16.2788C13.65 16.1838 13.5894 16.0413 13.6378 15.9463ZM13.8803 16.7419C13.9288 16.6706 14.0501 16.6706 14.1592 16.7537C14.2683 16.8369 14.3168 16.9675 14.2804 17.0387C14.2319 17.1218 14.1107 17.11 14.0016 17.0387C13.8925 16.9437 13.844 16.825 13.8803 16.7419ZM13.5045 15.1864C13.553 15.0914 13.7106 15.0914 13.844 15.1982C13.9773 15.317 14.0501 15.4714 14.0016 15.5545C13.941 15.6495 13.7955 15.6495 13.6621 15.5426C13.5166 15.4357 13.4439 15.2814 13.5045 15.1864ZM13.4802 14.4621C13.5409 14.3433 13.7227 14.3552 13.8682 14.4739C14.0258 14.5927 14.0986 14.7708 14.038 14.8777C13.9773 14.9845 13.8076 14.9726 13.6621 14.8658C13.4924 14.747 13.4196 14.5689 13.4802 14.4621ZM13.6015 13.809C13.6621 13.6903 13.844 13.7021 14.0016 13.8209C14.1592 13.9396 14.2441 14.1415 14.1713 14.2483C14.1107 14.3552 13.9288 14.3433 13.7712 14.2246C13.6136 14.1058 13.5287 13.9159 13.5894 13.809H13.6015ZM13.844 13.2153C13.7712 13.334 13.844 13.5359 14.0137 13.6546C14.1834 13.7734 14.3774 13.7971 14.4259 13.6784C14.4987 13.5596 14.4138 13.3697 14.2441 13.239C14.0865 13.1203 13.8925 13.1203 13.8318 13.2272L13.844 13.2153ZM14.2077 12.7403C14.135 12.8591 14.2077 13.0372 14.3774 13.1559C14.5351 13.2747 14.7169 13.2865 14.7775 13.1797C14.8382 13.0609 14.7654 12.8828 14.6078 12.7641C14.4502 12.6453 14.2562 12.6453 14.1956 12.7403H14.2077ZM14.6563 12.3722C14.5957 12.4791 14.6805 12.6572 14.826 12.7641C14.9837 12.8828 15.1534 12.8828 15.214 12.7878C15.2746 12.6691 15.1898 12.5029 15.0443 12.3841C14.8867 12.2654 14.7169 12.2654 14.6563 12.3722ZM15.2383 12.0991C15.1898 12.1941 15.2625 12.3485 15.3959 12.4554C15.5414 12.5622 15.6869 12.5741 15.7475 12.4672C15.796 12.3722 15.7354 12.2298 15.5899 12.111C15.4565 12.016 15.2989 11.9923 15.2383 12.0991ZM15.9051 11.9329C15.8566 12.016 15.9172 12.1704 16.0385 12.2535C16.1597 12.3485 16.3052 12.3485 16.3537 12.2654C16.4022 12.1823 16.3537 12.0279 16.2325 11.9448C16.0991 11.8498 15.9536 11.8379 15.9051 11.9329ZM16.6326 11.8735C16.5962 11.9448 16.6568 12.0754 16.7538 12.1585C16.8751 12.2416 16.9963 12.2535 17.0448 12.1704C17.0933 12.0991 17.0448 11.9685 16.9236 11.8854C16.8023 11.8023 16.6811 11.7904 16.6447 11.8735H16.6326ZM17.4328 11.921C17.3964 11.9923 17.4328 12.111 17.5419 12.1823C17.6389 12.2535 17.748 12.2654 17.7965 12.1823C17.8329 12.1229 17.7844 12.0041 17.6874 11.9329C17.5783 11.8617 17.4692 11.8498 17.4328 11.921ZM18.2451 12.0873C18.2088 12.1466 18.2451 12.2535 18.3421 12.3247C18.4391 12.3841 18.5361 12.3841 18.5725 12.3247C18.6089 12.2654 18.5725 12.1704 18.4755 12.0873C18.3906 12.0279 18.2815 12.016 18.2451 12.0873ZM19.1181 12.3722C19.0938 12.4197 19.1181 12.491 19.1908 12.5503C19.2636 12.5978 19.3363 12.5978 19.3606 12.5503C19.3848 12.5029 19.3606 12.4316 19.2878 12.3722C19.2272 12.3247 19.1423 12.3247 19.1181 12.3722ZM19.9789 12.7522C19.9668 12.7878 19.9789 12.8472 20.0395 12.8828C20.088 12.9184 20.1487 12.9303 20.1608 12.8828C20.185 12.8591 20.1608 12.7997 20.1123 12.7641C20.0638 12.7166 20.0032 12.7166 19.991 12.7641L19.9789 12.7522ZM20.8276 13.2272C20.8276 13.2509 20.8276 13.2984 20.8761 13.3222C20.9125 13.3578 20.9489 13.3578 20.9731 13.3222C20.9852 13.3103 20.9731 13.2628 20.9246 13.2272C20.8882 13.2034 20.8397 13.2034 20.8276 13.2272ZM21.6278 13.7734C21.6157 13.7971 21.6278 13.8327 21.6642 13.8684C21.7006 13.8921 21.737 13.8921 21.7491 13.8684C21.7612 13.8446 21.7491 13.809 21.7127 13.7734C21.6763 13.7496 21.64 13.7496 21.6278 13.7734ZM17.3479 21.2065C17.3358 21.2302 17.3479 21.2777 17.3843 21.3015C17.4207 21.3371 17.457 21.3371 17.4692 21.3015C17.4813 21.2896 17.4692 21.2421 17.4328 21.2184C17.3964 21.1827 17.36 21.1827 17.3479 21.2184V21.2065ZM18.6089 11.5054C18.6089 11.5411 18.6452 11.5886 18.6937 11.6123C18.7422 11.6242 18.7786 11.6123 18.7786 11.5767C18.7786 11.5292 18.7422 11.4817 18.6937 11.4579C18.6452 11.4579 18.6089 11.4579 18.6089 11.5054ZM17.6389 11.268C17.6389 11.3155 17.6753 11.3867 17.7359 11.3986C17.8086 11.4342 17.8571 11.3986 17.8571 11.3511C17.8571 11.3036 17.8086 11.2323 17.748 11.2086C17.6874 11.1848 17.6268 11.2086 17.6268 11.2561L17.6389 11.268ZM16.6932 11.1492C16.6932 11.2086 16.7538 11.3036 16.8387 11.3392C16.9236 11.3748 16.9963 11.3392 16.9963 11.268C16.9963 11.1967 16.9236 11.1136 16.8387 11.078C16.7659 11.0424 16.6932 11.078 16.6932 11.1373V11.1492ZM15.796 11.1492C15.796 11.2442 15.8809 11.363 15.99 11.4104C16.1112 11.4579 16.1961 11.4223 16.1961 11.3273C16.1961 11.2323 16.1112 11.1255 15.99 11.078C15.893 11.0186 15.796 11.0542 15.796 11.1492ZM14.9958 11.3036C14.9958 11.4104 15.0928 11.5411 15.214 11.5886C15.3353 11.6361 15.4565 11.5886 15.4565 11.4936C15.4565 11.3748 15.3474 11.2561 15.2261 11.2086C15.1049 11.1492 14.9958 11.1967 14.9958 11.3036ZM14.2926 11.5767C14.2926 11.6954 14.4017 11.826 14.5351 11.8854C14.6805 11.9448 14.7775 11.8973 14.7775 11.7785C14.7775 11.6598 14.6805 11.5292 14.5351 11.4698C14.4138 11.4104 14.2926 11.4579 14.2926 11.5767ZM13.6863 11.9566C13.6863 12.0873 13.8076 12.2535 13.9531 12.3129C14.1107 12.3722 14.2319 12.3247 14.2319 12.1941C14.2319 12.0754 14.1107 11.9092 13.9652 11.8379C13.8076 11.7785 13.6863 11.8379 13.6863 11.9566ZM13.1892 12.4554C13.1892 12.5978 13.3105 12.776 13.4924 12.8472C13.6621 12.9184 13.7955 12.8591 13.8076 12.7285C13.8076 12.5741 13.6742 12.396 13.4924 12.3247C13.3226 12.2654 13.1892 12.3247 13.1892 12.4554ZM12.8134 13.0491C12.8134 13.2153 12.971 13.4053 13.1529 13.5003C13.3347 13.5834 13.4924 13.5121 13.4924 13.3578C13.4924 13.1915 13.3347 13.0016 13.1529 12.9184C12.971 12.8353 12.8134 12.9066 12.8134 13.0609V13.0491ZM12.583 13.7615C12.583 13.9277 12.7406 14.1296 12.9468 14.2246C13.1407 14.2958 13.3105 14.2365 13.3105 14.0702C13.3105 13.8921 13.1407 13.6903 12.9468 13.6071C12.7528 13.524 12.583 13.5953 12.583 13.7615ZM12.5103 14.5333C12.5103 14.7114 12.6679 14.9133 12.874 15.0083C13.0801 15.0914 13.2377 15.0083 13.2377 14.842C13.2377 14.6639 13.0801 14.4502 12.874 14.3671C12.6679 14.284 12.5103 14.3671 12.5103 14.5333ZM12.583 15.3645C12.583 15.1982 12.7406 15.127 12.9468 15.222C13.1407 15.3051 13.2984 15.507 13.2984 15.6732C13.2984 15.8513 13.1407 15.9107 12.9346 15.8276C12.7406 15.7445 12.5709 15.5426 12.5709 15.3764L12.583 15.3645ZM12.8013 16.255C12.8013 16.1007 12.9468 16.0294 13.1407 16.1125C13.3226 16.1957 13.4681 16.3856 13.4681 16.54C13.4681 16.7062 13.3226 16.7775 13.1286 16.6825C12.9468 16.6113 12.8013 16.4213 12.8013 16.255ZM13.165 17.1693C13.165 17.0268 13.2862 16.9675 13.4681 17.0506C13.6378 17.11 13.7712 17.2881 13.7712 17.4306C13.7712 17.573 13.6378 17.6324 13.456 17.5612C13.2984 17.4899 13.165 17.3237 13.165 17.1693ZM14.2319 18.986C14.2319 18.8673 14.3411 18.8198 14.4744 18.8792C14.6078 18.9386 14.7169 19.081 14.7169 19.1998C14.7169 19.3185 14.6078 19.366 14.4744 19.3185C14.3411 19.2473 14.2319 19.1048 14.2319 18.986ZM14.923 19.8528C14.923 19.746 15.02 19.7104 15.1413 19.7579C15.2625 19.8172 15.3595 19.936 15.3595 20.0428C15.3595 20.1497 15.2625 20.1853 15.1413 20.1378C15.02 20.0903 14.923 19.9597 14.923 19.8528ZM15.6869 20.684C15.6869 20.5772 15.7839 20.5415 15.893 20.589C16.0021 20.6365 16.087 20.7434 16.087 20.8265C16.087 20.9334 15.99 20.969 15.8809 20.9215C15.7839 20.874 15.6869 20.7671 15.6869 20.684ZM16.5598 21.4321C16.5598 21.3727 16.6326 21.3371 16.7174 21.3727C16.7902 21.4083 16.8629 21.4915 16.8629 21.5627C16.8629 21.6339 16.7902 21.6696 16.7053 21.6339C16.6326 21.5865 16.5598 21.5152 16.5598 21.4321ZM17.4813 22.1089C17.4813 22.0495 17.5298 22.0377 17.5904 22.0614C17.651 22.0852 17.6995 22.1445 17.6995 22.2039C17.6995 22.2514 17.651 22.2751 17.5783 22.2514C17.5298 22.2276 17.4813 22.1564 17.4813 22.1089ZM18.4149 22.6907C18.4149 22.6432 18.4512 22.6314 18.4997 22.6551C18.5482 22.667 18.5967 22.7145 18.5967 22.7501C18.5967 22.7976 18.5482 22.8095 18.4997 22.7857C18.4512 22.7739 18.4149 22.7264 18.4149 22.6907ZM19.3606 23.1419C19.3606 23.1776 19.3848 23.2251 19.4333 23.2369C19.4818 23.2607 19.5061 23.2369 19.5182 23.2132C19.5182 23.1776 19.4818 23.1301 19.4454 23.1182C19.3969 23.0944 19.3606 23.1182 19.3606 23.1419ZM13.65 18.0955C13.65 17.9649 13.7712 17.9055 13.9167 17.9768C14.0743 18.0361 14.1956 18.1905 14.1834 18.333C14.1834 18.4517 14.0622 18.5111 13.9167 18.4517C13.7591 18.3686 13.6378 18.2142 13.65 18.0955ZM19.5667 11.8498C19.5667 11.8854 19.6031 11.9329 19.6394 11.9566C19.6879 11.9685 19.7243 11.9567 19.7243 11.921C19.7243 11.8854 19.6879 11.8379 19.6516 11.8142C19.6031 11.8023 19.5667 11.8142 19.5667 11.8498ZM15.4444 10.3062C15.4565 10.3537 15.5171 10.3893 15.5656 10.3893C15.6141 10.3893 15.6384 10.3537 15.6141 10.3062C15.5899 10.2468 15.5414 10.2112 15.4929 10.2112C15.4444 10.2112 15.4201 10.2468 15.4444 10.2943V10.3062ZM14.5229 10.4605C14.5472 10.5318 14.6199 10.5793 14.6927 10.5911C14.7533 10.5911 14.7897 10.5436 14.7533 10.4724C14.7374 10.4403 14.7135 10.4126 14.6838 10.3919C14.6542 10.3711 14.6197 10.358 14.5836 10.3537C14.5229 10.3537 14.4866 10.4012 14.5229 10.4724V10.4605ZM13.6863 10.7811C13.7227 10.8761 13.8318 10.9474 13.9167 10.9592C14.0016 10.9592 14.038 10.888 14.0016 10.793C13.9801 10.7489 13.9479 10.7106 13.9077 10.6816C13.8675 10.6526 13.8206 10.6338 13.7712 10.6268C13.6863 10.6268 13.65 10.6861 13.6863 10.7811ZM12.9589 11.2323C13.0074 11.3511 13.1529 11.4698 13.262 11.4698C13.3832 11.4698 13.4317 11.3748 13.3832 11.2561C13.3585 11.1939 13.3174 11.1392 13.2642 11.0976C13.211 11.0559 13.1475 11.0286 13.0801 11.0186C12.9589 11.0186 12.9104 11.1136 12.9589 11.2323ZM12.4012 11.826C12.4497 11.9448 12.6073 12.0635 12.7285 12.0635C12.8619 12.0754 12.9225 11.9685 12.874 11.8379C12.8421 11.7714 12.7927 11.7144 12.7309 11.6727C12.6692 11.631 12.5972 11.606 12.5224 11.6004C12.4012 11.5767 12.3405 11.6835 12.4012 11.8142V11.826ZM11.9768 12.5147C12.0374 12.6691 12.2193 12.7997 12.3527 12.7997C12.4982 12.7997 12.5588 12.681 12.4982 12.5385C12.4375 12.396 12.2678 12.2654 12.1344 12.2654C11.9768 12.2654 11.9041 12.3604 11.9768 12.5147ZM11.6979 13.3222C11.7707 13.4884 11.9647 13.619 12.1223 13.6309C12.2799 13.6309 12.3527 13.5121 12.2799 13.3459C12.2072 13.1797 12.0253 13.0372 11.8556 13.0253C11.6979 13.0253 11.6252 13.144 11.6979 13.3222ZM11.5767 14.2127C11.6616 14.3908 11.8677 14.5452 12.0496 14.5571C12.2193 14.5571 12.292 14.4146 12.2193 14.2365C12.1465 14.0583 11.9404 13.8921 11.7586 13.8802C11.5767 13.8802 11.504 14.0227 11.5767 14.2127ZM11.6131 15.1626C11.6979 15.3645 11.9283 15.5426 12.1223 15.5545C12.3163 15.5545 12.4133 15.4001 12.3163 15.1982C12.2314 14.9845 12.0011 14.8183 11.8071 14.8064C11.6131 14.8064 11.5161 14.9608 11.6131 15.1626ZM12.1708 17.1931C12.2678 17.4306 12.5103 17.6087 12.7285 17.6205C12.9468 17.6205 13.0438 17.4543 12.9468 17.2287C12.8498 17.0031 12.5951 16.825 12.389 16.8131C12.1708 16.8012 12.0738 16.9675 12.1708 17.1931ZM11.8071 16.1719C11.9041 16.3856 12.1465 16.5638 12.3527 16.5756C12.5588 16.5756 12.6558 16.4094 12.5588 16.1957C12.4739 15.9819 12.2314 15.7919 12.0253 15.7919C11.8071 15.7919 11.7222 15.9463 11.8071 16.1719ZM12.6921 18.238C12.5951 18.0243 12.6921 17.858 12.8983 17.858C13.1044 17.8699 13.3469 18.0599 13.4317 18.2617C13.5287 18.4873 13.4317 18.6536 13.2256 18.6417C13.0316 18.6417 12.7891 18.4517 12.6921 18.238ZM13.3469 19.2592C13.262 19.0573 13.3469 18.9029 13.5409 18.9029C13.747 18.9148 13.9652 19.0929 14.0501 19.2948C14.1349 19.4966 14.0501 19.651 13.8561 19.651C13.6742 19.6391 13.4317 19.461 13.3469 19.2592ZM14.1471 20.2447C14.0622 20.0666 14.1471 19.9241 14.3168 19.936C14.4987 19.936 14.7048 20.0903 14.7775 20.2803C14.8624 20.4584 14.7775 20.6009 14.6078 20.6009C14.4259 20.589 14.2198 20.4347 14.1471 20.2447ZM15.0322 21.1827C14.9594 21.0165 15.0322 20.8859 15.1898 20.8859C15.3474 20.8859 15.5293 21.0402 15.602 21.2065C15.6626 21.3727 15.602 21.4915 15.4444 21.4915C15.2868 21.4915 15.1049 21.349 15.0322 21.1827ZM16.0021 22.0377C15.9415 21.8833 16.0021 21.7646 16.1476 21.7764C16.281 21.7764 16.4507 21.8952 16.5113 22.0495C16.572 22.2039 16.5113 22.3226 16.3658 22.3108C16.2325 22.3108 16.0627 22.1802 16.0021 22.0377ZM17.0327 22.7976C16.9721 22.667 17.0327 22.5601 17.1539 22.5601C17.2752 22.5601 17.4328 22.6789 17.4813 22.8095C17.5419 22.952 17.4813 23.047 17.36 23.047C17.2388 23.047 17.0812 22.9282 17.0327 22.7976ZM18.0996 23.4507C18.0511 23.3319 18.0996 23.2369 18.2209 23.2369C18.33 23.2369 18.4634 23.3438 18.5119 23.4744C18.5604 23.5932 18.5119 23.6763 18.3906 23.6763C18.2694 23.6763 18.1481 23.5575 18.0996 23.4388V23.4507ZM19.2151 23.985C19.1787 23.9019 19.2151 23.8306 19.3121 23.8306C19.3969 23.8306 19.4939 23.9138 19.5424 23.9969C19.5788 24.08 19.5424 24.1512 19.4576 24.1512C19.406 24.1461 19.3566 24.1282 19.3142 24.0991C19.2717 24.07 19.2376 24.0307 19.2151 23.985ZM20.3305 24.3887C20.3063 24.3175 20.3305 24.27 20.4033 24.27C20.4639 24.27 20.5366 24.3293 20.5609 24.3887C20.5973 24.46 20.5609 24.5075 20.5003 24.5075C20.4396 24.5075 20.3669 24.4481 20.3305 24.3887ZM21.4217 24.6499C21.3975 24.5906 21.4217 24.5549 21.4581 24.5549C21.5066 24.5549 21.5672 24.6024 21.5793 24.6499C21.6036 24.6974 21.5793 24.7331 21.543 24.7331C21.4945 24.7331 21.4338 24.6974 21.4217 24.6499ZM22.428 24.7687C22.4523 24.8043 22.5008 24.8399 22.5493 24.8518C22.5857 24.8518 22.5978 24.8162 22.5857 24.7687C22.5767 24.7432 22.5605 24.7208 22.5391 24.704C22.5176 24.6872 22.4917 24.6767 22.4644 24.6737C22.4402 24.6737 22.4159 24.7093 22.428 24.7568V24.7687ZM16.4265 10.2824C16.4386 10.318 16.4992 10.3655 16.5477 10.3655C16.5962 10.3655 16.6083 10.3299 16.5962 10.2824C16.5852 10.2583 16.5684 10.2371 16.5473 10.2205C16.5262 10.204 16.5014 10.1927 16.475 10.1874C16.4265 10.1874 16.4022 10.223 16.4265 10.2705V10.2824ZM11.7707 10.7574C11.8192 10.8049 11.8919 10.8286 11.9283 10.8049C11.9647 10.7693 11.9526 10.7099 11.9041 10.6624C11.8556 10.603 11.7828 10.5911 11.7464 10.6149C11.7101 10.6386 11.7101 10.698 11.7707 10.7574ZM11.2251 11.5292C11.2978 11.6004 11.3827 11.6242 11.4312 11.5886C11.4797 11.5529 11.4676 11.4698 11.407 11.3986C11.3342 11.3273 11.2493 11.3036 11.2008 11.3392C11.1523 11.3629 11.1645 11.4579 11.2251 11.5292ZM10.8492 12.4197C10.9341 12.5147 11.0554 12.5504 11.1281 12.5029C11.1887 12.4554 11.1766 12.3485 11.0796 12.2654C10.9947 12.1585 10.8614 12.1229 10.8007 12.1704C10.7401 12.2179 10.7644 12.3247 10.8492 12.4197ZM10.6431 13.4409C10.7644 13.5596 10.922 13.6071 11.0069 13.5596C11.1038 13.4884 11.0675 13.334 10.9584 13.2034C10.8371 13.0847 10.6795 13.0372 10.5946 13.0966C10.4976 13.1559 10.5219 13.3103 10.6431 13.4409ZM10.6431 14.5214C10.7644 14.6639 10.9462 14.7233 11.0432 14.6402C11.1402 14.5808 11.116 14.4027 10.9826 14.2721C10.8614 14.1415 10.6674 14.0821 10.5704 14.1533C10.4734 14.2246 10.4976 14.3908 10.631 14.5214H10.6431ZM10.8007 15.6732C10.9462 15.8276 11.1523 15.8869 11.2493 15.8038C11.3585 15.7326 11.3221 15.5426 11.1887 15.3882C11.0311 15.2339 10.825 15.1745 10.728 15.2576C10.631 15.3289 10.6552 15.5188 10.8007 15.6732ZM11.1402 16.8606C11.2978 17.0387 11.5282 17.0981 11.6373 17.015C11.7586 16.92 11.7222 16.7181 11.5646 16.54C11.407 16.3738 11.1766 16.3025 11.0554 16.3975C10.9341 16.4806 10.9826 16.6944 11.1402 16.8725V16.8606ZM11.6373 18.0718C11.8192 18.2617 12.0738 18.333 12.195 18.238C12.3163 18.143 12.292 17.9055 12.1102 17.7155C11.9404 17.5255 11.6858 17.4543 11.5525 17.5493C11.4312 17.6562 11.4676 17.8818 11.6373 18.0718ZM12.292 19.2829C12.486 19.4848 12.777 19.5679 12.9104 19.461C13.0559 19.3541 13.0195 19.1048 12.8255 18.8911C12.6194 18.6892 12.3405 18.6061 12.2072 18.7129C12.0617 18.8079 12.098 19.0692 12.292 19.2829ZM13.1044 20.4347C13.3105 20.6603 13.6015 20.7434 13.7591 20.6365C13.9046 20.5178 13.8682 20.2447 13.6621 20.031C13.4439 19.8054 13.1529 19.7222 13.0074 19.8291C12.8498 19.9478 12.8861 20.2209 13.1044 20.4347ZM14.038 21.539C14.2441 21.7764 14.5472 21.8596 14.7048 21.7408C14.8624 21.6221 14.826 21.349 14.6078 21.1115C14.3896 20.874 14.0986 20.7909 13.941 20.9096C13.7712 21.0284 13.8197 21.3134 14.038 21.539ZM15.0807 22.5482C14.8745 22.3345 14.8382 22.0614 14.9837 21.9545C15.1413 21.8358 15.4323 21.9189 15.6384 22.1327C15.8445 22.3583 15.8809 22.6314 15.7354 22.7382C15.5778 22.857 15.2868 22.762 15.0807 22.5482ZM16.2203 23.4507C16.0264 23.2488 15.9779 22.9876 16.1355 22.8807C16.281 22.7739 16.5477 22.857 16.7417 23.0707C16.9478 23.2726 16.9842 23.5338 16.8387 23.6407C16.6932 23.7475 16.4143 23.6644 16.2325 23.4507H16.2203ZM17.4328 24.2344C17.2509 24.0444 17.2267 23.8188 17.3479 23.7238C17.4692 23.6288 17.7238 23.7 17.9056 23.89C18.0875 24.0681 18.1118 24.3056 17.9905 24.4006C17.8571 24.4956 17.6025 24.4243 17.4328 24.2344ZM18.6695 24.8755C18.5119 24.7093 18.4755 24.5075 18.5967 24.4125C18.718 24.3293 18.9362 24.3887 19.0938 24.5668C19.2514 24.7331 19.2878 24.9349 19.1666 25.0299C19.0453 25.113 18.8271 25.0537 18.6695 24.8755ZM19.9183 25.3743C19.7849 25.2318 19.7486 25.0418 19.8577 24.9587C19.9668 24.8874 20.1608 24.9468 20.3063 25.1012C20.4518 25.2555 20.476 25.4336 20.3669 25.5167C20.2578 25.588 20.0638 25.5286 19.9183 25.3743ZM21.1671 25.7305C21.0337 25.588 21.0095 25.4218 21.1065 25.3505C21.2035 25.2793 21.3853 25.3268 21.5066 25.4692C21.6278 25.5999 21.6642 25.778 21.5672 25.8492C21.4702 25.9205 21.2884 25.8611 21.1671 25.7305ZM22.3553 25.9205C22.2341 25.8017 22.2341 25.6474 22.3068 25.5761C22.3917 25.5167 22.5493 25.5642 22.6705 25.6949C22.7918 25.8136 22.8039 25.9561 22.719 26.0155C22.6342 26.0867 22.4765 26.0273 22.3553 25.9205ZM23.5192 25.9205C23.4344 25.8255 23.4101 25.7067 23.4829 25.6592C23.5435 25.6117 23.6769 25.6592 23.7617 25.7423C23.8466 25.8373 23.8587 25.9442 23.7981 25.9917C23.7254 26.0392 23.6041 26.0036 23.5192 25.9205ZM24.5983 25.7542C24.5256 25.683 24.5256 25.5999 24.5741 25.5642C24.6226 25.5286 24.7074 25.5642 24.7802 25.6236C24.8408 25.6949 24.8529 25.778 24.8044 25.8136C24.7438 25.8492 24.6589 25.8136 24.5983 25.7542ZM25.5561 25.4218C25.5076 25.3743 25.4955 25.303 25.5319 25.2793C25.5683 25.2555 25.641 25.2793 25.6895 25.3268C25.738 25.3861 25.738 25.4455 25.7016 25.4692C25.6653 25.5049 25.6046 25.4692 25.5561 25.4218ZM26.3685 24.9705C26.417 25.018 26.4776 25.0299 26.514 25.0062C26.5503 24.9824 26.5382 24.923 26.4897 24.8874C26.4533 24.8281 26.3927 24.8162 26.3564 24.8399C26.32 24.8637 26.3321 24.923 26.3685 24.9587V24.9705ZM12.4739 10.1399C12.5224 10.1874 12.5952 10.2112 12.6194 10.1874C12.6558 10.1637 12.6436 10.1043 12.5952 10.0568C12.5467 10.0093 12.4739 9.98557 12.4497 10.0093C12.4133 10.0331 12.4254 10.0924 12.4739 10.1399ZM9.4913 13.3697C9.56405 13.4053 9.62467 13.3934 9.63679 13.334C9.64892 13.2865 9.60042 13.2153 9.52768 13.1678C9.45493 13.1322 9.39431 13.144 9.38218 13.1915C9.38218 13.2509 9.41856 13.334 9.4913 13.3697ZM9.60042 14.6758C9.68529 14.7233 9.77016 14.6995 9.78229 14.6283C9.79441 14.5452 9.73379 14.4502 9.63679 14.3908C9.55192 14.3433 9.46705 14.3671 9.45493 14.4383C9.43068 14.5214 9.50343 14.6164 9.60042 14.6758ZM9.90353 16.0413C10.0248 16.1125 10.146 16.0888 10.146 15.9819C10.1703 15.8869 10.0854 15.7445 9.96415 15.6851C9.84291 15.6138 9.72167 15.6376 9.70954 15.7445C9.69742 15.8394 9.78229 15.9819 9.90353 16.0413ZM10.4006 17.4662C10.5704 17.5493 10.7159 17.5255 10.7401 17.3949C10.7644 17.2643 10.6552 17.0743 10.4976 16.9912C10.3279 16.8962 10.1703 16.9319 10.1339 17.0625C10.1218 17.1931 10.2309 17.3831 10.4006 17.4662ZM11.0917 18.8554C11.2736 18.9623 11.4433 18.9267 11.4676 18.7842C11.4918 18.6298 11.3706 18.428 11.1887 18.333C10.9947 18.2261 10.825 18.2617 10.8007 18.4161C10.7765 18.5586 10.9099 18.7604 11.0917 18.8554ZM11.9404 20.2328C12.1465 20.3516 12.3405 20.3041 12.3648 20.1378C12.389 19.9716 12.2435 19.7579 12.0496 19.6391C11.8434 19.5204 11.6494 19.5679 11.6252 19.7341C11.6009 19.9003 11.7464 20.126 11.9526 20.2328H11.9404ZM12.9468 21.5627C13.1771 21.6814 13.3832 21.6339 13.4075 21.4558C13.4439 21.2777 13.2862 21.0284 13.068 20.9096C12.8376 20.7909 12.6315 20.8265 12.5952 21.0165C12.5588 21.1946 12.7164 21.4321 12.9589 21.5627H12.9468ZM14.0743 22.8095C14.3168 22.952 14.5593 22.8926 14.5957 22.6907C14.6321 22.5008 14.4502 22.2158 14.2077 22.0852C13.9652 21.9545 13.7227 22.002 13.6985 22.2039C13.6621 22.4058 13.8197 22.6789 14.0743 22.8095ZM15.311 23.9731C15.5899 24.1275 15.8445 24.0681 15.8809 23.8544C15.9172 23.6169 15.7232 23.3201 15.4565 23.1657C15.1776 23.0113 14.923 23.0707 14.8867 23.2963C14.8382 23.51 15.0322 23.8188 15.311 23.9731ZM16.6326 24.9824C16.9236 25.1368 17.1903 25.0774 17.2388 24.8399C17.2752 24.6024 17.0812 24.2937 16.7781 24.1275C16.4871 23.9731 16.2203 24.0325 16.1719 24.27C16.1476 24.5075 16.3416 24.8162 16.6326 24.9824ZM18.0026 25.8373C18.3057 26.0036 18.5846 25.9323 18.6331 25.6949C18.6695 25.4574 18.4634 25.1249 18.1603 24.9587C17.8693 24.7924 17.5783 24.8637 17.5419 25.1012C17.4934 25.3386 17.6995 25.6711 18.0026 25.8373ZM19.4091 26.5142C19.1181 26.3479 18.9241 26.0392 18.9605 25.8017C19.009 25.5642 19.2757 25.5049 19.5667 25.6592C19.8577 25.8255 20.0517 26.1342 20.0153 26.3717C19.9668 26.6091 19.7001 26.6685 19.4091 26.5142ZM20.8155 26.9891C20.5366 26.8466 20.3548 26.5498 20.3911 26.3242C20.4396 26.0867 20.6943 26.0392 20.961 26.1936C21.2399 26.3479 21.4338 26.6448 21.3853 26.8704C21.349 27.096 21.0822 27.1554 20.8155 26.9891ZM22.1977 27.2741C21.9552 27.1554 21.7855 26.8704 21.8218 26.6804C21.8582 26.4785 22.0886 26.4192 22.3432 26.5617C22.5857 26.6804 22.7554 26.9654 22.719 27.1554C22.6705 27.3691 22.4523 27.4166 22.1977 27.2741ZM23.5314 27.381C23.3131 27.2622 23.1676 27.0247 23.1919 26.8348C23.2283 26.6566 23.4344 26.6092 23.6647 26.716C23.883 26.8466 24.0285 27.096 23.9921 27.2741C23.9678 27.4522 23.7496 27.5116 23.5314 27.381ZM24.7802 27.286C24.5862 27.1672 24.4407 26.9535 24.4771 26.7991C24.5134 26.6329 24.6953 26.5973 24.9014 26.7041C25.0954 26.8229 25.2288 27.0366 25.2045 27.191C25.1682 27.3572 24.9863 27.3928 24.7802 27.286ZM25.932 27.001C25.7501 26.906 25.6289 26.7041 25.6531 26.5617C25.6895 26.4192 25.8593 26.3835 26.029 26.4785C26.223 26.5854 26.3321 26.7754 26.3079 26.9179C26.2836 27.0722 26.1139 27.1079 25.932 27.001ZM26.9504 26.5379C26.7928 26.4548 26.6837 26.2767 26.708 26.1461C26.7322 26.0154 26.8898 25.9798 27.0596 26.0629C27.2172 26.1579 27.3263 26.336 27.3021 26.4667C27.2657 26.5973 27.1202 26.6329 26.9504 26.5379ZM27.9325 25.9323C28.0538 25.9323 28.1023 25.8492 28.0538 25.7305C28.0053 25.6117 27.8719 25.5049 27.7507 25.493C27.6294 25.493 27.5809 25.588 27.6294 25.7067C27.69 25.8255 27.8234 25.9323 27.9325 25.9323ZM28.6357 25.1012C28.7206 25.1012 28.7449 25.0299 28.6964 24.9349C28.6479 24.8518 28.5387 24.7924 28.466 24.7924C28.3933 24.8043 28.369 24.8755 28.4175 24.9705C28.4539 25.0537 28.563 25.113 28.6357 25.113V25.1012ZM29.0843 24.0681C29.145 24.1037 29.2056 24.0919 29.2177 24.0444C29.2298 23.9969 29.1935 23.9256 29.1328 23.89C29.0722 23.8544 29.0116 23.8663 28.9995 23.9256C28.9873 23.9731 29.0237 24.0444 29.0843 24.0681ZM9.5883 12.1941C9.66104 12.2298 9.70954 12.2179 9.72167 12.1585C9.73379 12.111 9.68529 12.0398 9.62467 12.0041C9.55192 11.9685 9.4913 11.9804 9.4913 12.0279C9.47918 12.0754 9.52768 12.1466 9.5883 12.1941ZM8.15762 14.1771C8.23036 14.2008 8.27886 14.1533 8.27886 14.094C8.27069 14.0534 8.25185 14.0156 8.22421 13.9844C8.19656 13.9532 8.16107 13.9295 8.12124 13.9159C8.0485 13.8921 8 13.9396 8 14.0108C8.01212 14.0702 8.08487 14.1533 8.15762 14.1771Z" fill="url(#paint0_linear_9_398179)"/>
<circle cx="20" cy="20" r="19.5" stroke="black" stroke-opacity="0.05"/>
<defs>
<linearGradient id="paint0_linear_9_398179" x1="13.2862" y1="9.53436" x2="24.6797" y2="30.0194" gradientUnits="userSpaceOnUse">
<stop stop-color="#00D7FC"/>
<stop offset="0.53" stop-color="#0070FA"/>
</linearGradient>
</defs>
</svg>
