<svg width="40" height="40" viewBox="0 0 40 40" fill="none" xmlns="http://www.w3.org/2000/svg">
<circle cx="20" cy="20" r="20" fill="black"/>
<path d="M24.9575 10.8307C25.6357 11.9615 25.8926 13.3234 25.7038 14.5873C25.0249 19.1341 19.7553 21.07 16.2054 18.2805C13.8145 16.4018 13.2773 13.0141 15.0393 10.4979C16.8264 7.94414 20.1687 7.27379 22.8627 8.77973C22.8838 8.79164 22.9082 8.79625 22.9323 8.79286C22.9563 8.78946 22.9786 8.77824 22.9958 8.76094L24.75 7.0091C24.7561 7.00326 24.7642 7 24.7727 7C24.7812 7 24.7893 7.00326 24.7954 7.0091L26.7391 8.93087C26.7416 8.93328 26.7435 8.93614 26.7448 8.9393C26.7461 8.94246 26.7468 8.94585 26.7468 8.94928C26.7468 8.9527 26.7461 8.95609 26.7448 8.95925C26.7435 8.96241 26.7416 8.96528 26.7391 8.96768L24.9708 10.7219C24.9567 10.736 24.9478 10.7544 24.9454 10.7742C24.943 10.7939 24.9472 10.8138 24.9575 10.8307ZM17.5445 16.1207C18.8053 17.3322 20.8532 17.3823 22.1587 16.2045C24.3459 14.2326 22.9778 10.3507 19.9597 10.3475C18.5508 10.3468 17.3495 11.1252 16.8053 12.4189C16.2633 13.7079 16.5304 15.1465 17.5445 16.1207Z" fill="white"/>
<path d="M25.556 25.9175C25.686 26.591 25.751 27.092 25.751 27.4203C25.7521 29.2659 25.7523 31.1138 25.7518 32.964C25.7518 32.9736 25.7481 32.9828 25.7415 32.9895C25.7349 32.9963 25.7259 33.0001 25.7166 33.0001L23.2646 32.9993C23.2603 32.9993 23.256 32.9985 23.252 32.9968C23.248 32.9952 23.2444 32.9929 23.2414 32.9899C23.2383 32.9869 23.2359 32.9834 23.2342 32.9795C23.2326 32.9756 23.2317 32.9714 23.2317 32.9672C23.2349 31.2725 23.2346 29.428 23.231 27.4337C23.227 25.468 21.9412 23.7287 19.8353 23.7687C18.4816 23.7948 17.5374 24.3858 17.0028 25.5416C16.7031 26.1901 16.5502 26.9272 16.5439 27.7532C16.5308 29.498 16.5241 31.242 16.5235 32.9852L14.0489 32.9797C14.0228 32.9797 14.0097 32.9667 14.0097 32.9406C13.9951 30.8726 14.0011 28.8968 14.0277 27.0131C14.0434 25.8987 14.4632 24.7899 15.1022 23.8211C16.9049 21.0888 20.7344 20.3668 23.3531 22.4311C24.4683 23.3103 25.2026 24.4724 25.556 25.9175Z" fill="white"/>
<circle cx="20" cy="20" r="19.5" stroke="black" stroke-opacity="0.05"/>
</svg>
