<svg width="40" height="40" viewBox="0 0 40 40" fill="none" xmlns="http://www.w3.org/2000/svg">
<circle cx="20" cy="20" r="20" fill="#FF6600"/>
<g clip-path="url(#clip0_9_412241)">
<path d="M7.7019 17.5817C8.26533 17.5501 8.8488 17.6879 9.31326 18.0346C9.71519 18.3309 10.0042 18.779 10.1469 19.2707C10.2987 19.7959 10.3181 20.3575 10.244 20.8991C10.176 21.3654 10.0084 21.8232 9.71944 22.1869C9.39786 22.5908 8.94546 22.8699 8.44019 22.9761C7.9056 23.0961 7.347 23.0477 6.84097 22.8377C6.41438 22.654 6.05749 22.339 5.82219 21.9385C5.52955 21.4443 5.41905 20.8505 5.42937 20.2744C5.42633 19.6617 5.56658 19.0297 5.91812 18.5319C6.32612 17.9375 7.01644 17.6108 7.7019 17.5817ZM7.64908 18.751C7.38315 18.7875 7.13605 18.9435 6.98608 19.1779C6.7918 19.4796 6.7323 19.8518 6.71955 20.2094C6.71165 20.6071 6.75415 21.0236 6.94601 21.3745C7.07897 21.6167 7.3103 21.7952 7.57137 21.8511C7.89012 21.9197 8.24894 21.8827 8.51669 21.6732C8.75651 21.482 8.88522 21.1754 8.94412 20.8718C9.00847 20.5257 9.0109 20.1675 8.95687 19.8196C8.90647 19.51 8.79355 19.1936 8.56222 18.9842C8.31572 18.7565 7.96358 18.7019 7.64908 18.751ZM12.1073 18.306C12.4753 17.8537 13.358 17.5216 13.9288 17.5774V18.8542C13.5663 18.8573 12.8438 18.9065 12.5105 19.0734C12.3648 19.153 12.1073 19.2738 12.1073 19.442V23.0375H10.893V17.5774H12.1073V18.306ZM15.5438 17.7584C16.0422 17.5865 16.5783 17.5726 17.0932 17.6521C17.5267 17.7268 17.976 17.9114 18.248 18.3017C18.4568 18.5895 18.5194 18.969 18.4969 19.3272C18.4981 20.5427 18.489 21.822 18.503 23.0369H17.3573C17.3197 22.8851 17.2826 22.6707 17.2456 22.519C16.9156 22.7557 16.5379 22.9174 16.1388 22.9925C15.7429 23.0599 15.3191 23.0702 14.9475 22.8845C14.6233 22.7278 14.372 22.4157 14.2675 22.0509C14.1388 21.6076 14.1619 21.097 14.3932 20.6969C14.5997 20.3405 14.9421 20.1062 15.2924 19.9422C15.9135 19.6575 16.5862 19.5397 17.2529 19.4553C17.2474 19.2398 17.2893 18.9921 17.1454 18.8142C16.9432 18.5665 16.6032 18.5507 16.3191 18.5774C15.922 18.6108 15.5553 18.8397 15.3076 19.1712C15.0162 18.9933 14.7247 18.8166 14.4357 18.6345C14.6975 18.2274 15.0874 17.9189 15.5438 17.7577V17.7584ZM16.0671 20.5858C15.8668 20.6793 15.6646 20.8099 15.5523 21.0187C15.4011 21.2889 15.429 21.6629 15.6245 21.8991C15.674 21.9571 15.7357 22.0036 15.8051 22.0352C15.8746 22.0668 15.9501 22.0827 16.0264 22.0818C16.4745 22.0909 16.8904 21.8432 17.2164 21.5281C17.2146 21.1177 17.2164 20.7079 17.2152 20.298C16.8254 20.3509 16.432 20.4231 16.0671 20.5858ZM21.8259 17.6551C22.2339 17.5732 22.6759 17.5884 23.0584 17.7717C23.5811 18.0206 23.6327 18.7043 23.643 19.207V23.0375H22.4288V19.4262C22.4221 19.2009 22.4634 18.9532 22.3189 18.7753C22.1725 18.6077 21.9364 18.595 21.736 18.6187C21.3365 18.6709 20.9097 18.9125 20.6073 19.1779V23.0375H19.393V17.8622C19.7494 17.8094 20.1222 17.7577 20.4792 17.7061C20.5126 17.9077 20.5563 18.1087 20.5934 18.3102C20.9674 18.0261 21.3681 17.7547 21.8259 17.6545V17.6551ZM25.0959 18.3934C25.3971 17.9557 25.8749 17.6485 26.3898 17.6072C26.7213 17.5871 27.0619 17.6187 27.3709 17.7517C27.6065 17.8525 27.8257 18.0231 27.938 18.2684C27.9695 18.0789 28.0048 17.7675 28.0327 17.5774H29.1219V22.7916C29.1146 23.2925 29.009 23.8261 28.6726 24.2007C28.2974 24.6185 27.7413 24.7763 27.2149 24.8322C26.6077 24.8935 25.9599 24.8583 25.4153 24.5389C25.0662 24.3386 24.7912 23.9858 24.714 23.5693L25.9842 23.3532C26.017 23.4849 26.0753 23.6185 26.1876 23.695C26.4134 23.8498 26.6945 23.8589 26.9556 23.8553C27.2039 23.8547 27.4717 23.7836 27.6429 23.5821C27.8311 23.3599 27.8712 23.0478 27.8797 22.7606C27.8773 22.5439 27.8845 22.3271 27.8742 22.111C27.7455 22.3301 27.5919 22.5457 27.3745 22.6738C27.0607 22.862 26.686 22.8772 26.3357 22.842C26.091 22.8153 25.8544 22.7386 25.6405 22.6168C25.4266 22.4949 25.24 22.3304 25.0923 22.1334C24.7159 21.635 24.5841 20.9799 24.5787 20.3545C24.5665 19.6684 24.7037 18.9532 25.0959 18.3934ZM26.6654 18.5816C26.4772 18.6181 26.3042 18.7255 26.1815 18.8791C26.0048 19.0965 25.9229 19.38 25.8852 19.6593C25.8503 19.9773 25.8493 20.298 25.8822 20.6162C25.9168 20.9289 25.9878 21.261 26.2015 21.4935C26.3612 21.6762 26.6035 21.7534 26.8336 21.7461C27.0807 21.7521 27.3369 21.6659 27.513 21.4771C27.706 21.2689 27.7965 20.9799 27.842 20.6975C27.8814 20.4289 27.8955 20.1571 27.8839 19.8858C27.8621 19.516 27.7601 19.1311 27.5087 18.8609C27.4034 18.7466 27.2707 18.661 27.1232 18.6121C26.9757 18.5633 26.8181 18.5528 26.6654 18.5816ZM30.6191 18.3697C30.947 17.9405 31.4436 17.6885 31.9518 17.623C32.5195 17.5513 33.1297 17.6248 33.619 17.9648C34.0179 18.2368 34.2942 18.683 34.4302 19.1645C34.554 19.6089 34.5953 20.1487 34.5589 20.6107H31.3246C31.327 20.9616 31.3756 21.2604 31.5547 21.5615C31.6992 21.8068 31.9494 21.9634 32.2147 22.0047C32.4885 22.0472 32.7812 22.0296 33.0319 21.893C33.2541 21.7722 33.4259 21.5694 33.5668 21.352C33.8813 21.5409 34.1964 21.7291 34.5121 21.9155C34.2225 22.468 33.6876 22.8347 33.1193 22.9682C32.5389 23.1006 31.9135 23.103 31.3562 22.8614C30.9221 22.6762 30.5639 22.3095 30.3544 21.862C30.0854 21.2883 30.0302 20.6277 30.0684 19.9939C30.1073 19.414 30.2652 18.8221 30.6185 18.3697H30.6191ZM31.6239 18.8476C31.4424 19.0637 31.3653 19.357 31.3447 19.6411C31.9992 19.6423 32.6543 19.6411 33.3088 19.6417C33.3027 19.3618 33.2426 19.0667 33.0641 18.8536C32.8619 18.6071 32.5395 18.5179 32.2438 18.5416C32.1251 18.5478 32.0089 18.5781 31.9024 18.6307C31.7958 18.6833 31.701 18.7571 31.6239 18.8476Z" fill="white"/>
</g>
<circle cx="20" cy="20" r="19.5" stroke="black" stroke-opacity="0.05"/>
<defs>
<clipPath id="clip0_9_412241">
<rect width="30" height="8" fill="white" transform="translate(5 17)"/>
</clipPath>
</defs>
</svg>
