<svg width="40" height="40" viewBox="0 0 40 40" fill="none" xmlns="http://www.w3.org/2000/svg">
<circle cx="20" cy="20" r="20" fill="#F80000"/>
<path d="M15.5898 27.1772C11.3999 27.1772 8 23.7855 8 19.5945C8 15.4036 11.3999 12 15.5898 12H24.4114C28.6024 12 32 15.4036 32 19.5945C32 23.7855 28.6024 27.1772 24.4112 27.1772H15.5898ZM24.215 24.5003C26.9296 24.5003 29.1281 22.3078 29.1281 19.5945C29.1281 16.8815 26.9296 14.6769 24.2152 14.6769H15.7848C13.0715 14.6769 10.8719 16.8815 10.8719 19.5945C10.8719 22.3078 13.0715 24.5003 15.7848 24.5003H24.2152H24.215Z" fill="white"/>
<circle cx="20" cy="20" r="19.5" stroke="black" stroke-opacity="0.05"/>
</svg>
