<svg width="40" height="40" viewBox="0 0 40 40" fill="none" xmlns="http://www.w3.org/2000/svg">
<circle cx="20" cy="20" r="20" fill="#003186"/>
<g clip-path="url(#clip0_9_404172)">
<path d="M19.8467 7.85742L20.2091 9.03164H21.3834L20.4338 9.75717L20.7962 10.9314L19.8467 10.2059L18.8965 10.9314L19.2596 9.75717L18.3094 9.03164H19.4836L19.8467 7.85742ZM25.073 9.39471L25.4354 10.5689H26.6096L25.6601 11.2945L26.0225 12.4687L25.073 11.7431L24.1228 12.4687L24.4859 11.2945L23.5357 10.5689H24.7099L25.073 9.39471ZM28.7614 12.4687L29.1244 13.6429H30.2986L29.3485 14.3684L29.7115 15.5426L28.7614 14.8171L27.8112 15.5426L28.1742 14.3684L27.2241 13.6429H28.3983L28.7614 12.4687ZM30.6059 17.3871L30.9689 18.5613H32.1431L31.193 19.2869L31.556 20.4611L30.6059 19.7356L29.6563 20.4611L30.0187 19.2869L29.0692 18.5613H30.2434L30.6059 17.3871ZM29.6836 22.6128L30.0461 23.787H31.2203L30.2707 24.5132L30.6332 25.6874L29.6836 24.9612L28.7334 25.6874L29.0959 24.5132L28.1463 23.787H29.3205L29.6836 22.6128ZM26.9168 26.6096L27.2799 27.7838H28.4541L27.504 28.5094L27.867 29.6836L26.9168 28.9581L25.9667 29.6836L26.3297 28.5094L25.3802 27.7838H26.5544L26.9168 26.6096ZM22.6134 28.7613L22.9765 29.9356H24.1507L23.2005 30.6611L23.5636 31.8353L22.6134 31.1098L21.6632 31.8353L22.0263 30.6611L21.0767 29.9356H22.2503L22.6134 28.7613ZM17.6944 28.7613L18.0568 29.9356H19.231L18.2815 30.6611L18.6445 31.8353L17.6944 31.1098L16.7442 31.8353L17.1072 30.6611L16.1571 29.9356H17.3313L17.6944 28.7613ZM13.0837 26.6096L13.4468 27.7838H14.621L13.6708 28.5094L14.0339 29.6836L13.0837 28.9581L12.1335 29.6836L12.4966 28.5094L11.5464 27.7838H12.7206L13.0837 26.6096ZM10.3164 22.6128L10.6794 23.787H11.8536L10.9035 24.5132L11.2665 25.6874L10.3164 24.9612L9.36678 25.6874L9.72985 24.5132L8.77967 23.787H9.95389L10.3164 22.6128ZM9.39471 17.3871L9.75717 18.5613H10.9314L9.98242 19.2869L10.3449 20.4611L9.39531 19.7356L8.44514 20.4611L8.80821 19.2869L7.85742 18.5613H9.03164L9.39471 17.3871ZM11.2392 12.4687L11.6017 13.6429H12.7753L11.8251 14.3684L12.1882 15.5426L11.238 14.8171L10.2878 15.5426L10.6509 14.3684L9.70071 13.6429H10.8749L11.238 12.4687H11.2392ZM14.9276 9.39471L15.2907 10.5689H16.4649L15.5147 11.2945L15.8778 12.4687L14.9276 11.7431L13.978 12.4687L14.3405 11.2945L13.3909 10.5689H14.5651L14.9276 9.39471ZM18.5674 13.3946C19.806 13.3946 20.7392 13.7072 21.4866 14.4686C22.2382 15.23 22.6134 16.1826 22.6134 17.3264C22.6134 18.3039 22.3341 19.1636 21.7756 19.9062C21.0349 20.891 19.99 21.3833 18.6391 21.3833C17.2851 21.3833 16.2378 20.914 15.4977 19.9748C14.913 19.2316 14.621 18.3513 14.621 17.3325C14.621 16.188 14.9999 15.2354 15.7588 14.4741C16.5207 13.7091 17.4418 13.3946 18.5674 13.3946ZM18.6342 13.7588C17.9457 13.7588 17.4217 14.1183 17.0629 14.8377C16.7709 15.4291 16.6246 16.2773 16.6246 17.3835C16.6246 18.698 16.8504 19.6694 17.3015 20.2978C17.616 20.7373 18.0568 20.9571 18.6227 20.9571C19.004 20.9571 19.3221 20.8624 19.5771 20.673C19.9031 20.4307 20.1563 20.0446 20.3379 19.514C20.5194 18.9797 20.6099 18.2851 20.6099 17.429C20.6099 16.4096 20.5176 15.6483 20.3324 15.145C20.1472 14.6368 19.9104 14.2792 19.622 14.0703C19.3353 13.8615 18.9883 13.7519 18.6336 13.7582L18.6342 13.7588Z" fill="white"/>
<path d="M20.0004 22.6594V24.8992C20.0004 25.3315 20.0241 25.6047 20.0715 25.7188C20.1275 25.8336 20.2199 25.9267 20.3344 25.9835C20.4588 26.0503 20.6908 26.0837 21.0301 26.0837V26.3023H17.0801V26.0837C17.4237 26.0837 17.6556 26.0503 17.7759 25.9835C17.8893 25.9243 17.9798 25.829 18.0333 25.7127C18.0843 25.6022 18.1104 25.3315 18.1104 24.8992V19.5812C18.1104 19.1489 18.0843 18.8775 18.0333 18.7676C17.9822 18.6496 17.891 18.5535 17.7759 18.4962C17.652 18.4295 17.4201 18.3961 17.0801 18.3961V18.1787H20.5317C21.4303 18.1787 22.0872 18.2455 22.5037 18.3791C22.9202 18.5126 23.2596 18.8909 23.5225 19.2521C23.7854 19.6104 23.9171 20.0305 23.9171 20.5138C23.9171 21.1027 23.7198 21.5902 23.3252 21.9752C23.0732 22.2192 22.721 22.402 22.2681 22.5234L24.0537 25.2289C24.2875 25.5786 24.4538 25.7971 24.5522 25.8834C24.7022 26.0048 24.8758 26.0716 25.0731 26.0837V26.3023H22.7338L20.3398 22.6594H20.0004ZM20.0004 18.6092V22.2405H20.1644C20.6719 22.2405 21.052 22.1919 21.304 22.0936C21.5559 21.991 21.7533 21.8106 21.8953 21.5514C22.041 21.2879 22.1145 20.9461 22.1145 20.5253C22.1145 19.9164 21.9809 19.3359 21.715 19.0451C21.4515 18.7543 21.0265 18.6092 20.4382 18.6092H20.0004Z" fill="white"/>
</g>
<circle cx="20" cy="20" r="19.5" stroke="black" stroke-opacity="0.05"/>
<defs>
<clipPath id="clip0_9_404172">
<rect width="26" height="25" fill="white" transform="translate(7 7)"/>
</clipPath>
</defs>
</svg>
