<svg width="40" height="40" viewBox="0 0 40 40" fill="none" xmlns="http://www.w3.org/2000/svg">
<circle cx="20" cy="20" r="20" fill="#003B75"/>
<g clip-path="url(#clip0_9_410906)">
<path d="M22.4287 15.7496H24.8572V24.2496H22.4287V15.7496ZM29.1437 15.7496C28.2047 15.6905 27.2777 15.9851 26.5451 16.5754C26.0594 17.0246 25.7376 17.7289 25.7437 18.4089C25.7437 18.9432 25.9622 19.4654 26.369 19.8418C26.9762 20.3457 27.644 20.4975 28.3301 20.6614C28.834 20.7829 29.344 20.8982 29.848 21.1593C30.018 21.2382 30.3215 21.39 30.3215 21.7907C30.3215 22.2764 29.7326 22.4464 29.083 22.4282C28.7477 22.4182 28.4265 22.2913 28.1749 22.0696C27.9232 21.8479 27.7569 21.5452 27.7047 21.2139C26.9581 21.195 26.2111 21.195 25.4644 21.2139C25.4644 21.9486 25.7437 22.8775 26.3022 23.3693C27.0794 24.0432 28.1237 24.2496 29.1437 24.2496C30.9408 24.2496 32.7501 23.4846 32.7501 21.4932C32.7501 20.8861 32.5619 20.2789 32.0762 19.8904C31.4569 19.3864 30.6555 19.2225 29.854 19.0707C29.338 18.9675 28.8219 18.8643 28.3605 18.6639C28.1601 18.5911 27.899 18.4029 27.893 18.1782C27.893 17.5711 28.6822 17.5711 29.004 17.5711C29.7387 17.5711 30.1819 17.9111 30.2305 18.4454H32.4708C32.4222 17.7532 32.1369 16.9275 31.5783 16.4843C31.0956 16.1141 30.5239 15.8775 29.9208 15.7982C29.6658 15.7679 29.4047 15.7496 29.1437 15.7496ZM21.2144 15.7496H15.143V17.5711H16.9644V24.2496H19.393V17.5711H21.2144V15.7496ZM6.64295 19.9996C6.64903 17.6986 8.46438 15.7496 10.893 15.7496C13.3215 15.7496 15.1247 17.6804 15.143 19.9996C15.1612 22.3311 13.4005 24.2496 10.893 24.2496C10.3303 24.2664 9.77011 24.168 9.24687 23.9604C8.72364 23.7527 8.24839 23.4403 7.85034 23.0423C7.45229 22.6442 7.13985 22.169 6.93222 21.6457C6.72458 21.1225 6.62615 20.5623 6.64295 19.9996ZM12.7144 19.9996C12.7144 18.8157 12.1801 17.5711 10.893 17.5711C9.59974 17.5711 9.07153 18.8825 9.07153 19.9996C9.07153 21.1168 9.58153 22.4282 10.893 22.4282C12.2044 22.4282 12.7144 21.1836 12.7144 19.9996Z" fill="#FD5375"/>
</g>
<circle cx="20" cy="20" r="19.5" stroke="black" stroke-opacity="0.05"/>
<defs>
<clipPath id="clip0_9_410906">
<rect width="27" height="10" fill="white" transform="translate(6 15)"/>
</clipPath>
</defs>
</svg>
