<svg width="40" height="40" viewBox="0 0 40 40" fill="none" xmlns="http://www.w3.org/2000/svg">
<circle cx="20" cy="20" r="20" fill="#004890"/>
<g clip-path="url(#clip0_9_393416)">
<path d="M20.6619 5.00977C21.225 5.59054 21.6841 6.26156 22.2041 6.88158C23.8816 9.03593 25.5906 11.1667 27.2623 13.327C25.3787 12.6716 23.3774 12.185 21.3702 12.4126C20.4225 12.5343 19.4572 12.7246 18.6115 13.1916C19.2924 13.1523 19.9595 12.9934 20.6383 12.9208C21.8843 12.756 23.1459 12.9365 24.3506 13.2642C25.7181 13.6389 27.0033 14.361 27.9745 15.3989C28.9654 16.4741 29.5344 17.981 29.3048 19.4447C29.1302 20.5945 28.3905 21.5814 27.4958 22.2897C26.6325 22.9627 25.6357 23.4453 24.6194 23.8378C22.7024 24.5147 20.6678 24.8659 18.6331 24.8678C16.7436 24.7639 14.7973 24.7011 13.0255 23.9633C11.9896 23.5121 11.0262 22.8312 10.3767 21.8933C9.92546 21.2616 9.92743 20.4022 10.1825 19.6919C10.5769 18.6971 11.3676 17.9143 12.223 17.2943C13.8751 16.1111 15.9039 15.5775 17.9091 15.4068C20.501 15.1301 23.2616 15.4342 25.516 16.8273C26.3166 17.3021 26.9856 17.9535 27.6567 18.5873C27.0994 17.6671 26.2832 16.9411 25.4317 16.2995C23.7266 15.0791 21.6194 14.6062 19.5612 14.4453C17.9896 14.3492 16.4081 14.4081 14.8542 14.6651C14.1576 14.7789 13.4827 15.0026 12.7803 15.085C13.0393 14.6671 13.3493 14.2884 13.6514 13.9038C15.9961 10.945 18.3113 7.96268 20.6619 5.00977ZM12.2505 24.2321C13.673 24.8796 15.1348 25.4761 16.675 25.7861C17.862 26.0157 19.0707 26.1432 20.2793 26.1236C23.2734 26.153 26.293 25.5997 29.0242 24.3499C28.4748 25.1523 27.8411 25.892 27.2446 26.6592C25.0648 29.4375 22.8594 32.1981 20.6913 34.9862C17.8836 31.3976 15.0268 27.8463 12.2505 24.2321Z" fill="white"/>
</g>
<circle cx="20" cy="20" r="19.5" stroke="black" stroke-opacity="0.05"/>
<defs>
<clipPath id="clip0_9_393416">
<rect width="19.3656" height="30" fill="white" transform="translate(10 5)"/>
</clipPath>
</defs>
</svg>
