<svg width="40" height="40" viewBox="0 0 40 40" fill="none" xmlns="http://www.w3.org/2000/svg">
<circle cx="20" cy="20" r="20" fill="#F6F8FA"/>
<g clip-path="url(#clip0_9_391927)">
<path d="M22.8385 14.8442L19.3406 11.3485L19.3374 11.3421L19.3406 11.3346L19.3994 11.2716L19.4571 11.2171L19.5126 11.1711L19.566 11.1327L19.6205 11.0995L19.6761 11.0707L19.7348 11.0461L19.7936 11.0269L19.8534 11.0119L19.9143 11.0023L19.9752 10.998H20.0361L20.1088 11.0055L20.1804 11.0194L20.2509 11.0397L20.3192 11.0664L20.3855 11.0995L20.4485 11.1391L20.5073 11.1839L20.5639 11.2352L24.1665 14.841V14.8485L20.5703 18.4404L20.5115 18.4938L20.4496 18.5408L20.3833 18.5814L20.3139 18.6145L20.2412 18.6412L20.1675 18.6604L20.0927 18.6722L20.0169 18.6765L19.94 18.6743L19.8641 18.6647L19.7893 18.6466L19.7156 18.6209L19.6451 18.5889L19.5778 18.5493L19.5148 18.5034L19.4549 18.451L19.4047 18.4019L19.3492 18.3442L19.347 18.3399L19.3492 18.3346L22.8406 14.8463L22.8427 14.8421L22.8406 14.8378L22.8385 14.8442Z" fill="#E40046"/>
<path d="M17.1602 14.8361V14.8425L19.3387 17.0177V17.0209V17.0241L19.2564 17.1096L19.1859 17.1737L19.1175 17.225L19.0502 17.2645L18.9807 17.2965L18.9092 17.3211L18.8354 17.3393L18.7607 17.351L18.6859 17.3553L18.6122 17.3532L18.5384 17.3435L18.4658 17.3275L18.3707 17.2944L18.2799 17.2485L18.1955 17.1918L18.1175 17.1235L15.8387 14.8467L15.8354 14.8393L15.8387 14.8318L18.1164 12.5561L18.1613 12.5145L18.2083 12.4771L18.2585 12.4429L18.3109 12.413L18.3654 12.3863L18.422 12.3649L18.4797 12.3478L18.5374 12.335L18.6186 12.3254L18.6998 12.3232L18.781 12.3297L18.8622 12.3446L18.9412 12.3681L19.0181 12.4002L19.0908 12.4397L19.1602 12.4867L19.2372 12.5529L19.3344 12.6512L19.3376 12.6587L19.3344 12.6662L17.1602 14.8382V14.8361Z" fill="#E40046"/>
<path d="M25.9658 25.4979L25.9124 25.6112L25.8558 25.7191L25.7949 25.8227L25.7287 25.9221L25.6581 26.0161L25.5834 26.1059L25.5043 26.1903L25.421 26.2704L25.3494 26.3323L25.2746 26.3911L25.1966 26.4467L25.1165 26.499L25.0331 26.5482L24.9466 26.5941L24.8569 26.6368L24.765 26.6764L24.6742 26.7106L24.5812 26.7415L24.4851 26.7682L24.3846 26.7928L24.2821 26.8131L24.1763 26.8302L24.0684 26.8441L23.9573 26.8548L23.7778 26.8644H23.6005L23.4274 26.858L23.2586 26.842L23.094 26.8174L22.9349 26.7853L22.7821 26.7447L22.6357 26.6956L22.5449 26.6603L22.4573 26.6208L22.3708 26.577L22.2864 26.5289L22.203 26.4766L22.1229 26.421L22.0438 26.3601L21.968 26.296L21.8953 26.2287L21.8259 26.1582L21.7596 26.0845L21.6966 26.0076L21.6357 25.9264L21.5791 25.842L21.5257 25.7554L21.4755 25.6657L21.4295 25.5738L21.3868 25.4798L21.3483 25.3836L21.3141 25.2853L21.2735 25.1539L21.2393 25.0215L21.2116 24.889L21.1902 24.7565L21.171 24.5962L21.1571 24.437L21.1496 24.2779L21.1475 24.1197L21.1507 23.9627L21.1603 23.8067L21.1752 23.6518L21.1955 23.4979L21.2073 23.4242L21.2287 23.3142L21.2543 23.2041L21.2831 23.0973L21.3163 22.9915L21.3537 22.889L21.3943 22.7885L21.4381 22.6913L21.4861 22.5962L21.5374 22.5044L21.593 22.4157L21.6517 22.3302L21.7137 22.2479L21.7778 22.17L21.8462 22.0952L21.9167 22.0247L21.9904 21.9573L22.0011 21.9477L22.0919 21.8751L22.1881 21.8067L22.2874 21.7447L22.3921 21.687L22.5 21.6347L22.6133 21.5877L22.7297 21.5471L22.8515 21.5108L22.9765 21.4798L23.1069 21.4541L23.2393 21.4349L23.3761 21.42L23.515 21.4114L23.6581 21.4082L23.8045 21.4103L23.9541 21.4178L24.0609 21.4274L24.1667 21.4403L24.2703 21.4563L24.3718 21.4766L24.4701 21.5001L24.5673 21.5268L24.6614 21.5567L24.7543 21.5898L24.843 21.6272L24.9306 21.6678L25.015 21.7116L25.0972 21.7586L25.1763 21.8088L25.2532 21.8623L25.3259 21.9189L25.3964 21.9787L25.4904 22.0674L25.5791 22.1635L25.6346 22.2298L25.6881 22.2982L25.7393 22.3697L25.7874 22.4435L25.8334 22.5193L25.8772 22.5962L25.9178 22.6764L25.9562 22.7576L25.9915 22.8409L26.0246 22.9264L26.0556 23.014L26.0834 23.1026L26.1293 23.2821L26.1646 23.468L26.1891 23.6497L26.2062 23.8302L26.2158 24.0097L26.218 24.187L26.2126 24.3633L26.1998 24.5385L26.1795 24.7116L26.1517 24.8836L26.1314 24.9851L26.0994 25.1187L26.0609 25.249L26.0171 25.3762L25.9669 25.5001L25.9658 25.4979ZM24.8654 22.8687L24.8002 22.7618L24.7276 22.6657L24.6464 22.5781L24.5577 22.5001L24.4883 22.4499L24.4156 22.405L24.3376 22.3644L24.2564 22.3291L24.172 22.2992L24.0844 22.2757L23.9925 22.2565L23.8975 22.2437L23.8152 22.2362L23.7329 22.2319H23.6528L23.5727 22.2351L23.4958 22.2415L23.4199 22.2522L23.3462 22.2661L23.2735 22.2832L23.2041 22.3035L23.1357 22.327L23.0705 22.3537L23.0075 22.3847L22.9477 22.4178L22.89 22.4552L22.8355 22.4947L22.7831 22.5385L22.7329 22.5856L22.6827 22.639L22.6357 22.6945L22.5908 22.7544L22.5492 22.8163L22.5096 22.8836L22.4733 22.9531L22.4402 23.0257L22.4081 23.1026L22.3793 23.1828L22.3537 23.2672L22.3312 23.3537L22.3109 23.4435L22.2938 23.5364L22.2789 23.6315L22.2671 23.7298L22.2586 23.8313L22.249 24.0065L22.2468 24.1764L22.2511 24.342L22.2618 24.5022L22.2789 24.6539L22.3024 24.8003L22.3323 24.9381L22.3686 25.0695L22.4103 25.1913L22.4584 25.3067L22.5128 25.4125L22.5727 25.5108L22.6389 25.6016L22.7105 25.6828L22.7896 25.7576L22.874 25.8227L22.9584 25.8772L23.047 25.9232L23.1581 25.9691L23.2789 26.0054L23.4039 26.0311L23.5353 26.0471L23.671 26.0524L23.8066 26.0471L23.9423 26.0311L24.0748 26.0054L24.1421 25.9883L24.2073 25.968L24.2693 25.9445L24.3302 25.9178L24.3878 25.889L24.4434 25.8569L24.4968 25.8217L24.5481 25.7843L24.594 25.7458L24.6378 25.7052L24.6891 25.6529L24.7361 25.5973L24.7821 25.5375L24.8237 25.4755L24.8643 25.4082L24.9007 25.3388L24.9349 25.2661L24.9669 25.1892L24.9958 25.1091L25.0225 25.0247L25.046 24.9381L25.0663 24.8473L25.0834 24.7544L25.0983 24.6582L25.1101 24.5588L25.1186 24.4573L25.1304 24.217V23.9883L25.124 23.8783L25.1154 23.7715L25.1037 23.6657L25.0887 23.5642L25.0705 23.4659L25.0502 23.3719L25.0267 23.2789L25 23.1913L24.9712 23.1069L24.9381 23.0247L24.9028 22.9467L24.8633 22.8708L24.8654 22.8687Z" fill="black"/>
<path d="M27.7 25.9027V25.907L27.7032 25.9081H29.9393L30.0013 25.9123L30.0601 25.9262L30.1156 25.9487L30.1658 25.9796L30.1968 26.0042L30.2246 26.032L30.2492 26.063L30.2705 26.0961L30.2887 26.1324L30.3036 26.1709L30.3143 26.2093L30.3207 26.2499L30.3239 26.3194L30.3186 26.3845L30.3047 26.4454L30.2823 26.5021L30.2588 26.5416L30.2299 26.579L30.1957 26.6142L30.1562 26.6463L30.1231 26.6677L30.0889 26.6848L30.0579 26.6954L30.0259 26.7029L29.9927 26.7072H29.9586L26.9607 26.7115H26.8624L26.7908 26.7061L26.7257 26.6922L26.6669 26.6698L26.6135 26.6388L26.5846 26.6164L26.559 26.5907L26.5355 26.5619L26.5141 26.5298L26.4874 26.4807L26.4692 26.4305L26.4564 26.3728L26.4521 26.3119L26.4564 26.2499L26.4692 26.1848L26.4917 26.1164L26.5227 26.0469L26.5622 25.9743L26.6092 25.9006L29.0675 22.3546V22.3504L29.0643 22.3493H26.8752L26.8336 22.3472L26.7951 22.3407L26.7588 22.3311L26.7246 22.3172L26.6861 22.2959L26.6498 22.2681L26.6167 22.235L26.5857 22.1965L26.5483 22.1335L26.5216 22.0662L26.5056 21.9935L26.5013 21.9198L26.5088 21.8472L26.528 21.7766L26.559 21.7115L26.5996 21.6538L26.6242 21.6271L26.6519 21.6014L26.6979 21.5694L26.747 21.5459L26.8069 21.5288L26.872 21.5234H29.8955L29.9618 21.5277L30.0312 21.5416L30.0953 21.564L30.1498 21.5929L30.1893 21.6207L30.2235 21.6516L30.2545 21.6858L30.2801 21.7222L30.3101 21.782L30.3293 21.8482L30.3378 21.9177L30.3357 21.9914L30.3229 22.0683L30.2994 22.1442L30.2663 22.2179L30.2235 22.2873L27.7075 25.9016L27.7 25.9027Z" fill="black"/>
<path d="M7.56303 24.0347L7.56838 24.0411L7.66667 24.055L7.76175 24.0721L7.8547 24.0935L7.94338 24.1191L8.02778 24.1479L8.10684 24.18L8.18269 24.2163L8.25214 24.2559L8.3547 24.3253L8.44658 24.4011L8.52885 24.4856L8.60043 24.5753L8.6485 24.649L8.69124 24.727L8.72756 24.8093L8.75855 24.8958L8.78312 24.9866L8.80235 25.0806L8.81517 25.18L8.82158 25.2815V25.3809L8.8141 25.4781L8.79915 25.5753L8.77671 25.6704L8.73932 25.7858L8.69231 25.8958L8.63462 26.0026L8.56731 26.1041L8.49038 26.1992L8.40385 26.2868L8.3109 26.3659L8.2094 26.4375L8.14957 26.4738L8.08868 26.5069L7.9594 26.5678L7.82051 26.6191L7.67308 26.6608L7.51603 26.6939L7.35043 26.7163L7.17521 26.7302L6.99252 26.7345H5.41453L5.33226 26.7313L5.26496 26.7174L5.22329 26.7024L5.18376 26.6832L5.14744 26.6597L5.11432 26.633L5.08547 26.6031L5.05983 26.57L5.03846 26.5336L5.02137 26.4952L5.00534 26.4353L5 26.3712V21.8947L5.00214 21.8509L5.00855 21.8103L5.0203 21.7719L5.03632 21.7356L5.05342 21.7056L5.07372 21.6779L5.09722 21.6522L5.125 21.6276L5.17308 21.5935L5.22222 21.5689L5.26068 21.5561L5.30021 21.5475L5.34295 21.5422L5.39103 21.54H6.83333L7.01709 21.5443L7.19338 21.5561L7.36218 21.5764L7.5235 21.6041L7.60577 21.6223L7.6859 21.6437L7.76496 21.6682L7.84081 21.696L7.91346 21.727L7.98184 21.7601L8.04808 21.7964L8.10897 21.8338L8.17949 21.8841L8.24466 21.9396L8.30556 22.0005L8.36111 22.0657L8.40385 22.1244L8.44231 22.1853L8.4765 22.2494L8.50748 22.3157L8.53419 22.3841L8.55662 22.4546L8.57479 22.5272L8.58868 22.602L8.6015 22.7195L8.60577 22.8338L8.6015 22.9482L8.58868 23.0582L8.56731 23.165L8.53739 23.2665L8.49893 23.3648L8.45192 23.4567L8.40598 23.5304L8.35577 23.5988L8.30128 23.6629L8.24252 23.7217L8.17521 23.7783L8.10363 23.8285L8.02671 23.8744L7.94551 23.914L7.85897 23.9492L7.76816 23.9781L7.67201 24.0016L7.57158 24.0197L7.56197 24.024L7.55983 24.0336L7.56303 24.0347ZM7.52885 22.2291L7.45513 22.2003L7.37821 22.1757L7.29915 22.1554L7.21581 22.1394L7.12821 22.1276L7.03419 22.1191L6.93269 22.1138L6.8141 22.1116H5.7297L5.72543 22.1127L5.72329 22.117V23.7762L5.72863 23.7815H6.75214L6.85577 23.7794L6.95406 23.774L7.04701 23.7644L7.13568 23.7516L7.22009 23.7356L7.30021 23.7153L7.37821 23.6917L7.45086 23.664L7.51923 23.6319L7.58227 23.5945L7.63889 23.5507L7.69017 23.5016L7.74466 23.4353L7.7906 23.3606L7.82799 23.2783L7.85684 23.1875L7.87179 23.1234L7.88248 23.0561L7.88996 22.9888L7.89316 22.9204V22.8541L7.88782 22.7879L7.87927 22.7249L7.86645 22.6629L7.85043 22.6063L7.8312 22.5518L7.80876 22.5005L7.78205 22.4514L7.75321 22.4076L7.72009 22.367L7.68483 22.3306L7.6453 22.2975L7.58868 22.2591L7.52778 22.2281L7.52885 22.2291ZM7.60043 24.4727L7.50855 24.4407L7.41132 24.4129L7.30769 24.3894L7.19872 24.3702L7.08227 24.3552L6.9594 24.3445L6.82799 24.3381L6.6891 24.336H5.73077H5.72543L5.72329 24.3413V26.1415L5.72756 26.1469L5.73397 26.149L6.67415 26.1554H6.72436H6.90705L7.0406 26.1522L7.15919 26.1458L7.26816 26.1351L7.3718 26.1191L7.46902 26.0988L7.55983 26.0732L7.6453 26.0422L7.70833 26.0133L7.76496 25.9802L7.81731 25.9417L7.86325 25.899L7.8985 25.8573L7.93056 25.8135L7.95833 25.7655L7.98291 25.7142L8.00427 25.6576L8.02137 25.5988L8.03526 25.5347L8.04594 25.4685L8.05769 25.337L8.05983 25.2131L8.05342 25.0988L8.03632 24.993L8.00962 24.8958L7.97329 24.8071L7.92842 24.7281L7.90278 24.6917L7.87393 24.6576L7.81624 24.6009L7.75214 24.5518L7.67842 24.5091L7.59829 24.4738L7.60043 24.4727Z" fill="black"/>
<path d="M17.7191 24.729L17.7084 24.7225L17.7052 24.7343V26.4149L17.7031 26.4522L17.6967 26.4875L17.6871 26.5206L17.6732 26.5516L17.6518 26.5858L17.6251 26.6168L17.5931 26.6446L17.5557 26.6702L17.5033 26.6969L17.451 26.7151L17.3997 26.7247H17.3484L17.2982 26.7193L17.248 26.7044L17.1988 26.6809L17.1497 26.6488L17.1112 26.6136L17.0941 26.5911L17.0792 26.5676L17.0567 26.5131L17.0428 26.449L17.0386 26.3764V21.8903L17.0407 21.8251L17.0503 21.7706L17.0664 21.7225L17.0899 21.6798L17.1155 21.6488L17.1475 21.6211L17.186 21.5954L17.2309 21.573L17.2886 21.5527L17.3463 21.542H17.4029L17.4584 21.5484L17.5012 21.5612L17.5428 21.5805L17.5813 21.605L17.6176 21.6349L17.655 21.6777L17.6785 21.7204L17.6946 21.7685L17.7042 21.8251L17.7074 21.8903V24.6958L17.7095 24.7055L17.7181 24.7001L17.7832 24.6349L19.4285 23.1275L19.4563 23.105L19.4852 23.0869L19.5172 23.073L19.5493 23.0634L19.592 23.058H19.6347L19.6785 23.0687L19.7202 23.0847L19.7597 23.1072L19.7961 23.136L19.827 23.1691L19.8537 23.2076L19.8751 23.2493L19.889 23.2888L19.8954 23.3283V23.3668L19.8847 23.4138L19.8634 23.4587L19.8324 23.5025L19.7896 23.5463L18.4948 24.7055V24.7129L19.9467 26.2439L19.9723 26.2749L19.9926 26.3091L20.0076 26.3475L20.0161 26.3881L20.0183 26.4287L20.014 26.4693L20.0044 26.5078L19.9884 26.5452L19.9606 26.589L19.9264 26.6285L19.8869 26.6616L19.8431 26.6884L19.7971 26.7076L19.749 26.7193L19.701 26.7225L19.6518 26.7172L19.6123 26.7065L19.5738 26.6894L19.53 26.6584L19.4766 26.6061L17.7928 24.8027L17.748 24.7493L17.7255 24.7215L17.7191 24.729Z" fill="black"/>
<path d="M32.0278 24.1486V25.1657V26.1828L32.0256 26.2427L32.0171 26.3004L32.0043 26.3559L31.9861 26.4083L31.9626 26.4585L31.9348 26.5055L31.9017 26.5482L31.8643 26.5867L31.8045 26.6337L31.7372 26.6711L31.6645 26.6989L31.5844 26.716L31.5321 26.7213H31.4786L31.4263 26.7149L31.375 26.7042L31.3248 26.6882L31.2767 26.6668L31.2318 26.6412L31.1902 26.6113L31.1528 26.5781L31.1197 26.5429L31.0908 26.5055L31.0652 26.466L31.0363 26.4051L31.016 26.3399L31.0043 26.2694L31 26.1946V22.1316L31.0011 22.0568L31.0053 21.9916L31.0128 21.9371L31.0235 21.8933L31.0524 21.8217L31.0919 21.7555L31.1197 21.7202L31.1506 21.6871L31.1859 21.6572L31.2233 21.6305L31.2639 21.607L31.3056 21.5867L31.3494 21.5707L31.3942 21.5589L31.4402 21.5504L31.4861 21.5461H31.5331L31.5801 21.5493L31.6261 21.5568L31.6709 21.5685L31.7137 21.5845L31.7553 21.6048L31.813 21.639L31.8632 21.6786L31.9071 21.7224L31.9444 21.7704L31.9808 21.8356L32.0064 21.9072L32.0224 21.9863L32.0278 22.0717V24.1241L32.0299 24.1305L32.0353 24.1262L34.1432 21.7192L34.1944 21.6679L34.25 21.6251L34.3109 21.591L34.375 21.5653L34.4423 21.5493L34.5096 21.5439L34.5769 21.5482L34.6432 21.5621L34.7094 21.5867L34.7714 21.6219L34.8291 21.6679L34.8793 21.7224L34.9124 21.7672L34.9391 21.8153L34.9605 21.8666L34.9754 21.9189L34.985 21.9905L34.9829 22.0632L34.969 22.1369L34.9434 22.2095L34.9241 22.2448L34.8932 22.2897L34.7938 22.4104L33.2831 24.139V24.1433V24.1476L34.875 25.9371L34.9092 25.9809L34.938 26.0268L34.9647 26.0856L34.984 26.1465L34.9947 26.2106L34.9968 26.2758L34.9904 26.3399L34.9754 26.4019L34.953 26.4606L34.922 26.5162L34.8825 26.5696L34.8344 26.6177L34.7735 26.6625L34.7073 26.6957L34.6464 26.7149L34.5812 26.7256L34.5128 26.7277L34.4412 26.7213L34.3771 26.7063L34.3173 26.6828L34.2607 26.6497L34.2073 26.607L34.1571 26.5557L32.0331 24.1454L32.0267 24.1412L32.0246 24.1486H32.0278Z" fill="black"/>
<path d="M13.7991 23.6472L13.8429 23.5671L13.8931 23.4944L13.9497 23.4303L14.0128 23.3748L14.0256 23.3641L14.0961 23.3139L14.1687 23.2679L14.2414 23.2263L14.3162 23.1889L14.3899 23.1568L14.4657 23.129L14.5427 23.1055L14.6207 23.0863L14.7499 23.0649L14.845 23.0553L14.9401 23.0511H15.0331L15.1249 23.0575L15.2136 23.0671L15.3012 23.082L15.3856 23.1013L15.4679 23.1248L15.5459 23.1526L15.6217 23.1857L15.6933 23.2231L15.7617 23.2647L15.8258 23.3096L15.8867 23.3587L15.9422 23.4122L15.9946 23.4699L16.0309 23.5158L16.0651 23.5649L16.0961 23.6152L16.1249 23.6675L16.1516 23.722L16.1752 23.7786L16.1955 23.8363L16.2136 23.8972L16.2435 24.0243L16.2649 24.1568L16.2777 24.2946L16.282 24.4378V26.4079L16.2777 26.4624L16.266 26.5126L16.2467 26.5585L16.22 26.5991L16.1965 26.6258L16.1698 26.6493L16.1399 26.6696L16.1078 26.6867L16.0726 26.6996L16.0352 26.7092L15.9957 26.7156L15.9551 26.7177L15.9102 26.7156L15.8664 26.7092L15.8237 26.6974L15.7841 26.6814L15.7489 26.6611L15.7168 26.6365L15.689 26.6088L15.6655 26.5767L15.6495 26.5468L15.6367 26.5137L15.626 26.457L15.6228 26.3737V24.5799L15.6196 24.379L15.6121 24.2669L15.6014 24.207L15.5865 24.1493L15.5683 24.0938L15.5459 24.0393L15.5074 23.9656L15.4615 23.8951L15.4081 23.8278L15.3472 23.7637L15.3151 23.7348L15.2553 23.6899L15.188 23.6515L15.1175 23.6205L15.0405 23.5959L14.9593 23.5788L14.8739 23.5682L14.7831 23.5639L14.689 23.5671L14.6228 23.5746L14.5576 23.5863L14.4935 23.6023L14.4316 23.6226L14.3717 23.6472L14.313 23.6761L14.2585 23.7081L14.2061 23.7444L14.1527 23.7872L14.1036 23.832L14.0566 23.8801L14.0128 23.9303L13.9647 23.9944L13.9219 24.0617L13.8835 24.1333L13.8504 24.2081L13.8215 24.2872L13.798 24.3694L13.7799 24.456L13.767 24.5446L13.7585 24.6718V24.8395L13.7724 26.4175L13.7702 26.4613L13.7628 26.503L13.7489 26.5425L13.7307 26.5788L13.7115 26.6055L13.689 26.6301L13.6645 26.6526L13.6378 26.6718L13.6078 26.6889L13.5747 26.7038L13.5405 26.7156L13.5042 26.7241L13.4679 26.7284H13.4326L13.3984 26.7263L13.3653 26.7199L13.3247 26.706L13.2863 26.6857L13.2489 26.66L13.2136 26.628L13.1837 26.5938L13.1623 26.5585L13.1484 26.5243L13.1388 26.4837L13.1335 26.4367L13.1313 26.378V23.4271L13.1367 23.3566L13.1484 23.2904L13.1677 23.2284L13.1944 23.1707L13.2147 23.1419L13.2393 23.1173L13.2692 23.0959L13.3055 23.0778L13.345 23.0639L13.3899 23.0532L13.4369 23.0479H13.4828L13.5256 23.0521L13.5662 23.0607L13.6046 23.0735L13.641 23.0906L13.6741 23.1109L13.704 23.1355L13.7296 23.1632L13.751 23.1942L13.7681 23.2273L13.7809 23.2637L13.7884 23.3011L13.7916 23.3406V23.6483L13.7927 23.6568L13.798 23.6493L13.7991 23.6472Z" fill="black"/>
<path d="M11.7277 26.1049L11.7255 26.0942L11.7191 26.1028L11.6753 26.1861L11.6283 26.2641L11.5781 26.3367L11.5247 26.404L11.468 26.466L11.4082 26.5226L11.3452 26.5739L11.2789 26.6199L11.2095 26.6605L11.1369 26.6957L11.0599 26.7256L10.9809 26.7502L10.8975 26.7694L10.811 26.7833L10.7213 26.7919L10.6283 26.7951H10.5332L10.4381 26.7876L10.3452 26.7769L10.2522 26.7609L10.1625 26.7406L10.0781 26.7171L9.99476 26.6882L9.91784 26.6562L9.84519 26.6209L9.77574 26.5803L9.71164 26.5365L9.65181 26.4884L9.59839 26.4382L9.54925 26.3837L9.50544 26.3271L9.46591 26.2662L9.42638 26.1904L9.3954 26.1113L9.37083 26.028L9.35373 25.9393L9.34198 25.8196L9.33984 25.7021L9.34839 25.5867L9.36762 25.4735L9.38472 25.404L9.40608 25.3357L9.43172 25.2684L9.46164 25.2021L9.48835 25.153L9.51826 25.107L9.57275 25.0419L9.63792 24.9831L9.71271 24.9308L9.79818 24.8837L9.86976 24.8506L9.94241 24.8207L10.0407 24.7865L10.1411 24.7587L10.2437 24.7363L10.3484 24.7203L10.5471 24.6979L10.7458 24.6797L10.9136 24.6679L11.0813 24.6605L11.249 24.6551H11.4178L11.733 24.654L11.7405 24.6519L11.7426 24.6444V24.2823L11.7394 24.1776L11.7287 24.0782L11.7106 23.9949L11.6839 23.9179L11.6475 23.8464L11.6027 23.7812L11.5492 23.7235L11.4873 23.6733L11.4178 23.6305L11.3409 23.5953L11.2886 23.5771L11.2362 23.5622L11.1817 23.5504L11.124 23.5408L11.0033 23.5312H10.8666L10.7362 23.5429L10.6005 23.5632L10.4595 23.5921L10.3121 23.6295L10.2159 23.6605L10.1166 23.6989L10.0119 23.7459L9.89219 23.8058L9.85587 23.8228L9.82061 23.8346L9.78749 23.8421L9.75651 23.8442L9.7095 23.8389L9.66677 23.8239L9.63151 23.8004L9.59946 23.7662L9.57168 23.7214L9.54711 23.6658L9.53322 23.622L9.52681 23.5803V23.5408L9.53429 23.5034L9.55459 23.4575L9.57489 23.4308L9.6048 23.404L9.64326 23.3763L9.69134 23.3485L9.79604 23.2951L9.90181 23.2481L10.0097 23.2064L10.1187 23.1711L10.2298 23.1402L10.3452 23.1134L10.4638 23.0921L10.5866 23.0761L10.7127 23.0643L10.8441 23.0568L10.9531 23.0547L11.0599 23.0568L11.1625 23.0632L11.2619 23.0728L11.358 23.0867L11.4488 23.1049L11.5375 23.1263L11.6208 23.1519L11.701 23.1818L11.7747 23.2149L11.8452 23.2513L11.9125 23.2919L11.9745 23.3357L12.0332 23.3837L12.0866 23.435L12.1369 23.4906L12.1988 23.575L12.2512 23.6647L12.295 23.763L12.3302 23.8677L12.3548 23.9692L12.3719 24.0761L12.3826 24.1872L12.3858 24.3036V26.4254L12.3836 26.466L12.3772 26.5034L12.3655 26.5397L12.3495 26.5728L12.327 26.606L12.3003 26.6348L12.2693 26.6615L12.2351 26.684L12.1956 26.7021L12.1539 26.716L12.1091 26.7256L12.0642 26.7299H12.0183L11.9734 26.7235L11.9317 26.7128L11.8922 26.6978L11.8569 26.6786L11.8238 26.6551L11.796 26.6284L11.7725 26.5974L11.7533 26.5622L11.7383 26.5226L11.7298 26.481L11.7266 26.435V26.1092L11.7277 26.1049ZM10.076 26.1134L10.0866 26.1263L10.1326 26.1733L10.186 26.2149L10.2448 26.2502L10.311 26.2801L10.3826 26.3036L10.4606 26.3218L10.545 26.3346L10.6347 26.341H10.7405L10.8377 26.3335L10.9178 26.3196L10.9958 26.2972L11.0738 26.2662L11.1486 26.2288L11.2223 26.1829L11.2928 26.1295L11.3612 26.0686L11.4242 26.0023L11.4702 25.9468L11.5119 25.8902L11.5503 25.8314L11.5845 25.7716L11.624 25.6904L11.6572 25.607L11.6849 25.5194L11.7063 25.4286L11.7223 25.3346L11.7319 25.2342L11.7362 25.1316V25.0237L11.733 25.0194H11.7287L11.3698 25.0226L11.0044 25.0355L10.8751 25.0429L10.749 25.0547L10.6272 25.0707L10.5086 25.091L10.4082 25.1145L10.3014 25.1487L10.2458 25.1722L10.1956 25.2L10.1507 25.232L10.1101 25.2694L10.0663 25.3228L10.03 25.3827L10.0012 25.45L9.98087 25.5237L9.96698 25.606L9.96057 25.6893V25.7737L9.97019 25.8549L9.98621 25.9297L10.0097 25.9981L10.0396 26.06L10.076 26.1134Z" fill="black"/>
</g>
<circle cx="20" cy="20" r="19.5" stroke="black" stroke-opacity="0.05"/>
<defs>
<clipPath id="clip0_9_391927">
<rect width="30" height="15.8643" fill="white" transform="translate(5 11)"/>
</clipPath>
</defs>
</svg>
