<svg width="40" height="40" viewBox="0 0 40 40" fill="none" xmlns="http://www.w3.org/2000/svg">
<circle cx="20" cy="20" r="20" fill="#F6F8FA"/>
<g clip-path="url(#clip0_9_405875)">
<path d="M19.2555 15.7497L11.0518 10.8926L13.2071 15.7497H19.2555Z" fill="#D45125"/>
<path d="M19.2547 15.75L10.5088 19.9921L13.2057 15.75H19.2547Z" fill="#442978"/>
<path d="M19.2554 17.6367L7.85938 23.6814L15.3212 24.0542L19.2554 17.6367Z" fill="#2C9545"/>
<path d="M19.2562 17.6367L18.6096 30.3218L15.3213 24.0542L19.2562 17.6367Z" fill="#442978"/>
<path d="M20.748 17.6367L32.1441 23.6814L24.6823 24.0542L20.748 17.6367Z" fill="#2C9545"/>
<path d="M20.748 17.6367L21.3947 30.3218L24.6829 24.0542L20.748 17.6367Z" fill="#442978"/>
<path d="M20.748 15.7497L28.9518 10.8926L26.797 15.7497H20.748Z" fill="#D45125"/>
<path d="M20.748 15.75L29.486 19.9921L26.797 15.75H20.748Z" fill="#442978"/>
</g>
<circle cx="20" cy="20" r="19.5" stroke="black" stroke-opacity="0.05"/>
<defs>
<clipPath id="clip0_9_405875">
<rect width="26" height="21" fill="white" transform="translate(7 10)"/>
</clipPath>
</defs>
</svg>
