<svg width="40" height="40" viewBox="0 0 40 40" fill="none" xmlns="http://www.w3.org/2000/svg">
<circle cx="20" cy="20" r="20" fill="#1E1E23"/>
<path d="M17.8977 9.71387L17.9427 9.7203C18.5687 9.76015 19.1785 9.93564 19.7299 10.2346C20.167 10.4789 20.572 10.7682 20.9384 11.1024L21.2599 11.411L21.2277 11.6682C21.2003 11.9256 21.1703 12.1827 21.1377 12.4396L21.0991 12.7867L21.0413 13.2367L21.0027 13.571L20.9513 14.0274L20.9127 14.3617L20.8549 14.8117L20.8163 15.146L20.7649 15.596L20.7263 15.9303L20.6684 16.3932L20.6299 16.721L20.5784 17.171L20.5399 17.5117L20.482 17.9617L20.4434 18.296L20.3856 18.7524L20.3534 19.0803L20.3084 19.421L20.257 19.871L20.2184 20.2374V20.2503C20.1945 20.2525 20.1709 20.2568 20.1477 20.2632L19.4984 20.4946L18.4891 20.8482L17.7113 21.1182L16.6377 21.4974L15.8149 21.7803L14.9084 22.1017L14.0084 22.4103L13.0763 22.7317L12.3049 23.0017L11.5334 23.2589C11.5206 23.2653 11.5077 23.2653 11.4884 23.2589L11.5399 23.2074V23.201L11.4756 23.1817C11.166 23.1062 10.8646 23.0007 10.5756 22.8667C10.2306 22.7136 9.91848 22.4953 9.65629 22.2239C9.33082 21.885 9.13118 21.4448 9.09057 20.9767C9.09057 20.9317 9.07772 20.8932 9.07129 20.8482V20.681L9.07772 20.6553L9.097 20.4882C9.13557 20.1732 9.22557 19.871 9.35415 19.5882C9.76282 18.7017 10.4904 18.0016 11.392 17.6274C11.6749 17.5182 11.9706 17.4474 12.2727 17.4346C12.8212 17.4354 13.3683 17.4914 13.9056 17.6017C14.4006 17.711 14.8827 17.8524 15.3649 18.0196C15.9949 18.2382 16.6249 18.4824 17.2484 18.7267L18.007 19.0289C18.0263 19.0289 18.0456 19.0482 18.0713 19.0353C18.0584 19.0096 18.0327 19.0032 18.007 18.9967C17.4734 18.7396 16.9656 18.4246 16.4899 18.0646C15.9052 17.6305 15.3987 17.1001 14.992 16.496C14.3192 15.5174 14.0329 14.3241 14.1884 13.1467C14.2591 12.6389 14.4199 12.1503 14.6641 11.7003C14.9213 11.2053 15.2813 10.7746 15.7249 10.4339C16.2942 9.98534 16.9932 9.73279 17.7177 9.71387H17.8977Z" fill="#B6942F"/>
<path d="M24.4744 18.9073C24.4744 18.9395 24.4487 18.9459 24.423 18.9523L24.0694 19.0809L23.2208 19.383L22.7065 19.563C22.1962 19.7442 21.6862 19.9263 21.1765 20.1095L20.5337 20.3409C20.5179 20.3481 20.5028 20.3567 20.4887 20.3666L20.2508 20.4438L20.1865 20.4566C20.2199 20.1782 20.252 19.8996 20.283 19.6209L20.328 19.2738L20.3665 18.9395L20.4244 18.4638C20.4372 18.3545 20.4437 18.2388 20.463 18.1295L20.5144 17.6666L20.553 17.3195L20.6108 16.8566L20.6494 16.5223L20.7008 16.053L20.7394 15.7123L20.7972 15.2495L20.8358 14.9023L20.8872 14.4395C20.9065 14.3302 20.913 14.2145 20.9258 14.1052L20.9901 13.6359L21.0222 13.2952L21.0801 12.8323L21.1187 12.4852L21.1701 12.0223L21.2087 11.688L21.2344 11.4309C21.2601 11.4373 21.273 11.418 21.2858 11.4052L21.5944 11.0966C22.0736 10.6429 22.6527 10.3082 23.2851 10.1195C23.646 10.0148 24.0219 9.9713 24.3972 9.9909C25.1687 10.0166 25.8951 10.3252 26.4415 10.8588C26.8015 11.2059 27.0844 11.6238 27.258 12.0802C27.4821 12.6241 27.5915 13.2085 27.5794 13.7966C27.5624 14.4923 27.4499 15.1823 27.2451 15.8473C27.1101 16.2652 26.898 16.6509 26.628 16.9916C26.3058 17.3951 25.9294 17.7521 25.5094 18.0523C24.9452 18.4562 24.3397 18.7989 23.703 19.0745L23.6387 19.1002L23.613 19.113V19.1195L23.6451 19.1066L23.9987 19.023L24.2044 18.978L24.4808 18.9138" fill="#AE8E2C"/>
<path d="M20.1989 20.283L20.2632 20.2637L20.4882 20.1865L20.5461 20.2251L20.9254 20.418L21.2597 20.5722L22.0761 20.9708L22.7189 21.2794L23.4904 21.6587L24.1975 21.9994L24.9625 22.3658L25.6825 22.713L26.4218 23.073L27.1354 23.4201C27.6156 23.6553 28.0956 23.891 28.5754 24.1272C28.5882 24.1272 28.6011 24.1465 28.6139 24.1594H28.5625L28.6139 24.243C28.8711 24.5901 29.0639 24.9822 29.1732 25.4001C29.2763 25.8016 29.2697 26.2235 29.1539 26.6215C29.0254 27.0715 28.7682 27.4701 28.4339 27.7915C28.2154 28.0037 27.9711 28.1901 27.7075 28.3444C27.0359 28.737 26.2795 28.9619 25.5025 29.0001H25.0589L24.8982 28.9872C24.7439 28.968 24.5897 28.9551 24.4418 28.9294C23.8527 28.8304 23.2922 28.6043 22.7993 28.2668C22.3064 27.9293 21.8929 27.4885 21.5875 26.9751C21.17 26.245 20.9135 25.434 20.8354 24.5965L20.7839 24.0822L20.7197 23.5037C20.6649 22.9893 20.6092 22.475 20.5525 21.9608C20.5427 21.9808 20.5383 22.0029 20.5397 22.0251C20.5268 22.2951 20.5075 22.5715 20.5011 22.848L20.4882 23.7801V24.9244L20.5011 25.2587L20.5461 26.1394C20.5798 26.7068 20.6334 27.2729 20.7068 27.8365C20.7518 28.1515 20.8097 28.4601 20.8611 28.7687V28.8137H20.8225L20.2761 28.7944L19.8647 28.7751C19.8582 28.563 19.8647 28.3508 19.8518 28.1322C19.8389 27.9201 19.8518 27.6951 19.8389 27.4765C19.8261 27.2708 19.8389 27.0651 19.8325 26.853C19.8197 26.6344 19.8325 26.4094 19.8197 26.1908C19.8068 25.9787 19.8197 25.7665 19.8068 25.5608C19.7939 25.3294 19.8068 25.1108 19.7939 24.8794V24.018L19.8132 23.8251L19.8454 23.5294C19.863 23.3406 19.8823 23.1521 19.9032 22.9637L19.9354 22.6937L19.9611 22.4237L19.9997 22.038L20.0318 21.7808L20.0704 21.4272L20.1089 21.0608L20.1539 20.7008L20.1989 20.2958V20.283Z" fill="#A78829"/>
<path d="M24.776 18.7917C25.2774 18.7047 25.7812 18.6318 26.2867 18.5731C26.5245 18.5474 26.7752 18.5345 27.0195 18.5217C27.3024 18.5088 27.5788 18.5088 27.8552 18.5281C28.2808 18.5467 28.7021 18.6202 29.1088 18.7467C29.4302 18.8367 29.7131 19.0038 29.9638 19.2159C30.5441 19.8134 30.8869 20.6019 30.9281 21.4338V21.8002L30.9217 21.8324L30.9152 21.9738C30.8831 22.2502 30.8124 22.5267 30.7095 22.7838C30.5747 23.1232 30.3569 23.4234 30.0762 23.657C29.7954 23.8906 29.4607 24.0501 29.1024 24.1209C28.9288 24.1595 28.7488 24.1852 28.5688 24.1852C28.3271 24.0665 28.085 23.9486 27.8424 23.8317L27.0452 23.4588L26.3124 23.1181L25.541 22.7645L24.8081 22.4238L24.0174 22.0638L23.291 21.7295L22.4874 21.3567L21.8317 21.0545L20.9895 20.6688L20.6424 20.5081L20.2567 20.3281C20.2342 20.317 20.2127 20.3041 20.1924 20.2895C20.2085 20.279 20.2258 20.2704 20.2438 20.2638L20.8995 20.0452L21.4138 19.8717L22.4552 19.5245L22.9695 19.3509L23.831 19.0552" fill="#B6942F"/>
<path d="M19.891 28.7874L19.5567 28.7746L19.0296 28.7617H19.0039C19.0064 28.1981 19.0107 27.6346 19.0167 27.071L19.0296 26.3446C19.0507 25.303 19.0764 24.2616 19.1067 23.2203C19.1131 22.886 19.1324 22.5582 19.1453 22.2239C19.147 22.183 19.1449 22.1421 19.1389 22.1017L19.1003 22.3524C18.9613 23.26 18.6996 24.1446 18.3224 24.9817C18.0766 25.5214 17.7587 26.0253 17.3774 26.4796C16.9667 26.9719 16.4646 27.3801 15.8989 27.6817C15.2645 28.0162 14.5588 28.1926 13.8417 28.196C13.0478 28.2069 12.268 27.9857 11.5981 27.5596C11.1882 27.3059 10.8496 26.9519 10.6146 26.531C10.4161 26.1653 10.3269 25.7503 10.3574 25.3353C10.3831 24.9496 10.4989 24.5767 10.6917 24.2424C10.8589 23.9339 11.0774 23.651 11.3153 23.3939L11.4374 23.2782H11.4824L12.2539 23.0082L13.0317 22.7446L13.9767 22.4167L14.8767 22.1017L15.796 21.7803L16.6189 21.4974L17.7053 21.1182L18.4896 20.8417L19.5117 20.4882L20.1674 20.2567L20.2317 20.2503L20.1867 20.6553L20.1417 21.0217L20.1031 21.3817L20.0581 21.7482L20.0324 22.0053L19.9874 22.391L19.9617 22.661L19.9296 22.931L19.9039 23.1946L19.8717 23.5032L19.846 23.7989L19.8267 23.9982V24.0624C19.8267 24.3324 19.8139 24.596 19.8267 24.8596C19.8331 25.091 19.8203 25.316 19.8331 25.5474C19.846 25.7596 19.8331 25.9717 19.846 26.1839C19.8589 26.4024 19.846 26.6274 19.8589 26.8524C19.8717 27.0582 19.8589 27.2703 19.8717 27.4824C19.8846 27.701 19.8717 27.9196 19.8846 28.1446C19.8974 28.3632 19.8846 28.5753 19.891 28.7874ZM20.9389 11.1024C20.5726 10.7671 20.1668 10.4778 19.7303 10.241C19.1664 9.93105 18.5405 9.75095 17.8981 9.71387H17.7117L17.686 9.7203C16.9789 9.74601 16.291 9.99672 15.7253 10.4339C15.2851 10.7752 14.9234 11.2071 14.6646 11.7003C14.3445 12.294 14.1683 12.9546 14.1503 13.6289C14.1181 14.6446 14.4074 15.6539 14.986 16.496C15.3958 17.1035 15.9068 17.6362 16.4967 18.071C16.9724 18.431 17.4803 18.746 18.0203 19.0032C18.0396 19.0096 18.0653 19.016 18.0717 19.0417C18.0667 19.044 18.0612 19.0452 18.0556 19.0452C18.0501 19.0452 18.0446 19.044 18.0396 19.0417L20.1289 20.1346L20.2189 20.2374L20.2639 19.871L20.3153 19.421L20.3539 19.0867L20.3924 18.7589L20.4503 18.296L20.4889 17.9682L20.5403 17.5182L20.5789 17.171L20.6367 16.721L20.6753 16.3996L20.7267 15.9367L20.7653 15.6024L20.8231 15.1524L20.8617 14.8117L20.9131 14.3617L20.9517 14.0274L21.0096 13.5774L21.0481 13.2367L21.0996 12.7867L21.1446 12.446L21.196 11.996L21.2346 11.6682L21.2603 11.411C21.1574 11.3146 21.0546 11.2053 20.9389 11.1089" fill="#C8A22D"/>
<circle cx="20" cy="20" r="19.5" stroke="black" stroke-opacity="0.05"/>
</svg>
