<svg width="40" height="40" viewBox="0 0 40 40" fill="none" xmlns="http://www.w3.org/2000/svg">
<circle cx="20" cy="20" r="20" fill="#02436C"/>
<g clip-path="url(#clip0_9_396505)">
<path d="M8.42843 16.149V21.2854H9.07129V16.4447H10.0227C10.8391 16.4511 10.987 17.1004 10.9999 17.4219C10.9356 18.624 9.89415 18.7397 9.39272 18.624L9.70772 18.9711C10.537 18.9454 11.6363 18.6754 11.6427 17.3319C11.6491 16.2583 10.5691 16.0976 10.0227 16.149H8.42843ZM13.8284 16.1426L11.6427 21.2854H12.1249L13.8284 17.0747L15.4356 21.2854H16.1427L14.0213 16.1426H13.8284ZM29.257 16.1426L27.0713 21.2854H27.5534L29.257 17.0747L30.8641 21.2854H31.5713L29.4499 16.1426H29.257ZM19.717 16.1426H16.5927V16.5797C17.2099 16.419 17.8206 16.5154 18.0649 16.5797V21.2854H18.7077V16.5797H20.077L19.7106 16.1426H19.717ZM22.3206 16.1426H20.3856L20.707 16.5476C21.4141 16.3547 22.8349 16.2261 22.867 17.2997C22.9056 18.3797 21.8063 18.5661 21.2599 18.5211L23.137 21.2854H23.9406L22.1277 18.759C22.5327 18.669 23.4327 18.4504 23.4906 17.2997C23.5356 16.3869 22.732 16.1426 22.3206 16.1426ZM25.1427 16.1426H25.7856V21.2854H25.1427V16.1426ZM20.7199 23.214C15.8149 23.214 7.90772 23.5933 4.57129 23.8569H35.4284C32.5677 23.6897 28.3184 23.214 20.7199 23.214Z" fill="white"/>
</g>
<circle cx="20" cy="20" r="19.5" stroke="black" stroke-opacity="0.05"/>
<defs>
<clipPath id="clip0_9_396505">
<rect width="32" height="8" fill="white" transform="translate(4 16)"/>
</clipPath>
</defs>
</svg>
