<svg width="40" height="40" viewBox="0 0 40 40" fill="none" xmlns="http://www.w3.org/2000/svg">
<circle cx="20" cy="20" r="20" fill="url(#paint0_linear_9_411277)"/>
<g clip-path="url(#clip0_9_411277)">
<path d="M40 15.7139V12.8574H0V15.7139H10.9271L7.70143 27.1431H14.1843C17.2871 27.2681 19.675 24.996 18.8986 22.3253C18.6821 21.5781 17.9686 21.1424 17.9057 21.1424C18.7436 20.7067 19.24 19.8031 19.3329 19.6781C19.6436 18.9938 19.9229 17.7796 19.085 16.7831C18.4336 15.9424 17.1307 15.7139 16.2 15.7139H23.0857L19.8921 27.1431H23.0871L24.325 22.1396H26.1857C27.4886 22.1396 27.3671 23.3838 27.3986 23.7267L27.4914 27.1431H30.4379C30.4379 27.1431 30.345 23.3531 30.345 23.1039C30.3143 22.2324 29.725 21.8274 29.2286 21.8274C30.1593 21.5467 30.9964 20.706 31.3071 20.146C31.71 19.4917 32.02 18.4646 31.6171 17.4674C31.0893 15.9731 29.6314 15.7139 28.67 15.7139H40ZM25.58 17.8517H27.8093C28.895 17.8517 29.0729 18.6824 29.0729 18.9003C29.0729 19.4296 28.6386 20.3546 27.2736 20.3546H24.9164C24.9164 20.3546 25.5486 17.8831 25.58 17.8517ZM12.2614 22.1396H14.4014C15.5264 22.1396 15.9307 23.0396 15.5979 24.0424C15.5357 24.2289 15.3 25.0003 13.9357 25.0003H11.4479L12.2614 22.1396ZM13.44 17.856H15.9214C16.3864 17.856 16.8414 18.221 16.8414 18.9374C16.8414 19.6538 16.105 20.3546 15.3293 20.3546H12.6929L13.44 17.856Z" fill="white"/>
</g>
<circle cx="20" cy="20" r="19.5" stroke="black" stroke-opacity="0.05"/>
<defs>
<linearGradient id="paint0_linear_9_411277" x1="20" y1="0" x2="20" y2="40" gradientUnits="userSpaceOnUse">
<stop offset="0.31" stop-color="#FEC930"/>
<stop offset="0.36" stop-color="white"/>
<stop offset="0.385" stop-color="white"/>
<stop offset="0.3851" stop-color="#018643"/>
</linearGradient>
<clipPath id="clip0_9_411277">
<rect width="40" height="16" fill="white" transform="translate(0 12)"/>
</clipPath>
</defs>
</svg>
