<svg width="40" height="40" viewBox="0 0 40 40" fill="none" xmlns="http://www.w3.org/2000/svg">
<circle cx="20" cy="20" r="20" fill="#F6F8FA"/>
<g clip-path="url(#clip0_9_410127)">
<path d="M29.1076 8.79791C29.6919 9.02004 30.2231 9.3629 30.6658 9.80234C31.1084 10.2434 31.4545 10.7714 31.6815 11.354C31.9084 11.9351 32.0114 12.5597 31.9825 13.1826V16.8204H26.5418L24.1724 12.7319H15.8296L11.7072 19.8579L15.7459 26.9838H24.0887L26.4581 22.8953H31.8988V26.5331C31.9197 27.1448 31.8151 27.7549 31.5897 28.3263C31.3644 28.8961 31.0247 29.4144 30.5917 29.8474C30.1571 30.2804 29.6404 30.62 29.069 30.8454C28.4992 31.0708 27.8891 31.1754 27.2758 31.1545H12.6585C12.0453 31.1754 11.4336 31.0708 10.8638 30.8454C10.2923 30.6217 9.77241 30.282 9.33781 29.849C8.9032 29.4144 8.56195 28.8977 8.33499 28.3279C8.10803 27.7565 8.00179 27.1464 8.0195 26.5331V13.1826C7.99374 12.5661 8.09676 11.9496 8.3205 11.3734C8.54424 10.7971 8.88388 10.2724 9.3201 9.83453C9.75471 9.39509 10.2762 9.05224 10.8509 8.82367C11.4255 8.5967 12.0404 8.48886 12.6585 8.51139H27.2758C27.9004 8.47759 28.5249 8.57578 29.1076 8.79791Z" fill="black"/>
<path d="M17.7821 16.1201H22.1202L24.29 19.8577L22.1202 23.5954H17.7821L15.6123 19.8577L17.7821 16.1201Z" fill="#FF5200"/>
</g>
<circle cx="20" cy="20" r="19.5" stroke="black" stroke-opacity="0.05"/>
<defs>
<clipPath id="clip0_9_410127">
<rect width="24" height="22.664" fill="white" transform="translate(8 8.5)"/>
</clipPath>
</defs>
</svg>
