<svg width="40" height="40" viewBox="0 0 40 40" fill="none" xmlns="http://www.w3.org/2000/svg">
<circle cx="20" cy="20" r="20" fill="#D31F2A"/>
<path d="M14.2381 18.2731L9.52381 15.1429L14.2381 12V18.2731ZM25.2381 18.2731L20.4159 15.1429L25.2381 12V18.2731ZM25.7619 18.2731L30.4631 15.1429L25.7619 12V18.2731ZM30.4631 22.4762L25.7619 25.6149V19.3417L30.4631 22.4762ZM25.2381 25.6149L20.4159 22.4762L25.2381 19.3417V25.6149ZM25.0977 26.1429L20.2682 29.2857V23.0126L25.0977 26.1429ZM19.7318 29.2857L15.05 26.1429L19.7318 23.0126V29.2857ZM25.9023 18.8095L31 22.2263V15.4084L25.9023 18.8095ZM19.5841 15.1429L14.7619 18.2731V12L19.5841 15.1429ZM14.2381 25.6149L9.52381 22.4762L14.2381 19.3417V25.6149ZM19.5841 22.4762L14.7619 25.6149V19.3417L19.5841 22.4762ZM9 22.2263L14.0967 18.8174L9 15.4084V22.2263Z" fill="white"/>
<circle cx="20" cy="20" r="19.5" stroke="black" stroke-opacity="0.05"/>
</svg>
