<svg width="40" height="40" viewBox="0 0 40 40" fill="none" xmlns="http://www.w3.org/2000/svg">
<circle cx="20" cy="20" r="20" fill="#F6F8FA"/>
<g clip-path="url(#clip0_9_398132)">
<path d="M18.1786 10.7892L20 8.46387L21.8214 10.7892L20 16.3567L18.1786 10.7892ZM18.0389 12.131L15.75 10.8924L16.1325 13.6853L19.3929 16.9639L18.0389 12.131ZM21.9611 12.131L24.25 10.8924L23.8675 13.6853L20.6071 16.9639L21.9611 12.131Z" fill="#02B214"/>
<path d="M16.9639 15.75L19.3924 18.1786L16.9639 20.6071L14.5353 18.1786L16.9639 15.75ZM23.0353 15.75L25.4639 18.1786L23.0353 20.6071L20.6067 18.1786L23.0353 15.75ZM16.9639 21.8214L19.3924 24.25L16.9639 26.6786L14.5353 24.25L16.9639 21.8214ZM23.0353 21.8214L25.4639 24.25L23.0353 26.6786L20.6067 24.25L23.0353 21.8214ZM19.9996 18.7857L22.4282 21.2143L19.9996 23.6429L17.571 21.2143L19.9996 18.7857ZM14.8389 19.3929L16.3567 20.9107L14.8389 22.4286L13.321 20.9107L14.8389 19.3929ZM13.9282 24.8571L15.1424 26.0714L13.9282 27.2857L12.7139 26.0714L13.9282 24.8571ZM16.3567 27.2857L17.571 28.5L16.3567 29.7143L15.1424 28.5L16.3567 27.2857ZM23.6424 27.2857L24.8567 28.5L23.6424 29.7143L22.4282 28.5L23.6424 27.2857ZM21.821 29.1071L23.0353 30.3214L21.821 31.5357L20.6067 30.3214L21.821 29.1071ZM18.1782 29.1071L19.3924 30.3214L18.1782 31.5357L16.9639 30.3214L18.1782 29.1071ZM26.0103 24.7964L27.2853 26.0836L26.0103 27.3586L24.7232 26.0836L26.0042 24.8025L26.0103 24.7964ZM25.1603 19.3929L26.6782 20.9107L25.1603 22.4286L23.6424 20.9107L25.1603 19.3929ZM19.9996 24.8571L22.4282 27.2857L19.9996 29.7143L17.571 27.2857L19.9996 24.8571Z" fill="#F3C337"/>
</g>
<circle cx="20" cy="20" r="19.5" stroke="black" stroke-opacity="0.05"/>
<defs>
<clipPath id="clip0_9_398132">
<rect width="16" height="24" fill="white" transform="translate(12 8)"/>
</clipPath>
</defs>
</svg>
