<svg width="40" height="40" viewBox="0 0 40 40" fill="none" xmlns="http://www.w3.org/2000/svg">
<circle cx="20" cy="20" r="20" fill="#024FA1"/>
<g clip-path="url(#clip0_9_385558)">
<path fill-rule="evenodd" clip-rule="evenodd" d="M39.7561 25.772H50.7261C54.4953 25.772 55.8909 27.6563 55.8909 30.986C55.8909 33.8545 54.5336 36.0732 50.7644 36.0732H45.0712V40.7227H39.7561V25.772ZM45.0711 32.4304H48.5018C49.8401 32.4304 50.3494 31.9694 50.3494 30.8808C50.3494 29.7504 49.8403 29.2889 48.5018 29.2889H45.0711V32.4304ZM57.6437 25.772H71.9487V29.4147H62.9588V31.425H71.3089V35.0692H62.9588V37.0793H71.9487V40.7227H57.6437V25.772ZM74.1734 25.772H85.1429C88.9129 25.772 90.3083 27.6563 90.3083 30.986C90.3083 33.8545 88.9511 36.0732 85.1807 36.0732H79.4887V40.7227H74.1734V25.772ZM79.4887 32.4304H82.9191C84.2574 32.4304 84.7667 31.9694 84.7667 30.8808C84.7667 29.7504 84.2574 29.2889 82.9191 29.2889H79.4887V32.4304ZM95.4531 34.378C92.8525 33.9374 91.7788 32.2624 91.7788 30.1689C91.7788 26.2945 95.1904 25.2485 99.5622 25.2485C105.555 25.2485 108.025 26.9858 108.214 30.1481H102.031C102.031 29.5408 101.71 29.1631 101.221 28.9539C100.75 28.7242 100.147 28.6406 99.5622 28.6406C97.9791 28.6406 97.433 29.0798 97.433 29.7085C97.433 30.1266 97.6018 30.3998 98.1297 30.4831L104.481 31.5297C107.158 31.9694 108.817 33.3514 108.817 35.8844C108.817 39.5291 106.141 41.2461 100.165 41.2461C96.0753 41.2461 91.608 40.6181 91.5895 36.2208H97.9978C98.0158 36.7226 98.1863 37.0575 98.5638 37.2881C98.9584 37.4978 99.5431 37.6027 100.372 37.6027C102.03 37.6027 102.484 37.0997 102.484 36.3877C102.484 35.948 102.238 35.5086 101.523 35.3835L95.4531 34.378ZM110.55 25.772H115.865V40.7227H110.55V25.772ZM135.563 34.9014C135.224 36.8698 134.62 38.4612 133.3 39.5497C132.001 40.6387 129.964 41.2461 126.723 41.2461C123.5 41.2461 117.525 40.9943 117.525 33.2477C117.525 25.4996 123.5 25.2482 126.723 25.2482C129.926 25.2482 134.865 25.7084 135.563 31.6351H129.569C129.418 30.5662 128.777 29.0169 126.723 29.0169C124.554 29.0169 123.179 30.2104 123.179 33.2475C123.179 36.2837 124.517 37.4764 126.459 37.4764C128.137 37.4764 129.135 36.7018 129.569 34.9012H135.563V34.9014ZM146.062 25.2485C149.285 25.2485 155.26 25.4998 155.26 33.248C155.26 40.9946 149.285 41.2464 146.062 41.2464C142.838 41.2464 136.863 40.9943 136.863 33.248C136.863 25.4996 142.838 25.2485 146.062 25.2485ZM142.518 33.248C142.518 36.2841 143.894 37.4767 146.062 37.4769C148.229 37.4769 149.606 36.2842 149.606 33.248C149.606 30.211 148.229 29.0174 146.062 29.0174C143.894 29.0174 142.518 30.2107 142.518 33.248ZM31.7248 25.9202C32.068 18.7474 25.8775 10.6697 17.438 9.67113L17.4525 9.57324C25.7725 9.57324 32.1507 17.2696 32.1507 23.3413C32.1426 24.6053 32.0427 25.3884 31.8646 25.957L31.7248 25.9202ZM31.333 26.9079C29.7648 29.6274 25.8689 33.2053 20.1061 33.2053C17.5583 33.2053 15.8881 32.5047 15.3957 32.3236L15.43 32.2165C15.8346 32.3 16.2423 32.3675 16.6521 32.419C17.062 32.4705 17.4737 32.506 17.8864 32.5254C18.299 32.5448 18.7123 32.5479 19.1252 32.535C19.5382 32.5221 19.9504 32.493 20.361 32.4478C15.759 30.7573 12.2928 25.3892 12.2928 18.3661C12.2928 13.9872 14.1058 11.4793 14.3954 11.0414L14.4975 11.0817C14.258 11.5954 13.0204 14.1045 13.0204 18.1605C13.0204 24.3738 16.4256 30.4392 21.2096 32.3329C21.513 32.2832 21.8151 32.2255 22.1154 32.1596C22.4157 32.0938 22.7142 32.02 23.0106 31.9381C23.307 31.8563 23.6011 31.7665 23.8927 31.6689C24.1842 31.5713 24.4731 31.466 24.759 31.3529C19.7683 26.5818 15.6759 16.8042 15.647 11.0445L15.777 11.0054C17.0553 16.939 21.0222 26.2897 25.2771 31.138C25.5807 31.0074 25.8806 30.8683 26.1763 30.7206C26.4719 30.573 26.7634 30.417 27.0504 30.2529C27.3373 30.0887 27.6194 29.9164 27.8965 29.7363C28.1736 29.5562 28.4455 29.3681 28.7119 29.1725C26.6206 21.4157 21.2426 14.2342 16.7336 10.5365L16.8296 10.4694C21.313 12.6704 27.6548 20.2109 29.1552 28.8343C29.9709 28.1882 30.6672 27.5078 31.2207 26.8319L31.333 26.9079Z" fill="white"/>
<path fill-rule="evenodd" clip-rule="evenodd" d="M19.53 7.03906C21.2985 7.03906 22.6213 7.76864 22.6213 9.14497C22.6213 11.7606 18.0691 15.1245 13.1692 15.1245C11.0586 15.1245 10.0388 14.1833 10.0388 13.0693C10.0388 10.1895 15.1612 7.03906 19.53 7.03906ZM21.274 9.06368C21.274 8.54849 20.8582 7.44706 18.6921 7.44706C15.3698 7.44706 11.0845 10.0964 11.0845 12.3328C11.0845 13.3483 11.93 13.9637 13.4949 13.9637C17.0369 13.9637 21.274 11.2686 21.274 9.06368Z" fill="white"/>
<path fill-rule="evenodd" clip-rule="evenodd" d="M8.29813 14.4026C8.17542 14.6148 7.68365 15.5769 7.68365 16.5628C7.68365 18.3912 9.53251 20.0886 12.9331 20.0886C19.475 20.0886 27.0332 15.277 27.0332 10.8105C27.0332 8.80575 25.1339 7.71564 23.8151 7.49023L23.7905 7.56842C24.2006 7.69811 25.7031 8.3962 25.7031 10.1821C25.7031 13.7408 19.0298 18.5899 12.3826 18.5899C9.83781 18.5899 8.23453 17.3346 8.23453 15.5062C8.23453 14.9278 8.35506 14.5468 8.38702 14.4365L8.29813 14.4026Z" fill="white"/>
<path fill-rule="evenodd" clip-rule="evenodd" d="M29.7304 11.1445C29.9099 11.2806 30.9873 12.178 30.9873 13.8748C30.9873 19.6609 21.9148 25.3504 13.8939 25.3504C9.11069 25.3504 6.93017 22.9904 7.02682 20.895H7.11245C7.3 21.9832 8.85302 23.9305 13.0394 23.9305C21.0702 23.9305 30.0371 18.0434 30.0371 12.8854C30.0371 12.0007 29.7965 11.4494 29.6606 11.2043L29.7304 11.1445Z" fill="white"/>
<path fill-rule="evenodd" clip-rule="evenodd" d="M32.7628 16.5469C32.8005 16.67 32.9958 17.2239 32.9958 18.0914C32.9958 24.5278 23.8143 30.0379 15.829 30.0379C11.7191 30.0379 9.57283 28.043 9.11969 27.2329L9.19291 27.179C10.33 28.1727 12.57 28.9277 15.1841 28.9277C22.2367 28.9277 32.76 23.5664 32.666 16.5701L32.7628 16.5469Z" fill="white"/>
</g>
<circle cx="20" cy="20" r="19.5" stroke="black" stroke-opacity="0.05"/>
<defs>
<clipPath id="clip0_9_385558">
<rect width="26" height="26.2792" fill="white" transform="translate(7 7)"/>
</clipPath>
</defs>
</svg>
