<svg width="40" height="40" viewBox="0 0 40 40" fill="none" xmlns="http://www.w3.org/2000/svg">
<circle cx="20" cy="20" r="20" fill="#F6F8FA"/>
<g clip-path="url(#clip0_9_399357)">
<path d="M9.26396 18.6271C10.0294 15.8289 13.217 15.163 16.1518 15.0807C18.5643 15.0131 21.2544 15.3321 21.2544 15.3321L19.9905 19.9533C19.9905 19.9533 17.3004 19.6343 14.8878 19.7019C11.953 19.7842 8.76534 20.4501 8 23.2483L9.26396 18.6271Z" fill="#0190FF"/>
<path d="M27.579 27.2849C18.9442 26.7465 8.90984 22.2926 9.264 18.627L8.0727 22.9826C7.71127 26.7226 17.0196 31.1629 26.315 31.9061L27.579 27.2849Z" fill="#2B01BE"/>
<path d="M30.717 21.2794C29.9516 24.0776 26.764 24.7435 23.8292 24.8258C21.4166 24.8934 18.7266 24.5744 18.7266 24.5744L19.9905 19.9532C19.9905 19.9532 22.6805 20.2722 25.0932 20.2046C28.0279 20.1223 31.2156 19.4564 31.9809 16.6582L30.717 21.2794Z" fill="#2B01BE"/>
<path d="M12.402 12.6212C21.0368 13.1596 31.0711 17.6136 30.717 21.2792L31.9083 16.9235C32.2696 13.1835 22.9614 8.74322 13.666 8L12.402 12.6212Z" fill="#0190FF"/>
</g>
<circle cx="20" cy="20" r="19.5" stroke="black" stroke-opacity="0.05"/>
<defs>
<clipPath id="clip0_9_399357">
<rect width="24" height="23.9351" fill="white" transform="translate(8 8)"/>
</clipPath>
</defs>
</svg>
