<svg width="40" height="40" viewBox="0 0 40 40" fill="none" xmlns="http://www.w3.org/2000/svg">
<circle cx="20" cy="20" r="20" fill="#1384C9"/>
<path d="M29.317 15.8039C29.4189 17.1122 29.2145 18.3431 28.7038 19.4968C27.8418 21.2007 26.4584 22.2486 24.6477 22.8362C23.8074 23.0833 22.9442 23.2175 22.0583 23.2389C22.0206 23.2396 22.0017 23.2215 22.0017 23.1844L22.007 20.4241C22.0069 20.4065 22.0134 20.3895 22.0252 20.3763C22.0371 20.3631 22.0534 20.3546 22.0711 20.3525C22.8823 20.2592 23.6083 19.9687 24.2493 19.4808C24.7677 19.0493 25.0989 18.519 25.2427 17.8902C25.4642 16.9523 25.3759 16.1066 24.9778 15.3531C24.2268 13.9313 22.6394 13.3566 21.0969 13.4741C19.9432 13.5624 18.9775 14.0346 18.1998 14.8906C17.7433 15.4048 17.4278 16.0044 17.2533 16.6895C16.3966 20.0181 18.5641 22.9099 21.9301 23.2357C21.9664 23.2393 21.9849 23.2596 21.9857 23.2966L22.0028 24.8541L21.9942 30.9463C21.9942 30.9847 21.9753 31.0026 21.9376 30.9997L21.6 30.9773C18.4402 30.5429 15.8272 29.1374 13.7612 26.7609C11.7152 24.2876 10.8061 21.4521 11.034 18.2545C11.1116 17.4967 11.2566 16.7614 11.4688 16.0486C11.8968 14.6655 12.5883 13.4289 13.5433 12.3385C14.5952 11.1663 15.8596 10.2886 17.3367 9.70532C18.9483 9.09072 20.6183 8.87778 22.3467 9.0665C23.3559 9.17689 24.3105 9.45891 25.2107 9.91255C27.6427 11.1361 29.0115 13.0998 29.317 15.8039Z" fill="white"/>
<circle cx="20" cy="20" r="19.5" stroke="black" stroke-opacity="0.05"/>
</svg>
