<svg width="40" height="40" viewBox="0 0 40 40" fill="none" xmlns="http://www.w3.org/2000/svg">
<circle cx="20" cy="20" r="20" fill="#2480FE"/>
<g clip-path="url(#clip0_9_400381)">
<path d="M26.0417 19.6614C26.3407 19.0486 26.9326 17.7784 27.6049 16.3025C28.7862 13.7064 27.3264 12.5054 25.7766 12.5H18.9285L11.9642 27.5H15.7142L18.1249 22.1429H21.6874C23.9674 22.1595 25.1123 21.567 26.0417 19.6614ZM24.1549 16.1836C23.7528 17.0312 23.3471 17.8771 22.9378 18.7213C22.6416 19.348 22.3983 19.4643 21.7592 19.4643H19.4642L21.4496 15.1786H23.7499C24.2551 15.1812 24.6178 15.2129 24.1549 16.1836Z" fill="white"/>
</g>
<circle cx="20" cy="20" r="19.5" stroke="black" stroke-opacity="0.05"/>
<defs>
<clipPath id="clip0_9_400381">
<rect width="18" height="16" fill="white" transform="translate(11 12)"/>
</clipPath>
</defs>
</svg>
