<svg width="40" height="40" viewBox="0 0 40 40" fill="none" xmlns="http://www.w3.org/2000/svg">
<circle cx="20" cy="20" r="20" fill="#F6F8FA"/>
<g clip-path="url(#clip0_9_406514)">
<path d="M19.35 11.4933C21.2044 10.845 23.2822 10.8616 25.1273 11.5376C26.8468 12.1619 28.3503 13.3568 29.3532 14.8843C30.4355 16.5133 30.9268 18.5247 30.7199 20.4695C29.922 20.15 29.1186 19.8397 28.3189 19.5202C28.3207 18.5948 28.3207 17.6677 28.3189 16.7423C27.3344 16.7405 26.3482 16.7423 25.3637 16.7423C25.3619 17.2798 25.3637 17.8173 25.3637 18.3566C23.4244 17.5901 21.4832 16.8273 19.5439 16.0608C17.5843 16.8495 15.6247 17.64 13.665 18.4323C13.8737 16.8772 14.5239 15.3867 15.5194 14.1732C16.5149 12.9487 17.8577 12.0086 19.35 11.4933Z" fill="#EAC463"/>
<path d="M13.6647 18.4321C15.6243 17.6397 17.5839 16.8492 19.5436 16.0605C21.4829 16.827 23.4241 17.5898 25.3634 18.3563C25.3634 17.817 25.3615 17.2795 25.3634 16.7421C26.3478 16.7421 27.3341 16.7402 28.3185 16.7421C28.3204 17.6674 28.3204 18.5946 28.3185 19.5199C29.1182 19.8394 29.9217 20.1497 30.7196 20.4693C31.8111 20.9033 32.9045 21.3299 33.9961 21.764C33.9961 22.5582 33.9961 23.3505 33.9961 24.1447C29.1792 22.2423 24.3623 20.3455 19.5454 18.4468C15.0333 20.2698 10.5193 22.0909 6.00532 23.9138C6.00409 23.1184 6.00409 22.3224 6.00532 21.5257C8.55782 20.4933 11.114 19.4664 13.6647 18.4321Z" fill="#223555"/>
</g>
<circle cx="20" cy="20" r="19.5" stroke="black" stroke-opacity="0.05"/>
<defs>
<clipPath id="clip0_9_406514">
<rect width="28" height="13.1504" fill="white" transform="translate(6 11)"/>
</clipPath>
</defs>
</svg>
