<svg width="40" height="40" viewBox="0 0 40 40" fill="none" xmlns="http://www.w3.org/2000/svg">
<circle cx="20" cy="20" r="20" fill="#0F0808"/>
<g clip-path="url(#clip0_9_397020)">
<path d="M34 20C34 27.7344 27.7344 34 20 34C12.2656 34 6 27.7261 6 20C6 12.2656 12.2656 6 20 6C27.7344 6 34 12.2656 34 20ZM32.5228 20C32.5228 13.0871 26.9129 7.47718 20 7.47718C13.0788 7.47718 7.47718 13.0871 7.47718 20C7.47718 26.9129 13.0871 32.5228 20 32.5228C26.9129 32.5228 32.5228 26.9129 32.5228 20Z" fill="#087CF1"/>
<path d="M16.8469 24.141C16.8137 24.4148 16.8884 24.4563 17.0875 24.2571C17.8593 23.4771 18.6228 22.697 19.378 21.9252C19.8095 21.4854 20.2411 21.4854 20.6726 21.9252C21.4029 22.6887 22.1415 23.4605 22.8884 24.2488C23.0792 24.4563 23.1622 24.4148 23.1373 24.1327C23.1207 23.9833 23.1124 23.8422 23.1124 23.6928C23.0958 22.5974 23.0958 21.5268 23.1124 20.4812C23.1207 19.6347 24.407 19.6264 24.407 20.531C24.407 22.3899 24.3987 24.2405 24.407 26.0829C24.407 26.1493 24.3904 26.2156 24.3406 26.2737C23.9921 26.7551 23.6021 26.7883 23.1788 26.365C22.1415 25.3277 21.1124 24.2903 20.0917 23.2364C20.0502 23.1866 19.9755 23.1866 19.9257 23.2364C18.9133 24.282 17.9008 25.3111 16.8884 26.3235C16.7805 26.4314 16.656 26.5227 16.5066 26.6057C16.2079 26.7634 15.8427 26.5642 15.6933 26.3152C15.6352 26.2156 15.6104 26.0912 15.6104 25.9418C15.6104 22.0912 15.6104 18.0995 15.6104 13.9584C15.6104 13.3028 16.1249 13.3443 16.7141 13.3443C18.3157 13.3443 19.8842 13.3443 21.4195 13.3443C21.9838 13.3443 22.3987 13.3941 22.656 13.5019C23.3863 13.7924 24.0004 14.4065 24.266 15.1534C24.6145 16.1576 24.4485 17.0704 23.768 17.9086C23.2037 18.6057 22.3821 18.9127 21.4527 18.9044C19.8095 18.8961 18.3157 18.8878 16.9713 18.9044C16.9299 18.9044 16.905 18.9293 16.905 18.9708C16.905 20.4646 16.905 21.9833 16.9133 23.5185C16.9133 23.7426 16.905 23.9418 16.8801 24.1244L16.8469 24.141ZM16.8718 14.6223V17.5932C16.8718 17.5932 16.8967 17.6596 16.9382 17.6596H21.5523C22.4153 17.6679 23.1207 16.9708 23.1207 16.1161C23.1207 15.253 22.4236 14.5559 21.5606 14.5559H16.9465C16.9465 14.5559 16.8801 14.5808 16.8801 14.614L16.8718 14.6223Z" fill="white"/>
</g>
<circle cx="20" cy="20" r="19.5" stroke="black" stroke-opacity="0.05"/>
<defs>
<clipPath id="clip0_9_397020">
<rect width="28" height="28" fill="white" transform="translate(6 6)"/>
</clipPath>
</defs>
</svg>
