<svg width="40" height="40" viewBox="0 0 40 40" fill="none" xmlns="http://www.w3.org/2000/svg">
<circle cx="20" cy="20" r="20" fill="#003B49"/>
<g clip-path="url(#clip0_9_395828)">
<path d="M13.5711 9.71387C13.5711 9.71387 7.82784 20.0317 13.5711 30.2853C13.5711 30.2853 25.2313 30.8735 31.5711 19.9964C31.5711 19.9964 26.7015 10.1317 13.5711 9.71387ZM25.2679 18.7197C24.9525 18.5687 24.6308 18.4315 24.3036 18.3082C24.1674 19.4639 23.8568 20.5923 23.3824 21.6549C23.1169 22.2174 22.8013 22.7549 22.4381 23.2608C22.0729 23.7522 21.6641 24.2096 21.2166 24.6275C20.3302 25.4312 19.3152 26.0803 18.2138 26.5477C17.1518 27.0106 16.0281 27.3172 14.8774 27.4567C15.9617 27.1347 16.9934 26.6565 17.94 26.0373C18.2273 25.8477 18.5044 25.6439 18.7712 25.4266C17.77 24.6858 16.8935 23.7899 16.1747 22.7729C15.8276 22.2573 15.5261 21.7122 15.2741 21.1445C15.0368 20.5809 14.8514 19.997 14.7199 19.3998C14.4804 18.2341 14.4397 17.0363 14.5997 15.857C14.7437 14.7127 15.0561 13.5942 15.5273 12.5399C15.2532 13.631 15.1408 14.7564 15.1937 15.8802C15.213 16.334 15.2606 16.7866 15.3371 17.2334C16.4049 16.7601 17.5375 16.4494 18.6973 16.3115C19.319 16.2568 19.9443 16.2568 20.5661 16.3115C21.1781 16.3674 21.783 16.4787 22.3751 16.6432C23.5188 16.9882 24.5969 17.5219 25.5649 18.2221C26.5074 18.8915 27.347 19.695 28.0573 20.6071C27.224 19.8457 26.2847 19.2098 25.2679 18.7197Z" fill="#F6F8FD"/>
</g>
<circle cx="20" cy="20" r="19.5" stroke="black" stroke-opacity="0.05"/>
<defs>
<clipPath id="clip0_9_395828">
<rect width="21" height="22" fill="white" transform="translate(11 9)"/>
</clipPath>
</defs>
</svg>
