<svg width="40" height="40" viewBox="0 0 40 40" fill="none" xmlns="http://www.w3.org/2000/svg">
<circle cx="20" cy="20" r="20" fill="#F6F8FA"/>
<g clip-path="url(#clip0_9_400967)">
<path fill-rule="evenodd" clip-rule="evenodd" d="M12.6236 14.0107C14.3831 14.0107 15.8969 15.1398 16.4587 16.7132C17.4486 15.0964 19.2298 14.0162 21.2566 14.0162H26.2442L26.2551 17.107H21.2566C19.862 17.107 18.7312 18.2306 18.7312 19.6288C18.7312 21.0053 19.862 22.147 21.2566 22.147H25.3157L30.1118 14.0378H33.2424L33.237 16.2273L34.9856 15.0422V15.156L27.9766 20.5085L34.9856 15.7522V15.866L27.2667 21.7153L34.9856 16.4675V16.5867L26.5766 22.8895L34.9856 17.1829V17.3021L25.8938 24.0691L34.9856 17.8928V18.0066L33.2424 19.291L33.237 25.2704H30.101V21.9013L28.6089 23.0249L27.1077 25.227H21.2566C18.5397 25.227 16.2401 23.2616 15.7433 20.6838C14.9955 21.5725 13.8755 22.1416 12.6236 22.1416H10.1054V25.2216H7.00732V14.0107H12.6236ZM12.6236 19.0507C13.1637 19.0507 13.6009 18.6136 13.6009 18.0789C13.6009 17.5369 13.1637 17.1016 12.6236 17.1016H10.1054V19.0507H12.6236Z" fill="#153471"/>
</g>
<circle cx="20" cy="20" r="19.5" stroke="black" stroke-opacity="0.05"/>
<defs>
<clipPath id="clip0_9_400967">
<rect width="28" height="11.2723" fill="white" transform="translate(7 14)"/>
</clipPath>
</defs>
</svg>
