<svg width="40" height="40" viewBox="0 0 40 40" fill="none" xmlns="http://www.w3.org/2000/svg">
<circle cx="20" cy="20" r="20" fill="black"/>
<circle cx="20" cy="20" r="19.5" stroke="black" stroke-opacity="0.05"/>
<path fill-rule="evenodd" clip-rule="evenodd" d="M25.7604 28.877C19.9514 32.8807 12.6588 32.273 9.47719 27.5185C6.29562 22.7641 8.42263 15.6502 14.2317 11.6464C20.0407 7.64266 27.3333 8.25037 30.5149 13.0049C33.7143 17.7772 31.5695 24.8732 25.7604 28.877Z" fill="#010202"/>
<path fill-rule="evenodd" clip-rule="evenodd" d="M25.582 28.0265C20.1304 31.7979 13.2668 31.208 10.2818 26.7395C7.29688 22.2711 9.29877 15.5862 14.7503 11.8326C20.2019 8.0791 27.0655 8.65107 30.0505 13.1196C33.0354 17.5881 31.0335 24.2551 25.582 28.0265Z" fill="#E83B49"/>
<path fill-rule="evenodd" clip-rule="evenodd" d="M26.7077 17.1422C26.2251 16.6596 25.4208 15.7123 25.2063 14.4968C25.1348 14.1215 25.0276 13.7461 24.7595 13.478C22.0426 10.8684 18.3785 10.7075 15.7867 11.1901C14.8752 11.1365 12.2834 10.3679 11.354 11.4761C10.7999 12.1196 11.0501 13.1384 11.1931 13.6925C11.211 13.7819 11.4433 14.2823 11.3719 14.3538C11.354 14.3717 11.5506 14.4432 11.5327 14.4611C8.49414 18.2146 7.36808 23.9522 10.0492 27.2231C13.4989 31.4056 19.7369 31.1196 23.2759 29.3501C14.6607 32.1206 15.7867 19.9663 21.4528 22.5044C22.0605 22.7725 23.3474 23.2551 24.0981 23.0942C25.1348 22.8619 25.4029 22.0218 25.671 21.3426L26.9222 18.0359C27.0116 17.7141 26.9401 17.3745 26.7077 17.1422Z" fill="#010202"/>
<path fill-rule="evenodd" clip-rule="evenodd" d="M23.9548 17.9985C23.9369 18.0879 23.8118 18.07 23.8118 17.9985C23.7224 16.8904 23.2041 15.0493 19.6829 15.2638C19.5935 15.2638 19.5578 15.2102 19.665 15.1745C21.2558 14.7812 23.0968 15.0136 23.6688 15.1566C23.8118 15.1923 23.6509 15.6034 23.6867 15.7643C23.7582 16.229 24.1693 16.944 23.9548 17.9985ZM19.2182 13.1368C18.8964 13.1011 18.6641 12.8687 18.6819 12.6542C18.7177 12.4219 19.0037 12.2789 19.3075 12.3146C19.6293 12.3504 19.8616 12.5827 19.8437 12.7972C19.8259 13.0296 19.5399 13.1726 19.2182 13.1368ZM20.7553 12.9938C20.8089 12.8508 21.0056 12.7793 21.22 12.8508C21.4345 12.9223 21.5596 13.1011 21.506 13.2441C21.4524 13.3871 21.2558 13.4585 21.0413 13.3871C20.8447 13.3156 20.7196 13.1368 20.7553 12.9938ZM15.5182 13.0117C14.1419 13.0117 13.5342 14.1735 13.141 14.7276C13.0874 14.6382 11.9256 12.9402 12.4082 12.4576C12.8908 11.975 14.6245 12.5112 15.554 12.8508C15.6612 12.8687 15.6255 13.0117 15.5182 13.0117ZM12.5512 17.1942C12.2652 17.6768 11.7826 17.927 11.4787 17.7483C11.1749 17.5696 11.1391 17.0333 11.4251 16.5507C11.7111 16.0681 12.1937 15.8179 12.4975 15.9967C12.8014 16.1754 12.8193 16.7116 12.5512 17.1942ZM11.1391 19.6787C11.0676 20.1077 10.7816 20.4115 10.4956 20.3579C10.2275 20.3043 10.0667 19.9289 10.1382 19.5C10.2097 19.071 10.4956 18.7671 10.7816 18.8207C11.0676 18.8744 11.2285 19.2497 11.1391 19.6787ZM10.3169 22.2704C10.156 22.2704 10.0309 22.0738 10.0309 21.8414C10.0488 21.6091 10.1918 21.4303 10.3527 21.4303C10.5135 21.4303 10.6386 21.627 10.6386 21.8593C10.6386 22.0917 10.4778 22.2704 10.3169 22.2704ZM25.6528 17.8198C25.7779 17.8198 26.4393 17.6947 26.4393 17.6947C26.4035 17.6768 25.1344 16.9261 24.7412 14.7812C24.6697 14.4059 24.5446 14.0126 24.2586 13.7624C20.8983 10.706 16.0545 11.7963 15.8042 12.1001C14.2849 11.7426 12.283 11.2064 11.729 11.9929C11.3893 12.4576 11.8541 13.2083 12.1043 14.0841C12.1222 14.1556 12.1937 14.388 12.1222 14.4774C5.15133 21.8414 10.1382 33.0127 21.3809 30.0099C21.0771 30.0814 20.5587 30.135 20.237 30.135C17.8419 30.135 16.1796 28.2761 16.1796 25.8988C16.1796 25.0588 16.4119 24.2902 16.823 23.6288C15.84 24.3974 15.1965 25.5771 15.125 26.8998C15.0893 26.721 15.0535 26.5423 15.0356 26.3636C14.7675 23.8433 16.4656 21.5912 18.8786 21.1622C19.5756 20.9656 20.4515 20.9835 21.5239 21.3231C22.2031 21.5376 23.4543 22.1989 24.348 22.0559C24.6697 22.0023 24.9021 21.7163 25.2059 20.9835L25.4741 20.3937C25.0272 21.0192 22.3997 20.6081 22.9002 19.6608C23.4007 18.7135 24.9557 21.3231 25.76 19.5L26.0281 18.785C26.0818 18.642 26.046 18.4811 25.9209 18.3739C25.5098 18.0522 25.5634 17.8377 25.6528 17.8198Z" fill="white"/>
</svg>
