<svg width="40" height="40" viewBox="0 0 40 40" fill="none" xmlns="http://www.w3.org/2000/svg">
<circle cx="20" cy="20" r="20" fill="#1F2124"/>
<g clip-path="url(#clip0_9_400463)">
<path d="M20.0001 11.3398C16.5001 11.3398 13.6301 14.1279 13.6301 17.5279C13.6301 20.9279 16.5001 23.7159 20.0001 23.7159C23.5001 23.7159 26.3701 20.9279 26.3701 17.5279C26.3701 14.1279 23.5001 11.3398 20.0001 11.3398ZM20.0001 21.8119C17.5501 21.8119 15.5901 19.9079 15.5901 17.5279C15.5901 15.1479 17.5501 13.2439 20.0001 13.2439C22.4501 13.2439 24.4101 15.1479 24.4101 17.5279C24.3401 19.9079 22.3801 21.8119 20.0001 21.8119ZM25.6701 23.1718L20.0001 25.5518L14.3301 23.1718L13.3501 24.8719L20.0001 27.5918L26.6501 24.8719L25.6701 23.1718Z" fill="white"/>
</g>
<circle cx="20" cy="20" r="19.5" stroke="black" stroke-opacity="0.05"/>
<defs>
<clipPath id="clip0_9_400463">
<rect width="14" height="17" fill="white" transform="translate(13 11)"/>
</clipPath>
</defs>
</svg>
