<svg width="40" height="40" viewBox="0 0 40 40" fill="none" xmlns="http://www.w3.org/2000/svg">
<circle cx="20" cy="20" r="20" fill="#F48023"/>
<g clip-path="url(#clip0_9_411267)">
<path d="M30.4968 21.814L17.7632 29.1926C15.8301 30.3116 12.4823 30.0086 15.7099 24.4496L17.0535 22.4284H26.6846C26.6846 22.4284 28.7956 22.5153 30.4975 21.814H30.4968ZM20.091 15.7656L15.1228 24.0975C15.1228 24.0975 13.9486 26.0124 13.7142 27.8873V13.0299C13.6996 10.917 15.4749 7.81876 18.878 13.6158C19.3406 14.4396 20.091 15.7663 20.091 15.7663V15.7656ZM26.585 21.8213H24.3368L22.1055 17.9471L19.4657 13.3225C19.4657 13.3225 18.4675 11.4489 17.0007 10.3354C17.9393 10.6875 29.7932 17.5968 29.7932 17.5968C31.3511 18.4929 33.3334 21.763 26.585 21.8213Z" fill="white"/>
</g>
<circle cx="20" cy="20" r="19.5" stroke="black" stroke-opacity="0.05"/>
<defs>
<clipPath id="clip0_9_411267">
<rect width="19" height="20" fill="white" transform="translate(13 10)"/>
</clipPath>
</defs>
</svg>
