<svg width="40" height="40" viewBox="0 0 40 40" fill="none" xmlns="http://www.w3.org/2000/svg">
<circle cx="20" cy="20" r="20" fill="#743DBC"/>
<path d="M12.6602 8.88141C12.72 8.87261 12.7794 8.86513 12.8384 8.85897C12.8982 8.85281 12.958 8.84709 13.0179 8.84181C13.0777 8.83741 13.1376 8.83345 13.1974 8.82993C13.2572 8.82729 13.3175 8.82509 13.3782 8.82333C13.4984 8.81673 13.6198 8.82069 13.7399 8.83785C13.8614 8.85501 13.9789 8.88405 14.0937 8.92497C14.2072 8.96457 14.3181 9.01737 14.4211 9.07941C14.5253 9.14145 14.623 9.21538 14.7128 9.29722C14.7946 9.38698 14.8672 9.48334 14.9306 9.58762C14.9926 9.6919 15.0441 9.80146 15.085 9.91499C15.126 10.0298 15.155 10.1473 15.1722 10.2674C15.188 10.3876 15.1933 10.509 15.1854 10.6304V29.1807H12.6602V8.88141Z" fill="white"/>
<path d="M17.7103 15.648C17.7508 15.6427 17.7917 15.6383 17.8331 15.6348C17.8735 15.6313 17.914 15.6286 17.9545 15.6269C17.995 15.6242 18.0355 15.6225 18.0759 15.6216C18.1173 15.6198 18.1582 15.6189 18.1987 15.6189C18.3109 15.6137 18.4218 15.6189 18.5327 15.6321C18.6449 15.6453 18.7544 15.6678 18.8614 15.6995C18.9683 15.7311 19.0726 15.7721 19.1729 15.8209C19.2745 15.8697 19.3696 15.9265 19.4606 15.9912C19.5438 16.0572 19.6191 16.1311 19.6877 16.213C19.755 16.2948 19.8131 16.3832 19.8633 16.4756C19.9121 16.5694 19.9517 16.6684 19.9807 16.77C20.0098 16.8716 20.0283 16.9759 20.0349 17.0815C20.1748 16.9442 20.3213 16.8149 20.4744 16.6934C20.6275 16.572 20.7864 16.4585 20.951 16.3529C21.1164 16.2482 21.2867 16.1527 21.4618 16.0664C21.6369 15.9793 21.816 15.9019 21.999 15.8341C22.1997 15.7584 22.4034 15.6924 22.6102 15.6361C22.8161 15.5798 23.0247 15.5331 23.2359 15.4962C23.4462 15.4583 23.6583 15.4306 23.8722 15.413C24.0851 15.3954 24.2985 15.3875 24.5124 15.3893C24.7632 15.3787 25.014 15.3866 25.2635 15.4143C25.5116 15.4421 25.7585 15.4883 26 15.5543C26.2429 15.6189 26.4792 15.7034 26.7076 15.8051C26.9372 15.9067 27.1577 16.0255 27.3676 16.1615C27.5537 16.2948 27.7266 16.4453 27.8863 16.609C28.0447 16.774 28.1873 16.9535 28.314 17.1436C28.4394 17.335 28.5477 17.5356 28.6374 17.7468C28.7259 17.9567 28.7958 18.1745 28.846 18.3989C28.8873 18.6154 28.9225 18.8332 28.9516 19.0523C28.9806 19.2714 29.0035 19.4914 29.0202 19.7123C29.0369 19.9323 29.0475 20.1528 29.0519 20.3737C29.0563 20.5945 29.0545 20.8154 29.0466 21.0363V29.1808H26.6072V21.1234C26.6143 20.958 26.616 20.7921 26.6125 20.6258C26.6081 20.4603 26.5989 20.2949 26.5848 20.1294C26.5707 19.964 26.5509 19.799 26.5254 19.6344C26.5008 19.4708 26.4708 19.308 26.4356 19.146C26.4053 19.0233 26.3617 18.9045 26.3076 18.7896C26.2535 18.6761 26.1875 18.5679 26.1109 18.4675C26.0343 18.3659 25.9485 18.2735 25.8535 18.1903C25.7585 18.1059 25.6555 18.0333 25.5459 17.9699C25.406 17.9013 25.2621 17.8419 25.1156 17.7917C24.9691 17.7415 24.8186 17.7006 24.6655 17.6689C24.5137 17.6373 24.3592 17.6161 24.2048 17.6043C24.049 17.5924 23.8933 17.5897 23.7388 17.5977C23.5813 17.595 23.4242 17.599 23.2676 17.6095C23.1109 17.621 22.9552 17.6386 22.8003 17.6623C22.6454 17.6861 22.4919 17.7165 22.3396 17.7534C22.1865 17.7904 22.0356 17.8339 21.8868 17.8841C21.7672 17.9211 21.6506 17.9651 21.537 18.0161C21.4226 18.0671 21.3113 18.1248 21.2031 18.189C21.0957 18.2533 20.9923 18.3232 20.8929 18.3989C20.7934 18.4746 20.6984 18.556 20.6077 18.6431C20.5391 18.7051 20.4771 18.7751 20.4216 18.8504C20.3662 18.9256 20.3187 19.0061 20.2791 19.0919C20.2395 19.1764 20.2091 19.2648 20.1867 19.3546C20.1655 19.4457 20.1523 19.5381 20.1484 19.6318V29.1795H17.709L17.7103 15.648Z" fill="white"/>
<circle cx="20" cy="20" r="19.5" stroke="black" stroke-opacity="0.05"/>
</svg>
