<svg width="40" height="40" viewBox="0 0 40 40" fill="none" xmlns="http://www.w3.org/2000/svg">
<circle cx="20" cy="20" r="20" fill="#F6F8FA"/>
<g clip-path="url(#clip0_9_396757)">
<path d="M12.4168 11.9246L26.1625 9.70851C26.6122 9.63669 27.073 9.68723 27.4965 9.85484C27.92 10.0224 28.2906 10.3009 28.5694 10.6611C28.8482 11.0212 29.025 11.4498 29.0811 11.9018C29.1373 12.3537 29.0708 12.8125 28.8885 13.2299L21.36 30.0356C21.1807 30.4277 20.9052 30.7681 20.5591 31.025C20.2129 31.282 19.8074 31.4473 19.3803 31.5055C18.9531 31.5636 18.5182 31.5128 18.1159 31.3577C17.7137 31.2027 17.3572 30.9484 17.0796 30.6185C16.9241 30.4297 16.7973 30.219 16.7032 29.9931L10.486 15.3974C10.4126 15.2215 10.3576 15.0383 10.3221 14.851C10.2918 14.6628 10.2796 14.4746 10.2918 14.2803C10.3159 13.8988 10.4249 13.5275 10.6108 13.1935C10.7967 12.8594 11.0549 12.5711 11.3664 12.3496C11.6856 12.1369 12.0452 11.9922 12.4228 11.9246H12.4168ZM23.0357 20.3639V14.9421C23.0357 14.3349 22.635 13.9221 21.8214 13.9221H16.9643V14.4199L17.5714 14.7417V25.2453L16.9643 25.561V26.071H20V25.5671L19.3928 25.2453V21.2139H21.9003C22.4832 21.2685 23.0964 20.9892 23.0296 20.3699L23.0357 20.3639ZM21.2143 20.6067H19.3928V14.5353H21.2143V20.6067Z" fill="#0F5A3E"/>
</g>
<circle cx="20" cy="20" r="19.5" stroke="black" stroke-opacity="0.05"/>
<defs>
<clipPath id="clip0_9_396757">
<rect width="20" height="23" fill="white" transform="translate(10 9)"/>
</clipPath>
</defs>
</svg>
