<svg width="40" height="40" viewBox="0 0 40 40" fill="none" xmlns="http://www.w3.org/2000/svg">
<circle cx="20" cy="20" r="20" fill="#003B70"/>
<path d="M9.01935 23.4963C8.8637 23.6866 8.47813 24.1376 7.18234 24.4358C6.96632 24.4861 6.7509 24.5225 6.53607 24.5678C6.53252 24.8945 6.51713 25.6665 6.54524 25.9399C6.57306 26.2199 6.63372 26.29 6.72486 26.3995C6.44818 26.4513 6.16411 26.5075 5.88773 26.5791C5.61165 26.651 5.36604 26.7318 5.05238 26.8348C5.13789 26.6324 5.2246 26.4072 5.253 25.8639C5.27076 25.5798 5.27342 25.315 5.28318 24.3192C5.28881 23.7129 5.30272 22.3358 5.20862 21.8265C5.15062 21.5084 5.07546 21.4125 5 21.3024C5.2749 21.2705 6.31562 20.9849 7.34952 20.718C8.04343 20.5334 8.73202 20.4851 9.10782 20.816C9.53748 21.1989 9.53956 21.7904 9.53689 22.0384C9.53541 22.2257 9.5289 22.8847 9.01935 23.4963ZM7.93395 21.556C7.69722 21.3678 7.34242 21.4403 7.15718 21.4844C6.94176 21.5347 6.76451 21.6007 6.57217 21.6797C6.56063 22.078 6.55027 22.3372 6.54702 22.6482C6.54376 23.022 6.54731 23.3933 6.55145 23.757C6.70503 23.7348 6.85861 23.712 7.14387 23.6455C7.78333 23.4954 8.19672 23.0835 8.20411 22.321C8.20855 21.9239 8.07983 21.6717 7.93395 21.556Z" fill="white"/>
<path d="M10.2186 21.7979C10.1324 21.605 10.0457 21.5067 9.95312 21.4615C10.8074 21.3185 10.9684 21.3251 11.7176 21.0537C11.6534 21.2108 11.5901 21.3606 11.5564 21.6219C11.5058 21.979 11.4975 22.8194 11.4939 23.2085C11.491 23.5352 11.4827 24.3448 11.4948 24.6999C11.5049 25.2574 11.551 25.3432 11.6354 25.4938C11.4481 25.4989 11.2223 25.5024 10.8725 25.5607C10.6151 25.6033 10.3431 25.6735 10.102 25.748C10.1901 25.4761 10.2224 25.3382 10.2579 24.9207C10.2937 24.386 10.2976 24.0054 10.3067 23.0792C10.3135 22.332 10.2937 21.9678 10.2186 21.7979Z" fill="white"/>
<path d="M13.6656 24.5995C13.6937 24.9383 13.731 25.0428 13.7926 25.1913C13.5742 25.1848 13.3315 25.1898 12.9566 25.2375C12.5977 25.2842 12.4645 25.3263 12.2686 25.3843C12.4089 24.6187 12.4118 24.3311 12.4323 22.2695C12.4379 21.7091 12.4346 21.2285 12.3923 20.7598C12.3441 20.1455 12.2592 20.0324 12.144 19.8868C12.8229 19.7676 12.9948 19.7205 13.6934 19.4131C13.6564 19.9919 13.6387 20.2354 13.6218 21.9079C13.6097 23.1146 13.6106 23.8831 13.6656 24.5995Z" fill="white"/>
<path d="M17.4862 20.7289C17.9809 20.6827 18.099 20.6629 18.5795 20.5244C18.5624 20.6496 18.5538 20.7588 18.5526 20.8754C18.5517 20.9769 18.5582 21.0855 18.5736 21.1858C18.2748 21.1636 18.1884 21.1665 17.8904 21.1621C17.9898 21.376 18.0744 21.5592 18.0712 21.8865C18.0611 22.8973 17.1308 23.248 16.1818 23.3184C15.9152 23.3376 15.7663 23.3341 15.5545 23.3199C15.413 23.4169 15.1843 23.5696 15.1828 23.7415C15.1801 24.0484 15.5397 24.0022 16.8497 23.9972C17.5871 23.9987 18.4351 24.0443 18.4245 25.1024C18.4147 26.0931 17.4794 26.8764 15.9892 26.9708C15.3302 27.0128 14.9706 26.9865 14.6975 26.9039C14.3463 26.8069 14.0441 26.5773 14.0474 26.2186C14.0533 25.6265 14.878 25.2202 15.1067 25.1087C14.9114 25.0873 14.6218 25.0533 14.4125 24.8657C14.2575 24.7343 14.1734 24.542 14.1752 24.3396C14.1814 23.7161 14.9603 23.3083 15.2272 23.2323C15.1091 23.2175 14.3285 23.0547 14.338 22.1075C14.348 21.1361 15.1582 20.6224 16.2558 20.5451C17.0015 20.4933 17.369 20.6496 17.4862 20.7289ZM17.5169 25.5951C17.5205 25.1903 17.1444 25.1456 16.9168 25.1365C16.7366 25.1202 15.7249 25.1294 15.4902 25.1371C15.3316 25.2906 15.1263 25.5037 15.123 25.8138C15.1183 26.2967 15.6492 26.4411 16.2534 26.3991C16.9121 26.353 17.5116 26.0704 17.5169 25.5951ZM16.2353 21.052C15.8042 21.0828 15.5894 21.413 15.5843 21.9184C15.5793 22.4242 15.764 22.7573 16.2188 22.7245C16.6742 22.6925 16.8349 22.2886 16.839 21.8909C16.8437 21.3547 16.6905 21.0201 16.2353 21.052Z" fill="white"/>
<path d="M20.7407 21.7559C20.3921 22.0719 20.3859 22.6868 20.3835 22.9588C20.3826 23.076 20.3803 24.0631 20.417 24.3593C20.4537 24.6242 20.5309 24.7103 20.6404 24.8203C20.3415 24.8017 20.0592 24.7706 19.7677 24.7721C19.5168 24.7733 19.273 24.8005 19.0214 24.8289C19.0863 24.617 19.1345 24.4845 19.1605 24.243C19.1957 23.8844 19.1963 23.0129 19.2025 22.3596C19.2167 20.8972 19.0143 20.7374 18.8975 20.6081C19.6597 20.5927 19.8352 20.6018 20.5051 20.4258C20.451 20.9321 20.4495 21.03 20.4365 21.5976C20.5087 21.4271 20.5806 21.2638 20.8664 20.9874C21.3189 20.5501 21.6965 20.5066 22.0347 20.4796C21.9119 20.9889 21.8873 21.0969 21.8181 21.6707C21.6621 21.6109 21.5053 21.552 21.3088 21.5479C21.0339 21.5414 20.844 21.6556 20.7407 21.7559Z" fill="white"/>
<path d="M22.5202 20.9486C22.4516 20.7433 22.3661 20.6696 22.272 20.6036C23.1437 20.6403 23.2772 20.6412 24.032 20.5361C23.9678 20.6788 23.9042 20.8152 23.8699 21.0694C23.8199 21.4168 23.811 22.2569 23.8072 22.6454C23.8036 22.9727 23.7959 23.7817 23.8083 24.1403C23.8181 24.702 23.8643 24.7978 23.9492 24.9677C23.7613 24.9313 23.5337 24.8845 23.1807 24.8647C22.9218 24.8505 22.6463 24.8603 22.4028 24.8816C22.4918 24.6289 22.5247 24.4975 22.5602 24.0862C22.5966 23.5586 22.6004 23.178 22.6096 22.2518C22.617 21.5046 22.6043 21.1931 22.5202 20.9486Z" fill="white"/>
<path d="M28.0551 21.1081C28.5981 21.3993 28.6407 21.8209 28.662 22.0035C28.7413 21.868 28.8123 21.7543 28.986 21.6123C29.3541 21.3217 29.7362 21.2664 30.1158 21.3374C30.3638 21.3842 30.5493 21.4596 30.6804 21.5327C31.3512 21.902 31.3447 22.5489 31.3421 22.8279C31.3364 23.4452 31.3302 24.0624 31.3243 24.6794C31.3134 25.7533 31.3749 25.8065 31.5042 25.9678C31.2193 25.8817 30.9411 25.7938 30.6626 25.7385C30.4144 25.6894 30.159 25.663 29.9329 25.6524C30.0753 25.4606 30.1146 25.3825 30.1333 25.0502C30.1522 24.7504 30.1546 24.5146 30.1584 24.2116C30.1596 24.0021 30.159 23.3153 30.1546 23.0339C30.1489 22.7684 30.1392 22.2491 29.5485 22.1441C29.4246 22.1222 29.1606 22.0923 28.9481 22.2677C28.6883 22.4823 28.686 22.8019 28.6809 23.2682C28.6795 23.4011 28.6694 23.7109 28.6635 24.232C28.6537 25.2745 28.7307 25.3414 28.8455 25.5083C28.5433 25.4352 28.2625 25.3612 27.9749 25.3186C27.7249 25.2825 27.4834 25.2718 27.2487 25.2718C27.3437 25.1526 27.4689 25.1227 27.481 23.8698C27.4899 22.9984 27.5192 22.4104 27.4514 22.1911C27.3452 21.826 27.0567 21.7727 26.9235 21.7564C26.6972 21.7271 26.4308 21.7819 26.2725 21.9198C26.0352 22.1272 26.0089 22.5063 25.9988 23.4316C25.984 24.9487 26.0396 24.9629 26.1388 25.1455C25.8733 25.0922 25.6079 25.041 25.3416 25.0162C25.091 24.9919 24.8397 24.9934 24.5888 24.9963C24.7486 24.651 24.7891 24.5537 24.8137 22.0482C24.824 21.0377 24.6293 20.9113 24.458 20.7586C24.5989 20.777 24.7403 20.7962 24.8732 20.8074C25.3824 20.8515 25.7278 20.7855 26.0891 20.708C26.0462 21.0853 26.0287 21.2158 26.0163 21.6585C26.0965 21.5034 26.1684 21.3791 26.3341 21.2415C26.6184 21.0015 27.0502 20.8814 27.5183 20.9459C27.7127 20.9731 27.892 21.0214 28.0551 21.1081Z" fill="white"/>
<path d="M31.7153 22.2904C32.124 21.7938 32.3915 21.2784 32.3344 20.625C32.738 20.7209 33.0357 20.7706 33.2825 20.8067C33.0357 21.5047 32.7637 21.8669 32.1169 22.3614C31.9828 22.3365 31.9006 22.3179 31.7153 22.2904Z" fill="white"/>
<path d="M33.3005 22.1617C33.6166 22.1008 34.053 22.1709 34.3507 22.254C34.7709 22.3706 35.0902 22.5426 35.4243 22.7213C35.2893 23.0438 35.2464 23.2442 35.2556 23.6043C34.9993 23.269 34.6422 23.048 34.2747 22.9465C33.7704 22.808 33.7669 23.1539 33.7669 23.1773C33.7645 23.4196 33.9927 23.6277 34.4336 23.9863C34.9271 24.3902 35.4947 24.8598 35.487 25.6425C35.4787 26.3867 34.8975 26.8297 33.8258 26.5409C33.2215 26.3796 32.7918 26.1716 32.3545 25.9576C32.4891 25.6055 32.5134 25.5173 32.5942 25.0977C32.9226 25.3738 33.2434 25.6339 33.6802 25.749C34.048 25.847 34.2862 25.7177 34.2886 25.4827C34.293 25.0912 33.7207 24.7548 33.5304 24.6127C33.0807 24.2739 32.553 23.8022 32.5593 23.1148C32.5637 22.6766 32.7845 22.2647 33.3005 22.1617Z" fill="white"/>
<path d="M11.4491 20.2637C11.4491 20.6386 11.1497 20.9425 10.7801 20.9425C10.4108 20.9425 10.1113 20.6386 10.1113 20.2637C10.1113 19.8879 10.4108 19.584 10.7801 19.584C11.1497 19.584 11.4491 19.8879 11.4491 20.2637Z" fill="white"/>
<path d="M23.8682 19.5863C23.8682 19.9618 23.5681 20.266 23.1991 20.266C22.8295 20.266 22.5298 19.9618 22.5298 19.5863C22.5298 19.2114 22.8295 18.9072 23.1991 18.9072C23.5681 18.9072 23.8682 19.2114 23.8682 19.5863Z" fill="white"/>
<path d="M32.9888 18.9784C29.0899 17.5752 25.0176 16.8366 20.9355 16.7635C21.938 15.0108 21.9987 13.6236 21.614 12.471C20.3943 8.81446 17.2807 9.29443 16.4303 10.0608C17.4035 9.72824 18.0951 9.95905 18.188 9.99337C16.8277 10.1153 15.4549 11.0657 15.5357 12.9184C16.3104 11.5954 19.1192 10.8193 20.4425 13.3191C20.9248 14.2287 20.9888 15.4375 20.4434 16.7579C16.0743 16.7366 11.7022 17.4763 7.5293 18.9784C7.54676 19.1086 7.54113 19.1994 7.5293 19.3116C14.6746 16.7392 25.9725 16.7854 32.9888 19.3116C32.9784 19.1725 32.9784 19.1071 32.9888 18.9784Z" fill="#D8262E"/>
<path d="M19.856 9.53415C20.1827 9.29624 20.2013 9.28558 20.5396 9.04501C20.352 9.36666 20.3662 9.73093 20.4955 9.92475L21.2018 8.51296C20.8589 8.32121 20.0466 8.2061 19.4272 8.88729C19.7341 8.84971 20.0235 8.8142 20.2878 8.78224C19.933 9.01512 19.8744 9.32464 19.856 9.53415Z" fill="#D8262E"/>
<path d="M22.324 14.5257C24.3134 11.6545 23.9121 9.96218 22.4853 9.15612C22.6258 8.71876 22.5628 8.31751 22.5628 8.31751L21.8881 9.01911L21.6514 8L21.0791 9.14488C21.0791 9.14488 21.5425 10.918 22.324 14.5257Z" fill="#D8262E"/>
<path d="M36.358 22.8154C36.7069 22.8154 37.0001 23.0918 37.0001 23.4531C37.0001 23.8212 36.7069 24.0973 36.358 24.0973C36.0067 24.0973 35.7114 23.8212 35.7114 23.4531C35.7114 23.0918 36.0067 22.8154 36.358 22.8154ZM36.358 24.0029C36.6539 24.0029 36.8838 23.7665 36.8838 23.4531C36.8838 23.1466 36.6539 22.9098 36.358 22.9098C36.0576 22.9098 35.828 23.1466 35.828 23.4531C35.828 23.7665 36.0576 24.0029 36.358 24.0029ZM36.1074 23.0812H36.3973C36.5755 23.0812 36.6595 23.1513 36.6595 23.2948C36.6595 23.4306 36.5734 23.4874 36.4622 23.4993L36.6767 23.8304H36.5509L36.3473 23.5079H36.2239V23.8304H36.1074V23.0812ZM36.2239 23.4135H36.3456C36.4482 23.4135 36.5423 23.4084 36.5423 23.2898C36.5423 23.1912 36.4568 23.1756 36.3781 23.1756H36.2239" fill="white"/>
<circle cx="20" cy="20" r="19.5" stroke="black" stroke-opacity="0.05"/>
</svg>
