<svg width="40" height="40" viewBox="0 0 40 40" fill="none" xmlns="http://www.w3.org/2000/svg">
<circle cx="20" cy="20" r="20" fill="#0163A0"/>
<g clip-path="url(#clip0_9_396275)">
<path d="M26.9068 15.9085V23.9812C26.9018 24.0792 26.8745 24.1745 26.8272 24.2593C26.7798 24.3441 26.7138 24.416 26.6346 24.4689L26.3793 24.6272L24.4347 25.7909L22.9239 26.7401V18.0089L15.5484 13.6401L19.0162 11.5711L19.3357 11.3828C19.4201 11.3385 19.5133 11.3154 19.6079 11.3154C19.7024 11.3154 19.7956 11.3385 19.88 11.3828L24.687 14.2575L26.905 15.5837V15.9085H26.9068ZM21.1537 18.9775L19.7287 18.0818L16.2259 15.9874C16.1413 15.9439 16.0481 15.9212 15.9537 15.9212C15.8594 15.9212 15.7662 15.9439 15.6816 15.9874L12.5731 17.846L12.3027 18.0089L17.6133 21.1605V27.4654L20.608 25.6087L20.8815 25.4504C20.9603 25.397 21.026 25.325 21.0733 25.2403C21.1205 25.1556 21.1481 25.0605 21.1537 24.9627V18.9779V18.9775ZM12.3027 24.3139L15.8431 26.4951V22.1295L12.3027 24.3139Z" fill="#45C328"/>
</g>
<circle cx="20" cy="20" r="19.5" stroke="black" stroke-opacity="0.05"/>
<defs>
<clipPath id="clip0_9_396275">
<rect width="15" height="17" fill="white" transform="translate(12 11)"/>
</clipPath>
</defs>
</svg>
