<svg width="40" height="40" viewBox="0 0 40 40" fill="none" xmlns="http://www.w3.org/2000/svg">
<circle cx="20" cy="20" r="20" fill="#F6F8FA"/>
<g clip-path="url(#clip0_9_401310)">
<path d="M24.3907 16.5863C24.6882 16.8207 24.9917 17.1328 25.2565 17.4193L25.2868 17.4533L25.4805 17.6658V17.6531C25.4805 16.5378 24.8746 15.5688 23.9869 15.0776L24.0403 15.264L24.0677 15.3478L24.092 15.4291C24.194 15.7728 24.2935 16.1546 24.3439 16.5062L24.3488 16.5408L24.3518 16.5554L24.3907 16.5857V16.5863ZM14.5343 17.5972C14.5343 17.6974 14.541 17.7958 14.5495 17.8923L14.8027 17.5875C15.0427 17.2983 15.3076 17.0308 15.5944 16.7879L15.6156 16.7709L15.6278 16.7588L15.6357 16.7138C15.7061 16.236 15.7753 15.964 15.8967 15.4983L16.0182 15.0272C15.1348 15.5214 14.5343 16.4868 14.5343 17.5972ZM23.5225 20.3178L23.5643 20.3907L23.5735 20.4065L23.6682 20.3682C24.2529 20.1306 24.7425 19.7059 25.0603 19.1606L25.0865 19.1151L25.0986 19.0932L25.0555 19.0276C25.0494 19.0179 25.047 19.0119 25.0403 19.0034L25.0221 18.9754L25.0136 18.9609L24.9772 18.9062C23.9274 17.3519 22.1965 16.3228 20.2311 16.2815L20.1789 16.2803H20.1546L20.1206 16.3495C19.8424 16.9287 19.7573 17.5818 19.8778 18.2129L19.8911 18.2821L19.8972 18.3161L19.9974 18.3124C20.0399 18.3112 20.0787 18.3094 20.1164 18.3094C21.5656 18.3094 22.8315 19.1163 23.5225 20.3178ZM19.1966 19.6682C18.858 19.0499 18.6809 18.3562 18.6817 17.6513C18.6817 16.8856 18.8863 16.1698 19.2397 15.5584L19.2737 15.4983L19.2901 15.4686L19.2154 15.4C18.7544 14.9779 18.1643 14.7242 17.5409 14.6799L17.4923 14.6763L17.4656 14.6744L17.4298 14.7449C16.9618 15.6417 16.7176 16.6384 16.7182 17.65C16.7178 18.6075 16.9363 19.5524 17.3569 20.4125L17.3581 20.4138L17.3691 20.4368L17.3927 20.4842L17.4037 20.5085L17.4796 20.5042C18.1027 20.4741 18.6974 20.2345 19.1674 19.8242L19.2196 19.7793L19.2439 19.7568L19.2057 19.684L19.1966 19.6682ZM11.4263 17.5899C11.4243 19.0607 11.9418 20.4848 12.8877 21.611L13.0638 21.8223L13.0978 21.543C13.1848 20.7714 13.3919 20.0182 13.7116 19.3106L13.728 19.279L13.7353 19.2626L13.7135 19.2098C13.5005 18.6965 13.3911 18.1462 13.3917 17.5905C13.3929 15.3283 15.1645 13.4954 17.3551 13.4954C18.6234 13.4954 19.7485 14.111 20.4746 15.0685L20.4971 15.0964L20.5086 15.1122L20.5608 15.117C21.3337 15.1656 22.0714 15.3417 22.7568 15.6283L23.007 15.7327L22.9135 15.4716C22.0781 13.1341 19.9069 11.4681 17.3551 11.4633C14.0814 11.4699 11.4336 14.2075 11.4263 17.5893V17.5899ZM17.3618 21.7798C17.3193 21.9814 17.2926 22.1909 17.2926 22.4064C17.2938 22.8466 17.3891 23.2637 17.5579 23.6377L17.581 23.6899L17.5913 23.713L17.6726 23.7087C19.6683 23.5964 21.3993 22.4689 22.392 20.8157L22.4205 20.7714L22.4345 20.7453L22.3871 20.6797C22.0254 20.1688 21.5043 19.7923 20.9057 19.6093L20.8474 19.5917L20.8182 19.582L20.7697 19.6658C20.1018 20.8418 18.8815 21.6402 17.4747 21.6833L17.4122 21.6845L17.3818 21.6863L17.3618 21.7798ZM22.7156 23.7791L22.7969 23.7767C26.0002 23.6863 28.5672 20.9839 28.5739 17.6519C28.5672 14.2676 25.9182 11.53 22.6457 11.5221C22.3423 11.5234 22.0394 11.5484 21.7399 11.5968L21.4655 11.6418L21.6858 11.8166C22.2986 12.3105 22.8275 12.9002 23.2523 13.5628L23.2705 13.5919L23.2778 13.6065L23.3288 13.6168C25.1891 13.9501 26.6043 15.6216 26.608 17.6397V17.6525C26.6073 19.7028 25.1496 21.4034 23.2462 21.7009L23.2104 21.707L23.1958 21.7094L23.1648 21.7537C22.7263 22.4059 22.1855 22.9833 21.5632 23.4634L21.3404 23.6334L21.6136 23.6832C21.9008 23.7366 22.194 23.7676 22.494 23.7767L22.5905 23.7791H22.7156ZM19.9676 24.4148L19.9433 24.4045L19.927 24.3984L19.8838 24.416C19.542 24.5508 19.1207 24.6631 18.7467 24.7451L18.4953 24.7991C18.9663 25.1421 19.5338 25.327 20.1164 25.3274C20.6482 25.3274 21.1449 25.1738 21.5711 24.9103L21.1036 24.7864L21.0483 24.7712C20.682 24.6737 20.3215 24.5551 19.9688 24.416L19.9676 24.4148ZM20.1164 28.5337L20.1589 28.5349L20.2663 28.5319C22.7708 28.462 24.8867 26.7942 25.693 24.4768L25.7883 24.2005L25.5309 24.3201C24.8233 24.6495 24.0641 24.8543 23.2869 24.9254L23.2523 24.9297L23.2359 24.9303L23.2049 24.971C22.4782 25.906 21.3653 26.5046 20.1164 26.5046C17.9258 26.5046 16.1536 24.6698 16.1523 22.4064C16.1523 21.9431 16.2264 21.4969 16.3636 21.0846L16.3758 21.0482L16.3806 21.0318L16.3563 20.9857C15.9998 20.2686 15.762 19.4985 15.6521 18.7053L15.6096 18.4199L15.4383 18.647C14.625 19.731 14.1861 21.05 14.1876 22.4052C14.1937 25.739 16.7607 28.445 19.964 28.5312L20.0611 28.5337H20.1164ZM22.6457 10.3437C26.5503 10.3437 29.7141 13.615 29.7147 17.6519C29.7147 19.9104 28.722 21.9286 27.1647 23.271L27.1416 23.2892L27.1283 23.3013L27.1222 23.3487C26.676 26.9369 23.7101 29.7146 20.1158 29.7146H20.0793C16.5482 29.697 13.6297 26.9994 13.1257 23.4926L13.1178 23.4537L13.116 23.4398L13.0778 23.4094C11.3814 22.0737 10.2873 19.9669 10.2861 17.5924C10.2873 13.5555 13.4512 10.2842 17.3551 10.2842C18.301 10.2842 19.2051 10.4754 20.0314 10.8245L20.0581 10.8373L20.0721 10.8434L20.1164 10.8251C20.9216 10.5066 21.7798 10.3431 22.6457 10.3431V10.3437Z" fill="#373535"/>
<path d="M11.4258 17.5886C11.4288 19.1289 11.9813 20.5332 12.8866 21.6085L13.0639 21.8192L13.0966 21.5417C13.1844 20.77 13.3923 20.0167 13.7129 19.3092L13.7269 19.2765L13.7347 19.2601L13.7129 19.2078C13.5003 18.6943 13.3907 18.1439 13.3905 17.588C13.3917 15.327 15.1658 13.4928 17.3539 13.4916C18.6229 13.4928 19.7479 14.1085 20.4746 15.0659L20.4971 15.0938L20.508 15.1096L20.5602 15.1133C21.3325 15.1624 22.0714 15.3403 22.7563 15.6251L23.007 15.7301L22.9135 15.4678C22.0775 13.1303 19.9082 11.4656 17.3551 11.4619C14.0814 11.4668 11.4337 14.2056 11.4258 17.5886ZM17.3618 21.7779C17.3187 21.9788 17.2926 22.1889 17.2926 22.4038C17.2928 22.8286 17.3832 23.2485 17.5579 23.6357L17.5822 23.6867L17.5913 23.7116L17.6727 23.705C19.6677 23.5951 21.3987 22.4676 22.3914 20.8137L22.4205 20.7688L22.4345 20.7439L22.3877 20.6759C22.025 20.1662 21.5043 19.7904 20.9063 19.6067L20.8468 19.5885L20.8183 19.5794L20.7697 19.6626C20.1 20.838 18.8809 21.6376 17.4747 21.6807L17.411 21.6826L17.3806 21.6838" fill="#4598D2"/>
<path d="M19.1963 19.6669C18.8583 19.0482 18.6816 18.3544 18.6826 17.6494C18.6826 16.8844 18.8866 16.1679 19.2406 15.5572L19.274 15.4971L19.291 15.4679L19.2163 15.3993C18.756 14.9762 18.1655 14.7222 17.5418 14.6792L17.4932 14.675L17.4671 14.6738L17.4301 14.7442C16.963 15.6411 16.7194 16.6375 16.7197 17.6488C16.7191 18.6064 16.9374 19.5515 17.3578 20.4119L17.3694 20.4349L17.3937 20.4835L17.404 20.5066L17.4805 20.5029C18.104 20.4728 18.6989 20.2325 19.1683 19.8211L19.2205 19.7768L19.246 19.7556L19.2066 19.6827L19.1963 19.6681V19.6669ZM22.7177 23.7761L22.7978 23.7742C26.0011 23.685 28.5681 20.9808 28.5736 17.6494C28.5675 14.2646 25.9192 11.5269 22.6479 11.5215C22.344 11.522 22.0407 11.5468 21.7408 11.5956L21.4664 11.6393L21.6855 11.8147C22.2988 12.3084 22.8278 12.8983 23.252 13.5615L23.2702 13.5906L23.2793 13.604L23.3297 13.6149C25.1888 13.9488 26.6046 15.6197 26.6101 17.6378V17.65C26.6089 19.7021 25.1499 21.4003 23.2459 21.6996L23.2113 21.7045L23.1955 21.7075L23.1664 21.7531C22.7275 22.4047 22.1865 22.9814 21.5641 23.4609L21.3413 23.6309L21.6139 23.6813C21.9005 23.7336 22.1943 23.7663 22.4955 23.7742L22.5914 23.7761" fill="#FF3818"/>
</g>
<circle cx="20" cy="20" r="19.5" stroke="black" stroke-opacity="0.05"/>
<defs>
<clipPath id="clip0_9_401310">
<rect width="20" height="20" fill="white" transform="translate(10 10)"/>
</clipPath>
</defs>
</svg>
