<svg width="40" height="40" viewBox="0 0 40 40" fill="none" xmlns="http://www.w3.org/2000/svg">
<circle cx="20" cy="20" r="20" fill="#1A988C"/>
<path d="M9.71387 21.2853V22.526C9.71387 26.8139 13.1853 30.2853 17.4732 30.2853H18.7139L16.7724 29.276C14.1855 27.9269 12.0759 25.8151 10.7296 23.2267L9.71387 21.2853ZM21.2853 30.2853H22.526C26.8139 30.2853 30.2853 26.8139 30.2853 22.526V21.2853L29.276 23.2267C27.9269 25.8137 25.8151 27.9232 23.2267 29.2696L21.2853 30.2853ZM30.2853 18.7139V17.4732C30.2853 13.1853 26.8139 9.71387 22.526 9.71387H21.2853L23.2267 10.7232C25.8137 12.0722 27.9232 14.1841 29.2696 16.7724L30.2853 18.7139ZM18.7139 9.71387H17.4732C13.1853 9.71387 9.71387 13.1853 9.71387 17.4732V18.7139L10.7232 16.7724C12.0722 14.1855 14.1841 12.0759 16.7724 10.7296L18.7139 9.71387Z" fill="#CFD532"/>
<circle cx="20" cy="20" r="19.5" stroke="black" stroke-opacity="0.05"/>
</svg>
