<svg width="40" height="40" viewBox="0 0 40 40" fill="none" xmlns="http://www.w3.org/2000/svg">
<circle cx="20" cy="20" r="20" fill="#0075BB"/>
<g clip-path="url(#clip0_9_396379)">
<path d="M15.5915 25.4282H14.2364L13.9989 26.0809C13.9405 26.2357 13.9106 26.351 13.9106 26.427C13.9106 26.4881 13.9364 26.5417 13.986 26.5885C14.0375 26.6333 14.1475 26.6632 14.3164 26.6767V26.7853H13.2144V26.6767C13.3603 26.6475 13.4553 26.6089 13.4981 26.562C13.5863 26.4684 13.6833 26.277 13.7899 25.99L15.0208 22.7139H15.111L16.3291 26.0253C16.4275 26.2913 16.5164 26.4643 16.5951 26.5444C16.6765 26.6231 16.7878 26.6665 16.931 26.6767V26.7853H15.5501V26.6767C15.6892 26.6686 15.7828 26.6428 15.831 26.5973C15.8547 26.5771 15.8737 26.5519 15.8866 26.5235C15.8994 26.4951 15.906 26.4643 15.9056 26.4331C15.9056 26.3469 15.8717 26.2112 15.8032 26.0253L15.5915 25.4282ZM15.5189 25.2354L14.9251 23.6272L14.3164 25.2354H15.5189ZM18.0764 24.8303V26.0809C18.0764 26.3313 18.1008 26.4867 18.149 26.5478C18.2141 26.634 18.3132 26.6767 18.4455 26.6767H18.643V26.7853H17.0802V26.6767H17.2119C17.3598 26.6767 17.4657 26.6224 17.5295 26.5125C17.5634 26.4514 17.581 26.3076 17.581 26.0809V23.4182C17.581 23.1678 17.558 23.0124 17.5111 22.9514C17.444 22.8652 17.3442 22.8224 17.2126 22.8224H17.0802V22.7139H18.3627C18.6762 22.7139 18.9232 22.7512 19.1037 22.8252C19.2842 22.8978 19.4362 23.0213 19.5604 23.195C19.6846 23.3694 19.7464 23.5757 19.7464 23.8145C19.7464 24.1395 19.6514 24.4035 19.462 24.6071C19.2747 24.8107 19.0087 24.9124 18.6647 24.9124C18.5806 24.9124 18.4896 24.9057 18.3912 24.8921C18.2935 24.8785 18.1884 24.8582 18.0764 24.8303ZM18.0764 24.6627C18.1673 24.6831 18.2487 24.6967 18.3193 24.7068C18.3899 24.717 18.4496 24.7218 18.4998 24.7218C18.679 24.7218 18.8323 24.643 18.9612 24.487C19.0922 24.3282 19.158 24.1239 19.158 23.8735C19.158 23.7012 19.1268 23.541 19.0651 23.3952C19.0141 23.2596 18.922 23.1433 18.8018 23.0627C18.6868 22.988 18.5521 22.9492 18.415 22.9514C18.3268 22.9514 18.2141 22.9704 18.0764 23.0077V24.6627ZM21.5011 26.6767V26.7853H20.0015V26.6767H20.1257C20.2702 26.6767 20.3754 26.6292 20.4405 26.5329C20.4819 26.4704 20.5023 26.3198 20.5023 26.0809L20.4996 23.4182C20.4996 23.2167 20.488 23.0837 20.4656 23.0192C20.4455 22.9667 20.4085 22.9223 20.3605 22.893C20.2896 22.8474 20.2072 22.8229 20.123 22.8224H19.9988V22.7139H21.4984V22.8224H21.3715C21.229 22.8224 21.1245 22.8699 21.0594 22.9663C21.0166 23.0287 20.9949 23.1794 20.9949 23.4182L20.9983 26.0809C20.9983 26.2825 21.0092 26.4155 21.0322 26.4799C21.0529 26.533 21.0909 26.5775 21.1401 26.6062C21.2141 26.6537 21.2921 26.6767 21.3749 26.6767H21.5011ZM24.7535 22.7139L24.7922 23.6476H24.6938C24.6748 23.4827 24.649 23.3653 24.6165 23.2947C24.5721 23.1918 24.4972 23.1049 24.402 23.0457C24.3145 22.9914 24.1985 22.9636 24.0539 22.9636H23.5613L23.5606 26.0952C23.5606 26.3395 23.5837 26.4928 23.6305 26.5532C23.6956 26.6353 23.7961 26.6767 23.9318 26.6767H24.0716V26.7853H22.5699V26.6767H22.6934C22.8413 26.6767 22.9465 26.6258 23.0082 26.524C23.0462 26.4616 23.0652 26.3184 23.0652 26.0952V22.9636H22.6445C22.4817 22.9636 22.365 22.9772 22.2964 23.0043C22.1988 23.0491 22.1183 23.1243 22.0671 23.2187C22.0033 23.3246 21.9653 23.4671 21.9531 23.6476H21.8554L21.8961 22.7139H24.7535ZM26.9209 25.4526H25.5658L25.3283 26.0809C25.2699 26.2357 25.2401 26.351 25.2401 26.427C25.2401 26.4881 25.2659 26.5417 25.3154 26.5885C25.367 26.6333 25.4769 26.6632 25.6459 26.6767V26.7853H24.5439V26.6767C24.6897 26.6475 24.7847 26.6089 24.8275 26.562C24.9157 26.4684 25.0127 26.277 25.1193 25.99L26.3502 22.7139H26.4405L27.6585 26.0253C27.7569 26.2913 27.8451 26.4643 27.9245 26.5444C28.0059 26.6231 28.1172 26.6665 28.2597 26.6767V26.7853H26.7859V26.6767C26.925 26.6686 27.1122 26.6428 27.1604 26.5973C27.1841 26.5771 27.2031 26.5519 27.216 26.5235C27.2289 26.4951 27.2354 26.4643 27.2351 26.4331C27.2351 26.3469 27.2011 26.2112 27.1326 26.0253L26.9209 25.4526ZM26.8483 25.2354L26.2545 23.6272L25.6459 25.2354H26.8483ZM31.4565 25.6847L31.5359 25.705L31.2427 26.7853H28.428V26.6767H28.5596C28.7076 26.6767 28.8134 26.6224 28.8765 26.5125C28.9132 26.4494 28.9308 26.3049 28.9308 26.0782V23.4182C28.9308 23.1699 28.9071 23.0145 28.8589 22.9514C28.791 22.8652 28.692 22.8224 28.5596 22.8224H28.428V22.7139H30.0125V22.8224C29.8265 22.8204 29.6956 22.8401 29.6202 22.8815C29.5535 22.9148 29.4997 22.9695 29.4676 23.0369C29.4404 23.0993 29.4269 23.2493 29.4269 23.4861V26.0782C29.4269 26.2404 29.4404 26.3517 29.4676 26.4128C29.4879 26.4535 29.5205 26.484 29.5632 26.5037C29.606 26.5234 29.8455 26.5329 30.0708 26.5329H30.326C30.5947 26.5329 30.7833 26.5105 30.8912 26.465C30.9998 26.4202 31.0989 26.3408 31.1884 26.2275C31.2773 26.1122 31.3669 25.931 31.4565 25.6847ZM14.5716 19.321H13.6799L12.5277 17.3226C12.4583 17.3261 12.3889 17.3282 12.3194 17.3287H12.2488C12.2228 17.3266 12.1968 17.3246 12.1708 17.3226V18.6323C12.1708 18.8765 12.1945 19.0292 12.2414 19.0883C12.3051 19.1724 12.4001 19.2145 12.5277 19.2145H12.6607V19.321H11.1787V19.2145H11.33C11.4739 19.2145 11.577 19.1615 11.6388 19.0543C11.6741 18.9946 11.6917 18.8542 11.6917 18.6323V15.9383C11.6917 15.694 11.668 15.5414 11.6211 15.4823C11.556 15.3982 11.4583 15.3561 11.3294 15.3561H11.1787V15.2496H12.4422C12.8039 15.2496 13.0699 15.2801 13.2409 15.3412C13.4132 15.4009 13.5585 15.5122 13.6779 15.6744C13.798 15.8352 13.8584 16.0272 13.8584 16.2512C13.8584 16.4907 13.7899 16.699 13.6528 16.8748C13.5171 17.0512 13.306 17.1754 13.0197 17.248L13.7227 18.5427C13.8835 18.7992 14.0212 18.9702 14.1366 19.0537C14.2526 19.1385 14.3856 19.1921 14.5716 19.2145V19.321ZM12.1708 17.1414C12.2027 17.1414 12.2305 17.1428 12.2542 17.1448H12.3119C12.6363 17.1448 12.8806 17.0641 13.0448 16.9033C13.2104 16.7424 13.2931 16.5375 13.2931 16.2892C13.2931 16.0462 13.2266 15.8481 13.0923 15.6974C12.9606 15.5441 12.7849 15.4681 12.565 15.4681C12.468 15.4681 12.337 15.4857 12.1715 15.5224L12.1708 17.1414ZM16.4241 15.2496C16.8665 15.2496 17.2492 15.4423 17.5722 15.8264C17.8966 16.2098 18.0594 16.6882 18.0594 17.2622C18.0594 17.8539 17.8966 18.3445 17.5695 18.7347C17.2431 19.1256 16.8482 19.321 16.3847 19.321C15.9158 19.321 15.5216 19.131 15.202 18.7497C14.8837 18.369 14.7249 17.8757 14.7249 17.2704C14.7249 16.6529 14.9088 16.148 15.2773 15.7572C15.5962 15.4192 15.9796 15.2496 16.4241 15.2496ZM16.3766 15.4593C16.0726 15.4593 15.8276 15.5882 15.6437 15.8467C15.4144 16.1684 15.2997 16.6393 15.2997 17.2595C15.2997 17.8947 15.4184 18.3839 15.6566 18.7266C15.8385 18.9872 16.08 19.1174 16.3793 19.1174C16.6989 19.1174 16.9629 18.9749 17.1705 18.6899C17.3795 18.4043 17.484 17.9544 17.484 17.3396C17.484 16.6739 17.3693 16.1772 17.14 15.8494C16.9561 15.5895 16.7016 15.4593 16.3766 15.4593ZM20.6794 15.2496V16.6067H20.5864C20.5566 16.3489 20.4405 16.1317 20.3618 15.979C20.2875 15.8287 20.1726 15.7022 20.03 15.614C19.897 15.5275 19.7421 15.4809 19.5835 15.4796C19.5025 15.4774 19.422 15.4926 19.3474 15.5242C19.2728 15.5558 19.2059 15.6031 19.1512 15.6628C19.0419 15.7728 18.9806 15.9217 18.9809 16.0768C18.9809 16.1948 19.0169 16.3034 19.0888 16.4011C19.1926 16.5443 19.4396 16.7357 19.8291 16.9752C20.1474 17.1706 20.3639 17.3213 20.4799 17.4258C20.5966 17.5296 20.6862 17.6517 20.7486 17.7935C20.8117 17.9354 20.8436 18.0833 20.8436 18.2387C20.8436 18.5332 20.7432 18.7883 20.5423 19.0021C20.3435 19.2145 20.0863 19.321 19.7715 19.321C19.6731 19.321 19.5801 19.3122 19.4932 19.2952C19.3831 19.2677 19.2747 19.2333 19.1689 19.1921C19.006 19.131 18.9042 19.0998 18.8601 19.0998C18.8181 19.0998 18.8133 19.114 18.7882 19.1432C18.7645 19.1717 18.7475 19.2314 18.7353 19.321H18.643V17.9639H18.736C18.7794 18.2434 18.8099 18.4748 18.8832 18.6153C18.9572 18.7524 19.0691 18.867 19.2198 18.9593C19.3703 19.0506 19.5432 19.0983 19.7192 19.0971C19.9289 19.0971 20.0938 19.034 20.2146 18.9071C20.2734 18.8484 20.32 18.7786 20.3514 18.7017C20.3829 18.6248 20.3987 18.5423 20.3978 18.4592C20.3964 18.3586 20.3723 18.2595 20.3272 18.1695C20.2761 18.0644 20.2033 17.9714 20.1135 17.8967C20.0483 17.8397 19.8705 17.7175 19.5787 17.5323C19.2876 17.3443 19.08 17.195 18.9565 17.0844C18.8402 16.9814 18.7455 16.8564 18.6776 16.7167C18.6132 16.5784 18.5808 16.4274 18.5826 16.2749C18.5826 15.9953 18.6756 15.7551 18.8635 15.5536C18.9538 15.4545 19.0643 15.3761 19.1876 15.3236C19.3109 15.2711 19.4441 15.2459 19.5781 15.2496C19.7592 15.2496 19.9513 15.3005 20.1535 15.4016C20.2471 15.4491 20.313 15.4735 20.3516 15.4735C20.3712 15.4743 20.3907 15.4708 20.4088 15.4635C20.427 15.4561 20.4433 15.445 20.4568 15.4308C20.4853 15.3995 20.5701 15.3398 20.5864 15.2496H20.6794ZM22.1756 17.3192L22.1784 18.6316C22.1784 18.8772 22.2021 19.0292 22.2489 19.0883C22.3127 19.1724 22.4091 19.2145 22.538 19.2145H22.7144V19.321H21.2094V19.2145H21.3376C21.4815 19.2145 21.5846 19.1615 21.6464 19.0543C21.6803 18.9946 21.6966 18.8542 21.6966 18.6323L21.6932 15.9383C21.6932 15.694 21.6708 15.5414 21.6253 15.4823C21.5602 15.3982 21.4631 15.3561 21.3342 15.3561H21.206V15.2496H22.4545C22.7585 15.2496 22.9987 15.2862 23.1745 15.3582C23.3509 15.4294 23.4989 15.5502 23.619 15.7205C23.7397 15.8908 23.8001 16.093 23.8001 16.3265C23.8001 16.644 23.7079 16.9026 23.524 17.1014C23.3407 17.3009 23.0829 17.4 22.7477 17.4C22.6662 17.4 22.5774 17.3932 22.4817 17.3796C22.3867 17.366 22.2842 17.3464 22.1756 17.3199V17.3192ZM22.1756 17.1564C22.2639 17.1754 22.3426 17.1896 22.4118 17.1991C22.4796 17.2086 22.5387 17.2134 22.5875 17.2134C22.7612 17.2134 22.9112 17.1367 23.0367 16.984C23.1636 16.8286 23.2274 16.6284 23.2274 16.3835C23.2274 16.2152 23.1976 16.0591 23.1372 15.9153C23.0875 15.7831 22.9978 15.6697 22.8807 15.5909C22.7688 15.5179 22.6376 15.4801 22.5041 15.4823C22.4192 15.4823 22.3093 15.5 22.1756 15.5366V17.1564ZM25.0596 15.462L25.0609 17.1747H25.8094C26.0035 17.1747 26.1331 17.1408 26.1982 17.0743C26.2851 16.986 26.3339 16.8313 26.3441 16.6088H26.4371V17.9645H26.3441C26.3204 17.7745 26.2966 17.6531 26.2735 17.5995C26.243 17.5319 26.191 17.4763 26.1256 17.4414C26.0571 17.4034 25.9512 17.3844 25.8094 17.3844H25.0609L25.0406 18.6723C25.0406 18.8447 25.0474 18.9498 25.0609 18.9878C25.0745 19.0245 25.0976 19.0543 25.1315 19.0767C25.1647 19.0978 25.2285 19.1086 25.3215 19.1086H25.8996C26.0917 19.1086 26.2321 19.093 26.319 19.0625C26.4166 19.0245 26.503 18.9624 26.5701 18.882C26.6739 18.7632 26.7804 18.5841 26.889 18.3445H26.9894L26.6956 19.321H24.0716V19.2145H24.1924C24.2724 19.2145 24.3484 19.1928 24.4204 19.1487C24.4466 19.134 24.4698 19.1143 24.4884 19.0906C24.507 19.067 24.5208 19.0399 24.5289 19.0109C24.5493 18.9498 24.5588 18.8243 24.5588 18.635L24.5771 15.9275C24.5771 15.6805 24.5554 15.5278 24.512 15.4708C24.4516 15.3941 24.3518 15.3554 24.2107 15.3554H24.0716V15.2496H26.7859V16.1025H26.6542C26.6189 15.8976 26.5796 15.7565 26.5361 15.6805C26.4936 15.6034 26.4275 15.542 26.3475 15.5054C26.2803 15.4762 26.1629 15.462 25.994 15.462H25.0596ZM30.2242 15.2496L30.3022 16.6067H30.2242C30.1204 16.2104 29.9731 15.8915 29.7804 15.7178C29.5913 15.5449 29.343 15.4513 29.0869 15.4565C28.8609 15.4565 28.6567 15.5224 28.4741 15.6547C28.2916 15.7843 28.1484 15.9933 28.0426 16.2803C27.9387 16.5674 27.8865 16.925 27.8865 17.3511C27.8865 17.704 27.936 18.0093 28.0351 18.2672C28.1335 18.525 28.2821 18.7239 28.4796 18.8616C28.6792 18.9996 28.9168 19.072 29.1595 19.0686C29.3807 19.0686 29.5761 19.0143 29.7451 18.9078C29.9141 18.7985 30.1 18.5834 30.3022 18.2618L30.3802 18.3188C30.2092 18.6648 30.0104 18.9193 29.7831 19.0801C29.5551 19.2403 29.2844 19.321 28.9715 19.321C28.4076 19.321 27.9706 19.0815 27.6605 18.6031C27.4298 18.2475 27.3145 17.8282 27.3145 17.3457C27.3145 16.9569 27.3905 16.5999 27.5425 16.2749C27.6951 15.9492 27.9041 15.6981 28.1708 15.5197C28.4287 15.3428 28.7342 15.2486 29.0469 15.2496C29.2932 15.2496 29.5354 15.3188 29.775 15.4565C29.8455 15.4986 29.8957 15.5197 29.9256 15.5197C29.948 15.5196 29.9702 15.5148 29.9906 15.5054C30.0109 15.496 30.029 15.4824 30.0437 15.4654C30.0923 15.4024 30.1243 15.3282 30.1366 15.2496H30.2242ZM33.5424 15.2496L33.5716 16.1629H33.4847C33.4664 16.0021 33.4413 15.8868 33.4094 15.8182C33.3665 15.7175 33.2938 15.6322 33.2011 15.5739C33.1156 15.5203 33.0022 15.4939 32.8618 15.4939H32.3827V18.6465C32.3827 18.8854 32.4051 19.0347 32.4506 19.0944C32.5137 19.1744 32.6114 19.2145 32.7437 19.2145H32.893V19.321H31.4185V19.2145H31.5386C31.6824 19.2145 31.7849 19.1649 31.8453 19.0652C31.8819 19.0041 31.9002 18.8643 31.9002 18.6465V15.4939H31.4911C31.3323 15.4939 31.219 15.5074 31.1518 15.5339C31.0566 15.5778 30.9783 15.6514 30.9285 15.7436C30.8668 15.8467 30.8301 15.9865 30.8179 16.1629H30.7229L30.7623 15.2496H33.5424ZM8.20385 16.4608V18.24C8.20385 18.6248 8.2466 18.863 8.33278 18.9559C8.44882 19.0883 8.62457 19.1541 8.86139 19.1541H9.10025V19.321H6.42871V19.1541H6.6635C6.92678 19.1541 7.11543 19.0706 7.22875 18.9023C7.28982 18.8094 7.32103 18.5882 7.32103 18.24V14.2948C7.32103 13.9101 7.27964 13.6719 7.19685 13.5789C7.07675 13.4466 6.89896 13.3808 6.6635 13.3808H6.42871V13.2139H8.71414C9.27193 13.2139 9.71164 13.2709 10.034 13.3849C10.3556 13.4962 10.627 13.6855 10.8482 13.9528C11.0681 14.2195 11.1787 14.5364 11.1787 14.9028C11.1787 15.4016 11.0104 15.8067 10.6732 16.1188C10.3386 16.431 9.86568 16.587 9.25225 16.587C9.1016 16.587 8.93943 16.5769 8.76435 16.5558C8.57622 16.5324 8.38921 16.5007 8.20385 16.4608ZM8.20385 16.2043C8.36671 16.2342 8.50989 16.2573 8.6361 16.2722C8.76164 16.2871 8.86885 16.2946 8.95775 16.2946C9.27668 16.2946 9.55082 16.1745 9.78085 15.9343C10.0136 15.6907 10.1303 15.3778 10.1303 14.9931C10.1303 14.7284 10.0754 14.4842 9.96475 14.2589C9.86651 14.0437 9.70226 13.8654 9.49585 13.7499C9.28471 13.6336 9.04677 13.5747 8.80575 13.5789C8.64968 13.5789 8.44882 13.6074 8.20385 13.6644V16.2043ZM12.9735 20.6782L13.0936 22.7139H12.9735C12.8127 22.1194 12.5827 21.6417 12.2848 21.3805C11.9862 21.1185 11.6286 20.9883 11.2113 20.9883C10.8605 20.9883 10.5442 21.0873 10.2613 21.2855C9.979 21.4809 9.75575 21.7937 9.59289 22.2246C9.43207 22.6548 9.35132 23.1902 9.35132 23.8308C9.35132 24.3594 9.428 24.8168 9.58068 25.2049C9.73403 25.5917 9.96339 25.8896 10.2694 26.0959C10.5782 26.3028 10.9297 26.406 11.3239 26.406C11.6425 26.4124 11.9565 26.3289 12.2298 26.1651C12.4924 26.0015 12.7795 25.6785 13.0936 25.1961L13.2144 25.2823C12.9498 25.802 12.641 26.182 12.2889 26.4236C11.936 26.6645 11.5173 26.7853 11.0321 26.7853C10.1581 26.7853 9.48093 26.4263 9.00118 25.7084C8.64357 25.1744 8.46443 24.546 8.46443 23.822C8.46443 23.2391 8.5825 22.7037 8.81864 22.2158C9.05478 21.7272 9.37846 21.3499 9.79103 21.0826C10.1935 20.8166 10.6658 20.6759 11.1482 20.6782C11.5302 20.6782 11.9061 20.7813 12.2766 20.9883C12.3852 21.0514 12.4639 21.0833 12.5101 21.0833C12.5447 21.0833 12.5789 21.0761 12.6105 21.0619C12.6421 21.0477 12.6703 21.027 12.6933 21.0012C12.7611 20.9238 12.8086 20.8159 12.8371 20.6782H12.9729H12.9735Z" fill="white"/>
</g>
<circle cx="20" cy="20" r="19.5" stroke="black" stroke-opacity="0.05"/>
<defs>
<clipPath id="clip0_9_396379">
<rect width="28" height="14" fill="white" transform="translate(6 13)"/>
</clipPath>
</defs>
</svg>
