<svg width="40" height="40" viewBox="0 0 40 40" fill="none" xmlns="http://www.w3.org/2000/svg">
<circle cx="20" cy="20" r="20" fill="#004FA3"/>
<path d="M7.12729 18.7139H5.56643V18.854C5.56643 18.8784 5.59086 18.8733 5.62429 18.8733C5.70143 18.8733 5.7355 18.8971 5.7355 18.9556C5.7355 19.0134 5.36843 20.204 4.89465 21.5997C4.85607 21.7205 4.79372 21.7687 4.687 21.7687C4.6195 21.7687 4.57129 21.7784 4.57129 21.7977V21.9282H6.13215V21.8169C6.13215 21.788 6.10772 21.7687 6.07429 21.7687C5.99715 21.7687 5.96243 21.7449 5.96243 21.6864C5.96243 21.6382 6.07429 21.2107 6.23886 20.7279C6.24336 20.7376 6.31086 20.7717 6.50886 20.7717C7.28672 20.7717 8.18543 20.0902 8.18543 19.3702C8.18543 18.9697 7.78943 18.7139 7.12729 18.7139ZM6.43172 20.5447C6.36422 20.5447 6.325 20.5254 6.325 20.4869C6.325 20.4817 6.86629 18.8733 6.82772 18.989C6.85215 18.9119 6.92929 18.8585 7.02057 18.8585C7.108 18.8585 7.15172 18.9408 7.15172 19.0809C7.15172 19.4628 6.74029 20.5447 6.43172 20.5447ZM10.8501 21.7835C10.6572 21.7835 10.4541 20.9742 10.3956 20.5589C10.8841 20.303 11.2705 19.844 11.2705 19.3709C11.2705 18.9697 10.8745 18.7139 10.2124 18.7139H8.6515V18.854C8.6515 18.8784 8.67593 18.8733 8.70936 18.8733C8.7865 18.8733 8.82057 18.8971 8.82057 18.9556C8.82057 19.0134 8.4535 20.204 7.97972 21.5997C7.94115 21.7205 7.87815 21.7687 7.77207 21.7687C7.70457 21.7687 7.65636 21.7784 7.65636 21.7977V21.9282H9.21722V21.8169C9.21722 21.788 9.19279 21.7687 9.15936 21.7687C9.08157 21.7687 9.0475 21.7449 9.0475 21.6864C9.0475 21.6382 9.15872 21.2107 9.32329 20.7279C9.32779 20.7376 9.38115 20.7665 9.53543 20.7717C9.55472 21.3798 9.65179 21.9282 9.92243 21.9282H10.9176L10.9324 21.8073C10.9369 21.7835 10.9272 21.7835 10.8501 21.7835ZM9.41522 20.438L9.90315 19.0179C9.93722 18.9215 10.0144 18.8585 10.1063 18.8585C10.1931 18.8585 10.2368 18.9408 10.2368 19.0809C10.2368 19.4769 9.82536 20.4959 9.52129 20.4959C9.45379 20.4959 9.41522 20.4766 9.41522 20.438Z" fill="white"/>
<path d="M11.0978 21.6006C11.0592 21.7208 10.9968 21.769 10.8856 21.769C10.8181 21.769 10.7744 21.7838 10.7744 21.8031V21.9284H12.3301V21.8031C12.3301 21.7838 12.316 21.769 12.2819 21.769C12.2048 21.769 12.1662 21.7452 12.1662 21.6867C12.1662 21.6288 12.5326 20.4383 13.0064 19.0426C13.045 18.9218 13.108 18.8735 13.2192 18.8735C13.2533 18.8735 13.2867 18.8639 13.2867 18.8446V18.7141H11.7747V18.8446C11.7747 18.8735 11.7888 18.8735 11.8229 18.8735C11.9001 18.8735 11.9386 18.8973 11.9386 18.9558C11.9386 19.0137 11.5722 20.2049 11.0978 21.6006ZM14.0427 21.9284C14.6418 21.9284 15.0186 21.6147 15.1735 21.1461L14.6901 21.0786C14.6033 21.4167 14.3622 21.6674 14.1636 21.6674C14.0382 21.6674 13.9559 21.5273 13.9559 21.3203C13.9559 20.6678 14.5988 18.9031 15.0867 18.9031C15.2217 18.9031 15.304 19.0426 15.304 19.2985C15.304 19.3808 15.2988 19.4721 15.2796 19.5736L15.6717 19.5061C15.6524 19.429 15.8163 18.9462 15.8691 18.8298C15.8742 18.8202 15.8742 18.8157 15.8787 18.8106C15.7578 18.7045 15.4345 18.6318 15.2076 18.6318C13.9848 18.6318 12.9023 19.7356 12.9023 20.914C12.9023 21.5228 13.2989 21.9284 14.0427 21.9284ZM18.7002 18.7141H16.1924V18.8446C16.1969 18.869 16.2117 18.8735 16.2458 18.8735C16.3229 18.8735 16.3615 18.8973 16.3615 18.9558C16.3615 18.9848 16.1538 19.7208 15.5206 21.5999C15.4821 21.7208 15.4191 21.769 15.3085 21.769C15.2789 21.769 15.1973 21.7645 15.1973 21.7883V21.9284H17.6562C17.5983 21.8416 17.7963 21.3537 17.8741 21.2766C17.7198 21.2669 17.5553 21.2618 17.4003 21.2521C17.2846 21.5221 17.0667 21.7015 16.8539 21.7015H16.7241C16.6469 21.7015 16.6083 21.677 16.6083 21.6192C16.6083 21.571 16.6996 21.3106 16.9658 20.419L17.4441 20.4383L17.3907 20.6993L17.6903 20.7327C17.6806 20.6459 17.9217 19.9311 17.9757 19.8636L17.6517 19.9214C17.608 20.0474 17.5456 20.1246 17.4781 20.1336L17.0429 20.1921L17.41 19.1101C17.4537 18.9796 17.5116 18.9411 17.6517 18.9411H17.6562C17.8356 18.9462 17.9365 19.0716 17.9365 19.2792C17.9365 19.3371 17.9268 19.4001 17.9127 19.4676C18.0766 19.4579 18.2406 19.3467 18.4058 19.3371C18.3865 19.2843 18.5601 18.8298 18.7002 18.7141ZM21.4465 20.8619C21.5976 20.1554 21.0801 19.9201 20.3221 19.9201C19.4343 19.9201 18.8493 20.2776 18.715 20.9082C18.6308 21.3968 18.7356 21.679 19.1733 21.8178L19.9731 22.0698C20.0785 22.1039 20.1537 22.1624 20.1286 22.2756C20.1029 22.4106 19.9647 22.5243 19.7879 22.5243C19.6741 22.5243 19.6066 22.4864 19.5732 22.4279C19.5398 22.3643 19.5398 22.2801 19.5565 22.1965H18.4032C18.2348 22.9872 18.8622 23.2141 19.5944 23.2141C20.4526 23.2141 21.1263 22.903 21.2819 22.0608C21.3616 21.6951 21.2523 21.4218 20.9026 21.2618C20.6211 21.1313 20.2173 21.047 19.9981 20.9802C19.8805 20.9416 19.8175 20.896 19.8426 20.7867C19.8638 20.6941 19.9647 20.6099 20.1582 20.6099C20.3138 20.6099 20.4063 20.6729 20.3684 20.8619H21.4465ZM24.3696 23.2141H25.3878L26.0358 19.9998H24.3651L23.6457 21.8088H23.6373L23.692 19.9998H22.0212L21.3732 23.2141H22.3915L22.8543 20.8664H22.8627L22.8293 23.2141H23.9318L24.8241 20.8664H24.8324L24.3696 23.2141ZM27.1184 21.9284L27.7143 20.6646V21.9284H27.1184ZM25.5216 23.2141H26.6742L26.9018 22.5713H27.7143V23.2141H29.0309L28.7031 19.9998H27.1409L25.5216 23.2141ZM29.1653 23.2141H30.3436L30.5751 21.9284H30.7139C30.9074 21.9284 30.9711 22.0146 30.9627 22.1663C30.9498 22.4273 30.9074 22.9872 30.9286 23.2141H32.107C32.0652 22.7558 32.1661 22.1496 32.1533 21.8886C32.1449 21.6571 32.0106 21.5266 31.7238 21.5016V21.4932C32.2041 21.3839 32.4059 21.1191 32.4818 20.77C32.6039 20.1978 32.2632 19.9998 31.6107 19.9998H29.8133L29.1653 23.2141ZM30.703 21.2856L30.8444 20.6427H30.9537C31.1896 20.6427 31.3368 20.7359 31.2867 20.959C31.2404 21.1859 31.0553 21.2856 30.8238 21.2856H30.703ZM32.8276 23.2141H34.0317L34.5029 20.6427H35.2518L35.4286 19.9998H32.7267L32.5499 20.6427H33.2988L32.8276 23.2141Z" fill="white"/>
<path d="M12.9303 17.2836L14.0868 16.9686V18.2299L12.9297 18.4928V17.2842L12.9303 17.2836ZM14.6127 15.7131L15.6863 15.7002L15.4118 16.7776L14.3498 16.7461L14.6127 15.7131ZM16.6782 14.8574L17.5235 15.256L16.8762 16.0094L16.0578 15.5793L16.6782 14.8574ZM18.6601 14.878L19.2387 15.4566L18.5283 15.877L17.9768 15.2984L18.6601 14.878ZM20.3759 15.4585L20.7173 16.0628L20.0339 16.2473L19.7189 15.643L20.3759 15.4585ZM21.8018 16.3373L21.9194 16.9159H21.2566L21.155 16.3276L21.8018 16.3373ZM22.813 17.4938V18.0113L22.2878 17.9078V17.3356L22.813 17.4938ZM23.4963 18.8078L23.3909 19.2546L23.0232 19.0186L23.1428 18.5989L23.4963 18.8078Z" fill="#ED1C50"/>
<circle cx="20" cy="20" r="19.5" stroke="black" stroke-opacity="0.05"/>
</svg>
