<svg width="40" height="40" viewBox="0 0 40 40" fill="none" xmlns="http://www.w3.org/2000/svg">
<circle cx="20" cy="20" r="20" fill="#1E1E23"/>
<g clip-path="url(#clip0_9_402016)">
<path d="M13.3213 30.3218L18.1784 26.1083V23.0361H13.3213V30.3218Z" fill="#50BF34"/>
<path d="M27.3341 12.9996C26.5266 12.0161 25.3124 11.5 23.6913 11.5H13.3213L18.1724 15.75H22.3009C22.7988 15.75 23.1995 15.8107 23.3816 15.9504C23.6063 16.1325 23.6427 16.4604 23.6427 16.9825V17.5411C23.6427 18.0571 23.6063 18.385 23.3816 18.5732C23.157 18.7554 22.7988 18.7857 22.3009 18.7857H18.1784L13.3213 23.0357H23.6974C25.3124 23.0357 26.5266 22.5014 27.3341 21.5179C28.1356 20.5829 28.4999 19.2714 28.4999 17.5411V16.9764C28.4999 15.2461 28.1356 13.8861 27.3341 12.9996Z" fill="url(#paint0_linear_9_402016)"/>
<path d="M18.1784 24.0926V23.0361H13.3213L18.1784 24.0926Z" fill="#087538"/>
</g>
<circle cx="20" cy="20" r="19.5" stroke="black" stroke-opacity="0.05"/>
<defs>
<linearGradient id="paint0_linear_9_402016" x1="22.9627" y1="24.0496" x2="16.6788" y2="10.2068" gradientUnits="userSpaceOnUse">
<stop offset="0.22" stop-color="#00AEE6"/>
<stop offset="0.38" stop-color="#00A9E6"/>
<stop offset="0.55" stop-color="#009DE6"/>
<stop offset="0.71" stop-color="#0089E6"/>
<stop offset="0.87" stop-color="#016DE6"/>
<stop offset="1" stop-color="#0251E6"/>
</linearGradient>
<clipPath id="clip0_9_402016">
<rect width="16" height="20" fill="white" transform="translate(13 11)"/>
</clipPath>
</defs>
</svg>
