<svg width="40" height="40" viewBox="0 0 40 40" fill="none" xmlns="http://www.w3.org/2000/svg">
<circle cx="20" cy="20" r="20" fill="#1E1E23"/>
<g clip-path="url(#clip0_9_410619)">
<path d="M20.1549 30.8576C21.1966 29.4736 22.6423 29.1896 24.436 29.0193C26.5577 28.817 27.5046 28.6004 28.7177 27.2478C29.4789 26.4004 30.0091 25.0227 30.0091 23.7747C30.0091 22.9033 29.964 22.1844 29.5331 20.9358C28.6109 18.2616 28.3217 17.2576 30.4406 14.8044L26.0211 10.3776C25.0709 11.1718 23.0097 12.5576 20.1554 10.2861C17.2783 12.5798 15.2829 11.1501 14.2869 10.3776L9.86914 14.8044C11.9766 17.2576 11.7806 18.2673 10.776 20.9358C10.3234 22.1387 10.3 22.9347 10.3 23.7747C10.3 25.0233 10.7869 26.3958 11.5914 27.2478C12.8446 28.5741 13.7897 28.8158 15.8731 29.0193C17.7303 29.2004 19.1126 29.4958 20.1549 30.8576Z" fill="white"/>
<path d="M20.1549 30.2857C21.1898 29.1166 22.7578 28.6109 24.3366 28.452C26.3195 28.2532 27.0938 28.0469 28.1926 26.8629C28.9052 26.0943 29.3806 24.8989 29.3806 23.6857C29.3806 22.8697 29.2509 21.8783 28.8749 20.8589C27.8498 18.0772 28.0795 16.9303 29.6898 14.9869L25.8138 11.1012C25.8138 11.1012 23.3252 13.4189 20.1549 10.9697C17.0052 13.4189 14.4949 11.1012 14.4949 11.1012L10.6189 14.9869C12.268 16.9297 12.5035 18.0983 11.4349 20.8589C11.0378 21.8812 10.9275 22.8703 10.9275 23.6852C10.9275 24.876 11.396 26.1274 12.1172 26.8623C13.2543 28.024 13.9943 28.232 15.9703 28.452C17.5566 28.6292 19.1206 29.1166 20.1549 30.2857Z" fill="url(#paint0_linear_9_410619)"/>
<path d="M20.1542 29.1433C21.7622 28.1056 22.5771 28.077 24.2279 27.8347C25.6605 27.6233 26.5982 27.5101 27.6411 26.4667C29.1171 24.9867 28.9742 22.8856 28.0828 20.5067C27.0462 17.7467 27.9616 16.1353 28.8302 15.0313L25.7473 11.9404C25.7473 11.9404 23.3251 13.8604 20.1548 11.7861C16.9833 13.8604 14.5605 11.9404 14.5605 11.9404L11.4753 15.0313C12.3371 16.1347 13.2845 17.7244 12.2273 20.5067C11.3193 22.8936 11.2142 24.9867 12.6673 26.4667C13.7016 27.5181 14.6308 27.6267 16.0799 27.8353C17.7765 28.077 18.5462 28.1056 20.1542 29.1433Z" fill="white"/>
<path d="M20.1526 27.9976C21.8155 27.0291 22.8281 27.1279 24.6938 26.8279C27.8824 26.3136 27.6881 23.5136 27.4858 22.4251C27.4361 22.1565 27.3435 21.7359 27.2686 21.5068C27.0104 20.7205 26.3549 19.2153 26.4515 17.7119H13.8801C14.0001 19.2828 13.2618 20.8839 13.0126 21.6302C12.9572 21.7971 12.8858 22.0988 12.8475 22.2788C12.6481 23.2313 12.2858 26.2713 15.6098 26.8285C17.6006 27.1622 18.4886 27.0291 20.1526 27.9976Z" fill="#E20010"/>
<path d="M15.5828 14.2861H16.1388V15.4164H16.7136V14.2861H17.2976V17.1433H16.7136V15.9204H16.1388V17.1433H15.5833L15.5828 14.2861Z" fill="url(#paint1_linear_9_410619)"/>
<path d="M17.8669 14.2861H18.4412V17.1433H17.8669V14.2861Z" fill="url(#paint2_linear_9_410619)"/>
<path d="M25.7085 14.2402C26.4856 14.2402 26.5433 14.7419 26.5331 15.1345H25.9925C25.9902 14.5214 25.4016 14.6145 25.4068 14.9951C25.4091 15.2065 25.7873 15.4294 26.1011 15.6254C26.3822 15.8025 26.5759 16.0882 26.5839 16.4002C26.5891 16.6739 26.4679 17.1877 25.7085 17.1877C24.9348 17.1877 24.8713 16.5991 24.8696 16.2659H25.3873C25.3873 16.9477 26.0142 16.8659 26.0199 16.4202C26.0199 16.4202 26.0576 16.2122 25.7125 16.0002C25.3239 15.7637 24.8845 15.5854 24.8959 15.0059C24.8959 14.8471 24.9291 14.2402 25.7085 14.2402Z" fill="url(#paint3_linear_9_410619)"/>
<path d="M19.0115 14.2852H19.5846V16.5714H20.1549V17.1429H19.012V14.2857L19.0115 14.2852Z" fill="url(#paint4_linear_9_410619)"/>
<path d="M20.4229 14.2852H20.996V16.5714H21.5657V17.1429H20.4229V14.2852Z" fill="url(#paint5_linear_9_410619)"/>
<path fill-rule="evenodd" clip-rule="evenodd" d="M13.5772 14.2888V17.1431H14.1584V16.2117C14.3195 16.206 15.2681 16.3031 15.2904 15.298C15.3207 14.1831 14.3589 14.2888 14.1584 14.2888H13.5772ZM14.1584 14.718V15.7408C14.2441 15.7408 14.7572 15.8551 14.7561 15.2185C14.7538 14.6534 14.2761 14.718 14.1584 14.718Z" fill="url(#paint6_linear_9_410619)"/>
<path fill-rule="evenodd" clip-rule="evenodd" d="M23.0115 14.2884V17.1426H23.5829V16.0049C23.7469 15.9992 24.7258 16.1124 24.7258 15.1632C24.7018 14.1844 23.7869 14.2884 23.5829 14.2884H23.0115ZM23.5829 14.7175V15.5404C23.6703 15.5404 24.172 15.6375 24.156 15.0832C24.1435 14.6575 23.7023 14.7175 23.5829 14.7175Z" fill="url(#paint7_linear_9_410619)"/>
<path d="M21.8687 14.2852H22.4401V17.1423H21.8687V14.2852Z" fill="url(#paint8_linear_9_410619)"/>
<path fill-rule="evenodd" clip-rule="evenodd" d="M24.4664 21.7302C25.6664 22.1508 25.371 23.6376 24.7675 24.5953C24.0167 25.7913 22.3732 25.9359 21.403 25.5742C19.8572 24.9976 20.3252 23.3313 20.8321 21.9559C21.5607 19.9782 22.975 19.0428 24.8241 19.6416C25.8132 19.9593 25.9624 20.8633 25.8635 21.1422H24.3292C24.3292 21.1422 24.3538 20.4531 23.8932 20.4531C23.1881 20.4531 22.7321 21.9113 22.7321 21.9113C22.7321 21.9113 23.4075 21.3588 24.4664 21.7302ZM22.2344 23.3771C22.431 22.9456 22.7344 22.4828 23.1315 22.5628C23.6687 22.6713 23.4841 23.3628 23.2955 23.8548C23.107 24.3508 22.7275 24.8896 22.2612 24.7673C21.8287 24.6565 22.0087 23.8736 22.2344 23.3771ZM18.5544 21.7296C19.7538 22.1502 19.4584 23.6371 18.8572 24.5948C18.1052 25.7908 16.4618 25.9353 15.4915 25.5736C13.9447 24.9971 14.4104 23.3291 14.9201 21.9553C15.6384 20.0211 17.0058 19.0313 18.9127 19.6411C19.9035 19.9553 19.9801 20.8633 19.8807 21.1422H18.4407C18.4407 21.1422 18.4424 20.4525 17.9824 20.4525C17.2761 20.4525 16.8201 21.9108 16.8201 21.9108C16.8201 21.9108 17.4955 21.3582 18.5544 21.7296ZM16.335 23.3771C16.5332 22.9456 16.8207 22.4828 17.2195 22.5628C17.7578 22.6713 17.571 23.3628 17.3841 23.8548C17.1944 24.3508 16.8161 24.8896 16.3498 24.7673C15.9155 24.6565 16.1098 23.8736 16.335 23.3771Z" fill="white"/>
</g>
<circle cx="20" cy="20" r="19.5" stroke="black" stroke-opacity="0.05"/>
<defs>
<linearGradient id="paint0_linear_9_410619" x1="14.1669" y1="14.3194" x2="34.112" y2="36.9377" gradientUnits="userSpaceOnUse">
<stop stop-color="#1A1E21"/>
<stop offset="1" stop-color="#06060A"/>
</linearGradient>
<linearGradient id="paint1_linear_9_410619" x1="15.9022" y1="14.7816" x2="18.681" y2="16.6964" gradientUnits="userSpaceOnUse">
<stop stop-color="#1A1E21"/>
<stop offset="1" stop-color="#06060A"/>
</linearGradient>
<linearGradient id="paint2_linear_9_410619" x1="17.9738" y1="14.7816" x2="19.2772" y2="15.0827" gradientUnits="userSpaceOnUse">
<stop stop-color="#1A1E21"/>
<stop offset="1" stop-color="#06060A"/>
</linearGradient>
<linearGradient id="paint3_linear_9_410619" x1="25.1885" y1="14.7511" x2="28.0228" y2="16.6442" gradientUnits="userSpaceOnUse">
<stop stop-color="#1A1E21"/>
<stop offset="1" stop-color="#06060A"/>
</linearGradient>
<linearGradient id="paint4_linear_9_410619" x1="19.2246" y1="14.7806" x2="21.4806" y2="15.8172" gradientUnits="userSpaceOnUse">
<stop stop-color="#1A1E21"/>
<stop offset="1" stop-color="#06060A"/>
</linearGradient>
<linearGradient id="paint5_linear_9_410619" x1="20.6354" y1="14.7806" x2="22.8914" y2="15.8172" gradientUnits="userSpaceOnUse">
<stop stop-color="#1A1E21"/>
<stop offset="1" stop-color="#06060A"/>
</linearGradient>
<linearGradient id="paint6_linear_9_410619" x1="13.8961" y1="14.7814" x2="16.6744" y2="16.6962" gradientUnits="userSpaceOnUse">
<stop stop-color="#1A1E21"/>
<stop offset="1" stop-color="#06060A"/>
</linearGradient>
<linearGradient id="paint7_linear_9_410619" x1="23.3309" y1="14.7804" x2="26.1098" y2="16.6952" gradientUnits="userSpaceOnUse">
<stop stop-color="#1A1E21"/>
<stop offset="1" stop-color="#06060A"/>
</linearGradient>
<linearGradient id="paint8_linear_9_410619" x1="21.9755" y1="14.7806" x2="23.2732" y2="15.0789" gradientUnits="userSpaceOnUse">
<stop stop-color="#1A1E21"/>
<stop offset="1" stop-color="#06060A"/>
</linearGradient>
<clipPath id="clip0_9_410619">
<rect width="22" height="21" fill="white" transform="translate(9 10)"/>
</clipPath>
</defs>
</svg>
