<svg width="40" height="40" viewBox="0 0 40 40" fill="none" xmlns="http://www.w3.org/2000/svg">
<circle cx="20" cy="20" r="20" fill="#F6F8FA"/>
<g clip-path="url(#clip0_9_396692)">
<path d="M7.85742 26.0671H8.41599C8.48521 24.8583 8.90778 23.5718 9.63392 22.3271C8.76935 23.5518 8.16464 24.8249 7.85742 26.0671Z" fill="url(#paint0_linear_9_396692)"/>
<path d="M18.3789 15.6047C23.1668 14.0231 27.4053 15.0218 28.8412 18.0199C29.9122 20.2566 29.18 23.3209 27.0513 26.0682H29.5752C31.4823 23.3312 32.0918 20.3562 30.9073 18.0181C29.7446 15.7243 27.1084 14.5361 23.9209 14.5361C22.1869 14.5361 20.2902 14.8883 18.3789 15.6047Z" fill="url(#paint1_linear_9_396692)"/>
<path d="M12.4233 18.7859C13.2824 18.7859 13.6254 18.4823 13.6254 18.1788C13.6254 17.5395 12.9041 17.5716 12.4111 17.5716H12.1076V18.7859H12.4233ZM10.2861 22.4288V16.3573H12.8616C14.0225 16.3573 15.1433 16.8346 15.1433 18.1788C15.1433 18.5716 15.0826 20.0002 12.7147 20.0002H12.1076V22.4288H10.2861ZM22.296 19.0464C22.296 17.7301 23.245 17.3968 24.336 17.3968C24.6402 17.3957 24.9422 17.4485 25.2279 17.5528L25.8715 16.4454C25.2777 16.245 24.5552 16.1807 24.1338 16.1807C22.1254 16.1807 20.5408 17.2086 20.5408 19.1192C20.5408 21.4507 22.4697 22.4379 24.1338 22.4379C24.9292 22.4379 25.3129 22.3371 25.5691 22.2636L26.3554 20.9109C25.8251 21.1324 25.2573 21.2503 24.6827 21.2582C23.0094 21.2582 22.296 20.1344 22.296 19.0464ZM16.9647 22.4288V17.5716H15.357V16.3573H20.6076V17.5716H18.7861V22.4288H16.9647ZM10.2861 24.541H10.6079V26.0443H10.9394V24.541H11.2612V24.2763H10.2861V24.541ZM12.277 24.997H11.923V24.2763H11.5909V26.0455H11.923V25.2611H12.277V26.0455H12.6091V24.2763H12.277V24.997ZM13.3971 25.2611H13.8258V24.997H13.3971V24.541H13.9545V24.2763H13.065V26.0455H13.9921V25.7802H13.3971V25.2611ZM15.4171 24.7985C15.4171 24.4208 15.2277 24.2763 14.8555 24.2763H14.3868V26.0455H14.7195V25.32C14.7772 25.32 14.8348 25.3176 14.8913 25.3121L15.1257 26.0455H15.4675L15.184 25.2405C15.2969 25.1967 15.4171 25.0826 15.4171 24.7985ZM14.8385 25.0705H14.7219V24.5258H14.8385C15.0182 24.5258 15.0844 24.5878 15.0844 24.7991C15.0844 25.0097 15.0176 25.0705 14.8391 25.0705H14.8385ZM16.0813 24.2775L15.7298 26.0461H16.0516L16.1117 25.6539H16.476L16.5342 26.0461H16.856L16.4936 24.2775H16.0813ZM16.1523 25.3892L16.2871 24.6285L16.4183 25.3886L16.1523 25.3892ZM17.6538 24.2775H17.176V26.0455H17.5087V25.32H17.6538C18.0636 25.32 18.2531 25.1755 18.2531 24.7985C18.2531 24.422 18.0636 24.2775 17.6538 24.2775ZM17.6374 25.0717H17.5087V24.5258H17.6374C17.8554 24.5258 17.9216 24.5878 17.9216 24.7991C17.9216 25.0097 17.8548 25.0705 17.6374 25.0705V25.0717ZM18.93 25.2611H19.3587V24.997H18.93V24.541H19.4874V24.2763H18.5979V26.0455H19.5256V25.7802H18.9306V25.2611H18.93ZM20.6076 25.6108C20.6076 25.7413 20.5517 25.8051 20.4303 25.8051C20.3088 25.8051 20.253 25.7413 20.253 25.6108V24.2775H19.9172V25.5993C19.9172 25.9028 20.1103 26.0686 20.4266 26.0686C20.7423 26.0686 20.936 25.9028 20.936 25.5993V24.2775H20.6076V25.6108ZM21.2675 24.541H21.5881V26.0443H21.9208V24.541H22.2414V24.2763H21.2675V24.541ZM22.9487 24.2763H22.6172V26.0443H22.9487V24.2763ZM23.959 24.252C23.8919 24.2465 23.8245 24.2544 23.7605 24.2751C23.6977 24.2954 23.6398 24.3285 23.5905 24.3722C23.5427 24.4142 23.505 24.4662 23.48 24.5246C23.4558 24.5817 23.4454 24.6437 23.4496 24.7056V25.6175C23.4457 25.6792 23.4563 25.741 23.4806 25.7978C23.5048 25.8555 23.5425 25.9071 23.5911 25.9502C23.6396 25.9933 23.6973 26.0267 23.7611 26.0473C23.8249 26.0678 23.8922 26.0754 23.959 26.0698C24.0252 26.0746 24.0916 26.0661 24.1545 26.0449C24.2157 26.0243 24.2719 25.9912 24.3196 25.9478C24.3657 25.9057 24.4018 25.8538 24.4253 25.796C24.4481 25.7394 24.4573 25.6783 24.452 25.6175V25.4141H24.1211V25.6278C24.1211 25.7432 24.0798 25.8069 23.959 25.8069C23.8388 25.8069 23.7811 25.7413 23.7811 25.609V24.7116C23.7811 24.5799 23.8236 24.5155 23.9584 24.5155C24.0434 24.5155 24.1199 24.5799 24.1199 24.7298V24.8658H24.4514V24.7359C24.452 24.4718 24.2917 24.2514 23.9596 24.2514L23.959 24.252ZM25.1866 24.6904C25.1866 24.5835 25.2449 24.5161 25.353 24.5161C25.4277 24.5161 25.5169 24.5598 25.5291 24.7122L25.8454 24.6813C25.8162 24.4305 25.656 24.2532 25.384 24.2532C25.0579 24.2532 24.8703 24.4123 24.8703 24.694C24.8703 25.201 25.5461 25.2939 25.5461 25.6442C25.5472 25.6672 25.5428 25.6901 25.5333 25.711C25.5234 25.7321 25.5088 25.7508 25.4908 25.7656C25.4716 25.781 25.4495 25.7924 25.4258 25.7991C25.4022 25.8059 25.3774 25.8079 25.353 25.8051C25.2449 25.8051 25.1678 25.7177 25.1551 25.5392L24.8375 25.5798C24.8515 25.8452 25.0282 26.0698 25.3366 26.0698C25.6444 26.0698 25.8618 25.9095 25.8618 25.6175C25.8618 25.1336 25.1866 24.9915 25.1866 24.6904Z" fill="#273E64"/>
</g>
<circle cx="20" cy="20" r="19.5" stroke="black" stroke-opacity="0.05"/>
<defs>
<linearGradient id="paint0_linear_9_396692" x1="8.35528" y1="20.1815" x2="9.1731" y2="28.2183" gradientUnits="userSpaceOnUse">
<stop stop-color="#F79248"/>
<stop offset="1" stop-color="#EA3732"/>
</linearGradient>
<linearGradient id="paint1_linear_9_396692" x1="24.9968" y1="18.488" x2="25.8152" y2="26.5254" gradientUnits="userSpaceOnUse">
<stop stop-color="#F79248"/>
<stop offset="1" stop-color="#EA3732"/>
</linearGradient>
<clipPath id="clip0_9_396692">
<rect width="25" height="13" fill="white" transform="translate(7 14)"/>
</clipPath>
</defs>
</svg>
