<svg width="40" height="40" viewBox="0 0 40 40" fill="none" xmlns="http://www.w3.org/2000/svg">
<circle cx="20" cy="20" r="20" fill="#F6F8FA"/>
<g clip-path="url(#clip0_9_395633)">
<path d="M19.1067 9.08431C16.2812 9.31558 13.6442 10.5951 11.7139 12.6715L12.196 12.4336C14.1889 11.4436 16.0082 10.8265 17.7632 10.5693C19.5439 10.2929 21.2925 10.3765 23.221 10.8265C24.7317 11.1736 26.2232 11.7136 28.0617 12.5622C28.2032 12.6329 28.3189 12.6779 28.3189 12.6715C26.5511 10.7839 24.1974 9.54928 21.6396 9.16788C21.061 9.08431 20.7846 9.06502 19.9875 9.07145L19.1067 9.08431ZM13.7582 13.6036C12.6267 13.88 11.6882 14.2015 10.9296 14.5807C10.6725 14.7093 10.6082 14.7479 10.486 14.8572C10.2803 15.0565 10.1067 15.3393 9.9396 15.7572L9.59246 16.6122L9.84317 16.5479C12.3117 15.7765 15.1853 15.3393 18.586 15.2236C20.0646 15.1722 20.6432 15.1786 22.0703 15.2557C25.2653 15.4229 27.8175 15.8343 30.196 16.5607C30.4146 16.625 30.421 16.625 30.3889 16.5479L30.196 16.0979C30.0608 15.7404 29.893 15.396 29.6946 15.0693C29.5917 14.915 29.566 14.8765 29.4182 14.7865C29.1932 14.6386 28.7625 14.42 28.4539 14.2915C26.8082 13.6293 24.1853 13.1086 21.7875 12.9543C21.3696 12.9286 20.0003 12.89 19.8653 12.89C17.8082 13.0186 15.7767 13.1086 13.7582 13.5972V13.6036ZM17.7182 18.7143C14.5167 18.785 11.116 18.8943 9.3996 19.1257L9.07817 19.1707V19.4022C9.06532 19.6915 9.09746 21.0736 9.11032 21.0929C9.1296 21.1122 10.2996 21.2986 10.9425 21.3757C14.1503 21.7872 17.4096 21.9415 20.6432 21.9286C24.0796 21.9097 27.5096 21.6282 30.9032 21.0865L30.9225 20.1222L30.9289 19.1707L30.6396 19.1386C28.2482 18.8622 25.4903 18.785 22.6039 18.7143C21.691 18.695 18.7146 18.6886 17.7182 18.7143ZM9.69532 23.6643L9.90746 24.1529C10.2867 25.0143 10.4667 25.2907 10.7817 25.49C11.0067 25.6315 11.4503 25.8565 11.746 25.9786C12.3632 26.2357 13.3532 26.5443 14.2275 26.7436C18.4733 27.6856 22.8865 27.5597 27.0717 26.3772C27.8303 26.1522 28.2932 25.9722 28.756 25.7343C29.0517 25.5865 29.3989 25.3679 29.4632 25.2907C29.5467 25.1943 29.7525 24.86 29.836 24.6929C29.9839 24.3972 30.3182 23.6643 30.3117 23.6643C27.8144 24.4865 25.2172 24.9666 22.591 25.0914C21.4982 25.1622 21.3503 25.1686 20.1482 25.1686C18.6953 25.1686 17.911 25.1364 16.786 25.0465C14.4607 24.8887 12.1635 24.4461 9.94603 23.7286C9.79817 23.6772 9.68889 23.645 9.69532 23.6643ZM11.881 27.5215C12.9452 28.6008 14.2132 29.4578 15.6115 30.0427C17.0098 30.6276 18.5104 30.9287 20.026 30.9286C22.9442 30.9325 25.7487 29.7977 27.8432 27.7657L28.1003 27.515L27.6696 27.7143C25.6905 28.685 23.5635 29.3194 21.376 29.5914C20.8167 29.6557 20.8296 29.6557 20.2896 29.6686C18.6053 29.7329 16.8439 29.4629 15.1532 28.8972C14.0368 28.513 12.9479 28.0534 11.8939 27.5215H11.881Z" fill="#233E8E"/>
<path d="M19.5499 11.7072C18.4668 11.7725 17.4021 12.018 16.3999 12.4337C16.0977 12.5558 15.6799 12.7551 15.7056 12.7615C15.712 12.768 16.2006 12.7294 16.792 12.6715C18.5149 12.5108 18.8749 12.4915 20.0127 12.4915C20.9706 12.4915 21.8834 12.5494 23.4842 12.6972L24.1913 12.7615C23.1516 12.2261 22.0233 11.8841 20.8613 11.7522C20.6042 11.7201 19.7492 11.6944 19.5434 11.7137L19.5499 11.7072ZM18.7977 15.6222C16.9463 15.6737 15.3199 15.8151 13.5713 16.0851C12.8642 16.1944 12.3499 16.3165 12.2663 16.3872C12.2213 16.4258 11.9963 16.8822 11.9063 17.1137C11.7777 17.4544 11.4627 18.4637 11.482 18.483C13.2034 18.3719 14.9265 18.2883 16.6506 18.2322C19.0613 18.1551 22.4363 18.1744 24.7442 18.2708C25.9731 18.3218 27.2011 18.3925 28.4277 18.483C28.4663 18.4444 27.9777 17.0558 27.7334 16.4837L27.6499 16.2972L27.1034 16.2072C24.3606 15.7413 21.5788 15.5454 18.7977 15.6222ZM11.4756 21.8644C11.4756 21.9351 11.7777 22.8094 11.9899 23.343C12.202 23.9022 12.247 23.9858 12.2984 23.9987C14.1698 24.3809 16.0673 24.6216 17.9749 24.7187C21.2057 24.8805 24.4442 24.6452 27.6177 24.018C27.6499 24.0115 27.8877 23.4587 28.0677 22.9572C28.1963 22.623 28.402 22.0058 28.4213 21.9287L28.4342 21.8644L28.0677 21.8965C22.5496 22.435 16.9916 22.4242 11.4756 21.8644ZM15.6542 27.5151C15.6542 27.5408 16.567 27.9394 16.8884 28.0615C18.2256 28.5565 19.6527 28.7108 21.0992 28.5244C22.0892 28.3958 23.1949 28.0615 24.0884 27.6115L24.2813 27.5151L24.0434 27.528C23.7863 27.5408 22.822 27.6115 22.3077 27.663C20.8161 27.8143 19.3134 27.8208 17.8206 27.6822C17.0986 27.6241 16.3765 27.5684 15.6542 27.5151Z" fill="#61A143"/>
</g>
<circle cx="20" cy="20" r="19.5" stroke="black" stroke-opacity="0.05"/>
<defs>
<clipPath id="clip0_9_395633">
<rect width="22" height="22" fill="white" transform="translate(9 9)"/>
</clipPath>
</defs>
</svg>
