<svg width="40" height="40" viewBox="0 0 40 40" fill="none" xmlns="http://www.w3.org/2000/svg">
<circle cx="20" cy="20" r="20" fill="#F6F8FA"/>
<g clip-path="url(#clip0_9_406712)">
<mask id="mask0_9_406712" style="mask-type:luminance" maskUnits="userSpaceOnUse" x="-64" y="-372" width="320" height="452">
<path d="M-63.3262 -371.855H255.323V79.0511H-63.3262V-371.855Z" fill="white"/>
</mask>
<g mask="url(#mask0_9_406712)">
<path d="M16.7779 8.2002C17.0504 8.2002 16.9884 8.61185 17.5673 8.61185C17.8982 8.61185 17.9376 8.4502 18.3267 8.4502C19.4527 8.4502 19.8643 9.80546 20.6444 9.80546C21.0015 9.80546 21.0354 9.56674 21.4094 9.56674C21.5504 9.56674 21.8117 9.64756 21.9151 9.75659C22.0185 9.85809 22.2403 10.0461 22.8023 11.5761C22.8662 11.7434 22.776 11.8111 22.6895 11.8111C22.6049 11.8111 22.4301 11.7322 22.0373 11.3205C21.8136 11.0874 21.6275 11.1946 20.6538 10.5837C20.1952 10.2998 19.7534 9.88441 19.2628 9.7002C18.7703 9.51974 17.9489 9.44832 17.6369 9.37313C17.229 9.27726 16.5786 8.96711 16.5786 8.49343C16.5786 8.33741 16.6707 8.2002 16.7779 8.2002Z" fill="#68737A"/>
<path d="M22.3269 8.01367C22.5544 8.01367 22.7348 8.36706 22.9735 8.6039C23.5299 9.13773 24.3965 8.79375 25.0525 9.44976C25.2198 9.62081 25.3532 10.0231 25.3532 10.4103C25.3532 10.7994 25.2687 11.1979 25.0675 11.1979C24.6032 11.1979 24.904 10.4422 23.9641 9.88397C23.0224 9.32194 22.8664 9.29563 22.4792 8.90465C22.0882 8.51367 22.0713 8.3633 22.0713 8.25803C22.0713 8.15465 22.1446 8.01367 22.3269 8.01367Z" fill="#68737A"/>
<path d="M26.5824 9.77832C26.8117 9.77832 26.7459 10.0997 27.0053 10.314C27.261 10.5283 27.4301 10.4588 27.7892 10.8159C27.9489 10.9738 27.9903 11.081 27.9903 11.1261C27.9903 11.1712 27.9019 11.7313 27.3211 11.7313C27.1952 11.7313 27.0956 11.7069 27.0053 11.517C26.8662 11.2388 26.9283 10.8479 26.6313 10.502C26.3756 10.2031 26.3418 10.1749 26.3418 10.0001C26.3418 9.83095 26.5016 9.77832 26.5824 9.77832Z" fill="#68737A"/>
<path d="M27.5069 12.6775C28.24 12.8824 28.5953 13.1813 28.5953 13.6268C28.5953 14.0817 28.4167 14.108 28.2644 14.3279C28.1498 14.4896 28.0351 14.7226 28.0483 15.4144C28.0483 15.5572 28.0051 15.6343 27.9017 15.6343C27.8002 15.6343 27.7438 15.5779 27.7438 15.4783C27.7438 15.4106 27.787 15.3636 27.787 15.3035C27.787 15.2452 27.8077 14.9144 27.5802 14.717C26.9186 14.1193 23.6573 13.7151 21.5802 13.7151C19.0614 13.7151 17.0502 14.249 16.4844 14.249C15.4599 14.249 14.9844 13.7396 14.9844 13.3599C14.9844 12.9783 15.2081 12.9106 15.2081 12.7283C15.2081 12.546 15.1479 12.5196 15.1479 12.3636C15.1479 12.2076 15.272 11.8975 15.396 11.8975C15.5821 11.8975 15.5671 12.1061 15.7457 12.4181C15.9769 12.8054 16.4524 13.3204 17.3547 13.3204C18.1573 13.3204 18.8359 13.0159 20.022 12.7433C21.4731 12.4125 22.6216 12.2527 23.7644 12.2527C24.287 12.2527 26.2494 12.2772 27.5069 12.6775Z" fill="#ED1C2E"/>
<path d="M27.7436 16.7695C27.9015 16.7695 27.9955 16.8071 27.9955 16.9124C27.9955 17.0158 27.832 17.0158 27.738 17.0364C27.644 17.0496 27.0162 17.1643 26.7455 17.6041C26.7004 17.6737 26.738 17.7413 26.7944 17.7677C26.8583 17.794 27.565 18.1455 27.565 18.4105C27.565 18.6661 27.0199 18.9199 26.8583 18.9199C26.6891 18.9199 26.6308 18.7225 26.6308 18.6849C26.6308 18.6135 26.7868 18.5308 26.7868 18.4575C26.7868 18.3936 26.6553 18.294 26.582 18.294C26.4992 18.294 26.4673 18.3316 26.4222 18.512C26.3827 18.6962 26.2173 19.4218 26.1816 19.8673C26.1459 20.3184 26.0086 21.4613 26.0086 21.6041C26.0086 21.7545 25.9842 22.1586 25.6609 22.3861C25.3414 22.606 25.0575 22.7677 25.0575 22.7677C25.0575 22.7677 24.9391 22.8447 24.8959 22.8447C24.8526 22.8447 24.7474 22.7395 24.6214 22.6342C24.488 22.5346 24.3508 22.5233 24.2643 22.5233C24.097 22.5233 23.7699 22.7827 23.5293 22.7827C23.2887 22.7827 22.7925 22.5158 22.7925 22.3635C22.7925 22.3146 22.8902 22.2695 22.9165 22.2695C23.0218 22.2695 23.2098 22.4049 23.4447 22.4049C23.6741 22.4049 23.8827 22.1962 24.1853 22.1962C24.362 22.1962 24.7605 22.2846 25.0744 22.2846C25.394 22.2846 25.5162 22.2037 25.5688 22.1116C25.6195 22.0158 25.7248 21.8917 25.7248 21.527C25.7248 21.168 25.4898 19.9462 25.4898 19.2056C25.4898 18.4575 25.6271 17.8128 26.0011 17.4406C26.3752 17.0684 27.1703 16.7695 27.7436 16.7695Z" fill="#68737A"/>
<path d="M28.2044 18.8975C28.2908 18.8975 28.3867 19.0121 28.3867 19.3148C28.3867 19.6193 28.1705 21.6569 27.6235 23.0685C27.0803 24.4783 26.928 24.4877 26.4487 25.2997C25.9732 26.1117 25.6029 26.9708 25.0859 27.4877C24.8867 27.6851 24.5916 27.9257 23.8829 27.9257C23.178 27.9257 22.163 27.7753 21.022 27.3129C19.8829 26.8561 18.7495 26.1775 18.0671 25.499C17.9675 25.3956 18.0239 25.2997 18.1968 25.3956C18.3717 25.4877 19.2965 26.2076 21.0634 26.7433C22.3566 27.1343 22.71 27.1362 23.2514 27.1362C23.772 27.1362 24.3284 27.232 24.9826 26.5798C25.6348 25.9275 26.1818 24.8242 26.4149 24.3975C26.6499 23.9764 27.1141 23.2339 27.554 21.858C27.9976 20.482 28.0747 19.7226 28.1217 19.1268C28.1254 18.999 28.1348 18.8975 28.2044 18.8975Z" fill="#68737A"/>
<path d="M23.7833 23.3652C24.0389 23.3652 24.2419 23.7224 24.5183 23.7224C24.7908 23.7224 24.8716 23.4179 25.0389 23.4179C25.1987 23.4179 25.2419 23.7712 25.3002 23.8897C25.3604 24.0175 25.3961 24.0795 25.3961 24.1115C25.3961 24.1472 25.3341 24.1942 25.2683 24.1942C25.2044 24.1942 25.0747 24.0795 24.7814 24.0795C24.5653 24.0795 24.3961 24.2205 24.381 24.2543C24.3698 24.2882 24.3247 24.2769 24.2833 24.2525C24.1931 24.1867 24.0051 23.8878 23.6931 23.8878C23.5258 23.8878 23.3096 23.9968 23.0765 24.1303C22.8472 24.2769 22.6724 24.3333 22.4675 24.3333C22.2889 24.3333 22.0483 24.2619 22.0483 24.1378C22.0483 24.0682 22.1442 24.0231 22.2213 24.0231C22.4036 24.0231 22.5784 24.0645 22.9826 23.8352C23.2589 23.6716 23.5596 23.3652 23.7833 23.3652Z" fill="#68737A"/>
<path d="M22.9921 24.5817C23.1293 24.5817 23.3511 24.8524 24.0316 24.8524C24.6876 24.8524 24.8661 24.5479 25.0071 24.5479C25.0917 24.5479 25.1086 24.6362 25.1086 24.6719C25.1086 24.7039 24.853 25.5479 24.1613 25.5479C23.759 25.5479 23.3267 25.202 23.1688 25.046C23.0146 24.89 22.9019 24.7358 22.9019 24.6719C22.9019 24.6024 22.9564 24.5817 22.9921 24.5817Z" fill="#68737A"/>
<path d="M21.8115 17.4073C22.2833 17.4073 23.3265 17.5107 23.3265 17.787C23.3265 17.9393 22.8585 17.7964 22.4976 17.7964C22.1329 17.7964 22.101 17.8152 22.101 17.8415C22.101 17.8697 22.1085 17.8866 22.1367 17.9129C22.1705 17.9393 22.4092 18.1987 22.4092 18.2682C22.4092 18.5483 21.6855 18.834 21.5126 18.834C21.4205 18.834 21.2269 18.7306 21.2269 18.6066C21.2269 18.5182 21.6066 18.4261 21.6066 18.3359C21.6066 18.2419 21.3867 18.0577 21.1874 18.0577C20.9844 18.0577 20.3716 18.4881 20.2908 18.4881C20.2062 18.4881 20.1874 18.4317 20.1874 18.366C20.1874 18.3039 20.2438 18.1874 20.2438 18.1291C20.2438 17.9317 20.1104 17.9524 20.1104 17.7964C20.1104 17.7118 20.2175 17.5671 20.8228 17.4863C21.428 17.4017 21.5765 17.4073 21.8115 17.4073Z" fill="#68737A"/>
<path d="M21.5276 16.084C22.0144 16.084 23.0407 16.1629 23.2005 16.1949C23.364 16.225 23.396 16.2983 23.396 16.3453C23.396 16.4242 23.3452 16.4336 23.1554 16.4336C22.8058 16.4336 21.9204 16.4355 21.0219 16.7118C19.6121 17.1498 19.4129 17.5633 19.1761 17.5633C19.1065 17.5633 18.9956 17.475 18.9956 17.381C18.9956 17.2926 19.1366 17.0765 19.1366 16.9223C19.1366 16.8058 19.0219 16.6836 19.0219 16.6122C19.0219 16.3547 20.2137 16.084 21.5276 16.084Z" fill="#68737A"/>
<path d="M33.9883 15.6494C34.7082 15.6494 34.9958 16.3543 34.9958 17.1945C34.9958 17.3242 34.9338 17.5442 34.8153 17.5442C34.648 17.5442 34.868 17.0761 34.4413 17.0761C34.336 17.0761 34.1368 17.1889 33.962 17.3618C33.7834 17.5366 32.7289 18.9596 31.9638 21.3186C31.5823 22.5009 31.4093 23.2396 31.4093 23.8712C31.4093 24.2885 31.5315 24.6081 31.5315 24.7547C31.5315 25.0122 31.259 24.8449 31.2138 24.7678C31.1086 24.5836 30.9131 24.0648 30.9131 23.3656C30.9131 22.6645 31.2138 20.8994 31.759 19.1118C32.0522 18.1363 32.8943 15.6494 33.9883 15.6494Z" fill="#68737A"/>
<path d="M31.894 27.0537C31.9804 27.0537 32.0556 27.0969 32.0556 27.1496C32.0556 27.2417 31.7041 27.5387 31.5519 27.7041C31.3056 27.9635 31.2361 28.3864 31.0274 28.3864C30.9598 28.3864 30.9203 28.3093 30.9203 28.2492C30.9203 28.189 30.9466 28.1345 30.9466 28.0913C30.9466 27.8845 30.6797 27.9372 30.6797 27.7736C30.6797 27.6439 31.0613 27.3921 31.2267 27.2868C31.3921 27.1853 31.7474 27.0537 31.894 27.0537Z" fill="#68737A"/>
<path d="M31.603 28.7393C31.714 28.7393 31.7985 28.7769 31.7985 28.8238C31.7985 28.9291 31.3794 29.1753 31.2985 29.2581C31.2177 29.3408 30.7779 29.9159 30.7102 30.2449C30.6406 30.5701 30.5373 30.6753 30.4433 30.6753C30.244 30.6753 30.3662 30.3483 30.2177 30.2449C30.1106 30.1659 29.8286 30.2017 29.8286 29.9611C29.8286 29.805 30.088 29.5532 30.3286 29.337C30.5711 29.1208 31.0767 28.7393 31.603 28.7393Z" fill="#68737A"/>
<path d="M29.8978 25.6191C30.0068 25.6191 30.0876 25.6737 30.1384 25.7676C30.1948 25.8597 30.1703 25.918 30.2624 26.0045C30.3508 26.0966 30.6797 26.1455 30.6797 26.3015C30.6797 26.4537 30.503 26.4537 30.4184 26.5176C30.3282 26.5797 30.0933 26.6793 29.9128 26.9932C29.7361 27.3052 29.6308 27.715 29.597 28.2752C29.5594 28.8353 29.379 29.3842 29.0933 29.8541C28.7925 30.3597 28.3357 30.7526 28.082 31.168C27.8714 31.5233 27.9448 31.9161 27.7248 31.9161C27.5143 31.9161 27.4805 31.3184 27.4805 31.1097C27.4805 30.9011 27.5331 30.1924 28.082 29.6755C28.691 29.1022 29.1816 29.0759 29.1816 28.1511C29.1816 27.5721 29.112 27.3898 29.112 27.0364C29.112 26.6793 29.2342 25.6191 29.8978 25.6191Z" fill="#68737A"/>
<path d="M5.87372 12.8838C6.23274 12.8838 5.83425 13.0285 6.40379 13.5981C6.67071 13.865 6.82861 13.9815 7.45455 13.9815C7.82861 13.9815 8.37184 13.8932 9.73462 13.2861C10.2722 13.0436 11.135 12.7842 11.7591 12.7842C12.556 12.7842 13.1801 13.1714 13.6218 13.4928C14.0654 13.8199 14.5918 14.2748 14.8248 14.4571C15.0579 14.6394 15.4076 14.8462 15.541 14.8988C15.6726 14.9515 15.6989 15.0248 15.6576 15.1319C15.62 15.2315 15.4639 15.4665 15.4282 15.5191C15.3869 15.5699 15.229 15.6488 15.1406 15.6864C15.0485 15.7278 14.6989 15.8688 14.2685 16.194C13.8436 16.5191 13.1294 16.9082 12.2628 16.9082C11.3906 16.9082 10.0579 16.5549 9.31921 16.5549C9.01094 16.5549 8.55229 16.7259 8.22898 17.0492C8.1068 17.1714 8.0053 17.4064 7.91695 17.4872C7.83424 17.5737 7.55417 17.7522 7.45455 17.7522C7.34928 17.7522 7.16883 17.6846 7.16883 17.5849C7.16883 17.3876 7.59552 17.3086 7.59552 16.9721C7.59552 16.6338 7.49026 16.6206 7.49026 16.4665C7.49026 16.3105 7.6162 16.0323 7.81357 15.8331C8.23838 15.4101 9.33236 15.1545 10.3173 15.1545C11.0297 15.1545 12.417 15.4665 13.3624 15.4665C13.7628 15.4665 14.0748 15.4064 14.2572 15.3255C14.5109 15.2109 14.4527 15.0737 14.338 15.0737C14.2346 15.0737 14.2459 15.1244 13.9752 15.1244C13.7309 15.1244 13.15 14.9834 12.6576 14.6564C12.167 14.3274 11.3794 13.88 10.6218 13.88C9.8568 13.88 9.31545 14.1488 9.08049 14.2409C8.52034 14.4571 7.21394 15.2071 6.5147 15.2071C5.81545 15.2071 5.00342 14.8612 5.00342 14.2673C5.00342 13.6676 5.59364 13.7146 5.59364 13.3594C5.59364 13.2973 5.56357 13.256 5.56357 13.1846C5.56357 13.115 5.635 12.8838 5.87372 12.8838Z" fill="#ED1C2E"/>
<path d="M14.4656 17.9756C14.6178 17.9756 14.6028 18.141 14.7005 18.25C14.7964 18.3647 14.8359 18.2237 14.9731 18.3722C15.116 18.5207 15.0464 18.5996 15.1404 18.6842C15.2325 18.7726 15.3866 18.7632 15.3904 18.8402C15.4148 19.1598 15.2682 19.6692 15.2682 20.4474C15.2682 20.9963 15.3622 21.6241 15.5539 22.1767C15.631 22.4079 15.4656 22.4493 15.3829 22.2876C14.819 21.2331 14.3096 19.6861 14.3096 18.4756C14.3096 18.1899 14.3528 17.9756 14.4656 17.9756Z" fill="#68737A"/>
<path d="M13.7364 19.1318C13.8078 19.1318 13.8454 19.1788 13.8454 19.2615C13.8454 19.3461 13.5954 20.16 13.2251 20.6431C12.8567 21.1224 12.274 21.754 12.0635 21.754C11.9657 21.754 11.9657 21.6412 11.9488 21.6018C11.9262 21.5623 11.8548 21.4721 11.9958 21.3555C12.1405 21.239 12.1593 21.1751 12.1593 21.0999C12.1593 21.0228 12.0954 20.9175 12.0954 20.8499C12.0954 20.7841 12.1518 20.6318 12.242 20.5773C12.3323 20.5266 12.8981 20.2409 13.212 19.8593C13.5296 19.4758 13.6255 19.1318 13.7364 19.1318Z" fill="#68737A"/>
<path fill-rule="evenodd" clip-rule="evenodd" d="M15.7873 25.1092C15.7873 25.7352 15.2722 26.2841 14.5034 26.7521C14.338 26.8517 14.1726 26.9438 14.0015 27.0265C13.9564 27.3762 13.9151 27.6901 13.8794 27.9438C13.7271 29.0848 13.4019 30.7183 13.2215 30.7183C13.041 30.7183 13.0241 29.8743 12.9978 29.5115C12.9827 29.2916 12.9452 28.378 12.917 27.5792C12.7835 27.6581 12.667 27.7465 12.5711 27.8386C12.1632 28.2483 12.0655 28.5641 12.0655 28.8555C12.0655 29.1356 12.3004 29.5942 12.3004 29.8649C12.3004 30.1374 12.1068 30.5886 11.8737 30.5886C11.6782 30.5886 11.8324 30.3442 11.8324 30.1092C11.8324 29.4965 11.041 29.5359 11.041 28.645C11.041 28.4006 11.0824 28.1919 11.447 27.8292C11.6952 27.5792 12.4433 27.1675 12.8944 26.9307C12.8888 26.6976 12.8831 26.5059 12.8831 26.3856C12.8831 26.0153 12.9621 24.9607 13.0316 24.1374C12.5955 24.1205 12.1294 24.1299 11.729 23.7277C11.5655 23.566 11.4207 23.3141 11.4207 23.1468C11.4207 22.9758 11.5467 22.8348 12.2064 22.8348C12.4433 22.8348 12.7421 22.8574 13.1651 22.9871C13.2835 22.3029 13.5767 21.0059 13.8455 21.0059C14.0222 21.0059 14.3098 21.848 14.3098 23.1675C14.3098 23.2653 14.3061 23.3592 14.3061 23.4626C15.0824 23.8498 15.7873 24.3461 15.7873 25.1092ZM14.9188 25.3498C14.9188 24.8799 14.6312 24.6544 14.2534 24.4814C14.2083 25.113 14.1388 25.7953 14.0673 26.4213C14.3023 26.2991 14.9188 25.9119 14.9188 25.3498Z" fill="#68737A"/>
</g>
</g>
<circle cx="20" cy="20" r="19.5" stroke="black" stroke-opacity="0.05"/>
<defs>
<clipPath id="clip0_9_406712">
<rect width="30" height="23.9286" fill="white" transform="translate(5 8)"/>
</clipPath>
</defs>
</svg>
