<svg width="40" height="40" viewBox="0 0 40 40" fill="none" xmlns="http://www.w3.org/2000/svg">
<circle cx="20" cy="20" r="20" fill="#1E1E23"/>
<g clip-path="url(#clip0_9_401712)">
<path d="M9.07115 19.3926H9.7299C10.6224 19.3926 11.5009 19.4994 11.5009 18.4169C11.5009 17.5711 10.6861 17.5711 9.7299 17.5711H9.07115V19.3926ZM6.64258 15.1426H10.4148C12.4523 15.1426 13.8597 16.1079 13.8597 18.3392C13.8597 20.6318 12.6539 21.8211 10.5034 21.8211H9.07115V24.8569H6.64258M19.6961 21.214L21.8211 15.1426H24.8635L20.826 24.8569H18.6221L14.5342 15.1426H17.5711M31.5354 18.7854V15.1426H33.964V24.8569H31.5354V21.214H28.4997V24.8569H26.0711V15.1426H28.4997V18.7854" fill="white"/>
</g>
<circle cx="20" cy="20" r="19.5" stroke="black" stroke-opacity="0.05"/>
<defs>
<clipPath id="clip0_9_401712">
<rect width="28" height="10" fill="white" transform="translate(6 15)"/>
</clipPath>
</defs>
</svg>
