<svg width="40" height="40" viewBox="0 0 40 40" fill="none" xmlns="http://www.w3.org/2000/svg">
<circle cx="20" cy="20" r="20" fill="#4A613E"/>
<g clip-path="url(#clip0_9_411374)">
<path d="M6.49999 21.7793C6.49999 22.2255 6.5662 22.3965 6.8317 22.5713H5.54663C5.7877 22.4357 5.85713 22.2904 5.85713 21.7086V18.9604C5.85713 18.3786 5.7877 18.207 5.54663 18.0713H6.1702C6.3682 18.0713 6.3682 18.0778 6.89985 18.0713H7.10363C7.46813 18.0713 7.7272 18.133 7.96185 18.2494C8.36363 18.4558 8.62335 18.8505 8.62335 19.2773C8.62335 19.9819 7.97406 20.5573 7.18334 20.5573C7.022 20.5648 6.86118 20.5339 6.71406 20.4673C7.12227 20.4158 7.34406 20.3252 7.55427 20.1368C7.78249 19.9305 7.89434 19.6913 7.89434 19.4001C7.89434 18.8768 7.53563 18.5535 6.94934 18.5535C6.77577 18.5535 6.67935 18.5663 6.49999 18.6113M9.71427 18.9617C9.71427 18.3786 9.68792 18.207 9.43656 18.0713H10.6946C10.4439 18.207 10.3571 18.3786 10.3571 18.9617V21.7131C10.3571 22.2955 10.4716 22.4357 10.7223 22.5713H9.43656C9.68727 22.4357 9.71427 22.2955 9.71427 21.7131M13.2198 18.9649C12.9414 19.267 12.7685 19.7505 12.7685 20.241C12.7685 20.763 12.9601 21.2978 13.2937 21.6842C13.5907 22.0262 13.961 22.194 14.4367 22.194C15.4126 22.194 16.0805 21.465 16.0805 20.4081C16.0805 19.899 15.9198 19.4155 15.635 19.0549C15.3136 18.655 14.9182 18.4615 14.4058 18.4615C13.9668 18.4615 13.5097 18.655 13.2198 18.9649ZM16.1602 18.6422C16.5678 19.0549 16.8211 19.6862 16.8211 20.2982C16.8211 21.627 15.7584 22.6768 14.4116 22.6768C13.0835 22.6768 12.0331 21.652 12.0331 20.3503C12.0331 18.9964 13.0957 17.9717 14.4984 17.9717C15.1162 17.9717 15.7462 18.223 16.1602 18.6422ZM18.7143 21.7678C18.7143 22.2126 18.7927 22.3913 19.0614 22.5713H17.8914C18.1711 22.3849 18.2398 22.219 18.2398 21.7678V18.8865C18.2398 18.4416 18.1653 18.2513 17.8972 18.0713H18.8557C18.8808 18.1356 18.8872 18.1645 19.0113 18.3388L21.4432 21.5479V18.8865C21.4432 18.4352 21.3686 18.2578 21.0948 18.0713H22.2706C21.9896 18.2578 21.9286 18.4352 21.9286 18.8865V22.786C21.5686 22.6639 21.2876 22.4447 21.0202 22.0705L18.7143 19.0472M24.5019 21.9767C24.8041 22.0281 25.0078 22.0474 25.3055 22.0474C25.8731 22.0474 26.2248 21.9381 26.5777 21.661L26.2743 22.5713H23.5556C23.7967 22.4363 23.8565 22.2602 23.8565 21.6739V18.9411C23.8565 18.3606 23.7909 18.1993 23.5556 18.07H25.7246C25.8474 18.07 25.8853 18.0636 25.9715 18.0315V18.8248C25.7613 18.612 25.5948 18.5535 25.1743 18.5535C24.8593 18.5535 24.6922 18.5663 24.5013 18.5991V19.9999H25.3723C25.4506 20.0009 25.5276 19.9802 25.5948 19.9401V20.6627C25.49 20.5213 25.3659 20.4756 25.0818 20.4756H24.5013M28.3571 21.9767C28.6593 22.0281 28.8708 22.0474 29.1671 22.0474C29.7354 22.0474 30.0877 21.9381 30.44 21.661L30.1378 22.5713H27.4186C27.6596 22.4363 27.7143 22.2602 27.7143 21.6739V18.9411C27.7143 18.3606 27.6538 18.1993 27.4186 18.07H29.5876C29.711 18.07 29.7483 18.0636 29.8351 18.0315V18.8248C29.6248 18.612 29.4577 18.5535 29.0379 18.5535C28.7229 18.5535 28.5481 18.5663 28.3571 18.5991V19.9999H29.2353C29.3135 20.0009 29.3905 19.9802 29.4577 19.9401V20.6627C29.3529 20.5213 29.2288 20.4756 28.9447 20.4756H28.3571M32.2143 21.697C32.2143 22.2769 32.2824 22.4363 32.5228 22.5713H31.2873C31.529 22.4363 31.5714 22.2769 31.5714 21.697V18.9572C31.5714 18.3773 31.529 18.2063 31.2873 18.0713H32.8134C33.2396 18.0713 33.5424 18.1581 33.7777 18.3388C34.0432 18.5445 34.2097 18.88 34.2097 19.2092C34.2097 19.7312 33.7713 20.214 33.1535 20.3753C34.1293 21.742 34.6237 22.2833 35.1425 22.5675C34.7413 22.5996 34.6732 22.606 34.544 22.606C34.1731 22.606 33.9751 22.4768 33.5366 21.9285C33.1097 21.396 32.7274 20.8292 32.3936 20.2339C33.1291 20.1053 33.4801 19.7826 33.4801 19.26C33.4801 18.8158 33.1599 18.5065 32.69 18.5065C32.5479 18.5065 32.4116 18.5194 32.2143 18.558" fill="white"/>
</g>
<circle cx="20" cy="20" r="19.5" stroke="black" stroke-opacity="0.05"/>
<defs>
<clipPath id="clip0_9_411374">
<rect width="31" height="6" fill="white" transform="translate(5 17)"/>
</clipPath>
</defs>
</svg>
