<svg width="40" height="40" viewBox="0 0 40 40" fill="none" xmlns="http://www.w3.org/2000/svg">
<circle cx="20" cy="20" r="20" fill="#F3F5F7"/>
<g clip-path="url(#clip0_9_386048)">
<path d="M15.6813 30.7866L16.0902 28.1901L15.1793 28.169H10.8296L13.8524 9.01016C13.8618 8.95231 13.8923 8.89837 13.9368 8.86006C13.9814 8.82189 14.0384 8.80078 14.098 8.80078H21.4321C23.867 8.80078 25.5472 9.30723 26.4245 10.3068C26.8358 10.7758 27.0977 11.2658 27.2244 11.8051C27.3574 12.3709 27.3598 13.047 27.2298 13.8717L27.2205 13.9319V14.4602L27.6318 14.693C27.9781 14.8767 28.2534 15.0869 28.4645 15.3277C28.8163 15.7286 29.0439 16.2382 29.1401 16.8423C29.2394 17.4637 29.2065 18.2031 29.0439 19.0401C28.8563 20.0031 28.5528 20.8417 28.1432 21.5279C27.7663 22.1603 27.2861 22.6847 26.7162 23.0911C26.172 23.4773 25.5254 23.7703 24.7943 23.9579C24.0859 24.1423 23.2782 24.2353 22.3923 24.2353H21.8215C21.4133 24.2353 21.017 24.3823 20.7058 24.6457C20.3938 24.9145 20.1874 25.2818 20.1241 25.6836L20.0811 25.9173L19.3586 30.4934L19.3257 30.6615C19.3171 30.7147 19.3023 30.7412 19.2804 30.7592C19.2609 30.7756 19.2327 30.7866 19.2052 30.7866H15.6813Z" fill="#253B80"/>
<path d="M28.0211 13.9922C27.9992 14.1321 27.9742 14.2752 27.946 14.4222C26.9788 19.3859 23.6699 21.1007 19.4437 21.1007H17.2919C16.7751 21.1007 16.3396 21.4758 16.259 21.9854L15.1573 28.9696L14.8454 30.9493C14.7929 31.2839 15.051 31.5855 15.3887 31.5855H19.2052C19.6572 31.5855 20.0411 31.2573 20.1123 30.8119L20.1498 30.618L20.8684 26.0598L20.9145 25.8098C20.9848 25.3626 21.3695 25.0344 21.8215 25.0344H22.3923C26.0899 25.0344 28.9844 23.5338 29.8304 19.1913C30.1838 17.3772 30.0009 15.8625 29.0658 14.7973C28.7826 14.4761 28.4316 14.2095 28.0211 13.9922Z" fill="#179BD7"/>
<path d="M27.0094 13.5892C26.8616 13.5462 26.7092 13.5071 26.5527 13.4719C26.3956 13.4375 26.2345 13.407 26.0688 13.3804C25.4886 13.2867 24.8529 13.2422 24.1719 13.2422H18.4233C18.2818 13.2422 18.1474 13.2742 18.027 13.3321C17.762 13.4594 17.5648 13.7103 17.5171 14.0174L16.2943 21.7598L16.259 21.9856C16.3397 21.4761 16.7751 21.101 17.292 21.101H19.4438C23.67 21.101 26.9789 19.3854 27.9461 14.4224C27.975 14.2754 27.9992 14.1324 28.0211 13.9924C27.7764 13.8628 27.5114 13.7518 27.2259 13.6572C27.1556 13.6337 27.0829 13.611 27.0094 13.5892Z" fill="#222D65"/>
<path d="M17.5171 14.0173C17.5648 13.7102 17.7619 13.4593 18.027 13.3328C18.1481 13.2749 18.2818 13.2429 18.4233 13.2429H24.1718C24.8529 13.2429 25.4886 13.2874 26.0688 13.3811C26.2345 13.4077 26.3956 13.4382 26.5527 13.4726C26.7092 13.5078 26.8616 13.5468 27.0094 13.5898C27.0829 13.6117 27.1556 13.6344 27.2267 13.6571C27.5122 13.7517 27.7772 13.8635 28.0219 13.9923C28.3097 12.158 28.0195 10.9091 27.0274 9.77811C25.9335 8.53303 23.9592 8 21.4328 8H14.0988C13.5827 8 13.1424 8.37511 13.0627 8.88547L10.0078 28.2413C9.94761 28.6244 10.2431 28.9698 10.6294 28.9698H15.1574L16.2943 21.7597L17.5171 14.0173Z" fill="#253B80"/>
</g>
<circle cx="20" cy="20" r="19.5" stroke="black" stroke-opacity="0.05"/>
<defs>
<clipPath id="clip0_9_386048">
<rect width="20" height="23.5831" fill="white" transform="translate(10 8)"/>
</clipPath>
</defs>
</svg>
