<svg width="40" height="40" viewBox="0 0 40 40" fill="none" xmlns="http://www.w3.org/2000/svg">
<circle cx="20" cy="20" r="20" fill="#AB131B"/>
<path d="M35.0897 17.7599C32.7893 16.4441 27.4876 15.1067 25.2449 14.9296L23.5553 14.7952C21.7537 14.6486 20.7596 14.5713 19.9996 14.5713C19.2389 14.5713 14.7563 14.9316 14.7563 14.9316C12.5122 15.1094 7.21055 16.4469 4.91019 17.7619C3.83058 18.3767 3.71387 18.8151 3.71387 20.2686V23.9736C3.71387 24.2749 3.75051 24.7132 4.06672 25.0457C4.4318 25.4284 4.90408 25.4284 5.45101 25.4284H34.5482C35.0951 25.4284 35.5674 25.4284 35.9324 25.0457C36.2487 24.7132 36.2853 24.2749 36.2853 23.9736V20.2659C36.2853 18.813 36.1679 18.3767 35.0897 17.7599Z" fill="#077954"/>
<path d="M35.6035 23.7413C35.6035 23.9604 35.579 24.2773 35.3605 24.4952C35.1061 24.751 34.7485 24.751 34.2531 24.7503H5.74294C5.2469 24.7503 4.88997 24.7503 4.63551 24.4952C4.41769 24.2767 4.39258 23.9604 4.39258 23.7413V20.2738C4.39258 18.9587 4.51201 18.7117 5.38058 18.2367C7.59611 17.0254 12.7186 15.7932 14.8867 15.6303L16.5417 15.5041C18.3013 15.3134 19.2784 15.251 20.0099 15.251C20.7421 15.251 21.8502 15.2951 23.4577 15.5041L25.1134 15.6303C27.2821 15.7932 32.4033 17.0261 34.6189 18.2374C35.4874 18.7124 35.6069 18.9594 35.6069 20.2738V23.7413H35.6035Z" fill="white"/>
<path d="M27.0474 13.7832L26.837 13.7181C26.7807 13.7025 25.4222 13.3408 24.971 13.3313L25.0727 12.7972C25.0757 12.7761 25.0739 12.7545 25.0676 12.7341C25.0613 12.7137 25.0505 12.6949 25.0361 12.6792C24.8454 12.4234 22.8457 11.8574 19.9773 11.8574C17.1457 11.8574 15.074 12.3813 14.8786 12.612C14.8647 12.6265 14.8544 12.6441 14.8485 12.6633C14.8426 12.6825 14.8413 12.7028 14.8446 12.7226L14.9817 13.3306C14.5311 13.3435 13.1747 13.7038 13.1156 13.7174L12.9053 13.7819L13.0328 13.925L13.8349 14.7617L13.6612 16.1799L13.6395 16.3726L13.8234 16.3279C13.9923 16.2871 14.179 16.2322 14.3771 16.1738C14.8358 16.0401 15.3563 15.8888 15.7207 15.8888C15.7234 15.8888 15.9935 15.8834 16.2595 15.8603C16.3531 15.8522 16.404 15.8257 16.4155 15.7789C16.4454 15.6567 16.1339 15.4477 16.0525 15.3989C16.1936 15.2767 18.3569 15.046 19.9773 15.0542H20.0479C21.665 15.0542 23.7801 15.2815 23.9042 15.3975C23.8242 15.4477 23.5107 15.6554 23.5398 15.7796C23.5514 15.8257 23.6023 15.8522 23.6959 15.861C23.9619 15.8834 24.232 15.8881 24.2354 15.8881C24.5991 15.8881 25.1196 16.0401 25.579 16.1738C25.7764 16.2295 25.9644 16.2844 26.1313 16.3279L26.3152 16.3726L26.1198 14.7617L26.9232 13.925L27.0474 13.7832Z" fill="#DF2A27"/>
<path d="M24.2211 15.2635L24.1784 15.2309C24.0094 15.0701 21.8522 14.8136 20.0194 14.8387C18.1839 14.8136 15.893 15.1088 15.7716 15.2812L15.7512 15.3015L15.7376 15.2459C15.7329 15.2228 15.2348 12.9564 15.2063 12.8369C15.2092 12.8162 15.2187 12.7969 15.2335 12.782C15.4119 12.556 17.506 12.1143 20.0194 12.1143C21.1126 12.1197 22.2044 12.2181 23.2806 12.4101C24.0725 12.5506 24.6405 12.6999 24.7375 12.8234C24.7484 12.8451 24.7511 12.8695 24.7443 12.8926C24.7165 13.0113 24.2754 15.0165 24.2707 15.0396L24.2211 15.2635ZM15.4981 15.5343L15.034 13.5569H15.0238C14.6668 13.5569 13.3545 13.9023 13.3545 13.9023L14.1009 14.6759L13.9401 16.0425C13.9401 16.0425 14.3907 15.9272 14.5983 15.8715C14.8351 15.807 15.0577 15.7467 15.2497 15.7059C15.3698 15.6815 15.4906 15.6652 15.6128 15.6584L15.7091 15.6523L15.6657 15.6286L15.4981 15.5336V15.5343ZM24.4491 15.5716L24.9133 13.5942H24.9235C25.2804 13.5942 26.5927 13.9403 26.5927 13.9403L25.8463 14.7105L26.0065 16.0771C26.0065 16.0771 25.5566 15.9618 25.3482 15.9061C25.1121 15.8417 24.8888 15.7813 24.6968 15.7405C24.5772 15.7153 24.4558 15.6995 24.3338 15.693L24.2388 15.6863L24.2815 15.6625L24.4491 15.5716Z" fill="#077954"/>
<path d="M6.27084 22.3275L6.19212 22.3377L6.20298 24.066L5.0752 24.0714V19.4999C5.46597 19.3452 5.85914 19.1966 6.25455 19.0541C7.19166 18.7067 7.77659 19.0582 7.7922 20.3346C7.8078 21.5987 7.22559 22.2196 6.27084 22.3275ZM6.33055 20.1459L6.17787 20.1887L6.18534 21.3816L6.33937 21.3511C6.61827 21.2961 6.73837 20.9717 6.73498 20.6121C6.73159 20.2524 6.61012 20.0672 6.33055 20.1459ZM12.3515 21.7534L12.2565 21.7609V24.0714H11.1871L11.1789 17.6454C11.1789 17.6454 11.9267 17.4669 12.3027 17.3882C13.1943 17.1955 13.8769 17.7506 13.8932 19.3506C13.9082 20.9331 13.233 21.6483 12.3515 21.7534ZM12.3841 18.7867C12.3366 18.7949 12.2592 18.8125 12.2592 18.8125C12.2592 18.8125 12.2545 19.8826 12.2592 20.4133C12.7383 20.3658 12.8448 20.1161 12.8448 19.4721C12.8469 18.9659 12.6467 18.7433 12.3841 18.7867ZM32.2337 19.5861C32.0791 19.5579 31.9243 19.5303 31.7695 19.5033C31.8075 19.1348 31.8564 18.7542 31.8944 18.3911C32.0959 18.4468 32.3015 18.5133 32.5024 18.5723C32.4182 18.9007 32.3192 19.2407 32.2337 19.5861Z" fill="#DF2A27"/>
<path d="M31.5778 23.4979V18.2498L31.5479 18.2417C31.2032 18.1467 30.9847 18.0863 30.6244 17.9892L30.6122 17.9858V21.053C30.3218 19.8987 29.9994 18.9562 29.6683 17.7673C29.6493 17.7673 29.6303 17.7626 29.612 17.7592L28.5758 17.5244V21.3387C28.5622 22.2256 28.55 23.1213 28.5371 24.0679H29.6466V20.8365C29.9282 21.9453 30.2966 23.0256 30.5681 24.0713H31.5778V23.4979Z" fill="#DF2A27"/>
<path d="M28.1433 17.392C27.7334 17.3194 26.7861 17.1925 26.7861 17.1925V19.767H26.1076V17.0826L25.8721 17.0616L24.9085 16.9252L24.7504 16.9035C24.742 18.1068 24.742 19.3101 24.7504 20.5135V24.0719H26.1076V21.4282H26.7861V24.0719H28.1426L28.1433 17.392ZM33.6967 20.7917C33.5135 20.5867 33.4042 20.4151 33.4042 20.2712C33.4042 20.1131 33.4606 19.9754 33.6329 19.9849C33.8365 19.9964 33.8691 20.2617 33.8786 20.4368C33.8786 20.4761 33.884 20.5162 33.886 20.5535H34.9073C34.8761 19.6171 34.5476 19.0403 33.7598 18.8754C33.01 18.718 32.29 19.0715 32.2785 20.0466C32.2717 20.6478 32.5262 21.1852 32.9516 21.6222C33.1443 21.8231 33.3384 22.0179 33.5318 22.2079C33.7164 22.3884 33.8121 22.5146 33.8087 22.6469C33.8087 22.8084 33.7252 22.94 33.5535 22.94C33.3466 22.94 33.255 22.7209 33.2461 22.5376C33.2424 22.4585 33.2401 22.3793 33.2393 22.3001H32.2127V22.4596C32.2011 23.4517 32.7331 24.0719 33.5128 24.0719C34.4228 24.0719 34.929 23.4714 34.927 22.6666C34.927 22.1902 34.6643 21.8231 34.2647 21.3997C34.0717 21.2005 33.8823 20.9978 33.6967 20.7917ZM9.80149 18.0082C9.4147 18.1106 9.02792 18.2199 8.64249 18.3359C8.37462 20.2505 8.08915 22.1626 7.78613 24.0719L8.87253 24.0685L8.93563 23.3757H9.57688C9.57688 23.3757 9.63117 23.8276 9.6556 24.0651H10.778C10.4522 21.971 10.1265 19.9516 9.80149 18.0082ZM9.03063 22.3035C9.03063 22.3035 9.15753 20.8969 9.21656 20.1932H9.22878C9.30342 20.8717 9.47103 22.3035 9.47103 22.3035H9.03063ZM16.3015 16.9035C15.8944 16.953 15.2056 17.0283 14.7903 17.0772C14.487 19.4759 14.1885 21.7607 13.8912 24.0712L15.1948 24.0685L15.2613 23.2223H15.9208L16.0023 24.0685L17.2848 24.0719C16.9591 21.6379 16.6388 19.2757 16.3015 16.9035ZM15.3855 21.9317L15.5551 19.3545H15.5755L15.8387 21.9283L15.3855 21.9317ZM22.8748 16.609C22.0293 16.575 21.3603 17.3608 21.3576 18.7254C21.3542 19.7786 21.3576 20.8324 21.3555 21.8862C21.3515 23.2393 22.0511 24.0739 22.8816 24.0719C23.7122 24.0699 24.3989 23.2033 24.4111 21.8862C24.4206 20.8575 24.4016 19.881 24.4111 18.853C24.4227 17.5257 23.8025 16.5391 22.8748 16.609ZM23.054 22.3924C23.054 22.5519 23.0187 22.7147 22.8816 22.7147C22.7106 22.7147 22.7147 22.5722 22.7147 22.3924V18.2911C22.7147 18.1317 22.7446 17.9647 22.8816 17.9647C23.0581 17.9647 23.054 18.1106 23.054 18.2905V22.3924ZM19.3218 16.6076V22.4535C19.3218 22.5648 19.2832 22.7147 19.1692 22.7147C19.0396 22.7147 18.9832 22.594 18.9826 22.4501V22.0362C18.5992 22.0362 18.0075 22.0307 17.6254 22.0362V22.4962C17.6254 23.43 18.1975 24.0719 19.0796 24.0719C19.1549 24.0719 19.2302 24.0671 19.3049 24.0576C20.2705 23.9898 20.6702 23.3709 20.6702 21.9704L20.6797 16.6096L19.3218 16.6076Z" fill="#DF2A27"/>
<path d="M17.0643 14.531L16.8506 12.8366L17.3622 12.7748C17.7069 12.7334 17.975 12.878 18.015 13.1996C18.0557 13.5212 17.8311 13.7452 17.4864 13.7872L17.3521 13.8028L17.4382 14.4855L17.0643 14.531ZM17.4511 13.4927C17.4809 13.49 17.5098 13.4812 17.5361 13.4668C17.5624 13.4525 17.5854 13.4329 17.6038 13.4093C17.6219 13.3858 17.6349 13.3587 17.6418 13.3298C17.6487 13.3009 17.6494 13.2709 17.6438 13.2417C17.6282 13.1148 17.5312 13.0557 17.3975 13.072L17.2638 13.0876L17.3168 13.5083L17.4511 13.4927ZM18.3686 14.3742L18.2668 12.6696L18.6447 12.6479L18.7465 14.3518L18.3686 14.3742ZM19.1313 14.326L19.1286 14.0729L19.7542 12.9153L19.1353 12.9221L19.1313 12.6181L20.1885 12.6065L20.1912 12.84L19.5581 14.0173L20.2231 14.0098L20.2272 14.3138L19.1313 14.326ZM20.5617 14.3097L20.5746 14.0566L21.2722 12.9383L20.6553 12.9078L20.6709 12.6045L21.7268 12.6561L21.7153 12.8895L21.0082 14.0261L21.6725 14.0594L21.6569 14.3627L20.5617 14.3097ZM22.7569 14.4963L22.7447 14.2846L22.3952 14.2405L22.3287 14.4427L21.9541 14.3952L22.594 12.7538L22.9713 12.8013L23.1491 14.5452L22.7569 14.4963ZM22.706 13.336H22.6999L22.4861 13.9759L22.7372 14.0071L22.706 13.3353V13.336Z" fill="white"/>
<circle cx="20" cy="20" r="19.5" stroke="black" stroke-opacity="0.05"/>
</svg>
