<svg width="40" height="40" viewBox="0 0 40 40" fill="none" xmlns="http://www.w3.org/2000/svg">
<circle cx="20" cy="20" r="20" fill="#1D2329"/>
<g clip-path="url(#clip0_9_406275)">
<path d="M25.6037 21.6909C25.3771 21.8895 25.0965 21.9923 24.7744 21.9923H22.4167C22.0951 21.9923 21.8205 21.8895 21.5947 21.6909C21.3685 21.4919 21.252 21.232 21.252 20.9164V20.7247C21.252 20.4229 21.3685 20.1695 21.6081 19.964C21.8482 19.7516 22.1154 19.6489 22.4167 19.6489H23.9179V20.3612H22.4167C22.3144 20.3612 22.2251 20.3957 22.1361 20.4644C22.0468 20.5395 22.0057 20.6219 22.0057 20.7247V20.9164C22.0057 21.1564 22.1426 21.273 22.4167 21.273H24.7744C25.055 21.273 25.1923 21.1565 25.1923 20.9164V19.0802C25.1923 18.9839 25.1513 18.902 25.0624 18.8268C24.973 18.7513 24.8772 18.7167 24.7744 18.7167H21.3206V18.0039H24.7744C25.0827 18.0039 25.3499 18.1071 25.583 18.3195C25.8231 18.5319 25.9392 18.7853 25.9392 19.0802V20.9163C25.9392 21.2319 25.8295 21.4919 25.6037 21.6909Z" fill="white"/>
<path d="M30.342 20.9163C30.1572 21.636 29.773 21.9922 29.1772 21.9922H28.1627C27.5669 21.9922 27.1831 21.636 26.9979 20.9163L26.251 18.0039H27.0527L27.7724 20.7795C27.8549 21.108 28.0262 21.2729 28.2728 21.2729H29.0676C29.321 21.2729 29.4993 21.108 29.5817 20.7795L30.2941 18.0039H31.0958L30.342 20.9163Z" fill="white"/>
<path d="M35.7032 20.0327C35.4632 20.2451 35.1959 20.3474 34.8946 20.3474H33.387V19.6281H34.8946C34.9904 19.6281 35.0798 19.594 35.1687 19.5253C35.2577 19.4498 35.306 19.3677 35.306 19.2719V19.0802C35.306 18.8402 35.1687 18.7167 34.8946 18.7167H32.5305C32.2559 18.7167 32.119 18.8402 32.119 19.0802V20.9094C32.119 21.0122 32.1605 21.0946 32.2494 21.1633C32.3384 21.2384 32.4277 21.2729 32.5305 21.2729H35.9912V21.9853H32.5305C32.2287 21.9853 31.9619 21.8825 31.7218 21.677C31.4822 21.4646 31.3652 21.2112 31.3652 20.9094V19.0802C31.3652 18.7577 31.4822 18.5043 31.7085 18.3057C31.9343 18.1071 32.2084 18.0039 32.5305 18.0039H34.8946C35.2167 18.0039 35.4908 18.1071 35.717 18.2988C35.9428 18.4974 36.0598 18.7577 36.0598 19.0802V19.2719C36.0598 19.5663 35.9428 19.8198 35.7032 20.0327Z" fill="white"/>
<path d="M11.5985 19.9933C11.5985 20.2558 11.3857 20.4687 11.1232 20.4687C10.8607 20.4687 10.6475 20.2558 10.6475 19.9933C10.6475 19.7309 10.8607 19.5176 11.1232 19.5176C11.3857 19.5176 11.5985 19.7309 11.5985 19.9933Z" fill="white"/>
<path d="M11.5985 18.4753C11.5985 18.7378 11.3857 18.9506 11.1232 18.9506C10.8607 18.9506 10.6475 18.7378 10.6475 18.4753C10.6475 18.2124 10.8607 18 11.1232 18C11.3857 18 11.5985 18.2124 11.5985 18.4753Z" fill="white"/>
<path d="M13.1792 21.5105C13.1792 21.773 12.9663 21.9863 12.7034 21.9863C12.4414 21.9863 12.2285 21.773 12.2285 21.5105C12.2285 21.248 12.4414 21.0352 12.7034 21.0352C12.9663 21.0352 13.1792 21.248 13.1792 21.5105Z" fill="white"/>
<path d="M13.1792 19.9933C13.1792 20.2558 12.9663 20.4687 12.7034 20.4687C12.4414 20.4687 12.2285 20.2558 12.2285 19.9933C12.2285 19.7309 12.4414 19.5176 12.7034 19.5176C12.9663 19.5176 13.1792 19.7309 13.1792 19.9933Z" fill="#3875E1"/>
<path d="M17.1819 20.9104L17.1651 20.9795C16.9743 21.6465 16.5983 21.9767 16.0254 21.9767H15.503C14.9089 21.9767 14.5273 21.6219 14.3429 20.9056L13.5986 18.0049H14.3973L15.114 20.7688C15.196 21.0969 15.3665 21.2605 15.6122 21.2605H15.9161C16.1687 21.2605 16.3461 21.0986 16.4282 20.7709C16.4282 20.7709 16.6142 20.1967 17.1819 20.1898C17.1819 20.1898 17.7393 20.1359 17.9306 20.7476L17.9383 20.7683" fill="white"/>
<path d="M17.9387 20.7679C18.0151 21.0852 18.2063 21.2601 18.452 21.2601H18.7559C19.0085 21.2601 19.1855 21.0965 19.2679 20.7684L19.9777 18.0049H20.776L20.0252 20.9052C19.8408 21.6219 19.4588 21.9768 18.8651 21.9768H18.3428C17.7491 21.9768 17.364 21.6193 17.1797 20.9026L17.9387 20.7679Z" fill="white"/>
<path d="M9.07764 19.0799C9.07764 18.9835 9.03706 18.9011 8.94899 18.826C8.86048 18.75 8.77241 18.7155 8.67052 18.7155H5.73955V21.2786H8.67052C8.94207 21.2786 9.07764 21.1621 9.07764 20.9212V19.0799ZM9.49167 21.6978C9.2676 21.8973 8.98913 22 8.67052 22H5V18.001H8.67052C8.96927 18.001 9.23349 18.1041 9.47094 18.317C9.70839 18.5303 9.82366 18.7846 9.82366 19.0799V20.9212C9.82366 21.2376 9.7153 21.4984 9.49167 21.6978Z" fill="white"/>
</g>
<circle cx="20" cy="20" r="19.5" stroke="black" stroke-opacity="0.05"/>
<defs>
<clipPath id="clip0_9_406275">
<rect width="32" height="4" fill="white" transform="translate(5 18)"/>
</clipPath>
</defs>
</svg>
