<svg width="40" height="40" viewBox="0 0 40 40" fill="none" xmlns="http://www.w3.org/2000/svg">
<circle cx="20" cy="20" r="20" fill="#ED2E26"/>
<path d="M19.963 31.8381C18.5617 31.1414 17.2177 30.2627 15.985 29.3107C13.251 27.1974 10.6783 24.2427 10.171 20.7094C10.1155 20.3254 10.0775 19.8896 10.057 19.4021C9.9819 17.6305 9.98101 15.9154 10.0543 14.2567C10.0823 13.6203 10.133 12.9994 10.2063 12.3941C10.2111 12.3533 10.2308 12.3158 10.2617 12.2887C10.9737 11.6656 11.7621 11.1334 12.627 10.6921C15.449 9.25006 18.6283 8.77873 21.8283 9.09273C24.035 9.30962 26.0515 9.93495 27.8777 10.9687C28.5648 11.3581 29.185 11.8007 29.7383 12.2967C29.7637 12.3195 29.78 12.3508 29.7843 12.3847C29.8581 12.9932 29.9086 13.5974 29.9357 14.1974C30.0192 16.0485 30.0121 17.9187 29.9143 19.8081C29.7497 23.0014 27.9243 25.7874 25.6263 27.9287C23.9632 29.4794 22.099 30.7823 20.0337 31.8374C20.0101 31.8494 19.9866 31.8496 19.963 31.8381ZM24.389 20.6254C23.777 21.7567 22.7663 22.6827 21.6457 23.3827C21.6415 23.3854 21.6381 23.3891 21.6359 23.3935C21.6337 23.3979 21.6327 23.4028 21.633 23.4077C21.6334 23.4126 21.635 23.4174 21.6378 23.4214C21.6407 23.4255 21.6445 23.4287 21.649 23.4307C22.5497 23.8314 23.5183 24.0227 24.5117 24.1267C24.5397 24.1298 24.565 24.1227 24.5877 24.1054C26.7577 22.4554 27.769 19.7687 27.0997 17.1094C26.0043 12.7554 21.1637 10.6287 17.1057 12.3021C14.467 13.3894 12.6623 15.9201 12.6917 18.8127C12.7277 22.3147 15.0003 24.8781 18.051 26.2661C19.603 26.9723 21.2497 27.4512 22.991 27.7027C23.0177 27.7063 23.0426 27.7012 23.0657 27.6874C23.3061 27.5452 23.5526 27.3705 23.805 27.1634C24.3177 26.7421 24.793 26.2914 25.1583 25.8014C25.1775 25.7752 25.171 25.7601 25.139 25.7561C23.299 25.5261 21.4137 25.1361 19.761 24.5161C17.2857 23.5874 15.095 21.7834 15.1137 18.8981C15.139 14.8861 19.7297 12.6761 22.9423 15.0221C24.6963 16.3034 25.4597 18.6454 24.389 20.6254Z" fill="white"/>
<path d="M21.6458 23.3828C22.7664 22.6828 23.7771 21.7568 24.3891 20.6255C25.4598 18.6455 24.6964 16.3035 22.9424 15.0221C19.7298 12.6761 15.1391 14.8861 15.1138 18.8981C15.0951 21.7835 17.2858 23.5875 19.7611 24.5161C21.4138 25.1361 23.2991 25.5261 25.1391 25.7561C25.1711 25.7601 25.1775 25.7752 25.1584 25.8015C24.7931 26.2915 24.3178 26.7421 23.8051 27.1635C23.5526 27.3706 23.3062 27.5452 23.0658 27.6875C23.0426 27.7012 23.0178 27.7064 22.9911 27.7028C21.2498 27.4512 19.6031 26.9724 18.0511 26.2661C15.0004 24.8781 12.7278 22.3148 12.6918 18.8128C12.6624 15.9201 14.4671 13.3895 17.1058 12.3021C21.1638 10.6288 26.0044 12.7555 27.0998 17.1095C27.7691 19.7688 26.7578 22.4555 24.5878 24.1055C24.5651 24.1228 24.5398 24.1299 24.5118 24.1268C23.5184 24.0228 22.5498 23.8315 21.6491 23.4308C21.6446 23.4288 21.6407 23.4256 21.6379 23.4215C21.6351 23.4175 21.6334 23.4127 21.6331 23.4078C21.6328 23.4029 21.6338 23.398 21.636 23.3936C21.6382 23.3892 21.6416 23.3854 21.6458 23.3828Z" fill="#ED2E26"/>
<circle cx="20" cy="20" r="19.5" stroke="black" stroke-opacity="0.05"/>
</svg>
