<svg width="40" height="40" viewBox="0 0 40 40" fill="none" xmlns="http://www.w3.org/2000/svg">
<circle cx="20" cy="20" r="20" fill="#D6001C"/>
<g clip-path="url(#clip0_9_407001)">
<path fill-rule="evenodd" clip-rule="evenodd" d="M8 18.9105L11.2964 17.0143V27.4933H8V18.9105ZM27.3224 22.3706C27.3224 25.3492 24.9065 27.7746 21.9407 27.7746C19.0082 27.7746 16.5923 25.3492 16.5923 22.3706C16.5923 22.3706 16.5923 22.3706 16.5923 13.9515C16.5923 13.9515 16.5923 13.9515 19.8887 12.0029C19.8887 12.0029 19.8887 12.0029 19.8887 17.3703C20.5483 17.1129 21.2445 16.9666 21.9407 16.9666C24.9065 16.9666 27.3224 19.3921 27.3224 22.3706ZM23.991 22.3706C23.991 21.2517 23.0819 20.3489 21.9581 20.3489C20.8328 20.3489 19.9237 21.2517 19.9237 22.3706C19.9237 23.488 20.8328 24.3923 21.9581 24.3923C23.0819 24.3923 23.991 23.488 23.991 22.3706ZM13.8045 21.0101C12.6887 21.0101 11.7875 20.1089 11.7875 18.9947C11.7875 17.8805 12.6887 16.9794 13.8045 16.9794C14.9187 16.9794 15.8199 17.8805 15.8199 18.9947C15.8199 20.1089 14.9187 21.0101 13.8045 21.0101ZM28.2697 18.9105L31.6011 17.0143V27.4949H28.2697V18.9105ZM29.9528 17.0143C28.8291 17.0143 27.9184 16.1131 27.9184 14.999C27.9184 13.8832 28.8291 12.9836 29.9528 12.9836C31.0781 12.9836 31.9873 13.8832 31.9873 14.999C31.9873 16.1131 31.0781 17.0143 29.9528 17.0143Z" fill="white"/>
</g>
<circle cx="20" cy="20" r="19.5" stroke="black" stroke-opacity="0.05"/>
<defs>
<clipPath id="clip0_9_407001">
<rect width="24" height="15.7828" fill="white" transform="translate(8 12)"/>
</clipPath>
</defs>
</svg>
