<svg width="40" height="40" viewBox="0 0 40 40" fill="none" xmlns="http://www.w3.org/2000/svg">
<circle cx="20" cy="20" r="20" fill="#FEF200"/>
<g clip-path="url(#clip0_9_406226)">
<path d="M27.1035 8.89648C27.5291 8.89648 27.8725 9.20389 27.8725 9.58434V30.4164C27.8725 30.7963 27.5291 31.1043 27.1035 31.1043H13.3348C12.9105 31.1043 12.5664 30.7963 12.5664 30.4164V9.58434C12.5664 9.20447 12.9105 8.89648 13.3348 8.89648H27.1035Z" fill="white"/>
<path d="M12.6357 11.9639H27.8745V30.3543C27.8745 30.5068 27.8439 30.6015 27.7264 30.7043C27.5978 30.8154 27.4857 30.8253 27.2825 30.8253L13.0906 30.8265C12.9848 30.8275 12.882 30.7922 12.801 30.7271C12.7502 30.6922 12.7087 30.6464 12.6799 30.5932C12.6512 30.5401 12.6361 30.4812 12.6357 30.4215V11.9639Z" fill="#FFF200"/>
<path d="M27.847 11.2334H12.6162V12.4022H27.847V11.2334Z" fill="#ED1C24"/>
<path d="M13.0613 9.15195H27.2347C27.4613 9.15195 27.6713 9.33078 27.6713 9.50494V10.0619H12.6357L12.637 9.57215V9.53124C12.637 9.33429 12.8231 9.17124 13.0606 9.15137L13.0613 9.15195Z" fill="#009A4E"/>
<path d="M27.0782 8.89648C27.5043 8.89648 27.8471 9.20389 27.8471 9.58434V30.4164C27.8471 30.7963 27.5037 31.1043 27.0782 31.1043H13.3094C12.8851 31.1043 12.541 30.7963 12.541 30.4164V9.58434C12.541 9.20447 12.8851 8.89648 13.3094 8.89648H27.0782ZM27.0782 9.17116H13.3094C13.0547 9.17116 12.8484 9.35642 12.8484 9.58434V30.4164C12.8484 30.6443 13.0547 30.829 13.3094 30.829H27.0788C27.3335 30.829 27.5398 30.6449 27.5398 30.4164V9.58434C27.5398 9.35642 27.3335 9.17116 27.0782 9.17116Z" fill="black"/>
<path d="M19.9487 13.1514C19.9487 13.1514 19.9389 13.232 19.9187 13.2788C19.8991 13.322 19.8471 13.3512 19.8508 13.3805C19.8538 13.4097 19.8875 13.4436 19.9395 13.4681C19.991 13.4915 20.0118 13.5108 20.0644 13.5225C20.1134 13.5342 20.1746 13.5657 20.1924 13.5289C20.2095 13.4915 20.1832 13.4459 20.1538 13.4021C20.1024 13.3255 20.0761 13.3068 20.0008 13.2016C19.9842 13.1788 19.9714 13.1549 19.9487 13.1514Z" fill="black"/>
<path d="M19.5634 21.414C19.5683 21.4 19.6895 21.4701 19.7532 21.5035C19.886 21.5759 19.946 21.6186 20.0636 21.6981C20.1566 21.7623 20.202 21.7951 20.295 21.8675C20.4101 21.9575 20.4726 22.0341 20.5032 22.0166C20.5479 21.9681 20.4297 21.826 20.3256 21.7495C20.224 21.6735 20.1193 21.6116 20.0379 21.5636C19.9338 21.5011 19.9252 21.4871 19.7691 21.3924C19.6588 21.3241 19.5544 21.2475 19.4568 21.1633L19.2946 21.0476L19.0399 20.8536L18.7564 20.6175L18.5422 20.4018C18.5422 20.4018 18.3762 20.2177 18.3499 20.1827C18.323 20.1476 18.2446 20.0336 18.1797 19.9372C18.1234 19.8574 18.0633 19.7799 17.9997 19.7052C17.9391 19.6386 17.8007 19.6655 17.6403 19.5801C17.445 19.4761 17.3979 19.3809 17.3979 19.3809C17.3979 19.3809 17.3911 19.3668 17.3832 19.3592C17.3764 19.3516 17.3611 19.3417 17.3611 19.3417L17.2589 19.2774L17.2007 19.2423C17.2007 19.2423 17.1566 19.2096 17.1009 19.188C17.0446 19.1658 16.9197 19.1003 16.9197 19.1003L16.6968 18.9718L16.5805 18.887C16.5505 18.8666 16.496 18.8379 16.496 18.8379C16.496 18.8379 16.4605 18.8216 16.4501 18.821C16.4311 18.8197 16.4121 18.8183 16.3932 18.8169C16.3932 18.8169 16.3503 18.8064 16.3062 18.8525C16.2628 18.8993 16.2732 18.8748 16.3448 19.1372C16.373 19.24 16.3699 19.6047 16.3999 19.7157C16.4385 19.8577 16.5493 20.0418 16.5609 20.0635C16.5719 20.0851 16.5793 20.1646 16.5793 20.1646C16.5793 20.1646 16.575 20.2288 16.5824 20.2698C16.616 20.4579 16.9203 20.334 16.9877 20.5918C17.0538 20.8466 16.9479 21.1002 16.9479 21.1002C16.9479 21.1002 16.883 21.227 16.7899 21.2463C16.6981 21.2662 16.5548 21.0815 16.4513 20.9319C16.3497 20.7846 16.2658 20.5918 16.2389 20.531C16.2119 20.4696 16.1979 20.4562 16.1673 20.4118C16.1213 20.3457 16.0846 20.3574 16.0332 20.2534C15.9817 20.1482 16.0271 20.1067 16.0044 20.0155C15.9909 19.9653 15.9793 19.9594 15.9615 19.887C15.945 19.8157 15.9217 19.5872 15.9217 19.5872L15.8899 19.3744C15.8899 19.3744 15.8783 19.2774 15.8636 19.2166C15.8122 19.0039 15.7944 18.7982 15.7944 18.7982L15.7846 18.7135L15.7815 18.6258C15.7815 18.6258 15.7785 18.5843 15.7895 18.541C15.7972 18.5134 15.8087 18.4869 15.8238 18.4622C15.8238 18.4622 15.8715 18.3903 15.8795 18.3722C15.8875 18.3546 15.9848 18.2529 15.9848 18.2529C15.9848 18.2529 16.0356 18.2149 16.1183 18.1694C16.2015 18.1232 16.2762 18.1267 16.2762 18.1267C16.2762 18.1267 16.2983 18.1249 16.4452 18.1413C16.5922 18.1577 16.8952 18.2301 16.9717 18.2483C17.0471 18.2664 17.1371 18.295 17.1952 18.3242C17.3636 18.4072 17.4144 18.3722 17.2809 18.2775C17.1903 18.2132 17.1652 18.1851 17.0924 18.1255C17.0311 18.0741 16.9834 18.0402 16.9375 17.9935C16.8764 17.9213 16.8178 17.8472 16.7617 17.7714L16.6803 17.6633C16.6803 17.6633 16.6362 17.6183 16.6289 17.6153L16.6001 17.596C16.6001 17.596 16.5462 17.599 16.4905 17.589C16.4342 17.5791 16.4079 17.6504 16.4079 17.6504C16.4079 17.6504 16.2866 17.8549 16.1636 17.9794C15.9646 18.1828 15.8213 18.3207 15.7479 18.4288C15.645 18.5785 15.6683 18.7427 15.615 18.8186C15.5844 18.8631 15.5673 18.8695 15.5501 18.9086C15.4987 19.0267 15.686 19.091 15.6432 19.2219C15.5746 19.4288 15.0383 19.6333 14.9673 19.5994C14.8932 19.5644 14.9538 19.2838 14.9783 19.1938C15.0049 19.1127 15.041 19.0347 15.086 18.9612C15.1006 18.9419 15.111 18.9201 15.1166 18.897C15.1228 18.8695 15.124 18.8093 15.1277 18.7754C15.1313 18.7415 15.1466 18.6877 15.1466 18.6877C15.1466 18.6877 15.1485 18.6766 15.1956 18.5837C15.244 18.4902 15.4185 18.2728 15.544 18.0647C15.626 17.9292 15.6603 17.8473 15.743 17.7112C15.8195 17.5867 15.9493 17.3962 15.9493 17.3962C15.9493 17.3962 16.0044 17.2992 16.0301 17.2635C16.0564 17.2261 16.1115 17.1566 16.163 17.087C16.215 17.0186 16.2279 16.9672 16.2952 16.9105C16.3421 16.8665 16.3998 16.8344 16.463 16.817C16.5719 16.7843 16.6466 16.8018 16.7581 16.8299C16.8732 16.8585 16.9528 16.9059 17.0287 16.9625C17.104 17.0198 17.1597 17.0829 17.1597 17.0829L17.1964 17.132L17.2197 17.1437L17.2895 17.1846L17.4499 17.281L17.8528 17.5283C17.873 17.5399 17.9415 17.5908 17.9544 17.5949C17.9691 17.599 18.0707 17.499 18.2691 17.3751C18.4999 17.2308 18.5813 17.2413 18.6579 17.2039C18.7326 17.1665 18.7638 17.1355 18.8232 17.0818C18.9126 17.0011 18.9132 16.9579 19.0148 16.8451C19.1164 16.7323 19.2119 16.6698 19.2119 16.6698L19.4079 16.471C19.5897 16.2852 19.6705 16.1449 19.6705 16.1449L19.7703 15.9644C19.7703 15.9644 19.9148 15.6838 19.9607 15.5728C20.0079 15.4618 20.0079 15.4244 20.0079 15.4244C20.0079 15.4244 20.014 15.3951 19.9797 15.3385C19.943 15.2823 19.9062 15.3075 19.8371 15.3209C19.7048 15.346 19.624 15.3151 19.4905 15.294C19.3681 15.2753 19.3044 15.242 19.1813 15.2239C19.0571 15.2046 18.9842 15.1859 18.8593 15.197C18.8338 15.2 18.8087 15.2049 18.784 15.2116C18.7136 15.2327 18.694 15.2379 18.6419 15.2654C18.5895 15.2891 18.5322 15.3011 18.4742 15.3005C18.4277 15.3016 18.3995 15.3028 18.3566 15.2876C18.3153 15.2755 18.2793 15.2506 18.2544 15.2169C18.2532 15.2052 18.2489 15.2052 18.2617 15.1859C18.274 15.1666 18.2899 15.1631 18.2899 15.1631L18.3468 15.1503L18.435 15.1298L18.5526 15.0959C18.5862 15.086 18.6236 15.0685 18.6236 15.0685C18.6236 15.0685 18.6444 15.0386 18.6358 15.0217C18.6266 15.0018 18.5807 15.0001 18.5807 15.0001L18.5097 15.0235C18.5024 15.0246 18.4001 15.0538 18.4001 15.0538L18.2581 15.0831C18.2079 15.0921 18.1572 15.0985 18.1062 15.1023L18.0793 15.0959C18.0793 15.0959 18.0487 15.0772 18.0444 15.0579C18.04 15.0417 18.0363 15.0253 18.0334 15.0088C18.0199 14.937 18.004 14.8937 18.023 14.8236C18.0365 14.777 18.0582 14.7329 18.0873 14.6933L18.1362 14.6202L18.2293 14.4957C18.2566 14.4697 18.288 14.448 18.3224 14.4314C18.3737 14.4043 18.4309 14.3887 18.4895 14.3859C18.5624 14.3788 18.5722 14.3794 18.675 14.3584C18.7791 14.3373 18.8519 14.2999 18.8519 14.2999C18.8519 14.2999 19.0993 14.2181 19.2499 14.1515C19.4079 14.0814 19.4764 14.0072 19.6399 13.9493C19.7091 13.9247 19.7489 13.9131 19.8205 13.8967C19.8245 13.8947 19.828 13.8919 19.8308 13.8884C19.8335 13.885 19.8355 13.881 19.8364 13.8768C19.8432 13.8535 19.8034 13.8429 19.7758 13.8453C19.7513 13.847 19.695 13.871 19.6822 13.8453C19.6724 13.8254 19.7336 13.8143 19.7336 13.8143C19.7336 13.8143 19.7624 13.802 19.763 13.7874C19.7642 13.7652 19.7213 13.7798 19.703 13.7775C19.6068 13.7681 19.5989 13.7523 19.5328 13.7377C19.4544 13.7202 19.4122 13.698 19.3307 13.6951C19.269 13.6946 19.2075 13.7016 19.1477 13.7161C19.1036 13.726 19.1017 13.6869 19.1195 13.6787C19.245 13.6261 19.2481 13.6214 19.3362 13.6179C19.3852 13.6162 19.4526 13.6255 19.4605 13.629C19.4673 13.6325 19.5646 13.6285 19.5891 13.6057C19.6148 13.5823 19.5095 13.584 19.4605 13.5665C19.4146 13.5501 19.3442 13.5455 19.346 13.518C19.3485 13.4905 19.3828 13.5057 19.406 13.5005C19.4366 13.4935 19.4538 13.4946 19.485 13.4905C19.5407 13.4835 19.5456 13.4788 19.6283 13.473C19.6955 13.4717 19.7625 13.4798 19.8273 13.497C19.8273 13.497 19.9503 13.5466 20.0109 13.5729C20.0722 13.5981 20.145 13.6115 20.145 13.6115C20.145 13.6115 20.2307 13.6226 20.2962 13.5852C20.3624 13.5484 20.325 13.5244 20.3024 13.4905C20.2791 13.459 20.2503 13.4128 20.2926 13.3257C20.3305 13.2498 20.3501 13.1615 20.3605 13.1533C20.374 13.1434 20.426 13.2118 20.4597 13.2398C20.5803 13.3415 20.7401 13.3918 20.8907 13.6051C20.9024 13.6226 20.9581 13.5951 21.1326 13.6191C21.3071 13.6436 21.4601 13.8125 21.4987 13.8529C21.5385 13.8938 21.5905 13.8914 21.5905 13.8914L21.6738 13.902L21.9787 13.9066C21.9787 13.9066 22.1171 13.8844 22.1966 13.9113C22.2517 13.9306 22.4379 14.0428 22.3534 14.0855C22.294 14.1147 22.2383 14.0492 22.185 14.0463C22.1213 14.0428 22.0938 14.0533 22.0381 14.0662C21.9193 14.0931 21.6658 14.1626 21.7577 14.1901C21.7644 14.193 21.7779 14.1948 21.7779 14.1948L21.8232 14.2018C21.8232 14.2018 21.9346 14.2251 22.0019 14.2485C22.1036 14.2853 22.1519 14.3251 22.2456 14.3748C22.2989 14.4028 22.3222 14.4309 22.3803 14.4466C22.4342 14.4607 22.4691 14.4466 22.5236 14.4554C22.5958 14.4671 22.6368 14.4799 22.703 14.5086C22.8009 14.5512 22.8371 14.6027 22.9246 14.6605C22.9687 14.6892 23.006 14.6933 23.0391 14.7324C23.0464 14.7412 23.0526 14.7459 23.0562 14.7558C23.0685 14.7909 22.9913 14.7704 22.9509 14.7646C22.9062 14.7575 22.8879 14.7377 22.8468 14.7207C22.7856 14.6944 22.7562 14.6658 22.6895 14.6553C22.6417 14.6465 22.6124 14.6535 22.5634 14.6553C22.5144 14.6576 22.4899 14.664 22.4409 14.6646C22.3709 14.6661 22.301 14.6592 22.2328 14.6442C22.1428 14.6266 22.0981 14.5957 22.0087 14.5787C21.9077 14.5594 21.7289 14.4811 21.746 14.5594C21.7552 14.5974 21.8501 14.629 21.8501 14.629C21.8501 14.629 21.915 14.6605 21.9768 14.6857C22.0393 14.7096 22.0736 14.747 22.0736 14.747L22.1164 14.7757C22.1164 14.7757 22.1599 14.83 22.2181 14.8925C22.2744 14.9527 22.3748 14.951 22.3748 14.951C22.3748 14.951 22.4348 14.951 22.5658 14.9755C22.6956 14.9995 22.8297 15.0725 22.8297 15.0725C22.8297 15.0725 22.9307 15.1351 22.9901 15.1982C23.0489 15.2613 23.0146 15.2929 23.0073 15.2993C23.0005 15.3063 23.003 15.3034 22.995 15.3063C22.9883 15.3098 22.9154 15.2268 22.9154 15.2268L22.8628 15.1865C22.8628 15.1865 22.8119 15.1544 22.7464 15.1351C22.6797 15.1164 22.6577 15.1292 22.6577 15.1292C22.6577 15.1292 22.5175 15.1643 22.395 15.1614C22.3304 15.1624 22.2668 15.1462 22.2113 15.1146L22.1336 15.0679C22.1336 15.0679 22.0185 14.9697 22.0142 15.0159C22.0111 15.0474 22.065 15.0825 22.065 15.0825C22.065 15.0825 22.1017 15.1164 22.1268 15.1374C22.174 15.1795 22.193 15.1999 22.2468 15.2432C22.3001 15.287 22.3332 15.287 22.3332 15.287C22.3565 15.2924 22.38 15.2973 22.4036 15.3016C22.4036 15.3016 22.4219 15.3075 22.5052 15.3385C22.5885 15.3688 22.6785 15.4355 22.6785 15.4355C22.6785 15.4355 22.6871 15.4413 22.6993 15.4436C22.7115 15.4448 22.736 15.4559 22.7434 15.4577C22.7507 15.4594 22.7722 15.4594 22.8205 15.4659C22.8695 15.4717 22.8505 15.5003 22.8505 15.5003L22.8426 15.5109L22.8022 15.5348C22.8022 15.5348 22.7507 15.5483 22.7158 15.55C22.6861 15.5491 22.6567 15.5436 22.6289 15.5336L22.5211 15.4968C22.5211 15.4968 22.4115 15.4711 22.3883 15.4676C22.3424 15.4602 22.2967 15.4522 22.2511 15.4436C22.2245 15.4368 22.1985 15.428 22.1734 15.4173C22.1599 15.4115 22.136 15.4068 22.0766 15.3805C22.0185 15.3542 21.9952 15.3244 21.9224 15.3034C21.8489 15.2823 21.8036 15.2777 21.7485 15.3122C21.6536 15.3718 21.8917 15.3811 22.0099 15.4349C22.185 15.5126 22.283 15.5693 22.3246 15.6535C22.3435 15.697 22.3722 15.7361 22.4085 15.768C22.4085 15.768 22.5309 15.8241 22.586 15.8831C22.6166 15.9147 22.6209 15.941 22.6509 15.9725C22.7183 16.0438 22.8493 16.0397 22.875 16.1005C22.8995 16.1572 22.7691 16.1315 22.7011 16.1262C22.5787 16.1151 22.5493 16.014 22.4348 15.9731C22.3705 15.9497 22.3295 15.9498 22.2634 15.9293C22.1428 15.8936 22.0864 15.8463 21.9658 15.8124C21.893 15.7925 21.7613 15.7055 21.7779 15.7727C21.7803 15.7885 21.7913 15.8013 21.7962 15.8107C21.8024 15.8206 21.833 15.8557 21.833 15.8557C21.833 15.8557 21.8734 15.9042 21.8917 15.917C21.9089 15.9305 21.9866 15.9831 22.0981 16.038C22.2083 16.0929 22.3044 16.1981 22.3044 16.1981C22.3044 16.1981 22.3375 16.2408 22.3534 16.2706C22.3699 16.3045 22.3583 16.3144 22.384 16.3612C22.4085 16.4079 22.4201 16.4167 22.4526 16.4453C22.534 16.5155 22.6191 16.5014 22.7219 16.54C22.7507 16.5505 22.7526 16.5546 22.7832 16.5838C22.8138 16.6131 22.7771 16.6248 22.7771 16.6248C22.7771 16.6248 22.6626 16.6516 22.5885 16.6464C22.4917 16.6394 22.4489 16.6125 22.3552 16.5704C22.2603 16.5283 22.2107 16.4529 22.2009 16.4477C22.193 16.443 22.1697 16.4208 22.1519 16.4091C22.1336 16.3974 22.0877 16.3892 22.0466 16.3787C22.0044 16.3688 21.9811 16.367 21.9389 16.3565C21.8819 16.3419 21.8226 16.3191 21.7962 16.3115C21.7693 16.3027 21.7081 16.2928 21.6634 16.3173C21.574 16.3647 21.8024 16.3968 21.8734 16.4658C21.9095 16.5009 21.9248 16.5242 21.9591 16.561C21.9854 16.5891 21.9958 16.6084 22.0289 16.6306C22.0503 16.6452 22.0913 16.661 22.0913 16.661C22.0913 16.661 22.1464 16.6844 22.226 16.7241C22.3068 16.7638 22.4011 16.8778 22.4011 16.8778L22.4581 16.9567L22.4917 17.0017L22.5009 17.0222L22.5132 17.0479C22.5132 17.0479 22.5548 17.0964 22.5848 17.1122C22.6154 17.1285 22.6093 17.1431 22.6093 17.1431C22.6093 17.1431 22.6062 17.1531 22.5848 17.1636C22.564 17.1753 22.5524 17.1659 22.5224 17.1577C22.4917 17.1496 22.4722 17.1238 22.4458 17.1051C22.4183 17.0847 22.3895 17.0368 22.3405 17.0093C22.2977 16.9859 22.2407 16.9772 22.2193 16.9713C22.1979 16.9643 22.144 16.9333 22.1226 16.9246C22.0971 16.9149 22.0718 16.905 22.0466 16.8948C22.0466 16.8948 21.9389 16.8404 21.8801 16.8258C21.8207 16.8112 21.8587 16.8433 21.8587 16.8433C21.8587 16.8433 21.9113 16.9181 21.9628 16.9485C22.0283 16.9877 22.1213 17.0227 22.0913 17.0543C22.0705 17.0753 22.0424 17.0677 22.013 17.0648C21.9634 17.059 21.9028 17.0064 21.9028 17.0064C21.9028 17.0064 21.8783 16.9912 21.7681 16.9596C21.6579 16.9269 21.6983 16.9818 21.724 17.011C21.7485 17.0403 21.7822 17.056 21.7822 17.056L21.8575 17.087L21.8917 17.0964C21.8917 17.0964 21.9224 17.1016 22.0215 17.1227C22.1213 17.1431 22.1764 17.187 22.1764 17.187C22.1764 17.187 22.2303 17.232 22.3044 17.2816C22.3612 17.3191 22.4268 17.3426 22.4954 17.35C22.5371 17.3547 22.5352 17.3804 22.5352 17.3804C22.5352 17.3804 22.5413 17.4044 22.5383 17.4125C22.5371 17.4201 22.5279 17.4272 22.5187 17.4272C22.5107 17.4272 22.5064 17.4301 22.4954 17.4353C22.478 17.4405 22.4602 17.4444 22.4422 17.447C22.4422 17.447 22.3307 17.4435 22.2426 17.4236C22.1556 17.4044 22.0785 17.35 22.0705 17.3465C22.0638 17.3436 21.9824 17.3027 21.926 17.2869C21.8765 17.2756 21.8251 17.2736 21.7748 17.281C21.7656 17.2834 21.7356 17.2881 21.6842 17.3015C21.6315 17.3138 21.6971 17.3319 21.6971 17.3319L21.7338 17.3354L21.8232 17.3412C21.8232 17.3412 21.915 17.3512 21.9928 17.3769C22.0705 17.4026 22.1213 17.454 22.1728 17.5014C22.2248 17.5481 22.2817 17.5785 22.2817 17.5785L22.3228 17.6025L22.3442 17.6171L22.3503 17.6299L22.3442 17.6446C22.3405 17.6527 22.3277 17.6592 22.3277 17.6592C22.3277 17.6592 22.3087 17.6557 22.3001 17.6557C22.2903 17.6557 22.2328 17.6282 22.1887 17.6107C22.144 17.5931 22.1213 17.5762 22.0736 17.5657C22.0379 17.5574 22.0012 17.5543 21.9646 17.5563C21.9524 17.5592 21.8617 17.5709 21.7913 17.575C21.7209 17.5803 21.6603 17.5809 21.5783 17.5721C21.4607 17.5592 21.3046 17.4751 21.2844 17.4985C21.244 17.5475 21.3677 17.5616 21.4283 17.5931C21.5109 17.6364 21.6536 17.6749 21.6536 17.6749C21.6536 17.6749 21.7583 17.696 21.8195 17.7217C21.9542 17.7784 21.994 17.862 22.1024 17.9496C22.1611 17.9987 22.2095 18.0197 22.2891 18.0303C22.3583 18.039 22.3564 18.032 22.4654 18.0127C22.5744 17.9929 22.6405 17.8994 22.6724 17.9338C22.6785 17.9397 22.676 17.9461 22.6742 17.956C22.6714 17.9655 22.6677 17.9747 22.6632 17.9835C22.6632 17.9835 22.6509 17.9993 22.6319 18.0174C22.6117 18.0349 22.5371 18.0718 22.4973 18.0864C22.415 18.1132 22.3282 18.1253 22.2413 18.122C22.1201 18.1191 21.9493 18.0349 21.9493 18.0349L21.8268 17.9882C21.8268 17.9882 21.7705 17.9648 21.7319 17.9514C21.6303 17.9163 21.566 17.9198 21.4613 17.8947C21.3964 17.8789 21.3542 17.8625 21.296 17.8514C21.2366 17.8397 21.2703 17.8614 21.2758 17.869C21.3028 17.9023 21.3401 17.9134 21.3873 17.9333C21.4485 17.9601 21.492 17.9549 21.5556 17.9788C21.6266 18.0046 21.6885 18.0414 21.7271 18.0642C21.7662 18.0864 21.7944 18.1121 21.833 18.1477L21.9628 18.2483C21.9628 18.2483 21.9934 18.2705 21.9964 18.2798C21.9995 18.2897 22.0142 18.3137 22.0075 18.3529C21.9995 18.3914 21.9646 18.3646 21.9646 18.3646L21.9303 18.3447L21.896 18.3155L21.8415 18.2746C21.8415 18.2746 21.795 18.2366 21.7142 18.1998C21.6346 18.1623 21.5385 18.153 21.5385 18.153C21.5385 18.153 21.4528 18.1413 21.4558 18.1659C21.4601 18.1892 21.4791 18.1916 21.5464 18.2073C21.6144 18.2237 21.6591 18.2541 21.6591 18.2541C21.6591 18.2541 21.7289 18.3009 21.7791 18.3529C21.8281 18.4043 21.8428 18.4546 21.8428 18.4546C21.8428 18.4546 21.8685 18.4966 21.9322 18.5527C21.9964 18.6094 22.0301 18.5896 22.0264 18.617C22.0234 18.6445 21.9946 18.6492 21.9946 18.6492L21.9713 18.648C21.9652 18.648 21.9481 18.6398 21.9303 18.6334C21.9119 18.6275 21.8446 18.5849 21.8446 18.5849C21.8446 18.5849 21.7393 18.5072 21.7271 18.5001L21.6144 18.4242C21.6144 18.4242 21.5556 18.3897 21.5134 18.3704C21.47 18.3519 21.4257 18.3358 21.3805 18.3219C21.3508 18.3152 21.3204 18.3111 21.2899 18.3096C21.2899 18.3096 21.2189 18.2997 21.176 18.2851C21.1075 18.2617 21.0291 18.1962 21.0199 18.1927C20.9922 18.1829 20.9634 18.1759 20.9342 18.1717C20.9219 18.1729 20.8932 18.2816 20.8864 18.3435C20.8577 18.6053 20.9342 18.7795 21.0542 19.0197C21.2268 19.368 21.7075 19.8016 21.7075 19.8016C21.7075 19.8016 21.8287 19.8636 21.8789 19.901C22.0234 20.0027 22.2609 20.1464 22.4728 20.337C22.6522 20.5 22.8915 20.7893 22.8915 20.7893C22.8915 20.7893 23.0305 20.964 23.0954 21.0873C23.1738 21.2393 23.2368 21.4707 23.2368 21.4707C23.2368 21.4707 23.243 21.5105 23.2466 21.5192C23.2522 21.5274 23.265 21.5379 23.273 21.5379L23.3568 21.5403C23.3648 21.5403 23.4609 21.5344 23.524 21.5198C23.5864 21.5058 23.7352 21.4438 23.8338 21.3971C23.9317 21.3503 24.0493 21.2609 24.0493 21.2609C24.0493 21.2609 24.0719 21.2434 24.1864 21.1277C24.3015 21.012 24.3762 20.8384 24.4044 20.7729C24.4319 20.7081 24.4546 20.5824 24.4711 20.3685C24.4889 20.154 24.4564 19.9273 24.4564 19.9273C24.4564 19.9273 24.4136 19.6117 24.3866 19.5042C24.3609 19.3972 24.2979 19.2219 24.2979 19.2219C24.2979 19.2219 24.2538 19.0659 24.2397 18.9671C24.2297 18.8811 24.2242 18.7947 24.2232 18.7082C24.2232 18.7082 24.2232 18.61 24.2581 18.4283C24.2948 18.2477 24.4173 18.0659 24.4173 18.0659C24.4173 18.0659 24.4515 18.0046 24.5838 17.8614C24.7191 17.7153 24.7626 17.6919 24.896 17.6042C25.0019 17.5359 25.1385 17.4254 25.1838 17.4511C25.2328 17.4792 25.1348 17.5353 25.1024 17.5645C25.0191 17.6387 24.8636 17.7708 24.7375 17.9695C24.6273 18.1413 24.5862 18.2553 24.5593 18.3669C24.5311 18.4797 24.5434 18.6024 24.5471 18.6445C24.5507 18.6866 24.5764 18.6714 24.5764 18.6714C24.5764 18.6714 24.8434 18.4768 24.9885 18.3301C25.1464 18.1705 25.2866 17.8871 25.3417 17.8847C25.3785 17.883 25.3956 17.9584 25.3871 17.994C25.3528 18.1407 25.3411 18.1588 25.2879 18.257C25.2273 18.3686 25.1715 18.4183 25.0871 18.5218C24.9989 18.6299 24.956 18.6714 24.885 18.814C24.7828 19.0209 24.8422 19.1798 24.8422 19.1798C24.8422 19.1798 24.8544 19.2768 24.9034 19.2751C24.983 19.2727 25.1605 19.0705 25.2756 18.9057C25.3613 18.7848 25.392 18.6451 25.4471 18.5714C25.4985 18.5072 25.5432 18.6772 25.5211 18.7783C25.496 18.8975 25.4305 19.0057 25.2866 19.1746C25.1458 19.3399 25.1507 19.4977 25.1507 19.4977C25.1507 19.4977 25.136 19.5696 25.1244 19.7257C25.1134 19.8823 25.163 20.119 25.163 20.119C25.163 20.119 25.2071 20.3171 25.2156 20.4673C25.2242 20.6186 25.2187 20.9611 25.0626 21.2282C25.0007 21.3351 24.8679 21.4836 24.8679 21.4836C24.8679 21.4836 24.7656 21.5783 24.6817 21.6338C24.5973 21.6893 24.3958 21.7758 24.3958 21.7758C24.3958 21.7758 24.2562 21.819 24.2366 21.8225C24.2164 21.8278 24.2042 21.8436 24.2042 21.8436L24.2219 21.8775L24.266 21.9745C24.266 21.9745 24.3077 22.0972 24.3236 22.1954C24.3395 22.293 24.3211 22.3152 24.3058 22.39C24.2905 22.4613 24.2568 22.4286 24.2477 22.5688C24.2397 22.6933 24.3015 22.7559 24.2905 22.8949C24.2862 22.9557 24.2097 22.8178 24.1724 22.7594C24.094 22.6325 24.1124 22.4373 24.1111 22.3888C24.1084 22.2614 24.0639 22.1379 23.9838 22.0359C23.9428 21.9879 23.8993 21.961 23.8852 21.9657C23.8705 21.9704 23.8693 21.9955 23.8693 22.0084C23.8681 22.0218 23.8975 22.068 23.9036 22.0779C23.9109 22.0873 23.9624 22.1726 23.9624 22.1726C23.9624 22.1726 23.9856 22.2381 23.9942 22.3666C24.0034 22.4935 23.9599 22.6512 23.9599 22.6512C23.9599 22.6512 23.9036 22.8283 23.8442 22.9329C23.7781 23.0481 23.6317 23.2047 23.6317 23.2047C23.6317 23.2047 23.5264 23.2918 23.4475 23.4349C23.3697 23.5775 23.4364 23.6395 23.4077 23.6588C23.3771 23.6763 23.3158 23.5758 23.2987 23.508C23.2828 23.4449 23.2907 23.4145 23.3195 23.3444C23.3464 23.2754 23.4095 23.1766 23.4095 23.1766L23.5038 23.0317C23.5038 23.0317 23.6183 22.8353 23.6538 22.6922C23.6893 22.5501 23.6483 22.3923 23.6483 22.3923C23.6483 22.3923 23.6434 22.3397 23.6042 22.3427C23.5644 22.3444 23.5368 22.3754 23.5203 22.4134C23.4879 22.4917 23.5344 22.4777 23.4848 22.608C23.4462 22.7109 23.4352 22.6968 23.4144 22.7582C23.3899 22.8307 23.3764 22.9055 23.3777 22.951C23.3801 22.9955 23.3532 22.9768 23.3532 22.9768C23.3532 22.9768 23.3042 22.8961 23.3042 22.7956C23.3042 22.7407 23.3073 22.7097 23.314 22.6553C23.325 22.5677 23.3648 22.4333 23.3648 22.4333C23.3648 22.4333 23.4077 22.3006 23.3985 22.1796C23.3887 22.0581 23.3415 22.0359 23.3415 22.0359C23.3415 22.0359 23.3293 22.0195 23.2773 22.0218C23.2252 22.0253 23.2283 22.1095 23.2283 22.1095C23.2283 22.1095 23.2124 22.2293 23.1915 22.3041C23.1346 22.5098 23.0581 22.6179 22.9234 22.7915C22.8009 22.9481 22.6356 23.0866 22.5524 23.1509C22.4697 23.217 22.2156 23.3847 22.2156 23.3847L21.9168 23.5641C21.9168 23.5641 21.7981 23.6681 21.7448 23.7926C21.6951 23.898 21.6877 24.0172 21.724 24.1275C21.7558 24.242 21.8011 24.294 21.825 24.3262C21.8483 24.3572 21.8948 24.4138 21.9095 24.4793C21.9193 24.5196 21.9126 24.5436 21.9156 24.5845C21.9181 24.6213 21.9236 24.6406 21.9217 24.678C21.9205 24.7347 21.9328 24.775 21.896 24.8218C21.8697 24.8568 21.7981 24.8884 21.7981 24.8884C21.7981 24.8884 21.7173 24.9205 21.6695 24.9474C21.1613 25.2238 20.9813 25.4038 20.6954 25.7124C20.6042 25.8112 20.6709 25.8047 20.5742 25.9216C20.5154 25.9918 20.3795 25.9918 20.3305 26.0747C20.2619 26.1887 20.4842 26.3003 20.2277 26.4009C19.8964 26.5294 19.3264 26.4371 19.3154 26.3968C19.2848 26.2857 19.4268 26.1583 19.4771 26.1069C19.7091 25.8784 19.916 25.8731 19.9919 25.6832C20.0085 25.6423 20.0017 25.6078 20.1866 25.4845C20.3164 25.3974 20.8344 25.045 21.0603 24.8101C21.1381 24.7294 21.2048 24.6757 21.2385 24.5886C21.2728 24.5003 21.2048 24.4448 21.2048 24.4448L21.1117 24.3081L20.9342 24.0205C20.9342 24.0205 20.8589 23.8674 20.8179 23.7792C20.7737 23.672 20.7338 23.5632 20.6985 23.4531C20.6985 23.4531 20.6415 23.2392 20.6317 23.1001C20.6146 22.8499 20.6526 22.7044 20.7254 22.4619C20.8197 22.1475 21.0334 22.0154 21.1191 21.7033C21.1436 21.6127 21.1491 21.4573 21.0983 21.4649C21.0499 21.4725 21.0462 21.5952 21.0089 21.677C20.8711 21.9868 20.6899 22.1223 20.5901 22.4432C20.5228 22.6606 20.4958 22.7892 20.4964 23.0142C20.4971 23.1427 20.4915 23.1194 20.5283 23.3426C20.5424 23.4244 20.565 23.4688 20.5913 23.5489C20.6103 23.6062 20.6624 23.7125 20.6624 23.7125C20.6624 23.7125 20.7328 23.854 20.7579 23.9533C20.7652 23.9872 20.775 24.0065 20.7719 24.041C20.7677 24.0994 20.7793 24.1123 20.7475 24.1655C20.7083 24.2321 20.7322 24.2712 20.6066 24.2964C20.4958 24.3174 20.2681 24.2502 20.2681 24.2502C20.2681 24.2502 19.3326 23.9942 18.735 24.0679C18.6168 24.0825 18.5532 24.1216 18.4344 24.1199C18.326 24.1187 18.2709 24.0422 18.1626 24.0714C18.1405 24.0772 18.1338 24.0912 18.1136 24.1029C17.9556 24.2023 18.0768 24.3677 17.6599 24.2818C17.404 24.2292 17.0942 24.0872 17.1475 23.9983C17.2197 23.8803 17.3158 23.861 17.5179 23.7856C17.7346 23.7061 18.0591 23.7283 18.1228 23.7248C18.2011 23.719 18.3132 23.6699 18.4528 23.667C18.694 23.6634 18.7375 23.6892 18.7375 23.6892L19.1471 23.7225L19.9313 23.7312C19.9313 23.7312 20.0722 23.7219 20.1273 23.712C20.1836 23.702 20.2283 23.6015 20.2589 23.5542C20.2895 23.5068 20.2577 23.4373 20.2577 23.4373L20.2344 23.404L20.1597 23.2953L20.0219 23.0849L19.8689 22.809C19.8689 22.809 19.7685 22.6168 19.7158 22.4905C19.6626 22.3649 19.6313 22.2942 19.5964 22.1638C19.5618 22.0499 19.5403 21.9327 19.5322 21.8144C19.526 21.6601 19.5156 21.5403 19.5634 21.414Z" fill="black"/>
<path d="M24.6553 21.1567C24.8206 20.9656 24.8359 20.7879 24.8457 20.5372C24.8531 20.3549 24.7772 20.0743 24.7772 20.0743L24.7668 20.0539C24.7668 20.0539 24.738 20.02 24.7202 20.0644C24.7227 20.1041 24.7282 20.1357 24.7282 20.1357L24.738 20.4975C24.738 20.4975 24.7257 20.6792 24.6566 20.8674C24.5408 21.1847 24.2341 21.3256 24.19 21.4401C24.1135 21.6295 24.4582 21.3875 24.6553 21.1573V21.1567ZM22.9245 21.7423C22.9245 21.7423 22.8572 21.7598 22.8559 21.82C22.8547 21.8802 22.8725 21.9322 22.87 22.0053C22.8688 22.0982 22.7751 22.2045 22.8351 22.2396C22.9392 22.2992 23.028 21.879 22.9968 21.8171C22.9649 21.7545 22.9343 21.7411 22.9245 21.7423ZM21.7594 24.6567C21.7594 24.6567 21.7404 24.6474 21.7025 24.6603C21.6657 24.6731 21.6682 24.7082 21.6682 24.7082C21.6682 24.7082 21.6608 24.7456 21.6908 24.7491C21.7215 24.7543 21.7704 24.6871 21.7704 24.6795C21.7704 24.6719 21.7594 24.6562 21.7594 24.6562V24.6567ZM20.6635 25.361C20.6635 25.361 20.6525 25.3709 20.6623 25.3779C20.6727 25.3861 20.6868 25.3762 20.6868 25.3762C20.6868 25.3762 20.8766 25.2423 20.988 25.1482C21.1061 25.0477 21.277 24.8741 21.277 24.8741C21.277 24.8741 21.2892 24.8613 21.2757 24.8502C21.2617 24.8385 21.2298 24.856 21.2023 24.8677C21.1796 24.8788 21.1655 24.8905 21.1472 24.9034L21.0749 24.9694L20.9292 25.098L20.8374 25.1757L20.7474 25.2528L20.7106 25.2914L20.6984 25.3101L20.6855 25.3253C20.6855 25.3253 20.6715 25.337 20.6715 25.3411C20.6715 25.344 20.6678 25.3469 20.6678 25.351L20.6635 25.361ZM20.3366 25.555C20.3366 25.555 20.3164 25.5404 20.2845 25.555C20.2575 25.5705 20.2339 25.5907 20.2147 25.6146C20.2117 25.6204 20.1939 25.6409 20.2061 25.6596C20.2184 25.6783 20.2594 25.6508 20.2655 25.6497C20.2717 25.6497 20.3243 25.6111 20.3243 25.6111C20.3243 25.6111 20.3549 25.5936 20.3366 25.555ZM19.7102 26.1283C19.7102 26.1283 19.6833 26.0833 19.6484 26.1026C19.6129 26.1213 19.5933 26.1271 19.5615 26.1675C19.5559 26.1745 19.521 26.2148 19.5149 26.2259C19.5088 26.2358 19.4739 26.296 19.5443 26.3001C19.6655 26.306 19.5859 26.2358 19.6276 26.2084C19.6619 26.1873 19.7249 26.1926 19.7255 26.1704C19.7261 26.1476 19.7102 26.1283 19.7102 26.1283ZM17.5649 23.8374C17.5649 23.8374 17.4921 23.8538 17.4866 23.8766C17.4804 23.8999 17.5294 23.9221 17.5368 23.9233C17.5453 23.9251 17.5612 23.9426 17.6102 23.9122C17.658 23.883 17.6555 23.8584 17.6555 23.8584C17.6555 23.8584 17.6843 23.828 17.5649 23.8374ZM18.7447 23.8029C18.7447 23.8029 18.7435 23.7784 18.6927 23.7819C18.6406 23.7842 18.6296 23.793 18.6278 23.8006C18.6266 23.807 18.6308 23.8193 18.6768 23.8228C18.7239 23.8251 18.7435 23.8228 18.7447 23.8029ZM19.8608 23.8321C19.7666 23.8316 19.7966 23.8339 19.7384 23.8362C19.6337 23.8415 19.5768 23.8374 19.4733 23.8316C19.3276 23.8228 19.1035 23.7906 19.1035 23.7906C19.1035 23.7906 19.0753 23.7842 19.0637 23.8012C19.0533 23.8164 19.0912 23.8526 19.1249 23.8619C19.3086 23.9134 19.319 23.9046 19.4439 23.9064C19.5137 23.9075 19.5529 23.9005 19.6221 23.897C19.7102 23.8912 19.7506 23.9034 19.8474 23.8806C19.8719 23.8748 19.897 23.8327 19.8608 23.8321ZM20.489 23.6638C20.489 23.6638 20.47 23.6434 20.4315 23.6609C20.3929 23.6778 20.3696 23.7158 20.3696 23.7158C20.3696 23.7158 20.3512 23.7416 20.3898 23.738C20.418 23.7342 20.4453 23.7259 20.4706 23.7135C20.4804 23.7082 20.5086 23.6843 20.489 23.6638ZM19.9417 16.8419C19.9417 16.8419 20.2068 16.6169 20.3972 16.3201C20.5098 16.143 20.5588 15.7298 20.4621 15.8327C20.4186 15.8794 20.3653 16.0939 20.2815 16.2523C20.1621 16.4778 19.9061 16.7975 19.9061 16.7975C19.9061 16.7975 19.851 16.9039 19.9417 16.8419ZM18.8806 17.4135C18.8806 17.4135 18.8525 17.4334 18.8653 17.4649C18.8788 17.4971 18.9327 17.4731 18.9327 17.4731C18.9327 17.4731 19.0551 17.431 19.1837 17.4264C19.3129 17.4217 19.4917 17.4562 19.4917 17.4562C19.4917 17.4562 19.5774 17.4778 19.5915 17.4825C19.6055 17.4883 19.6521 17.5082 19.66 17.5105C19.6661 17.5134 19.7108 17.5327 19.7359 17.5129C19.7604 17.4918 19.5804 17.3445 19.3974 17.3223C19.0912 17.2843 18.8904 17.4036 18.8904 17.4036L18.8806 17.4135ZM17.6212 18.3866C17.6433 18.4035 17.7455 18.2276 17.8306 18.116C17.8931 18.0341 18.007 17.8986 18.007 17.8986C18.007 17.8986 18.059 17.836 17.9715 17.8711C17.885 17.9185 17.8151 17.9893 17.7706 18.0745C17.7131 18.1797 17.5992 18.3702 17.6212 18.3866ZM16.9153 17.6221C16.9153 17.6221 16.8933 17.6899 16.9815 17.7753C17.0696 17.8606 17.0923 17.9313 17.1486 17.8804C17.1645 17.8664 17.0935 17.7519 17.058 17.7191C17.0212 17.6876 16.9955 17.6613 16.9955 17.6613L16.9723 17.6443L16.9429 17.6297L16.9264 17.6239C16.9264 17.6239 16.9215 17.6198 16.9153 17.6221ZM16.6294 16.9693C16.6294 16.9693 16.5339 16.9851 16.5106 17.0278C16.4861 17.0693 16.6208 17.0441 16.6208 17.0441C16.6208 17.0441 16.709 17.0482 16.7115 17.0179C16.7133 16.9869 16.6998 16.9834 16.6294 16.9693ZM15.111 19.2451C15.0621 19.2322 15.0535 19.3193 15.0468 19.3473C15.0406 19.3754 15.0688 19.4315 15.0804 19.4315C15.0915 19.4309 15.1306 19.376 15.1325 19.3491C15.1349 19.3216 15.1539 19.2573 15.111 19.2451ZM16.6876 20.9404C16.6876 20.9404 16.6006 20.8773 16.5872 20.9025C16.5737 20.9276 16.6588 21.0369 16.6588 21.0369C16.6588 21.0369 16.6851 21.0737 16.7255 21.0573C16.7647 21.0398 16.7506 21.0001 16.7506 21.0001C16.7506 21.0001 16.7237 20.9486 16.6876 20.9404ZM16.0288 19.1071C16.0288 19.1071 16.0068 19.1013 15.9982 19.1258C15.9902 19.1504 15.9915 19.1901 15.9853 19.2375C15.9848 19.2832 15.9883 19.329 15.9957 19.3742C15.9957 19.3742 16.0043 19.4531 16.0221 19.5004C16.0404 19.5519 16.0912 19.6249 16.0912 19.6249C16.0912 19.6249 16.1096 19.6629 16.1335 19.6612C16.1561 19.6588 16.1506 19.6343 16.1506 19.6343C16.1506 19.6343 16.0772 19.3719 16.0753 19.345C16.0668 19.2573 16.0668 19.1516 16.0668 19.1516V19.1358C16.0668 19.1358 16.0655 19.1083 16.0288 19.1071ZM16.1433 18.3065C16.1433 18.3065 16.1029 18.2995 16.0655 18.3696C16.0288 18.4409 16.0361 18.469 16.0392 18.4725C16.0423 18.4754 16.0717 18.4748 16.1194 18.4093C16.1666 18.3439 16.1561 18.3193 16.1561 18.3193C16.1561 18.3193 16.1531 18.3065 16.1433 18.3065ZM17.2502 19.0317C17.2502 19.0317 17.2986 19.0972 17.2055 19.082C17.1125 19.0668 16.9166 18.9271 16.837 18.8891C16.758 18.8517 16.6288 18.8401 16.6827 18.7956C16.6931 18.7886 16.6955 18.7816 16.7108 18.781C16.7361 18.7848 16.7608 18.7917 16.7843 18.8015C16.7868 18.8027 16.9251 18.8541 16.93 18.8553C16.9349 18.857 17.0121 18.8868 17.0672 18.916C17.1223 18.9453 17.2117 19.0025 17.2117 19.0025L17.2502 19.0317ZM19.8296 21.0398C19.8547 21.1117 19.5357 20.8873 19.3643 20.768C18.9119 20.4525 18.3578 19.8067 18.427 19.7494C18.4839 19.7027 18.711 19.9984 19.0441 20.3245C19.4004 20.6722 19.8149 20.9966 19.8296 21.0398ZM21.1612 20.7301C21.0627 20.8259 21.0272 20.948 21.0841 21.0398C21.1398 21.1286 21.1576 20.9095 21.2188 20.8452C21.2727 20.7891 21.3057 20.7984 21.3939 20.7412C21.5439 20.6459 21.2868 20.6085 21.1612 20.7301ZM20.5949 18.6904C20.527 18.6805 20.5288 18.774 20.5386 18.8401C20.5839 19.1369 20.7308 19.3654 20.928 19.5805C21.0474 19.7114 21.3749 19.9452 21.4135 19.9078C21.427 19.8943 21.1012 19.6664 20.8931 19.3736C20.7461 19.1662 20.6678 18.9903 20.6494 18.819C20.647 18.7974 20.6525 18.6986 20.5943 18.6904H20.5949ZM19.3245 14.2945C19.1764 14.3669 18.9204 14.4306 18.9204 14.4306C18.9204 14.4306 18.9082 14.454 18.9412 14.4511C19.1617 14.4353 19.2449 14.4102 19.3619 14.3634C19.4788 14.3179 19.5639 14.191 19.5639 14.191C19.5639 14.191 19.611 14.1121 19.5235 14.177C19.46 14.2202 19.3935 14.2593 19.3245 14.2939V14.2945ZM21.1086 13.7849C21.1086 13.7849 21.0584 13.7749 21.0247 13.7936C20.991 13.8135 21.0002 13.8287 21.0002 13.8287C21.0002 13.8287 21.0529 13.8649 21.0902 13.8708C21.127 13.8754 21.2066 13.907 21.2041 13.8825C21.201 13.8579 21.1563 13.8135 21.1404 13.8006C21.1257 13.7884 21.1086 13.7849 21.1086 13.7849ZM20.2686 15.1781C20.2772 15.1933 20.4266 15.1565 20.4847 15.1273C20.5294 15.1039 20.5472 15.0273 20.5472 15.0273C20.5472 15.0273 20.5594 14.9525 20.541 14.9817C20.4553 15.108 20.26 15.1623 20.2686 15.1781ZM20.2637 14.8298C20.3243 14.7246 20.0978 14.9391 19.9821 14.9946C19.9117 15.0279 19.7966 15.0729 19.7966 15.0729C19.7966 15.0729 19.7659 15.1068 19.8088 15.1039C19.851 15.101 19.9588 15.1343 20.0457 15.0729C20.0666 15.0583 20.1572 14.9385 20.1572 14.9385C20.1572 14.9385 20.2349 14.8801 20.2637 14.8298ZM20.2288 15.2775C20.2337 15.2938 20.4878 15.2886 20.5515 15.271C20.6017 15.2588 20.6292 15.1781 20.6292 15.1781C20.6292 15.1781 20.6598 15.108 20.6335 15.1314C20.5184 15.2383 20.2245 15.2599 20.2294 15.2775H20.2288ZM16.147 17.3814C16.147 17.3814 16.1084 17.3685 16.0612 17.434C16.0135 17.4982 15.7998 17.7922 15.8378 17.8354C15.8825 17.8863 16.0674 17.5725 16.1237 17.514C16.1806 17.4556 16.1574 17.3954 16.1574 17.3954C16.1574 17.3954 16.1574 17.3819 16.147 17.3814ZM20.8061 22.6785C20.7829 22.7761 20.8104 22.976 20.8472 23.0151C20.9378 23.1139 20.8821 22.8603 20.8955 22.7714C20.903 22.701 20.9259 22.6329 20.9629 22.5716C21.0437 22.4126 20.8533 22.471 20.8061 22.6785ZM20.0261 14.1887C20.0261 14.1887 19.9557 14.1904 19.9006 14.2179C19.8449 14.2454 19.8308 14.2845 19.8308 14.2845C19.8308 14.2845 19.8198 14.312 19.8272 14.3272C19.8437 14.3605 19.9196 14.3103 19.9729 14.3272C20.0157 14.3406 20.0366 14.3523 20.0696 14.388C20.0984 14.419 20.1492 14.464 20.181 14.4382C20.2135 14.4137 20.2012 14.35 20.2012 14.35C20.2012 14.35 20.1645 14.246 20.1149 14.2167C20.0653 14.1869 20.0261 14.1887 20.0261 14.1887ZM18.8543 14.9192C18.8543 14.9192 18.8151 14.9251 18.8243 14.9683C18.8335 15.011 18.8592 15.004 18.8592 15.004C18.8592 15.004 18.9412 14.9724 18.9363 14.928C18.9302 14.8836 18.8543 14.9192 18.8543 14.9192ZM18.2831 14.6872C18.2831 14.6872 18.2402 14.689 18.2096 14.7369C18.1802 14.7848 18.1625 14.8351 18.1625 14.8351C18.1625 14.8351 18.1484 14.8976 18.1735 14.918C18.198 14.9373 18.2261 14.8771 18.2623 14.8538C18.2837 14.8391 18.2972 14.8333 18.3198 14.8187C18.3504 14.7994 18.4 14.824 18.3963 14.7679C18.3921 14.7117 18.3259 14.6849 18.2831 14.6872ZM20.1308 14.0853C20.1308 14.0853 20.0329 14.073 20.0372 14.1069C20.0408 14.1384 20.0898 14.1197 20.1217 14.132C20.1523 14.1449 20.1731 14.1495 20.1976 14.1706C20.2159 14.1852 20.2141 14.2138 20.2361 14.2144C20.2668 14.215 20.2606 14.2039 20.2606 14.2039C20.2606 14.2039 20.2331 14.1279 20.1964 14.1063C20.1596 14.0841 20.1308 14.0858 20.1308 14.0858V14.0853ZM21.2164 14.4406C21.2029 14.4885 21.1943 14.5049 21.1943 14.5049C21.1943 14.5049 21.1674 14.6019 21.2757 14.5662C21.3847 14.53 21.3278 14.5452 21.4061 14.5107C21.4833 14.4768 21.4821 14.4955 21.5384 14.4984C21.558 14.4984 21.5702 14.4996 21.5996 14.4943C21.6241 14.4897 21.6137 14.4634 21.5586 14.4499C21.4992 14.4359 21.427 14.4388 21.3431 14.4382C21.2941 14.4382 21.231 14.3927 21.2164 14.4406ZM21.2653 14.0806C21.2653 14.0806 21.2151 14.0701 21.1808 14.0893C21.1472 14.1086 21.1576 14.1244 21.1576 14.1244C21.1576 14.1244 21.209 14.1612 21.247 14.1659C21.2837 14.1717 21.3633 14.2033 21.3615 14.1776C21.3572 14.1542 21.3125 14.1086 21.2972 14.0964C21.2812 14.0847 21.2653 14.0806 21.2653 14.0806ZM21.4557 14.7562C21.4557 14.7562 21.4025 14.7468 21.3664 14.7649C21.3302 14.7825 21.34 14.7977 21.34 14.7977C21.34 14.7977 21.3963 14.8321 21.4361 14.8374C21.4766 14.8421 21.5617 14.8713 21.5586 14.8479C21.5549 14.8245 21.5066 14.7825 21.4912 14.7708C21.4747 14.7591 21.4557 14.7562 21.4557 14.7562ZM21.4723 15.001C21.4723 15.001 21.4153 14.9893 21.3768 15.011C21.3382 15.032 21.3498 15.0484 21.3498 15.0484C21.3498 15.0484 21.4086 15.0893 21.4515 15.0945C21.4931 15.1004 21.5843 15.1337 21.58 15.1074C21.5764 15.0805 21.5255 15.0314 21.5078 15.0186C21.4975 15.0101 21.4854 15.0041 21.4723 15.001ZM21.4974 15.2401C21.4974 15.2401 21.4361 15.2272 21.3945 15.2506C21.3529 15.2745 21.3657 15.2938 21.3657 15.2938C21.3657 15.2938 21.4294 15.3382 21.4747 15.3453C21.5206 15.3517 21.6192 15.3903 21.6155 15.3599C21.6106 15.3301 21.5555 15.2745 21.5366 15.2599C21.5253 15.2504 21.5119 15.2436 21.4974 15.2401ZM21.4919 15.5352C21.4919 15.5352 21.4306 15.5235 21.3896 15.5469C21.348 15.5703 21.359 15.589 21.359 15.589C21.359 15.589 21.4239 15.634 21.4692 15.6404C21.5151 15.6474 21.6137 15.6854 21.6094 15.6556C21.6045 15.6252 21.55 15.5697 21.5317 15.5551C21.5202 15.546 21.5062 15.5392 21.4919 15.5352ZM21.4478 16.1108C21.4478 16.1108 21.3859 16.0991 21.3443 16.1225C21.3033 16.1459 21.3155 16.1646 21.3155 16.1646C21.3155 16.1646 21.3786 16.2102 21.4245 16.2166C21.4704 16.2225 21.569 16.2616 21.5647 16.2312C21.5604 16.2014 21.5053 16.1459 21.4864 16.1307C21.468 16.1155 21.4478 16.1108 21.4478 16.1108ZM21.4888 15.8233C21.4888 15.8233 21.4184 15.8087 21.3694 15.8362C21.3217 15.8625 21.3363 15.8847 21.3363 15.8847C21.3363 15.8847 21.4098 15.9367 21.4625 15.9443C21.5145 15.9519 21.6284 15.9957 21.6247 15.9618C21.6186 15.9267 21.5555 15.8625 21.5341 15.8455C21.5121 15.828 21.4888 15.8233 21.4888 15.8233ZM21.4172 16.3715C21.4172 16.3715 21.3664 16.361 21.3315 16.3803C21.2978 16.3995 21.3088 16.4153 21.3088 16.4153C21.3088 16.4153 21.3608 16.4527 21.3982 16.4574C21.4361 16.4632 21.5164 16.4948 21.5139 16.4697C21.5096 16.4451 21.4649 16.3995 21.449 16.3879C21.4337 16.375 21.4172 16.3715 21.4172 16.3715ZM21.3694 16.621C21.3694 16.621 21.3278 16.6129 21.299 16.6286C21.2715 16.6444 21.2794 16.6578 21.2794 16.6578C21.2794 16.6578 21.3229 16.6882 21.3541 16.6929C21.3847 16.697 21.4533 16.7239 21.4502 16.7028C21.4478 16.6824 21.4092 16.6444 21.3964 16.6345C21.3885 16.6282 21.3793 16.6237 21.3694 16.621ZM21.3106 16.8484C21.3106 16.8484 21.2733 16.8408 21.247 16.8554C21.2225 16.8694 21.2286 16.8817 21.2286 16.8817C21.2286 16.8817 21.2684 16.9091 21.2966 16.9127C21.3247 16.9173 21.3853 16.9407 21.3823 16.9226C21.3804 16.9039 21.3468 16.8694 21.3351 16.8601C21.3229 16.8513 21.3106 16.8484 21.3106 16.8484ZM21.2512 17.0348C21.2512 17.0348 21.2127 17.0272 21.1882 17.0412C21.1619 17.0558 21.1698 17.0675 21.1698 17.0675C21.1698 17.0675 21.209 17.0956 21.2372 17.0991C21.2653 17.1032 21.3259 17.1271 21.3229 17.1084C21.321 17.0897 21.2874 17.0558 21.2745 17.0471C21.2635 17.0377 21.2512 17.0348 21.2512 17.0348ZM21.1784 17.2516C21.1784 17.2516 21.1478 17.2452 21.127 17.2563C21.1061 17.2686 21.1129 17.2773 21.1129 17.2773C21.1129 17.2773 21.1447 17.3001 21.1674 17.3036C21.19 17.3066 21.2396 17.3258 21.2366 17.3106C21.2347 17.296 21.2072 17.2686 21.198 17.261C21.1888 17.2534 21.1784 17.2516 21.1784 17.2516ZM21.0921 17.4538C21.0921 17.4538 21.0664 17.448 21.048 17.4585C21.0302 17.4684 21.0357 17.4766 21.0357 17.4766C21.0357 17.4766 21.0633 17.4959 21.0829 17.4982C21.1019 17.5017 21.1441 17.5181 21.1423 17.5047C21.141 17.4918 21.1172 17.4684 21.1092 17.462C21.1041 17.4583 21.0983 17.4555 21.0921 17.4538ZM21.0039 17.6461C21.0039 17.6461 20.977 17.6408 20.9592 17.6514C20.9421 17.6607 20.9482 17.6689 20.9482 17.6689C20.9482 17.6689 20.9745 17.6882 20.9941 17.6911C21.0143 17.694 21.0559 17.7104 21.0541 17.6981C21.0529 17.6841 21.0284 17.6607 21.021 17.6543C21.016 17.6504 21.0102 17.6476 21.0039 17.6461ZM15.247 18.6256C15.247 18.6256 15.2029 18.7033 15.2243 18.746C15.2463 18.7892 15.3064 18.6782 15.3064 18.6782C15.3064 18.6782 15.3676 18.5671 15.3431 18.5467C15.3174 18.5262 15.3027 18.5835 15.247 18.6256Z" fill="white"/>
<path d="M21.5064 28.7662V28.5879C21.5064 28.2449 21.6986 28.1777 22.2594 28.1753C22.7749 28.1777 22.9488 28.2361 22.9488 28.5318V29.6744H23.1472V29.935H21.8872C21.6221 29.935 21.4488 29.7667 21.4488 29.5639V29.3325C21.4488 29.1332 21.5615 28.959 21.9564 28.9573H22.4486V28.6096C22.4486 28.4284 22.4351 28.4062 22.2337 28.4062H22.2313C21.99 28.4062 21.9741 28.4354 21.9741 28.6096V28.7662H21.5064ZM22.0911 29.149C21.9919 29.149 21.9337 29.2209 21.9337 29.3103V29.5312C21.9337 29.62 21.9754 29.6907 22.0911 29.6925H22.2686C22.3666 29.6925 22.4462 29.665 22.4462 29.5312L22.4474 29.149H22.0911ZM25.9102 29.672V28.2063H25.1927V28.4436H25.3941V29.672H25.1933V29.9315H26.0988V29.672H25.9102ZM18.5707 28.585V28.1818H17.8672V28.4231H18.0509V29.6767H17.8672V29.9344H18.7464V29.6767H18.57V28.9941C18.57 28.9322 18.9129 28.4594 18.9129 28.5137V29.1683H19.4002V28.4319C19.4002 28.2636 19.279 28.1543 19.0562 28.1543C18.7929 28.1543 18.6845 28.4547 18.57 28.5844L18.5707 28.585ZM20.4092 28.585V28.1818H19.7064V28.4231H19.89V29.6767H19.7064V29.9344H20.5862V29.6767H20.4098V28.9941C20.4098 28.9322 20.7527 28.4594 20.7527 28.5137V29.1683H21.2394V28.4319C21.2394 28.2636 21.1182 28.1543 20.8966 28.1543C20.6327 28.1543 20.5243 28.4553 20.4092 28.585Z" fill="black"/>
<path d="M17.4512 29.3505H16.9583V29.4954C16.9583 29.6707 16.9259 29.6783 16.6852 29.6807H16.6822C16.4067 29.6824 16.422 29.6573 16.425 29.4954V29.1892H17.4512V28.5229C17.4512 28.2816 17.2497 28.1805 16.7183 28.1781H16.6418C16.0681 28.1811 15.915 28.2991 15.915 28.5977V29.5726C15.915 29.901 16.1293 29.9565 16.6522 29.97H16.7097C17.2797 29.9577 17.4512 29.922 17.4512 29.6158V29.3505ZM16.4305 28.5481C16.4305 28.4569 16.4612 28.4125 16.5757 28.4113H16.7924C16.8818 28.4113 16.9314 28.4476 16.9314 28.5118V29.0115H16.4305V28.5481ZM25.913 27.2822V27.6446H25.3877V27.2822H25.913Z" fill="black"/>
<path d="M24.0818 28.6053V28.1816H23.3777V28.4435H23.5614V29.6737H23.3777V29.9349H24.2581V29.6737H24.0812V29.0144C24.0812 28.9531 24.4951 28.4797 24.4951 28.534V29.1886H24.9824V28.4522C24.9824 28.2839 24.86 28.1752 24.6371 28.1752C24.3738 28.1752 24.1963 28.475 24.0818 28.6053ZM15.2863 29.209V28.9566H14.99V29.7309H15.4063V29.9922H14.0146V29.7309H14.3851V27.5955H14.0936V27.2822H24.9389V27.5961H14.99V28.6772H15.2863V28.3698H15.6016V29.209H15.2863Z" fill="black"/>
</g>
<circle cx="20" cy="20" r="19.5" stroke="black" stroke-opacity="0.05"/>
<defs>
<clipPath id="clip0_9_406226">
<rect width="16" height="24" fill="white" transform="translate(12.5 8)"/>
</clipPath>
</defs>
</svg>
