<svg width="40" height="40" viewBox="0 0 40 40" fill="none" xmlns="http://www.w3.org/2000/svg">
<circle cx="20" cy="20" r="20" fill="#F6F8FA"/>
<g clip-path="url(#clip0_9_392537)">
<path d="M35.3277 15H35.3877L35.5078 15.012H35.6158V15.018H35.5198H35.4238H35.4117V15.03H35.4177L35.4238 15.036H35.4298L35.5138 15.1921L35.5858 15.3421L35.6519 15.4982L35.7119 15.6603L35.7659 15.8284L35.8139 15.9964L35.8499 16.1705L35.88 16.3446L35.904 16.5247L35.916 16.7047V16.8908L35.922 17.0769V17.269L35.898 17.4611L35.8739 17.6532L35.8439 17.8452L35.8019 18.0433L35.7539 18.2414L35.6999 18.4395L35.6398 18.6436L35.5678 18.8477L35.4898 19.0518L35.4057 19.2559L35.3157 19.46L35.2137 19.664L35.1056 19.8741L34.9916 20.0842L34.8715 20.2943L34.7395 20.5044L34.6014 20.7145L34.4573 20.9246L34.3073 21.1407L33.2268 22.6113L32.9927 22.9415L32.7886 23.2536L32.6085 23.5537L32.4525 23.8479L32.3144 24.13L32.2003 24.4121L32.1043 24.6882L32.0323 24.9584L31.9903 25.1805L31.9662 25.4026L31.9542 25.6186V25.8347L31.9722 26.0268L32.0023 26.2189L32.0443 26.405L32.0983 26.5911L32.1523 26.7291L32.1823 26.8192L32.1943 26.9092V26.9752H32.0563L31.9903 26.8432L31.9302 26.7111L31.8762 26.5791L31.8282 26.447L31.7922 26.315L31.7622 26.1829L31.7381 26.0508L31.7201 25.9188L31.7081 25.8167L31.6961 25.6427V25.4686V25.2945L31.7081 25.1204L31.7261 24.9464L31.7501 24.7783L31.7802 24.6102L31.8162 24.4421L31.8762 24.214L31.9482 23.9919L32.0323 23.7698L32.1283 23.5477L32.2784 23.2356L32.4344 22.9415L32.6025 22.6654L32.7766 22.4072L33.5089 21.3808L33.9411 20.7685V20.7565V20.7445L33.8811 20.6365L33.8211 20.5344L33.0467 19.3219L33.0347 19.2979L33.0227 19.2559V19.2439L33.0047 19.2379H32.9927H32.9807L32.9687 19.2559L32.9327 19.3519L32.8666 19.532L31.9302 21.765L30.9698 24.04L30.9098 24.178V24.19H30.8918H30.3575V24.184L30.3755 24.1L30.4056 24.0219L30.6036 23.5477L30.8137 23.0735L30.8257 23.0315V22.9895V22.9415L30.8137 22.8814L30.7777 22.7554L30.7057 22.5813L30.6637 22.4913L30.0454 20.9486L29.4031 19.3279L29.3911 19.2739V19.2018H29.4091H29.9494H29.9614L29.9734 19.2138L30.0334 19.3339L30.0874 19.4539L31.1499 22.1731L31.1619 22.1851L31.1739 22.1731L32.3924 19.2138L32.3984 19.2018L33.4549 19.1778H33.5089L33.5569 19.2018L33.605 19.2379L33.647 19.2919L33.9411 19.7781L34.2472 20.2583H34.2532H34.2592L34.3253 20.1863L34.3853 20.1142L34.3973 20.1022L34.5414 19.8801L34.6854 19.646L34.9676 19.1538L35.0696 18.9617L35.1656 18.7696L35.2497 18.5776L35.3277 18.3915L35.3997 18.2054L35.4598 18.0253L35.5138 17.8452L35.5618 17.6652L35.5978 17.4911L35.6278 17.317L35.6519 17.1429L35.6639 16.9749V16.8068V16.6387L35.6519 16.4766L35.6338 16.3146L35.5798 16.0264L35.5078 15.7503L35.4658 15.6183L35.4177 15.4862L35.3637 15.3542L35.3037 15.2281L35.2917 15.1921V15.1561L35.2857 15.114V15.072V15.06H35.2677H35.2137V15.054H35.2737L35.3277 15.042V15Z" fill="#789F2B"/>
<path d="M8.28567 16.5723H7.80546C7.79883 16.5723 7.79346 16.5776 7.79346 16.5843V22.9651C7.79346 22.9717 7.79883 22.9771 7.80546 22.9771H8.28567C8.2923 22.9771 8.29768 22.9717 8.29768 22.9651V16.5843C8.29768 16.5776 8.2923 16.5723 8.28567 16.5723Z" fill="#7D1574"/>
<path d="M9.47431 19.7184H8.74199L8.72998 19.7064V19.1962L8.74199 19.1842H9.47431L9.48631 19.1782V17.9837L9.49231 17.9717H9.97853V19.1722L9.99053 19.1842H10.7229L10.7349 19.1902V19.7004L10.7289 19.7124H9.99653L9.98453 19.7244V22.9659L9.97853 22.9779H9.49231L9.48031 22.9719V19.7304L9.4683 19.7184H9.47431Z" fill="#7D1574"/>
<path d="M22.014 21.279L22.044 21.4411L22.08 21.5911L22.1281 21.7292L22.1821 21.8552L22.2601 21.9873L22.3562 22.1134L22.4702 22.2274L22.6023 22.3295L22.7463 22.4195L22.9024 22.4915L23.0585 22.5395L23.2205 22.5696L23.3886 22.5816H23.5567L23.7188 22.5636L23.8748 22.5275L24.0249 22.4795L24.163 22.4135L24.295 22.3355L24.4151 22.2454L24.5231 22.1374L24.6192 22.0173L24.6732 21.9393L24.7212 21.8492L24.7392 21.8132L24.7632 21.7832L24.7872 21.7652L24.8172 21.7532H24.8533L24.8893 21.7412H25.1414L25.3575 21.7592H25.3695V21.7772L25.3035 21.9393L25.2254 22.0953L25.1354 22.2394L25.0333 22.3775L24.9193 22.5035L24.7992 22.6176L24.6672 22.7196L24.5291 22.8097L24.361 22.8997L24.181 22.9717L23.9949 23.0258L23.8028 23.0618L23.6827 23.0738H23.5627L23.4486 23.0798H23.3346L23.2205 23.0618L23.1125 23.0438L23.0044 23.0198L22.8964 22.9897L22.7884 22.9537L22.6803 22.9117L22.5783 22.8637L22.4762 22.8097L22.3742 22.7496L22.2781 22.6836L22.1821 22.6116L22.086 22.5335L21.996 22.4495L21.912 22.3595L21.8339 22.2634L21.7619 22.1614L21.6959 22.0533L21.6418 21.9453L21.5938 21.8372L21.5518 21.7232L21.5218 21.6091L21.4918 21.4771L21.4738 21.339V21.201L21.4678 21.0569L21.4798 20.8528L21.5038 20.6667L21.5398 20.4926L21.5878 20.3366L21.6298 20.2345L21.6719 20.1385L21.7199 20.0485L21.7739 19.9584L21.8279 19.8744L21.888 19.7963L21.954 19.7183L22.02 19.6463L22.1461 19.5382L22.2781 19.4422L22.4222 19.3521L22.5783 19.2741L22.7043 19.2261L22.8304 19.1841L22.9564 19.1481L23.0885 19.118L23.2205 19.094L23.3526 19.082H23.4787H23.6047L23.7308 19.094L23.8568 19.112L23.9769 19.1361L24.0969 19.1661L24.211 19.2021L24.325 19.2501L24.4331 19.3041L24.5411 19.3642L24.5951 19.4002L24.6672 19.4542L24.7632 19.5322L24.8593 19.6163L24.9733 19.7183L25.0754 19.8384L25.1714 19.9824L25.2554 20.1385L25.3275 20.3126L25.3875 20.4987L25.4355 20.6967L25.4655 20.8948V21.0329V21.249V21.261H25.4475H21.996V21.279H22.014ZM24.1449 19.7183L24.0129 19.6643L23.8808 19.6223L23.7428 19.5923L23.6047 19.5742H23.4366L23.2626 19.5802L23.0885 19.6103L22.9144 19.6643L22.8064 19.7063L22.7043 19.7543L22.6083 19.8144L22.5242 19.8804L22.4342 19.9644L22.3562 20.0545L22.2841 20.1565L22.2181 20.2645L22.1581 20.3846L22.1041 20.5167L22.056 20.6607L22.014 20.8168V20.8288H22.026H24.9073V20.8168L24.8773 20.6727L24.8352 20.5347L24.7872 20.4026L24.7272 20.2766L24.6552 20.1625L24.5711 20.0545L24.4811 19.9584L24.379 19.8744L24.265 19.7963L24.1389 19.7303L24.1449 19.7183Z" fill="#789F2B"/>
<path d="M20.447 19.7122L20.465 19.2019V19.1899H20.483H20.9632L20.9692 19.1959V20.7386V22.2813L20.9572 22.5694L20.9272 22.8695L20.8912 23.0736L20.8371 23.2657L20.7651 23.4458L20.6751 23.6139L20.603 23.7219L20.525 23.824L20.435 23.926L20.3389 24.0221L20.2309 24.1121L20.1168 24.1901L20.0028 24.2562L19.8827 24.3042L19.7567 24.3462L19.6306 24.3822L19.5046 24.4062L19.3785 24.4242L19.1744 24.4422H18.9643L18.7542 24.4242L18.5381 24.3882L18.3941 24.3522L18.25 24.3042L18.112 24.2441L17.9799 24.1721L17.8538 24.0881L17.7398 23.998L17.6377 23.902L17.5477 23.8L17.4517 23.6619L17.3796 23.5298L17.3556 23.4698L17.3376 23.4038L17.3256 23.3438V23.2777V23.2657H17.3376H17.9019H17.9139L17.9199 23.2777L17.9679 23.3678L18.0399 23.4938L18.0999 23.5719L18.16 23.6319L18.226 23.6859L18.292 23.7339L18.3641 23.7819L18.4661 23.836L18.5742 23.878L18.6882 23.908L18.8083 23.932L18.9883 23.944H19.1684L19.3425 23.914L19.5106 23.872L19.6666 23.812L19.8167 23.7339L19.9488 23.6379L20.0088 23.5839L20.0688 23.5238L20.1408 23.4398L20.2069 23.3498L20.2609 23.2537L20.3089 23.1517L20.3509 23.0376L20.3869 22.9236L20.417 22.7975L20.435 22.6715V22.5394V22.4073V22.3953L20.417 22.4013L20.3269 22.4974L20.2369 22.5874L20.1408 22.6715L20.0448 22.7495L19.9488 22.8155L19.8467 22.8755L19.7447 22.9296L19.6366 22.9776L19.5526 23.0076L19.4325 23.0376L19.3065 23.0616L19.1744 23.0736H19.0364H18.8683L18.7062 23.0556L18.5501 23.0256L18.4001 22.9896L18.256 22.9416L18.118 22.8816L17.9859 22.8155L17.8598 22.7375L17.7698 22.6715L17.6858 22.5994L17.5657 22.4914L17.4757 22.4013L17.3976 22.3173L17.3316 22.2333L17.2476 22.0952L17.1875 21.9752L17.1335 21.8491L17.0915 21.723L17.0555 21.597L17.0315 21.4709L17.0135 21.3449L17.0015 21.2128V21.0808V20.9307L17.0195 20.7866L17.0435 20.6486L17.0735 20.5165L17.1155 20.3905L17.1635 20.2644L17.2176 20.1444L17.2836 20.0303L17.3856 19.8802L17.5057 19.7422L17.6377 19.6161L17.7878 19.4961L17.9199 19.412L18.0579 19.334L18.202 19.268L18.3521 19.2079L18.5081 19.1599L18.6702 19.1239L18.8323 19.0999L18.9943 19.0879H19.1504L19.3005 19.0999L19.4445 19.1239L19.5886 19.1599L19.7207 19.2079L19.8467 19.268L19.9668 19.34L20.0808 19.424L20.2429 19.5621L20.411 19.7302L20.429 19.7422V19.7242L20.447 19.7122ZM19.1324 22.5814L19.2765 22.5634L19.4145 22.5334L19.5526 22.4854L19.6846 22.4254L19.8107 22.3533L19.9247 22.2693L20.0328 22.1732L20.1288 22.0652L20.2129 21.9511L20.2909 21.8251L20.3509 21.693L20.399 21.555L20.435 21.4109L20.459 21.2668L20.471 21.1168V20.9667L20.447 20.8227L20.417 20.6786L20.3689 20.5405L20.3089 20.4085L20.2369 20.2824L20.1528 20.1624L20.0568 20.0483L19.9548 19.9463L19.8407 19.8562L19.7207 19.7782L19.5946 19.7122L19.4625 19.6581L19.3245 19.6221L19.1864 19.5981L19.0424 19.5861H18.8983L18.7542 19.6101L18.6162 19.6401L18.4781 19.6882L18.3461 19.7482L18.22 19.8202L18.1059 19.9042L17.9979 20.0003L17.9019 20.1083L17.8178 20.2224L17.7398 20.3484L17.6798 20.4805L17.6317 20.6186L17.5957 20.7626L17.5717 20.9067L17.5597 21.0568V21.2068L17.5837 21.3509L17.6137 21.4949L17.6618 21.633L17.7218 21.7651L17.7938 21.8911L17.8778 22.0112L17.9739 22.1252L18.0759 22.2273L18.19 22.3173L18.31 22.3953L18.4361 22.4614L18.5682 22.5154L18.7062 22.5514L18.8443 22.5754L18.9883 22.5874H19.1324V22.5814Z" fill="#789F2B"/>
<path d="M16.1312 19.724L16.1552 19.2078V19.1958H16.1732H16.6414H16.6534V19.2078V22.9654L16.6474 22.9774H16.1672H16.1552V22.9654L16.1312 22.4732V22.4612L16.1132 22.4672L16.0051 22.5753L15.8911 22.6713L15.771 22.7614L15.645 22.8394L15.5489 22.8874L15.4469 22.9294L15.3449 22.9654L15.2368 22.9955L15.1288 23.0195L15.0147 23.0375L14.9007 23.0495H14.7806L14.6606 23.0555H14.5405L14.4265 23.0435L14.3124 23.0255L14.1984 23.0015L14.0903 22.9774L13.9823 22.9474L13.8802 22.9114L13.7782 22.8694L13.6821 22.8214L13.5861 22.7674L13.496 22.7073L13.412 22.6473L13.328 22.5813L13.2499 22.5092L13.1779 22.4312L13.0879 22.3232L13.0038 22.2091L12.9318 22.0891L12.8658 21.963L12.8117 21.8309L12.7637 21.6929L12.7277 21.5488L12.7037 21.3988L12.6857 21.2427V21.0926L12.6797 20.9486L12.6917 20.8045L12.7097 20.6664L12.7397 20.5284L12.7817 20.3963L12.8298 20.2703L12.8898 20.1442L12.9618 20.0182L13.0759 19.8561L13.1959 19.712L13.328 19.58L13.472 19.4659L13.5621 19.4059L13.6521 19.3519L13.7482 19.3038L13.8502 19.2558L13.9522 19.2138L14.0603 19.1778L14.1683 19.1478L14.2824 19.1238L14.4805 19.0938H14.6786H14.8766L15.0747 19.1238L15.2728 19.1718L15.4649 19.2438L15.651 19.3279L15.8311 19.4299L15.8911 19.4779L15.9511 19.5319L16.0111 19.598L16.0952 19.694L16.1012 19.7V19.688L16.1312 19.724ZM14.5105 22.5933L14.6546 22.6053H14.7986L14.9427 22.5813L15.0807 22.5453L15.2188 22.4972L15.3509 22.4372L15.4769 22.3652L15.597 22.2811L15.705 22.1851L15.8011 22.0771L15.8911 21.957L15.9691 21.8309L16.0352 21.6989L16.0892 21.5608L16.1252 21.4168L16.1492 21.2727L16.1612 21.1226V20.9726L16.1372 20.8285L16.1072 20.6844L16.0592 20.5464L15.9991 20.4143L15.9271 20.2883L15.8431 20.1682L15.747 20.0602L15.645 19.9581L15.5309 19.8681L15.4109 19.7901L15.2848 19.724L15.1528 19.67L15.0147 19.634L14.8706 19.61L14.7266 19.598H14.5825L14.4385 19.622L14.3004 19.658L14.1623 19.706L14.0303 19.766L13.9042 19.8381L13.7842 19.9221L13.6761 20.0182L13.5801 20.1262L13.49 20.2463L13.412 20.3723L13.346 20.5044L13.292 20.6424L13.2559 20.7865L13.2319 20.9306L13.2199 21.0806V21.2307L13.2439 21.3747L13.2739 21.5188L13.322 21.6569L13.382 21.7889L13.454 21.915L13.5381 22.035L13.6341 22.1431L13.7361 22.2451L13.8502 22.3352L13.9703 22.4132L14.0963 22.4792L14.2284 22.5333L14.3664 22.5693L14.5105 22.5933Z" fill="#7D1574"/>
<path d="M26.5099 19.5495L26.624 19.4535L26.744 19.3694L26.8701 19.2974L27.0022 19.2374L27.1762 19.1774L27.3623 19.1353L27.4944 19.1173H27.6264L27.7585 19.1113L27.8905 19.1233L28.0106 19.1413L28.1306 19.1654L28.2507 19.2014L28.3708 19.2434L28.5088 19.3034L28.6289 19.3694L28.7369 19.4415L28.833 19.5195L28.923 19.6155L29.001 19.7236L29.0671 19.8436L29.1271 19.9817L29.1751 20.1318L29.2111 20.2878L29.2291 20.4499V20.612V22.977V22.995L29.2051 23.001H28.7429H28.7309V22.989L28.7129 20.696V20.6L28.7009 20.5099L28.6769 20.4199L28.6469 20.3299L28.6109 20.2338L28.5628 20.1318L28.4248 19.8917L28.4008 19.8617L28.3708 19.8316L28.2927 19.7776L28.2087 19.7356L28.1186 19.6996L28.0226 19.6696L27.9266 19.6456L27.8245 19.6276L27.7225 19.6155H27.6204H27.5184L27.4223 19.6276L27.3263 19.6456L27.2363 19.6696L27.1462 19.6996L27.0622 19.7356L26.9841 19.7776L26.9121 19.8256L26.8461 19.8797L26.7741 19.9517L26.714 20.0297L26.66 20.1138L26.618 20.1978L26.576 20.2998L26.546 20.4079L26.5279 20.5099L26.5159 20.63L26.5039 20.9001L26.4919 21.9146V22.941L26.4799 22.953H26.4679H26.0117V22.941V19.1774V19.1654H26.0237H26.4739H26.4859V19.1834L26.5039 19.5255L26.5099 19.5315V19.5495Z" fill="#789F2B"/>
<path d="M11.6836 19.5503H11.6896L11.7556 19.4723L11.8276 19.4003L11.9057 19.3402L11.9837 19.2862L12.1097 19.2262L12.2418 19.1842L12.3859 19.1602H12.5419H12.5539V19.1722V19.6884V19.7004H12.5359L12.4159 19.7184L12.3018 19.7424L12.1938 19.7784L12.0857 19.8204L12.0077 19.8625L11.9417 19.9165L11.9057 19.9525L11.8756 19.9945L11.8456 20.0425L11.8216 20.0906L11.7856 20.1746L11.7616 20.2586L11.7376 20.3787L11.7196 20.5107V20.6548L11.7076 20.8709V20.9009L11.6956 22.9658V22.9778H11.6836H11.1853H11.1733V22.9658V19.2142V19.2022H11.1913H11.6415H11.6536V19.2142L11.6776 19.5563L11.6836 19.5503Z" fill="#7D1574"/>
<path d="M4 21.5188V19.2017L4.006 19.1897H4.01801H4.49222H4.50422V19.2077L4.51623 21.3087V21.5008L4.53423 21.6448L4.55824 21.7769L4.59426 21.8969L4.67229 22.077L4.76834 22.2751L4.80435 22.3291L4.84037 22.3651L4.9124 22.4132L4.98443 22.4552L5.06847 22.4912L5.1525 22.5212L5.24254 22.5452L5.33859 22.5632L5.44063 22.5752H5.54267H5.64472L5.74676 22.5632L5.84881 22.5452L5.94485 22.5212L6.04089 22.4912L6.13093 22.4552L6.21497 22.4132L6.293 22.3651L6.33502 22.3351L6.42506 22.2571L6.50309 22.161L6.56912 22.047L6.62315 21.9209L6.66517 21.7769L6.69518 21.6208L6.71319 21.4467V21.2486L6.7372 19.1897V19.1777H6.7492H7.24742H7.25943V19.1897V22.9534H6.7492H6.7372V22.9414L6.71319 22.6172H6.70718L6.63515 22.6893L6.55712 22.7553L6.47308 22.8153L6.38904 22.8694L6.27499 22.9294L6.15494 22.9774L6.02288 23.0134L5.88482 23.0374L5.74676 23.0494H5.6087H5.47064H5.33258L5.19452 23.0254L5.05646 23.0014L4.98443 22.9834L4.87038 22.9474L4.75633 22.8994L4.64228 22.8393L4.53423 22.7733L4.44419 22.7013L4.36016 22.6172L4.28813 22.5212L4.2221 22.4071L4.16207 22.2811L4.11405 22.149L4.07803 22.011L4.05402 21.8669V21.8549L4.04202 21.8429L4.03001 21.8189L4.006 21.4947L4 21.5188Z" fill="#7D1574"/>
<path d="M36.0001 22.8997V22.9717L35.694 22.9897H35.4959H35.4839L35.4359 22.9717L35.3938 22.9357L35.3398 22.8636L35.2798 22.7616L35.2318 22.6776L34.5955 21.6691L34.5835 21.6391V21.6031V21.5611L34.6015 21.5191L34.6315 21.471L34.8476 21.1709H34.8536H34.8596L34.9377 21.2609L35.0157 21.369L35.4959 22.1313L35.9821 22.8877L36.0001 22.8997Z" fill="#647F1B"/>
</g>
<circle cx="20" cy="20" r="19.5" stroke="black" stroke-opacity="0.05"/>
<defs>
<clipPath id="clip0_9_392537">
<rect width="32" height="11.9752" fill="white" transform="translate(4 15)"/>
</clipPath>
</defs>
</svg>
