<svg width="40" height="40" viewBox="0 0 40 40" fill="none" xmlns="http://www.w3.org/2000/svg">
<circle cx="20" cy="20" r="20" fill="#0260AA"/>
<g clip-path="url(#clip0_9_404336)">
<path d="M9.82157 14.5713H6.42871V25.4284H9.82157V14.5713ZM19.3216 14.5713H15.9287V25.4284H19.3216V14.5713ZM11.1787 19.9999V14.5713H13.2972C14.7792 14.5713 15.2501 16.3532 15.2501 17.555C15.2501 18.756 14.4996 19.9999 13.2972 19.9999H11.1787ZM11.1787 25.4284V21.357H12.5359L15.2501 25.4284H11.1787ZM20.6787 18.6291V14.652C21.493 14.3983 23.431 14.652 23.393 16.7671C23.3611 18.4595 21.5704 18.714 20.6787 18.6291ZM20.6787 25.4284V19.9999H22.3751C22.6635 19.9999 24.1069 20.9756 24.0709 22.8417C24.0349 24.7078 22.9451 25.4284 22.3745 25.4284H20.6787ZM28.8216 25.4284V14.5713C27.4475 14.7579 24.7094 16.0954 24.7501 19.953C24.7915 23.8107 27.4821 25.2106 28.8216 25.4284ZM29.5001 14.5733H33.5716V17.2876L29.5001 14.5733ZM29.5001 25.4311H33.5716V22.0383L29.5001 25.4311Z" fill="#F6F8FD"/>
</g>
<circle cx="20" cy="20" r="19.5" stroke="black" stroke-opacity="0.05"/>
<defs>
<clipPath id="clip0_9_404336">
<rect width="28" height="12" fill="white" transform="translate(6 14)"/>
</clipPath>
</defs>
</svg>
