<svg width="40" height="40" viewBox="0 0 40 40" fill="none" xmlns="http://www.w3.org/2000/svg">
<circle cx="20" cy="20" r="20" fill="#EE2722"/>
<g clip-path="url(#clip0_9_409132)">
<path fill-rule="evenodd" clip-rule="evenodd" d="M15.9037 10.2973C14.3396 10.2973 13.0981 10.5862 12.2177 10.8735C14.0061 9.3447 16.6489 8.00488 19.9846 8.00488C25.4146 8.00488 28.6873 11.2684 28.6873 14.7747C28.6873 16.4925 28.085 18.1642 27.3106 19.1706C24.9475 13.5793 20.0661 10.2973 15.9037 10.2973ZM12.6847 20.8331C11.9119 21.841 11.3096 23.5127 11.3096 25.229C11.3096 28.7352 14.5915 31.9987 20.0123 31.9987C23.3465 31.9987 25.9892 30.6589 27.7792 29.1316C26.9065 29.419 25.6574 29.7063 24.1024 29.7063C19.9401 29.7063 15.0494 26.4167 12.6847 20.8331ZM19.1749 12.6804C18.1593 11.9076 16.4968 11.3053 14.779 11.3053C11.2743 11.3053 8.01074 14.5857 8.01074 20.0156C8.01074 23.3514 9.35056 25.9941 10.8778 27.7826C10.5905 26.9114 10.3032 25.6607 10.3032 24.1058C10.3032 19.9342 13.5836 15.0528 19.1749 12.6804ZM29.6937 15.8978C29.6937 20.0602 26.4118 24.9508 20.8297 27.3247C21.8361 28.0976 23.5078 28.6999 25.2256 28.6999C28.7227 28.6999 31.9862 25.4179 31.9862 19.988C31.9862 16.6538 30.6463 14.0018 29.1175 12.2133C29.4064 13.0845 29.6937 14.3337 29.6937 15.8978Z" fill="white"/>
</g>
<circle cx="20" cy="20" r="19.5" stroke="black" stroke-opacity="0.05"/>
<defs>
<clipPath id="clip0_9_409132">
<rect width="24" height="24" fill="white" transform="translate(8 8)"/>
</clipPath>
</defs>
</svg>
