<svg width="40" height="40" viewBox="0 0 40 40" fill="none" xmlns="http://www.w3.org/2000/svg">
<circle cx="20" cy="20" r="20" fill="#F6F8FA"/>
<g clip-path="url(#clip0_9_406001)">
<path d="M19.9997 9.52344C17.9284 9.5244 15.9039 10.1393 14.1819 11.2905C12.46 12.4417 11.118 14.0775 10.3255 15.9912C9.53299 17.9049 9.32553 20.0106 9.72936 22.0421C10.1332 24.0736 11.1302 25.9399 12.5943 27.405L10.5973 29.402C10.5091 29.4899 10.4489 29.6021 10.4246 29.7242C10.4002 29.8463 10.4126 29.973 10.4603 30.088C10.508 30.203 10.5888 30.3013 10.6925 30.3704C10.7961 30.4394 10.918 30.4761 11.0425 30.4758H19.9997C22.7781 30.4758 25.4428 29.3721 27.4074 27.4074C29.3721 25.4427 30.4759 22.7781 30.4759 19.9996C30.4759 17.2212 29.3721 14.5565 27.4074 12.5918C25.4428 10.6272 22.7781 9.52344 19.9997 9.52344Z" fill="#FF4500"/>
<path d="M25.5657 21.9642C25.8666 21.9642 26.1646 21.9049 26.4426 21.7897C26.7207 21.6746 26.9733 21.5058 27.1861 21.293C27.3989 21.0802 27.5677 20.8275 27.6829 20.5495C27.7981 20.2715 27.8573 19.9735 27.8573 19.6725C27.8573 19.3716 27.7981 19.0736 27.6829 18.7955C27.5677 18.5175 27.3989 18.2649 27.1861 18.0521C26.9733 17.8393 26.7207 17.6705 26.4426 17.5553C26.1646 17.4401 25.8666 17.3809 25.5657 17.3809C24.9579 17.3809 24.375 17.6223 23.9452 18.0521C23.5154 18.4818 23.274 19.0647 23.274 19.6725C23.274 20.2803 23.5154 20.8632 23.9452 21.293C24.375 21.7228 24.9579 21.9642 25.5657 21.9642ZM13.7799 21.9642C14.0809 21.9642 14.3789 21.9049 14.6569 21.7897C14.935 21.6746 15.1876 21.5058 15.4004 21.293C15.6132 21.0802 15.782 20.8275 15.8972 20.5495C16.0123 20.2715 16.0716 19.9735 16.0716 19.6725C16.0716 19.3716 16.0123 19.0736 15.8972 18.7955C15.782 18.5175 15.6132 18.2649 15.4004 18.0521C15.1876 17.8393 14.935 17.6705 14.6569 17.5553C14.3789 17.4401 14.0809 17.3809 13.7799 17.3809C13.1722 17.3809 12.5893 17.6223 12.1595 18.0521C11.7297 18.4818 11.4883 19.0647 11.4883 19.6725C11.4883 20.2803 11.7297 20.8632 12.1595 21.293C12.5893 21.7228 13.1722 21.9642 13.7799 21.9642Z" fill="#FFEBEF"/>
<path d="M20.0002 27.2028C23.9812 27.2028 27.2026 24.8587 27.2026 21.9647C27.2026 19.0706 23.9812 16.7266 20.0002 16.7266C16.0193 16.7266 12.7979 19.0706 12.7979 21.9647C12.7979 24.8587 16.0193 27.2028 20.0002 27.2028Z" fill="url(#paint0_linear_9_406001)"/>
<path d="M17.9443 21.5059C17.8984 22.3833 17.3092 22.7041 16.6282 22.7041C15.9407 22.7041 15.4169 22.2262 15.4562 21.3422C15.502 20.4649 16.0847 19.8887 16.7722 19.8887C17.4597 19.8887 17.9836 20.622 17.9443 21.4994V21.5059ZM22.0693 21.5059C22.1151 22.3833 22.6978 22.7041 23.3853 22.7041C24.0728 22.7041 24.5967 22.2262 24.5574 21.3422C24.5115 20.4649 23.9222 19.8887 23.2413 19.8887C22.5538 19.8887 22.03 20.622 22.0693 21.4994V21.5059Z" fill="#FF4500"/>
<path d="M17.2496 21.1134C17.4002 21.1134 17.5181 20.9759 17.5181 20.8122C17.5181 20.6485 17.4002 20.5176 17.2496 20.5176C17.099 20.5176 16.9746 20.6485 16.9746 20.8122C16.9746 20.9759 17.099 21.1069 17.2496 21.1069V21.1134ZM23.7056 21.1134C23.8562 21.1134 23.9806 20.9759 23.9806 20.8122C23.9806 20.6485 23.8562 20.5176 23.7056 20.5176C23.555 20.5176 23.4371 20.6485 23.4371 20.8122C23.4371 20.9759 23.555 21.1069 23.7056 21.1069V21.1134Z" fill="#FFC49C"/>
<path d="M20 23.2734C19.1422 23.2734 18.3172 23.3127 17.5577 23.3847C17.4268 23.3978 17.3482 23.5157 17.394 23.6336C17.6294 24.1222 18.0001 24.5331 18.462 24.8174C18.9239 25.1018 19.4577 25.2476 20 25.2377C20.5423 25.2476 21.0761 25.1018 21.538 24.8174C21.9999 24.5331 22.3705 24.1222 22.6059 23.6336C22.6518 23.5222 22.5732 23.3978 22.4422 23.3847C21.6827 23.3127 20.8577 23.2734 20 23.2734Z" fill="#0C181C"/>
<path d="M23.6008 16.0717C24.0349 16.0717 24.4513 15.8992 24.7582 15.5922C25.0652 15.2852 25.2377 14.8689 25.2377 14.4348C25.2377 14.0006 25.0652 13.5843 24.7582 13.2773C24.4513 12.9703 24.0349 12.7979 23.6008 12.7979C23.1666 12.7979 22.7503 12.9703 22.4433 13.2773C22.1363 13.5843 21.9639 14.0006 21.9639 14.4348C21.9639 14.8689 22.1363 15.2852 22.4433 15.5922C22.7503 15.8992 23.1666 16.0717 23.6008 16.0717Z" fill="url(#paint1_linear_9_406001)"/>
<path d="M19.9806 17.1455C19.7711 17.1455 19.6074 17.0604 19.6074 16.9229C19.6074 16.1762 19.9041 15.4601 20.4321 14.9321C20.9601 14.4041 21.6762 14.1074 22.4229 14.1074C22.5227 14.1074 22.6185 14.1471 22.6891 14.2177C22.7597 14.2883 22.7994 14.3841 22.7994 14.4839C22.7994 14.5838 22.7597 14.6795 22.6891 14.7501C22.6185 14.8207 22.5227 14.8604 22.4229 14.8604C21.8764 14.8621 21.3528 15.08 20.9664 15.4664C20.58 15.8528 20.3621 16.3764 20.3604 16.9229C20.3604 17.0538 20.1902 17.1455 19.9806 17.1455Z" fill="#0C181C"/>
<path d="M15.6133 21.4208C15.6526 20.5893 16.2026 20.0458 16.8508 20.0458C17.4532 20.0458 17.9247 20.6678 17.9443 21.4405C17.9574 20.5762 17.4467 19.8887 16.7723 19.8887C16.1044 19.8887 15.502 20.478 15.4628 21.3619C15.4169 22.2458 15.9407 22.7041 16.6282 22.7041H16.6741C16.052 22.6845 15.5806 22.2393 15.6199 21.4208H15.6133ZM24.3937 21.4208C24.3544 20.5893 23.8044 20.0458 23.1628 20.0458C22.5538 20.0458 22.0889 20.6678 22.0693 21.4405C22.0497 20.5762 22.5669 19.8887 23.2413 19.8887C23.9223 19.8887 24.5116 20.478 24.5508 21.3619C24.5967 22.2458 24.0729 22.7041 23.3854 22.7041H23.333C23.9616 22.6845 24.433 22.2393 24.3937 21.4208Z" fill="#842123"/>
</g>
<circle cx="20" cy="20" r="19.5" stroke="black" stroke-opacity="0.05"/>
<defs>
<linearGradient id="paint0_linear_9_406001" x1="17.8919" y1="17.342" x2="17.8919" y2="28.8331" gradientUnits="userSpaceOnUse">
<stop offset="0.4" stop-color="#FEFFFF"/>
<stop offset="0.51" stop-color="#F9FCFC"/>
<stop offset="0.62" stop-color="#EDF3F5"/>
<stop offset="0.7" stop-color="#DEE9EC"/>
<stop offset="0.72" stop-color="#D8E4E8"/>
<stop offset="0.76" stop-color="#CCD8DF"/>
<stop offset="0.8" stop-color="#C8D5DD"/>
<stop offset="0.83" stop-color="#CCD6DE"/>
<stop offset="0.88" stop-color="#EDE3E9"/>
</linearGradient>
<linearGradient id="paint1_linear_9_406001" x1="20.6805" y1="12.7979" x2="20.6805" y2="17.1717" gradientUnits="userSpaceOnUse">
<stop offset="0.4" stop-color="#FEFFFF"/>
<stop offset="0.51" stop-color="#F9FCFC"/>
<stop offset="0.62" stop-color="#EDF3F5"/>
<stop offset="0.7" stop-color="#DEE9EC"/>
<stop offset="0.83" stop-color="#CCD6DE"/>
</linearGradient>
<clipPath id="clip0_9_406001">
<rect width="22" height="22" fill="white" transform="translate(9 9)"/>
</clipPath>
</defs>
</svg>
