<svg width="40" height="40" viewBox="0 0 40 40" fill="none" xmlns="http://www.w3.org/2000/svg">
<circle cx="20" cy="20" r="20" fill="#FF7900"/>
<g clip-path="url(#clip0_9_400577)">
<path d="M17.4378 19.8441C21.4563 19.8441 26.1507 18.645 26.1507 14.8064C26.1507 12.0853 23.488 11.1787 20.9297 11.1787C17.0212 11.1787 9.82153 13.3352 9.82153 20.9909C9.82153 24.8336 12.7346 26.7913 17.412 26.7913C22.3561 26.7913 25.8345 23.5362 27.0857 19.5754C24.1815 24.5425 20.49 26.0896 17.4772 26.0896C13.7382 26.0896 12.3119 23.3346 12.3119 20.9746C12.3119 14.2187 17.5946 11.8885 20.9297 11.8885C23.1812 11.8885 24.7399 13.3379 24.7399 14.9088C24.7399 19.2476 18.2148 19.3175 15.339 19.3175C15.0438 19.3175 13.893 19.3216 13.893 19.3216L13.2144 20.0001C14.5308 20.1854 16.4919 20.4846 18.4692 21.4767C22.5814 23.5369 26.437 28.8216 31.5582 28.8216C33.4161 28.8216 33.8993 28.2597 34.2501 27.7677C31.7414 29.3536 27.539 26.6047 25.274 24.478C23.4079 22.7287 21.7746 20.8952 17.4378 19.8434V19.8441Z" fill="white"/>
</g>
<circle cx="20" cy="20" r="19.5" stroke="black" stroke-opacity="0.05"/>
<defs>
<clipPath id="clip0_9_400577">
<rect width="26" height="18" fill="white" transform="translate(9 11)"/>
</clipPath>
</defs>
</svg>
