<svg width="40" height="40" viewBox="0 0 40 40" fill="none" xmlns="http://www.w3.org/2000/svg">
<circle cx="20" cy="20" r="20" fill="#2C415A"/>
<path d="M9 9H30.8844L30.9605 26.9463C30.9605 27.162 30.8738 27.3311 30.7005 27.4537L20.2498 35H19.6854L9 27.3015V9ZM25.0249 12.938L27.5868 11.1371C28.1068 10.7693 28.0476 10.5854 27.4093 10.5854H12.2024C11.7966 10.5854 11.7585 10.7037 12.0883 10.9405L16.9015 14.4029C17.079 14.5298 17.2481 14.5192 17.4088 14.3712C19.493 12.4603 21.5815 12.0185 23.6741 13.0459C24.1476 13.2741 24.5979 13.2382 25.0249 12.938ZM23.7566 15.0244C22.1776 13.7244 20.5351 13.8512 18.9624 15.0561C17.3771 16.261 15.8889 17.3433 14.498 18.3029C13.9654 18.6707 13.8343 19.1485 14.1049 19.7361C14.2233 19.994 14.4896 20.1504 14.9039 20.2054C15.1082 20.2299 15.3139 20.1779 15.481 20.0595L19.6156 17.1107C19.7745 16.9966 19.9659 16.9358 20.1628 16.9369C20.3597 16.9381 20.552 17.0011 20.7127 17.1171L29.0707 23.1668C29.3244 23.3486 29.4512 23.2831 29.4512 22.9702V11.9995C29.4512 11.6951 29.3286 11.6338 29.0834 11.8156L24.6824 15.0498C24.5466 15.1495 24.3816 15.2012 24.2138 15.1966C24.046 15.192 23.885 15.1314 23.7566 15.0244ZM16.9712 27.7263C17.0088 27.672 17.057 27.6259 17.113 27.5906C17.169 27.5554 17.2316 27.5317 17.2972 27.5211C17.3628 27.5105 17.43 27.513 17.495 27.5287C17.5599 27.5443 17.6211 27.5727 17.6751 27.6122L22.5073 31.138C22.9935 31.4932 23.4437 31.4509 23.8581 31.0112L23.9912 30.8717C24.3971 30.4363 24.3611 30.041 23.8834 29.6859L19.9898 26.8259C19.6093 26.5426 19.5289 26.1917 19.7488 25.7732C19.846 25.5872 20.0426 25.492 20.3385 25.4878C20.4454 25.4836 20.5485 25.515 20.6302 25.5766L25.5956 29.242C26.0607 29.5844 26.4433 29.5104 26.7434 29.02L26.9337 28.7156C27.2592 28.1872 27.1683 27.7454 26.661 27.3902L22.7483 24.6254C22.6526 24.5575 22.5788 24.4631 22.536 24.3538C22.4932 24.2445 22.4832 24.1251 22.5073 24.0102C22.5369 23.8707 22.594 23.7524 22.6785 23.6551C22.9533 23.3465 23.2577 23.3127 23.5917 23.5537L27.7834 26.5849C28.2485 26.9231 28.667 26.8702 29.039 26.4263L29.2546 26.1663C29.6055 25.752 29.5611 25.3842 29.1215 25.0629L20.8839 19.0385C20.6731 18.8854 20.4194 18.8024 20.1588 18.8012C19.8982 18.8001 19.6439 18.8809 19.4317 19.0322C17.821 20.1863 14.739 23.3951 12.9063 20.5288C11.4034 18.1698 13.902 16.7937 15.462 15.779C15.7325 15.6015 15.7389 15.4176 15.481 15.2273L10.9024 11.822C10.6403 11.6275 10.5093 11.693 10.5093 12.0185V26.1537C10.5093 26.4496 10.6276 26.6842 10.8644 26.8576L19.6029 33.2751C19.7157 33.3581 19.8454 33.4149 19.9826 33.4412C20.1198 33.4676 20.2609 33.4628 20.3956 33.4273C20.9621 33.2794 21.2644 32.9517 21.3024 32.4444C21.3143 32.3087 21.2907 32.172 21.2341 32.0476C21.1775 31.9232 21.0896 31.8153 20.979 31.7341L16.9649 28.7917C16.6351 28.5507 16.5886 28.2633 16.8254 27.9293L16.9712 27.7263Z" fill="white"/>
<circle cx="20" cy="20" r="19.5" stroke="black" stroke-opacity="0.05"/>
</svg>
