<svg width="40" height="40" viewBox="0 0 40 40" fill="none" xmlns="http://www.w3.org/2000/svg">
<circle cx="20" cy="20" r="20" fill="#F6F8FA"/>
<path d="M26.7895 7.52892C27.4687 8.74314 27.7638 10.3449 27.7175 11.6391C27.5895 15.104 26.1922 18.4018 24.0855 21.2214C20.7593 25.6729 16.2864 28.976 11.2411 31.712C10.8642 31.9147 10.4038 31.8951 10.0055 31.7778C9.99531 31.7751 9.98619 31.7694 9.97935 31.7613C9.97251 31.7533 9.96825 31.7433 9.96711 31.7327C9.96597 31.722 9.96799 31.7112 9.97294 31.7015C9.97788 31.6918 9.98552 31.6837 9.99488 31.6783C15.8384 28.368 21.6055 23.6534 24.3664 17.36C25.0195 15.8726 25.4355 14.2957 25.6144 12.6294C25.8076 10.8338 25.5036 9.13721 24.7024 7.53958C24.6574 7.45069 24.6847 7.40625 24.7842 7.40625L26.5904 7.41158C26.6805 7.41158 26.7469 7.45069 26.7895 7.52892Z" fill="#80888A"/>
<path d="M27.5824 7.43817C27.5804 7.43364 27.5795 7.42867 27.5798 7.4237C27.5801 7.41873 27.5817 7.41392 27.5843 7.4097C27.587 7.40548 27.5906 7.40197 27.5949 7.3995C27.5992 7.39702 27.6041 7.39565 27.6091 7.39551L29.2269 7.39729C29.243 7.39732 29.2589 7.40178 29.2729 7.41021C29.287 7.41865 29.2987 7.43075 29.3069 7.44529C29.6991 8.15521 29.9587 8.86395 30.0855 9.57151C30.9709 14.5262 28.4322 19.28 25.2695 22.9671C24.4292 23.946 23.5777 24.8177 22.7149 25.5822C20.0494 27.9431 17.0627 29.9928 13.7549 31.7315C13.5735 31.8275 13.3821 31.8808 13.1806 31.8915C13.0586 31.8986 12.9566 31.8595 12.8749 31.7742C12.8656 31.7643 12.8586 31.7525 12.8546 31.7396C12.8506 31.7267 12.8496 31.713 12.8516 31.6996C12.8537 31.6863 12.8588 31.6735 12.8665 31.6624C12.8742 31.6513 12.8844 31.6421 12.8962 31.6355C18.1371 28.7093 22.7255 24.9777 25.8615 19.9857C27.4935 17.3902 28.5033 14.5582 28.5175 11.4648C28.5223 10.1718 28.2106 8.82958 27.5824 7.43817Z" fill="#80888A"/>
<path d="M24.6332 9.6386C25.7977 16.531 20.7541 22.8724 15.7141 26.8741C13.9482 28.2774 12.0063 29.5859 9.88833 30.7995C8.53366 31.5764 7.57189 32.1417 6.13011 31.8164C5.96537 31.7784 5.95707 31.7198 6.10522 31.6404C9.30403 29.9171 12.2172 27.8253 14.8448 25.3648C18.6883 21.7666 22.1639 16.403 21.8723 10.9435C21.8131 9.82941 21.5049 8.72541 20.9479 7.63148C20.9366 7.60915 20.9312 7.58428 20.9323 7.55928C20.9334 7.53427 20.941 7.50997 20.9542 7.48872C20.9674 7.46746 20.9859 7.44997 21.0078 7.43792C21.0297 7.42587 21.0544 7.41968 21.0794 7.41993L23.6981 7.42171C23.7349 7.42178 23.7711 7.43169 23.803 7.45043C23.8348 7.46917 23.8612 7.49606 23.8794 7.52837C24.2587 8.20393 24.51 8.90734 24.6332 9.6386Z" fill="#80888A"/>
<path d="M20.9175 9.84012C20.6176 9.97167 20.3136 10.0149 20.0055 9.96989C19.6357 9.91538 19.3453 9.90471 19.1343 9.93789C18.7018 10.0043 18.1785 10.1334 17.5646 10.3254C17.5118 10.3418 17.4553 10.342 17.4024 10.3261C17.3495 10.3102 17.3026 10.2788 17.2676 10.236C17.2327 10.1932 17.2113 10.141 17.2062 10.086C17.2012 10.0309 17.2127 9.97567 17.2392 9.92723L17.465 9.50767C18.6158 9.19123 19.6606 9.0816 20.5992 9.17878C20.8647 9.20604 20.9708 9.42649 20.9175 9.84012Z" fill="#050780"/>
<path d="M17.4651 9.50781L17.2393 9.92737C17.2127 9.97581 17.2012 10.0311 17.2063 10.0861C17.2114 10.1411 17.2327 10.1934 17.2677 10.2362C17.3026 10.279 17.3496 10.3103 17.4025 10.3263C17.4554 10.3422 17.5118 10.342 17.5646 10.3256C18.1785 10.1336 18.7018 10.0044 19.1344 9.93804C19.3454 9.90485 19.6357 9.91552 20.0055 9.97004C20.3137 10.0151 20.6177 9.97181 20.9175 9.84026C21.1794 10.8417 21.2191 11.896 21.0366 13.0029C20.3018 12.76 19.6328 12.6349 19.0295 12.6278C18.7522 12.6243 18.5886 12.7617 18.5388 13.0403C18.5335 13.0708 18.5395 13.1021 18.5555 13.1283C18.5716 13.1546 18.5967 13.1738 18.6259 13.1825C18.8482 13.25 19.0953 13.3087 19.2179 13.5274C19.6037 14.2118 19.6144 14.8091 19.3975 15.5167C19.2713 15.9274 19.6108 16.8234 20.1655 16.4429C20.0908 16.7819 19.9777 17.109 19.8259 17.4243C18.3551 20.4726 16.3409 23.1048 13.7833 25.3211C13.7181 25.218 13.6215 25.1997 13.4935 25.266C13.2932 25.3715 13.2553 25.5167 13.3797 25.7016L10.9406 27.7051C10.93 27.714 10.9177 27.7207 10.9044 27.7247C10.8911 27.7287 10.8772 27.73 10.8634 27.7285C10.8497 27.727 10.8363 27.7227 10.8242 27.716C10.8122 27.7092 10.8015 27.7001 10.7931 27.6891C10.0085 26.6888 9.43425 25.5262 9.07039 24.2011C8.08373 20.61 8.65973 16.9585 10.8411 13.9896C12.4671 11.7745 14.6751 10.2806 17.4651 9.50781ZM15.9682 14.914C16.2882 14.7345 16.6028 14.8554 16.9477 14.786C17.0354 14.7694 17.1083 14.7268 17.1664 14.658C17.3181 14.4814 17.5166 14.3771 17.7619 14.3451C17.8473 14.3345 17.9006 14.3706 17.9219 14.4536C18.012 14.808 17.9308 15.0391 17.6784 15.1469C17.6061 15.1789 17.5735 15.234 17.5806 15.3123C17.5913 15.4533 17.6659 15.5428 17.8046 15.5807C18.6224 15.8065 18.5246 14.7469 18.2935 14.3043C18.2674 14.2545 18.2544 14.2011 18.2544 14.1443C18.2544 13.9203 18.2011 13.7111 18.0944 13.5167C18.0867 13.5024 18.076 13.4899 18.063 13.4802C18.0499 13.4704 18.035 13.4636 18.0191 13.4602C18.0032 13.4568 17.9867 13.457 17.9709 13.4606C17.955 13.4642 17.9401 13.4712 17.9273 13.4811C17.7234 13.6388 17.5777 13.8296 17.49 14.0536C17.4814 14.0754 17.4682 14.0951 17.4513 14.1114C17.4344 14.1276 17.4142 14.1402 17.392 14.1481C17.3698 14.156 17.3462 14.1591 17.3226 14.1572C17.299 14.1553 17.2761 14.1485 17.2553 14.1371L16.7948 13.8829C16.7587 13.8631 16.7281 13.8347 16.7057 13.8001C16.6833 13.7655 16.6698 13.726 16.6664 13.6849C16.6631 13.6439 16.67 13.6026 16.6865 13.5649C16.703 13.5271 16.7286 13.4941 16.7611 13.4687C17.0182 13.2672 17.1516 13.0035 17.1611 12.6776C17.1619 12.6454 17.1542 12.6135 17.1386 12.5853C17.123 12.557 17.1002 12.5334 17.0725 12.517C17.0448 12.5005 17.0132 12.4917 16.9809 12.4915C16.9487 12.4913 16.917 12.4997 16.8891 12.5158C16.7208 12.6142 16.543 12.6568 16.3557 12.6438C16.2882 12.6391 16.255 12.6029 16.2562 12.5354L16.2597 12.098C16.2609 12.0364 16.2811 11.9813 16.3202 11.9327C16.5062 11.7016 16.674 11.4486 16.8233 11.1736C16.9631 10.9176 16.8873 10.7902 16.5957 10.7914L15.5842 10.7931C15.5 10.7931 15.4283 10.824 15.3691 10.8856L14.8464 11.4314C14.7871 11.4942 14.7539 11.5683 14.7468 11.6536L14.7273 11.9238C14.719 12.0257 14.6787 12.1123 14.6064 12.1834C13.8899 12.8927 13.2588 13.602 12.6295 14.4411C12.4002 14.7469 11.9895 14.9158 11.7086 15.2198C11.244 15.7235 10.9382 16.1846 10.7913 16.6029C10.4268 17.6394 10.3948 18.9905 10.3877 20.1176C10.3842 20.4856 10.1939 20.9176 10.3344 21.2554C10.7646 22.2883 11.5255 23.298 12.0784 24.3185C12.0922 24.3442 12.1127 24.3658 12.1377 24.3809C12.1627 24.3961 12.1912 24.4043 12.2205 24.4046C12.2497 24.405 12.2785 24.3975 12.3038 24.383C12.3292 24.3685 12.3502 24.3474 12.3646 24.322C12.8375 23.4954 11.6197 23.3763 12.1939 22.5265C12.2164 22.4932 12.2293 22.4543 12.2311 22.4142C12.2329 22.374 12.2236 22.3342 12.2042 22.2992C12.1849 22.2642 12.1562 22.2353 12.1214 22.2158C12.0867 22.1963 12.0471 22.1869 12.0073 22.1887L11.6144 22.2029C11.5 22.2075 11.3879 22.17 11.2991 22.0977C11.2104 22.0253 11.1512 21.923 11.1326 21.81C11.0425 21.2601 11.1806 20.7606 11.5468 20.3114C11.5956 20.2518 11.6633 20.2109 11.7385 20.1957C11.8137 20.1804 11.8917 20.1918 11.9593 20.2278L13.0153 20.7931C13.1492 20.8654 13.2138 20.9774 13.2091 21.1291C13.2055 21.2726 13.2257 21.413 13.2695 21.5505C13.3122 21.6844 13.3975 21.7431 13.5255 21.7265C13.5907 21.7182 13.628 21.6814 13.6375 21.6163L13.7175 21.0918C13.727 21.0278 13.7596 20.981 13.8153 20.9514C14.3249 20.6847 14.7777 20.3534 15.1735 19.9576C15.3335 19.7976 15.5131 19.6714 15.7122 19.5789C16.0411 19.4243 16.4659 19.106 16.8286 19.3496C16.8656 19.3738 16.9092 19.3857 16.9531 19.3834C17.0538 19.3786 17.1208 19.3259 17.1539 19.2251C17.1688 19.1829 17.1676 19.1367 17.1504 19.0954C17.0805 18.9342 17.0532 18.7564 17.0686 18.562C17.0734 18.4957 17.103 18.4429 17.1575 18.4038C17.5184 18.146 17.9024 18.6118 18.0375 18.9087C18.0742 18.9869 18.1341 19.0361 18.2171 19.0563C18.2834 19.0717 18.3403 19.0527 18.3877 18.9994C18.4149 18.9684 18.4338 18.9307 18.4425 18.89C18.4512 18.8493 18.4495 18.8068 18.4375 18.7665C18.306 18.3274 18.4108 17.9363 18.2171 17.5043C17.9243 16.8595 17.57 16.2924 17.1539 15.8029C17.1433 15.7903 17.1298 15.7803 17.1146 15.7738C17.0994 15.7672 17.0829 15.7643 17.0662 15.7651C17.0496 15.766 17.0333 15.7706 17.0186 15.7787C17.0039 15.7868 16.9912 15.7981 16.9815 15.8118C16.748 16.1484 16.5021 16.4797 16.2437 16.8056C16.1098 16.9739 15.9498 17.0213 15.7637 16.9478C15.7033 16.9241 15.6725 16.8803 15.6713 16.8163C15.6624 16.5034 15.5948 16.1745 15.4544 15.89C15.2055 15.3905 15.5966 15.122 15.9682 14.914Z" fill="#0359ED"/>
<path d="M15.9686 14.9137C15.5971 15.1217 15.2059 15.3901 15.4548 15.8897C15.5953 16.1741 15.6628 16.503 15.6717 16.8159C15.6729 16.8799 15.7037 16.9238 15.7642 16.9475C15.9502 17.0209 16.1102 16.9735 16.2442 16.8052C16.5025 16.4793 16.7485 16.1481 16.9819 15.8115C16.9917 15.7978 17.0044 15.7865 17.0191 15.7784C17.0338 15.7703 17.05 15.7657 17.0667 15.7648C17.0833 15.7639 17.0999 15.7669 17.1151 15.7734C17.1303 15.78 17.1437 15.79 17.1544 15.8026C17.5704 16.2921 17.9248 16.8592 18.2175 17.5039C18.4113 17.9359 18.3064 18.327 18.4379 18.7661C18.4499 18.8064 18.4516 18.8489 18.4429 18.8896C18.4342 18.9304 18.4154 18.968 18.3882 18.999C18.3408 19.0524 18.2839 19.0713 18.2175 19.0559C18.1345 19.0358 18.0747 18.9866 18.0379 18.9084C17.9028 18.6115 17.5188 18.1457 17.1579 18.4035C17.1034 18.4426 17.0738 18.4953 17.0691 18.5617C17.0536 18.7561 17.0809 18.9338 17.1508 19.095C17.168 19.1364 17.1693 19.1826 17.1544 19.2248C17.1212 19.3255 17.0542 19.3783 16.9535 19.383C16.9096 19.3853 16.866 19.3735 16.8291 19.3492C16.4664 19.1057 16.0415 19.4239 15.7126 19.5786C15.5135 19.671 15.3339 19.7972 15.1739 19.9572C14.7781 20.3531 14.3253 20.6844 13.8157 20.951C13.76 20.9807 13.7274 21.0275 13.7179 21.0915L13.6379 21.6159C13.6285 21.6811 13.5911 21.7178 13.5259 21.7261C13.3979 21.7427 13.3126 21.6841 13.2699 21.5501C13.2261 21.4127 13.2059 21.2722 13.2095 21.1288C13.2142 20.9771 13.1496 20.8651 13.0157 20.7928L11.9597 20.2275C11.8922 20.1915 11.8141 20.1801 11.7389 20.1953C11.6637 20.2106 11.596 20.2515 11.5473 20.311C11.1811 20.7602 11.043 21.2598 11.1331 21.8097C11.1516 21.9227 11.2108 22.025 11.2996 22.0973C11.3883 22.1697 11.5004 22.2071 11.6148 22.2026L12.0077 22.1884C12.0476 22.1865 12.0871 22.1959 12.1219 22.2154C12.1567 22.2349 12.1853 22.2638 12.2047 22.2989C12.224 22.3339 12.2333 22.3737 12.2315 22.4138C12.2297 22.454 12.2168 22.4928 12.1944 22.5261C11.6202 23.3759 12.8379 23.495 12.3651 24.3217C12.3506 24.3471 12.3296 24.3681 12.3042 24.3827C12.2789 24.3972 12.2501 24.4047 12.2209 24.4043C12.1917 24.4039 12.1631 24.3958 12.1381 24.3806C12.1131 24.3654 12.0927 24.3439 12.0788 24.3181C11.5259 23.2977 10.7651 22.2879 10.3348 21.255C10.1944 20.9172 10.3846 20.4852 10.3882 20.1172C10.3953 18.9901 10.4273 17.639 10.7917 16.6026C10.9387 16.1842 11.2445 15.7232 11.7091 15.2195C11.9899 14.9155 12.4006 14.7466 12.6299 14.4408C13.2593 13.6017 13.8904 12.8924 14.6068 12.183C14.6791 12.1119 14.7194 12.0254 14.7277 11.9235L14.7473 11.6532C14.7544 11.5679 14.7876 11.4938 14.8468 11.431L15.3695 10.8852C15.4288 10.8236 15.5005 10.7928 15.5846 10.7928L16.5962 10.791C16.8877 10.7898 16.9636 10.9172 16.8237 11.1732C16.6744 11.4482 16.5067 11.7012 16.3206 11.9324C16.2815 11.9809 16.2613 12.0361 16.2602 12.0977L16.2566 12.535C16.2554 12.6026 16.2886 12.6387 16.3562 12.6435C16.5434 12.6565 16.7212 12.6138 16.8895 12.5155C16.9174 12.4993 16.9491 12.4909 16.9814 12.4911C17.0136 12.4913 17.0452 12.5001 17.0729 12.5166C17.1006 12.5331 17.1234 12.5567 17.139 12.5849C17.1546 12.6131 17.1623 12.645 17.1615 12.6772C17.152 13.0032 17.0187 13.2669 16.7615 13.4684C16.7291 13.4937 16.7034 13.5268 16.6869 13.5645C16.6704 13.6023 16.6635 13.6435 16.6669 13.6846C16.6702 13.7256 16.6837 13.7652 16.7061 13.7998C16.7285 13.8343 16.7592 13.8628 16.7953 13.8826L17.2557 14.1368C17.2765 14.1481 17.2995 14.155 17.323 14.1568C17.3466 14.1587 17.3703 14.1556 17.3924 14.1477C17.4146 14.1398 17.4348 14.1273 17.4517 14.111C17.4686 14.0947 17.4818 14.075 17.4904 14.0532C17.5781 13.8292 17.7239 13.6384 17.9277 13.4808C17.9406 13.4709 17.9555 13.4638 17.9713 13.4602C17.9872 13.4566 18.0036 13.4565 18.0195 13.4599C18.0354 13.4633 18.0504 13.4701 18.0634 13.4798C18.0764 13.4896 18.0871 13.502 18.0948 13.5164C18.2015 13.7107 18.2548 13.9199 18.2548 14.1439C18.2548 14.2008 18.2679 14.2541 18.2939 14.3039C18.5251 14.7466 18.6228 15.8061 17.8051 15.5804C17.6664 15.5424 17.5917 15.4529 17.5811 15.3119C17.5739 15.2337 17.6065 15.1786 17.6788 15.1466C17.9313 15.0387 18.0125 14.8076 17.9224 14.4532C17.9011 14.3703 17.8477 14.3341 17.7624 14.3448C17.5171 14.3768 17.3185 14.4811 17.1668 14.6577C17.1088 14.7264 17.0359 14.7691 16.9482 14.7857C16.6033 14.855 16.2886 14.7341 15.9686 14.9137Z" fill="#050780"/>
<path d="M21.0368 13.0021C20.9503 14.1423 20.6599 15.2889 20.1657 16.4421C19.611 16.8226 19.2714 15.9266 19.3977 15.5159C19.6146 14.8084 19.6039 14.211 19.2181 13.5266C19.0954 13.3079 18.8483 13.2492 18.6261 13.1817C18.5968 13.173 18.5718 13.1538 18.5557 13.1276C18.5396 13.1013 18.5337 13.07 18.539 13.0395C18.5888 12.7609 18.7523 12.6235 19.0297 12.627C19.6329 12.6341 20.302 12.7592 21.0368 13.0021Z" fill="#050780"/>
<path d="M29.4846 28.2596C29.34 28.0107 29.3933 27.696 29.6446 27.3156C29.692 27.2433 29.7169 27.1651 29.7192 27.0809C29.7323 26.55 29.5948 25.9941 29.3068 25.4134C29.2772 25.3529 29.2292 25.3138 29.1628 25.296C28.7041 25.1769 28.2775 25.568 27.945 25.8365C27.0739 26.5405 26.2721 26.8409 25.3815 25.92C25.0733 25.6012 24.8872 25.1568 24.8232 24.5867C26.377 22.803 27.5338 21.3102 28.2935 20.1085C29.2108 18.6578 29.9077 17.088 30.3841 15.3991C30.3893 15.3796 30.3996 15.3618 30.4139 15.3476C30.4282 15.3333 30.446 15.3232 30.4656 15.3181C30.4851 15.313 30.5057 15.3133 30.5251 15.3187C30.5445 15.3242 30.5621 15.3348 30.5761 15.3494C30.6484 15.424 30.7142 15.5082 30.7735 15.6018C32.2419 17.9325 32.409 21.1662 31.7761 23.7814C31.3672 25.4667 30.6034 26.9594 29.4846 28.2596Z" fill="#050780"/>
<path d="M24.8237 24.5859C24.8877 25.156 25.0738 25.6005 25.382 25.9193C26.2726 26.8402 27.0744 26.5397 27.9455 25.8357C28.278 25.5673 28.7046 25.1762 29.1633 25.2953C29.2297 25.313 29.2777 25.3522 29.3073 25.4126C29.5953 25.9933 29.7328 26.5492 29.7197 27.0802C29.7174 27.1643 29.6925 27.2425 29.6451 27.3148C29.3938 27.6953 29.3405 28.0099 29.4851 28.2588C28.102 29.9477 26.4249 31.1602 24.454 31.8962C22.5322 32.6144 20.422 32.7139 18.3597 32.4757C17.8525 32.4176 17.395 32.3104 16.9873 32.1539C17.2955 32.0982 17.6024 32.0443 17.9082 31.9922C19.0957 31.7895 20.0587 31.2716 20.7971 30.4384C21.0566 30.1433 21.7713 29.2153 20.9375 29.0233C20.627 28.9522 20.3123 28.8585 19.9935 28.7424C21.6469 27.4505 23.2569 26.065 24.8237 24.5859Z" fill="#0359ED"/>
<path d="M13.7837 25.3207C13.6746 25.4664 13.5401 25.5933 13.3801 25.7011C13.2557 25.5162 13.2936 25.371 13.4939 25.2655C13.6219 25.1992 13.7185 25.2175 13.7837 25.3207Z" fill="#050780"/>
<path d="M19.9931 28.7432C20.3119 28.8593 20.6266 28.9529 20.9371 29.0241C21.7709 29.2161 21.0562 30.1441 20.7967 30.4392C20.0583 31.2724 19.0953 31.7903 17.9078 31.9929C17.602 32.0451 17.295 32.099 16.9869 32.1547C16.6965 32.0291 16.3996 31.9307 16.0962 31.8596C15.9232 31.8181 15.81 31.7506 15.7567 31.6569C15.6962 31.5503 15.7175 31.4638 15.8207 31.3974L19.9931 28.7432Z" fill="#050780"/>
<circle cx="20" cy="20" r="19.5" stroke="black" stroke-opacity="0.05"/>
</svg>
