<svg width="40" height="40" viewBox="0 0 40 40" fill="none" xmlns="http://www.w3.org/2000/svg">
<circle cx="20" cy="20" r="20" fill="#00406F"/>
<path d="M26.7458 11.2608C29.6158 13.3888 30.9991 16.7901 30.9838 20.3415C30.9678 23.9086 29.6187 26.845 26.9365 29.1508C26.3996 29.6126 25.7891 30.0328 25.1051 30.4115C25.0829 30.4239 25.0596 30.4261 25.0351 30.4181C23.4556 29.8875 22.0825 29.1095 20.9158 28.0841C19.9358 27.2228 19.0625 26.1181 18.5891 24.8948C18.5136 24.6992 18.4574 24.4999 18.4205 24.2968C18.4189 24.2877 18.4208 24.2784 18.4259 24.2707C18.431 24.263 18.4388 24.2575 18.4478 24.2555C19.45 24.003 20.3136 23.6175 21.0385 23.0988C23.4405 21.3808 23.6958 18.3881 22.7278 15.8041C22.4758 15.1315 22.0511 14.6148 21.5031 14.1708C20.3351 13.2248 18.8271 12.7228 17.3218 12.5161C15.2845 12.2361 13.0965 12.4301 11.0425 12.8675C10.998 12.8772 10.9885 12.863 11.0138 12.8248C12.1471 11.1375 14.0465 9.99012 15.9998 9.46012C18.0345 8.90812 20.1358 8.85279 22.3038 9.29412C23.9482 9.62923 25.4289 10.2848 26.7458 11.2608Z" fill="white"/>
<path d="M13.4823 21.1909C14.025 23.6576 15.0516 26.0936 16.3703 28.3676C17.1138 29.6485 17.9236 30.8 18.7996 31.8223C18.821 31.8471 18.8152 31.858 18.7823 31.8549C16.7276 31.6785 14.8534 31.0307 13.1596 29.9116C13.1496 29.9051 13.1413 29.8961 13.1356 29.8857C13.1299 29.8752 13.1269 29.8635 13.127 29.8516L13.1276 15.4689C13.1276 15.4423 13.1407 15.4291 13.167 15.4296C14.2034 15.434 15.1954 15.4331 16.143 15.4269C16.659 15.4238 17.0785 15.4638 17.4016 15.5469C18.9123 15.9349 19.683 17.1263 19.5376 18.6676C19.383 20.3129 18.0436 21.1509 16.4836 21.1483C15.5045 21.1465 14.5161 21.1456 13.5183 21.1456C13.4876 21.1456 13.4756 21.1607 13.4823 21.1909Z" fill="white"/>
<circle cx="20" cy="20" r="19.5" stroke="black" stroke-opacity="0.05"/>
</svg>
