<svg width="40" height="40" viewBox="0 0 40 40" fill="none" xmlns="http://www.w3.org/2000/svg">
<circle cx="20" cy="20" r="20" fill="#EA8F3E"/>
<path d="M24.7407 9.74658C24.6706 9.88127 24.519 9.89671 24.2861 9.79288C24.2202 9.76341 24.169 9.78025 24.1325 9.84339L24.0714 9.95494C24.0434 10.0054 24.0006 10.0328 23.9431 10.037C23.7971 10.0454 23.72 10.1254 23.7115 10.2769C23.7087 10.3387 23.6856 10.3913 23.6421 10.4348L19.9463 14.1285C19.9189 14.1559 19.9006 14.1911 19.8937 14.2295C19.8755 14.3277 19.8179 14.3831 19.7211 14.3958C19.679 14.4028 19.6692 14.4245 19.6916 14.461C19.7043 14.4806 19.7197 14.4926 19.738 14.4968C19.8193 14.5164 19.8214 14.5431 19.7443 14.5768C19.712 14.5908 19.6931 14.6083 19.6874 14.6294L14.1101 14.6336C14.0371 14.6336 14.0007 14.6701 14.0007 14.743L14.0028 16.633C14.0028 16.7368 14.0547 16.7888 14.1585 16.7888L15.7412 16.7845C15.8184 16.7845 15.857 16.8231 15.857 16.9003L15.838 18.0431C15.81 18.0459 15.784 18.0572 15.7602 18.0768C15.7026 18.1259 15.6563 18.1168 15.6212 18.0494C15.6072 18.0228 15.5897 17.9968 15.5686 17.9716C15.5336 17.9295 15.5111 17.8804 15.5013 17.8242C15.4564 17.5885 15.4416 17.3514 15.4571 17.1129C15.4641 17.0104 15.4367 17.0006 15.375 17.0834C15.1758 17.3598 14.8811 17.4945 14.491 17.4875C14.4176 17.4875 14.3469 17.5128 14.2911 17.5591C13.8828 17.8986 13.4689 18.2873 13.0494 18.725C11.91 19.9135 10.7307 21.1026 9.51143 22.2924C9.4525 22.35 9.43216 22.4194 9.4504 22.5008C9.47285 22.5934 9.42725 22.6579 9.31359 22.6944C9.29439 22.7007 9.27388 22.7018 9.25411 22.6977C9.23434 22.6936 9.21598 22.6844 9.20087 22.6709C9.18577 22.6575 9.17443 22.6404 9.16799 22.6213C9.16155 22.6021 9.16023 22.5816 9.16416 22.5618C9.21608 22.2966 9.16136 22.1619 9 22.1577V13.3687L19.879 7.02526C19.9379 6.99158 19.9975 6.99158 20.0579 7.02526L24.7407 9.74658Z" fill="white"/>
<path d="M24.7405 9.74707L29.8885 12.7357C29.7678 12.7469 29.6843 12.7701 29.638 12.8051C29.6001 12.8346 29.5587 12.8416 29.5138 12.8262C29.4142 12.7939 29.3209 12.8072 29.2339 12.8662C29.2115 12.8816 29.196 12.9019 29.1876 12.9272C29.1806 12.9483 29.1799 12.97 29.1855 12.9924C29.1995 13.0514 29.1848 13.1019 29.1413 13.144L25.7381 16.5472C25.6834 16.6019 25.6553 16.6679 25.6539 16.745C25.6497 16.9808 25.5992 17.1835 25.5024 17.3533C25.2217 16.2687 24.5468 15.4949 23.4777 15.0319C22.2949 14.5204 20.9479 14.6193 19.6872 14.6299C19.6928 14.6088 19.7117 14.5913 19.744 14.5773C19.8212 14.5436 19.8191 14.5169 19.7377 14.4973C19.7195 14.4931 19.704 14.4811 19.6914 14.4615C19.669 14.425 19.6788 14.4033 19.7209 14.3963C19.8177 14.3836 19.8752 14.3282 19.8934 14.23C19.9003 14.1916 19.9187 14.1564 19.9461 14.129L23.6418 10.4353C23.6853 10.3918 23.7085 10.3392 23.7113 10.2774C23.7197 10.1259 23.7969 10.0459 23.9428 10.0375C24.0003 10.0333 24.0431 10.0059 24.0712 9.95543L24.1322 9.84388C24.1687 9.78074 24.2199 9.76391 24.2859 9.79337C24.5188 9.8972 24.6703 9.88177 24.7405 9.74707Z" fill="white"/>
<path d="M29.8887 12.7354L30.8926 13.3268C30.9529 13.3618 30.9831 13.4152 30.9831 13.4867L30.9873 21.3266C30.9242 21.1189 30.9045 20.8951 30.9284 20.6552C30.9312 20.6159 30.9136 20.599 30.8757 20.6047C30.8505 20.6075 30.8266 20.604 30.8042 20.5941C30.7845 20.5863 30.7681 20.5718 30.7578 20.553C30.7474 20.5343 30.7438 20.5124 30.7474 20.491C30.7698 20.3731 30.7558 20.2553 30.7053 20.1374C30.6477 20.0055 30.6134 20.0118 30.6021 20.1564C30.6007 20.1746 30.5804 20.1767 30.5411 20.1627C30.4864 20.1444 30.4562 20.1059 30.4506 20.0469C30.4408 19.9501 30.3812 19.9045 30.2717 19.9101C30.1945 19.9129 30.1286 19.9417 30.0739 19.9964C28.7213 21.3476 27.3708 22.7002 26.0224 24.0542C25.9691 24.1061 25.9151 24.1573 25.8604 24.2078C25.6808 24.3706 25.6576 24.5411 25.7909 24.7193C25.8667 24.8217 25.9256 24.9388 25.9677 25.0707C25.9775 25.0988 25.9684 25.1191 25.9403 25.1318C25.9193 25.1416 25.901 25.1416 25.8856 25.1318C25.8183 25.0869 25.7769 25.1072 25.7614 25.1928C25.7544 25.2307 25.7488 25.2735 25.7446 25.3212L23.3937 21.9095C23.3544 21.852 23.3663 21.8085 23.4295 21.7791C25.2156 20.933 25.9067 19.4576 25.5026 17.353C25.5994 17.1832 25.6499 16.9804 25.6541 16.7447C25.6555 16.6675 25.6836 16.6016 25.7383 16.5469L29.1415 13.1437C29.185 13.1016 29.1997 13.051 29.1857 12.9921C29.1801 12.9697 29.1808 12.9479 29.1878 12.9269C29.1962 12.9016 29.2117 12.8813 29.2341 12.8658C29.3211 12.8069 29.4144 12.7936 29.514 12.8259C29.5589 12.8413 29.6003 12.8343 29.6382 12.8048C29.6845 12.7697 29.768 12.7466 29.8887 12.7354Z" fill="white"/>
<path d="M30.9871 21.3261L30.9998 26.0174C31.0012 26.0889 30.971 26.1422 30.9093 26.1773L20.0977 32.4534C20.0317 32.4913 19.9665 32.4913 19.9019 32.4534L16.042 30.2098C16.1683 30.2 16.2974 30.1993 16.4292 30.2077C16.5864 30.2161 16.6032 30.1705 16.4798 30.0709C16.4489 30.0443 16.4433 29.9987 16.4629 29.9341C16.4798 29.8808 16.5078 29.8345 16.5471 29.7952L19.5063 26.8255C19.5385 26.7933 19.554 26.754 19.5526 26.7077C19.5512 26.688 19.549 26.6691 19.5462 26.6509C19.5422 26.6322 19.5423 26.6129 19.5466 26.5943C19.551 26.5757 19.5594 26.5584 19.5713 26.5435C19.5832 26.5285 19.5983 26.5165 19.6154 26.5081C19.6325 26.4997 19.6513 26.4953 19.6704 26.4951H19.7672C19.8149 26.4951 19.8563 26.4783 19.8914 26.4446L20.9564 25.3796C21.0041 25.3319 21.0279 25.2744 21.0279 25.2071C21.0279 25.1874 21.0314 25.1678 21.0384 25.1481C21.0679 25.0752 21.1212 25.0492 21.1984 25.0703C21.364 25.1152 21.4909 25.0682 21.5793 24.9292C21.587 24.9173 21.5913 24.9036 21.5917 24.8895C21.5921 24.8753 21.5887 24.8613 21.5817 24.849C21.5748 24.8367 21.5647 24.8265 21.5524 24.8195C21.5401 24.8125 21.5261 24.8089 21.512 24.8093C21.3703 24.8135 21.3142 24.7461 21.3436 24.6072C21.3633 24.5132 21.3261 24.4641 21.2321 24.4599C21.197 24.4571 21.1795 24.4346 21.1795 24.3926C21.1795 24.3308 21.2068 24.3154 21.2615 24.3463C21.3584 24.4038 21.4173 24.4901 21.4383 24.6051C21.451 24.6753 21.4923 24.7097 21.5625 24.7083C21.6214 24.7069 21.6509 24.7342 21.6509 24.7903C21.6495 24.8619 21.6733 24.9236 21.7225 24.9755C21.9035 25.1664 22.0536 25.2534 22.1729 25.2365C22.2486 25.3867 22.3532 25.5101 22.4864 25.6069C22.5261 25.6357 22.574 25.6512 22.6233 25.6511L25.8455 25.6596C25.9156 25.6596 25.9388 25.6273 25.9149 25.5627C25.8827 25.4744 25.8258 25.3937 25.7445 25.3207C25.7487 25.273 25.7543 25.2302 25.7613 25.1923C25.7767 25.1067 25.8181 25.0864 25.8855 25.1313C25.9009 25.1411 25.9191 25.1411 25.9402 25.1313C25.9682 25.1187 25.9774 25.0983 25.9675 25.0703C25.9255 24.9384 25.8665 24.8212 25.7908 24.7188C25.6575 24.5406 25.6806 24.3701 25.8602 24.2073C25.9149 24.1568 25.9689 24.1056 26.0223 24.0537C27.3706 22.6997 28.7211 21.3471 30.0737 19.9959C30.1284 19.9412 30.1944 19.9124 30.2716 19.9096C30.381 19.904 30.4406 19.9496 30.4505 20.0464C30.4561 20.1054 30.4862 20.144 30.541 20.1622C30.5802 20.1762 30.6006 20.1741 30.602 20.1559C30.6132 20.0114 30.6476 20.0051 30.7051 20.1369C30.7556 20.2548 30.7697 20.3727 30.7472 20.4905C30.7436 20.5119 30.7473 20.5338 30.7576 20.5525C30.768 20.5713 30.7844 20.5858 30.804 20.5937C30.8265 20.6035 30.8503 20.607 30.8756 20.6042C30.9135 20.5986 30.931 20.6154 30.9282 20.6547C30.9044 20.8946 30.924 21.1184 30.9871 21.3261Z" fill="white"/>
<path d="M15.838 18.0426C15.8422 18.0833 15.8528 18.1183 15.8696 18.1478C15.8949 18.1955 15.9348 18.2201 15.9896 18.2215L19.7316 18.2425C19.7751 18.2425 19.7955 18.2208 19.7927 18.1773L19.7885 18.1036C19.7864 18.0737 19.7733 18.0456 19.7519 18.0249C19.7305 18.0043 19.7022 17.9925 19.6727 17.9921L19.0581 17.9731C19.0191 17.972 18.9819 17.9559 18.9544 17.928C18.927 17.9002 18.9113 17.8628 18.9108 17.8237L18.9045 17.4301C18.9031 17.3123 18.9613 17.2547 19.0792 17.2575C20.201 17.2912 22.9707 16.8113 22.5077 18.9476C22.3561 19.6442 21.6174 19.9199 20.9671 19.9115C20.3118 19.9003 19.6811 19.8996 19.075 19.9094C18.9754 19.9108 18.9234 19.861 18.9192 19.76C18.9192 19.7628 18.9129 19.6281 18.9003 19.3559C18.8994 19.3372 18.9024 19.3186 18.9092 19.3011C18.9159 19.2836 18.9262 19.2677 18.9394 19.2543C18.9526 19.2409 18.9685 19.2303 18.986 19.2231C19.0035 19.216 19.0223 19.2125 19.0413 19.2128C19.2518 19.2184 19.4861 19.2071 19.7443 19.1791C19.7723 19.1763 19.7906 19.1608 19.799 19.1328L19.8242 19.0591C19.8289 19.0451 19.8302 19.0303 19.828 19.0157C19.8258 19.0011 19.8201 18.9873 19.8115 18.9753C19.8028 18.9634 19.7914 18.9537 19.7783 18.947C19.7651 18.9404 19.7506 18.937 19.7358 18.937L14.1543 18.9518C14.0533 18.9518 14.0028 19.003 14.0028 19.1054L14.0007 20.9975C14.0007 21.0677 14.0357 21.1027 14.1059 21.1027H15.7412C15.831 21.1027 15.8759 21.1476 15.8759 21.2374L15.8675 25.4446C15.7875 25.5134 15.723 25.5471 15.6739 25.5457C15.6276 25.5443 15.5967 25.4994 15.5813 25.411C15.4732 24.8231 15.4283 24.2197 15.4466 23.601C15.4508 23.4635 15.429 23.4585 15.3813 23.5862C15.3603 23.641 15.3231 23.6823 15.2698 23.7104C15.2277 23.7329 15.1905 23.7609 15.1582 23.7946L13.9354 25.0405C13.9017 25.077 13.88 25.1191 13.8702 25.1668C13.8155 25.4446 13.6457 25.6095 13.3608 25.6614C13.2935 25.6726 13.2542 25.7119 13.243 25.7793C13.1939 26.0795 13.0115 26.2521 12.6958 26.297C12.6425 26.304 12.6109 26.3335 12.6011 26.3854C12.5969 26.4065 12.5962 26.4268 12.599 26.4465C12.6088 26.511 12.5912 26.5678 12.5463 26.6169L11.755 27.4546C11.7073 27.5037 11.6512 27.517 11.5866 27.4946C11.5249 27.4721 11.4891 27.4967 11.4793 27.5682L9 26.1287V22.1572C9.16136 22.1614 9.21608 22.2961 9.16416 22.5613C9.16023 22.5811 9.16155 22.6016 9.16799 22.6207C9.17443 22.6399 9.18577 22.657 9.20087 22.6704C9.21598 22.6838 9.23434 22.693 9.25411 22.6971C9.27388 22.7012 9.29439 22.7001 9.31359 22.6939C9.42725 22.6574 9.47285 22.5928 9.4504 22.5002C9.43216 22.4188 9.4525 22.3494 9.51143 22.2919C10.7307 21.102 11.91 19.9129 13.0494 18.7245C13.4689 18.2867 13.8828 17.898 14.2911 17.5585C14.3469 17.5122 14.4176 17.4869 14.491 17.4869C14.8811 17.494 15.1758 17.3593 15.375 17.0828C15.4367 17.0001 15.4641 17.0099 15.4571 17.1123C15.4416 17.3508 15.4564 17.588 15.5013 17.8237C15.5111 17.8798 15.5336 17.9289 15.5686 17.971C15.5897 17.9963 15.6072 18.0222 15.6212 18.0489C15.6563 18.1162 15.7026 18.1254 15.7602 18.0762C15.784 18.0566 15.81 18.0454 15.838 18.0426Z" fill="white"/>
<path d="M22.1732 25.2374C22.054 25.2542 21.9039 25.1672 21.7229 24.9764C21.6737 24.9245 21.6499 24.8627 21.6513 24.7912C21.6513 24.7351 21.6218 24.7077 21.5629 24.7091C21.4927 24.7105 21.4514 24.6761 21.4387 24.606C21.4177 24.4909 21.3587 24.4046 21.2619 24.3471C21.2072 24.3162 21.1798 24.3317 21.1798 24.3934C21.1798 24.4355 21.1974 24.4579 21.2325 24.4607C21.3265 24.465 21.3637 24.5141 21.344 24.6081C21.3145 24.747 21.3707 24.8143 21.5124 24.8101C21.5265 24.8098 21.5405 24.8133 21.5528 24.8203C21.5651 24.8273 21.5752 24.8375 21.5821 24.8498C21.5891 24.8622 21.5925 24.8762 21.5921 24.8903C21.5916 24.9044 21.5874 24.9182 21.5797 24.9301C21.4913 25.069 21.3644 25.116 21.1988 25.0711C21.1216 25.0501 21.0683 25.076 21.0388 25.149C21.0318 25.1686 21.0283 25.1883 21.0283 25.2079C21.0283 25.2752 21.0045 25.3328 20.9568 25.3805L19.8918 26.4454C19.8567 26.4791 19.8153 26.4959 19.7676 26.4959H19.6708C19.6517 26.4961 19.6329 26.5006 19.6158 26.5089C19.5986 26.5173 19.5836 26.5294 19.5717 26.5443C19.5598 26.5592 19.5514 26.5766 19.547 26.5952C19.5427 26.6137 19.5426 26.6331 19.5466 26.6517C19.5494 26.6699 19.5515 26.6889 19.553 26.7085C19.5544 26.7548 19.5389 26.7941 19.5066 26.8264L16.5475 29.796C16.5082 29.8353 16.4802 29.8816 16.4633 29.935C16.4437 29.9995 16.4493 30.0451 16.4802 30.0718C16.6036 30.1714 16.5868 30.217 16.4296 30.2086C16.2978 30.2001 16.1687 30.2008 16.0424 30.2107L11.4795 27.5693C11.4893 27.4978 11.5251 27.4732 11.5868 27.4957C11.6514 27.5181 11.7075 27.5048 11.7552 27.4557L12.5466 26.618C12.5915 26.5689 12.609 26.5121 12.5992 26.4475C12.5964 26.4279 12.5971 26.4076 12.6013 26.3865C12.6111 26.3346 12.6427 26.3051 12.696 26.2981C13.0117 26.2532 13.1941 26.0806 13.2432 25.7804C13.2544 25.713 13.2937 25.6737 13.3611 25.6625C13.6459 25.6106 13.8157 25.4457 13.8704 25.1679C13.8802 25.1202 13.902 25.0781 13.9356 25.0416L15.1584 23.7957C15.1907 23.762 15.2279 23.7339 15.27 23.7115C15.3233 23.6834 15.3605 23.642 15.3815 23.5873C15.4292 23.4596 15.451 23.4645 15.4468 23.602C15.4285 24.2208 15.4734 24.8242 15.5815 25.4121C15.5969 25.5004 15.6278 25.5453 15.6741 25.5467C15.7232 25.5482 15.7877 25.5145 15.8677 25.4457L15.8719 25.5467C15.8747 25.6183 15.9119 25.6541 15.9835 25.6541L18.8268 25.6562C18.9054 25.6562 18.9447 25.6162 18.9447 25.5362L18.9279 22.4613C18.9265 22.3729 18.9707 22.3287 19.0605 22.3287L20.1044 22.3203C20.1998 22.3203 20.2741 22.3603 20.3275 22.4403L22.1732 25.2374Z" fill="white"/>
<circle cx="20" cy="20" r="19.5" stroke="black" stroke-opacity="0.05"/>
</svg>
