<svg width="40" height="40" viewBox="0 0 40 40" fill="none" xmlns="http://www.w3.org/2000/svg">
<circle cx="20" cy="20" r="20" fill="#002447"/>
<g clip-path="url(#clip0_9_406884)">
<path d="M5 5H34.9647V34.9647H5V5Z" fill="#002447"/>
<path fill-rule="evenodd" clip-rule="evenodd" d="M5.94346 12.0427C6.29328 12.0462 6.65017 12.025 6.99646 12.0886C9.58657 12.1346 12.1767 12.071 14.7632 12.0992C14.9965 12.0957 15.2226 12.1558 15.4488 12.1699C16.3887 12.2688 17.3746 12.4808 18.0919 13.1346C18.7774 13.7353 19.0848 14.654 19.1307 15.5444C19.1873 15.8024 19.1802 16.0639 19.1272 16.3183C19.0848 17.1134 18.7526 17.866 18.2615 18.4844C17.7597 19.2017 16.8834 19.4879 16.0742 19.7035C15.7703 19.8059 15.4382 19.7211 15.1343 19.8342C15.364 20.1734 15.6784 20.442 15.9435 20.7529C16.5618 21.4137 17.1484 22.0992 17.7844 22.7459C18.2721 23.29 18.7562 23.8377 19.2473 24.3784C19.6608 24.7812 20.0141 25.237 20.4276 25.6328C20.3039 25.2794 20.1307 24.9367 20.0459 24.5692C19.947 24.2406 19.9293 23.8943 19.8657 23.5586C19.8304 23.0922 19.8587 22.6257 19.8551 22.1593C19.8622 22.0321 19.841 21.8907 19.9364 21.7953C20.2544 21.6717 20.6007 21.6434 20.9329 21.5657C22.0106 21.3395 23.0989 21.1628 24.1696 20.919C24.3286 21.2088 24.3074 21.548 24.3958 21.8589C24.1767 21.9861 23.9576 22.1452 23.8445 22.3819C23.5265 23.0604 23.5194 23.8271 23.5689 24.5621C23.6572 25.1346 23.8869 25.707 24.318 26.1098C24.841 26.5833 25.5512 26.8625 26.2615 26.8165C26.8905 26.7953 27.5936 26.5939 27.947 26.0321C28.2438 25.5268 28.3074 24.9261 28.3569 24.3536C28.364 21.2547 28.3604 18.1558 28.3569 15.0568C28.311 14.5621 28.2827 14.0356 27.9965 13.6116C27.7844 13.2618 27.3746 13.1098 26.9929 13.0321C26.7173 13.0038 26.4382 12.9649 26.159 12.9508L26.106 12.9049C26.0883 12.6575 26.1025 12.4066 26.106 12.1593C26.7456 12.1699 27.3887 12.1275 28.0247 12.2158C29.2791 12.2229 30.5336 12.2158 31.7915 12.2158C32.576 12.131 33.3675 12.1699 34.1519 12.1558C34.2191 12.389 34.1979 12.6328 34.1908 12.8695C34.0707 13.0179 33.8481 12.9791 33.682 13.0073C33.2226 13.0003 32.6961 13.1028 32.4134 13.502C32.1555 13.8837 32.1166 14.3607 32.0707 14.8059C32.0565 16.5303 32.0671 18.2547 32.0636 19.9791C32.053 20.3218 32.1413 20.6646 32.0954 21.0073C32.0353 21.4526 32.1025 21.9013 32.0177 22.343C31.9894 23.4702 31.7703 24.6187 31.212 25.6081C30.7738 26.3784 30.053 26.9614 29.2473 27.3077C28.5442 27.6151 27.7844 27.76 27.0318 27.8766C25.7526 28.0215 24.4346 27.9791 23.1943 27.6045C22.9011 27.5232 22.6219 27.3784 22.3145 27.3642C20.7574 27.3619 19.1991 27.3583 17.6396 27.3536C17.576 27.3607 17.5218 27.3419 17.477 27.2971C17.2756 27.1169 17.1272 26.8837 16.9541 26.6752C16.6042 26.1946 16.1943 25.7635 15.8269 25.2971C15.4488 24.8448 15.106 24.3607 14.7173 23.919C13.8657 22.9225 13.0989 21.8625 12.2049 20.9049C12.0071 20.6646 11.7597 20.4667 11.477 20.3324C11.47 21.654 11.477 22.972 11.4735 24.29C11.5336 24.8978 11.5371 25.555 11.9187 26.0639C12.2403 26.4596 12.7809 26.5551 13.2579 26.6151C13.4064 26.6399 13.5795 26.5904 13.6996 26.707C13.7279 26.8907 13.7208 27.0816 13.7067 27.2688C13.6466 27.3607 13.5406 27.3572 13.4417 27.3572C11.0318 27.3536 8.61837 27.3572 6.20848 27.3536C6.12367 27.3631 6.05771 27.3336 6.0106 27.2653C5.98586 27.0568 6.00353 26.8448 5.99646 26.6363C6.28268 26.5268 6.5901 26.5975 6.88339 26.5551C7.25088 26.4808 7.64664 26.336 7.83745 25.9932C8.09894 25.5091 8.13427 24.9402 8.18374 24.4031C8.19081 21.1028 8.18374 17.8024 8.18728 14.5056C8.18728 14.1169 8.12367 13.6929 7.87986 13.3784C7.5583 13.0391 7.04947 13.0356 6.61837 12.9649C6.37456 12.919 6.0424 13.0568 5.89046 12.7953C5.86926 12.5444 5.85512 12.283 5.94346 12.0427ZM11.477 13.4808C11.4629 15.502 11.4735 17.5268 11.4664 19.5515C12.4912 19.6823 13.5548 19.4561 14.4664 18.9755C15.1378 18.6187 15.4841 17.8695 15.5936 17.1487C15.5936 16.9119 15.636 16.6823 15.6537 16.4526C15.6431 15.7211 15.4664 14.9897 15.0883 14.3607C14.8834 14.0179 14.5901 13.7388 14.2827 13.4844C13.6254 12.9649 12.742 12.8554 11.9329 12.9084C11.6643 12.9579 11.4841 13.2123 11.477 13.4808Z" fill="white"/>
</g>
<circle cx="20" cy="20" r="19.5" stroke="black" stroke-opacity="0.05"/>
<defs>
<clipPath id="clip0_9_406884">
<rect x="5" y="5" width="30" height="30" rx="8" fill="white"/>
</clipPath>
</defs>
</svg>
