<svg width="40" height="40" viewBox="0 0 40 40" fill="none" xmlns="http://www.w3.org/2000/svg">
<circle cx="20" cy="20" r="20" fill="#1E1E23"/>
<g clip-path="url(#clip0_9_396442)">
<path fill-rule="evenodd" clip-rule="evenodd" d="M24.1888 21.8347C24.2971 20.6181 24.2971 19.3942 24.1888 18.1776C24.9314 18.7288 25.6288 19.3383 26.2745 20.0004C25.6301 20.6691 24.9326 21.2845 24.1888 21.8404V21.8347ZM23.8116 19.9661C23.8116 19.229 23.7774 18.5147 23.7088 17.829C22.4722 16.9563 21.1514 16.2097 19.7659 15.6004C18.3887 16.2117 17.0756 16.9582 15.8459 17.829C15.7006 19.2808 15.7044 20.7437 15.8574 22.1947C17.0804 23.0695 18.3879 23.8199 19.7602 24.4347C21.1436 23.8227 22.4625 23.0743 23.6974 22.2004C23.7716 21.4804 23.8116 20.7376 23.8116 19.9661ZM26.5202 19.7318C25.7896 18.9723 24.9921 18.2799 24.1374 17.6633C24.0002 16.4747 23.7602 15.3776 23.4402 14.4061C25.6802 13.9604 27.4402 14.2347 28.0688 15.2861C28.2973 15.6633 28.3659 16.1147 28.2916 16.6061C28.0302 16.5387 27.7534 16.566 27.5102 16.6831C27.267 16.8003 27.0731 16.9998 26.9629 17.2462C26.8527 17.4926 26.8333 17.7701 26.9081 18.0295C26.9829 18.2889 27.1471 18.5134 27.3716 18.6633C27.111 19.0374 26.8266 19.3943 26.5202 19.7318ZM24.1088 22.5833C25.0802 21.8747 25.9373 21.1261 26.6288 20.3776C28.1431 22.0747 28.7831 23.7147 28.1431 24.7776C27.4974 25.8518 25.7031 26.109 23.4231 25.6461C23.7316 24.7318 23.9659 23.6976 24.1088 22.5833ZM28.4459 25.0461C27.7031 26.2747 25.7259 26.6061 23.2516 26.1318C22.4173 28.3204 21.1488 29.7147 19.7259 29.7147C19.1545 29.7147 18.6116 29.4861 18.1031 29.0747C17.9305 29.1371 17.7455 29.157 17.5636 29.1328C17.3817 29.1086 17.2084 29.0409 17.0582 28.9355C16.908 28.8302 16.7853 28.6902 16.7007 28.5274C16.616 28.3647 16.5717 28.1839 16.5716 28.0004C16.5723 27.7744 16.6399 27.5537 16.7659 27.3661C16.5602 26.989 16.3659 26.5661 16.1945 26.1204C13.8002 26.5547 11.8916 26.2061 11.1659 25.0061C10.4402 23.789 11.0916 21.9661 12.7088 20.1147C11.0802 18.2576 10.4231 16.4233 11.1545 15.2004C11.4884 14.6916 11.9963 14.3219 12.5831 14.1604C12.6133 13.9029 12.7303 13.6633 12.9147 13.481C13.0992 13.2987 13.3401 13.1845 13.598 13.1573C13.8559 13.13 14.1154 13.1913 14.3339 13.331C14.5523 13.4707 14.7168 13.6806 14.8002 13.9261C15.2174 13.949 15.6631 14.0004 16.1259 14.0804C16.9545 11.7718 18.2631 10.2861 19.7259 10.2861C21.1945 10.2861 22.4973 11.7718 23.3259 14.069C25.7716 13.6061 27.7259 13.9433 28.4631 15.1604C28.7488 15.6347 28.8174 16.2004 28.7088 16.8176C28.9052 16.973 29.045 17.1887 29.1069 17.4314C29.1687 17.6742 29.1491 17.9305 29.0511 18.161C28.9531 18.3915 28.782 18.5834 28.5643 18.7072C28.3465 18.8309 28.0941 18.8798 27.8459 18.8461C27.5716 19.2633 27.2459 19.6861 26.8745 20.1147C28.5088 21.9776 29.1831 23.8233 28.4459 25.0461ZM23.6059 22.9318C23.4816 23.8231 23.2828 24.7024 23.0116 25.5604C22.1383 25.348 21.2824 25.0691 20.4516 24.7261C21.5499 24.2167 22.6048 23.6185 23.6059 22.9376V22.9318ZM22.8459 26.0461C21.8745 25.829 20.8288 25.4861 19.7602 25.029C18.7713 25.4507 17.7462 25.7816 16.6974 26.0176C16.8288 26.3776 16.9716 26.7147 17.1259 27.0233C17.3682 26.8724 17.6582 26.8176 17.9388 26.8697C18.2195 26.9218 18.4704 27.077 18.6424 27.3049C18.8143 27.5327 18.8948 27.8166 18.868 28.1008C18.8411 28.385 18.7089 28.6488 18.4974 28.8404C18.8974 29.1547 19.3259 29.3261 19.7774 29.3261C21.0059 29.3261 22.1031 28.0518 22.8459 26.0461ZM17.5202 23.9204C18.0345 24.2118 18.5545 24.4804 19.0745 24.7204C18.1888 25.0747 17.3316 25.349 16.5316 25.5318C16.2802 24.749 16.0802 23.8747 15.9488 22.9318C16.4586 23.2831 16.9829 23.6129 17.5202 23.9204ZM16.0288 25.6347C15.7145 24.7033 15.4802 23.6404 15.3374 22.4976C14.4774 21.8683 13.6778 21.1605 12.9488 20.3833C11.4631 22.0576 10.8345 23.6804 11.4745 24.7376C12.1031 25.7833 13.8288 26.0518 16.0288 25.6404V25.6347ZM13.2974 20.0004C13.904 20.6353 14.5593 21.2219 15.2574 21.7547C15.1591 20.5949 15.1591 19.4288 15.2574 18.269C14.5145 18.8404 13.8574 19.4233 13.2974 20.0004ZM15.3088 17.749C14.5021 18.3454 13.7488 19.0107 13.0574 19.7376C11.5374 18.0404 10.9031 16.4004 11.5431 15.3376C11.7903 14.9522 12.161 14.6621 12.5945 14.5147C12.651 14.7941 12.8099 15.0422 13.04 15.2105C13.27 15.3788 13.5547 15.455 13.838 15.4242C14.1214 15.3935 14.383 15.2579 14.5716 15.0442C14.7602 14.8305 14.8621 14.554 14.8574 14.269C15.2231 14.2976 15.6116 14.3433 16.0116 14.4176C15.6859 15.4061 15.4402 16.5318 15.3088 17.749ZM15.9031 17.3204C16.0345 16.3033 16.2345 15.3604 16.4974 14.5204C17.3659 14.709 18.3088 15.0061 19.2745 15.4061C18.0971 15.9449 16.969 16.5854 15.9031 17.3204ZM23.0459 14.4918C22.1659 14.6918 21.2174 15.0004 20.2459 15.4061C21.4332 15.9433 22.5709 16.5839 23.6459 17.3204C23.5145 16.2918 23.3145 15.3376 23.0459 14.4918ZM16.6059 14.1776C17.6002 14.389 18.6631 14.7318 19.7602 15.189C20.7845 14.7455 21.8483 14.3992 22.9374 14.1547C22.1945 11.9947 21.0516 10.6118 19.7774 10.6118C18.4916 10.6118 17.3431 12.0061 16.6059 14.1776ZM23.1431 20.0004C23.1431 20.9097 22.7818 21.7818 22.1389 22.4248C21.4959 23.0678 20.6238 23.429 19.7145 23.429C18.8052 23.429 17.9331 23.0678 17.2901 22.4248C16.6471 21.7818 16.2859 20.9097 16.2859 20.0004C16.2859 19.0911 16.6471 18.219 17.2901 17.5761C17.9331 16.9331 18.8052 16.5718 19.7145 16.5718C20.6238 16.5718 21.4959 16.9331 22.1389 17.5761C22.7818 18.219 23.1431 19.0911 23.1431 20.0004ZM17.3202 18.4461C17.8002 18.029 18.1888 18.2747 18.3259 18.4461C18.2402 18.3833 18.0516 18.2861 17.9831 18.389C17.9515 18.4343 17.9108 18.4724 17.8635 18.501C17.8163 18.5295 17.7636 18.5478 17.7088 18.5547V18.3947L17.3202 18.4518V18.4461ZM16.5716 18.9718C16.6516 18.829 16.8288 18.5318 16.8974 18.509C16.9659 18.4861 16.8002 18.869 16.7031 19.0576C16.6631 19.1033 16.5716 19.1433 16.5716 18.9718ZM16.7831 19.2061L16.4516 19.349V19.509C16.6059 19.4518 16.7374 19.2804 16.7831 19.2061ZM17.9659 18.6118C18.0288 18.7147 18.2288 18.9661 18.5031 19.1661C18.8459 19.4118 18.5602 20.0404 18.3259 20.1033C18.1374 20.149 18.0688 19.989 18.0631 19.909C17.8916 19.8804 17.5088 19.9547 17.3031 20.4861C17.1888 20.3547 16.9602 20.0518 16.9488 19.9147C16.9316 19.7318 17.3031 18.8861 17.5431 18.7947C17.5888 18.7833 17.6802 18.8004 17.6859 18.9661C17.7774 19.0176 17.9659 19.0233 17.9659 18.6118ZM18.6459 20.229C18.6459 20.2548 18.6357 20.2795 18.6175 20.2977C18.5993 20.3159 18.5745 20.3261 18.5488 20.3261C18.523 20.3261 18.4983 20.3159 18.4801 20.2977C18.4619 20.2795 18.4516 20.2548 18.4516 20.229C18.4516 20.2032 18.4619 20.1785 18.4801 20.1603C18.4983 20.1421 18.523 20.1318 18.5488 20.1318C18.5745 20.1318 18.5993 20.1421 18.6175 20.1603C18.6357 20.1785 18.6459 20.2032 18.6459 20.229ZM19.1774 20.629L19.4745 20.229H19.6231L19.5831 19.8461L19.8345 19.989L19.3659 20.6861L19.1774 20.629ZM18.8516 21.6861C18.9823 21.6418 19.1206 21.6245 19.2581 21.6353C19.3956 21.6461 19.5295 21.6848 19.6516 21.749C19.6002 21.7318 19.5202 21.7718 19.5659 22.0918C19.6116 22.4118 19.8116 22.4061 19.9088 22.3604C19.9513 22.2887 20.0092 22.2274 20.0784 22.1809C20.1476 22.1345 20.2263 22.104 20.3088 22.0918C20.5202 22.0747 20.5831 22.3033 20.5945 22.4176C20.7659 22.3833 20.8231 22.4918 20.7202 22.5604C20.6345 22.6176 20.6859 22.7718 20.7202 22.8461C20.5888 22.8461 20.4288 22.709 20.3602 22.6404C20.1888 22.6061 20.0745 22.7604 20.0516 22.8404C20.0402 23.0004 19.8745 23.2747 19.2516 23.1261C18.6345 22.9776 18.4916 22.7433 18.4974 22.6404H18.7488C18.4059 22.4976 18.3488 22.3147 18.3602 22.2404C18.3945 22.109 18.5431 21.8061 18.8516 21.6861Z" fill="white"/>
</g>
<circle cx="20" cy="20" r="19.5" stroke="black" stroke-opacity="0.05"/>
<defs>
<clipPath id="clip0_9_396442">
<rect width="20" height="20" fill="white" transform="translate(10 10)"/>
</clipPath>
</defs>
</svg>
