<svg width="40" height="40" viewBox="0 0 40 40" fill="none" xmlns="http://www.w3.org/2000/svg">
<circle cx="20" cy="20" r="20" fill="#003263"/>
<g clip-path="url(#clip0_9_409443)">
<path fill-rule="evenodd" clip-rule="evenodd" d="M22.3714 5.03034C22.3963 5.02078 22.4212 4.99208 22.4499 5.0093C22.4843 5.03226 22.5054 5.06861 22.5245 5.10496C22.8191 5.69233 23.1272 6.27397 23.4199 6.86134C23.4486 6.91108 23.4658 6.98187 23.418 7.02588C23.3606 7.07945 23.2898 7.12919 23.2094 7.14067C23.1253 7.13493 23.0679 7.06414 23.02 6.99909C22.9263 6.86516 22.8612 6.7121 22.7885 6.56478C22.7598 6.51312 22.7311 6.46147 22.6833 6.42703C22.645 6.42129 22.6182 6.45955 22.5819 6.46912C22.5302 6.4806 22.4824 6.50164 22.4461 6.53991C21.7592 7.26695 21.0111 7.93085 20.2573 8.5871C19.779 9.00419 19.2949 9.41363 18.8051 9.81733C18.3555 10.1923 17.8982 10.5559 17.4467 10.927C17.3989 10.9672 17.351 11.0074 17.2975 11.038C17.2439 11.0686 17.175 11.059 17.1253 11.0246C17.0736 10.9883 17.0621 10.9175 17.0755 10.8581C17.0947 10.8161 17.1329 10.7854 17.1674 10.7548C18.1316 9.96848 19.1093 9.19743 20.0545 8.38621C20.8045 7.74527 21.52 7.06606 22.2126 6.36772C22.2987 6.28927 22.3734 6.19743 22.4231 6.09221C22.4441 6.06925 22.4824 6.04437 22.4652 6.00802C22.3619 5.75738 22.2126 5.52779 22.1342 5.26759C22.1189 5.21976 22.1265 5.16427 22.1648 5.12983C22.2241 5.08009 22.3064 5.07052 22.3714 5.03034ZM15.7037 11.0897C15.8644 10.9672 16.0462 10.8562 16.249 10.8314C16.4154 10.8141 16.5857 10.8409 16.7407 10.9079C16.7885 10.9309 16.844 10.9557 16.8689 11.0093C16.8765 11.0897 16.7885 11.1337 16.7656 11.2045C16.7713 11.2504 16.8153 11.281 16.8574 11.2867C16.9569 11.302 17.0449 11.2236 17.1425 11.2446C17.1788 11.2714 17.1827 11.3326 17.1463 11.3594C17.0889 11.4073 17.0143 11.4245 16.9454 11.4474C16.7943 11.4876 16.6489 11.5469 16.5149 11.6273C16.4805 11.6502 16.4403 11.6751 16.4346 11.721C16.4365 11.767 16.4881 11.7976 16.5302 11.7803C16.6182 11.7478 16.7024 11.7076 16.7885 11.6713C16.8899 11.6254 16.9971 11.589 17.0908 11.5316C17.1387 11.5067 17.2018 11.4934 17.2477 11.5278C17.2955 11.5775 17.2822 11.6617 17.2439 11.7153C17.1827 11.788 17.0813 11.8129 17.0143 11.8798C16.9435 11.9831 16.955 12.1247 17.02 12.228C17.1119 12.3773 17.2707 12.494 17.4486 12.5074C17.5577 12.5112 17.6265 12.4079 17.7241 12.3792C17.8179 12.3658 17.9116 12.4328 17.9422 12.5208C17.969 12.6011 17.9594 12.693 18.0035 12.7695C18.0302 12.8231 18.1278 12.8154 18.1469 12.7561C18.1795 12.6738 18.124 12.5877 18.1374 12.5036C18.1661 12.4175 18.2732 12.3868 18.3536 12.4136C18.543 12.4691 18.7362 12.517 18.9256 12.5782C19.1399 12.7121 19.3332 12.8881 19.5685 12.9857C19.712 13.0469 19.867 13.1005 19.9684 13.2249C20.0124 13.2746 20.0392 13.3569 19.9913 13.4124C19.9397 13.464 19.8612 13.464 19.7943 13.4793C19.7005 13.4985 19.5934 13.5252 19.536 13.6113C19.4786 13.6974 19.425 13.7874 19.3676 13.8715C19.3255 13.9251 19.2452 13.9136 19.1878 13.8964C19.0844 13.8639 18.9811 13.8199 18.895 13.751C18.8109 13.684 18.8147 13.5482 18.7075 13.508C18.6922 13.5348 18.675 13.5635 18.6846 13.596C18.7075 13.6706 18.7726 13.728 18.7841 13.8065C18.7994 13.9022 18.8204 13.9978 18.8434 14.0916C18.8989 14.082 18.9601 14.0571 19.0117 14.0916C19.0672 14.1222 19.1208 14.1949 19.0844 14.2599C19.0366 14.3288 18.9505 14.3518 18.8816 14.3881C18.742 14.4455 18.654 14.5852 18.5086 14.6292C18.4665 14.6445 18.4282 14.6617 18.3861 14.6732C18.3249 14.6866 18.2598 14.6522 18.1986 14.6655C18.1546 14.7 18.1508 14.765 18.1603 14.8167C18.1852 14.9449 18.2063 15.075 18.2369 15.2032C18.256 15.2969 18.3153 15.3754 18.3612 15.4596C18.4072 15.5361 18.432 15.6222 18.4646 15.7064C18.4818 15.7465 18.5047 15.7905 18.5468 15.8078C18.5813 15.8192 18.6023 15.7829 18.6195 15.7599C18.6578 15.6949 18.6961 15.626 18.7554 15.5763C18.9237 15.4251 19.1572 15.3467 19.3829 15.3696C19.4327 15.4098 19.4767 15.4576 19.5322 15.4902C19.5915 15.5284 19.6833 15.5055 19.7101 15.4366C19.7407 15.3352 19.7197 15.2166 19.7828 15.1247C19.8364 15.0425 19.9569 15.0061 20.0449 15.0539C20.0813 15.0712 20.1119 15.1152 20.0889 15.1553C20.0373 15.2721 19.9205 15.3658 19.932 15.5055C19.9301 15.6184 20.0468 15.6738 20.0966 15.7638C20.11 15.8709 20.0373 15.9647 20.0315 16.0699C20.0181 16.1923 20.0985 16.2937 20.1482 16.3971C20.1769 16.4602 20.2286 16.5252 20.2094 16.5999C20.198 16.6496 20.1463 16.6764 20.0966 16.684C19.9952 16.6993 19.8899 16.684 19.7885 16.7032C19.536 16.7529 19.2873 16.8161 19.0309 16.8486C18.9314 16.8543 18.8491 16.9136 18.763 16.9519C18.6521 16.9997 18.5755 17.0954 18.4703 17.1509C18.3938 17.193 18.3153 17.2274 18.2407 17.2714C18.1546 17.3326 18.08 17.4053 17.9958 17.4666C17.948 17.501 17.8734 17.5144 17.8255 17.4742C17.7853 17.4321 17.7758 17.3728 17.7739 17.3173C17.7739 17.214 17.8006 17.103 17.8734 17.0265C17.9346 16.9615 18.0188 16.9251 18.1029 16.9041C18.1642 16.8849 18.233 16.8696 18.2713 16.8141C18.3038 16.7548 18.2656 16.6745 18.2043 16.6534C18.0666 16.5999 17.9154 16.6649 17.7758 16.6209C17.705 16.596 17.6591 16.5348 17.6131 16.4812C17.5557 16.4066 17.4907 16.3339 17.4601 16.2421C17.4448 16.2057 17.4582 16.1675 17.4677 16.133C17.5443 16.1101 17.6285 16.1158 17.6992 16.0737C17.7662 16.0316 17.7719 15.9417 17.8121 15.8786C17.8447 15.8441 17.8848 15.8192 17.9212 15.7905C17.992 15.8097 18.0628 15.8307 18.1355 15.846C18.1661 15.8556 18.1986 15.846 18.2292 15.8365C18.1871 15.6987 18.0628 15.6145 17.9767 15.5074C17.9422 15.4749 17.9403 15.4251 17.9403 15.3811C17.9403 15.2625 17.9767 15.1496 17.9786 15.031C17.9805 14.9391 17.9767 14.8416 17.9212 14.765C17.8351 14.8186 17.7796 14.92 17.6744 14.9372C17.5749 14.943 17.4735 14.9391 17.374 14.9449C17.3434 14.9449 17.3415 14.9831 17.3262 15.0023C17.4237 15.0482 17.5404 15.0157 17.6361 15.0712C17.7279 15.1171 17.7777 15.2147 17.814 15.3046C17.8447 15.3888 17.8619 15.4883 17.8217 15.5724C17.7739 15.6815 17.682 15.758 17.5998 15.8403C17.4524 15.8575 17.3051 15.8728 17.1578 15.8919C17.1061 15.9015 17.0468 15.8919 17.0124 15.8479C16.9301 15.7465 16.9263 15.6107 16.8938 15.4902C16.867 15.3926 16.8325 15.2893 16.7579 15.2185C16.735 15.1917 16.7024 15.1687 16.6871 15.1362C16.6718 15.0712 16.6986 15.0061 16.6967 14.9411C16.689 14.9066 16.6527 14.8894 16.6316 14.8664C16.5896 14.9372 16.5494 15.0233 16.58 15.1056C16.6476 15.2714 16.7165 15.4372 16.7866 15.603C16.8115 15.6566 16.7943 15.7198 16.8115 15.7772C16.9014 16.1962 16.9932 16.6133 17.087 17.0323C17.0947 16.8773 17.0947 16.7242 17.0947 16.5692C17.0966 16.5291 17.0889 16.4812 17.1214 16.4506C17.2209 16.7835 17.3109 17.1203 17.4065 17.4551C17.4735 17.7421 17.5328 18.031 17.594 18.3199C17.6055 18.3581 17.6112 18.4041 17.6495 18.427C17.7222 18.4634 17.8274 18.427 17.8542 18.3467C17.8982 18.2357 17.9288 18.119 17.9748 18.008C18.0226 17.9028 18.0302 17.7784 18.1087 17.6885C18.1508 17.6349 18.2197 17.6254 18.2751 17.5948C18.3498 17.5259 18.3517 17.413 18.4186 17.3403C18.4665 17.2867 18.5219 17.2408 18.5851 17.2064C18.6367 17.193 18.6903 17.1949 18.7439 17.1891C18.8797 17.1853 18.9964 17.1011 19.1265 17.0724C19.2107 17.0552 19.2968 17.0533 19.3829 17.0361C19.4652 17.015 19.5398 16.9691 19.624 16.9576C19.7292 16.9442 19.8344 16.9309 19.9378 16.9098C20.0066 16.8926 20.0851 16.9117 20.1348 16.9634C20.1961 17.0227 20.2114 17.1145 20.2056 17.1968C20.2018 17.2638 20.1922 17.3403 20.1367 17.3843C20.1023 17.4168 20.0449 17.4647 20.0851 17.5144C20.1884 17.5967 20.351 17.5412 20.4448 17.6426C20.5003 17.6981 20.483 17.8148 20.4008 17.832C20.1903 17.9009 19.9799 17.9678 19.7694 18.0367C19.6623 18.0712 19.6029 18.2032 19.645 18.3065C19.6737 18.3658 19.7579 18.3486 19.8 18.3141C19.8555 18.2587 19.8765 18.1783 19.9263 18.119C19.9646 18.0884 20.0105 18.0712 20.0526 18.0482C20.1234 18.0157 20.1999 17.9717 20.2802 17.9927C20.3568 18.0061 20.4142 18.0769 20.4123 18.1553C20.4065 18.3696 20.3816 18.5839 20.3759 18.8001C20.4658 18.8173 20.5156 18.7178 20.5137 18.6413C20.5137 18.5131 20.4984 18.3792 20.5347 18.2529C20.5462 18.2127 20.5711 18.163 20.6208 18.1592C20.6552 18.1515 20.6859 18.1764 20.7088 18.2013C20.7949 18.3008 20.8351 18.4404 20.8006 18.5686C20.7796 18.6528 20.7681 18.7408 20.7815 18.8269C20.8121 18.7829 20.837 18.7236 20.8963 18.7121C20.9556 18.7121 20.9901 18.7695 20.9958 18.8212C21.0092 18.9436 20.9728 19.0661 20.9231 19.1789C20.8848 19.2689 20.858 19.3684 20.8657 19.4678C20.8676 19.4946 20.8753 19.5214 20.8944 19.5405C20.9307 19.5501 20.9728 19.531 20.9824 19.4946C21.0073 19.3951 21.0207 19.2918 21.0436 19.1923C21.1221 19.1904 21.2043 19.2344 21.2235 19.3167C21.2617 19.464 21.2388 19.619 21.2235 19.7682C21.212 19.9136 21.1661 20.0514 21.1431 20.1949C21.124 20.3135 21.1144 20.434 21.0972 20.5508C21.0513 20.7153 20.948 20.8626 20.9288 21.0348C20.8982 21.2127 20.8657 21.3907 20.837 21.5686C20.8274 21.67 20.7624 21.7504 20.7184 21.8384C20.6839 21.9092 20.6418 21.9761 20.6093 22.0488C20.5902 22.0986 20.5787 22.1655 20.6227 22.2057C20.6763 22.2134 20.7299 22.1904 20.7834 22.1962C20.8351 22.2076 20.8523 22.2708 20.8427 22.3167C20.8313 22.3971 20.7528 22.4391 20.7184 22.508C20.6992 22.5272 20.7241 22.5386 20.7413 22.5463C20.7911 22.5367 20.8351 22.5099 20.881 22.4908C20.8887 22.5941 20.8906 22.6993 20.9001 22.8027C20.9078 22.8696 20.9231 22.9462 20.9786 22.9921C21.0054 23.0131 21.057 23.0303 21.0704 22.9863C21.08 22.883 21.0035 22.7816 21.0398 22.6783C21.1068 22.6534 21.1718 22.7108 21.212 22.7587C21.2866 22.8715 21.3268 23.0055 21.3287 23.1394C21.3325 23.2772 21.2694 23.4168 21.1527 23.4914C21.0857 23.5354 20.9881 23.4972 20.9327 23.5622C20.9186 23.575 20.9052 23.5884 20.8925 23.6024C20.837 23.5737 20.7777 23.5527 20.726 23.5182C20.6839 23.4647 20.6705 23.3958 20.6304 23.3422C20.5883 23.3059 20.5328 23.2925 20.4907 23.2561C20.4352 23.1566 20.4046 23.0437 20.3262 22.9596C20.219 22.8409 20.1731 22.684 20.1023 22.5444C20.0755 22.4985 20.0908 22.4468 20.0966 22.399C20.0162 22.309 19.932 22.2249 19.8536 22.1349C19.7809 22.0393 19.7713 21.913 19.7522 21.7963C19.7197 21.5571 19.7216 21.3103 19.6489 21.0788C19.6202 20.9793 19.5551 20.899 19.4996 20.8129C19.4441 20.7268 19.4575 20.6101 19.3887 20.5297C19.2394 20.3479 19.0615 20.1949 18.8912 20.0361C18.8625 20.0074 18.8376 19.9749 18.8204 19.9385C18.7783 19.8467 18.7362 19.7548 18.6999 19.6592C18.7209 19.6152 18.7515 19.575 18.7764 19.531C18.7975 19.4965 18.7917 19.4564 18.7955 19.4181C18.719 19.443 18.6329 19.4659 18.5813 19.5329C18.5468 19.5788 18.5258 19.6458 18.5564 19.6993C18.6023 19.7701 18.6616 19.8295 18.7056 19.9022C18.7248 19.9385 18.7267 20.0016 18.6788 20.017C18.61 20.0342 18.5353 20.0131 18.4741 19.9806C18.3593 19.9155 18.2598 19.8141 18.2197 19.6879C18.189 19.6018 18.2139 19.5099 18.1929 19.4219C18.1661 19.3569 18.1106 19.309 18.08 19.2459C18.0226 19.1196 18.0073 18.978 17.9633 18.846C17.9403 18.7733 17.8714 18.7312 17.8026 18.7121C17.7643 18.7025 17.7165 18.6777 17.6801 18.7083C17.6686 18.7733 17.7107 18.8326 17.7337 18.8919C17.8064 19.0527 17.86 19.2229 17.9212 19.3875C17.9709 19.552 18.0283 19.7147 18.1202 19.862C18.168 19.9385 18.2235 20.015 18.3019 20.0629C18.388 20.1164 18.4932 20.1203 18.5908 20.1375C18.7018 20.2504 18.8128 20.3633 18.9218 20.478C18.9563 20.5163 19.0079 20.5297 19.0462 20.5622C19.1112 20.633 19.1476 20.7287 19.1552 20.8243C19.1686 20.9564 19.138 21.0884 19.1285 21.2185C19.1227 21.2893 19.1667 21.3467 19.1935 21.4079C19.2681 21.561 19.3447 21.714 19.4212 21.8671C19.4461 21.913 19.4422 21.9647 19.448 22.0144C19.4614 22.1617 19.4652 22.311 19.4977 22.4544C19.5092 22.5386 19.5513 22.6247 19.513 22.7051C19.557 22.7931 19.5934 22.8849 19.6527 22.9615C19.7579 23.105 19.8631 23.2485 19.9703 23.392C20.1023 23.5948 20.2975 23.744 20.462 23.9219C20.5557 24.0272 20.6074 24.1649 20.6285 24.3027C20.6361 24.3811 20.6418 24.4691 20.5978 24.538C20.5577 24.603 20.5156 24.6643 20.4811 24.7331C20.5538 24.7542 20.6457 24.7446 20.6954 24.6815C20.7452 24.6203 20.7279 24.538 20.7337 24.4653C20.7394 24.3658 20.7299 24.2644 20.7432 24.163C20.7605 24.1171 20.816 24.1037 20.8619 24.0999C20.9097 24.0922 20.925 24.1496 20.9441 24.1821C21.0188 24.3562 21.0666 24.538 21.1278 24.7159C21.1756 24.846 21.1737 25.0048 21.0876 25.1196C21.0245 25.2057 20.9575 25.2918 20.9193 25.3913C20.8925 25.4965 20.9269 25.6094 20.8867 25.7127C20.8676 25.7797 20.8313 25.8428 20.8255 25.9136C20.8447 26.0303 20.9097 26.1337 20.9269 26.2504C20.9422 26.3346 20.9709 26.4206 20.9461 26.5067C20.9212 26.5909 20.881 26.6713 20.8427 26.7497C20.7643 26.9085 20.6763 27.0616 20.594 27.2166C20.4697 27.4596 20.3989 27.7274 20.2592 27.9627C20.2075 28.0431 20.1444 28.1196 20.108 28.2076C20.0755 28.3052 20.0755 28.4124 20.043 28.5099C20.0086 28.5922 19.9703 28.6726 19.9359 28.7548C19.8957 28.8371 19.9052 28.9328 19.8938 29.0227C19.8823 29.1911 19.8555 29.3575 19.8306 29.524C19.8134 29.6158 19.8689 29.6981 19.9091 29.7784C19.9837 29.9066 20.0353 30.0635 19.9894 30.2108C19.9531 30.3103 19.8861 30.3945 19.844 30.4921C19.8325 30.5342 19.8383 30.5801 19.8364 30.6241C19.9205 30.6337 20.0258 30.6088 20.087 30.6834C20.1234 30.7255 20.0927 30.781 20.0602 30.8135C19.9932 30.8843 19.8995 30.934 19.8631 31.0278C19.8383 31.0737 19.888 31.1081 19.911 31.1445C19.9531 31.0967 19.9856 31.0412 20.0373 31.0029C20.0908 30.9666 20.1635 30.9895 20.2056 31.0354C20.3242 31.1464 20.4486 31.2516 20.5634 31.3645C20.5902 31.4334 20.6131 31.5099 20.5864 31.5807C20.5519 31.686 20.5328 31.795 20.485 31.8945C20.4563 31.9557 20.3778 31.9442 20.3242 31.927C20.2152 31.8926 20.1482 31.795 20.0813 31.7108C20.0124 31.6324 19.9435 31.552 19.8631 31.487C19.8057 31.4391 19.7273 31.4258 19.6814 31.3664C19.6661 31.2995 19.6948 31.2268 19.6718 31.1617C19.6049 31.0737 19.4786 31.0641 19.404 30.9857C19.3485 30.9302 19.2987 30.8422 19.3351 30.7638C19.3523 30.7178 19.4078 30.7236 19.4461 30.7121C19.4212 30.5992 19.3389 30.5189 19.2777 30.427C19.1897 30.3046 19.1265 30.1668 19.0806 30.0252C19.0385 29.8894 19.0098 29.7459 19.0251 29.6043C19.0328 29.5335 19.0711 29.4742 19.1036 29.4149C19.2031 29.237 19.2815 29.0437 19.3198 28.8409C19.3714 28.5176 19.3217 28.1904 19.3045 27.8671C19.293 27.6872 19.3026 27.5093 19.3102 27.3314C19.3121 27.2127 19.316 27.0922 19.2777 26.9793C19.2547 26.8951 19.2279 26.8129 19.226 26.7249C19.2375 26.6426 19.2873 26.5756 19.3064 26.4953C19.3274 26.3996 19.3389 26.3039 19.3485 26.2064C19.3561 26.1203 19.36 26.0284 19.3198 25.95C19.3045 25.9213 19.2719 25.9079 19.2471 25.8907C19.1705 25.994 19.1093 26.1184 19.1208 26.2504C19.1342 26.3919 19.1533 26.5335 19.1686 26.677C19.1782 26.7363 19.1361 26.7861 19.1304 26.8435C19.1227 26.9124 19.1304 26.9831 19.1208 27.052C19.094 27.0826 19.0538 27.0999 19.0213 27.1228C18.9486 27.0807 18.8778 27.0348 18.8032 26.9946C18.7114 26.9564 18.61 26.9411 18.5162 26.9028C18.4397 26.8645 18.3785 26.8033 18.3019 26.7689C18.1527 26.6987 18.0035 26.6292 17.8542 26.5603C17.8293 26.5508 17.8102 26.5316 17.7968 26.5106C17.7222 26.3996 17.6572 26.2791 17.5615 26.1834C17.4467 26.0705 17.3931 25.9136 17.3147 25.7759C17.2668 25.6687 17.1463 25.6171 17.0908 25.5157C17.0086 25.2708 16.9244 25.024 16.8421 24.7772C16.7866 24.7523 16.7235 24.7331 16.6871 24.6796C16.6221 24.5839 16.5915 24.471 16.5723 24.3581C16.5455 24.186 16.513 24.0138 16.4958 23.8397C16.4824 23.7459 16.5188 23.6464 16.4862 23.5565C16.3714 23.2178 16.2547 22.8811 16.138 22.5444C16.1036 22.4525 16.0825 22.353 16.0385 22.265C15.9199 22.0125 15.8032 21.7599 15.6846 21.5074C15.6559 21.4442 15.6501 21.3754 15.6367 21.3065C15.6291 21.2721 15.6387 21.2357 15.6501 21.2032C15.7133 21.0425 15.698 20.8645 15.7228 20.6962C15.7592 20.6923 15.7994 20.6923 15.8223 20.7268C15.9199 20.8454 15.9811 20.9927 16.0921 21.0979C16.1285 21.1305 16.1667 21.163 16.2146 21.1745C16.2586 21.1649 16.2624 21.1056 16.2528 21.0692C16.2299 20.9755 16.1648 20.899 16.1017 20.8301C15.9161 20.6502 15.8357 20.3939 15.7726 20.1509C15.7056 19.8601 15.6654 19.5654 15.6119 19.2746C15.5411 18.8709 15.4837 18.4653 15.3861 18.0654C15.3574 17.964 15.3306 17.8607 15.2771 17.7689C15.2579 17.7363 15.2235 17.7 15.1833 17.7191C15.0226 17.7727 14.8848 17.8817 14.7777 18.0118C14.7165 18.0865 14.6744 18.1802 14.6897 18.2778C14.7528 18.9206 14.9135 19.5501 15.1049 20.1662C15.1967 20.4647 15.3019 20.7593 15.4091 21.052C15.4722 21.2414 15.5392 21.4328 15.564 21.6317C15.5698 21.7159 15.5774 21.8231 15.5047 21.8824C15.4454 21.9245 15.3555 21.8862 15.3459 21.8135C15.0666 20.7995 14.7873 19.7835 14.5079 18.7676C14.4907 18.7102 14.4888 18.6337 14.4295 18.6011C14.3797 18.5743 14.33 18.6164 14.2802 18.6222C14.1941 18.6317 14.1023 18.5916 14.0545 18.5189C14.0239 18.4787 14.0315 18.4194 14.0679 18.3868C14.1195 18.3448 14.198 18.3371 14.2381 18.2816C14.2879 18.2185 14.3376 18.1573 14.4008 18.1075C14.4582 18.0616 14.5328 18.0425 14.5844 17.9889C14.6265 17.9487 14.6705 17.899 14.6629 17.8358C14.6572 17.7631 14.6744 17.6885 14.6514 17.6177C14.6285 17.5393 14.6017 17.4627 14.5806 17.3843C14.5577 17.2676 14.5864 17.1432 14.5519 17.0265C14.5232 16.9175 14.4563 16.8256 14.395 16.7319C14.3281 16.6362 14.263 16.5386 14.1846 16.4525C14.1425 16.4047 14.0774 16.3894 14.0353 16.3435C14.0047 16.2976 14.043 16.2249 14.0985 16.2191C14.1597 16.2134 14.2133 16.2497 14.2611 16.2823C14.374 16.3684 14.4658 16.4793 14.5404 16.5979C14.6705 16.8084 14.7299 17.0571 14.7413 17.302C14.749 17.4245 14.7681 17.5527 14.8408 17.6541C14.8676 17.6923 14.9288 17.7268 14.9652 17.6809C15.0436 17.6024 15.145 17.5412 15.1986 17.4398C15.1833 17.4206 15.1603 17.4015 15.1355 17.4092C15.08 17.4226 15.0341 17.4551 14.9805 17.4723C14.9499 17.4838 14.9174 17.4666 14.8867 17.4589C14.8887 17.3958 14.8944 17.3346 14.8963 17.2714C14.9021 17.2217 14.8619 17.1815 14.858 17.1337C14.8523 17.0724 14.8638 17.0093 14.8542 16.9481C14.8332 16.8352 14.7987 16.7204 14.726 16.6286C14.6093 16.4908 14.4926 16.3511 14.3721 16.2153C14.3013 16.1598 14.2114 16.1349 14.1329 16.0909C14.0755 16.0641 14.0717 15.9857 14.0832 15.9302C14.1253 15.7427 14.2209 15.5724 14.3338 15.4194C14.4543 15.2625 14.5998 15.1209 14.77 15.0176C14.8427 14.9736 14.9288 14.9487 14.992 14.8875C15.0532 14.8282 15.1068 14.7593 15.1642 14.6962C15.2235 14.6445 15.1814 14.5412 15.1182 14.5163C15.0398 14.5508 15.0168 14.6522 14.9327 14.677C14.8734 14.6981 14.7968 14.7038 14.749 14.6522C14.6285 14.5278 14.4945 14.4187 14.3644 14.3039C14.2917 14.2389 14.2056 14.1758 14.1827 14.0782C14.1693 14.0246 14.1788 13.9538 14.2343 13.9328C14.2898 13.927 14.3453 13.9423 14.4008 13.9462C14.4563 13.9557 14.5098 13.9175 14.5385 13.8715C14.5615 13.8371 14.5443 13.795 14.5385 13.7567C14.573 13.7083 14.6074 13.6598 14.6418 13.6113C14.6112 13.5195 14.5309 13.4506 14.5137 13.353C14.4984 13.2861 14.5079 13.2134 14.5347 13.1502C14.5959 12.9838 14.7088 12.8422 14.8313 12.7159C14.925 12.6279 15.0322 12.5399 15.1642 12.5227C15.2388 12.5093 15.2943 12.5743 15.3593 12.5954C15.4473 12.5877 15.4837 12.494 15.5086 12.4213C15.5679 12.4404 15.6176 12.4768 15.6674 12.5131C15.7037 12.5456 15.7554 12.5074 15.7668 12.4672C15.7802 12.406 15.7592 12.339 15.7822 12.2778C15.7936 12.2434 15.8223 12.2185 15.8491 12.1974C15.962 12.1094 16.073 12.0214 16.1859 11.9353C16.2184 11.9124 16.2471 11.8703 16.2279 11.8301C16.1992 11.8071 16.1629 11.8243 16.1399 11.8435C16.0672 11.899 16.0003 11.9602 15.9276 12.0138C15.8453 12.0731 15.7477 12.1056 15.6712 12.1706C15.5832 12.2548 15.5219 12.3754 15.3995 12.4155C15.3536 12.4347 15.2943 12.4041 15.3 12.3505C15.3211 12.2491 15.4014 12.163 15.388 12.0559C15.3708 11.899 15.2885 11.744 15.3306 11.5833C15.388 11.3786 15.543 11.2178 15.7037 11.0897ZM16.5704 11.2504C16.5398 11.2733 16.5149 11.302 16.4824 11.3231C16.4422 11.3479 16.3867 11.3537 16.3561 11.3939C16.3293 11.4283 16.3714 11.4819 16.4116 11.4704C16.4939 11.4551 16.5704 11.413 16.6412 11.369C16.7063 11.3269 16.6355 11.2198 16.5704 11.2504ZM16.1285 12.1247C16.1036 12.1381 16.1017 12.1706 16.094 12.1955C16.0806 12.274 16.0079 12.3352 16.0347 12.4194C16.0672 12.406 16.0998 12.3888 16.1361 12.3792C16.1705 12.3811 16.205 12.3888 16.2394 12.3945C16.2566 12.318 16.2643 12.2357 16.2337 12.163C16.2184 12.1228 16.1667 12.1056 16.1285 12.1247ZM17.6074 12.6738C17.5883 12.7255 17.6112 12.781 17.6304 12.8288C17.6572 12.8116 17.6878 12.7963 17.6992 12.7657C17.726 12.7064 17.7586 12.6241 17.6954 12.5763C17.661 12.6011 17.6189 12.6279 17.6074 12.6738ZM15.3631 12.781C15.2292 12.7638 15.101 12.8326 15.013 12.9302C14.86 13.0948 14.8006 13.332 14.8198 13.5539C14.8332 13.7261 14.9212 13.8868 15.0417 14.0074C15.1297 14.0954 15.2177 14.1777 15.3057 14.2638C15.3612 14.3097 15.3536 14.39 15.3995 14.4417C15.4626 14.5144 15.5411 14.5661 15.6176 14.6215C15.7573 14.7153 15.8855 14.8263 16.0309 14.9104C16.0883 14.9449 16.1629 14.9334 16.2107 14.8913C16.3389 14.7746 16.4154 14.6005 16.5762 14.5259C16.6163 14.5087 16.6737 14.4819 16.7101 14.5201C16.7617 14.589 16.7675 14.6809 16.8115 14.7536C16.8172 14.6464 16.8172 14.5335 16.8708 14.436C16.9014 14.3728 16.955 14.2982 17.0353 14.3097C17.1042 14.3652 17.1291 14.4666 17.219 14.4953C17.2917 14.5221 17.3682 14.5584 17.4467 14.5354C17.5194 14.5125 17.5557 14.434 17.573 14.3652C17.6093 14.2159 17.6093 14.061 17.661 13.9175C17.6763 13.8754 17.7069 13.8333 17.7547 13.8333C17.8351 13.8333 17.9021 13.8983 17.9824 13.8926C18.0475 13.8811 18.0915 13.8237 18.1202 13.7682C18.1833 13.64 18.1986 13.4946 18.2063 13.355C18.2063 13.2402 18.2139 13.1215 18.1718 13.0125C18.1565 12.9704 18.1202 12.9302 18.0723 12.9417C18.0207 12.9321 18.0149 12.9953 18.013 13.0316C18.0149 13.1732 18.0589 13.3205 18.0092 13.4583C17.9537 13.5999 17.8102 13.6783 17.6763 13.73C17.6131 13.7587 17.5443 13.7338 17.4792 13.7319C17.4276 13.7759 17.4945 13.8218 17.5232 13.8543C17.4907 13.8926 17.4524 13.9251 17.4295 13.9691C17.4084 14.0303 17.4046 14.0973 17.3855 14.1585C17.374 14.2006 17.3242 14.2198 17.286 14.2064C17.2592 14.1432 17.2726 14.0724 17.2496 14.0093C17.2056 13.8601 17.0793 13.7625 16.9952 13.6381C16.9492 13.5712 16.8918 13.5004 16.8957 13.4143C16.8976 13.3263 16.8899 13.2363 16.9129 13.1502C16.9301 13.089 16.9779 13.0412 16.9913 12.9761C16.9454 12.9379 16.8746 12.9608 16.8421 13.0048C16.7598 13.1139 16.7101 13.2555 16.5857 13.3263C16.5092 13.3722 16.4001 13.4162 16.3179 13.3588C16.2279 13.2803 16.2165 13.1483 16.1457 13.0584C16.0711 12.9972 15.9658 13.0067 15.8893 12.9493C15.8357 12.8996 15.8319 12.8173 15.7726 12.7733C15.7171 12.781 15.6712 12.8154 15.6176 12.8307C15.5755 12.8422 15.5296 12.8403 15.4856 12.8422C15.5124 12.8059 15.5296 12.7657 15.5353 12.7217C15.4626 12.6949 15.432 12.7963 15.3631 12.781ZM17.5577 13.0048C17.5041 13.0852 17.5519 13.1866 17.5806 13.267C17.5985 13.2733 17.6157 13.2791 17.6323 13.2842C17.6763 13.2191 17.7241 13.1483 17.7241 13.0661C17.7241 12.9857 17.6112 12.9685 17.5577 13.0048ZM14.5481 14.0112C14.506 14.0495 14.4582 14.0858 14.4237 14.1317C14.4256 14.1375 14.4276 14.1528 14.4295 14.1604C14.4754 14.1834 14.5232 14.1509 14.5691 14.1413C14.5844 14.1018 14.5998 14.0616 14.6151 14.0208C14.5921 14.017 14.5698 14.0138 14.5481 14.0112ZM15.1489 14.8741C15.1642 14.9219 15.2101 14.9525 15.256 14.9659C15.3938 15.0067 15.5309 15.0476 15.6674 15.0884C15.7515 15.1152 15.8357 15.1458 15.9084 15.1993C15.9524 15.2319 15.9945 15.2701 16.0481 15.2816C16.0825 15.2893 16.0921 15.2491 16.1093 15.228C16.0366 15.1783 15.9601 15.1324 15.8855 15.0865C15.719 15.0023 15.5468 14.9258 15.3804 14.8435C15.3268 14.8205 15.2732 14.7823 15.212 14.7899C15.1718 14.7937 15.1469 14.8358 15.1489 14.8741ZM16.3121 15.096C16.2739 15.1133 16.2471 15.1649 16.27 15.2051C16.2911 15.251 16.3714 15.2548 16.3887 15.2051C16.4193 15.1553 16.3695 15.0807 16.3121 15.096ZM17.219 15.1362C17.1291 15.186 17.0793 15.3199 17.1578 15.4041C17.1827 15.4002 17.2075 15.4002 17.2324 15.3945C17.3242 15.3658 17.3721 15.2414 17.3204 15.1611C17.2994 15.1266 17.2535 15.1171 17.219 15.1362ZM16.404 15.4328C16.358 15.4538 16.316 15.4959 16.3121 15.5495C16.3274 15.6069 16.3925 15.6279 16.4441 15.6432C16.536 15.6375 16.58 15.4978 16.5092 15.4385C16.4786 15.4117 16.4365 15.4175 16.404 15.4328ZM15.3899 15.7752C15.344 15.8154 15.2828 15.8633 15.2828 15.9302C15.3191 16.0067 15.3651 16.0814 15.4263 16.1388C15.5181 16.2306 15.7018 16.1962 15.7477 16.0737C15.763 15.9742 15.7477 15.869 15.7936 15.7752C15.7228 15.7752 15.6501 15.7676 15.587 15.7331C15.52 15.6968 15.4435 15.7293 15.3899 15.7752ZM16.2356 15.7676C16.1782 15.8135 16.1418 15.8843 16.117 15.9532C16.0998 15.9876 16.1304 16.0603 16.1763 16.0278C16.2241 15.98 16.2777 15.9321 16.3026 15.8671C16.3198 15.825 16.2949 15.7312 16.2356 15.7676ZM16.3753 16.0737C16.3676 16.1196 16.3657 16.177 16.404 16.2115C16.448 16.2421 16.5207 16.2115 16.5283 16.1579C16.5436 16.0488 16.5704 15.936 16.5302 15.8288C16.4709 15.9034 16.3944 15.9742 16.3753 16.0737ZM19.5455 15.9972C19.3887 16.0814 19.2069 16.1043 19.0328 16.0967C18.962 16.0928 18.8912 16.0737 18.8204 16.0794C18.7764 16.0814 18.7668 16.133 18.7458 16.1636C18.7114 16.2363 18.6501 16.2918 18.5774 16.3263C18.5143 16.3607 18.4301 16.3779 18.3995 16.4506C18.3823 16.4793 18.4052 16.508 18.4167 16.5348C18.4875 16.4985 18.5583 16.464 18.6214 16.4181C18.6903 16.3664 18.7764 16.353 18.8587 16.3358C18.9754 16.3148 19.0959 16.2956 19.2146 16.3071C19.3121 16.3148 19.3925 16.3856 19.4881 16.399C19.5379 16.4047 19.5647 16.3511 19.5857 16.3148C19.6412 16.2115 19.712 16.1158 19.7771 16.0182C19.7904 15.9953 19.8057 15.9723 19.8077 15.9474C19.8 15.9206 19.7751 15.9015 19.7484 15.9073C19.6756 15.9226 19.6106 15.9647 19.5455 15.9972ZM16.2949 16.267C16.27 16.2823 16.2528 16.309 16.2375 16.3339C16.1418 16.5023 16.0596 16.6745 15.9677 16.8428C15.9142 16.9442 15.8338 17.0265 15.7649 17.1164C15.8013 17.1241 15.8396 17.1337 15.8759 17.1164C15.9773 17.0763 16.0098 16.9634 16.0672 16.8792C16.1418 16.7357 16.2413 16.6075 16.3351 16.4755C16.3638 16.4296 16.4001 16.3817 16.4021 16.3263C16.4059 16.2727 16.337 16.2383 16.2949 16.267ZM15.8855 16.3798C15.8568 16.4334 15.8185 16.4812 15.7975 16.5386C15.8051 16.575 15.8453 16.5826 15.874 16.5654C15.9658 16.5233 16.0424 16.4315 16.0404 16.3282C16.0424 16.2918 16.0137 16.2708 15.9888 16.2516C15.9467 16.288 15.9123 16.332 15.8855 16.3798ZM16.6623 16.3167C16.6355 16.3454 16.6393 16.3951 16.6278 16.4334C16.6202 16.5042 16.58 16.5654 16.5455 16.6266C16.4518 16.7931 16.3867 16.9729 16.3026 17.1432C16.2432 17.258 16.1591 17.3556 16.0806 17.457C16.05 17.501 16.0137 17.568 16.0519 17.6158C16.0749 17.6522 16.1246 17.6349 16.1552 17.6235C16.2471 17.5833 16.2873 17.4857 16.3293 17.4015C16.4441 17.17 16.5838 16.95 16.6661 16.7051C16.7043 16.5903 16.7445 16.4755 16.7484 16.355C16.7484 16.3148 16.6948 16.2937 16.6623 16.3167ZM15.1259 16.5176C15.08 16.5941 15.0589 16.684 15.0264 16.7682C15.0054 16.8122 15.0226 16.862 15.0302 16.9079C15.0934 16.8314 15.1431 16.7472 15.2082 16.6745C15.2656 16.6075 15.3612 16.6113 15.4397 16.5865C15.411 16.5272 15.367 16.4678 15.2981 16.4525C15.233 16.4277 15.1603 16.4583 15.1259 16.5176ZM15.7018 16.774C15.5679 16.8524 15.4646 16.9729 15.3555 17.082C15.3134 17.1241 15.2675 17.1738 15.2675 17.237C15.2675 17.2657 15.2981 17.3078 15.3287 17.2867C15.3938 17.2446 15.4626 17.2102 15.52 17.1585C15.6042 17.0342 15.6903 16.9098 15.7668 16.7816C15.7496 16.7587 15.7248 16.7606 15.7018 16.774ZM15.5545 17.2829C15.4646 17.3977 15.3402 17.4876 15.2828 17.6254C15.3536 17.6809 15.4492 17.6388 15.5086 17.5852C15.587 17.5125 15.6444 17.4206 15.6922 17.3269C15.7152 17.2925 15.719 17.2351 15.6712 17.2198C15.6195 17.193 15.5851 17.2504 15.5545 17.2829ZM17.0966 17.5508C17.0564 17.6368 17.0908 17.7325 17.0966 17.8205C17.1023 17.8894 17.1253 17.9698 17.2037 17.9793C17.2228 17.9124 17.2362 17.8435 17.2343 17.7727C17.2286 17.6828 17.1846 17.5871 17.0966 17.5508ZM15.566 17.9162C15.6272 17.9621 15.7037 17.9334 15.7726 17.9258C15.8376 17.9143 15.9046 17.8703 15.918 17.8014C15.9218 17.7402 15.8836 17.6445 15.8051 17.6694C15.6961 17.7134 15.6253 17.8186 15.566 17.9162ZM17.5156 18.9379C17.4697 18.9608 17.4888 19.0221 17.5022 19.0603C17.55 19.1732 17.594 19.2861 17.6285 19.4047C17.6629 19.5138 17.7299 19.6075 17.7605 19.7166C17.7739 19.7587 17.7815 19.8027 17.8026 19.8428C17.8332 19.8849 17.9116 19.8658 17.9174 19.8141C17.9212 19.7778 17.9021 19.7453 17.8867 19.7147C17.814 19.5788 17.7471 19.4391 17.7012 19.2918C17.6686 19.1866 17.6648 19.0699 17.5998 18.978C17.5806 18.9513 17.5481 18.9206 17.5156 18.9379ZM20.7452 19.8218C20.7222 19.8333 20.7107 19.8601 20.6973 19.8811C20.6648 19.95 20.638 20.0208 20.5978 20.0877C20.5691 20.1375 20.5347 20.1853 20.5232 20.2427C20.5309 20.281 20.5787 20.2733 20.6055 20.2618C20.6763 20.2293 20.6973 20.1451 20.7279 20.0801C20.7566 20.0016 20.7987 19.927 20.8255 19.8486C20.8045 19.8294 20.7739 19.8065 20.7452 19.8218ZM17.948 20.0935C17.9824 20.1891 18.0628 20.2561 18.1068 20.346C18.1756 20.4685 18.2005 20.6081 18.2216 20.7459C18.2273 20.7842 18.2082 20.8224 18.1967 20.8588C18.1584 20.9793 18.0991 21.1037 18.1221 21.2338C18.1278 21.274 18.1469 21.3275 18.1948 21.3256C18.2522 21.3161 18.2732 21.2548 18.2866 21.207C18.3306 21.0463 18.3325 20.8798 18.3459 20.7172C18.367 20.5259 18.3134 20.3288 18.2101 20.1681C18.1699 20.1069 18.1182 20.038 18.0379 20.0342C17.9977 20.0303 17.9709 20.0648 17.948 20.0935ZM18.7343 21.0272C18.6961 21.1343 18.6291 21.2319 18.5487 21.3122C18.4875 21.3677 18.4779 21.4519 18.455 21.5265C18.432 21.6069 18.3574 21.6547 18.2904 21.6949C18.1737 21.7618 18.0494 21.825 17.9575 21.9264C17.8657 22.024 17.8102 22.156 17.6935 22.2249C17.6017 22.3014 17.4792 22.3473 17.4199 22.4564C17.374 22.5195 17.3721 22.6018 17.3549 22.6745C17.2515 22.7185 17.2381 22.8428 17.1578 22.9098C17.1042 22.9615 17.043 23.0093 16.9952 23.0667C16.9607 23.103 16.9626 23.1566 16.9588 23.2045C16.9913 23.2236 17.0258 23.2638 17.0679 23.2446C17.1195 23.2274 17.1559 23.1815 17.1865 23.1375C17.2726 23.0074 17.2994 22.8448 17.3989 22.7242C17.4888 22.6343 17.5883 22.5578 17.6801 22.4717C17.7624 22.3569 17.7815 22.2 17.8925 22.1062C18.013 22.0316 18.145 21.9742 18.2675 21.9015C18.3191 21.869 18.3612 21.8231 18.4091 21.7848C18.4531 21.7427 18.5066 21.7083 18.5392 21.6528C18.5927 21.559 18.6444 21.4653 18.6999 21.3715C18.7515 21.2931 18.8434 21.2414 18.8702 21.1477C18.9065 21.0233 18.9448 20.8951 18.9352 20.7631C18.9371 20.7306 18.9065 20.7115 18.8816 20.6962C18.8128 20.7976 18.7841 20.9162 18.7343 21.0272ZM16.117 21.4691C16.0883 21.5897 16.1457 21.714 16.2241 21.8059C16.2719 21.8671 16.3408 21.9245 16.3466 22.0087C16.3523 22.1005 16.3561 22.1904 16.3619 22.2823C16.395 22.1853 16.4314 22.0897 16.4709 21.9953C16.4939 21.9436 16.4881 21.8843 16.469 21.8326C16.4365 21.7408 16.3982 21.6528 16.3523 21.5686C16.316 21.5074 16.2777 21.4385 16.2107 21.4041C16.1648 21.3773 16.1246 21.427 16.117 21.4691ZM19.0175 22.3894C18.962 22.5138 18.962 22.6534 18.9314 22.7835C18.9142 22.8409 18.9735 22.8907 18.9467 22.9462C18.9199 23.0208 18.9008 23.0992 18.895 23.1796C18.8376 23.237 18.7707 23.2867 18.7381 23.3633C18.6827 23.4914 18.5717 23.5852 18.5047 23.7076C18.5219 23.7536 18.543 23.7995 18.5717 23.8416C18.6329 23.8205 18.6846 23.7746 18.7094 23.7153C18.7381 23.6694 18.7477 23.6024 18.8013 23.5794C18.8396 23.5584 18.8855 23.5431 18.9103 23.5048C18.9429 23.457 18.9792 23.4111 19.0079 23.3594C19.0213 23.3097 19.0117 23.2561 19.0232 23.2045C19.0424 23.1566 19.0768 23.1145 19.0883 23.0629C19.1112 22.9519 19.117 22.8409 19.1227 22.728C19.1265 22.6783 19.0902 22.64 19.0844 22.5922C19.0883 22.531 19.0998 22.4717 19.1036 22.4104C19.0742 22.4028 19.0455 22.3958 19.0175 22.3894ZM16.7771 23.6158C16.7885 23.6598 16.8459 23.6923 16.8804 23.6522C16.9263 23.5967 16.9435 23.5259 16.9703 23.4608C16.9397 23.4149 16.8957 23.3766 16.8364 23.3709C16.7828 23.4379 16.7503 23.5297 16.7771 23.6158ZM16.7273 23.8167C16.7043 23.9066 16.7158 24.0099 16.779 24.0826C16.8077 24.0616 16.844 24.0444 16.8555 24.008C16.8727 23.9602 16.8804 23.9104 16.8938 23.8626C16.8759 23.8346 16.8587 23.8065 16.8421 23.7784C16.8019 23.7803 16.7426 23.767 16.7273 23.8167ZM18.2694 23.9315C18.2426 23.9678 18.2522 24.031 18.3038 24.0405C18.3651 24.0616 18.3918 23.9889 18.4263 23.9525C18.4046 23.9258 18.3829 23.8996 18.3612 23.8741C18.3268 23.8856 18.2885 23.8971 18.2694 23.9315ZM19.3447 24.5743C19.3064 24.714 19.3714 24.8556 19.3676 24.9953C19.3485 25.1005 19.2356 25.1426 19.1897 25.2306C19.1705 25.3435 19.1897 25.4717 19.1131 25.5654C19.006 25.6993 18.8281 25.7261 18.6788 25.7893C18.5774 25.818 18.4932 25.9041 18.4741 26.0112C18.4512 26.105 18.5181 26.1853 18.5411 26.2733C18.5207 26.2963 18.5009 26.3199 18.4818 26.3441C18.3918 26.2561 18.3077 26.1624 18.2177 26.0763C18.1508 26.0131 18.1087 25.9289 18.057 25.8562C18.0207 25.8084 18.0168 25.7472 18.0035 25.6917C17.9939 25.6343 17.9556 25.5903 17.9269 25.5444C17.8217 25.4028 17.8293 25.2172 17.77 25.0584C17.7394 24.9723 17.6667 24.9073 17.5825 24.8766C17.573 24.9111 17.5672 24.9474 17.5787 24.9819C17.6131 25.1196 17.6859 25.244 17.7222 25.3798C17.7528 25.4889 17.7471 25.6037 17.7566 25.7166C17.7586 25.7548 17.7853 25.7854 17.8045 25.818C17.9021 25.9672 17.992 26.1241 18.1106 26.258C18.2369 26.369 18.3689 26.478 18.4971 26.5871C18.5526 26.6311 18.61 26.6828 18.6827 26.7C18.7286 26.7115 18.7381 26.6502 18.7343 26.6177C18.7133 26.4532 18.6922 26.2886 18.6712 26.1241C18.6597 26.0533 18.6922 25.9787 18.7496 25.9366C18.7975 25.9002 18.8568 25.8849 18.9142 25.8696C18.9429 25.862 18.9754 25.8581 18.9945 25.8294C19.0481 25.7625 19.0998 25.6917 19.1533 25.6247C19.2088 25.6171 19.2681 25.6075 19.3121 25.5692C19.3906 25.5004 19.4212 25.3951 19.4403 25.2976C19.469 25.1215 19.4728 24.9417 19.5149 24.7676C19.5513 24.6547 19.6087 24.5495 19.6431 24.4366C19.668 24.3581 19.6603 24.2721 19.6259 24.1993C19.4958 24.2912 19.3829 24.4175 19.3447 24.5743ZM18.0398 24.3715C17.9748 24.4825 17.9422 24.6126 17.9403 24.7408C17.9403 24.8192 17.9728 24.8939 18.0283 24.9493C18.0513 24.934 18.0819 24.9245 18.0953 24.8977C18.1431 24.8135 18.1355 24.7102 18.1393 24.6164C18.1374 24.5686 18.1776 24.538 18.2043 24.5055C18.2522 24.4538 18.2866 24.3849 18.2713 24.3141C18.2617 24.274 18.2216 24.2376 18.1795 24.2491C18.1163 24.2644 18.0742 24.3199 18.0398 24.3715ZM16.7981 24.2854L16.7866 24.2912C16.7311 24.3849 16.7904 24.5361 16.9014 24.5571C16.9626 24.5705 17.0162 24.5131 17.0086 24.4519C17.0143 24.3448 16.9052 24.2414 16.7981 24.2854ZM19.9033 24.8633C19.8612 24.9474 19.8631 25.045 19.8689 25.1368C19.8211 25.2096 19.7598 25.2765 19.7292 25.3607C19.6852 25.4717 19.624 25.5769 19.5819 25.6879C19.5532 25.7759 19.6929 25.818 19.7407 25.7567C19.7732 25.7032 19.7924 25.6439 19.8191 25.5884C19.8536 25.5004 19.9569 25.4678 19.9952 25.3817C20.0545 25.244 20.1004 25.0909 20.0774 24.9398C20.0717 24.8919 20.0526 24.8384 20.0028 24.8212C19.9626 24.8039 19.9205 24.8288 19.9033 24.8633ZM20.7471 24.8537C20.6839 24.9551 20.6399 25.068 20.5672 25.1636C20.4601 25.309 20.3223 25.4277 20.1807 25.5367C20.1444 25.5673 20.1004 25.6113 20.1214 25.663C20.1578 25.7567 20.2305 25.8295 20.2745 25.9194C20.3032 25.9863 20.2841 26.059 20.2745 26.1279C20.2649 26.2159 20.3529 26.2829 20.3319 26.3709C20.307 26.5488 20.2936 26.7287 20.2764 26.9066C20.2726 26.9812 20.2248 27.0425 20.198 27.1094C20.1482 27.2185 20.1654 27.3409 20.1597 27.4557C20.1559 27.5514 20.0793 27.6222 20.0621 27.7121C20.0487 27.7561 20.0966 27.7752 20.1195 27.802C20.154 27.7121 20.1961 27.626 20.2592 27.5514C20.3147 27.494 20.2592 27.4079 20.2955 27.3428C20.33 27.2797 20.3874 27.2338 20.4352 27.1802C20.5022 27.1056 20.5385 27.008 20.5596 26.9104C20.5787 26.8186 20.5749 26.7229 20.5921 26.6311C20.6055 26.5565 20.6476 26.4914 20.6629 26.4168C20.6552 26.3326 20.6285 26.2542 20.6017 26.1738C20.55 26.0246 20.5098 25.8696 20.4352 25.73C20.4084 25.6726 20.3587 25.596 20.4123 25.5386C20.4677 25.5023 20.5404 25.5118 20.5998 25.4851C20.6418 25.4066 20.5902 25.309 20.6361 25.2306C20.6839 25.1694 20.7547 25.1273 20.8045 25.0661C20.8274 25.0201 20.8427 24.9723 20.858 24.9245C20.8676 24.89 20.8695 24.846 20.8389 24.8231C20.8083 24.7925 20.7662 24.825 20.7471 24.8537ZM19.6202 28.9251C19.5896 29.0284 19.5704 29.1356 19.5436 29.2408C19.5302 29.2944 19.4843 29.3307 19.4499 29.3728C19.404 29.369 19.358 29.3556 19.3121 29.3633C19.2777 29.392 19.2739 29.4417 19.2605 29.4819C19.2796 29.501 19.293 29.5354 19.3236 29.5259C19.4097 29.5125 19.4958 29.4991 19.5838 29.5125C19.6144 29.4768 19.645 29.4404 19.6756 29.4034C19.6871 29.2676 19.6948 29.1317 19.712 28.9959C19.7139 28.9672 19.7177 28.9385 19.7101 28.9117C19.6852 28.8926 19.6336 28.8868 19.6202 28.9251ZM14.4467 13.5367C14.3185 13.5578 14.1922 13.3875 14.2745 13.2765C14.3549 13.288 14.4371 13.3301 14.4658 13.4104C14.4773 13.4506 14.4869 13.5099 14.4467 13.5367ZM19.9932 13.6152C20.0487 13.5846 20.1119 13.5348 20.1807 13.5635C20.2726 13.6075 20.3223 13.7032 20.3606 13.7931C20.439 13.9921 20.5003 14.2064 20.4754 14.4226C20.4601 14.5297 20.4084 14.6464 20.2994 14.6866C20.1807 14.7306 20.0621 14.7727 19.9435 14.8148C19.9091 14.8263 19.8823 14.853 19.8555 14.8779C19.7751 14.964 19.6661 15.0118 19.5685 15.0769C19.4346 15.1649 19.2853 15.23 19.1438 15.3065C19.0232 15.3792 18.874 15.3543 18.7496 15.4175C18.6865 15.4404 18.6234 15.4883 18.5545 15.4672C18.4607 15.4385 18.4072 15.3486 18.367 15.2682C18.323 15.1764 18.2904 15.0788 18.2598 14.9812C18.3383 14.9564 18.3498 14.8626 18.4167 14.8243C18.6674 14.6579 18.9123 14.48 19.1763 14.3346C19.2509 14.2982 19.3293 14.2695 19.4135 14.2599C19.4614 14.2523 19.4843 14.2045 19.5035 14.1643C19.4671 14.1222 19.425 14.0858 19.3963 14.038C19.3963 13.9672 19.4441 13.906 19.4901 13.8581C19.624 13.7166 19.8306 13.707 19.9932 13.6152ZM16.7751 13.6764C16.7771 13.6496 16.7885 13.6113 16.8211 13.6171C16.8459 13.6152 16.8574 13.64 16.8689 13.6573C16.9129 13.7319 16.9473 13.8122 16.9932 13.8849C17.0315 13.9404 17.0755 13.9902 17.1176 14.0437C17.1087 14.0539 17.0998 14.0648 17.0908 14.0763C16.9971 14.0935 16.8995 14.1471 16.8077 14.103C16.7598 14.082 16.7598 14.0227 16.7598 13.9787C16.7617 13.8773 16.7694 13.7759 16.7751 13.6764ZM14.2171 13.6266C14.2764 13.6305 14.3396 13.6266 14.395 13.6496C14.441 13.6687 14.4792 13.7319 14.4448 13.7778C14.4027 13.8218 14.3357 13.8122 14.2802 13.8046C14.2573 13.7988 14.2248 13.7969 14.2133 13.7721C14.1941 13.7242 14.2056 13.6726 14.2171 13.6266ZM15.9467 14.0437C15.9888 14.0246 16.0634 14.0284 16.0711 14.0877C16.0806 14.1643 16.0596 14.2427 16.0385 14.3154C16.0041 14.4264 15.9505 14.5412 15.851 14.6043C15.7477 14.6655 15.6119 14.5775 15.5985 14.4647C15.5908 14.4302 15.6176 14.4015 15.6367 14.3747C15.6941 14.3001 15.7535 14.2274 15.8109 14.1528C15.8453 14.1069 15.8893 14.0629 15.9467 14.0437ZM13.9512 16.4238C14.0143 16.4315 14.0679 16.4678 14.11 16.5118C14.2745 16.6783 14.3855 16.8964 14.4352 17.126C14.4716 17.2886 14.4926 17.457 14.4639 17.6215C14.4467 17.721 14.3855 17.8071 14.3415 17.8951C14.3051 17.9602 14.2783 18.031 14.2228 18.0826C14.087 18.2147 13.9646 18.3581 13.8211 18.4825C13.7981 18.4481 13.7656 18.406 13.7885 18.3658C13.8536 18.2434 13.9263 18.1247 13.9932 18.0042C14.02 17.9525 14.0449 17.8932 14.0392 17.8339C14.0373 17.8148 14.0239 17.7899 14.0028 17.7937C13.955 17.7918 13.9225 17.832 13.9033 17.8703C13.844 17.9793 13.7866 18.0903 13.7273 18.2013C13.7024 18.2472 13.6661 18.2969 13.6106 18.3084C13.5322 18.3218 13.4556 18.2797 13.4021 18.2261C13.3542 18.1764 13.2987 18.1209 13.293 18.0482C13.2873 18.0042 13.3236 17.9659 13.3657 17.9621C13.4327 17.9774 13.4843 18.0673 13.5589 18.0329C13.6508 17.9793 13.6852 17.8684 13.712 17.7708C13.7216 17.7115 13.7522 17.6407 13.7043 17.589C13.6259 17.6158 13.5896 17.7 13.5149 17.7287C13.4537 17.7421 13.3867 17.7229 13.3313 17.7555C13.2681 17.7803 13.2528 17.853 13.2241 17.9066C13.1859 17.9985 13.0156 17.9851 13.006 17.8798C13.0022 17.7708 13.0749 17.6789 13.1151 17.5814C13.1667 17.4589 13.1438 17.3135 13.2184 17.1987C13.2892 17.1203 13.4021 17.0897 13.4614 16.9997C13.5436 16.8849 13.6355 16.7778 13.7445 16.6879C13.8344 16.619 13.888 16.5176 13.9512 16.4238ZM21.2005 20.0992C21.2292 20.0897 21.2675 20.0705 21.2962 20.0935C21.3249 20.1471 21.3402 20.2044 21.367 20.258C21.3976 20.3212 21.4512 20.369 21.4818 20.4302C21.5066 20.4991 21.5086 20.5756 21.5449 20.6407C21.5908 20.744 21.6635 20.8358 21.675 20.9506C21.6961 21.1113 21.7018 21.274 21.6941 21.4347C21.6903 21.5323 21.6214 21.6069 21.5602 21.6758C21.5162 21.7351 21.4359 21.737 21.3708 21.7599C21.3268 21.6758 21.2866 21.5858 21.2197 21.5189C21.1737 21.4729 21.1182 21.4328 21.0972 21.3696C21.1125 21.2969 21.1584 21.2338 21.1718 21.1592C21.1833 21.008 21.1833 20.855 21.1967 20.7019C21.2235 20.6254 21.2732 20.5584 21.3096 20.4857C21.279 20.3556 21.2273 20.2312 21.2005 20.0992ZM21.5621 20.1471C21.587 20.1432 21.6176 20.1337 21.6425 20.1471C21.7458 20.1968 21.8204 20.2925 21.874 20.39C21.9582 20.5431 21.9907 20.7134 22.0424 20.8779C22.0902 21.0501 22.161 21.2204 22.161 21.4022C22.1648 21.538 22.1323 21.6853 22.0443 21.7925C21.9677 21.8556 21.8778 21.8977 21.7955 21.9513C21.77 21.9155 21.7452 21.8798 21.7209 21.8441C21.763 21.7408 21.8128 21.6432 21.8453 21.5361C21.8702 21.4538 21.807 21.3792 21.807 21.2988C21.807 21.2166 21.8242 21.1343 21.8147 21.052C21.7975 20.9066 21.7707 20.7631 21.7496 20.6196C21.7343 20.5144 21.7094 20.4092 21.6616 20.3135C21.6329 20.2542 21.5927 20.2044 21.5621 20.1471ZM21.9582 20.1509C21.9754 20.1298 21.9984 20.149 22.0175 20.1547C22.2777 20.2905 22.5838 20.2695 22.8574 20.3633C23.0813 20.4379 23.2764 20.5756 23.4543 20.7268C23.6954 20.9334 23.9116 21.1649 24.124 21.4002C24.3134 21.6088 24.5066 21.8154 24.6559 22.0565C25.0577 22.6821 25.1992 23.4666 25.0443 24.1936C25.0213 24.2988 24.9888 24.4022 24.9505 24.5016C24.8306 24.8435 24.7101 25.186 24.5889 25.5291C24.5047 25.7721 24.4072 26.0112 24.3631 26.2657C24.3211 26.478 24.3383 26.6942 24.3038 26.9066C24.2771 27.0463 24.1814 27.1687 24.1871 27.3161C24.1833 27.383 24.1852 27.45 24.1795 27.517C24.1546 27.605 24.0876 27.6796 24.0762 27.7733C24.0545 27.9226 24.0322 28.0724 24.0092 28.2229C23.9977 28.2957 23.9748 28.3722 23.9174 28.4238C23.8829 28.4602 23.8102 28.4353 23.8026 28.3856C23.7892 28.3263 23.7853 28.267 23.7739 28.2076C23.7566 28.1426 23.7184 28.0871 23.7012 28.0221C23.705 27.9742 23.7203 27.9264 23.7279 27.8805C23.7413 27.8192 23.7299 27.758 23.726 27.6987C23.7203 27.6394 23.7222 27.5782 23.7031 27.5208C23.6916 27.4883 23.6514 27.4672 23.6227 27.4902C23.5921 27.5055 23.5978 27.5456 23.5959 27.5763C23.6017 27.8039 23.5519 28.0316 23.5404 28.2593C23.6131 28.4602 23.6935 28.6592 23.7853 28.8524C23.8313 28.8027 23.8676 28.7453 23.9135 28.6955C23.9403 28.6687 23.9901 28.6553 24.0168 28.6879C24.0398 28.7204 24.0436 28.7606 24.0494 28.7988C24.0609 28.8945 24.0723 28.9978 24.0341 29.0897C23.9748 29.2178 23.8619 29.3154 23.8179 29.4493C23.7528 29.7784 23.6935 30.1056 23.6304 30.4347C23.5902 30.6585 23.5404 30.8824 23.5117 31.1101C23.4926 31.2803 23.5041 31.4525 23.4563 31.619C23.4333 31.7013 23.3491 31.7759 23.3836 31.8658C23.3912 31.9117 23.4256 31.9596 23.3969 32.0055C23.3587 32.0743 23.2917 32.126 23.2573 32.1987C23.2133 32.2867 23.1903 32.39 23.2248 32.4857C23.2822 32.6196 23.3912 32.7268 23.462 32.853C23.4888 32.9104 23.4429 32.9717 23.3893 32.9889C23.3032 33.0214 23.2075 33.0099 23.1157 33.0214C23.0219 33.0367 22.9359 32.9755 22.8765 32.9066C22.8211 32.8397 22.7713 32.7593 22.7694 32.6694C22.7847 32.5871 22.8325 32.5163 22.8517 32.436C22.8555 32.39 22.8498 32.346 22.8459 32.3001C22.8344 32.2217 22.7656 32.1566 22.7732 32.0724C22.7828 31.9155 22.7713 31.7587 22.7809 31.6018C22.8077 31.4889 22.8727 31.3894 22.9263 31.288C22.9932 31.177 23.0449 31.0565 23.0583 30.9264C23.0832 30.7408 23.11 30.5533 23.1176 30.3658C23.1234 30.2759 23.066 30.1917 23.0947 30.1037C23.1176 30.0329 23.1425 29.964 23.1578 29.8913C23.2133 29.9066 23.2668 29.8856 23.3166 29.8684C23.395 29.8416 23.4716 29.7995 23.5232 29.7344C23.5596 29.6885 23.5615 29.6101 23.5079 29.5775C23.4256 29.5278 23.3185 29.5928 23.2381 29.5412C23.1693 29.4723 23.1999 29.3671 23.198 29.281C23.2133 29.1241 23.154 28.9691 23.1693 28.8122C23.1769 28.6687 23.1865 28.5233 23.198 28.3817C23.2037 28.3014 23.2573 28.2344 23.2668 28.156C23.2745 28.0928 23.2898 28.0278 23.2917 27.9647C23.2764 27.8977 23.2496 27.8326 23.2305 27.7676C23.2369 27.7357 23.2439 27.7038 23.2515 27.6719C23.2879 27.6604 23.3415 27.6643 23.3587 27.6203C23.4027 27.5323 23.4103 27.4309 23.4199 27.3333C23.4371 26.9946 23.2707 26.6847 23.0985 26.4053C23.1138 26.4092 23.1463 26.4168 23.1635 26.4206C23.2018 26.3977 23.1961 26.3384 23.1827 26.3001C23.1501 26.2217 23.0679 26.1834 23.0047 26.1317C22.9186 26.0648 22.8421 25.9787 22.8115 25.8715C22.7751 25.7414 22.7885 25.6037 22.8 25.4698C22.8019 25.4028 22.8459 25.3492 22.8746 25.2918C22.9091 25.2325 22.9301 25.1675 22.9626 25.1081C23.0047 25.0469 23.0679 24.9991 23.0927 24.9264C23.1272 24.8326 23.0889 24.7312 23.1042 24.6356C23.1406 24.5552 23.2286 24.5016 23.242 24.4098C23.2611 24.3161 23.2917 24.2242 23.3051 24.1286C23.3051 23.8645 23.2668 23.6024 23.2267 23.3422C23.1654 23.2733 23.0755 23.2331 23.0277 23.1528C22.9397 23.0227 22.9646 22.8581 22.9339 22.7127C22.9205 22.6534 22.9129 22.5788 22.8536 22.5463C22.7962 22.5482 22.756 22.6113 22.7637 22.6668C22.7809 22.8486 22.7943 23.0361 22.7656 23.2178C22.756 23.2848 22.691 23.3307 22.6814 23.3977C22.6967 23.5048 22.7579 23.5986 22.8038 23.6942C22.8517 23.7803 22.8651 23.8817 22.8612 23.9793C22.8517 24.1381 22.8057 24.295 22.7426 24.4423C22.6814 24.5743 22.6699 24.7236 22.624 24.8613C22.6049 24.9168 22.5398 24.9513 22.4843 24.9302C22.4403 24.9053 22.4212 24.8556 22.404 24.8116C22.3389 24.6337 22.2911 24.4462 22.2126 24.2721C22.1648 24.1706 22.1131 24.0692 22.0538 23.9736C21.9792 23.8454 21.8797 23.7306 21.8281 23.5871C21.8051 23.5221 21.7822 23.4379 21.8319 23.3786C21.874 23.3422 21.9295 23.3269 21.9773 23.302C22.0041 23.2523 22.0404 23.2064 22.0557 23.1528C22.0443 22.9309 21.9907 22.7108 22.0098 22.487C21.9728 22.4474 21.9359 22.4092 21.8989 22.3722C21.9142 22.3556 21.9301 22.339 21.9467 22.3224C21.9263 22.2982 21.9059 22.2733 21.8855 22.2478C21.8867 22.2223 21.888 22.1974 21.8893 22.1732C21.9486 22.1311 22.0098 22.0909 22.0691 22.0469C22.1131 22.0144 22.117 21.9551 22.138 21.9073C22.1584 21.8958 22.1788 21.8837 22.1992 21.8709C22.2739 21.7217 22.3006 21.5552 22.3447 21.3964C22.3523 21.3639 22.3676 21.3294 22.3561 21.2969C22.3351 21.2204 22.3064 21.1477 22.2853 21.0731C22.2662 21.0099 22.2777 20.9449 22.2739 20.8817C22.27 20.7574 22.2241 20.6388 22.1495 20.5412C22.0768 20.4455 21.9926 20.3518 21.9543 20.237C21.9486 20.2083 21.9371 20.1738 21.9582 20.1509ZM23.6189 26.2618C23.5577 26.2561 23.4964 26.2408 23.4352 26.2446C23.3644 26.2618 23.3319 26.3384 23.3242 26.4034C23.3759 26.4226 23.4295 26.4321 23.483 26.4283C23.5711 26.4226 23.661 26.413 23.7394 26.3709C23.8026 26.3346 23.837 26.2599 23.8313 26.1891C23.8274 26.1624 23.8179 26.1298 23.7892 26.1203C23.7203 26.1509 23.6782 26.2178 23.6189 26.2618ZM24.786 20.4092C24.9314 20.3958 25.0806 20.3728 25.226 20.4034C25.3332 20.4264 25.4422 20.4704 25.5188 20.5527C25.58 20.6158 25.6163 20.6981 25.6871 20.7536C25.779 20.8033 25.8899 20.811 25.9741 20.8722C26.1329 21.0176 26.1176 21.3027 25.955 21.4385C25.8536 21.5227 25.7043 21.5093 25.5953 21.45C25.4728 21.3773 25.3638 21.2835 25.2394 21.2147C25.0864 21.1458 24.9371 21.0654 24.7841 20.9985C24.7228 20.9736 24.6674 20.9315 24.6348 20.8741C24.5793 20.7823 24.5219 20.6866 24.5105 20.5775C24.5066 20.5316 24.5047 20.4704 24.5526 20.4474C24.6253 20.4111 24.7075 20.4187 24.786 20.4092ZM24.8874 20.568C24.9084 20.6024 24.9486 20.6388 24.9276 20.6828C24.9065 20.7325 24.8721 20.7746 24.8453 20.8205C24.9677 20.8779 25.1036 20.8971 25.2241 20.9564C25.3313 21.0099 25.3906 21.142 25.5149 21.1649C25.5838 21.1802 25.6489 21.2108 25.7177 21.2185C25.7656 21.1802 25.7311 21.1133 25.6929 21.0826C25.6182 21.008 25.5054 21.0004 25.425 20.9334C25.3791 20.9009 25.4327 20.8224 25.381 20.7995C25.3447 20.7823 25.3236 20.8167 25.3006 20.8377C25.2675 20.8008 25.2343 20.765 25.2012 20.7306C25.1973 20.6987 25.1935 20.6668 25.1897 20.6349C25.1495 20.6158 25.1093 20.5948 25.0672 20.5756C25.0117 20.5469 24.9486 20.568 24.8874 20.568ZM24.2503 20.5718C24.3019 20.5508 24.367 20.5565 24.4129 20.5909C24.4397 20.6273 24.4435 20.6751 24.4588 20.7153C24.4894 20.8224 24.5717 20.9104 24.5908 21.0195C24.5947 21.0731 24.5239 21.0731 24.4856 21.0692C24.4186 21.0673 24.3651 21.0176 24.3364 20.9602C24.2981 20.8913 24.2445 20.8358 24.1948 20.7765C24.1412 20.7115 24.1661 20.5986 24.2503 20.5718ZM23.8848 20.7861C23.9652 20.7593 24.0513 20.7976 24.1144 20.8454C24.1776 20.8951 24.235 20.9564 24.2637 21.0329C24.2809 21.0769 24.2713 21.1439 24.2177 21.1611C24.1202 21.1879 24.0092 21.1592 23.9346 21.0865C23.8829 21.0348 23.8255 20.987 23.7834 20.9277C23.7815 20.8645 23.8255 20.8052 23.8848 20.7861ZM19.2566 20.9812C19.2681 20.9391 19.3083 20.92 19.3485 20.9181C19.4174 21.0214 19.4939 21.1209 19.5589 21.228C19.5742 21.3046 19.5666 21.3849 19.5609 21.4615C19.5628 21.5112 19.5015 21.5131 19.4671 21.5016C19.4212 21.4615 19.3867 21.4079 19.3466 21.362C19.2566 21.2606 19.2184 21.1113 19.2566 20.9812ZM20.9901 21.6528C21.0475 21.6145 21.1182 21.6528 21.1603 21.6968C21.2675 21.8116 21.2694 21.9895 21.3785 22.1043C21.5908 22.3377 21.6578 22.6783 21.5889 22.9825C21.5736 23.038 21.5583 23.0992 21.5162 23.1413C21.4894 23.1662 21.4473 23.1394 21.4416 23.1069C21.4014 22.9615 21.3689 22.8122 21.3325 22.6668C21.3115 22.5979 21.2675 22.5405 21.233 22.4793C21.1871 22.4009 21.1584 22.3129 21.1125 22.2344C21.0609 22.1636 20.992 22.1081 20.9441 22.0354C20.9174 21.9704 20.9327 21.8958 20.9384 21.8288C20.948 21.7695 20.948 21.6987 20.9901 21.6528ZM15.6674 22.1981C15.6846 22.1483 15.7611 22.1675 15.7688 22.2134C15.918 22.5616 16.0691 22.9098 16.2165 23.2599C16.2471 23.3958 16.2337 23.5374 16.2643 23.6732C16.3102 23.8817 16.3561 24.0903 16.4001 24.2988C16.3657 24.318 16.3217 24.362 16.2853 24.3218C16.1973 24.2414 16.1438 24.1324 16.0864 24.0291C16.0538 23.9659 16.0117 23.9066 15.9869 23.8397C15.9811 23.7631 15.9907 23.6866 15.9869 23.612C15.985 23.5661 15.9716 23.5144 15.9333 23.4838C15.9084 23.4627 15.8759 23.478 15.8472 23.4819C15.8587 23.5814 15.8816 23.6789 15.8836 23.7803C15.8644 23.8454 15.7802 23.8511 15.7305 23.8243C15.6827 23.8014 15.6712 23.744 15.6521 23.7C15.6463 23.7555 15.6253 23.811 15.6444 23.8664C15.6559 23.9009 15.6635 23.9391 15.6827 23.9717C15.7822 24.1018 15.9256 24.1974 15.9964 24.3505C16.0589 24.4666 16.1221 24.5826 16.1859 24.6987C16.2114 24.7051 16.2375 24.7115 16.2643 24.7178C16.2968 24.6681 16.3179 24.5763 16.3944 24.5935C16.4958 24.626 16.5589 24.7236 16.5953 24.8173C16.6393 24.9474 16.6776 25.0814 16.7158 25.2134C16.7847 25.4372 16.9033 25.6439 17.0506 25.8237C17.1654 25.9653 17.2802 26.1069 17.3797 26.258C17.418 26.3154 17.439 26.3824 17.4563 26.4493C17.2955 26.4187 17.1654 26.3192 17.0219 26.2504C16.9531 26.2274 16.9359 26.1528 16.9033 26.0954C16.8708 26.0303 16.8364 25.9519 16.7598 25.9309C16.7235 25.9175 16.7024 25.9538 16.6948 25.9825C16.6699 26.0724 16.7043 26.1681 16.7617 26.237C16.8459 26.3384 16.9703 26.3958 17.0966 26.4206C17.2075 26.4436 17.3223 26.4723 17.4103 26.5469C17.4467 26.5737 17.439 26.6368 17.3969 26.6522C17.3376 26.6675 17.2764 26.6732 17.2152 26.6847C17.2018 26.7383 17.2075 26.811 17.2668 26.8358C17.3893 26.7842 17.4888 26.677 17.6246 26.6636C17.6227 26.7689 17.5806 26.8722 17.5041 26.9449C17.242 27.2166 16.9837 27.4921 16.7254 27.7676C16.4901 27.9513 16.2662 28.1541 16.0921 28.399C15.9601 28.5884 15.8415 28.8027 15.8376 29.038C15.8376 29.2274 15.8568 29.4149 15.8644 29.6024C15.8625 29.6732 15.8472 29.7421 15.8319 29.809C15.8166 29.8971 15.7439 29.9583 15.698 30.0329C15.7018 30.0941 15.6999 30.1573 15.7037 30.2204C15.6323 30.2663 15.5609 30.3116 15.4894 30.3562C15.3804 30.3161 15.2637 30.2931 15.1642 30.2319C15.1163 30.2013 15.036 30.2089 15.0168 30.1477C15.0015 30.0635 15.0781 30.0023 15.0915 29.9238C15.1087 29.8148 15.0838 29.7076 15.057 29.6043C15.0341 29.5335 15.0628 29.4608 15.0628 29.39C15.0628 29.2925 15.0245 29.1987 15.036 29.1011C15.0475 28.994 15.0628 28.8888 15.0609 28.7816C15.0589 28.6687 15.1106 28.5654 15.1508 28.464C15.2503 28.2191 15.344 27.9723 15.4339 27.7236C15.4684 27.603 15.4856 27.4787 15.5124 27.3581C15.5315 27.274 15.5985 27.207 15.6061 27.1209C15.631 26.9315 15.6597 26.744 15.6807 26.5546C15.6865 26.5125 15.6961 26.4723 15.7094 26.434C15.7343 26.3575 15.8051 26.3039 15.8109 26.2198C15.8319 26.0131 15.8415 25.8027 15.8606 25.5941C15.9448 25.6974 16.0232 25.8103 16.1227 25.9002C16.1705 25.9442 16.2509 25.8811 16.2318 25.8237C16.2126 25.7644 16.1763 25.7147 16.1476 25.6592C15.9984 25.3837 15.8606 25.1024 15.7248 24.8192C15.6674 24.6949 15.608 24.5724 15.566 24.4423C15.52 24.2395 15.4894 24.0348 15.4588 23.8282C15.4473 23.7153 15.4205 23.5967 15.4665 23.4876C15.5009 23.3996 15.5277 23.3039 15.5889 23.2293C15.6176 23.1968 15.6463 23.1643 15.6712 23.1279C15.6253 22.9538 15.5813 22.7797 15.5353 22.6037C15.5105 22.5252 15.5774 22.4621 15.6119 22.399C15.654 22.3397 15.6425 22.2631 15.6674 22.1981ZM16.4097 24.9532C16.404 25.0641 16.4422 25.1828 16.536 25.2497C16.5475 25.1655 16.5647 25.0833 16.5685 24.9991C16.5666 24.9436 16.5226 24.8709 16.4594 24.8843C16.4269 24.8881 16.4097 24.9226 16.4097 24.9532ZM16.7675 26.6196C16.7426 26.6273 16.7139 26.6464 16.7216 26.677C16.735 26.767 16.7828 26.8588 16.7464 26.9506C16.689 27.0807 16.6412 27.2127 16.5953 27.3486C16.58 27.3773 16.5934 27.4519 16.6393 27.4194C16.7197 27.3658 16.7675 27.2778 16.8057 27.1898C16.8517 27.0788 16.9186 26.9793 16.9473 26.8626C16.9607 26.8014 16.9779 26.7325 16.9435 26.677C16.9091 26.6177 16.8306 26.5986 16.7675 26.6196ZM15.3842 28.5291C15.3689 28.5769 15.3918 28.6362 15.4416 28.6534C15.5181 28.6821 15.61 28.684 15.6827 28.6439C15.7152 28.6305 15.719 28.5903 15.7248 28.5597C15.6903 28.5616 15.6559 28.5654 15.6214 28.5635C15.5621 28.5252 15.5468 28.4468 15.5028 28.3951C15.4531 28.4277 15.3976 28.4659 15.3842 28.5291ZM15.5334 29.2714C15.5047 29.3307 15.5124 29.4015 15.5143 29.4666C15.5315 29.6235 15.4779 29.7803 15.4052 29.9162C15.3529 29.9277 15.3013 29.9398 15.2503 29.9525C15.2828 30.0386 15.3938 30.096 15.4741 30.0367C15.5985 29.9353 15.6693 29.765 15.6348 29.6062C15.61 29.4819 15.631 29.3537 15.6042 29.2312C15.5793 29.2389 15.5449 29.2427 15.5334 29.2714ZM19.6374 22.2038C19.6986 22.177 19.7656 22.2134 19.8038 22.2612C19.888 22.3664 19.9129 22.5004 19.9359 22.6286C19.9779 22.8409 20.0755 23.0552 20.2573 23.1796C20.3453 23.2408 20.441 23.3001 20.5079 23.3881C20.5443 23.4379 20.5557 23.5259 20.4945 23.5641C20.4352 23.5928 20.3529 23.5967 20.3013 23.5488C20.1635 23.4398 20.0277 23.3212 19.932 23.17C19.8861 23.0954 19.8287 23.0284 19.7866 22.9519C19.7637 22.9136 19.7866 22.8715 19.7924 22.8314C19.7503 22.795 19.6967 22.7682 19.6661 22.7204C19.6336 22.6592 19.6546 22.5846 19.691 22.531C19.6642 22.4544 19.6202 22.3817 19.6049 22.3014C19.601 22.2669 19.5991 22.2191 19.6374 22.2038ZM21.675 22.2765C21.6961 22.267 21.719 22.2708 21.742 22.2746C21.7688 22.3358 21.7688 22.4028 21.7822 22.4678C21.7898 22.5214 21.8109 22.5788 21.7822 22.6305C21.7668 22.6668 21.7056 22.6706 21.6865 22.6343C21.6463 22.5654 21.631 22.4851 21.6176 22.4066C21.608 22.3569 21.6253 22.2976 21.675 22.2765ZM21.7114 22.7701C21.7248 22.7472 21.7611 22.7242 21.7822 22.751C21.8434 22.8161 21.9008 22.9041 21.8816 22.9997C21.8702 23.0552 21.8204 23.0916 21.7726 23.1145C21.742 23.0629 21.7018 23.015 21.6865 22.9557C21.6769 22.8945 21.6807 22.8256 21.7114 22.7701ZM22.9225 23.2351C22.9607 23.2121 23.0047 23.2427 23.0277 23.2733C23.0755 23.3365 23.0717 23.4168 23.0813 23.4914C23.0889 23.5718 23.1463 23.6388 23.1521 23.7191C23.1578 23.811 23.1597 23.9028 23.175 23.9927C23.1941 24.0922 23.1521 24.186 23.1348 24.2816C23.1176 24.3983 23.0468 24.4978 23.0219 24.6126C22.9894 24.7351 22.9607 24.8575 22.9301 24.9819C22.8899 25.1311 22.7637 25.244 22.6259 25.3052C22.557 25.3377 22.4939 25.2478 22.5015 25.1847C22.5436 25.1368 22.5991 25.1062 22.6393 25.0565C22.6718 25.0067 22.6967 24.9513 22.7292 24.8996C22.7598 24.8499 22.8 24.8078 22.8249 24.7542C22.8765 24.6432 22.9167 24.5265 22.9301 24.4041C22.9531 24.2242 22.9703 24.0386 22.9397 23.8588C22.9148 23.7134 22.8765 23.5718 22.8593 23.4264C22.8498 23.3575 22.867 23.2791 22.9225 23.2351ZM21.3115 23.6923C21.2503 23.5106 21.432 23.3116 21.6157 23.3269C21.719 23.6158 21.7917 23.9181 21.9218 24.1974C22.0417 24.4793 22.1616 24.7606 22.2815 25.0412C22.3351 25.1636 22.3466 25.3014 22.3274 25.4334C22.316 25.5157 22.2605 25.596 22.1725 25.6094C22.0271 25.6286 21.8778 25.6228 21.7324 25.6496C21.7018 25.6018 21.6654 25.5539 21.6425 25.5004C21.5277 25.1885 21.432 24.869 21.2962 24.5667C21.2311 24.4289 21.1642 24.2893 21.0589 24.1764C20.9843 24.0941 20.9097 24.0099 20.8485 23.9162C20.8236 23.8741 20.7968 23.832 20.7968 23.7823C20.8217 23.7344 20.881 23.7229 20.9269 23.7057C21.0111 23.677 21.1068 23.6981 21.1756 23.7555C21.2904 23.8511 21.3498 23.9927 21.3938 24.1324C21.4263 24.2357 21.4339 24.3467 21.4684 24.45C21.4971 24.5342 21.5353 24.6222 21.6004 24.6872C21.6253 24.7121 21.6807 24.7408 21.6922 24.6891C21.7209 24.5724 21.6941 24.45 21.6559 24.3409C21.6157 24.2223 21.5373 24.1247 21.476 24.0195C21.4129 23.9143 21.3498 23.809 21.3115 23.6923ZM21.2177 25.1713C21.2541 25.1426 21.3057 25.1655 21.3325 25.1981C21.3765 25.2536 21.4129 25.3167 21.455 25.3741C21.4359 25.5539 21.2101 25.6419 21.0551 25.5807C21.0322 25.5731 21.0264 25.5444 21.0379 25.5252C21.0704 25.4468 21.1278 25.3837 21.1527 25.3033C21.1718 25.2574 21.1776 25.2019 21.2177 25.1713ZM22.513 25.4889C22.5436 25.508 22.5915 25.5195 22.5953 25.5635C22.6297 25.7051 22.6623 25.8467 22.6967 25.9883C22.7292 26.1069 22.7771 26.2217 22.8096 26.3422C22.8402 26.4895 22.7924 26.6388 22.7464 26.7784C22.6508 27.0425 22.5245 27.295 22.3638 27.5246C22.2968 27.6203 22.205 27.714 22.0825 27.7236C22.0194 27.7274 21.941 27.7198 21.9046 27.6604C21.874 27.6069 21.8625 27.5437 21.851 27.4844C21.8147 27.2988 21.7936 27.1133 21.7535 26.9296C21.742 26.8511 21.7228 26.7727 21.719 26.6923C21.7171 26.4895 21.6406 26.2963 21.6157 26.0973C21.631 26.0323 21.6922 25.994 21.7401 25.9557C21.8223 25.9002 21.8989 25.8333 21.9945 25.8027C22.0443 25.7854 22.0998 25.8046 22.1323 25.8448C22.2088 25.9385 22.2739 26.0399 22.3523 26.1317C22.3867 26.1719 22.4728 26.1853 22.4901 26.1222C22.5035 26.0284 22.425 25.9615 22.3772 25.8907C22.337 25.8275 22.2834 25.7567 22.3006 25.6764C22.3083 25.6305 22.358 25.619 22.3944 25.6018C22.4461 25.5807 22.4748 25.5291 22.513 25.4889ZM22.0079 26.0877C21.9543 26.1203 21.9582 26.1949 21.9582 26.2504C21.9677 26.3556 21.9467 26.4723 22.0079 26.5641C22.0462 26.6311 22.1323 26.6368 22.2012 26.6445C22.3064 26.6579 22.4135 26.5565 22.3906 26.4493C22.3619 26.3212 22.2586 26.2331 22.1667 26.149C22.1227 26.1126 22.0691 26.061 22.0079 26.0877ZM22.1151 26.8167C22.0577 26.8301 22.0003 26.9085 22.0596 26.9545C22.138 26.9927 22.2241 26.9315 22.2547 26.8588C22.2279 26.8148 22.1629 26.8071 22.1151 26.8167ZM21.0934 25.6898C21.1565 25.684 21.2216 25.6783 21.2828 25.6936C21.3746 25.7261 21.3804 25.8811 21.2866 25.9155C21.2101 25.9423 21.1259 25.9366 21.0475 25.9232C20.9958 25.9155 20.9422 25.8773 20.948 25.8218C20.948 25.7453 21.0264 25.6993 21.0934 25.6898ZM20.6552 27.3524C20.6648 27.3295 20.6801 27.3008 20.7088 27.2969C20.749 27.2969 20.7853 27.3275 20.7911 27.3677C20.816 27.538 20.8389 27.7102 20.8619 27.8805C20.8791 28.0297 20.9193 28.1751 20.9499 28.3224C21.0532 28.7835 21.1565 29.2446 21.2598 29.7057C21.2771 29.7784 21.2598 29.853 21.2484 29.9258C21.2082 30.031 21.0857 30.1037 21.0972 30.228C21.1068 30.3888 21.0723 30.559 20.9652 30.6834C20.8944 30.7657 20.8236 30.846 20.7586 30.934C20.7203 30.98 20.6878 31.0335 20.6418 31.0756C20.5825 31.1101 20.5003 31.0967 20.4467 31.0527C20.395 31.0087 20.3855 30.936 20.3816 30.8709C20.3778 30.7025 20.3682 30.5342 20.3644 30.3658C20.3759 30.2166 20.4103 30.0712 20.4237 29.9219C20.4218 29.7956 20.3721 29.677 20.3242 29.5622C20.2439 29.39 20.1559 29.2198 20.0966 29.0399C20.0602 28.9289 20.0392 28.8084 20.064 28.6936C20.0947 28.5826 20.1616 28.4851 20.2343 28.3951C20.2726 28.3511 20.3128 28.3014 20.3721 28.2842C20.4142 28.2842 20.4524 28.3148 20.462 28.355C20.4926 28.4678 20.4467 28.5884 20.4888 28.6993C20.5309 28.8027 20.6017 28.8926 20.6476 28.9959C20.682 29.1203 20.6151 29.2485 20.6457 29.3747C20.661 29.4647 20.7566 29.501 20.8179 29.5565C20.8408 29.7115 20.8791 29.8741 20.8313 30.0291C20.8083 30.1056 20.7662 30.1879 20.7892 30.2701C20.7987 30.3008 20.837 30.2912 20.8619 30.2988C20.881 30.2357 20.8963 30.1687 20.925 30.1094C20.9575 30.0444 21.0035 29.9812 21.0149 29.9085C21.0245 29.8454 21.0494 29.7823 21.0302 29.721C21.0168 29.6655 21.0092 29.6081 20.9862 29.5565C20.9461 29.4991 20.8829 29.4608 20.8447 29.4034C20.8255 29.3575 20.7987 29.3059 20.8102 29.2542C20.8198 29.1872 20.8408 29.1241 20.8447 29.0571C20.8313 28.9729 20.8006 28.8926 20.7815 28.8103C20.7547 28.7185 20.7892 28.6171 20.7471 28.5291C20.7126 28.4525 20.6763 28.376 20.6438 28.2976C20.6131 28.2344 20.6246 28.1636 20.6131 28.0986C20.5864 28.0909 20.5557 28.0852 20.5309 28.0986C20.5041 28.1311 20.4907 28.1713 20.4639 28.2038C20.4295 28.2115 20.3855 28.2134 20.3625 28.1828C20.3262 28.1368 20.3319 28.0737 20.3453 28.0201C20.3568 27.9723 20.3644 27.9226 20.3874 27.8766C20.4563 27.7944 20.55 27.737 20.6189 27.6547C20.6572 27.559 20.6151 27.45 20.6552 27.3524ZM15.0589 30.3735C15.1144 30.3811 15.1756 30.3811 15.2273 30.4079C15.2771 30.4347 15.3249 30.4672 15.3785 30.4883C15.4301 30.5036 15.4856 30.5093 15.5392 30.5189C15.5762 30.5559 15.6131 30.5928 15.6501 30.6298C15.6769 30.9398 15.7458 31.244 15.7707 31.5539C15.7726 31.642 15.8281 31.7147 15.8472 31.7988C15.8816 31.9347 16.029 31.9902 16.094 32.105C16.1285 32.1758 16.1112 32.2542 16.117 32.3288C16.117 32.3939 16.182 32.4226 16.2222 32.4627C16.3026 32.524 16.3217 32.6349 16.3963 32.7C16.448 32.7325 16.5283 32.7574 16.5762 32.7096C16.6259 32.6675 16.6642 32.6101 16.7235 32.5814C16.8077 32.5374 16.9263 32.5469 16.9894 32.6254C17.0219 32.6675 17.0162 32.7268 16.9894 32.7689C16.9435 32.8454 16.8918 32.9162 16.844 32.9908C16.8019 33.0559 16.7503 33.1171 16.7273 33.1917C16.7101 33.2376 16.6986 33.2912 16.6565 33.3237C16.5742 33.3907 16.4537 33.3907 16.3619 33.3428C16.2031 33.2491 16.0519 33.14 15.9142 33.0176C15.9065 32.9124 15.9371 32.7861 15.8606 32.7019C15.8223 32.6579 15.7611 32.6809 15.7133 32.6904C15.6463 32.7038 15.5813 32.7287 15.5143 32.7325C15.455 32.7344 15.4129 32.6809 15.3976 32.6292C15.3574 32.4857 15.3976 32.3384 15.3918 32.1949C15.3861 31.9079 15.2924 31.6324 15.2617 31.3473C15.2426 31.1522 15.1642 30.9704 15.1316 30.7772C15.1259 30.6394 15.0628 30.5112 15.0589 30.3735ZM21.0092 30.8326C21.0532 30.8116 21.1068 30.8288 21.145 30.8575C21.2177 30.9187 21.2503 31.0106 21.2924 31.0909C21.323 31.156 21.3689 31.221 21.3651 31.2956C21.3612 31.3722 21.3383 31.4506 21.2828 31.5042C21.2254 31.5635 21.1202 31.5616 21.0628 31.5061C21.0207 31.42 21.0609 31.3033 20.9881 31.2306C20.9575 31.1942 20.9174 31.1579 20.9135 31.1081C20.9116 31.068 20.9021 31.0278 20.8867 30.9914C20.9212 30.9321 20.9575 30.8747 21.0092 30.8326ZM20.6839 31.2803C20.7509 31.2842 20.8236 31.2727 20.8867 31.2995C20.9786 31.3875 20.9193 31.5272 20.9671 31.6324C21.013 31.6687 21.0723 31.6764 21.124 31.6974C21.1297 31.7395 21.1412 31.7854 21.1144 31.8237C21.0589 31.9175 20.9805 31.994 20.9116 32.0782C20.8561 32.149 20.7719 32.2025 20.6782 32.2025C20.6285 32.2064 20.5711 32.193 20.5443 32.149C20.5156 32.1069 20.5404 32.0552 20.5634 32.0169C20.594 31.9615 20.6476 31.9194 20.6686 31.8601C20.6725 31.8141 20.6648 31.7682 20.6648 31.7223C20.6629 31.6266 20.7432 31.5444 20.7184 31.4468C20.7088 31.3913 20.6954 31.3358 20.6839 31.2803ZM20.0258 31.8773C20.0545 31.8696 20.0889 31.8715 20.11 31.8945C20.1884 31.9672 20.2458 32.0667 20.3453 32.1164C20.4046 32.1471 20.4754 32.1949 20.4639 32.2714C20.4295 32.4168 20.3376 32.5412 20.2726 32.6732C20.2209 32.7842 20.2114 32.9104 20.2133 33.0329C20.2152 33.1706 20.2496 33.3122 20.2075 33.4481C20.1884 33.5074 20.1214 33.5246 20.0755 33.5571C19.9473 33.6279 19.8517 33.7695 19.867 33.9168C19.8957 34.0259 19.9607 34.1215 20.0028 34.2249C20.0334 34.2995 20.0296 34.3894 19.9856 34.4564C19.9588 34.4985 19.9167 34.5233 19.8765 34.5482C19.6623 34.6879 19.448 34.8295 19.2318 34.9672C19.1667 35.017 19.0577 34.971 19.0443 34.8926C19.0328 34.8333 19.0462 34.7759 19.0538 34.7185C19.0749 34.6094 19.0921 34.5004 19.1131 34.3913C19.1285 34.3148 19.2146 34.2669 19.2892 34.2765C19.3657 34.3148 19.404 34.4066 19.492 34.4315C19.5781 34.4564 19.6623 34.3817 19.6795 34.2995C19.6469 34.2363 19.5628 34.2497 19.5035 34.2363C19.4021 34.2306 19.3351 34.1445 19.2739 34.0737C19.2509 34.0508 19.2643 34.0163 19.2777 33.9934C19.3427 33.8843 19.4633 33.8192 19.5245 33.7083C19.5742 33.5514 19.5015 33.3888 19.4881 33.2319C19.4767 33.1611 19.5149 33.0979 19.536 33.0329C19.5628 32.9698 19.5494 32.8971 19.5666 32.832C19.6049 32.7803 19.6661 32.7516 19.6986 32.6942C19.7598 32.5756 19.7694 32.4398 19.8306 32.3212C19.8651 32.2542 19.9072 32.1911 19.9339 32.1203C19.955 32.0552 19.9569 31.9863 19.9837 31.9251C19.9932 31.906 20.0047 31.8849 20.0258 31.8773ZM19.7522 33.052C19.7216 33.0692 19.7311 33.1152 19.7522 33.1362C19.7943 33.1783 19.8478 33.2032 19.8957 33.2357C19.9492 33.2013 20.0124 33.163 20.0239 33.0941C20.0277 33.0597 20.02 33.0118 19.9837 33.0004C19.9033 32.9755 19.8172 33.0061 19.7522 33.052ZM17.0889 32.9181C17.1463 32.9009 17.2075 32.9334 17.2439 32.9793C17.3166 33.0712 17.3376 33.1936 17.3453 33.3084C17.3491 33.4366 17.3434 33.5705 17.2994 33.6911C17.2802 33.7485 17.2209 33.7886 17.1616 33.7829C17.0449 33.7733 16.9378 33.7255 16.8364 33.6758C16.7694 33.6413 16.6967 33.6011 16.6661 33.5303C16.6412 33.4729 16.6699 33.4136 16.7005 33.3658C16.7388 33.3122 16.779 33.2606 16.8134 33.2051C16.8593 33.1305 16.9263 33.075 16.9818 33.008C17.0124 32.9736 17.043 32.9353 17.0889 32.9181ZM22.7254 33.0386C22.7522 33.0138 22.7943 33.0272 22.8268 33.031C22.8957 33.0405 22.9416 33.0999 23.0028 33.1286C23.0985 33.1573 23.1999 33.1113 23.2955 33.1439C23.3204 33.1534 23.3357 33.1764 23.3338 33.2032C23.3376 33.2893 23.3223 33.3868 23.2515 33.4442C23.1769 33.5036 23.0813 33.5303 22.9913 33.561C22.9072 33.5839 22.8249 33.6222 22.7369 33.6184C22.6776 33.6184 22.624 33.5667 22.6297 33.5055C22.6355 33.4079 22.689 33.318 22.7005 33.2204C22.7101 33.1611 22.6967 33.0941 22.7254 33.0386Z" fill="white"/>
</g>
<circle cx="20" cy="20" r="19.5" stroke="black" stroke-opacity="0.05"/>
<defs>
<clipPath id="clip0_9_409443">
<rect width="13.0867" height="30" fill="white" transform="translate(13 5)"/>
</clipPath>
</defs>
</svg>
