<svg width="40" height="40" viewBox="0 0 40 40" fill="none" xmlns="http://www.w3.org/2000/svg">
<circle cx="20" cy="20" r="20" fill="#F6F8FA"/>
<g clip-path="url(#clip0_9_397432)">
<path d="M24.056 27.8926C23.6334 28.5854 23.0365 29.1552 22.3248 29.5451C21.6131 29.9351 20.8116 30.1315 20.0003 30.1147C19.189 30.1315 18.3874 29.9351 17.6757 29.5451C16.9641 29.1552 16.3671 28.5854 15.9446 27.8926H14.2324C15.1431 30.054 17.3714 31.5354 20.0003 31.5354C22.6292 31.5354 24.8574 30.054 25.7681 27.8926H24.056Z" fill="#56BE91"/>
<path d="M19.7998 18.7862C17.8812 18.7862 16.3573 17.4444 16.3573 15.4347C16.3573 13.4312 17.8751 12.1076 19.7998 12.1076C21.7426 12.1076 23.0359 13.4312 23.0359 15.4347C23.0359 17.4383 21.7487 18.7862 19.7998 18.7862ZM26.0716 25.4647C25.9501 23.1879 25.0698 21.3422 23.4184 20.0126C24.8148 18.9744 25.4644 17.329 25.4644 15.4347C25.4644 12.1865 23.0784 9.67902 19.8059 9.67902C19.0398 9.66285 18.2783 9.79979 17.5659 10.0818C16.8535 10.3638 16.2046 10.7852 15.6572 11.3213C15.1098 11.8574 14.675 12.4974 14.3782 13.2037C14.0813 13.91 13.9285 14.6686 13.9287 15.4347V25.4647H16.3573V20.3647C18.0694 21.2754 19.9212 20.9962 21.2751 21.6762C22.6351 22.3501 23.6066 23.4065 23.6066 25.4647H26.0716Z" fill="#463966"/>
</g>
<circle cx="20" cy="20" r="19.5" stroke="black" stroke-opacity="0.05"/>
<defs>
<clipPath id="clip0_9_397432">
<rect width="14" height="23" fill="white" transform="translate(13 9)"/>
</clipPath>
</defs>
</svg>
