<svg width="40" height="40" viewBox="0 0 40 40" fill="none" xmlns="http://www.w3.org/2000/svg">
<circle cx="20" cy="20" r="20" fill="#F6F8FA"/>
<g clip-path="url(#clip0_9_406781)">
<path d="M33.0591 23.1196C33.571 23.1196 33.986 22.7055 33.986 22.1946C33.986 21.6837 33.571 21.2695 33.0591 21.2695C32.5473 21.2695 32.1323 21.6837 32.1323 22.1946C32.1323 22.7055 32.5473 23.1196 33.0591 23.1196Z" fill="#ED1B2F"/>
<path d="M32.1698 24.43C32.0224 24.588 31.8182 24.6821 31.6016 24.6927C31.3868 24.7034 31.1737 24.6288 31.0122 24.4868C30.8488 24.343 30.7476 24.1423 30.7316 23.9257C30.7139 23.702 30.7867 23.4783 30.9358 23.3096C31.085 23.1409 31.2962 23.0379 31.5217 23.0273C31.7472 23.0166 31.9674 23.0983 32.1307 23.251C32.2959 23.4055 32.3917 23.6203 32.3953 23.8458C32.3988 24.0624 32.3189 24.2719 32.1698 24.43Z" fill="#E31E36"/>
<path d="M30.4544 25.6337C30.3212 25.781 30.1348 25.8698 29.9359 25.8787C29.7371 25.8876 29.5418 25.8183 29.3962 25.6851C29.2488 25.5502 29.16 25.3638 29.1511 25.1649C29.1423 24.9678 29.2115 24.7725 29.3447 24.6252C29.4778 24.4796 29.6661 24.3908 29.8631 24.3819C30.062 24.3713 30.2555 24.4423 30.4029 24.5754C30.5503 24.7086 30.639 24.895 30.6479 25.0939C30.6568 25.2927 30.5875 25.4863 30.4544 25.6337Z" fill="#DA1F3D"/>
<path d="M28.1215 26.5086C28.4941 26.5086 28.7962 26.2065 28.7962 25.8339C28.7962 25.4613 28.4941 25.1592 28.1215 25.1592C27.7489 25.1592 27.4468 25.4613 27.4468 25.8339C27.4468 26.2065 27.7489 26.5086 28.1215 26.5086Z" fill="#D12244"/>
<path d="M26.7966 26.3507C26.6883 26.4661 26.5392 26.5354 26.3812 26.5442C26.2214 26.5513 26.0669 26.4963 25.9479 26.3915C25.829 26.285 25.7562 26.1376 25.7455 25.9796C25.7367 25.8181 25.7935 25.66 25.9018 25.5393C26.0101 25.4203 26.1628 25.3475 26.3244 25.3404C26.4859 25.3333 26.6439 25.3902 26.7629 25.4985C26.8819 25.6085 26.9529 25.7612 26.96 25.9228C26.9635 26.0808 26.905 26.2353 26.7966 26.3507Z" fill="#C9234A"/>
<path d="M25.2964 25.6494C25.2715 25.7169 25.2342 25.779 25.1863 25.8323C25.1383 25.8856 25.0797 25.9282 25.0158 25.9601C24.9501 25.9903 24.8809 26.0081 24.8081 26.0116C24.5062 26.0258 24.2506 25.7932 24.2364 25.4914C24.2275 25.344 24.2772 25.2002 24.3749 25.0919C24.4725 24.9836 24.6092 24.9179 24.7566 24.9108C24.9022 24.9037 25.0442 24.9552 25.1525 25.0546C25.2608 25.1541 25.323 25.2925 25.3283 25.4381C25.3319 25.5092 25.3212 25.582 25.2964 25.6494Z" fill="#C02550"/>
<path d="M23.5226 25.0901C23.7942 25.0901 24.0144 24.8699 24.0144 24.5983C24.0144 24.3266 23.7942 24.1064 23.5226 24.1064C23.251 24.1064 23.0308 24.3266 23.0308 24.5983C23.0308 24.8699 23.251 25.0901 23.5226 25.0901Z" fill="#B72755"/>
<path d="M22.9565 23.7075C22.937 23.7625 22.9068 23.8123 22.8677 23.8549C22.8287 23.8975 22.7825 23.933 22.7292 23.9579C22.676 23.9827 22.6191 23.9969 22.5623 24.0005C22.5037 24.0022 22.4451 23.9934 22.3901 23.9738C22.3368 23.9543 22.2853 23.9241 22.2427 23.8851C22.2001 23.846 22.1646 23.7998 22.1397 23.7466C22.1149 23.6933 22.1007 23.6365 22.0989 23.5779C22.0954 23.5211 22.1042 23.4625 22.1238 23.4074C22.1433 23.3524 22.1735 23.3027 22.2125 23.2601C22.2516 23.2175 22.2995 23.182 22.351 23.1571C22.4043 23.1322 22.4611 23.118 22.5197 23.1145C22.5765 23.1127 22.6351 23.1216 22.6902 23.1411C22.7452 23.1606 22.7949 23.1908 22.8375 23.2299C22.8819 23.269 22.9157 23.3169 22.9405 23.3684C22.9654 23.4216 22.9796 23.4785 22.9831 23.5371C22.9849 23.5939 22.976 23.6525 22.9565 23.7075Z" fill="#AE275F"/>
<path d="M22.0597 22.7219C21.9887 22.7982 21.891 22.8426 21.788 22.848C21.6851 22.8533 21.5839 22.8178 21.5057 22.7485C21.4294 22.6811 21.3797 22.5852 21.3726 22.4822C21.3672 22.3757 21.4045 22.2727 21.4756 22.1946C21.5466 22.1164 21.646 22.0703 21.7508 22.065C21.8573 22.0596 21.9603 22.0969 22.0384 22.1679C22.1165 22.239 22.1627 22.3384 22.168 22.4431C22.1698 22.5479 22.1307 22.6473 22.0597 22.7219Z" fill="#A52868"/>
<path d="M21.506 21.4855C21.4901 21.5299 21.467 21.5707 21.435 21.6063C21.4031 21.6418 21.364 21.6684 21.3214 21.6897C21.2806 21.7092 21.2344 21.7199 21.1865 21.7234C21.0409 21.7305 20.9077 21.6489 20.8456 21.5175C20.7834 21.3879 20.8065 21.2316 20.9041 21.1233C21.0018 21.0168 21.1527 20.9795 21.2894 21.0274C21.4262 21.0771 21.5203 21.2032 21.5274 21.3488C21.5291 21.395 21.522 21.4411 21.506 21.4855Z" fill="#9D2872"/>
<path d="M21.0496 20.2821C21.0496 20.4721 20.8951 20.6248 20.7069 20.6248C20.517 20.623 20.3643 20.4703 20.3643 20.2804C20.3643 20.0922 20.517 19.9377 20.7069 19.9395C20.8969 19.9395 21.0496 20.0922 21.0496 20.2821Z" fill="#94287B"/>
<path d="M7.04241 21.4881C7.61704 21.4881 8.08287 21.0223 8.08287 20.4477C8.08287 19.8731 7.61704 19.4072 7.04241 19.4072C6.46778 19.4072 6.00195 19.8731 6.00195 20.4477C6.00195 21.0223 6.46778 21.4881 7.04241 21.4881Z" fill="#009BDF"/>
<path d="M8.35456 19.2915C8.86643 19.2915 9.28138 18.8773 9.28138 18.3665C9.28138 17.8556 8.86643 17.4414 8.35456 17.4414C7.84269 17.4414 7.42773 17.8556 7.42773 18.3665C7.42773 18.8773 7.84269 19.2915 8.35456 19.2915Z" fill="#008FD5"/>
<path d="M9.84932 17.5108C10.3092 17.5108 10.682 17.1372 10.682 16.6763C10.682 16.2154 10.3092 15.8418 9.84932 15.8418C9.38942 15.8418 9.0166 16.2154 9.0166 16.6763C9.0166 17.1372 9.38942 17.5108 9.84932 17.5108Z" fill="#0083CA"/>
<path d="M11.5115 16.1828C11.9253 16.1828 12.2607 15.8465 12.2607 15.4317C12.2607 15.0169 11.9253 14.6807 11.5115 14.6807C11.0977 14.6807 10.7622 15.0169 10.7622 15.4317C10.7622 15.8465 11.0977 16.1828 11.5115 16.1828Z" fill="#0077C0"/>
<path d="M13.2924 15.4012C13.665 15.4012 13.9671 15.0991 13.9671 14.7265C13.9671 14.3538 13.665 14.0518 13.2924 14.0518C12.9197 14.0518 12.6177 14.3538 12.6177 14.7265C12.6177 15.0991 12.9197 15.4012 13.2924 15.4012Z" fill="#006DB7"/>
<path d="M15.0589 15.2184C15.3943 15.2184 15.6661 14.9465 15.6661 14.6111C15.6661 14.2758 15.3943 14.0039 15.0589 14.0039C14.7235 14.0039 14.4517 14.2758 14.4517 14.6111C14.4517 14.9465 14.7235 15.2184 15.0589 15.2184Z" fill="#2062AF"/>
<path d="M16.6304 15.6445C16.9324 15.6445 17.1772 15.3997 17.1772 15.0976C17.1772 14.7956 16.9324 14.5508 16.6304 14.5508C16.3283 14.5508 16.0835 14.7956 16.0835 15.0976C16.0835 15.3997 16.3283 15.6445 16.6304 15.6445Z" fill="#4156A6"/>
<path d="M17.8907 16.4563C18.1624 16.4563 18.3826 16.2361 18.3826 15.9645C18.3826 15.6929 18.1624 15.4727 17.8907 15.4727C17.6191 15.4727 17.3989 15.6929 17.3989 15.9645C17.3989 16.2361 17.6191 16.4563 17.8907 16.4563Z" fill="#55489D"/>
<path d="M18.8726 17.4467C19.1177 17.4467 19.3165 17.2488 19.3165 17.0046C19.3165 16.7604 19.1177 16.5625 18.8726 16.5625C18.6274 16.5625 18.4287 16.7604 18.4287 17.0046C18.4287 17.2488 18.6274 17.4467 18.8726 17.4467Z" fill="#643695"/>
<path d="M19.267 17.9634C19.2848 17.9136 19.3132 17.8693 19.3469 17.8302C19.3824 17.7911 19.425 17.7592 19.473 17.7379C19.5209 17.7148 19.5724 17.7024 19.6239 17.7006C19.7855 17.6935 19.9346 17.784 20.0038 17.9296C20.0713 18.0752 20.0447 18.2474 19.9364 18.3664C19.8281 18.4854 19.6594 18.528 19.5067 18.4729C19.3558 18.4197 19.2528 18.2794 19.2439 18.1178C19.2421 18.0646 19.2492 18.0131 19.267 17.9634Z" fill="#6F2C91"/>
<path d="M20.2454 19.5542C20.4435 19.5542 20.604 19.3936 20.604 19.1956C20.604 18.9975 20.4435 18.8369 20.2454 18.8369C20.0473 18.8369 19.8867 18.9975 19.8867 19.1956C19.8867 19.3936 20.0473 19.5542 20.2454 19.5542Z" fill="#822A85"/>
</g>
<circle cx="20" cy="20" r="19.5" stroke="black" stroke-opacity="0.05"/>
<defs>
<clipPath id="clip0_9_406781">
<rect width="28" height="12.5529" fill="white" transform="translate(6 14)"/>
</clipPath>
</defs>
</svg>
