<svg width="40" height="40" viewBox="0 0 40 40" fill="none" xmlns="http://www.w3.org/2000/svg">
<circle cx="20" cy="20" r="20" fill="#F6F8FA"/>
<g clip-path="url(#clip0_9_395715)">
<path d="M12.9289 23.2139C10.766 24.9993 8.39085 26.5107 5.85742 27.7139H24.5839C24.5839 26.0553 24.8153 24.0239 24.9246 23.2139H12.9353H12.9289Z" fill="black"/>
<path d="M14.0732 27.7139C15.3164 26.2773 16.4816 24.7752 17.564 23.2139H19.4154C18.5539 24.7789 17.5852 26.2825 16.5161 27.7139H14.0732Z" fill="#FEC331"/>
<path d="M27.2061 11.6426C21.7418 12.8769 17.7882 15.5897 16.4961 16.7854H27.3797C28.9418 14.0211 32.5418 12.2083 34.1425 11.6426H27.2061Z" fill="black"/>
<path d="M30.9482 11.6426C25.6768 12.8061 22.3918 15.5576 21.4082 16.7854H23.2275C25.2011 14.0854 29.8618 12.234 31.9446 11.6426H30.9482Z" fill="#FEC331"/>
<path d="M19.2864 18.4252L18.8686 19.3573H17.4286L17.7886 18.618C17.8061 18.5814 17.814 18.541 17.8115 18.5005C17.809 18.46 17.7962 18.4208 17.7743 18.3867C17.7524 18.3525 17.7221 18.3246 17.6864 18.3054C17.6506 18.2863 17.6105 18.2766 17.57 18.2773H17.0686C17.0207 18.2772 16.9739 18.2911 16.9339 18.3174C16.8939 18.3437 16.8625 18.3812 16.8436 18.4252L15.545 21.3116C15.4743 21.4659 15.59 21.6459 15.7636 21.6459H16.175C16.265 21.6459 16.3486 21.5944 16.3936 21.5173L16.9078 20.643H18.3478L17.75 21.7037C17.6028 21.9568 17.3944 22.1689 17.1439 22.3206C16.8935 22.4722 16.6089 22.5585 16.3164 22.5716H15.3521C15.1471 22.5807 14.9431 22.5368 14.7599 22.4442C14.5767 22.3516 14.4204 22.2134 14.3061 22.0429C14.1918 21.8724 14.1233 21.6753 14.1072 21.4707C14.0911 21.266 14.128 21.0607 14.2143 20.8744L15.3971 18.393C15.5369 18.1029 15.756 17.8583 16.0291 17.6877C16.3021 17.517 16.618 17.4272 16.94 17.4287H18.6114C19.1321 17.4287 19.4857 17.9494 19.2864 18.4252Z" fill="black"/>
<path fill-rule="evenodd" clip-rule="evenodd" d="M17.9814 22.5716L18.4122 21.6716H18.7593L20.3022 18.303H19.8457L20.2957 17.4287H23.4457C23.9857 17.4287 24.3393 18.0009 24.1014 18.4894L23.3236 20.0966C23.1564 20.4309 22.8157 20.643 22.4493 20.643H20.6879L20.2314 21.6716H20.6879L20.3022 22.5716H17.9814ZM21.1764 19.608L21.755 18.348H22.34C22.52 18.348 22.6357 18.5409 22.5586 18.7016L22.1793 19.473C22.1581 19.5124 22.1265 19.5452 22.088 19.5679C22.0495 19.5905 22.0054 19.6022 21.9607 19.6016H21.1764V19.608Z" fill="black"/>
<path d="M27.2643 17.4287H25.0272L24.5643 18.438H25.0272L23.5165 21.6716H23.0857L22.7129 22.5716H25.0272L25.4386 21.6716H24.95L26.3965 18.438H26.8272L27.2643 17.4287Z" fill="black"/>
</g>
<circle cx="20" cy="20" r="19.5" stroke="black" stroke-opacity="0.05"/>
<defs>
<clipPath id="clip0_9_395715">
<rect width="30" height="17" fill="white" transform="translate(5 11)"/>
</clipPath>
</defs>
</svg>
