<svg width="40" height="40" viewBox="0 0 40 40" fill="none" xmlns="http://www.w3.org/2000/svg">
<circle cx="20" cy="20" r="20" fill="#662D91"/>
<path d="M11.1244 21.1279L13.2907 24.5036C13.292 24.5057 13.2928 24.508 13.2929 24.5105C13.2929 24.5129 13.2924 24.5153 13.2912 24.5175C13.2901 24.5196 13.2883 24.5214 13.2863 24.5227C13.2842 24.524 13.2818 24.5246 13.2793 24.5246H10.8983C10.8895 24.5247 10.8809 24.5224 10.8732 24.518C10.8655 24.5136 10.8591 24.5073 10.8546 24.4996L9.06217 21.5125C9.04891 21.4905 9.0296 21.4795 9.00422 21.4795L8.45258 21.479C8.44775 21.479 8.44313 21.4809 8.43972 21.4843C8.43631 21.4877 8.4344 21.4923 8.4344 21.4971V24.4911C8.4344 24.5135 8.42322 24.5246 8.40088 24.5246H6.03352C6.01117 24.5246 6 24.5137 6 24.4917V16.033C6 16.011 6.01098 16 6.03295 16C6.9018 16.003 7.89411 16.0034 9.0099 16.0011C9.45152 16.0004 9.79921 16.0256 10.053 16.0767C11.2977 16.3272 12.5305 17.209 12.676 18.5486C12.7953 19.6445 12.0545 20.5535 11.133 21.0904C11.1299 21.0922 11.1272 21.0947 11.1251 21.0976C11.123 21.1005 11.1215 21.1038 11.1207 21.1073C11.1199 21.1108 11.1199 21.1144 11.1205 21.118C11.1211 21.1215 11.1225 21.1249 11.1244 21.1279ZM8.4344 17.2499V20.2439C8.4344 20.2521 8.43769 20.2601 8.44355 20.266C8.44941 20.2718 8.45736 20.2751 8.46564 20.2751H9.10705C9.45149 20.2751 9.78183 20.1201 10.0254 19.8441C10.2689 19.5682 10.4058 19.1939 10.4058 18.8037V18.69C10.4058 18.2998 10.2689 17.9255 10.0254 17.6496C9.78183 17.3736 9.45149 17.2186 9.10705 17.2186H8.46564C8.45736 17.2186 8.44941 17.2219 8.44355 17.2278C8.43769 17.2336 8.4344 17.2416 8.4344 17.2499Z" fill="white"/>
<path d="M19.7007 21.2473C19.6643 22.1533 19.2603 23.0074 18.5776 23.6217C17.895 24.236 16.9895 24.5601 16.0604 24.5228C15.1314 24.4855 14.2548 24.0898 13.6236 23.4227C12.9924 22.7557 12.6582 21.8719 12.6946 20.9659C12.731 20.0599 13.1349 19.2058 13.8176 18.5915C14.5003 17.9772 15.4058 17.6531 16.3348 17.6904C17.2639 17.7277 18.1405 18.1234 18.7717 18.7905C19.4029 19.4575 19.7371 20.3413 19.7007 21.2473ZM16.1982 22.9007C16.4953 22.9007 16.7803 22.7116 16.9904 22.3751C17.2005 22.0385 17.3185 21.582 17.3185 21.106C17.3185 20.63 17.2005 20.1736 16.9904 19.837C16.7803 19.5004 16.4953 19.3113 16.1982 19.3113C15.9011 19.3113 15.6161 19.5004 15.406 19.837C15.1959 20.1736 15.0779 20.63 15.0779 21.106C15.0779 21.582 15.1959 22.0385 15.406 22.3751C15.6161 22.7116 15.9011 22.9007 16.1982 22.9007Z" fill="white"/>
<path d="M22.4316 20.372C22.4316 20.392 22.4386 20.3949 22.4526 20.3805L25.033 17.8518C25.0508 17.8343 25.0749 17.8245 25.1 17.8245H29.7143C29.7253 17.8245 29.7308 17.83 29.7308 17.841C29.7311 18.917 29.7311 20.1084 29.7308 21.415C29.7308 22.0627 29.7756 22.8609 30.6704 22.7831C31.0891 22.7467 31.3084 22.5047 31.5107 22.1678C31.5474 22.1068 31.5658 22.0426 31.5658 21.9752C31.565 20.542 31.565 19.1659 31.5658 17.8467C31.5658 17.8323 31.573 17.8251 31.5874 17.8251L33.9758 17.8245C33.9822 17.8245 33.9885 17.8271 33.993 17.8317C33.9976 17.8363 34.0002 17.8425 34.0002 17.8489V24.4908C34.0002 24.5132 33.989 24.5244 33.9667 24.5244L33.4332 24.5249C33.4052 24.5249 33.3819 24.5145 33.3633 24.4937L32.5129 23.5478C32.4981 23.5311 32.4827 23.5305 32.4668 23.5461C31.5688 24.424 30.4924 24.7099 29.2376 24.4039C28.0639 24.1182 27.3066 23.2273 27.3055 21.982C27.3039 20.6931 27.3039 19.4257 27.3055 18.1796C27.3055 18.1504 27.2952 18.1463 27.2748 18.1671L24.5842 20.9418C24.5683 20.9585 24.5683 20.9753 24.5842 20.9924L27.8906 24.4999C27.8925 24.5019 27.8937 24.5045 27.8942 24.5072C27.8947 24.5099 27.8943 24.5127 27.8933 24.5152C27.8922 24.5177 27.8904 24.5199 27.8881 24.5214C27.8858 24.5229 27.8831 24.5238 27.8804 24.5238L25.5556 24.5244C25.5069 24.5244 25.4601 24.5052 25.4255 24.471L22.4571 21.5025C22.4553 21.5006 22.453 21.4992 22.4504 21.4986C22.4478 21.498 22.4451 21.4982 22.4426 21.4992C22.4401 21.5002 22.438 21.5019 22.4366 21.5041C22.4351 21.5063 22.4343 21.509 22.4344 21.5116L22.431 24.4948C22.431 24.5027 22.4279 24.5102 22.4223 24.5157C22.4168 24.5212 22.4093 24.5244 22.4014 24.5244H20.0426C20.0313 24.5244 20.0205 24.5199 20.0125 24.5119C20.0045 24.5039 20 24.4931 20 24.4818L20.0006 17.8654C20.0006 17.8389 20.0138 17.8257 20.0403 17.8257L22.3992 17.8154C22.4208 17.8154 22.4316 17.8262 22.4316 17.8478V20.372Z" fill="white"/>
<circle cx="20" cy="20" r="19.5" stroke="black" stroke-opacity="0.05"/>
</svg>
