<svg width="40" height="40" viewBox="0 0 40 40" fill="none" xmlns="http://www.w3.org/2000/svg">
<circle cx="20" cy="20" r="20" fill="#F6F8FA"/>
<g clip-path="url(#clip0_9_408563)">
<mask id="mask0_9_408563" style="mask-type:luminance" maskUnits="userSpaceOnUse" x="4" y="12" width="32" height="17">
<path d="M4 12H35.9984V28.2909H4V12Z" fill="white"/>
</mask>
<g mask="url(#mask0_9_408563)">
<path d="M35.998 20.1455L19.7833 28.2909L4 20.2036V20.1455L19.7833 12L35.998 20.1455Z" fill="#CE0E2D"/>
<path fill-rule="evenodd" clip-rule="evenodd" d="M19.8135 26.7699C19.3541 26.7699 18.9829 26.3988 18.9829 25.9393C18.9829 25.4779 19.3541 25.1067 19.8135 25.1067C20.273 25.1067 20.6441 25.4779 20.6441 25.9393C20.6441 26.3988 20.273 26.7699 19.8135 26.7699ZM20.4716 25.9393C20.4716 25.5581 20.1767 25.2512 19.8135 25.2512C19.4484 25.2512 19.1535 25.5581 19.1535 25.9393C19.1535 26.3185 19.4484 26.6275 19.8135 26.6275C20.1767 26.6275 20.4716 26.3185 20.4716 25.9393ZM19.956 25.9955L20.2148 26.4268H20.0422L19.7854 26.0256H19.6129V26.4268H19.4684V25.4799H19.8416C20.0703 25.4799 20.1847 25.5381 20.1847 25.7387C20.1847 25.9092 20.0703 25.9674 19.956 25.9955ZM19.8135 25.8811C19.9279 25.8811 20.0422 25.8811 20.0422 25.7387C20.0422 25.6223 19.956 25.5942 19.8416 25.5942H19.641V25.8811H19.8135ZM30.9282 21.034C30.8721 21.4653 30.4126 22.1535 29.2951 22.1234C27.8928 22.0953 27.5477 21.1484 27.5477 21.1484L28.2639 20.7471C28.2639 20.7471 28.4946 21.3209 29.3252 21.3791C29.897 21.4352 30.2702 20.7752 29.6683 20.5746C29.0664 20.3739 27.634 20.6327 27.6059 19.3427C27.5778 18.5683 28.4946 17.9945 29.239 18.0507C30.4708 18.1369 30.8139 18.9415 30.8139 18.9415L30.0977 19.2845C30.0977 19.2845 29.4677 18.7107 28.8658 18.8833C28.4946 18.9695 28.4084 19.5433 28.924 19.5714C29.9833 19.6577 31.0727 19.7159 30.9282 21.034ZM14.8861 22.2097C13.8409 22.2097 12.9962 21.2868 12.9962 20.1452C12.9962 19.0036 13.8409 18.0808 14.8861 18.0808C15.9314 18.0808 16.778 19.0036 16.778 20.1452C16.778 21.2868 15.9314 22.2097 14.8861 22.2097ZM15.8311 20.1452C15.8311 19.4631 15.4098 18.9114 14.8861 18.9114C14.3645 18.9114 13.9412 19.4631 13.9412 20.1452C13.9412 20.8273 14.3645 21.3791 14.8861 21.3791C15.4098 21.3791 15.8311 20.8273 15.8311 20.1452ZM12.0212 20.6327L12.8518 22.0953L11.8506 22.0672L11.1344 20.7471L10.4743 20.7752L10.5044 22.0672H9.67383V18.167H11.7062C11.7062 18.167 12.7374 18.482 12.7374 19.3708C12.7374 20.1171 12.0212 20.6327 12.0212 20.6327ZM11.4775 18.9415H10.5606L10.5887 20.0309C10.5887 20.0309 11.1906 20.087 11.5356 20.0008C11.7924 19.744 12.0513 19.3708 11.4775 18.9415ZM20.7304 21.2928H22.0766V22.0371H19.8135V18.1951H20.7304V21.2928ZM22.3635 18.1951H23.3084V22.009H22.3635V18.1951ZM19.4985 22.0391H17.2355V18.1951H18.1523V21.2928H19.4985V22.0391ZM26.3158 18.1971H27.1183V22.011H26.3158L25.0559 19.9466H24.9135V22.0391H23.9966V18.1971H24.8834L26.2015 20.1472H26.3158V18.1971Z" fill="white"/>
</g>
</g>
<circle cx="20" cy="20" r="19.5" stroke="black" stroke-opacity="0.05"/>
<defs>
<clipPath id="clip0_9_408563">
<rect width="32" height="16.2909" fill="white" transform="translate(4 12)"/>
</clipPath>
</defs>
</svg>
