<svg width="40" height="40" viewBox="0 0 40 40" fill="none" xmlns="http://www.w3.org/2000/svg">
<circle cx="20" cy="20" r="20" fill="#0081C6"/>
<g clip-path="url(#clip0_9_386562)">
<path d="M15.9592 27.9662C15.9592 29.0551 15.0684 29.947 13.9796 29.947C12.892 29.947 12.0012 29.0551 12.0012 27.9662V17.9698C12.0012 16.881 12.892 15.9902 13.9796 15.9902C15.0684 15.9902 15.9592 16.881 15.9592 17.9698V27.9662Z" fill="white"/>
<path d="M23.6771 15.6432C23.874 15.4452 23.9736 15.1979 23.9736 14.9506C23.9736 14.4055 23.5282 13.9602 22.9844 13.9602H13.9796C12.892 13.9602 12.0012 13.0694 12.0012 11.9806C12.0012 10.8917 12.892 10.001 13.9796 10.001H22.9844C25.7539 10.001 27.9808 12.2279 27.9808 14.9998C27.9808 16.4848 27.3374 17.8209 26.2989 18.7609L21.4994 23.5616C21.2025 23.8089 21.054 24.1554 21.054 24.6012C21.054 25.3935 21.6975 26.037 22.4898 26.037H25.952C27.0408 26.037 27.9316 26.9277 27.9316 28.0166C27.9316 29.1054 27.0408 29.9962 25.952 29.9962H22.4898C19.4718 29.9962 17.0468 27.5208 17.0468 24.5028C17.0468 22.9181 17.7899 21.5328 18.6795 20.642L23.6771 15.6432Z" fill="white"/>
</g>
<circle cx="20" cy="20" r="19.5" stroke="black" stroke-opacity="0.05"/>
<defs>
<clipPath id="clip0_9_386562">
<rect width="15.9904" height="20" fill="white" transform="translate(12 10)"/>
</clipPath>
</defs>
</svg>
