<svg width="40" height="40" viewBox="0 0 40 40" fill="none" xmlns="http://www.w3.org/2000/svg">
<circle cx="20" cy="20" r="20" fill="#F6F8FA"/>
<g clip-path="url(#clip0_9_402546)">
<path d="M11.3591 27.3514V21.3159C11.3591 20.6044 10.8161 20.2208 10.3677 20.2208H8.5591V18.2658H10.4103C11.057 18.2658 11.4851 17.6191 11.4851 17.1929C11.4851 16.7648 11.1293 16.0199 10.3121 16.0199H8.05506V23.3043H6V14H10.6457C12.0225 14 13.4679 15.2972 13.4679 16.952C13.4679 18.2435 12.723 19.196 12.3338 19.4536C12.3338 19.4536 13.4679 19.8372 13.4679 20.9546V25.4279H13.896V14.0056H17.4965C19.3255 14.0056 21.4139 15.8345 21.4139 17.9433C21.4139 21.3215 18.4101 22.2629 16.5422 22.0609V20.2041C16.5422 20.2041 17.4743 20.1596 17.7745 20.0948C18.0765 20.0299 19.457 19.6241 19.457 17.9637C19.457 16.3923 17.995 15.9661 17.2167 15.9661H15.9899V25.4446H33.9833V27.394L11.3591 27.3514Z" fill="#003976"/>
<path d="M23.7692 15.9832V23.4029H21.8086V14.0615H31.124C32.701 14.0615 33.9296 15.7682 33.9296 16.8652V23.414H32.0431C32.0431 23.414 32.0598 17.6806 32.0598 17.1154C32.0598 16.5521 31.6596 15.972 30.6904 15.972H28.9318V23.4029H26.9361V17.1154C26.9361 16.1796 26.104 15.9665 25.8798 15.9665L23.7692 15.9832Z" fill="#003976"/>
</g>
<circle cx="20" cy="20" r="19.5" stroke="black" stroke-opacity="0.05"/>
<defs>
<clipPath id="clip0_9_402546">
<rect width="28" height="13.3977" fill="white" transform="translate(6 14)"/>
</clipPath>
</defs>
</svg>
