<svg width="40" height="40" viewBox="0 0 40 40" fill="none" xmlns="http://www.w3.org/2000/svg">
<circle cx="20" cy="20" r="20" fill="#0A2972"/>
<path d="M33.0007 16.777L34.093 15.6293C34.0948 15.6274 34.097 15.6259 34.0994 15.6249C34.1018 15.6239 34.1044 15.6234 34.107 15.6234L34.9804 15.6211C34.9842 15.6211 34.9879 15.6221 34.9911 15.6242C34.9943 15.6263 34.9968 15.6293 34.9983 15.6328C34.9998 15.6363 35.0002 15.6401 34.9995 15.6439C34.9988 15.6476 34.9971 15.6511 34.9944 15.6538L33.3417 17.3182C33.3398 17.32 33.3383 17.3222 33.3373 17.3246C33.3363 17.327 33.3358 17.3296 33.3358 17.3322V18.7298C33.3358 18.7349 33.3338 18.7398 33.3302 18.7435C33.3266 18.7471 33.3217 18.7491 33.3166 18.7491L32.5436 18.7485C32.5385 18.7485 32.5336 18.7465 32.53 18.7429C32.5264 18.7393 32.5243 18.7344 32.5243 18.7292V17.3188C32.5244 17.3138 32.5225 17.309 32.5191 17.3054L30.8973 15.6538C30.8946 15.6511 30.8929 15.6476 30.8922 15.6439C30.8915 15.6401 30.8919 15.6363 30.8934 15.6328C30.8949 15.6293 30.8974 15.6263 30.9006 15.6242C30.9038 15.6221 30.9075 15.6211 30.9113 15.6211L31.86 15.6234C31.8626 15.6234 31.8652 15.6239 31.8676 15.6249C31.87 15.6259 31.8722 15.6274 31.874 15.6293L32.9727 16.777C32.9745 16.7789 32.9767 16.7804 32.9791 16.7815C32.9815 16.7825 32.9841 16.7831 32.9867 16.7831C32.9893 16.7831 32.9919 16.7825 32.9943 16.7815C32.9968 16.7804 32.9989 16.7789 33.0007 16.777Z" fill="white"/>
<path d="M7.77923 18.0206L9.33856 19.3406C9.36542 19.3635 9.36113 19.375 9.32572 19.375H8.14586C8.12635 19.375 8.10775 19.3677 8.0939 19.3546L6.67701 18.0113C6.65872 17.9941 6.63693 17.9856 6.61163 17.9856L5.85035 17.9862C5.82583 17.9862 5.81357 17.9982 5.81357 18.0223V19.3377C5.81357 19.3626 5.80092 19.375 5.77563 19.375L5.03303 19.3756C5.01085 19.3756 4.99976 19.3645 4.99976 19.3423V15.6545C4.99976 15.6315 5.01124 15.62 5.0342 15.62C6.10217 15.6278 7.13724 15.6272 8.13943 15.6183C8.47045 15.6153 8.73608 15.6796 8.87677 15.9808C8.92114 16.0762 8.94255 16.1886 8.94099 16.3182C8.93671 16.6164 8.93729 16.9172 8.94274 17.2208C8.94625 17.3909 8.92406 17.5267 8.87619 17.6283C8.66194 18.0825 8.19606 17.9751 7.79091 17.9867C7.75743 17.9875 7.75354 17.9988 7.77923 18.0206ZM5.81124 16.2744L5.81474 17.3171C5.81474 17.3238 5.81739 17.3302 5.82209 17.3349C5.8268 17.3396 5.83319 17.3422 5.83984 17.3422L7.77456 17.3352C7.86915 17.3349 7.95974 17.2992 8.02642 17.2359C8.09309 17.1726 8.13038 17.0869 8.13009 16.9978L8.12893 16.5774C8.12878 16.5333 8.11941 16.4896 8.10135 16.4488C8.08329 16.4081 8.05688 16.3711 8.02365 16.34C7.99042 16.3089 7.95101 16.2842 7.90767 16.2675C7.86433 16.2507 7.81791 16.2422 7.77106 16.2423L5.83634 16.2493C5.82968 16.2493 5.8233 16.252 5.81859 16.2567C5.81388 16.2614 5.81124 16.2678 5.81124 16.2744Z" fill="white"/>
<path d="M14.0831 18.119C14.0831 18.2857 14.0169 18.4457 13.899 18.5636C13.781 18.6815 13.6211 18.7477 13.4544 18.7477H10.6346C10.4679 18.7477 10.3079 18.6815 10.19 18.5636C10.0721 18.4457 10.0059 18.2857 10.0059 18.119V16.2508C10.0059 16.0841 10.0721 15.9241 10.19 15.8062C10.3079 15.6883 10.4679 15.6221 10.6346 15.6221H13.4544C13.6211 15.6221 13.781 15.6883 13.899 15.8062C14.0169 15.9241 14.0831 16.0841 14.0831 16.2508V18.119ZM13.2705 16.2613C13.2705 16.257 13.2687 16.2528 13.2657 16.2498C13.2626 16.2467 13.2585 16.245 13.2541 16.245H10.8349C10.8305 16.245 10.8264 16.2467 10.8233 16.2498C10.8202 16.2528 10.8185 16.257 10.8185 16.2613V18.1085C10.8185 18.1106 10.8189 18.1127 10.8198 18.1147C10.8206 18.1167 10.8218 18.1185 10.8233 18.12C10.8248 18.1216 10.8266 18.1228 10.8286 18.1236C10.8306 18.1244 10.8327 18.1248 10.8349 18.1248H13.2541C13.2563 18.1248 13.2584 18.1244 13.2604 18.1236C13.2624 18.1228 13.2642 18.1216 13.2657 18.12C13.2672 18.1185 13.2684 18.1167 13.2692 18.1147C13.27 18.1127 13.2705 18.1106 13.2705 18.1085V16.2613Z" fill="white"/>
<path d="M16.7097 16.7472L17.7781 15.6293C17.7797 15.6275 17.7817 15.626 17.7839 15.625C17.7861 15.624 17.7885 15.6235 17.7909 15.6234L18.6689 15.6211C18.6725 15.6211 18.676 15.6221 18.679 15.6241C18.682 15.6261 18.6844 15.6289 18.6857 15.6323C18.6871 15.6356 18.6875 15.6392 18.6868 15.6427C18.6861 15.6463 18.6843 15.6495 18.6818 15.652L17.0769 17.268C17.0752 17.2697 17.0739 17.2717 17.073 17.2739C17.0721 17.2761 17.0716 17.2785 17.0717 17.2808V18.731C17.0717 18.7358 17.0697 18.7404 17.0664 18.7438C17.063 18.7472 17.0584 18.7491 17.0536 18.7491H16.2765C16.2717 18.7491 16.2671 18.7472 16.2637 18.7438C16.2603 18.7404 16.2584 18.7358 16.2584 18.731L16.2578 17.3164C16.2578 17.3141 16.2574 17.3117 16.2565 17.3095C16.2556 17.3073 16.2543 17.3053 16.2526 17.3036L14.6296 15.652C14.6271 15.6495 14.6253 15.6463 14.6246 15.6427C14.6239 15.6392 14.6243 15.6356 14.6257 15.6323C14.627 15.6289 14.6294 15.6261 14.6324 15.6241C14.6353 15.6221 14.6389 15.6211 14.6425 15.6211L15.5964 15.6234C15.5988 15.6234 15.6011 15.6239 15.6033 15.6248C15.6055 15.6257 15.6075 15.627 15.6092 15.6287L16.684 16.7472C16.6857 16.7489 16.6877 16.7503 16.6899 16.7512C16.6921 16.7521 16.6945 16.7526 16.6969 16.7526C16.6992 16.7526 16.7016 16.7521 16.7038 16.7512C16.706 16.7503 16.708 16.7489 16.7097 16.7472Z" fill="white"/>
<path d="M19.8664 18.1347L19.5331 18.7384C19.5315 18.7414 19.5291 18.7439 19.5263 18.7456C19.5234 18.7474 19.5201 18.7483 19.5167 18.7483H18.7905C18.7872 18.7482 18.7841 18.7473 18.7813 18.7457C18.7785 18.744 18.7762 18.7416 18.7746 18.7388C18.773 18.736 18.7722 18.7328 18.7722 18.7295C18.7722 18.7263 18.7731 18.7231 18.7747 18.7203L20.5547 15.6314C20.5563 15.6286 20.5586 15.6263 20.5614 15.6247C20.5641 15.623 20.5673 15.6221 20.5705 15.6221H21.2751C21.2783 15.6221 21.2815 15.623 21.2842 15.6247C21.287 15.6263 21.2893 15.6286 21.2909 15.6314L23.1205 18.7209C23.1222 18.7237 23.123 18.7269 23.123 18.7301C23.1231 18.7334 23.1222 18.7366 23.1206 18.7394C23.119 18.7422 23.1167 18.7446 23.114 18.7462C23.1112 18.7479 23.108 18.7488 23.1048 18.7489L22.2594 18.7477C22.2561 18.7478 22.2529 18.7469 22.25 18.7453C22.2471 18.7436 22.2447 18.7413 22.2431 18.7384L21.9045 18.1347C21.9028 18.1319 21.9004 18.1295 21.8976 18.1279C21.8947 18.1262 21.8914 18.1254 21.8881 18.1254L19.8828 18.1248C19.8794 18.1249 19.8761 18.1258 19.8732 18.1275C19.8704 18.1293 19.868 18.1318 19.8664 18.1347ZM20.2307 17.4704C20.2292 17.4732 20.2285 17.4764 20.2285 17.4796C20.2286 17.4828 20.2295 17.4859 20.2312 17.4887C20.2328 17.4915 20.2351 17.4937 20.2379 17.4953C20.2407 17.4969 20.2439 17.4978 20.2471 17.4978H21.5361C21.5393 17.4978 21.5425 17.4969 21.5452 17.4953C21.548 17.4937 21.5503 17.4915 21.552 17.4887C21.5536 17.4859 21.5545 17.4828 21.5546 17.4796C21.5547 17.4764 21.5539 17.4732 21.5524 17.4704L20.9079 16.2771C20.9063 16.2742 20.9039 16.2717 20.9011 16.27C20.8982 16.2684 20.8949 16.2675 20.8916 16.2675C20.8882 16.2675 20.885 16.2684 20.8821 16.27C20.8792 16.2717 20.8769 16.2742 20.8752 16.2771L20.2307 17.4704Z" fill="white"/>
<path d="M24.5955 18.1248H26.8741C26.8791 18.1248 26.8838 18.1268 26.8873 18.1303C26.8908 18.1338 26.8928 18.1386 26.8928 18.1435L26.8916 18.7296C26.8916 18.7346 26.8897 18.7393 26.8862 18.7429C26.8827 18.7464 26.8779 18.7483 26.873 18.7483L23.7841 18.7477C23.7791 18.7477 23.7744 18.7458 23.7709 18.7423C23.7674 18.7388 23.7654 18.734 23.7654 18.7291V15.6408C23.7654 15.6358 23.7674 15.631 23.7709 15.6275C23.7744 15.624 23.7791 15.6221 23.7841 15.6221H24.5582C24.5631 15.6221 24.5679 15.624 24.5714 15.6275C24.5749 15.631 24.5769 15.6358 24.5769 15.6408V18.1061C24.5769 18.1086 24.5773 18.111 24.5783 18.1133C24.5792 18.1156 24.5806 18.1176 24.5823 18.1194C24.5841 18.1211 24.5861 18.1225 24.5884 18.1234C24.5907 18.1243 24.5931 18.1248 24.5955 18.1248Z" fill="white"/>
<path d="M28.2412 16.2456H27.1244C27.1218 16.2456 27.1191 16.245 27.1166 16.244C27.1141 16.243 27.1119 16.2415 27.11 16.2396C27.1081 16.2377 27.1066 16.2354 27.1056 16.233C27.1045 16.2305 27.104 16.2278 27.104 16.2251V15.6425C27.104 15.6398 27.1045 15.6372 27.1056 15.6347C27.1066 15.6322 27.1081 15.63 27.11 15.6281C27.1119 15.6262 27.1141 15.6247 27.1166 15.6236C27.1191 15.6226 27.1218 15.6221 27.1244 15.6221L30.2116 15.6227C30.217 15.6227 30.2222 15.6248 30.226 15.6286C30.2299 15.6325 30.232 15.6377 30.232 15.6431V16.2251C30.232 16.2306 30.2299 16.2358 30.226 16.2396C30.2222 16.2434 30.217 16.2456 30.2116 16.2456H29.0948C29.0893 16.2456 29.0841 16.2477 29.0803 16.2516C29.0765 16.2554 29.0743 16.2606 29.0743 16.266L29.0737 18.7285C29.0737 18.7339 29.0716 18.7391 29.0678 18.7429C29.0639 18.7468 29.0587 18.7489 29.0533 18.7489L28.2821 18.7483C28.2794 18.7483 28.2768 18.7478 28.2743 18.7468C28.2718 18.7457 28.2696 18.7442 28.2677 18.7423C28.2658 18.7404 28.2643 18.7382 28.2632 18.7357C28.2622 18.7332 28.2617 18.7306 28.2617 18.7279V16.266C28.2617 16.2606 28.2595 16.2554 28.2557 16.2516C28.2519 16.2477 28.2467 16.2456 28.2412 16.2456Z" fill="white"/>
<path d="M6.44043 23.0262L6.43985 24.3531C6.43985 24.3722 6.43031 24.3818 6.41124 24.3818L5.66047 24.3812C5.63829 24.3812 5.6272 24.3701 5.6272 24.3479V20.646C5.6272 20.6434 5.62771 20.6408 5.62871 20.6384C5.62971 20.636 5.63117 20.6338 5.63301 20.632C5.63485 20.6301 5.63704 20.6287 5.63945 20.6277C5.64186 20.6267 5.64444 20.6262 5.64705 20.6262C6.76211 20.6262 7.87775 20.6258 8.99397 20.625C9.42832 20.6244 9.70037 20.8959 9.69453 21.3151C9.68986 21.6482 9.68948 21.9814 9.69337 22.3145C9.69629 22.6082 9.53983 22.8796 9.25727 22.9573C9.1623 22.983 9.05216 22.9956 8.92684 22.9952C8.04063 22.9909 7.22272 22.9904 6.47312 22.9935C6.45133 22.9935 6.44043 23.0044 6.44043 23.0262ZM6.43985 21.2771L6.44043 22.3425C6.44043 22.3636 6.45094 22.3741 6.47196 22.3741L8.56897 22.3735C8.64794 22.3734 8.72385 22.3429 8.78093 22.2883C8.838 22.2338 8.87186 22.1593 8.87546 22.0804C8.88403 21.901 8.88383 21.7229 8.87488 21.5462C8.86495 21.3448 8.70324 21.2491 8.51643 21.2503C7.83143 21.2538 7.14741 21.2545 6.46437 21.2526C6.44802 21.2526 6.43985 21.2608 6.43985 21.2771Z" fill="white"/>
<path d="M11.4607 21.878H13.7363C13.7416 21.878 13.7466 21.8759 13.7504 21.8722C13.7541 21.8685 13.7562 21.8635 13.7562 21.8582V20.6468C13.7562 20.6415 13.7583 20.6365 13.762 20.6328C13.7657 20.629 13.7708 20.627 13.776 20.627H14.549C14.5542 20.627 14.5593 20.629 14.563 20.6328C14.5667 20.6365 14.5688 20.6415 14.5688 20.6468V23.7357C14.5688 23.741 14.5667 23.746 14.563 23.7497C14.5593 23.7534 14.5542 23.7555 14.549 23.7555L13.776 23.7561C13.7708 23.7561 13.7657 23.754 13.762 23.7503C13.7583 23.7466 13.7562 23.7415 13.7562 23.7363V22.5249C13.7562 22.5196 13.7541 22.5146 13.7504 22.5109C13.7466 22.5071 13.7416 22.505 13.7363 22.505H11.4607C11.4554 22.505 11.4504 22.5071 11.4466 22.5109C11.4429 22.5146 11.4408 22.5196 11.4408 22.5249V23.7363C11.4408 23.7389 11.4403 23.7415 11.4393 23.7439C11.4383 23.7463 11.4369 23.7485 11.435 23.7503C11.4332 23.7522 11.431 23.7536 11.4286 23.7546C11.4262 23.7556 11.4236 23.7561 11.421 23.7561H10.648C10.6428 23.7561 10.6377 23.754 10.634 23.7503C10.6303 23.7466 10.6282 23.7415 10.6282 23.7363V20.6474C10.6282 20.6421 10.6303 20.6371 10.634 20.6333C10.6377 20.6296 10.6428 20.6275 10.648 20.6275L11.421 20.627C11.4236 20.627 11.4262 20.6275 11.4286 20.6285C11.431 20.6295 11.4332 20.6309 11.435 20.6328C11.4369 20.6346 11.4383 20.6368 11.4393 20.6392C11.4403 20.6416 11.4408 20.6442 11.4408 20.6468V21.8582C11.4408 21.8635 11.4429 21.8685 11.4466 21.8722C11.4504 21.8759 11.4554 21.878 11.4607 21.878Z" fill="white"/>
<path d="M16.5213 23.1394L16.1909 23.7437C16.1891 23.7469 16.1864 23.7496 16.1833 23.7514C16.1801 23.7533 16.1764 23.7542 16.1728 23.7542H15.4506C15.447 23.7542 15.4435 23.7533 15.4404 23.7516C15.4373 23.7498 15.4346 23.7473 15.4328 23.7442C15.431 23.7411 15.43 23.7376 15.4299 23.734C15.4299 23.7305 15.4308 23.7269 15.4325 23.7238L17.2113 20.6355C17.2131 20.6324 17.2156 20.6298 17.2187 20.6279C17.2218 20.6261 17.2253 20.6251 17.2289 20.625L17.9288 20.6256C17.9324 20.6256 17.9358 20.6265 17.9389 20.6282C17.942 20.63 17.9445 20.6325 17.9463 20.6355L19.7754 23.7238C19.7773 23.7269 19.7783 23.7304 19.7783 23.7341C19.7783 23.7377 19.7774 23.7412 19.7757 23.7444C19.7739 23.7475 19.7713 23.7501 19.7682 23.752C19.765 23.7538 19.7615 23.7548 19.7579 23.7548L18.916 23.7542C18.9125 23.7541 18.909 23.7531 18.9059 23.7513C18.9028 23.7494 18.9003 23.7468 18.8985 23.7437L18.5599 23.1394C18.5581 23.1362 18.5555 23.1335 18.5523 23.1317C18.5491 23.1298 18.5455 23.1289 18.5418 23.1289H16.5394C16.5357 23.1289 16.5321 23.1298 16.5289 23.1317C16.5257 23.1335 16.5231 23.1362 16.5213 23.1394ZM16.885 22.4797C16.8836 22.4824 16.8829 22.4854 16.883 22.4885C16.8831 22.4915 16.884 22.4945 16.8856 22.4971C16.8872 22.4997 16.8894 22.5018 16.8921 22.5033C16.8947 22.5047 16.8977 22.5055 16.9008 22.5054H18.1945C18.1975 22.5055 18.2005 22.5047 18.2032 22.5033C18.2058 22.5018 18.2081 22.4997 18.2097 22.4971C18.2113 22.4945 18.2121 22.4915 18.2122 22.4885C18.2123 22.4854 18.2116 22.4824 18.2102 22.4797L17.5628 21.2812C17.5613 21.2785 17.559 21.2763 17.5564 21.2748C17.5537 21.2732 17.5507 21.2724 17.5476 21.2724C17.5445 21.2724 17.5415 21.2732 17.5388 21.2748C17.5362 21.2763 17.534 21.2785 17.5324 21.2812L16.885 22.4797Z" fill="white"/>
<path d="M23.2156 22.6835C23.1942 22.6839 23.1918 22.6907 23.2086 22.7039L24.4783 23.7133C24.5134 23.7413 24.5085 23.7553 24.4637 23.7553H23.431C23.4137 23.7553 23.397 23.7491 23.3843 23.7378L22.2243 22.7039C22.2079 22.6895 22.1889 22.6823 22.1671 22.6823L21.4887 22.6817C21.4646 22.6817 21.4525 22.694 21.4525 22.7185L21.4519 23.7261C21.4519 23.732 21.4496 23.7377 21.4454 23.7418C21.4412 23.746 21.4356 23.7483 21.4297 23.7483L20.6719 23.7477C20.6498 23.7477 20.6387 23.7365 20.6387 23.7139V20.6448C20.6387 20.6396 20.6408 20.6345 20.6445 20.6308C20.6482 20.6271 20.6533 20.625 20.6585 20.625C21.6451 20.6277 22.6409 20.6281 23.6458 20.6262C24.0189 20.6256 24.2121 20.8515 24.2069 21.2152C24.2026 21.5281 24.2024 21.8342 24.2063 22.1335C24.2109 22.5002 23.9529 22.6934 23.6044 22.6841C23.4689 22.6802 23.3393 22.68 23.2156 22.6835ZM21.4519 21.2719L21.4507 22.0331C21.4507 22.0359 21.4513 22.0386 21.4523 22.0412C21.4534 22.0437 21.4549 22.046 21.4569 22.048C21.4588 22.0499 21.4612 22.0515 21.4637 22.0525C21.4663 22.0536 21.469 22.0541 21.4718 22.0541L23.1175 22.0571C23.1536 22.0571 23.1894 22.0503 23.2228 22.037C23.2562 22.0236 23.2865 22.0041 23.3121 21.9793C23.3377 21.9546 23.358 21.9252 23.3719 21.8929C23.3858 21.8606 23.393 21.8259 23.393 21.7908V21.5211C23.3932 21.4504 23.3644 21.3825 23.3129 21.3323C23.2615 21.2822 23.1916 21.2539 23.1187 21.2538L21.4729 21.2508C21.4673 21.2508 21.462 21.253 21.4581 21.257C21.4541 21.2609 21.4519 21.2663 21.4519 21.2719Z" fill="white"/>
<path d="M26.1434 21.7774L26.1417 23.711C26.1417 23.7224 26.1371 23.7334 26.129 23.7415C26.1209 23.7496 26.1099 23.7542 26.0985 23.7542H25.3635C25.3409 23.7542 25.3296 23.7429 25.3296 23.7203V20.6629C25.3296 20.638 25.3418 20.6256 25.3664 20.6256L26.1265 20.625C26.1362 20.625 26.144 20.6291 26.1498 20.6373L27.3922 22.384C27.3938 22.3862 27.3959 22.388 27.3983 22.3893C27.4007 22.3906 27.4034 22.3912 27.4061 22.3912C27.4088 22.3912 27.4115 22.3906 27.4138 22.3893C27.4162 22.388 27.4181 22.3862 27.4196 22.384L28.6018 20.6524C28.6142 20.6345 28.6314 20.6256 28.6532 20.6256H29.3561C29.3817 20.6256 29.3946 20.6382 29.3946 20.6635V23.7191C29.3946 23.7425 29.3829 23.7542 29.3596 23.7542L28.6176 23.7548C28.5942 23.7548 28.5825 23.7431 28.5825 23.7197L28.5819 21.8551C28.5819 21.8161 28.5709 21.8126 28.5487 21.8446L27.5387 23.3041C27.5246 23.3245 27.5059 23.3412 27.484 23.3528C27.4622 23.3645 27.4378 23.3707 27.4131 23.371C27.3883 23.3713 27.3638 23.3656 27.3417 23.3545C27.3195 23.3433 27.3004 23.3271 27.2859 23.307L26.1679 21.7692C26.1663 21.7668 26.1639 21.765 26.1611 21.7641C26.1584 21.7631 26.1553 21.7631 26.1526 21.7641C26.1498 21.765 26.1474 21.7668 26.1457 21.7692C26.1441 21.7716 26.1433 21.7745 26.1434 21.7774Z" fill="white"/>
<path d="M33.1457 23.1289H31.1432C31.1396 23.1289 31.1359 23.1298 31.1327 23.1317C31.1296 23.1335 31.1269 23.1362 31.1251 23.1394L30.7941 23.7437C30.7923 23.7469 30.7897 23.7496 30.7865 23.7514C30.7833 23.7533 30.7797 23.7542 30.776 23.7542H30.0539C30.0503 23.7542 30.0468 23.7533 30.0436 23.7516C30.0405 23.7498 30.0379 23.7473 30.0361 23.7442C30.0343 23.7411 30.0333 23.7376 30.0332 23.734C30.0332 23.7305 30.034 23.7269 30.0358 23.7238L31.8152 20.6361C31.8169 20.633 31.8195 20.6303 31.8225 20.6285C31.8256 20.6266 31.8291 20.6256 31.8327 20.6256L32.5321 20.625C32.5356 20.625 32.5391 20.6259 32.5422 20.6277C32.5452 20.6294 32.5478 20.6319 32.5496 20.6349L34.3793 23.7244C34.3811 23.7275 34.3821 23.731 34.3822 23.7346C34.3822 23.7383 34.3813 23.7418 34.3795 23.745C34.3777 23.7481 34.3751 23.7507 34.372 23.7526C34.3689 23.7544 34.3654 23.7553 34.3617 23.7553L33.5199 23.7542C33.5163 23.7541 33.5128 23.7531 33.5097 23.7513C33.5067 23.7494 33.5041 23.7468 33.5024 23.7437L33.1638 23.1394C33.162 23.1362 33.1594 23.1335 33.1562 23.1317C33.153 23.1298 33.1494 23.1289 33.1457 23.1289ZM31.4889 22.4786C31.4873 22.4813 31.4866 22.4844 31.4866 22.4876C31.4866 22.4907 31.4875 22.4938 31.4891 22.4965C31.4907 22.4992 31.4929 22.5014 31.4957 22.503C31.4984 22.5046 31.5015 22.5054 31.5046 22.5054H32.7972C32.8003 22.5054 32.8034 22.5046 32.8061 22.503C32.8088 22.5014 32.8111 22.4992 32.8127 22.4965C32.8143 22.4938 32.8151 22.4907 32.8152 22.4876C32.8152 22.4844 32.8144 22.4813 32.8129 22.4786L32.1666 21.2829C32.1651 21.2801 32.1628 21.2778 32.16 21.2762C32.1572 21.2746 32.1541 21.2737 32.1509 21.2737C32.1477 21.2737 32.1445 21.2746 32.1418 21.2762C32.139 21.2778 32.1367 21.2801 32.1351 21.2829L31.4889 22.4786Z" fill="white"/>
<circle cx="20" cy="20" r="19.5" stroke="black" stroke-opacity="0.05"/>
</svg>
