<svg width="40" height="40" viewBox="0 0 40 40" fill="none" xmlns="http://www.w3.org/2000/svg">
<circle cx="20" cy="20" r="20" fill="#1E1E23"/>
<g clip-path="url(#clip0_9_404206)">
<path d="M21.1432 10.8572C21.958 11.2332 22.6117 11.5709 23.2826 12.2252C24.1855 13.244 24.6197 15.0309 24.1077 16.224C23.8792 16.7566 23.4352 17.164 22.9077 17.5686C22.0426 18.2309 19.9066 18.6223 18.2837 18.8572C19.3535 18.9589 20.362 19.5315 21.0426 19.8286C21.914 20.2092 22.3695 20.5406 23.026 21.2726C23.1157 21.3732 23.1757 21.4686 23.1586 21.4857C23.1415 21.5029 23.1512 21.5155 23.1797 21.5155C23.2289 21.5155 23.3426 21.7126 23.33 21.776C23.3272 21.7932 23.3517 21.8389 23.3849 21.8789C23.4757 21.988 23.6495 22.4835 23.7369 22.8789C23.7889 23.1115 23.8317 23.7246 23.8609 24.6897C23.8975 25.9086 23.9215 26.2115 24.0095 26.532C24.0677 26.7435 24.1295 26.9737 24.1489 27.044C24.1683 27.1149 24.2712 27.3046 24.378 27.4669C24.7306 27.9183 24.4209 27.5486 24.8283 28.0406C24.9403 28.1606 25.09 28.2966 25.2626 28.396C25.5186 28.588 26.1546 28.8886 26.578 29.0177C26.9277 29.1252 27.0666 29.14 28.0535 29.1429H29.1432V10.8572H25.1055C23.2723 10.8589 21.6849 10.8549 21.1432 10.8572ZM10.8575 10.8572V19.8652C10.8552 24.8126 10.8575 29.1429 10.8575 29.1429H22.286C21.9217 29.0355 21.5605 28.9174 21.2032 28.7886C20.6369 28.5372 20.1723 28.1475 19.7255 27.6955C19.2489 27.1543 18.9746 26.0589 18.9946 24.7806C19.0003 24.4749 18.99 24.2092 18.9717 24.192C18.9546 24.1749 18.9403 23.9486 18.9403 23.6897C18.9403 23.1755 18.8375 22.4886 18.7066 22.1286C18.6095 21.86 18.4929 21.544 18.2837 21.2966C17.9569 20.8029 17.2237 20.1572 16.5077 19.828C15.8215 19.5126 14.3226 18.8572 13.7146 18.8572C15.9226 18.4789 17.8957 17.8777 18.734 16.7663C19.518 15.7263 19.5997 14.1857 18.9375 12.9149C18.4826 12.0423 17.7009 11.3995 16.582 10.976C16.3095 10.8726 16.2129 10.8572 13.5952 10.8572H10.858H10.8575Z" fill="#119CE7"/>
</g>
<circle cx="20" cy="20" r="19.5" stroke="black" stroke-opacity="0.05"/>
<defs>
<clipPath id="clip0_9_404206">
<rect width="20" height="20" fill="white" transform="translate(10 10)"/>
</clipPath>
</defs>
</svg>
