<svg width="40" height="40" viewBox="0 0 40 40" fill="none" xmlns="http://www.w3.org/2000/svg">
<circle cx="20" cy="20" r="20" fill="#F6F8FA"/>
<g clip-path="url(#clip0_9_399835)">
<path d="M7.98817 14.1333C8.13018 14.0998 8.27219 14.0831 8.4142 14.0664L9.07101 17.6096C8.92899 17.6263 8.78698 17.643 8.64497 17.6764L7.98817 14.1333ZM7.8284 18.0441C7.97041 17.9438 8.11243 17.877 8.27219 17.8101L6.37278 14.6848C6.23077 14.7684 6.07101 14.8352 5.92899 14.9188L7.8284 18.0441ZM6.74556 19.9996C6.74556 19.8658 6.76331 19.7321 6.78106 19.6152H3.01775C3 19.7321 3 19.8491 3 19.9828C3 20.0998 3 20.2168 3.01775 20.3338H6.78106C6.76331 20.2168 6.74556 20.1165 6.74556 19.9996ZM11.858 19.9996C11.858 21.3366 10.7219 22.4062 9.30177 22.4062C8.04142 22.4062 6.99408 21.5372 6.78106 20.4007L3.23077 21.6207C3.30178 21.8881 3.40828 22.1388 3.51479 22.3728L7.02959 21.1528L4.1716 23.4592C4.34911 23.6931 4.56213 23.9271 4.77515 24.1444L7.45562 22.0051L5.69822 24.8965C5.98225 25.0803 6.26627 25.2475 6.5858 25.3812L8.23669 22.6569L7.66864 25.7489C8.02367 25.8324 8.3787 25.8993 8.75148 25.9327L9.28402 23.0413L9.81657 25.9327C10.2071 25.8993 10.5799 25.8324 10.9527 25.7489L10.4556 23.0748L11.8935 25.4313C12.284 25.2642 12.6568 25.0636 13.0118 24.8129L11.6982 22.6402L13.7219 24.2447C14.0414 23.9438 14.3254 23.6096 14.574 23.2586L12.7633 21.8213L14.9645 22.5901C15.1775 22.189 15.3195 21.7711 15.426 21.3199L13.4911 20.6514H15.5503C15.568 20.4341 15.5858 20.2001 15.5858 19.9661C15.5858 19.6987 15.568 19.4313 15.5325 19.1806H11.716C11.8047 19.448 11.858 19.7154 11.858 19.9996ZM6.81657 19.448C6.86982 19.2308 6.95858 19.0302 7.06509 18.8464L3.51479 17.6263C3.42604 17.8269 3.35503 18.0274 3.28402 18.228L6.81657 19.448ZM14.0592 16.0553L11.1657 18.345C11.2367 18.4118 11.3077 18.4954 11.3609 18.5622L14.2544 16.2725C14.2012 16.2057 14.1302 16.1221 14.0592 16.0553ZM12.6213 14.9021C12.5148 14.8352 12.4083 14.7851 12.3195 14.7349L10.4201 17.8269C10.5266 17.877 10.6331 17.9271 10.7396 17.994L12.6213 14.9021ZM7.57988 18.228L4.66864 15.9216C4.52663 16.0553 4.40237 16.2057 4.27811 16.3561L7.1716 18.6625C7.29586 18.4954 7.42012 18.3617 7.57988 18.228ZM9.56805 17.6096C9.69231 17.6263 9.81657 17.643 9.94083 17.6764L10.5976 14.1333C10.4734 14.1165 10.3491 14.0831 10.2249 14.0664L9.56805 17.6096Z" fill="black"/>
<path d="M18.5503 23.0752V16.9248H20.929C21.7278 16.9248 22.3491 17.1086 22.8106 17.4763C23.2544 17.844 23.4852 18.3621 23.4852 19.0139C23.4852 19.3649 23.3964 19.6825 23.2189 19.9666C23.0414 20.2507 22.8106 20.4847 22.5266 20.6685L24.1243 23.0752H22.2249L21.0888 21.1031H20.2189V23.0752H18.5503ZM20.6805 18.1114H20.1834V19.8997H20.6627C21.4083 19.8997 21.7811 19.5989 21.7811 18.9972C21.7988 18.4123 21.426 18.1114 20.6805 18.1114Z" fill="black"/>
<path d="M25.6331 23.0752V18.2451H23.6272V16.9248H29.3787V18.2451H27.3728V23.0752H25.6331Z" fill="black"/>
<path d="M29.4142 23.0751L31.6864 19.8829L29.5739 16.9414H31.6154L32.7692 18.83L33.9053 16.9414H35.8757L33.7455 19.9498L36 23.0751H33.9586L32.645 20.986L31.4023 23.0751H29.4142Z" fill="black"/>
</g>
<circle cx="20" cy="20" r="19.5" stroke="black" stroke-opacity="0.05"/>
<defs>
<clipPath id="clip0_9_399835">
<rect width="33" height="12" fill="white" transform="translate(3 14)"/>
</clipPath>
</defs>
</svg>
