<svg width="40" height="40" viewBox="0 0 40 40" fill="none" xmlns="http://www.w3.org/2000/svg">
<circle cx="20" cy="20" r="20" fill="#F6F8FA"/>
<g clip-path="url(#clip0_9_391802)">
<path d="M30.9908 14.2142L30.9148 14.2499L30.8567 14.3036L30.8433 14.3215L29.0059 16.9457L27.1595 19.5611L27.0343 19.7667L26.9673 19.8651L26.8913 19.9545H26.8868L20.0691 8.04024L20.0557 8L20.0959 8.01341L30.9685 14.1292L30.9864 14.1427L30.9953 14.1739V14.2142H30.9908Z" fill="#08993F"/>
<path d="M13.8102 19.9545L13.7386 19.9008L13.6761 19.8293L13.5822 19.6952L11.4229 17.062L9.25013 14.4377L9.12495 14.2991L9.0266 14.2097L9.01318 14.1963V14.1695V14.1471L9.03107 14.1292L17.8337 9.39037L17.8695 9.37695H17.8919L17.8963 9.39931L17.8874 9.43507L13.8191 19.9545H13.8102Z" fill="#0B6022"/>
<path d="M9.0269 14.2051L9.12525 14.2945L9.25043 14.4331L11.4187 17.0573L13.578 19.6905L13.6719 19.8247L13.7345 19.8962L13.806 19.9498V20.0303L13.8418 20.1242L13.7837 20.1108L13.739 20.1287L13.6987 20.1689L13.1086 20.911L11.4008 22.9675L9.92103 24.7915L9.8495 24.8675L9.76008 24.9704L9.67514 25.0866L9.29961 25.5426L9.18784 25.6544L9.02243 25.7751L8.99561 25.793V14.366L9.00455 14.2855L9.02243 14.2051H9.0269Z" fill="#37BA46"/>
<path d="M30.991 14.2146V25.8025L30.8256 25.5968L26.9272 20.0845L26.8869 20.0532H26.8735L26.8869 20.013V19.9459V19.9415L26.9629 19.8521L27.03 19.7537L27.1552 19.5481L29.0016 16.9327L30.839 14.3085L30.8524 14.2906L30.9105 14.2369L30.9865 14.2012L30.991 14.2146Z" fill="#37BA46"/>
<path d="M26.8781 20.0527H26.8915L26.9318 20.0885L30.8302 25.6008L30.9911 25.8064L31.0045 25.8467L30.9822 25.8735L22.1437 30.6303L22.1348 30.6213L26.8871 20.0617L26.8781 20.0527Z" fill="#0B6022"/>
<path d="M13.8462 20.1243L19.9441 32.6466L19.9531 32.6823L19.9173 32.6689L9.05365 25.887L9.02235 25.8512L9 25.7886L9.02682 25.7707L9.19224 25.65L9.304 25.5383L9.67954 25.0823L9.76448 24.966L9.85389 24.8632L9.92542 24.7872L11.4052 22.9632L13.113 20.9067L13.7031 20.1646L13.7433 20.1243L13.7881 20.1064L13.8462 20.1199V20.1243Z" fill="#08993F"/>
</g>
<circle cx="20" cy="20" r="19.5" stroke="black" stroke-opacity="0.05"/>
<defs>
<clipPath id="clip0_9_391802">
<rect width="22" height="24.6824" fill="white" transform="translate(9 8)"/>
</clipPath>
</defs>
</svg>
