<svg width="40" height="40" viewBox="0 0 40 40" fill="none" xmlns="http://www.w3.org/2000/svg">
<circle cx="20" cy="20" r="20" fill="#F6F8FA"/>
<g clip-path="url(#clip0_9_394025)">
<path d="M13.9777 12.9316H8L13.9777 16.3809V12.9316Z" fill="#3CAE49"/>
<path d="M32.0166 12.932L26.0166 9.46875V12.932H32.0166Z" fill="#F0AA22"/>
<path d="M20.0085 9.46875L13.9834 9.47991L20.0085 12.932V9.46875Z" fill="#F0E508"/>
<path d="M11.0225 18.1623L13.9778 23.3446V16.3818L11.0225 18.1623Z" fill="#67C4A8"/>
<path d="M13.9775 12.9316V16.3809L20.0082 12.9316H13.9775Z" fill="#A2CD3A"/>
<path d="M20.0646 26.8048L20.0088 26.7686V33.7369L23.0255 28.5072L20.0646 26.8048Z" fill="#52358F"/>
<path d="M19.9466 26.8048L16.9912 28.5072L20.008 33.7369V26.7686L19.9466 26.8048Z" fill="#485AA6"/>
<path d="M11.0223 18.1621L8 19.8616L13.9777 23.3444L11.0223 18.1621Z" fill="#4DBEC3"/>
<path d="M13.9775 23.3447L13.9999 30.2629L16.9915 28.5075L13.9775 23.3447Z" fill="#2B66B1"/>
<path d="M20.0085 26.7689L13.9834 23.3447L16.9918 28.5075L20.0085 26.7689Z" fill="#4266B0"/>
<path d="M26.0166 12.9316V16.3614L32.0166 12.9316H26.0166Z" fill="#F04B26"/>
<path d="M28.9999 18.1614L32.0166 12.9316L26.0166 16.3698L28.9999 18.1614Z" fill="#E7352F"/>
<path d="M20.0085 12.9316L13.9834 9.47949V12.9316H20.0085Z" fill="#C3D833"/>
<path d="M24.0106 12.932H25.992H26.0116V9.46875L20.0088 12.932H24.0106Z" fill="#F2BB1A"/>
<path d="M26.0172 12.9316H20.0088L26.0172 16.3614V12.9316Z" fill="#EC7133"/>
<path d="M13.9777 23.3441L8 19.8613L11.0474 25.0799L13.9777 23.3441Z" fill="#46BAEB"/>
<path d="M11.0479 25.0805L14.0004 30.2629L13.9781 23.3447L11.0479 25.0805Z" fill="#2D90CF"/>
<path d="M8 19.8613V26.8046L11.0474 25.0799L8 19.8613Z" fill="#24A9E1"/>
<path d="M8 12.9316V19.8609L11.0223 18.1614L8 12.9316Z" fill="#36A97F"/>
<path d="M14 30.2622L20.0084 33.7366L16.9916 28.5068L14 30.2622Z" fill="#2E56A3"/>
<path d="M13.9777 16.3754L8 12.9316L11.0223 18.1614L13.9777 16.3754Z" fill="#3BB059"/>
<path d="M13.9777 9.47949L8 12.9316H13.9777V9.47949Z" fill="#6BBE4A"/>
<path d="M11.0474 25.0801L8 26.8047L14 30.2624L11.0474 25.0801Z" fill="#3487B8"/>
<path d="M20.0088 33.7366L25.992 30.2873L23.0255 28.5068L20.0088 33.7366Z" fill="#8A2C8A"/>
<path d="M26.0331 23.3447L25.9912 30.288L29.0247 25.0443L26.0331 23.3447Z" fill="#D41774"/>
<path d="M25.9912 30.2877L32.0163 26.8049L29.0247 25.0439L25.9912 30.2877Z" fill="#E11C86"/>
<path d="M32.017 26.8044V19.8975L29.0254 25.0435L32.017 26.8044Z" fill="#E31E7B"/>
<path d="M28.9999 18.1617L26.0166 16.3701L26.0333 23.3441L28.9999 18.1617Z" fill="#ED3F36"/>
<path d="M26.0332 23.3444L32.0165 19.8979L28.9997 18.1621L26.0332 23.3444Z" fill="#E82457"/>
<path d="M29.0248 25.0435L32.0165 19.8975L26.0332 23.344L29.0248 25.0435Z" fill="#E31B8A"/>
<path d="M23.0254 28.5075L25.9919 30.288L26.0338 23.3447L23.0254 28.5075Z" fill="#CD167F"/>
<path d="M20.0646 26.8052L23.0255 28.5075L26.0339 23.3447L20.0088 26.7689L20.0646 26.8052Z" fill="#AB3A95"/>
<path d="M26.0172 9.46884L20.0088 6V9.46884H26.0172Z" fill="#F2BB1A"/>
<path d="M20.0088 12.932L26.0172 9.46875H20.0088V12.932Z" fill="#FAC81A"/>
<path d="M20.0085 6L13.9834 9.48L20.0085 9.46884V6Z" fill="#F4EB23"/>
<path d="M32.0167 19.8972V12.9316L29 18.1614L32.0167 19.8972Z" fill="#E4292F"/>
<path d="M23.7037 17.7404L20.0088 15.6055V19.8613L23.7037 17.7404Z" fill="#F2BB1A"/>
<path d="M23.7037 21.996V17.7402L20.0088 19.8612L23.7037 21.996Z" fill="#E4292F"/>
<path d="M20.0088 24.1199L23.7037 21.9962L20.0088 19.8613V24.1199Z" fill="#8A2C8A"/>
<path d="M20.0079 15.6055L16.3242 17.7404L20.0079 19.8613V15.6055Z" fill="#A2CD3A"/>
<path d="M16.3242 17.7402V21.996L20.0079 19.8612L16.3242 17.7402Z" fill="#24A9E1"/>
<path d="M20.0079 19.8613L16.3242 21.9962L20.0079 24.1199V19.8613Z" fill="#2E56A3"/>
</g>
<circle cx="20" cy="20" r="19.5" stroke="black" stroke-opacity="0.05"/>
<defs>
<clipPath id="clip0_9_394025">
<rect width="24" height="27.6279" fill="white" transform="translate(8 6)"/>
</clipPath>
</defs>
</svg>
