<svg width="40" height="40" viewBox="0 0 40 40" fill="none" xmlns="http://www.w3.org/2000/svg">
<circle cx="20" cy="20" r="20" fill="#0059B3"/>
<g clip-path="url(#clip0_9_399824)">
<path d="M15.3617 21.5767C12.3246 19.7206 11.2907 18.8885 11.2261 17.6084C11.2261 17.3524 11.2907 16.9044 11.3553 16.6484L11.0968 16.4563C10.8383 16.8404 10.7091 17.2884 10.7091 17.7364C10.7091 18.4405 10.9676 19.0165 11.2261 19.4005C11.6784 20.0406 12.1307 20.4886 13.2293 21.2567C14.3924 22.1527 15.2325 23.1768 15.6848 24.2649H15.8787V23.0488C17.4942 23.9449 18.9158 24.7769 19.6266 26.313H19.8205C19.4974 24.7769 18.5927 23.5608 15.3617 21.5767ZM24.2793 17.4804C23.6331 17.8004 23.1807 18.1845 22.7284 18.7605L24.0854 18.6965C24.15 18.0564 24.2146 17.6724 24.2793 17.4804ZM29.1904 22.2807C29.3196 21.9607 29.4488 21.5767 29.4488 21.2567L27.4456 21.1287C27.381 21.6407 27.2518 22.0887 27.0579 22.5368L29.1904 22.2807ZM27.0579 17.3524C27.1872 17.7364 27.3164 18.1205 27.381 18.4405L28.5442 18.3765C28.1565 17.9284 27.6395 17.6084 27.0579 17.3524ZM26.541 18.5045C26.4117 18.0564 26.2179 17.5444 25.9594 17.0964H25.3132C25.1193 17.5444 24.9901 18.0564 24.8608 18.5685L26.541 18.5045ZM27.5103 19.1445C27.5749 19.6566 27.5749 20.1046 27.5749 20.5526L29.5135 20.4246C29.4489 19.9766 29.3196 19.5926 29.1257 19.2085L27.5103 19.1445ZM26.8641 20.5526C26.8641 20.0406 26.7994 19.5926 26.6702 19.0805L24.7316 19.0165C24.6024 19.5926 24.5377 20.1686 24.4731 20.6806L26.8641 20.5526ZM27.1225 16.4563L27.381 16.1363L27.0579 15.6883L27.1225 15.5603L28.0918 16.0723L27.898 16.7124C28.0272 16.7764 28.2211 16.9044 28.4149 17.0324L29.0611 16.0083L27.4456 15.1762H23.8269L20.8544 16.9044C21.436 17.2884 21.8883 17.6724 22.2761 18.1205C23.0515 16.9684 24.4731 16.2643 25.8301 16.2643C26.1532 16.2643 26.6702 16.3283 27.1225 16.4563ZM19.8205 16.3923L21.436 15.4323C21.1129 15.2403 20.7252 15.1762 20.3375 15.1762C19.7559 15.1762 18.8512 15.4323 18.3989 15.4963C18.5927 15.6243 19.3682 16.0723 19.8205 16.3923ZM20.2082 12.7441C19.6266 12.6161 19.3035 12.6801 18.9804 13.0001C19.1743 13.0641 19.3682 13.1281 19.562 13.1281C19.8851 13.0641 20.079 12.8721 20.2082 12.7441ZM29.3842 26.377H29.1904C29.1904 25.2249 28.1565 24.9689 27.0579 24.9689H23.6331C23.7623 25.545 23.7623 26.185 23.6977 26.761H23.5038C23.1807 24.2649 21.7591 22.9848 19.7559 21.6407V22.7928H19.562C19.0451 21.5767 17.8819 20.4886 16.7187 19.7206L15.8141 19.0805V20.2966H15.6202C15.1679 19.0805 14.2632 18.1205 13.1 17.0324C11.8076 15.8803 11.2261 15.1763 10.9676 14.3442C10.7737 13.8322 10.7091 13.4481 10.7091 12.9361C10.7091 11.976 11.1614 11.08 11.8076 10.7599V11.208C11.4845 11.592 11.3553 12.104 11.3553 12.6161C11.3553 13.0641 11.4845 13.6401 11.6784 14.0882C12.4538 15.4963 14.9094 17.2244 16.5249 18.2485C21.5006 21.5127 22.4699 22.0887 23.31 23.8808C23.3746 24.0729 23.5038 24.3289 23.5684 24.6489C24.2793 24.5209 26.8641 24.1369 27.381 24.0729C27.4456 24.0729 27.6395 24.0089 27.7687 24.0089C28.2211 23.7528 28.5442 23.3688 28.8673 22.9208L26.9933 22.7928C26.9287 22.9848 26.7994 23.1768 26.7348 23.3048H26.6056C26.6702 23.1128 26.6702 22.9208 26.7348 22.7288L26.2179 22.6648V22.5368L26.7348 22.4727C26.8641 21.9607 26.8641 21.4487 26.8641 21.0006L24.4731 20.8726V21.5767H24.3439C24.2793 21.3207 24.2793 21.1287 24.2146 20.8726H23.6977V20.7446H24.2146C24.15 20.1686 24.15 19.5926 24.15 19.0165L22.7284 18.9525L22.9222 19.3365C23.2453 20.1686 23.1807 21.1287 23.0515 21.5767H22.8576C22.8576 21.0647 22.6638 20.4246 22.4699 20.0406C22.0822 19.1445 21.2421 18.3125 19.7559 17.4164V18.5685H19.562C19.1097 17.0324 17.8819 16.2003 16.0725 15.3043C14.5863 14.5362 14.134 13.6401 14.1986 12.232L14.7155 12.5521C14.8448 13.8322 15.8787 14.6002 16.9126 14.6002C17.5588 14.6002 18.1404 14.5362 18.722 14.4082C19.562 14.2162 20.2728 14.0882 20.919 14.3442V13.5761H20.4021C20.2082 13.7041 19.8851 13.8962 19.3682 13.8962C18.7866 13.8962 17.688 13.5761 17.688 12.3601C17.688 11.272 18.5927 11.144 19.3035 11.144H20.5959C20.7898 11.144 20.8544 11.08 20.9837 11.016C21.0483 10.952 21.1129 10.824 21.1129 10.7599V9.41586H17.688V10.7599L16.3956 10.2479V9.92789H17.0418V9.41586H14.7802V8.32778H14.0047C13.5524 8.32778 13.1 8.5838 13.0354 9.15984C13.0354 9.73588 13.2293 10.1839 13.8109 10.1839H13.9401V10.824H13.8109C12.8416 10.824 12.0661 10.1199 12.0661 9.09583C12.0661 8.07176 12.9062 7.30371 14.0047 7.30371H15.6848V8.39179H22.1468V10.0559C22.1468 10.3119 22.1468 10.6959 22.0822 10.952C22.0822 11.144 22.0176 11.4 21.6945 11.656C21.5006 11.784 21.1775 11.848 20.7252 11.848C20.3375 11.848 19.9497 11.848 19.562 11.784C18.8512 11.72 18.5927 12.04 18.5927 12.2961V12.4881C18.9158 12.232 19.4328 12.04 19.9497 12.232C20.919 12.5521 21.1775 12.5521 21.6945 12.168L21.7591 12.2961C21.6945 12.3601 21.6299 12.4881 21.436 12.6161H21.8883V15.1762L23.3746 14.2802H27.5103L29.5135 15.3043C29.7719 15.4323 29.8366 15.6243 29.9012 15.8163C29.9012 16.0083 29.9012 16.2643 29.7719 16.3923C29.7073 16.5203 29.255 17.2884 28.9965 17.6724C29.7719 18.5045 30.1597 19.5285 30.1597 20.6166C30.1597 21.7047 29.7719 23.0488 28.4796 24.0729C28.9965 24.2009 29.3842 24.5209 29.7073 24.9689L29.3842 26.377Z" fill="#FFDF01"/>
<path d="M20.596 31.818H19.8206V29.5778H20.596C21.6299 29.5778 22.0176 29.8979 22.0176 30.6659C21.953 31.434 21.4361 31.818 20.596 31.818ZM20.5314 27.4017C21.1776 27.4017 21.5653 27.5297 21.5653 28.1697C21.5653 28.8738 20.9837 29.0658 20.3375 29.0658H19.7559V27.4017H20.5314ZM21.7592 29.2578C22.3407 29.1938 22.8577 28.7458 22.8577 28.1057C22.8577 27.5297 22.5992 26.8896 20.8545 26.8896H17.9466V26.9537C18.0112 26.9537 18.2051 27.0817 18.2697 27.1457C18.4635 27.3377 18.5282 27.5937 18.5282 27.9777V32.33H20.9191C22.2761 32.33 23.1808 31.818 23.1808 30.6659C23.2454 29.7058 22.5346 29.3218 21.7592 29.2578ZM13.5524 27.4017H14.3925C15.1033 27.4017 15.491 27.5937 15.491 28.3617C15.491 29.0018 15.0387 29.4498 14.2633 29.4498H13.6171V27.4017H13.5524ZM15.8141 32.33H17.365L15.3618 29.7698C16.1372 29.5778 16.7834 29.1298 16.7834 28.2977C16.7834 27.3377 16.2019 26.8896 14.7802 26.8896H11.6785V26.9537C11.8077 27.0177 11.9369 27.0817 12.0016 27.1457C12.1954 27.3377 12.26 27.6577 12.26 28.1057V32.33H13.5524V29.8979H14.0048L15.8141 32.33ZM28.3504 27.6577C28.6735 27.8497 28.8027 28.1057 28.8027 28.1057H28.8673L29.1258 27.2097C29.1258 27.2097 28.6089 26.8896 27.4457 26.8896C25.6363 26.8896 24.3439 27.7857 24.3439 29.7058C24.3439 31.882 25.9594 32.458 27.3165 32.458C28.6089 32.458 29.1258 32.074 29.1258 32.074V31.434C29.1258 31.434 28.6735 31.882 27.7042 31.882C26.8641 31.882 25.701 31.498 25.701 29.7058C25.701 28.0417 26.4118 27.5297 27.3811 27.5297C27.898 27.4017 28.1565 27.5297 28.3504 27.6577Z" fill="white"/>
</g>
<circle cx="20" cy="20" r="19.5" stroke="black" stroke-opacity="0.05"/>
<defs>
<clipPath id="clip0_9_399824">
<rect width="21" height="26" fill="white" transform="translate(10 7)"/>
</clipPath>
</defs>
</svg>
