<svg width="40" height="40" viewBox="0 0 40 40" fill="none" xmlns="http://www.w3.org/2000/svg">
<circle cx="20" cy="20" r="20" fill="#073590"/>
<g clip-path="url(#clip0_9_387127)">
<path d="M24.6372 13.7024C26.0015 14.0845 27.3358 14.4667 28.7001 14.6731H29.6787C30.2715 14.6731 30.6572 14.4667 31.2215 14.2902H31.4287C31.4287 14.4967 31.4287 14.4967 31.2215 14.6731C30.4501 15.261 29.6787 15.6438 28.9072 15.8202C28.7001 15.8202 28.3144 16.026 28.1365 16.026C27.1579 16.4081 26.0008 16.4081 25.0522 16.4081C23.1244 16.2024 21.3744 15.6438 19.4465 15.6438C17.6965 15.4374 15.9765 16.2317 14.9979 17.5552C14.7908 18.3202 14.4051 19.0852 14.4051 19.8495C14.4051 20.6145 15.5622 20.821 15.9472 21.3795L16.5401 22.5267C16.7472 23.291 17.1329 24.056 17.6972 24.821C18.0829 25.2031 18.4687 25.7917 19.0615 25.9681C19.8329 26.5567 20.4258 27.1152 20.8115 27.8802C21.1972 28.6445 21.5822 29.2331 21.7901 29.9981C21.9972 30.3802 22.1758 30.7624 22.1758 31.351V31.5567C22.3829 31.9388 22.3829 32.321 22.5615 32.5281V32.7331C22.5615 32.9395 22.7687 33.3217 22.5615 33.3217C22.1758 32.9395 21.9679 32.5574 21.7901 32.1745C21.5822 31.4102 21.0187 30.6452 20.4258 29.8802C20.0401 29.4981 19.6544 28.9095 19.2687 28.5274C17.7265 26.7917 15.4129 25.6445 13.6637 24.1152C13.6637 24.1152 13.6637 23.9088 13.4565 23.7324C13.2479 23.3502 13.0708 23.1445 12.8629 22.7617C12.4772 21.9974 11.8844 21.2324 11.4987 20.2617C11.4987 19.8795 11.2908 19.4974 11.2908 19.1145V18.9088C11.2908 18.526 10.3122 18.3202 10.9051 17.5552C11.2908 17.1731 12.4479 16.791 12.8337 16.026V15.6438C12.8337 15.6438 12.8337 15.4374 12.6258 15.4374C12.4179 15.4374 11.8544 15.8202 11.8544 15.2317V14.6438C12.0615 14.261 12.0615 13.8788 12.0615 13.496C12.0615 13.2902 12.2694 13.2902 12.4472 13.2902C12.6258 13.2902 13.0401 13.0845 13.2187 13.0845C13.8115 13.0845 14.5829 13.0845 14.9687 13.4667C15.1758 13.8495 14.9687 14.2317 14.9687 14.6138C14.9687 14.9967 14.5829 15.2024 14.7608 15.3788H15.1465C15.9179 14.7902 16.6887 14.026 17.4594 13.261C18.0522 12.6724 19.0022 12.4967 19.7737 12.6724C21.5229 12.7317 22.8872 13.3195 24.6372 13.7024Z" fill="#F1C931"/>
<path d="M20.1872 16.7616C20.3943 17.1445 20.1872 17.3502 19.9801 17.7331C19.0015 19.0859 18.6158 20.7916 18.0515 22.3509H17.8444C17.6372 22.3509 17.6372 22.1445 17.6372 21.9681C17.6372 20.2323 18.2301 18.7038 19.0015 17.1738C19.2086 16.9681 19.3872 16.5852 19.7722 16.7916C19.9794 16.5852 19.9793 16.7616 20.1872 16.7616ZM22.8865 17.1445C23.0936 17.7323 22.6786 18.1152 22.5008 18.6738C21.5222 20.5859 20.3651 22.4981 19.8015 24.6152C19.8015 24.6152 19.8015 24.8216 19.5943 24.8216H19.3872C19.1794 24.0566 19.3872 23.0859 19.5943 22.3216C20.1872 20.5859 20.7515 18.8795 21.7301 17.1445C21.9372 17.1445 21.9372 16.9381 21.9372 16.9381C22.2929 16.9681 22.6786 16.9681 22.8865 17.1445ZM25.5851 17.3502C25.7922 17.5559 25.7922 17.9388 25.5851 18.1145C24.4279 20.6152 22.6786 22.7331 21.9072 25.4095L21.3144 27.1452C21.3144 27.3509 21.1072 27.3509 21.1072 27.1452C20.8993 26.9395 21.1072 26.5566 21.1072 26.3809C21.3143 24.2623 21.8779 22.1738 22.8572 20.4381C23.2422 19.4681 23.8358 18.7031 24.2215 17.7616C24.4286 17.5559 24.6065 17.1738 24.9922 17.1738C25.1993 17.1445 25.4072 17.1445 25.5851 17.3502ZM28.6994 17.5266C28.9065 17.9088 28.6994 18.1152 28.6994 18.4973C27.9279 20.4095 26.5636 22.1445 25.6151 24.0566C24.6365 25.5859 24.0722 27.3216 23.4793 28.8509C23.2722 29.4395 23.0936 29.8223 22.8865 30.3809H22.6786C22.4715 30.1752 22.4715 29.9981 22.4715 29.7923C22.6786 27.6745 23.4501 25.9688 24.2215 24.0273C25.2001 21.9095 26.3565 19.9973 27.3051 17.8795C27.5129 17.6738 27.6908 17.2916 28.0765 17.1152C28.2836 17.1438 28.4915 17.1438 28.6994 17.5266Z" fill="#F1C931"/>
</g>
<circle cx="20" cy="20" r="19.5" stroke="black" stroke-opacity="0.05"/>
<defs>
<clipPath id="clip0_9_387127">
<rect width="22" height="21" fill="white" transform="translate(10 12.4648)"/>
</clipPath>
</defs>
</svg>
