<svg width="40" height="40" viewBox="0 0 40 40" fill="none" xmlns="http://www.w3.org/2000/svg">
<circle cx="20" cy="20" r="20" fill="#F6F8FA"/>
<g clip-path="url(#clip0_9_404082)">
<path fill-rule="evenodd" clip-rule="evenodd" d="M19.7296 15.1511V15.4076C19.3857 15.4573 19.1451 15.5845 18.9364 15.7913C18.7256 15.998 18.5447 16.3579 18.2445 16.9165C17.338 18.5944 16.7296 19.7495 16.7296 19.7495V20.7614C16.7296 21.4056 16.7495 21.8171 16.7893 21.992C16.827 22.171 16.9125 22.2942 17.0398 22.3678C17.169 22.4394 17.4533 22.4771 17.831 22.4771V22.7336H14.6024V22.4771H14.7256C15.0497 22.4771 15.2744 22.4334 15.3996 22.3539C15.5242 22.2717 15.603 22.1445 15.6362 21.9722C15.67 21.7972 15.6859 21.3936 15.6859 20.7614V19.8231L14.169 16.7217C13.7853 16.0954 13.5328 15.7197 13.4036 15.6004C13.2465 15.4573 12.9205 15.4155 12.5924 15.4076V15.1511H15.7932V15.4076C15.2207 15.4076 14.9344 15.5388 14.9344 15.7992C14.9344 15.9046 15.0298 16.2107 15.2167 16.5249L16.7097 19.2366C16.7097 19.2366 17.6421 17.4791 17.9622 16.9046C18.1948 16.4891 18.2922 16.2048 18.2922 16.0338C18.2922 15.8767 18.2286 15.7336 18.0974 15.6024C17.9682 15.4732 17.497 15.4076 17.163 15.4076V15.1511H19.7296ZM34.9821 15.1511V15.4095C34.6614 15.4347 34.4095 15.4957 34.2266 15.5924C34.0417 15.6879 33.9225 15.8072 33.8728 15.9423C33.8237 16.0775 33.7992 16.3075 33.7992 16.6322V22.7336H33.4334L28.4433 15.7992V21.0596C28.4433 21.497 28.4652 21.7853 28.507 21.9225C28.5507 22.0596 28.674 22.1869 28.8728 22.3022C29.0775 22.4175 29.3777 22.4771 29.7793 22.4771V22.7336H26.9503V22.4771C27.3121 22.4473 27.5905 22.3837 27.7793 22.2763C27.9702 22.169 28.0795 22.0557 28.1193 21.9304C28.1531 21.8091 28.171 21.5189 28.171 21.0596V17.0398C28.171 16.4592 28.1431 16.0696 28.0875 15.8728C28.0358 15.674 27.9503 15.5467 27.831 15.493C27.7137 15.4354 27.3579 15.4095 26.9503 15.4095V15.1511H29.2823L33.5249 21.0815V16.5487C33.5249 16.2147 33.4891 15.9781 33.4195 15.8429C33.3539 15.7097 33.2127 15.6024 32.998 15.5249C32.7853 15.4493 32.5288 15.4095 32.2326 15.4095V15.1511H34.9821ZM26.5944 22.4732V22.7316H23.6143V22.4732C23.9821 22.4732 24.2286 22.4493 24.3559 22.3936C24.4851 22.34 24.5487 22.2346 24.5487 22.0736C24.5487 21.992 24.4632 21.7455 24.2922 21.34L24.0119 20.664L24.0099 20.6561L23.6103 19.6859L23.5527 19.5507L23.4612 19.3241C23.1789 19.3837 22.9026 19.4573 22.6243 19.5408C22.1471 19.6819 21.6223 19.7694 21.0875 19.7455C21.0298 19.7435 20.9742 19.7396 20.9165 19.7336L20.833 19.9364L20.8111 19.9881L20.7157 20.2207L20.6362 20.4195C20.6024 20.503 20.5686 20.5845 20.5388 20.664C20.3141 21.2227 20.2028 21.5944 20.2028 21.7833C20.2028 22.008 20.2783 22.1829 20.4334 22.3002C20.5865 22.4155 20.7873 22.4732 21.0298 22.4732V22.7316H18.7773V22.4732C19.1133 22.4235 19.3618 22.3062 19.5268 22.1213C19.6879 21.9364 19.8867 21.5487 20.1193 20.9543C20.1372 20.9006 20.2266 20.6839 20.3877 20.3082L20.4294 20.2028L20.6421 19.6978C20.5288 19.6779 20.4155 19.6501 20.3101 19.6163C20.0676 19.5328 19.829 19.4215 19.6899 19.2525C20.0855 19.34 20.4533 19.334 20.8111 19.2922L22.5427 15.1511H22.8509L24.334 18.6759L24.3956 18.8211C24.4155 18.8264 24.4361 18.831 24.4573 18.835C24.4785 18.8403 24.499 18.8456 24.5189 18.8509C24.5401 18.8562 24.5606 18.8622 24.5805 18.8688C24.6004 18.8741 24.6209 18.8801 24.6421 18.8867C24.8827 18.9722 25.1213 19.0815 25.2604 19.2525C25.2021 19.2392 25.1431 19.228 25.0835 19.2187C25.0252 19.2094 24.9662 19.2021 24.9066 19.1968C24.8469 19.1915 24.7873 19.1882 24.7276 19.1869C24.668 19.1842 24.6077 19.1836 24.5467 19.1849L24.5944 19.2962L25.338 21.0656L25.6839 21.8628C25.7614 22.0378 25.8668 22.1809 26 22.2823C26.1312 22.3877 26.33 22.4493 26.5944 22.4732ZM22.5507 18.9026C22.6262 18.8827 22.7018 18.8648 22.7773 18.8489C22.8542 18.8343 22.9311 18.8211 23.008 18.8091C23.0848 18.7972 23.1617 18.7873 23.2386 18.7793L23.1491 18.5606L23.1412 18.5408L22.2744 16.4533L21.3797 18.6203L21.2485 18.9384L21.1173 19.2505C21.5268 19.1869 21.9264 19.0835 22.326 18.9642C22.4003 18.9417 22.4751 18.9211 22.5507 18.9026ZM13.6581 22.4751V22.7336H11.5765C11.159 22.4414 10.5229 21.6759 9.66402 20.4394C9.59642 20.3413 9.52816 20.2445 9.45924 20.1491C9.389 20.0524 9.31809 19.9569 9.24652 19.8628C9.17495 19.7674 9.10272 19.6733 9.02982 19.5805C8.95693 19.4877 8.8827 19.395 8.80716 19.3022C8.51292 18.9404 8.30815 18.7177 8.19682 18.6402C8.08549 18.5606 7.90855 18.4891 7.67197 18.4891H7.2505V20.7594C7.2505 21.3579 7.26243 21.7455 7.29026 21.9304C7.31809 22.1153 7.39364 22.2525 7.51491 22.3419C7.63419 22.4314 7.8668 22.4751 8.20875 22.4751H8.57058V22.7336H5V22.4751H5.24453C5.56859 22.4751 5.79324 22.4354 5.9165 22.3559C6.04175 22.2704 6.12127 22.1451 6.15507 21.9702C6.18887 21.7952 6.20477 21.3917 6.20477 20.7594V15.8887C6.20477 15.2869 6.1882 14.8993 6.15507 14.7256C6.12127 14.5467 6.04771 14.4274 5.93241 14.3598C5.81511 14.2922 5.38171 14.2664 5 14.2664V14.002H6.90457L7.97018 14H8.88668C9.3161 14.002 9.68787 14.0159 10.002 14.1074C10.0179 14.1127 10.0331 14.1173 10.0477 14.1213C10.0636 14.1266 10.0789 14.1319 10.0934 14.1372C10.108 14.1425 10.1233 14.1478 10.1392 14.1531C10.1537 14.1584 10.1683 14.1637 10.1829 14.169C10.1968 14.171 10.2087 14.1769 10.2187 14.1809C10.5964 14.34 10.9066 14.5686 11.1511 14.8787C11.4294 15.2306 11.5706 15.6481 11.5706 16.1372C11.5706 16.7058 11.3877 17.1909 11.0219 17.5944C10.8549 17.7793 10.6501 17.9324 10.4076 18.0557C10.0835 18.1968 9.70378 18.2922 9.26441 18.3459C9.26706 18.3472 9.26971 18.3486 9.27237 18.3499C9.27502 18.3512 9.27767 18.3526 9.28032 18.3539C9.28297 18.3552 9.28562 18.3565 9.28827 18.3579C9.29092 18.3592 9.29357 18.3612 9.29622 18.3638C9.65606 18.5567 10.1133 19.1889 10.9006 20.2525C11.5626 21.1412 12.0517 21.7932 12.4294 22.0656C12.7495 22.3002 13.1173 22.4751 13.6581 22.4751ZM9.22068 18.0557C9.47316 17.9841 9.67793 17.8787 9.83499 17.7396C9.99006 17.6024 10.1153 17.4195 10.2048 17.1948C10.2949 16.9695 10.34 16.6925 10.34 16.3638C10.34 15.7873 10.1869 15.33 9.88072 14.9821C9.76541 14.8549 9.65209 14.7575 9.50099 14.6879C9.24453 14.5626 8.8827 14.5149 8.23658 14.5149H7.2505V18.2247H7.3002C7.6163 18.2247 8 18.2048 8.32406 18.1889C8.66998 18.173 8.9662 18.1292 9.22068 18.0557ZM7.30815 25.1431C7.27369 25.0994 7.22664 25.0669 7.167 25.0457C7.10736 25.0258 7.05103 25.0152 6.99801 25.0139C6.99006 25.0139 6.98211 25.0146 6.97416 25.0159C6.9662 25.0159 6.95825 25.0166 6.9503 25.0179C6.94235 25.0192 6.93439 25.0205 6.92644 25.0219C6.91849 25.0232 6.91054 25.0245 6.90258 25.0258C6.89463 25.0272 6.88668 25.0292 6.87873 25.0318C6.87078 25.0345 6.86282 25.0371 6.85487 25.0398C6.84692 25.0424 6.83963 25.0457 6.833 25.0497C6.82505 25.0524 6.8171 25.0557 6.80915 25.0596C6.80252 25.0636 6.79589 25.0676 6.78926 25.0716C6.78264 25.0769 6.77667 25.0822 6.77137 25.0875C6.76474 25.0915 6.75878 25.0968 6.75348 25.1034C6.74818 25.1087 6.74354 25.1146 6.73956 25.1213C6.72101 25.1478 6.71173 25.1789 6.71173 25.2147C6.71173 25.273 6.7336 25.3174 6.77734 25.3479C6.82107 25.3797 6.87608 25.4062 6.94235 25.4274C7.00862 25.45 7.08019 25.4718 7.15706 25.493C7.17561 25.4983 7.19417 25.5043 7.21272 25.5109C7.23128 25.5176 7.24983 25.5249 7.26839 25.5328C7.28562 25.5408 7.30285 25.5494 7.32008 25.5586C7.33863 25.5666 7.35586 25.5759 7.37177 25.5865C7.389 25.5971 7.4049 25.6083 7.41948 25.6203C7.43539 25.6322 7.44997 25.6448 7.46322 25.6581C7.4778 25.6713 7.49105 25.6852 7.50298 25.6998C7.51624 25.7157 7.5275 25.7316 7.53678 25.7475C7.58052 25.8151 7.60239 25.9052 7.60239 26.0179C7.60239 26.1266 7.5825 26.2207 7.54274 26.3002C7.53347 26.3201 7.52286 26.3393 7.51093 26.3579C7.49901 26.3751 7.48641 26.3923 7.47316 26.4095C7.45991 26.4268 7.44533 26.4427 7.42942 26.4573C7.41352 26.4732 7.39695 26.4877 7.37972 26.501C7.31213 26.554 7.23327 26.5931 7.14314 26.6183C7.05169 26.6435 6.95626 26.6561 6.85686 26.6561C6.73095 26.6561 6.61431 26.6368 6.50696 26.5984C6.39828 26.56 6.29755 26.4983 6.20477 26.4135L6.50895 26.0795C6.51955 26.0941 6.53148 26.1074 6.54473 26.1193C6.55666 26.1325 6.56925 26.1451 6.5825 26.1571C6.59708 26.1677 6.61166 26.1783 6.62624 26.1889C6.64215 26.1981 6.65805 26.2068 6.67396 26.2147C6.68986 26.2227 6.70643 26.2293 6.72366 26.2346C6.74089 26.2412 6.75812 26.2465 6.77535 26.2505C6.79258 26.2545 6.80981 26.2571 6.82704 26.2584C6.84559 26.2611 6.86349 26.2624 6.88072 26.2624C6.91518 26.2624 6.9503 26.2584 6.98608 26.2505C6.99404 26.2478 7.00265 26.2452 7.01193 26.2425C7.01988 26.2412 7.02783 26.2386 7.03579 26.2346C7.04374 26.2319 7.05169 26.2286 7.05964 26.2247C7.06759 26.2207 7.07488 26.2167 7.08151 26.2127C7.11067 26.1968 7.13386 26.1756 7.15109 26.1491C7.16832 26.1239 7.17694 26.0941 7.17694 26.0596C7.17694 26.0013 7.15441 25.9556 7.10934 25.9225C7.06428 25.888 7.00795 25.8588 6.94036 25.835C6.87409 25.8111 6.80119 25.7879 6.72167 25.7654C6.70311 25.7588 6.68456 25.7522 6.666 25.7455C6.64745 25.7389 6.62889 25.7316 6.61034 25.7237C6.59178 25.7157 6.57389 25.7071 6.55666 25.6978C6.5381 25.6885 6.52021 25.6786 6.50298 25.668C6.48708 25.6587 6.47117 25.6481 6.45527 25.6362C6.43936 25.6243 6.42478 25.6117 6.41153 25.5984C6.39695 25.5852 6.38304 25.5712 6.36978 25.5567C6.35785 25.5421 6.34659 25.5268 6.33598 25.5109C6.29092 25.4447 6.26839 25.3579 6.26839 25.2505C6.26839 25.1458 6.28893 25.0543 6.33002 24.9761C6.3393 24.9576 6.3499 24.939 6.36183 24.9205C6.37376 24.9032 6.38701 24.886 6.40159 24.8688C6.41484 24.8529 6.42942 24.837 6.44533 24.8211C6.46123 24.8065 6.47714 24.7926 6.49304 24.7793C6.5116 24.7661 6.53015 24.7535 6.54871 24.7416C6.56726 24.7296 6.58648 24.719 6.60636 24.7097C6.62624 24.6991 6.64679 24.6899 6.66799 24.6819C6.68787 24.674 6.70842 24.6667 6.72962 24.66C6.75215 24.6534 6.77535 24.6481 6.7992 24.6441C6.82174 24.6388 6.84427 24.6342 6.8668 24.6302C6.89066 24.6276 6.91385 24.6256 6.93638 24.6243C6.96024 24.6216 6.98343 24.6203 7.00596 24.6203C7.11597 24.6203 7.222 24.6362 7.32406 24.668C7.34924 24.6759 7.37442 24.6846 7.3996 24.6938C7.42346 24.7044 7.44732 24.7164 7.47117 24.7296C7.4937 24.7429 7.51624 24.7575 7.53877 24.7734C7.55997 24.7893 7.58052 24.8058 7.6004 24.8231L7.30815 25.1431ZM9.5666 24.67H10.2863C10.3101 24.67 10.334 24.6706 10.3579 24.672C10.3817 24.6733 10.4056 24.6746 10.4294 24.6759C10.4533 24.6786 10.4771 24.6819 10.501 24.6859C10.5249 24.6885 10.548 24.6925 10.5706 24.6978C10.6607 24.7164 10.7389 24.7475 10.8052 24.7913C10.8224 24.8032 10.8383 24.8158 10.8529 24.829C10.8688 24.8423 10.8834 24.8569 10.8966 24.8728C10.9099 24.8873 10.9218 24.9032 10.9324 24.9205C10.9443 24.9364 10.9549 24.9536 10.9642 24.9722C11.0027 25.0477 11.0219 25.1431 11.0219 25.2584C11.0219 25.3711 11.004 25.4659 10.9682 25.5427C10.9311 25.6196 10.8807 25.6806 10.8171 25.7256C10.7535 25.772 10.6779 25.8045 10.5905 25.8231C10.503 25.8416 10.4082 25.8509 10.3062 25.8509H9.99404V26.6064H9.5666V24.67ZM9.99404 25.4911H10.2783C10.3168 25.4911 10.3539 25.4871 10.3897 25.4791C10.4254 25.4725 10.4573 25.4606 10.4851 25.4433C10.5129 25.4261 10.5355 25.4023 10.5527 25.3718C10.5699 25.3413 10.5785 25.3035 10.5785 25.2584C10.5785 25.2094 10.5673 25.1696 10.5447 25.1392C10.5394 25.1312 10.5335 25.1239 10.5268 25.1173C10.5202 25.1107 10.5129 25.1047 10.505 25.0994C10.4983 25.0928 10.4911 25.0875 10.4831 25.0835C10.4751 25.0782 10.4665 25.0736 10.4573 25.0696C10.448 25.0656 10.4387 25.0616 10.4294 25.0577C10.4188 25.055 10.4089 25.0524 10.3996 25.0497C10.389 25.0471 10.3791 25.0444 10.3698 25.0417C10.3592 25.0404 10.3486 25.0391 10.338 25.0378C10.3274 25.0364 10.3174 25.0358 10.3082 25.0358C10.2975 25.0345 10.2869 25.0338 10.2763 25.0338C10.2657 25.0325 10.2551 25.0318 10.2445 25.0318C10.2339 25.0318 10.2233 25.0318 10.2127 25.0318H9.99404V25.4911ZM14.2326 24.67V25.0636H13.3439V25.4254H14.1849V25.8191H13.3439V26.2127H14.2823V26.6064H12.9165V24.67H14.2326ZM17.5229 25.173C17.5123 25.161 17.5017 25.1491 17.4911 25.1372C17.4791 25.1252 17.4665 25.1146 17.4533 25.1054C17.44 25.0948 17.4261 25.0855 17.4115 25.0775C17.3983 25.0696 17.3837 25.0623 17.3678 25.0557C17.3068 25.0278 17.2366 25.0139 17.1571 25.0139C17.0762 25.0139 17.002 25.0298 16.9344 25.0616C16.9172 25.0683 16.9006 25.0762 16.8847 25.0855C16.8688 25.0948 16.8535 25.1054 16.839 25.1173C16.8231 25.1279 16.8085 25.1392 16.7952 25.1511C16.782 25.1643 16.7687 25.1776 16.7555 25.1909C16.7435 25.2054 16.7316 25.2207 16.7197 25.2366C16.7078 25.2512 16.6972 25.2671 16.6879 25.2843C16.6773 25.3015 16.668 25.3188 16.66 25.336C16.6521 25.3532 16.6448 25.3711 16.6382 25.3897C16.6315 25.4095 16.6256 25.4294 16.6203 25.4493C16.6137 25.4705 16.609 25.4911 16.6064 25.5109C16.6024 25.5321 16.5997 25.5533 16.5984 25.5746C16.5971 25.5958 16.5964 25.617 16.5964 25.6382C16.5964 25.7296 16.6103 25.8131 16.6382 25.8887C16.6448 25.9072 16.6521 25.9251 16.66 25.9423C16.668 25.9596 16.6773 25.9761 16.6879 25.992C16.6972 26.0093 16.7078 26.0252 16.7197 26.0398C16.7303 26.0557 16.7422 26.0709 16.7555 26.0855C16.7674 26.0987 16.78 26.112 16.7932 26.1252C16.8065 26.1372 16.8204 26.1484 16.835 26.159C16.8496 26.1696 16.8648 26.1796 16.8807 26.1889C16.8953 26.1995 16.9112 26.2081 16.9284 26.2147C16.9947 26.2465 17.0663 26.2624 17.1431 26.2624C17.2306 26.2624 17.3082 26.2439 17.3757 26.2068C17.393 26.1975 17.4089 26.1875 17.4235 26.1769C17.4394 26.1663 17.4546 26.1544 17.4692 26.1412C17.4824 26.1279 17.4957 26.114 17.5089 26.0994C17.5209 26.0848 17.5321 26.0696 17.5427 26.0537L17.8986 26.3201C17.8164 26.4341 17.7124 26.5189 17.5865 26.5746C17.556 26.5878 17.5249 26.5991 17.493 26.6083C17.4612 26.619 17.4288 26.6276 17.3956 26.6342C17.3638 26.6421 17.3313 26.6474 17.2982 26.6501C17.2651 26.6541 17.2313 26.6561 17.1968 26.6561C17.0457 26.6561 16.9066 26.6322 16.7793 26.5845C16.6521 26.5368 16.5414 26.4692 16.4473 26.3817C16.3545 26.2929 16.2823 26.1856 16.2306 26.0596C16.1789 25.9337 16.1531 25.7932 16.1531 25.6382C16.1531 25.4831 16.1789 25.3426 16.2306 25.2167C16.2823 25.0908 16.3545 24.9834 16.4473 24.8946C16.5414 24.8072 16.6521 24.7396 16.7793 24.6918C16.9066 24.6441 17.0457 24.6203 17.1968 24.6203C17.2525 24.6203 17.3095 24.6256 17.3678 24.6362C17.3837 24.6388 17.3989 24.6415 17.4135 24.6441C17.4281 24.6481 17.4427 24.6521 17.4573 24.6561C17.4718 24.66 17.4864 24.664 17.501 24.668C17.5156 24.6733 17.5302 24.6786 17.5447 24.6839C17.5593 24.6892 17.5732 24.6952 17.5865 24.7018C17.6011 24.7084 17.615 24.715 17.6282 24.7217C17.6428 24.7296 17.6567 24.7376 17.67 24.7455C17.6832 24.7535 17.6965 24.7621 17.7097 24.7714C17.723 24.7806 17.7362 24.7906 17.7495 24.8012C17.7614 24.8105 17.7734 24.8211 17.7853 24.833C17.7972 24.8436 17.8085 24.8549 17.8191 24.8668C17.831 24.8787 17.8416 24.8913 17.8509 24.9046L17.5229 25.173ZM19.7654 24.67H20.1909V26.6064H19.7654V24.67ZM22.8748 24.67H23.2286L24.0716 26.6064H23.5905L23.4215 26.1968H22.67L22.5089 26.6064H22.0378L22.8748 24.67ZM23.0398 25.2346L22.8032 25.835H23.2783L23.0398 25.2346ZM25.9284 24.672H26.3559V26.2147H27.1451V26.6083H25.9284V24.672ZM29.2008 25.0497H28.6481V24.672H30.1809V25.0497H29.6282V26.6083H29.2008V25.0497ZM32.6441 25.7833L31.9165 24.672H32.4453L32.8569 25.3976L33.2922 24.672H33.7972L33.0696 25.7833V26.6083H32.6441V25.7833ZM23.6143 19.6899H23.6103H23.6143Z" fill="#2955A9"/>
</g>
<circle cx="20" cy="20" r="19.5" stroke="black" stroke-opacity="0.05"/>
<defs>
<clipPath id="clip0_9_404082">
<rect width="30" height="12.664" fill="white" transform="translate(5 14)"/>
</clipPath>
</defs>
</svg>
