<svg width="40" height="40" viewBox="0 0 40 40" fill="none" xmlns="http://www.w3.org/2000/svg">
<circle cx="20" cy="20" r="20" fill="#EA1D25"/>
<g clip-path="url(#clip0_9_410562)">
<path d="M24.5001 18.0716C24.4531 17.3278 24.2738 16.4098 23.8977 15.765L20.704 9.86614C20.4626 9.41481 20.2886 8.93052 20.1878 8.42871L20.0464 8.67685C19.2486 10.1143 19.2486 11.9484 20.0464 13.3858L22.63 18.0947C23.4284 19.5321 23.4284 21.3669 22.63 22.8036L22.4886 23.0518C22.3877 22.55 22.2137 22.0657 21.9724 21.6144L19.624 17.3014L18.121 14.5256C17.8796 14.0742 17.7056 13.5899 17.6048 13.0881L17.4634 13.3363C16.6649 14.7737 16.6649 16.5583 17.4634 18.0452L20.047 22.7541C20.8448 24.1916 20.8448 26.0263 20.047 27.4637L19.9056 27.7112C19.8047 27.2094 19.6308 26.7251 19.3894 26.2738L16.1487 20.3749C15.7251 19.5823 15.5001 18.9639 15.5001 18.0716C12.0717 19.0134 9.71436 20.7716 9.71436 23.1013C9.71436 26.3734 14.3172 29.0001 20.0001 29.0001C25.6829 29.0001 30.2851 26.3728 30.2851 23.1013C30.3321 20.8706 27.9754 19.0134 24.5001 18.0716Z" fill="white"/>
</g>
<circle cx="20" cy="20" r="19.5" stroke="black" stroke-opacity="0.05"/>
<defs>
<clipPath id="clip0_9_410562">
<rect width="22" height="21" fill="white" transform="translate(9 8)"/>
</clipPath>
</defs>
</svg>
