<svg width="40" height="40" viewBox="0 0 40 40" fill="none" xmlns="http://www.w3.org/2000/svg">
<circle cx="20" cy="20" r="20" fill="#004C97"/>
<g clip-path="url(#clip0_9_396337)">
<path d="M19.9997 29.1431C21.6852 29.1437 23.3381 28.6783 24.7757 27.7983C26.2133 26.9184 27.3797 25.6582 28.1459 24.1569C28.9122 22.6557 29.2486 20.9718 29.1179 19.2914C28.9872 17.6109 28.3946 15.9993 27.4054 14.6346C25.2168 16.3831 20.9597 19.8574 19.3254 21.4574C19.4147 21.6747 19.449 21.9107 19.4252 22.1445C19.4015 22.3782 19.3205 22.6025 19.1894 22.7975C19.0583 22.9924 18.8812 23.152 18.6736 23.2622C18.4661 23.3723 18.2346 23.4296 17.9997 23.4289C17.7717 23.429 17.547 23.3746 17.3443 23.2702C17.1416 23.1658 16.9669 23.0144 16.8347 22.8286C16.7025 22.6429 16.6167 22.4282 16.5844 22.2025C16.5521 21.9768 16.5743 21.7467 16.6492 21.5313C16.724 21.316 16.8493 21.1217 17.0146 20.9646C17.1799 20.8076 17.3803 20.6924 17.5992 20.6287C17.8181 20.5649 18.0491 20.5545 18.2729 20.5983C18.4966 20.6421 18.7066 20.7388 18.8854 20.8803C19.8511 20.2517 22.2054 18.4231 27.0454 14.1717C26.0637 12.9853 24.7982 12.066 23.3664 11.4993C21.9346 10.9325 20.3828 10.7365 18.8551 10.9296C17.3273 11.1226 15.8731 11.6984 14.6272 12.6035C13.3814 13.5087 12.3844 14.7138 11.7287 16.1071C11.073 17.5005 10.7798 19.0368 10.8764 20.5737C10.973 22.1106 11.4562 23.5982 12.2812 24.8984C13.1062 26.1987 14.2462 27.2696 15.5955 28.0116C16.9449 28.7537 18.4598 29.1429 19.9997 29.1431Z" fill="white"/>
</g>
<circle cx="20" cy="20" r="19.5" stroke="black" stroke-opacity="0.05"/>
<defs>
<clipPath id="clip0_9_396337">
<rect width="20" height="20" fill="white" transform="translate(10 10)"/>
</clipPath>
</defs>
</svg>
