<svg width="40" height="40" viewBox="0 0 40 40" fill="none" xmlns="http://www.w3.org/2000/svg">
<circle cx="20" cy="20" r="20" fill="white"/>
<circle cx="20" cy="20" r="20" fill="white"/>
<circle cx="20" cy="20" r="19.5" stroke="black" stroke-opacity="0.05"/>
<circle cx="20" cy="20" r="20" fill="#01B3ED"/>
<circle cx="20" cy="20" r="19.5" stroke="black" stroke-opacity="0.05"/>
<mask id="mask0_9_399415" style="mask-type:luminance" maskUnits="userSpaceOnUse" x="6" y="14" width="28" height="14">
<path d="M6 14V27.7212H20.44L34 14H6Z" fill="white"/>
</mask>
<g mask="url(#mask0_9_399415)">
<path d="M34 14H6V27.7212H34V14Z" fill="url(#paint0_linear_9_399415)"/>
</g>
<path fill-rule="evenodd" clip-rule="evenodd" d="M22.6144 16.6337H19.8578V23.2625L17.4507 16.631H15.0644L13.0093 22.1756C12.7893 20.777 11.3605 20.2951 10.2372 19.931C9.49438 19.6901 8.70754 19.3365 8.71531 18.9437C8.72048 18.6215 9.1372 18.3229 9.96286 18.3675C10.5167 18.3963 11.0059 18.4408 11.9791 18.9175L12.9368 17.2308C12.049 16.7725 10.8196 16.4844 9.81533 16.4844H9.81015C8.63766 16.4844 7.65929 16.8694 7.05363 17.5032C6.63174 17.9458 6.40397 18.5089 6.39362 19.1296C6.37809 19.986 6.68868 20.5937 7.34093 21.0782C7.89223 21.4868 8.59366 21.7513 9.21484 21.9451C9.97839 22.186 10.6048 22.3929 10.597 22.8382C10.5918 23.0006 10.5297 23.1498 10.4158 23.2729C10.2243 23.472 9.9318 23.5479 9.52803 23.5558C8.74637 23.5715 8.16918 23.4484 7.24516 22.8984L6.39362 24.6087C7.31246 25.1377 8.40213 25.4494 9.51508 25.4494H9.65744C10.6255 25.431 11.4045 25.1508 12.0283 24.6427C12.0645 24.6139 12.0956 24.5851 12.1292 24.5537L11.8523 25.3001H14.3552L14.7745 24.0063C15.2145 24.1582 15.714 24.242 16.2446 24.242C16.7752 24.242 17.2489 24.1608 17.6811 24.0194L18.0849 25.3001H22.1666V22.6234H23.057C25.2104 22.6234 26.4813 21.5129 26.4813 19.656C26.4813 17.5844 25.2441 16.6337 22.6092 16.6337M16.2394 22.3091C15.9185 22.3091 15.6157 22.2515 15.3568 22.152L16.2291 19.3627H16.2446L17.1039 22.1598C16.8451 22.2541 16.5526 22.3091 16.2394 22.3091ZM22.7722 20.7063H22.164V18.4591H22.7722C23.5824 18.4591 24.2269 18.7315 24.2269 19.5696C24.2269 20.4077 23.5824 20.7089 22.7722 20.7089" fill="#01B3ED"/>
<path d="M23.5069 27.092C23.5069 26.6625 23.8278 26.3378 24.2368 26.3378C24.6457 26.3378 24.9615 26.6651 24.9615 27.092C24.9615 27.519 24.6431 27.8516 24.2368 27.8516C23.8304 27.8516 23.5069 27.5294 23.5069 27.092ZM24.2368 28.0009C24.7234 28.0009 25.1401 27.6159 25.1401 27.092C25.1401 26.5682 24.7234 26.1885 24.2368 26.1885C23.7502 26.1885 23.3257 26.5735 23.3257 27.092C23.3257 27.6106 23.745 28.0009 24.2368 28.0009ZM24.0478 27.1654H24.229L24.5008 27.6159H24.6768L24.3817 27.1575C24.5344 27.1392 24.6509 27.0554 24.6509 26.8694C24.6509 26.6651 24.5292 26.5735 24.2859 26.5735H23.8925V27.6185H24.0478V27.168V27.1654ZM24.0478 27.0292V26.7044H24.2601C24.3688 26.7044 24.4852 26.728 24.4852 26.8563C24.4852 27.0187 24.3662 27.0292 24.2368 27.0292H24.0504H24.0478Z" fill="white"/>
<circle cx="20" cy="20" r="19.5" stroke="black" stroke-opacity="0.05"/>
<defs>
<linearGradient id="paint0_linear_9_399415" x1="19.6096" y1="14.2092" x2="19.6096" y2="28.297" gradientUnits="userSpaceOnUse">
<stop stop-color="white"/>
<stop offset="1" stop-color="white"/>
</linearGradient>
</defs>
</svg>
