<svg width="40" height="40" viewBox="0 0 40 40" fill="none" xmlns="http://www.w3.org/2000/svg">
<circle cx="20" cy="20" r="20" fill="#F6F8FA"/>
<g clip-path="url(#clip0_9_393692)">
<mask id="mask0_9_393692" style="mask-type:luminance" maskUnits="userSpaceOnUse" x="-4" y="8" width="88" height="113">
<path d="M-3.78027 8.01758H83.1996V120.439H-3.78027V8.01758Z" fill="white"/>
</mask>
<g mask="url(#mask0_9_393692)">
<path fill-rule="evenodd" clip-rule="evenodd" d="M32.7459 21.1486L32.6748 21.1407C32.5682 21.1269 32.4399 21.1979 32.4261 21.3045L31.9643 23.9789H30.486L31.3386 18.3223H32.8801L32.6393 19.8914L32.9373 19.8637C33.0577 19.8558 33.1584 19.7572 33.1722 19.6506L33.3992 18.3085C33.4485 18.117 33.1939 17.9532 33.0222 18.0539H31.3821L31.538 17.0098H33.9182C34.5853 17.0236 35.063 17.5486 34.984 18.1664L34.6722 20.14C34.6505 20.2328 34.5932 20.3098 34.5005 20.3394L34.0465 20.5012C34.011 20.5091 34.0031 20.5723 34.0386 20.5881L34.3939 20.7854C34.4946 20.8289 34.536 20.9414 34.5301 21.042L34.0603 23.9789H32.4676L32.9235 21.3815C32.9373 21.269 32.8663 21.1762 32.7459 21.1486ZM30.3498 18.3223V23.9789H28.6959L28.8084 22.5539H28.163L27.8215 23.9789H26.3136L27.9913 18.3223H28.9939L28.4038 21.4604H28.8301L29.2347 18.3223H30.3498ZM30.3498 17.0098V18.0539H28.0682L28.3742 17.0098H30.3498ZM27.8847 17.0098L27.7426 18.0539H24.5867L24.7288 17.0098H27.8847ZM26.9334 18.3223L26.0097 23.9789H24.4248L25.3406 18.3223H26.9334ZM22.1097 22.6525L22.3367 21.2394C22.3584 21.1545 22.3071 21.0618 22.2439 21.0065L20.9432 19.9979C20.6531 19.7789 20.5169 19.4157 20.5663 19.0762L20.6807 18.3223H22.2577L22.1294 19.1118C22.1097 19.1966 22.1511 19.2953 22.2222 19.3447L23.4814 20.2604C23.7853 20.4736 23.9571 20.8644 23.886 21.2118L23.5584 23.1282C23.509 23.6177 22.9899 23.9729 22.4926 23.9789H21.0794C20.4242 23.9729 19.9209 23.4479 20.0057 22.8361L20.2465 21.1486H21.8176L21.5689 22.5815C21.5334 22.7236 21.6755 22.8519 21.8255 22.8578C21.9518 22.8578 22.088 22.7729 22.1097 22.6525ZM20.7518 17.8762C20.8446 17.3729 21.2768 17.0236 21.8255 17.0098H23.288C23.9353 17.0236 24.4465 17.5427 24.3617 18.1466L24.2057 19.3032H22.6209L22.7847 18.3085C22.8261 18.117 22.5774 17.9532 22.3998 18.0539H20.7242L20.7518 17.8762ZM18.1367 22.6525L18.8472 18.3085C18.8669 18.117 18.6538 17.9473 18.4702 18.0539H16.7353L16.7649 17.8683C16.8498 17.371 17.2899 17.0236 17.8307 17.0098H19.3367C19.984 17.0236 20.5228 17.5565 20.4024 18.1664L19.6209 23.1203C19.5636 23.6177 19.0742 23.9729 18.5551 23.9789H17.0334C16.3939 23.9729 15.8472 23.4322 15.9676 22.8223L16.6939 18.3223H18.2571L17.5959 22.5815C17.5821 22.7295 17.6946 22.8519 17.8584 22.8578C17.9867 22.8578 18.1071 22.7729 18.1367 22.6525ZM12.7209 18.3223H14.2919L14.0985 19.5499H14.6255L14.8169 18.3223H16.3939L15.486 23.9789H13.9288L14.4478 20.7085H13.9011L13.388 23.9789H11.811L12.7209 18.3223ZM12.934 17.0098H14.4972L14.3334 18.0539H12.7643L12.934 17.0098ZM16.4373 18.0519H14.8663L15.0301 17.0098H16.6011L16.4373 18.0519ZM10.1965 22.6506L10.4531 21.0598H11.9728L11.6255 23.1262C11.5327 23.6216 11.0926 23.971 10.5518 23.9769H9.08929C8.40639 23.9631 7.94455 23.446 8.0235 22.8203L8.73995 18.3203H10.3544L9.67942 22.5795C9.65771 22.7276 9.77021 22.8499 9.93403 22.8558C10.0623 22.8499 10.1689 22.771 10.1965 22.6506ZM8.78337 18.0519L8.811 17.8664C8.90376 17.369 9.34389 17.0216 9.88468 17.0078H11.3985C12.0518 17.0216 12.5847 17.5624 12.4643 18.1782L12.259 19.392H10.6742L10.8222 18.3065C10.8439 18.1072 10.6386 17.9453 10.4452 18.0519H8.78337ZM6.1406 17.0078H8.66297L8.49324 18.0519H5.97087L6.1406 17.0078ZM8.23666 19.6269L8.05903 20.7341H7.13534L6.80771 22.7552H7.73139L7.53205 23.9769H5.01758L5.92745 18.3203H7.51824L7.31297 19.6269H8.23666Z" fill="#E11F27"/>
<path fill-rule="evenodd" clip-rule="evenodd" d="M34.6723 23.3418C34.7236 23.3418 34.7756 23.3556 34.8282 23.3832C34.8795 23.4122 34.9196 23.4503 34.9486 23.4977C34.9775 23.549 34.992 23.6036 34.992 23.6615C34.992 23.7181 34.9775 23.7701 34.9486 23.8175C34.9196 23.8688 34.8815 23.9089 34.8341 23.9378C34.7828 23.9655 34.7289 23.9793 34.6723 23.9793C34.6144 23.9793 34.5618 23.9655 34.5144 23.9378C34.4631 23.9089 34.4229 23.8688 34.394 23.8175C34.3664 23.7701 34.3525 23.7181 34.3525 23.6615C34.3525 23.6036 34.3664 23.549 34.394 23.4977C34.4229 23.4503 34.4631 23.4122 34.5144 23.3832C34.567 23.3556 34.6196 23.3418 34.6723 23.3418ZM34.6723 23.3911C34.6289 23.3911 34.5861 23.403 34.544 23.4267C34.5006 23.4503 34.467 23.4832 34.4433 23.5253C34.4157 23.5688 34.4019 23.6142 34.4019 23.6615C34.4019 23.7089 34.4137 23.7536 34.4374 23.7957C34.4611 23.8378 34.494 23.8707 34.5361 23.8944C34.5795 23.9181 34.6249 23.93 34.6723 23.93C34.7196 23.93 34.7644 23.9181 34.8065 23.8944C34.8486 23.8707 34.8815 23.8378 34.9052 23.7957C34.9289 23.7536 34.9407 23.7089 34.9407 23.6615C34.9407 23.6142 34.9289 23.5688 34.9052 23.5253C34.8815 23.4832 34.8486 23.4503 34.8065 23.4267C34.7591 23.403 34.7144 23.3911 34.6723 23.3911ZM34.5302 23.8372V23.4898H34.6506C34.6927 23.4898 34.721 23.4944 34.7354 23.5036C34.7539 23.5089 34.7683 23.5188 34.7789 23.5332C34.792 23.5517 34.7986 23.5707 34.7986 23.5905C34.7986 23.6142 34.7894 23.6352 34.771 23.6536C34.7525 23.6721 34.7289 23.6813 34.6999 23.6813L34.7275 23.703C34.742 23.7175 34.7591 23.7392 34.7789 23.7681L34.8203 23.8372H34.7571L34.7216 23.7819C34.6979 23.7385 34.6789 23.7122 34.6644 23.703C34.6552 23.6938 34.6407 23.6892 34.621 23.6892H34.5854V23.8372H34.5302ZM34.5874 23.6457H34.6525C34.6854 23.6457 34.7091 23.6411 34.7236 23.6319C34.7328 23.6227 34.7374 23.6089 34.7374 23.5905L34.7295 23.5609L34.7078 23.5471C34.6986 23.5418 34.6802 23.5392 34.6525 23.5392H34.5874V23.6457Z" fill="#E11F27"/>
</g>
</g>
<circle cx="20" cy="20" r="19.5" stroke="black" stroke-opacity="0.05"/>
<defs>
<clipPath id="clip0_9_393692">
<rect width="30" height="6.98684" fill="white" transform="translate(5 17)"/>
</clipPath>
</defs>
</svg>
