<svg width="40" height="40" viewBox="0 0 40 40" fill="none" xmlns="http://www.w3.org/2000/svg">
<circle cx="20" cy="20" r="20" fill="#F6F8FA"/>
<path fill-rule="evenodd" clip-rule="evenodd" d="M4.6289 23.3861V16.6334C4.63549 16.6181 4.64427 16.6038 4.64757 16.5884C4.67501 16.4556 4.69038 16.3206 4.72881 16.1921C4.82432 15.8726 5.00106 15.6004 5.25576 15.3852C5.41384 15.2513 5.58949 15.1415 5.79478 15.0899C5.91115 15.0614 6.02642 15.0306 6.14279 15.001H33.7331C33.7594 15.0087 33.7858 15.0207 33.8121 15.0251C34.0976 15.0723 34.3577 15.1788 34.5839 15.3622C35.0153 15.7135 35.2217 16.1811 35.2239 16.7245C35.2327 18.8565 35.2283 20.9874 35.2272 23.1193C35.2272 23.2379 35.2206 23.3564 35.2097 23.475C35.1734 23.8878 34.9956 24.2358 34.7123 24.5311C34.5971 24.6508 34.4609 24.7419 34.3127 24.8198C34.1118 24.9263 33.9 24.9955 33.6782 24.9955C24.5982 24.9988 15.5192 24.9977 6.4403 25.001C6.17463 25.001 5.92213 24.9702 5.67293 24.8758C5.45336 24.7913 5.26893 24.6596 5.11304 24.4894C4.8825 24.2369 4.72771 23.9438 4.6794 23.5991C4.66952 23.5277 4.64427 23.4585 4.62671 23.3872L4.6289 23.3861ZM19.9303 24.597C24.4434 24.597 28.9565 24.597 33.4685 24.597C33.6551 24.597 33.8451 24.6134 34.0174 24.5256C34.1437 24.4619 34.2776 24.3994 34.3819 24.3061C34.5323 24.1721 34.664 24.0129 34.7211 23.812C34.7617 23.6693 34.821 23.5233 34.821 23.3784C34.8287 21.1476 34.8287 18.9169 34.8265 16.6861C34.8265 16.3326 34.6871 16.0176 34.4511 15.7673C34.2271 15.529 33.9373 15.394 33.5948 15.4094C33.4993 15.4138 33.4016 15.4094 33.306 15.4094C24.2831 15.4094 15.2602 15.4094 6.2372 15.4094C6.00996 15.4094 5.80357 15.473 5.61694 15.607C5.2349 15.8825 5.04278 16.2602 5.04168 16.7256C5.03729 18.8258 5.03949 20.927 5.03949 23.0271C5.03949 23.1259 5.03729 23.2247 5.04059 23.3235C5.05376 23.688 5.1855 23.9998 5.44678 24.2567C5.67073 24.4773 5.93531 24.597 6.25367 24.597C10.8118 24.597 15.3699 24.597 19.9292 24.597H19.9303Z" fill="#0B4C8E"/>
<path fill-rule="evenodd" clip-rule="evenodd" d="M29.8167 16.1908C30.7213 16.1908 31.6259 16.1908 32.5294 16.1908C32.6512 16.1908 32.7742 16.182 32.8939 16.1985C33.0827 16.2248 33.2616 16.2918 33.423 16.3972C33.4812 16.4356 33.5416 16.4741 33.5899 16.5246C33.6514 16.5882 33.7019 16.664 33.7578 16.7331C33.7908 16.7738 33.8358 16.8089 33.861 16.8539C33.9752 17.0592 34.0323 17.2798 34.0323 17.517C34.0301 19.1813 34.0323 20.8456 34.0312 22.5087C34.0312 22.8117 33.9445 23.0884 33.7524 23.3266C33.5734 23.5473 33.3484 23.6955 33.0728 23.7745C32.9026 23.8228 32.7314 23.8382 32.5557 23.8382C30.6851 23.8371 28.8133 23.8349 26.9426 23.8404C26.745 23.8404 26.5628 23.7932 26.3871 23.7196C26.1368 23.6142 25.9271 23.4485 25.7833 23.2157C25.656 23.0093 25.5868 22.7821 25.5879 22.5318C25.5912 20.9136 25.5901 19.2943 25.5901 17.6762C25.5901 17.6366 25.5879 17.5971 25.5901 17.5565C25.5945 17.3798 25.6 17.2096 25.6801 17.0372C25.7339 16.9209 25.7767 16.8012 25.8591 16.7035C25.9348 16.6146 26.0226 16.5322 26.116 16.4609C26.2027 16.3939 26.2982 16.3302 26.4003 16.2929C26.5298 16.2457 26.6693 16.1996 26.8043 16.1985C27.8077 16.1908 28.8111 16.1941 29.8145 16.1941V16.1886L29.8167 16.1908ZM30.2964 23.3255C30.3601 23.3003 30.4381 23.2904 30.4842 23.2465C30.5917 23.1444 30.6829 23.0258 30.7839 22.9149C31.0232 22.6526 31.212 22.354 31.3668 22.0367C31.5084 21.7436 31.6391 21.4439 31.6961 21.12C31.7423 20.862 31.796 20.6018 31.8103 20.3417C31.8389 19.8323 31.7895 19.2669 31.5864 18.6829C31.504 18.4457 31.4217 18.2097 31.2954 17.9956C31.1264 17.7069 30.9551 17.416 30.7147 17.1778C30.6313 17.0943 30.5522 17.0054 30.4633 16.9285C30.37 16.8462 30.1768 16.8594 30.112 16.9165C29.9748 17.0361 29.9517 17.1876 30.0648 17.3413C30.1153 17.4105 30.1735 17.4731 30.2295 17.5378C30.3316 17.6564 30.4271 17.7816 30.5401 17.8891C30.6357 17.9803 30.6302 18.123 30.7345 18.2075C30.7773 18.2426 30.7926 18.3129 30.8168 18.3689C30.8596 18.4677 30.8827 18.5786 30.943 18.6642C31.0462 18.808 31.0814 18.9749 31.1165 19.1363C31.1692 19.3778 31.1922 19.6259 31.2285 19.8718C31.2691 20.1506 31.2285 20.4251 31.1923 20.6995C31.1714 20.8587 31.1242 21.0146 31.0781 21.1683C31.0342 21.3154 30.987 21.4636 30.9244 21.603C30.8563 21.7567 30.7707 21.9027 30.6884 22.0499C30.5303 22.332 30.3228 22.5779 30.0955 22.8063C29.9978 22.904 29.9858 23.0379 30.022 23.1576C30.0538 23.2629 30.146 23.309 30.2942 23.3255H30.2964ZM30.2822 20.1001C30.2822 20.0409 30.2898 19.9794 30.2811 19.9223C30.2448 19.6972 30.213 19.47 30.1592 19.2482C30.1241 19.1 30.0725 18.9507 29.9978 18.819C29.8968 18.6389 29.7717 18.471 29.6476 18.3041C29.54 18.1592 29.4336 18.0143 29.2469 17.9506C29.1327 17.9122 29.057 17.9649 28.9944 18.0275C28.8594 18.1614 28.8649 18.303 28.9922 18.4479C29.035 18.4973 29.0812 18.5434 29.1229 18.5939C29.1865 18.6708 29.2557 18.7443 29.3084 18.8289C29.382 18.9452 29.4478 19.0671 29.506 19.1922C29.5477 19.2801 29.5752 19.3745 29.6015 19.4678C29.6366 19.5918 29.6817 19.7159 29.6926 19.8432C29.7333 20.3032 29.6707 20.7489 29.4357 21.1551C29.326 21.344 29.2173 21.535 29.0372 21.6755C28.9527 21.7414 28.8759 21.838 28.911 21.9686C28.9143 21.9796 28.911 21.9917 28.911 22.0027C28.9143 22.1102 28.9747 22.1915 29.0779 22.2211C29.2195 22.2628 29.3326 22.2255 29.4379 22.1168C29.6806 21.8676 29.8804 21.591 30.0253 21.2748C30.1954 20.9026 30.28 20.5118 30.2811 20.1034L30.2822 20.1001ZM28.7452 20.0584C28.732 19.8421 28.7364 19.7225 28.5784 19.4579C28.4752 19.2856 28.3785 19.0978 28.1623 19.0287C28.0503 18.9924 27.9405 19.0221 27.8692 19.1176C27.7791 19.2394 27.778 19.369 27.8692 19.4919C27.9449 19.594 28.047 19.683 28.0986 19.796C28.2369 20.099 28.1601 20.4075 27.9208 20.6304C27.8395 20.7072 27.8011 20.7852 27.8044 20.895C27.8077 21.0091 27.8626 21.0794 27.957 21.1288C28.0503 21.1782 28.1458 21.1881 28.2358 21.1211C28.2896 21.0816 28.3412 21.0377 28.3862 20.9883C28.6168 20.7391 28.7518 20.4481 28.7463 20.0573L28.7452 20.0584Z" fill="#27B35A"/>
<path fill-rule="evenodd" clip-rule="evenodd" d="M12.7379 17.7266H12.8213C13.8193 17.7266 14.8172 17.7266 15.8151 17.7266C16.0665 17.7266 16.3091 17.7683 16.5517 17.8407C16.7834 17.9099 16.9557 18.0416 17.0951 18.2359C17.2049 18.3907 17.2543 18.562 17.2752 18.7442C17.3015 18.9792 17.2818 19.2097 17.1566 19.4172C17.0666 19.5654 16.9557 19.6982 16.7877 19.7685C16.7559 19.7817 16.7318 19.8124 16.6922 19.8431C16.7263 19.864 16.7504 19.8827 16.7768 19.8947C16.9381 19.9672 17.0885 20.0627 17.2005 20.1977C17.3378 20.3646 17.4201 20.5622 17.4267 20.784C17.4333 21.02 17.4267 21.2538 17.3092 21.469C17.1983 21.6721 17.0424 21.8291 16.8415 21.9455C16.4902 22.1486 16.1016 22.1694 15.713 22.1727C14.8545 22.1793 13.9949 22.176 13.1364 22.1738C13.0244 22.1738 12.9114 22.165 12.7994 22.1551C12.7741 22.153 12.7511 22.1288 12.7302 22.1167C12.7961 22.0673 12.8631 22.0388 12.8949 21.9883C12.9267 21.9389 12.9366 21.8664 12.9366 21.8049C12.9388 20.5523 12.9388 19.2986 12.9388 18.046C12.9388 17.9626 12.9103 17.8945 12.829 17.8517C12.7884 17.8298 12.7599 17.7836 12.7258 17.7496C12.7313 17.7419 12.7368 17.7353 12.7423 17.7277L12.7379 17.7266ZM14.8896 20.2164V20.2076C14.5866 20.2076 14.2836 20.2076 13.9806 20.2076C13.9082 20.2076 13.884 20.2417 13.884 20.313C13.8862 20.6588 13.8851 21.0046 13.884 21.3505C13.884 21.4493 13.8972 21.4657 13.9938 21.4657C14.5153 21.4657 15.0367 21.4668 15.5582 21.4613C15.7152 21.4591 15.8755 21.4493 16.0292 21.4163C16.1488 21.3911 16.2597 21.3252 16.3431 21.2242C16.4661 21.0738 16.4727 20.896 16.4518 20.717C16.4321 20.5414 16.3453 20.3943 16.1774 20.3273C16.0467 20.2746 15.904 20.2296 15.7646 20.2219C15.4737 20.2054 15.1816 20.2175 14.8896 20.2175V20.2164ZM14.8622 18.4478V18.4358C14.6042 18.4358 14.3462 18.4358 14.0893 18.4358C13.8917 18.4358 13.8928 18.4347 13.8917 18.6301C13.8895 18.8881 13.8873 19.1449 13.8851 19.4029C13.8851 19.4864 13.9104 19.5138 13.9949 19.5127C14.0531 19.5127 14.1102 19.5116 14.1684 19.5116C14.6668 19.5116 15.1652 19.5127 15.6636 19.5094C15.7646 19.5094 15.8656 19.4929 15.9655 19.4787C16.072 19.4633 16.1708 19.4095 16.229 19.3283C16.3541 19.1526 16.375 18.9506 16.3025 18.7464C16.2257 18.5313 16.0423 18.4577 15.8381 18.4511C15.5132 18.439 15.1871 18.4478 14.8622 18.4478Z" fill="#0B4C8E"/>
<path fill-rule="evenodd" clip-rule="evenodd" d="M10.8541 19.0886C10.8266 19.0853 10.8014 19.0831 10.7696 19.0787C10.7641 18.9052 10.6334 18.824 10.5083 18.7461C10.1822 18.5408 9.82982 18.4101 9.4412 18.4003C9.24469 18.3948 9.04818 18.3915 8.85277 18.4068C8.64638 18.4233 8.45536 18.4914 8.29508 18.633C8.16224 18.7494 8.09747 18.97 8.1809 19.1248C8.21603 19.1907 8.28849 19.2533 8.35875 19.2785C8.48719 19.3246 8.62442 19.3532 8.75945 19.3707C9.04049 19.4069 9.32483 19.4245 9.60587 19.4629C9.86385 19.4981 10.1207 19.531 10.3732 19.6079C10.5478 19.6605 10.7114 19.7286 10.8563 19.8296C10.9781 19.9141 11.0824 20.0217 11.1659 20.1557C11.2669 20.317 11.3261 20.4861 11.347 20.6672C11.3832 20.9878 11.3261 21.2908 11.1121 21.5477C11.066 21.6037 11.0286 21.6706 10.9737 21.7157C10.8706 21.7991 10.7597 21.8726 10.6488 21.9473C10.4644 22.0713 10.2525 22.1295 10.0406 22.1691C9.7925 22.2152 9.5378 22.236 9.28531 22.2415C9.08441 22.2459 8.88131 22.2174 8.68151 22.1888C8.53879 22.168 8.39937 22.1186 8.25665 22.09C7.97891 22.0351 7.7297 21.9034 7.47171 21.7958C7.44646 21.7859 7.4267 21.7486 7.40475 21.7486C7.34876 21.7486 7.29387 21.7607 7.23788 21.7705C7.20714 21.7749 7.1775 21.7837 7.14786 21.7903C7.14566 21.7563 7.13139 21.7168 7.14347 21.6871C7.19397 21.5587 7.25105 21.4324 7.30594 21.3062C7.38279 21.1316 7.46293 20.9582 7.53758 20.7836C7.55954 20.7331 7.58369 20.7002 7.65066 20.7276C7.65066 20.8484 7.69347 20.9582 7.78789 21.0383C7.85485 21.0965 7.9317 21.1448 8.00855 21.1887C8.21494 21.304 8.43669 21.3753 8.66614 21.4346C8.91644 21.4994 9.16894 21.5213 9.42363 21.5159C9.68052 21.5104 9.93411 21.4599 10.1504 21.3171C10.3392 21.1931 10.483 21.0032 10.4193 20.7463C10.3963 20.6552 10.2711 20.5311 10.169 20.5124C9.9923 20.4806 9.81555 20.4444 9.6377 20.4191C9.41155 20.3873 9.18431 20.3664 8.95706 20.339C8.77921 20.3181 8.59917 20.3028 8.42242 20.2698C8.25665 20.2391 8.09418 20.1974 7.93719 20.1216C7.80765 20.0591 7.69238 19.9833 7.58808 19.8889C7.53868 19.845 7.50136 19.7868 7.46293 19.733C7.28728 19.4849 7.25435 19.205 7.2763 18.9107C7.29826 18.6143 7.41792 18.3629 7.62651 18.1554C7.69347 18.0885 7.77801 18.0369 7.85924 17.9853C7.96134 17.9205 8.06563 17.8579 8.17432 17.8063C8.25446 17.769 8.34228 17.7427 8.42901 17.7262C8.55855 17.702 8.69029 17.6856 8.82203 17.6757C8.97682 17.6636 9.13161 17.6504 9.2864 17.657C9.45656 17.6636 9.62892 17.6823 9.79579 17.7152C9.99998 17.7547 10.2042 17.803 10.4029 17.8656C10.55 17.9117 10.6872 17.9897 10.8321 18.0479C10.9178 18.0819 11.0078 18.1104 11.0978 18.1269C11.1395 18.1346 11.1867 18.1038 11.2317 18.0962C11.2636 18.0918 11.2965 18.0962 11.3283 18.0973C11.325 18.1258 11.3283 18.1576 11.3163 18.1818C11.2186 18.375 11.1176 18.5671 11.0177 18.7592C10.9628 18.8657 10.909 18.9722 10.8519 19.0864L10.8541 19.0886Z" fill="#0B4C8E"/>
<path fill-rule="evenodd" clip-rule="evenodd" d="M23.7007 22.1084C23.6677 22.1293 23.6447 22.1556 23.6216 22.1556C23.2067 22.1633 22.7906 22.1688 22.3745 22.1743C22.3174 22.1743 22.2592 22.182 22.2033 22.1721C22.1593 22.1644 22.1198 22.137 22.0781 22.1183C22.0803 22.1084 22.0836 22.0997 22.0858 22.0898C22.1055 22.0843 22.1264 22.081 22.1451 22.0733C22.2669 22.0239 22.3207 21.9262 22.2735 21.7999C22.2208 21.6583 22.1506 21.5222 22.088 21.3839C22.0463 21.2928 22.01 21.1983 21.9606 21.1116C21.9387 21.0743 21.8882 21.0293 21.8498 21.0293C21.2405 21.026 20.6312 21.0293 20.0219 21.0315C19.8572 21.0315 19.8572 21.0381 19.7935 21.1929C19.7441 21.3114 19.675 21.4212 19.6223 21.5387C19.5784 21.6353 19.5356 21.7352 19.5125 21.8384C19.4851 21.9591 19.563 22.047 19.7365 22.0942C19.7035 22.1216 19.6838 22.1513 19.6596 22.1545C19.585 22.1666 19.5092 22.1732 19.4335 22.1732C19.159 22.1754 18.8835 22.1732 18.609 22.1732C18.5344 22.1732 18.4608 22.1743 18.3861 22.1732C18.3324 22.1721 18.2895 22.1523 18.2742 22.0865C18.4641 22.0623 18.5387 21.9163 18.6134 21.7736C18.6935 21.6188 18.7726 21.464 18.8472 21.3059C18.9175 21.1555 18.979 21.0018 19.0503 20.8525C19.1513 20.6385 19.2589 20.4266 19.361 20.2136C19.4411 20.0467 19.5158 19.8766 19.5959 19.7097C19.6541 19.5889 19.7189 19.4715 19.7771 19.3496C19.8309 19.2387 19.8748 19.1235 19.9286 19.0126C20.0417 18.7799 20.1613 18.5504 20.2722 18.3177C20.3073 18.2441 20.3337 18.1651 20.3468 18.0849C20.36 18.007 20.3479 17.9302 20.2678 17.8764C20.2206 17.8456 20.1866 17.7951 20.147 17.7534C20.1525 17.7468 20.158 17.7391 20.1646 17.7314H21.7026C21.7224 17.7819 21.7092 17.816 21.6587 17.8335C21.5171 17.8818 21.4985 18.0169 21.5468 18.1332C21.6016 18.2661 21.6642 18.3945 21.7268 18.523C21.8113 18.6964 21.9014 18.8688 21.987 19.0422C22.1099 19.2903 22.2318 19.5406 22.3537 19.7898C22.4546 19.9962 22.5535 20.2026 22.6556 20.409C22.7544 20.6066 22.8575 20.802 22.9553 21.0007C23.0025 21.0963 23.0354 21.1994 23.0826 21.295C23.154 21.4377 23.2341 21.5749 23.3066 21.7176C23.3702 21.845 23.4361 21.969 23.5656 22.0426C23.5986 22.0612 23.6337 22.0766 23.6996 22.1084H23.7007ZM21.6445 20.4365C21.5962 20.3344 21.5544 20.252 21.516 20.1675C21.4084 19.9304 21.3019 19.6932 21.1944 19.4561C21.1417 19.3386 21.089 19.2201 21.0352 19.1015C21.0022 19.0269 20.9693 18.9522 20.932 18.8798C20.9254 18.8666 20.9034 18.8611 20.8826 18.849C20.64 19.3782 20.4006 19.8985 20.1536 20.4365H21.6434H21.6445Z" fill="#0B4C8E"/>
<path fill-rule="evenodd" clip-rule="evenodd" d="M14.8611 18.4478C15.1861 18.4478 15.5121 18.439 15.8371 18.4511C16.0402 18.4588 16.2246 18.5323 16.3015 18.7464C16.3739 18.9506 16.3531 19.1526 16.2279 19.3282C16.1697 19.4095 16.0709 19.4633 15.9644 19.4786C15.8645 19.4929 15.7635 19.5083 15.6625 19.5094C15.1641 19.5127 14.6657 19.5116 14.1673 19.5116C14.1091 19.5116 14.052 19.5127 13.9938 19.5127C13.9082 19.5127 13.883 19.4863 13.8841 19.4029C13.8874 19.1449 13.8896 18.888 13.8907 18.63C13.8918 18.4335 13.8907 18.4346 14.0883 18.4357C14.3462 18.4357 14.6031 18.4357 14.8611 18.4357V18.4478Z" fill="white"/>
<circle cx="20" cy="20" r="19.5" stroke="black" stroke-opacity="0.05"/>
</svg>
