<svg width="40" height="40" viewBox="0 0 40 40" fill="none" xmlns="http://www.w3.org/2000/svg">
<circle cx="20" cy="20" r="20" fill="#01A1B4"/>
<path d="M27.4072 20.9023C20.6302 21.3157 13.6205 24.611 10.9629 26.2066C19.4615 24.6534 23.2562 27.0789 24.0913 28.4855C26.2076 26.0041 27.1835 22.3957 27.4072 20.9023Z" fill="white"/>
<path d="M19.5624 30.2802C20.8455 29.2259 20.9863 27.6676 20.8963 27.0202C21.8272 27.1565 23.0524 28.3149 23.5494 28.8774C22.596 30.1021 20.4939 30.3232 19.5624 30.2802ZM18.1494 17.9939C21.1065 16.4169 25.4992 15.2855 27.3255 14.9172C27.8392 16.6722 27.735 19.0269 27.6187 19.9854C16.9363 21.2467 10.3759 25.0344 8.43066 26.7702C10.4383 24.5015 15.1922 19.5702 18.1494 17.9939ZM19.367 16.4523C23.199 13.9593 24.6962 10.9212 24.9649 9.71387C26.1825 11.3056 26.8871 13.3049 27.0877 14.1059C25.0884 14.3759 21.1078 15.7824 19.367 16.4523Z" fill="white"/>
<circle cx="20" cy="20" r="19.5" stroke="black" stroke-opacity="0.05"/>
</svg>
