<svg width="40" height="40" viewBox="0 0 40 40" fill="none" xmlns="http://www.w3.org/2000/svg">
<circle cx="20" cy="20" r="20" fill="#003399"/>
<path d="M25.2899 20.6494C24.9676 21.1349 24.5337 21.4547 23.9548 21.6847C24.5107 21.9681 24.8153 22.3905 24.9294 22.9379C25.0532 23.5464 24.9799 24.1786 24.72 24.7427C24.2461 25.8217 23.3546 26.346 22.2416 26.5633C21.9732 26.6102 21.7008 26.6305 21.4284 26.624C20.3269 26.624 19.2249 26.624 18.1234 26.6288C17.8722 26.6288 17.7921 26.5718 17.8443 26.2944C18.3807 23.4325 18.9032 20.5681 19.4294 17.7049C19.4694 17.487 19.5174 17.2698 19.5465 17.0507C19.5702 16.8686 19.6679 16.8195 19.8348 16.8231C20.9271 16.8431 22.0195 16.7715 23.1064 16.8765C23.653 16.9211 24.1799 17.1013 24.6393 17.4009C25.6855 18.1024 25.9574 19.4411 25.2899 20.6494ZM21.7349 22.4396C21.5334 22.4396 21.3307 22.4518 21.128 22.436C20.8925 22.4178 20.7851 22.4967 20.7493 22.7449C20.6783 23.2425 20.5673 23.7341 20.4835 24.2305C20.3524 25.0255 20.2371 24.9369 21.0588 24.9587C21.5856 24.9715 22.0674 24.9132 22.4121 24.4556C22.5938 24.2116 22.7102 23.9252 22.7501 23.6236C22.8782 22.7485 22.7065 22.3893 21.733 22.4415M21.9564 18.5023C21.6529 18.4665 21.4818 18.5436 21.4472 18.9022C21.4059 19.3689 21.2846 19.8301 21.1948 20.2944C21.0776 20.8958 21.0764 20.8952 21.7057 20.8964C21.7664 20.8964 21.8271 20.8964 21.8878 20.8964C22.8551 20.9292 23.4863 20.2495 23.3121 19.1225C23.266 18.8191 23.0736 18.6231 22.7659 18.5448C22.5129 18.4829 22.261 18.5084 21.9576 18.5005L21.9564 18.5023Z" fill="white"/>
<path d="M30.6124 16.9111C30.4777 15.4729 29.7143 14.4903 28.5115 13.8161C27.4683 13.2311 26.3268 12.9847 25.1464 12.9107C21.8967 12.7062 18.835 13.4927 15.8656 14.7191C13.5104 15.6901 11.3032 16.9354 9.30545 18.5284C7.89085 19.6572 6.62008 20.9219 5.65395 22.4682C5.62239 22.5192 5.60115 22.5786 5.52469 22.5896C5.45672 22.4682 5.54653 22.3772 5.58537 22.2819C6.29419 20.5062 7.4618 19.0576 8.82603 17.7565C11.2074 15.4856 13.9844 13.838 17.026 12.623C18.5589 12.0119 20.1325 11.5367 21.7595 11.2582C23.6936 10.9268 25.6331 10.8188 27.5617 11.2964C28.7615 11.5938 29.849 12.1005 30.6482 13.0946C31.331 13.9442 31.5689 14.9273 31.4833 15.9905C31.4008 17.0131 31.0318 17.9525 30.5457 18.8482C30.5338 18.8809 30.5122 18.909 30.4837 18.9289C30.4553 18.9488 30.4214 18.9594 30.3867 18.9593C30.593 18.2974 30.6696 17.602 30.6124 16.9111Z" fill="#FF0033"/>
<path d="M15.7555 21.508C16.3745 21.9735 16.8242 22.5275 16.9334 23.2995C17.0924 24.4252 16.6554 25.2954 15.7536 25.9418C14.4604 26.869 12.4292 26.8721 11.1585 25.9521C10.3726 25.3841 10.034 24.5781 9.97873 23.632C9.96538 23.4045 10.0643 23.325 10.2822 23.3286C10.8787 23.3335 11.4753 23.3286 12.0724 23.3286C12.2545 23.3286 12.3667 23.3802 12.334 23.5938C12.3012 23.8074 12.3613 24.0186 12.4068 24.2231C12.5021 24.6534 12.8316 24.9174 13.2673 24.9514C13.8542 24.9957 14.299 24.7566 14.5102 24.2796C14.7942 23.646 14.6225 23.1156 13.995 22.7697C13.5975 22.55 13.1787 22.3692 12.7752 22.1586C12.3228 21.9281 11.9224 21.6076 11.5984 21.2167C10.7488 20.1766 10.9018 18.6636 12.0142 17.7855C13.2698 16.7933 14.7001 16.5311 16.2015 17.138C17.2289 17.5531 17.749 18.3906 17.84 19.4944C17.8607 19.7408 17.7763 19.8397 17.5196 19.8331C16.9431 19.8197 16.3666 19.8209 15.7901 19.8331C15.5667 19.8367 15.4976 19.7566 15.4866 19.5339C15.4599 18.8402 15.1395 18.4955 14.583 18.5253C13.9294 18.5605 13.3262 19.1522 13.3693 19.7335C13.3893 20.0078 13.5325 20.23 13.748 20.4011C13.9746 20.5717 14.223 20.7113 14.4865 20.8162C14.934 20.9988 15.3596 21.2308 15.7555 21.508Z" fill="white"/>
<path d="M27.2309 18.7901C27.3523 18.2226 27.4737 17.6813 27.5805 17.1364C27.6248 16.9082 27.728 16.8165 27.9683 16.822C28.5952 16.836 29.2227 16.8348 29.8496 16.822C30.136 16.8165 30.1912 16.924 30.1348 17.1898C29.5243 20.0712 28.9247 22.955 28.3142 25.837C28.1461 26.6314 28.1358 26.6295 27.3299 26.6301H25.6428C25.6155 26.2703 25.7308 25.9626 25.7945 25.6561C26.2648 23.3749 26.7455 21.0949 27.2309 18.7901Z" fill="white"/>
<circle cx="20" cy="20" r="19.5" stroke="black" stroke-opacity="0.05"/>
</svg>
