<svg width="40" height="40" viewBox="0 0 40 40" fill="none" xmlns="http://www.w3.org/2000/svg">
<circle cx="20" cy="20" r="20" fill="#385072"/>
<g clip-path="url(#clip0_9_392579)">
<path d="M24.239 15.0002H24.247L24.251 15.0285L24.2349 15.0647L24.1543 15.1453L24.1302 15.1614L24.0254 15.2057H23.9851L23.9609 15.1896V15.1775L24.239 14.9922V15.0002Z" fill="white"/>
<path d="M17.8484 19.4285H17.8323L17.796 19.4326L17.3206 19.7307L16.9217 20.0128L16.7887 20.0893L16.6719 20.1538L16.6477 20.178L16.6396 20.2102L16.6235 20.3714L16.5792 20.5406L16.5107 20.7179L16.414 20.9032L16.3616 20.9757L16.281 21.0563L16.1843 21.1571L16.0514 21.2981L15.8902 21.427L15.6001 21.6204L15.3019 21.8017L14.9997 21.971L14.6895 22.1281L14.2785 22.3134L13.8555 22.4786L13.4002 22.6519L12.9408 22.8453L12.7394 22.9017L12.3888 22.9662L12.1269 23.0226L11.7723 23.1273L11.4742 23.216L11.2566 23.2684L10.6039 23.4134L10.1687 23.5141L9.91891 23.5585L9.68119 23.5746L9.27021 23.5988L8.60539 23.6592L7.98086 23.6955L7.44901 23.7358L7.33216 23.7438L7.17905 23.7358L7.01788 23.7277L6.897 23.7358L6.78821 23.7438L6.6754 23.7317L6.39738 23.6874L6.10325 23.6592L5.81717 23.6229L5.52304 23.5585L5.21682 23.4618L4.82196 23.3087L4.65273 23.2281L4.49156 23.1273L4.35054 23.0105L4.22564 22.8775L4.13296 22.7405L4.06044 22.5955L4.01612 22.4464L4 22.2933L4.00806 22.1482L4.04432 21.9992L4.11685 21.8098L4.20549 21.6325L4.30622 21.4673L4.42307 21.3142L4.53186 21.1974L4.65273 21.0886H4.65676L4.9791 20.8307L5.31755 20.597L5.66809 20.3794L6.03475 20.182L6.30471 20.0732L6.51423 19.9805L6.66331 19.912L7.26769 19.6662L7.38051 19.634L7.52153 19.6179L7.81163 19.5857L8.21456 19.5172L8.47242 19.4688L8.58927 19.4567L8.71015 19.4648L8.8552 19.4728L9.01234 19.4527L9.05263 19.4326L9.09695 19.4124L9.13724 19.4245L9.16948 19.4366L9.20171 19.4205L9.2823 19.3641L9.379 19.3238L9.49584 19.2956L9.63687 19.2794H9.80206L9.97532 19.2956L10.1405 19.3238L10.2654 19.36L10.3662 19.3842L10.4991 19.3923L10.6925 19.4124L10.7248 19.4285L10.7409 19.4567V19.489L10.7127 19.5051H10.7086L10.0761 19.5293L9.57643 19.5857L9.10501 19.6542L8.64165 19.7065L8.19038 19.767L7.7794 19.8516L7.12264 20.0248L6.6351 20.178L6.33694 20.2908L6.04684 20.4157L5.77285 20.5527L5.51498 20.6977L5.27323 20.8508L5.05565 21.008L4.85419 21.1732L4.67691 21.3384L4.59229 21.4391L4.51574 21.5801L4.44724 21.7816L4.4271 21.842L4.41098 21.9105V21.979L4.43113 22.0717L4.47948 22.1603L4.51171 22.1764L4.54394 22.1603V22.1523L4.56409 22.1281L4.59229 22.1039L4.62453 22.0959L4.65273 22.12L4.70511 22.2127L4.79778 22.3739L4.8824 22.4786L5.08789 22.6559L5.31352 22.7929L5.43843 22.8453L5.74465 22.9501L6.0549 23.0427L6.345 23.1112L6.6351 23.1676L6.92924 23.2079L7.2274 23.2361L7.4893 23.22L7.75925 23.1958L7.96474 23.216H8.00504L8.04533 23.212L8.12591 23.1918H8.2065L8.28305 23.212L8.31529 23.22H8.34752L8.67791 23.1838L8.98816 23.1515L9.33871 23.1072L9.72148 23.075L10.2171 23.0306L10.7207 22.9621L11.2284 22.8695L11.7441 22.7526L12.3082 22.6237L12.7232 22.531L13.0496 22.4383L13.3599 22.3215L13.654 22.1805L13.932 22.0153L14.1294 21.8783L15.0844 21.1732L15.5195 20.867L15.9547 20.5607L15.9788 20.5325V20.5003L15.9587 20.3834L15.9184 20.2908L15.7653 20.049L15.592 19.8597L15.4148 19.7267L15.2052 19.6139L14.9353 19.4728L14.625 19.3117L14.6009 19.3036L14.1738 19.1344L13.8595 19.0458L13.5734 18.9732L13.3196 18.8806L13.1342 18.8121L12.9408 18.7597L12.7353 18.7073L12.5298 18.6388L11.9698 18.4575L11.3896 18.3165L11.1236 18.248L10.7328 18.1231L9.58449 17.7161L9.38706 17.6275L9.22992 17.5187L8.92773 17.2245L8.86729 17.1399L8.83908 17.0513L8.84714 16.9506L8.89146 16.8498L8.96802 16.7451L9.08487 16.6363L9.23798 16.5194L9.42332 16.4066L9.6409 16.2978L9.8343 16.2213L10.0237 16.1487L10.201 16.0641L10.4588 15.9513L10.757 15.8748L10.9383 15.8304L11.1156 15.766L11.313 15.7015L11.583 15.6532L11.8288 15.6088L12.3445 15.492L12.5621 15.4759L12.7716 15.4598L13.0778 15.4154H13.376L13.5009 15.4235L13.6177 15.4033L13.6379 15.3953L13.9844 15.3066L14.0569 15.3187L14.1456 15.355L14.2342 15.3671L14.3067 15.359L14.4558 15.3469L14.5928 15.3711L14.7096 15.4235L14.8144 15.5041L14.899 15.5967L14.9595 15.7015L14.9957 15.8063L15.0159 15.9191V16.044L14.9957 16.177L14.9635 16.2616L14.9232 16.318L14.8708 16.3704L14.6653 16.5436L14.4679 16.733L14.4276 16.7612L14.3752 16.7733H14.3551L14.339 16.7612L14.3228 16.737V16.7088L14.3591 16.6L14.3752 16.4832V16.3663L14.3631 16.2495L14.3309 16.1447L14.2825 16.048L14.2221 15.9634L14.1456 15.8909L14.0851 15.8506L13.928 15.7861L13.7386 15.7579H13.5774L13.2551 15.7619L12.8361 15.8103L12.683 15.8304L12.2156 15.9151L11.9416 15.9715L11.5951 16.044L10.072 16.4348L9.82624 16.5154L9.49987 16.6605L9.47167 16.6927V16.733H9.4757L9.55225 16.8498L9.6409 16.9506L9.78595 17.0714L9.95115 17.1681L10.4024 17.3777L10.8497 17.5711L10.8698 17.5993L10.8779 17.6154H10.8819L10.898 17.6275H10.9141L11.0511 17.6194L11.1921 17.6396L11.6474 17.7765L12.0342 17.8974L12.8683 18.1271L13.6822 18.3769L14.48 18.6428L15.2576 18.9289L15.3986 18.9773L15.5356 19.0055L15.6404 19.0296L15.7371 19.078L15.8298 19.1465L15.9103 19.2271L15.999 19.3238L16.0917 19.4044L16.1924 19.4728L16.2972 19.5252L16.3576 19.5575L16.4221 19.6139L16.547 19.7871L16.5832 19.8435L16.5953 19.8758V19.912L16.5792 19.9966L16.5873 20.0651L16.6114 20.1014L16.6517 20.0933L17.1393 19.7791L17.6268 19.4487L17.9451 19.2432L18.1828 19.0941L18.3561 18.9732L18.5575 18.8322L18.7751 18.6952L19.1498 18.4535L19.4681 18.2439L19.6132 18.1231L19.6978 18.0465L19.7703 17.9982L20.3465 17.6678L20.8743 17.3212L21.2088 17.1037L21.5835 16.8861L21.6197 16.878V16.9143V16.9183L21.5956 16.9909L21.5593 17.0473L21.5029 17.0876L21.2611 17.2205L21.0516 17.3777L21.0315 17.3978L20.963 17.4864L20.9025 17.6114L20.8502 17.7201L20.7978 17.7725H20.7253L20.6568 17.7645L20.5923 17.7806L20.3465 17.8813L20.1491 17.9579L20.0081 18.0264L19.8952 18.0989L19.8066 18.1795L19.6414 18.3447L19.3996 18.5542L19.0572 18.8604L18.8356 19.082L18.4246 19.497L18.1345 19.8032L17.8363 20.1014L17.5341 20.4076L17.2722 20.7138L17.0264 21.0281L17.0184 21.0523L17.0264 21.0765L17.0466 21.0966H17.0748H17.0949L17.244 21.0644L17.3931 21.0039L17.7074 20.8307L17.9532 20.6776L18.1707 20.5164L18.3682 20.3432L18.3964 20.315L18.6381 20.0772L19.0491 19.6783L19.3674 19.4044L19.6817 19.1747L19.9275 19.0417L20.1652 18.9329L20.4029 18.7959L20.6447 18.6549L20.8703 18.5502L21.0597 18.4897L21.2128 18.4736H21.2853L21.378 18.4414L21.5029 18.4132L21.5956 18.4212H21.6117L21.8091 18.4978L21.8373 18.5179L21.8293 18.5502L21.4747 19.0055L21.0113 19.5494L20.7373 19.8919L20.7293 19.908V19.9241V19.9281L20.7414 19.9402H20.7535H20.7615L21.4304 19.3963L22.1032 18.7879L22.2564 18.663L22.4216 18.5703L23.4289 18.115H23.4651L23.4853 18.1392V18.1956L23.4651 18.248L23.1549 18.6469L22.8164 19.0377L22.8043 19.0578V19.074L22.8164 19.1102H22.8527L23.1025 18.9853L23.3563 18.8846L23.4047 18.8725L23.4369 18.8806L23.449 18.9088V18.9571L23.4208 19.0377L23.3402 19.1545L22.752 19.763L22.7318 19.7952V19.8314L22.7479 19.8637L22.7761 19.8838H22.8043L22.9615 19.8677L23.1347 19.8153L23.3322 19.7307L23.5779 19.6018L23.8036 19.4487L24.0252 19.2472L24.2387 19.0458L24.4765 18.8685L24.7303 18.7194L25.0003 18.5985H25.0647L25.105 18.6187L25.1252 18.6469V18.6872L25.101 18.7355L25.0687 18.7758L24.7786 19.0498L24.4603 19.3157L24.4281 19.3278L24.412 19.2996L24.3959 19.2714L24.3636 19.2633H24.3314L24.3032 19.2875L24.0776 19.5172L23.9849 19.638L23.9043 19.763V19.7952L23.9245 19.8194H23.9406H23.9567L24.2992 19.5655L24.6014 19.2915L24.6739 19.2351L24.7666 19.1868L24.8713 19.1586H24.8834L24.9197 19.1827V19.2271L24.8431 19.3761L24.7021 19.5534L24.549 19.7509L24.5208 19.8032V19.8274H24.545L24.5973 19.8032L24.8391 19.6542L25.2783 19.3399L25.4394 19.1908L25.5925 18.9934L25.7255 18.7718L25.8262 18.5421L25.9874 18.1432L26.1647 17.7765V17.7483L26.1405 17.7403L25.9995 17.7161L25.9592 17.7081L25.9149 17.7161L25.8706 17.7282L25.7819 17.7403H25.6892H25.653L25.6248 17.7645L25.5603 17.837L25.4918 17.8571L25.0123 17.9216L24.5208 18.0264L24.2146 18.0707L24.001 18.0949H23.9728L23.9486 18.0787L23.9406 18.0586L23.9486 18.0384L24.134 17.9135L24.3153 17.8209L24.4926 17.7604L24.6658 17.7282L25.0607 17.6718L25.4556 17.567L25.5643 17.5469L25.6812 17.5549H25.8706H26.0519H26.2171L26.3863 17.5267L26.4105 17.5146L26.4306 17.4905L26.5515 17.285L26.6845 17.0876L26.8215 16.9103L26.9625 16.7491L27.1075 16.6081L27.2526 16.4912L27.4057 16.3905L27.5548 16.318L28.2881 16.0077L28.3767 15.9835H28.4613L28.4976 15.9956L28.5137 16.0118V16.0359L28.4895 16.0682L28.0705 16.5194L27.6152 16.9747L27.5387 17.0593L27.454 17.1843L27.3855 17.3253V17.3575L27.4097 17.3777L27.4943 17.3978L27.6595 17.4179H27.8288H28.2276L28.683 17.4099H28.7716L28.8683 17.4381L28.8844 17.4542V17.4744L28.7635 17.7081L28.7474 17.7201H28.7313V17.7161L28.7031 17.696L28.6547 17.6839L28.3042 17.6557L28.28 17.6396L28.272 17.6114L28.2841 17.5469V17.5187L28.2478 17.5106L27.2848 17.5791L27.2244 17.6073L27.1881 17.6436L27.0672 17.7685L26.9867 17.8692L26.9383 17.9579L26.9222 18.0304L26.9141 18.0667L26.89 18.0949L26.8658 18.1069L26.8295 18.1231L26.8013 18.1472L26.5757 18.4011L26.2453 18.7436L25.8826 19.1183L25.6449 19.3963L25.3991 19.7186L25.1614 20.0531L25.0365 20.2142L24.9318 20.3472L24.8633 20.46L24.7222 20.7018L24.5691 20.9355L24.5208 21.0201L24.4885 21.1168L24.4724 21.2094V21.3021L24.4885 21.3303L24.5127 21.3464H24.545L24.5732 21.3343L24.9277 20.9596L25.2501 20.5446L25.2621 20.5366H25.2783L25.2944 20.5486V20.5567L25.0365 20.9435L24.7303 21.3142L24.6497 21.3827L24.5167 21.4431L24.3556 21.4673L24.3193 21.4552L24.2992 21.423L24.2871 21.3102L24.3032 21.2376L24.3354 21.1651L24.7182 20.4842L25.0244 19.8959L25.0365 19.8717L25.0728 19.7186V19.7106L25.0567 19.6904H25.0325L24.8552 19.8073L24.6779 19.9201L24.5288 19.9805L24.279 20.0611L24.2307 20.0813L24.1743 20.0974L24.134 20.0893L24.1098 20.0571L24.0977 20.0007V19.9322L24.0816 19.8999H24.0494L23.9325 19.9483L23.7955 20.0047L23.6908 20.0369L23.59 20.049L23.5014 20.041L23.4732 20.0329L23.453 20.0168V19.9926H23.4571L23.5538 19.8476L23.5941 19.7549V19.7428L23.5779 19.7186H23.5457L23.0179 19.9564L22.5505 20.1216L22.4417 20.1457L22.3249 20.1538L22.2725 20.1417L22.2322 20.1054L22.212 20.0571V20.0047L22.2362 19.9684L22.482 19.638L22.5263 19.5655L22.5384 19.5212L22.5223 19.4366L22.4901 19.3963L22.4377 19.4044L22.3692 19.4567L22.2362 19.626L22.0267 19.9161L21.8172 20.1699L21.7406 20.2948L21.6882 20.3875L21.6318 20.4479L21.6117 20.46L21.4465 20.5527L21.2571 20.6413L21.0597 20.7138H21.0516L21.0154 20.7018L21.0033 20.6655L21.0274 20.5648L21.0637 20.4721L21.1121 20.3955L21.1725 20.327L21.2168 20.2908L21.3095 20.2142L21.3981 20.1175L21.8293 19.5695L21.8413 19.5454L21.8212 19.489L21.789 19.4688L21.7527 19.4769L20.9751 20.045L20.1974 20.6494L20.0403 20.7985L19.8993 20.9757L19.5769 21.427L19.2425 21.8662L18.892 22.2893L18.5253 22.6962L18.5172 22.7123L18.5253 22.7325L18.5656 22.7446L20.5762 22.3739L21.2611 22.257L22.0992 22.112L22.2846 22.0918L22.4336 22.0797L25.1977 21.6809L25.5039 21.6486L25.7859 21.6406L26.0277 21.6244L26.3017 21.56H26.3299L26.3541 21.568L26.3823 21.5882L26.4185 21.6043H26.4508L27.9577 21.4472L28.0705 21.4351L28.6306 21.3545L29.1745 21.2981L29.4243 21.2658L29.7628 21.1974L30.073 21.1369L30.2987 21.1047L30.5042 21.0926L30.7016 21.1006H30.8104L30.8507 21.0926L30.8225 21.0644L30.7217 21.0201L30.5888 20.9596L30.4598 20.8831L30.347 20.7985L30.2463 20.7018L30.1697 20.6051L30.1093 20.5003L30.069 20.3955L30.0448 20.2827V20.1457L30.0771 20.0047L30.1697 19.7589L30.2785 19.5293L30.4075 19.3197L30.5525 19.1263L30.6734 18.949L30.7943 18.7718L30.8184 18.7194H30.762L30.6371 18.7637L30.5122 18.7798L30.4558 18.7718L30.4115 18.7516L30.3752 18.7154L30.347 18.671L30.3148 18.5421V18.3688L30.3551 18.1795V18.1472L30.3228 18.1432L30.206 18.1795L30.0811 18.256L29.9481 18.3688L29.787 18.534L29.7588 18.5622L29.2067 19.1142L29.0778 19.2512L28.9489 19.4044L28.6507 19.8314L28.5782 19.9362L28.5097 20.0047L28.409 20.0651L28.2881 20.1095L28.1712 20.1256L28.0947 20.1377L28.0101 20.1739L27.9658 20.1941H27.9416L27.9375 20.1699L27.9496 20.1216L28.0181 19.9443V19.904L28.0141 19.8798L27.9859 19.8597H27.9537L27.7482 19.9483L27.5789 19.9966L27.4258 20.0128L27.2848 20.0007L27.1962 19.9765L27.176 19.9644L27.1639 19.9443V19.9281L27.1559 19.8153L27.1398 19.775L27.0995 19.763H27.0874L26.894 19.8637L26.6845 19.9443L26.4588 20.0128L26.2171 20.0692H26.1768L26.1486 20.0369L26.1204 19.9604L26.1083 19.8838L26.1244 19.775L26.1728 19.6662L26.2574 19.5051L26.3138 19.3359L26.3541 19.2794L26.4306 19.219L26.4911 19.1465L26.7207 18.8241L26.9746 18.4978L27.0632 18.4091L27.176 18.3366L27.2405 18.3003L27.4943 18.1674L27.6958 18.0949H27.724L27.7361 18.1231L27.728 18.1916L27.6958 18.248L27.4822 18.534L27.2687 18.8241L27.1035 19.0256L26.9464 19.2472L26.8053 19.4809L26.7731 19.5655L26.765 19.6542L26.7852 19.7025L26.8376 19.7186L26.9665 19.6904L27.1156 19.6098L27.2808 19.4849L27.4581 19.3157L27.8328 18.9249L28.1833 18.53L28.2357 18.4776L28.3082 18.4293L28.5097 18.3447L28.5379 18.3326L28.6145 18.3124L28.6547 18.3245V18.3648L28.6225 18.4333L28.4694 18.6469L28.2961 18.8282L28.1471 18.9773L28.0181 19.1384L27.861 19.3439L27.6797 19.5575L27.6313 19.63L27.6233 19.6945V19.7065L27.6434 19.7388L27.6716 19.763L27.7039 19.775H27.7401L27.9698 19.6985L28.0745 19.6461L28.1672 19.5816L28.2599 19.5011L28.3445 19.4084L29.0416 18.4978L29.3478 18.0304L29.5452 17.7201L29.5694 17.696L29.6016 17.6879L29.9804 17.6516L30.351 17.5952H30.3712L30.4155 17.6234V17.6758L30.3269 17.8732V17.9015L30.339 17.9256L30.3833 17.9458L30.4195 17.9256L30.488 17.8652L30.5646 17.8209L30.6774 17.7806L30.8023 17.7685L30.8587 17.7846L30.8869 17.837L30.9071 18.1029L30.8829 18.385V18.4333L30.9111 18.4736L30.9474 18.5018L30.9877 18.5099L31.0239 18.5018L31.0602 18.4776L31.6404 17.9982L32.2488 17.5187L32.4744 17.3656L32.8008 17.1883L33.1554 16.9949L33.2319 16.9586L33.3367 16.9385L33.4938 16.8982H33.5059L33.5704 16.8821L33.6349 16.8942L33.6913 16.9264L33.7316 16.9788L33.7436 17.011V17.0392L33.6832 17.2125L33.6026 17.3777L33.4938 17.5348L33.3568 17.6879L33.1997 17.833L33.0144 17.97L32.8169 18.0908L32.5993 18.1996L32.1118 18.4091L31.6444 18.5904L31.5477 18.6469L31.4752 18.7315L31.306 18.9853L31.1488 19.219L31.04 19.4003L30.9595 19.5695L30.899 19.7388L30.8708 19.904L30.8869 20.0692L30.9232 20.1699L30.9756 20.2626L31.0481 20.3512L31.1367 20.4318L31.2415 20.5003L31.3583 20.5567L31.4833 20.597L31.6122 20.6252L31.8177 20.6494L32.0071 20.6615H32.1843L32.3455 20.6373L32.8129 20.5728L33.2319 20.5043L33.655 20.4358L33.7034 20.4197L33.7477 20.3794L33.7718 20.3593H33.8081L33.8766 20.3754H33.9572L34.1546 20.3311L34.3641 20.2867L34.5213 20.2626L34.6784 20.2223L34.8396 20.1659L35.0048 20.0933L35.2062 20.0208L35.4359 19.9846L35.4681 19.9966L35.4843 20.0289V20.0611L35.4722 20.1014L35.4359 20.1216L35.2022 20.1699L34.9726 20.2585H34.9605L34.8074 20.323L34.6462 20.3552L34.3077 20.4157L33.9532 20.5084L33.9088 20.5285L33.8524 20.6091V20.6171L33.8 20.6736L33.7316 20.7098H33.655L33.5825 20.6897L33.5623 20.6816L33.4858 20.6695L33.381 20.6856L33.2803 20.7058L32.9942 20.742L32.7001 20.8186L32.684 20.8307V20.8508V20.871L32.696 20.8871H32.7162L32.7726 20.871H32.833H33.24L33.6389 20.8428H33.792L33.9532 20.8468L34.1385 20.8226L34.3198 20.8146H34.344L34.3843 20.7944H34.3964L34.4205 20.7783H34.4488L34.5374 20.7823L34.8194 20.7944L35.029 20.7662L35.1136 20.7501H35.2264L35.3634 20.742L35.8147 20.6856H35.8711L35.9154 20.7018L35.9637 20.7501L35.9919 20.8267V20.8911L35.9476 20.9395L35.8187 20.9959L35.7341 21.0039L35.2586 21.0281L34.7832 21.0886L34.6663 21.0966L34.5092 21.0845H34.485H34.4407L34.4004 21.1087L34.3561 21.1329L34.3118 21.1168L34.2513 21.0966L32.4744 21.1812L32.4341 21.1933L32.3616 21.2336L32.2851 21.2497L32.2246 21.2417L32.1642 21.2175L32.1239 21.2054H32.0876L31.4913 21.3021L31.3906 21.2941H31.3785L31.2576 21.2538H31.2133L31.173 21.2658L31.1287 21.3182L31.1005 21.3424H31.0642L31.0602 21.3343L30.9715 21.286H30.8829L30.3269 21.3988L29.7668 21.4875L29.0496 21.5721L28.6225 21.6244L28.2599 21.6688L27.998 21.6889L27.8449 21.705L27.6474 21.7453L27.4057 21.7896L27.2203 21.7977H26.9987L26.7086 21.838L26.4306 21.8702L25.9109 21.9186H25.7134L25.5643 21.9065L25.4556 21.9186L25.3186 21.9428L25.1372 21.9548L24.9116 21.971L22.7802 22.2852L22.6835 22.3094L22.5424 22.3376L22.4216 22.3457L22.2483 22.3779L22.0791 22.4424L22.0025 22.4666H21.926L21.8293 22.4585L21.7326 22.4464H21.656L21.6399 22.4545L21.3901 22.5109L21.0395 22.5633L20.7091 22.6116L18.9041 22.942L18.7791 22.9662L18.3722 23.0508L18.1143 23.1394L17.9773 23.2079L17.8323 23.2966H17.796L17.7718 23.2724V23.2402L17.7638 23.22L17.7396 23.1999H17.7114L17.3045 23.2925L16.8975 23.4013L16.7404 23.4295L16.6074 23.4497L14.6291 23.9453L12.9932 24.3643L12.6789 24.453L12.3848 24.5577L12.2438 24.6061L12.0504 24.6504L11.8006 24.7108L10.1848 25.2306L10.0035 25.3192L9.77789 25.424L9.14127 25.6335L8.75447 25.7745L7.95669 26.0928L7.19114 26.3749L7.08638 26.3991H7.01788L6.97759 26.391L6.92924 26.3507L6.91312 26.3145L6.92924 26.2742L6.97759 26.2379L7.47721 25.9518L7.96072 25.698L8.19441 25.5932L8.3999 25.5167L8.49257 25.4885L8.69 25.428L8.83505 25.3716L8.9519 25.3071L9.03651 25.2346L9.06472 25.2145H9.09695H9.14127H9.22589H9.29036H9.3105L10.1365 24.9324L10.2614 24.868L10.4024 24.7511L10.4306 24.739L10.4548 24.7592L10.483 24.7874H10.5515L12.3969 24.2313L12.7474 24.1266L13.4445 23.9171L13.8232 23.8043L14.1415 23.7277L14.9192 23.5464L16.2287 23.224L17.3891 22.9702L17.6349 22.9098L17.9854 22.8292L18.0781 22.7929L18.1466 22.7244L18.3964 22.3739L18.6623 22.0314L18.6744 22.0153L18.763 21.9508L18.8517 21.8863L18.8718 21.8662L19.178 21.423L19.4359 20.9596L19.4641 20.8549L19.4963 20.7501L19.5568 20.6333L19.6011 20.5124L19.6374 20.4519L19.6736 20.4076L19.6978 20.3512V20.3432L19.6857 20.323H19.6656L19.5407 20.3794L19.3835 20.4721L19.1619 20.593L18.755 20.7783L18.6945 20.7985L18.6462 20.7904L18.6099 20.7541L18.5857 20.6937V20.6494L18.5978 20.597L18.626 20.5446L18.9121 20.178L18.9202 20.1659V20.1538V20.1498L18.9081 20.1336H18.8839L18.1828 20.6171L17.8041 20.8629L17.7517 20.8911L17.3528 21.1289L17.0708 21.3142L16.8653 21.4391L16.6598 21.5237L16.4785 21.56L16.3173 21.5519H16.3092L16.281 21.5157L16.2891 21.4754L16.4261 21.286L16.547 21.0886L16.7081 20.867L16.8492 20.6816L16.9217 20.5204L16.9781 20.3955L17.0385 20.315L17.8444 19.4567L17.8524 19.4366L17.8363 19.4205L17.8484 19.4285ZM14.4679 15.4154H14.4558V15.4275L14.48 15.4638L14.5122 15.4839H14.5686L14.5968 15.4759L14.5767 15.4517L14.5243 15.4275L14.4639 15.4154H14.4679ZM32.8169 17.5549H32.7565H32.7283L32.7041 17.567L32.1803 17.978L32.0755 18.0868L32.0191 18.1795V18.2077L32.0473 18.2238H32.0594L32.2448 18.1553L32.4301 18.0707L32.6074 17.97L32.7645 17.8612L32.9056 17.7403L33.0224 17.6154L33.1191 17.4824L33.1957 17.3414L33.2198 17.2769V17.2447H33.1836L33.1231 17.281L33.0546 17.3333L32.9499 17.43L32.8572 17.5429L32.821 17.559L32.8169 17.5549ZM20.1974 19.4285L19.4963 20.1941V20.2062L19.5246 20.2183H19.5648L19.6777 20.1659L19.8147 20.0651L19.9557 19.9281L19.9758 19.908L20.1007 19.7549L20.1894 19.6098L20.2297 19.493V19.4527L20.2135 19.4245H20.2055L20.1974 19.4285Z" fill="white"/>
<path d="M14.468 15.415L14.5285 15.4271L14.5808 15.4513L14.601 15.4755L14.5728 15.4876H14.5164L14.4841 15.4634L14.46 15.4271V15.415H14.468Z" fill="#385072"/>
<path d="M22.0271 16.6628C22.0635 16.6335 22.0851 16.6 22.0753 16.5878C22.0656 16.5757 22.0281 16.5896 21.9917 16.6189C21.9553 16.6481 21.9337 16.6817 21.9435 16.6939C21.9532 16.706 21.9907 16.6921 22.0271 16.6628Z" fill="white"/>
<path d="M32.8531 17.5344L32.9458 17.4215L33.0505 17.3248L33.119 17.2725L33.1795 17.2402H33.2117L33.2157 17.2725L33.1915 17.3369L33.115 17.478L33.0183 17.6109L32.9014 17.7358L32.7604 17.8567L32.6033 17.9655L32.426 18.0662L32.2406 18.1508L32.0553 18.2193H32.0432L32.019 18.2032V18.175L32.0714 18.0823L32.1762 17.9736L32.7 17.5626L32.7242 17.5505H32.7524H32.8128L32.8491 17.5344H32.8531Z" fill="#385072"/>
<path d="M20.1973 19.4277H20.2054L20.2215 19.4559V19.4962L20.1852 19.6131L20.0966 19.7581L19.9717 19.9112L19.9515 19.9314L19.8105 20.0684L19.6735 20.1691L19.5607 20.2175H19.5204L19.4922 20.2054V20.1973L20.1933 19.4277H20.1973Z" fill="#385072"/>
<path d="M30.0247 19.8672L29.9441 20.0807V20.0888L29.936 20.0807V19.9518L29.9562 19.9035L29.9844 19.8632L30.0005 19.8511L30.0327 19.835V19.8712L30.0247 19.8672Z" fill="white"/>
<path d="M11.185 24.1977C11.2445 24.151 11.2861 24.1046 11.2779 24.0941C11.2697 24.0836 11.2147 24.1129 11.1552 24.1596C11.0956 24.2063 11.054 24.2527 11.0623 24.2632C11.0705 24.2737 11.1255 24.2443 11.185 24.1977Z" fill="white"/>
</g>
<circle cx="20" cy="20" r="19.5" stroke="black" stroke-opacity="0.05"/>
<defs>
<clipPath id="clip0_9_392579">
<rect width="32" height="11.4148" fill="white" transform="translate(4 15)"/>
</clipPath>
</defs>
</svg>
