<svg width="40" height="40" viewBox="0 0 40 40" fill="none" xmlns="http://www.w3.org/2000/svg">
<circle cx="20" cy="20" r="20" fill="#F6F8FA"/>
<g clip-path="url(#clip0_9_410150)">
<path d="M31.451 28.3315C31.3306 28.5996 31.2008 28.8456 31.0614 29.0695C30.7592 29.5552 30.3852 29.9821 29.9396 30.3502C29.7084 30.5411 29.4416 30.7196 29.1392 30.8857C28.6715 31.1425 28.1522 31.3305 27.5814 31.4498C27.4253 31.4825 27.2487 31.5159 27.0518 31.5501C26.9932 31.5602 26.9346 31.5653 26.8761 31.5653C22.2952 31.5651 17.7162 31.5651 13.139 31.5654C13.0798 31.5654 13.0204 31.5603 12.9607 31.5501C12.8517 31.5314 12.7447 31.5131 12.6397 31.4949C12.1814 31.4156 11.7036 31.2755 11.2675 31.0805C11.0061 30.9635 10.7577 30.8302 10.5223 30.6804C10.1393 30.4368 9.7928 30.1393 9.48292 29.7879C9.27222 29.5487 9.08928 29.3048 8.93409 29.0562C8.78772 28.8218 8.65457 28.5668 8.53464 28.2911C8.28167 27.7097 8.11505 27.1011 8.0348 26.4654C8.02619 26.3969 8.02188 26.33 8.02188 26.2648C8.02188 26.1722 8.01647 26.0804 8.01602 25.9871C8.01271 25.2986 8.01101 24.6118 8.01091 23.9266C8.01021 20.702 8.01171 17.4775 8.01542 14.2529C8.01542 14.1921 8.02058 14.1319 8.0309 14.0723C8.06957 13.8483 8.10749 13.6526 8.14466 13.4853C8.19205 13.2719 8.25978 13.0321 8.34784 12.7659C8.379 12.6717 8.41407 12.5781 8.45304 12.485C8.60452 12.1239 8.78095 11.7778 8.98233 11.4469C9.02211 11.3816 9.08853 11.2843 9.1816 11.1552C9.24282 11.0701 9.30428 10.9927 9.366 10.9229C9.47551 10.7989 9.58196 10.6848 9.68535 10.5805C9.80327 10.4615 9.94764 10.3293 10.1185 10.1839C10.1938 10.1197 10.2733 10.0588 10.357 10.0012C10.5911 9.83947 10.8161 9.70542 11.0319 9.59902C11.2361 9.49843 11.4682 9.4018 11.7283 9.30913C11.8251 9.27456 11.9211 9.24441 12.0165 9.21866C12.3117 9.13881 12.6157 9.07319 12.9287 9.02179C12.9905 9.01157 13.0589 9.00646 13.1337 9.00646C16.8103 9.00516 20.4742 9.00431 24.1253 9.00391C24.1354 9.00391 24.1455 9.00391 24.1554 9.00391C24.9505 9.00421 25.7532 9.00701 26.5636 9.01232C26.6942 9.01322 26.8233 9.01608 26.9511 9.02089C27.0518 9.0248 27.1507 9.03521 27.248 9.05215C27.3989 9.0785 27.5379 9.1064 27.6649 9.13585C27.9521 9.20238 28.2561 9.29771 28.5771 9.42184C28.6747 9.45961 28.7677 9.49929 28.8562 9.54086C29.2416 9.7222 29.6017 9.94677 29.9364 10.2146C29.9793 10.2488 30.0593 10.321 30.1763 10.431C30.2517 10.5019 30.3227 10.5722 30.3894 10.6418C30.5741 10.8349 30.731 11.0183 30.8796 11.2267C31.2081 11.6873 31.4654 12.2001 31.6475 12.7347C31.6797 12.8289 31.7107 12.924 31.7407 13.0199C31.8397 13.3367 31.9122 13.6674 31.9583 14.0119C31.9642 14.0567 31.9675 14.0892 31.9681 14.1094C31.9813 14.5993 31.9882 15.1303 31.9888 15.7023C31.9917 18.3764 31.9916 21.4498 31.9885 24.9225C31.988 25.459 31.9817 25.9649 31.9696 26.44C31.9688 26.4706 31.9663 26.5009 31.9622 26.531C31.8785 27.147 31.71 27.7541 31.451 28.3315ZM23.402 26.7256H19.1886C19.1836 26.7256 19.1811 26.7231 19.1811 26.7181V26.496C19.1811 26.4885 19.1848 26.4843 19.1922 26.4832C19.4086 26.4527 19.5991 26.4048 19.7638 26.3395C20.0339 26.2325 20.2439 26.0594 20.394 25.8203C20.4012 25.8089 20.4069 25.7971 20.411 25.7851C20.4726 25.6027 20.5314 25.4216 20.5874 25.2419C20.9291 24.146 21.2734 23.0272 21.6024 21.9065C21.6292 21.815 21.6556 21.7182 21.6814 21.616C21.6913 21.5773 21.6922 21.5445 21.6843 21.5174C21.674 21.4825 21.6589 21.4538 21.6391 21.4315C21.5892 21.3753 21.5185 21.4546 21.4889 21.4901C21.3878 21.6115 21.2952 21.7379 21.1839 21.8516C20.7345 22.3112 20.1616 22.6418 19.5473 22.8297C19.093 22.9684 18.6304 23.0393 18.1593 23.0423C18.0391 23.043 17.9236 23.045 17.813 23.0483C17.7933 23.0489 17.7755 23.0549 17.7597 23.0661C17.7557 23.0689 17.7529 23.0731 17.7519 23.0778C17.6493 23.5288 17.5811 23.9459 17.5473 24.329C17.5224 24.6117 17.5169 24.9402 17.531 25.3146C17.5347 25.4138 17.543 25.5142 17.5559 25.6159C17.6145 26.0789 17.7368 26.5236 17.9517 26.9343C18.1509 27.3151 18.4146 27.6374 18.7427 27.9011C19.0915 28.1813 19.4978 28.3911 19.9616 28.5305C20.1055 28.5736 20.2621 28.6108 20.4315 28.6418C20.6345 28.679 20.8232 28.6962 20.9977 28.6934C21.4365 28.6866 21.8776 28.5756 22.308 28.4078C22.41 28.3681 22.5035 28.3265 22.5887 28.2833C22.9101 28.1196 23.1943 27.9339 23.4414 27.7259C23.608 27.5856 23.7864 27.4092 23.9765 27.1966C24.0143 27.1542 24.0479 27.1073 24.0811 27.0618C24.0838 27.0581 24.0875 27.0562 24.092 27.0562L24.4178 27.0561C24.4185 27.056 24.4193 27.0562 24.4199 27.0566C24.4206 27.057 24.4211 27.0576 24.4214 27.0583C24.4218 27.0589 24.4219 27.0597 24.4219 27.0604C24.4218 27.0612 24.4215 27.0619 24.4211 27.0625C24.2202 27.3355 23.9965 27.5895 23.7499 27.8244C23.3997 28.1585 23.0049 28.4393 22.5656 28.6671C22.1446 28.8853 21.6992 29.0391 21.2294 29.1284C21.0398 29.1645 20.8915 29.1869 20.7844 29.1958C20.4835 29.2202 20.171 29.2229 19.8468 29.2037C19.7026 29.1952 19.5537 29.1755 19.4 29.1445C18.5927 28.9815 17.8408 28.6714 17.1751 28.1962C17.0954 28.1394 17.016 28.0778 16.9367 28.0112C16.6977 27.8106 16.4746 27.5911 16.2674 27.3527C16.0417 27.093 15.8463 26.7845 15.6954 26.4881C15.3918 25.892 15.2088 25.2521 15.1463 24.5684C15.1369 24.4664 15.1321 24.363 15.132 24.2581C15.1315 23.9675 15.1424 23.7231 15.1646 23.5249C15.1801 23.3869 15.2022 23.257 15.231 23.1352C15.2622 23.0035 15.2862 22.8748 15.3029 22.7491C15.3177 22.6373 15.2814 22.5493 15.1939 22.4849C15.108 22.4215 14.9939 22.3859 14.8923 22.3697C14.695 22.3381 14.4982 22.3373 14.3017 22.3671C13.9068 22.4272 13.5587 22.6545 13.3925 23.0223C13.3905 23.0266 13.3871 23.0288 13.3823 23.0287L12.9899 23.0204C12.9878 23.0203 12.9857 23.0198 12.9838 23.0188C12.9819 23.0178 12.9802 23.0164 12.979 23.0147C12.9777 23.0129 12.9769 23.0109 12.9765 23.0088C12.9762 23.0067 12.9763 23.0045 12.977 23.0025L14.1266 19.1974C14.128 19.1927 14.1312 19.1902 14.1362 19.19C14.252 19.1857 14.3593 19.1842 14.4581 19.1855C14.4813 19.1858 14.5048 19.1871 14.5288 19.1896C14.539 19.1907 14.5425 19.1961 14.5392 19.2058C14.4578 19.448 14.3884 19.6913 14.331 19.9357C14.2698 20.196 14.2467 20.4521 14.2613 20.7155C14.265 20.7811 14.2781 20.848 14.3007 20.9161C14.4066 21.2348 14.5769 21.5092 14.8118 21.7391C14.9581 21.8825 15.128 21.9867 15.3184 22.0529C15.4296 22.0915 15.5584 22.0602 15.6173 21.9529C15.6834 21.8326 15.7426 21.7081 15.8087 21.5871C15.9181 21.3873 16.0508 21.1864 16.2067 20.9845C16.4408 20.6814 16.6992 20.3928 16.9818 20.1189C17.3911 19.7224 17.8373 19.3542 18.3205 19.0143C18.4806 18.9017 18.6363 18.7929 18.7875 18.6878C18.7904 18.6858 18.7928 18.6833 18.7947 18.6803C18.7966 18.6774 18.7979 18.6741 18.7985 18.6706C18.7991 18.6671 18.799 18.6636 18.7982 18.6602C18.7974 18.6567 18.796 18.6535 18.7939 18.6506C18.7638 18.6082 18.7294 18.5664 18.6908 18.5253C18.6026 18.4313 18.5131 18.3381 18.4224 18.2455C17.8157 17.6263 17.207 17.0114 16.6124 16.3924C16.5514 16.3287 16.5101 16.2838 16.4885 16.2574C16.1164 15.8028 15.8419 15.242 15.7357 14.6577C15.7251 14.5995 15.7185 14.5393 15.716 14.477C15.7073 14.2635 15.7075 14.0577 15.7166 13.8597C15.721 13.7653 15.736 13.6774 15.7567 13.587C15.8289 13.2721 15.9505 12.9597 16.1218 12.6499C16.1731 12.5571 16.2264 12.4749 16.2817 12.4031C16.5212 12.0925 16.84 11.8218 17.1754 11.6205C17.6124 11.3581 18.0875 11.1908 18.6005 11.1185C18.8589 11.082 19.1289 11.0775 19.3896 11.0865C19.5868 11.0932 19.7865 11.1151 19.9888 11.152C20.0888 11.1703 20.1887 11.1958 20.2885 11.2285C20.5361 11.3097 20.8058 11.4069 21.0973 11.5201C21.2866 11.5935 21.4531 11.6548 21.5968 11.7039C21.7642 11.7608 21.9631 11.7447 22.1431 11.7342C22.1944 11.7312 22.2392 11.7244 22.2775 11.7138C22.606 11.6227 22.8612 11.4304 23.0431 11.1369C23.2653 10.7783 23.3638 10.3751 23.4103 9.94888C23.4129 9.92493 23.4132 9.90039 23.4112 9.87524C23.4108 9.87023 23.4081 9.86773 23.4031 9.86773C22.2303 9.86773 21.131 9.86893 20.1053 9.87133C20.0915 9.87143 20.0777 9.87148 20.064 9.87148C18.8832 9.87128 17.6146 9.87248 16.2581 9.87509C16.2349 9.87509 16.2124 9.87509 16.1904 9.87509C15.7321 9.87509 15.2737 9.87514 14.8154 9.87524C14.7861 9.87524 14.7559 9.87945 14.7253 9.8793C14.362 9.87795 13.9864 9.8796 13.619 9.88726C13.5215 9.88927 13.423 9.89913 13.3235 9.91687C13.0194 9.97097 12.7426 10.0366 12.4934 10.1139C11.7396 10.3477 11.0837 10.7321 10.5257 11.267C10.4516 11.3381 10.3815 11.4114 10.3153 11.4867C9.93412 11.9213 9.6299 12.4046 9.40267 12.9366C9.20289 13.4043 9.06228 13.9021 8.98083 14.4301C8.9663 14.5245 8.95804 14.6242 8.95603 14.7292C8.95393 14.8403 8.95303 14.9506 8.95333 15.06C8.95343 15.0881 8.95343 15.1157 8.95333 15.1426C8.95182 15.3881 8.94962 15.6335 8.94671 15.879C8.94651 15.8969 8.94641 15.9145 8.94641 15.9316C8.94671 17.7226 8.94787 19.402 8.94987 20.9698C8.94997 21.0015 8.95002 21.0328 8.95002 21.0637C8.95002 22.3607 8.95142 23.6443 8.95423 24.9147C8.95423 24.9274 8.95423 24.9399 8.95423 24.9523C8.95413 25.2934 8.95423 25.6388 8.95453 25.9885C8.95463 26.0453 8.95979 26.1003 8.97001 26.1535C9.01459 26.3834 9.06323 26.6001 9.11593 26.8036C9.29727 27.5042 9.60345 28.1501 10.0345 28.7412C10.1124 28.848 10.1926 28.9472 10.2751 29.0389C10.4895 29.2774 10.7261 29.505 10.9878 29.697C11.1972 29.8504 11.4179 29.9867 11.6498 30.1059C11.872 30.22 12.0753 30.3104 12.2595 30.3771C12.5871 30.4957 12.9721 30.5917 13.4143 30.6652C13.4992 30.6793 13.585 30.6867 13.6719 30.6873C14.0477 30.69 14.4215 30.6948 14.8127 30.6929C14.8313 30.6927 14.8495 30.6977 14.868 30.6977C17.2374 30.6971 19.6069 30.696 21.9763 30.6945C23.4611 30.6936 24.9459 30.693 26.4306 30.6929C26.4885 30.6929 26.5419 30.6878 26.5908 30.6777C26.7879 30.6367 26.9661 30.598 27.1254 30.5617C27.3971 30.4998 27.6761 30.41 27.9625 30.2925C28.6892 29.9941 29.3075 29.5416 29.8174 28.935C29.8787 28.8621 29.9396 28.7839 30 28.7006C30.3783 28.1787 30.6613 27.5923 30.8491 26.9414C30.9333 26.6493 30.9926 26.3833 31.0267 26.1432C31.0415 26.039 31.0506 25.9402 31.0539 25.8467C31.0593 25.6945 31.062 25.539 31.062 25.3804C31.062 25.3632 31.0621 25.3457 31.0622 25.328C31.0635 25.1665 31.0652 24.9749 31.0674 24.7531C31.0675 24.7363 31.0676 24.72 31.0676 24.7043C31.0679 24.0022 31.0693 23.252 31.072 22.4538C31.0721 22.4364 31.0721 22.4189 31.0721 22.4012C31.0721 20.9836 31.0723 19.5659 31.0727 18.1483C31.0727 18.1114 31.0682 18.0748 31.0682 18.0379C31.0698 17.0988 31.0684 16.1662 31.064 15.2403C31.064 15.2314 31.0617 15.2235 31.0617 15.2149C31.0614 15.0633 31.0592 14.9089 31.0551 14.7516C31.0524 14.6455 31.0443 14.5457 31.0308 14.4522C30.9716 14.0436 30.8663 13.6319 30.715 13.2174C30.5539 12.7755 30.3426 12.3657 30.081 11.9879C29.9746 11.8343 29.8644 11.6824 29.7399 11.5419C29.2381 10.9767 28.6387 10.5516 27.9417 10.2666C27.496 10.0843 27.0067 9.958 26.4738 9.88756C26.3923 9.87674 26.2156 9.87138 25.9437 9.87148C25.8982 9.87148 25.8528 9.86833 25.8079 9.86818C25.2522 9.86758 24.6869 9.86748 24.1119 9.86788C24.1094 9.86787 24.107 9.86869 24.1049 9.8702C24.1029 9.87172 24.1014 9.87385 24.1007 9.87629L22.6674 14.6512C22.6655 14.6575 22.6613 14.6608 22.6547 14.6611C22.5088 14.6669 22.3605 14.6675 22.2098 14.6628C22.2079 14.6627 22.206 14.6622 22.2042 14.6614C22.2025 14.6605 22.2009 14.6593 22.1997 14.6578C22.1985 14.6563 22.1976 14.6545 22.1971 14.6526C22.1966 14.6507 22.1966 14.6488 22.1969 14.6468C22.2473 14.3704 22.2658 14.0972 22.2525 13.8272C22.2492 13.7584 22.2432 13.6786 22.228 13.606C22.1117 13.0516 21.7767 12.602 21.3634 12.2225C21.0436 11.9288 20.6391 11.735 20.2228 11.6645C20.1358 11.6499 20.0402 11.6406 19.9359 11.6367C19.7824 11.631 19.6376 11.6375 19.5015 11.6564C19.2069 11.6971 18.9219 11.8004 18.6465 11.9666C18.5668 12.0147 18.4891 12.0726 18.4134 12.1403C18.1643 12.3636 17.9898 12.6359 17.8898 12.9571C17.8186 13.1861 17.7947 13.4336 17.8022 13.6694C17.8106 13.9372 17.8686 14.1953 17.9761 14.4437C18.0151 14.5337 18.072 14.6387 18.1468 14.7585C18.2528 14.9282 18.3966 15.0759 18.538 15.2212C18.6786 15.3656 18.8196 15.5089 18.961 15.651C19.6254 16.3191 20.3607 17.0549 21.167 17.8585C21.1748 17.8662 21.1842 17.8692 21.195 17.8675C21.5363 17.813 21.8791 17.7889 22.2234 17.7951C22.2468 17.7955 22.2698 17.7912 22.2932 17.7912C22.4647 17.7914 22.6388 17.7914 22.8156 17.7913C22.8179 17.7913 22.8201 17.7907 22.822 17.7894C22.8239 17.7881 22.8254 17.7863 22.8263 17.7841C22.9892 17.3781 23.1204 16.972 23.1356 16.5521C23.1387 16.4664 23.133 16.3818 23.1247 16.2975C23.1134 16.1827 23.0818 16.0738 23.0298 15.9707C22.9598 15.8319 22.8537 15.7278 22.7113 15.6584C22.6637 15.6352 22.6179 15.6141 22.574 15.5948C22.5688 15.5925 22.5662 15.5885 22.5662 15.5828V15.3793C22.5662 15.3743 22.5687 15.3718 22.5737 15.3718H26.6839C26.6889 15.3718 26.6914 15.3743 26.6914 15.3793V15.628C26.6914 15.6343 26.6883 15.6381 26.6821 15.6394C26.5904 15.6589 26.4993 15.6799 26.4089 15.7026C25.9803 15.8102 25.5864 16.029 25.3285 16.385C25.2943 16.4321 25.2677 16.4797 25.2487 16.5279C25.2044 16.6401 25.1623 16.7594 25.1224 16.8859C24.9989 17.278 24.8774 17.6695 24.7579 18.0603C24.757 18.0633 24.7572 18.0665 24.7585 18.0693C24.7599 18.0721 24.7622 18.0743 24.7651 18.0755C25.0105 18.178 25.265 18.2178 25.5285 18.195C25.7231 18.178 25.9257 18.1107 26.0811 18.0104C26.3118 17.8615 26.492 17.6531 26.6367 17.4059C26.6393 17.4013 26.6433 17.3988 26.6487 17.3985C26.7211 17.3946 26.793 17.3955 26.8644 17.4012C26.8674 17.4015 26.8704 17.4024 26.8731 17.4039C26.8758 17.4055 26.8781 17.4076 26.8798 17.4101C26.8816 17.4127 26.8827 17.4155 26.8832 17.4186C26.8837 17.4216 26.8835 17.4247 26.8827 17.4277L25.8497 21.0218C25.8485 21.0262 25.8456 21.0285 25.8411 21.0287C25.7433 21.0349 25.6491 21.0356 25.5584 21.0308C25.5569 21.0307 25.5555 21.0304 25.5542 21.0297C25.5529 21.029 25.5518 21.028 25.5509 21.0268C25.55 21.0256 25.5494 21.0242 25.5491 21.0228C25.5488 21.0213 25.5489 21.0198 25.5492 21.0183C25.6181 20.7439 25.6631 20.4681 25.6842 20.1907C25.7115 19.8334 25.6555 19.43 25.4594 19.1321C25.3566 18.9762 25.2195 18.8609 25.0481 18.7865C24.9279 18.7344 24.8007 18.7004 24.6665 18.6846C24.6421 18.6816 24.6163 18.6842 24.5921 18.6894C24.5866 18.6906 24.5815 18.6932 24.5774 18.697C24.5733 18.7009 24.5702 18.7057 24.5687 18.7111C24.0422 20.4758 23.5228 22.2181 23.0107 23.938C22.8935 24.3314 22.772 24.7449 22.6463 25.1783C22.5948 25.3557 22.5485 25.5285 22.5074 25.6968C22.483 25.7961 22.4916 25.934 22.5244 26.0298C22.5833 26.2019 22.7528 26.337 22.9192 26.395C23.0747 26.4492 23.2358 26.4721 23.4014 26.4848C23.4081 26.4853 23.4115 26.4889 23.4115 26.4957V26.7161C23.4115 26.7224 23.4083 26.7256 23.402 26.7256ZM22.1699 19.8249C22.3201 19.381 22.4661 18.9348 22.5964 18.4859C22.6032 18.4624 22.6029 18.442 22.5955 18.4246C22.5477 18.3122 22.3839 18.2963 22.2764 18.2993C22.1332 18.3035 22.0038 18.3358 21.8619 18.3762C21.8093 18.3913 21.7564 18.4149 21.7032 18.4472C21.5722 18.527 21.7086 18.7506 21.7507 18.8429C21.7887 18.9261 21.8258 19.0444 21.8619 19.1978C21.9176 19.4342 21.9662 19.6452 22.0077 19.831C22.0146 19.8622 22.0269 19.8927 22.0333 19.9246C22.0385 19.9521 22.0577 19.9703 22.0794 19.986C22.082 19.988 22.0852 19.989 22.0885 19.9891C22.0917 19.9892 22.0949 19.9882 22.0976 19.9863C22.1087 19.9787 22.1165 19.9693 22.121 19.9581C22.1371 19.918 22.1534 19.8736 22.1699 19.8249ZM18.5996 20.9708C18.3389 21.3371 18.1097 21.7577 17.9611 22.1908C17.9346 22.2675 17.9031 22.3587 17.8913 22.443C17.8906 22.4482 17.892 22.4528 17.8955 22.4567C17.9116 22.4742 17.9313 22.4843 17.9548 22.487C18.0722 22.5006 18.2087 22.5033 18.3644 22.4952C18.4961 22.4882 18.6271 22.4352 18.7514 22.3755C18.8272 22.3392 18.9003 22.2913 18.9705 22.2319C19.0837 22.1363 19.1797 22.0294 19.2583 21.9113C19.3619 21.7555 19.4521 21.5626 19.529 21.3324C19.5598 21.2399 19.5784 21.1474 19.5849 21.0547C19.5961 20.8922 19.5988 20.7269 19.593 20.5589C19.5906 20.4884 19.584 20.4178 19.5731 20.3472C19.5527 20.2146 19.5297 20.1022 19.4516 19.993C19.451 19.9922 19.4504 19.9916 19.4496 19.9911C19.4488 19.9907 19.4479 19.9904 19.4471 19.9903C19.4462 19.9902 19.4453 19.9903 19.4444 19.9906C19.4436 19.9909 19.4429 19.9914 19.4422 19.9921C19.2742 20.1596 19.1103 20.3356 18.9505 20.52C18.8274 20.662 18.7072 20.82 18.5996 20.9708Z" fill="black"/>
<path d="M23.4114 26.7166V26.4962C23.4114 26.4895 23.408 26.4859 23.4013 26.4854C23.2357 26.4726 23.0746 26.4497 22.919 26.3955C22.7527 26.3375 22.5832 26.2024 22.5242 26.0303C22.4915 25.9346 22.4829 25.7966 22.5073 25.6973C22.5483 25.5291 22.5946 25.3562 22.6461 25.1788C22.7719 24.7454 22.8933 24.332 23.0106 23.9385C23.5227 22.2186 24.042 20.4763 24.5685 18.7116C24.5701 18.7062 24.5731 18.7014 24.5773 18.6976C24.5814 18.6938 24.5865 18.6911 24.592 18.6899C24.6162 18.6847 24.642 18.6821 24.6664 18.6851C24.8006 18.701 24.9278 18.7349 25.0479 18.787C25.2194 18.8615 25.3565 18.9767 25.4593 19.1327C25.6554 19.4305 25.7114 19.8339 25.6841 20.1913C25.6629 20.4686 25.6179 20.7444 25.5491 21.0189C25.5488 21.0203 25.5487 21.0218 25.549 21.0233C25.5493 21.0247 25.5499 21.0261 25.5508 21.0273C25.5517 21.0285 25.5528 21.0295 25.5541 21.0302C25.5554 21.0309 25.5568 21.0313 25.5583 21.0313C25.649 21.0361 25.7432 21.0354 25.841 21.0292C25.8455 21.029 25.8483 21.0267 25.8495 21.0223L26.8826 17.4282C26.8834 17.4252 26.8836 17.4221 26.8831 17.4191C26.8826 17.4161 26.8814 17.4132 26.8797 17.4107C26.8779 17.4081 26.8756 17.406 26.873 17.4045C26.8703 17.4029 26.8673 17.402 26.8642 17.4017C26.7929 17.396 26.721 17.3951 26.6486 17.399C26.6432 17.3993 26.6392 17.4018 26.6366 17.4064C26.4918 17.6536 26.3116 17.862 26.081 18.011C25.9256 18.1112 25.723 18.1785 25.5284 18.1955C25.2649 18.2184 25.0104 18.1785 24.7649 18.076C24.7621 18.0749 24.7597 18.0727 24.7584 18.0699C24.7571 18.067 24.7568 18.0638 24.7577 18.0609C24.8773 17.67 24.9988 17.2785 25.1223 16.8864C25.1622 16.76 25.2043 16.6407 25.2486 16.5284C25.2676 16.4803 25.2942 16.4326 25.3284 16.3855C25.5862 16.0295 25.9801 15.8107 26.4087 15.7031C26.4992 15.6805 26.5903 15.6594 26.6819 15.64C26.6882 15.6387 26.6913 15.6349 26.6913 15.6286V15.3798C26.6913 15.3748 26.6888 15.3723 26.6837 15.3723H22.5735C22.5685 15.3723 22.566 15.3748 22.566 15.3798V15.5833C22.566 15.589 22.5686 15.593 22.5738 15.5953C22.6178 15.6146 22.6636 15.6358 22.7112 15.6589C22.8536 15.7283 22.9597 15.8324 23.0296 15.9712C23.0816 16.0743 23.1133 16.1832 23.1246 16.2981C23.1329 16.3824 23.1386 16.467 23.1354 16.5526C23.1203 16.9725 22.9891 17.3786 22.8262 17.7846C22.8253 17.7868 22.8238 17.7886 22.8219 17.7899C22.82 17.7912 22.8178 17.7919 22.8155 17.7919C22.6387 17.792 22.4645 17.7919 22.2931 17.7917C22.2697 17.7917 22.2467 17.7961 22.2232 17.7956C21.879 17.7894 21.5362 17.8136 21.1949 17.8681C21.184 17.8698 21.1747 17.8668 21.1669 17.859C20.3606 17.0554 19.6253 16.3196 18.9609 15.6515C18.8195 15.5094 18.6784 15.3661 18.5379 15.2217C18.3965 15.0764 18.2526 14.9287 18.1467 14.759C18.0718 14.6392 18.0149 14.5343 17.976 14.4442C17.8685 14.1958 17.8105 13.9377 17.8021 13.6699C17.7946 13.4341 17.8185 13.1866 17.8897 12.9576C17.9897 12.6364 18.1642 12.3641 18.4133 12.1408C18.4889 12.0731 18.5666 12.0152 18.6464 11.9671C18.9218 11.801 19.2068 11.6976 19.5013 11.6569C19.6375 11.6381 19.7823 11.6315 19.9358 11.6372C20.0401 11.6411 20.1357 11.6504 20.2227 11.665C20.639 11.7355 21.0435 11.9294 21.3633 12.223C21.7766 12.6025 22.1116 13.0521 22.2279 13.6065C22.2431 13.6791 22.2491 13.7589 22.2524 13.8277C22.2657 14.0977 22.2472 14.3709 22.1968 14.6474C22.1964 14.6493 22.1965 14.6513 22.197 14.6531C22.1975 14.655 22.1984 14.6568 22.1996 14.6583C22.2008 14.6598 22.2024 14.661 22.2041 14.6619C22.2058 14.6628 22.2078 14.6632 22.2097 14.6633C22.3604 14.668 22.5087 14.6675 22.6545 14.6616C22.6612 14.6613 22.6654 14.658 22.6673 14.6517L24.1006 9.87682C24.1013 9.87438 24.1028 9.87225 24.1048 9.87073C24.1069 9.86922 24.1093 9.8684 24.1118 9.8684C24.6868 9.868 25.2521 9.8681 25.8078 9.86871C25.8527 9.86886 25.8981 9.87201 25.9436 9.87201C26.2155 9.87191 26.3922 9.87727 26.4737 9.88809C27.0066 9.95852 27.4959 10.0849 27.9416 10.2671C28.6386 10.5521 29.238 10.9772 29.7397 11.5424C29.8643 11.6829 29.9745 11.8348 30.0809 11.9884C30.3425 12.3662 30.5538 12.7761 30.7149 13.2179C30.8662 13.6325 30.9714 14.0441 31.0306 14.4528C31.0442 14.5462 31.0523 14.646 31.055 14.7521C31.0591 14.9094 31.0613 15.0638 31.0616 15.2154C31.0616 15.224 31.0639 15.232 31.0639 15.2408C31.0683 16.1668 31.0697 17.0993 31.0681 18.0385C31.0681 18.0753 31.0726 18.112 31.0726 18.1488C31.0722 19.5664 31.072 20.9841 31.072 22.4018C31.072 22.4194 31.0719 22.4369 31.0718 22.4544C31.0692 23.2526 31.0678 24.0027 31.0675 24.7048C31.0675 24.7206 31.0674 24.7368 31.0673 24.7537C31.0651 24.9754 31.0634 25.167 31.0621 25.3285C31.062 25.3462 31.0619 25.3637 31.0619 25.3809C31.0619 25.5395 31.0592 25.695 31.0538 25.8473C31.0505 25.9407 31.0414 26.0396 31.0266 26.1438C30.9924 26.3838 30.9332 26.6499 30.849 26.9419C30.6612 27.5928 30.3782 28.1792 29.9999 28.7011C29.9395 28.7845 29.8786 28.8626 29.8173 28.9356C29.3074 29.5421 28.6891 29.9946 27.9623 30.2931C27.676 30.4106 27.397 30.5003 27.1253 30.5622C26.966 30.5986 26.7878 30.6372 26.5907 30.6782C26.5417 30.6883 26.4883 30.6934 26.4305 30.6934C24.9457 30.6936 23.461 30.6942 21.9762 30.6951C19.6067 30.6966 17.2373 30.6976 14.8678 30.6982C14.8494 30.6982 14.8312 30.6933 14.8125 30.6934C14.4214 30.6954 14.0476 30.6905 13.6717 30.6878C13.5849 30.6872 13.499 30.6799 13.4142 30.6658C12.9719 30.5922 12.587 30.4962 12.2594 30.3777C12.0752 30.3109 11.8719 30.2205 11.6497 30.1064C11.4178 29.9873 11.1971 29.851 10.9877 29.6975C10.7259 29.5056 10.4894 29.2779 10.2749 29.0394C10.1925 28.9477 10.1123 28.8485 10.0343 28.7417C9.60332 28.1506 9.29715 27.5047 9.11581 26.8041C9.06311 26.6006 9.01447 26.3839 8.96988 26.154C8.95966 26.1008 8.9545 26.0458 8.9544 25.989C8.9541 25.6393 8.954 25.2939 8.9541 24.9528C8.9541 24.9405 8.9541 24.9279 8.9541 24.9152C8.9513 23.6448 8.9499 22.3612 8.9499 21.0642C8.9499 21.0333 8.94985 21.002 8.94975 20.9703C8.94774 19.4025 8.94659 17.7231 8.94629 15.9321C8.94629 15.915 8.94639 15.8975 8.94659 15.8795C8.9495 15.6341 8.9517 15.3886 8.9532 15.1431C8.9533 15.1162 8.9533 15.0886 8.9532 15.0605C8.9529 14.9511 8.9538 14.8408 8.95591 14.7297C8.95791 14.6247 8.96618 14.525 8.9807 14.4307C9.06216 13.9027 9.20277 13.4048 9.40254 12.9372C9.62977 12.4052 9.93399 11.9219 10.3152 11.4872C10.3813 11.4119 10.4515 11.3387 10.5256 11.2675C11.0835 10.7326 11.7394 10.3483 12.4932 10.1144C12.7425 10.0372 13.0192 9.9715 13.3234 9.9174C13.4229 9.89966 13.5214 9.88979 13.6189 9.88779C13.9863 9.88013 14.3618 9.87847 14.7252 9.87983C14.7557 9.87998 14.7859 9.87577 14.8152 9.87577C15.2736 9.87567 15.732 9.87562 16.1903 9.87562C16.2123 9.87562 16.2348 9.87562 16.2579 9.87562C17.6145 9.87301 18.8831 9.87181 20.0638 9.87201C20.0776 9.87201 20.0913 9.87196 20.1052 9.87186C21.1309 9.86946 22.2301 9.86825 23.4029 9.86825C23.408 9.86825 23.4107 9.87076 23.4111 9.87577C23.4131 9.90092 23.4128 9.92546 23.4102 9.94941C23.3637 10.3756 23.2651 10.7788 23.043 11.1374C22.8611 11.4309 22.6059 11.6232 22.2773 11.7143C22.2391 11.7249 22.1943 11.7317 22.143 11.7348C21.9629 11.7453 21.7641 11.7614 21.5967 11.7044C21.4529 11.6553 21.2864 11.594 21.0972 11.5206C20.8056 11.4074 20.536 11.3102 20.2884 11.2291C20.1886 11.1963 20.0887 11.1708 19.9887 11.1526C19.7864 11.1156 19.5867 11.0938 19.3895 11.087C19.1288 11.078 18.8587 11.0825 18.6004 11.119C18.0873 11.1913 17.6123 11.3586 17.1753 11.621C16.8398 11.8224 16.5211 12.093 16.2815 12.4037C16.2262 12.4754 16.1729 12.5576 16.1216 12.6504C15.9504 12.9602 15.8287 13.2726 15.7566 13.5876C15.7359 13.6779 15.7208 13.7658 15.7165 13.8602C15.7074 14.0583 15.7072 14.264 15.7159 14.4775C15.7184 14.5399 15.7249 14.6001 15.7356 14.6582C15.8418 15.2425 16.1162 15.8033 16.4883 16.2579C16.51 16.2843 16.5513 16.3293 16.6123 16.3929C17.2068 17.0119 17.8156 17.6269 18.4223 18.246C18.513 18.3386 18.6024 18.4319 18.6907 18.5258C18.7293 18.5669 18.7636 18.6087 18.7938 18.6512C18.7958 18.654 18.7973 18.6573 18.7981 18.6607C18.7989 18.6641 18.799 18.6677 18.7984 18.6711C18.7978 18.6746 18.7965 18.6779 18.7946 18.6808C18.7927 18.6838 18.7902 18.6863 18.7873 18.6883C18.6362 18.7934 18.4805 18.9022 18.3204 19.0149C17.8372 19.3547 17.391 19.7229 16.9817 20.1194C16.6991 20.3933 16.4407 20.6819 16.2066 20.985C16.0507 21.1869 15.918 21.3878 15.8086 21.5877C15.7425 21.7087 15.6833 21.8331 15.6171 21.9535C15.5582 22.0608 15.4294 22.092 15.3182 22.0534C15.1278 21.9873 14.958 21.883 14.8116 21.7396C14.5768 21.5097 14.4064 21.2354 14.3005 20.9167C14.278 20.8485 14.2649 20.7817 14.2612 20.716C14.2466 20.4526 14.2697 20.1965 14.3309 19.9362C14.3883 19.6919 14.4577 19.4486 14.539 19.2063C14.5423 19.1966 14.5389 19.1912 14.5287 19.1901C14.5047 19.1877 14.4812 19.1863 14.458 19.186C14.3591 19.1847 14.2518 19.1862 14.1361 19.1905C14.1311 19.1907 14.1279 19.1932 14.1265 19.1979L12.9768 23.003C12.9762 23.0051 12.9761 23.0072 12.9764 23.0093C12.9768 23.0115 12.9776 23.0135 12.9789 23.0152C12.9801 23.0169 12.9817 23.0183 12.9836 23.0193C12.9855 23.0203 12.9876 23.0209 12.9898 23.0209L13.3822 23.0292C13.387 23.0293 13.3904 23.0272 13.3924 23.0229C13.5586 22.655 13.9066 22.4278 14.3016 22.3676C14.498 22.3378 14.6949 22.3386 14.8922 22.3702C14.9938 22.3864 15.1078 22.422 15.1938 22.4855C15.2813 22.5498 15.3176 22.6378 15.3028 22.7497C15.286 22.8753 15.2621 23.004 15.2309 23.1357C15.2021 23.2576 15.1799 23.3875 15.1645 23.5254C15.1423 23.7236 15.1314 23.968 15.1319 24.2586C15.132 24.3635 15.1367 24.467 15.1462 24.569C15.2087 25.2527 15.3917 25.8925 15.6953 26.4887C15.8462 26.785 16.0415 27.0936 16.2673 27.3532C16.4745 27.5916 16.6976 27.8111 16.9366 28.0118C17.0159 28.0783 17.0953 28.14 17.175 28.1968C17.8407 28.672 18.5926 28.982 19.3999 29.145C19.5536 29.176 19.7025 29.1957 19.8467 29.2043C20.1709 29.2234 20.4834 29.2207 20.7843 29.1963C20.8914 29.1875 21.0397 29.165 21.2293 29.129C21.699 29.0396 22.1444 28.8858 22.5654 28.6676C23.0047 28.4399 23.3995 28.159 23.7498 27.825C23.9964 27.59 24.2201 27.3361 24.421 27.063C24.4214 27.0624 24.4217 27.0617 24.4217 27.061C24.4218 27.0602 24.4216 27.0595 24.4213 27.0588C24.421 27.0581 24.4204 27.0576 24.4198 27.0572C24.4191 27.0568 24.4184 27.0566 24.4176 27.0566L24.0918 27.0567C24.0873 27.0567 24.0837 27.0586 24.081 27.0623C24.0478 27.1078 24.0141 27.1547 23.9764 27.1971C23.7863 27.4097 23.6079 27.5861 23.4413 27.7264C23.1942 27.9344 22.91 28.1202 22.5886 28.2838C22.5034 28.3271 22.4098 28.3686 22.3078 28.4084C21.8774 28.5761 21.4364 28.6871 20.9975 28.6939C20.8231 28.6967 20.6344 28.6795 20.4314 28.6424C20.262 28.6113 20.1054 28.5742 19.9615 28.531C19.4977 28.3916 19.0914 28.1818 18.7426 27.9016C18.4144 27.6379 18.1508 27.3157 17.9516 26.9349C17.7367 26.5241 17.6144 26.0795 17.5558 25.6164C17.5429 25.5147 17.5345 25.4143 17.5308 25.3151C17.5168 24.9407 17.5223 24.6122 17.5472 24.3296C17.581 23.9465 17.6492 23.5294 17.7517 23.0783C17.7528 23.0736 17.7556 23.0694 17.7596 23.0666C17.7754 23.0554 17.7932 23.0495 17.8129 23.0489C17.9235 23.0456 18.0389 23.0436 18.1592 23.0429C18.6302 23.0399 19.0929 22.969 19.5472 22.8302C20.1615 22.6424 20.7344 22.3117 21.1837 21.8522C21.2951 21.7384 21.3877 21.612 21.4888 21.4906C21.5184 21.4551 21.589 21.3758 21.6389 21.432C21.6588 21.4543 21.6739 21.483 21.6842 21.5179C21.6921 21.545 21.6911 21.5779 21.6813 21.6165C21.6555 21.7187 21.6291 21.8156 21.6023 21.907C21.2733 23.0277 20.929 24.1465 20.5873 25.2424C20.5313 25.4221 20.4725 25.6032 20.4108 25.7857C20.4067 25.7977 20.4011 25.8094 20.3939 25.8208C20.2438 26.06 20.0337 26.233 19.7637 26.34C19.599 26.4054 19.4085 26.4533 19.192 26.4837C19.1846 26.4848 19.1809 26.4891 19.1809 26.4965V26.7186C19.1809 26.7236 19.1834 26.7261 19.1884 26.7261H23.4019C23.4082 26.7261 23.4114 26.723 23.4114 26.7166Z" fill="white"/>
<path d="M22.1696 19.8248C22.1532 19.8735 22.1369 19.9179 22.1208 19.958C22.1163 19.9692 22.1085 19.9786 22.0973 19.9862C22.0947 19.9881 22.0915 19.989 22.0882 19.989C22.085 19.9889 22.0818 19.9878 22.0791 19.9859C22.0575 19.9701 22.0383 19.952 22.033 19.9245C22.0267 19.8926 22.0144 19.8621 22.0075 19.8308C21.966 19.6451 21.9174 19.434 21.8617 19.1977C21.8255 19.0443 21.7885 18.926 21.7505 18.8427C21.7084 18.7505 21.5719 18.5268 21.703 18.447C21.7562 18.4148 21.8091 18.3911 21.8617 18.3761C22.0036 18.3357 22.1329 18.3034 22.2762 18.2992C22.3836 18.2961 22.5474 18.3121 22.5952 18.4245C22.6026 18.4418 22.6029 18.4623 22.5961 18.4858C22.4658 18.9347 22.3199 19.3809 22.1696 19.8248Z" fill="white"/>
<path d="M17.9605 22.1908C18.1092 21.7577 18.3383 21.337 18.5991 20.9708C18.7067 20.8199 18.8269 20.662 18.95 20.5199C19.1098 20.3355 19.2737 20.1595 19.4417 19.992C19.4423 19.9914 19.4431 19.9909 19.4439 19.9906C19.4447 19.9903 19.4456 19.9902 19.4465 19.9903C19.4474 19.9903 19.4483 19.9906 19.4491 19.9911C19.4498 19.9915 19.4505 19.9922 19.451 19.9929C19.5292 20.1022 19.5522 20.2146 19.5726 20.3471C19.5834 20.4178 19.59 20.4883 19.5924 20.5589C19.5983 20.7269 19.5955 20.8921 19.5843 21.0546C19.5779 21.1473 19.5593 21.2399 19.5284 21.3324C19.4516 21.5625 19.3614 21.7555 19.2578 21.9113C19.1791 22.0294 19.0832 22.1362 18.97 22.2318C18.8997 22.2912 18.8267 22.3391 18.7509 22.3755C18.6266 22.4351 18.4955 22.4882 18.3639 22.4951C18.2082 22.5032 18.0716 22.5005 17.9542 22.487C17.9308 22.4843 17.911 22.4742 17.895 22.4566C17.8915 22.4527 17.8901 22.4482 17.8908 22.4429C17.9025 22.3586 17.9341 22.2674 17.9605 22.1908Z" fill="white"/>
</g>
<circle cx="20" cy="20" r="19.5" stroke="black" stroke-opacity="0.05"/>
<defs>
<clipPath id="clip0_9_410150">
<rect width="24" height="22.5723" fill="white" transform="translate(8 9)"/>
</clipPath>
</defs>
</svg>
