<svg width="40" height="40" viewBox="0 0 40 40" fill="none" xmlns="http://www.w3.org/2000/svg">
<circle cx="20" cy="20" r="20" fill="#0C5AA5"/>
<g clip-path="url(#clip0_9_396389)">
<path d="M3.23742 21.3459C3.31599 21.4659 3.42599 21.5616 3.55671 21.6216C3.68242 21.6802 3.81956 21.7102 3.95814 21.7109C4.03814 21.7102 4.11742 21.698 4.19385 21.6752C4.2724 21.6518 4.34634 21.6151 4.41242 21.5666C4.47778 21.5192 4.53273 21.4589 4.57385 21.3894C4.61648 21.3149 4.63797 21.2302 4.63599 21.1444C4.63964 21.0882 4.63025 21.0319 4.60857 20.9798C4.58689 20.9278 4.5535 20.8815 4.51099 20.8444C4.41789 20.7701 4.31315 20.7117 4.20099 20.6716C4.06808 20.6221 3.93348 20.5773 3.79742 20.5373C3.65515 20.4958 3.51915 20.4353 3.39314 20.3573C3.26784 20.2785 3.16189 20.1726 3.08314 20.0473C2.99228 19.8878 2.9489 19.7056 2.95814 19.5223C2.96385 19.2866 3.06028 19.0637 3.22814 18.8987C3.33099 18.7987 3.45314 18.7202 3.58599 18.6659C3.75314 18.5994 3.93242 18.5673 4.11242 18.5723C4.29314 18.5716 4.47314 18.5973 4.64599 18.6487C4.82314 18.7052 4.97885 18.8137 5.09314 18.9609L4.71814 19.3016C4.65714 19.209 4.57258 19.1343 4.47314 19.0852C4.36141 19.0295 4.23793 19.0016 4.11314 19.0037C4.00429 19.0004 3.89577 19.0173 3.79314 19.0537C3.71659 19.0821 3.64695 19.1264 3.58885 19.1837C3.54062 19.2319 3.50377 19.2902 3.48099 19.3544C3.46134 19.4083 3.45072 19.465 3.44956 19.5223C3.44553 19.5833 3.45459 19.6444 3.47616 19.7016C3.49772 19.7587 3.53127 19.8106 3.57456 19.8537C3.66528 19.9344 3.77028 19.998 3.88456 20.0409C4.01671 20.0909 4.15171 20.1344 4.28814 20.1702C4.42956 20.2066 4.56528 20.2609 4.69242 20.3309C4.81528 20.3994 4.92099 20.4952 5.00242 20.6094C5.09314 20.753 5.13671 20.9223 5.12742 21.0916C5.12966 21.2442 5.09743 21.3953 5.03314 21.5337C4.97372 21.6607 4.88773 21.7735 4.78099 21.8644C4.67028 21.9573 4.54314 22.0266 4.40599 22.0709C4.25705 22.1194 4.10122 22.1436 3.94456 22.1423C3.73254 22.1437 3.52217 22.1049 3.32456 22.028C3.13713 21.9578 2.97462 21.8338 2.85742 21.6716L3.23742 21.3452V21.3459ZM8.12385 19.393C8.02784 19.2684 7.90243 19.1695 7.75885 19.1052C7.61599 19.0387 7.45957 19.0052 7.30171 19.0052C7.12813 19.0017 6.95586 19.0359 6.79679 19.1055C6.63771 19.175 6.49561 19.2782 6.38028 19.408C6.2677 19.5367 6.18046 19.6855 6.12314 19.8466C6.06171 20.0202 6.03028 20.203 6.03242 20.3866C6.03099 20.5602 6.06028 20.7323 6.11814 20.8952C6.17314 21.0509 6.25814 21.1952 6.36814 21.318C6.47885 21.4409 6.61528 21.5394 6.76742 21.6059C6.93528 21.6787 7.11742 21.7144 7.30099 21.7116C7.47957 21.7152 7.65671 21.6744 7.81528 21.5916C7.9644 21.51 8.09271 21.3951 8.19028 21.2559L8.57957 21.5487C8.53809 21.6016 8.49324 21.6517 8.44528 21.6987C8.36912 21.7742 8.28424 21.8404 8.19242 21.8959C8.07219 21.9681 7.94394 22.0261 7.81028 22.0687C7.64299 22.121 7.46839 22.1461 7.29314 22.143C7.04242 22.1466 6.79314 22.0937 6.56456 21.9887C6.26046 21.8451 6.00319 21.6184 5.82245 21.3348C5.64171 21.0511 5.54488 20.7222 5.54314 20.3859C5.54064 20.1375 5.58474 19.8908 5.67314 19.6587C5.75457 19.4444 5.87814 19.2487 6.03599 19.083C6.19457 18.9187 6.38528 18.7909 6.59599 18.7059C7.03945 18.529 7.53359 18.5275 7.97814 18.7016C8.18885 18.783 8.37242 18.9209 8.51028 19.0994L8.12385 19.393ZM9.10457 18.5716H9.57742V20.0544H11.386V18.5716H11.8589V22.143H11.386V20.5087H9.57742V22.143H9.10457V18.5716ZM12.6324 18.5723H13.8589C14.0474 18.5659 14.2346 18.598 14.411 18.6652C14.541 18.7173 14.6581 18.7987 14.7539 18.9023C14.8353 18.9952 14.8953 19.1052 14.9281 19.2252C14.9603 19.338 14.9767 19.4537 14.9781 19.5709C14.9791 19.7425 14.9329 19.9112 14.8448 20.0585C14.7567 20.2058 14.6298 20.3262 14.4781 20.4066C14.3676 20.4661 14.2461 20.5026 14.121 20.5137L15.1103 22.143H14.5189L13.6317 20.5694H13.1046V22.143H12.6317L12.6324 18.5723ZM13.1053 20.1459H13.7267C13.8174 20.1459 13.9089 20.1387 13.9996 20.123C14.0844 20.1101 14.1662 20.0821 14.241 20.0402C14.3126 19.9988 14.3714 19.9385 14.411 19.8659C14.4533 19.7733 14.4753 19.6727 14.4753 19.5709C14.4753 19.4691 14.4533 19.3684 14.411 19.2759C14.3713 19.2035 14.3125 19.1435 14.241 19.1023C14.1661 19.0605 14.0843 19.0325 13.9996 19.0194C13.9092 19.0042 13.8177 18.9966 13.726 18.9966H13.1046L13.1053 20.1459ZM17.0767 22.143C16.8311 22.1456 16.5875 22.099 16.3603 22.0059C16.15 21.92 15.9594 21.7921 15.8004 21.63C15.6413 21.4679 15.5171 21.2749 15.4353 21.063C15.259 20.6091 15.259 20.1055 15.4353 19.6516C15.5172 19.4397 15.6416 19.2467 15.8008 19.0846C15.96 18.9224 16.1506 18.7945 16.361 18.7087C16.821 18.5265 17.3331 18.5265 17.7931 18.7087C18.0035 18.7946 18.1941 18.9225 18.3533 19.0846C18.5125 19.2467 18.6369 19.4397 18.7189 19.6516C18.8946 20.1052 18.8946 20.6087 18.7189 21.063C18.6369 21.275 18.5126 21.4679 18.3534 21.6301C18.1942 21.7922 18.0035 21.9201 17.7931 22.0059C17.566 22.0987 17.3217 22.1452 17.0767 22.143ZM17.0767 21.7109C17.3373 21.7156 17.5927 21.638 17.8067 21.4893C18.0207 21.3405 18.1824 21.1282 18.2689 20.8823C18.3906 20.5426 18.3906 20.1712 18.2689 19.8316C18.2115 19.6728 18.1234 19.527 18.0096 19.4023C17.8903 19.2742 17.7459 19.1721 17.5854 19.1023C17.4249 19.0325 17.2517 18.9964 17.0767 18.9964C16.9017 18.9964 16.7285 19.0325 16.568 19.1023C16.4076 19.1721 16.2632 19.2742 16.1439 19.4023C16.0296 19.5266 15.9415 19.6726 15.8846 19.8316C15.7627 20.1715 15.7627 20.5431 15.8846 20.883C15.9708 21.1292 16.1325 21.3418 16.3467 21.4906C16.5609 21.6394 16.8167 21.7168 17.0774 21.7116L17.0767 21.7109ZM19.416 18.5716H20.6331C20.8517 18.568 21.0703 18.5973 21.281 18.6573C21.4524 18.708 21.6153 18.7859 21.7639 18.8873C21.8939 18.9773 22.0089 19.0887 22.1039 19.2173C22.1903 19.3352 22.2624 19.4644 22.3181 19.6009C22.4137 19.842 22.4641 20.0986 22.4667 20.358C22.4667 20.5844 22.4253 20.8094 22.3439 21.0209C22.2591 21.2405 22.1297 21.4402 21.9639 21.6073C21.798 21.7743 21.5993 21.9052 21.3803 21.9916C21.1174 22.0973 20.8367 22.1487 20.5546 22.143H19.416V18.5716ZM19.8896 21.6894H20.4853C20.6781 21.6902 20.8703 21.6623 21.0546 21.6059C21.226 21.5552 21.3853 21.4702 21.5253 21.3559C21.6615 21.2428 21.7708 21.1008 21.8453 20.9402C21.9274 20.758 21.9681 20.5587 21.9639 20.3573C21.961 20.2221 21.9428 20.0877 21.9096 19.9566C21.8712 19.799 21.8017 19.6506 21.7053 19.5202C21.5945 19.3737 21.4522 19.254 21.2889 19.1702C21.0743 19.0656 20.8373 19.0158 20.5989 19.0252H19.8896V21.6894ZM23.496 18.5716H23.0224V22.143H23.496V18.5716ZM24.2696 18.5716H24.8903L26.8117 21.5073H26.8217V18.5716H27.2946V22.143H26.6931L24.7524 19.2073H24.7424V22.143H24.2696V18.5716ZM30.9617 20.1566V21.8309C30.872 21.8851 30.777 21.9301 30.6781 21.9652C30.3558 22.0814 30.0158 22.1416 29.6731 22.143C29.4089 22.1474 29.1465 22.0984 28.9017 21.9987C28.689 21.9124 28.4966 21.7826 28.3367 21.6179C28.1768 21.4531 28.053 21.2568 27.9731 21.0416C27.8914 20.823 27.8502 20.5914 27.8517 20.358C27.849 20.1164 27.8937 19.8767 27.9831 19.6523C28.0652 19.4404 28.1896 19.2475 28.3487 19.0854C28.5079 18.9232 28.6985 18.7953 28.9089 18.7094C29.136 18.6166 29.3796 18.5702 29.6253 18.573C29.8867 18.5644 30.1474 18.6037 30.3946 18.6902C30.5824 18.7616 30.7524 18.8723 30.8946 19.0144L30.5674 19.3644C30.4409 19.2391 30.2882 19.1432 30.1203 19.0837C29.9607 19.0307 29.7935 19.0042 29.6253 19.0052C29.3648 19.0002 29.1093 19.0775 28.8952 19.2259C28.681 19.3744 28.5191 19.5866 28.4324 19.8323C28.3082 20.1756 28.312 20.5523 28.4431 20.893C28.5388 21.1378 28.7072 21.3474 28.9255 21.4936C29.1439 21.6398 29.4018 21.7156 29.6646 21.7109C29.8196 21.7109 29.9753 21.6966 30.1281 21.6652C30.2581 21.64 30.3836 21.5954 30.5003 21.533V20.588H29.746V20.1559H30.9624L30.9617 20.1566ZM31.7774 18.5716H34.0296V19.0259H32.251V20.0902H33.906V20.5437H32.251V21.6894H34.1181V22.143H31.7774V18.5716ZM34.6646 18.5723H35.8917C36.0796 18.5659 36.2674 18.598 36.4431 18.6652C36.5731 18.7173 36.6903 18.7987 36.786 18.9023C36.8674 18.9952 36.9274 19.1052 36.9603 19.2252C36.9924 19.338 37.0089 19.4537 37.0103 19.5709C37.0112 19.798 36.9298 20.0178 36.781 20.1894C36.7043 20.2773 36.6123 20.3506 36.5096 20.4059C36.3991 20.4657 36.2776 20.5024 36.1524 20.5137L37.1431 22.143H36.5517L35.6653 20.5694H35.1381V22.143H34.6646V18.5723ZM35.1381 20.1459H35.7589C35.8503 20.1459 35.9417 20.1387 36.0317 20.123C36.1165 20.11 36.1982 20.0819 36.2731 20.0402C36.345 19.9989 36.4041 19.9386 36.4439 19.8659C36.4861 19.7733 36.508 19.6727 36.508 19.5709C36.508 19.4691 36.4861 19.3685 36.4439 19.2759C36.404 19.2034 36.3449 19.1434 36.2731 19.1023C36.1982 19.0605 36.1165 19.0325 36.0317 19.0194C35.9416 19.0043 35.8503 18.9966 35.7589 18.9966H35.1374V20.1466L35.1381 20.1459Z" fill="white"/>
<path d="M16.7858 17.857C16.7889 17.9057 16.782 17.9546 16.7655 18.0005C16.749 18.0464 16.7232 18.0884 16.6898 18.124C16.6564 18.1596 16.6161 18.188 16.5713 18.2074C16.5265 18.2267 16.4782 18.2367 16.4294 18.2367C16.3806 18.2367 16.3323 18.2267 16.2875 18.2074C16.2427 18.188 16.2024 18.1596 16.169 18.124C16.1356 18.0884 16.1099 18.0464 16.0933 18.0005C16.0768 17.9546 16.0699 17.9057 16.073 17.857C16.0787 17.7664 16.1188 17.6814 16.185 17.6192C16.2512 17.5571 16.3386 17.5225 16.4294 17.5225C16.5202 17.5225 16.6076 17.5571 16.6738 17.6192C16.74 17.6814 16.7801 17.7664 16.7858 17.857ZM18.2144 17.857C18.2175 17.9057 18.2106 17.9546 18.194 18.0005C18.1775 18.0464 18.1518 18.0884 18.1184 18.124C18.085 18.1596 18.0446 18.188 17.9999 18.2074C17.9551 18.2267 17.9068 18.2367 17.858 18.2367C17.8092 18.2367 17.7609 18.2267 17.7161 18.2074C17.6713 18.188 17.631 18.1596 17.5976 18.124C17.5642 18.0884 17.5384 18.0464 17.5219 18.0005C17.5054 17.9546 17.4985 17.9057 17.5016 17.857C17.5073 17.7664 17.5473 17.6814 17.6136 17.6192C17.6798 17.5571 17.7672 17.5225 17.858 17.5225C17.9488 17.5225 18.0362 17.5571 18.1024 17.6192C18.1686 17.6814 18.2087 17.7664 18.2144 17.857Z" fill="#E5823F"/>
</g>
<circle cx="20" cy="20" r="19.5" stroke="black" stroke-opacity="0.05"/>
<defs>
<clipPath id="clip0_9_396389">
<rect width="36" height="6" fill="white" transform="translate(2 17)"/>
</clipPath>
</defs>
</svg>
