<svg width="40" height="40" viewBox="0 0 40 40" fill="none" xmlns="http://www.w3.org/2000/svg">
<circle cx="20" cy="20" r="20" fill="#08090D"/>
<path d="M13.1853 24.5637C13.9865 24.4318 14.6658 23.9825 14.8065 23.1345C14.9434 22.309 14.6882 21.6774 14.0408 21.2397C13.6491 20.9748 13.1777 20.7629 12.6268 20.6042C11.9491 20.4085 11.2514 20.2062 10.5336 19.9973C9.7773 19.7773 8.94456 19.4225 8.33882 18.8774C7.64788 18.2554 7.36777 17.373 7.4197 16.4405C7.47106 15.5208 7.85329 14.7501 8.56641 14.1284C9.87301 12.9887 11.8361 12.823 13.4648 13.1457C14.6985 13.3904 15.745 13.9529 16.6044 14.8334C16.6188 14.8481 16.6192 14.8633 16.6056 14.8789L15.4104 16.2689C15.408 16.2717 15.4051 16.2738 15.4017 16.2753C15.3984 16.2768 15.3948 16.2776 15.3912 16.2776C15.3875 16.2776 15.3839 16.2768 15.3806 16.2753C15.3773 16.2738 15.3743 16.2717 15.3719 16.2689C14.7117 15.5309 13.9089 15.0681 12.9636 14.8806C11.8962 14.6682 9.91619 14.6023 9.49544 15.9392C9.22292 16.8035 9.56955 17.4757 10.3539 17.8866C11.0687 18.2612 11.9598 18.4812 12.7552 18.696C14.4236 19.1453 16.4142 19.8182 16.8168 21.7556C17.2767 23.969 15.9246 25.7501 13.7881 26.2152C11.3582 26.7439 8.73331 26.2123 7.00888 24.3414C7.00337 24.3353 7.00023 24.3275 7.00001 24.3194C6.9998 24.3112 7.00253 24.3033 7.00771 24.297L8.17834 22.8644C8.19507 22.8441 8.21218 22.8439 8.22969 22.8638C9.51976 24.3293 11.1716 24.8959 13.1853 24.5637Z" fill="white"/>
<path d="M20.7452 20.6618V24.3744C20.7452 24.3797 20.7473 24.3847 20.751 24.3884C20.7547 24.3922 20.7598 24.3943 20.765 24.3943H27.6032C27.6085 24.3943 27.6136 24.3963 27.6173 24.4001C27.621 24.4038 27.6231 24.4088 27.6231 24.4141V26.25C27.6231 26.2553 27.621 26.2603 27.6173 26.264C27.6136 26.2677 27.6085 26.2698 27.6032 26.2698H18.8895C18.8869 26.2698 18.8843 26.2693 18.8819 26.2683C18.8795 26.2673 18.8773 26.2659 18.8754 26.264C18.8736 26.2622 18.8721 26.26 18.8711 26.2576C18.8701 26.2552 18.8696 26.2526 18.8696 26.25V13.1595C18.8696 13.1569 18.8701 13.1543 18.8711 13.1519C18.8721 13.1495 18.8736 13.1473 18.8754 13.1455C18.8773 13.1436 18.8795 13.1422 18.8819 13.1412C18.8843 13.1402 18.8869 13.1396 18.8895 13.1396H27.6032C27.6085 13.1396 27.6136 13.1417 27.6173 13.1455C27.621 13.1492 27.6231 13.1542 27.6231 13.1595V14.9948C27.6231 15.0001 27.621 15.0051 27.6173 15.0088C27.6136 15.0125 27.6085 15.0146 27.6032 15.0146L20.765 15.0152C20.7598 15.0152 20.7547 15.0173 20.751 15.021C20.7473 15.0248 20.7452 15.0298 20.7452 15.0351V18.7471C20.7452 18.7524 20.7473 18.7574 20.751 18.7611C20.7547 18.7649 20.7598 18.767 20.765 18.767L26.9759 18.7675C26.9785 18.7675 26.9811 18.7681 26.9835 18.769C26.9859 18.77 26.9881 18.7715 26.9899 18.7733C26.9918 18.7752 26.9932 18.7774 26.9942 18.7798C26.9952 18.7822 26.9958 18.7848 26.9958 18.7874V20.6221C26.9958 20.6274 26.9937 20.6324 26.9899 20.6361C26.9862 20.6399 26.9812 20.6419 26.9759 20.6419H20.765C20.7598 20.6419 20.7547 20.644 20.751 20.6478C20.7473 20.6515 20.7452 20.6565 20.7452 20.6618Z" fill="white"/>
<path d="M31.9767 13.1377H30.1479C30.135 13.1377 30.1245 13.1481 30.1245 13.161V26.2445C30.1245 26.2574 30.135 26.2679 30.1479 26.2679H31.9767C31.9896 26.2679 32.0001 26.2574 32.0001 26.2445V13.161C32.0001 13.1481 31.9896 13.1377 31.9767 13.1377Z" fill="white"/>
<circle cx="20" cy="20" r="19.5" stroke="black" stroke-opacity="0.05"/>
</svg>
