<svg width="40" height="40" viewBox="0 0 40 40" fill="none" xmlns="http://www.w3.org/2000/svg">
<circle cx="20" cy="20" r="20" fill="#19702C"/>
<path d="M17.7994 20.1196C17.3777 19.4876 17.3412 18.8463 17.6901 18.1956C17.8399 17.9169 18.0897 17.6996 18.4394 17.5436C18.4402 17.5432 18.4411 17.543 18.442 17.5431C18.4429 17.5432 18.4438 17.5435 18.4445 17.5441C18.4452 17.5447 18.4457 17.5454 18.446 17.5463C18.4463 17.5471 18.4463 17.5481 18.4461 17.5489C18.4448 17.5578 18.4432 17.5663 18.4414 17.5743C18.441 17.5774 18.4392 17.5801 18.4361 17.5823C17.7214 18.1316 17.4681 19.1523 18.0581 19.8903C18.2614 20.1456 18.7141 20.2463 19.0181 20.2676C20.0054 20.3376 20.8688 19.7643 21.2341 18.8636C21.4914 18.2296 21.5014 17.5083 21.2634 16.8649C20.9434 16.0023 20.3054 15.3849 19.4328 15.0476C19.3448 15.0138 19.3477 15.0009 19.4414 15.0089C19.8246 15.0427 20.1812 15.1345 20.5114 15.2843C22.2921 16.0903 22.7694 18.2589 21.6928 19.8156C20.8888 20.9783 19.2568 21.2789 18.0134 20.7103C17.3632 20.4125 16.8703 19.9285 16.5348 19.2583C16.5312 19.2507 16.533 19.2447 16.5401 19.2403H16.5408C16.5497 19.2345 16.5572 19.2358 16.5634 19.2443C16.615 19.3145 16.6672 19.3836 16.7201 19.4516C16.7894 19.5409 16.8003 19.5343 16.7528 19.4316C16.4012 18.6681 16.4157 17.8892 16.7961 17.0949C17.0819 16.4972 17.4786 15.9683 17.9861 15.5083C17.9914 15.5034 17.9917 15.4983 17.9868 15.4929L17.9761 15.4789C17.9659 15.4665 17.9539 15.4647 17.9401 15.4736C17.309 15.9012 16.8637 16.4669 16.6041 17.1709C16.581 17.2327 16.5672 17.2307 16.5628 17.1649C16.4634 15.6589 17.4214 14.9709 18.8114 15.0009C18.816 15.001 18.8204 15.0024 18.8241 15.0049C18.8279 15.0074 18.8308 15.011 18.8326 15.0152C18.8344 15.0193 18.8349 15.0239 18.8341 15.0284C18.8333 15.0328 18.8312 15.037 18.8281 15.0403C18.577 15.3114 18.4177 15.6376 18.3501 16.0189C18.2901 16.3576 18.2681 16.7176 18.1041 17.0289C17.8874 17.4376 17.4288 17.6816 16.9901 17.8129C16.9726 17.8181 16.957 17.8282 16.9452 17.842C16.9334 17.8559 16.9258 17.8729 16.9234 17.8909C16.8128 18.7109 17.1114 19.6436 17.7808 20.1369C17.8203 20.1663 17.8265 20.1605 17.7994 20.1196Z" fill="white"/>
<path d="M31.854 15.7102C31.8522 17.1142 31.8551 18.4987 31.8627 19.8636C31.866 20.4002 32.2347 20.3729 32.6233 20.4222C32.6509 20.4258 32.6644 20.4413 32.664 20.4689L32.662 20.6716C32.6616 20.7045 32.6449 20.7209 32.612 20.7209L29.9787 20.7242C29.9678 20.7242 29.9574 20.72 29.9497 20.7124C29.9419 20.7048 29.9375 20.6944 29.9373 20.6836L29.934 20.4722C29.9336 20.4389 29.95 20.4216 29.9833 20.4202C30.208 20.4102 30.5987 20.3896 30.6807 20.1382C30.7211 20.0142 30.7411 19.8625 30.7407 19.6829C30.734 18.218 30.7327 16.8909 30.7367 15.7016C30.7367 15.6911 30.7326 15.681 30.7252 15.6735C30.7178 15.666 30.7078 15.6617 30.6973 15.6616C30.3727 15.6556 29.9753 15.6356 29.6773 15.7556C29.372 15.8782 29.23 16.3636 29.1607 16.6642C29.1513 16.706 29.1253 16.7265 29.0827 16.7256L28.906 16.7216C28.8647 16.7207 28.8451 16.6993 28.8473 16.6576L28.936 15.1676C28.937 15.1493 28.9428 15.1317 28.9528 15.1164C28.9628 15.1012 28.9766 15.0888 28.9929 15.0805C29.0092 15.0723 29.0273 15.0685 29.0455 15.0695C29.0638 15.0705 29.0814 15.0763 29.0967 15.0862C29.262 15.1936 29.3327 15.2969 29.5513 15.2969C30.6678 15.2951 31.8373 15.2933 33.06 15.2916C33.1236 15.2916 33.1845 15.2789 33.2427 15.2536C33.39 15.1909 33.42 15.0536 33.6147 15.0809C33.636 15.084 33.6473 15.0962 33.6487 15.1176L33.742 16.6569C33.7447 16.6951 33.7267 16.7149 33.688 16.7162L33.5293 16.7202C33.4716 16.722 33.436 16.6945 33.4227 16.6376C33.3287 16.2262 33.1747 15.7462 32.6827 15.6876C32.432 15.6582 32.1718 15.6493 31.902 15.6609C31.8704 15.6622 31.8544 15.6787 31.854 15.7102Z" fill="white"/>
<path d="M3.77863 20.4917C4.19151 20.4566 4.43507 20.2291 4.50929 19.8091C4.61129 19.2344 4.18929 18.8431 3.73196 18.6044C2.82729 18.1324 1.77329 17.5751 2.15596 16.3104C2.36729 15.6104 3.08063 15.2191 3.78529 15.1791C4.2324 15.1537 4.67685 15.2204 5.11863 15.3791C5.12723 15.3821 5.13485 15.3874 5.14061 15.3944C5.14638 15.4015 5.15007 15.41 5.15129 15.4191L5.29729 16.5031C5.30485 16.5559 5.28285 16.5897 5.23129 16.6044L5.10329 16.6411C5.04996 16.6566 5.01485 16.6379 4.99796 16.5851C4.81463 16.0171 4.40663 15.4037 3.71663 15.5244C3.43307 15.5742 3.23574 15.7246 3.12463 15.9757C2.87263 16.5471 3.24529 16.9751 3.71529 17.2284C4.59063 17.6997 5.69929 18.1404 5.54796 19.3551C5.48729 19.8457 5.18329 20.2664 4.76463 20.5184C4.01929 20.9671 3.03463 20.9197 2.24529 20.5671C2.19196 20.5431 2.15929 20.5022 2.14729 20.4444C2.05574 19.9977 1.98685 19.5671 1.94063 19.1524C1.93973 19.1435 1.9419 19.1346 1.94677 19.1272C1.95163 19.1197 1.95888 19.1143 1.96729 19.1117L2.18196 19.0424C2.19602 19.038 2.21125 19.0393 2.22435 19.046C2.23745 19.0528 2.24737 19.0644 2.25196 19.0784C2.47129 19.7484 2.99729 20.5577 3.77863 20.4917Z" fill="white"/>
<path d="M36.3074 20.4735C36.7674 20.3781 36.9714 19.9601 36.9221 19.5181C36.8741 19.0815 36.4667 18.7748 36.0961 18.5781C35.2221 18.1148 34.2367 17.6035 34.5407 16.3935C34.7267 15.6548 35.4074 15.2421 36.1454 15.1855C36.6094 15.1495 37.0665 15.2137 37.5167 15.3781C37.5284 15.3823 37.5386 15.3897 37.5464 15.3993C37.5542 15.4089 37.5591 15.4205 37.5607 15.4328L37.7067 16.4988C37.7147 16.5553 37.6912 16.5913 37.636 16.6068L37.5094 16.6428C37.4569 16.6575 37.4225 16.6388 37.4061 16.5868C37.2727 16.1681 37.0227 15.7228 36.5887 15.5661C36.1607 15.4115 35.6714 15.5828 35.5134 16.0235C35.3114 16.5881 35.6581 16.9868 36.1334 17.2355C37.0634 17.7228 38.2294 18.2281 37.9194 19.5408C37.7207 20.3821 36.8647 20.8041 36.0641 20.8415C35.6196 20.8624 35.1543 20.7748 34.6681 20.5788C34.5621 20.5355 34.5574 20.4501 34.5334 20.3308C34.4561 19.9473 34.3947 19.5557 34.3494 19.1561C34.3483 19.1464 34.3506 19.1365 34.356 19.1282C34.3613 19.12 34.3693 19.1138 34.3787 19.1108L34.5841 19.0448C34.5993 19.04 34.6159 19.0414 34.6302 19.0488C34.6444 19.0562 34.6552 19.0689 34.6601 19.0841C34.8814 19.7661 35.4607 20.6495 36.3074 20.4735Z" fill="white"/>
<path d="M12.7831 18.4233C12.7724 18.977 12.7773 19.4839 12.7978 19.9439C12.8164 20.3539 13.1464 20.3946 13.4678 20.4219C13.4873 20.4237 13.4971 20.4344 13.4971 20.4539L13.4944 20.6913C13.494 20.7126 13.4829 20.7233 13.4611 20.7233H11.0191C10.9844 20.7233 10.9673 20.7059 10.9678 20.6713L10.9691 20.4679C10.9696 20.4399 10.9836 20.4244 11.0111 20.4213C11.4224 20.3746 11.6844 20.3206 11.6864 19.8326C11.6909 18.6761 11.6924 17.5133 11.6911 16.3439C11.6911 15.7939 11.6124 15.6479 11.0518 15.5886C11.0376 15.5871 11.0245 15.5805 11.0148 15.57C11.0051 15.5594 10.9995 15.5457 10.9991 15.5313L10.9951 15.3519C10.9947 15.3164 11.0122 15.2984 11.0478 15.2979C12.2891 15.2926 13.1702 15.2944 13.6911 15.3033C14.5764 15.3193 15.3918 15.7099 15.4058 16.7239C15.4151 17.3746 14.9624 17.8433 14.3898 18.0659C14.3854 18.0677 14.3814 18.0704 14.3781 18.0738C14.3748 18.0772 14.3723 18.0813 14.3706 18.0857C14.369 18.0902 14.3683 18.095 14.3686 18.0997C14.3689 18.1044 14.3702 18.1091 14.3724 18.1133C14.6831 18.6999 15.0269 19.2688 15.4038 19.8199C15.6393 20.1639 15.8869 20.3959 16.1464 20.5159C16.1753 20.5293 16.1867 20.5515 16.1804 20.5826L16.1464 20.7533C16.142 20.7773 16.1276 20.7895 16.1031 20.7899C15.5271 20.7946 14.7891 20.7266 14.4011 20.2806C14.2647 20.1237 14.136 19.9346 14.0151 19.7133C13.8298 19.3746 13.6456 19.0357 13.4624 18.6966C13.3349 18.4606 13.1211 18.3561 12.8211 18.3833C12.7962 18.3855 12.7836 18.3988 12.7831 18.4233ZM13.7138 15.7573C13.5104 15.6359 12.7838 15.4793 12.7824 15.9026C12.7798 16.5968 12.7796 17.3055 12.7818 18.0286C12.7818 18.0354 12.7845 18.042 12.7893 18.047C12.7942 18.052 12.8008 18.0549 12.8078 18.0553C13.2558 18.0746 13.7164 18.0373 13.9978 17.6393C14.3518 17.1379 14.3118 16.1159 13.7138 15.7573Z" fill="white"/>
<path d="M27.7637 15.9896C27.71 16.1798 27.6806 16.4451 27.6757 16.7856C27.6657 17.5196 27.7031 18.2449 27.6157 18.9509C27.5602 19.4025 27.4186 19.7796 27.1911 20.0823C26.6717 20.7709 25.7511 20.9496 24.9137 20.7869C23.5984 20.5309 23.3397 19.5169 23.3484 18.3569C23.3537 17.6587 23.3548 16.9754 23.3517 16.3069C23.3491 15.7976 23.2444 15.6296 22.7244 15.5943C22.6786 15.5911 22.6546 15.5667 22.6524 15.5209L22.6437 15.3536C22.6415 15.3154 22.6597 15.2963 22.6984 15.2963L25.1204 15.2969C25.1315 15.2969 25.1422 15.3014 25.1501 15.3094C25.158 15.3174 25.1624 15.3283 25.1624 15.3396L25.1611 15.5369C25.1611 15.5511 25.1557 15.5647 25.146 15.5752C25.1362 15.5857 25.1228 15.5923 25.1084 15.5936C24.5617 15.6383 24.4824 15.7843 24.4777 16.3216C24.4704 17.1716 24.4631 17.9849 24.4904 18.6669C24.5197 19.3776 24.8384 20.1756 25.6317 20.2589C26.8291 20.3849 27.2137 19.4229 27.2364 18.4343C27.248 17.9449 27.2506 17.4618 27.2444 16.9849C27.2404 16.6716 27.212 16.3611 27.1591 16.0536C27.0971 15.6923 26.7237 15.6063 26.4144 15.5903C26.3775 15.5885 26.3586 15.5689 26.3577 15.5316L26.3537 15.3469C26.3536 15.3402 26.3548 15.3334 26.3573 15.3271C26.3598 15.3208 26.3635 15.3151 26.3683 15.3102C26.3731 15.3054 26.3788 15.3015 26.3851 15.2989C26.3914 15.2963 26.3982 15.2949 26.4051 15.2949L28.3817 15.2983C28.3908 15.2983 28.3997 15.3001 28.4081 15.3036C28.4164 15.3071 28.424 15.3122 28.4303 15.3186C28.4366 15.3251 28.4416 15.3328 28.4449 15.3412C28.4483 15.3496 28.4499 15.3585 28.4497 15.3676L28.4457 15.5336C28.4453 15.562 28.4311 15.5787 28.4031 15.5836C28.1091 15.6356 27.8491 15.6869 27.7637 15.9896Z" fill="white"/>
<path d="M7.83454 18.5142C7.8292 19.0586 7.83387 19.5357 7.84854 19.9455C7.8652 20.4075 8.26387 20.3982 8.60854 20.4295C8.62454 20.4308 8.63254 20.4395 8.63254 20.4555L8.6332 20.6875C8.6332 20.7111 8.62143 20.7228 8.59787 20.7228H6.0852C6.05054 20.7228 6.0332 20.7055 6.0332 20.6708V20.4722C6.0332 20.4393 6.04965 20.4226 6.08254 20.4222C6.66454 20.4128 6.73587 20.1935 6.7352 19.6568C6.73343 18.5946 6.73365 17.5655 6.73587 16.5695C6.73631 16.3922 6.73076 16.2091 6.7192 16.0202C6.69654 15.6662 6.42787 15.6222 6.14854 15.5908C6.13082 15.5891 6.11436 15.5808 6.10222 15.5677C6.09007 15.5546 6.08308 15.5375 6.08254 15.5195L6.07787 15.3502C6.07769 15.3431 6.07892 15.3361 6.08148 15.3295C6.08404 15.3229 6.08788 15.3169 6.09278 15.3118C6.09768 15.3067 6.10354 15.3027 6.11002 15.2999C6.1165 15.2971 6.12348 15.2956 6.13054 15.2955C7.03631 15.2924 7.86409 15.2939 8.61387 15.3002C9.69787 15.3095 10.5719 15.8555 10.4425 17.0782C10.3465 17.9848 9.6232 18.4682 8.75987 18.5842C8.43654 18.6275 8.1912 18.5522 7.8892 18.4728C7.8532 18.4631 7.83498 18.4768 7.83454 18.5142ZM9.15587 16.2435C8.9852 15.7895 8.55587 15.5655 8.0752 15.6342C7.91431 15.6573 7.83387 15.7531 7.83387 15.9215C7.83476 16.6251 7.83454 17.3422 7.8332 18.0728C7.8332 18.1119 7.85209 18.1377 7.88987 18.1502C8.11209 18.2235 8.32031 18.2326 8.51454 18.1775C9.2992 17.9535 9.3832 16.8475 9.15587 16.2435Z" fill="white"/>
<path d="M35.5475 22.2264C35.5416 22.2269 35.5362 22.2296 35.5322 22.2339C35.5283 22.2382 35.5261 22.2439 35.5261 22.2498C35.5275 22.8684 35.5286 23.486 35.5295 24.1024C35.5295 24.3931 35.6668 24.3491 35.8735 24.4064C35.8992 24.4135 35.9121 24.4302 35.9121 24.4564C35.9121 24.4786 35.9039 24.4964 35.8875 24.5098C35.8764 24.5186 35.8637 24.5233 35.8495 24.5238C35.481 24.5246 35.1192 24.5246 34.7641 24.5238C34.7335 24.5233 34.7159 24.508 34.7115 24.4778C34.7106 24.4724 34.7106 24.4669 34.7115 24.4611C34.7186 24.4131 34.7464 24.39 34.7948 24.3918C35.1328 24.4051 35.0901 24.1518 35.0901 23.8798C35.0897 23.3371 35.089 22.7964 35.0881 22.2578C35.0881 22.2386 35.0786 22.2282 35.0595 22.2264C34.8548 22.2104 34.5301 22.1884 34.4361 22.4071C34.4024 22.4853 34.3735 22.5666 34.3495 22.6511C34.3424 22.6764 34.3264 22.6935 34.3015 22.7024C34.2766 22.7113 34.255 22.708 34.2368 22.6924C34.2252 22.6822 34.2199 22.6693 34.2208 22.6538L34.2561 22.0031C34.2564 21.9971 34.2582 21.9912 34.2615 21.9862C34.2647 21.9811 34.2692 21.9769 34.2745 21.9741C34.2798 21.9713 34.2858 21.9699 34.2918 21.97C34.2978 21.9702 34.3037 21.972 34.3088 21.9751C34.3801 22.0178 34.4435 22.0678 34.5308 22.0678C35.0624 22.0673 35.5772 22.0666 36.0755 22.0658C36.1641 22.0651 36.2301 22.0218 36.2995 21.9731C36.3049 21.9694 36.3112 21.9673 36.3178 21.9669C36.3243 21.9664 36.3309 21.9678 36.3367 21.9707C36.3426 21.9736 36.3476 21.978 36.3513 21.9834C36.3549 21.9889 36.357 21.9952 36.3575 22.0018L36.3955 22.6618C36.3961 22.67 36.3938 22.6782 36.389 22.6849C36.3843 22.6916 36.3774 22.6964 36.3695 22.6984C36.345 22.7051 36.3224 22.7029 36.3015 22.6918C36.2801 22.6802 36.2666 22.662 36.2608 22.6371C36.2248 22.4858 36.1595 22.2731 35.9835 22.2431C35.8404 22.2191 35.695 22.2135 35.5475 22.2264Z" fill="white"/>
<path d="M19.3097 24.3886C19.408 24.3494 19.4715 24.2757 19.5004 24.1672C19.568 23.9148 19.4784 23.7208 19.2317 23.5852C19.0633 23.4928 18.9062 23.3992 18.7604 23.3046C18.3671 23.0499 18.2811 22.5332 18.6404 22.2159C18.9304 21.9606 19.3604 21.9719 19.7197 22.0912C19.7433 22.0988 19.7566 22.115 19.7597 22.1399L19.8197 22.5979C19.8213 22.6093 19.8194 22.6209 19.8143 22.6311C19.8092 22.6414 19.8011 22.6498 19.7911 22.6552C19.7666 22.6694 19.7431 22.6697 19.7204 22.6559C19.7009 22.6439 19.6875 22.627 19.6804 22.6052C19.6037 22.3719 19.4544 22.1512 19.1811 22.1612C18.9789 22.1688 18.8573 22.2661 18.8164 22.4532C18.6617 23.1639 20.1611 23.0326 19.9131 24.0079C19.7584 24.6172 18.9884 24.6799 18.4884 24.4559C18.4582 24.4426 18.4404 24.4197 18.4351 24.3872L18.3504 23.8639C18.348 23.8486 18.3512 23.833 18.3594 23.8198C18.3676 23.8067 18.3803 23.797 18.3951 23.7926C18.4471 23.7779 18.4811 23.7948 18.4971 23.8432C18.6151 24.1932 18.9031 24.5492 19.3097 24.3886Z" fill="white"/>
<path d="M6.68417 23.6814L6.01217 23.678C5.98283 23.678 5.96372 23.692 5.95483 23.72L5.79283 24.2334C5.78851 24.247 5.78705 24.2613 5.78855 24.2755C5.79006 24.2898 5.79449 24.3035 5.80157 24.3159C5.80864 24.3283 5.81822 24.3391 5.82968 24.3476C5.84114 24.3561 5.85425 24.3622 5.86816 24.3654L6.0215 24.4014C6.03236 24.4039 6.04215 24.4098 6.04945 24.4183C6.05676 24.4268 6.06121 24.4375 6.06217 24.4487L6.06483 24.474C6.06794 24.5083 6.05217 24.5254 6.0175 24.5254L5.2555 24.5247C5.22572 24.5247 5.20905 24.51 5.2055 24.4807C5.19972 24.4296 5.2215 24.4009 5.27083 24.3947C5.53016 24.36 5.5855 24.1487 5.66483 23.9487C5.91328 23.3234 6.1555 22.7118 6.3915 22.114C6.4175 22.0487 6.4915 22.0067 6.56017 22.02C6.58239 22.0245 6.59728 22.0376 6.60483 22.0594C6.84794 22.7465 7.10128 23.4412 7.36483 24.1434C7.4195 24.2887 7.51883 24.3723 7.66283 24.394C7.70283 24.3998 7.72528 24.4229 7.73017 24.4634L7.73283 24.488C7.7334 24.4928 7.73296 24.4977 7.73154 24.5023C7.73012 24.5069 7.72776 24.5112 7.72461 24.5148C7.72145 24.5183 7.71758 24.5212 7.71325 24.5232C7.70892 24.5251 7.70423 24.5261 7.6995 24.526L6.73817 24.524C6.72829 24.5241 6.71864 24.5209 6.71062 24.5151C6.70259 24.5092 6.6966 24.5009 6.6935 24.4914C6.68905 24.4776 6.68861 24.4643 6.69216 24.4514C6.70016 24.426 6.71661 24.4094 6.7415 24.4014L6.86217 24.362C6.87413 24.3581 6.8852 24.3519 6.89472 24.3436C6.90424 24.3354 6.91202 24.3254 6.91761 24.3141C6.92319 24.3029 6.92647 24.2907 6.92726 24.2782C6.92804 24.2657 6.92631 24.2532 6.92217 24.2414L6.73883 23.72C6.72994 23.6943 6.71172 23.6814 6.68417 23.6814ZM6.0495 23.452C6.04756 23.4573 6.04692 23.4629 6.04764 23.4685C6.04836 23.474 6.05041 23.4793 6.05362 23.4839C6.05683 23.4885 6.06111 23.4923 6.06608 23.4948C6.07105 23.4974 6.07657 23.4987 6.08217 23.4987L6.61483 23.5014C6.62041 23.5015 6.62592 23.5002 6.63091 23.4977C6.63589 23.4952 6.6402 23.4916 6.64348 23.4871C6.64675 23.4825 6.64888 23.4773 6.6497 23.4718C6.65051 23.4663 6.64999 23.4606 6.64817 23.4554L6.3855 22.6954C6.38317 22.6886 6.3788 22.6827 6.373 22.6785C6.36719 22.6743 6.36023 22.6721 6.35307 22.672C6.34591 22.6719 6.3389 22.6741 6.33301 22.6781C6.32712 22.6822 6.32263 22.688 6.32017 22.6947L6.0495 23.452Z" fill="white"/>
<path d="M24.9284 24.3321C24.987 24.369 25.0553 24.3915 25.133 24.3995C25.1417 24.4004 25.1498 24.4043 25.1559 24.4106C25.1621 24.4169 25.166 24.4252 25.167 24.4341L25.1704 24.4675C25.1711 24.4748 25.1703 24.4822 25.168 24.4893C25.1657 24.4963 25.1619 24.5027 25.157 24.5082C25.152 24.5137 25.1459 24.518 25.1392 24.521C25.1324 24.524 25.1251 24.5255 25.1177 24.5255H24.3537C24.3306 24.525 24.3195 24.5132 24.3204 24.4901L24.3217 24.4575C24.3239 24.4197 24.3439 24.3986 24.3817 24.3941C24.5301 24.3759 24.6341 24.2926 24.6937 24.1441C24.9399 23.5321 25.2068 22.8597 25.4944 22.1268C25.5217 22.0568 25.5924 22.0115 25.6664 22.0195C25.6913 22.0226 25.7079 22.0359 25.7164 22.0595C25.9679 22.7808 26.2201 23.4744 26.473 24.1401C26.5313 24.2935 26.6353 24.3786 26.785 24.3955C26.8193 24.3995 26.8377 24.4186 26.8404 24.4528L26.8417 24.4755C26.8422 24.4817 26.8413 24.488 26.8393 24.4939C26.8373 24.4997 26.834 24.5051 26.8299 24.5097C26.8257 24.5143 26.8206 24.5179 26.8149 24.5204C26.8093 24.5229 26.8032 24.5242 26.797 24.5241H25.845C25.8215 24.5241 25.8053 24.5135 25.7964 24.4921C25.7893 24.4748 25.7897 24.457 25.7977 24.4388C25.8057 24.4206 25.8195 24.4088 25.839 24.4035C25.8813 24.3919 25.9233 24.3777 25.965 24.3608C25.9905 24.3506 26.0111 24.3311 26.0226 24.3061C26.034 24.2811 26.0353 24.2527 26.0264 24.2268L25.8537 23.7308C25.8484 23.7154 25.8384 23.702 25.8252 23.6926C25.8119 23.6831 25.796 23.6781 25.7797 23.6781L25.125 23.6788C25.0917 23.6788 25.0701 23.6946 25.0604 23.7261L24.8964 24.2448C24.8912 24.2608 24.8915 24.278 24.8973 24.2938C24.9031 24.3097 24.914 24.3231 24.9284 24.3321ZM25.157 23.4455C25.1548 23.4514 25.154 23.4578 25.1547 23.4641C25.1555 23.4705 25.1578 23.4765 25.1614 23.4817C25.165 23.487 25.1698 23.4913 25.1754 23.4943C25.1811 23.4972 25.1873 23.4988 25.1937 23.4988L25.7177 23.5028C25.724 23.5028 25.7301 23.5013 25.7357 23.4985C25.7413 23.4956 25.7461 23.4915 25.7497 23.4864C25.7534 23.4813 25.7558 23.4754 25.7567 23.4692C25.7576 23.4631 25.757 23.4567 25.755 23.4508L25.4997 22.7061C25.497 22.6985 25.4921 22.6919 25.4855 22.6872C25.4789 22.6824 25.471 22.6799 25.4629 22.6798C25.4548 22.6797 25.4469 22.6822 25.4403 22.6868C25.4336 22.6913 25.4285 22.6979 25.4257 22.7055L25.157 23.4455Z" fill="white"/>
<path d="M4.30855 22.2278C4.30076 22.2281 4.29339 22.2315 4.28794 22.2372C4.28249 22.2429 4.27937 22.2505 4.27922 22.2584L4.27588 23.1651C4.27588 23.1913 4.28899 23.2047 4.31522 23.2051C4.44899 23.2078 4.58233 23.2053 4.71522 23.1978C4.91722 23.1864 4.96255 23.1791 5.02055 22.9751C5.02766 22.9498 5.04366 22.9329 5.06855 22.9244C5.09388 22.916 5.11633 22.9213 5.13588 22.9404C5.15099 22.9555 5.15855 22.974 5.15855 22.9958C5.15588 23.2149 5.15477 23.4247 5.15522 23.6251C5.15522 23.6469 5.14633 23.6638 5.12855 23.6758C5.11255 23.6864 5.09522 23.6898 5.07655 23.6858C5.05033 23.6804 5.03322 23.6651 5.02522 23.6398L4.97788 23.4884C4.96862 23.459 4.95029 23.4332 4.92551 23.4147C4.90073 23.3963 4.87077 23.3862 4.83988 23.3858L4.31655 23.3804C4.31145 23.3803 4.30638 23.3813 4.30165 23.3832C4.29691 23.3851 4.29262 23.3879 4.28901 23.3916C4.2854 23.3952 4.28255 23.3995 4.28064 23.4042C4.27873 23.4089 4.27779 23.414 4.27788 23.4191L4.28122 24.2098C4.28141 24.2496 4.29584 24.288 4.32188 24.318C4.34793 24.3481 4.38387 24.3679 4.42322 24.3738L4.62722 24.4051C4.63599 24.4064 4.64395 24.411 4.64951 24.4179C4.65506 24.4248 4.65782 24.4336 4.65722 24.4424L4.65522 24.4624C4.65387 24.4797 4.64612 24.4958 4.63351 24.5076C4.6209 24.5193 4.60436 24.5258 4.58722 24.5258L3.54922 24.5224C3.53928 24.5225 3.52962 24.5191 3.52186 24.5128C3.51409 24.5064 3.50869 24.4976 3.50655 24.4878C3.50211 24.4687 3.50655 24.4515 3.51988 24.4364C3.52922 24.4258 3.54033 24.4182 3.55322 24.4138C3.70388 24.3598 3.83122 24.3678 3.83455 24.1584C3.84611 23.4762 3.84544 22.8909 3.83255 22.4024C3.82788 22.2171 3.68122 22.2231 3.55122 22.1844C3.54066 22.1813 3.53122 22.1753 3.52402 22.1669C3.51682 22.1586 3.51218 22.1484 3.51063 22.1375C3.50908 22.1266 3.5107 22.1155 3.5153 22.1055C3.5199 22.0955 3.52727 22.087 3.53655 22.0811C3.55255 22.0709 3.56988 22.066 3.58855 22.0664C4.14633 22.0673 4.69166 22.0678 5.22455 22.0678C5.25388 22.0678 5.26944 22.0824 5.27122 22.1118C5.27966 22.2731 5.28855 22.4318 5.29788 22.5878C5.29966 22.6184 5.28322 22.6422 5.24855 22.6591C5.24136 22.6627 5.23347 22.6646 5.22546 22.6647C5.21746 22.6648 5.20954 22.6632 5.2023 22.6598C5.19506 22.6565 5.18868 22.6516 5.18365 22.6455C5.17861 22.6393 5.17505 22.6321 5.17322 22.6244C5.14522 22.5058 5.10166 22.4098 5.04255 22.3364C4.91655 22.1798 4.48588 22.2171 4.30855 22.2278Z" fill="white"/>
<path d="M8.69164 23.5009C8.68453 23.72 8.68564 23.9503 8.69497 24.1916C8.70164 24.3536 8.85164 24.3916 8.98497 24.4023C8.99559 24.4031 9.00547 24.4081 9.01255 24.4162C9.01963 24.4242 9.02336 24.4348 9.02297 24.4456L9.0223 24.4716C9.02178 24.486 9.01563 24.4997 9.00517 24.5097C8.9947 24.5196 8.98075 24.5251 8.9663 24.5249L7.95297 24.5236C7.93119 24.5236 7.92008 24.5129 7.91964 24.4916L7.91897 24.4663C7.91808 24.4209 7.9403 24.3976 7.98564 24.3963C8.1143 24.3923 8.25097 24.3423 8.2523 24.1923C8.25897 23.6087 8.25897 23.022 8.2523 22.4323C8.24964 22.2096 8.11764 22.2243 7.95364 22.1809C7.94788 22.1796 7.94269 22.1765 7.93885 22.1719C7.935 22.1673 7.93271 22.1616 7.9323 22.1556L7.92964 22.1263C7.92899 22.1188 7.92989 22.1112 7.93227 22.104C7.93465 22.0969 7.93847 22.0903 7.94347 22.0848C7.94848 22.0792 7.95458 22.0747 7.96137 22.0717C7.96817 22.0686 7.97552 22.067 7.98297 22.0669C8.36164 22.0643 8.73408 22.0652 9.1003 22.0696C9.54764 22.0756 9.9403 22.3276 9.85097 22.8203C9.8123 23.0349 9.67408 23.1963 9.4363 23.3043C9.42959 23.3072 9.42357 23.3116 9.41861 23.317C9.41365 23.3224 9.40987 23.3288 9.40749 23.3357C9.40511 23.3427 9.40419 23.35 9.40479 23.3574C9.40539 23.3647 9.40749 23.3718 9.41097 23.3783C9.56653 23.6676 9.73719 23.936 9.92297 24.1836C10.0087 24.2983 10.1143 24.3894 10.2396 24.4569C10.2459 24.4604 10.2511 24.4654 10.2548 24.4714C10.2585 24.4775 10.2606 24.4844 10.2609 24.4915C10.2612 24.4986 10.2596 24.5057 10.2563 24.512C10.2531 24.5183 10.2482 24.5237 10.2423 24.5276C10.1803 24.5696 10.0996 24.5436 10.0316 24.5436C9.74008 24.5463 9.51786 24.4198 9.36497 24.1643C9.25297 23.9767 9.14453 23.7876 9.03964 23.5969C8.97697 23.4816 8.85964 23.4536 8.73697 23.4556C8.70764 23.4565 8.69253 23.4716 8.69164 23.5009ZM8.68964 22.2869L8.6843 23.2403C8.68422 23.251 8.68625 23.2616 8.6903 23.2716C8.69435 23.2815 8.70033 23.2906 8.70789 23.2982C8.71545 23.3058 8.72445 23.3119 8.73436 23.316C8.74427 23.3201 8.7549 23.3223 8.76564 23.3223L8.8983 23.3229C9.02719 23.3236 9.15108 23.2717 9.24272 23.1785C9.33436 23.0854 9.38625 22.9587 9.38697 22.8263V22.7089C9.38733 22.6434 9.37511 22.5783 9.35102 22.5176C9.32692 22.4569 9.29142 22.4017 9.24654 22.355C9.20165 22.3084 9.14827 22.2714 9.08944 22.2459C9.0306 22.2205 8.96747 22.2073 8.90364 22.2069L8.77097 22.2063C8.74951 22.2063 8.72893 22.2147 8.71369 22.2298C8.69846 22.245 8.68981 22.2655 8.68964 22.2869Z" fill="white"/>
<path d="M10.9142 22.6598C10.8782 23.1687 10.8604 23.6685 10.8608 24.1592C10.8608 24.3332 11.0075 24.3858 11.1522 24.3912C11.1917 24.3925 11.2113 24.4132 11.2108 24.4532L11.2102 24.4798C11.21 24.4919 11.2051 24.5035 11.1965 24.5119C11.1879 24.5204 11.1763 24.5252 11.1642 24.5252L10.3668 24.5238C10.3513 24.5239 10.3363 24.5182 10.3247 24.5077C10.3132 24.4972 10.3058 24.4828 10.3042 24.4672L10.3015 24.4438C10.301 24.4391 10.3014 24.4344 10.3027 24.4298C10.304 24.4253 10.3062 24.4211 10.3092 24.4174C10.3122 24.4137 10.3159 24.4107 10.32 24.4085C10.3242 24.4063 10.3288 24.4049 10.3335 24.4045C10.5184 24.3858 10.6195 24.2878 10.6368 24.1105C10.688 23.5825 10.732 23.0427 10.7688 22.4912C10.7817 22.2965 10.6748 22.1958 10.4482 22.1892C10.439 22.1888 10.4303 22.1851 10.4238 22.1786C10.4174 22.1722 10.4137 22.1635 10.4135 22.1545L10.4128 22.1278C10.4127 22.1197 10.4141 22.1116 10.4171 22.104C10.4201 22.0964 10.4246 22.0894 10.4303 22.0836C10.436 22.0778 10.4429 22.0731 10.4504 22.07C10.4579 22.0668 10.466 22.0652 10.4742 22.0652L11.1195 22.0658C11.1453 22.0658 11.1633 22.0778 11.1735 22.1018L11.8995 23.7378C11.9021 23.7435 11.9062 23.7484 11.9114 23.7518C11.9166 23.7552 11.9227 23.7571 11.929 23.7572C11.9352 23.7572 11.9413 23.7555 11.9466 23.7522C11.9519 23.7489 11.9562 23.7441 11.9588 23.7385L12.6962 22.1132C12.71 22.0825 12.7335 22.0672 12.7668 22.0672L13.3835 22.0625C13.4168 22.0621 13.4371 22.0783 13.4442 22.1112C13.4482 22.1285 13.4453 22.1447 13.4355 22.1598C13.4244 22.1763 13.4091 22.1863 13.3895 22.1898C13.3295 22.2001 13.2693 22.2134 13.2088 22.2298C13.1865 22.2363 13.1671 22.2505 13.1542 22.2698C13.1213 22.3201 13.1055 22.3754 13.1068 22.4358C13.1215 23.0274 13.1388 23.6123 13.1588 24.1905C13.1648 24.3498 13.3062 24.3952 13.4408 24.3938C13.4515 24.3938 13.4618 24.3979 13.4696 24.4052C13.4774 24.4125 13.4822 24.4225 13.4828 24.4332L13.4848 24.4605C13.4875 24.5036 13.4673 24.5252 13.4242 24.5252L12.4255 24.5238C12.4171 24.5238 12.409 24.5206 12.4029 24.5148C12.3968 24.5089 12.3932 24.5009 12.3928 24.4925L12.3915 24.4678C12.3893 24.4287 12.4077 24.4061 12.4468 24.3998C12.6008 24.3745 12.7095 24.3545 12.7122 24.1645C12.7202 23.5921 12.72 23.0883 12.7115 22.6532C12.7088 22.5092 12.6791 22.5034 12.6222 22.6358L11.8382 24.4705C11.8339 24.4804 11.8271 24.489 11.8184 24.4955C11.8098 24.5019 11.7996 24.5059 11.7888 24.5072C11.7506 24.5116 11.7253 24.4987 11.7128 24.4685C11.4582 23.8432 11.2131 23.2372 10.9775 22.6505C10.942 22.5616 10.9208 22.5647 10.9142 22.6598Z" fill="white"/>
<path d="M14.5514 23.1764C14.6963 23.1742 14.8392 23.1689 14.9801 23.1604C15.1287 23.1517 15.1627 23.0371 15.1967 22.9191C15.2038 22.8929 15.2207 22.8769 15.2474 22.8711C15.2621 22.868 15.2763 22.8697 15.2901 22.8764C15.3014 22.8816 15.3109 22.89 15.3176 22.9005C15.3242 22.911 15.3276 22.9233 15.3274 22.9357L15.3247 23.5991C15.3247 23.6311 15.3087 23.6469 15.2767 23.6464L15.2547 23.6457C15.2143 23.6453 15.1916 23.6251 15.1867 23.5851C15.1685 23.4406 15.0954 23.3637 14.9674 23.3544C14.8358 23.3451 14.6921 23.3422 14.5361 23.3457C14.5081 23.3466 14.4941 23.3611 14.4941 23.3891L14.4961 24.1471C14.4965 24.2773 14.5616 24.348 14.6914 24.3591C15.1294 24.3964 15.3847 24.3971 15.5581 23.9317C15.5633 23.9175 15.5728 23.9052 15.5852 23.8965C15.5976 23.8878 15.6123 23.8831 15.6274 23.8831C15.6861 23.8835 15.7114 23.9077 15.7034 23.9557C15.6741 24.1295 15.6374 24.3049 15.5934 24.4817C15.5901 24.4943 15.5828 24.5054 15.5726 24.5134C15.5623 24.5214 15.5497 24.5257 15.5367 24.5257L13.7301 24.5244C13.7065 24.5244 13.6901 24.5137 13.6807 24.4924C13.6732 24.4751 13.6743 24.4575 13.6841 24.4397C13.6916 24.4251 13.7032 24.4153 13.7187 24.4104C13.8487 24.3657 14.0414 24.3897 14.0434 24.1877C14.0474 23.6455 14.0478 23.0389 14.0447 22.3677C14.0446 22.3328 14.0325 22.299 14.0104 22.2718C13.9884 22.2447 13.9577 22.2258 13.9234 22.2184L13.7514 22.1824C13.7446 22.1809 13.7385 22.1772 13.7342 22.1718C13.7298 22.1665 13.7274 22.1599 13.7274 22.1531L13.7267 22.1297C13.7267 22.0875 13.7476 22.0664 13.7894 22.0664H15.4487C15.4718 22.0664 15.4841 22.078 15.4854 22.1011L15.5154 22.5791C15.5167 22.6071 15.5052 22.628 15.4807 22.6417C15.4687 22.6484 15.4554 22.6506 15.4407 22.6484C15.4105 22.6435 15.3905 22.6266 15.3807 22.5977C15.3341 22.4564 15.2781 22.2697 15.1074 22.2451C14.9318 22.2193 14.7401 22.2135 14.5321 22.2277C14.5219 22.2284 14.5124 22.233 14.5055 22.2406C14.4985 22.2481 14.4947 22.2581 14.4947 22.2684V23.1204C14.4947 23.1278 14.4962 23.1352 14.499 23.142C14.5019 23.1488 14.5061 23.155 14.5114 23.1602C14.5166 23.1655 14.5229 23.1696 14.5298 23.1723C14.5366 23.1751 14.544 23.1765 14.5514 23.1764Z" fill="white"/>
<path d="M16.6571 23.5049C16.6464 23.7543 16.6522 23.9965 16.6744 24.2316C16.6777 24.2666 16.6922 24.2996 16.7158 24.3255C16.7394 24.3515 16.7707 24.3691 16.8051 24.3756L16.9504 24.4029C16.9807 24.4087 16.9953 24.4269 16.9944 24.4576L16.9938 24.4809C16.9929 24.5103 16.9778 24.5249 16.9484 24.5249L15.9331 24.5243C15.9216 24.5242 15.9106 24.52 15.902 24.5124C15.8934 24.5048 15.8879 24.4943 15.8864 24.4829C15.8838 24.4629 15.8887 24.4454 15.9011 24.4303C15.9618 24.3583 16.1184 24.4063 16.1884 24.2963C16.2151 24.2545 16.2287 24.2094 16.2291 24.1609C16.2376 23.5512 16.2376 22.9607 16.2291 22.3896C16.2285 22.3496 16.2145 22.311 16.1892 22.28C16.1639 22.249 16.1288 22.2275 16.0898 22.2189L15.9458 22.1869C15.9304 22.1835 15.917 22.1741 15.9084 22.1607C15.8999 22.1474 15.8968 22.1312 15.8998 22.1156C15.906 22.0836 15.9267 22.0676 15.9618 22.0676C16.3058 22.0663 16.6604 22.0661 17.0258 22.0669C17.3871 22.0683 17.7551 22.1949 17.8211 22.5956C17.8798 22.9503 17.6831 23.1709 17.3858 23.3203C17.3822 23.322 17.3791 23.3244 17.3765 23.3273C17.3739 23.3303 17.3719 23.3338 17.3707 23.3375C17.3696 23.3413 17.3692 23.3452 17.3696 23.3491C17.37 23.3531 17.3712 23.3568 17.3731 23.3603C17.5327 23.6612 17.708 23.938 17.8991 24.1909C17.9627 24.2749 18.04 24.3469 18.1311 24.4069C18.2689 24.4972 18.2553 24.5449 18.0904 24.5503C17.7604 24.5609 17.5071 24.4523 17.3331 24.1609C17.2171 23.9676 17.1053 23.7732 16.9978 23.5776C16.9391 23.4723 16.8158 23.4569 16.7071 23.4569C16.6751 23.4565 16.6584 23.4725 16.6571 23.5049ZM16.6511 22.2883L16.6564 23.2443C16.6566 23.2656 16.6652 23.2859 16.6803 23.3009C16.6954 23.3159 16.7158 23.3243 16.7371 23.3243L16.8771 23.3236C16.9408 23.3233 17.0037 23.3098 17.0624 23.2841C17.1211 23.2583 17.1743 23.2207 17.2191 23.1734C17.2638 23.1261 17.2992 23.07 17.3233 23.0084C17.3473 22.9468 17.3595 22.8808 17.3591 22.8143V22.7103C17.3584 22.5759 17.3066 22.4473 17.2152 22.3528C17.1238 22.2583 17.0003 22.2056 16.8718 22.2063L16.7318 22.2069C16.7211 22.2069 16.7106 22.209 16.7008 22.2131C16.6909 22.2172 16.682 22.2232 16.6745 22.2308C16.667 22.2384 16.6611 22.2473 16.6571 22.2572C16.653 22.2671 16.651 22.2776 16.6511 22.2883Z" fill="white"/>
<path d="M21.5831 22.6668C21.548 23.1259 21.5304 23.6195 21.5304 24.1475C21.5304 24.3281 21.6651 24.3908 21.8204 24.3888C21.8289 24.3887 21.8374 24.3903 21.8452 24.3936C21.8531 24.3968 21.8602 24.4016 21.8661 24.4077C21.8721 24.4137 21.8767 24.4209 21.8797 24.4288C21.8827 24.4367 21.8841 24.4451 21.8837 24.4535L21.8831 24.4761C21.8822 24.509 21.8653 24.5255 21.8324 24.5255L21.0264 24.5248C20.9851 24.5248 20.966 24.5039 20.9691 24.4621L20.9711 24.4368C20.9722 24.4248 20.9776 24.4136 20.9863 24.4053C20.995 24.397 21.0064 24.3921 21.0184 24.3915C21.1895 24.3839 21.2844 24.2919 21.3031 24.1155C21.368 23.5084 21.4124 22.9459 21.4364 22.4281C21.4451 22.2461 21.2731 22.2015 21.1277 22.1895C21.0975 22.1868 21.0835 22.1704 21.0857 22.1401L21.0871 22.1235C21.0881 22.1077 21.0951 22.093 21.1066 22.0822C21.1181 22.0714 21.1333 22.0654 21.1491 22.0655L21.7864 22.0668C21.7989 22.0668 21.8111 22.0703 21.8215 22.0771C21.8319 22.0839 21.8401 22.0935 21.8451 22.1048L22.5724 23.7448C22.5748 23.75 22.5787 23.7545 22.5835 23.7576C22.5883 23.7607 22.5939 23.7625 22.5996 23.7625C22.6053 23.7626 22.6108 23.761 22.6156 23.758C22.6203 23.755 22.6241 23.7506 22.6264 23.7455L23.3691 22.1068C23.3744 22.0951 23.383 22.0852 23.3937 22.0782C23.4045 22.0712 23.417 22.0675 23.4297 22.0675L24.0591 22.0635C24.0689 22.0634 24.0787 22.0657 24.0874 22.0702C24.0962 22.0747 24.1037 22.0813 24.1093 22.0894C24.115 22.0975 24.1186 22.1068 24.1198 22.1166C24.121 22.1263 24.1199 22.1363 24.1164 22.1455L24.1084 22.1661C24.1052 22.1751 24.0991 22.1827 24.0912 22.188C24.0833 22.1933 24.0739 22.1959 24.0644 22.1955C23.8617 22.1893 23.7644 22.2868 23.7724 22.4881C23.7977 23.1006 23.8155 23.6561 23.8257 24.1548C23.8289 24.3073 23.928 24.3893 24.1231 24.4008C24.1324 24.4013 24.1412 24.4053 24.1477 24.4119C24.1543 24.4186 24.1581 24.4275 24.1584 24.4368L24.1597 24.4581C24.162 24.5044 24.14 24.5275 24.0937 24.5275L23.1037 24.5248C23.094 24.5248 23.0845 24.5215 23.077 24.5152C23.0694 24.509 23.0643 24.5004 23.0624 24.4908C23.058 24.4681 23.0615 24.4473 23.0731 24.4281C23.0837 24.4104 23.0995 24.4006 23.1204 24.3988C23.2477 24.3908 23.3744 24.3448 23.3784 24.1921C23.3922 23.6353 23.3935 23.1173 23.3824 22.6381C23.3793 22.5013 23.3509 22.4957 23.2971 22.6215L22.5077 24.4708C22.5014 24.4855 22.4897 24.4973 22.4751 24.5037C22.4605 24.5102 22.444 24.5108 22.4291 24.5055C22.4033 24.4966 22.3853 24.4797 22.3751 24.4548C22.1289 23.8477 21.8877 23.2481 21.6517 22.6561C21.614 22.5615 21.5911 22.565 21.5831 22.6668Z" fill="white"/>
<path d="M30.2322 23.1725C30.2322 23.1788 30.2339 23.1849 30.2371 23.1904C30.2403 23.1958 30.2449 23.2003 30.2504 23.2033C30.2559 23.2064 30.2621 23.2079 30.2684 23.2078C30.2747 23.2076 30.2809 23.2058 30.2862 23.2025C30.376 23.1478 30.4567 23.0847 30.5282 23.0131C30.7549 22.7865 30.9565 22.5558 31.1329 22.3211C31.1394 22.3126 31.1436 22.3025 31.1451 22.2919C31.1467 22.2813 31.1455 22.2705 31.1418 22.2605C31.1381 22.2505 31.1319 22.2417 31.1238 22.2348C31.1157 22.2279 31.106 22.2232 31.0956 22.2211L30.9676 22.1958C30.944 22.1909 30.9287 22.1769 30.9216 22.1538C30.9145 22.1302 30.9173 22.1085 30.9302 22.0885C30.94 22.0738 30.9538 22.0665 30.9716 22.0665L31.8476 22.0651C31.8571 22.0651 31.8663 22.0689 31.873 22.0757C31.8798 22.0824 31.8836 22.0916 31.8836 22.1011L31.8829 22.1265C31.8825 22.1687 31.8613 22.192 31.8196 22.1965C31.6098 22.2178 31.4202 22.3131 31.2509 22.4825C31.0651 22.6678 30.8856 22.8491 30.7122 23.0265C30.704 23.0349 30.699 23.0459 30.6981 23.0578C30.6973 23.0696 30.7006 23.0814 30.7076 23.0911C30.972 23.4565 31.2553 23.8187 31.5576 24.1778C31.6496 24.2867 31.7602 24.3587 31.8896 24.3938C31.9096 24.3991 31.9245 24.4107 31.9342 24.4285C31.9413 24.4418 31.9445 24.4556 31.9436 24.4698C31.943 24.4846 31.9368 24.4987 31.9261 24.509C31.9154 24.5194 31.9011 24.5251 31.8862 24.5251H31.3029C31.2826 24.5251 31.2625 24.5205 31.2444 24.5116C31.2262 24.5027 31.2104 24.4897 31.1982 24.4738C30.9285 24.1258 30.6585 23.7671 30.3882 23.3978C30.3616 23.3613 30.3265 23.3382 30.2829 23.3285C30.2761 23.3271 30.2691 23.3272 30.2624 23.3289C30.2557 23.3305 30.2495 23.3337 30.2442 23.3381C30.2388 23.3425 30.2346 23.3481 30.2317 23.3544C30.2288 23.3607 30.2274 23.3675 30.2276 23.3745L30.2382 24.2131C30.2388 24.2504 30.2522 24.2864 30.2762 24.3151C30.3003 24.3437 30.3335 24.3633 30.3702 24.3705L30.5342 24.4025C30.5471 24.405 30.5586 24.4121 30.5665 24.4224C30.5745 24.4327 30.5784 24.4455 30.5776 24.4585C30.574 24.502 30.5485 24.524 30.5009 24.5245C30.1196 24.5271 29.794 24.526 29.5242 24.5211C29.4989 24.5207 29.4869 24.5078 29.4882 24.4825L29.4889 24.4598C29.4896 24.4437 29.4964 24.4284 29.5079 24.4172C29.5194 24.4059 29.5348 24.3994 29.5509 24.3991C29.7193 24.3956 29.8045 24.3065 29.8062 24.1318C29.812 23.5825 29.8122 23.026 29.8069 22.4625C29.8042 22.2025 29.6749 22.2305 29.4849 22.1778C29.4776 22.1758 29.4712 22.1711 29.467 22.1647C29.4629 22.1584 29.4611 22.1507 29.4622 22.1431L29.4656 22.1238C29.468 22.108 29.4759 22.0936 29.4879 22.0832C29.4998 22.0728 29.5151 22.0671 29.5309 22.0671L30.5129 22.0645C30.5184 22.0644 30.5238 22.0655 30.5289 22.0678C30.5339 22.07 30.5384 22.0733 30.542 22.0774C30.5457 22.0815 30.5484 22.0863 30.5501 22.0916C30.5517 22.0968 30.5522 22.1023 30.5516 22.1078L30.5489 22.1345C30.5469 22.1521 30.5384 22.1685 30.525 22.1803C30.5116 22.1921 30.4942 22.1986 30.4762 22.1985C30.3193 22.1971 30.2393 22.2747 30.2362 22.4311C30.2309 22.6965 30.2296 22.9436 30.2322 23.1725Z" fill="white"/>
<path d="M32.8569 23.3891L32.8615 24.1684C32.8617 24.2164 32.8799 24.2627 32.9127 24.298C32.9454 24.3333 32.9902 24.3551 33.0382 24.3591C33.2355 24.3764 33.6095 24.4064 33.7495 24.2391C33.8211 24.1533 33.8775 24.0553 33.9189 23.9451C33.9295 23.9166 33.9482 23.8966 33.9749 23.8851C34.0082 23.8704 34.0384 23.8784 34.0655 23.9091C34.0695 23.9137 34.0723 23.9191 34.0738 23.9249C34.0753 23.9306 34.0754 23.9366 34.0742 23.9424L33.9589 24.4824C33.9526 24.5117 33.9346 24.5264 33.9049 24.5264L32.1035 24.5237C32.0697 24.5237 32.0509 24.5069 32.0469 24.4731L32.0442 24.4491C32.0431 24.4398 32.0457 24.4305 32.0516 24.4231C32.0574 24.4156 32.066 24.4106 32.0755 24.4091C32.2329 24.3851 32.4109 24.3784 32.4122 24.1651C32.4162 23.6131 32.4166 23.0364 32.4135 22.4351C32.4126 22.2742 32.3302 22.1946 32.1662 22.1964C32.1249 22.1969 32.1031 22.1766 32.1009 22.1357L32.0995 22.1091C32.0982 22.0815 32.1113 22.0675 32.1389 22.0671L33.8195 22.0664C33.8287 22.0664 33.8376 22.0699 33.8443 22.0762C33.851 22.0826 33.855 22.0912 33.8555 22.1004C33.8649 22.2569 33.8735 22.4173 33.8815 22.5817C33.8829 22.6146 33.8677 22.6364 33.8362 22.6471C33.8274 22.6501 33.818 22.6513 33.8087 22.6507C33.7993 22.6501 33.7902 22.6477 33.7819 22.6435C33.7735 22.6394 33.766 22.6336 33.7599 22.6265C33.7538 22.6195 33.7491 22.6113 33.7462 22.6024C33.7049 22.4791 33.6542 22.2891 33.5102 22.2557C33.356 22.2193 33.1566 22.21 32.9122 22.2277C32.898 22.2288 32.8848 22.2351 32.8752 22.2455C32.8655 22.2559 32.8602 22.2696 32.8602 22.2837L32.8589 23.1231C32.8589 23.137 32.8644 23.1504 32.8743 23.1603C32.8842 23.1702 32.8976 23.1757 32.9115 23.1757C33.0626 23.1749 33.2049 23.17 33.3382 23.1611C33.4626 23.1522 33.5329 23.0775 33.5489 22.9371C33.5537 22.8926 33.5786 22.8711 33.6235 22.8724L33.6489 22.8731C33.6777 22.874 33.6922 22.8889 33.6922 22.9177L33.6889 23.5984C33.6887 23.6092 33.6851 23.6196 33.6786 23.6282C33.6722 23.6367 33.6631 23.6429 33.6529 23.6457C33.6075 23.6577 33.5635 23.6324 33.5542 23.5864C33.5275 23.4564 33.4729 23.3577 33.3195 23.3511C33.1697 23.344 33.0291 23.3426 32.8975 23.3471C32.8704 23.348 32.8569 23.362 32.8569 23.3891Z" fill="white"/>
<path d="M27.8011 22.2825C27.8011 22.2614 27.8095 22.2412 27.8244 22.2264C27.8393 22.2115 27.8594 22.2031 27.8805 22.2031L28.0031 22.2038C28.0692 22.2039 28.1347 22.2174 28.1957 22.2436C28.2567 22.2697 28.3122 22.3081 28.3589 22.3564C28.4055 22.4046 28.4425 22.4619 28.4678 22.525C28.493 22.588 28.5059 22.6556 28.5058 22.7238V22.8051C28.5056 22.9429 28.4524 23.0749 28.3579 23.1721C28.2634 23.2694 28.1353 23.324 28.0018 23.3238L27.8791 23.3231C27.8581 23.3231 27.8379 23.3148 27.823 23.2999C27.8082 23.285 27.7998 23.2648 27.7998 23.2438L27.8011 22.2825Z" fill="#19702C"/>
<path d="M27.7978 23.4988C27.7992 23.7088 27.8098 23.9282 27.8058 24.1462C27.8032 24.3111 27.8876 24.3939 28.0592 24.3948C28.101 24.3953 28.1236 24.4162 28.1272 24.4575L28.1285 24.4768C28.1316 24.5097 28.1165 24.5262 28.0832 24.5262L27.0825 24.5248C27.0722 24.5248 27.0622 24.5218 27.0537 24.5161C27.0451 24.5104 27.0385 24.5023 27.0345 24.4928C27.0269 24.4746 27.0276 24.4564 27.0365 24.4382C27.0467 24.4177 27.0625 24.4053 27.0838 24.4008C27.2372 24.3695 27.3652 24.3562 27.3658 24.1582C27.3672 23.5862 27.3685 23.0166 27.3698 22.4495C27.3705 22.2255 27.2632 22.2348 27.0918 22.1908C27.0656 22.1837 27.0478 22.1675 27.0385 22.1422C27.0332 22.1279 27.0343 22.1142 27.0418 22.1008C27.0525 22.0817 27.0687 22.0719 27.0905 22.0715C27.5665 22.0595 27.9821 22.0628 28.3372 22.0815C29.0732 22.1202 29.2052 23.0115 28.5425 23.3055C28.5361 23.3083 28.5303 23.3125 28.5256 23.3176C28.5208 23.3228 28.5172 23.3289 28.515 23.3356C28.5127 23.3422 28.5119 23.3492 28.5125 23.3562C28.5131 23.3632 28.5151 23.37 28.5185 23.3762C28.6992 23.7122 28.9618 24.1988 29.2872 24.4222C29.3974 24.4977 29.3861 24.5399 29.2532 24.5488C28.9012 24.5737 28.6396 24.4431 28.4685 24.1568C28.3592 23.9733 28.2516 23.7853 28.1458 23.5928C28.0818 23.4755 27.9625 23.4528 27.8385 23.4568C27.8109 23.4577 27.7974 23.4717 27.7978 23.4988ZM27.8012 22.2835L27.7998 23.2448C27.7998 23.2659 27.8082 23.2861 27.8231 23.3009C27.838 23.3158 27.8581 23.3242 27.8792 23.3242L28.0018 23.3248C28.1353 23.325 28.2634 23.2704 28.3579 23.1732C28.4524 23.0759 28.5057 22.9439 28.5058 22.8062V22.7248C28.5059 22.6566 28.493 22.5891 28.4678 22.526C28.4426 22.463 28.4056 22.4057 28.3589 22.3574C28.3122 22.3091 28.2568 22.2708 28.1957 22.2446C28.1347 22.2184 28.0693 22.2049 28.0032 22.2048L27.8805 22.2042C27.8595 22.2042 27.8393 22.2125 27.8244 22.2274C27.8095 22.2423 27.8012 22.2625 27.8012 22.2835Z" fill="white"/>
<circle cx="20" cy="20" r="19.5" stroke="black" stroke-opacity="0.05"/>
</svg>
