<svg width="40" height="40" viewBox="0 0 40 40" fill="none" xmlns="http://www.w3.org/2000/svg">
<circle cx="20" cy="20" r="20" fill="#D83831"/>
<g clip-path="url(#clip0_9_396094)">
<path d="M9.14258 16.5333V29.5002H25.0049C29.497 29.5002 30.7781 25.576 30.8569 23.6136V10.509C27.428 10.5022 19.4521 10.4927 14.9796 10.509C10.5072 10.5253 9.22469 14.5322 9.14258 16.5333Z" fill="black"/>
<path d="M16.0778 15.25H26.7857L25.4286 17.2857H16.865C16.5773 17.3162 15.9286 17.5951 15.9286 18.3348C15.9286 19.0744 16.5773 19.297 16.865 19.3214C19.0269 19.3031 23.1418 19.3214 24.1773 19.3214C25.3458 19.3214 26.7857 19.9593 26.7857 22.3818C26.7857 24.3205 25.0472 25.2521 24.1773 25.4252H13.2149L14.5714 23.3929H23.1418C23.4729 23.3745 24.1019 23.1662 24.0714 22.3818C24.0409 21.598 23.4471 21.3639 23.1418 21.3571H15.6639C14.8347 21.2031 13.1844 20.7464 13.2143 18.3348C13.2455 15.9225 15.136 15.2731 16.0778 15.25Z" fill="#D83831"/>
<path d="M18.643 25.4252L24.0716 15.25H22.0338C20.9006 16.8609 19.1051 17.2654 18.4096 17.2823L17.2859 19.3201H19.3216L15.9287 25.4252H18.643Z" fill="white"/>
</g>
<circle cx="20" cy="20" r="19.5" stroke="black" stroke-opacity="0.05"/>
<defs>
<clipPath id="clip0_9_396094">
<rect width="22" height="20" fill="white" transform="translate(9 10)"/>
</clipPath>
</defs>
</svg>
