<svg width="40" height="40" viewBox="0 0 40 40" fill="none" xmlns="http://www.w3.org/2000/svg">
<circle cx="20" cy="20" r="20" fill="#FBCE07"/>
<circle cx="20" cy="20" r="19.5" stroke="black" stroke-opacity="0.05"/>
<g clip-path="url(#clip0_9_399315)">
<path d="M31 20.5099C31 14.4504 26.0904 9.50977 20 9.50977C26.0594 9.50977 31 14.4504 31 20.5099Z" fill="#FBCE07"/>
<path d="M20 9.50977C13.9407 9.50977 9 14.4193 9 20.5099C9 21.2556 9.06208 22.0014 9.21749 22.7159L12.6356 25.1708L13.1327 29.3036H18.726L19.0368 29.5522C19.3164 29.7386 19.6582 29.863 20 29.863C20.3419 29.863 20.6835 29.7698 20.9632 29.5522L21.2742 29.3036H26.8673L27.3955 25.1708L30.7824 22.7159C30.9379 22.0014 31 21.2556 31 20.5099C31 14.4504 26.0594 9.50977 20 9.50977ZM28.9493 21.6595L25.5933 24.0832L25.1893 27.377H21.1496L20.5284 27.8121C20.3729 27.9363 20.1865 27.9674 20 27.9674C19.8135 27.9674 19.6271 27.9053 19.4717 27.8121L18.9124 27.377H14.8417L14.4378 24.0832L11.0819 21.6595C10.9887 21.2866 10.9265 20.8828 10.9265 20.4787C10.9265 19.8262 11.0508 19.1736 11.3305 18.5832L17.2655 24.5803L11.5169 17.4646C11.7345 16.5324 12.2316 15.7244 12.9463 15.0718L18.1045 23.99L13.5367 14.264C14.1271 13.4872 14.9661 12.8967 15.8983 12.6171L19.0678 23.6792L16.7684 12.151C17.483 11.747 18.2599 11.5606 19.0678 11.5606C19.2232 11.5606 19.4096 11.5606 19.5649 11.5917L20.031 23.5549L20.4971 11.5917C20.6526 11.5606 20.839 11.5606 20.9945 11.5606C21.8022 11.5606 22.5791 11.7781 23.2937 12.151L20.9945 23.6792L24.1639 12.586C25.0961 12.8657 25.9351 13.456 26.5256 14.2329L21.9265 23.99L27.0849 15.0718C27.7993 15.6934 28.2968 16.5324 28.5142 17.4646L22.7655 24.5803L28.7006 18.5832C28.9802 19.1736 29.1044 19.8262 29.1044 20.4787C29.1044 20.8828 29.0425 21.2556 28.9493 21.6595Z" fill="#DD1D21"/>
<path d="M22.7655 24.5803L28.5141 17.4646C28.2967 16.5323 27.7993 15.6934 27.0848 15.0718L21.9265 23.99L26.5255 14.2328C25.935 13.456 25.096 12.8656 24.1638 12.586L20.9945 23.6792L23.2937 12.151C22.5791 11.7781 21.8021 11.5605 20.9945 11.5605C20.839 11.5605 20.6525 11.5605 20.497 11.5917L20.031 23.5549L19.5649 11.5917C19.4096 11.5605 19.2232 11.5605 19.0678 11.5605C18.2599 11.5605 17.483 11.747 16.7684 12.151L19.0678 23.6792L15.8983 12.6171C14.9661 12.8967 14.1271 13.4872 13.5367 14.264L18.1045 23.99L12.9462 15.0718C12.2316 15.7244 11.7344 16.5323 11.5169 17.4646L17.2655 24.5803L11.3304 18.5832C11.0508 19.1736 10.9265 19.8261 10.9265 20.4787C10.9265 20.8827 10.9887 21.2866 11.0819 21.6594L14.4378 24.0832L14.8417 27.3769H18.9124L19.4717 27.8121C19.6271 27.9053 19.8135 27.9674 20 27.9674C20.1864 27.9674 20.3729 27.9363 20.5284 27.8121L21.1496 27.3769H25.1893L25.5933 24.0832L28.9493 21.6594C29.0425 21.2556 29.1044 20.8827 29.1044 20.4787C29.1044 19.8261 28.9802 19.1736 28.7006 18.5832L22.7655 24.5803Z" fill="#FBCE07"/>
</g>
<defs>
<clipPath id="clip0_9_399315">
<rect width="22" height="20.372" fill="white" transform="translate(9 9.5)"/>
</clipPath>
</defs>
</svg>
