<svg width="40" height="40" viewBox="0 0 40 40" fill="none" xmlns="http://www.w3.org/2000/svg">
<circle cx="20" cy="20" r="20" fill="#F6F8FA"/>
<circle cx="20" cy="20" r="20" fill="#0046FF"/>
<circle cx="20" cy="20" r="19.5" stroke="black" stroke-opacity="0.04"/>
<path d="M20.0001 9.52344C17.9281 9.52344 15.9027 10.1379 14.1799 11.289C12.4571 12.4401 11.1143 14.0763 10.3214 15.9906C9.52847 17.9048 9.321 20.0112 9.72523 22.0434C10.1295 24.0756 11.1272 25.9423 12.5923 27.4074C14.0575 28.8725 15.9241 29.8703 17.9563 30.2745C19.9885 30.6787 22.0949 30.4713 24.0092 29.6784C25.9235 28.8854 27.5596 27.5427 28.7108 25.8199C29.8619 24.0971 30.4763 22.0716 30.4763 19.9996C30.4765 18.6238 30.2057 17.2614 29.6793 15.9903C29.1529 14.7192 28.3812 13.5642 27.4084 12.5914C26.4355 11.6185 25.2805 10.8469 24.0094 10.3205C22.7383 9.79406 21.3759 9.52323 20.0001 9.52344ZM20.2188 28.5568C18.9604 28.7329 16.9265 28.4152 15.5438 27.5422C14.5014 26.8944 13.6684 25.9593 13.145 24.8492C12.6731 23.8566 12.4418 22.647 12.9499 22.7131C13.189 22.7398 13.3951 23.1928 13.8544 23.7811C14.169 24.1822 14.4584 24.5204 14.6771 24.5676C14.7746 24.5881 14.8564 24.544 14.9256 24.4103C15.0562 24.1602 15.2308 23.6867 15.5454 23.3092C15.7986 23.0151 16.1054 22.8782 16.2831 23.5955C16.367 23.9393 16.4316 24.2874 16.4766 24.6384C16.5332 25.0914 16.5615 25.3636 16.7188 25.4391C16.8761 25.5146 17.1247 25.4186 17.5384 25.2645C17.8341 25.1544 18.2132 25.0144 18.6945 24.8759C19.1381 24.7485 19.4197 24.8146 19.135 25.5051C18.9379 25.9633 18.6859 26.3959 18.3846 26.7934C18.3444 26.8446 18.3258 26.9095 18.3328 26.9742C18.3399 27.0389 18.372 27.0982 18.4224 27.1395C18.702 27.3614 19.0139 27.5391 19.3473 27.6664C19.6576 27.7955 19.9754 27.9058 20.299 27.9968C20.6938 28.1022 20.6167 28.5001 20.2188 28.5552V28.5568ZM25.5953 26.3026C25.2068 26.9318 24.3888 27.624 23.3931 28.0801C23.2358 28.1478 23.0785 28.1257 23.0423 28.0046C23.0061 27.8835 23.0911 27.7765 23.1886 27.6601C24.4816 25.9833 23.5221 24.4481 21.4363 23.2557C19.8963 22.3749 18.9195 21.8684 17.779 21.1998C14.449 19.2383 13.8056 17.53 13.6751 16.5186C13.3463 13.9656 15.4573 12.0528 17.628 11.5919C17.6957 11.5793 17.8687 11.551 17.9253 11.6942C17.982 11.8373 17.853 11.9443 17.7775 11.9899C16.8054 12.5231 15.8521 13.6589 15.9559 14.9188C16.0141 15.6235 16.3161 16.6365 18.2211 17.9956C19.3709 18.8152 20.7803 19.4884 23.6212 21.192C26.6225 22.9915 26.2811 25.1795 25.5953 26.3026ZM26.0672 16.7215C25.3814 17.5615 24.6971 17.2484 24.1701 16.0687C23.8414 15.331 23.4072 15.1548 23.1021 15.3467C22.7702 15.5575 22.9023 16.0624 23.2751 16.6444C23.3806 16.8134 23.4262 17.0129 23.4045 17.211C23.3829 17.409 23.2952 17.594 23.1556 17.7361C22.8897 18.0145 22.454 18.1246 21.979 18.0192C21.1327 17.8336 20.3037 16.7026 20.9093 14.233C21.1547 13.2357 20.6765 12.8173 20.3729 12.4256C20.2156 12.2337 20.203 12.1189 20.2581 12.0402C20.3131 11.9616 20.4579 11.9506 20.7064 12.0025C21.032 12.0717 21.5149 12.2384 21.9066 12.2982C22.1936 12.3389 22.4838 12.3526 22.7733 12.3391C23.4961 12.2879 24.2195 12.4307 24.8686 12.7528C25.9476 13.2861 26.0577 14.2047 25.4569 14.1323C25.2127 14.0687 24.9787 13.9713 24.7616 13.8429C24.6137 13.7721 24.4863 13.7485 24.3919 13.8162C24.3447 13.8554 24.3126 13.9098 24.3012 13.97C24.2897 14.0303 24.2995 14.0927 24.329 14.1465C24.4627 14.4281 24.9157 14.5743 25.5292 14.7442C26.6036 15.0384 26.6256 16.0341 26.0672 16.7215Z" fill="white"/>
<circle cx="20" cy="20" r="19.5" stroke="black" stroke-opacity="0.05"/>
</svg>
