<svg width="40" height="40" viewBox="0 0 40 40" fill="none" xmlns="http://www.w3.org/2000/svg">
<circle cx="20" cy="20" r="20" fill="#1E1E23"/>
<g clip-path="url(#clip0_9_395548)">
<path d="M20.3948 13.9287H19.6176C19.6176 13.9287 18.7859 13.3398 18.7859 12.1073C18.7859 10.5105 20.0001 9.67871 20.0001 9.67871C20.0001 9.67871 21.2144 10.553 21.2144 12.1073C21.2144 13.3823 20.3948 13.9287 20.3948 13.9287ZM19.6055 26.0716H20.3826C20.3826 26.0716 21.2144 26.6605 21.2144 27.893C21.2144 29.4898 20.0001 30.3216 20.0001 30.3216C20.0001 30.3216 18.7859 29.4473 18.7859 27.893C18.7859 26.618 19.6055 26.0716 19.6055 26.0716ZM13.9287 20.3826V19.6055C13.9287 19.6055 13.3823 18.7859 12.1073 18.7859C10.553 18.7859 9.67871 20.0001 9.67871 20.0001C9.67871 20.0001 10.5105 21.2144 12.1073 21.2144C13.3398 21.2144 13.9287 20.3826 13.9287 20.3826ZM26.0716 20.3948V19.6176C26.0716 19.6176 26.6605 18.7859 27.893 18.7859C29.4898 18.7859 30.3216 20.0001 30.3216 20.0001C30.3216 20.0001 29.4473 21.2144 27.893 21.2144C26.618 21.2144 26.0716 20.3948 26.0716 20.3948ZM17.2923 25.4462L16.6244 25.0637C16.6244 25.0637 15.6409 25.1244 15.0034 26.2234C14.2262 27.5773 14.8394 28.9373 14.8394 28.9373C14.8394 28.9373 16.3087 28.8219 17.1041 27.4376C17.7234 26.3751 17.2923 25.4462 17.2923 25.4462ZM23.3759 14.9426L22.708 14.5541C22.708 14.5541 22.283 13.6251 22.8901 12.5626C23.6916 11.1784 25.1609 11.063 25.1609 11.063C25.1609 11.063 25.7741 12.423 24.9969 13.7769C24.8368 14.084 24.6066 14.349 24.325 14.5505C24.0433 14.7519 23.7182 14.8842 23.3759 14.9366V14.9426ZM14.9366 23.3637L14.548 22.6959C14.548 22.6959 13.6616 22.2587 12.5626 22.8962C11.2087 23.6734 11.063 25.1609 11.063 25.1609C11.063 25.1609 12.3926 25.7984 13.7769 24.9969C14.8394 24.3837 14.9305 23.3637 14.9305 23.3637H14.9366ZM25.4523 17.3044L25.0698 16.6366C25.0698 16.6366 25.1609 15.6166 26.2234 15.0034C27.6076 14.2019 28.9373 14.8394 28.9373 14.8394C28.9373 14.8394 28.7916 16.3269 27.4376 17.1041C26.3448 17.7416 25.4523 17.3044 25.4523 17.3044ZM16.6366 14.9366L17.3044 14.548C17.3044 14.548 17.7416 13.6616 17.1041 12.5626C16.3269 11.2087 14.8394 11.063 14.8394 11.063C14.8394 11.063 14.2019 12.3926 15.0034 13.7769C15.6166 14.8394 16.6366 14.9305 16.6366 14.9305V14.9366ZM22.6959 25.4523L23.3637 25.0698C23.3637 25.0698 24.3837 25.1609 24.9969 26.2234C25.7984 27.6076 25.1609 28.9373 25.1609 28.9373C25.1609 28.9373 23.6734 28.7916 22.8962 27.4376C22.2587 26.3448 22.6959 25.4523 22.6959 25.4523ZM14.5541 17.2923L14.9366 16.6244C14.9366 16.6244 14.8759 15.6409 13.7769 15.0034C12.423 14.2262 11.063 14.8394 11.063 14.8394C11.063 14.8394 11.1784 16.3087 12.5626 17.1041C13.6251 17.7234 14.5541 17.2923 14.5541 17.2923ZM25.0576 23.3759L25.4462 22.708C25.4462 22.708 26.3751 22.283 27.4376 22.8901C28.8219 23.6916 28.9373 25.1609 28.9373 25.1609C28.9373 25.1609 27.5773 25.7741 26.2234 24.9969C25.1305 24.3594 25.0637 23.3759 25.0637 23.3759H25.0576ZM21.2144 17.2862L20.9351 17.5716H19.0712L18.7859 17.2862L18.7919 15.5741L19.0712 15.2219C19.6886 15.1233 20.3177 15.1233 20.9351 15.2219L21.2144 15.5741V17.2862ZM21.2144 22.7141L20.9351 22.4287H19.0712L18.7859 22.7141V24.4869L19.0712 24.7723C19.3141 24.8087 19.7391 24.8573 20.0001 24.8573C20.2551 24.8573 20.6862 24.8087 20.9351 24.7723L21.2144 24.4809V22.7201V22.7141ZM20.9351 21.2144H19.0712L18.7859 20.9291V19.0651L19.0712 18.7859H20.9351L21.2144 19.0651V20.9291L20.9351 21.2144ZM22.7019 17.5716H23.643L23.9891 17.2255C23.6591 16.7522 23.248 16.3411 22.7748 16.0112L22.4287 16.3573V17.2862L22.7019 17.5716ZM17.2984 17.5716H16.3573L16.0112 17.2255C16.3411 16.7522 16.7522 16.3411 17.2255 16.0112L17.5716 16.3573V17.2862L17.2984 17.5716ZM23.643 22.4287H22.7019L22.4287 22.7141V23.643L22.7748 23.9891C23.248 23.6591 23.6591 23.248 23.9891 22.7748L23.643 22.4287ZM17.2984 22.4287H16.3573L16.0112 22.7748C16.3411 23.248 16.7522 23.6591 17.2255 23.9891L17.5716 23.643V22.7141L17.2984 22.4287ZM17.2862 21.2144L17.5716 20.9351V19.0712L17.2862 18.7859H15.5073L15.2219 19.0712C15.1855 19.3141 15.1369 19.7391 15.1369 20.0001C15.1369 20.2551 15.1855 20.6862 15.2219 20.9351L15.5134 21.2144H17.2741H17.2862ZM22.7141 21.2144L22.4287 20.9351V19.0712L22.7141 18.7859L24.4201 18.7919L24.7784 19.0712C24.877 19.6886 24.877 20.3177 24.7784 20.9351L24.4201 21.2144H22.7141Z" fill="#2DD254"/>
</g>
<circle cx="20" cy="20" r="19.5" stroke="black" stroke-opacity="0.05"/>
<defs>
<clipPath id="clip0_9_395548">
<rect width="22" height="22" fill="white" transform="translate(9 9)"/>
</clipPath>
</defs>
</svg>
