<svg width="40" height="40" viewBox="0 0 40 40" fill="none" xmlns="http://www.w3.org/2000/svg">
<circle cx="20" cy="20" r="20" fill="#1E1E23"/>
<g clip-path="url(#clip0_9_396171)">
<path d="M30.1784 17.2861H9.82129V25.7527L20.6784 30.8569L30.1784 25.583V17.2861Z" fill="white"/>
<path d="M27.4671 18.6433V27.0901L30.1814 25.5817L30.1787 12.5361L20.6787 16.6076V30.8576L23.393 29.3498V20.679C23.1168 20.5704 22.9628 20.2976 22.9628 20.0099C22.9628 19.632 23.2837 19.3218 23.7079 19.3218C24.132 19.3218 24.4624 19.6835 24.4624 20.0438C24.4624 20.2596 24.2589 20.5528 24.0743 20.679V28.9732L26.7859 27.4647V18.6433C26.5463 18.5347 26.3774 18.2565 26.3774 17.9864C26.3774 17.6085 26.7255 17.2861 27.1496 17.2861C27.573 17.2861 27.8648 17.6085 27.8648 17.9864C27.8648 18.2388 27.6694 18.5171 27.4671 18.6433Z" fill="#007BC6"/>
<path d="M9.82422 21.0454L16.2523 23.8683C16.3833 23.778 16.5509 23.7237 16.7382 23.7237C17.1684 23.7237 17.4439 24.078 17.4439 24.4559C17.4439 24.8332 17.1684 25.0904 16.7382 25.0904C16.346 25.0904 16.0284 24.8393 15.9538 24.5333L9.82422 21.8183V25.7554L20.6814 30.8576V21.3576L14.3272 18.6507C14.1963 18.7227 14.0476 18.8156 13.8794 18.8156C13.4491 18.8156 13.1506 18.5143 13.1506 18.1371C13.1506 17.7598 13.4491 17.449 13.8794 17.449C14.2906 17.449 14.5518 17.7299 14.5708 18.0719L20.6814 20.679V16.6076L9.82422 12.5361V21.0454Z" fill="#005197"/>
<path d="M9.82422 12.5354L20.0001 9.14258L30.1786 12.5354L20.6786 16.6069L9.82422 12.5354Z" fill="#22B2E9"/>
</g>
<circle cx="20" cy="20" r="19.5" stroke="black" stroke-opacity="0.05"/>
<defs>
<clipPath id="clip0_9_396171">
<rect width="22" height="22" fill="white" transform="translate(9 9)"/>
</clipPath>
</defs>
</svg>
