<svg width="40" height="40" viewBox="0 0 40 40" fill="none" xmlns="http://www.w3.org/2000/svg">
<circle cx="20" cy="20" r="20" fill="#0E557E"/>
<g clip-path="url(#clip0_9_387835)">
<path d="M5.29848 18.3405C4.70888 19.6405 4.69208 20.9381 5.24808 22.2333C5.36088 22.4961 5.54568 22.7349 5.68008 22.9893C5.7056 23.0396 5.71199 23.0972 5.69808 23.1513C5.67328 23.2481 5.62808 23.3125 5.56248 23.3445C5.39448 23.4261 5.25808 23.3897 5.15328 23.2353C3.93648 21.4485 3.95808 19.2681 5.13768 17.4657C5.23208 17.3217 5.36088 17.2773 5.52408 17.3325C5.55688 17.3437 5.58528 17.3625 5.60928 17.3889C5.69488 17.4817 5.71408 17.5865 5.66688 17.7033C5.57688 17.9253 5.39448 18.1269 5.29848 18.3405Z" fill="#05AEED"/>
<path d="M35.5455 18.042C35.4459 17.8644 35.2299 17.67 35.3655 17.4456C35.3923 17.4015 35.4307 17.3657 35.4767 17.342C35.5226 17.3182 35.5742 17.3076 35.6259 17.3112C35.7227 17.3176 35.8003 17.364 35.8587 17.4504C37.0779 19.2408 37.0467 21.4104 35.8767 23.2128C35.7823 23.3584 35.6515 23.4084 35.4843 23.3628C35.4467 23.3532 35.4159 23.3324 35.3919 23.3004C35.3095 23.1924 35.2975 23.0772 35.3559 22.9548C35.4723 22.7112 35.6499 22.4868 35.7579 22.2348C36.3747 20.798 36.3039 19.4004 35.5455 18.042Z" fill="#05AEED"/>
<path d="M6.17072 22.468C5.21792 21.2644 5.25272 19.5412 6.11672 18.3112C6.16712 18.24 6.22792 18.1832 6.29912 18.1408C6.52712 18.0064 6.83792 18.2932 6.66992 18.5368C5.83632 19.7472 5.83592 20.9612 6.66872 22.1788C6.68886 22.2082 6.70183 22.242 6.70662 22.2774C6.71142 22.3128 6.70789 22.3489 6.69632 22.3828C6.61352 22.6204 6.32912 22.6672 6.17072 22.468Z" fill="#05AEED"/>
<path d="M34.7823 18.1809C35.8431 19.4397 35.7459 21.2193 34.8231 22.5057C34.7961 22.5433 34.7593 22.5726 34.7167 22.5904C34.6741 22.6082 34.6274 22.6138 34.5819 22.6065C34.5027 22.5945 34.4411 22.5657 34.3971 22.5201C34.2835 22.4009 34.2731 22.2733 34.3659 22.1373C35.1907 20.9285 35.1767 19.7213 34.3239 18.5157C34.2923 18.4713 34.2781 18.4167 34.2841 18.3625C34.29 18.3083 34.3158 18.2582 34.3563 18.2217L34.4283 18.1557C34.453 18.1336 34.4819 18.1168 34.5132 18.1061C34.5445 18.0954 34.5777 18.091 34.6107 18.0934C34.6437 18.0957 34.6759 18.1047 34.7054 18.1197C34.7349 18.1348 34.761 18.1556 34.7823 18.1809Z" fill="#05AEED"/>
<path d="M13.1327 18.3155L12.1439 18.3173C12.1074 18.3173 12.0779 18.3469 12.078 18.3834L12.079 18.9378C12.079 18.9742 12.1086 19.0037 12.1451 19.0037L13.1339 19.0019C13.1703 19.0019 13.1998 18.9723 13.1998 18.9358L13.1988 18.3814C13.1987 18.345 13.1691 18.3155 13.1327 18.3155Z" fill="#FEFFFE"/>
<path d="M16.72 18.3184H15.8152C15.7854 18.3184 15.7612 18.3425 15.7612 18.3724V18.9532C15.7612 18.983 15.7854 19.0072 15.8152 19.0072H16.72C16.7499 19.0072 16.774 18.983 16.774 18.9532V18.3724C16.774 18.3425 16.7499 18.3184 16.72 18.3184Z" fill="#FEFFFE"/>
<path d="M10.4789 21.0456C10.468 21.0037 10.446 20.9654 10.4152 20.9346C10.3844 20.9038 10.3459 20.8816 10.3037 20.8704C9.7973 20.7336 8.9261 20.67 8.5829 20.2368C8.1605 19.704 8.4413 18.972 9.0665 18.7344C9.8681 18.432 11.5601 18.4464 11.7077 19.608C11.7089 19.6167 11.7082 19.6256 11.7057 19.634C11.7032 19.6424 11.6988 19.6502 11.693 19.6568C11.6872 19.6634 11.6801 19.6687 11.672 19.6723C11.664 19.6759 11.6553 19.6777 11.6465 19.6776L10.5761 19.6668C10.5538 19.6665 10.5321 19.6592 10.5142 19.6458C10.4963 19.6324 10.4831 19.6137 10.4765 19.5924C10.3845 19.2988 10.1597 19.214 9.8021 19.338C9.77328 19.3479 9.74742 19.3649 9.72687 19.3875C9.70632 19.41 9.69173 19.4373 9.68445 19.4669C9.67717 19.4965 9.67743 19.5274 9.68519 19.5569C9.69296 19.5864 9.70798 19.6134 9.7289 19.6356C9.7849 19.6956 9.8565 19.7364 9.9437 19.758C10.6541 19.938 12.1277 20.0652 11.8169 21.2244C11.5469 22.2288 9.9737 22.218 9.1925 22.0332C8.6813 21.9132 8.3789 21.5984 8.2853 21.0888C8.28354 21.0795 8.28386 21.0698 8.28624 21.0606C8.28862 21.0514 8.293 21.0428 8.29907 21.0355C8.30514 21.0281 8.31276 21.0222 8.32137 21.0182C8.32998 21.0141 8.33938 21.012 8.3489 21.012L9.4649 21.0144C9.5169 21.0144 9.5537 21.0384 9.5753 21.0864C9.7025 21.3672 9.9365 21.4604 10.2773 21.366C10.4549 21.3172 10.5221 21.2104 10.4789 21.0456Z" fill="#FEFFFE"/>
<path d="M28.6012 19.0399C28.8616 18.7135 29.1016 18.5263 29.5564 18.5659C29.9316 18.5987 30.194 18.7759 30.3436 19.0975C30.3483 19.1075 30.3556 19.116 30.3646 19.1222C30.3737 19.1285 30.3842 19.1322 30.3952 19.1331C30.4062 19.1339 30.4171 19.1318 30.4271 19.1271C30.437 19.1223 30.4454 19.115 30.4516 19.1059C30.762 18.6451 31.2076 18.4763 31.7884 18.5995C32.5456 18.7615 32.7088 19.4575 32.7028 20.1367C32.6964 20.7751 32.6964 21.3831 32.7028 21.9607C32.7028 22.0103 32.6776 22.0351 32.6272 22.0351L31.414 22.0339C31.3668 22.0331 31.3432 22.0095 31.3432 21.9631L31.3444 19.9111C31.3444 19.7223 31.25 19.6259 31.0612 19.6219L31.012 19.6207C30.7824 19.6159 30.6676 19.7283 30.6676 19.9579V21.9787C30.6676 22.0163 30.6488 22.0351 30.6112 22.0351L29.3752 22.0339C29.3593 22.0339 29.3441 22.0277 29.3328 22.0167C29.3216 22.0057 29.3152 21.9907 29.3152 21.9751L29.3068 19.8583C29.3064 19.8058 29.289 19.7549 29.2571 19.7134C29.2253 19.6718 29.1808 19.6418 29.1304 19.6279C29.072 19.6127 29.0148 19.6079 28.9588 19.6135C28.7444 19.6375 28.6372 19.7571 28.6372 19.9723L28.6408 21.9571C28.6408 22.0099 28.6148 22.0363 28.5628 22.0363L27.3088 22.0387C27.3012 22.0387 27.2939 22.0356 27.2885 22.0299C27.2831 22.0243 27.28 22.0167 27.28 22.0087L27.2896 18.7063C27.2904 18.6735 27.3072 18.6571 27.34 18.6571L28.456 18.6535C28.4723 18.6535 28.4878 18.6601 28.4993 18.6718C28.5108 18.6835 28.5172 18.6994 28.5172 18.7159L28.5148 19.0087C28.514 19.1031 28.5428 19.1135 28.6012 19.0399Z" fill="#FEFFFE"/>
<path d="M25.0745 19.4197L25.4633 18.6841C25.4674 18.6765 25.4734 18.6702 25.4808 18.6658C25.4882 18.6613 25.4967 18.659 25.5053 18.6589L26.8781 18.6685C26.887 18.6685 26.8957 18.671 26.9033 18.6757C26.9109 18.6804 26.917 18.6871 26.921 18.6951C26.925 18.703 26.9267 18.712 26.9259 18.7208C26.9251 18.7297 26.9218 18.7382 26.9165 18.7453L25.8449 20.2465C25.839 20.2545 25.8358 20.2641 25.8356 20.2739C25.8353 20.2838 25.8382 20.2935 25.8437 20.3017L26.9729 21.9817C26.9777 21.989 26.9804 21.9975 26.9808 22.0062C26.9811 22.0149 26.9791 22.0236 26.9749 22.0312C26.9707 22.0389 26.9645 22.0452 26.957 22.0496C26.9494 22.054 26.9408 22.0563 26.9321 22.0561L25.5317 22.0405C25.5227 22.0406 25.514 22.0382 25.5063 22.0335C25.4987 22.0288 25.4925 22.0221 25.4885 22.0141L25.0625 21.1513C25.0586 21.1435 25.0525 21.1368 25.0451 21.1322C25.0376 21.1275 25.029 21.125 25.0203 21.1248C25.0115 21.1247 25.0028 21.127 24.9952 21.1315C24.9877 21.1359 24.9815 21.1424 24.9773 21.1501L24.5405 22.0069C24.5365 22.0149 24.5303 22.0216 24.5227 22.0263C24.515 22.031 24.5062 22.0334 24.4973 22.0333L23.0957 22.0321C23.0869 22.0322 23.0782 22.0298 23.0707 22.0253C23.0631 22.0207 23.0569 22.0142 23.0528 22.0064C23.0488 21.9986 23.0469 21.9898 23.0475 21.981C23.048 21.9722 23.051 21.9637 23.0561 21.9565L24.2081 20.2909C24.2138 20.2828 24.2168 20.2732 24.2168 20.2633C24.2168 20.2535 24.2138 20.2438 24.2081 20.2357L23.1569 18.7201C23.1518 18.7129 23.1488 18.7044 23.1483 18.6957C23.1477 18.6869 23.1496 18.6781 23.1536 18.6703C23.1577 18.6624 23.1639 18.6559 23.1715 18.6514C23.179 18.6468 23.1877 18.6445 23.1965 18.6445L24.5681 18.6529C24.5768 18.6531 24.5854 18.6556 24.5928 18.6603C24.6002 18.6649 24.6062 18.6715 24.6101 18.6793L24.9893 19.4197C24.9933 19.4275 24.9995 19.4341 25.007 19.4386C25.0145 19.4432 25.0231 19.4456 25.0319 19.4456C25.0407 19.4456 25.0493 19.4432 25.0568 19.4386C25.0643 19.4341 25.0704 19.4275 25.0745 19.4197Z" fill="#FEFFFE"/>
<path d="M7.71288 21.4392C7.73253 21.4661 7.74632 21.4969 7.75335 21.5295C7.76038 21.5622 7.76049 21.596 7.75368 21.6288C7.73288 21.7288 7.68768 21.7976 7.61808 21.8352C7.46048 21.9208 7.32568 21.8936 7.21368 21.7536C6.55728 20.9364 6.56208 19.7772 7.19208 18.9468C7.28888 18.8196 7.41288 18.7808 7.56408 18.8304C7.59208 18.8392 7.61608 18.8536 7.63608 18.8736C7.76728 18.9976 7.78128 19.1332 7.67808 19.2804C7.17648 19.9972 7.18808 20.7168 7.71288 21.4392Z" fill="#05AEED"/>
<path d="M33.3387 21.3812C33.8391 20.738 33.8103 19.9328 33.3267 19.2704C33.3031 19.2382 33.2868 19.2009 33.2791 19.1613C33.2715 19.1217 33.2726 19.0807 33.2823 19.0412C33.3471 18.7772 33.6531 18.7316 33.8163 18.9368C34.4751 19.7624 34.4103 20.882 33.8307 21.7292C33.7267 21.882 33.5883 21.9252 33.4155 21.8588C33.3923 21.85 33.3723 21.8364 33.3555 21.818C33.2275 21.6772 33.2219 21.5316 33.3387 21.3812Z" fill="#05AEED"/>
<path d="M14.5528 19.7341C14.72 19.3773 15.01 19.2097 15.4228 19.2313C15.4724 19.2337 15.4968 19.2593 15.496 19.3081L15.4924 20.2453C15.4924 20.2989 15.4656 20.3237 15.412 20.3197C14.8648 20.2753 14.5864 20.4949 14.5948 21.0481C14.6004 21.3729 14.6 21.6929 14.5936 22.0081C14.5928 22.0337 14.5796 22.0465 14.554 22.0465L13.5424 22.0417C13.504 22.0417 13.4848 22.0221 13.4848 21.9829L13.4812 19.4377C13.4812 19.3633 13.5184 19.3261 13.5928 19.3261L14.3836 19.3273C14.458 19.3273 14.4908 19.3641 14.482 19.4377C14.4708 19.5361 14.4744 19.6325 14.4928 19.7269C14.5056 19.7909 14.5256 19.7933 14.5528 19.7341Z" fill="#FEFFFE"/>
<path d="M21.4023 20.0402C21.4103 20.0769 21.4284 20.1105 21.4545 20.1372C21.4806 20.164 21.5137 20.1828 21.5499 20.1914C21.9879 20.2946 22.6467 20.381 22.9707 20.699C23.2731 20.9966 23.1795 21.5186 22.8867 21.7838C22.4619 22.169 21.6783 22.175 21.1515 22.0826C20.6627 21.997 20.3695 21.7366 20.2719 21.3014C20.2694 21.2903 20.2694 21.2788 20.272 21.2676C20.2745 21.2565 20.2796 21.2461 20.2867 21.2372C20.2939 21.2283 20.303 21.2212 20.3133 21.2163C20.3236 21.2114 20.3349 21.2089 20.3463 21.209L21.1983 21.2126C21.2399 21.2126 21.2743 21.2286 21.3015 21.2606C21.3239 21.2886 21.3399 21.3202 21.3495 21.3554C21.3607 21.3954 21.3831 21.427 21.4167 21.4502C21.5855 21.5646 21.7639 21.5734 21.9519 21.4766C21.9757 21.4644 21.9964 21.4471 22.0128 21.426C22.0292 21.4048 22.0407 21.3804 22.0467 21.3543C22.0526 21.3283 22.0528 21.3013 22.0472 21.2751C22.0416 21.249 22.0304 21.2244 22.0143 21.203C21.9671 21.1406 21.9035 21.1002 21.8235 21.0818C21.3027 20.9606 20.3907 20.9054 20.3511 20.1794C20.3283 19.7522 20.6139 19.433 21.0135 19.3262C21.6831 19.1462 22.8339 19.163 23.0391 20.0078C23.0535 20.0686 23.0299 20.0986 22.9683 20.0978L22.1247 20.0822C22.0815 20.0814 22.0499 20.0614 22.0299 20.0222C21.9331 19.8286 21.7591 19.7746 21.5079 19.8602C21.4191 19.8906 21.3839 19.9506 21.4023 20.0402Z" fill="#FEFFFE"/>
<path d="M13.114 19.3252H12.1516C12.1125 19.3252 12.0808 19.3569 12.0808 19.396V21.976C12.0808 22.0151 12.1125 22.0468 12.1516 22.0468H13.114C13.1531 22.0468 13.1848 22.0151 13.1848 21.976V19.396C13.1848 19.3569 13.1531 19.3252 13.114 19.3252Z" fill="#FEFFFE"/>
<path d="M16.7177 19.3271H15.8153C15.7881 19.3271 15.7661 19.3492 15.7661 19.3763V21.9947C15.7661 22.0219 15.7881 22.0439 15.8153 22.0439H16.7177C16.7449 22.0439 16.7669 22.0219 16.7669 21.9947V19.3763C16.7669 19.3492 16.7449 19.3271 16.7177 19.3271Z" fill="#FEFFFE"/>
<path d="M19.0948 21.7403C18.6964 22.1155 18.2452 22.2239 17.7412 22.0655C17.35 21.9431 17.1452 21.6343 17.1268 21.1391C17.1076 20.6223 17.1036 20.0423 17.1148 19.3991C17.1156 19.3479 17.1416 19.3223 17.1928 19.3223L18.1324 19.3307C18.1421 19.3307 18.1518 19.3326 18.1607 19.3364C18.1697 19.3401 18.1778 19.3456 18.1846 19.3525C18.1914 19.3595 18.1968 19.3677 18.2004 19.3767C18.204 19.3857 18.2058 19.3954 18.2056 19.4051C18.1992 19.8851 18.2008 20.3595 18.2104 20.8283C18.22 21.3155 18.7 21.4295 19.0264 21.1547C19.0667 21.1212 19.0991 21.0793 19.1215 21.0321C19.1439 20.9848 19.1557 20.9333 19.156 20.8811L19.1692 19.4027C19.1695 19.3844 19.1769 19.367 19.1897 19.3542C19.2025 19.3414 19.2197 19.3343 19.2376 19.3343L20.0692 19.3295C20.1092 19.3295 20.1292 19.3495 20.1292 19.3895V21.9599C20.1292 22.0199 20.0996 22.0491 20.0404 22.0475L19.2364 22.0331C19.1788 22.0323 19.152 22.0035 19.156 21.9467L19.1656 21.7739C19.1704 21.7035 19.1468 21.6923 19.0948 21.7403Z" fill="#FEFFFE"/>
</g>
<circle cx="20" cy="20" r="19.5" stroke="black" stroke-opacity="0.05"/>
<defs>
<clipPath id="clip0_9_387835">
<rect width="36" height="7.2" fill="white" transform="translate(2.5 16.4004)"/>
</clipPath>
</defs>
</svg>
