<svg width="40" height="40" viewBox="0 0 40 40" fill="none" xmlns="http://www.w3.org/2000/svg">
<circle cx="20" cy="20" r="20" fill="#77A22F"/>
<g clip-path="url(#clip0_9_404325)">
<path d="M9.14258 22.7147L19.9997 7.78613L30.8569 22.7147L26.1069 30.8576H14.5711L9.14258 22.7147Z" fill="white"/>
<path d="M12.5361 22.7147L15.929 28.1433H18.2897C18.361 26.7047 18.5015 23.7617 18.4947 23.4964C18.4879 23.2311 18.2619 23.2515 18.15 23.2949C17.7903 23.5127 17.014 23.9775 16.7874 24.0888C16.5614 24.2015 16.4203 24.1363 16.3775 24.0888C16.2411 23.9022 15.946 23.4815 15.8591 23.2949C15.7729 23.1076 15.8231 22.9739 15.8591 22.9305L19.3218 17.9647H20.679L21.6365 28.1433H24.0718L27.4647 22.7147L20.0004 12.5361L12.5361 22.7147Z" fill="#77A22F"/>
</g>
<circle cx="20" cy="20" r="19.5" stroke="black" stroke-opacity="0.05"/>
<defs>
<clipPath id="clip0_9_404325">
<rect width="22" height="24" fill="white" transform="translate(9 7)"/>
</clipPath>
</defs>
</svg>
