<svg width="40" height="40" viewBox="0 0 40 40" fill="none" xmlns="http://www.w3.org/2000/svg">
<circle cx="20" cy="20" r="20" fill="#F6F8FA"/>
<g clip-path="url(#clip0_9_401410)">
<path d="M17.2343 14.0596C16.3339 14.2245 14.9984 15.0197 15.0025 16.4251C15.0059 17.7008 16.0794 18.4744 16.0828 20.1477C16.0882 21.4058 15.3751 22.2526 14.6035 22.7229C14.9157 22.6957 15.2563 22.6781 15.6322 22.6774C16.4207 22.6754 16.8957 22.7487 16.9249 22.7534L20.9665 17.9329C19.942 16.4469 18.6813 15.1385 17.2343 14.0596Z" fill="#E1002A"/>
<path d="M20.6294 27.077C21.139 26.3069 21.2028 25.08 21.2462 23.8301C21.2937 22.665 21.5441 21.7876 23.1483 21.7822C23.5038 21.7808 23.8425 21.829 24.4552 21.8269C26.8051 21.8168 28.3393 21.0303 29.2934 20.5139C27.3439 19.306 24.498 18.071 20.9667 17.9326C20.736 18.5637 18.9472 23.4005 18.8115 23.7907C18.8319 23.8145 19.1454 24.1558 19.5369 24.8222C19.9836 25.5307 20.35 26.2874 20.6294 27.077Z" fill="#E1002A"/>
<path d="M12.094 23.1263C11.8897 23.1277 11.7886 22.996 11.7601 22.7667C11.7343 22.5394 10.7239 13.5517 10.5726 12.1911C10.5516 11.9923 10.5007 11.6279 10.5 11.4976C10.5 11.2886 10.6398 11.1787 10.8054 11.1787C11.2844 11.1767 13.8942 11.7711 16.6635 13.6582C15.8655 13.8767 14.4221 14.6835 14.4289 16.3542C14.4337 17.8328 15.5228 18.6464 15.5282 20.1298C15.537 22.5421 12.685 23.1256 12.094 23.1263ZM20.8618 27.7189C20.9052 27.8309 20.9459 27.9245 20.9873 27.9903C21.0511 28.0955 21.1339 28.1437 21.2357 28.143C21.3158 28.138 21.3941 28.1175 21.4664 28.0826C21.6795 27.9876 30.1182 24.1693 31.3905 23.5986C31.5751 23.5124 31.9245 23.3604 32.0399 23.2946C32.1593 23.2288 32.2143 23.1318 32.2143 23.0334C32.2134 22.9762 32.1964 22.9205 32.1654 22.8725C32.006 22.6221 31.1896 21.78 29.8244 20.8599C28.7414 21.4394 27.049 22.3365 24.5315 22.3466C23.914 22.3466 23.7749 22.3073 23.3535 22.3086C22.1246 22.3127 21.8179 22.8244 21.7724 23.8714C21.7656 24.0689 21.7616 24.3349 21.75 24.6273C21.7114 25.5638 21.5974 26.8544 20.8611 27.7189H20.8618Z" fill="#EE7602"/>
</g>
<circle cx="20" cy="20" r="19.5" stroke="black" stroke-opacity="0.05"/>
<defs>
<clipPath id="clip0_9_401410">
<rect width="23" height="18" fill="white" transform="translate(10 11)"/>
</clipPath>
</defs>
</svg>
