<svg width="40" height="40" viewBox="0 0 40 40" fill="none" xmlns="http://www.w3.org/2000/svg">
<circle cx="20" cy="20" r="20" fill="#002D5B"/>
<g clip-path="url(#clip0_9_398488)">
<path d="M23.8568 19.9997C23.8568 20.5062 23.7571 21.0078 23.5632 21.4758C23.3694 21.9437 23.0853 22.3689 22.7271 22.7271C22.3689 23.0853 21.9437 23.3694 21.4758 23.5632C21.0078 23.7571 20.5062 23.8568 19.9997 23.8568C19.4932 23.8568 18.9916 23.7571 18.5236 23.5632C18.0557 23.3694 17.6305 23.0853 17.2723 22.7271C16.9141 22.3689 16.63 21.9437 16.4362 21.4758C16.2423 21.0078 16.1426 20.5062 16.1426 19.9997C16.1426 18.9767 16.549 17.9957 17.2723 17.2723C17.9957 16.549 18.9767 16.1426 19.9997 16.1426C21.0227 16.1426 22.0038 16.549 22.7271 17.2723C23.4505 17.9957 23.8568 18.9767 23.8568 19.9997Z" fill="white"/>
<path d="M27.9392 17.7114C27.4442 17.7114 26.1842 17.66 25.2392 17.1971C24.2591 16.731 23.4481 15.9717 22.9185 15.0243C22.4098 14.0371 22.1745 12.9317 22.2371 11.8229L22.2821 11.3536C22.2916 11.2575 22.3362 11.1683 22.4074 11.103C22.4785 11.0378 22.5713 11.0011 22.6678 11H28.6078C28.659 11 28.7097 11.0102 28.7569 11.03C28.8041 11.0497 28.8469 11.0787 28.8828 11.1152C28.9187 11.1517 28.947 11.195 28.966 11.2426C28.985 11.2901 28.9944 11.341 28.9935 11.3921V17.3C28.992 17.3996 28.9526 17.4949 28.8834 17.5666C28.8141 17.6382 28.7202 17.6808 28.6207 17.6857L28.1192 17.7114H27.9392ZM17.3321 28.9999H11.3857C11.2839 28.9983 11.1868 28.9571 11.1148 28.8851C11.0428 28.8132 11.0017 28.716 11 28.6142V22.7128C10.9999 22.611 11.0395 22.5132 11.1103 22.44C11.1811 22.3668 11.2775 22.324 11.3793 22.3207L11.8807 22.3014H12.0543C12.5557 22.3014 13.8157 22.3528 14.7671 22.8221C15.744 23.2876 16.5525 24.0445 17.0814 24.9885C17.5908 25.9732 17.8262 27.0767 17.7628 28.1835L17.7178 28.6528C17.7069 28.7477 17.6616 28.8354 17.5906 28.8993C17.5196 28.9632 17.4277 28.999 17.3321 28.9999ZM28.6014 28.9999H22.7C22.5988 29 22.5016 28.9602 22.4295 28.8893C22.3573 28.8183 22.3159 28.7218 22.3143 28.6207L22.2885 28.1257V27.9521C22.2885 27.4571 22.34 26.1907 22.8028 25.2328C23.2687 24.2562 24.0255 23.4477 24.9692 22.9185C25.9584 22.4082 27.0657 22.1708 28.1771 22.2307L28.6464 22.2757C28.7436 22.2853 28.8337 22.3308 28.899 22.4033C28.9644 22.4759 29.0004 22.5702 28.9999 22.6678V28.6014C29.0008 28.654 28.9911 28.7062 28.9714 28.7549C28.9517 28.8037 28.9223 28.848 28.8851 28.8851C28.848 28.9223 28.8037 28.9517 28.7549 28.9714C28.7062 28.9911 28.654 29.0008 28.6014 28.9999ZM12.17 17.7886C12.0414 17.7886 11.9257 17.7886 11.8229 17.7757L11.3536 17.7307C11.2564 17.7211 11.1663 17.6756 11.1009 17.603C11.0355 17.5305 10.9995 17.4362 11 17.3386V11.3921C11 11.2881 11.0413 11.1884 11.1149 11.1149C11.1884 11.0413 11.2881 11 11.3921 11H17.2871C17.3878 11.0016 17.484 11.0419 17.5559 11.1125C17.6277 11.1831 17.6696 11.2786 17.6728 11.3793L17.6986 11.8807V12.0607C17.6986 12.5621 17.6471 13.8221 17.1843 14.7736C16.7191 15.7507 15.9622 16.5593 15.0178 17.0878C14.1377 17.5451 13.1618 17.7874 12.17 17.795V17.7886Z" fill="#2E8FC6"/>
</g>
<circle cx="20" cy="20" r="19.5" stroke="black" stroke-opacity="0.05"/>
<defs>
<clipPath id="clip0_9_398488">
<rect width="18" height="18" fill="white" transform="translate(11 11)"/>
</clipPath>
</defs>
</svg>
