<svg width="40" height="40" viewBox="0 0 40 40" fill="none" xmlns="http://www.w3.org/2000/svg">
<circle cx="20" cy="20" r="20" fill="#F6F8FA"/>
<path d="M12.2801 19.9744C11.566 19.9744 10.9421 19.73 10.4072 19.2412L10.8817 18.6651C11.3302 19.0629 11.8028 19.2613 12.2992 19.2613C12.5427 19.2613 12.7363 19.2086 12.8801 19.1041C13.0229 18.9996 13.0948 18.8597 13.0948 18.6843V18.6709C13.0948 18.5003 13.0267 18.3651 12.8897 18.2645C12.7526 18.1639 12.4833 18.0661 12.0817 17.9693C11.8248 17.9041 11.6111 17.838 11.4405 17.7728C11.2689 17.7076 11.1155 17.6223 10.9785 17.5169C10.8414 17.4124 10.7417 17.284 10.6804 17.1335C10.6181 16.983 10.5874 16.8048 10.5874 16.5996V16.5862C10.5874 16.1933 10.7302 15.8731 11.0168 15.6268C11.3034 15.3805 11.6705 15.2568 12.12 15.2568C12.7353 15.2568 13.2788 15.4495 13.7484 15.8329L13.3248 16.4425C12.9098 16.1281 12.5044 15.9709 12.1066 15.9709C11.8842 15.9709 11.7069 16.0227 11.5746 16.1252C11.4424 16.2278 11.3762 16.3581 11.3762 16.5153V16.5287C11.3762 16.708 11.4481 16.846 11.5909 16.9447C11.7337 17.0425 12.0175 17.1441 12.4411 17.2495C12.9366 17.3722 13.3018 17.5342 13.5347 17.7373C13.7676 17.9405 13.8845 18.2252 13.8845 18.5923V18.6057C13.8845 19.0294 13.7369 19.3639 13.4417 19.6083C13.1465 19.8517 12.7593 19.9744 12.2801 19.9744Z" fill="#1D1E1C"/>
<path d="M15.6345 19.9812C15.2578 19.9812 14.9635 19.8614 14.7498 19.6208C14.5361 19.3802 14.4287 19.0572 14.4287 18.6508V16.4502H15.2051V18.4151C15.2051 18.6853 15.2683 18.8943 15.3939 19.0409C15.5204 19.1876 15.6987 19.2604 15.9297 19.2604C16.1559 19.2604 16.3399 19.1837 16.4808 19.0313C16.6217 18.878 16.6926 18.669 16.6926 18.4026V16.4502H17.469V19.9083H16.6926V19.3716C16.4233 19.778 16.0706 19.9812 15.6345 19.9812Z" fill="#1D1E1C"/>
<path d="M18.1875 19.9089V16.4498H18.9639V16.9741C19.2456 16.5773 19.5897 16.3779 19.9961 16.3779C20.4667 16.3779 20.8022 16.5811 21.0025 16.9875C21.3064 16.5811 21.6888 16.3779 22.1508 16.3779C22.5226 16.3779 22.8131 16.4939 23.023 16.7249C23.2319 16.9568 23.3373 17.2818 23.3373 17.7006V19.908H22.561V17.9431C22.561 17.668 22.5016 17.4581 22.3818 17.3144C22.2619 17.1706 22.0933 17.0987 21.8747 17.0987C21.6571 17.0987 21.4818 17.1744 21.3485 17.3249C21.2163 17.4754 21.1501 17.6862 21.1501 17.9565V19.9089H20.3738V17.9374C20.3738 17.6709 20.3134 17.4648 20.1945 17.3182C20.0747 17.1715 19.906 17.0987 19.6875 17.0987C19.469 17.0987 19.2945 17.1763 19.1613 17.3316C19.0281 17.4869 18.9629 17.6977 18.9629 17.9632V19.9089H18.1875Z" fill="#1D1E1C"/>
<path d="M24.0234 19.9089V16.4498H24.7998V16.9741C25.0816 16.5773 25.4257 16.3779 25.8321 16.3779C26.3027 16.3779 26.6381 16.5811 26.8385 16.9875C27.1423 16.5811 27.5247 16.3779 27.9867 16.3779C28.3586 16.3779 28.649 16.4939 28.8589 16.7249C29.0678 16.9568 29.1733 17.2818 29.1733 17.7006V19.908H28.3969V17.9431C28.3969 17.668 28.3375 17.4581 28.2177 17.3144C28.0979 17.1706 27.9292 17.0987 27.7107 17.0987C27.4921 17.0987 27.3177 17.1744 27.1845 17.3249C27.0512 17.4754 26.9861 17.6862 26.9861 17.9565V19.9089H26.2097V17.9374C26.2097 17.6709 26.1503 17.4648 26.0305 17.3182C25.9107 17.1715 25.742 17.0987 25.5234 17.0987C25.3049 17.0987 25.1305 17.1763 24.9972 17.3316C24.865 17.4869 24.7988 17.6977 24.7988 17.9632V19.9089H24.0234Z" fill="#1D1E1C"/>
<path d="M29.9033 19.9093V16.4502H30.6797V19.9083L29.9033 19.9093Z" fill="#1D1E1C"/>
<path d="M32.5721 19.9674C31.9223 19.9674 31.5974 19.6291 31.5974 18.9524V17.1313H31.168V16.4498H31.5974V15.5H32.3737V16.4498H33.2843V17.1313H32.3737V18.8278C32.3737 19.1163 32.5127 19.2601 32.7907 19.2601C32.9574 19.2601 33.1175 19.2208 33.2718 19.1422V19.7901C33.0657 19.9089 32.8328 19.9674 32.5721 19.9674Z" fill="#1D1E1C"/>
<path d="M15.1584 22.8384C15.0203 22.8384 14.9063 22.7981 14.8191 22.7186C14.7309 22.639 14.6868 22.5211 14.6868 22.3658V21.2377H14.4424V21.0863H14.6868V20.5361H14.8488V21.0863H15.4392V21.2377H14.8488V22.3486C14.8488 22.5719 14.9609 22.6831 15.1852 22.6831C15.2619 22.6831 15.3443 22.663 15.4325 22.6227V22.778C15.3462 22.8182 15.2552 22.8384 15.1584 22.8384Z" fill="#1D1E1C"/>
<path d="M15.8174 22.8089V20.3438H15.9794V21.4076C16.1135 21.1671 16.3158 21.0463 16.5861 21.0463C16.795 21.0463 16.9589 21.1124 17.0787 21.2437C17.1985 21.3751 17.258 21.5457 17.258 21.7556V22.8089H17.096V21.7862C17.096 21.606 17.049 21.4632 16.9541 21.3578C16.8592 21.2524 16.7289 21.1987 16.5621 21.1987C16.3953 21.1987 16.2564 21.2572 16.1452 21.3722C16.034 21.4882 15.9784 21.6348 15.9784 21.8131V22.8089H15.8174Z" fill="#1D1E1C"/>
<path d="M18.4483 22.8488C18.2221 22.8488 18.0275 22.7644 17.8665 22.5957C17.7045 22.427 17.624 22.2124 17.624 21.9507V21.944C17.624 21.6919 17.7007 21.4791 17.8531 21.3056C18.0055 21.1322 18.1953 21.0459 18.4215 21.0459C18.6525 21.0459 18.8384 21.1312 18.9803 21.3028C19.1221 21.4743 19.193 21.689 19.193 21.9478C19.193 21.9747 19.1921 21.9977 19.1902 22.0149H17.7956C17.8109 22.2219 17.8819 22.3868 18.0084 22.5095C18.1349 22.6322 18.2834 22.6935 18.455 22.6935C18.6745 22.6935 18.8672 22.6034 19.032 22.4232L19.1442 22.5248C18.9477 22.7405 18.7157 22.8488 18.4483 22.8488ZM17.7956 21.8663H19.0186C19.0052 21.6775 18.9467 21.5184 18.8442 21.39C18.7406 21.2616 18.5978 21.1973 18.4157 21.1973C18.2509 21.1973 18.11 21.2606 17.994 21.3881C17.8761 21.5155 17.8109 21.6747 17.7956 21.8663Z" fill="#1D1E1C"/>
<path d="M19.5664 22.8084V21.0861H19.7284V21.5759C19.7964 21.4187 19.8971 21.2912 20.0303 21.1944C20.1635 21.0976 20.3111 21.0525 20.4741 21.0592V21.2414H20.4578C20.2536 21.2414 20.0811 21.318 19.9402 21.4714C19.7993 21.6247 19.7293 21.8346 19.7293 22.103V22.8084H19.5664Z" fill="#1D1E1C"/>
<path d="M21.2973 22.849C21.1257 22.849 20.9743 22.8011 20.8439 22.7052C20.7136 22.6094 20.6475 22.4771 20.6475 22.3084V22.3017C20.6475 22.1263 20.7146 21.9892 20.8487 21.8896C20.9829 21.7899 21.1612 21.741 21.3826 21.741C21.5714 21.741 21.7574 21.7659 21.9395 21.8158V21.741C21.9395 21.5704 21.8916 21.4391 21.7947 21.349C21.6979 21.2589 21.5618 21.2138 21.3855 21.2138C21.2101 21.2138 21.0337 21.2599 20.8583 21.3519L20.7989 21.2062C21.0078 21.1075 21.2062 21.0576 21.396 21.0576C21.627 21.0576 21.8034 21.1209 21.927 21.2464C22.0411 21.3634 22.0986 21.5253 22.0986 21.7324V22.8059H21.9404V22.5193C21.788 22.7397 21.5743 22.849 21.2973 22.849ZM21.3069 22.6937C21.4823 22.6937 21.6328 22.6439 21.7574 22.5432C21.881 22.4436 21.9433 22.3161 21.9433 22.1637V21.9682C21.7459 21.9164 21.5551 21.8905 21.373 21.8905C21.1976 21.8905 21.0606 21.9269 20.9638 21.9998C20.867 22.0726 20.819 22.1704 20.819 22.2921V22.2988C20.819 22.4186 20.867 22.5135 20.9628 22.5854C21.0577 22.6573 21.1727 22.6937 21.3069 22.6937Z" fill="#1D1E1C"/>
<path d="M22.5801 23.3481V21.0862H22.7421V21.4715C22.9242 21.1878 23.1552 21.0459 23.4341 21.0459C23.6497 21.0459 23.8395 21.1283 24.0044 21.2922C24.1692 21.4561 24.2516 21.6727 24.2516 21.9401V21.9469C24.2516 22.2143 24.1692 22.4318 24.0044 22.5986C23.8395 22.7654 23.6497 22.8488 23.4341 22.8488C23.1484 22.8488 22.9175 22.7117 22.7421 22.4366V23.3481H22.5801ZM23.4178 22.6897C23.6066 22.6897 23.7638 22.6235 23.8893 22.4903C24.0149 22.3571 24.0772 22.1788 24.0772 21.9536V21.9469C24.0772 21.7264 24.013 21.5472 23.8846 21.4101C23.7561 21.2731 23.6008 21.204 23.4178 21.204C23.2347 21.204 23.0756 21.274 22.9385 21.4149C22.8015 21.5558 22.7325 21.7322 22.7325 21.943V21.9497C22.7325 22.1635 22.8015 22.3408 22.9385 22.4798C23.0746 22.6207 23.2347 22.6897 23.4178 22.6897Z" fill="#1D1E1C"/>
<path d="M25.3663 22.8488C25.1401 22.8488 24.9455 22.7644 24.7845 22.5957C24.6225 22.427 24.542 22.2124 24.542 21.9507V21.944C24.542 21.6919 24.6187 21.4791 24.7711 21.3056C24.9235 21.1322 25.1132 21.0459 25.3394 21.0459C25.5704 21.0459 25.7564 21.1312 25.8982 21.3028C26.0401 21.4743 26.111 21.689 26.111 21.9478C26.111 21.9747 26.11 21.9977 26.1081 22.0149H24.7136C24.7289 22.2219 24.7998 22.3868 24.9263 22.5095C25.0529 22.6322 25.2014 22.6935 25.373 22.6935C25.5925 22.6935 25.7851 22.6034 25.95 22.4232L26.0621 22.5248C25.8656 22.7405 25.6337 22.8488 25.3663 22.8488ZM24.7136 21.8663H25.9366C25.9231 21.6775 25.8647 21.5184 25.7621 21.39C25.6586 21.2616 25.5158 21.1973 25.3337 21.1973C25.1688 21.1973 25.0279 21.2606 24.912 21.3881C24.7941 21.5155 24.7289 21.6747 24.7136 21.8663Z" fill="#1D1E1C"/>
<path d="M27.1231 22.8495C26.9141 22.8495 26.7502 22.7834 26.6304 22.6521C26.5106 22.5208 26.4512 22.3502 26.4512 22.1403V21.0869H26.6132V22.1096C26.6132 22.2898 26.6601 22.4326 26.755 22.538C26.8499 22.6435 26.9802 22.6971 27.147 22.6971C27.3138 22.6971 27.4528 22.6396 27.564 22.5237C27.6751 22.4077 27.7307 22.261 27.7307 22.0828V21.0869H27.8927V22.8093H27.7307V22.4882C27.5956 22.7288 27.3933 22.8495 27.1231 22.8495Z" fill="#1D1E1C"/>
<path d="M28.966 22.8384C28.828 22.8384 28.7139 22.7981 28.6267 22.7186C28.5385 22.639 28.4944 22.5211 28.4944 22.3658V21.2377H28.25V21.0863H28.4944V20.5361H28.6564V21.0863H29.2468V21.2377H28.6564V22.3486C28.6564 22.5719 28.7685 22.6831 28.9928 22.6831C29.0695 22.6831 29.1519 22.663 29.2401 22.6227V22.778C29.1538 22.8182 29.0628 22.8384 28.966 22.8384Z" fill="#1D1E1C"/>
<path d="M29.6289 20.6373V20.4111H29.8302V20.6373H29.6289ZM29.6481 22.8092V21.0869H29.8101V22.8092H29.6481Z" fill="#1D1E1C"/>
<path d="M31.0902 22.8488C30.8506 22.8488 30.6474 22.7606 30.4816 22.5833C30.3158 22.4069 30.2324 22.197 30.2324 21.9535V21.9468C30.2324 21.7034 30.3158 21.4925 30.4826 21.3133C30.6494 21.1341 30.8516 21.0449 31.0893 21.0449C31.3395 21.0449 31.5637 21.1504 31.7621 21.3622L31.6471 21.4839C31.4669 21.2951 31.28 21.2002 31.0864 21.2002C30.8947 21.2002 30.7347 21.2721 30.6033 21.4149C30.472 21.5577 30.4069 21.7331 30.4069 21.9401V21.9468C30.4069 22.1539 30.474 22.3302 30.6081 22.475C30.7423 22.6197 30.9062 22.6925 31.0989 22.6925C31.3078 22.6925 31.4957 22.5967 31.6625 22.4059L31.7746 22.5075C31.58 22.7347 31.351 22.8488 31.0902 22.8488Z" fill="#1D1E1C"/>
<path d="M32.6755 22.8422C32.5547 22.8422 32.432 22.8192 32.3084 22.7732C32.1838 22.7272 32.0774 22.6668 31.9873 22.593L32.0832 22.4617C32.2748 22.6122 32.4752 22.6879 32.686 22.6879C32.802 22.6879 32.8988 22.6572 32.9764 22.5968C33.0531 22.5365 33.0915 22.4569 33.0915 22.3601V22.3534C33.0915 22.3151 33.0828 22.2796 33.0665 22.247C33.0502 22.2144 33.0292 22.1866 33.0042 22.1646C32.9793 22.1425 32.9448 22.1205 32.9017 22.1004C32.8585 22.0802 32.8193 22.0639 32.7828 22.0515C32.7464 22.039 32.7014 22.0246 32.6458 22.0093C32.5691 21.9873 32.5125 21.97 32.478 21.9585C32.4426 21.947 32.3937 21.9269 32.3295 21.8981C32.2653 21.8694 32.2193 21.8406 32.1895 21.8119C32.1598 21.7831 32.132 21.7457 32.1071 21.6968C32.0822 21.6489 32.0688 21.5952 32.0688 21.5368V21.5301C32.0688 21.3901 32.1205 21.2761 32.224 21.1869C32.3276 21.0978 32.4598 21.0537 32.6228 21.0537C32.8355 21.0537 33.0349 21.117 33.2199 21.2425L33.1346 21.3805C32.9649 21.2655 32.7924 21.208 32.617 21.208C32.503 21.208 32.41 21.2358 32.34 21.2924C32.2701 21.3489 32.2346 21.4208 32.2346 21.508V21.5147C32.2346 21.5512 32.2442 21.5847 32.2624 21.6163C32.2816 21.648 32.3026 21.6738 32.3285 21.694C32.3534 21.7141 32.3899 21.7352 32.4368 21.7563C32.4838 21.7774 32.525 21.7936 32.5585 21.8051C32.5921 21.8167 32.64 21.831 32.7023 21.8492C32.7857 21.8742 32.8538 21.8962 32.9065 21.9163C32.9592 21.9365 33.0157 21.9652 33.0761 22.0026C33.1365 22.04 33.1816 22.086 33.2113 22.1406C33.241 22.1962 33.2554 22.2595 33.2554 22.3313V22.3381C33.2554 22.4885 33.1998 22.6103 33.0886 22.7023C32.9784 22.7962 32.8403 22.8422 32.6755 22.8422Z" fill="#1D1E1C"/>
<path d="M13.2044 12.4158C14.9009 11.8542 16.6453 11.8446 18.4041 11.997C18.1041 11.788 17.7619 11.7027 17.4303 11.6059C13.8878 10.5679 10.0338 11.8724 7.87147 14.8206C5.42068 18.1618 5.64879 22.8526 8.5309 25.8228C10.443 27.7935 12.8028 28.6935 15.5258 28.5506C15.9542 28.5276 16.3779 28.4423 16.7708 28.2439C17.2616 27.9966 17.5251 27.6133 17.4993 27.0343C17.4772 26.5283 17.1859 26.2081 16.814 25.9436C15.9398 25.3225 14.968 24.8922 13.9913 24.482C12.5105 23.8599 11.136 23.0807 9.99927 21.9037C8.2702 20.1133 7.97307 17.4641 9.2785 15.3286C10.2015 13.8171 11.5922 12.9497 13.2044 12.4158Z" fill="url(#paint0_radial_9_394454)"/>
<path d="M30.6957 15.7215C30.6957 15.526 30.4993 15.3467 30.2846 15.3486C30.0766 15.3506 29.8906 15.525 29.8878 15.7215C29.8839 15.9209 30.0756 16.103 30.2893 16.103C30.4983 16.103 30.6957 15.917 30.6957 15.7215Z" fill="#0070C0"/>
<circle cx="20" cy="20" r="19.5" stroke="black" stroke-opacity="0.05"/>
<defs>
<radialGradient id="paint0_radial_9_394454" cx="0" cy="0" r="1" gradientTransform="matrix(-5.32247 -11.57 -12.2291 6.63189 14.4851 22.5904)" gradientUnits="userSpaceOnUse">
<stop stop-color="#2B388F"/>
<stop offset="0.5749" stop-color="#3998D3"/>
</radialGradient>
</defs>
</svg>
