<svg width="40" height="40" viewBox="0 0 40 40" fill="none" xmlns="http://www.w3.org/2000/svg">
<circle cx="20" cy="20" r="20" fill="#25317B"/>
<g clip-path="url(#clip0_9_406071)">
<path d="M25.5796 9H25.8243C26.4528 9.03024 27.0711 9.24908 27.5678 9.63351C28.2557 10.1547 28.7046 10.9768 28.7596 11.8378C28.8204 12.6427 28.5569 13.4749 28.0066 14.0738C27.8328 14.2783 27.6055 14.428 27.4288 14.6281C27.0479 15.0457 26.767 15.5654 26.6801 16.127C26.6005 16.6295 26.699 17.1492 26.9191 17.6056C27.1986 18.1873 27.6431 18.6725 28.1268 19.0944C28.8986 19.8071 29.1781 20.9719 28.8682 21.9653C28.7205 22.4433 28.428 22.8738 28.0414 23.1935C27.6822 23.4843 27.3926 23.8615 27.2159 24.2877C27.0494 24.6908 27.006 25.1458 27.1088 25.5706C27.2594 26.2069 27.675 26.7425 28.1413 27.186C28.5424 27.5791 28.8002 28.1233 28.8233 28.6863C28.8407 29.1556 28.7118 29.6322 28.4439 30.0209C28.0631 30.5954 27.3998 30.9683 26.7091 31H26.5049C26.0893 30.9798 25.6795 30.8459 25.3377 30.6098C24.8526 30.2787 24.5138 29.7503 24.4051 29.1772C24.3704 29.0001 24.3704 28.8187 24.3385 28.6402C24.2574 28.1103 24.088 27.5776 23.7535 27.1471C23.5088 26.8289 23.1685 26.5856 22.7876 26.4517C22.3503 26.2962 21.8724 26.2703 21.4148 26.3365C20.8138 26.456 20.1723 26.3768 19.6235 26.1047C18.7807 25.6929 18.1739 24.8348 18.0972 23.9004C18.0726 23.3777 17.9987 22.8537 17.8191 22.3613C17.6425 21.8674 17.3456 21.4067 16.9213 21.087C16.5173 20.7775 16.0163 20.6119 15.5123 20.5644C15.1604 21.0928 14.9751 21.7436 15.0764 22.3742C15.1865 23.1085 15.6224 23.7492 16.1364 24.2704C16.3247 24.4691 16.5521 24.6304 16.7273 24.8435C17.085 25.2624 17.3138 25.7894 17.3702 26.3365C17.4325 26.9124 17.3094 27.5071 17.0183 28.0096C16.5969 28.7496 15.8135 29.2751 14.962 29.3788C14.4117 29.4493 13.8412 29.3558 13.3459 29.1052C12.8405 28.8533 12.4177 28.4429 12.1498 27.9491C11.6792 27.0953 11.7052 25.9895 12.2381 25.1688C12.3511 24.9874 12.4916 24.8247 12.6364 24.6678C13.0331 24.2013 13.3749 23.6729 13.54 23.0797C13.6703 22.6233 13.6747 22.1309 13.5327 21.6774C13.3648 21.136 13.0143 20.6681 12.5915 20.2966C12.4684 20.1843 12.3163 20.1109 12.1874 20.0072C11.4764 19.4658 11.0348 18.6034 11 17.7151V17.4516C11.0333 16.8483 11.2389 16.2537 11.6053 15.7699C12.0484 15.1738 12.7146 14.7462 13.4459 14.5993C14.1945 14.4453 15.0011 14.572 15.6571 14.9636C16.3015 15.3408 16.7997 15.9614 17.0227 16.6726C17.1617 17.1103 17.1965 17.5797 17.1313 18.0332C17.1197 18.4508 17.208 18.8698 17.3688 19.2542C17.5715 19.7365 17.9278 20.1541 18.3825 20.419C18.953 20.7573 19.6293 20.8711 20.2853 20.874C20.5778 20.8812 20.8703 20.8336 21.1614 20.8711C21.9332 20.9474 22.6602 21.3678 23.1163 21.9912C23.4943 22.5067 23.684 23.1546 23.642 23.791C23.5739 24.472 23.7434 25.1962 24.1865 25.7304C24.5123 26.1234 24.9858 26.374 25.4796 26.4906C25.7447 25.9651 25.8605 25.3416 25.6824 24.77C25.539 24.2863 25.2233 23.8687 24.8425 23.5433C24.6875 23.4051 24.4993 23.3086 24.3472 23.1661C23.6941 22.5916 23.3509 21.7004 23.432 20.8394C23.474 20.334 23.6666 19.8445 23.9751 19.4414C24.0895 19.2859 24.2314 19.1548 24.3487 19.0022C24.7064 18.5559 25.0105 18.0548 25.1567 17.4976C25.2957 16.9808 25.2653 16.4192 25.0568 15.924C24.8106 15.3394 24.3689 14.8427 23.8389 14.4942C23.474 14.2207 23.1714 13.8636 22.9614 13.459C22.6587 12.886 22.553 12.2136 22.6558 11.5743C22.7644 10.876 23.1308 10.2209 23.6666 9.75733C24.1908 9.29516 24.8787 9.02592 25.5796 9Z" fill="white"/>
</g>
<circle cx="20" cy="20" r="19.5" stroke="black" stroke-opacity="0.05"/>
<defs>
<clipPath id="clip0_9_406071">
<rect width="18" height="22" fill="white" transform="translate(11 9)"/>
</clipPath>
</defs>
</svg>
