<svg width="40" height="40" viewBox="0 0 40 40" fill="none" xmlns="http://www.w3.org/2000/svg">
<circle cx="20" cy="20" r="20" fill="#F6F8FA"/>
<path d="M24.3604 14.5716L25.2175 15.7323L28.0461 17.1251L30.7889 16.9823L24.3604 14.5537V14.5716Z" fill="#8B9298"/>
<path d="M25.0967 21.1783L25.731 19.464L28.1481 17.5712L30.9424 17.3926L25.0967 21.1783Z" fill="#5C6670"/>
<path d="M19.2002 12.5176L19.6802 13.4104L21.6688 14.4461L23.7945 14.2319L19.2002 12.5176Z" fill="#FF8C44"/>
<path d="M18.7715 17.5894L19.5086 16.2859L21.6686 14.768L23.8115 14.5537L18.7715 17.5894Z" fill="#FF5000"/>
<path d="M18.7373 17.9639L19.3202 19.3567L21.7544 21.1424H24.4287L18.7373 17.9817V17.9639Z" fill="#EE666C"/>
<path d="M18.0859 25.7497L19.0459 23.7497L21.7545 21.6426H24.4631L18.1031 25.7497H18.0859Z" fill="#D70036"/>
<path d="M15.3262 11.0537L15.6176 11.768L17.0576 12.5537L18.7719 12.3394L15.3262 11.0537Z" fill="#43B6C2"/>
<path d="M14.314 15.1429L15.0854 14.0714L17.0226 12.8036L18.754 12.625L14.2969 15.125L14.314 15.1429Z" fill="#0096A9"/>
<path d="M14.2461 15.4287L14.5032 16.5001L16.1832 17.768L18.2404 17.6609L14.2461 15.4287Z" fill="#FFC25C"/>
<path d="M12.7715 21.304L13.7658 19.804L16.1143 18.1611L18.2058 18.0361L12.7715 21.304Z" fill="#F7A800"/>
<path d="M12.6689 21.75L12.9261 23.4286L14.8632 25.6964H17.4861L12.6689 21.7679V21.75Z" fill="#508898"/>
<path d="M10.3711 30.9466L11.7254 28.6251L14.7597 26.3037H17.5025L10.3711 30.9287V30.9466Z" fill="#00586F"/>
<circle cx="20" cy="20" r="19.5" stroke="black" stroke-opacity="0.05"/>
</svg>
