<svg width="40" height="40" viewBox="0 0 40 40" fill="none" xmlns="http://www.w3.org/2000/svg">
<circle cx="20" cy="20" r="20" fill="#21B3E6"/>
<g clip-path="url(#clip0_9_411384)">
<path d="M16.2236 19.9639C16.2308 20.1823 16.178 20.3985 16.071 20.5891C15.9639 20.7796 15.8068 20.9372 15.6165 21.0446L11.5001 23.4125C11.2214 23.5732 10.8904 23.6168 10.5796 23.5337C10.2689 23.4506 10.0038 23.2476 9.84256 22.9693C9.76325 22.8322 9.71181 22.6809 9.69117 22.5239C9.67053 22.3669 9.6811 22.2074 9.72228 22.0545C9.76347 21.9016 9.83445 21.7584 9.93115 21.633C10.0278 21.5076 10.1484 21.4026 10.2858 21.3239L12.5868 20.0004L10.2858 18.6768C10.1484 18.5981 10.0278 18.4931 9.93115 18.3677C9.83445 18.2423 9.76347 18.0991 9.72228 17.9462C9.6811 17.7933 9.67053 17.6338 9.69117 17.4768C9.71181 17.3198 9.76325 17.1685 9.84256 17.0314C10.0038 16.7531 10.2689 16.5501 10.5796 16.467C10.8904 16.3839 11.2214 16.4275 11.5001 16.5882L15.6165 18.9561C15.7956 19.0579 15.9455 19.2041 16.0518 19.3806C16.1581 19.5571 16.2173 19.758 16.2236 19.9639ZM16.9643 23.3396C17.1829 23.2061 17.4318 23.1575 17.6686 23.1818C18.294 23.2243 18.7858 23.7464 18.7858 24.3839V29.1196C18.7858 29.4417 18.6578 29.7505 18.4301 29.9783C18.2024 30.206 17.8935 30.3339 17.5715 30.3339C17.2494 30.3339 16.9406 30.206 16.7129 29.9783C16.4851 29.7505 16.3572 29.4417 16.3572 29.1196V26.4664L14.0501 27.79C13.9128 27.8737 13.7602 27.9291 13.6012 27.953C13.4422 27.977 13.2801 27.9689 13.1242 27.9294C12.9684 27.8899 12.822 27.8197 12.6936 27.7228C12.5653 27.626 12.4576 27.5046 12.3768 27.3656C12.296 27.2266 12.2437 27.0729 12.2231 26.9134C12.2024 26.754 12.2138 26.592 12.2565 26.437C12.2993 26.282 12.3725 26.1372 12.472 26.0108C12.5715 25.8845 12.6951 25.7793 12.8358 25.7014L16.9643 23.3336V23.3396ZM23.0358 16.6611C22.8224 16.7839 22.5768 16.8389 22.3315 16.8189C22.0286 16.7946 21.7459 16.6577 21.5391 16.4351C21.3323 16.2126 21.2164 15.9206 21.2143 15.6168V10.8811C21.2143 10.2193 21.7547 9.67892 22.4286 9.67892C22.7496 9.67892 23.0576 9.80602 23.2851 10.0324C23.5127 10.2588 23.6413 10.5661 23.6429 10.8871V13.5343L25.944 12.2046C26.0813 12.121 26.2339 12.0655 26.3929 12.0416C26.5518 12.0177 26.714 12.0257 26.8698 12.0652C27.0257 12.1047 27.172 12.175 27.3004 12.2718C27.4287 12.3686 27.5365 12.4901 27.6173 12.6291C27.6981 12.7681 27.7503 12.9218 27.771 13.0812C27.7916 13.2407 27.7802 13.4026 27.7375 13.5576C27.6947 13.7126 27.6215 13.8575 27.522 13.9838C27.4226 14.1101 27.2989 14.2153 27.1583 14.2932L23.0358 16.6611ZM16.9643 16.6611L12.8418 14.2932C12.7012 14.2153 12.5775 14.1101 12.4781 13.9838C12.3786 13.8575 12.3054 13.7126 12.2626 13.5576C12.2199 13.4026 12.2085 13.2407 12.2291 13.0812C12.2498 12.9218 12.302 12.7681 12.3828 12.6291C12.4636 12.4901 12.5714 12.3686 12.6997 12.2718C12.8281 12.175 12.9744 12.1047 13.1303 12.0652C13.2861 12.0257 13.4483 12.0177 13.6073 12.0416C13.7662 12.0655 13.9188 12.121 14.0561 12.2046L16.3572 13.5343V10.8871C16.3572 10.5651 16.4851 10.2562 16.7129 10.0285C16.9406 9.80079 17.2494 9.67285 17.5715 9.67285C17.8935 9.67285 18.2024 9.80079 18.4301 10.0285C18.6578 10.2562 18.7858 10.5651 18.7858 10.8871V15.6229C18.7822 15.9256 18.6656 16.2161 18.459 16.4374C18.2523 16.6586 17.9704 16.7947 17.6686 16.8189C17.4233 16.8389 17.1777 16.7839 16.9643 16.6611ZM23.0358 23.3396L27.1522 25.7014C27.2928 25.7793 27.4165 25.8845 27.516 26.0108C27.6154 26.1372 27.6887 26.282 27.7314 26.437C27.7742 26.592 27.7856 26.754 27.7649 26.9134C27.7443 27.0729 27.692 27.2266 27.6112 27.3656C27.5304 27.5046 27.4227 27.626 27.2943 27.7228C27.166 27.8197 27.0196 27.8899 26.8638 27.9294C26.7079 27.9689 26.5458 27.977 26.3868 27.953C26.2278 27.9291 26.0752 27.8737 25.9379 27.79L23.6429 26.4664V29.1136C23.6429 29.4356 23.515 29.7445 23.2873 29.9722C23.0595 30.1999 22.7507 30.3278 22.4286 30.3278C22.1066 30.3278 21.7977 30.1999 21.57 29.9722C21.3423 29.7445 21.2143 29.4356 21.2143 29.1136V24.3778C21.2143 23.7464 21.7061 23.2243 22.3315 23.1818C22.5743 23.1575 22.8172 23.2061 23.0358 23.3396ZM27.4133 20.0004L29.7143 18.6768C29.8517 18.5981 29.9723 18.4931 30.069 18.3677C30.1657 18.2423 30.2366 18.0991 30.2778 17.9462C30.319 17.7933 30.3296 17.6338 30.3089 17.4768C30.2883 17.3198 30.2369 17.1685 30.1576 17.0314C29.9963 16.7531 29.7312 16.5501 29.4205 16.467C29.1097 16.3839 28.7787 16.4275 28.5001 16.5882L24.3836 18.9561C24.1494 19.0941 23.9682 19.3067 23.8691 19.5599C23.77 19.813 23.7588 20.0922 23.8372 20.3525C23.9161 20.6379 24.1104 20.8868 24.3836 21.0446L28.5001 23.4125C28.7787 23.5732 29.1097 23.6168 29.4205 23.5337C29.7312 23.4506 29.9963 23.2476 30.1576 22.9693C30.4915 22.3925 30.2972 21.6579 29.7143 21.3239L27.4133 20.0004ZM21.099 19.6968C21.1597 19.7696 21.2143 19.8789 21.2143 20.0004C21.2143 20.1218 21.1597 20.2311 21.0929 20.3039L20.3036 21.0932C20.2635 21.1325 20.2161 21.1634 20.164 21.1843C20.1119 21.2051 20.0562 21.2154 20.0001 21.2146C19.9439 21.2154 19.8882 21.2051 19.8361 21.1843C19.784 21.1634 19.7366 21.1325 19.6965 21.0932L18.9011 20.3039C18.8239 20.2217 18.7808 20.1132 18.7808 20.0004C18.7808 19.8875 18.8239 19.779 18.9011 19.6968L19.7026 18.9075C19.7827 18.831 19.8893 18.7884 20.0001 18.7884C20.1108 18.7884 20.2174 18.831 20.2976 18.9075L21.099 19.6968ZM20.6254 22.9146L22.9143 20.6257C22.9811 20.565 23.0358 20.4314 23.0358 20.3404V19.6664C23.0303 19.5581 22.9874 19.4551 22.9143 19.375L20.6254 17.0861C20.5459 17.0121 20.4425 16.9691 20.334 16.9646H19.6601C19.5538 16.971 19.453 17.0139 19.3747 17.0861L17.0858 19.375C17.019 19.4357 16.9643 19.5693 16.9643 19.6664V20.3404C16.9643 20.4314 17.019 20.5589 17.0858 20.6257L19.3747 22.9146C19.4354 22.9754 19.569 23.0361 19.6601 23.0361H20.334C20.4311 23.0361 20.5586 22.9754 20.6254 22.9146Z" fill="white"/>
</g>
<circle cx="20" cy="20" r="19.5" stroke="black" stroke-opacity="0.05"/>
<defs>
<clipPath id="clip0_9_411384">
<rect width="22" height="22" fill="white" transform="translate(9 9)"/>
</clipPath>
</defs>
</svg>
