<svg width="40" height="40" viewBox="0 0 40 40" fill="none" xmlns="http://www.w3.org/2000/svg">
<circle cx="20" cy="20" r="20" fill="#F6F8FA"/>
<g clip-path="url(#clip0_9_401837)">
<path d="M14.426 19.3931H8.46387L12.7382 12.1074H18.7185L20.0178 14.536L21.6692 12.1074H27.5464L31.5353 19.3931H25.5853L24.371 17.4685L23.3389 19.3931H17.0003L15.7435 17.3956L14.426 19.3931Z" fill="#999999"/>
<path d="M11.7129 26.0713L12.739 27.8927H18.7193L19.6543 26.0713H11.7129ZM20.474 26.0713L21.67 27.8927H27.5411L28.5065 26.0713H20.474Z" fill="#0C4FA8"/>
<path d="M11.2938 25.464L10.1523 23.6426H29.9573L28.8888 25.464H11.2938Z" fill="#009890"/>
<path d="M14.426 20.6074H8.46387L9.73887 23.036H30.3453L31.5353 20.6074H25.5853L24.371 22.7506L23.3389 20.6074H17.0003L15.7435 22.8356L14.426 20.6074Z" fill="#FD1B29"/>
</g>
<circle cx="20" cy="20" r="19.5" stroke="black" stroke-opacity="0.05"/>
<defs>
<clipPath id="clip0_9_401837">
<rect width="24" height="16" fill="white" transform="translate(8 12)"/>
</clipPath>
</defs>
</svg>
