<svg width="40" height="40" viewBox="0 0 40 40" fill="none" xmlns="http://www.w3.org/2000/svg">
<circle cx="20" cy="20" r="20" fill="#02AAD1"/>
<path d="M13.2125 16.424C14.9864 16.424 16.4245 14.9859 16.4245 13.212C16.4245 11.4381 14.9864 10 13.2125 10C11.4386 10 10.0005 11.4381 10.0005 13.212C10.0005 14.9859 11.4386 16.424 13.2125 16.424Z" fill="white"/>
<path d="M19.9981 16.424C21.7721 16.424 23.2101 14.9859 23.2101 13.212C23.2101 11.4381 21.7721 10 19.9981 10C18.2242 10 16.7861 11.4381 16.7861 13.212C16.7861 14.9859 18.2242 16.424 19.9981 16.424Z" fill="white"/>
<path d="M29.9963 13.212C29.9963 14.0639 29.6579 14.8809 29.0555 15.4832C28.4531 16.0856 27.6361 16.424 26.7843 16.424C25.9324 16.424 25.1154 16.0856 24.513 15.4832C23.9107 14.8809 23.5723 14.0639 23.5723 13.212C23.5723 12.3601 23.9107 11.5431 24.513 10.9408C25.1154 10.3384 25.9324 10 26.7843 10C27.6361 10 28.4531 10.3384 29.0555 10.9408C29.6579 11.5431 29.9963 12.3601 29.9963 13.212ZM29.2816 13.212C29.2816 12.5495 29.0184 11.9141 28.55 11.4456C28.0815 10.9772 27.4461 10.714 26.7836 10.714C26.1211 10.714 25.4857 10.9772 25.0172 11.4456C24.5488 11.9141 24.2856 12.5495 24.2856 13.212C24.2856 13.8745 24.5488 14.5099 25.0172 14.9784C25.4857 15.4468 26.1211 15.71 26.7836 15.71C27.4461 15.71 28.0815 15.4468 28.55 14.9784C29.0184 14.5099 29.2816 13.8745 29.2816 13.212Z" fill="white"/>
<path d="M26.7832 15.7099C28.1628 15.7099 29.2812 14.5915 29.2812 13.2119C29.2812 11.8323 28.1628 10.7139 26.7832 10.7139C25.4035 10.7139 24.2852 11.8323 24.2852 13.2119C24.2852 14.5915 25.4035 15.7099 26.7832 15.7099Z" fill="#02AAD1"/>
<path d="M13.2125 23.2092C14.9864 23.2092 16.4245 21.7711 16.4245 19.9972C16.4245 18.2232 14.9864 16.7852 13.2125 16.7852C11.4386 16.7852 10.0005 18.2232 10.0005 19.9972C10.0005 21.7711 11.4386 23.2092 13.2125 23.2092Z" fill="white"/>
<path d="M23.2101 19.9972C23.2101 20.419 23.1271 20.8366 22.9656 21.2263C22.8042 21.616 22.5676 21.9701 22.2694 22.2684C21.9711 22.5666 21.617 22.8032 21.2273 22.9647C20.8376 23.1261 20.4199 23.2092 19.9981 23.2092C19.1463 23.2092 18.3293 22.8708 17.7269 22.2684C17.1245 21.666 16.7861 20.849 16.7861 19.9972C16.7861 19.1453 17.1245 18.3283 17.7269 17.7259C18.3293 17.1236 19.1463 16.7852 19.9981 16.7852C20.4199 16.7852 20.8376 16.8682 21.2273 17.0297C21.617 17.1911 21.9711 17.4277 22.2694 17.7259C22.5676 18.0242 22.8042 18.3783 22.9656 18.768C23.1271 19.1577 23.2101 19.5754 23.2101 19.9972ZM22.4961 19.9978C22.4961 19.3353 22.233 18.6999 21.7645 18.2315C21.296 17.763 20.6606 17.4998 19.9981 17.4998C19.3356 17.4998 18.7002 17.763 18.2318 18.2315C17.7633 18.6999 17.5001 19.3353 17.5001 19.9978C17.5001 20.6603 17.7633 21.2957 18.2318 21.7642C18.7002 22.2326 19.3356 22.4958 19.9981 22.4958C20.6606 22.4958 21.296 22.2326 21.7645 21.7642C22.233 21.2957 22.4961 20.6603 22.4961 19.9978Z" fill="white"/>
<path d="M26.7843 23.2092C28.5582 23.2092 29.9963 21.7711 29.9963 19.9972C29.9963 18.2232 28.5582 16.7852 26.7843 16.7852C25.0103 16.7852 23.5723 18.2232 23.5723 19.9972C23.5723 21.7711 25.0103 23.2092 26.7843 23.2092Z" fill="white"/>
<path d="M19.998 22.496C21.3776 22.496 22.496 21.3776 22.496 19.998C22.496 18.6184 21.3776 17.5 19.998 17.5C18.6184 17.5 17.5 18.6184 17.5 19.998C17.5 21.3776 18.6184 22.496 19.998 22.496Z" fill="#02AAD1"/>
<path d="M16.424 26.7833C16.424 27.6352 16.0856 28.4521 15.4832 29.0545C14.8809 29.6569 14.0639 29.9953 13.212 29.9953C12.3601 29.9953 11.5431 29.6569 10.9408 29.0545C10.3384 28.4521 10 27.6352 10 26.7833C10 25.9314 10.3384 25.1144 10.9408 24.5121C11.5431 23.9097 12.3601 23.5713 13.212 23.5713C14.0639 23.5713 14.8809 23.9097 15.4832 24.5121C16.0856 25.1144 16.424 25.9314 16.424 26.7833ZM15.7107 26.7826C15.7107 26.1201 15.4475 25.4847 14.979 25.0163C14.5106 24.5478 13.8752 24.2846 13.2127 24.2846C12.5502 24.2846 11.9148 24.5478 11.4463 25.0163C10.9778 25.4847 10.7147 26.1201 10.7147 26.7826C10.7147 27.4451 10.9778 28.0805 11.4463 28.549C11.9148 29.0174 12.5502 29.2806 13.2127 29.2806C13.8752 29.2806 14.5106 29.0174 14.979 28.549C15.4475 28.0805 15.7107 27.4451 15.7107 26.7826Z" fill="white"/>
<path d="M19.9981 29.9953C21.7721 29.9953 23.2101 28.5572 23.2101 26.7833C23.2101 25.0093 21.7721 23.5713 19.9981 23.5713C18.2242 23.5713 16.7861 25.0093 16.7861 26.7833C16.7861 28.5572 18.2242 29.9953 19.9981 29.9953Z" fill="white"/>
<path d="M26.7843 29.9953C28.5582 29.9953 29.9963 28.5572 29.9963 26.7833C29.9963 25.0093 28.5582 23.5713 26.7843 23.5713C25.0103 23.5713 23.5723 25.0093 23.5723 26.7833C23.5723 28.5572 25.0103 29.9953 26.7843 29.9953Z" fill="white"/>
<path d="M13.2128 29.2812C14.5925 29.2812 15.7108 28.1628 15.7108 26.7832C15.7108 25.4035 14.5925 24.2852 13.2128 24.2852C11.8332 24.2852 10.7148 25.4035 10.7148 26.7832C10.7148 28.1628 11.8332 29.2812 13.2128 29.2812Z" fill="#02AAD1"/>
<circle cx="20" cy="20" r="19.5" stroke="black" stroke-opacity="0.05"/>
</svg>
