<svg width="40" height="40" viewBox="0 0 40 40" fill="none" xmlns="http://www.w3.org/2000/svg">
<circle cx="20" cy="20" r="20" fill="#1E1E23"/>
<path d="M21.2856 20.5145L17.4284 17.4288V23.2145H18.7141V20.3217L22.5713 23.2145V17.4288H21.2856V20.5145ZM12.607 17.4288C12.2242 17.4182 11.8433 17.4857 11.4875 17.6273C11.1317 17.769 10.8085 17.9817 10.5378 18.2524C10.267 18.5232 10.0543 18.8464 9.91267 19.2022C9.77106 19.558 9.70351 19.9389 9.71415 20.3217C9.71415 21.8774 10.9934 23.2145 12.607 23.2145C14.2977 23.2145 15.4999 21.9545 15.4999 20.3217C15.4999 18.6888 14.2977 17.4288 12.607 17.4288ZM12.607 21.9288C12.3935 21.9379 12.1805 21.9026 11.9814 21.825C11.7823 21.7475 11.6014 21.6294 11.4504 21.4783C11.2993 21.3272 11.1812 21.1464 11.1037 20.9473C11.0261 20.7482 10.9908 20.5352 10.9999 20.3217C10.9999 19.441 11.5784 18.7145 12.607 18.7145C13.6356 18.7145 14.2141 19.4088 14.2141 20.3217C14.2141 21.2345 13.597 21.9288 12.607 21.9288ZM6.802 19.8074C5.857 19.4988 5.857 19.2545 5.857 19.1067C5.857 18.8495 6.11415 18.7081 6.64772 18.7081C7.00495 18.7224 7.35157 18.8335 7.65057 19.0295L7.72772 19.1067L8.56986 18.2388L8.49272 18.1617C8.49272 18.1617 7.80486 17.4288 6.64772 17.4288C5.70272 17.4288 4.57129 17.9753 4.57129 19.0617C4.57129 20.1931 5.47129 20.6688 6.41629 20.926C7.22629 21.151 7.33557 21.4081 7.33557 21.556C7.33557 21.7745 7.11057 21.9288 6.57057 21.9288C6.15915 21.9288 5.812 21.7488 5.632 21.6588L5.56772 21.6331L5.497 21.556L4.64843 22.3274L4.72557 22.3981C4.72557 22.3981 5.41986 23.1438 6.57057 23.1438C7.477 23.1438 8.56986 22.6167 8.56986 21.556C8.56986 20.5081 7.66343 20.0388 6.802 19.801V19.8074ZM33.6606 19.8331C32.7156 19.531 32.7156 19.2802 32.7156 19.1324C32.7156 18.8752 32.9663 18.7338 33.5063 18.7338C33.892 18.7338 34.2327 18.9138 34.4191 19.0102L34.5027 19.0553L34.5799 19.1324L35.4284 18.2581L35.3513 18.181C35.3513 18.181 34.657 17.4288 33.5063 17.4288C32.5549 17.4288 31.4299 17.9817 31.4299 19.081C31.4299 20.2252 32.3299 20.7074 33.2749 20.971C34.0784 21.196 34.1877 21.4595 34.1877 21.6138C34.1877 21.8324 33.9691 21.9867 33.4291 21.9867C33.0177 21.9867 32.6641 21.8067 32.4841 21.7167L32.4263 21.6845L32.3491 21.6074L31.5006 22.3852L31.5777 22.4624C31.5777 22.4624 32.2784 23.2145 33.4356 23.2145C34.3356 23.2145 35.4349 22.681 35.4349 21.6074C35.4349 20.5467 34.522 20.071 33.667 19.8331H33.6606ZM24.4999 20.3217C24.4999 18.6888 25.702 17.4288 27.3927 17.4288C29.0834 17.4288 30.2856 18.6888 30.2856 20.3217C30.2856 21.9545 29.0834 23.2145 27.3927 23.2145C26.6265 23.2112 25.8927 22.9053 25.3509 22.3635C24.8091 21.8217 24.5032 21.0879 24.4999 20.3217ZM25.7856 20.3217C25.7856 21.2024 26.4027 21.9288 27.3927 21.9288C28.3827 21.9288 28.9999 21.2345 28.9999 20.3217C28.9999 19.4088 28.4213 18.7145 27.3927 18.7145C26.3641 18.7145 25.7856 19.441 25.7856 20.3217Z" fill="white"/>
<circle cx="20" cy="20" r="19.5" stroke="black" stroke-opacity="0.05"/>
</svg>
