<svg width="40" height="40" viewBox="0 0 40 40" fill="none" xmlns="http://www.w3.org/2000/svg">
<circle cx="20" cy="20" r="20" fill="#0F0F0F"/>
<g clip-path="url(#clip0_9_400105)">
<path d="M15.1804 22.5716C14.0889 22.5716 13.0757 22.254 12.3994 21.6651C12.1598 21.4585 11.968 21.2022 11.8374 20.914C11.7067 20.6258 11.6403 20.3127 11.6428 19.9963C11.6428 19.3824 11.8987 18.7742 12.3994 18.3313C13.0275 17.7771 14.1364 17.4294 15.1804 17.4294C16.3363 17.4294 17.2607 17.7116 17.9679 18.3332C18.2044 18.5405 18.3934 18.7962 18.5222 19.0831C18.651 19.37 18.7165 19.6812 18.7142 19.9956C18.7118 20.3104 18.6443 20.6213 18.516 20.9087C18.3877 21.1961 18.2013 21.4539 17.9685 21.6658C17.3089 22.2579 16.2752 22.5716 15.1804 22.5716L15.1798 21.8934C15.7597 21.8934 16.2971 21.6992 16.6725 21.3373C17.0454 20.9773 17.2189 20.5356 17.2189 19.9956C17.2189 19.4781 17.0312 18.9941 16.6725 18.6514C16.3022 18.2979 15.7513 18.0986 15.1798 18.0986C14.6064 18.0986 14.0561 18.2953 13.6852 18.6514C13.3284 18.9941 13.1407 19.4794 13.1407 19.995C13.1407 20.5099 13.3303 20.9953 13.6852 21.3373C14.0561 21.6954 14.6044 21.8934 15.1798 21.8934L15.1804 22.5716ZM6.11102 17.7823C6.64523 17.5354 7.27459 17.4287 7.82745 17.4287C8.80459 17.43 9.60045 17.7591 9.88266 17.9121C9.99452 17.9758 10.0543 17.8986 10.0543 17.8395V17.6556H10.6843V19.2371H10.1199C10.0715 19.0037 9.94907 18.7922 9.7708 18.6341C9.66258 18.5463 9.54353 18.4729 9.41659 18.4155C9.08038 18.2612 8.55195 18.1134 7.92773 18.1159C7.40059 18.1159 6.89402 18.2169 6.6433 18.3795C6.48516 18.4811 6.40545 18.6071 6.40545 18.7562C6.40545 18.9658 6.5803 19.0519 6.6658 19.0789C6.94866 19.1689 7.6558 19.23 8.06402 19.2737C8.45359 19.3161 9.26681 19.428 9.6268 19.5199C9.81195 19.5669 10.0382 19.6504 10.1822 19.7199C10.3474 19.8002 10.5049 19.9037 10.6348 20.0374C10.7299 20.1358 10.9999 20.4585 10.9999 20.9779C10.9999 21.5199 10.6894 21.8181 10.548 21.9345C10.2864 22.1499 9.96495 22.2881 9.70459 22.3652C9.42816 22.4462 9.0283 22.5716 8.28388 22.5716C7.82745 22.5716 7.59088 22.515 7.2238 22.4353C6.873 22.3561 6.53101 22.2419 6.20295 22.0946C6.0853 22.0399 6.05188 22.155 6.05188 22.1826V22.4282H5.35373V20.6115H5.9818C5.9818 20.8269 6.0808 21.0448 6.1438 21.1239C6.39709 21.4434 6.66902 21.5694 6.92809 21.6639C7.1518 21.7474 7.76766 21.9062 8.28002 21.9062C8.9743 21.9062 9.36002 21.723 9.41595 21.7005C9.47188 21.6774 9.79395 21.5694 9.79395 21.2171C9.79395 20.8635 9.48859 20.7979 9.30666 20.7504C9.0778 20.6906 8.51595 20.6314 7.94509 20.5691C7.36973 20.5074 6.7918 20.4135 6.5218 20.3524C5.91752 20.2161 5.68609 19.9834 5.54273 19.8471C5.55173 19.8561 5.21423 19.5347 5.21423 18.9857C5.21423 18.3769 5.61795 18.0092 6.11102 17.7823ZM30.7909 21.9184C30.7691 21.9255 30.6559 21.9294 30.6302 21.9294H30.0131V22.5716H33.1817V21.9287H32.5357C32.5099 21.9287 32.3987 21.9255 32.3762 21.9178C32.3139 21.8966 32.2496 21.8471 32.2303 21.7944C32.2174 21.7616 32.2174 21.6761 32.2174 21.6555V20.6462C32.2174 20.6218 32.2155 20.5806 32.2387 20.5511C32.2837 20.4951 33.9943 18.4065 34.0669 18.3152C34.2264 18.1146 34.3125 18.0709 34.5234 18.0709H35.1071V17.4287H32.4971V18.0716H32.8905C33.0017 18.0716 33.0371 18.2014 32.9857 18.2702C32.9767 18.2811 31.8915 19.6999 31.8787 19.7141C31.8645 19.7282 31.8562 19.7244 31.8465 19.7096C31.8362 19.6941 30.7646 18.2683 30.7646 18.2683C30.6887 18.1641 30.7479 18.0703 30.8366 18.0703H31.2204V17.4287H28.0357V18.0716H28.6001C28.8463 18.0716 29.0083 18.2445 29.1002 18.3564C29.1748 18.4464 30.8488 20.4919 30.8899 20.5511C30.9272 20.6057 30.9285 20.616 30.9285 20.6411V21.6555C30.9285 21.6767 30.924 21.7731 30.9157 21.795C30.9051 21.8234 30.8885 21.8492 30.8669 21.8705C30.8454 21.8918 30.8195 21.9082 30.7909 21.9184ZM25.1428 20.643L21.7871 17.4287H19.0357V18.0716H19.5769C19.9684 18.0716 19.9999 18.3152 19.9999 18.5087V21.5173C19.9999 21.6973 20.0096 21.9294 19.7608 21.9294H19.0935V22.5857L22.2628 22.5716V21.9287H21.5653C21.2876 21.9287 21.2889 21.7969 21.2857 21.5173V19.0359L25.1846 22.5716H26.4285V18.4431C26.4324 18.1436 26.4709 18.0716 26.7692 18.0716H27.3928V17.4287H24.1657V18.0716H24.8047C25.0978 18.0716 25.1473 18.1886 25.1512 18.4701L25.1428 20.643Z" fill="white"/>
</g>
<circle cx="20" cy="20" r="19.5" stroke="black" stroke-opacity="0.05"/>
<defs>
<clipPath id="clip0_9_400105">
<rect width="31" height="6" fill="white" transform="translate(5 17)"/>
</clipPath>
</defs>
</svg>
