<svg width="40" height="40" viewBox="0 0 40 40" fill="none" xmlns="http://www.w3.org/2000/svg">
<circle cx="20" cy="20" r="20" fill="#D6002A"/>
<g clip-path="url(#clip0_9_399862)">
<mask id="mask0_9_399862" style="mask-type:luminance" maskUnits="userSpaceOnUse" x="3" y="17" width="34" height="7">
<path d="M37 17H3V24H37V17Z" fill="white"/>
</mask>
<g mask="url(#mask0_9_399862)">
<path d="M6.87345 22.5152C6.87345 22.7306 6.83601 22.9155 6.76114 23.0705C6.68626 23.2254 6.58982 23.359 6.4718 23.4709C6.28585 23.6473 6.05998 23.7734 5.79445 23.8484C5.52891 23.9236 5.24652 23.9613 4.94702 23.9613C4.68817 23.9613 4.43305 23.9258 4.18115 23.8547C3.92925 23.7837 3.70338 23.6621 3.5038 23.49C3.35851 23.3651 3.23826 23.2111 3.14306 23.0284C3.0476 22.8456 3 22.6443 3 22.4249H3.89876C3.89876 22.5371 3.92231 22.6413 3.97016 22.7379C4.01776 22.8348 4.07776 22.9178 4.15066 22.9865C4.25479 23.086 4.38074 23.1511 4.52826 23.1838C4.67578 23.216 4.81983 23.232 4.96065 23.232C5.1285 23.232 5.28743 23.2139 5.43718 23.1772C5.58693 23.1408 5.70718 23.0773 5.79792 22.9865C5.85247 22.931 5.89759 22.8717 5.93404 22.8089C5.97048 22.7466 5.98833 22.6596 5.98833 22.5477C5.98833 22.38 5.93081 22.254 5.81503 22.17C5.69924 22.0863 5.5666 22.0312 5.4166 22.0054C5.25321 21.9753 5.07396 21.9536 4.87883 21.9409C4.68371 21.9282 4.50669 21.9083 4.34801 21.8824C4.17991 21.8565 4.02223 21.8114 3.87495 21.7469C3.72743 21.6823 3.59801 21.5974 3.48669 21.4918C3.37562 21.3864 3.28711 21.2594 3.2214 21.1108C3.15545 20.9624 3.12248 20.7936 3.12248 20.604C3.12248 20.4232 3.16116 20.2576 3.23826 20.1069C3.31537 19.9561 3.41752 19.8207 3.54471 19.7C3.70338 19.5493 3.90768 19.431 4.15735 19.3449C4.40702 19.2589 4.67479 19.2158 4.96065 19.2158C5.21925 19.2158 5.46767 19.2534 5.70594 19.3287C5.9442 19.4042 6.14527 19.515 6.30841 19.6612C6.4537 19.7903 6.57048 19.9368 6.65899 20.1003C6.7475 20.264 6.79387 20.4425 6.79858 20.6362H5.90007C5.89536 20.5546 5.87379 20.4737 5.83536 20.3942C5.79668 20.3145 5.74784 20.2447 5.68908 20.1842C5.61172 20.1069 5.50288 20.0467 5.3623 20.0034C5.22148 19.9606 5.08536 19.939 4.95371 19.939C4.81759 19.939 4.67801 19.9561 4.5352 19.9905C4.39214 20.025 4.27065 20.0918 4.17099 20.1908C4.1209 20.2423 4.08123 20.2983 4.05173 20.3587C4.02223 20.4189 4.0076 20.4921 4.0076 20.5781C4.0076 20.7289 4.05297 20.8439 4.14371 20.9236C4.23446 21.0033 4.35247 21.0539 4.49776 21.0753C4.65198 21.0972 4.82553 21.1164 5.01842 21.1334C5.21131 21.1508 5.3871 21.1701 5.54602 21.1915C5.72751 21.2173 5.89883 21.2639 6.05999 21.3304C6.22114 21.3972 6.36172 21.4854 6.48221 21.595C6.60221 21.7051 6.69767 21.8372 6.76808 21.9922C6.838 22.1472 6.87345 22.3214 6.87345 22.5152Z" fill="white"/>
</g>
<mask id="mask1_9_399862" style="mask-type:luminance" maskUnits="userSpaceOnUse" x="3" y="17" width="34" height="7">
<path d="M37 17H3V24H37V17Z" fill="white"/>
</mask>
<g mask="url(#mask1_9_399862)">
<path d="M10.6738 23.8839L10.3336 23.5222C10.1382 23.6859 9.92377 23.8063 9.69022 23.8839C9.45642 23.9612 9.21469 24 8.96502 24C8.7518 24 8.5475 23.9678 8.35238 23.9031C8.15725 23.8389 7.98717 23.7472 7.84188 23.6287C7.69684 23.5104 7.58106 23.3651 7.49478 23.1929C7.4085 23.0208 7.36536 22.8268 7.36536 22.6116C7.36536 22.3275 7.4437 22.0846 7.6004 21.8819C7.75684 21.6796 7.96461 21.5033 8.2232 21.3525C8.14585 21.2749 8.07568 21.1987 8.01221 21.123C7.94849 21.048 7.8942 20.9713 7.84882 20.8937C7.80321 20.8163 7.76825 20.7345 7.74321 20.6484C7.71841 20.5624 7.70577 20.4655 7.70577 20.358C7.70577 20.1772 7.74097 20.0156 7.81139 19.8736C7.88155 19.7315 7.97577 19.6099 8.09378 19.5088C8.2118 19.4077 8.35138 19.3313 8.51254 19.2795C8.67345 19.228 8.84477 19.2021 9.02651 19.2021C9.20353 19.2021 9.37237 19.2268 9.53353 19.2765C9.69468 19.3258 9.8365 19.399 9.95923 19.4959C10.0817 19.5928 10.1791 19.7113 10.2518 19.851C10.3244 19.9909 10.3609 20.1513 10.3609 20.3321C10.3609 20.4829 10.3381 20.6172 10.2924 20.7357C10.2473 20.854 10.1836 20.9617 10.102 21.0586C10.0205 21.1552 9.92377 21.2446 9.8127 21.3264C9.70138 21.4085 9.58014 21.4856 9.44849 21.5588L10.2858 22.4242C10.3267 22.351 10.3549 22.2659 10.3708 22.169C10.3867 22.0721 10.3991 21.9701 10.4082 21.8624C10.4174 21.7591 10.4221 21.658 10.4221 21.5588V21.3013H11.6677V21.9404H11.1096C11.1002 22.1213 11.0754 22.2998 11.0348 22.4762C10.9939 22.653 10.9212 22.8162 10.8168 22.9672L11.7084 23.8839H10.6738ZM8.72006 21.8563C8.63849 21.9038 8.56362 21.9491 8.49543 21.9919C8.4275 22.035 8.367 22.0848 8.31494 22.1406C8.26287 22.1965 8.22196 22.2598 8.19246 22.3311C8.16296 22.4023 8.14833 22.4849 8.14833 22.5799C8.14833 22.696 8.17213 22.7993 8.21973 22.8898C8.26758 22.9801 8.33105 23.0554 8.41039 23.1158C8.48973 23.176 8.58147 23.2209 8.68609 23.2513C8.79047 23.2814 8.89932 23.2962 9.01287 23.2962C9.15791 23.2962 9.3032 23.2769 9.44849 23.2381C9.59378 23.1993 9.71849 23.1243 9.82286 23.0121L8.72006 21.8563ZM9.56427 20.3648C9.56427 20.2056 9.5132 20.0829 9.41105 19.9968C9.30915 19.9107 9.18072 19.8677 9.02651 19.8677C8.88593 19.8677 8.76097 19.9074 8.65213 19.9871C8.54328 20.0669 8.48874 20.1863 8.48874 20.3455C8.48874 20.4187 8.50337 20.4876 8.53287 20.552C8.56238 20.6167 8.59857 20.6781 8.64196 20.7361C8.68485 20.7942 8.7337 20.8488 8.78824 20.9008C8.84254 20.9523 8.89485 21.0019 8.94494 21.0492C9.01733 21.0106 9.09097 20.9706 9.16609 20.9297C9.24072 20.889 9.30766 20.8427 9.36667 20.7907C9.42568 20.739 9.47328 20.6788 9.50973 20.6099C9.54617 20.5414 9.56427 20.4596 9.56427 20.3648Z" fill="white"/>
</g>
<mask id="mask2_9_399862" style="mask-type:luminance" maskUnits="userSpaceOnUse" x="3" y="17" width="34" height="7">
<path d="M37 17H3V24H37V17Z" fill="white"/>
</mask>
<g mask="url(#mask2_9_399862)">
<path d="M15.9449 20.7654C15.9449 20.985 15.9087 21.1849 15.836 21.366C15.7634 21.5468 15.6555 21.7018 15.5125 21.8309C15.3697 21.96 15.1916 22.0604 14.9782 22.1312C14.765 22.2022 14.5197 22.2378 14.2431 22.2378H13.2221V23.8778H12.3506V19.2998H14.2431C14.5197 19.2998 14.765 19.3353 14.9782 19.4063C15.1916 19.4774 15.3697 19.5764 15.5125 19.7034C15.6555 19.8303 15.7634 19.9841 15.836 20.165C15.9087 20.3458 15.9449 20.546 15.9449 20.7654ZM15.0602 20.772C15.0602 20.5523 14.9921 20.3738 14.8559 20.236C14.7198 20.0984 14.5041 20.0295 14.2093 20.0295H13.2223V21.508H14.2093C14.5041 21.508 14.7198 21.4403 14.8559 21.3046C14.9918 21.1692 15.0602 20.9916 15.0602 20.772Z" fill="white"/>
</g>
<mask id="mask3_9_399862" style="mask-type:luminance" maskUnits="userSpaceOnUse" x="3" y="17" width="34" height="7">
<path d="M37 17H3V24H37V17Z" fill="white"/>
</mask>
<g mask="url(#mask3_9_399862)">
<path d="M21.1184 23.877L21.0163 23.3731C20.9801 23.4377 20.9255 23.5055 20.8531 23.5765C20.7802 23.6475 20.691 23.7112 20.5841 23.7672C20.4773 23.8232 20.3582 23.8695 20.2268 23.9062C20.0954 23.9424 19.9544 23.9608 19.8049 23.9608C19.5235 23.9608 19.2611 23.9243 19.0187 23.8509C18.7757 23.7778 18.559 23.6445 18.3686 23.4507C18.2414 23.326 18.138 23.1946 18.0589 23.0568C17.9793 22.919 17.9159 22.7727 17.8683 22.6177C17.8204 22.4627 17.7877 22.3002 17.7693 22.1305C17.7512 21.9602 17.7423 21.7808 17.7423 21.591C17.7423 21.4064 17.75 21.2288 17.7661 21.0583C17.782 20.8883 17.8127 20.7281 17.8578 20.5774C17.9032 20.4267 17.9669 20.2825 18.0485 20.1447C18.1303 20.0071 18.2367 19.8757 18.3686 19.7508C18.5545 19.5744 18.7757 19.4408 19.0321 19.3505C19.2884 19.26 19.5463 19.2148 19.8049 19.2148C20.1044 19.2148 20.3766 19.2623 20.6218 19.3569C20.8668 19.4517 21.0711 19.5786 21.2344 19.7379C21.3527 19.8543 21.4521 19.9864 21.5339 20.1351C21.6155 20.2834 21.6634 20.4591 21.6768 20.6614H20.7782C20.7691 20.5708 20.7443 20.4935 20.7034 20.4288C20.6625 20.3643 20.6173 20.302 20.5673 20.2416C20.3992 20.0565 20.1428 19.9639 19.7977 19.9639C19.6571 19.9639 19.514 19.9909 19.369 20.0448C19.2237 20.0986 19.1035 20.1748 19.0083 20.2738C18.9264 20.3556 18.8607 20.4504 18.8107 20.5579C18.7608 20.6656 18.7221 20.7787 18.6951 20.897C18.6678 21.0155 18.6507 21.1348 18.644 21.2552C18.6371 21.3758 18.6339 21.4875 18.6339 21.5907C18.6339 21.6942 18.6381 21.8073 18.6473 21.9299C18.6564 22.0526 18.6745 22.1742 18.7018 22.2946C18.7291 22.4155 18.7675 22.5302 18.8176 22.6403C18.8674 22.7501 18.9331 22.8458 19.0149 22.9277C19.1102 23.0267 19.2294 23.0996 19.3725 23.1471C19.5153 23.1946 19.6571 23.2183 19.7977 23.2183C19.9568 23.2183 20.0962 23.1946 20.2164 23.1471C20.3364 23.0998 20.4376 23.0354 20.5194 22.9538C20.6511 22.8244 20.7361 22.6878 20.7748 22.5436C20.8132 22.3995 20.8323 22.2391 20.8323 22.0627H19.6819V21.3718H21.6832V23.877H21.1184Z" fill="white"/>
</g>
<mask id="mask4_9_399862" style="mask-type:luminance" maskUnits="userSpaceOnUse" x="3" y="17" width="34" height="7">
<path d="M37 17H3V24H37V17Z" fill="white"/>
</mask>
<g mask="url(#mask4_9_399862)">
<path d="M23.8135 23.8709C23.727 23.8879 23.6645 23.9001 23.6263 23.9062C23.5879 23.9128 23.5254 23.9159 23.4391 23.9159C23.1485 23.9159 22.915 23.8448 22.7379 23.7028C22.5609 23.5608 22.4724 23.3305 22.4724 23.0119V19.209H23.3303V22.8767C23.3303 22.9757 23.3506 23.0542 23.3915 23.1123C23.4324 23.1704 23.5254 23.1995 23.6707 23.1995C23.7069 23.1995 23.7341 23.1984 23.7522 23.1963C23.7703 23.1941 23.7907 23.1927 23.8135 23.1927V23.8709Z" fill="white"/>
</g>
<mask id="mask5_9_399862" style="mask-type:luminance" maskUnits="userSpaceOnUse" x="3" y="17" width="34" height="7">
<path d="M37 17H3V24H37V17Z" fill="white"/>
</mask>
<g mask="url(#mask5_9_399862)">
<path d="M27.4256 22.1984C27.4256 22.4824 27.3892 22.7204 27.3168 22.9119C27.2441 23.1033 27.142 23.279 27.0103 23.4379C26.8881 23.58 26.7187 23.7025 26.5033 23.806C26.2876 23.909 26.0436 23.9609 25.7714 23.9609C25.4992 23.9609 25.2552 23.909 25.04 23.806C24.8243 23.7025 24.6549 23.58 24.5327 23.4379C24.4011 23.2787 24.2989 23.1033 24.2263 22.9119C24.1539 22.7204 24.1174 22.4824 24.1174 22.1984C24.1174 21.9143 24.1539 21.6763 24.2263 21.4849C24.2989 21.2934 24.4011 21.1178 24.5327 20.9586C24.6549 20.8165 24.8243 20.694 25.04 20.5905C25.2552 20.4873 25.4992 20.4355 25.7714 20.4355C26.0436 20.4355 26.2876 20.4873 26.5033 20.5905C26.7187 20.694 26.8881 20.8165 27.0103 20.9586C27.142 21.118 27.2441 21.2934 27.3168 21.4849C27.3889 21.6763 27.4256 21.9143 27.4256 22.1984ZM26.5608 22.1984C26.5608 22.0392 26.5449 21.8851 26.5132 21.7367C26.4812 21.5879 26.4135 21.4599 26.3092 21.3522C26.2501 21.292 26.1753 21.2415 26.0845 21.2005C25.9938 21.1596 25.8894 21.1392 25.7711 21.1392C25.6531 21.1392 25.549 21.1596 25.458 21.2005C25.367 21.2415 25.2921 21.292 25.2334 21.3522C25.129 21.4599 25.0611 21.5879 25.0293 21.7367C24.9976 21.8851 24.9817 22.0392 24.9817 22.1984C24.9817 22.3576 24.9976 22.5116 25.0293 22.66C25.0611 22.8086 25.129 22.9368 25.2334 23.0443C25.2921 23.1045 25.3673 23.155 25.458 23.1962C25.5487 23.2371 25.6531 23.2576 25.7711 23.2576C25.8894 23.2576 25.9935 23.2371 26.0845 23.1962C26.1753 23.155 26.2501 23.1045 26.3092 23.0443C26.4135 22.9368 26.4812 22.8086 26.5132 22.66C26.5449 22.5116 26.5608 22.3576 26.5608 22.1984Z" fill="white"/>
</g>
<mask id="mask6_9_399862" style="mask-type:luminance" maskUnits="userSpaceOnUse" x="3" y="17" width="34" height="7">
<path d="M37 17H3V24H37V17Z" fill="white"/>
</mask>
<g mask="url(#mask6_9_399862)">
<path d="M31.3521 22.2045C31.3521 22.5229 31.2998 22.8061 31.1951 23.0535C31.0908 23.3011 30.9321 23.5067 30.7186 23.6703C30.61 23.7562 30.4841 23.8251 30.3413 23.8768C30.1982 23.9285 30.038 23.9542 29.861 23.9542C29.6659 23.9542 29.4775 23.9189 29.2962 23.8479C29.1147 23.7766 28.9714 23.6637 28.8673 23.5088L28.8128 23.8768H28.0779V19.2148H28.9285V20.7646C29.0104 20.6701 29.1318 20.5915 29.2927 20.529C29.4539 20.4666 29.6411 20.4354 29.8546 20.4354C30.0358 20.4354 30.1984 20.4591 30.3415 20.5064C30.4843 20.5537 30.6103 20.6204 30.7189 20.7065C31.1408 21.0381 31.3521 21.5374 31.3521 22.2045ZM30.4873 22.1918C30.4873 22.0456 30.4722 21.9012 30.4429 21.7589C30.4134 21.6168 30.3534 21.4901 30.2624 21.3784C30.1987 21.3048 30.1203 21.2427 30.0276 21.1907C29.9344 21.1392 29.8223 21.1136 29.6907 21.1136C29.5228 21.1136 29.3865 21.147 29.2823 21.2135C29.178 21.2803 29.0961 21.3662 29.0376 21.472C28.9786 21.5773 28.9387 21.6937 28.9184 21.8205C28.898 21.9475 28.8879 22.0712 28.8879 22.1918C28.8879 22.3553 28.9082 22.522 28.9491 22.6923C28.9898 22.8623 29.0716 23.001 29.1941 23.1087C29.2528 23.1605 29.3232 23.2016 29.4053 23.2315C29.4869 23.2616 29.5821 23.2764 29.6909 23.2764C29.8226 23.2764 29.9346 23.2508 30.0279 23.1988C30.1206 23.1473 30.1989 23.085 30.2627 23.0116C30.3534 22.8997 30.4134 22.7718 30.4432 22.6274C30.4724 22.4832 30.4873 22.3383 30.4873 22.1918Z" fill="white"/>
</g>
<mask id="mask7_9_399862" style="mask-type:luminance" maskUnits="userSpaceOnUse" x="3" y="17" width="34" height="7">
<path d="M37 17H3V24H37V17Z" fill="white"/>
</mask>
<g mask="url(#mask7_9_399862)">
<path d="M35.1299 23.8384C35.0572 23.8688 34.9948 23.8913 34.9427 23.9062C34.8906 23.9212 34.8125 23.929 34.7081 23.929C34.5219 23.929 34.3791 23.8815 34.2792 23.7869C34.1793 23.6926 34.1228 23.5826 34.1091 23.4579C34.0273 23.5957 33.8912 23.714 33.7005 23.813C33.5099 23.912 33.2877 23.9614 33.0339 23.9614C32.8204 23.9614 32.6342 23.9325 32.4753 23.8744C32.3163 23.8163 32.1837 23.7387 32.0771 23.6418C31.9707 23.5449 31.8899 23.4332 31.8356 23.3062C31.7811 23.1792 31.754 23.0468 31.754 22.9093C31.754 22.7498 31.7845 22.608 31.8458 22.4829C31.9068 22.358 31.9923 22.2503 32.1009 22.16C32.2097 22.0697 32.3369 21.9996 32.4822 21.9503C32.6272 21.9006 32.7837 21.8691 32.952 21.8564L33.9934 21.7854V21.5785C33.9934 21.4193 33.9537 21.2909 33.8743 21.1942C33.795 21.0973 33.6351 21.0489 33.3941 21.0489C33.1945 21.0489 33.0393 21.09 32.928 21.1714C32.8169 21.2535 32.7569 21.3717 32.7475 21.5267H31.9239C31.9375 21.3372 31.9839 21.1735 32.0634 21.0359C32.1425 20.8981 32.2484 20.7852 32.3796 20.6971C32.5112 20.6089 32.6634 20.5433 32.8358 20.5002C33.0083 20.4572 33.1943 20.4355 33.3939 20.4355C33.6983 20.4355 33.9693 20.4861 34.2076 20.5872C34.4456 20.6886 34.6172 20.8661 34.7213 21.1199C34.7667 21.2276 34.7952 21.3395 34.8066 21.4557C34.8177 21.5719 34.8237 21.6862 34.8237 21.7979V23.0443C34.8237 23.1216 34.8383 23.1767 34.8678 23.2089C34.8973 23.2411 34.9484 23.2573 35.021 23.2573C35.0572 23.2573 35.0823 23.2552 35.0959 23.2507C35.1098 23.2507 35.121 23.2486 35.1299 23.2446V23.8384ZM33.9931 22.3856L33.0946 22.45C32.9632 22.4587 32.8449 22.4996 32.7406 22.5725C32.6359 22.6461 32.5839 22.7515 32.5839 22.8893C32.5839 23.0184 32.6349 23.1205 32.7371 23.1959C32.8392 23.2714 32.956 23.3086 33.0877 23.3086C33.3554 23.3086 33.5734 23.2432 33.7412 23.1118C33.9091 22.9805 33.9931 22.79 33.9931 22.5403V22.3856Z" fill="white"/>
</g>
<mask id="mask8_9_399862" style="mask-type:luminance" maskUnits="userSpaceOnUse" x="3" y="17" width="34" height="7">
<path d="M37 17H3V24H37V17Z" fill="white"/>
</mask>
<g mask="url(#mask8_9_399862)">
<path d="M37 23.8709C36.9137 23.8879 36.8512 23.9001 36.8128 23.9062C36.7741 23.9128 36.7117 23.9159 36.6256 23.9159C36.335 23.9159 36.1015 23.8448 35.9245 23.7028C35.7474 23.5608 35.6589 23.3305 35.6589 23.0119V19.209H36.5165V22.8767C36.5165 22.9757 36.5371 23.0542 36.578 23.1123C36.6189 23.1704 36.7117 23.1995 36.8569 23.1995C36.8934 23.1995 36.9204 23.1984 36.9388 23.1963C36.9569 23.1941 36.9772 23.1927 37 23.1927V23.8709Z" fill="white"/>
</g>
<mask id="mask9_9_399862" style="mask-type:luminance" maskUnits="userSpaceOnUse" x="3" y="17" width="34" height="7">
<path d="M37 17H3V24H37V17Z" fill="white"/>
</mask>
<g mask="url(#mask9_9_399862)">
<path d="M37 17H3V17.7431H37V17Z" fill="white"/>
</g>
</g>
<circle cx="20" cy="20" r="19.5" stroke="black" stroke-opacity="0.05"/>
<defs>
<clipPath id="clip0_9_399862">
<rect width="34" height="7" fill="white" transform="translate(3 17)"/>
</clipPath>
</defs>
</svg>
