<svg width="40" height="40" viewBox="0 0 40 40" fill="none" xmlns="http://www.w3.org/2000/svg">
<circle cx="20" cy="20" r="20" fill="#00D84D"/>
<path d="M20 10C14.4775 10 10 14.4775 10 20C10 25.5231 14.4775 30 20 30C25.5231 30 30 25.5231 30 20C30 14.4775 25.5231 10 20 10ZM24.5856 24.4231C24.5429 24.4929 24.4869 24.5537 24.4207 24.6018C24.3545 24.65 24.2795 24.6846 24.1999 24.7037C24.1203 24.7229 24.0378 24.7262 23.9569 24.7134C23.8761 24.7007 23.7986 24.6721 23.7288 24.6294C21.3806 23.1956 18.425 22.8706 14.9437 23.6656C14.7849 23.6961 14.6205 23.6637 14.4851 23.5752C14.3498 23.4868 14.254 23.3492 14.2181 23.1916C14.1822 23.0339 14.2089 22.8684 14.2927 22.7301C14.3764 22.5918 14.5105 22.4913 14.6669 22.45C18.4756 21.58 21.7431 21.9544 24.3794 23.5656C24.6731 23.7456 24.7663 24.1294 24.5856 24.4231ZM25.81 21.7C25.7565 21.7873 25.6863 21.8633 25.6034 21.9234C25.5205 21.9836 25.4266 22.0269 25.327 22.0507C25.2274 22.0746 25.1241 22.0786 25.0229 22.0625C24.9218 22.0464 24.8248 22.0105 24.7375 21.9569C22.05 20.305 17.9519 19.8263 14.7731 20.7913C14.5753 20.8511 14.3618 20.8301 14.1794 20.7329C13.997 20.6356 13.8606 20.4701 13.8 20.2725C13.7402 20.0745 13.7614 19.8609 13.8588 19.6784C13.9563 19.496 14.1222 19.3597 14.32 19.2994C17.9513 18.1975 22.4662 18.7312 25.5531 20.6281C25.92 20.8537 26.0356 21.3344 25.8094 21.7H25.81ZM25.915 18.8644C22.6919 16.95 17.3744 16.7744 14.2975 17.7081C14.18 17.7438 14.0566 17.756 13.9343 17.7439C13.8121 17.7319 13.6934 17.6959 13.5851 17.638C13.4768 17.5801 13.3809 17.5015 13.303 17.4065C13.2251 17.3116 13.1666 17.2022 13.1309 17.0847C13.0953 16.9672 13.0831 16.8437 13.0951 16.7215C13.1072 16.5993 13.1432 16.4806 13.2011 16.3723C13.2589 16.264 13.3376 16.1681 13.4325 16.0902C13.5275 16.0122 13.6368 15.9538 13.7544 15.9181C17.2869 14.8456 23.1588 15.0531 26.8694 17.2556C27.315 17.5194 27.4606 18.0931 27.1969 18.5375C27.1343 18.6432 27.0514 18.7354 26.9532 18.809C26.8549 18.8827 26.743 18.9362 26.624 18.9665C26.505 18.9969 26.3812 19.0035 26.2596 18.986C26.1381 18.9684 26.0206 18.9271 25.915 18.8644Z" fill="white"/>
<circle cx="20" cy="20" r="19.5" stroke="black" stroke-opacity="0.05"/>
</svg>
