<svg width="40" height="40" viewBox="0 0 40 40" fill="none" xmlns="http://www.w3.org/2000/svg">
<circle cx="20" cy="20" r="20" fill="#00ABE6"/>
<path d="M18.8666 9H18.9278C19.0311 9.03086 19.0951 9.09062 19.1196 9.17929C19.1373 9.24338 19.132 9.30268 19.1037 9.3572C19.07 9.422 18.9925 9.48758 18.9133 9.48989C18.8975 9.49041 18.8819 9.49175 18.8664 9.49391C18.7275 9.51345 18.5908 9.53351 18.4563 9.55408C17.8146 9.65263 17.1972 9.80281 16.6041 10.0046C16.5065 10.038 16.4097 10.0732 16.3137 10.1105C15.4387 10.4501 14.6189 10.8943 13.8544 11.4428C13.5895 11.6329 13.3465 11.8372 13.1033 12.0472C13.0042 12.1327 12.9059 12.2273 12.8098 12.3163C12.6478 12.4666 12.5034 12.6143 12.3552 12.7645C12.3071 12.8133 12.2633 12.861 12.2238 12.9076C12.1182 13.0318 12.0082 13.1511 11.905 13.275C10.9894 14.3742 10.288 15.6633 9.89204 17.0451C9.47812 18.4895 9.37242 19.945 9.57496 21.4117C9.60685 21.6427 9.64121 21.8383 9.67803 21.9983C9.70488 22.1147 9.73178 22.2328 9.75873 22.3529C9.89868 22.9776 10.0806 23.5777 10.3343 24.1648C10.9945 25.694 12.1216 27.0542 13.7314 27.6025C14.4566 27.8497 15.2438 27.8787 15.9677 27.7019C16.5795 27.5522 17.1799 27.406 17.7689 27.2631C18.8994 26.9887 20.032 26.7127 21.1669 26.435C21.9578 26.2414 22.7898 26.0369 23.6629 25.8215C23.8838 25.7671 24.1047 25.7129 24.3256 25.659C24.4608 25.626 24.5553 25.5981 24.6091 25.5752C24.8853 25.4577 25.1301 25.2241 25.2688 24.9702C25.3998 24.7305 25.4537 24.3714 25.2212 24.1835C25.0619 24.0548 24.8502 24.0446 24.656 24.096C24.315 24.1863 24.008 24.266 23.735 24.3351C23.4462 24.4084 23.1576 24.427 22.8692 24.391C22.6747 24.3668 22.5081 24.3263 22.3694 24.2694C22.1016 24.1597 21.8738 23.9806 21.714 23.7351C21.564 23.5048 21.4801 23.2506 21.4623 22.9725C21.4503 22.7856 21.4608 22.5929 21.494 22.3944C21.495 22.3884 21.493 22.3871 21.4879 22.3904C21.0945 22.6533 20.6626 22.8755 20.2068 23.0065C20.1016 23.0367 19.9924 23.0664 19.8794 23.0954C19.4531 23.2046 19.0229 23.315 18.5887 23.4265C18.5828 23.428 18.5793 23.4318 18.5782 23.4378C18.5522 23.5783 18.527 23.7165 18.5026 23.8525C18.4937 23.9028 18.4816 23.953 18.4663 24.0031C18.4523 24.0498 18.4409 24.0991 18.4322 24.1509C18.3863 24.4257 18.3029 24.6781 18.1821 24.9084C17.9532 25.3449 17.6086 25.6701 17.1483 25.884C16.9342 25.9836 16.7122 26.05 16.4824 26.0833C16.4695 26.0852 16.4567 26.0852 16.4438 26.0835C16.4404 26.0831 16.439 26.0812 16.4395 26.0778L17.2423 20.5067C17.2436 20.4976 17.241 20.4962 17.2344 20.5026C17.0382 20.6936 16.8129 20.8591 16.5884 21.0065C16.3122 21.1876 16.0156 21.3301 15.6986 21.4337C15.6314 21.4558 15.5324 21.4837 15.4017 21.5177C15.2264 21.5633 15.0565 21.6079 14.8919 21.6513C13.7617 21.9494 12.6195 22.2518 11.4651 22.5584C11.4644 22.5586 11.4638 22.5586 11.4631 22.5585C11.4624 22.5584 11.4618 22.5581 11.4612 22.5577C11.4607 22.5573 11.4602 22.5568 11.4599 22.5562C11.4596 22.5556 11.4594 22.5549 11.4594 22.5542C11.4469 22.1221 11.5503 21.6857 11.7777 21.3199C11.9171 21.0959 12.0998 20.9077 12.3259 20.7553C12.5041 20.6352 12.6987 20.5286 12.9011 20.4754C13.8369 20.2297 14.7726 19.9833 15.7081 19.7365C15.7839 19.7165 15.8421 19.6994 15.8826 19.6852C16.0999 19.6089 16.2837 19.4754 16.4447 19.297C16.6063 19.118 16.733 18.883 16.7324 18.6425C16.7319 18.5099 16.6989 18.4045 16.6333 18.3262C16.5649 18.2446 16.4801 18.1913 16.379 18.1662C16.27 18.1392 16.1625 18.1387 16.0565 18.1645C15.8266 18.2205 15.5511 18.292 15.23 18.379C14.955 18.4533 14.6867 18.4964 14.4072 18.4882C14.2493 18.4837 14.0821 18.4579 13.9056 18.4109C13.4713 18.2952 13.1186 18.0015 12.9414 17.5888C12.8634 17.407 12.8203 17.2176 12.812 17.0205C12.7981 16.6926 12.8454 16.3533 12.9572 16.0409C13.1764 15.4269 13.5676 14.8664 14.0355 14.4109C14.2986 14.1549 14.5835 13.93 14.8903 13.7362C15.2306 13.5212 15.6002 13.3642 15.9991 13.2652C16.1641 13.2243 16.3362 13.1812 16.5153 13.1359C16.651 13.1016 16.7829 13.0697 16.9107 13.0403C16.9734 13.0259 17.0335 13.0052 17.0943 12.9904C17.5012 12.892 17.901 12.7933 18.2938 12.6943C18.3489 12.6803 18.4048 12.6758 18.4606 12.6621C20.1849 12.2374 21.9111 11.8114 23.6393 11.3842C23.7508 11.3566 23.8505 11.335 23.9385 11.3194C24.4876 11.2216 25.0324 11.2037 25.5728 11.2657C26.2806 11.347 26.9976 11.5641 27.643 11.9046C28.1343 12.164 28.5821 12.4723 28.9865 12.8295C29.5529 13.3298 30.0482 13.9177 30.4725 14.5931C30.9325 15.3254 31.2883 16.1292 31.5483 16.9591C31.6128 17.1653 31.6756 17.385 31.7367 17.6184C31.741 17.6349 31.7527 17.6516 31.756 17.6678C31.7996 17.8955 31.845 18.1205 31.8777 18.3509C31.9469 18.8401 31.9871 19.379 31.9981 19.9675C32.0096 20.5871 31.9698 21.1965 31.8786 21.7956C31.5761 23.7835 30.8262 25.575 29.6288 27.1699C29.333 27.564 29.0055 27.9371 28.654 28.2933C28.4267 28.5236 28.2394 28.7043 28.0919 28.8352C27.9583 28.9538 27.7864 29.0969 27.5762 29.2645C27.4913 29.3321 27.4066 29.397 27.3219 29.4594C26.8246 29.8253 26.3001 30.1465 25.7484 30.4229C25.3842 30.6054 24.9802 30.7812 24.5364 30.9502C24.1661 31.0913 23.7593 31.2174 23.3159 31.3285C22.5049 31.5318 21.6987 31.6598 20.8971 31.7126H20.8586C20.7579 31.6838 20.6944 31.6235 20.6683 31.5317C20.6401 31.4327 20.689 31.3146 20.7749 31.2548C20.801 31.2368 20.8409 31.2243 20.8947 31.2174C21.024 31.2011 21.1436 31.1849 21.2534 31.169C22.0558 31.0526 22.8333 30.8542 23.5859 30.5737C23.6812 30.5382 23.7768 30.5016 23.8728 30.464C24.7832 30.1068 25.6335 29.6289 26.4236 29.0303C26.7401 28.7905 27.0333 28.5385 27.3033 28.2742C27.8812 27.7084 28.3877 27.0876 28.8229 26.4117C29.3844 25.5397 29.8108 24.5963 30.1024 23.5816C30.131 23.4819 30.1585 23.3789 30.1851 23.2725C30.5122 21.9565 30.5804 20.6222 30.3897 19.2696C30.3605 19.0628 30.3278 18.8786 30.2917 18.717C30.2675 18.609 30.2431 18.4997 30.2184 18.389C30.1511 18.0876 30.0736 17.7927 29.9857 17.5044C29.7057 16.5846 29.2849 15.7044 28.7063 14.9448C28.1426 14.2048 27.4136 13.5899 26.5497 13.2242C25.892 12.9459 25.2089 12.8435 24.5004 12.917C24.3483 12.9327 24.167 12.9659 23.9565 13.0165C23.521 13.121 23.1237 13.2179 22.7646 13.3072C22.7116 13.3204 22.6579 13.3336 22.6034 13.3469C22.4451 13.3854 22.261 13.4295 22.0511 13.4789C21.9647 13.4993 21.8706 13.522 21.7686 13.5471C21.1076 13.7099 20.4162 13.8796 19.6944 14.0563C19.1544 14.1886 18.6065 14.3216 18.0508 14.4552C17.8505 14.5033 17.6552 14.5522 17.4648 14.6019C16.8326 14.7667 16.2091 14.9249 15.5782 15.0887C15.497 15.1097 15.424 15.138 15.3591 15.1737C15.0326 15.3527 14.7663 15.705 14.6978 16.0697C14.6543 16.3013 14.7607 16.5309 14.9842 16.6126C15.0959 16.6533 15.2141 16.658 15.3389 16.6268C15.6646 16.545 15.9842 16.4634 16.2978 16.3819C16.4036 16.3544 16.5017 16.3337 16.5921 16.3197C16.8459 16.2807 17.0894 16.2858 17.3227 16.3348C17.8874 16.4535 18.2737 16.7787 18.4815 17.3103C18.4834 17.3152 18.487 17.317 18.4921 17.3155C18.562 17.2963 18.6302 17.275 18.7018 17.2564C19.377 17.083 20.0509 16.909 20.7236 16.7345C20.8773 16.6947 21.0113 16.6617 21.1255 16.6357C21.5025 16.5499 21.878 16.52 22.252 16.5836C22.3603 16.602 22.4605 16.6243 22.5524 16.6507C22.8782 16.7443 23.1556 16.913 23.3846 17.1569C23.6597 17.4499 23.8191 17.8443 23.8706 18.2477C23.9255 18.6764 23.8627 19.1356 23.7393 19.5552C23.7359 19.5667 23.7395 19.5695 23.7499 19.5637C24.0226 19.409 24.3151 19.3013 24.6213 19.223C25.6435 18.9613 26.6641 18.7005 27.683 18.4405C27.753 18.4226 27.824 18.4109 27.8934 18.3932C28.2228 18.3095 28.5582 18.224 28.8996 18.1366C28.906 18.1349 28.9093 18.1374 28.9095 18.1441C28.9171 18.481 28.8558 18.8008 28.7257 19.1035C28.5778 19.4476 28.3492 19.7232 28.0399 19.9303C27.9304 20.0035 27.8132 20.0686 27.6882 20.1255C27.6213 20.156 27.5547 20.1797 27.4884 20.1966C26.6829 20.4015 25.8966 20.6021 25.1295 20.7983C25.0547 20.8175 24.9799 20.8365 24.905 20.8554C24.8024 20.8814 24.6949 20.9091 24.5827 20.9386C24.4305 20.9786 24.2732 21.011 24.1275 21.0691C24.0512 21.0996 23.9764 21.1427 23.903 21.1984C23.6444 21.3949 23.4404 21.6808 23.3793 22.002C23.3457 22.179 23.3954 22.3645 23.5415 22.4788C23.632 22.5496 23.7349 22.5836 23.8501 22.5808C23.927 22.5789 24.015 22.5654 24.1139 22.5402C24.4321 22.459 24.7308 22.3826 25.0101 22.3109C25.1198 22.2827 25.2185 22.2626 25.306 22.2506C25.7475 22.1899 26.2071 22.2622 26.5856 22.507C26.6992 22.5805 26.8041 22.6763 26.9002 22.7946C27.0857 23.0227 27.1987 23.2784 27.2394 23.5618C27.3198 24.1228 27.1537 24.713 26.8917 25.2052C26.4725 25.9931 25.8357 26.6282 25.0598 27.065C24.8456 27.1855 24.6257 27.2759 24.396 27.354C24.3094 27.3834 24.2186 27.4099 24.1238 27.4334C23.7263 27.532 23.2952 27.6379 22.8305 27.7511C22.14 27.9195 21.4849 28.0797 20.8652 28.2318C20.8153 28.2441 20.7647 28.2561 20.7132 28.2679C20.3326 28.3552 19.9508 28.4462 19.5679 28.541C19.4819 28.5623 19.3909 28.5839 19.2951 28.6058C19.2151 28.6241 19.1243 28.6458 19.0224 28.6709C18.2396 28.8636 17.3665 29.0763 16.4031 29.3091C16.0284 29.3996 15.645 29.4512 15.2679 29.4617C15.0936 29.4666 14.916 29.4669 14.7396 29.4561C14.0299 29.4124 13.3506 29.2455 12.7015 28.9554C10.3259 27.8939 8.88248 25.5419 8.26668 23.0809C8.26081 23.0574 8.24847 23.0384 8.24399 23.0151C8.20527 22.8121 8.15944 22.597 8.13197 22.399C8.06696 21.9309 8.02638 21.5066 8.01023 21.1261C7.97649 20.3243 8.02618 19.5179 8.15929 18.7068C8.35385 17.5214 8.74006 16.3623 9.27902 15.297C9.75817 14.3501 10.3622 13.4808 11.0912 12.6894C11.2662 12.4995 11.4499 12.3123 11.6424 12.1278C11.6715 12.0999 11.7012 12.0728 11.7314 12.0466C11.8383 11.9542 11.9192 11.8405 12.0295 11.7482C12.1878 11.616 12.3522 11.4765 12.5119 11.353C12.688 11.2169 12.8531 11.0959 13.0073 10.99C13.0994 10.9266 13.2442 10.832 13.4418 10.7062C13.5281 10.6512 13.6159 10.5976 13.705 10.5456C14.6155 10.0147 15.5653 9.61688 16.5544 9.35211C16.7972 9.2871 17.0916 9.22368 17.4376 9.16186C17.9102 9.07741 18.3865 9.02345 18.8666 9ZM20.7478 21.1434C20.8582 21.0847 20.9586 21.0211 21.0491 20.9526C21.2265 20.8186 21.3865 20.6675 21.5293 20.4995C21.6581 20.3478 21.7679 20.1768 21.8589 19.9863C21.9919 19.7075 22.0407 19.4294 22.0053 19.152C21.9569 18.7707 21.703 18.4913 21.3253 18.4134C21.1369 18.3744 20.9582 18.3762 20.7893 18.4188C20.289 18.5447 19.7784 18.6752 19.2576 18.8102C19.2535 18.8112 19.2512 18.8139 19.2506 18.8181L18.8399 21.6828C18.8398 21.6836 18.8399 21.6845 18.8402 21.6853C18.8405 21.6861 18.841 21.6868 18.8416 21.6873C18.8423 21.6879 18.843 21.6883 18.8439 21.6885C18.8447 21.6887 18.8456 21.6887 18.8464 21.6885C19.2939 21.5732 19.7393 21.4596 20.1826 21.3478C20.3861 21.2964 20.569 21.2384 20.7478 21.1434Z" fill="white"/>
<circle cx="20" cy="20" r="19.5" stroke="black" stroke-opacity="0.05"/>
</svg>
