<svg width="40" height="40" viewBox="0 0 40 40" fill="none" xmlns="http://www.w3.org/2000/svg">
<circle cx="20" cy="20" r="20" fill="#1E1E23"/>
<g clip-path="url(#clip0_9_412145)">
<path d="M20.0486 10.2861L28.5001 15.1918C21.3115 12.0286 16.3815 13.4676 16.3147 13.4493C17.3621 12.182 18.6264 11.111 20.0486 10.2861Z" fill="url(#paint0_linear_9_412145)"/>
<path d="M22.7565 11.8463L28.5001 15.1916C21.3115 12.0284 16.3815 13.4674 16.3147 13.4491C17.5654 11.8706 21.5361 11.5549 22.7565 11.8463Z" fill="url(#paint1_linear_9_412145)"/>
<path d="M20.0486 10.2861L28.5001 15.1918C21.3115 12.0286 16.3815 13.4676 16.3147 13.4493C17.3621 12.182 18.6264 11.111 20.0486 10.2861Z" fill="url(#paint2_linear_9_412145)"/>
<path d="M19.9939 20.0005L11.5 15.1494V24.8758L19.9939 29.6723V20.0005Z" fill="url(#paint3_linear_9_412145)"/>
<path d="M19.9818 20.37L11.5 16.1807V24.5775L19.9818 28.7242V20.3639V20.37Z" fill="url(#paint4_linear_9_412145)"/>
<path d="M19.9939 20.0425L11.5 15.1914V24.9178L19.9939 29.7143V20.0425Z" fill="url(#paint5_linear_9_412145)"/>
<path d="M28.488 15.1674C22.3376 12.757 17.948 13.2367 13.5522 16.3513L28.5001 24.8574L28.488 15.1674Z" fill="url(#paint6_linear_9_412145)"/>
<path d="M28.4878 20.2002C26.5756 20.1992 24.7186 19.5594 23.2116 18.3824C21.7047 17.2055 20.6341 15.5587 20.1699 13.7038C22.6349 13.4549 25.3306 13.9284 28.4878 15.1609V20.2002Z" fill="url(#paint7_linear_9_412145)" fill-opacity="0.7"/>
<path d="M28.4878 20.2002C26.5756 20.1992 24.7186 19.5594 23.2116 18.3824C21.7047 17.2055 20.6341 15.5587 20.1699 13.7038C22.6349 13.4549 25.3306 13.9284 28.4878 15.1609V20.2002Z" fill="url(#paint8_linear_9_412145)" fill-opacity="0.8"/>
<path d="M28.4878 20.2002C26.5756 20.1992 24.7186 19.5594 23.2116 18.3824C21.7047 17.2055 20.6341 15.5587 20.1699 13.7038C22.6349 13.4549 25.3306 13.9284 28.4878 15.1609V20.2002Z" fill="url(#paint9_linear_9_412145)"/>
<path d="M28.4878 20.2002C26.5756 20.1992 24.7186 19.5594 23.2116 18.3824C21.7047 17.2055 20.6341 15.5587 20.1699 13.7038C22.6349 13.4549 25.3306 13.9284 28.4878 15.1609V20.2002Z" fill="url(#paint10_linear_9_412145)"/>
<path d="M11.5 15.155C16.4968 12.0404 23.7279 12.7265 28.4757 15.1733C22.8596 13.0968 19.745 13.1454 13.5339 16.3511L11.5 15.155Z" fill="url(#paint11_linear_9_412145)"/>
<path d="M11.5 15.155C16.4968 12.0404 23.7279 12.7265 28.4757 15.1733C22.8596 13.0968 19.745 13.1454 13.5339 16.3511L11.5 15.155Z" fill="url(#paint12_linear_9_412145)" fill-opacity="0.8"/>
<path d="M11.5 15.155C16.4968 12.0404 23.7279 12.7265 28.4757 15.1733C22.8596 13.0968 19.745 13.1454 13.5339 16.3511L11.5 15.155Z" fill="url(#paint13_linear_9_412145)"/>
<path d="M19.9939 20V29.6718C20.4553 27.3768 22.9082 23.3089 28.5 24.8571C25.8415 22.9462 22.9907 21.3183 19.9939 20Z" fill="url(#paint14_linear_9_412145)"/>
<path opacity="0.5" d="M11.5 21.4567C11.5243 19.6534 13.625 17.8624 14.475 17.1156C14.3111 16.8606 13.8496 16.3506 13.3093 16.3506C12.6293 16.3506 11.5 17.7592 11.5 21.4627V21.4567Z" fill="url(#paint15_linear_9_412145)"/>
<path d="M22.1129 23.3398C22.0764 22.9208 21.3722 21.8583 21.02 21.3848C21.2264 21.4698 22.0279 21.9616 23.5579 23.2001C23.2118 22.9937 22.6168 23.5826 22.3557 23.8983C22.295 23.8862 22.1554 23.7526 22.1129 23.3337V23.3398Z" fill="url(#paint16_linear_9_412145)"/>
<path d="M13.5826 24.4318C13.4612 23.3085 13.9469 18.8339 14.208 16.7393C14.3658 16.97 14.7423 18.2693 14.9973 21.6571C15.2462 25.0571 16.673 27.4371 17.353 28.2021L14.208 26.4232C13.8377 25.8237 13.6228 25.1413 13.5826 24.4378V24.4318Z" fill="url(#paint17_linear_9_412145)"/>
<path d="M13.0179 24.3412C13.0543 24.9666 13.8375 25.9805 14.22 26.4055L12.8904 25.677C12.7689 25.2945 12.9693 23.558 13.0118 24.3412H13.0179Z" fill="url(#paint18_linear_9_412145)"/>
<path d="M23.0054 13.5214C24.4261 13.8007 27.2189 14.6689 28.4939 15.1789L26.6543 14.1103C26.2657 13.8736 25.015 13.1571 24.5779 12.9082C24.7236 13.0478 25.8286 13.6489 26.2657 13.9889C24.42 13.2664 19.6054 12.6046 16.3511 13.4C17.6686 13.1571 20.7589 13.0782 23.0054 13.5214Z" fill="url(#paint19_linear_9_412145)"/>
<path d="M22.7807 18.0576C20.6921 16.819 16.8246 15.9326 15.1489 15.6533C15.1489 15.4226 18.1604 14.1901 20.2246 13.8926C20.5282 14.9369 21.0746 15.9811 22.7746 18.0576H22.7807Z" fill="url(#paint20_linear_9_412145)"/>
<path d="M16.4967 14.9727L22.7806 18.0144C23.7885 18.4516 25.8345 19.4291 25.9499 19.8419C26.0835 20.358 24.9481 20.0848 24.602 20.0848C24.262 20.0848 22.7806 19.4655 20.1638 18.3241C18.0692 17.4134 14.8331 16.6241 13.5095 16.3569C14.4731 15.829 15.471 15.3665 16.4967 14.9727Z" fill="url(#paint21_linear_9_412145)"/>
<path d="M25.2942 19.5749C26.1625 19.5506 24.0678 18.5731 22.9082 18.0813C22.7303 18.007 22.5394 17.9688 22.3466 17.9688C22.1538 17.9688 21.9629 18.007 21.785 18.0813C21.2689 18.3424 24.2014 19.6053 25.2942 19.5749Z" fill="url(#paint22_linear_9_412145)"/>
<path d="M25.871 20.1216C26.9152 19.7695 23.8067 18.5431 22.1127 17.9723C21.8213 17.8691 21.1413 17.8084 20.7588 18.367C20.2852 19.0652 24.5656 20.5648 25.871 20.1277V20.1216Z" fill="url(#paint23_linear_9_412145)"/>
<path opacity="0.8" d="M20 28.5181V20.8984C21.0807 21.6756 23.0296 23.3574 22.2161 23.8613C21.6939 24.1831 20.8864 25.6827 21.3054 26.0106C21.0443 26.4659 20.1457 28.2084 20 28.5181Z" fill="url(#paint24_linear_9_412145)"/>
<path d="M20.6072 27.0913C22.119 24.0677 25.774 23.8127 27.4072 24.0738L27.7715 24.3288C25.9075 24.4077 23.5336 23.7338 20.6072 27.0913Z" fill="url(#paint25_linear_9_412145)"/>
<path d="M25.7678 19.5325L28.4757 18.5732L28.5 24.8572L25.7678 19.5265V19.5325Z" fill="url(#paint26_linear_9_412145)"/>
<path d="M13.5642 16.3567C14.8877 16.8424 24.4806 19.5806 26.047 20.042L28.4999 24.8567C27.5802 24.1682 26.6213 23.5337 25.6281 22.9563C25.4763 22.8774 24.4927 22.1974 23.157 21.572C22.0156 20.9406 20.7527 20.2484 19.9877 20.042C18.0449 18.8338 14.5842 16.9031 13.5581 16.3506L13.5642 16.3567Z" fill="url(#paint27_linear_9_412145)"/>
<path d="M21.2385 18.786C20.0425 17.6506 15.7864 16.8067 13.5278 16.3574L20.0182 20.0367L23.1875 21.6031C22.5075 20.8503 22.4407 19.9274 21.2446 18.786H21.2385Z" fill="url(#paint28_linear_9_412145)" fill-opacity="0.8"/>
<path d="M11.5 15.1858V15.3254L19.7875 19.9883C20.0304 20.1219 19.9696 20.4983 20 20.644C20.0121 20.5104 20.0182 20.2797 20.0911 20.1765C20.1821 20.0551 22.3982 21.2633 23.825 21.9008C23.2543 21.5608 21.0321 20.4801 20 19.9883L11.6457 15.0947L11.5061 15.1858H11.5Z" fill="url(#paint29_linear_9_412145)"/>
<path d="M25.2092 22.6895C26.0289 23.2237 27.7592 24.3591 28.1417 24.5959C27.8139 24.2741 26.0471 23.1873 25.2092 22.6895Z" fill="url(#paint30_linear_9_412145)"/>
</g>
<circle cx="20" cy="20" r="19.5" stroke="black" stroke-opacity="0.05"/>
<defs>
<linearGradient id="paint0_linear_9_412145" x1="19.5326" y1="12.2047" x2="24.2865" y2="12.7451" gradientUnits="userSpaceOnUse">
<stop offset="0.08" stop-color="#ECD7A1"/>
<stop offset="0.68" stop-color="#E0CDA3" stop-opacity="0.41"/>
</linearGradient>
<linearGradient id="paint1_linear_9_412145" x1="19.1865" y1="10.6138" x2="20.7954" y2="16.1266" gradientUnits="userSpaceOnUse">
<stop offset="0.29" stop-color="#C7AD95"/>
<stop offset="0.43" stop-color="#DBD3B5"/>
<stop offset="0.55" stop-color="#D6C7D7"/>
<stop offset="0.68" stop-color="#8CD7D0"/>
<stop offset="0.78" stop-color="#DBD3B5"/>
<stop offset="0.87" stop-color="#C7AD95"/>
<stop offset="1" stop-color="#D8C6A4" stop-opacity="0"/>
</linearGradient>
<linearGradient id="paint2_linear_9_412145" x1="15.9383" y1="10.5411" x2="20.5708" y2="12.7451" gradientUnits="userSpaceOnUse">
<stop offset="0.39" stop-color="#EEFEFD"/>
<stop offset="0.72" stop-color="#E0F6E6"/>
<stop offset="1" stop-color="#D8C6A4" stop-opacity="0"/>
</linearGradient>
<linearGradient id="paint3_linear_9_412145" x1="20.3825" y1="18.343" x2="14.6207" y2="28.8405" gradientUnits="userSpaceOnUse">
<stop offset="0.22" stop-color="#F9462D"/>
<stop offset="0.43" stop-color="#C7A387"/>
<stop offset="0.57" stop-color="#4CBAA9"/>
<stop offset="0.72" stop-color="#4CBAA9"/>
<stop offset="0.99" stop-color="#F9462D"/>
</linearGradient>
<linearGradient id="paint4_linear_9_412145" x1="15.7379" y1="25.9678" x2="18.3121" y2="19.01" gradientUnits="userSpaceOnUse">
<stop offset="0.14" stop-color="#C7A387" stop-opacity="0"/>
<stop offset="0.55" stop-color="#C4A68B"/>
<stop offset="1" stop-color="#F9462D" stop-opacity="0"/>
</linearGradient>
<linearGradient id="paint5_linear_9_412145" x1="11.5" y1="14.8332" x2="22.2282" y2="23.2907" gradientUnits="userSpaceOnUse">
<stop offset="0.12" stop-color="#F9462D"/>
<stop offset="0.17" stop-color="#FF9DB0"/>
<stop offset="0.23" stop-color="#FFB2AA"/>
<stop offset="0.29" stop-color="#F9462D" stop-opacity="0"/>
</linearGradient>
<linearGradient id="paint6_linear_9_412145" x1="27.6197" y1="13.6435" x2="21.0687" y2="24.8635" gradientUnits="userSpaceOnUse">
<stop stop-color="#FFFDFF"/>
<stop offset="0.27" stop-color="#36D5EC"/>
<stop offset="0.49" stop-color="#D3CCBC"/>
</linearGradient>
<linearGradient id="paint7_linear_9_412145" x1="19.3078" y1="15.3066" x2="26.2899" y2="13.6309" gradientUnits="userSpaceOnUse">
<stop offset="0.07" stop-color="white" stop-opacity="0"/>
<stop offset="0.25" stop-color="#F77572"/>
<stop offset="0.51" stop-color="#D75086"/>
<stop offset="1" stop-color="white" stop-opacity="0"/>
</linearGradient>
<linearGradient id="paint8_linear_9_412145" x1="27.7289" y1="18.9313" x2="24.3471" y2="14.6813" gradientUnits="userSpaceOnUse">
<stop offset="0.33" stop-color="#28ADBE"/>
<stop offset="1" stop-color="white" stop-opacity="0"/>
</linearGradient>
<linearGradient id="paint9_linear_9_412145" x1="28.0446" y1="16.4541" x2="25.7738" y2="18.6156" gradientUnits="userSpaceOnUse">
<stop stop-color="white"/>
<stop offset="1" stop-color="white" stop-opacity="0"/>
</linearGradient>
<linearGradient id="paint10_linear_9_412145" x1="22.7017" y1="22.3981" x2="26.126" y2="18.2634" gradientUnits="userSpaceOnUse">
<stop offset="0.33" stop-color="#5A6052"/>
<stop offset="1" stop-opacity="0"/>
</linearGradient>
<linearGradient id="paint11_linear_9_412145" x1="13.4004" y1="14.7361" x2="23.91" y2="13.3883" gradientUnits="userSpaceOnUse">
<stop stop-color="#F7E4C6"/>
<stop offset="1" stop-color="#FFFEFC"/>
</linearGradient>
<linearGradient id="paint12_linear_9_412145" x1="11.5" y1="15.92" x2="17.9721" y2="14.384" gradientUnits="userSpaceOnUse">
<stop stop-color="#9BC9A2"/>
<stop offset="0.42" stop-color="#FEE2BC"/>
<stop offset="0.72" stop-color="white" stop-opacity="0"/>
</linearGradient>
<linearGradient id="paint13_linear_9_412145" x1="20.4554" y1="13.7222" x2="20.3643" y2="14.9183" gradientUnits="userSpaceOnUse">
<stop stop-color="white"/>
<stop offset="1" stop-color="white" stop-opacity="0"/>
</linearGradient>
<linearGradient id="paint14_linear_9_412145" x1="22.811" y1="25.4946" x2="20.7953" y2="21.3479" gradientUnits="userSpaceOnUse">
<stop stop-color="#EB0031"/>
<stop offset="0.23" stop-color="#C24131"/>
<stop offset="0.51" stop-color="#BA5D2F"/>
<stop offset="0.78" stop-color="#BEBBA9"/>
<stop offset="1" stop-color="#E7A9DD"/>
</linearGradient>
<linearGradient id="paint15_linear_9_412145" x1="12.5443" y1="16.9334" x2="15.4039" y2="19.7324" gradientUnits="userSpaceOnUse">
<stop stop-color="#FFA881"/>
<stop offset="0.11" stop-color="#FFBFC2"/>
<stop offset="0.26" stop-color="#FFB99B"/>
<stop offset="0.39" stop-color="#F95D4A"/>
</linearGradient>
<linearGradient id="paint16_linear_9_412145" x1="21.9489" y1="21.7308" x2="21.5239" y2="22.0951" gradientUnits="userSpaceOnUse">
<stop stop-color="#BB6539" stop-opacity="0"/>
<stop offset="0.4" stop-color="#BB5B30"/>
<stop offset="0.97" stop-color="#BB5D30" stop-opacity="0"/>
</linearGradient>
<linearGradient id="paint17_linear_9_412145" x1="23.0055" y1="22.0821" x2="12.168" y2="28.8882" gradientUnits="userSpaceOnUse">
<stop offset="0.34" stop-color="#FA462E"/>
<stop offset="0.57" stop-color="#ABBDA1"/>
<stop offset="0.74" stop-color="#F3AF8C"/>
</linearGradient>
<linearGradient id="paint18_linear_9_412145" x1="12.5929" y1="24.9362" x2="14.22" y2="26.4055" gradientUnits="userSpaceOnUse">
<stop offset="0.01" stop-color="#CEC68B" stop-opacity="0"/>
<stop offset="0.41" stop-color="#CBC389"/>
<stop offset="1" stop-color="#C4C4C4" stop-opacity="0"/>
</linearGradient>
<linearGradient id="paint19_linear_9_412145" x1="26.1443" y1="14.2318" x2="15.4707" y2="13.5943" gradientUnits="userSpaceOnUse">
<stop stop-color="#DC5029"/>
<stop offset="0.42" stop-color="#D4A677"/>
<stop offset="1" stop-color="#C4C4C4" stop-opacity="0"/>
</linearGradient>
<linearGradient id="paint20_linear_9_412145" x1="20.9775" y1="13.9836" x2="18.5368" y2="16.4669" gradientUnits="userSpaceOnUse">
<stop offset="0.12" stop-color="#CEABB1"/>
<stop offset="0.55" stop-color="#B5C7C7"/>
<stop offset="0.73" stop-color="#BEC4AA"/>
<stop offset="1" stop-color="#C4C4C4" stop-opacity="0"/>
</linearGradient>
<linearGradient id="paint21_linear_9_412145" x1="18.227" y1="18.6641" x2="19.7327" y2="15.3491" gradientUnits="userSpaceOnUse">
<stop stop-color="#9FD6AE"/>
<stop offset="0.26" stop-color="#C4D3B5"/>
<stop offset="0.43" stop-color="#A3B7C2"/>
<stop offset="0.59" stop-color="#ACCBD1"/>
<stop offset="1" stop-color="#C4C4C4" stop-opacity="0"/>
</linearGradient>
<linearGradient id="paint22_linear_9_412145" x1="22.4467" y1="17.966" x2="23.7703" y2="20.1213" gradientUnits="userSpaceOnUse">
<stop stop-color="#EDD69B" stop-opacity="0"/>
<stop offset="0.29" stop-color="#EDD69B"/>
<stop offset="0.57" stop-color="#DBCFAC"/>
<stop offset="0.94" stop-color="#B9C4CD"/>
<stop offset="1" stop-color="#C4C4C4" stop-opacity="0"/>
</linearGradient>
<linearGradient id="paint23_linear_9_412145" x1="24.0738" y1="17.7963" x2="23.6124" y2="20.7348" gradientUnits="userSpaceOnUse">
<stop offset="0.48" stop-color="#C4C4C4" stop-opacity="0"/>
<stop offset="0.8" stop-color="#02CBDF"/>
</linearGradient>
<linearGradient id="paint24_linear_9_412145" x1="20.9289" y1="20.8984" x2="22.0461" y2="27.5042" gradientUnits="userSpaceOnUse">
<stop offset="0.05" stop-color="#C4C4C4" stop-opacity="0"/>
<stop offset="0.2" stop-color="#948594"/>
<stop offset="0.43" stop-color="#B2846D"/>
<stop offset="0.63" stop-color="#93C8A9"/>
<stop offset="0.9" stop-color="#C4C4C4" stop-opacity="0"/>
</linearGradient>
<linearGradient id="paint25_linear_9_412145" x1="23.0297" y1="23.7277" x2="23.394" y2="25.5491" gradientUnits="userSpaceOnUse">
<stop offset="0.38" stop-color="#AC1F2E"/>
<stop offset="1" stop-color="#A9132F" stop-opacity="0"/>
</linearGradient>
<linearGradient id="paint26_linear_9_412145" x1="26.976" y1="19.15" x2="28.7368" y2="25.0029" gradientUnits="userSpaceOnUse">
<stop stop-color="#6ADBFF" stop-opacity="0"/>
<stop offset="0.13" stop-color="#20AAB0"/>
<stop offset="0.29" stop-color="#ADC961"/>
<stop offset="0.48" stop-color="#D12C8F"/>
<stop offset="0.67" stop-color="#9FD154"/>
<stop offset="0.85" stop-color="#D7699F"/>
<stop offset="0.94" stop-color="#BD110C"/>
</linearGradient>
<linearGradient id="paint27_linear_9_412145" x1="28.6699" y1="17.2127" x2="28.4817" y2="25.0449" gradientUnits="userSpaceOnUse">
<stop offset="0.22" stop-color="#04D9DA"/>
<stop offset="0.37" stop-color="#6FBBC0"/>
<stop offset="0.52" stop-color="#88A05B"/>
<stop offset="0.64" stop-color="#B05E8F"/>
<stop offset="0.74" stop-color="#9BB07F"/>
<stop offset="0.88" stop-color="#AD742E"/>
<stop offset="1" stop-color="#BB150A" stop-opacity="0.12"/>
</linearGradient>
<linearGradient id="paint28_linear_9_412145" x1="21.445" y1="18.1364" x2="19.5628" y2="22.9206" gradientUnits="userSpaceOnUse">
<stop stop-color="#D4D9CF"/>
<stop offset="0.27" stop-color="#D4C0A8"/>
<stop offset="0.51" stop-color="#EB8E6D"/>
</linearGradient>
<linearGradient id="paint29_linear_9_412145" x1="18.4396" y1="18.3187" x2="17.6625" y2="19.6847" gradientUnits="userSpaceOnUse">
<stop offset="0.41" stop-color="#FBFBFB"/>
<stop offset="1" stop-color="#FBFBFB" stop-opacity="0"/>
</linearGradient>
<linearGradient id="paint30_linear_9_412145" x1="26.2778" y1="23.3998" x2="27.9596" y2="24.4684" gradientUnits="userSpaceOnUse">
<stop stop-color="#A4C85C"/>
<stop offset="1" stop-color="#A4C85C" stop-opacity="0"/>
</linearGradient>
<clipPath id="clip0_9_412145">
<rect width="18" height="20" fill="white" transform="translate(11 10)"/>
</clipPath>
</defs>
</svg>
