<svg width="40" height="40" viewBox="0 0 40 40" fill="none" xmlns="http://www.w3.org/2000/svg">
<circle cx="20" cy="20" r="20" fill="#5A274C"/>
<path d="M25.3593 19.4009C25.2163 18.4711 25.0416 17.5464 24.8354 16.6286C24.5325 15.3169 23.5458 14.5064 22.3095 14.208C22.197 14.325 22.0852 14.4394 21.9734 14.5571C23.213 14.6858 24.1269 15.4554 24.4779 16.6631C24.6443 17.1935 24.5708 17.6186 24.3934 18.1418C23.4119 21.072 20.2002 23.3269 18.0052 25.5063C17.0516 26.4969 16.4666 27.8496 16.3334 29.2308C16.2079 30.4294 16.4439 31.604 16.7253 32.761C17.0698 31.1022 17.9317 29.5864 19.0894 28.406C20.7046 26.7758 22.459 25.325 23.9722 23.5459C24.8419 22.541 25.5699 20.6983 25.3658 19.4113L25.3593 19.4009Z" fill="#ECDFA0"/>
<path d="M22.581 13.8583C22.5062 13.9785 22.306 14.208 22.306 14.208C21.5176 15.0335 20.5952 16.0052 19.7385 16.7566C19.251 15.7953 18.8974 14.83 18.6972 13.8641C19.8341 12.7546 21.1185 11.645 22.0155 10.3203C22.4062 9.69918 22.6945 9.01929 22.8696 8.30665C22.9528 7.9602 23.0288 7.4662 23.0633 7.09375C23.2693 7.5689 23.4143 8.0473 23.5573 8.52635C24.0669 10.2521 23.6938 12.3951 22.5875 13.868L22.581 13.8583ZM17.9991 25.5063C17.9627 25.5999 17.8048 25.7942 17.7131 25.8384C16.2246 25.3854 15.6806 24.0834 15.403 22.6684C15.1775 21.512 14.9032 20.1919 15.0338 19.1298C15.1528 18.1606 15.6539 17.1408 16.2695 16.4095C16.6764 17.3247 17.0774 18.2399 17.5357 19.1298C16.6614 19.915 15.6201 21.8143 15.8151 22.8972C16.0316 24.0951 16.7251 25.3015 17.9991 25.5063Z" fill="#ECDFA0"/>
<path d="M15.6734 12.9937C15.9551 10.1512 18.1518 7.77288 20.8579 7.14173C21.6298 6.96298 22.4083 6.95388 23.2263 7.11118C20.8684 8.02768 18.7394 10.0154 18.6394 12.7512C18.5433 15.2394 21.3442 19.4976 22.3313 21.5074C22.3313 21.5074 20.8908 23.0245 19.899 23.8175C18.2952 20.5935 15.3154 16.8313 15.6806 13.0041L15.6734 12.9937ZM23.5008 24.214C24.484 26.5182 24.2773 28.736 22.7308 30.6886C21.2409 32.5677 19.2495 33.258 16.8784 32.9155C16.9244 32.8329 16.9916 32.8388 17.0468 32.8173C19.3271 31.971 21.0303 30.0568 21.1336 27.5218C21.1454 27.2131 21.0026 26.7717 20.9776 26.6593L23.5008 24.214Z" fill="#FEFEFD"/>
<circle cx="20" cy="20" r="19.5" stroke="black" stroke-opacity="0.05"/>
</svg>
