<svg width="40" height="40" viewBox="0 0 40 40" fill="none" xmlns="http://www.w3.org/2000/svg">
<circle cx="20" cy="20" r="20" fill="#00958F"/>
<g clip-path="url(#clip0_9_401996)">
<path d="M7.90611 20.7011C7.77558 20.6015 7.39186 20.5141 7.05125 20.4054C6.71004 20.2955 6.44047 20.1869 6.24193 20.0812C5.69976 19.791 5.42897 19.4 5.42897 18.9094C5.42897 18.6532 5.50122 18.4261 5.64511 18.227C5.79143 18.026 6.00029 17.8688 6.27108 17.7565C6.54429 17.6435 6.99783 17.5713 7.336 17.5713C7.67722 17.5713 7.98079 17.6332 8.24672 17.7565C8.51386 17.8779 8.72029 18.0497 8.86661 18.2725C9.01536 18.4954 9.07183 18.7485 9.07183 19.0321H7.85754C7.85754 18.5961 7.59283 18.3399 7.1569 18.3399C6.82176 18.3399 6.41193 18.5288 6.41193 18.9125C6.41193 19.0661 6.48965 19.1948 6.64447 19.2986C6.80233 19.4024 7.17997 19.4838 7.48354 19.5743C8.04272 19.7412 8.45011 19.9476 8.70633 20.1948C8.96133 20.4413 9.08943 20.7485 9.08943 21.117C9.08943 21.5256 8.9334 21.8474 8.62072 22.0811C8.30865 22.3125 7.8879 22.4284 7.35908 22.4284C7.01461 22.433 6.67297 22.3656 6.35608 22.2305C6.05493 22.0963 5.82422 21.913 5.66515 21.6816C5.5059 21.4438 5.42347 21.1628 5.42897 20.8766H6.64326C6.64447 21.2154 6.73008 21.6592 7.35968 21.6592C7.85268 21.6592 8.45011 21.1055 7.90611 20.7011ZM10.8933 22.4284H9.67897V17.5713H10.8933V22.4284ZM13.3218 17.5713L14.2325 20.607L15.1433 17.5713H16.9647V22.4284H15.7516V18.7856L14.5361 22.4284H13.929L12.7147 18.7856V22.4284H11.5004V17.5713H13.3218ZM18.7861 20.607V22.4284H17.5718V17.5713H19.4582C19.8164 17.5713 20.1309 17.6363 20.4017 17.7656C20.6749 17.8961 20.8844 18.1463 21.0313 18.3861C21.177 18.6241 21.2147 18.8961 21.2147 19.2015C21.2147 19.6641 21.069 19.975 20.7478 20.2433C20.429 20.5093 20.0071 20.607 19.4418 20.607H18.7861ZM18.7861 19.9999C19.4655 19.9999 20.0083 19.9999 20.0004 19.0922C19.9925 18.1839 19.4066 18.1784 18.7861 18.1784V19.9999ZM23.9723 20.7011C23.8418 20.6015 23.5546 20.4977 23.2134 20.3896C22.8734 20.2791 22.6032 20.1711 22.4041 20.0648C21.8625 19.7746 21.5881 19.3842 21.5881 18.893C21.5881 18.6374 21.6634 18.4098 21.8079 18.2112C21.9542 18.0096 22.163 17.853 22.4332 17.7401C22.7064 17.6278 23.0124 17.5713 23.3512 17.5713C23.6918 17.5713 24.047 17.6332 24.3135 17.7565C24.5801 17.8779 24.8515 18.0497 24.9978 18.2725C25.1465 18.4954 25.2309 18.7485 25.2309 19.0321H24.016C24.016 18.6411 23.7246 18.3472 23.3348 18.3472C23.0944 18.3472 22.908 18.3982 22.7744 18.4996C22.711 18.5441 22.6595 18.6035 22.6245 18.6727C22.5896 18.7419 22.5722 18.8186 22.5741 18.8961C22.5741 19.0497 22.6524 19.1784 22.8072 19.2822C22.9651 19.386 23.1952 19.4838 23.4988 19.5743C24.0579 19.7412 24.5018 19.8863 24.7574 20.1328C25.0124 20.3799 25.2309 20.6884 25.2309 21.097C25.2309 21.5062 24.9996 21.8474 24.6869 22.0805C24.3749 22.3125 24.0628 22.4284 23.5334 22.4284C23.1893 22.4329 22.8481 22.3655 22.5316 22.2305C22.2298 22.0963 21.9991 21.913 21.8394 21.6816C21.6755 21.4452 21.5878 21.1643 21.5881 20.8766H22.8024C22.8024 21.3981 22.905 21.6592 23.534 21.6592C24.0276 21.6592 24.4362 21.046 23.9723 20.7011ZM29.7875 20.1073C29.7875 20.5724 29.705 20.9804 29.5386 21.3307C29.3862 21.666 29.1377 21.9485 28.8246 22.1425C28.5162 22.3331 28.1628 22.4284 27.7627 22.4284C27.3675 22.4284 27.0147 22.3343 26.7045 22.1461C26.3906 21.9539 26.1398 21.6741 25.9832 21.341C25.8132 20.9901 25.7264 20.5876 25.7245 20.1328V19.8991C25.7245 19.434 25.8083 19.0248 25.9765 18.672C26.1471 18.3169 26.3863 18.0455 26.6942 17.8573C27.0044 17.6666 27.3584 17.5713 27.7567 17.5713C28.1537 17.5713 28.5065 17.6666 28.8149 17.8566C29.1245 18.0449 29.3638 18.3169 29.5325 18.672C29.7025 19.0242 29.7875 19.4328 29.7875 19.896V20.1073ZM28.5672 19.9944C28.5623 19.2251 28.2897 18.5585 27.756 18.55C27.223 18.5415 26.8745 19.009 26.8696 19.995C26.8696 20.712 27.093 21.4643 27.7627 21.4728C28.4324 21.4813 28.5708 20.7643 28.5666 19.995L28.5672 19.9944ZM34.5718 22.4284H33.3575L31.5361 19.3927V22.4284H30.3218V17.5713H31.5361L33.3575 20.607V17.5713H34.5718V22.4284Z" fill="white"/>
</g>
<circle cx="20" cy="20" r="19.5" stroke="black" stroke-opacity="0.05"/>
<defs>
<clipPath id="clip0_9_401996">
<rect width="30" height="6" fill="white" transform="translate(5 17)"/>
</clipPath>
</defs>
</svg>
