<svg width="40" height="40" viewBox="0 0 40 40" fill="none" xmlns="http://www.w3.org/2000/svg">
<circle cx="20" cy="20" r="20" fill="#F6F8FA"/>
<g clip-path="url(#clip0_9_406618)">
<path d="M31.9896 27.2434C31.9081 27.2434 30.3292 27.2706 29.9473 27.2434C29.2681 27.2162 28.7232 27.0804 28.1511 26.9445C27.1172 26.6728 26.6553 26.1823 25.9745 25.9378C25.4839 25.7476 24.5315 25.4215 22.3277 25.4759H17.7013C15.496 25.4215 14.5436 25.7476 14.0273 25.9378C13.3738 26.1823 12.8832 26.6728 11.8764 26.9445C11.3043 27.0804 10.7609 27.2162 10.0802 27.2434C9.6998 27.2706 8.12093 27.2434 8.03942 27.2434V25.4215C8.12093 25.4215 9.6998 25.4215 10.0802 25.3944C10.7609 25.3672 11.3043 25.2857 11.8764 25.1227C12.9104 24.8781 13.3738 24.3347 14.0273 24.0902C14.5436 23.9 15.496 23.574 17.7013 23.6283H22.3277C24.5315 23.574 25.4839 23.9 25.9745 24.0902C26.6553 24.3347 27.1172 24.8781 28.1511 25.1227C28.7232 25.2857 29.2681 25.34 29.9473 25.3944C30.3292 25.4215 31.9081 25.4215 31.9896 25.4215V27.2434ZM20.0138 27.0532L24.613 27.0804C25.7028 27.1891 26.7911 27.3521 27.6621 27.977C28.8862 28.7393 30.4379 28.8479 31.9896 28.8208V30.614C30.3021 30.6411 28.5602 30.5053 27.2802 29.5C26.3549 29.011 25.2666 28.8751 24.1511 28.8208H20.0138H15.8507C14.7609 28.8751 13.6726 29.011 12.7202 29.5C11.4689 30.5053 9.6998 30.6411 8.03942 30.614V28.8208C9.56395 28.8479 11.1413 28.7393 12.367 27.977C13.2379 27.3521 14.3262 27.1891 15.4145 27.0804L20.0138 27.0532ZM20.0681 10.0117C21.4024 10.0932 22.6809 10.2291 23.7149 10.9898C24.7489 11.6147 26.0017 11.7778 27.2802 11.8049H31.9896V13.5996H26.6281C25.6198 13.5181 24.6673 13.3279 23.8507 12.8661C22.7624 12.0766 21.4024 11.8049 20.0138 11.8049C18.6266 11.8049 17.2651 12.0766 16.1768 12.8661C15.3602 13.3279 14.4077 13.5181 13.4009 13.5996H8.03942V11.8049H12.7202C14.0258 11.7778 15.2515 11.6147 16.3126 10.9898C17.3466 10.2291 18.6266 10.0932 19.9594 10.0117H20.0681ZM19.9866 13.3823C20.2945 13.3823 20.6029 13.3823 20.9119 13.3823C22.0817 13.4638 23.253 13.5996 24.2055 14.1702C25.2666 14.9853 26.5994 15.1483 27.9881 15.1755L31.9609 15.2027V16.9702H27.4432C26.4907 16.9159 25.5926 16.7529 24.7489 16.3725C24.0595 15.8643 23.2887 15.5378 22.4364 15.3928C21.647 15.2298 20.8304 15.2298 19.9866 15.2298C19.17 15.2298 18.3534 15.2298 17.5639 15.3928C16.7116 15.5378 15.9408 15.8643 15.2515 16.3725C14.4077 16.7529 13.5096 16.9159 12.5572 16.9702H8.01074V15.2027L12.0123 15.1755C13.4009 15.1483 14.7338 14.9853 15.7949 14.1702C16.7473 13.5996 17.8915 13.4638 19.0613 13.3823C19.3873 13.3823 19.6877 13.3823 19.9866 13.3823ZM19.9866 16.78C21.7828 16.78 23.6062 16.7257 25.0492 17.5951C26.1104 18.3559 27.416 18.5189 28.7504 18.5732H31.9609V20.3679C30.7368 20.3679 29.567 20.4223 28.3685 20.3679C27.1443 20.2864 26.0017 20.0676 25.0492 19.3612C24.0409 18.7634 22.8168 18.6547 21.5926 18.6004H19.9866H18.4077C17.1836 18.6547 15.9579 18.7634 14.9511 19.3612C13.9987 20.0676 12.856 20.2864 11.6319 20.3679C10.4334 20.4223 9.26357 20.3679 8.01074 20.3679V18.5732H11.2228C12.5843 18.5189 13.89 18.3559 14.9511 17.5951C16.3941 16.7257 18.2175 16.78 19.9866 16.78ZM22.6266 20.2321C23.7421 20.3136 24.8032 20.4223 25.7285 20.9385C27.416 22.1612 29.7843 21.9438 31.9609 21.9981V23.7913C29.7572 23.7913 27.3345 23.9815 25.647 22.7045C24.6945 22.1883 23.579 22.0796 22.4364 22.0253H17.5639C16.4213 22.0796 15.3058 22.1883 14.3534 22.7045C12.6658 23.9815 10.2432 23.7913 8.01074 23.7913V21.9981C10.216 21.9438 12.5843 22.1612 14.2719 20.9385C15.17 20.4223 16.2583 20.3136 17.3738 20.2321H22.6266Z" fill="#3F8EDD"/>
</g>
<circle cx="20" cy="20" r="19.5" stroke="black" stroke-opacity="0.05"/>
<defs>
<clipPath id="clip0_9_406618">
<rect width="24" height="20.6189" fill="white" transform="translate(8 10)"/>
</clipPath>
</defs>
</svg>
