<svg width="40" height="40" viewBox="0 0 40 40" fill="none" xmlns="http://www.w3.org/2000/svg">
<circle cx="20" cy="20" r="20" fill="#DAFF96"/>
<path d="M17.8638 6H19.0033C19.266 6.04377 19.5328 6.07554 19.804 6.09531C20.1358 6.11791 20.4005 6.15109 20.5982 6.19486C24.6367 7.0788 27.321 9.43691 28.6511 13.2692C28.9879 14.235 29.151 15.2877 29.2802 16.315C29.3239 16.6651 29.2646 16.6842 29.1022 16.3721C27.0943 12.5406 23.4153 10.0497 19.177 9.44185C16.5224 9.0606 14.0478 9.37054 11.7532 10.3717C9.39368 11.4011 7.53897 13.0129 6.18906 15.2072C5.99561 15.5221 5.95536 15.5037 6.06833 15.1521C6.6162 13.4337 7.55168 11.8381 8.87476 10.3653C11.2696 7.70222 14.2659 6.24711 17.8638 6Z" fill="#1E1E23"/>
<path d="M24.2035 6.34491C24.8622 6.61179 25.5103 6.81089 26.1458 7.1413C29.4372 8.85976 31.7629 11.4727 33.1227 14.9802C33.2342 15.2669 33.2053 15.2817 33.0358 15.0247C31.974 13.415 30.6403 12.1371 29.0348 11.191C28.4417 10.8416 28.2511 10.3777 27.8868 9.86089C26.9068 8.47427 25.6706 7.32134 24.1781 6.4021C24.1611 6.39222 24.1569 6.37809 24.1654 6.35974H24.1675C24.1745 6.34279 24.1865 6.33785 24.2035 6.34491Z" fill="#1E1E23"/>
<path d="M10.1558 16.5865C10.0817 14.515 11.056 12.4224 12.8034 11.2744C13.784 10.6305 15.057 10.3721 16.2177 10.2747C16.6724 10.2365 16.6957 10.3191 16.2876 10.5225C13.832 11.7411 11.822 13.7709 10.2575 16.6119C10.1939 16.7249 10.16 16.7164 10.1558 16.5865Z" fill="#1E1E23"/>
<path d="M29.1598 27.5049C30.1087 25.305 30.4857 23.0217 30.2908 20.6551C30.2499 20.1553 30.2605 19.6568 30.3226 19.1598C30.5923 16.9739 30.3021 14.8008 29.4521 12.6404C29.4041 12.5203 29.4323 12.4985 29.5368 12.5747C31.4671 14.0093 32.8721 15.9714 33.7518 18.4608C33.9494 19.02 34.0292 19.5911 33.9911 20.1743C33.6035 26.2341 30.1849 31.1056 24.445 33.2089C24.1216 33.3275 24.104 33.2922 24.392 33.103C26.5779 31.6683 28.1671 29.8023 29.1598 27.5049Z" fill="#1E1E23"/>
<path d="M9.83228 13.0958C8.01075 17.7577 9.51457 22.9384 12.7849 26.5921C13.7818 27.7062 14.946 28.5845 16.2775 29.227C16.5543 29.3611 16.5395 29.4112 16.2331 29.3773C15.4854 29.2969 14.689 29.1952 13.9646 28.9601C10.4868 27.8333 7.25883 24.9802 6.32901 21.3075C5.47543 17.944 6.94748 15.0275 9.73697 13.0619C9.75956 13.0464 9.78427 13.0421 9.8111 13.0492C9.81557 13.0505 9.81969 13.0528 9.82321 13.0559C9.82673 13.059 9.82957 13.0629 9.83156 13.0673C9.83355 13.0717 9.83464 13.0764 9.83476 13.0813C9.83488 13.0863 9.83404 13.0912 9.83228 13.0958Z" fill="#1E1E23"/>
<path d="M18.5522 33.5347H17.5694C14.0746 33.2566 11.1757 31.7972 8.87262 29.1567C7.59613 27.6952 6.65783 26.1109 6.05771 24.4038C5.95746 24.1171 5.98782 24.103 6.14879 24.3614C7.15487 25.9754 8.46807 27.3987 10.0333 28.3857C12.3053 29.8175 14.7771 30.4826 17.4487 30.3809C18.8932 30.3259 20.5008 30.0717 21.8648 29.5655C25.1309 28.3525 27.5462 26.2592 29.1107 23.2854C29.2025 23.1103 29.2364 23.1202 29.2124 23.3151C29.1333 23.9773 28.9857 24.6466 28.7697 25.323C27.7911 28.3871 26.0727 30.6365 23.6143 32.0712C22.215 32.8887 20.5276 33.3766 18.5522 33.5347Z" fill="#1E1E23"/>
<circle cx="20" cy="20" r="19.5" stroke="black" stroke-opacity="0.05"/>
</svg>
