<svg width="40" height="40" viewBox="0 0 40 40" fill="none" xmlns="http://www.w3.org/2000/svg">
<circle cx="20" cy="20" r="20" fill="#1E1E23"/>
<g clip-path="url(#clip0_9_401827)">
<path d="M17.5718 28.2029C20.4436 27.7803 22.7405 25.5703 23.0361 23.0361C23.2474 23.4162 23.4538 23.9802 23.4538 24.6141C23.4538 26.8526 21.5632 28.5004 19.3247 28.5004C18.6064 28.5004 17.7406 28.2454 17.5718 28.2029ZM24.6044 16.3679C24.435 16.2416 23.9286 15.9034 23.548 15.6502C22.1546 14.7213 21.0987 14.1718 21.0987 13.1579C21.0987 12.5247 21.6051 12.0602 22.2808 12.0602C23.5061 12.0602 24.942 13.1579 24.942 13.1579C27.138 14.7632 28.5004 17.2974 28.5004 20.0004C28.5004 21.0568 28.2145 22.0489 28.0876 22.429C28.0876 21.2044 27.4337 18.2263 24.6044 16.3679ZM13.079 24.976C12.0651 23.4976 11.5004 21.7745 11.5004 20.0004C11.5004 15.3546 15.1008 11.9649 19.029 11.5004C18.944 11.5429 17.9726 12.2715 17.9726 13.7918C17.9726 15.1858 18.944 16.4104 19.7472 17.5506C19.9579 17.8463 20.1273 18.142 20.3805 18.4795C21.0143 19.4516 21.8218 20.7193 21.8218 22.1971C21.8218 24.8582 19.6203 26.9279 17.0436 26.9279C14.7632 26.9704 13.6278 25.7361 13.079 24.976ZM10.2861 20.0004C10.2861 25.3645 14.6363 29.7147 20.0004 29.7147C25.3645 29.7147 29.7147 25.3645 29.7147 20.0004C29.7147 14.6363 25.3645 10.2861 20.0004 10.2861C14.6363 10.2861 10.2861 14.6363 10.2861 20.0004Z" fill="white"/>
</g>
<circle cx="20" cy="20" r="19.5" stroke="black" stroke-opacity="0.05"/>
<defs>
<clipPath id="clip0_9_401827">
<rect width="20" height="20" fill="white" transform="translate(10 10)"/>
</clipPath>
</defs>
</svg>
