<svg width="40" height="40" viewBox="0 0 40 40" fill="none" xmlns="http://www.w3.org/2000/svg">
<circle cx="20" cy="20" r="20" fill="#0EB14B"/>
<g clip-path="url(#clip0_9_391508)">
<path d="M31.7829 17.4105L29.6526 15.3903L29.6159 15.3436L29.5926 15.2869L29.5859 15.2269L29.5993 15.1702L29.6493 15.0936L31.7695 13.0567L31.8095 13.0267L31.8562 13.0067L31.9062 13H31.9562L32.0196 13.03L32.0729 13.0767L32.1062 13.1367L32.1196 13.2067L32.1329 17.2605L32.1262 17.3205L32.0996 17.3738L32.0596 17.4172L32.0095 17.4472L31.9529 17.4638H31.8929L31.8362 17.4438L31.7862 17.4105H31.7829Z" fill="white"/>
<path d="M33.7299 14.9768L33.6632 14.7935L33.5565 14.6201L33.4165 14.4701L33.2532 14.3601L33.1331 14.3034L32.9265 14.1967L32.8598 14.1401L32.8131 14.0801L32.7731 13.9767L32.7598 13.8567V13.3266L32.7764 13.2333L32.8098 13.1533L32.8631 13.0866L32.9331 13.0399L33.0131 13.0166H33.1031L33.3665 13.0799L33.6132 13.1633L33.8432 13.2733L34.0566 13.4066L34.2733 13.5833L34.47 13.79L34.6533 14.0401L34.8033 14.3134L34.91 14.5934L34.9767 14.8901L35 15.1702L34.99 15.4469L34.9434 15.7236L34.8633 15.9936L34.7467 16.2536L34.6 16.497L34.4233 16.717L34.2199 16.9137L33.9766 17.0971L33.7032 17.2471L33.4098 17.3604L33.1031 17.4338H33.0131L32.9365 17.4138L32.8664 17.3638L32.8131 17.2904L32.7798 17.1971L32.7698 17.0904V16.567L32.7831 16.4703L32.8131 16.3903L32.8564 16.327L32.9231 16.2703L33.1298 16.1603L33.2665 16.097L33.3598 16.0369L33.4798 15.9303L33.5799 15.8169L33.6599 15.6936L33.7165 15.5636L33.7532 15.4269L33.7699 15.2835V15.1335L33.7399 14.9768H33.7299Z" fill="white"/>
<path d="M12.374 19.4111V21.6947L12.3806 21.8314L12.4073 21.9581L12.454 22.0814L12.5173 22.1915L12.6273 22.3148L12.7607 22.4148L12.9174 22.4915L13.0974 22.5382L13.3308 22.5548L13.5174 22.5648L13.6575 22.5948L13.7775 22.6515L13.8775 22.7282L13.9542 22.8182L14.0108 22.9182L14.0508 23.0316L14.0708 23.1516V23.2716L14.0408 23.3916L13.9942 23.4983L13.9275 23.595L13.8375 23.685L13.7241 23.7583L13.5641 23.815L13.3741 23.835L13.0041 23.8183L12.8307 23.795L12.664 23.7583L12.504 23.7116L12.3506 23.655L12.204 23.5849L12.0639 23.5049L11.9006 23.3916L11.7506 23.2616L11.6106 23.1149L11.4805 22.9482L11.3605 22.7582L11.2639 22.5615L11.1905 22.3648L11.1372 22.1581L11.1072 21.9448L11.0972 21.7214V16.8675L11.1105 16.7275L11.1438 16.6041L11.2005 16.4908L11.2739 16.3941L11.3672 16.3141L11.4739 16.2541L11.5939 16.2174L11.7172 16.2041L11.8439 16.2141L11.9673 16.2474L12.0773 16.3008L12.174 16.3775L12.2573 16.4775L12.3206 16.6008L12.3606 16.7375L12.374 16.8942V18.0877L12.3806 18.1043L12.3973 18.111H13.4874L13.7241 18.121L13.8208 18.141L13.9042 18.1677L14.0075 18.221L14.0942 18.291L14.1709 18.3844L14.2275 18.491L14.2642 18.611L14.2775 18.7344L14.2675 18.8577L14.2342 18.9811L14.1809 19.0878L14.1075 19.1844L14.0208 19.2611L13.9175 19.3211L13.7641 19.3711L13.5808 19.3878H12.4073L12.3773 19.3945L12.3673 19.4245L12.374 19.4111Z" fill="white"/>
<path d="M20.5651 20.5946V20.8913L20.5418 21.188L20.4851 21.4813L20.3984 21.768L20.2851 22.0447L20.145 22.3081L19.9784 22.5581L19.785 22.7915L19.5716 23.0048L19.3383 23.1982L19.0849 23.3682L18.8149 23.5116L18.5315 23.6316L18.2382 23.7216L17.9381 23.7849L17.6314 23.8183L17.3247 23.8249L17.018 23.8016L16.7146 23.7483L16.4179 23.6683L16.1312 23.5582L15.8579 23.4216L15.6012 23.2615L15.3612 23.0782L15.1411 22.8715L14.9444 22.6448L14.7711 22.4014L14.6211 22.1414L14.5011 21.868L14.4077 21.5847L14.3444 21.2946L14.311 20.9979V20.7012L14.3344 20.4045L14.391 20.1112L14.4777 19.8245L14.5911 19.5478L14.7311 19.2844L14.8978 19.0344L15.0911 18.801L15.3045 18.5877L15.5378 18.3943L15.7912 18.2243L16.0612 18.0809L16.3446 17.9609L16.638 17.8709L16.938 17.8076L17.2447 17.7742L17.5514 17.7676L17.8581 17.7909L18.1615 17.8443L18.4582 17.9243L18.7449 18.0343L19.0182 18.171L19.2749 18.331L19.515 18.5143L19.735 18.721L19.9317 18.9477L20.105 19.1911L20.2551 19.4511L20.3751 19.7245L20.4684 20.0078L20.5318 20.2979L20.5651 20.5946ZM17.6648 22.6615L17.8381 22.6315L18.0081 22.5815L18.1715 22.5148L18.3282 22.4314L18.4748 22.3348L18.6115 22.2214L18.7382 22.0947L18.8516 21.9547L18.9516 21.8047L19.0382 21.6447L19.1083 21.478L19.1616 21.3047L19.1983 21.1246L19.2183 20.9413V20.7579L19.2083 20.5746L19.1783 20.3945L19.1316 20.2179L19.0682 20.0445L18.9882 19.8812L18.8916 19.7245L18.7815 19.5778L18.6582 19.4444L18.5249 19.3244L18.3815 19.2177L18.2282 19.1277L18.0681 19.0511L17.9014 18.9911L17.7281 18.951L17.5547 18.9277L17.3781 18.921L17.2014 18.9344L17.028 18.9644L16.858 19.0144L16.6946 19.0811L16.538 19.1644L16.3913 19.2611L16.2546 19.3744L16.1279 19.5011L16.0146 19.6411L15.9146 19.7911L15.8279 19.9512L15.7579 20.1178L15.7045 20.2912L15.6679 20.4712L15.6479 20.6546V20.8379L15.6579 21.0213L15.6879 21.2046L15.7345 21.3813L15.7979 21.5547L15.8779 21.718L15.9746 21.8747L16.0846 22.0214L16.2079 22.1547L16.3413 22.2748L16.4846 22.3814L16.638 22.4715L16.798 22.5481L16.9647 22.6081L17.138 22.6481L17.3114 22.6715L17.4881 22.6781L17.6648 22.6648V22.6615Z" fill="white"/>
<path d="M31.1031 20.0078L31.1231 19.9978L31.1297 19.9744L31.0197 19.7011L30.8831 19.471L30.7197 19.281L30.6297 19.201L30.533 19.131L30.4263 19.071L30.313 19.021L30.0696 18.9543L29.7996 18.931L29.5029 18.9476L29.2495 19.001L29.0128 19.0977L28.8795 19.1777L28.7561 19.271L28.6395 19.381L28.5328 19.501L28.4361 19.6377L28.3528 19.7844L28.2794 19.9444L28.2194 20.1111L28.1727 20.2911L28.1427 20.4745L28.1261 20.6578V20.8412L28.1394 21.0246L28.1694 21.2046L28.2127 21.3713L28.2694 21.5313L28.3861 21.7746L28.5228 21.9913L28.6828 22.178L28.8628 22.3347L29.0328 22.4447L29.2162 22.5314L29.4162 22.5981L29.6329 22.6447L29.7996 22.6614H29.9696L30.143 22.6481L30.3163 22.6181L30.4797 22.5714L30.6364 22.5081L30.7797 22.4314L30.9131 22.3414L30.9597 22.3047L31.1364 22.178L31.2131 22.1413L31.2831 22.1213L31.4264 22.1047L31.5598 22.1147L31.6865 22.1547L31.7965 22.218L31.9032 22.318L31.9832 22.4414L32.0299 22.5814L32.0399 22.7281L32.0165 22.8648L31.9598 22.9981L31.8698 23.1181L31.7532 23.2215L31.4465 23.4182L31.1197 23.5815L30.783 23.7049L30.433 23.7882L30.1963 23.8215L29.9629 23.8382H29.7229L29.4862 23.8149L29.2495 23.7782L29.0195 23.7215L28.7928 23.6482L28.5728 23.5582L28.3628 23.4548L28.1627 23.3348L27.9694 23.2015L27.7894 23.0515L27.6227 22.8914L27.4693 22.7181L27.3326 22.5347L27.2093 22.338L27.1193 22.1647L27.0393 21.9847L26.9726 21.8013L26.9159 21.6113L26.8726 21.4179L26.8426 21.2179L26.8226 21.0179L26.8159 20.8112L26.8326 20.4812L26.8793 20.1645L26.9559 19.8511L27.0626 19.5544L27.1993 19.2744L27.3626 19.011L27.5527 18.7676L27.7694 18.5476L27.9127 18.4243L28.0661 18.3109L28.2294 18.2042L28.3994 18.1109L28.5761 18.0275L28.7628 17.9542L28.9495 17.8942L29.1462 17.8442L29.3862 17.8042L29.6329 17.7842H29.8763L30.1196 17.8042L30.353 17.8442L30.583 17.9042L30.7997 17.9809L31.0064 18.0775L31.2764 18.2442L31.5265 18.4443L31.7265 18.6476L31.8998 18.8676L32.0532 19.1143L32.1799 19.3744L32.2865 19.6577L32.3666 19.9544L32.4232 20.2678L32.4532 20.5912V20.7479L32.4166 20.8879L32.3632 21.0079L32.2865 21.1079L32.1899 21.1879L32.0732 21.2446L31.9398 21.2779L31.7898 21.2879H29.6562L29.5329 21.2846L29.4196 21.2679L29.3229 21.2379L29.2362 21.1912L29.1162 21.0846L29.0162 20.9312L28.9662 20.8045L28.9462 20.6745L28.9595 20.5212L29.0095 20.3778L29.0928 20.2445L29.2062 20.1311L29.2695 20.0878L29.3562 20.0478L29.4596 20.0211L29.5796 20.0078H29.7463H29.7829H31.1097H31.1031Z" fill="white"/>
<path d="M8.16692 20.0637L9.1837 20.4038L9.43039 20.4938L9.65375 20.5905L9.85711 20.7005L10.0338 20.8172L10.1838 20.9438L10.3172 21.0839L10.4272 21.2305L10.5172 21.3906L10.5939 21.5972L10.6372 21.8239L10.6472 22.064L10.6239 22.324L10.5839 22.5207L10.5239 22.7007L10.4438 22.8707L10.3472 23.0274L10.2572 23.1408L10.1605 23.2441L10.0505 23.3441L9.93045 23.4308L9.7971 23.5141L9.65709 23.5841L9.50374 23.6475L9.34372 23.7008L8.99701 23.7775L8.62697 23.8142L8.24026 23.8075L7.85021 23.7608L7.81354 23.7542L7.4235 23.6608L7.04012 23.5308L6.66341 23.3641L6.29337 23.1574L6.14668 23.0441L6.09334 22.9807L6.05334 22.9141L6.02 22.8274L6 22.7407V22.6507L6.00667 22.5607L6.03 22.474L6.06667 22.394L6.12001 22.3207L6.18335 22.2573L6.25003 22.2106L6.35337 22.1606L6.45339 22.1373H6.5734L6.70341 22.1673L6.84676 22.2307L7.03345 22.3373L7.23348 22.4507L7.59018 22.604L7.94689 22.7074L8.12358 22.7407L8.30026 22.7607L8.47362 22.7674H8.64697L8.65697 22.7607L8.88366 22.724L8.98701 22.6907L9.08369 22.6474L9.1637 22.5974L9.23704 22.5374L9.29371 22.474L9.34038 22.4007L9.38706 22.2807L9.40706 22.134L9.38706 21.994L9.35705 21.9173L9.31371 21.8473L9.25704 21.7806L9.18703 21.7206L9.00368 21.6106L8.77032 21.5206L7.74687 21.2005L7.49684 21.1139L7.27015 21.0172L7.06012 20.9072L6.8801 20.7872L6.72342 20.6571L6.58673 20.5138L6.47672 20.3638L6.38671 20.1971L6.31337 19.9871L6.27336 19.757V19.5137L6.30003 19.2503L6.37004 18.9869L6.48339 18.7402L6.61674 18.5402L6.77676 18.3669L6.97011 18.2102L7.18347 18.0802L7.42683 17.9702L7.68353 17.8902L7.95689 17.8368L8.23692 17.8135H8.46695L8.69698 17.8301L8.93034 17.8601L9.1637 17.9068L9.39706 17.9668L9.63375 18.0435L9.87378 18.1368L10.1138 18.2435L10.2638 18.3335L10.3838 18.4469L10.4605 18.5736L10.5005 18.7169V18.8003L10.4972 18.8803L10.4772 18.9569L10.4438 19.0303L10.4005 19.1003L10.3472 19.1636L10.2838 19.217L10.2138 19.2603L10.0805 19.307L9.94045 19.317L9.79044 19.2903L9.64042 19.2303L9.40706 19.1203L9.17036 19.0269L8.94034 18.9536L8.71698 18.9036L8.50362 18.8736L8.3036 18.8669L8.11024 18.8803L7.93689 18.9169L7.79021 18.9769L7.66352 19.0636L7.57018 19.1703L7.51017 19.3003L7.49351 19.397V19.5037L7.50017 19.5237L7.52351 19.607L7.56351 19.6804L7.62352 19.7537L7.69353 19.8204L7.78354 19.8837L7.89022 19.9471L8.15358 20.0571L8.16692 20.0637Z" fill="white"/>
<path d="M22.9088 18.0609L23.0654 18.0042L23.2255 17.9575L23.5522 17.8975L23.8922 17.8809L24.2289 17.9109L24.5589 17.9842L24.8757 18.1009L25.169 18.2576L25.4391 18.4543L25.6391 18.6409L25.8158 18.8376L25.9691 19.0477L26.0991 19.271L26.2258 19.5577L26.3158 19.8644L26.3692 20.1878L26.3892 20.5278V23.1215L26.3825 23.2315L26.3625 23.3348L26.3292 23.4315L26.2858 23.5182L26.2258 23.6049L26.1525 23.6815L26.0725 23.7415L25.9924 23.7882L25.9058 23.8182L25.8158 23.8349H25.6991L25.5857 23.8115L25.4724 23.7615L25.369 23.6915L25.279 23.6015L25.2057 23.4948L25.1557 23.3815L25.1257 23.2581L25.119 23.1548V20.5845L25.1057 20.2045L25.0823 20.0544L25.049 19.9311L24.969 19.7477L24.869 19.5877L24.7456 19.441L24.6056 19.321L24.4289 19.211L24.2389 19.1343L24.0322 19.0877L23.8222 19.0777L23.6122 19.101L23.4088 19.1577L23.2221 19.2443L23.0488 19.3644L22.9221 19.4844L22.8087 19.6244L22.7187 19.7811L22.6454 19.9544L22.6087 20.0911L22.5821 20.2511L22.5687 20.4345V20.6378L22.5721 21.978L22.5654 23.2048L22.5554 23.3248L22.5287 23.4315L22.4854 23.5315L22.4254 23.6182L22.3287 23.7082L22.2187 23.7749L22.092 23.8182L21.9587 23.8349L21.822 23.8249L21.692 23.7882L21.5753 23.7282L21.4719 23.6415L21.4119 23.5682L21.3652 23.4815L21.3286 23.3915L21.3052 23.2881L21.2886 23.0281L21.2986 20.4178L21.3052 20.2345L21.3252 20.0544L21.3619 19.8711L21.4119 19.6911L21.4753 19.5144L21.5519 19.3444L21.6419 19.1777L21.742 19.0177L21.8553 18.8643L21.9787 18.721L22.112 18.5843L22.2554 18.4576L22.4054 18.3442L22.5654 18.2409L22.7321 18.1476L22.9054 18.0675L22.9088 18.0609Z" fill="white"/>
</g>
<circle cx="20" cy="20" r="19.5" stroke="black" stroke-opacity="0.05"/>
<defs>
<clipPath id="clip0_9_391508">
<rect width="29" height="10.8379" fill="white" transform="translate(6 13)"/>
</clipPath>
</defs>
</svg>
