<svg width="40" height="40" viewBox="0 0 40 40" fill="none" xmlns="http://www.w3.org/2000/svg">
<circle cx="20" cy="20" r="20" fill="#F47B20"/>
<g clip-path="url(#clip0_9_398143)">
<path d="M16.6433 31.4284H10.9433C10.9082 31.4277 10.8737 31.4188 10.8426 31.4026C10.8115 31.3864 10.7846 31.3632 10.7638 31.3349C10.7431 31.3066 10.7292 31.2739 10.7231 31.2393C10.7171 31.2047 10.7191 31.1692 10.729 31.1356L17.4147 9.06415C17.5075 8.77129 17.7718 8.57129 18.0861 8.57129H22.3004C22.5933 8.57129 22.8575 8.757 22.9575 9.03557L27.8361 23.0999C27.9147 23.3141 27.7504 23.5713 27.5075 23.5713H21.429V22.1427H21.0718V20.7141H20.2361V15.7141H20.0004V20.7141H18.929V22.1427H18.6433L16.9933 31.1427C16.9783 31.2228 16.9359 31.2952 16.8733 31.3473C16.8107 31.3995 16.7319 31.4282 16.6504 31.4284H16.6433Z" fill="white"/>
</g>
<circle cx="20" cy="20" r="19.5" stroke="black" stroke-opacity="0.05"/>
<defs>
<clipPath id="clip0_9_398143">
<rect width="18" height="24" fill="white" transform="translate(10 8)"/>
</clipPath>
</defs>
</svg>
