<svg width="40" height="40" viewBox="0 0 40 40" fill="none" xmlns="http://www.w3.org/2000/svg">
<circle cx="20" cy="20" r="20" fill="#001AFF"/>
<g clip-path="url(#clip0_9_406657)">
<path d="M19.5315 12.2758C22.6689 11.1923 25.9733 10.0049 29.9891 10.0049V12.7794C26.4769 12.7794 23.5723 13.8116 20.4362 14.8951C17.3369 15.9786 14.0193 17.166 10.0049 17.166V14.3915C13.5157 14.3915 16.4204 13.3593 19.5315 12.2758ZM10.0049 18.5585H29.9891V21.3593H28.5295H10.0049V18.5585ZM10.0049 27.1383C13.5157 27.1383 16.4204 26.1061 19.5315 25.0213C22.6689 23.9378 25.9733 22.7518 29.9891 22.7518V25.5249C26.4769 25.5249 23.5723 26.5571 20.4362 27.6406C17.3251 28.7255 14.0193 29.9115 10.0049 29.9115V27.1383Z" fill="white"/>
</g>
<circle cx="20" cy="20" r="19.5" stroke="black" stroke-opacity="0.05"/>
<defs>
<clipPath id="clip0_9_406657">
<rect width="20" height="19.9211" fill="white" transform="translate(10 10)"/>
</clipPath>
</defs>
</svg>
