<svg width="40" height="40" viewBox="0 0 40 40" fill="none" xmlns="http://www.w3.org/2000/svg">
<circle cx="20" cy="20" r="20" fill="#F6F8FA"/>
<g clip-path="url(#clip0_9_401744)">
<path d="M19.6425 21.3861C19.6425 23.1333 18.0753 24.2861 15.8032 24.2861C14.8246 24.2861 13.6975 24.1076 12.8568 23.5954L13.3196 22.3347C14.1625 22.7418 15.1282 22.8576 16.0553 22.8576C17.2339 22.8576 18.2139 22.3611 18.2139 21.589C18.2139 20.8568 17.7696 20.3361 15.9182 19.6854C14.1925 19.0761 13.571 18.2147 13.571 16.9526C13.571 15.6904 14.3532 14.2854 16.6446 14.2861C17.5682 14.2861 18.5482 14.4276 19.3382 14.9361L18.9168 16.2147C18.2189 15.8776 17.4139 15.7147 16.6453 15.7147C15.2382 15.7061 14.9996 16.429 14.9996 16.9526C14.9996 17.4754 15.0875 18.0118 16.6446 18.5404C18.791 19.2718 19.6425 20.0033 19.6425 21.3854V21.3861ZM23.571 19.2861V20.7147H25.7139V22.4426C25.0403 22.7676 24.4125 22.8576 23.7396 22.8576C21.8453 22.8576 21.0289 21.7247 21.071 19.2861C21.071 16.8876 21.9732 15.7147 23.741 15.7147C24.6868 15.7147 25.5646 15.8433 26.4089 16.2504L26.8718 14.9226C25.9868 14.4426 24.7882 14.2861 23.7575 14.2861C21.0639 14.2861 19.6425 16.0747 19.6425 19.2861C19.6425 22.4968 20.751 24.2861 23.571 24.2861C24.8072 24.277 26.0157 23.9198 27.0582 23.2554L27.1425 23.2147V19.2861H23.571ZM16.1025 11.1633L15.0875 10.329L13.7768 9.28613C12.5925 10.0368 11.4932 10.9547 10.6053 12.039L11.4932 13.4568C10.9895 14.1593 10.5641 14.9148 10.2246 15.7097H11.5353C11.7046 15.2926 11.9582 14.9168 12.1696 14.5418C13.1425 13.1654 14.4953 11.9561 16.1025 11.1633Z" fill="#868686"/>
<path d="M16.2713 28.5148C15.8632 28.3172 15.4679 28.0941 15.0878 27.8469C13.6078 26.8876 12.4235 25.5948 11.6206 24.0098L10.7749 25.0105L9.71777 26.3033C10.4785 27.4719 11.4092 28.5562 12.5085 29.4319L13.9456 28.5562C14.6649 29.0562 15.4256 29.4741 16.2292 29.8076L16.2713 28.5148Z" fill="#589D53"/>
<path d="M10.8596 21.8408C10.7324 21.173 10.6481 20.5058 10.6481 19.7965C10.6481 18.7123 10.8174 17.6694 11.1553 16.668L9.84456 16.7937L8.19599 16.9608C7.98456 17.878 7.85742 18.7958 7.85742 19.7551C7.85742 20.2137 7.90028 20.673 7.94171 21.1315L9.59171 21.5073C9.7213 22.3689 9.96262 23.2101 10.3096 24.0094L11.2403 23.0915C11.075 22.6873 10.9475 22.2686 10.8596 21.8408Z" fill="#3A66A9"/>
<path d="M23.7144 28.8477C23.2909 28.9727 22.868 29.0977 22.403 29.1812C21.7266 29.3062 21.0502 29.3898 20.3316 29.3898C19.2316 29.3898 18.1744 29.2227 17.1602 28.8898L17.2866 30.1827L17.4559 31.8091C18.3859 32.0177 19.3166 32.1427 20.2887 32.1427C20.7537 32.1427 21.2187 32.1005 21.6844 32.0591L22.0644 30.4327C22.9368 30.3049 23.7894 30.0665 24.6016 29.7234L23.7144 28.8477Z" fill="#E69022"/>
<path d="M29.399 23.6533C28.8061 24.7055 28.0883 25.7426 27.224 26.5962C26.4597 27.3511 25.5735 27.9715 24.6025 28.4312L25.6168 29.2648L26.9275 30.3076C28.1404 29.5526 29.1604 28.6126 30.099 27.5547L29.2111 26.1369C29.7183 25.4276 30.3761 24.4462 30.7147 23.6533H29.399Z" fill="#868686"/>
</g>
<circle cx="20" cy="20" r="19.5" stroke="black" stroke-opacity="0.05"/>
<defs>
<clipPath id="clip0_9_401744">
<rect width="24" height="24" fill="white" transform="translate(7 9)"/>
</clipPath>
</defs>
</svg>
