<svg width="40" height="40" viewBox="0 0 40 40" fill="none" xmlns="http://www.w3.org/2000/svg">
<circle cx="20" cy="20" r="20" fill="#022C6C"/>
<g clip-path="url(#clip0_9_411001)">
<path d="M12.429 29.6427C12.7742 26.7132 13.8246 23.8216 15.4697 21.373C16.7483 19.4689 18.403 17.8077 20.284 16.4821C21.7739 15.4582 23.3928 14.6359 25.0984 14.0367C24.957 14.1299 24.8162 14.2186 24.6754 14.3074C24.534 14.3961 24.3925 14.4848 24.2518 14.578C22.2775 15.8663 20.491 17.5094 19.1552 19.4316C18.7418 19.9542 18.403 20.5514 18.0835 21.1306C16.6416 23.7143 15.8708 26.7049 15.7892 29.6427H12.429ZM9.71418 25.7039C9.71418 25.7039 8.7499 27.7141 8.42847 29.6427H11.0565C11.4061 26.9353 12.3545 24.3397 13.833 22.0448C15.1457 20.0362 16.8006 18.2736 18.7225 16.837C16.7882 17.7742 15.0166 19.0157 13.4755 20.5141C11.9333 22.0261 10.6785 23.5356 9.71418 25.7039ZM29.3458 14.8126C29.7154 14.9804 30.087 15.1489 30.4579 15.325C29.9767 14.5288 29.5065 13.726 29.0475 12.9169L29.5283 12.4135C29.995 11.9262 30.4669 11.4331 30.9285 10.9195C30.2438 11.0468 29.5483 11.1959 28.8668 11.3412C28.6495 11.3881 28.4342 11.4344 28.2201 11.4794C27.907 10.9317 27.61 10.4007 27.3137 9.86972L26.8656 9.07129C26.7756 9.98717 26.6753 10.902 26.5648 11.8156C26.4561 11.8349 26.3481 11.8555 26.2395 11.8761C25.4417 12.0239 24.6343 12.1737 23.8564 12.3383L24.3887 12.5794C25.045 12.877 25.711 13.1791 26.3764 13.4581C26.2895 14.2777 26.1941 15.0963 26.0903 15.9139L26.0569 16.1839C26.251 15.9717 26.4478 15.7602 26.6438 15.5487C27.0366 15.1257 27.43 14.7027 27.8061 14.2797C27.837 14.272 27.8614 14.2482 27.8845 14.2257C27.9186 14.1936 27.9495 14.164 27.9938 14.1859C28.44 14.4025 28.8919 14.6069 29.3458 14.8126Z" fill="white"/>
</g>
<circle cx="20" cy="20" r="19.5" stroke="black" stroke-opacity="0.05"/>
<defs>
<clipPath id="clip0_9_411001">
<rect width="23" height="21" fill="white" transform="translate(8 9)"/>
</clipPath>
</defs>
</svg>
