<svg width="40" height="40" viewBox="0 0 40 40" fill="none" xmlns="http://www.w3.org/2000/svg">
<circle cx="20" cy="20" r="20" fill="#F6F8FA"/>
<g clip-path="url(#clip0_9_401032)">
<path d="M20 24.7172C17.7325 24.7235 15.4668 24.5865 13.2166 24.3072C12.1955 24.1768 11.2213 24.0161 10.321 23.8291C9.49389 23.6611 8.67579 23.4513 7.86984 23.2006V23.197C8.07621 23.2223 8.28387 23.2356 8.49177 23.2369H8.49824C8.55401 23.2375 8.61606 23.2375 8.67083 23.2375C9.9151 23.2375 10.8185 23.1043 11.4325 22.8304C12.0421 22.5586 12.363 22.1495 12.4135 21.5797C12.4119 21.5697 12.4109 21.5598 12.41 21.5498C12.4094 21.5435 12.4087 21.537 12.408 21.5307C12.4929 22.1765 12.7941 22.602 13.3564 22.8696C13.883 23.1203 14.6588 23.2371 15.7977 23.2371C17.0618 23.2371 17.8627 23.0992 18.3947 22.7902C18.9543 22.4652 19.2149 21.9388 19.2149 21.1337V17.9666H17.1469V21.0562C17.1469 21.3713 17.0405 21.5921 16.8217 21.7311C16.6262 21.8553 16.3355 21.9157 15.9329 21.9157C15.5302 21.9157 15.2393 21.8554 15.0438 21.7311C14.8247 21.5917 14.7187 21.3713 14.7187 21.0562V17.9666H12.3806V21.0859C12.298 20.489 11.6455 20.0823 10.5428 19.9407L7.78897 19.5853C7.70274 19.5814 7.61992 19.5505 7.55225 19.4969C7.52962 19.4741 7.5121 19.4468 7.50083 19.4168C7.48957 19.3867 7.48483 19.3546 7.48692 19.3226C7.48966 19.2633 7.51078 19.2063 7.54734 19.1596C7.5839 19.1128 7.63409 19.0786 7.69097 19.0616C7.92191 18.9821 8.16599 18.9477 8.40991 18.9604C8.65468 18.9569 8.89813 18.9969 9.12894 19.0784C9.22307 19.1029 9.31028 19.1487 9.38379 19.2124C9.41819 19.2505 9.44443 19.2953 9.46091 19.3439C9.47738 19.3926 9.48374 19.4441 9.4796 19.4953H12.1591C12.1172 18.8934 11.8214 18.4882 11.2281 18.2199C10.6347 17.9516 9.71303 17.8215 8.40971 17.8215C7.97042 17.8215 7.4915 17.846 7.24551 17.8702C7.01216 17.8851 6.78132 17.927 6.55765 17.9952L6.55825 17.9936C7.98357 17.3944 9.94548 16.8937 12.2345 16.547C13.3975 16.3708 14.6384 16.2349 15.9228 16.1429C17.2466 16.0481 18.6183 16.0001 20 16.0001C22.0809 15.9957 24.1604 16.11 26.2283 16.3426C27.9445 16.527 29.6445 16.8392 31.3141 17.2767C32.7836 17.6769 33.9372 18.1431 34.7431 18.662C35.0991 18.8784 35.4146 19.1553 35.6753 19.4802C35.8773 19.7293 35.9915 20.038 36.0004 20.3585C35.9915 20.6791 35.8773 20.9878 35.6753 21.2369C35.4146 21.5618 35.0991 21.8387 34.7431 22.055C33.9372 22.574 32.7836 23.0402 31.3141 23.4404C29.6445 23.8779 27.9445 24.1902 26.2283 24.3746C24.1604 24.6072 22.0809 24.7216 20 24.7172ZM21.6416 20.0781L21.7313 20.1744L24.2728 23.0924H26.767V17.9666H24.5193V20.609L22.2314 17.9666H19.4833V23.0925H21.6416V20.078V20.0781ZM27.4464 17.9668V18.0927H27.6057V18.672H27.7503V18.0926H27.9107V17.9666L27.4464 17.9668ZM28.4703 18.2267L28.4694 18.6719H28.6V17.9667H28.4119L28.2886 18.4722L28.1691 17.9667H27.9754V18.6717H28.1105L28.1095 18.2257L28.2171 18.6717H28.3565L28.4703 18.2267ZM8.76106 22.0011C8.4933 22.0075 8.22685 21.9616 7.9767 21.8659C7.81277 21.7877 7.73997 21.7417 7.73211 21.4743H4.95436C4.94664 21.5685 4.95394 21.6634 4.97597 21.7553C4.97976 21.7688 4.98414 21.7843 4.98882 21.8064C4.99012 21.8075 5.01471 21.8787 5.01969 21.8929C4.34299 21.4029 4 20.8867 4 20.3586C4.01052 20.0208 4.1361 19.6967 4.35593 19.44C4.64336 19.0992 4.98798 18.811 5.37433 18.5884C5.3345 18.6267 5.29814 18.6684 5.26568 18.7131C5.26525 18.7135 5.26487 18.7139 5.26458 18.7143C5.26431 18.7148 5.26393 18.7151 5.26349 18.7154C5.10888 18.9398 5.02906 19.2073 5.03543 19.4797C5.03543 20.2641 5.60129 20.7712 6.62886 20.9076L9.25881 21.248C9.62191 21.2983 9.67658 21.4831 9.67658 21.5891C9.67826 21.6517 9.66122 21.7134 9.62763 21.7662C9.59405 21.8191 9.54545 21.8608 9.48806 21.8858C9.33977 21.9632 9.10195 22.0011 8.76106 22.0011Z" fill="#F78D2A"/>
</g>
<circle cx="20" cy="20" r="19.5" stroke="black" stroke-opacity="0.05"/>
<defs>
<clipPath id="clip0_9_401032">
<rect width="32" height="8.71704" fill="white" transform="translate(4 16)"/>
</clipPath>
</defs>
</svg>
