<svg width="40" height="40" viewBox="0 0 40 40" fill="none" xmlns="http://www.w3.org/2000/svg">
<circle cx="20" cy="20" r="20" fill="#F6F8FA"/>
<g clip-path="url(#clip0_9_405351)">
<path d="M12.8008 17.9643L14.9926 15.25C16.0572 15.5214 19.0328 16.2285 22.4127 16.8928C25.7927 17.5578 33.0656 17.7777 36.2794 17.9643H12.8008Z" fill="#60C9DF"/>
<path d="M6.00661 19.7867C5.24797 19.8844 4.6739 20.2162 4.49 20.6641C4.40315 20.8737 4.38483 21.2205 4.44997 21.4729C4.60197 22.0687 4.97383 22.311 6.11111 22.5451C6.67433 22.6611 6.80461 22.712 6.86229 22.8348C6.89825 22.9142 6.89079 22.9393 6.81886 23.0153C6.69265 23.149 6.49043 23.1917 6.00661 23.1917C5.54043 23.1883 4.95279 23.0194 4.6135 22.9C4.53822 22.8738 4.46219 22.8498 4.3855 22.828C4.37872 22.828 4.37872 23.0845 4.38211 23.3953L4.39297 23.9653C4.85915 24.1268 5.30497 24.1933 5.80033 24.232C7.00683 24.3222 7.88354 24.1309 8.33547 23.6796C8.60283 23.4123 8.67475 23.2284 8.67883 22.7982C8.67883 22.3761 8.61368 22.1915 8.3789 21.9567C8.14072 21.7192 7.85165 21.6032 7.10047 21.4478C6.38525 21.2958 6.30247 21.2673 6.23733 21.152C6.17965 21.04 6.295 20.8988 6.49722 20.8378C6.8114 20.7435 8.06743 20.8086 8.46508 20.964L8.46304 19.9482C8.20043 19.6605 6.63361 19.7012 6.00661 19.7867ZM9.14297 21.3569C9.14297 22.2343 9.22033 22.8273 9.24204 22.9244C9.36011 23.455 9.78218 23.8744 10.2857 24.059C11.1454 24.3691 12.5643 24.2965 13.175 23.907C13.5252 23.683 13.7817 23.3003 13.8604 22.8891C13.8828 22.7805 13.897 22.0762 13.897 21.2605V19.9997H11.8573V22.714C11.8573 23.0533 11.1787 23.0533 11.1787 22.714V19.9997H9.14297V21.3569ZM14.5831 24.0712H15.9287V20.6783L17.2519 24.0712H18.643L20.0001 20.6783V24.0712H21.3573V19.9997H18.643L17.9644 22.0355L17.2519 19.9997H14.5831V24.0712ZM22.0358 24.0712H23.3814V20.6783L24.7046 24.0712H26.0957L27.4529 20.6783V24.0712H28.81V19.9997H26.0957L25.4171 22.0355L24.7046 19.9997H22.0358V24.0712ZM29.5001 24.0712H30.8573V19.9997H29.5001V24.0712ZM31.5358 21.3569H32.8916V24.0712H34.9287V21.3569H36.2858V19.9997H31.5358V21.3569Z" fill="#112442"/>
<path opacity="0.6" d="M4.73047 17.9643L6.9935 15.25L13.8932 16.6071L12.8007 17.9643H4.73047Z" fill="#007890"/>
<path opacity="0.6" d="M4.73047 17.9644L6.32511 16.0264L9.80958 16.6588L8.73947 17.9644H4.73047Z" fill="#007890"/>
<path opacity="0.6" d="M8.73798 17.9645L10.9827 15.2686C10.9827 15.2686 11.6687 15.485 13.1134 15.8101C19.1622 16.9819 23.3938 17.2859 31.5366 17.9645H8.73798Z" fill="#00A8CC"/>
</g>
<circle cx="20" cy="20" r="19.5" stroke="black" stroke-opacity="0.05"/>
<defs>
<clipPath id="clip0_9_405351">
<rect width="33" height="10" fill="white" transform="translate(4 15)"/>
</clipPath>
</defs>
</svg>
