<svg width="40" height="40" viewBox="0 0 40 40" fill="none" xmlns="http://www.w3.org/2000/svg">
<circle cx="20" cy="20" r="20" fill="#F6F8FA"/>
<path d="M8.58396 24.4332C8.28321 24.2327 7.6817 24.0071 7.0802 24.0071C6.42857 24.0071 6.02757 24.2828 6.02757 24.7089C6.02757 25.0848 6.37845 25.2602 6.92982 25.3354L7.4812 25.4106C8.48371 25.5359 9.06015 25.962 9.06015 26.7389C9.06015 27.6412 8.25815 28.2176 6.97995 28.2176C6.40351 28.2176 5.62657 28.0672 5 27.6161L5.37594 27.0146C5.72682 27.2903 6.20301 27.5159 6.97995 27.5159C7.75689 27.5159 8.23308 27.2652 8.23308 26.8141C8.23308 26.4632 7.93233 26.2627 7.2807 26.1625L6.72932 26.0873C5.67669 25.962 5.17544 25.4858 5.17544 24.784C5.17544 23.8818 5.92732 23.3555 7.05514 23.3555C7.78196 23.3555 8.45865 23.556 8.93484 23.8567L8.58396 24.4332Z" fill="#03267F"/>
<path d="M13.9472 26.113C13.9472 27.5165 12.9447 28.1682 11.8168 28.1682C10.689 28.1682 9.68652 27.5165 9.68652 26.113V23.4062H10.4885V26.0629C10.4885 27.0153 11.065 27.4413 11.8168 27.4413C12.5687 27.4413 13.1452 27.0153 13.1452 26.0629V23.4062H13.9472V26.113Z" fill="#03267F"/>
<path d="M18.7094 23.9827L15.8272 27.3411H18.7595V28.0679H14.7495V27.4915L17.6568 24.1331H14.8498V23.4062H18.7094V23.9827Z" fill="#03267F"/>
<path d="M23.9476 28.093H23.1456V27.4664C22.7697 27.9175 22.2434 28.1932 21.4915 28.1932C20.1882 28.1932 19.1606 27.1656 19.1606 25.7621C19.1606 24.3586 20.1882 23.3311 21.4915 23.3311C22.2183 23.3311 22.7697 23.6067 23.1456 24.0579V23.4313H23.9476V28.093ZM19.9626 25.7371C19.9626 26.6644 20.6143 27.4163 21.5667 27.4163C22.519 27.4163 23.1707 26.6895 23.1707 25.7371C23.1707 24.7847 22.519 24.0579 21.5667 24.0579C20.5892 24.0579 19.9626 24.8098 19.9626 25.7371Z" fill="#03267F"/>
<path d="M29.3358 25.1854V28.0926H28.5338V25.436C28.5338 24.5839 28.0577 24.0575 27.2556 24.0575C26.5038 24.0575 25.8772 24.5839 25.8772 25.436V28.0676H25.0752V23.4059H25.8772V24.0074C26.2531 23.4811 26.8797 23.3057 27.406 23.3057C28.5338 23.3057 29.3358 24.0575 29.3358 25.1854Z" fill="#03267F"/>
<path d="M35 25.7367C35 27.1152 33.9474 28.1678 32.5188 28.1678C31.0902 28.1678 30.0376 27.1152 30.0376 25.7367C30.0376 24.3583 31.0902 23.3057 32.5188 23.3057C33.9474 23.3057 35 24.3583 35 25.7367ZM30.8647 25.7367C30.8647 26.7142 31.5664 27.4159 32.5188 27.4159C33.4712 27.4159 34.1729 26.7142 34.1729 25.7367C34.1729 24.7593 33.4712 24.0575 32.5188 24.0575C31.5915 24.0575 30.8647 24.7593 30.8647 25.7367Z" fill="#03267F"/>
<path d="M20.5637 14.5338C20.7642 13.7068 20.8645 12.8546 20.8394 12.0276V12.0025C22.3181 11.8521 23.9472 11.6767 24.8996 11C25.0249 11.8271 25.1752 13.2055 23.5211 15.5113C21.8419 17.8672 19.2103 19.1203 17.0549 19.797C17.5813 19.396 18.0574 18.9198 18.4835 18.4185C19.5111 17.2657 20.1878 15.9624 20.5637 14.5338ZM19.9622 12.1028C17.9321 12.3033 16.5036 12.9549 15.6264 14.0827C14.6239 15.3358 14.298 17.1654 14.5988 19.7469C14.6239 19.9975 14.6489 20.1729 14.674 20.3233C15.7517 19.7719 19.9873 17.3659 19.9622 12.1028ZM25.5011 13.6566C25.2003 14.5088 24.7492 15.3108 24.2229 16.0627C22.5186 18.3935 19.9873 19.6967 18.1577 20.3734C17.5562 20.599 17.0048 20.7494 16.5286 20.8997C17.9823 20.9749 19.2855 20.8496 20.4635 20.4987C21.7918 20.1228 22.8945 19.4712 23.7216 18.594C24.9747 17.2907 25.6013 15.5614 25.5011 13.6566Z" fill="url(#paint0_radial_9_402473)"/>
<circle cx="20" cy="20" r="19.5" stroke="black" stroke-opacity="0.05"/>
<defs>
<radialGradient id="paint0_radial_9_402473" cx="0" cy="0" r="1" gradientUnits="userSpaceOnUse" gradientTransform="translate(11.5305 15.9928) scale(16.1721 16.1721)">
<stop stop-color="#A4E03D"/>
<stop offset="0.5" stop-color="#00CC66"/>
<stop offset="1" stop-color="#008461"/>
</radialGradient>
</defs>
</svg>
