<svg width="40" height="40" viewBox="0 0 40 40" fill="none" xmlns="http://www.w3.org/2000/svg">
<circle cx="20" cy="20" r="20" fill="#F6F8FA"/>
<g clip-path="url(#clip0_9_397658)">
<path d="M10 19.9045C10 20.3807 10 20.8093 10.0952 21.2379H14.381L13 18.7141H12C12.6667 14.3331 16.8095 11.2855 21.2381 11.9521C24.0476 12.3807 26.4286 14.2379 27.5238 16.8569H29.5238C28.2381 12.8569 24.4762 9.95215 20 9.95215C14.4762 9.99977 10 14.4283 10 19.9045ZM30 20.095C30 19.6188 30 19.1902 29.9048 18.7617H27L25.619 21.2855H27.8571C27.2857 25.1426 23.9048 27.9998 20 27.9998C16.7143 27.9998 13.8571 25.9998 12.6667 23.1902H10.4762C11.7619 27.1902 15.5238 30.095 20 30.095C25.5238 30.095 30 25.6664 30 20.1902V20.095Z" fill="#114368"/>
<path d="M13.9046 18.0478C13.5713 17.4288 13.857 16.6669 14.4285 16.3811C14.6189 16.2859 14.8094 16.2383 14.9999 16.2383H15.2856C15.7618 16.2383 16.1904 16.524 16.3808 16.9049L19.238 22.5716C19.5713 23.1907 19.2856 23.9526 18.7142 24.2383C18.5237 24.3335 18.3332 24.3811 18.1427 24.3811H17.857C17.3808 24.3811 16.9523 24.0954 16.7618 23.7145L13.9046 18.0478Z" fill="#114368"/>
<path d="M17.6664 18.0478C17.333 17.4288 17.6187 16.6669 18.1902 16.3811C18.3807 16.2859 18.5711 16.2383 18.7616 16.2383H19.0473C19.5235 16.2383 19.9521 16.524 20.1426 16.9049L22.9997 22.5716C23.333 23.1907 23.0473 23.9526 22.4759 24.2383C22.2854 24.3335 22.0949 24.3811 21.9045 24.3811H21.6187C21.1426 24.3811 20.714 24.0954 20.5235 23.7145L17.6664 18.0478Z" fill="#B2C1E3"/>
<path d="M26.1433 18.0478C26.4766 17.4288 26.1909 16.6669 25.6194 16.3811C25.429 16.2859 25.2385 16.2383 25.048 16.2383H24.7623C24.2861 16.2383 23.8575 16.524 23.6671 16.9049L20.8099 22.5716C20.4766 23.1907 20.7623 23.9526 21.3337 24.2383C21.5242 24.3335 21.7147 24.3811 21.9052 24.3811H22.1909C22.6671 24.3811 23.0956 24.0954 23.2861 23.7145L26.1433 18.0478Z" fill="#114368"/>
</g>
<circle cx="20" cy="20" r="19.5" stroke="black" stroke-opacity="0.05"/>
<defs>
<clipPath id="clip0_9_397658">
<rect width="20" height="20" fill="white" transform="translate(10 10)"/>
</clipPath>
</defs>
</svg>
