<svg width="40" height="40" viewBox="0 0 40 40" fill="none" xmlns="http://www.w3.org/2000/svg">
<circle cx="20" cy="20" r="20" fill="#F6F8FA"/>
<g clip-path="url(#clip0_9_404315)">
<path d="M29.4767 16.1445C30.4661 16.1445 31.6425 16.2056 32.2706 17.0889C32.6698 17.6552 32.7765 18.3566 32.8299 19.0303C32.8299 19.2463 32.8569 19.4623 32.8569 19.6783V23.8569H31.5686V21.189C31.5686 20.46 31.5943 19.9001 31.5686 19.1717C31.5171 17.7426 30.6152 17.1024 29.1502 17.184C28.317 17.2354 27.4581 17.5826 27.1881 18.4067C27.0814 18.7847 27.0711 19.1396 27.0711 19.5433V23.8569L25.7854 23.8588V16.1445L26.4283 16.1426L26.7729 17.4283C26.9593 16.9423 27.5327 16.6845 28.0123 16.4685C28.4655 16.2795 28.9708 16.1985 29.4767 16.1445ZM7.14258 18.2704C7.14258 19.2521 7.74879 19.758 8.58451 20.0601C9.64908 20.4915 10.7799 20.5841 11.8708 20.9344C12.5233 21.1749 12.9482 21.5426 12.4442 22.242C11.9556 22.7769 11.3366 22.8572 10.6956 22.8572C9.59894 22.8566 8.42829 22.6129 8.42829 21.2854H7.14258C7.22679 23.2757 8.91044 23.7251 10.6031 23.8588C11.9319 23.8588 13.8778 23.3979 13.8778 21.7547C13.9414 20.775 13.1173 20.2279 12.3073 19.9207C11.5359 19.6513 10.7368 19.5433 9.96472 19.3549C9.43051 19.2096 8.41801 19.2836 8.42829 18.3296C8.43858 17.3762 9.38615 17.1981 10.1717 17.1557C11.3886 17.1557 12.3073 17.3762 12.3073 18.714H13.5731C13.5731 18.0956 13.4252 17.3582 12.9733 16.8999C12.4937 16.4145 11.2742 16.1426 10.3472 16.1426C9.41958 16.1426 7.14258 16.5373 7.14258 18.2704ZM14.214 16.1426L16.464 23.8569H17.7497C18.4151 21.8338 19.6783 17.4283 19.6783 17.4283C19.6783 17.4283 21.0463 21.774 21.7316 23.8569H22.9826L25.1426 16.1426L23.8569 16.1445L22.2497 22.5711L20.3211 16.1426H19.0354L17.1069 22.5711L15.4997 16.1426H14.214Z" fill="url(#paint0_linear_9_404315)"/>
</g>
<circle cx="20" cy="20" r="19.5" stroke="black" stroke-opacity="0.05"/>
<defs>
<linearGradient id="paint0_linear_9_404315" x1="7.19786" y1="20.0016" x2="32.8344" y2="20.0016" gradientUnits="userSpaceOnUse">
<stop stop-color="#0B355F"/>
<stop offset="1" stop-color="#00A4E3"/>
</linearGradient>
<clipPath id="clip0_9_404315">
<rect width="26" height="8" fill="white" transform="translate(7 16)"/>
</clipPath>
</defs>
</svg>
