<svg width="40" height="40" viewBox="0 0 40 40" fill="none" xmlns="http://www.w3.org/2000/svg">
<circle cx="20" cy="20" r="20" fill="#F6F8FA"/>
<g clip-path="url(#clip0_9_393137)">
<path d="M15.3171 7H15.3504C16.2702 7.03059 17.1856 7.49748 17.6554 8.30605C18.2152 9.21882 18.0514 10.3373 18.3389 11.3336C18.6043 12.3311 19.2962 13.1412 20.0188 13.8471C20.6092 14.3958 21.2317 14.9864 22.043 15.1711C22.7683 15.3602 23.5991 15.4101 24.1618 15.9645C24.8774 16.6454 24.8608 17.9193 24.1314 18.5849C23.4477 19.2686 22.2265 19.2546 21.5581 18.5585C21.0093 17.9929 20.9621 17.1635 20.769 16.441C20.6134 15.7297 20.1285 15.16 19.6505 14.6376C18.9725 13.9138 18.2223 13.2066 17.2788 12.8523C16.4425 12.5271 15.5268 12.5785 14.664 12.3687C13.8109 12.1728 13.0814 11.517 12.787 10.6945C12.4618 9.8205 12.6035 8.77697 13.1912 8.04622C13.6872 7.38353 14.5056 7.03882 15.3171 7Z" fill="#00A2AE"/>
<path d="M29.4333 12.7788C30.7198 12.3441 32.2467 13.0249 32.7664 14.2822C33.2834 15.441 32.8748 16.9236 31.8077 17.6237C30.6934 18.3782 29.2373 18.003 28.0592 18.595C26.9227 19.1577 26.0266 20.1094 25.2692 21.1071C24.5955 21.9908 24.8358 23.2523 24.1217 24.1109C23.4116 24.9794 21.9 24.9113 21.2664 23.9901C20.6955 23.2328 20.8303 22.0296 21.6054 21.46C22.4669 20.818 23.6743 21.0264 24.5329 20.3679C25.5069 19.637 26.4239 18.7659 26.9963 17.678C27.4672 16.7819 27.402 15.7452 27.6131 14.781C27.7993 13.8488 28.5274 13.0582 29.4333 12.7788Z" fill="#72BC44"/>
<path d="M15.8518 16.2705C16.4548 15.5203 17.6622 15.4063 18.4027 16.0164C19.2418 16.6416 19.3225 18.0004 18.5847 18.7354C18.0012 19.3134 17.1356 19.3537 16.3854 19.5579C15.8087 19.7025 15.3183 20.0609 14.8807 20.4485C14.065 21.1779 13.2578 21.9867 12.8534 23.0245C12.4992 23.9082 12.5965 24.8892 12.3297 25.7935C12.124 26.4744 11.6447 27.0719 11.0042 27.39C9.95109 27.968 8.52689 27.729 7.73076 26.8246C7.25294 26.3356 7.03059 25.6561 7 24.9836V24.9599C7.02639 24.0319 7.51126 23.1134 8.32689 22.6451C9.29395 22.0658 10.4805 22.2826 11.517 21.9213C12.5492 21.5892 13.3496 20.8154 14.0775 20.0456C14.5222 19.5552 14.9738 19.0258 15.1474 18.37C15.3447 17.6628 15.3822 16.8709 15.8518 16.2705Z" fill="#28C0DA"/>
<path d="M16.5005 21.2569C17.2826 20.9525 18.2594 21.2749 18.6887 21.9987C19.0319 22.5907 19.0778 23.2868 19.2611 23.9329C19.4695 24.6483 19.985 25.2125 20.4825 25.7446C21.1979 26.4922 22.0163 27.2147 23.0389 27.4925C23.9892 27.7759 25.0425 27.6329 25.9413 28.0956C26.9403 28.611 27.5378 29.7836 27.3571 30.8952C27.2223 31.9483 26.4095 32.8724 25.3786 33.1307C24.2226 33.4643 22.8764 32.9251 22.2984 31.8636C21.7635 30.9161 21.9537 29.7754 21.6176 28.7693C21.3245 27.8329 20.6727 27.0673 19.9808 26.3962C19.3653 25.8198 18.7053 25.1999 17.8468 25.0387C17.0394 24.8624 16.071 24.7498 15.5973 23.9759C14.9485 23.045 15.4278 21.6154 16.5005 21.2569Z" fill="#005EA8"/>
</g>
<circle cx="20" cy="20" r="19.5" stroke="black" stroke-opacity="0.05"/>
<defs>
<clipPath id="clip0_9_393137">
<rect width="26" height="26.2353" fill="white" transform="translate(7 7)"/>
</clipPath>
</defs>
</svg>
