<svg width="40" height="40" viewBox="0 0 40 40" fill="none" xmlns="http://www.w3.org/2000/svg">
<circle cx="20" cy="20" r="20" fill="#0081C6"/>
<g clip-path="url(#clip0_9_410788)">
<path d="M11.4999 16.0086C10.9122 15.7585 10.1096 15.5806 9.45447 15.5806C8.81393 15.5806 7.98518 15.8569 7.98518 16.8556C7.98518 18.4469 12.0725 17.7766 12.0725 20.8543C12.0725 22.8657 10.4563 23.6289 8.57289 23.6289C7.55775 23.6289 6.95789 23.4965 6.03564 23.2737V21.6162C6.67679 21.9586 7.73139 22.1827 8.46664 22.1827C9.17457 22.1827 10.1223 21.8275 10.1223 20.9988C10.1223 19.2502 6.03564 19.9727 6.03564 16.9351C6.03564 14.883 7.65186 14.1338 9.29418 14.1338C10.0956 14.1338 10.8181 14.2388 11.4999 14.4623V16.0086ZM22.4285 18.3012C21.8973 18.1221 21.2045 18.0201 20.5688 18.0201C20.1025 18.0201 19.5446 18.1859 19.5446 18.7481C19.5446 19.7948 22.5663 19.1312 22.5663 21.5057C22.5663 23.0381 21.179 23.6508 19.765 23.6508C19.0255 23.6408 18.2895 23.5467 17.5714 23.3703V21.9653C18.116 22.2337 19.0127 22.4 19.6095 22.4C20.0503 22.4 20.751 22.2337 20.751 21.595C20.751 20.3054 17.7292 21.1864 17.7292 18.8118C17.7292 17.3948 18.986 16.7688 20.3484 16.7688C21.1656 16.7688 21.8833 16.8963 22.4285 17.0116V18.3012ZM27.8928 18.3395C27.5819 18.1986 27.0719 18.0966 26.5407 18.0966C25.4636 18.0966 24.7769 18.9393 24.7769 20.1779C24.7769 21.391 25.3598 22.3229 26.5789 22.3229C27.0725 22.3229 27.5947 22.1444 27.8928 22.0163V23.4334C27.387 23.5864 26.9681 23.6508 26.2553 23.6508C24.0635 23.6508 22.961 22.1827 22.961 20.1779C22.961 18.2757 24.1024 16.7688 26.1904 16.7688C26.8904 16.7688 27.4125 16.8453 27.8928 16.9861V18.3395ZM31.6777 22.3229C33.0134 22.3229 33.3631 21.1487 33.3631 20.0504C33.3631 19.0419 32.8191 18.0972 31.6777 18.0972C30.5496 18.0972 30.005 19.0674 30.005 20.0504C30.005 21.1354 30.3548 22.3229 31.6777 22.3229ZM31.6777 16.7694C33.6613 16.7694 35.1785 18.0839 35.1785 20.2544C35.1785 22.1438 33.895 23.6508 31.6777 23.6508C29.4738 23.6508 28.1891 22.1438 28.1891 20.2544C28.1891 18.0839 29.7069 16.7694 31.6777 16.7694ZM17.9235 16.9643H16.1598L12.7628 26.0714H14.3565L17.9247 16.9643H17.9235Z" fill="white"/>
<path d="M10.7149 16.6705C11.4514 17.4167 12.1854 18.3256 12.7179 19.3918C13.1939 20.3462 13.4343 21.2757 13.6061 22.2125C13.6134 22.2453 13.6353 22.2429 13.648 22.2174C14.2813 21.1106 14.6692 19.6037 14.1022 18.4683C13.5078 17.2765 12.0804 16.7288 10.7386 16.6183C10.6919 16.6159 10.6846 16.6402 10.7149 16.6705Z" fill="#7CEC33"/>
</g>
<circle cx="20" cy="20" r="19.5" stroke="black" stroke-opacity="0.05"/>
<defs>
<clipPath id="clip0_9_410788">
<rect width="30" height="13" fill="white" transform="translate(6 14)"/>
</clipPath>
</defs>
</svg>
