<svg width="40" height="40" viewBox="0 0 40 40" fill="none" xmlns="http://www.w3.org/2000/svg">
<circle cx="20" cy="20" r="20" fill="#0480BC"/>
<g clip-path="url(#clip0_9_401422)">
<path d="M18.1788 23.1439V30.7465C18.1788 30.7948 18.198 30.8412 18.2322 30.8753C18.2663 30.9095 18.3126 30.9287 18.361 30.9287H21.6395C21.6878 30.9287 21.7342 30.9095 21.7683 30.8753C21.8025 30.8412 21.8217 30.7948 21.8217 30.7465V23.1232C21.8216 23.0868 21.8324 23.0512 21.8527 23.021C21.8731 22.9907 21.902 22.9673 21.9358 22.9537C21.9696 22.9401 22.0067 22.937 22.0423 22.9447C22.0779 22.9524 22.1104 22.9706 22.1356 22.9969L26.6284 27.695C26.6492 27.7167 26.675 27.733 26.7036 27.7423C26.7321 27.7516 26.7625 27.7537 26.7921 27.7484C26.8217 27.7431 26.8495 27.7306 26.873 27.712C26.8966 27.6933 26.9152 27.6691 26.9271 27.6416L28.0831 24.9829C28.0988 24.9467 28.1022 24.9065 28.093 24.8682C28.0838 24.8298 28.0625 24.7955 28.0321 24.7704L25.586 22.7504C25.4263 22.6187 25.575 22.3655 25.7681 22.4408L28.6229 23.5464C28.6505 23.5572 28.6804 23.561 28.7098 23.5577C28.7393 23.5543 28.7675 23.5438 28.792 23.527C28.8164 23.5103 28.8364 23.4878 28.8502 23.4615C28.8641 23.4353 28.8713 23.4061 28.8712 23.3764V22.5282C28.8711 22.4975 28.8633 22.4674 28.8484 22.4405C28.8336 22.4137 28.8122 22.391 28.7862 22.3746L21.2995 17.6255C21.2736 17.6091 21.2522 17.5863 21.2375 17.5593C21.2227 17.5323 21.215 17.5021 21.2151 17.4713V13.5832C21.2152 13.5539 21.2223 13.525 21.2359 13.499C21.2495 13.473 21.2692 13.4507 21.2933 13.4339C21.3174 13.4172 21.3451 13.4065 21.3742 13.4028C21.4033 13.399 21.4329 13.4024 21.4604 13.4126L25.4166 14.8776C25.5969 14.9444 25.7444 14.7228 25.6133 14.5825L21.0573 9.68108C21.0559 9.67948 21.0549 9.67763 21.0542 9.67562L20.8175 9.01201C20.7584 8.84646 20.6496 8.70322 20.506 8.60194C20.3623 8.50066 20.1909 8.44629 20.0151 8.44629C19.8394 8.44629 19.6679 8.50066 19.5243 8.60194C19.3806 8.70322 19.2718 8.84646 19.2128 9.01201L18.976 9.67562C18.9754 9.67763 18.9743 9.67948 18.973 9.68108L14.5706 14.5783C14.4431 14.7204 14.593 14.9383 14.7715 14.8697L18.5388 13.4168C18.5664 13.4062 18.5962 13.4024 18.6256 13.4059C18.655 13.4093 18.6831 13.4198 18.7075 13.4366C18.7319 13.4533 18.7518 13.4758 18.7656 13.5019C18.7794 13.5281 18.7866 13.5573 18.7866 13.5868V17.4713C18.7866 17.5021 18.7788 17.5324 18.7639 17.5594C18.7491 17.5864 18.7276 17.6091 18.7016 17.6255L11.2149 22.3752C11.1889 22.3916 11.1675 22.4143 11.1527 22.4411C11.1378 22.468 11.13 22.4981 11.1299 22.5288V23.3837C11.1299 23.413 11.1369 23.4419 11.1504 23.4679C11.164 23.4939 11.1836 23.5163 11.2076 23.5331C11.2316 23.5499 11.2593 23.5606 11.2884 23.5644C11.3175 23.5682 11.347 23.565 11.3746 23.5549L14.5675 22.3995C14.7606 22.3297 14.9039 22.5823 14.7442 22.7116L12.2167 24.7692C12.1854 24.7945 12.1634 24.8294 12.1541 24.8685C12.1447 24.9076 12.1486 24.9487 12.1651 24.9853L13.3617 27.6385C13.3742 27.6661 13.3933 27.6902 13.4173 27.7085C13.4414 27.7269 13.4696 27.739 13.4995 27.7437C13.5294 27.7484 13.56 27.7455 13.5885 27.7355C13.617 27.7254 13.6426 27.7083 13.6629 27.6859L17.8619 23.0218C17.8865 22.9945 17.9188 22.9752 17.9546 22.9666C17.9904 22.958 18.028 22.9604 18.0623 22.9735C18.0967 22.9867 18.1263 23.0099 18.1472 23.0402C18.1681 23.0705 18.1793 23.1065 18.1794 23.1433L18.1788 23.1439Z" fill="white"/>
<path d="M18.179 16.8474V14.9482C18.179 14.9132 18.169 14.8788 18.15 14.8493C18.1311 14.8199 18.104 14.7965 18.0721 14.782C18.0402 14.7675 18.0048 14.7625 17.9701 14.7677C17.9354 14.7728 17.903 14.7879 17.8766 14.811L13.7383 18.4514C13.5829 18.5874 13.7383 18.8364 13.929 18.7562L18.0673 17.0149C18.1003 17.0011 18.1285 16.9778 18.1484 16.948C18.1683 16.9182 18.1789 16.8832 18.179 16.8474ZM21.9918 16.8474V14.947C21.992 14.9121 22.0021 14.878 22.0211 14.8487C22.0401 14.8194 22.0671 14.7962 22.0989 14.7818C22.1306 14.7674 22.1659 14.7625 22.2004 14.7676C22.2349 14.7726 22.2673 14.7875 22.2936 14.8104L26.4452 18.452C26.6007 18.588 26.4452 18.8364 26.2546 18.7568L22.1029 17.0149C22.07 17.001 22.0419 16.9777 22.0222 16.9479C22.0024 16.9181 21.9919 16.8831 21.9918 16.8474Z" fill="#FFC700"/>
</g>
<circle cx="20" cy="20" r="19.5" stroke="black" stroke-opacity="0.05"/>
<defs>
<clipPath id="clip0_9_401422">
<rect width="18" height="23" fill="white" transform="translate(11 8)"/>
</clipPath>
</defs>
</svg>
