<svg width="40" height="40" viewBox="0 0 40 40" fill="none" xmlns="http://www.w3.org/2000/svg">
<circle cx="20" cy="20" r="20" fill="#F6F8FA"/>
<g clip-path="url(#clip0_9_396049)">
<path fill-rule="evenodd" clip-rule="evenodd" d="M15.5 21.2859V17.4287H16.9014C17.525 17.4287 18.0714 17.763 18.0714 18.4444C18.0714 18.8559 17.8593 19.1516 17.4671 19.2544V19.293C17.9557 19.3187 18.2579 19.7944 18.2579 20.2509C18.2579 20.9773 17.615 21.2859 16.9721 21.2859H15.5ZM15.95 20.8359H16.9143C17.2743 20.8359 17.6857 20.6494 17.6857 20.2187C17.6857 19.8073 17.3193 19.5501 16.9336 19.5501H15.95V20.8359ZM15.95 19.1001H16.85C16.9786 19.1001 17.1007 19.0744 17.2036 19.023C17.4157 18.9201 17.6214 18.7337 17.6214 18.4894C17.6214 18.1037 17.2164 17.8787 16.8693 17.8787H15.95V19.1001ZM19.9229 21.2859C19.7429 21.2859 19.5821 21.2537 19.4407 21.1959C19.2929 21.138 19.1836 21.0544 19.1 20.9387C19.0164 20.8294 18.9714 20.6944 18.9714 20.5273C18.9714 20.3859 19.0036 20.2701 19.0679 20.1801C19.1299 20.0898 19.214 20.0167 19.3121 19.968C19.415 19.9166 19.5307 19.878 19.6593 19.8459C19.7867 19.8179 19.9154 19.7965 20.045 19.7816L20.4564 19.743C20.5657 19.7301 20.7136 19.7109 20.765 19.6851C20.81 19.6594 20.8357 19.6209 20.8357 19.5566C20.8357 19.2673 20.5786 19.1066 20.225 19.1066C19.9486 19.1066 19.5371 19.203 19.4343 19.4344L19.0679 19.1387C19.3121 18.843 19.7171 18.7144 20.2186 18.7144C20.3279 18.7144 20.45 18.7273 20.5721 18.753C21.0221 18.8301 21.2857 19.1259 21.2857 19.5823V21.2859H20.8486V20.8937C20.6879 21.183 20.2314 21.2859 19.9229 21.2859ZM20.0386 20.9001C20.315 20.9001 20.8357 20.688 20.8357 20.3344V20.013C20.7989 20.0292 20.7599 20.0401 20.72 20.0451L20.6493 20.0644C20.519 20.0995 20.3854 20.1211 20.2507 20.1287L20.0836 20.148C19.9807 20.1609 19.8843 20.1801 19.7943 20.2123C19.7176 20.2342 19.6471 20.2738 19.5886 20.328C19.5626 20.3554 19.5425 20.3877 19.5292 20.4231C19.516 20.4584 19.5099 20.496 19.5114 20.5337C19.5114 20.6559 19.5564 20.7459 19.6593 20.8101C19.7557 20.868 19.8843 20.9001 20.045 20.9001H20.0386ZM22.3786 21.2859V19.8844C22.3786 19.4987 22.8607 19.1837 23.2014 19.1837C23.6129 19.1837 23.8571 19.4216 23.8571 19.8266V21.2859H24.3071V19.7623C24.3071 19.1387 24.0371 18.7144 23.4071 18.7144C22.9314 18.7144 22.52 18.9073 22.3786 19.203V18.7144H21.9286V21.2859H22.3786ZM26.7629 20.8487C26.5913 21.0493 26.3622 21.1923 26.1066 21.2582C25.851 21.3241 25.5813 21.3097 25.3342 21.217C25.0871 21.1243 24.8744 20.9578 24.7252 20.7401C24.5759 20.5224 24.4973 20.2641 24.5 20.0001C24.4992 19.7344 24.5807 19.475 24.7334 19.2575C24.8861 19.04 25.1024 18.8752 25.3526 18.7856C25.6028 18.6961 25.8746 18.6864 26.1306 18.7576C26.3866 18.8289 26.6142 18.9778 26.7821 19.1837L26.435 19.473C26.3273 19.3386 26.1807 19.2407 26.0152 19.1928C25.8498 19.1449 25.6735 19.1493 25.5107 19.2054C25.3478 19.2614 25.2062 19.3665 25.1054 19.5061C25.0045 19.6458 24.9492 19.8132 24.9471 19.9854C24.945 20.1576 24.9962 20.3263 25.0937 20.4684C25.1912 20.6104 25.3301 20.7188 25.4916 20.7789C25.6531 20.8389 25.8291 20.8475 25.9957 20.8037C26.1623 20.7598 26.3112 20.6655 26.4221 20.5337L26.7629 20.8423V20.8487ZM29.6429 20.0001C29.6429 20.3411 29.5074 20.6682 29.2663 20.9093C29.0252 21.1504 28.6981 21.2859 28.3571 21.2859C28.0162 21.2859 27.6891 21.1504 27.448 20.9093C27.2069 20.6682 27.0714 20.3411 27.0714 20.0001C27.0714 19.6591 27.2069 19.3321 27.448 19.091C27.6891 18.8499 28.0162 18.7144 28.3571 18.7144C28.6981 18.7144 29.0252 18.8499 29.2663 19.091C29.5074 19.3321 29.6429 19.6591 29.6429 20.0001ZM29.1929 20.0001C29.1929 20.2218 29.1048 20.4344 28.9481 20.5911C28.7914 20.7478 28.5788 20.8359 28.3571 20.8359C28.1355 20.8359 27.9229 20.7478 27.7662 20.5911C27.6095 20.4344 27.5214 20.2218 27.5214 20.0001C27.5214 19.7785 27.6095 19.5659 27.7662 19.4092C27.9229 19.2525 28.1355 19.1644 28.3571 19.1644C28.5788 19.1644 28.7914 19.2525 28.9481 19.4092C29.1048 19.5659 29.1929 19.7785 29.1929 20.0001ZM31.8671 18.7144H31.7514C31.43 18.7144 30.8836 18.888 30.7357 19.203V18.7144H30.2857V21.2859H30.7357V19.8844C30.7357 19.5116 31.2243 19.1837 31.5586 19.1837C31.6743 19.1837 31.7836 19.203 31.8671 19.248V18.7209V18.7144ZM32.2143 18.7144H32.6643V19.1001C32.8893 18.8623 33.2043 18.7144 33.5514 18.7144C34.2329 18.7144 34.7857 19.293 34.7857 20.0001C34.7857 20.7073 34.2329 21.2859 33.5514 21.2859C33.2043 21.2859 32.8893 21.138 32.6643 20.9001V23.2144H32.2143V18.7144Z" fill="#7DA42D"/>
<path d="M28.7686 14.8574C24.7057 14.8574 21.2279 17.2617 20 18.4703C21.3821 17.5831 24.7121 15.8089 26.9557 15.8089C29.1993 15.8089 28.6079 17.3967 28.0357 18.1939C29.3536 18.0781 29.8486 18.496 29.9321 18.7146C30.8964 17.4289 32.015 14.8574 28.775 14.8574H28.7686Z" fill="#0061AE"/>
<path d="M19.0803 25.1433C23.1175 25.1433 26.4925 22.7647 27.7139 21.6847C26.3382 22.4754 22.9375 24.2754 20.7068 24.2754C18.4825 24.2754 19.0482 22.7454 19.6203 22.0318C18.3153 22.1347 18.1867 21.4854 18.1032 21.2861C16.5153 22.3854 15.8532 25.1433 19.0803 25.1433Z" fill="#7DA42D"/>
<path d="M5.21387 17.4287V17.9237H6.49958V21.2859H7.14244V17.9237H8.33815V17.4287H5.21387ZM9.07101 19.9487V21.2859H8.42815V17.4287H9.07101V19.2094C9.14172 19.068 9.24458 18.9587 9.37958 18.8751C9.52744 18.7851 9.7203 18.7144 9.95815 18.7144C10.1639 18.7144 10.3439 18.7787 10.5046 18.8623C10.6589 18.9394 10.781 19.0616 10.871 19.2287C10.9546 19.3894 10.9996 19.5887 10.9996 19.8266V21.2859H10.3567V19.8973C10.3567 19.6851 10.3503 19.518 10.2282 19.4023C10.1647 19.3427 10.0899 19.2965 10.0081 19.2667C9.92633 19.2368 9.83935 19.2239 9.75244 19.2287C9.32815 19.2287 9.07101 19.5244 9.07101 19.9487ZM12.9924 21.2859C12.716 21.2859 12.4782 21.2344 12.2724 21.1316C12.0732 21.0223 11.9124 20.8744 11.8032 20.6816C11.6917 20.4744 11.6363 20.2417 11.6424 20.0066C11.6424 19.7494 11.6939 19.5309 11.8032 19.3316C11.9124 19.1387 12.0667 18.9844 12.266 18.8816C12.6252 18.7026 13.0393 18.6681 13.4232 18.7851C13.571 18.8301 13.706 18.9009 13.8282 19.0037C13.9439 19.1001 14.0403 19.2287 14.111 19.3894C14.1753 19.5501 14.2139 19.7366 14.2139 19.968V20.1351H12.1953C12.1953 20.2894 12.2339 20.418 12.2917 20.5273C12.356 20.643 12.4589 20.733 12.5746 20.7973C12.7032 20.8551 12.8382 20.8873 12.9989 20.8873C13.1082 20.8873 13.1982 20.8744 13.2882 20.8487C13.3706 20.8235 13.4471 20.782 13.5132 20.7266C13.5748 20.6743 13.6232 20.6082 13.6546 20.5337L14.1817 20.6109C14.1367 20.7459 14.0596 20.868 13.9503 20.9709C13.8474 21.0673 13.7124 21.1444 13.5453 21.2023C13.3846 21.2601 13.2046 21.2859 12.9924 21.2859ZM12.2853 19.473C12.2339 19.5694 12.2017 19.6659 12.1953 19.7751H13.6739C13.6774 19.6564 13.6473 19.5391 13.587 19.4367C13.5267 19.3343 13.4387 19.2511 13.3332 19.1966C13.2178 19.1379 13.0896 19.1091 12.9603 19.113C12.806 19.113 12.671 19.1451 12.5553 19.2159C12.4396 19.2801 12.3496 19.3701 12.2853 19.473Z" fill="#0062A8"/>
</g>
<circle cx="20" cy="20" r="19.5" stroke="black" stroke-opacity="0.05"/>
<defs>
<clipPath id="clip0_9_396049">
<rect width="30" height="12" fill="white" transform="translate(5 14)"/>
</clipPath>
</defs>
</svg>
