<svg width="40" height="40" viewBox="0 0 40 40" fill="none" xmlns="http://www.w3.org/2000/svg">
<circle cx="20" cy="20" r="20" fill="#F6F8FA"/>
<circle cx="20" cy="20" r="19.5" stroke="black" stroke-opacity="0.05"/>
<g clip-path="url(#clip0_9_395251)">
<path d="M23.6719 21.9961L25.8974 28.834L20.0555 24.6088L14.2137 28.834L16.439 21.9961L10.625 17.7432H17.8301L20.0555 10.9053L22.281 17.7432H29.4859L23.6719 21.9961Z" fill="#000033"/>
<path fill-rule="evenodd" clip-rule="evenodd" d="M19.9444 5.0127C28.29 5.0127 34.9942 11.7116 34.9942 20.0227C34.9664 28.3061 28.29 34.9772 20.0001 34.9772C11.6545 34.9494 5.00586 28.3061 5.00586 19.9394C5.00586 11.7394 11.738 5.0127 19.9444 5.0127ZM19.9722 6.2357C12.3777 6.2357 6.22985 12.3788 6.22985 19.9394C6.22985 23.6641 7.64869 27.1386 10.2358 29.7238C12.8229 32.3088 16.3002 33.7542 20.0001 33.7542C23.7 33.7542 27.1773 32.3365 29.7644 29.7515C32.3793 27.1664 33.798 23.7197 33.798 20.0227C33.798 16.3258 32.3793 12.8513 29.7644 10.2663C27.1493 7.65339 23.6721 6.2357 19.9722 6.2357Z" fill="#CC0000"/>
</g>
<defs>
<clipPath id="clip0_9_395251">
<rect width="30" height="29.9836" fill="white" transform="translate(5 5)"/>
</clipPath>
</defs>
</svg>
