<svg width="40" height="40" viewBox="0 0 40 40" fill="none" xmlns="http://www.w3.org/2000/svg">
<circle cx="20" cy="20" r="20" fill="#264355"/>
<g clip-path="url(#clip0_9_410582)">
<path d="M3.86025 17.9642H7.24496L7.09839 18.6421H5.84982L5.11425 22.0357H4.21514L4.95682 18.6421H3.71436L3.86025 17.9642ZM7.50078 22.0357H6.60236L7.49061 17.9642H9.26643C9.98164 17.9697 10.6663 18.1936 10.4885 19.0242C10.3732 19.5534 9.94568 19.9063 9.40757 20.0128V20.023C10.0814 20.0943 9.9925 20.5068 9.94025 21.0728C9.92464 21.3327 9.85678 21.8117 9.97146 22.0357H8.98414C8.98957 21.674 9.02621 21.3069 9.06761 20.9404C9.09407 20.7165 9.10425 20.405 8.81178 20.3949H7.86178L7.50078 22.0357ZM8.00768 19.7217H8.75953C9.1565 19.717 9.42861 19.5236 9.50664 19.1619C9.58536 18.7995 9.38653 18.6469 8.995 18.6421H8.24246L8.00768 19.7217ZM9.98707 22.0357L12.3845 17.9642H13.4498L14.0144 22.0357H13.1105L13.0087 21.3571H11.2696L10.8387 22.0357H9.98707ZM12.9205 20.6785L12.7237 18.7595H12.7136L11.6374 20.6785H12.9205ZM16.6208 22.0357L15.7115 18.636L15.6959 18.6516L14.9596 22.0357H14.1236L15.0119 17.9642H16.3385L17.2315 21.1684L17.2471 21.1583L17.942 17.9642H18.7834L17.8945 22.0357H16.6208ZM21.2276 19.113C21.2846 18.6978 21.1021 18.4928 20.6685 18.4928C20.3394 18.4928 19.9682 18.6625 19.8901 19.0208C19.7958 19.4618 20.188 19.5127 20.528 19.6003C21.1279 19.759 22.0263 19.9328 21.8492 20.7586C21.6293 21.7737 20.6481 22.1273 19.7544 22.1273C18.7983 22.1273 18.2032 21.7086 18.4536 20.6785H19.3676C19.2319 21.1345 19.4355 21.4914 19.9003 21.4914C20.2613 21.4914 20.7574 21.3842 20.851 20.9486C20.9555 20.4668 20.3651 20.4302 20.0259 20.3433C19.4721 20.2001 18.7305 19.9382 18.8872 19.2155C19.0908 18.2777 20.0571 17.8672 20.9141 17.8672C21.7236 17.8672 22.2617 18.2981 22.084 19.1232H21.2276" fill="white"/>
<path d="M22.8148 17.9642H24.2045C24.5913 17.9744 24.993 18.0049 25.2854 18.2133C25.8134 18.5899 25.9491 19.2264 25.7822 19.9999C25.6145 20.7735 25.1965 21.41 24.5071 21.7866C24.1258 21.9949 23.7084 22.0207 23.3217 22.0357H21.9326L22.8148 17.9642ZM22.6112 21.5471H23.4574C24.0423 21.5471 24.4033 21.3177 24.6177 21.0836C24.9407 20.7328 25.0927 20.3765 25.1708 19.9945C25.2542 19.6179 25.2651 19.2569 25.0927 18.9054C24.9828 18.6767 24.7161 18.4426 24.1359 18.4426H23.2911L22.6125 21.5471H22.6112ZM25.7557 22.0357L26.6439 17.9642H27.218L26.3359 22.0357H25.7557ZM30.4772 18.9699C30.4772 18.4827 30.0755 18.349 29.6263 18.349C28.6023 18.349 28.0432 19.2311 27.8973 19.9945C27.714 21.0456 27.9176 21.6197 29.1092 21.64C29.401 21.6373 29.691 21.5941 29.971 21.5118L30.1813 20.4872H29.2313L29.3352 19.9999H30.8606L30.4616 21.8911C29.9499 22.035 29.4485 22.132 28.9735 22.132C28.3831 22.132 27.9183 22.0608 27.5471 21.6611C27.1712 21.2607 27.1556 20.5794 27.2811 19.9999C27.3748 19.5745 27.6204 19.1083 27.9129 18.7392C28.4143 18.1135 29.078 17.8672 29.7932 17.8672C30.4989 17.8672 31.2141 18.1854 31.073 18.9746H30.4772M35.6174 18.3714H35.6065L33.4704 22.0357H32.9275L32.3894 18.3714H32.3785L31.5805 22.0357H31.0004L31.8886 17.9642H32.9228L33.3978 21.3225H33.4086L35.3195 17.9642H36.2858L35.3982 22.0357H34.818L35.6174 18.3714Z" fill="#BABABA"/>
</g>
<circle cx="20" cy="20" r="19.5" stroke="black" stroke-opacity="0.05"/>
<defs>
<clipPath id="clip0_9_410582">
<rect width="34" height="6" fill="white" transform="translate(3 17)"/>
</clipPath>
</defs>
</svg>
