<svg width="40" height="40" viewBox="0 0 40 40" fill="none" xmlns="http://www.w3.org/2000/svg">
<circle cx="20" cy="20" r="20" fill="#162D72"/>
<g clip-path="url(#clip0_9_408882)">
<path fill-rule="evenodd" clip-rule="evenodd" d="M10.3804 24.9405H8.03069V15.5741H5V13.5159H13.7315L13.0217 15.5741H10.3804V24.9405ZM18.6496 24.5358C18.0185 24.8427 17.1515 25.1784 15.6381 25.1784C12.9891 25.1784 11.5831 23.2276 11.5831 20.7743C11.5831 18.1886 13.1714 16.2704 15.4885 16.2704C17.8728 16.2704 19.1483 18.0198 19.1483 20.7589C19.1483 21.1195 19.1138 21.3593 19.1138 21.4801H13.7506C13.7199 22.0959 14.2148 23.381 15.8357 23.381C17.305 23.381 18.2238 22.8229 18.5729 22.6003L18.6496 24.5358ZM15.5364 17.9833C14.5275 17.9833 13.8983 18.7698 13.7315 19.8171H17.0786C17.0786 19.3529 16.9118 17.9833 15.5364 17.9833ZM32.3491 24.9405L29.4201 20.9814V24.9405H27.1854V12.998H29.4201V19.5927L32.3836 16.5102H34.9655L31.3574 20.2103L35 24.9405H32.3491ZM26.2916 24.6509C25.7602 24.9136 24.9834 25.1784 23.9994 25.1784C21.4482 25.1784 19.8254 23.2928 19.8254 20.7915C19.8254 18.1713 21.6976 16.2685 24.1471 16.2685C25.0332 16.2685 25.7199 16.4968 26.1976 16.7404L26.0652 18.6355C25.9501 18.5492 25.2711 18.1387 24.3446 18.1387C22.8542 18.1387 22.0601 19.4718 22.0601 20.6745C22.0601 22.1457 22.7871 23.2794 24.2775 23.2794C25.2577 23.2794 26.0595 22.8478 26.211 22.7576L26.2916 24.6509Z" fill="white"/>
</g>
<circle cx="20" cy="20" r="19.5" stroke="black" stroke-opacity="0.05"/>
<defs>
<clipPath id="clip0_9_408882">
<rect width="30" height="12.1803" fill="white" transform="translate(5 13)"/>
</clipPath>
</defs>
</svg>
