<svg width="40" height="40" viewBox="0 0 40 40" fill="none" xmlns="http://www.w3.org/2000/svg">
<circle cx="20" cy="20" r="20" fill="#0066FF"/>
<g clip-path="url(#clip0_9_406502)">
<path d="M12.9834 16.9682C11.3338 16.9682 10 15.6344 10 13.9834C10 12.3338 11.3338 11 12.9834 11C14.6331 11 15.9669 12.3338 15.9669 13.9834C15.9669 15.6344 14.6331 16.9682 12.9834 16.9682ZM19.9987 16.9682C18.349 16.9682 17.0153 15.6344 17.0153 13.9834C17.0153 12.3338 18.349 11 19.9987 11C21.6484 11 22.9822 12.3338 22.9822 13.9834C22.9822 15.6344 21.6484 16.9682 19.9987 16.9682ZM27.014 16.9682C25.3643 16.9682 24.0306 15.6344 24.0306 13.9834C24.0306 12.3338 25.3643 11 27.014 11C28.6637 11 29.9975 12.3338 29.9975 13.9834C29.9975 15.6344 28.6637 16.9682 27.014 16.9682ZM19.9987 23.9834C18.349 23.9834 17.0153 22.6497 17.0153 21C17.0153 19.3503 18.349 18.0166 19.9987 18.0166C21.6484 18.0166 22.9822 19.3503 22.9822 21C22.9822 22.6497 21.6484 23.9834 19.9987 23.9834ZM19.9987 31C18.349 31 17.0153 29.6662 17.0153 28.0166C17.0153 26.3656 18.349 25.0318 19.9987 25.0318C21.6484 25.0318 22.9822 26.3656 22.9822 28.0166C22.9822 29.6662 21.6484 31 19.9987 31Z" fill="white"/>
</g>
<circle cx="20" cy="20" r="19.5" stroke="black" stroke-opacity="0.05"/>
<defs>
<clipPath id="clip0_9_406502">
<rect width="20" height="20" fill="white" transform="translate(10 11)"/>
</clipPath>
</defs>
</svg>
