<svg width="40" height="40" viewBox="0 0 40 40" fill="none" xmlns="http://www.w3.org/2000/svg">
<circle cx="20" cy="20" r="20" fill="#149FB8"/>
<path d="M9.34508 29.32C8.23295 25.2086 7.15306 21.1777 6.07518 17.1166C5.92206 16.5405 5.98854 16.0489 6.40761 15.6299C9.43239 12.5989 12.4921 9.53897 15.5867 6.45018C15.9977 6.03923 16.4873 5.90964 17.0555 6.06139C21.3213 7.2029 25.524 8.33165 29.6636 9.44765C30.1008 9.56449 30.4635 9.98147 30.5783 10.4126C31.7361 14.7302 32.857 18.9068 33.9409 22.9423C34.0819 23.4681 33.9711 23.9757 33.6024 24.3464C30.3359 27.6286 27.25 30.714 24.3447 33.6027C23.974 33.9713 23.4583 34.0781 22.9647 33.9452C18.8224 32.8332 14.6317 31.7098 10.3927 30.575C9.7581 30.4038 9.51835 29.9526 9.34508 29.32ZM13.0985 9.85457C13.0921 9.86182 13.0883 9.87114 13.0877 9.88094C13.0871 9.89073 13.0897 9.90038 13.0952 9.90824C13.1007 9.9161 13.1086 9.92168 13.1177 9.92401C13.1268 9.92635 13.1364 9.9253 13.1449 9.92104C13.1717 9.90896 13.1919 9.89015 13.2053 9.86464C13.2201 9.83644 13.2402 9.81361 13.2657 9.79615C15.3409 8.44379 17.637 7.77769 20.1541 7.79783C20.322 7.79917 20.4912 7.79984 20.6618 7.79984C20.9237 7.7985 20.9278 7.76359 20.6739 7.69509C19.4772 7.37279 18.2562 7.04645 17.0111 6.71608C16.6122 6.60999 16.2758 6.68721 16.0017 6.94774C14.9474 7.94824 13.9796 8.91718 13.0985 9.85457ZM28.9826 13.1038C29.1559 13.2032 29.3325 13.2919 29.5125 13.3697C29.5958 13.406 29.6106 13.3879 29.5568 13.3154C27.4454 10.4468 24.6248 8.8178 21.095 8.42835C20.9163 8.4082 20.9056 8.44312 21.0627 8.5331C23.6497 10.0157 26.2896 11.5393 28.9826 13.1038ZM18.915 8.52705C18.9339 8.51631 18.9345 8.50557 18.9171 8.49482C18.858 8.45722 18.7928 8.44379 18.7216 8.45454C15.2617 8.9568 12.5431 10.5482 10.566 13.2287C10.4478 13.3872 10.4747 13.4168 10.6466 13.3174L18.915 8.52705ZM14.7043 11.5809C14.4625 11.7206 14.4766 11.7548 14.7466 11.6837L21.784 9.80018C21.9882 9.74646 21.9983 9.66789 21.8142 9.56449L20.2931 8.70634C20.0876 8.59085 19.8828 8.59152 19.6786 8.70835L14.7043 11.5809ZM31.0598 14.7234C31.0746 14.7181 31.08 14.7073 31.076 14.6912C30.6878 13.3241 30.3124 11.9543 29.9497 10.5818C29.9153 10.452 29.8473 10.3335 29.7525 10.2383C29.6577 10.1432 29.5395 10.0748 29.4098 10.0399L25.475 8.98232C25.1795 8.90308 25.1681 8.93263 25.4408 9.07095C27.9202 10.328 29.7785 12.2068 31.0155 14.7073C31.0249 14.7261 31.0397 14.7315 31.0598 14.7234ZM24.6087 12.1047C24.7752 12.2 24.7907 12.1806 24.655 12.0463L22.9223 10.336C22.8387 10.2536 22.7351 10.1942 22.6214 10.1635C22.5078 10.1328 22.388 10.1319 22.2736 10.1608L20.2911 10.6664C19.8667 10.7738 19.8734 10.8336 20.3113 10.8457C21.7834 10.8833 23.2158 11.3029 24.6087 12.1047ZM29.5851 14.0547L24.5724 11.1599C24.3118 11.0095 24.2883 11.0411 24.5019 11.2546L29.7704 16.5143C29.9249 16.6687 29.9981 16.6372 29.99 16.4196C29.9591 15.5843 29.9363 14.9826 29.9215 14.6147C29.9173 14.5 29.8842 14.3885 29.8253 14.2905C29.7664 14.1926 29.6838 14.1114 29.5851 14.0547ZM19.1004 11.3452C19.0628 11.3358 19.0044 11.3372 18.9251 11.3493C16.5209 11.7159 14.5807 12.8507 13.1046 14.7537C12.9541 14.9471 12.9844 14.982 13.1952 14.8584C15.1737 13.6994 17.1475 12.5646 19.1165 11.454C19.2052 11.4043 19.1998 11.3681 19.1004 11.3452ZM20.8714 11.4339L26.9498 14.9309C27.0908 15.0115 27.1123 14.9873 27.0143 14.8584C25.5072 12.8386 23.4704 11.6649 20.9036 11.3372C20.7343 11.3157 20.7236 11.3479 20.8714 11.4339ZM27.3668 16.0066C27.3671 15.894 27.3375 15.7833 27.2813 15.6857C27.2251 15.588 27.1441 15.507 27.0465 15.4507L20.3233 11.5668C20.2259 11.5106 20.1155 11.481 20.003 11.481C19.8905 11.481 19.7801 11.5106 19.6827 11.5668L12.9575 15.4466C12.8599 15.503 12.7789 15.584 12.7227 15.6816C12.6664 15.7792 12.6369 15.89 12.6372 16.0026L12.6351 23.7642C12.6349 23.8769 12.6644 23.9876 12.7207 24.0852C12.7769 24.1828 12.8579 24.2639 12.9555 24.3202L19.6806 28.204C19.778 28.2603 19.8885 28.2899 20.001 28.2899C20.1135 28.2899 20.2239 28.2603 20.3213 28.204L27.0445 24.3242C27.1421 24.2679 27.223 24.1868 27.2793 24.0892C27.3355 23.9916 27.365 23.8809 27.3648 23.7682L27.3668 16.0066ZM12.073 15.5111C12.8655 14.1077 13.9071 13.0139 15.1979 12.2296C15.5162 12.0375 15.4954 11.9878 15.1354 12.0805L13.1751 12.5821C13.0511 12.6139 12.9379 12.6783 12.8472 12.7687C12.7565 12.859 12.6916 12.9719 12.6593 13.0958C12.4646 13.8438 12.2765 14.5462 12.0952 15.2029C12.063 15.3211 12.0489 15.448 12.0529 15.5836C12.0529 15.589 12.0536 15.589 12.0549 15.5836C12.0549 15.5581 12.0609 15.5339 12.073 15.5111ZM7.83807 20.8937C7.63928 18.0654 8.28131 15.55 9.76415 13.3476C10.0234 12.9635 9.98845 12.9346 9.65938 13.261C8.86289 14.0506 8.04223 14.8624 7.19738 15.6964C6.75213 16.1356 6.57685 16.5304 6.74004 17.1347C7.07448 18.3864 7.40356 19.636 7.72726 20.8836C7.73397 20.9091 7.75009 20.9198 7.77561 20.9158L7.82598 20.9078C7.83404 20.9064 7.83807 20.9017 7.83807 20.8937ZM10.1731 20.5069C10.8232 18.1325 11.4787 15.7266 12.1395 13.2892C12.1973 13.0716 12.1301 13.0219 11.938 13.1401C11.1013 13.6518 10.5855 13.9674 10.3907 14.0869C10.289 14.1491 10.2049 14.2363 10.1464 14.3403C10.0878 14.4443 10.0568 14.5617 10.0563 14.6811L10.0341 20.4888C10.0328 20.846 10.0791 20.852 10.1731 20.5069ZM9.09123 15.9966C8.02745 19.029 8.13289 21.9969 9.40754 24.9004C9.47873 25.0642 9.51432 25.0568 9.51432 24.8782L9.51835 15.2029C9.51835 15.0726 9.48947 15.0659 9.43172 15.1827C9.30277 15.446 9.18928 15.7172 9.09123 15.9966ZM30.6146 24.8379C31.9792 21.682 31.9967 18.5092 30.667 15.3197C30.5541 15.0511 30.4977 15.0625 30.4977 15.354L30.4675 24.8057C30.4662 25.0555 30.5152 25.0662 30.6146 24.8379ZM27.7617 15.2512C28.5058 16.4679 28.9222 17.7699 29.0109 19.1572C29.0337 19.505 29.0572 19.8468 29.0814 20.1826C29.0811 20.1852 29.0819 20.1879 29.0836 20.19C29.0853 20.1921 29.0878 20.1934 29.0904 20.1936C29.0931 20.1939 29.0958 20.1931 29.0979 20.1914C29.0999 20.1897 29.1013 20.1872 29.1015 20.1846L29.7422 17.6464C29.7735 17.5225 29.772 17.3926 29.7377 17.2696C29.7034 17.1467 29.6376 17.0349 29.5468 16.9454L27.796 15.223C27.7922 15.2185 27.7868 15.2156 27.781 15.215C27.7751 15.2145 27.7693 15.2163 27.7647 15.22C27.7602 15.2237 27.7573 15.2291 27.7568 15.235C27.7562 15.2408 27.758 15.2467 27.7617 15.2512ZM27.7557 16.5344C27.7799 18.9168 27.7758 21.2133 27.7436 23.4238C27.7436 23.4547 27.7584 23.4741 27.7879 23.4822C27.8309 23.4943 27.8604 23.4795 27.8766 23.4379C28.8423 20.9843 28.8631 18.6704 27.939 16.4961C27.8141 16.202 27.753 16.2148 27.7557 16.5344ZM12.0468 23.2928C12.1717 23.6125 12.2342 23.601 12.2342 23.2586L12.2382 16.5163C12.2382 16.2625 12.1899 16.2531 12.0932 16.4881C11.1664 18.7402 11.151 21.0085 12.0468 23.2928ZM29.8752 18.984C29.2331 21.5074 28.5542 24.057 27.8383 26.6328C27.7671 26.8866 27.8457 26.9477 28.074 26.8161L29.4259 26.0365C29.7845 25.8297 29.9638 25.5195 29.9638 25.1058C29.9652 23.3613 29.9625 21.541 29.9558 19.6447C29.9558 19.313 29.9343 19.0672 29.8913 18.9074C29.8912 18.9069 29.8909 18.9064 29.8906 18.906C29.8903 18.9055 29.8899 18.9052 29.8894 18.9049C29.8889 18.9046 29.8884 18.9044 29.8879 18.9043C29.8873 18.9042 29.8868 18.9043 29.8863 18.9044C29.8857 18.9045 29.8852 18.9048 29.8848 18.9051C29.8844 18.9054 29.884 18.9058 29.8837 18.9063C29.8834 18.9068 29.8832 18.9073 29.8832 18.9078C29.8831 18.9084 29.8831 18.9089 29.8832 18.9094C29.8832 18.9403 29.8805 18.9652 29.8752 18.984ZM32.1881 19.4956C32.3063 22.2192 31.5924 24.6949 30.0464 26.9228C30.0357 26.939 30.0377 26.9531 30.0525 26.9652L30.0545 26.9672C30.076 26.986 30.0968 26.9846 30.1169 26.9631C31.0424 26.0258 31.9658 25.0951 32.8872 24.1711C33.2216 23.8388 33.409 23.4318 33.2841 22.9766C32.994 21.9197 32.7052 20.8393 32.4178 19.7354C32.3748 19.5688 32.3452 19.3848 32.3291 19.1834C32.3211 19.0666 32.2935 19.0619 32.2465 19.1693C32.2035 19.2714 32.1841 19.3801 32.1881 19.4956ZM12.2826 24.5982C11.3746 23.0901 10.9287 21.504 10.9448 19.8401C10.9475 19.5742 10.9152 19.5702 10.8481 19.828L10.2457 22.1869C10.2126 22.3156 10.214 22.4508 10.2498 22.5788C10.2855 22.7068 10.3542 22.8231 10.4492 22.9161L12.2181 24.6486C12.3685 24.7949 12.39 24.7782 12.2826 24.5982ZM14.9299 28.5485C15.2147 28.7123 15.4833 28.8789 15.7358 29.0481C16.1696 29.3408 16.2012 29.3019 15.8305 28.9312L10.2578 23.3714C10.114 23.2277 10.0422 23.2579 10.0422 23.4621L10.0482 25.3556C10.0489 25.4722 10.0802 25.5866 10.1388 25.6873C10.1975 25.788 10.2816 25.8716 10.3827 25.9297C11.9233 26.8201 13.439 27.693 14.9299 28.5485ZM27.9148 24.298C26.98 25.8505 25.8403 26.994 24.4958 27.7286C24.1265 27.9314 24.1446 27.9764 24.5502 27.8636C25.2796 27.6608 26.0284 27.4654 26.7967 27.2774C27.3628 27.1404 27.3265 26.667 27.4555 26.2259C27.6395 25.5987 27.8161 24.9662 27.9854 24.3283C28.0324 24.151 28.0089 24.1409 27.9148 24.298ZM19.1729 28.3571L13.0099 24.8097C12.8527 24.7197 12.8279 24.7473 12.9353 24.8923C14.5323 27.0316 16.5968 28.2322 19.1286 28.4941C19.3569 28.5169 19.3717 28.4713 19.1729 28.3571ZM26.976 24.8178L20.8754 28.333C20.6309 28.4726 20.6484 28.525 20.9278 28.4901C23.4059 28.1772 25.424 27.0028 26.982 24.9668C27.0116 24.9279 27.0243 24.8856 27.0203 24.8399C27.0196 24.8351 27.0177 24.8305 27.0149 24.8266C27.012 24.8227 27.0083 24.8195 27.0039 24.8173C26.9996 24.8151 26.9948 24.814 26.9899 24.8141C26.985 24.8142 26.9803 24.8154 26.976 24.8178ZM8.93609 25.3395L10.0563 29.459C10.0882 29.5757 10.1497 29.682 10.2349 29.7674C10.32 29.8529 10.4258 29.9146 10.5418 29.9465L14.7627 31.0887C14.7662 31.0901 14.7695 31.09 14.7718 31.0883C14.774 31.0867 14.7752 31.0837 14.7749 31.0799C14.7746 31.0762 14.773 31.072 14.7703 31.0684C14.7677 31.0647 14.7642 31.0619 14.7607 31.0605C12.2006 29.7699 10.2732 27.8575 8.9784 25.3234C8.91125 25.1918 8.89714 25.1972 8.93609 25.3395ZM19.0259 31.5238L10.5277 26.6328C10.3598 26.5361 10.333 26.5656 10.4471 26.7214C12.5707 29.6302 15.4168 31.272 18.9856 31.6467C19.1911 31.6682 19.2045 31.6272 19.0259 31.5238ZM29.4138 26.661L21.0124 31.5017C20.8217 31.6118 20.8358 31.6541 21.0547 31.6286C24.5952 31.2351 27.4091 29.6101 29.4964 26.7536C29.6159 26.5898 29.5884 26.5589 29.4138 26.661ZM20.3616 28.9192C18.5161 29.0098 16.9144 28.5485 15.3429 27.6521C15.1119 27.5205 15.0924 27.5466 15.2845 27.7306C15.8594 28.2853 16.4302 28.85 16.997 29.4248C17.2361 29.6665 17.4799 29.7518 17.7284 29.6806C18.6041 29.4281 19.4973 29.2112 20.408 29.0299C20.416 29.0273 20.4194 29.0219 20.418 29.0138L20.412 28.9615C20.408 28.9319 20.3912 28.9178 20.3616 28.9192ZM18.0024 30.1177C17.9527 30.1312 17.911 30.1574 17.8775 30.1963C17.8717 30.2029 17.8674 30.2107 17.865 30.2191C17.8625 30.2275 17.862 30.2362 17.8633 30.2448C17.8647 30.2533 17.8679 30.2613 17.8728 30.2683C17.8777 30.2752 17.8841 30.2809 17.8916 30.2849L19.6565 31.2781C19.7649 31.3394 19.8876 31.3712 20.0123 31.3705C20.1371 31.3698 20.2596 31.3366 20.3677 31.274L25.8316 28.1174C26.0398 27.9979 26.0277 27.9683 25.7953 28.0288C23.1346 28.7285 20.5369 29.4248 18.0024 30.1177ZM26.837 30.0734C24.5872 31.6286 22.1433 32.3316 19.5054 32.1825C19.0057 32.1543 18.9977 32.2054 19.4812 32.3356L23.007 33.2824C23.1944 33.3326 23.3917 33.3325 23.5792 33.2823C23.7666 33.2321 23.9375 33.1335 24.0748 32.9964L26.8893 30.1701C26.9055 30.1553 26.9068 30.1392 26.8934 30.1218L26.8551 30.0754C26.8497 30.0687 26.8437 30.0681 26.837 30.0734Z" fill="#FEFFFE"/>
<circle cx="20" cy="20" r="19.5" stroke="black" stroke-opacity="0.05"/>
</svg>
