<svg width="40" height="40" viewBox="0 0 40 40" fill="none" xmlns="http://www.w3.org/2000/svg">
<circle cx="20" cy="20" r="20" fill="#CC0000"/>
<g clip-path="url(#clip0_9_400639)">
<path d="M20.0001 26.8589C19.0993 26.8593 18.2073 26.6823 17.3749 26.338C16.5425 25.9936 15.7861 25.4887 15.1489 24.8521C13.8619 23.5663 13.1384 21.822 13.1376 20.0028C13.1367 18.1836 13.8586 16.4386 15.1443 15.1516C16.4301 13.8646 18.1744 13.1411 19.9936 13.1403C21.8128 13.1403 23.5575 13.863 24.8439 15.1493C26.1303 16.4357 26.8529 18.1804 26.8529 19.9996C26.8529 21.8188 26.1303 23.5635 24.8439 24.8498C23.5575 26.1362 21.8128 26.8589 19.9936 26.8589H20.0001ZM20.0001 9.71387C17.2721 9.71387 14.6559 10.7975 12.727 12.7265C10.798 14.6554 9.71436 17.2716 9.71436 19.9996C9.71436 22.7275 10.798 25.3437 12.727 27.2727C14.6559 29.2016 17.2721 30.2853 20.0001 30.2853C22.728 30.2853 25.3442 29.2016 27.2732 27.2727C29.2021 25.3437 30.2858 22.7275 30.2858 19.9996C30.2858 17.2716 29.2021 14.6554 27.2732 12.7265C25.3442 10.7975 22.728 9.71387 20.0001 9.71387Z" fill="white"/>
<path d="M20 16.477C19.5251 16.4563 19.051 16.5318 18.6061 16.6992C18.1613 16.8665 17.7549 17.1221 17.4114 17.4506C17.0679 17.7791 16.7945 18.1737 16.6075 18.6107C16.4205 19.0477 16.3239 19.518 16.3235 19.9933C16.3231 20.4686 16.4188 20.939 16.605 21.3763C16.7911 21.8137 17.0639 22.2088 17.4067 22.5379C17.7496 22.8671 18.1556 23.1234 18.6001 23.2916C19.0447 23.4597 19.5187 23.5361 19.9935 23.5163C20.901 23.4775 21.7584 23.0897 22.3868 22.4339C23.0151 21.7781 23.366 20.9049 23.366 19.9966C23.366 19.0884 23.0151 18.2152 22.3868 17.5594C21.7584 16.9035 20.901 16.5158 19.9935 16.477H20Z" fill="white"/>
</g>
<circle cx="20" cy="20" r="19.5" stroke="black" stroke-opacity="0.05"/>
<defs>
<clipPath id="clip0_9_400639">
<rect width="22" height="22" fill="white" transform="translate(9 9)"/>
</clipPath>
</defs>
</svg>
