<svg width="40" height="40" viewBox="0 0 40 40" fill="none" xmlns="http://www.w3.org/2000/svg">
<circle cx="20" cy="20" r="20" fill="#406745"/>
<g clip-path="url(#clip0_9_405745)">
<path d="M11.4268 11.4287H28.5719V28.5716H11.4268V11.4287Z" stroke="#F6F8FD" stroke-width="2"/>
<path d="M11.651 18.9162L14.8572 14.2854L18.2858 18.8591H18.8601L16.5715 15.4282L19.4424 11.6934L24.5715 18.8591C21.4572 19.3442 15.123 20.9545 15.0104 24.0831C14.9635 24.9585 15.4264 26.7202 17.143 27.4282H23.123C22.1727 26.8379 20.2275 25.4762 19.7532 24.0831C19.1601 22.3419 20.0355 20.8574 21.6161 20.0008C23.1972 19.1448 25.4675 19.0305 26.2858 18.8591C24.5715 19.3282 21.2681 20.6962 20.967 21.7425C20.7504 22.4939 20.8698 24.2762 22.5761 25.5391C24.3344 26.8402 25.1452 27.2322 25.475 27.4282H28.2504V25.5391C27.0927 24.9494 24.7498 23.3636 24.6367 21.7425C24.4955 19.7156 28.1658 18.9162 28.391 18.9162L28.2504 25.5391V28.5368H11.6504V18.9162H11.651Z" fill="#F6F8FD"/>
<path d="M27.4286 14.8569C27.4286 15.3115 27.248 15.7476 26.9265 16.069C26.605 16.3905 26.1689 16.5711 25.7143 16.5711C25.2596 16.5711 24.8236 16.3905 24.5021 16.069C24.1806 15.7476 24 15.3115 24 14.8569C24 14.4022 24.1806 13.9662 24.5021 13.6447C24.8236 13.3232 25.2596 13.1426 25.7143 13.1426C26.1689 13.1426 26.605 13.3232 26.9265 13.6447C27.248 13.9662 27.4286 14.4022 27.4286 14.8569Z" fill="#F6F8FD"/>
</g>
<circle cx="20" cy="20" r="19.5" stroke="black" stroke-opacity="0.05"/>
<defs>
<clipPath id="clip0_9_405745">
<rect width="20" height="20" fill="white" transform="translate(10 10)"/>
</clipPath>
</defs>
</svg>
