<svg width="40" height="40" viewBox="0 0 40 40" fill="none" xmlns="http://www.w3.org/2000/svg">
<circle cx="20" cy="20" r="20" fill="#C31230"/>
<g clip-path="url(#clip0_9_400058)">
<path d="M26.7149 16.4414L28.4801 13.1426H31.4286L28.6041 18.7912L31.4286 23.9997H28.3269L26.7035 20.9231L23.5892 26.8569H20.2858L24.7486 18.8037L21.6212 13.1426H24.9618L26.7149 16.4414Z" fill="white"/>
<path d="M18.2857 13.1426H21.1429V21.6226C21.1429 25.5014 19.3663 26.8569 16.5086 26.8569C15.8332 26.8569 15.4366 26.8357 14.8572 26.6329L14.8583 24.2271C15.7817 24.2477 16.0772 24.2123 16.2457 24.1991C17.1823 24.126 18.2857 23.7043 18.2857 21.582V13.1426Z" fill="white"/>
<path d="M8 13.1426V15.9997H11.4286V26.8569H14.2857V15.9997H17.7143V13.1426H8Z" fill="white"/>
</g>
<circle cx="20" cy="20" r="19.5" stroke="black" stroke-opacity="0.05"/>
<defs>
<clipPath id="clip0_9_400058">
<rect width="24" height="14" fill="white" transform="translate(8 13)"/>
</clipPath>
</defs>
</svg>
