<svg width="40" height="40" viewBox="0 0 40 40" fill="none" xmlns="http://www.w3.org/2000/svg">
<circle cx="20" cy="20" r="20" fill="black"/>
<g clip-path="url(#clip0_9_410097)">
<path d="M6.98442 20.6518L7.18128 21.0665C6.8839 21.3932 6.41898 21.6613 5.91008 21.6613C4.94463 21.6613 4.60118 21.1838 4.60118 20.4654V18.1848H4.0127V17.611H4.64725L4.93835 16.4131H5.77395V17.611H6.98861V18.1848H5.77395V20.2246C5.77395 20.6749 5.92683 20.901 6.28914 20.901C6.55929 20.901 6.76243 20.8424 6.98442 20.6518Z" fill="white"/>
<path fill-rule="evenodd" clip-rule="evenodd" d="M27.9687 20.6518L28.1655 21.0665C27.8682 21.3932 27.4032 21.6613 26.8943 21.6613C25.9289 21.6613 25.5854 21.1838 25.5854 20.4654V18.1848H24.997V17.611H25.6315L25.9205 16.4131H26.7561V17.611H27.9708V18.1848H26.7561V20.2246C26.7561 20.6749 26.9111 20.901 27.2734 20.901C27.5436 20.901 27.7467 20.8424 27.9687 20.6518ZM35.9875 18.1031C35.9875 19.1628 35.2755 20.4131 33.5813 21.7702C33.2462 22.9618 32.8085 23.4707 32.3289 23.4707C32.0231 23.4707 31.8556 23.2298 31.8556 22.9325C31.8556 22.4759 32.2933 22.034 33.1582 21.4455L32.5844 18.7C32.4734 18.1827 32.4022 18.1178 32.0608 18.0529V17.6089H33.575L34.1425 20.6455C35.0221 19.6927 35.3635 18.7859 35.3278 18.1702C35.3041 18.1911 35.279 18.2092 35.2525 18.2246C35.2259 18.2414 35.198 18.2553 35.1687 18.2665C35.1394 18.2777 35.1094 18.286 35.0786 18.2916C35.0479 18.2972 35.0165 18.3 34.9844 18.3C34.7017 18.3 34.4839 18.0675 34.4839 17.7764C34.4839 17.4141 34.8043 17.123 35.1959 17.123C35.6881 17.123 35.9875 17.5021 35.9875 18.1031ZM11.5121 21.1398V21.5817H10.1823L9.97078 21.1105C9.72366 21.4435 9.28806 21.655 8.79382 21.655C7.98544 21.655 7.50586 21.1754 7.50586 20.522C7.50586 19.6927 8.20324 19.1921 9.86188 19.301V18.8738C9.86188 18.3733 9.62104 18.0759 9.07654 18.0759C9.04164 18.0745 9.00603 18.0752 8.96973 18.078C8.93483 18.0808 8.89923 18.085 8.86293 18.0906C8.82802 18.0962 8.79312 18.1031 8.75822 18.1115C8.72331 18.1199 8.68911 18.1297 8.6556 18.1408C8.74984 18.2204 8.80848 18.344 8.80848 18.5115C8.80848 18.8236 8.56764 19.033 8.27026 19.033C7.95612 19.033 7.7467 18.8005 7.7467 18.4969C7.7467 17.8707 8.4734 17.5377 9.39696 17.5377C10.465 17.5377 11.0263 18.1115 11.0263 18.9325V20.5597C11.0263 20.9806 11.1498 21.0895 11.5121 21.1398ZM9.86397 19.7618C8.95507 19.7031 8.70586 19.9586 8.70586 20.4089C8.70586 20.7335 8.90272 20.9513 9.2734 20.9513C9.60219 20.9513 9.86397 20.7272 9.86397 20.4571V19.7618ZM16.3059 19.4853C16.3059 20.7859 15.4556 21.6361 14.3142 21.6361C13.9205 21.6361 13.6231 21.5482 13.3907 21.4183V22.8131L14.0294 22.9429V23.3639H11.6797V22.9429L12.2116 22.8194V18.6455C12.2116 18.2225 12.0881 18.1073 11.7237 18.0571V17.6131H13.3111L13.2818 18.2665C13.5561 17.7869 14.0231 17.5544 14.5907 17.5544C15.5938 17.5544 16.308 18.2581 16.3059 19.4853ZM15.0703 19.5293C15.0703 18.744 14.7582 18.2791 14.2409 18.2791C13.7027 18.2791 13.3907 18.7021 13.3907 19.3995V20.7921C13.4367 20.8298 13.4856 20.8633 13.5373 20.8927C13.5903 20.9206 13.6448 20.9443 13.7006 20.9639C13.7579 20.9834 13.8158 20.9974 13.8744 21.0058C13.9331 21.0155 13.9924 21.0197 14.0525 21.0183C14.6703 21.0183 15.0703 20.4948 15.0703 19.5293ZM31.7676 18.1555C31.7676 18.4759 31.5352 18.744 31.2001 18.744C31.1415 18.7461 31.0828 18.7356 31.0284 18.7168C30.9718 18.6979 30.9216 18.6707 30.8755 18.6351C30.8294 18.5995 30.7896 18.5555 30.7582 18.5052C30.7268 18.4571 30.7038 18.4026 30.6912 18.3461C30.4001 18.5052 30.2116 18.8613 30.2116 19.3471V21.033L30.8504 21.1628V21.5859H28.5006V21.1628L29.0326 21.0393V18.6435C29.0326 18.2225 28.909 18.1052 28.5446 18.055V17.611H30.109L30.0797 18.4173C30.2933 17.8581 30.6996 17.5398 31.1268 17.5398C31.5498 17.5398 31.7676 17.8372 31.7676 18.1555ZM24.6137 20.2916C24.6137 21.1565 23.9373 21.6571 22.8022 21.6571C22.1111 21.6571 21.6043 21.4623 21.3488 21.3094V20.3147H21.7488C21.9247 20.8445 22.2074 21.1063 22.8315 21.1063C23.2902 21.1063 23.5666 20.9094 23.5666 20.589C23.5666 20.2351 23.2336 20.2058 22.6221 20.0822C21.9959 19.9586 21.2922 19.7974 21.2922 18.855C21.2922 18.0257 21.9017 17.5398 22.9718 17.5398C23.4284 17.5398 23.931 17.634 24.2786 17.7722V18.7377H23.8724C23.7404 18.3021 23.443 18.0927 22.9404 18.0927C22.5488 18.0927 22.3373 18.2958 22.3373 18.5555C22.3373 18.9115 22.6703 18.9408 23.2818 19.0644C23.908 19.188 24.6137 19.3471 24.6137 20.2916ZM20.6053 19.634H18.0231C18.0964 20.4738 18.5404 20.9387 19.2671 20.9387C19.6231 20.9387 19.9792 20.7859 20.2912 20.4822L20.576 20.7503C20.2347 21.2717 19.6881 21.6571 18.8441 21.6571C17.5645 21.6571 16.7854 20.8152 16.7854 19.6382C16.7854 18.4026 17.5645 17.5398 18.8441 17.5398C20.3142 17.5398 20.7792 18.7021 20.6053 19.634ZM19.4682 19.123C19.4619 18.434 19.2001 18.1073 18.7917 18.1073C18.4064 18.1073 18.0734 18.4026 18.0148 19.123H19.4682Z" fill="white"/>
</g>
<circle cx="20" cy="20" r="19.5" stroke="black" stroke-opacity="0.05"/>
<defs>
<clipPath id="clip0_9_410097">
<rect width="32" height="7.07853" fill="white" transform="translate(4 16.4004)"/>
</clipPath>
</defs>
</svg>
