<svg width="40" height="40" viewBox="0 0 40 40" fill="none" xmlns="http://www.w3.org/2000/svg">
<circle cx="20" cy="20" r="20" fill="#34E0A1"/>
<path d="M32.3539 16.098L34.7673 13.4723H29.4153C26.736 11.6421 23.5002 10.5762 20.0008 10.5762C16.5058 10.5762 13.279 11.6444 10.6041 13.4723H5.23877L7.65218 16.098C6.17287 17.4477 5.2455 19.3919 5.2455 21.5505C5.2455 25.6243 8.54833 28.9271 12.6221 28.9271C14.5573 28.9271 16.3204 28.1807 17.6366 26.9606L20.0008 29.5349L22.3651 26.9628C23.6813 28.1829 25.4422 28.9271 27.3774 28.9271C31.4511 28.9271 34.7584 25.6243 34.7584 21.5505C34.7606 19.3896 33.8332 17.4455 32.3539 16.098ZM12.6243 26.5427C9.86669 26.5427 7.63211 24.3081 7.63211 21.5505C7.63211 18.793 9.86674 16.5583 12.6243 16.5583C15.3818 16.5583 17.6164 18.793 17.6164 21.5505C17.6164 24.3081 15.3818 26.5427 12.6243 26.5427ZM20.003 21.4053C20.003 18.1203 17.6142 15.3002 14.4611 14.0957C16.1661 13.3829 18.0365 12.9873 20.0008 12.9873C21.965 12.9873 23.8376 13.3829 25.5427 14.0957C22.3919 15.3025 20.003 18.1204 20.003 21.4053ZM27.3796 26.5427C24.622 26.5427 22.3874 24.3081 22.3874 21.5505C22.3874 18.793 24.622 16.5583 27.3796 16.5583C30.1372 16.5583 32.3718 18.793 32.3718 21.5505C32.3718 24.3081 30.1371 26.5427 27.3796 26.5427ZM27.3796 18.9315C25.9338 18.9315 24.7628 20.1024 24.7628 21.5483C24.7628 22.9941 25.9338 24.165 27.3796 24.165C28.8254 24.165 29.9964 22.9941 29.9964 21.5483C29.9963 20.1047 28.8254 18.9315 27.3796 18.9315ZM15.241 21.5505C15.241 22.9963 14.07 24.1673 12.6243 24.1673C11.1785 24.1673 10.0075 22.9963 10.0075 21.5505C10.0075 20.1047 11.1785 18.9337 12.6243 18.9337C14.07 18.9315 15.241 20.1047 15.241 21.5505Z" fill="black"/>
<circle cx="20" cy="20" r="19.5" stroke="black" stroke-opacity="0.05"/>
</svg>
