<svg width="40" height="40" viewBox="0 0 40 40" fill="none" xmlns="http://www.w3.org/2000/svg">
<circle cx="20" cy="20" r="20" fill="#0063A3"/>
<path d="M14.5116 27.3206C14.8828 27.6198 15.2757 27.8909 15.6872 28.129C16.1002 28.3687 16.5286 28.5755 16.9726 28.7478C17.4165 28.9201 17.8713 29.0564 18.3353 29.1582L13.4721 32V26.3384C13.7923 26.6924 14.1404 27.0198 14.5116 27.3206ZM16.9478 11.2319C16.5085 11.4057 16.0832 11.611 15.6733 11.8491C15.2649 12.0872 14.8751 12.3567 14.5054 12.6543C14.1373 12.952 13.7908 13.2778 13.4721 13.6287V8L18.2998 10.8183C17.8388 10.9217 17.3871 11.0595 16.9478 11.2319ZM29.1244 22.8512C29.2698 22.3922 29.3796 21.9222 29.4539 21.446C29.5281 20.9697 29.5653 20.4888 29.5668 20.0063C29.5684 19.5238 29.5328 19.0428 29.4616 18.565C29.3889 18.0888 29.2822 17.6188 29.1399 17.1582L34 20L29.1244 22.8512ZM17.9703 11.8616C18.4127 11.7457 18.8613 11.6611 19.316 11.6094C19.7692 11.5577 20.2256 11.5373 20.6819 11.5514C21.1382 11.564 21.5929 11.6094 22.0431 11.6862C21.8234 11.6924 21.6053 11.7144 21.3888 11.752C21.1738 11.7896 20.9603 11.8444 20.753 11.9149C20.5442 11.9838 20.3416 12.07 20.1467 12.1702C19.9518 12.2705 19.7631 12.3864 19.5852 12.5149C18.8195 12.3003 17.3701 12.1452 16.674 12.3003C17.0948 12.1232 17.5294 11.976 17.9703 11.8616ZM17.3655 21.9974C17.5635 21.6851 17.7687 21.3786 17.9811 21.0778C18.1925 20.776 18.4111 20.4799 18.637 20.1896C18.8638 19.8992 19.0969 19.6141 19.3361 19.3342C19.5764 19.0554 19.8229 18.7822 20.0755 18.5149C21.4522 19.7211 23.5187 20.2131 25.1785 19.4501C25.2744 19.7029 25.3625 19.9587 25.443 20.2178C25.5234 20.4768 25.5951 20.7379 25.658 21.001C25.7219 21.2642 25.7771 21.5295 25.8235 21.7969C25.8709 22.0642 25.9096 22.3326 25.9395 22.6021C23.5404 24.4303 19.7012 23.9243 17.3655 21.9974ZM15.5851 23.0752C15.4273 23.3791 15.2793 23.6877 15.1411 24.001C15.004 24.3144 14.8777 24.6324 14.7622 24.9551C14.6456 25.2778 14.5405 25.6037 14.4466 25.9326C13.7119 25.1948 13.121 24.3238 12.7049 23.365C12.2873 22.4063 12.0506 21.377 12.0073 20.3305C11.964 19.2841 12.114 18.2376 12.4497 17.2475C12.7853 16.2574 13.302 15.3379 13.9718 14.5405C13.3128 16.9326 14.0305 20.0454 16.0878 22.1822C15.9104 22.4736 15.7429 22.7713 15.5851 23.0752ZM20.7747 17.8225C20.9593 17.6522 21.1475 17.4856 21.3393 17.3227C21.5311 17.1587 21.726 16.999 21.924 16.8433C22.1209 16.6877 22.3215 16.5363 22.5257 16.389C22.7288 16.2418 22.9351 16.0982 23.1444 15.9582C23.3115 16.1535 23.4713 16.354 23.6239 16.5598C23.7776 16.7666 23.9235 16.9781 24.0617 17.1943C24.2009 17.4104 24.3324 17.6313 24.4561 17.8569C24.5799 18.0825 24.6959 18.3123 24.8041 18.5462C23.6518 19.0789 22.0214 18.8721 20.7747 17.8225ZM22.6773 14.1347C22.4762 13.9718 22.2689 13.8172 22.0554 13.671C21.8409 13.5258 21.6208 13.3906 21.3949 13.2653C21.1701 13.1389 20.9397 13.023 20.7035 12.9175C21.6254 12.3253 23.7446 12.2893 25.0625 13.6381C24.9026 13.7039 24.7448 13.7744 24.5891 13.8496C24.4334 13.9248 24.2803 14.0052 24.1297 14.0909C23.9781 14.1755 23.8296 14.2648 23.6842 14.3587C23.5388 14.4527 23.396 14.5509 23.2558 14.6533C23.0702 14.4715 22.8773 14.2987 22.6773 14.1347ZM26.0122 23.7614C26.0163 23.9922 26.0096 24.2235 25.9921 24.4554C25.9746 24.6862 25.9457 24.9154 25.9055 25.1431C25.8663 25.3718 25.8158 25.5979 25.7539 25.8214C25.6931 26.0439 25.6214 26.2632 25.5389 26.4794C24.8258 27.07 24.0199 27.5368 23.1552 27.858C22.2906 28.1807 21.3779 28.3546 20.4576 28.3734C19.5357 28.3922 18.6184 28.2559 17.7414 27.9692C16.8643 27.6825 16.0399 27.2501 15.3036 26.6893C15.4412 26 15.8156 24.6731 16.8396 22.8794C19.2712 24.8172 23.1784 25.4689 26.0122 23.7614ZM25.2543 17.2757C25.1285 17.0543 24.9965 16.8376 24.8583 16.6256C24.7201 16.4125 24.5757 16.2042 24.4252 16.0005C24.2746 15.7969 24.1179 15.5979 23.9549 15.4037C24.0838 15.3013 24.2158 15.2031 24.3509 15.1091C24.486 15.0151 24.6242 14.9264 24.7655 14.8428C24.9068 14.7582 25.0511 14.6794 25.1986 14.6063C25.345 14.5321 25.494 14.4637 25.6456 14.401C26.3355 15.3457 26.518 16.9875 25.61 17.9478C25.4976 17.7201 25.379 17.4961 25.2543 17.2757ZM26.8166 21.7279C26.7753 21.4867 26.7284 21.2465 26.6758 21.0073C26.6222 20.7681 26.5624 20.5311 26.4964 20.2961C26.4304 20.0601 26.3582 19.8261 26.2798 19.5943C26.2014 19.3624 26.1174 19.1326 26.0277 18.905C26.2396 18.7232 26.4268 18.5149 26.5876 18.2846C26.7485 18.0543 26.8815 17.8052 26.9805 17.542C27.0811 17.2804 27.1476 17.0047 27.1801 16.7258C27.2125 16.4454 27.211 16.1634 27.1739 15.8846C28.0231 17.7535 28.0602 20.0909 26.8166 21.7279ZM19.8698 13.6444C20.1059 13.7332 20.3374 13.8334 20.5643 13.9452C20.7912 14.0559 21.0119 14.1775 21.2263 14.3102C21.4419 14.4428 21.6502 14.5859 21.8513 14.7394C22.0534 14.8919 22.2478 15.0543 22.4344 15.2266C22.2282 15.3676 22.025 15.5123 21.825 15.6606C21.6249 15.8089 21.4274 15.9608 21.2325 16.1164C21.0376 16.2721 20.8458 16.4319 20.6571 16.5958C20.4694 16.7587 20.2843 16.9253 20.1018 17.0956C19.333 16.0475 19.0964 14.694 19.8698 13.6444ZM27.5946 22.2214C27.7818 21.93 27.9457 21.6245 28.0834 21.3065C28.2211 20.9885 28.334 20.6595 28.4206 20.3227C28.5057 19.9859 28.5645 19.6428 28.597 19.2966C28.6372 19.8183 28.631 20.3431 28.5768 20.8648C28.5227 21.3849 28.4206 21.8987 28.2737 22.4016C28.1252 22.9029 27.9318 23.3901 27.6952 23.8554C27.4585 24.3206 27.1801 24.7624 26.8645 25.1775C26.8882 25.001 26.9083 24.824 26.9248 24.6465C26.9413 24.4689 26.9537 24.2914 26.962 24.1138C26.9702 23.9352 26.9749 23.7572 26.9759 23.5796C26.9769 23.401 26.9733 23.223 26.9651 23.0454C27.1971 22.7885 27.4074 22.5128 27.5946 22.2214ZM19.3949 17.7896C19.1392 18.059 18.8891 18.3342 18.6447 18.6151C18.4013 18.8961 18.1647 19.1822 17.9347 19.4736C17.7037 19.7661 17.4799 20.0637 17.2634 20.3666C17.0468 20.6695 16.837 20.977 16.6338 21.2893C14.7328 19.1478 13.9748 15.7138 15.6067 13.3687C15.8759 13.2982 16.1481 13.2449 16.4235 13.2089C16.6988 13.1713 16.9757 13.1525 17.2541 13.1509C17.531 13.1493 17.8079 13.165 18.0832 13.1979C18.3585 13.2308 18.6323 13.2809 18.9015 13.3467C18.0445 14.694 18.4281 16.5723 19.3949 17.7896Z" fill="white"/>
<circle cx="20" cy="20" r="19.5" stroke="black" stroke-opacity="0.05"/>
</svg>
