<svg width="40" height="40" viewBox="0 0 40 40" fill="none" xmlns="http://www.w3.org/2000/svg">
<circle cx="20" cy="20" r="20" fill="#005981"/>
<g clip-path="url(#clip0_9_387280)">
<path d="M21.806 28.5317C22.2478 27.7899 22.3817 27.1177 22.4441 26.2705C22.5451 24.8955 22.4878 23.5557 22.272 22.2511C22.2571 22.1618 22.2765 22.1537 22.3302 22.2268C22.8001 22.8713 23.133 23.5941 23.329 24.3953C23.5829 25.4335 23.6993 26.4729 23.809 27.5281C23.8093 27.5323 23.8108 27.5363 23.8135 27.5396C23.8161 27.5429 23.8197 27.5453 23.8238 27.5466C23.8279 27.5478 23.8323 27.5478 23.8365 27.5466C23.8407 27.5453 23.8444 27.5429 23.8472 27.5396C24.7872 26.4244 24.2496 24.8796 23.6932 23.7129C23.6807 23.6866 23.687 23.681 23.712 23.6959C25.6847 24.882 27.1647 26.7068 27.6654 28.959C27.6823 29.0357 27.7037 29.0369 27.7296 28.9626C27.867 28.5695 27.9015 28.1612 27.8332 27.7377C27.6942 26.8731 27.3175 26.138 26.7029 25.5323C26.6617 25.4919 26.6674 25.4836 26.7199 25.5074C28.5605 26.3474 30.255 27.8147 30.2508 29.9632C30.2508 29.9874 30.2387 29.9996 30.2144 29.9996H14.5181C14.4938 29.9996 14.4801 29.9876 14.4769 29.9638C14.4569 29.8184 14.3163 29.7335 14.2387 29.6117C14.0722 29.3507 13.8641 29.0836 13.6144 28.8105C13.408 28.5838 13.2702 28.3549 13.2011 28.1238C13.0096 27.4838 12.9957 26.7899 13.1387 26.122C13.1392 26.1189 13.1406 26.1161 13.1427 26.1138C13.1448 26.1115 13.1475 26.1099 13.1504 26.1091C13.1534 26.1082 13.1566 26.1083 13.1595 26.1092C13.1625 26.1101 13.1651 26.1118 13.1672 26.1141C13.4678 26.4422 13.79 26.74 14.1338 27.0074C14.1734 27.0386 14.1851 27.0303 14.169 26.9826C13.8253 25.9826 13.466 25.0305 13.3611 24.0159C13.3163 23.5844 13.333 23.1874 13.4114 22.825C13.6987 21.4971 13.5957 20.1699 14.2569 18.9371C14.4827 18.5157 14.7548 18.1341 15.0732 17.7923C15.3587 17.485 15.3253 16.919 15.189 16.5553C15.1805 16.5339 15.1653 16.5192 15.1435 16.5111C14.3811 16.2365 13.6253 15.8547 13.3072 15.0771C13.2987 15.0561 13.2837 15.0493 13.2623 15.0565C12.3896 15.359 11.7163 16.185 11.8114 17.1432C11.8502 17.5305 12.106 17.8444 12.5029 17.7693C12.7138 17.7293 12.8575 17.4614 12.8635 17.2717C12.8684 17.1281 12.832 16.8535 13.009 16.7826C13.2732 16.6771 13.4344 16.7965 13.5781 17.0044C13.9223 17.5014 13.7387 18.5056 13.3144 18.9287C12.971 19.2713 12.5555 19.4571 12.0678 19.4862C11.2472 19.5353 10.449 18.9577 10.0235 18.2723C9.84212 17.9802 9.71888 17.6349 9.65383 17.2365C9.33505 15.285 9.93383 13.3771 11.5993 12.2614C11.9375 12.0347 12.2773 11.8864 12.6187 11.8165C12.653 11.8093 12.6569 11.8171 12.6302 11.8402C12.449 11.9959 12.0253 12.2117 12.155 12.4941C12.1581 12.5007 12.1626 12.5066 12.1681 12.5114C12.1736 12.5162 12.1802 12.5197 12.1872 12.5218C12.1943 12.5238 12.2017 12.5244 12.209 12.5234C12.2163 12.5224 12.2233 12.5198 12.2296 12.5159C12.6866 12.2238 13.0938 11.8444 13.5211 11.5747C13.7114 11.4543 13.935 11.4287 14.192 11.4977C14.2235 11.5062 14.2266 11.5208 14.2011 11.5414C14.0177 11.6885 13.835 11.8341 13.6532 11.9784C13.5017 12.0984 13.1872 12.3862 13.3041 12.6002C13.3081 12.6075 13.3136 12.6139 13.3203 12.6189C13.327 12.624 13.3347 12.6275 13.3429 12.6293C13.351 12.631 13.3595 12.6311 13.3677 12.6293C13.3758 12.6275 13.3835 12.624 13.3902 12.619C13.8272 12.2971 14.246 11.9414 14.7235 11.6856C14.9247 11.5777 15.1569 11.5654 15.4199 11.6487C15.453 11.6592 15.4555 11.6745 15.4272 11.6947C15.1023 11.9287 14.8241 12.143 14.5926 12.3377C14.4666 12.4436 14.3524 12.5743 14.2502 12.7299C14.2451 12.7373 14.2427 12.7462 14.2434 12.7552C14.2441 12.7642 14.2477 12.7728 14.2538 12.7796C14.3274 12.8612 14.4104 12.8711 14.5029 12.8093C14.8702 12.5644 15.2627 12.3056 15.6805 12.0329C15.7435 11.9917 15.8096 11.9557 15.8787 11.925C16.1029 11.8268 16.2575 11.8965 16.4508 11.9947C16.4734 12.006 16.4763 12.0208 16.4593 12.039C16.372 12.1339 16.2658 12.221 16.1405 12.3002C15.8932 12.4565 15.2047 12.8656 15.1757 13.1693C15.1712 13.2182 15.1773 13.2529 15.1938 13.2735C15.2155 13.3012 15.2482 13.3186 15.2851 13.3222C15.322 13.3259 15.3603 13.3153 15.392 13.2929C15.9053 12.9287 16.3763 12.5644 16.9817 12.3159C17.0031 12.307 17.0235 12.3089 17.0429 12.3214L17.415 12.5614C17.4191 12.5638 17.4224 12.5673 17.4246 12.5715C17.4268 12.5756 17.428 12.5803 17.4278 12.5851C17.4277 12.5898 17.4264 12.5945 17.4239 12.5986C17.4215 12.6028 17.418 12.6062 17.4138 12.6087C17.0744 12.8038 16.0193 13.4214 16.0326 13.8371C16.0329 13.8484 16.0359 13.8594 16.0412 13.8693C16.0465 13.8792 16.054 13.8878 16.0632 13.8943C16.0723 13.9008 16.0829 13.9051 16.094 13.9069C16.1051 13.9086 16.1164 13.9078 16.1272 13.9044C16.5381 13.7771 16.8969 13.4371 17.2429 13.1917C17.372 13.0996 17.695 12.9171 17.8532 12.9977C17.9005 13.0212 17.9482 13.0428 17.9963 13.0626C18.1926 13.142 18.2841 13.0365 18.4284 12.9353C18.4449 12.9232 18.4635 12.9175 18.4841 12.9184C18.6526 12.9248 18.8021 12.9664 18.9326 13.0432C19.367 13.2986 19.791 13.5418 20.2047 13.7729C20.2916 13.8214 20.3862 13.8656 20.4884 13.9056C20.4931 13.9075 20.4981 13.9084 20.5031 13.9083C20.5082 13.9082 20.5132 13.9071 20.5178 13.9051C20.5224 13.9031 20.5266 13.9001 20.5301 13.8965C20.5335 13.8928 20.5363 13.8885 20.5381 13.8838C20.6399 13.619 20.2187 13.3608 20.0296 13.2614C19.647 13.059 19.2932 12.8614 18.9684 12.6687C18.9098 12.6339 18.8514 12.5945 18.7932 12.5505C18.7906 12.5484 18.7884 12.5459 18.7868 12.5429C18.7852 12.5399 18.7843 12.5367 18.7842 12.5333C18.784 12.53 18.7845 12.5266 18.7858 12.5235C18.787 12.5204 18.789 12.5176 18.7914 12.5153C18.8791 12.4321 18.9795 12.3622 19.0926 12.3056C19.194 12.2547 19.2967 12.259 19.4005 12.3184C19.9051 12.6068 20.4348 12.8925 20.9896 13.1753C21.0934 13.2287 21.1344 13.1986 21.1126 13.085C21.1118 13.0798 21.111 13.0745 21.1102 13.0693C21.1026 13.0135 21.0808 12.9589 21.0464 12.9096C21.012 12.8603 20.9659 12.8175 20.9114 12.7844C20.4868 12.5266 20.0458 12.2745 19.5884 12.0281C19.5857 12.0267 19.5835 12.0247 19.5819 12.0221C19.5804 12.0195 19.5796 12.0166 19.5797 12.0136C19.5797 12.0106 19.5806 12.0077 19.5823 12.0052C19.5839 12.0028 19.5863 12.0008 19.589 11.9996C19.7583 11.9175 19.9209 11.8816 20.0769 11.8917C20.2684 11.9044 20.5508 12.0681 20.7254 12.179C20.9888 12.3462 21.2536 12.5109 21.5199 12.6729C21.5401 12.685 21.5609 12.686 21.5823 12.6759C21.6163 12.659 21.6456 12.6343 21.6702 12.602C21.6843 12.5834 21.686 12.564 21.675 12.5438C21.4502 12.1171 21.0247 11.9941 20.6181 11.8062C20.5732 11.7856 20.5755 11.7725 20.6247 11.7668C21.1169 11.7093 21.7666 11.8432 22.0963 12.2565C22.6169 12.9099 22.7399 13.762 22.7235 14.5923C22.7084 15.3899 22.6423 16.1693 22.6957 16.9481C22.7082 17.1299 22.751 17.26 22.8241 17.3384C22.9975 17.5232 23.2557 17.5147 23.4563 17.3881C23.6635 17.2567 23.7649 17.0642 23.7605 16.8105C23.7581 16.6565 23.8326 16.4135 24.032 16.4329C24.3726 16.4662 24.4975 16.7935 24.5169 17.0856C24.5544 17.6638 24.3217 18.2765 23.8229 18.6002C23.37 18.8935 22.8882 18.984 22.3775 18.8717C21.2502 18.6238 21.0041 17.4208 20.9193 16.4571C20.9181 16.4446 20.9129 16.4329 20.9047 16.4235C20.8964 16.4141 20.8854 16.4077 20.8732 16.405C20.632 16.3499 20.4381 16.4699 20.252 16.6038C20.235 16.6155 20.2308 16.6309 20.2393 16.6499C21.3223 19.1481 21.8672 21.9856 21.5787 24.6984C21.4053 26.3281 20.8969 27.9032 19.9472 29.225C19.9003 29.2901 19.9144 29.3089 19.9896 29.2814C20.2526 29.1844 20.4946 29.0222 20.7157 28.7947C20.9884 28.5135 21.2571 28.2404 21.5217 27.9753C21.5383 27.9592 21.5536 27.9602 21.5678 27.9784C21.6906 28.1335 21.7603 28.3157 21.7769 28.525C21.7793 28.5577 21.789 28.56 21.806 28.5317ZM18.1011 18.6432C18.6041 18.4741 19.0635 18.5408 19.5684 18.6311C19.6948 18.6537 19.8201 18.6462 19.9441 18.6087C19.9643 18.6022 19.9787 18.5895 19.9872 18.5705C19.9952 18.5531 19.9948 18.5361 19.986 18.5196C19.9775 18.5038 19.9647 18.4941 19.9478 18.4905C19.6298 18.4246 19.4825 18.2133 19.506 17.8565C19.5116 17.7773 19.5538 17.741 19.6326 17.7474C19.8047 17.7608 20.0011 17.7723 20.032 17.5559C20.0732 17.2687 19.695 17.1656 19.4829 17.1681C19.2312 17.1705 18.9787 17.1729 18.7254 17.1753C18.2678 17.179 18.3187 17.9171 18.7393 17.7244C18.9494 17.6283 19.1011 17.6931 19.1944 17.919C19.2878 18.1448 19.2173 18.2806 18.9829 18.3262C18.7397 18.3731 18.4043 18.3711 17.9769 18.3202C17.4587 18.2584 17.6029 17.6365 17.8423 17.3626C17.9829 17.2018 18.1328 17.0321 18.292 16.8535C18.5054 16.6141 18.4884 16.3159 18.3678 16.0444C18.2587 15.7984 18.1688 15.5194 18.0981 15.2074C18.05 14.9973 18.1094 14.8483 18.2763 14.7602C19.0169 14.3699 19.2775 15.3196 19.4732 15.7838C19.5914 16.065 19.7617 16.0984 20.0526 16.1087C20.1896 16.1135 20.3019 16.0836 20.3896 16.019C20.5575 15.8953 20.6472 15.5765 20.4526 15.4329C20.4357 15.4204 20.4167 15.4151 20.3957 15.4171C20.3532 15.4216 20.3108 15.4278 20.2684 15.4359C19.7169 15.5408 19.5647 14.9602 19.3757 14.5874C19.2577 14.3535 19.0593 14.2307 18.7805 14.219C18.7538 14.2182 18.7367 14.2048 18.729 14.179C18.6557 13.9402 18.6453 13.5874 18.3557 13.5074C18.0829 13.4323 18.1411 13.8159 18.1817 13.9426C18.3781 14.5523 17.5496 14.3268 17.3775 14.7244C17.2344 15.0547 17.089 15.2977 16.6775 15.2032C16.3926 15.1371 15.8599 15.0474 15.7175 15.4099C15.6211 15.6547 15.8114 15.9384 16.035 16.0256C16.3569 16.1517 16.7544 16.1038 17.1138 16.0341C17.1243 16.0321 17.1352 16.0328 17.1453 16.0363C17.1554 16.0399 17.1644 16.046 17.1714 16.0541C17.3415 16.2493 17.4734 16.4646 17.5672 16.7002C17.6866 17.0014 17.5029 17.2723 17.3041 17.4777C16.9653 17.8293 16.9478 18.3905 17.106 18.8359C17.3763 19.5965 18.2357 20.0481 18.8999 19.3856C18.9024 19.3832 18.9042 19.3802 18.9051 19.3769C18.9061 19.3736 18.9062 19.3701 18.9054 19.3667C18.9046 19.3634 18.9029 19.3603 18.9006 19.3578C18.8983 19.3552 18.8953 19.3533 18.892 19.3523C18.5484 19.2462 18.2023 19.0535 18.0732 18.7002C18.0627 18.6719 18.072 18.6529 18.1011 18.6432ZM14.3466 15.1977C14.512 15.2511 14.7169 15.5571 14.8453 15.5638C14.8577 15.5644 14.8701 15.5623 14.8815 15.5577C14.893 15.553 14.9033 15.5459 14.9118 15.5368C14.9202 15.5278 14.9265 15.517 14.9304 15.5052C14.9342 15.4934 14.9354 15.4809 14.9338 15.4687C14.9104 15.2771 14.8552 15.0874 14.7684 14.8996C14.612 14.561 14.3441 14.3747 13.9647 14.3408C13.9264 14.3372 13.8882 14.3486 13.8583 14.3727C13.8283 14.3968 13.8089 14.4317 13.8041 14.4699C13.7775 14.682 13.8203 14.8786 13.9326 15.0596C14.0365 15.2268 14.1579 15.2743 14.2969 15.202C14.313 15.1939 14.3296 15.1925 14.3466 15.1977Z" fill="white"/>
<path d="M18.0733 18.7004C18.2024 19.0538 18.5485 19.2465 18.8921 19.3526C18.8954 19.3536 18.8983 19.3555 18.9007 19.358C18.903 19.3606 18.9047 19.3637 18.9054 19.367C18.9062 19.3704 18.9062 19.3739 18.9052 19.3772C18.9042 19.3805 18.9024 19.3835 18.9 19.3859C18.2357 20.0483 17.3763 19.5968 17.106 18.8362C16.9479 18.3907 16.9654 17.8295 17.3042 17.478C17.503 17.2726 17.6866 17.0017 17.5672 16.7004C17.4735 16.4649 17.3416 16.2495 17.1715 16.0544C17.1645 16.0463 17.1555 16.0401 17.1454 16.0366C17.1353 16.0331 17.1244 16.0323 17.1139 16.0344C16.7545 16.1041 16.3569 16.152 16.0351 16.0259C15.8115 15.9386 15.6212 15.655 15.7176 15.4101C15.86 15.0477 16.3927 15.1374 16.6776 15.2035C17.0891 15.298 17.2345 15.055 17.3776 14.7247C17.5497 14.3271 18.3782 14.5526 18.1818 13.9429C18.1412 13.8162 18.083 13.4326 18.3557 13.5077C18.6454 13.5877 18.6557 13.9404 18.7291 14.1792C18.7367 14.2051 18.7539 14.2184 18.7806 14.2192C19.0594 14.2309 19.2578 14.3538 19.3757 14.5877C19.5648 14.9604 19.7169 15.541 20.2685 15.4362C20.3109 15.4281 20.3533 15.4219 20.3957 15.4174C20.4167 15.4154 20.4357 15.4206 20.4527 15.4332C20.6472 15.5768 20.5576 15.8956 20.3897 16.0192C20.302 16.0839 20.1897 16.1138 20.0527 16.1089C19.7618 16.0986 19.5915 16.0653 19.4733 15.7841C19.2776 15.3198 19.0169 14.3701 18.2763 14.7604C18.1095 14.8485 18.0501 14.9976 18.0982 15.2077C18.1689 15.5196 18.2588 15.7986 18.3679 16.0447C18.4885 16.3162 18.5054 16.6144 18.2921 16.8538C18.1329 17.0324 17.983 17.2021 17.8424 17.3629C17.603 17.6368 17.4588 18.2586 17.9769 18.3204C18.4044 18.3714 18.7398 18.3734 18.983 18.3265C19.2173 18.2808 19.2879 18.1451 19.1945 17.9192C19.1012 17.6934 18.9495 17.6285 18.7394 17.7247C18.3188 17.9174 18.2679 17.1792 18.7254 17.1756C18.9788 17.1732 19.2313 17.1707 19.483 17.1683C19.6951 17.1659 20.0733 17.2689 20.0321 17.5562C20.0012 17.7726 19.8048 17.761 19.6327 17.7477C19.5539 17.7413 19.5117 17.7776 19.506 17.8568C19.4826 18.2136 19.6299 18.4249 19.9479 18.4907C19.9648 18.4944 19.9776 18.5041 19.986 18.5198C19.9949 18.5364 19.9953 18.5534 19.9872 18.5707C19.9788 18.5897 19.9644 18.6025 19.9442 18.6089C19.8202 18.6465 19.6949 18.654 19.5685 18.6314C19.0636 18.5411 18.6042 18.4744 18.1012 18.6435C18.0721 18.6532 18.0628 18.6722 18.0733 18.7004Z" fill="#005981"/>
<path d="M14.297 15.2027C14.158 15.275 14.0366 15.2275 13.9328 15.0603C13.8205 14.8792 13.7776 14.6827 13.8043 14.4706C13.809 14.4324 13.8284 14.3975 13.8584 14.3734C13.8884 14.3493 13.9266 14.3379 13.9649 14.3415C14.3443 14.3754 14.6122 14.5617 14.7685 14.9003C14.8554 15.0881 14.9106 15.2778 14.934 15.4693C14.9355 15.4816 14.9343 15.4941 14.9305 15.5059C14.9267 15.5177 14.9204 15.5285 14.9119 15.5375C14.9035 15.5466 14.8932 15.5537 14.8817 15.5584C14.8702 15.563 14.8579 15.5651 14.8455 15.5645C14.717 15.5578 14.5122 15.2518 14.3467 15.1984C14.3298 15.1932 14.3132 15.1946 14.297 15.2027Z" fill="#005981"/>
</g>
<circle cx="20" cy="20" r="19.5" stroke="black" stroke-opacity="0.05"/>
<defs>
<clipPath id="clip0_9_387280">
<rect width="21.8182" height="20" fill="white" transform="translate(9 10)"/>
</clipPath>
</defs>
</svg>
