<svg width="40" height="40" viewBox="0 0 40 40" fill="none" xmlns="http://www.w3.org/2000/svg">
<circle cx="20" cy="20" r="20" fill="#004F96"/>
<g clip-path="url(#clip0_9_411213)">
<path d="M15.5354 22.5457C15.5354 19.4041 17.5392 16.7459 20.299 15.86L18.7047 14.2419C16.1513 15.2255 13.8383 17.7796 13.8383 20.9598C13.8383 22.0629 14.0826 23.1114 14.5223 24.0391C13.4426 22.7208 12.8547 21.0682 12.8592 19.3642C12.8592 16.3454 14.6463 13.7572 17.1876 12.6689L15.574 11C12.8663 12.3648 11.0123 15.2429 11.0001 18.5568C10.9776 24.3611 17.8227 28.3751 19.5192 29L19.5501 28.9396C17.1843 27.8461 15.5354 25.3955 15.5354 22.5457Z" fill="#00A04D"/>
<path d="M24.4635 17.4543C24.4635 20.5946 22.4604 23.2529 19.7 24.1387L21.2942 25.7574C23.8483 24.7732 26.1607 22.2191 26.1607 19.0396C26.1607 17.9364 25.9177 16.8879 25.4773 15.9603C26.5572 17.2785 27.1453 18.9311 27.141 20.6351C27.141 23.654 25.3532 26.2415 22.812 27.3311L24.425 28.9981C27.1346 27.6352 28.988 24.7578 29.0002 21.4426C29.0214 15.6389 22.1762 11.6255 20.481 11L20.4502 11.0598C22.8152 12.1533 24.4635 14.6045 24.4635 17.4536V17.4543Z" fill="white"/>
</g>
<circle cx="20" cy="20" r="19.5" stroke="black" stroke-opacity="0.05"/>
<defs>
<clipPath id="clip0_9_411213">
<rect width="18.0001" height="18" fill="white" transform="translate(11 11)"/>
</clipPath>
</defs>
</svg>
