<svg width="40" height="40" viewBox="0 0 40 40" fill="none" xmlns="http://www.w3.org/2000/svg">
<circle cx="20" cy="20" r="20" fill="#F6F8FA"/>
<g clip-path="url(#clip0_9_402662)">
<path d="M33.8664 19.9218C33.8664 27.6748 27.5606 33.9895 19.8164 33.9895C12.951 33.9895 7.28328 29.0347 6.00537 22.5596L8.24038 22.0802C9.27946 27.5162 14.0685 31.6725 19.8164 31.6725C26.2826 31.6725 31.5511 26.3969 31.5511 19.9218C31.5511 13.4467 26.2826 8.17107 19.8164 8.17107C15.7457 8.17107 12.2327 10.2492 10.0779 13.3665V13.4467C9.43809 14.566 9.19926 15.5249 9.43809 16.0043C9.6787 16.4035 10.1564 16.6441 10.9548 16.6441H13.5107L14.7084 12.887H17.102L15.9043 16.6441H18.6187L17.9005 18.9629H15.1058L14.2289 21.6791C14.0685 22.2388 14.1487 22.72 14.3875 23.039C14.6282 23.4383 15.1058 23.5185 15.4266 23.5185C15.9845 23.5185 16.5441 23.4383 17.0218 23.1995C17.0218 23.5987 17.1822 23.9177 17.2624 24.2385C17.421 24.6378 17.5814 24.9568 17.8203 25.2776C17.0218 25.5967 16.1449 25.7571 15.3464 25.7571C14.1487 25.7571 13.1898 25.2776 12.5518 24.3972C11.9137 23.5185 11.7533 22.1604 12.1525 20.9609L12.7924 18.9629H11.035C10.0779 18.9629 8.24038 18.8025 7.44369 17.3642C6.72364 16.1647 6.88405 14.7264 7.76272 13.0474C10.1564 8.81091 14.7084 6.0127 19.8967 6.0127C27.6408 6.0127 33.9466 12.3274 33.8664 19.9218Z" fill="#00A6CA"/>
<path d="M29.7957 23.7594C29.7155 23.8378 29.7155 23.9982 29.6353 24.0784C29.5557 24.2388 29.476 24.3986 29.3964 24.5578C29.3168 24.7182 29.2372 24.8781 29.1576 25.0373C29.0768 25.1977 28.9966 25.3575 28.917 25.5167C28.8368 25.5969 28.8368 25.6771 28.7584 25.7573C28.6782 25.7573 28.3591 25.8375 28.1185 25.8375C27.5607 25.8375 27.0812 25.8375 26.2828 25.5969C25.7249 25.3581 25.3257 25.0373 25.0048 24.5578C24.0477 25.3581 22.85 25.8375 21.7325 25.8375C20.5348 25.8375 19.6579 25.3581 19.0181 24.5578C18.38 23.6792 18.2196 22.4797 18.6188 21.3604L20.1356 16.7246H22.531L20.7754 22.0804C20.5348 22.6401 20.6952 22.9591 20.8539 23.1997C21.0143 23.5188 21.4135 23.599 21.7325 23.599C22.85 23.599 24.1279 22.6401 24.5272 21.4406L26.0439 16.8048H28.4376L26.682 22.1606C26.6018 22.3995 26.6018 22.6401 26.6018 22.7987C26.682 23.1997 26.9208 23.3583 27.0812 23.5188C27.5607 23.8378 28.2789 23.918 28.8368 23.918C29.236 23.918 29.5568 23.918 29.7957 23.7594Z" fill="#00A6CA"/>
</g>
<circle cx="20" cy="20" r="19.5" stroke="black" stroke-opacity="0.05"/>
<defs>
<clipPath id="clip0_9_402662">
<rect width="27.8752" height="28" fill="white" transform="translate(6 6)"/>
</clipPath>
</defs>
</svg>
