<svg width="40" height="40" viewBox="0 0 40 40" fill="none" xmlns="http://www.w3.org/2000/svg">
<circle cx="20" cy="20" r="20" fill="#CB2D2F"/>
<g clip-path="url(#clip0_9_411987)">
<path d="M9.81452 19.056H9.7798C9.76275 19.056 9.7464 19.0492 9.73434 19.0372C9.72229 19.0251 9.71552 19.0088 9.71552 18.9917C9.71332 18.9822 9.71332 18.9723 9.71552 18.9628C12.2047 13.3224 18.8261 10.7535 24.5051 13.2259C27.0823 14.3452 29.144 16.3932 30.2805 18.9628C30.2845 18.9725 30.2861 18.983 30.2851 18.9935C30.284 19.004 30.2804 19.014 30.2746 19.0227C30.2687 19.0314 30.2608 19.0386 30.2515 19.0435C30.2422 19.0484 30.2319 19.0509 30.2214 19.0509H30.1918C29.2277 18.5324 28.1458 18.2726 27.0514 18.2968C25.8161 18.2546 24.598 18.5967 23.5652 19.2759C23.5525 19.28 23.5388 19.28 23.526 19.2759H23.4862C22.4373 18.6324 21.2308 18.2917 20.0003 18.2917C18.7697 18.2917 17.5632 18.6324 16.5144 19.2759C16.5018 19.2798 16.4884 19.2798 16.4758 19.2759H16.4404C15.4077 18.597 14.19 18.255 12.9549 18.2968C11.8617 18.2753 10.7815 18.5366 9.81902 19.0554L9.81452 19.056ZM20.6428 19.3569H19.3571V28.218C19.3571 28.7374 19.044 29.1579 18.5214 29.1579C18.1209 29.1579 17.7628 28.9072 17.6291 28.5311C17.5719 28.3938 17.4628 28.2847 17.3255 28.2275C17.1883 28.1703 17.034 28.1697 16.8962 28.2257C16.7745 28.2747 16.674 28.3651 16.6124 28.4809C16.5508 28.5968 16.532 28.7306 16.5594 28.8589C16.9078 29.9383 18.0701 30.5329 19.1572 30.1871C20.0179 29.9132 20.6499 29.1154 20.6428 28.218V19.3569Z" fill="white"/>
</g>
<circle cx="20" cy="20" r="19.5" stroke="black" stroke-opacity="0.05"/>
<defs>
<clipPath id="clip0_9_411987">
<rect width="22" height="19" fill="white" transform="translate(9 12)"/>
</clipPath>
</defs>
</svg>
