<svg width="40" height="40" viewBox="0 0 40 40" fill="none" xmlns="http://www.w3.org/2000/svg">
<circle cx="20" cy="20" r="20" fill="#EF3E42"/>
<g clip-path="url(#clip0_9_387256)">
<path d="M9.11841 11.0869L15.1798 30.889L27.3026 26.7598L31.3532 11.0869H9.11841ZM16.9025 14.6283H15.7065V13.7262H15.3253V20.5617L15.7589 20.8265V22.1505H13.1603V20.8148L13.6026 20.5617V13.7262H13.2214V14.6283H12.0371V11.861H16.9025V14.6283ZM21.6253 16.6856H20.2955V16.2521C20.2955 15.0881 19.0297 15.1172 19.181 15.9872C19.2479 16.3685 20.1005 17.7012 20.828 19.1445C22.7806 23.0118 19.9725 25.4911 18.3982 23.7102L18.1334 24.0711H17.24V20.9167H18.631V21.7256C18.5641 22.8663 21.0259 23.0642 18.9947 19.3831C18.2585 18.0184 17.9384 17.4888 17.6765 16.7176C16.9665 14.6545 18.4186 13.7437 19.3759 13.7728C19.7542 13.7641 20.1238 13.9037 20.4031 14.1598L20.6621 13.7932H21.6253V16.6856ZM27.0436 23.8354C27.0436 25.6366 25.8796 26.5387 24.9426 26.5416C23.5546 26.5416 22.2771 25.7763 22.4023 20.5762C22.5449 14.5701 25.6992 15.8592 25.7749 16.2433L26.0339 15.9203H26.9883V18.8157H25.641V18.2977C25.5363 16.933 24.0347 16.9504 24.0988 20.7479C24.1482 23.62 24.2152 24.7607 25.0736 24.7607C25.6352 24.7607 25.6352 24.0012 25.641 24.0041V22.8722H27.0436V23.8354Z" fill="white"/>
<path d="M9.11841 11.0869L15.1798 30.889L27.3026 26.7598L31.3532 11.0869H9.11841ZM16.9025 14.6283H15.7065V13.7262H15.3253V20.5617L15.7589 20.8265V22.1505H13.1603V20.8148L13.6026 20.5617V13.7262H13.2214V14.6283H12.0371V11.861H16.9025V14.6283ZM21.6253 16.6856H20.2955V16.2521C20.2955 15.0881 19.0297 15.1172 19.181 15.9872C19.2479 16.3685 20.1005 17.7012 20.828 19.1445C22.7806 23.0118 19.9725 25.4911 18.3982 23.7102L18.1334 24.0711H17.24V20.9167H18.631V21.7256C18.5641 22.8663 21.0259 23.0642 18.9947 19.3831C18.2585 18.0184 17.9384 17.4888 17.6765 16.7176C16.9665 14.6545 18.4186 13.7437 19.3759 13.7728C19.7542 13.7641 20.1238 13.9037 20.4031 14.1598L20.6621 13.7932H21.6253V16.6856ZM27.0436 23.8354C27.0436 25.6366 25.8796 26.5387 24.9426 26.5416C23.5546 26.5416 22.2771 25.7763 22.4023 20.5762C22.5449 14.5701 25.6992 15.8592 25.7749 16.2433L26.0339 15.9203H26.9883V18.8157H25.641V18.2977C25.5363 16.933 24.0347 16.9504 24.0988 20.7479C24.1482 23.62 24.2152 24.7607 25.0736 24.7607C25.6352 24.7607 25.6352 24.0012 25.641 24.0041V22.8722H27.0436V23.8354Z" stroke="white" stroke-width="0.174596"/>
</g>
<circle cx="20" cy="20" r="19.5" stroke="black" stroke-opacity="0.05"/>
<defs>
<clipPath id="clip0_9_387256">
<rect width="22.4647" height="20" fill="white" transform="translate(9 11)"/>
</clipPath>
</defs>
</svg>
