<svg width="40" height="40" viewBox="0 0 40 40" fill="none" xmlns="http://www.w3.org/2000/svg">
<circle cx="20" cy="20" r="20" fill="#F6F8FA"/>
<path fill-rule="evenodd" clip-rule="evenodd" d="M10.8151 18.7051C10.8151 13.3626 15.1778 9.00098 20.5218 9.00098C25.8527 9.00098 30.2133 13.3626 30.2133 18.7051C30.2133 22.6339 27.8517 26.0367 24.4855 27.5566L24.4728 27.5623H20.4231L20.4229 27.5623L16.5723 27.533V27.5685L16.4809 27.5267C13.1389 25.9991 10.8151 22.6129 10.8151 18.7051ZM16.5219 27.4034L20.4234 27.4331H20.4239H24.445C27.7601 25.9305 30.0841 22.5762 30.0841 18.7051C30.0841 13.4339 25.7813 9.13012 20.5218 9.13012C15.249 9.13012 10.9442 13.4339 10.9442 18.7051C10.9442 22.5557 13.2311 25.8933 16.5219 27.4034Z" fill="#221815"/>
<path d="M12.8391 14.2138V12.8936C12.5248 13.311 12.2437 13.7524 11.9983 14.2138H12.8391Z" fill="white"/>
<path fill-rule="evenodd" clip-rule="evenodd" d="M12.9041 12.6992V14.2791H11.89L11.9408 14.1835C12.1878 13.7192 12.4708 13.2749 12.7871 12.8547L12.9041 12.6992ZM12.1073 14.149H12.774V13.0918C12.5298 13.4298 12.3072 13.7829 12.1073 14.149Z" fill="#221815"/>
<path d="M27.2166 11.7969V12.7447H28.0736C27.809 12.4103 27.5228 12.0937 27.2166 11.7969Z" fill="white"/>
<path fill-rule="evenodd" clip-rule="evenodd" d="M27.1515 11.6436L27.2619 11.7505C27.5701 12.0493 27.8583 12.368 28.1246 12.7047L28.2081 12.8101H27.1515V11.6436ZM27.2816 11.9527V12.68H27.9379C27.7316 12.4266 27.5126 12.1838 27.2816 11.9527Z" fill="#221815"/>
<path d="M22.4282 9.25684V9.79769H23.3644V9.49736C23.0571 9.39956 22.7445 9.31932 22.4282 9.25684Z" fill="white"/>
<path fill-rule="evenodd" clip-rule="evenodd" d="M22.3631 9.17773L22.4408 9.19308C22.7596 9.25603 23.0745 9.33688 23.3842 9.43544L23.4295 9.44987V9.86284H22.3631V9.17773ZM22.4932 9.33647V9.73269H23.2994V9.54516C23.0343 9.46242 22.7652 9.39282 22.4932 9.33647Z" fill="#221815"/>
<path d="M14.7475 14.2135H13.8134V12.7314H14.7476L14.7475 14.2135Z" fill="white"/>
<path fill-rule="evenodd" clip-rule="evenodd" d="M13.7483 12.667H14.8126L14.8125 14.2791H13.7483V12.667ZM13.8784 12.7971V14.1491H14.6824L14.6825 12.7971H13.8784Z" fill="#221815"/>
<path d="M14.7475 15.6921H13.8134V14.2129H14.7476L14.7475 15.6921Z" fill="white"/>
<path fill-rule="evenodd" clip-rule="evenodd" d="M13.7483 14.1484H14.8126L14.8125 15.7577H13.7483V14.1484ZM13.8784 14.2785V15.6276H14.6824L14.6825 14.2785H13.8784Z" fill="#221815"/>
<path d="M14.7475 17.1618H13.8134V15.6797H14.7476L14.7475 17.1618ZM14.7475 18.6408H13.8134V17.1618H14.7475V18.6408Z" fill="white"/>
<path fill-rule="evenodd" clip-rule="evenodd" d="M13.7483 15.6143H14.8126L14.8125 18.7055H13.7483V15.6143ZM14.6824 17.0963L14.6825 15.7443H13.8784V17.0963H14.6824ZM13.8784 17.2264V18.5754H14.6824V17.2264H13.8784Z" fill="#221815"/>
<path d="M14.7475 20.1059H13.8134V18.6279H14.7476L14.7475 20.1059ZM14.7475 21.5881H13.8134V20.1059H14.7475V21.5881Z" fill="white"/>
<path fill-rule="evenodd" clip-rule="evenodd" d="M13.7483 18.5635H14.8126L14.8125 21.6537H13.7483V18.5635ZM13.8784 18.6936V20.0415H14.6824L14.6825 18.6936H13.8784ZM14.6824 20.1716H13.8784V21.5236H14.6824V20.1716Z" fill="#221815"/>
<path d="M14.7475 23.0543H13.8134V21.5742H14.7476L14.7475 23.0543Z" fill="white"/>
<path fill-rule="evenodd" clip-rule="evenodd" d="M13.7483 21.5088H14.8126L14.8125 23.119H13.7483V21.5088ZM13.8784 21.6389V22.9889H14.6824L14.6825 21.6389H13.8784Z" fill="#221815"/>
<path d="M14.7475 24.5239H13.8133V23.0404H14.7476L14.7475 24.5239ZM13.7865 15.6921H12.8553V14.2129H13.7865V15.6921Z" fill="white"/>
<path fill-rule="evenodd" clip-rule="evenodd" d="M12.7903 14.1484H13.8516V15.7577H12.7903V14.1484ZM12.9204 14.2785V15.6276H13.7215V14.2785H12.9204ZM13.7483 22.9759H14.8127L14.8126 24.5895H13.7483V22.9759ZM13.8784 23.106V24.4594H14.6825L14.6826 23.106H13.8784Z" fill="#221815"/>
<path d="M13.7865 17.1618H12.8553V15.6797H13.7865V17.1618ZM13.7865 18.6408H12.8553V17.1618H13.7865V18.6408Z" fill="white"/>
<path fill-rule="evenodd" clip-rule="evenodd" d="M12.7903 15.6143H13.8516V18.7055H12.7903V15.6143ZM12.9204 15.7443V17.0963H13.7215V15.7443H12.9204ZM13.7215 17.2264H12.9204V18.5754H13.7215V17.2264Z" fill="#221815"/>
<path d="M13.7865 20.1059H12.8553V18.6279H13.7865V20.1059ZM13.7865 21.5881H12.8553V20.1059H13.7865V21.5881Z" fill="white"/>
<path fill-rule="evenodd" clip-rule="evenodd" d="M12.7903 18.5635H13.8516V21.6537H12.7903V18.5635ZM12.9204 18.6936V20.0415H13.7215V18.6936H12.9204ZM13.7215 20.1716H12.9204V21.5236H13.7215V20.1716Z" fill="#221815"/>
<path d="M13.7865 23.0543H12.8553V21.5742H13.7865V23.0543Z" fill="white"/>
<path fill-rule="evenodd" clip-rule="evenodd" d="M12.7903 21.5088H13.8516V23.119H12.7903V21.5088ZM12.9204 21.6389V22.9889H13.7215V21.6389H12.9204Z" fill="#221815"/>
<path d="M13.7866 24.5247H12.8553V23.0412H13.7866V24.5247ZM12.8391 17.1618H11.9039V15.6797H12.8391V17.1618ZM12.8391 18.6408H11.9039V17.1618H12.8391V18.6408Z" fill="white"/>
<path fill-rule="evenodd" clip-rule="evenodd" d="M11.8389 15.6143H12.9042V18.7055H11.8389V15.6143ZM11.9689 15.7443V17.0963H12.7741V15.7443H11.9689ZM12.7741 17.2264H11.9689V18.5754H12.7741V17.2264ZM12.7902 22.9757H13.8516V24.5893H12.7902V22.9757ZM12.9203 23.1058V24.4592H13.7215V23.1058H12.9203Z" fill="#221815"/>
<path d="M12.8391 20.1066H11.9039V18.6286H12.8391V20.1066ZM12.8391 21.5888H11.9039V20.1066H12.8391V21.5888ZM15.7075 12.7447H14.7748V11.2656H15.7075V12.7447Z" fill="white"/>
<path fill-rule="evenodd" clip-rule="evenodd" d="M14.7097 11.2002H15.7725V12.8093H14.7097V11.2002ZM14.8398 11.3303V12.6793H15.6424V11.3303H14.8398ZM11.8389 18.5632H12.9042V21.6535H11.8389V18.5632ZM11.9689 18.6933V20.0412H12.7741V18.6933H11.9689ZM12.7741 20.1713H11.9689V21.5234H12.7741V20.1713Z" fill="#221815"/>
<path d="M15.7075 14.2135H14.7748V12.7314H15.7075V14.2135Z" fill="white"/>
<path fill-rule="evenodd" clip-rule="evenodd" d="M14.7098 12.667H15.7726V14.2791H14.7098V12.667ZM14.8399 12.7971V14.1491H15.6425V12.7971H14.8399Z" fill="#221815"/>
<path d="M15.7075 15.6921H14.7748V14.2129H15.7075V15.6921Z" fill="white"/>
<path fill-rule="evenodd" clip-rule="evenodd" d="M14.7098 14.1484H15.7726V15.7577H14.7098V14.1484ZM14.8399 14.2785V15.6276H15.6425V14.2785H14.8399Z" fill="#221815"/>
<path d="M15.7075 17.1618H14.7748V15.6797H15.7075V17.1618ZM15.7075 18.6408H14.7748V17.1618H15.7075V18.6408Z" fill="white"/>
<path fill-rule="evenodd" clip-rule="evenodd" d="M14.7098 15.6143H15.7726V18.7055H14.7098V15.6143ZM14.8399 15.7443V17.0963H15.6425V15.7443H14.8399ZM15.6425 17.2264H14.8399V18.5754H15.6425V17.2264Z" fill="#221815"/>
<path d="M15.7075 20.1059H14.7748V18.6279H15.7075V20.1059ZM15.7075 21.5881H14.7748V20.1059H15.7075V21.5881Z" fill="white"/>
<path fill-rule="evenodd" clip-rule="evenodd" d="M14.7098 18.5635H15.7726V21.6537H14.7098V18.5635ZM14.8399 18.6936V20.0415H15.6425V18.6936H14.8399ZM15.6425 20.1716H14.8399V21.5236H15.6425V20.1716Z" fill="#221815"/>
<path d="M15.7075 23.0543H14.7748V21.5742H15.7075V23.0543Z" fill="white"/>
<path fill-rule="evenodd" clip-rule="evenodd" d="M14.7098 21.5088H15.7726V23.119H14.7098V21.5088ZM14.8399 21.6389V22.9889H15.6425V21.6389H14.8399Z" fill="#221815"/>
<path d="M15.7075 24.5245H14.7748V23.041H15.7075V24.5245ZM15.7075 26.0037H14.7748V24.5245H15.7075V26.0037Z" fill="white"/>
<path fill-rule="evenodd" clip-rule="evenodd" d="M14.7098 22.9756H15.7726V26.0683H14.7098V22.9756ZM14.8399 23.1057V24.4591H15.6425V23.1057H14.8399ZM15.6425 24.5892H14.8399V25.9383H15.6425V24.5892Z" fill="#221815"/>
<path d="M16.6685 12.7447H15.7342V11.2656H16.6684L16.6685 12.7447Z" fill="#221815"/>
<path fill-rule="evenodd" clip-rule="evenodd" d="M15.6691 11.2002H16.7335L16.7336 12.8093H15.6691V11.2002ZM15.7992 11.3303V12.6793H16.6035L16.6034 11.3303H15.7992Z" fill="#221815"/>
<path d="M16.6685 14.2135H15.7342V12.7314H16.6684L16.6685 14.2135Z" fill="white"/>
<path fill-rule="evenodd" clip-rule="evenodd" d="M15.6691 12.667H16.7335L16.7336 14.2791H15.6691V12.667ZM15.7992 12.7971V14.1491H16.6035L16.6034 12.7971H15.7992Z" fill="#221815"/>
<path d="M16.6685 15.6921H15.7342V14.2129H16.6684L16.6685 15.6921Z" fill="white"/>
<path fill-rule="evenodd" clip-rule="evenodd" d="M15.6691 14.1484H16.7335L16.7336 15.7577H15.6691V14.1484ZM15.7992 14.2785V15.6276H16.6035L16.6034 14.2785H15.7992Z" fill="#221815"/>
<path d="M16.6685 17.1618H15.7342V15.6797H16.6684L16.6685 17.1618ZM16.6685 18.6408H15.7342V17.1618H16.6685V18.6408Z" fill="white"/>
<path fill-rule="evenodd" clip-rule="evenodd" d="M15.6691 15.6143H16.7335L16.7336 18.7055H15.6691V15.6143ZM15.7992 15.7443V17.0963H16.6035L16.6034 15.7443H15.7992ZM15.7992 17.2264V18.5754H16.6035V17.2264H15.7992Z" fill="#221815"/>
<path d="M16.6685 20.1059H15.7342V18.6279H16.6684L16.6685 20.1059ZM16.6685 21.5881H15.7342V20.1059H16.6685V21.5881Z" fill="white"/>
<path fill-rule="evenodd" clip-rule="evenodd" d="M15.6691 18.5635H16.7335L16.7336 21.6537H15.6691V18.5635ZM15.7992 18.6936V20.0415H16.6035L16.6034 18.6936H15.7992ZM16.6035 20.1716V21.5236H15.7992V20.1716H16.6035Z" fill="#221815"/>
<path d="M16.6685 23.0543H15.7342V21.5742H16.6684L16.6685 23.0543Z" fill="white"/>
<path fill-rule="evenodd" clip-rule="evenodd" d="M15.6691 21.5088H16.7335L16.7336 23.119H15.6691V21.5088ZM15.7992 21.6389V22.9889H16.6035L16.6034 21.6389H15.7992Z" fill="#221815"/>
<path d="M16.6685 24.5245H15.7342V23.041H16.6684L16.6685 24.5245Z" fill="white"/>
<path fill-rule="evenodd" clip-rule="evenodd" d="M15.6691 22.9756H16.7335L16.7336 24.5892H15.6691V22.9756ZM15.7992 23.1057V24.4591H16.6035L16.6034 23.1057H15.7992Z" fill="#221815"/>
<path d="M16.6685 26.0036H15.7342V24.5244H16.6684L16.6685 26.0036Z" fill="#221815"/>
<path fill-rule="evenodd" clip-rule="evenodd" d="M15.6691 24.459H16.7335L16.7336 26.0682H15.6691V24.459ZM15.7992 24.5891V25.9381H16.6035L16.6034 24.5891H15.7992Z" fill="#221815"/>
<path d="M17.6133 12.7447H16.6801V11.2656H17.6133V12.7447Z" fill="white"/>
<path fill-rule="evenodd" clip-rule="evenodd" d="M16.615 11.2002H17.6784V12.8093H16.615V11.2002ZM16.7451 11.3303V12.6793H17.5483V11.3303H16.7451Z" fill="#221815"/>
<path d="M17.6133 14.2135H16.6801V12.7314H17.6133V14.2135Z" fill="#221815"/>
<path fill-rule="evenodd" clip-rule="evenodd" d="M16.615 12.667H17.6784V14.2791H16.615V12.667ZM16.7451 12.7971V14.1491H17.5483V12.7971H16.7451Z" fill="#221815"/>
<path d="M17.6133 15.6921H16.6801V14.2129H17.6133V15.6921Z" fill="white"/>
<path fill-rule="evenodd" clip-rule="evenodd" d="M16.615 14.1484H17.6784V15.7577H16.615V14.1484ZM16.7451 14.2785V15.6276H17.5483V14.2785H16.7451Z" fill="#221815"/>
<path d="M17.6133 17.1618H16.6801V15.6797H17.6133V17.1618ZM17.6133 18.6408H16.6801V17.1618H17.6133V18.6408Z" fill="white"/>
<path fill-rule="evenodd" clip-rule="evenodd" d="M16.615 15.6143H17.6784V18.7055H16.615V15.6143ZM16.7451 15.7443V17.0963H17.5483V15.7443H16.7451ZM17.5483 17.2264H16.7451V18.5754H17.5483V17.2264Z" fill="#221815"/>
<path d="M17.6133 20.1059H16.6801V18.6279H17.6133V20.1059ZM17.6133 21.5881H16.6801V20.1059H17.6133V21.5881Z" fill="white"/>
<path fill-rule="evenodd" clip-rule="evenodd" d="M16.615 18.5635H17.6784V21.6537H16.615V18.5635ZM16.7451 18.6936V20.0415H17.5483V18.6936H16.7451ZM17.5483 20.1716H16.7451V21.5236H17.5483V20.1716Z" fill="#221815"/>
<path d="M17.6133 23.0543H16.6801V21.5742H17.6133V23.0543Z" fill="white"/>
<path fill-rule="evenodd" clip-rule="evenodd" d="M16.615 21.5088H17.6784V23.119H16.615V21.5088ZM16.7451 21.6389V22.9889H17.5483V21.6389H16.7451Z" fill="#221815"/>
<path d="M17.6133 24.5245H16.6801V23.041H17.6133V24.5245Z" fill="#221815"/>
<path fill-rule="evenodd" clip-rule="evenodd" d="M16.615 22.9756H17.6784V24.5892H16.615V22.9756ZM16.7451 23.1057V24.4591H17.5483V23.1057H16.7451Z" fill="#221815"/>
<path d="M17.6133 26.0036H16.6801V24.5244H17.6133V26.0036Z" fill="white"/>
<path fill-rule="evenodd" clip-rule="evenodd" d="M16.615 24.459H17.6784V26.0682H16.615V24.459ZM16.7451 24.5891V25.9381H17.5483V24.5891H16.7451Z" fill="#221815"/>
<path d="M17.6133 27.4673H16.6801V25.9873H17.6133V27.4673Z" fill="#221815"/>
<path fill-rule="evenodd" clip-rule="evenodd" d="M16.615 25.9219H17.6784V27.532H16.615V25.9219ZM16.7451 26.052V27.4019H17.5483V26.052H16.7451Z" fill="#221815"/>
<path d="M18.5753 12.7447H17.64V11.2656H18.5753V12.7447Z" fill="white"/>
<path fill-rule="evenodd" clip-rule="evenodd" d="M17.575 11.2002H18.6404V12.8093H17.575V11.2002ZM17.7051 11.3303V12.6793H18.5103V11.3303H17.7051Z" fill="#221815"/>
<path d="M18.5753 11.2663H17.64V9.78613H18.5753V11.2663ZM18.5753 14.2142H17.64V12.7322H18.5753V14.2142Z" fill="white"/>
<path fill-rule="evenodd" clip-rule="evenodd" d="M17.575 9.7207H18.6404V11.3309H17.575V9.7207ZM17.7051 9.85078V11.2008H18.5103V9.85078H17.7051ZM17.575 12.6667H18.6404V14.2789H17.575V12.6667ZM17.7051 12.7968V14.1488H18.5103V12.7968H17.7051Z" fill="#221815"/>
<path d="M18.5753 15.6921H17.64V14.2129H18.5753V15.6921Z" fill="white"/>
<path fill-rule="evenodd" clip-rule="evenodd" d="M17.575 14.1484H18.6404V15.7577H17.575V14.1484ZM17.7051 14.2785V15.6276H18.5103V14.2785H17.7051Z" fill="#221815"/>
<path d="M18.5753 17.1618H17.64V15.6797H18.5753V17.1618ZM18.5753 18.6408H17.64V17.1618H18.5753V18.6408Z" fill="white"/>
<path fill-rule="evenodd" clip-rule="evenodd" d="M17.575 15.6143H18.6404V18.7055H17.575V15.6143ZM17.7051 15.7443V17.0963H18.5103V15.7443H17.7051ZM18.5103 17.2264H17.7051V18.5754H18.5103V17.2264Z" fill="#221815"/>
<path d="M18.5753 20.1059H17.64V18.6279H18.5753V20.1059ZM18.5753 21.5881H17.64V20.1059H18.5753V21.5881Z" fill="white"/>
<path fill-rule="evenodd" clip-rule="evenodd" d="M17.575 18.5635H18.6404V21.6537H17.575V18.5635ZM17.7051 18.6936V20.0415H18.5103V18.6936H17.7051ZM18.5103 20.1716H17.7051V21.5236H18.5103V20.1716Z" fill="#221815"/>
<path d="M18.5753 23.0543H17.64V21.5742H18.5753V23.0543Z" fill="white"/>
<path fill-rule="evenodd" clip-rule="evenodd" d="M17.575 21.5088H18.6404V23.119H17.575V21.5088ZM17.7051 21.6389V22.9889H18.5103V21.6389H17.7051Z" fill="#221815"/>
<path d="M18.5753 24.5245H17.64V23.041H18.5753V24.5245Z" fill="white"/>
<path fill-rule="evenodd" clip-rule="evenodd" d="M17.575 22.9756H18.6404V24.5892H17.575V22.9756ZM17.7051 23.1057V24.4591H18.5103V23.1057H17.7051Z" fill="#221815"/>
<path d="M18.5753 26.0036H17.64V24.5244H18.5753V26.0036Z" fill="#221815"/>
<path fill-rule="evenodd" clip-rule="evenodd" d="M17.575 24.459H18.6404V26.0682H17.575V24.459ZM17.7051 24.5891V25.9381H18.5103V24.5891H17.7051Z" fill="#221815"/>
<path d="M18.5753 27.4676H17.64V25.9876H18.5753V27.4676ZM19.5342 12.7447H18.601V11.2656H19.5342V12.7447Z" fill="white"/>
<path fill-rule="evenodd" clip-rule="evenodd" d="M18.536 11.2002H19.5993V12.8093H18.536V11.2002ZM18.666 11.3303V12.6793H19.4692V11.3303H18.666ZM17.575 25.9222H18.6404V27.5323H17.575V25.9222ZM17.7051 26.0522V27.4022H18.5103V26.0522H17.7051Z" fill="#221815"/>
<path d="M19.5343 11.2663H18.601V9.78613H19.5343V11.2663ZM19.5343 14.2142H18.601V12.7322H19.5343V14.2142Z" fill="white"/>
<path fill-rule="evenodd" clip-rule="evenodd" d="M18.5359 9.7207H19.5993V11.3309H18.5359V9.7207ZM18.666 9.85078V11.2008H19.4692V9.85078H18.666ZM18.5359 12.6667H19.5993V14.2789H18.5359V12.6667ZM18.666 12.7968V14.1488H19.4692V12.7968H18.666Z" fill="#221815"/>
<path d="M19.5343 15.6921H18.601V14.2129H19.5343V15.6921Z" fill="white"/>
<path fill-rule="evenodd" clip-rule="evenodd" d="M18.5359 14.1484H19.5993V15.7577H18.5359V14.1484ZM18.666 14.2785V15.6276H19.4692V14.2785H18.666Z" fill="#221815"/>
<path d="M19.5343 17.1618H18.601V15.6797H19.5343V17.1618ZM19.5343 18.6408H18.601V17.1618H19.5343V18.6408Z" fill="white"/>
<path fill-rule="evenodd" clip-rule="evenodd" d="M18.5359 15.6143H19.5993V18.7055H18.5359V15.6143ZM18.666 15.7443V17.0963H19.4692V15.7443H18.666ZM19.4692 17.2264H18.666V18.5754H19.4692V17.2264Z" fill="#221815"/>
<path d="M19.5343 20.1059H18.601V18.6279H19.5343V20.1059ZM19.5343 21.5881H18.601V20.1059H19.5343V21.5881Z" fill="white"/>
<path fill-rule="evenodd" clip-rule="evenodd" d="M18.5359 18.5635H19.5993V21.6537H18.5359V18.5635ZM18.666 18.6936V20.0415H19.4692V18.6936H18.666ZM19.4692 20.1716H18.666V21.5236H19.4692V20.1716Z" fill="#221815"/>
<path d="M19.5343 23.0543H18.601V21.5742H19.5343V23.0543Z" fill="white"/>
<path fill-rule="evenodd" clip-rule="evenodd" d="M18.5359 21.5088H19.5993V23.119H18.5359V21.5088ZM18.666 21.6389V22.9889H19.4692V21.6389H18.666Z" fill="#221815"/>
<path d="M19.5343 24.5245H18.601V23.041H19.5343V24.5245ZM19.5343 26.0037H18.601V24.5245H19.5343V26.0037Z" fill="white"/>
<path fill-rule="evenodd" clip-rule="evenodd" d="M18.5359 22.9756H19.5993V26.0683H18.5359V22.9756ZM18.666 23.1057V24.4591H19.4692V23.1057H18.666ZM19.4692 24.5892H18.666V25.9383H19.4692V24.5892Z" fill="#221815"/>
<path d="M19.5343 27.4676H18.601V25.9876H19.5343V27.4676ZM20.4968 12.7447H19.5621V11.2656H20.4968V12.7447Z" fill="white"/>
<path fill-rule="evenodd" clip-rule="evenodd" d="M19.497 11.2002H20.5618V12.8093H19.497V11.2002ZM19.6271 11.3303V12.6793H20.4317V11.3303H19.6271ZM18.5359 25.9222H19.5993V27.5323H18.5359V25.9222ZM18.666 26.0522V27.4022H19.4692V26.0522H18.666Z" fill="#221815"/>
<path d="M20.4968 11.2663H19.5621V9.78613H20.4968V11.2663Z" fill="#221815"/>
<path fill-rule="evenodd" clip-rule="evenodd" d="M19.497 9.7207H20.5618V11.3309H19.497V9.7207ZM19.6271 9.85078V11.2008H20.4317V9.85078H19.6271Z" fill="#221815"/>
<path d="M20.4968 14.2135H19.5621V12.7314H20.4968V14.2135Z" fill="white"/>
<path fill-rule="evenodd" clip-rule="evenodd" d="M19.497 12.667H20.5618V14.2791H19.497V12.667ZM19.6271 12.7971V14.1491H20.4317V12.7971H19.6271Z" fill="#221815"/>
<path d="M20.4968 15.6921H19.5621V14.2129H20.4968V15.6921Z" fill="white"/>
<path fill-rule="evenodd" clip-rule="evenodd" d="M19.497 14.1484H20.5618V15.7577H19.497V14.1484ZM19.6271 14.2785V15.6276H20.4317V14.2785H19.6271Z" fill="#221815"/>
<path d="M20.4968 17.1618H19.5621V15.6797H20.4968V17.1618ZM20.4968 18.6408H19.5621V17.1618H20.4968V18.6408Z" fill="white"/>
<path fill-rule="evenodd" clip-rule="evenodd" d="M19.497 15.6143H20.5618V18.7055H19.497V15.6143ZM19.6271 15.7443V17.0963H20.4317V15.7443H19.6271ZM20.4317 17.2264H19.6271V18.5754H20.4317V17.2264Z" fill="#221815"/>
<path d="M20.4968 20.1059H19.5621V18.6279H20.4968V20.1059ZM20.4968 21.5881H19.5621V20.1059H20.4968V21.5881Z" fill="white"/>
<path fill-rule="evenodd" clip-rule="evenodd" d="M19.497 18.5635H20.5618V21.6537H19.497V18.5635ZM19.6271 18.6936V20.0415H20.4317V18.6936H19.6271ZM20.4317 20.1716H19.6271V21.5236H20.4317V20.1716Z" fill="#221815"/>
<path d="M20.4968 23.0543H19.5621V21.5742H20.4968V23.0543Z" fill="white"/>
<path fill-rule="evenodd" clip-rule="evenodd" d="M19.497 21.5088H20.5618V23.119H19.497V21.5088ZM19.6271 21.6389V22.9889H20.4317V21.6389H19.6271Z" fill="#221815"/>
<path d="M20.4968 24.5245H19.5621V23.041H20.4968V24.5245ZM20.4968 26.0037H19.5621V24.5245H20.4968V26.0037Z" fill="white"/>
<path fill-rule="evenodd" clip-rule="evenodd" d="M19.497 22.9756H20.5618V26.0683H19.497V22.9756ZM19.6271 23.1057V24.4591H20.4317V23.1057H19.6271ZM20.4317 24.5892H19.6271V25.9383H20.4317V24.5892Z" fill="#221815"/>
<path d="M20.4968 27.4676H19.5621V25.9876H20.4968V27.4676ZM21.4548 12.7447H20.5215V11.2656H21.4548V12.7447Z" fill="white"/>
<path fill-rule="evenodd" clip-rule="evenodd" d="M20.4564 11.2002H21.5198V12.8093H20.4564V11.2002ZM20.5865 11.3303V12.6793H21.3897V11.3303H20.5865ZM19.497 25.9222H20.5618V27.5323H19.497V25.9222ZM19.6271 26.0522V27.4022H20.4317V26.0522H19.6271Z" fill="#221815"/>
<path d="M21.4547 11.2663H20.5214V9.78613H21.4547V11.2663ZM21.4547 14.2142H20.5214V12.7322H21.4547V14.2142Z" fill="white"/>
<path fill-rule="evenodd" clip-rule="evenodd" d="M20.4564 9.7207H21.5198V11.3309H20.4564V9.7207ZM20.5865 9.85078V11.2008H21.3897V9.85078H20.5865ZM20.4564 12.6667H21.5198V14.2789H20.4564V12.6667ZM20.5865 12.7968V14.1488H21.3897V12.7968H20.5865Z" fill="#221815"/>
<path d="M21.4547 15.6921H20.5214V14.2129H21.4547V15.6921Z" fill="white"/>
<path fill-rule="evenodd" clip-rule="evenodd" d="M20.4564 14.1484H21.5198V15.7577H20.4564V14.1484ZM20.5865 14.2785V15.6276H21.3897V14.2785H20.5865Z" fill="#221815"/>
<path d="M21.4547 17.1618H20.5214V15.6797H21.4547V17.1618ZM21.4547 18.6408H20.5214V17.1618H21.4547V18.6408Z" fill="white"/>
<path fill-rule="evenodd" clip-rule="evenodd" d="M20.4564 15.6143H21.5198V18.7055H20.4564V15.6143ZM20.5865 15.7443V17.0963H21.3897V15.7443H20.5865ZM21.3897 17.2264H20.5865V18.5754H21.3897V17.2264Z" fill="#221815"/>
<path d="M21.4547 20.1059H20.5214V18.6279H21.4547V20.1059ZM21.4547 21.5881H20.5214V20.1059H21.4547V21.5881Z" fill="white"/>
<path fill-rule="evenodd" clip-rule="evenodd" d="M20.4564 18.5635H21.5198V21.6537H20.4564V18.5635ZM20.5865 18.6936V20.0415H21.3897V18.6936H20.5865ZM21.3897 20.1716H20.5865V21.5236H21.3897V20.1716Z" fill="#221815"/>
<path d="M21.4547 23.0543H20.5214V21.5742H21.4547V23.0543Z" fill="white"/>
<path fill-rule="evenodd" clip-rule="evenodd" d="M20.4564 21.5088H21.5198V23.119H20.4564V21.5088ZM20.5865 21.6389V22.9889H21.3897V21.6389H20.5865Z" fill="#221815"/>
<path d="M21.4547 24.5245H20.5214V23.041H21.4547V24.5245Z" fill="#221815"/>
<path fill-rule="evenodd" clip-rule="evenodd" d="M20.4564 22.9756H21.5198V24.5892H20.4564V22.9756ZM20.5865 23.1057V24.4591H21.3897V23.1057H20.5865Z" fill="#221815"/>
<path d="M21.4547 26.0036H20.5214V24.5244H21.4547V26.0036Z" fill="white"/>
<path fill-rule="evenodd" clip-rule="evenodd" d="M20.4564 24.459H21.5198V26.0682H20.4564V24.459ZM20.5865 24.5891V25.9381H21.3897V24.5891H20.5865Z" fill="#221815"/>
<path d="M21.4547 27.4676H20.5214V25.9876H21.4547V27.4676ZM22.4026 12.7447H21.4699V11.2656H22.4026V12.7447Z" fill="white"/>
<path fill-rule="evenodd" clip-rule="evenodd" d="M21.4049 11.2002H22.4677V12.8093H21.4049V11.2002ZM21.535 11.3303V12.6793H22.3376V11.3303H21.535ZM20.4564 25.9222H21.5198V27.5323H20.4564V25.9222ZM20.5865 26.0522V27.4022H21.3897V26.0522H20.5865Z" fill="#221815"/>
<path d="M22.4026 11.2663H21.4699V9.78613H22.4026V11.2663ZM22.4026 14.2142H21.4699V12.7322H22.4026V14.2142Z" fill="white"/>
<path fill-rule="evenodd" clip-rule="evenodd" d="M21.4049 9.7207H22.4677V11.3309H21.4049V9.7207ZM21.535 9.85078V11.2008H22.3376V9.85078H21.535ZM21.4049 12.6667H22.4677V14.2789H21.4049V12.6667ZM21.535 12.7968V14.1488H22.3376V12.7968H21.535Z" fill="#221815"/>
<path d="M22.4026 15.6921H21.4699V14.2129H22.4026V15.6921Z" fill="white"/>
<path fill-rule="evenodd" clip-rule="evenodd" d="M21.4049 14.1484H22.4677V15.7577H21.4049V14.1484ZM21.535 14.2785V15.6276H22.3376V14.2785H21.535Z" fill="#221815"/>
<path d="M22.4026 17.1618H21.4699V15.6797H22.4026V17.1618ZM22.4026 18.6408H21.4699V17.1618H22.4026V18.6408Z" fill="white"/>
<path fill-rule="evenodd" clip-rule="evenodd" d="M21.4049 15.6143H22.4677V18.7055H21.4049V15.6143ZM21.535 15.7443V17.0963H22.3376V15.7443H21.535ZM22.3376 17.2264H21.535V18.5754H22.3376V17.2264Z" fill="#221815"/>
<path d="M22.4026 20.1059H21.4699V18.6279H22.4026V20.1059ZM22.4026 21.5881H21.4699V20.1059H22.4026V21.5881Z" fill="white"/>
<path fill-rule="evenodd" clip-rule="evenodd" d="M21.4049 18.5635H22.4677V21.6537H21.4049V18.5635ZM21.535 18.6936V20.0415H22.3376V18.6936H21.535ZM22.3376 20.1716H21.535V21.5236H22.3376V20.1716Z" fill="#221815"/>
<path d="M22.4026 23.0543H21.4699V21.5742H22.4026V23.0543Z" fill="white"/>
<path fill-rule="evenodd" clip-rule="evenodd" d="M21.4049 21.5088H22.4677V23.119H21.4049V21.5088ZM21.535 21.6389V22.9889H22.3376V21.6389H21.535Z" fill="#221815"/>
<path d="M22.4026 24.5245H21.4699V23.041H22.4026V24.5245ZM22.4026 26.0037H21.4699V24.5245H22.4026V26.0037Z" fill="white"/>
<path fill-rule="evenodd" clip-rule="evenodd" d="M21.4049 22.9756H22.4677V26.0683H21.4049V22.9756ZM21.535 23.1057V24.4591H22.3376V23.1057H21.535ZM22.3376 24.5892H21.535V25.9383H22.3376V24.5892Z" fill="#221815"/>
<path d="M22.4026 27.4676H21.4699V25.9876H22.4026V27.4676ZM23.3645 12.7447H22.4283V11.2656H23.3645V12.7447Z" fill="white"/>
<path fill-rule="evenodd" clip-rule="evenodd" d="M22.3633 11.2002H23.4296V12.8093H22.3633V11.2002ZM22.4934 11.3303V12.6793H23.2995V11.3303H22.4934ZM21.4049 25.9222H22.4677V27.5323H21.4049V25.9222ZM21.535 26.0522V27.4022H22.3376V26.0522H21.535Z" fill="#221815"/>
<path d="M23.3645 11.2663H22.4283V9.78613H23.3645V11.2663ZM23.3645 14.2142H22.4283V12.7322H23.3645V14.2142Z" fill="white"/>
<path fill-rule="evenodd" clip-rule="evenodd" d="M22.3633 9.7207H23.4296V11.3309H22.3633V9.7207ZM22.4934 9.85078V11.2008H23.2995V9.85078H22.4934ZM22.3633 12.6667H23.4296V14.2789H22.3633V12.6667ZM22.4934 12.7968V14.1488H23.2995V12.7968H22.4934Z" fill="#221815"/>
<path d="M23.3645 15.6921H22.4283V14.2129H23.3645V15.6921Z" fill="white"/>
<path fill-rule="evenodd" clip-rule="evenodd" d="M22.3633 14.1484H23.4296V15.7577H22.3633V14.1484ZM22.4934 14.2785V15.6276H23.2995V14.2785H22.4934Z" fill="#221815"/>
<path d="M23.3645 17.1618H22.4283V15.6797H23.3645V17.1618ZM23.3645 18.6408H22.4283V17.1618H23.3645V18.6408Z" fill="white"/>
<path fill-rule="evenodd" clip-rule="evenodd" d="M22.3633 15.6143H23.4296V18.7055H22.3633V15.6143ZM22.4934 15.7443V17.0963H23.2995V15.7443H22.4934ZM23.2995 17.2264H22.4934V18.5754H23.2995V17.2264Z" fill="#221815"/>
<path d="M23.3645 20.1059H22.4283V18.6279H23.3645V20.1059ZM23.3645 21.5881H22.4283V20.1059H23.3645V21.5881Z" fill="white"/>
<path fill-rule="evenodd" clip-rule="evenodd" d="M22.3633 18.5635H23.4296V21.6537H22.3633V18.5635ZM22.4934 18.6936V20.0415H23.2995V18.6936H22.4934ZM23.2995 20.1716H22.4934V21.5236H23.2995V20.1716Z" fill="#221815"/>
<path d="M23.3645 23.0543H22.4283V21.5742H23.3645V23.0543Z" fill="white"/>
<path fill-rule="evenodd" clip-rule="evenodd" d="M22.3633 21.5088H23.4296V23.119H22.3633V21.5088ZM22.4934 21.6389V22.9889H23.2995V21.6389H22.4934Z" fill="#221815"/>
<path d="M23.3645 24.5245H22.4283V23.041H23.3645V24.5245ZM23.3645 26.0037H22.4283V24.5245H23.3645V26.0037Z" fill="white"/>
<path fill-rule="evenodd" clip-rule="evenodd" d="M22.3633 22.9756H23.4296V26.0683H22.3633V22.9756ZM22.4934 23.1057V24.4591H23.2995V23.1057H22.4934ZM23.2995 24.5892H22.4934V25.9383H23.2995V24.5892Z" fill="#221815"/>
<path d="M23.3645 27.4676H22.4283V25.9876H23.3645V27.4676ZM24.319 12.7447H23.3888V11.2656H24.319V12.7447Z" fill="white"/>
<path fill-rule="evenodd" clip-rule="evenodd" d="M23.3238 11.2002H24.3841V12.8093H23.3238V11.2002ZM23.4539 11.3303V12.6793H24.254V11.3303H23.4539ZM22.3633 25.9222H23.4296V27.5323H22.3633V25.9222ZM22.4934 26.0522V27.4022H23.2995V26.0522H22.4934Z" fill="#221815"/>
<path d="M24.319 14.2135H23.3888V12.7314H24.319V14.2135Z" fill="white"/>
<path fill-rule="evenodd" clip-rule="evenodd" d="M23.3238 12.667H24.3841V14.2791H23.3238V12.667ZM23.4539 12.7971V14.1491H24.254V12.7971H23.4539Z" fill="#221815"/>
<path d="M24.319 15.6921H23.3888V14.2129H24.319V15.6921Z" fill="white"/>
<path fill-rule="evenodd" clip-rule="evenodd" d="M23.3238 14.1484H24.3841V15.7577H23.3238V14.1484ZM23.4539 14.2785V15.6276H24.254V14.2785H23.4539Z" fill="#221815"/>
<path d="M24.319 17.1618H23.3888V15.6797H24.319V17.1618ZM24.319 18.6408H23.3888V17.1618H24.319V18.6408Z" fill="white"/>
<path fill-rule="evenodd" clip-rule="evenodd" d="M23.3238 15.6143H24.3841V18.7055H23.3238V15.6143ZM23.4539 15.7443V17.0963H24.254V15.7443H23.4539ZM24.254 17.2264H23.4539V18.5754H24.254V17.2264Z" fill="#221815"/>
<path d="M24.319 20.1059H23.3888V18.6279H24.319V20.1059ZM24.319 21.5881H23.3888V20.1059H24.319V21.5881Z" fill="white"/>
<path fill-rule="evenodd" clip-rule="evenodd" d="M23.3238 18.5635H24.3841V21.6537H23.3238V18.5635ZM23.4539 18.6936V20.0415H24.254V18.6936H23.4539ZM24.254 20.1716H23.4539V21.5236H24.254V20.1716Z" fill="#221815"/>
<path d="M24.319 23.0543H23.3888V21.5742H24.319V23.0543Z" fill="white"/>
<path fill-rule="evenodd" clip-rule="evenodd" d="M23.3238 21.5088H24.3841V23.119H23.3238V21.5088ZM23.4539 21.6389V22.9889H24.254V21.6389H23.4539Z" fill="#221815"/>
<path d="M24.319 24.5245H23.3888V23.041H24.319V24.5245ZM24.319 26.0037H23.3888V24.5245H24.319V26.0037Z" fill="white"/>
<path fill-rule="evenodd" clip-rule="evenodd" d="M23.3238 22.9756H24.3841V26.0683H23.3238V22.9756ZM23.4539 23.1057V24.4591H24.254V23.1057H23.4539ZM24.254 24.5892H23.4539V25.9383H24.254V24.5892Z" fill="#221815"/>
<path d="M24.319 27.4676H23.3888V25.9876H24.319V27.4676ZM25.2845 12.7447H24.3502V11.2656H25.2845V12.7447Z" fill="white"/>
<path fill-rule="evenodd" clip-rule="evenodd" d="M24.2852 11.2002H25.3496V12.8093H24.2852V11.2002ZM24.4153 11.3303V12.6793H25.2195V11.3303H24.4153ZM23.3238 25.9222H24.3841V27.5323H23.3238V25.9222ZM23.4539 26.0522V27.4022H24.254V26.0522H23.4539Z" fill="#221815"/>
<path d="M25.2845 14.2135H24.3503V12.7314H25.2845V14.2135Z" fill="#221815"/>
<path fill-rule="evenodd" clip-rule="evenodd" d="M24.2852 12.667H25.3495V14.2791H24.2852V12.667ZM24.4153 12.7971V14.1491H25.2195V12.7971H24.4153Z" fill="#221815"/>
<path d="M25.2845 15.6921H24.3503V14.2129H25.2845V15.6921Z" fill="white"/>
<path fill-rule="evenodd" clip-rule="evenodd" d="M24.2852 14.1484H25.3495V15.7577H24.2852V14.1484ZM24.4153 14.2785V15.6276H25.2195V14.2785H24.4153Z" fill="#221815"/>
<path d="M25.2845 17.1618H24.3503V15.6797H25.2845V17.1618ZM25.2845 18.6408H24.3503V17.1618H25.2845V18.6408Z" fill="white"/>
<path fill-rule="evenodd" clip-rule="evenodd" d="M24.2852 15.6143H25.3495V18.7055H24.2852V15.6143ZM24.4153 15.7443V17.0963H25.2195V15.7443H24.4153ZM25.2195 17.2264H24.4153V18.5754H25.2195V17.2264Z" fill="#221815"/>
<path d="M25.2845 20.1059H24.3503V18.6279H25.2845V20.1059ZM25.2845 21.5881H24.3503V20.1059H25.2845V21.5881Z" fill="white"/>
<path fill-rule="evenodd" clip-rule="evenodd" d="M24.2852 18.5635H25.3495V21.6537H24.2852V18.5635ZM24.4153 18.6936V20.0415H25.2195V18.6936H24.4153ZM25.2195 20.1716H24.4153V21.5236H25.2195V20.1716Z" fill="#221815"/>
<path d="M25.2845 23.0543H24.3503V21.5742H25.2845V23.0543Z" fill="white"/>
<path fill-rule="evenodd" clip-rule="evenodd" d="M24.2852 21.5088H25.3495V23.119H24.2852V21.5088ZM24.4153 21.6389V22.9889H25.2195V21.6389H24.4153Z" fill="#221815"/>
<path d="M25.2845 24.5245H24.3503V23.041H25.2845V24.5245Z" fill="white"/>
<path fill-rule="evenodd" clip-rule="evenodd" d="M24.2852 22.9756H25.3495V24.5892H24.2852V22.9756ZM24.4153 23.1057V24.4591H25.2195V23.1057H24.4153Z" fill="#221815"/>
<path d="M25.2845 26.0036H24.3503V24.5244H25.2845V26.0036Z" fill="#221815"/>
<path fill-rule="evenodd" clip-rule="evenodd" d="M24.2852 24.459H25.3495V26.0682H24.2852V24.459ZM24.4153 24.5891V25.9381H25.2195V24.5891H24.4153Z" fill="#221815"/>
<path d="M26.2308 12.7447H25.2962V11.2656H26.2308V12.7447Z" fill="white"/>
<path fill-rule="evenodd" clip-rule="evenodd" d="M25.2312 11.2002H26.2959V12.8093H25.2312V11.2002ZM25.3613 11.3303V12.6793H26.1658V11.3303H25.3613Z" fill="#221815"/>
<path d="M26.2308 14.2135H25.2962V12.7314H26.2308V14.2135Z" fill="white"/>
<path fill-rule="evenodd" clip-rule="evenodd" d="M25.2312 12.667H26.2959V14.2791H25.2312V12.667ZM25.3613 12.7971V14.1491H26.1658V12.7971H25.3613Z" fill="#221815"/>
<path d="M26.2308 15.6921H25.2962V14.2129H26.2308V15.6921Z" fill="white"/>
<path fill-rule="evenodd" clip-rule="evenodd" d="M25.2312 14.1484H26.2959V15.7577H25.2312V14.1484ZM25.3613 14.2785V15.6276H26.1658V14.2785H25.3613Z" fill="#221815"/>
<path d="M26.2308 17.1618H25.2962V15.6797H26.2308V17.1618ZM26.2308 18.6408H25.2962V17.1618H26.2308V18.6408Z" fill="white"/>
<path fill-rule="evenodd" clip-rule="evenodd" d="M25.2312 15.6143H26.2959V18.7055H25.2312V15.6143ZM25.3613 15.7443V17.0963H26.1658V15.7443H25.3613ZM26.1658 17.2264H25.3613V18.5754H26.1658V17.2264Z" fill="#221815"/>
<path d="M26.2308 20.1059H25.2962V18.6279H26.2308V20.1059ZM26.2308 21.5881H25.2962V20.1059H26.2308V21.5881Z" fill="white"/>
<path fill-rule="evenodd" clip-rule="evenodd" d="M25.2312 18.5635H26.2959V21.6537H25.2312V18.5635ZM25.3613 18.6936V20.0415H26.1658V18.6936H25.3613ZM26.1658 20.1716H25.3613V21.5236H26.1658V20.1716Z" fill="#221815"/>
<path d="M26.2308 23.0543H25.2962V21.5742H26.2308V23.0543Z" fill="white"/>
<path fill-rule="evenodd" clip-rule="evenodd" d="M25.2312 21.5088H26.2959V23.119H25.2312V21.5088ZM25.3613 21.6389V22.9889H26.1658V21.6389H25.3613Z" fill="#221815"/>
<path d="M26.2308 24.5245H25.2962V23.041H26.2308V24.5245Z" fill="#221815"/>
<path fill-rule="evenodd" clip-rule="evenodd" d="M25.2312 22.9756H26.2959V24.5892H25.2312V22.9756ZM25.3613 23.1057V24.4591H26.1658V23.1057H25.3613Z" fill="#221815"/>
<path d="M26.2308 26.0031H25.2962V24.5239H26.2308V26.0031ZM27.1899 14.2135H26.2566V12.7314H27.1899V14.2135Z" fill="white"/>
<path fill-rule="evenodd" clip-rule="evenodd" d="M26.1916 12.667H27.2549V14.2791H26.1916V12.667ZM26.3217 12.7971V14.1491H27.1249V12.7971H26.3217ZM25.2312 24.4595H26.2959V26.0687H25.2312V24.4595ZM25.3613 24.5895V25.9386H26.1658V24.5895H25.3613Z" fill="#221815"/>
<path d="M27.1899 15.6921H26.2566V14.2129H27.1899V15.6921Z" fill="white"/>
<path fill-rule="evenodd" clip-rule="evenodd" d="M26.1915 14.1484H27.2549V15.7577H26.1915V14.1484ZM26.3216 14.2785V15.6276H27.1248V14.2785H26.3216Z" fill="#221815"/>
<path d="M27.1899 17.1618H26.2566V15.6797H27.1899V17.1618ZM27.1899 18.6408H26.2566V17.1618H27.1899V18.6408Z" fill="white"/>
<path fill-rule="evenodd" clip-rule="evenodd" d="M26.1915 15.6143H27.2549V18.7055H26.1915V15.6143ZM26.3216 15.7443V17.0963H27.1248V15.7443H26.3216ZM27.1248 17.2264H26.3216V18.5754H27.1248V17.2264Z" fill="#221815"/>
<path d="M27.1899 20.1059H26.2566V18.6279H27.1899V20.1059ZM27.1899 21.5881H26.2566V20.1059H27.1899V21.5881Z" fill="white"/>
<path fill-rule="evenodd" clip-rule="evenodd" d="M26.1915 18.5635H27.2549V21.6537H26.1915V18.5635ZM26.3216 18.6936V20.0415H27.1248V18.6936H26.3216ZM27.1248 20.1716H26.3216V21.5236H27.1248V20.1716Z" fill="#221815"/>
<path d="M27.1899 23.0543H26.2566V21.5742H27.1899V23.0543Z" fill="white"/>
<path fill-rule="evenodd" clip-rule="evenodd" d="M26.1915 21.5088H27.2549V23.119H26.1915V21.5088ZM26.3216 21.6389V22.9889H27.1248V21.6389H26.3216Z" fill="#221815"/>
<path d="M27.1899 24.5239H26.2566V23.0404H27.1899V24.5239ZM28.1493 15.6921H27.2161V14.2129H28.1493V15.6921Z" fill="white"/>
<path fill-rule="evenodd" clip-rule="evenodd" d="M27.151 14.1484H28.2143V15.7577H27.151V14.1484ZM27.2811 14.2785V15.6276H28.0842V14.2785H27.2811ZM26.1915 22.9759H27.2549V24.5895H26.1915V22.9759ZM26.3216 23.106V24.4594H27.1248V23.106H26.3216Z" fill="#221815"/>
<path d="M28.1492 17.1618H27.2161V15.6797H28.1492V17.1618ZM28.1492 18.6408H27.2161V17.1618H28.1492V18.6408Z" fill="white"/>
<path fill-rule="evenodd" clip-rule="evenodd" d="M27.1511 15.6143H28.2143V18.7055H27.1511V15.6143ZM27.2811 15.7443V17.0963H28.0842V15.7443H27.2811ZM28.0842 17.2264H27.2811V18.5754H28.0842V17.2264Z" fill="#221815"/>
<path d="M28.1492 20.1059H27.2161V18.6279H28.1492V20.1059ZM28.1492 21.5881H27.2161V20.1059H28.1492V21.5881Z" fill="white"/>
<path fill-rule="evenodd" clip-rule="evenodd" d="M27.1511 18.5635H28.2143V21.6537H27.1511V18.5635ZM27.2811 18.6936V20.0415H28.0842V18.6936H27.2811ZM28.0842 20.1716H27.2811V21.5236H28.0842V20.1716Z" fill="#221815"/>
<path d="M28.1492 23.0543H27.2161V21.5742H28.1492V23.0543Z" fill="white"/>
<path fill-rule="evenodd" clip-rule="evenodd" d="M27.1511 21.5088H28.2143V23.119H27.1511V21.5088ZM27.2811 21.6389V22.9889H28.0842V21.6389H27.2811Z" fill="#221815"/>
<path d="M28.1492 24.5247H27.2161V23.0412H28.1492V24.5247ZM29.1108 17.1618H28.1775V15.6797H29.1108V17.1618ZM29.1108 18.6408H28.1775V17.1618H29.1108V18.6408Z" fill="white"/>
<path fill-rule="evenodd" clip-rule="evenodd" d="M28.1125 15.6143H29.1759V18.7055H28.1125V15.6143ZM28.2426 15.7443V17.0963H29.0458V15.7443H28.2426ZM29.0458 17.2264H28.2426V18.5754H29.0458V17.2264ZM27.1511 22.9757H28.2143V24.5893H27.1511V22.9757ZM27.2811 23.1058V24.4592H28.0842V23.1058H27.2811Z" fill="#221815"/>
<path d="M29.1108 20.1059H28.1776V18.6279H29.1108V20.1059ZM29.1108 21.5881H28.1776V20.1059H29.1108V21.5881Z" fill="white"/>
<path fill-rule="evenodd" clip-rule="evenodd" d="M28.1125 18.5635H29.1758V21.6537H28.1125V18.5635ZM28.2426 18.6936V20.0415H29.0458V18.6936H28.2426ZM29.0458 20.1716H28.2426V21.5236H29.0458V20.1716Z" fill="#221815"/>
<path d="M30.0418 20.1061L29.1231 20.1071V18.6291L30.1468 18.624L30.0418 20.1061Z" fill="white"/>
<path fill-rule="evenodd" clip-rule="evenodd" d="M30.2166 18.5586L30.1024 20.1711L29.058 20.1722V18.5643L30.2166 18.5586ZM29.1882 18.6938V20.0419L29.9812 20.0411L30.0769 18.6894L29.1882 18.6938Z" fill="#221815"/>
<path d="M12.8554 12.8782V14.214H13.7866V12.7324H12.9689C12.929 12.7789 12.8917 12.8288 12.8554 12.8782Z" fill="white"/>
<path fill-rule="evenodd" clip-rule="evenodd" d="M12.939 12.667H13.8516V14.2787H12.7903V12.8566L12.803 12.8394C12.8393 12.7898 12.8779 12.7382 12.9195 12.6897L12.939 12.667ZM12.9992 12.7971C12.9724 12.8298 12.9464 12.8641 12.9205 12.8992V14.1486H13.7215V12.7971H12.9992Z" fill="#221815"/>
<path d="M12.839 14.2139H11.9982C11.9669 14.2719 11.9352 14.3309 11.9038 14.3939V15.6929H12.8391L12.839 14.2139Z" fill="white"/>
<path fill-rule="evenodd" clip-rule="evenodd" d="M11.9594 14.1494H12.9041L12.9042 15.7586H11.8387V14.3792L11.8456 14.3656C11.8774 14.3015 11.9097 14.2416 11.941 14.1836L11.9594 14.1494ZM12.0371 14.2796C12.0142 14.3221 11.9914 14.3651 11.9689 14.4099V15.6285H12.7741L12.774 14.2796H12.0371Z" fill="#221815"/>
<path d="M29.1107 14.3667C29.0845 14.3143 29.0583 14.2633 29.0335 14.2139H28.1774V15.693H29.1107V14.3667Z" fill="white"/>
<path fill-rule="evenodd" clip-rule="evenodd" d="M28.1124 14.1484H29.0737L29.0917 14.1844C29.1026 14.2061 29.1148 14.2302 29.1273 14.2549C29.1414 14.2826 29.1557 14.3109 29.1689 14.3373L29.1758 14.351V15.7577H28.1124V14.1484ZM28.2425 14.2786V15.6276H29.0456V14.3818C29.0339 14.3584 29.0228 14.3366 29.0119 14.315C29.0057 14.3029 28.9996 14.2908 28.9934 14.2786H28.2425Z" fill="#221815"/>
<path d="M28.1496 12.8439C28.1218 12.8056 28.0925 12.7692 28.0628 12.7324H27.2163V14.2145H28.1496V12.8439Z" fill="white"/>
<path fill-rule="evenodd" clip-rule="evenodd" d="M27.1512 12.667H28.0938L28.1134 12.6912C28.143 12.7278 28.1733 12.7654 28.2022 12.8053L28.2146 12.8224V14.2792H27.1512V12.667ZM27.2813 12.7971V14.1491H28.0845V12.8649C28.0675 12.8422 28.0499 12.8199 28.0316 12.7971H27.2813Z" fill="#221815"/>
<path d="M24.1592 9.78613H23.389V11.2662H24.3186V9.85222C24.2682 9.82851 24.2141 9.80887 24.1592 9.78613Z" fill="white"/>
<path fill-rule="evenodd" clip-rule="evenodd" d="M23.324 9.72168H24.1722L24.1841 9.72664C24.2006 9.73348 24.218 9.74039 24.2357 9.74743C24.2727 9.76212 24.3112 9.77741 24.3463 9.79395L24.3837 9.81153V11.3319H23.324V9.72168ZM23.4541 9.85183V11.2017H24.2536V9.89509C24.234 9.88678 24.2139 9.87882 24.1929 9.87047C24.1779 9.86455 24.1625 9.85842 24.1463 9.85183H23.4541Z" fill="#221815"/>
<path d="M17.6132 9.51562C17.353 9.59941 17.0962 9.69423 16.8429 9.79863H17.6132V9.51562Z" fill="white"/>
<path fill-rule="evenodd" clip-rule="evenodd" d="M17.6783 9.42578V9.86317H16.8429L16.8181 9.73793C17.0729 9.63292 17.3313 9.5375 17.5933 9.45315L17.6783 9.42578ZM17.1858 9.73302H17.5482V9.60484C17.4266 9.64521 17.3059 9.68799 17.1858 9.73302Z" fill="#221815"/>
<path d="M17.6403 9.50788V9.79843H18.5755V9.26367C18.2593 9.3313 17.947 9.41354 17.6403 9.50788Z" fill="white"/>
<path fill-rule="evenodd" clip-rule="evenodd" d="M18.6406 9.18262V9.86291H17.5753V9.45921L17.6212 9.44508C17.9296 9.35023 18.2437 9.2675 18.5619 9.19944L18.6406 9.18262ZM17.7054 9.55545V9.73276H18.5105V9.34386C18.2388 9.40417 17.9701 9.47524 17.7054 9.55545Z" fill="#221815"/>
<path d="M18.6015 9.25804V9.79792H19.5347V9.11523C19.2213 9.14634 18.9098 9.19407 18.6015 9.25804Z" fill="white"/>
<path fill-rule="evenodd" clip-rule="evenodd" d="M19.5997 9.04395V9.86356H18.5364V9.20565L18.5882 9.19489C18.8988 9.13046 19.2126 9.08237 19.5282 9.05104L19.5997 9.04395ZM18.6665 9.31173V9.73342H19.4696V9.18795C19.2001 9.21691 18.9322 9.25825 18.6665 9.31173Z" fill="#221815"/>
<path d="M20.4966 9.06738C20.1798 9.06835 19.8706 9.08402 19.5618 9.11576V9.79835H20.4965L20.4966 9.06738Z" fill="white"/>
<path fill-rule="evenodd" clip-rule="evenodd" d="M20.5617 9.00195L20.5615 9.86327H19.4968V9.05687L19.5552 9.05087C19.8662 9.0189 20.1776 9.00313 20.4964 9.00215L20.5617 9.00195ZM19.6269 9.17452V9.73312H20.4314L20.4315 9.13271C20.1594 9.1353 19.8928 9.14896 19.6269 9.17452Z" fill="#221815"/>
<path d="M21.4547 9.79843V9.11284C21.1446 9.08197 20.8331 9.06615 20.5214 9.06543V9.79843H21.4547Z" fill="white"/>
<path fill-rule="evenodd" clip-rule="evenodd" d="M20.4564 9L20.5216 9.00015C20.8354 9.00087 21.1489 9.0168 21.4612 9.04788L21.5198 9.05371V9.8633H20.4564V9ZM20.5865 9.13067V9.73315H21.3896V9.17173C21.1226 9.14681 20.8547 9.13311 20.5865 9.13067Z" fill="#221815"/>
<path d="M21.47 9.11328V9.79771H22.4027V9.25299C22.0946 9.18958 21.7832 9.14295 21.47 9.11328Z" fill="white"/>
<path fill-rule="evenodd" clip-rule="evenodd" d="M21.405 9.04199L21.4762 9.04874C21.7917 9.07862 22.1054 9.12561 22.4159 9.18949L22.4678 9.20019V9.86303H21.405V9.04199ZM21.5351 9.18535V9.73288H22.3377V9.30645C22.0722 9.25352 21.8044 9.21311 21.5351 9.18535Z" fill="#221815"/>
<path d="M23.3889 9.50391V9.79852H24.1938C23.9276 9.69006 23.6627 9.58963 23.3889 9.50391Z" fill="white"/>
<path fill-rule="evenodd" clip-rule="evenodd" d="M23.3237 9.41504L23.4082 9.4415C23.6844 9.52796 23.9512 9.62912 24.2183 9.73795L24.1938 9.86329H23.3237V9.41504ZM23.4539 9.59272V9.73314H23.8511C23.7196 9.68339 23.5876 9.63633 23.4539 9.59272Z" fill="#221815"/>
<path d="M25.2844 10.3384C24.9815 10.1647 24.6697 10.0071 24.3502 9.86621V11.2666H25.2844V10.3384Z" fill="white"/>
<path fill-rule="evenodd" clip-rule="evenodd" d="M24.2851 9.7666L24.3764 9.80687C24.698 9.94865 25.0119 10.1073 25.3168 10.2821L25.3495 10.3009V11.3319H24.2851V9.7666ZM24.4152 9.96677V11.2017H25.2193V10.3763C24.9577 10.2276 24.6894 10.091 24.4152 9.96677Z" fill="#221815"/>
<path d="M25.2962 10.3447V11.2658H26.2309V10.9536C25.9309 10.7335 25.6188 10.5303 25.2962 10.3447Z" fill="white"/>
<path fill-rule="evenodd" clip-rule="evenodd" d="M25.2311 10.2324L25.3287 10.2885C25.6533 10.4752 25.9674 10.6798 26.2694 10.9013L26.296 10.9208V11.3311H25.2311V10.2324ZM25.3613 10.4582V11.2009H26.1659V10.9868C25.9063 10.7978 25.6378 10.6214 25.3613 10.4582Z" fill="#221815"/>
<path d="M26.2568 10.9746V11.2661H26.6286C26.5072 11.1658 26.3833 11.0685 26.2569 10.9746" fill="white"/>
<path fill-rule="evenodd" clip-rule="evenodd" d="M26.1917 10.9092H26.2784L26.2957 10.922C26.423 11.0166 26.5479 11.1145 26.6701 11.2156L26.8094 11.3308H26.1917V10.9092ZM26.3219 11.1048C26.3632 11.1364 26.4042 11.1684 26.4449 11.2007H26.3219V11.1048Z" fill="#221815"/>
<path d="M26.6288 11.2666H26.257V12.7457H27.1897V11.7711C27.0097 11.5975 26.8234 11.4261 26.6288 11.2666Z" fill="white"/>
<path fill-rule="evenodd" clip-rule="evenodd" d="M26.1919 11.2012H26.652L26.67 11.2159C26.8666 11.3769 27.0542 11.5497 27.2348 11.7239L27.2547 11.7431V12.8104H26.1919V11.2012ZM26.322 11.3313V12.6802H27.1246V11.7984C26.9571 11.6374 26.7847 11.4792 26.6055 11.3313H26.322Z" fill="#221815"/>
<path d="M28.1776 12.8779V14.2137H29.0332C28.7838 13.7465 28.4977 13.2999 28.1776 12.8779Z" fill="white"/>
<path fill-rule="evenodd" clip-rule="evenodd" d="M28.1125 12.6846L28.2295 12.8387C28.5516 13.2634 28.8396 13.713 29.0906 14.1832L29.1417 14.2789H28.1125V12.6846ZM28.2427 13.0747V14.1487H28.924C28.72 13.7765 28.4925 13.4178 28.2427 13.0747Z" fill="#221815"/>
<path d="M29.123 14.3926V15.693H29.6623C29.5156 15.2466 29.3353 14.8118 29.123 14.3926Z" fill="white"/>
<path fill-rule="evenodd" clip-rule="evenodd" d="M29.0579 14.3927L29.181 14.3633C29.3949 14.7855 29.5764 15.2232 29.7241 15.6728L29.7522 15.7582H29.0579V14.3927ZM29.1881 14.6746V15.6281H29.572C29.4618 15.3033 29.3336 14.985 29.1881 14.6746Z" fill="#221815"/>
<path d="M29.6609 15.6807H29.1232V17.1627H30.0232C29.9419 16.6532 29.8183 16.1604 29.6609 15.6807Z" fill="white"/>
<path fill-rule="evenodd" clip-rule="evenodd" d="M29.0581 15.6152H29.7081L29.7228 15.66C29.8812 16.1427 30.0056 16.6389 30.0874 17.1521L30.0995 17.2274H29.0581V15.6152ZM29.1883 15.7454V17.0973H29.9466C29.8686 16.634 29.7555 16.1842 29.6137 15.7454H29.1883Z" fill="#221815"/>
<path d="M29.7102 21.5752H29.123V23.0119C29.355 22.5523 29.5543 22.0727 29.7102 21.5752Z" fill="white"/>
<path fill-rule="evenodd" clip-rule="evenodd" d="M29.0579 21.5098H29.7988L29.7723 21.5943C29.6153 22.0955 29.4145 22.5784 29.1811 23.0409L29.0579 23.0115V21.5098ZM29.1881 21.6399V22.7297C29.3539 22.3772 29.4998 22.0136 29.6211 21.6399H29.1881Z" fill="#221815"/>
<path d="M28.1776 23.041V24.5245H28.1862C28.5369 24.0605 28.843 23.562 29.1099 23.041H28.1776Z" fill="white"/>
<path fill-rule="evenodd" clip-rule="evenodd" d="M28.1125 22.9756H29.2164L29.1679 23.0703C28.8994 23.5943 28.5913 24.096 28.2382 24.5634L28.2186 24.5893H28.1125V22.9756ZM28.2427 23.1057V24.3385C28.5253 23.9484 28.7777 23.5353 29.0029 23.1057H28.2427Z" fill="#221815"/>
<path d="M27.2166 25.6141C27.552 25.2892 27.8638 24.9409 28.1498 24.5718V24.5254H27.2165L27.2166 25.6141Z" fill="white"/>
<path fill-rule="evenodd" clip-rule="evenodd" d="M27.1514 24.46H28.2148V24.5937L28.2012 24.6113C27.9133 24.9829 27.5994 25.3335 27.2618 25.6604L27.1515 25.7673L27.1514 24.46ZM27.2815 24.5901L27.2816 25.4584C27.5556 25.1845 27.813 24.8946 28.0526 24.5901H27.2815Z" fill="#221815"/>
<path d="M26.2568 26.0034H26.7936C26.9308 25.8863 27.0599 25.7638 27.1901 25.6386V24.5244H26.2569L26.2568 26.0034Z" fill="white"/>
<path fill-rule="evenodd" clip-rule="evenodd" d="M26.1918 24.46H27.2551V25.6669L27.2352 25.6861C27.105 25.8114 26.9746 25.9351 26.8358 26.0535L26.8176 26.0691H26.1917L26.1918 24.46ZM26.322 24.5901L26.3219 25.9389H26.7695C26.8915 25.8339 27.0076 25.7243 27.125 25.6115V24.5901H26.322Z" fill="#221815"/>
<path d="M26.2568 25.9883V26.4347C26.4469 26.2934 26.6312 26.1445 26.8092 25.9883H26.2568Z" fill="white"/>
<path fill-rule="evenodd" clip-rule="evenodd" d="M26.1917 25.9229H26.9821L26.8522 26.0368C26.6728 26.1942 26.4871 26.3443 26.2956 26.4866L26.1917 26.5638V25.9229ZM26.3219 26.053V26.3037C26.4277 26.2225 26.5317 26.1389 26.6338 26.053H26.3219Z" fill="#221815"/>
<path d="M25.2962 27.0613C25.6186 26.8731 25.9319 26.6758 26.2309 26.4554V25.9883H25.2963L25.2962 27.0613Z" fill="white"/>
<path fill-rule="evenodd" clip-rule="evenodd" d="M25.2313 25.9229H26.296V26.4879L26.2696 26.5074C25.968 26.7297 25.6526 26.9282 25.329 27.1171L25.2311 27.1743L25.2313 25.9229ZM25.3614 26.053L25.3613 26.9471C25.6384 26.7827 25.9076 26.6107 26.1659 26.4221V26.053H25.3614Z" fill="#221815"/>
<path d="M24.3503 27.4674H24.5108C24.7751 27.3484 25.0334 27.2102 25.2846 27.0675V25.9873H24.3503V27.4674Z" fill="white"/>
<path fill-rule="evenodd" clip-rule="evenodd" d="M24.2853 25.9229H25.3497V27.1059L25.3167 27.1247C25.0647 27.2679 24.8044 27.4072 24.5375 27.5274L24.5247 27.5331H24.2853V25.9229ZM24.4154 26.053V27.403H24.4968C24.7426 27.2916 24.9837 27.1634 25.2195 27.0302V26.053H24.4154Z" fill="#221815"/>
<path d="M16.6684 25.9883H15.7341V27.0673C15.9859 27.211 16.2426 27.3488 16.508 27.4683H16.6684V25.9883Z" fill="white"/>
<path fill-rule="evenodd" clip-rule="evenodd" d="M15.669 25.9229H16.7334V27.533H16.4939L16.4812 27.5273C16.2131 27.4066 15.9545 27.2677 15.7018 27.1234L15.669 27.1047V25.9229ZM15.7992 26.053V27.0291C16.0354 27.1632 16.2751 27.2911 16.5219 27.4029H16.6033V26.053H15.7992Z" fill="#221815"/>
<path d="M14.7752 26.4423C15.0722 26.6637 15.3856 26.8651 15.7079 27.0512V25.9883H14.7752V26.4423Z" fill="white"/>
<path fill-rule="evenodd" clip-rule="evenodd" d="M14.7101 25.9229H15.7729V27.1636L15.6753 27.1072C15.3513 26.92 15.0357 26.7173 14.7363 26.4942L14.7101 26.4746V25.9229ZM14.8402 26.053V26.4092C15.097 26.599 15.3661 26.774 15.6428 26.9375V26.053H14.8402Z" fill="#221815"/>
<path d="M14.7476 26.4206V25.9883H14.2103C14.3836 26.1394 14.5628 26.2837 14.7476 26.4206Z" fill="white"/>
<path fill-rule="evenodd" clip-rule="evenodd" d="M14.0367 25.9229H14.8127V26.5494L14.7089 26.4725C14.5227 26.3346 14.3422 26.1893 14.1676 26.037L14.0367 25.9229ZM14.3867 26.053C14.4835 26.1341 14.5822 26.213 14.6825 26.2898V26.053H14.3867Z" fill="#221815"/>
<path d="M13.8135 25.6231C13.948 25.753 14.0854 25.8798 14.2257 26.0034H14.7478V24.5244H13.8135V25.6231Z" fill="white"/>
<path fill-rule="evenodd" clip-rule="evenodd" d="M13.7485 24.46H14.8129V26.0691H14.2011L14.1827 26.0528C14.0417 25.9286 13.9035 25.8011 13.7683 25.6706L13.7485 25.6514V24.46ZM13.8786 24.5901V25.5961C14.0001 25.7129 14.1241 25.8272 14.2503 25.9389H14.6827V24.5901H13.8786Z" fill="#221815"/>
<path d="M12.8554 24.5461C13.1406 24.918 13.4518 25.2694 13.7866 25.5974V24.5244H12.8555L12.8554 24.5461Z" fill="white"/>
<path fill-rule="evenodd" clip-rule="evenodd" d="M12.7907 24.46H13.8516V25.7529L13.741 25.6445C13.404 25.3143 13.0908 24.9607 12.8038 24.5863L12.7902 24.5687L12.7907 24.46ZM12.9714 24.5901C13.2049 24.888 13.4553 25.1723 13.7215 25.4414V24.5901H12.9714Z" fill="#221815"/>
<path d="M12.8391 23.041H11.9155C12.1783 23.562 12.4855 24.0605 12.8356 24.5245H12.8392L12.8391 23.041Z" fill="white"/>
<path fill-rule="evenodd" clip-rule="evenodd" d="M11.8098 22.9756H12.9042L12.9043 24.5893H12.8032L12.7836 24.5634C12.4311 24.0961 12.1219 23.5943 11.8574 23.07L11.8098 22.9756ZM12.0218 23.1057C12.2427 23.5325 12.4938 23.9433 12.7741 24.3313L12.774 23.1057H12.0218Z" fill="#221815"/>
<path d="M11.8805 20.1074H10.9827C11.0562 20.6169 11.1728 21.1103 11.323 21.5895H11.8805V20.1074Z" fill="white"/>
<path fill-rule="evenodd" clip-rule="evenodd" d="M10.9075 20.042H11.9456V21.6542H11.2753L11.261 21.6086C11.1098 21.1264 10.9923 20.6296 10.9183 20.1164L10.9075 20.042ZM11.0581 20.1721C11.1291 20.6355 11.2357 21.0856 11.371 21.5241H11.8155V20.1721H11.0581Z" fill="#221815"/>
<path d="M11.8805 22.9706V21.5752H11.3205C11.4709 22.059 11.6595 22.522 11.8805 22.9704" fill="white"/>
<path fill-rule="evenodd" clip-rule="evenodd" d="M11.2321 21.5098H11.9456V22.9702H11.8801L11.8221 22.9988C11.5998 22.5477 11.4098 22.0814 11.2583 21.5942L11.2321 21.5098ZM11.8154 22.6818V21.6399H11.4093C11.5244 21.9976 11.6605 22.344 11.8154 22.6818Z" fill="#221815"/>
<path d="M11.8805 17.1621H11.0083C10.9825 17.3049 10.9639 17.4497 10.9452 17.5975L10.8948 18.6468L11.8805 18.6412V17.1621Z" fill="white"/>
<path fill-rule="evenodd" clip-rule="evenodd" d="M10.9539 17.0967H11.9456V18.7055L10.8265 18.7119L10.8804 17.5915L10.8807 17.589C10.8993 17.4413 10.9182 17.2949 10.9443 17.1502L10.9539 17.0967ZM11.0631 17.2268C11.0424 17.3496 11.0263 17.4744 11.0101 17.6028L10.9631 18.581L11.8155 18.5761V17.2268H11.0631Z" fill="#221815"/>
<path d="M11.8805 17.1618V15.6797H11.3715C11.2111 16.1632 11.0896 16.6588 11.0083 17.1618H11.8805Z" fill="white"/>
<path fill-rule="evenodd" clip-rule="evenodd" d="M11.3245 15.6152H11.9456V17.2274H10.9318L10.944 17.152C11.0259 16.6456 11.1482 16.1467 11.3097 15.6598L11.3245 15.6152ZM11.4186 15.7454C11.2744 16.1872 11.1629 16.6391 11.085 17.0973H11.8154V15.7454H11.4186Z" fill="#221815"/>
<path d="M11.8805 15.6934V14.4424C11.6801 14.847 11.508 15.265 11.3654 15.6934H11.8805Z" fill="white"/>
<path fill-rule="evenodd" clip-rule="evenodd" d="M11.3036 15.6724C11.4471 15.2412 11.6204 14.8204 11.8222 14.4131L11.9456 14.442V15.7581H11.2751L11.3036 15.6724ZM11.4561 15.6279H11.8154V14.7294C11.6808 15.0227 11.5608 15.3226 11.4561 15.6279Z" fill="#221815"/>
<path d="M13.7865 12.7453V11.8223C13.4907 12.1118 13.2139 12.4201 12.9577 12.7453H13.7865Z" fill="white"/>
<path fill-rule="evenodd" clip-rule="evenodd" d="M13.8515 11.667V12.8099H12.8235L12.9065 12.7045C13.1644 12.3772 13.4431 12.0668 13.7409 11.7753L13.8515 11.667ZM13.093 12.6797H13.7214V11.9783C13.5005 12.2017 13.2908 12.4357 13.093 12.6797Z" fill="#221815"/>
<path d="M13.8135 12.7455H14.7478V11.2666H14.4053C14.1984 11.4341 14.0042 11.6137 13.8135 11.7998V12.7455Z" fill="white"/>
<path fill-rule="evenodd" clip-rule="evenodd" d="M14.3823 11.2012H14.8129V12.8102H13.7485V11.772L13.7681 11.7529C13.9596 11.566 14.1553 11.3849 14.3643 11.2157L14.3823 11.2012ZM14.4284 11.3313C14.2373 11.4872 14.0567 11.6538 13.8786 11.8269V12.68H14.6827V11.3313H14.4284Z" fill="#221815"/>
<path d="M14.7476 10.9971C14.6315 11.0842 14.5173 11.1739 14.4051 11.2659H14.7476V10.9971Z" fill="white"/>
<path fill-rule="evenodd" clip-rule="evenodd" d="M14.8127 10.8672V11.3314H14.2231L14.3638 11.216C14.4768 11.1234 14.5917 11.0331 14.7085 10.9454L14.8127 10.8672ZM14.5897 11.2012H14.6825V11.1288C14.6514 11.1527 14.6205 11.1769 14.5897 11.2012Z" fill="#221815"/>
<path d="M14.7752 10.9752V11.2658H15.7079V10.3623C15.3836 10.5494 15.0722 10.7517 14.7752 10.9752Z" fill="white"/>
<path fill-rule="evenodd" clip-rule="evenodd" d="M15.7729 10.25V11.3312H14.7101V10.9431L14.736 10.9236C15.0354 10.6983 15.3491 10.4946 15.6753 10.3063L15.7729 10.25ZM14.8402 11.0082V11.2011H15.6428V10.4761C15.3649 10.6404 15.0971 10.8165 14.8402 11.0082Z" fill="#221815"/>
<path d="M16.6684 9.87402C16.3487 10.0147 16.0369 10.1725 15.7341 10.3467V11.2663H16.6684V9.87402Z" fill="white"/>
<path fill-rule="evenodd" clip-rule="evenodd" d="M16.7334 9.77441V11.3315H15.669V10.3092L15.7016 10.2904C16.0064 10.1151 16.3203 9.95626 16.6421 9.8146L16.7334 9.77441ZM15.7992 10.3845V11.2014H16.6033V9.97447C16.329 10.0986 16.0607 10.2354 15.7992 10.3845Z" fill="#221815"/>
<path d="M16.6802 11.2661H17.6135V9.78613H16.8764C16.8123 9.81284 16.7463 9.8406 16.6802 9.86837V11.2661Z" fill="white"/>
<path fill-rule="evenodd" clip-rule="evenodd" d="M16.8633 9.72168H17.6785V11.3318H16.6151V9.82575L16.655 9.80896C16.721 9.78122 16.7872 9.75342 16.8513 9.72669L16.8633 9.72168ZM16.8894 9.85183C16.8421 9.87156 16.7938 9.89183 16.7452 9.91224V11.2016H17.5483V9.85183H16.8894Z" fill="#221815"/>
<path d="M30.058 17.3906C30.0464 17.3119 30.0353 17.2368 30.0232 17.1621H29.1227V18.6412L30.1467 18.6508L30.058 17.3906Z" fill="white"/>
<path fill-rule="evenodd" clip-rule="evenodd" d="M29.0594 17.0986H30.0771L30.0857 17.1518C30.0978 17.227 30.109 17.3025 30.1206 17.3812L30.121 17.3836L30.2147 18.7145L29.0594 18.7037V17.0986ZM29.186 17.2253V18.5783L30.0788 18.5866L29.995 17.3973C29.9863 17.3382 29.9779 17.2813 29.9691 17.2253H29.186Z" fill="#221815"/>
<path d="M29.123 20.1074V21.5895H29.7056C29.8587 21.1054 29.9726 20.6098 30.0462 20.1074H29.123Z" fill="white"/>
<path fill-rule="evenodd" clip-rule="evenodd" d="M29.0579 20.042H30.1215L30.1106 20.1165C30.0365 20.6223 29.9218 21.1213 29.7677 21.6087L29.7533 21.6542H29.0579V20.042ZM29.1881 20.1721V21.5241H29.6578C29.7952 21.0817 29.8998 20.6299 29.9706 20.1721H29.1881Z" fill="#221815"/>
<path d="M29.1107 21.5752H28.1774V23.0552H29.1011C29.1041 23.0492 29.1077 23.0411 29.1107 23.0356V21.5752Z" fill="white"/>
<path fill-rule="evenodd" clip-rule="evenodd" d="M28.1124 21.5098H29.1758V23.0518L29.1679 23.0663C29.1665 23.0688 29.1658 23.0703 29.1648 23.0726C29.1638 23.0749 29.1623 23.078 29.1593 23.084L29.1414 23.1199H28.1124V21.5098ZM28.2425 21.6399V22.9898H29.0456V21.6399H28.2425Z" fill="#221815"/>
<path d="M11.9234 23.0553H12.8389V21.5752H11.9036V23.0219C11.9113 23.0315 11.9162 23.0417 11.9234 23.0553Z" fill="white"/>
<path fill-rule="evenodd" clip-rule="evenodd" d="M11.8386 21.5098H12.904V23.12H11.884L11.8644 23.0826C11.8569 23.0684 11.8554 23.0655 11.8528 23.0622L11.8386 23.0444V21.5098ZM11.9687 21.6399V22.9899H12.7739V21.6399H11.9687Z" fill="#221815"/>
<path d="M10.9823 20.107H11.8803V18.6289L10.8946 18.6309L10.9456 19.7816C10.9577 19.89 10.9668 20.0005 10.9823 20.107Z" fill="white"/>
<path fill-rule="evenodd" clip-rule="evenodd" d="M11.9454 18.5635V20.1719H10.9261L10.918 20.1162C10.9072 20.0422 10.8993 19.9653 10.8916 19.8902C10.8881 19.8558 10.8846 19.8218 10.8809 19.7886L10.8807 19.7865L10.8266 18.5658L11.9454 18.5635ZM10.9626 18.6957L11.0105 19.7764C11.0144 19.8115 11.018 19.8461 11.0215 19.8805C11.027 19.935 11.0325 19.9886 11.0392 20.0417H11.8153V18.6939L10.9626 18.6957Z" fill="#221815"/>
<path d="M31.059 29.0544V28.6574L9.77264 28.6699V29.4711L31.059 29.4555V29.0544ZM30.3732 16.2529C28.3999 16.2529 26.8925 17.2804 26.8925 19.0687C26.8925 20.5762 28.2657 21.6414 30.1064 21.6414C31.5073 21.6414 32.667 20.6285 33 19.9879C33 19.7901 32.7997 19.7074 32.6145 19.7074C32.2937 20.2008 31.3872 20.5761 31.0149 20.5614C28.7867 20.4808 28.4266 19.5878 28.3999 18.6551C28.3584 17.6411 29.4531 16.7593 30.3874 16.8284C30.9322 16.8659 31.1208 17.7582 31.598 18.0795C31.7484 18.1623 32.0934 18.1466 32.321 18.1073C32.4945 18.0795 32.9591 17.9741 32.9591 17.573C32.9591 17.2402 32.5459 16.8658 32.1479 16.6262C31.7484 16.4411 30.8535 16.2529 30.3732 16.2529Z" fill="#E60012"/>
<path d="M17.2014 20.121C17.2014 20.9478 16.989 21.3872 16.3216 21.4266L16.3373 21.5613C17.4547 21.5487 18.5916 21.5613 19.6823 21.5361L19.6949 21.4669C19.191 21.4669 18.8021 20.9337 18.8021 20.2698V18.0412C18.8021 17.4934 19.4684 17.1468 19.9225 17.1871C20.6271 17.2527 21.0161 17.7062 21.0161 18.1073V20.2946C21.0161 20.9615 20.8158 21.3751 20.2962 21.414V21.536H23.3623V21.4422C22.9083 21.3872 22.589 20.973 22.589 20.3486V18.0517C22.589 17.5604 23.0152 17.2264 23.7769 17.2143C24.4438 17.2008 24.8428 17.6952 24.8428 18.1622V20.2411C24.8428 20.9478 24.6305 21.3872 24.0978 21.4422V21.536C25.2177 21.5486 26.1367 21.5486 27.243 21.536V21.4669C26.6578 21.4669 26.4581 21.0815 26.4581 20.2698V17.974C26.4581 17.2143 26.0439 16.3069 24.8837 16.3069C24.0977 16.3069 23.5207 16.6913 23.1917 16.8027C22.9643 16.8925 22.8034 17.0005 22.7494 17.0005C22.6449 17.0005 22.5259 16.9339 22.3771 16.774C22.0961 16.4783 21.5912 16.3069 21.0559 16.3069C20.3749 16.3069 19.6949 16.6913 19.3741 16.8027C19.3363 16.8134 19.0972 16.9339 19.0683 16.9339C19.0154 16.9339 18.8021 16.9339 18.8021 16.9082C18.8021 16.2675 18.8424 16.5868 18.8162 16.1338H18.3753C18.2436 16.1338 18.0141 16.375 17.7482 16.4783C17.428 16.6146 16.7873 16.5999 16.5233 16.6676V17.12L17.2145 17.2527V18.1345L17.2014 20.121Z" fill="#E60012"/>
<path d="M14.2013 21.5484C15.3756 21.4935 16.5076 21.2412 16.5076 20.1072C16.5076 19.2825 15.602 18.7604 14.6426 18.3473C14.0267 18.094 13.1353 17.7207 13.1353 17.4261C13.1353 17.0805 13.8143 16.4131 14.4676 16.9463L15.6021 17.8943L16.1227 17.7859L15.8307 16.3748C15.5628 16.3869 15.3756 16.4017 14.401 16.2392C13.1999 16.0666 11.7738 16.6673 11.7738 17.7857C11.7738 18.5353 12.8554 19.0539 13.7094 19.4005C14.1755 19.5997 15.0038 19.8953 15.0038 20.3483C15.0038 20.7856 14.2285 20.9077 13.7896 20.9077C13.0426 20.9077 12.2142 19.9069 12.2142 19.9069H11.7224L11.9887 21.4027C12.08 21.321 12.416 21.3325 12.4831 21.3623C12.7217 21.4531 13.5884 21.5888 14.2013 21.5484ZM11.3731 17.0143V16.3196L9.9203 16.3332C9.7356 16.3332 9.74615 16.2939 9.74615 16.0538L9.76085 15.1059L9.02688 15.0928C8.80193 15.5993 8.52144 15.9333 8.36248 15.9994L7 16.5996V17.0269L7.5095 17.04C7.7359 17.04 7.82879 17.0269 7.82879 17.2942V20.1071C7.82879 20.9611 8.29446 21.5887 9.49759 21.6165C10.401 21.6411 10.9499 21.2411 11.3347 20.8668L11.2288 20.5061C11.0679 20.6145 10.9368 20.7078 10.7213 20.7078C9.69525 20.7078 9.72254 19.9067 9.72254 19.2005V17.2942C9.72254 17.0143 9.74624 17.0143 9.93491 17.0143H11.3731Z" fill="#E60012"/>
<circle cx="20" cy="20" r="19.5" stroke="black" stroke-opacity="0.05"/>
</svg>
