<svg width="40" height="40" viewBox="0 0 40 40" fill="none" xmlns="http://www.w3.org/2000/svg">
<circle cx="20" cy="20" r="20" fill="#F6F8FA"/>
<g clip-path="url(#clip0_9_409021)">
<path fill-rule="evenodd" clip-rule="evenodd" d="M19.9908 33.9905C12.2553 33.9905 6.00195 27.739 6.00195 20.0035C6.00195 12.2699 12.2553 6.0166 19.9908 6.0166C27.7262 6.0166 33.9777 12.2699 33.9777 20.0035C33.9777 27.739 27.7262 33.9905 19.9908 33.9905ZM32.4657 20.0035C32.4657 13.1043 26.8899 7.52674 19.9908 7.52674C13.0916 7.52674 7.51395 13.1043 7.51395 20.0035C7.51395 26.9046 13.0916 32.4822 19.9908 32.4822C26.8899 32.4822 32.4657 26.9046 32.4657 20.0035ZM16.0073 27.7875V26.4379H18.9566V14.8273H17.1852C15.0441 14.8273 14.5868 15.0625 14.2097 17.1625H13.1494V13.4739H26.8339V17.1625H25.7699C25.3947 15.0625 24.9393 14.8273 22.7963 14.8273H21.023V26.4379H23.9742V27.7875H16.0073ZM18.0532 21.5659H16.5188C16.1436 21.5659 15.8337 21.8739 15.8337 22.2529H14.878C14.878 21.9355 14.9676 21.6369 15.1262 21.3886H14.9694C14.4934 21.3886 14.1052 21.7769 14.1052 22.2529H13.1494C13.1494 21.7806 13.3473 21.3531 13.6684 21.0545C13.3473 20.7577 13.1494 20.3302 13.1494 19.8579H14.1052C14.1052 20.3339 14.4934 20.7222 14.9694 20.7222H15.1262C14.9676 20.4702 14.878 20.1753 14.878 19.8579H15.8337C15.8337 20.2369 16.1436 20.543 16.5188 20.543H18.0532V21.5659ZM26.8339 20.6139V21.4969C26.2534 21.4969 25.7569 21.8665 25.5758 22.3854H24.8422V21.5659H21.9265V20.5449H24.8422V19.7254H25.5758C25.7569 20.2443 26.2534 20.6139 26.8339 20.6139Z" fill="#00205B"/>
</g>
<circle cx="20" cy="20" r="19.5" stroke="black" stroke-opacity="0.05"/>
<defs>
<clipPath id="clip0_9_409021">
<rect width="27.9813" height="28" fill="white" transform="translate(6 6)"/>
</clipPath>
</defs>
</svg>
