<svg width="40" height="40" viewBox="0 0 40 40" fill="none" xmlns="http://www.w3.org/2000/svg">
<circle cx="20" cy="20" r="20" fill="#DF1E39"/>
<g clip-path="url(#clip0_9_405262)">
<path d="M12.2856 19.1128H12.0541C12.0541 18.1999 11.0706 16.4771 9.84915 16.4771H9.71415V22.6678C9.71415 23.4649 10.267 23.4906 10.9999 23.5035V23.8571H5.857V23.5099C6.64772 23.4649 7.14272 23.4842 7.14272 22.6421V16.4835H7.00129C5.79915 16.4835 5.08557 18.3478 4.84772 19.1192H4.57129V16.1428H12.2856V19.1128ZM19.9999 20.0449C19.9718 21.0549 19.5551 22.015 18.8365 22.7252C18.1179 23.4354 17.1529 23.8409 16.1427 23.8571C13.912 23.8571 12.2856 21.9221 12.2856 19.9485C12.2872 19.4448 12.3885 18.9465 12.5836 18.4822C12.7787 18.0178 13.0637 17.5967 13.4222 17.243C13.7807 16.8892 14.2056 16.6099 14.6725 16.4211C15.1394 16.2323 15.6391 16.1377 16.1427 16.1428C18.3927 16.1428 19.9999 18.1035 19.9999 20.0449ZM17.4284 19.8842C17.4284 18.9649 17.4284 16.4385 16.1427 16.4385C14.857 16.4385 14.857 19.1063 14.857 19.9935C14.857 21.0221 14.857 23.5613 16.1427 23.5613C17.4284 23.5613 17.4284 20.7778 17.4284 19.8842ZM35.4284 20.0449C35.4004 21.0549 34.9837 22.015 34.2651 22.7252C33.5465 23.4354 32.5815 23.8409 31.5713 23.8571C29.3406 23.8571 27.7141 21.9221 27.7141 19.9485C27.7158 19.4448 27.8171 18.9465 28.0122 18.4822C28.2072 18.0178 28.4922 17.5967 28.8507 17.243C29.2093 16.8892 29.6342 16.6099 30.1011 16.4211C30.568 16.2323 31.0677 16.1377 31.5713 16.1428C33.8213 16.1428 35.4284 18.1035 35.4284 20.0449ZM32.857 19.8842C32.857 18.9649 32.857 16.4385 31.5713 16.4385C30.2856 16.4385 30.2856 19.1063 30.2856 19.9935C30.2856 21.0221 30.2856 23.5613 31.5713 23.5613C32.857 23.5613 32.857 20.7778 32.857 19.8842Z" fill="white"/>
<path d="M28.3574 22.0761C28.3189 23.2333 27.856 23.8569 26.5574 23.8569C25.1303 23.8569 24.8024 22.4811 24.8024 20.9511C24.8024 20.2311 24.3524 19.9997 23.6131 19.9997H23.2146V22.7126C23.2146 23.4454 23.8189 23.4647 24.5003 23.5226V23.8569H19.3574V23.5226C19.9746 23.4969 20.6431 23.4326 20.6431 22.7769V17.4926C20.6431 16.779 20.2124 16.464 19.3767 16.464V16.1426H24.6096C25.831 16.1426 27.0717 16.554 27.0717 17.9233C27.0717 19.1897 25.7731 19.7747 24.5967 19.7747C25.3874 19.839 26.0624 19.9161 26.5574 20.5461C26.9239 21.0604 26.6346 23.2654 27.4574 23.2654C27.8431 23.2654 28.0617 22.4297 28.0617 22.0761H28.3574ZM25.1431 17.9233C25.1431 17.2419 24.841 16.4319 23.9217 16.4319C23.5103 16.4319 23.2146 16.5219 23.2146 16.9333V19.6654H23.7224C24.7253 19.6654 25.1431 18.7654 25.1431 17.9233Z" fill="white"/>
</g>
<circle cx="20" cy="20" r="19.5" stroke="black" stroke-opacity="0.05"/>
<defs>
<clipPath id="clip0_9_405262">
<rect width="32" height="8" fill="white" transform="translate(4 16)"/>
</clipPath>
</defs>
</svg>
