<svg width="40" height="40" viewBox="0 0 40 40" fill="none" xmlns="http://www.w3.org/2000/svg">
<circle cx="20" cy="20" r="20" fill="#0099FA"/>
<path d="M21.6187 9.50586V12.7379V21.3581H18.38V12.7883H15.0166V9.50586H21.6187Z" fill="white"/>
<path d="M16.8237 26.5553V30.0633C12.8579 28.7379 10 25.0003 10 20.5967C10 18.3756 10.7271 16.3271 11.9557 14.6699H16.76V14.6712C14.6623 15.8163 13.2387 18.04 13.2387 20.5967C13.2387 23.1773 14.6915 25.4196 16.8237 26.5553Z" fill="white"/>
<path d="M30.0001 20.5964C30.0001 26.1092 25.5222 30.5778 20.0001 30.5778C19.4494 30.5778 18.9108 30.5327 18.384 30.4478V27.1508C18.9015 27.2768 19.4428 27.3445 20.0001 27.3445C23.7336 27.3445 26.7627 24.3234 26.7627 20.5964C26.7627 18.0397 25.3377 15.816 23.2387 14.6697V11.1523C27.1713 12.4951 30.0001 16.214 30.0001 20.5964Z" fill="white"/>
<circle cx="20" cy="20" r="19.5" stroke="black" stroke-opacity="0.05"/>
</svg>
