<svg width="40" height="40" viewBox="0 0 40 40" fill="none" xmlns="http://www.w3.org/2000/svg">
<circle cx="20" cy="20" r="20" fill="#E5EFF8"/>
<g clip-path="url(#clip0_9_387267)">
<path d="M17.0761 27.9779L12.3922 27.9836L12.3778 15.8517L9.00503 15.856L9 12.0136L20.3592 12L20.3635 15.8424L17.0618 15.846L17.0761 27.9779Z" fill="#005CB9"/>
<path d="M17.0761 27.9779L12.3922 27.9836L12.3778 15.8517L9.00503 15.856L9 12.0136L20.3592 12L20.3635 15.8424L17.0618 15.846L17.0761 27.9779Z" fill="#005CB9"/>
<path d="M29.8219 27.9858L17.8826 28.0001L17.8782 24.4297L23.2027 20.4431C24.1621 19.6235 25.3045 18.6669 25.3031 17.3025C25.3017 16.393 24.7294 15.6662 23.7686 15.6669C22.3052 15.669 21.8951 17.1697 21.8276 18.3756L17.8696 17.6074C18.3005 14.264 20.7225 12.1693 24.1075 12.165C27.2412 12.1615 29.8959 13.8407 29.9002 17.2061C29.9024 18.8889 29.1261 20.1404 27.8925 21.2334L24.259 23.9443L23.8935 24.1727L30.0007 24.1649L29.8226 27.9858H29.8219Z" fill="white"/>
<path d="M29.8219 27.9858L17.8826 28.0001L17.8782 24.4297L23.2027 20.4431C24.1621 19.6235 25.3045 18.6669 25.3031 17.3025C25.3017 16.393 24.7294 15.6662 23.7686 15.6669C22.3052 15.669 21.8951 17.1697 21.8276 18.3756L17.8696 17.6074C18.3005 14.264 20.7225 12.1693 24.1075 12.165C27.2412 12.1615 29.8959 13.8407 29.9002 17.2061C29.9024 18.8889 29.1261 20.1404 27.8925 21.2334L24.259 23.9443L23.8935 24.1727L30.0007 24.1649L29.8226 27.9858H29.8219Z" fill="#231F20"/>
</g>
<circle cx="20" cy="20" r="19.5" stroke="black" stroke-opacity="0.05"/>
<defs>
<clipPath id="clip0_9_387267">
<rect width="21" height="16" fill="white" transform="translate(9 12)"/>
</clipPath>
</defs>
</svg>
