<svg width="40" height="40" viewBox="0 0 40 40" fill="none" xmlns="http://www.w3.org/2000/svg">
<circle cx="20" cy="20" r="20" fill="#F6F8FA"/>
<g clip-path="url(#clip0_9_406896)">
<path d="M34.9807 12.3056C34.9866 12.3368 34.9671 12.3777 34.9203 12.3894C34.8833 12.3992 30.511 13.6857 21.9145 15.8261L21.8735 15.8378V14.908L34.8833 12.2549C34.9379 12.2452 34.9749 12.2725 34.9807 12.3056Z" fill="#4B286D"/>
<path fill-rule="evenodd" clip-rule="evenodd" d="M24.8382 12.2082C24.9727 12.3466 25.0487 12.5318 25.0487 12.7112C25.0487 12.7267 25.0487 12.7423 25.0487 12.7579C24.9006 14.8437 21.3782 18.2648 18.3236 20.023C17.8811 20.3076 17.3899 20.6059 16.8616 20.9158C16.2866 21.8281 15.9903 22.6527 15.9903 23.2979C15.9903 23.6293 16.0663 23.9119 16.2261 24.1381C16.6842 24.795 17.9006 25.0367 19.4951 24.5981C22.6296 23.7365 27.4464 20.8067 28.4386 20.1985L28.4834 20.1712C28.5166 20.1497 28.5595 20.1595 28.579 20.1907C28.5945 20.218 28.5926 20.257 28.5556 20.2862L28.5224 20.3096C27.5984 20.9899 23.3528 24.3993 19.7758 25.5123C18.3743 25.947 17.1482 25.9373 16.2476 25.5708C15.6452 25.3232 15.2066 24.8905 14.9883 24.3232C14.8752 24.0367 14.8226 23.7248 14.8226 23.3837C14.8226 22.9301 14.922 22.4337 15.1209 21.8944C11.6043 23.7852 7.72515 25.4889 5.40351 26.3973L5.00195 26.5572L5.70371 24.6195L5.79143 24.5883C9.4464 23.3174 13.1228 21.6897 16.0098 20.1069C17.3957 17.9236 19.2963 15.8379 21.8577 13.5689C22.499 12.9977 23.6706 12.0386 24.3041 12.0016C24.5088 11.988 24.6998 12.062 24.8382 12.2082ZM17.6569 19.3973C18.8889 18.6488 19.4951 18.2453 20.3509 17.5299C23.6257 14.7755 24.0663 13.331 24.1618 13.0932C24.2222 12.9451 24.1657 12.8612 23.963 12.9958C22.616 13.8924 19.6725 16.5045 17.6569 19.3973Z" fill="#66CC00"/>
<path d="M21.8306 14.9179L21.893 14.9023V15.8322L21.8735 15.838L7.6123 19.3897L8.14252 17.9316L21.8306 14.9179Z" fill="#4B286D"/>
</g>
<circle cx="20" cy="20" r="19.5" stroke="black" stroke-opacity="0.05"/>
<defs>
<clipPath id="clip0_9_406896">
<rect width="30" height="14.5614" fill="white" transform="translate(5 12)"/>
</clipPath>
</defs>
</svg>
