<svg width="40" height="40" viewBox="0 0 40 40" fill="none" xmlns="http://www.w3.org/2000/svg">
<circle cx="20" cy="20" r="20" fill="#CC0000"/>
<g clip-path="url(#clip0_9_385667)">
<path fill-rule="evenodd" clip-rule="evenodd" d="M29.948 19.7499V23.8216C29.371 23.9629 27.637 24.4026 26.0473 25.5638C24.8923 26.4346 23.8796 27.7421 23.8796 29.0495C23.8796 29.9232 24.0248 30.5033 24.3134 31.0845C24.3134 31.0845 23.7952 31.4486 22.7246 31.375C21.4194 31.2827 19.9799 30.2107 19.1134 28.6137C17.9573 26.5789 17.3804 24.1081 16.0801 24.1081C14.7779 24.1081 14.7779 25.4294 13.7672 25.4176C12.4474 25.4059 12.0519 23.6497 11.6004 22.6534C10.944 21.2085 9.14425 20.9121 9 18.8781H14.8222V11.0322H19.6893V14.8948H21.0044L20.4922 17.4498H19.0869L18.6169 19.8058H20.024L19.3401 23.3052C19.289 23.5801 19.2163 23.8657 19.1556 24.1493C18.7739 26.0046 20.2448 26.0203 22.0544 26.0203H23.9678L24.4684 23.5134C23.3732 23.5134 23.0327 23.5526 23.1534 22.7702C23.1711 22.6505 23.2005 22.5258 23.2398 22.3521L23.7462 19.8028H25.2083L25.6764 17.4479H24.2152L24.7274 14.8928H28.793V17.4243C28.793 19.1314 29.948 19.7499 29.948 19.7499ZM20.1948 23.5064L21.9022 14.8889H23.8717L22.1623 23.5064H20.1948ZM24.0219 14.0653H22.0523L22.4292 12.1639H24.4006L24.0219 14.0653Z" fill="#FFF9F9"/>
</g>
<circle cx="20" cy="20" r="19.5" stroke="black" stroke-opacity="0.05"/>
<defs>
<clipPath id="clip0_9_385667">
<rect width="21" height="20.4174" fill="white" transform="translate(9 11)"/>
</clipPath>
</defs>
</svg>
