<svg width="40" height="40" viewBox="0 0 40 40" fill="none" xmlns="http://www.w3.org/2000/svg">
<circle cx="20" cy="20" r="20" fill="#111317"/>
<path d="M27.3961 16.1805C27.5651 15.9758 27.7392 15.8849 27.9184 15.9079C28.025 15.9214 28.1454 15.9839 28.2796 16.0951C28.5535 16.3212 28.9477 16.6333 29.3273 16.6308C29.5244 16.6299 29.7199 16.6299 29.914 16.6308C29.9352 16.6312 29.9503 16.6408 29.9592 16.6594C30.0399 16.8221 30.0692 16.989 30.0471 17.1601C29.9745 17.7193 30.093 18.3123 30.2121 18.8767C30.3624 19.59 30.6301 20.2684 31.0152 20.9117C31.1955 21.2123 31.263 21.576 31.2127 21.9251C31.1053 22.6639 30.9995 23.4125 30.8955 24.1709C30.8445 24.541 30.1452 24.7021 29.8503 24.8193C29.7331 24.8658 29.6121 24.9181 29.542 25.0314C29.3452 25.3518 29.1566 25.7123 28.814 25.9015C27.3573 26.7053 25.3706 27.8926 25.249 29.7174C25.2401 29.8576 25.3114 29.9811 25.3745 30.0983C25.6273 30.569 25.9369 31.0894 26.0515 31.6168C26.0537 31.6265 26.0524 31.6367 26.0479 31.6456C26.0434 31.6545 26.0359 31.6617 26.0267 31.6659C25.7369 31.7945 25.414 31.9843 25.1012 31.9964C24.581 32.0172 24.0689 31.9472 23.5649 31.7862C22.214 31.3544 21.4273 30.2741 21.1413 28.9238C21.1294 28.8695 21.1052 28.8185 21.0687 28.7709C20.2437 27.7009 19.4757 26.7601 18.7649 25.9486C18.4965 25.6421 18.2307 25.3559 17.9674 25.09C17.9567 25.0791 17.944 25.0705 17.93 25.0646C17.916 25.0587 17.901 25.0556 17.8859 25.0556H16.4369C16.4148 25.0556 16.397 25.0644 16.3834 25.0818C16.0929 25.448 16.1152 25.9926 15.6865 26.2614C15.1649 26.5881 14.7216 26.2117 14.335 25.8856C14.2534 25.8168 14.1488 25.754 14.0209 25.6971C13.7929 25.5947 13.5698 25.4828 13.3515 25.3614C12.9133 25.1066 12.6044 24.8002 12.556 24.2684C12.5356 24.0476 12.4957 23.8285 12.4362 23.6111C12.3764 23.3913 12.2757 23.2321 12.1031 23.0811C11.8262 22.8382 11.5515 22.5905 11.2789 22.3378C10.4012 21.5251 9.64259 20.6204 9.00309 19.6238C9.00117 19.6208 9.00011 19.6174 9.00001 19.6139C8.99991 19.6104 9.00078 19.6068 9.00254 19.6037C9.00429 19.6006 9.00686 19.598 9.00998 19.5961C9.01311 19.5943 9.01667 19.5933 9.02029 19.5932L15.1031 19.5945C15.1119 19.5945 15.1203 19.591 15.1265 19.5848C15.1327 19.5786 15.1362 19.5702 15.1362 19.5614L15.135 16.9862C15.135 16.9624 15.1231 16.9524 15.0993 16.9563C14.6375 17.0378 13.7114 17.1569 13.3426 16.8136C13.2861 16.7614 13.2201 16.7195 13.1445 16.6881C12.4076 16.3837 10.7152 15.4626 11.2025 14.4098C11.3974 13.9894 11.6859 13.9219 12.1623 13.776C12.9037 13.5484 13.6606 13.3926 14.433 13.3085C14.6974 13.2798 14.9566 13.234 15.2171 13.1913C15.2426 13.187 15.2513 13.1726 15.2432 13.148C15.1417 12.8456 15.1432 12.5794 15.2477 12.3492C15.2579 12.3272 15.2526 12.3095 15.2318 12.2964C14.9286 12.1072 14.7764 11.7658 14.8458 11.3983C14.9834 10.6703 15.2203 9.92568 15.456 9.26071C15.5158 9.09171 15.6456 8.93077 15.8451 8.7779C16.1772 8.52313 16.4965 8.3089 16.8031 8.13523C16.9046 8.07748 17.06 8.03268 17.2694 8.00083C17.2914 7.99743 17.3097 8.00444 17.3241 8.02185L17.598 8.35306C17.604 8.36028 17.6108 8.36134 17.6184 8.35625C18.4318 7.83013 19.3789 8.05625 20.0063 8.75243C20.498 9.29892 20.8719 9.97345 21.2655 10.5798C21.4171 10.8136 21.6706 11.1219 21.977 11.1212C23.349 11.1155 24.7089 11.2002 25.9471 11.8671C26.2783 12.0448 26.5573 12.4346 26.405 12.8142C26.3121 13.0454 26.1242 13.176 25.8815 13.1862C24.3254 13.2486 22.7859 13.4231 21.2999 13.9289C21.2932 13.9313 21.2874 13.9357 21.2832 13.9415C21.2789 13.9473 21.2766 13.9542 21.2764 13.9614V15.4887C21.2764 15.494 21.2785 15.499 21.2822 15.5027C21.2859 15.5064 21.2909 15.5085 21.2961 15.5085L23.9738 15.5072C23.9955 15.5072 24.0063 15.5178 24.0063 15.5391L24.0069 16.1569C24.0069 16.1633 24.0094 16.1695 24.0139 16.174C24.0183 16.1786 24.0243 16.1811 24.0305 16.1811L27.3961 16.1805ZM15.7343 12.7556C15.8401 13.3907 16.2502 14.0422 16.9146 14.1123C16.9766 14.1187 17.0318 14.1011 17.0802 14.0594C17.4076 13.7788 17.7556 13.4735 18.1241 13.1435C18.3573 12.935 18.5551 12.7299 18.7178 12.5282C19.2827 11.827 19.9458 11.1174 20.8885 11.0219C20.9173 11.0189 20.9229 11.0057 20.905 10.9824C20.6486 10.6516 20.3876 10.2737 20.1222 9.84861C19.9596 9.58788 19.7725 9.3416 19.5611 9.10975C19.1783 8.69001 18.7184 8.5416 18.1751 8.70911C17.9114 8.79001 17.7617 9.01421 17.6687 9.25752C17.4522 9.82186 17.242 10.3395 17.0381 10.8104C16.7367 11.5051 16.3258 12.0864 15.8057 12.5543C15.7449 12.6091 15.7212 12.6762 15.7343 12.7556ZM16.9725 8.68809C16.6916 8.8486 16.3668 8.98045 16.1388 9.20911C16.0649 9.283 16.0014 9.4019 15.9483 9.5658C15.7551 10.1637 15.5967 10.7002 15.4732 11.1754C15.4171 11.3913 15.3483 11.6206 15.4668 11.7537C15.4825 11.772 15.5006 11.7747 15.5209 11.762C15.7904 11.5951 16.0088 11.1766 16.1528 10.8836C16.5048 10.169 16.7891 9.44585 17.0057 8.71421C17.0163 8.67812 17.0052 8.66941 16.9725 8.68809ZM14.5413 16.4314C14.5222 16.4412 14.5235 16.4465 14.5451 16.4473C14.8522 16.4567 15.1303 16.3941 15.3795 16.2594C15.7025 16.0849 16.0171 15.9066 16.328 15.6958C16.6371 15.4868 16.9863 15.2813 17.3757 15.0792C18.2602 14.6197 19.1176 14.2079 19.9477 13.8435C21.1554 13.3132 22.3685 12.9677 23.5872 12.8072C24.3413 12.7074 25.1025 12.6446 25.8706 12.6187C25.908 12.6174 25.9135 12.6034 25.8872 12.5766C25.7798 12.4684 25.6594 12.3633 25.5261 12.2614C25.3369 12.1174 25.1114 12.0754 24.8866 12.0327C24.2326 11.9078 23.6084 11.8085 23.014 11.7346C22.5261 11.6735 22.0286 11.6875 21.5254 11.6773C21.2318 11.6709 20.9261 11.7352 20.6439 11.8231C20.2838 11.9348 19.9798 12.1482 19.7318 12.4633C19.187 13.1567 18.6055 13.7416 17.9872 14.218C16.8806 15.0707 15.732 15.8085 14.5413 16.4314ZM15.4127 13.4798C15.402 13.4641 15.3982 13.4656 15.4012 13.4843L15.505 14.1149C15.5101 14.1463 15.5284 14.1594 15.5598 14.1543L15.7012 14.1314C15.7356 14.1255 15.7464 14.1062 15.7337 14.0735C15.6577 13.8807 15.5507 13.6828 15.4127 13.4798ZM14.3254 13.9289C14.4158 13.8919 14.4127 13.8798 14.3158 13.8926C13.5345 13.9945 12.7666 14.1692 12.012 14.4168C11.9224 14.4461 11.8517 14.4839 11.7999 14.5301C11.4056 14.8849 12.1209 15.4563 12.377 15.6282C12.7192 15.8584 13.0568 16.042 13.3897 16.1792C13.4203 16.1915 13.4507 16.1907 13.4808 16.1766L13.7439 16.0512C13.7655 16.041 13.7795 16.0244 13.7859 16.0015C13.805 15.9352 13.8127 15.865 13.8088 15.7907C13.7927 15.4459 13.7855 15.1346 13.7872 14.8569C13.7897 14.4728 13.9445 14.0836 14.3254 13.9289ZM15.7719 20.2786L10.1923 20.2792C10.1562 20.2792 10.1494 20.2932 10.1719 20.3212C10.7808 21.0798 11.5241 21.8212 12.3037 22.4907C12.5296 22.6843 12.6902 22.8546 12.7853 23.0015C13.0018 23.3359 13.0783 23.7926 13.1158 24.2047C13.1222 24.2731 13.1379 24.3414 13.163 24.4098C13.3031 24.7888 13.9859 25.0658 14.3432 25.2142C14.4596 25.2627 14.5636 25.3278 14.6553 25.4098C14.8057 25.5452 14.9672 25.6688 15.1401 25.7805C15.3458 25.913 15.5044 25.6786 15.5592 25.5079C15.6859 25.1104 15.8203 24.6862 16.0993 24.4053C16.1205 24.3841 16.1491 24.3722 16.1789 24.3722C16.7967 24.3714 17.4199 24.3709 18.0483 24.3709C18.1371 24.3709 18.2103 24.3983 18.2681 24.4531C18.4477 24.6219 18.6299 24.806 18.7866 24.9913C19.691 26.058 20.5997 27.2019 21.5127 28.4232C21.5832 28.5174 21.6356 28.6196 21.67 28.7295C21.9248 29.5487 22.3222 30.4034 23.0343 30.9002C23.5955 31.292 24.2936 31.4327 24.9847 31.4321C25.1095 31.4321 25.2235 31.3811 25.3375 31.3334C25.3413 31.3318 25.3447 31.3295 25.3475 31.3265C25.3503 31.3236 25.3525 31.3201 25.3539 31.3162C25.3552 31.3124 25.3558 31.3083 25.3555 31.3042C25.3552 31.3002 25.3541 31.2962 25.3522 31.2926C25.1585 30.9274 24.9687 30.5588 24.7827 30.1869C24.7084 30.0378 24.6749 29.8877 24.6821 29.7365C24.7796 27.6576 26.8573 26.3136 28.5012 25.4238C28.5457 25.3995 28.5844 25.3656 28.6146 25.3244C28.787 25.0909 28.9581 24.862 29.128 24.6378C29.2586 24.4652 29.4095 24.3779 29.6006 24.3034C29.8312 24.2134 30.0605 24.128 30.2885 24.0474C30.3048 24.0414 30.3192 24.0311 30.3301 24.0177C30.341 24.0042 30.3479 23.988 30.3503 23.9709C30.4386 23.303 30.5352 22.621 30.6401 21.9251C30.6872 21.6161 30.6356 21.3798 30.4821 21.12C29.8758 20.0926 29.5789 18.9665 29.4649 17.8034C29.4467 17.6204 29.4488 17.4302 29.4713 17.2327C29.4747 17.2013 29.4607 17.1875 29.4293 17.1913C28.9286 17.2518 28.5821 16.8811 28.1535 16.7053C27.9586 16.6251 27.8222 16.711 27.6879 16.8384C27.667 16.8575 27.6426 16.8671 27.6146 16.8671C26.176 16.8654 24.8343 16.865 23.5898 16.8658C23.47 16.8658 23.4033 16.8015 23.3898 16.6728C23.3732 16.5191 23.3494 16.3688 23.3184 16.2219C23.3161 16.2104 23.3098 16.2001 23.3006 16.1926C23.2914 16.1852 23.28 16.1811 23.2681 16.1811C22.759 16.1815 22.2537 16.1807 21.7522 16.1786C21.1464 16.176 20.6356 16.0289 20.605 15.3079C20.5919 14.9966 20.5887 14.6762 20.5955 14.3467C20.5955 14.3427 20.5946 14.3388 20.5927 14.3352C20.5909 14.3317 20.5883 14.3286 20.585 14.3263C20.5818 14.324 20.578 14.3225 20.5741 14.322C20.5701 14.3214 20.5661 14.3218 20.5624 14.3231C19.0165 14.8524 17.5012 15.5983 16.1254 16.5378C16.046 16.5917 15.9581 16.6357 15.8617 16.6696C15.8316 16.6803 15.8165 16.7013 15.8165 16.7327L15.8203 20.2302C15.8203 20.2624 15.8042 20.2786 15.7719 20.2786ZM15.0146 14.4862L15.0713 14.42C15.0946 14.3932 15.0885 14.3805 15.0528 14.3817C14.6795 14.3958 14.3471 14.3722 14.3553 14.8658C14.3617 15.2115 14.37 15.5399 14.3802 15.8512C14.3806 15.8665 14.3876 15.8705 14.4012 15.8633C14.8505 15.6246 15.3139 15.3558 15.7916 15.0569C15.8252 15.0361 15.8222 15.0272 15.7827 15.0301C15.4409 15.0556 15.1823 14.8966 15.0069 14.5531C14.9946 14.5289 14.9972 14.5066 15.0146 14.4862Z" fill="#FFDD00"/>
<path d="M15.8201 20.2297L15.8163 16.7323C15.8163 16.7008 15.8313 16.6798 15.8615 16.6692C15.9579 16.6352 16.0458 16.5913 16.1252 16.5374C17.501 15.5979 19.0163 14.852 20.5621 14.3227C20.5659 14.3214 20.5699 14.321 20.5739 14.3215C20.5778 14.3221 20.5816 14.3236 20.5848 14.3259C20.5881 14.3282 20.5907 14.3313 20.5925 14.3348C20.5943 14.3384 20.5953 14.3423 20.5952 14.3463C20.5885 14.6758 20.5916 14.9962 20.6048 15.3074C20.6354 16.0284 21.1462 16.1756 21.7519 16.1781C22.2534 16.1803 22.7587 16.1811 23.2679 16.1807C23.2797 16.1807 23.2912 16.1848 23.3004 16.1922C23.3096 16.1996 23.3158 16.21 23.3182 16.2214C23.3492 16.3684 23.373 16.5187 23.3895 16.6724C23.4031 16.8011 23.4698 16.8654 23.5895 16.8654C24.8341 16.8645 26.1757 16.865 27.6144 16.8667C27.6424 16.8667 27.6668 16.8571 27.6876 16.838C27.822 16.7106 27.9583 16.6246 28.1532 16.7049C28.5819 16.8807 28.9284 17.2514 29.429 17.1909C29.4604 17.187 29.4745 17.2008 29.4711 17.2323C29.4486 17.4297 29.4464 17.62 29.4647 17.803C29.5787 18.966 29.8755 20.0921 30.4819 21.1195C30.6354 21.3794 30.687 21.6157 30.6399 21.9246C30.535 22.6206 30.4384 23.3026 30.35 23.9705C30.3477 23.9876 30.3407 24.0038 30.3298 24.0172C30.3189 24.0307 30.3046 24.041 30.2883 24.0469C30.0602 24.1276 29.8309 24.213 29.6004 24.303C29.4093 24.3775 29.2583 24.4648 29.1278 24.6374C28.9579 24.8616 28.7868 25.0905 28.6144 25.324C28.5842 25.3651 28.5455 25.399 28.501 25.4234C26.857 26.3132 24.7793 27.6571 24.6819 29.7361C24.6747 29.8873 24.7082 30.0374 24.7825 30.1864C24.9685 30.5584 25.1583 30.927 25.3519 31.2922C25.3539 31.2958 25.355 31.2997 25.3553 31.3038C25.3556 31.3079 25.355 31.312 25.3536 31.3158C25.3522 31.3196 25.3501 31.3231 25.3473 31.3261C25.3445 31.329 25.3411 31.3314 25.3373 31.3329C25.2233 31.3807 25.1093 31.4317 24.9844 31.4317C24.2933 31.4323 23.5953 31.2915 23.0341 30.8998C22.322 30.403 21.9246 29.5482 21.6698 28.7291C21.6354 28.6191 21.5829 28.517 21.5124 28.4227C20.5995 27.2015 19.6908 26.0576 18.7863 24.9909C18.6296 24.8055 18.4475 24.6215 18.2679 24.4527C18.2101 24.3979 18.1369 24.3705 18.0481 24.3705C17.4197 24.3705 16.7965 24.3709 16.1787 24.3718C16.1489 24.3718 16.1203 24.3837 16.0991 24.4049C15.8201 24.6858 15.6857 25.11 15.5589 25.5074C15.5042 25.6781 15.3456 25.9125 15.1398 25.7801C14.967 25.6684 14.8054 25.5448 14.6551 25.4094C14.5634 25.3274 14.4594 25.2622 14.343 25.2138C13.9857 25.0654 13.3029 24.7883 13.1627 24.4094C13.1377 24.341 13.122 24.2726 13.1156 24.2043C13.078 23.7922 13.0016 23.3355 12.785 23.0011C12.6899 22.8542 12.5294 22.6839 12.3035 22.4902C11.5239 21.8208 10.7806 21.0794 10.1717 20.3208C10.1492 20.2928 10.1559 20.2788 10.192 20.2788L15.7717 20.2781C15.8039 20.2781 15.8201 20.262 15.8201 20.2297Z" fill="#439539"/>
<circle cx="20" cy="20" r="19.5" stroke="black" stroke-opacity="0.05"/>
</svg>
