<svg width="40" height="40" viewBox="0 0 40 40" fill="none" xmlns="http://www.w3.org/2000/svg">
<circle cx="20" cy="20" r="20" fill="#010202"/>
<g clip-path="url(#clip0_9_400130)">
<path d="M10.2881 23.6377C11.6827 23.6377 12.7143 22.4076 12.7143 21.0999V15.1438H13.931V24.8569H12.7143V23.8065C12.0907 24.4902 11.0513 24.8569 10.1303 24.8569C8.05141 24.8569 6.64526 23.0864 6.64526 21.1187V15.1438H7.85712V21.0999C7.85712 22.4283 8.87712 23.6377 10.2881 23.6377ZM16.3571 15.1426V18.6215C17.0116 17.9658 18.0547 17.5845 18.983 17.5845C19.9459 17.5845 20.8882 17.9658 21.5701 18.6488C22.2494 19.3352 22.6311 20.2616 22.6325 21.2274C22.6325 22.1836 22.2458 23.115 21.5701 23.7919C20.8821 24.4744 19.9521 24.857 18.983 24.8563C18.0529 24.8563 17.0134 24.4768 16.3571 23.8193V24.8569H15.1428V15.1426H16.3571ZM16.6747 22.1684C16.8595 22.6033 17.1675 22.9745 17.5607 23.2365C17.9539 23.4984 18.4152 23.6396 18.8877 23.6426C19.8482 23.6426 20.6994 23.0409 21.0795 22.169C21.2063 21.8702 21.2717 21.5489 21.2717 21.2243C21.2717 20.8997 21.2063 20.5784 21.0795 20.2796C20.7006 19.3974 19.8537 18.8128 18.8877 18.8128C17.9248 18.8128 17.0602 19.3986 16.6813 20.2796C16.5556 20.5786 16.4904 20.8994 16.4893 21.2237C16.4883 21.548 16.5515 21.8693 16.6753 22.169L16.6747 22.1684ZM25.423 17.885C25.8659 17.6957 26.3423 17.5969 26.8241 17.5945C27.3058 17.5921 27.7831 17.6861 28.228 17.8711C29.5655 18.4418 30.3111 19.7957 30.3111 21.2134V21.8211H24.6604C24.7351 22.2868 25.0951 22.7738 25.4436 23.0755C25.8642 23.442 26.4036 23.6433 26.9615 23.642C27.7872 23.642 28.455 23.3008 28.9632 22.6189L29.9571 23.3554C29.2474 24.3098 28.1466 24.8429 26.9615 24.8429C25.9925 24.8429 25.0344 24.4914 24.3404 23.8053C23.9999 23.4654 23.7302 23.0614 23.5468 22.6166C23.3634 22.1718 23.2699 21.6951 23.2719 21.214C23.2713 19.7963 24.1152 18.4582 25.423 17.885ZM24.6871 20.6069H28.9219C28.6967 19.582 27.8904 18.7988 26.8109 18.7988C25.7284 18.7988 24.9288 19.5869 24.6871 20.6069ZM32.1428 20.7356V24.8569H30.9285V17.5711H32.1428V18.5942C32.4907 18.0253 33.3098 17.6798 33.9515 17.6798H34.5714V18.9621H33.8562C32.9522 18.9621 32.1428 19.8364 32.1428 20.7356Z" fill="white"/>
</g>
<circle cx="20" cy="20" r="19.5" stroke="black" stroke-opacity="0.05"/>
<defs>
<clipPath id="clip0_9_400130">
<rect width="29" height="10" fill="white" transform="translate(6 15)"/>
</clipPath>
</defs>
</svg>
