<svg width="40" height="40" viewBox="0 0 40 40" fill="none" xmlns="http://www.w3.org/2000/svg">
<circle cx="20" cy="20" r="20" fill="#F6F8FA"/>
<g clip-path="url(#clip0_9_392433)">
<path d="M8.67656 16H6.02358C6.01056 16 6 16.0106 6 16.0236V22.9361C6 22.9491 6.01056 22.9596 6.02358 22.9596H8.67656C8.68958 22.9596 8.70014 22.9491 8.70014 22.9361V16.0236C8.70014 16.0106 8.68958 16 8.67656 16Z" fill="#169B62"/>
<path d="M11.8632 16H9.18072C9.17583 16 9.17188 16.004 9.17188 16.0088V22.9508C9.17188 22.9557 9.17583 22.9596 9.18072 22.9596H11.8632C11.8681 22.9596 11.872 22.9557 11.872 22.9508V16.0088C11.872 16.004 11.8681 16 11.8632 16Z" fill="#169B62"/>
<path d="M16.2934 20.0827L16.146 20.1446L15.9869 20.1947L15.8188 20.233L15.639 20.2595L15.415 20.2772H15.1969L14.9817 20.2713L14.7694 20.2507L14.6132 20.2241L14.4629 20.1888L14.3243 20.1446L14.1946 20.0886L14.0767 20.0237L13.9676 19.95L13.8674 19.8675L13.776 19.7761L13.7171 19.7053L13.664 19.6287L13.6169 19.5491L13.5756 19.4666L13.5373 19.3781L13.5048 19.2838L13.4783 19.1865L13.4577 19.0834L13.437 18.9419L13.4312 18.8033V16.0236L13.437 16.0059L13.4547 16H14.3037L14.3155 16.003V16.0148V18.482V18.6618L14.3273 18.8151L14.345 18.9389L14.3685 19.0362L14.398 19.1128L14.4334 19.1836L14.4747 19.2484L14.5218 19.3074L14.5985 19.3811L14.6839 19.443L14.7783 19.4931L14.8844 19.5344L14.9994 19.5639L15.1261 19.5845L15.2558 19.5933H15.3944L15.4946 19.5786L15.5919 19.5609L15.6832 19.5344L15.7687 19.5019L15.8483 19.4636L15.922 19.4165L15.9869 19.3634L16.0458 19.3045L16.093 19.2455L16.1342 19.1806L16.1667 19.1099L16.1961 19.0333L16.2168 18.9507L16.2315 18.8534L16.2404 18.7414V18.6147V16.0148L16.2463 16.003L16.258 15.9971H17.0422L17.0539 16L17.0598 16.0118V18.7798L17.0569 18.8741L17.048 18.9714L17.0274 19.0922L17.0009 19.2101L16.9685 19.3192L16.9301 19.4224L16.8859 19.5196L16.8329 19.611L16.7739 19.6965L16.7091 19.7761L16.6206 19.8645L16.5233 19.9441L16.4172 20.0149L16.2993 20.0768L16.2934 20.0827Z" fill="black"/>
<path d="M18.4924 20.23H17.7437L17.7407 20.2212V16.0118L17.7496 16.0029H18.6221L18.6309 16.0088L20.4674 18.7591H20.4792L20.488 18.7561V16.0147L20.4969 16.0059H21.2368L21.2456 16.0147V20.2241L21.2368 20.233H20.5146L20.5087 20.2271L18.5189 17.1997L18.513 17.1938H18.5042L18.5012 17.2027V20.2182L18.4924 20.2271V20.23Z" fill="black"/>
<path d="M22.814 16H21.9356C21.9307 16 21.9268 16.004 21.9268 16.0088V20.2212C21.9268 20.2261 21.9307 20.23 21.9356 20.23H22.814C22.8189 20.23 22.8229 20.2261 22.8229 20.2212V16.0088C22.8229 16.004 22.8189 16 22.814 16Z" fill="black"/>
<path d="M25.4494 16.675V20.2271L25.4376 20.23H24.5562L24.5532 20.2182V16.6662L24.5415 16.6632H23.2002L23.1943 16.6515V16.0029L23.2061 16H26.7876L26.7965 16.0029V16.0118L26.7994 16.6544L26.7876 16.6662H25.4582L25.4464 16.675H25.4494Z" fill="black"/>
<path d="M28.067 18.4172V19.5403L28.0817 19.5432H30.5254L30.5283 19.5579V20.2271L30.5136 20.23H27.1826L27.1797 20.2153V16.0059L27.1944 16H30.4075L30.4104 16.0147V16.6515L30.4075 16.6603L30.3957 16.6662H28.0729L28.067 16.678V17.7038V17.7126L28.0817 17.7156H29.6145H29.6204L29.6293 17.7274V18.3965L29.6145 18.3995H28.0729L28.0699 18.4142L28.067 18.4172Z" fill="black"/>
<path d="M34.7348 19.2808L34.6581 19.4046L34.5726 19.5196L34.4783 19.6257L34.3781 19.723L34.2484 19.8232L34.1098 19.9117L33.9595 19.9883L33.7974 20.0531L33.6441 20.1033L33.4879 20.1445L33.3051 20.1828L33.1223 20.2094L32.9366 20.2271L32.748 20.233H31.0972L31.0884 20.2271V16.0059L31.1031 16.0029H32.9396L33.1724 16.0147L33.3994 16.0501L33.5763 16.0914L33.7502 16.1474L33.9389 16.227L34.1128 16.3213L34.272 16.4333L34.4164 16.5601L34.5402 16.6957L34.6493 16.8401L34.7436 16.9993L34.8232 17.1673L34.888 17.3471L34.9381 17.5358L34.9735 17.7303L34.9912 17.9308L34.9971 18.1312L34.9912 18.3228L34.9735 18.5056L34.947 18.6795L34.9087 18.8446L34.8615 18.9978L34.8025 19.1452L34.7318 19.2808H34.7348ZM33.9448 18.9743L33.9801 18.8947L34.0096 18.8151L34.0568 18.6382L34.0862 18.4437L34.101 18.2137V18.0723L34.098 17.9337L34.0862 17.7981L34.0686 17.6625L34.0479 17.5564L34.0214 17.4562L33.989 17.3648L33.9506 17.2764L33.9064 17.1938L33.8563 17.1172L33.8003 17.0494L33.7384 16.9845L33.65 16.9138L33.5498 16.8519L33.4407 16.8018L33.3198 16.7605L33.2019 16.731L33.0781 16.7074L32.8069 16.675L32.5033 16.6603H32.0906L31.9874 16.6632H31.9815V16.6721V19.5373L31.9963 19.5402H32.1761L32.4797 19.5432L32.7008 19.5373L32.8983 19.5255L33.0811 19.5019L33.2078 19.4783L33.3228 19.4489L33.4318 19.4105L33.5321 19.3663L33.6205 19.3162L33.703 19.2573L33.7767 19.1924L33.8416 19.1187L33.8946 19.045L33.9418 18.9654L33.9448 18.9743Z" fill="black"/>
<path d="M16.2522 23.1686L16.3407 23.2128L16.4232 23.263L16.4998 23.316L16.5706 23.375L16.6354 23.4398L16.6944 23.5076L16.7474 23.5784L16.7917 23.655L16.8506 23.7877L16.8919 23.9291L16.9125 24.0765V24.2328L16.8978 24.3772L16.8654 24.5128L16.8182 24.6425L16.7563 24.7634L16.6826 24.8724L16.5971 24.9727L16.4969 25.064L16.3878 25.1436L16.267 25.2114L16.1373 25.2674L15.9987 25.3116L15.8543 25.3441L15.6509 25.3706L15.4504 25.3794H13.4283L13.4194 25.3706V21.1524L13.4342 21.1494H15.4504L15.6008 21.1553L15.7482 21.173L15.8926 21.2025L16.0282 21.2408L16.1549 21.2909L16.2699 21.3499L16.376 21.4177L16.4674 21.4943L16.5558 21.5886L16.6295 21.6918L16.6679 21.7596L16.7003 21.8303L16.7268 21.904L16.7474 21.9807L16.7622 22.0603L16.771 22.1428V22.3197L16.7563 22.4612L16.7268 22.5938L16.6796 22.7147L16.6177 22.8237L16.5441 22.9181L16.4586 23.0036L16.3583 23.0802L16.2434 23.148L16.2316 23.1598L16.2434 23.1716L16.2522 23.1686ZM14.289 21.8215V22.8326L14.3008 22.8414H15.3679L15.4858 22.8355L15.5978 22.809L15.701 22.7648L15.7924 22.7058L15.8661 22.6351L15.9221 22.5525L15.9574 22.4641L15.9692 22.3727V22.2755L15.9574 22.1841L15.925 22.0956L15.869 22.0131L15.7953 21.9424L15.7039 21.8834L15.6008 21.8392L15.4888 21.8127L15.3708 21.8038H14.3038H14.2949V21.8127L14.289 21.8215ZM16.0547 24.0353L16.0341 23.9468L15.9958 23.8643L15.9457 23.7965L15.8808 23.7346L15.8012 23.6845L15.7098 23.6403L15.6008 23.6049L15.4799 23.5813L15.3443 23.5666L15.1999 23.5607H14.3038L14.292 23.5636V23.5754L14.289 24.7427V24.7545L14.3067 24.7575H15.2677L15.3944 24.7516L15.5182 24.7339L15.6361 24.7044L15.7511 24.6661L15.8425 24.6189L15.9221 24.5541L15.9633 24.5069L15.9958 24.4538L16.0223 24.3949L16.0429 24.333L16.0577 24.2622L16.0636 24.1915V24.1149L16.0547 24.0382V24.0353Z" fill="black"/>
<path d="M18.2067 24.2741L17.8235 25.3677V25.3736H17.8117H17.0806L17.0688 25.3647V25.3559L18.5309 21.1524L18.5368 21.1436H18.5427H19.4477L19.4595 21.1524L20.8891 25.3559V25.3647L20.8773 25.3736H20.0549L20.0431 25.3647L19.6629 24.2711L19.6511 24.2623H18.2155L18.2037 24.2711L18.2067 24.2741ZM18.4602 23.5666V23.5725L18.469 23.5813H19.4005L19.4094 23.5755V23.5666L18.9613 22.2136L18.9554 22.2077H18.9466L18.9407 22.2136L18.4602 23.5696V23.5666Z" fill="black"/>
<path d="M24.0168 23.8997V21.1524L24.0315 21.1494H24.7744L24.7773 21.1642V25.3765L24.7626 25.3795H24.0522L24.0374 25.3706L22.0477 22.3433L22.0359 22.3315V22.3462L22.033 25.3618V25.3736L22.0182 25.3765H21.2754V25.3677V21.1524L21.2842 21.1436H22.1627L22.1745 21.1553L24.008 23.8997L24.0197 23.9115L24.0256 23.8938L24.0168 23.8997Z" fill="black"/>
<path d="M26.3246 22.8385L27.94 21.1524L27.9459 21.1494H28.9098L28.9187 21.1553V21.1671L27.318 22.8739V22.8798V22.8857L28.9187 25.3647V25.3736L28.9098 25.3795H27.9931L27.9842 25.3736L26.7432 23.4398L26.7373 23.4339H26.7285L26.3099 23.8555V23.8614L26.307 25.3647V25.3706L26.2981 25.3736H25.4669L25.458 25.3647V21.1494L25.4669 21.1465H26.2981L26.307 21.1553V22.8267L26.3129 22.8355H26.3246V22.8385Z" fill="black"/>
<path d="M7.80695 25.6278L7.62419 25.5453L7.45028 25.4539L7.28225 25.3478L7.12308 25.2328L7.0199 25.1503L6.91968 25.0618L6.73397 24.8732L6.56595 24.6668L6.41562 24.4458L6.28297 24.2099L6.17095 23.9623L6.07662 23.7029L6.00293 23.4347V23.4229L6.01767 23.417H11.8572L11.869 23.4229V23.4376L11.8365 23.5909L11.7953 23.7412L11.7481 23.8886L11.695 24.0301L11.6361 24.1687L11.5683 24.3013L11.4946 24.431L11.415 24.5578L11.3325 24.6757L11.244 24.7877L11.1586 24.8879L11.0701 24.9822L10.9139 25.1326L10.7459 25.2682L10.569 25.392L10.3833 25.5011L10.1858 25.5983L9.9824 25.6779L9.77016 25.7428L9.55497 25.7929L9.33389 25.8283L9.11281 25.8459H8.88878L8.66475 25.8342L8.44367 25.8047L8.22554 25.7605L8.0133 25.6986L7.80401 25.6219L7.80695 25.6278Z" fill="#169B62"/>
</g>
<circle cx="20" cy="20" r="19.5" stroke="black" stroke-opacity="0.05"/>
<defs>
<clipPath id="clip0_9_392433">
<rect width="29" height="9.85139" fill="white" transform="translate(6 16)"/>
</clipPath>
</defs>
</svg>
