<svg width="40" height="40" viewBox="0 0 40 40" fill="none" xmlns="http://www.w3.org/2000/svg">
<circle cx="20" cy="20" r="20" fill="#F6F8FA"/>
<path d="M18.75 12.8574H14.8215C14.4643 13.0717 14.1215 13.3146 13.8 13.5717H17.75C18.0643 13.3146 18.4 13.0717 18.75 12.8574ZM16.3429 15.0003H12.3715C12.1857 15.2289 12.0143 15.4717 11.85 15.7146H15.8286C15.9857 15.4717 16.1572 15.2289 16.3429 15.0003ZM15.0572 17.1431H11.0786C10.9786 17.3788 10.8857 17.6146 10.8072 17.8574H14.7857C14.8643 17.6146 14.9572 17.3788 15.0572 17.1431ZM14.4215 19.286H10.4643C10.4286 19.5217 10.4 19.7574 10.3857 20.0003H14.3286C14.35 19.7574 14.3786 19.5217 14.4215 19.286ZM14.3 21.4289H10.3857C10.4072 21.6717 10.4357 21.9074 10.4786 22.1431H14.3643C14.3357 21.9074 14.3143 21.6717 14.3 21.4289ZM14.6715 23.5717H10.8357C10.9143 23.8146 11.0072 24.0503 11.1143 24.286H14.9143C14.8215 24.0503 14.7429 23.8146 14.6715 23.5717ZM15.6072 25.7146H11.8929C12.0643 25.9646 12.25 26.2003 12.4357 26.4288H16.0786C15.9108 26.198 15.7535 25.9596 15.6072 25.7146Z" fill="#107FC2"/>
<path d="M14.643 22.8573C14.6001 22.6216 14.5644 22.3859 14.5358 22.143H33.5144C33.4858 22.3859 33.4501 22.6216 33.4073 22.8573H14.643ZM15.0715 24.2859C15.1573 24.5287 15.2501 24.7644 15.3573 25.0001H32.7358C32.843 24.7644 32.9358 24.5287 33.0215 24.2859H15.0715ZM16.7858 27.143C16.6001 26.9144 16.4287 26.6716 16.2573 26.4287H31.9501C31.7858 26.6716 31.6073 26.9144 31.4215 27.143H16.7858ZM14.343 20.0001C14.3215 20.2359 14.3001 20.4716 14.293 20.7144H33.5644C33.5573 20.4716 33.5358 20.2359 33.5144 20.0001H14.343ZM14.6144 18.5716C14.6787 18.3287 14.7573 18.093 14.8287 17.8573H33.0215C33.1073 18.093 33.1787 18.3287 33.243 18.5716H14.6144ZM15.9073 15.7144C15.7573 15.943 15.6073 16.1859 15.4787 16.4287H32.3858C32.243 16.1859 32.1001 15.943 31.9501 15.7144H15.9073ZM17.0715 14.2859C17.3287 14.0359 17.593 13.793 17.8644 13.5716H30.0001C30.2715 13.793 30.5358 14.0359 30.7858 14.2859H17.0787H17.0715ZM23.5715 11.4287C24.8573 11.4287 26.4501 11.6859 27.5715 12.143H20.0001C21.1287 11.6859 22.2858 11.4287 23.5715 11.4287Z" fill="#2BABE2"/>
<path d="M16.0715 11.4287C16.7715 11.4287 17.4572 11.5001 18.1215 11.643C16.9786 11.8716 15.9072 12.2859 14.95 12.8573H10.9286C12.4215 11.9501 14.1786 11.4287 16.0715 11.4287ZM9.90718 13.5716H13.9072C13.3715 14.0001 12.8786 14.4787 12.4429 15.0001H8.47147C8.90004 14.4787 9.37861 14.0001 9.90718 13.5716ZM11.9072 15.7144H7.9429C7.6429 16.1644 7.38575 16.643 7.16433 17.143H11.1143C11.3286 16.643 11.6 16.1644 11.9 15.7144H11.9072ZM6.8929 17.8573H10.8358C10.6715 18.3216 10.55 18.793 10.4786 19.2859H6.53575C6.60718 18.793 6.72861 18.3216 6.8929 17.8573ZM10.3929 20.0001H6.45004C6.41249 20.4756 6.41249 20.9533 6.45004 21.4287H10.3786C10.3404 20.9533 10.3404 20.4756 10.3786 20.0001H10.3929ZM6.53575 22.143H10.4715C10.55 22.6359 10.6715 23.1073 10.8286 23.5716H6.90004C6.73575 23.1073 6.61433 22.6359 6.5429 22.143H6.53575ZM11.1072 24.2859H7.16433C7.37861 24.7859 7.6429 25.2644 7.95004 25.7144H11.9C11.5929 25.2644 11.3286 24.7859 11.1072 24.2859ZM8.46433 26.4287H12.4286C12.8643 26.9501 13.3572 27.4287 13.8929 27.8573H9.90718C9.37861 27.4287 8.8929 26.9501 8.47147 26.4287H8.46433Z" fill="#384693"/>
<path d="M22.0076 11.5576C23.2861 11.7719 24.4718 12.2148 25.529 12.8576H18.6218C19.6361 12.2148 20.779 11.7648 22.0076 11.5576ZM16.2504 15.0005C16.6647 14.479 17.129 14.0005 17.6361 13.5719H26.5504C27.079 14.0005 27.5576 14.479 27.9861 15.0005H16.2504ZM15.8218 15.7148C15.529 16.1648 15.2576 16.6433 15.0504 17.1433H29.2861C29.0718 16.6433 28.8147 16.1648 28.5147 15.7148H15.8147H15.8218ZM14.7861 17.8576C14.6246 18.3232 14.5004 18.8009 14.4147 19.2862H29.9147C29.8361 18.7933 29.7147 18.3219 29.5576 17.8576H14.7861ZM14.2861 20.7148C14.2861 20.9576 14.2933 21.1933 14.3147 21.429H30.0004C30.038 20.9536 30.038 20.4759 30.0004 20.0005H14.3218V20.0076C14.3076 20.2433 14.2861 20.479 14.2861 20.7148ZM14.3933 22.1433C14.4647 22.6362 14.5861 23.1076 14.7361 23.5719H29.5647C29.7147 23.1076 29.8361 22.6362 29.9147 22.1433H14.3933ZM15.0004 24.2862C15.2076 24.7862 15.4576 25.2648 15.7433 25.7148H28.5147C28.8147 25.2648 29.0718 24.7862 29.2861 24.2862H15.0004ZM26.5504 27.8576H17.3576C17.1004 27.5862 16.8861 27.2862 16.6504 26.9719C16.5218 26.7933 16.3933 26.6148 16.2433 26.429H27.979C27.5504 26.9505 27.0718 27.429 26.5433 27.8576H26.5504Z" fill="#2BABE2"/>
<path d="M21.7569 13.2139C21.1962 12.8182 20.5952 12.483 19.964 12.2139C19.3426 12.4853 18.7569 12.821 18.214 13.2139H21.7569ZM17.7569 13.571C17.114 14.0924 16.5497 14.6924 16.0712 15.3567H23.9497C23.4569 14.6924 22.8783 14.0924 22.2355 13.571H17.7497H17.7569ZM15.8283 15.7139C15.4609 16.2749 15.1544 16.8735 14.914 17.4996H25.1212C24.8783 16.871 24.5712 16.271 24.1926 15.7139H15.8355H15.8283ZM14.364 19.6424C14.4497 19.0282 14.5926 18.4282 14.7855 17.8567H25.2497C25.4426 18.4282 25.5783 19.0282 25.6497 19.6424H14.364ZM14.2855 20.8924C14.2855 21.1924 14.2997 21.4924 14.3283 21.7853H25.6426C25.7134 21.1927 25.7254 20.5945 25.6783 19.9996H14.3212C14.2926 20.2924 14.2783 20.5924 14.2783 20.8924H14.2855ZM14.7855 23.9282C14.5926 23.3567 14.4497 22.7567 14.364 22.1424H25.5997C25.4997 22.7567 25.3426 23.3567 25.1212 23.9282H14.7855ZM14.914 24.2853C15.1569 24.9139 15.464 25.5139 15.8283 26.071H23.9497C24.3569 25.521 24.6997 24.921 24.9783 24.2853H14.9069H14.914ZM17.3426 27.8567C16.8712 27.4282 16.4497 26.9496 16.0712 26.4282H23.6712C23.2426 26.9496 22.764 27.4282 22.2355 27.8567H17.3426Z" fill="#2BABE2"/>
<circle cx="20" cy="20" r="19.5" stroke="black" stroke-opacity="0.05"/>
</svg>
