<svg width="40" height="40" viewBox="0 0 40 40" fill="none" xmlns="http://www.w3.org/2000/svg">
<circle cx="20" cy="20" r="20" fill="#A67631"/>
<g clip-path="url(#clip0_9_409534)">
<path fill-rule="evenodd" clip-rule="evenodd" d="M6.60467 18.4996H7.18922L9.33535 22.1242H8.66824L8.28301 21.512L5.53858 21.5188L5.18774 22.1173H4.5L6.60467 18.4996ZM5.92381 20.8657H7.90466L6.91406 19.1598H6.88654L5.92381 20.8657ZM10.6353 18.4996L12.7813 21.347C12.7813 21.347 15.0511 18.5132 15.0373 18.4996C15.0373 18.4927 15.8422 18.4927 15.8422 18.4996C15.849 18.4996 15.849 22.1173 15.849 22.1173H15.2093V19.4212L13.0427 22.1173H12.5543L10.4496 19.3868V22.1173L9.83753 22.1242V18.4996H10.6353ZM16.4817 18.4996H20.134V19.1185H17.1007V19.9645H19.9757V20.5353L17.1076 20.5284L17.1007 21.512H20.1339V22.1173H16.4817V18.4996ZM24.9142 18.9328C24.9486 19.0566 25.0174 19.607 24.9692 19.9163C24.9348 20.1365 24.8318 20.3289 24.5842 20.4392C25.2925 20.6524 24.8867 21.574 25.0103 22.1173H24.3982C24.3982 22.1173 24.3914 21.4642 24.3914 21.4089C24.4051 21.2987 24.3914 21.01 24.3571 20.948C24.3503 20.9343 24.3365 20.8038 24.1645 20.7623L21.4339 20.7692V22.1173H20.808V18.4996H24.3571C24.6117 18.534 24.8248 18.692 24.9142 18.9328ZM24.3915 19.6345C24.3915 19.4625 24.3848 19.4281 24.3159 19.2768C24.2471 19.1392 24.0957 19.1115 23.9444 19.1185H21.434V20.1434H23.9444C24.0889 20.1502 24.2404 20.1227 24.3159 19.992C24.3848 19.8407 24.3915 19.8063 24.3915 19.6276V19.6345ZM25.6847 21.5534C25.9323 22.1863 26.4825 22.1036 26.744 22.1173H28.993C29.3576 22.1173 29.7771 22.0487 29.9765 21.7252C30.121 21.4913 30.1623 20.9135 30.1623 20.9135H29.6192C29.6192 20.9135 29.6192 20.9756 29.5984 21.0509C29.5902 21.0983 29.5764 21.1445 29.5573 21.1886C29.5573 21.1886 29.5022 21.3881 29.2271 21.4911C28.9519 21.6014 26.7853 21.5876 26.4826 21.4843C26.3451 21.4433 26.2212 21.3192 26.1731 21.1886H26.1662C26.0836 20.8173 26.0699 19.6754 26.1662 19.3798C26.2142 19.2491 26.3382 19.1115 26.4758 19.0771C26.7716 18.967 28.945 18.9601 29.2133 19.0633C29.4887 19.1734 29.5435 19.3729 29.5435 19.3729C29.564 19.4142 29.5779 19.4554 29.5917 19.4967C29.6121 19.5793 29.6121 19.6481 29.6121 19.6481H30.1556C30.1556 19.6481 30.1143 19.0702 29.9697 18.8294C29.7702 18.5063 29.3507 18.4375 28.9792 18.4375H26.7303C26.4758 18.4513 26.1935 18.4857 25.9734 18.6231C25.6915 18.8019 25.5679 19.1252 25.5539 19.4554C25.5266 20.1432 25.4509 20.9962 25.6778 21.5463L25.6847 21.5534ZM34.7846 21.1613C34.7846 21.1613 34.7087 21.3608 34.4339 21.4642C34.1585 21.574 31.992 21.5603 31.6893 21.4573C31.5517 21.416 31.428 21.2918 31.3797 21.1613C31.2903 20.79 31.2765 19.6482 31.3728 19.3524C31.4279 19.2217 31.545 19.0841 31.6824 19.0497C32.0609 18.919 34.1517 18.9328 34.427 19.036C34.7022 19.1461 34.7846 19.3593 34.7846 19.3593L34.7775 19.3524C34.9082 19.6001 34.8944 20.9412 34.7846 21.1613ZM34.3032 22.0902C34.5575 22.0764 34.8258 22.0489 35.0391 21.9109C35.328 21.7321 35.4518 21.4089 35.4656 21.0786C35.4931 20.391 35.5688 19.538 35.3418 18.9947C35.2386 18.809 35.0597 18.6509 34.9842 18.6028C34.7228 18.4377 34.5577 18.4102 34.1933 18.4102H31.9442C31.6828 18.4239 31.4076 18.4583 31.1875 18.5957C30.8987 18.7746 30.7749 19.0979 30.7611 19.4281C30.7336 20.1158 30.6579 20.9687 30.8917 21.5224C31.1391 22.1655 31.6895 22.0764 31.951 22.0902H34.3032Z" fill="white"/>
</g>
<circle cx="20" cy="20" r="19.5" stroke="black" stroke-opacity="0.05"/>
<defs>
<clipPath id="clip0_9_409534">
<rect width="34" height="4.53333" fill="white" transform="translate(3 18)"/>
</clipPath>
</defs>
</svg>
