<svg width="40" height="40" viewBox="0 0 40 40" fill="none" xmlns="http://www.w3.org/2000/svg">
<circle cx="20" cy="20" r="20" fill="#003C9E"/>
<g clip-path="url(#clip0_9_400200)">
<path d="M28.4372 12H27.3124V13.1161H28.4372V12ZM24.5014 19.8167V17.5806L24.502 17.5813H26.751V19.8134H29V20.5208C29 21.3388 28.93 22.3079 28.7688 23.0687C28.6785 23.4942 28.5417 23.9168 28.3813 24.3227C28.2169 24.738 28.0274 25.1358 27.8213 25.4923C27.5498 25.9644 27.2346 26.4104 26.8798 26.8245L26.8607 26.8465L26.8292 26.8831C26.7424 26.9841 26.6566 27.084 26.5623 27.1815C26.4521 27.2969 26.3389 27.4092 26.2227 27.5185C24.7831 28.8942 22.9074 29.7534 20.9463 29.9507C20.7103 29.9747 20.2365 29.9996 20 29.9996C19.7628 29.9989 19.2897 29.9747 19.0537 29.9507C17.0926 29.7534 15.2169 28.8935 13.7775 27.5185C13.6612 27.4092 13.5479 27.2969 13.4377 27.1815C13.3387 27.0798 13.2494 26.9754 13.1593 26.87L13.1589 26.8697L13.1202 26.8245C12.7653 26.4104 12.4501 25.9644 12.1787 25.4923C11.9726 25.1351 11.7831 24.738 11.6188 24.3227C11.4583 23.9167 11.3215 23.4942 11.2312 23.0689C11.07 22.307 11 21.3388 11 20.521V12.1398H15.4986V19.8167C15.4986 19.8167 15.4986 20.4053 15.506 20.5979L15.5077 20.6428V20.6431C15.5173 20.8921 15.5264 21.1362 15.5526 21.379C15.6267 22.0683 15.7804 22.7224 16.0971 23.2755C16.1888 23.4353 16.2817 23.5905 16.393 23.7375C17.0697 24.6329 18.0995 25.3051 19.3841 25.4923C19.5369 25.5144 19.8457 25.5338 20 25.5338C20.1543 25.5338 20.4629 25.5144 20.6159 25.4923C21.9005 25.3051 22.9303 24.6329 23.607 23.7375C23.7188 23.5905 23.8112 23.4353 23.9029 23.2755C24.2196 22.7224 24.3733 22.0684 24.4474 21.379C24.4736 21.1358 24.4828 20.8913 24.4923 20.6417L24.494 20.5979C24.5014 20.4053 24.5014 19.8167 24.5014 19.8167ZM25.0628 13.6744H26.7503V15.3483H29V17.5806H26.7503V15.349H25.0628V13.6746V13.6744Z" fill="white"/>
</g>
<circle cx="20" cy="20" r="19.5" stroke="black" stroke-opacity="0.05"/>
<defs>
<clipPath id="clip0_9_400200">
<rect width="18" height="18" fill="white" transform="translate(11 12)"/>
</clipPath>
</defs>
</svg>
