<svg width="40" height="40" viewBox="0 0 40 40" fill="none" xmlns="http://www.w3.org/2000/svg">
<circle cx="20" cy="20" r="20" fill="#F67C39"/>
<g clip-path="url(#clip0_9_387216)">
<path d="M16.8241 23.6909C16.8241 23.446 16.8161 23.2766 16.8055 23.0859H17.4244C17.7086 23.0859 17.9012 23.1852 17.9012 23.4275C17.9012 23.6697 17.6634 23.769 17.5174 23.7875C17.6595 23.7875 17.9397 23.8868 17.9397 24.1555C17.9397 24.4693 17.6741 24.5924 17.3899 24.5924H16.8015C16.8135 24.3965 16.8201 24.2323 16.8201 23.9874V23.6883L16.8241 23.6909ZM17.2969 23.2077C17.2584 23.2051 17.2199 23.2077 17.1813 23.2157C17.1813 23.3229 17.1694 23.446 17.1694 23.5228V23.7452H17.277C17.4231 23.7452 17.5426 23.6274 17.5426 23.4804C17.5426 23.4764 17.5426 23.4738 17.5426 23.4698C17.5599 23.3441 17.4709 23.2276 17.3447 23.2104C17.3288 23.2077 17.3128 23.2077 17.2969 23.209V23.2077ZM17.2783 23.8683H17.1787V24.4653H17.3115C17.4576 24.4627 17.5745 24.3409 17.5718 24.1953C17.5718 24.186 17.5718 24.1754 17.5692 24.1661C17.5891 24.0218 17.4868 23.8881 17.342 23.8683C17.3208 23.8656 17.2995 23.8656 17.2783 23.8683Z" fill="white"/>
<path d="M20.2797 23.6909C20.2797 23.446 20.2797 23.2766 20.2611 23.0859H21.1761C21.1721 23.1495 21.1721 23.2143 21.1761 23.2779C20.9995 23.262 20.6993 23.262 20.6303 23.262C20.6183 23.4235 20.6303 23.5691 20.6303 23.7253C20.8375 23.7253 20.9915 23.7174 21.1682 23.7094C21.1602 23.7717 21.1602 23.8352 21.1682 23.8974C20.9915 23.8855 20.8109 23.8789 20.6303 23.8789V24.411C20.8109 24.419 20.9915 24.415 21.1721 24.3991C21.1682 24.464 21.1682 24.5302 21.1721 24.595H20.2571C20.273 24.3991 20.2757 24.235 20.2757 23.9901L20.2797 23.6909Z" fill="white"/>
<path d="M24.8243 24.5952H24.4166C24.3622 24.4496 24.309 24.296 24.2479 24.1504H23.7021C23.6383 24.296 23.5826 24.4469 23.5374 24.5991C23.4617 24.5952 23.386 24.5952 23.3103 24.5991C23.4219 24.3582 23.7751 23.5719 23.9836 23.0781H24.1643C24.3661 23.5732 24.6437 24.243 24.8243 24.5952ZM24.1975 24.0207C24.1244 23.8406 24.0647 23.6685 23.9863 23.4911C23.9053 23.6632 23.8322 23.8366 23.7592 24.0207H24.1975Z" fill="white"/>
<path d="M26.6929 24.0504C26.6929 23.8134 26.7009 23.6943 26.7009 23.5368C26.7009 23.3025 26.6929 23.1569 26.689 23.084C26.754 23.084 26.8218 23.092 26.8855 23.092C26.9493 23.092 27.0183 23.092 27.0781 23.084C27.0515 23.3382 27.0409 23.595 27.0436 23.8505C27.0436 24.3866 27.2122 24.4753 27.5164 24.4753C27.8935 24.4753 27.9148 24.0954 27.9148 23.6811C27.9148 23.4812 27.9068 23.2839 27.8962 23.0801C27.9387 23.0801 27.9812 23.088 28.0197 23.088C28.0582 23.088 28.0967 23.0854 28.1353 23.0801C28.1193 23.2125 28.1087 23.5209 28.1087 23.9035C28.1087 24.4091 27.871 24.6196 27.4128 24.6196C27.0117 24.6262 26.6929 24.4608 26.6929 24.0504Z" fill="white"/>
<path d="M30.5951 23.4421C30.5991 23.3812 30.5991 23.319 30.5951 23.2581C30.5061 23.2581 30.3069 23.2581 30.1648 23.274C30.1728 23.2104 30.1728 23.1456 30.1648 23.082H31.376C31.368 23.1456 31.368 23.2104 31.376 23.274C31.2432 23.2621 31.0413 23.2621 30.9497 23.2621V23.9901C30.9497 24.235 30.9577 24.4005 30.9683 24.5951H30.5805C30.5964 24.3992 30.5991 24.235 30.5991 23.9901L30.5951 23.4421Z" fill="white"/>
<path d="M34.2088 23.7412C34.3469 23.5334 34.4664 23.315 34.5661 23.0859H34.7932C34.6856 23.2501 34.4439 23.6684 34.2978 23.9437V24.1397C34.2965 24.2932 34.3031 24.4468 34.3204 24.599H33.9219C33.9339 24.4666 33.9525 24.3118 33.9525 24.178V23.9755C33.7838 23.6803 33.5142 23.209 33.4412 23.0859H33.8608C33.9724 23.3004 34.153 23.6419 34.2181 23.7412H34.2088Z" fill="white"/>
<path d="M10.8541 15.8699C10.8196 16.6893 10.8196 17.7232 10.8196 18.6591C10.8196 20.38 10.8422 20.7705 11.1662 21.1955C11.4903 21.6204 12.0959 21.8573 12.8768 21.8573C13.7839 21.8573 14.4998 21.4046 14.7494 20.7427C14.8384 20.5058 14.8955 20.1722 14.8955 19.2866C14.8955 17.8768 14.8836 16.463 14.7959 15.0505C15.1386 15.073 15.4839 15.073 15.8265 15.0505L15.788 15.5641C15.7336 16.4908 15.699 18.7253 15.6764 19.8174C15.6539 21.0975 15.278 21.68 14.5343 22.1353C14.0031 22.461 13.262 22.5987 12.655 22.5987C11.3137 22.5987 9.70269 22.1883 9.45699 20.5097C9.43574 20.3204 9.42777 20.1298 9.43043 19.9392V16.9938C9.43043 16.4418 9.40785 15.5985 9.37598 15.0479C9.87932 15.0823 10.384 15.0823 10.8873 15.0479L10.8541 15.8699Z" fill="white"/>
<path d="M17.5052 18.0199C17.5052 17.5447 17.5052 17.4414 17.4747 16.479C17.4588 16.2527 17.4402 15.2797 17.4242 15.0771C17.9422 15.1248 18.4628 15.1248 18.9808 15.0771C18.9037 16.7054 18.8692 18.0623 18.8692 19.7209C18.8692 20.4755 18.8918 21.1771 18.9037 21.7675H19.099C19.4217 21.7675 21.0366 21.7675 21.694 21.6722C21.6542 21.9356 21.6542 22.203 21.694 22.4664C21.1216 22.4479 20.1601 22.4056 19.5571 22.4056C18.8386 22.4056 18.2291 22.4241 17.4163 22.4704C17.4163 22.3023 17.4973 19.799 17.4973 19.5277L17.5052 18.0199Z" fill="white"/>
<path d="M24.8243 20.9954C24.815 21.4878 24.8429 21.9816 24.9053 22.47C24.3794 22.433 23.8508 22.433 23.3249 22.47C23.3754 21.6533 23.4325 20.822 23.4325 20.0025L23.4245 16.9949C23.4245 16.5978 23.4126 16.2205 23.398 15.8035H22.8402C22.7406 15.8035 21.6675 15.826 21.0911 15.8763C21.1349 15.5931 21.1429 15.3045 21.1176 15.0185C22.0021 15.0728 23.22 15.0728 24.0859 15.0728C25.0156 15.0728 26.0116 15.0543 27.0808 15C27.0422 15.2926 27.0396 15.5891 27.0728 15.8816C26.4087 15.8168 25.6119 15.8049 24.8429 15.8049C24.835 16.202 24.8243 16.5991 24.8243 17.0121V20.9954Z" fill="white"/>
<path d="M31.4289 21.2878L30.9601 20.1454C30.4794 20.1269 28.6386 20.1269 28.1964 20.1454C27.855 20.9053 27.5562 21.6823 27.3012 22.4753C26.9546 22.4567 26.6066 22.4567 26.26 22.4753L27.5549 19.7046C28.6851 17.2795 29.3345 15.8802 29.5962 15.0449H30.3226C30.8605 16.4706 31.5179 17.9758 31.9296 18.8839C32.352 19.8184 33.0904 21.4361 33.5898 22.4779C33.4251 22.47 32.0983 22.47 31.8978 22.4779L31.4289 21.2878ZM29.5842 16.8386L28.45 19.4782C28.8485 19.4902 29.219 19.5087 29.6068 19.5087C29.8299 19.5087 30.1686 19.5087 30.6374 19.4782L29.5842 16.8386Z" fill="white"/>
<path d="M7.76774 15.3799C6.02263 16.5607 5 18.0393 5 19.8516C5 23.9632 9.97902 27 17.0856 27C19.7976 27.0172 22.4737 26.3884 24.8935 25.1679H24.77C22.398 25.884 19.9889 26.1752 17.5199 26.1752C10.3814 26.1752 5.46749 22.834 5.46085 19.7497C5.46085 18.0407 6.2577 16.566 7.77173 15.4845L7.76774 15.3799Z" fill="white"/>
</g>
<circle cx="20" cy="20" r="19.5" stroke="black" stroke-opacity="0.05"/>
<defs>
<clipPath id="clip0_9_387216">
<rect width="29.7931" height="12" fill="white" transform="translate(5 15)"/>
</clipPath>
</defs>
</svg>
