<svg width="40" height="40" viewBox="0 0 40 40" fill="none" xmlns="http://www.w3.org/2000/svg">
<circle cx="20" cy="20" r="20" fill="#0057A6"/>
<g clip-path="url(#clip0_9_408988)">
<path d="M13.0104 20.8766C13.0104 22.585 11.5533 23.1362 8.51133 23.1362C5.45725 23.1362 4.01025 22.585 4.01025 20.8766V17.1091H6.74414V20.4834C6.74414 21.2556 7.11298 21.9081 8.51133 21.9081C9.90968 21.9081 10.2745 21.2556 10.2745 20.4834V17.1091H13.0104V20.8766ZM13.6731 17.1091H17.9837L20.1622 21.0022H20.1906L22.4705 17.1091H26.619V22.8404H23.9419L23.9864 18.469H23.956L21.3377 22.8404H18.8206L16.3218 18.469H16.2894L16.3502 22.8404H13.6731V17.1091ZM35.99 22.8323C35.2097 22.9417 34.3403 23.0673 32.946 23.0673C30.2081 23.0673 27.0446 22.279 27.0446 20.0619C27.0446 18.0252 29.5454 17.0078 32.9298 17.0078C33.9735 17.0078 34.9888 17.1436 35.9738 17.3118L35.7529 18.5784C34.8713 18.3008 34.0181 18.167 33.0757 18.167C31.1343 18.167 29.8697 18.9716 29.8697 20.0619C29.8697 21.213 31.2964 21.9081 33.2987 21.9081C34.1944 21.9081 35.1044 21.7764 35.8562 21.6062L35.99 22.8323Z" fill="white"/>
</g>
<circle cx="20" cy="20" r="19.5" stroke="black" stroke-opacity="0.05"/>
<defs>
<clipPath id="clip0_9_408988">
<rect width="32" height="6.1406" fill="white" transform="translate(4 17)"/>
</clipPath>
</defs>
</svg>
