<svg width="40" height="40" viewBox="0 0 40 40" fill="none" xmlns="http://www.w3.org/2000/svg">
<circle cx="20" cy="20" r="20" fill="#1E3D6A"/>
<circle cx="20" cy="20" r="19.5" stroke="black" stroke-opacity="0.05"/>
<g clip-path="url(#clip0_9_399030)">
<path fill-rule="evenodd" clip-rule="evenodd" d="M18.4316 26.1981C17.7243 28.7914 16.4518 29.0274 15.8857 29.0274C14.8958 29.0274 14 28.3668 14 24.0771V13.8937L18.8554 11.3008V21.1538C18.8554 22.7094 18.7613 25.0193 18.4316 26.1981Z" fill="white"/>
<path fill-rule="evenodd" clip-rule="evenodd" d="M20.883 10.2161L21.9681 10.4518V20.9175C21.9681 23.5104 21.8736 25.7736 21.2134 27.4237C20.6477 28.8374 19.6578 29.9222 18.4319 30.2522L17.1123 30.064C18.998 29.8284 20.1298 27.7064 20.3654 26.6691C20.79 25.2546 20.8841 23.4637 20.8841 21.4832V10.2161L18.8568 11.3001L19.8942 11.5358V20.54C19.8942 22.8973 19.8467 24.9245 19.4696 26.2912C18.951 28.1769 17.9611 28.9786 17.3012 29.2146L15.8868 29.0264H15.5571C15.7456 29.545 16.1702 29.9688 16.6885 30.0637C16.83 30.5353 17.3016 30.9113 17.7728 31.0062C18.1026 31.666 18.7627 31.9961 19.47 31.9961C20.4128 32.0435 21.2145 31.6193 21.9691 31.1473C24.2794 29.4976 25.0337 25.9144 25.0337 21.012V8L20.8833 10.2161H20.883ZM24.0423 20.9175C24.0423 24.4533 23.7119 26.905 22.9102 28.5081C22.1559 30.064 20.9304 31.0539 19.7042 31.2421L18.1956 31.0539C20.1754 31.0539 21.4487 29.1208 21.9199 28.0835C22.6272 26.575 22.9572 24.4536 22.9572 21.3891V9.08436L24.0416 9.36704V20.9172L24.0423 20.9175Z" fill="white"/>
</g>
<defs>
<clipPath id="clip0_9_399030">
<rect width="11.0333" height="24" fill="white" transform="translate(14 8)"/>
</clipPath>
</defs>
</svg>
