<svg width="40" height="40" viewBox="0 0 40 40" fill="none" xmlns="http://www.w3.org/2000/svg">
<circle cx="20" cy="20" r="20" fill="#01B1AC"/>
<g clip-path="url(#clip0_9_396527)">
<path d="M12.3827 18.5997L10.7713 20.1882C10.4361 20.5179 10.1699 20.9111 9.98818 21.3447C9.80647 21.7783 9.71289 22.2438 9.71289 22.714C9.71289 23.1841 9.80647 23.6496 9.98818 24.0832C10.1699 24.5168 10.4361 24.91 10.7713 25.2397C11.4573 25.9074 12.3768 26.2811 13.3341 26.2811C14.2915 26.2811 15.211 25.9074 15.897 25.2397L19.4798 21.714C19.6267 21.5942 19.8104 21.5288 19.9998 21.5288C20.1893 21.5288 20.373 21.5942 20.5198 21.714L17.4341 18.674C16.7626 18.0149 15.8629 17.6401 14.9222 17.6273C13.9814 17.6145 13.0719 17.9648 12.3827 18.6054V18.5997Z" fill="#DDDDDD"/>
<path d="M29.2284 20.1885L22.5655 13.6171L22.2912 13.3714C21.5914 12.8126 20.7117 12.5286 19.8173 12.5728C18.9229 12.617 18.0754 12.9863 17.4341 13.6114L12.377 18.5999C13.0671 17.9585 13.9783 17.6081 14.9204 17.622C15.8626 17.6358 16.7631 18.0127 17.4341 18.6742L20.5141 21.7142L24.0912 25.2399C24.7775 25.9094 25.6982 26.2841 26.657 26.2841C27.6157 26.2841 28.5364 25.9094 29.2227 25.2399C29.5572 24.9098 29.8227 24.5166 30.004 24.083C30.1853 23.6494 30.2786 23.1842 30.2786 22.7142C30.2786 22.2443 30.1853 21.779 30.004 21.3454C29.8227 20.9119 29.5572 20.5186 29.2227 20.1885H29.2284Z" fill="white"/>
</g>
<circle cx="20" cy="20" r="19.5" stroke="black" stroke-opacity="0.05"/>
<defs>
<clipPath id="clip0_9_396527">
<rect width="22" height="15" fill="white" transform="translate(9 12)"/>
</clipPath>
</defs>
</svg>
