<svg width="40" height="40" viewBox="0 0 40 40" fill="none" xmlns="http://www.w3.org/2000/svg">
<circle cx="20" cy="20" r="20" fill="#0050A9"/>
<g clip-path="url(#clip0_9_410947)">
<path d="M19.2618 13.5499C18.069 12.8476 16.7098 12.478 15.3257 12.4795C11.7387 12.4795 8.46436 15.3646 8.46436 19.8217C8.46436 24.2787 12.0028 27.8924 16.3681 27.8924H24.2719C19.9066 27.8924 16.3681 24.2787 16.3681 19.8217C16.3681 16.8388 17.9419 14.5911 19.2654 13.5657L19.2618 13.5499Z" fill="white"/>
<path d="M20.7383 26.4506C21.9313 27.1528 23.2907 27.5224 24.675 27.521C28.2602 27.521 31.5357 24.6358 31.5357 20.1782C31.5357 15.7217 27.9973 12.1074 23.6319 12.1074H15.7288C20.0935 12.1074 23.6319 15.7211 23.6319 20.1782C23.6319 23.1611 22.0582 25.4087 20.734 26.4348L20.7383 26.4506Z" fill="white"/>
</g>
<circle cx="20" cy="20" r="19.5" stroke="black" stroke-opacity="0.05"/>
<defs>
<clipPath id="clip0_9_410947">
<rect width="24" height="16" fill="white" transform="translate(8 12)"/>
</clipPath>
</defs>
</svg>
