<svg width="40" height="40" viewBox="0 0 40 40" fill="none" xmlns="http://www.w3.org/2000/svg">
<circle cx="20" cy="20" r="20" fill="#0C2074"/>
<g clip-path="url(#clip0_9_410521)">
<path d="M8.57153 14.2861V25.7147L20.0001 29.1433L31.4287 25.7147V14.2861H8.57153Z" fill="#D62A43"/>
<path d="M16.5828 25.1427H19.9999L19.9885 16.5713H16.5714V21.0616C16.5714 22.357 15.7645 22.857 15.1428 22.857C14.0816 22.857 13.7142 21.9673 13.7142 21.0301V16.5713H10.2856V22.341C10.2856 24.1981 11.7291 25.1427 13.4285 25.1427C14.8731 25.1427 15.8594 24.6673 16.5354 23.8553H16.5714L16.5828 25.1427ZM26.2554 18.5376C26.4971 18.6793 26.6634 18.8839 26.6816 19.1513H30.0245C29.9331 17.0599 27.4251 16.5713 25.3445 16.5713C23.4131 16.5713 20.7936 17.1073 20.7936 19.1679C20.7936 20.5667 21.9268 21.3216 24.7308 21.7301C26.4399 21.9816 26.7559 22.1233 26.7559 22.5947C26.7559 23.0673 25.9948 23.2244 25.5114 23.2244C25.0668 23.2244 24.7125 23.1296 24.5274 22.9879C24.2485 22.7839 24.0188 22.5684 23.9999 22.2856H20.5714C20.6262 24.393 23.1154 25.1427 25.3816 25.1427C27.7228 25.1427 30.2856 24.529 30.2856 22.265C30.2856 20.9279 29.2079 20.3141 27.9822 19.9839C27.3336 19.801 26.6394 19.6976 26.0371 19.6079C25.5011 19.5279 25.0394 19.4593 24.7502 19.3553C24.5462 19.277 24.3228 19.1679 24.3228 18.9313C24.3228 18.397 24.9171 18.3021 25.4382 18.3021C25.7342 18.3021 26.0325 18.3804 26.2554 18.5376Z" fill="white"/>
</g>
<circle cx="20" cy="20" r="19.5" stroke="black" stroke-opacity="0.05"/>
<defs>
<clipPath id="clip0_9_410521">
<rect width="24" height="16" fill="white" transform="translate(8 14)"/>
</clipPath>
</defs>
</svg>
