<svg width="40" height="40" viewBox="0 0 40 40" fill="none" xmlns="http://www.w3.org/2000/svg">
<circle cx="20" cy="20" r="20" fill="#F6F8FA"/>
<g clip-path="url(#clip0_9_409681)">
<path d="M29.6955 23.5159C28.9796 23.5159 28.4001 22.8989 28.4001 22.1354C28.4001 21.3719 28.9796 20.7549 29.6955 20.7549C30.4126 20.7549 30.9908 21.3719 30.9908 22.1354C30.9908 22.8989 30.4126 23.5159 29.6955 23.5159ZM28.5828 19.5021C28.5828 21.6773 27.0284 23.5534 23.6091 23.5534C22.7443 23.5534 21.5853 23.3982 20.5553 23.0703C20.8594 22.7349 21.1273 22.3569 21.3475 21.9414C21.5903 21.4846 21.7793 20.9915 21.922 20.4646C22.5565 20.6498 23.2286 20.7587 23.7893 20.7587C24.8644 20.7587 25.3713 20.3644 25.3713 19.7286C25.3713 19.1279 24.8507 18.7724 23.5303 18.2843C22.3851 17.85 21.5177 17.2693 20.9883 16.4908V17.6848C20.9883 21.5822 19.1836 23.5509 15.902 23.5509C12.6905 23.5509 11.0059 21.6586 11.0059 17.6097V10.7111H14.131V17.8726C14.131 19.7837 14.7555 20.8713 15.9883 20.8713C17.2387 20.8713 17.8469 19.8963 17.8469 17.8913V10.7111H20.9883V12.4032C21.7343 11.2543 23.1573 10.5059 25.101 10.5059C26.5077 10.5059 27.4977 10.7875 28.2787 11.1629L27.6191 13.8613C27.116 13.636 26.2474 13.2606 25.0684 13.2606C24.1122 13.2606 23.5916 13.636 23.5916 14.198C23.5916 14.835 24.0522 15.0978 25.5278 15.6986C27.6279 16.5409 28.5828 17.7399 28.5828 19.5021Z" fill="#558618"/>
<path fill-rule="evenodd" clip-rule="evenodd" d="M28.8866 27.5672C28.8866 28.3694 28.2996 29.0528 27.013 29.0528C26.5011 29.0528 26.0029 28.9176 25.7464 28.7825C25.7551 28.7762 25.7639 28.7712 25.7727 28.7637C26.023 28.5572 26.242 28.2768 26.4022 27.9264C26.61 27.9877 26.8453 28.0303 27.0843 28.0303C27.4898 28.0303 27.6851 27.8838 27.6851 27.6485C27.6851 27.422 27.4898 27.2969 26.9929 27.1179C26.6412 26.9827 26.3446 26.8163 26.1294 26.6035C26.1156 27.5234 25.7827 28.1204 25.3672 28.4646C24.8841 28.8663 24.1594 29.0403 23.2971 29.0403C22.7301 29.0403 22.3496 28.9977 22.1218 28.9564V27.5059C21.844 28.4758 21.0968 29.0603 20.0417 29.0603H20.0355C19.0217 29.0603 18.3471 28.4621 18.0668 27.6248C17.7639 28.5246 17.0342 29.0603 16.0217 29.0603H16.0142C14.8427 29.0603 14.1243 28.2593 13.9454 27.2143H12.4523V28.984H11.2695V24.3231H14.0981V25.3469H12.4523V26.2042H13.9354C14.1093 25.0816 14.8978 24.248 16.0868 24.248C17.1431 24.248 17.8115 24.8676 18.083 25.6986C18.3884 24.84 19.1056 24.248 20.1068 24.248C21.1907 24.248 21.864 24.8989 22.1218 25.7612V24.392C22.5011 24.3231 23.0029 24.2893 23.5261 24.2893C24.3684 24.2893 24.9028 24.4345 25.3346 24.7512C25.5261 24.8914 25.6888 25.0678 25.819 25.2806C26.0105 24.6773 26.6162 24.2543 27.5223 24.2543C28.0443 24.2543 28.4235 24.3582 28.7113 24.4883L28.4623 25.4921C28.2733 25.402 27.9466 25.2706 27.5098 25.2706C27.1506 25.2706 26.9529 25.4095 26.9529 25.6173C26.9529 25.8513 27.1894 25.9427 27.7451 26.1617C28.5349 26.4746 28.8866 26.9164 28.8866 27.5672ZM16.9754 26.6473C16.9754 25.845 16.6362 25.2368 16.0605 25.2368C15.4923 25.2368 15.1456 25.845 15.1456 26.6548C15.1394 27.4909 15.4923 28.0716 16.0605 28.0716H16.073C16.6412 28.0716 16.9754 27.4908 16.9754 26.6473ZM20.9954 26.6473C20.9954 25.845 20.655 25.2368 20.0805 25.2368C19.5123 25.2368 19.1657 25.845 19.1657 26.6548C19.1594 27.4909 19.5123 28.0716 20.0805 28.0716H20.0931C20.6613 28.0716 20.9954 27.4908 20.9954 26.6473ZM24.8841 26.5847C24.8841 25.6723 24.3684 25.2443 23.6638 25.2443C23.4798 25.2443 23.3621 25.2568 23.3046 25.2706V28.0566C23.3621 28.0716 23.4735 28.0716 23.5524 28.0716C24.3158 28.0853 24.8841 27.6348 24.8841 26.5847ZM29.2232 24.4708C29.4197 24.4708 29.5762 24.626 29.5762 24.8138C29.5762 25.0065 29.4197 25.1617 29.2207 25.1617C29.023 25.1617 28.8615 25.0065 28.8615 24.8138C28.8615 24.626 29.023 24.4708 29.2232 24.4708ZM29.217 24.5634C29.0793 24.5634 28.9754 24.6748 28.9754 24.8163C28.9754 24.9577 29.0793 25.0691 29.2195 25.0691C29.3609 25.0716 29.4648 24.9577 29.4648 24.8138C29.4648 24.6748 29.3609 24.5634 29.217 24.5634ZM29.1819 24.9715H29.0743V24.6648C29.0943 24.6623 29.1506 24.6536 29.2195 24.6536C29.2958 24.6536 29.3271 24.6623 29.3509 24.6786C29.3709 24.6924 29.3834 24.7161 29.3834 24.7449C29.3834 24.775 29.3546 24.805 29.3096 24.8138V24.8175C29.3471 24.83 29.3659 24.8551 29.3759 24.8976C29.3859 24.9427 29.3934 24.9614 29.3972 24.9715H29.2783C29.2683 24.9589 29.262 24.9339 29.257 24.9101C29.2533 24.8801 29.237 24.8663 29.2095 24.8663H29.1819V24.9715ZM29.1857 24.7975H29.2095C29.2445 24.7975 29.2595 24.7812 29.2595 24.7624C29.2595 24.7374 29.2407 24.7286 29.2132 24.7286C29.2032 24.7286 29.1932 24.7312 29.1857 24.7312V24.7975Z" fill="#EC4025"/>
</g>
<circle cx="20" cy="20" r="19.5" stroke="black" stroke-opacity="0.05"/>
<defs>
<clipPath id="clip0_9_409681">
<rect width="20" height="18.5607" fill="white" transform="translate(11 10.5)"/>
</clipPath>
</defs>
</svg>
