<svg width="40" height="40" viewBox="0 0 40 40" fill="none" xmlns="http://www.w3.org/2000/svg">
<circle cx="20" cy="20" r="20" fill="#00939A"/>
<g clip-path="url(#clip0_9_411352)">
<path d="M29.2552 18.6662C26.1928 20.7469 23.3574 20.5222 20.7485 17.9935C26.0361 16.1599 28.8217 13.3264 31.5356 15.7562L29.5224 18.3626H29.5193V18.3663H29.5157V18.3711H29.509V18.3723H29.5078C29.506 18.3723 29.5066 18.3742 29.5047 18.3742V18.3766H29.5035V18.379H29.5023L29.5017 18.3802C29.5017 18.3814 29.4999 18.3814 29.4999 18.3827L29.4993 18.3839C29.4956 18.3839 29.4926 18.3893 29.4908 18.3893L29.4902 18.3918L29.4877 18.3942L29.4841 18.3966V18.3978C29.4841 18.4003 29.478 18.4057 29.4762 18.4069V18.4082H29.475V18.4142H29.4738V18.4161H29.4726V18.4179L29.4707 18.4185L29.4677 18.4203C29.4665 18.4215 29.4659 18.4221 29.4659 18.4246L29.4647 18.4258L29.4592 18.4276L29.458 18.4294C29.4484 18.4391 29.4394 18.4494 29.4313 18.4604L29.4301 18.4616C29.4301 18.464 29.4264 18.4671 29.4264 18.4701V18.4719C29.4228 18.4731 29.4149 18.4804 29.4112 18.4804V18.4822C29.4034 18.4853 29.3973 18.4919 29.3882 18.4944V18.4956H29.3857V18.4968H29.3839L29.3827 18.4992L29.3791 18.5004V18.5017L29.373 18.5047V18.5071H29.3712C29.3674 18.5102 29.3633 18.5134 29.359 18.5156L29.3536 18.5217H29.3524V18.5229L29.3505 18.5259L29.3481 18.5266C29.3481 18.5739 29.274 18.5915 29.274 18.6225H29.2728C29.2728 18.6255 29.2643 18.6328 29.2643 18.6371H29.2631C29.2619 18.6383 29.2576 18.6431 29.2576 18.6443H29.2564C29.2528 18.6474 29.2552 18.6626 29.2552 18.6668V18.6662Z" fill="#ECB833"/>
<path d="M29.528 18.3573C21.5398 24.8999 18.4075 9.42318 8.46436 15.2803L19.6686 29.7145" fill="white"/>
</g>
<circle cx="20" cy="20" r="19.5" stroke="black" stroke-opacity="0.05"/>
<defs>
<clipPath id="clip0_9_411352">
<rect width="24" height="17" fill="white" transform="translate(8 13)"/>
</clipPath>
</defs>
</svg>
