<svg width="40" height="40" viewBox="0 0 40 40" fill="none" xmlns="http://www.w3.org/2000/svg">
<circle cx="20" cy="20" r="20" fill="#F6F8FA"/>
<g clip-path="url(#clip0_9_395988)">
<path d="M11.1858 23.2778L7.58008 17.4722H8.84265L11.1858 21.2617L13.5456 17.4722H14.7475L11.1858 23.2778ZM19.682 22.9717C19.1264 23.2371 18.499 23.3329 17.8847 23.2461C17.2704 23.1593 16.6988 22.894 16.2471 22.4861C15.7953 22.0783 15.4853 21.5475 15.3589 20.9655C15.2324 20.3835 15.2957 19.7784 15.5401 19.232C15.7845 18.6855 16.1982 18.2241 16.7254 17.91C17.2526 17.5959 17.8679 17.4443 18.488 17.4757C19.108 17.5071 19.7031 17.72 20.1927 18.0856C20.6824 18.4512 21.0429 18.9519 21.2257 19.52L20.1175 19.6731C19.9716 19.3326 19.7227 19.0417 19.4028 18.8375C19.0829 18.6334 18.7067 18.5253 18.3222 18.5273C17.9378 18.5292 17.5627 18.641 17.2451 18.8484C16.9275 19.0557 16.6818 19.3491 16.5396 19.691C16.3974 20.0329 16.3651 20.4077 16.4468 20.7673C16.5286 21.1269 16.7207 21.4549 16.9985 21.7093C17.2763 21.9637 17.6271 22.1328 18.006 22.1951C18.3849 22.2573 18.7746 22.2098 19.1251 22.0586L19.682 22.9717Z" fill="#03196B"/>
<path d="M14.5273 22.6236L21.2096 19.5361L20.1675 18.8184L14.5329 21.4203V22.6236H14.5273Z" fill="url(#paint0_linear_9_395988)"/>
<path d="M21.915 20.2963V23.2782H23.0177V20.2804C23.0177 19.246 23.8061 18.5282 24.8923 18.5282C25.4767 18.5282 25.7744 18.7077 26.2045 19.056L26.8771 18.4121C26.2651 17.5043 25.1404 17.4727 24.9474 17.4727H24.8923C23.2493 17.4727 21.915 18.7393 21.915 20.2963Z" fill="#03196B"/>
<path fill-rule="evenodd" clip-rule="evenodd" d="M31.839 22.6127C31.3079 23.0321 30.6435 23.266 29.9551 23.2759C29.2668 23.2859 28.5953 23.0713 28.0512 22.6675C27.5072 22.2636 27.1228 21.6946 26.9614 21.0539C26.8001 20.4132 26.8712 19.7391 27.1633 19.1422C27.4553 18.5454 27.9508 18.0615 28.5682 17.77C29.1857 17.4785 29.8884 17.3969 30.5608 17.5385C31.2332 17.6801 31.8352 18.0365 32.2679 18.5491C32.7006 19.0617 32.9382 19.7 32.9417 20.3591V23.2777H31.839V22.6127ZM31.839 20.3749C31.839 20.8648 31.6357 21.3347 31.2738 21.6811C30.9119 22.0275 30.4211 22.2221 29.9093 22.2221C29.3975 22.2221 28.9067 22.0275 28.5448 21.6811C28.1829 21.3347 27.9796 20.8648 27.9796 20.3749C27.9796 19.885 28.1829 19.4151 28.5448 19.0687C28.9067 18.7223 29.3975 18.5277 29.9093 18.5277C30.4211 18.5277 30.9119 18.7223 31.2738 19.0687C31.6357 19.4151 31.839 19.885 31.839 20.3749Z" fill="#03196B"/>
</g>
<circle cx="20" cy="20" r="19.5" stroke="black" stroke-opacity="0.05"/>
<defs>
<linearGradient id="paint0_linear_9_395988" x1="18.9601" y1="19.9109" x2="13.9677" y2="22.8088" gradientUnits="userSpaceOnUse">
<stop stop-color="#03196B"/>
<stop offset="0.86" stop-color="#03196B" stop-opacity="0"/>
</linearGradient>
<clipPath id="clip0_9_395988">
<rect width="26" height="7" fill="white" transform="translate(7 17)"/>
</clipPath>
</defs>
</svg>
