<svg width="40" height="40" viewBox="0 0 40 40" fill="none" xmlns="http://www.w3.org/2000/svg">
<circle cx="20" cy="20" r="20" fill="#F6F8FA"/>
<g clip-path="url(#clip0_9_397895)">
<path fill-rule="evenodd" clip-rule="evenodd" d="M15.9996 17.8497C15.7853 17.1426 15.6424 16.4426 15.5282 15.7497C16.6853 15.6069 18.1424 15.514 19.4067 15.664C18.187 16.2553 17.043 16.9916 15.9996 17.8569V17.8497ZM15.7853 18.0354C15.6139 17.464 15.4282 16.6997 15.2924 15.7783L14.8139 15.8497L14.3567 16.0569C14.4496 16.9354 14.7282 17.8426 15.1067 18.6783C15.321 18.464 15.5496 18.2497 15.7853 18.0354ZM15.6924 19.814C15.8567 19.6426 16.0353 19.4712 16.221 19.3069C16.3782 19.7069 17.2639 21.7069 19.2424 23.864C18.0265 22.8437 16.9484 21.6696 16.0353 20.3712C15.921 20.1926 15.7996 20.0069 15.6924 19.814ZM14.9424 18.8497C14.7487 18.4314 14.5863 17.9993 14.4567 17.5569C14.3139 17.0569 14.2282 16.5783 14.1924 16.1283C12.7583 16.7959 11.5262 17.8309 10.621 19.1283H9.21387C10.4678 17.452 12.1977 16.1924 14.1782 15.514C14.1821 14.9013 14.2859 14.2934 14.4853 13.714C9.7853 14.5426 6.99958 17.2926 6.09244 18.8211L5.71387 18.6212C6.76025 17.194 8.08787 15.9964 9.61486 15.1021C11.1419 14.2077 12.8359 13.6357 14.5924 13.4212C14.7353 13.064 14.9139 12.7569 15.0924 12.4926C15.1353 10.9211 15.3639 9.11401 15.9139 7.14258H16.2139C15.6671 8.77223 15.3662 10.4742 15.321 12.1926C15.571 11.8854 15.821 11.6569 16.0353 11.5069C16.4986 11.1923 17.0253 10.9833 17.5782 10.8944C18.1311 10.8055 18.6968 10.8391 19.2353 10.9926C20.6424 11.3783 22.021 12.5069 23.1496 14.1926C28.9782 12.3783 35.0782 12.3926 35.7139 12.7926C35.3424 12.7926 35.0496 12.7783 34.7853 12.7711C33.4424 12.7283 32.9782 12.714 26.6639 14.1497C25.8067 14.3497 24.971 14.5783 24.1639 14.8283C25.571 15.5069 26.5567 16.2569 26.9353 16.7711C27.5278 17.3053 28.0003 17.959 28.3216 18.6891C28.643 19.4192 28.8059 20.2092 28.7996 21.0069C28.4139 23.9783 26.4353 25.7926 24.1924 26.8926C27.1924 28.3426 29.3853 28.764 30.2996 28.764V28.9069C28.3139 28.814 26.0139 27.9569 24.021 26.9783L23.6924 27.1212C26.32 28.5903 29.2103 29.5294 32.1996 29.8854V29.9997C30.6996 29.9283 26.9567 29.2854 23.4353 27.2283C21.6661 27.934 19.7888 28.3303 17.8853 28.3997C16.421 28.4354 14.2067 28.064 12.4924 27.114C11.5996 27.1997 10.6353 27.2711 9.57815 27.3283V27.1712C10.2853 27.1712 11.2424 27.1212 12.321 27.0212C10.9424 26.2069 9.91387 24.9997 9.91387 23.3069C9.91387 20.2354 12.3924 18.8997 13.6282 18.6212L13.9496 18.8211C11.4353 19.5711 10.5782 21.0711 10.3353 23.214C10.1924 24.4354 11.0639 25.9426 12.7567 26.9711C13.3996 26.8997 14.0639 26.814 14.7496 26.6997C12.1067 25.4426 12.2782 23.0783 12.9496 21.8926C13.421 20.7497 14.1067 19.7426 14.9496 18.8497H14.9424ZM14.9353 26.7854C14.3067 26.8926 13.6353 26.9854 12.9139 27.0712C14.4331 27.9025 16.1568 28.2864 17.8853 28.1783C20.2353 28.0854 21.9353 27.5569 23.0496 26.9997C22.9345 26.9296 22.8202 26.8582 22.7067 26.7854C21.3353 27.4569 19.5782 27.5711 18.7782 27.5354C17.4617 27.5262 16.1586 27.2719 14.9353 26.7854ZM22.6424 26.7354C21.4098 27.1983 20.1019 27.4284 18.7853 27.414C17.5722 27.4127 16.3702 27.1825 15.2424 26.7354C15.5782 26.6712 15.8996 26.6069 16.2067 26.5354C17.1139 26.7926 18.2282 26.9497 19.5996 26.9497C20.2567 26.9212 21.3853 26.8211 22.4567 26.614L22.6424 26.7354ZM22.9282 26.664L23.2782 26.8783L23.5424 26.7354L23.1567 26.5212C23.0853 26.5783 23.0067 26.6212 22.9282 26.664ZM23.1424 26.5212L22.8853 26.6354L22.7567 26.5497L23.071 26.4783L23.1424 26.5212ZM23.2853 26.4283L23.6924 26.6426C24.0924 26.3854 24.371 26.1426 24.5282 25.9569C24.1996 26.1426 23.7639 26.2997 23.2782 26.4283H23.2853ZM22.9282 26.2354C22.1567 25.8165 21.4015 25.3685 20.6639 24.8926L20.9996 24.6997C23.4639 23.2212 24.5853 21.0854 24.6282 19.1997C24.6424 18.6711 24.6139 18.1711 24.5567 17.7283C25.5531 18.6715 26.2236 19.9073 26.471 21.2569C26.4782 20.2711 26.0067 18.6854 24.5139 17.4069C24.4541 16.9982 24.3634 16.5946 24.2424 16.1997C25.671 17.0569 27.2353 18.614 27.271 21.0354C27.2282 22.3712 26.271 25.0711 22.9282 26.2354ZM23.9924 15.6354C24.3496 15.7854 24.6853 15.9497 24.8924 16.064C24.5529 15.6981 24.1604 15.3851 23.7282 15.1354L23.9924 15.6354ZM23.4424 15.0926C23.5139 15.2211 23.571 15.3569 23.6353 15.4926C23.4044 15.4026 23.1651 15.3356 22.921 15.2926C22.9424 15.2926 22.9853 15.2783 23.0424 15.2426C23.1353 15.1997 23.2639 15.1354 23.4424 15.0926ZM22.9567 14.2497C21.5353 12.1497 19.2567 10.9283 17.9853 10.9926C16.9139 11.0497 15.9853 11.564 15.3139 12.4426V13.3354C16.0639 13.264 16.8639 13.2283 17.6996 13.2497C19.6282 13.2997 21.3996 13.7211 22.8782 14.2783L22.9496 14.2497H22.9567ZM15.0996 13.3569L15.0924 12.764C14.971 12.9569 14.8567 13.1711 14.7567 13.3997L15.0924 13.3569H15.0996ZM14.6424 13.6854L15.0996 13.614C15.121 14.1783 15.1639 14.6997 15.2139 15.1854C14.9139 15.264 14.6139 15.3569 14.321 15.4569C14.3146 14.8513 14.4237 14.2501 14.6424 13.6854ZM15.071 15.7426L15.2853 15.7069L15.2782 15.664L15.071 15.7354V15.7426ZM15.4996 15.5854L15.5139 15.664C16.8996 15.4372 18.3088 15.3892 19.7067 15.5211L20.6424 15.0997C19.9996 14.9854 19.421 14.9212 18.9639 14.9069C17.6567 14.9783 16.5067 15.2283 15.4996 15.5854ZM21.7282 15.9354L22.7139 15.5211C23.0282 15.614 23.4139 15.764 23.8139 15.9712C23.9452 16.3359 24.0455 16.711 24.1139 17.0926C23.3885 16.5768 22.5822 16.1858 21.7282 15.9354ZM21.4139 16.0783C22.371 16.3497 23.3424 16.7497 24.1782 17.4069C24.7496 20.4212 24.021 22.4854 20.7496 24.6926L20.5567 24.8211L20.071 24.5069V24.5926L19.9424 24.464H20.0567L19.6996 24.2283C18.2891 22.7535 17.1824 21.0158 16.4424 19.114C17.9602 17.8898 19.6315 16.8693 21.4139 16.0783ZM15.4424 15.1354C15.371 14.6069 15.3353 14.0926 15.321 13.5926C16.071 13.4997 16.8639 13.4569 17.6996 13.4783C18.8639 13.4926 20.4639 13.6926 22.3139 14.464C21.921 14.5997 21.5282 14.7426 21.1424 14.8926C20.6139 14.8354 19.9282 14.7783 18.9639 14.7569C17.7496 14.7354 16.5639 14.8569 15.4424 15.1354ZM22.7353 26.2997L22.4996 26.3711L22.4496 26.3426C21.971 26.114 21.2782 25.664 20.4996 24.9854L20.5424 24.964C21.1282 25.3569 21.8853 25.8211 22.7353 26.2997ZM22.2139 26.4497C21.5891 26.0142 20.9927 25.5395 20.4282 25.0283C19.4523 25.547 18.4223 25.9566 17.3567 26.2497C18.8282 26.664 20.4924 26.6926 21.6067 26.5854C21.821 26.5497 22.021 26.4997 22.2139 26.4497ZM17.1567 26.1926C18.3353 25.8783 19.4496 25.4711 20.3424 24.9569C20.1639 24.7926 19.9853 24.6283 19.8282 24.4569H19.7353C18.0527 23.2537 16.6252 21.7291 15.5353 19.9711C14.621 20.964 14.0496 22.0354 14.1567 23.1211C14.3139 24.7926 15.6067 25.714 17.1567 26.1926ZM15.9782 26.4712C13.4496 25.6854 12.6782 24.114 12.6567 23.214C12.6067 24.914 13.6496 25.9997 15.0496 26.6497C15.3601 26.5953 15.6696 26.5358 15.9782 26.4712ZM20.2782 24.7854L20.421 24.9069L20.4353 24.8926L20.2853 24.7854H20.2782Z" fill="black"/>
</g>
<circle cx="20" cy="20" r="19.5" stroke="black" stroke-opacity="0.05"/>
<defs>
<clipPath id="clip0_9_397895">
<rect width="31" height="23" fill="white" transform="translate(5 7)"/>
</clipPath>
</defs>
</svg>
