<svg width="40" height="40" viewBox="0 0 40 40" fill="none" xmlns="http://www.w3.org/2000/svg">
<circle cx="20" cy="20" r="20" fill="#F6F8FA"/>
<path d="M31.4769 13.5045V26.4767C31.4769 27.1121 31.2245 27.7214 30.7753 28.1706C30.326 28.6199 29.7167 28.8723 29.0813 28.8723C28.446 28.8723 27.8366 28.6199 27.3874 28.1706C26.9381 27.7214 26.6857 27.1121 26.6857 26.4767V13.5045C26.6857 12.8692 26.9381 12.2598 27.3874 11.8106C27.8366 11.3613 28.446 11.1089 29.0813 11.1089C29.7167 11.1089 30.326 11.3613 30.7753 11.8106C31.2245 12.2598 31.4769 12.8692 31.4769 13.5045ZM19.7385 6.99805C19.1031 6.99805 18.4938 7.25044 18.0445 7.6997C17.5952 8.14897 17.3429 8.7583 17.3429 9.39365V30.6019C17.3429 31.2373 17.5952 31.8466 18.0445 32.2959C18.4938 32.7451 19.1031 32.9975 19.7385 32.9975C20.3738 32.9975 20.9831 32.7451 21.4324 32.2959C21.8817 31.8466 22.1341 31.2373 22.1341 30.6019V9.39365C22.1341 8.7583 21.8817 8.14897 21.4324 7.6997C20.9831 7.25044 20.3738 6.99805 19.7385 6.99805ZM10.3956 11.1089C9.76025 11.1089 9.15092 11.3613 8.70166 11.8106C8.25239 12.2598 8 12.8692 8 13.5045V26.4767C8 27.1121 8.25239 27.7214 8.70166 28.1706C9.15092 28.6199 9.76025 28.8723 10.3956 28.8723C11.031 28.8723 11.6403 28.6199 12.0896 28.1706C12.5388 27.7214 12.7912 27.1121 12.7912 26.4767V13.5045C12.7912 12.8692 12.5388 12.2598 12.0896 11.8106C11.6403 11.3613 11.031 11.1089 10.3956 11.1089Z" fill="#A3A7AA"/>
<path d="M19.7384 32.9979C19.3232 32.9971 18.9152 32.8885 18.5547 32.6825C18.1941 32.4766 17.8932 32.1804 17.6816 31.8231C17.47 31.4658 17.3549 31.0597 17.3475 30.6445C17.3402 30.2293 17.441 29.8193 17.6399 29.4548L26.9827 12.355C27.289 11.7978 27.804 11.385 28.4146 11.2076C29.0251 11.0301 29.6812 11.1025 30.2384 11.4087C30.7956 11.7149 31.2083 12.23 31.3858 12.8405C31.5632 13.4511 31.4909 14.1071 31.1846 14.6643L21.8418 31.7642C21.6337 32.1393 21.3288 32.4516 20.9588 32.6687C20.5888 32.8857 20.1674 32.9994 19.7384 32.9979Z" fill="#6FD44E"/>
<path d="M21.8416 10.544L12.4987 27.6271C12.1938 28.1846 11.6798 28.5981 11.0699 28.7767C10.4601 28.9553 9.80422 28.8843 9.24669 28.5793C8.68917 28.2744 8.27563 27.7604 8.09705 27.1505C7.91847 26.5407 7.98947 25.8848 8.29444 25.3273L17.6373 8.24425C17.7883 7.96819 17.9922 7.72458 18.2374 7.52732C18.4825 7.33007 18.7641 7.18303 19.0661 7.0946C19.3681 7.00618 19.6845 6.9781 19.9973 7.01197C20.3102 7.04584 20.6133 7.14099 20.8893 7.292C21.1654 7.443 21.409 7.6469 21.6063 7.89205C21.8035 8.13721 21.9505 8.41881 22.039 8.72079C22.1274 9.02277 22.1555 9.33921 22.1216 9.65204C22.0877 9.96487 21.9926 10.268 21.8416 10.544Z" fill="#003970"/>
<circle cx="20" cy="20" r="19.5" stroke="black" stroke-opacity="0.05"/>
</svg>
