<svg width="40" height="40" viewBox="0 0 40 40" fill="none" xmlns="http://www.w3.org/2000/svg">
<circle cx="20" cy="20" r="20" fill="#3C3C3C"/>
<g clip-path="url(#clip0_9_388579)">
<path fill-rule="evenodd" clip-rule="evenodd" d="M30.8314 10.8194C30.7102 11.2236 29.016 15.1799 27.3231 18.8248C25.7989 22.1223 24.3652 24.9546 23.8009 26.0772C21.5563 30.532 20.301 30.9985 19.9986 30.9985C19.6963 30.9915 18.4549 30.5292 16.1977 26.0772C15.6349 24.9656 14.2012 22.1223 12.6769 18.8248C10.9896 15.1689 9.30237 11.2236 9.16304 10.8194C9.16304 10.8194 8.83005 10.1715 9.13796 10.0317C9.54202 9.85172 10.1314 10.494 10.332 10.5619C10.9311 10.6782 11.4843 10.9606 11.9301 11.3745C12.7006 12.1317 17.5548 19.3716 18.7168 20.7213C19.3382 21.4412 19.8468 22.0835 20.0042 22.0835C20.163 22.0835 20.6702 21.4412 21.2916 20.7213C22.455 19.3744 27.3036 12.1317 28.0769 11.3745C28.5214 10.9606 29.0759 10.6782 29.6736 10.5619C29.8743 10.494 30.4664 9.85172 30.8677 10.0317C31.1756 10.1715 30.8398 10.8194 30.8314 10.8194ZM30.2922 10.9509C30.4929 10.7238 30.9722 10.2809 30.791 10.1853C30.543 10.0483 29.9537 10.71 29.5984 10.8C29.1079 10.8733 28.6565 11.1087 28.3166 11.4672C27.6756 12.0666 26.5123 13.9576 24.453 17.0114C23.1656 18.9259 22.0927 20.3988 21.4922 21.1463C20.744 22.0973 20.2299 22.5486 20.0042 22.5486C19.7785 22.5486 19.2616 22.089 18.5148 21.1463C17.9129 20.396 16.8401 18.9231 15.554 17.0114C13.4934 13.9576 12.3272 12.0666 11.6919 11.4672C11.3519 11.1087 10.9005 10.8747 10.4114 10.8C10.0617 10.71 9.46539 10.0483 9.21459 10.1853C9.04183 10.2809 9.52251 10.7238 9.71618 10.9509C10.4588 11.7898 15.7143 22.6109 16.9028 24.6209C18.0912 26.6323 19.589 29.0881 20.007 29.1075C20.4278 29.1075 21.9409 26.624 23.1266 24.6209C24.3109 22.6192 29.5608 11.7898 30.3034 10.9509H30.2922Z" fill="white"/>
<path d="M29.112 11.5395C28.8305 12.0005 27.7298 14.1475 26.324 16.6822C24.7635 19.5173 22.8979 22.7234 22.5245 23.3477C21.8279 24.5174 20.4388 26.5108 20.0041 26.5261C19.5721 26.5081 18.1844 24.5174 17.4864 23.3449C17.1172 22.7234 15.2627 19.5173 13.6911 16.6822C12.2797 14.1586 11.1678 12.0005 10.9017 11.5395C10.637 11.0799 10.7192 10.9235 11.2695 11.5395C12.0902 12.485 14.0603 15.889 14.0603 15.889C14.0603 15.889 17.4585 21.5204 17.9894 22.2665C18.5202 23.0113 19.607 24.4053 19.9985 24.4191C20.397 24.4053 21.5088 22.9725 22.0104 22.2665C22.5134 21.5591 25.945 15.889 25.945 15.889C25.945 15.889 27.9207 12.4933 28.7428 11.5575C29.2931 10.9235 29.3809 11.0412 29.112 11.5395Z" fill="white"/>
</g>
<circle cx="20" cy="20" r="19.5" stroke="black" stroke-opacity="0.05"/>
<defs>
<clipPath id="clip0_9_388579">
<rect width="22" height="21" fill="white" transform="translate(9 10)"/>
</clipPath>
</defs>
</svg>
