<svg width="40" height="40" viewBox="0 0 40 40" fill="none" xmlns="http://www.w3.org/2000/svg">
<circle cx="20" cy="20" r="20" fill="#0C2551"/>
<circle cx="20" cy="20" r="19.5" stroke="black" stroke-opacity="0.05"/>
<mask id="mask0_9_395288" style="mask-type:luminance" maskUnits="userSpaceOnUse" x="11" y="11" width="20" height="19">
<path d="M11.002 11H31.0004V29.4224H11.002V11Z" fill="white"/>
</mask>
<g mask="url(#mask0_9_395288)">
<path d="M15.4708 16.0584L11.4616 16.0449C11.3774 16.0476 11.2954 16.0726 11.224 16.1173C11.1526 16.162 11.0943 16.2248 11.055 16.2993C11.0157 16.3738 10.9969 16.4574 11.0004 16.5416C11.0039 16.6258 11.0297 16.7075 11.075 16.7785L13.0317 19.947L15.4708 16.0584Z" fill="#1C716B"/>
<path d="M26.108 11C25.9251 11.0004 25.7454 11.0477 25.5859 11.1373C25.4265 11.2269 25.2927 11.3558 25.1973 11.5119L16.609 25.2254C16.5607 25.3037 16.5352 25.3939 16.5352 25.4859C16.5352 25.5779 16.5607 25.6681 16.609 25.7464L18.7199 29.1592C18.7676 29.2392 18.8352 29.3055 18.9161 29.3516C18.997 29.3978 19.0885 29.4222 19.1816 29.4225C19.2748 29.4227 19.3664 29.3989 19.4476 29.3533C19.5288 29.3076 19.5968 29.2417 19.645 29.162L31.0005 11.0163L26.108 11Z" fill="#00CC99"/>
</g>
<path d="M15.6319 16.0584L11.4616 16.0449C11.3774 16.0476 11.2954 16.0726 11.224 16.1173C11.1526 16.162 11.0943 16.2248 11.055 16.2993C11.0157 16.3738 10.9969 16.4574 11.0004 16.5416C11.0039 16.6258 11.0297 16.7075 11.075 16.7785L13.1055 20.0877L15.6319 16.0584Z" fill="#0E7A77"/>
<path d="M16.2095 25.0688L23.5386 13.3493L18.441 13.333C18.2581 13.3334 18.0784 13.3806 17.9189 13.4702C17.7595 13.5598 17.6257 13.6888 17.5303 13.8449L13.5224 20.2287C13.4739 20.3072 13.4482 20.3977 13.4482 20.49C13.4482 20.5823 13.4739 20.6727 13.5224 20.7513L16.2095 25.0688Z" fill="#099D91"/>
</svg>
