<svg width="40" height="40" viewBox="0 0 40 40" fill="none" xmlns="http://www.w3.org/2000/svg">
<circle cx="20" cy="20" r="20" fill="#0066FF"/>
<g clip-path="url(#clip0_9_407845)">
<path d="M12.9842 16.9698C11.3338 16.9698 10 15.6373 10 13.9894C10 12.3403 11.3338 11.0078 12.9842 11.0078C14.6358 11.0078 15.9696 12.3403 15.9696 13.9894C15.9696 15.6373 14.6358 16.9698 12.9842 16.9698ZM19.9975 16.9698C18.3471 16.9698 17.0133 15.6373 17.0133 13.9894C17.0133 12.3403 18.3471 11.0078 19.9975 11.0078C21.6479 11.0078 22.9829 12.3403 22.9829 13.9894C22.9829 15.6373 21.6479 16.9698 19.9975 16.9698ZM27.012 16.9698C25.3616 16.9698 24.0279 15.6373 24.0279 13.9894C24.0279 12.3403 25.3616 11.0078 27.012 11.0078C28.6624 11.0078 29.9962 12.3403 29.9962 13.9894C29.9962 15.6373 28.6624 16.9698 27.012 16.9698ZM19.9975 23.9768C18.3471 23.9768 17.0133 22.6443 17.0133 20.9951C17.0133 19.3473 18.3471 18.0135 19.9975 18.0135C21.6479 18.0135 22.9829 19.3473 22.9829 20.9951C22.9829 22.6443 21.6479 23.9768 19.9975 23.9768ZM19.9975 30.9837C18.3471 30.9837 17.0133 29.6513 17.0133 28.0021C17.0133 26.353 18.3471 25.0205 19.9975 25.0205C21.6479 25.0205 22.9829 26.353 22.9829 28.0021C22.9829 29.6513 21.6479 30.9837 19.9975 30.9837Z" fill="white"/>
</g>
<circle cx="20" cy="20" r="19.5" stroke="black" stroke-opacity="0.05"/>
<defs>
<clipPath id="clip0_9_407845">
<rect width="20" height="19.9873" fill="white" transform="translate(10 11)"/>
</clipPath>
</defs>
</svg>
