<svg width="40" height="40" viewBox="0 0 40 40" fill="none" xmlns="http://www.w3.org/2000/svg">
<circle cx="20" cy="20" r="20" fill="#006EAB"/>
<g clip-path="url(#clip0_9_412073)">
<path d="M17.1554 13.7129H11.2349L16.4874 26.3717C16.6173 26.6847 16.8371 26.9522 17.1189 27.1403C17.4007 27.3285 17.732 27.4289 18.0709 27.4289H22.8994L28.6389 13.7129H22.6234L19.9103 20.8557L17.156 13.7129H17.1554Z" fill="white"/>
<path d="M32.8914 19.9375C32.9765 19.8935 33.0748 19.8712 33.1782 19.8746C33.4902 19.8895 33.7285 20.1432 33.7137 20.446C33.7065 20.5488 33.6706 20.6474 33.6102 20.7308C33.5499 20.8143 33.4673 20.8791 33.372 20.918C31.8234 21.5877 20.2182 25.7557 18.856 23.1637C18.4171 22.33 19.3222 21.3506 19.8417 20.8283C19.8417 20.8283 20.3537 20.2643 20.4565 20.1557C20.5977 20.006 20.8948 19.666 20.7805 19.378C20.6817 19.134 20.2697 18.8837 19.2308 18.8609L19.1634 18.8603C18.984 18.3906 18.8422 18.0192 18.7748 17.8392C20.0857 17.8266 21.5365 18.2095 21.8377 19.0015C22.112 19.7209 21.784 20.3786 21.1245 20.9912C21.1245 20.9912 19.7302 22.2335 19.8948 22.6975C20.236 23.6609 27.6765 22.1077 32.8914 19.9375ZM13.7737 19.8483L13.392 18.9283C11.6828 19.4437 9.51652 20.1809 7.96338 20.8826C7.87217 20.922 7.79416 20.9867 7.73856 21.069C7.68297 21.1513 7.65212 21.2479 7.64967 21.3472C7.64929 21.4171 7.66277 21.4864 7.68934 21.5511C7.7159 21.6157 7.75502 21.6745 7.80444 21.724C7.85386 21.7735 7.91259 21.8126 7.97724 21.8393C8.04189 21.8659 8.11117 21.8795 8.18109 21.8792C8.27682 21.8812 8.37133 21.8575 8.45481 21.8106C9.79881 21.1272 12.0457 20.3689 13.7737 19.8483Z" fill="#006EAB"/>
<path d="M32.6696 19.3867C32.7553 19.3427 32.8536 19.3198 32.9565 19.3238C33.2685 19.3387 33.5073 19.5924 33.4925 19.8952C33.4853 19.998 33.4494 20.0966 33.3891 20.1801C33.3287 20.2635 33.2461 20.3283 33.1508 20.3672C31.6016 21.037 19.9965 25.205 18.6342 22.613C18.1959 21.7787 19.101 20.7998 19.6205 20.2775C19.6205 20.2775 20.1325 19.7135 20.2353 19.605C20.3765 19.4552 20.6736 19.1152 20.5588 18.8272C20.4605 18.5827 20.0485 18.333 19.0102 18.3101C18.989 18.3101 18.9639 18.3101 18.9416 18.309L18.553 17.2884C19.8645 17.2758 21.3153 17.6581 21.617 18.4507C21.8908 19.1701 21.5628 19.8278 20.9028 20.4404C20.9028 20.4404 19.5085 21.6827 19.673 22.1461C20.0148 23.1101 27.4553 21.557 32.6696 19.3867ZM13.5525 19.297L13.1708 18.3775C11.461 18.893 9.29476 19.6301 7.74219 20.3318C7.65107 20.3712 7.57311 20.4357 7.51753 20.518C7.46194 20.6002 7.43104 20.6966 7.42848 20.7958C7.42802 20.8658 7.44145 20.9351 7.46798 20.9999C7.49452 21.0646 7.53362 21.1235 7.58305 21.173C7.63247 21.2225 7.69123 21.2618 7.75591 21.2884C7.8206 21.3151 7.88994 21.3287 7.95991 21.3284C8.05563 21.3304 8.15014 21.3067 8.23362 21.2598C9.57705 20.5758 11.8245 19.8175 13.5525 19.297Z" fill="#FFCF00"/>
</g>
<circle cx="20" cy="20" r="19.5" stroke="black" stroke-opacity="0.05"/>
<defs>
<clipPath id="clip0_9_412073">
<rect width="27" height="15" fill="white" transform="translate(7 13)"/>
</clipPath>
</defs>
</svg>
