<svg width="40" height="40" viewBox="0 0 40 40" fill="none" xmlns="http://www.w3.org/2000/svg">
<circle cx="20" cy="20" r="20" fill="#F6F8FA"/>
<path d="M15.2788 10H25.0586C26.4737 10.1945 27.5248 10.8289 28.212 11.9032C28.901 12.9793 30.0318 14.9547 31.6043 17.8294C30.5875 16.8773 29.5817 16.3967 28.587 16.3874C26.946 16.3726 25.2605 16.3605 23.5305 16.3513L19.0157 16.3207C18.9809 16.3207 18.947 16.3116 18.9172 16.2946C18.8874 16.2775 18.8629 16.253 18.8462 16.2235L15.2788 10Z" fill="#002A4E"/>
<path d="M9 24.3252V24.2057L11.1866 20.4077C11.2347 20.3244 11.2347 20.242 11.1866 20.1605L9 16.343V16.1819C9.01111 16.1819 9.0213 16.1828 9.03056 16.1847C9.05094 16.1847 9.06575 16.1763 9.07502 16.1597C10.2252 14.1611 11.3912 12.1375 12.5729 10.089C12.5785 10.0792 12.5866 10.071 12.5964 10.0653C12.6061 10.0596 12.6172 10.0566 12.6285 10.0566C12.6398 10.0566 12.6509 10.0596 12.6607 10.0653C12.6704 10.071 12.6785 10.0792 12.6841 10.089L18.4797 20.1688C18.5026 20.2095 18.5146 20.2554 18.5146 20.3022C18.5146 20.3489 18.5026 20.3948 18.4797 20.4355L12.7007 30.4848C12.6563 30.5644 12.6109 30.5644 12.5646 30.4848L9 24.3252Z" fill="#FBD80E"/>
<path d="M31.6046 17.8287L32.9633 20.1569C33.0114 20.2403 33.0123 20.3236 32.966 20.407L31.6213 22.7435C30.6119 23.7197 29.4153 24.2133 28.0317 24.2244C26.5647 24.2337 25.0617 24.242 23.5225 24.2494L25.6979 20.4014C25.7183 20.3649 25.7291 20.3238 25.7291 20.2819C25.7291 20.2401 25.7183 20.199 25.6979 20.1625L23.5308 16.3506C25.2608 16.3598 26.9463 16.3719 28.5874 16.3867C29.582 16.396 30.5878 16.8766 31.6046 17.8287Z" fill="#778C9A"/>
<path d="M31.6214 22.7441C29.8155 26.0615 28.6403 28.11 28.0957 28.8898C27.2937 30.0419 25.974 30.618 24.1366 30.618C21.3434 30.6161 18.4502 30.6161 15.457 30.618C15.3292 30.618 15.2968 30.5624 15.3598 30.4513L18.8133 24.4445C18.8688 24.35 18.9513 24.3019 19.0605 24.3L23.5226 24.25C25.0618 24.2426 26.5648 24.2343 28.0318 24.225C29.4154 24.2139 30.6119 23.7203 31.6214 22.7441Z" fill="#002A4E"/>
<circle cx="20" cy="20" r="19.5" stroke="black" stroke-opacity="0.05"/>
</svg>
