<svg width="40" height="40" viewBox="0 0 40 40" fill="none" xmlns="http://www.w3.org/2000/svg">
<circle cx="20" cy="20" r="20" fill="#2E3172"/>
<g clip-path="url(#clip0_9_411634)">
<path d="M24.3068 17.143C23.8068 17.143 23.5439 17.4059 23.4159 17.6739C23.2879 17.9419 23.2902 18.2041 23.2902 18.2041V23.1921C23.2902 23.1921 23.2959 23.535 23.4022 23.8744C23.4548 24.0436 23.5291 24.2116 23.6525 24.3441C23.7759 24.4761 23.9496 24.5716 24.1674 24.5716H25.4199C25.8942 24.5716 26.1239 24.1859 26.2131 24.0407C26.2188 24.075 26.2359 24.1264 26.2411 24.1779C26.2525 24.307 26.2548 24.4504 26.2548 24.4504V24.5716H28.3559V17.143H26.3102C26.3102 17.143 26.3091 17.3739 26.2965 17.4916C26.2862 17.5904 26.2622 17.6961 26.2411 17.7796C26.2079 17.7287 26.1696 17.6561 26.1016 17.5676C25.9519 17.3721 25.6976 17.143 25.2948 17.143H24.3068ZM25.8234 19.0533C26.0239 19.0533 26.0856 19.1281 26.1296 19.2047C26.1736 19.2813 26.1851 19.3561 26.1851 19.3561V22.3733C26.1851 22.3733 26.1999 22.4396 26.1571 22.5099C26.1148 22.5801 26.0171 22.6613 25.8234 22.6613C25.7862 22.6616 25.7493 22.6537 25.7156 22.638C25.6819 22.6222 25.6521 22.5992 25.6285 22.5704C25.5772 22.5082 25.5392 22.436 25.5171 22.3584C25.4696 22.1973 25.4891 22.0396 25.4891 22.0396V19.387C25.4891 19.387 25.4759 19.2876 25.5176 19.2047C25.5582 19.1219 25.6474 19.0533 25.8234 19.0533ZM11.9999 17.2047V17.143H14.1062V22.2961C14.1062 22.5041 14.2022 22.5727 14.2874 22.6219C14.3435 22.6527 14.4046 22.6736 14.4679 22.6836C14.4679 22.6836 14.5576 22.6721 14.6628 22.6219C14.7685 22.571 14.8856 22.5019 14.8856 22.2961V17.143H17.0565V22.8847C17.0565 23.5259 16.8474 23.9721 16.6108 24.231C16.3748 24.4904 16.1136 24.5716 15.9708 24.5716H13.0576C12.9034 24.5716 12.6462 24.4887 12.4176 24.231C12.1891 23.9733 11.9999 23.5327 11.9999 22.8847V17.2047ZM19.8114 17.5916C19.8962 17.4505 20.0171 17.3346 20.1617 17.2558C20.3062 17.1769 20.4691 17.138 20.6336 17.143H23.0131V19.2013H22.1502C22.0016 19.2013 21.9325 19.247 21.8994 19.3099C21.8674 19.3721 21.8719 19.4487 21.8719 19.4487V22.4047C21.8719 22.4047 21.8931 22.4864 21.9274 22.5596C21.9616 22.6327 22.0062 22.699 22.1502 22.699H23.0131V24.5716H20.6336C20.2245 24.5716 19.9588 24.3521 19.8125 24.123C19.7505 24.0218 19.7035 23.912 19.6731 23.7973C19.6502 23.7326 19.6362 23.6651 19.6314 23.5967V18.1487C19.6314 18.1013 19.6456 18.0333 19.6731 17.9321C19.7005 17.8316 19.7399 17.7076 19.8125 17.5916H19.8114ZM30.9862 17.507C31.1439 17.3379 31.3999 17.143 31.7234 17.143H32.7954C33.2496 17.143 33.5039 17.4241 33.6159 17.6887C33.7285 17.9533 33.7131 18.2041 33.7131 18.2041V24.5716H31.4285V19.3413C31.4285 19.1784 31.2571 19.1139 31.1474 19.1139C31.0136 19.1139 30.8628 19.1836 30.8571 19.3413C30.8514 19.499 30.8571 24.5716 30.8571 24.5716H28.5714V17.143H30.8331C30.8331 17.143 30.8314 17.3876 30.8331 17.507C30.8342 17.5813 30.8434 17.6293 30.8468 17.6887C30.8851 17.639 30.9211 17.5761 30.9862 17.507ZM6.28564 15.503V15.4287H8.65136V19.9779C8.65136 20.4036 8.74279 20.9207 8.84564 21.3156C8.89707 21.5133 8.9525 21.6876 8.99936 21.8064C9.02222 21.8659 9.03822 21.9116 9.05479 21.9401C9.07136 21.9116 9.10164 21.8659 9.1245 21.8064C9.17022 21.6876 9.22736 21.5127 9.27764 21.3156C9.37764 20.9213 9.45822 20.4053 9.45822 19.9779V15.4287H11.7685V19.9779C11.7685 21.0064 11.4011 22.1584 11.0451 23.0407C10.6885 23.9213 10.3354 24.5716 10.3354 24.5716H7.66279C7.66279 24.5716 6.28564 22.0299 6.28564 19.9779V15.5036V15.503ZM17.2651 15.503V15.4287H19.4285V24.5716H17.2651V15.503Z" fill="white"/>
</g>
<circle cx="20" cy="20" r="19.5" stroke="black" stroke-opacity="0.05"/>
<defs>
<clipPath id="clip0_9_411634">
<rect width="28" height="10" fill="white" transform="translate(6 15)"/>
</clipPath>
</defs>
</svg>
