<svg width="40" height="40" viewBox="0 0 40 40" fill="none" xmlns="http://www.w3.org/2000/svg">
<circle cx="20" cy="20" r="20" fill="#1E1E23"/>
<g clip-path="url(#clip0_9_404356)">
<path fill-rule="evenodd" clip-rule="evenodd" d="M8.7353 18.6426H7.7853V21.5333L5.07101 18.6426H3.71387L6.8353 22.0354H8.72851V18.6426H8.7353ZM10.8389 18.6426C10.3889 18.6426 9.95745 18.8213 9.63931 19.1395C9.32117 19.4576 9.14244 19.8891 9.14244 20.339C9.14244 20.7889 9.32117 21.2204 9.63931 21.5386C9.95745 21.8567 10.3889 22.0354 10.8389 22.0354H12.196C12.6459 22.0354 13.0774 21.8567 13.3956 21.5386C13.7137 21.2204 13.8924 20.7889 13.8924 20.339C13.8924 19.8891 13.7137 19.4576 13.3956 19.1395C13.0774 18.8213 12.6459 18.6426 12.196 18.6426H10.8389ZM11.1103 19.3211C10.8403 19.3211 10.5814 19.4284 10.3906 19.6193C10.1997 19.8102 10.0924 20.0691 10.0924 20.339C10.0924 20.609 10.1997 20.8679 10.3906 21.0587C10.5814 21.2496 10.8403 21.3569 11.1103 21.3569H11.9246C12.1945 21.3569 12.4534 21.2496 12.6443 21.0587C12.8352 20.8679 12.9424 20.609 12.9424 20.339C12.9424 20.0691 12.8352 19.8102 12.6443 19.6193C12.4534 19.4284 12.1945 19.3211 11.9246 19.3211H11.1103ZM15.521 22.0354H14.571V18.6426H15.8874L17.9639 21.0583V18.6426H18.9139V22.0354H17.6042L15.521 19.5654V22.0354ZM24.7496 18.6426H25.6996V22.0354H24.7496V18.6426ZM21.3567 18.6426H24.071V19.3211H22.3067V22.0354H21.3567V19.3211H19.5992V18.6426H21.3567ZM27.4639 18.6426H26.5139V22.0354H30.5174V21.3569H27.4639V20.6783H30.1782V19.9997H27.4639V19.3211H30.5174V18.6426H27.4639ZM34.5889 18.6426H31.2639V22.0354H32.2139V19.3211H34.3446C34.4346 19.3211 34.5209 19.3569 34.5845 19.4205C34.6481 19.4842 34.6839 19.5705 34.6839 19.6604C34.6839 19.7504 34.6481 19.8367 34.5845 19.9003C34.5209 19.964 34.4346 19.9997 34.3446 19.9997H32.6482L33.1367 20.5901L33.1707 20.6308L33.2114 20.6783L34.3921 22.0354H35.6067L34.3921 20.6783H34.5889C34.8588 20.6783 35.1177 20.5711 35.3086 20.3802C35.4995 20.1893 35.6067 19.9304 35.6067 19.6604C35.6067 19.3905 35.4995 19.1316 35.3086 18.9407C35.1177 18.7498 34.8588 18.6426 34.5889 18.6426Z" fill="#00A39B"/>
</g>
<circle cx="20" cy="20" r="19.5" stroke="black" stroke-opacity="0.05"/>
<defs>
<clipPath id="clip0_9_404356">
<rect width="33" height="5" fill="white" transform="translate(3 18)"/>
</clipPath>
</defs>
</svg>
