<svg width="40" height="40" viewBox="0 0 40 40" fill="none" xmlns="http://www.w3.org/2000/svg">
<circle cx="19.9999" cy="19.9999" r="19.9999" fill="#E70000"/>
<g clip-path="url(#clip0_9_387323)">
<path d="M28.3588 1.9653C27.9863 1.91323 27.6741 1.88412 27.4222 1.87796C27.0321 1.86821 26.7205 1.86903 26.4875 1.88044C26.0769 1.90047 25.6877 1.93761 25.2608 1.98894C25.1167 2.00619 24.9677 2.02653 24.8138 2.04994C24.4567 2.10411 24.2088 2.1444 24.0703 2.17081C23.8995 2.20338 23.7022 2.24697 23.4783 2.3016C23.4376 2.3115 23.3949 2.31953 23.3501 2.32568C23.3094 2.33123 23.2669 2.34016 23.2226 2.35247C23.1144 2.38218 23.0033 2.41257 22.8893 2.44363C22.8547 2.45309 22.8185 2.44926 22.7844 2.46006C22.7256 2.47867 22.6676 2.49563 22.6105 2.51094C22.5528 2.52624 22.4948 2.54433 22.4366 2.56518C22.3576 2.59355 22.2778 2.61531 22.1972 2.63046C22.1131 2.64622 22.0285 2.67728 21.9451 2.70812C21.8801 2.73198 21.8075 2.75487 21.7273 2.77678C21.6275 2.80394 21.5217 2.8407 21.4098 2.88707C21.3809 2.89908 21.3305 2.91318 21.2586 2.92939C21.1984 2.9429 21.1216 2.97246 21.0282 3.01808C21.001 3.03144 20.9639 3.04389 20.9169 3.05545C20.8767 3.0655 20.8394 3.07706 20.8052 3.09011C20.7182 3.12358 20.6324 3.15997 20.5477 3.19928C20.5355 3.20499 20.5144 3.21084 20.4846 3.21684C20.4614 3.22149 20.4406 3.2278 20.4222 3.23575C20.3442 3.26906 20.2667 3.305 20.1895 3.34357C20.1529 3.3618 20.1178 3.35843 20.0821 3.37396C19.9852 3.41598 19.8891 3.461 19.7938 3.50902C19.7851 3.51337 19.7758 3.51487 19.766 3.51352C19.758 3.51247 19.7505 3.51367 19.7434 3.51712L19.4924 3.6416C19.485 3.64535 19.4772 3.6473 19.4689 3.64745C19.4583 3.64775 19.4472 3.6506 19.4356 3.65601C19.3392 3.70117 19.2519 3.74634 19.1738 3.79151C19.1464 3.80727 19.1175 3.80569 19.0917 3.8183C19.0231 3.85161 18.9526 3.89033 18.8801 3.93445C18.8736 3.93835 18.8665 3.9403 18.8588 3.9403C18.843 3.94008 18.8346 3.93895 18.8204 3.94706C18.7547 3.98457 18.687 4.02336 18.6175 4.06343C18.5984 4.07454 18.5781 4.08144 18.5567 4.08414C18.5492 4.08504 18.5423 4.08744 18.5359 4.09134C18.4628 4.13606 18.3781 4.18206 18.2818 4.22933C18.1995 4.26969 18.1134 4.31997 18.0235 4.38014C18.0073 4.39095 17.9853 4.38802 17.9679 4.39838C17.8998 4.43889 17.8327 4.48061 17.7667 4.52353C17.7443 4.53794 17.721 4.53704 17.7 4.55167C17.6534 4.58431 17.5969 4.60974 17.5532 4.64666C17.5377 4.65956 17.5207 4.66992 17.5021 4.67772C17.4395 4.70361 17.3717 4.74322 17.3187 4.78532C17.297 4.80272 17.2726 4.81721 17.2455 4.82876C17.2215 4.83882 17.1984 4.85165 17.1761 4.86725C17.1284 4.90027 17.0742 4.93366 17.0133 4.96742C16.9499 5.00239 16.88 5.05071 16.8034 5.11238C16.7878 5.12476 16.7625 5.12566 16.7451 5.13894C16.6955 5.17721 16.6453 5.2124 16.5945 5.24452C16.4754 5.32015 16.3516 5.40433 16.223 5.49707C16.2004 5.51328 16.195 5.53534 16.1658 5.54434C16.1503 5.5493 16.135 5.55703 16.1199 5.56753C15.9761 5.66867 15.8479 5.76299 15.7355 5.85048C15.6021 5.95417 15.5322 6.00835 15.5259 6.013C15.4508 6.06807 15.3767 6.12457 15.3036 6.1825C14.9087 6.49553 14.527 6.82365 14.1586 7.16685C14.0677 7.25163 13.9726 7.34482 13.8734 7.44642C13.7694 7.55326 13.6774 7.64915 13.5973 7.73409C12.5735 8.82326 11.6972 10.0239 10.9685 11.3359C10.9296 11.4059 10.9017 11.4599 10.8846 11.4977C10.876 11.5171 10.8607 11.5272 10.8523 11.5466C10.8478 11.5571 10.8425 11.5678 10.8365 11.5787C10.7664 11.7077 10.6995 11.8401 10.6357 11.976C10.6073 12.0364 10.5793 12.0931 10.5516 12.1462C10.5231 12.2011 10.4944 12.2576 10.4654 12.3155C10.4571 12.3324 10.458 12.3513 10.4496 12.3675C10.4075 12.4473 10.3669 12.5287 10.3277 12.6117C10.3262 12.615 10.3253 12.6184 10.325 12.6218C10.3247 12.6267 10.3236 12.6312 10.3218 12.6356C10.2676 12.7668 10.2034 12.8913 10.1516 13.0261C10.1186 13.1118 10.0832 13.1966 10.0455 13.2805C10.0344 13.3055 10.0253 13.331 10.0182 13.3568C10.0105 13.385 10.0018 13.4104 9.99216 13.4331C9.9483 13.5362 9.89471 13.6767 9.8314 13.8547C9.46931 14.8718 9.215 15.8808 9.06848 16.8816C9.04647 17.0315 9.02725 17.1804 9.01082 17.3282C8.93274 18.0305 8.90606 18.7503 8.93078 19.4878C8.9662 20.5363 9.11853 21.5619 9.38776 22.5646C9.39386 22.5869 9.40336 22.6015 9.40652 22.6265C9.40833 22.6415 9.41165 22.6571 9.41647 22.6731C9.52863 23.0574 9.64364 23.4042 9.76153 23.7135C9.91498 24.1163 10.0953 24.5207 10.3024 24.9268C10.7703 25.8443 11.3501 26.6852 12.0417 27.4497C12.9823 28.4896 14.0768 29.3323 15.3251 29.9777C15.3474 29.9893 15.4095 30.0195 15.5114 30.0684C15.5708 30.097 15.6318 30.1285 15.6943 30.1632C15.6983 30.1655 15.7025 30.1664 15.707 30.1659C15.7094 30.1658 15.7118 30.1656 15.7142 30.1655C15.7185 30.1655 15.7228 30.1664 15.7273 30.1682C15.7954 30.1961 15.8578 30.2341 15.9243 30.2625C16.0928 30.3345 16.2628 30.4056 16.4342 30.4756C16.4432 30.4793 16.4527 30.481 16.4627 30.4808C16.4701 30.4805 16.4775 30.4819 16.4844 30.4849C16.5765 30.5252 16.6688 30.5615 16.7614 30.5936C16.771 30.5971 16.7822 30.5987 16.7948 30.5986C16.8086 30.5984 16.8215 30.6007 16.8337 30.6055C16.9647 30.6576 17.0916 30.7019 17.2145 30.7383C17.2511 30.7491 17.2839 30.7446 17.3219 30.7568C17.4909 30.8108 17.6518 30.8566 17.8047 30.8941C17.8639 30.9087 17.925 30.9042 17.9847 30.9204C18.1621 30.9682 18.3357 31.0016 18.5056 31.0206C18.5126 31.0214 18.5184 31.0244 18.523 31.0296C18.526 31.0329 18.5297 31.0343 18.5341 31.0337C18.5388 31.0332 18.5434 31.0334 18.5479 31.0341C18.6034 31.0437 18.6603 31.0513 18.7186 31.0568C18.7539 31.0602 18.7849 31.0753 18.8208 31.0749C18.8425 31.0746 18.8644 31.0758 18.8864 31.0785C19.9906 31.2083 21.0852 31.1745 22.1703 30.9772C22.9306 30.8391 23.6597 30.6289 24.3575 30.3467C26.1284 29.6304 27.6554 28.3949 28.7857 26.8606C29.3234 26.1307 29.7648 25.3484 30.1098 24.5137C30.1183 24.4936 30.1252 24.4739 30.1307 24.4545C30.1453 24.4019 30.1718 24.3607 30.1908 24.3118C30.5232 23.4548 30.7385 22.5876 30.8368 21.7104C30.9375 20.8103 30.9288 19.8915 30.8106 18.9541C30.7536 18.5024 30.6659 18.048 30.5474 17.5909C30.196 16.2353 29.5721 14.9921 28.6543 13.9389C28.172 13.3856 27.6358 12.8973 27.046 12.474C26.09 11.7881 25.0365 11.2611 23.9163 10.8584C23.7719 10.8065 23.6301 10.7555 23.4908 10.7054C23.4713 10.6982 23.4505 10.6975 23.4309 10.6907C23.1416 10.592 22.8042 10.4913 22.4188 10.3887C22.2941 10.3555 22.1764 10.3241 22.0656 10.2943C22.0577 10.2921 22.0536 10.2869 22.0531 10.2788C22.0396 10.0593 22.0376 9.8425 22.0473 9.62851C22.0862 8.76759 22.2652 7.93825 22.5843 7.14051C22.5908 7.12415 22.5973 7.10772 22.604 7.09121C22.7818 6.64807 22.9997 6.21971 23.2577 5.80613C23.7672 4.98978 24.411 4.26992 25.1891 3.64655C25.8139 3.14639 26.5291 2.74751 27.2927 2.44386C27.7277 2.27083 28.1494 2.12797 28.5576 2.01527C28.5588 2.02293 28.5705 2.03216 28.5926 2.04296C31.363 3.39234 33.7055 5.26192 35.6203 7.6517C36.7391 9.04821 37.656 10.5891 38.371 12.2743C39.2132 14.2595 39.7158 16.3344 39.8789 18.4989C39.9345 19.2366 39.9339 19.96 39.918 20.6988C39.8654 23.1429 39.3211 25.5733 38.363 27.8218C37.3297 30.247 35.8699 32.3894 33.9837 34.249C31.8091 36.3926 29.1068 38.0362 26.2116 38.98C24.5834 39.5108 22.9056 39.8273 21.1781 39.9295C19.726 40.0155 18.2807 39.946 16.8423 39.7211C15.4645 39.5054 14.1183 39.1466 12.8037 38.6447C12.6718 38.5944 12.5302 38.5379 12.379 38.4751C9.46441 37.2656 6.9739 35.4774 4.90751 33.1104C3.25883 31.222 2.01166 29.0913 1.16599 26.7183C0.405788 24.5853 0.013026 22.3188 0.0311152 20.0552C0.0330749 19.8115 0.0366173 19.5786 0.0417426 19.3565C0.0678212 18.2289 0.200174 17.0932 0.438801 15.9492C1.15604 12.5097 2.78904 9.30369 5.1542 6.69414C6.28629 5.445 7.55472 4.35336 8.9595 3.4192C9.94913 2.76117 10.9899 2.1988 12.0817 1.7321C12.351 1.61708 12.6345 1.5025 12.9271 1.39198C14.0631 0.963094 15.232 0.64218 16.4337 0.429239C18.5984 0.045523 20.7696 0.0134842 22.9472 0.333122C24.6384 0.581479 26.2696 1.04563 27.8408 1.72557C28.0123 1.7997 28.185 1.87961 28.3588 1.9653Z" fill="#E70000"/>
<path d="M28.359 1.96516C28.4278 1.96697 28.494 1.98362 28.5578 2.01514C28.1496 2.12784 27.7279 2.2707 27.2929 2.44372C26.5293 2.74738 25.8141 3.14625 25.1893 3.64642C24.4112 4.26978 23.7674 4.98964 23.2579 5.806C22.9999 6.21958 22.782 6.64793 22.6042 7.09108C22.5975 7.10758 22.591 7.12402 22.5845 7.14037C22.2654 7.93812 22.0864 8.76745 22.0475 9.62837C22.0378 9.84236 22.0398 10.0591 22.0533 10.2787C22.0538 10.2868 22.0579 10.292 22.0658 10.2942C22.1766 10.3239 22.2943 10.3554 22.419 10.3885C22.8044 10.4912 23.1418 10.5919 23.4311 10.6906C23.4507 10.6974 23.4715 10.698 23.491 10.7052C23.6303 10.7554 23.7721 10.8064 23.9165 10.8583C25.0367 11.261 26.0902 11.788 27.0462 12.4738C27.636 12.8972 28.1722 13.3855 28.6545 13.9388C29.5723 14.992 30.1962 16.2352 30.5476 17.5907C30.6661 18.0478 30.7538 18.5022 30.8108 18.9539C30.929 19.8914 30.9377 20.8101 30.837 21.7102C30.7387 22.5875 30.5234 23.4547 30.191 24.3117C30.172 24.3605 30.1456 24.4017 30.1309 24.4544C30.1254 24.4737 30.1185 24.4935 30.11 24.5136C29.765 25.3483 29.3236 26.1305 28.7859 26.8605C27.6556 28.3947 26.1286 29.6303 24.3577 30.3465C23.6599 30.6288 22.9308 30.839 22.1705 30.977C21.0854 31.1744 19.9908 31.2081 18.8866 31.0783C18.8646 31.0756 18.8427 31.0744 18.821 31.0747C18.7851 31.0752 18.7541 31.0601 18.7188 31.0567C18.6605 31.0512 18.6036 31.0436 18.5481 31.034C18.5436 31.0332 18.539 31.0331 18.5343 31.0335C18.5299 31.0341 18.5263 31.0328 18.5232 31.0295C18.5186 31.0242 18.5128 31.0212 18.5058 31.0205C18.3359 31.0014 18.1623 30.968 17.9849 30.9203C17.9252 30.9041 17.8641 30.9086 17.8049 30.894C17.652 30.8565 17.4911 30.8107 17.3221 30.7567C17.2841 30.7445 17.2513 30.749 17.2147 30.7382C17.0919 30.7017 16.9649 30.6575 16.8339 30.6054C16.8217 30.6006 16.8088 30.5983 16.795 30.5984C16.7824 30.5986 16.7712 30.5969 16.7616 30.5935C16.669 30.5614 16.5767 30.5251 16.4846 30.4847C16.4777 30.4818 16.4703 30.4804 16.4629 30.4807C16.4529 30.4808 16.4434 30.4791 16.4344 30.4755C16.263 30.4054 16.093 30.3344 15.9245 30.2623C15.858 30.234 15.7956 30.1959 15.7275 30.168C15.723 30.1662 15.7187 30.1653 15.7144 30.1653C15.712 30.1655 15.7096 30.1656 15.7072 30.1658C15.7027 30.1662 15.6985 30.1653 15.6945 30.1631C15.632 30.1284 15.571 30.0968 15.5116 30.0683C15.4097 30.0194 15.3476 29.9892 15.3253 29.9776C14.077 29.3322 12.9825 28.4895 12.0419 27.4495C11.3503 26.6851 10.7705 25.8441 10.3026 24.9266C10.0955 24.5206 9.91519 24.1161 9.76173 23.7134C9.64385 23.4041 9.52883 23.0573 9.41668 22.673C9.41185 22.6569 9.40854 22.6414 9.40673 22.6264C9.40356 22.6014 9.39407 22.5868 9.38796 22.5645C9.11873 21.5617 8.96641 20.5361 8.93098 19.4876C8.90626 18.7502 8.93294 18.0303 9.01103 17.328C9.02746 17.1802 9.04668 17.0314 9.06869 16.8814C9.21521 15.8807 9.46951 14.8717 9.8316 13.8546C9.89491 13.6766 9.9485 13.5361 9.99237 13.433C10.002 13.4103 10.0107 13.3849 10.0184 13.3567C10.0255 13.3308 10.0346 13.3054 10.0457 13.2803C10.0834 13.1965 10.1188 13.1117 10.1518 13.026C10.2036 12.8912 10.2678 12.7667 10.322 12.6354C10.3239 12.6311 10.3249 12.6265 10.3252 12.6217C10.3255 12.6183 10.3264 12.6149 10.3279 12.6116C10.3671 12.5286 10.4077 12.4472 10.4498 12.3674C10.4582 12.3511 10.4573 12.3322 10.4656 12.3154C10.4946 12.2574 10.5233 12.201 10.5518 12.1461C10.5795 12.093 10.6075 12.0362 10.6359 11.9759C10.6997 11.8399 10.7666 11.7075 10.8367 11.5786C10.8427 11.5677 10.848 11.5569 10.8525 11.5464C10.8609 11.5271 10.8762 11.5169 10.8848 11.4976C10.9019 11.4598 10.9298 11.4058 10.9687 11.3357C11.6974 10.0237 12.5737 8.82312 13.5975 7.73395C13.6776 7.64902 13.7696 7.55313 13.8736 7.44628C13.9728 7.34469 14.0679 7.2515 14.1588 7.16671C14.5272 6.82351 14.9089 6.49539 15.3038 6.18236C15.3769 6.12443 15.451 6.06793 15.5261 6.01286C15.5324 6.00821 15.6023 5.95404 15.7357 5.85034C15.8481 5.76285 15.9763 5.66854 16.1201 5.56739C16.1352 5.55689 16.1505 5.54916 16.166 5.54421C16.1952 5.5352 16.2006 5.51315 16.2232 5.49694C16.3518 5.4042 16.4756 5.32001 16.5947 5.24438C16.6455 5.21227 16.6957 5.17708 16.7453 5.13881C16.7627 5.12553 16.788 5.12463 16.8036 5.11225C16.8802 5.05057 16.9502 5.00225 17.0135 4.96728C17.0744 4.93352 17.1286 4.90013 17.1763 4.86712C17.1986 4.85151 17.2217 4.83868 17.2457 4.82863C17.2728 4.81707 17.2972 4.80259 17.3189 4.78518C17.3719 4.74309 17.4397 4.70347 17.5023 4.67758C17.5209 4.66978 17.5379 4.65943 17.5534 4.64652C17.5971 4.60961 17.6536 4.58417 17.7002 4.55153C17.7212 4.5369 17.7445 4.5378 17.7669 4.52339C17.8329 4.48048 17.9 4.43876 17.9681 4.39824C17.9855 4.38788 18.0075 4.39081 18.0237 4.38001C18.1136 4.31983 18.1997 4.26956 18.282 4.22919C18.3783 4.18192 18.463 4.13593 18.5361 4.09121C18.5425 4.08731 18.5494 4.0849 18.5569 4.084C18.5783 4.0813 18.5986 4.0744 18.6178 4.0633C18.6872 4.02323 18.7549 3.98444 18.8206 3.94692C18.8348 3.93882 18.8432 3.93994 18.859 3.94017C18.8667 3.94017 18.8738 3.93822 18.8803 3.93431C18.9528 3.89019 19.0233 3.85148 19.0919 3.81816C19.1177 3.80556 19.1466 3.80713 19.174 3.79138C19.2521 3.74621 19.3394 3.70104 19.4358 3.65587C19.4474 3.65047 19.4585 3.64762 19.4691 3.64732C19.4774 3.64717 19.4852 3.64521 19.4926 3.64146L19.7436 3.51698C19.7507 3.51353 19.7582 3.51233 19.7662 3.51338C19.776 3.51473 19.7853 3.51323 19.794 3.50888C19.8893 3.46086 19.9854 3.41584 20.0823 3.37382C20.118 3.35829 20.1531 3.36167 20.1897 3.34343C20.2669 3.30487 20.3444 3.26893 20.4224 3.23561C20.4408 3.22766 20.4616 3.22136 20.4848 3.2167C20.5146 3.2107 20.5357 3.20485 20.5479 3.19915C20.6326 3.15983 20.7184 3.12344 20.8054 3.08998C20.8396 3.07692 20.8769 3.06536 20.9171 3.05531C20.9641 3.04376 21.0012 3.0313 21.0284 3.01794C21.1218 2.97232 21.1986 2.94276 21.2588 2.92926C21.3307 2.91305 21.3811 2.89894 21.41 2.88694C21.5219 2.84057 21.6277 2.8038 21.7275 2.77664C21.8077 2.75473 21.8803 2.73185 21.9453 2.70799C22.0287 2.67715 22.1133 2.64608 22.1974 2.63033C22.278 2.61517 22.3578 2.59341 22.4368 2.56505C22.495 2.54419 22.553 2.52611 22.6107 2.5108C22.6678 2.49549 22.7258 2.47854 22.7846 2.45993C22.8187 2.44912 22.8549 2.45295 22.8895 2.4435C23.0035 2.41243 23.1146 2.38204 23.2228 2.35233C23.2671 2.34003 23.3096 2.3311 23.3503 2.32555C23.3951 2.31939 23.4378 2.31136 23.4785 2.30146C23.7024 2.24684 23.8997 2.20324 24.0705 2.17068C24.209 2.14427 24.4569 2.10397 24.814 2.0498C24.9679 2.02639 25.1169 2.00606 25.261 1.9888C25.6879 1.93748 26.0771 1.90034 26.4877 1.8803C26.7207 1.8689 27.0323 1.86807 27.4224 1.87783C27.6743 1.88398 27.9865 1.91309 28.359 1.96516Z" fill="white"/>
</g>
<circle cx="19.9999" cy="19.9999" r="19.4999" stroke="black" stroke-opacity="0.05"/>
<defs>
<clipPath id="clip0_9_387323">
<rect width="40" height="40" fill="white"/>
</clipPath>
</defs>
</svg>
