<svg width="40" height="40" viewBox="0 0 40 40" fill="none" xmlns="http://www.w3.org/2000/svg">
<circle cx="20" cy="20" r="20" fill="#D01027"/>
<path d="M21.2422 25.7251L19.3731 29.3186L6.01518 9.14879C6.00595 9.13445 6.00073 9.1179 6.00007 9.10085C5.99941 9.08381 6.00335 9.06691 6.01146 9.0519C6.01957 9.0369 6.03156 9.02435 6.04617 9.01556C6.06079 9.00678 6.0775 9.00208 6.09455 9.00195L10.1087 9.00394C10.1483 9.00386 10.1874 9.0136 10.2224 9.0323C10.2573 9.051 10.2871 9.07806 10.3091 9.11109C13.8953 14.5479 17.5046 19.9867 21.1371 25.4275C21.1979 25.5174 21.233 25.6167 21.2422 25.7251Z" fill="white"/>
<path d="M26.1434 18.6136L24.183 22.2329L15.5039 9.12501C15.496 9.11273 15.4915 9.09855 15.4908 9.08396C15.4901 9.06938 15.4933 9.05494 15.5 9.04214C15.5067 9.02935 15.5167 9.01869 15.5289 9.01127C15.5411 9.00385 15.5551 8.99996 15.5694 9L19.5994 9.00595C19.688 9.00595 19.7568 9.04233 19.8057 9.11509L26.1434 18.6136Z" fill="white"/>
<path d="M26.143 18.6143C28.1008 21.5232 30.0639 24.4287 32.0323 27.331C32.6633 28.2636 33.955 29.8431 32.816 30.8888C31.7168 31.8987 30.4965 31.6368 29.6968 30.4562C27.8383 27.71 26.0002 24.9691 24.1826 22.2335L26.143 18.6143Z" fill="#16859D"/>
<path d="M21.2427 25.7256C21.3221 25.7256 21.3849 25.7593 21.4312 25.8268C22.0238 26.6985 22.592 27.5584 23.1357 28.4063C23.6734 29.2456 24.0583 30.1088 23.2527 30.9283C22.5821 31.6089 21.3915 31.6684 20.6891 31.0314C20.3147 30.6915 19.8762 30.1207 19.3735 29.319L21.2427 25.7256Z" fill="#16859D"/>
<circle cx="20" cy="20" r="19.5" stroke="black" stroke-opacity="0.05"/>
</svg>
