<svg width="40" height="40" viewBox="0 0 40 40" fill="none" xmlns="http://www.w3.org/2000/svg">
<circle cx="20" cy="20" r="20" fill="#F6F8FA"/>
<g clip-path="url(#clip0_9_393597)">
<path d="M17.51 6.00559C17.5229 6.00373 17.5452 6.00186 17.5582 6C17.6972 6.40639 17.8178 6.81651 17.9587 7.22104C17.9735 7.29188 18.0292 7.39627 17.9457 7.44101C17.5619 7.73742 17.1818 8.03569 16.8016 8.33582C16.6459 8.4719 16.4641 8.5763 16.3251 8.72916C16.6663 8.74221 17.0074 8.75899 17.3486 8.76458C17.7251 8.79627 18.1052 8.77949 18.4798 8.81678C18.5057 8.951 18.5539 9.07776 18.6003 9.20639C18.7004 9.54194 18.8135 9.87377 18.9192 10.2075C18.6114 10.2075 18.3055 10.1571 17.9976 10.1422C17.6973 10.1142 17.395 10.1031 17.0946 10.0676C16.3121 10.021 15.5333 9.94461 14.7508 9.88868C14.7155 9.88309 14.6636 9.88309 14.6525 9.84208C14.5486 9.55686 14.4726 9.26418 14.3706 8.98083C14.3502 8.90812 14.315 8.83542 14.3187 8.75899C14.5431 8.5502 14.786 8.35632 15.0196 8.15872C15.3256 7.86977 15.6575 7.61252 15.9672 7.32916C16.4252 6.95632 16.8628 6.56112 17.3153 6.18269C17.3839 6.12676 17.4488 6.06711 17.51 6.00559ZM21.9529 7.53795C23.3696 7.43356 24.7863 7.31425 26.2029 7.20799C26.0657 7.67776 25.897 8.14194 25.7579 8.61172C25.3945 8.62663 25.031 8.64341 24.6657 8.64714C24.306 8.68069 23.9425 8.66764 23.5828 8.69374C24.1595 9.13182 24.7251 9.58668 25.2943 10.036C25.1849 10.3883 25.0644 10.735 24.9569 11.0855C24.9216 11.2048 24.8808 11.3222 24.8308 11.436C24.2615 10.9475 23.6941 10.4573 23.1192 9.9763C22.6186 9.52517 22.1012 9.0964 21.5931 8.65646C21.7118 8.28362 21.8249 7.90892 21.9529 7.53795ZM9.82573 10.1254C9.89434 10.1571 9.96109 10.1925 10.0223 10.2391C10.3542 10.4834 10.6935 10.722 11.0218 10.9736C10.8678 11.5571 10.688 12.135 10.5285 12.7166C10.4933 12.8341 10.4599 12.9515 10.4414 13.0727C10.9828 12.6812 11.5447 12.3196 12.0917 11.9393C12.1473 11.9095 12.2122 11.8349 12.2771 11.8852C12.5868 12.1257 12.9094 12.3475 13.2247 12.5806C13.2803 12.6272 13.3656 12.657 13.3934 12.7297C13.2766 12.8266 13.1357 12.8919 13.0077 12.9758C12.6647 13.1976 12.3068 13.3971 11.9656 13.6245C11.5947 13.8445 11.2331 14.0794 10.8641 14.3012C10.7306 14.387 10.5897 14.4597 10.4655 14.5566C10.2615 14.6703 10.0594 14.7877 9.86467 14.9164C9.81831 14.9499 9.75526 14.963 9.70891 14.9201C9.43076 14.7206 9.15261 14.5174 8.87447 14.3142C8.81699 14.2826 8.85778 14.2117 8.86149 14.1632C9.18414 12.8173 9.50493 11.4714 9.82573 10.1254ZM27.9886 11.6969C28.2816 11.4956 28.5579 11.27 28.8527 11.0762C29.2978 11.3353 29.728 11.6168 30.1693 11.8796C30.7794 12.2618 31.395 12.6309 32.0051 13.0093C32.1682 13.1137 32.3425 13.2032 32.4909 13.3281C32.0904 13.6003 31.7102 13.906 31.3078 14.1744C31.1428 14.0999 31.0037 13.9806 30.8517 13.8818C30.5457 13.6711 30.2342 13.466 29.9301 13.2535C29.791 13.1659 29.6649 13.0615 29.5166 12.9907C29.5796 13.274 29.6779 13.5481 29.7502 13.8296C29.8578 14.18 29.9449 14.5379 30.0543 14.8884C30.0673 14.9499 30.0988 15.0152 30.0803 15.0767C29.8318 15.2743 29.5648 15.4477 29.3163 15.6453C29.1791 15.7366 29.0512 15.8447 28.9084 15.9286C28.5876 14.5939 28.2742 13.2573 27.9497 11.9225C27.9386 11.8461 27.8996 11.7379 27.9886 11.6969ZM6.00586 18.0035C6.4954 18.0035 6.98493 18.0016 7.47447 18.0035C7.71553 18.6858 7.96091 19.3668 8.21063 20.0466C8.46838 19.3699 8.70387 18.6839 8.95606 18.0035C9.44003 17.9997 9.92586 18.0035 10.4117 18.0035C10.3783 18.1675 10.3004 18.3185 10.2374 18.4732C9.79235 19.547 9.35288 20.6245 8.90599 21.6983C8.87076 21.7933 8.83182 21.8866 8.78546 21.9779C8.42387 21.9742 8.06228 21.9779 7.70255 21.976C7.59871 21.9909 7.59129 21.8623 7.55606 21.7952C7.25195 21.0756 6.96824 20.3486 6.66414 19.629C6.51394 19.2636 6.36189 18.8964 6.21354 18.5273C6.14308 18.3521 6.05963 18.1843 6.00586 18.0035ZM31.2114 18.0035C31.599 18.0016 31.9865 18.0016 32.3741 18.0035C32.8766 19.2115 33.3698 20.4232 33.8686 21.6312C33.9187 21.7411 33.9651 21.8549 33.9855 21.9742C33.5052 21.976 33.0231 21.9742 32.5428 21.9779C32.3833 21.5864 32.2554 21.1856 32.1108 20.7904C32.0032 20.5108 31.9179 20.2237 31.7974 19.9497C31.6119 20.384 31.4729 20.837 31.306 21.2788C31.2188 21.5119 31.1484 21.7542 31.0427 21.9798C30.5569 21.9686 30.071 21.9854 29.5852 21.9704C30.1211 20.6469 30.6737 19.3289 31.2114 18.0035ZM10.6416 24.379C10.7937 24.2764 10.9309 24.1534 11.0904 24.0621C11.1664 24.2988 11.2146 24.5411 11.2739 24.7816C11.4983 25.7435 11.7338 26.7036 11.96 27.6655C12.0045 27.8538 12.0565 28.0402 12.088 28.2304C11.7913 28.4466 11.4946 28.6628 11.1998 28.881C11.1534 28.9257 11.0959 28.8772 11.0533 28.8549C10.5248 28.5156 9.98149 28.1987 9.45116 27.8612C8.80771 27.4698 8.16983 27.069 7.52639 26.6775C7.6599 26.5414 7.82864 26.4445 7.97328 26.3214C8.20568 26.1561 8.43685 25.9902 8.66679 25.8237C8.70202 25.7846 8.74652 25.8256 8.7799 25.8423C9.35102 26.232 9.924 26.616 10.4914 27.0112C10.4822 26.8732 10.4247 26.7446 10.3876 26.6141C10.2411 26.0828 10.0835 25.5553 9.93513 25.024C9.92215 24.9755 9.89619 24.9121 9.95367 24.8842C10.178 24.7089 10.4117 24.5467 10.6416 24.379ZM28.3224 26.1909C28.9584 25.7957 29.5963 25.4061 30.2323 25.0128C30.5457 25.2346 30.8535 25.4676 31.1669 25.6932C31.1094 26.0157 31.0186 26.3289 30.9481 26.6477C30.7237 27.5816 30.5012 28.5174 30.2768 29.4533C30.2453 29.5931 30.2175 29.7348 30.1637 29.869C29.8021 29.6099 29.4443 29.3433 29.0808 29.0842C29.0326 29.0506 28.9807 29.0059 29.0029 28.9406C29.1939 28.2621 29.3923 27.5854 29.5796 26.9049C29.0029 27.3039 28.4207 27.6953 27.8421 28.0905C27.8143 28.1129 27.7717 28.1222 27.742 28.098C27.3582 27.8221 26.978 27.5425 26.5979 27.2628C27.1616 26.89 27.7494 26.5507 28.3224 26.1909ZM14.7712 29.759C14.9102 29.3563 15.0289 28.9462 15.1698 28.5435C15.6445 28.9369 16.1081 29.3451 16.5773 29.7459C17.1558 30.2511 17.7473 30.7451 18.3277 31.2485C18.3648 31.2876 18.4316 31.3249 18.4019 31.3883C18.2832 31.7369 18.172 32.0892 18.057 32.4397C17.2837 32.5031 16.5123 32.559 15.741 32.6242C15.0938 32.6652 14.4522 32.7417 13.8051 32.7603C13.9534 32.2961 14.0999 31.8301 14.2557 31.3696C14.4782 31.3771 14.7007 31.3379 14.9251 31.3417C15.2533 31.3417 15.5815 31.3137 15.9116 31.31C16.0729 31.3063 16.2342 31.3044 16.3955 31.2839C16.0859 31.008 15.7447 30.7712 15.4276 30.5047C15.1921 30.3369 14.9714 30.1486 14.7396 29.9734C14.7174 29.9007 14.7489 29.828 14.7712 29.759ZM21.0851 29.772C22.0215 29.8224 22.9542 29.923 23.8906 29.9846C24.1521 30.02 24.4191 30.02 24.6824 30.0479C24.8697 30.0647 25.057 30.0834 25.2461 30.0908C25.2906 30.0945 25.3592 30.0889 25.3667 30.1505C25.4612 30.5065 25.6096 30.8477 25.6893 31.2075C25.5725 31.3529 25.413 31.4573 25.2758 31.5822C24.4988 32.2458 23.7274 32.915 22.9505 33.5806C22.7818 33.7148 22.6297 33.8714 22.4517 33.9925C22.3256 33.6067 22.2032 33.217 22.0771 32.8312C22.0549 32.7491 22.0048 32.669 22.0159 32.5832C22.498 32.1992 22.9857 31.8208 23.4697 31.4386C23.5457 31.3846 23.6162 31.3249 23.6774 31.2541C23.288 31.2205 22.8986 31.2298 22.5092 31.2037C22.1847 31.1944 21.8602 31.1963 21.5375 31.1683C21.3873 30.7041 21.239 30.2381 21.0851 29.772Z" fill="#A5CF4F"/>
</g>
<circle cx="20" cy="20" r="19.5" stroke="black" stroke-opacity="0.05"/>
<defs>
<clipPath id="clip0_9_393597">
<rect width="28" height="28" fill="white" transform="translate(6 6)"/>
</clipPath>
</defs>
</svg>
