<svg width="40" height="40" viewBox="0 0 40 40" fill="none" xmlns="http://www.w3.org/2000/svg">
<circle cx="20" cy="20" r="20" fill="#2A7DE1"/>
<g clip-path="url(#clip0_9_386751)">
<path d="M11.4402 14.713C11.5713 14.4948 11.8337 14.3636 12.0947 14.3636H15.1934C15.3246 14.3636 15.3687 14.4948 15.3246 14.5818L14.496 16.4584C14.4519 16.5013 14.4077 16.5455 14.3648 16.5455H10.7856C10.6545 16.5455 10.6116 16.4143 10.6545 16.3273C10.8726 15.7169 11.135 15.1922 11.4402 14.713ZM14.1895 12.1818C14.0597 12.1818 13.9713 11.9636 14.1025 11.8766C15.761 10.6987 17.8129 10 20.0389 10C22.2648 10 24.2726 10.6987 25.9311 11.9195C26.0623 12.0078 25.9752 12.1818 25.8441 12.1818H14.1895ZM16.896 27.4987C16.9389 27.4545 16.983 27.4104 17.0272 27.4104L25.7999 27.4545C25.9311 27.4545 26.0181 27.6286 25.8869 27.7169C24.2285 28.8948 22.1765 29.5922 19.9947 29.5922C18.7289 29.5922 17.5506 29.374 16.4597 28.9377C16.3713 28.8948 16.3285 28.8078 16.3713 28.7195L16.896 27.4987ZM17.9882 25.0117L18.8168 23.1351C18.861 23.0922 18.9038 23.0481 18.948 23.0481L29.2051 23.0922C29.3363 23.0922 29.3791 23.2234 29.3363 23.3104C29.1181 23.8779 28.8558 24.4013 28.5506 24.9247C28.4194 25.1429 28.1571 25.274 27.896 25.274L18.1623 25.2299C18.0311 25.2299 17.9441 25.0987 17.9882 25.0117ZM29.9467 18.8597C29.9908 19.1649 29.9908 19.4701 29.9908 19.8195C29.9908 20.1247 29.9908 20.474 29.9467 20.7792C29.9467 20.8662 29.8597 20.9104 29.7726 20.9104L20.0389 20.8662C19.9077 20.8662 19.8648 20.7351 19.9077 20.6481L20.4324 19.426C20.6506 18.9896 21.0869 18.6844 21.5674 18.6844H29.7726C29.8597 18.7286 29.9467 18.8156 29.9467 18.8597Z" fill="white"/>
<path d="M29.2052 16.5451H20.126C19.6468 16.5451 19.2091 16.8074 19.0351 17.2438L15.0195 26.3633C14.8883 26.6685 14.6273 26.8438 14.3208 26.8438C14.0597 26.8438 13.7532 26.6685 13.6234 26.3633C12.7935 24.4867 11.5273 21.5633 11.2662 20.9957C11.2662 20.9529 11.1779 20.9087 11.1351 20.9087H10.2182C10.1312 20.9087 10.0442 20.8646 10.0442 20.7776C10 20.4282 10 20.123 10 19.8178C10 19.4685 10 19.1633 10.0442 18.8139C10.087 18.7269 10.1312 18.6828 10.2182 18.6828H11.9636C12.4442 18.6828 12.8805 18.9451 13.0558 19.3815L14.2338 22.0867C14.2779 22.1308 14.2779 22.1308 14.3208 22.1308C14.3649 22.1308 14.4078 22.1308 14.4078 22.0867L17.5078 15.062C17.726 14.6256 18.1182 14.3633 18.5987 14.3633H27.8961C28.1571 14.3633 28.4195 14.4945 28.5506 14.7126C28.8558 15.236 29.1182 15.7594 29.3364 16.3269C29.3792 16.4139 29.2922 16.5451 29.2052 16.5451Z" fill="white"/>
</g>
<circle cx="20" cy="20" r="19.5" stroke="black" stroke-opacity="0.05"/>
<defs>
<clipPath id="clip0_9_386751">
<rect width="20" height="19.5974" fill="white" transform="translate(10 10)"/>
</clipPath>
</defs>
</svg>
