<svg width="40" height="40" viewBox="0 0 40 40" fill="none" xmlns="http://www.w3.org/2000/svg">
<circle cx="20" cy="20" r="20" fill="#0160A1"/>
<path d="M16.3446 13.1625L23.3968 25.5444C23.4146 25.5776 23.4234 25.6149 23.4223 25.6525C23.4211 25.6902 23.4101 25.7269 23.3903 25.7589L20.4004 30.8936C20.3815 30.926 20.3545 30.9529 20.322 30.9715C20.2895 30.9902 20.2526 31 20.2152 31C20.1777 31 20.1409 30.9902 20.1084 30.9715C20.0759 30.9529 20.0488 30.926 20.0299 30.8936L10.0269 13.3185C10.0088 13.2858 9.99949 13.2489 10 13.2115C10.0005 13.1741 10.0109 13.1374 10.0299 13.1052C10.049 13.0731 10.0761 13.0464 10.1086 13.0279C10.1412 13.0095 10.178 12.9998 10.2154 13L16.1626 13.052C16.1999 13.053 16.2364 13.0637 16.2683 13.0831C16.3002 13.1025 16.3265 13.1298 16.3446 13.1625Z" fill="white"/>
<path d="M30.4097 13.4092L26.8284 19.3759C26.8052 19.4136 26.7726 19.4447 26.734 19.4663C26.6953 19.488 26.6517 19.4993 26.6074 19.4994L20.6862 19.5319C20.64 19.5318 20.5946 19.5194 20.5547 19.496C20.5148 19.4725 20.4819 19.4389 20.4594 19.3985C20.4369 19.3581 20.4256 19.3124 20.4266 19.2661C20.4276 19.2199 20.4409 19.1748 20.4652 19.1354L24.0466 13.1752C24.0698 13.1375 24.1023 13.1063 24.141 13.0847C24.1797 13.0631 24.2232 13.0517 24.2675 13.0517L30.1888 13.0127C30.235 13.0127 30.2804 13.0251 30.3203 13.0486C30.3602 13.072 30.393 13.1057 30.4156 13.1461C30.4381 13.1865 30.4494 13.2322 30.4484 13.2784C30.4474 13.3247 30.434 13.3698 30.4097 13.4092Z" fill="white"/>
<circle cx="20" cy="20" r="19.5" stroke="black" stroke-opacity="0.05"/>
</svg>
