<svg width="40" height="40" viewBox="0 0 40 40" fill="none" xmlns="http://www.w3.org/2000/svg">
<circle cx="20" cy="20" r="20" fill="#F6F8FA"/>
<g clip-path="url(#clip0_9_396029)">
<path d="M30.1941 23.6679L26.9297 13.3069C26.7818 12.8357 26.4655 12.4198 26.0284 12.1202C25.5768 11.8158 25.0461 11.65 24.5016 11.6432C23.9561 11.6315 23.419 11.7784 22.9555 12.0662C22.5055 12.3504 22.1712 12.7554 22.0022 13.2208L19.1858 22.1347L17.9136 18.4472C17.7805 18.0741 17.5252 17.7569 17.1891 17.5472C16.8326 17.3218 16.4177 17.2062 15.996 17.2149C15.5752 17.2197 15.1652 17.3487 14.8176 17.5858C14.4903 17.8064 14.2481 18.1321 14.131 18.5089L12.684 23.1337L12.405 22.0993C12.3207 21.7894 12.1002 21.5207 11.7917 21.3542C11.4757 21.1862 11.1106 21.135 10.7605 21.2096C10.4089 21.2842 10.1048 21.4789 9.91582 21.7509C9.82313 21.881 9.76037 22.0301 9.73203 22.1873C9.70369 22.3446 9.71047 22.5062 9.75189 22.6605L10.5304 25.5379C10.6017 25.8015 10.7715 26.0355 11.0125 26.2033C11.253 26.3704 11.55 26.4624 11.8566 26.4624C11.9595 26.4617 12.061 26.4495 12.16 26.4277C12.3715 26.3827 12.5676 26.2946 12.7322 26.1692C12.8961 26.0432 13.024 25.8851 13.105 25.7064C13.1372 25.6389 13.1603 25.5682 13.1745 25.4955L14.6466 20.9724L16.3238 25.8401C16.4472 26.1962 16.6967 26.5074 17.0361 26.7292C17.3851 26.9538 17.7917 27.0728 18.2067 27.0718C18.401 27.0709 18.5944 27.045 18.7821 26.9947C19.164 26.8959 19.5078 26.6855 19.7695 26.3904C20.019 26.1024 20.1597 25.7533 20.1726 25.3914L22.6463 16.7424L25.2113 24.8809C25.3624 25.3592 25.6864 25.7809 26.1345 26.0812C26.5966 26.386 27.1385 26.5475 27.6921 26.5453C27.9255 26.5453 28.1575 26.517 28.3825 26.4598C28.7097 26.3827 29.0164 26.2483 29.2845 26.0657C29.5474 25.8887 29.7723 25.661 29.946 25.3959C30.1144 25.1368 30.2224 24.8501 30.2648 24.5537C30.3074 24.2568 30.2836 23.9542 30.1941 23.6679Z" fill="url(#paint0_linear_9_396029)"/>
</g>
<circle cx="20" cy="20" r="19.5" stroke="black" stroke-opacity="0.05"/>
<defs>
<linearGradient id="paint0_linear_9_396029" x1="8.27717" y1="23.4062" x2="28.0283" y2="17.2605" gradientUnits="userSpaceOnUse">
<stop offset="0.11" stop-color="#0A2D3B"/>
<stop offset="0.42" stop-color="#0089C6"/>
<stop offset="0.46" stop-color="#068CC0"/>
<stop offset="0.51" stop-color="#1793AE"/>
<stop offset="0.58" stop-color="#329F90"/>
<stop offset="0.65" stop-color="#59B067"/>
<stop offset="0.72" stop-color="#8AC633"/>
<stop offset="0.78" stop-color="#B3D807"/>
</linearGradient>
<clipPath id="clip0_9_396029">
<rect width="22" height="17" fill="white" transform="translate(9 11)"/>
</clipPath>
</defs>
</svg>
