<svg width="40" height="40" viewBox="0 0 40 40" fill="none" xmlns="http://www.w3.org/2000/svg">
<circle cx="20" cy="20" r="20" fill="#F6F8FA"/>
<path d="M23.8152 21.4174C24.1053 21.322 24.3955 21.2265 24.6373 21.0833C27.8774 19.3654 27.152 14.5455 26.0397 12.1118L25.8946 11.8254L22.4611 19.5563C23.0414 20.0812 23.525 20.7016 23.8152 21.4651V21.4174ZM18.3022 17.4565C19.1727 17.6474 20.0432 17.9815 20.8169 18.411L24.6857 9.82116C23.2832 8.15092 20.962 6.95789 17.0933 9.34394C13.2729 11.6823 14.2884 14.8796 15.8843 17.1702C16.7064 17.1702 17.5285 17.2179 18.3506 17.4088L18.3022 17.4565Z" fill="#75B964"/>
<path d="M21.591 21.5127L20.2853 24.4237C21.2525 23.7079 22.6549 22.992 23.9606 23.0398C24.009 22.5148 23.9606 21.9422 23.7672 21.4172C23.0418 21.6081 22.268 21.6558 21.5426 21.5127H21.591ZM19.7533 20.8446C18.7862 20.3196 17.8673 19.6038 17.1419 18.7926C16.6584 18.2676 16.2715 17.7427 15.8846 17.2178C15.4494 17.2178 14.9658 17.3132 14.5305 17.4564L17.8673 25.044L19.7533 20.8446ZM11.6774 22.1331C11.3872 25.9507 14.1437 26.9052 16.61 27.0483L12.8863 18.6017C12.2577 19.3652 11.8224 20.4628 11.6774 22.1331Z" fill="#3E81E3"/>
<path d="M19.7535 20.845L20.8658 18.4112C20.092 17.9818 19.2216 17.6477 18.3511 17.4568C17.529 17.2659 16.7069 17.1705 15.8848 17.2182C16.2716 17.7909 16.7069 18.3158 17.1421 18.8407C17.8675 19.652 18.7863 20.3678 19.7535 20.8927V20.845ZM22.4616 19.5088L21.5912 21.4654C22.3165 21.6086 23.0903 21.5608 23.8157 21.37C23.5255 20.6541 23.0903 19.986 22.4616 19.5088Z" fill="#0661BA"/>
<path d="M24.0086 23.04C23.6217 25.5215 21.0587 26.6191 19.1727 26.9532L18.3506 28.8143C18.5924 29.4347 19.1243 30.1505 19.9948 30.8186C22.9447 33.1092 25.0242 30.4368 25.9913 28.7666C26.6684 27.5735 27.4421 25.1875 25.8463 23.7559C25.3143 23.3264 24.6856 23.04 24.0086 23.04Z" fill="#5167BD"/>
<path d="M20.2851 24.4236L19.1729 26.9528C21.0589 26.6665 23.6219 25.6166 23.9604 23.1351C22.6547 23.0397 21.2039 23.7077 20.2851 24.4713V24.4236Z" fill="#243BA1"/>
<circle cx="20" cy="20" r="19.5" stroke="black" stroke-opacity="0.05"/>
</svg>
