<svg width="40" height="40" viewBox="0 0 40 40" fill="none" xmlns="http://www.w3.org/2000/svg">
<circle cx="20" cy="20" r="20" fill="#F6F8FA"/>
<g clip-path="url(#clip0_9_386948)">
<path d="M27.8128 11.7285C28.8642 12.409 29.6084 13.483 29.8835 14.717C30.1586 15.9511 29.9424 17.2454 29.282 18.3187L25.9897 23.6C25.9693 22.5551 25.6676 21.5358 25.1172 20.6525L20.9092 13.8744L21.3207 13.219C21.9915 12.1523 23.0502 11.3974 24.2666 11.1183C25.4831 10.8392 26.759 11.0585 27.8169 11.7285" fill="#90ABA0"/>
<path d="M14.9351 21.392L19.0909 14.2499L18.6853 13.5593C18.376 12.9652 17.9585 12.4455 17.4584 12.0317C16.9582 11.618 16.3857 11.3187 15.7757 11.1522C15.1656 10.9857 14.5307 10.9554 13.9095 11.0632C13.2883 11.1709 12.6938 11.4144 12.1621 11.7789C11.6303 12.1434 11.1724 12.6213 10.8162 13.1836C10.4599 13.7459 10.2128 14.3808 10.0897 15.0499C9.96664 15.7189 9.97023 16.4081 10.1003 17.0756C10.2303 17.7431 10.4841 18.375 10.8462 18.9328L14.0913 24.5C14.1091 23.3983 14.4059 22.3231 14.9493 21.392" fill="#AAC27F"/>
<path d="M22.4237 28.3075C23.4439 27.6378 24.1662 26.5777 24.4328 25.3588C24.6994 24.1399 24.4886 22.8614 23.8465 21.8027L20.0026 15.5L16.1588 21.8027C15.7671 22.4441 15.5309 23.1738 15.4702 23.9298C15.4095 24.6858 15.5261 25.4458 15.8102 26.1452C16.0942 26.8447 16.5372 27.4629 17.1016 27.9473C17.666 28.4317 18.3352 28.7681 19.0521 28.9279L19.2514 28.965H19.3072L19.4606 28.9876H19.5463C19.5882 28.9876 19.63 28.9876 19.6739 29H19.7755H19.8911H20.1182H20.2338H20.3354C20.3773 29 20.4211 29 20.463 28.9876H20.5486L20.7001 28.965H20.7579C20.8236 28.965 20.8894 28.9402 20.9571 28.9279C21.4781 28.8129 21.9753 28.6036 22.4257 28.3095" fill="#F3C300"/>
</g>
<circle cx="20" cy="20" r="19.5" stroke="black" stroke-opacity="0.05"/>
<defs>
<clipPath id="clip0_9_386948">
<rect width="20" height="18" fill="white" transform="translate(10 11)"/>
</clipPath>
</defs>
</svg>
