<svg width="40" height="40" viewBox="0 0 40 40" fill="none" xmlns="http://www.w3.org/2000/svg">
<circle cx="20" cy="20" r="20" fill="#1E1E23"/>
<g clip-path="url(#clip0_9_405507)">
<path d="M29.1259 16.6791L27.975 12.3265C27.9561 12.2545 27.9185 12.1888 27.8662 12.136C27.8138 12.0831 27.7485 12.045 27.6767 12.0254L23.327 10.8711C23.2554 10.8525 23.1802 10.8529 23.1088 10.8723C23.0374 10.8918 22.9724 10.9296 22.9201 10.9819L20.0059 13.8979L26.1036 20.0002L29.0179 17.0836C29.0706 17.0317 29.1087 16.9666 29.1281 16.8952C29.1476 16.8237 29.1478 16.7484 29.1287 16.6768" fill="#4DD17D"/>
<path d="M10.8833 23.3257L12.037 27.6754C12.0561 27.747 12.0938 27.8123 12.1461 27.8648C12.1985 27.9172 12.2637 27.955 12.3353 27.9743L16.685 29.1286C16.7565 29.1476 16.8318 29.1474 16.9032 29.128C16.9746 29.1086 17.0397 29.0708 17.0918 29.0183L20.0084 26.0994L13.8958 20L10.9793 22.9183C10.9272 22.9708 10.8898 23.0361 10.8707 23.1075C10.8517 23.179 10.8517 23.2542 10.8707 23.3257" fill="#E7CF12"/>
<path d="M16.6788 10.8736L12.3291 12.0279C12.2574 12.0471 12.1921 12.0848 12.1397 12.1372C12.0874 12.1897 12.0498 12.2551 12.0308 12.3268L10.8765 16.6765C10.8574 16.7482 10.8576 16.8237 10.8772 16.8952C10.8967 16.9668 10.935 17.0319 10.9879 17.0839L13.8913 19.9999L19.9885 13.9005L17.0742 10.9822C17.0221 10.9296 16.957 10.8917 16.8856 10.8723C16.8142 10.8528 16.7389 10.8525 16.6673 10.8713" fill="#A0D637"/>
<path d="M28.9767 22.8774L26.103 20.002L20.0059 26.1042L22.8784 28.9814C22.9435 29.0463 23.0244 29.0929 23.1132 29.1167C23.2019 29.1405 23.2954 29.1405 23.3841 29.1168L27.623 27.9934C27.7123 27.9696 27.7937 27.9225 27.8588 27.8569C27.924 27.7914 27.9706 27.7097 27.9939 27.6202L29.1161 23.3831C29.1398 23.2944 29.1399 23.201 29.1162 23.1122C29.0925 23.0235 29.046 22.9425 28.9813 22.8774" fill="#FF7ED8"/>
<path d="M20.0042 13.8984L13.9082 19.9996L20.0065 26.1019L26.1025 20.0007L20.0042 13.8984Z" fill="#BE1B6B"/>
</g>
<circle cx="20" cy="20" r="19.5" stroke="black" stroke-opacity="0.05"/>
<defs>
<clipPath id="clip0_9_405507">
<rect width="20" height="20" fill="white" transform="translate(10 10)"/>
</clipPath>
</defs>
</svg>
