<svg width="40" height="40" viewBox="0 0 40 40" fill="none" xmlns="http://www.w3.org/2000/svg">
<circle cx="20" cy="20" r="20" fill="#F6F8FA"/>
<g clip-path="url(#clip0_9_396492)">
<path d="M25.7404 21.5352C25.4502 18.6986 22.0697 16.7418 18.0127 17.182C15.6467 17.4266 13.4731 18.4539 12.2655 19.9208C11.4932 20.8497 11.1544 21.9262 11.2516 23.002C11.4932 25.5945 14.3419 27.4038 17.9162 27.4038C18.2544 27.4038 18.5926 27.4038 18.9787 27.3553C21.3453 27.1106 23.5183 26.0833 24.7259 24.6164C25.4988 23.6875 25.837 22.611 25.7398 21.5352H25.7404Z" fill="white"/>
<path d="M18.8829 26.3772C15.4532 26.719 12.4593 25.1544 12.2177 22.9043C11.976 20.6549 14.6323 18.5026 18.0614 18.1601C21.5385 17.8177 24.485 19.3829 24.726 21.633C24.9677 23.9316 22.36 26.0348 18.8829 26.3772ZM26.0775 19.0405C25.7879 18.9433 25.5949 18.8942 25.74 18.5026C26.0775 17.6708 26.1261 16.9373 25.74 16.3994C25.0636 15.4219 23.1803 15.4705 21.0553 16.3508C21.0553 16.3508 20.3789 16.6441 20.572 16.1062C20.9102 15.0303 20.8616 14.15 20.3303 13.6606C19.1713 12.487 16.0803 13.7092 13.4241 16.3502C11.4448 18.3556 10.2852 20.4588 10.2852 22.2687C10.2858 25.7901 14.7288 27.8932 19.1239 27.8932C24.8226 27.8932 28.6379 24.5673 28.6379 21.9262C28.6379 20.3125 27.2858 19.4321 26.0782 19.0405H26.0775Z" fill="#D32F2F"/>
<path d="M19.4136 22.2194C19.2685 22.464 18.9789 22.611 18.7372 22.5132C18.4956 22.4155 18.4476 22.1216 18.5441 21.8769C18.6893 21.6329 18.9789 21.4859 19.1719 21.6329C19.4615 21.6814 19.5101 21.9261 19.4136 22.2194ZM17.8198 23.3936C17.4816 23.8823 16.7088 24.127 16.1295 23.8823C15.5497 23.6383 15.4046 23.0505 15.7428 22.611C16.081 22.1216 16.8053 21.9261 17.3851 22.1216C18.0129 22.3177 18.206 22.9048 17.8198 23.3936ZM19.2205 19.6766C17.5296 19.2359 15.6463 20.0676 14.9219 21.5345C14.1976 23.0511 14.8734 24.7141 16.6122 25.252C18.3511 25.8392 20.4275 24.9588 21.1518 23.3444C21.8768 21.7792 20.9588 20.1168 19.2205 19.6766Z" fill="#263238"/>
<path d="M31.1973 18.1116C31.1007 18.4048 30.8111 18.6003 30.5215 18.6003C30.1348 18.6003 29.7966 18.2585 29.7966 17.8669C29.7966 17.7692 29.7966 17.6714 29.8452 17.5737C29.9903 17.1335 30.0868 16.6447 30.0868 16.1554C30.0868 13.7098 28.1549 11.7536 25.7397 11.7536C25.5466 11.7536 25.3056 11.7536 25.1125 11.8022H25.0153C24.6292 11.8022 24.291 11.4597 24.291 11.0687C24.291 10.6771 24.6292 10.3353 25.0159 10.3353C25.257 10.2861 25.4986 10.2861 25.7403 10.2861C28.9278 10.2861 31.5354 12.9272 31.5354 16.1554C31.5354 16.8396 31.4389 17.4759 31.1973 18.1116ZM28.6382 16.1554C28.6382 14.541 27.334 13.2205 25.7403 13.2205H25.4021H25.3535C25.1781 13.2469 25.0181 13.3356 24.9028 13.4704C24.7875 13.6053 24.7246 13.7771 24.7257 13.9545C24.7257 14.3455 25.0639 14.6879 25.4507 14.6879H25.6917C26.5126 14.6879 27.1403 15.3236 27.1403 16.1554C27.1403 16.3017 27.0924 16.4978 27.0438 16.6441C26.9952 16.7419 26.9952 16.7911 26.9952 16.8888C26.9952 17.2798 27.334 17.6222 27.7202 17.6222C28.0098 17.6222 28.2514 17.4267 28.3965 17.1821V17.1335C28.3965 17.0849 28.3965 17.0849 28.4451 17.0357C28.5896 16.7419 28.6382 16.4486 28.6382 16.1554Z" fill="#F9A825"/>
</g>
<circle cx="20" cy="20" r="19.5" stroke="black" stroke-opacity="0.05"/>
<defs>
<clipPath id="clip0_9_396492">
<rect width="22" height="18" fill="white" transform="translate(10 10)"/>
</clipPath>
</defs>
</svg>
