<svg width="40" height="40" viewBox="0 0 40 40" fill="none" xmlns="http://www.w3.org/2000/svg">
<circle cx="20" cy="20" r="20" fill="#0B00F4"/>
<g clip-path="url(#clip0_9_386852)">
<path d="M31.3095 16.1809C31.1533 17.3345 30.5773 21.215 27.7479 24.9897C24.8665 28.8702 21.0934 30.8112 19.9935 31.3351C18.8399 30.7592 15.0685 28.8702 12.187 24.9897C9.35757 21.215 8.7816 17.3345 8.62378 16.1809L10.3533 15.2373V13.9259L12.0829 12.9822V11.7766C14.4404 10.6751 17.0063 9.93963 19.9935 9.52148C22.9791 9.88757 25.5466 10.6214 27.9041 11.7766V13.0343L29.6337 13.9779V15.2893L31.3095 16.1809Z" fill="url(#paint0_linear_9_386852)"/>
<path fill-rule="evenodd" clip-rule="evenodd" d="M32.987 15.2891L32.8292 16.3369C32.3573 19.9034 31.0476 23.1021 29.004 25.8811C26.9621 28.7138 24.1327 31.0209 20.6736 32.7504L19.9935 33.0661L19.3118 32.7504C15.8543 31.0209 13.077 28.7138 10.9814 25.9332C8.9378 23.1542 7.62804 19.9034 7.15782 16.3906L7 15.3412L8.83367 14.3454V13.0861L10.5632 12.1424V10.831L11.4011 10.4129C13.9165 9.25932 16.6402 8.47184 19.7836 8.05207L19.9935 8L20.1497 8.05207C23.3468 8.47184 26.0705 9.25932 28.5338 10.4129L29.3717 10.8847V12.1945L31.1013 13.0861V14.3454L32.987 15.2891ZM29.6337 15.2891V13.9777L27.9041 13.034V11.7747C25.5466 10.6212 22.9791 9.88736 19.9935 9.52128C17.0063 9.93942 14.4388 10.6748 12.0812 11.7747V12.982L10.3533 13.9257V15.237L8.62378 16.1807C8.7816 17.3343 9.35757 21.2148 12.187 24.9895C15.0685 28.87 18.8399 30.7573 19.9935 31.3349C21.0934 30.811 24.8648 28.87 27.7463 24.9895C30.5757 21.2148 31.1517 17.3343 31.3095 16.1807L29.6337 15.2891Z" fill="url(#paint1_linear_9_386852)"/>
<path d="M19.1556 12.2998V28.7133C18.002 27.5061 16.9542 25.9864 16.2204 24.4651L14.7024 25.3568C12.763 23.2074 11.4012 20.5326 10.5632 17.0182C10.9814 16.4943 11.4012 16.0225 11.873 15.6547C12.501 18.5915 13.4447 21.1086 14.9107 23.1017L15.4883 22.7877C14.5446 20.217 13.9686 17.438 13.7587 14.2929C14.3868 13.8731 14.9644 13.6112 15.4883 13.3476C15.6445 16.8099 16.3262 20.2706 17.4261 23.0496L17.5302 22.9976L17.4261 12.6138C18.0541 12.456 18.578 12.3519 19.1556 12.2998Z" fill="url(#paint2_linear_9_386852)"/>
<path fill-rule="evenodd" clip-rule="evenodd" d="M28.2719 19.5889C28.2719 22.0522 24.1847 26.9301 20.7273 28.7133V12.2998C21.5652 12.3519 22.4031 12.456 23.189 12.6659C24.5508 13.0336 25.4945 13.5575 26.1225 13.9252C27.1703 14.6069 27.8521 15.3407 27.8521 16.1803C27.8521 16.8099 27.7479 17.2818 27.1183 17.9635C27.9562 18.3296 28.376 18.8535 28.2719 19.5889ZM22.5089 18.9072L24.6566 17.7536C25.7565 17.176 26.0705 16.6001 26.0705 16.2323C26.0705 15.1829 23.3468 14.2929 22.5089 14.2929V18.9072ZM26.5423 19.955C26.5423 19.9029 26.5944 19.1691 25.6523 18.9593C25.5466 19.0113 22.4552 20.7945 22.4552 20.7945V25.4609C23.2948 24.7792 24.1327 23.9412 24.6045 23.3636C25.7044 22.1059 26.5944 20.7945 26.5423 19.955Z" fill="url(#paint3_linear_9_386852)"/>
</g>
<circle cx="20" cy="20" r="19.5" stroke="black" stroke-opacity="0.05"/>
<defs>
<linearGradient id="paint0_linear_9_386852" x1="8.65144" y1="20.4552" x2="31.3014" y2="20.4552" gradientUnits="userSpaceOnUse">
<stop stop-color="#4047FF"/>
<stop offset="1" stop-color="#04006C"/>
</linearGradient>
<linearGradient id="paint1_linear_9_386852" x1="7" y1="20.5542" x2="32.9528" y2="20.5542" gradientUnits="userSpaceOnUse">
<stop stop-color="#FFC800"/>
<stop offset="1" stop-color="#E9A600"/>
</linearGradient>
<linearGradient id="paint2_linear_9_386852" x1="10.6186" y1="20.5245" x2="19.1865" y2="20.5245" gradientUnits="userSpaceOnUse">
<stop stop-color="#FFD100"/>
<stop offset="1" stop-color="#FABB00"/>
</linearGradient>
<linearGradient id="paint3_linear_9_386852" x1="20.7745" y1="20.5245" x2="28.3353" y2="20.5245" gradientUnits="userSpaceOnUse">
<stop stop-color="#F7B700"/>
<stop offset="1" stop-color="#E9A600"/>
</linearGradient>
<clipPath id="clip0_9_386852">
<rect width="26" height="25.0726" fill="white" transform="translate(7 8)"/>
</clipPath>
</defs>
</svg>
