<svg width="40" height="40" viewBox="0 0 40 40" fill="none" xmlns="http://www.w3.org/2000/svg">
<circle cx="20" cy="20" r="20" fill="#F6F8FA"/>
<g clip-path="url(#clip0_9_393490)">
<path d="M4.8663 26.2911C4.4935 26.1277 4.15457 25.8815 4.07324 25.4749C4.05244 25.3707 4.04204 25.257 4.04204 25.1338C4.04186 21.6405 4.04221 18.1471 4.0431 14.6538C4.0431 14.3722 4.05039 14.1949 4.06497 14.1218C4.1479 13.7031 4.45537 13.4695 4.82737 13.2959C5.2927 13.0786 5.78577 12.9343 6.28577 12.7919C7.73608 12.379 9.18373 12.0455 10.6287 11.7914C11.412 11.6538 12.2023 11.5347 12.9996 11.4341C15.0147 11.1795 17.1005 11.0384 19.257 11.0109C22.6356 10.9677 25.9908 11.2015 29.3058 11.7826C30.6405 12.0166 32.0249 12.3332 33.4588 12.7325C34.0316 12.8919 34.492 13.0365 34.8399 13.1661C35.038 13.2399 35.2412 13.3341 35.4247 13.445C35.8116 13.6794 35.9596 13.9869 35.9596 14.4338C35.9598 18.0071 35.9599 21.5805 35.9599 25.1538C35.9599 25.5431 35.8476 25.845 35.5138 26.0786C35.2722 26.2477 34.9932 26.3637 34.7135 26.4631C34.4433 26.5593 34.1544 26.6517 33.8468 26.7402C32.7402 27.0583 31.621 27.3397 30.4943 27.5661C26.3692 28.3959 22.1063 28.6757 17.8722 28.5245C15.9648 28.4564 14.0913 28.2933 12.2516 28.0351C10.089 27.7317 7.98506 27.2789 5.9399 26.6767C5.54559 26.5607 5.18773 26.4321 4.8663 26.2911Z" fill="#B1B3B6"/>
<path d="M5.65399 26.1638C5.33613 26.0225 5.01239 25.7878 4.98066 25.4142C4.97337 25.3276 4.96973 25.233 4.96973 25.1305C4.97168 21.6554 4.97186 18.0381 4.97026 14.2785C4.97026 13.7755 5.39106 13.515 5.80519 13.3569C6.03133 13.2705 6.26582 13.1964 6.50866 13.1347C7.2667 12.9422 8.08768 12.7705 8.97159 12.6198C10.8753 12.2953 12.8343 12.0867 14.7695 11.9662C17.8119 11.7767 20.8994 11.7529 24.0319 11.895C25.1961 11.9478 26.3456 12.0289 27.4801 12.1382C29.4596 12.3291 31.3993 12.6217 33.3263 13.0822C33.5657 13.1394 33.8086 13.209 34.0548 13.291C34.4505 13.4227 34.8865 13.6225 35.0199 14.0243C35.0465 14.1043 35.0599 14.1809 35.0599 14.2539C35.06 17.9794 35.0603 21.6426 35.0607 25.2435C35.0607 25.3681 35.0485 25.4689 35.0241 25.5457C34.9116 25.8993 34.5647 26.0961 34.2281 26.2254C34.0228 26.3043 33.8243 26.3689 33.6327 26.4193C32.9224 26.6057 32.1482 26.7729 31.31 26.9206C28.79 27.3643 26.1916 27.599 23.6313 27.7038C21.3058 27.7991 18.9804 27.8031 16.6551 27.7158C15.4471 27.6705 14.2413 27.5947 13.0377 27.4886C10.9559 27.3049 8.92679 27.0171 6.90706 26.5481C6.47586 26.4481 6.05186 26.3409 5.65399 26.1638Z" fill="#133C8B"/>
<path d="M27.0729 20.0999L27.8132 20.0996C27.8156 20.0996 27.8179 20.0987 27.8196 20.097C27.8213 20.0953 27.8223 20.093 27.8223 20.0906C27.8235 18.7021 27.8236 17.3442 27.8225 16.0167C27.8212 14.6324 28.9103 14.1463 30.122 14.1068C31.2119 14.0716 32.5623 14.2994 32.8009 15.5823C32.8239 15.7057 32.8353 15.873 32.8351 16.0842C32.8328 18.0221 32.8323 19.9036 32.8337 21.7287C32.8345 22.7738 32.1257 23.3716 31.1631 23.5383C30.5915 23.6372 30.0194 23.6357 29.4468 23.534C28.5676 23.3778 27.8913 22.8602 27.8124 21.9132C27.8113 21.9017 27.805 21.8959 27.7935 21.8959L27.0481 21.8962C27.0456 21.8962 27.0432 21.8972 27.0414 21.8989C27.0396 21.9007 27.0385 21.903 27.0385 21.9055V23.561C27.0385 23.5626 27.0379 23.5642 27.0367 23.5653C27.0356 23.5665 27.034 23.5671 27.0324 23.5671H25.0257C25.0161 23.5671 25.0113 23.5624 25.0113 23.553V21.9138C25.0113 21.9017 25.0053 21.8956 24.9932 21.8956L22.0383 21.8962C22.0354 21.8962 22.0326 21.8951 22.0305 21.8931C22.0285 21.8911 22.0273 21.8883 22.0273 21.8855V20.101C22.0273 20.0813 22.0316 20.0618 22.0399 20.0439L24.738 14.1927C24.7387 14.1911 24.7399 14.1898 24.7414 14.1888C24.7428 14.1879 24.7445 14.1874 24.7463 14.1874H27.0399C27.0486 14.1874 27.0529 14.1917 27.0529 14.2004V20.0802C27.0529 20.0933 27.0596 20.0999 27.0729 20.0999Z" fill="white"/>
<path d="M14.4401 16.0068L13.2089 23.5532C13.2073 23.5621 13.202 23.5665 13.1931 23.5665H11.3931C11.3839 23.5665 11.3785 23.562 11.3771 23.5529L10.8022 20.0329C10.7969 20 10.7914 20 10.7859 20.0329L10.2099 23.5596C10.2096 23.5615 10.2086 23.5633 10.2072 23.5646C10.2057 23.5658 10.2038 23.5665 10.2019 23.5665H8.39766C8.38699 23.5665 8.38086 23.5614 8.37926 23.551L6.85553 14.2078C6.85541 14.207 6.85547 14.2061 6.8557 14.2053C6.85593 14.2045 6.85632 14.2038 6.85685 14.2031C6.85738 14.2025 6.85804 14.202 6.85878 14.2017C6.85952 14.2013 6.86032 14.2012 6.86113 14.2012H8.84699C8.84855 14.2012 8.85008 14.2017 8.85129 14.2027C8.85251 14.2037 8.85335 14.2052 8.85366 14.2068L9.44379 17.5798C9.44948 17.6122 9.45491 17.6122 9.46006 17.5798L9.99419 14.2062C9.99444 14.2048 9.99517 14.2035 9.99625 14.2026C9.99732 14.2017 9.99867 14.2012 10.0001 14.2012H11.6278C11.6301 14.2012 11.6323 14.202 11.6341 14.2035C11.6358 14.205 11.637 14.2071 11.6374 14.2094L12.1694 17.5702C12.1754 17.6092 12.1819 17.6092 12.1889 17.5702L12.7774 14.2065C12.7777 14.205 12.7785 14.2037 12.7797 14.2027C12.781 14.2017 12.7825 14.2012 12.7841 14.2012C14.445 14.2012 16.1114 14.2013 17.7833 14.2014C18.6222 14.2014 19.2502 14.7356 19.3721 15.567C19.3922 15.7038 19.4021 15.8516 19.4019 16.0105C19.4002 17.9337 19.3998 19.8548 19.4009 21.7737C19.401 22.0423 19.3572 22.2975 19.2694 22.5393C19.0758 23.0721 18.6238 23.45 18.0555 23.5412C17.9434 23.5591 17.8179 23.568 17.6793 23.5678C16.6065 23.5661 15.5346 23.5658 14.4635 23.567C14.4541 23.567 14.4494 23.5623 14.4494 23.5529C14.4446 21.0365 14.446 18.5211 14.4537 16.0068C14.4537 16.0057 14.4531 16.0051 14.4521 16.0049L14.4435 16.0044C14.4416 16.0042 14.4404 16.005 14.4401 16.0068Z" fill="white"/>
<path d="M30.3673 15.4473H30.3033C30.1083 15.4473 29.9502 15.6053 29.9502 15.8003V21.9118C29.9502 22.1068 30.1083 22.2649 30.3033 22.2649H30.3673C30.5623 22.2649 30.7203 22.1068 30.7203 21.9118V15.8003C30.7203 15.6053 30.5623 15.4473 30.3673 15.4473Z" fill="#133C8B"/>
<path d="M17.2879 21.5621C17.2194 21.8834 16.8109 21.8733 16.5605 21.8661C16.5514 21.8659 16.5469 21.8613 16.5469 21.8522V15.8872C16.5469 15.8783 16.5514 15.8736 16.5605 15.8733C16.8813 15.8637 17.3061 15.8661 17.305 16.3141C17.3011 17.9532 17.3016 19.6335 17.3066 21.3549C17.307 21.4328 17.3007 21.5018 17.2879 21.5621Z" fill="#133C8B"/>
<path d="M23.863 20.0894L25.0105 17.8702C25.0206 17.8507 25.0257 17.8519 25.0257 17.874V20.0929C25.0257 20.0945 25.025 20.0961 25.0239 20.0972C25.0228 20.0984 25.0213 20.099 25.0198 20.099H23.8689C23.8677 20.099 23.8666 20.0987 23.8657 20.0982C23.8647 20.0976 23.8639 20.0968 23.8633 20.0958C23.8627 20.0949 23.8624 20.0938 23.8623 20.0927C23.8623 20.0916 23.8625 20.0904 23.863 20.0894Z" fill="#133C8B"/>
<path d="M21.7342 18.0137H19.9523C19.9479 18.0137 19.9443 18.0173 19.9443 18.0217V19.9187C19.9443 19.9232 19.9479 19.9267 19.9523 19.9267H21.7342C21.7386 19.9267 21.7422 19.9232 21.7422 19.9187V18.0217C21.7422 18.0173 21.7386 18.0137 21.7342 18.0137Z" fill="white"/>
<path d="M11.8595 25.98C12.0206 25.9786 12.143 25.9512 12.1326 25.7592C12.1319 25.7453 12.1385 25.7384 12.1523 25.7384L12.6651 25.7389C12.6738 25.7389 12.6783 25.7433 12.6785 25.752C12.687 26.036 12.6769 26.3016 12.3483 26.3965C12.2628 26.421 12.1788 26.4337 12.0963 26.4344C11.8067 26.4369 11.5044 26.4377 11.1894 26.437C10.8841 26.4362 10.5145 26.4128 10.4022 26.0616C10.3821 25.9986 10.3715 25.936 10.3705 25.8736C10.3678 25.7175 10.3661 25.5491 10.3654 25.3685C10.3654 25.3678 10.3625 25.3181 10.3566 25.2194C10.3504 25.1128 10.3701 25.0097 10.4158 24.9101C10.5553 24.6074 10.943 24.609 11.2291 24.6069C11.4967 24.6051 11.76 24.6086 12.019 24.6173C12.1541 24.6219 12.2761 24.6455 12.3849 24.688C12.6257 24.7821 12.6566 25.037 12.6465 25.2674C12.6461 25.2763 12.6415 25.2808 12.6326 25.2808H12.1318C12.1124 25.2808 12.1035 25.2711 12.1051 25.2517C12.1153 25.116 12.003 25.0824 11.895 25.0816C11.6929 25.08 11.4828 25.0798 11.2649 25.081C11.0918 25.0818 10.9446 25.1296 10.9294 25.3298C10.9194 25.4587 10.919 25.5931 10.9281 25.733C10.9384 25.8932 11.0244 25.9746 11.1862 25.9773C11.4145 25.9809 11.6389 25.9817 11.8595 25.98Z" fill="#FFF200"/>
<path d="M15.3341 24.6728C15.5488 24.751 15.6606 24.9114 15.6695 25.1541C15.6807 25.4657 15.6803 25.7128 15.6682 25.8952C15.6421 26.2874 15.349 26.4133 14.9935 26.4184C14.5541 26.4242 14.1796 26.4235 13.8701 26.4162C13.4885 26.4069 13.2418 26.2162 13.2365 25.8149C13.234 25.6277 13.2337 25.4391 13.2357 25.249C13.241 24.7424 13.529 24.6122 13.9938 24.608C14.3467 24.6048 14.6977 24.6066 15.0469 24.6136C15.1345 24.6153 15.2302 24.6351 15.3341 24.6728Z" fill="#FFF200"/>
<path d="M18.646 25.1478C18.646 25.1302 18.6418 25.1292 18.6332 25.1446L17.9383 26.382C17.9363 26.3855 17.9334 26.3884 17.9299 26.3904C17.9264 26.3924 17.9225 26.3934 17.9186 26.3934H17.5482C17.5373 26.3934 17.5292 26.3886 17.5236 26.379L16.8298 25.1436C16.8227 25.1308 16.8191 25.1317 16.8191 25.1462V26.3868C16.8191 26.3885 16.8184 26.3901 16.8172 26.3913C16.816 26.3925 16.8144 26.3932 16.8127 26.3932L16.3052 26.3934C16.2951 26.3934 16.29 26.3884 16.29 26.3782V24.6294C16.29 24.6277 16.2907 24.6261 16.2919 24.6249C16.2931 24.6237 16.2947 24.623 16.2964 24.623H17.1063C17.1097 24.623 17.113 24.6239 17.1159 24.6257C17.1188 24.6274 17.1212 24.6299 17.1228 24.6329L17.7252 25.7534C17.7259 25.7546 17.7268 25.7556 17.728 25.7563C17.7291 25.7569 17.7304 25.7573 17.7318 25.7573C17.7331 25.7573 17.7344 25.7569 17.7356 25.7563C17.7367 25.7556 17.7377 25.7546 17.7383 25.7534L18.3402 24.6332C18.3419 24.6302 18.3443 24.6277 18.3473 24.6259C18.3503 24.6241 18.3537 24.6231 18.3572 24.623H19.1644C19.1656 24.623 19.1668 24.6233 19.1679 24.6237C19.169 24.6242 19.17 24.6249 19.1708 24.6257C19.1717 24.6265 19.1724 24.6275 19.1728 24.6286C19.1733 24.6297 19.1735 24.6309 19.1735 24.6321L19.1732 26.3868C19.1732 26.3885 19.1725 26.3902 19.1713 26.3915C19.17 26.3927 19.1683 26.3934 19.1666 26.3934H18.6599C18.6507 26.3934 18.646 26.3888 18.646 26.3796V25.1478Z" fill="#FFF200"/>
<path d="M20.4007 25.9711V26.3797C20.4007 26.3887 20.3962 26.3933 20.3871 26.3933H19.8735C19.8643 26.3933 19.8596 26.3886 19.8596 26.3794L19.8594 24.6386C19.8594 24.6276 19.865 24.6221 19.8762 24.6221C20.3821 24.6238 20.8681 24.6239 21.334 24.6223C21.6559 24.6213 21.9375 24.721 21.9767 25.0927C22.0154 25.4626 21.9847 25.9498 21.4786 25.9511C21.1068 25.952 20.7542 25.952 20.4207 25.9511C20.4074 25.9511 20.4007 25.9578 20.4007 25.9711Z" fill="#FFF200"/>
<path d="M23.8503 26.0793H22.7613C22.7596 26.0793 22.7581 26.0797 22.7567 26.0806C22.7553 26.0814 22.7542 26.0827 22.7535 26.0841L22.6021 26.3884C22.6014 26.3898 22.6002 26.391 22.5989 26.3919C22.5975 26.3927 22.5959 26.3932 22.5943 26.3932L22.0143 26.3937C22.0129 26.3937 22.0114 26.3933 22.0101 26.3926C22.0089 26.3919 22.0078 26.3908 22.0071 26.3895C22.0063 26.3883 22.0059 26.3869 22.0059 26.3854C22.0058 26.3839 22.0062 26.3825 22.0069 26.3812L22.9538 24.6276C22.9545 24.6262 22.9556 24.6251 22.9569 24.6243C22.9582 24.6235 22.9597 24.6231 22.9613 24.623H23.6501C23.6516 24.6231 23.6531 24.6235 23.6544 24.6243C23.6557 24.6251 23.6568 24.6262 23.6575 24.6276L24.6191 26.3809C24.6198 26.3822 24.6202 26.3837 24.6201 26.3851C24.6201 26.3866 24.6197 26.388 24.6189 26.3893C24.6182 26.3905 24.6171 26.3916 24.6158 26.3923C24.6146 26.393 24.6131 26.3934 24.6117 26.3934H24.0314C24.0299 26.3934 24.0283 26.393 24.027 26.3922C24.0257 26.3914 24.0246 26.3903 24.0239 26.3889L23.8578 26.0838C23.8571 26.0825 23.856 26.0813 23.8547 26.0806C23.8534 26.0798 23.8519 26.0793 23.8503 26.0793Z" fill="#FFF200"/>
<path d="M26.8177 24.623L27.3438 24.6233C27.3461 24.6233 27.3482 24.6242 27.3498 24.6258C27.3514 24.6274 27.3523 24.6296 27.3523 24.6318V26.3849C27.3523 26.3872 27.3514 26.3893 27.3498 26.3909C27.3482 26.3925 27.3461 26.3934 27.3438 26.3934H26.5137C26.5123 26.3935 26.511 26.3932 26.5098 26.3927C26.5086 26.3921 26.5076 26.3913 26.5067 26.3902L25.511 25.1273C25.5099 25.1259 25.5084 25.1249 25.5067 25.1245C25.5051 25.124 25.5033 25.124 25.5016 25.1245C25.5 25.1251 25.4985 25.1261 25.4975 25.1275C25.4964 25.1289 25.4958 25.1306 25.4958 25.1324L25.4963 26.3849C25.4963 26.3872 25.4954 26.3893 25.4938 26.3909C25.4922 26.3925 25.4901 26.3934 25.4878 26.3934H24.9617C24.9594 26.3934 24.9572 26.3925 24.9556 26.3909C24.954 26.3893 24.9531 26.3872 24.9531 26.3849L24.9534 24.6316C24.9534 24.6293 24.9543 24.6271 24.9559 24.6255C24.9575 24.6239 24.9597 24.623 24.9619 24.623L25.7915 24.6233C25.7928 24.6233 25.7942 24.6235 25.7954 24.6241C25.7966 24.6247 25.7976 24.6255 25.7985 24.6265L26.7947 25.89C26.7958 25.8913 26.7973 25.8923 26.799 25.8928C26.8006 25.8933 26.8024 25.8933 26.8041 25.8928C26.8058 25.8922 26.8072 25.8912 26.8082 25.8898C26.8093 25.8883 26.8099 25.8867 26.8099 25.8849L26.8091 24.6316C26.8091 24.6293 26.81 24.6271 26.8116 24.6255C26.8132 24.6239 26.8154 24.623 26.8177 24.623Z" fill="#FFF200"/>
<path d="M29.512 24.6241L30.1456 24.6233C30.1473 24.6233 30.149 24.6238 30.1505 24.6247C30.1519 24.6257 30.1531 24.627 30.1538 24.6286C30.1546 24.6301 30.1548 24.6319 30.1546 24.6336C30.1544 24.6353 30.1537 24.6369 30.1525 24.6382L29.1821 25.7772C29.1807 25.7789 29.1799 25.7811 29.18 25.7833V26.3849C29.18 26.3873 29.179 26.3896 29.1773 26.3913C29.1756 26.393 29.1733 26.394 29.1709 26.394H28.6464C28.644 26.394 28.6417 26.393 28.64 26.3913C28.6383 26.3896 28.6373 26.3873 28.6373 26.3849L28.6371 25.7833C28.6371 25.7811 28.6364 25.7789 28.6349 25.7772L27.6643 24.638C27.6631 24.6367 27.6624 24.635 27.6622 24.6333C27.662 24.6316 27.6622 24.6299 27.663 24.6283C27.6637 24.6267 27.6648 24.6254 27.6663 24.6245C27.6678 24.6235 27.6695 24.623 27.6712 24.623L28.3048 24.6241C28.3061 24.6241 28.3074 24.6244 28.3086 24.6249C28.3098 24.6255 28.3109 24.6263 28.3117 24.6273L28.9016 25.3436C28.9024 25.3446 28.9035 25.3454 28.9047 25.346C28.9059 25.3465 28.9072 25.3468 28.9085 25.3468C28.9099 25.3468 28.9112 25.3465 28.9124 25.346C28.9136 25.3454 28.9146 25.3446 28.9155 25.3436L29.5051 24.6273C29.5059 24.6263 29.507 24.6255 29.5082 24.6249C29.5094 24.6244 29.5107 24.6241 29.512 24.6241Z" fill="#FFF200"/>
<path d="M22.9775 25.6946L23.3053 25.0527C23.306 25.0512 23.3071 25.05 23.3085 25.0492C23.3099 25.0483 23.3115 25.0479 23.3131 25.0479C23.3148 25.0479 23.3164 25.0483 23.3177 25.0492C23.3191 25.05 23.3203 25.0512 23.321 25.0527L23.6621 25.6946C23.6628 25.6959 23.6632 25.6974 23.6632 25.699C23.6631 25.7005 23.6627 25.702 23.6619 25.7033C23.6612 25.7046 23.66 25.7057 23.6587 25.7065C23.6574 25.7073 23.6559 25.7076 23.6543 25.7076L22.9855 25.7074C22.984 25.7074 22.9825 25.707 22.9812 25.7063C22.9798 25.7056 22.9787 25.7045 22.9779 25.7032C22.9771 25.702 22.9766 25.7005 22.9766 25.699C22.9765 25.6974 22.9768 25.6959 22.9775 25.6946Z" fill="#133C8B"/>
<path d="M14.8582 25.0684H14.0534C13.9101 25.0684 13.7939 25.1845 13.7939 25.3278V25.7065C13.7939 25.8498 13.9101 25.966 14.0534 25.966H14.8582C15.0015 25.966 15.1177 25.8498 15.1177 25.7065V25.3278C15.1177 25.1845 15.0015 25.0684 14.8582 25.0684Z" fill="#133C8B"/>
<path d="M20.401 25.0783C20.4011 25.0746 20.4026 25.0711 20.4052 25.0685C20.4079 25.0659 20.4114 25.0645 20.4152 25.0645L21.2322 25.0671C21.2562 25.0672 21.28 25.0715 21.3021 25.0798C21.3243 25.088 21.3444 25.1001 21.3613 25.1153C21.3782 25.1304 21.3916 25.1484 21.4007 25.1682C21.4098 25.188 21.4144 25.2092 21.4143 25.2306L21.4138 25.3479C21.4136 25.391 21.3942 25.4323 21.3599 25.4626C21.3255 25.493 21.279 25.5099 21.2306 25.5098L20.4136 25.5071C20.4117 25.5071 20.4098 25.5067 20.4081 25.506C20.4063 25.5053 20.4048 25.5042 20.4035 25.5029C20.4021 25.5015 20.4011 25.5 20.4004 25.4982C20.3997 25.4965 20.3994 25.4946 20.3994 25.4927L20.401 25.0783Z" fill="#133C8B"/>
</g>
<circle cx="20" cy="20" r="19.5" stroke="black" stroke-opacity="0.05"/>
<defs>
<clipPath id="clip0_9_393490">
<rect width="32" height="17.5733" fill="white" transform="translate(4 11)"/>
</clipPath>
</defs>
</svg>
