<svg width="40" height="40" viewBox="0 0 40 40" fill="none" xmlns="http://www.w3.org/2000/svg">
<circle cx="20" cy="20" r="20" fill="#F6F8FA"/>
<path d="M33.9897 19.6843C33.9927 19.6826 33.9952 19.6833 33.9971 19.6863C33.9986 19.6885 33.9994 19.6911 33.9994 19.6939C34.0009 19.9013 33.9997 20.1044 33.996 20.3031C33.996 20.3095 33.9933 20.3108 33.988 20.3071C33.9871 20.3065 33.9862 20.3066 33.9855 20.3073C33.984 20.3083 33.9832 20.3096 33.9832 20.3113C33.9842 20.3777 33.9855 20.4474 33.9872 20.5202C33.9881 20.555 33.9841 20.5862 33.975 20.6139C33.9738 20.6178 33.9736 20.6219 33.9745 20.6259C33.9753 20.6299 33.9771 20.6335 33.9798 20.6366C33.9887 20.6468 33.9877 20.6557 33.977 20.6635C33.9664 20.6712 33.9662 20.679 33.9764 20.687C33.9855 20.6939 33.987 20.702 33.981 20.711C33.976 20.7184 33.9735 20.7265 33.9733 20.7354C33.9707 20.7982 33.9689 20.8617 33.9679 20.9259C33.9677 20.9327 33.9647 20.9347 33.9589 20.9321C33.9577 20.9315 33.9567 20.9316 33.9558 20.9324C33.9533 20.9343 33.9524 20.9367 33.9529 20.9398C33.9627 20.9909 33.9609 21.0419 33.9475 21.0929C33.9449 21.1023 33.9463 21.1111 33.9518 21.1192C33.9573 21.1273 33.9569 21.1353 33.9507 21.143C33.9446 21.1507 33.9418 21.1595 33.9422 21.1693C33.9429 21.191 33.9424 21.2124 33.9405 21.2333C33.921 21.4435 33.8978 21.6531 33.8708 21.862C33.8352 22.1368 33.7993 22.3584 33.7633 22.5267C33.7523 22.5777 33.7457 22.6246 33.7434 22.6677C33.7431 22.6769 33.7393 22.6844 33.7321 22.69C33.7276 22.6938 33.7265 22.6986 33.7287 22.7045C33.7308 22.7099 33.7312 22.7156 33.7299 22.7215L33.6611 23.0371C33.6598 23.0429 33.6597 23.0489 33.6608 23.0549C33.6629 23.0647 33.6599 23.0729 33.652 23.0795C33.646 23.0843 33.6434 23.0905 33.6444 23.0982C33.6476 23.1294 33.6405 23.1625 33.6231 23.1976C33.6152 23.2017 33.6127 23.2087 33.6155 23.2185C33.6179 23.2274 33.618 23.2363 33.6158 23.2452C33.582 23.3791 33.5481 23.513 33.5142 23.6468C33.5015 23.6542 33.4984 23.665 33.5048 23.6791C33.507 23.6841 33.5079 23.6895 33.5074 23.6949C33.5069 23.7003 33.505 23.7055 33.502 23.71C33.4762 23.7485 33.4757 23.7873 33.4657 23.8195C33.4278 23.9445 33.3915 24.0683 33.3568 24.1909C33.3541 24.2 33.3486 24.2068 33.3403 24.2113C33.3335 24.2151 33.3302 24.2206 33.3304 24.228C33.3305 24.2286 33.3306 24.2291 33.3309 24.2296C33.3311 24.2301 33.3315 24.2306 33.3319 24.2309C33.3324 24.2312 33.3329 24.2314 33.3334 24.2315C33.3339 24.2316 33.3345 24.2316 33.335 24.2314C33.3387 24.2301 33.3419 24.2308 33.3443 24.2337C33.3454 24.2354 33.3456 24.2372 33.3449 24.239C33.3043 24.3438 33.265 24.4566 33.2271 24.5776C33.2158 24.6135 33.2027 24.6491 33.1878 24.6846C33.1723 24.7212 33.16 24.7582 33.151 24.7956C33.1405 24.8383 33.1085 24.8706 33.1068 24.9148C33.1064 24.9253 33.1031 24.9356 33.0972 24.9445C33.0626 24.996 33.0632 25.0464 33.0318 25.1033C33.0222 25.1205 33.014 25.1413 33.0074 25.1658C32.9936 25.2179 32.9633 25.2587 32.9483 25.3111C32.9379 25.3473 32.9226 25.382 32.9024 25.4152C32.8974 25.4238 32.8943 25.4334 32.8934 25.4433C32.8926 25.4535 32.8901 25.4632 32.8857 25.4724C32.8546 25.5385 32.8224 25.6043 32.7892 25.67C32.7851 25.678 32.783 25.687 32.783 25.6963C32.783 25.7077 32.7803 25.7183 32.775 25.7283C32.7394 25.7951 32.7045 25.867 32.6706 25.944C32.6659 25.9546 32.6598 25.9639 32.6525 25.9721C32.6428 25.9828 32.6387 25.9955 32.64 26.01C32.6408 26.0175 32.6376 26.0227 32.6307 26.0256C32.6154 26.0318 32.6094 26.0435 32.6128 26.0607C32.6147 26.0705 32.6111 26.0776 32.6021 26.0819C32.5872 26.0889 32.5812 26.1008 32.5842 26.1176C32.5857 26.127 32.5822 26.1339 32.5735 26.1382C32.5588 26.1454 32.553 26.1574 32.5562 26.1742C32.5579 26.1838 32.5543 26.1907 32.5455 26.1948C32.5307 26.2018 32.5248 26.2137 32.5276 26.2305C32.5283 26.2348 32.5276 26.2393 32.5256 26.2432C32.5235 26.2471 32.5203 26.2502 32.5163 26.252C32.5037 26.2583 32.4978 26.2683 32.4987 26.282C32.4997 26.2924 32.4961 26.3009 32.488 26.3075L32.4795 26.3143C32.4729 26.3198 32.4702 26.3267 32.4713 26.335C32.4736 26.351 32.468 26.3622 32.4546 26.3687C32.4502 26.3708 32.4467 26.3744 32.4446 26.3789C32.4426 26.3834 32.4421 26.3885 32.4433 26.3933C32.4459 26.404 32.4429 26.4125 32.4342 26.4188C32.4287 26.4227 32.4245 26.4278 32.4215 26.434C32.3796 26.5193 32.3382 26.6022 32.2975 26.6826C32.2846 26.7077 32.263 26.7443 32.2327 26.7924C32.2098 26.8285 32.1893 26.8657 32.1712 26.9042C32.1584 26.9316 32.143 26.9573 32.1251 26.9812C32.0928 27.0248 32.0795 27.0772 32.0444 27.1197C32.0289 27.1383 32.0161 27.1587 32.0059 27.1808C31.9801 27.2366 31.9425 27.2754 31.9153 27.3308C31.9051 27.3516 31.8935 27.3724 31.8805 27.3931C31.4002 28.1584 30.8614 28.8609 30.2641 29.5007C30.2152 29.5527 30.1666 29.6053 30.1183 29.6583C29.9685 29.8219 29.8122 29.9755 29.6495 30.1189C29.6414 30.1263 29.6361 30.1352 29.6337 30.1458C29.6299 30.1624 29.6196 30.1687 29.6028 30.1648C29.6007 30.1643 29.5984 30.1644 29.5963 30.1653C29.5943 30.1662 29.5926 30.1677 29.5915 30.1696C29.5715 30.2035 29.546 30.2287 29.5151 30.2451C29.5092 30.2484 29.5051 30.2532 29.5026 30.2596C29.5002 30.2666 29.4962 30.2725 29.4907 30.2774C29.3883 30.3688 29.2899 30.4555 29.1958 30.5376C29.0701 30.6471 28.9421 30.755 28.8128 30.8606C28.3595 31.231 27.8602 31.585 27.315 31.9224C27.2486 31.9633 27.1821 32.0038 27.1157 32.0438C27.1102 32.0472 27.1037 32.0487 27.0973 32.0484C27.083 32.0474 27.074 32.0538 27.0704 32.0676C27.0678 32.0774 27.0617 32.0838 27.0523 32.0869C27.0095 32.1006 26.9699 32.1211 26.9337 32.1483C26.9058 32.1691 26.876 32.1873 26.8445 32.2029C26.8109 32.2197 26.775 32.237 26.7367 32.2547C26.7346 32.2558 26.733 32.2575 26.7321 32.2595C26.7311 32.2616 26.7309 32.2639 26.7316 32.2661C26.7331 32.2708 26.7317 32.2738 26.7273 32.2751C26.7247 32.2761 26.7218 32.2761 26.7188 32.2751C26.7049 32.2708 26.6915 32.2734 26.6786 32.283C26.6382 32.3134 26.5879 32.344 26.5275 32.3748C26.3414 32.4693 26.1503 32.5646 25.9542 32.6607C25.9144 32.6803 25.8771 32.6942 25.8424 32.7023C25.8347 32.704 25.83 32.7087 25.8285 32.7164C25.8268 32.7257 25.8213 32.7293 25.8118 32.7272C25.8037 32.7255 25.796 32.7265 25.7886 32.7303L25.6454 32.8025C25.6375 32.8065 25.6291 32.8077 25.6202 32.8062C25.6038 32.8035 25.592 32.8105 25.5848 32.8271C25.5812 32.8354 25.5749 32.8397 25.5658 32.8399C25.5171 32.8413 25.4795 32.8869 25.4399 32.8818C25.4361 32.8812 25.4335 32.8827 25.4322 32.8863C25.4245 32.9063 25.4099 32.9142 25.3883 32.9101C25.3772 32.9078 25.3669 32.9099 25.3575 32.9163C25.3209 32.9406 25.2832 32.9573 25.2445 32.9664C25.1942 32.978 25.1585 33.012 25.1092 33.0213C25.0574 33.0312 25.026 33.068 24.9731 33.0677C24.9665 33.0677 24.9605 33.0699 24.9552 33.0742C24.9526 33.0763 24.9506 33.0789 24.9493 33.0819C24.9478 33.0851 24.9453 33.0873 24.9419 33.0884C24.7728 33.1484 24.6004 33.2098 24.4247 33.2727C24.394 33.2838 24.3627 33.2934 24.331 33.3013C24.2993 33.3094 24.2684 33.3193 24.2382 33.331C24.2089 33.3423 24.1791 33.3487 24.1487 33.3503C24.1374 33.351 24.1308 33.357 24.1289 33.3681C24.1284 33.3709 24.1274 33.3737 24.1261 33.3766C24.1231 33.3824 24.1185 33.3841 24.1122 33.3817C24.0918 33.373 24.0712 33.3745 24.0502 33.3862C24.0406 33.3915 24.0305 33.3956 24.0199 33.3987L23.5036 33.5425C23.5021 33.5428 23.5006 33.5428 23.4991 33.5425L23.4911 33.5405C23.4898 33.5401 23.4886 33.5403 23.4875 33.541C23.4675 33.5558 23.4464 33.5626 23.4243 33.5614C23.4158 33.5611 23.4076 33.5623 23.3997 33.5651L23.3295 33.5895C23.3193 33.593 23.3093 33.5927 23.2995 33.5883C23.2901 33.584 23.2836 33.5861 23.28 33.5945C23.2754 33.6049 23.2678 33.6085 23.257 33.6053C23.2378 33.5995 23.2204 33.6016 23.205 33.6118C23.1684 33.6356 23.1396 33.6277 23.1011 33.6364C22.9967 33.6606 22.9007 33.6824 22.8132 33.7018C22.8056 33.7035 22.7982 33.703 22.7908 33.7001C22.7838 33.6975 22.7784 33.6991 22.7744 33.705C22.7693 33.7123 22.7624 33.7165 22.7537 33.7174C22.7222 33.7206 22.6907 33.7246 22.6592 33.7293C22.6277 33.734 22.5971 33.741 22.5675 33.7502C22.5358 33.7602 22.5044 33.7624 22.4735 33.7568C22.4667 33.7556 22.4621 33.7583 22.4596 33.7647C22.4556 33.7752 22.4483 33.7791 22.4375 33.7763C22.43 33.7742 22.4224 33.7738 22.4149 33.7752L22.1652 33.8182C22.1595 33.8193 22.1537 33.8186 22.1485 33.8162C22.1381 33.8113 22.1295 33.8128 22.1227 33.8207C22.1202 33.8235 22.1169 33.8252 22.1134 33.8255L21.5116 33.9059C21.5046 33.9069 21.4981 33.9056 21.492 33.902C21.4798 33.895 21.468 33.896 21.4567 33.9051C21.4489 33.9113 21.44 33.9146 21.43 33.915C21.4025 33.9156 21.3733 33.9153 21.3426 33.9141C21.293 33.9122 21.2446 33.9396 21.1906 33.9286C21.1772 33.9259 21.167 33.9276 21.16 33.9337C21.1524 33.9401 21.1438 33.9433 21.1339 33.9433L20.9927 33.9436C20.9849 33.9436 20.9774 33.9456 20.9709 33.9495C20.9679 33.9514 20.9648 33.9532 20.9615 33.9549C20.9589 33.9566 20.9559 33.9575 20.9525 33.9575C20.8949 33.9575 20.8355 33.9576 20.7741 33.9577C20.7687 33.9579 20.7641 33.9599 20.7606 33.9637C20.7598 33.9643 20.7592 33.965 20.7589 33.966C20.7577 33.9686 20.7557 33.9699 20.7529 33.9699C20.6433 33.9718 20.5343 33.9724 20.426 33.9716C20.416 33.9714 20.4073 33.9748 20.3999 33.9818C20.3977 33.9839 20.3951 33.9854 20.3923 33.9863C20.386 33.9884 20.3809 33.987 20.3767 33.9821C20.3712 33.9755 20.3645 33.9707 20.3566 33.9676C20.3453 33.9635 20.3358 33.9661 20.3283 33.9756C20.3172 33.9894 20.305 33.9904 20.2918 33.9787C20.2786 33.9672 20.2675 33.9688 20.2587 33.9835C20.2573 33.9858 20.2554 33.987 20.2527 33.9872C20.2454 33.9879 20.2394 33.9854 20.2349 33.9795C20.2273 33.9697 20.2185 33.9687 20.2083 33.9764C20.1998 33.9827 20.1902 33.9858 20.1794 33.9858H19.8097C19.7993 33.9858 19.79 33.9827 19.7817 33.9764C19.7711 33.9685 19.7614 33.9698 19.7525 33.9804C19.7438 33.9908 19.7352 33.9907 19.7268 33.9801C19.7158 33.9667 19.7044 33.9667 19.6925 33.9801C19.6834 33.9905 19.6744 33.9904 19.6653 33.9798C19.6483 33.9598 19.6307 33.9608 19.6124 33.9827C19.6101 33.9853 19.6069 33.9871 19.6034 33.9875C19.5999 33.9879 19.5965 33.987 19.5937 33.9849L19.5863 33.9795C19.5812 33.9756 19.5755 33.9736 19.5691 33.9736L19.3041 33.9685C19.2951 33.9685 19.2863 33.9696 19.2778 33.9719C19.2616 33.9764 19.2463 33.9741 19.2319 33.9648C19.2242 33.9599 19.2158 33.9575 19.2067 33.9575L19.0966 33.9577C19.087 33.9579 19.0787 33.9547 19.0717 33.9481C19.0638 33.9404 19.0563 33.9406 19.0493 33.9487C19.0429 33.956 19.0351 33.9578 19.0258 33.9541C18.999 33.9431 18.9705 33.9395 18.9401 33.9433C18.888 33.9498 18.8393 33.9272 18.7835 33.9283C18.7577 33.9289 18.7305 33.9267 18.702 33.9218C18.6518 33.9131 18.6012 33.9109 18.5503 33.9153C18.5406 33.916 18.5317 33.9141 18.5234 33.9096C18.5079 33.9011 18.4914 33.8979 18.4738 33.9C18.4646 33.9011 18.4554 33.901 18.4464 33.8997L17.7005 33.797C17.6993 33.797 17.6983 33.7968 17.6974 33.7964C17.5979 33.7732 17.4997 33.7559 17.4027 33.7446C17.3957 33.7438 17.3902 33.7405 17.3862 33.7347C17.3804 33.726 17.3723 33.725 17.3619 33.7318C17.3579 33.7345 17.3532 33.7359 17.3485 33.7358C17.3437 33.7357 17.3391 33.7341 17.3353 33.7313C17.3162 33.7175 17.2951 33.7134 17.2719 33.7191C17.2606 33.7217 17.252 33.7181 17.2461 33.7081C17.2403 33.6983 17.2319 33.6966 17.2209 33.703C17.2165 33.7055 17.2115 33.7067 17.2064 33.7065C17.2014 33.7063 17.1965 33.7047 17.1923 33.7018C17.1733 33.6888 17.1521 33.6851 17.1289 33.6908C17.1185 33.6934 17.1107 33.6901 17.1054 33.6809C17.0998 33.6711 17.0914 33.6685 17.0802 33.6732C17.0706 33.6772 17.0609 33.6772 17.0511 33.6732C17.0264 33.6632 16.9998 33.6561 16.9715 33.6517C16.9442 33.6478 16.9169 33.6426 16.8897 33.6362C16.7191 33.596 16.5588 33.5559 16.4088 33.5159C16.4042 33.5147 16.4005 33.5123 16.3975 33.5085C16.3935 33.5038 16.3886 33.5022 16.3827 33.5037C16.3697 33.5069 16.3572 33.5065 16.3451 33.5025C16.2728 33.4797 16.2008 33.4583 16.1291 33.4383C15.8226 33.3526 15.5226 33.2549 15.2292 33.1453C15.1565 33.1181 15.0794 33.0905 14.9979 33.0624C14.9922 33.0603 14.9874 33.057 14.9835 33.0525L14.9781 33.0462C14.9754 33.0432 14.9721 33.0414 14.9682 33.0408C14.9267 33.0342 14.8889 33.0209 14.8549 33.0009C14.8461 32.9956 14.8366 32.9938 14.8266 32.9953C14.811 32.9977 14.7988 32.9928 14.7901 32.9805C14.7876 32.977 14.7844 32.9739 14.7807 32.9716C14.7769 32.9692 14.7727 32.9677 14.7683 32.967C14.7479 32.9639 14.7296 32.9562 14.7134 32.9437C14.7098 32.9409 14.7056 32.9389 14.7011 32.9379C14.6967 32.9369 14.6921 32.9368 14.6876 32.9378C14.6718 32.9414 14.6588 32.9368 14.6486 32.9239C14.6433 32.9173 14.6366 32.9131 14.6285 32.9112C14.6006 32.9044 14.5746 32.8928 14.5506 32.8764C14.5416 32.87 14.5315 32.8675 14.5203 32.869C14.5066 32.8711 14.4964 32.866 14.4898 32.8537C14.4845 32.8443 14.4765 32.8394 14.4657 32.839C14.447 32.8384 14.4293 32.8334 14.4125 32.824C14.3734 32.8015 14.3327 32.7816 14.2902 32.7643C14.2208 32.736 14.1791 32.7185 14.1654 32.7119C14.0635 32.6634 13.9624 32.6131 13.8622 32.561C13.8552 32.5574 13.8478 32.5561 13.8401 32.5571C13.8375 32.5574 13.8349 32.5573 13.8325 32.5568C13.8296 32.556 13.8276 32.5543 13.8262 32.5517C13.8179 32.533 13.8036 32.5251 13.7832 32.5279C13.7732 32.5294 13.7647 32.5265 13.7577 32.5191C13.7326 32.4931 13.7027 32.4771 13.668 32.4713C13.6608 32.47 13.6555 32.4661 13.6521 32.4597C13.6453 32.4474 13.6349 32.4418 13.6207 32.443C13.6137 32.4434 13.6063 32.4414 13.5984 32.437L12.9014 32.054C12.8979 32.0522 12.8948 32.0496 12.8924 32.0465C12.8899 32.0435 12.8881 32.04 12.887 32.0362C12.8834 32.0237 12.8753 32.018 12.8626 32.0189C12.853 32.0197 12.844 32.0174 12.8357 32.0121C12.761 31.9627 12.6884 31.9189 12.6181 31.8808C12.6156 31.8795 12.6134 31.8778 12.6115 31.8757C12.6093 31.8732 12.6075 31.8706 12.6062 31.8678C12.6048 31.8649 12.6028 31.8629 12.5999 31.8615C12.5512 31.8374 12.5022 31.8079 12.4527 31.7732C12.4097 31.743 12.3651 31.7131 12.3188 31.6835C12.1847 31.5974 12.0527 31.5073 11.9231 31.4131C11.9104 31.4037 11.8974 31.3955 11.884 31.3885C11.8706 31.3815 11.8579 31.3732 11.8458 31.3636C11.7675 31.3017 11.6853 31.2402 11.5992 31.179C11.5624 31.1528 11.5279 31.1256 11.4956 31.0975C11.4636 31.0694 11.4282 31.0428 11.3895 31.0177C11.3518 30.993 11.3272 30.9577 11.2901 30.9359C11.2747 30.9268 11.2595 30.9162 11.2445 30.9042C11.0804 30.7711 10.9167 30.6326 10.7537 30.4886C10.4195 30.1936 10.0857 29.8697 9.75244 29.5168C9.73602 29.4992 9.73205 29.4831 9.71507 29.4664C9.65751 29.409 9.57872 29.3233 9.4787 29.2094C8.66513 28.2824 7.98724 27.2686 7.44505 26.168C7.39164 26.0594 7.33578 25.9438 7.27747 25.8209C7.25709 25.7777 7.23803 25.7331 7.22029 25.6873C7.20387 25.6444 7.18198 25.6007 7.15461 25.5559C7.14933 25.5474 7.14782 25.5385 7.15008 25.529C7.15461 25.5102 7.14838 25.4968 7.1314 25.4888C7.12536 25.486 7.12234 25.4813 7.12234 25.4747C7.12178 25.4455 7.10281 25.4232 7.09233 25.3968C7.02251 25.2208 6.95221 25.0431 6.88144 24.8638C6.8688 24.8319 6.85974 24.801 6.85426 24.771C6.85238 24.7611 6.84747 24.7532 6.83954 24.7472C6.8269 24.7374 6.8219 24.7244 6.82454 24.7084C6.82618 24.6989 6.82426 24.6893 6.81916 24.6815C6.80727 24.6624 6.79831 24.6425 6.79227 24.6218C6.78717 24.6042 6.7817 24.5868 6.77585 24.5694C6.69885 24.3412 6.62629 24.112 6.55816 23.8818C6.5308 23.7897 6.50627 23.6986 6.48456 23.6083C6.47984 23.5883 6.47362 23.5702 6.46588 23.554C6.4572 23.5353 6.45418 23.516 6.45682 23.496C6.45734 23.4923 6.45693 23.4886 6.45564 23.4852C6.45436 23.4818 6.45223 23.4787 6.44946 23.4764C6.44078 23.4691 6.43804 23.4594 6.44125 23.4473C6.4437 23.438 6.44342 23.4289 6.4404 23.4198L6.40219 23.3057C6.39898 23.2961 6.39851 23.2864 6.40077 23.2766C6.40322 23.2668 6.40058 23.2586 6.39284 23.2522C6.38662 23.2468 6.38388 23.24 6.38464 23.2318C6.38784 23.2026 6.38162 23.1746 6.36595 23.1478C6.36123 23.1398 6.35878 23.1313 6.35859 23.122C6.35803 23.0999 6.35661 23.0842 6.35435 23.0747C6.30396 22.8673 6.26112 22.654 6.22583 22.4347C6.22564 22.4336 6.22507 22.4326 6.22413 22.4319C6.22205 22.4302 6.21979 22.4288 6.21734 22.4276C6.21583 22.4271 6.21516 22.4259 6.21535 22.4242C6.21913 22.3791 6.21413 22.3366 6.20035 22.2966C6.1845 22.2501 6.18903 22.2094 6.18025 22.1615C6.15893 22.0447 6.13968 21.914 6.1225 21.7695C6.10476 21.6198 6.08863 21.472 6.0741 21.3262C6.07259 21.3095 6.06938 21.2935 6.06447 21.278C6.06164 21.269 6.06325 21.2608 6.06928 21.2534C6.07627 21.2453 6.07655 21.2369 6.07013 21.2282C6.06542 21.2218 6.06268 21.2147 6.06192 21.207L6.03899 20.9024C6.03824 20.8945 6.04013 20.8872 6.04466 20.8806C6.04937 20.8738 6.04796 20.8669 6.04041 20.8599C6.03765 20.8573 6.03544 20.8542 6.03393 20.8508C6.03242 20.8473 6.03164 20.8436 6.03163 20.8398L6.03192 20.6671C6.03192 20.6575 6.02918 20.6487 6.02371 20.6408C6.01729 20.6316 6.01833 20.6234 6.02682 20.6162C6.03248 20.6111 6.03182 20.6061 6.02484 20.6012C6.02012 20.598 6.01776 20.5934 6.01776 20.5876L6.0172 20.2629C6.0172 20.2527 6.01437 20.2435 6.00871 20.2352C6.00153 20.2242 6.00314 20.2144 6.01352 20.2057C6.02333 20.1974 6.02314 20.1895 6.01295 20.1819C5.99804 20.171 5.99814 20.16 6.01323 20.1488C6.0238 20.1411 6.0238 20.1333 6.01323 20.1256C5.99814 20.1147 5.99823 20.1034 6.01352 20.0919C6.0239 20.0844 6.0238 20.0768 6.01323 20.0693C5.99795 20.0583 5.99804 20.047 6.01352 20.0353C6.0239 20.0276 6.0238 20.0199 6.01323 20.0124C5.99814 20.0016 5.99814 19.9905 6.01323 19.979C6.02437 19.9707 6.02409 19.9627 6.01239 19.9549C5.99842 19.9459 5.99776 19.936 6.0104 19.9255C6.02399 19.9143 6.02343 19.9041 6.00871 19.8946C5.99719 19.8869 5.9971 19.8794 6.00842 19.8723C6.02258 19.863 6.02333 19.8527 6.01069 19.8414C5.99861 19.8305 5.99917 19.82 6.01239 19.81C6.0239 19.8015 6.0239 19.793 6.01239 19.7845C6.00106 19.776 6.00002 19.7661 6.00927 19.7548C6.01459 19.7482 6.01749 19.74 6.01748 19.7316L6.01776 19.38C6.01776 19.3741 6.0205 19.3702 6.02597 19.3681C6.02975 19.3664 6.03352 19.3645 6.0373 19.3624C6.03767 19.3622 6.03362 19.3618 6.02512 19.361C6.01644 19.3603 6.0139 19.3559 6.01748 19.348C6.01899 19.3448 6.02088 19.342 6.02314 19.3395C6.02805 19.3344 6.0306 19.3283 6.03079 19.3211L6.03192 19.1583C6.03192 19.1476 6.03541 19.1379 6.04239 19.1295C6.04956 19.121 6.04881 19.1129 6.04013 19.1054C6.03371 19.0999 6.03192 19.0932 6.03475 19.0853C6.04551 19.0568 6.04947 19.0252 6.04664 18.9905C6.04126 18.9231 6.06249 18.8617 6.06136 18.792C6.06079 18.7609 6.06343 18.7273 6.06928 18.6912C6.07551 18.6544 6.07712 18.6181 6.0741 18.5823C6.07391 18.5796 6.07513 18.5781 6.07778 18.5777C6.08023 18.5772 6.08259 18.5761 6.08485 18.5746C6.09486 18.5686 6.0942 18.5671 6.08287 18.5701C6.08004 18.5708 6.0774 18.5717 6.07495 18.5726C6.07268 18.5734 6.07193 18.5726 6.07268 18.5704L6.08627 18.5296C6.08924 18.5211 6.09002 18.5119 6.08853 18.503C6.08146 18.4574 6.09957 18.422 6.10382 18.3787C6.11854 18.2176 6.13845 18.0586 6.16355 17.9017C6.17601 17.8246 6.18931 17.7463 6.20346 17.6671C6.22064 17.5721 6.23423 17.4853 6.24423 17.4066C6.24536 17.3991 6.24876 17.3928 6.25442 17.3877C6.26178 17.3809 6.2631 17.3726 6.25838 17.3628C6.25604 17.358 6.25497 17.3527 6.25527 17.3475C6.25557 17.3422 6.25723 17.3371 6.26008 17.3327C6.27178 17.3146 6.27537 17.2956 6.27084 17.2756C6.26876 17.2661 6.27131 17.258 6.27848 17.2512C6.28848 17.2418 6.29122 17.2299 6.28669 17.2156C6.28329 17.2052 6.28461 17.1954 6.29065 17.1861C6.30084 17.1706 6.30367 17.1537 6.29915 17.1354C6.29669 17.1252 6.29933 17.1166 6.30707 17.1094C6.31707 17.1 6.31962 17.0884 6.31471 17.0746C6.31295 17.0694 6.31238 17.0638 6.31307 17.0583C6.31376 17.0528 6.31567 17.0476 6.31868 17.0429C6.32943 17.0265 6.33283 17.0088 6.32887 16.9899C6.32623 16.9775 6.32859 16.966 6.33595 16.9554C6.35406 16.9286 6.36076 16.9002 6.35604 16.8702C6.35548 16.8668 6.35606 16.8632 6.3577 16.8602C6.35934 16.8571 6.36194 16.8547 6.3651 16.8532C6.37284 16.8496 6.37548 16.8437 6.37303 16.8354C6.37076 16.8286 6.37048 16.8218 6.37218 16.815C6.44691 16.4989 6.53061 16.1852 6.62327 15.874C6.62667 15.8625 6.63139 15.8518 6.63743 15.8418C6.64346 15.8318 6.64526 15.8212 6.6428 15.8101C6.64092 15.8016 6.6428 15.7939 6.64847 15.7871C6.66186 15.7713 6.66847 15.7534 6.66828 15.7333C6.66809 15.7239 6.67055 15.7151 6.67564 15.707C6.68659 15.6891 6.69442 15.6699 6.69914 15.6496C6.70348 15.6309 6.70876 15.6126 6.71499 15.5946C6.76387 15.4535 6.80982 15.3191 6.85285 15.1915C6.86191 15.1644 6.87342 15.1393 6.88739 15.1162C6.89206 15.1086 6.89523 15.1 6.89673 15.091C6.90277 15.0561 6.91522 15.0235 6.93409 14.9931C6.93806 14.9865 6.93947 14.9789 6.93834 14.9704C6.93683 14.9601 6.93891 14.9503 6.94457 14.9413C6.96193 14.9135 6.97495 14.8838 6.98363 14.8521C7.00033 14.7918 7.03572 14.7451 7.05214 14.6854C7.06082 14.6535 7.0728 14.6229 7.08809 14.5937C7.10677 14.5578 7.12008 14.528 7.128 14.5042C7.14706 14.4472 7.16518 14.4044 7.18235 14.3757C7.195 14.3546 7.20443 14.3345 7.21066 14.3154C7.22142 14.2826 7.22878 14.2621 7.23274 14.254C7.26992 14.1789 7.30832 14.1017 7.34796 14.0224C7.35022 14.0179 7.35079 14.0131 7.34965 14.008C7.34909 14.0055 7.3489 14.0031 7.34909 14.0006C7.34928 13.9993 7.34994 13.9983 7.35107 13.9978C7.37089 13.991 7.37919 13.9778 7.37598 13.9582C7.37428 13.948 7.37796 13.9405 7.38702 13.9358C7.40419 13.9269 7.40976 13.9131 7.40372 13.8945C7.40222 13.8897 7.40245 13.8845 7.40436 13.8799C7.40628 13.8753 7.40977 13.8715 7.4142 13.8693C7.42741 13.8625 7.43477 13.8518 7.43628 13.8373C7.43684 13.8297 7.43882 13.8225 7.44222 13.8155C7.79305 13.1029 8.20116 12.4268 8.66654 11.7872C8.69919 11.7423 8.72844 11.6996 8.7543 11.659C8.76015 11.6497 8.76826 11.6433 8.77864 11.6397C8.78411 11.6378 8.78789 11.6343 8.78996 11.629C8.79393 11.6199 8.79336 11.6111 8.78827 11.6026C8.78676 11.6004 8.78591 11.5978 8.78572 11.595C8.78562 11.5943 8.78574 11.5936 8.78607 11.593C8.7864 11.5924 8.78692 11.5919 8.78756 11.5916C8.7882 11.5913 8.78894 11.5912 8.78967 11.5913C8.7904 11.5914 8.7911 11.5917 8.79166 11.5922C8.80091 11.6001 8.80997 11.5999 8.81884 11.5916C8.82356 11.5871 8.82658 11.5816 8.8279 11.5752C8.83554 11.5412 8.86045 11.5293 8.87942 11.5027C8.93018 11.4316 8.9817 11.3636 9.03398 11.2989C9.1708 11.1289 9.31045 10.9612 9.45294 10.7959C9.47483 10.7704 9.4971 10.746 9.51974 10.7228C9.54956 10.6923 9.5757 10.6625 9.59816 10.6337C9.62496 10.5993 9.65355 10.5666 9.68393 10.5354C9.79999 10.4165 9.91049 10.3011 10.0154 10.1892C10.0303 10.1734 10.045 10.1557 10.0596 10.1363C10.072 10.1197 10.0881 10.1071 10.1077 10.0986C10.1169 10.0947 10.1234 10.088 10.127 10.0785C10.1442 10.0335 10.1881 10.0214 10.2192 9.98994C10.3379 9.87048 10.4593 9.7547 10.5833 9.6426C10.5884 9.63807 10.5921 9.6325 10.5943 9.6259C10.5973 9.61627 10.6034 9.61231 10.6124 9.61401C10.6272 9.61665 10.6353 9.61052 10.6368 9.59561C10.6379 9.58278 10.6445 9.57447 10.6566 9.5707C10.6651 9.56806 10.6727 9.56381 10.6795 9.55796C10.7416 9.50399 10.8012 9.44945 10.8584 9.39434C10.8613 9.39151 10.8646 9.39019 10.8683 9.39038C10.8697 9.39057 10.8711 9.39047 10.8726 9.39009C10.8739 9.38972 10.8751 9.38906 10.8763 9.38811C10.925 9.34263 10.9747 9.29894 11.0254 9.25705C11.0979 9.19722 11.1708 9.1374 11.244 9.07757C11.605 8.78374 11.9962 8.50103 12.4176 8.22947C12.5224 8.16191 12.6356 8.08972 12.7573 8.01291C12.7592 8.01178 12.7612 8.01064 12.7633 8.00951C12.8516 7.96384 12.9321 7.91591 13.0047 7.86571C13.0129 7.86005 13.0218 7.85731 13.0316 7.8575C13.0443 7.85788 13.0525 7.85222 13.0563 7.84052C13.0574 7.83672 13.06 7.8335 13.0634 7.83146C13.0669 7.82943 13.071 7.82872 13.0749 7.82948C13.0944 7.83325 13.1083 7.82655 13.1166 7.80938C13.1207 7.80088 13.1271 7.79466 13.1358 7.79069C13.1805 7.7689 13.2844 7.72955 13.3158 7.69614C13.3228 7.68841 13.3316 7.68558 13.3422 7.68765C13.3464 7.6884 13.3508 7.68791 13.3549 7.68624C13.3649 7.68171 13.3702 7.6752 13.3708 7.6667C13.3711 7.66274 13.3731 7.65982 13.3767 7.65793L14.0717 7.30889C14.0802 7.30455 14.0891 7.30238 14.0986 7.30238C14.1221 7.30238 14.14 7.29257 14.1521 7.27294C14.1581 7.26294 14.1668 7.25964 14.1781 7.26303C14.1947 7.26794 14.2074 7.26303 14.216 7.24831C14.22 7.24133 14.2259 7.23689 14.2336 7.23501C14.2666 7.22708 14.2971 7.215 14.325 7.19877C14.3501 7.18405 14.376 7.17254 14.4026 7.16424C14.4275 7.1565 14.4515 7.1464 14.4745 7.13395C14.5506 7.09318 14.6293 7.07026 14.7072 7.03544C14.74 7.02072 14.7734 7.00666 14.8074 6.99326C15.1914 6.84228 15.5786 6.70697 15.9689 6.58732C16.0215 6.57128 16.0735 6.55675 16.1248 6.54373C16.1331 6.54165 16.1408 6.53825 16.1478 6.53354C16.1585 6.52636 16.1708 6.5241 16.1846 6.52674C16.1951 6.52882 16.2051 6.52731 16.2143 6.52221C16.253 6.50108 16.2949 6.48881 16.34 6.48541C16.3438 6.48503 16.3452 6.48305 16.3442 6.47947C16.3431 6.47569 16.3437 6.47315 16.3459 6.47182C16.3489 6.47013 16.3521 6.46947 16.3553 6.46984C16.3743 6.47248 16.3923 6.47126 16.4091 6.46616C16.4525 6.45295 16.5005 6.44106 16.5531 6.43049C16.5601 6.42899 16.5661 6.42559 16.571 6.4203C16.5785 6.41181 16.5882 6.40983 16.5999 6.41436C16.6022 6.41527 16.6048 6.41537 16.6072 6.41464L16.7873 6.36878C16.7931 6.36727 16.7983 6.36473 16.8028 6.36114C16.8104 6.3551 16.8191 6.35359 16.8289 6.35661C16.8402 6.3602 16.851 6.35906 16.8614 6.35321C16.8839 6.34076 16.9073 6.33897 16.9316 6.34784C16.9331 6.3484 16.934 6.34793 16.9342 6.34642C16.9347 6.34416 16.9352 6.3417 16.9356 6.33906C16.9358 6.33755 16.9365 6.33642 16.9378 6.33566C16.9699 6.32019 17.0037 6.31405 17.0392 6.31726C17.0456 6.31783 17.0492 6.3149 17.05 6.30849C17.0503 6.30603 17.0509 6.30368 17.0516 6.30141C17.0516 6.30103 17.0518 6.30084 17.0522 6.30084C17.1313 6.29594 17.2064 6.28254 17.2775 6.26065C17.2889 6.25725 17.3002 6.25744 17.3115 6.26121C17.323 6.26518 17.3305 6.26159 17.3339 6.25046C17.336 6.24328 17.3408 6.24036 17.3483 6.24168L17.3616 6.24423C17.3671 6.24536 17.3726 6.24527 17.378 6.24395C17.432 6.23187 17.4887 6.22215 17.5482 6.21479C17.5782 6.21111 17.6003 6.19271 17.6311 6.20488C17.6392 6.20809 17.6433 6.20535 17.6433 6.19667C17.6433 6.19535 17.6437 6.19422 17.6444 6.19327C17.6459 6.19101 17.6481 6.18978 17.6509 6.18959C17.7428 6.18261 17.8311 6.1695 17.9156 6.15025C17.9467 6.14317 17.9872 6.15336 18.0104 6.13496C18.0186 6.12873 18.0276 6.12675 18.0376 6.12901C18.0652 6.13543 18.0914 6.13317 18.1163 6.12222C18.1276 6.11713 18.1395 6.11543 18.152 6.11713C18.1786 6.12052 18.2036 6.11797 18.227 6.10948C18.2593 6.09759 18.2819 6.10778 18.3128 6.10071C18.3733 6.08674 18.4315 6.08382 18.4871 6.09193C18.4892 6.09212 18.4904 6.09118 18.4905 6.0891C18.4907 6.08835 18.4909 6.0875 18.4911 6.08655C18.4913 6.08504 18.4907 6.08457 18.4894 6.08514C18.4809 6.08797 18.4746 6.08684 18.4704 6.08174C18.4661 6.07627 18.4674 6.07381 18.4744 6.07438C18.5155 6.07815 18.5547 6.07598 18.5919 6.06787C18.6431 6.05655 18.685 6.06787 18.7314 6.05683C18.7652 6.0489 18.8021 6.04494 18.8421 6.04494C18.8795 6.04494 18.9157 6.04239 18.9508 6.0373C18.9997 6.02994 19.0487 6.02899 19.0977 6.03447C19.1061 6.03541 19.1138 6.0339 19.121 6.02994C19.1379 6.0205 19.1538 6.02126 19.1685 6.0322C19.1768 6.03824 19.1788 6.03664 19.1745 6.02739C19.1714 6.02097 19.1735 6.01776 19.1807 6.01776C19.2347 6.01776 19.2879 6.01776 19.3403 6.01776C19.3474 6.01775 19.3541 6.015 19.359 6.01012C19.369 6.0005 19.3775 6.00097 19.3845 6.01154C19.3905 6.02078 19.398 6.02201 19.4069 6.01522L19.4168 6.00757C19.4249 6.00135 19.4326 6.00191 19.44 6.00927C19.4502 6.01946 19.4614 6.01993 19.4737 6.01069C19.4788 6.00664 19.4852 6.00435 19.4918 6.00418C19.8239 5.99851 20.1685 5.99861 20.5256 6.00446C20.5339 6.00465 20.5414 6.00748 20.548 6.01295C20.5565 6.01993 20.5646 6.01946 20.5723 6.01154C20.5829 6.00097 20.5933 6.00097 20.6034 6.01154C20.6119 6.0206 20.6205 6.0206 20.6292 6.01154C20.6388 6.00153 20.6491 6.00116 20.6601 6.0104C20.6677 6.01693 20.6776 6.02019 20.6878 6.01946C20.7507 6.01418 20.81 6.01663 20.8659 6.02682C20.8991 6.03286 20.9318 6.03447 20.9641 6.03164C20.9981 6.02862 21.0307 6.03192 21.062 6.04154C21.0719 6.04456 21.0807 6.04286 21.0886 6.03645C21.0951 6.03097 21.1015 6.03097 21.1079 6.03645C21.1154 6.04268 21.1241 6.04569 21.1339 6.04551C21.1821 6.04419 21.2308 6.04824 21.2803 6.05768C21.3009 6.06164 21.3209 6.0624 21.3403 6.05994C21.3746 6.0557 21.3932 6.07127 21.4249 6.07268C21.5531 6.07872 21.6781 6.09278 21.8 6.11486C21.8255 6.11967 21.8524 6.11118 21.8714 6.12222C21.8799 6.12713 21.889 6.12986 21.8988 6.13043C21.9297 6.13241 21.9594 6.12618 21.9891 6.13751C22.0074 6.14449 22.0277 6.1477 22.05 6.14713C22.0694 6.14638 22.0898 6.14836 22.1111 6.15308C22.1494 6.16119 22.189 6.16846 22.2297 6.17487C22.3171 6.18846 22.4069 6.2029 22.4992 6.21818C22.5075 6.21951 22.514 6.22366 22.5188 6.23064C22.5225 6.2363 22.5278 6.23743 22.5346 6.23404C22.542 6.23026 22.5498 6.22913 22.5581 6.23064C22.7257 6.26065 22.8985 6.2966 23.0764 6.33849C23.0923 6.34208 23.1081 6.34434 23.124 6.34529C23.1483 6.34661 23.171 6.35529 23.1919 6.37133C23.1983 6.37624 23.2054 6.37728 23.2132 6.37444C23.2213 6.37143 23.2295 6.37086 23.2378 6.37275C23.719 6.48654 24.1911 6.62497 24.654 6.78802C24.6625 6.79086 24.6698 6.79567 24.6758 6.80246C24.6843 6.8119 24.6952 6.81454 24.7084 6.81039C24.7178 6.80737 24.7264 6.80897 24.7341 6.8152C24.747 6.82558 24.7611 6.83247 24.7766 6.83587C24.7915 6.83926 24.8064 6.84379 24.8213 6.84945C24.8981 6.87965 24.969 6.90635 25.0339 6.92956C25.1166 6.95919 25.1883 6.98788 25.2491 7.01562C25.2572 7.01921 25.2645 7.02402 25.2712 7.03006C25.2796 7.03798 25.2898 7.04034 25.3017 7.03713C25.3115 7.03449 25.3208 7.036 25.3295 7.04166C25.4042 7.09035 25.4854 7.10451 25.563 7.14612C25.5932 7.16216 25.623 7.1749 25.6525 7.18434C25.6842 7.19434 25.7142 7.20698 25.7425 7.22227C25.8246 7.267 25.9084 7.30531 25.9939 7.3372C25.9999 7.33965 26.0059 7.3423 26.012 7.34513C26.1601 7.41835 26.3082 7.49176 26.4561 7.56536C26.4641 7.56927 26.471 7.5751 26.4762 7.58235C26.4855 7.59518 26.4979 7.60169 26.5136 7.60188C26.5177 7.60188 26.5217 7.60298 26.5253 7.60507C26.5288 7.60716 26.5317 7.61017 26.5337 7.61377C26.5386 7.62264 26.546 7.62792 26.5561 7.62962C26.5645 7.63094 26.5725 7.63349 26.5798 7.63726C26.6661 7.68142 26.7498 7.72653 26.8309 7.77258C26.9442 7.83712 27.0559 7.90072 27.1661 7.96337C27.1742 7.9679 27.1809 7.97403 27.1862 7.98177C27.1939 7.99272 27.2041 7.99951 27.2168 8.00215C27.2292 8.00461 27.2421 8.00989 27.2555 8.01801C27.7013 8.29033 28.1481 8.59926 28.5959 8.94481C28.6261 8.96821 28.6495 8.9884 28.6661 9.00539C28.6727 9.01237 28.6808 9.01624 28.6902 9.01699C28.7023 9.01775 28.7113 9.02341 28.7174 9.03398C28.7223 9.04285 28.7287 9.0504 28.7366 9.05663C28.9925 9.26063 29.2411 9.47464 29.4822 9.69865C29.4856 9.70186 29.4897 9.70299 29.4944 9.70205C29.4973 9.70129 29.4998 9.70148 29.5021 9.70261C29.5081 9.70582 29.5117 9.71092 29.5128 9.7179C29.5164 9.73923 29.528 9.7513 29.5476 9.75413C29.5561 9.75546 29.5622 9.76008 29.5658 9.76801C29.5678 9.77272 29.5708 9.77688 29.5745 9.78046C29.8067 9.99975 30.0324 10.2264 30.2517 10.4604C30.2541 10.4632 30.2558 10.4665 30.2568 10.47C30.2586 10.4768 30.262 10.4827 30.2669 10.4876C30.3288 10.5478 30.3886 10.6105 30.4461 10.6756C30.583 10.8299 30.7207 10.991 30.8594 11.1588C30.8594 11.1589 30.8595 11.159 30.8595 11.1591C30.8596 11.1592 30.8596 11.1593 30.8597 11.1593C30.9207 11.2375 30.9859 11.319 31.0553 11.4039C31.0822 11.4368 31.0899 11.4721 31.1295 11.4959C31.1378 11.5008 31.1437 11.5079 31.1473 11.5172C31.1537 11.5338 31.1622 11.549 31.1728 11.5627C31.4089 11.8722 31.6274 12.1861 31.8284 12.5043C31.8341 12.5133 31.8412 12.5212 31.8496 12.528C31.8576 12.5344 31.862 12.5428 31.8629 12.5529C31.8637 12.5629 31.867 12.5721 31.8729 12.5804C31.9525 12.695 32.0226 12.8122 32.0832 12.932C32.0875 12.9409 32.0941 12.9473 32.103 12.9512C32.1134 12.9558 32.1181 12.9637 32.1172 12.975C32.1164 12.9837 32.1186 12.9916 32.1237 12.9988C32.148 13.0339 32.1681 13.0708 32.184 13.1095C32.1874 13.1178 32.1929 13.1247 32.2007 13.1301C32.2082 13.1352 32.214 13.1418 32.2179 13.15L32.3266 13.3651C32.331 13.3738 32.3371 13.3809 32.345 13.3863C32.3594 13.3963 32.3639 13.41 32.3586 13.4274C32.3543 13.4423 32.3597 13.4513 32.3748 13.4543C32.391 13.4577 32.3992 13.4675 32.3994 13.4837C32.3996 13.4931 32.4023 13.5019 32.4076 13.51C32.4159 13.5227 32.4271 13.543 32.4413 13.5709C32.5109 13.7081 32.5799 13.8455 32.6482 13.9831C32.6573 14.0014 32.6631 14.0192 32.6658 14.0366C32.6684 14.0552 32.676 14.0698 32.6887 14.0802C32.6964 14.0868 32.6994 14.095 32.6978 14.1048C32.6962 14.1129 32.6981 14.1198 32.7034 14.1255C32.7087 14.1309 32.713 14.1368 32.7164 14.143C32.7519 14.2077 32.7814 14.2728 32.805 14.3383C32.8171 14.3721 32.8316 14.4045 32.8484 14.4354C32.8646 14.4651 32.8781 14.4967 32.8888 14.5303C32.9007 14.5667 32.9153 14.6008 32.9327 14.6327C32.9487 14.6622 32.9621 14.6936 32.9726 14.727C32.9851 14.7668 33.0011 14.806 33.0207 14.8445C33.029 14.8605 33.0339 14.881 33.0352 14.9059C33.0356 14.9102 33.0419 14.9203 33.0541 14.9362C33.0615 14.9458 33.0669 14.9563 33.0703 14.9676C33.0839 15.0106 33.0979 15.0524 33.1125 15.0927C33.117 15.1054 33.1212 15.1182 33.1249 15.1312C33.1314 15.1536 33.1487 15.1751 33.1566 15.1989C33.2549 15.4878 33.326 15.7016 33.3698 15.8404C33.3994 15.934 33.4261 16.0245 33.4499 16.1121C33.4601 16.1492 33.4887 16.1761 33.4723 16.2163C33.4694 16.2229 33.4715 16.2268 33.4785 16.2279C33.4836 16.2288 33.4867 16.2318 33.4878 16.2367C33.5018 16.2989 33.5183 16.3594 33.5374 16.4181C33.544 16.4385 33.5482 16.4596 33.5501 16.4815C33.5514 16.4964 33.5556 16.5109 33.5626 16.5248C33.5675 16.535 33.571 16.5459 33.573 16.5574C33.5857 16.627 33.6037 16.6987 33.6271 16.7725C33.6303 16.7823 33.6316 16.7923 33.6311 16.8023C33.6307 16.8079 33.6313 16.8135 33.6328 16.819C33.6469 16.8709 33.6606 16.9238 33.6738 16.9778C33.6759 16.9855 33.6753 16.9931 33.6721 17.0004C33.6691 17.0076 33.6701 17.0135 33.6752 17.0182C33.6796 17.0224 33.6823 17.0274 33.6834 17.0332L33.7279 17.2583C33.7288 17.2636 33.7291 17.2689 33.7287 17.2741C33.728 17.2819 33.7295 17.2891 33.7333 17.2957C33.7368 17.3019 33.7395 17.3086 33.7412 17.3158C33.7519 17.3595 33.7575 17.4028 33.7579 17.4454C33.7579 17.4475 33.7588 17.4481 33.7607 17.4471C33.7634 17.446 33.7659 17.446 33.7684 17.4471C33.7706 17.4481 33.7719 17.4498 33.772 17.4522C33.7754 17.4913 33.7809 17.5314 33.7885 17.5725C33.7913 17.5876 33.7939 17.6027 33.7964 17.6178C33.8381 17.8726 33.8753 18.1355 33.9079 18.4065C33.9106 18.4291 33.9124 18.452 33.9136 18.475C33.9147 18.4978 33.9178 18.5202 33.9229 18.5421C33.9345 18.5925 33.9209 18.6369 33.9337 18.6862C33.9442 18.7265 33.9473 18.7685 33.9427 18.8121C33.9418 18.8214 33.9433 18.8308 33.947 18.8393C33.9702 18.8951 33.9504 18.9639 33.9631 19.0244C33.9703 19.0578 33.9733 19.0918 33.9722 19.1263C33.9705 19.1811 33.9723 19.2365 33.9776 19.2925C33.9789 19.3072 33.98 19.322 33.981 19.337C33.986 19.4181 33.9869 19.509 33.9835 19.6096C33.9833 19.6181 33.9853 19.6266 33.9892 19.6342C33.9967 19.6493 33.9952 19.6641 33.9846 19.6786C33.9778 19.6879 33.9795 19.6898 33.9897 19.6843Z" fill="#76787B"/>
<path d="M29.3843 10.079C29.3938 10.0881 29.4036 10.0973 29.4138 10.1067C29.574 10.2547 29.7234 10.4027 29.8622 10.5506C29.8801 10.5697 29.8987 10.5892 29.9179 10.6092C29.9672 10.6602 30.0166 10.7093 30.0663 10.7567C30.088 10.7773 30.1053 10.7997 30.1183 10.8241C30.1312 10.8478 30.1501 10.8683 30.175 10.8855C30.1821 10.8906 30.1876 10.897 30.1914 10.9047C30.212 10.9457 30.2438 10.9801 30.2868 11.0081C30.3124 11.0249 30.3305 11.0477 30.3408 11.0766C30.3437 11.0845 30.3484 11.0911 30.355 11.0964C30.3756 11.1126 30.3908 11.1315 30.4006 11.153C30.4051 11.163 30.4118 11.1712 30.4207 11.1776C30.4482 11.1969 30.4687 11.2199 30.4821 11.2467C30.4872 11.2571 30.4945 11.2658 30.5039 11.2727C30.5218 11.286 30.5347 11.3028 30.5424 11.3234C30.5464 11.3334 30.5527 11.3413 30.5614 11.3472C30.584 11.3627 30.6023 11.3814 30.6163 11.4032C30.6304 11.4257 30.6469 11.4471 30.6658 11.4675C30.7 11.5045 30.73 11.5416 30.7558 11.5788C30.7613 11.5863 30.7684 11.5916 30.7771 11.5946C30.7856 11.5976 30.7924 11.6033 30.7975 11.6116C30.8258 11.6601 30.8597 11.7091 30.8994 11.7585C30.9709 11.8476 31.0375 11.9442 31.0992 12.0484C31.1125 12.0713 31.1318 12.0807 31.1462 12.1036C31.1706 12.1417 31.1962 12.1778 31.2232 12.2117C31.2511 12.2472 31.2763 12.283 31.2988 12.319C31.346 12.3951 31.3937 12.4729 31.442 12.5526C31.4439 12.5554 31.4464 12.5576 31.4494 12.5593C31.4507 12.5603 31.4521 12.5611 31.4536 12.5619C31.4568 12.5634 31.4593 12.5655 31.461 12.5681C31.5623 12.7334 31.6645 12.8981 31.7676 13.0621C31.7908 13.0992 31.8024 13.1388 31.8338 13.1719C31.8706 13.2107 31.8768 13.2642 31.906 13.3106C31.9607 13.398 32.0106 13.4903 32.0557 13.5875C32.0877 13.6566 32.1313 13.7191 32.1667 13.7871C32.172 13.7969 32.1759 13.8074 32.1783 13.8188C32.1806 13.8286 32.1861 13.8364 32.1947 13.8423C32.1982 13.8446 32.2009 13.8478 32.2027 13.8515C32.2045 13.8552 32.2053 13.8594 32.2049 13.8635C32.203 13.8824 32.2112 13.8952 32.2293 13.902C32.2429 13.9071 32.2449 13.9151 32.2355 13.9261C32.2338 13.9281 32.2328 13.9306 32.2324 13.9334C32.2318 13.9378 32.2335 13.941 32.2375 13.943C32.253 13.9513 32.2597 13.9638 32.2576 13.9804C32.2563 13.9902 32.2591 13.9987 32.2661 14.0059C32.2795 14.0195 32.2897 14.0349 32.2966 14.0523C32.3253 14.1223 32.3581 14.1921 32.3949 14.2618C32.4254 14.3193 32.4519 14.3763 32.4741 14.4328C32.4964 14.4894 32.5216 14.5468 32.5497 14.6049C32.5614 14.629 32.5705 14.6538 32.5769 14.679C32.5839 14.7068 32.596 14.7317 32.6131 14.7538C32.618 14.7598 32.6215 14.7665 32.6236 14.7739L32.6358 14.8175C32.6388 14.8286 32.6459 14.8359 32.657 14.8393C32.6646 14.8417 32.668 14.8467 32.6672 14.8543C32.6668 14.8592 32.6642 14.8617 32.6593 14.8619C32.6561 14.8619 32.6544 14.8635 32.6542 14.8667C32.6538 14.8692 32.6543 14.8714 32.6556 14.8735C32.6713 14.9007 32.6877 14.9271 32.7048 14.9528C32.7105 14.9615 32.7095 14.9692 32.7017 14.976C32.6991 14.9783 32.6978 14.9814 32.6978 14.9853C32.698 14.991 32.6999 14.9958 32.7037 14.9998C32.7462 15.0451 32.7332 15.0929 32.762 15.1436C32.7767 15.1696 32.7891 15.1965 32.7991 15.2243C32.8404 15.3382 32.8935 15.4968 32.9582 15.6998C32.9664 15.7256 32.9885 15.7446 32.9834 15.772C32.9813 15.7826 32.984 15.7918 32.9913 15.7998C33.0154 15.8252 33.01 15.8592 33.021 15.8912C33.0405 15.9471 33.0608 16.0041 33.0819 16.0625C33.0829 16.0655 33.0829 16.0684 33.0822 16.0712C33.0816 16.0731 33.0812 16.0751 33.0811 16.0772C33.0811 16.0794 33.0813 16.0815 33.0819 16.0834C33.1849 16.414 33.2785 16.7797 33.3624 17.1803C33.5493 18.0743 33.6456 18.9683 33.6515 19.8622C33.6649 21.9451 33.2386 23.9116 32.3728 25.7616C31.5915 27.4316 30.5129 28.8883 29.1369 30.1318C29.1088 30.1571 29.0777 30.1841 29.0438 30.2128C29.0123 30.2394 28.9809 30.2664 28.9498 30.2937C28.2761 30.8878 27.5147 31.4243 26.6656 31.903C26.5441 31.9714 26.4492 32.0199 26.3808 32.0488C26.3676 32.0543 26.3564 32.0639 26.3472 32.0777C26.3409 32.0868 26.3323 32.0905 26.3214 32.089C26.3116 32.0875 26.3036 32.0909 26.2973 32.0992C26.2911 32.1073 26.2834 32.1136 26.2741 32.1182C26.1641 32.1725 26.0536 32.2276 25.9426 32.2835C25.9358 32.2869 25.9287 32.2885 25.9211 32.2883C25.9106 32.2877 25.9028 32.2923 25.8979 32.3019C25.8907 32.3155 25.8797 32.3214 25.8648 32.3197C25.8554 32.3186 25.8464 32.3202 25.8379 32.3245C25.6309 32.4287 25.4209 32.5242 25.208 32.611C24.3699 32.9528 23.5052 33.2131 22.6139 33.392C22.6058 33.3937 22.5978 33.3932 22.5898 33.3903C22.5859 33.389 22.5817 33.3887 22.5776 33.3896C22.5735 33.3904 22.5697 33.3923 22.5666 33.3952C22.542 33.4175 22.516 33.4051 22.4868 33.411C22.1754 33.4746 21.7713 33.5315 21.2744 33.5817C21.2276 33.5864 21.1824 33.5889 21.1388 33.5891C21.1084 33.5892 21.0775 33.5922 21.0462 33.5978C21.0185 33.6027 20.9867 33.6063 20.9508 33.6086C20.3541 33.6446 19.773 33.6477 19.2076 33.6177C19.2013 33.6173 19.1952 33.6153 19.1898 33.612C19.1758 33.6031 19.1635 33.6043 19.153 33.6154C19.1454 33.6233 19.1379 33.6226 19.1303 33.6131C19.1281 33.6103 19.1253 33.6081 19.122 33.6067C19.1186 33.6053 19.115 33.6046 19.1114 33.6049C19.0703 33.608 19.0304 33.6109 18.9896 33.6029C18.8993 33.5851 18.8096 33.5913 18.7167 33.5809C18.5346 33.5605 18.366 33.5402 18.2109 33.52C18.0739 33.5022 17.9309 33.4829 17.782 33.462C17.7801 33.4618 17.7784 33.4611 17.7769 33.46C17.7758 33.4594 17.7749 33.4587 17.7744 33.4577C17.773 33.4556 17.7713 33.4544 17.769 33.454C17.6729 33.4376 17.5766 33.4224 17.48 33.4085C17.4705 33.4069 17.4622 33.4032 17.4551 33.3971C17.4464 33.3898 17.4365 33.3873 17.4253 33.3898C17.4161 33.3917 17.4066 33.3918 17.3967 33.3901C17.3375 33.3797 17.2788 33.367 17.2207 33.3521C17.2158 33.351 17.2109 33.3508 17.2059 33.3516C17.2033 33.3521 17.2007 33.3527 17.198 33.3533C17.1933 33.3546 17.1891 33.3535 17.1853 33.3501C17.1691 33.3356 17.1489 33.3299 17.1247 33.3329C17.1134 33.3342 17.1024 33.3328 17.0919 33.3286C17.0464 33.3109 16.9968 33.2998 16.9432 33.2955C16.9342 33.2948 16.9262 33.2914 16.9192 33.2856C16.9028 33.2717 16.8736 33.2782 16.849 33.272C16.7233 33.2409 16.5966 33.2084 16.4688 33.1746C16.2782 33.1244 16.1134 33.0767 15.9745 33.0314C15.9464 33.0221 15.9178 33.0146 15.8888 33.0087C15.8688 33.0046 15.8493 32.9979 15.8305 32.9886C15.8123 32.9798 15.7938 32.9733 15.7747 32.9691C15.7113 32.9557 15.6497 32.9334 15.5898 32.902C15.5838 32.8989 15.5768 32.8977 15.57 32.8986C15.56 32.9003 15.551 32.8983 15.5429 32.8924C15.5345 32.8864 15.5256 32.8817 15.516 32.8785C14.8403 32.6477 14.1946 32.3662 13.5788 32.0338C12.0153 31.1899 10.6749 30.1028 9.55769 28.7727C8.43896 27.4408 7.60709 25.9615 7.06206 24.3349C6.53799 22.771 6.30464 21.1536 6.36201 19.4829C6.36427 19.4184 6.36776 19.3553 6.37248 19.2938C6.3772 19.2319 6.38003 19.1699 6.38097 19.1078C6.38154 19.0629 6.38494 19.0221 6.39116 18.9853C6.40164 18.9261 6.39654 18.8703 6.4022 18.8126C6.44844 18.3193 6.50289 17.9157 6.56554 17.6018C6.57347 17.562 6.57819 17.5238 6.5797 17.4872C6.58007 17.4791 6.58224 17.4713 6.58621 17.464C6.60234 17.4345 6.5981 17.3992 6.60461 17.3663C6.65235 17.1223 6.70642 16.8904 6.76681 16.6705C6.76832 16.6649 6.76841 16.6588 6.76709 16.6524C6.76634 16.6494 6.76587 16.6464 6.76568 16.6433C6.76549 16.6409 6.76577 16.6383 6.76653 16.6357C6.79276 16.5449 6.82211 16.4406 6.85457 16.3226C6.91401 16.1056 6.97261 15.9094 7.03036 15.7341C7.09056 15.5518 7.15369 15.3737 7.21974 15.1999C7.3643 14.82 7.48763 14.5239 7.58972 14.3116C7.6839 14.1161 7.78024 13.9199 7.87875 13.7231C7.96631 13.548 8.05539 13.3815 8.14598 13.2237C8.44793 12.6974 8.78309 12.1944 9.15147 11.7146C9.25452 11.5806 9.35746 11.4475 9.46031 11.3152C9.47579 11.2952 9.49183 11.2754 9.50844 11.2558C10.6134 9.9485 11.8947 8.88591 13.3524 8.068C13.5949 7.93193 13.8585 7.79445 14.1433 7.65555C14.1569 7.64876 14.1708 7.6447 14.1849 7.64338C14.2053 7.6414 14.2212 7.62413 14.2398 7.61536C14.3272 7.5744 14.4129 7.53524 14.4969 7.49788C14.5071 7.49316 14.5164 7.48731 14.5249 7.48033C14.5323 7.4741 14.5407 7.47127 14.5504 7.47183C14.5594 7.4724 14.5679 7.47061 14.5758 7.46646C14.6227 7.44155 14.67 7.41616 14.718 7.39031C14.7247 7.38634 14.7352 7.38578 14.7426 7.38691C14.7473 7.38767 14.7519 7.3871 14.7565 7.38521C15.4289 7.10534 16.1299 6.87812 16.8595 6.70356C16.9363 6.68525 17.0013 6.67119 17.0545 6.66138C17.0845 6.65609 17.1144 6.64845 17.1442 6.63845C17.1754 6.62826 17.2057 6.62439 17.2351 6.62684C17.2415 6.62722 17.2474 6.62533 17.2527 6.62118C17.2589 6.61646 17.2658 6.61335 17.2733 6.61184C19.0809 6.25025 20.8885 6.24789 22.6963 6.60476C22.707 6.60684 22.7174 6.6075 22.7274 6.60674C22.7397 6.60599 22.7501 6.60967 22.7586 6.61778C22.7657 6.62458 22.7742 6.62769 22.784 6.62712C22.8041 6.62571 22.8194 6.62458 22.8392 6.63137C22.8868 6.64798 22.9364 6.65921 22.9881 6.66506C22.9972 6.66619 23.0052 6.66978 23.0122 6.67581C23.0201 6.6828 23.0297 6.68553 23.0411 6.68402C23.0514 6.6827 23.0618 6.68317 23.0722 6.68544C23.8541 6.86699 24.6114 7.11298 25.3442 7.42343C25.3552 7.42796 25.3657 7.43352 25.3759 7.44013C25.3857 7.44636 25.3967 7.45004 25.4087 7.45117C25.4182 7.45211 25.427 7.45494 25.4351 7.45966C25.4741 7.4825 25.5148 7.5025 25.5571 7.51968C25.6003 7.53704 25.642 7.55506 25.6822 7.57374C26.0021 7.72246 26.3095 7.87796 26.6045 8.04026C26.7137 8.10046 26.8178 8.15981 26.9167 8.21832C27.6104 8.62822 28.267 9.09652 28.8864 9.62324C28.9894 9.71081 29.0793 9.79318 29.1559 9.87037C29.1606 9.87509 29.1661 9.8766 29.1723 9.8749C29.18 9.87263 29.1866 9.87462 29.1921 9.88084C29.2482 9.94444 29.3122 10.0105 29.3843 10.079Z" fill="white"/>
<path d="M33.0014 20.5366C33.0137 20.5466 33.0148 20.5577 33.0046 20.57C32.9985 20.5774 32.996 20.5858 32.9969 20.5952C32.9984 20.6126 32.9987 20.6298 32.9978 20.647C32.9874 20.8738 32.9695 21.1073 32.944 21.3473C32.9159 21.6112 32.8799 21.8836 32.8361 22.1646C32.8352 22.171 32.8326 22.1753 32.8285 22.1773C32.8275 22.1779 32.8267 22.1784 32.8259 22.1787C32.8239 22.1803 32.8229 22.1824 32.8231 22.1853C32.8248 22.2064 32.8238 22.2274 32.82 22.2484C32.553 23.7476 32.0523 25.138 31.318 26.4196C30.2879 28.2167 28.9102 29.6913 27.1847 30.8433C27.0553 30.9297 26.9028 31.0262 26.7273 31.1328C26.5659 31.2308 26.4093 31.3207 26.2574 31.4026C26.1156 31.479 25.9731 31.5536 25.8299 31.6263C25.8036 31.6396 25.7747 31.6441 25.7552 31.6664C25.7491 31.6734 25.7417 31.6778 25.7328 31.6795C25.7228 31.6812 25.7112 31.6853 25.698 31.6919C24.8599 32.0992 23.9919 32.4129 23.0939 32.6332C23.019 32.6517 22.9444 32.6672 22.87 32.6799C22.8613 32.6814 22.8544 32.6856 22.8491 32.6926C22.8442 32.6992 22.8374 32.7014 22.8287 32.6991C22.8227 32.6976 22.8166 32.6975 22.8106 32.6988C22.1746 32.8366 21.5382 32.9271 20.9015 32.9703C20.201 33.0181 19.4982 33.0098 18.7931 32.9454C17.6376 32.8397 16.5175 32.5833 15.4329 32.176C14.1055 31.6774 12.8956 30.9828 11.8033 30.0922C10.2928 28.8608 9.11017 27.3625 8.25546 25.5972C8.23149 25.5474 8.20894 25.4962 8.1878 25.4435C8.16035 25.3747 8.12156 25.3116 8.09297 25.242C8.04107 25.1157 7.98767 24.9902 7.93275 24.8655C7.93105 24.8617 7.93001 24.8577 7.92964 24.8536C7.92888 24.846 7.92699 24.8388 7.92397 24.8318C7.90189 24.7818 7.87925 24.7266 7.85603 24.6662C7.58975 23.9692 7.38754 23.2749 7.24939 22.5833C7.24807 22.5763 7.24864 22.5696 7.25109 22.5632C7.25449 22.5547 7.25251 22.5484 7.24515 22.5445C7.23722 22.5401 7.23279 22.5334 7.23184 22.5244C7.22637 22.4727 7.21835 22.4184 7.20778 22.3616C7.00208 21.2502 6.94357 20.115 7.03227 18.9559C7.13267 17.6445 7.43321 16.3652 7.93388 15.1182C7.9922 14.9727 8.05419 14.826 8.12071 14.6825C8.13959 14.6417 8.16186 14.5905 8.18752 14.5288C8.29132 14.278 8.48664 13.9089 8.7735 13.4217C9.82882 11.6286 11.2211 10.1719 12.9503 9.05149C14.1646 8.2649 15.4975 7.69317 16.9491 7.3363C16.9565 7.33461 16.9637 7.33489 16.9709 7.33715C16.9805 7.34017 16.9878 7.33744 16.9927 7.32894C16.9947 7.32565 16.9975 7.32297 17.0009 7.32122C17.0042 7.31947 17.008 7.31871 17.0117 7.31904C17.0234 7.31998 17.0353 7.31885 17.0474 7.31564C17.0949 7.30356 17.1726 7.28601 17.2803 7.26299C18.4055 7.0235 19.546 6.93471 20.7019 6.99661C21.8239 7.05643 22.9184 7.25704 23.9856 7.59844C24.1636 7.65543 24.3419 7.71714 24.5207 7.78357C26.4903 8.51807 28.1899 9.66501 29.6195 11.2244C30.4087 12.0852 31.0768 13.053 31.6237 14.128C31.7109 14.2997 31.7938 14.4748 31.8725 14.6534C31.8829 14.6766 31.8934 14.6999 31.9039 14.7233C31.9626 14.8525 32.0196 14.9861 32.0749 15.1238C32.6222 16.4885 32.9303 17.8995 32.9992 19.357C33.0009 19.3896 33.0097 19.4145 33.0097 19.4482C33.0089 19.8124 33.0089 20.1669 33.0097 20.5117C33.0097 20.5181 33.0068 20.5228 33.0012 20.5258C32.9983 20.5274 32.9973 20.5294 32.9981 20.5321C32.9988 20.5338 32.9999 20.5353 33.0014 20.5366Z" fill="#5C8BB6"/>
<path d="M31.5297 16.8475C31.5312 16.8482 31.5321 16.8493 31.5325 16.8506C31.749 17.6459 31.8806 18.452 31.9274 19.2689C32.0423 21.2765 31.6832 23.1877 30.85 25.0024C30.7738 25.1683 30.6917 25.3347 30.6037 25.5015C29.6075 27.393 28.2091 28.9174 26.4088 30.0747C26.22 30.196 26.0156 30.3174 25.7953 30.439C25.7691 30.4535 25.7426 30.468 25.7158 30.4826C25.4886 30.6049 25.2269 30.737 24.9308 30.8789C24.9263 30.881 24.9218 30.8822 24.9175 30.8826C24.9115 30.8831 24.9056 30.8823 24.8999 30.8851C24.8377 30.9159 24.7658 30.9486 24.6842 30.9833C23.3258 31.5603 21.9083 31.8755 20.4315 31.9291C20.4219 31.9216 20.4125 31.9212 20.4032 31.928C20.399 31.9309 20.394 31.9326 20.3891 31.9328C18.4754 31.9868 16.6557 31.612 14.9299 30.8084C14.7536 30.7263 14.5844 30.6417 14.4223 30.5545C12.4794 29.5097 10.9409 28.0616 9.80669 26.2101C8.81837 24.5971 8.24692 22.8347 8.09236 20.923C8.09198 20.9179 8.09066 20.9131 8.0884 20.9085C8.0867 20.9053 8.08604 20.9021 8.08642 20.8989C8.08679 20.8949 8.08811 20.8914 8.09038 20.8882C8.09755 20.878 8.09708 20.8671 8.08896 20.8556C8.08545 20.8508 8.08348 20.845 8.0833 20.8389C8.06896 20.5658 8.05971 20.3223 8.05556 20.1083C8.05141 19.8943 8.06207 19.5556 8.08755 19.0923C8.08868 19.0739 8.09746 19.0657 8.09746 19.0467C8.09831 18.9185 8.11727 18.7854 8.12973 18.668C8.18332 18.1663 8.27089 17.6686 8.39243 17.1747C8.39412 17.1679 8.39384 17.1612 8.39158 17.1546C8.39063 17.1522 8.38997 17.1497 8.38959 17.1473C8.38922 17.144 8.39044 17.1418 8.39327 17.1405C8.40667 17.135 8.4129 17.1254 8.41196 17.1116C8.41101 17.0963 8.41262 17.0808 8.41677 17.0652C8.67456 16.0829 9.01388 15.2001 9.43472 14.4169C10.5295 12.3799 12.0642 10.7879 14.0387 9.64083C15.681 8.68685 17.4809 8.15843 19.4385 8.05558C19.4736 8.05369 19.5093 8.05247 19.5458 8.0519C19.6128 8.05077 19.6798 8.04897 19.7468 8.04652C19.9442 8.03897 20.1802 8.04086 20.4547 8.05218C20.9811 8.07426 21.4815 8.12465 21.9559 8.20335C23.5527 8.46888 25.0264 9.03003 26.3771 9.88682C27.9423 10.8795 29.2162 12.1714 30.1986 13.7625C30.7788 14.7017 31.2178 15.7179 31.5158 16.811C31.5184 16.8206 31.5209 16.8303 31.5232 16.8401C31.5239 16.8431 31.5261 16.8456 31.5297 16.8475Z" fill="white"/>
<path d="M26.1307 22.061C26.0909 22.1655 26.0448 22.2684 25.9925 22.3695C25.9895 22.3752 25.9886 22.3812 25.9897 22.3876C25.9905 22.3922 25.9899 22.3969 25.9879 22.4011C25.986 22.4053 25.9827 22.4088 25.9787 22.4111C25.9683 22.4166 25.9632 22.425 25.9634 22.4363C25.9636 22.4458 25.9614 22.4546 25.9569 22.4629C25.8946 22.5756 25.8538 22.6908 25.8012 22.8049C25.683 23.0602 25.58 23.2884 25.4921 23.4894C25.4732 23.5324 25.4537 23.5754 25.4335 23.6185C25.378 23.7362 25.3372 23.8579 25.2707 23.9681C25.2656 23.9767 25.2643 23.986 25.2667 23.9958C25.2686 24.0034 25.267 24.0101 25.2619 24.0159C25.2574 24.0212 25.2536 24.027 25.2506 24.0335C25.0666 24.4473 24.8807 24.8707 24.6929 25.3036C24.6793 25.3348 24.6726 25.3334 24.6728 25.2994C24.6758 24.8091 24.6123 24.3217 24.4823 23.8373C24.4183 23.5991 24.3585 23.4199 24.3028 23.2997C24.2734 23.2361 24.2528 23.1863 24.2411 23.1502C24.2383 23.1414 24.2387 23.1326 24.2423 23.1239C24.9368 21.4324 25.5792 19.835 26.1695 18.3317C26.3355 17.9089 26.4829 17.4631 26.6116 16.9941C26.6254 16.9435 26.634 16.8911 26.6374 16.8367C26.638 16.8273 26.6353 16.8188 26.6295 16.8112C26.5949 16.7676 26.5691 16.7425 26.5519 16.7359C26.4647 16.702 26.3842 16.6741 26.3104 16.6524C26.1891 16.6166 26.06 16.5815 25.9232 16.5471C25.8922 16.5394 25.8665 16.5213 25.8459 16.4928C25.7995 16.4286 25.7726 16.3598 25.7652 16.2864C25.762 16.253 25.7583 16.2193 25.7539 16.1854C25.7494 16.1495 25.7512 16.1124 25.7593 16.0741C25.7805 15.9745 25.7913 15.9037 25.8567 15.8154C25.8988 15.7579 25.9498 15.7191 26.0251 15.7265C26.1368 15.7372 26.2441 15.745 26.347 15.7497C27.4566 15.8001 28.5663 15.8057 29.6598 15.7307C29.7858 15.722 29.8651 15.8827 29.8863 15.9818C29.9268 16.1712 29.9121 16.362 29.8005 16.5234C29.7947 16.5315 29.7861 16.5373 29.7765 16.5395C29.6408 16.5699 29.5045 16.6012 29.3677 16.6335C29.2513 16.6608 29.1364 16.6892 29.0232 16.7187C28.9056 16.7494 28.7959 16.7949 28.694 16.8551C28.6264 16.8949 28.559 16.9476 28.4919 17.0131C28.4592 17.0448 28.4357 17.0751 28.4214 17.1039C28.4161 17.1141 28.4103 17.1244 28.4041 17.1348C28.1833 17.5002 27.9876 17.8726 27.817 18.2521C27.7826 18.3286 27.7484 18.4038 27.7142 18.4777C27.555 18.8223 27.4253 19.1196 27.3253 19.3694C27.3104 19.4066 27.2931 19.4459 27.2735 19.4872C27.255 19.5264 27.2391 19.5658 27.2259 19.6052C27.207 19.6613 27.1753 19.7117 27.152 19.7669C27.0779 19.9435 27.0019 20.1185 26.9242 20.2917C26.7636 20.6486 26.6179 20.9769 26.4871 21.2765C26.4407 21.3827 26.388 21.4832 26.3453 21.5908C26.313 21.6719 26.2746 21.7487 26.2301 21.8212C26.2282 21.8243 26.227 21.8278 26.2266 21.8314C26.2262 21.835 26.2266 21.8387 26.2278 21.8421C26.2321 21.8552 26.2286 21.8657 26.2173 21.8738C26.2108 21.8788 26.2063 21.8861 26.2049 21.8942C26.1935 21.9568 26.1528 22.0032 26.1307 22.061Z" fill="#76787B"/>
<path d="M12.0843 18.1954C12.0609 18.1524 12.0394 18.1088 12.0198 18.0647C11.8743 17.7353 11.726 17.4336 11.575 17.1594C11.5492 17.1124 11.5103 17.0536 11.4584 16.983C11.3237 16.8 11.1494 16.6821 10.9356 16.6295C10.7212 16.5766 10.5001 16.5305 10.2723 16.491C10.2466 16.4867 10.2242 16.4753 10.2049 16.4568C10.1802 16.4332 10.1629 16.4061 10.1528 16.3755C10.1259 16.2932 10.113 16.2094 10.1144 16.1239C10.116 16.0121 10.1576 15.9134 10.2389 15.8278C10.2661 15.7992 10.3001 15.7997 10.3366 15.8014C11.9301 15.8756 13.5093 15.8759 15.0742 15.8023C15.1208 15.8 15.1562 15.822 15.1803 15.8682C15.2656 16.0299 15.3157 16.3203 15.1662 16.4644C15.1577 16.4727 15.1477 16.4777 15.1362 16.4794C14.9507 16.5072 14.7854 16.5363 14.6405 16.5669C14.5469 16.5865 14.4586 16.6296 14.3755 16.6963C14.3525 16.7148 14.3373 16.7387 14.33 16.7682C14.3209 16.804 14.3206 16.8349 14.3291 16.8607C14.3888 17.0421 14.4623 17.2338 14.5496 17.4359C14.8784 18.1959 15.1937 18.9123 15.4957 19.5851C15.8173 20.3013 16.139 21.0175 16.461 21.7337C16.5667 21.9686 16.671 22.2041 16.7741 22.4402C16.7779 22.4489 16.7784 22.4578 16.7758 22.4668C16.7557 22.5314 16.7076 22.5905 16.6835 22.6387C16.5754 22.8555 16.4675 23.0725 16.3599 23.2898C16.3501 23.2956 16.3458 23.3042 16.3469 23.3155C16.3479 23.3255 16.3462 23.3349 16.3418 23.3438C16.2641 23.5101 16.1927 23.6816 16.1278 23.8585C15.9281 24.402 15.8044 24.9934 15.7567 25.6328C15.7531 25.6806 15.7515 25.7283 15.7519 25.776C15.7521 25.803 15.746 25.8045 15.7338 25.7806C15.6675 25.6522 15.6036 25.5204 15.5418 25.3851C15.5291 25.3571 15.5028 25.3327 15.5028 25.3027C15.5026 25.2886 15.4962 25.2784 15.4835 25.2722C15.4724 25.2665 15.4707 25.2589 15.4784 25.2492C15.485 25.2411 15.4839 25.2342 15.475 25.2286L15.4643 25.2221C15.4577 25.2179 15.453 25.2121 15.4501 25.2048C15.412 25.1055 15.3657 25.0081 15.3111 24.9126C15.3064 24.9042 15.3048 24.8952 15.3063 24.8858C15.3076 24.879 15.3051 24.8738 15.2987 24.8702C15.2923 24.8668 15.2873 24.862 15.2837 24.8558C15.2495 24.7989 15.2218 24.7401 15.2004 24.6791C15.1903 24.6502 15.1693 24.6347 15.1639 24.6069C15.1619 24.5958 15.1582 24.5847 15.1529 24.5738C15.0466 24.3504 14.938 24.1309 14.8271 23.9154C14.8227 23.9071 14.82 23.8982 14.8189 23.8887C14.8181 23.8812 14.8154 23.8723 14.8106 23.8621C14.7384 23.7081 14.6607 23.5506 14.5777 23.3894C14.5358 23.3082 14.4933 23.1935 14.4373 23.1004C14.4325 23.0923 14.4294 23.0836 14.4279 23.0743C14.4255 23.0577 14.4187 23.0386 14.4075 23.0169C14.3007 22.8076 14.1988 22.6 14.1018 22.3941C14.0994 22.389 14.0962 22.3844 14.0922 22.3802C14.0871 22.3751 14.0868 22.3698 14.0913 22.3644C14.093 22.3625 14.0941 22.3603 14.0946 22.3579C14.0952 22.3555 14.0951 22.353 14.0944 22.3506C14.0937 22.3483 14.0925 22.3461 14.0908 22.3443C14.089 22.3426 14.0869 22.3413 14.0845 22.3406C14.0806 22.3393 14.0774 22.3369 14.0749 22.3335C14.0728 22.3307 14.0711 22.3277 14.0695 22.3245C14.0095 22.1918 13.9424 22.0539 13.8683 21.9109C13.8415 21.8592 13.8153 21.8039 13.7899 21.745C13.7655 21.6886 13.7382 21.6338 13.708 21.5808C13.6953 21.5584 13.6984 21.5375 13.6874 21.5165C13.5668 21.2829 13.4725 21.0919 13.4046 20.9436C13.3534 20.8322 13.3064 20.7329 13.2633 20.6455C13.1954 20.5081 13.1473 20.4089 13.119 20.348C13.0403 20.1791 12.9589 20.0094 12.8749 19.839C12.8029 19.6933 12.73 19.5414 12.6564 19.3833C12.5627 19.1828 12.4563 18.9787 12.3631 18.7758C12.2882 18.6127 12.2047 18.4375 12.1126 18.2501C12.1034 18.2312 12.0939 18.213 12.0843 18.1954Z" fill="#76787B"/>
<path d="M20.3844 22.2231C20.3715 22.2572 20.358 22.2914 20.3439 22.3256C20.2255 22.61 20.1075 22.866 19.9897 23.0935C19.9188 23.2307 19.7798 23.4839 19.5728 23.8531C19.4714 24.0337 19.3825 24.2021 19.3061 24.3583C19.1372 24.703 18.9937 25.0459 18.8755 25.3871C18.7485 25.7539 18.6738 26.1507 18.6513 26.5774C18.6506 26.5921 18.6473 26.6071 18.6414 26.6224C18.6373 26.6334 18.6377 26.644 18.6426 26.6544C18.6547 26.6796 18.6423 26.7006 18.6417 26.7257C18.634 27.1738 18.6835 27.6047 18.7903 28.0186C18.8819 28.372 19.0242 28.7019 19.2172 29.0082C19.227 29.0239 19.2231 29.0293 19.2053 29.0244C18.9777 28.9609 18.7634 28.8747 18.5624 28.7656C17.8934 28.4025 17.3957 27.8761 17.0692 27.1863C16.9877 27.0144 16.9213 26.8344 16.8702 26.6462C16.7966 26.3756 16.7554 26.1115 16.7465 25.8539C16.7414 25.7065 16.7422 25.558 16.7488 25.4086C16.7575 25.1997 16.7952 24.9661 16.8402 24.7598C16.9419 24.294 17.0818 23.8542 17.26 23.4403C17.4089 23.0946 17.5287 22.8381 17.6195 22.6709C17.6856 22.549 17.746 22.439 17.801 22.3408C18.1127 21.7841 18.3805 21.3058 18.6043 20.9059C18.8116 20.5356 19.0037 20.1442 19.1807 19.7317C19.466 19.0667 19.7135 18.4309 19.8742 17.751C20.002 17.2107 20.0701 16.6681 20.0786 16.1233C20.0792 16.0899 20.0805 16.0563 20.0826 16.0225C20.0839 16.0008 20.0877 16.0003 20.0939 16.0211C20.0979 16.0341 20.1053 16.0448 20.1163 16.0531C20.121 16.0567 20.1246 16.0615 20.1268 16.067C20.129 16.0726 20.1297 16.0786 20.1287 16.0845C20.1261 16.0992 20.1315 16.1094 20.1449 16.1151C20.1539 16.1188 20.1605 16.1251 20.1647 16.1337C20.2607 16.3308 20.3603 16.5266 20.4633 16.7211C20.4837 16.7594 20.5106 16.7956 20.5299 16.8347C20.6289 17.0364 20.7459 17.2654 20.8809 17.5217C21.1119 17.9607 21.3319 18.3873 21.541 18.8015C21.9351 19.582 22.2977 20.3474 22.6289 21.0976C22.8899 21.6888 23.1253 22.291 23.3352 22.9042C23.3522 22.9536 23.3677 23.0032 23.3819 23.0531C23.3955 23.1014 23.4107 23.1513 23.4275 23.2028C23.5526 23.5869 23.651 23.9912 23.7227 24.4158C23.745 24.5483 23.7623 24.6992 23.7748 24.8685C23.7956 25.1464 23.7856 25.4266 23.7448 25.7089C23.6459 26.3968 23.4342 27.0224 23.1096 27.5857C22.8103 28.1055 22.4132 28.5253 21.8889 28.7792C21.8787 28.7839 21.8507 28.7932 21.8048 28.8069C21.7762 28.8156 21.7496 28.8296 21.7253 28.8488C21.7219 28.8515 21.7188 28.8512 21.716 28.848L21.7111 28.8426C21.711 28.8422 21.711 28.842 21.7111 28.8418C21.8208 28.7434 21.9123 28.6303 21.9857 28.5024C22.0888 28.3234 22.1709 28.121 22.232 27.8951C22.3805 27.3471 22.436 26.7986 22.3985 26.2496C22.3717 25.8576 22.2946 25.4455 22.1672 25.0131C22.1019 24.7908 22.0251 24.5705 21.9368 24.3521C21.5803 23.4717 21.111 22.6491 20.529 21.8842C20.5278 21.8826 20.5261 21.8813 20.5241 21.8805C20.5222 21.8798 20.5201 21.8796 20.5181 21.8799C20.516 21.8803 20.5141 21.8812 20.5125 21.8825C20.511 21.8839 20.5098 21.8857 20.5092 21.8876C20.4858 21.9633 20.4576 22.0411 20.4245 22.1209C20.4106 22.1545 20.3972 22.1885 20.3844 22.2231Z" fill="#5C8BB6"/>
<circle cx="20" cy="20" r="19.5" stroke="black" stroke-opacity="0.05"/>
</svg>
