<svg width="40" height="40" viewBox="0 0 40 40" fill="none" xmlns="http://www.w3.org/2000/svg">
<circle cx="20" cy="20" r="20" fill="#CF0E2D"/>
<g clip-path="url(#clip0_9_401817)">
<path d="M30.9267 22.4655C30.9267 22.4655 16.8531 29.0918 14.9668 30.0353C14.7421 30.1416 14.4774 30.1944 14.155 30.1986C13.8422 30.207 13.5311 30.1512 13.2406 30.0347C12.9796 29.9291 12.7428 29.7736 12.543 29.5781C12.3548 29.3826 12.1715 29.1131 12.0045 28.7706L8.04533 20.4497C7.65797 19.1905 8.03197 18.026 9.28572 17.414L24.9154 10.0032C26.1236 9.39914 27.4229 10.0961 27.9797 11.2115L31.8526 19.3684C32.1841 20.0909 32.1137 21.8966 30.9261 22.4655H30.9267ZM12.3305 23.1181C12.3305 23.1181 13.3918 21.7678 13.3918 21.7642C13.7403 22.5407 14.475 23.1345 15.3547 23.1345C16.6904 23.1345 17.5465 21.8899 17.572 20.6659V16.9647H16.3577V20.6373C16.3577 21.3088 16.1404 21.8352 15.4761 21.8352C14.7858 21.8352 14.5363 21.2706 14.5363 20.6003V16.9647H13.322V20.5882C13.322 21.3192 12.9984 21.8352 12.4149 21.8352C11.6402 21.8352 11.5006 21.0575 11.5006 20.4455V16.9647H10.2863V20.6046C10.2863 21.9512 10.8959 23.0161 12.3305 23.1181ZM23.3405 20.723C23.0836 20.7679 22.8875 20.8942 22.7042 21.066C22.608 21.1968 22.497 21.316 22.3733 21.4212C22.3697 21.4268 22.3656 21.432 22.3611 21.437L22.3654 21.4291C22.0128 21.7139 21.574 21.8708 21.1208 21.8741C20.6023 21.882 20.1165 21.6495 19.7699 21.3271L18.7213 21.8006L19.4195 20.8984C19.3048 20.6659 19.1621 20.3156 19.1621 19.9148C19.1658 18.8341 20.1008 17.9277 21.125 17.9683C21.5002 17.9847 21.72 18.0218 22.0181 18.1851L19.9374 20.8292L24.1364 18.842C23.7321 17.5889 22.4753 16.6915 21.1129 16.6915C19.3333 16.6915 17.8889 18.1359 17.8889 19.9155C17.8889 21.6944 19.3333 23.1515 21.1129 23.1394C22.6222 23.1309 23.8347 22.0781 24.185 20.9027C24.1243 20.8662 23.8705 20.6295 23.3405 20.723ZM23.2628 23.0362H24.9603L26.6421 20.9883L28.3233 23.0362H29.7155L29.8861 22.9554L27.4909 19.8991L29.8982 16.9647H28.2006L26.6421 18.8135L25.083 16.9647H23.3854L25.7933 19.8985L23.2628 23.0362Z" fill="white"/>
</g>
<circle cx="20" cy="20" r="19.5" stroke="black" stroke-opacity="0.05"/>
<defs>
<clipPath id="clip0_9_401817">
<rect width="26" height="22" fill="white" transform="translate(7 9)"/>
</clipPath>
</defs>
</svg>
