<svg width="40" height="40" viewBox="0 0 40 40" fill="none" xmlns="http://www.w3.org/2000/svg">
<circle cx="20" cy="20" r="20" fill="#955C46"/>
<path fill-rule="evenodd" clip-rule="evenodd" d="M32.9799 14.4895C31.5192 11.6365 28.4399 10.0206 25.0439 10.0003L6 10V11.0521L22.1239 11.0458C22.0854 11.0498 21.1155 11.1533 20.2803 11.4257C19.777 11.589 19.4086 11.7421 19.1551 11.8803C17.9347 12.0906 17.1836 12.4092 16.7547 12.6549C16.7127 12.6625 16.6723 12.6695 16.6316 12.6768C15.884 12.7999 14.8656 13.1123 14.2968 13.4361C13.8364 13.5063 13.3784 13.6115 12.9263 13.7558C12.8243 13.7879 12.7283 13.8201 12.6376 13.8528C12.6268 13.8573 12.616 13.8603 12.6052 13.8643L12.6002 13.8668C11.6436 14.2179 11.3207 14.583 11.3207 14.583C15.3245 13.1424 19.9084 14.7307 22.0731 18.5272C24.2386 22.3234 22.5043 27.0335 19.1928 29.6892C19.1928 29.6892 26.9925 25.1942 23.3702 17.8012C21.9467 14.896 18.9837 13.5819 15.8021 13.3369C19.2325 12.9552 22.7202 14.5845 24.5258 17.75C26.6913 21.5462 24.9565 26.2568 21.6455 28.9118C21.3522 29.1125 29.6126 24.6379 25.8226 17.0241C24.3806 14.1276 21.2912 12.6165 18.254 12.5595C21.6849 12.178 25.1294 13.6264 26.9782 16.9726C29.0914 20.7979 27.4089 25.4796 24.0981 28.1346C24.0981 28.1346 31.9707 23.8187 28.2758 16.2469C26.8566 13.3399 23.7451 11.8393 20.7082 11.7823C24.1383 11.4011 27.5667 12.8135 29.4309 16.1961C31.5396 20.023 29.8616 24.7024 26.55 27.3574C26.7089 27.2245 34.1973 22.9016 30.7277 15.4694C29.4723 12.7811 26.7543 11.488 23.9122 11.0506L24.4429 11.0521L24.4431 11.0526C24.4431 11.0526 30.1613 10.9516 32.2087 15.9954C33.7719 19.5287 31.8476 24.5067 29.199 26.2538C31.1599 25.5545 36.1295 20.6426 32.9799 14.4895Z" fill="white"/>
<circle cx="20" cy="20" r="19.5" stroke="black" stroke-opacity="0.05"/>
</svg>
