<svg width="40" height="40" viewBox="0 0 40 40" fill="none" xmlns="http://www.w3.org/2000/svg">
<circle cx="20" cy="20" r="20" fill="black"/>
<mask id="mask0_9_390123" style="mask-type:luminance" maskUnits="userSpaceOnUse" x="6" y="14" width="28" height="11">
<path d="M33.8828 14.124H6V24.9192H33.8828V14.124Z" fill="white"/>
</mask>
<g mask="url(#mask0_9_390123)">
<path d="M33.8825 14.124H32.3423C31.915 14.124 31.5156 14.3356 31.2758 14.6894L29.2159 17.728C29.1611 17.8085 29.0422 17.8085 28.9872 17.728L26.9275 14.6894C26.688 14.3356 26.2882 14.124 25.861 14.124H24.3208L27.99 19.5367L24.341 24.9192H25.8812C26.3085 24.9192 26.7079 24.7076 26.9477 24.3538L28.9872 21.3454C29.0422 21.2648 29.1611 21.2648 29.2159 21.3454L31.2554 24.3538C31.4949 24.7076 31.8948 24.9192 32.3221 24.9192H33.8622L30.2131 19.5367L33.8825 14.124Z" fill="white"/>
<path d="M21.1519 15.2283V24.9192H21.888C22.498 24.9192 22.9923 24.4249 22.9923 23.815V14.124H22.2562C21.6462 14.124 21.1519 14.6183 21.1519 15.2283Z" fill="white"/>
<path d="M19.8027 14.124H19.1477C18.4264 14.124 17.8015 14.6228 17.6417 15.3259L16.1763 21.7681L14.8936 15.7545C14.6563 14.6431 13.5159 13.8935 12.349 14.2159C11.6057 14.4211 11.0546 15.0491 10.8939 15.8031L9.62427 21.76L8.16152 15.3264C8.00125 14.6232 7.37635 14.124 6.6551 14.124H6.00049L8.45552 24.9188H9.38566C10.2298 24.9188 10.9592 24.3286 11.1352 23.503L12.7046 16.138C12.724 16.0466 12.8059 15.9805 12.8991 15.9805C12.9923 15.9805 13.0743 16.0466 13.0936 16.138L14.6644 23.5035C14.8405 24.3291 15.5698 24.9188 16.414 24.9188H17.3473L19.8027 14.124Z" fill="white"/>
</g>
<circle cx="20" cy="20" r="19.5" stroke="black" stroke-opacity="0.05"/>
</svg>
