<svg width="40" height="40" viewBox="0 0 40 40" fill="none" xmlns="http://www.w3.org/2000/svg">
<circle cx="20" cy="20" r="20" fill="#F6F8FA"/>
<g clip-path="url(#clip0_9_409212)">
<path d="M8.04541 12.7846C8.14857 12.3462 8.56728 12.0185 9.01785 12.0215C10.1572 12.017 11.298 12.0215 12.4373 12.0185C12.7407 12.0048 13.0472 12.1186 13.2565 12.3401C13.4538 12.5403 13.5144 12.8256 13.5994 13.0835C15.1043 17.6802 16.6123 22.2754 18.1157 26.8721C18.4677 25.8177 18.806 24.7603 19.1579 23.7075C19.3976 24.422 19.6297 25.1396 19.8634 25.8572C19.6221 26.7264 19.3036 27.5745 19.0381 28.4362C18.9273 28.8048 18.5708 29.0991 18.1794 29.0915C16.7564 29.0915 15.3334 29.0931 13.9104 29.09C13.4826 29.0855 13.0912 28.7714 12.9789 28.3618C11.3951 23.533 9.81431 18.7042 8.23049 13.8754C8.12126 13.5234 7.9377 13.1593 8.04541 12.7846ZM22.8808 12.3371C22.9203 12.202 22.9946 12.0503 23.1508 12.0276C23.4482 12.0139 23.7486 12.0079 24.0474 12.0321C24.2598 12.0685 24.3357 12.3234 24.2553 12.5039C23.7349 14.0953 23.2191 15.6883 22.6881 17.2781C22.4484 16.5515 22.2087 15.8263 21.9721 15.0996C22.2816 14.1803 22.5789 13.2579 22.8808 12.3371Z" fill="#09B5E7"/>
<path d="M15.7568 12.7808C15.8615 12.3287 16.312 12.0025 16.7732 12.0192C17.9125 12.0177 19.0534 12.0192 20.1942 12.0177C20.5097 12.0147 20.8329 12.1543 21.0256 12.4091C21.1879 12.6185 21.2379 12.884 21.3229 13.1282C21.5429 13.7836 21.7507 14.4435 21.9722 15.0989C22.2089 15.8256 22.4486 16.5507 22.6883 17.2774C23.7259 20.4769 24.7818 23.6703 25.8271 26.8698C27.4215 22.0213 29.0068 17.1697 30.5967 12.3181C30.6301 12.1725 30.7363 12.0253 30.9001 12.0238C31.1778 12.0147 31.4584 12.0101 31.736 12.0268C31.9666 12.0526 32.0607 12.3333 31.9606 12.5229C30.2175 17.8402 28.4759 23.1575 26.7328 28.4733C26.6175 28.845 26.2382 29.106 25.8498 29.0923C24.4541 29.0893 23.0569 29.0908 21.6612 29.0908C21.2304 29.1044 20.8223 28.795 20.6979 28.3884C20.4172 27.5449 20.1502 26.6969 19.8635 25.8564C19.6299 25.1388 19.3977 24.4213 19.158 23.7067C18.0976 20.4329 17.0144 17.1666 15.9479 13.8943C15.8342 13.5363 15.6536 13.1646 15.7568 12.7808Z" fill="#3A5896"/>
</g>
<circle cx="20" cy="20" r="19.5" stroke="black" stroke-opacity="0.05"/>
<defs>
<clipPath id="clip0_9_409212">
<rect width="24" height="17.0973" fill="white" transform="translate(8 12)"/>
</clipPath>
</defs>
</svg>
