<svg width="40" height="40" viewBox="0 0 40 40" fill="none" xmlns="http://www.w3.org/2000/svg">
<circle cx="20" cy="20" r="20" fill="black"/>
<g clip-path="url(#clip0_9_409722)">
<mask id="mask0_9_409722" style="mask-type:luminance" maskUnits="userSpaceOnUse" x="-8" y="-10" width="196" height="110">
<path d="M-7.61035 -9.96875H187.644V99.766H-7.61035V-9.96875Z" fill="white"/>
</mask>
<g mask="url(#mask0_9_409722)">
<path d="M11.4982 15.0771L8.08068 24.6884H6.95215L10.3697 15.0771H11.4982Z" fill="#87CD26"/>
<path fill-rule="evenodd" clip-rule="evenodd" d="M34.2979 21.6623C34.2772 23.4604 32.6803 24.7714 30.4741 24.7714C28.7343 24.7714 27.3424 23.9889 26.7518 22.7795C26.6089 22.9827 26.4471 23.1651 26.2741 23.3476C25.3901 24.2316 24.1694 24.6999 22.7343 24.6999H17.9963L17.2741 22.6986H14.0803L13.3694 24.6999H10.8565L14.3963 15.0773H17.0709L19.3073 21.2353V15.0773H22.7343C24.1694 15.0773 25.3901 15.5457 26.2741 16.4297C26.4709 16.6253 26.6471 16.8385 26.8026 17.0692C27.2502 15.8297 28.5819 15.0059 30.3104 15.0059C32.4678 15.0059 34.0647 16.2961 34.1042 18.0943L34.1154 18.3181H31.7549L31.7343 18.115C31.6647 17.4341 31.1248 16.9977 30.3104 16.9977C29.9343 16.9977 29.0709 17.0899 29.0709 17.8516C29.0709 18.4008 29.5788 18.5419 31.1455 18.8372C32.6803 19.1118 34.2979 19.5896 34.2979 21.6623ZM25.1549 19.8943C25.1549 18.177 24.2502 17.1501 22.7343 17.1501H21.728V22.6272H22.7343C24.2502 22.6272 25.1549 21.6002 25.1549 19.8943ZM16.4296 20.372C16.4296 19.9131 15.6678 18.0435 15.6678 18.0435C15.6678 18.0435 14.9042 19.8943 14.9042 20.372C14.9042 21.051 15.6678 21.0115 15.6678 21.0115C15.6678 21.0115 16.4296 21.051 16.4296 20.372ZM31.8678 21.8842C31.8678 21.3162 31.3487 21.1733 29.7518 20.8592C28.9487 20.7068 28.1756 20.5037 27.6057 20.0767C27.585 20.4736 27.5455 20.8686 27.4327 21.2541L28.7963 21.2748L28.8057 21.4686C28.8678 22.2811 29.5186 22.7795 30.4948 22.7795C31.1662 22.7795 31.8678 22.5463 31.8678 21.8842ZM13.4408 15.0773L10.0233 24.6886H8.89475L12.3217 15.0773H13.4408ZM9.55494 15.0773L6.12798 24.6886H5.01074L8.42642 15.0773H9.55494ZM34.5819 24.7714L34.3995 24.2617H34.3901L34.3995 24.3839V24.7714H34.2772V24.1093H34.4615L34.6327 24.6284L34.817 24.1093H34.9901V24.7714H34.8772V24.2617L34.6741 24.7714H34.5819ZM34.0233 24.7714H33.901V24.2109H33.7186V24.1093H34.2264V24.2109H34.0233V24.7714Z" fill="white"/>
</g>
</g>
<circle cx="20" cy="20" r="19.5" stroke="black" stroke-opacity="0.05"/>
<defs>
<clipPath id="clip0_9_409722">
<rect width="30" height="9.78056" fill="white" transform="translate(5 15)"/>
</clipPath>
</defs>
</svg>
