<svg width="40" height="40" viewBox="0 0 40 40" fill="none" xmlns="http://www.w3.org/2000/svg">
<circle cx="20" cy="20" r="20" fill="white"/>
<circle cx="20" cy="20" r="20" fill="white"/>
<circle cx="20" cy="20" r="19.5" stroke="black" stroke-opacity="0.05"/>
<circle cx="20" cy="20" r="20" fill="#0076BE"/>
<circle cx="20" cy="20" r="19.5" stroke="black" stroke-opacity="0.05"/>
<path d="M19.999 16.7314C20.4701 16.7314 20.8611 16.4873 20.9152 16.1738L21.3823 10.9407C21.3823 10.4247 20.7709 10 20.001 10C19.2312 10 18.6218 10.4247 18.6218 10.9407L19.0889 16.1738C19.139 16.4873 19.5299 16.7314 20.003 16.7314" fill="#F9C009"/>
<path d="M17.1415 18.3649C17.3781 17.96 17.3601 17.5036 17.1095 17.3012L12.7652 14.2847C12.3141 14.0267 11.6365 14.3383 11.2516 14.9991C10.8667 15.658 10.9328 16.3943 11.3859 16.6522L16.1953 18.8689C16.498 18.9801 16.907 18.7677 17.1435 18.3629" fill="#F9C009"/>
<path d="M22.8574 18.3657C23.096 18.7706 23.503 18.9829 23.8037 18.8718L28.6151 16.6551C29.0681 16.3971 29.1323 15.6608 28.7474 15.002C28.3625 14.3431 27.6849 14.0316 27.2338 14.2876L22.8895 17.304C22.6409 17.5064 22.6249 17.9629 22.8594 18.3677" fill="#F9C009"/>
<path d="M19.9991 23.2666C20.4702 23.2666 20.8611 23.5107 20.9153 23.8242L21.3824 29.0574C21.3824 29.5753 20.7709 30 20.0011 30C19.2313 30 18.6218 29.5753 18.6218 29.0574L19.0889 23.8242C19.139 23.5107 19.53 23.2666 20.0031 23.2666" fill="#F9C009"/>
<path d="M22.8574 21.6361C23.096 21.2293 23.503 21.0189 23.8037 21.1301L28.6151 23.3468C29.0681 23.6048 29.1323 24.343 28.7474 25.0018C28.3625 25.6607 27.6849 25.9723 27.2338 25.7143L22.8895 22.6978C22.6409 22.4954 22.6249 22.039 22.8594 21.6341" fill="#F9C009"/>
<path d="M17.1415 21.6329C17.3781 22.0378 17.3601 22.4942 17.1095 22.6966L12.7652 25.7111C12.3141 25.9691 11.6365 25.6575 11.2516 24.9987C10.8667 24.3398 10.9328 23.6016 11.3859 23.3416L16.1953 21.1269C16.498 21.0138 16.907 21.2261 17.1435 21.6329" fill="#F9C009"/>
<circle cx="20" cy="20" r="19.5" stroke="black" stroke-opacity="0.05"/>
</svg>
