<svg width="40" height="40" viewBox="0 0 40 40" fill="none" xmlns="http://www.w3.org/2000/svg">
<circle cx="20" cy="20" r="20" fill="#FF3818"/>
<g clip-path="url(#clip0_9_409810)">
<mask id="mask0_9_409810" style="mask-type:luminance" maskUnits="userSpaceOnUse" x="-35" y="-54" width="110" height="149">
<path d="M-34.4131 -53.9961H74.4682V94.0141H-34.4131V-53.9961Z" fill="white"/>
</mask>
<g mask="url(#mask0_9_409810)">
<path d="M5 35.0134H34.9848V5.00488H5V35.0134Z" fill="#FF3818"/>
<path fill-rule="evenodd" clip-rule="evenodd" d="M29.4443 20.9398C27.9803 20.9398 26.9104 21.9888 26.9104 23.4671C26.9104 24.953 27.9736 25.9954 29.4443 25.9954C30.9235 25.9954 31.9791 24.953 31.9791 23.4671C31.9791 21.9888 30.9159 20.9398 29.4443 20.9398ZM29.4443 25.3754C28.5181 25.3754 28.0275 24.6797 28.0275 23.4671C28.0275 22.2621 28.5248 21.5597 29.4443 21.5597C30.3649 21.5597 30.862 22.2621 30.862 23.4671C30.862 24.6797 30.3716 25.3754 29.4443 25.3754ZM24.3216 23.6855C24.3216 23.8215 24.3415 23.9103 24.3963 24.0192H25.2073V25.2251C24.9417 25.3347 24.6751 25.3821 24.403 25.3821C23.4218 25.3821 22.9115 24.6806 22.9115 23.468C22.9115 22.2554 23.4218 21.5532 24.3491 21.5532C24.9681 21.5532 25.3292 21.8593 25.5409 22.3915L25.6156 22.5825H26.106V21.3623C25.4926 21.0693 24.9417 20.9398 24.3008 20.9398C22.8017 20.9398 21.7944 21.9416 21.7944 23.4747C21.7944 25.0143 22.7744 25.9954 24.3008 25.9954C24.9068 25.9954 25.5343 25.8253 26.2082 25.4907V23.3651H24.3963C24.3415 23.4747 24.3216 23.5559 24.3216 23.6855ZM21.3577 25.3347C21.0439 25.3347 20.9626 25.1571 20.9209 24.762L20.8946 24.5096C20.8331 23.9718 20.5808 23.6241 19.9608 23.5767V23.5559C20.5741 23.5286 21.2074 23.1203 21.2074 22.3509C21.2074 21.574 20.5741 21.0901 19.5996 21.0901H16.8616V21.6827H17.44V25.2667H16.4995L14.7965 21.0901H13.89L12.2209 25.2667H11.7445V25.8593H13.5499V25.2667H12.9779L13.2907 24.4141H15.0619L15.3759 25.2667H14.8173V25.8593H19.1026V25.2667H18.455V23.815H18.8302C19.5798 23.815 19.8038 24.0805 19.8861 24.7685L19.9134 25.0078C19.9881 25.641 20.3085 25.9132 20.9692 25.9132C21.16 25.9132 21.351 25.9 21.5003 25.8792C21.541 25.8045 21.5618 25.7157 21.5618 25.6003C21.5618 25.4841 21.541 25.3953 21.5003 25.3206C21.4596 25.3271 21.4115 25.3347 21.3577 25.3347ZM13.5092 23.8358L14.1764 22.0304L14.8446 23.8358H13.5092ZM19.2593 23.2158H18.455V21.6827H19.2593C19.8718 21.6827 20.179 21.9483 20.179 22.4454C20.179 22.936 19.8653 23.2158 19.2593 23.2158ZM11.117 21.6827C11.5734 21.6827 11.7304 21.8802 11.8806 22.453L11.9278 22.6364H12.4184V21.0901H8.31072V21.6827H8.88918V25.2667H8.31072V25.8593H10.5857V25.2667H9.90435V23.8763H11.3079C11.3627 23.76 11.3835 23.6722 11.3835 23.5362C11.3835 23.4067 11.3627 23.3244 11.3079 23.2091H9.90435V21.6827H11.117ZM31.8157 17.3019C31.8157 16.5524 31.3593 16.0345 30.5011 15.8369L29.6352 15.6394C29.1315 15.5231 28.9206 15.3257 28.9206 14.992C28.9206 14.5902 29.2401 14.338 29.8669 14.338C30.4944 14.338 30.862 14.5629 31.0048 15.094L31.0661 15.3257H31.5567V14.147C31.0048 13.8682 30.4188 13.7246 29.8262 13.7246C28.6617 13.7246 27.9123 14.2832 27.9123 15.1828C27.9123 15.8776 28.3479 16.3889 29.1863 16.5723L30.0512 16.7632C30.603 16.886 30.8072 17.1034 30.8072 17.4654C30.8072 17.9077 30.4736 18.1535 29.8063 18.1535C29.0503 18.1535 28.6617 17.8529 28.4915 17.2811L28.4027 16.9882H27.9123V18.3236C28.5322 18.6299 29.1248 18.7659 29.9217 18.7659C31.0661 18.7659 31.8157 18.1941 31.8157 17.3019ZM27.4548 17.0014H26.9652L26.9104 17.2405C26.7744 17.8464 26.5834 18.0372 26.1335 18.0372H25.1865V14.4543H25.8339V13.8615H23.5929V14.4543H24.1713V18.0372H23.5929V18.6299H27.4548V17.0014ZM23.1629 17.0014H22.6723L22.6184 17.2405C22.4815 17.8464 22.2915 18.0372 21.8416 18.0372H20.8946V14.4543H21.5419V13.8615H19.3V14.4543H19.8794V18.0372H19.3V18.6299H23.1629V17.0014ZM10.2456 18.6299L11.2398 15.1687L12.2076 18.6299H13.1547L14.3466 14.4543H15.2869V18.0372H14.7084V18.6299H18.8029V17.0014H18.3123L18.2575 17.2405C18.1214 17.8464 17.9239 18.0372 17.4807 18.0372H16.3021V16.5591H17.6715C17.7265 16.4428 17.7461 16.3549 17.7461 16.2179C17.7461 16.0893 17.7265 16.007 17.6715 15.8917H16.3021V14.4543H17.4333C17.8899 14.4543 18.0458 14.6517 18.196 15.2235L18.2443 15.4078H18.7349V13.8615H12.9571V14.4543H13.6243L12.8408 17.3359L11.8665 13.8615H10.8853L9.93165 17.3283L9.13494 14.4543H9.77487V13.8615H7.55469V14.4543H8.09915L9.2984 18.6299H10.2456Z" fill="white"/>
</g>
</g>
<circle cx="20" cy="20" r="19.5" stroke="black" stroke-opacity="0.05"/>
<defs>
<clipPath id="clip0_9_409810">
<rect x="5" y="5" width="30" height="30.0186" rx="15" fill="white"/>
</clipPath>
</defs>
</svg>
