<svg width="40" height="40" viewBox="0 0 40 40" fill="none" xmlns="http://www.w3.org/2000/svg">
<circle cx="20" cy="20" r="20" fill="#F6F8FA"/>
<g clip-path="url(#clip0_9_408940)">
<path d="M11.4507 14C13.4541 14 15.456 14.0016 17.4578 14C18.0961 15.1629 18.736 16.3226 19.3743 17.4855C19.0046 18.1543 18.6344 18.8232 18.2636 19.492C17.5795 18.2628 16.9064 17.0257 16.2222 15.7964C14.9614 15.798 13.7006 15.7964 12.4382 15.7964C12.1095 15.1992 11.7777 14.6004 11.4507 14ZM29.777 14.0016C30.5164 14 31.2558 14.0016 31.9953 14C30.3062 17.0762 28.6125 20.1509 26.9203 23.2255C25.8222 25.2163 24.7352 27.2134 23.6292 29.1995C23.3306 28.7065 23.0667 28.1914 22.7823 27.6906C22.0603 26.3808 21.3319 25.0773 20.6146 23.7659C20.9875 23.0991 21.3525 22.4292 21.7238 21.7641C22.3558 22.9064 22.9877 24.0503 23.615 25.1958C25.669 21.4639 27.7261 17.7335 29.777 14.0016Z" fill="#7E8083"/>
<path d="M8 14.0016C8.73627 14 9.47097 14 10.2072 14.0016C12.2596 17.7319 14.312 21.4654 16.3708 25.1958C18.4216 21.4623 20.4772 17.7319 22.5296 14C24.5314 14.0016 26.5348 14 28.5367 14.0016C28.208 14.5999 27.8789 15.1982 27.5492 15.7964C26.2852 15.7964 25.0212 15.7964 23.7572 15.7964C21.3019 20.2646 18.8419 24.7313 16.3866 29.1995H16.3708C13.5774 24.1435 10.7918 19.0828 8 14.0253V14.0016Z" fill="#BB9A53"/>
</g>
<circle cx="20" cy="20" r="19.5" stroke="black" stroke-opacity="0.05"/>
<defs>
<clipPath id="clip0_9_408940">
<rect width="24" height="15.1995" fill="white" transform="translate(8 14)"/>
</clipPath>
</defs>
</svg>
