<svg width="40" height="40" viewBox="0 0 40 40" fill="none" xmlns="http://www.w3.org/2000/svg">
<circle cx="20" cy="20" r="20" fill="#105842"/>
<path d="M24.6657 20.2944C24.9171 20.2415 25.1818 20.1621 25.4729 20.215C25.0494 21.1282 25.0759 22.1075 25.1156 23.0735C25.1421 23.722 25.1686 24.3572 25.023 24.9924C24.7451 26.2629 23.9643 27.0437 22.535 27.0437C22.2836 27.0437 22.0454 27.0569 21.7939 27.0437C21.4896 27.0304 21.2249 27.0701 21.0396 27.3348C20.9602 27.4671 20.894 27.401 20.8279 27.3216C20.6558 27.0966 20.4309 27.0304 20.1529 27.0437C19.6368 27.0569 19.1075 27.0834 18.6046 26.9643C17.6518 26.726 17.1621 26.0379 16.9107 25.1512C16.818 24.8336 16.7783 24.5028 16.7783 24.1719C16.7783 23.4838 16.7651 22.7824 16.7783 22.0942C16.8048 21.5252 16.7122 20.9561 16.5137 20.4268C16.4343 20.2415 16.4343 20.1621 16.6857 20.1886C16.9371 20.215 17.1753 20.3077 17.4268 20.3341C17.493 20.3474 17.5327 20.4268 17.6253 20.4003L17.8238 20.4665L17.9561 20.5326L18.4193 20.8502C19.2133 21.3928 19.9809 21.9883 20.7485 22.5839C20.8411 22.65 20.9205 22.7956 21.0925 22.6633C21.913 22.0281 22.7335 21.4193 23.5673 20.7973L23.6334 20.7444C23.7525 20.7047 23.8716 20.6385 23.9775 20.5459L24.2025 20.44L24.6657 20.2944ZM19.0545 23.6161C19.6765 23.3514 19.928 23.5235 19.9412 24.1719V24.1984C19.9412 24.6351 19.703 24.8733 19.2795 24.8733C18.9354 24.8733 18.7237 24.6086 18.7237 24.2116C18.7237 23.5499 18.7237 22.8882 18.7237 22.2398C18.7105 21.684 18.234 21.234 17.7179 21.3002C17.9164 21.9486 17.8106 22.6103 17.8106 23.2588C17.8106 23.8146 17.7179 24.3837 17.89 24.9263C18.062 25.4688 18.4193 25.8923 18.9884 26.0379C19.5177 26.1702 19.9941 25.9982 20.3647 25.6012C20.9205 25.0057 21.0925 23.7087 20.6823 23.0206C20.5103 22.6765 20.1397 22.4912 19.7559 22.5574C19.4648 22.5839 19.2133 22.7956 19.1472 23.0735C19.1075 23.2588 19.081 23.4308 19.0545 23.6161ZM24.2422 21.3002C23.7261 21.2737 23.2894 21.6575 23.2629 22.1736C23.2629 22.2001 23.2629 22.2266 23.2629 22.253C23.2629 22.9147 23.2629 23.5764 23.2629 24.2381C23.2629 24.5292 23.157 24.7807 22.8526 24.8866C22.5747 24.966 22.2704 24.8601 22.0983 24.6219C21.966 24.3969 22.0057 23.8146 22.191 23.6293C22.4159 23.3779 22.6409 23.5102 22.8659 23.6558C22.8923 23.0603 22.6674 22.6633 22.2704 22.5971C21.7542 22.5177 21.3308 22.7824 21.1719 23.3647C20.9999 23.9602 21.0396 24.5954 21.2778 25.1645C21.5557 25.8129 22.0983 26.157 22.76 26.1173C23.3158 26.0908 23.8319 25.6673 24.0437 25.0586C24.1893 24.6219 24.1363 24.1852 24.1496 23.7352C24.176 22.8882 24.0569 22.081 24.2422 21.3002ZM20.9867 26.8319C21.0661 26.7128 21.1322 26.5937 21.1984 26.4614C21.3043 26.1967 21.3572 25.9453 21.1455 25.6938C20.9867 25.5085 20.894 25.5615 20.7749 25.7203C20.5764 26.0114 20.6294 26.3687 20.9867 26.8319ZM22.6674 24.3572C22.7468 24.3704 22.7865 24.291 22.7997 24.2116C22.8129 24.1322 22.76 24.0528 22.6806 24.0396C22.6674 24.0396 22.6541 24.0396 22.6277 24.0396C22.5483 24.0396 22.4821 24.0661 22.4821 24.1587C22.4821 24.2381 22.4953 24.344 22.6674 24.3572ZM19.3325 24.0264C19.253 24.0264 19.1736 24.0793 19.1736 24.1719C19.1736 24.1719 19.1736 24.1719 19.1736 24.1852C19.1472 24.2513 19.1869 24.3307 19.2663 24.344C19.2795 24.344 19.2927 24.344 19.306 24.344C19.3854 24.3572 19.4648 24.3043 19.478 24.2249C19.478 24.2116 19.478 24.1984 19.478 24.1719C19.4913 24.0925 19.4251 24.0264 19.3457 24.0131C19.3457 24.0264 19.3457 24.0264 19.3325 24.0264Z" fill="white"/>
<path d="M18.3398 20.2681C18.3663 20.2284 18.3928 20.149 18.4192 20.149C18.5913 20.1357 18.7633 20.1357 18.9221 20.1357C20.3646 20.1357 21.8071 20.1357 23.2496 20.1357C23.3819 20.1357 23.5275 20.0696 23.6201 20.2284L23.1437 20.5989C22.5085 21.0753 21.86 21.5385 21.238 22.0282C21.0395 22.187 20.9072 22.1737 20.7219 22.0282C19.9279 21.4459 19.1339 20.8636 18.3398 20.2681Z" fill="white"/>
<path d="M27.9078 17.3695C28.5033 18.1106 28.9797 18.9179 29.3502 19.7913C30.581 22.8351 30.0384 26.3156 27.9342 28.8432C26.8623 30.1666 25.4463 31.1459 23.8317 31.6885C21.2512 32.5487 18.4191 32.1914 16.1297 30.7224C13.5226 29.055 11.961 26.17 12.0007 23.0733C12.0007 18.1503 12.0007 13.2273 12.0007 8.31761C12.0007 8.06617 12.0669 8 12.3183 8C13.1388 8.01323 13.9593 8.01323 14.7798 8C14.9783 8 15.018 8.05293 15.018 8.23821C15.0048 10.8585 15.0048 13.492 15.018 16.1123V16.3902C15.2298 16.3108 15.3489 16.1388 15.5077 16.0329C16.7252 15.0933 18.1809 14.4713 19.7028 14.2596C20.2719 14.1802 20.8541 14.1405 21.4364 14.1669C22.7598 14.2331 24.0567 14.5904 25.2213 15.2124C26.0815 15.6756 26.8623 16.2711 27.5504 16.9593L27.9078 17.3695ZM20.9865 17.1445C17.7045 17.0916 14.9519 19.8575 14.9651 23.1659C14.9916 26.4744 17.678 29.1476 20.9997 29.1741C24.2552 29.1741 27.0211 26.4347 27.0079 23.113C26.9946 19.8972 24.1758 17.0784 20.9865 17.1445Z" fill="white"/>
<circle cx="20" cy="20" r="19.5" stroke="black" stroke-opacity="0.05"/>
</svg>
