<svg width="40" height="40" viewBox="0 0 40 40" fill="none" xmlns="http://www.w3.org/2000/svg">
<circle cx="20" cy="20" r="20" fill="#007448"/>
<path d="M5.88175 16.8493C5.87727 16.8493 5.87284 16.8502 5.8687 16.8519C5.86457 16.8536 5.86081 16.8561 5.85764 16.8593C5.85448 16.8624 5.85196 16.8662 5.85025 16.8703C5.84854 16.8745 5.84766 16.8789 5.84766 16.8834V23.9005C5.84766 23.9096 5.85125 23.9182 5.85764 23.9246C5.86404 23.931 5.87271 23.9346 5.88175 23.9346L34.1148 23.934C34.1239 23.934 34.1326 23.9304 34.139 23.924C34.1453 23.9176 34.1489 23.9089 34.1489 23.8999V16.8827C34.1489 16.8737 34.1453 16.865 34.139 16.8586C34.1326 16.8522 34.1239 16.8486 34.1148 16.8486L5.88175 16.8493Z" fill="#007448"/>
<path d="M35 24.746C35 24.7557 34.9961 24.7651 34.9892 24.772C34.9824 24.7789 34.973 24.7827 34.9633 24.7827H5.03671C5.02698 24.7827 5.01764 24.7789 5.01075 24.772C5.00387 24.7651 5 24.7557 5 24.746V16.0367C5 16.027 5.00387 16.0176 5.01075 16.0108C5.01764 16.0039 5.02698 16 5.03671 16H34.9633C34.973 16 34.9824 16.0039 34.9892 16.0108C34.9961 16.0176 35 16.027 35 16.0367V24.746ZM5.88181 16.849C5.87734 16.849 5.8729 16.8499 5.86877 16.8516C5.86463 16.8533 5.86087 16.8559 5.85771 16.859C5.85454 16.8622 5.85203 16.8659 5.85032 16.8701C5.8486 16.8742 5.84772 16.8786 5.84772 16.8831V23.9003C5.84772 23.9093 5.85131 23.918 5.85771 23.9244C5.8641 23.9308 5.87277 23.9344 5.88181 23.9344L34.1149 23.9337C34.124 23.9337 34.1326 23.9301 34.139 23.9237C34.1454 23.9173 34.149 23.9086 34.149 23.8996V16.8825C34.149 16.8734 34.1454 16.8648 34.139 16.8584C34.1326 16.852 34.124 16.8484 34.1149 16.8484L5.88181 16.849Z" fill="white"/>
<path d="M24.5215 19.4306C23.7629 19.2713 23.226 19.9177 23.3879 20.6356C23.4854 21.0649 23.7581 21.309 24.2061 21.368C24.6211 21.423 25.0211 21.1975 25.1424 20.7799C25.1435 20.7756 25.1456 20.7715 25.1484 20.768C25.1512 20.7645 25.1546 20.7615 25.1586 20.7593C25.1626 20.7571 25.1669 20.7557 25.1715 20.7552C25.176 20.7547 25.1806 20.7551 25.185 20.7563L25.8045 20.93C25.812 20.9322 25.8189 20.9358 25.8249 20.9407C25.831 20.9456 25.836 20.9516 25.8396 20.9585C25.8433 20.9653 25.8455 20.9728 25.8463 20.9805C25.847 20.9883 25.8462 20.996 25.8439 21.0034C25.5869 21.8217 24.8467 22.2085 24.0357 22.08C23.0916 21.9298 22.5225 21.1634 22.6051 20.2108C22.7074 19.0267 23.8927 18.4052 24.9483 18.7947C25.3609 18.9468 25.6511 19.2527 25.819 19.7125C25.8223 19.7219 25.8236 19.7319 25.823 19.7418C25.8224 19.7517 25.8199 19.7614 25.8154 19.7703C25.811 19.7791 25.8049 19.787 25.7974 19.7934C25.7899 19.7998 25.7812 19.8047 25.7718 19.8076L25.1784 19.9958C25.1687 19.9988 25.1583 19.998 25.1493 19.9936C25.1402 19.9892 25.1333 19.9815 25.1299 19.9722C25.0215 19.6741 24.8187 19.4935 24.5215 19.4306Z" fill="white"/>
<path d="M20.6938 19.3969C20.4053 19.5339 20.4598 19.9181 20.7849 19.981C20.9838 20.0195 21.1798 20.0604 21.373 20.1037C21.9697 20.2367 22.3807 20.7724 22.1617 21.3782C21.9172 22.0528 21.1573 22.2095 20.5214 22.0325C20.0589 21.904 19.7705 21.5924 19.656 21.0976C19.6532 21.0853 19.6554 21.0725 19.662 21.0618C19.6686 21.0511 19.6792 21.0435 19.6914 21.0405L20.2952 20.8943C20.3012 20.8928 20.3074 20.8926 20.3135 20.8937C20.3196 20.8948 20.3254 20.8972 20.3306 20.9007C20.3357 20.9042 20.3401 20.9088 20.3433 20.9142C20.3466 20.9195 20.3488 20.9255 20.3496 20.9317C20.4086 21.4031 20.9167 21.5473 21.2983 21.3867C21.3962 21.3456 21.4519 21.2755 21.4655 21.1763C21.493 20.973 21.3923 20.8471 21.1632 20.7986C20.9788 20.7597 20.7954 20.7226 20.6132 20.6872C19.9903 20.5659 19.631 20.0066 19.8467 19.3884C19.9811 19.0042 20.3798 18.7419 20.7889 18.696C21.4183 18.6259 21.9795 18.8757 22.1545 19.5057C22.1584 19.5197 22.1565 19.5347 22.1494 19.5473C22.1423 19.56 22.1305 19.5693 22.1165 19.5733L21.5409 19.7385C21.5358 19.74 21.5304 19.7404 21.5251 19.7398C21.5198 19.7392 21.5147 19.7375 21.51 19.7349C21.5054 19.7322 21.5013 19.7287 21.498 19.7245C21.4948 19.7203 21.4924 19.7154 21.491 19.7103C21.3927 19.349 20.9921 19.2553 20.6938 19.3969Z" fill="white"/>
<path d="M29.5774 20.3903C29.5774 20.6162 29.5329 20.8399 29.4465 21.0486C29.36 21.2574 29.2333 21.447 29.0735 21.6068C28.9138 21.7665 28.7241 21.8932 28.5154 21.9797C28.3067 22.0661 28.083 22.1106 27.8571 22.1106C27.4008 22.1106 26.9632 21.9294 26.6406 21.6068C26.318 21.2841 26.1367 20.8465 26.1367 20.3903C26.1367 19.934 26.318 19.4964 26.6406 19.1738C26.9632 18.8512 27.4008 18.6699 27.8571 18.6699C28.083 18.6699 28.3067 18.7144 28.5154 18.8009C28.7241 18.8873 28.9138 19.0141 29.0735 19.1738C29.2333 19.3336 29.36 19.5232 29.4465 19.7319C29.5329 19.9406 29.5774 20.1644 29.5774 20.3903ZM27.8571 21.3829C28.1106 21.3829 28.3537 21.278 28.533 21.0912C28.7123 20.9044 28.813 20.6511 28.813 20.387C28.813 20.2562 28.7882 20.1267 28.7402 20.0059C28.6922 19.8851 28.6218 19.7753 28.533 19.6828C28.4442 19.5903 28.3389 19.517 28.2229 19.4669C28.1069 19.4169 27.9826 19.3911 27.8571 19.3911C27.7315 19.3911 27.6072 19.4169 27.4913 19.4669C27.3753 19.517 27.2699 19.5903 27.1812 19.6828C27.0924 19.7753 27.022 19.8851 26.9739 20.0059C26.9259 20.1267 26.9012 20.2562 26.9012 20.387C26.9012 20.6511 27.0019 20.9044 27.1812 21.0912C27.3604 21.278 27.6036 21.3829 27.8571 21.3829Z" fill="white"/>
<path d="M11.0677 20.7788L11.5771 18.7687C11.5783 18.7639 11.5809 18.7597 11.5847 18.7566C11.5885 18.7535 11.5932 18.7518 11.5981 18.7516L12.3226 18.751C12.326 18.751 12.3294 18.7517 12.3325 18.7532C12.3356 18.7548 12.3383 18.757 12.3404 18.7597C12.3425 18.7624 12.3439 18.7656 12.3446 18.769C12.3452 18.7724 12.3451 18.7759 12.3442 18.7792L11.463 22.0134C11.4617 22.0181 11.4589 22.0223 11.455 22.0252C11.4511 22.0282 11.4463 22.0298 11.4414 22.0297H10.7084C10.7036 22.0298 10.6989 22.0283 10.695 22.0255C10.6911 22.0227 10.6882 22.0186 10.6868 22.014L10.0141 19.9265C10.0126 19.9222 10.0097 19.9185 10.006 19.9158C10.0022 19.9132 9.99773 19.9118 9.99314 19.9118C9.98855 19.9118 9.98407 19.9132 9.98031 19.9158C9.97656 19.9185 9.97371 19.9222 9.97216 19.9265L9.29949 22.0147C9.29807 22.0193 9.2952 22.0233 9.2913 22.0261C9.2874 22.029 9.28268 22.0305 9.27786 22.0304L8.54421 22.0297C8.53931 22.0298 8.53452 22.0282 8.53061 22.0252C8.5267 22.0223 8.52388 22.0181 8.52258 22.0134L7.64142 18.7792C7.64051 18.7759 7.64038 18.7724 7.64104 18.769C7.6417 18.7656 7.64314 18.7624 7.64523 18.7597C7.64733 18.757 7.65003 18.7548 7.65312 18.7532C7.65621 18.7517 7.65961 18.751 7.66306 18.751L8.38752 18.7516C8.3924 18.7518 8.3971 18.7535 8.40089 18.7566C8.40468 18.7597 8.40735 18.7639 8.4085 18.7687L8.91792 20.7788C8.91917 20.7834 8.92187 20.7875 8.92562 20.7905C8.92937 20.7934 8.93397 20.7951 8.93874 20.7952C8.94351 20.7954 8.94821 20.794 8.95213 20.7913C8.95605 20.7886 8.959 20.7847 8.96053 20.7801L9.60829 18.7674C9.60971 18.7628 9.61258 18.7587 9.61648 18.7559C9.62039 18.7531 9.6251 18.7516 9.62993 18.7516L10.3557 18.751C10.3605 18.7509 10.3652 18.7524 10.3691 18.7552C10.373 18.7581 10.3759 18.7621 10.3773 18.7667L11.0251 20.7801C11.0266 20.7847 11.0296 20.7886 11.0335 20.7913C11.0374 20.794 11.0421 20.7954 11.0469 20.7952C11.0517 20.7951 11.0563 20.7934 11.06 20.7905C11.0638 20.7875 11.0665 20.7834 11.0677 20.7788Z" fill="white"/>
<path d="M13.6026 18.749H12.9339C12.9132 18.749 12.8965 18.7658 12.8965 18.7864V21.9924C12.8965 22.013 12.9132 22.0298 12.9339 22.0298H13.6026C13.6232 22.0298 13.64 22.013 13.64 21.9924V18.7864C13.64 18.7658 13.6232 18.749 13.6026 18.749Z" fill="white"/>
<path d="M15.2674 21.3318L16.6213 21.3292C16.6296 21.3292 16.6376 21.3325 16.6435 21.3384C16.6494 21.3443 16.6527 21.3523 16.6527 21.3607L16.6567 21.9993C16.6567 22.0076 16.6534 22.0156 16.6475 22.0215C16.6416 22.0274 16.6336 22.0307 16.6252 22.0307L14.5305 22.032C14.5221 22.032 14.5141 22.0287 14.5082 22.0228C14.5023 22.0169 14.499 22.0089 14.499 22.0006V18.7834C14.499 18.7751 14.5023 18.7671 14.5082 18.7612C14.5141 18.7553 14.5221 18.752 14.5305 18.752H15.2032C15.2115 18.752 15.2195 18.7553 15.2254 18.7612C15.2313 18.7671 15.2346 18.7751 15.2346 18.7834L15.2359 21.3004C15.2359 21.3087 15.2393 21.3167 15.2452 21.3226C15.2511 21.3285 15.2591 21.3318 15.2674 21.3318Z" fill="white"/>
<path d="M17.959 21.3295L19.3174 21.3282C19.3256 21.3282 19.3334 21.3315 19.3392 21.3373C19.345 21.343 19.3482 21.3509 19.3482 21.359L19.3469 21.9989C19.3469 22.0071 19.3437 22.0149 19.3379 22.0207C19.3321 22.0265 19.3243 22.0297 19.3161 22.0297L17.2227 22.0304C17.2145 22.0304 17.2067 22.0272 17.2009 22.0214C17.1951 22.0156 17.1919 22.0078 17.1919 21.9996L17.1932 18.7824C17.1932 18.7743 17.1965 18.7664 17.2022 18.7607C17.208 18.7549 17.2158 18.7516 17.224 18.7516L17.898 18.751C17.9062 18.751 17.914 18.7542 17.9198 18.76C17.9256 18.7658 17.9288 18.7736 17.9288 18.7818L17.9282 21.2987C17.9282 21.3028 17.929 21.3068 17.9305 21.3105C17.9321 21.3143 17.9343 21.3177 17.9372 21.3205C17.94 21.3234 17.9434 21.3256 17.9472 21.3272C17.9509 21.3287 17.9549 21.3295 17.959 21.3295Z" fill="white"/>
<path d="M31.5137 19.4787V22.0048C31.5137 22.012 31.5109 22.0188 31.5058 22.0238C31.5008 22.0289 31.4939 22.0317 31.4868 22.0317L30.8017 22.0311C30.7945 22.0311 30.7877 22.0282 30.7827 22.0232C30.7776 22.0181 30.7748 22.0113 30.7748 22.0042L30.7807 19.4781C30.7807 19.4709 30.7779 19.4641 30.7728 19.4591C30.7678 19.454 30.7609 19.4512 30.7538 19.4512H29.792C29.7849 19.4512 29.7781 19.4484 29.773 19.4433C29.768 19.4383 29.7651 19.4314 29.7651 19.4243L29.7664 18.7779C29.7664 18.7707 29.7693 18.7639 29.7743 18.7588C29.7794 18.7538 29.7862 18.751 29.7933 18.751L32.5024 18.7536C32.5095 18.7536 32.5163 18.7564 32.5214 18.7615C32.5264 18.7665 32.5292 18.7734 32.5292 18.7805V19.4276C32.5292 19.4347 32.5264 19.4415 32.5214 19.4466C32.5163 19.4516 32.5095 19.4545 32.5024 19.4545L31.5406 19.4518C31.5334 19.4518 31.5266 19.4547 31.5216 19.4597C31.5165 19.4648 31.5137 19.4716 31.5137 19.4787Z" fill="white"/>
<path d="M26.9012 20.3875C26.9012 20.9375 27.3292 21.3834 27.8571 21.3834C28.385 21.3834 28.813 20.9375 28.813 20.3875C28.813 19.8375 28.385 19.3916 27.8571 19.3916C27.3292 19.3916 26.9012 19.8375 26.9012 20.3875Z" fill="#007448"/>
<circle cx="20" cy="20" r="19.5" stroke="black" stroke-opacity="0.05"/>
</svg>
