<svg width="40" height="40" viewBox="0 0 40 40" fill="none" xmlns="http://www.w3.org/2000/svg">
<circle cx="20" cy="20" r="20" fill="#036A37"/>
<g clip-path="url(#clip0_9_395764)">
<path d="M33.8689 22.7147V18.6433H34.5325V20.7502L35.2953 20.0004H36.1435L35.0829 21.061L36.2853 22.7147H35.5138L34.5325 21.38V22.7147H33.8689ZM5.07101 22.7147L3.71387 17.2861H5.07101L5.74958 20.0004L6.76744 17.2861H8.12458L9.14244 20.0004L9.82101 17.2861H11.1782L9.82101 22.7147H8.46387L7.44601 19.3218L6.42815 22.7147H5.07101ZM14.1164 17.2861C14.7474 17.2861 15.3962 17.4185 15.6418 17.485C15.6384 17.9509 15.6384 18.4169 15.6418 18.8828C14.7054 18.5842 14.0594 18.6433 13.923 18.6433C13.7866 18.6433 13.2139 18.684 13.2139 19.0002C13.2139 19.254 13.6454 19.4012 13.8504 19.4386C14.5534 19.5675 15.9153 19.6747 15.9268 20.9484C15.9404 22.541 14.3742 22.7072 13.6916 22.7147C13.1453 22.7208 12.2279 22.5512 11.8567 22.4657V20.9484C12.5679 21.2822 13.7065 21.344 13.8504 21.344C13.9935 21.344 14.571 21.3881 14.571 21.0631C14.571 20.8337 14.3437 20.7326 14.229 20.717C13.5253 20.622 11.8554 20.3146 11.8554 19.0423C11.8554 17.4517 13.3279 17.2861 14.1164 17.2861ZM22.9398 17.2861C23.5709 17.2861 24.2189 17.4185 24.4646 17.485C24.4612 17.9509 24.4612 18.4169 24.4646 18.8828C23.5282 18.5842 22.8828 18.6433 22.7458 18.6433C22.61 18.6433 22.0367 18.684 22.0367 19.0002C22.0367 19.254 22.4682 19.4012 22.6732 19.4386C23.3762 19.5675 24.738 19.6747 24.7496 20.9484C24.7638 22.541 23.1977 22.7072 22.5144 22.7147C21.9688 22.7208 21.0507 22.5512 20.6795 22.4657V20.9484C21.3913 21.2822 22.5293 21.344 22.6732 21.344C22.8163 21.344 23.3938 21.3881 23.3938 21.0631C23.3938 20.8337 23.1665 20.7326 23.0518 20.717C22.3481 20.622 20.6782 20.3146 20.6782 19.0423C20.6782 17.4517 22.1507 17.2861 22.9398 17.2861ZM16.6067 22.7147V17.2861H19.9996V18.6433H17.9639V19.3218H19.9996V20.679H17.9639V22.7147H16.6067ZM26.1067 22.7147V18.6433H26.7853V20.3872C26.8755 20.2481 27.2182 20.0004 27.5358 20.0004C27.8527 20.0004 28.5774 20.0303 28.5774 21.2673C28.5774 22.448 27.9938 22.7147 27.5358 22.7147C27.2169 22.7147 26.9115 22.4915 26.7853 22.3754V22.7147H26.1067ZM31.196 22.7147V20.0004H31.8841V20.3974C32.1134 20.0785 32.5579 19.9943 32.7513 20.0004C33.4896 20.0228 33.5927 20.6573 33.571 20.9633V22.714H32.8924V21.4451C32.8924 21.0875 32.9074 20.5806 32.4649 20.6254C32.0218 20.6702 31.8868 20.9877 31.8746 21.1852V22.7147H31.196ZM29.9101 20.0011C29.5661 19.9889 29.2112 20.1137 29.0775 20.1775V20.8955C29.1488 20.8161 29.3211 20.6043 29.7398 20.586C30.1592 20.5677 30.1944 20.8595 30.1782 21.0461H29.6353C29.0103 21.0773 28.802 21.515 28.8224 21.9377C28.8427 22.3605 29.0768 22.7147 29.5871 22.7147C30.0899 22.7147 30.1782 22.3768 30.1782 22.2757V22.7147H30.8567V20.8351C30.8567 20.166 30.3397 20.0167 29.9101 20.0011Z" fill="white"/>
<path d="M29.8098 21.5391H30.185C30.185 22.0359 29.9041 22.1492 29.8098 22.1661C29.6571 22.194 29.3755 22.1661 29.3802 21.9076C29.385 21.6491 29.6042 21.5391 29.8098 21.5391ZM26.8105 21.3614C26.8336 20.8579 27.2231 20.6964 27.4144 20.6787C27.6037 20.6787 27.981 20.8151 27.981 21.3614C27.981 21.9069 27.6037 22.0386 27.4151 22.0359C27.2041 22.0209 26.7874 21.8642 26.8105 21.3614Z" fill="#036A37"/>
</g>
<circle cx="20" cy="20" r="19.5" stroke="black" stroke-opacity="0.05"/>
<defs>
<clipPath id="clip0_9_395764">
<rect width="34" height="6" fill="white" transform="translate(3 17)"/>
</clipPath>
</defs>
</svg>
