<svg width="40" height="40" viewBox="0 0 40 40" fill="none" xmlns="http://www.w3.org/2000/svg">
<circle cx="20" cy="20" r="20" fill="#1E1E23"/>
<g clip-path="url(#clip0_9_401237)">
<path d="M12.758 19H12.8781L13.526 20.5764C13.5462 20.6243 13.5795 20.6591 13.6259 20.6808C13.7577 20.7422 13.8905 20.7145 14.0245 20.5978C14.059 20.5671 14.0762 20.5285 14.0762 20.4821L14.0773 19.2762C14.0773 19.241 14.0623 19.2141 14.0324 19.1954C13.9867 19.1662 13.9306 19.1568 13.864 19.1673C13.8213 19.174 13.797 19.1561 13.791 19.1134L13.7876 19.0842C13.7867 19.0777 13.7871 19.0711 13.7889 19.0648C13.7907 19.0585 13.7938 19.0526 13.7981 19.0476C13.8024 19.0426 13.8076 19.0386 13.8136 19.0358C13.8195 19.033 13.826 19.0315 13.8325 19.0314L14.3838 19.0269C14.4057 19.0266 14.4271 19.0332 14.445 19.0457C14.4629 19.0582 14.4765 19.076 14.4838 19.0966L14.8857 20.2351C14.9059 20.2912 14.9258 20.2912 14.9452 20.2351L15.3382 19.0876C15.3517 19.0479 15.3794 19.0281 15.4213 19.0281L15.9569 19.0269C15.9641 19.0267 15.9712 19.0281 15.9778 19.0309C15.9845 19.0337 15.9904 19.0379 15.9952 19.0433C16 19.0486 16.0036 19.055 16.0057 19.0618C16.0078 19.0687 16.0084 19.076 16.0074 19.0831L16.0018 19.1258C15.9958 19.1692 15.9715 19.1853 15.9288 19.174C15.8757 19.1606 15.8285 19.1654 15.7873 19.1886C15.7537 19.2073 15.7364 19.2362 15.7357 19.2751C15.7297 19.9353 15.7293 20.3683 15.7346 20.5742C15.7376 20.679 15.8135 20.7153 15.9625 20.6831C15.9909 20.6771 16.0067 20.6887 16.0097 20.7179L16.0141 20.7662C16.0179 20.8058 15.9999 20.8253 15.9602 20.8246L15.2102 20.8234C15.1294 20.8234 15.1178 20.7954 15.1754 20.7392C15.2203 20.6958 15.2746 20.676 15.3382 20.6797C15.3959 20.6827 15.4247 20.6554 15.4247 20.5978V19.4817C15.4247 19.344 15.4022 19.3402 15.3573 19.4705L14.9318 20.71C14.8756 20.874 14.818 20.8743 14.7588 20.7112L14.2906 19.4177C14.2592 19.3309 14.2439 19.3335 14.2446 19.4255L14.2468 20.5124C14.2468 20.5289 14.2504 20.5452 14.2574 20.5602C14.2644 20.5751 14.2746 20.5883 14.2873 20.5989C14.3479 20.6483 14.4198 20.6853 14.5028 20.71C14.5305 20.7183 14.5444 20.7374 14.5444 20.7673C14.5436 20.8047 14.5246 20.8234 14.4871 20.8234L13.0073 20.8246C12.9668 20.8246 12.9493 20.8047 12.9545 20.7651L12.9579 20.7347C12.9616 20.704 12.9792 20.688 13.0106 20.6865L13.1487 20.6808C13.2011 20.6778 13.2184 20.6516 13.2004 20.6022L13.0892 20.2912C13.0765 20.2545 13.0503 20.2358 13.0106 20.2351L12.4964 20.234C12.4515 20.234 12.4219 20.2553 12.4077 20.298L12.3235 20.5585C12.3063 20.6116 12.3257 20.6415 12.3819 20.6483C12.4515 20.6558 12.511 20.6793 12.5604 20.719C12.6457 20.7871 12.6337 20.8212 12.5245 20.8212L11.0154 20.8234C10.978 20.8234 10.96 20.8044 10.9615 20.7662L10.9638 20.7168C10.9645 20.6898 10.9787 20.6786 11.0064 20.6831C11.0708 20.6936 11.1299 20.6898 11.1838 20.6719C11.222 20.6591 11.2411 20.6329 11.2411 20.5933L11.2433 19.2796C11.2433 19.2264 11.2175 19.1935 11.1659 19.1808C11.1202 19.168 11.0727 19.1654 11.0233 19.1729C10.9903 19.1774 10.972 19.1636 10.9682 19.1314L10.9626 19.0853C10.9618 19.0779 10.9626 19.0705 10.9648 19.0634C10.9671 19.0563 10.9707 19.0498 10.9756 19.0443C10.9805 19.0388 10.9865 19.0344 10.9931 19.0314C10.9998 19.0284 11.007 19.0269 11.0143 19.0269C11.2643 19.0269 11.4997 19.0281 11.7205 19.0303C11.752 19.0311 11.7789 19.0427 11.8014 19.0651C11.8081 19.0719 11.8137 19.0797 11.8182 19.0887C11.8211 19.0952 11.8225 19.1023 11.8223 19.1095C11.8221 19.1166 11.8203 19.1236 11.817 19.1298C11.8138 19.1361 11.8092 19.1415 11.8035 19.1457C11.7979 19.1498 11.7914 19.1526 11.7845 19.1538L11.6049 19.1841C11.5502 19.1939 11.5229 19.2261 11.5229 19.2807V20.5742C11.5229 20.6228 11.5469 20.652 11.5948 20.6618C11.6666 20.6752 11.7366 20.7018 11.8047 20.7415C11.8384 20.7609 11.8729 20.7613 11.908 20.7426C12.0375 20.6722 12.13 20.5656 12.1854 20.4226C12.371 19.9443 12.5619 19.4701 12.758 19ZM12.776 19.5098C12.7735 19.5034 12.7692 19.4979 12.7636 19.4941C12.758 19.4902 12.7513 19.4882 12.7445 19.4882C12.7377 19.4882 12.7311 19.4902 12.7255 19.4941C12.7198 19.4979 12.7155 19.5034 12.7131 19.5098L12.502 20.0465C12.5 20.0516 12.4993 20.0571 12.4999 20.0626C12.5005 20.068 12.5024 20.0733 12.5055 20.0778C12.5086 20.0823 12.5128 20.0861 12.5177 20.0886C12.5225 20.0912 12.5279 20.0925 12.5334 20.0925L12.9545 20.097C12.96 20.097 12.9654 20.0957 12.9703 20.0931C12.9751 20.0905 12.9793 20.0868 12.9824 20.0823C12.9855 20.0778 12.9875 20.0725 12.9881 20.0671C12.9887 20.0616 12.9879 20.0561 12.9859 20.0509L12.776 19.5098Z" fill="white"/>
<path d="M16.5843 19H16.9155L17.1423 19.1067C17.1813 19.1254 17.2123 19.1168 17.2355 19.0808L17.2883 19H17.386L17.423 19.622C17.4253 19.6512 17.4118 19.6666 17.3826 19.6681L17.3377 19.6714C17.3033 19.6729 17.2816 19.6568 17.2726 19.6232C17.2097 19.3716 17.0739 19.216 16.865 19.1561C16.6876 19.1052 16.5521 19.1463 16.4586 19.2796C16.4376 19.3093 16.4239 19.3436 16.4185 19.3795C16.4131 19.4155 16.4162 19.4523 16.4276 19.4869C16.4389 19.5214 16.4582 19.5529 16.4838 19.5787C16.5095 19.6045 16.5408 19.624 16.5753 19.6355C16.8684 19.7354 17.4534 19.7916 17.4949 20.1992C17.5623 20.8627 16.8762 20.9975 16.4204 20.7134C16.3845 20.6909 16.359 20.6996 16.344 20.7392C16.3291 20.7804 16.3044 20.8137 16.2699 20.8392C16.2168 20.8788 16.188 20.8657 16.1835 20.7999L16.1453 20.2093C16.1423 20.1621 16.164 20.134 16.2104 20.1251C16.2284 20.1221 16.2456 20.1243 16.2621 20.1318C16.2868 20.1438 16.3021 20.1632 16.3081 20.1902C16.3672 20.4776 16.5304 20.6487 16.7976 20.7033C16.9848 20.7415 17.1334 20.6805 17.2434 20.5203C17.2614 20.4933 17.2718 20.4615 17.2748 20.4248C17.2853 20.2714 17.2172 20.1711 17.0705 20.1239C16.7505 20.0218 16.2598 20.015 16.207 19.5827C16.1711 19.2908 16.2969 19.0966 16.5843 19Z" fill="white"/>
<path d="M18.9376 19H19.2711L19.5046 19.1044C19.5428 19.1216 19.5735 19.1127 19.5967 19.0775L19.6461 19H19.7449L19.7808 19.6209C19.7813 19.6268 19.7806 19.6326 19.7787 19.6382C19.7769 19.6437 19.7739 19.6489 19.77 19.6533C19.7662 19.6577 19.7615 19.6613 19.7562 19.6638C19.7509 19.6663 19.7452 19.6678 19.7393 19.6681L19.6989 19.6703C19.6622 19.6726 19.6394 19.6561 19.6304 19.6209C19.5683 19.3776 19.4365 19.2231 19.2352 19.1572C18.8377 19.0269 18.5435 19.5244 18.9971 19.6625C19.389 19.7815 19.9796 19.8365 19.8471 20.4417C19.7438 20.9121 19.1375 20.9256 18.8018 20.7213C18.7561 20.6936 18.7205 20.7025 18.6951 20.7482C18.6779 20.7782 18.6554 20.804 18.6277 20.8257C18.6209 20.8308 18.6128 20.8342 18.6044 20.8356C18.5959 20.8369 18.5872 20.8362 18.5792 20.8334C18.5712 20.8306 18.564 20.8259 18.5584 20.8196C18.5527 20.8134 18.5488 20.8058 18.5469 20.7976C18.5027 20.606 18.493 20.4204 18.5177 20.2407C18.5424 20.0633 18.5892 20.0573 18.658 20.2227C18.7961 20.5573 19.0106 20.7841 19.3957 20.6853C19.7045 20.6067 19.7314 20.1733 19.3778 20.097C19.1476 20.0465 18.6861 19.9768 18.594 19.7265C18.4668 19.3814 18.5813 19.1392 18.9376 19Z" fill="white"/>
<path d="M20.7622 19H21.1585C21.696 19.2148 21.9071 19.5981 21.7918 20.1498C21.5908 21.1064 20.2535 21.0626 20.1166 20.0959C20.0402 19.5607 20.2554 19.1954 20.7622 19ZM20.9519 20.728C21.0922 20.729 21.2273 20.645 21.3275 20.4945C21.4277 20.344 21.4849 20.1393 21.4864 19.9255C21.4871 19.8197 21.4742 19.7147 21.4483 19.6167C21.4224 19.5187 21.384 19.4296 21.3355 19.3544C21.2869 19.2792 21.229 19.2194 21.1651 19.1784C21.1012 19.1375 21.0326 19.1162 20.9632 19.1157C20.8229 19.1147 20.6878 19.1987 20.5876 19.3492C20.4874 19.4997 20.4302 19.7043 20.4287 19.9181C20.428 20.024 20.4409 20.1289 20.4668 20.2269C20.4927 20.3249 20.531 20.4141 20.5796 20.4893C20.6282 20.5645 20.6861 20.6242 20.75 20.6652C20.8138 20.7062 20.8825 20.7275 20.9519 20.728Z" fill="white"/>
<path d="M24.661 19H25.0618C25.716 19.2912 25.8923 19.7601 25.5906 20.4069C25.506 20.5873 25.3447 20.7201 25.1067 20.8055C24.6441 20.9716 24.1321 20.6494 24.0344 20.1891C23.9109 19.6044 24.1198 19.2081 24.661 19ZM25.3475 19.6083C25.3476 19.5481 25.3359 19.4885 25.313 19.4329C25.29 19.3773 25.2564 19.3267 25.2139 19.2841C25.1715 19.2415 25.121 19.2077 25.0655 19.1846C25.0099 19.1614 24.9504 19.1495 24.8902 19.1494L24.8251 19.1493C24.7649 19.1492 24.7054 19.1609 24.6497 19.1838C24.5941 19.2068 24.5436 19.2404 24.5009 19.2829C24.4583 19.3254 24.4245 19.3758 24.4014 19.4313C24.3783 19.4869 24.3663 19.5464 24.3662 19.6066L24.3651 20.2376C24.365 20.2978 24.3767 20.3574 24.3997 20.413C24.4226 20.4686 24.4562 20.5192 24.4987 20.5618C24.5412 20.6044 24.5916 20.6382 24.6472 20.6613C24.7027 20.6844 24.7623 20.6964 24.8224 20.6965L24.8875 20.6966C24.9477 20.6967 25.0073 20.685 25.0629 20.6621C25.1185 20.6391 25.1691 20.6055 25.2117 20.563C25.2543 20.5205 25.2881 20.4701 25.3113 20.4146C25.3344 20.359 25.3463 20.2995 25.3464 20.2393L25.3475 19.6083Z" fill="white"/>
<path d="M28.9321 19H29.0579C29.2779 19.521 29.4939 20.0453 29.7057 20.5731C29.7274 20.6262 29.7787 20.6554 29.8596 20.6606C29.8917 20.6629 29.9082 20.6801 29.909 20.7123V20.7516C29.9097 20.7808 29.8951 20.7954 29.8652 20.7954L29.1982 20.7965C29.1705 20.7965 29.1563 20.7826 29.1556 20.7549L29.1544 20.6966C29.1544 20.6689 29.1679 20.6554 29.1949 20.6561L29.3206 20.6573C29.3842 20.6573 29.4045 20.6281 29.3812 20.5697L29.2757 20.2968C29.26 20.2557 29.23 20.2351 29.1859 20.2351H28.6683C28.6499 20.2351 28.6321 20.2409 28.6174 20.2516C28.6027 20.2623 28.5918 20.2774 28.5863 20.2946L28.5111 20.527C28.4998 20.56 28.5085 20.5869 28.5369 20.6079C28.5863 20.6453 28.6424 20.6618 28.7053 20.6573C28.7435 20.6543 28.7656 20.6715 28.7716 20.7089C28.7746 20.7224 28.7731 20.7355 28.7671 20.7482C28.7551 20.7737 28.7353 20.7864 28.7076 20.7864L27.2019 20.7909C27.1667 20.7916 27.151 20.7744 27.1547 20.7392L27.1592 20.6966C27.1615 20.6719 27.1749 20.6591 27.1996 20.6584L27.3725 20.6516C27.4167 20.6502 27.4388 20.6269 27.4388 20.582V19.4559C27.438 19.3196 27.416 19.3159 27.3725 19.4446L26.9414 20.7022C26.8838 20.8698 26.825 20.8702 26.7651 20.7033L26.3092 19.4222C26.2643 19.2949 26.2404 19.2987 26.2374 19.4334C26.2292 19.765 26.2303 20.0932 26.2408 20.4181C26.246 20.5805 26.3276 20.6603 26.4855 20.6573C26.5207 20.6565 26.5394 20.6737 26.5417 20.7089L26.5439 20.7482C26.5454 20.7782 26.5308 20.7935 26.5001 20.7942L25.8624 20.7965C25.8212 20.7972 25.8017 20.777 25.804 20.7359L25.8074 20.6887C25.8081 20.667 25.8193 20.6565 25.841 20.6573C26.005 20.6647 26.0877 20.5847 26.0892 20.417C26.0922 20.0352 26.0929 19.6497 26.0914 19.2605C26.0914 19.2475 26.088 19.2348 26.0814 19.2235C26.0749 19.2123 26.0656 19.203 26.0544 19.1965C26.0005 19.1651 25.9365 19.1561 25.8624 19.1695C25.8339 19.1748 25.8167 19.1636 25.8107 19.1359L25.7995 19.0865C25.798 19.0799 25.798 19.073 25.7994 19.0664C25.8009 19.0598 25.8039 19.0537 25.8081 19.0484C25.8123 19.0431 25.8177 19.0388 25.8238 19.0359C25.8298 19.033 25.8365 19.0314 25.8433 19.0314L26.4047 19.0269C26.4481 19.0269 26.4773 19.0472 26.4923 19.0876L26.8931 20.2126C26.9156 20.2755 26.9376 20.2751 26.9594 20.2115L27.34 19.0943C27.3557 19.0494 27.3871 19.0269 27.4343 19.0269L27.9441 19.0303C27.9593 19.0303 27.9742 19.0355 27.986 19.0451C27.9979 19.0547 28.0061 19.0681 28.0092 19.0831L28.0159 19.1156C28.0189 19.1284 28.0144 19.1374 28.0024 19.1426C27.9448 19.1688 27.8838 19.177 27.8194 19.1673C27.8105 19.166 27.8015 19.1667 27.7929 19.1692C27.7842 19.1717 27.7763 19.176 27.7695 19.1818C27.7626 19.1877 27.7572 19.1949 27.7534 19.2031C27.7496 19.2112 27.7476 19.2201 27.7476 19.2291V20.5708C27.7476 20.6127 27.7678 20.6382 27.8082 20.6472C28.1136 20.7156 28.2618 20.6909 28.3898 20.3642C28.5695 19.9054 28.7502 19.4506 28.9321 19ZM28.6941 20.0116C28.6791 20.0483 28.6915 20.0667 28.7311 20.0667H29.1073C29.1604 20.0674 29.1769 20.0435 29.1567 19.9948L28.9535 19.5064C28.9347 19.4615 28.9164 19.4615 28.8984 19.5064L28.6941 20.0116Z" fill="white"/>
<path d="M34.6065 19H35.0006C35.1413 19.1258 35.2498 19.1258 35.3262 19H35.443L35.462 19.6916C35.4635 19.7306 35.4452 19.7489 35.407 19.7467C35.3958 19.7467 35.3849 19.7433 35.3745 19.7366C35.3617 19.7283 35.3524 19.7171 35.3464 19.7029C35.2985 19.5869 35.2435 19.4746 35.1813 19.366C34.9837 19.0202 34.5447 19.046 34.3864 19.4098C34.2674 19.6823 34.2487 19.9847 34.3303 20.3171C34.4403 20.7628 34.9624 20.8246 35.2386 20.4731C35.3093 20.3833 35.3138 20.2856 35.3644 20.1879C35.3868 20.1453 35.4175 20.1385 35.4564 20.1677C35.4841 20.1894 35.4946 20.2164 35.4879 20.2486C35.4108 20.6558 35.1544 20.8493 34.7187 20.8291C34.0945 20.7999 33.8351 20.1969 33.9856 19.6456C34.0739 19.323 34.2809 19.1078 34.6065 19Z" fill="white"/>
<path d="M8.21497 20.6751C8.67233 20.7507 8.92496 20.5995 8.97286 20.2215C8.97736 20.1804 9.00056 20.1564 9.04248 20.1497C9.09263 20.1422 9.11621 20.1639 9.11321 20.2148L9.07616 20.7582C9.07317 20.8024 9.04959 20.8245 9.00543 20.8245H7.63897C7.61427 20.8245 7.60079 20.8118 7.59855 20.7863L7.59293 20.7144C7.59144 20.695 7.60042 20.6852 7.61988 20.6852L7.77595 20.6841C7.79452 20.6838 7.81222 20.6762 7.82525 20.663C7.83827 20.6498 7.84557 20.632 7.84557 20.6134V19.2772C7.84557 19.2368 7.8276 19.2084 7.79167 19.1919C7.752 19.1732 7.70896 19.1668 7.66255 19.1728C7.62437 19.1773 7.60379 19.1601 7.60079 19.1212L7.59855 19.0808C7.5963 19.0456 7.6124 19.028 7.64683 19.028C7.89684 19.0265 8.13188 19.0276 8.35195 19.0314C8.38339 19.0314 8.41109 19.0426 8.43504 19.065C8.44702 19.0763 8.45375 19.0912 8.45525 19.11C8.45623 19.1194 8.45355 19.1289 8.44773 19.1366C8.44192 19.1442 8.43339 19.1496 8.42381 19.1515L8.2363 19.1852C8.18166 19.1949 8.15434 19.2275 8.15434 19.2829V20.6033C8.15434 20.6445 8.17455 20.6684 8.21497 20.6751Z" fill="white"/>
<path d="M9.89679 20.6732C10.3549 20.7533 10.6094 20.5976 10.6603 20.2061C10.6648 20.1695 10.6846 20.1504 10.7198 20.1489C10.7737 20.1466 10.7988 20.1725 10.795 20.2264L10.7569 20.7473C10.7531 20.799 10.7254 20.8248 10.6738 20.8248H9.32977C9.29534 20.8248 9.27887 20.808 9.28037 20.7743L9.28149 20.7339C9.28224 20.7024 9.29833 20.686 9.32977 20.6845L9.48809 20.6777C9.49931 20.6771 9.50988 20.6723 9.51761 20.6641C9.52534 20.656 9.52965 20.6452 9.52963 20.6339V19.2753C9.52963 19.2364 9.51204 19.2087 9.47686 19.1923C9.43644 19.1735 9.39302 19.1672 9.34661 19.1732C9.30769 19.1777 9.2871 19.1604 9.28486 19.1215L9.28149 19.0811C9.28103 19.0743 9.28199 19.0676 9.28432 19.0612C9.28665 19.0548 9.2903 19.0489 9.29504 19.044C9.29978 19.039 9.30551 19.0351 9.31187 19.0324C9.31823 19.0297 9.32509 19.0283 9.33202 19.0283L10.0461 19.0294C10.056 19.0294 10.0658 19.0318 10.0745 19.0364C10.0832 19.0411 10.0907 19.0478 10.0961 19.0561C10.1016 19.0643 10.1049 19.0738 10.1058 19.0837C10.1067 19.0935 10.1051 19.1034 10.1011 19.1125L10.0888 19.1417C10.0858 19.1492 10.0798 19.1537 10.0708 19.1552L9.90577 19.1855C9.88681 19.1889 9.86966 19.199 9.85734 19.214C9.84502 19.229 9.83831 19.2479 9.8384 19.2675V20.6036C9.8384 20.6433 9.85786 20.6665 9.89679 20.6732Z" fill="white"/>
<path d="M22.4423 19.4544V20.5109C22.4423 20.5277 22.4462 20.5443 22.4535 20.5595C22.4609 20.5747 22.4717 20.588 22.485 20.5985C22.5359 20.6404 22.5961 20.661 22.6658 20.6603C22.6799 20.6602 22.6935 20.6655 22.7039 20.6751C22.7143 20.6847 22.7208 20.6978 22.7219 20.7119L22.7241 20.7478C22.7264 20.7785 22.7125 20.7939 22.6826 20.7939L22.0516 20.7961C22.0119 20.7961 21.9906 20.7767 21.9876 20.7377C21.9861 20.722 21.9906 20.7085 22.001 20.6973C22.0153 20.6831 22.0321 20.6745 22.0516 20.6715C22.2305 20.6483 22.3132 20.5379 22.2997 20.3403C22.2758 19.987 22.2679 19.6374 22.2761 19.2916C22.2769 19.2429 22.2552 19.2089 22.211 19.1894C22.1586 19.1662 22.1036 19.1591 22.046 19.1681C22.0363 19.1694 22.0265 19.1684 22.0174 19.1651C22.0082 19.1618 22 19.1563 21.9935 19.1491C21.9869 19.1419 21.9823 19.1332 21.9799 19.1238C21.9775 19.1144 21.9774 19.1045 21.9797 19.0951L21.9865 19.0659C21.9883 19.0571 21.993 19.0491 22 19.0434C22.0069 19.0377 22.0156 19.0345 22.0246 19.0344L22.4636 19.0255C22.4848 19.0248 22.5058 19.0292 22.5248 19.0384C22.5437 19.0476 22.5601 19.0613 22.5726 19.0782L23.4203 20.2302C23.4585 20.2826 23.4783 20.2763 23.4798 20.2111C23.4835 19.9641 23.4824 19.7006 23.4764 19.4207C23.4734 19.2747 23.4072 19.1946 23.2777 19.1804C23.2596 19.1785 23.2427 19.1705 23.2299 19.1579C23.217 19.1452 23.2089 19.1286 23.2069 19.1108L23.2036 19.0805C23.2028 19.0737 23.2035 19.0668 23.2056 19.0603C23.2077 19.0538 23.2112 19.0478 23.2159 19.0427C23.2206 19.0376 23.2263 19.0335 23.2327 19.0308C23.2391 19.028 23.246 19.0266 23.253 19.0266L23.8425 19.0288C23.8769 19.0288 23.8993 19.0453 23.9098 19.0782L23.921 19.1108C23.9226 19.1155 23.923 19.1205 23.9224 19.1255C23.9218 19.1304 23.92 19.1351 23.9173 19.1393C23.9147 19.1435 23.9111 19.147 23.9069 19.1497C23.9027 19.1523 23.8979 19.154 23.893 19.1546C23.7133 19.174 23.6235 19.2702 23.6235 19.4431C23.622 19.8968 23.6205 20.3515 23.619 20.8074C23.619 20.8174 23.6163 20.8273 23.6111 20.836C23.606 20.8446 23.5986 20.8517 23.5898 20.8565C23.5809 20.8614 23.5709 20.8637 23.5609 20.8634C23.5508 20.863 23.541 20.8599 23.5326 20.8545C23.5071 20.8395 23.4858 20.8201 23.4686 20.7961C23.1347 20.3463 22.8046 19.8949 22.4782 19.442C22.4756 19.4388 22.4721 19.4364 22.4681 19.4353C22.4641 19.4341 22.4599 19.4343 22.4559 19.4356C22.452 19.437 22.4486 19.4395 22.4462 19.4428C22.4437 19.4462 22.4424 19.4502 22.4423 19.4544Z" fill="white"/>
<path d="M31.5639 20.6422L31.7761 20.6658C31.7804 20.6663 31.7844 20.6677 31.7881 20.6699C31.7917 20.6721 31.7949 20.6751 31.7973 20.6786C31.7998 20.6821 31.8014 20.686 31.8022 20.6902C31.803 20.6944 31.8029 20.6987 31.802 20.7029L31.7829 20.7725C31.7812 20.7789 31.7774 20.7846 31.7721 20.7886C31.7668 20.7927 31.7603 20.7949 31.7537 20.7949L31.0182 20.7961C31.0122 20.796 31.0063 20.7942 31.0013 20.7908C30.9963 20.7874 30.9924 20.7826 30.9902 20.777L30.9632 20.7062C30.9615 20.7019 30.9607 20.6972 30.9611 20.6925C30.9614 20.6879 30.9629 20.6833 30.9653 20.6793C30.9676 20.6753 30.9709 20.6719 30.9749 20.6693C30.9788 20.6668 30.9833 20.6652 30.9879 20.6647L31.2013 20.6434C31.2085 20.6425 31.2152 20.6392 31.2202 20.6338C31.2251 20.6284 31.228 20.6215 31.2282 20.6142V19.2039C31.2282 19.1961 31.2252 19.1885 31.2197 19.1829C31.2143 19.1772 31.2069 19.1739 31.199 19.1736L30.9834 19.1635C30.9756 19.1632 30.9682 19.1599 30.9627 19.1542C30.9573 19.1486 30.9542 19.141 30.9542 19.1332L30.9531 19.0557C30.9531 19.0477 30.9563 19.04 30.962 19.0343C30.9677 19.0286 30.9754 19.0254 30.9834 19.0254L31.7514 19.0299C31.7575 19.0299 31.7634 19.0317 31.7684 19.0351C31.7734 19.0385 31.7773 19.0434 31.7795 19.049L31.8031 19.1118C31.8046 19.1161 31.8052 19.1207 31.8048 19.1252C31.8043 19.1297 31.8028 19.1341 31.8005 19.138C31.7981 19.1419 31.7949 19.1452 31.7911 19.1476C31.7872 19.1501 31.7829 19.1517 31.7784 19.1523L31.5617 19.1815C31.5544 19.1825 31.5478 19.1862 31.5431 19.1918C31.5384 19.1974 31.5358 19.2045 31.5359 19.2118L31.537 20.6119C31.5369 20.6194 31.5397 20.6266 31.5446 20.6322C31.5496 20.6378 31.5565 20.6414 31.5639 20.6422Z" fill="white"/>
<path d="M32.489 19.4777L32.4913 20.5151C32.4913 20.5585 32.51 20.5915 32.5474 20.6139C32.5998 20.6454 32.6563 20.6592 32.717 20.6555C32.7574 20.6532 32.7761 20.6723 32.7731 20.7127L32.7697 20.7442C32.7689 20.7582 32.7626 20.7713 32.7522 20.7809C32.7417 20.7905 32.7279 20.7959 32.7136 20.7958L32.1039 20.797C32.0695 20.797 32.0482 20.7801 32.0399 20.7464L32.0276 20.7004C32.0246 20.6884 32.0294 20.6809 32.0422 20.6779C32.1268 20.6607 32.2009 20.633 32.2645 20.5948C32.3034 20.5716 32.3229 20.5372 32.3229 20.4915L32.324 19.2722C32.324 19.2086 32.2926 19.1752 32.2297 19.1722L32.0545 19.1621C32.0491 19.1618 32.0438 19.1603 32.0391 19.1577C32.0343 19.1551 32.0302 19.1515 32.0271 19.1472C32.024 19.1429 32.0219 19.138 32.021 19.1328C32.0201 19.1276 32.0204 19.1223 32.022 19.1172L32.0377 19.0645C32.0403 19.056 32.0454 19.0486 32.0523 19.0433C32.0592 19.0381 32.0674 19.0352 32.0759 19.0353L32.5194 19.0263C32.538 19.0256 32.5566 19.0295 32.5734 19.0377C32.5903 19.0459 32.6049 19.0582 32.6159 19.0734L33.4614 20.2266C33.4943 20.2707 33.513 20.2659 33.5175 20.212C33.5445 19.9081 33.5389 19.6068 33.5007 19.3081C33.4981 19.2872 33.4913 19.267 33.4807 19.2489C33.47 19.2307 33.4557 19.215 33.4388 19.2027C33.4218 19.1903 33.4025 19.1817 33.382 19.1772C33.3616 19.1727 33.3404 19.1726 33.3199 19.1767C33.3005 19.1812 33.2829 19.1775 33.2672 19.1655C33.1676 19.0914 33.1799 19.0487 33.3042 19.0375C33.5026 19.0203 33.7069 19.0214 33.9173 19.0409C33.9345 19.0424 33.9461 19.0514 33.9521 19.0678L33.9678 19.106C33.9842 19.1472 33.9708 19.167 33.9274 19.1655C33.7559 19.161 33.6702 19.2276 33.6702 19.3654C33.6717 19.7935 33.671 20.2307 33.668 20.6768C33.6657 20.8954 33.6003 20.9163 33.4715 20.7397L32.5373 19.4619C32.5339 19.4575 32.5293 19.4543 32.5239 19.4526C32.5186 19.451 32.5129 19.451 32.5076 19.4528C32.5024 19.4545 32.4977 19.4578 32.4944 19.4623C32.4911 19.4667 32.4892 19.4721 32.489 19.4777Z" fill="white"/>
<path d="M4 19.1397V19.0689C4.21483 19.0517 4.43004 19.0487 4.64561 19.0599C4.66657 19.0614 4.68267 19.07 4.69389 19.0858C4.7186 19.1217 4.70999 19.1445 4.66807 19.1542L4.52772 19.1879C4.5208 19.1894 4.51428 19.1924 4.50858 19.1966C4.50287 19.2008 4.49812 19.2062 4.49463 19.2125C4.49114 19.2187 4.48898 19.2257 4.4883 19.2329C4.48761 19.24 4.48842 19.2473 4.49067 19.2542L4.80842 20.2366C4.83013 20.304 4.85109 20.3036 4.8713 20.2355L5.10147 19.4619C5.12168 19.3923 5.10971 19.3287 5.06554 19.271C5.00267 19.1902 4.91509 19.1464 4.80281 19.1397C4.79457 19.1389 4.7912 19.1348 4.7927 19.1273L4.79832 19.088C4.79936 19.0826 4.80218 19.0777 4.80628 19.0742C4.81039 19.0707 4.81551 19.0689 4.82077 19.0689L5.51354 19.0498C5.52223 19.0496 5.53084 19.0516 5.53849 19.0557C5.54614 19.0598 5.55257 19.0659 5.55713 19.0733C5.56169 19.0807 5.56421 19.0892 5.56444 19.0979C5.56467 19.1066 5.56261 19.1152 5.55846 19.1228C5.53001 19.1752 5.48585 19.201 5.42596 19.2003C5.41615 19.2002 5.40645 19.2024 5.39767 19.2068C5.38889 19.2111 5.38127 19.2174 5.37545 19.2252C5.36963 19.233 5.36578 19.2421 5.36422 19.2516C5.36265 19.2611 5.36342 19.2709 5.36646 19.28L5.65614 20.2074C5.68458 20.298 5.71228 20.2976 5.73923 20.2063L5.99523 19.3373C6.00207 19.3142 6.00014 19.2893 5.9898 19.2674C5.97947 19.2455 5.96143 19.228 5.93909 19.2182C5.90316 19.2033 5.86723 19.1935 5.8313 19.1891C5.80061 19.1846 5.77853 19.167 5.76505 19.1363C5.75981 19.1236 5.75944 19.1108 5.76393 19.0981C5.77441 19.0712 5.79462 19.0573 5.82456 19.0566H6.27818C6.44285 19.0558 6.45595 19.1 6.31747 19.1891L6.23439 19.243C6.19696 19.2669 6.17188 19.3006 6.15916 19.344L5.7527 20.7026C5.67935 20.9489 5.60337 20.9496 5.52477 20.7048L5.23733 19.8077C5.20365 19.7029 5.17258 19.7037 5.14414 19.81C5.06105 20.1244 4.9615 20.4661 4.84547 20.8351C4.83649 20.8635 4.80393 20.8703 4.74779 20.8553C4.73438 20.8518 4.72202 20.845 4.71182 20.8354C4.70163 20.8258 4.69392 20.8137 4.6894 20.8003L4.18863 19.2968C4.17665 19.2624 4.15532 19.2358 4.12463 19.2171L4 19.1397Z" fill="white"/>
<path d="M6.77918 20.573V19.2683C6.77918 19.2234 6.7571 19.1965 6.71293 19.1875L6.46928 19.1381C6.45731 19.1358 6.45132 19.1328 6.45132 19.1291L6.4502 19.0898C6.4502 19.0834 6.45278 19.0773 6.45738 19.0727C6.46198 19.0681 6.46825 19.0654 6.4749 19.0651L7.31139 19.0527C7.3316 19.0527 7.34096 19.0628 7.33946 19.0831L7.33609 19.1381C7.33459 19.1545 7.32561 19.1628 7.30914 19.1628C7.25525 19.1628 7.20322 19.1718 7.15307 19.1897C7.11115 19.2047 7.08982 19.2346 7.08907 19.2795C7.08683 19.701 7.08645 20.1419 7.08795 20.6022C7.08795 20.6831 7.15831 20.7122 7.29904 20.6898C7.30731 20.6885 7.31576 20.6902 7.32293 20.6945C7.33011 20.6988 7.33556 20.7055 7.33834 20.7134L7.3563 20.765C7.35864 20.7716 7.35936 20.7787 7.35838 20.7857C7.35741 20.7927 7.35477 20.7993 7.35069 20.805C7.34662 20.8107 7.34123 20.8154 7.33497 20.8186C7.32872 20.8218 7.32178 20.8234 7.31476 20.8234L6.58269 20.8245C6.47939 20.8245 6.46666 20.7901 6.54451 20.7212C6.57969 20.6898 6.62086 20.6756 6.66802 20.6786C6.74213 20.6823 6.77918 20.6471 6.77918 20.573Z" fill="white"/>
<path d="M18.226 20.0117H17.7051C17.6679 20.0117 17.6377 20.0419 17.6377 20.0791V20.1397C17.6377 20.1769 17.6679 20.2071 17.7051 20.2071H18.226C18.2633 20.2071 18.2934 20.1769 18.2934 20.1397V20.0791C18.2934 20.0419 18.2633 20.0117 18.226 20.0117Z" fill="white"/>
<path d="M30.1502 21.2452H30.093C30.1034 21.1471 30.1689 21.033 30.2895 20.9027C30.3291 20.8608 30.3201 20.8376 30.2625 20.8331C30.2139 20.8294 30.1708 20.8133 30.1334 20.7848C30.1136 20.7696 30.098 20.7495 30.0881 20.7265C30.0782 20.7035 30.0744 20.6784 30.077 20.6535C30.0796 20.6287 30.0885 20.6051 30.1029 20.5848C30.1173 20.5645 30.1367 20.5484 30.1592 20.5378C30.2326 20.5034 30.3044 20.503 30.3748 20.5367C30.4122 20.5547 30.4365 20.5835 30.4478 20.6232C30.5181 20.8739 30.419 21.0813 30.1502 21.2452Z" fill="white"/>
<path d="M36.0001 20.561V20.7754C35.9013 20.8458 35.8156 20.8559 35.743 20.8058C35.7199 20.7899 35.7012 20.7684 35.6888 20.7433C35.6764 20.7182 35.6706 20.6903 35.6721 20.6624C35.6736 20.6345 35.6822 20.6076 35.6972 20.5841C35.7122 20.5606 35.733 20.5414 35.7576 20.5284C35.822 20.494 35.9028 20.5048 36.0001 20.561Z" fill="white"/>
</g>
<circle cx="20" cy="20" r="19.5" stroke="black" stroke-opacity="0.05"/>
<defs>
<clipPath id="clip0_9_401237">
<rect width="32" height="2.24561" fill="white" transform="translate(4 19)"/>
</clipPath>
</defs>
</svg>
