<svg width="40" height="40" viewBox="0 0 40 40" fill="none" xmlns="http://www.w3.org/2000/svg">
<circle cx="20" cy="20" r="20" fill="#F6F8FA"/>
<g clip-path="url(#clip0_9_406843)">
<mask id="mask0_9_406843" style="mask-type:luminance" maskUnits="userSpaceOnUse" x="-71" y="5" width="128" height="30">
<path d="M-70.2427 5.00195H56.7776V34.9881H-70.2427V5.00195Z" fill="white"/>
</mask>
<g mask="url(#mask0_9_406843)">
<path d="M15.1358 32.1927L17.3883 32.2998L19.189 32.2142L16.5628 34.9883L15.1358 32.1927ZM23.0476 7.7294L20.47 7.854L23.1196 5.00195L24.5369 7.80143L23.0476 7.7294ZM23.2598 10.0169L18.1903 10.2622L20.2695 8.0662L21.6868 8.13433L24.6362 7.99222L25.7595 10.2135L23.3357 10.0967L23.2598 10.0169ZM24.9399 12.2479L15.899 12.6801L17.982 10.4802L23.9197 10.7664C23.8522 10.6833 23.7841 10.6016 23.7153 10.5211L25.8646 10.4179L26.9859 12.6295L25.1034 12.5399C25.0489 12.4406 24.9944 12.3433 24.9399 12.2479ZM25.9386 14.4964L13.6193 15.0883L15.7062 12.8826L25.5025 13.3537C25.4376 13.2083 25.3707 13.0649 25.302 12.9234L27.0911 12.8378L28.2124 15.0532L26.0748 14.95C26.032 14.7982 25.9872 14.6463 25.9386 14.4964ZM26.4233 16.78L11.3338 17.5042L13.4207 15.2985L26.2968 15.9176C26.2617 15.7288 26.2228 15.5399 26.178 15.355L28.3156 15.2537L29.435 17.4633L26.47 17.3212C26.4596 17.1395 26.4441 16.9591 26.4233 16.78ZM26.4467 19.0928L9.03849 19.9299L11.143 17.7067L26.4875 18.4426C26.4914 18.3121 26.4914 18.1817 26.4914 18.0513V17.8235L29.544 17.6775L30.679 19.9182L26.3746 19.7119C26.4038 19.5075 26.4291 19.3011 26.4467 19.0928ZM25.9444 21.5866L10.1443 22.3459L9.01318 20.111L26.1313 20.9345C26.1858 20.7281 26.2325 20.5198 26.2734 20.3095L30.6537 20.0993L28.5434 22.3303L25.7322 22.196C25.8081 21.9955 25.8782 21.7911 25.9444 21.5866ZM24.7822 24.1175L11.3688 24.7619L10.2533 22.5581L25.2513 23.2784C25.3526 23.0785 25.448 22.8754 25.5375 22.6691L28.3506 22.5328L26.2559 24.7443L24.4298 24.6587C24.5505 24.4815 24.6693 24.3024 24.7822 24.1175ZM22.6349 26.6892L12.5914 27.17L11.472 24.9624L23.7406 25.5522C23.8808 25.3887 24.0151 25.2193 24.1456 25.048L26.0573 24.9565L23.9626 27.1681L22.1715 27.0824C22.3312 26.9539 22.485 26.8235 22.6349 26.6892ZM17.8029 29.3913L13.814 29.584L12.6946 27.3764L21.2001 27.7852C21.3558 27.684 21.5096 27.5808 21.6595 27.4718L23.7718 27.3705L21.6829 29.5782L17.8029 29.3913ZM17.2208 31.8949L15.0385 32L13.9171 29.7865L17.8146 29.9753L21.4726 29.7982L19.3896 32L17.2208 31.8949Z" fill="#235492"/>
</g>
</g>
<circle cx="20" cy="20" r="19.5" stroke="black" stroke-opacity="0.05"/>
<defs>
<clipPath id="clip0_9_406843">
<rect width="21.6872" height="30" fill="white" transform="translate(9 5)"/>
</clipPath>
</defs>
</svg>
