<svg width="40" height="40" viewBox="0 0 40 40" fill="none" xmlns="http://www.w3.org/2000/svg">
<circle cx="20" cy="20" r="20" fill="#F6F8FA"/>
<g clip-path="url(#clip0_9_401758)">
<path d="M27.8174 29.9958C26.2431 31.0272 23.1217 31.3055 20.2174 29.8805C16.811 28.1365 13.6149 28.5708 12.0746 30.9865L11.8574 31.3869L12.1831 31.1494C14.0153 29.799 15.6981 29.4055 19.1724 31.1087C19.5321 31.3055 21.4321 32.2147 23.5492 32.2147C25.0556 32.2147 26.7114 31.7398 27.8921 30.1112L28.1431 29.7583L27.8174 29.9958Z" fill="#90C715"/>
<path d="M23.0805 14.3475C23.0805 14.4154 23.1144 14.4561 23.1144 14.5308C23.2922 15.0348 23.5124 15.5228 23.7726 15.9897C24.2069 16.7904 24.7226 17.5504 25.2247 18.2833C29.9951 24.8858 26.1747 28.8215 22.714 28.8215C19.2533 28.8215 15.433 24.845 20.2033 18.2833C20.8129 17.4827 21.3489 16.6288 21.8047 15.7318C21.9472 15.44 22.0965 15.1483 22.2051 14.8497C22.239 14.7479 22.3137 14.5986 22.3476 14.4561C22.3883 14.2729 22.4222 14.049 22.6055 13.9472C22.6733 13.9065 22.748 13.8725 22.8226 13.9065C22.8565 13.9065 22.8905 13.9472 22.8905 13.9472C23.0058 14.0897 23.0397 14.239 23.0805 14.3475Z" fill="#00A0DF"/>
<path d="M20.0132 26.2228C20.2914 26.5213 20.5764 26.7181 20.8207 26.786C20.9835 26.7521 21.0989 26.7181 21.2278 26.6164C21.3839 26.4535 21.3839 26.2839 21.3025 26.0871C19.891 24.9539 19.606 23.5221 20.3728 21.3574C19.4432 22.6535 18.7578 24.5535 19.9657 26.121C19.9657 26.1549 20.0132 26.2228 20.0132 26.2228Z" fill="#F0F3FA"/>
<path d="M16.8782 25.4289C16.8782 25.4289 11.1918 19.9528 15.5143 14.3003C19.5043 9.14314 18.215 7.10742 18.215 7.10742C18.215 7.10742 24.1661 12.3664 19.6943 17.2317C15.8807 21.3574 16.8782 25.4289 16.8782 25.4289Z" fill="#8DC6E8"/>
</g>
<circle cx="20" cy="20" r="19.5" stroke="black" stroke-opacity="0.05"/>
<defs>
<clipPath id="clip0_9_401758">
<rect width="18" height="26" fill="white" transform="translate(11 7)"/>
</clipPath>
</defs>
</svg>
