<svg width="40" height="40" viewBox="0 0 40 40" fill="none" xmlns="http://www.w3.org/2000/svg">
<circle cx="20" cy="20" r="20" fill="#702481"/>
<g clip-path="url(#clip0_9_387205)">
<path d="M6.64282 16.8223H9.07139V24.7151H6.64282V16.8223ZM12.7143 16.8223H15.1428V24.7151H12.7143V16.8223ZM9.67854 20.4651H12.1071V24.7151H9.67854V20.4651ZM27.8928 20.4651H30.3214V24.7151H27.8928V20.4651ZM15.75 16.8223H18.1785V21.0723H15.75V16.8223ZM21.8214 16.8223H24.25V21.0723H21.8214V16.8223ZM18.7857 16.8223H21.2143V24.7151H18.7857V16.8223ZM24.8571 16.8223H27.2857V24.7151H24.8571V16.8223ZM30.9285 16.8223H33.3571V24.7151H30.9285V16.8223Z" fill="white"/>
</g>
<circle cx="20" cy="20" r="19.5" stroke="#111122" stroke-opacity="0.05"/>
<defs>
<clipPath id="clip0_9_387205">
<rect width="28" height="9" fill="white" transform="translate(6 16.4648)"/>
</clipPath>
</defs>
</svg>
