<svg width="40" height="40" viewBox="0 0 40 40" fill="none" xmlns="http://www.w3.org/2000/svg">
<circle cx="20" cy="20" r="20" fill="#F6F8FA"/>
<g clip-path="url(#clip0_9_406945)">
<path d="M31.9957 27.7229C31.9957 27.7229 24.9333 27.7214 23.6327 27.7198C21.8407 27.7198 21.5851 26.017 21.5851 26.017L20.8002 21.4333H21.1707C21.1662 21.4333 21.2463 21.6087 21.3824 22.011C21.756 23.1255 22.7662 23.304 23.5601 23.3161C23.8762 23.3206 24.8032 23.3161 24.8032 23.3161L19.9942 15.0257L15.1715 23.3146C15.4785 23.3115 16.1832 23.3146 16.1832 23.3146C18.0267 23.3493 18.4108 22.4616 18.4909 22.2832C18.6059 22.0306 18.8176 21.4333 18.8176 21.4333H19.1866C19.1866 21.4333 18.6618 24.8147 18.3412 26.2378C17.9843 27.8197 16.2255 27.7198 16.2255 27.7198L8.00928 27.7183L20.0078 7L31.9957 27.7229Z" fill="#008147"/>
</g>
<circle cx="20" cy="20" r="19.5" stroke="black" stroke-opacity="0.05"/>
<defs>
<clipPath id="clip0_9_406945">
<rect width="24" height="20.7335" fill="white" transform="translate(8 7)"/>
</clipPath>
</defs>
</svg>
