<svg width="40" height="40" viewBox="0 0 40 40" fill="none" xmlns="http://www.w3.org/2000/svg">
<circle cx="20" cy="20" r="20" fill="#F6F8FA"/>
<g clip-path="url(#clip0_9_410163)">
<path d="M34.7897 19.9774C34.7897 23.9056 33.2293 27.6729 30.4516 30.4506C27.6739 33.2283 23.9066 34.7888 19.9784 34.7888C16.0501 34.7888 12.2828 33.2283 9.50514 30.4506C6.72747 27.6729 5.16699 23.9056 5.16699 19.9774C5.16699 16.0492 6.72747 12.2818 9.50514 9.50417C12.2828 6.7265 16.0501 5.16602 19.9784 5.16602C23.9066 5.16602 27.6739 6.7265 30.4516 9.50417C33.2293 12.2818 34.7897 16.0492 34.7897 19.9774ZM32.7149 19.9774C32.7149 18.3048 32.3854 16.6486 31.7454 15.1033C31.1053 13.5581 30.1671 12.154 28.9844 10.9713C27.8017 9.78863 26.3977 8.85047 24.8524 8.2104C23.3071 7.57033 21.6509 7.24089 19.9784 7.24089C16.6004 7.24089 13.3609 8.58277 10.9723 10.9713C8.58374 13.3599 7.24187 16.5995 7.24187 19.9774C7.24187 23.3553 8.58374 26.5949 10.9723 28.9835C13.3609 31.372 16.6004 32.7139 19.9784 32.7139C21.6509 32.7139 23.3071 32.3845 24.8524 31.7444C26.3977 31.1043 27.8017 30.1661 28.9844 28.9835C30.1671 27.8008 31.1053 26.3967 31.7454 24.8514C32.3854 23.3062 32.7149 21.65 32.7149 19.9774Z" fill="#231F20"/>
<path d="M27.4275 15.056C26.9367 14.9397 26.4038 15.101 26.1435 15.5562C26.0355 15.7447 25.988 15.9802 26.001 16.2627C26.0172 16.6171 26.0685 16.9842 26.3502 17.2163C26.5712 17.3986 26.8193 17.5605 27.0945 17.702C27.6528 17.9892 28.1772 18.237 28.6677 18.4452C28.9472 18.564 29.1593 18.6716 29.304 18.7681C30.2967 19.4292 30.5104 20.6225 30.4872 21.7493C30.4478 23.669 28.7985 24.5963 27.0548 24.5716C25.6167 24.5513 24.2104 23.8426 23.9307 22.316C23.8927 22.1087 23.8749 21.8625 23.8774 21.5772C23.8812 21.1727 23.8813 20.7608 23.8778 20.3416C23.8778 20.3258 23.8855 20.318 23.901 20.318L26.0018 20.3183C26.0183 20.3183 26.0265 20.3266 26.0265 20.3431C26.028 20.8018 26.0277 21.2622 26.0254 21.7242C26.0252 21.8095 26.0392 21.8907 26.0674 21.968C26.3104 22.6272 27.0717 22.7735 27.681 22.5586C28.2289 22.3655 28.2608 21.8892 28.2199 21.3935C28.17 20.7848 27.6492 20.4275 27.1515 20.1803C26.6985 19.9553 26.2328 19.7382 25.7588 19.5451C24.3405 18.9661 23.7439 17.6521 23.7788 16.1813C23.7898 15.7203 23.8937 15.2651 24.0904 14.8156C24.4722 13.9445 25.2225 13.3681 26.1679 13.1708C26.8922 13.0198 27.62 13.0311 28.3515 13.2046C29.6854 13.5215 30.2775 14.5737 30.3465 15.8757C30.3628 16.184 30.3663 16.6626 30.357 17.3116C30.357 17.3256 30.3499 17.3326 30.3357 17.3326H28.2233C28.2068 17.3326 28.1987 17.3243 28.1989 17.3078C28.1999 16.9251 28.1999 16.5498 28.1989 16.1821C28.1978 15.7141 27.9229 15.1733 27.4275 15.056Z" fill="#231F20"/>
<path d="M12.6066 24.7613C11.4182 24.6035 10.3097 23.8467 10.114 22.6051C10.0902 22.4546 10.0786 22.2068 10.0791 21.8618C10.0824 19.1251 10.0829 16.3925 10.0806 13.664C10.0806 13.6612 10.0811 13.6586 10.0822 13.6561C10.0832 13.6536 10.0847 13.6513 10.0865 13.6494C10.0884 13.6475 10.0907 13.6459 10.0931 13.6449C10.0956 13.6439 10.0982 13.6433 10.1009 13.6433L12.2579 13.643C12.2744 13.643 12.2826 13.6512 12.2826 13.6677C12.2826 16.4022 12.2825 19.1536 12.2822 21.9218C12.2822 22.3823 12.7712 22.6598 13.1762 22.5968C13.5355 22.5406 13.906 22.3055 13.906 21.9001C13.9055 19.0991 13.9057 16.3538 13.9067 13.6643C13.9067 13.6508 13.9135 13.6441 13.927 13.6441L16.0817 13.6426C16.0878 13.6426 16.0936 13.645 16.0979 13.6493C16.1022 13.6536 16.1046 13.6594 16.1046 13.6655C16.1021 16.4417 16.1022 19.2415 16.105 22.0647C16.1052 22.3307 16.0877 22.5507 16.0525 22.7247C15.7341 24.2926 14.05 24.9533 12.6066 24.7613Z" fill="#231F20"/>
<path d="M21.181 19.1033C21.1795 18.5648 20.8372 18.0221 20.2687 17.9588C19.636 17.8883 19.069 18.2505 18.9959 18.9015C18.9794 19.049 18.9807 19.2174 18.9997 19.4066C19.0293 19.7006 19.1148 19.9748 19.3435 20.1578C19.5735 20.3423 19.8099 20.4968 20.0527 20.6213C20.6297 20.9173 21.167 21.171 21.6648 21.3825C21.9235 21.4925 22.128 21.5966 22.2783 21.6949C22.9368 22.125 23.2675 22.7985 23.3924 23.5631C23.4657 24.0109 23.4887 24.436 23.4614 24.8385C23.3587 26.3561 22.21 27.2408 20.7944 27.4523C19.0904 27.7069 17.1355 27.021 16.888 25.0808C16.866 24.91 16.8567 24.6688 16.8599 24.357C16.8639 23.9723 16.8639 23.6104 16.8599 23.2714C16.8599 23.2687 16.8603 23.266 16.8613 23.2635C16.8623 23.261 16.8638 23.2587 16.8657 23.2568C16.8676 23.2549 16.8698 23.2534 16.8723 23.2523C16.8748 23.2513 16.8775 23.2508 16.8802 23.2508H18.9869C19.0004 23.2508 19.0073 23.2575 19.0075 23.271C19.011 23.6955 19.0104 24.127 19.0057 24.5655C19.0042 24.7055 19.0213 24.8239 19.057 24.9206C19.2952 25.5638 20.0699 25.6913 20.6425 25.4993C20.9983 25.38 21.1863 25.1326 21.2065 24.7571C21.2159 24.5801 21.2182 24.384 21.1867 24.2085C21.1068 23.7611 20.7198 23.4236 20.3298 23.2174C19.877 22.9779 19.4284 22.7655 18.9839 22.5803C18.6464 22.4398 18.4193 22.3344 18.3025 22.2641C17.6093 21.8469 17.1493 21.2356 16.9225 20.4304C16.5997 19.2855 16.732 17.9363 17.5465 17.0081C18.1195 16.3553 18.9374 16.0631 19.8029 16.0106C20.5938 15.963 21.433 16.0526 22.1122 16.4516C22.9514 16.9451 23.2863 17.8748 23.3298 18.8044C23.346 19.1511 23.3499 19.6303 23.3414 20.2418C23.3412 20.2565 23.3335 20.2639 23.3185 20.2639H21.202C21.188 20.2639 21.181 20.257 21.181 20.2433C21.182 19.8293 21.182 19.4493 21.181 19.1033Z" fill="#231F20"/>
</g>
<circle cx="20" cy="20" r="19.5" stroke="black" stroke-opacity="0.05"/>
<defs>
<clipPath id="clip0_9_410163">
<rect width="30" height="30" fill="white" transform="translate(5 5)"/>
</clipPath>
</defs>
</svg>
