<svg width="40" height="40" viewBox="0 0 40 40" fill="none" xmlns="http://www.w3.org/2000/svg">
<circle cx="20" cy="20" r="20" fill="#01ADBB"/>
<path d="M26.1199 16.5045C26.1545 16.5045 26.1718 16.4869 26.1718 16.4518L26.1701 12.2143C26.1701 12.2014 26.165 12.1891 26.1559 12.18C26.1468 12.1709 26.1344 12.1657 26.1215 12.1657L24.4394 12.1666C24.4305 12.1666 24.422 12.1631 24.4157 12.157C24.4095 12.1509 24.4059 12.1426 24.4059 12.1339V7.29946C24.4059 7.29146 24.4091 7.2838 24.4148 7.27814C24.4204 7.27249 24.4281 7.26932 24.4361 7.26932L29.2647 7.27015C29.2722 7.27015 29.2795 7.27306 29.2848 7.27825C29.2901 7.28343 29.2931 7.29046 29.2931 7.29778L29.2898 12.1155C29.2898 12.1219 29.2886 12.1282 29.2862 12.1341C29.2838 12.14 29.2803 12.1453 29.2758 12.1498C29.2714 12.1544 29.2661 12.1579 29.2603 12.1604C29.2545 12.1628 29.2483 12.1641 29.2421 12.1641L27.5826 12.1657C27.5748 12.1657 27.567 12.1673 27.5598 12.1703C27.5526 12.1734 27.5461 12.1778 27.5405 12.1834C27.535 12.189 27.5306 12.1956 27.5277 12.203C27.5247 12.2103 27.5231 12.2181 27.5231 12.226V17.6014C27.5231 17.6287 27.5095 17.6424 27.4821 17.6424L20.5076 17.6416C20.4757 17.6416 20.4598 17.6575 20.4598 17.6893V22.4233C20.4598 22.4328 20.4635 22.442 20.4701 22.4487C20.4767 22.4555 20.4857 22.4593 20.495 22.4593H27.5014C27.5069 22.4593 27.5122 22.4615 27.5162 22.4654C27.5201 22.4693 27.5223 22.4747 27.5223 22.4802V27.3398C27.5223 27.3548 27.5273 27.3694 27.5365 27.3815C27.5457 27.3936 27.5586 27.4024 27.5734 27.4068C29.1048 27.8606 29.994 29.3576 29.5711 30.9192C29.0964 32.6741 27.0802 33.5265 25.4911 32.6549C23.2321 31.4148 23.6515 28.1017 26.1199 27.4085C26.1478 27.4006 26.1617 27.3822 26.1617 27.3532L26.1625 23.6231C26.1625 23.6149 26.1593 23.607 26.1535 23.6012C26.1477 23.5954 26.1398 23.5921 26.1316 23.5921L13.4342 23.593C13.4264 23.593 13.419 23.596 13.4135 23.6015C13.408 23.607 13.4049 23.6145 13.4049 23.6223V27.7115C13.4049 27.7445 13.4214 27.7609 13.4543 27.7609L15.0887 27.7635C15.0978 27.7635 15.1065 27.7671 15.1129 27.7735C15.1194 27.78 15.123 27.7887 15.123 27.7978L15.1213 32.5284C15.1213 32.5331 15.1195 32.5376 15.1162 32.5409C15.1129 32.5442 15.1084 32.546 15.1037 32.546L10.3773 32.5452C10.3722 32.5452 10.3673 32.5431 10.3637 32.5395C10.3601 32.5359 10.358 32.531 10.358 32.5259V27.8103C10.358 27.7774 10.3745 27.7609 10.4074 27.7609L12.0175 27.7685C12.0284 27.7685 12.0388 27.7642 12.0465 27.7567C12.0542 27.7492 12.0585 27.739 12.0585 27.7283L12.0569 22.481C12.0569 22.4753 12.0592 22.4697 12.0632 22.4657C12.0673 22.4616 12.0729 22.4593 12.0786 22.4593H19.0448C19.0872 22.4593 19.1085 22.4381 19.1085 22.3956L19.1076 17.6859C19.1076 17.6802 19.1065 17.6746 19.1043 17.6693C19.1021 17.664 19.0989 17.6592 19.0949 17.6552C19.0908 17.6511 19.086 17.6479 19.0807 17.6457C19.0755 17.6435 19.0698 17.6424 19.0641 17.6424L12.0937 17.6416C12.083 17.6416 12.0728 17.6373 12.0653 17.6298C12.0578 17.6223 12.0535 17.612 12.0535 17.6014V12.4328C12.0535 12.4044 12.0398 12.3859 12.0125 12.3776C11.1099 12.1007 10.4942 11.53 10.1654 10.6653C9.89166 9.94778 9.96366 9.10045 10.3371 8.41555C11.336 6.58861 13.8713 6.53167 15.0058 8.23554C15.4587 8.91541 15.5776 9.82889 15.3156 10.5908C15.0086 11.4817 14.3895 12.0764 13.4585 12.3751C13.4306 12.384 13.4166 12.4032 13.4166 12.4328L13.4041 16.4727C13.4041 16.4807 13.4073 16.4884 13.4131 16.494C13.4189 16.4997 13.4268 16.5029 13.435 16.5029L26.1199 16.5045Z" fill="white"/>
<path d="M28.374 8.14746H25.328C25.3049 8.14746 25.2861 8.1662 25.2861 8.18933V11.2471C25.2861 11.2702 25.3049 11.2889 25.328 11.2889H28.374C28.3971 11.2889 28.4159 11.2702 28.4159 11.2471V8.18933C28.4159 8.1662 28.3971 8.14746 28.374 8.14746Z" fill="#01ADBB"/>
<path d="M26.8435 32.0395C27.8835 32.0395 28.7265 31.1965 28.7265 30.1565C28.7265 29.1165 27.8835 28.2734 26.8435 28.2734C25.8035 28.2734 24.9604 29.1165 24.9604 30.1565C24.9604 31.1965 25.8035 32.0395 26.8435 32.0395Z" fill="#01ADBB"/>
<circle cx="20" cy="20" r="19.5" stroke="black" stroke-opacity="0.05"/>
</svg>
