<svg width="40" height="40" viewBox="0 0 40 40" fill="none" xmlns="http://www.w3.org/2000/svg">
<circle cx="20" cy="20" r="20" fill="#F6F8FA"/>
<g clip-path="url(#clip0_9_388468)">
<path fill-rule="evenodd" clip-rule="evenodd" d="M5.24774 15H8.10954C8.50301 15.666 8.86194 16.3512 9.24198 17.025C9.29764 17.1113 9.33027 17.2188 9.40896 17.2879C9.81971 16.5202 10.2477 15.762 10.6738 15H13.6585C13.6124 15.1267 13.5376 15.2399 13.4742 15.357C12.6163 16.9079 11.7525 18.4568 10.8984 20.0115C11.8581 21.7466 12.8236 23.4798 13.7813 25.2169C12.8216 25.2188 11.86 25.2188 10.9003 25.2169C10.4589 24.4299 10.0232 23.6372 9.58555 22.8484C9.5414 22.7716 9.50685 22.6891 9.44735 22.6238C8.96751 23.4875 8.48958 24.3532 8.00781 25.2169C7.00781 25.2188 6.00781 25.2188 5.00781 25.2169C5.98798 23.4459 6.96942 21.6756 7.95215 19.906C7.12873 18.4107 6.29572 16.9175 5.47038 15.4242C5.39361 15.2841 5.30724 15.1478 5.24774 15ZM14.7122 15.0345C16.1902 15.0326 17.6681 15.0345 19.146 15.0345C19.2938 15.0384 19.4435 15.0269 19.5894 15.0576C20.3974 15.1363 21.2401 15.3666 21.837 15.9443C22.361 16.4357 22.6182 17.1478 22.6873 17.8503C22.764 18.6468 22.7007 19.4856 22.3418 20.215C22.0577 20.7965 21.5491 21.2495 20.9579 21.5086C20.2746 21.8061 19.5184 21.9079 18.7756 21.9002C18.313 21.906 17.8504 21.8944 17.3879 21.906L17.3744 21.904C17.3783 22.929 17.3744 23.9539 17.3763 24.977C17.3763 25.0672 17.3514 25.1536 17.3437 25.2418L17.29 25.1919C16.4953 25.1996 15.7026 25.1919 14.908 25.1958C14.8427 25.19 14.7717 25.2092 14.7084 25.1823C14.7161 21.7985 14.7084 18.4165 14.7122 15.0345ZM17.3763 17.3321C17.3751 18.0896 17.3751 18.8471 17.3763 19.6046C17.8581 19.6046 18.3399 19.6046 18.8216 19.6046C19.0807 19.6027 19.3514 19.5662 19.5798 19.4319C19.8312 19.2917 19.9656 19.0077 20.0001 18.7313C20.0424 18.3916 20.027 18.0134 19.8216 17.7255C19.6182 17.4395 19.2477 17.3397 18.9138 17.334C18.4013 17.3282 17.8888 17.3321 17.3763 17.3321Z" fill="black"/>
<path d="M19.5892 15.0577L19.6429 15.0385C24.7619 15.0366 29.879 15.0366 34.998 15.0385C34.5297 15.8869 34.0556 16.7334 33.5892 17.5817C32.7466 19.0923 31.9116 20.6067 31.0728 22.1192C30.5066 23.1422 29.9366 24.1614 29.3761 25.1883C28.5738 25.2055 27.7715 25.1902 26.9692 25.1959C23.7926 25.1959 20.616 25.194 17.4395 25.1959L17.3838 25.2075C17.3895 24.1076 17.3819 23.0059 17.3876 21.9061C17.8502 21.8946 18.3128 21.9061 18.7753 21.9004C19.5181 21.908 20.2744 21.8063 20.9577 21.5088C21.5489 21.2497 22.0575 20.7967 22.3416 20.2151C22.7005 19.4858 22.7638 18.647 22.6871 17.8504C22.618 17.148 22.3608 16.4359 21.8368 15.9445C21.2398 15.3668 20.3972 15.1364 19.5892 15.0577Z" fill="#74777B"/>
</g>
<circle cx="20" cy="20" r="19.5" stroke="black" stroke-opacity="0.05"/>
<defs>
<clipPath id="clip0_9_388468">
<rect width="30" height="10.2495" fill="white" transform="translate(5 15)"/>
</clipPath>
</defs>
</svg>
