<svg width="40" height="40" viewBox="0 0 40 40" fill="none" xmlns="http://www.w3.org/2000/svg">
<circle cx="20" cy="20" r="20" fill="#F6F8FA"/>
<g clip-path="url(#clip0_9_404013)">
<path fill-rule="evenodd" clip-rule="evenodd" d="M12.2493 20.0953L15.9014 25.545H12.1279L11.1371 23.8786C10.7866 23.2911 10.6181 22.9661 10.389 22.3962C10.329 22.5281 10.2676 22.6586 10.205 22.7879C10.141 22.9171 10.0751 23.0457 10.0072 23.1736C9.9406 23.3003 9.87141 23.4262 9.79961 23.5516C9.72781 23.6769 9.6547 23.8009 9.58029 23.9236L8.73042 25.545H5.00392L8.69517 20.0953L5 15.2624H8.64426C8.64426 15.2624 10.297 17.6084 10.5261 18.1351C10.6926 17.7474 12.2023 15.2624 12.2023 15.2624H15.9014L12.2493 20.0953ZM24.78 18.9067C24.78 19.0829 24.7689 19.2552 24.7467 19.4236C24.7441 19.4419 24.7415 19.4602 24.7389 19.4785C24.6312 20.2402 24.3003 20.904 23.7715 21.4386C23.1155 22.0888 22.2774 22.3805 20.9341 22.3805H19.1188V25.545H15.8995V15.2624H20.1723C21.8349 15.2624 22.5966 15.4171 23.2996 15.8949C24.2454 16.5294 24.78 17.6103 24.78 18.9067ZM21.6469 18.893C21.6469 18.1508 21.22 17.7944 20.3035 17.7944H19.1188V19.9563H20.3642C21.265 19.9719 21.6469 19.6312 21.6469 18.893ZM34.9922 20.4204C34.9922 23.6456 32.9321 25.7918 29.8812 25.7918C26.7696 25.7918 24.6802 23.6632 24.6802 20.4047C24.6802 20.0855 24.6997 19.7761 24.7389 19.4785C24.7415 19.4602 24.7441 19.4419 24.7467 19.4236C25.1247 16.7232 27.0829 15 29.9125 15C32.9478 15 34.9922 17.1932 34.9922 20.4204ZM31.7591 20.2813C31.7591 18.5522 31.1031 17.532 29.8675 17.532C28.6162 17.532 27.9289 18.6129 27.9289 20.3577C27.9289 22.1945 28.5868 23.2617 29.8812 23.2617C31.1482 23.2617 31.7591 22.2258 31.7591 20.2813Z" fill="#CC0000"/>
</g>
<circle cx="20" cy="20" r="19.5" stroke="black" stroke-opacity="0.05"/>
<defs>
<clipPath id="clip0_9_404013">
<rect width="30" height="10.8094" fill="white" transform="translate(5 15)"/>
</clipPath>
</defs>
</svg>
