<svg width="40" height="40" viewBox="0 0 40 40" fill="none" xmlns="http://www.w3.org/2000/svg">
<circle cx="20" cy="20" r="20" fill="#D92231"/>
<g clip-path="url(#clip0_9_396226)">
<path d="M27.8306 19.9967C27.8306 21.4573 26.6369 22.5393 24.9515 22.5393C23.2331 22.5393 22.0663 21.5041 22.0663 19.9982C22.0663 18.5737 23.2175 17.4551 24.9515 17.4551C26.6369 17.4551 27.8306 18.5366 27.8306 19.9967ZM26.3424 19.9972C26.3424 19.1432 25.9619 18.3859 24.9521 18.3859C23.9423 18.3859 23.5533 19.1437 23.5533 19.9972C23.5533 20.8512 23.9423 21.609 24.9521 21.609C25.9619 21.609 26.3424 20.8512 26.3424 19.9972ZM17.6695 19.6465C17.5996 18.9859 17.3482 18.3538 16.881 17.9935C16.4306 17.6459 15.8265 17.4591 15.0788 17.4591C14.5278 17.4591 13.8309 17.623 13.3185 17.9889C12.706 18.4256 12.2327 19.1086 12.2327 20.0272C12.2327 20.8196 12.5289 21.4578 13.0625 21.8899C13.585 22.3133 14.3244 22.5444 15.2414 22.5444C15.979 22.5444 16.8704 22.3026 17.2526 22.098C17.3867 22.0263 17.4281 21.9952 17.3934 21.8782L17.1548 21.2919C17.1269 21.1952 17.0039 21.1708 16.9045 21.214C16.7368 21.2853 16.6111 21.3418 16.4406 21.3962C16.1109 21.5021 15.7689 21.5743 15.4431 21.5743C14.758 21.5743 14.3685 21.4125 14.0701 21.1143C13.8801 20.925 13.7672 20.786 13.7326 20.5086H17.4879C17.6248 20.5086 17.6863 20.4262 17.6863 20.2868V20.0501C17.6863 19.9346 17.6807 19.7549 17.6695 19.6465ZM16.3428 19.4959H13.7331C13.7611 19.3315 13.8147 19.2058 13.8997 19.0572C14.1327 18.65 14.5758 18.3905 15.1263 18.3905C15.8813 18.3905 16.3428 18.8353 16.3428 19.4959ZM19.2711 18.1594C19.6986 17.681 20.1523 17.4632 21.2437 17.4632C21.5008 17.4632 21.816 17.4887 22.0138 17.5294C22.144 17.5558 22.1635 17.6439 22.1395 17.7569L22.0099 18.3096C21.9797 18.4129 21.9473 18.4424 21.8534 18.4424C21.8389 18.4424 21.8115 18.4404 21.7774 18.4368C21.6261 18.4201 21.4742 18.4087 21.322 18.4027C20.7793 18.4027 20.4295 18.5198 20.2362 18.6999C20.0121 18.9086 20.0043 19.2175 20.0043 19.7702V22.2894C20.0043 22.4512 19.9227 22.5418 19.7226 22.5418H19.1638C18.9788 22.5418 18.8989 22.4619 18.8844 22.2899V19.8155C18.8838 18.9371 18.9436 18.5264 19.2711 18.1594ZM9.38381 19.2363C9.57772 19.0623 10.1885 18.4485 10.6892 17.6296C10.773 17.4892 10.8479 17.4551 10.9608 17.4551H12.0433C12.1265 17.4551 12.2265 17.4902 12.1718 17.6296C11.8035 18.5798 10.6875 19.5687 10.222 19.9997C10.7306 20.417 11.7348 21.3891 12.1584 22.3576C12.1964 22.4441 12.1779 22.5444 11.9656 22.5444H10.8558C10.7401 22.5444 10.6512 22.5342 10.5735 22.3698C10.298 21.7744 9.87502 21.1738 9.38381 20.7631C8.8479 21.2568 8.27175 21.8426 7.99681 22.3698C7.92975 22.4991 7.86269 22.5444 7.71628 22.5444H6.69866C6.63105 22.5444 6.56175 22.4751 6.60646 22.3693C6.90822 21.6486 7.51902 20.6746 8.38184 19.9997C7.70455 19.2887 6.85625 18.3594 6.59919 17.6296C6.56008 17.5202 6.62769 17.4551 6.72213 17.4551H7.83643C7.96608 17.4551 8.03202 17.5014 8.0974 17.6296C8.26672 17.964 9.07813 18.9218 9.38381 19.2363Z" fill="white"/>
<path d="M30.6236 19.2368C30.818 19.0633 31.4283 18.4495 31.929 17.6306C32.0128 17.4902 32.0883 17.4561 32.2006 17.4561H33.283C33.3663 17.4561 33.4663 17.4907 33.4121 17.6306C33.0433 18.5808 31.9273 19.5696 31.4618 20.0007C31.9703 20.418 32.9745 21.3901 33.3981 22.3581C33.4367 22.4451 33.4177 22.5453 33.2053 22.5453H32.0955C31.9804 22.5453 31.891 22.5352 31.8133 22.3708C31.5384 21.7753 31.1148 21.1743 30.6236 20.7641C30.0882 21.2578 29.5115 21.843 29.2366 22.3708C29.1695 22.5 29.1025 22.5453 28.956 22.5453H27.9379C27.8703 22.5453 27.801 22.4761 27.8457 22.3698C28.1474 21.6496 28.7582 20.675 29.621 20.0007C28.9438 19.2897 28.0955 18.3604 27.8384 17.6306C27.7993 17.5207 27.8675 17.4561 27.9613 17.4561H29.0756C29.2053 17.4561 29.2712 17.5019 29.3366 17.6306C29.5059 17.965 30.3179 18.9218 30.6236 19.2368Z" fill="white"/>
</g>
<circle cx="20" cy="20" r="19.5" stroke="black" stroke-opacity="0.05"/>
<defs>
<clipPath id="clip0_9_396226">
<rect width="28" height="6" fill="white" transform="translate(6 17)"/>
</clipPath>
</defs>
</svg>
