<svg width="40" height="40" viewBox="0 0 40 40" fill="none" xmlns="http://www.w3.org/2000/svg">
<circle cx="20" cy="20" r="20" fill="#0085B0"/>
<g clip-path="url(#clip0_9_412251)">
<path d="M25.2246 22.2772C24.5509 22.8494 23.8199 23.2139 22.801 23.2139C20.9611 23.2139 19.8766 22.0452 19.8766 20.3377C19.8766 18.6631 21.0434 17.4282 22.6943 17.4282C24.403 17.4282 25.4457 18.7711 25.4457 20.429C25.4457 20.636 25.4296 20.9227 25.4296 20.9227H21.1508C21.3147 21.7347 21.8078 22.1699 22.8016 22.1699C23.4998 22.1699 23.9929 21.8877 24.4281 21.482L25.2246 22.2772ZM21.1585 19.8729H24.1973C24.0578 19.0359 23.5075 18.4889 22.7026 18.4889C21.865 18.4889 21.3308 19.0527 21.1585 19.8736V19.8729ZM13.8724 22.0953H13.8312C13.5188 22.0953 13.3465 21.6228 13.0341 20.7774L12.5249 19.3599C12.0492 18.0337 11.5555 17.4372 10.4466 17.4372C9.51057 17.4372 9.03421 18.0093 8.4505 18.7962L8.032 19.3683L6.6685 17.4282H5.21436L7.30107 20.2876L6.48786 21.3901C6.06871 21.9539 5.86428 22.1776 5.50236 22.1776H5.21436V23.2139H5.78136C6.38114 23.2139 6.80028 23.0069 7.16157 22.5009L8.00693 21.1831L9.4945 23.2139H10.9564L8.73014 20.2632L9.27207 19.5335C9.76514 18.8624 10.003 18.5474 10.4138 18.5474C10.8574 18.5474 11.0791 18.9614 11.4488 19.9231L12.073 21.5315C12.4266 22.4682 12.7801 23.1644 13.4121 23.1644H13.4944L13.1742 23.9763C12.9274 24.6147 12.6895 24.7323 12.0235 24.7323H11.6429V25.7853H12.1553C13.1324 25.7853 13.8312 25.5764 14.2831 24.308L16.6977 17.4282H15.3921L13.8724 22.0953ZM34.7858 23.2139V22.1776L34.5248 22.1859C34.1667 22.1859 33.979 21.9957 33.979 21.5727V19.6499C33.979 18.2073 33.1317 17.4282 31.9418 17.4282C31.2899 17.4282 30.7441 17.6602 30.3694 18.0749C29.9939 17.6686 29.4481 17.4282 28.7963 17.4282C27.5009 17.4282 26.6363 18.2735 26.6363 19.6499V23.2139H27.7144V19.6827C27.7144 19.1189 28.0795 18.5384 28.7963 18.5384C29.5137 18.5384 29.6429 19.1189 29.6429 19.6827V23.2139H30.9286V19.6827C30.9286 19.1189 31.1999 18.5384 31.9013 18.5384C32.602 18.5384 32.773 19.1189 32.773 19.6827V21.5476C32.773 22.7002 33.2455 23.2139 34.2156 23.2139H34.7858ZM18.9278 23.2139C17.9179 23.2139 17.4286 22.7163 17.4286 21.5064V14.2139H18.7144V21.5064C18.7144 21.9706 18.9181 22.1532 19.2929 22.1532H19.3572V23.2139H18.9278Z" fill="white"/>
</g>
<circle cx="20" cy="20" r="19.5" stroke="black" stroke-opacity="0.05"/>
<defs>
<clipPath id="clip0_9_412251">
<rect width="30" height="12" fill="white" transform="translate(5 14)"/>
</clipPath>
</defs>
</svg>
