<svg width="40" height="40" viewBox="0 0 40 40" fill="none" xmlns="http://www.w3.org/2000/svg">
<circle cx="20" cy="20" r="20" fill="#F6F8FA"/>
<path d="M29.4145 25.0398C28.302 27.2218 26.5004 28.9615 24.2983 29.9801C22.0962 30.9987 19.6212 31.2372 17.2697 30.6576C14.9181 30.0779 12.8263 28.7135 11.3294 26.783C9.83241 24.8526 9.01696 22.4678 9.01368 20.0107C9.0104 17.5537 9.81948 15.1666 11.3113 13.2321C12.8031 11.2975 14.8912 9.92734 17.2412 9.34119C19.5911 8.75504 22.0669 8.9868 24.2716 9.99934C26.4764 11.0119 28.2827 12.7466 29.401 14.9255L28.8202 15.2684C27.7779 13.2182 26.0874 11.583 24.0201 10.6254C21.9528 9.66773 19.6286 9.44316 17.4205 9.9877C15.2124 10.5322 13.2485 11.8143 11.8441 13.6281C10.4397 15.4419 9.67624 17.6823 9.67624 19.9895C9.67624 22.2967 10.4397 24.5371 11.8441 26.3509C13.2485 28.1647 15.2124 29.4468 17.4205 29.9913C19.6286 30.5358 21.9528 30.3113 24.0201 29.3536C26.0874 28.396 27.7779 26.7609 28.8202 24.7106L29.4145 25.0398Z" fill="#E30012"/>
<path d="M15.7662 16.5713V17.257H14.4156V17.6959H15.4285V18.2924H14.4156V19.3141H13.7402V16.5713H15.7662ZM17.1169 17.257V18.3747C17.1169 18.6147 17.2789 18.7381 17.5018 18.7381C17.6234 18.7381 17.6841 18.7039 17.7922 18.649V17.257H18.4675V19.3141H17.7922V19.2044C17.6504 19.273 17.495 19.3141 17.3397 19.3141C16.7995 19.3141 16.4415 18.9507 16.4415 18.3953V17.257H17.1169ZM27.2467 17.257V18.3747C27.2467 18.6147 27.4088 18.7381 27.6317 18.7381C27.7532 18.7381 27.814 18.7039 27.9221 18.649V17.257H28.5974V19.3141H27.9221V19.2044C27.7802 19.273 27.6249 19.3141 27.4696 19.3141C26.9293 19.3141 26.5714 18.9507 26.5714 18.3953V17.257H27.2467ZM25.2208 23.4284V22.3107C25.2208 22.0707 25.0587 21.9473 24.8358 21.9473C24.7143 21.9473 24.6535 21.9816 24.5454 22.0364V23.4284H23.8701V21.3713H24.5454V21.481C24.6872 21.4124 24.8426 21.3713 24.9979 21.3713C25.5382 21.3713 25.8961 21.7347 25.8961 22.2901V23.4284H25.2208ZM19.7506 19.3141H19.1428V16.9141L19.8182 16.5713V19.3141H19.7506ZM21.081 19.3141H20.4935V16.9141L21.1688 16.5713V19.3141H21.081ZM23.8701 16.5713V17.257H23.1948V19.3141H22.5195V17.257H21.8441V16.5713H23.8701ZM25.2208 17.3667C25.3153 17.2776 25.5044 17.257 25.6259 17.257C25.7137 17.257 25.8015 17.2776 25.8961 17.2776V17.8673H25.5787C25.4504 17.8673 25.3356 17.881 25.2208 17.9359V19.3141H24.5454V17.257H25.2208V17.3667ZM30.3532 17.257C30.5761 17.257 30.7854 17.3256 30.9813 17.4216V17.9976C30.8004 17.8751 30.5906 17.804 30.3735 17.7919C30.1101 17.7919 29.948 17.9907 29.948 18.265C29.948 18.5393 30.1169 18.7381 30.3735 18.7381C30.5761 18.7381 30.7719 18.649 30.961 18.5736V19.1496C30.7719 19.2456 30.5491 19.3141 30.333 19.3141C29.7792 19.3141 29.2727 18.889 29.2727 18.3061C29.2727 17.689 29.7724 17.257 30.3532 17.257ZM27.6519 21.3713C27.8748 21.3713 28.0841 21.4399 28.28 21.5359V22.1119C28.0991 21.9893 27.8893 21.9183 27.6722 21.9061C27.4088 21.9061 27.2467 22.105 27.2467 22.3793C27.2467 22.6536 27.4156 22.8524 27.6722 22.8524C27.8748 22.8524 28.0909 22.7633 28.28 22.6879V23.2639C28.0782 23.3658 27.857 23.422 27.6317 23.4284C27.0779 23.4284 26.5714 23.0033 26.5714 22.4204C26.5714 21.8033 27.0711 21.3713 27.6519 21.3713ZM31.2987 16.9141L31.974 16.5713V18.0113H32.0348L32.6493 17.257H33.3246L32.4737 18.3061L33.3246 19.3141H32.6493L32.0348 18.5599H31.974V19.3141H31.2987V16.9141ZM14.9153 20.6856H15.307L16.4415 23.4284H15.8337L15.6109 22.873H14.5709L14.348 23.4284H13.7402L14.8748 20.6856H14.9153ZM15.3678 22.2901L15.0774 21.5839L14.7937 22.2901H15.3678ZM17.6976 23.4284H17.1169V20.9599L17.7922 20.6856V23.4284H17.6976ZM19.0483 23.4284H18.4675V20.9736L19.1428 20.6856V23.4284H19.0483ZM19.8182 23.3599V21.3713H20.4935V23.4284H19.8182V23.3599ZM28.5974 22.3999C28.5974 21.8376 29.0566 21.3713 29.6104 21.3713C30.2182 21.3713 30.6234 21.8719 30.6234 22.4684V22.633H29.2727C29.2727 22.825 29.6104 22.8593 29.7454 22.8593C29.9953 22.8593 30.2182 22.7839 30.4478 22.6947V23.2639C30.2191 23.3712 29.9703 23.4273 29.7184 23.4284C29.1106 23.4284 28.5974 23.0719 28.5974 22.3999ZM29.2727 22.1461H29.948C29.948 22.0021 29.7927 21.9199 29.6104 21.9199C29.3808 21.9199 29.2727 22.057 29.2727 22.1461ZM23.1948 23.4284V22.0776C23.1948 22.0776 23.2218 21.3713 22.2426 21.3713C21.3849 21.3713 21.2904 21.6936 21.2904 21.6936L21.601 21.9679C21.601 21.9679 21.8374 21.8444 22.0872 21.8376C22.2493 21.8376 22.5195 21.865 22.5195 22.1187C22.5195 22.1187 21.1688 22.2284 21.1688 22.7701C21.1688 23.1747 21.3849 23.4284 21.8576 23.4284C22.1953 23.4284 22.5195 23.2021 22.5195 23.2021V23.4284H23.1948ZM22.5195 22.6536C22.5195 22.6536 22.4789 23.065 22.1008 23.0444C21.7428 23.0444 21.628 22.7701 21.8104 22.6604C22.0062 22.5233 22.3979 22.3999 22.5195 22.6604V22.6536Z" fill="#2B2A29"/>
<path d="M20.156 21.3713C20.3425 21.3713 20.4937 21.2178 20.4937 21.0284C20.4937 20.839 20.3425 20.6855 20.156 20.6855C19.9695 20.6855 19.8184 20.839 19.8184 21.0284C19.8184 21.2178 19.9695 21.3713 20.156 21.3713Z" fill="url(#paint0_linear_9_405626)"/>
<circle cx="20" cy="20" r="19.5" stroke="black" stroke-opacity="0.05"/>
<defs>
<linearGradient id="paint0_linear_9_405626" x1="39.0651" y1="40.5713" x2="39.0651" y2="41.257" gradientUnits="userSpaceOnUse">
<stop offset="1" stop-color="#181B1E"/>
</linearGradient>
</defs>
</svg>
