<svg width="40" height="40" viewBox="0 0 40 40" fill="none" xmlns="http://www.w3.org/2000/svg">
<circle cx="20" cy="20" r="20" fill="#FC3F1D"/>
<path d="M18.0061 25.6313L10.0076 10.0485C9.99123 10.0162 10.0013 10 10.0377 10H14.1172C14.1423 10 14.1607 10.0109 14.1726 10.0328C16.2977 13.9734 18.465 17.9955 20.6745 22.0991C21.1651 23.01 21.545 24.0849 21.6482 25.0668C21.6897 25.4627 21.7088 25.9132 21.7056 26.4185C21.6947 28.2899 21.692 30.1292 21.6974 31.9364C21.6974 31.94 21.6967 31.9435 21.6954 31.9468C21.6941 31.9501 21.6921 31.9532 21.6896 31.9557C21.6871 31.9582 21.6842 31.9602 21.681 31.9616C21.6777 31.963 21.6743 31.9637 21.6708 31.9637L18.0812 31.963C18.0512 31.963 18.0361 31.948 18.0361 31.9179V25.7536C18.0361 25.7109 18.0258 25.6689 18.0061 25.6313Z" fill="white"/>
<path d="M20.2406 20.2158L24.9624 10.0137C24.9643 10.0096 24.9673 10.0062 24.9711 10.0038C24.9748 10.0014 24.9792 10.0001 24.9836 10H28.9873C28.9913 9.99996 28.9953 10.0009 28.9989 10.0029C29.0025 10.0048 29.0055 10.0076 29.0077 10.011C29.0098 10.0144 29.0111 10.0184 29.0114 10.0224C29.0116 10.0265 29.0109 10.0305 29.0091 10.0342L24.2866 20.2363C24.2847 20.2404 24.2817 20.2438 24.278 20.2462C24.2742 20.2486 24.2699 20.2499 24.2654 20.25H20.2625C20.2584 20.25 20.2544 20.2491 20.2508 20.2471C20.2473 20.2452 20.2442 20.2424 20.2421 20.239C20.2399 20.2356 20.2386 20.2316 20.2383 20.2276C20.2381 20.2235 20.2389 20.2195 20.2406 20.2158Z" fill="white"/>
<circle cx="20" cy="20" r="19.5" stroke="black" stroke-opacity="0.05"/>
</svg>
