<svg width="40" height="40" viewBox="0 0 40 40" fill="none" xmlns="http://www.w3.org/2000/svg">
<ellipse cx="20" cy="19.9113" rx="20" ry="19.9113" fill="black"/>
<path d="M26.6713 22.3212C26.2763 22.5569 25.8958 22.8189 25.4893 23.0328C24.4074 23.5897 23.2496 23.9884 22.0521 24.2164C21.1 24.4087 20.1612 24.3954 19.2182 24.2743C18.0822 24.1284 16.9316 24.055 15.8986 23.4477C14.792 22.7973 13.8356 22.0329 13.2939 20.8374C13.2249 20.6852 13.202 20.4786 13.023 20.3793C13.0156 20.3336 13.0082 20.288 13.0008 20.2423C13.0024 20.0569 12.9576 19.874 12.8704 19.7099C12.8674 19.6482 12.861 19.5866 12.8513 19.5256C12.6703 18.6273 12.6518 17.7043 12.7963 16.7996C12.8602 16.3607 13.1062 15.9932 13.1702 15.565C13.3126 15.0749 13.6704 14.6886 13.8399 14.2121C13.9178 13.9932 14.0925 13.8489 14.2348 13.6782C14.5313 13.3227 14.9582 13.1162 15.2731 12.7826C15.4779 12.6394 15.6827 12.4962 15.8875 12.3529L15.8874 12.3535C16.0882 12.2875 16.2766 12.1889 16.4447 12.0618C16.5758 12.0519 16.6738 11.9696 16.7859 11.9156C17.2459 11.694 17.7218 11.4639 18.2214 11.4041C20.0358 11.1866 21.8531 11.0597 23.5724 11.8979C23.6237 12.0115 23.8012 11.9973 23.8333 12.161C23.5484 12.5033 23.2567 12.8538 22.9674 13.2015C23.0795 13.321 23.1771 13.4252 23.2743 13.5291C23.584 13.3504 23.8426 13.0966 24.0258 12.7916L24.0275 12.7895C24.1401 12.7242 24.228 12.6242 24.2777 12.5047C24.5219 12.3786 24.6429 12.5977 24.7857 12.7026C25.5047 13.2311 26.1082 13.8849 26.7432 14.5042C26.8152 14.6165 26.8872 14.7288 26.9764 14.8678C26.5118 15.1848 26.0566 15.4955 25.6108 15.7997C25.6116 15.9299 25.7315 16.0158 25.6771 16.1365C25.5781 16.0868 25.5677 15.9351 25.4006 15.9247C23.9385 16.8885 22.457 17.8652 20.9754 18.8417C19.6084 19.7428 18.2412 20.6436 16.8738 21.5443C16.7067 21.6543 16.4995 21.7504 16.7885 22.0233C19.7762 20.1427 22.7666 18.2603 25.7597 16.3763C25.7227 16.2795 25.6969 16.2121 25.6711 16.1447C25.7851 16.0965 25.8273 16.2683 25.8982 16.2439C26.8898 15.6214 27.8469 15.0206 28.8235 14.4076C28.6765 14.2142 28.6201 14.0332 28.4544 13.9062C28.1959 14.0727 27.9462 14.2336 27.6861 14.4012C27.5152 14.2057 27.3542 14.0215 27.1932 13.8373C27.1766 13.7655 27.1503 13.6963 27.115 13.6314C26.5502 12.8645 26.0915 12.0142 25.3222 11.4411C25.365 11.2133 25.5935 11.1433 25.63 10.9327C25.4784 10.83 25.376 10.6659 25.1884 10.5956C25.0746 10.7142 24.9638 10.8296 24.8455 10.9527C24.7423 10.9156 24.6499 10.8824 24.5575 10.8491C24.4437 10.7031 24.2833 10.5996 24.1024 10.5555C23.4695 10.1446 22.7447 10.0284 22.0191 9.88923C20.2709 9.55396 18.5709 9.73242 16.8956 10.2802C15.8475 10.6125 14.8814 11.1584 14.0597 11.8829C14.0212 11.8903 13.9856 11.9085 13.9572 11.9352C13.9289 11.962 13.9088 11.9963 13.8995 12.034C12.881 12.7458 12.2773 13.7519 11.8349 14.8725C11.8238 14.8999 11.8127 14.9272 11.8016 14.9546C11.6961 15.1052 11.6477 15.2878 11.6648 15.4702C11.4985 15.8767 11.3493 16.2874 11.3427 16.7336C11.2524 16.9752 11.2767 17.2328 11.2355 17.4813C11.1002 18.3851 11.1966 19.3082 11.516 20.1655C11.5349 20.1929 11.5539 20.2203 11.5728 20.2477C11.5722 20.2478 11.5718 20.2476 11.5712 20.2477C11.4879 20.5141 11.7657 20.6746 11.7781 20.899C11.8226 21.7034 12.4003 22.2547 12.827 22.8234C13.2164 23.3423 13.7524 23.7979 14.3384 24.1851C15.6439 25.0476 16.9925 25.7069 18.596 25.7639C19.1472 25.7834 19.7029 25.7236 20.2439 25.7755C21.2306 25.8703 22.1755 25.8492 23.0965 25.4299C23.3657 25.3073 23.5849 25.08 23.88 25.0345C24.4194 24.9512 24.8523 24.5989 25.3709 24.4819C25.8296 24.3783 26.0922 23.9372 26.6092 23.8398C26.4695 24.2077 26.2653 24.5202 26.2169 24.8828C26.1816 24.888 26.1647 24.904 26.1826 24.9402C26.1746 24.9432 26.1677 24.9484 26.1625 24.9552C26.1573 24.9619 26.1542 24.97 26.1534 24.9784C25.8306 25.1627 25.9642 25.4857 25.9124 25.7525C25.6222 26.1374 25.2469 26.456 25.0096 26.8822C24.996 26.8868 24.9836 26.8943 24.9732 26.904C24.9627 26.9138 24.9544 26.9256 24.9489 26.9387C24.9434 26.9518 24.9407 26.9659 24.941 26.9801C24.9414 26.9943 24.9447 27.0083 24.9509 27.0211C24.924 27.0599 24.8971 27.0987 24.8702 27.1375C24.4203 27.2042 24.2411 27.638 23.8883 27.8536C23.3952 28.1551 22.9614 28.5255 22.3309 28.4516C22.2743 28.4424 22.2162 28.4474 22.1621 28.4662C22.1079 28.485 22.0594 28.517 22.021 28.5592C21.6099 29.1068 20.9531 29.0923 20.3975 29.151C19.2066 29.2767 18.0232 29.1898 16.9213 28.5969C16.4666 28.3522 15.941 28.2363 15.4859 28.0754C15.3557 27.9393 15.5501 27.9197 15.5266 27.8283C15.4538 27.7477 15.3812 27.6671 15.3256 27.6055C14.6373 27.7019 14.5174 27.1153 14.206 26.7747C14.1161 26.7288 14.0121 26.7176 13.9143 26.7433L13.9143 26.7432L13.9025 26.7309C13.9034 26.6855 13.8795 26.6676 13.8355 26.6719L13.8109 26.655C13.7946 26.6338 13.7783 26.6126 13.762 26.5915C13.5615 26.2131 13.2975 25.8673 13.1613 25.4556C13.1785 25.2107 13.002 25.0522 12.8781 24.8551C12.9141 24.7879 13.0046 24.7271 12.9297 24.6027C12.7235 24.5144 12.7166 24.3007 12.7159 24.0797C12.3734 23.9794 12.5605 23.4722 12.1406 23.3944C12.227 23.8558 12.5607 24.2431 12.4144 24.709C12.5274 24.8437 12.6218 24.9563 12.7179 25.0708C12.7132 25.177 12.5759 25.2776 12.7067 25.3786L12.7103 25.3883C12.7209 25.5281 12.6553 25.6957 12.8521 25.7675C12.9069 26.0997 13.1639 26.3132 13.3381 26.5752C13.3329 26.6168 13.3513 26.6373 13.3938 26.6365L13.4036 26.6457C13.4242 26.6705 13.4448 26.6954 13.4654 26.7203C13.4923 26.7464 13.5192 26.7725 13.5461 26.7986C13.5685 26.8227 13.5908 26.8467 13.6131 26.8707L13.616 26.8767C13.5998 26.9755 13.6217 27.0766 13.6772 27.1602C13.9448 27.5288 14.278 27.846 14.6606 28.0963C15.4978 28.6119 16.2865 29.2328 17.2561 29.5087C17.7907 29.669 18.3348 29.7965 18.8853 29.8905C19.4275 29.9752 19.9798 29.8811 20.526 29.8483C21.2651 29.8041 22.002 29.7017 22.7 29.4558C22.9786 29.3577 23.3117 29.3748 23.535 29.161C23.748 28.957 24.0134 28.858 24.2578 28.7143C24.857 28.3623 25.459 28.008 25.8419 27.3994C25.8641 27.3834 25.8863 27.3674 25.9085 27.3514C25.9458 27.3658 25.9565 27.3544 25.9417 27.3182C25.9568 27.2943 25.9721 27.2705 25.9875 27.2467C26.1081 27.2218 26.1425 27.1371 26.1423 27.0285L26.1438 27.0257C26.1658 26.9996 26.1878 26.9735 26.2098 26.9474L26.2123 26.9452C26.2355 26.9205 26.2586 26.8957 26.2818 26.8709L26.2842 26.8665C26.4594 26.7158 26.6778 26.6022 26.7376 26.3522C26.7453 26.3467 26.7515 26.3395 26.7557 26.3311C26.76 26.3227 26.762 26.3134 26.7618 26.304C26.808 26.2828 26.8462 26.2476 26.8708 26.2034C26.8953 26.1592 26.905 26.1085 26.8984 26.0585C26.9048 26.0509 26.9094 26.0419 26.9118 26.0322C26.9141 26.0226 26.9143 26.0125 26.9121 26.0028C26.9491 25.9733 26.9798 25.9368 27.0026 25.8954C27.0253 25.8541 27.0396 25.8087 27.0446 25.7619L27.0486 25.7557C27.1643 25.6603 27.1764 25.5234 27.1983 25.3904L27.2012 25.3837C27.2965 25.2547 27.3447 25.0975 27.3379 24.9379C27.5281 24.1604 27.6615 23.3704 27.7371 22.574C27.3412 22.0432 27.1913 22.0109 26.6713 22.3212Z" fill="url(#paint0_linear_9_386981)"/>
<path d="M22.8105 13.3154C22.3363 13.874 21.8454 14.4494 21.3577 15.0275C19.6341 17.0699 17.9111 19.1129 16.1887 21.1565C15.9947 21.3047 15.9645 21.4434 16.2074 21.5734C16.2732 21.5504 16.3332 21.5134 16.383 21.4651C16.4328 21.4167 16.4714 21.3582 16.4958 21.2935C16.5287 21.2767 16.5593 21.2559 16.587 21.2315C18.7633 18.7684 20.9399 16.3055 23.1167 13.8429C23.1894 13.7536 23.2418 13.6497 23.2701 13.5385C23.0712 13.5812 23.0193 13.3374 22.8105 13.3154Z" fill="url(#paint1_linear_9_386981)"/>
<path d="M23.2728 13.5302C23.2719 13.533 23.2709 13.5357 23.27 13.5385C23.2737 13.5377 23.2772 13.5375 23.281 13.5365C23.2788 13.5341 23.2765 13.5317 23.2742 13.5293L23.2727 13.5302L23.2728 13.5302Z" fill="url(#paint2_linear_9_386981)"/>
<path d="M20 0.677734C30.7716 0.677734 39.4999 9.37047 39.5 20.0889C39.5 30.8073 30.7717 39.5 20 39.5C9.22835 39.5 0.5 30.8073 0.5 20.0889C0.500082 9.37047 9.2284 0.677734 20 0.677734Z" stroke="black" stroke-opacity="0.05"/>
<defs>
<linearGradient id="paint0_linear_9_386981" x1="19.9999" y1="29.9249" x2="19.9999" y2="9.71972" gradientUnits="userSpaceOnUse">
<stop stop-color="#E6AA74"/>
<stop offset="0.5" stop-color="#F96831"/>
<stop offset="1" stop-color="#D90415"/>
</linearGradient>
<linearGradient id="paint1_linear_9_386981" x1="19.6521" y1="21.5734" x2="19.6521" y2="13.3154" gradientUnits="userSpaceOnUse">
<stop stop-color="#E6AA74"/>
<stop offset="0.5" stop-color="#F96831"/>
<stop offset="1" stop-color="#D90415"/>
</linearGradient>
<linearGradient id="paint2_linear_9_386981" x1="23.2755" y1="13.5385" x2="23.2755" y2="13.5293" gradientUnits="userSpaceOnUse">
<stop stop-color="#E6AA74"/>
<stop offset="0.5" stop-color="#F96831"/>
<stop offset="1" stop-color="#D90415"/>
</linearGradient>
</defs>
</svg>
