<svg width="40" height="40" viewBox="0 0 40 40" fill="none" xmlns="http://www.w3.org/2000/svg">
<circle cx="20" cy="20" r="20" fill="url(#paint0_linear_9_389565)"/>
<path d="M11.4789 10H29.5232L29.4753 10.016C29.4573 10.0218 29.4502 10.034 29.4538 10.0523C29.4615 10.093 29.4654 10.1331 29.4654 10.1723C29.4658 11.1292 29.4654 12.0646 29.4643 12.9786C29.4643 13.0619 29.4311 13.1366 29.3646 13.2027C28.7818 13.7826 27.773 14.7995 26.3382 16.2534C26.0809 16.5143 25.8212 16.7742 25.5591 17.033C24.5413 18.0383 23.5259 19.0471 22.5128 20.0594L20.2423 22.3157L16.0646 26.5121C16.062 26.5147 16.0599 26.5178 16.0586 26.5212C16.0573 26.5246 16.0567 26.5282 16.0569 26.5318C16.0571 26.5354 16.0581 26.5389 16.0598 26.5421C16.0615 26.5452 16.0639 26.548 16.0668 26.5501C16.0781 26.5589 16.091 26.5633 16.1053 26.5633C20.7418 26.5626 25.353 26.562 29.9389 26.5617C29.9796 26.5617 30 26.582 30 26.6228L29.9972 29.8205H10.0116C10.0164 28.7102 10.0125 27.5998 10 26.4895C9.99858 26.368 10.0322 26.2728 10.1008 26.2038C10.7839 25.5148 11.4664 24.8255 12.1484 24.1358L16.5524 19.7352L22.8916 13.3887C22.8961 13.3843 22.8991 13.3786 22.9003 13.3724C22.9016 13.3662 22.9009 13.3598 22.8985 13.354C22.8961 13.3481 22.892 13.3431 22.8868 13.3396C22.8815 13.3361 22.8753 13.3342 22.869 13.3342L11.5565 13.3359C11.5369 13.3359 11.5182 13.3281 11.5043 13.3143C11.4905 13.3005 11.4827 13.2817 11.4827 13.2621L11.4789 10Z" fill="white"/>
<circle cx="20" cy="20" r="19.5" stroke="black" stroke-opacity="0.05"/>
<defs>
<linearGradient id="paint0_linear_9_389565" x1="20" y1="0" x2="20" y2="40" gradientUnits="userSpaceOnUse">
<stop stop-color="#2F59FF"/>
<stop offset="1" stop-color="#1D33FF"/>
</linearGradient>
</defs>
</svg>
