<svg width="40" height="40" viewBox="0 0 40 40" fill="none" xmlns="http://www.w3.org/2000/svg">
<circle cx="20" cy="20" r="20" fill="#EC2028"/>
<g clip-path="url(#clip0_9_398252)">
<path d="M22.5517 12.5489C19.2441 13.0075 15.9534 13.5801 12.6853 14.2657C10.541 14.7 7.14814 15.426 7.10742 15.46C7.66266 15.9718 8.20567 16.4967 8.73599 17.0343L9.00742 17.3125L9.74028 17.0953C13.3234 16.0248 16.9476 15.0967 20.6042 14.3132C21.0192 14.2239 21.4381 14.1537 21.8596 14.1028C21.7781 14.13 20.0274 15.2768 19.1181 15.8943C15.3915 18.4701 11.7909 21.2238 8.32885 24.1457L7.98956 24.4307L7.70456 26.2832C7.60097 26.9016 7.50596 27.5214 7.41956 28.1425L7.54171 28.1086C11.7596 26.6734 16.0284 25.3923 20.3396 24.2678C24.9024 23.0308 29.4785 21.8433 34.0671 20.7053C34.0806 20.6918 33.9788 20.7053 33.0831 20.8546C25.8849 22.0822 18.7131 23.46 11.5724 24.9871C11.9891 24.4749 12.4307 23.9835 12.8956 23.5146C13.3367 23.06 14.6667 21.7571 15.2706 21.1939C18.0501 18.6576 20.9201 16.2222 23.8749 13.8925L23.9292 13.8518L23.841 13.6821C23.6233 13.2974 23.3329 12.9586 22.986 12.6846C22.7621 12.515 22.7824 12.5218 22.5517 12.5489ZM32.6285 14.9307L32.3978 14.9714C32.1603 15.0053 23.6713 16.7153 23.6578 16.7357C23.6442 16.7425 23.5153 17.55 23.5221 17.5635L25.0624 17.2582C26.7588 16.9189 26.9149 16.885 27.0846 16.9053C27.356 16.9257 27.5121 17.1089 27.546 17.4618C27.5935 18.0453 27.0371 18.7035 26.0803 19.2057L25.8767 19.2939L25.9717 18.5678C26.026 18.1743 26.0735 17.8553 26.0667 17.8485L25.4221 17.9707L24.7842 18.1064L24.7367 18.4185C24.7236 18.5301 24.7055 18.6411 24.6824 18.751L22.6671 19.1582L22.8231 18.0114C22.9181 17.3871 22.986 16.8714 22.9792 16.8714C22.9588 16.8578 21.0996 17.2446 21.0792 17.265C21.0656 17.2785 20.7535 17.8282 20.3939 18.5L19.7017 19.7418C19.5791 19.788 19.4516 19.8199 19.3217 19.8368C18.4396 20.0064 17.856 20.1896 17.2928 20.461C16.8246 20.6918 16.4988 20.9157 16.2206 21.2007C15.8678 21.5603 15.6778 21.9268 15.6778 22.2796C15.6778 22.8225 16.0442 23.1143 16.7092 23.1143C17.1842 23.1143 17.666 22.965 18.1614 22.6664C18.9705 22.0984 19.6314 21.3444 20.0885 20.4678C20.1563 20.3525 20.2242 20.2507 20.2446 20.2439C20.3124 20.2168 21.2828 20.0268 21.2896 20.0403C21.2963 20.0471 21.2285 20.5425 21.1403 21.1464C21.0521 21.7436 20.9774 22.2321 20.9842 22.2525C21.4097 22.1872 21.8329 22.108 22.2531 22.015L22.4228 20.8818L22.5788 19.7689L23.5763 19.5653C24.126 19.4568 24.5806 19.3685 24.5942 19.3753L24.4449 20.4882C24.3867 20.8557 24.3369 21.2245 24.2956 21.5943C24.3024 21.6078 25.5578 21.35 25.5781 21.3296C25.5849 21.3296 25.6324 21.0378 25.6799 20.6918L25.7817 20.0471L26.0192 19.9385C27.451 19.321 28.5774 18.4321 28.8964 17.6789C29.0321 17.3735 29.066 17.0275 28.9981 16.7289C28.9846 16.6803 28.9778 16.6301 28.9778 16.5796L30.4706 16.2675C32.011 15.9621 32.2281 15.9282 32.391 15.9689C32.5199 16.0028 32.6081 16.0843 32.676 16.22C32.7303 16.3285 32.7438 16.3557 32.7438 16.5321C32.7574 16.8171 32.7031 17.0003 32.5199 17.265C32.3435 17.5296 32.0246 17.8078 31.6446 18.0521C31.472 18.1683 31.2878 18.2661 31.0949 18.3439C31.0881 18.3371 31.1289 17.991 31.1899 17.5703C31.251 17.1564 31.2985 16.8103 31.2917 16.8035C30.8641 16.8719 30.4386 16.9533 30.016 17.0478L29.7717 18.7307L29.5206 20.4678C29.5138 20.5221 29.5206 20.5357 29.541 20.5357C29.5817 20.5357 30.8099 20.2914 30.8167 20.2778L30.8981 19.6943C30.9389 19.3753 30.9796 19.1107 30.9863 19.1039L31.2239 18.9953C32.5471 18.4321 33.6667 17.5839 34.0467 16.8578C34.2367 16.4982 34.291 16.1793 34.2231 15.84C34.1955 15.6328 34.1064 15.4386 33.9673 15.2825C33.8282 15.1265 33.6455 15.0157 33.4428 14.9646C33.3342 14.9375 32.7642 14.9171 32.6285 14.9307ZM21.5881 18.086L21.3642 19.4228C21.3506 19.4364 20.6042 19.5789 20.5974 19.5721C20.8257 19.0754 21.0793 18.5907 21.3574 18.12L21.4592 18.0928C21.5271 18.0725 21.5814 18.0725 21.5814 18.086H21.5881ZM19.3081 20.461C19.3081 20.5153 19.0842 20.875 18.9078 21.1057C18.4328 21.7232 17.9713 22.0964 17.6117 22.1643C17.4353 22.1914 17.2996 22.1303 17.2521 21.9878C17.1706 21.7503 17.2928 21.4314 17.571 21.1532C17.8221 20.9021 18.2496 20.6985 18.8264 20.5425C19.3353 20.4068 19.3081 20.4135 19.3081 20.461Z" fill="white"/>
</g>
<circle cx="20" cy="20" r="19.5" stroke="black" stroke-opacity="0.05"/>
<defs>
<clipPath id="clip0_9_398252">
<rect width="28" height="17" fill="white" transform="translate(7 12)"/>
</clipPath>
</defs>
</svg>
