<svg width="40" height="40" viewBox="0 0 40 40" fill="none" xmlns="http://www.w3.org/2000/svg">
<circle cx="20" cy="20" r="20" fill="#F6F8FA"/>
<g clip-path="url(#clip0_9_406861)">
<path fill-rule="evenodd" clip-rule="evenodd" d="M19.9979 34.9869C11.7097 34.9869 5.01123 28.2865 5.01123 19.9984C5.01123 11.7102 11.7097 5.01172 19.9979 5.01172C28.2879 5.01172 34.9864 11.7102 34.9864 19.9984C34.9864 28.2865 28.2879 34.9869 19.9979 34.9869ZM9.84138 29.609L19.9635 10.3877L19.8643 10.3781C14.8681 10.3781 10.746 14.2484 10.3376 19.1396V9.97164H29.746C27.2269 7.52317 23.7879 6.01554 19.9979 6.01554C11.62 6.01554 6.01314 11.6205 6.01314 19.9965C6.01314 23.7216 7.46925 27.1033 9.84138 29.609ZM10.0876 29.8571C12.6219 32.4048 16.1238 33.9831 19.9979 33.9831C27.7212 33.9831 33.9826 27.7197 33.9826 19.9965C33.9826 16.1873 32.4616 12.735 29.9921 10.2121L19.9673 29.4564C24.7498 29.4068 28.6868 25.8304 29.3166 21.2102V29.8571H10.0876Z" fill="#1081C5"/>
</g>
<circle cx="20" cy="20" r="19.5" stroke="black" stroke-opacity="0.05"/>
<defs>
<clipPath id="clip0_9_406861">
<rect width="30" height="30" fill="white" transform="translate(5 5)"/>
</clipPath>
</defs>
</svg>
