<svg width="40" height="40" viewBox="0 0 40 40" fill="none" xmlns="http://www.w3.org/2000/svg">
<circle cx="20" cy="20" r="20" fill="#F6F8FA"/>
<path d="M26.2705 24.644H24.2278V18.8642L26.2705 20.9069V24.644ZM18.0931 24.2908L20.1375 26.3335V29.2192L16.0504 25.1355V13.5659L10.7571 8.29593C11.0387 8.066 11.3336 7.84941 11.6385 7.65114C11.9168 7.46953 12.205 7.30292 12.4999 7.14963L18.0914 12.7212H18.0931V6C19.9525 6 21.4587 7.50618 21.4587 9.36226C21.4587 11.1134 20.1208 12.5512 18.4097 12.7112H21.0272L21.0372 12.7212L23.0715 14.7539H18.0948L18.0931 24.2908ZM22.1801 16.8199L22.1718 24.6307H20.1291L20.1391 14.7672L22.1801 16.8199ZM24.2211 18.8625L22.1801 16.8215H25.1059L27.1502 18.8625H24.2211ZM7 16.0934C7.00833 15.2154 7.12829 14.364 7.34656 13.5509L11.9601 18.1644V18.1628V15.2754L8.15796 11.4749C8.48119 10.8568 8.8694 10.2736 9.30926 9.73714L14.0044 14.429V23.0929V23.2145C13.7745 22.9779 7 16.0934 7 16.0934ZM20.1358 32.1066V34.994L7.03499 21.9049V19.0158L20.1358 32.1066ZM33 24.6457C33 26.5051 31.4922 28.0113 29.6344 28.0113C27.775 28.0113 26.2672 26.5051 26.2672 24.6457H28.3115V22.0649H30.3559L33 24.6457Z" fill="black"/>
<circle cx="20" cy="20" r="19.5" stroke="black" stroke-opacity="0.05"/>
</svg>
