<svg width="40" height="40" viewBox="0 0 40 40" fill="none" xmlns="http://www.w3.org/2000/svg">
<circle cx="20" cy="20" r="20" fill="#006AFF"/>
<g clip-path="url(#clip0_9_394216)">
<path fill-rule="evenodd" clip-rule="evenodd" d="M9.10104 17.8513C9.13101 17.8435 9.14468 17.8548 9.16243 17.8758C9.26424 17.9968 9.59239 18.4186 9.6817 18.5341C9.68496 18.5382 9.68734 18.5429 9.68872 18.5479C9.69009 18.553 9.69042 18.5583 9.68968 18.5634C9.68895 18.5686 9.68716 18.5736 9.68444 18.578C9.68172 18.5825 9.67811 18.5864 9.67384 18.5894C9.01232 19.1343 8.27632 19.9049 7.86613 20.457C7.85741 20.4687 7.86468 20.4695 7.8705 20.4669C8.58497 20.1423 10.2629 19.6241 11.0199 19.479V18.4684L8.06133 16L5.09668 18.4684V19.5729C6.01566 18.9967 8.13901 18.1044 9.10104 17.8513ZM22.8552 16.3436H24.157V22.8401H22.8552V16.3436ZM21.8909 16.3436H20.589V22.8404H21.8909V16.3436ZM30.5346 18.5894H29.2485L30.5509 22.841H31.7486L32.0756 21.7661C32.2053 21.3391 32.4218 20.5417 32.4218 20.5417C32.4223 20.5395 32.4235 20.5376 32.4253 20.5362C32.427 20.5349 32.4292 20.5341 32.4314 20.5341C32.4357 20.5341 32.4395 20.537 32.441 20.5417C32.441 20.5417 32.6577 21.3545 32.7808 21.7734L33.1016 22.8401H34.2781L35.5712 18.5891H34.3758L34.0029 19.8752C33.889 20.2829 33.7784 20.6914 33.6709 21.1008C33.6704 21.103 33.6692 21.1049 33.6674 21.1062C33.6657 21.1076 33.6636 21.1084 33.6613 21.1084C33.6591 21.1084 33.657 21.1076 33.6552 21.1062C33.6535 21.1049 33.6523 21.103 33.6517 21.1008C33.6517 21.1008 33.451 20.3159 33.321 19.8752L32.937 18.5894H31.9869L31.5959 19.8752C31.4734 20.2865 31.2584 21.1014 31.2584 21.1014C31.2577 21.1034 31.2564 21.1051 31.2547 21.1063C31.253 21.1075 31.2509 21.1081 31.2488 21.1081C31.2468 21.1081 31.2448 21.1074 31.2431 21.1062C31.2414 21.105 31.2402 21.1033 31.2395 21.1014C31.2395 21.1014 31.0318 20.3014 30.9073 19.8752L30.5346 18.5894ZM24.8014 20.7293C24.8014 19.4377 25.7885 18.4809 26.996 18.4809C28.1917 18.4809 29.179 19.438 29.179 20.7293C29.179 22.0247 28.1922 22.9818 26.996 22.9818C25.7888 22.9818 24.8014 22.0239 24.8014 20.7293ZM27.9298 20.7293C27.9298 20.0969 27.5022 19.6663 26.996 19.6663C26.4779 19.6663 26.0506 20.0969 26.0506 20.7293C26.0506 21.3661 26.4779 21.7923 26.996 21.7923C27.5022 21.7923 27.9298 21.3661 27.9298 20.7293ZM13.0586 16.9446V18.1972H15.3594C15.3687 18.1972 15.3722 18.2065 15.3675 18.2147L13.0577 22.3578L13.0536 22.3654C13.0013 22.4666 12.9888 22.4911 12.9888 22.5961V22.8404H17.4705V21.5901H14.9809L14.9753 21.5884L14.9716 21.584C14.9707 21.5821 14.9704 21.5801 14.9706 21.578C14.9708 21.576 14.9715 21.574 14.9728 21.5724L17.3093 17.3748L17.3157 17.3615C17.332 17.3265 17.3477 17.294 17.3477 17.2067L17.3483 16.9449L13.0586 16.9446ZM18.9504 16.4599C19.3562 16.4599 19.6916 16.8055 19.6916 17.2311C19.6916 17.657 19.3562 18.0032 18.9504 18.0032C18.5445 18.0032 18.2094 17.6576 18.2094 17.2317C18.2094 16.8058 18.5445 16.4599 18.9504 16.4599ZM18.2996 18.5894H19.6011V22.8404H18.2996V18.5894ZM6.63006 22.0864C6.64606 22.1062 6.6737 22.1103 6.69406 22.0963C7.79312 21.4988 10.2109 20.7404 11.0199 20.5952V22.866H5.09697V20.5068C5.70584 20.1431 7.35064 19.3972 7.92955 19.1977C7.94119 19.1936 7.94381 19.2006 7.93392 19.2084C7.37828 19.6439 6.5073 20.6717 6.08053 21.3324C6.06104 21.3632 6.06221 21.3731 6.07763 21.392L6.63006 22.0864Z" fill="white"/>
</g>
<circle cx="20" cy="20" r="19.5" stroke="black" stroke-opacity="0.05"/>
<defs>
<clipPath id="clip0_9_394216">
<rect width="31" height="7" fill="white" transform="translate(5 16)"/>
</clipPath>
</defs>
</svg>
