<svg width="40" height="40" viewBox="0 0 40 40" fill="none" xmlns="http://www.w3.org/2000/svg">
<circle cx="20" cy="20" r="20" fill="#F44238"/>
<path d="M11.5739 11.6016C11.5755 12.5617 11.5745 13.5636 11.5707 14.6073C11.5699 14.8787 11.3682 15.0076 11.1185 15.0068C10.5 15.0062 9.92287 15.0041 9.38711 15.0004C9.28427 14.9995 9.18594 14.9581 9.11353 14.8851C9.04111 14.812 9.00048 14.7134 9.00049 14.6105V9.38359C9.00049 9.28212 9.0408 9.1848 9.11255 9.11304C9.18431 9.04129 9.28163 9.00098 9.3831 9.00098H21.4867C21.5871 9.00098 21.6834 9.04078 21.7544 9.11164C21.8254 9.18249 21.8653 9.27859 21.8653 9.37879V11.2214C21.8653 11.3146 21.8282 11.404 21.7622 11.4699C21.6961 11.5358 21.6065 11.5728 21.5131 11.5728H11.6028C11.5951 11.5728 11.5878 11.5759 11.5824 11.5813C11.577 11.5867 11.5739 11.594 11.5739 11.6016Z" fill="white"/>
<path d="M12.7072 28.7239C13.8028 28.725 14.9869 28.7245 16.2596 28.7223C16.5262 28.7223 16.7119 28.864 16.7151 29.1546C16.7204 29.7352 16.7207 30.3278 16.7159 30.9324C16.715 31.029 16.6759 31.1215 16.6071 31.1895C16.5383 31.2576 16.4453 31.2958 16.3485 31.2958L9.40294 31.2966C9.29616 31.2966 9.19375 31.2542 9.11824 31.1786C9.04273 31.1031 9.00031 31.0007 9.00031 30.8939L8.99951 28.7183C8.99951 28.6842 9.01205 28.6551 9.03713 28.6311L26.8264 11.6183C26.8584 11.5879 26.8522 11.5727 26.808 11.5727C26.1836 11.5727 25.5318 11.5735 24.8524 11.5751C24.5979 11.5759 24.4362 11.4166 24.437 11.1676C24.4386 10.5518 24.4389 9.96481 24.4378 9.40663C24.4378 9.16729 24.6027 9 24.8332 9C26.9267 9.00107 28.9516 9.00107 30.9079 9C31.0117 9 31.1112 9.04124 31.1846 9.11464C31.258 9.18805 31.2993 9.28761 31.2993 9.39142C31.2993 11.1199 31.2993 12.8488 31.2993 14.5783C31.2993 14.8606 31.1493 15.0023 30.8494 15.0034C30.2448 15.0055 29.6653 15.0045 29.1109 15.0002C29.0084 14.9993 28.9105 14.9581 28.8384 14.8854C28.7663 14.8126 28.7258 14.7144 28.7258 14.612L28.7266 13.3929C28.7266 13.3891 28.7255 13.3853 28.7234 13.3822C28.7213 13.379 28.7183 13.3765 28.7148 13.3751C28.7113 13.3736 28.7074 13.3732 28.7037 13.374C28.6999 13.3747 28.6965 13.3766 28.6938 13.3793L12.6912 28.6823C12.6624 28.7095 12.6677 28.7234 12.7072 28.7239Z" fill="white"/>
<path d="M28.7251 28.6925C28.7273 27.7031 28.7273 26.7098 28.7251 25.7124C28.7243 25.397 28.9605 25.2922 29.2566 25.2922C29.8079 25.2916 30.3476 25.2924 30.8759 25.2946C31.1801 25.2962 31.2986 25.4779 31.2986 25.7636C31.3012 27.6602 31.3004 29.3718 31.2962 30.8985C31.2954 31.1451 31.1281 31.2963 30.8976 31.2963C27.105 31.2969 23.3875 31.2971 19.7449 31.2971C19.438 31.2971 19.2859 31.1461 19.2886 30.8441C19.2939 30.2955 19.2945 29.7275 19.2902 29.1399C19.2886 28.8974 19.4511 28.7261 19.6944 28.7261C22.7196 28.724 25.7186 28.724 28.6915 28.7261C28.7003 28.7261 28.7087 28.7226 28.715 28.7163C28.7213 28.71 28.7249 28.7015 28.7251 28.6925Z" fill="white"/>
<circle cx="20" cy="20" r="19.5" stroke="black" stroke-opacity="0.05"/>
</svg>
