<svg width="40" height="40" viewBox="0 0 40 40" fill="none" xmlns="http://www.w3.org/2000/svg">
<circle cx="20" cy="20" r="20" fill="#B4252D"/>
<g clip-path="url(#clip0_9_396825)">
<path d="M17.7123 15.0169C17.1983 15.14 16.9223 15.6188 16.9223 16.085C16.9223 16.51 17.1303 16.9219 17.5463 17.1225C17.7676 17.2263 18.1129 17.2307 18.3336 17.1225C18.8556 16.8663 19.0863 16.2194 18.8856 15.7038C18.7789 15.4232 18.5516 15.1794 18.3016 15.0725C18.1483 15.0057 17.8683 14.98 17.7123 15.0169ZM30.6669 16.25V21.0557C30.6669 21.4732 31.0003 21.875 31.7389 21.885L33.4936 21.875C34.6183 21.8794 34.9996 21.885 34.9996 21.885C35.3329 21.875 35.7223 21.645 35.8636 21.3994C35.9903 21.1719 35.9996 21.0794 35.9996 20V19.0625C35.9996 18.4375 35.6663 18.125 35.1629 18.125C35.1496 18.125 34.4789 18.1207 33.4196 18.125H32.0003V18.75H35.0003C35.4136 18.75 35.3336 19.375 35.3336 20C35.3336 20.625 35.3336 21.25 35.0003 21.25H33.4943C32.0703 21.2544 31.7389 21.25 31.7389 21.25C31.3336 21.25 31.3336 20.9375 31.3349 20.9375V18.6157C31.3249 17.4588 31.3336 16.25 31.3336 16.25H30.6669ZM12.2283 17.5C11.2036 17.6744 10.3296 18.4657 9.93293 19.58C9.66627 20.3275 9.6236 21.4663 9.8216 22.2675C9.9876 22.9494 10.3643 23.5832 10.9283 24.1263C11.3916 24.57 11.9369 24.7669 12.5949 24.7832C13.4636 24.8088 14.0523 24.4838 14.6669 23.9219V24.375H16.0003V17.5H14.6669V18.3513C14.6669 18.3513 14.1223 17.8619 13.7809 17.7044C13.5759 17.6047 13.3554 17.5357 13.1276 17.5C12.8295 17.4582 12.5264 17.4582 12.2283 17.5ZM13.3823 19.0788C13.6056 19.1344 13.7716 19.225 13.9789 19.4082C14.4496 19.8238 14.6503 20.4932 14.6556 21.1919C14.6603 21.7119 14.5736 22.0694 14.3583 22.4157C14.1356 22.7732 13.8136 23.0538 13.4963 23.1657C13.1669 23.2813 12.6743 23.2469 12.3249 23.0844C11.8989 22.8844 11.5183 22.4038 11.3769 21.8975C11.2749 21.5194 11.2749 20.9463 11.3789 20.5582C11.6109 19.6932 12.3176 18.8063 13.3823 19.0788Z" fill="white"/>
<path d="M4.66667 18.75H7.93L4 24.375C4 24.3938 9.33333 24.375 9.33333 24.375L9.346 23.125H6.606L10.1047 17.5H4.66667V18.75ZM17.3333 20.9738V24.375H18.684V17.5H17.3333V20.9738ZM19.3333 18.125V20.7719C19.3333 21.5625 19.996 21.875 20.6667 21.875C20.6667 21.875 20.66 21.8819 22.6333 21.875H24V21.25H20.6667C20.3333 21.25 20 21.0425 20 20.7719V18.125H19.3333ZM25.3333 18.125V18.75H28.6667C29.3333 18.75 29.3333 19.0581 29.3333 19.8106C29.3333 20.6631 29.3333 21.25 28.6667 21.25H26C25.3853 21.25 25.4653 20 26 20H28.6667V19.375H26C24.6667 19.375 24.606 21.875 26 21.875H28.6667C29.3333 21.875 29.706 21.6331 29.8733 21.3181C29.9873 21.1019 30 20.7556 30 19.8106C30.0027 19.1588 29.9927 18.8919 29.968 18.7894C29.8687 18.3694 29.384 18.125 29.088 18.125H25.3333Z" fill="white"/>
<path fill-rule="evenodd" clip-rule="evenodd" d="M33.751 22.7999H33.0557V22.6299H35.667V22.8005H33.9563L33.3763 23.4818H33.6963L34.025 23.1611L34.1177 23.2924L33.401 23.9936H33.9263V24.1643H33.0003L33.523 23.6524H33.0257L33.751 22.7999ZM34.7543 23.2261L34.8477 23.1161L34.745 22.9961L34.165 23.6774L34.2677 23.798L34.609 23.3968H35.3043C35.3443 23.3968 35.3763 23.3968 35.4017 23.4124C35.4183 23.423 35.4497 23.4511 35.4497 23.5674V24.2499C35.4481 24.2691 35.4417 24.2878 35.431 24.3043C35.419 24.3224 35.403 24.3355 35.377 24.3355H34.579V24.5055H35.377C35.4543 24.5055 35.5103 24.4618 35.5457 24.4086C35.5765 24.3606 35.5933 24.3059 35.5943 24.2499V23.5686C35.5943 23.4111 35.549 23.3124 35.4697 23.2624C35.4097 23.2249 35.339 23.2261 35.303 23.2268L34.7543 23.2261ZM34.745 24.1386L34.455 23.798L34.5577 23.6774L34.8477 24.0186L34.745 24.1386ZM33.1903 24.3355L34.2063 24.1649L34.2263 24.3336L33.211 24.5043L33.1903 24.3355ZM29.1823 22.6299H31.0303V22.8005H29.949L29.8257 22.9711H30.9077V23.1411H30.231V23.4824H31.031V23.6524H30.3603L31.2223 24.5049H29.1843C29.115 24.5049 29.0657 24.463 29.0357 24.4055C29.0118 24.3565 28.9995 24.3032 28.9997 24.2493V22.8855C28.9997 22.7793 29.0263 22.7043 29.0757 22.6636C29.1163 22.6299 29.1623 22.6299 29.1823 22.6299ZM30.1077 23.4824V23.1411H29.7023L29.4743 23.4574L29.3877 23.3368L29.7743 22.8005H29.185C29.1623 22.8005 29.1483 22.8024 29.1397 22.8093C29.1353 22.8134 29.1323 22.8186 29.131 22.8243C29.1253 22.8442 29.1228 22.8649 29.1237 22.8855V23.4824H30.1077ZM29.1237 23.6524H29.9997L29.409 24.3343H29.185C29.1748 24.3349 29.1646 24.3325 29.1559 24.3275C29.1472 24.3224 29.1403 24.315 29.1363 24.3061C29.1278 24.2882 29.1233 24.2689 29.123 24.2493V23.6524H29.1237ZM29.601 24.3343H30.8383L30.1717 23.6749L29.601 24.3343ZM19.667 22.7886V22.6299H22.3423V22.7886H21.1457V22.9474H21.779C21.859 22.9474 21.915 22.9861 21.949 23.0399C21.9759 23.084 21.9902 23.134 21.9903 23.1849V23.8993H22.3423V24.0574H21.9903V24.1368C21.9903 24.1878 21.976 24.238 21.949 24.2824C21.9322 24.3106 21.9077 24.3341 21.8779 24.3504C21.8481 24.3667 21.8141 24.3751 21.7797 24.3749H21.4977V24.2161H21.7797C21.813 24.2161 21.8263 24.2024 21.835 24.1899C21.8445 24.1736 21.8495 24.1553 21.8497 24.1368V24.0574H20.1603V24.4543H20.0203V24.0574H19.667V23.8993H20.019V23.1849C20.0169 23.1493 20.0232 23.1138 20.0374 23.0807C20.0515 23.0477 20.0733 23.018 20.101 22.9936C20.1369 22.9644 20.1827 22.948 20.2303 22.9474H21.005V22.7886H19.667ZM21.005 23.1055H20.2303C20.2132 23.1061 20.1968 23.1121 20.1837 23.1224C20.1723 23.1318 20.1597 23.1474 20.1597 23.1849V23.423H21.005V23.1055ZM21.005 23.5818H20.1597V23.8993H21.005V23.5818ZM21.1457 23.8993V23.5818H21.8497V23.8993H21.1457ZM21.8497 23.423H21.1457V23.1055H21.779C21.8123 23.1055 21.827 23.1199 21.835 23.1324C21.8444 23.1485 21.8494 23.1665 21.8497 23.1849V23.423ZM24.9477 22.6299H26.3557V23.4236H24.9477V22.6299ZM25.0883 22.7886V22.9474H26.215V22.7886H25.0883ZM26.215 23.1055H25.0883V23.2643H26.215V23.1055ZM24.525 23.5024V22.7093H24.667V23.5018V23.5005C24.667 23.5005 24.681 23.5818 24.8777 23.5818H25.511V24.4543H25.371V24.0574H24.981L24.6503 24.5049L24.5423 24.4036L24.7983 24.0574H24.4557V23.8993H25.371V23.7405H24.8777C24.6397 23.7405 24.5257 23.623 24.5257 23.503L24.525 23.5024ZM26.6377 23.5818V22.7093H26.7777V23.7405H25.9337V23.8993H26.4297C26.4763 23.8993 26.5703 23.8993 26.6497 23.9786C26.7297 24.0605 26.7783 24.208 26.7783 24.4536H26.6377C26.6377 24.2249 26.5917 24.1336 26.555 24.0968C26.5183 24.0593 26.475 24.0574 26.4263 24.0574H25.933V24.4543H25.793V23.5811L26.6377 23.5818Z" fill="white"/>
</g>
<circle cx="20" cy="20" r="19.5" stroke="black" stroke-opacity="0.05"/>
<defs>
<clipPath id="clip0_9_396825">
<rect width="32" height="10" fill="white" transform="translate(4 15)"/>
</clipPath>
</defs>
</svg>
