<svg width="40" height="40" viewBox="0 0 40 40" fill="none" xmlns="http://www.w3.org/2000/svg">
<circle cx="20" cy="20" r="20" fill="#FF6600"/>
<g clip-path="url(#clip0_9_400210)">
<path d="M17.0011 22.784L17.7211 23.8036C17.2421 24.2799 15.5707 25.7861 13.0616 25.7861C9.52913 25.7861 9.30798 23.189 5.78641 23.189H4.57141V22.0254L8.55327 18.0718H5.2207L5.86355 16.7861H11.0051L10.5371 18.0718L6.68513 21.929C9.64163 21.929 10.3674 24.5004 13.2673 24.5004C15.0416 24.4953 16.4919 23.3323 17.0011 22.784Z" fill="white"/>
<path d="M13.5715 22.0792C12.8605 22.0792 12.4298 21.4878 12.4298 20.6418C12.4298 19.4924 13.079 17.9244 14.1963 17.9244C15.0494 17.9244 15.3149 18.7062 15.3149 19.3381C15.3149 20.5621 14.618 22.0792 13.5715 22.0792ZM14.3622 16.7853C12.368 16.7853 10.9846 18.5917 10.9846 20.6765C10.9846 22.1442 11.8988 23.2139 13.3773 23.2139C15.3715 23.2139 16.769 21.4229 16.769 19.3374C16.769 17.9746 15.9398 16.7853 14.3622 16.7853ZM21.2073 17.8846C21.7017 17.8846 22.0328 18.1237 22.0328 18.5165V18.5268C22.0328 19.2584 21.0074 19.4718 19.4035 19.4474C19.5925 18.7062 20.234 17.8852 21.2073 17.8852V17.8846ZM23.5049 18.5165C23.5049 17.4924 22.6898 16.7853 21.4079 16.7853C19.1675 16.7853 17.7211 18.8052 17.7211 20.6617C17.7211 22.1641 18.589 23.2139 20.3928 23.2139C21.1816 23.2139 22.0488 23.0345 22.6904 22.7214L22.5432 21.6466C21.9866 21.9171 21.3749 22.0551 20.756 22.0497C20.1402 22.0497 19.6722 21.8356 19.4195 21.4177C19.2723 21.1786 19.2203 20.7607 19.246 20.5467C21.7544 20.6013 23.5055 20.0941 23.5055 18.5172L23.5049 18.5165ZM33.8498 17.8814C34.3743 17.8814 34.8012 18.0312 35.0378 18.161L35.4286 17.099C35.1406 16.9351 34.5955 16.7853 33.9269 16.7853C32.4258 16.7853 31.3561 17.6223 31.3561 18.8084C31.3561 19.5162 31.8807 20.0343 32.611 20.4129C33.2384 20.7273 33.4441 20.9716 33.4441 21.3599C33.4441 21.7636 33.079 22.1075 32.467 22.1178C31.891 22.1178 31.2635 21.878 30.9395 21.6987L30.5493 22.7607C30.8888 22.9998 31.5824 23.2042 32.323 23.2139C33.8504 23.2139 35.023 22.4566 35.023 21.1008C35.023 20.3184 34.3949 19.8099 33.7064 19.4467C33.1716 19.1825 32.8836 18.9382 32.8836 18.5994C32.8887 18.1854 33.2789 17.8814 33.8498 17.8814ZM29.2971 15.2412C29.2971 14.6304 29.7631 14.2139 30.3218 14.2139C30.8457 14.2139 31.2256 14.5906 31.2256 15.1267C31.2083 15.749 30.7422 16.1424 30.172 16.1424H30.1553C29.6481 16.1367 29.2971 15.7599 29.2971 15.2412ZM28.0441 23.2139H29.5593L30.7756 16.7853H29.2598L28.0441 23.2139ZM26.419 21.9282C25.9703 21.9282 25.735 21.7578 25.8533 21.1914L26.4987 18.071H27.7304L27.967 16.7853H26.7468L27.0728 14.8542L25.4765 15.4996L25.2303 16.7853H24.1889L23.872 18.071H25.0085L24.349 21.284C24.1175 22.4952 24.725 23.2139 26.1162 23.2139C26.4357 23.2139 26.7436 23.1997 27.0786 23.1174V21.8356C26.8163 21.8979 26.6607 21.9282 26.419 21.9282Z" fill="white"/>
</g>
<circle cx="20" cy="20" r="19.5" stroke="black" stroke-opacity="0.05"/>
<defs>
<clipPath id="clip0_9_400210">
<rect width="32" height="12" fill="white" transform="translate(4 14)"/>
</clipPath>
</defs>
</svg>
