<svg width="40" height="40" viewBox="0 0 40 40" fill="none" xmlns="http://www.w3.org/2000/svg">
<circle cx="20" cy="20" r="20" fill="#F2F7FA"/>
<g clip-path="url(#clip0_9_355650)">
<path d="M8.44443 12.3134V12.3817C8.46712 12.3928 8.4917 12.4039 8.51438 12.4168C8.53707 12.4851 8.56165 12.5553 8.58433 12.6236C8.60702 12.6347 8.63159 12.6458 8.65428 12.6587C8.66562 12.7049 8.67696 12.751 8.6902 12.7972C8.71288 12.8083 8.73746 12.8193 8.76015 12.8323C8.77149 12.8784 8.78283 12.9246 8.79607 12.9707C8.81875 12.9818 8.84333 12.9929 8.86601 13.0058V13.0741H8.90193C8.91328 13.1203 8.92462 13.1665 8.93785 13.2126C8.96054 13.2237 8.98511 13.2348 9.0078 13.2477V13.316H9.04372V13.3843H9.07964V13.4526C9.10232 13.4637 9.1269 13.4748 9.14959 13.4877C9.17227 13.556 9.19685 13.6262 9.21953 13.6945C9.24222 13.7056 9.2668 13.7167 9.28948 13.7296C9.30083 13.7758 9.31217 13.8219 9.3254 13.8681C9.34809 13.8792 9.37266 13.8902 9.39535 13.9032C9.40669 13.9493 9.41804 13.9955 9.43127 14.0416C9.45395 14.0527 9.47853 14.0638 9.50122 14.0767V14.145H9.53714V14.2133H9.57306V14.2817H9.60897V14.35H9.64489V14.4183C9.66758 14.4294 9.69216 14.4405 9.71484 14.4534V14.5217H9.75076V14.59C9.77345 14.6011 9.79802 14.6122 9.82071 14.6251C9.83205 14.6713 9.84339 14.7174 9.85663 14.7636C9.87931 14.7746 9.90389 14.7857 9.92658 14.7987V14.867H9.9625V14.9353C9.98518 14.9464 10.0098 14.9574 10.0324 14.9704C10.0551 15.0387 10.0797 15.1088 10.1024 15.1772C10.1251 15.1882 10.1497 15.1993 10.1723 15.2122C10.195 15.2806 10.2196 15.3507 10.2423 15.419C10.265 15.4301 10.2895 15.4412 10.3122 15.4541V15.5224H10.3482C10.3595 15.5686 10.3708 15.6148 10.3841 15.6609C10.4068 15.672 10.4313 15.6831 10.454 15.696C10.4654 15.7422 10.4767 15.7883 10.4899 15.8345C10.5126 15.8456 10.5372 15.8566 10.5599 15.8696C10.5712 15.9157 10.5826 15.9619 10.5958 16.008C10.6185 16.0191 10.6431 16.0302 10.6658 16.0431V16.1114H10.7017V16.1797H10.7376V16.2481H10.7735V16.3164H10.8094V16.3847C10.8321 16.3958 10.8567 16.4068 10.8794 16.4198C10.8907 16.4659 10.9021 16.5121 10.9153 16.5583C10.938 16.5693 10.9626 16.5804 10.9852 16.5933C10.9966 16.6395 11.0079 16.6857 11.0212 16.7318C11.0439 16.7429 11.0684 16.754 11.0911 16.7669C11.1025 16.8131 11.1138 16.8592 11.127 16.9054C11.1497 16.9165 11.1743 16.9275 11.197 16.9405V17.0088H11.2329V17.0771H11.2688V17.1454H11.3047V17.2137C11.3274 17.2248 11.352 17.2359 11.3747 17.2488C11.3974 17.3171 11.422 17.3873 11.4446 17.4556C11.4673 17.4667 11.4919 17.4778 11.5146 17.4907C11.5259 17.5368 11.5373 17.583 11.5505 17.6292C11.5732 17.6402 11.5978 17.6513 11.6205 17.6642C11.6318 17.7104 11.6431 17.7566 11.6564 17.8027C11.6791 17.8138 11.7036 17.8249 11.7263 17.8378C11.749 17.9061 11.7736 17.9763 11.7963 18.0446C11.819 18.0557 11.8435 18.0667 11.8662 18.0797V18.148H11.9021V18.2163H11.9381V18.2846H11.974V18.3529C11.9967 18.364 12.0212 18.3751 12.0439 18.388C12.0553 18.4342 12.0666 18.4803 12.0798 18.5265C12.1025 18.5376 12.1271 18.5487 12.1498 18.5616C12.1725 18.6299 12.1971 18.7001 12.2197 18.7684C12.2424 18.7794 12.267 18.7905 12.2897 18.8035C12.3124 18.8718 12.3369 18.9419 12.3596 19.0102C12.3823 19.0213 12.4069 19.0324 12.4296 19.0453C12.4409 19.0915 12.4523 19.1376 12.4655 19.1838C12.4882 19.1949 12.5128 19.206 12.5354 19.2189C12.5581 19.2872 12.5827 19.3574 12.6054 19.4257C12.6281 19.4368 12.6527 19.4478 12.6753 19.4608C12.6867 19.5069 12.698 19.5531 12.7113 19.5992C12.7339 19.6103 12.7585 19.6214 12.7812 19.6343V19.7026H12.8171C12.8285 19.7488 12.8398 19.795 12.8531 19.8411C12.8757 19.8522 12.9003 19.8633 12.923 19.8762C12.9457 19.9445 12.9703 20.0147 12.9929 20.083C13.0156 20.0941 13.0402 20.1052 13.0629 20.1181C13.0856 20.1864 13.1102 20.2566 13.1328 20.3249C13.1555 20.3359 13.1801 20.347 13.2028 20.36C13.2141 20.4061 13.2255 20.4523 13.2387 20.4984C13.2614 20.5095 13.286 20.5206 13.3087 20.5335C13.3313 20.6018 13.3559 20.672 13.3786 20.7403C13.4013 20.7514 13.4259 20.7625 13.4486 20.7754C13.4712 20.8437 13.4958 20.9139 13.5185 20.9822C13.5412 20.9933 13.5658 21.0043 13.5884 21.0173C13.6111 21.0856 13.6357 21.1557 13.6584 21.2241C13.6811 21.2351 13.7057 21.2462 13.7283 21.2591C13.7397 21.3053 13.751 21.3515 13.7643 21.3976C13.787 21.4087 13.8115 21.4198 13.8342 21.4327C13.8456 21.4789 13.8569 21.525 13.8701 21.5712C13.8928 21.5823 13.9174 21.5933 13.9401 21.6063C13.9628 21.6746 13.9873 21.7447 14.01 21.8131C14.0327 21.8241 14.0573 21.8352 14.08 21.8481V21.9165H14.1159V21.9848H14.1518V22.0531H14.1877V22.1214C14.2104 22.1325 14.235 22.1436 14.2577 22.1565V22.2248H14.2936V22.2931C14.3163 22.3042 14.3409 22.3153 14.3635 22.3282C14.3749 22.3744 14.3862 22.4205 14.3995 22.4667C14.4222 22.4777 14.4467 22.4888 14.4694 22.5018C14.4808 22.5479 14.4921 22.5941 14.5053 22.6402C14.528 22.6513 14.5526 22.6624 14.5753 22.6753V22.7436H14.6112V22.8119H14.6471V22.8803H14.683V22.9486H14.719V23.0169C14.7416 23.028 14.7662 23.0391 14.7889 23.052C14.8003 23.0981 14.8116 23.1443 14.8248 23.1905C14.8475 23.2015 14.8721 23.2126 14.8948 23.2255C14.9061 23.2717 14.9175 23.3179 14.9307 23.364C14.9534 23.3751 14.978 23.3862 15.0006 23.3991C15.012 23.4453 15.0233 23.4914 15.0366 23.5376C15.0592 23.5487 15.0838 23.5597 15.1065 23.5727V23.641H15.1424V23.7093H15.1783V23.7776H15.2143V23.8459C15.237 23.857 15.2615 23.8681 15.2842 23.881C15.3069 23.9493 15.3315 24.0195 15.3542 24.0878C15.3768 24.0989 15.4014 24.11 15.4241 24.1229C15.4355 24.169 15.4468 24.2152 15.46 24.2614C15.4827 24.2724 15.5073 24.2835 15.53 24.2964C15.5527 24.3648 15.5772 24.4349 15.5999 24.5032C15.6226 24.5143 15.6472 24.5254 15.6699 24.5383C15.6926 24.6066 15.7171 24.6768 15.7398 24.7451C15.7625 24.7562 15.7871 24.7673 15.8098 24.7802V24.8485H15.8457C15.857 24.8947 15.8684 24.9408 15.8816 24.987C15.9043 24.9981 15.9289 25.0091 15.9516 25.0221C15.9629 25.0682 15.9742 25.1144 15.9875 25.1605C16.0102 25.1716 16.0347 25.1827 16.0574 25.1956C16.0688 25.2418 16.0801 25.2879 16.0933 25.3341C16.116 25.3452 16.1406 25.3563 16.1633 25.3692V25.4375H16.1992V25.5058H16.2351V25.5741H16.2711V25.6424C16.2937 25.6535 16.3183 25.6646 16.341 25.6775V25.7458H16.3769V25.8142C16.3996 25.8252 16.4242 25.8363 16.4469 25.8492C16.4696 25.9176 16.4941 25.9877 16.5168 26.056C16.5395 26.0671 16.5641 26.0782 16.5868 26.0911C16.5981 26.1373 16.6094 26.1834 16.6227 26.2296C16.6454 26.2407 16.6699 26.2518 16.6926 26.2647V26.333H16.7285V26.4013H16.7645V26.4696C16.8042 26.5269 16.8949 26.5583 16.9403 26.6413H32.8941C33.1342 26.6413 33.862 26.6949 33.9528 26.573C33.9925 26.5343 33.9679 26.573 33.9887 26.5047C33.915 26.4438 33.8979 26.3515 33.8469 26.2628H33.811V26.1945H33.7751V26.1262C33.7524 26.1151 33.7278 26.104 33.7051 26.0911V26.0228H33.6692C33.6579 25.9766 33.6465 25.9305 33.6333 25.8843C33.6106 25.8732 33.586 25.8622 33.5633 25.8492C33.5406 25.7809 33.5161 25.7108 33.4934 25.6424C33.4707 25.6314 33.4461 25.6203 33.4234 25.6074C33.4121 25.5612 33.4007 25.515 33.3875 25.4689C33.3648 25.4578 33.3403 25.4467 33.3176 25.4338V25.3655H33.2817V25.2972H33.2457V25.2289H33.2098V25.1605C33.1871 25.1495 33.1625 25.1384 33.1399 25.1255C33.1285 25.0904 33.1172 25.0571 33.1039 25.0221H33.068C33.0453 24.9537 33.0208 24.8836 32.9981 24.8153C32.9754 24.8042 32.9508 24.7931 32.9281 24.7802C32.9054 24.7119 32.8809 24.6417 32.8582 24.5734C32.8355 24.5623 32.8109 24.5512 32.7882 24.5383V24.47H32.7523V24.4017C32.7296 24.3906 32.7051 24.3795 32.6824 24.3666V24.2983H32.6464V24.23H32.6105V24.1617H32.5746V24.0933C32.5519 24.0823 32.5273 24.0712 32.5047 24.0583V23.9899H32.4687V23.9216C32.4461 23.9105 32.4215 23.8995 32.3988 23.8865C32.3761 23.8182 32.3515 23.7481 32.3288 23.6797C32.3062 23.6687 32.2816 23.6576 32.2589 23.6447C32.2362 23.5763 32.2116 23.5062 32.1889 23.4379C32.1663 23.4268 32.1417 23.4157 32.119 23.4028C32.0963 23.3345 32.0717 23.2643 32.0491 23.196C32.0264 23.1849 32.0018 23.1738 31.9791 23.1609C31.9564 23.0926 31.9318 23.0224 31.9092 22.9541C31.8865 22.943 31.8619 22.932 31.8392 22.919C31.8279 22.8729 31.8165 22.8267 31.8033 22.7806C31.7806 22.7695 31.756 22.7584 31.7333 22.7455C31.722 22.6993 31.7107 22.6532 31.6974 22.607C31.6747 22.5959 31.6502 22.5848 31.6275 22.5719V22.5036H31.5916V22.4353C31.5689 22.4242 31.5443 22.4131 31.5216 22.4002V22.3319H31.4857V22.2636H31.4498V22.1953H31.4138V22.1269C31.3912 22.1159 31.3666 22.1048 31.3439 22.0919C31.3212 22.0235 31.2966 21.9534 31.274 21.8851C31.2513 21.874 31.2267 21.8629 31.204 21.85C31.1927 21.8038 31.1813 21.7577 31.1681 21.7115C31.1454 21.7004 31.1208 21.6893 31.0981 21.6764C31.0755 21.6081 31.0509 21.5379 31.0282 21.4696C31.0055 21.4585 30.9809 21.4475 30.9582 21.4345C30.9356 21.3662 30.911 21.2961 30.8883 21.2278C30.8656 21.2167 30.841 21.2056 30.8183 21.1927C30.7957 21.1244 30.7711 21.0542 30.7484 20.9859C30.7257 20.9748 30.7011 20.9637 30.6784 20.9508C30.6558 20.8825 30.6312 20.8123 30.6085 20.744C30.5858 20.7329 30.5612 20.7218 30.5386 20.7089C30.5159 20.6406 30.4913 20.5704 30.4686 20.5021C30.4459 20.491 30.4213 20.48 30.3987 20.467C30.3873 20.4209 30.376 20.3747 30.3627 20.3286C30.3401 20.3175 30.3155 20.3064 30.2928 20.2935C30.2701 20.2252 30.2455 20.155 30.2228 20.0867C30.2002 20.0756 30.1756 20.0645 30.1529 20.0516V19.9833H30.117V19.915C30.0943 19.9039 30.0697 19.8928 30.047 19.8799C30.0243 19.8116 29.9998 19.7414 29.9771 19.6731C29.9544 19.662 29.9298 19.6509 29.9071 19.638C29.8844 19.5697 29.8599 19.4995 29.8372 19.4312C29.8145 19.4201 29.7899 19.4091 29.7672 19.3961V19.3278H29.7313V19.2595H29.6954V19.1912C29.6727 19.1801 29.6481 19.169 29.6254 19.1561C29.6141 19.11 29.6028 19.0638 29.5895 19.0176C29.5498 18.9604 29.461 18.929 29.4137 18.8459H21.7194C21.7081 18.8238 21.6967 18.7998 21.6835 18.7776C21.6363 18.7425 21.589 18.7093 21.5417 18.6742C21.5304 18.628 21.519 18.5819 21.5058 18.5357C21.4831 18.5246 21.4585 18.5136 21.4359 18.5006C21.4245 18.4545 21.4132 18.4083 21.3999 18.3622H21.364C21.3527 18.316 21.3413 18.2698 21.3281 18.2237C21.3054 18.2126 21.2808 18.2015 21.2582 18.1886C21.2468 18.1424 21.2355 18.0963 21.2222 18.0501C21.1995 18.0391 21.175 18.028 21.1523 18.015C21.1409 17.9689 21.1296 17.9227 21.1164 17.8766C21.0937 17.8655 21.0691 17.8544 21.0464 17.8415C21.0351 17.7953 21.0237 17.7492 21.0105 17.703C20.9878 17.6919 20.9632 17.6809 20.9406 17.6679C20.9179 17.5996 20.8933 17.5294 20.8706 17.4611C20.8479 17.4501 20.8233 17.439 20.8007 17.4261V17.3577H20.7647V17.2894H20.7288V17.2211H20.6929V17.1528C20.6702 17.1417 20.6456 17.1306 20.623 17.1177V17.0494H20.587V16.9811H20.5511V16.9128C20.5284 16.9017 20.5038 16.8906 20.4812 16.8777C20.4698 16.8315 20.4585 16.7854 20.4452 16.7392C20.4226 16.7281 20.398 16.717 20.3753 16.7041C20.364 16.658 20.3526 16.6118 20.3394 16.5656C20.3167 16.5546 20.2921 16.5435 20.2694 16.5306V16.4622H20.2335V16.3939H20.1976V16.3256H20.1617V16.2573C20.139 16.2462 20.1144 16.2351 20.0917 16.2222C20.0804 16.1761 20.069 16.1299 20.0558 16.0837C20.0331 16.0727 20.0085 16.0616 19.9859 16.0487C19.9745 16.0025 19.9632 15.9563 19.9499 15.9102C19.9273 15.8991 19.9027 15.888 19.88 15.8751C19.8573 15.8068 19.8327 15.7366 19.81 15.6683C19.7874 15.6572 19.7628 15.6461 19.7401 15.6332V15.5649H19.7042V15.4966H19.6683V15.4283H19.6323V15.36C19.6096 15.3489 19.5851 15.3378 19.5624 15.3249V15.2566H19.5265V15.1882C19.5038 15.1772 19.4792 15.1661 19.4565 15.1532C19.4338 15.0848 19.4093 15.0147 19.3866 14.9464C19.3639 14.9353 19.3393 14.9242 19.3166 14.9113C19.3053 14.8651 19.2939 14.819 19.2807 14.7728C19.258 14.7617 19.2334 14.7506 19.2108 14.7377C19.1994 14.6916 19.1881 14.6454 19.1748 14.5992C19.1522 14.5882 19.1276 14.5771 19.1049 14.5642V14.4958H19.069V14.4275H19.0331V14.3592H18.9971V14.2909H18.9612V14.2226C18.9385 14.2115 18.914 14.2004 18.8913 14.1875C18.8799 14.1413 18.8686 14.0952 18.8553 14.049C18.8327 14.0379 18.8081 14.0269 18.7854 14.0139C18.7741 13.9678 18.7627 13.9216 18.7495 13.8755C18.7268 13.8644 18.7022 13.8533 18.6795 13.8404C18.6682 13.7942 18.6568 13.7481 18.6436 13.7019C18.6209 13.6908 18.5963 13.6797 18.5737 13.6668C18.551 13.5985 18.5264 13.5283 18.5037 13.46C18.481 13.4489 18.4565 13.4379 18.4338 13.4249C18.4111 13.3566 18.3865 13.2865 18.3638 13.2181C18.3411 13.2071 18.3166 13.196 18.2939 13.1831C18.2712 13.1148 18.2466 13.0446 18.2239 12.9763C18.2012 12.9652 18.1767 12.9541 18.154 12.9412C18.1313 12.8729 18.1067 12.8027 18.084 12.7344C18.0613 12.7233 18.0368 12.7122 18.0141 12.6993C17.9914 12.631 17.9668 12.5608 17.9441 12.4925C17.9214 12.4814 17.8969 12.4704 17.8742 12.4574V12.3891H17.8383V12.3208C17.8156 12.3097 17.791 12.2987 17.7683 12.2857V12.2174C17.7267 12.1657 17.6738 12.1897 17.6265 12.114H8.48035C8.452 12.1676 8.3726 12.2082 8.41041 12.3208H8.44633L8.44443 12.3134Z" fill="#0F367B"/>
<path d="M28.1413 14.1064H28.1772C28.1886 14.1415 28.1999 14.1748 28.2132 14.2098H28.2491V14.2782C28.2718 14.2892 28.2963 14.3003 28.319 14.3132V14.3816H28.355V14.4499H28.3909V14.5182H28.4268V14.5865C28.4495 14.5976 28.4741 14.6087 28.4967 14.6216C28.5081 14.6677 28.5194 14.7139 28.5327 14.7601C28.5553 14.7711 28.5799 14.7822 28.6026 14.7951C28.6253 14.8635 28.6499 14.9336 28.6726 15.0019C28.6952 15.013 28.7198 15.0241 28.7425 15.037C28.7652 15.1053 28.7898 15.1755 28.8124 15.2438C28.8351 15.2549 28.8597 15.266 28.8824 15.2789V15.3472H28.9183C28.941 15.4155 28.9656 15.4857 28.9883 15.554C29.0109 15.5651 29.0355 15.5762 29.0582 15.5891C29.0696 15.6242 29.0809 15.6574 29.0941 15.6925H29.1301V15.7608H29.166V15.8291H29.2019V15.8974H29.2378V15.9657C29.2605 15.9768 29.2851 15.9879 29.3078 16.0008C29.3304 16.0691 29.355 16.1393 29.3777 16.2076C29.4004 16.2187 29.425 16.2298 29.4477 16.2427V16.311H29.4836V16.3793C29.5063 16.3904 29.5308 16.4015 29.5535 16.4144C29.5762 16.4827 29.6008 16.5529 29.6235 16.6212C29.6462 16.6323 29.6707 16.6434 29.6934 16.6563C29.7048 16.7025 29.7161 16.7486 29.7293 16.7948C29.752 16.8058 29.7766 16.8169 29.7993 16.8299C29.822 16.8982 29.8465 16.9683 29.8692 17.0366C29.8919 17.0477 29.9165 17.0588 29.9392 17.0717V17.14C29.9543 17.1622 29.9864 17.1659 30.0091 17.2084C30.0791 17.2287 30.0394 17.2028 30.0791 17.2434H32.5859C32.9186 17.2434 33.4914 17.3007 33.7504 17.2084C33.7334 16.9868 33.654 16.9739 33.5746 16.8299C33.5632 16.7837 33.5519 16.7375 33.5387 16.6914C33.516 16.6803 33.4914 16.6692 33.4687 16.6563C33.446 16.588 33.4215 16.5178 33.3988 16.4495C33.3761 16.4384 33.3515 16.4273 33.3288 16.4144V16.3461H33.2929V16.2778C33.2702 16.2667 33.2456 16.2556 33.223 16.2427V16.1744H33.187V16.1061C33.1643 16.095 33.1398 16.0839 33.1171 16.071V16.0027H33.0812V15.9344H33.0452V15.866H33.0093V15.7977C32.9866 15.7866 32.9621 15.7756 32.9394 15.7626C32.928 15.7165 32.9167 15.6703 32.9035 15.6242C32.8808 15.6131 32.8562 15.602 32.8335 15.5891C32.8108 15.5208 32.7863 15.4506 32.7636 15.3823C32.7409 15.3712 32.7163 15.3601 32.6936 15.3472C32.6709 15.2789 32.6464 15.2087 32.6237 15.1404C32.601 15.1293 32.5764 15.1183 32.5537 15.1053C32.531 15.037 32.5065 14.9669 32.4838 14.8985C32.4611 14.8875 32.4365 14.8764 32.4138 14.8635C32.4025 14.8284 32.3911 14.7951 32.3779 14.7601H32.342V14.6917H32.3061V14.6234H32.2702V14.5551H32.2342V14.4868H32.1983V14.4185C32.1756 14.4074 32.1511 14.3963 32.1284 14.3834C32.117 14.3372 32.1057 14.2911 32.0924 14.2449C32.0698 14.2338 32.0452 14.2228 32.0225 14.2098V14.1415H31.9866V14.0732C31.9733 14.0529 31.9393 14.0474 31.9166 14.0049C31.5366 13.9384 31.013 13.9698 30.5763 13.9698H28.2113C28.1867 14.0178 28.1243 14.0307 28.1413 14.1083V14.1064Z" fill="#3698D9"/>
<path d="M27.011 10.4173C27.0223 10.4635 27.0336 10.5096 27.0469 10.5558C27.0696 10.5669 27.0941 10.5779 27.1168 10.5909C27.1395 10.6592 27.1641 10.7293 27.1868 10.7976C27.2095 10.8087 27.234 10.8198 27.2567 10.8327C27.2794 10.901 27.304 10.9712 27.3267 11.0395C27.3494 11.0506 27.3739 11.0617 27.3966 11.0746C27.4193 11.1429 27.4439 11.2131 27.4666 11.2814C27.4893 11.2925 27.5138 11.3036 27.5365 11.3165C27.5592 11.3848 27.5838 11.455 27.6065 11.5233C27.6291 11.5344 27.6537 11.5454 27.6764 11.5584C27.6878 11.6045 27.6991 11.6507 27.7123 11.6968C27.735 11.7079 27.7596 11.719 27.7823 11.7319C27.7936 11.7781 27.805 11.8242 27.8182 11.8704C27.8409 11.8815 27.8655 11.8926 27.8881 11.9055V11.9738H27.9241C27.9354 12.0089 27.9467 12.0421 27.96 12.0772C28.0432 12.0993 28.0261 12.0864 28.0659 12.1455H29.6198C29.9091 12.1455 30.2078 12.1714 30.3968 12.0772C30.3704 11.863 30.2418 11.7707 30.1492 11.6285C30.1265 11.5602 30.1019 11.49 30.0792 11.4217C30.0565 11.4106 30.032 11.3996 30.0093 11.3866C29.9979 11.3405 29.9866 11.2943 29.9734 11.2482C29.9507 11.2371 29.9261 11.226 29.9034 11.2131C29.8807 11.1448 29.8561 11.0746 29.8335 11.0063C29.8108 10.9952 29.7862 10.9841 29.7635 10.9712V10.9029H29.7276V10.8346H29.6917V10.7663H29.6557V10.6979C29.6331 10.6869 29.6085 10.6758 29.5858 10.6629C29.5745 10.6167 29.5631 10.5705 29.5499 10.5244C29.5272 10.5133 29.5026 10.5022 29.4799 10.4893C29.4572 10.421 29.4327 10.3508 29.41 10.2825C29.3873 10.2714 29.3627 10.2604 29.34 10.2474V10.1791C29.2966 10.12 29.2115 10.0905 29.1642 10.0074H27.6102C27.321 10.0074 27.0223 9.98155 26.8333 10.0757C26.8522 10.2271 26.9089 10.3084 26.975 10.421H27.011V10.4173Z" fill="#3698D9"/>
<path d="M19.7401 12.4853C19.7628 12.4963 19.7874 12.5074 19.8101 12.5203V12.5887H19.846C19.8574 12.6348 19.8687 12.681 19.8819 12.7271C19.9046 12.7382 19.9292 12.7493 19.9519 12.7622V12.8305H19.9878V12.8988H20.0237V12.9672C20.0464 12.9782 20.071 12.9893 20.0937 13.0022C20.105 13.0484 20.1164 13.0946 20.1296 13.1407C20.1523 13.1518 20.1768 13.1629 20.1995 13.1758C20.2222 13.2441 20.2468 13.3143 20.2695 13.3826C20.2922 13.3937 20.3167 13.4048 20.3394 13.4177C20.3621 13.486 20.3867 13.5562 20.4094 13.6245C20.4321 13.6355 20.4566 13.6466 20.4793 13.6596C20.4907 13.7057 20.502 13.7519 20.5152 13.798C20.5379 13.8091 20.5625 13.8202 20.5852 13.8331C20.5965 13.8793 20.6079 13.9254 20.6211 13.9716C20.6438 13.9827 20.6684 13.9937 20.6911 14.0067V14.075H20.727V14.1433H20.7629V14.2116H20.7988V14.2799C20.8215 14.291 20.8461 14.3021 20.8688 14.315C20.8915 14.3833 20.916 14.4535 20.9387 14.5218C20.9614 14.5329 20.986 14.544 21.0087 14.5569C21.02 14.6031 21.0313 14.6492 21.0446 14.6954C21.0673 14.7065 21.0918 14.7175 21.1145 14.7305C21.1372 14.7988 21.1618 14.8689 21.1845 14.9372C21.2072 14.9483 21.2317 14.9594 21.2544 14.9723V15.0406H21.2903V15.109H21.3263V15.1773H21.3622V15.2456C21.3849 15.2567 21.4094 15.2678 21.4321 15.2807C21.4435 15.3158 21.4548 15.349 21.468 15.3841H21.504C21.5267 15.4524 21.5512 15.5226 21.5739 15.5909C21.5966 15.6019 21.6212 15.613 21.6439 15.6259V15.6943H21.6798V15.7626C21.7025 15.7737 21.727 15.7847 21.7497 15.7977C21.7724 15.866 21.797 15.9361 21.8197 16.0045C21.8424 16.0155 21.8669 16.0266 21.8896 16.0395V16.1079H21.9255V16.1762H21.9615V16.2445H21.9974V16.3128C22.0201 16.3239 22.0446 16.335 22.0673 16.3479C22.0787 16.394 22.09 16.4402 22.1033 16.4864C22.1259 16.4974 22.1505 16.5085 22.1732 16.5214C22.1959 16.5898 22.2205 16.6599 22.2431 16.7282C22.2658 16.7393 22.2904 16.7504 22.3131 16.7633C22.3244 16.8095 22.3358 16.8556 22.349 16.9018C22.3717 16.9129 22.3963 16.924 22.419 16.9369V17.0052H22.4549V17.0735H22.4908C22.5021 17.1086 22.5135 17.1418 22.5267 17.1769C22.6099 17.1991 22.5929 17.1861 22.6326 17.2452H27.7861C27.9846 17.2452 28.2417 17.2618 28.3853 17.2101C28.3967 17.1751 28.408 17.1418 28.4213 17.1067C28.2833 16.996 28.2379 16.7762 28.1396 16.6248C28.1169 16.6138 28.0923 16.6027 28.0696 16.5898C28.0469 16.5214 28.0224 16.4513 27.9997 16.383C27.977 16.3719 27.9524 16.3608 27.9297 16.3479C27.9184 16.3017 27.907 16.2556 27.8938 16.2094C27.8711 16.1983 27.8466 16.1872 27.8239 16.1743C27.8012 16.106 27.7766 16.0358 27.7539 15.9675C27.7312 15.9565 27.7067 15.9454 27.684 15.9324C27.6613 15.8641 27.6367 15.794 27.614 15.7257C27.5913 15.7146 27.5668 15.7035 27.5441 15.6906V15.6223H27.5082V15.5539H27.4722V15.4856H27.4363V15.4173C27.4136 15.4062 27.3891 15.3952 27.3664 15.3822C27.355 15.3361 27.3437 15.2899 27.3304 15.2437C27.3078 15.2327 27.2832 15.2216 27.2605 15.2087C27.2492 15.1625 27.2378 15.1163 27.2246 15.0702C27.2019 15.0591 27.1773 15.048 27.1546 15.0351V14.9668H27.1187V14.8985H27.0828V14.8302H27.0469V14.7618C27.0242 14.7508 26.9996 14.7397 26.9769 14.7268V14.6584H26.941V14.5901C26.9183 14.5791 26.8937 14.568 26.8711 14.555C26.8484 14.4867 26.8238 14.4166 26.8011 14.3483C26.7784 14.3372 26.7539 14.3261 26.7312 14.3132V14.2449H26.6952V14.1765C26.6726 14.1655 26.648 14.1544 26.6253 14.1415V14.0731H26.5894V14.0048H26.5535V13.9365H26.5175V13.8682C26.4949 13.8571 26.4703 13.846 26.4476 13.8331C26.4362 13.787 26.4249 13.7408 26.4117 13.6946C26.389 13.6836 26.3644 13.6725 26.3417 13.6596C26.3304 13.6134 26.319 13.5672 26.3058 13.5211C26.2831 13.51 26.2585 13.4989 26.2359 13.486V13.4177H26.1999V13.3494H26.164V13.281H26.1281V13.2127C26.1054 13.2017 26.0808 13.1906 26.0582 13.1776V13.1093H26.0222V13.041H25.9863V12.9727C25.9636 12.9616 25.939 12.9505 25.9164 12.9376C25.905 12.8915 25.8937 12.8453 25.8804 12.7991C25.8578 12.7881 25.8332 12.777 25.8105 12.7641C25.7992 12.7179 25.7878 12.6717 25.7746 12.6256C25.7519 12.6145 25.7273 12.6034 25.7046 12.5905C25.6819 12.5222 25.6574 12.452 25.6347 12.3837C25.612 12.3726 25.5874 12.3615 25.5647 12.3486V12.2803H25.5288C25.5061 12.2452 25.4816 12.212 25.4589 12.1769C25.4003 12.1658 25.3417 12.1548 25.2831 12.1418V12.1769H25.1413C24.8823 12.1141 24.4701 12.1418 24.1525 12.1418H20.6589C20.3319 12.1418 19.9424 12.1289 19.6702 12.1769C19.6589 12.212 19.6475 12.2452 19.6343 12.2803H19.6702C19.6929 12.3486 19.7175 12.4188 19.7401 12.4871V12.4853Z" fill="#3698D9"/>
<path d="M8.12687 19.208C8.13822 19.2542 8.14956 19.3003 8.16279 19.3465C8.18548 19.3576 8.21005 19.3686 8.23274 19.3816C8.24408 19.4277 8.25543 19.4739 8.26866 19.52C8.29134 19.5311 8.31592 19.5422 8.33861 19.5551C8.36129 19.6234 8.38587 19.6936 8.40855 19.7619C8.43124 19.773 8.45582 19.7841 8.4785 19.797C8.50119 19.8653 8.52576 19.9355 8.54845 20.0038C8.57114 20.0149 8.59571 20.0259 8.6184 20.0389V20.1072H8.65432V20.1755C8.677 20.1866 8.70158 20.1977 8.72427 20.2106C8.74695 20.2789 8.77153 20.3491 8.79421 20.4174C9.64115 21.7265 10.3841 23.1408 11.2292 24.4517C11.2518 24.52 11.2764 24.5902 11.2991 24.6585C11.3218 24.6696 11.3464 24.6807 11.3691 24.6936V24.7619H11.405V24.8302H11.4409V24.8985C11.4636 24.9096 11.4882 24.9207 11.5108 24.9336C11.5222 24.9798 11.5335 25.0259 11.5468 25.0721C11.5694 25.0832 11.594 25.0943 11.6167 25.1072C11.6394 25.1755 11.664 25.2457 11.6867 25.314C11.7093 25.3251 11.7339 25.3361 11.7566 25.3491V25.4174H11.7925V25.4857C11.8152 25.4968 11.8398 25.5078 11.8625 25.5208V25.5891H11.8984V25.6574H11.9343V25.7257H11.9702V25.794C11.9929 25.8051 12.0175 25.8162 12.0402 25.8291C12.0515 25.8753 12.0629 25.9214 12.0761 25.9676C12.0988 25.9787 12.1234 25.9898 12.146 26.0027C12.1574 26.0488 12.1687 26.095 12.182 26.1412C12.2047 26.1522 12.2292 26.1633 12.2519 26.1762V26.2446H12.2878V26.3129H12.3238V26.3812H12.3597V26.4495C12.3824 26.4606 12.4069 26.4717 12.4296 26.4846V26.5529H12.4655V26.6212C12.4882 26.6323 12.5128 26.6434 12.5355 26.6563C12.5582 26.7246 12.5827 26.7948 12.6054 26.8631C12.6281 26.8742 12.6527 26.8853 12.6754 26.8982V26.9665H12.7113V27.0348C12.734 27.0459 12.7586 27.057 12.7813 27.0699C12.8039 27.1382 12.8285 27.2084 12.8512 27.2767C12.8739 27.2878 12.8985 27.2988 12.9211 27.3118V27.3801H12.9571V27.4484H12.993V27.5167H13.0289V27.585C13.0516 27.5961 13.0762 27.6072 13.0989 27.6201C13.1102 27.6663 13.1215 27.7124 13.1348 27.7586C13.1575 27.7697 13.182 27.7807 13.2047 27.7937C13.2161 27.8398 13.2274 27.886 13.2406 27.9321C13.2633 27.9432 13.2879 27.9543 13.3106 27.9672C13.3333 28.0355 13.3578 28.1057 13.3805 28.174C13.4032 28.1851 13.4278 28.1962 13.4505 28.2091V28.2774H13.4864V28.3457H13.5223V28.4141H13.5582V28.4824C13.5809 28.4934 13.6055 28.5045 13.6282 28.5175C13.6395 28.5636 13.6509 28.6098 13.6641 28.6559C13.6868 28.667 13.7114 28.6781 13.7341 28.691C13.7454 28.7372 13.7567 28.7833 13.77 28.8295C13.7927 28.8406 13.8172 28.8516 13.8399 28.8646C13.8513 28.9107 13.8626 28.9569 13.8758 29.003C13.8985 29.0141 13.9231 29.0252 13.9458 29.0381V29.1064H13.9817V29.1748H14.0176V29.2431H14.0535V29.3114H14.0895V29.3797C14.1122 29.3908 14.1367 29.4019 14.1594 29.4148V29.4831H14.1953V29.5514C14.2823 29.6844 14.409 29.8099 14.477 29.965C14.547 29.9853 14.5073 29.9595 14.547 30.0001H30.9961C31.1851 30.0001 31.4252 30.0149 31.5613 29.965C31.5727 29.9299 31.584 29.8967 31.5973 29.8616C31.5235 29.8007 31.5065 29.7065 31.4555 29.6197H31.4196V29.5514H31.3836V29.4831C31.361 29.472 31.3364 29.461 31.3137 29.448V29.3797H31.2778V29.3114C31.2551 29.3003 31.2305 29.2892 31.2078 29.2763C31.1851 29.208 31.1606 29.1378 31.1379 29.0695C31.1152 29.0584 31.0906 29.0474 31.0679 29.0344C31.0566 28.9883 31.0452 28.9421 31.032 28.896C31.0093 28.8849 30.9847 28.8738 30.9621 28.8609C30.9394 28.7926 30.9148 28.7224 30.8921 28.6541C30.8694 28.643 30.8449 28.6319 30.8222 28.619C30.7995 28.5507 30.7749 28.4805 30.7522 28.4122C30.7295 28.4011 30.705 28.3901 30.6823 28.3771C30.6709 28.331 30.6596 28.2848 30.6463 28.2386C30.6237 28.2276 30.5991 28.2165 30.5764 28.2036V28.1353H30.5405V28.0669C30.5272 28.0466 30.4932 28.0411 30.4705 27.9986C30.1019 27.934 29.5915 27.9635 29.1642 27.9635H16.8817C16.687 27.9635 15.9875 28.0078 15.893 27.9285C15.721 27.8841 15.7928 27.838 15.7172 27.7217C15.6945 27.7106 15.6699 27.6995 15.6472 27.6866V27.6183H15.6113V27.5499H15.5754V27.4816C15.5527 27.4706 15.5281 27.4595 15.5054 27.4465V27.3782H15.4695V27.3099C15.4468 27.2988 15.4223 27.2878 15.3996 27.2748C15.3882 27.2287 15.3769 27.1825 15.3637 27.1364C15.341 27.1253 15.3164 27.1142 15.2937 27.1013C15.2824 27.0551 15.271 27.009 15.2578 26.9628C15.2351 26.9517 15.2105 26.9406 15.1878 26.9277V26.8594H15.1519V26.7911H15.116V26.7228H15.0801V26.6545H15.0442V26.5861C15.0215 26.5751 14.9969 26.564 14.9742 26.5511V26.4827H14.9383V26.4144C14.9156 26.4033 14.891 26.3923 14.8683 26.3793C14.857 26.3332 14.8457 26.287 14.8324 26.2409C14.8097 26.2298 14.7852 26.2187 14.7625 26.2058V26.1375H14.7266V26.0691H14.6906V26.0008H14.6547V25.9325C14.632 25.9214 14.6075 25.9104 14.5848 25.8974V25.8291H14.5489V25.7608C14.5262 25.7497 14.5016 25.7386 14.4789 25.7257C14.4562 25.6574 14.4316 25.5872 14.409 25.5189C14.3863 25.5079 14.3617 25.4968 14.339 25.4838C14.3277 25.4377 14.3163 25.3915 14.3031 25.3454C14.2804 25.3343 14.2558 25.3232 14.2331 25.3103C14.2218 25.2641 14.2105 25.218 14.1972 25.1718C14.1745 25.1607 14.15 25.1497 14.1273 25.1367V25.0684H14.0914V25.0001H14.0554V24.9318H14.0195V24.8635H13.9836V24.7951C13.9609 24.7841 13.9363 24.773 13.9137 24.7601C13.9023 24.7139 13.891 24.6677 13.8777 24.6216C13.855 24.6105 13.8305 24.5994 13.8078 24.5865C13.7964 24.5403 13.7851 24.4942 13.7719 24.448C13.7492 24.4369 13.7246 24.4259 13.7019 24.4129V24.3446H13.666V24.2763H13.6301V24.208H13.5942V24.1397C13.5715 24.1286 13.5469 24.1175 13.5242 24.1046C13.5015 24.0363 13.477 23.9661 13.4543 23.8978C13.4316 23.8867 13.407 23.8757 13.3843 23.8627C13.373 23.8166 13.3616 23.7704 13.3484 23.7242C13.3257 23.7132 13.3011 23.7021 13.2784 23.6892C13.2671 23.643 13.2558 23.5968 13.2425 23.5507C13.2198 23.5396 13.1953 23.5285 13.1726 23.5156C13.1612 23.4694 13.1499 23.4233 13.1367 23.3771C13.114 23.366 13.0894 23.355 13.0667 23.342V23.2737H13.0308V23.2054H12.9949V23.1371H12.959V23.0688C12.9363 23.0577 12.9117 23.0466 12.889 23.0337C12.8663 22.9654 12.8417 22.8952 12.8191 22.8269C12.7964 22.8158 12.7718 22.8047 12.7491 22.7918C12.7378 22.7457 12.7264 22.6995 12.7132 22.6533C12.6905 22.6423 12.6659 22.6312 12.6432 22.6183C12.6206 22.5499 12.596 22.4798 12.5733 22.4115C12.5506 22.4004 12.526 22.3893 12.5033 22.3764C12.4807 22.3081 12.4561 22.2379 12.4334 22.1696C12.4107 22.1585 12.3861 22.1474 12.3635 22.1345C12.3408 22.0662 12.3162 21.996 12.2935 21.9277C12.2708 21.9166 12.2462 21.9056 12.2236 21.8926C12.2122 21.8465 12.2009 21.8003 12.1876 21.7542C12.165 21.7431 12.1404 21.732 12.1177 21.7191C12.1063 21.6729 12.095 21.6268 12.0818 21.5806C12.0591 21.5695 12.0345 21.5584 12.0118 21.5455V21.4772H11.9759V21.4089H11.94V21.3406H11.9041V21.2723C11.8814 21.2612 11.8568 21.2501 11.8341 21.2372C11.8114 21.1689 11.7869 21.0987 11.7642 21.0304C11.7415 21.0193 11.7169 21.0082 11.6942 20.9953C11.6829 20.9491 11.6715 20.903 11.6583 20.8568C11.6356 20.8457 11.611 20.8347 11.5884 20.8217C11.577 20.7756 11.5657 20.7294 11.5524 20.6833C11.5297 20.6722 11.5052 20.6611 11.4825 20.6482C11.4598 20.5799 11.4352 20.5097 11.4125 20.4414C11.3899 20.4303 11.3653 20.4192 11.3426 20.4063V20.338H11.3067V20.2697H11.2708V20.2014H11.2348V20.133C11.2121 20.122 11.1876 20.1109 11.1649 20.098C11.1535 20.0518 11.1422 20.0056 11.129 19.9595C11.1063 19.9484 11.0817 19.9373 11.059 19.9244C11.0477 19.8782 11.0363 19.8321 11.0231 19.7859C11.0004 19.7748 10.9758 19.7638 10.9532 19.7508C10.9418 19.7047 10.9305 19.6585 10.9172 19.6124C10.8945 19.6013 10.87 19.5902 10.8473 19.5773C10.8246 19.509 10.8 19.4388 10.7773 19.3705C10.7546 19.3594 10.7301 19.3483 10.7074 19.3354V19.2671H10.6715V19.1988H10.6355V19.1305H10.5996V19.0621C10.5769 19.0511 10.5524 19.04 10.5297 19.0271C10.5183 18.9809 10.507 18.9347 10.4938 18.8886C10.4711 18.8775 10.4465 18.8664 10.4238 18.8535V18.7852H10.3879C10.3766 18.739 10.3652 18.6929 10.352 18.6467C10.3293 18.6356 10.3047 18.6245 10.282 18.6116C10.2593 18.5433 10.2348 18.4731 10.2121 18.4048C10.1894 18.3937 10.1648 18.3827 10.1421 18.3697C10.1194 18.3014 10.0949 18.2313 10.0722 18.1629C10.0495 18.1519 10.0249 18.1408 10.0022 18.1279C9.99089 18.0817 9.97955 18.0355 9.96632 17.9894C9.94363 17.9783 9.91905 17.9672 9.89637 17.9543C9.87368 17.886 9.84911 17.8158 9.82642 17.7475C9.80373 17.7364 9.77916 17.7254 9.75647 17.7124V17.6441H9.72055V17.5758H9.68463V17.5075H9.64871V17.4392C9.62603 17.4281 9.60145 17.417 9.57877 17.4041C9.56742 17.3579 9.55608 17.3118 9.54285 17.2656C9.52016 17.2545 9.49559 17.2434 9.4729 17.2305C9.46156 17.1844 9.45021 17.1382 9.43698 17.092C9.41429 17.081 9.38972 17.0699 9.36703 17.057C9.35569 17.0108 9.34435 16.9646 9.33111 16.9185C9.30843 16.9074 9.28385 16.8963 9.26116 16.8834C9.23848 16.8151 9.2139 16.7449 9.19122 16.6766C9.16853 16.6655 9.14395 16.6545 9.12127 16.6415V16.5732H9.08535V16.5049H9.04943V16.4366H9.01351V16.3683C8.99082 16.3572 8.96625 16.3461 8.94356 16.3332C8.93222 16.287 8.92088 16.2409 8.90764 16.1947C8.88496 16.1836 8.86038 16.1725 8.8377 16.1596C8.82635 16.1135 8.81501 16.0673 8.80178 16.0211C8.77909 16.0101 8.75451 15.999 8.73183 15.9861C8.70914 15.9177 8.68457 15.8476 8.66188 15.7793C8.63919 15.7682 8.61462 15.7571 8.59193 15.7442C8.58059 15.698 8.56925 15.6519 8.55601 15.6057H8.52009C8.49741 15.5706 8.47283 15.5374 8.45015 15.5023C8.18926 15.4562 7.81305 15.4672 7.49734 15.4672H6.07948C6.05112 15.5208 5.97172 15.5614 6.00953 15.674H6.04545V15.7423C6.06813 15.7534 6.09271 15.7645 6.11539 15.7774C6.13808 15.8457 6.16266 15.9159 6.18534 15.9842C6.20803 15.9953 6.2326 16.0064 6.25529 16.0193C6.27798 16.0876 6.30255 16.1578 6.32524 16.2261C6.34792 16.2372 6.3725 16.2482 6.39519 16.2612C6.40653 16.3073 6.41787 16.3535 6.43111 16.3997C6.45379 16.4107 6.47837 16.4218 6.50105 16.4347C6.52374 16.503 6.54832 16.5732 6.571 16.6415C6.59369 16.6526 6.61826 16.6637 6.64095 16.6766C6.65229 16.7228 6.66364 16.7689 6.67687 16.8151C6.69955 16.8262 6.72413 16.8372 6.74682 16.8502V16.9185H6.78274V16.9868H6.81866C6.83 17.033 6.84134 17.0791 6.85457 17.1253C6.87726 17.1364 6.90184 17.1474 6.92452 17.1604C6.93587 17.2065 6.94721 17.2527 6.96044 17.2988C6.98313 17.3099 7.0077 17.321 7.03039 17.3339C7.04173 17.3801 7.05308 17.4262 7.06631 17.4724C7.089 17.4835 7.11357 17.4946 7.13626 17.5075V17.5758H7.17218V17.6441H7.2081V17.7124H7.24402V17.7807C7.2667 17.7918 7.29128 17.8029 7.31396 17.8158C7.33665 17.8841 7.36123 17.9543 7.38391 18.0226C7.4066 18.0337 7.43117 18.0448 7.45386 18.0577V18.126H7.48978V18.1943H7.5257V18.2627C7.54838 18.2737 7.57296 18.2848 7.59565 18.2977C7.60699 18.3439 7.61833 18.3901 7.63156 18.4362C7.65425 18.4473 7.67883 18.4584 7.70151 18.4713C7.71286 18.5175 7.7242 18.5636 7.73743 18.6098C7.76012 18.6208 7.78469 18.6319 7.80738 18.6449C7.83007 18.7132 7.85464 18.7833 7.87733 18.8516C7.90001 18.8627 7.92459 18.8738 7.94728 18.8867V18.955H7.9832V19.0234H8.01911V19.0917H8.05503V19.16C8.07772 19.1711 8.1023 19.1821 8.12498 19.1951L8.12687 19.208Z" fill="#202A55"/>
</g>
<circle cx="20" cy="20" r="19.5" stroke="black" stroke-opacity="0.05"/>
<defs>
<clipPath id="clip0_9_355650">
<rect width="28" height="20" fill="white" transform="translate(6 10)"/>
</clipPath>
</defs>
</svg>
