<svg width="40" height="40" viewBox="0 0 40 40" fill="none" xmlns="http://www.w3.org/2000/svg">
<circle cx="20" cy="20" r="20" fill="#ED1C24"/>
<path d="M34.7074 18.3708H34.282V17.8517H34.7074C34.7969 17.8368 34.8771 17.7879 34.9313 17.7151C34.9855 17.6424 35.0094 17.5515 34.9981 17.4615C35.0054 17.3733 34.9797 17.2856 34.926 17.2153C34.8723 17.145 34.7944 17.0971 34.7074 17.081H34.282V16.7103C34.2791 16.5927 34.2501 16.4774 34.1971 16.3724C34.1441 16.2675 34.0685 16.1756 33.9757 16.1034C33.683 15.8986 33.3181 16.0351 33.1581 16.4039C33.1161 16.5009 33.0916 16.6047 33.0859 16.7103V19.4322C33.1035 19.8517 33.3786 20.1795 33.7084 20.1659C34.0381 20.1522 34.2723 19.8303 34.2937 19.4322V19.1376H34.7191C34.8053 19.1179 34.8823 19.0696 34.9375 19.0005C34.9926 18.9313 35.0226 18.8455 35.0226 18.7571C35.0226 18.6687 34.9926 18.5829 34.9375 18.5137C34.8823 18.4446 34.8053 18.3963 34.7191 18.3766L34.7074 18.3708Z" fill="white"/>
<path d="M33.9853 20.5405H28.4263C28.341 20.561 28.2651 20.6095 28.2108 20.6784C28.1565 20.7472 28.127 20.8323 28.127 20.92C28.127 21.0077 28.1565 21.0929 28.2108 21.1617C28.2651 21.2306 28.341 21.2791 28.4263 21.2995H33.078V22.4059C33.0956 22.8254 33.3707 23.1513 33.7005 23.1396C34.0302 23.1278 34.2644 22.8059 34.2858 22.4059V20.9249C34.2958 20.8343 34.27 20.7434 34.2138 20.6716C34.1577 20.5997 34.0757 20.5527 33.9853 20.5405Z" fill="white"/>
<path d="M30.3543 20.1131C31.5738 20.1131 32.5631 19.2233 32.5631 18.1209C32.5631 17.0184 31.5738 16.1287 30.3543 16.1287C29.1348 16.1287 28.1475 17.0106 28.1475 18.1111C28.1475 19.2116 29.1348 20.1131 30.3543 20.1131ZM30.3543 16.9267C30.9084 16.9267 31.3592 17.4613 31.3592 18.1209C31.3592 18.7804 30.9084 19.317 30.3543 19.317C29.8001 19.317 29.3514 18.7823 29.3514 18.1209C29.3514 17.4594 29.8001 16.917 30.3543 16.917V16.9267Z" fill="white"/>
<path d="M24.8514 16.1189C24.5607 15.9238 24.1939 16.0526 24.0358 16.4214C23.9924 16.5193 23.9679 16.6246 23.9636 16.7316V18.9092H23.1831C23.0979 18.9296 23.0219 18.9781 22.9676 19.047C22.9133 19.1158 22.8838 19.201 22.8838 19.2887C22.8838 19.3764 22.9133 19.4615 22.9676 19.5304C23.0219 19.5992 23.0979 19.6478 23.1831 19.6682H23.9636V22.4155C23.9753 22.8331 24.2505 23.1589 24.5802 23.1453C24.91 23.1316 25.15 22.8116 25.1656 22.4155V16.7316C25.1616 16.6126 25.1314 16.496 25.0771 16.3901C25.0227 16.2842 24.9457 16.1916 24.8514 16.1189Z" fill="white"/>
<path d="M26.9471 16.7356C26.9434 16.6175 26.9137 16.5017 26.86 16.3965C26.8064 16.2912 26.7302 16.1992 26.6368 16.1268C26.3481 15.9317 25.9812 16.0565 25.8212 16.4292C25.7785 16.526 25.754 16.6299 25.749 16.7356V22.4214C25.7646 22.839 26.0378 23.1648 26.3695 23.1551C26.7012 23.1453 26.9354 22.8156 26.9549 22.4214V16.7356H26.9471Z" fill="white"/>
<path d="M23.3081 22.0976C22.8302 21.3776 22.5533 20.5429 22.5062 19.68V17.0068H23.2457C23.335 16.9899 23.4156 16.9423 23.4736 16.8723C23.5315 16.8023 23.5633 16.7143 23.5633 16.6234C23.5633 16.5325 23.5315 16.4445 23.4736 16.3745C23.4156 16.3045 23.335 16.2569 23.2457 16.24H20.5237C20.4366 16.2588 20.3584 16.3069 20.3024 16.3763C20.2464 16.4457 20.2158 16.5323 20.2158 16.6215C20.2158 16.7107 20.2464 16.7972 20.3024 16.8666C20.3584 16.936 20.4366 16.9841 20.5237 17.0029H21.3042V19.6761C21.3033 19.6852 21.3033 19.6943 21.3042 19.7034C21.2509 20.553 20.9742 21.3735 20.5023 22.0819C20.4502 22.1288 20.409 22.1864 20.3814 22.2507C20.3537 22.3151 20.3404 22.3846 20.3423 22.4546C20.3312 22.5602 20.3617 22.6659 20.4272 22.7493C20.4928 22.8327 20.5883 22.8873 20.6935 22.9015C20.7571 22.8995 20.8185 22.8777 20.8691 22.839H20.8808L20.8925 22.8293C21.3098 22.5152 21.6556 22.1162 21.9072 21.6585C22.1576 22.1219 22.505 22.5259 22.9257 22.8429H22.9394C22.9401 22.8452 22.9414 22.8472 22.9431 22.8489C22.9448 22.8506 22.9468 22.8519 22.9491 22.8527C23.0004 22.8914 23.0624 22.9132 23.1267 22.9151C23.2315 22.9005 23.3265 22.8457 23.3917 22.7624C23.4569 22.679 23.4871 22.5735 23.4759 22.4683C23.4766 22.398 23.4619 22.3284 23.4329 22.2644C23.4039 22.2004 23.3614 22.1435 23.3081 22.0976Z" fill="white"/>
<path d="M11.5055 16.7181C11.5021 16.6004 11.4728 16.485 11.4195 16.3801C11.3662 16.2751 11.2902 16.1833 11.1972 16.1112C10.9026 15.9064 10.5396 16.043 10.3796 16.4117C10.3366 16.5084 10.3122 16.6124 10.3074 16.7181V16.8332H9.58158C9.5402 16.8347 9.49989 16.8468 9.46451 16.8683C9.47622 16.8098 9.49183 16.7571 9.50548 16.6966H9.48792C9.48792 16.6771 9.48792 16.6537 9.48792 16.6322C9.49634 16.5423 9.46982 16.4527 9.41387 16.3818C9.35791 16.311 9.27682 16.2644 9.18743 16.2517H9.12695H8.7367H5.31817C5.23097 16.2706 5.15286 16.3187 5.09683 16.3881C5.0408 16.4575 5.01024 16.544 5.01024 16.6332C5.01024 16.7224 5.0408 16.8089 5.09683 16.8783C5.15286 16.9477 5.23097 16.9958 5.31817 17.0147H7.89378C7.90876 17.0156 7.92338 17.0196 7.93678 17.0264C7.95018 17.0332 7.96207 17.0426 7.97173 17.0541C7.98139 17.0655 7.98863 17.0789 7.993 17.0932C7.99738 17.1076 7.99881 17.1227 7.9972 17.1376C7.9986 17.1538 7.9986 17.1701 7.9972 17.1864H8.0089C7.4528 18.1073 6.56305 18.7044 5.55817 18.7044C5.40402 18.7044 5.50939 18.7044 5.38061 18.681L5.32402 18.6693H5.30646C5.21927 18.6881 5.14115 18.7362 5.08512 18.8056C5.02909 18.8751 4.99854 18.9616 4.99854 19.0508C4.99854 19.14 5.02909 19.2265 5.08512 19.2959C5.14115 19.3653 5.21927 19.4134 5.30646 19.4322V19.4517C5.4653 19.4931 5.62826 19.5167 5.79231 19.522H6.2489C7.90939 19.4634 8.87915 18.5991 9.32012 17.36C9.33772 17.4194 9.37215 17.4724 9.41926 17.5125C9.46636 17.5527 9.5241 17.5784 9.58548 17.5864H10.3113V18.0859H9.58939C9.5022 18.1047 9.42408 18.1528 9.36805 18.2222C9.31202 18.2916 9.28146 18.3781 9.28146 18.4673C9.28146 18.5566 9.31202 18.6431 9.36805 18.7125C9.42408 18.7819 9.5022 18.83 9.58939 18.8488H10.3113V18.9971C10.325 19.4147 10.6021 19.7444 10.9299 19.7327C11.2577 19.721 11.4977 19.3932 11.5152 18.9971V16.7181H11.5055Z" fill="white"/>
<path d="M8.35829 19.7932C6.64317 19.7932 5.25 20.5327 5.25 21.4498C5.25 22.3669 6.64317 23.1064 8.35829 23.1064C10.0734 23.1064 11.4705 22.3649 11.4705 21.4498C11.4705 20.5347 10.0793 19.7932 8.35829 19.7932ZM8.35829 22.3396C7.52902 22.3396 6.85586 21.9493 6.85586 21.4498C6.85586 20.9503 7.52902 20.5561 8.35829 20.5561C9.18756 20.5561 9.86269 20.9464 9.86269 21.4498C9.86269 21.9532 9.19146 22.3396 8.35829 22.3396Z" fill="white"/>
<path d="M19.3217 17.4635H18.9314V16.7025C18.927 16.5851 18.8972 16.47 18.844 16.3652C18.7907 16.2604 18.7154 16.1685 18.6231 16.0957C18.3305 15.9005 17.9656 16.0293 17.8036 16.4001C17.7631 16.4962 17.7388 16.5984 17.7314 16.7025V18.2049C17.7285 18.2423 17.7127 18.2775 17.6868 18.3046C17.6608 18.3316 17.6262 18.3488 17.589 18.3532V18.3747C16.6551 18.5826 15.7009 18.686 14.7441 18.683C14.5002 18.683 14.2583 18.683 14.0202 18.6635V18.6518C13.9898 18.6479 13.9621 18.6322 13.9432 18.6081C13.9242 18.584 13.9154 18.5535 13.9187 18.523C13.917 18.5074 13.917 18.4917 13.9187 18.4761V16.8449C13.915 16.7271 13.8855 16.6115 13.8322 16.5063C13.7789 16.4011 13.7032 16.3089 13.6105 16.2362C13.3197 16.0293 12.9529 16.1659 12.7948 16.5366C12.751 16.6338 12.7259 16.7384 12.7207 16.8449V18.8215C12.7121 18.8672 12.7075 18.9136 12.707 18.9601C12.7068 19.0259 12.7153 19.0916 12.7324 19.1552C12.7417 19.2525 12.7844 19.3435 12.8534 19.4127C12.8918 19.4672 12.9415 19.5128 12.999 19.5465C13.0566 19.5802 13.1207 19.6011 13.187 19.6079H14.2017C14.2544 19.6079 14.3012 19.6079 14.3519 19.6079C15.5171 19.6195 16.6713 19.382 17.7373 18.9113V19.0049C17.7509 19.4225 18.028 19.7503 18.3578 19.7386C18.6875 19.7269 18.9236 19.4049 18.9431 19.0049V18.2362H19.3334C19.4196 18.2165 19.4966 18.1682 19.5517 18.099C19.6069 18.0299 19.6369 17.9441 19.6369 17.8557C19.6369 17.7672 19.6069 17.6814 19.5517 17.6123C19.4966 17.5432 19.4196 17.4948 19.3334 17.4752L19.3217 17.4635Z" fill="white"/>
<path d="M18.2975 20.0234H13.4975C13.1638 20.0234 12.8926 20.3649 12.8926 20.7903V22.1893C12.8926 22.6127 13.1638 22.9542 13.4975 22.9542H18.2975C18.6311 22.9542 18.9023 22.6127 18.9023 22.1893V20.7903C18.9023 20.3649 18.6311 20.0234 18.2975 20.0234ZM17.7121 21.9259C17.7193 21.9853 17.7029 22.0452 17.6664 22.0926C17.6299 22.1401 17.5762 22.1713 17.517 22.1795H14.2936C14.2345 22.1708 14.1811 22.1395 14.1447 22.0921C14.1083 22.0448 14.0917 21.9852 14.0984 21.9259V21.0498C14.0922 20.9903 14.1089 20.9307 14.1452 20.8832C14.1815 20.8357 14.2345 20.8038 14.2936 20.7942H17.5033C17.5625 20.8034 17.6159 20.8351 17.6523 20.8827C17.6886 20.9304 17.7052 20.9902 17.6984 21.0498L17.7121 21.9259Z" fill="white"/>
<circle cx="20" cy="20" r="19.5" stroke="black" stroke-opacity="0.05"/>
</svg>
