<svg width="40" height="40" viewBox="0 0 40 40" fill="none" xmlns="http://www.w3.org/2000/svg">
<circle cx="20" cy="20" r="20" fill="#F59C00"/>
<path d="M21.158 13.5804C21.158 13.8462 21.0792 14.106 20.9315 14.3269C20.7839 14.5479 20.574 14.7201 20.3285 14.8218C20.083 14.9235 19.8128 14.9501 19.5522 14.8983C19.2916 14.8464 19.0522 14.7184 18.8642 14.5305C18.6763 14.3426 18.5484 14.1032 18.4965 13.8426C18.4447 13.5819 18.4713 13.3118 18.573 13.0663C18.6747 12.8207 18.8469 12.6109 19.0679 12.4633C19.2888 12.3156 19.5486 12.2368 19.8143 12.2368C20.1707 12.2368 20.5124 12.3784 20.7644 12.6304C21.0164 12.8823 21.158 13.2241 21.158 13.5804Z" fill="white"/>
<path d="M32.9582 18.795V17.355H31.6191V21.3931H32.9582V19.9541H34V18.795H32.9582Z" fill="black"/>
<path d="M30.2991 21.8567C29.1537 21.8567 28.2246 22.7503 28.2246 23.8512C28.2246 24.9521 29.1537 25.8412 30.2991 25.8412C31.4446 25.8412 32.3737 24.9494 32.3737 23.8485C32.3737 22.7476 31.4446 21.8567 30.2991 21.8567ZM30.2991 24.633C30.1436 24.6357 29.9908 24.5921 29.8601 24.5076C29.7295 24.4232 29.6269 24.3018 29.5655 24.1589C29.5041 24.0159 29.4866 23.858 29.5153 23.7051C29.544 23.5522 29.6175 23.4113 29.7266 23.3003C29.8356 23.1893 29.9752 23.1133 30.1275 23.082C30.2799 23.0506 30.4382 23.0653 30.5822 23.1242C30.7261 23.1831 30.8493 23.2835 30.9361 23.4127C31.0228 23.5418 31.0691 23.6938 31.0691 23.8494C31.0708 24.0554 30.9907 24.2536 30.8463 24.4006C30.7019 24.5475 30.5051 24.6311 30.2991 24.633Z" fill="black"/>
<path d="M15.7246 21.4931H19.1637V22.9649H20.5018V21.4931H23.8673V20.334H15.7246V21.4931Z" fill="black"/>
<path d="M13.8836 22.9113C13.8836 22.7341 13.8132 22.5641 13.6879 22.4388C13.5626 22.3135 13.3926 22.2431 13.2154 22.2431H10.67V21.1904H13.8827V18.2259C13.8824 18.0488 13.8119 17.8791 13.6866 17.754C13.5614 17.6289 13.3915 17.5586 13.2145 17.5586H6V18.7177H12.5454V20.0313H6V21.1904H9.3327V22.2431H6V23.4022H12.5454V25.3267H13.8845L13.8836 22.9113Z" fill="black"/>
<path d="M16.633 25.1686C16.456 25.1686 16.2862 25.0984 16.1609 24.9732C16.0356 24.8481 15.9651 24.6784 15.9648 24.5014V22.8586H17.3039V24.0095H23.6993V25.1686H16.633Z" fill="black"/>
<path d="M25.334 18.2259C25.334 18.0489 25.4043 17.8792 25.5294 17.754C25.6546 17.6289 25.8243 17.5586 26.0013 17.5586H30.183V18.7168H26.6722V20.1349H30.2285V21.2958H25.3376L25.334 18.2259Z" fill="black"/>
<path d="M19.8141 15.8042L16.2705 18.8651L17.1069 19.8333L19.8141 17.4951L22.5214 19.8333L23.3577 18.8651L19.8141 15.8042Z" fill="black"/>
<circle cx="20" cy="20" r="19.5" stroke="black" stroke-opacity="0.05"/>
</svg>
