<svg width="40" height="40" viewBox="0 0 40 40" fill="none" xmlns="http://www.w3.org/2000/svg">
<circle cx="20" cy="20" r="20" fill="#F6F8FA"/>
<g clip-path="url(#clip0_9_339156)">
<path d="M19.7317 9H19.7224H19.699H19.685H19.6616H19.6476L19.6242 9.00472H19.6055H19.5868H19.5728L19.5541 9.00945H19.5401H19.5167H19.5027H19.484H19.4466H19.4372L19.4139 9.01419L19.3998 9.01892H19.3765H19.3625L19.3438 9.02364L19.3297 9.02837H19.3064L19.297 9.0331L19.2736 9.03782H19.2643L19.2409 9.04256H19.2316L19.0773 9.07566L19.0446 9.08511L19.0119 9.09456C18.8343 9.14185 18.6567 9.20806 18.4931 9.28372L18.4884 9.28844L18.4603 9.2979L18.4557 9.30262L18.4323 9.31681H18.4276L18.4042 9.33099L18.3949 9.33572L18.3762 9.34991L18.3668 9.35464L18.3388 9.36883L18.3154 9.37828H18.3108L18.2827 9.39247L18.278 9.3972C18.049 9.5296 17.8387 9.6951 17.6517 9.88424L17.3946 10.1774L17.3853 10.1916L17.3712 10.2058C17.1048 10.5652 16.9179 10.9813 16.829 11.4352L16.8244 11.4778L15.8615 15.8233C15.7867 16.178 15.7446 16.4995 15.7446 16.8021C15.7446 18.6794 17.2404 19.5494 19.7691 19.7764C22.2978 20.0034 23.7936 20.8734 23.7936 22.7507C23.7936 23.0486 23.7562 23.3749 23.6767 23.7248L23.6721 23.7342L26.8318 23.0344L28.0705 22.7554L28.178 22.7318L28.206 22.727L28.22 22.7223L28.2341 22.7176C28.608 22.6277 28.9492 22.467 29.253 22.2542L29.2577 22.2495L29.2764 22.24L29.2858 22.2305L29.2998 22.2211L29.3138 22.2116L29.3231 22.2022L29.3418 22.188L29.3512 22.1833L29.3699 22.1643L29.3746 22.1596L29.5615 21.9988L29.5849 21.9752L29.6083 21.9516L29.6316 21.9279H29.6363L29.6597 21.9043L29.6831 21.8806L29.7018 21.8664L29.7064 21.8617L29.7251 21.8381V21.8333C30.1224 21.3983 30.3935 20.8403 30.4823 20.2304L30.487 20.202V20.1925L30.4917 20.1689V20.1642V20.1358V20.1311L30.4964 20.1027V20.098L30.501 20.0649V20.0601L30.5057 19.9987V19.9845V19.9656V19.9514V19.9325V19.9183V19.8946V19.8852V19.8615V19.8521V19.8284V19.8142V19.7811C30.5057 18.2916 29.4447 17.0528 28.0424 16.7974L23.6767 15.8328L22.7138 11.4872C22.4614 10.0734 21.2415 9 19.7691 9H19.7317Z" fill="url(#paint0_linear_9_339156)"/>
<path d="M19.7317 9H19.7224H19.699H19.685H19.6616H19.6476L19.6242 9.00472H19.6055H19.5868H19.5728L19.5541 9.00945H19.5401H19.5167H19.5027H19.484H19.4466H19.4372L19.4139 9.01419L19.3998 9.01892H19.3765H19.3625L19.3438 9.02364L19.3297 9.02837H19.3064L19.297 9.0331L19.2736 9.03782H19.2643L19.2409 9.04256H19.2316L19.0773 9.07566L19.0446 9.08511L19.0119 9.09456C18.8343 9.14185 18.6567 9.20806 18.4931 9.28372L18.4884 9.28844L18.4603 9.2979L18.4557 9.30262L18.4323 9.31681H18.4276L18.4042 9.33099L18.3949 9.33572L18.3762 9.34991L18.3668 9.35464L18.3388 9.36883L18.3154 9.37828H18.3108L18.2827 9.39247L18.278 9.3972C18.049 9.5296 17.8387 9.6951 17.6517 9.88424L17.3946 10.1774L17.3853 10.1916L17.3712 10.2058C17.1048 10.5652 16.9179 10.9813 16.829 11.4352L16.8244 11.4778L15.8615 15.8233C15.7867 16.178 15.7446 16.4995 15.7446 16.8021C15.7446 18.6794 17.2404 19.5494 19.7691 19.7764C22.2978 20.0034 23.7936 20.8734 23.7936 22.7507C23.7936 23.0486 23.7562 23.3749 23.6767 23.7248L23.6721 23.7342L26.8318 23.0344L28.0705 22.7554L28.178 22.7318L28.206 22.727L28.22 22.7223L28.2341 22.7176C28.608 22.6277 28.9492 22.467 29.253 22.2542L29.2577 22.2495L29.2764 22.24L29.2858 22.2305L29.2998 22.2211L29.3138 22.2116L29.3231 22.2022L29.3418 22.188L29.3512 22.1833L29.3699 22.1643L29.3746 22.1596L29.5615 21.9988L29.5849 21.9752L29.6083 21.9516L29.6316 21.9279H29.6363L29.6597 21.9043L29.6831 21.8806L29.7018 21.8664L29.7064 21.8617L29.7251 21.8381V21.8333C30.1224 21.3983 30.3935 20.8403 30.4823 20.2304L30.487 20.202V20.1925L30.4917 20.1689V20.1642V20.1358V20.1311L30.4964 20.1027V20.098L30.501 20.0649V20.0601L30.5057 19.9987V19.9845V19.9656V19.9514V19.9325V19.9183V19.8946V19.8852V19.8615V19.8521V19.8284V19.8142V19.7811C30.5057 18.2916 29.4447 17.0528 28.0424 16.7974L23.6767 15.8328L22.7138 11.4872C22.4614 10.0734 21.2415 9 19.7691 9H19.7317Z" fill="url(#paint1_linear_9_339156)"/>
<path d="M19.7317 9H19.7224H19.699H19.685H19.6616H19.6476L19.6242 9.00472H19.6055H19.5868H19.5728L19.5541 9.00945H19.5401H19.5167H19.5027H19.484H19.4466H19.4372L19.4139 9.01419L19.3998 9.01892H19.3765H19.3625L19.3438 9.02364L19.3297 9.02837H19.3064L19.297 9.0331L19.2736 9.03782H19.2643L19.2409 9.04256H19.2316L19.0773 9.07566L19.0446 9.08511L19.0119 9.09456C18.8343 9.14185 18.6567 9.20806 18.4931 9.28372L18.4884 9.28844L18.4603 9.2979L18.4557 9.30262L18.4323 9.31681H18.4276L18.4042 9.33099L18.3949 9.33572L18.3762 9.34991L18.3668 9.35464L18.3388 9.36883L18.3154 9.37828H18.3108L18.2827 9.39247L18.278 9.3972C18.049 9.5296 17.8387 9.6951 17.6517 9.88424L17.3946 10.1774L17.3853 10.1916L17.3712 10.2058C17.1048 10.5652 16.9179 10.9813 16.829 11.4352L16.8244 11.4778L15.8615 15.8233C15.7867 16.178 15.7446 16.4995 15.7446 16.8021C15.7446 18.6794 17.2404 19.5494 19.7691 19.7764C22.2978 20.0034 23.7936 20.8734 23.7936 22.7507C23.7936 23.0486 23.7562 23.3749 23.6767 23.7248L23.6721 23.7342L26.8318 23.0344L28.0705 22.7554L28.178 22.7318L28.206 22.727L28.22 22.7223L28.2341 22.7176C28.608 22.6277 28.9492 22.467 29.253 22.2542L29.2577 22.2495L29.2764 22.24L29.2858 22.2305L29.2998 22.2211L29.3138 22.2116L29.3231 22.2022L29.3418 22.188L29.3512 22.1833L29.3699 22.1643L29.3746 22.1596L29.5615 21.9988L29.5849 21.9752L29.6083 21.9516L29.6316 21.9279H29.6363L29.6597 21.9043L29.6831 21.8806L29.7018 21.8664L29.7064 21.8617L29.7251 21.8381V21.8333C30.1224 21.3983 30.3935 20.8403 30.4823 20.2304L30.487 20.202V20.1925L30.4917 20.1689V20.1642V20.1358V20.1311L30.4964 20.1027V20.098L30.501 20.0649V20.0601L30.5057 19.9987V19.9845V19.9656V19.9514V19.9325V19.9183V19.8946V19.8852V19.8615V19.8521V19.8284V19.8142V19.7811C30.5057 18.2916 29.4447 17.0528 28.0424 16.7974L23.6767 15.8328L22.7138 11.4872C22.4614 10.0734 21.2415 9 19.7691 9H19.7317Z" fill="url(#paint2_linear_9_339156)"/>
<path d="M11.4633 16.8021C10.0657 17.0574 9 18.2963 9 19.7858C9 21.2753 10.061 22.5095 11.4633 22.7648L15.8617 23.7342L16.8246 28.075C17.077 29.4936 18.297 30.5622 19.774 30.5622C21.2464 30.5622 22.471 29.4888 22.7187 28.075L23.6816 23.7294C24.0976 21.8333 23.3591 20.7221 21.7512 20.1641H21.7465L21.7044 20.1546L21.6951 20.1499L21.6577 20.1357L21.5595 20.1026H21.5549C21.0547 19.9513 20.4751 19.8473 19.8254 19.7858L19.7693 19.7811L19.7086 19.7764C17.2172 19.5447 15.7448 18.6651 15.7448 16.8068V16.7548V16.7501V16.7028V16.6933V16.646V16.6319V16.5893V16.5751L15.7495 16.5326V16.5184L15.7542 16.4805L15.7682 16.3671V16.3529L15.7729 16.3103V16.2961L15.7776 16.2536V16.2347L15.7822 16.1921V16.1732L15.7869 16.1306L15.7916 16.1117L15.7963 16.0692L15.8009 16.0502L15.8056 16.0124L15.815 15.9888L15.8196 15.9509L15.8243 15.9226L15.8337 15.8895L15.8477 15.828L11.4633 16.8021Z" fill="url(#paint3_linear_9_339156)"/>
<path d="M11.4633 16.8021C10.0657 17.0574 9 18.2963 9 19.7858C9 21.2753 10.061 22.5095 11.4633 22.7648L15.8617 23.7342L16.8246 28.075C17.077 29.4936 18.297 30.5622 19.774 30.5622C21.2464 30.5622 22.471 29.4888 22.7187 28.075L23.6816 23.7294C24.0976 21.8333 23.3591 20.7221 21.7512 20.1641H21.7465L21.7044 20.1546L21.6951 20.1499L21.6577 20.1357L21.5595 20.1026H21.5549C21.0547 19.9513 20.4751 19.8473 19.8254 19.7858L19.7693 19.7811L19.7086 19.7764C17.2172 19.5447 15.7448 18.6651 15.7448 16.8068V16.7548V16.7501V16.7028V16.6933V16.646V16.6319V16.5893V16.5751L15.7495 16.5326V16.5184L15.7542 16.4805L15.7682 16.3671V16.3529L15.7729 16.3103V16.2961L15.7776 16.2536V16.2347L15.7822 16.1921V16.1732L15.7869 16.1306L15.7916 16.1117L15.7963 16.0692L15.8009 16.0502L15.8056 16.0124L15.815 15.9888L15.8196 15.9509L15.8243 15.9226L15.8337 15.8895L15.8477 15.828L11.4633 16.8021Z" fill="url(#paint4_linear_9_339156)"/>
<path d="M11.4633 16.8021C10.0657 17.0574 9 18.2963 9 19.7858C9 21.2753 10.061 22.5095 11.4633 22.7648L15.8617 23.7342L16.8246 28.075C17.077 29.4936 18.297 30.5622 19.774 30.5622C21.2464 30.5622 22.471 29.4888 22.7187 28.075L23.6816 23.7294C24.0976 21.8333 23.3591 20.7221 21.7512 20.1641H21.7465L21.7044 20.1546L21.6951 20.1499L21.6577 20.1357L21.5595 20.1026H21.5549C21.0547 19.9513 20.4751 19.8473 19.8254 19.7858L19.7693 19.7811L19.7086 19.7764C17.2172 19.5447 15.7448 18.6651 15.7448 16.8068V16.7548V16.7501V16.7028V16.6933V16.646V16.6319V16.5893V16.5751L15.7495 16.5326V16.5184L15.7542 16.4805L15.7682 16.3671V16.3529L15.7729 16.3103V16.2961L15.7776 16.2536V16.2347L15.7822 16.1921V16.1732L15.7869 16.1306L15.7916 16.1117L15.7963 16.0692L15.8009 16.0502L15.8056 16.0124L15.815 15.9888L15.8196 15.9509L15.8243 15.9226L15.8337 15.8895L15.8477 15.828L11.4633 16.8021Z" fill="url(#paint5_linear_9_339156)"/>
</g>
<circle cx="20" cy="20" r="19.5" stroke="black" stroke-opacity="0.05"/>
<defs>
<linearGradient id="paint0_linear_9_339156" x1="19.4995" y1="9" x2="19.4995" y2="19.5" gradientUnits="userSpaceOnUse">
<stop stop-color="#E41322"/>
<stop offset="1" stop-color="#FBD24D"/>
</linearGradient>
<linearGradient id="paint1_linear_9_339156" x1="29.4995" y1="18" x2="21.4995" y2="19.5" gradientUnits="userSpaceOnUse">
<stop stop-color="#E41322"/>
<stop offset="1" stop-color="#FBD24D" stop-opacity="0"/>
</linearGradient>
<linearGradient id="paint2_linear_9_339156" x1="23.9995" y1="24.5" x2="21.4995" y2="20" gradientUnits="userSpaceOnUse">
<stop stop-color="#E41322"/>
<stop offset="1" stop-color="#F7C448" stop-opacity="0"/>
</linearGradient>
<linearGradient id="paint3_linear_9_339156" x1="15.5" y1="15.4999" x2="16.5" y2="21.9999" gradientUnits="userSpaceOnUse">
<stop stop-color="#007F3E"/>
<stop offset="0.355727" stop-color="#61AB1C"/>
<stop offset="1" stop-color="#B0CF00"/>
</linearGradient>
<linearGradient id="paint4_linear_9_339156" x1="16.5" y1="29.9999" x2="16.5" y2="20.9999" gradientUnits="userSpaceOnUse">
<stop stop-color="#007F3E"/>
<stop offset="1" stop-color="#B0CF00" stop-opacity="0"/>
</linearGradient>
<linearGradient id="paint5_linear_9_339156" x1="8.5" y1="24.9999" x2="15" y2="20.9999" gradientUnits="userSpaceOnUse">
<stop stop-color="#007F3E"/>
<stop offset="1" stop-color="#B0CF00" stop-opacity="0"/>
</linearGradient>
<clipPath id="clip0_9_339156">
<rect width="22" height="22" fill="white" transform="translate(9 9)"/>
</clipPath>
</defs>
</svg>
