<svg width="40" height="40" viewBox="0 0 40 40" fill="none" xmlns="http://www.w3.org/2000/svg">
<circle cx="20" cy="20" r="20" fill="#0072BD"/>
<g clip-path="url(#clip0_9_339315)">
<path d="M27.7791 12.7261C25.6486 10.7946 22.8758 9.72485 20.0002 9.72485C17.1245 9.72485 14.3517 10.7946 12.2212 12.7261C11.2067 13.6432 10.3958 14.7629 9.84078 16.0128C9.28577 17.2628 8.99902 18.6152 8.99902 19.9828C8.99902 21.3505 9.28577 22.7029 9.84078 23.9528C10.3958 25.2028 11.2067 26.3225 12.2212 27.2396C14.3478 29.179 17.1221 30.2541 20.0002 30.2541C22.8783 30.2541 25.6526 29.179 27.7791 27.2396C28.7936 26.3225 29.6046 25.2028 30.1596 23.9528C30.7146 22.7029 31.0013 21.3505 31.0013 19.9828C31.0013 18.6152 30.7146 17.2628 30.1596 16.0128C29.6046 14.7629 28.7936 13.6432 27.7791 12.7261ZM19.3113 29.0829C18.7275 29.0393 18.1486 28.9445 17.5813 28.7998C16.7919 28.5377 16.0457 28.1604 15.3668 27.68C16.6389 27.2426 17.9674 26.9905 19.3113 26.9314V29.0829ZM19.3113 25.8745C17.6285 25.9407 15.9683 26.285 14.398 26.8936C14.247 26.7552 14.096 26.6042 13.9576 26.4533C13.4241 25.8833 12.9634 25.2493 12.5861 24.5659C14.801 24.1153 17.0516 23.8627 19.3113 23.811V25.8745ZM19.3113 22.5654C16.8699 22.6046 14.4375 22.8699 12.0451 23.358C11.695 22.4467 11.483 21.4883 11.416 20.5144H19.3113V22.5654ZM19.3113 19.3569H11.4474C11.5149 18.3871 11.727 17.4329 12.0765 16.5259C14.4588 17.007 16.8811 17.2618 19.3113 17.2871V19.3569ZM19.3113 16.0478C17.0679 16.0144 14.832 15.7807 12.6302 15.3495C12.9977 14.6902 13.4434 14.0776 13.9576 13.525C14.1211 13.3489 14.2973 13.179 14.4734 13.0092C16.0211 13.5994 17.6559 13.9289 19.3113 13.9843V16.0478ZM19.3113 12.9462C18.0027 12.8884 16.7088 12.647 15.4675 12.229C16.6112 11.4492 17.9334 10.971 19.3113 10.8387V12.9462ZM20.6765 10.8261C22.0578 10.9611 23.3823 11.4437 24.5266 12.229C23.2831 12.647 21.9871 12.8885 20.6765 12.9462V10.8261ZM20.6765 14.0031C22.3331 13.9425 23.968 13.6066 25.5143 13.0092C25.6905 13.179 25.8666 13.3489 26.0365 13.525C26.5487 14.0778 26.9923 14.6904 27.3576 15.3495C25.1559 15.7811 22.9199 16.0147 20.6765 16.0478V14.0031ZM20.6765 17.306C23.1072 17.2738 25.5295 17.0126 27.9113 16.5259C28.258 17.4338 28.4699 18.3876 28.5404 19.3569H20.6828L20.6765 17.306ZM22.4065 28.7998C21.8393 28.945 21.2604 29.0398 20.6765 29.0829V26.9314C22.0225 26.9899 23.3531 27.242 24.6273 27.68C23.947 28.1533 23.2008 28.5242 22.4128 28.7809L22.4065 28.7998ZM26.0365 26.4533C25.8918 26.6042 25.7408 26.7552 25.5898 26.8936C24.0197 26.2844 22.3594 25.94 20.6765 25.8745V23.8299C22.9369 23.8671 25.1896 24.105 27.408 24.5407C27.031 25.2248 26.5727 25.8606 26.0428 26.4344L26.0365 26.4533ZM27.9238 23.358C25.5315 22.8696 23.099 22.6042 20.6576 22.5654V20.5144H28.5592C28.4964 21.481 28.2908 22.4329 27.949 23.3391L27.9238 23.358Z" fill="white"/>
</g>
<circle cx="20" cy="20" r="19.5" stroke="black" stroke-opacity="0.05"/>
<defs>
<clipPath id="clip0_9_339315">
<rect width="22" height="20.5279" fill="white" transform="translate(9 9.70001)"/>
</clipPath>
</defs>
</svg>
