<svg width="40" height="40" viewBox="0 0 40 40" fill="none" xmlns="http://www.w3.org/2000/svg">
<ellipse cx="20" cy="19.9168" rx="20" ry="19.9168" fill="#F6F8FA"/>
<path d="M34.1829 18.5898V16.7043C34.1829 15.6084 33.2925 14.7139 32.1926 14.7139H28.5786C26.8098 11.8856 23.6712 10 20.0935 10C16.5157 10 13.3771 11.8856 11.6084 14.7139H7.99033C6.89444 14.7139 6 15.6044 6 16.7043V23.2917C6 24.3876 6.89041 25.282 7.99033 25.282H11.6084C13.3771 28.1104 16.5157 30 20.0935 30C23.6712 30 26.8098 28.1144 28.5786 25.282H32.1926C33.2885 25.282 34.1829 24.3916 34.1829 23.2917V21.4061H32.5713V23.2917C32.5713 23.5012 32.4021 23.6704 32.1926 23.6704H29.3924C29.8437 22.5342 30.0935 21.2933 30.0935 20C30.0935 18.7067 29.8437 17.4658 29.3924 16.3296H32.1926C32.4021 16.3296 32.5713 16.4988 32.5713 16.7083V18.5939H34.1829V18.5898ZM26.6003 14.718H20.8993V11.6559C23.1958 11.8775 25.2224 13.0218 26.6003 14.718ZM11.7051 20C11.7051 18.6825 12.0193 17.4376 12.5633 16.3296H19.1305C18.8928 18.0419 17.7486 22.8848 12.4102 23.3562C11.9589 22.3288 11.7051 21.1966 11.7051 20.004V20ZM20.0492 19.1056C20.6414 20.6809 21.697 22.4778 23.5624 23.6704H16.5359C18.4013 22.4778 19.4569 20.6809 20.0492 19.1056ZM19.2877 11.6519V14.7139H13.5866C14.9645 13.0177 16.9911 11.8695 19.2877 11.6519ZM7.99436 23.6704C7.78485 23.6704 7.61563 23.5012 7.61563 23.2917V16.7043C7.61563 16.4948 7.78485 16.3255 7.99436 16.3255H10.7985C10.3473 17.4617 10.0975 18.7027 10.0975 19.996C10.0975 21.2893 10.3473 22.5302 10.7985 23.6664H7.99436V23.6704ZM20.0935 28.3884C17.4706 28.3884 15.1257 27.1757 13.5866 25.282H26.6003C25.0612 27.1757 22.7164 28.3884 20.0935 28.3884ZM28.4819 20C28.4819 21.1966 28.228 22.3328 27.7728 23.3602C22.3618 22.9331 21.2095 18.0459 20.9718 16.3255H27.6237C28.1676 17.4376 28.4819 18.6785 28.4819 19.996V20Z" fill="#0101F9"/>
<path d="M20 0.5C30.7715 0.5 39.5 9.19535 39.5 19.917C39.4999 30.6385 30.7715 39.334 20 39.334C9.22854 39.334 0.500106 30.6385 0.5 19.917C0.5 9.19535 9.22848 0.5 20 0.5Z" stroke="black" stroke-opacity="0.05"/>
</svg>
