<svg width="40" height="40" viewBox="0 0 40 40" fill="none" xmlns="http://www.w3.org/2000/svg">
<circle cx="20" cy="20" r="20" fill="#F6F8FA"/>
<g clip-path="url(#clip0_9_337307)">
<path d="M18.7457 11.0779C18.7457 11.0779 17.4185 10.906 17.3336 11.7197C17.3336 11.7197 17.3336 12.1908 17.9754 12.4475C17.9754 12.4475 18.8316 12.8761 18.9175 13.6039C18.9175 13.6039 19.1318 14.5014 18.6608 15.2292C18.6608 15.2292 18.1038 15.1868 17.8471 15.1433C17.8471 15.1433 17.2477 14.8865 16.9485 15.7427L12.2412 23.7452C12.2412 23.7452 12.0704 24.6013 12.9265 25.1148L17.9754 16.6413C17.9754 16.6413 18.7032 16.5978 18.6121 17.2397L13.5673 25.7556C13.5673 25.7556 13.6533 26.5693 14.38 27.0818L21.2696 15.4414C21.2696 15.4414 20.4994 15.0988 20.371 15.0553V14.2426C20.371 14.2426 20.4994 13.8151 21.0553 13.9859C21.0553 13.9859 24.7781 15.6123 27.4314 12.1887C27.4314 12.1887 25.891 9.878 21.0553 12.5303C21.0553 12.5303 21.2272 11.5468 20.2426 11.1607C20.2426 11.1607 19.0438 10.8615 18.7446 11.0758L18.7457 11.0779Z" fill="#FF1A00"/>
<path d="M24.2657 14.8006C24.2657 14.8006 22.7687 14.4579 21.7842 16.1267L15.4505 26.9969C15.4505 26.9969 15.0654 27.9804 16.3067 28.2381L24.2657 14.8006Z" fill="#FF1A00"/>
<path d="M26.535 15.1422C26.535 15.1422 25.508 14.5004 24.8662 15.4L17.9766 27.2536C17.9766 27.2536 17.4631 28.1522 18.7044 28.5798L26.536 15.1422H26.535Z" fill="#FF1A00"/>
<path d="M28.2465 16.7687C28.2465 16.7687 27.7754 15.6993 26.9203 16.3401L20.715 26.9524C20.715 26.9524 19.9872 27.8086 21.2709 28.4504L28.2465 16.7687Z" fill="#FF1A00"/>
<path d="M29.1024 19.5079C29.1024 19.5079 28.974 17.7967 28.0754 18.6953L22.8982 27.468C22.8982 27.468 22.4271 28.4949 23.9676 28.4949L29.1034 19.5079H29.1024Z" fill="#FF1A00"/>
<path d="M16.4776 14.8441C16.4776 14.8441 15.4506 14.2022 14.638 15.1867L11.4711 20.4075C11.4711 20.4075 10.8293 21.5628 11.642 22.9325L16.4776 14.8441Z" fill="#FF1A00"/>
<path d="M13.8677 14.6287C13.8677 14.6287 11.2143 15.5273 11.1719 19.2076L13.8677 14.6287Z" fill="#FF1A00"/>
<path d="M29.9885 18.5647L29.9875 17.8339L23.0037 29.7196L23.5068 29.7548L29.9999 18.5999" fill="#FF1A00"/>
<path d="M29.9555 23.0153L29.9545 22.2855L25.5806 29.7538L26.0837 29.7879L29.9669 23.0505" fill="#FF1A00"/>
<path d="M29.9844 27.4338L29.9834 26.7029L28.1531 29.7538L28.6562 29.7879L29.9958 27.4679" fill="#FF1A00"/>
<path d="M29.9523 14.4621L29.9564 13.756L20.4839 29.7196L20.987 29.7548L29.9637 14.4973" fill="#FF1A00"/>
<path d="M29.584 10.5758H29.1885L17.8484 29.7197L18.3515 29.7548L29.5943 10.611" fill="#FF1A00"/>
<path d="M27.1025 10.5758H26.706L15.3679 29.7197L15.8711 29.7548L27.1149 10.611" fill="#FF1A00"/>
<path d="M24.4282 10.5758H24.0317L12.6936 29.7197L13.1957 29.7548L24.4396 10.611" fill="#FF1A00"/>
<path d="M21.9467 10.5364H21.5513L10.2122 29.6813L10.7153 29.7155L21.9581 10.5716" fill="#FF1A00"/>
<path d="M16.6763 10.5364H16.2798L10.058 21.0504L10 21.8331L16.6867 10.5716" fill="#FF1A00"/>
<path d="M14.2725 10.5364H13.876L10 17.103V17.7625L14.2828 10.5716" fill="#FF1A00"/>
<path d="M11.675 10.5758H11.2785L10.0393 12.5335L10 13.343L11.6875 10.611" fill="#FF1A00"/>
<path d="M19.3503 10.5364H18.9538L10.0828 25.444L10.1552 26.1346L19.3617 10.5716" fill="#FF1A00"/>
</g>
<circle cx="20" cy="20" r="19.5" stroke="black" stroke-opacity="0.05"/>
<defs>
<clipPath id="clip0_9_337307">
<rect width="20" height="19.1667" fill="white" transform="translate(10 10.5)"/>
</clipPath>
</defs>
</svg>
