<svg width="40" height="40" viewBox="0 0 40 40" fill="none" xmlns="http://www.w3.org/2000/svg">
<circle cx="20" cy="20" r="20" fill="#F6F8FA"/>
<g clip-path="url(#clip0_9_352807)">
<path d="M33.1566 18.4723C33.1566 19.0101 32.715 19.4446 32.1731 19.4446C31.6312 19.4446 31.1875 19.0101 31.1875 18.4723C31.1875 17.9345 31.6291 17.5 32.1731 17.5C32.7171 17.5 33.1566 17.9345 33.1566 18.4723Z" fill="#FF4600"/>
<path d="M36.0003 18.4723C36.0003 19.0101 35.5609 19.4446 35.0147 19.4446C34.4686 19.4446 34.0312 19.0101 34.0312 18.4723C34.0312 17.9345 34.4707 17.5 35.0147 17.5C35.5587 17.5 36.0003 17.9345 36.0003 18.4723Z" fill="#8BB906"/>
<path d="M5.96693 18.4723C5.96693 19.0101 5.52747 19.4446 4.98347 19.4446C4.43947 19.4446 4 19.0101 4 18.4723C4 18.2023 4.11093 17.9598 4.288 17.7847C4.4672 17.6076 4.7104 17.5 4.98347 17.5C5.23307 17.5 5.4592 17.5907 5.632 17.7404C5.8368 17.9197 5.96693 18.1812 5.96693 18.4723Z" fill="#00A3F1"/>
<path d="M21.5151 19.82C21.5364 19.5521 21.7519 19.4003 22.042 19.4003C22.3812 19.4003 22.5519 19.5859 22.5519 19.9718V20.1279H22.2063C21.3807 20.1279 20.745 20.3958 20.745 21.0644C20.745 21.6697 21.2036 21.927 21.7071 21.927C22.1167 21.927 22.4154 21.7751 22.5583 21.5347V21.8806H23.2218V19.9592C23.2218 19.1514 22.6778 18.8941 22.0762 18.8941C21.4746 18.8941 20.922 19.1641 20.858 19.8179H21.5151V19.82ZM21.8543 21.4292C21.5364 21.4292 21.4063 21.2605 21.4063 21.0264C21.4063 20.7185 21.7178 20.5666 22.2212 20.5666H22.5498V20.7796C22.5498 21.1783 22.2724 21.4292 21.8543 21.4292ZM7.71882 21.9502C8.46123 21.9502 8.90922 21.6148 8.90922 21.0201C8.90922 20.4253 8.45696 20.2313 7.79776 20.1237C7.33269 20.0499 7.20896 19.9318 7.20896 19.7314C7.20896 19.531 7.38389 19.3897 7.67402 19.3897C7.99189 19.3897 8.15616 19.5015 8.20736 19.82H8.84309C8.78549 19.1303 8.27136 18.8793 7.67616 18.8793C7.13216 18.8793 6.56043 19.1704 6.56043 19.7588C6.56043 20.2502 6.86762 20.5202 7.62496 20.6489C8.05589 20.7227 8.23723 20.8513 8.23723 21.0749C8.23723 21.2985 8.07936 21.4313 7.71669 21.4313C7.31349 21.4313 7.18336 21.2183 7.16202 20.9779H6.51562C6.53909 21.5769 6.96789 21.946 7.72309 21.946M10.2575 19.8179C10.2788 19.55 10.4943 19.3982 10.7844 19.3982C11.1236 19.3982 11.2943 19.5838 11.2943 19.9697V20.1258H10.9487C10.121 20.1258 9.48736 20.3937 9.48736 21.0622C9.48736 21.6676 9.94603 21.9249 10.4516 21.9249C10.8591 21.9249 11.1599 21.773 11.3028 21.5326V21.8785H11.9663V19.9571C11.9663 19.1493 11.4223 18.892 10.8207 18.892C10.2191 18.892 9.66442 19.162 9.60256 19.8158H10.2596L10.2575 19.8179ZM10.5967 21.4271C10.2788 21.4271 10.1487 21.2584 10.1487 21.0243C10.1487 20.7164 10.4602 20.5645 10.9636 20.5645H11.2922V20.7775C11.2922 21.1761 11.0148 21.4271 10.5967 21.4271ZM12.8474 21.8806H13.5279V20.2502C13.5279 19.7841 13.7988 19.4889 14.1508 19.4889C14.4687 19.4889 14.6159 19.6913 14.6159 20.1216V21.8785H15.2964V20.2038C15.2964 19.7567 15.561 19.4868 15.8916 19.4868C16.2223 19.4868 16.3844 19.6934 16.3844 20.1258V21.8785H17.065V20.0414C17.065 19.2294 16.6276 18.9046 16.0964 18.9046C15.7124 18.9046 15.354 19.0713 15.162 19.415C15.0319 19.0565 14.7546 18.9046 14.3919 18.9046C13.978 18.9046 13.6666 19.1113 13.53 19.3813V18.951H12.8495V21.8806H12.8474ZM18.1167 22.8845H18.7844L20.489 18.9532H19.7871L19.0063 20.8956L18.2234 18.9532H17.5044L18.6543 21.6127L18.1146 22.8845H18.1167ZM24.1284 21.8806H24.8068V20.2228C24.8068 19.7736 25.1012 19.472 25.4703 19.472C25.8394 19.472 26.0356 19.6745 26.0356 20.1153V21.8785H26.7162V20.052C26.7162 19.2463 26.2852 18.9046 25.7242 18.9046C25.321 18.9046 25.0052 19.0502 24.8068 19.3771V18.951H24.1284V21.8806ZM29.577 21.3153C29.4746 21.579 29.1183 21.7688 28.762 21.7688C27.8383 21.7688 27.4031 21.1192 27.4031 20.3452C27.4031 19.5711 27.8447 18.8941 28.7471 18.8941C29.0927 18.8941 29.4383 19.0438 29.5791 19.3033V18.951H30.2596V21.5727C30.2596 22.5913 29.5684 22.9562 28.8196 22.9562C28.0708 22.9562 27.561 22.6082 27.4884 21.9797H28.186C28.2372 22.2708 28.5039 22.4332 28.8495 22.4332C29.3039 22.4332 29.5812 22.159 29.5812 21.6148V21.3132L29.577 21.3153ZM28.8794 19.4277C28.3695 19.4277 28.0986 19.7694 28.0986 20.3452C28.0986 20.9209 28.3524 21.2542 28.8858 21.2542C29.2996 21.2542 29.5812 20.98 29.5812 20.4464V20.2292C29.5812 19.7694 29.3274 19.4277 28.8794 19.4277Z" fill="#231F20"/>
</g>
<circle cx="20" cy="20" r="19.5" stroke="black" stroke-opacity="0.05"/>
<defs>
<clipPath id="clip0_9_352807">
<rect width="32" height="6.22222" fill="white" transform="translate(4 17.5)"/>
</clipPath>
</defs>
</svg>
