<svg width="40" height="40" viewBox="0 0 40 40" fill="none" xmlns="http://www.w3.org/2000/svg">
<circle cx="20" cy="20" r="20" fill="#E96000"/>
<circle cx="20" cy="20" r="19.5" stroke="black" stroke-opacity="0.05"/>
<g clip-path="url(#clip0_9_337701)">
<path d="M7.72287 21.0989C7.72287 21.0653 7.69177 21.0436 7.69177 21.0436C7.41372 20.8267 6.70671 20.4984 5.5872 20.0674C5.58171 20.0647 5 19.8388 5 19.2292C5 18.7022 6.03171 18.0789 8.15274 17.3233C8.28079 17.2815 8.39787 17.2598 8.5003 17.2598C8.88171 17.2598 8.96951 17.5455 8.96951 17.5482C8.97226 17.5555 9.06189 17.8013 8.89543 18.0381C8.74451 18.2522 8.36951 18.4028 7.80244 18.6278L6.61982 19.192C6.47988 19.2619 6.5997 19.3354 6.5997 19.3354C8.07591 19.8098 8.78384 20.375 8.79207 21.0626C8.79939 21.6278 8.50579 21.938 8.4747 21.9589C8.44177 21.9852 8.38415 22.0442 8.37134 22.056C8.24329 22.1775 8.13994 22.2573 8.02012 22.3571C7.77591 22.5603 7.56372 22.7082 7.34421 22.827C7.1375 22.9395 6.93445 22.9976 6.7186 23.0584L6.68018 23.0702C6.31982 23.1736 5.32378 23.2153 5.2122 22.72C5.1564 22.4723 5.34116 22.3635 5.54695 22.2945C5.77378 22.2174 5.98689 22.1421 6.21189 22.0569C6.31707 22.0179 6.41037 21.9661 6.50732 21.9262C6.86037 21.7775 7.01677 21.6949 7.23445 21.5371C7.69268 21.205 7.72104 21.0971 7.72104 21.0971L7.72287 21.0989Z" fill="white"/>
<path d="M12.6234 22.0859C12.6097 22.2211 12.5686 22.3626 12.3326 22.3771L12.5018 23.2652C12.5018 23.2652 12.5018 23.2698 12.5018 23.2725V23.4321C12.5018 23.4321 12.5018 23.4394 12.5 23.443C12.468 23.551 12.3408 23.639 12.1122 23.7134C12.1085 23.7143 12.1039 23.7152 12.1003 23.7152H12.0994C11.868 23.707 11.6238 23.3314 11.3741 22.5975C10.9195 22.662 10.5902 22.7336 10.3231 22.8234C10.3231 22.8234 9.58229 23.0493 9.51552 23.0765C9.51552 23.0765 9.52467 23.1618 9.51552 23.2126C9.51552 23.4376 9.38656 23.5455 9.1204 23.5455H8.95027C8.79204 23.5455 8.64204 23.2652 8.5021 22.7128C8.50028 22.7082 8.50028 22.7028 8.5021 22.6992C8.51125 22.6293 8.64387 22.5014 8.8954 22.319C9.5082 20.4303 10.057 19.4733 10.528 19.4733H10.5829C11.0265 19.4733 11.4427 20.052 11.9356 21.4935L12.0829 21.4545C12.1359 21.4418 12.1881 21.4355 12.2402 21.4355C12.403 21.4355 12.5667 21.5053 12.5667 21.6641C12.6143 21.9371 12.6198 22.0859 12.6198 22.0859H12.6234ZM9.91064 22.0369H9.96918L10.9927 21.7385V21.6795C10.7558 20.9973 10.5774 20.8331 10.4777 20.8331H10.4677L9.91064 22.036V22.0369Z" fill="white"/>
<path d="M23.9731 22.0759C23.9594 22.2102 23.9182 22.3526 23.6832 22.3671L23.8524 23.2552C23.8524 23.2552 23.8524 23.2607 23.8524 23.2625V23.4212C23.8524 23.4212 23.8524 23.4285 23.8505 23.4321C23.8185 23.541 23.6923 23.629 23.4627 23.7034C23.4582 23.7034 23.4545 23.7052 23.4508 23.7052H23.4499C23.2185 23.6979 22.9743 23.3223 22.7255 22.5894C22.2701 22.6529 21.9408 22.7236 21.6746 22.8143C21.6746 22.8143 20.9329 23.0411 20.8679 23.0683C20.8679 23.0683 20.8762 23.1527 20.8679 23.2044C20.8679 23.4294 20.738 23.5373 20.4719 23.5373H20.3027C20.1444 23.5373 19.9935 23.257 19.8536 22.7037C19.8527 22.7 19.8518 22.6946 19.8527 22.69C19.8627 22.6202 19.9944 22.4923 20.2469 22.3099C20.8597 20.4212 21.4085 19.4633 21.8786 19.4633H21.9335C22.3771 19.4633 22.7941 20.0429 23.2871 21.4844L23.4344 21.4445C23.4874 21.4318 23.5396 21.4255 23.5917 21.4255C23.7536 21.4255 23.9182 21.4962 23.9182 21.6541C23.9658 21.928 23.9713 22.0759 23.9713 22.0759H23.9731ZM21.2603 22.0269H21.3188L22.3423 21.7285V21.6704C22.1045 20.9891 21.9271 20.824 21.8283 20.824H21.8173L21.2594 22.026L21.2603 22.0269Z" fill="white"/>
<path d="M14.0247 22.5313C13.9177 22.9522 13.8674 23.1074 13.6863 23.1636H13.4997C13.1165 23.1636 12.9299 22.8887 12.9299 22.3245V22.1866C12.9299 20.7388 13.1476 19.7037 13.679 18.6142C13.6836 18.6051 13.6927 18.5978 13.7037 18.5942L14.001 18.5271C14.001 18.5271 14.0065 18.5253 14.0101 18.5253C14.494 18.5298 14.8525 19.251 15.1406 20.7941C15.1406 20.7941 15.1507 20.8358 15.168 20.8358C15.1854 20.8358 15.1982 20.8104 15.2046 20.7941C15.5412 19.6901 15.9144 19.1539 16.3443 19.1539C16.9616 19.1539 17.3119 19.9595 17.4784 21.7648V22.4642C17.4784 22.701 17.4162 22.8407 17.2927 22.8788C17.2891 22.8806 17.2854 22.8806 17.2818 22.8806H17.1007C16.7897 22.8806 16.5985 22.6012 16.5308 22.0505C16.4055 21.2059 16.3022 20.795 16.2162 20.795C15.8622 22.0115 15.5101 22.6039 15.1415 22.6039C14.7446 22.6039 14.3933 21.9888 14.0705 20.7242C14.0705 20.7242 14.0622 20.6907 14.0385 20.6907C14.0147 20.6907 14.0065 20.7134 14.0065 20.7242L13.9433 21.9081L14.0074 22.2247C14.0074 22.2247 14.0714 22.3508 14.0247 22.5322V22.5313Z" fill="white"/>
<path d="M27.0419 22.3153H26.9742C26.9678 22.3153 26.9614 22.3126 26.9559 22.3099C26.644 22.1375 26.0449 21.4744 25.1724 20.3386C25.2538 20.4439 25.1413 20.8902 25.1202 21.019C25.0873 21.2113 25.1166 21.439 25.048 21.6268C24.9977 21.7629 24.8797 22.0368 24.7114 22.0468C23.89 22.0949 24.1306 20.8856 24.2147 20.4493C24.3035 19.9894 24.3684 19.524 24.4279 19.0595C24.4279 19.0541 24.4297 19.0495 24.4324 19.0459C24.5897 18.7638 24.7891 18.6214 25.0233 18.6214H25.155C25.1669 18.6214 25.1769 18.6268 25.1843 18.6359L26.8919 20.8557V20.3377C26.8919 18.4318 27.1114 17.5046 27.5632 17.5046H27.6949C27.7059 17.5046 27.716 17.5092 27.7233 17.5182L27.9254 17.7514C27.9318 17.7577 27.9346 17.7668 27.9346 17.775V20.0801C27.9346 21.5624 27.6346 22.3144 27.0419 22.3144V22.3153Z" fill="white"/>
<path d="M29.2159 21.615C29.4848 22.0423 29.9403 22.2482 30.5677 22.2273L30.9556 22.2146C30.9638 22.2137 30.9711 22.2155 30.9766 22.2201L31.1668 22.3389L31.2345 22.3353L31.4824 21.7329L31.4165 21.7357L30.4992 21.8999C30.4918 21.9008 30.4854 21.9008 30.4781 21.898C30.2851 21.82 30.1735 21.7384 30.1498 21.6531C30.1479 21.6504 30.1479 21.6468 30.1479 21.6431L30.1397 21.3964C30.1397 21.3891 30.1415 21.3828 30.1443 21.3764C30.3446 21.0272 31.0498 20.8285 32.2388 20.7877C32.2424 20.7877 32.2461 20.7877 32.2507 20.7895C32.4318 20.8412 32.5626 20.9419 32.6504 21.0952C32.654 21.1006 32.6559 21.107 32.6559 21.1124L32.6641 21.3556C32.6641 21.361 32.6623 21.3664 32.6604 21.3719L31.7961 23.2406C31.8043 23.481 31.7769 23.6661 31.7156 23.7877C31.6534 23.9101 31.5556 23.9745 31.422 23.9791L31.2327 23.9854C31.2263 23.9854 31.219 23.9845 31.2135 23.9809C30.9931 23.8557 30.8824 23.6888 30.8742 23.4702C30.8742 23.4683 30.8742 23.4656 30.8742 23.4629L30.9867 22.8088L30.1315 23.0356C30.1315 23.0356 30.126 23.0365 30.1232 23.0365C29.1117 23.071 28.4485 22.5811 28.1522 21.5887C28.1504 21.586 28.1504 21.5823 28.1504 21.5796L28.1476 21.5179C28.1174 20.6407 28.8482 19.7744 30.3171 18.9416C30.3171 18.9416 30.6427 18.7484 31.2592 18.7765C31.4952 18.7874 31.7147 18.9234 31.9196 19.2038C32.0101 19.3289 31.936 19.6183 31.936 19.6183C31.829 19.836 31.7549 19.9277 31.5181 19.9367C31.5144 19.9367 31.4668 19.9449 31.4632 19.9449L31.0049 19.8551C31.0049 19.8551 30.9546 19.8379 30.8723 19.8705C30.1315 20.1617 29.5937 20.6189 29.2681 21.2168C29.2681 21.2168 29.1418 21.4835 29.2141 21.6159L29.2159 21.615Z" fill="white"/>
<path d="M19.357 23.8884L19.1686 23.9954C19.1631 23.999 19.1567 24 19.1503 24H19.0287C19.0287 24 18.9793 23.9927 18.9153 23.9564L18.7177 23.7895C18.6345 23.6951 18.6427 23.5346 18.6427 23.5346L18.6793 22.3371C18.6774 22.1303 18.7287 21.8536 18.7287 21.8536L18.9454 20.7568L18.9409 20.7541C17.5204 19.944 16.946 19.0504 16.946 18.3891V18.3746C16.946 18.3683 16.9479 18.3619 16.9515 18.3556L16.9607 18.3429C17.0659 18.1669 17.2278 18.078 17.4399 18.078H17.461C17.4692 18.078 17.4793 18.0816 17.4866 18.0879L17.5021 18.1006C17.5021 18.1006 17.504 18.1034 17.5049 18.1043L19.0488 19.8324L19.1814 19.9032C19.2043 19.8134 19.2445 19.719 19.2857 19.6192C19.3095 19.5621 19.3351 19.5022 19.3579 19.4405C19.3698 19.3153 19.5006 19.114 19.5171 19.0895C19.5729 18.9733 19.6332 18.8463 19.6954 18.7139C19.8948 18.2957 20.0906 17.8766 20.3028 17.4656C20.3384 17.3958 20.3732 17.325 20.4226 17.2633C20.4765 17.1971 20.5524 17.149 20.621 17.0982C20.6805 17.0538 20.7326 17.0003 20.8012 16.9685C20.8616 16.9404 20.9192 16.9422 20.9842 16.944C21.0793 16.9467 21.1762 16.944 21.2713 16.944C21.5494 16.944 21.7342 17.0356 21.822 17.2171C21.822 17.2198 21.8238 17.2216 21.8238 17.2243L21.8293 17.2479C21.8293 17.2479 21.8311 17.2524 21.8311 17.2552V17.3985C21.8311 17.4112 21.8238 17.4239 21.8128 17.4302L21.7845 17.4466C21.4104 17.6616 20.6247 18.9652 20.5964 19.1911C20.5964 19.1938 20.5963 19.1956 20.5945 19.1974C19.9973 20.3268 19.5418 22.2283 19.4357 23.7242C19.4357 23.7242 19.4192 23.8303 19.3598 23.8911L19.357 23.8884Z" fill="white"/>
<path d="M32.6668 15C32.4875 15 32.3329 15.0508 32.3329 15.0508C31.7284 15.2331 31.2802 15.6114 31.2802 15.6114C30.8805 15.9317 30.5777 16.3236 30.4323 16.7173C30.2805 17.121 30.3043 17.492 30.4991 17.7605C30.6765 18.0045 30.9829 18.1397 31.3634 18.1578C31.7823 18.1778 31.8363 17.8549 31.8363 17.8549C31.9168 17.58 31.6808 17.3423 31.1357 17.1454C31.1357 17.1454 30.9902 17.0974 30.9902 16.9422C30.9902 16.8951 31.0131 16.7971 31.1055 16.7508C31.197 16.7055 31.2756 16.7372 31.2756 16.7372C31.7393 16.896 32.1043 17.1681 32.3009 17.5047L32.3979 17.6707V16.2002C32.3979 16.0541 32.5177 15.9344 32.6659 15.9344C32.814 15.9344 32.9348 16.0541 32.9348 16.2002V17.6716L33.0317 17.5056C33.2284 17.169 33.5924 16.8969 34.057 16.7381C34.057 16.7381 34.1366 16.7055 34.2281 16.7517C34.3204 16.798 34.3442 16.896 34.3442 16.9432C34.3442 17.0983 34.1988 17.1464 34.1988 17.1464C33.6537 17.3423 33.4168 17.5809 33.4973 17.8558C33.4973 17.8558 33.5521 18.1787 33.971 18.1588C34.3515 18.1397 34.6588 18.0045 34.8354 17.7614C35.0302 17.4929 35.0549 17.1219 34.9021 16.7182C34.754 16.3254 34.4531 15.9326 34.0534 15.6123C34.0534 15.6123 33.6061 15.235 33.0015 15.0526C33.0015 15.0526 32.8396 15.0009 32.6677 15.0009L32.6668 15Z" fill="white"/>
</g>
<defs>
<clipPath id="clip0_9_337701">
<rect width="30" height="9" fill="white" transform="translate(5 15)"/>
</clipPath>
</defs>
</svg>
