<svg width="40" height="40" viewBox="0 0 40 40" fill="none" xmlns="http://www.w3.org/2000/svg">
<circle cx="20" cy="20" r="20" fill="#F6F8FA"/>
<circle cx="20" cy="20" r="19.5" stroke="black" stroke-opacity="0.05"/>
<g clip-path="url(#clip0_9_339698)">
<path d="M33.1561 18.4723C33.1561 19.0101 32.7145 19.4446 32.1726 19.4446C31.6307 19.4446 31.187 19.0101 31.187 18.4723C31.187 17.9345 31.6286 17.5 32.1726 17.5C32.7166 17.5 33.1561 17.9345 33.1561 18.4723Z" fill="#FF4600"/>
<path d="M35.9998 18.4723C35.9998 19.0101 35.5604 19.4446 35.0142 19.4446C34.4681 19.4446 34.0308 19.0101 34.0308 18.4723C34.0308 17.9345 34.4702 17.5 35.0142 17.5C35.5582 17.5 35.9998 17.9345 35.9998 18.4723Z" fill="#8BB906"/>
<path d="M5.96693 18.4723C5.96693 19.0101 5.52747 19.4446 4.98347 19.4446C4.43947 19.4446 4 19.0101 4 18.4723C4 18.2023 4.11093 17.9598 4.288 17.7847C4.4672 17.6076 4.7104 17.5 4.98347 17.5C5.23307 17.5 5.4592 17.5907 5.632 17.7404C5.8368 17.9197 5.96693 18.1812 5.96693 18.4723Z" fill="#00A3F1"/>
<path d="M21.5146 19.8201C21.5359 19.5522 21.7514 19.4003 22.0415 19.4003C22.3807 19.4003 22.5514 19.5859 22.5514 19.9719V20.128H22.2058C21.3802 20.128 20.7445 20.3958 20.7445 21.0644C20.7445 21.6697 21.2031 21.927 21.7066 21.927C22.1162 21.927 22.4149 21.7752 22.5578 21.5347V21.8806H23.2213V19.9593C23.2213 19.1515 22.6773 18.8942 22.0757 18.8942C21.4741 18.8942 20.9215 19.1641 20.8575 19.8179H21.5146V19.8201ZM21.8538 21.4293C21.5359 21.4293 21.4058 21.2606 21.4058 21.0265C21.4058 20.7185 21.7173 20.5667 22.2207 20.5667H22.5493V20.7797C22.5493 21.1783 22.2719 21.4293 21.8538 21.4293ZM7.71834 21.9502C8.46074 21.9502 8.90874 21.6149 8.90874 21.0201C8.90874 20.4254 8.45647 20.2313 7.79727 20.1238C7.3322 20.0499 7.20847 19.9318 7.20847 19.7315C7.20847 19.5311 7.3834 19.3898 7.67354 19.3898C7.9914 19.3898 8.15567 19.5016 8.20687 19.8201H8.8426C8.785 19.1304 8.27087 18.8794 7.67567 18.8794C7.13167 18.8794 6.55994 19.1705 6.55994 19.7589C6.55994 20.2503 6.86714 20.5203 7.62447 20.6489C8.0554 20.7227 8.23674 20.8514 8.23674 21.075C8.23674 21.2985 8.07887 21.4314 7.7162 21.4314C7.313 21.4314 7.18287 21.2184 7.16154 20.9779H6.51514C6.5386 21.5769 6.9674 21.946 7.7226 21.946M10.257 19.8179C10.2783 19.5501 10.4938 19.3982 10.7839 19.3982C11.1231 19.3982 11.2938 19.5838 11.2938 19.9698V20.1259H10.9482C10.1205 20.1259 9.48687 20.3937 9.48687 21.0623C9.48687 21.6676 9.94554 21.9249 10.4511 21.9249C10.8586 21.9249 11.1594 21.7731 11.3023 21.5326V21.8785H11.9658V19.9571C11.9658 19.1494 11.4218 18.892 10.8202 18.892C10.2186 18.892 9.66394 19.162 9.60207 19.8158H10.2591L10.257 19.8179ZM10.5962 21.4272C10.2783 21.4272 10.1482 21.2585 10.1482 21.0243C10.1482 20.7164 10.4597 20.5646 10.9631 20.5646H11.2917V20.7776C11.2917 21.1762 11.0143 21.4272 10.5962 21.4272ZM12.8469 21.8806H13.5274V20.2503C13.5274 19.7842 13.7983 19.4889 14.1503 19.4889C14.4682 19.4889 14.6154 19.6914 14.6154 20.1217V21.8785H15.2959V20.2039C15.2959 19.7568 15.5605 19.4868 15.8911 19.4868C16.2218 19.4868 16.3839 19.6935 16.3839 20.1259V21.8785H17.0645V20.0415C17.0645 19.2295 16.6271 18.9047 16.0959 18.9047C15.7119 18.9047 15.3535 19.0713 15.1615 19.4151C15.0314 19.0566 14.7541 18.9047 14.3914 18.9047C13.9775 18.9047 13.6661 19.1114 13.5295 19.3814V18.9511H12.849V21.8806H12.8469ZM18.1162 22.8846H18.7839L20.4885 18.9532H19.7866L19.0058 20.8957L18.2229 18.9532H17.5039L18.6538 21.6128L18.1141 22.8846H18.1162ZM24.1279 21.8806H24.8063V20.2229C24.8063 19.7737 25.1007 19.4721 25.4698 19.4721C25.8389 19.4721 26.0351 19.6745 26.0351 20.1153V21.8785H26.7157V20.0521C26.7157 19.2464 26.2847 18.9047 25.7237 18.9047C25.3205 18.9047 25.0047 19.0502 24.8063 19.3771V18.9511H24.1279V21.8806ZM29.5765 21.3154C29.4741 21.579 29.1178 21.7689 28.7615 21.7689C27.8378 21.7689 27.4026 21.1193 27.4026 20.3452C27.4026 19.5712 27.8442 18.8942 28.7466 18.8942C29.0922 18.8942 29.4378 19.0439 29.5786 19.3033V18.9511H30.2591V21.5727C30.2591 22.5914 29.5679 22.9563 28.8191 22.9563C28.0703 22.9563 27.5605 22.6083 27.4879 21.9798H28.1855C28.2367 22.2708 28.5034 22.4332 28.849 22.4332C29.3034 22.4332 29.5807 22.159 29.5807 21.6149V21.3133L29.5765 21.3154ZM28.8789 19.4278C28.369 19.4278 28.0981 19.7694 28.0981 20.3452C28.0981 20.921 28.3519 21.2542 28.8853 21.2542C29.2991 21.2542 29.5807 20.9801 29.5807 20.4465V20.2292C29.5807 19.7694 29.3269 19.4278 28.8789 19.4278Z" fill="#231F20"/>
</g>
<defs>
<clipPath id="clip0_9_339698">
<rect width="32" height="6.22222" fill="white" transform="translate(4 17.5)"/>
</clipPath>
</defs>
</svg>
