<svg width="40" height="41" viewBox="0 0 40 41" fill="none" xmlns="http://www.w3.org/2000/svg">
<circle cx="20" cy="20.2104" r="20" fill="#F6F8FA"/>
<circle cx="20" cy="20.2104" r="19.5" stroke="black" stroke-opacity="0.05"/>
<circle cx="20" cy="20" r="20" fill="#00B4AE"/>
<circle cx="20" cy="20" r="19.5" stroke="black" stroke-opacity="0.05"/>
<g clip-path="url(#clip0_9_350688)">
<path d="M26.216 28.5714C28.8459 28.5714 30.9779 26.4394 30.9779 23.8095C30.9779 21.1796 28.8459 19.0476 26.216 19.0476C23.5861 19.0476 21.4541 21.1796 21.4541 23.8095C21.4541 26.4394 23.5861 28.5714 26.216 28.5714Z" fill="white"/>
<path d="M24.5373 14.1854C24.5293 13.5395 24.3889 12.9022 24.1246 12.3129C23.8604 11.7235 23.478 11.1947 23.0011 10.7591C22.5242 10.3235 21.963 9.99037 21.3522 9.7804C20.7414 9.57044 20.094 9.48807 19.4501 9.5384C17.163 9.71159 15.1592 11.8206 15.0977 14.1125C15.0881 14.455 15.1158 14.7974 15.1802 15.1339C15.3421 15.9901 15.1139 17.0891 14.5522 17.7544C13.8273 18.4978 12.9223 19.0409 11.9253 19.3309C10.9022 19.6408 10.0145 20.2884 9.40713 21.1681C8.79975 22.0477 8.5086 23.1073 8.58124 24.1737C8.66351 25.3223 9.16117 26.4017 9.98121 27.2101C10.8013 28.0185 11.8876 28.5007 13.0372 28.5666C13.6827 28.6014 14.3284 28.5034 14.9344 28.2785C15.5404 28.0536 16.0938 27.7066 16.5603 27.2591C17.0267 26.8116 17.3963 26.2731 17.6462 25.677C17.896 25.0808 18.0208 24.4397 18.0128 23.7934C18.0128 23.6477 18.0015 23.5036 17.9869 23.3612C17.8683 22.3313 18.1435 21.2946 18.7573 20.4591C19.345 19.6578 20.1773 19.0692 21.1286 18.7822C22.1215 18.4946 22.9927 17.8892 23.6084 17.0588C24.2242 16.2285 24.5505 15.219 24.5373 14.1854Z" fill="white"/>
</g>
<defs>
<clipPath id="clip0_9_350688">
<rect width="22.4062" height="19.0476" fill="white" transform="translate(8.57129 9.5238)"/>
</clipPath>
</defs>
</svg>
