<svg width="40" height="41" viewBox="0 0 40 41" fill="none" xmlns="http://www.w3.org/2000/svg">
<path d="M40 20.2104C40 31.2561 31.0457 40.2104 20 40.2104C8.9543 40.2104 0 31.2561 0 20.2104C0 9.16475 8.9543 0.210449 20 0.210449C31.0457 0.210449 40 9.16475 40 20.2104Z" fill="#004B96"/>
<path d="M35.8263 18.5003C35.1421 15.4467 32.4212 13.2949 29.3455 13.2143C28.1303 13.1731 26.9268 13.4637 25.8644 14.055C25.0341 14.5122 24.3079 15.137 23.7318 15.8897C23.1558 16.6424 22.7424 17.5065 22.5179 18.4274C22.2934 19.3483 22.2627 20.3057 22.4278 21.2391C22.5928 22.1724 22.95 23.0613 23.4767 23.8493C24.1456 24.8547 25.0708 25.6632 26.1567 26.1915C27.1877 26.7008 28.3332 26.9339 29.4813 26.8678C32.3081 26.7307 34.6945 24.9298 35.6346 22.2738C35.6355 22.2688 35.6355 22.2638 35.6346 22.2588C35.6346 22.2528 35.6334 22.2468 35.6311 22.2412C35.6288 22.2356 35.6254 22.2305 35.6211 22.2262C35.6168 22.2219 35.6117 22.2185 35.6061 22.2162C35.6005 22.2139 35.5945 22.2127 35.5885 22.2127H34.8939H34.0493C34.039 22.2129 34.0288 22.2104 34.0197 22.2055C34.0106 22.2006 34.0029 22.1935 33.9974 22.1848L33.8674 21.9821L33.3145 20.9789C33.3119 20.9738 33.3078 20.9695 33.3028 20.9666C33.2955 20.9626 33.2869 20.9617 33.2789 20.964C33.2708 20.9663 33.264 20.9716 33.2599 20.9789L32.5739 22.1542C32.5619 22.1762 32.5442 22.1945 32.5225 22.207C32.5008 22.2195 32.4761 22.2258 32.4511 22.225H30.9567C30.9499 22.225 30.9432 22.223 30.9376 22.2192C30.9319 22.2154 30.9275 22.2099 30.9249 22.2036C30.9217 22.1958 30.9205 22.1872 30.9215 22.1788C30.9225 22.1704 30.9257 22.1624 30.9307 22.1555C31.4037 21.4625 31.9073 20.7309 32.4413 19.9608C32.4557 19.9401 32.4634 19.9155 32.4634 19.8903C32.4634 19.8651 32.4557 19.8405 32.4413 19.8198L31.1802 17.9409C31.1756 17.9337 31.1732 17.9254 31.1731 17.9169C31.1731 17.9057 31.1775 17.8949 31.1855 17.887C31.1934 17.8791 31.2041 17.8746 31.2153 17.8746L32.7785 17.8785C32.805 17.8787 32.831 17.8859 32.8538 17.8993C32.8766 17.9128 32.8955 17.9321 32.9084 17.9552L33.4445 18.9005C33.4475 18.9052 33.4515 18.9092 33.4562 18.9122C33.4633 18.916 33.4715 18.9169 33.4793 18.9147C33.487 18.9125 33.4937 18.9074 33.4977 18.9005L34.0825 17.8688L35.3169 17.8824H35.5482C35.5566 17.882 35.5648 17.8839 35.5722 17.8879C35.5795 17.892 35.5856 17.8979 35.5898 17.9052C35.5962 17.9126 35.6002 17.9218 35.6013 17.9315C35.6023 17.9413 35.6003 17.9511 35.5956 17.9597C35.1408 18.6528 34.7142 19.3005 34.3157 19.903C34.2982 19.9299 34.2889 19.9613 34.2889 19.9933C34.2889 20.0254 34.2982 20.0567 34.3157 20.0836L35.6346 22.06C35.6403 22.0683 35.6489 22.0743 35.6586 22.0769C35.6639 22.0785 35.6694 22.079 35.6749 22.0784C35.6803 22.0778 35.6856 22.0761 35.6904 22.0735C35.6951 22.0708 35.6993 22.0672 35.7027 22.0629C35.7061 22.0586 35.7086 22.0536 35.71 22.0483C36.0515 20.8951 36.0916 19.6735 35.8263 18.5003ZM23.5124 22.1594V17.9363C23.5124 17.9238 23.5174 17.9117 23.5263 17.9028C23.5352 17.8939 23.5473 17.8889 23.5599 17.8889L24.6332 17.8805L25.2179 17.874C25.2457 17.8734 25.273 17.8804 25.2972 17.8941C25.3213 17.9078 25.3413 17.9278 25.355 17.9519L26.7291 20.3149C26.7811 20.4046 26.8071 20.3974 26.8071 20.2941L26.8129 17.9078C26.8129 17.899 26.8164 17.8905 26.8226 17.8843C26.8288 17.8781 26.8373 17.8746 26.8461 17.8746H28.0682C28.0887 17.8746 28.1083 17.8828 28.1228 17.8973C28.1373 17.9118 28.1455 17.9314 28.1455 17.9519C28.1455 19.3423 28.1455 20.7452 28.1455 22.1607C28.1455 22.1714 28.1436 22.182 28.1396 22.1919C28.1359 22.2033 28.1285 22.213 28.1187 22.2197C28.1088 22.2264 28.097 22.2297 28.085 22.2289H26.4725C26.4433 22.2288 26.4147 22.2213 26.3893 22.2069C26.364 22.1926 26.3427 22.172 26.3276 22.1471L24.906 19.8081C24.8677 19.7432 24.8482 19.7497 24.8482 19.8244V22.1633C24.8502 22.1753 24.8492 22.1875 24.8453 22.1989C24.8413 22.2104 24.8346 22.2207 24.8257 22.2288C24.8168 22.237 24.806 22.2429 24.7943 22.2458C24.7826 22.2488 24.7703 22.2488 24.7586 22.2458L24.5636 22.2283L23.5689 22.216C23.554 22.2158 23.5397 22.2098 23.5292 22.1992C23.5186 22.1886 23.5126 22.1744 23.5124 22.1594ZM29.0999 22.2283C29.0839 22.2283 29.0685 22.2219 29.0572 22.2106C29.0458 22.1993 29.0395 22.1839 29.0395 22.1679V17.9344C29.0395 17.9265 29.041 17.9186 29.0441 17.9113C29.0471 17.9039 29.0515 17.8973 29.0572 17.8917C29.0628 17.8861 29.0694 17.8816 29.0768 17.8786C29.0841 17.8755 29.0919 17.874 29.0999 17.874H30.5136C30.5216 17.8739 30.5295 17.8754 30.5369 17.8784C30.5442 17.8814 30.5509 17.8859 30.5566 17.8915C30.5622 17.8971 30.5666 17.9038 30.5696 17.9112C30.5726 17.9185 30.5741 17.9264 30.5741 17.9344V22.1679C30.5741 22.1839 30.5677 22.1993 30.5564 22.2106C30.545 22.2219 30.5297 22.2283 30.5136 22.2283H29.0999Z" fill="white"/>
<path d="M6.45238 21.0853C6.55569 20.9365 6.46213 20.7754 6.31075 20.7111C6.24008 20.681 6.16678 20.6575 6.0918 20.6409C5.47544 20.498 4.96607 20.318 4.56369 20.101C4.21935 19.9159 4.08681 19.591 4.07836 19.2012C4.05952 18.3325 4.67284 17.8141 5.49927 17.7445C6.16326 17.6887 6.88573 17.7855 7.35677 18.176C7.61665 18.3904 7.75114 18.7698 7.79272 19.0933C7.79364 19.1 7.79322 19.1068 7.79149 19.1134C7.78976 19.1199 7.78676 19.1261 7.78265 19.1314C7.77855 19.1368 7.77342 19.1413 7.76757 19.1447C7.76171 19.1481 7.75525 19.1503 7.74854 19.1512H7.7414H6.47967C6.46785 19.1511 6.45628 19.1477 6.4462 19.1416C6.43613 19.1354 6.42793 19.1266 6.4225 19.1161C6.4024 19.0551 6.36963 18.9991 6.32634 18.9517C6.23649 18.8718 6.1291 18.8141 6.01284 18.7834C5.89658 18.7527 5.77473 18.7498 5.65714 18.775C5.60893 18.7804 5.5638 18.8014 5.52862 18.8349C5.49344 18.8683 5.47013 18.9123 5.46223 18.9601C5.40571 19.2577 6.20355 19.3954 6.403 19.4357C7.07545 19.5715 7.78168 19.8509 7.90772 20.5656C8.00864 21.1369 7.833 21.5785 7.38081 21.8903C6.61286 22.4205 5.49667 22.3971 4.67349 21.9832C4.23776 21.7628 4.01339 21.3844 4.0004 20.8482C3.99963 20.8435 3.99997 20.8388 4.00139 20.8343C4.00281 20.8298 4.00526 20.8258 4.00855 20.8224C4.01184 20.819 4.01588 20.8165 4.02033 20.815C4.02479 20.8135 4.02953 20.8131 4.03418 20.8138L5.33749 20.7936C5.34666 20.7942 5.35543 20.7975 5.36264 20.8032C5.36984 20.8089 5.37513 20.8167 5.37777 20.8254C5.4644 21.1022 5.67317 21.2523 6.00409 21.2757C6.20679 21.2891 6.35623 21.2257 6.45238 21.0853Z" fill="white"/>
<path d="M20.4496 17.9017C20.9759 18.1031 21.3592 18.5274 21.5976 19.0192C21.9442 19.7235 21.9472 20.4245 21.6067 21.1223C21.2715 21.8105 20.719 22.1939 19.9493 22.2723C19.0976 22.3593 18.2562 22.1988 17.7261 21.4926C17.3599 21.0237 17.1866 20.4328 17.2414 19.8404C17.3071 19.2028 17.617 18.6154 18.1061 18.2012C18.7149 17.7068 19.7135 17.6197 20.4496 17.9017ZM19.5459 21.247C20.0007 21.247 20.3691 20.713 20.3697 20.0522C20.3704 19.3915 20.0039 18.8555 19.5504 18.8548C19.0956 18.8548 18.7273 19.3889 18.726 20.0496C18.7247 20.7104 19.0917 21.2464 19.5459 21.247Z" fill="white"/>
<path d="M14.2942 19.0758C14.2942 19.1232 14.3097 19.1291 14.3416 19.094L15.3649 17.9589C15.3848 17.9366 15.4092 17.9188 15.4366 17.9066C15.4639 17.8944 15.4935 17.8881 15.5234 17.8881H17.034C17.1093 17.8881 17.121 17.9154 17.069 17.97L15.6572 19.4611C15.6405 19.4763 15.6301 19.4972 15.6282 19.5198C15.6263 19.5423 15.6329 19.5647 15.6468 19.5826L17.3036 22.1164C17.3056 22.1194 17.307 22.1227 17.3078 22.1262C17.3085 22.1298 17.3085 22.1334 17.3077 22.1369C17.307 22.1404 17.3056 22.1438 17.3035 22.1467C17.3015 22.1497 17.2988 22.1522 17.2958 22.1541C17.2913 22.1568 17.2861 22.1584 17.2808 22.1586H15.6566C15.6316 22.1594 15.6069 22.1533 15.5852 22.1411C15.5634 22.1288 15.5454 22.1109 15.5331 22.0891L14.5911 20.5467C14.5729 20.5155 14.5508 20.5136 14.5261 20.5396C14.415 20.6585 14.2903 20.7267 14.2935 20.9099C14.3004 21.2885 14.302 21.6883 14.2981 22.1093C14.2979 22.1226 14.2925 22.1353 14.283 22.1447C14.2735 22.154 14.2607 22.1593 14.2474 22.1593H12.883C12.8716 22.1591 12.8607 22.1545 12.8526 22.1463C12.8446 22.1382 12.8401 22.1272 12.8401 22.1158V17.9232C12.8395 17.9184 12.84 17.9134 12.8415 17.9088C12.8431 17.9042 12.8457 17.9 12.8492 17.8965C12.8526 17.8931 12.8568 17.8905 12.8615 17.8889C12.8661 17.8873 12.871 17.8868 12.8759 17.8875H14.2623C14.2672 17.8875 14.2719 17.8884 14.2764 17.8903C14.2809 17.8922 14.2849 17.8949 14.2883 17.8984C14.2917 17.9018 14.2943 17.9059 14.2961 17.9104C14.2979 17.9149 14.2988 17.9197 14.2987 17.9245L14.2942 19.0758Z" fill="white"/>
<path d="M24.6338 17.8801L25.2185 17.8736C25.2462 17.873 25.2736 17.8799 25.2978 17.8937C25.3219 17.9074 25.3419 17.9274 25.3556 17.9515L26.7297 20.3145C26.7817 20.4042 26.8077 20.397 26.8077 20.2937L26.8135 17.9074C26.8135 17.8986 26.817 17.8901 26.8232 17.8839C26.8294 17.8777 26.8379 17.8742 26.8467 17.8742H28.0687C28.0892 17.8742 28.1089 17.8824 28.1234 17.8969C28.1379 17.9114 28.1461 17.931 28.1461 17.9515C28.1461 19.3419 28.1461 20.7448 28.1461 22.1603C28.1461 22.171 28.1441 22.1816 28.1402 22.1915C28.1365 22.2028 28.1291 22.2126 28.1192 22.2193C28.1094 22.226 28.0975 22.2293 28.0856 22.2285H26.4718C26.4426 22.2284 26.414 22.2209 26.3886 22.2065C26.3633 22.1922 26.342 22.1716 26.3269 22.1467L24.9053 19.8077C24.867 19.7428 24.8475 19.7493 24.8475 19.824V22.1629C24.8495 22.1748 24.8485 22.1871 24.8446 22.1985C24.8406 22.21 24.8339 22.2202 24.825 22.2284C24.8161 22.2366 24.8053 22.2425 24.7936 22.2454C24.7819 22.2484 24.7696 22.2484 24.7579 22.2454L24.5629 22.2279L23.5682 22.2162C23.5533 22.216 23.539 22.21 23.5285 22.1994C23.5179 22.1889 23.5119 22.1746 23.5117 22.1597V17.9366C23.5117 17.924 23.5167 17.9119 23.5256 17.9031C23.5345 17.8942 23.5466 17.8892 23.5591 17.8892L24.6338 17.8801Z" fill="#004B96"/>
<path d="M30.5737 22.1679C30.5737 22.1839 30.5673 22.1993 30.556 22.2106C30.5446 22.222 30.5293 22.2283 30.5132 22.2283H29.0995C29.0835 22.2283 29.0681 22.222 29.0568 22.2106C29.0454 22.1993 29.0391 22.1839 29.0391 22.1679V17.9344C29.0391 17.9265 29.0406 17.9187 29.0437 17.9113C29.0467 17.904 29.0511 17.8973 29.0568 17.8917C29.0624 17.8861 29.069 17.8817 29.0764 17.8786C29.0837 17.8756 29.0915 17.874 29.0995 17.874H30.5132C30.5212 17.8739 30.5291 17.8754 30.5365 17.8784C30.5438 17.8815 30.5505 17.8859 30.5562 17.8915C30.5618 17.8972 30.5662 17.9039 30.5692 17.9112C30.5722 17.9186 30.5738 17.9265 30.5737 17.9344V22.1679Z" fill="#004B96"/>
<path d="M9.98495 20.5782L9.98885 21.0791C9.98918 21.0906 9.99387 21.1014 10.002 21.1095C10.0101 21.1176 10.0209 21.1223 10.0324 21.1227H12.09C12.0958 21.1226 12.1016 21.1236 12.107 21.1258C12.1124 21.128 12.1173 21.1313 12.1214 21.1354C12.1256 21.1395 12.1288 21.1444 12.131 21.1498C12.1332 21.1552 12.1343 21.161 12.1342 21.1668V22.1147C12.1342 22.1265 12.1295 22.1377 12.1212 22.146C12.113 22.1543 12.1017 22.1589 12.09 22.1589H8.57055C8.55888 22.1588 8.54774 22.1541 8.53949 22.1458C8.53124 22.1376 8.52654 22.1264 8.52637 22.1147V17.967C8.52637 17.9553 8.53102 17.9441 8.53931 17.9358C8.54759 17.9275 8.55883 17.9229 8.57055 17.9229H11.9899C11.9958 17.9228 12.0016 17.9239 12.007 17.926C12.0124 17.9282 12.0173 17.9315 12.0214 17.9356C12.0255 17.9397 12.0287 17.9446 12.0309 17.95C12.0331 17.9554 12.0342 17.9612 12.0341 17.967V18.9176C12.0341 18.9234 12.033 18.9291 12.0308 18.9345C12.0285 18.9398 12.0253 18.9447 12.0212 18.9488C12.0171 18.9529 12.0122 18.9562 12.0068 18.9584C12.0015 18.9606 11.9957 18.9617 11.9899 18.9617H10.0298C10.0181 18.9617 10.0068 18.9664 9.99854 18.9747C9.99026 18.983 9.9856 18.9942 9.9856 19.0059L9.9895 19.4523C9.98983 19.4638 9.99462 19.4748 10.0028 19.4829C10.0111 19.491 10.0221 19.4956 10.0337 19.4958H11.6651C11.6709 19.4957 11.6767 19.4968 11.6821 19.499C11.6875 19.5012 11.6924 19.5044 11.6965 19.5085C11.7006 19.5127 11.7039 19.5176 11.7061 19.523C11.7083 19.5284 11.7094 19.5341 11.7093 19.54V20.484C11.7093 20.4957 11.7046 20.5069 11.6963 20.5152C11.688 20.5235 11.6768 20.5282 11.6651 20.5282H10.0317C10.02 20.5282 10.0088 20.5328 10.0005 20.5411C9.99221 20.5494 9.98755 20.5606 9.98755 20.5724L9.98495 20.5782Z" fill="white"/>
<circle cx="20" cy="20" r="19.5" stroke="black" stroke-opacity="0.05"/>
</svg>
