<svg width="41" height="40" viewBox="0 0 41 40" fill="none" xmlns="http://www.w3.org/2000/svg">
<circle cx="20.0352" cy="20" r="20" fill="#9A0023"/>
<path d="M23.6621 14.7155C24.2618 12.9383 24.249 11.0114 23.6257 9.24239C23.6193 9.22427 23.6204 9.20439 23.6286 9.18705C23.6369 9.16971 23.6516 9.15633 23.6697 9.14981C25.4515 8.73545 27.2 9.16499 28.2913 10.6342C28.6257 11.0836 28.8442 11.6086 28.9273 12.1626C29.4782 15.7157 26.5929 18.5828 23.7425 20.0945C21.3293 21.4111 18.5116 21.7796 15.8409 21.1282C15.2338 20.9885 15.2419 20.9187 15.8652 20.9187C16.328 20.9138 16.7877 20.8443 17.2312 20.7123C20.0407 19.9124 22.718 17.5598 23.6621 14.7155Z" fill="white"/>
<path d="M14.6007 13.6591C13.8813 13.8337 8.79366 15.0358 9.0441 13.518C9.10177 13.1618 9.33399 12.7864 9.74076 12.3918C9.78478 12.3493 9.81817 12.3569 9.8379 12.4146C10.2932 13.7199 15.6191 12.923 16.7529 12.7545C17.612 12.6255 18.8854 12.6225 19.5426 13.2797C19.6944 13.4315 19.661 13.5134 19.4531 13.5362C17.3828 13.7715 15.1638 14.9933 14.3639 16.974C13.1664 19.9428 15.2397 22.6808 18.0066 23.5824C19.3443 24.0175 20.9066 24.1556 22.6935 23.9968C26.1161 23.6932 29.3171 21.6563 30.8516 18.6496C31.054 18.2621 31.1208 18.2833 31.052 18.7134C30.4448 22.8341 27.6096 25.7908 23.6588 26.9306C23.6433 26.935 23.6297 26.9444 23.6201 26.9573C23.6105 26.9702 23.6054 26.9859 23.6057 27.002L23.6133 31.9636C23.6141 31.9682 23.6138 31.9729 23.6124 31.9773C23.611 31.9817 23.6086 31.9857 23.6053 31.989C23.602 31.9923 23.598 31.9947 23.5936 31.9961C23.5892 31.9975 23.5845 31.9978 23.5799 31.997H22.8605C22.8547 31.9981 22.8487 31.9977 22.843 31.996C22.8374 31.9942 22.8322 31.9911 22.828 31.9869C22.8238 31.9828 22.8207 31.9776 22.819 31.972C22.8172 31.9663 22.8169 31.9603 22.818 31.9545V27.2494C22.818 27.2296 22.8101 27.2107 22.7962 27.1968C22.7823 27.1828 22.7633 27.175 22.7436 27.175H22.7284C22.0017 27.3361 21.2612 27.4271 20.517 27.4467C20.5028 27.4471 20.4893 27.453 20.4794 27.4632C20.4694 27.4734 20.4639 27.4871 20.4639 27.5013V31.9621C20.4639 31.9713 20.4602 31.9802 20.4537 31.9868C20.4471 31.9933 20.4382 31.997 20.429 31.997H19.7065C19.7007 31.9981 19.6947 31.9977 19.6891 31.996C19.6834 31.9942 19.6783 31.9911 19.6741 31.9869C19.6699 31.9828 19.6668 31.9776 19.665 31.972C19.6633 31.9663 19.6629 31.9603 19.664 31.9545V27.5529C19.664 27.5276 19.654 27.5032 19.636 27.4853C19.6181 27.4674 19.5938 27.4573 19.5684 27.4573C18.8289 27.4482 18.0913 27.3786 17.3631 27.2494C17.356 27.2481 17.3487 27.2482 17.3417 27.2497C17.3346 27.2512 17.328 27.254 17.322 27.2581C17.3161 27.2622 17.3111 27.2674 17.3072 27.2735C17.3033 27.2795 17.3006 27.2863 17.2993 27.2934C17.2987 27.2969 17.2987 27.3005 17.2993 27.304V31.9499C17.2993 31.9849 17.2826 32.0016 17.2477 32H16.5328C16.5146 32 16.5055 31.9909 16.5055 31.9712V27.1538C16.5054 27.1336 16.4989 27.1141 16.4869 27.098C16.4748 27.0819 16.458 27.07 16.4387 27.0642C13.4275 26.1717 11.0567 23.9664 10.4799 20.8033C10.3124 19.896 10.3492 18.9627 10.5877 18.0713C11.1553 15.9039 12.5836 14.6002 14.6098 13.6789C14.71 13.644 14.7069 13.6333 14.6007 13.6591Z" fill="white"/>
<circle cx="20" cy="20" r="19.5" stroke="black" stroke-opacity="0.05"/>
</svg>
