<svg width="41" height="40" viewBox="0 0 41 40" fill="none" xmlns="http://www.w3.org/2000/svg">
<circle cx="20.0352" cy="20" r="20" fill="#2A3F88"/>
<path d="M17.1958 10.7935C17.5042 10.7765 17.7277 10.7511 17.954 10.7511C21.0181 10.7511 24.0822 10.7681 27.1464 10.7369C27.8197 10.7313 28.0461 10.9208 28.0348 11.6112C27.9838 15.3572 28.0206 19.106 27.9386 22.8519C27.8905 24.9937 27.3076 26.994 25.7968 28.6237C24.6877 29.8205 23.2844 30.4344 21.6972 30.6438C20.1184 30.8531 18.5397 30.8418 17.0062 30.3665C14.4599 29.58 13.0537 27.7381 12.4397 25.2398C12.2275 24.3769 12.0889 23.4744 12.0776 22.586C12.0352 18.8626 12.0521 15.1393 12.0352 11.416C12.0352 10.9406 12.1766 10.72 12.6831 10.7426C13.3423 10.7709 14.0043 10.7765 14.6636 10.7426C15.2294 10.7115 15.3907 10.9463 15.3879 11.4895C15.3681 14.7177 15.3482 17.9488 15.3907 21.177C15.4048 22.3483 15.4897 23.5366 15.7245 24.6825C16.0329 26.1905 17.0147 27.1524 18.5934 27.2798C19.595 27.3618 20.6192 27.3533 21.6151 27.2373C22.9958 27.076 23.887 26.1961 24.2379 24.8862C24.4783 23.9865 24.6113 23.033 24.634 22.0993C24.6905 19.6973 24.6453 17.2924 24.6764 14.8875C24.6849 14.2028 24.4218 13.9708 23.7569 13.9963C22.7921 14.0331 21.8245 14.0302 20.8597 13.9963C20.5541 13.985 20.1778 13.8972 19.9656 13.702C19.0829 12.8872 18.2483 12.0186 17.4023 11.1642C17.3287 11.0906 17.2976 10.9774 17.1986 10.7935H17.1958Z" fill="white"/>
<circle cx="20" cy="20" r="19.5" stroke="black" stroke-opacity="0.05"/>
</svg>
