<svg width="41" height="40" viewBox="0 0 41 40" fill="none" xmlns="http://www.w3.org/2000/svg">
<circle cx="20.0352" cy="20" r="20" fill="#ED1A3B"/>
<g clip-path="url(#clip0_9_362860)">
<path d="M31.3176 12.0526C32.1219 11.8474 32.9692 12.2585 33.3521 13.0095C33.3542 13.0137 33.3555 13.0183 33.3558 13.023C33.3562 13.0277 33.3556 13.0325 33.354 13.037C33.3525 13.0414 33.3501 13.0456 33.347 13.0491C33.3438 13.0527 33.34 13.0556 33.3358 13.0576C31.9093 13.7375 30.4989 14.4206 29.1046 15.1069C28.4943 15.4032 27.9647 15.5157 27.3545 15.255C26.9538 15.0859 26.6288 14.7761 26.4405 14.3841C26.439 14.3813 26.438 14.3783 26.4376 14.3751C26.4373 14.372 26.4376 14.3688 26.4385 14.3657C26.4394 14.3627 26.4409 14.3599 26.4429 14.3574C26.4449 14.355 26.4474 14.353 26.4502 14.3515C27.7156 13.7491 29.0268 13.1146 30.3836 12.4481C30.8201 12.2318 31.1314 12.1 31.3176 12.0526Z" fill="white"/>
<path d="M31.4785 14.481L33.4108 13.5656C33.4147 13.5639 33.4192 13.5637 33.4232 13.5653C33.4272 13.5668 33.4305 13.5699 33.4323 13.5738C33.4333 13.5769 33.4333 13.5803 33.4323 13.5834L32.1924 18.5308C32.1916 18.5342 32.19 18.5374 32.1879 18.5402C32.1858 18.543 32.1832 18.5454 32.1802 18.5472C32.1771 18.549 32.1738 18.5502 32.1703 18.5506C32.1668 18.5511 32.1633 18.5509 32.1599 18.55C32.1551 18.5486 32.1508 18.5461 32.1473 18.5426C31.8283 18.2005 31.5148 17.8627 31.2067 17.5295C30.8719 17.1665 30.863 16.7718 30.9845 16.2948C31.1415 15.6929 31.2832 15.1153 31.4096 14.5618C31.4134 14.5436 31.4217 14.5267 31.4338 14.5126C31.4458 14.4985 31.4612 14.4877 31.4785 14.481Z" fill="white"/>
<path d="M13.964 22.6128C13.9601 22.6128 13.9563 22.6143 13.9536 22.6171C13.9508 22.6199 13.9492 22.6237 13.9492 22.6276C13.9482 22.6302 13.9482 22.6331 13.9492 22.6357L17.048 27.0795C17.0496 27.0816 17.0507 27.0841 17.0513 27.0866C17.052 27.0892 17.0521 27.0919 17.0517 27.0945C17.0513 27.0971 17.0503 27.0996 17.0489 27.1019C17.0475 27.1041 17.0457 27.1061 17.0436 27.1076C17.0401 27.1101 17.0359 27.1113 17.0317 27.1113C16.2383 27.1113 15.4352 27.1113 14.6225 27.1113C13.9781 27.1113 13.3582 26.6462 13.0101 26.1271C11.9263 24.5071 10.8593 22.908 9.80913 21.33C9.80774 21.328 9.80678 21.3257 9.80629 21.3233C9.8058 21.3209 9.80579 21.3184 9.80628 21.316C9.80676 21.3136 9.80772 21.3113 9.8091 21.3092C9.81048 21.3072 9.81225 21.3054 9.81431 21.3041C9.81768 21.303 9.82131 21.303 9.82468 21.3041C10.8522 21.3041 11.8476 21.3041 12.8109 21.3041C13.0551 21.3012 13.2975 21.263 13.5308 21.1908C14.2931 20.9632 14.6387 20.4398 14.5676 19.6207C14.4832 18.6386 13.5308 18.3371 12.6998 18.3312C11.5232 18.3238 10.4508 18.3238 9.48251 18.3312C9.04406 18.3312 8.93445 18.609 8.93519 18.977C8.93519 21.7361 8.93519 24.4426 8.93519 27.0965C8.93519 27.1032 8.93253 27.1096 8.92781 27.1143C8.92309 27.1191 8.91668 27.1217 8.91001 27.1217C8.42514 27.1163 7.88054 27.118 7.27618 27.1269C6.98438 27.1304 6.76491 27.0985 6.61777 27.0314C6.38853 26.9318 6.20818 26.7454 6.11636 26.5129C6.05254 26.3077 6.02644 26.0927 6.03934 25.8782C6.03934 23.1566 6.03934 20.5645 6.03934 18.1016C6.03934 17.6207 6.22696 17.2919 6.60221 17.1151C6.73744 17.0502 6.88547 17.0162 7.03548 17.0159H13.9677C15.0128 17.0159 16.2081 17.301 16.9028 18.1209C17.5457 18.8793 17.622 19.9969 17.3072 20.8975C16.8347 22.2491 15.192 22.5439 13.964 22.6128Z" fill="white"/>
<path d="M29.7339 24.3916C29.6828 25.4455 29.114 26.2728 28.1512 26.715C27.4105 27.0557 26.641 27.1216 25.81 27.1179C23.802 27.11 21.8166 27.11 19.8539 27.1179C19.1452 27.1179 18.7697 26.5365 18.8393 25.8499C18.8392 25.844 18.8405 25.8381 18.8429 25.8327C18.8453 25.8272 18.8488 25.8224 18.8532 25.8184C18.8576 25.8144 18.8628 25.8114 18.8684 25.8095C18.8741 25.8077 18.88 25.8071 18.8859 25.8077C20.972 25.8112 23.0097 25.8112 24.9991 25.8077C26.2041 25.8077 27.0432 25.0671 26.7936 23.7947C26.6514 23.0689 26.1618 22.6326 25.399 22.643C24.1439 22.6598 23.0974 22.6507 22.2595 22.6156C21.8969 22.5974 21.5366 22.5478 21.1826 22.4675C19.9813 22.2038 19.0652 21.5358 18.9193 20.2293C18.6682 17.9771 20.465 17.0298 22.4187 17.0283C24.5295 17.0283 26.4993 17.0283 28.3282 17.0283C29.0155 17.0283 29.3688 17.6342 29.3058 18.2874C29.3058 18.2931 29.3047 18.2988 29.3023 18.3041C29.3 18.3093 29.2966 18.314 29.2923 18.3179C29.2881 18.3217 29.283 18.3246 29.2776 18.3264C29.2721 18.3282 29.2663 18.3287 29.2606 18.3281H23.8333C22.7809 18.3281 21.7166 18.6733 21.8033 19.939C21.8773 21.0077 22.8127 21.3077 23.7289 21.3091C24.9028 21.3091 26.1263 21.2558 27.2706 21.4195C28.9599 21.6543 29.8131 22.6845 29.7339 24.3916Z" fill="white"/>
</g>
<circle cx="20" cy="20" r="19.5" stroke="black" stroke-opacity="0.05"/>
<defs>
<clipPath id="clip0_9_362860">
<rect width="27.3987" height="15.1191" fill="white" transform="translate(6.03516 12)"/>
</clipPath>
</defs>
</svg>
