<svg width="41" height="40" viewBox="0 0 41 40" fill="none" xmlns="http://www.w3.org/2000/svg">
<circle cx="20.0352" cy="20" r="20" fill="#C80550"/>
<path d="M33.6487 18.2104H34.4128V18.9936H35.3548V19.2672H34.4128V21.3224H35.3227V21.595H34.1922C33.8883 21.595 33.6417 21.3484 33.6417 21.0445V19.268H33.0739V18.9945H33.6478V18.2104H33.6487Z" fill="white"/>
<path d="M5.93616 18.5669H7.43135V21.5973H8.32481V18.5669H9.81913V18.2109H5.93616V18.5669Z" fill="white"/>
<path d="M10.0416 18.9116V20.8974C10.0416 21.4427 10.362 21.5973 10.7536 21.5973H13.5999V21.2404H10.9499V20.0821H13.2048V19.7261H10.9499V18.5669H13.5999V18.2109H10.7536C10.362 18.2109 10.0416 18.3655 10.0416 18.9116Z" fill="white"/>
<path d="M13.9714 18.9116V20.8974C13.9714 21.4427 14.2918 21.5973 14.6834 21.5973H17.5288V21.2404H14.8797V18.5669H17.5288V18.2109H14.6834C14.2918 18.2109 13.9714 18.3655 13.9714 18.9116Z" fill="white"/>
<path d="M4.19458 18.2109L2.03516 21.5946H2.44238L4.03395 19.1105C4.10515 19.2164 5.6889 21.5955 5.6889 21.5955H6.80378L4.57489 18.2109H4.19458Z" fill="white"/>
<path d="M30.5992 18.2104V21.5968H31.3633V18.2104H30.5992Z" fill="white"/>
<path d="M29.361 18.9937V21.5968H30.1259V18.9937H29.361Z" fill="white"/>
<path d="M29.361 18.2104V18.5673H30.1259V18.2104H29.361Z" fill="white"/>
<path d="M25.8322 19.6945V20.8962C25.8322 20.9656 25.827 21.0282 25.8174 21.0855C25.8079 21.1428 25.7931 21.194 25.774 21.24C25.7332 21.3416 25.6716 21.4171 25.596 21.4718C25.583 21.4814 25.57 21.4892 25.5569 21.4979C25.53 21.5135 25.5014 21.5274 25.4719 21.5396C25.4571 21.5457 25.4415 21.5509 25.4267 21.5561C25.3954 21.5656 25.3633 21.5734 25.3303 21.5795C25.2635 21.5917 25.1931 21.5969 25.1202 21.5969H23.7909C23.7179 21.5969 23.6467 21.5917 23.5807 21.5795C23.5477 21.5734 23.5156 21.5656 23.4843 21.5561C23.4687 21.5509 23.454 21.5457 23.4392 21.5396C23.4097 21.5274 23.381 21.5144 23.3541 21.4979C23.3411 21.4901 23.3272 21.4814 23.315 21.4718C23.2395 21.4171 23.1778 21.3416 23.137 21.24C23.1188 21.194 23.104 21.1428 23.0936 21.0855C23.0841 21.0282 23.0789 20.9656 23.0789 20.8962V20.6253V19.6953C23.0789 19.6259 23.0841 19.5634 23.0936 19.506C23.1032 19.4487 23.1179 19.3975 23.137 19.3515C23.1778 19.2499 23.2395 19.1744 23.315 19.1197C23.3281 19.1101 23.3411 19.1023 23.3541 19.0936C23.381 19.078 23.4097 19.0641 23.4392 19.0519C23.454 19.0459 23.4696 19.0406 23.4843 19.0354C23.5156 19.0259 23.5477 19.0181 23.5807 19.012C23.6476 18.9998 23.7179 18.9946 23.7909 18.9946H25.1211C25.194 18.9946 25.2652 18.9998 25.3312 19.012C25.3642 19.0181 25.3963 19.0259 25.4276 19.0354C25.4432 19.0406 25.458 19.0459 25.4727 19.0519C25.5022 19.0641 25.5309 19.0771 25.5578 19.0936C25.5708 19.1014 25.5847 19.1101 25.5969 19.1197C25.6724 19.1744 25.7341 19.2499 25.7749 19.3515C25.7931 19.3975 25.8079 19.4487 25.8183 19.506C25.8287 19.5634 25.8331 19.6259 25.8331 19.6953L25.8322 19.6945ZM25.0377 19.2681H23.8403V21.3234H25.0377V19.2681Z" fill="white"/>
<path d="M31.8373 18.9937V21.5968H32.6014V18.9937H31.8373Z" fill="white"/>
<path d="M31.8373 18.2104V18.5673H32.6014V18.2104H31.8373Z" fill="white"/>
<path d="M27.0705 18.2104H26.3064V21.5959H27.0705V18.2104Z" fill="white"/>
<path d="M27.0706 19.6205C27.0706 19.4251 27.2503 19.2671 27.4717 19.2671H28.0656C28.0656 19.2671 28.8879 19.2845 28.8879 20.4653C28.8879 21.6462 28.0656 21.5958 28.0656 21.5958H27.4726C27.2503 21.5958 27.0706 21.4378 27.0706 21.2424V20.8917C27.0706 21.1634 27.3206 21.3223 27.6297 21.3223H27.8364C28.0734 21.3223 28.2653 21.2147 28.2653 20.9446V19.8575C28.2653 19.7108 28.0734 19.5415 27.8364 19.5415H27.6297C27.4656 19.5415 27.3015 19.5458 27.193 19.6691C27.1626 19.703 27.1365 19.7412 27.1148 19.7811C27.0931 19.8211 27.0706 19.8662 27.0706 19.9131V19.6205Z" fill="white"/>
<path d="M36.6824 21.4206L36.7528 21.2591L35.7447 18.9946H36.5817L37.1661 20.3083L37.7365 18.9946H38.0352L36.9195 21.563C36.8118 21.8096 36.58 21.9833 36.3108 22.0041C36.2848 22.0058 36.257 22.0076 36.2292 22.0076C36.2292 22.0076 35.8871 22.0137 35.7447 21.8704V21.5969C35.7447 21.5969 35.9114 21.7306 36.2292 21.7306C36.2292 21.7306 36.2301 21.7306 36.2318 21.7306C36.4289 21.7228 36.6034 21.6021 36.6816 21.4215L36.6824 21.4206Z" fill="white"/>
<path d="M22.2829 18.2104H21.7107L20.6783 19.7256L19.6459 18.2104H19.0737C18.8966 18.2104 18.7533 18.3537 18.7533 18.5308V21.5968H19.6459V19.0119L20.4117 20.0833H20.9457L21.7115 19.0119V21.5968H22.6041V18.5308C22.6041 18.3537 22.4609 18.2104 22.2837 18.2104H22.2829Z" fill="white"/>
<circle cx="20" cy="20" r="19.5" stroke="black" stroke-opacity="0.05"/>
</svg>
