<svg width="40" height="40" viewBox="0 0 40 40" fill="none" xmlns="http://www.w3.org/2000/svg">
<circle cx="20" cy="20" r="20" fill="#070959"/>
<path d="M33 19.78C33 24.5136 27.1797 28.3511 20 28.3511C12.8203 28.3511 7 24.5136 7 19.78C7 15.0479 12.8203 11.2104 19.9984 11.2104C27.1781 11.2104 32.9984 15.0479 32.9984 19.7815L33 19.78ZM32.0875 19.78C32.0875 15.5456 26.6758 12.1128 20 12.1128C13.3242 12.1128 7.9125 15.5464 7.9125 19.78C7.9125 24.0144 13.3242 27.4472 20 27.4472C26.6758 27.4472 32.0875 24.0151 32.0875 19.78Z" fill="white"/>
<path d="M14.1797 16.2215C13.7938 16.0614 13.3625 16.0489 12.968 16.1864C12.4774 16.3426 12.3008 17.0403 12.8313 17.2848C12.9371 17.3339 13.0472 17.3731 13.1602 17.402C13.5581 17.5061 13.943 17.6041 14.3149 17.6957C14.3187 17.6961 14.3224 17.6973 14.3257 17.6993C14.3289 17.7013 14.3317 17.7041 14.3337 17.7073C14.3358 17.7106 14.337 17.7142 14.3374 17.7181C14.3378 17.7219 14.3373 17.7257 14.336 17.7293C14.3348 17.7379 14.3348 17.7465 14.336 17.7551L11.6579 17.7731C11.6287 17.7733 11.6002 17.7647 11.5761 17.7484C11.5519 17.7321 11.5333 17.7088 11.5227 17.6817C11.0946 16.5949 11.5227 15.4723 12.6946 15.1481C13.117 15.0365 13.5567 15.0055 13.9907 15.0567C15.0516 15.166 15.8133 15.852 15.8743 16.9317C15.8746 16.936 15.874 16.9403 15.8727 16.9444C15.8713 16.9485 15.8692 16.9523 15.8663 16.9556C15.8635 16.9588 15.8601 16.9615 15.8562 16.9634C15.8523 16.9654 15.8481 16.9665 15.8438 16.9668H14.75C14.7375 16.9679 14.7251 16.964 14.7154 16.956C14.7058 16.9479 14.6997 16.9364 14.6985 16.9239C14.6321 16.5989 14.5063 16.3574 14.1797 16.2215Z" fill="white"/>
<path d="M18.4057 17.7066L17.3424 17.7332C17.3382 17.7333 17.334 17.7326 17.3301 17.7311C17.3261 17.7296 17.3225 17.7273 17.3195 17.7244C17.3165 17.7215 17.314 17.718 17.3123 17.7142C17.3106 17.7103 17.3097 17.7062 17.3096 17.702V15.2215C17.3096 15.213 17.3129 15.2048 17.319 15.1988C17.325 15.1928 17.3331 15.1895 17.3416 15.1895H18.5924C18.5981 15.1894 18.6037 15.1909 18.6087 15.1938C18.6136 15.1967 18.6177 15.2009 18.6205 15.2059L19.9697 17.6496C19.9718 17.6533 19.973 17.6573 19.9734 17.6615C19.9739 17.6657 19.9734 17.6699 19.9722 17.6739C19.971 17.6779 19.9689 17.6816 19.9662 17.6848C19.9635 17.6881 19.9602 17.6907 19.9564 17.6926C19.9518 17.6936 19.947 17.6936 19.9424 17.6926L18.9174 17.7137C18.9117 17.7137 18.906 17.7122 18.9011 17.7093C18.8961 17.7064 18.8921 17.7023 18.8893 17.6973L18.4729 16.9754C18.4683 16.9683 18.4613 16.9632 18.4532 16.9612C18.445 16.9592 18.4364 16.9603 18.4291 16.9645C18.4245 16.9674 18.4206 16.9714 18.4179 16.9762C18.4152 16.9809 18.4136 16.9863 18.4135 16.9918L18.4361 17.6707C18.4362 17.6749 18.4355 17.6791 18.434 17.683C18.4325 17.6869 18.4302 17.6905 18.4273 17.6936C18.4244 17.6966 18.4209 17.6991 18.4171 17.7008C18.4132 17.7025 18.4091 17.7034 18.4049 17.7035L18.4057 17.7066Z" fill="white"/>
<path d="M22.025 17.6501C22.025 17.6602 22.021 17.67 22.0138 17.6772C22.0066 17.6843 21.9969 17.6884 21.9867 17.6884H20.9289C20.9188 17.6884 20.909 17.6843 20.9018 17.6772C20.8947 17.67 20.8906 17.6602 20.8906 17.6501V15.2282C20.8906 15.2181 20.8947 15.2083 20.9018 15.2012C20.909 15.194 20.9188 15.1899 20.9289 15.1899H21.9867C21.9969 15.1899 22.0066 15.194 22.0138 15.2012C22.021 15.2083 22.025 15.2181 22.025 15.2282V17.6501Z" fill="white"/>
<path d="M24.7465 17.6215C24.7465 17.6321 24.7423 17.6422 24.7348 17.6497C24.7273 17.6571 24.7172 17.6613 24.7066 17.6613H23.5145C23.5039 17.6613 23.4938 17.6571 23.4863 17.6497C23.4788 17.6422 23.4746 17.6321 23.4746 17.6215V15.2293C23.4746 15.2187 23.4788 15.2086 23.4863 15.2011C23.4938 15.1937 23.5039 15.1895 23.5145 15.1895H24.7051C24.7156 15.1895 24.7258 15.1937 24.7333 15.2011C24.7407 15.2086 24.7449 15.2187 24.7449 15.2293L24.7465 17.6215Z" fill="white"/>
<path d="M28.1912 17.5923C28.1912 17.602 28.1873 17.6114 28.1805 17.6182C28.1736 17.6251 28.1642 17.629 28.1545 17.629H26.9732C26.9635 17.629 26.9542 17.6251 26.9473 17.6182C26.9404 17.6114 26.9365 17.602 26.9365 17.5923V15.2267C26.9365 15.2169 26.9404 15.2076 26.9473 15.2007C26.9542 15.1938 26.9635 15.1899 26.9732 15.1899H28.1545C28.1642 15.1899 28.1736 15.1938 28.1805 15.2007C28.1873 15.2076 28.1912 15.2169 28.1912 15.2267V17.5923Z" fill="white"/>
<path d="M29.222 18.3056L9.9978 18.1798C9.98785 18.1811 9.97774 18.1801 9.96825 18.1768C9.95876 18.1736 9.95014 18.1682 9.94305 18.1611C9.93596 18.154 9.93059 18.1454 9.92735 18.1359C9.92411 18.1264 9.92309 18.1163 9.92436 18.1064C9.92368 18.0834 9.92766 18.0606 9.93608 18.0392C9.94238 18.0202 9.95473 18.0038 9.97124 17.9925C9.98775 17.9812 10.0075 17.9757 10.0275 17.9767L29.233 17.8681C29.2535 17.8681 29.2736 17.8618 29.2905 17.8501C29.3074 17.8384 29.3203 17.8217 29.3275 17.8025C29.4189 17.5564 29.6978 17.3712 29.9455 17.5236C30.2978 17.7392 30.3525 18.447 29.9986 18.6837C29.6759 18.9001 29.3916 18.6939 29.2955 18.3556C29.2921 18.3394 29.2825 18.3251 29.2688 18.3158C29.2551 18.3065 29.2383 18.3028 29.222 18.3056Z" fill="white"/>
<path d="M15.9914 18.8082C16.2719 20.0222 15.7024 20.9214 14.5195 21.2027C13.7477 21.3855 12.6735 21.305 12.0094 20.83C11.5438 20.4946 11.2977 20.0043 11.2711 19.3589C11.27 19.3518 11.2705 19.3446 11.2726 19.3377C11.2748 19.3308 11.2785 19.3246 11.2835 19.3194C11.2885 19.3142 11.2947 19.3103 11.3015 19.308C11.3083 19.3056 11.3155 19.3049 11.3227 19.3058L12.4063 19.3011C12.4199 19.3011 12.433 19.3061 12.4431 19.3152C12.4532 19.3243 12.4596 19.3368 12.461 19.3503C12.4628 19.4768 12.4921 19.6012 12.5469 19.7152C12.9125 20.3316 13.8531 20.3097 14.4352 20.1058C14.7211 20.0074 14.9461 19.6878 14.8664 19.38C14.8039 19.1368 14.6302 18.9774 14.3453 18.9019C13.7906 18.7582 13.2099 18.6131 12.6031 18.4668C12.5836 18.4621 12.5789 18.4511 12.5899 18.4332C12.5936 18.4271 12.5989 18.4223 12.6053 18.4191C12.6116 18.4159 12.6187 18.4146 12.6258 18.4152C13.657 18.4397 14.7037 18.4592 15.7656 18.4738C15.7804 18.4734 15.795 18.4763 15.8086 18.4822C15.8221 18.4882 15.8341 18.497 15.8438 18.5082C15.9174 18.5942 15.9682 18.6973 15.9914 18.8082Z" fill="white"/>
<path d="M18.4465 21.0807C18.4465 21.095 18.4408 21.1087 18.4307 21.1188C18.4206 21.1289 18.4069 21.1346 18.3926 21.1346H17.3613C17.347 21.1346 17.3333 21.1289 17.3232 21.1188C17.3131 21.1087 17.3074 21.095 17.3074 21.0807L17.3027 18.5666C17.3027 18.5523 17.3084 18.5386 17.3185 18.5285C17.3286 18.5184 17.3423 18.5127 17.3566 18.5127H18.3879C18.4022 18.5127 18.4159 18.5184 18.426 18.5285C18.4361 18.5386 18.4418 18.5523 18.4418 18.5666L18.4465 21.0807Z" fill="white"/>
<path d="M20.9173 18.5723L22.0009 18.5832C22.0077 18.5832 22.0143 18.5859 22.0191 18.5908C22.024 18.5956 22.0267 18.6021 22.0267 18.609V21.109C22.0267 21.1124 22.026 21.1157 22.0247 21.1189C22.0234 21.122 22.0215 21.1248 22.0191 21.1272C22.0167 21.1296 22.0139 21.1315 22.0108 21.1328C22.0076 21.1341 22.0043 21.1348 22.0009 21.1348L20.829 21.1441C20.8243 21.1442 20.8196 21.143 20.8155 21.1407C20.8114 21.1384 20.808 21.135 20.8056 21.1309L19.3861 18.5863C19.3844 18.5834 19.3834 18.5801 19.383 18.5767C19.3826 18.5733 19.3829 18.5699 19.3838 18.5666C19.3848 18.5634 19.3864 18.5603 19.3885 18.5577C19.3906 18.555 19.3932 18.5528 19.3962 18.5512C19.4003 18.55 19.4046 18.55 19.4087 18.5512L20.4892 18.566C20.4938 18.5659 20.4984 18.5671 20.5024 18.5694C20.5064 18.5718 20.5097 18.5752 20.5118 18.5793L20.8447 19.2121C20.8463 19.2151 20.8485 19.2177 20.8512 19.2199C20.8538 19.222 20.8569 19.2236 20.8601 19.2245C20.8634 19.2255 20.8668 19.2257 20.8702 19.2254C20.8736 19.225 20.8768 19.2239 20.8798 19.2223C20.8838 19.22 20.8871 19.2167 20.8895 19.2127C20.8918 19.2087 20.893 19.2042 20.8931 19.1996V18.6043C20.8931 18.5975 20.8958 18.5909 20.9006 18.5861C20.9055 18.5812 20.912 18.5785 20.9189 18.5785L20.9173 18.5723Z" fill="white"/>
<path d="M26.1182 20.1705C26.8893 20.058 26.9776 19.3705 26.933 18.74C26.9319 18.7261 26.9364 18.7122 26.9455 18.7015C26.9546 18.6909 26.9675 18.6842 26.9815 18.683H26.9869L28.1588 18.7057C28.1622 18.7053 28.1657 18.7057 28.1689 18.7068C28.1721 18.708 28.1751 18.7098 28.1775 18.7122C28.18 18.7145 28.1819 18.7174 28.1831 18.7206C28.1843 18.7238 28.1848 18.7273 28.1846 18.7307C28.2674 20.0479 27.7713 21.0463 26.3799 21.2486C25.5205 21.3729 24.544 21.2291 23.958 20.5729C23.4893 20.0525 23.4791 19.3955 23.4737 18.6791C23.4734 18.6712 23.4748 18.6633 23.4777 18.6559C23.4806 18.6485 23.4849 18.6418 23.4905 18.6361C23.496 18.6304 23.5026 18.6259 23.5099 18.6228C23.5172 18.6197 23.5251 18.6182 23.533 18.6182L24.7049 18.633C24.7164 18.6332 24.7273 18.6379 24.7353 18.6461C24.7434 18.6543 24.7479 18.6653 24.7479 18.6768C24.7479 18.9221 24.7338 19.1775 24.7916 19.4119C24.9437 20.0218 25.3859 20.2747 26.1182 20.1705Z" fill="white"/>
<path d="M22.2346 23.8892C22.2265 23.8666 22.213 23.8462 22.1953 23.8299C22.1777 23.8136 22.1563 23.8018 22.133 23.7955C21.8674 23.7257 21.6083 23.6541 21.3557 23.5806C21.2443 23.5534 21.145 23.4901 21.0731 23.4008C21.0012 23.3114 20.9608 23.2008 20.958 23.0861C20.9367 22.6908 21.1107 22.4473 21.4799 22.3556C22.0018 22.2252 22.5284 22.3924 22.6455 22.9806C22.6468 22.9873 22.6467 22.9942 22.6453 23.0008C22.6439 23.0074 22.6412 23.0137 22.6373 23.0193C22.6335 23.0249 22.6286 23.0297 22.6229 23.0334C22.6172 23.037 22.6108 23.0396 22.6041 23.0408H22.5971L22.2846 23.0564C22.2643 23.0571 22.2443 23.0517 22.2271 23.0408C22.21 23.0299 22.1965 23.0141 22.1885 22.9955C22.0937 22.7679 21.9114 22.6817 21.6416 22.7369C21.4182 22.7814 21.2596 23.0736 21.5377 23.1634C21.7461 23.2306 21.9622 23.2895 22.1862 23.34C22.5159 23.4181 22.733 23.6228 22.7104 23.9783C22.669 24.5627 22.1221 24.6869 21.6252 24.6338C21.2573 24.5939 20.8955 24.3377 20.9323 23.9408C20.932 23.935 20.933 23.9292 20.9352 23.9239C20.9374 23.9185 20.9407 23.9137 20.9449 23.9098C20.9492 23.9058 20.9542 23.9029 20.9597 23.9011C20.9652 23.8993 20.971 23.8987 20.9768 23.8994H21.2893C21.3062 23.8984 21.323 23.903 21.3371 23.9125C21.3512 23.9219 21.3618 23.9357 21.3674 23.9517C21.4773 24.2262 21.7062 24.314 22.0541 24.215C22.2323 24.1642 22.294 24.0556 22.2346 23.8892Z" fill="white"/>
<path d="M26.2084 23.7056C26.2084 23.9542 26.1096 24.1927 25.9338 24.3685C25.758 24.5443 25.5195 24.6431 25.2709 24.6431H25.1006C24.8519 24.6431 24.6135 24.5443 24.4377 24.3685C24.2619 24.1927 24.1631 23.9542 24.1631 23.7056V23.2681C24.1631 23.0194 24.2619 22.781 24.4377 22.6052C24.6135 22.4293 24.8519 22.3306 25.1006 22.3306H25.2709C25.5195 22.3306 25.758 22.4293 25.9338 22.6052C26.1096 22.781 26.2084 23.0194 26.2084 23.2681V23.7056ZM25.1818 24.2524C25.5021 24.2524 25.7631 23.9142 25.7654 23.4931C25.7678 23.072 25.51 22.729 25.1896 22.7274C24.8693 22.7274 24.6084 23.0657 24.6061 23.4868C24.6037 23.9079 24.8615 24.2509 25.1818 24.2524Z" fill="white"/>
<path d="M18.1243 23.9449C18.1517 24.0118 18.1944 24.0714 18.249 24.1189C18.3036 24.1664 18.3686 24.2004 18.4387 24.2181C18.5089 24.2359 18.5822 24.237 18.6528 24.2213C18.7234 24.2056 18.7894 24.1735 18.8454 24.1277C18.9321 24.0558 18.9594 23.9574 19.0134 23.8628C19.0202 23.8506 19.0302 23.8405 19.0423 23.8335C19.0544 23.8265 19.0681 23.8229 19.0821 23.823H19.4329C19.4751 23.823 19.4907 23.8433 19.4805 23.8839C19.3279 24.4667 18.9503 24.7162 18.3477 24.6324C17.9665 24.58 17.6696 24.2574 17.5954 23.8824C17.4391 23.1011 17.7071 22.2745 18.6579 22.3363C19.0969 22.3654 19.3748 22.6024 19.4915 23.0472C19.4953 23.0621 19.4931 23.0779 19.4853 23.0912C19.4776 23.1045 19.4649 23.1143 19.4501 23.1183H19.436H19.0962C19.0741 23.1183 19.0526 23.1115 19.0344 23.099C19.0163 23.0864 19.0024 23.0686 18.9946 23.048C18.9713 22.966 18.923 22.8933 18.8565 22.84C18.79 22.7867 18.7086 22.7553 18.6235 22.7503C17.9891 22.7035 17.9493 23.5402 18.1243 23.9449Z" fill="white"/>
<path d="M11.7173 23.8666L11.7314 24.5268C11.7325 24.5343 11.7319 24.542 11.7296 24.5493C11.7273 24.5565 11.7233 24.5632 11.718 24.5687C11.7127 24.5742 11.7063 24.5784 11.6991 24.581C11.692 24.5836 11.6843 24.5846 11.6767 24.5838L11.3291 24.5932C11.3204 24.5946 11.3114 24.594 11.303 24.5913C11.2946 24.5887 11.2869 24.5841 11.2806 24.5779C11.2743 24.5718 11.2695 24.5642 11.2667 24.5559C11.2638 24.5475 11.263 24.5386 11.2642 24.5299V22.4291C11.2642 22.4171 11.269 22.4056 11.2775 22.3971C11.286 22.3886 11.2975 22.3838 11.3095 22.3838C11.6179 22.3838 11.94 22.3838 12.2759 22.3838C13.0205 22.3838 13.1236 23.4596 12.5603 23.7408C12.3353 23.8533 12.0259 23.8018 11.7744 23.8104C11.7667 23.8095 11.759 23.8104 11.7518 23.8129C11.7445 23.8154 11.7379 23.8195 11.7324 23.8249C11.727 23.8303 11.7228 23.8368 11.7202 23.844C11.7176 23.8513 11.7166 23.859 11.7173 23.8666ZM11.7173 22.8611V23.3299C11.7173 23.3521 11.7261 23.3733 11.7418 23.389C11.7575 23.4047 11.7788 23.4135 11.8009 23.4135H12.1462C12.1838 23.4153 12.2213 23.4095 12.2566 23.3967C12.2919 23.3838 12.3242 23.364 12.3518 23.3385C12.3794 23.3129 12.4016 23.2822 12.4171 23.248C12.4327 23.2138 12.4412 23.1768 12.4423 23.1393V23.0502C12.4397 22.9753 12.4074 22.9045 12.3526 22.8534C12.2979 22.8023 12.225 22.775 12.1501 22.7775H11.8048C11.7827 22.7775 11.7614 22.7863 11.7457 22.802C11.7301 22.8177 11.7212 22.839 11.7212 22.8611H11.7173Z" fill="white"/>
<path d="M14.8484 23.5591L14.9937 23.7294C15.0095 23.7477 15.0186 23.7709 15.0195 23.795L15.0421 24.3568C15.0428 24.384 15.0498 24.4107 15.0624 24.4349L15.1116 24.5286C15.132 24.5677 15.1202 24.5872 15.0765 24.588L14.6491 24.5927C14.6402 24.594 14.6312 24.5933 14.6226 24.5907C14.614 24.588 14.6061 24.5834 14.5996 24.5772C14.593 24.571 14.588 24.5634 14.5848 24.555C14.5816 24.5466 14.5804 24.5376 14.5812 24.5286L14.5609 24.0052C14.5638 23.9699 14.5589 23.9345 14.5466 23.9013C14.5343 23.8681 14.5149 23.838 14.4897 23.8131C14.4645 23.7882 14.4342 23.7692 14.4009 23.7573C14.3676 23.7454 14.332 23.7409 14.2968 23.7443L13.9007 23.7333C13.8848 23.7304 13.8685 23.7313 13.8531 23.7359C13.8376 23.7406 13.8235 23.7489 13.812 23.7602C13.8004 23.7714 13.7917 23.7853 13.7866 23.8006C13.7816 23.8159 13.7802 23.8322 13.7827 23.8482V24.5708C13.7831 24.5734 13.7829 24.576 13.7821 24.5784C13.7813 24.5809 13.78 24.5831 13.7781 24.585C13.7763 24.5868 13.7741 24.5882 13.7716 24.589C13.7692 24.5898 13.7665 24.59 13.764 24.5896H13.3413C13.3356 24.5896 13.33 24.5874 13.3258 24.5835C13.3216 24.5796 13.3191 24.5742 13.3187 24.5685V22.4247C13.3179 22.4187 13.3185 22.4126 13.3205 22.4068C13.3225 22.4011 13.3257 22.3959 13.33 22.3916C13.3343 22.3873 13.3396 22.384 13.3453 22.382C13.3511 22.3801 13.3572 22.3794 13.3632 22.3802C13.7679 22.3802 14.1301 22.3802 14.4499 22.3802C14.7905 22.3833 14.9989 22.5417 15.0749 22.8552C15.1411 23.1255 15.0682 23.3375 14.8562 23.4911C14.8499 23.494 14.8444 23.4984 14.8404 23.504C14.8363 23.5095 14.8338 23.5161 14.833 23.5229C14.8322 23.5298 14.8332 23.5367 14.8359 23.543C14.8386 23.5494 14.8429 23.5549 14.8484 23.5591ZM13.7827 22.8404L13.7874 23.3013C13.7874 23.3092 13.789 23.3171 13.7921 23.3244C13.7952 23.3317 13.7997 23.3383 13.8054 23.3438C13.811 23.3494 13.8178 23.3537 13.8252 23.3566C13.8325 23.3595 13.8404 23.3609 13.8484 23.3607L14.3218 23.3552C14.4898 23.3552 14.6241 23.2372 14.6226 23.0958V23.0271C14.6226 22.8857 14.4843 22.7724 14.3163 22.7739L13.8429 22.7794C13.835 22.7794 13.8271 22.781 13.8198 22.7841C13.8125 22.7872 13.8059 22.7917 13.8003 22.7974C13.7948 22.803 13.7905 22.8098 13.7876 22.8172C13.7847 22.8245 13.7833 22.8324 13.7835 22.8404H13.7827Z" fill="white"/>
<path d="M16.0971 23.2455L17.0408 23.2393C17.0547 23.2393 17.068 23.2448 17.0778 23.2546C17.0876 23.2644 17.0932 23.2777 17.0932 23.2916L17.0861 23.5893C17.086 23.5961 17.0846 23.6028 17.0818 23.6091C17.0791 23.6154 17.0751 23.621 17.0702 23.6258C17.0653 23.6305 17.0594 23.6342 17.053 23.6366C17.0467 23.6391 17.0398 23.6402 17.033 23.64L16.0955 23.6252C16.0886 23.6251 16.0818 23.6263 16.0754 23.6289C16.069 23.6314 16.0632 23.6352 16.0583 23.64C16.0533 23.6448 16.0494 23.6505 16.0467 23.6568C16.0439 23.6631 16.0425 23.6699 16.0424 23.6768V24.1455C16.0424 24.1594 16.0479 24.1727 16.0577 24.1825C16.0675 24.1923 16.0808 24.1979 16.0947 24.1979H17.1947C17.2016 24.198 17.2084 24.1994 17.2147 24.2021C17.221 24.2049 17.2267 24.2088 17.2315 24.2137C17.2363 24.2187 17.2401 24.2245 17.2426 24.2309C17.2451 24.2373 17.2464 24.2441 17.2463 24.251L17.24 24.5354C17.2396 24.549 17.2339 24.5619 17.2242 24.5714C17.2144 24.5808 17.2013 24.5861 17.1877 24.5861H15.6432C15.6293 24.5861 15.616 24.5806 15.6062 24.5708C15.5963 24.561 15.5908 24.5477 15.5908 24.5338V22.4361C15.5908 22.4223 15.5963 22.4089 15.6062 22.3991C15.616 22.3893 15.6293 22.3838 15.6432 22.3838H17.1361C17.15 22.3838 17.1633 22.3893 17.1731 22.3991C17.183 22.4089 17.1885 22.4223 17.1885 22.4361L17.1854 22.733C17.1849 22.7466 17.1793 22.7595 17.1695 22.769C17.1597 22.7785 17.1466 22.7838 17.133 22.7838L16.0986 22.7721C16.0918 22.772 16.0849 22.7732 16.0785 22.7758C16.0722 22.7783 16.0663 22.7821 16.0614 22.7868C16.0565 22.7916 16.0525 22.7973 16.0498 22.8037C16.0471 22.81 16.0456 22.8168 16.0455 22.8236V23.1924C16.0455 23.2063 16.051 23.2196 16.0608 23.2294C16.0707 23.2392 16.084 23.2447 16.0979 23.2447L16.0971 23.2455Z" fill="white"/>
<path d="M20.4295 24.538C20.4295 24.5531 20.4235 24.5676 20.4128 24.5783C20.4021 24.589 20.3876 24.595 20.3725 24.595H20.0209C20.0058 24.595 19.9913 24.589 19.9806 24.5783C19.9699 24.5676 19.9639 24.5531 19.9639 24.538V22.4364C19.9639 22.4213 19.9699 22.4068 19.9806 22.3961C19.9913 22.3854 20.0058 22.3794 20.0209 22.3794H20.3725C20.3876 22.3794 20.4021 22.3854 20.4128 22.3961C20.4235 22.4068 20.4295 22.4213 20.4295 22.4364V24.538Z" fill="white"/>
<path d="M23.6838 24.5542C23.6836 24.5638 23.6796 24.5729 23.6728 24.5797C23.6659 24.5864 23.6567 24.5901 23.6471 24.5901H23.2564C23.2466 24.5899 23.2373 24.5859 23.2304 24.5789C23.2236 24.5719 23.2197 24.5624 23.2197 24.5526V22.4183C23.2199 22.4087 23.2239 22.3995 23.2308 22.3928C23.2376 22.3861 23.2468 22.3823 23.2564 22.3823H23.6471C23.6569 22.3825 23.6662 22.3866 23.6731 22.3936C23.6799 22.4006 23.6838 22.41 23.6838 22.4198V24.5542Z" fill="white"/>
<path d="M27.9918 22.3855H28.391C28.3974 22.3855 28.4036 22.3881 28.4081 22.3926C28.4127 22.3972 28.4152 22.4033 28.4152 22.4098V24.5668C28.4152 24.5732 28.4127 24.5794 28.4081 24.5839C28.4036 24.5885 28.3974 24.591 28.391 24.591H27.9566C27.9523 24.5911 27.9481 24.5899 27.9443 24.5877C27.9406 24.5855 27.9376 24.5823 27.9355 24.5785L27.1254 23.1152C27.1223 23.1097 27.1171 23.1055 27.1109 23.1038C27.1048 23.102 27.0982 23.1028 27.0926 23.1059C27.0889 23.108 27.0858 23.1111 27.0836 23.1148C27.0814 23.1185 27.0802 23.1227 27.0801 23.127L27.0754 24.5754C27.0754 24.5818 27.0728 24.588 27.0683 24.5925C27.0638 24.5971 27.0576 24.5996 27.0512 24.5996L26.6801 24.5848C26.6738 24.5846 26.6678 24.5819 26.6635 24.5774C26.6591 24.5729 26.6566 24.5668 26.6566 24.5605L26.6504 22.4152C26.6504 22.4089 26.6528 22.4029 26.6572 22.3984C26.6616 22.3939 26.6675 22.3912 26.6738 22.391L27.1285 22.377C27.1329 22.3769 27.1373 22.3781 27.1411 22.3802C27.145 22.3824 27.1482 22.3856 27.1504 22.3895L27.9277 23.7957C27.9309 23.8013 27.9361 23.8054 27.9422 23.8072C27.9484 23.8089 27.9549 23.8082 27.9605 23.8051C27.9643 23.8029 27.9674 23.7999 27.9696 23.7962C27.9717 23.7925 27.9729 23.7883 27.973 23.784V22.4121C27.9723 22.4061 27.9738 22.4001 27.9773 22.3952C27.9808 22.3903 27.9859 22.3869 27.9918 22.3855Z" fill="white"/>
<circle cx="20" cy="20" r="19.5" stroke="black" stroke-opacity="0.05"/>
</svg>
