<svg width="40" height="40" viewBox="0 0 40 40" fill="none" xmlns="http://www.w3.org/2000/svg">
<ellipse cx="20" cy="19.9168" rx="20" ry="19.9168" fill="#F6F8FA"/>
<path d="M17.8603 12.0858L12.9825 20.157C12.9773 20.1651 12.9702 20.1718 12.9618 20.1765C12.9533 20.1811 12.9438 20.1835 12.9342 20.1835C12.9246 20.1835 12.9151 20.1811 12.9066 20.1765C12.8982 20.1718 12.8911 20.1651 12.886 20.157L8.00807 12.0858C8.00293 12.0772 8.00015 12.0675 8.00001 12.0575C7.99986 12.0475 8.00236 12.0377 8.00726 12.0289C8.01215 12.0202 8.01926 12.013 8.02787 12.0079C8.03649 12.0028 8.0463 12 8.05632 11.9999H17.8121C17.8221 12 17.8319 12.0028 17.8405 12.0079C17.8492 12.013 17.8563 12.0202 17.8612 12.0289C17.866 12.0377 17.8685 12.0475 17.8684 12.0575C17.8683 12.0675 17.8655 12.0772 17.8603 12.0858Z" fill="#009B63"/>
<path d="M9.8194 27.8362L19.3807 12.0243C19.3851 12.017 19.3913 12.011 19.3987 12.007C19.4062 12.0029 19.4146 12.0008 19.4231 12.001H27.2619C27.2704 12.0011 27.2788 12.0034 27.2861 12.0077C27.2934 12.012 27.2994 12.0182 27.3036 12.0256C27.3078 12.033 27.3099 12.0413 27.3097 12.0498C27.3096 12.0582 27.3072 12.0665 27.3029 12.0738L17.7401 27.8857C17.7357 27.893 17.7295 27.8989 17.7221 27.903C17.7146 27.9071 17.7062 27.9092 17.6977 27.909H9.86034C9.85183 27.9089 9.8435 27.9066 9.83617 27.9023C9.82885 27.898 9.82281 27.8918 9.81865 27.8844C9.8145 27.877 9.81237 27.8687 9.81251 27.8602C9.81264 27.8518 9.81501 27.8435 9.8194 27.8362Z" fill="#00573D"/>
<path d="M31.9921 20.0172L27.1142 27.8845C27.1095 27.8922 27.1028 27.8985 27.0948 27.9028C27.0869 27.9072 27.078 27.9094 27.0689 27.9093H19.486C19.4768 27.9092 19.4677 27.9068 19.4597 27.9022C19.4518 27.8976 19.4452 27.8909 19.4406 27.883C19.436 27.875 19.4336 27.866 19.4336 27.8568C19.4336 27.8476 19.436 27.8386 19.4406 27.8307L24.0773 19.9633C24.0819 19.9554 24.0885 19.9488 24.0964 19.9442C24.1044 19.9396 24.1134 19.9371 24.1226 19.9371H31.9468C31.9562 19.937 31.9655 19.9394 31.9737 19.9441C31.9819 19.9488 31.9886 19.9556 31.9933 19.9638C31.9979 19.9719 32.0002 19.9812 32 19.9906C31.9998 20 31.9971 20.0092 31.9921 20.0172Z" fill="#009B63"/>
<path d="M20 0.5C30.7715 0.5 39.5 9.19535 39.5 19.917C39.4999 30.6385 30.7715 39.334 20 39.334C9.22854 39.334 0.500106 30.6385 0.5 19.917C0.5 9.19535 9.22848 0.5 20 0.5Z" stroke="black" stroke-opacity="0.05"/>
</svg>
