<svg width="40" height="40" viewBox="0 0 40 40" fill="none" xmlns="http://www.w3.org/2000/svg">
<circle cx="20" cy="20" r="20" fill="#F6F8FA"/>
<path d="M17.2473 18.1469C16.8735 17.8077 16.2516 17.64 15.3817 17.64C14.4352 17.64 13.6292 17.8734 13 18.3421C12.3708 18.8107 11.9988 19.4417 11.8475 20.2332C11.6961 21.0356 11.9204 21.6539 12.411 22.0897C12.9015 22.5237 13.6292 22.7426 14.7015 22.7426C15.8139 22.7426 17.0394 22.3213 17.0394 22.3213L17.3021 21.0885H17.1142C17.1142 21.0885 16.4814 21.6593 15.0845 21.6593C14.5137 21.6593 14.0997 21.559 13.848 21.3584C13.5945 21.1578 13.4924 20.8679 13.5416 20.4867C13.8754 20.7147 14.169 20.8296 14.7799 20.8551C15.5057 20.8861 16.3264 20.7092 16.8005 20.4539C17.2765 20.1986 17.572 19.8302 17.6741 19.3724C17.7634 18.8928 17.6212 18.4861 17.2473 18.1469ZM15.969 19.3706C15.9051 19.6095 15.7775 19.7682 15.586 19.8429C15.3945 19.9195 15.1355 19.9743 14.8054 19.9797C14.4735 19.9852 14.169 19.9214 14.0049 19.8429C13.8134 19.7499 13.7477 19.553 13.7733 19.4034C13.8134 19.1737 13.9556 19.0077 14.1982 18.8545C14.4389 18.7013 14.7234 18.6247 15.0535 18.6247C15.4091 18.6247 15.6608 18.6867 15.8066 18.8108C15.9544 18.9348 16.0072 19.1226 15.969 19.3706Z" fill="#154E87"/>
<path d="M21.4985 18.6539C22.4961 18.787 22.9192 19.3031 22.9192 19.3031H23.0943L23.3605 18.0831C23.2091 17.9901 23.0067 17.8971 22.631 17.8059C22.2554 17.7147 21.856 17.6582 21.4329 17.6381C20.5375 17.5962 19.8062 17.7183 19.2372 18.0047C18.6664 18.2928 18.3399 18.6703 18.2579 19.139C18.1941 19.5037 18.2652 19.801 18.4877 20.0526C18.7083 20.3043 19.0822 20.4994 19.6092 20.6362C19.8007 20.6873 20.0177 20.7329 20.2584 20.7748C20.4973 20.8149 20.687 20.8514 20.8274 20.8824C21.1192 20.9444 21.3143 21.0028 21.411 21.0611C21.5095 21.1177 21.5715 21.2089 21.5168 21.3402C21.5168 21.3402 21.3946 21.7961 20.1089 21.7268C18.6974 21.6502 18.3436 21.1104 18.3436 21.1104H18.174L17.9424 22.3158C18.1576 22.4143 18.4184 22.5091 18.7867 22.5967C19.1533 22.6842 19.5563 22.7334 20.0378 22.7462C20.9095 22.7681 21.6335 22.6386 22.2116 22.3578C22.7879 22.0769 23.1216 21.7231 23.2091 21.218C23.2693 20.8733 23.2055 20.5815 23.0067 20.339C22.8061 20.0982 22.4614 19.914 21.9745 19.7846C21.7539 19.728 21.535 19.6788 21.3143 19.6369C21.0919 19.5967 20.8876 19.5566 20.698 19.5147C20.3515 19.4381 20.1363 19.3688 20.0524 19.3031C19.9667 19.2375 19.9338 19.1463 19.9557 19.0314C19.9539 19.0277 19.9849 18.4515 21.4985 18.6539Z" fill="#154E87"/>
<path d="M11.6765 17.8023H9.88197L9.31298 20.319C9.31298 20.319 9.03031 21.4205 8.02182 21.4205C6.97321 21.4205 7.17929 20.4029 7.17929 20.4029L7.65709 17.8023H5.89907L5.4778 19.7974C5.31002 20.6016 5.42856 21.2326 5.83706 21.6886C6.24557 22.1445 6.93127 22.3633 7.80481 22.3633C7.80481 22.3633 8.41027 22.3414 8.97561 22.0168C8.97378 22.0223 8.97013 22.0259 8.96831 22.0314C8.96831 22.0314 8.69658 22.9578 7.28323 23.1019C6.16897 23.215 5.64193 22.7809 5.55804 22.6587H5.38297L5 23.8387C5 23.8387 5.98843 24.3584 7.36895 24.3092C8.86253 24.2563 10.3889 23.4411 10.8339 21.5481L11.6765 17.8023Z" fill="#154E87"/>
<path d="M28.3484 17.7877C28.0548 17.7166 27.7283 17.6819 27.3636 17.6819C26.9569 17.6819 26.5557 17.7294 26.1581 17.8242C25.7624 17.919 25.3977 18.0667 25.0639 18.2692C24.7211 18.4825 24.4293 18.7524 24.1922 19.0807C23.9551 19.4053 23.7874 19.7938 23.6889 20.2424C23.5977 20.6673 23.5941 21.0411 23.6816 21.3566C23.7673 21.6758 23.9296 21.9384 24.1649 22.1463C24.4056 22.356 24.7065 22.511 25.0712 22.6095C25.4341 22.7116 25.8499 22.7609 26.315 22.7609C26.6706 22.7609 27.0007 22.728 27.3089 22.6606C27.6171 22.5931 27.9162 22.5019 28.1569 22.387L28.4432 21.0703H28.2535C28.1715 21.1305 28.0821 21.1925 27.9873 21.2582C27.8906 21.322 27.783 21.3822 27.6627 21.4405C27.535 21.5007 27.3818 21.5536 27.1995 21.5992C27.0153 21.6448 26.8183 21.6648 26.6031 21.6648C26.1417 21.6648 25.8098 21.5445 25.611 21.3038C25.4123 21.0612 25.3612 20.7092 25.4633 20.2424C25.5618 19.7901 25.7624 19.4345 26.0651 19.1701C26.3679 18.9075 26.7472 18.7761 27.2031 18.7761C27.4074 18.7761 27.5843 18.7962 27.7302 18.8382C27.876 18.8801 28.0073 18.933 28.1222 18.995C28.2444 19.0625 28.3447 19.1299 28.4231 19.1974C28.5016 19.2667 28.5672 19.3269 28.6237 19.3798H28.8116L29.0961 18.0649C28.9064 17.9518 28.6402 17.8588 28.3484 17.7877Z" fill="#154E87"/>
<path d="M34.5695 18.3531C34.161 17.8971 33.4917 17.6692 32.5616 17.6692C31.6461 17.6692 30.8802 17.8953 30.2692 18.3494C29.6565 18.8035 29.2626 19.4272 29.0912 20.2223C28.9197 21.012 29.0401 21.6339 29.4522 22.0898C29.8626 22.5439 30.5319 22.7718 31.4546 22.7718C32.3774 22.7718 33.1434 22.5439 33.7525 22.0898C34.3616 21.6339 34.7518 21.012 34.9233 20.2223C35.0965 19.4327 34.978 18.809 34.5695 18.3531ZM33.1507 20.2314C33.0832 20.5378 33.0066 20.7767 32.9136 20.9482C32.8206 21.1214 32.7057 21.2691 32.5689 21.3913C32.4467 21.5025 32.3099 21.581 32.1586 21.6284C32.009 21.674 31.8558 21.6977 31.7008 21.6977C31.5221 21.6977 31.3653 21.6721 31.2376 21.6211C31.1081 21.57 31.006 21.488 30.9276 21.3767C30.8474 21.26 30.8036 21.105 30.7908 20.9135C30.7781 20.722 30.7999 20.4941 30.8583 20.2314C30.9221 19.9378 31.006 19.6935 31.1118 19.5002C31.2157 19.3068 31.3306 19.1537 31.4583 19.0424C31.6024 18.9239 31.7391 18.8436 31.8777 18.8035C32.0127 18.7634 32.164 18.7433 32.3263 18.7433C32.4905 18.7433 32.6382 18.767 32.7713 18.8163C32.9026 18.8637 33.0066 18.9476 33.0814 19.0643C33.1579 19.1774 33.2035 19.3306 33.2199 19.522C33.2364 19.7117 33.2127 19.9488 33.1507 20.2314Z" fill="#154E87"/>
<path d="M23.7256 18.4898C23.7657 18.1506 23.8697 17.6728 23.9882 17.3464C24.1304 16.9525 24.2016 16.4838 24.5499 15.9987C24.9821 15.395 25.7207 15.7525 25.5274 16.3762C25.345 16.967 24.7924 17.5743 24.4842 17.9755C24.3529 18.147 23.6727 18.9439 23.7256 18.4898Z" fill="#ED193A"/>
<circle cx="20" cy="20" r="19.5" stroke="black" stroke-opacity="0.05"/>
</svg>
