<svg width="41" height="41" viewBox="0 0 41 41" fill="none" xmlns="http://www.w3.org/2000/svg">
<circle cx="20.3414" cy="20.3057" r="20.3057" fill="#003B7A"/>
<path fill-rule="evenodd" clip-rule="evenodd" d="M14.6827 28.2788C18.847 28.2788 22.2228 24.903 22.2228 20.7387C22.2228 16.5745 18.847 13.1987 14.6827 13.1987C10.5185 13.1987 7.14268 16.5745 7.14268 20.7387C7.14268 24.903 10.5185 28.2788 14.6827 28.2788ZM14.6827 24.7857C16.9178 24.7857 18.7297 22.9738 18.7297 20.7387C18.7297 18.5037 16.9178 16.6918 14.6827 16.6918C12.4477 16.6918 10.6358 18.5037 10.6358 20.7387C10.6358 22.9738 12.4477 24.7857 14.6827 24.7857Z" fill="white"/>
<path d="M25.2026 13.9039C24.8731 13.9845 24.5752 14.1396 24.3089 14.3691C23.9806 14.6516 23.7389 14.9768 23.5835 15.3446C23.5441 15.438 23.5131 15.5346 23.4909 15.6343C23.3623 16.2142 23.406 16.7731 23.6222 17.3107C23.7042 17.5154 23.8232 17.7006 23.9345 17.8889C24.0152 18.0258 24.1123 18.1584 24.2262 18.2871C24.3725 18.4521 24.4568 18.5483 24.4795 18.5756C24.726 18.8701 24.9538 19.1138 25.2662 19.4764" fill="white"/>
<path d="M25.2662 19.4759C25.2813 19.4742 25.2856 19.4643 25.2796 19.4464C25.2748 19.4327 25.2679 19.4205 25.2589 19.4094C25.252 19.4012 25.2537 19.3955 25.264 19.3924C25.2833 19.3862 25.2966 19.3714 25.3037 19.3478C25.3069 19.3379 25.3134 19.3316 25.3233 19.3291C25.3585 19.3203 25.3867 19.301 25.4077 19.2714C25.4122 19.2649 25.4131 19.2564 25.4099 19.2487C25.4037 19.2337 25.4051 19.22 25.4142 19.2072C25.4168 19.2035 25.4216 19.2027 25.425 19.2053C25.4256 19.2055 25.4261 19.2061 25.4267 19.2067C25.4287 19.2092 25.4315 19.2106 25.4347 19.2109C25.4435 19.2115 25.4491 19.2075 25.4517 19.1993C25.4602 19.1729 25.4772 19.1524 25.5028 19.1385C25.5076 19.1357 25.5116 19.1317 25.5139 19.1269C25.5255 19.103 25.5397 19.0809 25.5568 19.0601C25.5707 19.0428 25.5812 19.0238 25.5877 19.003C25.5971 18.9735 25.6087 18.9448 25.6227 18.9167C25.6235 18.9147 25.6252 18.9136 25.6275 18.9133C25.6292 18.913 25.6306 18.9133 25.632 18.9144C25.6357 18.9178 25.6369 18.9173 25.6352 18.9125C25.6315 18.9019 25.6346 18.8946 25.6445 18.89C25.6528 18.8863 25.6587 18.8789 25.6613 18.8704C25.6638 18.861 25.6644 18.8517 25.6633 18.8423C25.6621 18.8329 25.6641 18.8233 25.6687 18.8148C25.7067 18.7457 25.7357 18.6722 25.7553 18.5944C25.7664 18.5501 25.7814 18.5078 25.8002 18.4677C25.805 18.4572 25.8058 18.4467 25.8024 18.4359C25.8007 18.4308 25.801 18.426 25.8036 18.4214C25.8067 18.416 25.809 18.4101 25.8109 18.4035C25.8328 18.3283 25.8493 18.2502 25.8604 18.1692C25.8615 18.1599 25.8652 18.1516 25.8712 18.1442C25.8797 18.134 25.8831 18.1224 25.8814 18.1096C25.8805 18.1014 25.8822 18.0937 25.8871 18.0869C25.9007 18.067 25.9084 18.046 25.9098 18.0238C25.9129 17.9798 25.9302 17.9335 25.939 17.8912C25.9399 17.8872 25.9393 17.8833 25.9376 17.8796C25.9342 17.8719 25.9333 17.8642 25.9348 17.856C25.9447 17.8 25.9535 17.7424 25.9612 17.6833C25.968 17.6314 25.9819 17.5728 26.0032 17.5084C26.041 17.3939 26.0779 17.2803 26.114 17.1682C26.1248 17.1349 26.1358 17.102 26.1475 17.0693C26.1605 17.0327 26.1702 16.9955 26.1762 16.958C26.177 16.9523 26.1804 16.9475 26.185 16.9447C26.1912 16.941 26.1946 16.9359 26.1949 16.9296C26.198 16.883 26.2031 16.8367 26.2102 16.791C26.2122 16.7782 26.2117 16.7592 26.2083 16.7345C26.2057 16.7149 26.2074 16.6953 26.2134 16.6751C26.2159 16.6661 26.2165 16.6567 26.2151 16.6473C26.2057 16.5931 26.2014 16.5533 26.2017 16.5283C26.2029 16.4386 26.2034 16.348 26.2031 16.2565C26.2031 16.2551 26.2006 16.2352 26.1952 16.1975C26.1921 16.1756 26.1958 16.1546 26.2057 16.1344C26.2105 16.1248 26.2105 16.1134 26.206 16.1037C26.1858 16.0629 26.175 16.0174 26.1742 15.9671C26.1733 15.9203 26.1693 15.8731 26.1625 15.8263C26.1549 15.7737 26.1486 15.7218 26.1441 15.6704C26.1407 15.6326 26.1338 15.5906 26.1239 15.5443C26.1145 15.502 26.1128 15.4585 26.1185 15.4139C26.1199 15.404 26.1168 15.3952 26.1097 15.3881C26.0961 15.3744 26.0915 15.3583 26.0964 15.3398C26.0986 15.3307 26.0966 15.3299 26.0907 15.337C26.0893 15.3389 26.0867 15.3387 26.0836 15.3364C26.0807 15.3344 26.0802 15.3318 26.0822 15.329C26.1012 15.2989 26.0998 15.2699 26.0779 15.2418C26.0742 15.2376 26.0717 15.2325 26.0697 15.2271C26.0671 15.2188 26.068 15.2146 26.0725 15.214C26.0887 15.2126 26.0907 15.2058 26.079 15.1941C26.0614 15.1759 26.0532 15.1555 26.0543 15.1328C26.0589 15.0373 26.0538 14.9465 26.039 14.8601C26.0316 14.8167 26.0256 14.7735 26.0214 14.7301C26.0166 14.6832 26.0086 14.6375 25.9972 14.5926C25.9936 14.5784 25.9967 14.5659 26.006 14.5551C26.0112 14.5494 26.0103 14.5409 26.0046 14.5358C26.0038 14.535 26.0029 14.5344 26.0018 14.5338C25.9896 14.5276 25.9833 14.5179 25.9825 14.5051C25.9799 14.4677 25.9754 14.4393 25.9686 14.4197C25.9393 14.3382 25.9118 14.2558 25.8854 14.1731C25.878 14.1499 25.8893 14.1325 25.8765 14.1084C25.851 14.0598 25.818 14.0152 25.778 13.9746C25.7766 13.9732 25.776 13.9712 25.7763 13.9692C25.7766 13.9667 25.7769 13.9644 25.7766 13.9621C25.7757 13.9545 25.7718 13.9505 25.7644 13.9502C25.7314 13.9482 25.701 13.936 25.6735 13.9136C25.6664 13.9076 25.6582 13.9056 25.6494 13.9073C25.6289 13.9113 25.6093 13.9105 25.5903 13.9051C25.5463 13.892 25.502 13.8926 25.4568 13.907C25.4318 13.915 25.4037 13.9181 25.3725 13.9164C25.3174 13.9133 25.2608 13.9088 25.2026 13.9034" fill="white"/>
<path d="M32.0577 21.9657C32.0284 21.964 31.9995 21.9575 31.9708 21.9461C31.9623 21.9427 31.9543 21.9436 31.9467 21.949C31.9319 21.9592 31.9157 21.9626 31.8981 21.9592C31.8896 21.9578 31.8828 21.9603 31.8779 21.9674C31.8629 21.989 31.8444 22.0086 31.8225 22.0262C31.7694 22.0694 31.7535 22.1424 31.7629 22.2083C31.7643 22.219 31.7604 22.2273 31.751 22.2327C31.7285 22.2455 31.7124 22.2639 31.7024 22.2886C31.6982 22.2986 31.6916 22.3062 31.6823 22.3116C31.6507 22.3295 31.6314 22.3542 31.6249 22.3858C31.624 22.3906 31.6212 22.3917 31.6166 22.3892C31.6118 22.3863 31.6078 22.3875 31.605 22.3923C31.5672 22.4568 31.5244 22.5155 31.4766 22.5686C31.4417 22.6076 31.4122 22.6544 31.388 22.7092C31.3653 22.7601 31.34 22.8095 31.3119 22.8575C31.3085 22.8634 31.3071 22.8697 31.3079 22.8768C31.3085 22.8836 31.3065 22.8901 31.3023 22.8952C31.2511 22.9566 31.2063 23.0247 31.1677 23.0994C31.1509 23.1318 31.1327 23.1611 31.1134 23.1869C31.0921 23.2156 31.0725 23.2457 31.0549 23.2772C31.0506 23.2849 31.045 23.2908 31.0376 23.2957C31.0339 23.2982 31.0302 23.3011 31.0268 23.3042C31.0197 23.3113 31.014 23.3195 31.01 23.3295C30.9978 23.3599 30.9825 23.3874 30.964 23.4118C30.9584 23.4195 30.951 23.4252 30.9422 23.4289C30.9246 23.436 30.9101 23.4465 30.899 23.4607C30.8962 23.4644 30.8947 23.4683 30.8947 23.4732C30.8947 23.4774 30.8967 23.4811 30.9001 23.484C30.9078 23.4899 30.9084 23.4967 30.9018 23.5038C30.8712 23.5374 30.8439 23.5765 30.8203 23.6211C30.7942 23.6705 30.7615 23.714 30.7224 23.7512C30.667 23.8037 30.6212 23.8614 30.5849 23.9236C30.5656 23.9568 30.544 23.9889 30.5204 24.0204C30.4986 24.0491 30.4818 24.0812 30.4707 24.1167C30.4693 24.1212 30.4665 24.1232 30.4616 24.1229C30.458 24.1227 30.4551 24.1241 30.4531 24.1275C30.4253 24.1826 30.4111 24.2496 30.3682 24.2948C30.3478 24.3163 30.333 24.3422 30.3236 24.3723C30.3145 24.4015 30.3032 24.4302 30.2898 24.4583C30.2685 24.5024 30.2467 24.5444 30.2245 24.5844C30.21 24.6103 30.2015 24.6367 30.1992 24.6637C30.1967 24.696 30.1913 24.7276 30.183 24.758C30.183 24.7588 30.1833 24.7594 30.1842 24.7597C30.1842 24.7597 30.1842 24.7597 30.1845 24.7597C30.1879 24.7597 30.1907 24.7605 30.1933 24.7625C30.1978 24.7662 30.2004 24.771 30.2012 24.7776C30.2043 24.8025 30.2075 24.8281 30.2112 24.854C30.2126 24.8639 30.2089 24.8718 30.2004 24.8775C30.1953 24.8812 30.1904 24.8821 30.1856 24.8801C30.1731 24.8752 30.1677 24.8795 30.1694 24.8931C30.1711 24.9071 30.17 24.9218 30.1657 24.9372C30.1643 24.9431 30.1606 24.9448 30.1549 24.9428L30.141 24.938C30.1299 24.934 30.124 24.938 30.1231 24.9499C30.1223 24.9587 30.1191 24.9661 30.1135 24.9721C30.1024 24.9837 30.103 24.9948 30.1149 25.0053C30.1305 25.0192 30.1328 25.0323 30.1217 25.0439" fill="white"/>
<path d="M31.7575 17.2374L31.6354 17.1897L31.7575 17.2374Z" fill="white"/>
<path d="M32.9273 22.9953C32.929 23.047 32.9512 23.0828 32.9938 23.1027L32.9273 22.9953Z" fill="white"/>
<path d="M33.3876 23.9134C33.3828 23.9552 33.3921 23.985 33.4151 24.0032L33.3876 23.9134Z" fill="white"/>
<path d="M32.6581 13.8367L32.7399 13.8515C32.5206 13.8515 32.365 13.86 32.2727 13.8767C32.1872 13.8924 32.1219 13.8992 32.0767 13.8978C32.0747 13.8978 32.0739 13.8983 32.0736 13.9003C32.0736 13.9012 32.0736 13.902 32.073 13.9029C32.0713 13.906 32.0685 13.908 32.0648 13.9086C31.9873 13.9168 31.9109 13.9202 31.8356 13.9188C31.8263 13.9188 31.8174 13.9211 31.8098 13.9262C31.8052 13.9293 31.8004 13.9307 31.7953 13.931C31.6868 13.9327 31.5755 13.9355 31.461 13.9395C31.413 13.9412 31.3662 13.9449 31.3205 13.9506C31.2719 13.9566 31.2242 13.9583 31.177 13.9551C31.1674 13.9546 31.1583 13.9568 31.1501 13.9619C31.1165 13.9832 31.0799 13.9906 31.0404 13.9838C31.0325 13.9824 31.0248 13.9878 31.0234 13.9957C31.0234 13.996 31.0234 13.9963 31.0234 13.9966C31.0225 14.0026 31.0245 14.0071 31.0291 14.0102C31.0319 14.0122 31.0331 14.0148 31.0328 14.0182C31.0322 14.0233 31.0308 14.0256 31.0285 14.0247C31.0194 14.0222 31.016 14.0258 31.018 14.0358C31.0291 14.0895 31.0311 14.1406 31.0237 14.1891C31.0223 14.1977 31.0243 14.2062 31.0291 14.2133C31.0328 14.219 31.0353 14.2255 31.0367 14.2326C31.0379 14.238 31.0367 14.2431 31.0342 14.2476C31.0319 14.2511 31.0291 14.2536 31.0254 14.2553C31.016 14.2593 31.0112 14.2664 31.0112 14.2766C31.0109 14.303 31.0081 14.3294 31.0027 14.3558C31.0004 14.3672 31.0038 14.3766 31.0126 14.3837C31.0186 14.3888 31.022 14.3962 31.022 14.4038C31.0228 14.4479 31.0294 14.4871 31.0416 14.5214C31.0509 14.5473 31.0578 14.5717 31.0623 14.5947C31.0669 14.6177 31.0734 14.641 31.0816 14.6646C31.0955 14.7046 31.093 14.7409 31.1015 14.7821C31.1075 14.8128 31.1103 14.848 31.11 14.8881C31.1089 15.0139 31.1154 15.155 31.1296 15.3121C31.1347 15.3683 31.1364 15.4191 31.1347 15.4643C31.1327 15.5114 31.1319 15.5569 31.1319 15.6009C31.1319 15.6137 31.1353 15.6259 31.1418 15.6369C31.1467 15.6452 31.1478 15.6537 31.1455 15.6628C31.1256 15.7449 31.131 15.823 31.1617 15.8965C31.1654 15.9053 31.1657 15.9144 31.162 15.9232C31.1518 15.9488 31.1458 15.9758 31.1441 16.0039C31.1432 16.0161 31.1481 16.0257 31.1583 16.0328L31.1966 16.0587C31.2063 16.0652 31.2114 16.0743 31.2123 16.0859L31.2199 16.1993C31.2205 16.2072 31.2185 16.2146 31.2137 16.2211C31.2035 16.2359 31.2029 16.2507 31.212 16.2657C31.2179 16.2757 31.2185 16.2853 31.2131 16.2952C31.21 16.3015 31.21 16.3077 31.2131 16.314L31.2188 16.3242C31.2242 16.3347 31.2211 16.3398 31.2091 16.3398H31.1344C31.1217 16.3398 31.118 16.3458 31.1234 16.3574C31.1248 16.3606 31.1273 16.3628 31.131 16.364C31.137 16.366 31.1413 16.3697 31.1438 16.3753C31.1563 16.4012 31.1614 16.423 31.1589 16.4415C30.9649 16.2802 30.7505 16.1853 30.5153 16.1569C30.3623 16.1385 30.168 16.1302 29.9331 16.1325C29.5211 16.1365 29.1093 16.1379 28.6978 16.1365L28.3859 16.1061C28.3811 16.1058 28.3811 16.105 28.3859 16.1041L28.4649 16.0868C28.4811 16.0831 28.4811 16.0794 28.4652 16.0752L28.443 16.0692C28.4351 16.0669 28.4305 16.0587 28.4328 16.051C28.4339 16.0473 28.4362 16.0442 28.4396 16.0422L28.4615 16.0303C28.4726 16.024 28.4737 16.0164 28.4646 16.0073C28.451 15.9939 28.4368 15.9846 28.422 15.9786C28.4121 15.9743 28.4101 15.9681 28.4163 15.9593C28.4183 15.9562 28.4209 15.9553 28.4234 15.9567C28.4402 15.965 28.4433 15.961 28.4334 15.9454C28.4212 15.9258 28.4067 15.9173 28.3899 15.9198C28.3794 15.9212 28.3774 15.9178 28.384 15.9093C28.3933 15.8971 28.399 15.8835 28.401 15.8687C28.4018 15.861 28.3999 15.8539 28.395 15.848L28.3615 15.8068C28.3544 15.7983 28.3521 15.7886 28.3544 15.7775C28.368 15.7119 28.3808 15.6489 28.393 15.5878C28.4013 15.5455 28.3859 15.5012 28.3465 15.4543C28.3456 15.4532 28.3456 15.4521 28.3468 15.4512C28.3487 15.4492 28.3502 15.4472 28.3516 15.4453C28.3527 15.4435 28.3533 15.4416 28.353 15.4396C28.3448 15.3654 28.336 15.2905 28.3266 15.2144C28.3255 15.2047 28.3218 15.1959 28.3155 15.1882C28.3104 15.1817 28.3067 15.1743 28.3042 15.1661C28.2755 15.0675 28.2667 14.9681 28.2775 14.8676C28.2789 14.8557 28.2752 14.8455 28.2667 14.8367C28.2559 14.8256 28.2533 14.8134 28.2587 14.8003C28.2596 14.7977 28.259 14.7958 28.2567 14.7943C28.2542 14.7929 28.2519 14.7921 28.2496 14.7923C28.2474 14.7926 28.2459 14.7915 28.2456 14.7892C28.242 14.76 28.2346 14.733 28.2235 14.7083C28.2198 14.7001 28.2187 14.6915 28.2195 14.6827C28.2229 14.6518 28.2175 14.6228 28.203 14.5955C28.1985 14.5873 28.1965 14.5779 28.1974 14.5686C28.1994 14.5404 28.1931 14.5129 28.1786 14.4854C28.1585 14.4464 28.1568 14.4047 28.1729 14.3601C28.1764 14.351 28.1758 14.3422 28.1712 14.3334L28.1553 14.3022C28.1542 14.2999 28.1551 14.2968 28.1573 14.2956C28.1582 14.2951 28.1593 14.2951 28.1602 14.2951C28.1627 14.2954 28.1653 14.2951 28.1678 14.2939C28.171 14.2925 28.1724 14.2897 28.1727 14.286C28.1738 14.2698 28.1684 14.2573 28.1562 14.2479C28.1502 14.2434 28.1471 14.236 28.1482 14.2283L28.1576 14.1616C28.1587 14.1539 28.157 14.1468 28.1525 14.1406C28.1454 14.1304 28.1463 14.119 28.1553 14.1062C28.1636 14.0949 28.1735 14.0929 28.1854 14.1C28.194 14.1054 28.1996 14.1031 28.2022 14.0934C28.205 14.0835 28.2056 14.0736 28.2036 14.0631C28.2025 14.0574 28.2048 14.0517 28.2093 14.0483C28.2141 14.0446 28.2192 14.0446 28.2246 14.0483C28.2289 14.0514 28.2349 14.0506 28.238 14.0463L28.2564 14.0222C28.2692 14.0054 28.265 13.9972 28.2442 13.9972H28.1994C28.1908 13.9972 28.1837 13.9915 28.182 13.9832C28.18 13.9733 28.1749 13.9656 28.1673 13.9597C28.1579 13.9526 28.159 13.9472 28.1704 13.9441C28.1712 13.9438 28.1718 13.9429 28.1721 13.9418C28.1729 13.937 28.1712 13.9341 28.1664 13.933C28.1468 13.9287 28.1284 13.9228 28.111 13.9151C28.1051 13.9125 28.0994 13.9117 28.0937 13.9125C28.0883 13.9134 28.0841 13.9165 28.0815 13.9219C28.0784 13.9279 28.0761 13.9276 28.0747 13.9211C28.0718 13.9091 28.065 13.9057 28.0542 13.9105C28.0429 13.9157 28.038 13.9122 28.04 13.9C28.04 13.8978 28.0398 13.8955 28.0386 13.8929C28.0378 13.8912 28.0386 13.8904 28.0403 13.8904H28.0872C28.1014 13.8904 28.1022 13.887 28.09 13.8802C28.0792 13.8742 28.0682 13.8731 28.0568 13.877C28.0534 13.8782 28.0534 13.8787 28.0571 13.8785C28.1426 13.8708 28.2207 13.8731 28.2908 13.8853C28.357 13.8969 28.4237 13.9015 28.4913 13.8992C28.5683 13.8966 28.6461 13.8975 28.7247 13.902C28.8116 13.9069 28.8932 13.9091 28.9693 13.9088C29.274 13.9083 29.5784 13.9105 29.8832 13.9159C30.5173 13.927 31.0629 13.9219 31.5193 13.9012C31.636 13.8958 31.7342 13.8915 31.8138 13.8878C31.9134 13.8833 32.01 13.8762 32.1029 13.8668C32.2875 13.8478 32.4726 13.8378 32.6581 13.8367Z" fill="white"/>
<path d="M28.8031 18.2251L31.4724 21.2911C31.4582 21.2883 31.4449 21.2792 31.4326 21.2636C31.4261 21.2554 31.4184 21.2545 31.4102 21.2605C31.4051 21.2642 31.3994 21.2667 31.3934 21.2681C31.3855 21.2701 31.3827 21.2673 31.3849 21.2593C31.3858 21.2562 31.3855 21.2528 31.3841 21.2491C31.3798 21.2397 31.3747 21.2395 31.3687 21.248C31.3574 21.2647 31.3418 21.269 31.3219 21.2608C31.3162 21.2588 31.3117 21.2602 31.3085 21.265C31.3012 21.2761 31.2906 21.2789 31.2773 21.2733C31.2759 21.2727 31.2753 21.2713 31.2759 21.2698C31.2759 21.2696 31.2764 21.269 31.2767 21.2687C31.2799 21.2662 31.2799 21.2639 31.277 21.2619C31.2688 21.2559 31.2637 21.2579 31.262 21.2679C31.256 21.3022 31.2398 21.3235 31.2128 21.332C31.2063 21.334 31.2009 21.338 31.1969 21.3434C31.1748 21.3726 31.1532 21.4013 31.1322 21.4292C31.1114 21.4573 31.0927 21.4902 31.0762 21.5283C31.0535 21.5811 31.0308 21.6348 31.0084 21.6893C31.0049 21.6975 30.9987 21.7009 30.9899 21.7001C30.9845 21.6992 30.9794 21.6998 30.9743 21.7015C30.964 21.7046 30.9561 21.7109 30.9501 21.72C30.9172 21.7717 30.8891 21.8231 30.8661 21.8739C30.8624 21.8824 30.8561 21.8887 30.8476 21.8924C30.8348 21.898 30.8243 21.9068 30.8158 21.9185C30.7854 21.9605 30.7587 22.0023 30.736 22.044C30.7147 22.0826 30.69 22.121 30.6619 22.159C30.6411 22.1869 30.6227 22.2158 30.6065 22.2462C30.5912 22.2755 30.5727 22.3019 30.5511 22.326C30.5153 22.3661 30.4869 22.4132 30.4662 22.4674C30.4392 22.5382 30.4009 22.6035 30.3512 22.6637C30.3481 22.6674 30.3472 22.6716 30.3481 22.6762C30.3489 22.6796 30.3503 22.6821 30.3529 22.6836C30.3597 22.6878 30.3617 22.6938 30.3589 22.7015C30.3478 22.7301 30.3441 22.76 30.3478 22.7915C30.3486 22.8006 30.3464 22.8088 30.341 22.8159C30.3324 22.827 30.3282 22.8395 30.3279 22.854C30.3279 22.8656 30.3231 22.8747 30.3131 22.8812C30.3038 22.8872 30.3023 22.8951 30.3089 22.9051C30.3143 22.913 30.314 22.9235 30.3083 22.9309C30.283 22.965 30.262 23.0002 30.2447 23.0363C30.2305 23.0655 30.2117 23.092 30.1882 23.115C30.1819 23.1209 30.1771 23.128 30.174 23.1363C30.1623 23.1655 30.1467 23.1908 30.1265 23.2121C30.0845 23.2572 30.068 23.3092 30.0252 23.3541C30.0101 23.37 29.9919 23.3919 29.9706 23.4197C29.9448 23.4535 29.9138 23.4776 29.8775 23.4921C29.8692 23.4952 29.863 23.5009 29.8587 23.5086C29.8494 23.5253 29.8383 23.5409 29.8255 23.556C29.8105 23.5739 29.7982 23.5938 29.7889 23.6156C29.7727 23.654 29.7539 23.6892 29.7329 23.7216C29.6983 23.7747 29.7082 23.8249 29.6435 23.8616C29.6117 23.8795 29.5921 23.9022 29.5844 23.9303C29.5747 23.9652 29.5631 24.0022 29.5492 24.0405C29.5469 24.0465 29.5483 24.0513 29.5537 24.055C29.5597 24.059 29.5603 24.0635 29.5554 24.0689C29.5165 24.1135 29.5055 24.1629 29.5225 24.2171C29.5259 24.2282 29.5219 24.2319 29.5108 24.2285C29.5001 24.2254 29.4949 24.2186 29.4958 24.2075C29.4964 24.1978 29.4918 24.193 29.4822 24.193C29.4753 24.193 29.4725 24.1896 29.4736 24.1828C29.4768 24.1666 29.4714 24.1629 29.4577 24.1723C29.4563 24.1731 29.4555 24.1728 29.4546 24.1714C29.4475 24.1592 29.4418 24.1598 29.4376 24.1737C29.4299 24.1978 29.4237 24.222 29.4183 24.2464L27.035 21.5047C27.0338 21.4894 27.0438 21.4766 27.0651 21.4667C27.0671 21.4655 27.0671 21.4644 27.0651 21.4632C27.0628 21.4621 27.0605 21.461 27.0583 21.4601C27.0571 21.4598 27.0568 21.459 27.0574 21.4576C27.0659 21.4414 27.0793 21.4303 27.0975 21.4243C27.1074 21.4212 27.1088 21.4158 27.102 21.4081C27.0994 21.4053 27.0963 21.4039 27.0921 21.4042C27.0898 21.4042 27.0881 21.4025 27.0878 21.4005C27.0878 21.3996 27.0878 21.3988 27.0887 21.3979L27.3695 21.0154C27.3755 21.0071 27.3795 20.9983 27.382 20.9884C27.3869 20.9677 27.407 20.9518 27.4167 20.9313C27.4283 20.9066 27.4394 20.8825 27.4496 20.8583C27.4596 20.8353 27.4709 20.8129 27.484 20.791C27.4973 20.7689 27.5073 20.7447 27.5138 20.7189C27.5203 20.6919 27.5317 20.6678 27.5476 20.6465C27.5785 20.6042 27.6072 20.5621 27.6336 20.5198C27.6459 20.5002 27.6549 20.4783 27.6603 20.4545C27.6626 20.4446 27.6672 20.436 27.674 20.4287C27.6876 20.4142 27.6978 20.3985 27.7046 20.3815C27.7115 20.3648 27.7194 20.3483 27.7282 20.3321C27.7717 20.2531 27.8143 20.1753 27.8563 20.0984C27.8765 20.0614 27.8918 20.0223 27.9017 19.9811C27.9134 19.9342 27.9293 19.8919 27.95 19.8541C27.9673 19.8229 27.9787 19.7902 27.9847 19.7559C27.9864 19.7462 27.9903 19.7377 27.9966 19.7303C28.0483 19.6687 28.0892 19.6005 28.1193 19.5258C28.1281 19.504 28.1394 19.4835 28.1534 19.4639C28.1681 19.4432 28.1772 19.4216 28.1803 19.3986C28.1815 19.3901 28.1852 19.3827 28.1911 19.3765C28.2039 19.3634 28.2133 19.3481 28.2195 19.3302C28.23 19.3001 28.2434 19.2705 28.2593 19.2416C28.2718 19.2191 28.2772 19.1933 28.2758 19.1646C28.2723 19.0961 28.2735 19.0297 28.2792 18.9658C28.2806 18.9468 28.286 18.9286 28.2948 18.9113C28.3036 18.8945 28.3093 18.8769 28.3118 18.8584C28.3175 18.8173 28.332 18.7801 28.3556 18.7468C28.3612 18.7389 28.3646 18.7301 28.3658 18.7204C28.37 18.6872 28.384 18.6591 28.4075 18.6358C28.4141 18.6293 28.4186 18.6219 28.4214 18.6131C28.4268 18.5952 28.4337 18.5781 28.4419 18.5614C28.4504 18.5438 28.455 18.5267 28.4558 18.51C28.4584 18.46 28.4618 18.4103 28.4663 18.3609C28.4672 18.3509 28.472 18.3441 28.4808 18.3399C28.4834 18.3387 28.4856 18.337 28.4879 18.335C28.4924 18.3314 28.4947 18.3265 28.4947 18.3208C28.4947 18.2564 28.5058 18.1939 28.5271 18.1334C28.5302 18.1246 28.5294 18.1161 28.5248 18.1078C28.5118 18.0848 28.5163 18.0667 28.5382 18.0536C28.547 18.0485 28.5504 18.0411 28.5478 18.0312C28.547 18.0275 28.5447 18.0249 28.5416 18.0235C28.5271 18.0161 28.5277 18.0107 28.5436 18.0073C28.5458 18.007 28.5475 18.0059 28.5484 18.0042C28.5572 17.9897 28.564 17.9903 28.5694 18.0062C28.572 18.0138 28.5776 18.0184 28.5859 18.0192C28.5947 18.0201 28.5964 18.0241 28.591 18.0309C28.587 18.0363 28.5859 18.042 28.5876 18.0482C28.5893 18.0545 28.5933 18.0576 28.5998 18.0573C28.608 18.0573 28.6106 18.053 28.6077 18.0454C28.6077 18.0448 28.6077 18.0442 28.6083 18.0442C28.6089 18.0442 28.6094 18.0442 28.6094 18.0445C28.6157 18.0528 28.6163 18.0616 28.6109 18.0706C28.6055 18.08 28.6077 18.0871 28.6177 18.0919C28.6271 18.0965 28.6356 18.0945 28.6427 18.086C28.6432 18.0854 28.6441 18.0851 28.6447 18.0857C28.6449 18.0857 28.6452 18.0863 28.6452 18.0865C28.6464 18.0928 28.6438 18.0962 28.6378 18.0965C28.6325 18.0965 28.6313 18.099 28.6342 18.1036C28.6376 18.1087 28.6415 18.113 28.6461 18.1167C28.6503 18.1201 28.6563 18.1192 28.6597 18.1149C28.6606 18.1138 28.6611 18.1127 28.6614 18.1113C28.6626 18.1064 28.6662 18.1053 28.6728 18.1081C28.6819 18.1121 28.6827 18.1172 28.6751 18.1237C28.6665 18.1308 28.6662 18.1397 28.6745 18.1504C28.681 18.159 28.6867 18.1584 28.6918 18.149C28.6941 18.145 28.6952 18.1408 28.6952 18.1362C28.6952 18.1303 28.6975 18.1294 28.7015 18.1343C28.7043 18.1377 28.7054 18.1416 28.7046 18.1462C28.7032 18.155 28.706 18.1621 28.7125 18.1678C28.7452 18.1959 28.7756 18.2152 28.8031 18.2251Z" fill="white"/>
<path d="M23.0752 22.7506C23.1224 22.5115 23.1789 22.28 23.2181 22.0434C23.3064 21.5087 23.3436 20.981 23.3303 20.461C23.326 20.2988 23.3132 20.1231 23.2925 19.9331C23.2735 19.7593 23.249 19.5951 23.2195 19.4403C23.1885 19.2773 23.1573 19.1132 23.1258 18.9482C23.1113 18.8718 23.0911 18.7999 23.0653 18.7329C23.036 18.6562 23.023 18.5773 23.0261 18.4958C23.0269 18.4784 23.0338 18.4642 23.0465 18.4532C23.0605 18.4407 23.082 18.4421 23.0945 18.4563C23.0948 18.4566 23.0951 18.4571 23.0954 18.4574C23.1607 18.5389 23.2266 18.6185 23.2928 18.6954C23.5768 19.0246 23.8295 19.3182 24.0513 19.5769C24.2192 19.7729 24.4103 19.9669 24.5798 20.1662C24.6636 20.2651 24.7468 20.3642 24.8289 20.4633C24.8689 20.5116 24.9115 20.5573 24.9567 20.6007C25.0172 20.6587 25.0649 20.728 25.1206 20.7899C25.3463 21.0415 25.5528 21.296 25.7786 21.541C26.0333 21.8179 26.2608 22.1178 26.5198 22.391C26.6354 22.5129 26.7294 22.6481 26.8438 22.7733C27.0994 23.053 27.3601 23.3487 27.6257 23.6599C27.7858 23.8476 27.9594 24.0362 28.1235 24.2293C28.2948 24.431 28.4774 24.6261 28.6444 24.8195C28.7722 24.9677 28.9017 25.1086 29.0278 25.2568C29.1984 25.4582 29.3697 25.6561 29.5421 25.8507C29.8224 26.1667 30.097 26.4811 30.3665 26.7932C30.5636 27.0216 30.7672 27.2499 30.9777 27.4785C31.0308 27.5362 31.0756 27.6163 31.1094 27.6895C31.1205 27.7134 31.11 27.7418 31.0859 27.7529C31.0793 27.756 31.0722 27.7574 31.0651 27.7571C30.811 27.7512 30.5596 27.7529 30.3072 27.7441C30.1436 27.7381 29.9723 27.7458 29.8082 27.7458C26.8731 27.7449 24.0769 27.7458 21.4201 27.7483C20.9069 27.7486 20.4824 27.748 20.147 27.746C20.0496 27.7455 19.9658 27.7676 19.8709 27.7705C19.8519 27.771 19.8363 27.756 19.8357 27.737C19.8357 27.7361 19.8357 27.7352 19.8357 27.7344C19.8394 27.6716 19.8669 27.6199 19.9183 27.5788C20.1708 27.3754 20.4256 27.1738 20.6579 26.9449C21.1566 26.453 21.5661 25.9847 21.939 25.394C22.0574 25.2063 22.1656 25.0293 22.263 24.8629C22.4607 24.5247 22.6152 24.1288 22.7739 23.7491C22.8117 23.6585 22.8318 23.5477 22.8685 23.4492C22.9665 23.1859 23.0355 22.9531 23.0752 22.7506Z" fill="#E71A11"/>
<path d="M25.2662 19.4759C24.9538 19.1132 24.726 18.8696 24.4795 18.5751C24.4568 18.5478 24.3725 18.4515 24.2262 18.2865C24.1123 18.1579 24.0152 18.0253 23.9345 17.8884C23.8232 17.7001 23.7042 17.5149 23.6222 17.3102C23.406 16.7726 23.3623 16.2137 23.4909 15.6337C23.5131 15.5341 23.5441 15.4375 23.5835 15.3441C23.7389 14.9763 23.9806 14.6511 24.3089 14.3685C24.5752 14.1391 24.8731 13.984 25.2026 13.9034C25.2608 13.9088 25.3173 13.9133 25.3724 13.9164C25.4037 13.9181 25.4318 13.915 25.4568 13.907C25.5019 13.8926 25.5462 13.892 25.5902 13.9051C25.6093 13.9105 25.6289 13.9113 25.6493 13.9073C25.6581 13.9056 25.6663 13.9076 25.6734 13.9136C25.701 13.936 25.7314 13.9482 25.7643 13.9502C25.7717 13.9505 25.7757 13.9545 25.7765 13.9621C25.7765 13.9644 25.7765 13.9667 25.7763 13.9692C25.7763 13.9712 25.7765 13.9732 25.778 13.9746C25.818 14.0152 25.8509 14.0598 25.8765 14.1084C25.8893 14.1325 25.8779 14.1499 25.8853 14.1731C25.9117 14.2558 25.9393 14.3382 25.9685 14.4197C25.9753 14.4393 25.9799 14.4677 25.9824 14.5051C25.9833 14.5179 25.9895 14.5276 26.0017 14.5338C26.0086 14.5372 26.0114 14.5458 26.008 14.5523C26.0074 14.5534 26.0069 14.5543 26.006 14.5551C25.9966 14.5659 25.9935 14.5784 25.9972 14.5926C26.0086 14.6375 26.0165 14.6832 26.0213 14.7301C26.0256 14.7735 26.0316 14.8167 26.0389 14.8601C26.0537 14.9465 26.0588 15.0373 26.0543 15.1328C26.0531 15.1555 26.0614 15.1759 26.079 15.1941C26.0906 15.2058 26.0886 15.2126 26.0725 15.214C26.0679 15.2146 26.0671 15.2188 26.0696 15.2271C26.0716 15.2325 26.0742 15.2376 26.0779 15.2418C26.0997 15.2699 26.1011 15.2989 26.0821 15.329C26.0801 15.3318 26.0807 15.3344 26.0835 15.3364C26.0867 15.3387 26.0892 15.3389 26.0906 15.337C26.0966 15.3299 26.0986 15.3307 26.0963 15.3398C26.0915 15.3583 26.0963 15.3744 26.1097 15.3881C26.1168 15.3952 26.1199 15.404 26.1185 15.4139C26.1128 15.4585 26.1145 15.502 26.1239 15.5443C26.1338 15.5906 26.1406 15.6326 26.144 15.6704C26.1486 15.7218 26.1548 15.7737 26.1625 15.8263C26.1693 15.8731 26.1733 15.9203 26.1741 15.9671C26.175 16.0174 26.1858 16.0629 26.2059 16.1037C26.2105 16.1134 26.2105 16.1248 26.2057 16.1344C26.1957 16.1546 26.192 16.1756 26.1951 16.1975C26.2005 16.2352 26.2031 16.2551 26.2031 16.2565C26.2031 16.348 26.2028 16.4386 26.2017 16.5283C26.2014 16.5533 26.2057 16.5931 26.215 16.6473C26.2164 16.6567 26.2159 16.6661 26.2133 16.6751C26.2074 16.6953 26.2057 16.7149 26.2082 16.7345C26.2116 16.7592 26.2122 16.7782 26.2102 16.791C26.2031 16.8367 26.198 16.883 26.1949 16.9296C26.1946 16.9359 26.1912 16.941 26.1849 16.9447C26.1804 16.9475 26.177 16.9523 26.1761 16.958C26.1702 16.9955 26.1605 17.0327 26.1474 17.0693C26.1358 17.102 26.1247 17.1349 26.1139 17.1682C26.0779 17.2803 26.0409 17.3939 26.0032 17.5084C25.9819 17.5728 25.9679 17.6314 25.9611 17.6833C25.9535 17.7424 25.9447 17.8 25.9347 17.856C25.9333 17.8642 25.9342 17.8719 25.9376 17.8796C25.9393 17.8833 25.9398 17.8872 25.939 17.8912C25.9302 17.9335 25.9129 17.9798 25.9097 18.0238C25.9083 18.046 25.9006 18.067 25.887 18.0869C25.8822 18.0937 25.8805 18.1014 25.8813 18.1096C25.883 18.1224 25.8796 18.134 25.8711 18.1442C25.8651 18.1516 25.8615 18.1599 25.8603 18.1692C25.8492 18.2502 25.8328 18.3283 25.8109 18.4035C25.8089 18.4101 25.8066 18.416 25.8035 18.4214C25.801 18.426 25.8007 18.4308 25.8024 18.4359C25.8058 18.4467 25.8049 18.4572 25.8001 18.4677C25.7814 18.5078 25.7663 18.5501 25.7552 18.5944C25.7356 18.6722 25.7067 18.7457 25.6686 18.8148C25.6641 18.8233 25.6621 18.8329 25.6632 18.8423C25.6644 18.8517 25.6638 18.861 25.6612 18.8704C25.6587 18.8789 25.6527 18.8863 25.6445 18.89C25.6345 18.8946 25.6314 18.9019 25.6351 18.9125C25.6368 18.9173 25.6357 18.9178 25.632 18.9144C25.6306 18.9133 25.6291 18.913 25.6274 18.9133C25.6252 18.9136 25.6235 18.9147 25.6226 18.9167C25.6087 18.9448 25.5971 18.9735 25.5877 19.003C25.5811 19.0238 25.5706 19.0428 25.5567 19.0601C25.5397 19.0809 25.5255 19.103 25.5138 19.1269C25.5116 19.1317 25.5076 19.1357 25.5028 19.1385C25.4772 19.1524 25.4602 19.1729 25.4516 19.1993C25.4491 19.2075 25.4434 19.2115 25.4346 19.2109C25.4315 19.2109 25.4286 19.2092 25.4267 19.2067C25.4241 19.2033 25.4193 19.203 25.4156 19.2055C25.415 19.2061 25.4144 19.2067 25.4142 19.2072C25.4051 19.22 25.4036 19.2337 25.4099 19.2487C25.413 19.2564 25.4122 19.2649 25.4076 19.2714C25.3866 19.301 25.3585 19.3203 25.3233 19.3291C25.3133 19.3316 25.3068 19.3379 25.3037 19.3478C25.2966 19.3714 25.2832 19.3862 25.2639 19.3924C25.2537 19.3955 25.252 19.4012 25.2588 19.4094C25.2679 19.4205 25.2747 19.4327 25.2795 19.4464C25.2855 19.4643 25.2812 19.4742 25.2662 19.4759Z" fill="white"/>
<path d="M32.0577 21.9657C32.1562 22.0827 32.3082 22.2548 32.5141 22.4817C32.645 22.6263 32.7824 22.7978 32.9267 22.9958C32.9284 23.0475 32.9506 23.0832 32.9932 23.1031C33.1491 23.3539 33.3005 23.6294 33.3871 23.9139C33.3822 23.9557 33.3916 23.9855 33.4146 24.0037C33.4819 24.2766 33.5223 24.5433 33.5353 24.8037C33.5578 25.2589 33.493 25.7099 33.3408 26.1572C33.2999 26.2776 33.24 26.4083 33.1613 26.5494C33.0866 26.6832 33.0119 26.811 32.9372 26.9328C32.8319 27.1046 32.7009 27.2588 32.5442 27.3954C32.5058 27.4286 32.4786 27.4676 32.4468 27.5062C32.4005 27.5624 32.3178 27.5584 32.273 27.5045C32.1006 27.2963 31.9094 27.1103 31.7416 26.9064C31.5894 26.7215 31.4289 26.5213 31.2563 26.3438C31.198 26.2839 31.1506 26.2205 31.0944 26.1566C30.9072 25.9448 30.7309 25.7465 30.5653 25.5617C30.5372 25.5301 30.5108 25.4992 30.4858 25.4688C30.3671 25.3248 30.2458 25.1831 30.1217 25.0439C30.1328 25.0323 30.1305 25.0192 30.1149 25.0053C30.103 24.9948 30.1024 24.9837 30.1135 24.9721C30.1191 24.9661 30.1223 24.9587 30.1231 24.9499C30.124 24.938 30.1299 24.934 30.141 24.938L30.1549 24.9428C30.1606 24.9448 30.1643 24.9428 30.1657 24.9372C30.17 24.9218 30.1711 24.9071 30.1694 24.8931C30.1677 24.8795 30.1731 24.8752 30.1856 24.8801C30.1904 24.8821 30.1953 24.8812 30.2004 24.8775C30.2089 24.8718 30.2126 24.8639 30.2112 24.854C30.2075 24.8281 30.2043 24.8025 30.2012 24.7776C30.2004 24.771 30.1978 24.7662 30.1933 24.7625C30.1907 24.7605 30.1879 24.7594 30.1845 24.7597C30.1836 24.7597 30.183 24.7591 30.183 24.7582C30.183 24.7582 30.183 24.7582 30.183 24.758C30.1913 24.7276 30.1967 24.696 30.1992 24.6637C30.2015 24.6367 30.21 24.6103 30.2245 24.5844C30.2467 24.5444 30.2685 24.5024 30.2898 24.4583C30.3032 24.4302 30.3145 24.4015 30.3236 24.3723C30.333 24.3422 30.3478 24.3163 30.3682 24.2948C30.4111 24.2496 30.4253 24.1826 30.4531 24.1275C30.4551 24.1241 30.458 24.1227 30.4616 24.1229C30.4665 24.1232 30.4693 24.1212 30.4707 24.1167C30.4818 24.0812 30.4986 24.0491 30.5204 24.0204C30.544 23.9889 30.5656 23.9568 30.5849 23.9236C30.6212 23.8614 30.667 23.8037 30.7224 23.7512C30.7615 23.714 30.7942 23.6705 30.8203 23.6211C30.8439 23.5765 30.8712 23.5374 30.9018 23.5038C30.9084 23.4967 30.9078 23.4899 30.9001 23.484C30.8967 23.4811 30.895 23.4774 30.8947 23.4732C30.8947 23.4683 30.8962 23.4644 30.899 23.4607C30.9101 23.4465 30.9246 23.436 30.9422 23.4289C30.951 23.4252 30.9584 23.4195 30.964 23.4118C30.9825 23.3874 30.9978 23.3599 31.01 23.3295C31.014 23.3195 31.0197 23.3113 31.0268 23.3042C31.0302 23.3011 31.0339 23.2982 31.0376 23.2957C31.045 23.2908 31.0506 23.2849 31.0549 23.2772C31.0725 23.2457 31.0921 23.2156 31.1134 23.1869C31.1327 23.1611 31.1509 23.1318 31.1677 23.0994C31.2063 23.0247 31.2511 22.9566 31.3023 22.8952C31.3065 22.8901 31.3085 22.8836 31.3079 22.8768C31.3071 22.8697 31.3085 22.8634 31.3119 22.8575C31.34 22.8095 31.3653 22.7601 31.388 22.7092C31.4122 22.6544 31.4417 22.6076 31.4766 22.5686C31.5244 22.5155 31.5672 22.4568 31.605 22.3923C31.6078 22.3875 31.6118 22.3863 31.6166 22.3892C31.6212 22.3917 31.624 22.3906 31.6249 22.3858C31.6314 22.3542 31.6507 22.3295 31.6823 22.3116C31.6916 22.3062 31.6982 22.2986 31.7024 22.2886C31.7124 22.2639 31.7285 22.2455 31.751 22.2327C31.7604 22.2273 31.7643 22.219 31.7629 22.2083C31.7535 22.1424 31.7694 22.0694 31.8225 22.0262C31.8444 22.0086 31.8629 21.989 31.8779 21.9674C31.8828 21.9603 31.8896 21.9578 31.8981 21.9592C31.9157 21.9626 31.9319 21.9592 31.9467 21.949C31.9543 21.9436 31.9623 21.9427 31.9708 21.9461C31.9995 21.9575 32.0284 21.964 32.0577 21.9657Z" fill="white"/>
<path d="M32.6583 13.8374C32.4729 13.8385 32.2877 13.8485 32.1031 13.8675C32.0103 13.8769 31.9137 13.884 31.814 13.8885C31.7345 13.8922 31.6362 13.8965 31.5195 13.9019C31.0631 13.9226 30.5176 13.9277 29.8834 13.9166C29.5787 13.9112 29.2743 13.909 28.9695 13.9095C28.8934 13.9095 28.8119 13.9075 28.725 13.9027C28.6463 13.8982 28.5685 13.8973 28.4916 13.8999C28.424 13.9021 28.3572 13.8976 28.2911 13.886C28.2209 13.8737 28.1428 13.8715 28.0573 13.8791C28.0536 13.8791 28.0536 13.8791 28.0571 13.8777C28.0684 13.8737 28.0795 13.8749 28.0903 13.8808C28.1025 13.8877 28.1016 13.8911 28.0874 13.8911H28.0406C28.0386 13.8911 28.038 13.8919 28.0389 13.8936C28.04 13.8962 28.0406 13.8984 28.0403 13.9007C28.0383 13.9129 28.0431 13.9163 28.0545 13.9112C28.0653 13.9064 28.0721 13.9098 28.0749 13.9217C28.0764 13.9283 28.0786 13.9286 28.0818 13.9226C28.0843 13.9172 28.0886 13.9141 28.094 13.9132C28.0997 13.9124 28.1053 13.9132 28.1113 13.9158C28.1286 13.9234 28.1471 13.9294 28.1667 13.9337C28.1715 13.9348 28.1732 13.9376 28.1724 13.9425C28.1724 13.9436 28.1715 13.9445 28.1707 13.9447C28.1593 13.9479 28.1582 13.9533 28.1675 13.9604C28.1752 13.9663 28.1803 13.974 28.1823 13.9839C28.184 13.9922 28.1911 13.9978 28.1996 13.9978H28.2445C28.2652 13.9978 28.2695 14.0061 28.2567 14.0228L28.2382 14.047C28.2351 14.0512 28.2292 14.0521 28.2249 14.049C28.2195 14.0453 28.2144 14.0453 28.2096 14.049C28.205 14.0524 28.2027 14.0581 28.2039 14.0637C28.2059 14.0742 28.2053 14.0842 28.2025 14.0941C28.1999 14.1038 28.1942 14.106 28.1857 14.1007C28.1738 14.0936 28.1638 14.0955 28.1556 14.1069C28.1465 14.1197 28.1457 14.131 28.1528 14.1413C28.1573 14.1475 28.159 14.1546 28.1579 14.1623L28.1485 14.229C28.1474 14.2367 28.1505 14.2441 28.1565 14.2486C28.1687 14.258 28.1741 14.2705 28.1729 14.2867C28.1729 14.2904 28.1712 14.2932 28.1681 14.2946C28.1655 14.2958 28.163 14.296 28.1604 14.2958C28.1579 14.2955 28.1553 14.2972 28.155 14.3C28.155 14.3012 28.155 14.302 28.1556 14.3029L28.1715 14.3341C28.1761 14.3429 28.1766 14.3517 28.1732 14.3608C28.157 14.4054 28.1587 14.4471 28.1789 14.486C28.1934 14.5136 28.1996 14.5411 28.1976 14.5692C28.1968 14.5786 28.1988 14.588 28.2033 14.5962C28.2178 14.6235 28.2232 14.6525 28.2198 14.6834C28.2189 14.6922 28.2201 14.7007 28.2238 14.709C28.2348 14.7337 28.2422 14.7607 28.2459 14.7899C28.2462 14.7922 28.2476 14.7933 28.2499 14.793C28.2522 14.7927 28.2544 14.7936 28.257 14.795C28.2593 14.7964 28.2598 14.7984 28.259 14.801C28.2536 14.814 28.2561 14.8263 28.2669 14.8373C28.2754 14.8461 28.2791 14.8564 28.2777 14.8683C28.2669 14.9688 28.2757 15.0682 28.3044 15.1668C28.307 15.175 28.3107 15.1824 28.3158 15.1889C28.322 15.1966 28.3257 15.2054 28.3269 15.215C28.3362 15.2912 28.345 15.3661 28.3533 15.4403C28.3533 15.4422 28.3533 15.4442 28.3518 15.4459C28.3504 15.4479 28.349 15.4499 28.347 15.4519C28.3459 15.4528 28.3459 15.4539 28.3467 15.455C28.3862 15.5019 28.4015 15.5462 28.3933 15.5885C28.3811 15.6496 28.3683 15.7126 28.3547 15.7782C28.3524 15.7893 28.3547 15.7989 28.3618 15.8075L28.3953 15.8486C28.4001 15.8546 28.4021 15.8617 28.4013 15.8694C28.3993 15.8841 28.3936 15.8978 28.3842 15.91C28.3777 15.9185 28.3797 15.9219 28.3902 15.9205C28.4069 15.9179 28.4214 15.9265 28.4336 15.946C28.4436 15.9617 28.4405 15.9656 28.4237 15.9574C28.4211 15.956 28.4186 15.9568 28.4166 15.96C28.4103 15.9688 28.4123 15.975 28.4223 15.9793C28.437 15.9852 28.4512 15.9946 28.4649 16.008C28.474 16.017 28.4728 16.0247 28.4617 16.031L28.4399 16.0429C28.4328 16.0469 28.4305 16.056 28.4345 16.0631C28.4365 16.0665 28.4396 16.0687 28.4433 16.0699L28.4654 16.0758C28.4813 16.0801 28.4813 16.0838 28.4652 16.0875L28.3862 16.1048C28.3814 16.1057 28.3814 16.1065 28.3862 16.1068L28.698 16.1372C28.487 16.1386 28.2763 16.142 28.0661 16.1471C27.9324 16.1502 27.8174 16.1994 27.7211 16.2945C27.6578 16.357 27.603 16.4189 27.6052 16.5152C27.6069 16.583 27.6157 16.6461 27.6313 16.7046C27.6754 16.8679 27.7549 17.0167 27.8702 17.1505C28.1789 17.5086 28.4899 17.8667 28.8037 18.2254C28.7761 18.2155 28.7457 18.1961 28.7131 18.168C28.7066 18.1623 28.7037 18.1552 28.7051 18.1464C28.706 18.1419 28.7048 18.1379 28.702 18.1345C28.698 18.1297 28.696 18.1305 28.6958 18.1365C28.6958 18.141 28.6946 18.1453 28.6924 18.1493C28.6872 18.1587 28.6816 18.1592 28.675 18.1507C28.6668 18.1399 28.6671 18.1311 28.6756 18.124C28.6833 18.1175 28.6824 18.1124 28.6733 18.1084C28.6668 18.1055 28.6631 18.1067 28.662 18.1115C28.6608 18.1166 28.6554 18.12 28.6503 18.1186C28.6489 18.1183 28.6478 18.1178 28.6466 18.1169C28.6421 18.1132 28.6381 18.109 28.6347 18.1038C28.6319 18.0993 28.633 18.097 28.6384 18.0967C28.6444 18.0965 28.6469 18.093 28.6458 18.0868C28.6458 18.0859 28.6449 18.0854 28.6441 18.0857C28.6438 18.0857 28.6435 18.0857 28.6432 18.0862C28.6361 18.0948 28.6276 18.0967 28.6182 18.0922C28.6083 18.0874 28.606 18.0803 28.6114 18.0709C28.6168 18.0618 28.6162 18.053 28.61 18.0448C28.61 18.0442 28.6091 18.0442 28.6089 18.0445C28.6083 18.0445 28.6083 18.0453 28.6083 18.0456C28.6111 18.0533 28.6083 18.0573 28.6003 18.0575C28.5938 18.0575 28.5898 18.0547 28.5881 18.0485C28.5864 18.0422 28.5876 18.0365 28.5915 18.0311C28.5969 18.0243 28.5952 18.0203 28.5864 18.0195C28.5782 18.0186 28.5725 18.0141 28.57 18.0064C28.5646 17.9905 28.5577 17.99 28.5489 18.0044C28.5481 18.0061 28.5464 18.0073 28.5441 18.0076C28.5282 18.011 28.5276 18.0164 28.5421 18.0238C28.5452 18.0252 28.5475 18.0277 28.5484 18.0314C28.5509 18.0414 28.5475 18.0487 28.5387 18.0539C28.5168 18.0669 28.5123 18.0851 28.5254 18.1081C28.5299 18.1163 28.5308 18.1249 28.5276 18.1337C28.5063 18.1942 28.4955 18.2566 28.4953 18.3211C28.4953 18.3268 28.493 18.3316 28.4884 18.3353C28.4862 18.3373 28.4839 18.339 28.4813 18.3401C28.4725 18.3444 28.4677 18.3512 28.4669 18.3611C28.4623 18.4106 28.4589 18.4603 28.4564 18.5102C28.4555 18.527 28.451 18.544 28.4424 18.5616C28.4342 18.5784 28.4274 18.5954 28.422 18.6133C28.4192 18.6221 28.4146 18.6295 28.4081 18.636C28.3845 18.6593 28.3706 18.6874 28.3663 18.7207C28.3652 18.7303 28.3618 18.7391 28.3561 18.7471C28.3325 18.7803 28.318 18.8175 28.3124 18.8587C28.3098 18.8772 28.3041 18.8948 28.2953 18.9115C28.2865 18.9288 28.2811 18.947 28.2797 18.966C28.274 19.0299 28.2729 19.0964 28.2763 19.1648C28.2777 19.1935 28.2723 19.2194 28.2598 19.2418C28.2439 19.2708 28.2306 19.3003 28.2201 19.3304C28.2138 19.3483 28.2044 19.3636 28.1917 19.3767C28.1857 19.383 28.182 19.3903 28.1809 19.3989C28.1778 19.4219 28.1687 19.4434 28.1539 19.4642C28.14 19.4838 28.1286 19.5042 28.1198 19.5261C28.0897 19.6008 28.0488 19.6689 27.9971 19.7306C27.9909 19.7379 27.9869 19.7465 27.9852 19.7561C27.9792 19.7905 27.9679 19.8231 27.9506 19.8544C27.9298 19.8922 27.9139 19.9345 27.9023 19.9813C27.8923 20.0225 27.877 20.0617 27.8568 20.0986C27.8148 20.1756 27.7722 20.2534 27.7288 20.3323C27.72 20.3485 27.712 20.365 27.7052 20.3818C27.6984 20.3988 27.6881 20.4144 27.6745 20.4289C27.6677 20.4363 27.6632 20.4448 27.6609 20.4547C27.6555 20.4786 27.6464 20.5005 27.6342 20.5201C27.6078 20.5624 27.5791 20.6044 27.5481 20.6467C27.5322 20.668 27.5209 20.6922 27.5143 20.7191C27.5078 20.745 27.4979 20.7691 27.4845 20.7913C27.4715 20.8131 27.4601 20.8356 27.4502 20.8586C27.4399 20.8827 27.4289 20.9069 27.4172 20.9316C27.4076 20.952 27.3874 20.9679 27.3826 20.9887C27.38 20.9986 27.376 21.0074 27.3701 21.0156L27.0892 21.3982C27.0881 21.3999 27.0884 21.4024 27.0901 21.4036C27.0906 21.4041 27.0915 21.4044 27.0926 21.4044C27.0969 21.4044 27.1 21.4056 27.1026 21.4084C27.1094 21.4161 27.1079 21.4215 27.098 21.4246C27.0798 21.4306 27.0665 21.4416 27.058 21.4578C27.0574 21.4592 27.0577 21.4601 27.0588 21.4604C27.0611 21.4612 27.0634 21.4624 27.0656 21.4635C27.0676 21.4646 27.0676 21.4658 27.0656 21.4669C27.0443 21.4768 27.0344 21.4896 27.0355 21.505L25.2662 19.4764C25.2813 19.4747 25.2856 19.4647 25.2796 19.4469C25.2748 19.4332 25.2679 19.421 25.2589 19.4099C25.252 19.4017 25.2537 19.396 25.264 19.3929C25.2833 19.3866 25.2966 19.3719 25.3037 19.3483C25.3069 19.3384 25.3134 19.3321 25.3233 19.3296C25.3585 19.3208 25.3867 19.3014 25.4077 19.2719C25.4122 19.2654 25.4131 19.2569 25.4099 19.2492C25.4037 19.2341 25.4051 19.2205 25.4142 19.2077C25.4168 19.204 25.4216 19.2032 25.425 19.2057C25.4256 19.206 25.4261 19.2066 25.4267 19.2072C25.4287 19.2097 25.4315 19.2111 25.4347 19.2114C25.4435 19.212 25.4491 19.208 25.4517 19.1998C25.4602 19.1734 25.4772 19.1529 25.5028 19.139C25.5076 19.1362 25.5116 19.1322 25.5139 19.1274C25.5255 19.1035 25.5397 19.0814 25.5568 19.0606C25.5707 19.0433 25.5812 19.0243 25.5877 19.0035C25.5971 18.974 25.6087 18.9453 25.6227 18.9172C25.6235 18.9152 25.6252 18.9141 25.6275 18.9138C25.6292 18.9135 25.6306 18.9138 25.632 18.9149C25.6357 18.9183 25.6369 18.9178 25.6352 18.9129C25.6315 18.9024 25.6346 18.895 25.6445 18.8905C25.6528 18.8868 25.6587 18.8794 25.6613 18.8709C25.6638 18.8615 25.6644 18.8522 25.6633 18.8428C25.6621 18.8334 25.6641 18.8238 25.6687 18.8152C25.7067 18.7462 25.7357 18.6727 25.7553 18.5949C25.7664 18.5506 25.7814 18.5082 25.8002 18.4682C25.805 18.4577 25.8058 18.4472 25.8024 18.4364C25.8007 18.4313 25.801 18.4265 25.8036 18.4219C25.8067 18.4165 25.809 18.4106 25.8109 18.404C25.8328 18.3288 25.8493 18.2507 25.8604 18.1697C25.8615 18.1604 25.8652 18.1521 25.8712 18.1447C25.8797 18.1345 25.8831 18.1229 25.8814 18.1101C25.8805 18.1019 25.8822 18.0942 25.8871 18.0874C25.9007 18.0675 25.9084 18.0465 25.9098 18.0243C25.9129 17.9803 25.9302 17.934 25.939 17.8917C25.9399 17.8877 25.9393 17.8837 25.9376 17.8801C25.9342 17.8724 25.9333 17.8647 25.9348 17.8565C25.9447 17.8005 25.9535 17.7429 25.9612 17.6838C25.968 17.6318 25.9819 17.5733 26.0032 17.5089C26.041 17.3944 26.0779 17.2808 26.114 17.1686C26.1248 17.1354 26.1358 17.1025 26.1475 17.0698C26.1605 17.0332 26.1702 16.996 26.1762 16.9585C26.177 16.9528 26.1804 16.948 26.185 16.9451C26.1912 16.9415 26.1946 16.9363 26.1949 16.9301C26.198 16.8835 26.2031 16.8372 26.2102 16.7915C26.2122 16.7787 26.2117 16.7597 26.2083 16.735C26.2057 16.7154 26.2074 16.6958 26.2134 16.6756C26.2159 16.6665 26.2165 16.6572 26.2151 16.6478C26.2057 16.5936 26.2014 16.5538 26.2017 16.5288C26.2029 16.4391 26.2034 16.3485 26.2031 16.257C26.2031 16.2556 26.2006 16.2357 26.1952 16.198C26.1921 16.1761 26.1958 16.1551 26.2057 16.1349C26.2105 16.1252 26.2105 16.1139 26.206 16.1042C26.1858 16.0633 26.175 16.0179 26.1742 15.9676C26.1733 15.9208 26.1693 15.8736 26.1625 15.8268C26.1549 15.7742 26.1486 15.7223 26.1441 15.6709C26.1407 15.6331 26.1338 15.5911 26.1239 15.5448C26.1145 15.5024 26.1128 15.459 26.1185 15.4144C26.1199 15.4045 26.1168 15.3957 26.1097 15.3886C26.0961 15.3749 26.0915 15.3587 26.0964 15.3403C26.0986 15.3312 26.0966 15.3303 26.0907 15.3374C26.0893 15.3394 26.0867 15.3392 26.0836 15.3369C26.0807 15.3349 26.0802 15.3323 26.0822 15.3295C26.1012 15.2994 26.0998 15.2704 26.0779 15.2423C26.0742 15.2381 26.0717 15.2329 26.0697 15.2275C26.0671 15.2193 26.068 15.215 26.0725 15.2145C26.0887 15.2131 26.0907 15.2062 26.079 15.1946C26.0614 15.1764 26.0532 15.156 26.0543 15.1333C26.0589 15.0378 26.0538 14.947 26.039 14.8606C26.0316 14.8172 26.0256 14.774 26.0214 14.7306C26.0166 14.6837 26.0086 14.638 25.9972 14.5931C25.9936 14.5789 25.9967 14.5664 26.006 14.5556C26.0112 14.5499 26.0103 14.5414 26.0046 14.5363C26.0038 14.5354 26.0029 14.5349 26.0018 14.5343C25.9896 14.5281 25.9833 14.5184 25.9825 14.5056C25.9799 14.4681 25.9754 14.4397 25.9686 14.4201C25.9393 14.3386 25.9118 14.2563 25.8854 14.1736C25.878 14.1504 25.8893 14.133 25.8765 14.1089C25.851 14.0603 25.818 14.0157 25.778 13.9751C25.7766 13.9737 25.776 13.9717 25.7763 13.9697C25.7766 13.9672 25.7769 13.9649 25.7766 13.9626C25.7757 13.955 25.7718 13.951 25.7644 13.9507C25.7314 13.9487 25.701 13.9365 25.6735 13.9141C25.6664 13.9081 25.6582 13.9061 25.6494 13.9078C25.6289 13.9118 25.6093 13.9109 25.5903 13.9055C25.5463 13.8925 25.502 13.8931 25.4568 13.9075C25.4318 13.9155 25.4037 13.9186 25.3725 13.9169C25.3174 13.9138 25.2608 13.9092 25.2026 13.9038C25.2393 13.895 25.2748 13.8854 25.3088 13.8746C25.3466 13.8624 25.3824 13.8558 25.4159 13.855C25.5386 13.8524 25.6567 13.8425 25.7783 13.8428C26.701 13.8451 27.6365 13.8451 28.5842 13.8428C28.6546 13.8428 28.7367 13.8519 28.815 13.8482C28.8278 13.8476 28.8295 13.8516 28.8199 13.8604C28.8145 13.8652 28.8082 13.8675 28.8011 13.8669C28.7994 13.8669 28.7983 13.8655 28.7983 13.8641C28.7983 13.8627 28.7994 13.8612 28.8011 13.8612L28.9627 13.8536C28.9664 13.8536 28.9664 13.853 28.9627 13.8524C28.9227 13.8456 28.8795 13.8451 28.8326 13.8507C28.8295 13.851 28.8281 13.8499 28.8278 13.8468C28.8275 13.8422 28.8295 13.8399 28.8341 13.8397C28.9553 13.8363 29.0792 13.834 29.2055 13.8326C29.2382 13.8326 29.2612 13.8206 29.295 13.8201C30.4162 13.809 31.5374 13.815 32.6583 13.8374Z" fill="white"/>
<path d="M31.6354 17.1897L31.7575 17.2374C31.7129 17.2428 31.672 17.2269 31.6354 17.1897Z" fill="white"/>
<path d="M32.7397 13.8519C32.8133 13.8479 32.8559 13.8834 32.8669 13.9584C32.8752 14.0126 32.8786 14.0785 32.8777 14.1558C32.8704 14.7899 32.8618 15.4298 32.8721 16.067C32.878 16.4473 32.8772 16.8142 32.8692 17.1675C32.8678 17.2269 32.8357 17.2578 32.7729 17.2604C32.4594 17.2737 32.1635 17.272 31.8855 17.255C31.8414 17.2524 31.7986 17.2465 31.7574 17.2374L31.6353 17.1897C31.604 17.163 31.581 17.1272 31.566 17.082C31.483 16.8347 31.3473 16.6214 31.1587 16.4419C31.1613 16.4235 31.1562 16.4016 31.1437 16.3757C31.1411 16.3701 31.1369 16.3664 31.1309 16.3644C31.1272 16.3632 31.1246 16.361 31.1232 16.3578C31.1178 16.3462 31.1215 16.3402 31.1343 16.3402H31.209C31.2209 16.3402 31.224 16.3351 31.2186 16.3246L31.213 16.3144C31.2098 16.3081 31.2098 16.3019 31.213 16.2957C31.2184 16.2857 31.2178 16.2761 31.2118 16.2661C31.2027 16.2511 31.2033 16.2363 31.2135 16.2215C31.2184 16.215 31.2203 16.2076 31.2198 16.1997L31.2121 16.0863C31.2113 16.0747 31.2061 16.0656 31.1965 16.0591L31.1582 16.0332C31.1479 16.0261 31.1431 16.0165 31.144 16.0043C31.1457 15.9762 31.1516 15.9492 31.1618 15.9236C31.1655 15.9148 31.1653 15.9057 31.1616 15.8969C31.1309 15.8234 31.1255 15.7453 31.1454 15.6632C31.1476 15.6541 31.1465 15.6456 31.1417 15.6374C31.1351 15.6263 31.1317 15.6141 31.1317 15.6013C31.1317 15.5573 31.1326 15.5118 31.1346 15.4647C31.1363 15.4195 31.1346 15.3687 31.1295 15.3125C31.1153 15.1554 31.1087 15.0143 31.1099 14.8885C31.1102 14.8484 31.1073 14.8132 31.1014 14.7825C31.0928 14.7414 31.0954 14.705 31.0815 14.665C31.0732 14.6414 31.0667 14.6181 31.0622 14.5951C31.0576 14.5721 31.0508 14.5477 31.0414 14.5218C31.0292 14.4875 31.0227 14.4483 31.0218 14.4042C31.0218 14.3966 31.0184 14.3892 31.0125 14.3841C31.0037 14.377 31.0002 14.3676 31.0025 14.3563C31.0079 14.3298 31.0108 14.3034 31.011 14.277C31.011 14.2668 31.0159 14.2597 31.0252 14.2557C31.0289 14.254 31.0318 14.2515 31.034 14.2481C31.0369 14.2435 31.0377 14.2384 31.0366 14.233C31.0352 14.2259 31.0326 14.2194 31.0289 14.2137C31.0241 14.2066 31.0221 14.1981 31.0235 14.1895C31.0309 14.141 31.0289 14.0899 31.0179 14.0362C31.0159 14.0263 31.0193 14.0226 31.0284 14.0251C31.0306 14.026 31.0321 14.0237 31.0326 14.0186C31.0329 14.0152 31.0318 14.0126 31.0289 14.0106C31.0244 14.0075 31.0224 14.003 31.0233 13.997C31.0241 13.989 31.0312 13.9834 31.0394 13.9842C31.0397 13.9842 31.04 13.9842 31.0403 13.9842C31.0798 13.991 31.1164 13.9837 31.1499 13.9624C31.1582 13.9572 31.1672 13.955 31.1769 13.9555C31.224 13.9587 31.2717 13.957 31.3203 13.951C31.366 13.9453 31.4129 13.9416 31.4609 13.9399C31.5753 13.9359 31.6867 13.9331 31.7952 13.9314C31.8003 13.9314 31.8051 13.9297 31.8096 13.9266C31.8173 13.9215 31.8261 13.9189 31.8355 13.9192C31.9107 13.9206 31.9871 13.9172 32.0647 13.909C32.0684 13.9084 32.0712 13.9064 32.0729 13.9033C32.0732 13.9024 32.0735 13.9016 32.0735 13.9007C32.0735 13.8987 32.0746 13.8979 32.0766 13.8982C32.1217 13.8996 32.1871 13.8928 32.2725 13.8772C32.3648 13.8604 32.5205 13.8522 32.7397 13.8519Z" fill="white"/>
<path d="M31.4726 21.2912L32.0579 21.9654C32.0286 21.9637 31.9997 21.9572 31.971 21.9458C31.9625 21.9424 31.9545 21.9433 31.9468 21.9486C31.9321 21.9589 31.9159 21.9623 31.8983 21.9589C31.8898 21.9575 31.8829 21.96 31.8781 21.9671C31.8631 21.9887 31.8446 22.0083 31.8227 22.0259C31.7696 22.0691 31.7537 22.142 31.7631 22.2079C31.7645 22.2187 31.7605 22.227 31.7512 22.2324C31.7287 22.2451 31.7125 22.2636 31.7026 22.2883C31.6983 22.2982 31.6918 22.3059 31.6824 22.3113C31.6509 22.3292 31.6316 22.3539 31.6251 22.3854C31.6242 22.3903 31.6214 22.3914 31.6168 22.3888C31.612 22.386 31.608 22.3871 31.6052 22.392C31.5674 22.4564 31.5245 22.5152 31.4768 22.5683C31.4419 22.6072 31.4124 22.6541 31.3882 22.7089C31.3655 22.7597 31.3402 22.8092 31.3121 22.8571C31.3087 22.8631 31.3073 22.8694 31.3081 22.8765C31.3087 22.8833 31.3067 22.8898 31.3025 22.8949C31.2513 22.9563 31.2065 23.0244 31.1678 23.0991C31.1511 23.1315 31.1329 23.1607 31.1136 23.1866C31.0923 23.2153 31.0727 23.2454 31.0551 23.2769C31.0508 23.2846 31.0452 23.2905 31.0378 23.2954C31.0341 23.2979 31.0304 23.3007 31.027 23.3039C31.0199 23.311 31.0142 23.3192 31.0102 23.3291C30.998 23.3595 30.9827 23.3871 30.9642 23.4115C30.9585 23.4192 30.9512 23.4249 30.9423 23.4285C30.9247 23.4356 30.9103 23.4462 30.8992 23.4604C30.8963 23.464 30.8949 23.468 30.8949 23.4728C30.8949 23.4771 30.8969 23.4808 30.9003 23.4836C30.908 23.4896 30.9086 23.4964 30.902 23.5035C30.8713 23.537 30.8441 23.5762 30.8205 23.6208C30.7944 23.6702 30.7617 23.7137 30.7225 23.7509C30.6672 23.8034 30.6214 23.8611 30.5851 23.9233C30.5658 23.9565 30.5442 23.9886 30.5206 24.0201C30.4987 24.0488 30.482 24.0809 30.4709 24.1164C30.4695 24.1209 30.4667 24.1229 30.4618 24.1226C30.4581 24.1223 30.4553 24.1238 30.4533 24.1272C30.4255 24.1823 30.4113 24.2493 30.3684 24.2944C30.3479 24.316 30.3332 24.3419 30.3238 24.372C30.3147 24.4012 30.3034 24.4299 30.29 24.458C30.2687 24.502 30.2468 24.5441 30.2247 24.5841C30.2102 24.61 30.2017 24.6364 30.1994 24.6634C30.1969 24.6957 30.1915 24.7273 30.1832 24.7576C30.1832 24.7585 30.1835 24.7591 30.1844 24.7593C30.1844 24.7593 30.1844 24.7593 30.1846 24.7593C30.1881 24.7593 30.1909 24.7602 30.1935 24.7622C30.198 24.7659 30.2006 24.7707 30.2014 24.7772C30.2045 24.8022 30.2077 24.8278 30.2113 24.8536C30.2128 24.8636 30.2091 24.8715 30.2006 24.8772C30.1954 24.8809 30.1906 24.8817 30.1858 24.8798C30.1733 24.8749 30.1679 24.8792 30.1696 24.8928C30.1713 24.9067 30.1702 24.9215 30.1659 24.9368C30.1645 24.9428 30.1608 24.9445 30.1551 24.9425L30.1412 24.9377C30.1301 24.9337 30.1242 24.9377 30.1233 24.9496C30.1225 24.9584 30.1193 24.9658 30.1137 24.9718C30.1026 24.9834 30.1031 24.9945 30.1151 25.005C30.1307 25.0189 30.133 25.032 30.1219 25.0436L29.4184 24.2464C29.4238 24.222 29.4301 24.1979 29.4377 24.1737C29.442 24.1598 29.4477 24.1593 29.4548 24.1715C29.4556 24.1729 29.4565 24.1732 29.4579 24.1723C29.4715 24.163 29.4769 24.1666 29.4738 24.1828C29.4727 24.1896 29.4755 24.1931 29.4823 24.1931C29.492 24.1931 29.4965 24.1979 29.496 24.2075C29.4951 24.2186 29.5002 24.2254 29.511 24.2286C29.5221 24.232 29.5261 24.2283 29.5227 24.2172C29.5056 24.163 29.5167 24.1135 29.5556 24.069C29.5604 24.0636 29.5599 24.059 29.5539 24.055C29.5485 24.0513 29.5471 24.0465 29.5494 24.0406C29.5633 24.0022 29.5749 23.9653 29.5846 23.9304C29.5922 23.9022 29.6118 23.8795 29.6436 23.8616C29.7084 23.825 29.6985 23.7747 29.7331 23.7216C29.7541 23.6893 29.7729 23.654 29.789 23.6157C29.7984 23.5938 29.8106 23.5739 29.8257 23.5561C29.8385 23.541 29.8495 23.5254 29.8589 23.5086C29.8632 23.501 29.8694 23.4953 29.8777 23.4922C29.914 23.4777 29.945 23.4535 29.9708 23.4197C29.9921 23.3919 30.0103 23.37 30.0253 23.3541C30.0682 23.3093 30.0847 23.2573 30.1267 23.2121C30.1469 23.1908 30.1625 23.1656 30.1741 23.1363C30.1773 23.1281 30.1821 23.121 30.1883 23.115C30.2119 23.092 30.2307 23.0656 30.2449 23.0363C30.2622 23.0003 30.2832 22.9651 30.3085 22.931C30.3142 22.9236 30.3144 22.9131 30.309 22.9051C30.3025 22.8952 30.3039 22.8872 30.3133 22.8813C30.3232 22.8748 30.3281 22.8657 30.3281 22.854C30.3281 22.8395 30.3326 22.827 30.3411 22.816C30.3465 22.8089 30.3488 22.8006 30.3479 22.7915C30.3443 22.76 30.3479 22.7302 30.359 22.7015C30.3619 22.6938 30.3599 22.6879 30.3531 22.6836C30.3505 22.6822 30.3491 22.6796 30.3482 22.6762C30.3474 22.6717 30.3482 22.6674 30.3514 22.6637C30.4011 22.6035 30.4394 22.5382 30.4664 22.4675C30.4871 22.4133 30.5155 22.3661 30.5513 22.3261C30.5729 22.3019 30.5913 22.2755 30.6067 22.2463C30.6229 22.2159 30.6413 22.1869 30.662 22.1591C30.6902 22.121 30.7149 22.0827 30.7362 22.0441C30.7589 22.0023 30.7856 21.9606 30.816 21.9185C30.8245 21.9069 30.835 21.8981 30.8478 21.8924C30.8563 21.8887 30.8625 21.8825 30.8662 21.874C30.8892 21.8231 30.9174 21.7717 30.9503 21.72C30.9563 21.7109 30.9642 21.7047 30.9744 21.7016C30.9795 21.6999 30.9847 21.6993 30.9901 21.7002C30.9989 21.701 31.0051 21.6976 31.0085 21.6894C31.031 21.6348 31.0537 21.5812 31.0764 21.5283C31.0929 21.4903 31.1116 21.4573 31.1323 21.4292C31.1534 21.4014 31.1749 21.3727 31.1971 21.3435C31.2011 21.3381 31.2065 21.3341 31.213 21.3321C31.24 21.3236 31.2562 21.3023 31.2621 21.2679C31.2638 21.258 31.2689 21.256 31.2772 21.2619C31.28 21.2639 31.28 21.2662 31.2769 21.2688C31.2758 21.2699 31.2755 21.2716 31.2766 21.2727C31.2766 21.273 31.2772 21.2733 31.2775 21.2733C31.2908 21.279 31.3013 21.2761 31.3087 21.2651C31.3118 21.2602 31.3164 21.2588 31.322 21.2608C31.3419 21.269 31.3575 21.2648 31.3689 21.248C31.3749 21.2395 31.38 21.2398 31.3842 21.2492C31.3857 21.2529 31.3859 21.2563 31.3851 21.2594C31.3828 21.2673 31.3857 21.2702 31.3936 21.2682C31.3996 21.2668 31.4053 21.2642 31.4104 21.2605C31.4186 21.2546 31.4263 21.2554 31.4328 21.2637C31.445 21.2793 31.4584 21.2884 31.4726 21.2912Z" fill="white"/>
<path d="M32.9273 22.9953L32.9938 23.1027C32.9512 23.0828 32.929 23.047 32.9273 22.9953Z" fill="white"/>
<path d="M33.3876 23.9134L33.4151 24.0032C33.3921 23.985 33.3828 23.9552 33.3876 23.9134Z" fill="white"/>
<circle cx="20.3057" cy="20.6943" r="19.8057" stroke="black" stroke-opacity="0.05"/>
</svg>
