<svg width="40" height="41" viewBox="0 0 40 41" fill="none" xmlns="http://www.w3.org/2000/svg">
<circle cx="20" cy="20" r="20" fill="#005AAA"/>
<path d="M14.5421 18.3764L15.5608 18.5556C15.6727 18.2757 15.8183 17.9846 15.9526 17.6936L14.9227 17.5256C14.7884 17.8167 14.6652 18.0966 14.5533 18.3876L14.5421 18.3764ZM15.9414 17.6936L16.949 17.8615C17.0721 17.5928 17.2064 17.3017 17.352 17.0107L16.322 16.8428C16.1877 17.1338 16.0646 17.4137 15.9526 17.6936H15.9414ZM29.3304 14.8613L15.7959 11.0551C13.8928 10.708 13.4002 12.029 12.5494 14.2344L8.20584 25.6978C7.45579 27.7241 8.86633 29.5152 10.6463 29.5376H19.8148C19.0872 28.8212 18.5722 27.6457 18.3035 26.224C15.3481 28.1383 12.3927 28.1943 11.6762 25.2836C11.4635 24.3992 11.6202 22.8655 13.1427 19.0817L14.1615 19.2608C14.2846 18.981 14.3965 18.7011 14.5309 18.3876L13.501 18.2309C13.6241 17.951 13.7584 17.66 13.8704 17.3577L14.9003 17.5256C15.0235 17.2458 15.1578 16.9547 15.2921 16.6636L16.3109 16.8428C16.4452 16.5517 16.5795 16.283 16.7139 15.992L15.6727 15.824C15.8071 15.533 15.9302 15.2531 16.087 14.9508L17.1169 15.1188C16.9601 15.421 16.8482 15.7009 16.7139 15.992L17.7438 16.1487C17.8893 15.8688 18.0125 15.5889 18.158 15.2867L19.1879 15.4546C19.0312 15.7569 18.9192 16.0367 18.7737 16.3166L17.7438 16.1487C17.6094 16.4398 17.4751 16.7308 17.352 17.0107L18.3819 17.1674C18.2475 17.4809 18.1132 17.7495 17.9901 18.0294C17.8333 18.3317 17.7214 18.6115 17.5871 18.8802C17.4415 19.1937 17.3184 19.4623 17.1952 19.7422C15.8743 22.664 15.516 23.7499 15.4041 24.4328C15.1018 26.224 15.7399 26.9852 18.2475 25.821C18.1244 24.9814 18.0796 24.0746 18.1356 23.1342C18.2923 24.1641 18.4602 24.9814 18.6506 25.6307C19.0983 25.4068 19.6021 25.1269 20.1618 24.7799C19.7029 25.2164 19.2215 25.5971 18.7513 25.9329C19.4342 27.9592 20.341 27.8472 21.4157 26.5934C21.8858 26.0673 22.468 25.0933 23.8785 22.2163C24.0017 21.9476 24.136 21.6565 24.2703 21.3654C24.4159 21.0968 24.5278 20.8057 24.6845 20.5146C24.8077 20.246 24.942 19.9549 25.0764 19.6638L25.8712 20.3579C25.9943 20.0669 26.1287 19.7982 26.263 19.4847L25.4794 18.813C25.6137 18.522 25.7368 18.2533 25.8712 17.9398L26.666 18.6339C26.5317 18.925 26.4085 19.2161 26.2742 19.4847L27.069 20.1788C27.1922 19.9101 27.3265 19.6191 27.4608 19.328L28.2557 20.0221C28.1213 20.3131 27.987 20.6042 27.8638 20.8729L27.069 20.1788C26.9347 20.4923 26.8003 20.7609 26.6548 21.0296L27.4496 21.7237C27.3153 22.0147 27.181 22.3058 27.0354 22.5745L27.8191 23.2462C27.6847 23.5372 27.5504 23.8283 27.4049 24.0858L26.6212 23.4141C26.4869 23.7052 26.3414 23.9738 26.207 24.2537L26.9795 24.9254C25.5465 27.6345 24.5726 28.9331 23.8337 29.5712H25.6585C27.2593 29.504 28.0654 28.4405 28.905 26.3919L31.8044 18.7347C32.4425 16.7756 31.491 15.4098 29.3639 14.8949L29.3304 14.8613ZM19.5909 14.6038L18.561 14.4359C18.7065 14.156 18.8185 13.8761 18.9752 13.5739L20.0163 13.7418C19.8596 14.0441 19.7476 14.3239 19.6021 14.6038H19.5909ZM27.0578 17.7607L26.2854 17.0667C26.4085 16.7756 26.5429 16.4845 26.6772 16.1935L27.4496 16.8875C27.3153 17.1786 27.1922 17.4697 27.0578 17.7607ZM25.8824 20.3243C25.748 20.6154 25.6137 20.9065 25.4682 21.1751L26.2518 21.8468C26.3749 21.5781 26.5093 21.2871 26.6436 20.996L25.8712 20.3243H25.8824ZM26.2518 21.8468C26.0951 22.1379 25.9607 22.429 25.8376 22.6976L26.61 23.3693C26.7556 23.1006 26.8899 22.8208 27.0242 22.5297L26.2518 21.8356V21.8468Z" fill="white"/>
<circle cx="20" cy="20.2632" r="19.5" stroke="black" stroke-opacity="0.05"/>
</svg>
