<svg width="40" height="40" viewBox="0 0 40 40" fill="none" xmlns="http://www.w3.org/2000/svg">
<circle cx="20" cy="20" r="20" fill="#52AAC0"/>
<ellipse cx="20" cy="20.2107" rx="11" ry="11.0002" fill="#FCFCFC"/>
<path fill-rule="evenodd" clip-rule="evenodd" d="M29.9917 24.8562C28.7517 25.7098 27.1692 26.603 25.4817 27.2007C23.0902 28.0477 20.3702 28.3397 18.1367 26.9102C17.3714 26.4204 16.9889 25.7505 16.9474 24.9706C16.908 24.2309 17.1781 23.4484 17.5747 22.69C18.332 21.2419 19.679 19.6513 20.8831 18.2295L21.0524 18.0295C21.6846 17.2823 22.2694 16.5848 22.7243 15.9618C23.1895 15.3247 23.4726 14.8259 23.5596 14.4716C23.601 14.3031 23.5851 14.2169 23.5697 14.1783C23.5589 14.1512 23.53 14.0979 23.4046 14.0388C23.1104 13.9002 22.4827 13.8237 21.3178 13.9503C19.4258 14.156 18.1047 14.0869 17.2449 13.7805C16.8066 13.6242 16.4542 13.3942 16.2212 13.0742C15.9833 12.7475 15.9049 12.375 15.9322 12.0059C15.9839 11.3067 16.4163 10.5786 16.9163 9.9479C17.0322 9.80167 17.1551 9.65656 17.283 9.51368C17.8517 9.36695 18.4383 9.26457 19.0388 9.21045C18.5633 9.62939 18.0918 10.1046 17.7144 10.5806C17.2404 11.1786 16.976 11.7024 16.9479 12.0811C16.9354 12.251 16.9713 12.374 17.0445 12.4746C17.1226 12.5819 17.2781 12.711 17.5869 12.8211C18.2214 13.0473 19.3515 13.1395 21.2077 12.9377C22.3853 12.8097 23.2664 12.8478 23.8387 13.1174C24.1466 13.2624 24.3904 13.4866 24.5158 13.801C24.6366 14.1038 24.6203 14.4231 24.5487 14.7145C24.4098 15.2801 24.0166 15.9192 23.5468 16.5624C23.0668 17.2198 22.4581 17.945 21.8299 18.6874L21.6973 18.844L21.6973 18.8441C20.4617 20.3038 19.1805 21.8173 18.4773 23.162C18.1133 23.8581 17.9394 24.4459 17.9645 24.9165C17.9874 25.3469 18.1779 25.7273 18.6857 26.0524C20.5263 27.2304 22.8649 27.047 25.1416 26.2406C27.3641 25.4534 29.4157 24.1091 30.6454 23.0922C30.4772 23.7032 30.2577 24.2928 29.9917 24.8562Z" fill="#51A7BD"/>
<circle cx="20" cy="20" r="19.5" stroke="#52AAC0"/>
</svg>
