<svg width="40" height="40" viewBox="0 0 40 40" fill="none" xmlns="http://www.w3.org/2000/svg">
<circle cx="20" cy="20" r="20" fill="#C92C32"/>
<g clip-path="url(#clip0_9_356529)">
<path d="M11.0752 14.5067C11.0752 14.5067 11.4165 14.099 11.861 13.623C11.861 13.623 14.9657 17.5375 15.5744 18.2846C15.7312 18.4765 18.7935 22.2009 19.2436 22.6511C19.6937 23.1012 23.0234 26.9548 23.0234 26.9548L25.5008 29.7698L25.0064 29.9303L21.0016 25.3093C21.0016 25.3093 19.3561 23.3613 19.2436 23.2506C19.131 23.1381 17.1849 20.9299 17.1849 20.9299C17.1849 20.9299 15.2756 18.8694 14.9399 18.5337C13.5914 17.187 11.0752 14.5067 11.0752 14.5067Z" fill="white"/>
<path d="M12.0125 13.4737C12.0125 13.4737 12.5659 12.9719 12.9108 12.6897C12.9108 12.6897 15.0507 15.4272 15.2001 15.5767C15.3495 15.7279 16.96 17.8604 17.1463 18.0467C17.3326 18.2349 19.43 20.6662 19.43 20.6662L22.2118 23.924L26.8716 29.2072L26.4547 29.3991L21.7894 24.0236L19.0187 20.8784L16.8733 18.4323L14.3017 15.7113L12.0125 13.4719V13.4737Z" fill="white"/>
<path d="M13.1045 12.5437C13.1045 12.5437 13.7852 12.0106 14.1025 11.8962L16.674 15.1651L19.0924 18.1092L21.5127 20.9298L23.8333 23.5493L27.2276 27.4434L28.1426 28.506L27.7459 28.7477L25.9806 26.7185L23.4109 23.7762L20.666 20.6309L18.5187 18.2107L16.0007 15.4676L13.1045 12.5456V12.5437Z" fill="white"/>
<path d="M14.3018 11.7708C14.3018 11.7708 14.7002 11.531 15.4049 11.186L17.744 14.2169L20.5885 17.6112L23.4331 20.9796L26.8771 24.9457L28.9727 27.342L29.3011 27.6704L28.9229 27.9655L26.2758 24.9697L22.8335 20.9279L20.0886 17.8325L17.6185 15.1134L14.3018 11.7708Z" fill="white"/>
<path d="M15.6206 11.0922C15.6206 11.0922 15.9434 10.9575 16.7625 10.6624L19.4189 13.9662L23.1101 18.3345L26.1797 21.952L29.2512 25.5215L30.3561 26.7021L30.0093 27.0526L27.9783 24.6729L24.7851 21.0038L22.09 17.8844L19.0204 14.4661L17.0724 12.4941L15.6225 11.0903L15.6206 11.0922Z" fill="white"/>
<path d="M10.8853 14.7593C10.8853 14.7593 8.96314 17.0356 9.00004 20.2805C9.06829 25.9585 14.3958 30.5611 21.0515 30.5611C22.079 30.5611 23.0752 30.4522 24.0252 30.2456C24.0252 30.2456 13.1045 17.685 10.8853 14.7611V14.7593Z" fill="white"/>
<path d="M17.065 10.5774C18.3138 10.2048 19.6549 10 21.0532 10C25.1854 10 28.8305 11.7709 31.0017 14.4734V26.0195C31.0017 26.0195 18.4411 11.4997 16.9783 10.5755" fill="white"/>
</g>
<circle cx="20" cy="20" r="19.5" stroke="black" stroke-opacity="0.05"/>
<defs>
<clipPath id="clip0_9_356529">
<rect width="22" height="20.5593" fill="white" transform="translate(9 10)"/>
</clipPath>
</defs>
</svg>
