<svg width="40" height="40" viewBox="0 0 40 40" fill="none" xmlns="http://www.w3.org/2000/svg">
<circle cx="20" cy="20" r="20" fill="#13235F"/>
<g clip-path="url(#clip0_9_360558)">
<path d="M18.8489 12.3977L18.8502 15.618C18.8502 15.626 18.8536 15.6337 18.8595 15.6394C18.8654 15.6451 18.8735 15.6483 18.8819 15.6483H27.7421C27.7486 15.6484 27.7549 15.6502 27.7604 15.6535C27.766 15.6567 27.7706 15.6613 27.7738 15.6668C27.777 15.6723 27.7787 15.6784 27.7787 15.6847C27.7787 15.6909 27.777 15.697 27.7738 15.7024L22.6757 24.3279C22.6529 24.3683 22.6612 24.4004 22.7008 24.4241L25.47 26.0725C25.4734 26.0743 25.477 26.0756 25.4808 26.0761C25.4845 26.0767 25.4883 26.0765 25.4918 26.0756C25.4954 26.0748 25.4987 26.0732 25.5015 26.0711C25.5043 26.069 25.5066 26.0663 25.5083 26.0632L31.2247 16.3841C31.2986 16.2584 31.3513 16.2668 31.383 16.4092C31.4595 16.7468 31.5452 17.0901 31.6401 17.4391C31.7184 17.7292 31.7773 18.0777 31.8168 18.4848C31.8652 18.9797 31.8951 19.4364 31.9065 19.8549C31.9575 21.7529 31.5716 23.5375 30.7487 25.2087C29.2982 28.1511 27.0186 30.1841 23.91 31.3076C23.1047 31.5986 22.2516 31.7933 21.3505 31.8918C18.3474 32.2171 15.5641 31.4936 13.0006 29.7213C12.8335 29.6052 12.8485 29.5709 13.0454 29.6184C13.5614 29.7424 14.0656 29.7736 14.5579 29.712C17.0485 29.4017 18.7861 28.1314 19.7707 25.901C19.8718 25.6725 19.9562 25.4013 20.0239 25.0874C20.1043 24.7116 20.2019 24.3279 20.223 23.9494C20.2678 23.1564 20.1663 22.4008 19.9184 21.6826C19.2362 19.7028 17.9034 18.3846 15.9201 17.7279C15.4533 17.5731 14.961 17.4769 14.4432 17.4391C13.9702 17.4048 13.4793 17.4399 12.9702 17.5446C10.6924 18.014 9.12233 19.3679 8.25991 21.6061C8.25757 21.6119 8.25342 21.6168 8.24808 21.62C8.24273 21.6233 8.23648 21.6247 8.23025 21.6241C8.22402 21.6235 8.21815 21.621 8.21351 21.6168C8.20888 21.6125 8.20572 21.607 8.20453 21.6008C8.11046 21.0602 8.06694 20.505 8.07398 19.9353C8.09332 18.338 8.40584 16.821 9.01156 15.3846C10.4713 11.9191 13.4595 9.42412 17.0595 8.47598C18.5562 8.0817 20.099 8.07115 21.6155 8.21225C22.11 8.2584 22.5795 8.41137 23.0687 8.51818C23.248 8.55774 23.4239 8.60521 23.5962 8.6606C25.7122 9.34719 27.5113 10.5279 28.9935 12.2026C29.0612 12.2782 29.0441 12.316 28.9421 12.316H18.932C18.8766 12.316 18.8489 12.3432 18.8489 12.3977Z" fill="white"/>
<path d="M14.0895 26.8888C15.9183 26.8888 17.4007 25.4063 17.4007 23.5776C17.4007 21.7488 15.9183 20.2664 14.0895 20.2664C12.2608 20.2664 10.7783 21.7488 10.7783 23.5776C10.7783 25.4063 12.2608 26.8888 14.0895 26.8888Z" fill="white"/>
</g>
<circle cx="20" cy="20" r="19.5" stroke="black" stroke-opacity="0.05"/>
<defs>
<clipPath id="clip0_9_360558">
<rect width="23.8681" height="24" fill="white" transform="translate(8.06641 8)"/>
</clipPath>
</defs>
</svg>
