<svg width="40" height="40" viewBox="0 0 40 40" fill="none" xmlns="http://www.w3.org/2000/svg">
<circle cx="20" cy="20" r="20" fill="#F6F8FA"/>
<g clip-path="url(#clip0_9_349260)">
<path d="M28.9558 13.1434L28.9502 13.166H28.9728L28.9784 13.1434H28.9558Z" fill="#E83830"/>
<path d="M29.0121 12.9402L29.0177 12.9345C28.9951 12.9345 29.0121 12.9345 28.9951 12.9402H29.0064H29.0121Z" fill="#E83830"/>
<path d="M28.9896 13.2337C28.9896 13.2337 29.0009 13.2112 29.0009 13.2055C28.984 13.2055 29.0009 13.2055 28.9839 13.2112L28.9783 13.2224H28.9896V13.2337Z" fill="#E83830"/>
<path d="M29.063 13.3919V13.3806H29.08L29.0856 13.3636L29.0574 13.358L29.0518 13.3806H29.0574V13.3919H29.063Z" fill="#E83830"/>
<path d="M29.1025 13.149H29.0742C29.0742 13.149 29.0742 13.1603 29.0968 13.1716V13.149H29.1025Z" fill="#E83830"/>
<path d="M28.9609 12.8724V12.895H28.9779C28.9892 12.9288 28.9609 12.9119 29.0005 12.9288L29.0118 12.9006H28.9892L28.9948 12.8724H28.9609Z" fill="#E83830"/>
<path d="M29.0625 13.0983V13.1152C29.0625 13.1152 29.0625 13.1152 29.0851 13.1152H29.0738C29.0738 13.1152 29.0738 13.1096 29.0625 13.0983Z" fill="#E83830"/>
<path d="M29.0571 13.0305H29.0627L29.0514 13.0248C29.0514 13.0531 29.0458 13.0587 29.0683 13.07C29.0683 13.0531 29.0683 13.0474 29.0571 13.0305Z" fill="#E83830"/>
<path d="M29.0236 12.9571H29.0179L29.001 12.9853H29.0236V12.9571Z" fill="#E83830"/>
<path d="M29.9999 17.0113H29.983L29.9886 16.9887H29.983C29.983 16.9548 29.983 16.9322 29.983 16.8927H29.966C29.966 16.8927 29.966 16.8588 29.966 16.8419H29.9491L29.9604 16.808H29.9491L29.9604 16.7628H29.9491V16.7459H29.9717V16.729L29.9604 16.7177C29.9604 16.6669 29.9717 16.6104 29.983 16.5483H29.966V16.4918C29.966 16.4918 29.9491 16.4749 29.9322 16.4636V16.4071V16.3789V16.3676C29.9322 16.3676 29.9434 16.3281 29.9547 16.3111L29.9378 16.2942C29.9378 16.2942 29.9378 16.2547 29.9434 16.2321H29.9322C29.9322 16.2321 29.9434 16.2038 29.9491 16.1869L29.9322 16.1756V16.1474L29.9209 16.1417V16.1248H29.9096L29.9209 16.0853C29.9209 16.0853 29.9096 16.0683 29.9039 16.0627C29.887 16.0401 29.887 16.0232 29.8926 15.9723H29.9209C29.887 15.9554 29.9209 15.9328 29.9209 15.9102L29.887 15.8763V15.8142L29.8757 15.8029C29.887 15.786 29.887 15.7691 29.8983 15.7521C29.887 15.7521 29.8813 15.7352 29.87 15.7352C29.87 15.7182 29.887 15.7069 29.887 15.6957H29.8813C29.8813 15.6957 29.8813 15.6674 29.8644 15.6618V15.594H29.8757V15.5545H29.8587C29.8587 15.5206 29.8757 15.4924 29.887 15.4641L29.8192 15.4529C29.8192 15.4529 29.8192 15.3682 29.8023 15.3512H29.7853C29.7853 15.3512 29.7853 15.3343 29.7966 15.3286C29.7966 15.3004 29.7966 15.2948 29.7741 15.2835V15.2383C29.7741 15.2383 29.7628 15.2383 29.7515 15.2213C29.7515 15.2213 29.7684 15.1875 29.7684 15.1818H29.7571C29.7571 15.1818 29.7628 15.1366 29.7628 15.1141C29.7402 15.1028 29.7402 15.0971 29.7232 15.0802V15.0576H29.7063C29.7176 15.0237 29.7232 14.9955 29.7402 14.9673L29.695 14.956V14.9277C29.695 14.9277 29.7063 14.9277 29.7063 14.9108H29.695C29.695 14.9108 29.695 14.8769 29.695 14.8487H29.6668C29.6668 14.8487 29.6724 14.8035 29.6724 14.7809C29.6385 14.7753 29.6385 14.764 29.6272 14.7583V14.6793C29.6272 14.6793 29.6159 14.6736 29.6047 14.668V14.6567H29.5934L29.6103 14.5889H29.5934C29.5934 14.5889 29.6047 14.5663 29.5764 14.5551L29.5934 14.476H29.5708L29.5877 14.4365C29.5708 14.4252 29.5651 14.4082 29.5369 14.4026C29.5369 14.3744 29.5369 14.38 29.5369 14.3518H29.5143C29.52 14.3123 29.5256 14.3235 29.5425 14.2953C29.5425 14.2897 29.5313 14.2897 29.5143 14.284C29.5143 14.2219 29.4974 14.188 29.5143 14.1259L29.4861 14.1146V14.0751H29.4522C29.4522 14.0243 29.4409 14.0073 29.4353 13.9565H29.4183C29.4183 13.9565 29.4183 13.9339 29.4183 13.917H29.407V13.9001V13.8549C29.407 13.8549 29.407 13.8549 29.3957 13.8379C29.3731 13.8154 29.3788 13.7928 29.3957 13.7532H29.3731V13.7307C29.3731 13.7307 29.3562 13.7081 29.3449 13.7024V13.6798V13.6742L29.3562 13.6403C29.3562 13.6403 29.3336 13.6121 29.3167 13.6008V13.5782V13.5613C29.2997 13.5387 29.2828 13.5161 29.2885 13.4766H29.2715C29.2715 13.4314 29.2715 13.4032 29.2602 13.3749C29.2489 13.3523 29.2376 13.3636 29.2263 13.3185C29.2038 13.3185 29.2094 13.3072 29.1925 13.2902V13.262C29.1925 13.262 29.1755 13.2507 29.1699 13.2338L29.1191 13.2168V13.2112C29.1078 13.2507 29.1191 13.262 29.1303 13.2902V13.3523C29.1303 13.3523 29.1473 13.3693 29.1699 13.3862C29.1699 13.4201 29.1699 13.4257 29.1699 13.454C29.136 13.4483 29.136 13.4427 29.1303 13.4257C29.1021 13.4145 29.1021 13.4257 29.1021 13.3975C29.0739 13.3975 29.0739 13.3975 29.0513 13.4032C29.0513 13.4257 29.0513 13.4257 29.0513 13.4427H29.0569V13.4653L29.0795 13.4766C29.0795 13.4766 29.0626 13.4992 29.0569 13.5048L29.0908 13.5161C29.0852 13.5726 29.1134 13.5613 29.1134 13.6064H29.1303C29.1303 13.6064 29.1303 13.6234 29.1134 13.629C29.1134 13.6686 29.1303 13.6742 29.136 13.6968H29.1473V13.7476C29.1473 13.7476 29.1586 13.7476 29.1699 13.7589C29.1699 13.7984 29.1755 13.8436 29.1812 13.8888H29.2094L29.1981 13.9283H29.2207C29.2207 13.9678 29.2207 13.9791 29.2376 13.996C29.2376 14.0469 29.2489 14.0525 29.2376 14.1033H29.2659C29.2659 14.1033 29.2659 14.1259 29.2885 14.1259C29.2772 14.1429 29.2659 14.1598 29.2659 14.1824C29.2659 14.1824 29.2659 14.2106 29.2659 14.2276H29.2885C29.2885 14.2614 29.2885 14.2671 29.3223 14.2727L29.311 14.3179C29.311 14.3179 29.2828 14.3179 29.2828 14.3518H29.2997V14.3687V14.3913H29.3054V14.4195C29.3054 14.4195 29.3054 14.4195 29.2997 14.4421H29.3167V14.4704H29.3393V14.5042H29.3506L29.3223 14.5494H29.3336V14.5946H29.3619V14.6115H29.3731L29.3619 14.6849H29.3731C29.3731 14.6849 29.3731 14.7075 29.3506 14.7132V14.7301H29.3675L29.3788 14.7753C29.3788 14.7753 29.3957 14.7922 29.407 14.7922L29.3957 14.8487H29.407V14.86V14.8882C29.407 14.8882 29.4183 14.8995 29.4183 14.9108H29.4353C29.4522 14.939 29.4522 14.9898 29.4522 15.0181L29.4691 15.0294C29.4691 15.0294 29.4635 15.035 29.4522 15.0632H29.4748V15.0858C29.4748 15.0858 29.4522 15.0858 29.4522 15.1141H29.4691L29.4578 15.1592L29.4748 15.1705C29.4748 15.1705 29.4635 15.1875 29.4578 15.2101H29.407V15.1875C29.407 15.1875 29.3844 15.1875 29.3731 15.2044L29.3506 15.1931C29.3506 15.1931 29.3619 15.1818 29.3675 15.1705C29.3675 15.1705 29.3675 15.1592 29.3506 15.1479L29.2715 15.1366C29.2715 15.1366 29.2715 15.1141 29.2715 15.0971V15.0802H29.2602C29.2602 15.0802 29.2715 15.0576 29.2715 15.0463H29.2885L29.2715 15.0407L29.2941 14.9785H29.2602L29.2715 14.9334H29.2885V14.8882H29.2715L29.2941 14.8656C29.2941 14.8543 29.2941 14.843 29.2941 14.8317H29.2659V14.8035C29.2263 14.7809 29.2094 14.7527 29.1812 14.7301V14.7019L29.1473 14.6962V14.6736H29.1699C29.1699 14.6736 29.1812 14.6454 29.1868 14.6285L29.2207 14.6398C29.2207 14.6398 29.2376 14.5946 29.2376 14.5776C29.232 14.5663 29.2207 14.5607 29.2094 14.5494C29.2094 14.5325 29.2207 14.5268 29.2207 14.5268C29.2263 14.5042 29.2207 14.5042 29.2207 14.5042L29.232 14.4591L29.2207 14.4534C29.215 14.4365 29.2489 14.3913 29.2602 14.3857V14.3518C29.2602 14.3518 29.2094 14.3235 29.1925 14.3066C29.1925 14.3066 29.1755 14.2897 29.1642 14.284V14.2671L29.1416 14.2445V14.2276C29.1416 14.2276 29.1303 14.2163 29.1303 14.2106L29.0965 14.188V14.1767L29.0569 14.1429V14.1203C29.0569 14.1203 29.0908 14.1146 29.0965 14.1146L29.1021 14.1203L29.1134 14.092H29.0739C29.0739 14.0582 29.0626 14.0582 29.0626 14.0356C29.0513 14.0356 29.0231 14.0243 29.0118 14.0186C29.0231 13.9904 29.0456 13.996 29.0682 13.9791H29.0908L29.1021 13.9452C29.1021 13.9452 29.0682 13.9452 29.0852 13.9226H29.0965L29.1191 13.8154H29.1021V13.7871C29.0852 13.7645 29.0795 13.7871 29.0795 13.742H29.0569L29.0739 13.6403L29.0344 13.6121L29.0513 13.5613L29.04 13.55C29.04 13.55 29.0287 13.5161 29.0005 13.5048V13.4879H28.9553C28.9553 13.4879 28.961 13.4766 28.9892 13.4709V13.437H28.9835C28.9892 13.4257 28.9948 13.4145 29.0005 13.4032C28.9892 13.3975 28.9835 13.3862 28.9666 13.3806L28.9835 13.3693L28.9666 13.3523C28.9666 13.3523 28.9666 13.3241 28.9835 13.3185C28.961 13.2733 28.944 13.2338 28.9271 13.1829H28.8932V13.1547H28.8706C28.8706 13.1547 28.8706 13.1208 28.8875 13.1095H28.9045L28.9101 13.07C28.9327 13.07 28.9271 13.07 28.9327 13.07C28.9497 13.07 28.9327 13.07 28.9497 13.0587C28.9271 13.0361 28.9497 13.0361 28.9158 13.0248C28.9158 13.0023 28.9214 12.991 28.9158 12.9797H28.9101V12.9571H28.8988L28.9158 12.9458C28.9158 12.9345 28.9158 12.9232 28.9101 12.9119C28.9101 12.9119 28.897 12.9025 28.8706 12.8837V12.8724H28.848H28.8141V12.8555L28.7972 12.8611C28.7859 12.8385 28.7859 12.8216 28.7859 12.799H28.769C28.7803 12.7708 28.7859 12.7369 28.7972 12.7143H28.8141C28.8141 12.7143 28.8141 12.6917 28.7972 12.6748H28.7803V12.6635H28.769L28.7803 12.6352L28.752 12.6183V12.5901C28.752 12.5901 28.7407 12.5675 28.7182 12.5505V12.5336H28.7012V12.5901L28.6504 12.5675C28.6504 12.5675 28.673 12.5449 28.6899 12.5336C28.6899 12.4941 28.673 12.4828 28.673 12.4433C28.656 12.4376 28.6391 12.4263 28.6335 12.4207C28.6335 12.4037 28.6335 12.4207 28.6335 12.4094C28.6335 12.3868 28.6335 12.3698 28.6335 12.3473H28.6222C28.6222 12.3473 28.6052 12.3473 28.5939 12.3473H28.577C28.577 12.3473 28.5657 12.3077 28.5657 12.2908H28.5544V12.2739V12.3021H28.5092V12.3077C28.481 12.2964 28.4866 12.2964 28.4641 12.2795L28.4753 12.2569H28.5092V12.24H28.5431L28.5262 12.2117C28.5318 12.2061 28.5318 12.2005 28.5431 12.1892C28.5431 12.1892 28.5356 12.1854 28.5205 12.1779C28.5205 12.1779 28.5431 12.1666 28.5431 12.144H28.5318C28.5431 12.0932 28.5431 12.0875 28.5149 12.0593H28.4753C28.4753 12.0593 28.4753 12.0424 28.4584 12.0367L28.4697 12.0085C28.4753 11.9746 28.4697 11.9577 28.4471 11.9351V11.9125H28.3907L28.4866 11.568H28.4189C28.3342 11.4721 28.3342 11.4495 28.306 11.2518C28.0801 11.1558 28.0406 10.9469 28.0067 10.9243C27.8034 10.7267 27.8034 10.6985 27.6792 10.5008C27.6227 10.4783 27.5493 10.4613 27.4929 10.45L27.3969 10.275C27.3178 10.2298 27.3235 10.1733 27.2331 10.1282L27.2049 10.0548L27.0863 9.98137C27.0468 9.88538 26.8943 9.82326 26.8491 9.72727C26.5329 9.67081 26.5951 9.48447 26.3297 9.48447C26.3014 9.46753 26.2845 9.45059 26.2563 9.4393C26.2563 9.4393 26.2563 9.43177 26.2563 9.41671H26.228C26.2224 9.41671 26.2111 9.40542 26.1998 9.39978H26.2563L26.2393 9.31508H26.1659C26.1772 9.24732 26.1377 9.25861 26.1546 9.17956C26.0699 9.15133 25.9683 9.09486 25.8949 9.07792H25.8836C25.8836 9.07792 25.8836 9.0384 25.8554 9.02146L25.8384 9.03275L25.7989 9.00452H25.765C25.765 9.00452 25.7255 8.97629 25.6973 8.93111L25.782 8.88594L25.7537 8.82948C25.7142 8.82948 25.686 8.84077 25.6577 8.84642C25.5448 8.82948 25.5617 8.77301 25.5279 8.67702L25.4714 8.7109C25.4375 8.67137 25.4149 8.64314 25.3867 8.60926L25.3359 8.64314C25.3359 8.64314 25.3359 8.63749 25.3359 8.63185C25.3076 8.58103 25.2907 8.58103 25.2455 8.54715C25.2229 8.53586 25.206 8.50762 25.1778 8.49068C25.1778 8.4681 25.1665 8.4568 25.1552 8.44551H25.11C25.0761 8.44551 25.0761 8.42293 25.0366 8.41728C25.0253 8.41728 25.0084 8.42293 24.9971 8.42857C24.9914 8.42857 24.9858 8.42857 24.9745 8.40599C24.9801 8.36081 24.9801 8.31 24.9745 8.27612C24.9406 8.28741 24.9124 8.30435 24.8785 8.29306C24.8333 8.27612 24.839 8.23094 24.8164 8.214C24.7599 8.17448 24.743 8.2253 24.6922 8.2253C24.6583 8.214 24.647 8.18013 24.6244 8.16319C24.6018 8.1406 24.5623 8.13495 24.551 8.11237C24.4945 8.05025 24.5171 8.02202 24.4494 8.00508C24.4099 8.00508 24.3929 8.00508 24.3703 8.00508C24.3477 8.01073 24.3421 8.01638 24.3252 8.02202C24.3252 8.01638 24.3139 8.01638 24.3082 8.00508C24.3082 8.00508 24.3421 7.96556 24.3082 7.93168H24.2405L24.2066 7.87521L24.1501 7.90909C24.1049 7.88651 24.0541 7.86392 24.0089 7.84133L23.9807 7.85827C23.9355 7.82439 23.9525 7.76793 23.896 7.76793C23.8283 7.79051 23.7605 7.81875 23.6927 7.84133L23.6702 7.81875L23.6984 7.80181L23.6814 7.76793L23.7718 7.7284C23.7605 7.68888 23.7436 7.6437 23.7323 7.59853L23.704 7.61547C23.6363 7.59289 23.5572 7.61547 23.4669 7.6437L23.4217 7.55336C23.3483 7.58159 23.3427 7.56465 23.2862 7.56465L23.2636 7.53642C23.162 7.53642 23.2241 7.62677 23.1111 7.51383C23.0095 7.55336 23.0152 7.53642 22.953 7.55336C22.9474 7.54771 22.9418 7.54207 22.9361 7.53642C22.8796 7.51383 22.8232 7.50254 22.7554 7.49125C22.7385 7.46866 22.7272 7.45737 22.7102 7.44608L22.6877 7.46866C22.6877 7.46866 22.6481 7.45737 22.6425 7.44608C22.6255 7.44608 22.603 7.43478 22.603 7.43478L22.586 7.4122C22.5408 7.39526 22.5183 7.39526 22.4957 7.40655C22.4562 7.38961 22.411 7.37267 22.3771 7.35009C22.3658 7.34444 22.3545 7.32185 22.3432 7.29362C22.2924 7.30491 22.2642 7.30491 22.2303 7.30491C22.1908 7.25974 22.1399 7.2428 22.0835 7.23715C22.0609 7.22586 22.044 7.20892 22.0214 7.18634C21.9875 7.25409 21.931 7.23151 21.9028 7.25974C21.8463 7.27103 21.7955 7.27668 21.739 7.27668L21.6939 7.26539L21.6035 7.18069C21.4567 7.24845 21.4228 7.12987 21.3043 7.11293L21.2421 7.02823L20.9429 7.15246L20.8808 7.0847C20.7678 7.0847 20.8187 7.02823 20.6831 7.07905L20.5759 7.06776L20.4912 7.02259L20.4347 7.00565C20.3726 7.09035 20.35 6.98871 20.2822 7.06211L20.1354 7.02259C19.9604 7.0847 20.0056 7.12422 19.7853 6.99435C19.6668 7.10164 19.6103 7.10728 19.4917 7.12422L19.4409 7.06211C19.1868 7.09035 19.2941 7.28233 18.8875 7.14681C18.7069 7.26539 18.7464 7.10164 18.6391 7.28233C18.56 7.2428 18.5092 7.28797 18.4076 7.2428L18.2043 7.36703L17.9051 7.32185C17.9163 7.4009 17.6001 7.44043 17.6566 7.53077C17.3799 7.58724 17.4533 7.45172 17.2388 7.62677L17.092 7.58724C16.9734 7.58724 16.9677 7.63241 16.8774 7.66064L16.9677 7.69452L16.9169 7.7397C16.8548 7.7284 16.7814 7.7284 16.7136 7.71711C16.691 7.7284 16.6685 7.7284 16.6515 7.7397C16.3466 7.80745 16.2337 7.75664 16.2393 7.87521L16.1038 7.88651C16.0473 7.7397 16.0756 8.01638 15.9739 7.84698C15.8836 7.86392 15.8045 7.93732 15.7198 7.97685C15.6577 7.95426 15.573 7.86392 15.5279 7.83569L15.2455 8.25918L15.1778 8.214L15.2399 8.15754L15.1665 8.10672C15.127 8.18577 15.0931 8.25353 15.0648 8.33823L14.9914 8.29306L14.8051 8.45116C14.6414 8.45116 14.4945 8.50198 14.3477 8.53021L14.263 8.67137C14.1896 8.67702 14.1162 8.67702 14.0541 8.67702C14.0202 8.77301 13.9299 9.09486 13.7605 9.26426C13.7097 9.2812 13.6476 9.29249 13.5798 9.31508L13.4895 9.55223C13.4274 9.56917 13.3878 9.64822 13.3427 9.65387C13.3427 9.69339 13.3257 9.72163 13.3088 9.74421H13.2805L13.2241 9.7668L13.2975 9.77809C13.2975 9.77809 13.2805 9.81762 13.2805 9.83456C13.2241 9.84585 13.1507 9.85714 13.1055 9.87408L13.0434 9.99831L12.97 9.97572C12.8175 10.0887 12.874 10.0887 12.8627 10.2185C12.8345 10.2016 12.7949 10.2355 12.7554 10.258C12.6368 10.2919 12.5296 10.2919 12.4844 10.4952H12.3602L12.3376 10.6646H12.219C12.1851 10.8171 12.2811 10.8848 12.2868 10.913C12.2868 10.913 12.1795 10.9243 12.1512 11.0599C12.0044 11.0429 12.0327 11.1502 11.8802 11.1163L11.7447 11.3252H11.8689L11.7955 11.4043C11.7616 11.4269 11.7277 11.4438 11.6995 11.4608H11.6261V11.5059C11.6261 11.5059 11.6092 11.5116 11.6035 11.5116C11.6035 11.5229 11.5866 11.5398 11.5866 11.5455L11.3833 11.6019C11.4398 11.8165 11.3833 11.7995 11.4285 11.8391C11.4059 11.8617 11.3946 11.8955 11.372 11.9238H11.2817C11.2817 12.0085 11.2817 12.0593 11.2817 12.0932C11.2478 12.1496 11.2083 12.2117 11.1687 12.2739C11.1349 12.3642 11.0276 12.415 11.0953 12.5167C11.0728 12.5731 11.0615 12.6409 11.0219 12.6973H10.9655V12.7708C10.9655 12.7708 10.909 12.799 10.8751 12.8103C10.8751 12.8272 10.8695 12.8611 10.8582 12.878C10.7622 12.895 10.8582 12.878 10.7396 12.9401H10.6662L10.6436 13.358C10.6436 13.358 10.6154 13.3467 10.5646 13.4992L10.6154 13.6008C10.5759 13.7307 10.5533 13.8605 10.5646 13.9735C10.542 14.1146 10.3556 14.1767 10.3782 14.3235C10.3782 14.3235 10.3763 14.3273 10.3726 14.3348L10.3444 14.3687C10.3839 14.5663 10.2766 14.7357 10.2145 14.9051C10.1862 14.9842 10.3274 15.0632 10.1975 15.1028C10.1298 15.1875 10.2032 15.2835 10.2145 15.3682C10.2879 15.4529 10.3613 15.5432 10.429 15.6279C10.4234 15.6505 10.4121 15.6618 10.4065 15.6674C10.3726 15.6957 10.3387 15.6674 10.2992 15.7126C10.2766 15.7465 10.2314 15.7804 10.2653 15.8142C10.2822 15.8255 10.2935 15.8255 10.2992 15.8425C10.3048 15.8594 10.2992 15.8763 10.2992 15.8933C10.2653 15.8989 10.254 15.8538 10.2201 15.865C10.2201 15.882 10.2088 15.9046 10.2032 15.9215C10.2201 15.9328 10.2484 15.9441 10.2653 15.9497C10.2992 16.057 10.175 16.1135 10.175 16.1643C10.175 16.2151 10.2258 16.2038 10.2314 16.2264V16.3507C10.2879 16.345 10.3387 16.3337 10.3952 16.3224V16.3845C10.3105 16.3845 10.2653 16.3902 10.2032 16.4015C10.2088 16.4015 10.2032 16.4128 10.2032 16.4128C10.2258 16.4297 10.2484 16.4241 10.254 16.441C10.2822 16.4636 10.2709 16.5088 10.2427 16.537C10.2201 16.5596 10.1975 16.537 10.175 16.5709C10.1637 16.5709 10.1354 16.6556 10.1411 16.6669C10.158 16.7007 10.2201 16.6838 10.2314 16.7007C10.2427 16.7177 10.2201 16.7685 10.2032 16.7854C10.158 16.808 10.1637 16.7516 10.1411 16.7346C10.1354 16.729 10.1298 16.729 10.1298 16.729L10.1185 16.7572C10.1185 16.7572 10.1298 16.7854 10.1354 16.7967C10.1241 16.7911 10.1072 16.7741 10.1015 16.7685C10.0564 16.7798 10.0169 16.7911 9.97168 16.7967C9.98862 16.8701 10.0394 16.8984 10.0903 16.9266C10.0903 16.9379 10.079 16.9548 10.0846 16.9718L10.1015 16.9266H10.1298C10.1298 16.9661 10.1015 16.9831 10.0846 17.0056C10.079 17.0339 10.0677 17.0565 10.0846 17.0847C10.1128 17.1129 10.158 17.1073 10.175 17.1355C10.1919 17.1468 10.175 17.1976 10.1693 17.2146C10.1524 17.2484 10.1467 17.2654 10.1467 17.3106C10.1467 17.3331 10.1298 17.3727 10.1467 17.4066C10.158 17.4348 10.2032 17.4404 10.2201 17.4743C10.2201 17.4969 10.2201 17.5195 10.2145 17.5251L10.1919 17.5308V17.5929C10.1919 17.5929 10.1467 17.6155 10.1298 17.6324C10.1185 17.7341 10.1072 17.8357 10.0959 17.943H10.1693C10.1919 18.039 10.2258 18.0446 10.2258 18.1858C10.254 18.1914 10.2822 18.2084 10.3161 18.214C10.3048 18.2987 10.2935 18.3834 10.2766 18.4737C10.3048 18.4737 10.3274 18.485 10.3444 18.4963V18.5584H10.3782C10.3669 18.6036 10.3556 18.6488 10.3444 18.6827H10.3105C10.2879 18.7504 10.3218 18.8295 10.3444 18.869H10.3782V19.0215H10.4065V19.0553C10.4799 19.0836 10.4742 19.0045 10.4968 18.9989H10.5363C10.5363 18.9989 10.5476 19.0328 10.5476 19.0553C10.5194 19.0553 10.4912 19.0553 10.4742 19.0553C10.429 19.0779 10.4573 19.1344 10.4742 19.1626C10.4968 19.1965 10.5025 19.2304 10.5081 19.253C10.4968 19.253 10.4855 19.253 10.4742 19.2699C10.4516 19.2756 10.4234 19.3207 10.4573 19.3377C10.4855 19.3377 10.5081 19.3377 10.5194 19.3207C10.5194 19.3772 10.5194 19.4224 10.5646 19.4732C10.6041 19.5014 10.6549 19.524 10.6549 19.5805C10.6662 19.6369 10.6097 19.6652 10.6606 19.699C10.717 19.7499 10.7396 19.7273 10.7453 19.812C10.7453 19.908 10.8017 19.8684 10.8695 19.891C10.8864 19.9644 10.717 20.0209 10.8469 20.0661C10.8469 20.1169 10.7904 20.1903 10.8074 20.2298C10.8243 20.2637 10.8808 20.2298 10.8977 20.2863C10.8921 20.3032 10.8921 20.3315 10.8921 20.3484C10.8977 20.3766 10.9146 20.3879 10.9259 20.4049C10.9429 20.45 10.9259 20.4783 10.9429 20.5178C11.005 20.5404 11.0784 20.5178 11.0671 20.5855C11.0671 20.6251 11.0163 20.6872 11.0276 20.7211C11.0276 20.7493 11.0615 20.7437 11.084 20.7437C11.1066 20.8001 11.0502 20.8509 11.0728 20.9187H11.1066C11.1236 20.9582 11.0897 21.0373 11.1179 21.0768C11.1462 21.105 11.2026 21.0768 11.2421 21.0937C11.2591 21.1615 11.2365 21.2123 11.2647 21.2744C11.2873 21.3027 11.3212 21.4043 11.372 21.4043C11.372 21.4495 11.4003 21.4438 11.4172 21.4721C11.4228 21.489 11.4228 21.5116 11.4228 21.5285C11.4228 21.5568 11.4341 21.5624 11.4341 21.5793C11.4454 21.6019 11.4454 21.6076 11.4341 21.6189C11.4511 21.6414 11.468 21.6414 11.4793 21.6697C11.5132 21.7261 11.4454 21.7657 11.4172 21.7996C11.4172 21.8278 11.4624 21.8278 11.4849 21.8391C11.5358 21.856 11.5471 21.8673 11.5696 21.9125C11.5922 21.9407 11.6035 21.9464 11.6148 21.9802C11.6148 22.0085 11.6035 22.048 11.6148 22.0706C11.6318 22.0875 11.6769 22.0706 11.6995 22.0875C11.739 22.1045 11.7108 22.1327 11.7165 22.1609C11.7334 22.2005 11.7616 22.24 11.8012 22.24C11.8181 22.2964 11.8124 22.3529 11.8294 22.4094C11.8689 22.4207 11.9028 22.4094 11.931 22.4094C11.948 22.4545 11.9197 22.511 11.9536 22.5449C11.9649 22.5562 11.9762 22.5618 11.9762 22.5618V22.6352H12.027V22.6691C12.0609 22.6465 12.0778 22.6409 12.1343 22.6352C12.1343 22.6409 12.1399 22.6465 12.1512 22.6465C12.1343 22.7086 12.123 22.7651 12.1174 22.8272C12.219 22.8272 12.2811 22.8329 12.3376 22.8893V22.9514C12.3376 22.9514 12.3997 22.9289 12.4336 22.9232V22.9514C12.4787 22.9797 12.4787 22.991 12.5578 23.0192V23.0757H12.5917V23.1095H12.5578V23.2338C12.5917 23.2451 12.6143 23.2564 12.6538 23.2564C12.6368 23.3241 12.6538 23.2902 12.6143 23.3241C12.6594 23.358 12.6143 23.3354 12.682 23.3523C12.699 23.4709 12.7272 23.437 12.7441 23.5387C12.7893 23.5387 12.8288 23.5613 12.8683 23.5726C12.8909 23.6347 12.8683 23.6008 12.8966 23.6347V23.6629C12.9418 23.6516 12.9869 23.6347 13.0208 23.6347L13.049 23.7533H13.2354V23.8436H13.2015C13.2975 23.9622 13.5121 23.9848 13.6306 23.996C13.6306 24.0299 13.6137 24.0582 13.608 24.0864H13.6306C13.6589 24.1542 13.6758 24.2106 13.6984 24.2784C13.7887 24.301 13.7831 24.3348 13.7887 24.3405C13.8565 24.3687 13.8847 24.3066 13.913 24.3066V24.3405C13.9638 24.3744 13.9581 24.3574 13.9751 24.4365C14.0372 24.4478 14.0993 24.4534 14.1558 24.4647C14.1727 24.4873 14.184 24.5099 14.1953 24.5212C14.2405 24.5155 14.2913 24.5099 14.3534 24.4929V24.5212C14.4099 24.5607 14.4042 24.5776 14.5058 24.5889V24.6849H14.6301V24.651H14.6639C14.6639 24.651 14.6865 24.6906 14.6978 24.7132C14.7656 24.7527 14.7656 24.7245 14.8503 24.7132V24.7753C14.8898 24.7922 14.918 24.7979 14.9463 24.8035C14.9858 24.8487 15.0197 24.9051 15.0592 24.9503C15.0874 25.0463 15.1213 25.1479 15.1439 25.2496C15.2117 25.2948 15.2964 25.3286 15.398 25.323C15.6069 25.5206 15.8836 25.5658 16.1038 25.7182C16.1998 25.7465 16.3014 25.7747 16.3692 25.865C16.5104 25.7916 16.5838 25.9272 16.708 25.9159C16.787 26.0514 16.9677 26.0232 17.092 26.0514C17.2105 26.0627 17.2331 26.266 17.3573 26.1643C17.4985 26.17 17.6453 26.2603 17.7865 26.3111C17.9107 26.266 18.097 26.3111 18.1874 26.3958C18.3568 26.2998 18.5036 26.4862 18.6956 26.4353C18.8311 26.537 18.9553 26.4128 19.0965 26.4918C19.2941 26.537 19.4014 26.537 19.5934 26.5935L19.6047 26.6217C19.7797 26.52 19.8813 26.7911 20.0564 26.7741C20.0903 26.6273 20.1524 26.5088 20.2371 26.3902C20.3274 26.3394 20.4686 26.3507 20.5533 26.4184C20.7453 26.3168 20.8864 26.5822 21.101 26.4862C21.4003 26.8645 21.9141 26.6612 22.2811 26.6612C22.4844 26.712 22.6764 26.4466 22.8683 26.5709C23.1507 26.2942 23.3935 26.6669 23.6814 26.4975C23.817 26.3619 23.8847 26.1982 23.9355 25.9949C24.0089 25.9385 24.0936 25.8029 24.1727 25.8989C24.1727 25.8763 24.1727 25.8368 24.184 25.8142C24.1953 25.786 24.2009 25.7973 24.2122 25.7691L24.2517 25.7804V25.7521H24.2743V25.7295C24.2743 25.7295 24.2856 25.7295 24.2969 25.7069C24.3195 25.7126 24.3195 25.7069 24.3195 25.7352H24.3477V25.7239C24.376 25.7295 24.3703 25.7295 24.376 25.7465C24.3986 25.7295 24.4099 25.7126 24.4211 25.6957H24.4324V25.6674C24.4324 25.6674 24.455 25.6674 24.455 25.6561H24.4945V25.6335C24.5284 25.6335 24.5567 25.6335 24.5736 25.6335H24.5962L24.6075 25.5997H24.647V25.5827H24.6583V25.5714L24.7204 25.5827V25.5658C24.7712 25.5714 24.7543 25.5658 24.7882 25.5601C24.7882 25.5375 24.7882 25.5319 24.7825 25.515C24.7995 25.515 24.8051 25.515 24.822 25.515C24.8446 25.4698 24.839 25.5037 24.8785 25.4924C24.8842 25.4924 24.8898 25.4754 24.9011 25.4698H24.9124L24.935 25.4585L24.9519 25.4472C24.9519 25.4472 24.9689 25.4585 24.9914 25.4585V25.4472L25.0084 25.4529L25.0197 25.4359H25.0536C25.0536 25.4359 25.0761 25.3964 25.0987 25.3794L25.1326 25.3907C25.1326 25.3907 25.1439 25.3625 25.1495 25.3512C25.1608 25.3512 25.1721 25.3512 25.1721 25.3512L25.1834 25.3399H25.2173C25.2173 25.3399 25.2286 25.3286 25.2399 25.323V25.3004H25.2681V25.2948H25.2794L25.2851 25.2609C25.3359 25.2722 25.3359 25.2552 25.3754 25.2439C25.3641 25.2439 25.3641 25.2383 25.3641 25.227H25.3754L25.3923 25.1931C25.4262 25.2044 25.4319 25.1988 25.4545 25.1931L25.4714 25.1875C25.5109 25.1705 25.494 25.1931 25.5109 25.1536C25.5448 25.1536 25.5448 25.1423 25.5787 25.1366C25.5787 25.1141 25.5787 25.1028 25.5956 25.0915H25.6126L25.6182 25.0802C25.6408 25.0802 25.6351 25.0802 25.6408 25.0689H25.6577V25.0407H25.6747L25.686 25.0068C25.7368 25.0068 25.7198 24.9898 25.7537 24.9673H25.7594L25.782 24.9447H25.8158C25.8158 24.9447 25.8271 24.9277 25.8328 24.9164H25.861C25.861 24.9164 25.8892 24.8995 25.9005 24.8769H25.9288C25.9288 24.8769 25.9344 24.8261 25.9401 24.7979C25.9796 24.7979 25.9909 24.7696 26.0417 24.7753V24.764C26.0417 24.764 26.0756 24.7527 26.0982 24.7527C26.1095 24.7414 26.1151 24.7188 26.1207 24.7075H26.1377L26.1546 24.6906H26.1716C26.1716 24.6906 26.1942 24.668 26.2111 24.651H26.2393V24.6285H26.2619C26.2619 24.6285 26.2732 24.6172 26.2789 24.6059H26.2958C26.2958 24.6059 26.2958 24.5833 26.3184 24.5663H26.3523C26.3635 24.5494 26.3692 24.5381 26.3748 24.5212H26.3974C26.3974 24.5212 26.4087 24.5099 26.4144 24.4986L26.4652 24.5099C26.4652 24.5099 26.4765 24.476 26.4878 24.4534C26.5386 24.4534 26.5104 24.4421 26.5329 24.4195C26.5442 24.4308 26.5555 24.4308 26.5668 24.4082H26.6063C26.6063 24.4082 26.6063 24.3292 26.6346 24.3235L26.6628 24.3405C26.6628 24.3405 26.6741 24.3292 26.6798 24.3235H26.691L26.7645 24.2501H26.7814C26.7814 24.2501 26.804 24.205 26.8209 24.1993C26.8209 24.1993 26.8284 24.2031 26.8435 24.2106V24.1937C26.8435 24.1937 26.8604 24.1937 26.8661 24.1824H26.8887C26.9056 24.1542 26.9169 24.1542 26.9395 24.1259V24.109H26.9621V24.0864H26.9734C26.9734 24.0864 27.0129 24.0525 27.0298 24.0412H27.0524L27.0637 23.996L27.1032 24.0073C27.1032 24.0073 27.1032 23.9904 27.1315 23.9735H27.1428V23.9509C27.1541 23.9509 27.171 23.9396 27.1879 23.9283L27.1992 23.9057H27.2218V23.8944H27.2388C27.2388 23.8944 27.2557 23.8549 27.267 23.8492H27.2952L27.3065 23.7984C27.3065 23.7984 27.3178 23.7984 27.3235 23.7702C27.3686 23.7702 27.3686 23.7815 27.3799 23.7533H27.3969L27.4082 23.7194C27.4533 23.7194 27.442 23.6968 27.4646 23.6629C27.4646 23.6629 27.4816 23.6629 27.4872 23.6629V23.6177H27.5098V23.6064L27.555 23.6177V23.5613C27.6114 23.5613 27.5945 23.5556 27.6227 23.5443V23.5161C27.6679 23.5161 27.651 23.4992 27.6848 23.4879V23.4596L27.7187 23.4709V23.437H27.7413C27.7413 23.437 27.7413 23.4201 27.7413 23.4088V23.3975L27.7582 23.3919C27.7695 23.3862 27.7695 23.358 27.7865 23.3523C27.8091 23.3467 27.8204 23.3636 27.8316 23.3523V23.3072H27.8599C27.8599 23.2846 27.8655 23.2789 27.8712 23.2733H27.8994C27.8994 23.2733 27.8994 23.2338 27.922 23.2281C27.9333 23.2225 27.9389 23.2225 27.9502 23.2225C27.9615 23.2112 27.9672 23.1886 27.9672 23.1773C27.9785 23.1773 27.9841 23.1717 28.001 23.166V23.1491H28.0123V23.0926H28.0462V23.0757H28.0632C28.0632 23.0757 28.0744 23.0587 28.0744 23.0531H28.1027C28.1027 23.0531 28.1027 23.0192 28.1027 23.0079C28.1196 23.0079 28.1196 23.0023 28.1479 23.0079V22.9514H28.1761V22.9345H28.193V22.8837H28.21L28.2269 22.8385H28.2382C28.2382 22.8385 28.2495 22.8216 28.2608 22.8103V22.8216C28.306 22.7369 28.3568 22.7199 28.3737 22.6296H28.4019V22.6127H28.4245C28.4245 22.6127 28.4245 22.5901 28.4245 22.5788H28.4471V22.5618H28.4584V22.5449H28.4641C28.481 22.5223 28.481 22.511 28.4866 22.4828H28.4979L28.5092 22.4658H28.5262C28.5262 22.4658 28.5149 22.4376 28.5092 22.432V22.4207L28.5657 22.432C28.5657 22.432 28.5883 22.3811 28.5939 22.3586H28.6165V22.3134C28.6335 22.3134 28.6278 22.3134 28.6335 22.3077L28.6447 22.2739L28.6673 22.2626C28.6673 22.2626 28.6617 22.2117 28.656 22.1948H28.673L28.6956 22.1722C28.6956 22.1722 28.7181 22.1722 28.7294 22.1722V22.144L28.7464 22.1553V22.1271H28.7577L28.7746 22.0536C28.7746 22.0536 28.8028 22.0536 28.8311 22.0424C28.8311 21.9972 28.8593 21.9972 28.8706 21.952H28.8932C28.8932 21.952 28.8932 21.9068 28.8932 21.8786C28.8932 21.8786 28.9101 21.8786 28.9158 21.8786C28.9271 21.8617 28.9101 21.856 28.9101 21.856C28.9158 21.8334 28.9271 21.8221 28.9271 21.8108H28.961V21.7713H28.9722C28.9722 21.7713 28.9722 21.7544 28.9666 21.7374H28.9948C28.9948 21.7374 28.9779 21.7149 28.9779 21.6866H28.9948V21.6753C28.9948 21.6753 29.0118 21.6753 29.0174 21.6697L29.0287 21.6471C29.0287 21.6471 29.04 21.6414 29.0456 21.6245H29.0682L29.0795 21.5624H29.0908H29.1021C29.1021 21.5624 29.1134 21.5342 29.1134 21.5116H29.1303L29.1416 21.4608H29.1586L29.1699 21.393H29.1925L29.1981 21.3704V21.3591C29.1981 21.3422 29.2094 21.3365 29.2094 21.3196H29.232V21.2405H29.2433C29.2433 21.2405 29.232 21.2462 29.232 21.2405L29.2489 21.1558H29.2772C29.2772 21.1558 29.2997 21.0937 29.311 21.0599H29.328C29.328 21.0599 29.3393 21.0316 29.3449 21.026H29.3562V20.9752H29.3675V20.9526H29.3788C29.4127 20.9074 29.4127 20.8566 29.4127 20.8114H29.4522V20.8058C29.4861 20.7832 29.4578 20.7324 29.5143 20.7154C29.5143 20.6815 29.503 20.6815 29.4917 20.6702C29.4917 20.6646 29.4917 20.6533 29.503 20.6364H29.5143C29.5143 20.6364 29.4974 20.6025 29.52 20.5799C29.5256 20.5743 29.5369 20.5743 29.5482 20.563C29.5482 20.5291 29.5595 20.5121 29.5708 20.4839H29.5934L29.6216 20.354H29.6103C29.6103 20.354 29.6216 20.3202 29.6272 20.2976H29.6442C29.6442 20.2976 29.6498 20.2637 29.6555 20.2411H29.6724C29.6724 20.2411 29.6837 20.2072 29.6894 20.1903H29.7063V20.179H29.7006V20.1338H29.7063C29.7063 20.1338 29.7176 20.0999 29.7289 20.083H29.7176V20.0717H29.7345L29.7458 19.987H29.7515V19.9701H29.7628L29.7853 19.8854H29.7966V19.8628V19.8459C29.7966 19.8346 29.8136 19.8346 29.8136 19.8346C29.8136 19.8233 29.8136 19.8063 29.8136 19.8007L29.8362 19.7837C29.8362 19.7837 29.8249 19.7781 29.8362 19.7499C29.8362 19.7499 29.8475 19.7499 29.8362 19.7273C29.8362 19.7273 29.8362 19.7273 29.8362 19.716C29.8362 19.6595 29.8531 19.6143 29.87 19.5466H29.887C29.887 19.5466 29.887 19.5353 29.887 19.5184C29.887 19.5184 29.887 19.5014 29.887 19.4675H29.8757V19.4449H29.8587V19.4054H29.8475V19.3772C29.8475 19.3772 29.8644 19.3433 29.8644 19.3264H29.887C29.887 19.3264 29.8983 19.2868 29.9039 19.2643L29.9491 19.2473L29.9322 19.2191L29.9491 19.1344C29.9491 19.1344 29.9322 19.1287 29.9096 19.1174C29.9265 19.0553 29.9265 18.9989 29.9491 18.9368H29.9322C29.9491 18.8972 29.9491 18.8746 29.9604 18.8464H29.9434C29.9434 18.8069 29.9434 18.7674 29.9434 18.7335C29.9434 18.7222 29.9604 18.7053 29.9604 18.694H29.9547C29.9604 18.6657 29.9717 18.6375 29.983 18.6036C29.9717 18.6036 29.9604 18.5923 29.9547 18.581L29.9773 18.5359H29.9604C29.9604 18.5359 29.983 18.4963 29.983 18.4737V18.4286V18.4173H29.9717C29.9717 18.389 29.983 18.3608 29.9717 18.3326C29.966 18.3213 29.9717 18.3326 29.9547 18.3213C29.9547 18.3213 29.9472 18.3269 29.9322 18.3382L29.9209 18.3665H29.9152L29.9209 18.3778C29.9096 18.4116 29.9039 18.4342 29.8983 18.4568C29.8983 18.4568 29.9096 18.485 29.8983 18.502V18.5246L29.887 18.6093H29.8983L29.87 18.6601H29.887V18.677H29.8983L29.8926 18.6883H29.8813C29.87 18.7391 29.8531 18.7843 29.8418 18.8295H29.8531V18.8521C29.8531 18.8916 29.8249 18.9198 29.8136 18.9368C29.8192 18.9368 29.8305 18.9424 29.8362 18.9481C29.8362 18.9706 29.8249 18.9876 29.8192 19.0102V19.0215L29.7966 19.0779C29.7966 19.0779 29.8079 19.0836 29.8079 19.1005C29.7966 19.14 29.7853 19.1626 29.7741 19.2021H29.7853C29.7853 19.2021 29.774 19.253 29.7684 19.2699H29.7741V19.2925C29.7797 19.3151 29.774 19.332 29.7684 19.3377H29.7571L29.7458 19.3772V19.3941L29.7345 19.4393H29.7176L29.7119 19.4449H29.7232C29.7232 19.4449 29.7232 19.4449 29.7119 19.4619C29.7119 19.4901 29.7119 19.5127 29.7063 19.5353C29.7063 19.5409 29.7345 19.5579 29.7289 19.5748C29.7289 19.5748 29.7119 19.5805 29.695 19.5918C29.6668 19.6143 29.7006 19.6313 29.6724 19.6708H29.6668V19.699H29.6555V19.7329C29.6555 19.7329 29.6216 19.7442 29.6159 19.7499L29.5934 19.812H29.6103C29.6103 19.812 29.5877 19.8515 29.5821 19.8628H29.6159C29.6159 19.8628 29.6047 19.8967 29.5934 19.908H29.6103H29.599V19.9362H29.5877V19.9927V20.0096H29.5651V20.0378C29.5651 20.0378 29.5482 20.0604 29.5482 20.0717H29.5143C29.503 20.0999 29.4974 20.1338 29.4861 20.1621C29.4917 20.1621 29.4974 20.1677 29.503 20.179L29.4861 20.2298C29.4861 20.2298 29.4748 20.2298 29.4635 20.2298H29.4466V20.2524H29.424C29.424 20.2524 29.4296 20.3315 29.4296 20.3371C29.4183 20.354 29.4127 20.3879 29.407 20.4105H29.3844C29.3619 20.4613 29.3449 20.5121 29.311 20.563L29.3336 20.5743C29.3223 20.6081 29.311 20.642 29.3054 20.6702H29.3167V20.7211L29.2997 20.7098C29.2997 20.7098 29.2772 20.7211 29.2602 20.7154C29.2489 20.7549 29.2602 20.7662 29.232 20.7888C29.2207 20.8114 29.232 20.8058 29.1925 20.8114V20.8396H29.2094L29.1925 20.8679H29.1868C29.1868 20.8679 29.1755 20.9074 29.1699 20.93H29.1529C29.1529 20.93 29.1416 20.9695 29.136 20.9808C29.136 20.9808 29.136 20.9977 29.136 21.009H29.1134V21.0429C29.1134 21.0429 29.1078 21.0486 29.0965 21.0599L29.0739 21.0486C29.0739 21.0881 29.0739 21.105 29.0569 21.1502L29.0456 21.1841H29.0344V21.1954C29.0344 21.1954 29.0231 21.201 29.0061 21.201V21.2801C29.0061 21.2801 28.9892 21.2801 28.9779 21.2914C28.9779 21.2914 28.9666 21.3027 28.9666 21.3139C28.9666 21.3252 28.9892 21.3309 28.9892 21.3422V21.3535L28.9666 21.3591C28.944 21.3817 28.9497 21.3761 28.9158 21.3761V21.4325H28.8988C28.8988 21.4325 28.8819 21.4777 28.8819 21.5059H28.8537V21.5285C28.8311 21.5737 28.8254 21.6132 28.8141 21.6471H28.7972C28.7972 21.6923 28.7972 21.6866 28.7746 21.7487H28.7464V21.7939H28.7238C28.7238 21.8165 28.7125 21.8334 28.7012 21.8504H28.673V21.8955H28.6504V21.9407H28.6278L28.6109 21.9915H28.5996V22.0028H28.5826L28.5657 22.048H28.577H28.5431L28.5375 22.0536C28.5262 22.0762 28.5205 22.0875 28.5149 22.1101L28.4979 22.1609V22.1835H28.4697C28.4584 22.1948 28.4528 22.2174 28.4471 22.2456H28.4245C28.4245 22.2456 28.4132 22.2739 28.4076 22.2852H28.3794V22.3021H28.3568C28.3568 22.3021 28.3568 22.3473 28.3568 22.3755C28.306 22.3811 28.3342 22.3868 28.3116 22.4207H28.289V22.4602H28.2777C28.2777 22.4602 28.2438 22.4828 28.2325 22.528H28.21V22.5731H28.1987L28.21 22.5901V22.607C28.21 22.607 28.1874 22.607 28.1761 22.6183H28.1591C28.1422 22.6522 28.1196 22.6522 28.1083 22.6748V22.6973H28.097V22.7199L28.0801 22.7143V22.7256C28.0801 22.7256 28.0575 22.7369 28.0462 22.7425L28.0349 22.8046H28.0293V22.8216H28.001C27.9841 22.8442 27.9954 22.8667 27.9785 22.8837H27.9672V22.9063H27.9502L27.9615 22.9232L27.9502 22.9458C27.9163 22.974 27.9333 22.9571 27.8994 22.9514C27.8994 22.9627 27.8881 22.9684 27.8712 22.9966H27.8486C27.8486 23.0248 27.8599 23.0192 27.8655 23.0474C27.8316 23.0531 27.826 23.0474 27.8091 23.07C27.8091 23.07 27.7978 23.1095 27.7921 23.1378H27.7413C27.7357 23.1717 27.7244 23.2055 27.7357 23.2225H27.7244C27.7244 23.2225 27.7131 23.2225 27.7074 23.2112H27.6792V23.2507H27.6566V23.262H27.6397C27.6397 23.262 27.6227 23.2902 27.6171 23.3185C27.6058 23.3185 27.5945 23.3185 27.5832 23.3185C27.5719 23.3467 27.555 23.358 27.538 23.3806H27.5324V23.3975H27.5098C27.5098 23.3975 27.4985 23.3919 27.4816 23.4201H27.4646C27.4646 23.4201 27.4759 23.4314 27.4703 23.4596C27.4703 23.4596 27.4627 23.4672 27.4477 23.4822C27.4194 23.4709 27.4307 23.4822 27.4194 23.4709C27.4025 23.4822 27.4138 23.4822 27.3969 23.5048H27.3743L27.3799 23.5104V23.5274C27.3799 23.5274 27.3517 23.5104 27.3404 23.5161V23.5274L27.3291 23.5387H27.3178C27.3178 23.5387 27.3178 23.5556 27.3178 23.5782C27.2839 23.5782 27.2726 23.5951 27.2444 23.6008V23.629L27.2162 23.6177V23.629C27.1766 23.646 27.1654 23.6742 27.1597 23.7081C27.1428 23.7081 27.1428 23.7081 27.1315 23.7194V23.7363H27.0863V23.7533H27.0637C27.0637 23.7533 27.0468 23.7758 27.0411 23.7928H27.0242C27.0242 23.7928 26.979 23.8436 26.9677 23.8605H26.9508C26.9508 23.8605 26.9395 23.8775 26.9226 23.8718V23.8605H26.9169V23.8944H26.9C26.9 23.8944 26.8491 23.9057 26.8379 23.9057L26.8266 23.9339C26.8266 23.9339 26.804 23.9339 26.7927 23.9339V23.9735H26.7532C26.7362 24.0073 26.7193 24.0017 26.708 24.0525C26.6798 24.0582 26.6741 24.0638 26.6459 24.0582C26.6459 24.0807 26.6515 24.0864 26.6515 24.092H26.6233V24.109C26.612 24.109 26.6007 24.109 26.6007 24.109C26.6007 24.109 26.5781 24.1316 26.5612 24.1542H26.5386C26.5217 24.188 26.5104 24.1711 26.4765 24.1824C26.4652 24.1937 26.4482 24.205 26.4426 24.2219H26.4257C26.3974 24.2614 26.3861 24.2389 26.3692 24.2558C26.3692 24.2897 26.3692 24.2784 26.3353 24.301C26.3297 24.3123 26.3297 24.3123 26.324 24.3179H26.2676V24.3292H26.228C26.228 24.3292 26.1716 24.38 26.1659 24.3913H26.1207L26.0925 24.4421H26.0699L26.0586 24.4478C26.0586 24.4591 26.0473 24.4704 26.0417 24.476H26.0078C26.0078 24.476 26.0078 24.4929 25.9965 24.4986C25.9852 24.4986 25.9796 24.4929 25.9796 24.4929C25.9626 24.4929 25.9796 24.5155 25.9626 24.5212H25.9457H25.9175V24.5381C25.8949 24.5381 25.8761 24.5419 25.861 24.5494C25.8271 24.5663 25.8441 24.5381 25.8158 24.5663H25.7989C25.7989 24.5663 25.8045 24.5889 25.8158 24.6059C25.7763 24.6059 25.782 24.6002 25.7537 24.572L25.7368 24.5946H25.7481V24.6002H25.7368V24.6228C25.7368 24.6228 25.7029 24.6115 25.6803 24.6059H25.686L25.6747 24.6002C25.6747 24.5946 25.686 24.5833 25.686 24.572C25.7029 24.572 25.7086 24.572 25.7255 24.5663C25.7198 24.5494 25.7198 24.5438 25.7198 24.5381H25.686L25.6916 24.4986L25.6747 24.4873V24.4647C25.6747 24.4647 25.6916 24.476 25.7142 24.4817V24.4647H25.7424H25.7876C25.7932 24.4647 25.7932 24.4591 25.8045 24.4534C25.8215 24.4534 25.8215 24.4591 25.8441 24.4647V24.4478C25.8441 24.4478 25.8441 24.4534 25.8667 24.4365H25.8779V24.4195H25.9062V24.3857C25.9062 24.38 25.9288 24.3857 25.9288 24.3687C25.9288 24.3687 25.925 24.365 25.9175 24.3574V24.3461C25.9175 24.3461 25.9344 24.3179 25.9457 24.3066L25.9683 24.3235C25.9683 24.3235 25.9796 24.301 25.9852 24.2897C25.9852 24.284 26.0022 24.284 26.0078 24.2727H26.0304L26.0417 24.2558H26.053C26.053 24.2558 26.053 24.2332 26.0699 24.2332L26.0869 24.2106H26.1095C26.1095 24.1711 26.132 24.1824 26.1433 24.1542H26.1716C26.1716 24.1542 26.1885 24.1316 26.1998 24.1033C26.2167 24.1146 26.2054 24.1033 26.2167 24.1146H26.2224L26.228 24.0864H26.245C26.2732 24.0356 26.2845 24.0751 26.3127 24.0469V24.013H26.3353V24.0017L26.3861 24.013L26.3974 24.0186V23.9904C26.3974 23.9904 26.4257 23.9791 26.437 23.9791V23.9678H26.5047C26.5047 23.9678 26.5555 23.9452 26.5781 23.9339L26.5894 23.8718H26.5781C26.5781 23.8718 26.6007 23.8718 26.6063 23.8775L26.6176 23.8549H26.6346V23.8323H26.6459C26.6459 23.8323 26.6402 23.821 26.6402 23.8154C26.6741 23.7702 26.7136 23.7702 26.7419 23.7137C26.7419 23.7137 26.7588 23.7137 26.7645 23.725C26.7645 23.7137 26.7701 23.7081 26.7814 23.6968C26.7814 23.6968 26.7927 23.6968 26.804 23.6911C26.8153 23.6798 26.804 23.6629 26.804 23.6629C26.804 23.646 26.8153 23.6347 26.8209 23.6121H26.8322C26.8322 23.6121 26.8604 23.5951 26.9 23.5951C26.9113 23.5556 26.9226 23.55 26.9451 23.5161C26.9621 23.5161 26.9451 23.5161 26.9621 23.5161H26.9734L26.979 23.4879H26.996V23.4822C27.0298 23.4822 27.0242 23.4653 27.0581 23.4596V23.437H27.0863V23.454L27.0976 23.4032H27.1202C27.1202 23.4032 27.1484 23.358 27.1484 23.3298C27.1654 23.3298 27.1823 23.3411 27.2049 23.3411V23.3298H27.2162C27.2049 23.3015 27.2275 23.2789 27.2444 23.2394H27.2218V23.2225C27.2501 23.2112 27.2783 23.1999 27.3065 23.1942C27.3178 23.1604 27.3291 23.166 27.3404 23.1321H27.3573C27.3686 23.0983 27.3856 23.0983 27.3969 23.0757L27.4251 23.087V23.0757H27.4533C27.4533 23.0757 27.4759 23.0192 27.4872 23.0136C27.4872 23.0192 27.5041 23.0248 27.5211 23.0305V23.0023L27.5041 22.991C27.5154 22.9797 27.5154 22.974 27.5267 22.9571C27.5776 22.9571 27.5437 22.9458 27.5663 22.9176C27.5776 22.9176 27.5888 22.9119 27.6001 22.9006V22.878H27.6114V22.8667L27.6623 22.878C27.6623 22.878 27.6679 22.8667 27.6792 22.8442H27.6905V22.799H27.6961C27.6961 22.799 27.7074 22.782 27.7074 22.7538C27.7244 22.7538 27.73 22.7538 27.7469 22.7538C27.7526 22.7425 27.7639 22.7256 27.7639 22.7086H27.7865C27.7865 22.7086 27.8034 22.6578 27.8091 22.6352L27.8429 22.6239V22.5957C27.8429 22.5957 27.8599 22.5957 27.8825 22.5788C27.8825 22.5675 27.8994 22.5562 27.8994 22.5392C27.9107 22.5392 27.9276 22.528 27.9446 22.5223V22.4715H27.9615C27.9728 22.4602 27.9785 22.4545 27.9785 22.4489H28.018V22.432H28.0293L28.0406 22.3924H28.0293C28.0293 22.3924 28.0519 22.3247 28.0575 22.3247C28.0857 22.3134 28.1196 22.3247 28.1366 22.3247H28.1479C28.1479 22.3077 28.1366 22.2908 28.1479 22.2739C28.1479 22.2739 28.1573 22.2739 28.1761 22.2739C28.1761 22.2739 28.1874 22.2343 28.193 22.2117C28.2213 22.2061 28.193 22.2117 28.2213 22.2061H28.2269C28.2269 22.2061 28.2213 22.1892 28.2213 22.1835H28.2269C28.2269 22.1835 28.2495 22.1666 28.2551 22.1327H28.2721C28.2721 22.1327 28.2947 22.1045 28.3172 22.0932H28.3285V22.0311C28.3285 22.0311 28.3342 22.0198 28.3511 21.9972C28.4076 22.0028 28.385 21.9859 28.4076 21.9633H28.4245V21.9181H28.4358V21.8842C28.481 21.8842 28.4923 21.8842 28.5092 21.8673C28.5205 21.8504 28.5205 21.8278 28.5262 21.7939H28.5544C28.5544 21.7939 28.5488 21.7544 28.5431 21.7318H28.5544V21.7205L28.5883 21.7318C28.5883 21.7318 28.6052 21.7036 28.6052 21.6979C28.6052 21.6979 28.5939 21.6866 28.6052 21.6697C28.6052 21.664 28.6504 21.6358 28.6504 21.6189H28.6391C28.6391 21.6189 28.6391 21.585 28.6391 21.568H28.6617C28.6843 21.5229 28.752 21.4833 28.7294 21.4212C28.752 21.4212 28.752 21.4212 28.7803 21.4212C28.7803 21.3986 28.7803 21.3365 28.7972 21.3083L28.8311 21.297C28.8311 21.297 28.8085 21.2575 28.8311 21.2349H28.8367C28.8367 21.2349 28.848 21.2123 28.865 21.1954L28.8875 21.2123V21.1502H28.9101C28.9214 21.1107 28.9101 21.105 28.9101 21.0768H28.9327V21.0599H28.9553C28.9553 21.0599 28.9553 21.0373 28.9722 21.0203V21.0316L28.9892 20.9808C29.0118 20.9808 29.0174 20.9695 29.0344 20.9639V20.8961H29.0456C29.0456 20.8961 29.0513 20.8735 29.0513 20.8622H29.0795C29.0795 20.8622 29.0908 20.8283 29.1021 20.8058H29.1191L29.136 20.7437C29.136 20.7324 29.1191 20.7436 29.1247 20.7324H29.136C29.136 20.7324 29.1586 20.7154 29.1755 20.6872L29.2207 20.7154C29.2207 20.6872 29.215 20.6872 29.2094 20.6702H29.1981L29.2094 20.6307H29.1925L29.2094 20.6138C29.2094 20.6025 29.2094 20.5968 29.2094 20.5968C29.2094 20.5799 29.2207 20.5686 29.2207 20.5686C29.2207 20.5517 29.2094 20.5404 29.2094 20.5404L29.2263 20.5347C29.2263 20.5347 29.2263 20.5347 29.2263 20.5234H29.2433L29.2772 20.467C29.2772 20.467 29.2489 20.4557 29.2602 20.4331H29.2828L29.2941 20.3879C29.3167 20.3879 29.328 20.3766 29.328 20.354C29.311 20.3484 29.328 20.354 29.3167 20.3484H29.3054L29.311 20.3371H29.3223C29.3223 20.3371 29.3223 20.3202 29.3449 20.3202C29.3562 20.3032 29.3619 20.2806 29.3731 20.258C29.3731 20.258 29.3731 20.2355 29.3731 20.2242H29.3901V20.1734C29.3901 20.1508 29.4014 20.1508 29.4127 20.1338C29.4014 20.1169 29.3957 20.1338 29.3957 20.1169C29.407 20.1169 29.4127 20.1169 29.4183 20.1169C29.424 20.1112 29.4127 20.1169 29.4127 20.1112C29.4127 20.0661 29.4353 20.0378 29.4409 20.0096H29.4691C29.4691 20.0096 29.4691 19.987 29.4804 19.9757H29.503C29.503 19.9475 29.503 19.908 29.5143 19.8854H29.5369C29.5369 19.8854 29.5538 19.8741 29.5538 19.8628H29.5312C29.5369 19.8176 29.5369 19.7837 29.5369 19.7442H29.5595V19.7047L29.5934 19.716C29.5821 19.6652 29.6216 19.6652 29.6385 19.6256H29.6103L29.6216 19.5805H29.6329C29.6329 19.5805 29.6498 19.5522 29.6555 19.5409C29.6555 19.5353 29.6555 19.524 29.6442 19.5184C29.6329 19.4958 29.6498 19.4788 29.6498 19.4449H29.6329C29.6329 19.4111 29.6555 19.4167 29.6611 19.4111V19.3546L29.6894 19.3659L29.7063 19.3377L29.6894 19.3264C29.6894 19.3264 29.7006 19.3038 29.7063 19.2868H29.7006V19.2191L29.7176 19.2304L29.7345 19.1909H29.7176L29.7289 19.1739H29.7345V19.1457C29.7345 19.1457 29.7458 19.1457 29.7571 19.1457V19.1005H29.7741V19.0836H29.7628L29.7571 19.044H29.7741V19.0158H29.791C29.7966 18.9989 29.774 18.9819 29.791 18.9537H29.8023V18.9085H29.8192C29.8192 18.9085 29.8192 18.8408 29.8192 18.8295C29.8192 18.7956 29.8475 18.7843 29.8475 18.773H29.8362V18.7448C29.8362 18.6996 29.8587 18.694 29.8644 18.677H29.8531C29.8531 18.677 29.8644 18.6488 29.8644 18.6318H29.8757C29.8757 18.6318 29.8757 18.5867 29.8757 18.5697H29.8926C29.8926 18.5697 29.8926 18.5472 29.9039 18.5302H29.8926C29.8926 18.5302 29.9039 18.5076 29.9096 18.502H29.8983C29.8983 18.502 29.8983 18.4625 29.8983 18.4455H29.8757C29.8757 18.4455 29.8926 18.4116 29.8983 18.3834H29.9209C29.9209 18.3834 29.9096 18.3269 29.9039 18.2987C29.9209 18.2705 29.9039 18.2705 29.9378 18.2648C29.9378 18.2648 29.9491 18.2535 29.9547 18.2479H29.9322C29.9322 18.214 29.9152 18.2197 29.9152 18.1858H29.9491C29.9491 18.1858 29.9491 18.1632 29.9378 18.1406H29.9604V18.118H29.983C29.983 18.118 29.9717 18.0898 29.9604 18.0728V17.9769C29.9604 17.9769 29.9491 17.9656 29.9378 17.9599C29.9491 17.9486 29.9547 17.9317 29.966 17.9147C29.966 17.9147 29.9585 17.911 29.9434 17.9034L29.966 17.8922C29.966 17.8752 29.966 17.8696 29.966 17.8696C29.966 17.847 29.9773 17.8583 29.9773 17.8583L29.9886 17.8131H30.0112C30.0112 17.8131 30.0112 17.7736 29.9999 17.751H30.0169C30.0169 17.751 30.0169 17.7228 30.0169 17.6832H29.9886C29.9886 17.6832 29.9943 17.6606 30.0056 17.6437C30.0056 17.6437 29.9943 17.6381 29.9943 17.6268H30.0112C30.0112 17.6268 30.0338 17.5759 30.0394 17.5534C30.0281 17.5477 30.0394 17.5534 30.0281 17.5421H30.0169C30.0169 17.5421 30.0338 17.5025 30.0507 17.48L30.0338 17.4687C30.0338 17.4687 30.0338 17.4348 30.0338 17.4178H30.0225C30.0225 17.4178 30.0677 17.367 30.062 17.3275V17.3049H30.0564L30.0677 17.288V17.2767V17.2372L30.0507 17.2202C30.0507 17.2202 30.0733 17.2202 30.0733 17.2089H30.062C30.062 17.192 30.079 17.192 30.079 17.192C30.079 17.1694 30.079 17.1638 30.079 17.1468C30.079 17.1468 30.0959 17.1468 30.0959 17.1355H30.079V17.1129H30.062C30.062 17.0903 30.079 17.0903 30.079 17.0903C30.079 17.0791 30.079 17.0734 30.079 17.0621H30.1015L30.1241 16.9718L29.9999 17.0113ZM29.9039 19.1626V19.1739H29.887C29.87 19.1852 29.887 19.1739 29.87 19.1739C29.887 19.1626 29.887 19.157 29.9039 19.1739M25.6069 24.843C25.6069 24.843 25.6126 24.843 25.6295 24.86H25.6013V24.843H25.6069ZM24.7543 24.476V24.4986H24.7317L24.7204 24.5155H24.7091V24.4986H24.6752L24.6639 24.4704H24.6583L24.6809 24.4252C24.6809 24.4252 24.6865 24.4139 24.6865 24.4026C24.7091 24.4026 24.7317 24.4026 24.7543 24.4026L24.7373 24.4139L24.7543 24.4252C24.7543 24.4252 24.7543 24.4534 24.7656 24.476H24.7543ZM20.1411 23.1773C16.6063 23.1773 14.088 20.3258 14.088 16.8927V16.8363C14.088 13.4088 16.5442 10.6138 20.0846 10.6138C23.625 10.6138 26.1433 13.4766 26.1433 16.8927V16.9492C26.1433 20.3766 23.6814 23.1717 20.1411 23.1717M25.5222 24.7301C25.5222 24.7301 25.5222 24.7188 25.5392 24.7188C25.5279 24.7357 25.5392 24.7188 25.5222 24.7301ZM25.5843 24.7075H25.5674V24.6962H25.5787V24.6906V24.7075H25.5843ZM28.4753 21.3027H28.4528C28.4528 21.3027 28.4471 21.3422 28.4302 21.3648H28.4076C28.4076 21.3648 28.4076 21.3874 28.3963 21.4099H28.385V21.4438H28.3681C28.3681 21.4438 28.3907 21.489 28.3511 21.5172H28.3455C28.3455 21.5172 28.3455 21.5172 28.3342 21.5059C28.3229 21.5172 28.289 21.5624 28.2834 21.585H28.2608C28.2608 21.585 28.2608 21.5963 28.2608 21.6132H28.2495V21.6245H28.2382V21.6527C28.2382 21.6527 28.2325 21.6527 28.2325 21.6753H28.2382V21.7149H28.2325V21.7318H28.1987V21.7487H28.1874V21.7713H28.1817L28.1648 21.7939L28.1309 21.7826C28.1309 21.7826 28.1309 21.8108 28.1083 21.8278L28.1027 21.8504H28.0914C28.0914 21.8504 28.0744 21.8786 28.0744 21.9012H28.0349V21.9351H28.0123C28.0123 21.9351 28.0293 21.9577 28.0293 21.9633H28.0123C28.0123 21.9689 28.0123 21.9802 28.0123 21.9915V22.0198V22.0367L27.9672 22.0593V22.0932H27.9502C27.9333 22.1214 27.9502 22.1214 27.922 22.1383H27.8938C27.8825 22.1722 27.8712 22.1609 27.8599 22.2174H27.8373C27.8373 22.2174 27.8373 22.2287 27.8542 22.2456V22.2626L27.8316 22.24C27.8147 22.2626 27.8147 22.2456 27.8147 22.2795C27.8147 22.2795 27.7921 22.2795 27.7865 22.2852C27.7752 22.3021 27.7695 22.3021 27.7695 22.3021L27.7526 22.3924H27.7244V22.415L27.6961 22.4094V22.4545L27.6623 22.4489V22.4715C27.6623 22.4715 27.6453 22.4715 27.6397 22.4545H27.6227H27.634C27.634 22.4545 27.6227 22.4715 27.6171 22.4771C27.634 22.4771 27.634 22.4884 27.6397 22.4941C27.634 22.511 27.5888 22.5675 27.5832 22.5675C27.5606 22.5844 27.5832 22.5562 27.5493 22.5844H27.538V22.6014C27.538 22.6014 27.5211 22.607 27.5154 22.607V22.6465H27.4985C27.4872 22.6578 27.4872 22.6691 27.4816 22.6861H27.4646V22.7199C27.4533 22.7199 27.442 22.7199 27.4307 22.7199C27.4082 22.7425 27.4082 22.7538 27.4025 22.782H27.3686C27.3686 22.782 27.3573 22.7933 27.3517 22.799H27.3291L27.3235 22.8216C27.3235 22.8216 27.3122 22.8159 27.3065 22.8272H27.2783L27.267 22.878C27.267 22.878 27.2501 22.878 27.2388 22.8893H27.2218V22.9345H27.2162H27.171V22.9684L27.1428 22.9571C27.1428 22.9571 27.1315 23.0023 27.1258 23.0248H27.1032V23.0531H27.092V23.0644L27.0581 23.0531V23.0983H27.0355C27.0355 23.0983 27.0298 23.1265 26.9847 23.1208V23.1491H26.9451C26.9451 23.1491 26.9282 23.1886 26.9226 23.2055C26.8887 23.2055 26.8491 23.2168 26.8209 23.2225C26.8153 23.2451 26.8096 23.2507 26.7927 23.2733H26.8096V23.2846H26.7927C26.7927 23.2846 26.787 23.3015 26.7588 23.3015C26.7588 23.3128 26.7475 23.3241 26.7419 23.3298H26.7306C26.7306 23.3298 26.7136 23.3354 26.7023 23.3467H26.6741C26.6741 23.3523 26.6628 23.358 26.6572 23.3693H26.6233C26.6233 23.3693 26.612 23.3862 26.5838 23.3919V23.4201H26.5668H26.5329C26.5329 23.4201 26.5329 23.4427 26.5442 23.454L26.4934 23.4596V23.4935H26.4595V23.5274C26.4595 23.5274 26.4482 23.5274 26.4313 23.5274H26.42C26.42 23.5274 26.4257 23.55 26.4257 23.5556C26.4257 23.5556 26.4087 23.5951 26.4087 23.5726L26.3861 23.5556V23.5895C26.3466 23.5895 26.3861 23.5895 26.3523 23.6177H26.3353C26.3071 23.6403 26.2789 23.6573 26.245 23.6686V23.6798C26.245 23.6798 26.2337 23.6686 26.228 23.6686V23.6798H26.1998C26.1998 23.7137 26.1885 23.7476 26.1885 23.7815H26.1716L26.1659 23.8041H26.1264L26.0982 23.7871C26.0812 23.8154 26.0699 23.8323 26.0417 23.8605H26.0248C26.0248 23.8605 26.0248 23.8775 26.0078 23.8888C25.9909 23.8888 25.9683 23.8775 25.957 23.8888V23.9057H25.9457C25.9457 23.9057 25.9344 23.917 25.9344 23.9283H25.9005V23.9678H25.8892C25.8892 23.9678 25.8892 23.9848 25.8723 23.996L25.8271 23.9848V24.013C25.8271 24.013 25.7424 24.0017 25.7368 24.013H25.7255V24.0582H25.7142V24.0638H25.669C25.669 24.0638 25.6803 24.0751 25.6803 24.0864H25.6634C25.6408 24.1316 25.6239 24.1259 25.59 24.1542H25.5787C25.5787 24.1542 25.5617 24.1937 25.5392 24.2106V24.2219H25.5279L25.5335 24.205H25.5053V24.2163H25.477V24.2727C25.4432 24.284 25.4036 24.284 25.3698 24.3066V24.3292C25.3246 24.3179 25.3076 24.3066 25.2907 24.3405H25.2794V24.3744H25.2512L25.2455 24.4139H25.2342C25.2342 24.4139 25.2117 24.4139 25.1947 24.4139V24.4026C25.1947 24.4026 25.1947 24.4026 25.1778 24.4139V24.4026L25.1552 24.4308L25.1157 24.4195C25.1157 24.4195 25.1157 24.3913 25.0761 24.38V24.4026H25.0536V24.4139C25.0084 24.4026 25.0027 24.3913 24.9632 24.38V24.3461H24.9801C24.9801 24.3461 24.9689 24.3292 24.9463 24.3235V24.2897H24.9576C24.9745 24.2276 24.9689 24.2558 25.0084 24.2276H25.014C25.0027 24.2163 24.9971 24.2163 24.9801 24.2106C24.9801 24.188 24.9858 24.2106 24.9801 24.188V24.1767C24.9971 24.205 25.0479 24.1654 25.0705 24.1654V24.1259L25.1157 24.1372C25.1213 24.1033 25.1213 24.0977 25.1326 24.0977H25.1721L25.1891 24.0751C25.2117 24.0751 25.2342 24.0977 25.2625 24.0977H25.2794L25.3133 24.109V24.092H25.3415V24.0864C25.3754 24.0638 25.3528 24.0807 25.3698 24.0582V24.0356C25.3698 24.0356 25.398 24.0582 25.4149 24.0356H25.4206H25.4262L25.4036 24.0243C25.4036 24.0243 25.4206 23.9904 25.4262 23.9791H25.4432C25.4432 23.9791 25.4714 23.9283 25.4827 23.9001H25.5109V23.9339L25.5222 23.9452C25.5279 23.9396 25.5335 23.9339 25.5335 23.9057C25.5335 23.9057 25.5222 23.8944 25.5279 23.8831C25.5279 23.8831 25.5448 23.8831 25.5561 23.8549H25.5843V23.8323H25.5956V23.821L25.6182 23.8436H25.6239C25.6295 23.8605 25.6295 23.8662 25.6239 23.8944C25.6408 23.8944 25.6464 23.8944 25.6464 23.8944L25.6803 23.8097C25.6803 23.8097 25.7086 23.8097 25.7255 23.8097H25.7311V23.7702C25.7311 23.7702 25.7594 23.7645 25.7876 23.7645L25.7989 23.725C25.7989 23.725 25.8215 23.725 25.8328 23.725L25.8497 23.7363C25.861 23.7194 25.8497 23.7307 25.861 23.7194V23.7081L25.8949 23.725L25.9118 23.6742C25.9118 23.6742 25.8949 23.6742 25.9005 23.6516H25.9118V23.6403C25.9118 23.629 25.8836 23.5951 25.9118 23.5669C25.9118 23.5669 25.9231 23.5669 25.9288 23.5669V23.55C25.9626 23.5613 26.0022 23.5726 26.036 23.5782C26.036 23.533 26.036 23.533 25.9965 23.533V23.5161C25.9965 23.5161 25.9965 23.5161 25.9965 23.4935V23.4822C25.9965 23.4822 26.0135 23.4935 26.0191 23.5104C26.0361 23.5104 26.053 23.4822 26.053 23.4822L26.0982 23.4935V23.4822C26.1377 23.4822 26.1264 23.4935 26.1603 23.4766C26.1716 23.4709 26.1716 23.454 26.1716 23.4201C26.1716 23.4201 26.1603 23.4201 26.1603 23.4032H26.1716C26.1716 23.4032 26.1829 23.3636 26.1942 23.3411H26.2167C26.245 23.2959 26.2676 23.3241 26.3071 23.3072C26.324 23.2959 26.3127 23.2733 26.324 23.2676H26.3353C26.3692 23.2394 26.3523 23.2676 26.3748 23.2564C26.3805 23.2394 26.4031 23.2225 26.42 23.2168H26.437V23.2394C26.437 23.2394 26.4652 23.2281 26.4821 23.2394C26.4821 23.2225 26.4821 23.2338 26.4821 23.2225C26.4934 23.1547 26.4991 23.1547 26.5273 23.1321H26.5499L26.5555 23.1208V23.1095C26.5894 23.0983 26.5781 23.1321 26.6063 23.087C26.6063 23.087 26.6195 23.0832 26.6459 23.0757V23.0644C26.6854 23.0531 26.6741 23.0813 26.7023 23.0531C26.7023 23.0531 26.6798 23.0023 26.6572 22.9853C26.6741 22.9571 26.6798 22.9627 26.691 22.9232H26.7023V22.9119L26.7419 22.9232V22.8667H26.7588V22.8498H26.7927V22.8329L26.8266 22.8442V22.8272C26.8604 22.8272 26.8548 22.8272 26.8717 22.8159H26.883C26.883 22.8159 26.883 22.7877 26.8717 22.7651H26.883C26.883 22.7651 26.8943 22.7538 26.9 22.7312H26.9508C26.9508 22.7312 26.9847 22.6917 26.996 22.6748C26.996 22.6748 26.979 22.6748 26.9677 22.6465C26.996 22.6465 27.0016 22.6465 27.0185 22.6239C27.0355 22.6183 27.0185 22.6239 27.0355 22.6183C27.0807 22.6183 27.0581 22.6014 27.075 22.5731C27.0919 22.5731 27.092 22.5731 27.1032 22.5731C27.1032 22.5392 27.1202 22.5054 27.1315 22.4715C27.1541 22.4828 27.1484 22.4884 27.1766 22.4997V22.4715C27.1766 22.4715 27.2049 22.4771 27.2105 22.4997C27.2444 22.4715 27.2388 22.4489 27.2388 22.4037C27.2613 22.4037 27.2501 22.415 27.2613 22.4037H27.2726V22.3811H27.2896L27.2839 22.4037H27.3856C27.3969 22.3699 27.4025 22.3586 27.4138 22.319H27.4533V22.2964C27.4703 22.3077 27.4929 22.319 27.5098 22.3247V22.3416L27.5493 22.3529V22.3021H27.5776L27.5945 22.2908V22.2456H27.6171C27.6227 22.2287 27.6397 22.223 27.651 22.2117H27.6623C27.6623 22.1779 27.6284 22.1666 27.6171 22.144V22.1101C27.6171 22.1101 27.6397 22.1101 27.651 22.1101L27.6623 22.1271C27.6792 22.1214 27.6622 22.1101 27.6792 22.1158V22.1271L27.6961 22.1383C27.6961 22.1214 27.6961 22.1101 27.7074 22.1101H27.7187V22.0932L27.7865 22.1101L27.7752 22.0932C27.7865 22.0875 27.7921 22.0762 27.7921 22.0649C27.8542 22.0762 27.8373 22.0649 27.8655 22.0424H27.8712C27.8712 22.0424 27.8881 22.0367 27.9051 22.0141H27.9163V21.9972C27.9163 21.9859 27.9051 21.9859 27.8994 21.9802V21.9351L27.8655 21.9181V21.8955C27.8994 21.8955 27.9051 21.9068 27.9163 21.9125H27.922C27.922 21.8899 27.922 21.8673 27.9163 21.8447H27.9333L27.9446 21.8221L27.9728 21.8334C27.9728 21.7996 27.9785 21.8052 27.9446 21.7996V21.777C27.9785 21.7544 27.9446 21.7261 27.9446 21.6979C27.9559 21.6979 27.9897 21.6866 27.9897 21.6753C28.0123 21.681 28.0236 21.6923 28.0406 21.6923V21.6584C28.0801 21.6584 28.0914 21.6697 28.1196 21.6753C28.1309 21.6584 28.1422 21.664 28.1479 21.6414H28.1253V21.6245C28.1479 21.6245 28.1591 21.6302 28.1874 21.6414L28.1987 21.585H28.21C28.21 21.585 28.2382 21.5793 28.2495 21.5455L28.21 21.5342V21.5229C28.1817 21.5059 28.1761 21.5229 28.1704 21.4777C28.1479 21.4721 28.1422 21.4664 28.1366 21.4495H28.1253L28.1366 21.4212H28.1422C28.1422 21.4212 28.1591 21.3874 28.1648 21.3704H28.1761C28.2043 21.3535 28.21 21.3704 28.2269 21.3309H28.2382V21.3083H28.2721L28.289 21.2914H28.3172C28.3172 21.2914 28.3229 21.2801 28.3342 21.2688V21.1897H28.3229V21.1784C28.3624 21.1897 28.3455 21.1954 28.3737 21.2067L28.4189 21.2123H28.4245L28.4923 21.218L28.4753 21.2857V21.3027ZM28.5713 21.0599L28.5318 21.0486C28.5318 21.0486 28.5318 21.009 28.5318 20.9808C28.5544 20.9921 28.5318 20.9808 28.5488 20.9921H28.56C28.56 20.9921 28.5488 21.026 28.5488 21.0316L28.5713 21.0429V21.0599ZM28.7182 20.8283H28.6843C28.6843 20.8283 28.6843 20.834 28.6617 20.834V20.8114C28.6617 20.8114 28.6617 20.8114 28.6504 20.7888C28.6617 20.7775 28.6504 20.7888 28.6617 20.7775C28.6956 20.7775 28.7069 20.7775 28.7238 20.7549H28.7351C28.7351 20.7549 28.7125 20.8001 28.7125 20.8227M29.0908 19.6426H29.1078C29.1078 19.6426 29.1078 19.6482 29.0908 19.6595V19.6482V19.6426ZM28.8706 13.3862C28.8706 13.3862 28.8988 13.3862 28.9158 13.3862C28.9158 13.4088 28.8988 13.437 28.8932 13.4596C28.8763 13.4596 28.8932 13.4596 28.8763 13.4427H28.865C28.865 13.4427 28.8819 13.4201 28.8875 13.4032C28.8875 13.4032 28.8781 13.4069 28.8593 13.4145C28.8593 13.4145 28.8706 13.3919 28.8763 13.3862M28.8537 20.4444H28.8706V20.467H28.8537V20.4444ZM28.848 12.9119V12.9401H28.8254V12.9458V12.9345C28.7972 12.9176 28.8085 12.9232 28.8028 12.9006H28.8537L28.848 12.9119ZM28.8537 20.5404L28.8424 20.546C28.848 20.5517 28.848 20.5743 28.848 20.5855C28.8424 20.5855 28.8367 20.5968 28.8254 20.6081C28.7916 20.5968 28.7803 20.5968 28.7803 20.5743H28.7633C28.7633 20.5743 28.7803 20.5573 28.7803 20.546H28.752C28.752 20.546 28.752 20.5234 28.752 20.5065C28.769 20.5065 28.7746 20.4896 28.7746 20.4896L28.8254 20.5065L28.8367 20.4783H28.848H28.8537C28.8537 20.4783 28.865 20.4952 28.8763 20.5008V20.546H28.8537V20.5404ZM28.9214 20.4162V20.4049C28.9214 20.4049 28.9045 20.4049 28.8988 20.4049H28.8932V20.4274C28.8706 20.4162 28.8706 20.4274 28.8706 20.3992C28.8706 20.3936 28.8706 20.3992 28.8706 20.3766L28.9214 20.3879C28.9214 20.3879 28.9214 20.3992 28.9214 20.4049C28.9214 20.4049 28.9214 20.4218 28.9214 20.4162ZM29.1021 19.795H29.1078L29.0908 19.8854C29.0908 19.8854 29.1021 19.891 29.0965 19.908H29.0908C29.0908 19.908 29.0682 19.9362 29.0626 19.9588H29.0513C29.0344 19.987 29.0513 19.9927 29.0231 20.0096C29.0174 20.0435 29.0174 20.0491 29.0456 20.0548V20.083H29.0231L29.0118 20.1395C29.0118 20.1395 29.0231 20.1395 29.0118 20.1564C28.9892 20.1621 28.9835 20.1734 28.9722 20.1734V20.1959H28.9553V20.2072V20.1903C28.9553 20.1903 28.9384 20.1734 28.9384 20.1621V20.1282H28.9158C28.9158 20.1282 28.9101 20.1056 28.8988 20.0943H28.8875V20.0717H28.8706V20.0322C28.9158 20.0491 28.9158 20.0491 28.9384 20.0491C28.944 20.0378 28.9497 20.0265 28.9553 20.0209H28.9948V19.9927L29.0174 19.987L29.0287 19.9531H29.04V19.9193V19.908H29.0118C29.0118 19.8797 29.0118 19.8741 28.9722 19.8628C28.9722 19.8402 28.9722 19.8402 28.9722 19.8233H28.9948V19.8063H29.0231V19.8007H29.0739C29.0739 19.8007 29.0965 19.7668 29.1021 19.7442H29.1134C29.1134 19.7442 29.0965 19.7837 29.0965 19.8007M29.1134 19.3828V19.3546H29.1247L29.1134 19.3828ZM29.4127 15.3738H29.4296V15.3851H29.4127V15.3738ZM29.3901 15.3569C29.3901 15.3569 29.3901 15.3569 29.3731 15.3738C29.3844 15.3569 29.3731 15.3625 29.3901 15.3569ZM29.311 15.2101H29.328C29.328 15.2101 29.328 15.2213 29.3167 15.227L29.3054 15.2326V15.2101H29.311ZM29.1473 19.6539C29.1529 19.6256 29.1529 19.6031 29.1473 19.5918V19.5692H29.1586C29.1586 19.5692 29.1755 19.5974 29.1925 19.6087V19.6482H29.1529L29.1473 19.6539ZM29.2207 19.4619H29.1981C29.1981 19.4619 29.1868 19.4675 29.1868 19.4732L29.1473 19.4619C29.1473 19.4619 29.1473 19.4393 29.1473 19.428C29.1586 19.4224 29.1755 19.4224 29.1812 19.4167V19.3998C29.1529 19.3828 29.1586 19.3772 29.136 19.3715V19.3546H29.1473V19.3433H29.1868C29.2094 19.3546 29.2207 19.3659 29.2376 19.3772C29.2263 19.3998 29.2207 19.428 29.215 19.4562M29.2546 19.2304H29.2263L29.2546 19.2191V19.2304ZM29.2828 19.1683C29.2828 19.1683 29.2659 19.1909 29.2546 19.2078L29.2038 19.1965C29.215 19.1457 29.2038 19.1175 29.2546 19.1118C29.2489 19.0949 29.2546 19.1062 29.2433 19.0892C29.2546 19.0779 29.2659 19.0892 29.2772 19.0723C29.2884 19.0723 29.2997 19.0779 29.3054 19.0836V19.1626H29.2828V19.1683ZM29.3675 18.869V18.8634C29.3675 18.8803 29.3675 18.8972 29.3675 18.9142C29.3675 18.9142 29.3449 18.9142 29.3336 18.9255C29.311 18.9424 29.3223 18.9706 29.3223 19.0045H29.3054H29.2828V18.9932C29.2828 18.9932 29.2602 18.9537 29.2263 18.9368L29.2376 18.9029C29.2489 18.8634 29.2489 18.869 29.2715 18.8464L29.3054 18.8577C29.3054 18.8577 29.3054 18.8464 29.3223 18.8351C29.3223 18.8351 29.3449 18.8351 29.3562 18.8351C29.3562 18.8295 29.3562 18.8238 29.3675 18.8125H29.3788C29.3788 18.8125 29.3675 18.8408 29.3619 18.8521H29.3788C29.3788 18.8521 29.3675 18.8859 29.3675 18.869ZM29.4014 18.6601L29.3901 18.7053H29.4014C29.4014 18.7053 29.3901 18.7278 29.3844 18.7391C29.3675 18.7278 29.3167 18.694 29.3167 18.6883C29.311 18.677 29.328 18.6601 29.3167 18.6544H29.2885C29.2885 18.6544 29.2884 18.6375 29.2772 18.6375C29.2772 18.6375 29.2715 18.6544 29.2602 18.6431C29.2602 18.6375 29.2546 18.6206 29.2489 18.6149H29.2263L29.232 18.598C29.2207 18.5867 29.2263 18.598 29.2263 18.581C29.2263 18.581 29.2395 18.581 29.2659 18.581V18.5641C29.3054 18.5641 29.2941 18.5641 29.3223 18.5641V18.5867H29.3393V18.5641C29.3393 18.5641 29.3619 18.5641 29.3675 18.5472C29.3844 18.5584 29.3675 18.5472 29.3844 18.5641H29.3957V18.598L29.407 18.6149V18.6431L29.4183 18.6601C29.4183 18.6657 29.407 18.6657 29.407 18.6657M29.424 17.7284H29.407C29.407 17.7284 29.407 17.7171 29.4183 17.7115V17.7228L29.424 17.7284ZM29.424 16.2547C29.4296 16.2208 29.4466 16.1925 29.4522 16.1587H29.4353C29.4466 16.1304 29.4522 16.1361 29.4578 16.1135C29.4466 16.1022 29.4578 16.1135 29.4466 16.0966H29.4353C29.4353 16.0966 29.4466 16.0796 29.4578 16.074C29.4578 16.0401 29.4635 16.0457 29.4409 16.0344C29.4409 16.0119 29.4466 16.0232 29.4353 16.0119L29.3901 16.0062V15.9949H29.3731C29.3506 15.978 29.3393 15.961 29.2997 15.9497L29.311 15.9102C29.311 15.9046 29.3167 15.8876 29.3223 15.882H29.3675C29.3675 15.882 29.407 15.8368 29.4409 15.8199V15.7691H29.4014L29.4127 15.7465H29.4014C29.4014 15.7465 29.4127 15.7465 29.4127 15.7352C29.4127 15.7352 29.4127 15.7182 29.4014 15.7013L29.4296 15.7126L29.4409 15.6618H29.4296V15.6505H29.4409L29.4466 15.6392H29.424V15.6279C29.424 15.6279 29.4466 15.6053 29.4466 15.594H29.4296V15.5714H29.424C29.4183 15.5545 29.424 15.5714 29.4014 15.5545C29.4014 15.5545 29.3976 15.5677 29.3901 15.594H29.4127L29.4014 15.6222L29.3619 15.5884V15.5601C29.3619 15.5488 29.3619 15.5432 29.3619 15.5376H29.4014C29.4014 15.5376 29.4014 15.5206 29.3901 15.498H29.4127V15.4698L29.4691 15.4867C29.4691 15.4867 29.4748 15.4943 29.4861 15.5093C29.4861 15.5432 29.4861 15.5488 29.4861 15.5658H29.5143V15.611C29.5143 15.611 29.503 15.611 29.4861 15.611V15.6335H29.503V15.6618H29.5312C29.5312 15.6618 29.5312 15.6844 29.5312 15.7069H29.5425V15.7239C29.5425 15.7239 29.5425 15.7578 29.5425 15.7747H29.5482V15.8368C29.5425 15.865 29.5369 15.882 29.5256 15.9159H29.5087C29.5087 15.9441 29.5087 15.9385 29.5087 15.9554H29.52L29.503 15.9893V16.0344H29.4804C29.4804 16.0344 29.4804 16.074 29.4917 16.0909H29.5087V16.1417V16.153V16.1756H29.5143C29.5143 16.1756 29.52 16.1925 29.52 16.2151C29.4917 16.2151 29.4635 16.2151 29.4635 16.2434C29.4635 16.2434 29.4748 16.249 29.4691 16.2603C29.4691 16.2603 29.4522 16.2716 29.4409 16.2772H29.407L29.424 16.2547ZM29.5425 16.9322H29.52L29.5312 16.8871H29.5369V16.9322H29.5425ZM29.5087 16.441V16.4579H29.4804V16.4466H29.4917V16.4353H29.5087V16.441ZM29.4578 16.3563V16.3676L29.4409 16.3732C29.4578 16.3563 29.4466 16.3676 29.4578 16.3563ZM29.5256 17.5025H29.52V17.5195C29.52 17.5195 29.52 17.5195 29.503 17.5025H29.4748C29.4409 17.4743 29.4635 17.4913 29.4522 17.4574C29.4522 17.4574 29.4522 17.4404 29.4466 17.4348C29.4691 17.4348 29.4578 17.4348 29.4691 17.4178C29.4748 17.4348 29.4861 17.4348 29.4917 17.4348V17.4517H29.5087L29.52 17.4348L29.5425 17.4461L29.5256 17.4913V17.5025ZM29.5482 16.9944V17.0169H29.5312C29.5312 17.0169 29.5143 16.9944 29.5087 16.9887L29.5369 16.9492L29.5595 16.9605V16.9718H29.5708C29.5708 16.9718 29.5595 16.9831 29.5538 17" fill="#E83830"/>
<path d="M28.9556 12.8216V12.8103H28.9443V12.8385L28.9613 12.8498C28.9613 12.8385 28.9613 12.8329 28.9613 12.8216" fill="#E83830"/>
<path d="M28.7297 12.3472V12.3021H28.7128C28.7128 12.3021 28.7015 12.3246 28.7241 12.3416L28.7297 12.3472Z" fill="#E83830"/>
<path d="M25.4092 24.1033H25.4148L25.4205 24.092H25.4261V24.0807H25.4148L25.4092 24.1033Z" fill="#E83830"/>
<path d="M24.958 24.3574C24.958 24.3574 24.9637 24.3574 24.9749 24.3461H24.958V24.3574Z" fill="#E83830"/>
<path d="M28.8535 12.6183V12.6353C28.8535 12.6353 28.8592 12.5957 28.8592 12.5675H28.8422C28.8422 12.5675 28.8366 12.607 28.8479 12.6183" fill="#E83830"/>
<path d="M28.8876 12.6973H28.9045V12.6691H28.882C28.882 12.6522 28.882 12.6578 28.8707 12.6522C28.8707 12.6578 28.8707 12.6691 28.8594 12.6747C28.8594 12.686 28.8763 12.686 28.8876 12.703" fill="#E83830"/>
<path d="M28.7469 12.4489C28.7751 12.4545 28.7751 12.4658 28.7807 12.4884H28.7864V12.4771H28.8033C28.8033 12.4602 28.792 12.4489 28.8033 12.432L28.7751 12.415V12.3698C28.7751 12.3698 28.7525 12.3586 28.7412 12.3529C28.7412 12.3924 28.7582 12.3981 28.7469 12.4489Z" fill="#E83830"/>
<path d="M28.8146 12.5449V12.5618L28.8485 12.5675C28.8428 12.5449 28.8372 12.5279 28.8259 12.5223V12.511H28.8089H28.792C28.792 12.511 28.8089 12.5392 28.8146 12.5392" fill="#E83830"/>
<path fill-rule="evenodd" clip-rule="evenodd" d="M27.6964 30.5686C27.6964 30.6195 27.7359 30.7776 27.6682 30.8284C27.7529 31.0768 27.4875 31.2349 27.4423 31.489C27.352 31.5511 27.3915 31.7318 27.2673 31.7149C27.2221 31.8052 27.1317 31.7996 27.0979 31.8786C26.8777 32.0141 26.6631 32.1553 26.3695 32.1892C26.3695 32.1892 26.1267 32.1553 26.0307 32.2457C25.85 32.2005 25.6862 32.2795 25.4943 32.2174C25.2289 32.1497 25.3079 32.2287 25.2853 32.2344C25.2458 32.24 25.0369 32.2231 25.0369 32.2231H24.8844C24.8844 32.2231 24.6924 32.2231 24.6699 32.2231C24.6416 32.2231 24.3932 32.2231 24.3932 32.2231C24.3932 32.2231 24.1278 32.2569 24.0544 32.1892C23.9245 32.1892 23.885 32.2231 23.789 32.2231C23.789 32.2513 23.7043 32.2457 23.6365 32.2513C23.5123 32.2626 23.2978 32.2061 23.1566 32.2231C23.0832 32.2118 23.0154 32.2231 22.959 32.2231C22.7613 32.2231 22.575 32.2231 22.3717 32.2231C22.287 32.2231 22.2193 32.2457 22.2419 32.2682C22.1685 32.2626 22.112 32.2287 22.0612 32.2344C22.0273 32.2626 21.9821 32.2569 21.8748 32.2795C21.6546 32.2965 21.4062 32.2344 21.2085 32.2682C21.0448 32.2626 20.9093 32.2965 20.7342 32.2852C20.4406 32.2852 20.0171 32.3191 19.7461 32.2682C19.5823 32.2795 19.4468 32.2457 19.3113 32.2569C19.2379 32.2569 19.1193 32.2457 19.0516 32.2569C18.9895 32.2682 18.9443 32.2852 18.9273 32.3078C18.7918 32.3078 18.6845 32.2682 18.5547 32.2852C18.4022 32.2682 18.3062 32.2682 18.1481 32.2626C18.0352 32.2457 17.9166 32.2852 17.8037 32.2626C17.6569 32.2682 17.5383 32.1892 17.4084 32.2005C17.335 32.1892 17.1148 32.2569 17.0188 32.2626C16.9059 32.2513 16.8381 32.2626 16.7083 32.2626C16.6123 32.2852 16.584 32.3021 16.4937 32.2965C16.3808 32.2965 16.2509 32.2965 16.1831 32.2682C16.0815 32.2682 16.0194 32.24 15.9121 32.2569H15.6636C15.4717 32.2287 15.2515 32.2852 15.0877 32.24L14.9014 32.2682C14.732 32.2457 14.5231 32.2682 14.3311 32.2682L14.2915 32.2344C14.1504 32.2513 14.0544 32.1892 13.8963 32.2344C13.7664 32.1553 13.5631 32.144 13.4728 32.0254C13.3768 31.9746 13.2187 31.9746 13.1679 31.873C13.0945 31.8278 13.0662 31.7488 12.9872 31.6979C12.9985 31.6528 12.9533 31.6358 12.9081 31.6132C12.8686 31.5003 12.7613 31.4438 12.767 31.3196C12.6766 31.2914 12.6766 31.201 12.6202 31.1615C12.6428 31.122 12.6202 31.0712 12.5806 31.0317C12.5129 30.8566 12.6202 30.6929 12.5806 30.5291C12.5806 30.4726 12.5411 30.3145 12.6145 30.2581C12.5185 30.0096 12.7952 29.8572 12.8347 29.5974C12.9251 29.541 12.8856 29.3546 13.0098 29.3716C13.0437 29.2812 13.1509 29.2869 13.1848 29.2191C13.405 29.0836 13.614 28.9368 13.9019 28.9029C13.9415 28.7617 14.156 28.9311 14.2407 28.8521C14.4327 28.8916 14.5908 28.8126 14.7828 28.8747C15.0482 28.9424 15.0708 28.869 15.0708 28.869H15.3079L15.7032 28.7787L16.4655 28.8803H16.6518C16.6518 28.8803 17.0075 28.8408 17.0583 28.8577C17.1148 28.8803 17.3011 28.8803 17.3011 28.9198C17.6343 28.7843 18.1029 28.9198 18.5095 28.8464C18.7975 28.8239 19.0742 28.9142 19.3395 28.8747L19.4299 28.886C19.6162 28.8464 19.8534 28.8973 20.0171 28.8239C20.3051 28.8634 20.5422 28.7787 20.8133 28.8295C21.0053 28.8182 21.1634 28.79 21.361 28.8069C21.4965 28.79 21.6546 28.8182 21.7845 28.79C21.8579 28.8239 21.9144 28.8069 21.9708 28.79C22.1797 28.8295 22.3717 28.79 22.5637 28.8521C22.6541 28.8182 22.8178 28.8239 22.9138 28.79C22.9872 28.8295 23.0775 28.8295 23.1509 28.8182C23.4897 28.8295 23.71 28.79 24.0149 28.8182H24.1221C24.2068 28.9029 24.3537 28.7166 24.4158 28.8182C24.7263 28.7787 25.0651 28.8182 25.3474 28.8013C25.5281 28.8239 25.7371 28.8013 25.929 28.8013L25.9686 28.8352C26.1154 28.8182 26.1831 28.9199 26.3412 28.8634C26.4768 28.9424 26.68 28.9537 26.7647 29.0723C26.872 29.1288 27.0301 29.1288 27.0753 29.2248C27.1487 29.2699 27.1713 29.3546 27.2503 29.3942C27.239 29.445 27.2899 29.4563 27.335 29.4732C27.3633 29.5861 27.4875 29.6595 27.4762 29.7725C27.5665 29.7951 27.5609 29.8798 27.6286 29.9306C27.5948 29.9758 27.6173 30.0153 27.6512 30.0604C27.7303 30.2355 27.6173 30.4049 27.6625 30.5686" fill="#E83830"/>
</g>
<circle cx="20" cy="20" r="19.5" stroke="black" stroke-opacity="0.05"/>
<defs>
<clipPath id="clip0_9_349260">
<rect width="20" height="25.3077" fill="white" transform="translate(10 7)"/>
</clipPath>
</defs>
</svg>
