<svg width="40" height="40" viewBox="0 0 40 40" fill="none" xmlns="http://www.w3.org/2000/svg">
<circle cx="20" cy="20" r="20" fill="#404048"/>
<g clip-path="url(#clip0_9_381308)">
<path d="M9.85259 19.7806H14.3321C14.2325 20.2327 14.1268 20.6432 14.0085 21.012C13.8903 21.3808 13.741 21.7258 13.5544 22.0411C13.2993 22.4872 12.9944 22.8798 12.6398 23.2248C12.2914 23.5698 11.9057 23.8553 11.4826 24.0814C11.0596 24.3134 10.6116 24.4859 10.145 24.6048C9.67217 24.7238 9.19312 24.7833 8.70162 24.7833C8.02348 24.7833 7.43244 24.6762 6.92227 24.4561C6.41211 24.236 6.00149 23.9327 5.69042 23.5341C5.37935 23.1356 5.16782 22.6656 5.06827 22.1065C4.96873 21.5533 4.98739 20.9406 5.13049 20.2684C5.27358 19.5962 5.51622 18.9955 5.85218 18.4422C6.18814 17.889 6.60498 17.4132 7.09025 17.0206C7.57553 16.628 8.12924 16.3246 8.74517 16.1045C9.3611 15.8844 10.0144 15.7773 10.7174 15.7773C11.6257 15.7773 12.3785 15.9677 12.9758 16.3543C13.573 16.741 13.9899 17.3358 14.2139 18.1389L11.8808 19.0074C11.7813 18.5374 11.5946 18.2043 11.3209 18.0021C11.0471 17.7998 10.7049 17.6987 10.3005 17.6987C9.96458 17.6987 9.64106 17.7582 9.33621 17.8831C9.03136 18.008 8.75761 18.1865 8.51497 18.4125C8.27234 18.6445 8.05458 18.9181 7.87416 19.2453C7.69374 19.5665 7.55687 19.9294 7.46976 20.3339C7.38889 20.6967 7.364 21.0298 7.39511 21.3391C7.42621 21.6485 7.50709 21.9161 7.65019 22.1422C7.79328 22.3682 7.99237 22.5407 8.24745 22.6656C8.50253 22.7906 8.81983 22.85 9.19934 22.85C9.42331 22.85 9.64106 22.8263 9.85881 22.7787C10.0766 22.7311 10.2819 22.6478 10.4685 22.5407C10.6552 22.4337 10.8231 22.2909 10.9662 22.1184C11.1093 21.9459 11.2275 21.7317 11.3209 21.4879H9.46686L9.84015 19.7688L9.85259 19.7806Z" fill="white"/>
<path d="M34.8693 21.4994H11.4641L11.7876 19.7803H35L34.8693 21.4994Z" fill="url(#paint0_linear_9_381308)"/>
<path d="M17.5114 16.0269L16.18 22.6772H18.6873L18.3078 24.5569H13.7101L15.421 16.0269H17.5114Z" fill="white"/>
<path d="M18.9051 19.1261H18.2394L18.7869 16.4136H19.8445C20.1307 16.4136 20.336 16.4909 20.4604 16.6515C20.5849 16.8121 20.616 17.0322 20.5538 17.3177C20.4916 17.6033 20.3733 17.8293 20.1929 17.984C20.0125 18.1386 19.7699 18.2219 19.4837 18.2219H19.0917L18.9113 19.1201L18.9051 19.1261ZM19.1975 17.6568H19.4215C19.6641 17.6568 19.8134 17.5438 19.857 17.3177C19.9005 17.0917 19.801 16.9787 19.5583 16.9787H19.3344L19.1975 17.6568Z" fill="white"/>
<path d="M20.9394 16.1402H21.5553L21.2816 17.5143C21.3874 17.4072 21.4869 17.3359 21.5802 17.2942C21.6736 17.2585 21.7793 17.2407 21.8913 17.2407C22.1091 17.2407 22.2646 17.3061 22.3517 17.431C22.4388 17.5619 22.4575 17.7344 22.4139 17.9486L22.1775 19.1204H21.5616L21.7482 18.1865C21.7669 18.0913 21.7731 18.0199 21.7731 17.9605C21.7731 17.901 21.7544 17.8593 21.7295 17.8296C21.686 17.782 21.6238 17.7523 21.5491 17.7523C21.4434 17.7523 21.3563 17.7879 21.2878 17.8534C21.2194 17.9188 21.1696 18.014 21.1447 18.133L20.9456 19.1204H20.3297L20.927 16.1343L20.9394 16.1402Z" fill="white"/>
<path d="M24.0813 17.2762H24.6972L24.3239 19.1202H23.708L23.7515 18.918C23.5835 19.0905 23.3907 19.1797 23.1667 19.1797C23.0423 19.1797 22.9303 19.1559 22.8307 19.1083C22.7312 19.0607 22.6565 18.9893 22.5943 18.9001C22.5321 18.8109 22.4948 18.7098 22.4699 18.5849C22.4512 18.4659 22.4512 18.335 22.4823 18.1923C22.5072 18.0614 22.557 17.9365 22.6254 17.8175C22.6939 17.6985 22.7747 17.5974 22.8681 17.5082C22.9614 17.419 23.0672 17.3476 23.1854 17.3C23.3036 17.2464 23.428 17.2227 23.5524 17.2227C23.7702 17.2227 23.9319 17.3059 24.0439 17.4665L24.0813 17.2821V17.2762ZM23.1169 18.1982C23.1045 18.2577 23.1045 18.3112 23.1169 18.3648C23.1294 18.4183 23.148 18.4599 23.1729 18.5016C23.1978 18.5373 23.2351 18.567 23.2787 18.5908C23.3222 18.6146 23.372 18.6205 23.428 18.6205C23.484 18.6205 23.5338 18.6086 23.5898 18.5908C23.6458 18.567 23.6893 18.5373 23.7329 18.5016C23.7764 18.4659 23.8137 18.4183 23.8448 18.3707C23.8759 18.3231 23.9008 18.2636 23.9071 18.2101C23.9133 18.1566 23.9195 18.0971 23.9071 18.0435C23.8946 17.99 23.8759 17.9484 23.8511 17.9067C23.8262 17.871 23.7888 17.8413 23.7453 17.8175C23.7017 17.7937 23.652 17.7878 23.596 17.7878C23.54 17.7878 23.484 17.7997 23.4342 17.8175C23.3782 17.8413 23.3347 17.871 23.2911 17.9067C23.2476 17.9424 23.2102 17.99 23.1791 18.0376C23.148 18.0852 23.1294 18.1387 23.1169 18.1982Z" fill="white"/>
<path d="M24.8839 17.276H25.4998L25.4376 17.5794C25.5247 17.4664 25.6243 17.3831 25.73 17.3236C25.8358 17.2641 25.954 17.2344 26.0784 17.2344H26.1282C26.1282 17.2344 26.1717 17.2344 26.1904 17.2403L26.066 17.8649C25.9913 17.8233 25.9104 17.7995 25.8109 17.7995C25.6678 17.7995 25.5496 17.8471 25.4625 17.9363C25.3754 18.0255 25.3132 18.1564 25.2759 18.3289L25.1141 19.12H24.4982L24.8715 17.276H24.8839Z" fill="white"/>
<path d="M26.3522 17.2764H26.9681L26.9246 17.5025C27.1236 17.3299 27.3289 17.2467 27.5405 17.2467C27.8018 17.2467 27.9698 17.3597 28.0631 17.5917C28.2497 17.3597 28.4675 17.2407 28.7226 17.2407C28.8034 17.2407 28.8781 17.2526 28.9465 17.2764C29.015 17.3002 29.071 17.3418 29.1083 17.3954C29.1518 17.4489 29.1767 17.5203 29.1892 17.6036C29.2016 17.6928 29.1954 17.7939 29.1705 17.9188L28.9279 19.1145H28.3119L28.4924 18.2044C28.511 18.1092 28.5173 18.0319 28.5173 17.9724C28.5173 17.9129 28.511 17.8653 28.4924 17.8296C28.4737 17.7939 28.455 17.7761 28.4239 17.7642C28.3928 17.7523 28.3617 17.7463 28.3244 17.7463C28.1253 17.7463 28.0009 17.901 27.9387 18.2044L27.7582 19.1145H27.1423L27.3227 18.2044C27.3414 18.1092 27.3538 18.0319 27.3538 17.9724C27.3538 17.9129 27.3538 17.8653 27.3352 17.8296C27.3227 17.7939 27.2978 17.7701 27.2667 17.7582C27.2356 17.7463 27.1983 17.7404 27.1547 17.7404C27.1174 17.7404 27.0801 17.7463 27.0428 17.7582C27.0054 17.7701 26.9743 17.7939 26.937 17.8296C26.9059 17.8653 26.8748 17.9129 26.8499 17.9724C26.825 18.0319 26.8001 18.1151 26.7815 18.2103L26.601 19.1204H25.9851L26.3584 17.2764H26.3522Z" fill="white"/>
<path d="M30.8378 17.2762H31.4538L31.0805 19.1202H30.4646L30.5081 18.918C30.3401 19.0905 30.1473 19.1797 29.9233 19.1797C29.7989 19.1797 29.6869 19.1559 29.5873 19.1083C29.4878 19.0607 29.4131 18.9893 29.3509 18.9001C29.2887 18.8109 29.2514 18.7098 29.2265 18.5849C29.2078 18.4659 29.2078 18.335 29.2389 18.1923C29.2638 18.0614 29.3136 17.9365 29.382 17.8175C29.4505 17.6985 29.5313 17.5974 29.6247 17.5082C29.718 17.419 29.8237 17.3476 29.942 17.3C30.0602 17.2464 30.1846 17.2227 30.309 17.2227C30.5268 17.2227 30.6885 17.3059 30.8005 17.4665L30.8378 17.2821V17.2762ZM29.8797 18.1982C29.8673 18.2577 29.8673 18.3112 29.8797 18.3648C29.8922 18.4183 29.9108 18.4599 29.9357 18.5016C29.9606 18.5373 29.9979 18.567 30.0415 18.5908C30.085 18.6146 30.1348 18.6205 30.1908 18.6205C30.2468 18.6205 30.2966 18.6086 30.3526 18.5908C30.4086 18.567 30.4521 18.5373 30.4957 18.5016C30.5392 18.4659 30.5765 18.4183 30.6077 18.3707C30.6388 18.3231 30.6636 18.2636 30.6699 18.2101C30.6761 18.1566 30.6823 18.0971 30.6699 18.0435C30.6574 17.99 30.6388 17.9484 30.6139 17.9067C30.589 17.871 30.5517 17.8413 30.5081 17.8175C30.4646 17.7937 30.4148 17.7878 30.3588 17.7878C30.3028 17.7878 30.2468 17.7997 30.197 17.8175C30.141 17.8413 30.0975 17.871 30.0539 17.9067C30.0104 17.9424 29.9731 17.99 29.942 18.0376C29.9108 18.0852 29.8922 18.1387 29.8797 18.1982Z" fill="white"/>
</g>
<circle cx="20" cy="20" r="19.5" stroke="black" stroke-opacity="0.05"/>
<defs>
<linearGradient id="paint0_linear_9_381308" x1="11.4641" y1="20.6428" x2="35" y2="20.6428" gradientUnits="userSpaceOnUse">
<stop offset="0.84" stop-color="white"/>
<stop offset="1" stop-color="white" stop-opacity="0"/>
</linearGradient>
<clipPath id="clip0_9_381308">
<rect width="30" height="9" fill="white" transform="translate(5 15.7891)"/>
</clipPath>
</defs>
</svg>
