<svg width="40" height="40" viewBox="0 0 40 40" fill="none" xmlns="http://www.w3.org/2000/svg">
<circle cx="20" cy="20" r="20" fill="#002754"/>
<path d="M29.996 17.9392C29.8003 19.9938 28.8983 21.4519 26.9748 22.0581C25.0514 22.6642 23.4812 21.9435 22.2522 20.4162C21.9038 19.9843 21.5864 19.5261 21.2666 19.0727C19.9326 17.1827 18.1953 15.8773 15.8114 16.0253C13.0527 16.1995 11.3679 17.901 10.4515 20.4305C10.411 20.5379 10.3656 20.6453 10.2535 20.9317C9.8788 20.1012 10.0148 19.3662 10.0697 18.6789C10.4301 14.5767 13.4274 11.0735 17.5367 9.88035C21.4551 8.74443 25.9845 10.2168 28.4162 13.4432C29.3899 14.7366 30.0581 16.1589 29.996 17.9392Z" fill="#0084CC"/>
<path d="M27.259 24.5947C29.0893 25.2844 29.1538 25.5851 27.8508 26.9453C23.5553 31.4389 16.9068 31.4794 12.6161 27.0455C12.1832 26.6594 11.8604 26.1653 11.6807 25.6137C12.6471 26.1507 13.1554 26.8904 13.9382 27.2723C16.1981 28.3724 18.2528 27.8116 20.2072 26.5277C21.1379 25.9168 22.0519 25.2868 23.09 24.8739C24.4144 24.3513 25.7651 24.1485 27.259 24.5947Z" fill="#6DAC1D"/>
<circle cx="20" cy="20" r="19.5" stroke="black" stroke-opacity="0.05"/>
</svg>
