<svg width="41" height="41" viewBox="0 0 41 41" fill="none" xmlns="http://www.w3.org/2000/svg">
<circle cx="20.2957" cy="20.7399" r="20.2601" fill="#F6F8FA"/>
<path d="M29.8404 21.4344C29.8198 21.3363 29.7776 21.2498 29.7039 21.1802C29.692 21.1702 29.6808 21.1597 29.6676 21.1517C29.5785 21.0922 29.4792 21.0603 29.3738 21.0462C29.3486 21.0349 29.3209 21.0488 29.2957 21.0379C29.2814 21.0372 29.2673 21.0357 29.253 21.0357C28.7496 21.0351 28.246 21.0347 27.7426 21.0343C27.73 21.0343 27.7174 21.0358 27.7046 21.0366C27.6878 21.029 27.6701 21.0328 27.6529 21.0328C27.3684 21.0326 27.084 21.0328 26.7996 21.0324C26.7824 21.0324 26.7646 21.0362 26.7478 21.0286L26.6831 21.0273C26.6612 21.0166 26.6364 21.0295 26.6142 21.019C26.413 21.0017 26.2179 20.9616 26.0369 20.8669C26.0005 20.8478 25.9667 20.8253 25.9352 20.7991C25.9152 20.7846 25.9001 20.7644 25.8791 20.7508C25.8663 20.7382 25.8537 20.7258 25.8409 20.7132C25.8325 20.7001 25.822 20.6884 25.8125 20.676C25.8094 20.6726 25.8062 20.6691 25.8031 20.6657C25.7947 20.652 25.7821 20.6413 25.775 20.6266L25.7754 20.6271C25.7619 20.6138 25.7584 20.5939 25.7456 20.58L25.7355 20.5607C25.7235 20.5428 25.7151 20.5231 25.7082 20.5027L25.7086 20.5032C25.6987 20.4885 25.6964 20.4706 25.6891 20.4549L25.6895 20.4555C25.6536 20.3671 25.6408 20.2736 25.637 20.1797C25.633 20.0817 25.6334 19.9834 25.637 19.8855C25.6403 19.7925 25.6613 19.7026 25.6991 19.6169C25.7105 19.5831 25.7271 19.5518 25.7458 19.5215C25.7582 19.5075 25.763 19.489 25.7743 19.4743C25.7871 19.455 25.7999 19.4356 25.8126 19.4163C25.8226 19.4039 25.8325 19.3917 25.8418 19.3789C25.932 19.2781 26.0541 19.2273 26.1727 19.1727C26.2729 19.1265 26.3809 19.1053 26.4905 19.0921C26.5062 19.0837 26.5247 19.0937 26.5401 19.0845C26.5587 19.0839 26.5772 19.0832 26.5955 19.0826C26.6177 19.0734 26.6423 19.0853 26.6644 19.075C26.7083 19.0742 26.7522 19.0736 26.796 19.0729C26.9174 19.0654 27.0388 19.0704 27.16 19.07C27.2386 19.0698 27.3177 19.0654 27.3963 19.0729C27.4059 19.0734 27.4154 19.0746 27.4248 19.0746C28.3661 19.0746 29.3074 19.0746 30.2489 19.0746C30.2628 19.0811 30.2638 19.0933 30.2638 19.1066C30.2638 19.2302 30.2638 19.3537 30.2638 19.4774C30.2638 19.4842 30.2621 19.4896 30.2559 19.493C30.2537 19.4957 30.2514 19.4984 30.2493 19.5008C30.2325 19.5144 30.2126 19.5073 30.1945 19.5073C29.1537 19.5077 28.1128 19.5062 27.072 19.5094C26.9363 19.5098 26.7996 19.5203 26.6644 19.5402C26.5944 19.5505 26.5293 19.5736 26.4672 19.6078C26.3454 19.6749 26.2853 19.7765 26.275 19.9155C26.2666 20.0314 26.2693 20.1468 26.266 20.2625C26.2658 20.2705 26.2656 20.2784 26.2704 20.2854C26.2782 20.3362 26.3055 20.3757 26.3431 20.4091C26.3607 20.4252 26.3773 20.4424 26.3939 20.4593C26.3966 20.4616 26.3995 20.4637 26.4021 20.466C26.422 20.4786 26.4424 20.4905 26.4609 20.505L26.4602 20.5044C26.555 20.5619 26.6612 20.5785 26.7687 20.584C27.2035 20.6059 27.6389 20.5947 28.074 20.5922C28.4044 20.5905 28.7349 20.5916 29.0653 20.5895C29.1606 20.589 29.2562 20.5895 29.3509 20.5954C29.5916 20.6103 29.8293 20.6434 30.0473 20.7579C30.061 20.7652 30.0775 20.7688 30.0862 20.7837L30.1414 20.8188C30.158 20.8241 30.1691 20.8373 30.1821 20.8478L30.1813 20.8472C30.2218 20.8772 30.2582 20.9114 30.2867 20.9536C30.289 20.9562 30.2913 20.9589 30.2937 20.9616C30.3138 20.9767 30.3235 20.999 30.3346 21.0202C30.3493 21.0483 30.364 21.0765 30.3787 21.1046C30.3978 21.1269 30.4045 21.1544 30.411 21.1821C30.41 21.1918 30.4092 21.2014 30.4165 21.2094C30.4381 21.2342 30.431 21.2668 30.4396 21.2951L30.4392 21.2945C30.4533 21.3153 30.4369 21.3407 30.4493 21.3617L30.4489 21.3611C30.4636 21.3953 30.4459 21.4323 30.4587 21.4667L30.4581 21.4661C30.4707 21.4965 30.4638 21.5284 30.4633 21.5593C30.4614 21.6584 30.4709 21.7576 30.4581 21.8563L30.4587 21.8557C30.4535 21.9291 30.4491 22.0024 30.4354 22.0747C30.4341 22.0822 30.4363 22.0907 30.4264 22.094C30.4194 22.1182 30.4077 22.1415 30.4104 22.1677C30.4035 22.1845 30.4035 22.2043 30.3888 22.2177C30.356 22.2914 30.3207 22.3637 30.2674 22.4256C30.2413 22.4641 30.2092 22.4968 30.17 22.5222C30.1582 22.5319 30.1466 22.5418 30.1347 22.5516C30.1015 22.5771 30.066 22.5989 30.0284 22.6174L30.0292 22.6169C29.9853 22.6382 29.9421 22.6608 29.8952 22.6749L29.8957 22.6745C29.8782 22.6861 29.8574 22.6882 29.8377 22.694L29.8385 22.6934C29.705 22.7348 29.5683 22.7537 29.429 22.7564C28.2878 22.7784 27.1464 22.7596 26.0051 22.7663C25.9287 22.7667 25.8533 22.7532 25.7769 22.7562C25.7445 22.7575 25.7353 22.7358 25.7372 22.7094C25.7451 22.6048 25.7388 22.5 25.7405 22.3954C25.7409 22.3758 25.7416 22.3574 25.7561 22.3423L25.7552 22.3431C25.7727 22.3317 25.7924 22.3376 25.8109 22.3376C26.9511 22.3372 28.0914 22.3374 29.2314 22.337C29.2503 22.337 29.2696 22.341 29.2879 22.3332C29.2997 22.333 29.3116 22.3326 29.3234 22.3324C29.3389 22.3217 29.358 22.3332 29.3736 22.3236C29.4956 22.3087 29.6008 22.2561 29.6955 22.1801C29.7211 22.1612 29.744 22.1396 29.7619 22.1133C29.7684 22.1037 29.7749 22.0942 29.7814 22.0846C29.793 22.0701 29.7989 22.0524 29.8091 22.0371C29.8157 22.0172 29.8224 21.9976 29.8291 21.9777C29.8409 21.9644 29.827 21.9453 29.8392 21.9319C29.8411 21.9298 29.8411 21.9275 29.8396 21.925C29.849 21.8575 29.8434 21.7897 29.8432 21.7219C29.8428 21.6257 29.849 21.5295 29.8398 21.4335L29.8404 21.4344Z" fill="#EFA141"/>
<path d="M25.0791 19.7308C25.0785 19.8253 25.0781 19.92 25.0776 20.0145C25.0684 20.0996 25.0762 20.185 25.0734 20.2701C25.0724 20.2999 25.0777 20.33 25.0697 20.3596C25.0692 20.5081 25.0686 20.6565 25.068 20.805C25.0604 20.8218 25.0642 20.8393 25.0642 20.8565C25.0638 21.0388 25.0642 21.2213 25.0638 21.4036C25.0638 21.4208 25.0674 21.4386 25.0602 21.4554C25.0596 21.6104 25.0592 21.7652 25.0587 21.9202C25.0482 21.9422 25.0608 21.967 25.0506 21.9889C25.0503 22.0011 25.0497 22.0134 25.0493 22.0254C25.0396 22.0407 25.0504 22.0594 25.0411 22.0746C25.026 22.1533 25.0157 22.2329 24.9882 22.3087C24.9531 22.4057 24.8928 22.4856 24.82 22.5572C24.8095 22.5706 24.7962 22.5801 24.7819 22.5887C24.7681 22.5983 24.7582 22.6124 24.741 22.6168C24.7294 22.6238 24.7179 22.6309 24.7063 22.6378C24.6816 22.6523 24.6564 22.6655 24.6291 22.6742C24.6144 22.6844 24.5974 22.6861 24.5814 22.6931C24.5598 22.7031 24.5369 22.705 24.5146 22.712C24.4293 22.7432 24.3394 22.7479 24.251 22.7533C24.1626 22.7586 24.0738 22.7653 23.9849 22.7653C23.0729 22.7653 22.1608 22.7666 21.2489 22.7638C21.106 22.7634 20.9622 22.7512 20.8215 22.7193C20.8062 22.7159 20.7894 22.7233 20.7757 22.7117C20.7198 22.7013 20.6656 22.6878 20.6134 22.6645C20.5905 22.6559 20.5688 22.6458 20.5462 22.6363C20.5399 22.6332 20.5338 22.6303 20.5275 22.6273C20.513 22.6158 20.4955 22.6095 20.48 22.6C20.4216 22.5643 20.3657 22.5253 20.3187 22.4751C20.3046 22.4549 20.2857 22.4391 20.2698 22.4203C20.1879 22.3197 20.1486 22.2022 20.1278 22.0758C20.1188 22.0212 20.1204 21.9668 20.1156 21.9124C20.1104 21.8143 20.1104 21.7159 20.1156 21.6178C20.1163 21.4376 20.1171 21.2572 20.1179 21.077C20.1272 20.9888 20.1192 20.9002 20.1221 20.812C20.123 20.7853 20.1184 20.7584 20.1251 20.7319C20.1259 20.4881 20.1267 20.2443 20.1276 20.0005C20.1366 19.9423 20.1301 19.8837 20.1314 19.8255C20.1341 19.7085 20.1276 19.5913 20.1347 19.4742C20.1354 19.3561 20.1373 19.2379 20.136 19.1199C20.1356 19.0854 20.1444 19.0718 20.1807 19.0741C20.2168 19.0766 20.253 19.0732 20.2893 19.0722C20.3622 19.0667 20.4351 19.0667 20.5081 19.0722C20.5785 19.0785 20.6497 19.068 20.7194 19.0837C20.7264 19.0852 20.7329 19.0902 20.7398 19.0934C20.7431 19.2391 20.7446 19.3847 20.739 19.5304C20.7383 19.7869 20.7373 20.0435 20.7366 20.3001C20.7272 20.3883 20.7352 20.4766 20.7324 20.565C20.7314 20.5918 20.7358 20.6187 20.7295 20.6452C20.7287 20.8256 20.728 21.0058 20.727 21.1862C20.72 21.1996 20.723 21.2141 20.723 21.2282C20.7228 21.4243 20.7228 21.6203 20.723 21.8165C20.723 21.8305 20.72 21.845 20.727 21.8585C20.7198 21.9693 20.7379 22.0733 20.8125 22.1602C20.89 22.2503 20.9908 22.298 21.1077 22.3138C21.1229 22.3239 21.1422 22.3117 21.1573 22.323C21.1626 22.3232 21.168 22.3236 21.1733 22.3238C21.1989 22.3344 21.2272 22.3205 21.2526 22.3323C21.4366 22.3333 21.6204 22.335 21.8044 22.3352C21.9281 22.3354 22.0518 22.3339 22.1754 22.3331C22.1872 22.3396 22.2002 22.3371 22.2128 22.3371C22.5617 22.3371 22.9109 22.3371 23.2598 22.3371C23.2722 22.3371 23.2852 22.3398 23.2973 22.3331C23.5063 22.3367 23.7153 22.3373 23.9243 22.3322C23.9497 22.3203 23.978 22.3344 24.0036 22.3236C24.1252 22.3192 24.2315 22.2758 24.325 22.1991C24.3413 22.1896 24.3527 22.1752 24.3649 22.1613C24.3714 22.146 24.3831 22.1357 24.3932 22.1229C24.4054 22.105 24.4115 22.0846 24.422 22.0657C24.4531 21.9784 24.4602 21.8876 24.4627 21.7965C24.4768 21.2839 24.4686 20.7712 24.4743 20.2586C24.4785 19.8841 24.4825 19.5098 24.4823 19.1352C24.4823 19.1112 24.4793 19.0865 24.5064 19.0734C24.5543 19.06 24.6041 19.0768 24.6522 19.0646C24.6855 19.0646 24.7187 19.0646 24.7519 19.0646C24.803 19.0755 24.8555 19.0623 24.9067 19.0718C24.9441 19.0726 24.9817 19.0734 25.0191 19.0741C25.038 19.0841 25.0596 19.0726 25.0785 19.082C25.1085 19.1008 25.0903 19.1318 25.097 19.1564C25.0863 19.185 25.0995 19.2158 25.0894 19.2444C25.0888 19.3231 25.0882 19.4015 25.0875 19.4802C25.0787 19.5447 25.086 19.6094 25.0833 19.6741C25.0825 19.6928 25.0867 19.7125 25.0791 19.7308Z" fill="#EFA141"/>
<path d="M4.61137 22.3795C4.60546 22.3701 4.59935 22.3608 4.59343 22.3514C4.56613 22.3092 4.54647 22.2632 4.52547 22.2178C4.5123 22.1873 4.4976 22.1573 4.49798 22.1229C4.47049 22.0093 4.47775 21.8937 4.47985 21.7786C4.48023 21.7598 4.48271 21.7408 4.48271 21.7217C4.48271 21.4821 4.48405 21.2423 4.48233 21.0028C4.48099 20.8107 4.48481 20.6189 4.48882 20.427C4.49225 20.2621 4.48996 20.0971 4.49225 19.9322C4.49359 19.8335 4.50943 19.7377 4.54456 19.6451C4.5627 19.5775 4.60011 19.5202 4.6402 19.4641C4.64917 19.4508 4.66024 19.4389 4.66941 19.4258L4.70701 19.386C4.71484 19.3761 4.72362 19.3672 4.73336 19.3591L4.76447 19.3303C4.77784 19.3225 4.78891 19.3118 4.80074 19.3021C4.97465 19.1835 5.16574 19.1121 5.37553 19.0913C5.39138 19.0833 5.40989 19.0926 5.42555 19.0839C5.45342 19.0831 5.48129 19.0823 5.50916 19.0816C5.53169 19.073 5.55612 19.0841 5.57846 19.0743L5.71896 19.072C5.7831 19.0619 5.848 19.0758 5.91214 19.0646C5.95815 19.0646 6.00415 19.0646 6.04997 19.0646C6.06658 19.0724 6.08433 19.0684 6.1017 19.0684C6.32868 19.0688 6.55565 19.0684 6.78282 19.0688C6.80019 19.0688 6.81776 19.0655 6.83475 19.072C6.85536 19.0726 6.87598 19.0737 6.8966 19.0737C7.55557 19.0741 8.21455 19.0743 8.87352 19.0741C8.91074 19.0741 8.94434 19.0758 8.9537 19.1211C8.96076 19.2385 8.96019 19.3559 8.95408 19.4731C8.94721 19.4815 8.94033 19.4897 8.93346 19.4981C8.91781 19.5145 8.89776 19.5061 8.8802 19.5063C7.84879 19.5067 6.81718 19.5057 5.78577 19.5084C5.68727 19.5086 5.58724 19.5111 5.48931 19.5306C5.43223 19.5535 5.37114 19.5628 5.31616 19.5958C5.18158 19.6766 5.10446 19.7858 5.11687 19.9477C5.10618 19.9763 5.11878 20.0067 5.10942 20.0355C5.10866 20.2697 5.1079 20.5039 5.10713 20.7382C5.09797 20.8329 5.1058 20.9277 5.10293 21.0224C5.1016 21.0682 5.10713 21.114 5.09969 21.1597C5.09892 21.3527 5.09816 21.5457 5.09759 21.7387C5.09091 21.7879 5.09071 21.8374 5.09759 21.8866C5.09434 21.9832 5.10904 22.0744 5.17471 22.151C5.19151 22.1636 5.20793 22.1768 5.22148 22.193C5.30738 22.2642 5.40379 22.3115 5.51603 22.3234C5.53149 22.3329 5.55058 22.3217 5.56586 22.3318L5.62064 22.3329C5.63897 22.3409 5.65825 22.3367 5.67715 22.3367C6.73815 22.3369 7.79896 22.3367 8.85997 22.3373C8.8781 22.3373 8.89795 22.3299 8.91456 22.3442C8.92793 22.3694 8.92201 22.3967 8.9222 22.423C8.92315 22.5253 8.92334 22.6277 8.92373 22.7302C8.91475 22.754 8.89547 22.7561 8.87333 22.7563C8.78132 22.7569 8.68911 22.759 8.5971 22.76C7.59241 22.7705 6.58773 22.7653 5.58285 22.764C5.45609 22.764 5.32838 22.7504 5.20353 22.7216L5.2043 22.7222C5.14875 22.7145 5.09472 22.7002 5.04089 22.6844C5.03077 22.6823 5.01913 22.6855 5.01149 22.6754C4.9735 22.6595 4.93437 22.6464 4.89829 22.6261L4.89905 22.6267C4.88283 22.6179 4.86641 22.6093 4.85019 22.6004C4.84007 22.5937 4.82995 22.5868 4.81983 22.5801C4.79712 22.5652 4.77459 22.5504 4.75512 22.5311L4.75588 22.5316C4.71255 22.4984 4.67342 22.4612 4.64154 22.4165L4.64211 22.4173C4.63027 22.406 4.62092 22.3929 4.61156 22.3799L4.61137 22.3795Z" fill="#EFA141"/>
<path d="M33.5024 19.2748C33.4955 19.0419 33.5427 18.8214 33.6561 18.6166C33.7319 18.4797 33.8273 18.357 33.9373 18.2468C34.2225 17.9614 34.5117 17.6801 34.7969 17.3947C34.9538 17.2374 35.1059 17.0753 35.2598 16.9149C35.3203 16.8518 35.3875 16.796 35.4545 16.7405C35.5292 16.6786 35.6196 16.683 35.705 16.6956C35.9079 16.7258 36.0102 16.8815 35.9867 17.0852C35.9564 17.3506 35.9138 17.614 35.8672 17.8767C35.8283 18.0975 35.7832 18.3173 35.7412 18.5376C35.738 18.5546 35.7367 18.5719 35.7344 18.5891C35.7181 18.6009 35.7038 18.5906 35.6903 18.5839C35.6322 18.5551 35.5715 18.5324 35.5145 18.5019C35.3808 18.432 35.248 18.361 35.1159 18.2883C35.0429 18.2482 35.037 18.2495 34.9775 18.31C34.7921 18.4793 34.6169 18.6588 34.4405 18.8373C34.3252 18.9539 34.261 19.0936 34.2681 19.2613C34.2712 19.3342 34.296 19.4006 34.3267 19.4657C34.3721 19.5617 34.4271 19.6534 34.4649 19.7532C34.4794 19.8084 34.4962 19.863 34.5086 19.9185C34.5193 19.9658 34.5109 19.9847 34.4674 20.0067C34.4348 20.0231 34.4 20.0346 34.3635 20.0399C34.2906 20.0504 34.2225 20.0764 34.1543 20.1029C34.1255 20.1142 34.1005 20.1323 34.0845 20.1583C34.0547 20.207 34.0127 20.2472 33.9875 20.299C33.9737 20.327 33.9371 20.3318 33.9231 20.3601C33.8882 20.3003 33.8502 20.2423 33.8189 20.1808C33.7267 19.9994 33.6282 19.8208 33.5608 19.6278C33.5349 19.5533 33.5112 19.4785 33.5116 19.3985C33.5013 19.3838 33.5135 19.3649 33.5028 19.3502C33.5026 19.325 33.5024 19.3 33.5022 19.2748H33.5024Z" fill="#C3C4C4"/>
<path d="M32.4821 18.0643C32.455 17.9912 32.4116 17.9265 32.3765 17.8573C32.337 17.7797 32.2895 17.706 32.2683 17.6199C32.2335 17.4786 32.2612 17.3532 32.3731 17.2566C32.4878 17.1575 32.6188 17.1258 32.7623 17.1925C32.9885 17.2974 33.2136 17.4049 33.44 17.5092C33.6129 17.5889 33.7905 17.6588 33.9575 17.7512C34.0094 17.7798 34.0089 17.7808 33.961 17.8186C33.7674 17.9715 33.583 18.1336 33.4369 18.3352C33.2852 18.5446 33.2105 18.7815 33.1678 19.0337C33.1264 19.277 33.1729 19.5096 33.2302 19.7426C33.235 19.7623 33.2453 19.7804 33.2531 19.7993V19.7986C33.264 19.8131 33.2661 19.831 33.2728 19.8471L33.2722 19.8463C33.2835 19.8681 33.294 19.8902 33.3016 19.9137L33.301 19.9129C33.3167 19.949 33.3384 19.9822 33.3491 20.0202C33.3512 20.0259 33.3531 20.0315 33.3552 20.0372C33.3917 20.0998 33.4211 20.1662 33.4539 20.2308C33.4532 20.2374 33.4543 20.2432 33.4606 20.2468C33.4881 20.2817 33.5106 20.3193 33.5165 20.3642C33.5186 20.3802 33.5286 20.3894 33.537 20.4005C33.5461 20.4123 33.5429 20.4207 33.5297 20.4262C33.507 20.4451 33.4789 20.4278 33.4549 20.4373C33.4392 20.4461 33.4205 20.436 33.4049 20.4451C33.3928 20.4457 33.381 20.4463 33.369 20.4469C33.3533 20.4556 33.3346 20.4455 33.319 20.4547C33.3069 20.4553 33.2949 20.4558 33.2831 20.4564C33.2676 20.4654 33.2489 20.4549 33.2336 20.4644C33.2247 20.4648 33.2157 20.4654 33.2069 20.4658C33.1915 20.4751 33.1727 20.4642 33.1573 20.474C33.0842 20.4763 33.0135 20.4959 32.9416 20.5062C32.8496 20.5194 32.7575 20.5341 32.6655 20.5484C32.5871 20.5606 32.5088 20.5734 32.4303 20.5851C32.3904 20.591 32.3502 20.5946 32.3099 20.5992C32.294 20.6085 32.2751 20.5984 32.2591 20.6072C32.2389 20.6072 32.2185 20.6072 32.1982 20.6072C32.1793 20.5975 32.1576 20.6087 32.1387 20.5994C32.0046 20.5908 31.8676 20.502 31.8389 20.347C31.8313 20.3056 31.8353 20.2623 31.834 20.2197C31.8439 20.2042 31.8315 20.1846 31.8433 20.1695C31.8536 20.0933 31.8953 20.0332 31.9462 19.9799C32.0115 19.9116 32.0804 19.8467 32.1478 19.7802C32.1637 19.7684 32.1782 19.7547 32.1923 19.7409C32.3271 19.6061 32.4624 19.4718 32.5968 19.3364C32.6829 19.2497 32.7675 19.1614 32.8536 19.0745C32.915 19.0127 32.9395 18.9462 32.8898 18.8512C32.7604 18.603 32.6317 18.3544 32.5029 18.1061C32.4956 18.0921 32.489 18.0778 32.4821 18.0639V18.0643Z" fill="#DE7A3D"/>
<path d="M33.9217 20.3595C33.9232 20.3385 33.9156 20.3112 33.954 20.3164C33.9593 20.3171 33.9698 20.3087 33.9715 20.3028C33.9881 20.2458 34.0391 20.2118 34.0651 20.161C34.0819 20.128 34.1113 20.1045 34.1468 20.0913C34.2193 20.064 34.2911 20.0337 34.3697 20.0266C34.373 20.0262 34.376 20.0258 34.3791 20.0253C34.4994 19.9995 34.5116 19.98 34.4818 19.863C34.4724 19.8264 34.4633 19.7895 34.4541 19.7529C34.478 19.7479 34.4808 19.7691 34.4885 19.7821C34.5431 19.8756 34.5954 19.9705 34.6467 20.0657C34.6748 20.1137 34.7027 20.1614 34.7456 20.1984C34.7674 20.2171 34.7905 20.2242 34.8151 20.2087C34.909 20.1501 35.0159 20.1576 35.1192 20.148C35.1696 20.1434 35.22 20.1388 35.27 20.1312C35.3193 20.1224 35.3662 20.1039 35.4155 20.0953C35.4422 20.0907 35.471 20.0799 35.4939 20.106C35.4609 20.1873 35.4561 20.275 35.4384 20.3597C35.3645 20.7112 35.3183 21.0674 35.2593 21.4213C35.2251 21.6267 35.1238 21.7565 34.9218 21.8075H34.9224C34.9033 21.8166 34.8842 21.8163 34.8651 21.8079C34.7294 21.7911 34.6345 21.7168 34.5677 21.6005C34.4619 21.4163 34.3718 21.2241 34.2747 21.0355C34.2048 20.9 34.1336 20.7654 34.063 20.6304C34.0158 20.5401 33.9687 20.4498 33.9217 20.3595Z" fill="#888887"/>
<path d="M30.0883 20.7842C29.8795 20.6699 29.6527 20.6244 29.4179 20.6061C29.3194 20.5985 29.2213 20.5979 29.1228 20.5979C28.4157 20.5977 27.7088 20.5985 27.0017 20.5987C26.8604 20.5987 26.7192 20.5939 26.581 20.5605C26.5384 20.5502 26.4953 20.5372 26.462 20.5049C26.5229 20.5212 26.5775 20.5536 26.6415 20.5634C26.7369 20.5779 26.8333 20.587 26.929 20.588C27.3056 20.5918 27.6826 20.5977 28.0591 20.5872C28.4069 20.5775 28.7547 20.5792 29.1023 20.5823C29.3371 20.5844 29.5737 20.5907 29.8027 20.6561C29.8913 20.6815 29.978 20.7119 30.0593 20.7556C30.0717 20.7623 30.0864 20.7669 30.0881 20.784L30.0883 20.7842Z" fill="#FCFCFC"/>
<path d="M25.758 22.3432C25.7402 22.3877 25.7486 22.4342 25.7473 22.4799C25.7452 22.5545 25.7471 22.6292 25.7446 22.7036C25.7435 22.7406 25.757 22.7542 25.7942 22.7544C25.95 22.7553 26.1056 22.7603 26.2612 22.7603C27.2147 22.7613 28.1682 22.7614 29.1219 22.7613C29.33 22.7613 29.5381 22.7588 29.7429 22.7152C29.7754 22.7084 29.8078 22.7011 29.8403 22.6941C29.783 22.7277 29.7177 22.7324 29.6547 22.742C29.4967 22.766 29.3371 22.7717 29.1771 22.7716C28.0984 22.7714 27.0198 22.7716 25.941 22.771C25.8843 22.771 25.8274 22.7651 25.7708 22.7618C25.737 22.7599 25.7259 22.7351 25.7301 22.7089C25.7467 22.6047 25.733 22.5001 25.7379 22.3959C25.7389 22.376 25.7318 22.3531 25.7582 22.343L25.758 22.3432Z" fill="#FCFCFC"/>
<path d="M5.20439 22.7224C5.6131 22.7863 6.02505 22.759 6.43567 22.7611C7.00741 22.7642 7.57914 22.7606 8.15107 22.759C8.38931 22.7585 8.62735 22.7554 8.86559 22.7543C8.88926 22.7543 8.9095 22.7504 8.92477 22.7312C8.92515 22.7478 8.91809 22.7586 8.90091 22.7611C8.89461 22.7621 8.88831 22.7621 8.88182 22.7619C8.69283 22.7581 8.50442 22.773 8.31543 22.7724C7.40428 22.7701 6.49313 22.7724 5.58198 22.7703C5.45924 22.7699 5.3363 22.7539 5.21508 22.7315C5.21126 22.7308 5.20802 22.7256 5.20458 22.7226L5.20439 22.7224Z" fill="#FCFCFC"/>
<path d="M10.0117 22.686C10.1119 22.7098 10.2108 22.739 10.3139 22.7484C10.3914 22.7555 10.4687 22.7631 10.5466 22.7631C11.4369 22.7631 12.3271 22.764 13.2174 22.7618C13.4269 22.7612 13.6366 22.7532 13.8438 22.7165C13.8671 22.7123 13.8905 22.7085 13.914 22.7043C13.8604 22.735 13.7995 22.7362 13.7409 22.743C13.4045 22.782 13.0664 22.7723 12.7287 22.7723C11.9736 22.7726 11.2184 22.7738 10.4634 22.7711C10.3181 22.7705 10.1742 22.7448 10.0346 22.7018C10.0262 22.6991 10.0193 22.6913 10.0117 22.6858V22.686Z" fill="#FCFCFC"/>
<path d="M20.7753 22.7137C20.9135 22.7324 21.0515 22.7543 21.1912 22.7578C21.25 22.7591 21.3086 22.7629 21.3674 22.7629C22.2398 22.7623 23.1124 22.7622 23.9848 22.7599C24.1625 22.7593 24.3403 22.7518 24.5149 22.7135C24.4624 22.7482 24.4004 22.7454 24.3422 22.7518C24.0974 22.7791 23.8516 22.7721 23.6059 22.7721C22.8146 22.7721 22.0233 22.7736 21.2321 22.7709C21.0824 22.7704 20.9331 22.752 20.7858 22.7226C20.7818 22.7219 20.7787 22.7167 20.7753 22.7137Z" fill="#FCFCFC"/>
<path d="M24.5051 19.0737C24.4856 19.092 24.4864 19.1159 24.4864 19.1399C24.4854 19.4765 24.4847 19.8132 24.4828 20.1498C24.4803 20.5926 24.4797 21.0357 24.4721 21.4786C24.4692 21.6464 24.478 21.8153 24.4473 21.9818C24.4419 22.011 24.4396 22.0415 24.42 22.0664C24.4715 21.8514 24.4499 21.6323 24.4581 21.4148C24.477 20.9109 24.4551 20.4065 24.4692 19.9027C24.4765 19.6427 24.4709 19.3831 24.4765 19.1233C24.4768 19.1015 24.4721 19.0763 24.5053 19.0735L24.5051 19.0737Z" fill="#FCFCFC"/>
<path d="M29.2879 22.3337C29.2636 22.3451 29.2379 22.34 29.2127 22.34C28.0839 22.3403 26.9551 22.3402 25.8264 22.3403C25.8025 22.3403 25.7788 22.3424 25.755 22.3436C25.7664 22.3274 25.7838 22.3331 25.7989 22.3331C26.9555 22.3329 28.1122 22.3331 29.2688 22.3331C29.2751 22.3331 29.2816 22.3337 29.2879 22.3339V22.3337Z" fill="#FCFCFC"/>
<path d="M5.48776 19.5308C5.5204 19.5165 5.55571 19.5148 5.58989 19.5135C5.70423 19.5091 5.8182 19.5014 5.93274 19.5016C6.91032 19.5026 7.8879 19.5022 8.86548 19.502C8.88762 19.502 8.90977 19.4997 8.93191 19.4984C8.91607 19.523 8.89125 19.5112 8.87101 19.5112C7.85678 19.5117 6.84274 19.5112 5.82851 19.5125C5.71492 19.5125 5.60115 19.5243 5.48756 19.5306L5.48776 19.5308Z" fill="#FCFCFC"/>
<path d="M8.91429 22.3451C8.89272 22.3371 8.8702 22.34 8.84805 22.34C7.79411 22.34 6.73998 22.34 5.68604 22.3396C5.66409 22.3396 5.64137 22.3447 5.62037 22.3339C5.78874 22.3337 5.95731 22.3331 6.12568 22.3331C7.03625 22.3331 7.94664 22.3331 8.85721 22.3335C8.8763 22.3335 8.89902 22.3234 8.91429 22.3451Z" fill="#FCFCFC"/>
<path d="M14.4647 22.3036C14.5556 22.0795 14.563 21.8441 14.5619 21.6068C14.5607 21.3434 14.5622 21.0799 14.5642 20.8163C14.5655 20.6449 14.5703 20.4737 14.5722 20.3022C14.5741 20.131 14.5771 19.9596 14.5605 19.7887C14.5779 19.8315 14.5796 19.8775 14.5798 19.9218C14.5817 20.1948 14.5888 20.4679 14.5787 20.7403C14.5655 21.1019 14.5798 21.4633 14.5697 21.8244C14.5657 21.9691 14.5472 22.1138 14.4949 22.2513C14.4876 22.2702 14.483 22.291 14.4645 22.3034L14.4647 22.3036Z" fill="#FCFCFC"/>
<path d="M9.48776 19.7412C9.45722 19.9686 9.46886 20.1973 9.466 20.4254C9.46142 20.7839 9.45894 21.1424 9.45493 21.5011C9.45416 21.5677 9.45054 21.6344 9.44977 21.7008C9.44805 21.8482 9.44118 21.9957 9.46867 22.1419C9.43985 22.0923 9.44137 22.0356 9.44004 21.9822C9.43622 21.8222 9.43164 21.6617 9.44023 21.5019C9.45569 21.2121 9.4366 20.9221 9.45015 20.6327C9.46123 20.3968 9.45054 20.1608 9.45932 19.9253C9.46161 19.864 9.46104 19.8 9.48776 19.7414V19.7412Z" fill="#FCFCFC"/>
<path d="M15.1656 22.7397C15.2008 22.7649 15.2426 22.7569 15.2806 22.7588C15.4281 22.7661 15.5759 22.7632 15.7234 22.7605C15.7674 22.7598 15.7863 22.7479 15.7861 22.6975C15.7842 22.3518 15.7855 22.0061 15.7868 21.6606C15.787 21.5815 15.7885 21.5021 15.803 21.4239C15.8061 21.4069 15.8071 21.3874 15.8328 21.3895C15.8118 21.4189 15.8055 21.4521 15.804 21.4876C15.7895 21.8154 15.7958 22.1435 15.7947 22.4715C15.7943 22.554 15.7931 22.6364 15.7952 22.7189C15.7962 22.7557 15.7822 22.7716 15.7462 22.7714C15.581 22.771 15.4157 22.7731 15.2506 22.7693C15.2235 22.7687 15.1826 22.7809 15.1658 22.7399L15.1656 22.7397Z" fill="#FCFCFC"/>
<path d="M16.4591 21.389C16.4786 21.3789 16.4998 21.3835 16.52 21.3835C17.1448 21.3831 17.7694 21.3831 18.3942 21.3829C18.4593 21.3829 18.5244 21.3812 18.5897 21.3804C18.5805 21.3925 18.567 21.39 18.5546 21.39C17.8561 21.3898 17.1576 21.3894 16.4591 21.3892V21.389Z" fill="#FCFCFC"/>
<path d="M19.6581 20.7988C19.7187 20.5369 19.7009 20.2704 19.7045 20.0055C19.7059 19.9043 19.6917 19.8039 19.6768 19.7036C19.7047 19.7451 19.6998 19.7941 19.7061 19.8398C19.723 19.964 19.7156 20.0894 19.7166 20.2145C19.7177 20.3664 19.7093 20.5178 19.6961 20.669C19.6923 20.7133 19.6849 20.7597 19.6581 20.7988Z" fill="#FCFCFC"/>
<path d="M23.2954 22.3341C23.2822 22.3421 23.2677 22.3396 23.2536 22.3398C22.9075 22.3398 22.5616 22.3398 22.2155 22.3398C22.2014 22.3398 22.1869 22.3421 22.1737 22.3341C22.5477 22.3341 22.9214 22.3341 23.2954 22.3341Z" fill="#FCFCFC"/>
<path d="M25.6982 19.6176C25.6419 19.764 25.6383 19.9171 25.6389 20.0713C25.6392 20.2021 25.6524 20.3304 25.6889 20.4562C25.6578 20.4192 25.6528 20.3718 25.6482 20.3281C25.6245 20.1038 25.6041 19.8789 25.6761 19.6582C25.6811 19.6432 25.6837 19.6273 25.698 19.6176H25.6982Z" fill="#FCFCFC"/>
<path d="M26.7473 21.0288C27.057 21.0295 27.3668 21.0303 27.6764 21.0314C27.6856 21.0314 27.6947 21.0351 27.7039 21.037C27.3967 21.0374 27.0896 21.0375 26.7826 21.0377C26.7702 21.0377 26.7569 21.0404 26.7473 21.0288Z" fill="#FCFCFC"/>
<path d="M15.191 20.7701C15.19 21.0253 15.1893 21.2807 15.1879 21.5359C15.1879 21.5419 15.1845 21.548 15.1826 21.5539C15.1824 21.3044 15.182 21.0547 15.1818 20.8052C15.1818 20.7928 15.1793 20.7796 15.1908 20.7701H15.191Z" fill="#FCFCFC"/>
<path d="M6.83269 19.0731C6.5788 19.0725 6.32491 19.0719 6.07082 19.071C6.06319 19.071 6.05574 19.0675 6.04811 19.0656C6.29761 19.0654 6.5473 19.0651 6.7968 19.0649C6.80921 19.0649 6.82257 19.0622 6.8325 19.0731H6.83269Z" fill="#FCFCFC"/>
<path d="M20.726 21.8582C20.7243 21.8538 20.7215 21.8494 20.7213 21.845C20.7165 21.6299 20.7167 21.4146 20.7213 21.1994C20.7213 21.195 20.7243 21.1906 20.7259 21.1861C20.7259 21.4102 20.7259 21.6341 20.7259 21.8582H20.726Z" fill="#FCFCFC"/>
<path d="M25.0596 21.4561C25.0604 21.2468 25.061 21.0376 25.0621 20.8284C25.0621 20.8208 25.0657 20.8133 25.0677 20.8057C25.0678 21.0107 25.0682 21.2157 25.0684 21.4208C25.0684 21.4332 25.0711 21.4463 25.0596 21.4561Z" fill="#FCFCFC"/>
<path d="M27.3972 19.0731C27.1971 19.0731 26.9968 19.0731 26.7968 19.0731C26.8069 19.0622 26.8201 19.0649 26.8325 19.0649C27.0087 19.0649 27.1851 19.0649 27.3613 19.0649C27.3737 19.0649 27.387 19.0622 27.397 19.0731H27.3972Z" fill="#FCFCFC"/>
<path d="M20.1339 19.4746C20.1333 19.6424 20.1329 19.8104 20.132 19.9782C20.132 19.9858 20.1285 19.9933 20.1266 20.0009C20.1264 19.8375 20.1261 19.6739 20.1259 19.5105C20.1259 19.4981 20.1232 19.4847 20.1339 19.4746Z" fill="#FCFCFC"/>
<path d="M15.2027 19.7602C15.2017 19.9265 15.201 20.093 15.1998 20.2592C15.1998 20.2651 15.1964 20.2713 15.1945 20.2772C15.1943 20.1164 15.1939 19.9559 15.1937 19.7952C15.1937 19.7827 15.1912 19.7696 15.2027 19.76V19.7602Z" fill="#FCFCFC"/>
<path d="M29.8414 21.4349C29.855 21.4633 29.8519 21.494 29.8519 21.5236C29.8517 21.6456 29.8496 21.7676 29.8477 21.8896C29.8475 21.9018 29.8435 21.914 29.8412 21.9264C29.8412 21.7626 29.8414 21.5986 29.8414 21.4349Z" fill="#FCFCFC"/>
<path d="M20.7377 19.5317C20.7379 19.3861 20.7382 19.2404 20.7384 19.0948C20.7503 19.1085 20.7453 19.1249 20.7455 19.1404C20.7459 19.2559 20.7459 19.3712 20.7455 19.4867C20.7455 19.5019 20.7505 19.5185 20.7379 19.5319L20.7377 19.5317Z" fill="#FCFCFC"/>
<path d="M30.2564 19.4929C30.2577 19.3652 30.2589 19.2375 30.2602 19.1098C30.2602 19.0966 30.2573 19.085 30.2493 19.0745C30.2659 19.0756 30.2692 19.0865 30.2692 19.1008C30.2692 19.2238 30.2692 19.3469 30.2692 19.4698C30.2692 19.4797 30.2669 19.4885 30.2566 19.4929H30.2564Z" fill="#FCFCFC"/>
<path d="M5.09836 21.1609C5.09913 21.0204 5.09264 20.8797 5.10581 20.7394C5.10619 20.8681 5.10638 20.9965 5.10657 21.1252C5.10657 21.1376 5.10924 21.151 5.09836 21.1609Z" fill="#FCFCFC"/>
<path d="M30.4573 21.8569C30.4573 21.7267 30.4573 21.5967 30.4573 21.4665C30.4686 21.4736 30.468 21.4848 30.468 21.4959C30.468 21.6064 30.468 21.717 30.468 21.8273C30.468 21.8384 30.4686 21.8496 30.4573 21.8567V21.8569Z" fill="#FCFCFC"/>
<path d="M8.95235 19.4745C8.95235 19.3571 8.95215 19.2397 8.95196 19.1225C8.96342 19.1318 8.96094 19.145 8.96094 19.1574C8.96094 19.2515 8.96094 19.3454 8.96094 19.4395C8.96094 19.4517 8.96361 19.4649 8.95235 19.4747V19.4745Z" fill="#FCFCFC"/>
<path d="M25.0705 20.3609C25.071 20.2458 25.0651 20.1305 25.0785 20.0158C25.0787 20.1192 25.0791 20.2225 25.0793 20.326C25.0793 20.3382 25.0817 20.3514 25.0705 20.3609Z" fill="#FCFCFC"/>
<path d="M20.7287 20.6458C20.7295 20.5307 20.7232 20.4154 20.7358 20.3007C20.7359 20.4037 20.7363 20.5068 20.7365 20.6099C20.7365 20.6223 20.7392 20.6357 20.7287 20.6458Z" fill="#FCFCFC"/>
<path d="M20.124 20.7327C20.1234 20.8478 20.1295 20.9631 20.1167 21.0778C20.1165 20.9747 20.1162 20.8716 20.116 20.7684C20.116 20.756 20.1133 20.7426 20.124 20.7325V20.7327Z" fill="#FCFCFC"/>
<path d="M20.1161 21.6189C20.1161 21.717 20.1161 21.8153 20.1161 21.9134C20.0991 21.8739 20.1081 21.8325 20.1088 21.7922C20.11 21.7343 20.0978 21.6759 20.1159 21.6189H20.1161Z" fill="#FCFCFC"/>
<path d="M15.2106 19.0938C15.2075 19.1898 15.2157 19.2862 15.2024 19.382C15.202 19.2976 15.2018 19.2131 15.2016 19.1287C15.2016 19.1165 15.1991 19.1033 15.2106 19.094V19.0938Z" fill="#FCFCFC"/>
<path d="M33.4539 20.2311C33.4148 20.1698 33.3852 20.1036 33.3552 20.0375C33.4014 20.0952 33.4308 20.1616 33.4539 20.2311Z" fill="#FCFCFC"/>
<path d="M33.5311 20.4265C33.5307 20.3876 33.5097 20.3547 33.4981 20.3192C33.4899 20.294 33.4744 20.2711 33.4622 20.2472C33.4977 20.2618 33.4992 20.2995 33.5153 20.327C33.5288 20.3507 33.5248 20.3814 33.5473 20.4034C33.559 20.4149 33.5477 20.4261 33.5313 20.4265H33.5311Z" fill="#FCFCFC"/>
<path d="M30.4276 22.095C30.4461 22.0167 30.4467 21.9358 30.4599 21.8568C30.4647 21.9297 30.4555 22.0015 30.4416 22.0729C30.4397 22.0826 30.4387 22.0916 30.4276 22.095Z" fill="#FCFCFC"/>
<path d="M14.5526 19.7329C14.5304 19.669 14.5121 19.6035 14.4823 19.5424C14.53 19.597 14.5472 19.6628 14.5526 19.7329Z" fill="#FCFCFC"/>
<path d="M25.0804 19.7318C25.0808 19.6484 25.0752 19.5646 25.0882 19.4816C25.0886 19.5533 25.0888 19.6251 25.089 19.6969C25.089 19.7091 25.0915 19.7223 25.0802 19.7318H25.0804Z" fill="#FCFCFC"/>
<path d="M9.60166 22.4093C9.63965 22.4475 9.67764 22.4856 9.71563 22.5238C9.66657 22.4965 9.62801 22.4589 9.60166 22.4093Z" fill="#FCFCFC"/>
<path d="M4.64187 22.4172C4.68005 22.4556 4.71804 22.4939 4.75622 22.5323C4.70506 22.5069 4.66611 22.4695 4.64187 22.4172Z" fill="#FCFCFC"/>
<path d="M20.5088 19.0728C20.4359 19.0728 20.363 19.0728 20.29 19.0728C20.363 19.0592 20.4359 19.0592 20.5088 19.0728Z" fill="#FCFCFC"/>
<path d="M13.9139 22.7047C13.9681 22.6856 14.0225 22.6663 14.0767 22.6472C14.0284 22.6831 13.9728 22.6989 13.9139 22.7047Z" fill="#FCFCFC"/>
<path d="M14.2862 22.5233C14.3213 22.488 14.3566 22.4525 14.3918 22.4172C14.3713 22.4672 14.3354 22.5019 14.2862 22.5233Z" fill="#FCFCFC"/>
<path d="M20.6128 22.666C20.6672 22.6818 20.7214 22.6979 20.7758 22.7137C20.7174 22.7116 20.662 22.6996 20.6128 22.666Z" fill="#FCFCFC"/>
<path d="M9.53706 19.58C9.52102 19.6342 9.5048 19.6884 9.48876 19.7424C9.49143 19.6842 9.50251 19.6287 9.53706 19.58Z" fill="#FCFCFC"/>
<path d="M9.83933 22.6086C9.88725 22.6306 9.93764 22.6474 9.98193 22.6768C9.93039 22.6624 9.87732 22.651 9.83933 22.6086Z" fill="#FCFCFC"/>
<path d="M30.2854 20.9541C30.2503 20.9185 30.2152 20.8832 30.1801 20.8477C30.2287 20.8699 30.2646 20.9044 30.2854 20.9541Z" fill="#FCFCFC"/>
<path d="M5.0419 22.6858C5.09726 22.6942 5.15167 22.7073 5.20531 22.7236C5.14747 22.7255 5.09363 22.7106 5.0419 22.6858Z" fill="#FCFCFC"/>
<path d="M5.91051 19.0657C5.84656 19.0776 5.78184 19.0724 5.71732 19.0732C5.78108 19.055 5.84618 19.0688 5.91051 19.0657Z" fill="#FCFCFC"/>
<path d="M30.17 22.5227C30.2025 22.4904 30.2349 22.4582 30.2674 22.4261C30.2493 22.4727 30.2172 22.5053 30.17 22.5227Z" fill="#FCFCFC"/>
<path d="M29.8968 22.6755C29.9403 22.6536 29.984 22.6318 30.0308 22.6175C29.9914 22.6492 29.9477 22.6708 29.8968 22.6755Z" fill="#FCFCFC"/>
<path d="M14.3971 22.4076C14.4204 22.3725 14.4439 22.3376 14.4672 22.3024C14.4557 22.3454 14.4385 22.3845 14.3971 22.4076Z" fill="#FCFCFC"/>
<path d="M15.184 22.3717C15.184 22.4267 15.1893 22.4818 15.1758 22.536C15.1794 22.4813 15.1641 22.4257 15.184 22.3717Z" fill="#FCFCFC"/>
<path d="M30.0275 22.6176C30.0605 22.5916 30.0954 22.5689 30.1338 22.5517C30.1063 22.5863 30.0708 22.6084 30.0275 22.6176Z" fill="#FCFCFC"/>
<path d="M4.89932 22.6264C4.93884 22.6384 4.97721 22.6539 5.01253 22.6757C4.97015 22.6698 4.9314 22.656 4.89932 22.6264Z" fill="#FCFCFC"/>
<path d="M24.9075 19.0728C24.8558 19.072 24.8039 19.077 24.7527 19.0655C24.8043 19.0678 24.8566 19.056 24.9075 19.0728Z" fill="#FCFCFC"/>
<path d="M5.09718 21.888C5.0863 21.8387 5.08763 21.7895 5.09718 21.74C5.09718 21.7893 5.09718 21.8385 5.09718 21.888Z" fill="#FCFCFC"/>
<path d="M24.6509 19.0658C24.6028 19.0782 24.5535 19.0706 24.505 19.0746C24.5526 19.0542 24.6022 19.0691 24.6509 19.0658Z" fill="#FCFCFC"/>
<path d="M9.71325 19.351C9.69149 19.3787 9.66801 19.4044 9.63938 19.425C9.65446 19.3909 9.67908 19.3662 9.71325 19.351Z" fill="#FCFCFC"/>
<path d="M33.3498 20.0207C33.3294 19.9869 33.3112 19.9519 33.3017 19.9134C33.3263 19.9452 33.349 19.9781 33.3498 20.0207Z" fill="#FCFCFC"/>
<path d="M14.0762 22.646C14.106 22.6258 14.1381 22.6099 14.1721 22.5977C14.148 22.6294 14.114 22.6416 14.0762 22.646Z" fill="#FCFCFC"/>
<path d="M29.7631 22.114C29.7503 22.1455 29.7291 22.1688 29.6967 22.1808C29.7148 22.1545 29.7373 22.1327 29.7631 22.114Z" fill="#FCFCFC"/>
<path d="M24.6278 22.6757C24.6519 22.6599 24.6769 22.6463 24.7049 22.6393C24.6847 22.6631 24.6593 22.6761 24.6278 22.6757Z" fill="#FCFCFC"/>
<path d="M4.75477 22.5319C4.77958 22.544 4.80192 22.5594 4.81967 22.581C4.79008 22.5753 4.76832 22.5591 4.75477 22.5319Z" fill="#FCFCFC"/>
<path d="M19.6768 19.7047C19.6667 19.676 19.6564 19.6472 19.6463 19.6186C19.6738 19.6411 19.6772 19.6722 19.6768 19.7047Z" fill="#FCFCFC"/>
<path d="M30.4591 21.4662C30.4465 21.4319 30.4528 21.3958 30.4494 21.3607C30.4711 21.3941 30.4549 21.4311 30.4591 21.4662Z" fill="#FCFCFC"/>
<path d="M25.8797 20.7513C25.9059 20.7592 25.9214 20.7796 25.9368 20.8003C25.9086 20.7945 25.8949 20.7722 25.8797 20.7513Z" fill="#FCFCFC"/>
<path d="M20.2681 22.4211C20.2879 22.4369 20.3091 22.4512 20.3178 22.4768C20.2965 22.4625 20.2751 22.4483 20.2681 22.4211Z" fill="#FCFCFC"/>
<path d="M30.4123 21.1814C30.4016 21.1557 30.3907 21.1299 30.38 21.1039C30.4083 21.1225 30.4142 21.1503 30.4123 21.1814Z" fill="#FCFCFC"/>
<path d="M30.4389 21.2945C30.4312 21.2659 30.4234 21.2374 30.4158 21.2088C30.4453 21.2315 30.439 21.2638 30.4389 21.2945Z" fill="#FCFCFC"/>
<path d="M9.57264 19.5137C9.56672 19.5395 9.55546 19.5624 9.53637 19.5813C9.54057 19.5546 9.55031 19.5307 9.57264 19.5137Z" fill="#FCFCFC"/>
<path d="M33.3014 19.9135C33.2856 19.8936 33.276 19.8711 33.272 19.8461C33.292 19.864 33.3033 19.886 33.3014 19.9135Z" fill="#FCFCFC"/>
<path d="M5.10853 20.0363C5.10796 20.0069 5.10357 19.9769 5.11598 19.9485C5.11369 19.9777 5.12495 20.008 5.10853 20.0363Z" fill="#FCFCFC"/>
<path d="M20.5455 22.6373C20.5711 22.6396 20.5927 22.6516 20.6133 22.6659C20.5862 22.6671 20.5644 22.6554 20.5455 22.6373Z" fill="#FCFCFC"/>
<path d="M9.53637 22.3133C9.55344 22.3302 9.56779 22.349 9.57419 22.3727C9.55092 22.3597 9.53792 22.3401 9.53637 22.3133Z" fill="#FCFCFC"/>
<path d="M30.3345 21.021C30.3207 21.0012 30.3069 20.9813 30.293 20.9615C30.3215 20.971 30.3317 20.9935 30.3345 21.021Z" fill="#FCFCFC"/>
<path d="M26.3928 20.46C26.3699 20.4486 26.3531 20.4313 26.3412 20.409C26.3661 20.4183 26.3831 20.4356 26.3928 20.46Z" fill="#FCFCFC"/>
<path d="M25.0885 19.2451C25.088 19.2155 25.0839 19.1855 25.0964 19.1571C25.0941 19.1865 25.1055 19.217 25.0885 19.2451Z" fill="#FCFCFC"/>
<path d="M26.4644 20.5069C26.4396 20.5011 26.4204 20.4867 26.4047 20.4674C26.4308 20.471 26.4512 20.4836 26.4644 20.5069Z" fill="#FCFCFC"/>
<path d="M21.2527 22.3328C21.2259 22.333 21.1988 22.3377 21.1734 22.3242C21.1998 22.3267 21.2278 22.3139 21.2527 22.3328Z" fill="#FCFCFC"/>
<path d="M32.1941 19.7412C32.1825 19.7585 32.1711 19.776 32.1489 19.7812C32.1596 19.763 32.1716 19.7461 32.1941 19.7412Z" fill="#FCFCFC"/>
<path d="M24.422 22.0665C24.4189 22.0896 24.4107 22.1101 24.3921 22.1253C24.3954 22.1022 24.403 22.0816 24.422 22.0665Z" fill="#FCFCFC"/>
<path d="M15.1736 22.6185C15.1739 22.645 15.1774 22.672 15.1655 22.6973C15.1678 22.671 15.1558 22.6433 15.1736 22.6185Z" fill="#FCFCFC"/>
<path d="M24.0039 22.3241C23.9785 22.3361 23.9516 22.3334 23.9247 22.3327C23.9493 22.314 23.9774 22.3266 24.0039 22.3241Z" fill="#FCFCFC"/>
<path d="M29.2965 21.0379C29.3229 21.0371 29.3496 21.0331 29.3746 21.0461C29.3486 21.0432 29.321 21.0556 29.2965 21.0379Z" fill="#FCFCFC"/>
<path d="M19.5016 21.0565C19.5121 21.0369 19.5262 21.0206 19.5437 21.007C19.5423 21.0341 19.5249 21.0477 19.5016 21.0565Z" fill="#FCFCFC"/>
<path d="M24.5129 22.7132C24.5336 22.6998 24.5567 22.696 24.5805 22.6937C24.5614 22.712 24.538 22.7155 24.5129 22.7132Z" fill="#FCFCFC"/>
<path d="M5.2221 22.1947C5.20232 22.185 5.18855 22.1686 5.17459 22.1521C5.1998 22.1559 5.21396 22.172 5.2221 22.1947Z" fill="#FCFCFC"/>
<path d="M9.46756 22.1412C9.48054 22.1618 9.4855 22.1847 9.48722 22.2086C9.4687 22.1897 9.46546 22.1662 9.46756 22.1412Z" fill="#FCFCFC"/>
<path d="M25.7095 20.503C25.7223 20.5208 25.7337 20.5394 25.7372 20.5619C25.7153 20.5482 25.7081 20.5276 25.7095 20.503Z" fill="#FCFCFC"/>
<path d="M25.7451 20.5801C25.7637 20.5908 25.7695 20.6094 25.7753 20.628C25.754 20.6191 25.7488 20.6001 25.7451 20.5801Z" fill="#FCFCFC"/>
<path d="M24.3654 22.162C24.3578 22.181 24.3466 22.1963 24.3249 22.2004C24.3346 22.1837 24.3466 22.1693 24.3654 22.162Z" fill="#FCFCFC"/>
<path d="M4.84974 22.6007C4.8703 22.6021 4.8862 22.6121 4.89939 22.6275C4.87844 22.6267 4.86137 22.6189 4.84974 22.6007Z" fill="#FCFCFC"/>
<path d="M26.6166 21.0184C26.6399 21.018 26.6636 21.0155 26.6855 21.0266C26.6626 21.0243 26.638 21.0356 26.6166 21.0184Z" fill="#FCFCFC"/>
<path d="M30.4496 21.3626C30.438 21.3414 30.4408 21.3181 30.4395 21.2954C30.4597 21.3152 30.4462 21.3402 30.4496 21.3626Z" fill="#FCFCFC"/>
<path d="M18.6439 21.3792C18.666 21.3687 18.6899 21.3706 18.7134 21.3708C18.692 21.3888 18.6672 21.3771 18.6439 21.3792Z" fill="#FCFCFC"/>
<path d="M20.4801 22.6007C20.5001 22.6032 20.5169 22.611 20.5284 22.6284C20.5086 22.6253 20.491 22.6189 20.4801 22.6007Z" fill="#FCFCFC"/>
<path d="M9.79383 22.5809C9.81458 22.5827 9.83048 22.5931 9.84347 22.6088C9.82233 22.6077 9.80469 22.6003 9.79383 22.5809Z" fill="#FCFCFC"/>
<path d="M25.0502 21.9898C25.0498 21.9665 25.0475 21.943 25.0582 21.9211C25.0561 21.944 25.0672 21.9686 25.0502 21.9898Z" fill="#FCFCFC"/>
<path d="M25.774 19.4746C25.7709 19.4946 25.7629 19.5115 25.7451 19.5225C25.7486 19.5029 25.7548 19.4849 25.774 19.4746Z" fill="#FCFCFC"/>
<path d="M29.812 22.0368C29.8085 22.0564 29.8029 22.0746 29.7839 22.0851C29.787 22.0653 29.7934 22.0475 29.812 22.0368Z" fill="#FCFCFC"/>
<path d="M5.57665 19.0751C5.5545 19.0862 5.53064 19.0828 5.50735 19.0824C5.52911 19.0667 5.55355 19.0769 5.57665 19.0751Z" fill="#FCFCFC"/>
<path d="M26.6638 19.075C26.6418 19.0859 26.6181 19.083 26.5948 19.0827C26.6162 19.0664 26.6407 19.0771 26.6638 19.075Z" fill="#FCFCFC"/>
<path d="M29.8393 22.6947C29.8569 22.6823 29.8769 22.6768 29.8982 22.6749C29.8835 22.696 29.8618 22.6964 29.8393 22.6947Z" fill="#FCFCFC"/>
<path d="M14.1693 22.5999C14.1825 22.5844 14.1988 22.5743 14.2192 22.571C14.2087 22.5914 14.1907 22.5984 14.1693 22.5999Z" fill="#FCFCFC"/>
<path d="M14.4101 19.4285C14.3963 19.4179 14.3853 19.4051 14.3773 19.3896C14.3975 19.3948 14.4095 19.4068 14.4101 19.4285Z" fill="#FCFCFC"/>
<path d="M14.3323 19.3457C14.3195 19.3347 14.3067 19.3234 14.2941 19.3124C14.3154 19.3137 14.3277 19.3256 14.3323 19.3457Z" fill="#FCFCFC"/>
<path d="M4.80151 19.3025C4.79414 19.3182 4.78289 19.3293 4.76466 19.3312C4.773 19.3165 4.78289 19.304 4.80151 19.3025Z" fill="#FCFCFC"/>
<path d="M24.3918 22.1244C24.3885 22.1424 24.3777 22.1548 24.3625 22.1641C24.3612 22.1428 24.3744 22.1321 24.3918 22.1244Z" fill="#FCFCFC"/>
<path d="M24.5803 22.6947C24.5941 22.6815 24.611 22.6763 24.6296 22.6749C24.6176 22.6925 24.6001 22.6964 24.5803 22.6947Z" fill="#FCFCFC"/>
<path d="M25.842 19.3797C25.8391 19.3977 25.8282 19.4097 25.8123 19.4177C25.8135 19.3983 25.8263 19.3878 25.842 19.3797Z" fill="#FCFCFC"/>
<path d="M25.0784 19.0829C25.058 19.0825 25.0371 19.0856 25.0181 19.075C25.0383 19.0765 25.0602 19.0668 25.0784 19.0829Z" fill="#FCFCFC"/>
<path d="M34.8666 21.8087C34.886 21.8087 34.9054 21.8085 34.9248 21.8083C34.9054 21.8252 34.886 21.8242 34.8666 21.8087Z" fill="#FCFCFC"/>
<path d="M24.7804 22.5902C24.7895 22.5748 24.8039 22.5659 24.8192 22.5582C24.8136 22.5777 24.8019 22.5898 24.7804 22.5902Z" fill="#FCFCFC"/>
<path d="M9.72445 22.5329C9.74288 22.5357 9.75587 22.5457 9.76402 22.5624C9.74404 22.5618 9.73299 22.549 9.72445 22.5329Z" fill="#FCFCFC"/>
<path d="M14.2446 22.5507C14.2565 22.5379 14.2681 22.5249 14.2863 22.5211C14.2792 22.5403 14.2669 22.5527 14.2446 22.5507Z" fill="#FCFCFC"/>
<path d="M14.5637 19.7901C14.5515 19.7721 14.5556 19.7511 14.5537 19.7313C14.5733 19.7482 14.5614 19.7703 14.5637 19.7901Z" fill="#FCFCFC"/>
<path d="M33.2742 19.8469C33.2608 19.8331 33.2557 19.816 33.2542 19.7976C33.2726 19.8093 33.2763 19.8269 33.2742 19.8469Z" fill="#FCFCFC"/>
<path d="M24.7387 22.6187C24.7514 22.6071 24.763 22.5939 24.7808 22.5898C24.7725 22.6079 24.7609 22.6208 24.7387 22.6187Z" fill="#FCFCFC"/>
<path d="M29.667 21.1514C29.6858 21.1528 29.6963 21.1648 29.7039 21.1803C29.6852 21.1788 29.6753 21.1662 29.667 21.1514Z" fill="#FCFCFC"/>
<path d="M19.4284 21.1231C19.4389 21.1089 19.4518 21.0977 19.4678 21.0901C19.4627 21.1107 19.4505 21.1227 19.4284 21.1231Z" fill="#FCFCFC"/>
<path d="M19.6145 20.8944C19.6209 20.8776 19.6234 20.8589 19.6376 20.8457C19.6385 20.8661 19.637 20.8851 19.6145 20.8944Z" fill="#FCFCFC"/>
<path d="M30.1837 20.8487C30.1662 20.8438 30.1546 20.8312 30.1423 20.8192C30.1643 20.8175 30.1761 20.8303 30.1837 20.8487Z" fill="#FCFCFC"/>
<path d="M19.6384 20.8466C19.6401 20.8282 19.6459 20.8117 19.6585 20.7978C19.6599 20.8174 19.6564 20.835 19.6384 20.8466Z" fill="#FCFCFC"/>
<path d="M25.6879 20.4545C25.7011 20.4683 25.7061 20.4851 25.7077 20.5036C25.6902 20.4915 25.6863 20.4741 25.6879 20.4545Z" fill="#FCFCFC"/>
<path d="M25.8123 20.6761C25.8281 20.684 25.8387 20.6959 25.8412 20.7139C25.8261 20.7056 25.8133 20.6953 25.8123 20.6761Z" fill="#FCFCFC"/>
<path d="M25.7748 20.6276C25.7887 20.6377 25.8015 20.6486 25.8033 20.6674C25.7874 20.6586 25.774 20.6482 25.7748 20.6276Z" fill="#FCFCFC"/>
<path d="M32.139 20.5989C32.1596 20.5991 32.1804 20.5974 32.1996 20.6069C32.1792 20.6053 32.1575 20.6152 32.139 20.5989Z" fill="#FCFCFC"/>
<path d="M30.3879 22.2197C30.3953 22.2028 30.4025 22.1858 30.4098 22.1689C30.4114 22.1896 30.4098 22.209 30.3879 22.2197Z" fill="#FCFCFC"/>
<path d="M9.48923 22.2085C9.50222 22.2224 9.50784 22.2393 9.50823 22.2581C9.49214 22.2453 9.48709 22.2282 9.48923 22.2085Z" fill="#FCFCFC"/>
<path d="M32.2599 20.6077C32.276 20.5984 32.2936 20.5982 32.3115 20.5995C32.2963 20.6151 32.2773 20.6067 32.2599 20.6077Z" fill="#FCFCFC"/>
<path d="M33.1571 20.4735C33.1728 20.464 33.1899 20.4634 33.2075 20.4652C33.1928 20.4805 33.1742 20.4721 33.1571 20.4735Z" fill="#FCFCFC"/>
<path d="M33.2344 20.4653C33.2501 20.456 33.2672 20.4556 33.2846 20.4572C33.2699 20.4721 33.2513 20.4641 33.2344 20.4653Z" fill="#FCFCFC"/>
<path d="M33.3195 20.4553C33.3354 20.4456 33.3526 20.4458 33.3703 20.4474C33.3554 20.4623 33.3367 20.4544 33.3195 20.4553Z" fill="#FCFCFC"/>
<path d="M33.4047 20.4454C33.4206 20.4359 33.4379 20.4359 33.4555 20.4375C33.4406 20.4526 33.4219 20.4444 33.4047 20.4454Z" fill="#FCFCFC"/>
<path d="M29.3734 22.3245C29.3577 22.3346 29.34 22.3348 29.3224 22.3334C29.3371 22.3169 29.3561 22.3257 29.3734 22.3245Z" fill="#FCFCFC"/>
<path d="M31.8427 20.1701C31.8429 20.1877 31.8423 20.2052 31.8332 20.2211C31.8346 20.2038 31.8255 20.1844 31.8427 20.1701Z" fill="#FCFCFC"/>
<path d="M18.8143 21.3612C18.83 21.3513 18.8475 21.3513 18.8651 21.3521C18.8506 21.3685 18.8316 21.3598 18.8143 21.3612Z" fill="#FCFCFC"/>
<path d="M18.7489 21.3696C18.7648 21.3599 18.7824 21.3604 18.8001 21.3608C18.7853 21.3771 18.7661 21.3684 18.7489 21.3696Z" fill="#FCFCFC"/>
<path d="M33.5025 19.35C33.5165 19.3643 33.5105 19.3824 33.5115 19.399C33.4957 19.3851 33.5043 19.3665 33.5025 19.35Z" fill="#FCFCFC"/>
<path d="M29.84 21.932C29.8392 21.9481 29.8423 21.9649 29.8297 21.9785C29.8318 21.9626 29.8233 21.9446 29.84 21.932Z" fill="#FCFCFC"/>
<path d="M5.56601 22.333C5.54855 22.3338 5.5309 22.3346 5.51539 22.3245C5.53265 22.3256 5.55146 22.3171 5.56601 22.333Z" fill="#FCFCFC"/>
<path d="M21.1565 22.3247C21.139 22.3253 21.1216 22.3251 21.106 22.3154C21.1231 22.3168 21.1421 22.308 21.1565 22.3247Z" fill="#FCFCFC"/>
<path d="M25.0404 22.077C25.0392 22.0597 25.039 22.0424 25.0487 22.0269C25.0474 22.0438 25.0557 22.0624 25.0404 22.077Z" fill="#FCFCFC"/>
<path d="M5.42548 19.0852C5.40957 19.0953 5.39212 19.0937 5.37467 19.0927C5.38979 19.0782 5.40841 19.0861 5.42548 19.0852Z" fill="#FCFCFC"/>
<path d="M26.5403 19.0852C26.5246 19.0952 26.5073 19.0943 26.4899 19.0929C26.5048 19.0782 26.5232 19.0861 26.5403 19.0852Z" fill="#FCFCFC"/>
<path d="M9.51456 22.2767C9.52814 22.2854 9.5326 22.2992 9.5355 22.314C9.51631 22.3083 9.51398 22.2934 9.51456 22.2767Z" fill="#FCFCFC"/>
<path d="M35.832 18.6461C35.9906 18.7261 36.1498 18.8048 36.3077 18.8863C36.4699 18.9699 36.632 19.0539 36.7966 19.1327C36.8973 19.181 36.9924 19.2379 37.06 19.3312C37.185 19.5038 37.1308 19.7354 36.9414 19.8345C36.8412 19.8869 36.7305 19.9022 36.6213 19.9209C36.3214 19.9723 36.0211 20.0217 35.7209 20.0715C35.7069 20.0738 35.6924 20.0735 35.6783 20.0744C35.6294 20.0267 35.6449 19.9673 35.659 19.9148C35.6834 19.8245 35.7042 19.7337 35.7252 19.6426C35.7405 19.5762 35.7405 19.5057 35.7648 19.4424C35.8134 19.3154 35.8266 19.1808 35.8566 19.0501C35.8837 18.9315 35.861 18.8107 35.8381 18.6921C35.8352 18.6769 35.8255 18.6625 35.832 18.6461Z" fill="#E5903F"/>
<path d="M35.831 18.6466C35.8619 18.6882 35.8606 18.739 35.8677 18.7863C35.886 18.9104 35.8787 19.0326 35.8482 19.1557C35.7932 19.3781 35.7472 19.6028 35.6968 19.8263C35.6892 19.8601 35.6752 19.8926 35.6684 19.9264C35.6584 19.9762 35.6565 20.0264 35.6773 20.0749C35.6166 20.0856 35.5559 20.0963 35.4952 20.1072C35.4399 20.0955 35.3893 20.1169 35.3377 20.1304C35.3148 20.1364 35.2927 20.1455 35.2682 20.1423C35.2493 20.1348 35.2509 20.118 35.2493 20.1024C35.2367 19.9751 35.24 19.8493 35.2818 19.7265C35.2921 19.6965 35.2957 19.6647 35.3034 19.6341C35.3897 19.2892 35.4072 18.9328 35.4801 18.5855C35.4868 18.5534 35.4889 18.5189 35.5155 18.4943C35.5884 18.526 35.6611 18.5576 35.734 18.5893C35.7663 18.6084 35.7986 18.6273 35.8308 18.6464L35.831 18.6466Z" fill="#D7633F"/>
<path d="M14.5775 19.9283C14.5775 19.8815 14.5693 19.8349 14.5626 19.7885L14.5632 19.7893C14.5517 19.7714 14.567 19.749 14.5532 19.7315L14.5536 19.732C14.5397 19.665 14.5202 19.5999 14.4834 19.5415C14.4591 19.5035 14.4349 19.4655 14.4108 19.4276C14.4021 19.4131 14.3927 19.3991 14.3786 19.3892C14.3637 19.3745 14.3488 19.3598 14.3339 19.3449C14.3246 19.3302 14.3097 19.322 14.2963 19.3121C14.2511 19.2836 14.207 19.2527 14.1602 19.2269C13.9712 19.1223 13.7647 19.0851 13.5522 19.0725C12.9337 19.0727 12.3152 19.0731 11.6969 19.0733C11.317 19.0733 10.9369 19.0729 10.557 19.0725C10.5259 19.0733 10.4946 19.0738 10.4635 19.0746C10.4448 19.0849 10.4243 19.0828 10.4043 19.0822C10.2894 19.0983 10.1745 19.1139 10.0641 19.1515C9.93489 19.1954 9.81558 19.2565 9.71459 19.3501C9.68844 19.3732 9.66362 19.3976 9.64072 19.4241C9.61304 19.4497 9.59452 19.4822 9.57276 19.5123C9.55978 19.5343 9.54985 19.5579 9.53649 19.5799L9.53706 19.5791C9.51262 19.6309 9.49964 19.686 9.48876 19.7416L9.48933 19.7408C9.47483 19.8069 9.46681 19.8741 9.46528 19.9411C9.45936 20.1959 9.46051 20.451 9.45784 20.706C9.45345 21.121 9.44505 21.536 9.44524 21.9512C9.44524 22.0157 9.45421 22.0791 9.47025 22.1415L9.46967 22.1408C9.47693 22.1629 9.47941 22.1868 9.48933 22.2082L9.48876 22.2074C9.49544 22.2234 9.49888 22.2408 9.50747 22.2563C9.51052 22.2629 9.51358 22.2694 9.51644 22.2761C9.52446 22.2876 9.52446 22.3034 9.53668 22.3124C9.54679 22.3332 9.55958 22.3523 9.57371 22.3704C9.58326 22.383 9.5928 22.3958 9.60235 22.4084C9.63652 22.4504 9.67508 22.488 9.71631 22.5229C9.71956 22.526 9.72299 22.5291 9.72624 22.5321C9.73979 22.5411 9.75124 22.5527 9.76518 22.5611C9.77453 22.5676 9.78389 22.5739 9.79324 22.5804C9.8087 22.5911 9.82608 22.5984 9.84211 22.6079L9.84135 22.6073C9.88411 22.6402 9.93661 22.6526 9.98395 22.6755C9.99139 22.685 10.0027 22.6822 10.0124 22.6843C10.1621 22.74 10.3188 22.7581 10.4763 22.7646C10.616 22.7703 10.7559 22.7673 10.8959 22.7656C11.798 22.7551 12.7006 22.7885 13.6028 22.7471C13.7083 22.7423 13.8128 22.731 13.9149 22.7028L13.9141 22.7033C13.9701 22.6886 14.025 22.6717 14.077 22.6459L14.0764 22.6463C14.11 22.6333 14.1432 22.6197 14.1722 22.598L14.1716 22.5985C14.1877 22.5884 14.206 22.5823 14.2207 22.5701C14.2289 22.5636 14.2373 22.5571 14.2455 22.5506C14.2627 22.5459 14.2738 22.5325 14.2866 22.5214L14.2858 22.522C14.3268 22.4924 14.3631 22.458 14.3914 22.4159C14.3935 22.4132 14.3956 22.4107 14.3977 22.408C14.4313 22.3798 14.4467 22.3395 14.4677 22.3028L14.4672 22.3036C14.5433 22.1486 14.5628 21.9802 14.5672 21.8122C14.5771 21.4255 14.563 21.0387 14.5767 20.6518C14.5853 20.4111 14.5788 20.1696 14.5779 19.9285L14.5775 19.9283ZM13.9575 20.9652C13.9519 21.2525 13.9546 21.5398 13.9523 21.8273C13.9515 21.9195 13.9441 22.0112 13.8971 22.0948C13.8494 22.1797 13.7822 22.241 13.6904 22.2761C13.5745 22.3204 13.4543 22.3397 13.3311 22.3399C12.4679 22.3412 11.6047 22.342 10.7414 22.341C10.6194 22.341 10.4963 22.3424 10.3778 22.3055C10.2539 22.267 10.1489 22.2028 10.0918 22.0795C10.0695 22.031 10.0615 21.9789 10.0611 21.9266C10.0576 21.4043 10.0542 20.882 10.0662 20.3599C10.0691 20.2408 10.0666 20.1217 10.0704 20.0027C10.0748 19.8664 10.1034 19.7381 10.2121 19.6416C10.3064 19.5576 10.4184 19.5203 10.5425 19.5129C10.8539 19.4942 11.1654 19.5058 11.4769 19.5024C11.6694 19.5003 11.8616 19.502 12.054 19.502C12.054 19.5024 12.054 19.503 12.054 19.5033C12.5087 19.5033 12.9635 19.5028 13.418 19.5037C13.5848 19.5041 13.7314 19.561 13.859 19.6689C13.9263 19.7259 13.9599 19.7962 13.9615 19.8846C13.9676 20.245 13.9645 20.6052 13.9576 20.9654L13.9575 20.9652Z" fill="#EFA141"/>
<path d="M19.7099 19.9785C19.7057 19.8863 19.7021 19.7931 19.6761 19.7032L19.6767 19.704C19.6683 19.6746 19.6643 19.6437 19.6462 19.6179C19.6412 19.6101 19.6355 19.6024 19.6315 19.5942C19.5486 19.4171 19.4127 19.293 19.2407 19.2055C19.0752 19.1216 18.8971 19.086 18.7136 19.0729C18.4815 19.0729 18.2494 19.0725 18.0173 19.0725C17.0887 19.0725 16.1602 19.0729 15.2317 19.0729C15.221 19.0757 15.2141 19.0824 15.2117 19.0933C15.2036 19.1132 15.2086 19.134 15.2078 19.1544C15.205 19.2302 15.2128 19.306 15.2036 19.3816C15.2033 19.5077 15.2027 19.6341 15.2023 19.7603C15.1928 19.8344 15.2004 19.9088 15.1983 19.9831C15.1954 20.0812 15.2033 20.1793 15.1941 20.2772C15.1937 20.4416 15.1933 20.6058 15.1928 20.7701C15.1847 20.7867 15.1887 20.8045 15.1887 20.8217C15.1884 21.0487 15.1887 21.2754 15.1884 21.5024C15.1884 21.5196 15.1922 21.5373 15.1845 21.5541C15.1842 21.8264 15.1836 22.0988 15.1832 22.371C15.1716 22.4254 15.1866 22.481 15.175 22.5354C15.1746 22.5632 15.174 22.5909 15.1737 22.6188C15.163 22.6442 15.1761 22.6722 15.1656 22.6976C15.1656 22.7116 15.1656 22.7257 15.1656 22.7396C15.1989 22.7704 15.2424 22.7641 15.2808 22.7648C15.4285 22.7681 15.5765 22.7663 15.7244 22.766C15.7843 22.766 15.7891 22.76 15.7897 22.7016C15.7935 22.2954 15.7801 21.889 15.7994 21.4828C15.8009 21.4488 15.7985 21.4121 15.8326 21.3892C16.0417 21.389 16.2507 21.3888 16.4597 21.3885C16.4781 21.3806 16.4973 21.3846 16.5162 21.3846C17.1888 21.3844 17.8613 21.3846 18.534 21.3843C18.5527 21.3843 18.5722 21.389 18.5903 21.3799C18.6085 21.3797 18.6266 21.3793 18.6447 21.3791C18.6669 21.3686 18.6921 21.382 18.7142 21.3707C18.7261 21.3703 18.7379 21.3699 18.7497 21.3696C18.7654 21.3602 18.7847 21.3715 18.8001 21.361C18.8059 21.3608 18.8114 21.3604 18.8171 21.3602C18.8326 21.3503 18.8519 21.3623 18.8671 21.3512C19.0695 21.3123 19.2638 21.2535 19.4284 21.1221C19.4433 21.1136 19.4574 21.1042 19.4671 21.0897C19.479 21.0782 19.4906 21.0666 19.5024 21.0551C19.5179 21.0404 19.5345 21.0265 19.5439 21.0065L19.6164 20.8935C19.6328 20.8816 19.6307 20.8612 19.6391 20.8455L19.6385 20.8463C19.649 20.832 19.6508 20.8139 19.6584 20.7982L19.658 20.7988C19.6857 20.726 19.6985 20.6495 19.7006 20.5731C19.7057 20.375 19.7195 20.1768 19.7105 19.9787L19.7099 19.9785ZM18.9966 20.7562C18.9145 20.8478 18.806 20.8915 18.6906 20.92C18.5806 20.9469 18.4683 20.9586 18.3551 20.9587H15.8848C15.8191 20.9587 15.8143 20.9511 15.803 20.8862C15.7956 20.8432 15.8017 20.8007 15.8021 20.7581C15.8059 20.363 15.8097 19.9678 15.8145 19.5725C15.8153 19.5032 15.8172 19.503 15.8851 19.503C16.6672 19.503 17.4493 19.503 18.2314 19.5037C18.4191 19.5039 18.6056 19.5165 18.7877 19.5686C18.9904 19.6267 19.0933 19.7607 19.0954 19.9718C19.0968 20.1161 19.0974 20.2606 19.1016 20.405C19.1054 20.5321 19.0867 20.6554 18.9966 20.756V20.7562Z" fill="#EFA141"/>
<path d="M35.5165 18.4934C35.4801 18.6384 35.4572 18.7862 35.435 18.934C35.4154 19.0645 35.3974 19.1955 35.3839 19.3268C35.376 19.403 35.3419 19.4723 35.3327 19.5469C35.319 19.6569 35.2813 19.7613 35.2632 19.8697C35.2518 19.9383 35.2542 20.0089 35.2636 20.0778C35.2665 20.099 35.2516 20.1219 35.2693 20.1412C35.229 20.1574 35.1859 20.1544 35.1439 20.1591C35.0859 20.1658 35.0269 20.1652 34.9687 20.1706C34.9192 20.1752 34.8721 20.1904 34.8305 20.2179C34.7906 20.2443 34.761 20.2343 34.7308 20.2017C34.6928 20.1607 34.6596 20.1173 34.6388 20.065C34.642 20.0616 34.6455 20.0581 34.6501 20.0566C34.7138 20.0352 34.7445 19.9904 34.7344 19.9209C34.7216 19.8325 34.7314 19.7466 34.7529 19.6615C34.7907 19.5116 34.806 19.3583 34.8247 19.2056C34.831 19.155 34.8375 19.1046 34.8492 19.0554C34.877 18.938 34.8944 18.8188 34.9129 18.6997C34.9248 18.6241 34.9458 18.5508 34.9683 18.4781C34.9866 18.4189 34.9954 18.3607 34.9715 18.3013C35.0359 18.2328 35.0362 18.2322 35.1176 18.2759C35.2508 18.3479 35.3835 18.4206 35.5163 18.4932L35.5165 18.4934Z" fill="#B9412B"/>
<path d="M34.9716 18.3014C35.0172 18.3365 35.0052 18.3842 34.9948 18.4277C34.9695 18.535 34.9343 18.6396 34.9193 18.7498C34.8906 18.9596 34.8362 19.1652 34.8179 19.3771C34.8072 19.5023 34.7757 19.625 34.7499 19.7484C34.7385 19.8035 34.7358 19.8602 34.7492 19.9169C34.7595 19.9606 34.7387 20.0009 34.7234 20.0391C34.7089 20.075 34.6696 20.0639 34.6384 20.0651C34.585 19.9706 34.5315 19.8759 34.4777 19.7814C34.4718 19.7709 34.4705 19.7566 34.4559 19.7524C34.4132 19.6661 34.3725 19.5787 34.3271 19.4939C34.1967 19.2503 34.257 19.0107 34.4243 18.8378C34.6018 18.6541 34.7822 18.4732 34.9714 18.3014H34.9716Z" fill="#932317"/>
<circle cx="20.2601" cy="20.2601" r="19.7601" stroke="black" stroke-opacity="0.05"/>
</svg>
