<svg width="40" height="40" viewBox="0 0 40 40" fill="none" xmlns="http://www.w3.org/2000/svg">
<circle cx="20" cy="20" r="20" fill="#F6F8FA"/>
<g clip-path="url(#clip0_9_371748)">
<path d="M22.8761 28.0369C22.3432 28.2255 21.8002 28.0981 21.3124 27.8227C20.7895 27.5269 20.3069 27.0935 19.8745 26.6601C19.6432 26.4306 19.4169 26.1909 19.1856 25.9461C19.1706 25.936 19.1555 25.9258 19.1504 25.9105C17.5465 24.2838 15.9476 22.6622 14.3538 21.0457C14.2532 20.9437 14.1678 20.8112 14.0974 20.6378C13.9314 20.2349 13.9767 19.7709 14.208 19.4037C14.2583 19.3222 14.3638 19.1998 14.5298 19.0315C15.8672 17.6751 17.2046 16.3187 18.5471 14.9572C18.6728 14.8297 18.7985 14.7022 18.9292 14.5696C19.0951 14.4013 19.2208 14.2891 19.3113 14.2331C19.5778 14.0648 19.8694 14.0036 20.1962 14.0495C20.3974 14.075 20.5985 14.1566 20.7996 14.2942C20.5633 14.0291 20.2767 13.7384 19.9499 13.4172C19.618 13.0908 19.2962 12.8256 18.9946 12.6166C18.5873 12.3361 18.1097 12.1219 17.627 12.127C17.4108 12.127 17.1895 12.178 16.9583 12.2749L16.4404 12.8052C15.0527 14.2127 13.6599 15.6201 12.2722 17.0326C11.4627 17.8434 11.0102 18.9346 11.0002 20.0973C10.9901 21.2905 11.4577 22.4123 12.2873 23.2486C13.8309 24.809 15.3493 26.3541 16.8527 27.8788C16.9784 28.0063 17.099 28.1236 17.2147 28.2204C18.9292 29.6941 21.4583 29.5718 23.0521 27.9859C22.9968 28.0063 22.9415 28.0267 22.8862 28.042L22.8761 28.0369Z" fill="#D8D8D8"/>
<path d="M27.7633 17.0528L27.3812 16.6653L26.0991 15.365L24.5103 13.7536C24.0276 13.2641 23.5399 12.7694 23.0522 12.2748C22.2829 11.4997 21.3427 11.0714 20.2214 10.9949H19.779C18.6728 11.0663 17.7276 11.4895 16.9482 12.2697C17.1745 12.1728 17.4008 12.1218 17.617 12.1218C18.0996 12.1167 18.5773 12.3309 18.9846 12.6114C19.2913 12.8204 19.608 13.0856 19.9399 13.4119C20.2667 13.7332 20.5533 14.0239 20.7896 14.289L22.3935 15.9055L23.9823 17.5169L25.2443 18.7968C25.4103 18.9702 25.6265 19.164 25.7471 19.3322C25.9181 19.5719 26.0035 19.8422 26.0035 20.1481C26.0035 20.398 25.9231 20.6479 25.7723 20.9028C26.079 20.6224 26.3706 20.3317 26.6421 20.041C27.0393 19.6127 27.4164 19.1487 27.6678 18.6234C27.7784 18.3991 27.8488 18.1543 27.879 17.8942C27.9091 17.6444 27.8689 17.3639 27.7583 17.0528H27.7633Z" fill="url(#paint0_linear_9_371748)"/>
<path d="M27.7629 17.053C28.4115 17.7261 28.8037 18.5267 28.9445 19.4446C29.0551 20.1636 28.9948 20.8571 28.7685 21.5302C28.5926 22.0605 28.3311 22.5296 27.9842 22.9376C27.8937 23.0447 27.773 23.1721 27.6272 23.3251C27.0993 23.8656 26.5663 24.4062 26.0283 24.9467C25.8624 24.7733 25.6864 24.6203 25.5004 24.4827C24.7914 23.9574 23.997 23.677 23.1171 23.6362C23.1071 23.6362 23.1021 23.6362 23.1021 23.6209C23.9065 22.7999 24.716 21.984 25.5205 21.1681C25.5607 21.1273 25.6009 21.0865 25.6462 21.0355C25.6914 20.9845 25.7317 20.9437 25.7719 20.903C26.0786 20.6225 26.3702 20.3318 26.6417 20.0412C27.0389 19.6128 27.416 19.1488 27.6674 18.6236C27.778 18.3992 27.8484 18.1544 27.8786 17.8944C27.9088 17.6445 27.8685 17.364 27.7579 17.053H27.7629Z" fill="#2E5DA0"/>
<path d="M21.7297 25.0179L21.3979 25.3596C21.247 25.5126 21.0912 25.6655 20.9403 25.8185C20.6487 26.1092 20.2968 26.2418 19.8895 26.2061C19.6683 26.1908 19.4521 26.1143 19.2711 25.9868C19.2409 25.9664 19.2158 25.9511 19.1856 25.9409C19.1705 25.9307 19.1554 25.9205 19.1504 25.9052C19.3917 25.4718 19.6834 25.1046 20.0202 24.7885C20.4325 24.6406 20.8297 24.6355 21.2219 24.7732C21.4029 24.8343 21.5739 24.9159 21.7297 25.0128V25.0179Z" fill="#B7BFC5"/>
<path d="M23.9068 27.0884C23.9068 27.0884 23.9017 27.0731 23.8967 27.068L23.3839 26.5071C23.233 26.3388 23.052 26.1501 22.8509 25.9411C22.509 25.5943 22.1369 25.2629 21.7297 25.0232L21.3978 25.3648C21.247 25.5178 21.0911 25.6708 20.9403 25.8238C20.6487 26.1144 20.2967 26.247 19.8895 26.2113C19.6682 26.196 19.452 26.1195 19.271 25.9921C19.2409 25.9717 19.2157 25.9564 19.1855 25.9462C19.4168 26.1909 19.6431 26.4255 19.8744 26.6601C20.3068 27.0986 20.7895 27.5321 21.3124 27.8227C21.8051 28.0981 22.3431 28.2256 22.876 28.0369C22.9314 28.0165 22.9867 27.9961 23.042 27.9808L23.4593 27.5575L23.9068 27.1037V27.0884Z" fill="#3D6DB5"/>
<path d="M28.7435 27.889L28.0295 27.1139L26.9435 25.9359L26.0334 24.9467C25.8675 24.7733 25.6915 24.6203 25.5055 24.4826C24.7966 23.9574 24.0021 23.6769 23.1223 23.6361C23.1122 23.6361 23.1072 23.6361 23.1072 23.6208C23.1072 23.6259 23.1021 23.631 23.0921 23.6259C22.001 23.6056 21.0357 23.937 20.196 24.6254C20.1407 24.6713 20.0804 24.7223 20.02 24.7886C20.4323 24.6407 20.8295 24.6356 21.2217 24.7733C21.4027 24.8345 21.5737 24.9161 21.7295 25.013C22.1368 25.2526 22.5088 25.5841 22.8507 25.9308C23.0569 26.1399 23.2329 26.3286 23.3837 26.4969L23.8966 27.0578C23.8966 27.0578 23.9066 27.0731 23.9066 27.0782V27.0935C23.9066 27.0935 23.9167 27.0884 23.9217 27.0935C24.1932 27.3892 24.4647 27.685 24.7362 27.9757L25.8021 29.1281L26.5966 29.9899C26.5966 29.9899 26.6066 29.9899 26.6116 29.9899L28.7485 27.8941C28.7485 27.8941 28.7485 27.8839 28.7485 27.8788L28.7435 27.889Z" fill="url(#paint1_linear_9_371748)"/>
</g>
<circle cx="20" cy="20" r="19.5" stroke="black" stroke-opacity="0.05"/>
<defs>
<linearGradient id="paint0_linear_9_371748" x1="20.2365" y1="12.5043" x2="28.2634" y2="20.1625" gradientUnits="userSpaceOnUse">
<stop offset="0.1" stop-color="#76ADE5"/>
<stop offset="0.86" stop-color="#24478E"/>
</linearGradient>
<linearGradient id="paint1_linear_9_371748" x1="20.015" y1="26.813" x2="28.7485" y2="26.813" gradientUnits="userSpaceOnUse">
<stop offset="0.1" stop-color="#76ADE5"/>
<stop offset="0.86" stop-color="#24478E"/>
</linearGradient>
<clipPath id="clip0_9_371748">
<rect width="18" height="19" fill="white" transform="translate(11 11)"/>
</clipPath>
</defs>
</svg>
