<svg width="40" height="40" viewBox="0 0 40 40" fill="none" xmlns="http://www.w3.org/2000/svg">
<circle cx="20" cy="20" r="20" fill="#F6F8FA"/>
<path d="M30 22.9525V20.3524H10V22.9489C16.7452 21.886 23.2622 21.887 30 22.9525Z" fill="#1D4E9E"/>
<path d="M30 26.4284V23.6626C23.2618 22.5972 16.7459 22.5961 10 23.6598V26.4122C16.9809 24.0288 23.0375 24.0344 30 26.4284Z" fill="#1D4E9E"/>
<path d="M30 27.1643C23.0269 24.6366 16.9918 24.6314 10 27.1478V29.9958C17.0722 26.0005 22.932 26.0023 30 30.0004V27.1643Z" fill="#1D4E9E"/>
<path d="M30 17.0483V19.6483H10V17.0514C16.7452 18.1147 23.2622 18.1137 30 17.0483Z" fill="#0994DC"/>
<path d="M30 13.572V16.3378C23.2618 17.4035 16.7459 17.4043 10 16.3406V13.5882C16.9809 15.9716 23.0375 15.9663 30 13.572Z" fill="#0994DC"/>
<path d="M30 12.8364C23.0269 15.3641 16.9918 15.3694 10 12.853V10.0049C17.0722 14.0002 22.932 13.9984 30 9.99999V12.8364Z" fill="#0994DC"/>
<circle cx="20" cy="20" r="19.5" stroke="black" stroke-opacity="0.05"/>
</svg>
