<svg width="40" height="40" viewBox="0 0 40 40" fill="none" xmlns="http://www.w3.org/2000/svg">
<circle cx="20" cy="20" r="20" fill="#048AD1"/>
<path d="M14.4128 14.1122C17.9594 14.8634 21.5317 14.8943 25.1279 14.2049C26.7417 13.8962 28.2217 13.3885 29.7635 12.9564C29.8801 12.9238 29.959 12.8192 29.9607 12.6991L29.9933 10.1867C29.9933 10.1215 29.9419 10.0701 29.8784 10.0684C29.863 10.0684 29.8458 10.0718 29.8304 10.0786C29.5028 10.2193 29.2044 10.3616 28.9352 10.504C27.9182 11.0425 26.9235 11.4935 25.9494 11.8554C21.8627 13.3765 17.7673 13.3319 13.66 11.7216C12.5864 11.2997 11.5626 10.8195 10.5885 10.281C10.4461 10.2021 10.2969 10.1352 10.1392 10.0821C10.0448 10.0478 10.0002 10.0821 10.0002 10.1815L10.0174 12.79C10.0174 12.8346 10.0465 12.874 10.0894 12.8878C11.6346 13.4211 13.0752 13.8293 14.4128 14.1122Z" fill="white"/>
<path d="M10.1646 16.3642C16.7124 17.3418 23.3081 17.3641 29.7941 16.3625C29.9142 16.3437 29.9742 16.2733 29.9759 16.1516L29.9828 13.7215C29.9828 13.6426 29.9176 13.5774 29.837 13.5791C29.8216 13.5791 29.8061 13.5826 29.7924 13.586C28.1752 14.1365 26.5185 14.5721 24.8241 14.8911C21.0392 15.6011 17.2509 15.4845 13.4625 14.5395C12.3135 14.2531 11.2125 13.9393 10.1595 13.5997C10.096 13.5791 10.0291 13.6134 10.0086 13.6752C10.0051 13.6872 10.0017 13.7009 10.0017 13.7146L10.0154 16.1927C10.0154 16.2785 10.0789 16.3522 10.1646 16.3642Z" fill="white"/>
<path d="M29.969 17.11C29.969 17.0602 29.9279 17.0208 29.8781 17.0225C29.8747 17.0225 29.8713 17.0225 29.8661 17.0225C28.8749 17.1683 27.9111 17.2969 26.9764 17.4101C26.4311 17.4753 25.8788 17.4873 25.3386 17.549C24.9047 17.5987 24.488 17.6365 24.085 17.6639C19.5163 17.9726 14.8911 17.7634 10.2075 17.0379C10.1114 17.0242 10.0223 17.0894 10.0086 17.1854C10.0086 17.194 10.0068 17.2026 10.0068 17.2112L10.0103 19.4835C10.0103 19.5778 10.0583 19.6258 10.1526 19.6258L29.8455 19.619C29.9313 19.619 29.9999 19.5504 29.9999 19.4663C29.9999 19.4663 29.9999 19.4646 29.9999 19.4629L29.969 17.11Z" fill="white"/>
<path d="M29.8661 20.3272L10.2195 20.3203C10.1063 20.3203 10.0137 20.4112 10.0137 20.5244L10.0171 22.7847C10.0171 22.8516 10.072 22.9065 10.1389 22.9065C10.1457 22.9065 10.1509 22.9065 10.1577 22.9065C16.7483 21.8706 23.3064 21.8706 29.8318 22.9065C29.8987 22.9185 29.9621 22.8722 29.9741 22.8036C29.9741 22.7967 29.9741 22.7899 29.9759 22.783V20.4386C29.9759 20.3769 29.9278 20.3272 29.8661 20.3272Z" fill="white"/>
<path d="M13.1092 25.441C13.646 25.3467 14.1982 25.2352 14.7659 25.11C15.3129 24.9899 15.8669 24.8939 16.4277 24.8202C19.6432 24.3983 22.8365 24.5526 26.0109 25.2815C27.3057 25.5782 28.5919 25.9315 29.8696 26.3379C29.9124 26.3516 29.9587 26.3293 29.9742 26.2847C29.9776 26.2762 29.9776 26.2676 29.9776 26.259V23.7312C29.9776 23.6591 29.9227 23.5957 29.8507 23.5854C23.2549 22.565 16.6883 22.5633 10.1509 23.5768C10.0772 23.5888 10.0223 23.6523 10.0223 23.726L10.0051 26.1784C10.0051 26.2985 10.0617 26.3413 10.1766 26.307C10.6825 26.1578 11.1662 26.0001 11.6292 25.8371C12.1385 25.6571 12.6325 25.525 13.1092 25.441Z" fill="white"/>
<path d="M13.8226 28.1029C14.5463 27.904 15.2718 27.6416 16.0298 27.4478C18.8646 26.7258 21.7629 26.7995 24.7229 27.6707C25.1242 27.7891 25.5272 27.9177 25.9303 28.0566C26.3299 28.1921 26.7209 28.3499 27.1067 28.5265C28.0054 28.9398 28.9092 29.3874 29.8164 29.8693C29.8695 29.8968 29.9347 29.8779 29.9621 29.8247C29.9707 29.8093 29.9742 29.7922 29.9742 29.775V27.1648C29.9742 27.1237 29.9484 27.0894 29.9124 27.0757C28.6142 26.6212 27.4137 26.261 26.3093 25.9952C25.4844 25.798 24.2856 25.5922 22.713 25.3796C21.4868 25.2149 20.3086 25.2286 19.0978 25.2389C18.309 25.2458 17.5475 25.3538 16.7655 25.4482C16.2561 25.5099 15.6782 25.6059 15.0334 25.738C14.4331 25.8597 13.8346 25.9781 13.2395 26.0913C12.7559 26.1822 11.7132 26.5029 10.1131 27.0516C10.0463 27.0739 10.012 27.122 10.012 27.1923L10.0188 29.8076C10.0188 29.8539 10.0566 29.8916 10.1029 29.8916C10.1166 29.8916 10.1286 29.8882 10.1406 29.8831C11.0169 29.4252 11.9499 28.9587 12.936 28.4836C13.1915 28.3602 13.447 28.2658 13.706 28.199C13.7249 28.1938 13.7386 28.1818 13.7472 28.1629C13.7626 28.1321 13.7883 28.1115 13.8226 28.1029Z" fill="white"/>
<path d="M14.4126 14.1124C13.0749 13.8294 11.6344 13.4212 10.0892 12.8879C10.0463 12.8742 10.0189 12.8347 10.0171 12.7901L10 10.1817C10 10.0822 10.0446 10.0479 10.1389 10.0822C10.2967 10.1354 10.4459 10.2023 10.5882 10.2811C11.5623 10.8214 12.5862 11.3016 13.6597 11.7217C17.7671 13.3321 21.8624 13.3767 25.9492 11.8555C26.9233 11.4936 27.918 11.0426 28.9349 10.5041C29.2042 10.3617 29.5026 10.2194 29.8301 10.0788C29.8884 10.0531 29.957 10.0788 29.9828 10.1388C29.9896 10.1542 29.9931 10.1697 29.9931 10.1868L29.9605 12.6992C29.9605 12.8193 29.8799 12.9239 29.7633 12.9565C28.2215 13.3887 26.7415 13.8963 25.1277 14.205C21.5314 14.8944 17.9592 14.8635 14.4126 14.1124Z" fill="white"/>
<path d="M25.1278 25.7278C26.7415 26.0365 28.2215 26.5441 29.7633 26.9763C29.8799 27.0089 29.9588 27.1135 29.9605 27.2336L29.9931 29.746C29.9931 29.7614 29.9897 29.7786 29.9828 29.794C29.9571 29.8523 29.8885 29.8797 29.8302 29.854C29.5026 29.7134 29.2042 29.571 28.935 29.4287C27.918 28.8902 26.9233 28.4392 25.9492 28.0773C21.8625 26.5561 17.7671 26.6007 13.6598 28.2111C12.5862 28.6312 11.5624 29.1114 10.5883 29.6517C10.4459 29.7305 10.2967 29.7974 10.139 29.8506C10.0446 29.8832 9.99833 29.8506 10 29.7511L10.0172 27.1427C10.0172 27.0981 10.0463 27.0586 10.0892 27.0449C11.6344 26.5116 13.075 26.1034 14.4127 25.8204C17.9592 25.0693 21.5315 25.0384 25.1278 25.7278Z" fill="white"/>
<path d="M29.7941 16.3623C23.3081 17.3639 16.7124 17.3416 10.1646 16.364C10.0789 16.352 10.0154 16.2783 10.0154 16.1925L10.0017 13.7144C10.0017 13.6475 10.0549 13.5944 10.12 13.5927C10.1338 13.5927 10.1458 13.5944 10.1595 13.5995C11.2125 13.9391 12.3135 14.2529 13.4625 14.5393C17.2509 15.4843 21.0392 15.6009 24.8241 14.8909C26.5185 14.5719 28.1752 14.1363 29.7924 13.5858C29.8679 13.5601 29.9502 13.6012 29.9759 13.6767C29.981 13.6921 29.9828 13.7058 29.9828 13.7213L29.9759 16.1514C29.9759 16.2731 29.9142 16.3435 29.7941 16.3623Z" fill="white"/>
<path d="M29.969 17.1098L29.9999 19.4628C30.0016 19.5468 29.9347 19.6171 29.849 19.6188C29.849 19.6188 29.8473 19.6188 29.8455 19.6188L10.1526 19.6257C10.0583 19.6257 10.0103 19.5777 10.0103 19.4833L10.0068 17.211C10.0068 17.115 10.0857 17.0361 10.1818 17.0361C10.1903 17.0361 10.1989 17.0361 10.2075 17.0378C14.8911 17.7632 19.5163 17.9724 24.085 17.6638C24.488 17.6363 24.9047 17.5986 25.3386 17.5489C25.8788 17.4871 26.4311 17.4751 26.9764 17.4099C27.9111 17.2968 28.8749 17.1681 29.8661 17.0224C29.9159 17.0155 29.9622 17.0498 29.969 17.0995C29.969 17.103 29.969 17.1064 29.969 17.1098Z" fill="white"/>
<path d="M10.2195 20.3203L29.8661 20.3272C29.9278 20.3272 29.9776 20.3769 29.9776 20.4386V22.783C29.9759 22.8516 29.921 22.9082 29.8524 22.9082C29.8455 22.9082 29.8387 22.9082 29.8318 22.9082C23.3064 21.8706 16.7483 21.8706 10.1577 22.9082C10.0908 22.9185 10.0291 22.8739 10.0188 22.807C10.0188 22.8002 10.0188 22.795 10.0188 22.7881L10.0154 20.5278C10.0154 20.4146 10.108 20.3237 10.2212 20.3237L10.2195 20.3203Z" fill="white"/>
<path d="M11.6292 25.8371C11.1662 26.0001 10.6826 26.1578 10.1767 26.307C10.0618 26.3413 10.0034 26.2985 10.0052 26.1784L10.0223 23.726C10.0223 23.6523 10.0772 23.5888 10.1509 23.5768C16.6884 22.5633 23.255 22.565 29.8507 23.5854C29.9228 23.5957 29.9776 23.6591 29.9776 23.7312V26.259C29.9776 26.3053 29.9416 26.3413 29.8953 26.3413C29.8867 26.3413 29.8782 26.3413 29.8696 26.3379C28.592 25.9315 27.3057 25.5782 26.0109 25.2815C22.8365 24.5526 19.6433 24.3983 16.4277 24.8202C15.8669 24.8939 15.313 24.9899 14.7659 25.11C14.1983 25.2352 13.646 25.3467 13.1092 25.441C12.6325 25.525 12.1386 25.6571 11.6292 25.8371Z" fill="white"/>
<circle cx="20" cy="20" r="19.5" stroke="black" stroke-opacity="0.05"/>
</svg>
