<svg width="40" height="40" viewBox="0 0 40 40" fill="none" xmlns="http://www.w3.org/2000/svg">
<circle cx="20" cy="20" r="20" fill="#F6F8FA"/>
<g clip-path="url(#clip0_9_337928)">
<path d="M30.0001 22.9512V20.3511H9.99658V22.9477C16.6222 21.8852 23.3749 21.8863 30.0001 22.9512Z" fill="#004994"/>
<path d="M30.0001 26.4296V23.6637C23.375 22.5965 16.6217 22.5965 9.99658 23.6637V26.4155C16.9819 24.0447 23.0394 24.0447 30.0001 26.4296Z" fill="#004994"/>
<path d="M30.0001 27.1635C23.0253 24.6375 16.989 24.6304 9.99658 27.1635V30.0141C17.0701 26.0169 22.9301 26.0205 30.0001 30.0141V27.1635Z" fill="#004994"/>
<path d="M30.0001 17.0488V19.6489H9.99658V17.0488C16.6219 18.1143 23.3748 18.1143 30.0001 17.0488Z" fill="#008BD2"/>
<path d="M30.0001 13.5703V16.3362C23.3748 17.4017 16.6219 17.4017 9.99658 16.3362V13.5844C16.9819 15.9729 23.0394 15.9658 30.0001 13.5703Z" fill="#008BD2"/>
<path d="M29.9994 12.8371C23.0246 15.3631 16.9883 15.3702 9.99585 12.8371V10.0042C17.0694 14.0013 22.9293 13.9978 29.9994 10.0042V12.8371Z" fill="#008BD2"/>
</g>
<circle cx="20" cy="20" r="19.5" stroke="black" stroke-opacity="0.05"/>
<defs>
<clipPath id="clip0_9_337928">
<rect width="20" height="20" fill="white" transform="translate(10 10)"/>
</clipPath>
</defs>
</svg>
