<svg width="40" height="40" viewBox="0 0 40 40" fill="none" xmlns="http://www.w3.org/2000/svg">
<circle cx="20" cy="20" r="20" fill="#F6F8FA"/>
<path d="M11.2557 19.8236C11.6102 19.936 12.2087 20.131 12.4 20.4791C12.8612 21.3193 13.1045 22.1094 13.1298 22.8492C13.1697 23.9962 13.4481 25.1068 13.9468 26.1486C13.9491 26.1535 13.9501 26.159 13.9498 26.1645C13.9494 26.1699 13.9476 26.1752 13.9446 26.1797C13.9416 26.1843 13.9374 26.188 13.9326 26.1905C13.9277 26.193 13.9223 26.1942 13.9168 26.1939C12.9639 26.1604 11.8723 25.8911 11.0445 25.4287C9.1341 24.3606 8.27275 22.5491 8.0624 20.4175C7.91552 18.9314 8.36252 17.3248 9.40248 16.2259C9.91324 15.6867 10.4213 15.2757 10.9266 14.9928C11.6374 14.5948 12.3782 14.2611 13.2006 14.1387C13.2114 14.1371 13.2215 14.1323 13.2297 14.1251C13.2379 14.1179 13.2438 14.1084 13.2468 14.0979C13.8507 11.9745 15.7538 10.463 17.8455 9.997C19.2907 9.67482 20.6925 9.65185 22.0507 9.92809C22.7555 10.0713 23.4491 10.3712 24.1315 10.8275C25.283 11.5991 26.1434 12.7841 26.5777 14.0725C26.5892 14.1058 26.5774 14.1218 26.5424 14.1206C23.272 14.0326 20.1775 15.3582 18.5636 18.2623C18.1495 19.0082 17.8316 19.8487 17.6098 20.7838C17.5783 20.9149 17.5064 21.0144 17.394 21.0821C17.0757 21.2734 16.5607 20.7185 16.3975 20.5009C15.8816 19.8109 14.6785 17.9268 13.663 18.0846C12.8403 18.2127 12.2733 18.5951 11.962 19.2315C11.8233 19.5171 11.5785 19.7057 11.2585 19.771C11.1914 19.7849 11.1905 19.8025 11.2557 19.8236Z" fill="#D8232A"/>
<path d="M18.4404 20.4261C19.2437 18.494 20.931 16.8792 22.7661 15.9997C24.9648 14.9462 27.421 15.0822 29.7068 15.8927C29.8917 15.958 30.307 16.1493 30.3315 16.3696C30.3329 16.3818 30.3314 16.3941 30.3271 16.4056C30.3229 16.417 30.316 16.4273 30.307 16.4356C30.2981 16.4438 30.2873 16.4498 30.2757 16.453C30.264 16.4562 30.2517 16.4565 30.2399 16.454C29.8673 16.3751 29.5037 16.2509 29.1229 16.2055C28.0627 16.0786 27.01 16.0716 25.9649 16.1847C24.7771 16.3134 23.6338 16.667 22.5304 17.1956C20.6028 18.1186 19.2434 19.5766 18.4521 21.5695C18.4014 21.6976 18.3322 21.8103 18.2445 21.9077C18.2368 21.9164 18.2269 21.9229 18.2158 21.9265C18.2047 21.9302 18.1929 21.9308 18.1815 21.9285C18.1701 21.9261 18.1595 21.9207 18.1508 21.9129C18.1421 21.9051 18.1357 21.8952 18.1321 21.8841C18.1297 21.8762 18.1263 21.8687 18.1221 21.8614C18.1112 21.8415 18.1064 21.82 18.1076 21.797C18.1263 21.3727 18.2373 20.9157 18.4404 20.4261Z" fill="#D8232A"/>
<path d="M26.6824 25.9978C26.5337 26.6108 26.2396 27.2119 25.8002 27.8012C24.645 29.3498 23.0976 30.2169 21.1579 30.4025C19.7242 30.5397 18.3089 30.411 16.912 30.0162C16.9053 30.0146 16.8996 30.0104 16.8959 30.0045C16.8922 29.9986 16.8908 29.9915 16.892 29.9845C17.2329 28.0714 17.9465 26.385 19.2829 24.9542C19.6595 24.5511 20.1428 24.1552 20.7327 23.7665C21.6261 23.1784 22.6244 22.7498 23.7275 22.4808C24.2252 22.3593 24.7511 22.2995 25.2788 22.2297C25.9035 22.1463 26.385 21.877 26.8991 21.537C27.0127 21.462 27.0997 21.3707 27.1602 21.2631C27.1741 21.2383 27.1827 21.2108 27.1854 21.1825C27.188 21.1541 27.1847 21.1256 27.1757 21.0986C27.1666 21.0717 27.152 21.047 27.1327 21.0261C27.1135 21.0053 27.0901 20.9887 27.0641 20.9775C26.9136 20.9135 26.7549 20.8793 26.5881 20.8751C25.3109 20.8431 24.0672 21.0186 22.8571 21.4019C22.275 21.5859 21.653 21.9069 21.1997 22.3022C20.9573 22.5138 20.7246 22.7353 20.5015 22.9668C20.3849 23.0883 20.2368 23.1581 20.0572 23.1762C20.0352 23.1785 20.013 23.1751 19.9927 23.1662C19.9724 23.1573 19.9548 23.1434 19.9416 23.1256C19.9283 23.1079 19.9199 23.087 19.9171 23.0651C19.9143 23.0431 19.9173 23.0208 19.9258 23.0003C20.2839 22.1472 21.255 21.4064 22.0583 20.9911C23.5162 20.2368 25.151 19.9729 26.8836 19.9612C27.5809 19.9566 28.1557 19.5423 28.687 19.1488C28.7723 19.0865 28.8436 19.0109 28.901 18.9221C28.9178 18.8962 28.9279 18.8666 28.9305 18.8359C28.9331 18.8051 28.928 18.7742 28.9158 18.7459C28.9037 18.7176 28.8847 18.6927 28.8606 18.6735C28.8365 18.6542 28.808 18.6412 28.7777 18.6356C28.409 18.5673 28.0309 18.5365 27.6434 18.5431C26.4974 18.5624 25.5372 18.6719 24.7629 18.8713C23.6525 19.1572 22.5996 19.5392 21.604 20.0174C20.1524 20.7146 19.1714 21.8044 19.195 23.4618C19.1986 23.7094 19.0952 23.8581 18.8205 23.8825C18.5077 23.9107 18.5766 23.2424 18.6056 23.072C18.9275 21.235 20.312 19.7381 21.8606 18.8024C23.5761 17.7664 25.4665 17.2323 27.5319 17.2003C27.917 17.1943 28.4014 17.2184 28.9853 17.2728C29.7838 17.3478 30.595 17.5288 31.4189 17.8159C31.4509 17.8268 31.4748 17.8471 31.4905 17.8767C32.6102 19.963 31.8967 22.6195 30.3181 24.2479C29.4483 25.1443 28.3857 25.6974 27.1303 25.9072C27.0015 25.9289 26.8682 25.9298 26.7377 25.948C26.708 25.9516 26.6896 25.9682 26.6824 25.9978Z" fill="#D8232A"/>
<circle cx="20" cy="20" r="19.5" stroke="black" stroke-opacity="0.05"/>
</svg>
