<svg width="42" height="42" viewBox="0 0 42 42" fill="none" xmlns="http://www.w3.org/2000/svg">
<circle cx="21" cy="21" r="21" fill="#005BAC"/>
<circle cx="21" cy="21" r="20.5" stroke="black" stroke-opacity="0.04"/>
<path fill-rule="evenodd" clip-rule="evenodd" d="M17.1452 11L21.0764 12.9816L25.0143 11L21.0764 18.4977L17.1452 11ZM26.3288 16.7416L26.3893 16.7945C28.1471 18.3396 29.1552 20.5637 29.1552 22.8998C29.1552 27.3669 25.5313 31 21.077 31C16.6244 31 13 27.3669 13 22.8998C13 20.5615 14.0098 18.3373 15.7692 16.7945L15.8297 16.7416L13.0247 15.5586V11.6042L17.897 13.6873L20.5958 18.8186C18.5268 19.0672 16.9742 20.8068 16.9742 22.8998C16.9742 25.1692 18.8128 27.0169 21.077 27.0169C23.3397 27.0169 25.1794 25.1692 25.1794 22.8998C25.1794 20.8068 23.6262 19.0672 21.5561 18.8186C21.6155 18.7034 24.2581 13.6873 24.2581 13.6873L29.1365 11.6042V15.5586L26.3288 16.7416Z" fill="#FCB813"/>
</svg>
