<svg width="42" height="42" viewBox="0 0 42 42" fill="none" xmlns="http://www.w3.org/2000/svg">
<circle cx="21" cy="21" r="21" fill="#003DE5"/>
<circle cx="21" cy="21" r="20.5" stroke="black" stroke-opacity="0.05"/>
<path d="M7.6386 18.8172C7.48038 19.1796 7.2201 19.5624 6.89346 19.9094C6.55662 20.2718 6.14833 20.5882 5.72472 20.8434L5 19.9911C5.52057 19.6951 6.01563 19.2817 6.3882 18.7611C6.76077 18.2456 6.99553 17.6485 6.99553 16.9799V16.1939H8.21021V16.9595C8.21021 17.623 8.45518 18.1793 8.81754 18.6386C9.1799 19.1132 9.67496 19.4705 10.1598 19.7002L9.50654 20.5882C8.60829 20.1033 8.02137 19.5266 7.6386 18.8172ZM6.99553 21.2619H11.8951V24.8344H6.99553V21.2619ZM8.14386 22.2418V23.8648H10.7365V22.2418H8.14386ZM11.8951 20.925H10.7365V16H11.8951V17.9598H13.2475V18.9397H11.8951V20.925Z" fill="white"/>
<path d="M16.5294 19.8992C16.2027 19.593 15.9527 19.2663 15.7996 18.9652C15.6618 19.3021 15.4066 19.6644 15.0799 20.0115C14.7431 20.3585 14.345 20.7107 13.8959 20.9812L13.1763 20.1136C13.7479 19.741 14.2582 19.3123 14.6053 18.8172C14.9523 18.3324 15.1667 17.771 15.1667 17.1381V16.1939H16.3967V17.1177C16.3967 17.8169 16.6212 18.3579 16.9836 18.7968C17.3307 19.2459 17.8257 19.5828 18.3157 19.8329L17.6624 20.7362C17.2541 20.5167 16.856 20.2258 16.5294 19.8992ZM19.6426 24.5384C19.2343 24.8855 18.6627 25.0896 17.989 25.0896C17.3153 25.0896 16.759 24.8855 16.3559 24.5384C15.9476 24.1761 15.7128 23.6708 15.7128 23.0482C15.7128 22.451 15.9476 21.9458 16.3559 21.5834C16.759 21.2211 17.3153 21.0067 17.989 21.0067C18.6627 21.0067 19.2292 21.2211 19.6426 21.5834C20.0458 21.9458 20.2857 22.451 20.2857 23.0482C20.2857 23.6708 20.0458 24.1761 19.6426 24.5384ZM18.8209 22.2775C18.6066 22.0887 18.3259 21.9764 17.989 21.9764C17.3153 21.9764 16.8509 22.4051 16.8509 23.038C16.8509 23.681 17.3153 24.1097 17.989 24.1097C18.6627 24.1097 19.1476 23.681 19.1476 23.038C19.1476 22.7368 19.02 22.4663 18.8209 22.2775ZM19.2701 18.5774H17.6369V17.5464H19.2701V16H20.4286V20.971H19.2701V18.5774Z" fill="white"/>
<path d="M23.8331 19.7512C23.9709 19.6032 24.1138 19.4501 24.2261 19.2868L22.0315 19.4654L21.8376 18.4498L24.7109 18.3375C24.7926 18.0568 24.8589 17.7608 24.8896 17.4392H22.1948V16.4593H26.0685C26.043 17.9139 25.6602 19.0622 24.9865 19.9655C24.3128 20.8893 23.3636 21.5783 22.2152 22.1397L21.5518 21.2364C22.45 20.823 23.2411 20.3585 23.8331 19.7512ZM28.0181 23.829H26.8494V16H28.0181V18.5008H29.3706V19.4705H28.0181V23.829Z" fill="white"/>
<path d="M29.3701 21.9611H37.0001V22.9206H29.3701V21.9611ZM30.5695 20.43V16.3981H35.8263V17.3678H31.728V19.4501H35.8722V20.43H30.5695Z" fill="white"/>
</svg>
