<svg width="42" height="42" viewBox="0 0 42 42" fill="none" xmlns="http://www.w3.org/2000/svg">
<circle cx="21" cy="21" r="21" fill="#00ABE2"/>
<circle cx="21" cy="21" r="20.5" stroke="black" stroke-opacity="0.04"/>
<path fill-rule="evenodd" clip-rule="evenodd" d="M16.3175 25.4774L16.2748 25.5204C15.5814 26.2258 14.7795 26.6002 13.9533 26.6002C12.2289 26.6002 10.976 25.3057 10.976 23.5204C10.976 21.7387 12.2289 20.443 13.9533 20.443C14.7795 20.443 15.5814 20.818 16.2748 21.5252L16.3175 21.5692L17.4266 20.2273L17.3973 20.1909C16.4748 19.1005 15.3675 18.5703 14.0071 18.5703C12.6418 18.5703 11.3934 19.0298 10.4937 19.8584C9.51595 20.7559 9 22.0216 9 23.5204C9 25.0189 9.51595 26.2875 10.4937 27.1856C11.3934 28.0178 12.6418 28.4745 14.0071 28.4745C15.3675 28.4745 16.4748 27.9441 17.3973 26.8533L17.4266 26.8201L16.3175 25.4774Z" fill="white"/>
<path fill-rule="evenodd" clip-rule="evenodd" d="M18.5488 28.2927H20.5085V18.7264H18.5488V28.2927Z" fill="white"/>
<path fill-rule="evenodd" clip-rule="evenodd" d="M28.1838 26.2123C27.6603 26.5306 27.1739 26.6913 26.7368 26.6913C26.1035 26.6913 25.8176 26.3571 25.8176 25.6126V20.5364H27.8137V18.735H25.8176V15.7583L23.8974 16.7861V18.735H22.2397V20.5364H23.8974V25.9365C23.8974 27.4069 24.7686 28.4123 26.0699 28.4388C26.9525 28.4561 27.485 28.1927 27.8086 28L27.8282 27.9866L28.2993 26.1418L28.1838 26.2123Z" fill="white"/>
<path fill-rule="evenodd" clip-rule="evenodd" d="M29.8066 28.2927H31.7678V18.7264H29.8066V28.2927Z" fill="white"/>
<path fill-rule="evenodd" clip-rule="evenodd" d="M32.9099 17.0485C31.1197 14.5126 28.1467 13 25.1223 13C22.0979 13 19.1246 14.5126 17.3377 17.0485L17.2456 17.1787H19.5002L19.5247 17.1516C21.0601 15.5689 23.0624 14.7316 25.1223 14.7316C27.1818 14.7316 29.1841 15.5689 30.7217 17.1516L30.7482 17.1787H33L32.9099 17.0485Z" fill="#EC1C2D"/>
</svg>
