<svg width="42" height="42" viewBox="0 0 42 42" fill="none" xmlns="http://www.w3.org/2000/svg">
<circle cx="21" cy="21" r="21" fill="#0056A7"/>
<circle cx="21" cy="21" r="20.5" stroke="black" stroke-opacity="0.04"/>
<path fill-rule="evenodd" clip-rule="evenodd" d="M20.903 21.6103L24.4218 23.6264V23.6322L24.3906 23.6146C23.1322 24.5886 21.9313 24.9108 20.8925 24.911C19.8538 24.9108 18.6529 24.5886 17.3945 23.6146L17.3632 23.6322V23.6264L20.903 21.6103ZM19.1149 14.5436H19.1342L19.1149 18.6808L15.5852 20.6172L15.5802 20.6114C14.8608 15.6774 19.1149 14.5436 19.1149 14.5436ZM26.2047 20.6114L26.1997 20.6172L22.6702 18.6808L22.6509 14.5436H22.6702C22.6702 14.5436 26.9242 15.6774 26.2047 20.6114ZM29.5473 22.8374C28.6021 25.1395 27.018 25.7904 27.018 25.7904C31.6787 21.1631 28.8323 15.8307 28.8323 15.8307C28.1441 14.6355 29.0199 14.1145 29.0199 14.1145C27.018 14.6048 27.6436 16.2291 27.6436 16.2291C28.6496 18.5764 28.447 20.4834 28.1054 21.6627L27.4457 21.3008L27.4559 21.2856C27.4559 21.2856 29.0189 15.2519 22.6443 13.1357L22.6389 12H21.2939V19.4775L27.5498 22.9711C27.4358 23.198 27.315 23.4114 27.1892 23.6133L20.9058 20.0472L14.5959 23.6133C14.4701 23.4114 14.3492 23.198 14.2353 22.9711L20.4911 19.4775V12H19.1461L19.1408 13.1357C12.7661 15.2519 14.3291 21.2856 14.3291 21.2856L14.3394 21.3008L13.6797 21.6627C13.3381 20.4834 13.1355 18.5764 14.1414 16.2291C14.1414 16.2291 14.767 14.6048 12.7651 14.1145C12.7651 14.1145 13.6409 14.6355 12.9528 15.8307C12.9528 15.8307 10.1064 21.1631 14.767 25.7904C14.767 25.7904 13.183 25.1395 12.2378 22.8374C12.2378 22.8374 11.7016 21.7147 10.2002 21.9598C10.2002 21.9598 10.7668 22.2113 11.0996 23.2287C11.0996 23.2287 12.4523 27.4454 17.676 28.0889V30.418H20.2409V26.9857C20.2409 26.9857 17.5199 26.9645 15.4426 24.725L16.0873 24.3563C16.2073 24.4676 18.1824 26.2583 20.8769 26.3053V26.3063C20.8821 26.3062 20.8873 26.3058 20.8925 26.3057C20.8977 26.3058 20.9029 26.3062 20.9082 26.3063V26.3053C23.6027 26.2583 25.5777 24.4676 25.6978 24.3563L26.3424 24.725C24.2652 26.9645 21.5442 26.9857 21.5442 26.9857V30.418H24.1091V28.0889C29.3327 27.4454 30.6854 23.2287 30.6854 23.2287C31.0183 22.2113 31.5848 21.9598 31.5848 21.9598C30.0834 21.7147 29.5473 22.8374 29.5473 22.8374Z" fill="white"/>
</svg>
