<svg width="42" height="42" viewBox="0 0 42 42" fill="none" xmlns="http://www.w3.org/2000/svg">
<circle cx="21" cy="21" r="21" fill="#00A0FF"/>
<circle cx="21" cy="21" r="20.5" stroke="black" stroke-opacity="0.05"/>
<path fill-rule="evenodd" clip-rule="evenodd" d="M21.0069 31.9098C27.0243 31.9098 31.9102 27.0288 31.9102 21.0027C31.9102 14.9806 27.0243 10.0944 20.9994 10.0944C14.9772 10.0944 10.0952 14.9806 10.0952 21.0027C10.0952 27.0305 14.9772 31.9098 21.0069 31.9098Z" fill="#007BC6"/>
<mask id="mask0_9_323256" style="mask-type:luminance" maskUnits="userSpaceOnUse" x="10" y="10" width="22" height="22">
<path fill-rule="evenodd" clip-rule="evenodd" d="M10.0947 21.0028C10.0947 27.031 14.9771 31.9098 21.0068 31.9098C27.0242 31.9098 31.9097 27.0288 31.9097 21.0028C31.9097 14.9807 27.0242 10.0948 20.9998 10.0948C14.9771 10.0948 10.0947 14.9807 10.0947 21.0028Z" fill="white"/>
</mask>
<g mask="url(#mask0_9_323256)">
<path fill-rule="evenodd" clip-rule="evenodd" d="M21.0418 26.2839C25.8217 26.2839 29.9216 27.6089 31.6761 29.4877C32.2671 28.1407 32.5904 26.6602 32.5904 25.1069C32.5904 18.8999 27.4149 13.8551 21.0418 13.8551C14.6686 13.8551 9.49756 18.9021 9.49756 25.1069C9.49756 26.6676 9.82261 28.1412 10.4105 29.4877C12.1619 27.6089 16.2615 26.2839 21.0418 26.2839Z" fill="#007CC7"/>
</g>
<mask id="mask1_9_323256" style="mask-type:luminance" maskUnits="userSpaceOnUse" x="10" y="10" width="22" height="22">
<path fill-rule="evenodd" clip-rule="evenodd" d="M10.0947 21.0028C10.0947 27.031 14.9771 31.9098 21.0068 31.9098C27.0242 31.9098 31.9097 27.0288 31.9097 21.0028C31.9097 14.9807 27.0242 10.0948 20.9998 10.0948C14.9771 10.0948 10.0947 14.9807 10.0947 21.0028Z" fill="white"/>
</mask>
<g mask="url(#mask1_9_323256)">
<path fill-rule="evenodd" clip-rule="evenodd" d="M21.0399 26.2962C25.8075 26.2962 29.8969 27.6107 31.6471 29.4741C32.2363 28.1381 32.5591 26.6698 32.5591 25.1288C32.5591 18.9718 27.3968 13.9524 21.0399 13.9524C14.6834 13.9524 9.52588 18.974 9.52588 25.1288C9.52588 26.6764 9.84962 28.1386 10.4362 29.4741C12.1828 27.6107 16.2723 26.2962 21.0399 26.2962Z" fill="#007EC8"/>
</g>
<mask id="mask2_9_323256" style="mask-type:luminance" maskUnits="userSpaceOnUse" x="10" y="10" width="22" height="22">
<path fill-rule="evenodd" clip-rule="evenodd" d="M10.0947 21.0028C10.0947 27.031 14.9771 31.9098 21.0068 31.9098C27.0242 31.9098 31.9097 27.0288 31.9097 21.0028C31.9097 14.9807 27.0242 10.0948 20.9998 10.0948C14.9771 10.0948 10.0947 14.9807 10.0947 21.0028Z" fill="white"/>
</mask>
<g mask="url(#mask2_9_323256)">
<path fill-rule="evenodd" clip-rule="evenodd" d="M21.0388 26.3087C25.7937 26.3087 29.8727 27.6118 31.6184 29.4599C32.2059 28.1353 32.5288 26.6792 32.5288 25.1501C32.5288 19.0434 27.3796 14.049 21.0388 14.049C14.6985 14.049 9.5542 19.0456 9.5542 25.1501C9.5542 26.6854 9.87706 28.1357 10.4623 29.4599C12.2046 27.6118 16.2831 26.3087 21.0388 26.3087Z" fill="#007FC9"/>
</g>
<mask id="mask3_9_323256" style="mask-type:luminance" maskUnits="userSpaceOnUse" x="10" y="10" width="22" height="22">
<path fill-rule="evenodd" clip-rule="evenodd" d="M10.0947 21.0028C10.0947 27.031 14.9771 31.9098 21.0068 31.9098C27.0242 31.9098 31.9097 27.0288 31.9097 21.0028C31.9097 14.9807 27.0242 10.0948 20.9998 10.0948C14.9771 10.0948 10.0947 14.9807 10.0947 21.0028Z" fill="white"/>
</mask>
<g mask="url(#mask3_9_323256)">
<path fill-rule="evenodd" clip-rule="evenodd" d="M21.0378 26.3204C25.78 26.3204 29.8493 27.613 31.5902 29.4458C32.1764 28.1321 32.4975 26.6879 32.4975 25.1723C32.4975 19.1152 27.3623 14.1461 21.0378 14.1461C14.7137 14.1461 9.58252 19.1174 9.58252 25.1723C9.58252 26.6945 9.90494 28.1326 10.4885 29.4458C12.2263 27.613 16.2943 26.3204 21.0378 26.3204Z" fill="#0081CB"/>
</g>
<mask id="mask4_9_323256" style="mask-type:luminance" maskUnits="userSpaceOnUse" x="10" y="10" width="22" height="22">
<path fill-rule="evenodd" clip-rule="evenodd" d="M10.0947 21.0028C10.0947 27.031 14.9771 31.9098 21.0068 31.9098C27.0242 31.9098 31.9097 27.0288 31.9097 21.0028C31.9097 14.9807 27.0242 10.0948 20.9998 10.0948C14.9771 10.0948 10.0947 14.9807 10.0947 21.0028Z" fill="white"/>
</mask>
<g mask="url(#mask4_9_323256)">
<path fill-rule="evenodd" clip-rule="evenodd" d="M21.0359 26.3325C25.7658 26.3325 29.8246 27.6147 31.5611 29.4321C32.1455 28.1294 32.4662 26.697 32.4662 25.1937C32.4662 19.1873 27.3442 14.2428 21.0359 14.2428C14.7284 14.2428 9.61035 19.1895 9.61035 25.1937C9.61035 26.7031 9.9319 28.1302 10.5141 29.4321C12.2471 27.6147 16.3051 26.3325 21.0359 26.3325Z" fill="#0083CC"/>
</g>
<mask id="mask5_9_323256" style="mask-type:luminance" maskUnits="userSpaceOnUse" x="10" y="10" width="22" height="22">
<path fill-rule="evenodd" clip-rule="evenodd" d="M10.0947 21.0028C10.0947 27.031 14.9771 31.9098 21.0068 31.9098C27.0242 31.9098 31.9097 27.0288 31.9097 21.0028C31.9097 14.9807 27.0242 10.0948 20.9998 10.0948C14.9771 10.0948 10.0947 14.9807 10.0947 21.0028Z" fill="white"/>
</mask>
<g mask="url(#mask5_9_323256)">
<path fill-rule="evenodd" clip-rule="evenodd" d="M21.0348 26.3446C25.7521 26.3446 29.8008 27.6158 31.5329 29.4187C32.1156 28.1261 32.4354 26.7064 32.4354 25.2154C32.4354 19.259 27.3269 14.3398 21.0348 14.3398C14.744 14.3398 9.63867 19.2612 9.63867 25.2154C9.63867 26.7121 9.95978 28.127 10.5402 29.4187C12.2689 27.6158 16.3163 26.3446 21.0348 26.3446Z" fill="#0085CD"/>
</g>
<mask id="mask6_9_323256" style="mask-type:luminance" maskUnits="userSpaceOnUse" x="10" y="10" width="22" height="22">
<path fill-rule="evenodd" clip-rule="evenodd" d="M10.0947 21.0028C10.0947 27.031 14.9771 31.9098 21.0068 31.9098C27.0242 31.9098 31.9097 27.0288 31.9097 21.0028C31.9097 14.9807 27.0242 10.0948 20.9998 10.0948C14.9771 10.0948 10.0947 14.9807 10.0947 21.0028Z" fill="white"/>
</mask>
<g mask="url(#mask6_9_323256)">
<path fill-rule="evenodd" clip-rule="evenodd" d="M21.0334 26.3563C25.7379 26.3563 29.7765 27.6165 31.5034 29.4041C32.0848 28.1229 32.4045 26.7146 32.4045 25.2366C32.4045 19.3302 27.3088 14.436 21.0334 14.436C14.7588 14.436 9.66699 19.3324 9.66699 25.2366C9.66699 26.7207 9.98679 28.1237 10.5659 29.4041C12.2902 27.6165 16.3267 26.3563 21.0334 26.3563Z" fill="#0087CE"/>
</g>
<mask id="mask7_9_323256" style="mask-type:luminance" maskUnits="userSpaceOnUse" x="10" y="10" width="22" height="22">
<path fill-rule="evenodd" clip-rule="evenodd" d="M10.0947 21.0028C10.0947 27.031 14.9771 31.9098 21.0068 31.9098C27.0242 31.9098 31.9097 27.0288 31.9097 21.0028C31.9097 14.9807 27.0242 10.0948 20.9998 10.0948C14.9771 10.0948 10.0947 14.9807 10.0947 21.0028Z" fill="white"/>
</mask>
<g mask="url(#mask7_9_323256)">
<path fill-rule="evenodd" clip-rule="evenodd" d="M21.0319 26.3688C25.7241 26.3688 29.7523 27.6185 31.4752 29.3899C32.0548 28.12 32.3737 26.7245 32.3737 25.2588C32.3737 19.4023 27.2916 14.5331 21.0319 14.5331C14.7739 14.5331 9.69531 19.404 9.69531 25.2588C9.69531 26.7293 10.0147 28.1213 10.5921 29.3899C12.312 27.6185 16.3379 26.3688 21.0319 26.3688Z" fill="#0088CF"/>
</g>
<mask id="mask8_9_323256" style="mask-type:luminance" maskUnits="userSpaceOnUse" x="10" y="10" width="22" height="22">
<path fill-rule="evenodd" clip-rule="evenodd" d="M10.0947 21.0028C10.0947 27.031 14.9771 31.9098 21.0068 31.9098C27.0242 31.9098 31.9097 27.0288 31.9097 21.0028C31.9097 14.9807 27.0242 10.0948 20.9998 10.0948C14.9771 10.0948 10.0947 14.9807 10.0947 21.0028Z" fill="white"/>
</mask>
<g mask="url(#mask8_9_323256)">
<path fill-rule="evenodd" clip-rule="evenodd" d="M21.0304 26.3812C25.7099 26.3812 29.728 27.619 31.4461 29.3764C32.0239 28.1171 32.3424 26.7338 32.3424 25.2799C32.3424 19.4738 27.2734 14.63 21.0304 14.63C14.7886 14.63 9.72314 19.476 9.72314 25.2799C9.72314 26.7386 10.0416 28.1188 10.6177 29.3764C12.3328 27.619 16.3486 26.3812 21.0304 26.3812Z" fill="#008AD0"/>
</g>
<mask id="mask9_9_323256" style="mask-type:luminance" maskUnits="userSpaceOnUse" x="10" y="10" width="22" height="22">
<path fill-rule="evenodd" clip-rule="evenodd" d="M10.0947 21.0028C10.0947 27.031 14.9771 31.9098 21.0068 31.9098C27.0242 31.9098 31.9097 27.0288 31.9097 21.0028C31.9097 14.9807 27.0242 10.0948 20.9998 10.0948C14.9771 10.0948 10.0947 14.9807 10.0947 21.0028Z" fill="white"/>
</mask>
<g mask="url(#mask9_9_323256)">
<path fill-rule="evenodd" clip-rule="evenodd" d="M21.0294 26.3931C25.6962 26.3931 29.7042 27.6205 31.4175 29.3621C31.994 28.1141 32.3116 26.7422 32.3116 25.302C32.3116 19.5457 27.2567 14.7269 21.0294 14.7269C14.8039 14.7269 9.75195 19.5475 9.75195 25.302C9.75195 26.7475 10.0691 28.1159 10.6439 29.3621C12.3546 27.6205 16.3599 26.3931 21.0294 26.3931Z" fill="#008CD1"/>
</g>
<mask id="mask10_9_323256" style="mask-type:luminance" maskUnits="userSpaceOnUse" x="10" y="10" width="22" height="22">
<path fill-rule="evenodd" clip-rule="evenodd" d="M10.0947 21.0028C10.0947 27.031 14.9771 31.9098 21.0068 31.9098C27.0242 31.9098 31.9097 27.0288 31.9097 21.0028C31.9097 14.9807 27.0242 10.0948 20.9998 10.0948C14.9771 10.0948 10.0947 14.9807 10.0947 21.0028Z" fill="white"/>
</mask>
<g mask="url(#mask10_9_323256)">
<path fill-rule="evenodd" clip-rule="evenodd" d="M21.0269 26.4049C25.6815 26.4049 29.6794 27.6213 31.3879 29.3481C31.9631 28.1111 32.2798 26.7514 32.2798 25.323C32.2798 19.6171 27.238 14.8237 21.0269 14.8237C14.818 14.8237 9.77881 19.6189 9.77881 25.323C9.77881 26.7558 10.0955 28.1124 10.6685 29.3481C12.3749 27.6213 16.3697 26.4049 21.0269 26.4049Z" fill="#008ED2"/>
</g>
<mask id="mask11_9_323256" style="mask-type:luminance" maskUnits="userSpaceOnUse" x="10" y="10" width="22" height="22">
<path fill-rule="evenodd" clip-rule="evenodd" d="M10.0947 21.0028C10.0947 27.031 14.9771 31.9098 21.0068 31.9098C27.0242 31.9098 31.9097 27.0288 31.9097 21.0028C31.9097 14.9807 27.0242 10.0948 20.9998 10.0948C14.9771 10.0948 10.0947 14.9807 10.0947 21.0028Z" fill="white"/>
</mask>
<g mask="url(#mask11_9_323256)">
<path fill-rule="evenodd" clip-rule="evenodd" d="M21.0259 26.4172C25.6678 26.4172 29.6556 27.6236 31.3597 29.3345C31.9327 28.1076 32.249 26.7607 32.249 25.3454C32.249 19.6895 27.2208 14.921 21.0259 14.921C14.8337 14.921 9.80762 19.6912 9.80762 25.3454C9.80762 26.765 10.1235 28.1102 10.6952 29.3345C12.3967 27.6236 16.381 26.4172 21.0259 26.4172Z" fill="#0090D3"/>
</g>
<mask id="mask12_9_323256" style="mask-type:luminance" maskUnits="userSpaceOnUse" x="10" y="10" width="22" height="22">
<path fill-rule="evenodd" clip-rule="evenodd" d="M10.0947 21.0028C10.0947 27.031 14.9771 31.9098 21.0068 31.9098C27.0242 31.9098 31.9097 27.0288 31.9097 21.0028C31.9097 14.9807 27.0242 10.0948 20.9998 10.0948C14.9771 10.0948 10.0947 14.9807 10.0947 21.0028Z" fill="white"/>
</mask>
<g mask="url(#mask12_9_323256)">
<path fill-rule="evenodd" clip-rule="evenodd" d="M21.0244 26.4294C25.6536 26.4294 29.6313 27.6244 31.3306 29.3205C31.9023 28.1049 32.2182 26.7694 32.2182 25.3668C32.2182 19.7612 27.203 15.0173 21.0244 15.0173C14.8484 15.0173 9.83545 19.7626 9.83545 25.3668C9.83545 26.7737 10.1509 28.1071 10.7208 29.3205C12.4179 27.6244 16.3917 26.4294 21.0244 26.4294Z" fill="#0092D4"/>
</g>
<mask id="mask13_9_323256" style="mask-type:luminance" maskUnits="userSpaceOnUse" x="10" y="10" width="22" height="22">
<path fill-rule="evenodd" clip-rule="evenodd" d="M10.0947 21.0028C10.0947 27.031 14.9771 31.9098 21.0068 31.9098C27.0242 31.9098 31.9097 27.0288 31.9097 21.0028C31.9097 14.9807 27.0242 10.0948 20.9998 10.0948C14.9771 10.0948 10.0947 14.9807 10.0947 21.0028Z" fill="white"/>
</mask>
<g mask="url(#mask13_9_323256)">
<path fill-rule="evenodd" clip-rule="evenodd" d="M21.0234 26.4414C25.6403 26.4414 29.6076 27.6254 31.3025 29.3061C31.8729 28.1015 32.1874 26.7791 32.1874 25.3884C32.1874 19.8328 27.1859 15.1143 21.0234 15.1143C14.864 15.1143 9.86426 19.8341 9.86426 25.3884C9.86426 26.7822 10.1788 28.1042 10.7474 29.3061C12.4397 27.6254 16.4034 26.4414 21.0234 26.4414Z" fill="#0093D5"/>
</g>
<mask id="mask14_9_323256" style="mask-type:luminance" maskUnits="userSpaceOnUse" x="10" y="10" width="22" height="22">
<path fill-rule="evenodd" clip-rule="evenodd" d="M10.0947 21.0028C10.0947 27.031 14.9771 31.9098 21.0068 31.9098C27.0242 31.9098 31.9097 27.0288 31.9097 21.0028C31.9097 14.9807 27.0242 10.0948 20.9998 10.0948C14.9771 10.0948 10.0947 14.9807 10.0947 21.0028Z" fill="white"/>
</mask>
<g mask="url(#mask14_9_323256)">
<path fill-rule="evenodd" clip-rule="evenodd" d="M21.0219 26.4534C25.6261 26.4534 29.5833 27.6269 31.2734 29.2919C31.842 28.0987 32.1566 26.7876 32.1566 25.4096C32.1566 19.9044 27.1682 15.2108 21.0219 15.2108C14.8788 15.2108 9.89258 19.9057 9.89258 25.4096C9.89258 26.7911 10.2058 28.1017 10.7727 29.2919C12.461 27.6269 16.4138 26.4534 21.0219 26.4534Z" fill="#0095D6"/>
</g>
<mask id="mask15_9_323256" style="mask-type:luminance" maskUnits="userSpaceOnUse" x="10" y="10" width="22" height="22">
<path fill-rule="evenodd" clip-rule="evenodd" d="M10.0947 21.0028C10.0947 27.031 14.9771 31.9098 21.0068 31.9098C27.0242 31.9098 31.9097 27.0288 31.9097 21.0028C31.9097 14.9807 27.0242 10.0948 20.9998 10.0948C14.9771 10.0948 10.0947 14.9807 10.0947 21.0028Z" fill="white"/>
</mask>
<g mask="url(#mask15_9_323256)">
<path fill-rule="evenodd" clip-rule="evenodd" d="M21.0204 26.4655C25.6119 26.4655 29.559 27.628 31.2447 29.2785C31.8116 28.0958 32.1253 26.7971 32.1253 25.4317C32.1253 19.9764 27.1505 15.3079 21.0204 15.3079C14.8939 15.3079 9.92041 19.9773 9.92041 25.4317C9.92041 26.8006 10.2332 28.0989 10.7988 29.2785C12.4823 27.628 16.425 26.4655 21.0204 26.4655Z" fill="#0097D7"/>
</g>
<mask id="mask16_9_323256" style="mask-type:luminance" maskUnits="userSpaceOnUse" x="10" y="10" width="22" height="22">
<path fill-rule="evenodd" clip-rule="evenodd" d="M10.0947 21.0028C10.0947 27.031 14.9771 31.9098 21.0068 31.9098C27.0242 31.9098 31.9097 27.0288 31.9097 21.0028C31.9097 14.9807 27.0242 10.0948 20.9998 10.0948C14.9771 10.0948 10.0947 14.9807 10.0947 21.0028Z" fill="white"/>
</mask>
<g mask="url(#mask16_9_323256)">
<path fill-rule="evenodd" clip-rule="evenodd" d="M21.0194 26.4774C25.5986 26.4774 29.5348 27.6294 31.2161 29.2646C31.7817 28.0929 32.094 26.8059 32.094 25.4533C32.094 20.0479 27.1328 15.4048 21.0194 15.4048C14.9091 15.4048 9.94873 20.0493 9.94873 25.4533C9.94873 26.809 10.2606 28.0955 10.8249 29.2646C12.504 27.6294 16.4358 26.4774 21.0194 26.4774Z" fill="#0099D8"/>
</g>
<mask id="mask17_9_323256" style="mask-type:luminance" maskUnits="userSpaceOnUse" x="10" y="10" width="22" height="22">
<path fill-rule="evenodd" clip-rule="evenodd" d="M10.0947 21.0028C10.0947 27.031 14.9771 31.9098 21.0068 31.9098C27.0242 31.9098 31.9097 27.0288 31.9097 21.0028C31.9097 14.9807 27.0242 10.0948 20.9998 10.0948C14.9771 10.0948 10.0947 14.9807 10.0947 21.0028Z" fill="white"/>
</mask>
<g mask="url(#mask17_9_323256)">
<path fill-rule="evenodd" clip-rule="evenodd" d="M21.0175 26.49C25.584 26.49 29.5109 27.6307 31.1875 29.251C31.7508 28.0897 32.0632 26.8151 32.0632 25.4756C32.0632 20.1201 27.1151 15.502 21.0175 15.502C14.9238 15.502 9.97705 20.1215 9.97705 25.4756C9.97705 26.8181 10.2881 28.0933 10.8506 29.251C12.5249 27.6307 16.4466 26.49 21.0175 26.49Z" fill="#009BD9"/>
</g>
<mask id="mask18_9_323256" style="mask-type:luminance" maskUnits="userSpaceOnUse" x="10" y="10" width="22" height="22">
<path fill-rule="evenodd" clip-rule="evenodd" d="M10.0947 21.0028C10.0947 27.031 14.9771 31.9098 21.0068 31.9098C27.0242 31.9098 31.9097 27.0288 31.9097 21.0028C31.9097 14.9807 27.0242 10.0948 20.9998 10.0948C14.9771 10.0948 10.0947 14.9807 10.0947 21.0028Z" fill="white"/>
</mask>
<g mask="url(#mask18_9_323256)">
<path fill-rule="evenodd" clip-rule="evenodd" d="M21.016 26.5017C25.5702 26.5017 29.4862 27.6319 31.1583 29.2368C31.7204 28.0866 32.0319 26.8237 32.0319 25.4965C32.0319 20.1914 27.0974 15.5986 21.016 15.5986C14.9385 15.5986 10.0049 20.1927 10.0049 25.4965C10.0049 26.8268 10.315 28.0901 10.8762 29.2368C12.5462 27.6319 16.4573 26.5017 21.016 26.5017Z" fill="#009DDA"/>
</g>
<mask id="mask19_9_323256" style="mask-type:luminance" maskUnits="userSpaceOnUse" x="10" y="10" width="22" height="22">
<path fill-rule="evenodd" clip-rule="evenodd" d="M10.0947 21.0028C10.0947 27.031 14.9771 31.9098 21.0068 31.9098C27.0242 31.9098 31.9097 27.0288 31.9097 21.0028C31.9097 14.9807 27.0242 10.0948 20.9998 10.0948C14.9771 10.0948 10.0947 14.9807 10.0947 21.0028Z" fill="white"/>
</mask>
<g mask="url(#mask19_9_323256)">
<path fill-rule="evenodd" clip-rule="evenodd" d="M21.0149 26.5137C25.5561 26.5137 29.4624 27.6329 31.1297 29.2229C31.69 28.0836 32.0011 26.833 32.0011 25.518C32.0011 20.2634 27.0797 15.6956 21.0149 15.6956C14.9537 15.6956 10.0332 20.2643 10.0332 25.518C10.0332 26.8356 10.3429 28.0875 10.9023 29.2229C12.5679 27.6329 16.4686 26.5137 21.0149 26.5137Z" fill="#00A0DB"/>
</g>
<mask id="mask20_9_323256" style="mask-type:luminance" maskUnits="userSpaceOnUse" x="10" y="10" width="22" height="22">
<path fill-rule="evenodd" clip-rule="evenodd" d="M10.0947 21.0028C10.0947 27.031 14.9771 31.9098 21.0068 31.9098C27.0242 31.9098 31.9097 27.0288 31.9097 21.0028C31.9097 14.9807 27.0242 10.0948 20.9998 10.0948C14.9771 10.0948 10.0947 14.9807 10.0947 21.0028Z" fill="white"/>
</mask>
<g mask="url(#mask20_9_323256)">
<path fill-rule="evenodd" clip-rule="evenodd" d="M21.0135 26.5258C25.5428 26.5258 29.4386 27.6345 31.1011 29.2088C31.6601 28.0809 31.9702 26.8425 31.9702 25.5398C31.9702 20.3355 27.0625 15.7922 21.0135 15.7922C14.9689 15.7922 10.0615 20.3364 10.0615 25.5398C10.0615 26.8447 10.3704 28.0848 10.928 29.2088C12.5892 27.6345 16.4794 26.5258 21.0135 26.5258Z" fill="#00A2DC"/>
</g>
<mask id="mask21_9_323256" style="mask-type:luminance" maskUnits="userSpaceOnUse" x="10" y="10" width="22" height="22">
<path fill-rule="evenodd" clip-rule="evenodd" d="M10.0947 21.0028C10.0947 27.031 14.9771 31.9098 21.0068 31.9098C27.0242 31.9098 31.9097 27.0288 31.9097 21.0028C31.9097 14.9807 27.0242 10.0948 20.9998 10.0948C14.9771 10.0948 10.0947 14.9807 10.0947 21.0028Z" fill="white"/>
</mask>
<g mask="url(#mask21_9_323256)">
<path fill-rule="evenodd" clip-rule="evenodd" d="M21.0115 26.5384C25.528 26.5384 29.4138 27.6361 31.0719 29.1951C31.6292 28.0781 31.9384 26.8516 31.9384 25.562C31.9384 20.4072 27.0442 15.8889 21.0115 15.8889C14.9831 15.8889 10.0889 20.4081 10.0889 25.562C10.0889 26.8538 10.3973 28.082 10.9532 29.1951C12.61 27.6361 16.4896 26.5384 21.0115 26.5384Z" fill="#00A4DD"/>
</g>
<mask id="mask22_9_323256" style="mask-type:luminance" maskUnits="userSpaceOnUse" x="10" y="10" width="22" height="22">
<path fill-rule="evenodd" clip-rule="evenodd" d="M10.0947 21.0028C10.0947 27.031 14.9771 31.9098 21.0068 31.9098C27.0242 31.9098 31.9097 27.0288 31.9097 21.0028C31.9097 14.9807 27.0242 10.0948 20.9998 10.0948C14.9771 10.0948 10.0947 14.9807 10.0947 21.0028Z" fill="white"/>
</mask>
<g mask="url(#mask22_9_323256)">
<path fill-rule="evenodd" clip-rule="evenodd" d="M21.0105 26.5502C25.5139 26.5502 29.39 27.6369 31.0429 29.181C31.5988 28.0745 31.9077 26.8603 31.9077 25.583C31.9077 20.479 27.0266 15.9861 21.0105 15.9861C14.9987 15.9861 10.1177 20.4794 10.1177 25.583C10.1177 26.862 10.4248 28.0789 10.9794 29.181C12.6314 27.6369 16.5009 26.5502 21.0105 26.5502Z" fill="#00A6DE"/>
</g>
<mask id="mask23_9_323256" style="mask-type:luminance" maskUnits="userSpaceOnUse" x="10" y="10" width="22" height="22">
<path fill-rule="evenodd" clip-rule="evenodd" d="M10.0947 21.0028C10.0947 27.031 14.9771 31.9098 21.0068 31.9098C27.0242 31.9098 31.9097 27.0288 31.9097 21.0028C31.9097 14.9807 27.0242 10.0948 20.9998 10.0948C14.9771 10.0948 10.0947 14.9807 10.0947 21.0028Z" fill="white"/>
</mask>
<g mask="url(#mask23_9_323256)">
<path fill-rule="evenodd" clip-rule="evenodd" d="M21.0085 26.5622C25.5001 26.5622 29.3657 27.638 31.0142 29.1667C31.5684 28.0716 31.8768 26.8697 31.8768 25.6046C31.8768 20.5506 27.0089 16.0826 21.0085 16.0826C15.0134 16.0826 10.1455 20.551 10.1455 25.6046C10.1455 26.8714 10.4517 28.076 11.005 29.1667C12.6526 27.638 16.5117 26.5622 21.0085 26.5622Z" fill="#00A8DF"/>
</g>
<mask id="mask24_9_323256" style="mask-type:luminance" maskUnits="userSpaceOnUse" x="10" y="10" width="22" height="22">
<path fill-rule="evenodd" clip-rule="evenodd" d="M10.0947 21.0028C10.0947 27.031 14.9771 31.9098 21.0068 31.9098C27.0242 31.9098 31.9097 27.0288 31.9097 21.0028C31.9097 14.9807 27.0242 10.0948 20.9998 10.0948C14.9771 10.0948 10.0947 14.9807 10.0947 21.0028Z" fill="white"/>
</mask>
<g mask="url(#mask24_9_323256)">
<path fill-rule="evenodd" clip-rule="evenodd" d="M21.008 26.5742C25.4869 26.5742 29.342 27.6395 30.9861 29.1534C31.539 28.0688 31.8461 26.8787 31.8461 25.6268C31.8461 20.6222 26.9922 16.1797 21.008 16.1797C15.0296 16.1797 10.1748 20.6231 10.1748 25.6268C10.1748 26.88 10.4801 28.0736 11.0317 29.1534C12.6749 27.6395 16.5234 26.5742 21.008 26.5742Z" fill="#00AAE0"/>
</g>
<mask id="mask25_9_323256" style="mask-type:luminance" maskUnits="userSpaceOnUse" x="10" y="10" width="22" height="22">
<path fill-rule="evenodd" clip-rule="evenodd" d="M10.0947 21.0028C10.0947 27.031 14.9771 31.9098 21.0068 31.9098C27.0242 31.9098 31.9097 27.0288 31.9097 21.0028C31.9097 14.9807 27.0242 10.0948 20.9998 10.0948C14.9771 10.0948 10.0947 14.9807 10.0947 21.0028Z" fill="white"/>
</mask>
<g mask="url(#mask25_9_323256)">
<path fill-rule="evenodd" clip-rule="evenodd" d="M21.0065 26.5864C25.4722 26.5864 29.3177 27.6403 30.957 29.1388C31.5085 28.0656 31.8147 26.8873 31.8147 25.6477C31.8147 20.6939 26.974 16.2764 21.0065 16.2764C15.0442 16.2764 10.2021 20.6944 10.2021 25.6477C10.2021 26.8886 10.5075 28.0704 11.0573 29.1388C12.6957 27.6403 16.5341 26.5864 21.0065 26.5864Z" fill="#00ACE1"/>
</g>
<mask id="mask26_9_323256" style="mask-type:luminance" maskUnits="userSpaceOnUse" x="10" y="10" width="22" height="22">
<path fill-rule="evenodd" clip-rule="evenodd" d="M10.0947 21.0028C10.0947 27.031 14.9771 31.9098 21.0068 31.9098C27.0242 31.9098 31.9097 27.0288 31.9097 21.0028C31.9097 14.9807 27.0242 10.0948 20.9998 10.0948C14.9771 10.0948 10.0947 14.9807 10.0947 21.0028Z" fill="white"/>
</mask>
<g mask="url(#mask26_9_323256)">
<path fill-rule="evenodd" clip-rule="evenodd" d="M21.0046 26.5984C25.4585 26.5984 29.293 27.6418 30.9283 29.125C31.4777 28.0628 31.7839 26.8967 31.7839 25.6698C31.7839 20.766 26.9563 16.3734 21.0046 16.3734C15.0585 16.3734 10.2305 20.766 10.2305 25.6698C10.2305 26.8976 10.5345 28.0676 11.083 29.125C12.717 27.6418 16.5445 26.5984 21.0046 26.5984Z" fill="#03AEE2"/>
</g>
<mask id="mask27_9_323256" style="mask-type:luminance" maskUnits="userSpaceOnUse" x="10" y="10" width="22" height="22">
<path fill-rule="evenodd" clip-rule="evenodd" d="M10.0947 21.0028C10.0947 27.031 14.9771 31.9098 21.0068 31.9098C27.0242 31.9098 31.9097 27.0288 31.9097 21.0028C31.9097 14.9807 27.0242 10.0948 20.9998 10.0948C14.9771 10.0948 10.0947 14.9807 10.0947 21.0028Z" fill="white"/>
</mask>
<g mask="url(#mask27_9_323256)">
<path fill-rule="evenodd" clip-rule="evenodd" d="M21.003 26.6105C25.4443 26.6105 29.2687 27.643 30.8992 29.1113C31.4473 28.06 31.7526 26.9062 31.7526 25.6911C31.7526 20.8377 26.9386 16.4705 21.003 16.4705C15.0732 16.4705 10.2583 20.8377 10.2583 25.6911C10.2583 26.9066 10.5619 28.0648 11.1086 29.1113C12.7378 27.643 16.5552 26.6105 21.003 26.6105Z" fill="#16B1E3"/>
</g>
<mask id="mask28_9_323256" style="mask-type:luminance" maskUnits="userSpaceOnUse" x="10" y="10" width="22" height="22">
<path fill-rule="evenodd" clip-rule="evenodd" d="M10.0947 21.0028C10.0947 27.031 14.9771 31.9098 21.0068 31.9098C27.0242 31.9098 31.9097 27.0288 31.9097 21.0028C31.9097 14.9807 27.0242 10.0948 20.9998 10.0948C14.9771 10.0948 10.0947 14.9807 10.0947 21.0028Z" fill="white"/>
</mask>
<g mask="url(#mask28_9_323256)">
<path fill-rule="evenodd" clip-rule="evenodd" d="M21.0021 26.6225C25.4306 26.6225 29.2449 27.6445 30.8706 29.097C31.4169 28.0567 31.7218 26.9151 31.7218 25.7132C31.7218 20.9097 26.9209 16.567 21.0021 16.567C15.0889 16.567 10.2871 20.9097 10.2871 25.7132C10.2871 26.9156 10.5894 28.0619 11.1348 29.097C12.7601 27.6445 16.5665 26.6225 21.0021 26.6225Z" fill="#21B3E4"/>
</g>
<mask id="mask29_9_323256" style="mask-type:luminance" maskUnits="userSpaceOnUse" x="10" y="10" width="22" height="22">
<path fill-rule="evenodd" clip-rule="evenodd" d="M10.0947 21.0028C10.0947 27.031 14.9771 31.9098 21.0068 31.9098C27.0242 31.9098 31.9097 27.0288 31.9097 21.0028C31.9097 14.9807 27.0242 10.0948 20.9998 10.0948C14.9771 10.0948 10.0947 14.9807 10.0947 21.0028Z" fill="white"/>
</mask>
<g mask="url(#mask29_9_323256)">
<path fill-rule="evenodd" clip-rule="evenodd" d="M21.0005 26.6348C25.4168 26.6348 29.2211 27.6458 30.842 29.083C31.3869 28.0536 31.691 26.9239 31.691 25.7342C31.691 20.9811 26.9036 16.6638 21.0005 16.6638C15.104 16.6638 10.3149 20.9811 10.3149 25.7342C10.3149 26.9243 10.6168 28.0593 11.1609 29.083C12.7813 27.6458 16.5777 26.6348 21.0005 26.6348Z" fill="#29B5E5"/>
</g>
<mask id="mask30_9_323256" style="mask-type:luminance" maskUnits="userSpaceOnUse" x="10" y="10" width="22" height="22">
<path fill-rule="evenodd" clip-rule="evenodd" d="M10.0947 21.0028C10.0947 27.031 14.9771 31.9098 21.0068 31.9098C27.0242 31.9098 31.9097 27.0288 31.9097 21.0028C31.9097 14.9807 27.0242 10.0948 20.9998 10.0948C14.9771 10.0948 10.0947 14.9807 10.0947 21.0028Z" fill="white"/>
</mask>
<g mask="url(#mask30_9_323256)">
<path fill-rule="evenodd" clip-rule="evenodd" d="M20.9996 26.6471C25.4031 26.6471 29.1973 27.6471 30.8138 29.0694C31.357 28.051 31.6602 26.9331 31.6602 25.7566C31.6602 21.053 26.8864 16.7611 20.9996 16.7611C15.1192 16.7611 10.3438 21.053 10.3438 25.7566C10.3438 26.9331 10.6447 28.0567 11.187 29.0694C12.8031 27.6471 16.5886 26.6471 20.9996 26.6471Z" fill="#30B7E6"/>
</g>
<mask id="mask31_9_323256" style="mask-type:luminance" maskUnits="userSpaceOnUse" x="10" y="10" width="22" height="22">
<path fill-rule="evenodd" clip-rule="evenodd" d="M10.0947 21.0028C10.0947 27.031 14.9771 31.9098 21.0068 31.9098C27.0242 31.9098 31.9097 27.0288 31.9097 21.0028C31.9097 14.9807 27.0242 10.0948 20.9998 10.0948C14.9771 10.0948 10.0947 14.9807 10.0947 21.0028Z" fill="white"/>
</mask>
<g mask="url(#mask31_9_323256)">
<path fill-rule="evenodd" clip-rule="evenodd" d="M20.9992 26.6748C25.3971 26.6748 29.1856 27.6687 30.7999 29.0814C31.3422 28.07 31.6449 26.9591 31.6449 25.79C31.6449 21.1171 26.8773 16.8497 20.9992 16.8497C15.1268 16.8497 10.3574 21.1175 10.3574 25.79C10.3574 26.9591 10.6579 28.0748 11.1994 29.0814C12.8133 27.6687 16.5943 26.6748 20.9992 26.6748Z" fill="#3FBAE7"/>
</g>
<mask id="mask32_9_323256" style="mask-type:luminance" maskUnits="userSpaceOnUse" x="10" y="10" width="22" height="22">
<path fill-rule="evenodd" clip-rule="evenodd" d="M10.0947 21.0028C10.0947 27.031 14.9771 31.9098 21.0068 31.9098C27.0242 31.9098 31.9097 27.0288 31.9097 21.0028C31.9097 14.9807 27.0242 10.0948 20.9998 10.0948C14.9771 10.0948 10.0947 14.9807 10.0947 21.0028Z" fill="white"/>
</mask>
<g mask="url(#mask32_9_323256)">
<path fill-rule="evenodd" clip-rule="evenodd" d="M20.9985 26.702C25.3906 26.702 29.1739 27.6893 30.786 29.0932C31.3275 28.088 31.6302 26.985 31.6302 25.8233C31.6302 21.181 26.8687 16.9382 20.9985 16.9382C15.1335 16.9382 10.3716 21.1815 10.3716 25.8233C10.3716 26.985 10.6712 28.0932 11.2123 29.0932C12.8239 27.6893 16.5997 26.702 20.9985 26.702Z" fill="#4CBCE8"/>
</g>
<mask id="mask33_9_323256" style="mask-type:luminance" maskUnits="userSpaceOnUse" x="10" y="10" width="22" height="22">
<path fill-rule="evenodd" clip-rule="evenodd" d="M10.0947 21.0028C10.0947 27.031 14.9771 31.9098 21.0068 31.9098C27.0242 31.9098 31.9097 27.0288 31.9097 21.0028C31.9097 14.9807 27.0242 10.0948 20.9998 10.0948C14.9771 10.0948 10.0947 14.9807 10.0947 21.0028Z" fill="white"/>
</mask>
<g mask="url(#mask33_9_323256)">
<path fill-rule="evenodd" clip-rule="evenodd" d="M20.9996 26.7299C25.3861 26.7299 29.1636 27.7102 30.7735 29.1049C31.3137 28.1066 31.6164 27.0111 31.6164 25.8569C31.6164 21.2452 26.8615 17.027 20.9996 17.027C15.1421 17.027 10.3867 21.2457 10.3867 25.8569C10.3867 27.0115 10.6859 28.1114 11.2261 29.1049C12.8356 27.7102 16.6065 26.7299 20.9996 26.7299Z" fill="#56BEE9"/>
</g>
<mask id="mask34_9_323256" style="mask-type:luminance" maskUnits="userSpaceOnUse" x="10" y="10" width="22" height="22">
<path fill-rule="evenodd" clip-rule="evenodd" d="M10.0947 21.0028C10.0947 27.031 14.9771 31.9098 21.0068 31.9098C27.0242 31.9098 31.9097 27.0288 31.9097 21.0028C31.9097 14.9807 27.0242 10.0948 20.9998 10.0948C14.9771 10.0948 10.0947 14.9807 10.0947 21.0028Z" fill="white"/>
</mask>
<g mask="url(#mask34_9_323256)">
<path fill-rule="evenodd" clip-rule="evenodd" d="M20.9993 26.7575C25.3801 26.7575 29.1524 27.7317 30.7602 29.1168C31.2994 28.1251 31.6013 27.037 31.6013 25.8907C31.6013 21.3093 26.8529 17.116 20.9993 17.116C15.1497 17.116 10.4014 21.3101 10.4014 25.8907C10.4014 27.0374 10.6997 28.1299 11.239 29.1168C12.8467 27.7317 16.6129 26.7575 20.9993 26.7575Z" fill="#60C1E9"/>
</g>
<mask id="mask35_9_323256" style="mask-type:luminance" maskUnits="userSpaceOnUse" x="10" y="10" width="22" height="22">
<path fill-rule="evenodd" clip-rule="evenodd" d="M10.0947 21.0028C10.0947 27.031 14.9771 31.9098 21.0068 31.9098C27.0242 31.9098 31.9097 27.0288 31.9097 21.0028C31.9097 14.9807 27.0242 10.0948 20.9998 10.0948C14.9771 10.0948 10.0947 14.9807 10.0947 21.0028Z" fill="white"/>
</mask>
<g mask="url(#mask35_9_323256)">
<path fill-rule="evenodd" clip-rule="evenodd" d="M20.9995 26.7853C25.3741 26.7853 29.1412 27.7529 30.7467 29.1292C31.2851 28.1436 31.587 27.063 31.587 25.9241C31.587 21.3738 26.8448 17.2046 20.9995 17.2046C15.1577 17.2046 10.4155 21.3742 10.4155 25.9241C10.4155 27.0634 10.7134 28.148 11.2523 29.1292C12.8574 27.7529 16.6187 26.7853 20.9995 26.7853Z" fill="#68C3EA"/>
</g>
<mask id="mask36_9_323256" style="mask-type:luminance" maskUnits="userSpaceOnUse" x="10" y="10" width="22" height="22">
<path fill-rule="evenodd" clip-rule="evenodd" d="M10.0947 21.0028C10.0947 27.031 14.9771 31.9098 21.0068 31.9098C27.0242 31.9098 31.9097 27.0288 31.9097 21.0028C31.9097 14.9807 27.0242 10.0948 20.9998 10.0948C14.9771 10.0948 10.0947 14.9807 10.0947 21.0028Z" fill="white"/>
</mask>
<g mask="url(#mask36_9_323256)">
<path fill-rule="evenodd" clip-rule="evenodd" d="M20.9997 26.8133C25.3691 26.8133 29.1305 27.7739 30.7334 29.1405C31.2709 28.1624 31.5727 27.0888 31.5727 25.9578C31.5727 21.4381 26.8367 17.2935 20.9997 17.2935C15.1654 17.2935 10.4307 21.4386 10.4307 25.9578C10.4307 27.0892 10.7277 28.1668 11.2656 29.1405C12.8681 27.7739 16.6255 26.8133 20.9997 26.8133Z" fill="#70C5EB"/>
</g>
<mask id="mask37_9_323256" style="mask-type:luminance" maskUnits="userSpaceOnUse" x="10" y="10" width="22" height="22">
<path fill-rule="evenodd" clip-rule="evenodd" d="M10.0947 21.0028C10.0947 27.031 14.9771 31.9098 21.0068 31.9098C27.0242 31.9098 31.9097 27.0288 31.9097 21.0028C31.9097 14.9807 27.0242 10.0948 20.9998 10.0948C14.9771 10.0948 10.0947 14.9807 10.0947 21.0028Z" fill="white"/>
</mask>
<g mask="url(#mask37_9_323256)">
<path fill-rule="evenodd" clip-rule="evenodd" d="M20.9999 26.8407C25.3631 26.8407 29.1192 27.7952 30.7199 29.1522C31.257 28.1811 31.558 27.1149 31.558 25.9918C31.558 21.5019 26.8285 17.3822 20.9999 17.3822C15.1734 17.3822 10.4448 21.5028 10.4448 25.9918C10.4448 27.1153 10.7414 28.185 11.2789 29.1522C12.8797 27.7952 16.6314 26.8407 20.9999 26.8407Z" fill="#79C8EC"/>
</g>
<mask id="mask38_9_323256" style="mask-type:luminance" maskUnits="userSpaceOnUse" x="10" y="10" width="22" height="22">
<path fill-rule="evenodd" clip-rule="evenodd" d="M10.0947 21.0028C10.0947 27.031 14.9771 31.9098 21.0068 31.9098C27.0242 31.9098 31.9097 27.0288 31.9097 21.0028C31.9097 14.9807 27.0242 10.0948 20.9998 10.0948C14.9771 10.0948 10.0947 14.9807 10.0947 21.0028Z" fill="white"/>
</mask>
<g mask="url(#mask38_9_323256)">
<path fill-rule="evenodd" clip-rule="evenodd" d="M20.9996 26.8686C25.3576 26.8686 29.108 27.8165 30.7065 29.1648C31.2423 28.1993 31.5432 27.1406 31.5432 26.0254C31.5432 21.5666 26.8199 17.4714 20.9996 17.4714C15.181 17.4714 10.459 21.5675 10.459 26.0254C10.459 27.1415 10.7551 28.2037 11.2918 29.1648C12.8903 27.8165 16.6376 26.8686 20.9996 26.8686Z" fill="#80CAED"/>
</g>
<mask id="mask39_9_323256" style="mask-type:luminance" maskUnits="userSpaceOnUse" x="10" y="10" width="22" height="22">
<path fill-rule="evenodd" clip-rule="evenodd" d="M10.0947 21.0028C10.0947 27.031 14.9771 31.9098 21.0068 31.9098C27.0242 31.9098 31.9097 27.0288 31.9097 21.0028C31.9097 14.9807 27.0242 10.0948 20.9998 10.0948C14.9771 10.0948 10.0947 14.9807 10.0947 21.0028Z" fill="white"/>
</mask>
<g mask="url(#mask39_9_323256)">
<path fill-rule="evenodd" clip-rule="evenodd" d="M20.9998 26.8962C25.3516 26.8962 29.0963 27.8375 30.6931 29.1766C31.228 28.2182 31.5285 27.1665 31.5285 26.0587C31.5285 21.6306 26.8117 17.5599 20.9998 17.5599C15.1882 17.5599 10.4736 21.6319 10.4736 26.0587C10.4736 27.1673 10.7689 28.2217 11.3047 29.1766C12.9015 27.8375 16.6435 26.8962 20.9998 26.8962Z" fill="#87CDEE"/>
</g>
<mask id="mask40_9_323256" style="mask-type:luminance" maskUnits="userSpaceOnUse" x="10" y="10" width="22" height="22">
<path fill-rule="evenodd" clip-rule="evenodd" d="M10.0947 21.0028C10.0947 27.031 14.9771 31.9098 21.0068 31.9098C27.0242 31.9098 31.9097 27.0288 31.9097 21.0028C31.9097 14.9807 27.0242 10.0948 20.9998 10.0948C14.9771 10.0948 10.0947 14.9807 10.0947 21.0028Z" fill="white"/>
</mask>
<g mask="url(#mask40_9_323256)">
<path fill-rule="evenodd" clip-rule="evenodd" d="M21 26.9241C25.3461 26.9241 29.0856 27.8588 30.6802 29.1883C31.2137 28.2364 31.5138 27.1926 31.5138 26.0927C31.5138 21.6948 26.8036 17.6487 21 17.6487C15.1963 17.6487 10.4883 21.6961 10.4883 26.0927C10.4883 27.193 10.7827 28.2404 11.3176 29.1883C12.9122 27.8588 16.6498 26.9241 21 26.9241Z" fill="#8ECFEF"/>
</g>
<mask id="mask41_9_323256" style="mask-type:luminance" maskUnits="userSpaceOnUse" x="10" y="10" width="22" height="22">
<path fill-rule="evenodd" clip-rule="evenodd" d="M10.0947 21.0028C10.0947 27.031 14.9771 31.9098 21.0068 31.9098C27.0242 31.9098 31.9097 27.0288 31.9097 21.0028C31.9097 14.9807 27.0242 10.0948 20.9998 10.0948C14.9771 10.0948 10.0947 14.9807 10.0947 21.0028Z" fill="white"/>
</mask>
<g mask="url(#mask41_9_323256)">
<path fill-rule="evenodd" clip-rule="evenodd" d="M20.9997 26.9514C25.3406 26.9514 29.0743 27.8796 30.6663 29.2002C31.1994 28.2549 31.4995 27.2181 31.4995 26.1257C31.4995 21.7589 26.795 17.7373 20.9997 17.7373C15.2039 17.7373 10.5024 21.7602 10.5024 26.1257C10.5024 27.2194 10.7964 28.2585 11.3308 29.2002C12.9228 27.8796 16.6557 26.9514 20.9997 26.9514Z" fill="#95D2F0"/>
</g>
<mask id="mask42_9_323256" style="mask-type:luminance" maskUnits="userSpaceOnUse" x="10" y="10" width="22" height="22">
<path fill-rule="evenodd" clip-rule="evenodd" d="M10.0947 21.0028C10.0947 27.031 14.9771 31.9098 21.0068 31.9098C27.0242 31.9098 31.9097 27.0288 31.9097 21.0028C31.9097 14.9807 27.0242 10.0948 20.9998 10.0948C14.9771 10.0948 10.0947 14.9807 10.0947 21.0028Z" fill="white"/>
</mask>
<g mask="url(#mask42_9_323256)">
<path fill-rule="evenodd" clip-rule="evenodd" d="M20.9998 26.9792C25.335 26.9792 29.0631 27.9008 30.6529 29.2123C31.1851 28.2736 31.4852 27.2442 31.4852 26.1597C31.4852 21.8231 26.7868 17.826 20.9998 17.826C15.2115 17.826 10.5166 21.8249 10.5166 26.1597C10.5166 27.2451 10.8101 28.2771 11.3437 29.2123C12.9339 27.9008 16.662 26.9792 20.9998 26.9792Z" fill="#9CD4F0"/>
</g>
<mask id="mask43_9_323256" style="mask-type:luminance" maskUnits="userSpaceOnUse" x="10" y="10" width="22" height="22">
<path fill-rule="evenodd" clip-rule="evenodd" d="M10.0947 21.0028C10.0947 27.031 14.9771 31.9098 21.0068 31.9098C27.0242 31.9098 31.9097 27.0288 31.9097 21.0028C31.9097 14.9807 27.0242 10.0948 20.9998 10.0948C14.9771 10.0948 10.0947 14.9807 10.0947 21.0028Z" fill="white"/>
</mask>
<g mask="url(#mask43_9_323256)">
<path fill-rule="evenodd" clip-rule="evenodd" d="M21.0005 27.0073C25.3296 27.0073 29.0528 27.9219 30.6404 29.2242C31.1714 28.2925 31.471 27.2706 31.471 26.1934C31.471 21.8876 26.7792 17.915 21.0005 17.915C15.2197 17.915 10.5322 21.8893 10.5322 26.1934C10.5322 27.2719 10.8249 28.2951 11.3576 29.2242C12.9456 27.9219 16.6688 27.0073 21.0005 27.0073Z" fill="#A2D7F1"/>
</g>
<mask id="mask44_9_323256" style="mask-type:luminance" maskUnits="userSpaceOnUse" x="10" y="10" width="22" height="22">
<path fill-rule="evenodd" clip-rule="evenodd" d="M10.0947 21.0028C10.0947 27.031 14.9771 31.9098 21.0068 31.9098C27.0242 31.9098 31.9097 27.0288 31.9097 21.0028C31.9097 14.9807 27.0242 10.0948 20.9998 10.0948C14.9771 10.0948 10.0947 14.9807 10.0947 21.0028Z" fill="white"/>
</mask>
<g mask="url(#mask44_9_323256)">
<path fill-rule="evenodd" clip-rule="evenodd" d="M20.9998 27.0349C25.3231 27.0349 29.0407 27.9433 30.6265 29.236C31.1566 28.3109 31.4558 27.2964 31.4558 26.2267C31.4558 21.9515 26.7705 18.0039 20.9998 18.0039C15.2268 18.0039 10.5459 21.9537 10.5459 26.2267C10.5459 27.2977 10.8381 28.3139 11.3704 29.236C12.9562 27.9433 16.6742 27.0349 20.9998 27.0349Z" fill="#A8D9F2"/>
</g>
<mask id="mask45_9_323256" style="mask-type:luminance" maskUnits="userSpaceOnUse" x="10" y="10" width="22" height="22">
<path fill-rule="evenodd" clip-rule="evenodd" d="M10.0947 21.0028C10.0947 27.031 14.9771 31.9098 21.0068 31.9098C27.0242 31.9098 31.9097 27.0288 31.9097 21.0028C31.9097 14.9807 27.0242 10.0948 20.9998 10.0948C14.9771 10.0948 10.0947 14.9807 10.0947 21.0028Z" fill="white"/>
</mask>
<g mask="url(#mask45_9_323256)">
<path fill-rule="evenodd" clip-rule="evenodd" d="M21.0004 27.0622C25.3181 27.0622 29.0303 27.9645 30.6131 29.248C31.1428 28.3294 31.4415 27.3224 31.4415 26.2606C31.4415 22.0156 26.7629 18.0925 21.0004 18.0925C15.2348 18.0925 10.5605 22.0178 10.5605 26.2606C10.5605 27.3237 10.8519 28.3316 11.3837 29.248C12.9673 27.9645 16.6809 27.0622 21.0004 27.0622Z" fill="#AEDBF3"/>
</g>
<mask id="mask46_9_323256" style="mask-type:luminance" maskUnits="userSpaceOnUse" x="10" y="10" width="22" height="22">
<path fill-rule="evenodd" clip-rule="evenodd" d="M10.0947 21.0028C10.0947 27.031 14.9771 31.9098 21.0068 31.9098C27.0242 31.9098 31.9097 27.0288 31.9097 21.0028C31.9097 14.9807 27.0242 10.0948 20.9998 10.0948C14.9771 10.0948 10.0947 14.9807 10.0947 21.0028Z" fill="white"/>
</mask>
<g mask="url(#mask46_9_323256)">
<path fill-rule="evenodd" clip-rule="evenodd" d="M21.0006 27.0906C25.3126 27.0906 29.0191 27.9859 30.5997 29.2602C31.1285 28.3482 31.4268 27.3486 31.4268 26.2942C31.4268 22.0799 26.7543 18.1814 21.0006 18.1814C15.2425 18.1814 10.5752 22.0821 10.5752 26.2942C10.5752 27.3499 10.8661 28.3508 11.397 29.2602C12.9785 27.9859 16.6868 27.0906 21.0006 27.0906Z" fill="#B4DEF4"/>
</g>
<mask id="mask47_9_323256" style="mask-type:luminance" maskUnits="userSpaceOnUse" x="10" y="10" width="22" height="22">
<path fill-rule="evenodd" clip-rule="evenodd" d="M10.0947 21.0028C10.0947 27.031 14.9771 31.9098 21.0068 31.9098C27.0242 31.9098 31.9097 27.0288 31.9097 21.0028C31.9097 14.9807 27.0242 10.0948 20.9998 10.0948C14.9771 10.0948 10.0947 14.9807 10.0947 21.0028Z" fill="white"/>
</mask>
<g mask="url(#mask47_9_323256)">
<path fill-rule="evenodd" clip-rule="evenodd" d="M21.0008 27.118C25.3071 27.118 29.008 28.0068 30.5868 29.2719C31.1147 28.3669 31.4126 27.3747 31.4126 26.3278C31.4126 22.1442 26.7462 18.2706 21.0008 18.2706C15.2506 18.2706 10.5898 22.1464 10.5898 26.3278C10.5898 27.376 10.8799 28.3691 11.4099 29.2719C12.9896 28.0068 16.6931 27.118 21.0008 27.118Z" fill="#B9E0F5"/>
</g>
<mask id="mask48_9_323256" style="mask-type:luminance" maskUnits="userSpaceOnUse" x="10" y="10" width="22" height="22">
<path fill-rule="evenodd" clip-rule="evenodd" d="M10.0947 21.0028C10.0947 27.031 14.9771 31.9098 21.0068 31.9098C27.0242 31.9098 31.9097 27.0288 31.9097 21.0028C31.9097 14.9807 27.0242 10.0948 20.9998 10.0948C14.9771 10.0948 10.0947 14.9807 10.0947 21.0028Z" fill="white"/>
</mask>
<g mask="url(#mask48_9_323256)">
<path fill-rule="evenodd" clip-rule="evenodd" d="M21 27.1455C25.3006 27.1455 28.9962 28.0282 30.5729 29.2836C31.0994 28.3847 31.3969 27.4 31.3969 26.3615C31.3969 22.2085 26.7375 18.359 21 18.359C15.2577 18.359 10.6035 22.2106 10.6035 26.3615C10.6035 27.4018 10.8931 28.3874 11.4223 29.2836C12.9994 28.0282 16.6985 27.1455 21 27.1455Z" fill="#BFE2F5"/>
</g>
<mask id="mask49_9_323256" style="mask-type:luminance" maskUnits="userSpaceOnUse" x="10" y="10" width="22" height="22">
<path fill-rule="evenodd" clip-rule="evenodd" d="M10.0947 21.0028C10.0947 27.031 14.9771 31.9098 21.0068 31.9098C27.0242 31.9098 31.9097 27.0288 31.9097 21.0028C31.9097 14.9807 27.0242 10.0948 20.9998 10.0948C14.9771 10.0948 10.0947 14.9807 10.0947 21.0028Z" fill="white"/>
</mask>
<g mask="url(#mask49_9_323256)">
<path fill-rule="evenodd" clip-rule="evenodd" d="M21.0001 27.1734C25.295 27.1734 28.985 28.049 30.5594 29.2957C31.0851 28.4038 31.3826 27.4261 31.3826 26.395C31.3826 22.2722 26.7293 18.4478 21.0001 18.4478C15.2652 18.4478 10.6177 22.2749 10.6177 26.395C10.6177 27.4275 10.9068 28.4056 11.4356 29.2957C13.0105 28.049 16.7048 27.1734 21.0001 27.1734Z" fill="#C4E4F6"/>
</g>
<mask id="mask50_9_323256" style="mask-type:luminance" maskUnits="userSpaceOnUse" x="10" y="10" width="22" height="22">
<path fill-rule="evenodd" clip-rule="evenodd" d="M10.0947 21.0028C10.0947 27.031 14.9771 31.9098 21.0068 31.9098C27.0242 31.9098 31.9097 27.0288 31.9097 21.0028C31.9097 14.9807 27.0242 10.0948 20.9998 10.0948C14.9771 10.0948 10.0947 14.9807 10.0947 21.0028Z" fill="white"/>
</mask>
<g mask="url(#mask50_9_323256)">
<path fill-rule="evenodd" clip-rule="evenodd" d="M21.0008 27.2008C25.29 27.2008 28.9743 28.0703 30.5465 29.3078C31.0713 28.4221 31.3688 27.4523 31.3688 26.4281C31.3688 22.3364 26.7217 18.5365 21.0008 18.5365C15.2734 18.5365 10.6328 22.3395 10.6328 26.4281C10.6328 27.454 10.9215 28.4242 11.449 29.3078C13.0221 28.0703 16.7111 27.2008 21.0008 27.2008Z" fill="#C9E7F7"/>
</g>
<mask id="mask51_9_323256" style="mask-type:luminance" maskUnits="userSpaceOnUse" x="10" y="10" width="22" height="22">
<path fill-rule="evenodd" clip-rule="evenodd" d="M10.0947 21.0028C10.0947 27.031 14.9771 31.9098 21.0068 31.9098C27.0242 31.9098 31.9097 27.0288 31.9097 21.0028C31.9097 14.9807 27.0242 10.0948 20.9998 10.0948C14.9771 10.0948 10.0947 14.9807 10.0947 21.0028Z" fill="white"/>
</mask>
<g mask="url(#mask51_9_323256)">
<path fill-rule="evenodd" clip-rule="evenodd" d="M21.0005 27.2284C25.2836 27.2284 28.963 28.0914 30.5326 29.3187C31.057 28.4409 31.3536 27.4777 31.3536 26.4619C31.3536 22.4009 26.713 18.625 21.0005 18.625C15.281 18.625 10.647 22.4035 10.647 26.4619C10.647 27.4794 10.9348 28.4422 11.4622 29.3187C13.0327 28.0914 16.7174 27.2284 21.0005 27.2284Z" fill="#CFE9F8"/>
</g>
<mask id="mask52_9_323256" style="mask-type:luminance" maskUnits="userSpaceOnUse" x="10" y="10" width="22" height="22">
<path fill-rule="evenodd" clip-rule="evenodd" d="M10.0947 21.0028C10.0947 27.031 14.9771 31.9098 21.0068 31.9098C27.0242 31.9098 31.9097 27.0288 31.9097 21.0028C31.9097 14.9807 27.0242 10.0948 20.9998 10.0948C14.9771 10.0948 10.0947 14.9807 10.0947 21.0028Z" fill="white"/>
</mask>
<g mask="url(#mask52_9_323256)">
<path fill-rule="evenodd" clip-rule="evenodd" d="M21.0007 27.2563C25.2785 27.2563 28.9518 28.1127 30.5197 29.3309C31.0428 28.4592 31.3393 27.5038 31.3393 26.4959C31.3393 22.4651 26.7049 18.7142 21.0007 18.7142C15.2886 18.7142 10.6616 22.4677 10.6616 26.4959C10.6616 27.5056 10.949 28.4609 11.4751 29.3309C13.0439 28.1127 16.7233 27.2563 21.0007 27.2563Z" fill="#D4EBF8"/>
</g>
<mask id="mask53_9_323256" style="mask-type:luminance" maskUnits="userSpaceOnUse" x="10" y="10" width="22" height="22">
<path fill-rule="evenodd" clip-rule="evenodd" d="M10.0947 21.0028C10.0947 27.031 14.9771 31.9098 21.0068 31.9098C27.0242 31.9098 31.9097 27.0288 31.9097 21.0028C31.9097 14.9807 27.0242 10.0948 20.9998 10.0948C14.9771 10.0948 10.0947 14.9807 10.0947 21.0028Z" fill="white"/>
</mask>
<g mask="url(#mask53_9_323256)">
<path fill-rule="evenodd" clip-rule="evenodd" d="M21.0014 27.2842C25.2736 27.2842 28.9416 28.1335 30.5068 29.343C31.0295 28.4783 31.3256 27.5304 31.3256 26.529C31.3256 22.5289 26.6973 18.803 21.0014 18.803C15.2972 18.803 10.6772 22.5324 10.6772 26.529C10.6772 27.5317 10.9633 28.4796 11.4894 29.343C13.0556 28.1335 16.7306 27.2842 21.0014 27.2842Z" fill="#D9EEF9"/>
</g>
<mask id="mask54_9_323256" style="mask-type:luminance" maskUnits="userSpaceOnUse" x="10" y="10" width="22" height="22">
<path fill-rule="evenodd" clip-rule="evenodd" d="M10.0947 21.0028C10.0947 27.031 14.9771 31.9098 21.0068 31.9098C27.0242 31.9098 31.9097 27.0288 31.9097 21.0028C31.9097 14.9807 27.0242 10.0948 20.9998 10.0948C14.9771 10.0948 10.0947 14.9807 10.0947 21.0028Z" fill="white"/>
</mask>
<g mask="url(#mask54_9_323256)">
<path fill-rule="evenodd" clip-rule="evenodd" d="M21.0006 27.3122C25.2666 27.3122 28.9294 28.1554 30.4924 29.3552C31.0137 28.4966 31.3099 27.5562 31.3099 26.5631C31.3099 22.5937 26.6882 18.8918 21.0006 18.8918C15.3038 18.8918 10.6904 22.5967 10.6904 26.5631C10.6904 27.5584 10.9765 28.4979 11.5013 29.3552C13.0657 28.1554 16.7355 27.3122 21.0006 27.3122Z" fill="#DEF0FA"/>
</g>
<mask id="mask55_9_323256" style="mask-type:luminance" maskUnits="userSpaceOnUse" x="10" y="10" width="22" height="22">
<path fill-rule="evenodd" clip-rule="evenodd" d="M10.0947 21.0028C10.0947 27.031 14.9771 31.9098 21.0068 31.9098C27.0242 31.9098 31.9097 27.0288 31.9097 21.0028C31.9097 14.9807 27.0242 10.0948 20.9998 10.0948C14.9771 10.0948 10.0947 14.9807 10.0947 21.0028Z" fill="white"/>
</mask>
<g mask="url(#mask55_9_323256)">
<path fill-rule="evenodd" clip-rule="evenodd" d="M21.0008 27.3395C25.2615 27.3395 28.9186 28.1761 30.4795 29.3671C30.9999 28.5156 31.2956 27.5821 31.2956 26.597C31.2956 22.6578 26.68 18.9805 21.0008 18.9805C15.3119 18.9805 10.7051 22.6608 10.7051 26.597C10.7051 27.5843 10.9903 28.5165 11.5146 29.3671C13.0768 28.1761 16.7418 27.3395 21.0008 27.3395Z" fill="#E3F2FA"/>
</g>
<mask id="mask56_9_323256" style="mask-type:luminance" maskUnits="userSpaceOnUse" x="10" y="10" width="22" height="22">
<path fill-rule="evenodd" clip-rule="evenodd" d="M10.0947 21.0028C10.0947 27.031 14.9771 31.9098 21.0068 31.9098C27.0242 31.9098 31.9097 27.0288 31.9097 21.0028C31.9097 14.9807 27.0242 10.0948 20.9998 10.0948C14.9771 10.0948 10.0947 14.9807 10.0947 21.0028Z" fill="white"/>
</mask>
<g mask="url(#mask56_9_323256)">
<path fill-rule="evenodd" clip-rule="evenodd" d="M21.001 27.3673C25.256 27.3673 28.9074 28.1973 30.4661 29.3792C30.9856 28.5337 31.2814 27.6082 31.2814 26.6301C31.2814 22.7219 26.6719 19.0696 21.001 19.0696C15.32 19.0696 10.7197 22.7254 10.7197 26.6301C10.7197 27.6104 11.0045 28.5346 11.528 29.3792C13.088 28.1973 16.7481 27.3673 21.001 27.3673Z" fill="#E8F4FB"/>
</g>
<mask id="mask57_9_323256" style="mask-type:luminance" maskUnits="userSpaceOnUse" x="10" y="10" width="22" height="22">
<path fill-rule="evenodd" clip-rule="evenodd" d="M10.0947 21.0028C10.0947 27.031 14.9771 31.9098 21.0068 31.9098C27.0242 31.9098 31.9097 27.0288 31.9097 21.0028C31.9097 14.9807 27.0242 10.0948 20.9998 10.0948C14.9771 10.0948 10.0947 14.9807 10.0947 21.0028Z" fill="white"/>
</mask>
<g mask="url(#mask57_9_323256)">
<path fill-rule="evenodd" clip-rule="evenodd" d="M21.0011 27.395C25.25 27.395 28.8962 28.2185 30.4531 29.3911C30.9718 28.5523 31.2666 27.6337 31.2666 26.6635C31.2666 22.786 26.6637 19.1582 21.0011 19.1582C15.3276 19.1582 10.7339 22.7895 10.7339 26.6635C10.7339 27.6364 11.0182 28.5532 11.5408 29.3911C13.0986 28.2185 16.7544 27.395 21.0011 27.395Z" fill="#ECF6FC"/>
</g>
<mask id="mask58_9_323256" style="mask-type:luminance" maskUnits="userSpaceOnUse" x="10" y="10" width="22" height="22">
<path fill-rule="evenodd" clip-rule="evenodd" d="M10.0947 21.0028C10.0947 27.031 14.9771 31.9098 21.0068 31.9098C27.0242 31.9098 31.9097 27.0288 31.9097 21.0028C31.9097 14.9807 27.0242 10.0948 20.9998 10.0948C14.9771 10.0948 10.0947 14.9807 10.0947 21.0028Z" fill="white"/>
</mask>
<g mask="url(#mask58_9_323256)">
<path fill-rule="evenodd" clip-rule="evenodd" d="M21.0014 27.4224C25.245 27.4224 28.8854 28.2398 30.4397 29.4028C30.9576 28.5709 31.2519 27.6598 31.2519 26.6979C31.2519 22.8502 26.6556 19.2469 21.0014 19.2469C15.3353 19.2469 10.749 22.8542 10.749 26.6979C10.749 27.662 11.032 28.5714 11.5546 29.4028C13.1098 28.2398 16.7608 27.4224 21.0014 27.4224Z" fill="#F1F8FC"/>
</g>
<mask id="mask59_9_323256" style="mask-type:luminance" maskUnits="userSpaceOnUse" x="10" y="10" width="22" height="22">
<path fill-rule="evenodd" clip-rule="evenodd" d="M10.0947 21.0028C10.0947 27.031 14.9771 31.9098 21.0068 31.9098C27.0242 31.9098 31.9097 27.0288 31.9097 21.0028C31.9097 14.9807 27.0242 10.0948 20.9998 10.0948C14.9771 10.0948 10.0947 14.9807 10.0947 21.0028Z" fill="white"/>
</mask>
<g mask="url(#mask59_9_323256)">
<path fill-rule="evenodd" clip-rule="evenodd" d="M21.001 27.45C25.239 27.45 28.8741 28.2608 30.4258 29.4141C30.9428 28.5893 31.2371 27.6856 31.2371 26.7307C31.2371 22.9141 26.6474 19.3358 21.001 19.3358C15.3428 19.3358 10.7627 22.9181 10.7627 26.7307C10.7627 27.6883 11.0457 28.5897 11.567 29.4141C13.1204 28.2608 16.7666 27.45 21.001 27.45Z" fill="#F6FAFD"/>
</g>
<mask id="mask60_9_323256" style="mask-type:alpha" maskUnits="userSpaceOnUse" x="10" y="10" width="23" height="23">
<path fill-rule="evenodd" clip-rule="evenodd" d="M21.0476 10C14.9461 10 10 14.9497 10 21.0504C10 27.1574 14.9462 32.1 21.0546 32.1C27.1507 32.1 32.1 27.1552 32.1 21.0504C32.1 14.9496 27.1507 10 21.0476 10Z" fill="black"/>
</mask>
<g mask="url(#mask60_9_323256)">
<path fill-rule="evenodd" clip-rule="evenodd" d="M21.1737 23.8475C17.4185 23.8475 12.9103 24.8091 10.0278 25.8683C11.7554 29.6831 16.6531 33.3325 21.1737 33.3325C25.6755 33.3325 30.1126 29.6831 31.8433 25.8683C28.9346 24.4368 24.9337 23.8475 21.1737 23.8475Z" fill="#007BC6"/>
</g>
</svg>
