<svg width="42" height="42" viewBox="0 0 42 42" fill="none" xmlns="http://www.w3.org/2000/svg">
<circle cx="21" cy="21" r="21" fill="#E72410"/>
<circle cx="21" cy="21" r="20.5" stroke="black" stroke-opacity="0.05"/>
<path fill-rule="evenodd" clip-rule="evenodd" d="M30.1716 15H13.6378C12.7146 15 12.0692 15.5837 11.9152 16.3045C11.8325 16.7025 11.9823 17.0522 12.286 17.2946L14.1598 18.537L9.03592 21.1909C8.98969 21.2159 8.98784 21.2591 9.03176 21.2889L13.0163 23.9322L10.6177 25.1748C10.2131 25.4149 9.91402 25.7683 9.83127 26.1635C9.67733 26.8833 10.0749 27.4676 10.9995 27.4676H27.5338C27.5861 27.4676 27.5939 27.4443 27.5496 27.4155L18.2318 21.2331L30.1823 15.0437C30.2299 15.0204 30.2257 15 30.1716 15ZM18.2317 21.2331L18.2303 21.2317L18.2263 21.2331L18.23 21.2344L18.2317 21.2331ZM18.2261 21.2331L14.16 18.5371L13.0182 23.9312L18.2261 21.2331ZM23.4596 18.5335H30.4834C30.5347 18.5335 30.5403 18.5544 30.4936 18.5786L25.362 21.2373L29.3563 23.8825C29.3993 23.9113 29.3938 23.9331 29.3406 23.9331H22.3182L23.4596 18.5335Z" fill="white"/>
<path fill-rule="evenodd" clip-rule="evenodd" d="M32.6422 18.5334H31.6339C31.5822 18.5334 31.5008 18.5543 31.455 18.5785L26.4006 21.194C26.3535 21.2163 26.3526 21.2613 26.3956 21.2906L30.3164 23.8824C30.3603 23.9102 30.4403 23.933 30.4916 23.933H31.4994C31.5526 23.933 31.5581 23.9112 31.5151 23.8824L27.5139 21.2372L32.6533 18.5785C32.6995 18.5543 32.6935 18.5334 32.6422 18.5334Z" fill="white"/>
<path fill-rule="evenodd" clip-rule="evenodd" d="M34.7983 18.5334H33.7905C33.7382 18.5334 33.6587 18.5543 33.6111 18.5785L28.5581 21.194C28.511 21.2163 28.5105 21.2613 28.5535 21.2906L32.4734 23.8824C32.5164 23.9102 32.5959 23.933 32.6481 23.933H33.6564C33.7082 23.933 33.7165 23.9112 33.6717 23.8824L29.6709 21.2372L34.8094 18.5785C34.8561 18.5543 34.8519 18.5334 34.7983 18.5334Z" fill="white"/>
</svg>
