<svg width="42" height="42" viewBox="0 0 42 42" fill="none" xmlns="http://www.w3.org/2000/svg">
<circle cx="21" cy="21" r="21" fill="#120064"/>
<circle cx="21" cy="21" r="20.5" stroke="black" stroke-opacity="0.04"/>
<mask id="mask0_9_323497" style="mask-type:luminance" maskUnits="userSpaceOnUse" x="0" y="0" width="42" height="42">
<circle cx="21" cy="21" r="21" fill="white"/>
</mask>
<g mask="url(#mask0_9_323497)">
<path d="M15.6511 19.0553C15.1149 19.0553 14.6234 19.234 14.266 19.5915L14.1319 19.7255V17.0447H12.7021V21.6021C12.7021 23.3 13.7298 24.3723 15.383 24.3723C16.9915 24.3723 18.1532 23.2553 18.1532 21.6915C18.1532 20.1723 17.1256 19.0553 15.6511 19.0553ZM15.4277 23.0766C14.6681 23.0766 14.0426 22.4511 14.0426 21.6915C14.0426 20.9319 14.6681 20.3064 15.4277 20.3064C16.1873 20.3064 16.8128 20.9319 16.8128 21.6915C16.7681 22.4957 16.1873 23.0766 15.4277 23.0766Z" fill="white"/>
<path d="M10.2894 17L7.47447 20.3064V17H6V24.2383H7.47447V20.9766L10.3787 24.2383H12.2106L9.0383 20.6191L12.1213 17H10.2894Z" fill="white"/>
<path d="M35.9808 19.234H34.417L32.5851 21.3787V17H31.1553V24.2383H32.5851V22.0489L34.417 24.2383H35.9808L33.8808 21.7362L35.9808 19.234Z" fill="white"/>
<path d="M28.3403 19.0554C27.4467 19.0554 26.9105 19.4575 26.6424 19.7703V19.2341H25.2573V24.2384H26.6871V21.5129C26.6871 20.8427 27.1786 20.3512 27.7595 20.3512C28.3403 20.3512 28.8318 20.8427 28.8318 21.5129V24.2384H30.2616V21.0661C30.2616 19.9044 29.4126 19.0554 28.3403 19.0554Z" fill="white"/>
<path d="M21.5935 19.0554C19.9849 19.0554 18.8232 20.1724 18.8232 21.7363C18.8232 23.3001 19.8956 24.4171 21.3701 24.4171C22.3977 24.4171 22.9786 23.6575 22.9786 23.6575L23.0679 23.5235V24.2384H24.3637V21.7363C24.3637 20.1724 23.202 19.0554 21.5935 19.0554ZM21.6381 23.0767C20.8786 23.0767 20.253 22.4512 20.253 21.6916C20.253 20.932 20.8786 20.3065 21.6381 20.3065C22.3977 20.3065 23.0232 20.932 23.0232 21.6916C23.0232 22.4958 22.3977 23.0767 21.6381 23.0767Z" fill="white"/>
</g>
</svg>
