<svg width="42" height="42" viewBox="0 0 42 42" fill="none" xmlns="http://www.w3.org/2000/svg">
<circle cx="21" cy="21" r="21" fill="#0064FF"/>
<circle cx="21" cy="21" r="20.5" stroke="black" stroke-opacity="0.05"/>
<path d="M22.4412 15.766L23.3757 11.376C23.4177 11.1556 23.2289 10.9559 23.0082 11.0085C21.6536 11.2501 20.2461 11.67 18.8495 12.2688C12.5693 14.9258 8.76752 20.1348 10.3643 23.9049C11.572 26.73 15.4683 27.9377 19.9946 27.234L19.06 31.624C19.0178 31.8444 19.2069 32.0441 19.4276 31.9915C20.7822 31.7499 22.1894 31.33 23.5863 30.7312C29.8665 28.0742 33.6576 22.8652 32.0614 19.0845C30.8637 16.27 26.9674 15.0623 22.4412 15.766Z" fill="white"/>
</svg>
