<svg width="42" height="42" viewBox="0 0 42 42" fill="none" xmlns="http://www.w3.org/2000/svg">
<circle cx="21" cy="21" r="21" fill="#E73D44"/>
<path fill-rule="evenodd" clip-rule="evenodd" d="M21.0003 32C14.9257 32 10 27.075 10 21.0003C10 14.927 14.9257 10 21.0003 10C27.075 10 32 14.927 32 21.0003C32 27.075 27.075 32 21.0003 32Z" fill="white"/>
<path fill-rule="evenodd" clip-rule="evenodd" d="M11.8417 20.1187C11.8417 20.1278 11.8591 20.3685 11.8591 20.3685C11.8584 20.4243 11.8883 20.4737 11.9356 20.4963C11.9808 20.5154 12.0336 20.5062 12.0747 20.4681C12.487 20.118 13.1128 19.8031 13.6142 19.9803C14.0049 20.118 14.274 20.5288 14.4124 21.2043C14.6989 22.6182 13.7414 23.2994 13.1462 23.5796L13.1253 23.5888L12.3618 23.9714C12.3618 23.9714 12.3194 23.9876 12.2728 23.9643C12.2269 23.941 12.2096 23.9085 12.1804 23.8267C11.6595 21.8777 11.4843 19.8349 11.679 17.9297C11.6978 17.7829 11.7604 17.6114 11.8744 17.4695L12.5093 16.7763L12.583 16.6972C12.9334 16.3514 13.2554 16.182 13.4334 16.2547C13.5843 16.3189 13.6211 16.5568 13.6239 16.746C13.651 17.7589 13.0933 18.7937 11.9189 19.9104C11.9189 19.9104 11.8313 19.9845 11.8417 20.1187ZM15.3602 18.714C15.0132 18.5037 14.6161 18.443 14.2198 18.5008C14.945 17.718 15.3393 16.866 15.3393 16.007C15.3393 15.9279 15.3358 15.8495 15.3296 15.7712C15.2899 15.2361 15.0438 14.8352 14.6725 14.6975C14.2914 14.5571 13.6058 14.6277 12.5044 15.7662L11.8473 16.5159C11.6679 16.7404 10.9753 17.8041 10.8446 18.9102C10.6318 20.795 10.7688 22.6719 11.2402 24.3399C11.2959 24.534 11.4704 25.0048 11.8973 25.1806C12.3507 25.3655 12.7804 25.1425 13.158 24.9427L13.2588 24.8919L13.6496 24.714L14.0293 24.5432L14.4952 24.3378C14.8268 24.2001 15.1404 24.0702 15.4422 23.8119C15.8483 23.4625 16.1438 23.0022 16.2975 22.4827C16.3761 22.2124 16.4296 21.918 16.4595 21.5834C16.4825 21.323 16.5068 20.8204 16.4129 20.3771C16.205 19.4015 15.7252 18.9335 15.3602 18.714Z" fill="#E73D44"/>
<path fill-rule="evenodd" clip-rule="evenodd" d="M24.0335 12.8032C23.8186 12.0563 23.4647 11.8982 23.3646 11.8643C22.4502 11.5665 21.4962 11.505 20.5693 11.6709C19.1772 11.93 17.9721 12.6697 17.1781 13.7561C16.3416 14.8975 16.0196 16.3199 16.2665 17.7599C16.5175 19.2062 17.2392 20.3766 18.3553 21.1432C19.6618 22.0396 21.4072 22.3128 23.2672 21.9119C24.3652 21.6726 25.2775 21.237 25.9811 20.6208C26.2954 20.3441 26.3587 19.9933 26.3587 19.7434C26.3587 19.7434 26.3719 19.545 26.2203 18.9168C26.1793 18.7629 26.1126 18.7185 26.0069 18.7185C25.9304 18.7185 25.849 18.8074 25.833 18.8257C25.3094 19.442 24.5091 19.8719 23.5078 20.0723C20.9468 20.5721 18.9741 19.3566 18.486 16.9735C18.2767 15.9422 18.4519 14.9519 18.9783 14.1832C19.5123 13.4074 20.3857 12.8914 21.4371 12.7305C22.2402 12.6119 23.0544 12.7128 23.7894 13.0234C23.7894 13.0234 24.1016 13.1137 24.0335 12.8032Z" fill="#E73D44"/>
<circle cx="21" cy="21" r="20.5" stroke="black" stroke-opacity="0.05"/>
</svg>
