<svg width="42" height="42" viewBox="0 0 42 42" fill="none" xmlns="http://www.w3.org/2000/svg">
<circle cx="21" cy="21" r="21" fill="white"/>
<circle cx="21" cy="21" r="20.5" stroke="black" stroke-opacity="0.05"/>
<g clip-path="url(#clip0_9_326163)">
<path d="M20.9992 33.0004C22.5759 33.0047 24.1377 32.6963 25.5943 32.0929C27.0509 31.4896 28.3733 30.6032 29.485 29.4853C30.6028 28.3737 31.4891 27.0513 32.0924 25.5948C32.6957 24.1384 33.0041 22.5767 32.9998 21.0002C33.0041 19.4237 32.6957 17.8621 32.0924 16.4056C31.4891 14.9491 30.6028 13.6268 29.485 12.5151C28.3733 11.3972 27.0509 10.5109 25.5943 9.90749C24.1377 9.30411 22.5759 8.99568 20.9992 9.00005C14.3824 9.00005 8.99907 14.3834 8.99907 21.0002C8.99481 22.5767 9.30326 24.1383 9.90656 25.5948C10.5099 27.0513 11.396 28.3736 12.5138 29.4853C13.6255 30.6032 14.9479 31.4895 16.4044 32.0928C17.8609 32.6962 19.4227 33.0047 20.9992 33.0004Z" fill="#7B7B79"/>
<path d="M9.41508 21.0001C9.41119 19.4783 9.70912 17.9708 10.2916 16.5649C10.8741 15.1589 11.7297 13.8825 12.8087 12.8093C13.8819 11.7304 15.1584 10.875 16.5643 10.2926C17.9702 9.71024 19.4777 9.41243 20.9995 9.41642C22.5212 9.41237 24.0287 9.71016 25.4347 10.2925C26.8406 10.8749 28.1171 11.7304 29.1902 12.8093C30.2693 13.8825 31.1248 15.1589 31.7072 16.5649C32.2897 17.9708 32.5875 19.4783 32.5835 21.0001C32.5835 27.3861 27.3865 32.5849 20.9988 32.5849C19.477 32.5886 17.9697 32.2906 16.5639 31.708C15.1581 31.1255 13.8817 30.2699 12.8087 29.1909C11.7297 28.1177 10.8741 26.8413 10.2916 25.4354C9.70912 24.0294 9.41119 22.5219 9.41508 21.0001Z" fill="white"/>
<path d="M20.999 14.6738C21.8301 14.6715 22.6534 14.8342 23.4212 15.1522C24.189 15.4703 24.886 15.9375 25.472 16.5268C26.0615 17.1128 26.5288 17.8099 26.847 18.5778C27.1652 19.3456 27.3279 20.169 27.3257 21.0001C27.328 21.8313 27.1654 22.6546 26.8473 23.4224C26.5293 24.1903 26.062 24.8874 25.4727 25.4735C24.8866 26.0629 24.1895 26.5301 23.4215 26.8482C22.6536 27.1663 21.8302 27.3288 20.999 27.3265C20.1679 27.3287 19.3446 27.1661 18.5768 26.8481C17.8089 26.53 17.1118 26.0628 16.5257 25.4735C15.9365 24.8874 15.4694 24.1902 15.1515 23.4223C14.8335 22.6545 14.671 21.8312 14.6734 21.0001C14.6711 20.169 14.8337 19.3457 15.1518 18.5779C15.4699 17.81 15.9371 17.1129 16.5264 16.5268C17.1124 15.9376 17.8094 15.4704 18.5771 15.1523C19.3449 14.8343 20.168 14.6716 20.999 14.6738ZM20.999 14.3615C17.3326 14.3615 14.3604 17.3337 14.3604 21.0001C14.3604 24.6666 17.3326 27.6388 20.999 27.6388C24.6655 27.6388 27.6374 24.6666 27.6374 21.0001C27.6374 17.3337 24.6651 14.3615 20.999 14.3615Z" fill="#7B7B7C"/>
<path d="M14.3613 21.0001H20.9993V14.3615C17.3336 14.3615 14.3613 17.3337 14.3613 21.0001ZM21 21.0001V27.6388C24.6661 27.6388 27.6384 24.6666 27.6384 21.0001H21Z" fill="#4372B9"/>
<path d="M15.7866 14.2323C15.5513 14.0039 15.1879 13.9349 14.8464 14.1466C14.898 14.0059 14.8994 13.8517 14.8505 13.71C14.7034 13.442 14.652 13.4084 14.5309 13.3067C14.1387 12.9773 13.7257 13.2584 13.4303 13.6104L12.0039 15.311L14.2463 17.1928L15.7508 15.3998C16.0948 14.99 16.1479 14.5839 15.7855 14.2327L15.7866 14.2323ZM21.3719 13.4243L22.1421 11.3832V13.4243H22.7276V10.4993H21.8481L21.0498 12.5924H21.0582L20.2582 10.4993H19.3787V13.4226H19.9642V11.3815L20.7344 13.4226L21.3719 13.4243ZM29.2417 14.6391L28.1397 16.2009L29.848 15.3898L30.2992 15.9486L27.6115 17.2518L27.0805 16.5924L28.1383 15.0458L28.1321 15.0379L26.3992 15.7511L25.8633 15.0944L27.6972 12.7344L28.1484 13.2928L26.9996 14.7953L28.7551 14.0418L29.241 14.6412L29.2417 14.6391Z" fill="#7B7B7C"/>
<path d="M13.7417 14.0293C13.8409 13.9109 14.0651 13.9158 14.2095 14.0369C14.3681 14.1702 14.3685 14.359 14.2619 14.4857L13.4147 15.4953L12.8848 15.0507L13.7417 14.0293ZM15.249 15.2204L14.3556 16.2849L13.7955 15.8149L14.6978 14.7418C14.7995 14.6207 15.0262 14.5853 15.1789 14.7137C15.3524 14.8588 15.3691 15.0792 15.2507 15.2204H15.249Z" fill="white"/>
</g>
<defs>
<clipPath id="clip0_9_326163">
<rect width="24" height="24" fill="white" transform="translate(9 9)"/>
</clipPath>
</defs>
</svg>
