<svg width="42" height="42" viewBox="0 0 42 42" fill="none" xmlns="http://www.w3.org/2000/svg">
<circle cx="21" cy="21" r="21" fill="#122130"/>
<circle cx="21" cy="21" r="20.5" stroke="black" stroke-opacity="0.05"/>
<g clip-path="url(#clip0_9_326732)">
<path d="M25.6417 19.0317H16.2695V14.5503L25.5618 11V12.6528L17.887 15.6542V17.4142H25.6417V19.0317Z" fill="#6EB43F"/>
<path fill-rule="evenodd" clip-rule="evenodd" d="M15.3374 28.0572H10.7762C9.93812 28.0572 9 27.3788 9 26.47V23.9306C9 23.0208 9.93812 22.3435 10.7762 22.3435H15.3374V23.6921H10.7762C10.7593 23.691 10.7425 23.691 10.7256 23.6921C10.6093 23.7106 10.5036 23.7705 10.428 23.8608C10.3524 23.9511 10.312 24.0656 10.3142 24.1834V26.2112C10.312 26.329 10.3524 26.4436 10.428 26.5338C10.5036 26.6241 10.6093 26.684 10.7256 26.7025C10.7425 26.7036 10.7593 26.7036 10.7762 26.7025H15.3374V28.0572ZM22.7484 22.5457V26.1212L18.3408 22.7034C18.2453 22.6297 18.1313 22.5839 18.0114 22.571C17.8915 22.5582 17.7704 22.5788 17.6615 22.6306C17.4391 22.7317 17.2207 22.9571 17.2207 23.1987V28.0571H18.5854V24.5028L22.8151 27.9207C23.0092 28.0713 23.4509 28.0996 23.6723 27.9934C23.8937 27.8873 24.1353 27.6679 24.1353 27.4253V22.5457H22.7484ZM31.4835 24.5705V22.5457H32.9999V28.0571H31.4835V26.0323H27.5349V28.0571H26.0186V22.5457H27.5349V24.5705H31.4835Z" fill="white"/>
</g>
<defs>
<clipPath id="clip0_9_326732">
<rect width="24" height="17.0571" fill="white" transform="translate(9 11)"/>
</clipPath>
</defs>
</svg>
