<svg width="42" height="42" viewBox="0 0 42 42" fill="none" xmlns="http://www.w3.org/2000/svg">
<circle cx="21" cy="21" r="21" fill="#8DC63F"/>
<circle cx="21" cy="21" r="20.5" stroke="black" stroke-opacity="0.05"/>
<g clip-path="url(#clip0_9_326505)">
<path d="M31.9905 27.5865C32.0234 27.9325 31.9177 28.2775 31.6967 28.5457C31.4757 28.814 31.1574 28.9837 30.8115 29.0176L13.5023 31.126C13.1583 31.1763 12.8085 31.0879 12.5297 30.8802C12.2509 30.6725 12.066 30.3626 12.0157 30.0186L10.009 13.5487C9.99244 13.3774 10.0098 13.2046 10.0601 13.04C10.1104 12.8755 10.1927 12.7225 10.3022 12.5898C10.4117 12.4571 10.5463 12.3473 10.6984 12.2666C10.8504 12.186 11.0168 12.1362 11.1881 12.1199L28.4972 10.0092C28.8409 9.95889 29.1904 10.047 29.4691 10.2542C29.7478 10.4614 29.9329 10.7707 29.9838 11.1143L31.9905 27.5865Z" fill="white"/>
<path d="M15.8191 31.755C15.4958 31.7818 15.1704 31.7521 14.8573 31.6671C14.5581 31.5861 14.2869 31.4245 14.0732 31.1998C13.8596 30.9752 13.7118 30.6962 13.6459 30.3933L10.1781 17.6339C10.1027 17.3476 10.0972 17.0474 10.162 16.7586C10.2268 16.4697 10.3599 16.2007 10.5503 15.974C11.0644 15.374 11.7599 14.9577 12.5316 14.788L21.118 12.5131C21.3335 12.4546 21.5541 12.4167 21.7768 12.3998C22.0108 12.3819 22.246 12.4078 22.4704 12.4761C22.6651 12.5257 22.8427 12.6271 22.9844 12.7696C23.126 12.9121 23.2265 13.0902 23.275 13.2852C23.3327 13.484 23.3394 13.694 23.2946 13.896C23.2497 14.0981 23.1547 14.2855 23.0183 14.4412C22.7225 14.7722 22.329 15.0005 21.8948 15.0931L15.8838 16.6814C15.5097 16.7523 15.167 16.9382 14.9036 17.2131C14.8234 17.337 14.774 17.4782 14.7595 17.625C14.7451 17.7717 14.7659 17.9199 14.8204 18.057L15.3451 19.9943C15.3713 20.1515 15.4377 20.2991 15.5377 20.4231C15.6378 20.547 15.7681 20.643 15.9162 20.7018C16.1011 20.7649 16.2971 20.7892 16.4919 20.7735C16.7161 20.7553 16.9382 20.7166 17.1554 20.6579L21.1827 19.5944C21.4227 19.5265 21.6691 19.4839 21.9179 19.4672C22.1503 19.4501 22.384 19.4672 22.6114 19.5181C22.8275 19.5533 23.0291 19.6491 23.1928 19.7944C23.3565 19.9397 23.4756 20.1285 23.5362 20.3388C23.5918 20.5449 23.5886 20.7624 23.5269 20.9667C23.4652 21.171 23.3475 21.354 23.1871 21.4948C22.8324 21.8309 22.3914 22.0622 21.9132 22.1629L17.7518 23.2587C17.3601 23.3313 17.0001 23.5226 16.7207 23.8067C16.5612 24.0379 16.5335 24.3638 16.6467 24.7846L17.4374 27.6883C17.4643 27.8221 17.5243 27.947 17.612 28.0516C17.6996 28.1563 17.8121 28.2372 17.9391 28.2871C18.1078 28.3477 18.2876 28.3713 18.4662 28.3565C18.6224 28.3445 18.7772 28.3182 18.9286 28.2779L25.2216 26.6133C25.4228 26.5592 25.6287 26.5244 25.8365 26.5093C26.0905 26.4902 26.3457 26.5209 26.5879 26.5994C26.7773 26.65 26.9503 26.7492 27.0898 26.887C27.2292 27.0248 27.3304 27.1966 27.3832 27.3855C27.4355 27.5634 27.4487 27.7506 27.422 27.9341C27.3953 28.1177 27.3292 28.2933 27.2283 28.4489C26.9179 28.8292 26.4845 29.0892 26.003 29.1841L17.0097 31.5492C16.6234 31.6554 16.2278 31.7243 15.8283 31.755H15.8191Z" fill="#8DC63F"/>
</g>
<defs>
<clipPath id="clip0_9_326505">
<rect width="22" height="21.7619" fill="white" transform="translate(10 10)"/>
</clipPath>
</defs>
</svg>
