<svg width="42" height="42" viewBox="0 0 42 42" fill="none" xmlns="http://www.w3.org/2000/svg">
<circle cx="21" cy="21" r="21" fill="#009178"/>
<circle cx="21" cy="21" r="20.5" stroke="black" stroke-opacity="0.05"/>
<path d="M18.9102 12.2605C18.9102 13.436 19.8985 14.4306 21.0665 14.4306C22.2346 14.4306 23.2229 13.436 23.2229 12.2605C23.2229 12.0797 23.2229 11.8988 23.1331 11.718C22.9534 11.3563 22.7737 11.1755 22.7737 10.6329C22.7737 10 21.965 10 21.5158 10C21.0665 10 20.5274 10 20.0782 10.2713C19.7188 10.4521 19.4492 10.7234 19.2696 10.9946C19.0899 11.3563 18.9102 11.718 18.9102 12.0797" fill="white"/>
<path d="M31.9351 14.9739C31.9351 14.9739 31.4859 14.7026 30.8569 14.8835C30.0483 15.0643 27.4427 15.5164 23.4893 15.6972C21.6025 15.6972 19.6258 15.6972 17.5593 15.6068C15.8522 15.426 12.7075 14.9739 12.0785 14.8835C11.7191 14.8835 10.8206 14.793 10.3714 15.1547C9.8323 15.6068 9.92214 16.3302 10.3714 16.9631C10.2815 16.8727 11.0902 18.0482 12.8872 18.4099C15.4928 18.862 19.4461 18.6811 20.704 18.5907C23.5792 18.3194 25.8254 17.8673 27.6224 17.4152C27.6224 17.4152 29.9584 16.6919 31.1265 16.0589C31.5757 15.7877 32.2047 15.3356 31.9351 14.8835V14.9739Z" fill="white"/>
<path d="M23.3097 20.2175C21.8721 19.4037 20.165 19.4037 18.7274 20.2175C16.3914 21.5738 15.5827 24.4673 17.0203 26.8182C18.0985 28.6267 19.6259 28.1746 20.0752 27.7225C20.6143 27.0895 20.4346 26.547 20.0752 26.0949C19.5361 25.3715 19.4462 24.9194 19.4462 24.5577C19.4462 23.6535 20.165 22.8397 21.1533 22.8397C21.6026 22.8397 22.1417 23.0206 22.4112 23.4727C22.8605 24.0152 22.9503 24.7386 22.8605 25.3715C22.6808 28.9883 21.1533 32.1531 21.1533 32.3339C21.1533 32.5148 20.9736 32.8764 21.2432 33.0573C21.5127 33.1477 21.7823 33.0573 22.0518 32.786C22.7706 32.2435 24.0285 30.5255 24.7473 28.9883C25.1067 28.0841 26.095 25.8236 25.7356 23.4727C25.4661 21.6643 24.2981 20.6696 23.3097 20.1271V20.2175Z" fill="white"/>
</svg>
