<svg width="42" height="42" viewBox="0 0 42 42" fill="none" xmlns="http://www.w3.org/2000/svg">
<circle cx="21" cy="21" r="21" fill="white"/>
<circle cx="21" cy="21" r="20.5" stroke="black" stroke-opacity="0.05"/>
<g clip-path="url(#clip0_9_326203)">
<path d="M21.2048 33.6268C21.2048 33.6268 21.2275 31.9036 27.4517 26.4258L30.8785 22.9535L25.9232 20.4353L20.585 25.5659L21.2048 33.6268Z" fill="url(#paint0_linear_9_326203)"/>
<path d="M22.3043 18.1573C28.9308 21.4219 34.0387 20.9286 34.0387 20.9286C32.9386 20.7826 30.9233 19.0172 30.9233 19.0172C30.9233 19.0172 25.0139 13.1987 23.2583 11.3652C21.5027 9.5317 20.9867 8 20.9867 8C19.8153 9.18709 19.0604 10.722 18.8352 12.3744C18.7374 13.3636 18.9102 14.3607 19.335 15.2594C20.0246 16.4915 21.0557 17.4978 22.3043 18.1573Z" fill="url(#paint1_linear_9_326203)"/>
<path d="M22.3049 18.1573C21.054 17.4989 20.0205 16.4924 19.3291 15.2594C19.7501 16.1933 20.3091 17.0586 20.9874 17.8263C20.9874 17.8263 25.2482 21.7205 26.4392 23.0477C27.6302 24.375 27.4582 26.4259 27.4582 26.4259L30.197 23.6903C31.7093 22.0839 34.0458 20.9286 34.0458 20.9286C34.0458 20.9286 28.9314 21.4219 22.3049 18.1573Z" fill="url(#paint2_linear_9_326203)"/>
<path d="M20.5558 28.8046C20.0041 27.2469 17.2555 23.4306 15.1786 21.0714C13.7767 19.4813 14.1564 17.0312 14.5523 15.6099L11.8491 18.3098C10.3368 19.9162 8.00684 21.0714 8.00684 21.0714C9.10694 21.2175 11.1222 22.9828 11.1222 22.9828C11.1222 22.9828 17.0283 28.8013 18.7677 30.6348C19.7129 31.5855 20.4821 32.6963 21.0393 33.9157C21.1561 32.3061 20.9874 30.0345 20.5558 28.8046Z" fill="url(#paint3_linear_9_326203)"/>
<path d="M22.71 26.7407C22.4728 26.2607 22.2062 25.7957 21.9117 25.3485C21.4774 24.6844 20.9606 24.0781 20.3735 23.5442C19.1209 22.3857 17.1641 20.9254 15.6064 18.9491C14.5031 17.5472 14.5875 15.5709 14.5875 15.5709L14.5518 15.6066C14.1559 17.028 13.7762 19.4781 15.1781 21.0682C17.255 23.4274 20.0036 27.2339 20.5553 28.8013C20.9869 30.0345 21.1556 32.3061 21.0258 33.9286C21.0453 33.9838 21.0583 34.013 21.0583 34.013C21.4664 32.9428 22.0378 31.9422 22.7522 31.047C23.3883 30.2357 23.1222 27.5844 22.71 26.7407Z" fill="url(#paint4_linear_9_326203)"/>
</g>
<defs>
<linearGradient id="paint0_linear_9_326203" x1="27.1174" y1="20.7988" x2="22.0096" y2="33.5521" gradientUnits="userSpaceOnUse">
<stop stop-color="#B2B3B8"/>
<stop offset="0.51" stop-color="#CED0D1"/>
<stop offset="1" stop-color="#ADAEB3"/>
</linearGradient>
<linearGradient id="paint1_linear_9_326203" x1="19.9807" y1="10.5864" x2="30.6118" y2="22.681" gradientUnits="userSpaceOnUse">
<stop stop-color="#65CAF0"/>
<stop offset="1" stop-color="#4168AF"/>
</linearGradient>
<linearGradient id="paint2_linear_9_326203" x1="26.5171" y1="19.4651" x2="25.7253" y2="26.004" gradientUnits="userSpaceOnUse">
<stop stop-color="#65CAF0"/>
<stop offset="1" stop-color="#4168AF"/>
</linearGradient>
<linearGradient id="paint3_linear_9_326203" x1="12.3229" y1="20.2439" x2="20.0203" y2="34.2304" gradientUnits="userSpaceOnUse">
<stop stop-color="#65CAF0"/>
<stop offset="1" stop-color="#4168AF"/>
</linearGradient>
<linearGradient id="paint4_linear_9_326203" x1="22.4439" y1="33.0914" x2="16.7033" y2="18.4915" gradientUnits="userSpaceOnUse">
<stop stop-color="#65CAF0"/>
<stop offset="1" stop-color="#4168AF"/>
</linearGradient>
<clipPath id="clip0_9_326203">
<rect width="26.0389" height="26" fill="white" transform="translate(8 8)"/>
</clipPath>
</defs>
</svg>
