<svg width="42" height="42" viewBox="0 0 42 42" fill="none" xmlns="http://www.w3.org/2000/svg">
<circle cx="21" cy="21" r="21" fill="#004898"/>
<path fill-rule="evenodd" clip-rule="evenodd" d="M15.4156 10.2676C14.8149 10.5671 14.365 11.0826 14.1545 11.722L10.13 23.7944C9.91738 24.4273 9.96712 25.1115 10.2678 25.7121C10.5701 26.309 11.0856 26.758 11.7197 26.9708L24.9215 31.3953C25.5627 31.6054 26.2438 31.5563 26.8446 31.2562C27.4459 30.954 27.8953 30.439 28.1057 29.8017L32.1329 17.7337C32.573 16.4183 31.8558 14.9922 30.5384 14.553L17.3388 10.1306C16.7003 9.91839 16.0186 9.96531 15.4156 10.2676Z" fill="white"/>
<path fill-rule="evenodd" clip-rule="evenodd" d="M15.6645 24.2806H16.573V18.0093H15.6645V24.2806ZM21.8674 21.8632C21.1507 22.6641 20.2564 23.3079 19.2199 23.7072L18.6263 23.9385V18.3426L19.2134 18.5696C20.252 18.9662 21.1486 19.6083 21.8674 20.4038C22.3807 19.58 22.6978 18.6236 22.7639 17.587C22.9274 14.905 21.2453 12.4444 18.9313 11.5874L17.0268 10.9545C16.1658 10.6686 15.2501 11.1411 14.9659 11.9982L10.9304 24.0804C10.6418 24.9397 11.1245 25.8704 11.9877 26.1541L21.1486 29.2066C22.0806 28.2147 22.6863 26.9021 22.7759 25.4356C22.859 24.13 22.5157 22.897 21.8674 21.8632Z" fill="#00A4E3"/>
<path fill-rule="evenodd" clip-rule="evenodd" d="M28.0188 24.2596L26.8829 24.2623L24.5454 21.1285L26.9211 17.9909L28.0636 17.9882L25.6884 21.134L28.0188 24.2596ZM30.2475 15.3602L21.8389 12.5554C22.9677 13.7884 23.6581 15.4268 23.6631 17.2211C23.6631 18.6424 23.2208 19.9976 22.4495 21.1362C23.2235 22.2671 23.6702 23.6223 23.6751 25.0435C23.6751 26.7392 23.0628 28.2979 22.0477 29.5069L25.2057 30.5593C26.0689 30.8479 26.9802 30.3732 27.2666 29.5134L31.3053 17.4334C31.5912 16.5763 31.1091 15.6439 30.2475 15.3602Z" fill="#004898"/>
<path fill-rule="evenodd" clip-rule="evenodd" d="M21.3394 21.1362C20.8283 20.536 20.2084 20.0336 19.4961 19.6675V22.6141C20.2084 22.2437 20.8305 21.7357 21.3394 21.1362Z" fill="#E7380D"/>
<circle cx="21" cy="21" r="20.5" stroke="black" stroke-opacity="0.05"/>
</svg>
