<svg width="42" height="42" viewBox="0 0 42 42" fill="none" xmlns="http://www.w3.org/2000/svg">
<circle cx="21" cy="21" r="21" fill="white"/>
<circle cx="21" cy="21" r="20.5" stroke="black" stroke-opacity="0.05"/>
<g clip-path="url(#clip0_9_326723)">
<path d="M24.3147 10C23.1696 9.99835 22.0387 10.2536 21.0054 10.747C19.4739 11.4808 18.2271 12.6989 17.458 14.2129C17.5377 14.2083 17.6164 14.2037 17.6969 14.2037C18.431 14.2034 19.1464 14.4354 19.7407 14.8664C20.3349 15.2973 20.7776 15.9053 21.0054 16.6031C21.2341 15.9058 21.6772 15.2986 22.2715 14.8681C22.8658 14.4375 23.5809 14.2057 24.3147 14.2056C24.3943 14.2056 24.474 14.2056 24.5527 14.2147C25.3914 14.272 26.1809 14.6311 26.7753 15.2255C27.3697 15.8199 27.7287 16.6094 27.7861 17.4481C27.7916 17.5268 27.7952 17.6065 27.7952 17.687C27.7955 18.4211 27.5636 19.1365 27.1326 19.7307C26.7016 20.325 26.0937 20.7677 25.3958 20.9954C26.0937 21.2232 26.7016 21.6659 27.1326 22.2601C27.5636 22.8544 27.7955 23.5698 27.7952 24.3039C27.7952 24.3844 27.7952 24.4641 27.7861 24.5428C29.3005 23.774 30.519 22.5271 31.2529 20.9954C31.7461 19.9614 32.0014 18.8299 31.9999 17.6843C31.9984 15.6466 31.1882 13.6927 29.7473 12.252C28.3063 10.8112 26.3524 10.0012 24.3147 10Z" fill="url(#paint0_linear_9_326723)"/>
<path d="M17.6852 9.99977C15.6465 10.001 13.6918 10.8117 12.2507 12.2537C10.8095 13.6956 10 15.6509 10 17.6895C9.99892 18.8343 10.2542 19.9647 10.747 20.9979C11.4816 22.5279 12.7001 23.7731 14.2138 24.5407C14.2083 24.462 14.2046 24.3823 14.2046 24.3018C14.2044 23.5677 14.4363 22.8523 14.8673 22.2581C15.2982 21.6638 15.9062 21.2211 16.604 20.9934C15.906 20.7656 15.298 20.3227 14.867 19.7283C14.436 19.1338 14.2042 18.4183 14.2046 17.684C14.2046 17.6035 14.2046 17.5238 14.2138 17.4451C14.2711 16.6066 14.63 15.8172 15.2242 15.2228C15.8185 14.6284 16.6078 14.2693 17.4462 14.2117C18.2154 12.6975 19.4626 11.4793 20.9945 10.7459C19.9611 10.2528 18.8302 9.99783 17.6852 9.99977Z" fill="url(#paint1_linear_9_326723)"/>
<path d="M31.2532 20.9937C30.5194 22.5253 29.3008 23.7722 27.7864 24.541C27.7288 25.3795 27.3697 26.1688 26.7753 26.763C26.1809 27.3572 25.3915 27.7161 24.553 27.7734C24.4743 27.7789 24.3947 27.7826 24.315 27.7826C23.9168 27.7826 23.3483 27.5437 22.9922 27.421V31.8325C23.3584 31.8875 23.9287 31.9872 24.315 31.9872C26.3537 31.986 28.3084 31.1753 29.7495 29.7333C31.1906 28.2914 32.0002 26.3361 32.0002 24.2975C32.0006 23.1543 31.7453 22.0255 31.2532 20.9937Z" fill="url(#paint2_linear_9_326723)"/>
<path d="M17.6852 27.7826C17.6055 27.7826 17.5259 27.7826 17.4462 27.7734C16.6079 27.7159 15.8187 27.3569 15.2245 26.7627C14.6303 26.1685 14.2713 25.3793 14.2138 24.541C12.6994 23.7722 11.4808 22.5253 10.747 20.9937C10.2542 22.0269 9.99892 23.1573 10 24.3021C10 26.3415 10.8102 28.2974 12.2523 29.7395C13.6944 31.1817 15.6503 31.9918 17.6897 31.9918C18.1873 31.9916 18.6836 31.9435 19.1719 31.8481V27.454C18.7067 27.6722 18.199 27.7844 17.6852 27.7826Z" fill="url(#paint3_linear_9_326723)"/>
</g>
<defs>
<linearGradient id="paint0_linear_9_326723" x1="17.0973" y1="13.8733" x2="31.3655" y2="18.9137" gradientUnits="userSpaceOnUse">
<stop stop-color="#164AA0"/>
<stop offset="1" stop-color="#00AEEC"/>
</linearGradient>
<linearGradient id="paint1_linear_9_326723" x1="11.5508" y1="23.3387" x2="15.8927" y2="12.4834" gradientUnits="userSpaceOnUse">
<stop stop-color="#164AA0"/>
<stop offset="1" stop-color="#00AEEC"/>
</linearGradient>
<linearGradient id="paint2_linear_9_326723" x1="31.9407" y1="22.1389" x2="23.644" y2="31.7547" gradientUnits="userSpaceOnUse">
<stop stop-color="#164AA0"/>
<stop offset="1" stop-color="#00AEEC"/>
</linearGradient>
<linearGradient id="paint3_linear_9_326723" x1="18.8908" y1="32.0623" x2="10.1282" y2="22.5243" gradientUnits="userSpaceOnUse">
<stop stop-color="#164AA0"/>
<stop offset="1" stop-color="#00AEEC"/>
</linearGradient>
<clipPath id="clip0_9_326723">
<rect width="22" height="21.9881" fill="white" transform="translate(10 10)"/>
</clipPath>
</defs>
</svg>
