<svg width="42" height="42" viewBox="0 0 42 42" fill="none" xmlns="http://www.w3.org/2000/svg">
<circle cx="21" cy="21" r="21" fill="white"/>
<circle cx="21" cy="21" r="20.5" stroke="black" stroke-opacity="0.05"/>
<g clip-path="url(#clip0_9_326666)">
<path d="M6.01734 18.9978L5.55273 22.052C5.90717 21.7535 6.42127 21.589 7.05511 21.589H7.24031L7.53408 19.6476C18.2311 20.5289 27.6173 19.5949 35.1387 16.4385L34.3788 21.2921C34.6326 21.1324 35.1627 21.0925 36.0408 21.0925L36.9987 15C27.6844 19.3554 16.874 20.3309 6.01734 18.9978Z" fill="#7FBE26"/>
<path d="M27.4252 22.1128H29.0393L28.4837 25.7162H26.876L27.4252 22.1128Z" fill="#0062B1"/>
<path d="M14.6181 24.9721C14.5833 25.0606 14.5219 25.1362 14.4425 25.1885C14.363 25.2408 14.2693 25.2673 14.1743 25.2643C14.0823 25.256 13.9959 25.2168 13.9291 25.153C13.8624 25.0892 13.8194 25.0045 13.8071 24.913C13.7421 24.5786 13.7377 24.2352 13.7943 23.8992C13.8922 23.0562 14.1184 22.647 14.4728 22.6714C14.5646 22.6791 14.651 22.7174 14.7183 22.7803C14.7855 22.8432 14.8295 22.9269 14.8432 23.0179C14.9101 23.3423 14.9161 23.6764 14.8608 24.003C14.8385 24.3379 14.7563 24.6662 14.6181 24.9721ZM16.2769 22.4463C15.9385 22.119 15.3701 21.9546 14.5782 21.9546C13.0242 21.9546 12.1653 22.6134 12.0013 23.9311C11.913 24.6368 12.0359 25.1557 12.3701 25.4878C12.7044 25.8199 13.2701 25.9875 14.0673 25.9907C14.8613 25.9907 15.4691 25.8263 15.8906 25.4974C16.3121 25.1685 16.5665 24.6602 16.6537 23.9727C16.7399 23.2829 16.6144 22.7742 16.2769 22.4463Z" fill="#0062B1"/>
<path d="M19.6723 24.9721C19.6374 25.0606 19.5761 25.1362 19.4966 25.1885C19.4172 25.2408 19.3235 25.2673 19.2284 25.2643C19.1365 25.2556 19.0501 25.2162 18.9832 25.1525C18.9164 25.0888 18.8728 25.0044 18.8596 24.913C18.7963 24.5784 18.792 24.2353 18.8469 23.8992C18.9458 23.0562 19.1662 22.6475 19.527 22.6714C19.6187 22.6791 19.7052 22.7174 19.7724 22.7803C19.8397 22.8432 19.8837 22.9269 19.8974 23.0179C19.9634 23.3424 19.9699 23.6762 19.9166 24.003C19.8924 24.3378 19.8097 24.6658 19.6723 24.9721ZM21.3279 22.4463C20.9863 22.119 20.4211 21.9546 19.6276 21.9546C18.0736 21.9546 17.2141 22.6134 17.0491 23.9311C16.9608 24.6368 17.0842 25.1557 17.4195 25.4878C17.7548 25.8199 18.3221 25.9875 19.1215 25.9907C19.9144 25.9907 20.5217 25.8263 20.9431 25.4974C21.3646 25.1685 21.6196 24.6602 21.7079 23.9727C21.7941 23.2829 21.6675 22.7742 21.3279 22.4463Z" fill="#0062B1"/>
<path d="M35.2657 21.6035C34.5329 21.6035 34.0523 21.8079 33.6611 22.231L32.3168 23.9153L31.22 22.1192H30.7841C30.1279 22.1192 29.5468 22.504 29.4366 23.2272L29.0566 25.7227H30.6708L31.0252 23.4028L32.3168 25.6556L34.0252 23.6822L33.7058 25.7227H35.32L35.9586 21.6099L35.2657 21.6035Z" fill="#0062B1"/>
<path d="M11.1228 22.1128C10.8272 22.1065 10.5333 22.1587 10.2579 22.2664C9.98255 22.374 9.73119 22.5351 9.51829 22.7403L8.26019 23.9153L7.16335 22.1192H6.72749C6.0713 22.1192 5.49015 22.504 5.37998 23.2272L5 25.7227H6.61413L6.96857 23.4028L8.26019 25.6556L9.89029 24.1852L9.65559 25.7163H11.2697L11.8062 22.1128H11.1228Z" fill="#0062B1"/>
<path d="M26.4941 25.5117C26.3345 25.2994 25.8283 24.2887 25.8283 24.2887C25.7795 24.1775 25.7015 24.0815 25.6026 24.0109C25.5036 23.9404 25.3875 23.8979 25.2664 23.888C25.6623 23.8608 26.2451 23.5687 26.3297 22.9987C26.384 22.6411 26.2067 22.103 25.0684 22.103H22.5027L21.9551 25.7256H23.4766L23.7337 24.1291H24.1216C24.1825 24.1318 24.2412 24.1519 24.291 24.187C24.3408 24.2221 24.3795 24.2707 24.4026 24.327C24.4697 24.4596 24.8273 25.1253 24.9439 25.3121L25.046 25.4718C25.0941 25.5484 25.1607 25.6117 25.2396 25.6558C25.3186 25.6999 25.4074 25.7234 25.4979 25.724L26.8102 25.7129C26.6892 25.6743 26.5803 25.605 26.4941 25.5117ZM24.7858 23.0306C24.7598 23.2427 24.6545 23.437 24.4909 23.5745C24.3274 23.7119 24.1178 23.7823 23.9045 23.7714C23.859 23.773 23.8134 23.7692 23.7688 23.7603L23.9795 22.3697C24.0487 22.3592 24.1188 22.3555 24.1887 22.3585C24.2759 22.3502 24.3638 22.3627 24.4452 22.3948C24.5267 22.4268 24.5995 22.4777 24.6577 22.5431C24.7158 22.6086 24.7577 22.6869 24.78 22.7716C24.8023 22.8563 24.8042 22.945 24.7858 23.0306Z" fill="#0062B1"/>
</g>
<defs>
<clipPath id="clip0_9_326666">
<rect width="32" height="10.9876" fill="white" transform="translate(5 15)"/>
</clipPath>
</defs>
</svg>
