<svg width="42" height="42" viewBox="0 0 42 42" fill="none" xmlns="http://www.w3.org/2000/svg">
<circle cx="21" cy="21" r="21" fill="white"/>
<circle cx="21" cy="21" r="20.5" stroke="black" stroke-opacity="0.05"/>
<g clip-path="url(#clip0_9_326741)">
<path d="M13.1425 20.0004C13.2256 19.8611 13.2684 19.7015 13.2661 19.5394V19.5355C13.2712 19.3679 13.2303 19.202 13.1479 19.056C13.0677 18.9225 12.9479 18.8175 12.8051 18.7555C12.6323 18.6819 12.4457 18.6465 12.258 18.6519H11.1045V21.3139H11.7809V20.3967H12.1257L12.5809 21.3139H13.3419L12.8114 20.2975C12.9502 20.2356 13.066 20.1317 13.1425 20.0004ZM12.575 19.5374C12.5772 19.5871 12.5689 19.6367 12.5507 19.683C12.5324 19.7292 12.5046 19.7711 12.469 19.8059C12.3904 19.876 12.2873 19.9121 12.1821 19.9065H11.7809V19.163H12.1772C12.2827 19.1578 12.3859 19.1943 12.4646 19.2646C12.501 19.2991 12.5295 19.3409 12.5483 19.3873C12.5671 19.4337 12.5757 19.4835 12.5736 19.5335L12.575 19.5374Z" fill="#282934"/>
<path d="M17.6264 23.8451C17.7095 23.7058 17.7523 23.5462 17.7499 23.3841V23.3802C17.7552 23.2126 17.7143 23.0467 17.6318 22.9007C17.5514 22.7675 17.4316 22.6625 17.2889 22.6002C17.116 22.5266 16.9292 22.4913 16.7414 22.4966H15.5898V25.1586H16.2663V24.2414H16.6106L17.0657 25.1586H17.8273L17.2962 24.1422C17.4345 24.0799 17.5499 23.9761 17.6264 23.8451ZM17.0584 23.3822C17.0608 23.4319 17.0525 23.4815 17.0343 23.5278C17.016 23.574 16.9881 23.6159 16.9524 23.6506C16.8739 23.7205 16.771 23.7565 16.666 23.7508H16.2663V23.0077H16.6621C16.7676 23.0026 16.8709 23.0389 16.95 23.1089C16.9862 23.1434 17.0146 23.1854 17.0333 23.2318C17.052 23.2783 17.0606 23.3282 17.0584 23.3783V23.3822Z" fill="#282934"/>
<path d="M16.8014 18.6519H16.125V21.3133H16.8014V18.6519Z" fill="#282934"/>
<path d="M18.1562 21.3133H18.8327V20.3213H19.8626V19.8029H18.8327V19.196H19.9662V18.6519H18.1562V21.3133Z" fill="#282934"/>
<path d="M20.9421 18.6519H20.2656V21.3133H20.9421V18.6519Z" fill="#282934"/>
<path d="M21.5475 22.4966H20.8711V25.1581H21.5475V22.4966Z" fill="#282934"/>
<path d="M22.9952 20.1866H22.9835L21.921 18.6519H21.3457V21.3133H22.0221V19.7625H22.0343L23.1022 21.3133H23.6702V18.6519H22.9952V20.1866Z" fill="#282934"/>
<path d="M25.4938 18.6519H24.8704L23.9746 21.3138H24.6861L24.8519 20.7303H25.718L25.8838 21.3138H26.5952L25.6995 18.6519H25.4938ZM24.991 20.242L25.2784 19.231H25.291L25.5789 20.242H24.991Z" fill="#282934"/>
<path d="M28.5489 20.1866H28.5372L27.4742 18.6519H26.8994V21.3133H27.5758V19.7625H27.5875L28.6554 21.3133H29.2234V18.6519H28.5489V20.1866Z" fill="#282934"/>
<path d="M32.9948 18.6519H32.3184V21.3133H32.9948V18.6519Z" fill="#282934"/>
<path d="M34.8185 18.6519H34.1956L33.2998 21.3138H34.0112L34.1766 20.7303H35.0432L35.209 21.3138H35.9204L35.0257 18.6519H34.8185ZM34.3157 20.242L34.6031 19.231H34.6157L34.9036 20.242H34.3157Z" fill="#282934"/>
<path d="M36.8996 20.7697V18.6519H36.2236V21.3133H38.0001V20.7697H36.8996Z" fill="#282934"/>
<path d="M22.9873 24.5808C22.5938 24.4218 22.5355 24.0206 22.5355 23.7541C22.5355 23.4876 22.7222 23.0733 23.3024 23.1006C23.8825 23.1278 24.0722 23.2654 24.0722 23.2654V22.6371C24.0722 22.6371 23.4424 22.3643 22.7825 22.5802C22.1226 22.7961 21.9023 23.2518 21.9023 23.8684C21.9023 24.485 22.3016 25.159 23.0889 25.159C23.6919 25.159 23.9457 25.0618 24.0722 24.9859V24.4145C24.0722 24.4145 23.3807 24.7393 22.9873 24.5808Z" fill="#282934"/>
<path d="M30.7041 20.7361C30.3106 20.5776 30.2523 20.1759 30.2523 19.9094C30.2523 19.6429 30.439 19.2286 31.0192 19.2553C31.5993 19.2821 31.7895 19.4207 31.7895 19.4207V18.7919C31.7895 18.7919 31.1573 18.5191 30.4993 18.735C29.8414 18.9509 29.6191 19.4071 29.6191 20.0237C29.6191 20.6403 30.0184 21.3138 30.8057 21.3138C31.4092 21.3138 31.6625 21.2165 31.7895 21.1407V20.5688C31.7895 20.5688 31.0975 20.8946 30.7041 20.7361Z" fill="#282934"/>
<path d="M14.6494 20.7361C14.2564 20.5776 14.1981 20.1759 14.1981 19.9094C14.1981 19.6429 14.3848 19.2286 14.9645 19.2553C15.5441 19.2821 15.7348 19.4207 15.7348 19.4207V18.7919C15.7348 18.7919 15.1026 18.5191 14.4446 18.735C13.7867 18.9509 13.5645 19.4071 13.5645 20.0237C13.5645 20.6403 13.9637 21.3138 14.751 21.3138C15.3545 21.3138 15.6078 21.2165 15.7348 21.1407V20.5688C15.7348 20.5688 15.0423 20.8946 14.6494 20.7361Z" fill="#282934"/>
<path d="M26.3114 23.0266V22.4966H24.502V24.6051V25.09V25.1581H26.3114V24.6051H25.1784V24.1232H26.2083V23.618H25.1784V23.0266H26.3114Z" fill="#282934"/>
<path d="M15.1518 23.0266V22.4966H13.3418V24.6051V25.09V25.1581H15.1518V24.6051H14.0182V24.1232H15.0487V23.618H14.0182V23.0266H15.1518Z" fill="#282934"/>
<path d="M19.9022 22.4966L19.2155 24.4194L18.5289 22.4966H17.8271L18.827 25.1581H18.9023H19.5287H19.6045L20.6044 22.4966H19.9022Z" fill="#282934"/>
<path d="M12.866 23.2406V22.6571C12.866 22.6571 12.5777 22.4373 11.8842 22.5083C11.1908 22.5793 10.9574 22.9989 10.9778 23.2377C10.9982 23.4765 11.0532 23.883 11.7072 24.0644C12.3613 24.2458 12.3525 24.2842 12.3593 24.4194C12.3661 24.5546 12.2013 24.6392 11.7758 24.6003C11.4956 24.5672 11.2247 24.4795 10.9783 24.3421V24.9879C11.2357 25.1019 11.5147 25.1591 11.7962 25.1556C12.263 25.1493 13.0936 24.9879 13.0868 24.3746C13.08 23.7614 12.3316 23.5932 12.3316 23.5932C12.3316 23.5932 11.6659 23.4444 11.6931 23.2187C11.7203 22.9931 12.2081 23.0242 12.3661 23.0699C12.5242 23.1156 12.866 23.2406 12.866 23.2406Z" fill="#282934"/>
<path d="M28.5785 23.2406V22.6571C28.5785 22.6571 28.2901 22.4373 27.5967 22.5083C26.9032 22.5793 26.6698 22.9989 26.6907 23.2377C26.7116 23.4765 26.7661 23.883 27.4202 24.0644C28.0742 24.2458 28.0655 24.2842 28.0723 24.4194C28.0791 24.5546 27.9147 24.6392 27.4887 24.6003C27.2086 24.5672 26.9376 24.4795 26.6912 24.3421V24.9879C26.9488 25.1018 27.228 25.159 27.5096 25.1556C27.9765 25.1493 28.8071 24.9879 28.8003 24.3746C28.7935 23.7614 28.0451 23.5932 28.0451 23.5932C28.0451 23.5932 27.3793 23.4444 27.4066 23.2187C27.4338 22.9931 27.9215 23.0242 28.0796 23.0699C28.2376 23.1156 28.5785 23.2406 28.5785 23.2406Z" fill="#282934"/>
<path d="M6.98291 22.9658C8.63032 22.9658 9.96582 21.6303 9.96582 19.9829C9.96582 18.3355 8.63032 17 6.98291 17C5.33549 17 4 18.3355 4 19.9829C4 21.6303 5.33549 22.9658 6.98291 22.9658Z" fill="#FF7100"/>
</g>
<defs>
<clipPath id="clip0_9_326741">
<rect width="34" height="8.15802" fill="white" transform="translate(4 17)"/>
</clipPath>
</defs>
</svg>
