<svg width="42" height="42" viewBox="0 0 42 42" fill="none" xmlns="http://www.w3.org/2000/svg">
<circle cx="21" cy="21" r="21" fill="white"/>
<circle cx="21" cy="21" r="20.5" stroke="black" stroke-opacity="0.05"/>
<g clip-path="url(#clip0_9_326524)">
<path d="M11.7579 20.9965C11.7581 18.7806 12.5469 16.637 13.983 14.9495C15.4191 13.2619 17.4088 12.1404 19.5961 11.7856C21.7835 11.4309 24.0257 11.866 25.9215 13.0131C27.8174 14.1603 29.2432 15.9446 29.9438 18.0469L30.5501 17.8448C29.7139 15.3362 27.9154 13.2625 25.5503 12.0799C23.1852 10.8974 20.4471 10.7028 17.9385 11.539C15.4299 12.3752 13.3563 14.1737 12.1737 16.5388C10.9911 18.9039 10.7965 21.642 11.6327 24.1506L12.2366 23.9485C11.9198 22.9965 11.7582 21.9998 11.7579 20.9965Z" fill="white" stroke="#0F4A7F" stroke-width="0.25" stroke-miterlimit="10"/>
<path d="M29.9439 18.0493C30.3314 19.2119 30.4861 20.4395 30.3992 21.662C30.3122 22.8845 29.9854 24.0778 29.4373 25.174C28.8891 26.2701 28.1305 27.2476 27.2046 28.0505C26.2787 28.8534 25.2038 29.4662 24.0411 29.8537C22.8784 30.2412 21.6508 30.3959 20.4283 30.3089C19.2059 30.222 18.0125 29.8952 16.9164 29.347C15.8202 28.7989 14.8428 28.0402 14.0398 27.1144C13.2369 26.1885 12.6242 25.1135 12.2367 23.9509L11.6328 24.153C12.0469 25.3951 12.7015 26.5435 13.5594 27.5326C14.4172 28.5218 15.4615 29.3322 16.6326 29.9178C18.9978 31.1004 21.7358 31.2949 24.2444 30.4587C25.4865 30.0447 26.6349 29.3901 27.6241 28.5322C28.6132 27.6743 29.4237 26.63 30.0092 25.4589C30.5948 24.2878 30.9439 23.0129 31.0367 21.7068C31.1295 20.4008 30.9642 19.0893 30.5502 17.8472L29.9439 18.0493Z" fill="#0E4F7F" stroke="#0F4A7F" stroke-width="0.25" stroke-miterlimit="10"/>
<path d="M21.0808 11.6665C19.602 11.6664 18.1443 12.0178 16.8279 12.6917C15.5115 13.3656 14.3741 14.3426 13.5095 15.5423C12.6448 16.7421 12.0776 18.1301 11.8547 19.592C11.6318 21.054 11.7595 22.548 12.2272 23.9509L13.0188 23.6862C12.3851 21.5702 12.6001 19.2906 13.6181 17.3303C14.6362 15.37 16.3773 13.883 18.4728 13.1843C20.5683 12.4856 22.8534 12.6301 24.8442 13.5872C26.835 14.5442 28.375 16.2386 29.1381 18.3115L29.9272 18.0493C29.3085 16.1919 28.1213 14.5762 26.5337 13.4308C24.9461 12.2853 23.0385 11.6681 21.0808 11.6665Z" fill="#0E4F7F" stroke="#0F4A7F" stroke-width="0.25" stroke-miterlimit="10"/>
<path d="M29.5899 20.9965C29.5885 23.0138 28.8697 24.965 27.5619 26.5011C26.2542 28.0371 24.4427 29.058 22.4513 29.3811C20.46 29.7042 18.4187 29.3085 16.6923 28.2648C14.9659 27.221 13.667 25.5973 13.0279 23.6838L12.2363 23.9485C12.6238 25.1111 13.2365 26.1861 14.0395 27.112C14.8424 28.0379 15.8199 28.7965 16.916 29.3446C18.0122 29.8928 19.2055 30.2196 20.428 30.3066C21.6505 30.3935 22.8781 30.2388 24.0407 29.8513C25.2034 29.4638 26.2784 28.8511 27.2042 28.0481C28.1301 27.2452 28.8888 26.2677 29.4369 25.1716C29.985 24.0754 30.3119 22.8821 30.3988 21.6596C30.4857 20.4372 30.331 19.2095 29.9435 18.0469L29.1544 18.3091C29.4432 19.1756 29.5903 20.0831 29.5899 20.9965Z" fill="white" stroke="#0F4A7F" stroke-width="0.25" stroke-miterlimit="10"/>
<path d="M24.9105 17.3203C29.2411 17.5224 32.6983 18.4943 32.6574 19.4855L33.6005 19.5313C33.5548 18.3283 29.3542 17.1591 24.1286 16.9137C18.9464 16.6731 14.6856 17.4261 14.457 18.5978L16.9976 18.7205C17.1107 17.7533 20.6257 17.1206 24.9105 17.3203Z" fill="white" stroke="#0F4A7F" stroke-width="0.25" stroke-miterlimit="10"/>
<path d="M32.6573 19.4927C32.6116 20.4936 29.0653 21.1383 24.742 20.9362C20.4186 20.7341 16.947 19.7622 16.9927 18.771C16.9938 18.7614 16.9938 18.7517 16.9927 18.7421L14.4521 18.6194C14.4457 18.6438 14.4417 18.6688 14.44 18.694C14.3823 19.9186 18.6263 21.0998 23.9168 21.3573C29.2073 21.6147 33.5402 20.8111 33.598 19.589C33.5991 19.5737 33.5991 19.5585 33.598 19.5432L32.6573 19.4927Z" fill="#114A86" stroke="#0F4A7F" stroke-width="0.25" stroke-miterlimit="10"/>
<path opacity="0.6" d="M32.2126 19.4927C32.1813 20.1616 29.0489 20.561 25.2139 20.3805C21.379 20.2001 18.2971 19.5144 18.3283 18.8456C18.3272 18.8312 18.3272 18.8167 18.3283 18.8023L16.9907 18.7373C16.9918 18.7469 16.9918 18.7566 16.9907 18.7662C16.945 19.7646 20.4142 20.739 24.74 20.9315C29.0657 21.1239 32.6096 20.4888 32.6553 19.4879L32.2078 19.4663C32.2078 19.4663 32.2126 19.4855 32.2126 19.4927Z" fill="#114A86" stroke="#0F4A7F" stroke-width="0.25" stroke-miterlimit="10"/>
<path d="M32.2126 19.4927C32.1813 20.1616 29.0489 20.561 25.2139 20.3805C21.379 20.2001 18.2971 19.5144 18.3283 18.8456C18.3272 18.8312 18.3272 18.8167 18.3283 18.8023L16.9907 18.7373C16.9918 18.7469 16.9918 18.7566 16.9907 18.7662C16.945 19.7646 20.4142 20.739 24.74 20.9315C29.0657 21.1239 32.6096 20.4888 32.6553 19.4879L32.2078 19.4663C32.2078 19.4663 32.2126 19.4855 32.2126 19.4927Z" fill="white" stroke="#0F4A7F" stroke-width="0.25" stroke-miterlimit="10"/>
<path opacity="0.6" d="M24.911 17.3203C20.6261 17.1206 17.1111 17.7533 16.998 18.7373L18.3357 18.8023C18.4993 18.1599 21.5764 17.7822 25.3272 17.9578C29.1212 18.1358 32.1767 18.8095 32.2104 19.4711L32.6579 19.4928C32.6988 18.4943 29.2319 17.5223 24.911 17.3203Z" fill="#114A86" stroke="#0F4A7F" stroke-width="0.25" stroke-miterlimit="10"/>
<path d="M24.911 17.3203C20.6261 17.1206 17.1111 17.7533 16.998 18.7373L18.3357 18.8023C18.4993 18.1599 21.5764 17.7822 25.3272 17.9578C29.1212 18.1358 32.1767 18.8095 32.2104 19.4711L32.6579 19.4928C32.6988 18.4943 29.2319 17.5223 24.911 17.3203Z" fill="#114A86" stroke="#0F4A7F" stroke-width="0.25" stroke-miterlimit="10"/>
<path d="M16.7256 24.48C12.395 24.2804 8.93541 23.306 8.97872 22.3148L8.0332 22.269C8.07891 23.472 12.2796 24.6436 17.5075 24.889C22.6874 25.1296 26.9506 24.3766 27.1791 23.2049L24.6361 23.0822C24.5254 24.0494 21.0081 24.6821 16.7256 24.48Z" fill="#114A86" stroke="#0F4A7F" stroke-width="0.25" stroke-miterlimit="10"/>
<path d="M8.97916 22.3076C9.02728 21.3091 12.5711 20.6643 16.8969 20.864C21.2226 21.0637 24.6895 22.0405 24.6438 23.0293C24.6438 23.0293 24.6438 23.0486 24.6438 23.0582L27.1868 23.1809C27.1891 23.1561 27.1891 23.1311 27.1868 23.1063C27.2445 21.8817 23.003 20.7004 17.7125 20.443C12.422 20.1856 8.08899 20.9964 8.03125 22.2185C8.03125 22.233 8.03125 22.2474 8.03125 22.2618L8.97916 22.3076Z" fill="white" stroke="#0F4A7F" stroke-width="0.25" stroke-miterlimit="10"/>
<path opacity="0.6" d="M9.42172 22.3101C9.453 21.6389 12.5878 21.2419 16.4204 21.4223C20.253 21.6028 23.3397 22.2885 23.3084 22.9573C23.3095 22.9717 23.3095 22.9862 23.3084 23.0006L24.6461 23.0656C24.6461 23.0656 24.6461 23.0463 24.6461 23.0367C24.6918 22.0382 21.2249 21.0639 16.8992 20.8714C12.5734 20.6789 9.02956 21.3165 8.98145 22.3149L9.42653 22.3366C9.42653 22.3366 9.42172 22.3173 9.42172 22.3101Z" fill="#114A86" stroke="#0F4A7F" stroke-width="0.25" stroke-miterlimit="10"/>
<path d="M9.42172 22.3101C9.453 21.6389 12.5878 21.2419 16.4204 21.4223C20.253 21.6028 23.3397 22.2885 23.3084 22.9573C23.3095 22.9717 23.3095 22.9862 23.3084 23.0006L24.6461 23.0656C24.6461 23.0656 24.6461 23.0463 24.6461 23.0367C24.6918 22.0382 21.2249 21.0639 16.8992 20.8714C12.5734 20.6789 9.02956 21.3165 8.98145 22.3149L9.42653 22.3366C9.42653 22.3366 9.42172 22.3173 9.42172 22.3101Z" fill="#114A86" stroke="#0F4A7F" stroke-width="0.25" stroke-miterlimit="10"/>
<path opacity="0.6" d="M16.7258 24.4801C21.0083 24.6822 24.5256 24.0495 24.6363 23.0655L23.2987 23.0005C23.1351 23.6429 20.0579 24.0206 16.3072 23.845C12.5155 23.6669 9.45768 22.9933 9.424 22.3293L8.97892 22.3076C8.93561 23.3061 12.4025 24.2804 16.7258 24.4801Z" fill="#114A86" stroke="#0F4A7F" stroke-width="0.25" stroke-miterlimit="10"/>
<path d="M16.7258 24.4801C21.0083 24.6822 24.5256 24.0495 24.6363 23.0655L23.2987 23.0005C23.1351 23.6429 20.0579 24.0206 16.3072 23.845C12.5155 23.6669 9.45768 22.9933 9.424 22.3293L8.97892 22.3076C8.93561 23.3061 12.4025 24.2804 16.7258 24.4801Z" fill="white" stroke="#0F4A7F" stroke-width="0.25" stroke-miterlimit="10"/>
</g>
<defs>
<clipPath id="clip0_9_326524">
<rect width="25.6321" height="20" fill="white" transform="translate(8 11)"/>
</clipPath>
</defs>
</svg>
