<svg width="42" height="42" viewBox="0 0 42 42" fill="none" xmlns="http://www.w3.org/2000/svg">
<circle cx="21" cy="21" r="21" fill="white"/>
<circle cx="21" cy="21" r="20.5" stroke="black" stroke-opacity="0.05"/>
<g clip-path="url(#clip0_9_326182)">
<path d="M21 33.0013C17.8183 32.9976 14.768 31.7319 12.5183 29.482C10.2687 27.2321 9.00336 24.1817 9 21C9.00369 17.8185 10.2692 14.7684 12.5188 12.5188C14.7684 10.2692 17.8185 9.00369 21 9C24.1815 9.00369 27.2316 10.2692 29.4812 12.5188C31.7308 14.7684 32.9963 17.8185 33 21C32.9966 24.1817 31.7313 27.2321 29.4817 29.482C27.232 31.7319 24.1817 32.9976 21 33.0013ZM21 10.5217C18.2219 10.5247 15.5585 11.6297 13.5941 13.5941C11.6297 15.5585 10.5247 18.2219 10.5217 21C10.5244 23.7783 11.6292 26.4421 13.5936 28.4067C15.5581 30.3714 18.2217 31.4765 21 31.4795C23.7782 31.4762 26.4416 30.371 28.406 28.4064C30.3704 26.4418 31.4753 23.7782 31.4783 21C31.4749 18.222 30.3699 15.5588 28.4056 13.5944C26.4412 11.6301 23.778 10.5251 21 10.5217Z" fill="url(#paint0_linear_9_326182)"/>
<path d="M10.5101 21.3754C10.4773 19.9645 10.7226 18.561 11.2322 17.245C11.7418 15.929 12.5056 14.7262 13.48 13.7054C14.4544 12.6846 15.6204 11.8657 16.9113 11.2955C18.2022 10.7253 19.5928 10.415 21.0036 10.3822L20.9884 9.70886C17.9617 9.78268 15.0878 11.054 12.9972 13.244C10.9067 15.4339 9.77005 18.3637 9.83676 21.3906L10.5101 21.3754Z" fill="#485157"/>
<path d="M30.5577 26.6633C30.5577 26.6227 30.5577 26.5872 30.5463 26.553C30.5469 26.5496 30.5469 26.5462 30.5463 26.5429V26.5175C30.5458 26.509 30.5458 26.5006 30.5463 26.4921C30.5463 26.4744 30.5425 26.4579 30.5349 26.4427C30.5349 26.4427 30.5349 26.4427 30.5349 26.4351C30.5349 26.4275 30.5248 26.4008 30.5197 26.3856V26.3729C30.5171 26.3634 30.5137 26.354 30.5096 26.345V26.3349V26.326C30.4931 26.2854 30.4893 26.2727 30.4893 26.2727L23.0075 20.3761L22.8946 20.2861C22.8631 20.2608 22.8422 20.2246 22.8363 20.1846L22.8452 20.248L22.8325 20.158L22.8135 20.0223L22.8046 19.9614L21.4731 10.6422L21.4351 10.5915C21.3306 10.4622 21.2012 10.3553 21.0546 10.277H21.0407L21.0102 10.2922L20.9925 10.3036L20.9785 10.3125H20.9722L20.9367 10.3353L20.9177 10.3493L20.8986 10.3619L20.8784 10.3772L20.8593 10.3911L20.834 10.4114L20.8213 10.4215C20.8152 10.4255 20.8097 10.4302 20.8048 10.4355L20.782 10.4545C20.777 10.4588 20.7724 10.4635 20.768 10.4685L20.7439 10.49C20.7319 10.5016 20.7204 10.5139 20.7097 10.5268L20.678 10.5636L20.6209 10.6371L19.2514 20.1757C19.2452 20.2159 19.2238 20.2522 19.1918 20.2772L11.6136 26.2372C11.5997 26.2649 11.5882 26.2938 11.5794 26.3235C11.5794 26.3311 11.5794 26.3387 11.5705 26.3476C11.5617 26.3564 11.5705 26.3577 11.5705 26.3641C11.5668 26.3722 11.5638 26.3807 11.5617 26.3894V26.411L11.554 26.4401C11.554 26.449 11.554 26.4566 11.554 26.4668C11.5512 26.4772 11.5491 26.4878 11.5477 26.4985C11.5477 26.5086 11.5477 26.5188 11.5477 26.5289C11.5477 26.5391 11.5477 26.5365 11.5477 26.5403C11.547 26.5441 11.547 26.548 11.5477 26.5517C11.5477 26.5822 11.5401 26.6151 11.5376 26.6494C11.5381 26.6536 11.5381 26.6578 11.5376 26.6621C11.5376 26.6912 11.5376 26.7217 11.5376 26.7546C11.537 26.7626 11.537 26.7707 11.5376 26.7787V26.7952C11.7011 26.9009 11.8868 26.9673 12.0803 26.9892L21.0838 23.3751L21.0318 23.3967C21.0677 23.3828 21.1075 23.3828 21.1434 23.3967L30.001 26.955L30.0733 26.9842L30.0923 26.9918H30.1443L30.1913 26.9842H30.2039C30.209 26.9847 30.2141 26.9847 30.2192 26.9842H30.2293L30.2711 26.974L30.2889 26.9677C30.3165 26.9605 30.3436 26.9516 30.3701 26.941L30.3929 26.9334L30.4829 26.8954L30.5096 26.8827L30.5438 26.865C30.5704 26.851 30.5958 26.8371 30.6199 26.8218L30.6338 26.813C30.6338 26.7977 30.6338 26.7825 30.6338 26.7673C30.6338 26.7521 30.5577 26.6925 30.5577 26.6633Z" fill="#E8E9EA"/>
<path d="M30.011 27.0577C30.0026 27.0596 29.994 27.0596 29.9856 27.0577L29.8918 27.0209L21.0341 23.4575C21.0237 23.4529 21.0125 23.4505 21.0012 23.4505C20.9898 23.4505 20.9786 23.4529 20.9682 23.4575L12.0294 27.0488C12.0202 27.0507 12.0107 27.0507 12.0015 27.0488C11.7975 27.0271 11.6016 26.9576 11.4296 26.8459C11.4206 26.8402 11.4133 26.8323 11.4082 26.823C11.4031 26.8137 11.4004 26.8032 11.4004 26.7926V26.7533C11.4004 26.7204 11.4004 26.6874 11.4004 26.6569V26.643C11.4016 26.6086 11.405 26.5743 11.4105 26.5403C11.4105 26.5403 11.4105 26.52 11.4105 26.5187L11.4663 26.307C11.4663 26.307 11.4663 26.2993 11.4663 26.2943C11.4766 26.2605 11.4902 26.2278 11.5069 26.1966C11.5109 26.1891 11.5166 26.1826 11.5234 26.1776L19.1015 20.2176C19.1213 20.202 19.1341 20.1791 19.1371 20.1541L20.5066 10.6244C20.5078 10.6136 20.5122 10.6035 20.5193 10.5952L20.5763 10.523C20.5786 10.5194 20.5816 10.5164 20.5852 10.5141C20.5928 10.5052 20.6004 10.4951 20.6106 10.4849C20.624 10.4689 20.6384 10.4536 20.6537 10.4393L20.6702 10.424L20.7222 10.4621L20.6829 10.4114L20.7336 10.3682L20.745 10.3581L20.7881 10.405L20.7589 10.348L20.816 10.3048L20.8287 10.296L20.8718 10.3429L20.8439 10.2858L20.8566 10.2769L20.8934 10.2528L20.9352 10.2288C20.9486 10.2205 20.9626 10.2133 20.9771 10.2072C20.9859 10.2028 20.9957 10.2006 21.0056 10.2006C21.0155 10.2006 21.0252 10.2028 21.0341 10.2072L21.0481 10.2135H21.057C21.206 10.2931 21.3382 10.4008 21.4463 10.5306L21.4551 10.5394L21.4932 10.5914C21.4995 10.5995 21.5035 10.6091 21.5046 10.6193L22.8678 20.1567C22.8708 20.183 22.884 20.2072 22.9046 20.2239L23.0162 20.3114L30.4979 26.208C30.5083 26.2156 30.5158 26.2262 30.5195 26.2385L30.5385 26.2867C30.5391 26.2921 30.5391 26.2977 30.5385 26.3031L30.5512 26.3399V26.3526C30.5512 26.3678 30.5613 26.3856 30.5664 26.4046C30.5715 26.4236 30.5766 26.4477 30.5804 26.4655V26.4858L30.522 26.5124L30.5842 26.501V26.52C30.5907 26.562 30.595 26.6043 30.5968 26.6468C30.5968 26.6772 30.5968 26.7102 30.5968 26.7444C30.5968 26.7597 30.5968 26.7761 30.5968 26.7914C30.5964 26.8017 30.5934 26.8117 30.588 26.8206C30.5827 26.8294 30.5753 26.8368 30.5664 26.8421L30.5512 26.851L30.4764 26.8915L30.4396 26.9118L30.4218 26.9194C30.38 26.9397 30.3496 26.9524 30.3191 26.9638L30.295 26.9727C30.2646 26.9841 30.2354 26.993 30.2088 27.0006H30.191L30.1467 27.012L30.1162 26.955L30.1302 27.0158L30.101 26.9588L30.1162 27.0196L30.0566 27.0298L30.0008 27.0361L30.011 27.0577ZM30.0972 26.9194L30.1302 26.9765L30.115 26.9156H30.1327L30.172 26.9068L30.2063 26.9613L30.1885 26.9017L30.2671 26.8763L30.2887 26.8675C30.3153 26.8573 30.3445 26.8459 30.3737 26.8319L30.4269 26.8053L30.4916 26.7698V26.7597C30.4916 26.7292 30.4916 26.6988 30.4916 26.6709C30.4903 26.6365 30.487 26.6022 30.4814 26.5682V26.5441V26.5276V26.5111C30.4791 26.4953 30.4757 26.4796 30.4713 26.4642C30.465 26.4401 30.4612 26.4249 30.4561 26.4109L30.4434 26.3729L30.4916 26.3374L30.4371 26.3589V26.3437C30.4342 26.3343 30.4308 26.325 30.4269 26.3158L22.8221 20.3317L22.7942 20.3051C22.7827 20.3014 22.7725 20.2946 22.7646 20.2854C22.7568 20.2762 22.7517 20.265 22.7499 20.2531L21.3803 10.6637L21.3575 10.6345C21.2606 10.5156 21.1412 10.417 21.0062 10.3442L20.9872 10.3556L20.9682 10.367L20.9289 10.3911L20.9098 10.405L20.882 10.424L20.8718 10.4316L20.8541 10.4443L20.8401 10.4557L20.83 10.4646L20.7856 10.419L20.8173 10.4735L20.7805 10.5052L20.7678 10.5179L20.7437 10.5394L20.712 10.5724C20.6995 10.5857 20.6876 10.5997 20.6765 10.6143L20.6372 10.6637L19.2702 20.1858C19.2702 20.1858 19.2702 20.1859 19.2702 20.1947C19.2592 20.2444 19.232 20.289 19.1928 20.3215L11.621 26.274C11.6135 26.2891 11.6071 26.3048 11.602 26.3209C11.6032 26.3285 11.6032 26.3362 11.602 26.3437L11.5919 26.3716H11.5678H11.5576L11.583 26.3805L11.545 26.5352H11.4803L11.5424 26.5492C11.5424 26.5796 11.5348 26.61 11.5335 26.643C11.5323 26.676 11.5335 26.7115 11.5335 26.7419V26.7495C11.6775 26.8368 11.8382 26.893 12.0053 26.9144L20.9885 23.3066C20.998 23.3029 21.0083 23.3015 21.0184 23.3027C21.0286 23.3038 21.0383 23.3073 21.0468 23.313C21.0619 23.3147 21.0768 23.3181 21.0912 23.3231L30.0338 26.9144H30.0668L30.0972 26.9194Z" fill="#9AA1A5"/>
<path d="M20.8694 21.5642L11.4551 26.9131L12.0409 27.0893L20.9988 23.3814L20.9278 21.5972C20.9275 21.5905 20.9256 21.584 20.9221 21.5782C20.9186 21.5725 20.9137 21.5677 20.9078 21.5644C20.902 21.5611 20.8954 21.5594 20.8886 21.5593C20.8819 21.5593 20.8753 21.561 20.8694 21.5642Z" fill="#26313A"/>
<path d="M21.0201 10.2744L21.4043 10.5876L22.8639 20.2822L21.0049 21.4134L21.0201 10.2744Z" fill="#7F8589"/>
<path d="M21.1343 21.5643L30.5576 26.9131L29.973 27.0894L21.0088 23.3815L21.0798 21.5972C21.0803 21.591 21.0823 21.5851 21.0856 21.5798C21.0888 21.5745 21.0933 21.57 21.0986 21.5668C21.104 21.5636 21.11 21.5617 21.1162 21.5613C21.1224 21.5608 21.1286 21.5618 21.1343 21.5643Z" fill="#485259"/>
<path fill-rule="evenodd" clip-rule="evenodd" d="M21.2383 21.4248C21.1888 21.397 21.1875 21.3665 21.2383 21.3348L22.1069 20.7807C22.1069 20.7807 22.8158 20.3406 22.798 20.3241C22.7803 20.3077 22.1221 20.6817 22.1221 20.6817L21.1622 21.2042C21.1127 21.2308 21.0873 21.2156 21.0848 21.1611L21.0189 10.3708H21.0049L20.991 10.3785L20.9263 21.1725C20.9263 21.227 20.8997 21.2422 20.8502 21.2156L19.9385 20.7363C19.742 20.6226 19.5396 20.5193 19.3323 20.4269C19.3184 20.4421 19.5631 20.593 19.5631 20.593L20.7767 21.3538C20.821 21.383 20.821 21.4122 20.7767 21.4401L11.46 26.8929V26.9094L11.4752 26.9182L20.8591 21.5758C20.9073 21.5491 20.9339 21.5618 20.9364 21.6201L20.9846 23.2687V23.3866L20.9948 23.4563L21.0049 23.4665L21.0125 23.4551L21.0227 23.3866V23.2687L21.0772 21.6201C21.0772 21.5618 21.1051 21.5479 21.1558 21.577L30.5397 26.9182L30.5537 26.9094V26.8929L21.2383 21.4248Z" fill="white"/>
<path fill-rule="evenodd" clip-rule="evenodd" d="M19.7789 20.5815C19.7789 20.5815 19.6419 20.5118 19.7142 19.9475C19.7941 19.3248 20.6792 10.575 20.6792 10.575L20.5524 10.7018C20.5524 10.7018 19.3592 19.9234 19.3516 20.0299C19.3389 20.1922 19.297 20.2835 19.4708 20.404C19.5698 20.4693 19.6727 20.5286 19.7789 20.5815Z" fill="#CBCFD1"/>
<path fill-rule="evenodd" clip-rule="evenodd" d="M21.1611 21.2042C21.1611 21.2042 22.3684 20.5118 22.2948 19.9437C22.2149 19.321 21.3298 10.5712 21.3298 10.5712L21.4566 10.698C21.4566 10.698 22.6511 19.9196 22.6588 20.0261C22.6714 20.1884 22.712 20.2797 22.5319 20.4002C22.433 20.4813 21.1611 21.2042 21.1611 21.2042Z" fill="#485259"/>
<path fill-rule="evenodd" clip-rule="evenodd" d="M21.1734 22.8121C21.1734 22.8121 21.1734 22.9542 21.692 23.1748C22.2614 23.417 30.1591 27.0057 30.1591 27.0057L29.9904 27.0463C29.9904 27.0463 21.5487 23.4677 21.4536 23.4221C21.309 23.3523 21.2165 23.3422 21.1873 23.1456C21.1759 23.0349 21.1712 22.9235 21.1734 22.8121Z" fill="#26313A"/>
<path fill-rule="evenodd" clip-rule="evenodd" d="M22.3848 20.7236C22.3848 20.7236 22.5116 20.6399 22.9579 20.9886C23.4462 21.369 30.4245 26.515 30.4245 26.515L30.3827 26.3374C30.3827 26.3374 23.1545 20.6893 23.0746 20.631C22.9478 20.5384 22.8895 20.4598 22.6942 20.5473C22.5877 20.6 22.4844 20.6588 22.3848 20.7236Z" fill="#CBCFD1"/>
<path fill-rule="evenodd" clip-rule="evenodd" d="M19.7087 20.7236C19.7087 20.7236 19.5819 20.6399 19.1355 20.9886C18.6473 21.369 11.6689 26.515 11.6689 26.515L11.7108 26.3374C11.7108 26.3374 18.9389 20.6893 19.0188 20.631C19.1456 20.5384 19.204 20.4598 19.3993 20.5473C19.5058 20.6 19.6091 20.6588 19.7087 20.7236Z" fill="#CBCFD1"/>
<path d="M32.2851 21C32.2854 23.9941 31.0967 26.8657 28.9803 28.9835C26.8639 31.1013 23.9931 32.292 20.999 32.2937V33.0013C24.1808 32.9976 27.2312 31.732 29.4811 29.4821C31.731 27.2322 32.9966 24.1818 33.0003 21H32.2851Z" fill="#8C9398"/>
<path d="M19.3122 32.1555C16.6549 31.7353 14.2349 30.3804 12.4879 28.3346C10.7408 26.2888 9.78142 23.6865 9.78241 20.9962L9.9701 18.5653C9.9701 18.5653 9.57825 20.2012 9.49329 20.5245C9.40833 20.8479 9 20.9962 9 20.9962C9.30561 23.9306 11.0492 30.9698 19.3122 32.1555Z" fill="#333C3F"/>
<path d="M22.126 9.87878C27.5255 10.7246 31.8003 15.2187 31.4782 21.038C31.594 21.0318 31.7078 21.0693 31.7973 21.143C31.8868 21.2168 31.9453 21.3214 31.9613 21.4362C32.1262 22.2313 31.9968 23.5831 31.9968 23.5831L32.2923 21.038C32.0146 17.4404 30.3876 11.0645 22.126 9.87878Z" fill="#333C3F"/>
<path d="M13.0989 13.0998C12.0601 14.1363 11.2363 15.3678 10.6749 16.7235C10.1134 18.0793 9.82535 19.5326 9.82721 21.0001C9.82525 22.4677 10.1133 23.9212 10.6747 25.2772C11.2362 26.6332 12.06 27.8649 13.0989 28.9016C14.1356 29.9404 15.3673 30.7643 16.7232 31.3257C18.0792 31.8872 19.5328 32.1752 21.0004 32.1732C22.4678 32.1751 23.9212 31.887 25.2769 31.3256C26.6327 30.7641 27.8642 29.9403 28.9007 28.9016C29.9397 27.865 30.7637 26.6333 31.3254 25.2773C31.8871 23.9213 32.1753 22.4678 32.1736 21.0001C32.1752 19.5325 31.8869 18.0792 31.3253 16.7234C30.7636 15.3677 29.9396 14.1362 28.9007 13.0998C27.8642 12.061 26.6327 11.2372 25.2769 10.6758C23.9212 10.1143 22.4678 9.82626 21.0004 9.82812C19.5328 9.82616 18.0792 10.1142 16.7232 10.6756C15.3673 11.2371 14.1356 12.0609 13.0989 13.0998ZM9.70801 21.0001C9.70801 18.0068 10.8971 15.1361 13.0136 13.0196C15.1302 10.9031 18.0008 9.71399 20.9941 9.71399C23.989 9.71399 26.8613 10.9037 28.979 13.0215C31.0967 15.1392 32.2865 18.0115 32.2865 21.0064C32.2865 24.0014 31.0968 26.8738 28.9791 28.9918C26.8614 31.1097 23.9891 32.2997 20.9941 32.3001C19.511 32.2992 18.0427 32.0063 16.6728 31.4379C15.303 30.8696 14.0586 30.037 13.0105 28.9877C11.9625 27.9383 11.1315 26.6929 10.5648 25.3223C9.99815 23.9518 9.70701 22.4831 9.70801 21.0001Z" fill="white"/>
</g>
<defs>
<linearGradient id="paint0_linear_9_326182" x1="12.9412" y1="11.0974" x2="27.7412" y2="29.2857" gradientUnits="userSpaceOnUse">
<stop stop-color="#485157"/>
<stop offset="1" stop-color="#F4F5F3"/>
</linearGradient>
<clipPath id="clip0_9_326182">
<rect width="24" height="24" fill="white" transform="translate(9 9)"/>
</clipPath>
</defs>
</svg>
