<svg width="42" height="42" viewBox="0 0 42 42" fill="none" xmlns="http://www.w3.org/2000/svg">
<circle cx="21" cy="21" r="21" fill="white"/>
<circle cx="21" cy="21" r="20.5" stroke="black" stroke-opacity="0.05"/>
<g clip-path="url(#clip0_9_326609)">
<path d="M20.9995 12.2286C23.0289 12.2284 24.9956 12.9318 26.5645 14.2191C28.1333 15.5064 29.2073 17.2978 29.6034 19.2882C29.9995 21.2786 29.6932 23.3447 28.7367 25.1345C27.7802 26.9244 26.2327 28.3272 24.3578 29.1039C22.4829 29.8807 20.3968 29.9833 18.4547 29.3943C16.5127 28.8053 14.8349 27.5612 13.7074 25.8739C12.5798 24.1865 12.0722 22.1605 12.271 20.1408C12.4699 18.1212 13.3628 16.233 14.7978 14.7979C15.6103 13.9809 16.5768 13.3331 17.6413 12.8921C18.7058 12.4511 19.8473 12.2255 20.9995 12.2286ZM20.9995 11.7083C19.1618 11.708 17.3653 12.2528 15.8372 13.2736C14.3091 14.2945 13.118 15.7455 12.4146 17.4433C11.7112 19.1411 11.527 21.0093 11.8854 22.8117C12.2438 24.6142 13.1287 26.2698 14.4281 27.5694C15.7275 28.8689 17.383 29.7539 19.1854 30.1125C20.9878 30.4711 22.8561 30.2872 24.5539 29.584C26.2518 28.8808 27.703 27.6899 28.724 26.1619C29.745 24.6339 30.2899 22.8374 30.2899 20.9997C30.29 19.7796 30.0497 18.5714 29.5829 17.4442C29.116 16.3169 28.4317 15.2927 27.569 14.4299C26.7064 13.5671 25.6822 12.8827 24.555 12.4157C23.4278 11.9487 22.2196 11.7083 20.9995 11.7083Z" fill="url(#paint0_linear_9_326609)"/>
<path d="M11.8859 19.3461C11.768 19.946 11.7088 20.5559 11.709 21.1672C11.7087 21.7632 11.7653 22.3579 11.8781 22.9431H30.1228C30.2352 22.3571 30.2913 21.7618 30.2903 21.1651C30.2908 20.5538 30.2315 19.9438 30.1134 19.344H11.8859V19.3461Z" fill="url(#paint1_linear_9_326609)"/>
<path d="M27.5701 27.5695C29.0896 26.0496 30.0351 24.0498 30.2455 21.911C30.4559 19.7721 29.9182 17.6264 28.724 15.8395C27.5298 14.0526 25.753 12.7351 23.6963 12.1114C21.6396 11.4876 19.4303 11.5963 17.4447 12.4189C15.4592 13.2414 13.8203 14.727 12.8072 16.6224C11.7941 18.5179 11.4696 20.706 11.8889 22.8139C12.3082 24.9218 13.4454 26.8191 15.1067 28.1825C16.768 29.546 18.8507 30.2912 20.9999 30.2913C22.2207 30.2947 23.4299 30.0559 24.5577 29.5887C25.6855 29.1215 26.7094 28.4352 27.5701 27.5695ZM20.9999 30.3792C18.8302 30.3796 16.7275 29.6276 15.0501 28.2514C13.3727 26.8753 12.2243 24.9601 11.8007 22.8321C11.377 20.7042 11.7043 18.4952 12.7267 16.5815C13.7492 14.6678 15.4035 13.1678 17.4079 12.3371C19.4123 11.5064 21.6427 11.3964 23.7191 12.0258C25.7955 12.6553 27.5894 13.9852 28.7952 15.7889C30.001 17.5927 30.5441 19.7588 30.3319 21.9181C30.1197 24.0774 29.1653 26.0963 27.6315 27.6309C26.7626 28.5044 25.7291 29.197 24.5908 29.6685C23.4525 30.14 22.232 30.381 20.9999 30.3777" fill="url(#paint2_radial_9_326609)"/>
<path d="M12.7368 20.1194L12.5938 20.2625C12.5979 20.2669 12.6029 20.2704 12.6084 20.2728C12.614 20.2753 12.62 20.2765 12.626 20.2765H13.0849L13.1781 20.1204L12.7368 20.1194Z" fill="#9196C4"/>
<path d="M27.6937 20.2417H27.7031C28.0548 20.2495 28.2063 20.6433 28.2005 21.031C28.1932 21.4925 27.9924 21.7844 27.6802 21.7834H27.6724C27.3737 21.7782 27.1708 21.4603 27.1791 21.0133C27.1854 20.6569 27.3238 20.2417 27.6932 20.2417M27.6906 22.1669C28.6371 22.1669 29.2479 21.7152 29.2479 21.0164C29.2479 20.2973 28.649 19.8618 27.687 19.8618C26.7249 19.8618 26.1416 20.2973 26.1416 21.0164C26.1416 21.7152 26.7431 22.1669 27.6927 22.1669" fill="#9196C4"/>
<path d="M26.5989 21.8886C26.4658 21.7949 26.3577 21.67 26.2839 21.5249C26.2102 21.3798 26.1731 21.2188 26.1758 21.0561C26.1758 20.3427 26.769 19.8994 27.7238 19.8994C28.3617 19.8994 28.8389 20.0966 29.0865 20.4384C28.8467 20.0674 28.3539 19.8525 27.6864 19.8525C26.7253 19.8525 26.129 20.2995 26.129 21.0186C26.1264 21.1912 26.1681 21.3616 26.2501 21.5135C26.3321 21.6655 26.4516 21.7939 26.5973 21.8865" fill="black"/>
<path d="M28.1988 21.031C28.1916 21.4727 27.9782 21.7818 27.6785 21.7818H27.6707C27.3767 21.7766 27.1754 21.4696 27.178 21.031C27.178 21.0357 27.178 21.0409 27.178 21.0461C27.1696 21.5066 27.3809 21.8318 27.6915 21.837H27.6999C28.0121 21.837 28.2321 21.519 28.24 21.0643C28.2457 20.7115 28.1244 20.3551 27.844 20.2703C28.0937 20.3665 28.203 20.7011 28.1973 21.031" fill="black"/>
<path d="M26.1946 20.0792H25.0353L24.8532 20.2613C24.8619 20.2699 24.8737 20.2748 24.8859 20.2748H25.2549L24.5732 21.5356L23.8807 20.2754H24.3427C24.3488 20.2754 24.3548 20.2742 24.3604 20.2718C24.366 20.2695 24.371 20.2661 24.3753 20.2618C24.3795 20.2575 24.3829 20.2523 24.3852 20.2467C24.3875 20.2411 24.3886 20.2351 24.3885 20.2291V19.9444C24.3886 19.9385 24.3875 19.9325 24.3852 19.927C24.383 19.9215 24.3797 19.9164 24.3755 19.9122L24.1674 20.1203H23.1621L24.0685 21.7047L23.6861 22.0871C23.6993 22.0985 23.716 22.1051 23.7334 22.1059H24.8126H24.835C24.8487 22.1052 24.8621 22.1012 24.8739 22.0941C24.8857 22.087 24.8956 22.0771 24.9026 22.0653L25.8709 20.2754H26.3304C26.3426 20.2752 26.3543 20.2703 26.363 20.2616C26.3716 20.253 26.3765 20.2413 26.3767 20.2291V19.9439C26.3765 19.9317 26.3716 19.92 26.3632 19.9111L26.1946 20.0792Z" fill="#9196C4"/>
<path d="M22.3345 20.1194L22.1914 20.2625C22.1956 20.267 22.2007 20.2705 22.2063 20.2729C22.212 20.2754 22.218 20.2766 22.2242 20.2765H22.6826L22.7752 20.1204L22.3345 20.1194Z" fill="#9196C4"/>
<path d="M25.2529 20.2754L25.3289 20.2291L25.5719 20.0803H25.691L24.7024 21.877L24.5713 21.6325V21.5362L25.2529 20.2754Z" fill="black"/>
<path d="M26.1944 20.0793L26.363 19.9113C26.3542 19.9026 26.3425 19.8976 26.3302 19.8972H24.8847C24.8723 19.8974 24.8605 19.9023 24.8518 19.9111C24.843 19.9198 24.838 19.9317 24.8379 19.944V20.2287C24.8379 20.2348 24.8391 20.2409 24.8415 20.2465C24.844 20.2521 24.8475 20.2572 24.8519 20.2614L25.0341 20.0793H26.1944Z" fill="black"/>
<path d="M23.1616 20.1194H24.1674L24.3755 19.9113C24.3669 19.9024 24.3552 19.8972 24.3427 19.8967H22.225C22.2127 19.8969 22.2009 19.9019 22.1922 19.9106C22.1836 19.9194 22.1787 19.9312 22.1787 19.9436V20.2287C22.1786 20.2347 22.1798 20.2407 22.1821 20.2462C22.1844 20.2518 22.1879 20.2568 22.1922 20.261L22.3343 20.1194H22.775L22.6824 20.2755L23.6653 22.0634C23.6709 22.072 23.6781 22.0794 23.6866 22.0852L23.7152 22.0576L24.0691 21.7028L23.1616 20.1194Z" fill="black"/>
<path d="M22.7599 21.0701L22.5923 21.2376V21.8532H21.1443L21.2764 21.721V20.2755H21.727C21.7333 20.2765 21.7397 20.276 21.7457 20.274C21.7517 20.2721 21.7572 20.2687 21.7617 20.2643C21.7662 20.2598 21.7696 20.2544 21.7716 20.2484C21.7736 20.2424 21.7742 20.236 21.7733 20.2298V19.9451C21.7732 19.9329 21.7684 19.9211 21.7598 19.9124L21.5912 20.0804H20.7462V21.9088H19.9267L19.7451 22.0899C19.754 22.0983 19.7657 22.103 19.7779 22.1029H22.7276C22.7397 22.1028 22.7513 22.0979 22.7598 22.0894C22.7684 22.0808 22.7733 22.0692 22.7734 22.0571V21.1029C22.7735 21.0968 22.7723 21.0907 22.77 21.0851C22.7677 21.0795 22.7642 21.0743 22.7599 21.0701Z" fill="#9196C4"/>
<path d="M19.9272 20.0793L19.7461 20.2609C19.7503 20.2653 19.7553 20.2688 19.7608 20.2712C19.7663 20.2736 19.7723 20.2749 19.7784 20.275H20.2342L20.4293 20.0793H19.9272Z" fill="#9196C4"/>
<path d="M22.5921 21.853V21.2375L22.7596 21.0699C22.7555 21.0655 22.7505 21.062 22.7449 21.0597C22.7394 21.0574 22.7334 21.0563 22.7274 21.0564H22.4438C22.438 21.0565 22.4322 21.0577 22.4269 21.06C22.4216 21.0623 22.4167 21.0656 22.4127 21.0697C22.4086 21.0739 22.4054 21.0788 22.4032 21.0842C22.4011 21.0896 22.4 21.0953 22.4001 21.1012C22.4001 21.5205 22.0624 21.7209 21.7445 21.7209H21.2762L21.1445 21.853H22.5921Z" fill="black"/>
<path d="M20.7454 21.9077V20.0793H21.591L21.7596 19.9112C21.7508 19.9027 21.739 19.8979 21.7268 19.8977H19.7792C19.7671 19.8977 19.7554 19.9025 19.7468 19.9111C19.7382 19.9197 19.7334 19.9314 19.7334 19.9435V20.2281C19.7333 20.2342 19.7344 20.2402 19.7366 20.2458C19.7389 20.2514 19.7422 20.2566 19.7464 20.2609L19.928 20.0793H20.4301L20.2334 20.2755V21.7225H19.7792C19.767 21.7226 19.7554 21.7276 19.7468 21.7362C19.7382 21.7449 19.7334 21.7566 19.7334 21.7688V22.0571C19.7335 22.0691 19.7381 22.0806 19.7464 22.0893L19.928 21.9088L20.7454 21.9077Z" fill="black"/>
<path d="M18.0974 20.2417H18.1068C18.4591 20.2495 18.61 20.6433 18.6048 21.031C18.5975 21.4925 18.3966 21.7844 18.0844 21.7834H18.0766C17.778 21.7782 17.575 21.4603 17.5828 21.0133C17.5896 20.6569 17.728 20.2417 18.0969 20.2417M18.0969 22.1669C19.0429 22.1669 19.6537 21.7152 19.6537 21.0164C19.6537 20.2973 19.0554 19.8618 18.0928 19.8618C17.1302 19.8618 16.5469 20.2973 16.5469 21.0164C16.5469 21.7152 17.1489 22.1669 18.0985 22.1669" fill="#9196C4"/>
<path d="M16.5959 20.0792H15.4355L15.2534 20.2613C15.2577 20.2656 15.2628 20.2691 15.2685 20.2714C15.2741 20.2737 15.2801 20.2749 15.2862 20.2748H15.6551L14.9725 21.5356L14.2825 20.2754H14.7435C14.7558 20.2754 14.7676 20.2705 14.7763 20.2618C14.7849 20.2531 14.7898 20.2413 14.7898 20.2291V19.9444C14.7899 19.9385 14.7888 19.9325 14.7865 19.927C14.7843 19.9215 14.781 19.9164 14.7768 19.9122L14.5687 20.1203H13.5645L14.4719 21.7026L14.0889 22.0851C14.1022 22.0964 14.1189 22.103 14.1363 22.1038H15.2154H15.2373C15.2512 22.1031 15.2647 22.0991 15.2767 22.092C15.2886 22.0849 15.2987 22.075 15.306 22.0632L16.2722 20.2754H16.7317C16.7439 20.2752 16.7556 20.2703 16.7643 20.2616C16.7729 20.253 16.7778 20.2413 16.778 20.2291V19.9439C16.7778 19.9317 16.7729 19.92 16.7645 19.9111L16.5959 20.0792Z" fill="#9196C4"/>
<path d="M15.6559 20.2754L15.7308 20.2291L15.9681 20.0803H16.094L15.1054 21.876L14.9717 21.6325V21.5362L15.6559 20.2754Z" fill="black"/>
<path d="M16.5962 20.0793L16.7648 19.9113C16.756 19.9026 16.7443 19.8976 16.732 19.8972H15.2865C15.2742 19.8974 15.2624 19.9023 15.2538 19.9111C15.2451 19.9199 15.2402 19.9317 15.2402 19.944V20.2287C15.2402 20.2348 15.2413 20.2408 15.2437 20.2464C15.246 20.2521 15.2494 20.2572 15.2538 20.2614L15.4359 20.0793H16.5962Z" fill="black"/>
<path d="M13.5645 20.1194H14.5703L14.7784 19.9113C14.7698 19.9024 14.758 19.8972 14.7456 19.8967H12.6279C12.6155 19.8969 12.6037 19.9018 12.5949 19.9106C12.5862 19.9193 12.5812 19.9312 12.5811 19.9436V20.2287C12.581 20.2347 12.5821 20.2407 12.5845 20.2462C12.5868 20.2518 12.5902 20.2568 12.5946 20.261L12.7382 20.1179H13.1789L13.0858 20.274L14.0687 22.0618C14.0742 22.0703 14.0813 22.0777 14.0895 22.0837L14.4724 21.7012L13.5645 20.1194Z" fill="black"/>
<path d="M18.6036 21.031C18.5964 21.4727 18.383 21.7818 18.0833 21.7818H18.0755C17.781 21.7766 17.5796 21.4696 17.5822 21.031C17.5822 21.0357 17.5822 21.0409 17.5822 21.0461C17.5744 21.5066 17.7857 21.8318 18.0963 21.837H18.1046C18.4168 21.837 18.6364 21.519 18.6447 21.0643C18.6505 20.7115 18.5292 20.3551 18.2488 20.2703C18.4985 20.3665 18.6078 20.7011 18.6021 21.031" fill="black"/>
<path d="M17.0022 21.8886C16.8692 21.7948 16.7612 21.6699 16.6876 21.5248C16.6139 21.3797 16.5769 21.2187 16.5797 21.0561C16.5797 20.3427 17.1728 19.8994 18.1271 19.8994C18.7656 19.8994 19.2427 20.0966 19.4899 20.4384C19.2505 20.0674 18.7578 19.8525 18.0897 19.8525C17.1291 19.8525 16.5323 20.2995 16.5323 21.0186C16.5299 21.1912 16.5716 21.3615 16.6536 21.5134C16.7356 21.6653 16.855 21.7938 17.0006 21.8865" fill="black"/>
<path d="M19.7795 21.7677H20.2826V20.2281H19.7795V19.944H21.7286V20.2281H21.2317V21.7667H21.7442C22.1667 21.7667 22.4456 21.481 22.4456 21.1027H22.7287V22.0555H19.7795V21.7677ZM15.1694 22.0586H14.1178L13.112 20.2302H12.625V19.945H14.7427V20.2302H14.2037L14.9727 21.635L15.7303 20.2302H15.2854V19.945H16.7309V20.2302H16.2444L15.2558 22.0596L15.1694 22.0586ZM24.7683 22.0586H23.7168L22.711 20.2302H22.225V19.945H24.3432V20.2302H23.8026L24.5717 21.635L25.3126 20.265L25.3293 20.2317H24.8839V19.9466H26.3293V20.2317H25.8428L24.8542 22.0612L24.7683 22.0586ZM18.0884 21.825C18.4917 21.825 18.6426 21.3853 18.6488 21.008C18.6578 20.8123 18.6128 20.6179 18.5187 20.4461C18.4794 20.3713 18.4208 20.3083 18.349 20.2638C18.2772 20.2192 18.1948 20.1947 18.1103 20.1927H18.1014C17.7773 20.1927 17.5457 20.52 17.5374 20.9883C17.5301 21.3993 17.6935 21.8166 18.0785 21.825H18.0884ZM18.0973 22.1221C17.1607 22.1221 16.58 21.6933 16.58 21.0023C16.58 20.3316 17.1732 19.8982 18.0889 19.8982C19.0047 19.8982 19.6062 20.3316 19.6062 21.0023C19.6062 21.6933 19.0271 22.1221 18.0973 22.1221ZM27.6843 21.825C28.0875 21.825 28.2384 21.3853 28.2446 21.008C28.253 20.534 28.0318 20.1984 27.7056 20.1927H27.6973C27.3731 20.1927 27.141 20.52 27.1332 20.9883C27.1259 21.3993 27.2893 21.8166 27.6744 21.825H27.6843ZM27.6926 22.1221C26.756 22.1221 26.1758 21.6933 26.1758 21.0023C26.1758 20.3316 26.769 19.8982 27.6848 19.8982C28.6005 19.8982 29.2015 20.3316 29.2015 21.0023C29.2015 21.6933 28.6229 22.1221 27.6926 22.1221Z" fill="url(#paint3_radial_9_326609)"/>
<path d="M30.4486 13.7716L31.4227 12.797C31.5805 12.9916 31.7331 13.1904 31.8805 13.3933L32.6834 14.5001V9.38007H27.5072L28.5937 10.147C28.8389 10.3205 29.0782 10.5014 29.3117 10.6897L28.3533 11.6482C25.9752 9.77832 22.974 8.88489 19.9604 9.14968C16.9469 9.41448 14.1475 10.8176 12.1319 13.0735C10.1164 15.3294 9.03614 18.2686 9.11108 21.2928C9.18601 24.317 10.4105 27.199 12.5353 29.3524C14.6601 31.5057 17.5256 32.7684 20.5485 32.8836C23.5715 32.9988 26.5248 31.9579 28.8073 29.9725C31.0899 27.9872 32.5302 25.2067 32.8351 22.197C33.14 19.1872 32.2866 16.1744 30.4486 13.7716ZM20.9995 30.3466C15.8483 30.3466 11.6534 26.1538 11.6534 21C11.6534 15.8461 15.8462 11.6539 20.9995 11.6539C26.1528 11.6539 30.3461 15.8467 30.3461 21C30.3461 26.1533 26.1533 30.3466 20.9995 30.3466Z" fill="url(#paint4_linear_9_326609)"/>
<path d="M20.9994 33.0001C17.8305 32.9792 14.7984 31.7058 12.565 29.4576C10.3316 27.2094 9.07813 24.1691 9.07812 21.0001C9.07812 17.8311 10.3316 14.7908 12.565 12.5426C14.7984 10.2945 17.8305 9.02098 20.9994 9.00012C23.66 8.98839 26.2473 9.87213 28.3448 11.5091L29.156 10.6979C28.9515 10.5356 28.7397 10.3795 28.5316 10.2296L27.1788 9.27329H32.7873V14.8205L31.7987 13.4536C31.6796 13.2892 31.5516 13.1211 31.4168 12.952L30.589 13.7798C31.9309 15.562 32.7495 17.683 32.9529 19.9046C33.1563 22.1262 32.7365 24.3605 31.7405 26.3568C30.7445 28.353 29.2118 30.0321 27.3145 31.2056C25.4171 32.3791 23.2303 33.0005 20.9994 33.0001ZM20.9994 9.20825C18.3391 9.20893 15.7572 10.1094 13.6736 11.7633C11.5899 13.4172 10.1268 15.7272 9.5223 18.3179C8.91777 20.9086 9.20728 23.6276 10.3438 26.0329C11.4803 28.4382 13.3969 30.3883 15.7821 31.5664C18.1674 32.7444 20.8809 33.0811 23.4817 32.5215C26.0825 31.962 28.4176 30.5393 30.1073 28.4846C31.7971 26.4299 32.7422 23.8641 32.789 21.2042C32.8359 18.5443 31.9816 15.9468 30.3652 13.8339L30.3095 13.7616L31.4303 12.6414L31.5032 12.7308C31.6666 12.9333 31.8216 13.1351 31.9642 13.3313L32.5792 14.1789V9.4835H27.8349L28.6534 10.0616C28.8974 10.2338 29.1409 10.4175 29.3771 10.6084L29.4671 10.6808L28.3614 11.787L28.2886 11.7292C26.2157 10.0855 23.6449 9.19636 20.9994 9.20825Z" fill="url(#paint5_radial_9_326609)"/>
</g>
<defs>
<linearGradient id="paint0_linear_9_326609" x1="23.2838" y1="33.1987" x2="20.5219" y2="18.4485" gradientUnits="userSpaceOnUse">
<stop stop-color="white"/>
<stop offset="1" stop-color="#373737"/>
</linearGradient>
<linearGradient id="paint1_linear_9_326609" x1="19.9439" y1="17.116" x2="21.8555" y2="24.1959" gradientUnits="userSpaceOnUse">
<stop stop-color="#133C8B"/>
<stop offset="0.03" stop-color="#133C8B"/>
<stop offset="0.52" stop-color="#133C8B"/>
<stop offset="1" stop-color="#08286B"/>
</linearGradient>
<radialGradient id="paint2_radial_9_326609" cx="0" cy="0" r="1" gradientTransform="matrix(-2.49288 -9.23213 -10.8217 2.92215 21.0726 21.0441)" gradientUnits="userSpaceOnUse">
<stop stop-color="white"/>
<stop offset="0.45" stop-color="white"/>
<stop offset="0.98" stop-color="#373338"/>
<stop offset="1" stop-color="#373338"/>
</radialGradient>
<radialGradient id="paint3_radial_9_326609" cx="0" cy="0" r="1" gradientTransform="matrix(1.14836 5.54042 13.7002 -2.83993 13.153 15.2937)" gradientUnits="userSpaceOnUse">
<stop stop-color="white"/>
<stop offset="1" stop-color="#D2D1D3"/>
</radialGradient>
<linearGradient id="paint4_linear_9_326609" x1="12" y1="28.5002" x2="33" y2="8.00024" gradientUnits="userSpaceOnUse">
<stop stop-color="#F4F4F4"/>
<stop offset="1" stop-color="#E0DEDE"/>
</linearGradient>
<radialGradient id="paint5_radial_9_326609" cx="0" cy="0" r="1" gradientUnits="userSpaceOnUse" gradientTransform="translate(25.1568 34.2947) rotate(-70.4988) scale(29.486 29.486)">
<stop stop-color="#383737"/>
<stop offset="1" stop-color="#E0DEDE"/>
</radialGradient>
<clipPath id="clip0_9_326609">
<rect width="24" height="24" fill="white" transform="translate(9 9)"/>
</clipPath>
</defs>
</svg>
