<svg width="42" height="42" viewBox="0 0 42 42" fill="none" xmlns="http://www.w3.org/2000/svg">
<circle cx="21" cy="21" r="21" fill="#5B0AD3"/>
<circle cx="21" cy="21" r="20.5" stroke="black" stroke-opacity="0.05"/>
<path d="M22.546 20.5158C22.5473 22.1883 22.4752 23.4116 22.8094 24.7852C23.1104 26.0228 23.8283 27.2055 25.0319 27.7314C25.896 28.1086 26.849 27.93 27.3978 27.1384C27.7418 26.6424 27.8315 25.9552 27.7647 25.3471C27.6267 24.0882 26.8949 22.8985 25.9083 22.14C25.1875 21.5859 24.3664 21.2067 23.445 21.0023C23.4306 20.9991 23.427 20.9909 23.4331 20.9773L28.2029 11.1924C28.2066 11.1846 28.216 11.1809 28.2238 11.185C28.2238 11.185 28.2246 11.185 28.2251 11.1854L31.1581 12.948C31.1663 12.9529 31.1688 12.9636 31.1639 12.9718C31.1639 12.9722 31.1635 12.9726 31.163 12.973L26.1147 19.9261C26.1102 19.9322 26.1114 19.9404 26.1172 19.9449C26.1192 19.9466 26.1217 19.9474 26.1241 19.9474C26.6971 19.9936 27.2561 20.1517 27.8008 20.422C29.8837 21.4557 30.8469 23.7339 30.2236 25.9733C29.5065 28.5492 27.0526 30.3016 24.3615 29.9973C22.9261 29.8347 21.5795 28.9587 20.7924 27.7494C19.9471 26.4508 19.6257 24.9945 19.6232 23.4542C19.6228 23.2134 19.622 22.2338 19.6207 20.5158C19.6195 18.8433 19.6916 17.62 19.3574 16.2464C19.056 15.0088 18.3381 13.8261 17.1345 13.3002C16.2704 12.923 15.3174 13.1016 14.7686 13.8932C14.4246 14.3892 14.3349 15.0764 14.4017 15.6845C14.5397 16.9434 15.2715 18.1331 16.2581 18.8916C16.9788 19.4457 17.8 19.8249 18.7214 20.0293C18.7357 20.0326 18.7394 20.0407 18.7333 20.0543L13.9635 29.8392C13.9598 29.847 13.9503 29.8507 13.9426 29.8466C13.9426 29.8466 13.9417 29.8466 13.9413 29.8462L11.0083 28.0836C11.0001 28.0787 10.9976 28.068 11.0025 28.0598C11.0025 28.0594 11.0029 28.059 11.0033 28.0586L16.0517 21.1055C16.0562 21.0994 16.0549 21.0912 16.0492 21.0867C16.0472 21.0851 16.0447 21.0842 16.0422 21.0842C15.4693 21.038 14.9103 20.8799 14.3656 20.6096C12.2827 19.5759 11.3195 17.2977 11.9428 15.0584C12.6599 12.4824 15.1138 10.73 17.8049 11.0343C19.2403 11.1969 20.5868 12.0729 21.374 13.2822C22.2192 14.5808 22.5407 16.0371 22.5436 17.5774C22.5436 17.8182 22.5448 18.7978 22.546 20.5158Z" fill="white"/>
</svg>
