<svg width="42" height="42" viewBox="0 0 42 42" fill="none" xmlns="http://www.w3.org/2000/svg">
<circle cx="21" cy="21" r="21" fill="#0B376A"/>
<circle cx="21" cy="21" r="20.5" stroke="black" stroke-opacity="0.04"/>
<path fill-rule="evenodd" clip-rule="evenodd" d="M9 23.3173C9 27.2102 12.2527 30.3686 16.2662 30.3686C17.5506 30.3686 18.7575 30.0427 19.8058 29.4761V24.923C19.1916 25.7034 18.2232 26.2088 17.1324 26.2088C15.276 26.2088 13.7728 24.7481 13.7728 22.9473C13.7728 22.0946 14.112 21.3155 14.6645 20.7348C14.0857 19.7019 13.7574 18.5206 13.7574 17.2615C13.7574 17.0707 13.7656 16.8756 13.7805 16.6863C10.9919 17.6712 9 20.2672 9 23.3173Z" fill="url(#paint0_linear_9_314536)"/>
<path fill-rule="evenodd" clip-rule="evenodd" d="M13.7573 17.2616C13.7573 18.5207 14.0857 19.702 14.6644 20.7349C15.2784 20.0886 16.157 19.6854 17.1323 19.6854C17.5108 19.6854 17.8766 19.7475 18.2166 19.8607C17.8394 19.3053 17.6185 18.6383 17.6185 17.9248C17.6185 15.9835 19.2406 14.4091 21.2417 14.4091C22.7015 14.4091 23.9591 15.2466 24.5328 16.4539C25.0731 16.3287 25.637 16.2639 26.2163 16.2639C27.0894 16.2639 27.9267 16.4118 28.7015 16.6864C28.397 12.9457 25.1741 10 21.2407 10C17.107 10 13.7573 13.2526 13.7573 17.2616Z" fill="url(#paint1_linear_9_314536)"/>
<path fill-rule="evenodd" clip-rule="evenodd" d="M24.533 16.454C24.7445 16.9015 24.8634 17.3992 24.8634 17.9248C24.8634 18.6383 24.6437 19.3053 24.2655 19.8588C24.6065 19.7475 24.9698 19.6854 25.3495 19.6854C27.2054 19.6854 28.7092 21.1459 28.7092 22.9474C28.7092 24.7482 27.2054 26.209 25.3495 26.209C24.2603 26.209 23.2911 25.7048 22.6766 24.9243V29.4763C23.7242 30.0428 24.9314 30.3687 26.2164 30.3687C30.2288 30.3687 33.4824 27.2103 33.4824 23.3174C33.4824 19.4204 30.2288 16.2639 26.2164 16.2639C25.6372 16.2639 25.0733 16.3287 24.533 16.454Z" fill="url(#paint2_linear_9_314536)"/>
<defs>
<linearGradient id="paint0_linear_9_314536" x1="8.49312" y1="19.7726" x2="15.5219" y2="31.4011" gradientUnits="userSpaceOnUse">
<stop stop-color="#0283C5"/>
<stop offset="1" stop-color="#7BC9EF"/>
</linearGradient>
<linearGradient id="paint1_linear_9_314536" x1="16.2394" y1="20.8217" x2="28.7015" y2="20.8217" gradientUnits="userSpaceOnUse">
<stop stop-color="#7BC9EF"/>
<stop offset="1" stop-color="#1B96D0"/>
</linearGradient>
<linearGradient id="paint2_linear_9_314536" x1="26.3551" y1="12.1852" x2="15.6482" y2="21.2897" gradientUnits="userSpaceOnUse">
<stop stop-color="#7AC7EF"/>
<stop offset="1" stop-color="#026EB8"/>
</linearGradient>
</defs>
</svg>
