<svg width="42" height="42" viewBox="0 0 42 42" fill="none" xmlns="http://www.w3.org/2000/svg">
<circle cx="21" cy="21" r="21" fill="#0075F2"/>
<circle cx="21" cy="21" r="20.5" stroke="black" stroke-opacity="0.04"/>
<path fill-rule="evenodd" clip-rule="evenodd" d="M18.7691 15.6245L26.5324 20.7512C26.8917 20.9884 27.2007 21.294 27.4418 21.6507C27.6829 22.0073 27.8513 22.408 27.9374 22.8298C28.0235 23.2516 28.0256 23.6862 27.9436 24.1089C27.8616 24.5315 27.6971 24.9338 27.4595 25.2928L26.9654 26.0392L15.7579 18.6372C15.251 18.3091 14.8348 17.8586 14.5479 17.3273C14.261 16.796 14.1126 16.2009 14.1163 15.5971C14.12 14.9933 14.2758 14.4001 14.5692 13.8724C14.8626 13.3446 15.2843 12.8993 15.7952 12.5774L15.834 12.5535L20.91 9.30789C21.3141 9.06634 21.7857 8.96253 22.2539 9.01207C22.7221 9.06161 23.1616 9.26182 23.5062 9.58259C24.508 10.5888 24.3587 12.0459 23.1643 12.8208L18.7691 15.6245ZM26.9799 28.0815L14.5636 19.8726L14.5628 19.8739L14.0564 20.6398C13.566 21.3816 13.3903 22.2879 13.568 23.1593C13.7458 24.0306 14.2624 24.7957 15.0043 25.2861L24.6235 31.6457C25.0962 31.9582 25.6736 32.0701 26.2287 31.9569C26.7839 31.8436 27.2714 31.5145 27.5838 31.0418C27.8963 30.5692 28.0083 29.9917 27.895 29.4366C27.7817 28.8814 27.4526 28.394 26.9799 28.0815ZM21.7343 15.6693C21.7343 15.6693 24.0184 13.6807 25.6308 13.6807C26.1486 13.6949 26.6404 13.9105 27.0016 14.2818C27.3628 14.653 27.5649 15.1506 27.5649 15.6685C27.5649 16.1865 27.3628 16.684 27.0016 17.0553C26.6404 17.4265 26.1486 17.6422 25.6308 17.6564C23.8721 17.6564 21.7343 15.6693 21.7343 15.6693ZM15.5722 31.8901C17.1846 31.8901 19.4688 29.9015 19.4688 29.9015C19.4688 29.9015 17.3309 27.9144 15.5722 27.9144C15.0452 27.9144 14.5398 28.1237 14.1672 28.4964C13.7945 28.869 13.5851 29.3744 13.5851 29.9015C13.585 30.1625 13.6362 30.4211 13.736 30.6623C13.8358 30.9036 13.9821 31.1228 14.1666 31.3075C14.3512 31.4922 14.5703 31.6387 14.8115 31.7387C15.0527 31.8386 15.3112 31.8901 15.5722 31.8901Z" fill="white"/>
</svg>
