<svg width="42" height="42" viewBox="0 0 42 42" fill="none" xmlns="http://www.w3.org/2000/svg">
<circle cx="21" cy="21" r="21" fill="white"/>
<circle cx="21" cy="21" r="20.5" stroke="black" stroke-opacity="0.04"/>
<g clip-path="url(#clip0_9_314622)">
<path d="M28.642 25.3571L28.622 25.3531L28.582 25.3011L28.562 25.2971L28.472 25.1891L28.412 25.1321V25.1151L28.372 25.0801L28.37 25.0611L28.362 25.0601L28.34 25.0291L28.321 25.0241L28.311 25.0041L28.261 24.9861V24.9771L28.221 24.9611V24.9511L28.182 24.9351L28.17 24.9151L28.111 24.8861V24.8771L28.082 24.8621L28.072 24.8421L28.032 24.8251L28.022 24.8051L28.002 24.8011L27.992 24.7811L27.962 24.7661L27.942 24.7361L27.922 24.7311L27.912 24.7121L27.892 24.7081L27.852 24.6551L27.832 24.6511L27.752 24.5551L27.732 24.5511V24.5411L27.702 24.5181V24.5001L27.622 24.4201L27.621 24.4031L27.601 24.3901L27.569 24.3451L27.57 24.3261L27.62 24.2711L27.64 24.2761L27.66 24.2511L27.68 24.2551L27.69 24.2381L27.72 24.2351V24.2251L27.74 24.2291L27.75 24.2121L27.77 24.2161L27.78 24.1991L27.8 24.2031L27.809 24.1861L27.839 24.1821L27.869 24.1511L27.889 24.1561L27.899 24.1381L27.919 24.1421L27.979 24.0881L28.009 24.0841V24.0661L28.069 24.0211L28.109 24.0011L28.119 23.9751L28.149 23.9621V23.9441L28.179 23.9311V23.9121L28.199 23.9061V23.8881L28.218 23.8831V23.8631L28.238 23.8581L28.248 23.8321L28.257 23.8341L28.267 23.7991L28.287 23.7931L28.297 23.7591L28.327 23.7551L28.357 23.7231L28.376 23.7281L28.396 23.7021L28.416 23.7071L28.426 23.6901L28.446 23.6931L28.486 23.6541L28.507 23.6591L28.577 23.5981L28.596 23.6011L28.606 23.5851L28.636 23.5711V23.5531L28.645 23.5551L28.685 23.5161L28.705 23.5191V23.5011L28.725 23.4771L28.765 23.4571V23.4381L28.794 23.4251V23.4071L28.824 23.3931V23.3751L28.844 23.3701V23.3421L28.864 23.3451V23.3171L28.954 23.2601V23.2421L29.034 23.2201L29.033 23.2011L29.093 23.1841V23.1661L29.183 23.1271L29.182 23.1081L29.202 23.1121L29.272 23.0231L29.292 23.0271V23.0091L29.312 23.0121V22.9931L29.332 22.9971L29.372 22.9491V22.9211L29.402 22.9081L29.421 22.8571L29.441 22.8601L29.461 22.7991L29.481 22.8031L29.48 22.7661L29.5 22.7691V22.7321L29.52 22.7361L29.53 22.6911L29.538 22.6931L29.549 22.6301L29.559 22.6321V22.6131L29.569 22.6161V22.5791L29.578 22.5811V22.5621L29.588 22.5641V22.5171L29.608 22.5121L29.607 22.4461L29.627 22.4411L29.625 22.3581L29.646 22.3521L29.644 22.1951L29.654 22.1971V22.1591L29.664 22.1621L29.643 22.0361L29.64 21.8791L29.62 21.8671L29.619 21.7841L29.599 21.7701L29.597 21.7051L29.577 21.6921V21.6451L29.567 21.6431V21.6251L29.557 21.6241V21.5861L29.547 21.5841V21.5571L29.536 21.5551V21.5371L29.526 21.5351V21.4971L29.516 21.4951L29.505 21.4471L29.485 21.4431V21.4381L29.486 21.4401L29.506 21.4431L29.516 21.4631L29.536 21.4681L29.556 21.4981L29.576 21.5021L29.586 21.5221L29.606 21.5261L29.646 21.5781L29.666 21.5821L29.746 21.6791L29.806 21.7271L29.836 21.7771L29.856 21.7821L29.866 21.8111L29.916 21.8571V21.8751L29.966 21.9211V21.9391L29.986 21.9521V21.9701L30.016 21.9931V22.0131L30.037 22.0251L30.038 22.0431L30.058 22.0561L30.068 22.0861L30.078 22.0871L30.688 22.7661L30.708 22.7781V22.7971L30.728 22.8101L30.739 22.8381L30.749 22.8401L30.89 23.0031L30.91 23.0071L30.93 23.0371L30.95 23.0421L30.98 23.0831L31 23.0871L31.03 23.1301L31.05 23.1331L31.11 23.2081L31.24 23.3421L31.28 23.3941L31.45 23.5721L31.46 23.5921L31.5 23.6081L31.51 23.6281L31.55 23.6441L31.56 23.6641L31.95 24.0471L31.97 24.0511L32 24.1021L32.01 24.1041V24.1221L32.03 24.1351V24.1441L32.051 24.1571V24.1761L32.071 24.1881V24.2071L32.101 24.2291L32.262 24.3961L32.281 24.4001L32.291 24.4201L32.311 24.4241L32.331 24.4551L32.351 24.4591L32.371 24.4891L32.391 24.4941L32.421 24.5361L32.441 24.5391L32.521 24.6361L32.54 24.6401V24.6481L32.57 24.6731V24.6911L32.661 24.7811L32.792 24.9051V24.9151L32.812 24.9171V24.9271L32.832 24.9391L32.871 24.9561L32.921 24.9931L32.931 25.0131L32.961 25.0371L32.981 25.0401L33.011 25.0641L33.021 25.0841L33.051 25.1081L33.071 25.1111L33.091 25.1341L33.101 25.1541L33.261 25.3121L33.491 25.5451L33.511 25.5671L33.531 25.5701L33.541 25.5901L34.051 26.0601V26.0681L34.082 26.0921L34.383 26.4211L34.402 26.4241L34.442 26.4781L34.462 26.4821L34.472 26.5021L34.532 26.5581L34.572 26.6021L34.622 26.6661L34.663 26.7191L34.693 26.7611L34.713 26.7911L34.743 26.8521L34.783 26.9061L34.803 26.9461L34.813 26.9661L34.845 27.0261V27.0531L34.855 27.0551L34.865 27.0941L34.875 27.0961V27.1231L34.885 27.1251V27.1431L34.895 27.1451V27.1721L34.905 27.1741L34.906 27.2021L34.916 27.2031V27.2311L34.926 27.2331L34.988 27.5091V27.6181L34.999 27.6211L34.993 27.8561L34.983 27.8541L34.985 27.9181L34.975 27.9171V27.9621L34.964 27.9601V28.0051H34.954L34.955 28.0401L34.945 28.0381V28.0751L34.936 28.0731L34.937 28.1011L34.927 28.0991L34.917 28.1611L34.907 28.1601V28.1771L34.897 28.1751V28.2021L34.887 28.2011L34.888 28.2191L34.878 28.2181V28.2451L34.869 28.2431L34.85 28.2941L34.84 28.2921V28.3111L34.83 28.3091V28.3271L34.82 28.3251V28.3451L34.81 28.3421L34.791 28.3921H34.781L34.771 28.4171L34.752 28.4221L34.742 28.4571L34.723 28.4611V28.4801L34.693 28.4931V28.5111L34.665 28.5241V28.5421L34.625 28.5621V28.5821L34.537 28.6371L34.458 28.7051L34.438 28.7021L34.41 28.7321L34.39 28.7281L34.37 28.7521L34.351 28.7491L34.331 28.7721L34.311 28.7691L34.302 28.7851L34.272 28.7891V28.7991L34.232 28.8001L34.222 28.8161L34.162 28.8241L34.152 28.8391L34.065 28.8511V28.8591L34.025 28.8621V28.8711L33.995 28.8651V28.8751L33.975 28.8711V28.8791L33.946 28.8741V28.8841L33.916 28.8781V28.8871L33.886 28.8821V28.8911L33.857 28.8861V28.8941L33.817 28.8871V28.8971L33.778 28.8881V28.8981L33.728 28.8881V28.8981C33.728 28.8981 33.433 28.8601 33.314 28.8301C33.195 28.8001 32.894 28.6881 32.894 28.6881L32.85 28.6741L32.836 28.6691V28.6591L32.786 28.6411V28.6321L32.746 28.6151V28.6061L32.716 28.6011V28.5911L32.676 28.5761V28.5661L32.636 28.5491L32.626 28.5291L32.566 28.4991V28.4911L32.277 28.3101V28.3001L32.237 28.2941V28.2841L32.207 28.2791V28.2691L32.177 28.2641V28.2551L32.148 28.2401L31.689 27.9271L31.669 27.9241L31.629 27.8701L31.609 27.8671L31.329 27.6511V27.6411L31.29 27.6261V27.6161L31.26 27.6101V27.6021L31.2 27.5721V27.5631L31.18 27.5601V27.5501L31.14 27.5341L31.13 27.5141L31.071 27.4841L31.061 27.4641L31.041 27.4611V27.4511L31.011 27.4371L31.001 27.4171L30.981 27.4131L30.961 27.3831L30.941 27.3791L30.931 27.3591L30.911 27.3541L30.871 27.3021L30.851 27.2991L30.521 27.0281V27.0181L30.461 26.9881V26.9791L30.442 26.9761V26.9661L30.422 26.9631V26.9551L30.362 26.9251L30.352 26.9051L30.312 26.8881L30.302 26.8681L30.262 26.8511L30.242 26.8211L30.222 26.8171L30.212 26.7971L30.192 26.7931L30.172 26.7611C30.172 26.7611 29.832 26.4941 29.704 26.3741C29.578 26.2541 29.168 25.8891 29.122 25.8381L29.082 25.8031V25.7851L29.032 25.7401L29.022 25.7101L29.002 25.6801L28.642 25.3571ZM21.456 23.1941V23.2121L21.536 23.2651V23.2841L21.619 23.3351V23.3541L21.648 23.3601V23.3691L21.659 23.3891L21.69 23.4221L21.71 23.4261V23.4541L21.731 23.4581L21.75 23.5081L21.761 23.5091V23.5291L21.781 23.5421V23.5691L21.802 23.5731V23.5921L21.822 23.5951L21.843 23.6451L21.864 23.6491V23.6681L21.884 23.6711L21.935 23.7551L21.955 23.7591V23.7771L22.035 23.8381L22.036 23.8571L22.056 23.8611V23.8791L22.107 23.9071V23.9251L22.128 23.9291V23.9481L22.198 23.9891L22.208 24.0091L22.238 24.0151L22.249 24.0351L22.269 24.0391V24.0491L22.3 24.0631V24.0821L22.34 24.0901V24.1081L22.39 24.1361L22.533 24.3101L22.534 24.3291L22.554 24.3331L22.665 24.4551V24.4731L22.686 24.4771V24.4961L22.717 24.5011V24.5201L22.736 24.5231V24.5421L22.869 24.6311L22.909 24.6661V24.6761L22.928 24.6801L22.929 24.6881L22.95 24.6931L22.96 24.7121L22.99 24.7181L23 24.7391L23.03 24.7441V24.7541L23.071 24.7701V24.7891L23.122 24.8171V24.8351L23.142 24.8391V24.8581L23.162 24.8611L23.194 24.8951V24.9141L23.213 24.9171L23.214 24.9361L23.234 24.9391L23.285 24.9941V25.0131L23.305 25.0171L23.467 25.1581V25.1771L23.498 25.1831L23.499 25.2011L23.548 25.2291V25.2381L23.579 25.2441L23.578 25.2531L23.619 25.2701V25.2881L23.661 25.2951V25.3141L23.73 25.3361L23.741 25.3581L23.781 25.3651V25.3821L23.832 25.3921L23.841 25.4131L23.892 25.4221V25.4321L23.922 25.4371L23.923 25.4471L23.963 25.4541V25.4631L24.034 25.4761L24.043 25.4971L24.155 25.5181L24.165 25.5381L24.266 25.5561V25.5661L24.295 25.5701V25.5801L24.346 25.5901V25.5991L24.366 25.6031L24.376 25.6231L24.457 25.6471V25.6661L24.82 25.7691L24.951 25.7941V25.7851L24.971 25.7891V25.7791L25.162 25.7961V25.7781L25.342 25.7651V25.7461L25.371 25.7471L25.362 25.7531V25.7711L25.313 25.7991L25.254 25.8421V25.8601L25.225 25.8641L25.157 25.9241L25.137 25.9201L25.107 25.9511L25.088 25.9471L25.058 25.9791L25.038 25.9741L25.019 25.9981L24.999 25.9951L24.989 26.0111L24.959 26.0161V26.0241L24.94 26.0211L24.931 26.0371L24.901 26.0401V26.0501L24.841 26.0571L24.831 26.0731L24.792 26.0751V26.0841L24.772 26.0811L24.773 26.0901L24.752 26.0861V26.0951L24.694 26.1031V26.1121L24.664 26.1061V26.1151L24.659 26.1391L24.639 26.1351L24.591 26.1811L24.545 26.1751L24.546 26.1941L24.488 26.2281L24.399 26.3041L24.378 26.3001L24.301 26.3491L24.183 26.4031L24.152 26.4081V26.4171L24.133 26.4121L24.123 26.4291L24.084 26.4311L24.073 26.4471L24.054 26.4431L24.035 26.4581L24.015 26.4551V26.4641L23.995 26.4611V26.4691L23.974 26.4651L23.975 26.4751L23.956 26.4701V26.4801L23.937 26.4761V26.4851L23.916 26.4821L23.917 26.4911L23.857 26.4981V26.5071L23.827 26.5021V26.5111L23.808 26.5071L23.809 26.5171L23.777 26.5111L23.778 26.5191L23.75 26.5281V26.5381L23.72 26.5331V26.5421L23.69 26.5361V26.5451L23.552 26.6021L23.513 26.6401L23.492 26.6361L23.454 26.6751L23.434 26.6711L23.414 26.6951L23.395 26.6921L23.376 26.7151L23.356 26.7111L23.346 26.7281L23.306 26.7291L23.296 26.7461L23.266 26.7501V26.7591L23.226 26.7611L23.217 26.7771L23.158 26.7841V26.7931L23.139 26.7901V26.7991L23.119 26.7951V26.8041L23.099 26.8011V26.8101L23.039 26.8181V26.8261L23.01 26.8201V26.8291L22.99 26.8261V26.8351L22.96 26.8291L22.961 26.8391L22.941 26.8351V26.8451L22.911 26.8391L22.912 26.8481L22.882 26.8421V26.8511L22.695 26.9261L22.675 26.9231L22.635 26.9611L22.616 26.9561L22.597 26.9811L22.577 26.9771L22.557 27.0011L22.537 26.9961L22.528 27.0131L22.508 27.0101L22.488 27.0331L22.449 27.0361L22.439 27.0521L22.4 27.0531L22.39 27.0701L22.331 27.0781L22.321 27.0931L22.291 27.0881L22.282 27.1041L21.956 27.1631L21.916 27.1561V27.1651L21.877 27.1581V27.1661L21.838 27.1591V27.1681L21.798 27.1611V27.1701L21.748 27.1601V27.1701L21.698 27.1601V27.1701L21.619 27.1551V27.1641L21.253 27.1051V27.0971L21.133 27.0751V27.0651L21.054 27.0511L21.053 27.0421L20.995 27.0311V27.0211L20.955 27.0131V27.0051L20.905 26.9951V26.9861L20.796 26.9481V26.9391L20.766 26.9341V26.9251L20.696 26.9031V26.8931L20.676 26.8891V26.8801L20.646 26.8751V26.8661L20.626 26.8631V26.8531L20.597 26.8481V26.8391L20.558 26.8211L20.556 26.8131L20.527 26.8071V26.7991L20.467 26.7681V26.7591L20.448 26.7551L20.447 26.7461L20.408 26.7301L20.397 26.7101L20.337 26.6811L20.328 26.6611L20.287 26.6451L20.288 26.6351L20.257 26.6211L20.248 26.6011L20.227 26.5971L20.217 26.5771L20.197 26.5731L20.177 26.5421L20.158 26.5381L20.137 26.5071L20.118 26.5041L20.098 26.4721L20.068 26.4571L19.978 26.3501L19.958 26.3461L19.887 26.2511L19.868 26.2481L19.818 26.1831L19.817 26.1651L19.797 26.1531V26.1441L19.777 26.1301V26.1121L19.747 26.0881V26.0691L19.717 26.0461V26.0281L19.697 26.0161L19.686 25.9861L19.677 25.9841L19.676 25.9661L19.656 25.9531L19.646 25.9241L19.636 25.9221L19.626 25.8841L19.606 25.8701L19.605 25.8521L19.586 25.8301V25.8131L19.576 25.8101V25.7931L19.566 25.7901L19.565 25.7721L19.556 25.7701L19.535 25.7121L19.525 25.7101L19.515 25.6631L19.505 25.6601V25.6421L19.494 25.6401V25.6131L19.484 25.6121L19.474 25.5731L19.464 25.5711L19.443 25.4761L19.433 25.4741V25.4471L19.422 25.4451V25.4181L19.413 25.4161L19.401 25.3501L19.392 25.3481L19.391 25.3121L19.381 25.3091L19.37 25.1981L19.391 24.4281L19.401 24.4291V24.4011L19.41 24.4031V24.3771L19.42 24.3781L19.449 24.2651L19.459 24.2671V24.2481L19.468 24.2501V24.2231L19.477 24.2251L19.487 24.1901L19.497 24.1921V24.1641L19.507 24.1661L19.517 24.1311L19.526 24.1331V24.1061L19.545 24.1001V24.0821L19.565 24.0681V24.0491L19.576 24.0511L19.574 24.0331L19.584 24.0341V24.0161L19.604 24.0121L19.613 23.9761L19.633 23.9711V23.9531L19.653 23.9471L19.662 23.9121L19.681 23.9071V23.8891L19.711 23.8761V23.8571L19.74 23.8451V23.8271L19.789 23.8001V23.7811L19.828 23.7611V23.7421L19.848 23.7281L19.877 23.7251V23.7061L19.897 23.7011L19.917 23.6781L19.965 23.6591V23.6411L19.984 23.6261L20.005 23.6301L20.034 23.5981L20.054 23.6021L20.093 23.5641L20.112 23.5671L20.132 23.5441L20.152 23.5471L20.172 23.5241L20.192 23.5281L20.202 23.5111L20.241 23.5091L20.25 23.4931L20.28 23.4881V23.4791L20.321 23.4781L20.329 23.4621L20.349 23.4661L20.369 23.4511L20.389 23.4551V23.4451L20.409 23.4491V23.4401L20.428 23.4441L20.437 23.4281L20.467 23.4321V23.4241L20.507 23.4221V23.4131L20.537 23.4181V23.4091L20.575 23.4071V23.3981L20.605 23.4041V23.3941L20.625 23.3981L20.626 23.3891L20.754 23.3861V23.3771L20.784 23.3821V23.3721L20.813 23.3781V23.3691L20.932 23.3721L20.942 23.3561L20.961 23.3601L20.98 23.3361L21 23.3401L21.02 23.3161L21.04 23.3201L21.059 23.2961L21.079 23.3001L21.089 23.2841L21.129 23.2811L21.139 23.2651L21.158 23.2691L21.168 23.2531L21.187 23.2561L21.197 23.2391L21.217 23.2431L21.236 23.2281L21.257 23.2331L21.256 23.2241L21.276 23.2271V23.2181L21.296 23.2211L21.44 23.1851L21.456 23.1941ZM24.66 21.6211L24.632 21.6521L24.61 21.6581L24.612 21.6761L24.592 21.6911L24.573 21.6871L24.562 21.7031L24.543 21.7001V21.7081L24.523 21.7051V21.7141L24.493 21.7081V21.7171L24.433 21.7251V21.7341L24.414 21.7311L24.415 21.7391L24.354 21.7471L24.346 21.7641L24.305 21.7651L24.297 21.7821L24.277 21.7781L24.266 21.7941L24.247 21.7901L24.238 21.8071L24.218 21.8031L24.207 21.8191L24.188 21.8171L24.178 21.8321L24.13 21.8471L24.131 21.8481V21.8671L24.172 21.8931V21.9121L24.253 21.9741V21.9921L24.274 21.9961V22.0141L24.294 22.0181V22.0361L24.315 22.0411V22.0591L24.335 22.0621L24.386 22.1461L24.406 22.1491L24.428 22.2001L24.446 22.2031V22.2221L24.467 22.2251L24.519 22.3371L24.538 22.3401L24.58 22.4221L24.62 22.4671L24.681 22.4971V22.5161L24.722 22.5321V22.5511L24.772 22.5781L24.773 22.5971L24.793 22.6001L24.794 22.6191L24.813 22.6231L24.814 22.6421L24.865 22.6971L24.885 22.7011V22.7191L24.905 22.7231V22.7411L24.925 22.7451L24.997 22.8601L25.018 22.8641V22.8831L25.037 22.8871V22.9141L25.058 22.9181L25.079 22.9781L25.089 22.9801L25.109 23.0301L25.13 23.0331L25.15 23.0831L25.169 23.0871L25.232 23.1351V23.1531L25.251 23.1571V23.1761L25.323 23.2171V23.2351L25.342 23.2391L25.374 23.2911L25.392 23.2951L25.393 23.3141L25.414 23.3171L25.445 23.3691L25.465 23.3731V23.3921L25.485 23.3951L25.517 23.4651L25.536 23.4691V23.4881L25.556 23.4921L25.588 23.5621L25.607 23.5661L25.608 23.5941L25.628 23.5981L25.639 23.6271L25.648 23.6291L25.658 23.6781L25.68 23.6901V23.7091L25.7 23.7221V23.7491L25.72 23.7621L25.731 23.8201L25.752 23.8321V23.8701L25.762 23.8721L25.772 23.9201L25.791 23.9241L25.803 24.0191L25.814 24.0201V24.0391L25.824 24.0411L25.825 24.0971L25.845 24.1091L25.855 24.1951L25.876 24.2071L25.898 24.2851L25.917 24.2891L25.937 24.3671L25.958 24.3711L25.969 24.4381L25.989 24.4411L26.001 24.5361L26.02 24.5401L26.054 24.8701L26.044 24.8681L26.045 25.0171L26.036 25.0141L26.038 25.0801L26.027 25.0771L26.028 25.1331L26.008 25.1391L25.999 25.2111L25.979 25.2071L25.93 25.3561L25.909 25.3521L25.83 25.4861L25.81 25.4911L25.8 25.4891L25.801 25.5161L25.781 25.5131V25.5221L25.742 25.5431L25.712 25.5661L25.713 25.5931L25.642 25.6161V25.6311L25.658 25.6341L25.666 25.6171L25.686 25.6211L25.695 25.6051L25.716 25.6081L25.726 25.5921L25.745 25.5961V25.5861L25.775 25.5831L25.785 25.5661L25.804 25.5701L25.835 25.5391L25.855 25.5431L25.894 25.5051L25.913 25.5081L25.981 25.4481L26.001 25.4521V25.4421L26.031 25.4301L26.041 25.4041L26.109 25.3621V25.3431L26.158 25.3161V25.2981L26.177 25.2931V25.2841L26.198 25.2791L26.197 25.2611L26.218 25.2551V25.2361L26.237 25.2311V25.2121L26.266 25.1991L26.295 25.1551L26.334 25.1361L26.344 25.1201L26.364 25.1231L26.373 25.0911L26.393 25.0961L26.402 25.0791L26.423 25.0831L26.432 25.0661L26.451 25.0701L26.462 25.0541L26.491 25.0511L26.531 25.0121L26.551 25.0151L26.59 24.9781L26.61 24.9811L26.609 24.9721L26.629 24.9661V24.9481L26.649 24.9521L26.688 24.9141L26.697 24.9151V24.8971L26.736 24.8861V24.8681L26.786 24.8401V24.8221L26.825 24.8021V24.7841L26.855 24.7861V24.7681L26.932 24.7181L26.972 24.7161L26.982 24.6851L27.022 24.6841V24.6741L27.052 24.6711L27.061 24.6541L27.08 24.6581V24.6481L27.11 24.6451L27.12 24.6291L27.139 24.6321L27.158 24.6081L27.178 24.6131L27.189 24.5961L27.198 24.5971L27.208 24.5811L27.228 24.5851V24.5761L27.267 24.5651V24.5471L27.454 24.4261L27.453 24.4081L27.482 24.3951V24.3771L27.512 24.3641L27.546 24.3311L27.52 24.2901L27.51 24.2881L27.499 24.2491L27.469 24.2251L27.458 24.1761L27.448 24.1751L27.407 24.1111L27.275 24.0231V24.0041L27.245 23.9891L27.236 23.9691L27.215 23.9651L27.184 23.9231L27.163 23.9191L27.113 23.8631L27.092 23.8321L27.072 23.8281L27.042 23.7761L27.022 23.7721L26.97 23.6981L26.96 23.6961V23.6781L26.899 23.6201L26.898 23.6011L26.879 23.5881V23.5701L26.858 23.5571V23.5381L26.838 23.5161L26.818 23.5121L26.746 23.3601L26.725 23.3561L26.642 23.1651L26.622 23.1521V23.1341L26.612 23.1311L26.602 23.0741L26.592 23.0721L26.591 23.0441L26.581 23.0431L26.58 23.0141L26.571 23.0131V22.9851L26.561 22.9831L26.559 22.9461L26.551 22.9441L26.539 22.8871L26.528 22.8851V22.8671L26.519 22.8641V22.8271L26.508 22.8261L26.507 22.7701L26.498 22.7681L26.497 22.7211L26.488 22.7191L26.486 22.6461L26.476 22.6431L26.464 22.4201L26.453 22.4181V22.3901L26.433 22.3771L26.422 22.3101L26.402 22.3061L26.391 22.2681L26.38 22.2651V22.2281L26.371 22.2261V22.1991L26.35 22.1861L26.349 22.1391L26.329 22.1351L26.318 22.0411L26.308 22.0401V22.0211L26.298 22.0191L26.296 21.9541L26.277 21.9401L26.276 21.8381L26.256 21.8261L26.252 21.5381L26.271 21.5331V21.4311L26.291 21.4341L26.299 21.3441H26.31V21.3081L26.32 21.3111L26.319 21.2641L26.339 21.2581V21.2211L26.359 21.2161L26.369 21.1531L26.389 21.1571L26.417 21.0601L26.438 21.0631L26.436 21.0361L26.457 21.0401L26.537 20.9151L26.557 20.9191L26.586 20.8601L26.605 20.8641V20.8451L26.625 20.8491L26.674 20.7841L26.694 20.7871V20.7691L26.725 20.7741L26.755 20.7521L26.754 20.7341L26.774 20.7381V20.7201L26.795 20.7231L26.814 20.6991L26.835 20.7021L26.844 20.6861L26.874 20.6821V20.6631L26.925 20.6361L27.014 20.6251V20.6061L27.115 20.5981L27.114 20.5781L27.204 20.5681L27.236 20.5741V20.5641L27.256 20.5681V20.5581L27.295 20.5651L27.305 20.5491L27.415 20.5601L27.425 20.5441L27.516 20.5601L27.526 20.5441L27.686 20.5741L27.708 20.5681L27.979 20.6281V20.6461L28.2 20.7151L28.201 20.7341L28.251 20.7431L28.253 20.7611L28.372 20.8121L28.373 20.8301L28.473 20.8771V20.8951L28.513 20.9121L28.514 20.9221L28.545 20.9261L28.565 20.9581L28.595 20.9641V20.9731L28.616 20.9771V20.9861L28.696 21.0021V21.0111L28.766 21.0231V21.0331L28.817 21.0421V21.0511L28.877 21.0631V21.0711L28.918 21.0791L28.927 21.1001L28.967 21.1071V21.1171L28.998 21.1221V21.1311L29.029 21.1371V21.1461L29.069 21.1541V21.1631L29.211 21.2261V21.2451L29.413 21.3561V21.3741L29.447 21.3911L29.435 21.3761V21.3581L29.415 21.3441V21.3261L29.395 21.3041V21.2851L29.375 21.2741L29.365 21.2351L29.345 21.2221V21.2041L29.335 21.2011L29.325 21.1731L29.305 21.1601V21.1411L29.265 21.1071V21.0891L29.224 21.0541V21.0361L29.153 20.9681L29.144 20.9391L29.123 20.9351V20.9161L29.104 20.9131L28.964 20.7781L28.945 20.7471L28.924 20.7431L28.914 20.7231L28.894 20.7191L28.873 20.6881L28.833 20.6721L28.824 20.6521L28.794 20.6371L28.793 20.6281L28.734 20.5991V20.5891L28.714 20.5851V20.5761L28.654 20.5481V20.5381L28.605 20.5191V20.5111L28.584 20.5071V20.4981L28.555 20.4921V20.4831L28.535 20.4791V20.4701L28.505 20.4651V20.4561L28.486 20.4521V20.4431L28.416 20.4211V20.4121L28.386 20.4061L28.385 20.3971L28.346 20.3901V20.3811L28.296 20.3721V20.3621L28.247 20.3531V20.3441L28.088 20.3051V20.2971L27.651 20.2341L27.652 20.2431L27.602 20.2341V20.2431L27.552 20.2341L27.553 20.2431L27.524 20.2371V20.2461L27.484 20.2391V20.2481L27.445 20.2411V20.2511L27.424 20.2451V20.2551L27.364 20.2541V20.2631L27.345 20.2591V20.2681L27.315 20.2641V20.2721L27.277 20.2741V20.2831L27.247 20.2771V20.2861L27.188 20.2941V20.3031L27.167 20.2991L27.168 20.3081L27.128 20.3101L27.119 20.3271L27.079 20.3281L27.07 20.3451L27.049 20.3411V20.3511L27.02 20.3541L27.011 20.3711L26.99 20.3661L26.971 20.3901L26.95 20.3861L26.931 20.4101L26.912 20.4071L26.882 20.4381L26.862 20.4341L25.801 21.0301L25.761 21.0321L25.762 21.0421L25.732 21.0451L25.722 21.0611L25.702 21.0571V21.0671L25.663 21.0871L25.338 21.2821L25.339 21.3001L25.32 21.3061L25.291 21.3361L25.27 21.3331L25.251 21.3481L24.66 21.6211Z" fill="#A2CE62"/>
<path d="M12.283 20.567L12.302 20.525L12.312 20.527L12.322 20.492L12.332 20.494V20.476L12.341 20.478V20.45L12.351 20.452L12.37 20.401L12.38 20.402V20.384L12.39 20.386V20.368L12.4 20.37L12.399 20.351L12.409 20.354V20.335L12.418 20.337V20.318L12.438 20.304V20.286L12.458 20.281L12.467 20.245L12.487 20.24L12.497 20.206L12.516 20.2L12.515 20.182L12.526 20.184V20.165L12.545 20.16V20.142L12.564 20.136V20.118L12.584 20.112V20.094L12.604 20.089V20.071L12.633 20.058V20.04L12.662 20.027V20.009L12.711 19.981V19.963L12.731 19.957V19.949L12.751 19.943L12.75 19.924L12.994 19.623L13.004 19.625L13.029 19.594L13.039 19.595V19.567L13.05 19.569L13.049 19.551L13.059 19.553V19.527L13.069 19.528L13.088 19.477L13.098 19.478V19.46L13.107 19.462V19.444L13.117 19.446V19.428L13.126 19.429V19.411L13.136 19.413V19.394L13.146 19.396L13.145 19.378L13.156 19.38V19.361L13.175 19.347V19.329L13.195 19.323L13.204 19.288L13.224 19.283L13.234 19.248L13.253 19.243V19.225L13.263 19.226V19.208L13.292 19.195L13.301 19.16L13.331 19.148V19.13L13.36 19.117L13.409 19.062V19.044L13.428 19.048L13.448 19.015L13.458 19.016V18.998L13.468 19L13.497 18.969L13.517 18.964V18.945L13.526 18.947L13.555 18.916L13.575 18.92L13.834 18.639L13.833 18.621L13.843 18.623L13.853 18.588L13.862 18.591V18.572L13.872 18.574V18.555L13.883 18.557L13.882 18.539L13.892 18.541V18.522L13.901 18.525V18.506L13.911 18.508V18.489L13.921 18.491V18.474L13.931 18.475L13.93 18.457L13.95 18.442V18.424L13.97 18.419L13.979 18.384L14.009 18.371L14.018 18.337L14.037 18.331V18.313L14.047 18.314L14.046 18.297L14.067 18.291L14.076 18.265L14.106 18.253V18.234L14.136 18.222L14.145 18.187L14.194 18.159V18.141L14.243 18.114V18.096L14.39 17.931L14.399 17.933V17.914L14.408 17.916L14.418 17.855L14.427 17.856V17.838L14.438 17.84L14.447 17.787L14.457 17.789L14.456 17.77L14.467 17.773V17.745L14.476 17.747L14.485 17.712L14.495 17.714V17.686L14.505 17.689L14.524 17.637L14.535 17.639L14.533 17.621L14.544 17.623V17.604L14.553 17.606V17.588L14.563 17.59V17.572L14.572 17.573V17.555L14.583 17.557V17.539L14.593 17.541L14.592 17.522L14.612 17.508L14.611 17.489L14.631 17.484L14.65 17.432L14.67 17.428V17.409L14.699 17.396L14.709 17.362L14.729 17.356L14.728 17.338L14.758 17.325V17.307L14.768 17.309L14.777 17.283L14.798 17.278L14.797 17.259L14.836 17.239V17.221L14.885 17.194V17.176L14.944 17.141V17.123L15.06 16.943L15.07 16.945V16.927L15.079 16.929L15.098 16.851L15.108 16.852V16.834L15.118 16.836V16.808L15.128 16.81L15.138 16.776L15.147 16.778V16.75L15.157 16.751L15.175 16.701L15.186 16.702V16.684L15.195 16.687V16.668L15.206 16.67L15.205 16.651L15.215 16.653V16.635L15.225 16.637L15.224 16.618L15.235 16.621L15.234 16.603L15.244 16.604V16.585L15.263 16.571V16.552L15.283 16.547L15.292 16.512L15.311 16.507L15.321 16.472L15.341 16.467V16.449L15.361 16.443V16.426L15.38 16.419V16.401L15.4 16.396V16.377L15.419 16.372L15.412 16.344L15.443 16.331V16.313L15.481 16.293L15.491 16.267L15.578 16.147V16.101L15.588 16.103V16.075L15.598 16.078L15.597 16.05L15.607 16.051V16.015L15.616 16.016V15.99L15.642 15.994V15.967L15.652 15.968L15.651 15.942L15.662 15.943L15.661 15.924L15.671 15.926L15.68 15.873L15.691 15.875L15.689 15.857L15.7 15.859L15.699 15.831L15.709 15.834L15.719 15.799L15.729 15.801L15.728 15.782L15.739 15.784L15.738 15.757L15.748 15.759L15.768 15.708L15.778 15.709L15.777 15.691L15.787 15.693L15.786 15.675L15.797 15.676L15.816 15.625L15.836 15.619V15.592L15.855 15.586L15.864 15.552L15.883 15.547V15.528L15.903 15.523V15.505L15.923 15.499V15.481L15.943 15.476V15.458L15.962 15.452L15.961 15.434L15.972 15.435L15.982 15.41L16.002 15.405V15.386L16.03 15.373V15.355L16.079 15.328V15.31L16.226 15.1L16.225 15.072L16.235 15.074V15.047L16.244 15.049V15.011L16.254 15.014L16.252 14.995L16.263 14.997V14.97L16.273 14.972V14.953L16.283 14.955V14.928L16.292 14.93V14.911L16.302 14.914L16.301 14.886L16.311 14.887L16.321 14.853L16.33 14.855V14.836L16.341 14.838V14.811L16.359 14.805V14.777L16.37 14.78V14.762L16.38 14.763L16.378 14.745L16.399 14.739L16.398 14.721L16.418 14.707V14.689L16.428 14.691V14.672L16.437 14.675V14.656L16.457 14.651L16.467 14.615L16.486 14.61V14.592L16.506 14.586V14.568L16.526 14.563L16.525 14.544L16.545 14.539V14.521L16.564 14.515V14.497L16.593 14.484V14.466L16.623 14.453V14.435L16.75 14.258L16.759 14.26V14.233L16.769 14.234V14.207L16.779 14.208L16.778 14.181L16.787 14.183V14.147L16.798 14.148V14.129L16.807 14.132L16.826 14.053L16.836 14.055V14.037L16.845 14.039V14.011L16.855 14.013L16.864 13.978L16.874 13.98L16.884 13.936L16.894 13.939L16.912 13.887L16.923 13.889V13.871L16.933 13.873L16.932 13.855L16.943 13.856L16.942 13.838L16.953 13.84L16.951 13.821L16.971 13.807V13.789L16.992 13.783L17 13.748L17.02 13.743L17.029 13.708L17.049 13.702L17.059 13.668L17.088 13.655L17.087 13.637L17.108 13.632V13.613L17.128 13.608L17.137 13.583L17.166 13.569V13.551L17.186 13.545V13.537L17.205 13.531V13.513L17.244 13.493V13.474L17.507 13.122V13.104L17.517 13.106V13.088L17.536 13.082V13.064L17.555 13.049V13.031L17.566 13.033V13.015L17.584 13.009L17.594 12.974L17.604 12.976L17.613 12.951L17.634 12.945L17.642 12.911L17.672 12.898V12.879L17.692 12.874V12.855L17.722 12.843V12.826L17.76 12.805V12.786L17.799 12.766V12.749L17.888 12.692V12.673L17.907 12.668L17.927 12.644L17.946 12.648L18.025 12.58L18.045 12.584L18.075 12.553L18.094 12.556L18.133 12.518L18.153 12.522L18.172 12.498L18.192 12.502L18.202 12.485L18.232 12.481V12.472L18.251 12.476L18.261 12.46L18.281 12.464L18.291 12.447L18.321 12.443V12.434L18.38 12.427L18.389 12.411L18.409 12.414L18.429 12.4L18.448 12.404V12.394L18.468 12.398V12.389L18.488 12.393L18.497 12.376L18.527 12.381V12.373L18.567 12.371V12.362L18.596 12.368V12.358L18.636 12.356L18.635 12.347L18.666 12.353V12.343L18.685 12.347V12.338L18.715 12.344V12.334L18.734 12.338V12.329L18.903 12.296L18.922 12.301L18.932 12.283L18.971 12.282L18.981 12.265L19.021 12.263V12.254L19.04 12.258V12.249L19.099 12.242V12.233L19.13 12.238L19.129 12.229L19.168 12.227V12.218L19.198 12.224V12.214L19.217 12.218V12.209L19.277 12.211V12.201L19.306 12.207V12.198L19.336 12.204V12.194L19.366 12.199V12.19L19.405 12.198L19.406 12.188L19.445 12.196V12.187L19.495 12.196V12.187L20.278 12.369V12.378L20.308 12.384V12.393L20.337 12.398L20.338 12.407L20.368 12.412V12.422L20.398 12.427V12.437L20.417 12.44V12.449L20.448 12.455V12.464L20.487 12.481V12.49L20.517 12.495V12.505L20.577 12.534V12.542L20.617 12.559L20.627 12.579L20.667 12.595L20.677 12.616L20.697 12.619L20.707 12.639L20.727 12.644L20.737 12.664L20.757 12.667L20.767 12.688L20.786 12.691L20.797 12.711L20.816 12.715L20.846 12.757L20.867 12.761L20.906 12.814L20.926 12.817L20.927 12.826L20.946 12.839V12.858L21.108 13.042L21.137 13.066L21.138 13.084L21.168 13.108V13.126L21.187 13.138L21.197 13.168L21.207 13.17V13.188L21.227 13.201L21.238 13.23L21.248 13.232V13.25L21.268 13.273V13.29L21.278 13.292V13.311L21.289 13.313V13.331L21.299 13.332V13.351L21.309 13.352V13.371L21.319 13.373L21.339 13.431L21.35 13.434V13.461L21.359 13.463V13.481L21.37 13.483V13.51L21.38 13.511V13.53L21.39 13.532V13.559L21.4 13.561V13.588L21.41 13.591L21.421 13.656L21.431 13.658L21.534 13.968L21.543 13.971L21.553 14.009L21.564 14.011L21.574 14.068L21.585 14.069V14.088L21.594 14.089L21.626 14.214L21.635 14.215V14.243L21.645 14.245L21.646 14.272L21.656 14.273L21.657 14.31L21.666 14.312L21.687 14.453V15.21L21.668 15.333L21.659 15.331V15.36L21.649 15.357V15.384L21.566 15.862L21.556 15.859L21.557 15.969L21.546 15.968L21.548 16.049L21.538 16.048V16.102L21.529 16.101L21.53 16.155L21.519 16.154L21.52 16.199L21.51 16.197L21.511 16.234L21.501 16.232L21.396 16.568L21.386 16.566L21.377 16.601L21.367 16.599L21.368 16.626L21.357 16.624L21.347 16.66L21.338 16.658V16.677L21.327 16.674L21.328 16.701L21.309 16.707V16.725L21.289 16.74L21.183 16.975L21.173 16.999L21.165 16.975L21.135 16.951L21.124 16.913L21.094 16.888V16.871L21.073 16.857V16.838L21.043 16.815L21.022 16.784L21.013 16.781V16.763L20.973 16.728L20.921 16.653L20.901 16.651L20.891 16.621L20.881 16.618V16.591L20.87 16.59V16.561L20.86 16.56V16.532L20.851 16.53V16.503L20.839 16.5V16.473L20.829 16.471L20.828 16.444L20.819 16.442L20.798 16.382L20.789 16.381V16.363L20.778 16.361V16.342L20.768 16.34L20.767 16.322L20.758 16.32V16.301L20.748 16.3L20.747 16.281L20.727 16.259V16.24L20.707 16.227L20.686 16.169L20.655 16.145V16.126L20.615 16.091L20.604 16.061L20.585 16.048V16.03L20.554 16.006V15.987L20.524 15.963L20.523 15.945L20.453 15.876L20.443 15.847L20.423 15.844L20.422 15.825L20.381 15.799L20.332 15.735L20.311 15.731V15.721L20.262 15.684V15.665L20.23 15.651V15.642L20.201 15.627L20.19 15.607L20.129 15.578L20.119 15.557L20.09 15.542L20.089 15.533L20.07 15.53L20.049 15.507L20.029 15.504V15.494L20.009 15.491L19.998 15.47L19.978 15.467V15.458L19.958 15.454L19.938 15.431L19.917 15.428L19.907 15.407L19.818 15.363L19.817 15.353L19.797 15.35V15.341L19.736 15.321L19.506 15.213L19.396 15.183V15.175L19.075 15.106L18.476 15.114L18.445 15.108V15.118L18.385 15.126V15.134L18.346 15.137L18.336 15.153L18.316 15.149V15.158L18.296 15.154L18.295 15.164L18.276 15.16L18.255 15.175L18.236 15.171L18.226 15.188L18.166 15.195L18.147 15.219L18.106 15.221L18.098 15.238L18.067 15.241V15.251L18.037 15.254L18.038 15.273L17.986 15.292L17.987 15.3L17.968 15.297L17.918 15.343L17.878 15.354V15.371L17.849 15.376V15.394L17.828 15.399L17.829 15.409L17.809 15.405L17.76 15.451L17.759 15.469L17.75 15.468L17.73 15.501L17.71 15.497L17.701 15.522H17.691L17.682 15.547L17.661 15.553L17.652 15.588L17.622 15.601L17.602 15.652L17.582 15.658L17.583 15.676L17.562 15.691L17.563 15.709L17.553 15.708V15.726L17.543 15.725V15.743L17.533 15.741V15.759L17.524 15.758V15.776L17.514 15.773L17.495 15.826L17.484 15.824L17.388 16.109L17.371 16.29L17.359 16.289L17.352 16.499L17.362 16.501L17.375 16.687L17.385 16.69L17.396 16.802L17.405 16.803L17.406 16.84L17.417 16.842V16.879L17.427 16.881V16.918L17.437 16.92L17.438 16.947L17.448 16.949V16.977L17.458 16.979V17.007L17.468 17.008V17.036L17.479 17.038V17.066L17.489 17.068V17.095L17.499 17.098V17.125L17.51 17.127L17.531 17.185L17.54 17.188L17.541 17.206L17.55 17.207L17.551 17.226L17.562 17.228V17.246L17.572 17.248V17.266L17.582 17.268V17.287L17.602 17.309V17.328L17.623 17.341L17.642 17.4L17.672 17.424L17.683 17.463L17.704 17.476L17.714 17.505L17.724 17.506L17.734 17.536L17.755 17.54V17.558L17.785 17.583V17.601L17.805 17.613V17.633L17.836 17.656V17.666L17.856 17.67L17.876 17.691L17.887 17.721L17.927 17.756V17.783L17.937 17.786V17.814L17.947 17.816L17.948 17.843L17.958 17.846V17.873L17.968 17.874L17.969 17.893L17.979 17.895L17.989 17.952L17.999 17.954L18.02 18.013L18.03 18.014V18.033L18.041 18.035V18.053L18.05 18.056V18.074L18.061 18.076V18.094L18.081 18.116V18.135L18.1 18.147L18.121 18.207L18.152 18.231L18.163 18.27L18.182 18.282L18.192 18.312L18.235 18.347V18.366L18.284 18.411V18.43L18.356 18.498L18.365 18.528L18.385 18.531L18.417 18.602L18.438 18.689L18.448 18.691V18.709L18.457 18.711V18.739L18.468 18.74L18.488 18.798L18.498 18.801L18.499 18.82L18.509 18.822V18.84L18.519 18.842L18.52 18.86L18.529 18.862V18.89L18.55 18.903L18.56 18.942L18.581 18.954L18.6 19.013L18.622 19.026V19.045L18.641 19.058L18.653 19.097L18.672 19.109V19.128L18.712 19.163V19.181L18.754 19.217V19.235L18.783 19.259L18.794 19.28L18.815 19.283V19.292L18.834 19.305V19.324L18.864 19.339L18.875 19.368L18.895 19.371L18.905 19.392L18.915 19.393V19.413L18.935 19.426L18.946 19.482L18.957 19.485V19.503L18.966 19.505V19.533L18.977 19.534L18.998 19.594L19.007 19.595L19.008 19.614L19.018 19.616V19.634L19.028 19.635V19.654L19.039 19.656V19.674L19.048 19.676V19.695L19.068 19.717L19.069 19.736L19.089 19.749L19.109 19.808L19.141 19.831L19.15 19.861L19.161 19.863V19.881L19.191 19.905V19.924L19.231 19.959L19.232 19.977L19.273 20.012V20.031L19.343 20.099L19.353 20.128L19.373 20.132V20.151L19.404 20.165V20.175L19.455 20.221V20.24L19.475 20.253V20.271L19.485 20.273V20.292L19.496 20.293V20.321L19.506 20.323L19.535 20.398H19.532L19.522 20.451L19.512 20.449V20.466L19.503 20.465L19.504 20.492L19.493 20.49L19.494 20.518L19.484 20.517V20.535L19.474 20.532V20.56L19.464 20.558L19.455 20.593L19.445 20.59V20.618L19.436 20.616L19.416 20.668L19.406 20.666V20.684L19.397 20.682V20.709L19.378 20.715V20.733L19.367 20.731V20.759L19.348 20.765V20.783L19.338 20.781L19.339 20.799L19.319 20.814V20.832L19.3 20.837L19.28 20.888L19.261 20.894V20.912L19.231 20.925L19.222 20.959L19.193 20.972V20.991L19.173 20.996L19.163 21.022L19.153 21.02L19.154 21.038L19.124 21.051V21.07L19.076 21.115L18.964 21.267L18.949 21.292L18.939 21.29V21.317L18.929 21.315V21.352L18.92 21.35V21.378L18.91 21.376L18.895 21.4L18.885 21.398V21.426L18.875 21.424V21.451L18.865 21.45V21.468L18.856 21.466V21.494L18.847 21.491V21.51L18.836 21.508L18.811 21.558L18.802 21.556L18.791 21.591L18.782 21.589V21.608L18.773 21.605V21.633L18.762 21.631L18.742 21.638L18.749 21.64V21.658L18.739 21.656L18.719 21.707L18.701 21.712L18.681 21.764L18.662 21.77L18.643 21.82L18.623 21.826V21.844L18.603 21.849V21.867L18.583 21.874L18.584 21.891L18.574 21.89L18.564 21.916L18.544 21.921V21.939L18.515 21.952L18.516 21.97L18.496 21.976V21.994L18.476 21.999L18.492 22.012L18.472 22.017V22.035L18.433 22.1L18.435 22.117L18.365 22.159V22.178L18.326 22.197L18.121 22.46L18.112 22.458L18.101 22.493L18.092 22.492V22.509L18.083 22.508V22.536L18.073 22.533L18.053 22.584L18.043 22.583V22.6L18.034 22.599L18.035 22.617L18.024 22.616L18.025 22.634L18.015 22.632V22.65L17.995 22.664V22.683L17.976 22.689L17.977 22.716L17.966 22.714L17.957 22.74L17.936 22.744L17.927 22.78L17.907 22.786V22.803L17.898 22.801V22.82L17.878 22.826V22.844L17.849 22.857L17.84 22.891L17.809 22.904V22.922L17.78 22.935V22.953L17.761 22.958V22.977L17.722 22.997V23.015L17.672 23.043V23.061L17.524 23.243L17.513 23.241L17.514 23.278L17.504 23.275V23.294L17.495 23.292L17.459 23.368L17.449 23.365L17.44 23.41L17.43 23.408V23.426L17.421 23.424V23.451L17.411 23.45L17.392 23.501L17.381 23.499L17.382 23.517L17.372 23.516V23.535L17.362 23.532V23.559L17.343 23.565V23.592L17.324 23.598V23.615L17.314 23.614V23.633L17.304 23.63L17.305 23.649L17.294 23.646L17.295 23.665L17.276 23.68V23.698L17.256 23.703L17.246 23.738L17.226 23.744L17.217 23.779L17.187 23.792L17.178 23.826L17.148 23.838L17.139 23.865L17.119 23.87L17.11 23.905L17.08 23.917V23.935L17.031 23.963V23.981L16.982 24.009V24.027L16.816 24.215L16.807 24.24L16.798 24.239V24.276L16.787 24.273L16.779 24.308L16.769 24.306L16.759 24.359L16.75 24.357L16.739 24.401L16.73 24.399L16.72 24.434L16.71 24.431V24.45L16.7 24.448V24.476L16.69 24.473L16.671 24.525L16.662 24.523V24.541L16.652 24.54L16.633 24.591L16.614 24.596V24.615L16.594 24.629V24.648L16.584 24.645V24.664L16.575 24.662V24.68L16.556 24.686L16.546 24.72L16.526 24.726V24.744L16.506 24.75V24.768L16.486 24.773L16.487 24.791L16.468 24.797V24.815L16.448 24.82V24.839L16.419 24.851L16.42 24.87L16.4 24.876V24.894L16.36 24.914V24.932L16.311 24.959V24.978L16.272 24.998V25.007L16.252 25.013L16.082 25.227L16.073 25.243L16.054 25.295L16.044 25.293L16.035 25.328L16.025 25.326V25.353L16.014 25.352L16.015 25.369L16.005 25.368V25.395L15.995 25.393L15.961 25.442L15.951 25.44V25.458L15.942 25.456V25.484L15.922 25.489V25.507L15.903 25.522L15.902 25.54L15.893 25.538V25.556L15.883 25.555V25.573L15.864 25.588V25.606L15.844 25.611L15.834 25.646L15.815 25.652V25.67L15.796 25.675V25.693L15.776 25.699L15.766 25.734L15.737 25.746L15.727 25.781L15.698 25.794L15.649 25.849V25.867L15.63 25.863L15.61 25.896L15.6 25.894V25.912L15.58 25.918L15.581 25.926L15.561 25.933V25.951L15.453 26.023L15.454 26.04L15.434 26.045L15.385 26.091L15.365 26.088L15.355 26.104L15.042 26.392L15.032 26.39V26.409L15.023 26.408L15.024 26.425L15.003 26.44V26.458L14.984 26.463L14.974 26.498L14.954 26.504L14.945 26.538L14.915 26.55L14.907 26.586L14.877 26.599L14.867 26.633L14.837 26.645L14.838 26.664L14.808 26.677L14.81 26.695L14.769 26.715L14.76 26.742L14.749 26.739V26.758L14.731 26.753L14.535 26.936L14.515 26.933L14.505 26.949L14.427 26.989V27.008L14.416 27.005L14.377 27.025L14.378 27.035L14.358 27.031V27.049L14.318 27.061V27.069L14.299 27.065L14.289 27.082L14.279 27.081L14.269 27.097L14.073 27.288L14.054 27.294L14.044 27.328L14.025 27.334V27.352L14.005 27.358V27.376L13.985 27.382V27.4L13.966 27.405V27.423L13.946 27.429V27.447L13.917 27.46V27.478L13.898 27.484V27.501L13.878 27.507V27.516L13.859 27.522V27.54L13.82 27.56V27.578L13.751 27.62V27.639L13.682 27.681L13.673 27.706L13.653 27.703L13.643 27.728L13.614 27.733L13.526 27.788L13.271 28.042L13.232 28.089V28.108L13.212 28.112L13.203 28.148L13.183 28.153L13.184 28.171L13.163 28.177L13.145 28.201V28.219L13.125 28.224L13.109 28.226L13.089 28.231V28.249L13.07 28.255V28.272L13.041 28.285L12.992 28.34V28.359L12.972 28.355L12.963 28.38L12.933 28.393V28.412L12.884 28.439L12.698 28.577V28.596L12.679 28.61L12.659 28.607L12.639 28.63L12.54 28.676L12.541 28.694L12.512 28.698L12.452 28.723L12.433 28.747L12.413 28.743L12.383 28.756L12.374 28.772L12.37 28.786L12.361 28.803L12.291 28.818V28.836L12.252 28.838V28.847L12.232 28.843L12.223 28.859L12.202 28.856V28.865L12.183 28.86L12.164 28.867L11.564 29.257L11.545 29.253L11.515 29.284L11.496 29.281V29.289L11.466 29.302L11.456 29.319L11.436 29.316L11.427 29.332L11.407 29.328L11.387 29.351L11.367 29.348L11.348 29.372L11.308 29.374L11.289 29.397L11.269 29.394L11.26 29.41L11.22 29.411L11.21 29.428L11.171 29.431L11.161 29.447L11.14 29.443L11.122 29.458L11.101 29.453V29.463L11.082 29.459L11.072 29.476L11.032 29.477L11.033 29.487L11.013 29.483V29.491L10.953 29.499L10.954 29.509L10.923 29.503V29.511L10.905 29.509V29.518L10.845 29.524V29.534L10.786 29.532V29.541L10.767 29.537V29.547L10.677 29.548V29.557L10.658 29.554V29.562L10.618 29.556V29.564L10.588 29.559V29.568L10.559 29.562V29.572L10.529 29.567V29.576L10.49 29.568L10.322 29.583L10.223 29.574V29.583L9.629 29.5V29.49L9.419 29.443L9.022 29.296V29.287L8.893 29.236V29.227L8.873 29.223V29.214L8.844 29.209V29.199L8.784 29.179V29.17L8.763 29.166V29.158L8.734 29.151V29.143L8.694 29.126V29.117L8.674 29.113V29.104L8.644 29.099V29.09L8.604 29.073V29.063L8.584 29.06V29.052L8.554 29.046L8.543 29.025L8.525 29.022V29.013L8.505 29.009V29L8.485 28.996V28.986L8.465 28.983L8.444 28.962L8.425 28.958L8.414 28.938L8.355 28.908L8.345 28.888L8.305 28.873L8.285 28.84L8.265 28.837L8.254 28.817L8.235 28.813L8.234 28.805L8.205 28.79L8.195 28.77L8.175 28.766L8.155 28.734L8.135 28.731L8.126 28.711L8.105 28.707L8.086 28.676L8.065 28.673L8.025 28.62L8.006 28.615L7.954 28.552L7.935 28.548L7.805 28.396L7.725 28.318V28.299L7.654 28.232V28.213L7.614 28.179V28.161L7.574 28.125V28.108L7.554 28.094V28.077L7.523 28.053V28.034L7.504 28.022L7.493 27.992L7.484 27.991L7.483 27.972L7.464 27.959V27.941L7.444 27.928V27.91L7.424 27.897L7.403 27.838L7.382 27.826L7.362 27.767L7.342 27.754L7.332 27.716L7.321 27.714V27.696L7.311 27.694V27.676L7.301 27.674V27.656L7.291 27.654L7.29 27.635L7.281 27.633V27.606L7.262 27.594L7.261 27.566L7.25 27.564L7.241 27.527L7.231 27.524L7.23 27.497L7.22 27.495L7.21 27.457L7.2 27.454L7.189 27.398L7.179 27.397V27.378L7.169 27.376V27.34L7.159 27.337V27.32L7.149 27.317V27.281L7.139 27.279V27.252L7.129 27.25L7.128 27.223L7.118 27.221L7.107 27.155L7.097 27.154L7.087 27.069L7.077 27.067V27.031L7.067 27.029V26.993L7.056 26.991L7.055 26.936L7.045 26.934L7.034 26.805L7.024 26.803L7 26.452L7.01 26.454L7.027 26.119L7.036 26.121V26.066L7.045 26.068V26.013L7.055 26.016L7.064 25.935L7.073 25.937V25.891L7.083 25.893L7.082 25.857L7.093 25.858L7.101 25.796L7.111 25.798V25.771L7.121 25.772V25.745L7.13 25.747V25.71L7.14 25.712L7.139 25.694L7.15 25.696L7.169 25.616L7.178 25.618L7.188 25.584L7.198 25.586L7.207 25.533L7.217 25.535L7.237 25.484L7.247 25.486V25.468L7.256 25.469L7.265 25.425L7.285 25.419L7.294 25.376L7.315 25.371L7.314 25.353L7.333 25.338V25.319L7.344 25.322V25.302L7.353 25.305V25.286L7.372 25.282L7.392 25.229L7.402 25.231L7.411 25.206L7.43 25.201V25.183L7.45 25.177V25.159L7.48 25.145L7.489 25.111L7.518 25.099V25.08L7.548 25.067L7.547 25.049L7.596 25.022V25.004L7.646 24.976V24.958L7.685 24.938V24.919L7.744 24.894V24.876L7.813 24.834L7.822 24.817L7.842 24.821L7.862 24.807L7.861 24.788L7.96 24.743V24.724L8.038 24.694L8.048 24.678L8.068 24.681L8.088 24.657L8.107 24.661L8.127 24.637L8.147 24.64L8.156 24.624L8.186 24.62V24.611L8.205 24.615L8.214 24.598L8.235 24.603L8.244 24.586L8.264 24.59L8.52 24.418L8.665 24.263L8.676 24.264L8.745 24.195L8.754 24.197V24.179L8.793 24.15L8.823 24.146L8.892 24.086L9.177 23.883V23.865L9.195 23.841L9.215 23.828V23.809H9.225V23.793L9.244 23.787V23.769L9.264 23.754L9.263 23.736L9.283 23.731V23.712L9.303 23.707V23.688L9.321 23.664L9.342 23.659L9.391 23.604L9.449 23.542V23.524L9.469 23.528L9.52 23.501L9.53 23.502V23.484L9.569 23.464V23.455L9.589 23.449V23.43L9.647 23.397L9.763 23.272L9.782 23.275L9.841 23.222L9.861 23.227L9.881 23.174L9.9 23.177L9.939 23.139L9.959 23.142L9.969 23.126L9.988 23.13L10.009 23.106L10.093 23.049L10.11 23.035L10.121 23.027L10.2 22.943L10.21 22.908L10.219 22.91L10.229 22.885L10.249 22.878V22.861L10.268 22.855V22.837L10.308 22.817L10.317 22.782L10.336 22.776L10.347 22.751L10.396 22.724V22.706L10.445 22.679V22.66L10.542 22.596L10.552 22.57L10.927 22.185L10.947 22.178L10.966 22.128L10.985 22.122L11.005 22.071L11.015 22.072L11.025 22.046L11.044 22.042L11.053 22.007L11.083 21.995L11.093 21.96L11.122 21.947V21.928L11.152 21.916L11.151 21.898L11.171 21.892V21.874L11.221 21.847L11.22 21.828L11.269 21.801V21.784L11.693 21.181L11.707 21.162L11.726 21.157L11.736 21.121L11.756 21.117L11.765 21.082L11.785 21.076L11.784 21.059L11.804 21.053V21.034L11.824 21.029L11.823 21.01L11.843 21.005V20.987L11.872 20.974V20.956L11.902 20.943L11.901 20.925L11.951 20.897L11.95 20.879L12 20.852V20.834L12.039 20.813L12.038 20.795L12.059 20.78L12.079 20.785" fill="#00B8AC"/>
<path d="M19.546 20.358L19.574 20.253L19.594 20.257L19.624 20.133L19.643 20.127L19.653 20.101L19.663 20.103L19.673 20.078L19.692 20.081L19.732 20.014L19.752 20.019L19.79 19.943L19.811 19.946L19.849 19.861L19.87 19.866L19.909 19.798V19.771L19.929 19.766V19.738L19.948 19.733L19.958 19.689L19.968 19.69L19.967 19.672L19.987 19.666L19.997 19.613L20.017 19.616L20.027 19.554L20.046 19.547L20.055 19.477L20.075 19.47L20.084 19.399L20.104 19.393L20.103 19.347L20.114 19.349V19.312L20.134 19.307L20.142 19.198L20.162 19.192L20.16 19.119L20.171 19.12V19.093L20.181 19.095L20.19 19.05L20.201 19.052L20.22 19.046L20.229 19.002L20.259 18.999V18.971L20.278 18.975L20.289 18.93L20.319 18.927L20.318 18.899L20.339 18.903L20.358 18.841L20.378 18.846L20.387 18.792L20.407 18.796L20.476 18.643L20.495 18.646L20.504 18.593L20.525 18.596L20.534 18.534L20.554 18.538L20.562 18.457L20.583 18.46L20.612 18.337L20.622 18.338L20.631 18.248L20.65 18.243L20.659 18.115L20.679 18.11V18.073L20.688 18.074L20.718 18.016L20.738 18.019L20.767 17.997L20.816 17.896L20.836 17.9L20.875 17.814L20.895 17.818L21.166 17.049L21.177 17.051L21.184 17.03L21.192 17.031V17.05L21.204 17.052L21.205 17.07L21.214 17.072V17.09L21.225 17.092V17.111L21.235 17.113V17.131L21.245 17.132V17.151L21.254 17.153V17.171L21.265 17.173L21.285 17.231L21.294 17.233L21.476 17.549L21.477 17.568L21.517 17.602V17.621L21.546 17.644V17.662L21.577 17.686V17.705L21.598 17.718V17.736L21.618 17.749L21.628 17.778L21.638 17.779V17.797L21.657 17.82V17.838L21.668 17.84V17.858L21.688 17.871L21.698 17.909L21.708 17.911L21.729 17.969L21.739 17.972L21.74 17.999L21.75 18.001L21.759 18.039L21.77 18.041L21.94 18.282V18.301L21.991 18.346V18.365L22.031 18.4V18.417L22.061 18.441V18.459L22.081 18.473L22.082 18.491L22.111 18.515V18.533L22.131 18.546L22.142 18.584L22.161 18.597L22.182 18.655L22.202 18.668L22.213 18.706L22.223 18.708L22.232 18.746L22.243 18.748V18.776L22.254 18.778L22.263 18.816L22.273 18.818L22.284 18.866L22.294 18.867L22.465 19.108V19.127L22.514 19.173L22.515 19.191L22.545 19.215V19.233L22.575 19.256V19.275L22.595 19.287L22.606 19.317L22.615 19.319V19.337L22.635 19.349L22.646 19.389L22.665 19.401L22.686 19.459L22.696 19.461V19.479L22.706 19.482V19.499L22.717 19.501V19.52L22.727 19.522L22.747 19.58L22.757 19.582V19.609L22.767 19.611V19.63L22.776 19.632L22.778 19.659L22.788 19.66L22.789 19.679L22.798 19.681V19.708L22.808 19.71V19.737L22.819 19.74V19.767L22.829 19.768L22.888 19.861L22.939 19.935L22.949 19.937L22.959 19.966L22.989 19.99V20.008L23.01 20.021V20.039L23.039 20.063V20.081L23.059 20.094L23.07 20.123L23.08 20.125L23.091 20.163L23.11 20.177V20.194L23.13 20.216V20.235L23.141 20.236V20.255L23.15 20.257V20.274L23.17 20.288L23.171 20.315L23.182 20.317V20.335L23.19 20.337L23.201 20.376L23.212 20.377V20.405L23.222 20.407V20.424L23.232 20.426L23.242 20.474L23.253 20.476V20.503L23.263 20.505L23.384 20.719L23.423 20.754L23.424 20.772L23.454 20.796V20.814L23.474 20.826V20.845L23.544 20.958L23.565 20.972V20.99L23.584 21.012L23.586 21.03L23.595 21.032L23.596 21.05L23.605 21.052V21.07L23.615 21.071V21.09L23.626 21.092L23.646 21.15L23.656 21.152L23.827 21.394L23.846 21.425L23.857 21.426V21.445L23.897 21.48V21.498L23.927 21.521V21.54L23.958 21.564V21.582L23.978 21.595V21.613L23.998 21.626L24.008 21.654L24.017 21.657L24.029 21.695L24.048 21.708L24.059 21.747L24.109 21.847H24.123L24.121 21.856L24.091 21.869V21.879L24.072 21.875V21.884L24.052 21.88L24.032 21.905L24.021 21.902V21.921L24.012 21.92L24.001 21.936L23.981 21.932L23.972 21.958L23.942 21.981L23.931 21.978V21.988L23.912 21.984V21.993L23.882 22.006V22.025L23.863 22.031V22.049L23.823 22.069L23.773 22.106V22.124L23.762 22.123V22.142L23.734 22.155V22.164L23.713 22.16L23.704 22.177L23.663 22.178L23.564 22.206L23.534 22.229V22.238L23.513 22.234L23.514 22.243L23.492 22.24L23.473 22.263L23.453 22.26L23.443 22.276L23.423 22.273L23.363 22.326L23.344 22.323L23.314 22.354L23.284 22.358L23.274 22.384L23.244 22.388V22.406L23.214 22.429L23.204 22.427L23.205 22.437L23.174 22.44L23.165 22.456L23.134 22.45L23.125 22.467L23.105 22.463V22.473L23.083 22.469L23.085 22.479L23.044 22.47V22.48L22.983 22.488V22.497L22.954 22.492L22.955 22.501L22.934 22.497L22.925 22.513L22.884 22.516L22.779 22.583L22.64 22.65L22.415 22.761L22.384 22.784L22.265 22.891L22.236 22.913L22.146 22.924L22.125 22.948L22.035 22.959L22.026 22.976L21.986 22.977L21.966 23.003L21.946 22.998L21.935 23.015L21.895 23.017L21.876 23.041L21.836 23.061L21.816 23.057V23.077L21.795 23.071L21.777 23.097L21.756 23.092V23.102L21.735 23.098V23.107L21.715 23.113L21.716 23.131L21.696 23.137L21.697 23.146L21.656 23.148L21.646 23.164L21.442 23.181L21.324 23.035L21.294 23.012L21.284 22.983L21.243 22.947V22.93L21.213 22.906V22.887L21.183 22.864V22.845L21.163 22.832V22.814L21.143 22.801L21.133 22.763L21.113 22.75L21.102 22.711L21.091 22.71L21.082 22.671L21.072 22.67V22.651L21.061 22.649L21.045 22.628L21.036 22.626L20.945 22.5L20.871 22.414V22.404L20.831 22.37V22.352L20.731 22.251V22.233L20.706 22.201V22.182L20.686 22.169V22.151L20.665 22.138V22.12L20.645 22.108V22.09L20.626 22.077V22.059L20.605 22.045V22.027L20.595 22.026L20.585 21.987L20.565 21.974L20.555 21.936L20.545 21.935L20.508 21.872L20.498 21.871V21.843L20.489 21.842L20.479 21.802H20.468L20.277 21.538V21.519L20.227 21.474L20.226 21.455L20.196 21.432V21.413L20.167 21.39L20.166 21.372L20.147 21.359V21.341L20.126 21.328L20.116 21.299L20.107 21.297L20.086 21.238L20.066 21.226L19.864 20.869L19.854 20.839L19.773 20.761V20.743L19.733 20.708V20.69L19.693 20.655L19.692 20.637L19.673 20.624L19.663 20.595L19.653 20.593V20.575L19.632 20.562V20.544L19.613 20.531L19.612 20.512L19.592 20.499L19.591 20.481L19.542 20.408V20.403L19.546 20.404V20.358Z" fill="#B1C13E"/>
<path d="M19.496 20.321L19.495 20.293L19.485 20.292V20.273L19.475 20.271V20.253L19.455 20.24V20.221L19.404 20.175V20.165L19.373 20.151V20.132L19.353 20.128L19.343 20.099L19.273 20.031V20.012L19.233 19.977L19.232 19.959L19.191 19.924V19.905L19.161 19.881V19.863L19.15 19.861L19.141 19.831L19.11 19.808L19.089 19.749L19.069 19.736L19.068 19.717L19.048 19.695V19.676L19.039 19.674V19.656L19.028 19.654V19.635L19.018 19.634V19.616L19.008 19.614L19.007 19.594H18.998L18.976 19.534L18.967 19.533V19.505L18.957 19.503V19.485L18.946 19.482L18.834 19.324V19.305L18.815 19.292V19.283L18.795 19.28L18.783 19.259L18.754 19.235V19.217L18.712 19.181V19.163L18.671 19.128V19.109L18.653 19.097L18.641 19.058L18.622 19.045V19.026L18.601 19.013L18.581 18.954L18.56 18.942L18.549 18.903L18.529 18.89V18.862L18.52 18.86L18.519 18.842L18.509 18.84V18.822L18.499 18.82L18.498 18.801L18.488 18.798L18.468 18.74L18.457 18.739V18.711L18.448 18.709L18.449 18.691L18.438 18.689L18.284 18.43V18.411L18.234 18.366V18.347L18.192 18.312L18.182 18.282L18.163 18.27L18.152 18.231L18.121 18.207L18.1 18.147L18.08 18.135V18.116L18.061 18.094V18.076L18.05 18.074V18.056L18.041 18.053V18.035L18.03 18.033V18.014L18.02 18.013L17.998 17.954L17.989 17.952L17.979 17.895L17.969 17.893L17.958 17.873L17.948 17.843L17.887 17.721L17.855 17.67L17.836 17.666V17.656L17.805 17.633V17.613L17.785 17.601V17.583L17.755 17.558V17.54L17.734 17.536L17.724 17.506L17.714 17.505L17.704 17.476L17.683 17.463L17.672 17.424L17.643 17.4L17.623 17.341L17.602 17.328V17.309L17.582 17.287V17.268L17.571 17.266V17.248L17.562 17.246V17.228L17.551 17.226L17.55 17.207L17.541 17.206L17.54 17.188L17.531 17.185L17.509 17.127L17.499 17.125V17.098L17.49 17.095L17.489 17.068L17.479 17.066V17.038L17.468 17.036V17.008L17.458 17.007V16.979L17.448 16.977V16.949L17.438 16.947L17.437 16.92L17.427 16.918V16.881L17.417 16.879V16.842L17.406 16.84L17.405 16.803L17.396 16.802L17.385 16.69L17.375 16.687L17.362 16.501L17.352 16.499L17.359 16.289L17.371 16.29L17.388 16.109L17.484 15.824L17.495 15.826L17.514 15.773L17.524 15.776V15.758L17.533 15.759V15.741L17.543 15.743V15.725L17.553 15.726V15.708L17.563 15.709V15.691L17.583 15.676L17.582 15.658L17.602 15.652L17.622 15.601L17.652 15.588L17.661 15.553L17.682 15.547L17.691 15.522H17.701L17.71 15.497L17.73 15.501L17.75 15.468L17.759 15.469L17.76 15.451L17.809 15.405L17.829 15.409V15.399L17.849 15.394V15.376L17.878 15.371V15.354L17.918 15.343L17.968 15.297L17.987 15.3L17.986 15.292L18.038 15.273L18.037 15.254L18.067 15.251V15.241L18.097 15.238L18.106 15.221L18.146 15.219L18.166 15.195L18.226 15.188L18.236 15.171L18.255 15.175L18.276 15.16L18.295 15.164L18.296 15.154L18.316 15.158V15.149L18.336 15.153L18.346 15.137L18.385 15.134V15.126L18.445 15.118V15.108L18.476 15.114L19.075 15.106L19.395 15.175V15.183L19.506 15.213L19.736 15.321L19.797 15.341V15.35L19.817 15.353L19.818 15.363L19.908 15.407L19.918 15.428L19.938 15.431L19.958 15.454L19.978 15.458V15.467L19.998 15.47L20.009 15.491L20.029 15.494V15.504L20.049 15.507L20.07 15.53L20.089 15.533V15.542L20.119 15.557L20.129 15.578L20.19 15.607L20.201 15.627L20.23 15.642V15.651L20.261 15.665V15.684L20.311 15.721V15.731L20.332 15.735L20.381 15.799L20.422 15.825L20.423 15.844L20.443 15.847L20.453 15.876L20.523 15.945L20.524 15.963L20.554 15.987V16.006L20.585 16.03V16.048L20.604 16.061L20.615 16.091L20.655 16.126V16.145L20.686 16.169L20.707 16.227L20.727 16.24V16.259L20.747 16.281L20.748 16.3L20.758 16.301V16.32L20.767 16.322V16.34L20.778 16.342V16.361L20.789 16.363V16.381L20.798 16.382L20.829 16.444L21.013 16.763V16.781L21.022 16.784L21.043 16.815L21.073 16.838V16.857L21.094 16.871V16.888L21.124 16.913L21.135 16.951L21.165 16.975L21.173 16.999V17.001L21.174 17.002L21.184 17.014V17.03L21.177 17.051L21.166 17.049L20.895 17.818L20.875 17.814L20.836 17.899L20.816 17.896L20.767 17.997L20.65 18.243L20.631 18.248L20.622 18.338L20.612 18.337L20.583 18.46L20.563 18.457L20.554 18.537L20.534 18.534L20.525 18.596L20.504 18.593L20.495 18.646L20.476 18.643L20.407 18.796L20.387 18.792L20.378 18.846L20.358 18.842L20.339 18.903L20.319 18.927L20.279 18.975L20.259 18.999L20.162 19.192L20.134 19.307L20.114 19.312V19.349L20.103 19.347L20.104 19.393L20.084 19.399L20.075 19.47L20.055 19.477L20.046 19.547L20.027 19.554L20.017 19.616L19.997 19.613L19.987 19.666L19.967 19.672L19.968 19.69L19.958 19.689L19.948 19.733L19.928 19.738L19.929 19.766L19.909 19.771V19.798L19.871 19.866L19.849 19.861L19.811 19.946L19.79 19.943L19.752 20.019L19.594 20.257L19.546 20.358V20.404L19.542 20.403V20.399L19.535 20.398L19.506 20.323L19.496 20.321Z" fill="#009193"/>
<path d="M27.51 24.2879L27.499 24.2489L27.469 24.2249L27.458 24.1759L27.448 24.1749L27.407 24.1109L27.275 24.0229V24.0039L27.245 23.9889L27.236 23.9689L27.215 23.9649L27.184 23.9229L27.163 23.9179L27.113 23.8629L27.092 23.8309L27.072 23.8279L27.042 23.7749L27.022 23.7719L26.97 23.6979L26.96 23.6959V23.6769L26.899 23.6199L26.898 23.6009L26.879 23.5879V23.5699L26.858 23.5569V23.5379L26.818 23.5189L26.746 23.3599L26.725 23.3559L26.642 23.1649L26.622 23.1519V23.1339L26.612 23.1309L26.602 23.0739L26.592 23.0709L26.591 23.0439L26.581 23.0429L26.58 23.0139L26.571 23.0129V22.9849L26.561 22.9839L26.559 22.9459L26.551 22.9439L26.539 22.8869L26.528 22.8849V22.8669L26.519 22.8639V22.8269L26.508 22.8259L26.507 22.7699L26.498 22.7679L26.497 22.7209L26.488 22.7189L26.486 22.6449L26.476 22.6439L26.329 22.1359L26.318 22.0409L26.308 22.0389V22.0209L26.298 22.0189L26.296 21.9539L26.277 21.9399L26.276 21.8379L26.256 21.8259L26.252 21.5379L26.271 21.5329V21.4309L26.291 21.4339L26.299 21.3439L26.31 21.3449V21.3089L26.32 21.3099L26.319 21.2639L26.339 21.2579V21.2209L26.359 21.2159L26.369 21.1529L26.389 21.1569L26.417 21.0599L26.438 21.0629L26.436 21.0369L26.457 21.0399L26.537 20.9159L26.557 20.9189L26.586 20.8599L26.605 20.8639V20.8449L26.625 20.8489L26.674 20.7839L26.694 20.7869V20.7689L26.725 20.7739L26.755 20.7519L26.754 20.7339L26.774 20.7379V20.7199L26.795 20.7229L26.814 20.6989L26.835 20.7019L26.844 20.6859L26.874 20.6819V20.6629L26.925 20.6359L27.014 20.6249V20.6059L27.115 20.5979L27.114 20.5779L27.204 20.5679L27.236 20.5739V20.5639L27.256 20.5679V20.5579L27.295 20.5659L27.305 20.5489L27.415 20.5599L27.425 20.5439L27.516 20.5599L27.526 20.5439L27.686 20.5739L27.708 20.5679L27.979 20.6279V20.6469L28.2 20.7149L28.201 20.7339L28.251 20.7429L28.253 20.7609L28.416 20.8119L28.809 21.0249L28.877 21.0629V21.0709L28.918 21.0789L28.927 21.0989L28.967 21.1069V21.1169L28.998 21.1219V21.1309L29.029 21.1369V21.1459L29.069 21.1539V21.1629L29.211 21.2259V21.2449L29.413 21.3559V21.3739L29.447 21.3909L29.484 21.4379V21.4429L29.505 21.4469L29.515 21.4949L29.526 21.4969V21.5339L29.536 21.5359V21.5539L29.546 21.5559V21.5839L29.557 21.5859V21.6239L29.568 21.6249V21.6429L29.578 21.6449V21.6919L29.597 21.7049L29.598 21.7699L29.619 21.7839L29.62 21.8669L29.64 21.8789L29.643 22.0359L29.664 22.1619L29.654 22.1589V22.1969L29.645 22.1949L29.646 22.3519L29.625 22.3579L29.626 22.4409L29.607 22.4459V22.5119L29.587 22.5169L29.588 22.5639L29.578 22.5619V22.5799L29.568 22.5789V22.6159L29.558 22.6129V22.6319L29.549 22.6299L29.538 22.6929L29.529 22.6909L29.52 22.7359L29.5 22.7319V22.7689L29.48 22.7659L29.481 22.8019L29.46 22.7989L29.442 22.8599L29.421 22.8569L29.402 22.9079L29.372 22.9209V22.9489L29.333 22.9969L29.312 22.9929L29.313 23.0119L29.292 23.0089V23.0269L29.273 23.0229L29.203 23.1119L29.182 23.1079L29.183 23.1269L29.093 23.1659V23.1839L29.033 23.2009L29.034 23.2199L28.864 23.3449L28.843 23.3419L28.844 23.3699L28.824 23.3749V23.3929L28.794 23.4069V23.4249L28.764 23.4379V23.4569L28.725 23.4769L28.706 23.5009V23.5189L28.685 23.5159L28.644 23.5549L28.636 23.5529V23.5709L28.606 23.5849L28.595 23.6009L28.577 23.5979L28.256 23.8339L28.248 23.8319L28.237 23.8579L28.217 23.8629V23.8829L28.199 23.8879V23.9059L28.179 23.9119V23.9309L28.149 23.9439V23.9619L28.119 23.9749L28.108 24.0019L28.068 24.0209L28.009 24.0659L28.01 24.0839L27.979 24.0879L27.919 24.1419L27.9 24.1379L27.889 24.1559L27.869 24.1509L27.84 24.1819L27.809 24.1859L27.799 24.2029L27.78 24.1989L27.77 24.2159L27.75 24.2119L27.74 24.2289L27.72 24.2249V24.2349L27.69 24.2379L27.68 24.2549L27.661 24.2509L27.64 24.2759L27.619 24.2709L27.569 24.3259L27.57 24.3459L27.569 24.3449L27.562 24.3369L27.561 24.3279L27.546 24.3309L27.52 24.2899L27.51 24.2879Z" fill="#59B259"/>
<path d="M21.656 23.1479L21.697 23.1459L21.696 23.1369L21.716 23.1309L21.715 23.1129L21.735 23.1069V23.0979L21.756 23.1019V23.0919L21.777 23.0969L21.795 23.0709L21.816 23.0769V23.0569L21.836 23.0609L21.876 23.0409L21.895 23.0169L21.935 23.0149L21.945 22.9979L21.966 23.0029L21.986 22.9779L22.025 22.9759L22.035 22.9589L22.125 22.9479L22.146 22.9239L22.236 22.9129L22.265 22.8909L22.384 22.7839L22.414 22.7609L22.595 22.6569L22.624 22.6629V22.6439L22.765 22.5769L22.884 22.5159L22.925 22.5129L22.934 22.4969L22.955 22.4999L22.954 22.4919L22.983 22.4969V22.4879L23.044 22.4799V22.4699L23.085 22.4789L23.083 22.4689L23.105 22.4729V22.4629L23.124 22.4669L23.134 22.4499L23.165 22.4559L23.173 22.4399L23.205 22.4369L23.204 22.4259L23.214 22.4289L23.244 22.4059V22.3879L23.274 22.3839L23.284 22.3579L23.314 22.3539L23.344 22.3229L23.363 22.3259L23.423 22.2729L23.444 22.2759L23.452 22.2599L23.473 22.2629L23.492 22.2399L23.513 22.2429V22.2339L23.534 22.2379V22.2279L23.564 22.2059L23.663 22.1779L23.823 22.0689L23.863 22.0489V22.0309L23.882 22.0249V22.0059L23.912 21.9929V21.9839L23.931 21.9879V21.9779L23.942 21.9809L23.972 21.9579L23.981 21.9319L24.001 21.9359L24.012 21.9189L24.021 21.9209V21.9019L24.033 21.9049L24.052 21.8799L24.072 21.8849V21.8749L24.091 21.8789V21.8689L24.121 21.8559L24.123 21.8469H24.13L24.131 21.8479V21.8669L24.172 21.8939V21.9119L24.253 21.9739V21.9919L24.274 21.9959V22.0139L24.294 22.0179V22.0359L24.315 22.0409V22.0589L24.335 22.0619L24.386 22.1459L24.406 22.1489L24.428 22.1989L24.446 22.2029V22.2219L24.467 22.2249L24.538 22.3399L24.681 22.4969V22.5159L24.722 22.5319V22.5509L24.772 22.5789L24.773 22.5969L24.792 22.5999L24.794 22.6189L24.813 22.6229L24.814 22.6419L24.865 22.6969L24.885 22.7009V22.7189L24.905 22.7229V22.7409L24.925 22.7449L24.997 22.8599L25.018 22.8639V22.8829L25.037 22.8869V22.9139L25.058 22.9179L25.323 23.2169V23.2349L25.342 23.2389L25.373 23.2909L25.393 23.2949V23.3139L25.414 23.3169L25.445 23.3689L25.465 23.3729V23.3909L25.485 23.3949L25.517 23.4649L25.536 23.4689V23.4879L25.556 23.4919L25.588 23.5619L25.607 23.5659L25.608 23.5939L25.628 23.5979L25.639 23.6269L25.648 23.6289L25.658 23.6769L25.68 23.6899V23.7089L25.7 23.7209V23.7489L25.72 23.7619L25.731 23.8199L25.752 23.8319V23.8699L25.762 23.8719L25.772 23.9199L25.791 23.9239L25.803 24.0189L25.814 24.0209V24.0389L25.824 24.0409L25.825 24.0959L25.845 24.1089L25.898 24.2849L25.917 24.2889L25.937 24.3669L25.958 24.3709L25.969 24.4379L25.989 24.4409L26.001 24.5359L26.02 24.5399L26.054 24.8699L26.044 24.8679L26.045 25.0169L26.036 25.0139L26.038 25.0799L26.027 25.0769L26.028 25.1329L26.008 25.1389L25.999 25.2109L25.979 25.2069L25.93 25.3559L25.909 25.3519L25.83 25.4859L25.81 25.4909L25.8 25.4889L25.801 25.5169L25.781 25.5129V25.5219L25.742 25.5429L25.712 25.5659L25.713 25.5929L25.642 25.6159V25.6309L25.637 25.6299L25.635 25.6339H25.632L25.615 25.6439L25.608 25.6429L25.588 25.6569L25.569 25.6539V25.6629L25.549 25.6589V25.6689L25.529 25.6649L25.52 25.6819L25.46 25.6889L25.45 25.7059L25.431 25.7019L25.422 25.7169L25.371 25.7469L25.342 25.7459V25.7649L25.162 25.7779V25.7959L24.971 25.7789V25.7889L24.951 25.7849V25.7939L24.82 25.7699L24.457 25.6659V25.6469L24.376 25.6229L24.366 25.6029L24.346 25.5989V25.5899L24.295 25.5799V25.5699L24.266 25.5659V25.5559L24.165 25.5379L24.155 25.5169L24.043 25.4969L24.033 25.4759L23.963 25.4619V25.4529L23.923 25.4469L23.922 25.4369L23.892 25.4319V25.4219L23.841 25.4129L23.832 25.3919L23.781 25.3819V25.3649L23.741 25.3569L23.73 25.3369L23.661 25.3139V25.2949L23.619 25.2879V25.2699L23.578 25.2529L23.579 25.2439L23.548 25.2379V25.2289L23.499 25.2019L23.498 25.1829L23.467 25.1769V25.1579L23.305 25.0169L23.285 25.0129V24.9939L23.234 24.9389L23.214 24.9359L23.213 24.9169L23.194 24.9139V24.8949L23 24.7389L22.96 24.7119L22.951 24.6929L22.929 24.6879L22.928 24.6799L22.909 24.6759V24.6659L22.869 24.6309L22.736 24.5409V24.5229L22.717 24.5199V24.5009L22.686 24.4959V24.4769L22.665 24.4729V24.4549L22.554 24.3329L22.534 24.3289L22.533 24.3099L22.34 24.1079V24.0899L22.3 24.0819V24.0629L22.269 24.0489V24.0389L22.249 24.0349L22.238 24.0149L22.209 24.0089L22.198 23.9889L22.128 23.9479V23.9289L22.107 23.9249V23.9069L22.056 23.8789V23.8609L22.036 23.8569L22.035 23.8379L21.955 23.7769V23.7589L21.935 23.7549L21.884 23.6709L21.864 23.6679V23.6489L21.843 23.6449L21.822 23.5949L21.802 23.5919V23.5729L21.781 23.5689V23.5419L21.761 23.5279V23.5089L21.75 23.5079L21.731 23.4579L21.709 23.4539V23.4259L21.69 23.4219L21.659 23.3889L21.648 23.3689V23.3599L21.619 23.3539V23.3349L21.536 23.2839V23.2649L21.456 23.2119V23.1939L21.44 23.1849H21.444L21.442 23.1809L21.646 23.1639L21.656 23.1479Z" fill="#5C9F38"/>
</g>
<defs>
<clipPath id="clip0_9_314622">
<rect width="28" height="18" fill="white" transform="translate(7 12)"/>
</clipPath>
</defs>
</svg>
