<svg width="42" height="42" viewBox="0 0 42 42" fill="none" xmlns="http://www.w3.org/2000/svg">
<circle cx="21" cy="21" r="21" fill="white"/>
<circle cx="21" cy="21" r="20.5" stroke="black" stroke-opacity="0.04"/>
<g clip-path="url(#clip0_9_314598)">
<path d="M17.9787 17.0134H15.616L17.9787 20.9868V20.9814L20.624 17.0134H17.9787Z" fill="#00418E"/>
<path d="M26.1173 21.7228V25.2908H22.5493L17.9786 30.0001H30.8266V17.0134L26.1173 21.7228Z" fill="#5DB8E9"/>
<path d="M17.9786 20.9868L22.544 25.2908V21.7228H26.1173L20.6186 17.0134L17.9786 20.9814V20.9868Z" fill="#EF8BA6"/>
<path d="M20.624 10H15.616V17.0133H20.624V10Z" fill="#2BAB3A"/>
<path d="M10 21.7228L12.9013 25.2428L17.9787 20.9868L15.616 17.0134L10 21.7228Z" fill="#DC0047"/>
<path d="M26.1173 21.7227H22.5493V25.2907H26.1173V21.7227Z" fill="white"/>
<path d="M20.624 17.0134L26.1174 21.7228L30.8267 17.0134H20.624Z" fill="#00418E"/>
<path d="M17.9786 20.9866V29.9999L22.544 25.2906L17.9786 20.9866Z" fill="#00418E"/>
</g>
<defs>
<clipPath id="clip0_9_314598">
<rect width="20.8267" height="20" fill="white" transform="translate(10 10)"/>
</clipPath>
</defs>
</svg>
