<svg width="42" height="42" viewBox="0 0 42 42" fill="none" xmlns="http://www.w3.org/2000/svg">
<circle cx="21" cy="21" r="21" fill="#00ABE2"/>
<circle cx="21" cy="21" r="20.5" stroke="black" stroke-opacity="0.04"/>
<path fill-rule="evenodd" clip-rule="evenodd" d="M16.3135 24.8236L16.2692 24.867C15.5769 25.5938 14.7754 25.9767 13.9497 25.9767C12.2261 25.9767 10.9755 24.6476 10.9755 22.812C10.9755 20.9804 12.2261 19.6486 13.9497 19.6486C14.7754 19.6486 15.5769 20.0337 16.2692 20.7623L16.3135 20.806L17.422 19.4276L17.3925 19.3901C16.4707 18.2696 15.3638 17.7256 14.0035 17.7256C12.6397 17.7256 11.3917 18.1977 10.4931 19.049C9.51414 19.9707 9.00012 21.2719 9.00012 22.812C9.00012 24.3523 9.51414 25.6564 10.4931 26.579C11.3917 27.4346 12.6397 27.9038 14.0035 27.9038C15.3638 27.9038 16.4707 27.3584 17.3925 26.2373L17.422 26.2031L16.3135 24.8236Z" fill="white"/>
<mask id="mask0_9_314447" style="mask-type:luminance" maskUnits="userSpaceOnUse" x="9" y="12" width="24" height="16">
<path fill-rule="evenodd" clip-rule="evenodd" d="M9 27.904H32.9865V12.0002H9V27.904Z" fill="white"/>
</mask>
<g mask="url(#mask0_9_314447)">
<path fill-rule="evenodd" clip-rule="evenodd" d="M18.5414 27.7157H20.4999V17.8846H18.5414V27.7157Z" fill="white"/>
<path fill-rule="evenodd" clip-rule="evenodd" d="M28.1724 25.5787C27.6497 25.9052 27.1639 26.0706 26.7271 26.0706C26.0939 26.0706 25.807 25.7268 25.807 24.9612V19.7441H27.8032V17.8938H25.807V14.8337L23.8883 15.8914V17.8938H22.2318V19.7441H23.8883V25.2937C23.8883 26.805 24.7594 27.839 26.0599 27.8661C26.9429 27.8846 27.4746 27.6137 27.7969 27.4149L27.8174 27.4016L28.2882 25.506L28.1724 25.5787Z" fill="white"/>
<path fill-rule="evenodd" clip-rule="evenodd" d="M29.794 27.7157H31.7546V17.8846H29.794V27.7157Z" fill="white"/>
<path fill-rule="evenodd" clip-rule="evenodd" d="M32.8965 16.1608C31.1076 13.5555 28.1363 12 25.1126 12C22.0909 12 19.1189 13.5555 17.3329 16.1608L17.2411 16.2948H19.4945L19.519 16.2674C21.0521 14.6392 23.0544 13.7793 25.1126 13.7793C27.1721 13.7793 29.1733 14.6392 30.7093 16.2674L30.7346 16.2948H32.9867L32.8965 16.1608Z" fill="#EC1D24"/>
</g>
</svg>
