<svg width="42" height="42" viewBox="0 0 42 42" fill="none" xmlns="http://www.w3.org/2000/svg">
<circle cx="21" cy="21" r="21" fill="#00A0FF"/>
<circle cx="21" cy="21" r="20.5" stroke="black" stroke-opacity="0.04"/>
<path fill-rule="evenodd" clip-rule="evenodd" d="M20.9569 31.8107C26.9471 31.8107 31.8109 26.9518 31.8109 20.953C31.8109 14.9582 26.9471 10.094 20.9495 10.094C14.9545 10.094 10.0946 14.9582 10.0946 20.953C10.0946 26.9535 14.9545 31.8107 20.9569 31.8107Z" fill="#007BC6"/>
<mask id="mask0_9_314214" style="mask-type:luminance" maskUnits="userSpaceOnUse" x="10" y="10" width="22" height="22">
<path fill-rule="evenodd" clip-rule="evenodd" d="M10.0946 20.9529C10.0946 26.9539 14.9549 31.8106 20.9573 31.8106C26.9475 31.8106 31.8109 26.9517 31.8109 20.9529C31.8109 14.9581 26.9475 10.0944 20.9503 10.0944C14.9549 10.0944 10.0946 14.9581 10.0946 20.9529Z" fill="white"/>
</mask>
<g mask="url(#mask0_9_314214)">
<path fill-rule="evenodd" clip-rule="evenodd" d="M20.9916 26.2102C25.7498 26.2102 29.8312 27.5293 31.5778 29.3995C32.1661 28.0586 32.4879 26.5848 32.4879 25.0385C32.4879 18.8597 27.3359 13.8376 20.9916 13.8376C14.6472 13.8376 9.49957 18.8618 9.49957 25.0385C9.49957 26.5922 9.82316 28.0591 10.4084 29.3995C12.1519 27.5293 16.2329 26.2102 20.9916 26.2102Z" fill="#007CC7"/>
</g>
<mask id="mask1_9_314214" style="mask-type:luminance" maskUnits="userSpaceOnUse" x="10" y="10" width="22" height="22">
<path fill-rule="evenodd" clip-rule="evenodd" d="M10.0946 20.9529C10.0946 26.9539 14.9549 31.8106 20.9573 31.8106C26.9475 31.8106 31.8109 26.9517 31.8109 20.9529C31.8109 14.9581 26.9475 10.0944 20.9503 10.0944C14.9549 10.0944 10.0946 14.9581 10.0946 20.9529Z" fill="white"/>
</mask>
<g mask="url(#mask1_9_314214)">
<path fill-rule="evenodd" clip-rule="evenodd" d="M20.9896 26.2224C25.7356 26.2224 29.8066 27.531 31.5488 29.386C32.1353 28.056 32.4567 26.5944 32.4567 25.0603C32.4567 18.9312 27.3178 13.9344 20.9896 13.9344C14.6619 13.9344 9.52771 18.9334 9.52771 25.0603C9.52771 26.6009 9.84998 28.0564 10.4339 29.386C12.1726 27.531 16.2436 26.2224 20.9896 26.2224Z" fill="#007EC8"/>
</g>
<mask id="mask2_9_314214" style="mask-type:luminance" maskUnits="userSpaceOnUse" x="10" y="10" width="22" height="22">
<path fill-rule="evenodd" clip-rule="evenodd" d="M10.0946 20.9529C10.0946 26.9539 14.9549 31.8106 20.9573 31.8106C26.9475 31.8106 31.8109 26.9517 31.8109 20.9529C31.8109 14.9581 26.9475 10.0944 20.9503 10.0944C14.9549 10.0944 10.0946 14.9581 10.0946 20.9529Z" fill="white"/>
</mask>
<g mask="url(#mask2_9_314214)">
<path fill-rule="evenodd" clip-rule="evenodd" d="M20.9891 26.2349C25.7225 26.2349 29.7829 27.5321 31.5208 29.3718C32.1056 28.0532 32.427 26.6038 32.427 25.0815C32.427 19.0025 27.3011 14.0306 20.9891 14.0306C14.6775 14.0306 9.5564 19.0047 9.5564 25.0815C9.5564 26.6099 9.8778 28.0536 10.4604 29.3718C12.1948 27.5321 16.2548 26.2349 20.9891 26.2349Z" fill="#007FC9"/>
</g>
<mask id="mask3_9_314214" style="mask-type:luminance" maskUnits="userSpaceOnUse" x="10" y="10" width="22" height="22">
<path fill-rule="evenodd" clip-rule="evenodd" d="M10.0946 20.9529C10.0946 26.9539 14.9549 31.8106 20.9573 31.8106C26.9475 31.8106 31.8109 26.9517 31.8109 20.9529C31.8109 14.9581 26.9475 10.0944 20.9503 10.0944C14.9549 10.0944 10.0946 14.9581 10.0946 20.9529Z" fill="white"/>
</mask>
<g mask="url(#mask3_9_314214)">
<path fill-rule="evenodd" clip-rule="evenodd" d="M20.9874 26.2466C25.7082 26.2466 29.7591 27.5334 31.4921 29.3579C32.0756 28.0502 32.3953 26.6125 32.3953 25.1037C32.3953 19.074 27.2834 14.1274 20.9874 14.1274C14.692 14.1274 9.58398 19.0762 9.58398 25.1037C9.58398 26.619 9.90495 28.0506 10.4858 29.3579C12.2158 27.5334 16.2654 26.2466 20.9874 26.2466Z" fill="#0081CB"/>
</g>
<mask id="mask4_9_314214" style="mask-type:luminance" maskUnits="userSpaceOnUse" x="10" y="10" width="22" height="22">
<path fill-rule="evenodd" clip-rule="evenodd" d="M10.0946 20.9529C10.0946 26.9539 14.9549 31.8106 20.9573 31.8106C26.9475 31.8106 31.8109 26.9517 31.8109 20.9529C31.8109 14.9581 26.9475 10.0944 20.9503 10.0944C14.9549 10.0944 10.0946 14.9581 10.0946 20.9529Z" fill="white"/>
</mask>
<g mask="url(#mask4_9_314214)">
<path fill-rule="evenodd" clip-rule="evenodd" d="M20.9859 26.2587C25.6945 26.2587 29.7349 27.535 31.4636 29.3442C32.0453 28.0474 32.3645 26.6215 32.3645 25.1249C32.3645 19.1458 27.2657 14.2236 20.9859 14.2236C14.707 14.2236 9.61212 19.148 9.61212 25.1249C9.61212 26.6276 9.93222 28.0482 10.5118 29.3442C12.237 27.535 16.2765 26.2587 20.9859 26.2587Z" fill="#0083CC"/>
</g>
<mask id="mask5_9_314214" style="mask-type:luminance" maskUnits="userSpaceOnUse" x="10" y="10" width="22" height="22">
<path fill-rule="evenodd" clip-rule="evenodd" d="M10.0946 20.9529C10.0946 26.9539 14.9549 31.8106 20.9573 31.8106C26.9475 31.8106 31.8109 26.9517 31.8109 20.9529C31.8109 14.9581 26.9475 10.0944 20.9503 10.0944C14.9549 10.0944 10.0946 14.9581 10.0946 20.9529Z" fill="white"/>
</mask>
<g mask="url(#mask5_9_314214)">
<path fill-rule="evenodd" clip-rule="evenodd" d="M20.9844 26.2708C25.6802 26.2708 29.7106 27.5362 31.435 29.331C32.015 28.0442 32.3333 26.6309 32.3333 25.1466C32.3333 19.2172 27.248 14.3203 20.9844 14.3203C14.722 14.3203 9.63977 19.2194 9.63977 25.1466C9.63977 26.6366 9.95943 28.0451 10.5373 29.331C12.2581 27.5362 16.2872 26.2708 20.9844 26.2708Z" fill="#0085CD"/>
</g>
<mask id="mask6_9_314214" style="mask-type:luminance" maskUnits="userSpaceOnUse" x="10" y="10" width="22" height="22">
<path fill-rule="evenodd" clip-rule="evenodd" d="M10.0946 20.9529C10.0946 26.9539 14.9549 31.8106 20.9573 31.8106C26.9475 31.8106 31.8109 26.9517 31.8109 20.9529C31.8109 14.9581 26.9475 10.0944 20.9503 10.0944C14.9549 10.0944 10.0946 14.9581 10.0946 20.9529Z" fill="white"/>
</mask>
<g mask="url(#mask6_9_314214)">
<path fill-rule="evenodd" clip-rule="evenodd" d="M20.9833 26.2822C25.6666 26.2822 29.6869 27.5367 31.406 29.3162C31.9847 28.0408 32.3031 26.6389 32.3031 25.1676C32.3031 19.2879 27.2304 14.4159 20.9833 14.4159C14.7371 14.4159 9.6684 19.2901 9.6684 25.1676C9.6684 26.645 9.98675 28.0417 10.5633 29.3162C12.2797 27.5367 16.2979 26.2822 20.9833 26.2822Z" fill="#0087CE"/>
</g>
<mask id="mask7_9_314214" style="mask-type:luminance" maskUnits="userSpaceOnUse" x="10" y="10" width="22" height="22">
<path fill-rule="evenodd" clip-rule="evenodd" d="M10.0946 20.9529C10.0946 26.9539 14.9549 31.8106 20.9573 31.8106C26.9475 31.8106 31.8109 26.9517 31.8109 20.9529C31.8109 14.9581 26.9475 10.0944 20.9503 10.0944C14.9549 10.0944 10.0946 14.9581 10.0946 20.9529Z" fill="white"/>
</mask>
<g mask="url(#mask7_9_314214)">
<path fill-rule="evenodd" clip-rule="evenodd" d="M20.9818 26.2946C25.6528 26.2946 29.6627 27.5386 31.3779 29.302C31.9549 28.0379 32.2723 26.6487 32.2723 25.1896C32.2723 19.3596 27.2132 14.5125 20.9818 14.5125C14.7522 14.5125 9.69653 19.3614 9.69653 25.1896C9.69653 26.6535 10.0144 28.0392 10.5892 29.302C12.3013 27.5386 16.3091 26.2946 20.9818 26.2946Z" fill="#0088CF"/>
</g>
<mask id="mask8_9_314214" style="mask-type:luminance" maskUnits="userSpaceOnUse" x="10" y="10" width="22" height="22">
<path fill-rule="evenodd" clip-rule="evenodd" d="M10.0946 20.9529C10.0946 26.9539 14.9549 31.8106 20.9573 31.8106C26.9475 31.8106 31.8109 26.9517 31.8109 20.9529C31.8109 14.9581 26.9475 10.0944 20.9503 10.0944C14.9549 10.0944 10.0946 14.9581 10.0946 20.9529Z" fill="white"/>
</mask>
<g mask="url(#mask8_9_314214)">
<path fill-rule="evenodd" clip-rule="evenodd" d="M20.9802 26.307C25.6386 26.307 29.6385 27.5393 31.3489 29.2887C31.9241 28.0351 32.2411 26.658 32.2411 25.2107C32.2411 19.4309 27.195 14.609 20.9802 14.609C14.7668 14.609 9.72418 19.4331 9.72418 25.2107C9.72418 26.6628 10.0412 28.0368 10.6147 29.2887C12.322 27.5393 16.3197 26.307 20.9802 26.307Z" fill="#008AD0"/>
</g>
<mask id="mask9_9_314214" style="mask-type:luminance" maskUnits="userSpaceOnUse" x="10" y="10" width="22" height="22">
<path fill-rule="evenodd" clip-rule="evenodd" d="M10.0946 20.9529C10.0946 26.9539 14.9549 31.8106 20.9573 31.8106C26.9475 31.8106 31.8109 26.9517 31.8109 20.9529C31.8109 14.9581 26.9475 10.0944 20.9503 10.0944C14.9549 10.0944 10.0946 14.9581 10.0946 20.9529Z" fill="white"/>
</mask>
<g mask="url(#mask9_9_314214)">
<path fill-rule="evenodd" clip-rule="evenodd" d="M20.9792 26.3188C25.6249 26.3188 29.6148 27.5406 31.3204 29.2744C31.8943 28.0321 32.2104 26.6664 32.2104 25.2326C32.2104 19.5025 27.1783 14.7054 20.9792 14.7054C14.7819 14.7054 9.75281 19.5042 9.75281 25.2326C9.75281 26.6716 10.0685 28.0338 10.6407 29.2744C12.3437 27.5406 16.3309 26.3188 20.9792 26.3188Z" fill="#008CD1"/>
</g>
<mask id="mask10_9_314214" style="mask-type:luminance" maskUnits="userSpaceOnUse" x="10" y="10" width="22" height="22">
<path fill-rule="evenodd" clip-rule="evenodd" d="M10.0946 20.9529C10.0946 26.9539 14.9549 31.8106 20.9573 31.8106C26.9475 31.8106 31.8109 26.9517 31.8109 20.9529C31.8109 14.9581 26.9475 10.0944 20.9503 10.0944C14.9549 10.0944 10.0946 14.9581 10.0946 20.9529Z" fill="white"/>
</mask>
<g mask="url(#mask10_9_314214)">
<path fill-rule="evenodd" clip-rule="evenodd" d="M20.9771 26.3307C25.6106 26.3307 29.5904 27.5416 31.2912 29.2605C31.8638 28.0291 32.1791 26.6756 32.1791 25.2536C32.1791 19.5736 27.1601 14.8019 20.9771 14.8019C14.7963 14.8019 9.77991 19.5753 9.77991 25.2536C9.77991 26.6799 10.0952 28.0304 10.6656 29.2605C12.3642 27.5416 16.341 26.3307 20.9771 26.3307Z" fill="#008ED2"/>
</g>
<mask id="mask11_9_314214" style="mask-type:luminance" maskUnits="userSpaceOnUse" x="10" y="10" width="22" height="22">
<path fill-rule="evenodd" clip-rule="evenodd" d="M10.0946 20.9529C10.0946 26.9539 14.9549 31.8106 20.9573 31.8106C26.9475 31.8106 31.8109 26.9517 31.8109 20.9529C31.8109 14.9581 26.9475 10.0944 20.9503 10.0944C14.9549 10.0944 10.0946 14.9581 10.0946 20.9529Z" fill="white"/>
</mask>
<g mask="url(#mask11_9_314214)">
<path fill-rule="evenodd" clip-rule="evenodd" d="M20.9756 26.3429C25.5965 26.3429 29.5662 27.5438 31.2626 29.247C31.8331 28.0256 32.1479 26.6847 32.1479 25.2759C32.1479 19.6455 27.1424 14.8987 20.9756 14.8987C14.8114 14.8987 9.80804 19.6473 9.80804 25.2759C9.80804 26.6891 10.1225 28.0282 10.6916 29.247C12.3854 27.5438 16.3517 26.3429 20.9756 26.3429Z" fill="#0090D3"/>
</g>
<mask id="mask12_9_314214" style="mask-type:luminance" maskUnits="userSpaceOnUse" x="10" y="10" width="22" height="22">
<path fill-rule="evenodd" clip-rule="evenodd" d="M10.0946 20.9529C10.0946 26.9539 14.9549 31.8106 20.9573 31.8106C26.9475 31.8106 31.8109 26.9517 31.8109 20.9529C31.8109 14.9581 26.9475 10.0944 20.9503 10.0944C14.9549 10.0944 10.0946 14.9581 10.0946 20.9529Z" fill="white"/>
</mask>
<g mask="url(#mask12_9_314214)">
<path fill-rule="evenodd" clip-rule="evenodd" d="M20.9745 26.3551C25.5827 26.3551 29.5425 27.5447 31.2341 29.233C31.8032 28.023 32.1176 26.6935 32.1176 25.2972C32.1176 19.7171 27.1252 14.9946 20.9745 14.9946C14.8264 14.9946 9.83618 19.7184 9.83618 25.2972C9.83618 26.6978 10.1502 28.0252 10.7175 29.233C12.407 27.5447 16.3628 26.3551 20.9745 26.3551Z" fill="#0092D4"/>
</g>
<mask id="mask13_9_314214" style="mask-type:luminance" maskUnits="userSpaceOnUse" x="10" y="10" width="22" height="22">
<path fill-rule="evenodd" clip-rule="evenodd" d="M10.0946 20.9529C10.0946 26.9539 14.9549 31.8106 20.9573 31.8106C26.9475 31.8106 31.8109 26.9517 31.8109 20.9529C31.8109 14.9581 26.9475 10.0944 20.9503 10.0944C14.9549 10.0944 10.0946 14.9581 10.0946 20.9529Z" fill="white"/>
</mask>
<g mask="url(#mask13_9_314214)">
<path fill-rule="evenodd" clip-rule="evenodd" d="M20.973 26.3671C25.569 26.3671 29.5183 27.5457 31.2055 29.2188C31.7733 28.0197 32.0864 26.7033 32.0864 25.3188C32.0864 19.7883 27.1075 15.0912 20.973 15.0912C14.8415 15.0912 9.86432 19.7896 9.86432 25.3188C9.86432 26.7063 10.1774 28.0223 10.7435 29.2188C12.4281 27.5457 16.3739 26.3671 20.973 26.3671Z" fill="#0093D5"/>
</g>
<mask id="mask14_9_314214" style="mask-type:luminance" maskUnits="userSpaceOnUse" x="10" y="10" width="22" height="22">
<path fill-rule="evenodd" clip-rule="evenodd" d="M10.0946 20.9529C10.0946 26.9539 14.9549 31.8106 20.9573 31.8106C26.9475 31.8106 31.8109 26.9517 31.8109 20.9529C31.8109 14.9581 26.9475 10.0944 20.9503 10.0944C14.9549 10.0944 10.0946 14.9581 10.0946 20.9529Z" fill="white"/>
</mask>
<g mask="url(#mask14_9_314214)">
<path fill-rule="evenodd" clip-rule="evenodd" d="M20.972 26.3791C25.5553 26.3791 29.4946 27.5473 31.177 29.2047C31.7431 28.0169 32.0562 26.7118 32.0562 25.34C32.0562 19.8597 27.0904 15.1874 20.972 15.1874C14.8566 15.1874 9.89294 19.861 9.89294 25.34C9.89294 26.7153 10.2048 28.02 10.7691 29.2047C12.4498 27.5473 16.3847 26.3791 20.972 26.3791Z" fill="#0095D6"/>
</g>
<mask id="mask15_9_314214" style="mask-type:luminance" maskUnits="userSpaceOnUse" x="10" y="10" width="22" height="22">
<path fill-rule="evenodd" clip-rule="evenodd" d="M10.0946 20.9529C10.0946 26.9539 14.9549 31.8106 20.9573 31.8106C26.9475 31.8106 31.8109 26.9517 31.8109 20.9529C31.8109 14.9581 26.9475 10.0944 20.9503 10.0944C14.9549 10.0944 10.0946 14.9581 10.0946 20.9529Z" fill="white"/>
</mask>
<g mask="url(#mask15_9_314214)">
<path fill-rule="evenodd" clip-rule="evenodd" d="M20.9704 26.3911C25.5411 26.3911 29.4703 27.5483 31.1484 29.1914C31.7127 28.014 32.025 26.7212 32.025 25.362C32.025 19.9314 27.0727 15.2839 20.9704 15.2839C14.8716 15.2839 9.92059 19.9323 9.92059 25.362C9.92059 26.7246 10.232 28.0171 10.795 29.1914C12.4709 27.5483 16.3957 26.3911 20.9704 26.3911Z" fill="#0097D7"/>
</g>
<mask id="mask16_9_314214" style="mask-type:luminance" maskUnits="userSpaceOnUse" x="10" y="10" width="22" height="22">
<path fill-rule="evenodd" clip-rule="evenodd" d="M10.0946 20.9529C10.0946 26.9539 14.9549 31.8106 20.9573 31.8106C26.9475 31.8106 31.8109 26.9517 31.8109 20.9529C31.8109 14.9581 26.9475 10.0944 20.9503 10.0944C14.9549 10.0944 10.0946 14.9581 10.0946 20.9529Z" fill="white"/>
</mask>
<g mask="url(#mask16_9_314214)">
<path fill-rule="evenodd" clip-rule="evenodd" d="M20.9693 26.4028C25.5278 26.4028 29.4461 27.5496 31.1199 29.1774C31.6829 28.0109 31.9938 26.7298 31.9938 25.3833C31.9938 20.0024 27.055 15.3802 20.9693 15.3802C14.8866 15.3802 9.94873 20.0037 9.94873 25.3833C9.94873 26.7329 10.2592 28.0136 10.8209 29.1774C12.4925 27.5496 16.4064 26.4028 20.9693 26.4028Z" fill="#0099D8"/>
</g>
<mask id="mask17_9_314214" style="mask-type:luminance" maskUnits="userSpaceOnUse" x="10" y="10" width="22" height="22">
<path fill-rule="evenodd" clip-rule="evenodd" d="M10.0946 20.9529C10.0946 26.9539 14.9549 31.8106 20.9573 31.8106C26.9475 31.8106 31.8109 26.9517 31.8109 20.9529C31.8109 14.9581 26.9475 10.0944 20.9503 10.0944C14.9549 10.0944 10.0946 14.9581 10.0946 20.9529Z" fill="white"/>
</mask>
<g mask="url(#mask17_9_314214)">
<path fill-rule="evenodd" clip-rule="evenodd" d="M20.9674 26.4153C25.5132 26.4153 29.4224 27.5508 31.0913 29.1637C31.6521 28.0078 31.9631 26.7389 31.9631 25.4054C31.9631 20.0742 27.0374 15.4769 20.9674 15.4769C14.9013 15.4769 9.97687 20.0755 9.97687 25.4054C9.97687 26.7419 10.2865 28.0113 10.8464 29.1637C12.5132 27.5508 16.4171 26.4153 20.9674 26.4153Z" fill="#009BD9"/>
</g>
<mask id="mask18_9_314214" style="mask-type:luminance" maskUnits="userSpaceOnUse" x="10" y="10" width="22" height="22">
<path fill-rule="evenodd" clip-rule="evenodd" d="M10.0946 20.9529C10.0946 26.9539 14.9549 31.8106 20.9573 31.8106C26.9475 31.8106 31.8109 26.9517 31.8109 20.9529C31.8109 14.9581 26.9475 10.0944 20.9503 10.0944C14.9549 10.0944 10.0946 14.9581 10.0946 20.9529Z" fill="white"/>
</mask>
<g mask="url(#mask18_9_314214)">
<path fill-rule="evenodd" clip-rule="evenodd" d="M20.9657 26.427C25.4994 26.427 29.3976 27.552 31.0622 29.1497C31.6217 28.0047 31.9318 26.7475 31.9318 25.4263C31.9318 20.1453 27.0196 15.5732 20.9657 15.5732C14.9158 15.5732 10.0045 20.1466 10.0045 25.4263C10.0045 26.7506 10.3132 28.0081 10.8718 29.1497C12.5342 27.552 16.4277 26.427 20.9657 26.427Z" fill="#009DDA"/>
</g>
<mask id="mask19_9_314214" style="mask-type:luminance" maskUnits="userSpaceOnUse" x="10" y="10" width="22" height="22">
<path fill-rule="evenodd" clip-rule="evenodd" d="M10.0946 20.9529C10.0946 26.9539 14.9549 31.8106 20.9573 31.8106C26.9475 31.8106 31.8109 26.9517 31.8109 20.9529C31.8109 14.9581 26.9475 10.0944 20.9503 10.0944C14.9549 10.0944 10.0946 14.9581 10.0946 20.9529Z" fill="white"/>
</mask>
<g mask="url(#mask19_9_314214)">
<path fill-rule="evenodd" clip-rule="evenodd" d="M20.9652 26.4389C25.4858 26.4389 29.3744 27.553 31.0342 29.1358C31.592 28.0017 31.9016 26.7567 31.9016 25.4477C31.9016 20.2168 27.0025 15.6697 20.9652 15.6697C14.9314 15.6697 10.0331 20.2177 10.0331 25.4477C10.0331 26.7594 10.3415 28.0056 10.8984 29.1358C12.5564 27.553 16.4394 26.4389 20.9652 26.4389Z" fill="#00A0DB"/>
</g>
<mask id="mask20_9_314214" style="mask-type:luminance" maskUnits="userSpaceOnUse" x="10" y="10" width="22" height="22">
<path fill-rule="evenodd" clip-rule="evenodd" d="M10.0946 20.9529C10.0946 26.9539 14.9549 31.8106 20.9573 31.8106C26.9475 31.8106 31.8109 26.9517 31.8109 20.9529C31.8109 14.9581 26.9475 10.0944 20.9503 10.0944C14.9549 10.0944 10.0946 14.9581 10.0946 20.9529Z" fill="white"/>
</mask>
<g mask="url(#mask20_9_314214)">
<path fill-rule="evenodd" clip-rule="evenodd" d="M20.9637 26.451C25.4725 26.451 29.3507 27.5547 31.0056 29.1218C31.5621 27.999 31.8709 26.7663 31.8709 25.4695C31.8709 20.2887 26.9853 15.766 20.9637 15.766C14.9464 15.766 10.0613 20.2896 10.0613 25.4695C10.0613 26.7685 10.3687 28.0029 10.9239 29.1218C12.5776 27.5547 16.4501 26.451 20.9637 26.451Z" fill="#00A2DC"/>
</g>
<mask id="mask21_9_314214" style="mask-type:luminance" maskUnits="userSpaceOnUse" x="10" y="10" width="22" height="22">
<path fill-rule="evenodd" clip-rule="evenodd" d="M10.0946 20.9529C10.0946 26.9539 14.9549 31.8106 20.9573 31.8106C26.9475 31.8106 31.8109 26.9517 31.8109 20.9529C31.8109 14.9581 26.9475 10.0944 20.9503 10.0944C14.9549 10.0944 10.0946 14.9581 10.0946 20.9529Z" fill="white"/>
</mask>
<g mask="url(#mask21_9_314214)">
<path fill-rule="evenodd" clip-rule="evenodd" d="M20.9615 26.4636C25.4577 26.4636 29.3259 27.5564 30.9765 29.1083C31.5312 27.9963 31.8391 26.7754 31.8391 25.4916C31.8391 20.3602 26.967 15.8623 20.9615 15.8623C14.9604 15.8623 10.0884 20.3611 10.0884 25.4916C10.0884 26.7776 10.3954 28.0003 10.9488 29.1083C12.5981 27.5564 16.4602 26.4636 20.9615 26.4636Z" fill="#00A4DD"/>
</g>
<mask id="mask22_9_314214" style="mask-type:luminance" maskUnits="userSpaceOnUse" x="10" y="10" width="22" height="22">
<path fill-rule="evenodd" clip-rule="evenodd" d="M10.0946 20.9529C10.0946 26.9539 14.9549 31.8106 20.9573 31.8106C26.9475 31.8106 31.8109 26.9517 31.8109 20.9529C31.8109 14.9581 26.9475 10.0944 20.9503 10.0944C14.9549 10.0944 10.0946 14.9581 10.0946 20.9529Z" fill="white"/>
</mask>
<g mask="url(#mask22_9_314214)">
<path fill-rule="evenodd" clip-rule="evenodd" d="M20.9605 26.4753C25.4436 26.4753 29.3022 27.5571 30.9475 29.0942C31.501 27.9927 31.8084 26.784 31.8084 25.5125C31.8084 20.4316 26.9494 15.959 20.9605 15.959C14.976 15.959 10.117 20.432 10.117 25.5125C10.117 26.7857 10.4227 27.9971 10.9748 29.0942C12.6193 27.5571 16.4714 26.4753 20.9605 26.4753Z" fill="#00A6DE"/>
</g>
<mask id="mask23_9_314214" style="mask-type:luminance" maskUnits="userSpaceOnUse" x="10" y="10" width="22" height="22">
<path fill-rule="evenodd" clip-rule="evenodd" d="M10.0946 20.9529C10.0946 26.9539 14.9549 31.8106 20.9573 31.8106C26.9475 31.8106 31.8109 26.9517 31.8109 20.9529C31.8109 14.9581 26.9475 10.0944 20.9503 10.0944C14.9549 10.0944 10.0946 14.9581 10.0946 20.9529Z" fill="white"/>
</mask>
<g mask="url(#mask23_9_314214)">
<path fill-rule="evenodd" clip-rule="evenodd" d="M20.959 26.4873C25.4303 26.4873 29.2784 27.5582 30.9194 29.0801C31.4711 27.9899 31.7781 26.7934 31.7781 25.5341C31.7781 20.5029 26.9322 16.0552 20.959 16.0552C14.991 16.0552 10.1451 20.5033 10.1451 25.5341C10.1451 26.7951 10.45 27.9943 11.0008 29.0801C12.6409 27.5582 16.4825 26.4873 20.959 26.4873Z" fill="#00A8DF"/>
</g>
<mask id="mask24_9_314214" style="mask-type:luminance" maskUnits="userSpaceOnUse" x="10" y="10" width="22" height="22">
<path fill-rule="evenodd" clip-rule="evenodd" d="M10.0946 20.9529C10.0946 26.9539 14.9549 31.8106 20.9573 31.8106C26.9475 31.8106 31.8109 26.9517 31.8109 20.9529C31.8109 14.9581 26.9475 10.0944 20.9503 10.0944C14.9549 10.0944 10.0946 14.9581 10.0946 20.9529Z" fill="white"/>
</mask>
<g mask="url(#mask24_9_314214)">
<path fill-rule="evenodd" clip-rule="evenodd" d="M20.958 26.4994C25.4167 26.4994 29.2543 27.5599 30.891 29.0669C31.4413 27.9872 31.747 26.8024 31.747 25.5562C31.747 20.5743 26.9151 16.1519 20.958 16.1519C15.0066 16.1519 10.1738 20.5752 10.1738 25.5562C10.1738 26.8037 10.4778 27.992 11.0268 29.0669C12.6626 27.5599 16.4937 26.4994 20.958 26.4994Z" fill="#00AAE0"/>
</g>
<mask id="mask25_9_314214" style="mask-type:luminance" maskUnits="userSpaceOnUse" x="10" y="10" width="22" height="22">
<path fill-rule="evenodd" clip-rule="evenodd" d="M10.0946 20.9529C10.0946 26.9539 14.9549 31.8106 20.9573 31.8106C26.9475 31.8106 31.8109 26.9517 31.8109 20.9529C31.8109 14.9581 26.9475 10.0944 20.9503 10.0944C14.9549 10.0944 10.0946 14.9581 10.0946 20.9529Z" fill="white"/>
</mask>
<g mask="url(#mask25_9_314214)">
<path fill-rule="evenodd" clip-rule="evenodd" d="M20.9568 26.5112C25.4024 26.5112 29.2304 27.5603 30.8623 29.052C31.4114 27.9837 31.7162 26.8107 31.7162 25.5767C31.7162 20.6454 26.8973 16.2478 20.9568 16.2478C15.0216 16.2478 10.2014 20.6458 10.2014 25.5767C10.2014 26.812 10.5054 27.9885 11.0527 29.052C12.6837 27.5603 16.5047 26.5112 20.9568 26.5112Z" fill="#00ACE1"/>
</g>
<mask id="mask26_9_314214" style="mask-type:luminance" maskUnits="userSpaceOnUse" x="10" y="10" width="22" height="22">
<path fill-rule="evenodd" clip-rule="evenodd" d="M10.0946 20.9529C10.0946 26.9539 14.9549 31.8106 20.9573 31.8106C26.9475 31.8106 31.8109 26.9517 31.8109 20.9529C31.8109 14.9581 26.9475 10.0944 20.9503 10.0944C14.9549 10.0944 10.0946 14.9581 10.0946 20.9529Z" fill="white"/>
</mask>
<g mask="url(#mask26_9_314214)">
<path fill-rule="evenodd" clip-rule="evenodd" d="M20.9544 26.5233C25.3882 26.5233 29.2053 27.5619 30.8333 29.0384C31.3801 27.981 31.685 26.8202 31.685 25.5988C31.685 20.7172 26.8792 16.3445 20.9544 16.3445C15.0353 16.3445 10.2291 20.7172 10.2291 25.5988C10.2291 26.8211 10.5317 27.9858 11.0777 29.0384C12.7043 27.5619 16.5145 26.5233 20.9544 26.5233Z" fill="#03AEE2"/>
</g>
<mask id="mask27_9_314214" style="mask-type:luminance" maskUnits="userSpaceOnUse" x="10" y="10" width="22" height="22">
<path fill-rule="evenodd" clip-rule="evenodd" d="M10.0946 20.9529C10.0946 26.9539 14.9549 31.8106 20.9573 31.8106C26.9475 31.8106 31.8109 26.9517 31.8109 20.9529C31.8109 14.9581 26.9475 10.0944 20.9503 10.0944C14.9549 10.0944 10.0946 14.9581 10.0946 20.9529Z" fill="white"/>
</mask>
<g mask="url(#mask27_9_314214)">
<path fill-rule="evenodd" clip-rule="evenodd" d="M20.9533 26.5352C25.3745 26.5352 29.1816 27.563 30.8047 29.0246C31.3503 27.9781 31.6542 26.8295 31.6542 25.6199C31.6542 20.7885 26.862 16.441 20.9533 16.441C15.0503 16.441 10.2572 20.7885 10.2572 25.6199C10.2572 26.83 10.5594 27.9829 11.1037 29.0246C12.7255 27.563 16.5256 26.5352 20.9533 26.5352Z" fill="#16B1E3"/>
</g>
<mask id="mask28_9_314214" style="mask-type:luminance" maskUnits="userSpaceOnUse" x="10" y="10" width="22" height="22">
<path fill-rule="evenodd" clip-rule="evenodd" d="M10.0946 20.9529C10.0946 26.9539 14.9549 31.8106 20.9573 31.8106C26.9475 31.8106 31.8109 26.9517 31.8109 20.9529C31.8109 14.9581 26.9475 10.0944 20.9503 10.0944C14.9549 10.0944 10.0946 14.9581 10.0946 20.9529Z" fill="white"/>
</mask>
<g mask="url(#mask28_9_314214)">
<path fill-rule="evenodd" clip-rule="evenodd" d="M20.9523 26.5472C25.3608 26.5472 29.1579 27.5646 30.7762 29.0105C31.32 27.9749 31.6235 26.8385 31.6235 25.642C31.6235 20.8603 26.8444 16.5372 20.9523 16.5372C15.0659 16.5372 10.2858 20.8603 10.2858 25.642C10.2858 26.839 10.5867 27.9801 11.1297 29.0105C12.7476 27.5646 16.5368 26.5472 20.9523 26.5472Z" fill="#21B3E4"/>
</g>
<mask id="mask29_9_314214" style="mask-type:luminance" maskUnits="userSpaceOnUse" x="10" y="10" width="22" height="22">
<path fill-rule="evenodd" clip-rule="evenodd" d="M10.0946 20.9529C10.0946 26.9539 14.9549 31.8106 20.9573 31.8106C26.9475 31.8106 31.8109 26.9517 31.8109 20.9529C31.8109 14.9581 26.9475 10.0944 20.9503 10.0944C14.9549 10.0944 10.0946 14.9581 10.0946 20.9529Z" fill="white"/>
</mask>
<g mask="url(#mask29_9_314214)">
<path fill-rule="evenodd" clip-rule="evenodd" d="M20.9507 26.5595C25.347 26.5595 29.1341 27.5659 30.7476 28.9966C31.2901 27.9719 31.5928 26.8473 31.5928 25.663C31.5928 20.9314 26.8271 16.6337 20.9507 16.6337C15.0809 16.6337 10.3135 20.9314 10.3135 25.663C10.3135 26.8478 10.6139 27.9776 11.1556 28.9966C12.7687 27.5659 16.5479 26.5595 20.9507 26.5595Z" fill="#29B5E5"/>
</g>
<mask id="mask30_9_314214" style="mask-type:luminance" maskUnits="userSpaceOnUse" x="10" y="10" width="22" height="22">
<path fill-rule="evenodd" clip-rule="evenodd" d="M10.0946 20.9529C10.0946 26.9539 14.9549 31.8106 20.9573 31.8106C26.9475 31.8106 31.8109 26.9517 31.8109 20.9529C31.8109 14.9581 26.9475 10.0944 20.9503 10.0944C14.9549 10.0944 10.0946 14.9581 10.0946 20.9529Z" fill="white"/>
</mask>
<g mask="url(#mask30_9_314214)">
<path fill-rule="evenodd" clip-rule="evenodd" d="M20.9497 26.5717C25.3333 26.5717 29.1104 27.5672 30.7195 28.9831C31.2603 27.9693 31.5621 26.8565 31.5621 25.6852C31.5621 21.0029 26.8099 16.7305 20.9497 16.7305C15.096 16.7305 10.3421 21.0029 10.3421 25.6852C10.3421 26.8565 10.6417 27.9749 11.1816 28.9831C12.7903 27.5672 16.5586 26.5717 20.9497 26.5717Z" fill="#30B7E6"/>
</g>
<mask id="mask31_9_314214" style="mask-type:luminance" maskUnits="userSpaceOnUse" x="10" y="10" width="22" height="22">
<path fill-rule="evenodd" clip-rule="evenodd" d="M10.0946 20.9529C10.0946 26.9539 14.9549 31.8106 20.9573 31.8106C26.9475 31.8106 31.8109 26.9517 31.8109 20.9529C31.8109 14.9581 26.9475 10.0944 20.9503 10.0944C14.9549 10.0944 10.0946 14.9581 10.0946 20.9529Z" fill="white"/>
</mask>
<g mask="url(#mask31_9_314214)">
<path fill-rule="evenodd" clip-rule="evenodd" d="M20.949 26.5994C25.327 26.5994 29.0984 27.5888 30.7054 28.995C31.2453 27.9882 31.5466 26.8824 31.5466 25.7186C31.5466 21.0667 26.8006 16.8187 20.949 16.8187C15.1032 16.8187 10.3554 21.0672 10.3554 25.7186C10.3554 26.8824 10.6546 27.993 11.1936 28.995C12.8002 27.5888 16.5641 26.5994 20.949 26.5994Z" fill="#3FBAE7"/>
</g>
<mask id="mask32_9_314214" style="mask-type:luminance" maskUnits="userSpaceOnUse" x="10" y="10" width="22" height="22">
<path fill-rule="evenodd" clip-rule="evenodd" d="M10.0946 20.9529C10.0946 26.9539 14.9549 31.8106 20.9573 31.8106C26.9475 31.8106 31.8109 26.9517 31.8109 20.9529C31.8109 14.9581 26.9475 10.0944 20.9503 10.0944C14.9549 10.0944 10.0946 14.9581 10.0946 20.9529Z" fill="white"/>
</mask>
<g mask="url(#mask32_9_314214)">
<path fill-rule="evenodd" clip-rule="evenodd" d="M20.9485 26.6265C25.3208 26.6265 29.0869 27.6093 30.6917 29.0069C31.2308 28.0061 31.5321 26.9082 31.5321 25.7517C31.5321 21.1305 26.7922 16.9069 20.9485 16.9069C15.11 16.9069 10.3697 21.1309 10.3697 25.7517C10.3697 26.9082 10.668 28.0114 11.2066 29.0069C12.811 27.6093 16.5697 26.6265 20.9485 26.6265Z" fill="#4CBCE8"/>
</g>
<mask id="mask33_9_314214" style="mask-type:luminance" maskUnits="userSpaceOnUse" x="10" y="10" width="22" height="22">
<path fill-rule="evenodd" clip-rule="evenodd" d="M10.0946 20.9529C10.0946 26.9539 14.9549 31.8106 20.9573 31.8106C26.9475 31.8106 31.8109 26.9517 31.8109 20.9529C31.8109 14.9581 26.9475 10.0944 20.9503 10.0944C14.9549 10.0944 10.0946 14.9581 10.0946 20.9529Z" fill="white"/>
</mask>
<g mask="url(#mask33_9_314214)">
<path fill-rule="evenodd" clip-rule="evenodd" d="M20.9499 26.6542C25.3165 26.6542 29.077 27.6301 30.6796 29.0185C31.2174 28.0247 31.5187 26.9342 31.5187 25.7852C31.5187 21.1944 26.7853 16.9952 20.9499 16.9952C15.1189 16.9952 10.3851 21.1949 10.3851 25.7852C10.3851 26.9346 10.6829 28.0295 11.2206 29.0185C12.8228 27.6301 16.5768 26.6542 20.9499 26.6542Z" fill="#56BEE9"/>
</g>
<mask id="mask34_9_314214" style="mask-type:luminance" maskUnits="userSpaceOnUse" x="10" y="10" width="22" height="22">
<path fill-rule="evenodd" clip-rule="evenodd" d="M10.0946 20.9529C10.0946 26.9539 14.9549 31.8106 20.9573 31.8106C26.9475 31.8106 31.8109 26.9517 31.8109 20.9529C31.8109 14.9581 26.9475 10.0944 20.9503 10.0944C14.9549 10.0944 10.0946 14.9581 10.0946 20.9529Z" fill="white"/>
</mask>
<g mask="url(#mask34_9_314214)">
<path fill-rule="evenodd" clip-rule="evenodd" d="M20.9494 26.6818C25.3104 26.6818 29.0656 27.6516 30.6661 29.0304C31.2029 28.0432 31.5034 26.96 31.5034 25.8189C31.5034 21.2582 26.7766 17.0839 20.9494 17.0839C15.1263 17.0839 10.3994 21.2591 10.3994 25.8189C10.3994 26.9604 10.6964 28.048 11.2332 29.0304C12.8337 27.6516 16.5828 26.6818 20.9494 26.6818Z" fill="#60C1E9"/>
</g>
<mask id="mask35_9_314214" style="mask-type:luminance" maskUnits="userSpaceOnUse" x="10" y="10" width="22" height="22">
<path fill-rule="evenodd" clip-rule="evenodd" d="M10.0946 20.9529C10.0946 26.9539 14.9549 31.8106 20.9573 31.8106C26.9475 31.8106 31.8109 26.9517 31.8109 20.9529C31.8109 14.9581 26.9475 10.0944 20.9503 10.0944C14.9549 10.0944 10.0946 14.9581 10.0946 20.9529Z" fill="white"/>
</mask>
<g mask="url(#mask35_9_314214)">
<path fill-rule="evenodd" clip-rule="evenodd" d="M20.9493 26.7095C25.3041 26.7095 29.0541 27.6727 30.6524 29.0428C31.1884 28.0617 31.4888 26.9859 31.4888 25.8522C31.4888 21.3225 26.7681 17.1721 20.9493 17.1721C15.1339 17.1721 10.4132 21.3229 10.4132 25.8522C10.4132 26.9863 10.7098 28.066 11.2462 29.0428C12.844 27.6727 16.5883 26.7095 20.9493 26.7095Z" fill="#68C3EA"/>
</g>
<mask id="mask36_9_314214" style="mask-type:luminance" maskUnits="userSpaceOnUse" x="10" y="10" width="22" height="22">
<path fill-rule="evenodd" clip-rule="evenodd" d="M10.0946 20.9529C10.0946 26.9539 14.9549 31.8106 20.9573 31.8106C26.9475 31.8106 31.8109 26.9517 31.8109 20.9529C31.8109 14.9581 26.9475 10.0944 20.9503 10.0944C14.9549 10.0944 10.0946 14.9581 10.0946 20.9529Z" fill="white"/>
</mask>
<g mask="url(#mask36_9_314214)">
<path fill-rule="evenodd" clip-rule="evenodd" d="M20.9498 26.7373C25.2994 26.7373 29.0437 27.6936 30.6394 29.0541C31.1745 28.0804 31.4749 27.0116 31.4749 25.8857C31.4749 21.3865 26.7603 17.2606 20.9498 17.2606C15.1418 17.2606 10.4285 21.387 10.4285 25.8857C10.4285 27.0121 10.7242 28.0847 11.2597 29.0541C12.855 27.6936 16.5954 26.7373 20.9498 26.7373Z" fill="#70C5EB"/>
</g>
<mask id="mask37_9_314214" style="mask-type:luminance" maskUnits="userSpaceOnUse" x="10" y="10" width="22" height="22">
<path fill-rule="evenodd" clip-rule="evenodd" d="M10.0946 20.9529C10.0946 26.9539 14.9549 31.8106 20.9573 31.8106C26.9475 31.8106 31.8109 26.9517 31.8109 20.9529C31.8109 14.9581 26.9475 10.0944 20.9503 10.0944C14.9549 10.0944 10.0946 14.9581 10.0946 20.9529Z" fill="white"/>
</mask>
<g mask="url(#mask37_9_314214)">
<path fill-rule="evenodd" clip-rule="evenodd" d="M20.9497 26.7644C25.2932 26.7644 29.0323 27.7146 30.6258 29.0655C31.1604 28.0988 31.46 27.0374 31.46 25.9194C31.46 21.4498 26.7519 17.3488 20.9497 17.3488C15.1496 17.3488 10.4424 21.4507 10.4424 25.9194C10.4424 27.0378 10.7376 28.1027 11.2727 29.0655C12.8662 27.7146 16.6009 26.7644 20.9497 26.7644Z" fill="#79C8EC"/>
</g>
<mask id="mask38_9_314214" style="mask-type:luminance" maskUnits="userSpaceOnUse" x="10" y="10" width="22" height="22">
<path fill-rule="evenodd" clip-rule="evenodd" d="M10.0946 20.9529C10.0946 26.9539 14.9549 31.8106 20.9573 31.8106C26.9475 31.8106 31.8109 26.9517 31.8109 20.9529C31.8109 14.9581 26.9475 10.0944 20.9503 10.0944C14.9549 10.0944 10.0946 14.9581 10.0946 20.9529Z" fill="white"/>
</mask>
<g mask="url(#mask38_9_314214)">
<path fill-rule="evenodd" clip-rule="evenodd" d="M20.9501 26.7924C25.2884 26.7924 29.0218 27.736 30.6131 29.0782C31.1465 28.1171 31.4461 27.0632 31.4461 25.953C31.4461 21.5144 26.7441 17.4377 20.9501 17.4377C15.1579 17.4377 10.4572 21.5153 10.4572 25.953C10.4572 27.064 10.752 28.1215 11.2862 29.0782C12.8775 27.736 16.6079 26.7924 20.9501 26.7924Z" fill="#80CAED"/>
</g>
<mask id="mask39_9_314214" style="mask-type:luminance" maskUnits="userSpaceOnUse" x="10" y="10" width="22" height="22">
<path fill-rule="evenodd" clip-rule="evenodd" d="M10.0946 20.9529C10.0946 26.9539 14.9549 31.8106 20.9573 31.8106C26.9475 31.8106 31.8109 26.9517 31.8109 20.9529C31.8109 14.9581 26.9475 10.0944 20.9503 10.0944C14.9549 10.0944 10.0946 14.9581 10.0946 20.9529Z" fill="white"/>
</mask>
<g mask="url(#mask39_9_314214)">
<path fill-rule="evenodd" clip-rule="evenodd" d="M20.95 26.8197C25.2822 26.8197 29.0099 27.7567 30.5995 29.0897C31.132 28.1357 31.4311 27.0887 31.4311 25.9859C31.4311 21.5779 26.7357 17.5256 20.95 17.5256C15.1648 17.5256 10.4715 21.5792 10.4715 25.9859C10.4715 27.0896 10.7654 28.1391 11.2988 29.0897C12.8883 27.7567 16.6135 26.8197 20.95 26.8197Z" fill="#87CDEE"/>
</g>
<mask id="mask40_9_314214" style="mask-type:luminance" maskUnits="userSpaceOnUse" x="10" y="10" width="22" height="22">
<path fill-rule="evenodd" clip-rule="evenodd" d="M10.0946 20.9529C10.0946 26.9539 14.9549 31.8106 20.9573 31.8106C26.9475 31.8106 31.8109 26.9517 31.8109 20.9529C31.8109 14.9581 26.9475 10.0944 20.9503 10.0944C14.9549 10.0944 10.0946 14.9581 10.0946 20.9529Z" fill="white"/>
</mask>
<g mask="url(#mask40_9_314214)">
<path fill-rule="evenodd" clip-rule="evenodd" d="M20.95 26.8474C25.2765 26.8474 28.999 27.778 30.5864 29.1014C31.1175 28.1538 31.4162 27.1147 31.4162 26.0198C31.4162 21.6418 26.7273 17.614 20.95 17.614C15.1726 17.614 10.4858 21.6431 10.4858 26.0198C10.4858 27.1152 10.7789 28.1578 11.3114 29.1014C12.8988 27.778 16.6195 26.8474 20.95 26.8474Z" fill="#8ECFEF"/>
</g>
<mask id="mask41_9_314214" style="mask-type:luminance" maskUnits="userSpaceOnUse" x="10" y="10" width="22" height="22">
<path fill-rule="evenodd" clip-rule="evenodd" d="M10.0946 20.9529C10.0946 26.9539 14.9549 31.8106 20.9573 31.8106C26.9475 31.8106 31.8109 26.9517 31.8109 20.9529C31.8109 14.9581 26.9475 10.0944 20.9503 10.0944C14.9549 10.0944 10.0946 14.9581 10.0946 20.9529Z" fill="white"/>
</mask>
<g mask="url(#mask41_9_314214)">
<path fill-rule="evenodd" clip-rule="evenodd" d="M20.9499 26.8746C25.2712 26.8746 28.988 27.7986 30.5728 29.1133C31.1035 28.1723 31.4022 27.1402 31.4022 26.0527C31.4022 21.7057 26.719 17.7023 20.9499 17.7023C15.1804 17.7023 10.5002 21.707 10.5002 26.0527C10.5002 27.1415 10.7928 28.1758 11.3248 29.1133C12.9096 27.7986 16.6256 26.8746 20.9499 26.8746Z" fill="#95D2F0"/>
</g>
<mask id="mask42_9_314214" style="mask-type:luminance" maskUnits="userSpaceOnUse" x="10" y="10" width="22" height="22">
<path fill-rule="evenodd" clip-rule="evenodd" d="M10.0946 20.9529C10.0946 26.9539 14.9549 31.8106 20.9573 31.8106C26.9475 31.8106 31.8109 26.9517 31.8109 20.9529C31.8109 14.9581 26.9475 10.0944 20.9503 10.0944C14.9549 10.0944 10.0946 14.9581 10.0946 20.9529Z" fill="white"/>
</mask>
<g mask="url(#mask42_9_314214)">
<path fill-rule="evenodd" clip-rule="evenodd" d="M20.9497 26.9024C25.2653 26.9024 28.9765 27.8199 30.5591 29.1254C31.089 28.1909 31.3877 27.1662 31.3877 26.0865C31.3877 21.7696 26.7106 17.7906 20.9497 17.7906C15.1876 17.7906 10.514 21.7714 10.514 26.0865C10.514 27.1671 10.8062 28.1944 11.3373 29.1254C12.9204 27.8199 16.6315 26.9024 20.9497 26.9024Z" fill="#9CD4F0"/>
</g>
<mask id="mask43_9_314214" style="mask-type:luminance" maskUnits="userSpaceOnUse" x="10" y="10" width="22" height="22">
<path fill-rule="evenodd" clip-rule="evenodd" d="M10.0946 20.9529C10.0946 26.9539 14.9549 31.8106 20.9573 31.8106C26.9475 31.8106 31.8109 26.9517 31.8109 20.9529C31.8109 14.9581 26.9475 10.0944 20.9503 10.0944C14.9549 10.0944 10.0946 14.9581 10.0946 20.9529Z" fill="white"/>
</mask>
<g mask="url(#mask43_9_314214)">
<path fill-rule="evenodd" clip-rule="evenodd" d="M20.9502 26.9304C25.2597 26.9304 28.9661 27.8409 30.5465 29.1373C31.0751 28.2098 31.3734 27.1925 31.3734 26.1202C31.3734 21.8338 26.7028 17.8793 20.9502 17.8793C15.1955 17.8793 10.5293 21.8356 10.5293 26.1202C10.5293 27.1938 10.8206 28.2124 11.3509 29.1373C12.9317 27.8409 16.6381 26.9304 20.9502 26.9304Z" fill="#A2D7F1"/>
</g>
<mask id="mask44_9_314214" style="mask-type:luminance" maskUnits="userSpaceOnUse" x="10" y="10" width="22" height="22">
<path fill-rule="evenodd" clip-rule="evenodd" d="M10.0946 20.9529C10.0946 26.9539 14.9549 31.8106 20.9573 31.8106C26.9475 31.8106 31.8109 26.9517 31.8109 20.9529C31.8109 14.9581 26.9475 10.0944 20.9503 10.0944C14.9549 10.0944 10.0946 14.9581 10.0946 20.9529Z" fill="white"/>
</mask>
<g mask="url(#mask44_9_314214)">
<path fill-rule="evenodd" clip-rule="evenodd" d="M20.9502 26.9579C25.254 26.9579 28.9547 27.8622 30.5334 29.149C31.0611 28.2281 31.3589 27.2182 31.3589 26.1533C31.3589 21.8975 26.6949 17.9678 20.9502 17.9678C15.2033 17.9678 10.5436 21.8997 10.5436 26.1533C10.5436 27.2195 10.8345 28.2311 11.3644 29.149C12.943 27.8622 16.6442 26.9579 20.9502 26.9579Z" fill="#A8D9F2"/>
</g>
<mask id="mask45_9_314214" style="mask-type:luminance" maskUnits="userSpaceOnUse" x="10" y="10" width="22" height="22">
<path fill-rule="evenodd" clip-rule="evenodd" d="M10.0946 20.9529C10.0946 26.9539 14.9549 31.8106 20.9573 31.8106C26.9475 31.8106 31.8109 26.9517 31.8109 20.9529C31.8109 14.9581 26.9475 10.0944 20.9503 10.0944C14.9549 10.0944 10.0946 14.9581 10.0946 20.9529Z" fill="white"/>
</mask>
<g mask="url(#mask45_9_314214)">
<path fill-rule="evenodd" clip-rule="evenodd" d="M20.9506 26.9851C25.2487 26.9851 28.9442 27.8833 30.5198 29.161C31.0471 28.2466 31.3445 27.2441 31.3445 26.1871C31.3445 21.9613 26.687 18.056 20.9506 18.056C15.2111 18.056 10.558 21.9635 10.558 26.1871C10.558 27.2454 10.848 28.2488 11.3774 29.161C12.9539 27.8833 16.6507 26.9851 20.9506 26.9851Z" fill="#AEDBF3"/>
</g>
<mask id="mask46_9_314214" style="mask-type:luminance" maskUnits="userSpaceOnUse" x="10" y="10" width="22" height="22">
<path fill-rule="evenodd" clip-rule="evenodd" d="M10.0946 20.9529C10.0946 26.9539 14.9549 31.8106 20.9573 31.8106C26.9475 31.8106 31.8109 26.9517 31.8109 20.9529C31.8109 14.9581 26.9475 10.0944 20.9503 10.0944C14.9549 10.0944 10.0946 14.9581 10.0946 20.9529Z" fill="white"/>
</mask>
<g mask="url(#mask46_9_314214)">
<path fill-rule="evenodd" clip-rule="evenodd" d="M20.9505 27.0133C25.243 27.0133 28.9328 27.9046 30.5062 29.173C31.0326 28.2652 31.3295 27.2701 31.3295 26.2205C31.3295 22.0253 26.6781 18.1444 20.9505 18.1444C15.2184 18.1444 10.5723 22.0275 10.5723 26.2205C10.5723 27.2714 10.8618 28.2678 11.3904 29.173C12.9647 27.9046 16.6562 27.0133 20.9505 27.0133Z" fill="#B4DEF4"/>
</g>
<mask id="mask47_9_314214" style="mask-type:luminance" maskUnits="userSpaceOnUse" x="10" y="10" width="22" height="22">
<path fill-rule="evenodd" clip-rule="evenodd" d="M10.0946 20.9529C10.0946 26.9539 14.9549 31.8106 20.9573 31.8106C26.9475 31.8106 31.8109 26.9517 31.8109 20.9529C31.8109 14.9581 26.9475 10.0944 20.9503 10.0944C14.9549 10.0944 10.0946 14.9581 10.0946 20.9529Z" fill="white"/>
</mask>
<g mask="url(#mask47_9_314214)">
<path fill-rule="evenodd" clip-rule="evenodd" d="M20.9509 27.0407C25.2377 27.0407 28.9219 27.9254 30.4936 29.1847C31.019 28.2838 31.3156 27.2962 31.3156 26.254C31.3156 22.0893 26.6703 18.2333 20.9509 18.2333C15.2267 18.2333 10.5871 22.0915 10.5871 26.254C10.5871 27.2975 10.8758 28.286 11.4035 29.1847C12.976 27.9254 16.6628 27.0407 20.9509 27.0407Z" fill="#B9E0F5"/>
</g>
<mask id="mask48_9_314214" style="mask-type:luminance" maskUnits="userSpaceOnUse" x="10" y="10" width="22" height="22">
<path fill-rule="evenodd" clip-rule="evenodd" d="M10.0946 20.9529C10.0946 26.9539 14.9549 31.8106 20.9573 31.8106C26.9475 31.8106 31.8109 26.9517 31.8109 20.9529C31.8109 14.9581 26.9475 10.0944 20.9503 10.0944C14.9549 10.0944 10.0946 14.9581 10.0946 20.9529Z" fill="white"/>
</mask>
<g mask="url(#mask48_9_314214)">
<path fill-rule="evenodd" clip-rule="evenodd" d="M20.9504 27.0678C25.2315 27.0678 28.9104 27.9465 30.4799 29.1962C31.0041 28.3014 31.3002 27.3212 31.3002 26.2873C31.3002 22.1531 26.6619 18.321 20.9504 18.321C15.234 18.321 10.601 22.1553 10.601 26.2873C10.601 27.3229 10.8892 28.304 11.416 29.1962C12.986 27.9465 16.6683 27.0678 20.9504 27.0678Z" fill="#BFE2F5"/>
</g>
<mask id="mask49_9_314214" style="mask-type:luminance" maskUnits="userSpaceOnUse" x="10" y="10" width="22" height="22">
<path fill-rule="evenodd" clip-rule="evenodd" d="M10.0946 20.9529C10.0946 26.9539 14.9549 31.8106 20.9573 31.8106C26.9475 31.8106 31.8109 26.9517 31.8109 20.9529C31.8109 14.9581 26.9475 10.0944 20.9503 10.0944C14.9549 10.0944 10.0946 14.9581 10.0946 20.9529Z" fill="white"/>
</mask>
<g mask="url(#mask49_9_314214)">
<path fill-rule="evenodd" clip-rule="evenodd" d="M20.9502 27.0956C25.2257 27.0956 28.8989 27.9673 30.4663 29.2083C30.9896 28.3205 31.2857 27.3472 31.2857 26.3207C31.2857 22.2166 26.6535 18.4094 20.9502 18.4094C15.2413 18.4094 10.6147 22.2192 10.6147 26.3207C10.6147 27.3485 10.9026 28.3222 11.4289 29.2083C12.9967 27.9673 16.6743 27.0956 20.9502 27.0956Z" fill="#C4E4F6"/>
</g>
<mask id="mask50_9_314214" style="mask-type:luminance" maskUnits="userSpaceOnUse" x="10" y="10" width="22" height="22">
<path fill-rule="evenodd" clip-rule="evenodd" d="M10.0946 20.9529C10.0946 26.9539 14.9549 31.8106 20.9573 31.8106C26.9475 31.8106 31.8109 26.9517 31.8109 20.9529C31.8109 14.9581 26.9475 10.0944 20.9503 10.0944C14.9549 10.0944 10.0946 14.9581 10.0946 20.9529Z" fill="white"/>
</mask>
<g mask="url(#mask50_9_314214)">
<path fill-rule="evenodd" clip-rule="evenodd" d="M20.9511 27.1229C25.221 27.1229 28.8885 27.9885 30.4537 29.2203C30.9761 28.3386 31.2722 27.3732 31.2722 26.3537C31.2722 22.2806 26.6461 18.4978 20.9511 18.4978C15.2496 18.4978 10.6301 22.2836 10.6301 26.3537C10.6301 27.375 10.9175 28.3408 11.4425 29.2203C13.0085 27.9885 16.6809 27.1229 20.9511 27.1229Z" fill="#C9E7F7"/>
</g>
<mask id="mask51_9_314214" style="mask-type:luminance" maskUnits="userSpaceOnUse" x="10" y="10" width="22" height="22">
<path fill-rule="evenodd" clip-rule="evenodd" d="M10.0946 20.9529C10.0946 26.9539 14.9549 31.8106 20.9573 31.8106C26.9475 31.8106 31.8109 26.9517 31.8109 20.9529C31.8109 14.9581 26.9475 10.0944 20.9503 10.0944C14.9549 10.0944 10.0946 14.9581 10.0946 20.9529Z" fill="white"/>
</mask>
<g mask="url(#mask51_9_314214)">
<path fill-rule="evenodd" clip-rule="evenodd" d="M20.9506 27.1504C25.2143 27.1504 28.8771 28.0095 30.4396 29.2313C30.9616 28.3574 31.2568 27.3986 31.2568 26.3873C31.2568 22.3447 26.6373 18.5859 20.9506 18.5859C15.2569 18.5859 10.6439 22.3473 10.6439 26.3873C10.6439 27.4003 10.9304 28.3587 11.4555 29.2313C13.0189 28.0095 16.6869 27.1504 20.9506 27.1504Z" fill="#CFE9F8"/>
</g>
<mask id="mask52_9_314214" style="mask-type:luminance" maskUnits="userSpaceOnUse" x="10" y="10" width="22" height="22">
<path fill-rule="evenodd" clip-rule="evenodd" d="M10.0946 20.9529C10.0946 26.9539 14.9549 31.8106 20.9573 31.8106C26.9475 31.8106 31.8109 26.9517 31.8109 20.9529C31.8109 14.9581 26.9475 10.0944 20.9503 10.0944C14.9549 10.0944 10.0946 14.9581 10.0946 20.9529Z" fill="white"/>
</mask>
<g mask="url(#mask52_9_314214)">
<path fill-rule="evenodd" clip-rule="evenodd" d="M20.9505 27.1783C25.209 27.1783 28.8656 28.0307 30.4264 29.2434C30.9471 28.3757 31.2424 27.4246 31.2424 26.4213C31.2424 22.4087 26.6289 18.6748 20.9505 18.6748C15.2642 18.6748 10.6582 22.4113 10.6582 26.4213C10.6582 27.4264 10.9443 28.3774 11.468 29.2434C13.0297 28.0307 16.6925 27.1783 20.9505 27.1783Z" fill="#D4EBF8"/>
</g>
<mask id="mask53_9_314214" style="mask-type:luminance" maskUnits="userSpaceOnUse" x="10" y="10" width="22" height="22">
<path fill-rule="evenodd" clip-rule="evenodd" d="M10.0946 20.9529C10.0946 26.9539 14.9549 31.8106 20.9573 31.8106C26.9475 31.8106 31.8109 26.9517 31.8109 20.9529C31.8109 14.9581 26.9475 10.0944 20.9503 10.0944C14.9549 10.0944 10.0946 14.9581 10.0946 20.9529Z" fill="white"/>
</mask>
<g mask="url(#mask53_9_314214)">
<path fill-rule="evenodd" clip-rule="evenodd" d="M20.9515 27.206C25.2043 27.206 28.8558 28.0515 30.4139 29.2555C30.9342 28.3947 31.229 27.4511 31.229 26.4543C31.229 22.4722 26.6217 18.7632 20.9515 18.7632C15.2731 18.7632 10.6741 22.4757 10.6741 26.4543C10.6741 27.4524 10.9588 28.396 11.4826 29.2555C13.0416 28.0515 16.7 27.206 20.9515 27.206Z" fill="#D9EEF9"/>
</g>
<mask id="mask54_9_314214" style="mask-type:luminance" maskUnits="userSpaceOnUse" x="10" y="10" width="22" height="22">
<path fill-rule="evenodd" clip-rule="evenodd" d="M10.0946 20.9529C10.0946 26.9539 14.9549 31.8106 20.9573 31.8106C26.9475 31.8106 31.8109 26.9517 31.8109 20.9529C31.8109 14.9581 26.9475 10.0944 20.9503 10.0944C14.9549 10.0944 10.0946 14.9581 10.0946 20.9529Z" fill="white"/>
</mask>
<g mask="url(#mask54_9_314214)">
<path fill-rule="evenodd" clip-rule="evenodd" d="M20.9509 27.2338C25.1976 27.2338 28.8438 28.0732 30.3998 29.2675C30.9187 28.4129 31.2135 27.4767 31.2135 26.4881C31.2135 22.5366 26.6127 18.8516 20.9509 18.8516C15.2799 18.8516 10.6874 22.5397 10.6874 26.4881C10.6874 27.4789 10.9721 28.4142 11.4946 29.2675C13.0519 28.0732 16.7051 27.2338 20.9509 27.2338Z" fill="#DEF0FA"/>
</g>
<mask id="mask55_9_314214" style="mask-type:luminance" maskUnits="userSpaceOnUse" x="10" y="10" width="22" height="22">
<path fill-rule="evenodd" clip-rule="evenodd" d="M10.0946 20.9529C10.0946 26.9539 14.9549 31.8106 20.9573 31.8106C26.9475 31.8106 31.8109 26.9517 31.8109 20.9529C31.8109 14.9581 26.9475 10.0944 20.9503 10.0944C14.9549 10.0944 10.0946 14.9581 10.0946 20.9529Z" fill="white"/>
</mask>
<g mask="url(#mask55_9_314214)">
<path fill-rule="evenodd" clip-rule="evenodd" d="M20.9508 27.261C25.1923 27.261 28.8328 28.0939 30.3866 29.2795C30.9047 28.4318 31.1991 27.5026 31.1991 26.5219C31.1991 22.6005 26.6044 18.9398 20.9508 18.9398C15.2877 18.9398 10.7017 22.6035 10.7017 26.5219C10.7017 27.5048 10.9856 28.4327 11.5076 29.2795C13.0627 28.0939 16.7111 27.261 20.9508 27.261Z" fill="#E3F2FA"/>
</g>
<mask id="mask56_9_314214" style="mask-type:luminance" maskUnits="userSpaceOnUse" x="10" y="10" width="22" height="22">
<path fill-rule="evenodd" clip-rule="evenodd" d="M10.0946 20.9529C10.0946 26.9539 14.9549 31.8106 20.9573 31.8106C26.9475 31.8106 31.8109 26.9517 31.8109 20.9529C31.8109 14.9581 26.9475 10.0944 20.9503 10.0944C14.9549 10.0944 10.0946 14.9581 10.0946 20.9529Z" fill="white"/>
</mask>
<g mask="url(#mask56_9_314214)">
<path fill-rule="evenodd" clip-rule="evenodd" d="M20.9513 27.2887C25.1871 27.2887 28.8219 28.115 30.3736 29.2915C30.8908 28.4499 31.1851 27.5285 31.1851 26.5548C31.1851 22.6644 26.5965 19.0286 20.9513 19.0286C15.296 19.0286 10.7166 22.6679 10.7166 26.5548C10.7166 27.5307 11 28.4508 11.5211 29.2915C13.0741 28.115 16.7177 27.2887 20.9513 27.2887Z" fill="#E8F4FB"/>
</g>
<mask id="mask57_9_314214" style="mask-type:luminance" maskUnits="userSpaceOnUse" x="10" y="10" width="22" height="22">
<path fill-rule="evenodd" clip-rule="evenodd" d="M10.0946 20.9529C10.0946 26.9539 14.9549 31.8106 20.9573 31.8106C26.9475 31.8106 31.8109 26.9517 31.8109 20.9529C31.8109 14.9581 26.9475 10.0944 20.9503 10.0944C14.9549 10.0944 10.0946 14.9581 10.0946 20.9529Z" fill="white"/>
</mask>
<g mask="url(#mask57_9_314214)">
<path fill-rule="evenodd" clip-rule="evenodd" d="M20.9511 27.3163C25.1808 27.3163 28.8104 28.1361 30.3603 29.3034C30.8767 28.4684 31.1702 27.554 31.1702 26.5881C31.1702 22.7282 26.5881 19.1168 20.9511 19.1168C15.3032 19.1168 10.7303 22.7317 10.7303 26.5881C10.7303 27.5566 11.0134 28.4693 11.5336 29.3034C13.0844 28.1361 16.7236 27.3163 20.9511 27.3163Z" fill="#ECF6FC"/>
</g>
<mask id="mask58_9_314214" style="mask-type:luminance" maskUnits="userSpaceOnUse" x="10" y="10" width="22" height="22">
<path fill-rule="evenodd" clip-rule="evenodd" d="M10.0946 20.9529C10.0946 26.9539 14.9549 31.8106 20.9573 31.8106C26.9475 31.8106 31.8109 26.9517 31.8109 20.9529C31.8109 14.9581 26.9475 10.0944 20.9503 10.0944C14.9549 10.0944 10.0946 14.9581 10.0946 20.9529Z" fill="white"/>
</mask>
<g mask="url(#mask58_9_314214)">
<path fill-rule="evenodd" clip-rule="evenodd" d="M20.9511 27.3437C25.1756 27.3437 28.7995 28.1574 30.3468 29.3151C30.8623 28.487 31.1553 27.58 31.1553 26.6224C31.1553 22.7922 26.5798 19.2052 20.9511 19.2052C15.3107 19.2052 10.7452 22.7961 10.7452 26.6224C10.7452 27.5822 11.0269 28.4874 11.5472 29.3151C13.0953 28.1574 16.7297 27.3437 20.9511 27.3437Z" fill="#F1F8FC"/>
</g>
<mask id="mask59_9_314214" style="mask-type:luminance" maskUnits="userSpaceOnUse" x="10" y="10" width="22" height="22">
<path fill-rule="evenodd" clip-rule="evenodd" d="M10.0946 20.9529C10.0946 26.9539 14.9549 31.8106 20.9573 31.8106C26.9475 31.8106 31.8109 26.9517 31.8109 20.9529C31.8109 14.9581 26.9475 10.0944 20.9503 10.0944C14.9549 10.0944 10.0946 14.9581 10.0946 20.9529Z" fill="white"/>
</mask>
<g mask="url(#mask59_9_314214)">
<path fill-rule="evenodd" clip-rule="evenodd" d="M20.9515 27.3711C25.1703 27.3711 28.789 28.1783 30.3337 29.3264C30.8483 28.5053 31.1413 27.6057 31.1413 26.6551C31.1413 22.8558 26.5723 19.2937 20.9515 19.2937C15.3189 19.2937 10.7595 22.8597 10.7595 26.6551C10.7595 27.6083 11.0412 28.5057 11.5602 29.3264C13.1066 28.1783 16.7362 27.3711 20.9515 27.3711Z" fill="#F6FAFD"/>
</g>
<mask id="mask60_9_314214" style="mask-type:alpha" maskUnits="userSpaceOnUse" x="10" y="10" width="22" height="22">
<path fill-rule="evenodd" clip-rule="evenodd" d="M20.9976 10C14.9238 10 10 14.9273 10 21.0004C10 27.0798 14.9238 32 21.0046 32C27.0731 32 32 27.0776 32 21.0004C32 14.9272 27.0731 10 20.9976 10Z" fill="black"/>
</mask>
<g mask="url(#mask60_9_314214)">
<path fill-rule="evenodd" clip-rule="evenodd" d="M21.1235 23.7849C17.3854 23.7849 12.8975 24.7422 10.0281 25.7965C11.7479 29.5941 16.6234 33.227 21.1235 33.227C25.605 33.227 30.022 29.5941 31.7449 25.7965C28.8493 24.3715 24.8665 23.7849 21.1235 23.7849Z" fill="#007BC6"/>
</g>
</svg>
