<svg width="42" height="42" viewBox="0 0 42 42" fill="none" xmlns="http://www.w3.org/2000/svg">
<circle cx="21" cy="21" r="21" fill="#AB1416"/>
<path fill-rule="evenodd" clip-rule="evenodd" d="M21.0235 9C27.6636 9 33.047 14.3733 33.047 21C33.047 27.6267 27.6636 33 21.0235 33C14.3833 33 9 27.6254 9 21C9 14.3746 14.3833 9 21.0235 9ZM21.0235 10.8583C15.4128 10.8583 10.8636 15.3984 10.8636 20.9994C10.8636 26.6003 15.4128 31.1395 21.0235 31.1395C26.6341 31.1395 31.1843 26.5994 31.1843 20.9994C31.1843 15.3994 26.6351 10.8583 21.0235 10.8583ZM27.5074 14.5396V20.0735H23.8271V21.9177H27.5074V27.4501H21.5154V25.6077H25.6575V23.7626H21.9678V18.2286H25.6591V16.3847H21.5154V14.5396H27.5074ZM20.5876 14.5364V16.3782H16.4295V18.223H20.1195V23.7573H16.4295V25.6027H20.5851V27.4479H14.5812V21.9133H18.2625V20.0682H14.5812V14.5374H20.5851L20.5876 14.5364Z" fill="white"/>
<circle cx="21" cy="21" r="20.5" stroke="black" stroke-opacity="0.04"/>
</svg>
