<svg width="42" height="42" viewBox="0 0 42 42" fill="none" xmlns="http://www.w3.org/2000/svg">
<circle cx="21" cy="21" r="21" fill="#3147A4"/>
<g clip-path="url(#clip0_9_314684)">
<path fill-rule="evenodd" clip-rule="evenodd" d="M19.3342 12.1033C19.8647 12.0149 21.3659 11.9331 22.6112 13.1859L28.6258 19.2151L26.3474 21.5276C26.3474 21.5276 26.054 21.7285 25.858 21.6718C25.6451 21.6223 25.4189 21.4154 25.4189 21.4154L21.0842 17.0595C21.0471 17.0236 20.9975 17.0035 20.946 17.0035C20.8944 17.0035 20.8448 17.0236 20.8077 17.0595L16.083 21.8104L16.0779 21.8158C16.043 21.8524 16.024 21.9013 16.025 21.9518C16.026 22.0024 16.0468 22.0505 16.083 22.0857L20.8077 26.8369C20.8451 26.8723 20.8945 26.892 20.946 26.892C20.9974 26.892 21.0468 26.8723 21.0842 26.8369L25.7816 22.1112C25.8384 22.0694 25.8979 22.0314 25.9598 21.9976C26.0731 21.948 26.4388 21.948 26.4388 21.948H30.2945C30.2945 21.948 30.6111 21.9103 30.7705 22.0113C30.9004 22.0934 30.9203 22.2741 30.9192 22.3422C30.7159 27.6947 26.3373 31.9999 20.9638 31.9999C15.4616 31.9999 11 27.519 11 21.9839C11 17.0089 14.6073 12.8854 19.3342 12.1023V12.1033ZM19.8254 11.8091C19.8254 11.8091 23.9917 9.40191 27.5949 12.8917L30.8229 16.1261C30.8229 16.1261 31.0366 16.4077 30.9948 16.6084C30.9517 16.8274 30.762 17.0658 30.762 17.0658L29.1899 18.6261L23.8596 13.2492C21.5943 10.8557 19.8276 11.8091 19.8276 11.8091H19.8254Z" fill="white"/>
</g>
<circle cx="21" cy="21" r="20.5" stroke="black" stroke-opacity="0.04"/>
<defs>
<clipPath id="clip0_9_314684">
<rect width="20" height="21" fill="white" transform="translate(11 11)"/>
</clipPath>
</defs>
</svg>
