<svg width="42" height="42" viewBox="0 0 42 42" fill="none" xmlns="http://www.w3.org/2000/svg">
<circle cx="21" cy="21" r="21" fill="#120064"/>
<circle cx="21" cy="21" r="20.5" stroke="black" stroke-opacity="0.04"/>
<mask id="mask0_9_314412" style="mask-type:luminance" maskUnits="userSpaceOnUse" x="0" y="0" width="42" height="42">
<circle cx="21" cy="21" r="21" fill="white"/>
</mask>
<g mask="url(#mask0_9_314412)">
<path d="M15.651 19.0553C15.1149 19.0553 14.6234 19.234 14.2659 19.5915L14.1319 19.7255V17.0447H12.7021V21.6021C12.7021 23.3 13.7297 24.3723 15.3829 24.3723C16.9914 24.3723 18.1532 23.2553 18.1532 21.6915C18.1532 20.1723 17.1255 19.0553 15.651 19.0553ZM15.4276 23.0766C14.668 23.0766 14.0425 22.4511 14.0425 21.6915C14.0425 20.9319 14.668 20.3064 15.4276 20.3064C16.1872 20.3064 16.8127 20.9319 16.8127 21.6915C16.768 22.4957 16.1872 23.0766 15.4276 23.0766Z" fill="white"/>
<path d="M10.2894 17L7.47447 20.3064V17H6V24.2383H7.47447V20.9766L10.3787 24.2383H12.2106L9.0383 20.6191L12.1213 17H10.2894Z" fill="white"/>
<path d="M35.9808 19.234H34.417L32.5851 21.3787V17H31.1553V24.2383H32.5851V22.0489L34.417 24.2383H35.9808L33.8808 21.7362L35.9808 19.234Z" fill="white"/>
<path d="M28.3404 19.0553C27.4467 19.0553 26.9106 19.4574 26.6425 19.7702V19.234H25.2574V24.2383H26.6872V21.5127C26.6872 20.8425 27.1787 20.351 27.7595 20.351C28.3404 20.351 28.8319 20.8425 28.8319 21.5127V24.2383H30.2616V21.0659C30.2616 19.9042 29.4127 19.0553 28.3404 19.0553Z" fill="white"/>
<path d="M21.5935 19.0553C19.985 19.0553 18.8233 20.1723 18.8233 21.7361C18.8233 23.3 19.8956 24.417 21.3701 24.417C22.3978 24.417 22.9786 23.6574 22.9786 23.6574L23.068 23.5234V24.2383H24.3637V21.7361C24.3637 20.1723 23.202 19.0553 21.5935 19.0553ZM21.6382 23.0766C20.8786 23.0766 20.2531 22.451 20.2531 21.6915C20.2531 20.9319 20.8786 20.3064 21.6382 20.3064C22.3978 20.3064 23.0233 20.9319 23.0233 21.6915C23.0233 22.4957 22.3978 23.0766 21.6382 23.0766Z" fill="white"/>
</g>
</svg>
