<svg width="42" height="42" viewBox="0 0 42 42" fill="none" xmlns="http://www.w3.org/2000/svg">
<circle cx="21" cy="21" r="21" fill="#E87127"/>
<circle cx="21" cy="21" r="20.5" stroke="black" stroke-opacity="0.05"/>
<path d="M17.9402 21.2836C17.6252 18.4278 20.6214 16.1296 24.6347 16.1764C28.6481 16.2233 32.155 18.5513 32.4699 21.407C32.7849 24.2627 29.7887 26.5609 25.7753 26.5141C21.762 26.4673 18.2551 24.135 17.9402 21.2836ZM33.219 22.1731C32.8572 18.6279 28.8183 15.7211 24.2006 15.6828C19.583 15.6445 16.1144 18.4874 16.4931 22.0369C16.8719 25.5863 20.8938 28.4889 25.5115 28.5229C30.1292 28.557 33.5977 25.7183 33.219 22.1731Z" fill="white"/>
<path d="M26.2432 28.5912C23.9705 30.966 20.3189 31.1448 18.0931 29.0168C15.8672 26.8889 15.897 23.2288 18.1739 20.8497C20.4508 18.4706 24.1024 18.2961 26.3283 20.4241C28.5541 22.5521 28.5201 26.2122 26.2432 28.5912ZM17.8164 20.7858C15.1735 23.5522 15.1309 27.7996 17.7185 30.2808C20.3061 32.762 24.5536 32.528 27.1965 29.7701C29.8394 27.0123 29.8862 22.7563 27.2944 20.2751C24.7025 17.7939 20.4849 18.0237 17.8164 20.7858Z" fill="white"/>
<path d="M18.0583 11.895C22.7866 10.1203 27.4639 11.895 28.5066 15.8999C29.5493 19.9047 26.5574 24.5522 21.8248 26.3269C17.0922 28.1016 12.4149 26.3056 11.3722 22.3178C10.3295 18.33 13.3257 13.6655 18.0583 11.895ZM13.6832 13.4144C8.77183 17.3043 7.52484 22.9307 10.8913 25.9907C14.2577 29.0507 20.9651 28.3825 25.8764 24.4969C30.7878 20.6112 32.0305 14.9806 28.6683 11.9206C25.3061 8.86055 18.5903 9.52874 13.6832 13.4144Z" fill="white"/>
</svg>
