<svg width="42" height="42" viewBox="0 0 42 42" fill="none" xmlns="http://www.w3.org/2000/svg">
<circle cx="21" cy="21" r="21" fill="white"/>
<circle cx="21" cy="21" r="20.5" stroke="black" stroke-opacity="0.05"/>
<g clip-path="url(#clip0_9_324642)">
<path d="M19.0405 19.1482C18.3091 19.1482 17.6664 19.3855 17.2318 19.8304C16.7343 20.3216 16.4609 21.0941 16.4609 22.0051C16.4609 22.916 16.7343 23.688 17.2318 24.1792C17.6664 24.6252 18.3091 24.8682 19.0405 24.8682C19.7718 24.8682 20.4226 24.6252 20.8572 24.1792C21.3461 23.688 21.6194 22.9154 21.6194 22.0051C21.6194 21.0947 21.3455 20.3216 20.8572 19.8304C20.422 19.3855 19.7713 19.1482 19.0405 19.1482ZM20.0869 23.5827C19.8479 23.8875 19.4711 24.0614 19.0399 24.0614C18.6087 24.0614 18.2319 23.8875 18.0009 23.5833C17.7338 23.2522 17.5932 22.7004 17.5932 22.0045C17.5932 21.3086 17.7338 20.7648 18.0009 20.4257C18.2319 20.1215 18.6167 19.9556 19.0399 19.9556C19.4631 19.9556 19.8479 20.1215 20.0869 20.4257C20.3545 20.7653 20.4918 21.3091 20.4918 22.0045C20.4918 22.6998 20.3545 23.2517 20.0869 23.5827Z" fill="#003477"/>
<path d="M33.1738 19.8304C32.7375 19.3855 32.0873 19.1482 31.3571 19.1482C30.6269 19.1482 29.983 19.3855 29.5444 19.8304C29.0509 20.3216 28.7793 21.0941 28.7793 22.0051C28.7793 22.916 29.0509 23.688 29.5444 24.1792C29.983 24.6252 30.6257 24.8682 31.3571 24.8682C32.0885 24.8682 32.7375 24.6252 33.1738 24.1792C33.6639 23.688 33.9361 22.9148 33.9361 22.0051C33.9361 21.0953 33.6645 20.3216 33.1738 19.8304ZM32.4036 23.5827C32.1645 23.887 31.7883 24.0614 31.3571 24.0614C30.926 24.0614 30.5485 23.887 30.3164 23.5827C30.0511 23.2522 29.9098 22.7004 29.9098 22.0045C29.9098 21.3086 30.0511 20.7648 30.3164 20.4257C30.5485 20.1215 30.9334 19.9556 31.3571 19.9556C31.7808 19.9556 32.1651 20.1215 32.4036 20.4251C32.6712 20.7648 32.8073 21.3091 32.8073 22.0045C32.8073 22.6998 32.6706 23.2517 32.4036 23.5827Z" fill="#003477"/>
<path d="M13.9115 24.7367C13.8486 24.68 13.7731 24.5497 13.7731 24.3547V22.371L15.6241 19.2694H14.3564C14.4479 19.3609 14.457 19.5067 14.3455 19.6811L13.3431 21.4172C12.5002 19.891 12.5013 19.8475 12.3487 19.5702C12.2291 19.3609 12.1285 19.2688 11.9032 19.2688H10.9048C10.9837 19.342 11.0655 19.4524 11.2364 19.7366L12.7123 22.3561V24.3541C12.7123 24.5491 12.6369 24.6795 12.574 24.7361H13.9115V24.7367Z" fill="#003477"/>
<path d="M23.3853 24.7367C23.4482 24.6801 23.5236 24.5497 23.5236 24.3547V19.6514C23.5236 19.4564 23.4482 19.3254 23.3853 19.2694H25.1962C26.0654 19.2694 26.8237 19.6886 26.8237 20.5023C26.8237 20.8465 26.6659 21.3349 26.2639 21.5499C26.7516 21.7363 27.268 22.1857 27.268 22.9486C27.268 23.5135 26.9878 24.0099 26.6092 24.2947C26.2593 24.5583 25.8561 24.7373 25.1962 24.7373H23.3853V24.7367ZM24.5844 21.3337C24.7817 21.3566 25.1848 21.3309 25.3581 21.2405C25.5313 21.1502 25.7298 21.0181 25.7298 20.6738C25.7298 20.3296 25.4427 20.0562 25.0247 20.0562C24.868 20.0562 24.7371 20.0643 24.585 20.1123V21.3343L24.5844 21.3337ZM25.7698 23.816C26.0832 23.6142 26.1558 23.3214 26.1558 23.0143C26.1558 22.4151 25.6285 22.1383 25.1208 22.1383C25.0121 22.1383 24.7502 22.1423 24.5838 22.1703V23.9224C24.9326 24.0196 25.4907 23.9956 25.7692 23.816H25.7698Z" fill="#003477"/>
<path d="M6.13838 24.3541C6.13838 24.5491 6.06233 24.6795 6 24.7361H7.33751C7.27461 24.6795 7.19913 24.5491 7.19913 24.3541V22.2183L8.75222 24.4353C8.89575 24.6446 9.00726 24.7367 9.23199 24.7367H10.3036C10.2167 24.6635 10.1218 24.5531 9.91819 24.2689L8.16667 21.786L9.95765 19.2688H8.64015C8.70877 19.358 8.71677 19.4701 8.58868 19.6851L7.19913 21.6882V19.6508C7.19913 19.4558 7.27461 19.3248 7.33751 19.2688H6C6.0629 19.3248 6.13838 19.4558 6.13838 19.6508V24.3541Z" fill="#003477"/>
<path d="M35.6525 11.7801C35.1538 11.2752 34.3287 11.3627 33.8415 11.8779C33.209 12.5424 32.7173 12.79 32.1311 12.7648C31.3129 12.7294 30.9091 12.0975 30.4883 11.2986C30.052 10.4638 29.3812 10 28.544 10C27.2283 10 26.438 11.0653 26.438 12.2536C26.438 14.0823 27.724 15.1756 28.6138 15.6371C29.3538 16.022 30.1761 16.1821 30.908 16.2004C30.8651 16.6378 30.7359 17.2154 30.5935 17.6231H32.0991C31.9504 17.2154 31.8189 16.5909 31.7795 16.1523C33.9845 15.8658 35.032 14.864 35.6056 13.9102C35.8629 13.4922 36.0002 13.0576 35.9984 12.6676C35.9967 12.3256 35.8875 12.0151 35.6508 11.7801H35.6525ZM28.5555 12.9238C28.1278 12.9507 27.7635 12.6281 27.736 12.2033C27.7097 11.779 28.0305 11.4119 28.4577 11.385C28.8809 11.3581 29.2451 11.6818 29.272 12.1061C29.2989 12.5304 28.9781 12.8963 28.5549 12.9232L28.5555 12.9238Z" fill="#45B035"/>
</g>
<defs>
<clipPath id="clip0_9_324642">
<rect width="30" height="14.8676" fill="white" transform="translate(6 10)"/>
</clipPath>
</defs>
</svg>
