<svg width="42" height="42" viewBox="0 0 42 42" fill="none" xmlns="http://www.w3.org/2000/svg">
<circle cx="21" cy="21" r="21" fill="white"/>
<g clip-path="url(#clip0_9_324657)">
<path d="M31.654 11H21.6709L29.7104 31H31.654V11Z" fill="#FFB617"/>
<path d="M16.6988 22.2949H15.4738V27.8603L12.1751 22.7C11.9243 22.319 11.6253 22.29 11.3166 22.29H10V30.9951H11.905V25.1982C12.8454 26.6884 15.5655 30.9951 15.5655 30.9951H17.374V22.97C17.374 22.536 17.1329 22.2949 16.6988 22.2949Z" fill="black"/>
<path d="M24.4779 23.2835C24.2223 22.6517 23.7352 22.29 23.1372 22.29H22.8719C22.2739 22.29 21.7868 22.6517 21.5312 23.2835L18.5073 31H20.5039L21.2659 28.9503H24.7335L25.4955 31H27.4921L24.4731 23.2884L24.4779 23.2835ZM24.1934 27.4745H21.8157L23.0021 24.142L24.1885 27.4745H24.1934Z" fill="black"/>
<path d="M19.3466 11H18.1216V19.7051H20.0218V11.6752C20.0218 11.2411 19.7854 11 19.3466 11Z" fill="black"/>
<path d="M11.9002 18.2293V11.6752C11.9002 11.2411 11.659 11 11.225 11H10V18.5428C10 19.1842 10.5209 19.7051 11.1623 19.7051H16.5059V18.2293H11.9002Z" fill="black"/>
</g>
<circle cx="21" cy="21" r="20.5" stroke="black" stroke-opacity="0.05"/>
<defs>
<clipPath id="clip0_9_324657">
<rect width="21.6542" height="20" fill="white" transform="translate(10 11)"/>
</clipPath>
</defs>
</svg>
