<svg width="42" height="42" viewBox="0 0 42 42" fill="none" xmlns="http://www.w3.org/2000/svg">
<circle cx="21" cy="21" r="21" fill="white"/>
<circle cx="21" cy="21" r="20.5" stroke="black" stroke-opacity="0.05"/>
<path d="M30.9097 11.0005C30.5531 11.0014 30.0891 11.1095 29.4788 11.3203C26.9033 12.2098 24.6046 13.6987 22.5034 15.8371L21.0391 17.5653L21.6036 18.3733C22.5712 19.7391 23.5835 22.0534 24.0573 24.001C24.3481 25.119 24.4622 25.81 24.5099 26.9636C24.5181 27.1575 24.5277 27.362 24.5324 27.5864C24.5376 27.809 24.5414 28.0491 24.5437 28.3102C24.5542 29.6927 24.571 31.2728 24.4263 31.2728H31.3291L31.7204 30.8744C31.9639 30.5255 32 29.2934 32 21.0606C32 12.5497 31.9712 11.6111 31.7039 11.3144C31.5153 11.106 31.2665 10.9996 30.9097 11.0005Z" fill="#A4CE4E"/>
<path d="M11.1347 11.0003C10.7883 10.9944 10.5362 11.0882 10.3241 11.2808C10.0152 11.5614 10 12.1017 10 21.027C10 29.2879 10.0359 30.5252 10.2796 30.8743L10.5591 31.2727H17.4228C22.7217 31.2727 24.3189 31.2215 24.4262 31.0483C24.5025 30.9249 24.5542 29.6926 24.5435 28.31C24.5274 26.2208 24.4454 25.4933 24.0572 24.0009C23.2077 20.7356 21.6075 17.792 19.3033 15.598C17.2992 13.6897 14.9927 12.1738 12.5209 11.32C11.9236 11.1141 11.4809 11.0063 11.1346 11.0004L11.1347 11.0003Z" fill="#0192D5"/>
<path d="M21.0391 17.5649L20.6029 18.0929C19.8282 19.0407 18.4148 22.1833 17.9423 24.0069C17.556 25.4976 17.4753 26.2237 17.4617 28.3216C17.4526 29.7084 17.4281 31.2732 17.5678 31.2732H24.4259C24.5706 31.2732 24.554 29.6931 24.5432 28.3105C24.5272 26.2213 24.4214 25.4999 24.057 24.0014C23.5831 22.0536 22.5731 19.7409 21.6055 18.3751L21.0391 17.5649Z" fill="#0065A5"/>
</svg>
